<svg width="26" height="34" viewBox="0 0 26 34" fill="none" xmlns="http://www.w3.org/2000/svg">
<path d="M15.7313 0.484972C14.6837 0.161658 13.6361 0 12.5482 0C11.4602 0 10.4126 0.161658 9.365 0.484972C2.83753 2.42486 -1.07089 9.78027 0.258776 16.3274C1.74962 23.6828 6.10127 28.9367 12.1452 32.9781C12.2661 33.0589 12.387 33.0993 12.5482 33.0993C12.7093 33.0993 12.8705 33.0589 12.9511 32.9781C18.995 28.9367 23.3467 23.6828 24.8375 16.3274C26.1672 9.73986 22.2991 2.42486 15.7313 0.484972ZM12.5079 21.46C7.10859 21.46 2.75694 17.0548 2.75694 11.6797C2.75694 6.30464 7.10859 1.85906 12.5079 1.85906C17.9071 1.85906 22.2588 6.26422 22.2588 11.6393C22.2588 17.0144 17.9071 21.46 12.5079 21.46Z" fill="url(#paint0_linear_114_217)"/>
<defs>
<linearGradient id="paint0_linear_114_217" x1="12.5491" y1="33.0993" x2="12.5491" y2="1.74925e-07" gradientUnits="userSpaceOnUse">
<stop stop-color="#5CCC94"/>
<stop offset="1" stop-color="#8CCAAE"/>
</linearGradient>
</defs>
</svg>
