<svg width="35" height="34" viewBox="0 0 35 34" fill="none" xmlns="http://www.w3.org/2000/svg">
<path d="M34.7069 12.392C34.7069 12.4926 34.7069 12.5933 34.7069 12.6939C34.5565 13.0534 34.3157 13.3481 34.0374 13.6141C32.6609 14.9584 31.2768 16.2956 29.8928 17.6399C29.8777 17.6543 29.8627 17.6543 29.8401 17.6686C29.6671 17.5249 29.5016 17.3739 29.3136 17.2445C28.8321 16.9066 28.0724 17.1367 27.8693 17.6686C27.7189 18.0568 27.8468 18.3875 28.1025 18.6895C28.2078 18.8117 28.3206 18.9267 28.426 19.0417C28.3959 19.0777 28.3658 19.0992 28.3432 19.1208C24.2061 23.0603 20.0689 26.9998 15.9243 30.9321C15.2247 31.6007 14.4875 32.2405 13.7729 32.8947C13.6225 33.0313 13.457 33.0816 13.2539 33.096C12.7875 33.1248 12.4114 32.9666 12.0805 32.6503C11.3057 31.9027 10.5159 31.1622 9.73358 30.4217C9.71853 30.4074 9.70349 30.3858 9.6734 30.357C10.5309 29.5231 10.9446 28.5023 10.9446 27.3377C10.9522 26.1659 10.546 25.1523 9.68092 24.3184C9.00393 23.6642 8.21412 23.2256 7.25881 23.0891C5.73935 22.8734 4.3929 23.24 3.25706 24.2321C3.21193 24.1962 3.18936 24.1818 3.1668 24.1602C2.41459 23.4341 1.66238 22.7152 0.917694 21.982C0.549112 21.6153 0.150442 21.2703 0 20.7455C0 20.6664 0 20.5873 0 20.5082C0.14292 20.2926 0.255751 20.0625 0.428759 19.8756C0.86504 19.394 1.30884 18.9195 1.77521 18.4666C6.07784 14.333 10.388 10.2066 14.6906 6.08013C14.7207 6.05137 14.7508 6.0298 14.7809 6.00105C14.9163 6.11607 15.0291 6.24547 15.1645 6.33893C15.3375 6.46114 15.5256 6.58335 15.7212 6.64805C16.2477 6.81339 16.9096 6.30298 16.8796 5.77819C16.8645 5.47626 16.7592 5.20308 16.526 4.98741C16.4057 4.87958 16.2853 4.77893 16.165 4.6711C16.2251 4.6064 16.2627 4.57046 16.2928 4.5417C17.188 3.69341 18.0756 2.83074 18.9782 1.98964C19.6101 1.40015 20.2494 0.817852 20.9114 0.249929C21.3176 -0.0951383 21.8667 -0.0735715 22.2879 0.257118C22.4008 0.343385 22.5061 0.429651 22.6114 0.523107C23.5065 1.36421 24.4092 2.20531 25.3043 3.04641C25.3269 3.06798 25.3344 3.08954 25.3494 3.11111C23.6118 4.81488 23.7472 7.5898 25.3118 9.12103C26.0415 9.83992 26.9065 10.3 27.9445 10.415C29.4038 10.5804 30.6976 10.2353 31.7507 9.25762C32.5029 9.96932 33.2401 10.6523 33.9697 11.3496C34.3007 11.6515 34.6016 11.9606 34.7069 12.392ZM18.384 7.25911C18.2711 7.30224 18.1433 7.33099 18.053 7.39569C17.9101 7.50353 17.7897 7.63293 17.6769 7.76952C17.4964 7.98518 17.4663 8.24399 17.6092 8.48122C17.9477 9.07071 18.4216 9.53799 19.0384 9.86868C19.2264 9.96932 19.4446 9.99089 19.6552 9.91181C20.3172 9.66739 20.5428 9.03476 20.1291 8.48841C19.8884 8.17928 19.5875 7.90611 19.3092 7.62574C19.061 7.38851 18.7526 7.28786 18.384 7.25911ZM23.7773 12.3273C23.7924 12.3201 23.8074 12.3129 23.8224 12.3057C23.7397 12.126 23.6946 11.9247 23.5667 11.7809C23.2207 11.3999 22.8446 11.0405 22.4609 10.6954C22.3707 10.6091 22.2052 10.5804 22.0773 10.5588C21.6561 10.4869 21.3702 10.7098 21.1371 11.0045C20.949 11.2418 20.8964 11.5006 21.0543 11.7665C21.3928 12.3417 21.8517 12.8233 22.4609 13.1324C22.9875 13.42 23.7773 12.924 23.7773 12.3273ZM25.4021 13.7794C24.9357 13.8082 24.6649 14.067 24.4769 14.4049C24.2963 14.7212 24.3716 15.0519 24.6123 15.3035C24.9658 15.6701 25.3494 16.0152 25.7481 16.3387C25.8684 16.4393 26.0715 16.4825 26.237 16.4753C27.0569 16.4321 27.4706 15.6486 26.9667 15.0231C26.6507 14.6349 26.2596 14.297 25.8835 13.9663C25.7631 13.8657 25.5676 13.8441 25.4021 13.7794Z" fill="url(#paint0_linear_114_222)"/>
<defs>
<linearGradient id="paint0_linear_114_222" x1="17.3534" y1="33.0993" x2="17.3534" y2="1.74925e-07" gradientUnits="userSpaceOnUse">
<stop stop-color="#5CCC94"/>
<stop offset="1" stop-color="#8CCAAE"/>
</linearGradient>
</defs>
</svg>
