<svg width="45" height="80" viewBox="0 0 45 80" fill="none" xmlns="http://www.w3.org/2000/svg">
<circle cx="19.8677" cy="18.8677" r="48.9664" stroke="url(#paint0_linear_0_1)" stroke-width="13.8026"/>
<path d="M22.0568 79.4258H17.6193V62.0508L13.2912 63.7227V60.0352L21.5881 56.6445H22.0568V79.4258Z" fill="url(#paint1_linear_0_1)"/>
<path d="M3.72934 26.0798C3.86763 25.9018 3.9328 25.6783 3.91171 25.4545V25.0267C3.93011 24.8148 3.87766 24.6027 3.7625 24.4233C3.70482 24.3574 3.63211 24.306 3.55041 24.2736C3.46871 24.2412 3.38039 24.2286 3.29279 24.2368H2.70703V26.2663H3.18227C3.28144 26.2737 3.38107 26.261 3.47513 26.229C3.56919 26.1969 3.65569 26.1462 3.72934 26.0798Z" fill="url(#paint2_linear_0_1)"/>
<path d="M26.7537 24.1848H26.1348V29.6699H26.7537C26.8384 29.6748 26.9231 29.6617 27.0022 29.6314C27.0813 29.6011 27.153 29.5544 27.2124 29.4943C27.3332 29.3295 27.3901 29.127 27.3726 28.9239V24.9308C27.3903 24.7277 27.3334 24.5251 27.2124 24.3603C27.1533 24.2999 27.0817 24.2528 27.0025 24.2225C26.9233 24.1922 26.8384 24.1793 26.7537 24.1848Z" fill="url(#paint3_linear_0_1)"/>
<path d="M1.88631 10.0682V6.0751C1.90608 5.8718 1.84893 5.66847 1.72603 5.50466C1.66663 5.44461 1.59498 5.39787 1.51587 5.3676C1.43676 5.33732 1.352 5.32421 1.26736 5.32914H0.648438V10.8142H1.26736C1.35205 10.8196 1.43694 10.8068 1.51614 10.7765C1.59533 10.7462 1.66696 10.6991 1.72603 10.6386C1.84893 10.4748 1.90608 10.2715 1.88631 10.0682Z" fill="url(#paint4_linear_0_1)"/>
<path d="M15.1263 16.1452H29.041C29.3527 16.1438 29.6512 16.0202 29.8717 15.8014C30.0921 15.5826 30.2166 15.2863 30.218 14.9769V1.16557C30.2166 0.856412 30.092 0.56037 29.8715 0.342017C29.651 0.123665 29.3524 0.000720642 29.041 0H15.1263C14.8148 0.000720642 14.5162 0.123665 14.2957 0.342017C14.0752 0.56037 13.9507 0.856412 13.9492 1.16557V14.9851C13.9528 15.2931 14.0783 15.5873 14.2985 15.8043C14.5187 16.0214 14.816 16.1438 15.1263 16.1452ZM22.5036 11.1319C22.4945 10.6479 22.5887 10.1675 22.7799 9.72222C23.0234 9.24048 23.3445 8.8014 23.7304 8.42227C24.0955 8.05992 24.4096 7.65033 24.6643 7.20459C24.8356 6.87963 24.9247 6.51821 24.924 6.15146C24.9479 5.91165 24.8916 5.6707 24.7638 5.46583C24.7053 5.40057 24.6326 5.34938 24.5512 5.31612C24.4698 5.28286 24.3819 5.2684 24.2941 5.27386C23.8741 5.27386 23.6641 5.52617 23.6641 6.0308V6.85355H22.5146V6.10759C22.4804 5.58917 22.6464 5.07726 22.9789 4.67599C23.3531 4.35393 23.8319 4.17664 24.3272 4.17664C24.8226 4.17664 25.3013 4.35393 25.6756 4.67599C26.0081 5.07726 26.174 5.58917 26.1398 6.10759C26.1375 6.58461 26.022 7.05439 25.8027 7.47884C25.4907 8.04394 25.098 8.56123 24.6367 9.01465C24.3551 9.29184 24.11 9.60331 23.9072 9.94162C23.7836 10.177 23.7191 10.4386 23.7193 10.704V10.8686H26.0292V11.9656H22.5146L22.5036 11.1319ZM18.033 4.2893H19.8898C20.1378 4.27048 20.387 4.30374 20.6213 4.38691C20.8555 4.47007 21.0695 4.60127 21.2492 4.77198C21.5762 5.16927 21.7382 5.67536 21.7023 6.18712V10.0705C21.7393 10.5824 21.5772 11.0889 21.2492 11.4857C21.0699 11.6569 20.856 11.7885 20.6216 11.8717C20.3873 11.9549 20.1379 11.9879 19.8898 11.9683H18.033V4.2893Z" fill="url(#paint5_linear_0_1)"/>
<path d="M43.9887 0H33.9644C33.6974 0.000713353 33.4414 0.105944 33.2521 0.292847C33.0627 0.479749 32.9553 0.733237 32.9531 0.998276V15.136C32.9539 15.4019 33.0606 15.6568 33.2501 15.8449C33.4396 16.033 33.6964 16.139 33.9644 16.1397H43.9887C44.2567 16.139 44.5135 16.033 44.703 15.8449C44.8925 15.6568 44.9993 15.4019 45 15.136V0.998276C44.9978 0.733237 44.8904 0.479749 44.701 0.292847C44.5117 0.105944 44.2557 0.000713353 43.9887 0ZM40.7891 10.0486C40.8245 10.5671 40.6584 11.0795 40.3249 11.4802C39.9507 11.8022 39.4719 11.9795 38.9766 11.9795C38.4812 11.9795 38.0025 11.8022 37.6282 11.4802C37.2947 11.0795 37.1286 10.5671 37.164 10.0486V4.17685H38.3797V10.1226C38.36 10.3259 38.4171 10.5293 38.54 10.6931C38.6656 10.8062 38.8291 10.8689 38.9987 10.8689C39.1682 10.8689 39.3318 10.8062 39.4573 10.6931C39.5784 10.5284 39.6353 10.3257 39.6176 10.1226V4.17685H40.7891V10.0486Z" fill="url(#paint6_linear_0_1)"/>
<defs>
<linearGradient id="paint0_linear_0_1" x1="19.8677" y1="-37" x2="19.8677" y2="74.7354" gradientUnits="userSpaceOnUse">
<stop stop-color="#F58C1F"/>
<stop offset="1" stop-color="#F57D21"/>
</linearGradient>
<linearGradient id="paint1_linear_0_1" x1="18.9318" y1="53.4258" x2="18.9318" y2="80.7361" gradientUnits="userSpaceOnUse">
<stop stop-color="#F58C1F"/>
<stop offset="1" stop-color="#F57D21"/>
</linearGradient>
<linearGradient id="paint2_linear_0_1" x1="3.31132" y1="24.2344" x2="3.31132" y2="26.2684" gradientUnits="userSpaceOnUse">
<stop stop-color="#F58C1F"/>
<stop offset="1" stop-color="#F57D21"/>
</linearGradient>
<linearGradient id="paint3_linear_0_1" x1="26.7553" y1="24.1836" x2="26.7553" y2="29.6709" gradientUnits="userSpaceOnUse">
<stop stop-color="#F58C1F"/>
<stop offset="1" stop-color="#F57D21"/>
</linearGradient>
<linearGradient id="paint4_linear_0_1" x1="1.26929" y1="5.32812" x2="1.26929" y2="10.8154" gradientUnits="userSpaceOnUse">
<stop stop-color="#F58C1F"/>
<stop offset="1" stop-color="#F57D21"/>
</linearGradient>
<linearGradient id="paint5_linear_0_1" x1="22.0836" y1="0" x2="22.0836" y2="16.1452" gradientUnits="userSpaceOnUse">
<stop stop-color="#F58C1F"/>
<stop offset="1" stop-color="#F57D21"/>
</linearGradient>
<linearGradient id="paint6_linear_0_1" x1="38.9766" y1="0" x2="38.9766" y2="16.1397" gradientUnits="userSpaceOnUse">
<stop stop-color="#F58C1F"/>
<stop offset="1" stop-color="#F57D21"/>
</linearGradient>
</defs>
</svg>
