<svg width="36" height="83" viewBox="0 0 36 83" fill="none" xmlns="http://www.w3.org/2000/svg">
<circle cx="17.8677" cy="21.8677" r="48.9664" stroke="url(#paint0_linear_0_1)" stroke-width="13.8026"/>
<path d="M23.7287 82.4258H10.3225V79.3008L16.4787 71.4727C17.26 70.3893 17.8329 69.4414 18.1975 68.6289C18.5725 67.806 18.76 67.0195 18.76 66.2695C18.76 65.2591 18.5829 64.4674 18.2287 63.8945C17.885 63.3216 17.385 63.0352 16.7287 63.0352C16.01 63.0352 15.4371 63.3685 15.01 64.0352C14.5933 64.7018 14.385 65.6393 14.385 66.8477H9.94747C9.94747 65.4518 10.2339 64.1758 10.8068 63.0195C11.3902 61.8633 12.2027 60.9674 13.2443 60.332C14.2964 59.6862 15.4839 59.3633 16.8068 59.3633C18.8381 59.3633 20.411 59.9258 21.5256 61.0508C22.6506 62.1654 23.2131 63.7539 23.2131 65.8164C23.2131 67.0977 22.9006 68.3997 22.2756 69.7227C21.661 71.0352 20.5412 72.6549 18.9162 74.582L15.9943 78.7539H23.7287V82.4258Z" fill="url(#paint1_linear_0_1)"/>
<path d="M27.1042 4.82203V1.83203C27.1042 1.0462 26.4525 0.394531 25.6667 0.394531C24.8808 0.394531 24.2292 1.0462 24.2292 1.83203V4.70703H11.7708V1.83203C11.7708 1.0462 11.1192 0.394531 10.3333 0.394531C9.5475 0.394531 8.89583 1.0462 8.89583 1.83203V4.82203C3.72083 5.3012 1.21 8.38703 0.826667 12.9679C0.788333 13.5237 1.24833 13.9837 1.785 13.9837H34.215C34.7708 13.9837 35.2308 13.5045 35.1733 12.9679C34.79 8.38703 32.2792 5.3012 27.1042 4.82203V4.82203ZM33.3333 16.8587H2.66667C1.6125 16.8587 0.75 17.7212 0.75 18.7754V30.582C0.75 36.332 3.625 40.1654 10.3333 40.1654H25.6667C32.375 40.1654 35.25 36.332 35.25 30.582V18.7754C35.25 17.7212 34.3875 16.8587 33.3333 16.8587ZM12.6525 32.9012C12.5567 32.9779 12.4608 33.0737 12.365 33.1312C12.25 33.2079 12.135 33.2654 12.02 33.3037C11.905 33.3612 11.79 33.3995 11.675 33.4187C11.5408 33.4379 11.4258 33.457 11.2917 33.457C11.0425 33.457 10.7933 33.3995 10.5633 33.3037C10.3142 33.2079 10.1225 33.0737 9.93083 32.9012C9.58583 32.537 9.375 32.0387 9.375 31.5404C9.375 31.042 9.58583 30.5437 9.93083 30.1795C10.1225 30.007 10.3142 29.8729 10.5633 29.777C10.9083 29.6237 11.2917 29.5854 11.675 29.662C11.79 29.6812 11.905 29.7195 12.02 29.777C12.135 29.8154 12.25 29.8729 12.365 29.9495L12.6525 30.1795C12.9975 30.5437 13.2083 31.042 13.2083 31.5404C13.2083 32.0387 12.9975 32.537 12.6525 32.9012ZM12.6525 26.1929C12.2883 26.5379 11.79 26.7487 11.2917 26.7487C10.7933 26.7487 10.295 26.5379 9.93083 26.1929C9.58583 25.8287 9.375 25.3304 9.375 24.832C9.375 24.3337 9.58583 23.8354 9.93083 23.4712C10.4675 22.9345 11.3108 22.762 12.02 23.0687C12.2692 23.1645 12.48 23.2987 12.6525 23.4712C12.9975 23.8354 13.2083 24.3337 13.2083 24.832C13.2083 25.3304 12.9975 25.8287 12.6525 26.1929ZM19.3608 32.9012C18.9967 33.2462 18.4983 33.457 18 33.457C17.5017 33.457 17.0033 33.2462 16.6392 32.9012C16.2942 32.537 16.0833 32.0387 16.0833 31.5404C16.0833 31.042 16.2942 30.5437 16.6392 30.1795C17.3483 29.4704 18.6517 29.4704 19.3608 30.1795C19.7058 30.5437 19.9167 31.042 19.9167 31.5404C19.9167 32.0387 19.7058 32.537 19.3608 32.9012V32.9012ZM19.3608 26.1929L19.0733 26.4229C18.9583 26.4995 18.8433 26.557 18.7283 26.5954C18.6133 26.6529 18.4983 26.6912 18.3833 26.7104C18.2492 26.7295 18.1342 26.7487 18 26.7487C17.5017 26.7487 17.0033 26.5379 16.6392 26.1929C16.2942 25.8287 16.0833 25.3304 16.0833 24.832C16.0833 24.3337 16.2942 23.8354 16.6392 23.4712C16.8117 23.2987 17.0225 23.1645 17.2717 23.0687C17.9808 22.762 18.8242 22.9345 19.3608 23.4712C19.7058 23.8354 19.9167 24.3337 19.9167 24.832C19.9167 25.3304 19.7058 25.8287 19.3608 26.1929V26.1929ZM26.0692 32.9012C25.705 33.2462 25.2067 33.457 24.7083 33.457C24.21 33.457 23.7117 33.2462 23.3475 32.9012C23.0025 32.537 22.7917 32.0387 22.7917 31.5404C22.7917 31.042 23.0025 30.5437 23.3475 30.1795C24.0567 29.4704 25.36 29.4704 26.0692 30.1795C26.4142 30.5437 26.625 31.042 26.625 31.5404C26.625 32.0387 26.4142 32.537 26.0692 32.9012ZM26.0692 26.1929L25.7817 26.4229C25.6667 26.4995 25.5517 26.557 25.4367 26.5954C25.3217 26.6529 25.2067 26.6912 25.0917 26.7104C24.9575 26.7295 24.8233 26.7487 24.7083 26.7487C24.21 26.7487 23.7117 26.5379 23.3475 26.1929C23.0025 25.8287 22.7917 25.3304 22.7917 24.832C22.7917 24.3337 23.0025 23.8354 23.3475 23.4712C23.5392 23.2987 23.7308 23.1645 23.98 23.0687C24.325 22.9154 24.7083 22.877 25.0917 22.9537C25.2067 22.9729 25.3217 23.0112 25.4367 23.0687C25.5517 23.107 25.6667 23.1645 25.7817 23.2412L26.0692 23.4712C26.4142 23.8354 26.625 24.3337 26.625 24.832C26.625 25.3304 26.4142 25.8287 26.0692 26.1929V26.1929Z" fill="url(#paint2_linear_0_1)"/>
<defs>
<linearGradient id="paint0_linear_0_1" x1="17.8677" y1="-34" x2="17.8677" y2="77.7354" gradientUnits="userSpaceOnUse">
<stop stop-color="#F58C1F"/>
<stop offset="1" stop-color="#F57D21"/>
</linearGradient>
<linearGradient id="paint1_linear_0_1" x1="16.9318" y1="56.4258" x2="16.9318" y2="83.7361" gradientUnits="userSpaceOnUse">
<stop stop-color="#F58C1F"/>
<stop offset="1" stop-color="#F57D21"/>
</linearGradient>
<linearGradient id="paint2_linear_0_1" x1="18" y1="0.394531" x2="18" y2="40.1654" gradientUnits="userSpaceOnUse">
<stop stop-color="#F58C1F"/>
<stop offset="1" stop-color="#F57D21"/>
</linearGradient>
</defs>
</svg>
