<svg width="15" height="24" viewBox="0 0 15 24" fill="none" xmlns="http://www.w3.org/2000/svg">
<circle cx="8.86768" cy="-37.1323" r="48.9664" stroke="url(#paint0_linear_0_1)" stroke-width="13.8026"/>
<path d="M5.25997 10.0352H7.40059C8.21309 10.0352 8.80684 9.75391 9.18184 9.19141C9.56726 8.61849 9.75997 7.85807 9.75997 6.91016C9.75997 6.00391 9.56205 5.30078 9.16622 4.80078C8.7808 4.29036 8.25997 4.03516 7.60372 4.03516C6.98913 4.03516 6.48393 4.27474 6.08809 4.75391C5.70268 5.23307 5.50997 5.83724 5.50997 6.56641H1.08809C1.08809 5.37891 1.35893 4.31641 1.90059 3.37891C2.45268 2.43099 3.2183 1.69141 4.19747 1.16016C5.18705 0.628906 6.2808 0.363281 7.47872 0.363281C9.57247 0.363281 11.2131 0.941406 12.4006 2.09766C13.5881 3.25391 14.1818 4.83724 14.1818 6.84766C14.1818 7.87891 13.911 8.83724 13.3693 9.72266C12.8381 10.5977 12.135 11.2695 11.26 11.7383C12.3329 12.1966 13.1298 12.8841 13.6506 13.8008C14.1818 14.7174 14.4475 15.8008 14.4475 17.0508C14.4475 19.0716 13.8016 20.6914 12.51 21.9102C11.2287 23.1289 9.54122 23.7383 7.44747 23.7383C5.49955 23.7383 3.91622 23.1393 2.69747 21.9414C1.48913 20.7331 0.884968 19.1497 0.884968 17.1914H5.30684C5.30684 18.0039 5.52038 18.6862 5.94747 19.2383C6.37455 19.7904 6.91622 20.0664 7.57247 20.0664C8.33288 20.0664 8.93184 19.7852 9.36934 19.2227C9.81726 18.6602 10.0412 17.9102 10.0412 16.9727C10.0412 14.7331 9.17143 13.6081 7.43184 13.5977H5.25997V10.0352Z" fill="url(#paint1_linear_0_1)"/>
<defs>
<linearGradient id="paint0_linear_0_1" x1="8.86768" y1="-93" x2="8.86768" y2="18.7354" gradientUnits="userSpaceOnUse">
<stop stop-color="#F58C1F"/>
<stop offset="1" stop-color="#F57D21"/>
</linearGradient>
<linearGradient id="paint1_linear_0_1" x1="7.93184" y1="-2.57422" x2="7.93184" y2="24.7361" gradientUnits="userSpaceOnUse">
<stop stop-color="#F58C1F"/>
<stop offset="1" stop-color="#F57D21"/>
</linearGradient>
</defs>
</svg>
