<svg width="14" height="24" viewBox="0 0 14 24" fill="none" xmlns="http://www.w3.org/2000/svg">
<circle cx="7.86768" cy="-37.1323" r="48.9664" stroke="url(#paint0_linear_0_1)" stroke-width="13.8026"/>
<path d="M0.775593 12.2383L1.90059 0.675781H12.9162V4.45703H5.52559L5.11934 9.33203C5.97351 8.75911 6.85372 8.47266 7.75997 8.47266C9.63497 8.47266 11.0777 9.13932 12.0881 10.4727C13.1089 11.806 13.6193 13.6914 13.6193 16.1289C13.6193 18.4102 13.0152 20.2487 11.8068 21.6445C10.5985 23.0404 8.98393 23.7383 6.96309 23.7383C5.76518 23.7383 4.6558 23.457 3.63497 22.8945C2.61413 22.3216 1.80684 21.5299 1.21309 20.5195C0.629759 19.5091 0.332884 18.3633 0.322468 17.082H4.69747C4.77038 18.0299 5.00476 18.7643 5.40059 19.2852C5.79643 19.806 6.30684 20.0664 6.93184 20.0664C7.66101 20.0664 8.22351 19.7174 8.61934 19.0195C9.01518 18.3112 9.21309 17.2591 9.21309 15.8633C9.21309 14.5508 8.97351 13.5612 8.49434 12.8945C8.02559 12.2279 7.36413 11.8945 6.50997 11.8945C5.67663 11.8945 5.0308 12.181 4.57247 12.7539L4.29122 13.1445L0.775593 12.2383Z" fill="url(#paint1_linear_0_1)"/>
<defs>
<linearGradient id="paint0_linear_0_1" x1="7.86768" y1="-93" x2="7.86768" y2="18.7354" gradientUnits="userSpaceOnUse">
<stop stop-color="#F58C1F"/>
<stop offset="1" stop-color="#F57D21"/>
</linearGradient>
<linearGradient id="paint1_linear_0_1" x1="6.93184" y1="-2.57422" x2="6.93184" y2="24.7361" gradientUnits="userSpaceOnUse">
<stop stop-color="#F58C1F"/>
<stop offset="1" stop-color="#F57D21"/>
</linearGradient>
</defs>
</svg>
