<svg width="240" height="68" viewBox="0 0 240 68" fill="none" xmlns="http://www.w3.org/2000/svg">
<path d="M11.0859 36.8906L11.0859 44H10.1826L7.33594 38.5166L7.33594 44H6.4375L6.4375 36.8906H7.33594L10.1973 42.3887L10.1973 36.8906H11.0859ZM15.1924 42.7793L15.1924 38.7168H16.0566V44H15.2363L15.1924 42.7793ZM15.3535 41.666L15.6953 41.6562C15.6953 42.0078 15.6644 42.3333 15.6025 42.6328C15.5439 42.929 15.4463 43.1862 15.3096 43.4043C15.1761 43.6224 14.9987 43.7933 14.7773 43.917C14.556 44.0374 14.2842 44.0977 13.9619 44.0977C13.7438 44.0977 13.5452 44.0602 13.3662 43.9854C13.1904 43.9105 13.0374 43.7949 12.9072 43.6387C12.7803 43.4824 12.681 43.279 12.6094 43.0283C12.541 42.7777 12.5068 42.4766 12.5068 42.125L12.5068 38.7168H13.3662L13.3662 42.1348C13.3662 42.3724 13.3874 42.5693 13.4297 42.7256C13.472 42.8786 13.529 43.0007 13.6006 43.0918C13.6722 43.1797 13.752 43.2415 13.8398 43.2773C13.9277 43.3132 14.0173 43.3311 14.1084 43.3311C14.4144 43.3311 14.6585 43.2578 14.8408 43.1113C15.0231 42.9616 15.1533 42.7614 15.2314 42.5107C15.3128 42.2568 15.3535 41.9753 15.3535 41.666ZM18.2197 39.7666V44H17.3604V38.7168H18.1709L18.2197 39.7666ZM18.0439 41.1582L17.6436 41.1436C17.6403 40.7822 17.6761 40.4486 17.751 40.1426C17.8258 39.8333 17.9382 39.5648 18.0879 39.3369C18.2409 39.109 18.4313 38.9333 18.6592 38.8096C18.8903 38.6826 19.1589 38.6191 19.4648 38.6191C19.6667 38.6191 19.8538 38.6549 20.0264 38.7266C20.2021 38.7949 20.3551 38.904 20.4854 39.0537C20.6156 39.2035 20.7165 39.3955 20.7881 39.6299C20.863 39.8643 20.9004 40.1475 20.9004 40.4795V44H20.0361V40.5234C20.0361 40.2467 19.9987 40.0254 19.9238 39.8594C19.8522 39.6934 19.7497 39.5729 19.6162 39.498C19.4827 39.4199 19.3232 39.3809 19.1377 39.3809C18.9261 39.3809 18.7487 39.4281 18.6055 39.5225C18.4655 39.6169 18.3532 39.7471 18.2686 39.9131C18.1872 40.0791 18.1286 40.2695 18.0928 40.4844C18.0602 40.696 18.0439 40.9206 18.0439 41.1582ZM20.8906 40.6602L20.3145 40.8457C20.3112 40.556 20.347 40.2777 20.4219 40.0107C20.4967 39.7438 20.6074 39.5062 20.7539 39.2979C20.9036 39.0895 21.0892 38.9251 21.3105 38.8047C21.5319 38.681 21.7891 38.6191 22.082 38.6191C22.3229 38.6191 22.5361 38.6566 22.7217 38.7314C22.9072 38.8063 23.0635 38.9219 23.1904 39.0781C23.3206 39.2311 23.4183 39.4281 23.4834 39.6689C23.5485 39.9098 23.5811 40.1963 23.5811 40.5283V44H22.7168V40.5186C22.7168 40.2223 22.6794 39.9928 22.6045 39.8301C22.5329 39.6641 22.4303 39.5485 22.2969 39.4834C22.1634 39.415 22.0039 39.3809 21.8184 39.3809C21.6686 39.3809 21.5352 39.415 21.418 39.4834C21.304 39.5518 21.208 39.6462 21.1299 39.7666C21.0518 39.8838 20.9915 40.0189 20.9492 40.1719C20.9102 40.3249 20.8906 40.4876 20.8906 40.6602ZM26.7744 44.0977C26.4587 44.0977 26.1738 44.0505 25.9199 43.9561C25.666 43.8617 25.4495 43.7184 25.2705 43.5264C25.0915 43.3311 24.9548 43.0853 24.8604 42.7891C24.766 42.4928 24.7188 42.1429 24.7188 41.7393V41.1436C24.7188 40.6781 24.7725 40.2842 24.8799 39.9619C24.9906 39.6396 25.1387 39.3809 25.3242 39.1855C25.5098 38.987 25.7197 38.8437 25.9541 38.7559C26.1885 38.6647 26.4294 38.6191 26.6768 38.6191C27.0088 38.6191 27.292 38.6729 27.5264 38.7803C27.7607 38.8877 27.9512 39.0472 28.0977 39.2588C28.2441 39.4704 28.3516 39.7308 28.4199 40.04C28.4915 40.3493 28.5273 40.7057 28.5273 41.1094V41.6123H25.2266V40.875H27.6631V40.7529C27.6501 40.4795 27.6126 40.2386 27.5508 40.0303C27.4922 39.8219 27.3945 39.6592 27.2578 39.542C27.1211 39.4215 26.9274 39.3613 26.6768 39.3613C26.5173 39.3613 26.3691 39.389 26.2324 39.4443C26.099 39.4964 25.9834 39.5892 25.8857 39.7227C25.7913 39.8529 25.7165 40.0335 25.6611 40.2646C25.609 40.4958 25.583 40.7887 25.583 41.1436V41.7393C25.583 42.0225 25.609 42.2666 25.6611 42.4717C25.7165 42.6735 25.7962 42.8411 25.9004 42.9746C26.0078 43.1048 26.138 43.2025 26.291 43.2676C26.4473 43.3294 26.6247 43.3604 26.8232 43.3604C27.113 43.3604 27.3522 43.305 27.541 43.1943C27.7298 43.0804 27.8942 42.9355 28.0342 42.7598L28.4883 43.3018C28.3939 43.4352 28.2702 43.5638 28.1172 43.6875C27.9674 43.8079 27.7819 43.9072 27.5605 43.9854C27.3424 44.0602 27.0804 44.0977 26.7744 44.0977ZM30.4365 39.5469V44H29.5723V38.7168H30.4072L30.4365 39.5469ZM31.75 38.6875L31.7549 39.5273C31.6833 39.5111 31.6182 39.5013 31.5596 39.498C31.5042 39.4915 31.4391 39.4883 31.3643 39.4883C31.2015 39.4883 31.0583 39.5208 30.9346 39.5859C30.8141 39.651 30.71 39.7422 30.6221 39.8594C30.5342 39.9766 30.4642 40.1165 30.4121 40.2793C30.36 40.4388 30.3242 40.6146 30.3047 40.8066L30.0801 40.9531C30.0801 40.6341 30.1045 40.3346 30.1533 40.0547C30.2054 39.7747 30.2852 39.5273 30.3926 39.3125C30.5 39.0944 30.6367 38.9251 30.8027 38.8047C30.972 38.681 31.1738 38.6191 31.4082 38.6191C31.4603 38.6191 31.5238 38.6273 31.5986 38.6436C31.6768 38.6566 31.7272 38.6712 31.75 38.6875ZM36.8428 38.7168V39.4102H34.377V38.7168H36.8428ZM35.1826 37.4326H36.0469V42.6914C36.0469 42.8704 36.068 43.0055 36.1104 43.0967C36.1559 43.1878 36.2129 43.248 36.2812 43.2773C36.3496 43.3066 36.4229 43.3213 36.501 43.3213C36.5596 43.3213 36.6247 43.3148 36.6963 43.3018C36.7679 43.2855 36.8167 43.2725 36.8428 43.2627L36.8379 44C36.7793 44.0228 36.7012 44.0439 36.6035 44.0635C36.5059 44.0863 36.3822 44.0977 36.2324 44.0977C36.0469 44.0977 35.8743 44.0537 35.7148 43.9658C35.5553 43.8779 35.4268 43.7314 35.3291 43.5264C35.2314 43.318 35.1826 43.0381 35.1826 42.6865V37.4326ZM40.4609 43.0967V40.2305C40.4609 40.0221 40.4284 39.8545 40.3633 39.7275C40.3014 39.6006 40.207 39.5078 40.0801 39.4492C39.9564 39.3906 39.8001 39.3613 39.6113 39.3613C39.429 39.3613 39.2712 39.3988 39.1377 39.4736C39.0075 39.5485 38.9066 39.6478 38.835 39.7715C38.7666 39.8952 38.7324 40.0319 38.7324 40.1816H37.8682C37.8682 39.9928 37.9089 39.8057 37.9902 39.6201C38.0749 39.4346 38.1953 39.2669 38.3516 39.1172C38.5078 38.9642 38.695 38.8437 38.9131 38.7559C39.1344 38.6647 39.3818 38.6191 39.6553 38.6191C39.9808 38.6191 40.2689 38.6729 40.5195 38.7803C40.7702 38.8844 40.9671 39.0553 41.1104 39.293C41.2536 39.5306 41.3252 39.8464 41.3252 40.2402V42.8477C41.3252 43.0234 41.3382 43.2106 41.3643 43.4092C41.3936 43.6077 41.4342 43.7786 41.4863 43.9219V44H40.5928C40.5505 43.8958 40.5179 43.7575 40.4951 43.585C40.4723 43.4092 40.4609 43.2464 40.4609 43.0967ZM40.5977 40.7969L40.6074 41.4316H40.0068C39.8018 41.4316 39.6146 41.4544 39.4453 41.5C39.2793 41.5456 39.1361 41.6123 39.0156 41.7002C38.8952 41.7848 38.8024 41.8906 38.7373 42.0176C38.6755 42.1445 38.6445 42.2894 38.6445 42.4521C38.6445 42.6637 38.6738 42.833 38.7324 42.96C38.791 43.0837 38.8789 43.1732 38.9961 43.2285C39.1133 43.2839 39.2614 43.3115 39.4404 43.3115C39.6585 43.3115 39.8506 43.2611 40.0166 43.1602C40.1826 43.0592 40.3112 42.9372 40.4023 42.7939C40.4967 42.6507 40.5407 42.5173 40.5342 42.3936L40.7246 42.7988C40.7116 42.9258 40.6693 43.0641 40.5977 43.2139C40.5293 43.3604 40.4333 43.502 40.3096 43.6387C40.1859 43.7721 40.0394 43.8828 39.8701 43.9707C39.7041 44.0553 39.5169 44.0977 39.3086 44.0977C39.0026 44.0977 38.734 44.0391 38.5029 43.9219C38.2751 43.8047 38.0977 43.6322 37.9707 43.4043C37.8438 43.1764 37.7803 42.8949 37.7803 42.5596C37.7803 42.3057 37.8242 42.0713 37.9121 41.8564C38 41.6416 38.1302 41.4561 38.3027 41.2998C38.4753 41.1403 38.6917 41.0166 38.9521 40.9287C39.2158 40.8408 39.5202 40.7969 39.8652 40.7969H40.5977ZM42.668 36.5H43.5322V42.9746L43.459 44H42.668V36.5ZM46.4961 41.1191V41.6123C46.4961 42.029 46.457 42.3936 46.3789 42.7061C46.304 43.0153 46.1917 43.2741 46.042 43.4824C45.8923 43.6875 45.71 43.8421 45.4951 43.9463C45.2803 44.0472 45.0345 44.0977 44.7578 44.0977C44.4844 44.0977 44.2484 44.0423 44.0498 43.9316C43.8512 43.821 43.6852 43.6615 43.5518 43.4531C43.4183 43.2448 43.3125 42.9925 43.2344 42.6963C43.1595 42.4001 43.1074 42.0664 43.0781 41.6953V41.0361C43.1074 40.6618 43.1595 40.3265 43.2344 40.0303C43.3092 39.7308 43.4134 39.4769 43.5469 39.2686C43.6803 39.057 43.8464 38.8958 44.0449 38.7852C44.2435 38.6745 44.4795 38.6191 44.7529 38.6191C45.0329 38.6191 45.2803 38.668 45.4951 38.7656C45.7132 38.8633 45.8955 39.0146 46.042 39.2197C46.1917 39.4215 46.304 39.6803 46.3789 39.9961C46.457 40.3086 46.4961 40.6829 46.4961 41.1191ZM45.6318 41.6123V41.1191C45.6318 40.8262 45.6123 40.5706 45.5732 40.3525C45.5374 40.1344 45.4772 39.9538 45.3926 39.8105C45.3079 39.6673 45.194 39.5599 45.0508 39.4883C44.9108 39.4167 44.7367 39.3809 44.5283 39.3809C44.3525 39.3809 44.1979 39.4167 44.0645 39.4883C43.9342 39.5599 43.8219 39.6576 43.7275 39.7812C43.6331 39.9017 43.555 40.04 43.4932 40.1963C43.4313 40.3493 43.3857 40.5088 43.3564 40.6748V42.0615C43.3988 42.2731 43.4655 42.4766 43.5566 42.6719C43.651 42.8639 43.778 43.0218 43.9375 43.1455C44.097 43.2692 44.2956 43.3311 44.5332 43.3311C44.7318 43.3311 44.8994 43.2969 45.0361 43.2285C45.1761 43.1602 45.29 43.056 45.3779 42.916C45.4658 42.7728 45.5293 42.5937 45.5684 42.3789C45.6107 42.1608 45.6318 41.9053 45.6318 41.6123ZM48.5273 36.5V44H47.668V36.5H48.5273ZM50.8223 38.7168V44H49.9629V38.7168H50.8223ZM49.9141 37.3154C49.9141 37.1689 49.9548 37.0452 50.0361 36.9443C50.1175 36.8434 50.2396 36.793 50.4023 36.793C50.5651 36.793 50.6872 36.8434 50.7686 36.9443C50.8532 37.0452 50.8955 37.1689 50.8955 37.3154C50.8955 37.4554 50.8532 37.5758 50.7686 37.6768C50.6872 37.7744 50.5651 37.8232 50.4023 37.8232C50.2396 37.8232 50.1175 37.7744 50.0361 37.6768C49.9548 37.5758 49.9141 37.4554 49.9141 37.3154ZM54.0205 43.3604C54.193 43.3604 54.3493 43.3262 54.4893 43.2578C54.6325 43.1862 54.7497 43.0755 54.8408 42.9258C54.932 42.7728 54.984 42.5742 54.9971 42.3301H55.8076C55.7946 42.6816 55.7051 42.9909 55.5391 43.2578C55.3763 43.5215 55.1615 43.7282 54.8945 43.8779C54.6309 44.0244 54.3395 44.0977 54.0205 44.0977C53.6787 44.0977 53.3809 44.0423 53.127 43.9316C52.8763 43.821 52.668 43.6615 52.502 43.4531C52.3392 43.2415 52.2171 42.986 52.1357 42.6865C52.0544 42.3838 52.0137 42.0404 52.0137 41.6562V41.0605C52.0137 40.6764 52.0544 40.3346 52.1357 40.0352C52.2171 39.7324 52.3392 39.4769 52.502 39.2686C52.668 39.057 52.8763 38.8958 53.127 38.7852C53.3809 38.6745 53.6787 38.6191 54.0205 38.6191C54.3786 38.6191 54.6878 38.6956 54.9482 38.8486C55.2119 38.9984 55.417 39.2165 55.5635 39.5029C55.7132 39.7861 55.7946 40.1296 55.8076 40.5332H54.9971C54.984 40.2728 54.9368 40.0563 54.8555 39.8838C54.7741 39.708 54.6634 39.5778 54.5234 39.4932C54.3835 39.4053 54.2158 39.3613 54.0205 39.3613C53.7926 39.3613 53.6038 39.402 53.4541 39.4834C53.3076 39.5615 53.1921 39.6755 53.1074 39.8252C53.0228 39.9749 52.9626 40.154 52.9268 40.3623C52.8942 40.5706 52.8779 40.8034 52.8779 41.0605V41.6562C52.8779 41.9134 52.8942 42.1478 52.9268 42.3594C52.9626 42.5677 53.0212 42.7467 53.1025 42.8965C53.1872 43.0462 53.3044 43.1618 53.4541 43.2432C53.6038 43.3213 53.7926 43.3604 54.0205 43.3604ZM58.0342 43.4531L59.2109 38.7168H60.1289L58.3857 44.8154C58.3434 44.9456 58.2865 45.0856 58.2148 45.2354C58.1465 45.3883 58.0586 45.5332 57.9512 45.6699C57.8438 45.8066 57.7152 45.9173 57.5654 46.002C57.4157 46.0898 57.2399 46.1338 57.0381 46.1338C56.9762 46.1338 56.8965 46.124 56.7988 46.1045C56.7044 46.085 56.6361 46.0687 56.5938 46.0557V45.3232C56.6133 45.3265 56.6442 45.3298 56.6865 45.333C56.7288 45.3395 56.7598 45.3428 56.7793 45.3428C56.9486 45.3428 57.0918 45.3151 57.209 45.2598C57.3294 45.2077 57.432 45.1182 57.5166 44.9912C57.6012 44.8675 57.6729 44.6966 57.7314 44.4785L58.0342 43.4531ZM57.2725 38.7168L58.3223 42.8184L58.5469 43.7705L57.9316 44.1025L56.3301 38.7168H57.2725ZM8.23926 50.5469L8.23926 55H7.375L7.375 49.7168H8.20996L8.23926 50.5469ZM9.55273 49.6875L9.55762 50.5273C9.486 50.5111 9.4209 50.5013 9.3623 50.498C9.30697 50.4915 9.24186 50.4883 9.16699 50.4883C9.00423 50.4883 8.861 50.5208 8.7373 50.5859C8.61686 50.651 8.5127 50.7422 8.4248 50.8594C8.33691 50.9766 8.26693 51.1165 8.21484 51.2793C8.16276 51.4388 8.12695 51.6146 8.10742 51.8066L7.88281 51.9531C7.88281 51.6341 7.90723 51.3346 7.95605 51.0547C8.00814 50.7747 8.08789 50.5273 8.19531 50.3125C8.30273 50.0944 8.43945 49.9251 8.60547 49.8047C8.77474 49.681 8.97656 49.6191 9.21094 49.6191C9.26302 49.6191 9.3265 49.6273 9.40137 49.6436C9.47949 49.6566 9.52995 49.6712 9.55273 49.6875ZM12.2139 55.0977C11.8981 55.0977 11.6133 55.0505 11.3594 54.9561C11.1055 54.8617 10.889 54.7184 10.71 54.5264C10.5309 54.3311 10.3942 54.0853 10.2998 53.7891C10.2054 53.4928 10.1582 53.1429 10.1582 52.7393V52.1436C10.1582 51.6781 10.2119 51.2842 10.3193 50.9619C10.43 50.6396 10.5781 50.3809 10.7637 50.1855C10.9492 49.987 11.1592 49.8438 11.3936 49.7559C11.6279 49.6647 11.8688 49.6191 12.1162 49.6191C12.4482 49.6191 12.7314 49.6729 12.9658 49.7803C13.2002 49.8877 13.3906 50.0472 13.5371 50.2588C13.6836 50.4704 13.791 50.7308 13.8594 51.04C13.931 51.3493 13.9668 51.7057 13.9668 52.1094V52.6123H10.666V51.875H13.1025V51.7529C13.0895 51.4795 13.0521 51.2386 12.9902 51.0303C12.9316 50.8219 12.834 50.6592 12.6973 50.542C12.5605 50.4215 12.3669 50.3613 12.1162 50.3613C11.9567 50.3613 11.8086 50.389 11.6719 50.4443C11.5384 50.4964 11.4229 50.5892 11.3252 50.7227C11.2308 50.8529 11.1559 51.0335 11.1006 51.2646C11.0485 51.4958 11.0225 51.7887 11.0225 52.1436V52.7393C11.0225 53.0225 11.0485 53.2666 11.1006 53.4717C11.1559 53.6735 11.2357 53.8411 11.3398 53.9746C11.4473 54.1048 11.5775 54.2025 11.7305 54.2676C11.8867 54.3294 12.0641 54.3604 12.2627 54.3604C12.5524 54.3604 12.7917 54.305 12.9805 54.1943C13.1693 54.0804 13.3337 53.9355 13.4736 53.7598L13.9277 54.3018C13.8333 54.4352 13.7096 54.5638 13.5566 54.6875C13.4069 54.8079 13.2214 54.9072 13 54.9854C12.7819 55.0602 12.5199 55.0977 12.2139 55.0977ZM15.0313 49.7168H15.8906L15.8906 55.6299C15.8906 55.9521 15.8483 56.2256 15.7637 56.4502C15.6823 56.6748 15.5553 56.8441 15.3828 56.958C15.2135 57.0752 14.9971 57.1338 14.7334 57.1338C14.6618 57.1338 14.5788 57.1257 14.4844 57.1094C14.3932 57.0931 14.3151 57.0736 14.25 57.0508V56.3232C14.3053 56.3363 14.3656 56.346 14.4307 56.3525C14.4958 56.3623 14.5495 56.3672 14.5918 56.3672C14.6862 56.3672 14.766 56.3428 14.8311 56.2939C14.8962 56.2451 14.945 56.167 14.9775 56.0596C15.0133 55.9521 15.0313 55.8089 15.0313 55.6299L15.0313 49.7168ZM14.9531 48.3154C14.9531 48.1689 14.9938 48.0452 15.0752 47.9443C15.1598 47.8434 15.2819 47.793 15.4414 47.793C15.6042 47.793 15.7262 47.8434 15.8076 47.9443C15.8923 48.0452 15.9346 48.1689 15.9346 48.3154C15.9346 48.4554 15.8923 48.5758 15.8076 48.6768C15.7262 48.7744 15.6042 48.8232 15.4414 48.8232C15.2819 48.8232 15.1598 48.7744 15.0752 48.6768C14.9938 48.5758 14.9531 48.4554 14.9531 48.3154ZM19.1475 55.0977C18.8317 55.0977 18.5469 55.0505 18.293 54.9561C18.0391 54.8617 17.8226 54.7184 17.6436 54.5264C17.4645 54.3311 17.3278 54.0853 17.2334 53.7891C17.139 53.4928 17.0918 53.1429 17.0918 52.7393V52.1436C17.0918 51.6781 17.1455 51.2842 17.2529 50.9619C17.3636 50.6396 17.5117 50.3809 17.6973 50.1855C17.8828 49.987 18.0928 49.8438 18.3271 49.7559C18.5615 49.6647 18.8024 49.6191 19.0498 49.6191C19.3818 49.6191 19.665 49.6729 19.8994 49.7803C20.1338 49.8877 20.3242 50.0472 20.4707 50.2588C20.6172 50.4704 20.7246 50.7308 20.793 51.04C20.8646 51.3493 20.9004 51.7057 20.9004 52.1094V52.6123H17.5996V51.875H20.0361V51.7529C20.0231 51.4795 19.9857 51.2386 19.9238 51.0303C19.8652 50.8219 19.7676 50.6592 19.6309 50.542C19.4941 50.4215 19.3005 50.3613 19.0498 50.3613C18.8903 50.3613 18.7422 50.389 18.6055 50.4443C18.472 50.4964 18.3564 50.5892 18.2588 50.7227C18.1644 50.8529 18.0895 51.0335 18.0342 51.2646C17.9821 51.4958 17.9561 51.7887 17.9561 52.1436V52.7393C17.9561 53.0225 17.9821 53.2666 18.0342 53.4717C18.0895 53.6735 18.1693 53.8411 18.2734 53.9746C18.3809 54.1048 18.5111 54.2025 18.6641 54.2676C18.8203 54.3294 18.9977 54.3604 19.1963 54.3604C19.486 54.3604 19.7253 54.305 19.9141 54.1943C20.1029 54.0804 20.2673 53.9355 20.4072 53.7598L20.8613 54.3018C20.7669 54.4352 20.6432 54.5638 20.4902 54.6875C20.3405 54.8079 20.1549 54.9072 19.9336 54.9854C19.7155 55.0602 19.4535 55.0977 19.1475 55.0977ZM24.5088 53.6475C24.5088 53.514 24.4762 53.3968 24.4111 53.2959C24.346 53.195 24.2386 53.0973 24.0889 53.0029C23.9424 52.9085 23.7438 52.8076 23.4932 52.7002C23.249 52.5993 23.0293 52.5 22.834 52.4023C22.6419 52.3014 22.4792 52.1924 22.3457 52.0752C22.2122 51.958 22.1097 51.8229 22.0381 51.6699C21.9697 51.5137 21.9355 51.3298 21.9355 51.1182C21.9355 50.9066 21.9746 50.7113 22.0527 50.5322C22.1341 50.3499 22.248 50.1904 22.3945 50.0537C22.541 49.917 22.7168 49.8112 22.9219 49.7363C23.127 49.6582 23.3564 49.6191 23.6104 49.6191C23.9717 49.6191 24.2793 49.6891 24.5332 49.8291C24.7871 49.9691 24.9808 50.1611 25.1143 50.4053C25.251 50.6462 25.3193 50.918 25.3193 51.2207H24.46C24.46 51.0742 24.4274 50.9359 24.3623 50.8057C24.2972 50.6755 24.2012 50.5697 24.0742 50.4883C23.9473 50.4036 23.7926 50.3613 23.6104 50.3613C23.4183 50.3613 23.262 50.3955 23.1416 50.4639C23.0212 50.5322 22.9333 50.6217 22.8779 50.7324C22.8258 50.8398 22.7998 50.9587 22.7998 51.0889C22.7998 51.1865 22.8128 51.2712 22.8389 51.3428C22.8682 51.4111 22.917 51.4762 22.9854 51.5381C23.0537 51.5967 23.1465 51.6585 23.2637 51.7236C23.3841 51.7855 23.5371 51.8571 23.7227 51.9385C24.0807 52.0785 24.3818 52.2201 24.626 52.3633C24.8701 52.5065 25.0557 52.6742 25.1826 52.8662C25.3096 53.0583 25.373 53.2959 25.373 53.5791C25.373 53.8102 25.3307 54.0202 25.2461 54.209C25.1647 54.3945 25.0475 54.554 24.8945 54.6875C24.7415 54.821 24.5576 54.9235 24.3428 54.9951C24.1312 55.0635 23.8936 55.0977 23.6299 55.0977C23.2327 55.0977 22.8958 55.0195 22.6191 54.8633C22.3457 54.7038 22.1374 54.4971 21.9941 54.2432C21.8542 53.986 21.7842 53.7109 21.7842 53.418H22.6484C22.6582 53.6654 22.7135 53.8574 22.8145 53.9941C22.9186 54.1309 23.0439 54.2253 23.1904 54.2773C23.3369 54.3294 23.4834 54.3555 23.6299 54.3555C23.8219 54.3555 23.9831 54.3278 24.1133 54.2725C24.2435 54.2139 24.3411 54.1309 24.4063 54.0234C24.4746 53.916 24.5088 53.7907 24.5088 53.6475ZM28.4346 49.7168V50.4102L25.9688 50.4102V49.7168L28.4346 49.7168ZM26.7744 48.4326L27.6387 48.4326V53.6914C27.6387 53.8704 27.6598 54.0055 27.7021 54.0967C27.7477 54.1878 27.8047 54.248 27.873 54.2773C27.9414 54.3066 28.0146 54.3213 28.0928 54.3213C28.1514 54.3213 28.2165 54.3148 28.2881 54.3018C28.3597 54.2855 28.4085 54.2725 28.4346 54.2627L28.4297 55C28.3711 55.0228 28.293 55.0439 28.1953 55.0635C28.0977 55.0863 27.974 55.0977 27.8242 55.0977C27.6387 55.0977 27.4661 55.0537 27.3066 54.9658C27.1471 54.8779 27.0186 54.7314 26.9209 54.5264C26.8232 54.318 26.7744 54.0381 26.7744 53.6865V48.4326ZM30.3291 50.5469V55H29.4648V49.7168H30.2998L30.3291 50.5469ZM31.6426 49.6875L31.6475 50.5273C31.5758 50.5111 31.5107 50.5013 31.4521 50.498C31.3968 50.4915 31.3317 50.4883 31.2568 50.4883C31.0941 50.4883 30.9508 50.5208 30.8271 50.5859C30.7067 50.651 30.6025 50.7422 30.5146 50.8594C30.4268 50.9766 30.3568 51.1165 30.3047 51.2793C30.2526 51.4388 30.2168 51.6146 30.1973 51.8066L29.9727 51.9531C29.9727 51.6341 29.9971 51.3346 30.0459 51.0547C30.098 50.7747 30.1777 50.5273 30.2852 50.3125C30.3926 50.0944 30.5293 49.9251 30.6953 49.8047C30.8646 49.681 31.0664 49.6191 31.3008 49.6191C31.3529 49.6191 31.4163 49.6273 31.4912 49.6436C31.5693 49.6566 31.6198 49.6712 31.6426 49.6875ZM34.9043 54.0967V51.2305C34.9043 51.0221 34.8717 50.8545 34.8066 50.7275C34.7448 50.6006 34.6504 50.5078 34.5234 50.4492C34.3997 50.3906 34.2435 50.3613 34.0547 50.3613C33.8724 50.3613 33.7145 50.3988 33.5811 50.4736C33.4508 50.5485 33.3499 50.6478 33.2783 50.7715C33.21 50.8952 33.1758 51.0319 33.1758 51.1816L32.3115 51.1816C32.3115 50.9928 32.3522 50.8057 32.4336 50.6201C32.5182 50.4346 32.6387 50.2669 32.7949 50.1172C32.9512 49.9642 33.1383 49.8437 33.3564 49.7559C33.5778 49.6647 33.8252 49.6191 34.0986 49.6191C34.4242 49.6191 34.7122 49.6729 34.9629 49.7803C35.2135 49.8844 35.4105 50.0553 35.5537 50.293C35.6969 50.5306 35.7686 50.8464 35.7686 51.2402V53.8477C35.7686 54.0234 35.7816 54.2106 35.8076 54.4092C35.8369 54.6077 35.8776 54.7786 35.9297 54.9219V55H35.0361C34.9938 54.8958 34.9613 54.7575 34.9385 54.585C34.9157 54.4092 34.9043 54.2464 34.9043 54.0967ZM35.041 51.7969L35.0508 52.4316H34.4502C34.2451 52.4316 34.0579 52.4544 33.8887 52.5C33.7227 52.5456 33.5794 52.6123 33.459 52.7002C33.3385 52.7848 33.2458 52.8906 33.1807 53.0176C33.1188 53.1445 33.0879 53.2894 33.0879 53.4521C33.0879 53.6637 33.1172 53.833 33.1758 53.96C33.2344 54.0837 33.3223 54.1732 33.4395 54.2285C33.5566 54.2839 33.7048 54.3115 33.8838 54.3115C34.1019 54.3115 34.2939 54.2611 34.46 54.1602C34.626 54.0592 34.7546 53.9372 34.8457 53.7939C34.9401 53.6507 34.984 53.5173 34.9775 53.3936L35.168 53.7988C35.1549 53.9258 35.1126 54.0641 35.041 54.2139C34.9727 54.3604 34.8766 54.502 34.7529 54.6387C34.6292 54.7721 34.4827 54.8828 34.3135 54.9707C34.1475 55.0553 33.9603 55.0977 33.752 55.0977C33.446 55.0977 33.1774 55.0391 32.9463 54.9219C32.7184 54.8047 32.541 54.6322 32.4141 54.4043C32.2871 54.1764 32.2236 53.8949 32.2236 53.5596C32.2236 53.3057 32.2676 53.0713 32.3555 52.8564C32.4434 52.6416 32.5736 52.4561 32.7461 52.2998C32.9186 52.1403 33.1351 52.0166 33.3955 51.9287C33.6592 51.8408 33.9635 51.7969 34.3086 51.7969H35.041ZM38.9424 54.3604C39.1149 54.3604 39.2712 54.3262 39.4111 54.2578C39.5544 54.1862 39.6715 54.0755 39.7627 53.9258C39.8538 53.7728 39.9059 53.5742 39.9189 53.3301H40.7295C40.7165 53.6816 40.627 53.9909 40.4609 54.2578C40.2982 54.5215 40.0833 54.7282 39.8164 54.8779C39.5527 55.0244 39.2614 55.0977 38.9424 55.0977C38.6006 55.0977 38.3027 55.0423 38.0488 54.9316C37.7982 54.821 37.5898 54.6615 37.4238 54.4531C37.2611 54.2415 37.139 53.986 37.0576 53.6865C36.9762 53.3838 36.9355 53.0404 36.9355 52.6562V52.0605C36.9355 51.6764 36.9762 51.3346 37.0576 51.0352C37.139 50.7324 37.2611 50.4769 37.4238 50.2686C37.5898 50.057 37.7982 49.8958 38.0488 49.7852C38.3027 49.6745 38.6006 49.6191 38.9424 49.6191C39.3005 49.6191 39.6097 49.6956 39.8701 49.8486C40.1338 49.9984 40.3389 50.2165 40.4854 50.5029C40.6351 50.7861 40.7165 51.1296 40.7295 51.5332H39.9189C39.9059 51.2728 39.8587 51.0563 39.7773 50.8838C39.696 50.708 39.5853 50.5778 39.4453 50.4932C39.3053 50.4053 39.1377 50.3613 38.9424 50.3613C38.7145 50.3613 38.5257 50.402 38.376 50.4834C38.2295 50.5615 38.1139 50.6755 38.0293 50.8252C37.9447 50.9749 37.8844 51.154 37.8486 51.3623C37.8161 51.5706 37.7998 51.8034 37.7998 52.0605V52.6562C37.7998 52.9134 37.8161 53.1478 37.8486 53.3594C37.8844 53.5677 37.943 53.7467 38.0244 53.8965C38.109 54.0462 38.2262 54.1618 38.376 54.2432C38.5257 54.3213 38.7145 54.3604 38.9424 54.3604ZM42.9561 54.4531L44.1328 49.7168H45.0508L43.3076 55.8154C43.2653 55.9456 43.2083 56.0856 43.1367 56.2354C43.0684 56.3883 42.9805 56.5332 42.873 56.6699C42.7656 56.8066 42.637 56.9173 42.4873 57.002C42.3376 57.0898 42.1618 57.1338 41.96 57.1338C41.8981 57.1338 41.8184 57.124 41.7207 57.1045C41.6263 57.085 41.5579 57.0687 41.5156 57.0557V56.3232C41.5352 56.3265 41.5661 56.3298 41.6084 56.333C41.6507 56.3395 41.6816 56.3428 41.7012 56.3428C41.8704 56.3428 42.0137 56.3151 42.1309 56.2598C42.2513 56.2077 42.3538 56.1182 42.4385 55.9912C42.5231 55.8675 42.5947 55.6966 42.6533 55.4785L42.9561 54.4531ZM42.1943 49.7168L43.2441 53.8184L43.4688 54.7705L42.8535 55.1025L41.252 49.7168H42.1943ZM45.9199 49.7168H46.7793V55.6299C46.7793 55.9521 46.737 56.2256 46.6523 56.4502C46.571 56.6748 46.444 56.8441 46.2715 56.958C46.1022 57.0752 45.8857 57.1338 45.6221 57.1338C45.5505 57.1338 45.4674 57.1257 45.373 57.1094C45.2819 57.0931 45.2038 57.0736 45.1387 57.0508V56.3232C45.194 56.3363 45.2542 56.346 45.3193 56.3525C45.3844 56.3623 45.4382 56.3672 45.4805 56.3672C45.5749 56.3672 45.6546 56.3428 45.7197 56.2939C45.7848 56.2451 45.8337 56.167 45.8662 56.0596C45.902 55.9521 45.9199 55.8089 45.9199 55.6299V49.7168ZM45.8418 48.3154C45.8418 48.1689 45.8825 48.0452 45.9639 47.9443C46.0485 47.8434 46.1706 47.793 46.3301 47.793C46.4928 47.793 46.6149 47.8434 46.6963 47.9443C46.7809 48.0452 46.8232 48.1689 46.8232 48.3154C46.8232 48.4554 46.7809 48.5758 46.6963 48.6768C46.6149 48.7744 46.4928 48.8232 46.3301 48.8232C46.1706 48.8232 46.0485 48.7744 45.9639 48.6768C45.8825 48.5758 45.8418 48.4554 45.8418 48.3154ZM49.0107 50.8447V55H48.1465V49.7168H48.9619L49.0107 50.8447ZM48.8008 52.1582L48.4492 52.1436C48.446 51.7822 48.4867 51.4486 48.5713 51.1426C48.6592 50.8333 48.7829 50.5648 48.9424 50.3369C49.1051 50.109 49.2988 49.9333 49.5234 49.8096C49.748 49.6826 49.9971 49.6191 50.2705 49.6191C50.4854 49.6191 50.6807 49.6549 50.8564 49.7266C51.0322 49.7949 51.182 49.9056 51.3057 50.0586C51.4294 50.2116 51.5238 50.4102 51.5889 50.6543C51.6572 50.8952 51.6914 51.1898 51.6914 51.5381V55H50.8271V51.5283C50.8271 51.2516 50.7962 51.0303 50.7344 50.8643C50.6758 50.695 50.5846 50.5729 50.4609 50.498C50.3405 50.4199 50.1875 50.3809 50.002 50.3809C49.8327 50.3809 49.6748 50.4281 49.5283 50.5225C49.3818 50.6169 49.2533 50.7471 49.1426 50.9131C49.0352 51.0791 48.9505 51.2695 48.8887 51.4844C48.8301 51.696 48.8008 51.9206 48.8008 52.1582ZM54.8799 55.0977C54.5641 55.0977 54.2793 55.0505 54.0254 54.9561C53.7715 54.8617 53.555 54.7184 53.376 54.5264C53.1969 54.3311 53.0602 54.0853 52.9658 53.7891C52.8714 53.4928 52.8242 53.1429 52.8242 52.7393V52.1436C52.8242 51.6781 52.8779 51.2842 52.9854 50.9619C53.096 50.6396 53.2441 50.3809 53.4297 50.1855C53.6152 49.987 53.8252 49.8437 54.0596 49.7559C54.2939 49.6647 54.5348 49.6191 54.7822 49.6191C55.1143 49.6191 55.3975 49.6729 55.6318 49.7803C55.8662 49.8877 56.0566 50.0472 56.2031 50.2588C56.3496 50.4704 56.457 50.7308 56.5254 51.04C56.597 51.3493 56.6328 51.7057 56.6328 52.1094V52.6123L53.332 52.6123V51.875L55.7686 51.875V51.7529C55.7555 51.4795 55.7181 51.2386 55.6562 51.0303C55.5977 50.8219 55.5 50.6592 55.3633 50.542C55.2266 50.4215 55.0329 50.3613 54.7822 50.3613C54.6227 50.3613 54.4746 50.389 54.3379 50.4443C54.2044 50.4964 54.0889 50.5892 53.9912 50.7227C53.8968 50.8529 53.8219 51.0335 53.7666 51.2646C53.7145 51.4958 53.6885 51.7887 53.6885 52.1436V52.7393C53.6885 53.0225 53.7145 53.2666 53.7666 53.4717C53.8219 53.6735 53.9017 53.8411 54.0059 53.9746C54.1133 54.1048 54.2435 54.2025 54.3965 54.2676C54.5527 54.3294 54.7301 54.3604 54.9287 54.3604C55.2184 54.3604 55.4577 54.305 55.6465 54.1943C55.8353 54.0804 55.9997 53.9355 56.1396 53.7598L56.5938 54.3018C56.4993 54.4352 56.3757 54.5638 56.2227 54.6875C56.0729 54.8079 55.8874 54.9072 55.666 54.9854C55.4479 55.0602 55.1859 55.0977 54.8799 55.0977ZM57.6973 49.7168H58.5566V55.6299C58.5566 55.9521 58.5143 56.2256 58.4297 56.4502C58.3483 56.6748 58.2214 56.8441 58.0488 56.958C57.8796 57.0752 57.6631 57.1338 57.3994 57.1338C57.3278 57.1338 57.2448 57.1257 57.1504 57.1094C57.0592 57.0931 56.9811 57.0736 56.916 57.0508V56.3232C56.9714 56.3363 57.0316 56.346 57.0967 56.3525C57.1618 56.3623 57.2155 56.3672 57.2578 56.3672C57.3522 56.3672 57.432 56.3428 57.4971 56.2939C57.5622 56.2451 57.611 56.167 57.6436 56.0596C57.6794 55.9521 57.6973 55.8089 57.6973 55.6299V49.7168ZM57.6191 48.3154C57.6191 48.1689 57.6598 48.0452 57.7412 47.9443C57.8258 47.8434 57.9479 47.793 58.1074 47.793C58.2702 47.793 58.3923 47.8434 58.4736 47.9443C58.5583 48.0452 58.6006 48.1689 58.6006 48.3154C58.6006 48.4554 58.5583 48.5758 58.4736 48.6768C58.3923 48.7744 58.2702 48.8232 58.1074 48.8232C57.9479 48.8232 57.8258 48.7744 57.7412 48.6768C57.6598 48.5758 57.6191 48.4554 57.6191 48.3154Z" fill="url(#paint0_linear_363_3126)"/>
<path d="M102.928 40.8906H104.915C105.377 40.8906 105.765 40.972 106.077 41.1348C106.393 41.2975 106.631 41.5384 106.79 41.8574C106.953 42.1732 107.034 42.5622 107.034 43.0244C107.034 43.3499 106.98 43.6478 106.873 43.918C106.766 44.1849 106.609 44.4128 106.404 44.6016C106.199 44.7871 105.95 44.9255 105.657 45.0166L105.413 45.1191H103.641L103.631 44.3525H104.905C105.179 44.3525 105.407 44.2939 105.589 44.1768C105.771 44.0563 105.908 43.8952 105.999 43.6934C106.09 43.4915 106.136 43.2686 106.136 43.0244C106.136 42.751 106.095 42.5117 106.014 42.3066C105.932 42.1016 105.802 41.9437 105.623 41.833C105.447 41.7191 105.211 41.6621 104.915 41.6621H103.826V48H102.928V40.8906ZM106.341 48L104.925 44.7773L105.857 44.7725L107.303 47.9414V48H106.341ZM107.938 45.6123V45.1094C107.938 44.6992 107.99 44.3395 108.094 44.0303C108.198 43.7178 108.343 43.4574 108.528 43.249C108.714 43.0407 108.93 42.8844 109.178 42.7803C109.425 42.6729 109.69 42.6191 109.974 42.6191C110.263 42.6191 110.532 42.6729 110.779 42.7803C111.027 42.8844 111.243 43.0407 111.429 43.249C111.618 43.4574 111.764 43.7178 111.868 44.0303C111.972 44.3395 112.024 44.6992 112.024 45.1094V45.6123C112.024 46.0225 111.972 46.3838 111.868 46.6963C111.764 47.0055 111.619 47.2643 111.434 47.4727C111.248 47.681 111.032 47.8372 110.784 47.9414C110.537 48.0456 110.27 48.0977 109.983 48.0977C109.697 48.0977 109.43 48.0456 109.183 47.9414C108.935 47.8372 108.717 47.681 108.528 47.4727C108.343 47.2643 108.198 47.0055 108.094 46.6963C107.99 46.3838 107.938 46.0225 107.938 45.6123ZM108.802 45.1094V45.6123C108.802 45.902 108.831 46.1559 108.89 46.374C108.948 46.5921 109.031 46.7744 109.139 46.9209C109.246 47.0674 109.371 47.1781 109.515 47.2529C109.658 47.3245 109.814 47.3604 109.983 47.3604C110.179 47.3604 110.35 47.3245 110.496 47.2529C110.646 47.1781 110.77 47.0674 110.867 46.9209C110.965 46.7744 111.038 46.5921 111.087 46.374C111.136 46.1559 111.16 45.902 111.16 45.6123V45.1094C111.16 44.8197 111.131 44.5674 111.072 44.3525C111.014 44.1344 110.931 43.9521 110.823 43.8057C110.716 43.6559 110.589 43.5452 110.442 43.4736C110.299 43.3988 110.143 43.3613 109.974 43.3613C109.808 43.3613 109.653 43.3988 109.51 43.4736C109.367 43.5452 109.241 43.6559 109.134 43.8057C109.03 43.9521 108.948 44.1344 108.89 44.3525C108.831 44.5674 108.802 44.8197 108.802 45.1094ZM116.404 47.2578V48H113.206V47.2578H116.404ZM116.307 43.3564L113.401 48H112.874V47.3359L115.76 42.7168H116.307V43.3564ZM115.931 42.7168V43.4639H112.889V42.7168H115.931ZM118.382 40.5V48H117.522V40.5H118.382ZM120.677 42.7168V48H119.817V42.7168H120.677ZM119.769 41.3154C119.769 41.1689 119.809 41.0452 119.891 40.9443C119.972 40.8434 120.094 40.793 120.257 40.793C120.42 40.793 120.542 40.8434 120.623 40.9443C120.708 41.0452 120.75 41.1689 120.75 41.3154C120.75 41.4554 120.708 41.5758 120.623 41.6768C120.542 41.7744 120.42 41.8232 120.257 41.8232C120.094 41.8232 119.972 41.7744 119.891 41.6768C119.809 41.5758 119.769 41.4554 119.769 41.3154ZM123.875 47.3604C124.048 47.3604 124.204 47.3262 124.344 47.2578C124.487 47.1862 124.604 47.0755 124.695 46.9258C124.786 46.7728 124.839 46.5742 124.852 46.3301H125.662C125.649 46.6816 125.56 46.9909 125.394 47.2578C125.231 47.5215 125.016 47.7282 124.749 47.8779C124.485 48.0244 124.194 48.0977 123.875 48.0977C123.533 48.0977 123.235 48.0423 122.981 47.9316C122.731 47.821 122.522 47.6615 122.356 47.4531C122.194 47.2415 122.072 46.986 121.99 46.6865C121.909 46.3838 121.868 46.0404 121.868 45.6562V45.0605C121.868 44.6764 121.909 44.3346 121.99 44.0352C122.072 43.7324 122.194 43.4769 122.356 43.2686C122.522 43.057 122.731 42.8958 122.981 42.7852C123.235 42.6745 123.533 42.6191 123.875 42.6191C124.233 42.6191 124.542 42.6956 124.803 42.8486C125.066 42.9984 125.271 43.2165 125.418 43.5029C125.568 43.7861 125.649 44.1296 125.662 44.5332H124.852C124.839 44.2728 124.791 44.0563 124.71 43.8838C124.629 43.708 124.518 43.5778 124.378 43.4932C124.238 43.4053 124.07 43.3613 123.875 43.3613C123.647 43.3613 123.458 43.402 123.309 43.4834C123.162 43.5615 123.047 43.6755 122.962 43.8252C122.877 43.9749 122.817 44.154 122.781 44.3623C122.749 44.5706 122.732 44.8034 122.732 45.0605V45.6562C122.732 45.9134 122.749 46.1478 122.781 46.3594C122.817 46.5677 122.876 46.7467 122.957 46.8965C123.042 47.0462 123.159 47.1618 123.309 47.2432C123.458 47.3213 123.647 47.3604 123.875 47.3604ZM130.008 47.2578V48L126.81 48V47.2578L130.008 47.2578ZM129.91 43.3564L127.005 48H126.478V47.3359L129.363 42.7168H129.91V43.3564ZM129.534 42.7168V43.4639H126.492V42.7168L129.534 42.7168ZM132.869 48.0977C132.553 48.0977 132.269 48.0505 132.015 47.9561C131.761 47.8617 131.544 47.7184 131.365 47.5264C131.186 47.3311 131.049 47.0853 130.955 46.7891C130.861 46.4928 130.813 46.1429 130.813 45.7393V45.1436C130.813 44.6781 130.867 44.2842 130.975 43.9619C131.085 43.6396 131.233 43.3809 131.419 43.1855C131.604 42.987 131.814 42.8437 132.049 42.7559C132.283 42.6647 132.524 42.6191 132.771 42.6191C133.104 42.6191 133.387 42.6729 133.621 42.7803C133.855 42.8877 134.046 43.0472 134.192 43.2588C134.339 43.4704 134.446 43.7308 134.515 44.04C134.586 44.3493 134.622 44.7057 134.622 45.1094V45.6123H131.321V44.875H133.758V44.7529C133.745 44.4795 133.707 44.2386 133.646 44.0303C133.587 43.8219 133.489 43.6592 133.353 43.542C133.216 43.4215 133.022 43.3613 132.771 43.3613C132.612 43.3613 132.464 43.389 132.327 43.4443C132.194 43.4964 132.078 43.5892 131.98 43.7227C131.886 43.8529 131.811 44.0335 131.756 44.2646C131.704 44.4958 131.678 44.7887 131.678 45.1436V45.7393C131.678 46.0225 131.704 46.2666 131.756 46.4717C131.811 46.6735 131.891 46.8411 131.995 46.9746C132.103 47.1048 132.233 47.2025 132.386 47.2676C132.542 47.3294 132.719 47.3604 132.918 47.3604C133.208 47.3604 133.447 47.305 133.636 47.1943C133.825 47.0804 133.989 46.9355 134.129 46.7598L134.583 47.3018C134.489 47.4352 134.365 47.5638 134.212 47.6875C134.062 47.8079 133.877 47.9072 133.655 47.9854C133.437 48.0602 133.175 48.0977 132.869 48.0977ZM136.531 43.8447V48H135.667V42.7168H136.482L136.531 43.8447ZM136.321 45.1582L135.97 45.1436C135.966 44.7822 136.007 44.4486 136.092 44.1426C136.18 43.8333 136.303 43.5648 136.463 43.3369C136.626 43.109 136.819 42.9333 137.044 42.8096C137.269 42.6826 137.518 42.6191 137.791 42.6191C138.006 42.6191 138.201 42.6549 138.377 42.7266C138.553 42.7949 138.702 42.9056 138.826 43.0586C138.95 43.2116 139.044 43.4102 139.109 43.6543C139.178 43.8952 139.212 44.1898 139.212 44.5381V48H138.348V44.5283C138.348 44.2516 138.317 44.0303 138.255 43.8643C138.196 43.695 138.105 43.5729 137.981 43.498C137.861 43.4199 137.708 43.3809 137.522 43.3809C137.353 43.3809 137.195 43.4281 137.049 43.5225C136.902 43.6169 136.774 43.7471 136.663 43.9131C136.556 44.0791 136.471 44.2695 136.409 44.4844C136.351 44.696 136.321 44.9206 136.321 45.1582ZM141.438 42.7168V48H140.579V42.7168H141.438ZM140.53 41.3154C140.53 41.1689 140.571 41.0452 140.652 40.9443C140.734 40.8434 140.856 40.793 141.019 40.793C141.181 40.793 141.303 40.8434 141.385 40.9443C141.469 41.0452 141.512 41.1689 141.512 41.3154C141.512 41.4554 141.469 41.5758 141.385 41.6768C141.303 41.7744 141.181 41.8232 141.019 41.8232C140.856 41.8232 140.734 41.7744 140.652 41.6768C140.571 41.5758 140.53 41.4554 140.53 41.3154ZM144.695 48.0977C144.38 48.0977 144.095 48.0505 143.841 47.9561C143.587 47.8617 143.37 47.7184 143.191 47.5264C143.012 47.3311 142.876 47.0853 142.781 46.7891C142.687 46.4928 142.64 46.1429 142.64 45.7393V45.1436C142.64 44.6781 142.693 44.2842 142.801 43.9619C142.911 43.6396 143.06 43.3809 143.245 43.1855C143.431 42.987 143.641 42.8437 143.875 42.7559C144.109 42.6647 144.35 42.6191 144.598 42.6191C144.93 42.6191 145.213 42.6729 145.447 42.7803C145.682 42.8877 145.872 43.0472 146.019 43.2588C146.165 43.4704 146.272 43.7308 146.341 44.04C146.412 44.3493 146.448 44.7057 146.448 45.1094V45.6123H143.147V44.875H145.584V44.7529C145.571 44.4795 145.534 44.2386 145.472 44.0303C145.413 43.8219 145.315 43.6592 145.179 43.542C145.042 43.4215 144.848 43.3613 144.598 43.3613C144.438 43.3613 144.29 43.389 144.153 43.4443C144.02 43.4964 143.904 43.5892 143.807 43.7227C143.712 43.8529 143.637 44.0335 143.582 44.2646C143.53 44.4958 143.504 44.7887 143.504 45.1436V45.7393C143.504 46.0225 143.53 46.2666 143.582 46.4717C143.637 46.6735 143.717 46.8411 143.821 46.9746C143.929 47.1048 144.059 47.2025 144.212 47.2676C144.368 47.3294 144.546 47.3604 144.744 47.3604C145.034 47.3604 145.273 47.305 145.462 47.1943C145.651 47.0804 145.815 46.9355 145.955 46.7598L146.409 47.3018C146.315 47.4352 146.191 47.5638 146.038 47.6875C145.888 47.8079 145.703 47.9072 145.481 47.9854C145.263 48.0602 145.001 48.0977 144.695 48.0977Z" fill="url(#paint1_linear_363_3126)"/>
<path d="M191.907 41.8516L193.045 36.8906H193.685L193.348 38.8193L192.112 44H191.473L191.907 41.8516ZM190.784 36.8906L191.673 41.7539L191.937 44H191.307L189.891 36.8906H190.784ZM195.135 41.749L196.004 36.8906H196.897L195.486 44H194.856L195.135 41.749ZM193.787 36.8906L194.891 41.8516L195.315 44H194.676L193.494 38.8193L193.157 36.8906H193.787ZM199.544 44.0977C199.228 44.0977 198.943 44.0505 198.689 43.9561C198.436 43.8617 198.219 43.7184 198.04 43.5264C197.861 43.3311 197.724 43.0853 197.63 42.7891C197.535 42.4928 197.488 42.1429 197.488 41.7393V41.1436C197.488 40.6781 197.542 40.2842 197.649 39.9619C197.76 39.6396 197.908 39.3809 198.094 39.1855C198.279 38.987 198.489 38.8438 198.724 38.7559C198.958 38.6647 199.199 38.6191 199.446 38.6191C199.778 38.6191 200.062 38.6729 200.296 38.7803C200.53 38.8877 200.721 39.0472 200.867 39.2588C201.014 39.4704 201.121 39.7308 201.189 40.04C201.261 40.3493 201.297 40.7057 201.297 41.1094V41.6123H197.996V40.875H200.433V40.7529C200.42 40.4795 200.382 40.2386 200.32 40.0303C200.262 39.8219 200.164 39.6592 200.027 39.542C199.891 39.4215 199.697 39.3613 199.446 39.3613C199.287 39.3613 199.139 39.389 199.002 39.4443C198.868 39.4964 198.753 39.5892 198.655 39.7227C198.561 39.8529 198.486 40.0335 198.431 40.2646C198.379 40.4958 198.353 40.7887 198.353 41.1436V41.7393C198.353 42.0225 198.379 42.2666 198.431 42.4717C198.486 42.6735 198.566 42.8411 198.67 42.9746C198.777 43.1048 198.908 43.2025 199.061 43.2676C199.217 43.3294 199.394 43.3604 199.593 43.3604C199.882 43.3604 200.122 43.305 200.311 43.1943C200.499 43.0804 200.664 42.9355 200.804 42.7598L201.258 43.3018C201.163 43.4352 201.04 43.5638 200.887 43.6875C200.737 43.8079 200.551 43.9072 200.33 43.9854C200.112 44.0602 199.85 44.0977 199.544 44.0977ZM203.206 39.5469V44H202.342V38.7168H203.177L203.206 39.5469ZM204.52 38.6875L204.524 39.5273C204.453 39.5111 204.388 39.5013 204.329 39.498C204.274 39.4915 204.209 39.4883 204.134 39.4883C203.971 39.4883 203.828 39.5208 203.704 39.5859C203.584 39.651 203.479 39.7422 203.392 39.8594C203.304 39.9766 203.234 40.1165 203.182 40.2793C203.13 40.4388 203.094 40.6146 203.074 40.8066L202.85 40.9531C202.85 40.6341 202.874 40.3346 202.923 40.0547C202.975 39.7747 203.055 39.5273 203.162 39.3125C203.27 39.0944 203.406 38.9251 203.572 38.8047C203.742 38.681 203.943 38.6191 204.178 38.6191C204.23 38.6191 204.293 38.6273 204.368 38.6436C204.446 38.6566 204.497 38.6712 204.52 38.6875ZM206.702 43.4531L207.879 38.7168H208.797L207.054 44.8154C207.011 44.9456 206.954 45.0856 206.883 45.2354C206.814 45.3883 206.727 45.5332 206.619 45.6699C206.512 45.8066 206.383 45.9173 206.233 46.002C206.084 46.0898 205.908 46.1338 205.706 46.1338C205.644 46.1338 205.564 46.124 205.467 46.1045C205.372 46.085 205.304 46.0687 205.262 46.0557V45.3232C205.281 45.3265 205.312 45.3298 205.354 45.333C205.397 45.3395 205.428 45.3428 205.447 45.3428C205.617 45.3428 205.76 45.3151 205.877 45.2598C205.997 45.2077 206.1 45.1182 206.185 44.9912C206.269 44.8675 206.341 44.6966 206.399 44.4785L206.702 43.4531ZM205.94 38.7168L206.99 42.8184L207.215 43.7705L206.6 44.1025L204.998 38.7168H205.94ZM210.75 44H209.886V38.2578C209.886 37.8574 209.952 37.5189 210.086 37.2422C210.223 36.9655 210.416 36.7555 210.667 36.6123C210.921 36.4691 211.22 36.3975 211.565 36.3975C211.771 36.3975 211.967 36.4268 212.156 36.4854C212.345 36.5407 212.54 36.6107 212.742 36.6953L212.596 37.457C212.479 37.3984 212.335 37.3431 212.166 37.291C211.997 37.2357 211.819 37.208 211.634 37.208C211.308 37.208 211.079 37.2959 210.945 37.4717C210.815 37.6442 210.75 37.9062 210.75 38.2578V44ZM211.604 38.7168V39.4102H209.197V38.7168H211.604ZM213.157 38.7168V44H212.293V38.7168L213.157 38.7168ZM215.418 36.5V44H214.554V36.5H215.418ZM218.099 38.7168L216.219 41.1826L215.057 42.5205L214.998 41.5586L215.799 40.4551L217.059 38.7168H218.099ZM217.308 44L215.823 41.4805L216.268 40.6748L218.313 44H217.308ZM221.648 43.0967V40.2305C221.648 40.0221 221.616 39.8545 221.551 39.7275C221.489 39.6006 221.395 39.5078 221.268 39.4492C221.144 39.3906 220.988 39.3613 220.799 39.3613C220.617 39.3613 220.459 39.3988 220.325 39.4736C220.195 39.5485 220.094 39.6478 220.022 39.7715C219.954 39.8952 219.92 40.0319 219.92 40.1816H219.056C219.056 39.9928 219.096 39.8057 219.178 39.6201C219.262 39.4346 219.383 39.2669 219.539 39.1172C219.695 38.9642 219.882 38.8437 220.101 38.7559C220.322 38.6647 220.569 38.6191 220.843 38.6191C221.168 38.6191 221.456 38.6729 221.707 38.7803C221.958 38.8844 222.155 39.0553 222.298 39.293C222.441 39.5306 222.513 39.8464 222.513 40.2402V42.8477C222.513 43.0234 222.526 43.2106 222.552 43.4092C222.581 43.6077 222.622 43.7786 222.674 43.9219V44H221.78C221.738 43.8958 221.705 43.7575 221.683 43.585C221.66 43.4092 221.648 43.2464 221.648 43.0967ZM221.785 40.7969L221.795 41.4316H221.194C220.989 41.4316 220.802 41.4544 220.633 41.5C220.467 41.5456 220.324 41.6123 220.203 41.7002C220.083 41.7848 219.99 41.8906 219.925 42.0176C219.863 42.1445 219.832 42.2894 219.832 42.4521C219.832 42.6637 219.861 42.833 219.92 42.96C219.979 43.0837 220.066 43.1732 220.184 43.2285C220.301 43.2839 220.449 43.3115 220.628 43.3115C220.846 43.3115 221.038 43.2611 221.204 43.1602C221.37 43.0592 221.499 42.9372 221.59 42.7939C221.684 42.6507 221.728 42.5173 221.722 42.3936L221.912 42.7988C221.899 42.9258 221.857 43.0641 221.785 43.2139C221.717 43.3604 221.621 43.502 221.497 43.6387C221.373 43.7721 221.227 43.8828 221.058 43.9707C220.892 44.0553 220.704 44.0977 220.496 44.0977C220.19 44.0977 219.922 44.0391 219.69 43.9219C219.463 43.8047 219.285 43.6322 219.158 43.4043C219.031 43.1764 218.968 42.8949 218.968 42.5596C218.968 42.3057 219.012 42.0713 219.1 41.8564C219.188 41.6416 219.318 41.4561 219.49 41.2998C219.663 41.1403 219.879 41.0166 220.14 40.9287C220.403 40.8408 220.708 40.7969 221.053 40.7969H221.785ZM225.687 43.3604C225.859 43.3604 226.015 43.3262 226.155 43.2578C226.299 43.1862 226.416 43.0755 226.507 42.9258C226.598 42.7728 226.65 42.5742 226.663 42.3301H227.474C227.461 42.6816 227.371 42.9909 227.205 43.2578C227.042 43.5215 226.827 43.7282 226.561 43.8779C226.297 44.0244 226.006 44.0977 225.687 44.0977C225.345 44.0977 225.047 44.0423 224.793 43.9316C224.542 43.821 224.334 43.6615 224.168 43.4531C224.005 43.2415 223.883 42.986 223.802 42.6865C223.72 42.3838 223.68 42.0404 223.68 41.6562V41.0605C223.68 40.6764 223.72 40.3346 223.802 40.0352C223.883 39.7324 224.005 39.4769 224.168 39.2686C224.334 39.057 224.542 38.8958 224.793 38.7852C225.047 38.6745 225.345 38.6191 225.687 38.6191C226.045 38.6191 226.354 38.6956 226.614 38.8486C226.878 38.9984 227.083 39.2165 227.229 39.5029C227.379 39.7861 227.461 40.1296 227.474 40.5332H226.663C226.65 40.2728 226.603 40.0563 226.521 39.8838C226.44 39.708 226.329 39.5778 226.189 39.4932C226.049 39.4053 225.882 39.3613 225.687 39.3613C225.459 39.3613 225.27 39.402 225.12 39.4834C224.974 39.5615 224.858 39.6755 224.773 39.8252C224.689 39.9749 224.629 40.154 224.593 40.3623C224.56 40.5706 224.544 40.8034 224.544 41.0605V41.6562C224.544 41.9134 224.56 42.1478 224.593 42.3594C224.629 42.5677 224.687 42.7467 224.769 42.8965C224.853 43.0462 224.97 43.1618 225.12 43.2432C225.27 43.3213 225.459 43.3604 225.687 43.3604ZM228.494 38.7168H229.354V44.6299C229.354 44.9521 229.311 45.2256 229.227 45.4502C229.145 45.6748 229.018 45.8441 228.846 45.958C228.676 46.0752 228.46 46.1338 228.196 46.1338C228.125 46.1338 228.042 46.1257 227.947 46.1094C227.856 46.0931 227.778 46.0736 227.713 46.0508V45.3232C227.768 45.3363 227.828 45.346 227.894 45.3525C227.959 45.3623 228.012 45.3672 228.055 45.3672C228.149 45.3672 228.229 45.3428 228.294 45.2939C228.359 45.2451 228.408 45.167 228.44 45.0596C228.476 44.9521 228.494 44.8089 228.494 44.6299V38.7168ZM228.416 37.3154C228.416 37.1689 228.457 37.0452 228.538 36.9443C228.623 36.8434 228.745 36.793 228.904 36.793C229.067 36.793 229.189 36.8434 229.271 36.9443C229.355 37.0452 229.397 37.1689 229.397 37.3154C229.397 37.4554 229.355 37.5758 229.271 37.6768C229.189 37.7744 229.067 37.8232 228.904 37.8232C228.745 37.8232 228.623 37.7744 228.538 37.6768C228.457 37.5758 228.416 37.4554 228.416 37.3154ZM233.309 43.0967V40.2305C233.309 40.0221 233.276 39.8545 233.211 39.7275C233.149 39.6006 233.055 39.5078 232.928 39.4492C232.804 39.3906 232.648 39.3613 232.459 39.3613C232.277 39.3613 232.119 39.3988 231.985 39.4736C231.855 39.5485 231.754 39.6478 231.683 39.7715C231.614 39.8952 231.58 40.0319 231.58 40.1816H230.716C230.716 39.9928 230.757 39.8057 230.838 39.6201C230.923 39.4346 231.043 39.2669 231.199 39.1172C231.355 38.9642 231.543 38.8437 231.761 38.7559C231.982 38.6647 232.229 38.6191 232.503 38.6191C232.828 38.6191 233.117 38.6729 233.367 38.7803C233.618 38.8844 233.815 39.0553 233.958 39.293C234.101 39.5306 234.173 39.8464 234.173 40.2402V42.8477C234.173 43.0234 234.186 43.2106 234.212 43.4092C234.241 43.6077 234.282 43.7786 234.334 43.9219V44H233.44C233.398 43.8958 233.366 43.7575 233.343 43.585C233.32 43.4092 233.309 43.2464 233.309 43.0967ZM233.445 40.7969L233.455 41.4316H232.854C232.649 41.4316 232.462 41.4544 232.293 41.5C232.127 41.5456 231.984 41.6123 231.863 41.7002C231.743 41.7848 231.65 41.8906 231.585 42.0176C231.523 42.1445 231.492 42.2894 231.492 42.4521C231.492 42.6637 231.521 42.833 231.58 42.96C231.639 43.0837 231.727 43.1732 231.844 43.2285C231.961 43.2839 232.109 43.3115 232.288 43.3115C232.506 43.3115 232.698 43.2611 232.864 43.1602C233.03 43.0592 233.159 42.9372 233.25 42.7939C233.344 42.6507 233.388 42.5173 233.382 42.3936L233.572 42.7988C233.559 42.9258 233.517 43.0641 233.445 43.2139C233.377 43.3604 233.281 43.502 233.157 43.6387C233.034 43.7721 232.887 43.8828 232.718 43.9707C232.552 44.0553 232.365 44.0977 232.156 44.0977C231.85 44.0977 231.582 44.0391 231.351 43.9219C231.123 43.8047 230.945 43.6322 230.818 43.4043C230.691 43.1764 230.628 42.8949 230.628 42.5596C230.628 42.3057 230.672 42.0713 230.76 41.8564C230.848 41.6416 230.978 41.4561 231.15 41.2998C231.323 41.1403 231.539 41.0166 231.8 40.9287C232.063 40.8408 232.368 40.7969 232.713 40.7969H233.445ZM238.738 38.7168V44H237.879V38.7168H238.738ZM237.83 37.3154C237.83 37.1689 237.871 37.0452 237.952 36.9443C238.034 36.8434 238.156 36.793 238.318 36.793C238.481 36.793 238.603 36.8434 238.685 36.9443C238.769 37.0452 238.812 37.1689 238.812 37.3154C238.812 37.4554 238.769 37.5758 238.685 37.6768C238.603 37.7744 238.481 37.8232 238.318 37.8232C238.156 37.8232 238.034 37.7744 237.952 37.6768C237.871 37.5758 237.83 37.4554 237.83 37.3154ZM198.895 50.7324V57.0312H198.03V49.7168H198.816L198.895 50.7324ZM201.849 52.1191V52.6123C201.849 53.029 201.81 53.3936 201.731 53.7061C201.657 54.0153 201.544 54.2741 201.395 54.4824C201.248 54.6875 201.067 54.8421 200.853 54.9463C200.638 55.0472 200.392 55.0977 200.115 55.0977C199.839 55.0977 199.598 55.0456 199.393 54.9414C199.191 54.834 199.02 54.6794 198.88 54.4775C198.743 54.2757 198.634 54.0332 198.553 53.75C198.475 53.4635 198.421 53.1429 198.392 52.7881V52.0361C198.421 51.6618 198.475 51.3265 198.553 51.0303C198.631 50.7308 198.738 50.4769 198.875 50.2686C199.015 50.057 199.186 49.8958 199.388 49.7852C199.593 49.6745 199.832 49.6191 200.105 49.6191C200.389 49.6191 200.638 49.668 200.853 49.7656C201.071 49.8633 201.253 50.0146 201.399 50.2197C201.549 50.4215 201.661 50.6803 201.736 50.9961C201.811 51.3086 201.849 51.6829 201.849 52.1191ZM200.984 52.6123V52.1191C200.984 51.8262 200.962 51.5706 200.916 51.3525C200.874 51.1344 200.805 50.9538 200.711 50.8105C200.617 50.6673 200.498 50.5599 200.354 50.4883C200.211 50.4167 200.039 50.3809 199.837 50.3809C199.664 50.3809 199.511 50.4167 199.378 50.4883C199.248 50.5599 199.135 50.6576 199.041 50.7812C198.947 50.9017 198.868 51.04 198.807 51.1963C198.745 51.3493 198.699 51.5088 198.67 51.6748V53.1543C198.725 53.3626 198.799 53.5596 198.89 53.7451C198.981 53.9274 199.103 54.0755 199.256 54.1895C199.412 54.3034 199.609 54.3604 199.847 54.3604C200.045 54.3604 200.216 54.3245 200.359 54.2529C200.503 54.1813 200.62 54.0739 200.711 53.9307C200.805 53.7842 200.874 53.6019 200.916 53.3838C200.962 53.1624 200.984 52.9053 200.984 52.6123ZM204.583 50.459V51.0547L202.566 51.9678V51.3721L204.583 50.459ZM203.968 47.5V55H203.104V47.5H203.968ZM208.06 54.0967V51.2305C208.06 51.0221 208.027 50.8545 207.962 50.7275C207.9 50.6006 207.806 50.5078 207.679 50.4492C207.555 50.3906 207.399 50.3613 207.21 50.3613C207.028 50.3613 206.87 50.3988 206.736 50.4736C206.606 50.5485 206.505 50.6478 206.434 50.7715C206.365 50.8952 206.331 51.0319 206.331 51.1816H205.467C205.467 50.9928 205.507 50.8057 205.589 50.6201C205.674 50.4346 205.794 50.2669 205.95 50.1172C206.106 49.9642 206.294 49.8438 206.512 49.7559C206.733 49.6647 206.98 49.6191 207.254 49.6191C207.579 49.6191 207.868 49.6729 208.118 49.7803C208.369 49.8844 208.566 50.0553 208.709 50.293C208.852 50.5306 208.924 50.8464 208.924 51.2402V53.8477C208.924 54.0234 208.937 54.2106 208.963 54.4092C208.992 54.6077 209.033 54.7786 209.085 54.9219V55H208.191C208.149 54.8958 208.117 54.7575 208.094 54.585C208.071 54.4092 208.06 54.2464 208.06 54.0967ZM208.196 51.7969L208.206 52.4316H207.605C207.4 52.4316 207.213 52.4544 207.044 52.5C206.878 52.5456 206.735 52.6123 206.614 52.7002C206.494 52.7848 206.401 52.8906 206.336 53.0176C206.274 53.1445 206.243 53.2894 206.243 53.4521C206.243 53.6637 206.272 53.833 206.331 53.96C206.39 54.0837 206.478 54.1732 206.595 54.2285C206.712 54.2839 206.86 54.3115 207.039 54.3115C207.257 54.3115 207.449 54.2611 207.615 54.1602C207.781 54.0592 207.91 53.9372 208.001 53.7939C208.095 53.6507 208.139 53.5173 208.133 53.3936L208.323 53.7988C208.31 53.9258 208.268 54.0641 208.196 54.2139C208.128 54.3604 208.032 54.502 207.908 54.6387C207.785 54.7721 207.638 54.8828 207.469 54.9707C207.303 55.0553 207.116 55.0977 206.907 55.0977C206.601 55.0977 206.333 55.0391 206.102 54.9219C205.874 54.8047 205.696 54.6322 205.569 54.4043C205.442 54.1764 205.379 53.8949 205.379 53.5596C205.379 53.3057 205.423 53.0713 205.511 52.8564C205.599 52.6416 205.729 52.4561 205.901 52.2998C206.074 52.1403 206.29 52.0166 206.551 51.9287C206.814 51.8408 207.119 51.7969 207.464 51.7969H208.196ZM212.195 49.7168V50.4102H209.729V49.7168H212.195ZM210.535 48.4326H211.399V53.6914C211.399 53.8704 211.421 54.0055 211.463 54.0967C211.508 54.1878 211.565 54.248 211.634 54.2773C211.702 54.3066 211.775 54.3213 211.854 54.3213C211.912 54.3213 211.977 54.3148 212.049 54.3018C212.12 54.2855 212.169 54.2725 212.195 54.2627L212.19 55C212.132 55.0228 212.054 55.0439 211.956 55.0635C211.858 55.0863 211.735 55.0977 211.585 55.0977C211.399 55.0977 211.227 55.0537 211.067 54.9658C210.908 54.8779 210.779 54.7314 210.682 54.5264C210.584 54.318 210.535 54.0381 210.535 53.6865V48.4326ZM214.09 50.8447V55H213.226V49.7168H214.041L214.09 50.8447ZM213.88 52.1582L213.528 52.1436C213.525 51.7822 213.566 51.4486 213.65 51.1426C213.738 50.8333 213.862 50.5648 214.021 50.3369C214.184 50.109 214.378 49.9333 214.603 49.8096C214.827 49.6826 215.076 49.6191 215.35 49.6191C215.564 49.6191 215.76 49.6549 215.936 49.7266C216.111 49.7949 216.261 49.9056 216.385 50.0586C216.508 50.2116 216.603 50.4102 216.668 50.6543C216.736 50.8952 216.771 51.1898 216.771 51.5381V55H215.906V51.5283C215.906 51.2516 215.875 51.0303 215.813 50.8643C215.755 50.695 215.664 50.5729 215.54 50.498C215.42 50.4199 215.267 50.3809 215.081 50.3809C214.912 50.3809 214.754 50.4281 214.607 50.5225C214.461 50.6169 214.332 50.7471 214.222 50.9131C214.114 51.0791 214.03 51.2695 213.968 51.4844C213.909 51.696 213.88 51.9206 213.88 52.1582ZM217.889 52.6123V52.1094C217.889 51.6992 217.941 51.3395 218.045 51.0303C218.149 50.7178 218.294 50.4574 218.479 50.249C218.665 50.0407 218.882 49.8844 219.129 49.7803C219.376 49.6729 219.642 49.6191 219.925 49.6191C220.215 49.6191 220.483 49.6729 220.73 49.7803C220.978 49.8844 221.194 50.0407 221.38 50.249C221.569 50.4574 221.715 50.7178 221.819 51.0303C221.924 51.3395 221.976 51.6992 221.976 52.1094V52.6123C221.976 53.0225 221.924 53.3838 221.819 53.6963C221.715 54.0055 221.57 54.2643 221.385 54.4727C221.199 54.681 220.983 54.8372 220.735 54.9414C220.488 55.0456 220.221 55.0977 219.935 55.0977C219.648 55.0977 219.381 55.0456 219.134 54.9414C218.886 54.8372 218.668 54.681 218.479 54.4727C218.294 54.2643 218.149 54.0055 218.045 53.6963C217.941 53.3838 217.889 53.0225 217.889 52.6123ZM218.753 52.1094V52.6123C218.753 52.902 218.782 53.1559 218.841 53.374C218.899 53.5921 218.982 53.7744 219.09 53.9209C219.197 54.0674 219.323 54.1781 219.466 54.2529C219.609 54.3245 219.765 54.3604 219.935 54.3604C220.13 54.3604 220.301 54.3245 220.447 54.2529C220.597 54.1781 220.721 54.0674 220.818 53.9209C220.916 53.7744 220.989 53.5921 221.038 53.374C221.087 53.1559 221.111 52.902 221.111 52.6123V52.1094C221.111 51.8197 221.082 51.5674 221.023 51.3525C220.965 51.1344 220.882 50.9521 220.774 50.8057C220.667 50.6559 220.54 50.5452 220.394 50.4736C220.25 50.3988 220.094 50.3613 219.925 50.3613C219.759 50.3613 219.604 50.3988 219.461 50.4736C219.318 50.5452 219.192 50.6559 219.085 50.8057C218.981 50.9521 218.899 51.1344 218.841 51.3525C218.782 51.5674 218.753 51.8197 218.753 52.1094ZM225.652 53.6475C225.652 53.514 225.62 53.3968 225.555 53.2959C225.49 53.195 225.382 53.0973 225.232 53.0029C225.086 52.9085 224.887 52.8076 224.637 52.7002C224.393 52.5993 224.173 52.5 223.978 52.4023C223.785 52.3014 223.623 52.1924 223.489 52.0752C223.356 51.958 223.253 51.8229 223.182 51.6699C223.113 51.5137 223.079 51.3298 223.079 51.1182C223.079 50.9066 223.118 50.7113 223.196 50.5322C223.278 50.3499 223.392 50.1904 223.538 50.0537C223.685 49.917 223.86 49.8112 224.065 49.7363C224.271 49.6582 224.5 49.6191 224.754 49.6191C225.115 49.6191 225.423 49.6891 225.677 49.8291C225.931 49.9691 226.124 50.1611 226.258 50.4053C226.395 50.6462 226.463 50.918 226.463 51.2207H225.604C225.604 51.0742 225.571 50.9359 225.506 50.8057C225.441 50.6755 225.345 50.5697 225.218 50.4883C225.091 50.4036 224.936 50.3613 224.754 50.3613C224.562 50.3613 224.406 50.3955 224.285 50.4639C224.165 50.5322 224.077 50.6217 224.021 50.7324C223.969 50.8398 223.943 50.9587 223.943 51.0889C223.943 51.1865 223.956 51.2712 223.982 51.3428C224.012 51.4111 224.061 51.4762 224.129 51.5381C224.197 51.5967 224.29 51.6585 224.407 51.7236C224.528 51.7855 224.681 51.8571 224.866 51.9385C225.224 52.0785 225.525 52.2201 225.77 52.3633C226.014 52.5065 226.199 52.6742 226.326 52.8662C226.453 53.0583 226.517 53.2959 226.517 53.5791C226.517 53.8102 226.474 54.0202 226.39 54.209C226.308 54.3945 226.191 54.554 226.038 54.6875C225.885 54.821 225.701 54.9235 225.486 54.9951C225.275 55.0635 225.037 55.0977 224.773 55.0977C224.376 55.0977 224.039 55.0195 223.763 54.8633C223.489 54.7038 223.281 54.4971 223.138 54.2432C222.998 53.986 222.928 53.7109 222.928 53.418H223.792C223.802 53.6654 223.857 53.8574 223.958 53.9941C224.062 54.1309 224.188 54.2253 224.334 54.2773C224.48 54.3294 224.627 54.3555 224.773 54.3555C224.965 54.3555 225.127 54.3278 225.257 54.2725C225.387 54.2139 225.485 54.1309 225.55 54.0234C225.618 53.916 225.652 53.7907 225.652 53.6475ZM224.383 48.9355L225.33 47.5H226.419L225.11 48.9355H224.383ZM229.48 54.3604C229.653 54.3604 229.809 54.3262 229.949 54.2578C230.092 54.1862 230.21 54.0755 230.301 53.9258C230.392 53.7728 230.444 53.5742 230.457 53.3301H231.268C231.255 53.6816 231.165 53.9909 230.999 54.2578C230.836 54.5215 230.621 54.7282 230.354 54.8779C230.091 55.0244 229.799 55.0977 229.48 55.0977C229.139 55.0977 228.841 55.0423 228.587 54.9316C228.336 54.821 228.128 54.6615 227.962 54.4531C227.799 54.2415 227.677 53.986 227.596 53.6865C227.514 53.3838 227.474 53.0404 227.474 52.6562V52.0605C227.474 51.6764 227.514 51.3346 227.596 51.0352C227.677 50.7324 227.799 50.4769 227.962 50.2686C228.128 50.057 228.336 49.8958 228.587 49.7852C228.841 49.6745 229.139 49.6191 229.48 49.6191C229.839 49.6191 230.148 49.6956 230.408 49.8486C230.672 49.9984 230.877 50.2165 231.023 50.5029C231.173 50.7861 231.255 51.1296 231.268 51.5332H230.457C230.444 51.2728 230.397 51.0563 230.315 50.8838C230.234 50.708 230.123 50.5778 229.983 50.4932C229.843 50.4053 229.676 50.3613 229.48 50.3613C229.253 50.3613 229.064 50.402 228.914 50.4834C228.768 50.5615 228.652 50.6755 228.567 50.8252C228.483 50.9749 228.423 51.154 228.387 51.3623C228.354 51.5706 228.338 51.8034 228.338 52.0605V52.6562C228.338 52.9134 228.354 53.1478 228.387 53.3594C228.423 53.5677 228.481 53.7467 228.562 53.8965C228.647 54.0462 228.764 54.1618 228.914 54.2432C229.064 54.3213 229.253 54.3604 229.48 54.3604ZM228.772 48.9355L229.72 47.5H230.809L229.5 48.9355H228.772Z" fill="url(#paint2_linear_363_3126)"/>
<path fill-rule="evenodd" clip-rule="evenodd" d="M204 16L137 16V14L204 14V16Z" fill="url(#paint3_linear_363_3126)"/>
<path fill-rule="evenodd" clip-rule="evenodd" d="M111 16L44 16V14L111 14V16Z" fill="url(#paint4_linear_363_3126)"/>
<path fill-rule="evenodd" clip-rule="evenodd" d="M18.7612 6.17317C18 8.01088 18 10.3406 18 15C18 19.6594 18 21.9891 18.7612 23.8268C19.7761 26.2771 21.7229 28.2239 24.1732 29.2388C26.0109 30 28.3406 30 33 30C37.6594 30 39.9891 30 41.8268 29.2388C44.2771 28.2239 46.2239 26.2771 47.2388 23.8268C48 21.9891 48 19.6594 48 15C48 10.3406 48 8.01088 47.2388 6.17317C46.2239 3.72288 44.2771 1.77614 41.8268 0.761205C39.9891 0 37.6594 0 33 0C28.3406 0 26.0109 0 24.1732 0.761205C21.7229 1.77614 19.7761 3.72288 18.7612 6.17317ZM39.7071 11.7071C40.0976 11.3166 40.0976 10.6834 39.7071 10.2929C39.3166 9.90237 38.6834 9.90237 38.2929 10.2929L31 17.5858L27.7071 14.2929C27.3166 13.9024 26.6834 13.9024 26.2929 14.2929C25.9024 14.6834 25.9024 15.3166 26.2929 15.7071L30.2929 19.7071C30.4804 19.8946 30.7348 20 31 20C31.2652 20 31.5196 19.8946 31.7071 19.7071L39.7071 11.7071Z" fill="url(#paint5_linear_363_3126)"/>
<path fill-rule="evenodd" clip-rule="evenodd" d="M109.761 6.17317C109 8.01088 109 10.3406 109 15C109 19.6594 109 21.9891 109.761 23.8268C110.776 26.2771 112.723 28.2239 115.173 29.2388C117.011 30 119.341 30 124 30C128.659 30 130.989 30 132.827 29.2388C135.277 28.2239 137.224 26.2771 138.239 23.8268C139 21.9891 139 19.6594 139 15C139 10.3406 139 8.01088 138.239 6.17317C137.224 3.72288 135.277 1.77614 132.827 0.761205C130.989 0 128.659 0 124 0C119.341 0 117.011 0 115.173 0.761205C112.723 1.77614 110.776 3.72288 109.761 6.17317ZM130.707 11.7071C131.098 11.3166 131.098 10.6834 130.707 10.2929C130.317 9.90237 129.683 9.90237 129.293 10.2929L122 17.5858L118.707 14.2929C118.317 13.9024 117.683 13.9024 117.293 14.2929C116.902 14.6834 116.902 15.3166 117.293 15.7071L121.293 19.7071C121.48 19.8946 121.735 20 122 20C122.265 20 122.52 19.8946 122.707 19.7071L130.707 11.7071Z" fill="url(#paint6_linear_363_3126)"/>
<path fill-rule="evenodd" clip-rule="evenodd" d="M200.761 6.17317C200 8.01088 200 10.3406 200 15C200 19.6594 200 21.9891 200.761 23.8268C201.776 26.2771 203.723 28.2239 206.173 29.2388C208.011 30 210.341 30 215 30C219.659 30 221.989 30 223.827 29.2388C226.277 28.2239 228.224 26.2771 229.239 23.8268C230 21.9891 230 19.6594 230 15C230 10.3406 230 8.01088 229.239 6.17317C228.224 3.72288 226.277 1.77614 223.827 0.761205C221.989 0 219.659 0 215 0C210.341 0 208.011 0 206.173 0.761205C203.723 1.77614 201.776 3.72288 200.761 6.17317ZM221.707 11.7071C222.098 11.3166 222.098 10.6834 221.707 10.2929C221.317 9.90237 220.683 9.90237 220.293 10.2929L213 17.5858L209.707 14.2929C209.317 13.9024 208.683 13.9024 208.293 14.2929C207.902 14.6834 207.902 15.3166 208.293 15.7071L212.293 19.7071C212.48 19.8946 212.735 20 213 20C213.265 20 213.52 19.8946 213.707 19.7071L221.707 11.7071Z" fill="url(#paint7_linear_363_3126)"/>
<defs>
<linearGradient id="paint0_linear_363_3126" x1="33" y1="57" x2="33" y2="35" gradientUnits="userSpaceOnUse">
<stop stop-color="#5CCC94"/>
<stop offset="1" stop-color="#8CCAAE"/>
</linearGradient>
<linearGradient id="paint1_linear_363_3126" x1="124.5" y1="55" x2="124.5" y2="35" gradientUnits="userSpaceOnUse">
<stop stop-color="#5CCC94"/>
<stop offset="1" stop-color="#8CCAAE"/>
</linearGradient>
<linearGradient id="paint2_linear_363_3126" x1="214.5" y1="68" x2="214.5" y2="35" gradientUnits="userSpaceOnUse">
<stop stop-color="#5CCC94"/>
<stop offset="1" stop-color="#8CCAAE"/>
</linearGradient>
<linearGradient id="paint3_linear_363_3126" x1="170.5" y1="16" x2="170.5" y2="14" gradientUnits="userSpaceOnUse">
<stop stop-color="#5CCC94"/>
<stop offset="1" stop-color="#8CCAAE"/>
</linearGradient>
<linearGradient id="paint4_linear_363_3126" x1="77.5" y1="16" x2="77.5" y2="14" gradientUnits="userSpaceOnUse">
<stop stop-color="#5CCC94"/>
<stop offset="1" stop-color="#8CCAAE"/>
</linearGradient>
<linearGradient id="paint5_linear_363_3126" x1="33" y1="30" x2="33" y2="1.58545e-07" gradientUnits="userSpaceOnUse">
<stop stop-color="#5CCC94"/>
<stop offset="1" stop-color="#8CCAAE"/>
</linearGradient>
<linearGradient id="paint6_linear_363_3126" x1="124" y1="30" x2="124" y2="1.58545e-07" gradientUnits="userSpaceOnUse">
<stop stop-color="#5CCC94"/>
<stop offset="1" stop-color="#8CCAAE"/>
</linearGradient>
<linearGradient id="paint7_linear_363_3126" x1="215" y1="30" x2="215" y2="1.58545e-07" gradientUnits="userSpaceOnUse">
<stop stop-color="#5CCC94"/>
<stop offset="1" stop-color="#8CCAAE"/>
</linearGradient>
</defs>
</svg>
