<svg width="239" height="58" viewBox="0 0 239 58" fill="none" xmlns="http://www.w3.org/2000/svg">
<path d="M9.64648 36.8906H11.6338C12.096 36.8906 12.4834 36.972 12.7959 37.1348C13.1117 37.2975 13.3493 37.5384 13.5088 37.8574C13.6715 38.1732 13.7529 38.5622 13.7529 39.0244C13.7529 39.3499 13.6992 39.6478 13.5918 39.918C13.4844 40.1849 13.3281 40.4128 13.123 40.6016C12.918 40.7871 12.6689 40.9255 12.376 41.0166L12.1318 41.1191H10.3594L10.3496 40.3525H11.624C11.8975 40.3525 12.1253 40.2939 12.3076 40.1768C12.4899 40.0563 12.6266 39.8952 12.7178 39.6934C12.8089 39.4915 12.8545 39.2686 12.8545 39.0244C12.8545 38.751 12.8138 38.5117 12.7324 38.3066C12.651 38.1016 12.5208 37.9437 12.3418 37.833C12.166 37.7191 11.93 37.6621 11.6338 37.6621H10.5449L10.5449 44H9.64648L9.64648 36.8906ZM13.0596 44L11.6436 40.7773L12.5762 40.7725L14.0215 43.9414V44H13.0596ZM16.7266 44.0977C16.4108 44.0977 16.126 44.0505 15.8721 43.9561C15.6182 43.8617 15.4017 43.7184 15.2227 43.5264C15.0436 43.3311 14.9069 43.0853 14.8125 42.7891C14.7181 42.4928 14.6709 42.1429 14.6709 41.7393V41.1436C14.6709 40.6781 14.7246 40.2842 14.832 39.9619C14.9427 39.6396 15.0908 39.3809 15.2764 39.1855C15.4619 38.987 15.6719 38.8438 15.9062 38.7559C16.1406 38.6647 16.3815 38.6191 16.6289 38.6191C16.9609 38.6191 17.2441 38.6729 17.4785 38.7803C17.7129 38.8877 17.9033 39.0472 18.0498 39.2588C18.1963 39.4704 18.3037 39.7308 18.3721 40.04C18.4437 40.3493 18.4795 40.7057 18.4795 41.1094V41.6123H15.1787V40.875H17.6152V40.7529C17.6022 40.4795 17.5648 40.2386 17.5029 40.0303C17.4443 39.8219 17.3467 39.6592 17.21 39.542C17.0732 39.4215 16.8796 39.3613 16.6289 39.3613C16.4694 39.3613 16.3213 39.389 16.1846 39.4443C16.0511 39.4964 15.9355 39.5892 15.8379 39.7227C15.7435 39.8529 15.6686 40.0335 15.6133 40.2646C15.5612 40.4958 15.5352 40.7887 15.5352 41.1436V41.7393C15.5352 42.0225 15.5612 42.2666 15.6133 42.4717C15.6686 42.6735 15.7484 42.8411 15.8525 42.9746C15.96 43.1048 16.0902 43.2025 16.2432 43.2676C16.3994 43.3294 16.5768 43.3604 16.7754 43.3604C17.0651 43.3604 17.3044 43.305 17.4932 43.1943C17.682 43.0804 17.8464 42.9355 17.9863 42.7598L18.4404 43.3018C18.346 43.4352 18.2223 43.5638 18.0693 43.6875C17.9196 43.8079 17.734 43.9072 17.5127 43.9854C17.2946 44.0602 17.0326 44.0977 16.7266 44.0977ZM22.3857 38.7168H23.1621V44.0439C23.1621 44.5094 23.0807 44.8936 22.918 45.1963C22.7585 45.499 22.5355 45.722 22.249 45.8652C21.9626 46.0117 21.6322 46.085 21.2578 46.085C21.1243 46.085 20.9567 46.0605 20.7549 46.0117C20.5531 45.9629 20.3512 45.888 20.1494 45.7871C19.9476 45.6895 19.7816 45.5658 19.6514 45.416L20.0078 44.8154C20.1934 45.0042 20.3903 45.1393 20.5986 45.2207C20.807 45.3021 21.0055 45.3428 21.1943 45.3428C21.4189 45.3428 21.6143 45.3021 21.7803 45.2207C21.9463 45.1393 22.0749 45.0059 22.166 44.8203C22.2572 44.638 22.3027 44.3939 22.3027 44.0879V39.8789L22.3857 38.7168ZM19.3486 41.6123V41.1191C19.3486 40.6829 19.3893 40.3086 19.4707 39.9961C19.5521 39.6803 19.6693 39.4215 19.8223 39.2197C19.9785 39.0146 20.1657 38.8633 20.3838 38.7656C20.6019 38.668 20.846 38.6191 21.1162 38.6191C21.3896 38.6191 21.6257 38.6745 21.8242 38.7852C22.0228 38.8958 22.1872 39.057 22.3174 39.2686C22.4508 39.4769 22.555 39.7308 22.6299 40.0303C22.708 40.3265 22.7617 40.6618 22.791 41.0361V41.6953C22.7617 42.0664 22.708 42.4001 22.6299 42.6963C22.555 42.9925 22.4492 43.2448 22.3125 43.4531C22.179 43.6615 22.013 43.821 21.8145 43.9316C21.6159 44.0423 21.3799 44.0977 21.1064 44.0977C20.8395 44.0977 20.5986 44.0472 20.3838 43.9463C20.1689 43.8421 19.9834 43.6875 19.8271 43.4824C19.6742 43.2741 19.5553 43.0153 19.4707 42.7061C19.3893 42.3936 19.3486 42.029 19.3486 41.6123ZM20.2129 41.1191V41.6123C20.2129 41.9053 20.234 42.1608 20.2764 42.3789C20.3187 42.5938 20.3838 42.7728 20.4717 42.916C20.5628 43.056 20.6784 43.1602 20.8184 43.2285C20.9616 43.2969 21.1325 43.3311 21.3311 43.3311C21.5719 43.3311 21.7689 43.2725 21.9219 43.1553C22.0749 43.0381 22.1969 42.8835 22.2881 42.6914C22.3825 42.4961 22.4574 42.2861 22.5127 42.0615V40.6748C22.4801 40.5088 22.4329 40.3493 22.3711 40.1963C22.3125 40.04 22.236 39.9017 22.1416 39.7812C22.0472 39.6576 21.9333 39.5599 21.7998 39.4883C21.6696 39.4167 21.5166 39.3809 21.3408 39.3809C21.1423 39.3809 20.9714 39.4167 20.8281 39.4883C20.6849 39.5599 20.5677 39.6673 20.4766 39.8105C20.3854 39.9538 20.3187 40.1344 20.2764 40.3525C20.234 40.5706 20.2129 40.8262 20.2129 41.1191ZM25.3838 38.7168V44H24.5244V38.7168H25.3838ZM24.4756 37.3154C24.4756 37.1689 24.5163 37.0452 24.5977 36.9443C24.679 36.8434 24.8011 36.793 24.9639 36.793C25.1266 36.793 25.2487 36.8434 25.3301 36.9443C25.4147 37.0452 25.457 37.1689 25.457 37.3154C25.457 37.4554 25.4147 37.5758 25.3301 37.6768C25.2487 37.7744 25.1266 37.8232 24.9639 37.8232C24.8011 37.8232 24.679 37.7744 24.5977 37.6768C24.5163 37.5758 24.4756 37.4554 24.4756 37.3154ZM29.3145 42.6475C29.3145 42.514 29.2819 42.3968 29.2168 42.2959C29.1517 42.195 29.0443 42.0973 28.8945 42.0029C28.748 41.9085 28.5495 41.8076 28.2988 41.7002C28.0547 41.5993 27.835 41.5 27.6396 41.4023C27.4476 41.3014 27.2848 41.1924 27.1514 41.0752C27.0179 40.958 26.9154 40.8229 26.8438 40.6699C26.7754 40.5137 26.7412 40.3298 26.7412 40.1182C26.7412 39.9066 26.7803 39.7113 26.8584 39.5322C26.9398 39.3499 27.0537 39.1904 27.2002 39.0537C27.3467 38.917 27.5225 38.8112 27.7275 38.7363C27.9326 38.6582 28.1621 38.6191 28.416 38.6191C28.7773 38.6191 29.085 38.6891 29.3389 38.8291C29.5928 38.9691 29.7865 39.1611 29.9199 39.4053C30.0566 39.6462 30.125 39.918 30.125 40.2207H29.2656C29.2656 40.0742 29.2331 39.9359 29.168 39.8057C29.1029 39.6755 29.0068 39.5697 28.8799 39.4883C28.7529 39.4036 28.5983 39.3613 28.416 39.3613C28.224 39.3613 28.0677 39.3955 27.9473 39.4639C27.8268 39.5322 27.7389 39.6217 27.6836 39.7324C27.6315 39.8398 27.6055 39.9587 27.6055 40.0889C27.6055 40.1865 27.6185 40.2712 27.6445 40.3428C27.6738 40.4111 27.7227 40.4762 27.791 40.5381C27.8594 40.5967 27.9521 40.6585 28.0693 40.7236C28.1898 40.7855 28.3428 40.8571 28.5283 40.9385C28.8864 41.0785 29.1875 41.2201 29.4316 41.3633C29.6758 41.5065 29.8613 41.6742 29.9883 41.8662C30.1152 42.0583 30.1787 42.2959 30.1787 42.5791C30.1787 42.8102 30.1364 43.0202 30.0518 43.209C29.9704 43.3945 29.8532 43.554 29.7002 43.6875C29.5472 43.821 29.3633 43.9235 29.1484 43.9951C28.9368 44.0635 28.6992 44.0977 28.4355 44.0977C28.0384 44.0977 27.7015 44.0195 27.4248 43.8633C27.1514 43.7038 26.943 43.4971 26.7998 43.2432C26.6598 42.986 26.5898 42.7109 26.5898 42.418H27.4541C27.4639 42.6654 27.5192 42.8574 27.6201 42.9941C27.7243 43.1309 27.8496 43.2253 27.9961 43.2773C28.1426 43.3294 28.2891 43.3555 28.4355 43.3555C28.6276 43.3555 28.7887 43.3278 28.9189 43.2725C29.0492 43.2139 29.1468 43.1309 29.2119 43.0234C29.2803 42.916 29.3145 42.7907 29.3145 42.6475ZM33.2402 38.7168V39.4102H30.7744V38.7168H33.2402ZM31.5801 37.4326H32.4443V42.6914C32.4443 42.8704 32.4655 43.0055 32.5078 43.0967C32.5534 43.1878 32.6104 43.248 32.6787 43.2773C32.7471 43.3066 32.8203 43.3213 32.8984 43.3213C32.957 43.3213 33.0221 43.3148 33.0938 43.3018C33.1654 43.2855 33.2142 43.2725 33.2402 43.2627L33.2354 44C33.1768 44.0228 33.0986 44.0439 33.001 44.0635C32.9033 44.0863 32.7796 44.0977 32.6299 44.0977C32.4443 44.0977 32.2718 44.0537 32.1123 43.9658C31.9528 43.8779 31.8242 43.7314 31.7266 43.5264C31.6289 43.318 31.5801 43.0381 31.5801 42.6865V37.4326ZM36.8584 43.0967V40.2305C36.8584 40.0221 36.8258 39.8545 36.7607 39.7275C36.6989 39.6006 36.6045 39.5078 36.4775 39.4492C36.3538 39.3906 36.1976 39.3613 36.0088 39.3613C35.8265 39.3613 35.6686 39.3988 35.5352 39.4736C35.4049 39.5485 35.304 39.6478 35.2324 39.7715C35.1641 39.8952 35.1299 40.0319 35.1299 40.1816H34.2656C34.2656 39.9928 34.3063 39.8057 34.3877 39.6201C34.4723 39.4346 34.5928 39.2669 34.749 39.1172C34.9053 38.9642 35.0924 38.8437 35.3105 38.7559C35.5319 38.6647 35.7793 38.6191 36.0527 38.6191C36.3783 38.6191 36.6663 38.6729 36.917 38.7803C37.1676 38.8844 37.3646 39.0553 37.5078 39.293C37.651 39.5306 37.7227 39.8464 37.7227 40.2402V42.8477C37.7227 43.0234 37.7357 43.2106 37.7617 43.4092C37.791 43.6077 37.8317 43.7786 37.8838 43.9219V44H36.9902C36.9479 43.8958 36.9154 43.7575 36.8926 43.585C36.8698 43.4092 36.8584 43.2464 36.8584 43.0967ZM36.9951 40.7969L37.0049 41.4316H36.4043C36.1992 41.4316 36.012 41.4544 35.8428 41.5C35.6768 41.5456 35.5335 41.6123 35.4131 41.7002C35.2926 41.7848 35.1999 41.8906 35.1348 42.0176C35.0729 42.1445 35.042 42.2894 35.042 42.4521C35.042 42.6637 35.0713 42.833 35.1299 42.96C35.1885 43.0837 35.2764 43.1732 35.3936 43.2285C35.5107 43.2839 35.6589 43.3115 35.8379 43.3115C36.056 43.3115 36.248 43.2611 36.4141 43.1602C36.5801 43.0592 36.7087 42.9372 36.7998 42.7939C36.8942 42.6507 36.9382 42.5173 36.9316 42.3936L37.1221 42.7988C37.109 42.9258 37.0667 43.0641 36.9951 43.2139C36.9268 43.3604 36.8307 43.502 36.707 43.6387C36.5833 43.7721 36.4368 43.8828 36.2676 43.9707C36.1016 44.0553 35.9144 44.0977 35.7061 44.0977C35.4001 44.0977 35.1315 44.0391 34.9004 43.9219C34.6725 43.8047 34.4951 43.6322 34.3682 43.4043C34.2412 43.1764 34.1777 42.8949 34.1777 42.5596C34.1777 42.3057 34.2217 42.0713 34.3096 41.8564C34.3975 41.6416 34.5277 41.4561 34.7002 41.2998C34.8727 41.1403 35.0892 41.0166 35.3496 40.9287C35.6133 40.8408 35.9176 40.7969 36.2627 40.7969H36.9951ZM39.9297 39.5469V44H39.0654V38.7168H39.9004L39.9297 39.5469ZM41.2432 38.6875L41.248 39.5273C41.1764 39.5111 41.1113 39.5013 41.0527 39.498C40.9974 39.4915 40.9323 39.4883 40.8574 39.4883C40.6947 39.4883 40.5514 39.5208 40.4277 39.5859C40.3073 39.651 40.2031 39.7422 40.1152 39.8594C40.0273 39.9766 39.9574 40.1165 39.9053 40.2793C39.8532 40.4388 39.8174 40.6146 39.7979 40.8066L39.5732 40.9531C39.5732 40.6341 39.5977 40.3346 39.6465 40.0547C39.6986 39.7747 39.7783 39.5273 39.8857 39.3125C39.9932 39.0944 40.1299 38.9251 40.2959 38.8047C40.4652 38.681 40.667 38.6191 40.9014 38.6191C40.9535 38.6191 41.0169 38.6273 41.0918 38.6436C41.1699 38.6566 41.2204 38.6712 41.2432 38.6875ZM44.6758 42.6475C44.6758 42.514 44.6432 42.3968 44.5781 42.2959C44.513 42.195 44.4056 42.0973 44.2559 42.0029C44.1094 41.9085 43.9108 41.8076 43.6602 41.7002C43.416 41.5993 43.1963 41.5 43.001 41.4023C42.8089 41.3014 42.6462 41.1924 42.5127 41.0752C42.3792 40.958 42.2767 40.8229 42.2051 40.6699C42.1367 40.5137 42.1025 40.3298 42.1025 40.1182C42.1025 39.9066 42.1416 39.7113 42.2197 39.5322C42.3011 39.3499 42.415 39.1904 42.5615 39.0537C42.708 38.917 42.8838 38.8112 43.0889 38.7363C43.2939 38.6582 43.5234 38.6191 43.7773 38.6191C44.1387 38.6191 44.4463 38.6891 44.7002 38.8291C44.9541 38.9691 45.1478 39.1611 45.2812 39.4053C45.418 39.6462 45.4863 39.918 45.4863 40.2207H44.627C44.627 40.0742 44.5944 39.9359 44.5293 39.8057C44.4642 39.6755 44.3682 39.5697 44.2412 39.4883C44.1143 39.4036 43.9596 39.3613 43.7773 39.3613C43.5853 39.3613 43.429 39.3955 43.3086 39.4639C43.1882 39.5322 43.1003 39.6217 43.0449 39.7324C42.9928 39.8398 42.9668 39.9587 42.9668 40.0889C42.9668 40.1865 42.9798 40.2712 43.0059 40.3428C43.0352 40.4111 43.084 40.4762 43.1523 40.5381C43.2207 40.5967 43.3135 40.6585 43.4307 40.7236C43.5511 40.7855 43.7041 40.8571 43.8896 40.9385C44.2477 41.0785 44.5488 41.2201 44.793 41.3633C45.0371 41.5065 45.2227 41.6742 45.3496 41.8662C45.4766 42.0583 45.54 42.2959 45.54 42.5791C45.54 42.8102 45.4977 43.0202 45.4131 43.209C45.3317 43.3945 45.2145 43.554 45.0615 43.6875C44.9085 43.821 44.7246 43.9235 44.5098 43.9951C44.2982 44.0635 44.0605 44.0977 43.7969 44.0977C43.3997 44.0977 43.0628 44.0195 42.7861 43.8633C42.5127 43.7038 42.3044 43.4971 42.1611 43.2432C42.0212 42.986 41.9512 42.7109 41.9512 42.418H42.8154C42.8252 42.6654 42.8805 42.8574 42.9814 42.9941C43.0856 43.1309 43.2109 43.2253 43.3574 43.2773C43.5039 43.3294 43.6504 43.3555 43.7969 43.3555C43.9889 43.3555 44.1501 43.3278 44.2803 43.2725C44.4105 43.2139 44.5081 43.1309 44.5732 43.0234C44.6416 42.916 44.6758 42.7907 44.6758 42.6475ZM47.542 36.5V44H46.6777V36.5H47.542ZM50.2227 38.7168L48.3428 41.1826L47.1807 42.5205L47.1221 41.5586L47.9229 40.4551L49.1826 38.7168H50.2227ZM49.4316 44L47.9473 41.4805L48.3916 40.6748L50.4375 44H49.4316ZM52.9766 44.0977C52.6608 44.0977 52.376 44.0505 52.1221 43.9561C51.8682 43.8617 51.6517 43.7184 51.4727 43.5264C51.2936 43.3311 51.1569 43.0853 51.0625 42.7891C50.9681 42.4928 50.9209 42.1429 50.9209 41.7393V41.1436C50.9209 40.6781 50.9746 40.2842 51.082 39.9619C51.1927 39.6396 51.3408 39.3809 51.5264 39.1855C51.7119 38.987 51.9219 38.8437 52.1562 38.7559C52.3906 38.6647 52.6315 38.6191 52.8789 38.6191C53.2109 38.6191 53.4941 38.6729 53.7285 38.7803C53.9629 38.8877 54.1533 39.0472 54.2998 39.2588C54.4463 39.4704 54.5537 39.7308 54.6221 40.04C54.6937 40.3493 54.7295 40.7057 54.7295 41.1094V41.6123H51.4287V40.875H53.8652V40.7529C53.8522 40.4795 53.8148 40.2386 53.7529 40.0303C53.6943 39.8219 53.5967 39.6592 53.46 39.542C53.3232 39.4215 53.1296 39.3613 52.8789 39.3613C52.7194 39.3613 52.5713 39.389 52.4346 39.4443C52.3011 39.4964 52.1855 39.5892 52.0879 39.7227C51.9935 39.8529 51.9186 40.0335 51.8633 40.2646C51.8112 40.4958 51.7852 40.7887 51.7852 41.1436V41.7393C51.7852 42.0225 51.8112 42.2666 51.8633 42.4717C51.9186 42.6735 51.9984 42.8411 52.1025 42.9746C52.21 43.1048 52.3402 43.2025 52.4932 43.2676C52.6494 43.3294 52.8268 43.3604 53.0254 43.3604C53.3151 43.3604 53.5544 43.305 53.7432 43.1943C53.932 43.0804 54.0964 42.9355 54.2363 42.7598L54.6904 43.3018C54.596 43.4352 54.4723 43.5638 54.3193 43.6875C54.1696 43.8079 53.984 43.9072 53.7627 43.9854C53.5446 44.0602 53.2826 44.0977 52.9766 44.0977ZM21.2871 49.7168V50.4102H18.8213V49.7168H21.2871ZM19.627 48.4326H20.4912V53.6914C20.4912 53.8704 20.5124 54.0055 20.5547 54.0967C20.6003 54.1878 20.6572 54.248 20.7256 54.2773C20.7939 54.3066 20.8672 54.3213 20.9453 54.3213C21.0039 54.3213 21.069 54.3148 21.1406 54.3018C21.2122 54.2855 21.2611 54.2725 21.2871 54.2627L21.2822 55C21.2236 55.0228 21.1455 55.0439 21.0479 55.0635C20.9502 55.0863 20.8265 55.0977 20.6768 55.0977C20.4912 55.0977 20.3187 55.0537 20.1592 54.9658C19.9997 54.8779 19.8711 54.7314 19.7734 54.5264C19.6758 54.318 19.627 54.0381 19.627 53.6865V48.4326ZM24.9053 54.0967V51.2305C24.9053 51.0221 24.8727 50.8545 24.8076 50.7275C24.7458 50.6006 24.6514 50.5078 24.5244 50.4492C24.4007 50.3906 24.2445 50.3613 24.0557 50.3613C23.8734 50.3613 23.7155 50.3988 23.582 50.4736C23.4518 50.5485 23.3509 50.6478 23.2793 50.7715C23.2109 50.8952 23.1768 51.0319 23.1768 51.1816H22.3125C22.3125 50.9928 22.3532 50.8057 22.4346 50.6201C22.5192 50.4346 22.6396 50.2669 22.7959 50.1172C22.9521 49.9642 23.1393 49.8438 23.3574 49.7559C23.5788 49.6647 23.8262 49.6191 24.0996 49.6191C24.4251 49.6191 24.7132 49.6729 24.9639 49.7803C25.2145 49.8844 25.4115 50.0553 25.5547 50.293C25.6979 50.5306 25.7695 50.8464 25.7695 51.2402V53.8477C25.7695 54.0234 25.7826 54.2106 25.8086 54.4092C25.8379 54.6077 25.8786 54.7786 25.9307 54.9219V55H25.0371C24.9948 54.8958 24.9622 54.7575 24.9395 54.585C24.9167 54.4092 24.9053 54.2464 24.9053 54.0967ZM25.042 51.7969L25.0518 52.4316H24.4512C24.2461 52.4316 24.0589 52.4544 23.8896 52.5C23.7236 52.5456 23.5804 52.6123 23.46 52.7002C23.3395 52.7848 23.2467 52.8906 23.1816 53.0176C23.1198 53.1445 23.0889 53.2894 23.0889 53.4521C23.0889 53.6637 23.1182 53.833 23.1768 53.96C23.2354 54.0837 23.3232 54.1732 23.4404 54.2285C23.5576 54.2839 23.7057 54.3115 23.8848 54.3115C24.1029 54.3115 24.2949 54.2611 24.4609 54.1602C24.627 54.0592 24.7555 53.9372 24.8467 53.7939C24.9411 53.6507 24.985 53.5173 24.9785 53.3936L25.1689 53.7988C25.1559 53.9258 25.1136 54.0641 25.042 54.2139C24.9736 54.3604 24.8776 54.502 24.7539 54.6387C24.6302 54.7721 24.4837 54.8828 24.3145 54.9707C24.1484 55.0553 23.9613 55.0977 23.7529 55.0977C23.4469 55.0977 23.1784 55.0391 22.9473 54.9219C22.7194 54.8047 22.542 54.6322 22.415 54.4043C22.2881 54.1764 22.2246 53.8949 22.2246 53.5596C22.2246 53.3057 22.2686 53.0713 22.3564 52.8564C22.4443 52.6416 22.5745 52.4561 22.7471 52.2998C22.9196 52.1403 23.1361 52.0166 23.3965 51.9287C23.6602 51.8408 23.9645 51.7969 24.3096 51.7969H25.042ZM27.1123 47.5L27.9766 47.5V53.9746L27.9033 55H27.1123V47.5ZM30.9404 52.1191V52.6123C30.9404 53.029 30.9014 53.3936 30.8232 53.7061C30.7484 54.0153 30.6361 54.2741 30.4863 54.4824C30.3366 54.6875 30.1543 54.8421 29.9395 54.9463C29.7246 55.0472 29.4788 55.0977 29.2021 55.0977C28.9287 55.0977 28.6927 55.0423 28.4941 54.9316C28.2956 54.821 28.1296 54.6615 27.9961 54.4531C27.8626 54.2448 27.7568 53.9925 27.6787 53.6963C27.6038 53.4001 27.5518 53.0664 27.5225 52.6953V52.0361C27.5518 51.6618 27.6038 51.3265 27.6787 51.0303C27.7536 50.7308 27.8577 50.4769 27.9912 50.2686C28.1247 50.057 28.2907 49.8958 28.4893 49.7852C28.6878 49.6745 28.9238 49.6191 29.1973 49.6191C29.4772 49.6191 29.7246 49.668 29.9395 49.7656C30.1576 49.8633 30.3398 50.0146 30.4863 50.2197C30.6361 50.4215 30.7484 50.6803 30.8232 50.9961C30.9014 51.3086 30.9404 51.6829 30.9404 52.1191ZM30.0762 52.6123V52.1191C30.0762 51.8262 30.0566 51.5706 30.0176 51.3525C29.9818 51.1344 29.9215 50.9538 29.8369 50.8105C29.7523 50.6673 29.6383 50.5599 29.4951 50.4883C29.3551 50.4167 29.181 50.3809 28.9727 50.3809C28.7969 50.3809 28.6423 50.4167 28.5088 50.4883C28.3786 50.5599 28.2663 50.6576 28.1719 50.7812C28.0775 50.9017 27.9993 51.04 27.9375 51.1963C27.8757 51.3493 27.8301 51.5088 27.8008 51.6748V53.0615C27.8431 53.2731 27.9098 53.4766 28.001 53.6719C28.0954 53.8639 28.2223 54.0218 28.3818 54.1455C28.5413 54.2692 28.7399 54.3311 28.9775 54.3311C29.1761 54.3311 29.3438 54.2969 29.4805 54.2285C29.6204 54.1602 29.7344 54.056 29.8223 53.916C29.9102 53.7728 29.9736 53.5938 30.0127 53.3789C30.055 53.1608 30.0762 52.9053 30.0762 52.6123ZM32.9717 47.5V55H32.1123V47.5H32.9717ZM35.2666 49.7168V55H34.4072V49.7168H35.2666ZM34.3584 48.3154C34.3584 48.1689 34.3991 48.0452 34.4805 47.9443C34.5618 47.8434 34.6839 47.793 34.8467 47.793C35.0094 47.793 35.1315 47.8434 35.2129 47.9443C35.2975 48.0452 35.3398 48.1689 35.3398 48.3154C35.3398 48.4554 35.2975 48.5758 35.2129 48.6768C35.1315 48.7744 35.0094 48.8232 34.8467 48.8232C34.6839 48.8232 34.5618 48.7744 34.4805 48.6768C34.3991 48.5758 34.3584 48.4554 34.3584 48.3154ZM38.4648 54.3604C38.6374 54.3604 38.7936 54.3262 38.9336 54.2578C39.0768 54.1862 39.194 54.0755 39.2852 53.9258C39.3763 53.7728 39.4284 53.5742 39.4414 53.3301H40.252C40.2389 53.6816 40.1494 53.9909 39.9834 54.2578C39.8206 54.5215 39.6058 54.7282 39.3389 54.8779C39.0752 55.0244 38.7839 55.0977 38.4648 55.0977C38.123 55.0977 37.8252 55.0423 37.5713 54.9316C37.3206 54.821 37.1123 54.6615 36.9463 54.4531C36.7835 54.2415 36.6615 53.986 36.5801 53.6865C36.4987 53.3838 36.458 53.0404 36.458 52.6562V52.0605C36.458 51.6764 36.4987 51.3346 36.5801 51.0352C36.6615 50.7324 36.7835 50.4769 36.9463 50.2686C37.1123 50.057 37.3206 49.8958 37.5713 49.7852C37.8252 49.6745 38.123 49.6191 38.4648 49.6191C38.8229 49.6191 39.1322 49.6956 39.3926 49.8486C39.6562 49.9984 39.8613 50.2165 40.0078 50.5029C40.1576 50.7861 40.2389 51.1296 40.252 51.5332H39.4414C39.4284 51.2728 39.3812 51.0563 39.2998 50.8838C39.2184 50.708 39.1077 50.5778 38.9678 50.4932C38.8278 50.4053 38.6602 50.3613 38.4648 50.3613C38.237 50.3613 38.0482 50.402 37.8984 50.4834C37.752 50.5615 37.6364 50.6755 37.5518 50.8252C37.4671 50.9749 37.4069 51.154 37.3711 51.3623C37.3385 51.5706 37.3223 51.8034 37.3223 52.0605V52.6562C37.3223 52.9134 37.3385 53.1478 37.3711 53.3594C37.4069 53.5677 37.4655 53.7467 37.5469 53.8965C37.6315 54.0462 37.7487 54.1618 37.8984 54.2432C38.0482 54.3213 38.237 54.3604 38.4648 54.3604ZM43.1426 55.0977C42.8268 55.0977 42.542 55.0505 42.2881 54.9561C42.0342 54.8617 41.8177 54.7184 41.6387 54.5264C41.4596 54.3311 41.3229 54.0853 41.2285 53.7891C41.1341 53.4928 41.0869 53.1429 41.0869 52.7393V52.1436C41.0869 51.6781 41.1406 51.2842 41.248 50.9619C41.3587 50.6396 41.5068 50.3809 41.6924 50.1855C41.8779 49.987 42.0879 49.8437 42.3223 49.7559C42.5566 49.6647 42.7975 49.6191 43.0449 49.6191C43.377 49.6191 43.6602 49.6729 43.8945 49.7803C44.1289 49.8877 44.3193 50.0472 44.4658 50.2588C44.6123 50.4704 44.7197 50.7308 44.7881 51.04C44.8597 51.3493 44.8955 51.7057 44.8955 52.1094V52.6123H41.5947V51.875H44.0312V51.7529C44.0182 51.4795 43.9808 51.2386 43.9189 51.0303C43.8604 50.8219 43.7627 50.6592 43.626 50.542C43.4893 50.4215 43.2956 50.3613 43.0449 50.3613C42.8854 50.3613 42.7373 50.389 42.6006 50.4443C42.4671 50.4964 42.3516 50.5892 42.2539 50.7227C42.1595 50.8529 42.0846 51.0335 42.0293 51.2646C41.9772 51.4958 41.9512 51.7887 41.9512 52.1436V52.7393C41.9512 53.0225 41.9772 53.2666 42.0293 53.4717C42.0846 53.6735 42.1644 53.8411 42.2686 53.9746C42.376 54.1048 42.5062 54.2025 42.6592 54.2676C42.8154 54.3294 42.9928 54.3604 43.1914 54.3604C43.4811 54.3604 43.7204 54.305 43.9092 54.1943C44.098 54.0804 44.2624 53.9355 44.4023 53.7598L44.8564 54.3018C44.762 54.4352 44.6383 54.5638 44.4854 54.6875C44.3356 54.8079 44.1501 54.9072 43.9287 54.9854C43.7106 55.0602 43.4486 55.0977 43.1426 55.0977Z" fill="url(#paint0_linear_363_3168)"/>
<path d="M113.583 40.8906V48H112.68L109.833 42.5166V48H108.935V40.8906H109.833L112.694 46.3887V40.8906H113.583ZM117.606 47.0967V44.2305C117.606 44.0221 117.574 43.8545 117.509 43.7275C117.447 43.6006 117.353 43.5078 117.226 43.4492C117.102 43.3906 116.946 43.3613 116.757 43.3613C116.575 43.3613 116.417 43.3988 116.283 43.4736C116.153 43.5485 116.052 43.6478 115.98 43.7715C115.912 43.8952 115.878 44.0319 115.878 44.1816H115.014C115.014 43.9928 115.054 43.8057 115.136 43.6201C115.22 43.4346 115.341 43.2669 115.497 43.1172C115.653 42.9642 115.84 42.8438 116.059 42.7559C116.28 42.6647 116.527 42.6191 116.801 42.6191C117.126 42.6191 117.414 42.6729 117.665 42.7803C117.916 42.8844 118.113 43.0553 118.256 43.293C118.399 43.5306 118.471 43.8464 118.471 44.2402V46.8477C118.471 47.0234 118.484 47.2106 118.51 47.4092C118.539 47.6077 118.58 47.7786 118.632 47.9219V48H117.738C117.696 47.8958 117.663 47.7575 117.641 47.585C117.618 47.4092 117.606 47.2464 117.606 47.0967ZM117.743 44.7969L117.753 45.4316H117.152C116.947 45.4316 116.76 45.4544 116.591 45.5C116.425 45.5456 116.282 45.6123 116.161 45.7002C116.041 45.7848 115.948 45.8906 115.883 46.0176C115.821 46.1445 115.79 46.2894 115.79 46.4521C115.79 46.6637 115.819 46.833 115.878 46.96C115.937 47.0837 116.024 47.1732 116.142 47.2285C116.259 47.2839 116.407 47.3115 116.586 47.3115C116.804 47.3115 116.996 47.2611 117.162 47.1602C117.328 47.0592 117.457 46.9372 117.548 46.7939C117.642 46.6507 117.686 46.5173 117.68 46.3936L117.87 46.7988C117.857 46.9258 117.815 47.0641 117.743 47.2139C117.675 47.3604 117.579 47.502 117.455 47.6387C117.331 47.7721 117.185 47.8828 117.016 47.9707C116.85 48.0553 116.662 48.0977 116.454 48.0977C116.148 48.0977 115.88 48.0391 115.648 47.9219C115.421 47.8047 115.243 47.6322 115.116 47.4043C114.989 47.1764 114.926 46.8949 114.926 46.5596C114.926 46.3057 114.97 46.0713 115.058 45.8564C115.146 45.6416 115.276 45.4561 115.448 45.2998C115.621 45.1403 115.837 45.0166 116.098 44.9287C116.361 44.8408 116.666 44.7969 117.011 44.7969H117.743ZM120.678 43.7324V50.0312H119.813V42.7168H120.6L120.678 43.7324ZM123.632 45.1191V45.6123C123.632 46.029 123.593 46.3936 123.515 46.7061C123.44 47.0153 123.327 47.2741 123.178 47.4824C123.031 47.6875 122.851 47.8421 122.636 47.9463C122.421 48.0472 122.175 48.0977 121.898 48.0977C121.622 48.0977 121.381 48.0456 121.176 47.9414C120.974 47.834 120.803 47.6794 120.663 47.4775C120.526 47.2757 120.417 47.0332 120.336 46.75C120.258 46.4635 120.204 46.1429 120.175 45.7881V45.0361C120.204 44.6618 120.258 44.3265 120.336 44.0303C120.414 43.7308 120.521 43.4769 120.658 43.2686C120.798 43.057 120.969 42.8958 121.171 42.7852C121.376 42.6745 121.615 42.6191 121.889 42.6191C122.172 42.6191 122.421 42.668 122.636 42.7656C122.854 42.8633 123.036 43.0146 123.183 43.2197C123.332 43.4215 123.445 43.6803 123.52 43.9961C123.594 44.3086 123.632 44.6829 123.632 45.1191ZM122.768 45.6123V45.1191C122.768 44.8262 122.745 44.5706 122.699 44.3525C122.657 44.1344 122.589 43.9538 122.494 43.8105C122.4 43.6673 122.281 43.5599 122.138 43.4883C121.994 43.4167 121.822 43.3809 121.62 43.3809C121.448 43.3809 121.295 43.4167 121.161 43.4883C121.031 43.5599 120.919 43.6576 120.824 43.7812C120.73 43.9017 120.652 44.04 120.59 44.1963C120.528 44.3493 120.482 44.5088 120.453 44.6748V46.1543C120.508 46.3626 120.582 46.5596 120.673 46.7451C120.764 46.9274 120.886 47.0755 121.039 47.1895C121.195 47.3034 121.392 47.3604 121.63 47.3604C121.828 47.3604 121.999 47.3245 122.143 47.2529C122.286 47.1813 122.403 47.0739 122.494 46.9307C122.589 46.7842 122.657 46.6019 122.699 46.3838C122.745 46.1624 122.768 45.9053 122.768 45.6123ZM125.673 40.5V48H124.813V40.5H125.673ZM129.628 47.0967V44.2305C129.628 44.0221 129.595 43.8545 129.53 43.7275C129.468 43.6006 129.374 43.5078 129.247 43.4492C129.123 43.3906 128.967 43.3613 128.778 43.3613C128.596 43.3613 128.438 43.3988 128.305 43.4736C128.174 43.5485 128.074 43.6478 128.002 43.7715C127.934 43.8952 127.899 44.0319 127.899 44.1816H127.035C127.035 43.9928 127.076 43.8057 127.157 43.6201C127.242 43.4346 127.362 43.2669 127.519 43.1172C127.675 42.9642 127.862 42.8438 128.08 42.7559C128.301 42.6647 128.549 42.6191 128.822 42.6191C129.148 42.6191 129.436 42.6729 129.687 42.7803C129.937 42.8844 130.134 43.0553 130.277 43.293C130.421 43.5306 130.492 43.8464 130.492 44.2402V46.8477C130.492 47.0234 130.505 47.2106 130.531 47.4092C130.561 47.6077 130.601 47.7786 130.653 47.9219V48H129.76C129.717 47.8958 129.685 47.7575 129.662 47.585C129.639 47.4092 129.628 47.2464 129.628 47.0967ZM129.765 44.7969L129.774 45.4316H129.174C128.969 45.4316 128.782 45.4544 128.612 45.5C128.446 45.5456 128.303 45.6123 128.183 45.7002C128.062 45.7848 127.969 45.8906 127.904 46.0176C127.842 46.1445 127.812 46.2894 127.812 46.4521C127.812 46.6637 127.841 46.833 127.899 46.96C127.958 47.0837 128.046 47.1732 128.163 47.2285C128.28 47.2839 128.428 47.3115 128.607 47.3115C128.826 47.3115 129.018 47.2611 129.184 47.1602C129.35 47.0592 129.478 46.9372 129.569 46.7939C129.664 46.6507 129.708 46.5173 129.701 46.3936L129.892 46.7988C129.879 46.9258 129.836 47.0641 129.765 47.2139C129.696 47.3604 129.6 47.502 129.477 47.6387C129.353 47.7721 129.206 47.8828 129.037 47.9707C128.871 48.0553 128.684 48.0977 128.476 48.0977C128.17 48.0977 127.901 48.0391 127.67 47.9219C127.442 47.8047 127.265 47.6322 127.138 47.4043C127.011 47.1764 126.947 46.8949 126.947 46.5596C126.947 46.3057 126.991 46.0713 127.079 45.8564C127.167 45.6416 127.297 45.4561 127.47 45.2998C127.642 45.1403 127.859 45.0166 128.119 44.9287C128.383 44.8408 128.687 44.7969 129.032 44.7969H129.765ZM133.764 42.7168V43.4102H131.298V42.7168L133.764 42.7168ZM132.104 41.4326L132.968 41.4326V46.6914C132.968 46.8704 132.989 47.0055 133.031 47.0967C133.077 47.1878 133.134 47.248 133.202 47.2773C133.271 47.3066 133.344 47.3213 133.422 47.3213C133.48 47.3213 133.546 47.3148 133.617 47.3018C133.689 47.2855 133.738 47.2725 133.764 47.2627L133.759 48C133.7 48.0228 133.622 48.0439 133.524 48.0635C133.427 48.0863 133.303 48.0977 133.153 48.0977C132.968 48.0977 132.795 48.0537 132.636 47.9658C132.476 47.8779 132.348 47.7314 132.25 47.5264C132.152 47.318 132.104 47.0381 132.104 46.6865V41.4326ZM136.684 48.0977C136.368 48.0977 136.083 48.0505 135.829 47.9561C135.575 47.8617 135.359 47.7184 135.18 47.5264C135.001 47.3311 134.864 47.0853 134.77 46.7891C134.675 46.4928 134.628 46.1429 134.628 45.7393V45.1436C134.628 44.6781 134.682 44.2842 134.789 43.9619C134.9 43.6396 135.048 43.3809 135.233 43.1855C135.419 42.987 135.629 42.8437 135.863 42.7559C136.098 42.6647 136.339 42.6191 136.586 42.6191C136.918 42.6191 137.201 42.6729 137.436 42.7803C137.67 42.8877 137.86 43.0472 138.007 43.2588C138.153 43.4704 138.261 43.7308 138.329 44.04C138.401 44.3493 138.437 44.7057 138.437 45.1094V45.6123L135.136 45.6123V44.875L137.572 44.875V44.7529C137.559 44.4795 137.522 44.2386 137.46 44.0303C137.401 43.8219 137.304 43.6592 137.167 43.542C137.03 43.4215 136.837 43.3613 136.586 43.3613C136.426 43.3613 136.278 43.389 136.142 43.4443C136.008 43.4964 135.893 43.5892 135.795 43.7227C135.701 43.8529 135.626 44.0335 135.57 44.2646C135.518 44.4958 135.492 44.7887 135.492 45.1436V45.7393C135.492 46.0225 135.518 46.2666 135.57 46.4717C135.626 46.6735 135.705 46.8411 135.81 46.9746C135.917 47.1048 136.047 47.2025 136.2 47.2676C136.356 47.3294 136.534 47.3604 136.732 47.3604C137.022 47.3604 137.261 47.305 137.45 47.1943C137.639 47.0804 137.803 46.9355 137.943 46.7598L138.397 47.3018C138.303 47.4352 138.179 47.5638 138.026 47.6875C137.877 47.8079 137.691 47.9072 137.47 47.9854C137.252 48.0602 136.99 48.0977 136.684 48.0977Z" fill="url(#paint1_linear_363_3168)"/>
<path d="M192.133 42.9209L193.842 36.8906H194.818L192.611 44H191.923L192.133 42.9209ZM190.6 36.8906L192.294 42.9209L192.519 44H191.83L189.623 36.8906H190.6ZM197.343 44.0977C197.027 44.0977 196.742 44.0505 196.488 43.9561C196.234 43.8617 196.018 43.7184 195.839 43.5264C195.66 43.3311 195.523 43.0853 195.429 42.7891C195.334 42.4928 195.287 42.1429 195.287 41.7393V41.1436C195.287 40.6781 195.341 40.2842 195.448 39.9619C195.559 39.6396 195.707 39.3809 195.893 39.1855C196.078 38.987 196.288 38.8438 196.522 38.7559C196.757 38.6647 196.998 38.6191 197.245 38.6191C197.577 38.6191 197.86 38.6729 198.095 38.7803C198.329 38.8877 198.52 39.0472 198.666 39.2588C198.812 39.4704 198.92 39.7308 198.988 40.04C199.06 40.3493 199.096 40.7057 199.096 41.1094V41.6123H195.795V40.875H198.231V40.7529C198.218 40.4795 198.181 40.2386 198.119 40.0303C198.061 39.8219 197.963 39.6592 197.826 39.542C197.689 39.4215 197.496 39.3613 197.245 39.3613C197.086 39.3613 196.938 39.389 196.801 39.4443C196.667 39.4964 196.552 39.5892 196.454 39.7227C196.36 39.8529 196.285 40.0335 196.229 40.2646C196.177 40.4958 196.151 40.7887 196.151 41.1436V41.7393C196.151 42.0225 196.177 42.2666 196.229 42.4717C196.285 42.6735 196.365 42.8411 196.469 42.9746C196.576 43.1048 196.706 43.2025 196.859 43.2676C197.016 43.3294 197.193 43.3604 197.392 43.3604C197.681 43.3604 197.921 43.305 198.109 43.1943C198.298 43.0804 198.463 42.9355 198.603 42.7598L199.057 43.3018C198.962 43.4352 198.839 43.5638 198.686 43.6875C198.536 43.8079 198.35 43.9072 198.129 43.9854C197.911 44.0602 197.649 44.0977 197.343 44.0977ZM201.005 39.5469V44H200.141V38.7168H200.976L201.005 39.5469ZM202.318 38.6875L202.323 39.5273C202.252 39.5111 202.187 39.5013 202.128 39.498C202.073 39.4915 202.007 39.4883 201.933 39.4883C201.77 39.4883 201.627 39.5208 201.503 39.5859C201.382 39.651 201.278 39.7422 201.19 39.8594C201.103 39.9766 201.033 40.1165 200.98 40.2793C200.928 40.4388 200.893 40.6146 200.873 40.8066L200.648 40.9531C200.648 40.6341 200.673 40.3346 200.722 40.0547C200.774 39.7747 200.854 39.5273 200.961 39.3125C201.068 39.0944 201.205 38.9251 201.371 38.8047C201.54 38.681 201.742 38.6191 201.977 38.6191C202.029 38.6191 202.092 38.6273 202.167 38.6436C202.245 38.6566 202.296 38.6712 202.318 38.6875ZM204.115 38.7168V44H203.256V38.7168H204.115ZM203.207 37.3154C203.207 37.1689 203.248 37.0452 203.329 36.9443C203.41 36.8434 203.533 36.793 203.695 36.793C203.858 36.793 203.98 36.8434 204.062 36.9443C204.146 37.0452 204.188 37.1689 204.188 37.3154C204.188 37.4554 204.146 37.5758 204.062 37.6768C203.98 37.7744 203.858 37.8232 203.695 37.8232C203.533 37.8232 203.41 37.7744 203.329 37.6768C203.248 37.5758 203.207 37.4554 203.207 37.3154ZM206.586 44H205.722V38.2578C205.722 37.8574 205.788 37.5189 205.922 37.2422C206.059 36.9655 206.252 36.7555 206.503 36.6123C206.757 36.4691 207.056 36.3975 207.401 36.3975C207.606 36.3975 207.803 36.4268 207.992 36.4854C208.181 36.5407 208.376 36.6107 208.578 36.6953L208.432 37.457C208.314 37.3984 208.171 37.3431 208.002 37.291C207.833 37.2357 207.655 37.208 207.47 37.208C207.144 37.208 206.915 37.2959 206.781 37.4717C206.651 37.6442 206.586 37.9062 206.586 38.2578V44ZM207.44 38.7168V39.4102H205.033V38.7168H207.44ZM208.993 38.7168V44H208.129V38.7168H208.993ZM211.254 36.5V44H210.39V36.5L211.254 36.5ZM213.935 38.7168L212.055 41.1826L210.893 42.5205L210.834 41.5586L211.635 40.4551L212.895 38.7168H213.935ZM213.144 44L211.659 41.4805L212.104 40.6748L214.149 44H213.144ZM217.484 43.0967V40.2305C217.484 40.0221 217.452 39.8545 217.387 39.7275C217.325 39.6006 217.23 39.5078 217.104 39.4492C216.98 39.3906 216.824 39.3613 216.635 39.3613C216.452 39.3613 216.295 39.3988 216.161 39.4736C216.031 39.5485 215.93 39.6478 215.858 39.7715C215.79 39.8952 215.756 40.0319 215.756 40.1816H214.892C214.892 39.9928 214.932 39.8057 215.014 39.6201C215.098 39.4346 215.219 39.2669 215.375 39.1172C215.531 38.9642 215.718 38.8437 215.937 38.7559C216.158 38.6647 216.405 38.6191 216.679 38.6191C217.004 38.6191 217.292 38.6729 217.543 38.7803C217.794 38.8844 217.991 39.0553 218.134 39.293C218.277 39.5306 218.349 39.8464 218.349 40.2402V42.8477C218.349 43.0234 218.362 43.2106 218.388 43.4092C218.417 43.6077 218.458 43.7786 218.51 43.9219V44H217.616C217.574 43.8958 217.541 43.7575 217.519 43.585C217.496 43.4092 217.484 43.2464 217.484 43.0967ZM217.621 40.7969L217.631 41.4316H217.03C216.825 41.4316 216.638 41.4544 216.469 41.5C216.303 41.5456 216.16 41.6123 216.039 41.7002C215.919 41.7848 215.826 41.8906 215.761 42.0176C215.699 42.1445 215.668 42.2894 215.668 42.4521C215.668 42.6637 215.697 42.833 215.756 42.96C215.814 43.0837 215.902 43.1732 216.02 43.2285C216.137 43.2839 216.285 43.3115 216.464 43.3115C216.682 43.3115 216.874 43.2611 217.04 43.1602C217.206 43.0592 217.335 42.9372 217.426 42.7939C217.52 42.6507 217.564 42.5173 217.558 42.3936L217.748 42.7988C217.735 42.9258 217.693 43.0641 217.621 43.2139C217.553 43.3604 217.457 43.502 217.333 43.6387C217.209 43.7721 217.063 43.8828 216.894 43.9707C216.728 44.0553 216.54 44.0977 216.332 44.0977C216.026 44.0977 215.757 44.0391 215.526 43.9219C215.299 43.8047 215.121 43.6322 214.994 43.4043C214.867 43.1764 214.804 42.8949 214.804 42.5596C214.804 42.3057 214.848 42.0713 214.936 41.8564C215.023 41.6416 215.154 41.4561 215.326 41.2998C215.499 41.1403 215.715 41.0166 215.976 40.9287C216.239 40.8408 216.544 40.7969 216.889 40.7969H217.621ZM221.522 43.3604C221.695 43.3604 221.851 43.3262 221.991 43.2578C222.134 43.1862 222.252 43.0755 222.343 42.9258C222.434 42.7728 222.486 42.5742 222.499 42.3301H223.31C223.297 42.6816 223.207 42.9909 223.041 43.2578C222.878 43.5215 222.663 43.7282 222.396 43.8779C222.133 44.0244 221.841 44.0977 221.522 44.0977C221.181 44.0977 220.883 44.0423 220.629 43.9316C220.378 43.821 220.17 43.6615 220.004 43.4531C219.841 43.2415 219.719 42.986 219.638 42.6865C219.556 42.3838 219.516 42.0404 219.516 41.6562V41.0605C219.516 40.6764 219.556 40.3346 219.638 40.0352C219.719 39.7324 219.841 39.4769 220.004 39.2686C220.17 39.057 220.378 38.8958 220.629 38.7852C220.883 38.6745 221.181 38.6191 221.522 38.6191C221.881 38.6191 222.19 38.6956 222.45 38.8486C222.714 38.9984 222.919 39.2165 223.065 39.5029C223.215 39.7861 223.297 40.1296 223.31 40.5332H222.499C222.486 40.2728 222.439 40.0563 222.357 39.8838C222.276 39.708 222.165 39.5778 222.025 39.4932C221.885 39.4053 221.718 39.3613 221.522 39.3613C221.295 39.3613 221.106 39.402 220.956 39.4834C220.81 39.5615 220.694 39.6755 220.609 39.8252C220.525 39.9749 220.465 40.154 220.429 40.3623C220.396 40.5706 220.38 40.8034 220.38 41.0605V41.6562C220.38 41.9134 220.396 42.1478 220.429 42.3594C220.465 42.5677 220.523 42.7467 220.604 42.8965C220.689 43.0462 220.806 43.1618 220.956 43.2432C221.106 43.3213 221.295 43.3604 221.522 43.3604ZM225.238 38.7168V44H224.379V38.7168H225.238ZM224.33 37.3154C224.33 37.1689 224.371 37.0452 224.452 36.9443C224.534 36.8434 224.656 36.793 224.818 36.793C224.981 36.793 225.103 36.8434 225.185 36.9443C225.269 37.0452 225.312 37.1689 225.312 37.3154C225.312 37.4554 225.269 37.5758 225.185 37.6768C225.103 37.7744 224.981 37.8232 224.818 37.8232C224.656 37.8232 224.534 37.7744 224.452 37.6768C224.371 37.5758 224.33 37.4554 224.33 37.3154ZM226.625 38.7168H227.484V44.6299C227.484 44.9521 227.442 45.2256 227.357 45.4502C227.276 45.6748 227.149 45.8441 226.977 45.958C226.807 46.0752 226.591 46.1338 226.327 46.1338C226.256 46.1338 226.173 46.1257 226.078 46.1094C225.987 46.0931 225.909 46.0736 225.844 46.0508V45.3232C225.899 45.3363 225.959 45.346 226.024 45.3525C226.09 45.3623 226.143 45.3672 226.186 45.3672C226.28 45.3672 226.36 45.3428 226.425 45.2939C226.49 45.2451 226.539 45.167 226.571 45.0596C226.607 44.9521 226.625 44.8089 226.625 44.6299V38.7168ZM226.547 37.3154C226.547 37.1689 226.588 37.0452 226.669 36.9443C226.754 36.8434 226.876 36.793 227.035 36.793C227.198 36.793 227.32 36.8434 227.401 36.9443C227.486 37.0452 227.528 37.1689 227.528 37.3154C227.528 37.4554 227.486 37.5758 227.401 37.6768C227.32 37.7744 227.198 37.8232 227.035 37.8232C226.876 37.8232 226.754 37.7744 226.669 37.6768C226.588 37.5758 226.547 37.4554 226.547 37.3154ZM231.439 43.0967V40.2305C231.439 40.0221 231.407 39.8545 231.342 39.7275C231.28 39.6006 231.186 39.5078 231.059 39.4492C230.935 39.3906 230.779 39.3613 230.59 39.3613C230.408 39.3613 230.25 39.3988 230.116 39.4736C229.986 39.5485 229.885 39.6478 229.813 39.7715C229.745 39.8952 229.711 40.0319 229.711 40.1816H228.847C228.847 39.9928 228.887 39.8057 228.969 39.6201C229.053 39.4346 229.174 39.2669 229.33 39.1172C229.486 38.9642 229.674 38.8437 229.892 38.7559C230.113 38.6647 230.36 38.6191 230.634 38.6191C230.959 38.6191 231.247 38.6729 231.498 38.7803C231.749 38.8844 231.946 39.0553 232.089 39.293C232.232 39.5306 232.304 39.8464 232.304 40.2402V42.8477C232.304 43.0234 232.317 43.2106 232.343 43.4092C232.372 43.6077 232.413 43.7786 232.465 43.9219V44H231.571C231.529 43.8958 231.496 43.7575 231.474 43.585C231.451 43.4092 231.439 43.2464 231.439 43.0967ZM231.576 40.7969L231.586 41.4316H230.985C230.78 41.4316 230.593 41.4544 230.424 41.5C230.258 41.5456 230.115 41.6123 229.994 41.7002C229.874 41.7848 229.781 41.8906 229.716 42.0176C229.654 42.1445 229.623 42.2894 229.623 42.4521C229.623 42.6637 229.652 42.833 229.711 42.96C229.77 43.0837 229.857 43.1732 229.975 43.2285C230.092 43.2839 230.24 43.3115 230.419 43.3115C230.637 43.3115 230.829 43.2611 230.995 43.1602C231.161 43.0592 231.29 42.9372 231.381 42.7939C231.475 42.6507 231.519 42.5173 231.513 42.3936L231.703 42.7988C231.69 42.9258 231.648 43.0641 231.576 43.2139C231.508 43.3604 231.412 43.502 231.288 43.6387C231.164 43.7721 231.018 43.8828 230.849 43.9707C230.683 44.0553 230.495 44.0977 230.287 44.0977C229.981 44.0977 229.713 44.0391 229.481 43.9219C229.254 43.8047 229.076 43.6322 228.949 43.4043C228.822 43.1764 228.759 42.8949 228.759 42.5596C228.759 42.3057 228.803 42.0713 228.891 41.8564C228.979 41.6416 229.109 41.4561 229.281 41.2998C229.454 41.1403 229.67 41.0166 229.931 40.9287C230.194 40.8408 230.499 40.7969 230.844 40.7969H231.576ZM236.869 38.7168V44H236.01V38.7168H236.869ZM235.961 37.3154C235.961 37.1689 236.002 37.0452 236.083 36.9443C236.164 36.8434 236.286 36.793 236.449 36.793C236.612 36.793 236.734 36.8434 236.815 36.9443C236.9 37.0452 236.942 37.1689 236.942 37.3154C236.942 37.4554 236.9 37.5758 236.815 37.6768C236.734 37.7744 236.612 37.8232 236.449 37.8232C236.286 37.8232 236.164 37.7744 236.083 37.6768C236.002 37.5758 235.961 37.4554 235.961 37.3154ZM198.407 50.7324V57.0312H197.543V49.7168H198.329L198.407 50.7324ZM201.361 52.1191V52.6123C201.361 53.029 201.322 53.3936 201.244 53.7061C201.169 54.0153 201.057 54.2741 200.907 54.4824C200.761 54.6875 200.58 54.8421 200.365 54.9463C200.15 55.0472 199.905 55.0977 199.628 55.0977C199.351 55.0977 199.11 55.0456 198.905 54.9414C198.703 54.834 198.533 54.6794 198.393 54.4775C198.256 54.2757 198.147 54.0332 198.065 53.75C197.987 53.4635 197.934 53.1429 197.904 52.7881V52.0361C197.934 51.6618 197.987 51.3265 198.065 51.0303C198.144 50.7308 198.251 50.4769 198.388 50.2686C198.528 50.057 198.699 49.8958 198.9 49.7852C199.105 49.6745 199.345 49.6191 199.618 49.6191C199.901 49.6191 200.15 49.668 200.365 49.7656C200.583 49.8633 200.766 50.0146 200.912 50.2197C201.062 50.4215 201.174 50.6803 201.249 50.9961C201.324 51.3086 201.361 51.6829 201.361 52.1191ZM200.497 52.6123V52.1191C200.497 51.8262 200.474 51.5706 200.429 51.3525C200.386 51.1344 200.318 50.9538 200.224 50.8105C200.129 50.6673 200.01 50.5599 199.867 50.4883C199.724 50.4167 199.551 50.3809 199.35 50.3809C199.177 50.3809 199.024 50.4167 198.891 50.4883C198.76 50.5599 198.648 50.6576 198.554 50.7812C198.459 50.9017 198.381 51.04 198.319 51.1963C198.257 51.3493 198.212 51.5088 198.183 51.6748V53.1543C198.238 53.3626 198.311 53.5596 198.402 53.7451C198.493 53.9274 198.616 54.0755 198.769 54.1895C198.925 54.3034 199.122 54.3604 199.359 54.3604C199.558 54.3604 199.729 54.3245 199.872 54.2529C200.015 54.1813 200.132 54.0739 200.224 53.9307C200.318 53.7842 200.386 53.6019 200.429 53.3838C200.474 53.1624 200.497 52.9053 200.497 52.6123ZM203.402 47.5V55H202.543V47.5H203.402ZM207.357 54.0967V51.2305C207.357 51.0221 207.325 50.8545 207.26 50.7275C207.198 50.6006 207.104 50.5078 206.977 50.4492C206.853 50.3906 206.697 50.3613 206.508 50.3613C206.326 50.3613 206.168 50.3988 206.034 50.4736C205.904 50.5485 205.803 50.6478 205.731 50.7715C205.663 50.8952 205.629 51.0319 205.629 51.1816H204.765C204.765 50.9928 204.805 50.8057 204.887 50.6201C204.971 50.4346 205.092 50.2669 205.248 50.1172C205.404 49.9642 205.591 49.8438 205.81 49.7559C206.031 49.6647 206.278 49.6191 206.552 49.6191C206.877 49.6191 207.165 49.6729 207.416 49.7803C207.667 49.8844 207.864 50.0553 208.007 50.293C208.15 50.5306 208.222 50.8464 208.222 51.2402V53.8477C208.222 54.0234 208.235 54.2106 208.261 54.4092C208.29 54.6077 208.331 54.7786 208.383 54.9219V55H207.489C207.447 54.8958 207.414 54.7575 207.392 54.585C207.369 54.4092 207.357 54.2464 207.357 54.0967ZM207.494 51.7969L207.504 52.4316H206.903C206.698 52.4316 206.511 52.4544 206.342 52.5C206.176 52.5456 206.033 52.6123 205.912 52.7002C205.792 52.7848 205.699 52.8906 205.634 53.0176C205.572 53.1445 205.541 53.2894 205.541 53.4521C205.541 53.6637 205.57 53.833 205.629 53.96C205.688 54.0837 205.775 54.1732 205.893 54.2285C206.01 54.2839 206.158 54.3115 206.337 54.3115C206.555 54.3115 206.747 54.2611 206.913 54.1602C207.079 54.0592 207.208 53.9372 207.299 53.7939C207.393 53.6507 207.437 53.5173 207.431 53.3936L207.621 53.7988C207.608 53.9258 207.566 54.0641 207.494 54.2139C207.426 54.3604 207.33 54.502 207.206 54.6387C207.082 54.7721 206.936 54.8828 206.767 54.9707C206.601 55.0553 206.413 55.0977 206.205 55.0977C205.899 55.0977 205.631 55.0391 205.399 54.9219C205.172 54.8047 204.994 54.6322 204.867 54.4043C204.74 54.1764 204.677 53.8949 204.677 53.5596C204.677 53.3057 204.721 53.0713 204.809 52.8564C204.896 52.6416 205.027 52.4561 205.199 52.2998C205.372 52.1403 205.588 52.0166 205.849 51.9287C206.112 51.8408 206.417 51.7969 206.762 51.7969H207.494ZM211.396 54.3604C211.568 54.3604 211.724 54.3262 211.864 54.2578C212.007 54.1862 212.125 54.0755 212.216 53.9258C212.307 53.7728 212.359 53.5742 212.372 53.3301H213.183C213.17 53.6816 213.08 53.9909 212.914 54.2578C212.751 54.5215 212.536 54.7282 212.27 54.8779C212.006 55.0244 211.715 55.0977 211.396 55.0977C211.054 55.0977 210.756 55.0423 210.502 54.9316C210.251 54.821 210.043 54.6615 209.877 54.4531C209.714 54.2415 209.592 53.986 209.511 53.6865C209.429 53.3838 209.389 53.0404 209.389 52.6562V52.0605C209.389 51.6764 209.429 51.3346 209.511 51.0352C209.592 50.7324 209.714 50.4769 209.877 50.2686C210.043 50.057 210.251 49.8958 210.502 49.7852C210.756 49.6745 211.054 49.6191 211.396 49.6191C211.754 49.6191 212.063 49.6956 212.323 49.8486C212.587 49.9984 212.792 50.2165 212.938 50.5029C213.088 50.7861 213.17 51.1296 213.183 51.5332H212.372C212.359 51.2728 212.312 51.0563 212.23 50.8838C212.149 50.708 212.038 50.5778 211.898 50.4932C211.758 50.4053 211.591 50.3613 211.396 50.3613C211.168 50.3613 210.979 50.402 210.829 50.4834C210.683 50.5615 210.567 50.6755 210.482 50.8252C210.398 50.9749 210.338 51.154 210.302 51.3623C210.269 51.5706 210.253 51.8034 210.253 52.0605V52.6562C210.253 52.9134 210.269 53.1478 210.302 53.3594C210.338 53.5677 210.396 53.7467 210.478 53.8965C210.562 54.0462 210.679 54.1618 210.829 54.2432C210.979 54.3213 211.168 54.3604 211.396 54.3604ZM210.688 48.9355L211.635 47.5H212.724L211.415 48.9355H210.688ZM216.771 54.0967V51.2305C216.771 51.0221 216.739 50.8545 216.674 50.7275C216.612 50.6006 216.518 50.5078 216.391 50.4492C216.267 50.3906 216.111 50.3613 215.922 50.3613C215.74 50.3613 215.582 50.3988 215.448 50.4736C215.318 50.5485 215.217 50.6478 215.146 50.7715C215.077 50.8952 215.043 51.0319 215.043 51.1816H214.179C214.179 50.9928 214.219 50.8057 214.301 50.6201C214.385 50.4346 214.506 50.2669 214.662 50.1172C214.818 49.9642 215.006 49.8438 215.224 49.7559C215.445 49.6647 215.692 49.6191 215.966 49.6191C216.291 49.6191 216.579 49.6729 216.83 49.7803C217.081 49.8844 217.278 50.0553 217.421 50.293C217.564 50.5306 217.636 50.8464 217.636 51.2402V53.8477C217.636 54.0234 217.649 54.2106 217.675 54.4092C217.704 54.6077 217.745 54.7786 217.797 54.9219V55H216.903C216.861 54.8958 216.828 54.7575 216.806 54.585C216.783 54.4092 216.771 54.2464 216.771 54.0967ZM216.908 51.7969L216.918 52.4316H216.317C216.112 52.4316 215.925 52.4544 215.756 52.5C215.59 52.5456 215.447 52.6123 215.326 52.7002C215.206 52.7848 215.113 52.8906 215.048 53.0176C214.986 53.1445 214.955 53.2894 214.955 53.4521C214.955 53.6637 214.984 53.833 215.043 53.96C215.102 54.0837 215.189 54.1732 215.307 54.2285C215.424 54.2839 215.572 54.3115 215.751 54.3115C215.969 54.3115 216.161 54.2611 216.327 54.1602C216.493 54.0592 216.622 53.9372 216.713 53.7939C216.807 53.6507 216.851 53.5173 216.845 53.3936L217.035 53.7988C217.022 53.9258 216.98 54.0641 216.908 54.2139C216.84 54.3604 216.744 54.502 216.62 54.6387C216.496 54.7721 216.35 54.8828 216.181 54.9707C216.015 55.0553 215.827 55.0977 215.619 55.0977C215.313 55.0977 215.045 55.0391 214.813 54.9219C214.586 54.8047 214.408 54.6322 214.281 54.4043C214.154 54.1764 214.091 53.8949 214.091 53.5596C214.091 53.3057 214.135 53.0713 214.223 52.8564C214.311 52.6416 214.441 52.4561 214.613 52.2998C214.786 52.1403 215.002 52.0166 215.263 51.9287C215.526 51.8408 215.831 51.7969 216.176 51.7969H216.908ZM219.843 50.8447V55H218.979V49.7168H219.794L219.843 50.8447ZM219.633 52.1582L219.281 52.1436C219.278 51.7822 219.319 51.4486 219.403 51.1426C219.491 50.8333 219.615 50.5648 219.774 50.3369C219.937 50.109 220.131 49.9333 220.355 49.8096C220.58 49.6826 220.829 49.6191 221.103 49.6191C221.317 49.6191 221.513 49.6549 221.688 49.7266C221.864 49.7949 222.014 49.9056 222.138 50.0586C222.261 50.2116 222.356 50.4102 222.421 50.6543C222.489 50.8952 222.523 51.1898 222.523 51.5381V55H221.659V51.5283C221.659 51.2516 221.628 51.0303 221.566 50.8643C221.508 50.695 221.417 50.5729 221.293 50.498C221.173 50.4199 221.02 50.3809 220.834 50.3809C220.665 50.3809 220.507 50.4281 220.36 50.5225C220.214 50.6169 220.085 50.7471 219.975 50.9131C219.867 51.0791 219.783 51.2695 219.721 51.4844C219.662 51.696 219.633 51.9206 219.633 52.1582ZM223.842 49.7168H224.701V55.6299C224.701 55.9521 224.659 56.2256 224.574 56.4502C224.493 56.6748 224.366 56.8441 224.193 56.958C224.024 57.0752 223.808 57.1338 223.544 57.1338C223.472 57.1338 223.389 57.1257 223.295 57.1094C223.204 57.0931 223.126 57.0736 223.061 57.0508V56.3232C223.116 56.3363 223.176 56.346 223.241 56.3525C223.306 56.3623 223.36 56.3672 223.402 56.3672C223.497 56.3672 223.576 56.3428 223.642 56.2939C223.707 56.2451 223.756 56.167 223.788 56.0596C223.824 55.9521 223.842 55.8089 223.842 55.6299V49.7168ZM223.764 48.3154C223.764 48.1689 223.804 48.0452 223.886 47.9443C223.97 47.8434 224.092 47.793 224.252 47.793C224.415 47.793 224.537 47.8434 224.618 47.9443C224.703 48.0452 224.745 48.1689 224.745 48.3154C224.745 48.4554 224.703 48.5758 224.618 48.6768C224.537 48.7744 224.415 48.8232 224.252 48.8232C224.092 48.8232 223.97 48.7744 223.886 48.6768C223.804 48.5758 223.764 48.4554 223.764 48.3154ZM227.958 55.0977C227.642 55.0977 227.357 55.0505 227.104 54.9561C226.85 54.8617 226.633 54.7184 226.454 54.5264C226.275 54.3311 226.138 54.0853 226.044 53.7891C225.95 53.4928 225.902 53.1429 225.902 52.7393V52.1436C225.902 51.6781 225.956 51.2842 226.063 50.9619C226.174 50.6396 226.322 50.3809 226.508 50.1855C226.693 49.987 226.903 49.8437 227.138 49.7559C227.372 49.6647 227.613 49.6191 227.86 49.6191C228.192 49.6191 228.476 49.6729 228.71 49.7803C228.944 49.8877 229.135 50.0472 229.281 50.2588C229.428 50.4704 229.535 50.7308 229.604 51.04C229.675 51.3493 229.711 51.7057 229.711 52.1094V52.6123H226.41V51.875H228.847V51.7529C228.834 51.4795 228.796 51.2386 228.734 51.0303C228.676 50.8219 228.578 50.6592 228.441 50.542C228.305 50.4215 228.111 50.3613 227.86 50.3613C227.701 50.3613 227.553 50.389 227.416 50.4443C227.283 50.4964 227.167 50.5892 227.069 50.7227C226.975 50.8529 226.9 51.0335 226.845 51.2646C226.793 51.4958 226.767 51.7887 226.767 52.1436V52.7393C226.767 53.0225 226.793 53.2666 226.845 53.4717C226.9 53.6735 226.98 53.8411 227.084 53.9746C227.191 54.1048 227.322 54.2025 227.475 54.2676C227.631 54.3294 227.808 54.3604 228.007 54.3604C228.297 54.3604 228.536 54.305 228.725 54.1943C228.913 54.0804 229.078 53.9355 229.218 53.7598L229.672 54.3018C229.577 54.4352 229.454 54.5638 229.301 54.6875C229.151 54.8079 228.965 54.9072 228.744 54.9854C228.526 55.0602 228.264 55.0977 227.958 55.0977Z" fill="#E0E0E9"/>
<path fill-rule="evenodd" clip-rule="evenodd" d="M203 16L136 16V14L203 14V16Z" fill="#D0CFD7"/>
<path fill-rule="evenodd" clip-rule="evenodd" d="M110 16L43 16V14L110 14V16Z" fill="url(#paint2_linear_363_3168)"/>
<path fill-rule="evenodd" clip-rule="evenodd" d="M17.7612 6.17317C17 8.01088 17 10.3406 17 15C17 19.6594 17 21.9891 17.7612 23.8268C18.7761 26.2771 20.7229 28.2239 23.1732 29.2388C25.0109 30 27.3406 30 32 30C36.6594 30 38.9891 30 40.8268 29.2388C43.2771 28.2239 45.2239 26.2771 46.2388 23.8268C47 21.9891 47 19.6594 47 15C47 10.3406 47 8.01088 46.2388 6.17317C45.2239 3.72288 43.2771 1.77614 40.8268 0.761205C38.9891 0 36.6594 0 32 0C27.3406 0 25.0109 0 23.1732 0.761205C20.7229 1.77614 18.7761 3.72288 17.7612 6.17317ZM38.7071 11.7071C39.0976 11.3166 39.0976 10.6834 38.7071 10.2929C38.3166 9.90237 37.6834 9.90237 37.2929 10.2929L30 17.5858L26.7071 14.2929C26.3166 13.9024 25.6834 13.9024 25.2929 14.2929C24.9024 14.6834 24.9024 15.3166 25.2929 15.7071L29.2929 19.7071C29.4804 19.8946 29.7348 20 30 20C30.2652 20 30.5196 19.8946 30.7071 19.7071L38.7071 11.7071Z" fill="url(#paint3_linear_363_3168)"/>
<path fill-rule="evenodd" clip-rule="evenodd" d="M108.761 6.17317C108 8.01088 108 10.3406 108 15C108 19.6594 108 21.9891 108.761 23.8268C109.776 26.2771 111.723 28.2239 114.173 29.2388C116.011 30 118.341 30 123 30C127.659 30 129.989 30 131.827 29.2388C134.277 28.2239 136.224 26.2771 137.239 23.8268C138 21.9891 138 19.6594 138 15C138 10.3406 138 8.01088 137.239 6.17317C136.224 3.72288 134.277 1.77614 131.827 0.761205C129.989 0 127.659 0 123 0C118.341 0 116.011 0 114.173 0.761205C111.723 1.77614 109.776 3.72288 108.761 6.17317ZM129.707 11.7071C130.098 11.3166 130.098 10.6834 129.707 10.2929C129.317 9.90237 128.683 9.90237 128.293 10.2929L121 17.5858L117.707 14.2929C117.317 13.9024 116.683 13.9024 116.293 14.2929C115.902 14.6834 115.902 15.3166 116.293 15.7071L120.293 19.7071C120.48 19.8946 120.735 20 121 20C121.265 20 121.52 19.8946 121.707 19.7071L129.707 11.7071Z" fill="url(#paint4_linear_363_3168)"/>
<path fill-rule="evenodd" clip-rule="evenodd" d="M199.761 6.17317C199 8.01088 199 10.3406 199 15C199 19.6594 199 21.9891 199.761 23.8268C200.776 26.2771 202.723 28.2239 205.173 29.2388C207.011 30 209.341 30 214 30C218.659 30 220.989 30 222.827 29.2388C225.277 28.2239 227.224 26.2771 228.239 23.8268C229 21.9891 229 19.6594 229 15C229 10.3406 229 8.01088 228.239 6.17317C227.224 3.72288 225.277 1.77614 222.827 0.761205C220.989 0 218.659 0 214 0C209.341 0 207.011 0 205.173 0.761205C202.723 1.77614 200.776 3.72288 199.761 6.17317ZM220.707 11.7071C221.098 11.3166 221.098 10.6834 220.707 10.2929C220.317 9.90237 219.683 9.90237 219.293 10.2929L212 17.5858L208.707 14.2929C208.317 13.9024 207.683 13.9024 207.293 14.2929C206.902 14.6834 206.902 15.3166 207.293 15.7071L211.293 19.7071C211.48 19.8946 211.735 20 212 20C212.265 20 212.52 19.8946 212.707 19.7071L220.707 11.7071Z" fill="#D0CFD7"/>
<defs>
<linearGradient id="paint0_linear_363_3168" x1="32" y1="57" x2="32" y2="35" gradientUnits="userSpaceOnUse">
<stop stop-color="#5CCC94"/>
<stop offset="1" stop-color="#8CCAAE"/>
</linearGradient>
<linearGradient id="paint1_linear_363_3168" x1="123.5" y1="55" x2="123.5" y2="35" gradientUnits="userSpaceOnUse">
<stop stop-color="#5CCC94"/>
<stop offset="1" stop-color="#8CCAAE"/>
</linearGradient>
<linearGradient id="paint2_linear_363_3168" x1="76.5" y1="16" x2="76.5" y2="14" gradientUnits="userSpaceOnUse">
<stop stop-color="#5CCC94"/>
<stop offset="1" stop-color="#8CCAAE"/>
</linearGradient>
<linearGradient id="paint3_linear_363_3168" x1="32" y1="30" x2="32" y2="1.58545e-07" gradientUnits="userSpaceOnUse">
<stop stop-color="#5CCC94"/>
<stop offset="1" stop-color="#8CCAAE"/>
</linearGradient>
<linearGradient id="paint4_linear_363_3168" x1="123" y1="30" x2="123" y2="1.58545e-07" gradientUnits="userSpaceOnUse">
<stop stop-color="#5CCC94"/>
<stop offset="1" stop-color="#8CCAAE"/>
</linearGradient>
</defs>
</svg>
