<svg width="240" height="69" viewBox="0 0 240 69" fill="none" xmlns="http://www.w3.org/2000/svg">
<path d="M23.9717 39.9473V40.7139H20.8906V39.9473H23.9717ZM21.0127 36.8906V44H20.1143V36.8906H21.0127ZM24.7676 36.8906V44H23.8691V36.8906H24.7676ZM26.0176 41.6123V41.1094C26.0176 40.6992 26.0697 40.3395 26.1738 40.0303C26.278 39.7178 26.4229 39.4574 26.6084 39.249C26.7939 39.0407 27.0104 38.8844 27.2578 38.7803C27.5052 38.6729 27.7705 38.6191 28.0537 38.6191C28.3434 38.6191 28.612 38.6729 28.8594 38.7803C29.1068 38.8844 29.3232 39.0407 29.5088 39.249C29.6976 39.4574 29.8441 39.7178 29.9482 40.0303C30.0524 40.3395 30.1045 40.6992 30.1045 41.1094V41.6123C30.1045 42.0225 30.0524 42.3838 29.9482 42.6963C29.8441 43.0055 29.6992 43.2643 29.5137 43.4727C29.3281 43.681 29.1117 43.8372 28.8643 43.9414C28.6169 44.0456 28.3499 44.0977 28.0635 44.0977C27.777 44.0977 27.5101 44.0456 27.2627 43.9414C27.0153 43.8372 26.7972 43.681 26.6084 43.4727C26.4229 43.2643 26.278 43.0055 26.1738 42.6963C26.0697 42.3838 26.0176 42.0225 26.0176 41.6123ZM26.8818 41.1094V41.6123C26.8818 41.902 26.9111 42.1559 26.9697 42.374C27.0283 42.5921 27.1113 42.7744 27.2188 42.9209C27.3262 43.0674 27.4515 43.1781 27.5947 43.2529C27.738 43.3245 27.8942 43.3604 28.0635 43.3604C28.2588 43.3604 28.4297 43.3245 28.5762 43.2529C28.7259 43.1781 28.8496 43.0674 28.9473 42.9209C29.0449 42.7744 29.1182 42.5921 29.167 42.374C29.2158 42.1559 29.2402 41.902 29.2402 41.6123V41.1094C29.2402 40.8197 29.2109 40.5674 29.1523 40.3525C29.0938 40.1344 29.0107 39.9521 28.9033 39.8057C28.7959 39.6559 28.6689 39.5452 28.5225 39.4736C28.3792 39.3988 28.223 39.3613 28.0537 39.3613C27.8877 39.3613 27.7331 39.3988 27.5898 39.4736C27.4466 39.5452 27.3213 39.6559 27.2139 39.8057C27.1097 39.9521 27.0283 40.1344 26.9697 40.3525C26.9111 40.5674 26.8818 40.8197 26.8818 41.1094ZM33.8105 42.7988L35.2217 38.7168H36.042L34.1084 44H33.5127L31.584 38.7168H32.4043L33.8105 42.7988ZM32.1553 38.7168V44H31.2959V38.7168H32.1553ZM35.4365 44V38.7168H36.3008V44H35.4365ZM39.5723 44.0977C39.2565 44.0977 38.9717 44.0505 38.7178 43.9561C38.4639 43.8617 38.2474 43.7184 38.0684 43.5264C37.8893 43.3311 37.7526 43.0853 37.6582 42.7891C37.5638 42.4928 37.5166 42.1429 37.5166 41.7393V41.1436C37.5166 40.6781 37.5703 40.2842 37.6777 39.9619C37.7884 39.6396 37.9365 39.3809 38.1221 39.1855C38.3076 38.987 38.5176 38.8437 38.752 38.7559C38.9863 38.6647 39.2272 38.6191 39.4746 38.6191C39.8066 38.6191 40.0898 38.6729 40.3242 38.7803C40.5586 38.8877 40.749 39.0472 40.8955 39.2588C41.042 39.4704 41.1494 39.7308 41.2178 40.04C41.2894 40.3493 41.3252 40.7057 41.3252 41.1094V41.6123H38.0244V40.875H40.4609V40.7529C40.4479 40.4795 40.4105 40.2386 40.3486 40.0303C40.29 39.8219 40.1924 39.6592 40.0557 39.542C39.9189 39.4215 39.7253 39.3613 39.4746 39.3613C39.3151 39.3613 39.167 39.389 39.0303 39.4443C38.8968 39.4964 38.7812 39.5892 38.6836 39.7227C38.5892 39.8529 38.5143 40.0335 38.459 40.2646C38.4069 40.4958 38.3809 40.7887 38.3809 41.1436V41.7393C38.3809 42.0225 38.4069 42.2666 38.459 42.4717C38.5143 42.6735 38.5941 42.8411 38.6982 42.9746C38.8057 43.1048 38.9359 43.2025 39.0889 43.2676C39.2451 43.3294 39.4225 43.3604 39.6211 43.3604C39.9108 43.3604 40.1501 43.305 40.3389 43.1943C40.5277 43.0804 40.6921 42.9355 40.832 42.7598L41.2861 43.3018C41.1917 43.4352 41.068 43.5638 40.915 43.6875C40.7653 43.8079 40.5798 43.9072 40.3584 43.9854C40.1403 44.0602 39.8783 44.0977 39.5723 44.0977ZM43.2344 39.7324V46.0312H42.3701V38.7168H43.1562L43.2344 39.7324ZM46.1885 41.1191V41.6123C46.1885 42.029 46.1494 42.3936 46.0713 42.7061C45.9964 43.0153 45.8841 43.2741 45.7344 43.4824C45.5879 43.6875 45.4072 43.8421 45.1924 43.9463C44.9775 44.0472 44.7318 44.0977 44.4551 44.0977C44.1784 44.0977 43.9375 44.0456 43.7324 43.9414C43.5306 43.834 43.3597 43.6794 43.2197 43.4775C43.083 43.2757 42.974 43.0332 42.8926 42.75C42.8145 42.4635 42.7607 42.1429 42.7314 41.7881V41.0361C42.7607 40.6618 42.8145 40.3265 42.8926 40.0303C42.9707 39.7308 43.0781 39.4769 43.2148 39.2686C43.3548 39.057 43.5257 38.8958 43.7275 38.7852C43.9326 38.6745 44.1719 38.6191 44.4453 38.6191C44.7285 38.6191 44.9775 38.668 45.1924 38.7656C45.4105 38.8633 45.5928 39.0146 45.7393 39.2197C45.889 39.4215 46.0013 39.6803 46.0762 39.9961C46.151 40.3086 46.1885 40.6829 46.1885 41.1191ZM45.3242 41.6123V41.1191C45.3242 40.8262 45.3014 40.5706 45.2559 40.3525C45.2135 40.1344 45.1452 39.9538 45.0508 39.8105C44.9564 39.6673 44.8376 39.5599 44.6943 39.4883C44.5511 39.4167 44.3786 39.3809 44.1768 39.3809C44.0042 39.3809 43.8512 39.4167 43.7178 39.4883C43.5876 39.5599 43.4753 39.6576 43.3809 39.7812C43.2865 39.9017 43.2083 40.04 43.1465 40.1963C43.0846 40.3493 43.0391 40.5088 43.0098 40.6748V42.1543C43.0651 42.3626 43.1383 42.5596 43.2295 42.7451C43.3206 42.9274 43.4427 43.0755 43.5957 43.1895C43.752 43.3034 43.9489 43.3604 44.1865 43.3604C44.3851 43.3604 44.556 43.3245 44.6992 43.2529C44.8424 43.1813 44.9596 43.0739 45.0508 42.9307C45.1452 42.7842 45.2135 42.6019 45.2559 42.3838C45.3014 42.1624 45.3242 41.9053 45.3242 41.6123ZM4.87012 49.7168L4.87012 55H4.00586L4.00586 49.7168H4.87012ZM6.31055 49.7168V50.4492H2.58496L2.58496 49.7168H6.31055ZM8.09277 50.7324L8.09277 57.0312H7.22852L7.22852 49.7168H8.01465L8.09277 50.7324ZM11.0469 52.1191V52.6123C11.0469 53.029 11.0078 53.3936 10.9297 53.7061C10.8548 54.0153 10.7425 54.2741 10.5928 54.4824C10.4463 54.6875 10.2656 54.8421 10.0508 54.9463C9.83594 55.0472 9.59017 55.0977 9.31348 55.0977C9.03678 55.0977 8.7959 55.0456 8.59082 54.9414C8.389 54.834 8.2181 54.6794 8.07813 54.4775C7.94141 54.2757 7.83236 54.0332 7.75098 53.75C7.67285 53.4635 7.61914 53.1429 7.58984 52.7881V52.0361C7.61914 51.6618 7.67285 51.3265 7.75098 51.0303C7.8291 50.7308 7.93652 50.4769 8.07324 50.2686C8.21322 50.057 8.38411 49.8958 8.58594 49.7852C8.79102 49.6745 9.03027 49.6191 9.30371 49.6191C9.58691 49.6191 9.83594 49.668 10.0508 49.7656C10.2689 49.8633 10.4512 50.0146 10.5977 50.2197C10.7474 50.4215 10.8597 50.6803 10.9346 50.9961C11.0094 51.3086 11.0469 51.6829 11.0469 52.1191ZM10.1826 52.6123V52.1191C10.1826 51.8262 10.1598 51.5706 10.1143 51.3525C10.0719 51.1344 10.0036 50.9538 9.90918 50.8105C9.81478 50.6673 9.69596 50.5599 9.55273 50.4883C9.40951 50.4167 9.23698 50.3809 9.03516 50.3809C8.86263 50.3809 8.70964 50.4167 8.57617 50.4883C8.44596 50.5599 8.33366 50.6576 8.23926 50.7812C8.14486 50.9017 8.06673 51.04 8.00488 51.1963C7.94303 51.3493 7.89746 51.5088 7.86816 51.6748V53.1543C7.9235 53.3626 7.99674 53.5596 8.08789 53.7451C8.17904 53.9274 8.30111 54.0755 8.4541 54.1895C8.61035 54.3034 8.80729 54.3604 9.04492 54.3604C9.24349 54.3604 9.41439 54.3245 9.55762 54.2529C9.70085 54.1813 9.81803 54.0739 9.90918 53.9307C10.0036 53.7842 10.0719 53.6019 10.1143 53.3838C10.1598 53.1624 10.1826 52.9053 10.1826 52.6123ZM14.748 54.0967L14.748 51.2305C14.748 51.0221 14.7155 50.8545 14.6504 50.7275C14.5885 50.6006 14.4941 50.5078 14.3672 50.4492C14.2435 50.3906 14.0872 50.3613 13.8984 50.3613C13.7161 50.3613 13.5583 50.3988 13.4248 50.4736C13.2946 50.5485 13.1937 50.6478 13.1221 50.7715C13.0537 50.8952 13.0195 51.0319 13.0195 51.1816H12.1553C12.1553 50.9928 12.196 50.8057 12.2773 50.6201C12.362 50.4346 12.4824 50.2669 12.6387 50.1172C12.7949 49.9642 12.9821 49.8438 13.2002 49.7559C13.4215 49.6647 13.6689 49.6191 13.9424 49.6191C14.2679 49.6191 14.556 49.6729 14.8066 49.7803C15.0573 49.8844 15.2542 50.0553 15.3975 50.293C15.5407 50.5306 15.6123 50.8464 15.6123 51.2402L15.6123 53.8477C15.6123 54.0234 15.6253 54.2106 15.6514 54.4092C15.6807 54.6077 15.7214 54.7786 15.7734 54.9219V55H14.8799C14.8376 54.8958 14.805 54.7575 14.7822 54.585C14.7594 54.4092 14.748 54.2464 14.748 54.0967ZM14.8848 51.7969L14.8945 52.4316H14.2939C14.0889 52.4316 13.9017 52.4544 13.7324 52.5C13.5664 52.5456 13.4232 52.6123 13.3027 52.7002C13.1823 52.7848 13.0895 52.8906 13.0244 53.0176C12.9626 53.1445 12.9316 53.2894 12.9316 53.4521C12.9316 53.6637 12.9609 53.833 13.0195 53.96C13.0781 54.0837 13.166 54.1732 13.2832 54.2285C13.4004 54.2839 13.5485 54.3115 13.7275 54.3115C13.9456 54.3115 14.1377 54.2611 14.3037 54.1602C14.4697 54.0592 14.5983 53.9372 14.6895 53.7939C14.7839 53.6507 14.8278 53.5173 14.8213 53.3936L15.0117 53.7988C14.9987 53.9258 14.9564 54.0641 14.8848 54.2139C14.8164 54.3604 14.7204 54.502 14.5967 54.6387C14.473 54.7721 14.3265 54.8828 14.1572 54.9707C13.9912 55.0553 13.804 55.0977 13.5957 55.0977C13.2897 55.0977 13.0212 55.0391 12.79 54.9219C12.5622 54.8047 12.3848 54.6322 12.2578 54.4043C12.1309 54.1764 12.0674 53.8949 12.0674 53.5596C12.0674 53.3057 12.1113 53.0713 12.1992 52.8564C12.2871 52.6416 12.4173 52.4561 12.5898 52.2998C12.7624 52.1403 12.9788 52.0166 13.2393 51.9287C13.5029 51.8408 13.8073 51.7969 14.1523 51.7969H14.8848ZM19.9629 52.0068V52.7393H17.7217V52.0068H19.9629ZM17.8975 49.7168V55H17.0332V49.7168H17.8975ZM20.666 49.7168V55H19.8018V49.7168H20.666ZM23.874 54.3604C24.0465 54.3604 24.2028 54.3262 24.3428 54.2578C24.486 54.1862 24.6032 54.0755 24.6943 53.9258C24.7855 53.7728 24.8376 53.5742 24.8506 53.3301H25.6611C25.6481 53.6816 25.5586 53.9909 25.3926 54.2578C25.2298 54.5215 25.015 54.7282 24.748 54.8779C24.4844 55.0244 24.193 55.0977 23.874 55.0977C23.5322 55.0977 23.2344 55.0423 22.9805 54.9316C22.7298 54.821 22.5215 54.6615 22.3555 54.4531C22.1927 54.2415 22.0706 53.986 21.9893 53.6865C21.9079 53.3838 21.8672 53.0404 21.8672 52.6562V52.0605C21.8672 51.6764 21.9079 51.3346 21.9893 51.0352C22.0706 50.7324 22.1927 50.4769 22.3555 50.2686C22.5215 50.057 22.7298 49.8958 22.9805 49.7852C23.2344 49.6745 23.5322 49.6191 23.874 49.6191C24.2321 49.6191 24.5413 49.6956 24.8018 49.8486C25.0654 49.9984 25.2705 50.2165 25.417 50.5029C25.5667 50.7861 25.6481 51.1296 25.6611 51.5332H24.8506C24.8376 51.2728 24.7904 51.0563 24.709 50.8838C24.6276 50.708 24.5169 50.5778 24.377 50.4932C24.237 50.4053 24.0693 50.3613 23.874 50.3613C23.6462 50.3613 23.4574 50.402 23.3076 50.4834C23.1611 50.5615 23.0456 50.6755 22.9609 50.8252C22.8763 50.9749 22.8161 51.154 22.7803 51.3623C22.7477 51.5706 22.7314 51.8034 22.7314 52.0605V52.6562C22.7314 52.9134 22.7477 53.1478 22.7803 53.3594C22.8161 53.5677 22.8747 53.7467 22.9561 53.8965C23.0407 54.0462 23.1579 54.1618 23.3076 54.2432C23.4574 54.3213 23.6462 54.3604 23.874 54.3604ZM29.6016 49.7168V50.4639L27.4922 50.4639V49.7168L29.6016 49.7168ZM27.6045 49.7168V55H26.7402V49.7168H27.6045ZM30.3779 49.7168V55H29.5137V49.7168H30.3779ZM31.5791 52.6123V52.1094C31.5791 51.6992 31.6312 51.3395 31.7354 51.0303C31.8395 50.7178 31.9844 50.4574 32.1699 50.249C32.3555 50.0407 32.5719 49.8844 32.8193 49.7803C33.0667 49.6729 33.332 49.6191 33.6152 49.6191C33.9049 49.6191 34.1735 49.6729 34.4209 49.7803C34.6683 49.8844 34.8848 50.0407 35.0703 50.249C35.2591 50.4574 35.4056 50.7178 35.5098 51.0303C35.6139 51.3395 35.666 51.6992 35.666 52.1094V52.6123C35.666 53.0225 35.6139 53.3838 35.5098 53.6963C35.4056 54.0055 35.2607 54.2643 35.0752 54.4727C34.8896 54.681 34.6732 54.8372 34.4258 54.9414C34.1784 55.0456 33.9115 55.0977 33.625 55.0977C33.3385 55.0977 33.0716 55.0456 32.8242 54.9414C32.5768 54.8372 32.3587 54.681 32.1699 54.4727C31.9844 54.2643 31.8395 54.0055 31.7354 53.6963C31.6312 53.3838 31.5791 53.0225 31.5791 52.6123ZM32.4434 52.1094V52.6123C32.4434 52.902 32.4727 53.1559 32.5312 53.374C32.5898 53.5921 32.6729 53.7744 32.7803 53.9209C32.8877 54.0674 33.013 54.1781 33.1562 54.2529C33.2995 54.3245 33.4557 54.3604 33.625 54.3604C33.8203 54.3604 33.9912 54.3245 34.1377 54.2529C34.2874 54.1781 34.4111 54.0674 34.5088 53.9209C34.6064 53.7744 34.6797 53.5921 34.7285 53.374C34.7773 53.1559 34.8018 52.902 34.8018 52.6123V52.1094C34.8018 51.8197 34.7725 51.5674 34.7139 51.3525C34.6553 51.1344 34.5723 50.9521 34.4648 50.8057C34.3574 50.6559 34.2305 50.5452 34.084 50.4736C33.9408 50.3988 33.7845 50.3613 33.6152 50.3613C33.4492 50.3613 33.2946 50.3988 33.1514 50.4736C33.0081 50.5452 32.8828 50.6559 32.7754 50.8057C32.6712 50.9521 32.5898 51.1344 32.5312 51.3525C32.4727 51.5674 32.4434 51.8197 32.4434 52.1094ZM37.6436 50.7324V57.0312H36.7793V49.7168H37.5654L37.6436 50.7324ZM40.5977 52.1191V52.6123C40.5977 53.029 40.5586 53.3936 40.4805 53.7061C40.4056 54.0153 40.2933 54.2741 40.1436 54.4824C39.9971 54.6875 39.8164 54.8421 39.6016 54.9463C39.3867 55.0472 39.141 55.0977 38.8643 55.0977C38.5876 55.0977 38.3467 55.0456 38.1416 54.9414C37.9398 54.834 37.7689 54.6794 37.6289 54.4775C37.4922 54.2757 37.3831 54.0332 37.3018 53.75C37.2236 53.4635 37.1699 53.1429 37.1406 52.7881V52.0361C37.1699 51.6618 37.2236 51.3265 37.3018 51.0303C37.3799 50.7308 37.4873 50.4769 37.624 50.2686C37.764 50.057 37.9349 49.8958 38.1367 49.7852C38.3418 49.6745 38.5811 49.6191 38.8545 49.6191C39.1377 49.6191 39.3867 49.668 39.6016 49.7656C39.8197 49.8633 40.002 50.0146 40.1484 50.2197C40.2982 50.4215 40.4105 50.6803 40.4854 50.9961C40.5602 51.3086 40.5977 51.6829 40.5977 52.1191ZM39.7334 52.6123V52.1191C39.7334 51.8262 39.7106 51.5706 39.665 51.3525C39.6227 51.1344 39.5544 50.9538 39.46 50.8105C39.3656 50.6673 39.2467 50.5599 39.1035 50.4883C38.9603 50.4167 38.7878 50.3809 38.5859 50.3809C38.4134 50.3809 38.2604 50.4167 38.127 50.4883C37.9967 50.5599 37.8844 50.6576 37.79 50.7812C37.6956 50.9017 37.6175 51.04 37.5557 51.1963C37.4938 51.3493 37.4482 51.5088 37.4189 51.6748V53.1543C37.4743 53.3626 37.5475 53.5596 37.6387 53.7451C37.7298 53.9274 37.8519 54.0755 38.0049 54.1895C38.1611 54.3034 38.3581 54.3604 38.5957 54.3604C38.7943 54.3604 38.9652 54.3245 39.1084 54.2529C39.2516 54.1813 39.3688 54.0739 39.46 53.9307C39.5544 53.7842 39.6227 53.6019 39.665 53.3838C39.7106 53.1624 39.7334 52.9053 39.7334 52.6123ZM43.2197 49.7168V55H42.3555V49.7168H43.2197ZM44.6602 49.7168V50.4492H40.9346V49.7168H44.6602ZM48.5859 52.0068V52.7393H46.3447V52.0068H48.5859ZM46.5205 49.7168V55H45.6562V49.7168H46.5205ZM49.2891 49.7168V55H48.4248V49.7168H49.2891ZM50.4854 52.6123V52.1094C50.4854 51.6992 50.5374 51.3395 50.6416 51.0303C50.7458 50.7178 50.8906 50.4574 51.0762 50.249C51.2617 50.0407 51.4782 49.8844 51.7256 49.7803C51.973 49.6729 52.2383 49.6191 52.5215 49.6191C52.8112 49.6191 53.0798 49.6729 53.3271 49.7803C53.5745 49.8844 53.791 50.0407 53.9766 50.249C54.1654 50.4574 54.3118 50.7178 54.416 51.0303C54.5202 51.3395 54.5723 51.6992 54.5723 52.1094V52.6123C54.5723 53.0225 54.5202 53.3838 54.416 53.6963C54.3118 54.0055 54.167 54.2643 53.9814 54.4727C53.7959 54.681 53.5794 54.8372 53.332 54.9414C53.0846 55.0456 52.8177 55.0977 52.5312 55.0977C52.2448 55.0977 51.9779 55.0456 51.7305 54.9414C51.4831 54.8372 51.265 54.681 51.0762 54.4727C50.8906 54.2643 50.7458 54.0055 50.6416 53.6963C50.5374 53.3838 50.4854 53.0225 50.4854 52.6123ZM51.3496 52.1094V52.6123C51.3496 52.902 51.3789 53.1559 51.4375 53.374C51.4961 53.5921 51.5791 53.7744 51.6865 53.9209C51.7939 54.0674 51.9193 54.1781 52.0625 54.2529C52.2057 54.3245 52.362 54.3604 52.5312 54.3604C52.7266 54.3604 52.8975 54.3245 53.0439 54.2529C53.1937 54.1781 53.3174 54.0674 53.415 53.9209C53.5127 53.7744 53.5859 53.5921 53.6348 53.374C53.6836 53.1559 53.708 52.902 53.708 52.6123V52.1094C53.708 51.8197 53.6787 51.5674 53.6201 51.3525C53.5615 51.1344 53.4785 50.9521 53.3711 50.8057C53.2637 50.6559 53.1367 50.5452 52.9902 50.4736C52.847 50.3988 52.6908 50.3613 52.5215 50.3613C52.3555 50.3613 52.2008 50.3988 52.0576 50.4736C51.9144 50.5452 51.7891 50.6559 51.6816 50.8057C51.5775 50.9521 51.4961 51.1344 51.4375 51.3525C51.3789 51.5674 51.3496 51.8197 51.3496 52.1094ZM58.5908 49.7168V50.4639H56.6182V55H55.7539V49.7168H58.5908ZM59.1279 52.6123V52.1094C59.1279 51.6992 59.18 51.3395 59.2842 51.0303C59.3883 50.7178 59.5332 50.4574 59.7188 50.249C59.9043 50.0407 60.1208 49.8844 60.3682 49.7803C60.6156 49.6729 60.8809 49.6191 61.1641 49.6191C61.4538 49.6191 61.7223 49.6729 61.9697 49.7803C62.2171 49.8844 62.4336 50.0407 62.6191 50.249C62.8079 50.4574 62.9544 50.7178 63.0586 51.0303C63.1628 51.3395 63.2148 51.6992 63.2148 52.1094V52.6123C63.2148 53.0225 63.1628 53.3838 63.0586 53.6963C62.9544 54.0055 62.8096 54.2643 62.624 54.4727C62.4385 54.681 62.222 54.8372 61.9746 54.9414C61.7272 55.0456 61.4603 55.0977 61.1738 55.0977C60.8874 55.0977 60.6204 55.0456 60.373 54.9414C60.1257 54.8372 59.9076 54.681 59.7188 54.4727C59.5332 54.2643 59.3883 54.0055 59.2842 53.6963C59.18 53.3838 59.1279 53.0225 59.1279 52.6123ZM59.9922 52.1094V52.6123C59.9922 52.902 60.0215 53.1559 60.0801 53.374C60.1387 53.5921 60.2217 53.7744 60.3291 53.9209C60.4365 54.0674 60.5618 54.1781 60.7051 54.2529C60.8483 54.3245 61.0046 54.3604 61.1738 54.3604C61.3691 54.3604 61.54 54.3245 61.6865 54.2529C61.8363 54.1781 61.96 54.0674 62.0576 53.9209C62.1553 53.7744 62.2285 53.5921 62.2773 53.374C62.3262 53.1559 62.3506 52.902 62.3506 52.6123V52.1094C62.3506 51.8197 62.3213 51.5674 62.2627 51.3525C62.2041 51.1344 62.1211 50.9521 62.0137 50.8057C61.9062 50.6559 61.7793 50.5452 61.6328 50.4736C61.4896 50.3988 61.3333 50.3613 61.1641 50.3613C60.998 50.3613 60.8434 50.3988 60.7002 50.4736C60.557 50.5452 60.4316 50.6559 60.3242 50.8057C60.2201 50.9521 60.1387 51.1344 60.0801 51.3525C60.0215 51.5674 59.9922 51.8197 59.9922 52.1094ZM21.3887 63.4756H20.5342V62.9189H21.3203C21.5091 62.9189 21.6572 62.888 21.7646 62.8262C21.8721 62.7611 21.9486 62.6715 21.9941 62.5576C22.0397 62.4437 22.0625 62.3102 22.0625 62.1572C22.0625 62.0205 22.0365 61.8919 21.9844 61.7715C21.9323 61.6478 21.8477 61.5485 21.7305 61.4736C21.6133 61.3955 21.457 61.3564 21.2617 61.3564C21.1022 61.3564 20.9574 61.3939 20.8271 61.4688C20.6969 61.5404 20.5944 61.6396 20.5195 61.7666C20.4447 61.8903 20.4072 62.0303 20.4072 62.1865H19.5479C19.5479 61.8643 19.6243 61.5876 19.7773 61.3564C19.9336 61.1221 20.1419 60.9414 20.4023 60.8145C20.6628 60.6875 20.9492 60.624 21.2617 60.624C21.5221 60.624 21.7549 60.6582 21.96 60.7266C22.165 60.7917 22.3392 60.8893 22.4824 61.0195C22.6257 61.1465 22.7347 61.306 22.8096 61.498C22.8877 61.6868 22.9268 61.9066 22.9268 62.1572C22.9268 62.3363 22.891 62.5055 22.8193 62.665C22.7477 62.8245 22.6452 62.9661 22.5117 63.0898C22.3783 63.2103 22.2155 63.3047 22.0234 63.373C21.8346 63.4414 21.623 63.4756 21.3887 63.4756ZM20.5342 63.1338H21.3887C21.6491 63.1338 21.8802 63.1647 22.082 63.2266C22.2839 63.2852 22.4531 63.373 22.5898 63.4902C22.7298 63.6074 22.834 63.7523 22.9023 63.9248C22.974 64.0941 23.0098 64.2894 23.0098 64.5107C23.0098 64.7581 22.9674 64.9811 22.8828 65.1797C22.7982 65.375 22.6777 65.541 22.5215 65.6777C22.3685 65.8145 22.1846 65.9186 21.9697 65.9902C21.7581 66.0618 21.5221 66.0977 21.2617 66.0977C20.9688 66.0977 20.6855 66.0391 20.4121 65.9219C20.1419 65.8047 19.9189 65.624 19.7432 65.3799C19.5674 65.1325 19.4795 64.8184 19.4795 64.4375H20.3389C20.3389 64.597 20.3763 64.7484 20.4512 64.8916C20.5293 65.0348 20.6367 65.1504 20.7734 65.2383C20.9134 65.3262 21.0762 65.3701 21.2617 65.3701C21.457 65.3701 21.6198 65.3311 21.75 65.2529C21.8802 65.1748 21.9779 65.0706 22.043 64.9404C22.1081 64.8102 22.1406 64.6686 22.1406 64.5156C22.1406 64.3171 22.1113 64.1576 22.0527 64.0371C21.9941 63.9167 21.9046 63.8288 21.7842 63.7734C21.6637 63.7148 21.5091 63.6855 21.3203 63.6855H20.5342V63.1338ZM26.7451 65.0967V62.2305C26.7451 62.0221 26.7126 61.8545 26.6475 61.7275C26.5856 61.6006 26.4912 61.5078 26.3643 61.4492C26.2406 61.3906 26.0843 61.3613 25.8955 61.3613C25.7132 61.3613 25.5553 61.3988 25.4219 61.4736C25.2917 61.5485 25.1908 61.6478 25.1191 61.7715C25.0508 61.8952 25.0166 62.0319 25.0166 62.1816H24.1523C24.1523 61.9928 24.193 61.8057 24.2744 61.6201C24.359 61.4346 24.4795 61.2669 24.6357 61.1172C24.792 60.9642 24.9792 60.8438 25.1973 60.7559C25.4186 60.6647 25.666 60.6191 25.9395 60.6191C26.265 60.6191 26.5531 60.6729 26.8037 60.7803C27.0544 60.8844 27.2513 61.0553 27.3945 61.293C27.5378 61.5306 27.6094 61.8464 27.6094 62.2402V64.8477C27.6094 65.0234 27.6224 65.2106 27.6484 65.4092C27.6777 65.6077 27.7184 65.7786 27.7705 65.9219V66H26.877C26.8346 65.8958 26.8021 65.7575 26.7793 65.585C26.7565 65.4092 26.7451 65.2464 26.7451 65.0967ZM26.8818 62.7969L26.8916 63.4316H26.291C26.0859 63.4316 25.8988 63.4544 25.7295 63.5C25.5635 63.5456 25.4202 63.6123 25.2998 63.7002C25.1794 63.7848 25.0866 63.8906 25.0215 64.0176C24.9596 64.1445 24.9287 64.2894 24.9287 64.4521C24.9287 64.6637 24.958 64.833 25.0166 64.96C25.0752 65.0837 25.1631 65.1732 25.2803 65.2285C25.3975 65.2839 25.5456 65.3115 25.7246 65.3115C25.9427 65.3115 26.1348 65.2611 26.3008 65.1602C26.4668 65.0592 26.5954 64.9372 26.6865 64.7939C26.7809 64.6507 26.8249 64.5173 26.8184 64.3936L27.0088 64.7988C26.9958 64.9258 26.9535 65.0641 26.8818 65.2139C26.8135 65.3604 26.7174 65.502 26.5938 65.6387C26.4701 65.7721 26.3236 65.8828 26.1543 65.9707C25.9883 66.0553 25.8011 66.0977 25.5928 66.0977C25.2868 66.0977 25.0182 66.0391 24.7871 65.9219C24.5592 65.8047 24.3818 65.6322 24.2549 65.4043C24.1279 65.1764 24.0645 64.8949 24.0645 64.5596C24.0645 64.3057 24.1084 64.0713 24.1963 63.8564C24.2842 63.6416 24.4144 63.4561 24.5869 63.2998C24.7594 63.1403 24.9759 63.0166 25.2363 62.9287C25.5 62.8408 25.8044 62.7969 26.1494 62.7969H26.8818ZM30.7832 65.3604C30.9557 65.3604 31.112 65.3262 31.252 65.2578C31.3952 65.1862 31.5124 65.0755 31.6035 64.9258C31.6947 64.7728 31.7467 64.5742 31.7598 64.3301H32.5703C32.5573 64.6816 32.4678 64.9909 32.3018 65.2578C32.139 65.5215 31.9242 65.7282 31.6572 65.8779C31.3936 66.0244 31.1022 66.0977 30.7832 66.0977C30.4414 66.0977 30.1436 66.0423 29.8896 65.9316C29.639 65.821 29.4307 65.6615 29.2646 65.4531C29.1019 65.2415 28.9798 64.986 28.8984 64.6865C28.8171 64.3838 28.7764 64.0404 28.7764 63.6562V63.0605C28.7764 62.6764 28.8171 62.3346 28.8984 62.0352C28.9798 61.7324 29.1019 61.4769 29.2646 61.2686C29.4307 61.057 29.639 60.8958 29.8896 60.7852C30.1436 60.6745 30.4414 60.6191 30.7832 60.6191C31.1413 60.6191 31.4505 60.6956 31.7109 60.8486C31.9746 60.9984 32.1797 61.2165 32.3262 61.5029C32.4759 61.7861 32.5573 62.1296 32.5703 62.5332H31.7598C31.7467 62.2728 31.6995 62.0563 31.6182 61.8838C31.5368 61.708 31.4261 61.5778 31.2861 61.4932C31.1462 61.4053 30.9785 61.3613 30.7832 61.3613C30.5553 61.3613 30.3665 61.402 30.2168 61.4834C30.0703 61.5615 29.9548 61.6755 29.8701 61.8252C29.7855 61.9749 29.7253 62.154 29.6895 62.3623C29.6569 62.5706 29.6406 62.8034 29.6406 63.0605V63.6562C29.6406 63.9134 29.6569 64.1478 29.6895 64.3594C29.7253 64.5677 29.7839 64.7467 29.8652 64.8965C29.9499 65.0462 30.0671 65.1618 30.2168 65.2432C30.3665 65.3213 30.5553 65.3604 30.7832 65.3604ZM33.3906 63.6123V63.1094C33.3906 62.6992 33.4427 62.3395 33.5469 62.0303C33.651 61.7178 33.7959 61.4574 33.9814 61.249C34.167 61.0407 34.3835 60.8844 34.6309 60.7803C34.8783 60.6729 35.1436 60.6191 35.4268 60.6191C35.7165 60.6191 35.985 60.6729 36.2324 60.7803C36.4798 60.8844 36.6963 61.0407 36.8818 61.249C37.0706 61.4574 37.2171 61.7178 37.3213 62.0303C37.4255 62.3395 37.4775 62.6992 37.4775 63.1094V63.6123C37.4775 64.0225 37.4255 64.3838 37.3213 64.6963C37.2171 65.0055 37.0723 65.2643 36.8867 65.4727C36.7012 65.681 36.4847 65.8372 36.2373 65.9414C35.9899 66.0456 35.723 66.0977 35.4365 66.0977C35.1501 66.0977 34.8831 66.0456 34.6357 65.9414C34.3883 65.8372 34.1702 65.681 33.9814 65.4727C33.7959 65.2643 33.651 65.0055 33.5469 64.6963C33.4427 64.3838 33.3906 64.0225 33.3906 63.6123ZM34.2549 63.1094V63.6123C34.2549 63.902 34.2842 64.1559 34.3428 64.374C34.4014 64.5921 34.4844 64.7744 34.5918 64.9209C34.6992 65.0674 34.8245 65.1781 34.9678 65.2529C35.111 65.3245 35.2673 65.3604 35.4365 65.3604C35.6318 65.3604 35.8027 65.3245 35.9492 65.2529C36.099 65.1781 36.2227 65.0674 36.3203 64.9209C36.418 64.7744 36.4912 64.5921 36.54 64.374C36.5889 64.1559 36.6133 63.902 36.6133 63.6123V63.1094C36.6133 62.8197 36.584 62.5674 36.5254 62.3525C36.4668 62.1344 36.3838 61.9521 36.2764 61.8057C36.1689 61.6559 36.042 61.5452 35.8955 61.4736C35.7523 61.3988 35.596 61.3613 35.4268 61.3613C35.2607 61.3613 35.1061 61.3988 34.9629 61.4736C34.8197 61.5452 34.6943 61.6559 34.5869 61.8057C34.4827 61.9521 34.4014 62.1344 34.3428 62.3525C34.2842 62.5674 34.2549 62.8197 34.2549 63.1094ZM41.4277 58.417H42.126C42.126 58.736 42.082 58.9899 41.9941 59.1787C41.9095 59.3643 41.7956 59.5075 41.6523 59.6084C41.5091 59.7093 41.3496 59.7858 41.1738 59.8379C40.998 59.89 40.819 59.9404 40.6367 59.9893C40.4089 60.0479 40.1956 60.1406 39.9971 60.2676C39.7985 60.3913 39.6276 60.5671 39.4844 60.7949C39.3444 61.0228 39.2419 61.319 39.1768 61.6836C39.1149 62.0482 39.1035 62.499 39.1426 63.0361V63.4854H38.4395V63.0361C38.4395 62.4339 38.4883 61.9082 38.5859 61.459C38.6836 61.0098 38.8219 60.6305 39.001 60.3213C39.18 60.012 39.3916 59.7663 39.6357 59.584C39.8799 59.4017 40.1501 59.2764 40.4463 59.208C40.6351 59.1592 40.8027 59.1071 40.9492 59.0518C41.099 58.9932 41.2161 58.915 41.3008 58.8174C41.3854 58.7197 41.4277 58.5863 41.4277 58.417ZM40.6025 61.0195C40.8923 61.0195 41.1494 61.0798 41.374 61.2002C41.5986 61.3206 41.7891 61.4883 41.9453 61.7031C42.1016 61.918 42.2204 62.1719 42.3018 62.4648C42.3831 62.7546 42.4238 63.0703 42.4238 63.4121V63.5195C42.4238 63.8874 42.3799 64.2292 42.292 64.5449C42.2041 64.8574 42.0739 65.1309 41.9014 65.3652C41.7321 65.5964 41.5238 65.777 41.2764 65.9072C41.029 66.0374 40.7474 66.1025 40.4316 66.1025C40.1159 66.1025 39.8343 66.0374 39.5869 65.9072C39.3428 65.777 39.1344 65.5964 38.9619 65.3652C38.7926 65.1309 38.6624 64.8574 38.5713 64.5449C38.4834 64.2292 38.4395 63.8874 38.4395 63.5195V63.4121C38.4395 63.3307 38.4541 63.251 38.4834 63.1729C38.5127 63.0947 38.5469 63.015 38.5859 62.9336C38.625 62.8522 38.6608 62.766 38.6934 62.6748C38.7943 62.3818 38.9342 62.11 39.1133 61.8594C39.2923 61.6087 39.5055 61.4069 39.7529 61.2539C40.0036 61.0977 40.2868 61.0195 40.6025 61.0195ZM40.4268 61.7568C40.1631 61.7568 39.9482 61.8333 39.7822 61.9863C39.6195 62.1393 39.499 62.3428 39.4209 62.5967C39.3428 62.8473 39.3037 63.1191 39.3037 63.4121V63.5195C39.3037 63.7669 39.3249 64.0013 39.3672 64.2227C39.4095 64.444 39.4762 64.641 39.5674 64.8135C39.6585 64.9827 39.7757 65.1162 39.9189 65.2139C40.0622 65.3115 40.2331 65.3604 40.4316 65.3604C40.6302 65.3604 40.7995 65.3115 40.9395 65.2139C41.0827 65.1162 41.1999 64.9827 41.291 64.8135C41.3822 64.641 41.4489 64.444 41.4912 64.2227C41.5368 64.0013 41.5596 63.7669 41.5596 63.5195V63.4121C41.5596 63.1908 41.5368 62.9808 41.4912 62.7822C41.4489 62.5837 41.3822 62.4079 41.291 62.2549C41.1999 62.1019 41.0827 61.9814 40.9395 61.8936C40.7962 61.8024 40.6253 61.7568 40.4268 61.7568ZM44.6699 65.4531L45.8467 60.7168H46.7646L45.0215 66.8154C44.9792 66.9456 44.9222 67.0856 44.8506 67.2354C44.7822 67.3883 44.6943 67.5332 44.5869 67.6699C44.4795 67.8066 44.3509 67.9173 44.2012 68.002C44.0514 68.0898 43.8757 68.1338 43.6738 68.1338C43.612 68.1338 43.5322 68.124 43.4346 68.1045C43.3402 68.085 43.2718 68.0687 43.2295 68.0557V67.3232C43.249 67.3265 43.2799 67.3298 43.3223 67.333C43.3646 67.3395 43.3955 67.3428 43.415 67.3428C43.5843 67.3428 43.7275 67.3151 43.8447 67.2598C43.9652 67.2077 44.0677 67.1182 44.1523 66.9912C44.237 66.8675 44.3086 66.6966 44.3672 66.4785L44.6699 65.4531ZM43.9082 60.7168L44.958 64.8184L45.1826 65.7705L44.5674 66.1025L42.9658 60.7168H43.9082Z" fill="url(#paint0_linear_363_3271)"/>
<path d="M116.932 40.8906V41.6621H114.139V48H113.24V40.8906H116.932ZM113.948 43.7861H115.564C116.004 43.7861 116.375 43.874 116.678 44.0498C116.984 44.2223 117.215 44.4648 117.371 44.7773C117.531 45.0898 117.61 45.4561 117.61 45.876C117.61 46.1885 117.565 46.4749 117.474 46.7354C117.386 46.9925 117.254 47.2171 117.078 47.4092C116.906 47.598 116.692 47.7445 116.438 47.8486C116.185 47.9495 115.893 48 115.564 48H113.24V40.8906H114.139V47.2334H115.564C115.838 47.2334 116.058 47.1699 116.224 47.043C116.393 46.9128 116.517 46.7435 116.595 46.5352C116.673 46.3268 116.712 46.1038 116.712 45.8662C116.712 45.6286 116.673 45.4105 116.595 45.2119C116.517 45.0133 116.393 44.8555 116.224 44.7383C116.058 44.6178 115.838 44.5576 115.564 44.5576H113.948V43.7861ZM119.573 42.7168V48H118.714V42.7168H119.573ZM118.665 41.3154C118.665 41.1689 118.706 41.0452 118.787 40.9443C118.868 40.8434 118.991 40.793 119.153 40.793C119.316 40.793 119.438 40.8434 119.52 40.9443C119.604 41.0452 119.646 41.1689 119.646 41.3154C119.646 41.4554 119.604 41.5758 119.52 41.6768C119.438 41.7744 119.316 41.8232 119.153 41.8232C118.991 41.8232 118.868 41.7744 118.787 41.6768C118.706 41.5758 118.665 41.4554 118.665 41.3154ZM123.89 42.7168V43.4639H121.785V42.7168H123.89ZM124.661 42.7168V48H123.802V42.7168H124.661ZM121.58 42.7168H122.444L122.322 45.2656C122.303 45.6595 122.27 46.0078 122.225 46.3105C122.182 46.61 122.122 46.8672 122.044 47.082C121.969 47.2969 121.875 47.4727 121.761 47.6094C121.65 47.7428 121.517 47.8421 121.36 47.9072C121.207 47.9691 121.03 48 120.828 48H120.569V47.2041L120.74 47.1895C120.854 47.1797 120.952 47.1471 121.033 47.0918C121.118 47.0365 121.186 46.9551 121.238 46.8477C121.294 46.737 121.338 46.5954 121.37 46.4229C121.406 46.2503 121.434 46.0452 121.453 45.8076C121.473 45.57 121.487 45.2933 121.497 44.9775L121.58 42.7168ZM126.976 42.7168V48H126.116V42.7168H126.976ZM126.067 41.3154C126.067 41.1689 126.108 41.0452 126.189 40.9443C126.271 40.8434 126.393 40.793 126.556 40.793C126.718 40.793 126.84 40.8434 126.922 40.9443C127.007 41.0452 127.049 41.1689 127.049 41.3154C127.049 41.4554 127.007 41.5758 126.922 41.6768C126.84 41.7744 126.718 41.8232 126.556 41.8232C126.393 41.8232 126.271 41.7744 126.189 41.6768C126.108 41.5758 126.067 41.4554 126.067 41.3154ZM131.351 45.0068V45.7393H129.109V45.0068H131.351ZM129.285 42.7168V48H128.421V42.7168H129.285ZM132.054 42.7168V48H131.189V42.7168H132.054ZM136.336 42.7168V43.4639H134.363V48H133.499V42.7168H136.336Z" fill="url(#paint1_linear_363_3271)"/>
<path d="M198.694 36.8906V44H197.796V37.6621H195.018V44H194.119V36.8906H198.694ZM202.059 44.0977C201.743 44.0977 201.458 44.0505 201.204 43.9561C200.95 43.8617 200.734 43.7184 200.555 43.5264C200.376 43.3311 200.239 43.0853 200.145 42.7891C200.05 42.4928 200.003 42.1429 200.003 41.7393V41.1436C200.003 40.6781 200.057 40.2842 200.164 39.9619C200.275 39.6396 200.423 39.3809 200.608 39.1855C200.794 38.987 201.004 38.8438 201.238 38.7559C201.473 38.6647 201.714 38.6191 201.961 38.6191C202.293 38.6191 202.576 38.6729 202.811 38.7803C203.045 38.8877 203.235 39.0472 203.382 39.2588C203.528 39.4704 203.636 39.7308 203.704 40.04C203.776 40.3493 203.812 40.7057 203.812 41.1094V41.6123H200.511V40.875H202.947V40.7529C202.934 40.4795 202.897 40.2386 202.835 40.0303C202.776 39.8219 202.679 39.6592 202.542 39.542C202.405 39.4215 202.212 39.3613 201.961 39.3613C201.801 39.3613 201.653 39.389 201.517 39.4443C201.383 39.4964 201.268 39.5892 201.17 39.7227C201.076 39.8529 201.001 40.0335 200.945 40.2646C200.893 40.4958 200.867 40.7887 200.867 41.1436V41.7393C200.867 42.0225 200.893 42.2666 200.945 42.4717C201.001 42.6735 201.08 42.8411 201.185 42.9746C201.292 43.1048 201.422 43.2025 201.575 43.2676C201.731 43.3294 201.909 43.3604 202.107 43.3604C202.397 43.3604 202.636 43.305 202.825 43.1943C203.014 43.0804 203.178 42.9355 203.318 42.7598L203.772 43.3018C203.678 43.4352 203.554 43.5638 203.401 43.6875C203.252 43.8079 203.066 43.9072 202.845 43.9854C202.627 44.0602 202.365 44.0977 202.059 44.0977ZM205.721 39.7324V46.0312H204.856V38.7168H205.643L205.721 39.7324ZM208.675 41.1191V41.6123C208.675 42.029 208.636 42.3936 208.558 42.7061C208.483 43.0153 208.37 43.2741 208.221 43.4824C208.074 43.6875 207.894 43.8421 207.679 43.9463C207.464 44.0472 207.218 44.0977 206.941 44.0977C206.665 44.0977 206.424 44.0456 206.219 43.9414C206.017 43.834 205.846 43.6794 205.706 43.4775C205.569 43.2757 205.46 43.0332 205.379 42.75C205.301 42.4635 205.247 42.1429 205.218 41.7881V41.0361C205.247 40.6618 205.301 40.3265 205.379 40.0303C205.457 39.7308 205.564 39.4769 205.701 39.2686C205.841 39.057 206.012 38.8958 206.214 38.7852C206.419 38.6745 206.658 38.6191 206.932 38.6191C207.215 38.6191 207.464 38.668 207.679 38.7656C207.897 38.8633 208.079 39.0146 208.226 39.2197C208.375 39.4215 208.488 39.6803 208.562 39.9961C208.637 40.3086 208.675 40.6829 208.675 41.1191ZM207.811 41.6123V41.1191C207.811 40.8262 207.788 40.5706 207.742 40.3525C207.7 40.1344 207.632 39.9538 207.537 39.8105C207.443 39.6673 207.324 39.5599 207.181 39.4883C207.037 39.4167 206.865 39.3809 206.663 39.3809C206.491 39.3809 206.338 39.4167 206.204 39.4883C206.074 39.5599 205.962 39.6576 205.867 39.7812C205.773 39.9017 205.695 40.04 205.633 40.1963C205.571 40.3493 205.525 40.5088 205.496 40.6748V42.1543C205.551 42.3626 205.625 42.5596 205.716 42.7451C205.807 42.9274 205.929 43.0755 206.082 43.1895C206.238 43.3034 206.435 43.3604 206.673 43.3604C206.871 43.3604 207.042 43.3245 207.186 43.2529C207.329 43.1813 207.446 43.0739 207.537 42.9307C207.632 42.7842 207.7 42.6019 207.742 42.3838C207.788 42.1624 207.811 41.9053 207.811 41.6123ZM211.678 44.0977C211.362 44.0977 211.077 44.0505 210.823 43.9561C210.569 43.8617 210.353 43.7184 210.174 43.5264C209.995 43.3311 209.858 43.0853 209.764 42.7891C209.669 42.4928 209.622 42.1429 209.622 41.7393V41.1436C209.622 40.6781 209.676 40.2842 209.783 39.9619C209.894 39.6396 210.042 39.3809 210.228 39.1855C210.413 38.987 210.623 38.8438 210.857 38.7559C211.092 38.6647 211.333 38.6191 211.58 38.6191C211.912 38.6191 212.195 38.6729 212.43 38.7803C212.664 38.8877 212.854 39.0472 213.001 39.2588C213.147 39.4704 213.255 39.7308 213.323 40.04C213.395 40.3493 213.431 40.7057 213.431 41.1094V41.6123H210.13V40.875H212.566V40.7529C212.553 40.4795 212.516 40.2386 212.454 40.0303C212.396 39.8219 212.298 39.6592 212.161 39.542C212.024 39.4215 211.831 39.3613 211.58 39.3613C211.421 39.3613 211.272 39.389 211.136 39.4443C211.002 39.4964 210.887 39.5892 210.789 39.7227C210.695 39.8529 210.62 40.0335 210.564 40.2646C210.512 40.4958 210.486 40.7887 210.486 41.1436V41.7393C210.486 42.0225 210.512 42.2666 210.564 42.4717C210.62 42.6735 210.7 42.8411 210.804 42.9746C210.911 43.1048 211.041 43.2025 211.194 43.2676C211.351 43.3294 211.528 43.3604 211.727 43.3604C212.016 43.3604 212.256 43.305 212.444 43.1943C212.633 43.0804 212.798 42.9355 212.938 42.7598L213.392 43.3018C213.297 43.4352 213.174 43.5638 213.021 43.6875C212.871 43.8079 212.685 43.9072 212.464 43.9854C212.246 44.0602 211.984 44.0977 211.678 44.0977ZM216.604 41.6758H215.193L215.184 40.9531H216.316C216.541 40.9531 216.727 40.9255 216.873 40.8701C217.023 40.8148 217.135 40.7318 217.21 40.6211C217.285 40.5104 217.322 40.3737 217.322 40.2109C217.322 40.084 217.301 39.9733 217.259 39.8789C217.216 39.7812 217.153 39.7015 217.068 39.6396C216.987 39.5745 216.884 39.5273 216.761 39.498C216.637 39.4655 216.492 39.4492 216.326 39.4492H215.413V44H214.554V38.7168H216.326C216.613 38.7168 216.87 38.7461 217.098 38.8047C217.329 38.8633 217.524 38.9528 217.684 39.0732C217.846 39.1904 217.97 39.3402 218.055 39.5225C218.143 39.7048 218.187 39.9196 218.187 40.167C218.187 40.3265 218.159 40.4779 218.104 40.6211C218.048 40.7643 217.965 40.8913 217.854 41.002C217.747 41.1126 217.614 41.2038 217.454 41.2754C217.295 41.3437 217.111 41.3877 216.902 41.4072L216.604 41.6758ZM216.604 44H214.871L215.315 43.2676H216.604C216.803 43.2676 216.966 43.2367 217.093 43.1748C217.22 43.1097 217.314 43.0186 217.376 42.9014C217.441 42.7809 217.474 42.6377 217.474 42.4717C217.474 42.3057 217.441 42.1641 217.376 42.0469C217.314 41.9264 217.22 41.8353 217.093 41.7734C216.966 41.7083 216.803 41.6758 216.604 41.6758H215.447L215.457 40.9531H216.888L217.19 41.2266C217.441 41.2493 217.651 41.321 217.82 41.4414C217.993 41.5618 218.121 41.7148 218.206 41.9004C218.294 42.0827 218.338 42.2812 218.338 42.4961C218.338 42.7435 218.299 42.9616 218.221 43.1504C218.143 43.3392 218.029 43.4971 217.879 43.624C217.729 43.7477 217.547 43.8421 217.332 43.9072C217.117 43.9691 216.875 44 216.604 44ZM220.442 38.7168V44H219.583V38.7168H220.442ZM219.534 37.3154C219.534 37.1689 219.575 37.0452 219.656 36.9443C219.738 36.8434 219.86 36.793 220.022 36.793C220.185 36.793 220.307 36.8434 220.389 36.9443C220.473 37.0452 220.516 37.1689 220.516 37.3154C220.516 37.4554 220.473 37.5758 220.389 37.6768C220.307 37.7744 220.185 37.8232 220.022 37.8232C219.86 37.8232 219.738 37.7744 219.656 37.6768C219.575 37.5758 219.534 37.4554 219.534 37.3154ZM222.674 39.7324V46.0312H221.81V38.7168H222.596L222.674 39.7324ZM225.628 41.1191V41.6123C225.628 42.029 225.589 42.3936 225.511 42.7061C225.436 43.0153 225.324 43.2741 225.174 43.4824C225.027 43.6875 224.847 43.8421 224.632 43.9463C224.417 44.0472 224.171 44.0977 223.895 44.0977C223.618 44.0977 223.377 44.0456 223.172 43.9414C222.97 43.834 222.799 43.6794 222.659 43.4775C222.522 43.2757 222.413 43.0332 222.332 42.75C222.254 42.4635 222.2 42.1429 222.171 41.7881V41.0361C222.2 40.6618 222.254 40.3265 222.332 40.0303C222.41 39.7308 222.518 39.4769 222.654 39.2686C222.794 39.057 222.965 38.8958 223.167 38.7852C223.372 38.6745 223.611 38.6191 223.885 38.6191C224.168 38.6191 224.417 38.668 224.632 38.7656C224.85 38.8633 225.032 39.0146 225.179 39.2197C225.328 39.4215 225.441 39.6803 225.516 39.9961C225.59 40.3086 225.628 40.6829 225.628 41.1191ZM224.764 41.6123V41.1191C224.764 40.8262 224.741 40.5706 224.695 40.3525C224.653 40.1344 224.585 39.9538 224.49 39.8105C224.396 39.6673 224.277 39.5599 224.134 39.4883C223.991 39.4167 223.818 39.3809 223.616 39.3809C223.444 39.3809 223.291 39.4167 223.157 39.4883C223.027 39.5599 222.915 39.6576 222.82 39.7812C222.726 39.9017 222.648 40.04 222.586 40.1963C222.524 40.3493 222.479 40.5088 222.449 40.6748V42.1543C222.505 42.3626 222.578 42.5596 222.669 42.7451C222.76 42.9274 222.882 43.0755 223.035 43.1895C223.191 43.3034 223.388 43.3604 223.626 43.3604C223.825 43.3604 223.995 43.3245 224.139 43.2529C224.282 43.1813 224.399 43.0739 224.49 42.9307C224.585 42.7842 224.653 42.6019 224.695 42.3838C224.741 42.1624 224.764 41.9053 224.764 41.6123ZM227.684 38.7168V44H226.819V38.7168H227.684ZM230.589 38.7168L228.465 41.7441H227.396L227.259 40.9531H228.113L229.554 38.7168H230.589ZM229.632 44L228.084 41.6074L228.636 40.9531L230.716 44H229.632ZM234.134 43.0967V40.2305C234.134 40.0221 234.101 39.8545 234.036 39.7275C233.974 39.6006 233.88 39.5078 233.753 39.4492C233.629 39.3906 233.473 39.3613 233.284 39.3613C233.102 39.3613 232.944 39.3988 232.811 39.4736C232.68 39.5485 232.579 39.6478 232.508 39.7715C232.439 39.8952 232.405 40.0319 232.405 40.1816H231.541C231.541 39.9928 231.582 39.8057 231.663 39.6201C231.748 39.4346 231.868 39.2669 232.024 39.1172C232.181 38.9642 232.368 38.8437 232.586 38.7559C232.807 38.6647 233.055 38.6191 233.328 38.6191C233.654 38.6191 233.942 38.6729 234.192 38.7803C234.443 38.8844 234.64 39.0553 234.783 39.293C234.926 39.5306 234.998 39.8464 234.998 40.2402V42.8477C234.998 43.0234 235.011 43.2106 235.037 43.4092C235.066 43.6077 235.107 43.7786 235.159 43.9219V44H234.266C234.223 43.8958 234.191 43.7575 234.168 43.585C234.145 43.4092 234.134 43.2464 234.134 43.0967ZM234.271 40.7969L234.28 41.4316H233.68C233.475 41.4316 233.287 41.4544 233.118 41.5C232.952 41.5456 232.809 41.6123 232.688 41.7002C232.568 41.7848 232.475 41.8906 232.41 42.0176C232.348 42.1445 232.317 42.2894 232.317 42.4521C232.317 42.6637 232.347 42.833 232.405 42.96C232.464 43.0837 232.552 43.1732 232.669 43.2285C232.786 43.2839 232.934 43.3115 233.113 43.3115C233.331 43.3115 233.523 43.2611 233.689 43.1602C233.855 43.0592 233.984 42.9372 234.075 42.7939C234.17 42.6507 234.214 42.5173 234.207 42.3936L234.397 42.7988C234.384 42.9258 234.342 43.0641 234.271 43.2139C234.202 43.3604 234.106 43.502 233.982 43.6387C233.859 43.7721 233.712 43.8828 233.543 43.9707C233.377 44.0553 233.19 44.0977 232.981 44.0977C232.675 44.0977 232.407 44.0391 232.176 43.9219C231.948 43.8047 231.771 43.6322 231.644 43.4043C231.517 43.1764 231.453 42.8949 231.453 42.5596C231.453 42.3057 231.497 42.0713 231.585 41.8564C231.673 41.6416 231.803 41.4561 231.976 41.2998C232.148 41.1403 232.365 41.0166 232.625 40.9287C232.889 40.8408 233.193 40.7969 233.538 40.7969H234.271ZM196.956 49.7168V55H196.092V49.7168H196.956ZM198.396 49.7168V50.4492H194.671V49.7168H198.396ZM201.824 54.0967V51.2305C201.824 51.0221 201.792 50.8545 201.727 50.7275C201.665 50.6006 201.57 50.5078 201.443 50.4492C201.32 50.3906 201.163 50.3613 200.975 50.3613C200.792 50.3613 200.634 50.3988 200.501 50.4736C200.371 50.5485 200.27 50.6478 200.198 50.7715C200.13 50.8952 200.096 51.0319 200.096 51.1816H199.231C199.231 50.9928 199.272 50.8057 199.354 50.6201C199.438 50.4346 199.559 50.2669 199.715 50.1172C199.871 49.9642 200.058 49.8438 200.276 49.7559C200.498 49.6647 200.745 49.6191 201.019 49.6191C201.344 49.6191 201.632 49.6729 201.883 49.7803C202.133 49.8844 202.33 50.0553 202.474 50.293C202.617 50.5306 202.688 50.8464 202.688 51.2402V53.8477C202.688 54.0234 202.701 54.2106 202.728 54.4092C202.757 54.6077 202.798 54.7786 202.85 54.9219V55H201.956C201.914 54.8958 201.881 54.7575 201.858 54.585C201.836 54.4092 201.824 54.2464 201.824 54.0967ZM201.961 51.7969L201.971 52.4316H201.37C201.165 52.4316 200.978 52.4544 200.809 52.5C200.643 52.5456 200.499 52.6123 200.379 52.7002C200.258 52.7848 200.166 52.8906 200.101 53.0176C200.039 53.1445 200.008 53.2894 200.008 53.4521C200.008 53.6637 200.037 53.833 200.096 53.96C200.154 54.0837 200.242 54.1732 200.359 54.2285C200.477 54.2839 200.625 54.3115 200.804 54.3115C201.022 54.3115 201.214 54.2611 201.38 54.1602C201.546 54.0592 201.674 53.9372 201.766 53.7939C201.86 53.6507 201.904 53.5173 201.897 53.3936L202.088 53.7988C202.075 53.9258 202.033 54.0641 201.961 54.2139C201.893 54.3604 201.797 54.502 201.673 54.6387C201.549 54.7721 201.403 54.8828 201.233 54.9707C201.067 55.0553 200.88 55.0977 200.672 55.0977C200.366 55.0977 200.097 55.0391 199.866 54.9219C199.638 54.8047 199.461 54.6322 199.334 54.4043C199.207 54.1764 199.144 53.8949 199.144 53.5596C199.144 53.3057 199.188 53.0713 199.275 52.8564C199.363 52.6416 199.493 52.4561 199.666 52.2998C199.839 52.1403 200.055 52.0166 200.315 51.9287C200.579 51.8408 200.883 51.7969 201.229 51.7969H201.961ZM206.146 52.6123V52.1094C206.146 51.6992 206.198 51.3395 206.302 51.0303C206.406 50.7178 206.551 50.4574 206.736 50.249C206.922 50.0407 207.138 49.8844 207.386 49.7803C207.633 49.6729 207.898 49.6191 208.182 49.6191C208.471 49.6191 208.74 49.6729 208.987 49.7803C209.235 49.8844 209.451 50.0407 209.637 50.249C209.826 50.4574 209.972 50.7178 210.076 51.0303C210.18 51.3395 210.232 51.6992 210.232 52.1094V52.6123C210.232 53.0225 210.18 53.3838 210.076 53.6963C209.972 54.0055 209.827 54.2643 209.642 54.4727C209.456 54.681 209.24 54.8372 208.992 54.9414C208.745 55.0456 208.478 55.0977 208.191 55.0977C207.905 55.0977 207.638 55.0456 207.391 54.9414C207.143 54.8372 206.925 54.681 206.736 54.4727C206.551 54.2643 206.406 54.0055 206.302 53.6963C206.198 53.3838 206.146 53.0225 206.146 52.6123ZM207.01 52.1094V52.6123C207.01 52.902 207.039 53.1559 207.098 53.374C207.156 53.5921 207.239 53.7744 207.347 53.9209C207.454 54.0674 207.579 54.1781 207.723 54.2529C207.866 54.3245 208.022 54.3604 208.191 54.3604C208.387 54.3604 208.558 54.3245 208.704 54.2529C208.854 54.1781 208.978 54.0674 209.075 53.9209C209.173 53.7744 209.246 53.5921 209.295 53.374C209.344 53.1559 209.368 52.902 209.368 52.6123V52.1094C209.368 51.8197 209.339 51.5674 209.28 51.3525C209.222 51.1344 209.139 50.9521 209.031 50.8057C208.924 50.6559 208.797 50.5452 208.65 50.4736C208.507 50.3988 208.351 50.3613 208.182 50.3613C208.016 50.3613 207.861 50.3988 207.718 50.4736C207.575 50.5452 207.449 50.6559 207.342 50.8057C207.238 50.9521 207.156 51.1344 207.098 51.3525C207.039 51.5674 207.01 51.8197 207.01 52.1094ZM214.285 49.7168V50.4639H212.176V49.7168H214.285ZM212.288 49.7168V55H211.424V49.7168H212.288ZM215.062 49.7168V55H214.197V49.7168H215.062ZM219.393 49.7168V50.4639H217.288V49.7168H219.393ZM220.164 49.7168V55H219.305V49.7168H220.164ZM217.083 49.7168L217.947 49.7168L217.825 52.2656C217.806 52.6595 217.773 53.0078 217.728 53.3105C217.685 53.61 217.625 53.8672 217.547 54.082C217.472 54.2969 217.378 54.4727 217.264 54.6094C217.153 54.7428 217.02 54.8421 216.863 54.9072C216.71 54.9691 216.533 55 216.331 55H216.072V54.2041L216.243 54.1895C216.357 54.1797 216.455 54.1471 216.536 54.0918C216.621 54.0365 216.689 53.9551 216.741 53.8477C216.797 53.737 216.84 53.5954 216.873 53.4229C216.909 53.2503 216.937 53.0452 216.956 52.8076C216.976 52.57 216.99 52.2933 217 51.9775L217.083 49.7168ZM224.139 54.0967V51.2305C224.139 51.0221 224.106 50.8545 224.041 50.7275C223.979 50.6006 223.885 50.5078 223.758 50.4492C223.634 50.3906 223.478 50.3613 223.289 50.3613C223.107 50.3613 222.949 50.3988 222.815 50.4736C222.685 50.5485 222.584 50.6478 222.513 50.7715C222.444 50.8952 222.41 51.0319 222.41 51.1816H221.546C221.546 50.9928 221.587 50.8057 221.668 50.6201C221.753 50.4346 221.873 50.2669 222.029 50.1172C222.186 49.9642 222.373 49.8437 222.591 49.7559C222.812 49.6647 223.06 49.6191 223.333 49.6191C223.659 49.6191 223.947 49.6729 224.197 49.7803C224.448 49.8844 224.645 50.0553 224.788 50.293C224.931 50.5306 225.003 50.8464 225.003 51.2402V53.8477C225.003 54.0234 225.016 54.2106 225.042 54.4092C225.071 54.6077 225.112 54.7786 225.164 54.9219V55H224.271C224.228 54.8958 224.196 54.7575 224.173 54.585C224.15 54.4092 224.139 54.2464 224.139 54.0967ZM224.275 51.7969L224.285 52.4316H223.685C223.479 52.4316 223.292 52.4544 223.123 52.5C222.957 52.5456 222.814 52.6123 222.693 52.7002C222.573 52.7848 222.48 52.8906 222.415 53.0176C222.353 53.1445 222.322 53.2894 222.322 53.4521C222.322 53.6637 222.352 53.833 222.41 53.96C222.469 54.0837 222.557 54.1732 222.674 54.2285C222.791 54.2839 222.939 54.3115 223.118 54.3115C223.336 54.3115 223.528 54.2611 223.694 54.1602C223.86 54.0592 223.989 53.9372 224.08 53.7939C224.174 53.6507 224.218 53.5173 224.212 53.3936L224.402 53.7988C224.389 53.9258 224.347 54.0641 224.275 54.2139C224.207 54.3604 224.111 54.502 223.987 54.6387C223.864 54.7721 223.717 54.8828 223.548 54.9707C223.382 55.0553 223.195 55.0977 222.986 55.0977C222.68 55.0977 222.412 55.0391 222.181 54.9219C221.953 54.8047 221.775 54.6322 221.648 54.4043C221.521 54.1764 221.458 53.8949 221.458 53.5596C221.458 53.3057 221.502 53.0713 221.59 52.8564C221.678 52.6416 221.808 52.4561 221.98 52.2998C222.153 52.1403 222.369 52.0166 222.63 51.9287C222.894 51.8408 223.198 51.7969 223.543 51.7969H224.275ZM228.167 49.7168V55H227.303V49.7168H228.167ZM229.607 49.7168V50.4492H225.882V49.7168H229.607ZM233.035 54.0967V51.2305C233.035 51.0221 233.003 50.8545 232.938 50.7275C232.876 50.6006 232.781 50.5078 232.654 50.4492C232.531 50.3906 232.374 50.3613 232.186 50.3613C232.003 50.3613 231.845 50.3988 231.712 50.4736C231.582 50.5485 231.481 50.6478 231.409 50.7715C231.341 50.8952 231.307 51.0319 231.307 51.1816H230.442C230.442 50.9928 230.483 50.8057 230.564 50.6201C230.649 50.4346 230.77 50.2669 230.926 50.1172C231.082 49.9642 231.269 49.8437 231.487 49.7559C231.709 49.6647 231.956 49.6191 232.229 49.6191C232.555 49.6191 232.843 49.6729 233.094 49.7803C233.344 49.8844 233.541 50.0553 233.685 50.293C233.828 50.5306 233.899 50.8464 233.899 51.2402V53.8477C233.899 54.0234 233.912 54.2106 233.938 54.4092C233.968 54.6077 234.008 54.7786 234.061 54.9219V55H233.167C233.125 54.8958 233.092 54.7575 233.069 54.585C233.047 54.4092 233.035 54.2464 233.035 54.0967ZM233.172 51.7969L233.182 52.4316H232.581C232.376 52.4316 232.189 52.4544 232.02 52.5C231.854 52.5456 231.71 52.6123 231.59 52.7002C231.469 52.7848 231.377 52.8906 231.312 53.0176C231.25 53.1445 231.219 53.2894 231.219 53.4521C231.219 53.6637 231.248 53.833 231.307 53.96C231.365 54.0837 231.453 54.1732 231.57 54.2285C231.688 54.2839 231.836 54.3115 232.015 54.3115C232.233 54.3115 232.425 54.2611 232.591 54.1602C232.757 54.0592 232.885 53.9372 232.977 53.7939C233.071 53.6507 233.115 53.5173 233.108 53.3936L233.299 53.7988C233.286 53.9258 233.243 54.0641 233.172 54.2139C233.104 54.3604 233.007 54.502 232.884 54.6387C232.76 54.7721 232.614 54.8828 232.444 54.9707C232.278 55.0553 232.091 55.0977 231.883 55.0977C231.577 55.0977 231.308 55.0391 231.077 54.9219C230.849 54.8047 230.672 54.6322 230.545 54.4043C230.418 54.1764 230.354 53.8949 230.354 53.5596C230.354 53.3057 230.398 53.0713 230.486 52.8564C230.574 52.6416 230.704 52.4561 230.877 52.2998C231.049 52.1403 231.266 52.0166 231.526 51.9287C231.79 51.8408 232.094 51.7969 232.439 51.7969H233.172Z" fill="url(#paint2_linear_363_3271)"/>
<path fill-rule="evenodd" clip-rule="evenodd" d="M204 16L137 16V14L204 14V16Z" fill="url(#paint3_linear_363_3271)"/>
<path fill-rule="evenodd" clip-rule="evenodd" d="M111 16L44 16V14L111 14V16Z" fill="url(#paint4_linear_363_3271)"/>
<path fill-rule="evenodd" clip-rule="evenodd" d="M18.7612 6.17317C18 8.01088 18 10.3406 18 15C18 19.6594 18 21.9891 18.7612 23.8268C19.7761 26.2771 21.7229 28.2239 24.1732 29.2388C26.0109 30 28.3406 30 33 30C37.6594 30 39.9891 30 41.8268 29.2388C44.2771 28.2239 46.2239 26.2771 47.2388 23.8268C48 21.9891 48 19.6594 48 15C48 10.3406 48 8.01088 47.2388 6.17317C46.2239 3.72288 44.2771 1.77614 41.8268 0.761205C39.9891 0 37.6594 0 33 0C28.3406 0 26.0109 0 24.1732 0.761205C21.7229 1.77614 19.7761 3.72288 18.7612 6.17317ZM39.7071 11.7071C40.0976 11.3166 40.0976 10.6834 39.7071 10.2929C39.3166 9.90237 38.6834 9.90237 38.2929 10.2929L31 17.5858L27.7071 14.2929C27.3166 13.9024 26.6834 13.9024 26.2929 14.2929C25.9024 14.6834 25.9024 15.3166 26.2929 15.7071L30.2929 19.7071C30.4804 19.8946 30.7348 20 31 20C31.2652 20 31.5196 19.8946 31.7071 19.7071L39.7071 11.7071Z" fill="url(#paint5_linear_363_3271)"/>
<path fill-rule="evenodd" clip-rule="evenodd" d="M109.761 6.17317C109 8.01088 109 10.3406 109 15C109 19.6594 109 21.9891 109.761 23.8268C110.776 26.2771 112.723 28.2239 115.173 29.2388C117.011 30 119.341 30 124 30C128.659 30 130.989 30 132.827 29.2388C135.277 28.2239 137.224 26.2771 138.239 23.8268C139 21.9891 139 19.6594 139 15C139 10.3406 139 8.01088 138.239 6.17317C137.224 3.72288 135.277 1.77614 132.827 0.761205C130.989 0 128.659 0 124 0C119.341 0 117.011 0 115.173 0.761205C112.723 1.77614 110.776 3.72288 109.761 6.17317ZM130.707 11.7071C131.098 11.3166 131.098 10.6834 130.707 10.2929C130.317 9.90237 129.683 9.90237 129.293 10.2929L122 17.5858L118.707 14.2929C118.317 13.9024 117.683 13.9024 117.293 14.2929C116.902 14.6834 116.902 15.3166 117.293 15.7071L121.293 19.7071C121.48 19.8946 121.735 20 122 20C122.265 20 122.52 19.8946 122.707 19.7071L130.707 11.7071Z" fill="url(#paint6_linear_363_3271)"/>
<path fill-rule="evenodd" clip-rule="evenodd" d="M200.761 6.17317C200 8.01088 200 10.3406 200 15C200 19.6594 200 21.9891 200.761 23.8268C201.776 26.2771 203.723 28.2239 206.173 29.2388C208.011 30 210.341 30 215 30C219.659 30 221.989 30 223.827 29.2388C226.277 28.2239 228.224 26.2771 229.239 23.8268C230 21.9891 230 19.6594 230 15C230 10.3406 230 8.01088 229.239 6.17317C228.224 3.72288 226.277 1.77614 223.827 0.761205C221.989 0 219.659 0 215 0C210.341 0 208.011 0 206.173 0.761205C203.723 1.77614 201.776 3.72288 200.761 6.17317ZM221.707 11.7071C222.098 11.3166 222.098 10.6834 221.707 10.2929C221.317 9.90237 220.683 9.90237 220.293 10.2929L213 17.5858L209.707 14.2929C209.317 13.9024 208.683 13.9024 208.293 14.2929C207.902 14.6834 207.902 15.3166 208.293 15.7071L212.293 19.7071C212.48 19.8946 212.735 20 213 20C213.265 20 213.52 19.8946 213.707 19.7071L221.707 11.7071Z" fill="url(#paint7_linear_363_3271)"/>
<defs>
<linearGradient id="paint0_linear_363_3271" x1="33" y1="68" x2="33" y2="35" gradientUnits="userSpaceOnUse">
<stop stop-color="#5CCC94"/>
<stop offset="1" stop-color="#8CCAAE"/>
</linearGradient>
<linearGradient id="paint1_linear_363_3271" x1="124.5" y1="55" x2="124.5" y2="35" gradientUnits="userSpaceOnUse">
<stop stop-color="#5CCC94"/>
<stop offset="1" stop-color="#8CCAAE"/>
</linearGradient>
<linearGradient id="paint2_linear_363_3271" x1="214.5" y1="68" x2="214.5" y2="35" gradientUnits="userSpaceOnUse">
<stop stop-color="#5CCC94"/>
<stop offset="1" stop-color="#8CCAAE"/>
</linearGradient>
<linearGradient id="paint3_linear_363_3271" x1="170.5" y1="16" x2="170.5" y2="14" gradientUnits="userSpaceOnUse">
<stop stop-color="#5CCC94"/>
<stop offset="1" stop-color="#8CCAAE"/>
</linearGradient>
<linearGradient id="paint4_linear_363_3271" x1="77.5" y1="16" x2="77.5" y2="14" gradientUnits="userSpaceOnUse">
<stop stop-color="#5CCC94"/>
<stop offset="1" stop-color="#8CCAAE"/>
</linearGradient>
<linearGradient id="paint5_linear_363_3271" x1="33" y1="30" x2="33" y2="1.58545e-07" gradientUnits="userSpaceOnUse">
<stop stop-color="#5CCC94"/>
<stop offset="1" stop-color="#8CCAAE"/>
</linearGradient>
<linearGradient id="paint6_linear_363_3271" x1="124" y1="30" x2="124" y2="1.58545e-07" gradientUnits="userSpaceOnUse">
<stop stop-color="#5CCC94"/>
<stop offset="1" stop-color="#8CCAAE"/>
</linearGradient>
<linearGradient id="paint7_linear_363_3271" x1="215" y1="30" x2="215" y2="1.58545e-07" gradientUnits="userSpaceOnUse">
<stop stop-color="#5CCC94"/>
<stop offset="1" stop-color="#8CCAAE"/>
</linearGradient>
</defs>
</svg>
