<svg width="239" height="58" viewBox="0 0 239 58" fill="none" xmlns="http://www.w3.org/2000/svg">
<path d="M20.501 36.8906V44H19.5977L16.751 38.5166V44H15.8525L15.8525 36.8906H16.751L19.6123 42.3887V36.8906H20.501ZM24.6074 42.7793V38.7168H25.4717V44H24.6514L24.6074 42.7793ZM24.7686 41.666L25.1104 41.6562C25.1104 42.0078 25.0794 42.3333 25.0176 42.6328C24.959 42.929 24.8613 43.1862 24.7246 43.4043C24.5911 43.6224 24.4137 43.7933 24.1924 43.917C23.971 44.0374 23.6992 44.0977 23.377 44.0977C23.1589 44.0977 22.9603 44.0602 22.7812 43.9854C22.6055 43.9105 22.4525 43.7949 22.3223 43.6387C22.1953 43.4824 22.096 43.279 22.0244 43.0283C21.9561 42.7777 21.9219 42.4766 21.9219 42.125V38.7168H22.7812V42.1348C22.7812 42.3724 22.8024 42.5693 22.8447 42.7256C22.887 42.8786 22.944 43.0007 23.0156 43.0918C23.0872 43.1797 23.167 43.2415 23.2549 43.2773C23.3428 43.3132 23.4323 43.3311 23.5234 43.3311C23.8294 43.3311 24.0736 43.2578 24.2559 43.1113C24.4382 42.9616 24.5684 42.7614 24.6465 42.5107C24.7279 42.2568 24.7686 41.9753 24.7686 41.666ZM27.6348 39.7666V44L26.7754 44V38.7168H27.5859L27.6348 39.7666ZM27.459 41.1582L27.0586 41.1436C27.0553 40.7822 27.0911 40.4486 27.166 40.1426C27.2409 39.8333 27.3532 39.5648 27.5029 39.3369C27.6559 39.109 27.8464 38.9333 28.0742 38.8096C28.3053 38.6826 28.5739 38.6191 28.8799 38.6191C29.0817 38.6191 29.2689 38.6549 29.4414 38.7266C29.6172 38.7949 29.7702 38.904 29.9004 39.0537C30.0306 39.2035 30.1315 39.3955 30.2031 39.6299C30.278 39.8643 30.3154 40.1475 30.3154 40.4795V44H29.4512V40.5234C29.4512 40.2467 29.4137 40.0254 29.3389 39.8594C29.2673 39.6934 29.1647 39.5729 29.0312 39.498C28.8978 39.4199 28.7383 39.3809 28.5527 39.3809C28.3411 39.3809 28.1637 39.4281 28.0205 39.5225C27.8805 39.6169 27.7682 39.7471 27.6836 39.9131C27.6022 40.0791 27.5436 40.2695 27.5078 40.4844C27.4753 40.696 27.459 40.9206 27.459 41.1582ZM30.3057 40.6602L29.7295 40.8457C29.7262 40.556 29.762 40.2777 29.8369 40.0107C29.9118 39.7438 30.0225 39.5062 30.1689 39.2979C30.3187 39.0895 30.5042 38.9251 30.7256 38.8047C30.9469 38.681 31.2041 38.6191 31.4971 38.6191C31.738 38.6191 31.9512 38.6566 32.1367 38.7314C32.3223 38.8063 32.4785 38.9219 32.6055 39.0781C32.7357 39.2311 32.8333 39.4281 32.8984 39.6689C32.9635 39.9098 32.9961 40.1963 32.9961 40.5283V44H32.1318V40.5186C32.1318 40.2223 32.0944 39.9928 32.0195 39.8301C31.9479 39.6641 31.8454 39.5485 31.7119 39.4834C31.5785 39.415 31.4189 39.3809 31.2334 39.3809C31.0837 39.3809 30.9502 39.415 30.833 39.4834C30.7191 39.5518 30.623 39.6462 30.5449 39.7666C30.4668 39.8838 30.4066 40.0189 30.3643 40.1719C30.3252 40.3249 30.3057 40.4876 30.3057 40.6602ZM35.1641 39.7666V44H34.3047V38.7168H35.1152L35.1641 39.7666ZM34.9883 41.1582L34.5879 41.1436C34.5846 40.7822 34.6204 40.4486 34.6953 40.1426C34.7702 39.8333 34.8825 39.5648 35.0322 39.3369C35.1852 39.109 35.3757 38.9333 35.6035 38.8096C35.8346 38.6826 36.1032 38.6191 36.4092 38.6191C36.611 38.6191 36.7982 38.6549 36.9707 38.7266C37.1465 38.7949 37.2995 38.904 37.4297 39.0537C37.5599 39.2035 37.6608 39.3955 37.7324 39.6299C37.8073 39.8643 37.8447 40.1475 37.8447 40.4795V44H36.9805V40.5234C36.9805 40.2467 36.943 40.0254 36.8682 39.8594C36.7965 39.6934 36.694 39.5729 36.5605 39.498C36.4271 39.4199 36.2676 39.3809 36.082 39.3809C35.8704 39.3809 35.693 39.4281 35.5498 39.5225C35.4098 39.6169 35.2975 39.7471 35.2129 39.9131C35.1315 40.0791 35.0729 40.2695 35.0371 40.4844C35.0046 40.696 34.9883 40.9206 34.9883 41.1582ZM37.835 40.6602L37.2588 40.8457C37.2555 40.556 37.2913 40.2777 37.3662 40.0107C37.4411 39.7438 37.5518 39.5062 37.6982 39.2979C37.848 39.0895 38.0335 38.9251 38.2549 38.8047C38.4762 38.681 38.7334 38.6191 39.0264 38.6191C39.2673 38.6191 39.4805 38.6566 39.666 38.7314C39.8516 38.8063 40.0078 38.9219 40.1348 39.0781C40.265 39.2311 40.3626 39.4281 40.4277 39.6689C40.4928 39.9098 40.5254 40.1963 40.5254 40.5283V44H39.6611V40.5186C39.6611 40.2223 39.6237 39.9928 39.5488 39.8301C39.4772 39.6641 39.3747 39.5485 39.2412 39.4834C39.1077 39.415 38.9482 39.3809 38.7627 39.3809C38.613 39.3809 38.4795 39.415 38.3623 39.4834C38.2484 39.5518 38.1523 39.6462 38.0742 39.7666C37.9961 39.8838 37.9359 40.0189 37.8936 40.1719C37.8545 40.3249 37.835 40.4876 37.835 40.6602ZM43.7188 44.0977C43.403 44.0977 43.1182 44.0505 42.8643 43.9561C42.6104 43.8617 42.3939 43.7184 42.2148 43.5264C42.0358 43.3311 41.8991 43.0853 41.8047 42.7891C41.7103 42.4928 41.6631 42.1429 41.6631 41.7393V41.1436C41.6631 40.6781 41.7168 40.2842 41.8242 39.9619C41.9349 39.6396 42.083 39.3809 42.2686 39.1855C42.4541 38.987 42.6641 38.8437 42.8984 38.7559C43.1328 38.6647 43.3737 38.6191 43.6211 38.6191C43.9531 38.6191 44.2363 38.6729 44.4707 38.7803C44.7051 38.8877 44.8955 39.0472 45.042 39.2588C45.1885 39.4704 45.2959 39.7308 45.3643 40.04C45.4359 40.3493 45.4717 40.7057 45.4717 41.1094V41.6123H42.1709V40.875H44.6074V40.7529C44.5944 40.4795 44.557 40.2386 44.4951 40.0303C44.4365 39.8219 44.3389 39.6592 44.2021 39.542C44.0654 39.4215 43.8717 39.3613 43.6211 39.3613C43.4616 39.3613 43.3135 39.389 43.1768 39.4443C43.0433 39.4964 42.9277 39.5892 42.8301 39.7227C42.7357 39.8529 42.6608 40.0335 42.6055 40.2646C42.5534 40.4958 42.5273 40.7887 42.5273 41.1436V41.7393C42.5273 42.0225 42.5534 42.2666 42.6055 42.4717C42.6608 42.6735 42.7406 42.8411 42.8447 42.9746C42.9521 43.1048 43.0824 43.2025 43.2354 43.2676C43.3916 43.3294 43.569 43.3604 43.7676 43.3604C44.0573 43.3604 44.2965 43.305 44.4854 43.1943C44.6742 43.0804 44.8385 42.9355 44.9785 42.7598L45.4326 43.3018C45.3382 43.4352 45.2145 43.5638 45.0615 43.6875C44.9118 43.8079 44.7262 43.9072 44.5049 43.9854C44.2868 44.0602 44.0247 44.0977 43.7188 44.0977ZM47.3809 39.5469V44H46.5166V38.7168H47.3516L47.3809 39.5469ZM48.6943 38.6875L48.6992 39.5273C48.6276 39.5111 48.5625 39.5013 48.5039 39.498C48.4486 39.4915 48.3835 39.4883 48.3086 39.4883C48.1458 39.4883 48.0026 39.5208 47.8789 39.5859C47.7585 39.651 47.6543 39.7422 47.5664 39.8594C47.4785 39.9766 47.4085 40.1165 47.3564 40.2793C47.3044 40.4388 47.2686 40.6146 47.249 40.8066L47.0244 40.9531C47.0244 40.6341 47.0488 40.3346 47.0977 40.0547C47.1497 39.7747 47.2295 39.5273 47.3369 39.3125C47.4443 39.0944 47.5811 38.9251 47.7471 38.8047C47.9163 38.681 48.1182 38.6191 48.3525 38.6191C48.4046 38.6191 48.4681 38.6273 48.543 38.6436C48.6211 38.6566 48.6715 38.6712 48.6943 38.6875ZM15.75 47.5L15.75 55H14.8857L14.8857 47.5H15.75ZM18.4307 49.7168L16.5508 52.1826L15.3887 53.5205L15.3301 52.5586L16.1309 51.4551L17.3906 49.7168H18.4307ZM17.6396 55L16.1553 52.4805L16.5996 51.6748L18.6455 55H17.6396ZM21.1846 55.0977C20.8688 55.0977 20.584 55.0505 20.3301 54.9561C20.0762 54.8617 19.8597 54.7184 19.6807 54.5264C19.5016 54.3311 19.3649 54.0853 19.2705 53.7891C19.1761 53.4928 19.1289 53.1429 19.1289 52.7393V52.1436C19.1289 51.6781 19.1826 51.2842 19.29 50.9619C19.4007 50.6396 19.5488 50.3809 19.7344 50.1855C19.9199 49.987 20.1299 49.8438 20.3643 49.7559C20.5986 49.6647 20.8395 49.6191 21.0869 49.6191C21.4189 49.6191 21.7021 49.6729 21.9365 49.7803C22.1709 49.8877 22.3613 50.0472 22.5078 50.2588C22.6543 50.4704 22.7617 50.7308 22.8301 51.04C22.9017 51.3493 22.9375 51.7057 22.9375 52.1094V52.6123H19.6367V51.875H22.0732V51.7529C22.0602 51.4795 22.0228 51.2386 21.9609 51.0303C21.9023 50.8219 21.8047 50.6592 21.668 50.542C21.5313 50.4215 21.3376 50.3613 21.0869 50.3613C20.9274 50.3613 20.7793 50.389 20.6426 50.4443C20.5091 50.4964 20.3936 50.5892 20.2959 50.7227C20.2015 50.8529 20.1266 51.0335 20.0713 51.2646C20.0192 51.4958 19.9932 51.7887 19.9932 52.1436V52.7393C19.9932 53.0225 20.0192 53.2666 20.0713 53.4717C20.1266 53.6735 20.2064 53.8411 20.3105 53.9746C20.418 54.1048 20.5482 54.2025 20.7012 54.2676C20.8574 54.3294 21.0348 54.3604 21.2334 54.3604C21.5231 54.3604 21.7624 54.305 21.9512 54.1943C22.14 54.0804 22.3044 53.9355 22.4443 53.7598L22.8984 54.3018C22.804 54.4352 22.6803 54.5638 22.5273 54.6875C22.3776 54.8079 22.1921 54.9072 21.9707 54.9854C21.7526 55.0602 21.4906 55.0977 21.1846 55.0977ZM24.8467 50.8447V55H23.9824V49.7168H24.7979L24.8467 50.8447ZM24.6367 52.1582L24.2852 52.1436C24.2819 51.7822 24.3226 51.4486 24.4072 51.1426C24.4951 50.8333 24.6188 50.5648 24.7783 50.3369C24.9411 50.109 25.1348 49.9333 25.3594 49.8096C25.584 49.6826 25.833 49.6191 26.1064 49.6191C26.3213 49.6191 26.5166 49.6549 26.6924 49.7266C26.8682 49.7949 27.0179 49.9056 27.1416 50.0586C27.2653 50.2116 27.3597 50.4102 27.4248 50.6543C27.4932 50.8952 27.5273 51.1898 27.5273 51.5381V55H26.6631V51.5283C26.6631 51.2516 26.6322 51.0303 26.5703 50.8643C26.5117 50.695 26.4206 50.5729 26.2969 50.498C26.1764 50.4199 26.0234 50.3809 25.8379 50.3809C25.6686 50.3809 25.5107 50.4281 25.3643 50.5225C25.2178 50.6169 25.0892 50.7471 24.9785 50.9131C24.8711 51.0791 24.7865 51.2695 24.7246 51.4844C24.666 51.696 24.6367 51.9206 24.6367 52.1582ZM30.7549 49.7168V50.4102H28.2891V49.7168H30.7549ZM29.0947 48.4326H29.959V53.6914C29.959 53.8704 29.9801 54.0055 30.0225 54.0967C30.068 54.1878 30.125 54.248 30.1934 54.2773C30.2617 54.3066 30.335 54.3213 30.4131 54.3213C30.4717 54.3213 30.5368 54.3148 30.6084 54.3018C30.68 54.2855 30.7288 54.2725 30.7549 54.2627L30.75 55C30.6914 55.0228 30.6133 55.0439 30.5156 55.0635C30.418 55.0863 30.2943 55.0977 30.1445 55.0977C29.959 55.0977 29.7865 55.0537 29.627 54.9658C29.4674 54.8779 29.3389 54.7314 29.2412 54.5264C29.1436 54.318 29.0947 54.0381 29.0947 53.6865V48.4326ZM33.6748 55.0977C33.359 55.0977 33.0742 55.0505 32.8203 54.9561C32.5664 54.8617 32.3499 54.7184 32.1709 54.5264C31.9919 54.3311 31.8551 54.0853 31.7607 53.7891C31.6663 53.4928 31.6191 53.1429 31.6191 52.7393V52.1436C31.6191 51.6781 31.6729 51.2842 31.7803 50.9619C31.891 50.6396 32.0391 50.3809 32.2246 50.1855C32.4102 49.987 32.6201 49.8437 32.8545 49.7559C33.0889 49.6647 33.3298 49.6191 33.5771 49.6191C33.9092 49.6191 34.1924 49.6729 34.4268 49.7803C34.6611 49.8877 34.8516 50.0472 34.998 50.2588C35.1445 50.4704 35.252 50.7308 35.3203 51.04C35.3919 51.3493 35.4277 51.7057 35.4277 52.1094V52.6123L32.127 52.6123V51.875L34.5635 51.875V51.7529C34.5505 51.4795 34.513 51.2386 34.4512 51.0303C34.3926 50.8219 34.2949 50.6592 34.1582 50.542C34.0215 50.4215 33.8278 50.3613 33.5771 50.3613C33.4176 50.3613 33.2695 50.389 33.1328 50.4443C32.9993 50.4964 32.8838 50.5892 32.7861 50.7227C32.6917 50.8529 32.6169 51.0335 32.5615 51.2646C32.5094 51.4958 32.4834 51.7887 32.4834 52.1436V52.7393C32.4834 53.0225 32.5094 53.2666 32.5615 53.4717C32.6169 53.6735 32.6966 53.8411 32.8008 53.9746C32.9082 54.1048 33.0384 54.2025 33.1914 54.2676C33.3477 54.3294 33.5251 54.3604 33.7236 54.3604C34.0133 54.3604 34.2526 54.305 34.4414 54.1943C34.6302 54.0804 34.7946 53.9355 34.9346 53.7598L35.3887 54.3018C35.2943 54.4352 35.1706 54.5638 35.0176 54.6875C34.8678 54.8079 34.6823 54.9072 34.4609 54.9854C34.2428 55.0602 33.9808 55.0977 33.6748 55.0977ZM37.3418 47.5V55H36.4775V47.5H37.3418ZM40.0225 49.7168L38.1426 52.1826L36.9805 53.5205L36.9219 52.5586L37.7227 51.4551L38.9824 49.7168H40.0225ZM39.2314 55L37.7471 52.4805L38.1914 51.6748L40.2373 55H39.2314ZM42.7764 55.0977C42.4606 55.0977 42.1758 55.0505 41.9219 54.9561C41.668 54.8617 41.4515 54.7184 41.2725 54.5264C41.0934 54.3311 40.9567 54.0853 40.8623 53.7891C40.7679 53.4928 40.7207 53.1429 40.7207 52.7393V52.1436C40.7207 51.6781 40.7744 51.2842 40.8818 50.9619C40.9925 50.6396 41.1406 50.3809 41.3262 50.1855C41.5117 49.987 41.7217 49.8437 41.9561 49.7559C42.1904 49.6647 42.4313 49.6191 42.6787 49.6191C43.0107 49.6191 43.2939 49.6729 43.5283 49.7803C43.7627 49.8877 43.9531 50.0472 44.0996 50.2588C44.2461 50.4704 44.3535 50.7308 44.4219 51.04C44.4935 51.3493 44.5293 51.7057 44.5293 52.1094V52.6123H41.2285V51.875H43.665V51.7529C43.652 51.4795 43.6146 51.2386 43.5527 51.0303C43.4941 50.8219 43.3965 50.6592 43.2598 50.542C43.123 50.4215 42.9294 50.3613 42.6787 50.3613C42.5192 50.3613 42.3711 50.389 42.2344 50.4443C42.1009 50.4964 41.9854 50.5892 41.8877 50.7227C41.7933 50.8529 41.7184 51.0335 41.6631 51.2646C41.611 51.4958 41.585 51.7887 41.585 52.1436V52.7393C41.585 53.0225 41.611 53.2666 41.6631 53.4717C41.7184 53.6735 41.7982 53.8411 41.9023 53.9746C42.0098 54.1048 42.14 54.2025 42.293 54.2676C42.4492 54.3294 42.6266 54.3604 42.8252 54.3604C43.1149 54.3604 43.3542 54.305 43.543 54.1943C43.7318 54.0804 43.8962 53.9355 44.0361 53.7598L44.4902 54.3018C44.3958 54.4352 44.2721 54.5638 44.1191 54.6875C43.9694 54.8079 43.7839 54.9072 43.5625 54.9854C43.3444 55.0602 43.0824 55.0977 42.7764 55.0977ZM46.4385 50.8447V55H45.5742V49.7168H46.3896L46.4385 50.8447ZM46.2285 52.1582L45.877 52.1436C45.8737 51.7822 45.9144 51.4486 45.999 51.1426C46.0869 50.8333 46.2106 50.5648 46.3701 50.3369C46.5329 50.109 46.7266 49.9333 46.9512 49.8096C47.1758 49.6826 47.4248 49.6191 47.6982 49.6191C47.9131 49.6191 48.1084 49.6549 48.2842 49.7266C48.46 49.7949 48.6097 49.9056 48.7334 50.0586C48.8571 50.2116 48.9515 50.4102 49.0166 50.6543C49.085 50.8952 49.1191 51.1898 49.1191 51.5381V55H48.2549V51.5283C48.2549 51.2516 48.224 51.0303 48.1621 50.8643C48.1035 50.695 48.0124 50.5729 47.8887 50.498C47.7682 50.4199 47.6152 50.3809 47.4297 50.3809C47.2604 50.3809 47.1025 50.4281 46.9561 50.5225C46.8096 50.6169 46.681 50.7471 46.5703 50.9131C46.4629 51.0791 46.3783 51.2695 46.3164 51.4844C46.2578 51.696 46.2285 51.9206 46.2285 52.1582Z" fill="url(#paint0_linear_363_3022)"/>
<path d="M102.86 40.8906V48H101.962V40.8906H102.86ZM105.258 44.0889V44.8604H102.689V44.0889H105.258ZM105.663 40.8906V41.6621H102.689V40.8906H105.663ZM109.081 47.0967V44.2305C109.081 44.0221 109.049 43.8545 108.983 43.7275C108.922 43.6006 108.827 43.5078 108.7 43.4492C108.576 43.3906 108.42 43.3613 108.231 43.3613C108.049 43.3613 107.891 43.3988 107.758 43.4736C107.628 43.5485 107.527 43.6478 107.455 43.7715C107.387 43.8952 107.353 44.0319 107.353 44.1816H106.488C106.488 43.9928 106.529 43.8057 106.61 43.6201C106.695 43.4346 106.815 43.2669 106.972 43.1172C107.128 42.9642 107.315 42.8438 107.533 42.7559C107.755 42.6647 108.002 42.6191 108.275 42.6191C108.601 42.6191 108.889 42.6729 109.14 42.7803C109.39 42.8844 109.587 43.0553 109.73 43.293C109.874 43.5306 109.945 43.8464 109.945 44.2402V46.8477C109.945 47.0234 109.958 47.2106 109.984 47.4092C110.014 47.6077 110.054 47.7786 110.106 47.9219V48H109.213C109.171 47.8958 109.138 47.7575 109.115 47.585C109.092 47.4092 109.081 47.2464 109.081 47.0967ZM109.218 44.7969L109.228 45.4316H108.627C108.422 45.4316 108.235 45.4544 108.065 45.5C107.899 45.5456 107.756 45.6123 107.636 45.7002C107.515 45.7848 107.423 45.8906 107.357 46.0176C107.296 46.1445 107.265 46.2894 107.265 46.4521C107.265 46.6637 107.294 46.833 107.353 46.96C107.411 47.0837 107.499 47.1732 107.616 47.2285C107.733 47.2839 107.882 47.3115 108.061 47.3115C108.279 47.3115 108.471 47.2611 108.637 47.1602C108.803 47.0592 108.931 46.9372 109.022 46.7939C109.117 46.6507 109.161 46.5173 109.154 46.3936L109.345 46.7988C109.332 46.9258 109.289 47.0641 109.218 47.2139C109.149 47.3604 109.053 47.502 108.93 47.6387C108.806 47.7721 108.66 47.8828 108.49 47.9707C108.324 48.0553 108.137 48.0977 107.929 48.0977C107.623 48.0977 107.354 48.0391 107.123 47.9219C106.895 47.8047 106.718 47.6322 106.591 47.4043C106.464 47.1764 106.4 46.8949 106.4 46.5596C106.4 46.3057 106.444 46.0713 106.532 45.8564C106.62 45.6416 106.75 45.4561 106.923 45.2998C107.095 45.1403 107.312 45.0166 107.572 44.9287C107.836 44.8408 108.14 44.7969 108.485 44.7969H109.218ZM113.119 47.3604C113.292 47.3604 113.448 47.3262 113.588 47.2578C113.731 47.1862 113.848 47.0755 113.939 46.9258C114.031 46.7728 114.083 46.5742 114.096 46.3301H114.906C114.893 46.6816 114.804 46.9909 114.638 47.2578C114.475 47.5215 114.26 47.7282 113.993 47.8779C113.729 48.0244 113.438 48.0977 113.119 48.0977C112.777 48.0977 112.479 48.0423 112.226 47.9316C111.975 47.821 111.767 47.6615 111.601 47.4531C111.438 47.2415 111.316 46.986 111.234 46.6865C111.153 46.3838 111.112 46.0404 111.112 45.6562V45.0605C111.112 44.6764 111.153 44.3346 111.234 44.0352C111.316 43.7324 111.438 43.4769 111.601 43.2686C111.767 43.057 111.975 42.8958 112.226 42.7852C112.479 42.6745 112.777 42.6191 113.119 42.6191C113.477 42.6191 113.786 42.6956 114.047 42.8486C114.311 42.9984 114.516 43.2165 114.662 43.5029C114.812 43.7861 114.893 44.1296 114.906 44.5332H114.096C114.083 44.2728 114.035 44.0563 113.954 43.8838C113.873 43.708 113.762 43.5778 113.622 43.4932C113.482 43.4053 113.314 43.3613 113.119 43.3613C112.891 43.3613 112.702 43.402 112.553 43.4834C112.406 43.5615 112.291 43.6755 112.206 43.8252C112.121 43.9749 112.061 44.154 112.025 44.3623C111.993 44.5706 111.977 44.8034 111.977 45.0605V45.6562C111.977 45.9134 111.993 46.1478 112.025 46.3594C112.061 46.5677 112.12 46.7467 112.201 46.8965C112.286 47.0462 112.403 47.1618 112.553 47.2432C112.702 47.3213 112.891 47.3604 113.119 47.3604ZM117.836 42.7168V43.4102H115.37V42.7168H117.836ZM116.176 41.4326H117.04V46.6914C117.04 46.8704 117.061 47.0055 117.104 47.0967C117.149 47.1878 117.206 47.248 117.274 47.2773C117.343 47.3066 117.416 47.3213 117.494 47.3213C117.553 47.3213 117.618 47.3148 117.689 47.3018C117.761 47.2855 117.81 47.2725 117.836 47.2627L117.831 48C117.772 48.0228 117.694 48.0439 117.597 48.0635C117.499 48.0863 117.375 48.0977 117.226 48.0977C117.04 48.0977 116.868 48.0537 116.708 47.9658C116.549 47.8779 116.42 47.7314 116.322 47.5264C116.225 47.318 116.176 47.0381 116.176 46.6865V41.4326ZM121.537 46.7793V42.7168H122.401V48H121.581L121.537 46.7793ZM121.698 45.666L122.04 45.6562C122.04 46.0078 122.009 46.3333 121.947 46.6328C121.889 46.929 121.791 47.1862 121.654 47.4043C121.521 47.6224 121.343 47.7933 121.122 47.917C120.901 48.0374 120.629 48.0977 120.307 48.0977C120.089 48.0977 119.89 48.0602 119.711 47.9854C119.535 47.9105 119.382 47.7949 119.252 47.6387C119.125 47.4824 119.026 47.279 118.954 47.0283C118.886 46.7777 118.852 46.4766 118.852 46.125V42.7168H119.711V46.1348C119.711 46.3724 119.732 46.5693 119.774 46.7256C119.817 46.8786 119.874 47.0007 119.945 47.0918C120.017 47.1797 120.097 47.2415 120.185 47.2773C120.272 47.3132 120.362 47.3311 120.453 47.3311C120.759 47.3311 121.003 47.2578 121.186 47.1113C121.368 46.9616 121.498 46.7614 121.576 46.5107C121.658 46.2568 121.698 45.9753 121.698 45.666ZM124.564 43.5469V48H123.7V42.7168H124.535L124.564 43.5469ZM125.878 42.6875L125.883 43.5273C125.811 43.5111 125.746 43.5013 125.688 43.498C125.632 43.4915 125.567 43.4883 125.492 43.4883C125.329 43.4883 125.186 43.5208 125.062 43.5859C124.942 43.651 124.838 43.7422 124.75 43.8594C124.662 43.9766 124.592 44.1165 124.54 44.2793C124.488 44.4388 124.452 44.6146 124.433 44.8066L124.208 44.9531C124.208 44.6341 124.232 44.3346 124.281 44.0547C124.333 43.7747 124.413 43.5273 124.521 43.3125C124.628 43.0944 124.765 42.9251 124.931 42.8047C125.1 42.681 125.302 42.6191 125.536 42.6191C125.588 42.6191 125.652 42.6273 125.727 42.6436C125.805 42.6566 125.855 42.6712 125.878 42.6875ZM128.539 48.0977C128.223 48.0977 127.938 48.0505 127.685 47.9561C127.431 47.8617 127.214 47.7184 127.035 47.5264C126.856 47.3311 126.719 47.0853 126.625 46.7891C126.531 46.4928 126.483 46.1429 126.483 45.7393V45.1436C126.483 44.6781 126.537 44.2842 126.645 43.9619C126.755 43.6396 126.903 43.3809 127.089 43.1855C127.274 42.987 127.484 42.8437 127.719 42.7559C127.953 42.6647 128.194 42.6191 128.441 42.6191C128.773 42.6191 129.057 42.6729 129.291 42.7803C129.525 42.8877 129.716 43.0472 129.862 43.2588C130.009 43.4704 130.116 43.7308 130.185 44.04C130.256 44.3493 130.292 44.7057 130.292 45.1094V45.6123L126.991 45.6123V44.875L129.428 44.875V44.7529C129.415 44.4795 129.377 44.2386 129.315 44.0303C129.257 43.8219 129.159 43.6592 129.022 43.542C128.886 43.4215 128.692 43.3613 128.441 43.3613C128.282 43.3613 128.134 43.389 127.997 43.4443C127.864 43.4964 127.748 43.5892 127.65 43.7227C127.556 43.8529 127.481 44.0335 127.426 44.2646C127.374 44.4958 127.348 44.7887 127.348 45.1436V45.7393C127.348 46.0225 127.374 46.2666 127.426 46.4717C127.481 46.6735 127.561 46.8411 127.665 46.9746C127.772 47.1048 127.903 47.2025 128.056 47.2676C128.212 47.3294 128.389 47.3604 128.588 47.3604C128.878 47.3604 129.117 47.305 129.306 47.1943C129.494 47.0804 129.659 46.9355 129.799 46.7598L130.253 47.3018C130.159 47.4352 130.035 47.5638 129.882 47.6875C129.732 47.8079 129.547 47.9072 129.325 47.9854C129.107 48.0602 128.845 48.0977 128.539 48.0977ZM132.201 43.5469V48H131.337V42.7168H132.172L132.201 43.5469ZM133.515 42.6875L133.52 43.5273C133.448 43.5111 133.383 43.5013 133.324 43.498C133.269 43.4915 133.204 43.4883 133.129 43.4883C132.966 43.4883 132.823 43.5208 132.699 43.5859C132.579 43.651 132.475 43.7422 132.387 43.8594C132.299 43.9766 132.229 44.1165 132.177 44.2793C132.125 44.4388 132.089 44.6146 132.069 44.8066L131.845 44.9531C131.845 44.6341 131.869 44.3346 131.918 44.0547C131.97 43.7747 132.05 43.5273 132.157 43.3125C132.265 43.0944 132.401 42.9251 132.567 42.8047C132.737 42.681 132.938 42.6191 133.173 42.6191C133.225 42.6191 133.288 42.6273 133.363 42.6436C133.441 42.6566 133.492 42.6712 133.515 42.6875ZM135.312 42.7168V48H134.452V42.7168H135.312ZM134.403 41.3154C134.403 41.1689 134.444 41.0452 134.525 40.9443C134.607 40.8434 134.729 40.793 134.892 40.793C135.054 40.793 135.176 40.8434 135.258 40.9443C135.342 41.0452 135.385 41.1689 135.385 41.3154C135.385 41.4554 135.342 41.5758 135.258 41.6768C135.176 41.7744 135.054 41.8232 134.892 41.8232C134.729 41.8232 134.607 41.7744 134.525 41.6768C134.444 41.5758 134.403 41.4554 134.403 41.3154ZM137.543 43.8447V48H136.679V42.7168H137.494L137.543 43.8447ZM137.333 45.1582L136.981 45.1436C136.978 44.7822 137.019 44.4486 137.104 44.1426C137.191 43.8333 137.315 43.5648 137.475 43.3369C137.637 43.109 137.831 42.9333 138.056 42.8096C138.28 42.6826 138.529 42.6191 138.803 42.6191C139.018 42.6191 139.213 42.6549 139.389 42.7266C139.564 42.7949 139.714 42.9056 139.838 43.0586C139.962 43.2116 140.056 43.4102 140.121 43.6543C140.189 43.8952 140.224 44.1898 140.224 44.5381V48H139.359V44.5283C139.359 44.2516 139.328 44.0303 139.267 43.8643C139.208 43.695 139.117 43.5729 138.993 43.498C138.873 43.4199 138.72 43.3809 138.534 43.3809C138.365 43.3809 138.207 43.4281 138.061 43.5225C137.914 43.6169 137.785 43.7471 137.675 43.9131C137.567 44.0791 137.483 44.2695 137.421 44.4844C137.362 44.696 137.333 44.9206 137.333 45.1582ZM144.384 42.7168H145.16V48.0439C145.16 48.5094 145.079 48.8936 144.916 49.1963C144.757 49.499 144.534 49.722 144.247 49.8652C143.961 50.0117 143.63 50.085 143.256 50.085C143.122 50.085 142.955 50.0605 142.753 50.0117C142.551 49.9629 142.349 49.888 142.147 49.7871C141.946 49.6895 141.78 49.5658 141.649 49.416L142.006 48.8154C142.191 49.0042 142.388 49.1393 142.597 49.2207C142.805 49.3021 143.004 49.3428 143.192 49.3428C143.417 49.3428 143.612 49.3021 143.778 49.2207C143.944 49.1393 144.073 49.0059 144.164 48.8203C144.255 48.638 144.301 48.3939 144.301 48.0879V43.8789L144.384 42.7168ZM141.347 45.6123V45.1191C141.347 44.6829 141.387 44.3086 141.469 43.9961C141.55 43.6803 141.667 43.4215 141.82 43.2197C141.977 43.0146 142.164 42.8633 142.382 42.7656C142.6 42.668 142.844 42.6191 143.114 42.6191C143.388 42.6191 143.624 42.6745 143.822 42.7852C144.021 42.8958 144.185 43.057 144.315 43.2686C144.449 43.4769 144.553 43.7308 144.628 44.0303C144.706 44.3265 144.76 44.6618 144.789 45.0361V45.6953C144.76 46.0664 144.706 46.4001 144.628 46.6963C144.553 46.9925 144.447 47.2448 144.311 47.4531C144.177 47.6615 144.011 47.821 143.812 47.9316C143.614 48.0423 143.378 48.0977 143.104 48.0977C142.838 48.0977 142.597 48.0472 142.382 47.9463C142.167 47.8421 141.981 47.6875 141.825 47.4824C141.672 47.2741 141.553 47.0153 141.469 46.7061C141.387 46.3936 141.347 46.029 141.347 45.6123ZM142.211 45.1191V45.6123C142.211 45.9053 142.232 46.1608 142.274 46.3789C142.317 46.5937 142.382 46.7728 142.47 46.916C142.561 47.056 142.676 47.1602 142.816 47.2285C142.96 47.2969 143.131 47.3311 143.329 47.3311C143.57 47.3311 143.767 47.2725 143.92 47.1553C144.073 47.0381 144.195 46.8835 144.286 46.6914C144.381 46.4961 144.455 46.2861 144.511 46.0615V44.6748C144.478 44.5088 144.431 44.3493 144.369 44.1963C144.311 44.04 144.234 43.9017 144.14 43.7812C144.045 43.6576 143.931 43.5599 143.798 43.4883C143.668 43.4167 143.515 43.3809 143.339 43.3809C143.14 43.3809 142.969 43.4167 142.826 43.4883C142.683 43.5599 142.566 43.6673 142.475 43.8105C142.383 43.9538 142.317 44.1344 142.274 44.3525C142.232 44.5706 142.211 44.8262 142.211 45.1191Z" fill="url(#paint1_linear_363_3022)"/>
<path d="M192.514 42.9209L194.223 36.8906H195.199L192.992 44H192.304L192.514 42.9209ZM190.98 36.8906L192.675 42.9209L192.899 44H192.211L190.004 36.8906H190.98ZM197.724 44.0977C197.408 44.0977 197.123 44.0505 196.869 43.9561C196.615 43.8617 196.399 43.7184 196.22 43.5264C196.041 43.3311 195.904 43.0853 195.81 42.7891C195.715 42.4928 195.668 42.1429 195.668 41.7393V41.1436C195.668 40.6781 195.722 40.2842 195.829 39.9619C195.94 39.6396 196.088 39.3809 196.273 39.1855C196.459 38.987 196.669 38.8438 196.903 38.7559C197.138 38.6647 197.379 38.6191 197.626 38.6191C197.958 38.6191 198.241 38.6729 198.476 38.7803C198.71 38.8877 198.9 39.0472 199.047 39.2588C199.193 39.4704 199.301 39.7308 199.369 40.04C199.441 40.3493 199.477 40.7057 199.477 41.1094V41.6123H196.176V40.875H198.612V40.7529C198.599 40.4795 198.562 40.2386 198.5 40.0303C198.441 39.8219 198.344 39.6592 198.207 39.542C198.07 39.4215 197.877 39.3613 197.626 39.3613C197.466 39.3613 197.318 39.389 197.182 39.4443C197.048 39.4964 196.933 39.5892 196.835 39.7227C196.741 39.8529 196.666 40.0335 196.61 40.2646C196.558 40.4958 196.532 40.7887 196.532 41.1436V41.7393C196.532 42.0225 196.558 42.2666 196.61 42.4717C196.666 42.6735 196.745 42.8411 196.85 42.9746C196.957 43.1048 197.087 43.2025 197.24 43.2676C197.396 43.3294 197.574 43.3604 197.772 43.3604C198.062 43.3604 198.301 43.305 198.49 43.1943C198.679 43.0804 198.843 42.9355 198.983 42.7598L199.438 43.3018C199.343 43.4352 199.219 43.5638 199.066 43.6875C198.917 43.8079 198.731 43.9072 198.51 43.9854C198.292 44.0602 198.03 44.0977 197.724 44.0977ZM201.386 39.5469V44H200.521V38.7168H201.356L201.386 39.5469ZM202.699 38.6875L202.704 39.5273C202.632 39.5111 202.567 39.5013 202.509 39.498C202.453 39.4915 202.388 39.4883 202.313 39.4883C202.151 39.4883 202.007 39.5208 201.884 39.5859C201.763 39.651 201.659 39.7422 201.571 39.8594C201.483 39.9766 201.413 40.1165 201.361 40.2793C201.309 40.4388 201.273 40.6146 201.254 40.8066L201.029 40.9531C201.029 40.6341 201.054 40.3346 201.103 40.0547C201.155 39.7747 201.234 39.5273 201.342 39.3125C201.449 39.0944 201.586 38.9251 201.752 38.8047C201.921 38.681 202.123 38.6191 202.357 38.6191C202.41 38.6191 202.473 38.6273 202.548 38.6436C202.626 38.6566 202.676 38.6712 202.699 38.6875ZM204.496 38.7168V44H203.637V38.7168H204.496ZM203.588 37.3154C203.588 37.1689 203.629 37.0452 203.71 36.9443C203.791 36.8434 203.913 36.793 204.076 36.793C204.239 36.793 204.361 36.8434 204.442 36.9443C204.527 37.0452 204.569 37.1689 204.569 37.3154C204.569 37.4554 204.527 37.5758 204.442 37.6768C204.361 37.7744 204.239 37.8232 204.076 37.8232C203.913 37.8232 203.791 37.7744 203.71 37.6768C203.629 37.5758 203.588 37.4554 203.588 37.3154ZM206.967 44H206.103V38.2578C206.103 37.8574 206.169 37.5189 206.303 37.2422C206.439 36.9655 206.633 36.7555 206.884 36.6123C207.138 36.4691 207.437 36.3975 207.782 36.3975C207.987 36.3975 208.184 36.4268 208.373 36.4854C208.562 36.5407 208.757 36.6107 208.959 36.6953L208.812 37.457C208.695 37.3984 208.552 37.3431 208.383 37.291C208.214 37.2357 208.036 37.208 207.851 37.208C207.525 37.208 207.296 37.2959 207.162 37.4717C207.032 37.6442 206.967 37.9062 206.967 38.2578V44ZM207.821 38.7168V39.4102H205.414V38.7168H207.821ZM209.374 38.7168V44H208.51V38.7168H209.374ZM212.597 43.3604C212.769 43.3604 212.925 43.3262 213.065 43.2578C213.209 43.1862 213.326 43.0755 213.417 42.9258C213.508 42.7728 213.56 42.5742 213.573 42.3301H214.384C214.371 42.6816 214.281 42.9909 214.115 43.2578C213.952 43.5215 213.738 43.7282 213.471 43.8779C213.207 44.0244 212.916 44.0977 212.597 44.0977C212.255 44.0977 211.957 44.0423 211.703 43.9316C211.452 43.821 211.244 43.6615 211.078 43.4531C210.915 43.2415 210.793 42.986 210.712 42.6865C210.631 42.3838 210.59 42.0404 210.59 41.6562V41.0605C210.59 40.6764 210.631 40.3346 210.712 40.0352C210.793 39.7324 210.915 39.4769 211.078 39.2686C211.244 39.057 211.452 38.8958 211.703 38.7852C211.957 38.6745 212.255 38.6191 212.597 38.6191C212.955 38.6191 213.264 38.6956 213.524 38.8486C213.788 38.9984 213.993 39.2165 214.14 39.5029C214.289 39.7861 214.371 40.1296 214.384 40.5332H213.573C213.56 40.2728 213.513 40.0563 213.432 39.8838C213.35 39.708 213.24 39.5778 213.1 39.4932C212.96 39.4053 212.792 39.3613 212.597 39.3613C212.369 39.3613 212.18 39.402 212.03 39.4834C211.884 39.5615 211.768 39.6755 211.684 39.8252C211.599 39.9749 211.539 40.154 211.503 40.3623C211.47 40.5706 211.454 40.8034 211.454 41.0605V41.6562C211.454 41.9134 211.47 42.1478 211.503 42.3594C211.539 42.5677 211.597 42.7467 211.679 42.8965C211.763 43.0462 211.881 43.1618 212.03 43.2432C212.18 43.3213 212.369 43.3604 212.597 43.3604ZM217.973 43.0967V40.2305C217.973 40.0221 217.94 39.8545 217.875 39.7275C217.813 39.6006 217.719 39.5078 217.592 39.4492C217.468 39.3906 217.312 39.3613 217.123 39.3613C216.941 39.3613 216.783 39.3988 216.649 39.4736C216.519 39.5485 216.418 39.6478 216.347 39.7715C216.278 39.8952 216.244 40.0319 216.244 40.1816H215.38C215.38 39.9928 215.421 39.8057 215.502 39.6201C215.587 39.4346 215.707 39.2669 215.863 39.1172C216.02 38.9642 216.207 38.8437 216.425 38.7559C216.646 38.6647 216.894 38.6191 217.167 38.6191C217.493 38.6191 217.781 38.6729 218.031 38.7803C218.282 38.8844 218.479 39.0553 218.622 39.293C218.765 39.5306 218.837 39.8464 218.837 40.2402V42.8477C218.837 43.0234 218.85 43.2106 218.876 43.4092C218.905 43.6077 218.946 43.7786 218.998 43.9219V44H218.104C218.062 43.8958 218.03 43.7575 218.007 43.585C217.984 43.4092 217.973 43.2464 217.973 43.0967ZM218.109 40.7969L218.119 41.4316H217.519C217.313 41.4316 217.126 41.4544 216.957 41.5C216.791 41.5456 216.648 41.6123 216.527 41.7002C216.407 41.7848 216.314 41.8906 216.249 42.0176C216.187 42.1445 216.156 42.2894 216.156 42.4521C216.156 42.6637 216.186 42.833 216.244 42.96C216.303 43.0837 216.391 43.1732 216.508 43.2285C216.625 43.2839 216.773 43.3115 216.952 43.3115C217.17 43.3115 217.362 43.2611 217.528 43.1602C217.694 43.0592 217.823 42.9372 217.914 42.7939C218.008 42.6507 218.052 42.5173 218.046 42.3936L218.236 42.7988C218.223 42.9258 218.181 43.0641 218.109 43.2139C218.041 43.3604 217.945 43.502 217.821 43.6387C217.698 43.7721 217.551 43.8828 217.382 43.9707C217.216 44.0553 217.029 44.0977 216.82 44.0977C216.514 44.0977 216.246 44.0391 216.015 43.9219C215.787 43.8047 215.609 43.6322 215.482 43.4043C215.355 43.1764 215.292 42.8949 215.292 42.5596C215.292 42.3057 215.336 42.0713 215.424 41.8564C215.512 41.6416 215.642 41.4561 215.814 41.2998C215.987 41.1403 216.203 41.0166 216.464 40.9287C216.728 40.8408 217.032 40.7969 217.377 40.7969H218.109ZM222.108 38.7168V39.4102H219.643V38.7168H222.108ZM220.448 37.4326H221.312V42.6914C221.312 42.8704 221.334 43.0055 221.376 43.0967C221.422 43.1878 221.479 43.248 221.547 43.2773C221.615 43.3066 221.688 43.3213 221.767 43.3213C221.825 43.3213 221.89 43.3148 221.962 43.3018C222.034 43.2855 222.082 43.2725 222.108 43.2627L222.104 44C222.045 44.0228 221.967 44.0439 221.869 44.0635C221.771 44.0863 221.648 44.0977 221.498 44.0977C221.312 44.0977 221.14 44.0537 220.98 43.9658C220.821 43.8779 220.692 43.7314 220.595 43.5264C220.497 43.318 220.448 43.0381 220.448 42.6865V37.4326ZM224.066 38.7168V44H223.207V38.7168H224.066ZM223.158 37.3154C223.158 37.1689 223.199 37.0452 223.28 36.9443C223.362 36.8434 223.484 36.793 223.646 36.793C223.809 36.793 223.931 36.8434 224.013 36.9443C224.097 37.0452 224.14 37.1689 224.14 37.3154C224.14 37.4554 224.097 37.5758 224.013 37.6768C223.931 37.7744 223.809 37.8232 223.646 37.8232C223.484 37.8232 223.362 37.7744 223.28 37.6768C223.199 37.5758 223.158 37.4554 223.158 37.3154ZM227.323 44.0977C227.007 44.0977 226.723 44.0505 226.469 43.9561C226.215 43.8617 225.998 43.7184 225.819 43.5264C225.64 43.3311 225.504 43.0853 225.409 42.7891C225.315 42.4928 225.268 42.1429 225.268 41.7393V41.1436C225.268 40.6781 225.321 40.2842 225.429 39.9619C225.539 39.6396 225.688 39.3809 225.873 39.1855C226.059 38.987 226.269 38.8437 226.503 38.7559C226.737 38.6647 226.978 38.6191 227.226 38.6191C227.558 38.6191 227.841 38.6729 228.075 38.7803C228.31 38.8877 228.5 39.0472 228.646 39.2588C228.793 39.4704 228.9 39.7308 228.969 40.04C229.04 40.3493 229.076 40.7057 229.076 41.1094V41.6123H225.775V40.875H228.212V40.7529C228.199 40.4795 228.161 40.2386 228.1 40.0303C228.041 39.8219 227.943 39.6592 227.807 39.542C227.67 39.4215 227.476 39.3613 227.226 39.3613C227.066 39.3613 226.918 39.389 226.781 39.4443C226.648 39.4964 226.532 39.5892 226.435 39.7227C226.34 39.8529 226.265 40.0335 226.21 40.2646C226.158 40.4958 226.132 40.7887 226.132 41.1436V41.7393C226.132 42.0225 226.158 42.2666 226.21 42.4717C226.265 42.6735 226.345 42.8411 226.449 42.9746C226.557 43.1048 226.687 43.2025 226.84 43.2676C226.996 43.3294 227.174 43.3604 227.372 43.3604C227.662 43.3604 227.901 43.305 228.09 43.1943C228.279 43.0804 228.443 42.9355 228.583 42.7598L229.037 43.3018C228.943 43.4352 228.819 43.5638 228.666 43.6875C228.516 43.8079 228.331 43.9072 228.109 43.9854C227.891 44.0602 227.629 44.0977 227.323 44.0977ZM233.573 40.0547L234.447 39.2979C234.62 39.1579 234.748 39.0179 234.833 38.8779C234.918 38.7347 234.96 38.5394 234.96 38.292C234.96 38.0999 234.9 37.9258 234.779 37.7695C234.662 37.61 234.494 37.5303 234.276 37.5303C234.13 37.5303 234.006 37.5742 233.905 37.6621C233.804 37.75 233.728 37.8672 233.676 38.0137C233.627 38.1569 233.603 38.3148 233.603 38.4873C233.603 38.6338 233.633 38.7852 233.695 38.9414C233.76 39.0977 233.847 39.2604 233.954 39.4297C234.062 39.599 234.184 39.778 234.32 39.9668L237.118 44H236.088L233.827 40.6992C233.622 40.4128 233.437 40.1507 233.271 39.9131C233.108 39.6722 232.978 39.4395 232.88 39.2148C232.785 38.9902 232.738 38.7575 232.738 38.5166C232.738 38.1455 232.802 37.833 232.929 37.5791C233.059 37.3219 233.24 37.1266 233.471 36.9932C233.702 36.8597 233.972 36.793 234.281 36.793C234.584 36.793 234.844 36.863 235.062 37.0029C235.284 37.1396 235.455 37.3219 235.575 37.5498C235.696 37.7744 235.756 38.0218 235.756 38.292C235.756 38.5199 235.723 38.7249 235.658 38.9072C235.593 39.0863 235.499 39.2507 235.375 39.4004C235.255 39.5501 235.11 39.6966 234.94 39.8398L233.72 40.8896C233.537 41.0622 233.404 41.2266 233.319 41.3828C233.238 41.5391 233.186 41.6774 233.163 41.7979C233.144 41.9183 233.134 42.0143 233.134 42.0859C233.134 42.3171 233.173 42.5286 233.251 42.7207C233.332 42.9128 233.454 43.0674 233.617 43.1846C233.78 43.2985 233.985 43.3555 234.232 43.3555C234.451 43.3555 234.662 43.2936 234.867 43.1699C235.076 43.043 235.263 42.8639 235.429 42.6328C235.595 42.3984 235.727 42.1201 235.824 41.7979C235.925 41.4723 235.976 41.1126 235.976 40.7187H236.747C236.747 41.041 236.721 41.3454 236.669 41.6318C236.617 41.9183 236.534 42.1852 236.42 42.4326C236.309 42.6768 236.166 42.8997 235.99 43.1016C235.967 43.1309 235.948 43.165 235.932 43.2041C235.915 43.2432 235.896 43.2773 235.873 43.3066C235.668 43.5703 235.414 43.7689 235.111 43.9023C234.812 44.0326 234.519 44.0977 234.232 44.0977C233.829 44.0977 233.48 44.0114 233.188 43.8389C232.895 43.6663 232.668 43.4287 232.509 43.126C232.349 42.8232 232.27 42.4766 232.27 42.0859C232.27 41.7865 232.325 41.5228 232.436 41.2949C232.546 41.0671 232.699 40.8538 232.895 40.6553C233.093 40.4567 233.319 40.2565 233.573 40.0547ZM198.28 47.5H199.145V53.9746L199.071 55H198.28V47.5ZM202.108 52.1191V52.6123C202.108 53.029 202.069 53.3936 201.991 53.7061C201.916 54.0153 201.804 54.2741 201.654 54.4824C201.505 54.6875 201.322 54.8421 201.107 54.9463C200.893 55.0472 200.647 55.0977 200.37 55.0977C200.097 55.0977 199.861 55.0423 199.662 54.9316C199.464 54.821 199.298 54.6615 199.164 54.4531C199.031 54.2448 198.925 53.9925 198.847 53.6963C198.772 53.4001 198.72 53.0664 198.69 52.6953V52.0361C198.72 51.6618 198.772 51.3265 198.847 51.0303C198.922 50.7308 199.026 50.4769 199.159 50.2686C199.293 50.057 199.459 49.8958 199.657 49.7852C199.856 49.6745 200.092 49.6191 200.365 49.6191C200.645 49.6191 200.893 49.668 201.107 49.7656C201.326 49.8633 201.508 50.0146 201.654 50.2197C201.804 50.4215 201.916 50.6803 201.991 50.9961C202.069 51.3086 202.108 51.6829 202.108 52.1191ZM201.244 52.6123V52.1191C201.244 51.8262 201.225 51.5706 201.186 51.3525C201.15 51.1344 201.09 50.9538 201.005 50.8105C200.92 50.6673 200.806 50.5599 200.663 50.4883C200.523 50.4167 200.349 50.3809 200.141 50.3809C199.965 50.3809 199.81 50.4167 199.677 50.4883C199.547 50.5599 199.434 50.6576 199.34 50.7812C199.245 50.9017 199.167 51.04 199.105 51.1963C199.044 51.3493 198.998 51.5088 198.969 51.6748V53.0615C199.011 53.2731 199.078 53.4766 199.169 53.6719C199.263 53.8639 199.39 54.0218 199.55 54.1455C199.709 54.2692 199.908 54.3311 200.146 54.3311C200.344 54.3311 200.512 54.2969 200.648 54.2285C200.788 54.1602 200.902 54.056 200.99 53.916C201.078 53.7728 201.142 53.5938 201.181 53.3789C201.223 53.1608 201.244 52.9053 201.244 52.6123ZM205.102 55.0977C204.786 55.0977 204.501 55.0505 204.247 54.9561C203.993 54.8617 203.777 54.7184 203.598 54.5264C203.419 54.3311 203.282 54.0853 203.188 53.7891C203.093 53.4928 203.046 53.1429 203.046 52.7393V52.1436C203.046 51.6781 203.1 51.2842 203.207 50.9619C203.318 50.6396 203.466 50.3809 203.651 50.1855C203.837 49.987 204.047 49.8438 204.281 49.7559C204.516 49.6647 204.757 49.6191 205.004 49.6191C205.336 49.6191 205.619 49.6729 205.854 49.7803C206.088 49.8877 206.278 50.0472 206.425 50.2588C206.571 50.4704 206.679 50.7308 206.747 51.04C206.819 51.3493 206.854 51.7057 206.854 52.1094V52.6123H203.554V51.875H205.99V51.7529C205.977 51.4795 205.94 51.2386 205.878 51.0303C205.819 50.8219 205.722 50.6592 205.585 50.542C205.448 50.4215 205.255 50.3613 205.004 50.3613C204.844 50.3613 204.696 50.389 204.56 50.4443C204.426 50.4964 204.311 50.5892 204.213 50.7227C204.118 50.8529 204.044 51.0335 203.988 51.2646C203.936 51.4958 203.91 51.7887 203.91 52.1436V52.7393C203.91 53.0225 203.936 53.2666 203.988 53.4717C204.044 53.6735 204.123 53.8411 204.228 53.9746C204.335 54.1048 204.465 54.2025 204.618 54.2676C204.774 54.3294 204.952 54.3604 205.15 54.3604C205.44 54.3604 205.679 54.305 205.868 54.1943C206.057 54.0804 206.221 53.9355 206.361 53.7598L206.815 54.3018C206.721 54.4352 206.597 54.5638 206.444 54.6875C206.295 54.8079 206.109 54.9072 205.888 54.9854C205.67 55.0602 205.408 55.0977 205.102 55.0977ZM209.828 49.7168V50.4102H207.362V49.7168H209.828ZM208.168 48.4326H209.032V53.6914C209.032 53.8704 209.053 54.0055 209.096 54.0967C209.141 54.1878 209.198 54.248 209.267 54.2773C209.335 54.3066 209.408 54.3213 209.486 54.3213C209.545 54.3213 209.61 54.3148 209.682 54.3018C209.753 54.2855 209.802 54.2725 209.828 54.2627L209.823 55C209.765 55.0228 209.687 55.0439 209.589 55.0635C209.491 55.0863 209.368 55.0977 209.218 55.0977C209.032 55.0977 208.86 55.0537 208.7 54.9658C208.541 54.8779 208.412 54.7314 208.314 54.5264C208.217 54.318 208.168 54.0381 208.168 53.6865V48.4326ZM213.446 54.0967V51.2305C213.446 51.0221 213.414 50.8545 213.349 50.7275C213.287 50.6006 213.192 50.5078 213.065 50.4492C212.942 50.3906 212.785 50.3613 212.597 50.3613C212.414 50.3613 212.257 50.3988 212.123 50.4736C211.993 50.5485 211.892 50.6478 211.82 50.7715C211.752 50.8952 211.718 51.0319 211.718 51.1816H210.854C210.854 50.9928 210.894 50.8057 210.976 50.6201C211.06 50.4346 211.181 50.2669 211.337 50.1172C211.493 49.9642 211.68 49.8438 211.898 49.7559C212.12 49.6647 212.367 49.6191 212.641 49.6191C212.966 49.6191 213.254 49.6729 213.505 49.7803C213.756 49.8844 213.952 50.0553 214.096 50.293C214.239 50.5306 214.311 50.8464 214.311 51.2402V53.8477C214.311 54.0234 214.324 54.2106 214.35 54.4092C214.379 54.6077 214.42 54.7786 214.472 54.9219V55H213.578C213.536 54.8958 213.503 54.7575 213.48 54.585C213.458 54.4092 213.446 54.2464 213.446 54.0967ZM213.583 51.7969L213.593 52.4316H212.992C212.787 52.4316 212.6 52.4544 212.431 52.5C212.265 52.5456 212.121 52.6123 212.001 52.7002C211.881 52.7848 211.788 52.8906 211.723 53.0176C211.661 53.1445 211.63 53.2894 211.63 53.4521C211.63 53.6637 211.659 53.833 211.718 53.96C211.776 54.0837 211.864 54.1732 211.981 54.2285C212.099 54.2839 212.247 54.3115 212.426 54.3115C212.644 54.3115 212.836 54.2611 213.002 54.1602C213.168 54.0592 213.297 53.9372 213.388 53.7939C213.482 53.6507 213.526 53.5173 213.52 53.3936L213.71 53.7988C213.697 53.9258 213.655 54.0641 213.583 54.2139C213.515 54.3604 213.419 54.502 213.295 54.6387C213.171 54.7721 213.025 54.8828 212.855 54.9707C212.689 55.0553 212.502 55.0977 212.294 55.0977C211.988 55.0977 211.719 55.0391 211.488 54.9219C211.26 54.8047 211.083 54.6322 210.956 54.4043C210.829 54.1764 210.766 53.8949 210.766 53.5596C210.766 53.3057 210.81 53.0713 210.897 52.8564C210.985 52.6416 211.116 52.4561 211.288 52.2998C211.461 52.1403 211.677 52.0166 211.938 51.9287C212.201 51.8408 212.506 51.7969 212.851 51.7969H213.583ZM216.581 47.5V55H215.722V47.5H216.581ZM218.876 49.7168V55H218.017V49.7168H218.876ZM217.968 48.3154C217.968 48.1689 218.008 48.0452 218.09 47.9443C218.171 47.8434 218.293 47.793 218.456 47.793C218.619 47.793 218.741 47.8434 218.822 47.9443C218.907 48.0452 218.949 48.1689 218.949 48.3154C218.949 48.4554 218.907 48.5758 218.822 48.6768C218.741 48.7744 218.619 48.8232 218.456 48.8232C218.293 48.8232 218.171 48.7744 218.09 48.6768C218.008 48.5758 217.968 48.4554 217.968 48.3154ZM221.107 50.8447V55H220.243V49.7168H221.059L221.107 50.8447ZM220.897 52.1582L220.546 52.1436C220.543 51.7822 220.583 51.4486 220.668 51.1426C220.756 50.8333 220.88 50.5648 221.039 50.3369C221.202 50.109 221.396 49.9333 221.62 49.8096C221.845 49.6826 222.094 49.6191 222.367 49.6191C222.582 49.6191 222.777 49.6549 222.953 49.7266C223.129 49.7949 223.279 49.9056 223.402 50.0586C223.526 50.2116 223.62 50.4102 223.686 50.6543C223.754 50.8952 223.788 51.1898 223.788 51.5381V55H222.924V51.5283C222.924 51.2516 222.893 51.0303 222.831 50.8643C222.772 50.695 222.681 50.5729 222.558 50.498C222.437 50.4199 222.284 50.3809 222.099 50.3809C221.929 50.3809 221.771 50.4281 221.625 50.5225C221.479 50.6169 221.35 50.7471 221.239 50.9131C221.132 51.0791 221.047 51.2695 220.985 51.4844C220.927 51.696 220.897 51.9206 220.897 52.1582ZM227.948 49.7168H228.725V55.0439C228.725 55.5094 228.643 55.8936 228.48 56.1963C228.321 56.499 228.098 56.722 227.812 56.8652C227.525 57.0117 227.195 57.085 226.82 57.085C226.687 57.085 226.519 57.0605 226.317 57.0117C226.116 56.9629 225.914 56.888 225.712 56.7871C225.51 56.6895 225.344 56.5658 225.214 56.416L225.57 55.8154C225.756 56.0042 225.953 56.1393 226.161 56.2207C226.369 56.3021 226.568 56.3428 226.757 56.3428C226.981 56.3428 227.177 56.3021 227.343 56.2207C227.509 56.1393 227.637 56.0059 227.729 55.8203C227.82 55.638 227.865 55.3939 227.865 55.0879V50.8789L227.948 49.7168ZM224.911 52.6123V52.1191C224.911 51.6829 224.952 51.3086 225.033 50.9961C225.115 50.6803 225.232 50.4215 225.385 50.2197C225.541 50.0146 225.728 49.8633 225.946 49.7656C226.164 49.668 226.409 49.6191 226.679 49.6191C226.952 49.6191 227.188 49.6745 227.387 49.7852C227.585 49.8958 227.75 50.057 227.88 50.2686C228.013 50.4769 228.118 50.7308 228.192 51.0303C228.271 51.3265 228.324 51.6618 228.354 52.0361V52.6953C228.324 53.0664 228.271 53.4001 228.192 53.6963C228.118 53.9925 228.012 54.2448 227.875 54.4531C227.742 54.6615 227.576 54.821 227.377 54.9316C227.178 55.0423 226.942 55.0977 226.669 55.0977C226.402 55.0977 226.161 55.0472 225.946 54.9463C225.731 54.8421 225.546 54.6875 225.39 54.4824C225.237 54.2741 225.118 54.0153 225.033 53.7061C224.952 53.3936 224.911 53.029 224.911 52.6123ZM225.775 52.1191V52.6123C225.775 52.9053 225.797 53.1608 225.839 53.3789C225.881 53.5937 225.946 53.7728 226.034 53.916C226.125 54.056 226.241 54.1602 226.381 54.2285C226.524 54.2969 226.695 54.3311 226.894 54.3311C227.134 54.3311 227.331 54.2725 227.484 54.1553C227.637 54.0381 227.759 53.8835 227.851 53.6914C227.945 53.4961 228.02 53.2861 228.075 53.0615V51.6748C228.043 51.5088 227.995 51.3493 227.934 51.1963C227.875 51.04 227.799 50.9017 227.704 50.7812C227.61 50.6576 227.496 50.5599 227.362 50.4883C227.232 50.4167 227.079 50.3809 226.903 50.3809C226.705 50.3809 226.534 50.4167 226.391 50.4883C226.247 50.5599 226.13 50.6673 226.039 50.8105C225.948 50.9538 225.881 51.1344 225.839 51.3525C225.797 51.5706 225.775 51.8262 225.775 52.1191Z" fill="#E0E0E9"/>
<path fill-rule="evenodd" clip-rule="evenodd" d="M203 16L136 16V14L203 14V16Z" fill="#D0CFD7"/>
<path fill-rule="evenodd" clip-rule="evenodd" d="M110 16L43 16V14L110 14V16Z" fill="url(#paint2_linear_363_3022)"/>
<path fill-rule="evenodd" clip-rule="evenodd" d="M17.7612 6.17317C17 8.01088 17 10.3406 17 15C17 19.6594 17 21.9891 17.7612 23.8268C18.7761 26.2771 20.7229 28.2239 23.1732 29.2388C25.0109 30 27.3406 30 32 30C36.6594 30 38.9891 30 40.8268 29.2388C43.2771 28.2239 45.2239 26.2771 46.2388 23.8268C47 21.9891 47 19.6594 47 15C47 10.3406 47 8.01088 46.2388 6.17317C45.2239 3.72288 43.2771 1.77614 40.8268 0.761205C38.9891 0 36.6594 0 32 0C27.3406 0 25.0109 0 23.1732 0.761205C20.7229 1.77614 18.7761 3.72288 17.7612 6.17317ZM38.7071 11.7071C39.0976 11.3166 39.0976 10.6834 38.7071 10.2929C38.3166 9.90237 37.6834 9.90237 37.2929 10.2929L30 17.5858L26.7071 14.2929C26.3166 13.9024 25.6834 13.9024 25.2929 14.2929C24.9024 14.6834 24.9024 15.3166 25.2929 15.7071L29.2929 19.7071C29.4804 19.8946 29.7348 20 30 20C30.2652 20 30.5196 19.8946 30.7071 19.7071L38.7071 11.7071Z" fill="url(#paint3_linear_363_3022)"/>
<path fill-rule="evenodd" clip-rule="evenodd" d="M108.761 6.17317C108 8.01088 108 10.3406 108 15C108 19.6594 108 21.9891 108.761 23.8268C109.776 26.2771 111.723 28.2239 114.173 29.2388C116.011 30 118.341 30 123 30C127.659 30 129.989 30 131.827 29.2388C134.277 28.2239 136.224 26.2771 137.239 23.8268C138 21.9891 138 19.6594 138 15C138 10.3406 138 8.01088 137.239 6.17317C136.224 3.72288 134.277 1.77614 131.827 0.761205C129.989 0 127.659 0 123 0C118.341 0 116.011 0 114.173 0.761205C111.723 1.77614 109.776 3.72288 108.761 6.17317ZM129.707 11.7071C130.098 11.3166 130.098 10.6834 129.707 10.2929C129.317 9.90237 128.683 9.90237 128.293 10.2929L121 17.5858L117.707 14.2929C117.317 13.9024 116.683 13.9024 116.293 14.2929C115.902 14.6834 115.902 15.3166 116.293 15.7071L120.293 19.7071C120.48 19.8946 120.735 20 121 20C121.265 20 121.52 19.8946 121.707 19.7071L129.707 11.7071Z" fill="url(#paint4_linear_363_3022)"/>
<path fill-rule="evenodd" clip-rule="evenodd" d="M199.761 6.17317C199 8.01088 199 10.3406 199 15C199 19.6594 199 21.9891 199.761 23.8268C200.776 26.2771 202.723 28.2239 205.173 29.2388C207.011 30 209.341 30 214 30C218.659 30 220.989 30 222.827 29.2388C225.277 28.2239 227.224 26.2771 228.239 23.8268C229 21.9891 229 19.6594 229 15C229 10.3406 229 8.01088 228.239 6.17317C227.224 3.72288 225.277 1.77614 222.827 0.761205C220.989 0 218.659 0 214 0C209.341 0 207.011 0 205.173 0.761205C202.723 1.77614 200.776 3.72288 199.761 6.17317ZM220.707 11.7071C221.098 11.3166 221.098 10.6834 220.707 10.2929C220.317 9.90237 219.683 9.90237 219.293 10.2929L212 17.5858L208.707 14.2929C208.317 13.9024 207.683 13.9024 207.293 14.2929C206.902 14.6834 206.902 15.3166 207.293 15.7071L211.293 19.7071C211.48 19.8946 211.735 20 212 20C212.265 20 212.52 19.8946 212.707 19.7071L220.707 11.7071Z" fill="#D0CFD7"/>
<defs>
<linearGradient id="paint0_linear_363_3022" x1="32" y1="57" x2="32" y2="35" gradientUnits="userSpaceOnUse">
<stop stop-color="#5CCC94"/>
<stop offset="1" stop-color="#8CCAAE"/>
</linearGradient>
<linearGradient id="paint1_linear_363_3022" x1="123.5" y1="55" x2="123.5" y2="35" gradientUnits="userSpaceOnUse">
<stop stop-color="#5CCC94"/>
<stop offset="1" stop-color="#8CCAAE"/>
</linearGradient>
<linearGradient id="paint2_linear_363_3022" x1="76.5" y1="16" x2="76.5" y2="14" gradientUnits="userSpaceOnUse">
<stop stop-color="#5CCC94"/>
<stop offset="1" stop-color="#8CCAAE"/>
</linearGradient>
<linearGradient id="paint3_linear_363_3022" x1="32" y1="30" x2="32" y2="1.58545e-07" gradientUnits="userSpaceOnUse">
<stop stop-color="#5CCC94"/>
<stop offset="1" stop-color="#8CCAAE"/>
</linearGradient>
<linearGradient id="paint4_linear_363_3022" x1="123" y1="30" x2="123" y2="1.58545e-07" gradientUnits="userSpaceOnUse">
<stop stop-color="#5CCC94"/>
<stop offset="1" stop-color="#8CCAAE"/>
</linearGradient>
</defs>
</svg>
