<svg width="239" height="58" viewBox="0 0 239 58" fill="none" xmlns="http://www.w3.org/2000/svg">
<path d="M5.66699 36.8906L5.66699 44H4.76367L1.91699 38.5166L1.91699 44H1.01855L1.01855 36.8906H1.91699L4.77832 42.3887L4.77832 36.8906H5.66699ZM9.77344 42.7793L9.77344 38.7168H10.6377L10.6377 44H9.81738L9.77344 42.7793ZM9.93457 41.666L10.2764 41.6562C10.2764 42.0078 10.2454 42.3333 10.1836 42.6328C10.125 42.929 10.0273 43.1862 9.89063 43.4043C9.75716 43.6224 9.57975 43.7933 9.3584 43.917C9.13704 44.0374 8.86523 44.0977 8.54297 44.0977C8.32487 44.0977 8.1263 44.0602 7.94727 43.9854C7.77148 43.9105 7.61849 43.7949 7.48828 43.6387C7.36133 43.4824 7.26204 43.279 7.19043 43.0283C7.12207 42.7777 7.08789 42.4766 7.08789 42.125V38.7168H7.94727V42.1348C7.94727 42.3724 7.96842 42.5693 8.01074 42.7256C8.05306 42.8786 8.11003 43.0007 8.18164 43.0918C8.25326 43.1797 8.33301 43.2415 8.4209 43.2773C8.50879 43.3132 8.59831 43.3311 8.68945 43.3311C8.99544 43.3311 9.23958 43.2578 9.42188 43.1113C9.60417 42.9616 9.73438 42.7614 9.8125 42.5107C9.89388 42.2568 9.93457 41.9753 9.93457 41.666ZM12.8008 39.7666L12.8008 44H11.9414L11.9414 38.7168H12.752L12.8008 39.7666ZM12.625 41.1582L12.2246 41.1436C12.2214 40.7822 12.2572 40.4486 12.332 40.1426C12.4069 39.8333 12.5192 39.5648 12.6689 39.3369C12.8219 39.109 13.0124 38.9333 13.2402 38.8096C13.4714 38.6826 13.7399 38.6191 14.0459 38.6191C14.2477 38.6191 14.4349 38.6549 14.6074 38.7266C14.7832 38.7949 14.9362 38.904 15.0664 39.0537C15.1966 39.2035 15.2975 39.3955 15.3691 39.6299C15.444 39.8643 15.4814 40.1475 15.4814 40.4795L15.4814 44H14.6172V40.5234C14.6172 40.2467 14.5798 40.0254 14.5049 39.8594C14.4333 39.6934 14.3307 39.5729 14.1973 39.498C14.0638 39.4199 13.9043 39.3809 13.7188 39.3809C13.5072 39.3809 13.3298 39.4281 13.1865 39.5225C13.0465 39.6169 12.9342 39.7471 12.8496 39.9131C12.7682 40.0791 12.7096 40.2695 12.6738 40.4844C12.6413 40.696 12.625 40.9206 12.625 41.1582ZM15.4717 40.6602L14.8955 40.8457C14.8923 40.556 14.9281 40.2777 15.0029 40.0107C15.0778 39.7438 15.1885 39.5062 15.335 39.2979C15.4847 39.0895 15.6702 38.9251 15.8916 38.8047C16.113 38.681 16.3701 38.6191 16.6631 38.6191C16.904 38.6191 17.1172 38.6566 17.3027 38.7314C17.4883 38.8063 17.6445 38.9219 17.7715 39.0781C17.9017 39.2311 17.9993 39.4281 18.0645 39.6689C18.1296 39.9098 18.1621 40.1963 18.1621 40.5283V44H17.2979V40.5186C17.2979 40.2223 17.2604 39.9928 17.1855 39.8301C17.1139 39.6641 17.0114 39.5485 16.8779 39.4834C16.7445 39.415 16.585 39.3809 16.3994 39.3809C16.2497 39.3809 16.1162 39.415 15.999 39.4834C15.8851 39.5518 15.7891 39.6462 15.7109 39.7666C15.6328 39.8838 15.5726 40.0189 15.5303 40.1719C15.4912 40.3249 15.4717 40.4876 15.4717 40.6602ZM21.3555 44.0977C21.0397 44.0977 20.7549 44.0505 20.501 43.9561C20.2471 43.8617 20.0306 43.7184 19.8516 43.5264C19.6725 43.3311 19.5358 43.0853 19.4414 42.7891C19.347 42.4928 19.2998 42.1429 19.2998 41.7393V41.1436C19.2998 40.6781 19.3535 40.2842 19.4609 39.9619C19.5716 39.6396 19.7197 39.3809 19.9053 39.1855C20.0908 38.987 20.3008 38.8438 20.5352 38.7559C20.7695 38.6647 21.0104 38.6191 21.2578 38.6191C21.5898 38.6191 21.873 38.6729 22.1074 38.7803C22.3418 38.8877 22.5322 39.0472 22.6787 39.2588C22.8252 39.4704 22.9326 39.7308 23.001 40.04C23.0726 40.3493 23.1084 40.7057 23.1084 41.1094V41.6123H19.8076V40.875H22.2441V40.7529C22.2311 40.4795 22.1937 40.2386 22.1318 40.0303C22.0732 39.8219 21.9756 39.6592 21.8389 39.542C21.7021 39.4215 21.5085 39.3613 21.2578 39.3613C21.0983 39.3613 20.9502 39.389 20.8135 39.4443C20.68 39.4964 20.5645 39.5892 20.4668 39.7227C20.3724 39.8529 20.2975 40.0335 20.2422 40.2646C20.1901 40.4958 20.1641 40.7887 20.1641 41.1436V41.7393C20.1641 42.0225 20.1901 42.2666 20.2422 42.4717C20.2975 42.6735 20.3773 42.8411 20.4814 42.9746C20.5889 43.1048 20.7191 43.2025 20.8721 43.2676C21.0283 43.3294 21.2057 43.3604 21.4043 43.3604C21.694 43.3604 21.9333 43.305 22.1221 43.1943C22.3109 43.0804 22.4753 42.9355 22.6152 42.7598L23.0693 43.3018C22.9749 43.4352 22.8512 43.5638 22.6982 43.6875C22.5485 43.8079 22.363 43.9072 22.1416 43.9854C21.9235 44.0602 21.6615 44.0977 21.3555 44.0977ZM25.0176 39.5469V44H24.1533V38.7168H24.9883L25.0176 39.5469ZM26.3311 38.6875L26.3359 39.5273C26.2643 39.5111 26.1992 39.5013 26.1406 39.498C26.0853 39.4915 26.0202 39.4883 25.9453 39.4883C25.7826 39.4883 25.6393 39.5208 25.5156 39.5859C25.3952 39.651 25.291 39.7422 25.2031 39.8594C25.1152 39.9766 25.0452 40.1165 24.9932 40.2793C24.9411 40.4388 24.9053 40.6146 24.8857 40.8066L24.6611 40.9531C24.6611 40.6341 24.6855 40.3346 24.7344 40.0547C24.7865 39.7747 24.8662 39.5273 24.9736 39.3125C25.0811 39.0944 25.2178 38.9251 25.3838 38.8047C25.5531 38.681 25.7549 38.6191 25.9893 38.6191C26.0413 38.6191 26.1048 38.6273 26.1797 38.6436C26.2578 38.6566 26.3083 38.6712 26.3311 38.6875ZM26.9219 41.6123V41.1094C26.9219 40.6992 26.974 40.3395 27.0781 40.0303C27.1823 39.7178 27.3271 39.4574 27.5127 39.249C27.6982 39.0407 27.9147 38.8844 28.1621 38.7803C28.4095 38.6729 28.6748 38.6191 28.958 38.6191C29.2477 38.6191 29.5163 38.6729 29.7637 38.7803C30.0111 38.8844 30.2275 39.0407 30.4131 39.249C30.6019 39.4574 30.7484 39.7178 30.8525 40.0303C30.9567 40.3395 31.0088 40.6992 31.0088 41.1094V41.6123C31.0088 42.0225 30.9567 42.3838 30.8525 42.6963C30.7484 43.0055 30.6035 43.2643 30.418 43.4727C30.2324 43.681 30.016 43.8372 29.7686 43.9414C29.5212 44.0456 29.2542 44.0977 28.9678 44.0977C28.6813 44.0977 28.4144 44.0456 28.167 43.9414C27.9196 43.8372 27.7015 43.681 27.5127 43.4727C27.3271 43.2643 27.1823 43.0055 27.0781 42.6963C26.974 42.3838 26.9219 42.0225 26.9219 41.6123ZM27.7861 41.1094V41.6123C27.7861 41.902 27.8154 42.1559 27.874 42.374C27.9326 42.5921 28.0156 42.7744 28.123 42.9209C28.2305 43.0674 28.3558 43.1781 28.499 43.2529C28.6423 43.3245 28.7985 43.3604 28.9678 43.3604C29.1631 43.3604 29.334 43.3245 29.4805 43.2529C29.6302 43.1781 29.7539 43.0674 29.8516 42.9209C29.9492 42.7744 30.0225 42.5921 30.0713 42.374C30.1201 42.1559 30.1445 41.902 30.1445 41.6123V41.1094C30.1445 40.8197 30.1152 40.5674 30.0566 40.3525C29.998 40.1344 29.915 39.9521 29.8076 39.8057C29.7002 39.6559 29.5732 39.5452 29.4268 39.4736C29.2835 39.3988 29.1273 39.3613 28.958 39.3613C28.792 39.3613 28.6374 39.3988 28.4941 39.4736C28.3509 39.5452 28.2256 39.6559 28.1182 39.8057C28.014 39.9521 27.9326 40.1344 27.874 40.3525C27.8154 40.5674 27.7861 40.8197 27.7861 41.1094ZM37.1855 42.9746V36.5H38.0449V44H37.2588L37.1855 42.9746ZM34.2314 41.6123V41.1191C34.2314 40.6829 34.2738 40.3086 34.3584 39.9961C34.443 39.6803 34.5635 39.4215 34.7197 39.2197C34.876 39.0146 35.0632 38.8633 35.2812 38.7656C35.4993 38.668 35.7402 38.6191 36.0039 38.6191C36.2773 38.6191 36.5117 38.6745 36.707 38.7852C36.9056 38.8958 37.0716 39.057 37.2051 39.2686C37.3385 39.4769 37.4427 39.7308 37.5176 40.0303C37.5957 40.3265 37.6478 40.6618 37.6738 41.0361V41.6953C37.6445 42.0664 37.5908 42.4001 37.5127 42.6963C37.4378 42.9925 37.3337 43.2448 37.2002 43.4531C37.0667 43.6615 36.9007 43.821 36.7021 43.9316C36.5036 44.0423 36.2676 44.0977 35.9941 44.0977C35.7337 44.0977 35.4961 44.0472 35.2812 43.9463C35.0664 43.8421 34.8792 43.6875 34.7197 43.4824C34.5635 43.2741 34.443 43.0153 34.3584 42.7061C34.2738 42.3936 34.2314 42.029 34.2314 41.6123ZM35.0957 41.1191V41.6123C35.0957 41.9053 35.1169 42.1608 35.1592 42.3789C35.2015 42.5937 35.2682 42.7728 35.3594 42.916C35.4505 43.056 35.5661 43.1602 35.7061 43.2285C35.8493 43.2969 36.0202 43.3311 36.2188 43.3311C36.4596 43.3311 36.6566 43.2725 36.8096 43.1553C36.9626 43.0381 37.0846 42.8835 37.1758 42.6914C37.2702 42.4961 37.3451 42.2861 37.4004 42.0615V40.6748C37.3678 40.5088 37.3206 40.3493 37.2588 40.1963C37.1969 40.04 37.1188 39.9017 37.0244 39.7812C36.9333 39.6576 36.821 39.5599 36.6875 39.4883C36.5573 39.4167 36.4043 39.3809 36.2285 39.3809C36.0299 39.3809 35.8574 39.4167 35.7109 39.4883C35.5677 39.5599 35.4505 39.6673 35.3594 39.8105C35.2715 39.9538 35.2048 40.1344 35.1592 40.3525C35.1169 40.5706 35.0957 40.8262 35.0957 41.1191ZM40.3057 38.7168V44H39.4463V38.7168H40.3057ZM39.3975 37.3154C39.3975 37.1689 39.4382 37.0452 39.5195 36.9443C39.6009 36.8434 39.723 36.793 39.8857 36.793C40.0485 36.793 40.1706 36.8434 40.252 36.9443C40.3366 37.0452 40.3789 37.1689 40.3789 37.3154C40.3789 37.4554 40.3366 37.5758 40.252 37.6768C40.1706 37.7744 40.0485 37.8232 39.8857 37.8232C39.723 37.8232 39.6009 37.7744 39.5195 37.6768C39.4382 37.5758 39.3975 37.4554 39.3975 37.3154ZM45.8965 38.7168V39.4102H43.4307V38.7168H45.8965ZM44.2363 37.4326H45.1006V42.6914C45.1006 42.8704 45.1217 43.0055 45.1641 43.0967C45.2096 43.1878 45.2666 43.248 45.335 43.2773C45.4033 43.3066 45.4766 43.3213 45.5547 43.3213C45.6133 43.3213 45.6784 43.3148 45.75 43.3018C45.8216 43.2855 45.8704 43.2725 45.8965 43.2627L45.8916 44C45.833 44.0228 45.7549 44.0439 45.6572 44.0635C45.5596 44.0863 45.4359 44.0977 45.2861 44.0977C45.1006 44.0977 44.9281 44.0537 44.7686 43.9658C44.609 43.8779 44.4805 43.7314 44.3828 43.5264C44.2852 43.318 44.2363 43.0381 44.2363 42.6865V37.4326ZM49.5146 43.0967V40.2305C49.5146 40.0221 49.4821 39.8545 49.417 39.7275C49.3551 39.6006 49.2607 39.5078 49.1338 39.4492C49.0101 39.3906 48.8538 39.3613 48.665 39.3613C48.4827 39.3613 48.3249 39.3988 48.1914 39.4736C48.0612 39.5485 47.9603 39.6478 47.8887 39.7715C47.8203 39.8952 47.7861 40.0319 47.7861 40.1816H46.9219C46.9219 39.9928 46.9626 39.8057 47.0439 39.6201C47.1286 39.4346 47.249 39.2669 47.4053 39.1172C47.5615 38.9642 47.7487 38.8437 47.9668 38.7559C48.1882 38.6647 48.4355 38.6191 48.709 38.6191C49.0345 38.6191 49.3226 38.6729 49.5732 38.7803C49.8239 38.8844 50.0208 39.0553 50.1641 39.293C50.3073 39.5306 50.3789 39.8464 50.3789 40.2402V42.8477C50.3789 43.0234 50.3919 43.2106 50.418 43.4092C50.4473 43.6077 50.488 43.7786 50.54 43.9219V44H49.6465C49.6042 43.8958 49.5716 43.7575 49.5488 43.585C49.526 43.4092 49.5146 43.2464 49.5146 43.0967ZM49.6514 40.7969L49.6611 41.4316H49.0605C48.8555 41.4316 48.6683 41.4544 48.499 41.5C48.333 41.5456 48.1898 41.6123 48.0693 41.7002C47.9489 41.7848 47.8561 41.8906 47.791 42.0176C47.7292 42.1445 47.6982 42.2894 47.6982 42.4521C47.6982 42.6637 47.7275 42.833 47.7861 42.96C47.8447 43.0837 47.9326 43.1732 48.0498 43.2285C48.167 43.2839 48.3151 43.3115 48.4941 43.3115C48.7122 43.3115 48.9043 43.2611 49.0703 43.1602C49.2363 43.0592 49.3649 42.9372 49.4561 42.7939C49.5505 42.6507 49.5944 42.5173 49.5879 42.3936L49.7783 42.7988C49.7653 42.9258 49.723 43.0641 49.6514 43.2139C49.583 43.3604 49.487 43.502 49.3633 43.6387C49.2396 43.7721 49.0931 43.8828 48.9238 43.9707C48.7578 44.0553 48.5706 44.0977 48.3623 44.0977C48.0563 44.0977 47.7878 44.0391 47.5566 43.9219C47.3288 43.8047 47.1514 43.6322 47.0244 43.4043C46.8975 43.1764 46.834 42.8949 46.834 42.5596C46.834 42.3057 46.8779 42.0713 46.9658 41.8564C47.0537 41.6416 47.1839 41.4561 47.3564 41.2998C47.529 41.1403 47.7454 41.0166 48.0059 40.9287C48.2695 40.8408 48.5739 40.7969 48.9189 40.7969H49.6514ZM52.5859 39.5469V44H51.7217V38.7168H52.5566L52.5859 39.5469ZM53.8994 38.6875L53.9043 39.5273C53.8327 39.5111 53.7676 39.5013 53.709 39.498C53.6536 39.4915 53.5885 39.4883 53.5137 39.4883C53.3509 39.4883 53.2077 39.5208 53.084 39.5859C52.9635 39.651 52.8594 39.7422 52.7715 39.8594C52.6836 39.9766 52.6136 40.1165 52.5615 40.2793C52.5094 40.4388 52.4736 40.6146 52.4541 40.8066L52.2295 40.9531C52.2295 40.6341 52.2539 40.3346 52.3027 40.0547C52.3548 39.7747 52.4346 39.5273 52.542 39.3125C52.6494 39.0944 52.7861 38.9251 52.9521 38.8047C53.1214 38.681 53.3232 38.6191 53.5576 38.6191C53.6097 38.6191 53.6732 38.6273 53.748 38.6436C53.8262 38.6566 53.8766 38.6712 53.8994 38.6875ZM57.5322 38.7168H58.3086V44.0439C58.3086 44.5094 58.2272 44.8936 58.0645 45.1963C57.9049 45.499 57.682 45.722 57.3955 45.8652C57.109 46.0117 56.7786 46.085 56.4043 46.085C56.2708 46.085 56.1032 46.0605 55.9014 46.0117C55.6995 45.9629 55.4977 45.888 55.2959 45.7871C55.0941 45.6895 54.9281 45.5658 54.7979 45.416L55.1543 44.8154C55.3398 45.0042 55.5368 45.1393 55.7451 45.2207C55.9535 45.3021 56.152 45.3428 56.3408 45.3428C56.5654 45.3428 56.7607 45.3021 56.9268 45.2207C57.0928 45.1393 57.2214 45.0059 57.3125 44.8203C57.4036 44.638 57.4492 44.3939 57.4492 44.0879V39.8789L57.5322 38.7168ZM54.4951 41.6123V41.1191C54.4951 40.6829 54.5358 40.3086 54.6172 39.9961C54.6986 39.6803 54.8158 39.4215 54.9688 39.2197C55.125 39.0146 55.3122 38.8633 55.5303 38.7656C55.7484 38.668 55.9925 38.6191 56.2627 38.6191C56.5361 38.6191 56.7721 38.6745 56.9707 38.7852C57.1693 38.8958 57.3337 39.057 57.4639 39.2686C57.5973 39.4769 57.7015 39.7308 57.7764 40.0303C57.8545 40.3265 57.9082 40.6618 57.9375 41.0361V41.6953C57.9082 42.0664 57.8545 42.4001 57.7764 42.6963C57.7015 42.9925 57.5957 43.2448 57.459 43.4531C57.3255 43.6615 57.1595 43.821 56.9609 43.9316C56.7624 44.0423 56.5264 44.0977 56.2529 44.0977C55.986 44.0977 55.7451 44.0472 55.5303 43.9463C55.3154 43.8421 55.1299 43.6875 54.9736 43.4824C54.8206 43.2741 54.7018 43.0153 54.6172 42.7061C54.5358 42.3936 54.4951 42.029 54.4951 41.6123ZM55.3594 41.1191V41.6123C55.3594 41.9053 55.3805 42.1608 55.4229 42.3789C55.4652 42.5937 55.5303 42.7728 55.6182 42.916C55.7093 43.056 55.8249 43.1602 55.9648 43.2285C56.1081 43.2969 56.279 43.3311 56.4775 43.3311C56.7184 43.3311 56.9154 43.2725 57.0684 43.1553C57.2214 43.0381 57.3434 42.8835 57.4346 42.6914C57.529 42.4961 57.6038 42.2861 57.6592 42.0615V40.6748C57.6266 40.5088 57.5794 40.3493 57.5176 40.1963C57.459 40.04 57.3825 39.9017 57.2881 39.7812C57.1937 39.6576 57.0798 39.5599 56.9463 39.4883C56.8161 39.4167 56.6631 39.3809 56.4873 39.3809C56.2887 39.3809 56.1178 39.4167 55.9746 39.4883C55.8314 39.5599 55.7142 39.6673 55.623 39.8105C55.5319 39.9538 55.4652 40.1344 55.4229 40.3525C55.3805 40.5706 55.3594 40.8262 55.3594 41.1191ZM62.1904 43.0967V40.2305C62.1904 40.0221 62.1579 39.8545 62.0928 39.7275C62.0309 39.6006 61.9365 39.5078 61.8096 39.4492C61.6859 39.3906 61.5296 39.3613 61.3408 39.3613C61.1585 39.3613 61.0007 39.3988 60.8672 39.4736C60.737 39.5485 60.6361 39.6478 60.5645 39.7715C60.4961 39.8952 60.4619 40.0319 60.4619 40.1816H59.5977C59.5977 39.9928 59.6383 39.8057 59.7197 39.6201C59.8044 39.4346 59.9248 39.2669 60.0811 39.1172C60.2373 38.9642 60.4245 38.8437 60.6426 38.7559C60.8639 38.6647 61.1113 38.6191 61.3848 38.6191C61.7103 38.6191 61.9984 38.6729 62.249 38.7803C62.4997 38.8844 62.6966 39.0553 62.8398 39.293C62.9831 39.5306 63.0547 39.8464 63.0547 40.2402V42.8477C63.0547 43.0234 63.0677 43.2106 63.0938 43.4092C63.123 43.6077 63.1637 43.7786 63.2158 43.9219V44H62.3223C62.2799 43.8958 62.2474 43.7575 62.2246 43.585C62.2018 43.4092 62.1904 43.2464 62.1904 43.0967ZM62.3271 40.7969L62.3369 41.4316H61.7363C61.5312 41.4316 61.3441 41.4544 61.1748 41.5C61.0088 41.5456 60.8656 41.6123 60.7451 41.7002C60.6247 41.7848 60.5319 41.8906 60.4668 42.0176C60.4049 42.1445 60.374 42.2894 60.374 42.4521C60.374 42.6637 60.4033 42.833 60.4619 42.96C60.5205 43.0837 60.6084 43.1732 60.7256 43.2285C60.8428 43.2839 60.9909 43.3115 61.1699 43.3115C61.388 43.3115 61.5801 43.2611 61.7461 43.1602C61.9121 43.0592 62.0407 42.9372 62.1318 42.7939C62.2262 42.6507 62.2702 42.5173 62.2637 42.3936L62.4541 42.7988C62.4411 42.9258 62.3988 43.0641 62.3271 43.2139C62.2588 43.3604 62.1628 43.502 62.0391 43.6387C61.9154 43.7721 61.7689 43.8828 61.5996 43.9707C61.4336 44.0553 61.2464 44.0977 61.0381 44.0977C60.7321 44.0977 60.4635 44.0391 60.2324 43.9219C60.0046 43.8047 59.8271 43.6322 59.7002 43.4043C59.5732 43.1764 59.5098 42.8949 59.5098 42.5596C59.5098 42.3057 59.5537 42.0713 59.6416 41.8564C59.7295 41.6416 59.8597 41.4561 60.0322 41.2998C60.2048 41.1403 60.4212 41.0166 60.6816 40.9287C60.9453 40.8408 61.2497 40.7969 61.5947 40.7969H62.3271Z" fill="url(#paint0_linear_363_3462)"/>
<path d="M100.124 40.8906V48H99.2256V40.8906H100.124ZM102.521 44.0889V44.8604H99.9531V44.0889H102.521ZM102.927 40.8906V41.6621H99.9531V40.8906H102.927ZM106.345 47.0967V44.2305C106.345 44.0221 106.312 43.8545 106.247 43.7275C106.185 43.6006 106.091 43.5078 105.964 43.4492C105.84 43.3906 105.684 43.3613 105.495 43.3613C105.313 43.3613 105.155 43.3988 105.021 43.4736C104.891 43.5485 104.79 43.6478 104.719 43.7715C104.65 43.8952 104.616 44.0319 104.616 44.1816H103.752C103.752 43.9928 103.793 43.8057 103.874 43.6201C103.959 43.4346 104.079 43.2669 104.235 43.1172C104.392 42.9642 104.579 42.8438 104.797 42.7559C105.018 42.6647 105.266 42.6191 105.539 42.6191C105.865 42.6191 106.153 42.6729 106.403 42.7803C106.654 42.8844 106.851 43.0553 106.994 43.293C107.137 43.5306 107.209 43.8464 107.209 44.2402V46.8477C107.209 47.0234 107.222 47.2106 107.248 47.4092C107.277 47.6077 107.318 47.7786 107.37 47.9219V48H106.477C106.434 47.8958 106.402 47.7575 106.379 47.585C106.356 47.4092 106.345 47.2464 106.345 47.0967ZM106.481 44.7969L106.491 45.4316H105.891C105.686 45.4316 105.498 45.4544 105.329 45.5C105.163 45.5456 105.02 45.6123 104.899 45.7002C104.779 45.7848 104.686 45.8906 104.621 46.0176C104.559 46.1445 104.528 46.2894 104.528 46.4521C104.528 46.6637 104.558 46.833 104.616 46.96C104.675 47.0837 104.763 47.1732 104.88 47.2285C104.997 47.2839 105.145 47.3115 105.324 47.3115C105.542 47.3115 105.734 47.2611 105.9 47.1602C106.066 47.0592 106.195 46.9372 106.286 46.7939C106.381 46.6507 106.424 46.5173 106.418 46.3936L106.608 46.7988C106.595 46.9258 106.553 47.0641 106.481 47.2139C106.413 47.3604 106.317 47.502 106.193 47.6387C106.07 47.7721 105.923 47.8828 105.754 47.9707C105.588 48.0553 105.401 48.0977 105.192 48.0977C104.886 48.0977 104.618 48.0391 104.387 47.9219C104.159 47.8047 103.981 47.6322 103.854 47.4043C103.728 47.1764 103.664 46.8949 103.664 46.5596C103.664 46.3057 103.708 46.0713 103.796 45.8564C103.884 45.6416 104.014 45.4561 104.187 45.2998C104.359 45.1403 104.576 45.0166 104.836 44.9287C105.1 44.8408 105.404 44.7969 105.749 44.7969H106.481ZM110.48 42.7168V43.4102H108.015V42.7168H110.48ZM108.82 41.4326H109.685V46.6914C109.685 46.8704 109.706 47.0055 109.748 47.0967C109.794 47.1878 109.851 47.248 109.919 47.2773C109.987 47.3066 110.061 47.3213 110.139 47.3213C110.197 47.3213 110.262 47.3148 110.334 47.3018C110.406 47.2855 110.454 47.2725 110.48 47.2627L110.476 48C110.417 48.0228 110.339 48.0439 110.241 48.0635C110.144 48.0863 110.02 48.0977 109.87 48.0977C109.685 48.0977 109.512 48.0537 109.353 47.9658C109.193 47.8779 109.064 47.7314 108.967 47.5264C108.869 47.318 108.82 47.0381 108.82 46.6865V41.4326ZM113.439 42.7168V43.4102H110.974V42.7168H113.439ZM111.779 41.4326H112.644V46.6914C112.644 46.8704 112.665 47.0055 112.707 47.0967C112.753 47.1878 112.81 47.248 112.878 47.2773C112.946 47.3066 113.02 47.3213 113.098 47.3213C113.156 47.3213 113.221 47.3148 113.293 47.3018C113.365 47.2855 113.413 47.2725 113.439 47.2627L113.435 48C113.376 48.0228 113.298 48.0439 113.2 48.0635C113.103 48.0863 112.979 48.0977 112.829 48.0977C112.644 48.0977 112.471 48.0537 112.312 47.9658C112.152 47.8779 112.023 47.7314 111.926 47.5264C111.828 47.318 111.779 47.0381 111.779 46.6865V41.4326ZM117.141 46.7793V42.7168H118.005V48H117.185L117.141 46.7793ZM117.302 45.666L117.644 45.6562C117.644 46.0078 117.613 46.3333 117.551 46.6328C117.492 46.929 117.395 47.1862 117.258 47.4043C117.124 47.6224 116.947 47.7933 116.726 47.917C116.504 48.0374 116.232 48.0977 115.91 48.0977C115.692 48.0977 115.493 48.0602 115.314 47.9854C115.139 47.9105 114.986 47.7949 114.855 47.6387C114.729 47.4824 114.629 47.279 114.558 47.0283C114.489 46.7777 114.455 46.4766 114.455 46.125V42.7168H115.314V46.1348C115.314 46.3724 115.336 46.5693 115.378 46.7256C115.42 46.8786 115.477 47.0007 115.549 47.0918C115.62 47.1797 115.7 47.2415 115.788 47.2773C115.876 47.3132 115.965 47.3311 116.057 47.3311C116.363 47.3311 116.607 47.2578 116.789 47.1113C116.971 46.9616 117.102 46.7614 117.18 46.5107C117.261 46.2568 117.302 45.9753 117.302 45.666ZM120.168 43.5469V48H119.304V42.7168H120.139L120.168 43.5469ZM121.481 42.6875L121.486 43.5273C121.415 43.5111 121.35 43.5013 121.291 43.498C121.236 43.4915 121.171 43.4883 121.096 43.4883C120.933 43.4883 120.79 43.5208 120.666 43.5859C120.546 43.651 120.441 43.7422 120.354 43.8594C120.266 43.9766 120.196 44.1165 120.144 44.2793C120.091 44.4388 120.056 44.6146 120.036 44.8066L119.812 44.9531C119.812 44.6341 119.836 44.3346 119.885 44.0547C119.937 43.7747 120.017 43.5273 120.124 43.3125C120.231 43.0944 120.368 42.9251 120.534 42.8047C120.703 42.681 120.905 42.6191 121.14 42.6191C121.192 42.6191 121.255 42.6273 121.33 42.6436C121.408 42.6566 121.459 42.6712 121.481 42.6875ZM124.743 47.0967V44.2305C124.743 44.0221 124.711 43.8545 124.646 43.7275C124.584 43.6006 124.489 43.5078 124.362 43.4492C124.239 43.3906 124.082 43.3613 123.894 43.3613C123.711 43.3613 123.553 43.3988 123.42 43.4736C123.29 43.5485 123.189 43.6478 123.117 43.7715C123.049 43.8952 123.015 44.0319 123.015 44.1816H122.15C122.15 43.9928 122.191 43.8057 122.272 43.6201C122.357 43.4346 122.478 43.2669 122.634 43.1172C122.79 42.9642 122.977 42.8437 123.195 42.7559C123.417 42.6647 123.664 42.6191 123.938 42.6191C124.263 42.6191 124.551 42.6729 124.802 42.7803C125.052 42.8844 125.249 43.0553 125.393 43.293C125.536 43.5306 125.607 43.8464 125.607 44.2402V46.8477C125.607 47.0234 125.62 47.2106 125.646 47.4092C125.676 47.6077 125.716 47.7786 125.769 47.9219V48L124.875 48C124.833 47.8958 124.8 47.7575 124.777 47.585C124.755 47.4092 124.743 47.2464 124.743 47.0967ZM124.88 44.7969L124.89 45.4316H124.289C124.084 45.4316 123.897 45.4544 123.728 45.5C123.562 45.5456 123.418 45.6123 123.298 45.7002C123.177 45.7848 123.085 45.8906 123.02 46.0176C122.958 46.1445 122.927 46.2894 122.927 46.4521C122.927 46.6637 122.956 46.833 123.015 46.96C123.073 47.0837 123.161 47.1732 123.278 47.2285C123.396 47.2839 123.544 47.3115 123.723 47.3115C123.941 47.3115 124.133 47.2611 124.299 47.1602C124.465 47.0592 124.593 46.9372 124.685 46.7939C124.779 46.6507 124.823 46.5173 124.816 46.3936L125.007 46.7988C124.994 46.9258 124.951 47.0641 124.88 47.2139C124.812 47.3604 124.715 47.502 124.592 47.6387C124.468 47.7721 124.322 47.8828 124.152 47.9707C123.986 48.0553 123.799 48.0977 123.591 48.0977C123.285 48.0977 123.016 48.0391 122.785 47.9219C122.557 47.8047 122.38 47.6322 122.253 47.4043C122.126 47.1764 122.062 46.8949 122.062 46.5596C122.062 46.3057 122.106 46.0713 122.194 45.8564C122.282 45.6416 122.412 45.4561 122.585 45.2998C122.757 45.1403 122.974 45.0166 123.234 44.9287C123.498 44.8408 123.802 44.7969 124.147 44.7969H124.88ZM130.295 47.2578V48H127.097V47.2578H130.295ZM130.197 43.3564L127.292 48H126.765V47.3359L129.65 42.7168H130.197V43.3564ZM129.821 42.7168V43.4639H126.779V42.7168H129.821ZM132.272 42.7168V48H131.413V42.7168H132.272ZM131.364 41.3154C131.364 41.1689 131.405 41.0452 131.486 40.9443C131.568 40.8434 131.69 40.793 131.853 40.793C132.015 40.793 132.137 40.8434 132.219 40.9443C132.303 41.0452 132.346 41.1689 132.346 41.3154C132.346 41.4554 132.303 41.5758 132.219 41.6768C132.137 41.7744 132.015 41.8232 131.853 41.8232C131.69 41.8232 131.568 41.7744 131.486 41.6768C131.405 41.5758 131.364 41.4554 131.364 41.3154ZM133.459 45.6123V45.1094C133.459 44.6992 133.511 44.3395 133.615 44.0303C133.719 43.7178 133.864 43.4574 134.05 43.249C134.235 43.0407 134.452 42.8844 134.699 42.7803C134.947 42.6729 135.212 42.6191 135.495 42.6191C135.785 42.6191 136.053 42.6729 136.301 42.7803C136.548 42.8844 136.765 43.0407 136.95 43.249C137.139 43.4574 137.285 43.7178 137.39 44.0303C137.494 44.3395 137.546 44.6992 137.546 45.1094V45.6123C137.546 46.0225 137.494 46.3838 137.39 46.6963C137.285 47.0055 137.141 47.2643 136.955 47.4727C136.77 47.681 136.553 47.8372 136.306 47.9414C136.058 48.0456 135.791 48.0977 135.505 48.0977C135.218 48.0977 134.951 48.0456 134.704 47.9414C134.457 47.8372 134.239 47.681 134.05 47.4727C133.864 47.2643 133.719 47.0055 133.615 46.6963C133.511 46.3838 133.459 46.0225 133.459 45.6123ZM134.323 45.1094V45.6123C134.323 45.902 134.353 46.1559 134.411 46.374C134.47 46.5921 134.553 46.7744 134.66 46.9209C134.768 47.0674 134.893 47.1781 135.036 47.2529C135.179 47.3245 135.336 47.3604 135.505 47.3604C135.7 47.3604 135.871 47.3245 136.018 47.2529C136.167 47.1781 136.291 47.0674 136.389 46.9209C136.486 46.7744 136.56 46.5921 136.608 46.374C136.657 46.1559 136.682 45.902 136.682 45.6123V45.1094C136.682 44.8197 136.652 44.5674 136.594 44.3525C136.535 44.1344 136.452 43.9521 136.345 43.8057C136.237 43.6559 136.11 43.5452 135.964 43.4736C135.821 43.3988 135.664 43.3613 135.495 43.3613C135.329 43.3613 135.174 43.3988 135.031 43.4736C134.888 43.5452 134.763 43.6559 134.655 43.8057C134.551 43.9521 134.47 44.1344 134.411 44.3525C134.353 44.5674 134.323 44.8197 134.323 45.1094ZM139.523 43.8447V48H138.659V42.7168H139.475L139.523 43.8447ZM139.313 45.1582L138.962 45.1436C138.959 44.7822 138.999 44.4486 139.084 44.1426C139.172 43.8333 139.296 43.5648 139.455 43.3369C139.618 43.109 139.812 42.9333 140.036 42.8096C140.261 42.6826 140.51 42.6191 140.783 42.6191C140.998 42.6191 141.193 42.6549 141.369 42.7266C141.545 42.7949 141.695 42.9056 141.818 43.0586C141.942 43.2116 142.036 43.4102 142.102 43.6543C142.17 43.8952 142.204 44.1898 142.204 44.5381V48H141.34V44.5283C141.34 44.2516 141.309 44.0303 141.247 43.8643C141.188 43.695 141.097 43.5729 140.974 43.498C140.853 43.4199 140.7 43.3809 140.515 43.3809C140.345 43.3809 140.188 43.4281 140.041 43.5225C139.895 43.6169 139.766 43.7471 139.655 43.9131C139.548 44.0791 139.463 44.2695 139.401 44.4844C139.343 44.696 139.313 44.9206 139.313 45.1582ZM145.393 48.0977C145.077 48.0977 144.792 48.0505 144.538 47.9561C144.284 47.8617 144.068 47.7184 143.889 47.5264C143.71 47.3311 143.573 47.0853 143.479 46.7891C143.384 46.4928 143.337 46.1429 143.337 45.7393V45.1436C143.337 44.6781 143.391 44.2842 143.498 43.9619C143.609 43.6396 143.757 43.3809 143.942 43.1855C144.128 42.987 144.338 42.8437 144.572 42.7559C144.807 42.6647 145.048 42.6191 145.295 42.6191C145.627 42.6191 145.91 42.6729 146.145 42.7803C146.379 42.8877 146.569 43.0472 146.716 43.2588C146.862 43.4704 146.97 43.7308 147.038 44.04C147.11 44.3493 147.146 44.7057 147.146 45.1094V45.6123H143.845V44.875H146.281V44.7529C146.268 44.4795 146.231 44.2386 146.169 44.0303C146.11 43.8219 146.013 43.6592 145.876 43.542C145.739 43.4215 145.546 43.3613 145.295 43.3613C145.135 43.3613 144.987 43.389 144.851 43.4443C144.717 43.4964 144.602 43.5892 144.504 43.7227C144.41 43.8529 144.335 44.0335 144.279 44.2646C144.227 44.4958 144.201 44.7887 144.201 45.1436V45.7393C144.201 46.0225 144.227 46.2666 144.279 46.4717C144.335 46.6735 144.414 46.8411 144.519 46.9746C144.626 47.1048 144.756 47.2025 144.909 47.2676C145.065 47.3294 145.243 47.3604 145.441 47.3604C145.731 47.3604 145.97 47.305 146.159 47.1943C146.348 47.0804 146.512 46.9355 146.652 46.7598L147.106 47.3018C147.012 47.4352 146.888 47.5638 146.735 47.6875C146.586 47.8079 146.4 47.9072 146.179 47.9854C145.961 48.0602 145.699 48.0977 145.393 48.0977Z" fill="url(#paint1_linear_363_3462)"/>
<path d="M197.86 42.9209L199.569 36.8906H200.546L198.339 44H197.65L197.86 42.9209ZM196.327 36.8906L198.021 42.9209L198.246 44H197.558L195.351 36.8906H196.327ZM203.07 44.0977C202.755 44.0977 202.47 44.0505 202.216 43.9561C201.962 43.8617 201.745 43.7184 201.566 43.5264C201.387 43.3311 201.251 43.0853 201.156 42.7891C201.062 42.4928 201.015 42.1429 201.015 41.7393V41.1436C201.015 40.6781 201.068 40.2842 201.176 39.9619C201.286 39.6396 201.435 39.3809 201.62 39.1855C201.806 38.987 202.016 38.8438 202.25 38.7559C202.484 38.6647 202.725 38.6191 202.973 38.6191C203.305 38.6191 203.588 38.6729 203.822 38.7803C204.057 38.8877 204.247 39.0472 204.394 39.2588C204.54 39.4704 204.647 39.7308 204.716 40.04C204.787 40.3493 204.823 40.7057 204.823 41.1094V41.6123H201.522V40.875H203.959V40.7529C203.946 40.4795 203.909 40.2386 203.847 40.0303C203.788 39.8219 203.69 39.6592 203.554 39.542C203.417 39.4215 203.223 39.3613 202.973 39.3613C202.813 39.3613 202.665 39.389 202.528 39.4443C202.395 39.4964 202.279 39.5892 202.182 39.7227C202.087 39.8529 202.012 40.0335 201.957 40.2646C201.905 40.4958 201.879 40.7887 201.879 41.1436V41.7393C201.879 42.0225 201.905 42.2666 201.957 42.4717C202.012 42.6735 202.092 42.8411 202.196 42.9746C202.304 43.1048 202.434 43.2025 202.587 43.2676C202.743 43.3294 202.921 43.3604 203.119 43.3604C203.409 43.3604 203.648 43.305 203.837 43.1943C204.026 43.0804 204.19 42.9355 204.33 42.7598L204.784 43.3018C204.69 43.4352 204.566 43.5638 204.413 43.6875C204.263 43.8079 204.078 43.9072 203.856 43.9854C203.638 44.0602 203.376 44.0977 203.07 44.0977ZM206.732 39.5469V44H205.868V38.7168H206.703L206.732 39.5469ZM208.046 38.6875L208.051 39.5273C207.979 39.5111 207.914 39.5013 207.855 39.498C207.8 39.4915 207.735 39.4883 207.66 39.4883C207.497 39.4883 207.354 39.5208 207.23 39.5859C207.11 39.651 207.006 39.7422 206.918 39.8594C206.83 39.9766 206.76 40.1165 206.708 40.2793C206.656 40.4388 206.62 40.6146 206.601 40.8066L206.376 40.9531C206.376 40.6341 206.4 40.3346 206.449 40.0547C206.501 39.7747 206.581 39.5273 206.688 39.3125C206.796 39.0944 206.933 38.9251 207.099 38.8047C207.268 38.681 207.47 38.6191 207.704 38.6191C207.756 38.6191 207.82 38.6273 207.895 38.6436C207.973 38.6566 208.023 38.6712 208.046 38.6875ZM209.843 38.7168V44H208.983V38.7168H209.843ZM208.935 37.3154C208.935 37.1689 208.975 37.0452 209.057 36.9443C209.138 36.8434 209.26 36.793 209.423 36.793C209.586 36.793 209.708 36.8434 209.789 36.9443C209.874 37.0452 209.916 37.1689 209.916 37.3154C209.916 37.4554 209.874 37.5758 209.789 37.6768C209.708 37.7744 209.586 37.8232 209.423 37.8232C209.26 37.8232 209.138 37.7744 209.057 37.6768C208.975 37.5758 208.935 37.4554 208.935 37.3154ZM212.313 44H211.449V38.2578C211.449 37.8574 211.516 37.5189 211.649 37.2422C211.786 36.9655 211.98 36.7555 212.23 36.6123C212.484 36.4691 212.784 36.3975 213.129 36.3975C213.334 36.3975 213.531 36.4268 213.72 36.4854C213.909 36.5407 214.104 36.6107 214.306 36.6953L214.159 37.457C214.042 37.3984 213.899 37.3431 213.729 37.291C213.56 37.2357 213.383 37.208 213.197 37.208C212.872 37.208 212.642 37.2959 212.509 37.4717C212.379 37.6442 212.313 37.9062 212.313 38.2578V44ZM213.168 38.7168V39.4102L210.761 39.4102V38.7168L213.168 38.7168ZM214.721 38.7168V44H213.856V38.7168H214.721ZM217.943 43.3604C218.116 43.3604 218.272 43.3262 218.412 43.2578C218.555 43.1862 218.673 43.0755 218.764 42.9258C218.855 42.7728 218.907 42.5742 218.92 42.3301H219.73C219.717 42.6816 219.628 42.9909 219.462 43.2578C219.299 43.5215 219.084 43.7282 218.817 43.8779C218.554 44.0244 218.262 44.0977 217.943 44.0977C217.602 44.0977 217.304 44.0423 217.05 43.9316C216.799 43.821 216.591 43.6615 216.425 43.4531C216.262 43.2415 216.14 42.986 216.059 42.6865C215.977 42.3838 215.937 42.0404 215.937 41.6562V41.0605C215.937 40.6764 215.977 40.3346 216.059 40.0352C216.14 39.7324 216.262 39.4769 216.425 39.2686C216.591 39.057 216.799 38.8958 217.05 38.7852C217.304 38.6745 217.602 38.6191 217.943 38.6191C218.301 38.6191 218.611 38.6956 218.871 38.8486C219.135 38.9984 219.34 39.2165 219.486 39.5029C219.636 39.7861 219.717 40.1296 219.73 40.5332H218.92C218.907 40.2728 218.86 40.0563 218.778 39.8838C218.697 39.708 218.586 39.5778 218.446 39.4932C218.306 39.4053 218.139 39.3613 217.943 39.3613C217.715 39.3613 217.527 39.402 217.377 39.4834C217.23 39.5615 217.115 39.6755 217.03 39.8252C216.946 39.9749 216.885 40.154 216.85 40.3623C216.817 40.5706 216.801 40.8034 216.801 41.0605V41.6562C216.801 41.9134 216.817 42.1478 216.85 42.3594C216.885 42.5677 216.944 42.7467 217.025 42.8965C217.11 43.0462 217.227 43.1618 217.377 43.2432C217.527 43.3213 217.715 43.3604 217.943 43.3604ZM223.319 43.0967V40.2305C223.319 40.0221 223.287 39.8545 223.222 39.7275C223.16 39.6006 223.065 39.5078 222.938 39.4492C222.815 39.3906 222.659 39.3613 222.47 39.3613C222.287 39.3613 222.13 39.3988 221.996 39.4736C221.866 39.5485 221.765 39.6478 221.693 39.7715C221.625 39.8952 221.591 40.0319 221.591 40.1816H220.727C220.727 39.9928 220.767 39.8057 220.849 39.6201C220.933 39.4346 221.054 39.2669 221.21 39.1172C221.366 38.9642 221.553 38.8437 221.771 38.7559C221.993 38.6647 222.24 38.6191 222.514 38.6191C222.839 38.6191 223.127 38.6729 223.378 38.7803C223.629 38.8844 223.826 39.0553 223.969 39.293C224.112 39.5306 224.184 39.8464 224.184 40.2402V42.8477C224.184 43.0234 224.197 43.2106 224.223 43.4092C224.252 43.6077 224.293 43.7786 224.345 43.9219V44H223.451C223.409 43.8958 223.376 43.7575 223.354 43.585C223.331 43.4092 223.319 43.2464 223.319 43.0967ZM223.456 40.7969L223.466 41.4316H222.865C222.66 41.4316 222.473 41.4544 222.304 41.5C222.138 41.5456 221.994 41.6123 221.874 41.7002C221.754 41.7848 221.661 41.8906 221.596 42.0176C221.534 42.1445 221.503 42.2894 221.503 42.4521C221.503 42.6637 221.532 42.833 221.591 42.96C221.649 43.0837 221.737 43.1732 221.854 43.2285C221.972 43.2839 222.12 43.3115 222.299 43.3115C222.517 43.3115 222.709 43.2611 222.875 43.1602C223.041 43.0592 223.17 42.9372 223.261 42.7939C223.355 42.6507 223.399 42.5173 223.393 42.3936L223.583 42.7988C223.57 42.9258 223.528 43.0641 223.456 43.2139C223.388 43.3604 223.292 43.502 223.168 43.6387C223.044 43.7721 222.898 43.8828 222.729 43.9707C222.562 44.0553 222.375 44.0977 222.167 44.0977C221.861 44.0977 221.592 44.0391 221.361 43.9219C221.133 43.8047 220.956 43.6322 220.829 43.4043C220.702 43.1764 220.639 42.8949 220.639 42.5596C220.639 42.3057 220.683 42.0713 220.771 41.8564C220.858 41.6416 220.989 41.4561 221.161 41.2998C221.334 41.1403 221.55 41.0166 221.811 40.9287C222.074 40.8408 222.379 40.7969 222.724 40.7969H223.456ZM229.711 44.0977C229.395 44.0977 229.11 44.0505 228.856 43.9561C228.603 43.8617 228.386 43.7184 228.207 43.5264C228.028 43.3311 227.891 43.0853 227.797 42.7891C227.702 42.4928 227.655 42.1429 227.655 41.7393V41.1436C227.655 40.6781 227.709 40.2842 227.816 39.9619C227.927 39.6396 228.075 39.3809 228.261 39.1855C228.446 38.987 228.656 38.8437 228.891 38.7559C229.125 38.6647 229.366 38.6191 229.613 38.6191C229.945 38.6191 230.229 38.6729 230.463 38.7803C230.697 38.8877 230.888 39.0472 231.034 39.2588C231.181 39.4704 231.288 39.7308 231.356 40.04C231.428 40.3493 231.464 40.7057 231.464 41.1094V41.6123H228.163V40.875H230.6V40.7529C230.587 40.4795 230.549 40.2386 230.487 40.0303C230.429 39.8219 230.331 39.6592 230.194 39.542C230.058 39.4215 229.864 39.3613 229.613 39.3613C229.454 39.3613 229.306 39.389 229.169 39.4443C229.035 39.4964 228.92 39.5892 228.822 39.7227C228.728 39.8529 228.653 40.0335 228.598 40.2646C228.546 40.4958 228.52 40.7887 228.52 41.1436V41.7393C228.52 42.0225 228.546 42.2666 228.598 42.4717C228.653 42.6735 228.733 42.8411 228.837 42.9746C228.944 43.1048 229.075 43.2025 229.228 43.2676C229.384 43.3294 229.561 43.3604 229.76 43.3604C230.049 43.3604 230.289 43.305 230.478 43.1943C230.666 43.0804 230.831 42.9355 230.971 42.7598L231.425 43.3018C231.33 43.4352 231.207 43.5638 231.054 43.6875C230.904 43.8079 230.718 43.9072 230.497 43.9854C230.279 44.0602 230.017 44.0977 229.711 44.0977ZM192.816 50.7324V57.0312H191.952V49.7168H192.738L192.816 50.7324ZM195.771 52.1191V52.6123C195.771 53.029 195.731 53.3936 195.653 53.7061C195.578 54.0153 195.466 54.2741 195.316 54.4824C195.17 54.6875 194.989 54.8421 194.774 54.9463C194.56 55.0472 194.314 55.0977 194.037 55.0977C193.76 55.0977 193.52 55.0456 193.314 54.9414C193.113 54.834 192.942 54.6794 192.802 54.4775C192.665 54.2757 192.556 54.0332 192.475 53.75C192.396 53.4635 192.343 53.1429 192.313 52.7881V52.0361C192.343 51.6618 192.396 51.3265 192.475 51.0303C192.553 50.7308 192.66 50.4769 192.797 50.2686C192.937 50.057 193.108 49.8958 193.31 49.7852C193.515 49.6745 193.754 49.6191 194.027 49.6191C194.311 49.6191 194.56 49.668 194.774 49.7656C194.993 49.8633 195.175 50.0146 195.321 50.2197C195.471 50.4215 195.583 50.6803 195.658 50.9961C195.733 51.3086 195.771 51.6829 195.771 52.1191ZM194.906 52.6123V52.1191C194.906 51.8262 194.883 51.5706 194.838 51.3525C194.796 51.1344 194.727 50.9538 194.633 50.8105C194.538 50.6673 194.42 50.5599 194.276 50.4883C194.133 50.4167 193.961 50.3809 193.759 50.3809C193.586 50.3809 193.433 50.4167 193.3 50.4883C193.17 50.5599 193.057 50.6576 192.963 50.7812C192.868 50.9017 192.79 51.04 192.729 51.1963C192.667 51.3493 192.621 51.5088 192.592 51.6748V53.1543C192.647 53.3626 192.72 53.5596 192.812 53.7451C192.903 53.9274 193.025 54.0755 193.178 54.1895C193.334 54.3034 193.531 54.3604 193.769 54.3604C193.967 54.3604 194.138 54.3245 194.281 54.2529C194.424 54.1813 194.542 54.0739 194.633 53.9307C194.727 53.7842 194.796 53.6019 194.838 53.3838C194.883 53.1624 194.906 52.9053 194.906 52.6123ZM199.472 54.0967V51.2305C199.472 51.0221 199.439 50.8545 199.374 50.7275C199.312 50.6006 199.218 50.5078 199.091 50.4492C198.967 50.3906 198.811 50.3613 198.622 50.3613C198.44 50.3613 198.282 50.3988 198.148 50.4736C198.018 50.5485 197.917 50.6478 197.846 50.7715C197.777 50.8952 197.743 51.0319 197.743 51.1816H196.879C196.879 50.9928 196.92 50.8057 197.001 50.6201C197.086 50.4346 197.206 50.2669 197.362 50.1172C197.519 49.9642 197.706 49.8438 197.924 49.7559C198.145 49.6647 198.393 49.6191 198.666 49.6191C198.992 49.6191 199.28 49.6729 199.53 49.7803C199.781 49.8844 199.978 50.0553 200.121 50.293C200.264 50.5306 200.336 50.8464 200.336 51.2402V53.8477C200.336 54.0234 200.349 54.2106 200.375 54.4092C200.404 54.6077 200.445 54.7786 200.497 54.9219V55H199.604C199.561 54.8958 199.529 54.7575 199.506 54.585C199.483 54.4092 199.472 54.2464 199.472 54.0967ZM199.608 51.7969L199.618 52.4316H199.018C198.812 52.4316 198.625 52.4544 198.456 52.5C198.29 52.5456 198.147 52.6123 198.026 52.7002C197.906 52.7848 197.813 52.8906 197.748 53.0176C197.686 53.1445 197.655 53.2894 197.655 53.4521C197.655 53.6637 197.685 53.833 197.743 53.96C197.802 54.0837 197.89 54.1732 198.007 54.2285C198.124 54.2839 198.272 54.3115 198.451 54.3115C198.669 54.3115 198.861 54.2611 199.027 54.1602C199.193 54.0592 199.322 53.9372 199.413 53.7939C199.507 53.6507 199.551 53.5173 199.545 53.3936L199.735 53.7988C199.722 53.9258 199.68 54.0641 199.608 54.2139C199.54 54.3604 199.444 54.502 199.32 54.6387C199.197 54.7721 199.05 54.8828 198.881 54.9707C198.715 55.0553 198.528 55.0977 198.319 55.0977C198.013 55.0977 197.745 55.0391 197.514 54.9219C197.286 54.8047 197.108 54.6322 196.981 54.4043C196.854 54.1764 196.791 53.8949 196.791 53.5596C196.791 53.3057 196.835 53.0713 196.923 52.8564C197.011 52.6416 197.141 52.4561 197.313 52.2998C197.486 52.1403 197.702 52.0166 197.963 51.9287C198.227 51.8408 198.531 51.7969 198.876 51.7969H199.608ZM204.54 49.7168H205.316V55.0439C205.316 55.5094 205.235 55.8936 205.072 56.1963C204.913 56.499 204.69 56.722 204.403 56.8652C204.117 57.0117 203.786 57.085 203.412 57.085C203.279 57.085 203.111 57.0605 202.909 57.0117C202.707 56.9629 202.506 56.888 202.304 56.7871C202.102 56.6895 201.936 56.5658 201.806 56.416L202.162 55.8154C202.348 56.0042 202.545 56.1393 202.753 56.2207C202.961 56.3021 203.16 56.3428 203.349 56.3428C203.573 56.3428 203.769 56.3021 203.935 56.2207C204.101 56.1393 204.229 56.0059 204.32 55.8203C204.411 55.638 204.457 55.3939 204.457 55.0879V50.8789L204.54 49.7168ZM201.503 52.6123V52.1191C201.503 51.6829 201.544 51.3086 201.625 50.9961C201.706 50.6803 201.824 50.4215 201.977 50.2197C202.133 50.0146 202.32 49.8633 202.538 49.7656C202.756 49.668 203 49.6191 203.271 49.6191C203.544 49.6191 203.78 49.6745 203.979 49.7852C204.177 49.8958 204.341 50.057 204.472 50.2686C204.605 50.4769 204.709 50.7308 204.784 51.0303C204.862 51.3265 204.916 51.6618 204.945 52.0361V52.6953C204.916 53.0664 204.862 53.4001 204.784 53.6963C204.709 53.9925 204.604 54.2448 204.467 54.4531C204.333 54.6615 204.167 54.821 203.969 54.9316C203.77 55.0423 203.534 55.0977 203.261 55.0977C202.994 55.0977 202.753 55.0472 202.538 54.9463C202.323 54.8421 202.138 54.6875 201.981 54.4824C201.828 54.2741 201.71 54.0153 201.625 53.7061C201.544 53.3936 201.503 53.029 201.503 52.6123ZM202.367 52.1191V52.6123C202.367 52.9053 202.388 53.1608 202.431 53.3789C202.473 53.5938 202.538 53.7728 202.626 53.916C202.717 54.056 202.833 54.1602 202.973 54.2285C203.116 54.2969 203.287 54.3311 203.485 54.3311C203.726 54.3311 203.923 54.2725 204.076 54.1553C204.229 54.0381 204.351 53.8835 204.442 53.6914C204.537 53.4961 204.612 53.2861 204.667 53.0615V51.6748C204.634 51.5088 204.587 51.3493 204.525 51.1963C204.467 51.04 204.39 50.9017 204.296 50.7812C204.201 50.6576 204.088 50.5599 203.954 50.4883C203.824 50.4167 203.671 50.3809 203.495 50.3809C203.297 50.3809 203.126 50.4167 202.982 50.4883C202.839 50.5599 202.722 50.6673 202.631 50.8105C202.54 50.9538 202.473 51.1344 202.431 51.3525C202.388 51.5706 202.367 51.8262 202.367 52.1191ZM209.198 54.0967V51.2305C209.198 51.0221 209.166 50.8545 209.101 50.7275C209.039 50.6006 208.944 50.5078 208.817 50.4492C208.694 50.3906 208.537 50.3613 208.349 50.3613C208.166 50.3613 208.008 50.3988 207.875 50.4736C207.745 50.5485 207.644 50.6478 207.572 50.7715C207.504 50.8952 207.47 51.0319 207.47 51.1816H206.605C206.605 50.9928 206.646 50.8057 206.728 50.6201C206.812 50.4346 206.933 50.2669 207.089 50.1172C207.245 49.9642 207.432 49.8438 207.65 49.7559C207.872 49.6647 208.119 49.6191 208.393 49.6191C208.718 49.6191 209.006 49.6729 209.257 49.7803C209.507 49.8844 209.704 50.0553 209.848 50.293C209.991 50.5306 210.062 50.8464 210.062 51.2402V53.8477C210.062 54.0234 210.076 54.2106 210.102 54.4092C210.131 54.6077 210.172 54.7786 210.224 54.9219V55H209.33C209.288 54.8958 209.255 54.7575 209.232 54.585C209.21 54.4092 209.198 54.2464 209.198 54.0967ZM209.335 51.7969L209.345 52.4316H208.744C208.539 52.4316 208.352 52.4544 208.183 52.5C208.017 52.5456 207.873 52.6123 207.753 52.7002C207.632 52.7848 207.54 52.8906 207.475 53.0176C207.413 53.1445 207.382 53.2894 207.382 53.4521C207.382 53.6637 207.411 53.833 207.47 53.96C207.528 54.0837 207.616 54.1732 207.733 54.2285C207.851 54.2839 207.999 54.3115 208.178 54.3115C208.396 54.3115 208.588 54.2611 208.754 54.1602C208.92 54.0592 209.049 53.9372 209.14 53.7939C209.234 53.6507 209.278 53.5173 209.271 53.3936L209.462 53.7988C209.449 53.9258 209.407 54.0641 209.335 54.2139C209.267 54.3604 209.171 54.502 209.047 54.6387C208.923 54.7721 208.777 54.8828 208.607 54.9707C208.441 55.0553 208.254 55.0977 208.046 55.0977C207.74 55.0977 207.471 55.0391 207.24 54.9219C207.012 54.8047 206.835 54.6322 206.708 54.4043C206.581 54.1764 206.518 53.8949 206.518 53.5596C206.518 53.3057 206.562 53.0713 206.649 52.8564C206.737 52.6416 206.868 52.4561 207.04 52.2998C207.213 52.1403 207.429 52.0166 207.689 51.9287C207.953 51.8408 208.257 51.7969 208.603 51.7969H209.335ZM212.27 50.7666V55H211.41V49.7168H212.221L212.27 50.7666ZM212.094 52.1582L211.693 52.1436C211.69 51.7822 211.726 51.4486 211.801 51.1426C211.876 50.8333 211.988 50.5648 212.138 50.3369C212.291 50.109 212.481 49.9333 212.709 49.8096C212.94 49.6826 213.209 49.6191 213.515 49.6191C213.716 49.6191 213.904 49.6549 214.076 49.7266C214.252 49.7949 214.405 49.904 214.535 50.0537C214.665 50.2035 214.766 50.3955 214.838 50.6299C214.913 50.8643 214.95 51.1475 214.95 51.4795V55H214.086V51.5234C214.086 51.2467 214.049 51.0254 213.974 50.8594C213.902 50.6934 213.799 50.5729 213.666 50.498C213.533 50.4199 213.373 50.3809 213.188 50.3809C212.976 50.3809 212.799 50.4281 212.655 50.5225C212.515 50.6169 212.403 50.7471 212.318 50.9131C212.237 51.0791 212.178 51.2695 212.143 51.4844C212.11 51.696 212.094 51.9206 212.094 52.1582ZM214.94 51.6602L214.364 51.8457C214.361 51.556 214.397 51.2777 214.472 51.0107C214.547 50.7438 214.657 50.5062 214.804 50.2979C214.953 50.0895 215.139 49.9251 215.36 49.8047C215.582 49.681 215.839 49.6191 216.132 49.6191C216.373 49.6191 216.586 49.6566 216.771 49.7314C216.957 49.8063 217.113 49.9219 217.24 50.0781C217.37 50.2311 217.468 50.4281 217.533 50.6689C217.598 50.9098 217.631 51.1963 217.631 51.5283V55H216.767V51.5186C216.767 51.2223 216.729 50.9928 216.654 50.8301C216.583 50.6641 216.48 50.5485 216.347 50.4834C216.213 50.415 216.054 50.3809 215.868 50.3809C215.718 50.3809 215.585 50.415 215.468 50.4834C215.354 50.5518 215.258 50.6462 215.18 50.7666C215.102 50.8838 215.041 51.0189 214.999 51.1719C214.96 51.3249 214.94 51.4876 214.94 51.6602ZM220.824 55.0977C220.508 55.0977 220.224 55.0505 219.97 54.9561C219.716 54.8617 219.499 54.7184 219.32 54.5264C219.141 54.3311 219.005 54.0853 218.91 53.7891C218.816 53.4928 218.769 53.1429 218.769 52.7393V52.1436C218.769 51.6781 218.822 51.2842 218.93 50.9619C219.04 50.6396 219.188 50.3809 219.374 50.1855C219.56 49.987 219.77 49.8437 220.004 49.7559C220.238 49.6647 220.479 49.6191 220.727 49.6191C221.059 49.6191 221.342 49.6729 221.576 49.7803C221.811 49.8877 222.001 50.0472 222.147 50.2588C222.294 50.4704 222.401 50.7308 222.47 51.04C222.541 51.3493 222.577 51.7057 222.577 52.1094V52.6123L219.276 52.6123V51.875L221.713 51.875V51.7529C221.7 51.4795 221.662 51.2386 221.601 51.0303C221.542 50.8219 221.444 50.6592 221.308 50.542C221.171 50.4215 220.977 50.3613 220.727 50.3613C220.567 50.3613 220.419 50.389 220.282 50.4443C220.149 50.4964 220.033 50.5892 219.936 50.7227C219.841 50.8529 219.766 51.0335 219.711 51.2646C219.659 51.4958 219.633 51.7887 219.633 52.1436V52.7393C219.633 53.0225 219.659 53.2666 219.711 53.4717C219.766 53.6735 219.846 53.8411 219.95 53.9746C220.058 54.1048 220.188 54.2025 220.341 54.2676C220.497 54.3294 220.674 54.3604 220.873 54.3604C221.163 54.3604 221.402 54.305 221.591 54.1943C221.78 54.0804 221.944 53.9355 222.084 53.7598L222.538 54.3018C222.444 54.4352 222.32 54.5638 222.167 54.6875C222.017 54.8079 221.832 54.9072 221.61 54.9854C221.392 55.0602 221.13 55.0977 220.824 55.0977ZM224.486 50.8447V55H223.622V49.7168H224.438L224.486 50.8447ZM224.276 52.1582L223.925 52.1436C223.922 51.7822 223.962 51.4486 224.047 51.1426C224.135 50.8333 224.258 50.5648 224.418 50.3369C224.581 50.109 224.774 49.9333 224.999 49.8096C225.224 49.6826 225.473 49.6191 225.746 49.6191C225.961 49.6191 226.156 49.6549 226.332 49.7266C226.508 49.7949 226.658 49.9056 226.781 50.0586C226.905 50.2116 226.999 50.4102 227.064 50.6543C227.133 50.8952 227.167 51.1898 227.167 51.5381V55H226.303V51.5283C226.303 51.2516 226.272 51.0303 226.21 50.8643C226.151 50.695 226.06 50.5729 225.937 50.498C225.816 50.4199 225.663 50.3809 225.478 50.3809C225.308 50.3809 225.15 50.4281 225.004 50.5225C224.857 50.6169 224.729 50.7471 224.618 50.9131C224.511 51.0791 224.426 51.2695 224.364 51.4844C224.306 51.696 224.276 51.9206 224.276 52.1582ZM230.395 49.7168V50.4102H227.929V49.7168H230.395ZM228.734 48.4326H229.599V53.6914C229.599 53.8704 229.62 54.0055 229.662 54.0967C229.708 54.1878 229.765 54.248 229.833 54.2773C229.901 54.3066 229.975 54.3213 230.053 54.3213C230.111 54.3213 230.176 54.3148 230.248 54.3018C230.32 54.2855 230.368 54.2725 230.395 54.2627L230.39 55C230.331 55.0228 230.253 55.0439 230.155 55.0635C230.058 55.0863 229.934 55.0977 229.784 55.0977C229.599 55.0977 229.426 55.0537 229.267 54.9658C229.107 54.8779 228.979 54.7314 228.881 54.5264C228.783 54.318 228.734 54.0381 228.734 53.6865V48.4326ZM231.146 52.6123V52.1094C231.146 51.6992 231.199 51.3395 231.303 51.0303C231.407 50.7178 231.552 50.4574 231.737 50.249C231.923 50.0407 232.139 49.8844 232.387 49.7803C232.634 49.6729 232.899 49.6191 233.183 49.6191C233.472 49.6191 233.741 49.6729 233.988 49.7803C234.236 49.8844 234.452 50.0407 234.638 50.249C234.826 50.4574 234.973 50.7178 235.077 51.0303C235.181 51.3395 235.233 51.6992 235.233 52.1094V52.6123C235.233 53.0225 235.181 53.3838 235.077 53.6963C234.973 54.0055 234.828 54.2643 234.643 54.4727C234.457 54.681 234.241 54.8372 233.993 54.9414C233.746 55.0456 233.479 55.0977 233.192 55.0977C232.906 55.0977 232.639 55.0456 232.392 54.9414C232.144 54.8372 231.926 54.681 231.737 54.4727C231.552 54.2643 231.407 54.0055 231.303 53.6963C231.199 53.3838 231.146 53.0225 231.146 52.6123ZM232.011 52.1094V52.6123C232.011 52.902 232.04 53.1559 232.099 53.374C232.157 53.5921 232.24 53.7744 232.348 53.9209C232.455 54.0674 232.58 54.1781 232.724 54.2529C232.867 54.3245 233.023 54.3604 233.192 54.3604C233.388 54.3604 233.559 54.3245 233.705 54.2529C233.855 54.1781 233.979 54.0674 234.076 53.9209C234.174 53.7744 234.247 53.5921 234.296 53.374C234.345 53.1559 234.369 52.902 234.369 52.6123V52.1094C234.369 51.8197 234.34 51.5674 234.281 51.3525C234.223 51.1344 234.14 50.9521 234.032 50.8057C233.925 50.6559 233.798 50.5452 233.651 50.4736C233.508 50.3988 233.352 50.3613 233.183 50.3613C233.017 50.3613 232.862 50.3988 232.719 50.4736C232.576 50.5452 232.45 50.6559 232.343 50.8057C232.239 50.9521 232.157 51.1344 232.099 51.3525C232.04 51.5674 232.011 51.8197 232.011 52.1094Z" fill="#E0E0E9"/>
<path fill-rule="evenodd" clip-rule="evenodd" d="M203 16L136 16V14L203 14V16Z" fill="#D0CFD7"/>
<path fill-rule="evenodd" clip-rule="evenodd" d="M110 16L43 16V14L110 14V16Z" fill="url(#paint2_linear_363_3462)"/>
<path fill-rule="evenodd" clip-rule="evenodd" d="M17.7612 6.17317C17 8.01088 17 10.3406 17 15C17 19.6594 17 21.9891 17.7612 23.8268C18.7761 26.2771 20.7229 28.2239 23.1732 29.2388C25.0109 30 27.3406 30 32 30C36.6594 30 38.9891 30 40.8268 29.2388C43.2771 28.2239 45.2239 26.2771 46.2388 23.8268C47 21.9891 47 19.6594 47 15C47 10.3406 47 8.01088 46.2388 6.17317C45.2239 3.72288 43.2771 1.77614 40.8268 0.761205C38.9891 0 36.6594 0 32 0C27.3406 0 25.0109 0 23.1732 0.761205C20.7229 1.77614 18.7761 3.72288 17.7612 6.17317ZM38.7071 11.7071C39.0976 11.3166 39.0976 10.6834 38.7071 10.2929C38.3166 9.90237 37.6834 9.90237 37.2929 10.2929L30 17.5858L26.7071 14.2929C26.3166 13.9024 25.6834 13.9024 25.2929 14.2929C24.9024 14.6834 24.9024 15.3166 25.2929 15.7071L29.2929 19.7071C29.4804 19.8946 29.7348 20 30 20C30.2652 20 30.5196 19.8946 30.7071 19.7071L38.7071 11.7071Z" fill="url(#paint3_linear_363_3462)"/>
<path fill-rule="evenodd" clip-rule="evenodd" d="M108.761 6.17317C108 8.01088 108 10.3406 108 15C108 19.6594 108 21.9891 108.761 23.8268C109.776 26.2771 111.723 28.2239 114.173 29.2388C116.011 30 118.341 30 123 30C127.659 30 129.989 30 131.827 29.2388C134.277 28.2239 136.224 26.2771 137.239 23.8268C138 21.9891 138 19.6594 138 15C138 10.3406 138 8.01088 137.239 6.17317C136.224 3.72288 134.277 1.77614 131.827 0.761205C129.989 0 127.659 0 123 0C118.341 0 116.011 0 114.173 0.761205C111.723 1.77614 109.776 3.72288 108.761 6.17317ZM129.707 11.7071C130.098 11.3166 130.098 10.6834 129.707 10.2929C129.317 9.90237 128.683 9.90237 128.293 10.2929L121 17.5858L117.707 14.2929C117.317 13.9024 116.683 13.9024 116.293 14.2929C115.902 14.6834 115.902 15.3166 116.293 15.7071L120.293 19.7071C120.48 19.8946 120.735 20 121 20C121.265 20 121.52 19.8946 121.707 19.7071L129.707 11.7071Z" fill="url(#paint4_linear_363_3462)"/>
<path fill-rule="evenodd" clip-rule="evenodd" d="M199.761 6.17317C199 8.01088 199 10.3406 199 15C199 19.6594 199 21.9891 199.761 23.8268C200.776 26.2771 202.723 28.2239 205.173 29.2388C207.011 30 209.341 30 214 30C218.659 30 220.989 30 222.827 29.2388C225.277 28.2239 227.224 26.2771 228.239 23.8268C229 21.9891 229 19.6594 229 15C229 10.3406 229 8.01088 228.239 6.17317C227.224 3.72288 225.277 1.77614 222.827 0.761205C220.989 0 218.659 0 214 0C209.341 0 207.011 0 205.173 0.761205C202.723 1.77614 200.776 3.72288 199.761 6.17317ZM220.707 11.7071C221.098 11.3166 221.098 10.6834 220.707 10.2929C220.317 9.90237 219.683 9.90237 219.293 10.2929L212 17.5858L208.707 14.2929C208.317 13.9024 207.683 13.9024 207.293 14.2929C206.902 14.6834 206.902 15.3166 207.293 15.7071L211.293 19.7071C211.48 19.8946 211.735 20 212 20C212.265 20 212.52 19.8946 212.707 19.7071L220.707 11.7071Z" fill="#D0CFD7"/>
<defs>
<linearGradient id="paint0_linear_363_3462" x1="32" y1="46" x2="32" y2="35" gradientUnits="userSpaceOnUse">
<stop stop-color="#5CCC94"/>
<stop offset="1" stop-color="#8CCAAE"/>
</linearGradient>
<linearGradient id="paint1_linear_363_3462" x1="123" y1="55" x2="123" y2="35" gradientUnits="userSpaceOnUse">
<stop stop-color="#5CCC94"/>
<stop offset="1" stop-color="#8CCAAE"/>
</linearGradient>
<linearGradient id="paint2_linear_363_3462" x1="76.5" y1="16" x2="76.5" y2="14" gradientUnits="userSpaceOnUse">
<stop stop-color="#5CCC94"/>
<stop offset="1" stop-color="#8CCAAE"/>
</linearGradient>
<linearGradient id="paint3_linear_363_3462" x1="32" y1="30" x2="32" y2="1.58545e-07" gradientUnits="userSpaceOnUse">
<stop stop-color="#5CCC94"/>
<stop offset="1" stop-color="#8CCAAE"/>
</linearGradient>
<linearGradient id="paint4_linear_363_3462" x1="123" y1="30" x2="123" y2="1.58545e-07" gradientUnits="userSpaceOnUse">
<stop stop-color="#5CCC94"/>
<stop offset="1" stop-color="#8CCAAE"/>
</linearGradient>
</defs>
</svg>
