<svg width="239" height="58" viewBox="0 0 239 58" fill="none" xmlns="http://www.w3.org/2000/svg">
<path d="M17.3076 41.7393H18.2061C18.1833 42.2275 18.084 42.6491 17.9082 43.0039C17.7357 43.3555 17.4834 43.6257 17.1514 43.8145C16.8226 44.0033 16.4108 44.0977 15.916 44.0977C15.5612 44.0977 15.2406 44.0277 14.9541 43.8877C14.6676 43.7477 14.4219 43.5475 14.2168 43.2871C14.015 43.0234 13.8604 42.7077 13.7529 42.3398C13.6455 41.972 13.5918 41.5586 13.5918 41.0996L13.5918 39.7861C13.5918 39.3304 13.6455 38.9186 13.7529 38.5508C13.8636 38.1829 14.0215 37.8688 14.2266 37.6084C14.4349 37.3447 14.6872 37.1429 14.9834 37.0029C15.2829 36.863 15.6214 36.793 15.999 36.793C16.4613 36.793 16.8519 36.8857 17.1709 37.0713C17.4932 37.2536 17.7406 37.5221 17.9131 37.877C18.0889 38.2285 18.1865 38.6598 18.2061 39.1709H17.3076C17.2848 38.7965 17.2262 38.4922 17.1318 38.2578C17.0374 38.0202 16.8975 37.846 16.7119 37.7354C16.5296 37.6214 16.292 37.5645 15.999 37.5645C15.7386 37.5645 15.5124 37.6165 15.3203 37.7207C15.1315 37.8249 14.9753 37.9746 14.8516 38.1699C14.7311 38.362 14.64 38.5947 14.5781 38.8682C14.5195 39.1383 14.4902 39.4411 14.4902 39.7764L14.4902 41.0996C14.4902 41.4121 14.5146 41.7035 14.5635 41.9736C14.6156 42.2438 14.6969 42.4814 14.8076 42.6865C14.9215 42.8883 15.0697 43.0462 15.252 43.1602C15.4342 43.2741 15.6556 43.3311 15.916 43.3311C16.2448 43.3311 16.5052 43.2773 16.6973 43.1699C16.8893 43.0625 17.0309 42.8916 17.1221 42.6572C17.2165 42.4229 17.2783 42.1169 17.3076 41.7393ZM15.2764 34.8301L15.8623 35.6602L16.4434 34.8301H17.1855V34.8789L16.1162 36.2168H15.6084L14.5537 34.8789V34.8301H15.2764ZM20.2373 38.7168V44H19.373V38.7168H20.2373ZM19.3242 37.9453L20.2715 36.5098H21.3604L20.0518 37.9453H19.3242ZM24.2217 42.6475C24.2217 42.514 24.1891 42.3968 24.124 42.2959C24.0589 42.195 23.9515 42.0973 23.8018 42.0029C23.6553 41.9085 23.4567 41.8076 23.2061 41.7002C22.9619 41.5993 22.7422 41.5 22.5469 41.4023C22.3548 41.3014 22.1921 41.1924 22.0586 41.0752C21.9251 40.958 21.8226 40.8229 21.751 40.6699C21.6826 40.5137 21.6484 40.3298 21.6484 40.1182C21.6484 39.9066 21.6875 39.7113 21.7656 39.5322C21.847 39.3499 21.9609 39.1904 22.1074 39.0537C22.2539 38.917 22.4297 38.8112 22.6348 38.7363C22.8398 38.6582 23.0693 38.6191 23.3232 38.6191C23.6846 38.6191 23.9922 38.6891 24.2461 38.8291C24.5 38.9691 24.6937 39.1611 24.8271 39.4053C24.9639 39.6462 25.0322 39.918 25.0322 40.2207L24.1729 40.2207C24.1729 40.0742 24.1403 39.9359 24.0752 39.8057C24.0101 39.6755 23.9141 39.5697 23.7871 39.4883C23.6602 39.4036 23.5055 39.3613 23.3232 39.3613C23.1312 39.3613 22.9749 39.3955 22.8545 39.4639C22.734 39.5322 22.6462 39.6217 22.5908 39.7324C22.5387 39.8398 22.5127 39.9587 22.5127 40.0889C22.5127 40.1865 22.5257 40.2712 22.5518 40.3428C22.5811 40.4111 22.6299 40.4762 22.6982 40.5381C22.7666 40.5967 22.8594 40.6585 22.9766 40.7236C23.097 40.7855 23.25 40.8571 23.4355 40.9385C23.7936 41.0785 24.0947 41.2201 24.3389 41.3633C24.583 41.5065 24.7686 41.6742 24.8955 41.8662C25.0225 42.0583 25.0859 42.2959 25.0859 42.5791C25.0859 42.8102 25.0436 43.0202 24.959 43.209C24.8776 43.3945 24.7604 43.554 24.6074 43.6875C24.4544 43.821 24.2705 43.9235 24.0557 43.9951C23.8441 44.0635 23.6064 44.0977 23.3428 44.0977C22.9456 44.0977 22.6087 44.0195 22.332 43.8633C22.0586 43.7038 21.8503 43.4971 21.707 43.2432C21.5671 42.986 21.4971 42.7109 21.4971 42.418H22.3613C22.3711 42.6654 22.4264 42.8574 22.5273 42.9941C22.6315 43.1309 22.7568 43.2253 22.9033 43.2773C23.0498 43.3294 23.1963 43.3555 23.3428 43.3555C23.5348 43.3555 23.696 43.3278 23.8262 43.2725C23.9564 43.2139 24.054 43.1309 24.1191 43.0234C24.1875 42.916 24.2217 42.7907 24.2217 42.6475ZM27.1465 36.5V44H26.2871V36.5H27.1465ZM28.333 41.6123V41.1094C28.333 40.6992 28.3851 40.3395 28.4893 40.0303C28.5934 39.7178 28.7383 39.4574 28.9238 39.249C29.1094 39.0407 29.3258 38.8844 29.5732 38.7803C29.8206 38.6729 30.0859 38.6191 30.3691 38.6191C30.6589 38.6191 30.9274 38.6729 31.1748 38.7803C31.4222 38.8844 31.6387 39.0407 31.8242 39.249C32.013 39.4574 32.1595 39.7178 32.2637 40.0303C32.3678 40.3395 32.4199 40.6992 32.4199 41.1094V41.6123C32.4199 42.0225 32.3678 42.3838 32.2637 42.6963C32.1595 43.0055 32.0146 43.2643 31.8291 43.4727C31.6436 43.681 31.4271 43.8372 31.1797 43.9414C30.9323 44.0456 30.6654 44.0977 30.3789 44.0977C30.0924 44.0977 29.8255 44.0456 29.5781 43.9414C29.3307 43.8372 29.1126 43.681 28.9238 43.4727C28.7383 43.2643 28.5934 43.0055 28.4893 42.6963C28.3851 42.3838 28.333 42.0225 28.333 41.6123ZM29.1973 41.1094V41.6123C29.1973 41.902 29.2266 42.1559 29.2852 42.374C29.3438 42.5921 29.4268 42.7744 29.5342 42.9209C29.6416 43.0674 29.7669 43.1781 29.9102 43.2529C30.0534 43.3245 30.2096 43.3604 30.3789 43.3604C30.5742 43.3604 30.7451 43.3245 30.8916 43.2529C31.0413 43.1781 31.165 43.0674 31.2627 42.9209C31.3604 42.7744 31.4336 42.5921 31.4824 42.374C31.5312 42.1559 31.5557 41.902 31.5557 41.6123V41.1094C31.5557 40.8197 31.5264 40.5674 31.4678 40.3525C31.4092 40.1344 31.3262 39.9521 31.2188 39.8057C31.1113 39.6559 30.9844 39.5452 30.8379 39.4736C30.6947 39.3988 30.5384 39.3613 30.3691 39.3613C30.2031 39.3613 30.0485 39.3988 29.9053 39.4736C29.762 39.5452 29.6367 39.6559 29.5293 39.8057C29.4251 39.9521 29.3438 40.1344 29.2852 40.3525C29.2266 40.5674 29.1973 40.8197 29.1973 41.1094ZM39.0557 42.2031C39.0557 42.0371 39.0361 41.8906 38.9971 41.7637C38.958 41.6335 38.8896 41.5163 38.792 41.4121C38.6943 41.3079 38.5576 41.2087 38.3818 41.1143C38.2061 41.0199 37.9831 40.9238 37.7129 40.8262C37.4199 40.722 37.1546 40.6064 36.917 40.4795C36.6794 40.3493 36.4759 40.2012 36.3066 40.0352C36.1406 39.8691 36.012 39.6787 35.9209 39.4639C35.8298 39.249 35.7842 39.0033 35.7842 38.7266C35.7842 38.4499 35.8314 38.1943 35.9258 37.96C36.0234 37.7256 36.1602 37.5221 36.3359 37.3496C36.515 37.1738 36.7298 37.0371 36.9805 36.9395C37.2311 36.8418 37.5111 36.793 37.8203 36.793C38.2826 36.793 38.6715 36.8955 38.9873 37.1006C39.3063 37.3024 39.5472 37.5677 39.71 37.8965C39.8727 38.222 39.9541 38.5703 39.9541 38.9414H39.0557C39.0557 38.6745 39.0117 38.4385 38.9238 38.2334C38.8392 38.0251 38.7057 37.8623 38.5234 37.7451C38.3444 37.6247 38.11 37.5645 37.8203 37.5645C37.5599 37.5645 37.3451 37.6149 37.1758 37.7158C37.0098 37.8167 36.8861 37.9535 36.8047 38.126C36.7266 38.2985 36.6875 38.4954 36.6875 38.7168C36.6875 38.8665 36.7135 39.0033 36.7656 39.127C36.8177 39.2474 36.8975 39.3597 37.0049 39.4639C37.1156 39.568 37.2523 39.6641 37.415 39.752C37.5811 39.8398 37.7764 39.9245 38.001 40.0059C38.3493 40.1198 38.6471 40.2467 38.8945 40.3867C39.1419 40.5267 39.3438 40.6846 39.5 40.8604C39.6562 41.0329 39.7702 41.2298 39.8418 41.4512C39.9167 41.6693 39.9541 41.9167 39.9541 42.1934C39.9541 42.4831 39.9053 42.7451 39.8076 42.9795C39.7132 43.2139 39.5749 43.4141 39.3926 43.5801C39.2103 43.7461 38.9906 43.8747 38.7334 43.9658C38.4762 44.0537 38.1865 44.0977 37.8643 44.0977C37.5843 44.0977 37.3092 44.0521 37.0391 43.9609C36.7721 43.8698 36.5296 43.7331 36.3115 43.5508C36.0934 43.3685 35.9193 43.1439 35.7891 42.877C35.6589 42.6068 35.5938 42.2943 35.5938 41.9395H36.4922C36.4922 42.1836 36.528 42.3936 36.5996 42.5693C36.6712 42.7419 36.7705 42.8851 36.8975 42.999C37.0244 43.113 37.1693 43.1976 37.332 43.2529C37.498 43.305 37.6755 43.3311 37.8643 43.3311C38.1247 43.3311 38.3428 43.2855 38.5186 43.1943C38.6976 43.1032 38.8311 42.973 38.9189 42.8037C39.0101 42.6344 39.0557 42.4342 39.0557 42.2031ZM43.3965 41.2119H41.8438V40.4453H43.3965C43.6895 40.4453 43.9255 40.3867 44.1045 40.2695C44.2868 40.1523 44.4186 39.9896 44.5 39.7812C44.5846 39.5729 44.627 39.3353 44.627 39.0684C44.627 38.8242 44.5846 38.5947 44.5 38.3799C44.4186 38.165 44.2868 37.9925 44.1045 37.8623C43.9255 37.7288 43.6895 37.6621 43.3965 37.6621H42.0293V44H41.1309V36.8906H43.3965C43.8555 36.8906 44.2428 36.9834 44.5586 37.1689C44.8743 37.3545 45.1136 37.6117 45.2764 37.9404C45.4424 38.266 45.5254 38.6387 45.5254 39.0586C45.5254 39.5143 45.4424 39.9033 45.2764 40.2256C45.1136 40.5479 44.8743 40.7936 44.5586 40.9629C44.2428 41.1289 43.8555 41.2119 43.3965 41.2119ZM50.5938 43.2334V44H46.5752V43.2334H50.5938ZM50.4668 37.5742L46.7852 44H46.2334V43.2969L49.9102 36.8906H50.4668V37.5742ZM50.0859 36.8906V37.6621H46.2627V36.8906H50.0859Z" fill="url(#paint0_linear_363_3389)"/>
<path d="M105.814 40.8906V48H104.916V40.8906H105.814ZM108.212 44.0889V44.8604H105.644V44.0889H108.212ZM108.617 40.8906V41.6621H105.644V40.8906H108.617ZM112.035 47.0967V44.2305C112.035 44.0221 112.003 43.8545 111.938 43.7275C111.876 43.6006 111.781 43.5078 111.654 43.4492C111.531 43.3906 111.374 43.3613 111.186 43.3613C111.003 43.3613 110.845 43.3988 110.712 43.4736C110.582 43.5485 110.481 43.6478 110.409 43.7715C110.341 43.8952 110.307 44.0319 110.307 44.1816H109.442C109.442 43.9928 109.483 43.8057 109.564 43.6201C109.649 43.4346 109.77 43.2669 109.926 43.1172C110.082 42.9642 110.269 42.8438 110.487 42.7559C110.709 42.6647 110.956 42.6191 111.229 42.6191C111.555 42.6191 111.843 42.6729 112.094 42.7803C112.344 42.8844 112.541 43.0553 112.685 43.293C112.828 43.5306 112.899 43.8464 112.899 44.2402V46.8477C112.899 47.0234 112.912 47.2106 112.938 47.4092C112.968 47.6077 113.008 47.7786 113.061 47.9219V48H112.167C112.125 47.8958 112.092 47.7575 112.069 47.585C112.047 47.4092 112.035 47.2464 112.035 47.0967ZM112.172 44.7969L112.182 45.4316H111.581C111.376 45.4316 111.189 45.4544 111.02 45.5C110.854 45.5456 110.71 45.6123 110.59 45.7002C110.469 45.7848 110.377 45.8906 110.312 46.0176C110.25 46.1445 110.219 46.2894 110.219 46.4521C110.219 46.6637 110.248 46.833 110.307 46.96C110.365 47.0837 110.453 47.1732 110.57 47.2285C110.688 47.2839 110.836 47.3115 111.015 47.3115C111.233 47.3115 111.425 47.2611 111.591 47.1602C111.757 47.0592 111.885 46.9372 111.977 46.7939C112.071 46.6507 112.115 46.5173 112.108 46.3936L112.299 46.7988C112.286 46.9258 112.243 47.0641 112.172 47.2139C112.104 47.3604 112.007 47.502 111.884 47.6387C111.76 47.7721 111.614 47.8828 111.444 47.9707C111.278 48.0553 111.091 48.0977 110.883 48.0977C110.577 48.0977 110.308 48.0391 110.077 47.9219C109.849 47.8047 109.672 47.6322 109.545 47.4043C109.418 47.1764 109.354 46.8949 109.354 46.5596C109.354 46.3057 109.398 46.0713 109.486 45.8564C109.574 45.6416 109.704 45.4561 109.877 45.2998C110.049 45.1403 110.266 45.0166 110.526 44.9287C110.79 44.8408 111.094 44.7969 111.439 44.7969H112.172ZM115.111 40.5V48H114.247V40.5H115.111ZM117.792 42.7168L115.912 45.1826L114.75 46.5205L114.691 45.5586L115.492 44.4551L116.752 42.7168H117.792ZM117.001 48L115.517 45.4805L115.961 44.6748L118.007 48H117.001ZM120.683 42.7168V43.4102H118.217V42.7168H120.683ZM119.022 41.4326H119.887V46.6914C119.887 46.8704 119.908 47.0055 119.95 47.0967C119.996 47.1878 120.053 47.248 120.121 47.2773C120.189 47.3066 120.263 47.3213 120.341 47.3213C120.399 47.3213 120.465 47.3148 120.536 47.3018C120.608 47.2855 120.657 47.2725 120.683 47.2627L120.678 48C120.619 48.0228 120.541 48.0439 120.443 48.0635C120.346 48.0863 120.222 48.0977 120.072 48.0977C119.887 48.0977 119.714 48.0537 119.555 47.9658C119.395 47.8779 119.267 47.7314 119.169 47.5264C119.071 47.318 119.022 47.0381 119.022 46.6865V41.4326ZM124.384 46.7793V42.7168H125.248V48H124.428L124.384 46.7793ZM124.545 45.666L124.887 45.6562C124.887 46.0078 124.856 46.3333 124.794 46.6328C124.735 46.929 124.638 47.1862 124.501 47.4043C124.368 47.6224 124.19 47.7933 123.969 47.917C123.747 48.0374 123.476 48.0977 123.153 48.0977C122.935 48.0977 122.737 48.0602 122.558 47.9854C122.382 47.9105 122.229 47.7949 122.099 47.6387C121.972 47.4824 121.872 47.279 121.801 47.0283C121.732 46.7777 121.698 46.4766 121.698 46.125V42.7168H122.558V46.1348C122.558 46.3724 122.579 46.5693 122.621 46.7256C122.663 46.8786 122.72 47.0007 122.792 47.0918C122.864 47.1797 122.943 47.2415 123.031 47.2773C123.119 47.3132 123.209 47.3311 123.3 47.3311C123.606 47.3311 123.85 47.2578 124.032 47.1113C124.215 46.9616 124.345 46.7614 124.423 46.5107C124.504 46.2568 124.545 45.9753 124.545 45.666ZM127.411 43.5469V48H126.547V42.7168H127.382L127.411 43.5469ZM128.725 42.6875L128.729 43.5273C128.658 43.5111 128.593 43.5013 128.534 43.498C128.479 43.4915 128.414 43.4883 128.339 43.4883C128.176 43.4883 128.033 43.5208 127.909 43.5859C127.789 43.651 127.685 43.7422 127.597 43.8594C127.509 43.9766 127.439 44.1165 127.387 44.2793C127.335 44.4388 127.299 44.6146 127.279 44.8066L127.055 44.9531C127.055 44.6341 127.079 44.3346 127.128 44.0547C127.18 43.7747 127.26 43.5273 127.367 43.3125C127.475 43.0944 127.611 42.9251 127.777 42.8047C127.947 42.681 128.148 42.6191 128.383 42.6191C128.435 42.6191 128.498 42.6273 128.573 42.6436C128.651 42.6566 128.702 42.6712 128.725 42.6875ZM131.986 47.0967V44.2305C131.986 44.0221 131.954 43.8545 131.889 43.7275C131.827 43.6006 131.732 43.5078 131.605 43.4492C131.482 43.3906 131.326 43.3613 131.137 43.3613C130.954 43.3613 130.797 43.3988 130.663 43.4736C130.533 43.5485 130.432 43.6478 130.36 43.7715C130.292 43.8952 130.258 44.0319 130.258 44.1816H129.394C129.394 43.9928 129.434 43.8057 129.516 43.6201C129.6 43.4346 129.721 43.2669 129.877 43.1172C130.033 42.9642 130.22 42.8437 130.438 42.7559C130.66 42.6647 130.907 42.6191 131.181 42.6191C131.506 42.6191 131.794 42.6729 132.045 42.7803C132.296 42.8844 132.493 43.0553 132.636 43.293C132.779 43.5306 132.851 43.8464 132.851 44.2402V46.8477C132.851 47.0234 132.864 47.2106 132.89 47.4092C132.919 47.6077 132.96 47.7786 133.012 47.9219V48H132.118C132.076 47.8958 132.043 47.7575 132.021 47.585C131.998 47.4092 131.986 47.2464 131.986 47.0967ZM132.123 44.7969L132.133 45.4316L131.532 45.4316C131.327 45.4316 131.14 45.4544 130.971 45.5C130.805 45.5456 130.661 45.6123 130.541 45.7002C130.421 45.7848 130.328 45.8906 130.263 46.0176C130.201 46.1445 130.17 46.2894 130.17 46.4521C130.17 46.6637 130.199 46.833 130.258 46.96C130.316 47.0837 130.404 47.1732 130.521 47.2285C130.639 47.2839 130.787 47.3115 130.966 47.3115C131.184 47.3115 131.376 47.2611 131.542 47.1602C131.708 47.0592 131.837 46.9372 131.928 46.7939C132.022 46.6507 132.066 46.5173 132.06 46.3936L132.25 46.7988C132.237 46.9258 132.195 47.0641 132.123 47.2139C132.055 47.3604 131.959 47.502 131.835 47.6387C131.711 47.7721 131.565 47.8828 131.396 47.9707C131.229 48.0553 131.042 48.0977 130.834 48.0977C130.528 48.0977 130.259 48.0391 130.028 47.9219C129.8 47.8047 129.623 47.6322 129.496 47.4043C129.369 47.1764 129.306 46.8949 129.306 46.5596C129.306 46.3057 129.35 46.0713 129.438 45.8564C129.525 45.6416 129.656 45.4561 129.828 45.2998C130.001 45.1403 130.217 45.0166 130.478 44.9287C130.741 44.8408 131.046 44.7969 131.391 44.7969L132.123 44.7969ZM136.024 47.3604C136.197 47.3604 136.353 47.3262 136.493 47.2578C136.636 47.1862 136.754 47.0755 136.845 46.9258C136.936 46.7728 136.988 46.5742 137.001 46.3301H137.812C137.799 46.6816 137.709 46.9909 137.543 47.2578C137.38 47.5215 137.165 47.7282 136.898 47.8779C136.635 48.0244 136.343 48.0977 136.024 48.0977C135.683 48.0977 135.385 48.0423 135.131 47.9316C134.88 47.821 134.672 47.6615 134.506 47.4531C134.343 47.2415 134.221 46.986 134.14 46.6865C134.058 46.3838 134.018 46.0404 134.018 45.6562V45.0605C134.018 44.6764 134.058 44.3346 134.14 44.0352C134.221 43.7324 134.343 43.4769 134.506 43.2686C134.672 43.057 134.88 42.8958 135.131 42.7852C135.385 42.6745 135.683 42.6191 136.024 42.6191C136.382 42.6191 136.692 42.6956 136.952 42.8486C137.216 42.9984 137.421 43.2165 137.567 43.5029C137.717 43.7861 137.799 44.1296 137.812 44.5332H137.001C136.988 44.2728 136.941 44.0563 136.859 43.8838C136.778 43.708 136.667 43.5778 136.527 43.4932C136.387 43.4053 136.22 43.3613 136.024 43.3613C135.797 43.3613 135.608 43.402 135.458 43.4834C135.312 43.5615 135.196 43.6755 135.111 43.8252C135.027 43.9749 134.966 44.154 134.931 44.3623C134.898 44.5706 134.882 44.8034 134.882 45.0605V45.6562C134.882 45.9134 134.898 46.1478 134.931 46.3594C134.966 46.5677 135.025 46.7467 135.106 46.8965C135.191 47.0462 135.308 47.1618 135.458 47.2432C135.608 47.3213 135.797 47.3604 136.024 47.3604ZM140.702 48.0977C140.386 48.0977 140.102 48.0505 139.848 47.9561C139.594 47.8617 139.377 47.7184 139.198 47.5264C139.019 47.3311 138.882 47.0853 138.788 46.7891C138.694 46.4928 138.646 46.1429 138.646 45.7393V45.1436C138.646 44.6781 138.7 44.2842 138.808 43.9619C138.918 43.6396 139.066 43.3809 139.252 43.1855C139.438 42.987 139.647 42.8437 139.882 42.7559C140.116 42.6647 140.357 42.6191 140.604 42.6191C140.937 42.6191 141.22 42.6729 141.454 42.7803C141.688 42.8877 141.879 43.0472 142.025 43.2588C142.172 43.4704 142.279 43.7308 142.348 44.04C142.419 44.3493 142.455 44.7057 142.455 45.1094V45.6123H139.154V44.875H141.591V44.7529C141.578 44.4795 141.54 44.2386 141.479 44.0303C141.42 43.8219 141.322 43.6592 141.186 43.542C141.049 43.4215 140.855 43.3613 140.604 43.3613C140.445 43.3613 140.297 43.389 140.16 43.4443C140.027 43.4964 139.911 43.5892 139.813 43.7227C139.719 43.8529 139.644 44.0335 139.589 44.2646C139.537 44.4958 139.511 44.7887 139.511 45.1436V45.7393C139.511 46.0225 139.537 46.2666 139.589 46.4717C139.644 46.6735 139.724 46.8411 139.828 46.9746C139.936 47.1048 140.066 47.2025 140.219 47.2676C140.375 47.3294 140.552 47.3604 140.751 47.3604C141.041 47.3604 141.28 47.305 141.469 47.1943C141.658 47.0804 141.822 46.9355 141.962 46.7598L142.416 47.3018C142.322 47.4352 142.198 47.5638 142.045 47.6875C141.895 47.8079 141.71 47.9072 141.488 47.9854C141.27 48.0602 141.008 48.0977 140.702 48.0977Z" fill="url(#paint1_linear_363_3389)"/>
<path d="M200.473 39.8301V41.0654C200.473 41.5667 200.417 42.0078 200.307 42.3887C200.199 42.7663 200.041 43.082 199.833 43.3359C199.625 43.5898 199.374 43.7803 199.081 43.9072C198.788 44.0342 198.458 44.0977 198.09 44.0977C197.735 44.0977 197.411 44.0342 197.118 43.9072C196.825 43.7803 196.573 43.5898 196.361 43.3359C196.15 43.082 195.985 42.7663 195.868 42.3887C195.754 42.0078 195.697 41.5667 195.697 41.0654V39.8301C195.697 39.3288 195.754 38.8893 195.868 38.5117C195.982 38.1309 196.145 37.8135 196.356 37.5596C196.568 37.3057 196.82 37.1152 197.113 36.9883C197.406 36.8581 197.73 36.793 198.085 36.793C198.453 36.793 198.783 36.8581 199.076 36.9883C199.372 37.1152 199.623 37.3057 199.828 37.5596C200.036 37.8135 200.196 38.1309 200.307 38.5117C200.417 38.8893 200.473 39.3288 200.473 39.8301ZM199.584 41.0654V39.8203C199.584 39.4297 199.551 39.0944 199.486 38.8145C199.421 38.5312 199.325 38.3001 199.198 38.1211C199.071 37.9421 198.915 37.8102 198.729 37.7256C198.544 37.6377 198.329 37.5938 198.085 37.5938C197.854 37.5938 197.646 37.6377 197.46 37.7256C197.278 37.8102 197.121 37.9421 196.991 38.1211C196.861 38.3001 196.76 38.5312 196.688 38.8145C196.62 39.0944 196.586 39.4297 196.586 39.8203V41.0654C196.586 41.4593 196.62 41.7979 196.688 42.0811C196.76 42.361 196.861 42.5921 196.991 42.7744C197.125 42.9535 197.284 43.0869 197.47 43.1748C197.655 43.2594 197.862 43.3018 198.09 43.3018C198.334 43.3018 198.549 43.2594 198.734 43.1748C198.923 43.0869 199.079 42.9535 199.203 42.7744C199.33 42.5921 199.424 42.361 199.486 42.0811C199.551 41.7979 199.584 41.4593 199.584 41.0654ZM203.114 43.1846L204.247 38.7168H205.126L203.559 44H202.987L203.114 43.1846ZM202.201 38.7168L203.383 43.209L203.476 44H202.909L201.322 38.7168H202.201ZM207.846 44.0977C207.53 44.0977 207.245 44.0505 206.991 43.9561C206.737 43.8617 206.521 43.7184 206.342 43.5264C206.163 43.3311 206.026 43.0853 205.932 42.7891C205.837 42.4928 205.79 42.1429 205.79 41.7393V41.1436C205.79 40.6781 205.844 40.2842 205.951 39.9619C206.062 39.6396 206.21 39.3809 206.396 39.1855C206.581 38.987 206.791 38.8438 207.025 38.7559C207.26 38.6647 207.501 38.6191 207.748 38.6191C208.08 38.6191 208.363 38.6729 208.598 38.7803C208.832 38.8877 209.022 39.0472 209.169 39.2588C209.315 39.4704 209.423 39.7308 209.491 40.04C209.563 40.3493 209.599 40.7057 209.599 41.1094V41.6123H206.298V40.875H208.734V40.7529C208.721 40.4795 208.684 40.2386 208.622 40.0303C208.563 39.8219 208.466 39.6592 208.329 39.542C208.192 39.4215 207.999 39.3613 207.748 39.3613C207.589 39.3613 207.44 39.389 207.304 39.4443C207.17 39.4964 207.055 39.5892 206.957 39.7227C206.863 39.8529 206.788 40.0335 206.732 40.2646C206.68 40.4958 206.654 40.7887 206.654 41.1436V41.7393C206.654 42.0225 206.68 42.2666 206.732 42.4717C206.788 42.6735 206.868 42.8411 206.972 42.9746C207.079 43.1048 207.209 43.2025 207.362 43.2676C207.519 43.3294 207.696 43.3604 207.895 43.3604C208.184 43.3604 208.424 43.305 208.612 43.1943C208.801 43.0804 208.965 42.9355 209.105 42.7598L209.56 43.3018C209.465 43.4352 209.341 43.5638 209.188 43.6875C209.039 43.8079 208.853 43.9072 208.632 43.9854C208.414 44.0602 208.152 44.0977 207.846 44.0977ZM207.128 36.5049L207.714 37.335L208.295 36.5049H209.037V36.5537L207.968 37.8916H207.46L206.405 36.5537V36.5049H207.128ZM211.508 39.5469V44H210.644V38.7168L211.479 38.7168L211.508 39.5469ZM212.821 38.6875L212.826 39.5273C212.755 39.5111 212.689 39.5013 212.631 39.498C212.576 39.4915 212.51 39.4883 212.436 39.4883C212.273 39.4883 212.13 39.5208 212.006 39.5859C211.885 39.651 211.781 39.7422 211.693 39.8594C211.605 39.9766 211.535 40.1165 211.483 40.2793C211.431 40.4388 211.396 40.6146 211.376 40.8066L211.151 40.9531C211.151 40.6341 211.176 40.3346 211.225 40.0547C211.277 39.7747 211.356 39.5273 211.464 39.3125C211.571 39.0944 211.708 38.9251 211.874 38.8047C212.043 38.681 212.245 38.6191 212.479 38.6191C212.532 38.6191 212.595 38.6273 212.67 38.6436C212.748 38.6566 212.799 38.6712 212.821 38.6875ZM211.171 36.5049L211.757 37.335L212.338 36.5049H213.08V36.5537L212.011 37.8916H211.503L210.448 36.5537V36.5049L211.171 36.5049ZM215.482 44.0977C215.167 44.0977 214.882 44.0505 214.628 43.9561C214.374 43.8617 214.158 43.7184 213.979 43.5264C213.799 43.3311 213.663 43.0853 213.568 42.7891C213.474 42.4928 213.427 42.1429 213.427 41.7393V41.1436C213.427 40.6781 213.48 40.2842 213.588 39.9619C213.699 39.6396 213.847 39.3809 214.032 39.1855C214.218 38.987 214.428 38.8437 214.662 38.7559C214.896 38.6647 215.137 38.6191 215.385 38.6191C215.717 38.6191 216 38.6729 216.234 38.7803C216.469 38.8877 216.659 39.0472 216.806 39.2588C216.952 39.4704 217.06 39.7308 217.128 40.04C217.2 40.3493 217.235 40.7057 217.235 41.1094V41.6123H213.935V40.875H216.371V40.7529C216.358 40.4795 216.321 40.2386 216.259 40.0303C216.2 39.8219 216.103 39.6592 215.966 39.542C215.829 39.4215 215.635 39.3613 215.385 39.3613C215.225 39.3613 215.077 39.389 214.94 39.4443C214.807 39.4964 214.691 39.5892 214.594 39.7227C214.499 39.8529 214.424 40.0335 214.369 40.2646C214.317 40.4958 214.291 40.7887 214.291 41.1436V41.7393C214.291 42.0225 214.317 42.2666 214.369 42.4717C214.424 42.6735 214.504 42.8411 214.608 42.9746C214.716 43.1048 214.846 43.2025 214.999 43.2676C215.155 43.3294 215.333 43.3604 215.531 43.3604C215.821 43.3604 216.06 43.305 216.249 43.1943C216.438 43.0804 216.602 42.9355 216.742 42.7598L217.196 43.3018C217.102 43.4352 216.978 43.5638 216.825 43.6875C216.675 43.8079 216.49 43.9072 216.269 43.9854C216.05 44.0602 215.788 44.0977 215.482 44.0977ZM219.145 39.8447V44H218.28V38.7168H219.096L219.145 39.8447ZM218.935 41.1582L218.583 41.1436C218.58 40.7822 218.62 40.4486 218.705 40.1426C218.793 39.8333 218.917 39.5648 219.076 39.3369C219.239 39.109 219.433 38.9333 219.657 38.8096C219.882 38.6826 220.131 38.6191 220.404 38.6191C220.619 38.6191 220.814 38.6549 220.99 38.7266C221.166 38.7949 221.316 38.9056 221.439 39.0586C221.563 39.2116 221.658 39.4102 221.723 39.6543C221.791 39.8952 221.825 40.1898 221.825 40.5381V44H220.961V40.5283C220.961 40.2516 220.93 40.0303 220.868 39.8643C220.81 39.695 220.718 39.5729 220.595 39.498C220.474 39.4199 220.321 39.3809 220.136 39.3809C219.966 39.3809 219.809 39.4281 219.662 39.5225C219.516 39.6169 219.387 39.7471 219.276 39.9131C219.169 40.0791 219.084 40.2695 219.022 40.4844C218.964 40.696 218.935 40.9206 218.935 41.1582ZM224.057 38.7168V44H223.192V38.7168H224.057ZM223.144 37.9453L224.091 36.5098H225.18L223.871 37.9453H223.144ZM230.36 43.0967V40.2305C230.36 40.0221 230.328 39.8545 230.263 39.7275C230.201 39.6006 230.106 39.5078 229.979 39.4492C229.856 39.3906 229.7 39.3613 229.511 39.3613C229.328 39.3613 229.171 39.3988 229.037 39.4736C228.907 39.5485 228.806 39.6478 228.734 39.7715C228.666 39.8952 228.632 40.0319 228.632 40.1816H227.768C227.768 39.9928 227.808 39.8057 227.89 39.6201C227.974 39.4346 228.095 39.2669 228.251 39.1172C228.407 38.9642 228.594 38.8437 228.812 38.7559C229.034 38.6647 229.281 38.6191 229.555 38.6191C229.88 38.6191 230.168 38.6729 230.419 38.7803C230.67 38.8844 230.867 39.0553 231.01 39.293C231.153 39.5306 231.225 39.8464 231.225 40.2402V42.8477C231.225 43.0234 231.238 43.2106 231.264 43.4092C231.293 43.6077 231.334 43.7786 231.386 43.9219V44H230.492C230.45 43.8958 230.417 43.7575 230.395 43.585C230.372 43.4092 230.36 43.2464 230.36 43.0967ZM230.497 40.7969L230.507 41.4316H229.906C229.701 41.4316 229.514 41.4544 229.345 41.5C229.179 41.5456 229.035 41.6123 228.915 41.7002C228.795 41.7848 228.702 41.8906 228.637 42.0176C228.575 42.1445 228.544 42.2894 228.544 42.4521C228.544 42.6637 228.573 42.833 228.632 42.96C228.69 43.0837 228.778 43.1732 228.896 43.2285C229.013 43.2839 229.161 43.3115 229.34 43.3115C229.558 43.3115 229.75 43.2611 229.916 43.1602C230.082 43.0592 230.211 42.9372 230.302 42.7939C230.396 42.6507 230.44 42.5173 230.434 42.3936L230.624 42.7988C230.611 42.9258 230.569 43.0641 230.497 43.2139C230.429 43.3604 230.333 43.502 230.209 43.6387C230.085 43.7721 229.939 43.8828 229.77 43.9707C229.604 44.0553 229.416 44.0977 229.208 44.0977C228.902 44.0977 228.633 44.0391 228.402 43.9219C228.174 43.8047 227.997 43.6322 227.87 43.4043C227.743 43.1764 227.68 42.8949 227.68 42.5596C227.68 42.3057 227.724 42.0713 227.812 41.8564C227.899 41.6416 228.03 41.4561 228.202 41.2998C228.375 41.1403 228.591 41.0166 228.852 40.9287C229.115 40.8408 229.42 40.7969 229.765 40.7969H230.497ZM202.66 50.7324V57.0312H201.796V49.7168H202.582L202.66 50.7324ZM205.614 52.1191V52.6123C205.614 53.029 205.575 53.3936 205.497 53.7061C205.422 54.0153 205.31 54.2741 205.16 54.4824C205.014 54.6875 204.833 54.8421 204.618 54.9463C204.403 55.0472 204.158 55.0977 203.881 55.0977C203.604 55.0977 203.363 55.0456 203.158 54.9414C202.956 54.834 202.785 54.6794 202.646 54.4775C202.509 54.2757 202.4 54.0332 202.318 53.75C202.24 53.4635 202.187 53.1429 202.157 52.7881V52.0361C202.187 51.6618 202.24 51.3265 202.318 51.0303C202.396 50.7308 202.504 50.4769 202.641 50.2686C202.781 50.057 202.951 49.8958 203.153 49.7852C203.358 49.6745 203.598 49.6191 203.871 49.6191C204.154 49.6191 204.403 49.668 204.618 49.7656C204.836 49.8633 205.019 50.0146 205.165 50.2197C205.315 50.4215 205.427 50.6803 205.502 50.9961C205.577 51.3086 205.614 51.6829 205.614 52.1191ZM204.75 52.6123V52.1191C204.75 51.8262 204.727 51.5706 204.682 51.3525C204.639 51.1344 204.571 50.9538 204.477 50.8105C204.382 50.6673 204.263 50.5599 204.12 50.4883C203.977 50.4167 203.804 50.3809 203.603 50.3809C203.43 50.3809 203.277 50.4167 203.144 50.4883C203.013 50.5599 202.901 50.6576 202.807 50.7812C202.712 50.9017 202.634 51.04 202.572 51.1963C202.51 51.3493 202.465 51.5088 202.436 51.6748V53.1543C202.491 53.3626 202.564 53.5596 202.655 53.7451C202.746 53.9274 202.868 54.0755 203.021 54.1895C203.178 54.3034 203.375 54.3604 203.612 54.3604C203.811 54.3604 203.982 54.3245 204.125 54.2529C204.268 54.1813 204.385 54.0739 204.477 53.9307C204.571 53.7842 204.639 53.6019 204.682 53.3838C204.727 53.1624 204.75 52.9053 204.75 52.6123ZM207.655 47.5V55H206.796V47.5H207.655ZM211.61 54.0967V51.2305C211.61 51.0221 211.578 50.8545 211.513 50.7275C211.451 50.6006 211.356 50.5078 211.229 50.4492C211.106 50.3906 210.95 50.3613 210.761 50.3613C210.578 50.3613 210.421 50.3988 210.287 50.4736C210.157 50.5485 210.056 50.6478 209.984 50.7715C209.916 50.8952 209.882 51.0319 209.882 51.1816H209.018C209.018 50.9928 209.058 50.8057 209.14 50.6201C209.224 50.4346 209.345 50.2669 209.501 50.1172C209.657 49.9642 209.844 49.8438 210.062 49.7559C210.284 49.6647 210.531 49.6191 210.805 49.6191C211.13 49.6191 211.418 49.6729 211.669 49.7803C211.92 49.8844 212.117 50.0553 212.26 50.293C212.403 50.5306 212.475 50.8464 212.475 51.2402V53.8477C212.475 54.0234 212.488 54.2106 212.514 54.4092C212.543 54.6077 212.584 54.7786 212.636 54.9219V55H211.742C211.7 54.8958 211.667 54.7575 211.645 54.585C211.622 54.4092 211.61 54.2464 211.61 54.0967ZM211.747 51.7969L211.757 52.4316H211.156C210.951 52.4316 210.764 52.4544 210.595 52.5C210.429 52.5456 210.285 52.6123 210.165 52.7002C210.045 52.7848 209.952 52.8906 209.887 53.0176C209.825 53.1445 209.794 53.2894 209.794 53.4521C209.794 53.6637 209.823 53.833 209.882 53.96C209.94 54.0837 210.028 54.1732 210.146 54.2285C210.263 54.2839 210.411 54.3115 210.59 54.3115C210.808 54.3115 211 54.2611 211.166 54.1602C211.332 54.0592 211.461 53.9372 211.552 53.7939C211.646 53.6507 211.69 53.5173 211.684 53.3936L211.874 53.7988C211.861 53.9258 211.819 54.0641 211.747 54.2139C211.679 54.3604 211.583 54.502 211.459 54.6387C211.335 54.7721 211.189 54.8828 211.02 54.9707C210.854 55.0553 210.666 55.0977 210.458 55.0977C210.152 55.0977 209.883 55.0391 209.652 54.9219C209.424 54.8047 209.247 54.6322 209.12 54.4043C208.993 54.1764 208.93 53.8949 208.93 53.5596C208.93 53.3057 208.974 53.0713 209.062 52.8564C209.149 52.6416 209.28 52.4561 209.452 52.2998C209.625 52.1403 209.841 52.0166 210.102 51.9287C210.365 51.8408 210.67 51.7969 211.015 51.7969H211.747ZM215.746 49.7168V50.4102L213.28 50.4102V49.7168L215.746 49.7168ZM214.086 48.4326H214.95V53.6914C214.95 53.8704 214.971 54.0055 215.014 54.0967C215.059 54.1878 215.116 54.248 215.185 54.2773C215.253 54.3066 215.326 54.3213 215.404 54.3213C215.463 54.3213 215.528 54.3148 215.6 54.3018C215.671 54.2855 215.72 54.2725 215.746 54.2627L215.741 55C215.683 55.0228 215.604 55.0439 215.507 55.0635C215.409 55.0863 215.285 55.0977 215.136 55.0977C214.95 55.0977 214.778 55.0537 214.618 54.9658C214.459 54.8779 214.33 54.7314 214.232 54.5264C214.135 54.318 214.086 54.0381 214.086 53.6865V48.4326ZM216.776 47.5H217.641V53.9746L217.567 55H216.776V47.5ZM220.604 52.1191V52.6123C220.604 53.029 220.565 53.3936 220.487 53.7061C220.412 54.0153 220.3 54.2741 220.15 54.4824C220.001 54.6875 219.818 54.8421 219.604 54.9463C219.389 55.0472 219.143 55.0977 218.866 55.0977C218.593 55.0977 218.357 55.0423 218.158 54.9316C217.96 54.821 217.794 54.6615 217.66 54.4531C217.527 54.2448 217.421 53.9925 217.343 53.6963C217.268 53.4001 217.216 53.0664 217.187 52.6953V52.0361C217.216 51.6618 217.268 51.3265 217.343 51.0303C217.418 50.7308 217.522 50.4769 217.655 50.2686C217.789 50.057 217.955 49.8958 218.153 49.7852C218.352 49.6745 218.588 49.6191 218.861 49.6191C219.141 49.6191 219.389 49.668 219.604 49.7656C219.822 49.8633 220.004 50.0146 220.15 50.2197C220.3 50.4215 220.412 50.6803 220.487 50.9961C220.565 51.3086 220.604 51.6829 220.604 52.1191ZM219.74 52.6123V52.1191C219.74 51.8262 219.721 51.5706 219.682 51.3525C219.646 51.1344 219.586 50.9538 219.501 50.8105C219.416 50.6673 219.302 50.5599 219.159 50.4883C219.019 50.4167 218.845 50.3809 218.637 50.3809C218.461 50.3809 218.306 50.4167 218.173 50.4883C218.043 50.5599 217.93 50.6576 217.836 50.7812C217.742 50.9017 217.663 51.04 217.602 51.1963C217.54 51.3493 217.494 51.5088 217.465 51.6748V53.0615C217.507 53.2731 217.574 53.4766 217.665 53.6719C217.759 53.8639 217.886 54.0218 218.046 54.1455C218.205 54.2692 218.404 54.3311 218.642 54.3311C218.84 54.3311 219.008 54.2969 219.145 54.2285C219.285 54.1602 219.398 54.056 219.486 53.916C219.574 53.7728 219.638 53.5938 219.677 53.3789C219.719 53.1608 219.74 52.9053 219.74 52.6123ZM224.296 54.0967V51.2305C224.296 51.0221 224.263 50.8545 224.198 50.7275C224.136 50.6006 224.042 50.5078 223.915 50.4492C223.791 50.3906 223.635 50.3613 223.446 50.3613C223.264 50.3613 223.106 50.3988 222.973 50.4736C222.842 50.5485 222.742 50.6478 222.67 50.7715C222.602 50.8952 222.567 51.0319 222.567 51.1816H221.703C221.703 50.9928 221.744 50.8057 221.825 50.6201C221.91 50.4346 222.03 50.2669 222.187 50.1172C222.343 49.9642 222.53 49.8437 222.748 49.7559C222.969 49.6647 223.217 49.6191 223.49 49.6191C223.816 49.6191 224.104 49.6729 224.354 49.7803C224.605 49.8844 224.802 50.0553 224.945 50.293C225.089 50.5306 225.16 50.8464 225.16 51.2402V53.8477C225.16 54.0234 225.173 54.2106 225.199 54.4092C225.229 54.6077 225.269 54.7786 225.321 54.9219V55H224.428C224.385 54.8958 224.353 54.7575 224.33 54.585C224.307 54.4092 224.296 54.2464 224.296 54.0967ZM224.433 51.7969L224.442 52.4316H223.842C223.637 52.4316 223.45 52.4544 223.28 52.5C223.114 52.5456 222.971 52.6123 222.851 52.7002C222.73 52.7848 222.637 52.8906 222.572 53.0176C222.51 53.1445 222.479 53.2894 222.479 53.4521C222.479 53.6637 222.509 53.833 222.567 53.96C222.626 54.0837 222.714 54.1732 222.831 54.2285C222.948 54.2839 223.096 54.3115 223.275 54.3115C223.493 54.3115 223.686 54.2611 223.852 54.1602C224.018 54.0592 224.146 53.9372 224.237 53.7939C224.332 53.6507 224.376 53.5173 224.369 53.3936L224.56 53.7988C224.547 53.9258 224.504 54.0641 224.433 54.2139C224.364 54.3604 224.268 54.502 224.145 54.6387C224.021 54.7721 223.874 54.8828 223.705 54.9707C223.539 55.0553 223.352 55.0977 223.144 55.0977C222.838 55.0977 222.569 55.0391 222.338 54.9219C222.11 54.8047 221.933 54.6322 221.806 54.4043C221.679 54.1764 221.615 53.8949 221.615 53.5596C221.615 53.3057 221.659 53.0713 221.747 52.8564C221.835 52.6416 221.965 52.4561 222.138 52.2998C222.31 52.1403 222.527 52.0166 222.787 51.9287C223.051 51.8408 223.355 51.7969 223.7 51.7969H224.433Z" fill="#E0E0E9"/>
<path fill-rule="evenodd" clip-rule="evenodd" d="M203 16L136 16V14L203 14V16Z" fill="#D0CFD7"/>
<path fill-rule="evenodd" clip-rule="evenodd" d="M110 16L43 16V14L110 14V16Z" fill="url(#paint2_linear_363_3389)"/>
<path fill-rule="evenodd" clip-rule="evenodd" d="M17.7612 6.17317C17 8.01088 17 10.3406 17 15C17 19.6594 17 21.9891 17.7612 23.8268C18.7761 26.2771 20.7229 28.2239 23.1732 29.2388C25.0109 30 27.3406 30 32 30C36.6594 30 38.9891 30 40.8268 29.2388C43.2771 28.2239 45.2239 26.2771 46.2388 23.8268C47 21.9891 47 19.6594 47 15C47 10.3406 47 8.01088 46.2388 6.17317C45.2239 3.72288 43.2771 1.77614 40.8268 0.761205C38.9891 0 36.6594 0 32 0C27.3406 0 25.0109 0 23.1732 0.761205C20.7229 1.77614 18.7761 3.72288 17.7612 6.17317ZM38.7071 11.7071C39.0976 11.3166 39.0976 10.6834 38.7071 10.2929C38.3166 9.90237 37.6834 9.90237 37.2929 10.2929L30 17.5858L26.7071 14.2929C26.3166 13.9024 25.6834 13.9024 25.2929 14.2929C24.9024 14.6834 24.9024 15.3166 25.2929 15.7071L29.2929 19.7071C29.4804 19.8946 29.7348 20 30 20C30.2652 20 30.5196 19.8946 30.7071 19.7071L38.7071 11.7071Z" fill="url(#paint3_linear_363_3389)"/>
<path fill-rule="evenodd" clip-rule="evenodd" d="M108.761 6.17317C108 8.01088 108 10.3406 108 15C108 19.6594 108 21.9891 108.761 23.8268C109.776 26.2771 111.723 28.2239 114.173 29.2388C116.011 30 118.341 30 123 30C127.659 30 129.989 30 131.827 29.2388C134.277 28.2239 136.224 26.2771 137.239 23.8268C138 21.9891 138 19.6594 138 15C138 10.3406 138 8.01088 137.239 6.17317C136.224 3.72288 134.277 1.77614 131.827 0.761205C129.989 0 127.659 0 123 0C118.341 0 116.011 0 114.173 0.761205C111.723 1.77614 109.776 3.72288 108.761 6.17317ZM129.707 11.7071C130.098 11.3166 130.098 10.6834 129.707 10.2929C129.317 9.90237 128.683 9.90237 128.293 10.2929L121 17.5858L117.707 14.2929C117.317 13.9024 116.683 13.9024 116.293 14.2929C115.902 14.6834 115.902 15.3166 116.293 15.7071L120.293 19.7071C120.48 19.8946 120.735 20 121 20C121.265 20 121.52 19.8946 121.707 19.7071L129.707 11.7071Z" fill="url(#paint4_linear_363_3389)"/>
<path fill-rule="evenodd" clip-rule="evenodd" d="M199.761 6.17317C199 8.01088 199 10.3406 199 15C199 19.6594 199 21.9891 199.761 23.8268C200.776 26.2771 202.723 28.2239 205.173 29.2388C207.011 30 209.341 30 214 30C218.659 30 220.989 30 222.827 29.2388C225.277 28.2239 227.224 26.2771 228.239 23.8268C229 21.9891 229 19.6594 229 15C229 10.3406 229 8.01088 228.239 6.17317C227.224 3.72288 225.277 1.77614 222.827 0.761205C220.989 0 218.659 0 214 0C209.341 0 207.011 0 205.173 0.761205C202.723 1.77614 200.776 3.72288 199.761 6.17317ZM220.707 11.7071C221.098 11.3166 221.098 10.6834 220.707 10.2929C220.317 9.90237 219.683 9.90237 219.293 10.2929L212 17.5858L208.707 14.2929C208.317 13.9024 207.683 13.9024 207.293 14.2929C206.902 14.6834 206.902 15.3166 207.293 15.7071L211.293 19.7071C211.48 19.8946 211.735 20 212 20C212.265 20 212.52 19.8946 212.707 19.7071L220.707 11.7071Z" fill="#D0CFD7"/>
<defs>
<linearGradient id="paint0_linear_363_3389" x1="32" y1="46" x2="32" y2="35" gradientUnits="userSpaceOnUse">
<stop stop-color="#5CCC94"/>
<stop offset="1" stop-color="#8CCAAE"/>
</linearGradient>
<linearGradient id="paint1_linear_363_3389" x1="123.5" y1="55" x2="123.5" y2="35" gradientUnits="userSpaceOnUse">
<stop stop-color="#5CCC94"/>
<stop offset="1" stop-color="#8CCAAE"/>
</linearGradient>
<linearGradient id="paint2_linear_363_3389" x1="76.5" y1="16" x2="76.5" y2="14" gradientUnits="userSpaceOnUse">
<stop stop-color="#5CCC94"/>
<stop offset="1" stop-color="#8CCAAE"/>
</linearGradient>
<linearGradient id="paint3_linear_363_3389" x1="32" y1="30" x2="32" y2="1.58545e-07" gradientUnits="userSpaceOnUse">
<stop stop-color="#5CCC94"/>
<stop offset="1" stop-color="#8CCAAE"/>
</linearGradient>
<linearGradient id="paint4_linear_363_3389" x1="123" y1="30" x2="123" y2="1.58545e-07" gradientUnits="userSpaceOnUse">
<stop stop-color="#5CCC94"/>
<stop offset="1" stop-color="#8CCAAE"/>
</linearGradient>
</defs>
</svg>
