<svg width="239" height="69" viewBox="0 0 239 69" fill="none" xmlns="http://www.w3.org/2000/svg">
<path d="M8.66992 36.8906L8.66992 44H7.77148L7.77148 36.8906H8.66992ZM12.2441 36.8906L9.79785 40.2061L8.36719 41.9297L8.20605 40.9238L9.25586 39.5469L11.1699 36.8906H12.2441ZM11.3506 44L9.25586 40.5332L9.78809 39.7861L12.4199 44H11.3506ZM14.876 44.0977C14.5602 44.0977 14.2754 44.0505 14.0215 43.9561C13.7676 43.8617 13.5511 43.7184 13.3721 43.5264C13.193 43.3311 13.0563 43.0853 12.9619 42.7891C12.8675 42.4928 12.8203 42.1429 12.8203 41.7393V41.1436C12.8203 40.6781 12.874 40.2842 12.9814 39.9619C13.0921 39.6396 13.2402 39.3809 13.4258 39.1855C13.6113 38.987 13.8213 38.8438 14.0557 38.7559C14.29 38.6647 14.5309 38.6191 14.7783 38.6191C15.1104 38.6191 15.3936 38.6729 15.6279 38.7803C15.8623 38.8877 16.0527 39.0472 16.1992 39.2588C16.3457 39.4704 16.4531 39.7308 16.5215 40.04C16.5931 40.3493 16.6289 40.7057 16.6289 41.1094V41.6123H13.3281V40.875H15.7646V40.7529C15.7516 40.4795 15.7142 40.2386 15.6523 40.0303C15.5938 39.8219 15.4961 39.6592 15.3594 39.542C15.2227 39.4215 15.029 39.3613 14.7783 39.3613C14.6188 39.3613 14.4707 39.389 14.334 39.4443C14.2005 39.4964 14.085 39.5892 13.9873 39.7227C13.8929 39.8529 13.818 40.0335 13.7627 40.2646C13.7106 40.4958 13.6846 40.7887 13.6846 41.1436V41.7393C13.6846 42.0225 13.7106 42.2666 13.7627 42.4717C13.818 42.6735 13.8978 42.8411 14.002 42.9746C14.1094 43.1048 14.2396 43.2025 14.3926 43.2676C14.5488 43.3294 14.7262 43.3604 14.9248 43.3604C15.2145 43.3604 15.4538 43.305 15.6426 43.1943C15.8314 43.0804 15.9958 42.9355 16.1357 42.7598L16.5898 43.3018C16.4954 43.4352 16.3717 43.5638 16.2188 43.6875C16.069 43.8079 15.8835 43.9072 15.6621 43.9854C15.444 44.0602 15.182 44.0977 14.876 44.0977ZM18.5381 39.8447V44H17.6738V38.7168H18.4893L18.5381 39.8447ZM18.3281 41.1582L17.9766 41.1436C17.9733 40.7822 18.014 40.4486 18.0986 40.1426C18.1865 39.8333 18.3102 39.5648 18.4697 39.3369C18.6325 39.109 18.8262 38.9333 19.0508 38.8096C19.2754 38.6826 19.5244 38.6191 19.7979 38.6191C20.0127 38.6191 20.208 38.6549 20.3838 38.7266C20.5596 38.7949 20.7093 38.9056 20.833 39.0586C20.9567 39.2116 21.0511 39.4102 21.1162 39.6543C21.1846 39.8952 21.2188 40.1898 21.2188 40.5381V44H20.3545V40.5283C20.3545 40.2516 20.3236 40.0303 20.2617 39.8643C20.2031 39.695 20.112 39.5729 19.9883 39.498C19.8678 39.4199 19.7148 39.3809 19.5293 39.3809C19.36 39.3809 19.2021 39.4281 19.0557 39.5225C18.9092 39.6169 18.7806 39.7471 18.6699 39.9131C18.5625 40.0791 18.4779 40.2695 18.416 40.4844C18.3574 40.696 18.3281 40.9206 18.3281 41.1582ZM23.3818 39.8447V44H22.5176V38.7168H23.333L23.3818 39.8447ZM23.1719 41.1582L22.8203 41.1436C22.8171 40.7822 22.8577 40.4486 22.9424 40.1426C23.0303 39.8333 23.154 39.5648 23.3135 39.3369C23.4762 39.109 23.6699 38.9333 23.8945 38.8096C24.1191 38.6826 24.3682 38.6191 24.6416 38.6191C24.8564 38.6191 25.0518 38.6549 25.2275 38.7266C25.4033 38.7949 25.5531 38.9056 25.6768 39.0586C25.8005 39.2116 25.8949 39.4102 25.96 39.6543C26.0283 39.8952 26.0625 40.1898 26.0625 40.5381V44H25.1982V40.5283C25.1982 40.2516 25.1673 40.0303 25.1055 39.8643C25.0469 39.695 24.9557 39.5729 24.832 39.498C24.7116 39.4199 24.5586 39.3809 24.373 39.3809C24.2038 39.3809 24.0459 39.4281 23.8994 39.5225C23.7529 39.6169 23.6243 39.7471 23.5137 39.9131C23.4062 40.0791 23.3216 40.2695 23.2598 40.4844C23.2012 40.696 23.1719 40.9206 23.1719 41.1582ZM30.7061 43.2578V44L27.5078 44V43.2578L30.7061 43.2578ZM30.6084 39.3564L27.7031 44L27.1758 44V43.3359L30.0615 38.7168H30.6084V39.3564ZM30.2324 38.7168V39.4639H27.1904V38.7168H30.2324ZM33.5674 44.0977C33.2516 44.0977 32.9668 44.0505 32.7129 43.9561C32.459 43.8617 32.2425 43.7184 32.0635 43.5264C31.8844 43.3311 31.7477 43.0853 31.6533 42.7891C31.5589 42.4928 31.5117 42.1429 31.5117 41.7393V41.1436C31.5117 40.6781 31.5654 40.2842 31.6729 39.9619C31.7835 39.6396 31.9316 39.3809 32.1172 39.1855C32.3027 38.987 32.5127 38.8437 32.7471 38.7559C32.9814 38.6647 33.2223 38.6191 33.4697 38.6191C33.8018 38.6191 34.085 38.6729 34.3193 38.7803C34.5537 38.8877 34.7441 39.0472 34.8906 39.2588C35.0371 39.4704 35.1445 39.7308 35.2129 40.04C35.2845 40.3493 35.3203 40.7057 35.3203 41.1094V41.6123H32.0195V40.875H34.4561V40.7529C34.443 40.4795 34.4056 40.2386 34.3438 40.0303C34.2852 39.8219 34.1875 39.6592 34.0508 39.542C33.9141 39.4215 33.7204 39.3613 33.4697 39.3613C33.3102 39.3613 33.1621 39.389 33.0254 39.4443C32.8919 39.4964 32.7764 39.5892 32.6787 39.7227C32.5843 39.8529 32.5094 40.0335 32.4541 40.2646C32.402 40.4958 32.376 40.7887 32.376 41.1436V41.7393C32.376 42.0225 32.402 42.2666 32.4541 42.4717C32.5094 42.6735 32.5892 42.8411 32.6934 42.9746C32.8008 43.1048 32.931 43.2025 33.084 43.2676C33.2402 43.3294 33.4176 43.3604 33.6162 43.3604C33.9059 43.3604 34.1452 43.305 34.334 43.1943C34.5228 43.0804 34.6872 42.9355 34.8271 42.7598L35.2812 43.3018C35.1868 43.4352 35.0632 43.5638 34.9102 43.6875C34.7604 43.8079 34.5749 43.9072 34.3535 43.9854C34.1354 44.0602 33.8734 44.0977 33.5674 44.0977ZM37.293 38.7168V44H36.4336V38.7168H37.293ZM36.3848 37.3154C36.3848 37.1689 36.4255 37.0452 36.5068 36.9443C36.5882 36.8434 36.7103 36.793 36.873 36.793C37.0358 36.793 37.1579 36.8434 37.2393 36.9443C37.3239 37.0452 37.3662 37.1689 37.3662 37.3154C37.3662 37.4554 37.3239 37.5758 37.2393 37.6768C37.1579 37.7744 37.0358 37.8232 36.873 37.8232C36.7103 37.8232 36.5882 37.7744 36.5068 37.6768C36.4255 37.5758 36.3848 37.4554 36.3848 37.3154ZM40.4912 43.3604C40.6637 43.3604 40.82 43.3262 40.96 43.2578C41.1032 43.1862 41.2204 43.0755 41.3115 42.9258C41.4027 42.7728 41.4548 42.5742 41.4678 42.3301H42.2783C42.2653 42.6816 42.1758 42.9909 42.0098 43.2578C41.847 43.5215 41.6322 43.7282 41.3652 43.8779C41.1016 44.0244 40.8102 44.0977 40.4912 44.0977C40.1494 44.0977 39.8516 44.0423 39.5977 43.9316C39.347 43.821 39.1387 43.6615 38.9727 43.4531C38.8099 43.2415 38.6878 42.986 38.6064 42.6865C38.5251 42.3838 38.4844 42.0404 38.4844 41.6562V41.0605C38.4844 40.6764 38.5251 40.3346 38.6064 40.0352C38.6878 39.7324 38.8099 39.4769 38.9727 39.2686C39.1387 39.057 39.347 38.8958 39.5977 38.7852C39.8516 38.6745 40.1494 38.6191 40.4912 38.6191C40.8493 38.6191 41.1585 38.6956 41.4189 38.8486C41.6826 38.9984 41.8877 39.2165 42.0342 39.5029C42.1839 39.7861 42.2653 40.1296 42.2783 40.5332H41.4678C41.4548 40.2728 41.4076 40.0563 41.3262 39.8838C41.2448 39.708 41.1341 39.5778 40.9941 39.4932C40.8542 39.4053 40.6865 39.3613 40.4912 39.3613C40.2633 39.3613 40.0745 39.402 39.9248 39.4834C39.7783 39.5615 39.6628 39.6755 39.5781 39.8252C39.4935 39.9749 39.4333 40.154 39.3975 40.3623C39.3649 40.5706 39.3486 40.8034 39.3486 41.0605V41.6562C39.3486 41.9134 39.3649 42.1478 39.3975 42.3594C39.4333 42.5677 39.4919 42.7467 39.5732 42.8965C39.6579 43.0462 39.7751 43.1618 39.9248 43.2432C40.0745 43.3213 40.2633 43.3604 40.4912 43.3604ZM44.1436 36.5V44H43.2793V36.5H44.1436ZM43.9336 41.1582L43.582 41.1436C43.5788 40.7822 43.6195 40.4486 43.7041 40.1426C43.792 39.8333 43.9157 39.5648 44.0752 39.3369C44.238 39.109 44.4316 38.9333 44.6562 38.8096C44.8809 38.6826 45.1299 38.6191 45.4033 38.6191C45.6182 38.6191 45.8135 38.6549 45.9893 38.7266C46.165 38.7949 46.3148 38.9056 46.4385 39.0586C46.5622 39.2116 46.6566 39.4102 46.7217 39.6543C46.79 39.8952 46.8242 40.1898 46.8242 40.5381V44H45.96V40.5283C45.96 40.2516 45.929 40.0303 45.8672 39.8643C45.8086 39.695 45.7174 39.5729 45.5938 39.498C45.4733 39.4199 45.3203 39.3809 45.1348 39.3809C44.9655 39.3809 44.8076 39.4281 44.6611 39.5225C44.5146 39.6169 44.3861 39.7471 44.2754 39.9131C44.168 40.0791 44.0833 40.2695 44.0215 40.4844C43.9629 40.696 43.9336 40.9206 43.9336 41.1582ZM50.0029 44.0977C49.6872 44.0977 49.4023 44.0505 49.1484 43.9561C48.8945 43.8617 48.6781 43.7184 48.499 43.5264C48.32 43.3311 48.1833 43.0853 48.0889 42.7891C47.9945 42.4928 47.9473 42.1429 47.9473 41.7393V41.1436C47.9473 40.6781 48.001 40.2842 48.1084 39.9619C48.2191 39.6396 48.3672 39.3809 48.5527 39.1855C48.7383 38.987 48.9482 38.8437 49.1826 38.7559C49.417 38.6647 49.6579 38.6191 49.9053 38.6191C50.2373 38.6191 50.5205 38.6729 50.7549 38.7803C50.9893 38.8877 51.1797 39.0472 51.3262 39.2588C51.4727 39.4704 51.5801 39.7308 51.6484 40.04C51.7201 40.3493 51.7559 40.7057 51.7559 41.1094V41.6123H48.4551V40.875H50.8916V40.7529C50.8786 40.4795 50.8411 40.2386 50.7793 40.0303C50.7207 39.8219 50.623 39.6592 50.4863 39.542C50.3496 39.4215 50.1559 39.3613 49.9053 39.3613C49.7458 39.3613 49.5977 39.389 49.4609 39.4443C49.3275 39.4964 49.2119 39.5892 49.1143 39.7227C49.0199 39.8529 48.945 40.0335 48.8896 40.2646C48.8376 40.4958 48.8115 40.7887 48.8115 41.1436V41.7393C48.8115 42.0225 48.8376 42.2666 48.8896 42.4717C48.945 42.6735 49.0247 42.8411 49.1289 42.9746C49.2363 43.1048 49.3665 43.2025 49.5195 43.2676C49.6758 43.3294 49.8532 43.3604 50.0518 43.3604C50.3415 43.3604 50.5807 43.305 50.7695 43.1943C50.9583 43.0804 51.1227 42.9355 51.2627 42.7598L51.7168 43.3018C51.6224 43.4352 51.4987 43.5638 51.3457 43.6875C51.196 43.8079 51.0104 43.9072 50.7891 43.9854C50.571 44.0602 50.3089 44.0977 50.0029 44.0977ZM53.665 39.8447V44H52.8008V38.7168H53.6162L53.665 39.8447ZM53.4551 41.1582L53.1035 41.1436C53.1003 40.7822 53.141 40.4486 53.2256 40.1426C53.3135 39.8333 53.4372 39.5648 53.5967 39.3369C53.7594 39.109 53.9531 38.9333 54.1777 38.8096C54.4023 38.6826 54.6514 38.6191 54.9248 38.6191C55.1396 38.6191 55.335 38.6549 55.5107 38.7266C55.6865 38.7949 55.8363 38.9056 55.96 39.0586C56.0837 39.2116 56.1781 39.4102 56.2432 39.6543C56.3115 39.8952 56.3457 40.1898 56.3457 40.5381V44H55.4814V40.5283C55.4814 40.2516 55.4505 40.0303 55.3887 39.8643C55.3301 39.695 55.2389 39.5729 55.1152 39.498C54.9948 39.4199 54.8418 39.3809 54.6562 39.3809C54.487 39.3809 54.3291 39.4281 54.1826 39.5225C54.0361 39.6169 53.9076 39.7471 53.7969 39.9131C53.6895 40.0791 53.6048 40.2695 53.543 40.4844C53.4844 40.696 53.4551 40.9206 53.4551 41.1582Z" fill="url(#paint0_linear_363_2802)"/>
<path d="M86.835 40.8906H88.8223C89.2845 40.8906 89.6719 40.972 89.9844 41.1348C90.3001 41.2975 90.5378 41.5384 90.6973 41.8574C90.86 42.1732 90.9414 42.5622 90.9414 43.0244C90.9414 43.3499 90.8877 43.6478 90.7803 43.918C90.6729 44.1849 90.5166 44.4128 90.3115 44.6016C90.1064 44.7871 89.8574 44.9255 89.5645 45.0166L89.3203 45.1191H87.5479L87.5381 44.3525H88.8125C89.0859 44.3525 89.3138 44.2939 89.4961 44.1768C89.6784 44.0563 89.8151 43.8952 89.9062 43.6934C89.9974 43.4915 90.043 43.2686 90.043 43.0244C90.043 42.751 90.0023 42.5117 89.9209 42.3066C89.8395 42.1016 89.7093 41.9437 89.5303 41.833C89.3545 41.7191 89.1185 41.6621 88.8223 41.6621H87.7334V48H86.835V40.8906ZM90.248 48L88.832 44.7773L89.7646 44.7725L91.21 47.9414V48H90.248ZM93.915 48.0977C93.5993 48.0977 93.3145 48.0505 93.0605 47.9561C92.8066 47.8617 92.5902 47.7184 92.4111 47.5264C92.2321 47.3311 92.0954 47.0853 92.001 46.7891C91.9066 46.4928 91.8594 46.1429 91.8594 45.7393V45.1436C91.8594 44.6781 91.9131 44.2842 92.0205 43.9619C92.1312 43.6396 92.2793 43.3809 92.4648 43.1855C92.6504 42.987 92.8604 42.8438 93.0947 42.7559C93.3291 42.6647 93.57 42.6191 93.8174 42.6191C94.1494 42.6191 94.4326 42.6729 94.667 42.7803C94.9014 42.8877 95.0918 43.0472 95.2383 43.2588C95.3848 43.4704 95.4922 43.7308 95.5605 44.04C95.6322 44.3493 95.668 44.7057 95.668 45.1094V45.6123H92.3672V44.875H94.8037V44.7529C94.7907 44.4795 94.7533 44.2386 94.6914 44.0303C94.6328 43.8219 94.5352 43.6592 94.3984 43.542C94.2617 43.4215 94.068 43.3613 93.8174 43.3613C93.6579 43.3613 93.5098 43.389 93.373 43.4443C93.2396 43.4964 93.124 43.5892 93.0264 43.7227C92.932 43.8529 92.8571 44.0335 92.8018 44.2646C92.7497 44.4958 92.7236 44.7887 92.7236 45.1436V45.7393C92.7236 46.0225 92.7497 46.2666 92.8018 46.4717C92.8571 46.6735 92.9368 46.8411 93.041 46.9746C93.1484 47.1048 93.2786 47.2025 93.4316 47.2676C93.5879 47.3294 93.7653 47.3604 93.9639 47.3604C94.2536 47.3604 94.4928 47.305 94.6816 47.1943C94.8704 47.0804 95.0348 46.9355 95.1748 46.7598L95.6289 47.3018C95.5345 47.4352 95.4108 47.5638 95.2578 47.6875C95.1081 47.8079 94.9225 47.9072 94.7012 47.9854C94.4831 48.0602 94.221 48.0977 93.915 48.0977ZM98.5439 47.3604C98.7165 47.3604 98.8727 47.3262 99.0127 47.2578C99.1559 47.1862 99.2731 47.0755 99.3643 46.9258C99.4554 46.7728 99.5075 46.5742 99.5205 46.3301H100.331C100.318 46.6816 100.229 46.9909 100.062 47.2578C99.8997 47.5215 99.6849 47.7282 99.418 47.8779C99.1543 48.0244 98.863 48.0977 98.5439 48.0977C98.2021 48.0977 97.9043 48.0423 97.6504 47.9316C97.3997 47.821 97.1914 47.6615 97.0254 47.4531C96.8626 47.2415 96.7406 46.986 96.6592 46.6865C96.5778 46.3838 96.5371 46.0404 96.5371 45.6562V45.0605C96.5371 44.6764 96.5778 44.3346 96.6592 44.0352C96.7406 43.7324 96.8626 43.4769 97.0254 43.2686C97.1914 43.057 97.3997 42.8958 97.6504 42.7852C97.9043 42.6745 98.2021 42.6191 98.5439 42.6191C98.902 42.6191 99.2113 42.6956 99.4717 42.8486C99.7354 42.9984 99.9404 43.2165 100.087 43.5029C100.237 43.7861 100.318 44.1296 100.331 44.5332H99.5205C99.5075 44.2728 99.4603 44.0563 99.3789 43.8838C99.2975 43.708 99.1868 43.5778 99.0469 43.4932C98.9069 43.4053 98.7393 43.3613 98.5439 43.3613C98.3161 43.3613 98.1273 43.402 97.9775 43.4834C97.8311 43.5615 97.7155 43.6755 97.6309 43.8252C97.5462 43.9749 97.486 44.154 97.4502 44.3623C97.4176 44.5706 97.4014 44.8034 97.4014 45.0605V45.6562C97.4014 45.9134 97.4176 46.1478 97.4502 46.3594C97.486 46.5677 97.5446 46.7467 97.626 46.8965C97.7106 47.0462 97.8278 47.1618 97.9775 47.2432C98.1273 47.3213 98.3161 47.3604 98.5439 47.3604ZM102.196 40.5V48H101.332V40.5H102.196ZM101.986 45.1582L101.635 45.1436C101.632 44.7822 101.672 44.4486 101.757 44.1426C101.845 43.8333 101.968 43.5648 102.128 43.3369C102.291 43.109 102.484 42.9333 102.709 42.8096C102.934 42.6826 103.183 42.6191 103.456 42.6191C103.671 42.6191 103.866 42.6549 104.042 42.7266C104.218 42.7949 104.368 42.9056 104.491 43.0586C104.615 43.2116 104.709 43.4102 104.774 43.6543C104.843 43.8952 104.877 44.1898 104.877 44.5381V48H104.013V44.5283C104.013 44.2516 103.982 44.0303 103.92 43.8643C103.861 43.695 103.77 43.5729 103.646 43.498C103.526 43.4199 103.373 43.3809 103.188 43.3809C103.018 43.3809 102.86 43.4281 102.714 43.5225C102.567 43.6169 102.439 43.7471 102.328 43.9131C102.221 44.0791 102.136 44.2695 102.074 44.4844C102.016 44.696 101.986 44.9206 101.986 45.1582ZM107.03 43.8447V48H106.166V42.7168H106.981L107.03 43.8447ZM106.82 45.1582L106.469 45.1436C106.465 44.7822 106.506 44.4486 106.591 44.1426C106.679 43.8333 106.802 43.5648 106.962 43.3369C107.125 43.109 107.318 42.9333 107.543 42.8096C107.768 42.6826 108.017 42.6191 108.29 42.6191C108.505 42.6191 108.7 42.6549 108.876 42.7266C109.052 42.7949 109.201 42.9056 109.325 43.0586C109.449 43.2116 109.543 43.4102 109.608 43.6543C109.677 43.8952 109.711 44.1898 109.711 44.5381V48H108.847V44.5283C108.847 44.2516 108.816 44.0303 108.754 43.8643C108.695 43.695 108.604 43.5729 108.48 43.498C108.36 43.4199 108.207 43.3809 108.021 43.3809C107.852 43.3809 107.694 43.4281 107.548 43.5225C107.401 43.6169 107.273 43.7471 107.162 43.9131C107.055 44.0791 106.97 44.2695 106.908 44.4844C106.85 44.696 106.82 44.9206 106.82 45.1582ZM113.681 46.7793V42.7168H114.545V48H113.725L113.681 46.7793ZM113.842 45.666L114.184 45.6562C114.184 46.0078 114.153 46.3333 114.091 46.6328C114.032 46.929 113.935 47.1862 113.798 47.4043C113.664 47.6224 113.487 47.7933 113.266 47.917C113.044 48.0374 112.772 48.0977 112.45 48.0977C112.232 48.0977 112.034 48.0602 111.854 47.9854C111.679 47.9105 111.526 47.7949 111.396 47.6387C111.269 47.4824 111.169 47.279 111.098 47.0283C111.029 46.7777 110.995 46.4766 110.995 46.125V42.7168H111.854V46.1348C111.854 46.3724 111.876 46.5693 111.918 46.7256C111.96 46.8786 112.017 47.0007 112.089 47.0918C112.16 47.1797 112.24 47.2415 112.328 47.2773C112.416 47.3132 112.506 47.3311 112.597 47.3311C112.903 47.3311 113.147 47.2578 113.329 47.1113C113.511 46.9616 113.642 46.7614 113.72 46.5107C113.801 46.2568 113.842 45.9753 113.842 45.666ZM116.708 43.8447V48H115.844V42.7168H116.659L116.708 43.8447ZM116.498 45.1582L116.146 45.1436C116.143 44.7822 116.184 44.4486 116.269 44.1426C116.356 43.8333 116.48 43.5648 116.64 43.3369C116.802 43.109 116.996 42.9333 117.221 42.8096C117.445 42.6826 117.694 42.6191 117.968 42.6191C118.183 42.6191 118.378 42.6549 118.554 42.7266C118.729 42.7949 118.879 42.9056 119.003 43.0586C119.127 43.2116 119.221 43.4102 119.286 43.6543C119.354 43.8952 119.389 44.1898 119.389 44.5381V48H118.524V44.5283C118.524 44.2516 118.493 44.0303 118.432 43.8643C118.373 43.695 118.282 43.5729 118.158 43.498C118.038 43.4199 117.885 43.3809 117.699 43.3809C117.53 43.3809 117.372 43.4281 117.226 43.5225C117.079 43.6169 116.951 43.7471 116.84 43.9131C116.732 44.0791 116.648 44.2695 116.586 44.4844C116.527 44.696 116.498 44.9206 116.498 45.1582ZM123.549 42.7168H124.325V48.0439C124.325 48.5094 124.244 48.8936 124.081 49.1963C123.922 49.499 123.699 49.722 123.412 49.8652C123.126 50.0117 122.795 50.085 122.421 50.085C122.287 50.085 122.12 50.0605 121.918 50.0117C121.716 49.9629 121.514 49.888 121.312 49.7871C121.111 49.6895 120.945 49.5658 120.814 49.416L121.171 48.8154C121.356 49.0042 121.553 49.1393 121.762 49.2207C121.97 49.3021 122.169 49.3428 122.357 49.3428C122.582 49.3428 122.777 49.3021 122.943 49.2207C123.109 49.1393 123.238 49.0059 123.329 48.8203C123.42 48.638 123.466 48.3939 123.466 48.0879V43.8789L123.549 42.7168ZM120.512 45.6123V45.1191C120.512 44.6829 120.552 44.3086 120.634 43.9961C120.715 43.6803 120.832 43.4215 120.985 43.2197C121.142 43.0146 121.329 42.8633 121.547 42.7656C121.765 42.668 122.009 42.6191 122.279 42.6191C122.553 42.6191 122.789 42.6745 122.987 42.7852C123.186 42.8958 123.35 43.057 123.48 43.2686C123.614 43.4769 123.718 43.7308 123.793 44.0303C123.871 44.3265 123.925 44.6618 123.954 45.0361V45.6953C123.925 46.0664 123.871 46.4001 123.793 46.6963C123.718 46.9925 123.612 47.2448 123.476 47.4531C123.342 47.6615 123.176 47.821 122.978 47.9316C122.779 48.0423 122.543 48.0977 122.27 48.0977C122.003 48.0977 121.762 48.0472 121.547 47.9463C121.332 47.8421 121.146 47.6875 120.99 47.4824C120.837 47.2741 120.718 47.0153 120.634 46.7061C120.552 46.3936 120.512 46.029 120.512 45.6123ZM121.376 45.1191V45.6123C121.376 45.9053 121.397 46.1608 121.439 46.3789C121.482 46.5937 121.547 46.7728 121.635 46.916C121.726 47.056 121.841 47.1602 121.981 47.2285C122.125 47.2969 122.296 47.3311 122.494 47.3311C122.735 47.3311 122.932 47.2725 123.085 47.1553C123.238 47.0381 123.36 46.8835 123.451 46.6914C123.546 46.4961 123.62 46.2861 123.676 46.0615V44.6748C123.643 44.5088 123.596 44.3493 123.534 44.1963C123.476 44.04 123.399 43.9017 123.305 43.7812C123.21 43.6576 123.096 43.5599 122.963 43.4883C122.833 43.4167 122.68 43.3809 122.504 43.3809C122.305 43.3809 122.134 43.4167 121.991 43.4883C121.848 43.5599 121.731 43.6673 121.64 43.8105C121.549 43.9538 121.482 44.1344 121.439 44.3525C121.397 44.5706 121.376 44.8262 121.376 45.1191ZM128.183 46.6475C128.183 46.514 128.15 46.3968 128.085 46.2959C128.02 46.195 127.912 46.0973 127.763 46.0029C127.616 45.9085 127.418 45.8076 127.167 45.7002C126.923 45.5993 126.703 45.5 126.508 45.4023C126.316 45.3014 126.153 45.1924 126.02 45.0752C125.886 44.958 125.784 44.8229 125.712 44.6699C125.644 44.5137 125.609 44.3298 125.609 44.1182C125.609 43.9066 125.648 43.7113 125.727 43.5322C125.808 43.3499 125.922 43.1904 126.068 43.0537C126.215 42.917 126.391 42.8112 126.596 42.7363C126.801 42.6582 127.03 42.6191 127.284 42.6191C127.646 42.6191 127.953 42.6891 128.207 42.8291C128.461 42.9691 128.655 43.1611 128.788 43.4053C128.925 43.6462 128.993 43.918 128.993 44.2207H128.134C128.134 44.0742 128.101 43.9359 128.036 43.8057C127.971 43.6755 127.875 43.5697 127.748 43.4883C127.621 43.4036 127.466 43.3613 127.284 43.3613C127.092 43.3613 126.936 43.3955 126.815 43.4639C126.695 43.5322 126.607 43.6217 126.552 43.7324C126.5 43.8398 126.474 43.9587 126.474 44.0889C126.474 44.1865 126.487 44.2712 126.513 44.3428C126.542 44.4111 126.591 44.4762 126.659 44.5381C126.728 44.5967 126.82 44.6585 126.938 44.7236C127.058 44.7855 127.211 44.8571 127.396 44.9385C127.755 45.0785 128.056 45.2201 128.3 45.3633C128.544 45.5065 128.729 45.6742 128.856 45.8662C128.983 46.0583 129.047 46.2959 129.047 46.5791C129.047 46.8102 129.005 47.0202 128.92 47.209C128.839 47.3945 128.721 47.554 128.568 47.6875C128.415 47.821 128.231 47.9235 128.017 47.9951C127.805 48.0635 127.567 48.0977 127.304 48.0977C126.907 48.0977 126.57 48.0195 126.293 47.8633C126.02 47.7038 125.811 47.4971 125.668 47.2432C125.528 46.986 125.458 46.7109 125.458 46.418H126.322C126.332 46.6654 126.387 46.8574 126.488 46.9941C126.592 47.1309 126.718 47.2253 126.864 47.2773C127.011 47.3294 127.157 47.3555 127.304 47.3555C127.496 47.3555 127.657 47.3278 127.787 47.2725C127.917 47.2139 128.015 47.1309 128.08 47.0234C128.148 46.916 128.183 46.7907 128.183 46.6475ZM132.743 46.6475C132.743 46.514 132.711 46.3968 132.646 46.2959C132.58 46.195 132.473 46.0973 132.323 46.0029C132.177 45.9085 131.978 45.8076 131.728 45.7002C131.483 45.5993 131.264 45.5 131.068 45.4023C130.876 45.3014 130.714 45.1924 130.58 45.0752C130.447 44.958 130.344 44.8229 130.272 44.6699C130.204 44.5137 130.17 44.3298 130.17 44.1182C130.17 43.9066 130.209 43.7113 130.287 43.5322C130.368 43.3499 130.482 43.1904 130.629 43.0537C130.775 42.917 130.951 42.8112 131.156 42.7363C131.361 42.6582 131.591 42.6191 131.845 42.6191C132.206 42.6191 132.514 42.6891 132.768 42.8291C133.021 42.9691 133.215 43.1611 133.349 43.4053C133.485 43.6462 133.554 43.918 133.554 44.2207H132.694C132.694 44.0742 132.662 43.9359 132.597 43.8057C132.532 43.6755 132.436 43.5697 132.309 43.4883C132.182 43.4036 132.027 43.3613 131.845 43.3613C131.653 43.3613 131.496 43.3955 131.376 43.4639C131.256 43.5322 131.168 43.6217 131.112 43.7324C131.06 43.8398 131.034 43.9587 131.034 44.0889C131.034 44.1865 131.047 44.2712 131.073 44.3428C131.103 44.4111 131.151 44.4762 131.22 44.5381C131.288 44.5967 131.381 44.6585 131.498 44.7236C131.618 44.7855 131.771 44.8571 131.957 44.9385C132.315 45.0785 132.616 45.2201 132.86 45.3633C133.104 45.5065 133.29 45.6742 133.417 45.8662C133.544 46.0583 133.607 46.2959 133.607 46.5791C133.607 46.8102 133.565 47.0202 133.48 47.209C133.399 47.3945 133.282 47.554 133.129 47.6875C132.976 47.821 132.792 47.9235 132.577 47.9951C132.366 48.0635 132.128 48.0977 131.864 48.0977C131.467 48.0977 131.13 48.0195 130.854 47.8633C130.58 47.7038 130.372 47.4971 130.229 47.2432C130.089 46.986 130.019 46.7109 130.019 46.418H130.883C130.893 46.6654 130.948 46.8574 131.049 46.9941C131.153 47.1309 131.278 47.2253 131.425 47.2773C131.571 47.3294 131.718 47.3555 131.864 47.3555C132.056 47.3555 132.217 47.3278 132.348 47.2725C132.478 47.2139 132.576 47.1309 132.641 47.0234C132.709 46.916 132.743 46.7907 132.743 46.6475ZM136.669 42.7168V43.4102H134.203V42.7168H136.669ZM135.009 41.4326H135.873V46.6914C135.873 46.8704 135.894 47.0055 135.937 47.0967C135.982 47.1878 136.039 47.248 136.107 47.2773C136.176 47.3066 136.249 47.3213 136.327 47.3213C136.386 47.3213 136.451 47.3148 136.522 47.3018C136.594 47.2855 136.643 47.2725 136.669 47.2627L136.664 48C136.605 48.0228 136.527 48.0439 136.43 48.0635C136.332 48.0863 136.208 48.0977 136.059 48.0977C135.873 48.0977 135.701 48.0537 135.541 47.9658C135.382 47.8779 135.253 47.7314 135.155 47.5264C135.058 47.318 135.009 47.0381 135.009 46.6865V41.4326ZM139.589 48.0977C139.273 48.0977 138.988 48.0505 138.734 47.9561C138.48 47.8617 138.264 47.7184 138.085 47.5264C137.906 47.3311 137.769 47.0853 137.675 46.7891C137.58 46.4928 137.533 46.1429 137.533 45.7393V45.1436C137.533 44.6781 137.587 44.2842 137.694 43.9619C137.805 43.6396 137.953 43.3809 138.139 43.1855C138.324 42.987 138.534 42.8437 138.769 42.7559C139.003 42.6647 139.244 42.6191 139.491 42.6191C139.823 42.6191 140.106 42.6729 140.341 42.7803C140.575 42.8877 140.766 43.0472 140.912 43.2588C141.059 43.4704 141.166 43.7308 141.234 44.04C141.306 44.3493 141.342 44.7057 141.342 45.1094V45.6123H138.041V44.875H140.478V44.7529C140.465 44.4795 140.427 44.2386 140.365 44.0303C140.307 43.8219 140.209 43.6592 140.072 43.542C139.936 43.4215 139.742 43.3613 139.491 43.3613C139.332 43.3613 139.184 43.389 139.047 43.4443C138.913 43.4964 138.798 43.5892 138.7 43.7227C138.606 43.8529 138.531 44.0335 138.476 44.2646C138.424 44.4958 138.397 44.7887 138.397 45.1436V45.7393C138.397 46.0225 138.424 46.2666 138.476 46.4717C138.531 46.6735 138.611 46.8411 138.715 46.9746C138.822 47.1048 138.952 47.2025 139.105 47.2676C139.262 47.3294 139.439 47.3604 139.638 47.3604C139.927 47.3604 140.167 47.305 140.355 47.1943C140.544 47.0804 140.709 46.9355 140.849 46.7598L141.303 47.3018C141.208 47.4352 141.085 47.5638 140.932 47.6875C140.782 47.8079 140.596 47.9072 140.375 47.9854C140.157 48.0602 139.895 48.0977 139.589 48.0977ZM143.314 40.5V48H142.455V40.5H143.314ZM145.609 40.5V48H144.75V40.5H145.609ZM149.647 46.7793V42.7168H150.512V48H149.691L149.647 46.7793ZM149.809 45.666L150.15 45.6562C150.15 46.0078 150.119 46.3333 150.058 46.6328C149.999 46.929 149.901 47.1862 149.765 47.4043C149.631 47.6224 149.454 47.7933 149.232 47.917C149.011 48.0374 148.739 48.0977 148.417 48.0977C148.199 48.0977 148 48.0602 147.821 47.9854C147.646 47.9105 147.493 47.7949 147.362 47.6387C147.235 47.4824 147.136 47.279 147.064 47.0283C146.996 46.7777 146.962 46.4766 146.962 46.125V42.7168H147.821V46.1348C147.821 46.3724 147.842 46.5693 147.885 46.7256C147.927 46.8786 147.984 47.0007 148.056 47.0918C148.127 47.1797 148.207 47.2415 148.295 47.2773C148.383 47.3132 148.472 47.3311 148.563 47.3311C148.869 47.3311 149.114 47.2578 149.296 47.1113C149.478 46.9616 149.608 46.7614 149.687 46.5107C149.768 46.2568 149.809 45.9753 149.809 45.666ZM152.675 43.8447V48H151.811V42.7168H152.626L152.675 43.8447ZM152.465 45.1582L152.113 45.1436C152.11 44.7822 152.151 44.4486 152.235 44.1426C152.323 43.8333 152.447 43.5648 152.606 43.3369C152.769 43.109 152.963 42.9333 153.188 42.8096C153.412 42.6826 153.661 42.6191 153.935 42.6191C154.149 42.6191 154.345 42.6549 154.521 42.7266C154.696 42.7949 154.846 42.9056 154.97 43.0586C155.093 43.2116 155.188 43.4102 155.253 43.6543C155.321 43.8952 155.355 44.1898 155.355 44.5381V48H154.491V44.5283C154.491 44.2516 154.46 44.0303 154.398 43.8643C154.34 43.695 154.249 43.5729 154.125 43.498C154.005 43.4199 153.852 43.3809 153.666 43.3809C153.497 43.3809 153.339 43.4281 153.192 43.5225C153.046 43.6169 152.917 43.7471 152.807 43.9131C152.699 44.0791 152.615 44.2695 152.553 44.4844C152.494 44.696 152.465 44.9206 152.465 45.1582ZM159.516 42.7168H160.292V48.0439C160.292 48.5094 160.211 48.8936 160.048 49.1963C159.888 49.499 159.665 49.722 159.379 49.8652C159.092 50.0117 158.762 50.085 158.388 50.085C158.254 50.085 158.087 50.0605 157.885 50.0117C157.683 49.9629 157.481 49.888 157.279 49.7871C157.077 49.6895 156.911 49.5658 156.781 49.416L157.138 48.8154C157.323 49.0042 157.52 49.1393 157.729 49.2207C157.937 49.3021 158.135 49.3428 158.324 49.3428C158.549 49.3428 158.744 49.3021 158.91 49.2207C159.076 49.1393 159.205 49.0059 159.296 48.8203C159.387 48.638 159.433 48.3939 159.433 48.0879V43.8789L159.516 42.7168ZM156.479 45.6123V45.1191C156.479 44.6829 156.519 44.3086 156.601 43.9961C156.682 43.6803 156.799 43.4215 156.952 43.2197C157.108 43.0146 157.296 42.8633 157.514 42.7656C157.732 42.668 157.976 42.6191 158.246 42.6191C158.52 42.6191 158.756 42.6745 158.954 42.7852C159.153 42.8958 159.317 43.057 159.447 43.2686C159.581 43.4769 159.685 43.7308 159.76 44.0303C159.838 44.3265 159.892 44.6618 159.921 45.0361V45.6953C159.892 46.0664 159.838 46.4001 159.76 46.6963C159.685 46.9925 159.579 47.2448 159.442 47.4531C159.309 47.6615 159.143 47.821 158.944 47.9316C158.746 48.0423 158.51 48.0977 158.236 48.0977C157.969 48.0977 157.729 48.0472 157.514 47.9463C157.299 47.8421 157.113 47.6875 156.957 47.4824C156.804 47.2741 156.685 47.0153 156.601 46.7061C156.519 46.3936 156.479 46.029 156.479 45.6123ZM157.343 45.1191V45.6123C157.343 45.9053 157.364 46.1608 157.406 46.3789C157.449 46.5937 157.514 46.7728 157.602 46.916C157.693 47.056 157.808 47.1602 157.948 47.2285C158.091 47.2969 158.262 47.3311 158.461 47.3311C158.702 47.3311 158.899 47.2725 159.052 47.1553C159.205 47.0381 159.327 46.8835 159.418 46.6914C159.512 46.4961 159.587 46.2861 159.643 46.0615V44.6748C159.61 44.5088 159.563 44.3493 159.501 44.1963C159.442 44.04 159.366 43.9017 159.271 43.7812C159.177 43.6576 159.063 43.5599 158.93 43.4883C158.799 43.4167 158.646 43.3809 158.471 43.3809C158.272 43.3809 158.101 43.4167 157.958 43.4883C157.815 43.5599 157.698 43.6673 157.606 43.8105C157.515 43.9538 157.449 44.1344 157.406 44.3525C157.364 44.5706 157.343 44.8262 157.343 45.1191Z" fill="url(#paint1_linear_363_2802)"/>
<path d="M193.178 36.8906H194.076V41.8955C194.076 42.4294 193.974 42.8574 193.769 43.1797C193.563 43.502 193.293 43.7363 192.958 43.8828C192.626 44.026 192.268 44.0977 191.884 44.0977C191.474 44.0977 191.104 44.026 190.775 43.8828C190.447 43.7363 190.185 43.502 189.989 43.1797C189.797 42.8574 189.701 42.4294 189.701 41.8955V36.8906H190.595V41.8955C190.595 42.2666 190.647 42.5563 190.751 42.7646C190.858 42.973 191.008 43.1195 191.2 43.2041C191.396 43.2887 191.623 43.3311 191.884 43.3311C192.147 43.3311 192.375 43.2887 192.567 43.2041C192.763 43.1195 192.912 42.973 193.017 42.7646C193.124 42.5563 193.178 42.2666 193.178 41.8955V36.8906ZM190.307 35.7871C190.307 35.6406 190.352 35.5169 190.443 35.416C190.535 35.3151 190.666 35.2646 190.839 35.2646C191.015 35.2646 191.148 35.3151 191.239 35.416C191.33 35.5169 191.376 35.6406 191.376 35.7871C191.376 35.9271 191.33 36.0475 191.239 36.1484C191.148 36.2461 191.015 36.2949 190.839 36.2949C190.666 36.2949 190.535 36.2461 190.443 36.1484C190.352 36.0475 190.307 35.9271 190.307 35.7871ZM192.411 35.7969C192.411 35.6504 192.455 35.5267 192.543 35.4258C192.634 35.3249 192.768 35.2744 192.943 35.2744C193.116 35.2744 193.248 35.3249 193.339 35.4258C193.433 35.5267 193.48 35.6504 193.48 35.7969C193.48 35.9368 193.433 36.0573 193.339 36.1582C193.248 36.2559 193.116 36.3047 192.943 36.3047C192.768 36.3047 192.634 36.2559 192.543 36.1582C192.455 36.0573 192.411 35.9368 192.411 35.7969ZM195.331 36.5H196.195V42.9746L196.122 44H195.331V36.5ZM199.159 41.1191V41.6123C199.159 42.029 199.12 42.3936 199.042 42.7061C198.967 43.0153 198.855 43.2741 198.705 43.4824C198.555 43.6875 198.373 43.8421 198.158 43.9463C197.943 44.0472 197.698 44.0977 197.421 44.0977C197.147 44.0977 196.911 44.0423 196.713 43.9316C196.514 43.821 196.348 43.6615 196.215 43.4531C196.081 43.2448 195.976 42.9925 195.897 42.6963C195.823 42.4001 195.771 42.0664 195.741 41.6953V41.0361C195.771 40.6618 195.823 40.3265 195.897 40.0303C195.972 39.7308 196.076 39.4769 196.21 39.2686C196.343 39.057 196.509 38.8958 196.708 38.7852C196.907 38.6745 197.143 38.6191 197.416 38.6191C197.696 38.6191 197.943 38.668 198.158 38.7656C198.376 38.8633 198.559 39.0146 198.705 39.2197C198.855 39.4215 198.967 39.6803 199.042 39.9961C199.12 40.3086 199.159 40.6829 199.159 41.1191ZM198.295 41.6123V41.1191C198.295 40.8262 198.275 40.5706 198.236 40.3525C198.201 40.1344 198.14 39.9538 198.056 39.8105C197.971 39.6673 197.857 39.5599 197.714 39.4883C197.574 39.4167 197.4 39.3809 197.191 39.3809C197.016 39.3809 196.861 39.4167 196.728 39.4883C196.597 39.5599 196.485 39.6576 196.391 39.7812C196.296 39.9017 196.218 40.04 196.156 40.1963C196.094 40.3493 196.049 40.5088 196.02 40.6748V42.0615C196.062 42.2731 196.129 42.4766 196.22 42.6719C196.314 42.8639 196.441 43.0218 196.601 43.1455C196.76 43.2692 196.959 43.3311 197.196 43.3311C197.395 43.3311 197.562 43.2969 197.699 43.2285C197.839 43.1602 197.953 43.056 198.041 42.916C198.129 42.7728 198.192 42.5938 198.231 42.3789C198.274 42.1608 198.295 41.9053 198.295 41.6123ZM202.152 44.0977C201.837 44.0977 201.552 44.0505 201.298 43.9561C201.044 43.8617 200.827 43.7184 200.648 43.5264C200.469 43.3311 200.333 43.0853 200.238 42.7891C200.144 42.4928 200.097 42.1429 200.097 41.7393V41.1436C200.097 40.6781 200.15 40.2842 200.258 39.9619C200.368 39.6396 200.517 39.3809 200.702 39.1855C200.888 38.987 201.098 38.8438 201.332 38.7559C201.566 38.6647 201.807 38.6191 202.055 38.6191C202.387 38.6191 202.67 38.6729 202.904 38.7803C203.139 38.8877 203.329 39.0472 203.476 39.2588C203.622 39.4704 203.729 39.7308 203.798 40.04C203.869 40.3493 203.905 40.7057 203.905 41.1094V41.6123H200.604V40.875H203.041V40.7529C203.028 40.4795 202.991 40.2386 202.929 40.0303C202.87 39.8219 202.772 39.6592 202.636 39.542C202.499 39.4215 202.305 39.3613 202.055 39.3613C201.895 39.3613 201.747 39.389 201.61 39.4443C201.477 39.4964 201.361 39.5892 201.264 39.7227C201.169 39.8529 201.094 40.0335 201.039 40.2646C200.987 40.4958 200.961 40.7887 200.961 41.1436V41.7393C200.961 42.0225 200.987 42.2666 201.039 42.4717C201.094 42.6735 201.174 42.8411 201.278 42.9746C201.386 43.1048 201.516 43.2025 201.669 43.2676C201.825 43.3294 202.003 43.3604 202.201 43.3604C202.491 43.3604 202.73 43.305 202.919 43.1943C203.108 43.0804 203.272 42.9355 203.412 42.7598L203.866 43.3018C203.772 43.4352 203.648 43.5638 203.495 43.6875C203.345 43.8079 203.16 43.9072 202.938 43.9854C202.72 44.0602 202.458 44.0977 202.152 44.0977ZM205.814 39.5469V44H204.95V38.7168H205.785L205.814 39.5469ZM207.128 38.6875L207.133 39.5273C207.061 39.5111 206.996 39.5013 206.938 39.498C206.882 39.4915 206.817 39.4883 206.742 39.4883C206.579 39.4883 206.436 39.5208 206.312 39.5859C206.192 39.651 206.088 39.7422 206 39.8594C205.912 39.9766 205.842 40.1165 205.79 40.2793C205.738 40.4388 205.702 40.6146 205.683 40.8066L205.458 40.9531C205.458 40.6341 205.482 40.3346 205.531 40.0547C205.583 39.7747 205.663 39.5273 205.771 39.3125C205.878 39.0944 206.015 38.9251 206.181 38.8047C206.35 38.681 206.552 38.6191 206.786 38.6191C206.838 38.6191 206.902 38.6273 206.977 38.6436C207.055 38.6566 207.105 38.6712 207.128 38.6875ZM208.861 39.7324V46.0312H207.997V38.7168H208.783L208.861 39.7324ZM211.815 41.1191V41.6123C211.815 42.029 211.776 42.3936 211.698 42.7061C211.623 43.0153 211.511 43.2741 211.361 43.4824C211.215 43.6875 211.034 43.8421 210.819 43.9463C210.604 44.0472 210.359 44.0977 210.082 44.0977C209.805 44.0977 209.564 44.0456 209.359 43.9414C209.158 43.834 208.987 43.6794 208.847 43.4775C208.71 43.2757 208.601 43.0332 208.52 42.75C208.441 42.4635 208.388 42.1429 208.358 41.7881V41.0361C208.388 40.6618 208.441 40.3265 208.52 40.0303C208.598 39.7308 208.705 39.4769 208.842 39.2686C208.982 39.057 209.153 38.8958 209.354 38.7852C209.56 38.6745 209.799 38.6191 210.072 38.6191C210.355 38.6191 210.604 38.668 210.819 38.7656C211.037 38.8633 211.22 39.0146 211.366 39.2197C211.516 39.4215 211.628 39.6803 211.703 39.9961C211.778 40.3086 211.815 40.6829 211.815 41.1191ZM210.951 41.6123V41.1191C210.951 40.8262 210.928 40.5706 210.883 40.3525C210.84 40.1344 210.772 39.9538 210.678 39.8105C210.583 39.6673 210.465 39.5599 210.321 39.4883C210.178 39.4167 210.006 39.3809 209.804 39.3809C209.631 39.3809 209.478 39.4167 209.345 39.4883C209.215 39.5599 209.102 39.6576 209.008 39.7812C208.913 39.9017 208.835 40.04 208.773 40.1963C208.712 40.3493 208.666 40.5088 208.637 40.6748V42.1543C208.692 42.3626 208.765 42.5596 208.856 42.7451C208.948 42.9274 209.07 43.0755 209.223 43.1895C209.379 43.3034 209.576 43.3604 209.813 43.3604C210.012 43.3604 210.183 43.3245 210.326 43.2529C210.469 43.1813 210.587 43.0739 210.678 42.9307C210.772 42.7842 210.84 42.6019 210.883 42.3838C210.928 42.1624 210.951 41.9053 210.951 41.6123ZM213.793 39.5469V44H212.929V38.7168H213.764L213.793 39.5469ZM215.106 38.6875L215.111 39.5273C215.04 39.5111 214.975 39.5013 214.916 39.498C214.861 39.4915 214.796 39.4883 214.721 39.4883C214.558 39.4883 214.415 39.5208 214.291 39.5859C214.171 39.651 214.066 39.7422 213.979 39.8594C213.891 39.9766 213.821 40.1165 213.769 40.2793C213.716 40.4388 213.681 40.6146 213.661 40.8066L213.437 40.9531C213.437 40.6341 213.461 40.3346 213.51 40.0547C213.562 39.7747 213.642 39.5273 213.749 39.3125C213.856 39.0944 213.993 38.9251 214.159 38.8047C214.328 38.681 214.53 38.6191 214.765 38.6191C214.817 38.6191 214.88 38.6273 214.955 38.6436C215.033 38.6566 215.084 38.6712 215.106 38.6875ZM218.646 42.7793V38.7168H219.511V44H218.69L218.646 42.7793ZM218.808 41.666L219.149 41.6562C219.149 42.0078 219.118 42.3333 219.057 42.6328C218.998 42.929 218.9 43.1862 218.764 43.4043C218.63 43.6224 218.453 43.7933 218.231 43.917C218.01 44.0374 217.738 44.0977 217.416 44.0977C217.198 44.0977 216.999 44.0602 216.82 43.9854C216.645 43.9105 216.492 43.7949 216.361 43.6387C216.234 43.4824 216.135 43.279 216.063 43.0283C215.995 42.7777 215.961 42.4766 215.961 42.125V38.7168H216.82V42.1348C216.82 42.3724 216.841 42.5693 216.884 42.7256C216.926 42.8786 216.983 43.0007 217.055 43.0918C217.126 43.1797 217.206 43.2415 217.294 43.2773C217.382 43.3132 217.471 43.3311 217.562 43.3311C217.868 43.3311 218.113 43.2578 218.295 43.1113C218.477 42.9616 218.607 42.7614 218.686 42.5107C218.767 42.2568 218.808 41.9753 218.808 41.666ZM216.171 37.3057C216.171 37.1592 216.216 37.0355 216.308 36.9346C216.399 36.8337 216.531 36.7832 216.703 36.7832C216.879 36.7832 217.012 36.8337 217.104 36.9346C217.195 37.0355 217.24 37.1592 217.24 37.3057C217.24 37.4456 217.195 37.5661 217.104 37.667C217.012 37.7646 216.879 37.8135 216.703 37.8135C216.531 37.8135 216.399 37.7646 216.308 37.667C216.216 37.5661 216.171 37.4456 216.171 37.3057ZM218.275 37.3154C218.275 37.1689 218.319 37.0452 218.407 36.9443C218.498 36.8434 218.632 36.793 218.808 36.793C218.98 36.793 219.112 36.8434 219.203 36.9443C219.298 37.0452 219.345 37.1689 219.345 37.3154C219.345 37.4554 219.298 37.5758 219.203 37.6768C219.112 37.7744 218.98 37.8232 218.808 37.8232C218.632 37.8232 218.498 37.7744 218.407 37.6768C218.319 37.5758 218.275 37.4554 218.275 37.3154ZM222.055 44H221.19V38.1602C221.19 37.7793 221.251 37.4587 221.371 37.1982C221.495 36.9346 221.669 36.736 221.894 36.6025C222.121 36.4658 222.392 36.3975 222.704 36.3975C222.792 36.3975 222.88 36.404 222.968 36.417C223.059 36.43 223.145 36.4495 223.227 36.4756L223.188 37.2129C223.135 37.1966 223.072 37.1852 222.997 37.1787C222.925 37.1722 222.857 37.1689 222.792 37.1689C222.636 37.1689 222.502 37.208 222.392 37.2861C222.281 37.361 222.196 37.4717 222.138 37.6182C222.082 37.7646 222.055 37.9453 222.055 38.1602V44ZM222.953 38.7168V39.4102H220.502V38.7168H222.953ZM226.645 42.7793V38.7168H227.509V44H226.688L226.645 42.7793ZM226.806 41.666L227.147 41.6562C227.147 42.0078 227.117 42.3333 227.055 42.6328C226.996 42.929 226.898 43.1862 226.762 43.4043C226.628 43.6224 226.451 43.7933 226.229 43.917C226.008 44.0374 225.736 44.0977 225.414 44.0977C225.196 44.0977 224.997 44.0602 224.818 43.9854C224.643 43.9105 224.49 43.7949 224.359 43.6387C224.232 43.4824 224.133 43.279 224.062 43.0283C223.993 42.7777 223.959 42.4766 223.959 42.125V38.7168H224.818V42.1348C224.818 42.3724 224.84 42.5693 224.882 42.7256C224.924 42.8786 224.981 43.0007 225.053 43.0918C225.124 43.1797 225.204 43.2415 225.292 43.2773C225.38 43.3132 225.469 43.3311 225.561 43.3311C225.867 43.3311 226.111 43.2578 226.293 43.1113C226.475 42.9616 226.605 42.7614 226.684 42.5107C226.765 42.2568 226.806 41.9753 226.806 41.666ZM229.672 39.8447V44H228.808V38.7168H229.623L229.672 39.8447ZM229.462 41.1582L229.11 41.1436C229.107 40.7822 229.148 40.4486 229.232 40.1426C229.32 39.8333 229.444 39.5648 229.604 39.3369C229.766 39.109 229.96 38.9333 230.185 38.8096C230.409 38.6826 230.658 38.6191 230.932 38.6191C231.146 38.6191 231.342 38.6549 231.518 38.7266C231.693 38.7949 231.843 38.9056 231.967 39.0586C232.09 39.2116 232.185 39.4102 232.25 39.6543C232.318 39.8952 232.353 40.1898 232.353 40.5381V44H231.488V40.5283C231.488 40.2516 231.457 40.0303 231.396 39.8643C231.337 39.695 231.246 39.5729 231.122 39.498C231.002 39.4199 230.849 39.3809 230.663 39.3809C230.494 39.3809 230.336 39.4281 230.189 39.5225C230.043 39.6169 229.914 39.7471 229.804 39.9131C229.696 40.0791 229.612 40.2695 229.55 40.4844C229.491 40.696 229.462 40.9206 229.462 41.1582ZM236.513 38.7168H237.289V44.0439C237.289 44.5094 237.208 44.8936 237.045 45.1963C236.885 45.499 236.662 45.722 236.376 45.8652C236.09 46.0117 235.759 46.085 235.385 46.085C235.251 46.085 235.084 46.0605 234.882 46.0117C234.68 45.9629 234.478 45.888 234.276 45.7871C234.075 45.6895 233.909 45.5658 233.778 45.416L234.135 44.8154C234.32 45.0042 234.517 45.1393 234.726 45.2207C234.934 45.3021 235.132 45.3428 235.321 45.3428C235.546 45.3428 235.741 45.3021 235.907 45.2207C236.073 45.1393 236.202 45.0059 236.293 44.8203C236.384 44.638 236.43 44.3939 236.43 44.0879V39.8789L236.513 38.7168ZM233.476 41.6123V41.1191C233.476 40.6829 233.516 40.3086 233.598 39.9961C233.679 39.6803 233.796 39.4215 233.949 39.2197C234.105 39.0146 234.293 38.8633 234.511 38.7656C234.729 38.668 234.973 38.6191 235.243 38.6191C235.517 38.6191 235.753 38.6745 235.951 38.7852C236.15 38.8958 236.314 39.057 236.444 39.2686C236.578 39.4769 236.682 39.7308 236.757 40.0303C236.835 40.3265 236.889 40.6618 236.918 41.0361V41.6953C236.889 42.0664 236.835 42.4001 236.757 42.6963C236.682 42.9925 236.576 43.2448 236.439 43.4531C236.306 43.6615 236.14 43.821 235.941 43.9316C235.743 44.0423 235.507 44.0977 235.233 44.0977C234.966 44.0977 234.726 44.0472 234.511 43.9463C234.296 43.8421 234.11 43.6875 233.954 43.4824C233.801 43.2741 233.682 43.0153 233.598 42.7061C233.516 42.3936 233.476 42.029 233.476 41.6123ZM234.34 41.1191V41.6123C234.34 41.9053 234.361 42.1608 234.403 42.3789C234.446 42.5937 234.511 42.7728 234.599 42.916C234.69 43.056 234.805 43.1602 234.945 43.2285C235.089 43.2969 235.259 43.3311 235.458 43.3311C235.699 43.3311 235.896 43.2725 236.049 43.1553C236.202 43.0381 236.324 42.8835 236.415 42.6914C236.509 42.4961 236.584 42.2861 236.64 42.0615V40.6748C236.607 40.5088 236.56 40.3493 236.498 40.1963C236.439 40.04 236.363 39.9017 236.269 39.7812C236.174 39.6576 236.06 39.5599 235.927 39.4883C235.797 39.4167 235.644 39.3809 235.468 39.3809C235.269 39.3809 235.098 39.4167 234.955 39.4883C234.812 39.5599 234.695 39.6673 234.604 39.8105C234.512 39.9538 234.446 40.1344 234.403 40.3525C234.361 40.5706 234.34 40.8262 234.34 41.1191ZM209.501 53.7793V49.7168H210.365V55H209.545L209.501 53.7793ZM209.662 52.666L210.004 52.6562C210.004 53.0078 209.973 53.3333 209.911 53.6328C209.853 53.929 209.755 54.1862 209.618 54.4043C209.485 54.6224 209.307 54.7933 209.086 54.917C208.865 55.0374 208.593 55.0977 208.271 55.0977C208.052 55.0977 207.854 55.0602 207.675 54.9854C207.499 54.9105 207.346 54.7949 207.216 54.6387C207.089 54.4824 206.99 54.279 206.918 54.0283C206.85 53.7777 206.815 53.4766 206.815 53.125V49.7168H207.675V53.1348C207.675 53.3724 207.696 53.5693 207.738 53.7256C207.781 53.8786 207.838 54.0007 207.909 54.0918C207.981 54.1797 208.061 54.2415 208.148 54.2773C208.236 54.3132 208.326 54.3311 208.417 54.3311C208.723 54.3311 208.967 54.2578 209.149 54.1113C209.332 53.9616 209.462 53.7614 209.54 53.5107C209.621 53.2568 209.662 52.9753 209.662 52.666ZM212.528 50.8447V55H211.664V49.7168H212.479L212.528 50.8447ZM212.318 52.1582L211.967 52.1436C211.964 51.7822 212.004 51.4486 212.089 51.1426C212.177 50.8333 212.3 50.5648 212.46 50.3369C212.623 50.109 212.816 49.9333 213.041 49.8096C213.266 49.6826 213.515 49.6191 213.788 49.6191C214.003 49.6191 214.198 49.6549 214.374 49.7266C214.55 49.7949 214.7 49.9056 214.823 50.0586C214.947 50.2116 215.041 50.4102 215.106 50.6543C215.175 50.8952 215.209 51.1898 215.209 51.5381V55H214.345V51.5283C214.345 51.2516 214.314 51.0303 214.252 50.8643C214.193 50.695 214.102 50.5729 213.979 50.498C213.858 50.4199 213.705 50.3809 213.52 50.3809C213.35 50.3809 213.192 50.4281 213.046 50.5225C212.899 50.6169 212.771 50.7471 212.66 50.9131C212.553 51.0791 212.468 51.2695 212.406 51.4844C212.348 51.696 212.318 51.9206 212.318 52.1582ZM219.276 53.9746V47.5H220.136V55H219.35L219.276 53.9746ZM216.322 52.6123V52.1191C216.322 51.6829 216.365 51.3086 216.449 50.9961C216.534 50.6803 216.654 50.4215 216.811 50.2197C216.967 50.0146 217.154 49.8633 217.372 49.7656C217.59 49.668 217.831 49.6191 218.095 49.6191C218.368 49.6191 218.603 49.6745 218.798 49.7852C218.996 49.8958 219.162 50.057 219.296 50.2686C219.429 50.4769 219.534 50.7308 219.608 51.0303C219.687 51.3265 219.739 51.6618 219.765 52.0361V52.6953C219.735 53.0664 219.682 53.4001 219.604 53.6963C219.529 53.9925 219.424 54.2448 219.291 54.4531C219.158 54.6615 218.992 54.821 218.793 54.9316C218.594 55.0423 218.358 55.0977 218.085 55.0977C217.825 55.0977 217.587 55.0472 217.372 54.9463C217.157 54.8421 216.97 54.6875 216.811 54.4824C216.654 54.2741 216.534 54.0153 216.449 53.7061C216.365 53.3936 216.322 53.029 216.322 52.6123ZM217.187 52.1191V52.6123C217.187 52.9053 217.208 53.1608 217.25 53.3789C217.292 53.5938 217.359 53.7728 217.45 53.916C217.541 54.056 217.657 54.1602 217.797 54.2285C217.94 54.2969 218.111 54.3311 218.31 54.3311C218.55 54.3311 218.747 54.2725 218.9 54.1553C219.053 54.0381 219.175 53.8835 219.267 53.6914C219.361 53.4961 219.436 53.2861 219.491 53.0615V51.6748C219.459 51.5088 219.411 51.3493 219.35 51.1963C219.288 51.04 219.21 50.9017 219.115 50.7812C219.024 50.6576 218.912 50.5599 218.778 50.4883C218.648 50.4167 218.495 50.3809 218.319 50.3809C218.121 50.3809 217.948 50.4167 217.802 50.4883C217.659 50.5599 217.541 50.6673 217.45 50.8105C217.362 50.9538 217.296 51.1344 217.25 51.3525C217.208 51.5706 217.187 51.8262 217.187 52.1191ZM195.883 62.6748H194.438L194.428 61.918H195.771C195.972 61.918 196.151 61.8724 196.308 61.7812C196.464 61.6901 196.586 61.5599 196.674 61.3906C196.765 61.2181 196.811 61.013 196.811 60.7754C196.811 60.515 196.771 60.3034 196.693 60.1406C196.618 59.9746 196.503 59.8542 196.347 59.7793C196.194 59.7012 195.998 59.6621 195.761 59.6621H194.628V66H193.729V58.8906H195.761C196.067 58.8906 196.34 58.9281 196.581 59.0029C196.822 59.0745 197.025 59.1885 197.191 59.3447C197.361 59.4977 197.489 59.693 197.577 59.9307C197.665 60.1683 197.709 60.4531 197.709 60.7852C197.709 61.0781 197.642 61.3434 197.509 61.5811C197.379 61.8154 197.196 62.0075 196.962 62.1572C196.728 62.307 196.457 62.403 196.151 62.4453L195.883 62.6748ZM195.849 66H194.066L194.589 65.2334H195.849C196.083 65.2334 196.282 65.1813 196.444 65.0771C196.607 64.973 196.731 64.8265 196.815 64.6377C196.903 64.4456 196.947 64.2194 196.947 63.959C196.947 63.6953 196.911 63.4674 196.84 63.2754C196.768 63.0833 196.654 62.9352 196.498 62.8311C196.342 62.7269 196.137 62.6748 195.883 62.6748H194.726L194.735 61.918H196.298L196.498 62.1914C196.791 62.2207 197.037 62.3184 197.235 62.4844C197.437 62.6471 197.589 62.8555 197.689 63.1094C197.794 63.3633 197.846 63.6432 197.846 63.9492C197.846 64.3919 197.763 64.7663 197.597 65.0723C197.434 65.375 197.203 65.6061 196.903 65.7656C196.604 65.9219 196.252 66 195.849 66ZM200.961 66.0977C200.645 66.0977 200.36 66.0505 200.106 65.9561C199.853 65.8617 199.636 65.7184 199.457 65.5264C199.278 65.3311 199.141 65.0853 199.047 64.7891C198.952 64.4928 198.905 64.1429 198.905 63.7393V63.1436C198.905 62.6781 198.959 62.2842 199.066 61.9619C199.177 61.6396 199.325 61.3809 199.511 61.1855C199.696 60.987 199.906 60.8438 200.141 60.7559C200.375 60.6647 200.616 60.6191 200.863 60.6191C201.195 60.6191 201.479 60.6729 201.713 60.7803C201.947 60.8877 202.138 61.0472 202.284 61.2588C202.431 61.4704 202.538 61.7308 202.606 62.04C202.678 62.3493 202.714 62.7057 202.714 63.1094V63.6123H199.413V62.875H201.85V62.7529C201.837 62.4795 201.799 62.2386 201.737 62.0303C201.679 61.8219 201.581 61.6592 201.444 61.542C201.308 61.4215 201.114 61.3613 200.863 61.3613C200.704 61.3613 200.556 61.389 200.419 61.4443C200.285 61.4964 200.17 61.5892 200.072 61.7227C199.978 61.8529 199.903 62.0335 199.848 62.2646C199.796 62.4958 199.77 62.7887 199.77 63.1436V63.7393C199.77 64.0225 199.796 64.2666 199.848 64.4717C199.903 64.6735 199.983 64.8411 200.087 64.9746C200.194 65.1048 200.325 65.2025 200.478 65.2676C200.634 65.3294 200.811 65.3604 201.01 65.3604C201.299 65.3604 201.539 65.305 201.728 65.1943C201.916 65.0804 202.081 64.9355 202.221 64.7598L202.675 65.3018C202.58 65.4352 202.457 65.5638 202.304 65.6875C202.154 65.8079 201.968 65.9072 201.747 65.9854C201.529 66.0602 201.267 66.0977 200.961 66.0977ZM207.104 65.2578V66H203.905V65.2578H207.104ZM207.006 61.3564L204.101 66H203.573V65.3359L206.459 60.7168H207.006V61.3564ZM206.63 60.7168V61.4639H203.588V60.7168H206.63ZM210.741 65.0967V62.2305C210.741 62.0221 210.709 61.8545 210.644 61.7275C210.582 61.6006 210.487 61.5078 210.36 61.4492C210.237 61.3906 210.08 61.3613 209.892 61.3613C209.709 61.3613 209.551 61.3988 209.418 61.4736C209.288 61.5485 209.187 61.6478 209.115 61.7715C209.047 61.8952 209.013 62.0319 209.013 62.1816H208.148C208.148 61.9928 208.189 61.8057 208.271 61.6201C208.355 61.4346 208.476 61.2669 208.632 61.1172C208.788 60.9642 208.975 60.8438 209.193 60.7559C209.415 60.6647 209.662 60.6191 209.936 60.6191C210.261 60.6191 210.549 60.6729 210.8 60.7803C211.05 60.8844 211.247 61.0553 211.391 61.293C211.534 61.5306 211.605 61.8464 211.605 62.2402V64.8477C211.605 65.0234 211.618 65.2106 211.645 65.4092C211.674 65.6077 211.715 65.7786 211.767 65.9219V66H210.873C210.831 65.8958 210.798 65.7575 210.775 65.585C210.753 65.4092 210.741 65.2464 210.741 65.0967ZM210.878 62.7969L210.888 63.4316H210.287C210.082 63.4316 209.895 63.4544 209.726 63.5C209.56 63.5456 209.416 63.6123 209.296 63.7002C209.175 63.7848 209.083 63.8906 209.018 64.0176C208.956 64.1445 208.925 64.2894 208.925 64.4521C208.925 64.6637 208.954 64.833 209.013 64.96C209.071 65.0837 209.159 65.1732 209.276 65.2285C209.394 65.2839 209.542 65.3115 209.721 65.3115C209.939 65.3115 210.131 65.2611 210.297 65.1602C210.463 65.0592 210.591 64.9372 210.683 64.7939C210.777 64.6507 210.821 64.5173 210.814 64.3936L211.005 64.7988C210.992 64.9258 210.95 65.0641 210.878 65.2139C210.81 65.3604 210.714 65.502 210.59 65.6387C210.466 65.7721 210.32 65.8828 210.15 65.9707C209.984 66.0553 209.797 66.0977 209.589 66.0977C209.283 66.0977 209.014 66.0391 208.783 65.9219C208.555 65.8047 208.378 65.6322 208.251 65.4043C208.124 65.1764 208.061 64.8949 208.061 64.5596C208.061 64.3057 208.104 64.0713 208.192 63.8564C208.28 63.6416 208.41 63.4561 208.583 63.2998C208.756 63.1403 208.972 63.0166 209.232 62.9287C209.496 62.8408 209.8 62.7969 210.146 62.7969H210.878ZM213.812 58.5V66H212.948V58.5H213.812ZM213.603 63.1582L213.251 63.1436C213.248 62.7822 213.288 62.4486 213.373 62.1426C213.461 61.8333 213.585 61.5648 213.744 61.3369C213.907 61.109 214.101 60.9333 214.325 60.8096C214.55 60.6826 214.799 60.6191 215.072 60.6191C215.287 60.6191 215.482 60.6549 215.658 60.7266C215.834 60.7949 215.984 60.9056 216.107 61.0586C216.231 61.2116 216.326 61.4102 216.391 61.6543C216.459 61.8952 216.493 62.1898 216.493 62.5381V66H215.629V62.5283C215.629 62.2516 215.598 62.0303 215.536 61.8643C215.478 61.695 215.386 61.5729 215.263 61.498C215.142 61.4199 214.989 61.3809 214.804 61.3809C214.634 61.3809 214.477 61.4281 214.33 61.5225C214.184 61.6169 214.055 61.7471 213.944 61.9131C213.837 62.0791 213.752 62.2695 213.69 62.4844C213.632 62.696 213.603 62.9206 213.603 63.1582ZM218.71 58.5V66H217.851V58.5H218.71ZM222.748 64.7793V60.7168H223.612V66H222.792L222.748 64.7793ZM222.909 63.666L223.251 63.6562C223.251 64.0078 223.22 64.3333 223.158 64.6328C223.1 64.929 223.002 65.1862 222.865 65.4043C222.732 65.6224 222.554 65.7933 222.333 65.917C222.112 66.0374 221.84 66.0977 221.518 66.0977C221.299 66.0977 221.101 66.0602 220.922 65.9854C220.746 65.9105 220.593 65.7949 220.463 65.6387C220.336 65.4824 220.237 65.279 220.165 65.0283C220.097 64.7777 220.062 64.4766 220.062 64.125V60.7168H220.922V64.1348C220.922 64.3724 220.943 64.5693 220.985 64.7256C221.028 64.8786 221.085 65.0007 221.156 65.0918C221.228 65.1797 221.308 65.2415 221.396 65.2773C221.483 65.3132 221.573 65.3311 221.664 65.3311C221.97 65.3311 222.214 65.2578 222.396 65.1113C222.579 64.9616 222.709 64.7614 222.787 64.5107C222.868 64.2568 222.909 63.9753 222.909 63.666ZM225.775 61.8447V66H224.911V60.7168H225.727L225.775 61.8447ZM225.565 63.1582L225.214 63.1436C225.211 62.7822 225.251 62.4486 225.336 62.1426C225.424 61.8333 225.548 61.5648 225.707 61.3369C225.87 61.109 226.063 60.9333 226.288 60.8096C226.513 60.6826 226.762 60.6191 227.035 60.6191C227.25 60.6191 227.445 60.6549 227.621 60.7266C227.797 60.7949 227.947 60.9056 228.07 61.0586C228.194 61.2116 228.288 61.4102 228.354 61.6543C228.422 61.8952 228.456 62.1898 228.456 62.5381V66H227.592V62.5283C227.592 62.2516 227.561 62.0303 227.499 61.8643C227.44 61.695 227.349 61.5729 227.226 61.498C227.105 61.4199 226.952 61.3809 226.767 61.3809C226.597 61.3809 226.439 61.4281 226.293 61.5225C226.146 61.6169 226.018 61.7471 225.907 61.9131C225.8 62.0791 225.715 62.2695 225.653 62.4844C225.595 62.696 225.565 62.9206 225.565 63.1582ZM232.616 60.7168H233.393V66.0439C233.393 66.5094 233.311 66.8936 233.148 67.1963C232.989 67.499 232.766 67.722 232.479 67.8652C232.193 68.0117 231.863 68.085 231.488 68.085C231.355 68.085 231.187 68.0605 230.985 68.0117C230.784 67.9629 230.582 67.888 230.38 67.7871C230.178 67.6895 230.012 67.5658 229.882 67.416L230.238 66.8154C230.424 67.0042 230.621 67.1393 230.829 67.2207C231.037 67.3021 231.236 67.3428 231.425 67.3428C231.649 67.3428 231.845 67.3021 232.011 67.2207C232.177 67.1393 232.305 67.0059 232.396 66.8203C232.488 66.638 232.533 66.3939 232.533 66.0879V61.8789L232.616 60.7168ZM229.579 63.6123V63.1191C229.579 62.6829 229.62 62.3086 229.701 61.9961C229.783 61.6803 229.9 61.4215 230.053 61.2197C230.209 61.0146 230.396 60.8633 230.614 60.7656C230.832 60.668 231.076 60.6191 231.347 60.6191C231.62 60.6191 231.856 60.6745 232.055 60.7852C232.253 60.8958 232.418 61.057 232.548 61.2686C232.681 61.4769 232.785 61.7308 232.86 62.0303C232.938 62.3265 232.992 62.6618 233.021 63.0361V63.6953C232.992 64.0664 232.938 64.4001 232.86 64.6963C232.785 64.9925 232.68 65.2448 232.543 65.4531C232.41 65.6615 232.243 65.821 232.045 65.9316C231.846 66.0423 231.61 66.0977 231.337 66.0977C231.07 66.0977 230.829 66.0472 230.614 65.9463C230.399 65.8421 230.214 65.6875 230.058 65.4824C229.905 65.2741 229.786 65.0153 229.701 64.7061C229.62 64.3936 229.579 64.029 229.579 63.6123ZM230.443 63.1191V63.6123C230.443 63.9053 230.465 64.1608 230.507 64.3789C230.549 64.5938 230.614 64.7728 230.702 64.916C230.793 65.056 230.909 65.1602 231.049 65.2285C231.192 65.2969 231.363 65.3311 231.562 65.3311C231.802 65.3311 231.999 65.2725 232.152 65.1553C232.305 65.0381 232.427 64.8835 232.519 64.6914C232.613 64.4961 232.688 64.2861 232.743 64.0615V62.6748C232.711 62.5088 232.663 62.3493 232.602 62.1963C232.543 62.04 232.466 61.9017 232.372 61.7812C232.278 61.6576 232.164 61.5599 232.03 61.4883C231.9 61.4167 231.747 61.3809 231.571 61.3809C231.373 61.3809 231.202 61.4167 231.059 61.4883C230.915 61.5599 230.798 61.6673 230.707 61.8105C230.616 61.9538 230.549 62.1344 230.507 62.3525C230.465 62.5706 230.443 62.8262 230.443 63.1191Z" fill="#E0E0E9"/>
<path fill-rule="evenodd" clip-rule="evenodd" d="M203 16L136 16V14L203 14V16Z" fill="#D0CFD7"/>
<path fill-rule="evenodd" clip-rule="evenodd" d="M110 16L43 16V14L110 14V16Z" fill="url(#paint2_linear_363_2802)"/>
<path fill-rule="evenodd" clip-rule="evenodd" d="M17.7612 6.17317C17 8.01088 17 10.3406 17 15C17 19.6594 17 21.9891 17.7612 23.8268C18.7761 26.2771 20.7229 28.2239 23.1732 29.2388C25.0109 30 27.3406 30 32 30C36.6594 30 38.9891 30 40.8268 29.2388C43.2771 28.2239 45.2239 26.2771 46.2388 23.8268C47 21.9891 47 19.6594 47 15C47 10.3406 47 8.01088 46.2388 6.17317C45.2239 3.72288 43.2771 1.77614 40.8268 0.761205C38.9891 0 36.6594 0 32 0C27.3406 0 25.0109 0 23.1732 0.761205C20.7229 1.77614 18.7761 3.72288 17.7612 6.17317ZM38.7071 11.7071C39.0976 11.3166 39.0976 10.6834 38.7071 10.2929C38.3166 9.90237 37.6834 9.90237 37.2929 10.2929L30 17.5858L26.7071 14.2929C26.3166 13.9024 25.6834 13.9024 25.2929 14.2929C24.9024 14.6834 24.9024 15.3166 25.2929 15.7071L29.2929 19.7071C29.4804 19.8946 29.7348 20 30 20C30.2652 20 30.5196 19.8946 30.7071 19.7071L38.7071 11.7071Z" fill="url(#paint3_linear_363_2802)"/>
<path fill-rule="evenodd" clip-rule="evenodd" d="M108.761 6.17317C108 8.01088 108 10.3406 108 15C108 19.6594 108 21.9891 108.761 23.8268C109.776 26.2771 111.723 28.2239 114.173 29.2388C116.011 30 118.341 30 123 30C127.659 30 129.989 30 131.827 29.2388C134.277 28.2239 136.224 26.2771 137.239 23.8268C138 21.9891 138 19.6594 138 15C138 10.3406 138 8.01088 137.239 6.17317C136.224 3.72288 134.277 1.77614 131.827 0.761205C129.989 0 127.659 0 123 0C118.341 0 116.011 0 114.173 0.761205C111.723 1.77614 109.776 3.72288 108.761 6.17317ZM129.707 11.7071C130.098 11.3166 130.098 10.6834 129.707 10.2929C129.317 9.90237 128.683 9.90237 128.293 10.2929L121 17.5858L117.707 14.2929C117.317 13.9024 116.683 13.9024 116.293 14.2929C115.902 14.6834 115.902 15.3166 116.293 15.7071L120.293 19.7071C120.48 19.8946 120.735 20 121 20C121.265 20 121.52 19.8946 121.707 19.7071L129.707 11.7071Z" fill="url(#paint4_linear_363_2802)"/>
<path fill-rule="evenodd" clip-rule="evenodd" d="M199.761 6.17317C199 8.01088 199 10.3406 199 15C199 19.6594 199 21.9891 199.761 23.8268C200.776 26.2771 202.723 28.2239 205.173 29.2388C207.011 30 209.341 30 214 30C218.659 30 220.989 30 222.827 29.2388C225.277 28.2239 227.224 26.2771 228.239 23.8268C229 21.9891 229 19.6594 229 15C229 10.3406 229 8.01088 228.239 6.17317C227.224 3.72288 225.277 1.77614 222.827 0.761205C220.989 0 218.659 0 214 0C209.341 0 207.011 0 205.173 0.761205C202.723 1.77614 200.776 3.72288 199.761 6.17317ZM220.707 11.7071C221.098 11.3166 221.098 10.6834 220.707 10.2929C220.317 9.90237 219.683 9.90237 219.293 10.2929L212 17.5858L208.707 14.2929C208.317 13.9024 207.683 13.9024 207.293 14.2929C206.902 14.6834 206.902 15.3166 207.293 15.7071L211.293 19.7071C211.48 19.8946 211.735 20 212 20C212.265 20 212.52 19.8946 212.707 19.7071L220.707 11.7071Z" fill="#D0CFD7"/>
<defs>
<linearGradient id="paint0_linear_363_2802" x1="32" y1="46" x2="32" y2="35" gradientUnits="userSpaceOnUse">
<stop stop-color="#5CCC94"/>
<stop offset="1" stop-color="#8CCAAE"/>
</linearGradient>
<linearGradient id="paint1_linear_363_2802" x1="123.5" y1="55" x2="123.5" y2="35" gradientUnits="userSpaceOnUse">
<stop stop-color="#5CCC94"/>
<stop offset="1" stop-color="#8CCAAE"/>
</linearGradient>
<linearGradient id="paint2_linear_363_2802" x1="76.5" y1="16" x2="76.5" y2="14" gradientUnits="userSpaceOnUse">
<stop stop-color="#5CCC94"/>
<stop offset="1" stop-color="#8CCAAE"/>
</linearGradient>
<linearGradient id="paint3_linear_363_2802" x1="32" y1="30" x2="32" y2="1.58545e-07" gradientUnits="userSpaceOnUse">
<stop stop-color="#5CCC94"/>
<stop offset="1" stop-color="#8CCAAE"/>
</linearGradient>
<linearGradient id="paint4_linear_363_2802" x1="123" y1="30" x2="123" y2="1.58545e-07" gradientUnits="userSpaceOnUse">
<stop stop-color="#5CCC94"/>
<stop offset="1" stop-color="#8CCAAE"/>
</linearGradient>
</defs>
</svg>
