<svg width="239" height="58" viewBox="0 0 239 58" fill="none" xmlns="http://www.w3.org/2000/svg">
<path d="M10.0859 36.8906L10.0859 44H9.18262L6.33594 38.5166L6.33594 44H5.4375L5.4375 36.8906H6.33594L9.19727 42.3887L9.19727 36.8906H10.0859ZM14.1924 42.7793L14.1924 38.7168H15.0566L15.0566 44H14.2363L14.1924 42.7793ZM14.3535 41.666L14.6953 41.6562C14.6953 42.0078 14.6644 42.3333 14.6025 42.6328C14.5439 42.929 14.4463 43.1862 14.3096 43.4043C14.1761 43.6224 13.9987 43.7933 13.7773 43.917C13.556 44.0374 13.2842 44.0977 12.9619 44.0977C12.7438 44.0977 12.5452 44.0602 12.3662 43.9854C12.1904 43.9105 12.0374 43.7949 11.9072 43.6387C11.7803 43.4824 11.681 43.279 11.6094 43.0283C11.541 42.7777 11.5068 42.4766 11.5068 42.125L11.5068 38.7168H12.3662L12.3662 42.1348C12.3662 42.3724 12.3874 42.5693 12.4297 42.7256C12.472 42.8786 12.529 43.0007 12.6006 43.0918C12.6722 43.1797 12.752 43.2415 12.8398 43.2773C12.9277 43.3132 13.0173 43.3311 13.1084 43.3311C13.4144 43.3311 13.6585 43.2578 13.8408 43.1113C14.0231 42.9616 14.1533 42.7614 14.2314 42.5107C14.3128 42.2568 14.3535 41.9753 14.3535 41.666ZM17.2197 39.7666V44H16.3604V38.7168H17.1709L17.2197 39.7666ZM17.0439 41.1582L16.6436 41.1436C16.6403 40.7822 16.6761 40.4486 16.751 40.1426C16.8258 39.8333 16.9382 39.5648 17.0879 39.3369C17.2409 39.109 17.4313 38.9333 17.6592 38.8096C17.8903 38.6826 18.1589 38.6191 18.4648 38.6191C18.6667 38.6191 18.8538 38.6549 19.0264 38.7266C19.2021 38.7949 19.3551 38.904 19.4854 39.0537C19.6156 39.2035 19.7165 39.3955 19.7881 39.6299C19.863 39.8643 19.9004 40.1475 19.9004 40.4795V44H19.0361V40.5234C19.0361 40.2467 18.9987 40.0254 18.9238 39.8594C18.8522 39.6934 18.7497 39.5729 18.6162 39.498C18.4827 39.4199 18.3232 39.3809 18.1377 39.3809C17.9261 39.3809 17.7487 39.4281 17.6055 39.5225C17.4655 39.6169 17.3532 39.7471 17.2686 39.9131C17.1872 40.0791 17.1286 40.2695 17.0928 40.4844C17.0602 40.696 17.0439 40.9206 17.0439 41.1582ZM19.8906 40.6602L19.3145 40.8457C19.3112 40.556 19.347 40.2777 19.4219 40.0107C19.4967 39.7438 19.6074 39.5062 19.7539 39.2979C19.9036 39.0895 20.0892 38.9251 20.3105 38.8047C20.5319 38.681 20.7891 38.6191 21.082 38.6191C21.3229 38.6191 21.5361 38.6566 21.7217 38.7314C21.9072 38.8063 22.0635 38.9219 22.1904 39.0781C22.3206 39.2311 22.4183 39.4281 22.4834 39.6689C22.5485 39.9098 22.5811 40.1963 22.5811 40.5283V44H21.7168V40.5186C21.7168 40.2223 21.6794 39.9928 21.6045 39.8301C21.5329 39.6641 21.4303 39.5485 21.2969 39.4834C21.1634 39.415 21.0039 39.3809 20.8184 39.3809C20.6686 39.3809 20.5352 39.415 20.418 39.4834C20.304 39.5518 20.208 39.6462 20.1299 39.7666C20.0518 39.8838 19.9915 40.0189 19.9492 40.1719C19.9102 40.3249 19.8906 40.4876 19.8906 40.6602ZM25.7744 44.0977C25.4587 44.0977 25.1738 44.0505 24.9199 43.9561C24.666 43.8617 24.4495 43.7184 24.2705 43.5264C24.0915 43.3311 23.9548 43.0853 23.8604 42.7891C23.766 42.4928 23.7188 42.1429 23.7188 41.7393V41.1436C23.7188 40.6781 23.7725 40.2842 23.8799 39.9619C23.9906 39.6396 24.1387 39.3809 24.3242 39.1855C24.5098 38.987 24.7197 38.8437 24.9541 38.7559C25.1885 38.6647 25.4294 38.6191 25.6768 38.6191C26.0088 38.6191 26.292 38.6729 26.5264 38.7803C26.7607 38.8877 26.9512 39.0472 27.0977 39.2588C27.2441 39.4704 27.3516 39.7308 27.4199 40.04C27.4915 40.3493 27.5273 40.7057 27.5273 41.1094V41.6123L24.2266 41.6123V40.875L26.6631 40.875V40.7529C26.6501 40.4795 26.6126 40.2386 26.5508 40.0303C26.4922 39.8219 26.3945 39.6592 26.2578 39.542C26.1211 39.4215 25.9274 39.3613 25.6768 39.3613C25.5173 39.3613 25.3691 39.389 25.2324 39.4443C25.099 39.4964 24.9834 39.5892 24.8857 39.7227C24.7913 39.8529 24.7165 40.0335 24.6611 40.2646C24.609 40.4958 24.583 40.7887 24.583 41.1436V41.7393C24.583 42.0225 24.609 42.2666 24.6611 42.4717C24.7165 42.6735 24.7962 42.8411 24.9004 42.9746C25.0078 43.1048 25.138 43.2025 25.291 43.2676C25.4473 43.3294 25.6247 43.3604 25.8232 43.3604C26.113 43.3604 26.3522 43.305 26.541 43.1943C26.7298 43.0804 26.8942 42.9355 27.0342 42.7598L27.4883 43.3018C27.3939 43.4352 27.2702 43.5638 27.1172 43.6875C26.9674 43.8079 26.7819 43.9072 26.5605 43.9854C26.3424 44.0602 26.0804 44.0977 25.7744 44.0977ZM29.4365 39.5469V44H28.5723V38.7168H29.4072L29.4365 39.5469ZM30.75 38.6875L30.7549 39.5273C30.6833 39.5111 30.6182 39.5013 30.5596 39.498C30.5042 39.4915 30.4391 39.4883 30.3643 39.4883C30.2015 39.4883 30.0583 39.5208 29.9346 39.5859C29.8141 39.651 29.71 39.7422 29.6221 39.8594C29.5342 39.9766 29.4642 40.1165 29.4121 40.2793C29.36 40.4388 29.3242 40.6146 29.3047 40.8066L29.0801 40.9531C29.0801 40.6341 29.1045 40.3346 29.1533 40.0547C29.2054 39.7747 29.2852 39.5273 29.3926 39.3125C29.5 39.0944 29.6367 38.9251 29.8027 38.8047C29.972 38.681 30.1738 38.6191 30.4082 38.6191C30.4603 38.6191 30.5238 38.6273 30.5986 38.6436C30.6768 38.6566 30.7272 38.6712 30.75 38.6875ZM35.8428 38.7168V39.4102H33.377V38.7168H35.8428ZM34.1826 37.4326H35.0469V42.6914C35.0469 42.8704 35.068 43.0055 35.1104 43.0967C35.1559 43.1878 35.2129 43.248 35.2812 43.2773C35.3496 43.3066 35.4229 43.3213 35.501 43.3213C35.5596 43.3213 35.6247 43.3148 35.6963 43.3018C35.7679 43.2855 35.8167 43.2725 35.8428 43.2627L35.8379 44C35.7793 44.0228 35.7012 44.0439 35.6035 44.0635C35.5059 44.0863 35.3822 44.0977 35.2324 44.0977C35.0469 44.0977 34.8743 44.0537 34.7148 43.9658C34.5553 43.8779 34.4268 43.7314 34.3291 43.5264C34.2314 43.318 34.1826 43.0381 34.1826 42.6865V37.4326ZM39.4609 43.0967V40.2305C39.4609 40.0221 39.4284 39.8545 39.3633 39.7275C39.3014 39.6006 39.207 39.5078 39.0801 39.4492C38.9564 39.3906 38.8001 39.3613 38.6113 39.3613C38.429 39.3613 38.2712 39.3988 38.1377 39.4736C38.0075 39.5485 37.9066 39.6478 37.835 39.7715C37.7666 39.8952 37.7324 40.0319 37.7324 40.1816H36.8682C36.8682 39.9928 36.9089 39.8057 36.9902 39.6201C37.0749 39.4346 37.1953 39.2669 37.3516 39.1172C37.5078 38.9642 37.695 38.8437 37.9131 38.7559C38.1344 38.6647 38.3818 38.6191 38.6553 38.6191C38.9808 38.6191 39.2689 38.6729 39.5195 38.7803C39.7702 38.8844 39.9671 39.0553 40.1104 39.293C40.2536 39.5306 40.3252 39.8464 40.3252 40.2402V42.8477C40.3252 43.0234 40.3382 43.2106 40.3643 43.4092C40.3936 43.6077 40.4342 43.7786 40.4863 43.9219V44H39.5928C39.5505 43.8958 39.5179 43.7575 39.4951 43.585C39.4723 43.4092 39.4609 43.2464 39.4609 43.0967ZM39.5977 40.7969L39.6074 41.4316H39.0068C38.8018 41.4316 38.6146 41.4544 38.4453 41.5C38.2793 41.5456 38.1361 41.6123 38.0156 41.7002C37.8952 41.7848 37.8024 41.8906 37.7373 42.0176C37.6755 42.1445 37.6445 42.2894 37.6445 42.4521C37.6445 42.6637 37.6738 42.833 37.7324 42.96C37.791 43.0837 37.8789 43.1732 37.9961 43.2285C38.1133 43.2839 38.2614 43.3115 38.4404 43.3115C38.6585 43.3115 38.8506 43.2611 39.0166 43.1602C39.1826 43.0592 39.3112 42.9372 39.4023 42.7939C39.4967 42.6507 39.5407 42.5173 39.5342 42.3936L39.7246 42.7988C39.7116 42.9258 39.6693 43.0641 39.5977 43.2139C39.5293 43.3604 39.4333 43.502 39.3096 43.6387C39.1859 43.7721 39.0394 43.8828 38.8701 43.9707C38.7041 44.0553 38.5169 44.0977 38.3086 44.0977C38.0026 44.0977 37.734 44.0391 37.5029 43.9219C37.2751 43.8047 37.0977 43.6322 36.9707 43.4043C36.8438 43.1764 36.7803 42.8949 36.7803 42.5596C36.7803 42.3057 36.8242 42.0713 36.9121 41.8564C37 41.6416 37.1302 41.4561 37.3027 41.2998C37.4753 41.1403 37.6917 41.0166 37.9521 40.9287C38.2158 40.8408 38.5202 40.7969 38.8652 40.7969H39.5977ZM41.668 36.5H42.5322V42.9746L42.459 44H41.668V36.5ZM45.4961 41.1191V41.6123C45.4961 42.029 45.457 42.3936 45.3789 42.7061C45.304 43.0153 45.1917 43.2741 45.042 43.4824C44.8923 43.6875 44.71 43.8421 44.4951 43.9463C44.2803 44.0472 44.0345 44.0977 43.7578 44.0977C43.4844 44.0977 43.2484 44.0423 43.0498 43.9316C42.8512 43.821 42.6852 43.6615 42.5518 43.4531C42.4183 43.2448 42.3125 42.9925 42.2344 42.6963C42.1595 42.4001 42.1074 42.0664 42.0781 41.6953V41.0361C42.1074 40.6618 42.1595 40.3265 42.2344 40.0303C42.3092 39.7308 42.4134 39.4769 42.5469 39.2686C42.6803 39.057 42.8464 38.8958 43.0449 38.7852C43.2435 38.6745 43.4795 38.6191 43.7529 38.6191C44.0329 38.6191 44.2803 38.668 44.4951 38.7656C44.7132 38.8633 44.8955 39.0146 45.042 39.2197C45.1917 39.4215 45.304 39.6803 45.3789 39.9961C45.457 40.3086 45.4961 40.6829 45.4961 41.1191ZM44.6318 41.6123V41.1191C44.6318 40.8262 44.6123 40.5706 44.5732 40.3525C44.5374 40.1344 44.4772 39.9538 44.3926 39.8105C44.3079 39.6673 44.194 39.5599 44.0508 39.4883C43.9108 39.4167 43.7367 39.3809 43.5283 39.3809C43.3525 39.3809 43.1979 39.4167 43.0645 39.4883C42.9342 39.5599 42.8219 39.6576 42.7275 39.7812C42.6331 39.9017 42.555 40.04 42.4932 40.1963C42.4313 40.3493 42.3857 40.5088 42.3564 40.6748V42.0615C42.3988 42.2731 42.4655 42.4766 42.5566 42.6719C42.651 42.8639 42.778 43.0218 42.9375 43.1455C43.097 43.2692 43.2956 43.3311 43.5332 43.3311C43.7318 43.3311 43.8994 43.2969 44.0361 43.2285C44.1761 43.1602 44.29 43.056 44.3779 42.916C44.4658 42.7728 44.5293 42.5937 44.5684 42.3789C44.6107 42.1608 44.6318 41.9053 44.6318 41.6123ZM47.5273 36.5V44H46.668V36.5H47.5273ZM49.8223 38.7168V44H48.9629V38.7168H49.8223ZM48.9141 37.3154C48.9141 37.1689 48.9548 37.0452 49.0361 36.9443C49.1175 36.8434 49.2396 36.793 49.4023 36.793C49.5651 36.793 49.6872 36.8434 49.7686 36.9443C49.8532 37.0452 49.8955 37.1689 49.8955 37.3154C49.8955 37.4554 49.8532 37.5758 49.7686 37.6768C49.6872 37.7744 49.5651 37.8232 49.4023 37.8232C49.2396 37.8232 49.1175 37.7744 49.0361 37.6768C48.9548 37.5758 48.9141 37.4554 48.9141 37.3154ZM53.0205 43.3604C53.193 43.3604 53.3493 43.3262 53.4893 43.2578C53.6325 43.1862 53.7497 43.0755 53.8408 42.9258C53.932 42.7728 53.984 42.5742 53.9971 42.3301H54.8076C54.7946 42.6816 54.7051 42.9909 54.5391 43.2578C54.3763 43.5215 54.1615 43.7282 53.8945 43.8779C53.6309 44.0244 53.3395 44.0977 53.0205 44.0977C52.6787 44.0977 52.3809 44.0423 52.127 43.9316C51.8763 43.821 51.668 43.6615 51.502 43.4531C51.3392 43.2415 51.2171 42.986 51.1357 42.6865C51.0544 42.3838 51.0137 42.0404 51.0137 41.6562V41.0605C51.0137 40.6764 51.0544 40.3346 51.1357 40.0352C51.2171 39.7324 51.3392 39.4769 51.502 39.2686C51.668 39.057 51.8763 38.8958 52.127 38.7852C52.3809 38.6745 52.6787 38.6191 53.0205 38.6191C53.3786 38.6191 53.6878 38.6956 53.9482 38.8486C54.2119 38.9984 54.417 39.2165 54.5635 39.5029C54.7132 39.7861 54.7946 40.1296 54.8076 40.5332H53.9971C53.984 40.2728 53.9368 40.0563 53.8555 39.8838C53.7741 39.708 53.6634 39.5778 53.5234 39.4932C53.3835 39.4053 53.2158 39.3613 53.0205 39.3613C52.7926 39.3613 52.6038 39.402 52.4541 39.4834C52.3076 39.5615 52.1921 39.6755 52.1074 39.8252C52.0228 39.9749 51.9626 40.154 51.9268 40.3623C51.8942 40.5706 51.8779 40.8034 51.8779 41.0605V41.6562C51.8779 41.9134 51.8942 42.1478 51.9268 42.3594C51.9626 42.5677 52.0212 42.7467 52.1025 42.8965C52.1872 43.0462 52.3044 43.1618 52.4541 43.2432C52.6038 43.3213 52.7926 43.3604 53.0205 43.3604ZM57.0342 43.4531L58.2109 38.7168H59.1289L57.3857 44.8154C57.3434 44.9456 57.2865 45.0856 57.2148 45.2354C57.1465 45.3883 57.0586 45.5332 56.9512 45.6699C56.8438 45.8066 56.7152 45.9173 56.5654 46.002C56.4157 46.0898 56.2399 46.1338 56.0381 46.1338C55.9762 46.1338 55.8965 46.124 55.7988 46.1045C55.7044 46.085 55.6361 46.0687 55.5938 46.0557V45.3232C55.6133 45.3265 55.6442 45.3298 55.6865 45.333C55.7288 45.3395 55.7598 45.3428 55.7793 45.3428C55.9486 45.3428 56.0918 45.3151 56.209 45.2598C56.3294 45.2077 56.432 45.1182 56.5166 44.9912C56.6012 44.8675 56.6729 44.6966 56.7314 44.4785L57.0342 43.4531ZM56.2725 38.7168L57.3223 42.8184L57.5469 43.7705L56.9316 44.1025L55.3301 38.7168H56.2725ZM7.23926 50.5469L7.23926 55H6.375L6.375 49.7168H7.20996L7.23926 50.5469ZM8.55273 49.6875L8.55762 50.5273C8.486 50.5111 8.4209 50.5013 8.3623 50.498C8.30697 50.4915 8.24186 50.4883 8.16699 50.4883C8.00423 50.4883 7.861 50.5208 7.7373 50.5859C7.61686 50.651 7.5127 50.7422 7.4248 50.8594C7.33691 50.9766 7.26693 51.1165 7.21484 51.2793C7.16276 51.4388 7.12695 51.6146 7.10742 51.8066L6.88281 51.9531C6.88281 51.6341 6.90723 51.3346 6.95605 51.0547C7.00814 50.7747 7.08789 50.5273 7.19531 50.3125C7.30273 50.0944 7.43945 49.9251 7.60547 49.8047C7.77474 49.681 7.97656 49.6191 8.21094 49.6191C8.26302 49.6191 8.3265 49.6273 8.40137 49.6436C8.47949 49.6566 8.52995 49.6712 8.55273 49.6875ZM11.2139 55.0977C10.8981 55.0977 10.6133 55.0505 10.3594 54.9561C10.1055 54.8617 9.889 54.7184 9.70996 54.5264C9.53092 54.3311 9.39421 54.0853 9.2998 53.7891C9.2054 53.4928 9.1582 53.1429 9.1582 52.7393V52.1436C9.1582 51.6781 9.21191 51.2842 9.31934 50.9619C9.43001 50.6396 9.57813 50.3809 9.76367 50.1855C9.94922 49.987 10.1592 49.8438 10.3936 49.7559C10.6279 49.6647 10.8688 49.6191 11.1162 49.6191C11.4482 49.6191 11.7314 49.6729 11.9658 49.7803C12.2002 49.8877 12.3906 50.0472 12.5371 50.2588C12.6836 50.4704 12.791 50.7308 12.8594 51.04C12.931 51.3493 12.9668 51.7057 12.9668 52.1094V52.6123H9.66602V51.875H12.1025V51.7529C12.0895 51.4795 12.0521 51.2386 11.9902 51.0303C11.9316 50.8219 11.834 50.6592 11.6973 50.542C11.5605 50.4215 11.3669 50.3613 11.1162 50.3613C10.9567 50.3613 10.8086 50.389 10.6719 50.4443C10.5384 50.4964 10.4229 50.5892 10.3252 50.7227C10.2308 50.8529 10.1559 51.0335 10.1006 51.2646C10.0485 51.4958 10.0225 51.7887 10.0225 52.1436V52.7393C10.0225 53.0225 10.0485 53.2666 10.1006 53.4717C10.1559 53.6735 10.2357 53.8411 10.3398 53.9746C10.4473 54.1048 10.5775 54.2025 10.7305 54.2676C10.8867 54.3294 11.0641 54.3604 11.2627 54.3604C11.5524 54.3604 11.7917 54.305 11.9805 54.1943C12.1693 54.0804 12.3337 53.9355 12.4736 53.7598L12.9277 54.3018C12.8333 54.4352 12.7096 54.5638 12.5566 54.6875C12.4069 54.8079 12.2214 54.9072 12 54.9854C11.7819 55.0602 11.5199 55.0977 11.2139 55.0977ZM14.0313 49.7168H14.8906L14.8906 55.6299C14.8906 55.9521 14.8483 56.2256 14.7637 56.4502C14.6823 56.6748 14.5553 56.8441 14.3828 56.958C14.2135 57.0752 13.9971 57.1338 13.7334 57.1338C13.6618 57.1338 13.5788 57.1257 13.4844 57.1094C13.3932 57.0931 13.3151 57.0736 13.25 57.0508V56.3232C13.3053 56.3363 13.3656 56.346 13.4307 56.3525C13.4958 56.3623 13.5495 56.3672 13.5918 56.3672C13.6862 56.3672 13.766 56.3428 13.8311 56.2939C13.8962 56.2451 13.945 56.167 13.9775 56.0596C14.0133 55.9521 14.0313 55.8089 14.0313 55.6299L14.0313 49.7168ZM13.9531 48.3154C13.9531 48.1689 13.9938 48.0452 14.0752 47.9443C14.1598 47.8434 14.2819 47.793 14.4414 47.793C14.6042 47.793 14.7262 47.8434 14.8076 47.9443C14.8923 48.0452 14.9346 48.1689 14.9346 48.3154C14.9346 48.4554 14.8923 48.5758 14.8076 48.6768C14.7262 48.7744 14.6042 48.8232 14.4414 48.8232C14.2819 48.8232 14.1598 48.7744 14.0752 48.6768C13.9938 48.5758 13.9531 48.4554 13.9531 48.3154ZM18.1475 55.0977C17.8317 55.0977 17.5469 55.0505 17.293 54.9561C17.0391 54.8617 16.8226 54.7184 16.6436 54.5264C16.4645 54.3311 16.3278 54.0853 16.2334 53.7891C16.139 53.4928 16.0918 53.1429 16.0918 52.7393V52.1436C16.0918 51.6781 16.1455 51.2842 16.2529 50.9619C16.3636 50.6396 16.5117 50.3809 16.6973 50.1855C16.8828 49.987 17.0928 49.8438 17.3271 49.7559C17.5615 49.6647 17.8024 49.6191 18.0498 49.6191C18.3818 49.6191 18.665 49.6729 18.8994 49.7803C19.1338 49.8877 19.3242 50.0472 19.4707 50.2588C19.6172 50.4704 19.7246 50.7308 19.793 51.04C19.8646 51.3493 19.9004 51.7057 19.9004 52.1094V52.6123H16.5996V51.875H19.0361V51.7529C19.0231 51.4795 18.9857 51.2386 18.9238 51.0303C18.8652 50.8219 18.7676 50.6592 18.6309 50.542C18.4941 50.4215 18.3005 50.3613 18.0498 50.3613C17.8903 50.3613 17.7422 50.389 17.6055 50.4443C17.472 50.4964 17.3564 50.5892 17.2588 50.7227C17.1644 50.8529 17.0895 51.0335 17.0342 51.2646C16.9821 51.4958 16.9561 51.7887 16.9561 52.1436V52.7393C16.9561 53.0225 16.9821 53.2666 17.0342 53.4717C17.0895 53.6735 17.1693 53.8411 17.2734 53.9746C17.3809 54.1048 17.5111 54.2025 17.6641 54.2676C17.8203 54.3294 17.9977 54.3604 18.1963 54.3604C18.486 54.3604 18.7253 54.305 18.9141 54.1943C19.1029 54.0804 19.2673 53.9355 19.4072 53.7598L19.8613 54.3018C19.7669 54.4352 19.6432 54.5638 19.4902 54.6875C19.3405 54.8079 19.1549 54.9072 18.9336 54.9854C18.7155 55.0602 18.4535 55.0977 18.1475 55.0977ZM23.5088 53.6475C23.5088 53.514 23.4762 53.3968 23.4111 53.2959C23.346 53.195 23.2386 53.0973 23.0889 53.0029C22.9424 52.9085 22.7438 52.8076 22.4932 52.7002C22.249 52.5993 22.0293 52.5 21.834 52.4023C21.6419 52.3014 21.4792 52.1924 21.3457 52.0752C21.2122 51.958 21.1097 51.8229 21.0381 51.6699C20.9697 51.5137 20.9355 51.3298 20.9355 51.1182C20.9355 50.9066 20.9746 50.7113 21.0527 50.5322C21.1341 50.3499 21.248 50.1904 21.3945 50.0537C21.541 49.917 21.7168 49.8112 21.9219 49.7363C22.127 49.6582 22.3564 49.6191 22.6104 49.6191C22.9717 49.6191 23.2793 49.6891 23.5332 49.8291C23.7871 49.9691 23.9808 50.1611 24.1143 50.4053C24.251 50.6462 24.3193 50.918 24.3193 51.2207H23.46C23.46 51.0742 23.4274 50.9359 23.3623 50.8057C23.2972 50.6755 23.2012 50.5697 23.0742 50.4883C22.9473 50.4036 22.7926 50.3613 22.6104 50.3613C22.4183 50.3613 22.262 50.3955 22.1416 50.4639C22.0212 50.5322 21.9333 50.6217 21.8779 50.7324C21.8258 50.8398 21.7998 50.9587 21.7998 51.0889C21.7998 51.1865 21.8128 51.2712 21.8389 51.3428C21.8682 51.4111 21.917 51.4762 21.9854 51.5381C22.0537 51.5967 22.1465 51.6585 22.2637 51.7236C22.3841 51.7855 22.5371 51.8571 22.7227 51.9385C23.0807 52.0785 23.3818 52.2201 23.626 52.3633C23.8701 52.5065 24.0557 52.6742 24.1826 52.8662C24.3096 53.0583 24.373 53.2959 24.373 53.5791C24.373 53.8102 24.3307 54.0202 24.2461 54.209C24.1647 54.3945 24.0475 54.554 23.8945 54.6875C23.7415 54.821 23.5576 54.9235 23.3428 54.9951C23.1312 55.0635 22.8936 55.0977 22.6299 55.0977C22.2327 55.0977 21.8958 55.0195 21.6191 54.8633C21.3457 54.7038 21.1374 54.4971 20.9941 54.2432C20.8542 53.986 20.7842 53.7109 20.7842 53.418H21.6484C21.6582 53.6654 21.7135 53.8574 21.8145 53.9941C21.9186 54.1309 22.0439 54.2253 22.1904 54.2773C22.3369 54.3294 22.4834 54.3555 22.6299 54.3555C22.8219 54.3555 22.9831 54.3278 23.1133 54.2725C23.2435 54.2139 23.3411 54.1309 23.4063 54.0234C23.4746 53.916 23.5088 53.7907 23.5088 53.6475ZM27.4346 49.7168V50.4102H24.9688V49.7168H27.4346ZM25.7744 48.4326H26.6387V53.6914C26.6387 53.8704 26.6598 54.0055 26.7021 54.0967C26.7477 54.1878 26.8047 54.248 26.873 54.2773C26.9414 54.3066 27.0146 54.3213 27.0928 54.3213C27.1514 54.3213 27.2165 54.3148 27.2881 54.3018C27.3597 54.2855 27.4085 54.2725 27.4346 54.2627L27.4297 55C27.3711 55.0228 27.293 55.0439 27.1953 55.0635C27.0977 55.0863 26.974 55.0977 26.8242 55.0977C26.6387 55.0977 26.4661 55.0537 26.3066 54.9658C26.1471 54.8779 26.0186 54.7314 25.9209 54.5264C25.8232 54.318 25.7744 54.0381 25.7744 53.6865V48.4326ZM29.3291 50.5469V55H28.4648V49.7168H29.2998L29.3291 50.5469ZM30.6426 49.6875L30.6475 50.5273C30.5758 50.5111 30.5107 50.5013 30.4521 50.498C30.3968 50.4915 30.3317 50.4883 30.2568 50.4883C30.0941 50.4883 29.9508 50.5208 29.8271 50.5859C29.7067 50.651 29.6025 50.7422 29.5146 50.8594C29.4268 50.9766 29.3568 51.1165 29.3047 51.2793C29.2526 51.4388 29.2168 51.6146 29.1973 51.8066L28.9727 51.9531C28.9727 51.6341 28.9971 51.3346 29.0459 51.0547C29.098 50.7747 29.1777 50.5273 29.2852 50.3125C29.3926 50.0944 29.5293 49.9251 29.6953 49.8047C29.8646 49.681 30.0664 49.6191 30.3008 49.6191C30.3529 49.6191 30.4163 49.6273 30.4912 49.6436C30.5693 49.6566 30.6198 49.6712 30.6426 49.6875ZM33.9043 54.0967V51.2305C33.9043 51.0221 33.8717 50.8545 33.8066 50.7275C33.7448 50.6006 33.6504 50.5078 33.5234 50.4492C33.3997 50.3906 33.2435 50.3613 33.0547 50.3613C32.8724 50.3613 32.7145 50.3988 32.5811 50.4736C32.4508 50.5485 32.3499 50.6478 32.2783 50.7715C32.21 50.8952 32.1758 51.0319 32.1758 51.1816H31.3115C31.3115 50.9928 31.3522 50.8057 31.4336 50.6201C31.5182 50.4346 31.6387 50.2669 31.7949 50.1172C31.9512 49.9642 32.1383 49.8437 32.3564 49.7559C32.5778 49.6647 32.8252 49.6191 33.0986 49.6191C33.4242 49.6191 33.7122 49.6729 33.9629 49.7803C34.2135 49.8844 34.4105 50.0553 34.5537 50.293C34.6969 50.5306 34.7686 50.8464 34.7686 51.2402V53.8477C34.7686 54.0234 34.7816 54.2106 34.8076 54.4092C34.8369 54.6077 34.8776 54.7786 34.9297 54.9219V55H34.0361C33.9938 54.8958 33.9613 54.7575 33.9385 54.585C33.9157 54.4092 33.9043 54.2464 33.9043 54.0967ZM34.041 51.7969L34.0508 52.4316H33.4502C33.2451 52.4316 33.0579 52.4544 32.8887 52.5C32.7227 52.5456 32.5794 52.6123 32.459 52.7002C32.3385 52.7848 32.2458 52.8906 32.1807 53.0176C32.1188 53.1445 32.0879 53.2894 32.0879 53.4521C32.0879 53.6637 32.1172 53.833 32.1758 53.96C32.2344 54.0837 32.3223 54.1732 32.4395 54.2285C32.5566 54.2839 32.7048 54.3115 32.8838 54.3115C33.1019 54.3115 33.2939 54.2611 33.46 54.1602C33.626 54.0592 33.7546 53.9372 33.8457 53.7939C33.9401 53.6507 33.984 53.5173 33.9775 53.3936L34.168 53.7988C34.1549 53.9258 34.1126 54.0641 34.041 54.2139C33.9727 54.3604 33.8766 54.502 33.7529 54.6387C33.6292 54.7721 33.4827 54.8828 33.3135 54.9707C33.1475 55.0553 32.9603 55.0977 32.752 55.0977C32.446 55.0977 32.1774 55.0391 31.9463 54.9219C31.7184 54.8047 31.541 54.6322 31.4141 54.4043C31.2871 54.1764 31.2236 53.8949 31.2236 53.5596C31.2236 53.3057 31.2676 53.0713 31.3555 52.8564C31.4434 52.6416 31.5736 52.4561 31.7461 52.2998C31.9186 52.1403 32.1351 52.0166 32.3955 51.9287C32.6592 51.8408 32.9635 51.7969 33.3086 51.7969H34.041ZM37.9424 54.3604C38.1149 54.3604 38.2712 54.3262 38.4111 54.2578C38.5544 54.1862 38.6715 54.0755 38.7627 53.9258C38.8538 53.7728 38.9059 53.5742 38.9189 53.3301H39.7295C39.7165 53.6816 39.627 53.9909 39.4609 54.2578C39.2982 54.5215 39.0833 54.7282 38.8164 54.8779C38.5527 55.0244 38.2614 55.0977 37.9424 55.0977C37.6006 55.0977 37.3027 55.0423 37.0488 54.9316C36.7982 54.821 36.5898 54.6615 36.4238 54.4531C36.2611 54.2415 36.139 53.986 36.0576 53.6865C35.9762 53.3838 35.9355 53.0404 35.9355 52.6562V52.0605C35.9355 51.6764 35.9762 51.3346 36.0576 51.0352C36.139 50.7324 36.2611 50.4769 36.4238 50.2686C36.5898 50.057 36.7982 49.8958 37.0488 49.7852C37.3027 49.6745 37.6006 49.6191 37.9424 49.6191C38.3005 49.6191 38.6097 49.6956 38.8701 49.8486C39.1338 49.9984 39.3389 50.2165 39.4854 50.5029C39.6351 50.7861 39.7165 51.1296 39.7295 51.5332H38.9189C38.9059 51.2728 38.8587 51.0563 38.7773 50.8838C38.696 50.708 38.5853 50.5778 38.4453 50.4932C38.3053 50.4053 38.1377 50.3613 37.9424 50.3613C37.7145 50.3613 37.5257 50.402 37.376 50.4834C37.2295 50.5615 37.1139 50.6755 37.0293 50.8252C36.9447 50.9749 36.8844 51.154 36.8486 51.3623C36.8161 51.5706 36.7998 51.8034 36.7998 52.0605V52.6562C36.7998 52.9134 36.8161 53.1478 36.8486 53.3594C36.8844 53.5677 36.943 53.7467 37.0244 53.8965C37.109 54.0462 37.2262 54.1618 37.376 54.2432C37.5257 54.3213 37.7145 54.3604 37.9424 54.3604ZM41.9561 54.4531L43.1328 49.7168H44.0508L42.3076 55.8154C42.2653 55.9456 42.2083 56.0856 42.1367 56.2354C42.0684 56.3883 41.9805 56.5332 41.873 56.6699C41.7656 56.8066 41.637 56.9173 41.4873 57.002C41.3376 57.0898 41.1618 57.1338 40.96 57.1338C40.8981 57.1338 40.8184 57.124 40.7207 57.1045C40.6263 57.085 40.5579 57.0687 40.5156 57.0557V56.3232C40.5352 56.3265 40.5661 56.3298 40.6084 56.333C40.6507 56.3395 40.6816 56.3428 40.7012 56.3428C40.8704 56.3428 41.0137 56.3151 41.1309 56.2598C41.2513 56.2077 41.3538 56.1182 41.4385 55.9912C41.5231 55.8675 41.5947 55.6966 41.6533 55.4785L41.9561 54.4531ZM41.1943 49.7168L42.2441 53.8184L42.4688 54.7705L41.8535 55.1025L40.252 49.7168H41.1943ZM44.9199 49.7168H45.7793V55.6299C45.7793 55.9521 45.737 56.2256 45.6523 56.4502C45.571 56.6748 45.444 56.8441 45.2715 56.958C45.1022 57.0752 44.8857 57.1338 44.6221 57.1338C44.5505 57.1338 44.4674 57.1257 44.373 57.1094C44.2819 57.0931 44.2038 57.0736 44.1387 57.0508V56.3232C44.194 56.3363 44.2542 56.346 44.3193 56.3525C44.3844 56.3623 44.4382 56.3672 44.4805 56.3672C44.5749 56.3672 44.6546 56.3428 44.7197 56.2939C44.7848 56.2451 44.8337 56.167 44.8662 56.0596C44.902 55.9521 44.9199 55.8089 44.9199 55.6299V49.7168ZM44.8418 48.3154C44.8418 48.1689 44.8825 48.0452 44.9639 47.9443C45.0485 47.8434 45.1706 47.793 45.3301 47.793C45.4928 47.793 45.6149 47.8434 45.6963 47.9443C45.7809 48.0452 45.8232 48.1689 45.8232 48.3154C45.8232 48.4554 45.7809 48.5758 45.6963 48.6768C45.6149 48.7744 45.4928 48.8232 45.3301 48.8232C45.1706 48.8232 45.0485 48.7744 44.9639 48.6768C44.8825 48.5758 44.8418 48.4554 44.8418 48.3154ZM48.0107 50.8447V55H47.1465V49.7168H47.9619L48.0107 50.8447ZM47.8008 52.1582L47.4492 52.1436C47.446 51.7822 47.4867 51.4486 47.5713 51.1426C47.6592 50.8333 47.7829 50.5648 47.9424 50.3369C48.1051 50.109 48.2988 49.9333 48.5234 49.8096C48.748 49.6826 48.9971 49.6191 49.2705 49.6191C49.4854 49.6191 49.6807 49.6549 49.8564 49.7266C50.0322 49.7949 50.182 49.9056 50.3057 50.0586C50.4294 50.2116 50.5238 50.4102 50.5889 50.6543C50.6572 50.8952 50.6914 51.1898 50.6914 51.5381V55H49.8271V51.5283C49.8271 51.2516 49.7962 51.0303 49.7344 50.8643C49.6758 50.695 49.5846 50.5729 49.4609 50.498C49.3405 50.4199 49.1875 50.3809 49.002 50.3809C48.8327 50.3809 48.6748 50.4281 48.5283 50.5225C48.3818 50.6169 48.2533 50.7471 48.1426 50.9131C48.0352 51.0791 47.9505 51.2695 47.8887 51.4844C47.8301 51.696 47.8008 51.9206 47.8008 52.1582ZM53.8799 55.0977C53.5641 55.0977 53.2793 55.0505 53.0254 54.9561C52.7715 54.8617 52.555 54.7184 52.376 54.5264C52.1969 54.3311 52.0602 54.0853 51.9658 53.7891C51.8714 53.4928 51.8242 53.1429 51.8242 52.7393V52.1436C51.8242 51.6781 51.8779 51.2842 51.9854 50.9619C52.096 50.6396 52.2441 50.3809 52.4297 50.1855C52.6152 49.987 52.8252 49.8437 53.0596 49.7559C53.2939 49.6647 53.5348 49.6191 53.7822 49.6191C54.1143 49.6191 54.3975 49.6729 54.6318 49.7803C54.8662 49.8877 55.0566 50.0472 55.2031 50.2588C55.3496 50.4704 55.457 50.7308 55.5254 51.04C55.597 51.3493 55.6328 51.7057 55.6328 52.1094V52.6123L52.332 52.6123V51.875H54.7686V51.7529C54.7555 51.4795 54.7181 51.2386 54.6562 51.0303C54.5977 50.8219 54.5 50.6592 54.3633 50.542C54.2266 50.4215 54.0329 50.3613 53.7822 50.3613C53.6227 50.3613 53.4746 50.389 53.3379 50.4443C53.2044 50.4964 53.0889 50.5892 52.9912 50.7227C52.8968 50.8529 52.8219 51.0335 52.7666 51.2646C52.7145 51.4958 52.6885 51.7887 52.6885 52.1436V52.7393C52.6885 53.0225 52.7145 53.2666 52.7666 53.4717C52.8219 53.6735 52.9017 53.8411 53.0059 53.9746C53.1133 54.1048 53.2435 54.2025 53.3965 54.2676C53.5527 54.3294 53.7301 54.3604 53.9287 54.3604C54.2184 54.3604 54.4577 54.305 54.6465 54.1943C54.8353 54.0804 54.9997 53.9355 55.1396 53.7598L55.5938 54.3018C55.4993 54.4352 55.3757 54.5638 55.2227 54.6875C55.0729 54.8079 54.8874 54.9072 54.666 54.9854C54.4479 55.0602 54.1859 55.0977 53.8799 55.0977ZM56.6973 49.7168H57.5566V55.6299C57.5566 55.9521 57.5143 56.2256 57.4297 56.4502C57.3483 56.6748 57.2214 56.8441 57.0488 56.958C56.8796 57.0752 56.6631 57.1338 56.3994 57.1338C56.3278 57.1338 56.2448 57.1257 56.1504 57.1094C56.0592 57.0931 55.9811 57.0736 55.916 57.0508V56.3232C55.9714 56.3363 56.0316 56.346 56.0967 56.3525C56.1618 56.3623 56.2155 56.3672 56.2578 56.3672C56.3522 56.3672 56.432 56.3428 56.4971 56.2939C56.5622 56.2451 56.611 56.167 56.6436 56.0596C56.6794 55.9521 56.6973 55.8089 56.6973 55.6299V49.7168ZM56.6191 48.3154C56.6191 48.1689 56.6598 48.0452 56.7412 47.9443C56.8258 47.8434 56.9479 47.793 57.1074 47.793C57.2702 47.793 57.3923 47.8434 57.4736 47.9443C57.5583 48.0452 57.6006 48.1689 57.6006 48.3154C57.6006 48.4554 57.5583 48.5758 57.4736 48.6768C57.3923 48.7744 57.2702 48.8232 57.1074 48.8232C56.9479 48.8232 56.8258 48.7744 56.7412 48.6768C56.6598 48.5758 56.6191 48.4554 56.6191 48.3154Z" fill="url(#paint0_linear_363_3095)"/>
<path d="M101.928 40.8906H103.915C104.377 40.8906 104.765 40.972 105.077 41.1348C105.393 41.2975 105.631 41.5384 105.79 41.8574C105.953 42.1732 106.034 42.5622 106.034 43.0244C106.034 43.3499 105.98 43.6478 105.873 43.918C105.766 44.1849 105.609 44.4128 105.404 44.6016C105.199 44.7871 104.95 44.9255 104.657 45.0166L104.413 45.1191H102.641L102.631 44.3525H103.905C104.179 44.3525 104.407 44.2939 104.589 44.1768C104.771 44.0563 104.908 43.8952 104.999 43.6934C105.09 43.4915 105.136 43.2686 105.136 43.0244C105.136 42.751 105.095 42.5117 105.014 42.3066C104.932 42.1016 104.802 41.9437 104.623 41.833C104.447 41.7191 104.211 41.6621 103.915 41.6621H102.826V48H101.928V40.8906ZM105.341 48L103.925 44.7773L104.857 44.7725L106.303 47.9414V48H105.341ZM106.938 45.6123V45.1094C106.938 44.6992 106.99 44.3395 107.094 44.0303C107.198 43.7178 107.343 43.4574 107.528 43.249C107.714 43.0407 107.93 42.8844 108.178 42.7803C108.425 42.6729 108.69 42.6191 108.974 42.6191C109.263 42.6191 109.532 42.6729 109.779 42.7803C110.027 42.8844 110.243 43.0407 110.429 43.249C110.618 43.4574 110.764 43.7178 110.868 44.0303C110.972 44.3395 111.024 44.6992 111.024 45.1094V45.6123C111.024 46.0225 110.972 46.3838 110.868 46.6963C110.764 47.0055 110.619 47.2643 110.434 47.4727C110.248 47.681 110.032 47.8372 109.784 47.9414C109.537 48.0456 109.27 48.0977 108.983 48.0977C108.697 48.0977 108.43 48.0456 108.183 47.9414C107.935 47.8372 107.717 47.681 107.528 47.4727C107.343 47.2643 107.198 47.0055 107.094 46.6963C106.99 46.3838 106.938 46.0225 106.938 45.6123ZM107.802 45.1094V45.6123C107.802 45.902 107.831 46.1559 107.89 46.374C107.948 46.5921 108.031 46.7744 108.139 46.9209C108.246 47.0674 108.371 47.1781 108.515 47.2529C108.658 47.3245 108.814 47.3604 108.983 47.3604C109.179 47.3604 109.35 47.3245 109.496 47.2529C109.646 47.1781 109.77 47.0674 109.867 46.9209C109.965 46.7744 110.038 46.5921 110.087 46.374C110.136 46.1559 110.16 45.902 110.16 45.6123V45.1094C110.16 44.8197 110.131 44.5674 110.072 44.3525C110.014 44.1344 109.931 43.9521 109.823 43.8057C109.716 43.6559 109.589 43.5452 109.442 43.4736C109.299 43.3988 109.143 43.3613 108.974 43.3613C108.808 43.3613 108.653 43.3988 108.51 43.4736C108.367 43.5452 108.241 43.6559 108.134 43.8057C108.03 43.9521 107.948 44.1344 107.89 44.3525C107.831 44.5674 107.802 44.8197 107.802 45.1094ZM115.404 47.2578V48H112.206V47.2578H115.404ZM115.307 43.3564L112.401 48H111.874V47.3359L114.76 42.7168H115.307V43.3564ZM114.931 42.7168V43.4639H111.889V42.7168H114.931ZM117.382 40.5V48H116.522V40.5H117.382ZM119.677 42.7168V48H118.817V42.7168H119.677ZM118.769 41.3154C118.769 41.1689 118.809 41.0452 118.891 40.9443C118.972 40.8434 119.094 40.793 119.257 40.793C119.42 40.793 119.542 40.8434 119.623 40.9443C119.708 41.0452 119.75 41.1689 119.75 41.3154C119.75 41.4554 119.708 41.5758 119.623 41.6768C119.542 41.7744 119.42 41.8232 119.257 41.8232C119.094 41.8232 118.972 41.7744 118.891 41.6768C118.809 41.5758 118.769 41.4554 118.769 41.3154ZM122.875 47.3604C123.048 47.3604 123.204 47.3262 123.344 47.2578C123.487 47.1862 123.604 47.0755 123.695 46.9258C123.786 46.7728 123.839 46.5742 123.852 46.3301H124.662C124.649 46.6816 124.56 46.9909 124.394 47.2578C124.231 47.5215 124.016 47.7282 123.749 47.8779C123.485 48.0244 123.194 48.0977 122.875 48.0977C122.533 48.0977 122.235 48.0423 121.981 47.9316C121.731 47.821 121.522 47.6615 121.356 47.4531C121.194 47.2415 121.072 46.986 120.99 46.6865C120.909 46.3838 120.868 46.0404 120.868 45.6562V45.0605C120.868 44.6764 120.909 44.3346 120.99 44.0352C121.072 43.7324 121.194 43.4769 121.356 43.2686C121.522 43.057 121.731 42.8958 121.981 42.7852C122.235 42.6745 122.533 42.6191 122.875 42.6191C123.233 42.6191 123.542 42.6956 123.803 42.8486C124.066 42.9984 124.271 43.2165 124.418 43.5029C124.568 43.7861 124.649 44.1296 124.662 44.5332H123.852C123.839 44.2728 123.791 44.0563 123.71 43.8838C123.629 43.708 123.518 43.5778 123.378 43.4932C123.238 43.4053 123.07 43.3613 122.875 43.3613C122.647 43.3613 122.458 43.402 122.309 43.4834C122.162 43.5615 122.047 43.6755 121.962 43.8252C121.877 43.9749 121.817 44.154 121.781 44.3623C121.749 44.5706 121.732 44.8034 121.732 45.0605V45.6562C121.732 45.9134 121.749 46.1478 121.781 46.3594C121.817 46.5677 121.876 46.7467 121.957 46.8965C122.042 47.0462 122.159 47.1618 122.309 47.2432C122.458 47.3213 122.647 47.3604 122.875 47.3604ZM129.008 47.2578V48L125.81 48V47.2578L129.008 47.2578ZM128.91 43.3564L126.005 48H125.478V47.3359L128.363 42.7168H128.91V43.3564ZM128.534 42.7168V43.4639H125.492V42.7168L128.534 42.7168ZM131.869 48.0977C131.553 48.0977 131.269 48.0505 131.015 47.9561C130.761 47.8617 130.544 47.7184 130.365 47.5264C130.186 47.3311 130.049 47.0853 129.955 46.7891C129.861 46.4928 129.813 46.1429 129.813 45.7393V45.1436C129.813 44.6781 129.867 44.2842 129.975 43.9619C130.085 43.6396 130.233 43.3809 130.419 43.1855C130.604 42.987 130.814 42.8437 131.049 42.7559C131.283 42.6647 131.524 42.6191 131.771 42.6191C132.104 42.6191 132.387 42.6729 132.621 42.7803C132.855 42.8877 133.046 43.0472 133.192 43.2588C133.339 43.4704 133.446 43.7308 133.515 44.04C133.586 44.3493 133.622 44.7057 133.622 45.1094V45.6123H130.321V44.875H132.758V44.7529C132.745 44.4795 132.707 44.2386 132.646 44.0303C132.587 43.8219 132.489 43.6592 132.353 43.542C132.216 43.4215 132.022 43.3613 131.771 43.3613C131.612 43.3613 131.464 43.389 131.327 43.4443C131.194 43.4964 131.078 43.5892 130.98 43.7227C130.886 43.8529 130.811 44.0335 130.756 44.2646C130.704 44.4958 130.678 44.7887 130.678 45.1436V45.7393C130.678 46.0225 130.704 46.2666 130.756 46.4717C130.811 46.6735 130.891 46.8411 130.995 46.9746C131.103 47.1048 131.233 47.2025 131.386 47.2676C131.542 47.3294 131.719 47.3604 131.918 47.3604C132.208 47.3604 132.447 47.305 132.636 47.1943C132.825 47.0804 132.989 46.9355 133.129 46.7598L133.583 47.3018C133.489 47.4352 133.365 47.5638 133.212 47.6875C133.062 47.8079 132.877 47.9072 132.655 47.9854C132.437 48.0602 132.175 48.0977 131.869 48.0977ZM135.531 43.8447V48H134.667V42.7168H135.482L135.531 43.8447ZM135.321 45.1582L134.97 45.1436C134.966 44.7822 135.007 44.4486 135.092 44.1426C135.18 43.8333 135.303 43.5648 135.463 43.3369C135.626 43.109 135.819 42.9333 136.044 42.8096C136.269 42.6826 136.518 42.6191 136.791 42.6191C137.006 42.6191 137.201 42.6549 137.377 42.7266C137.553 42.7949 137.702 42.9056 137.826 43.0586C137.95 43.2116 138.044 43.4102 138.109 43.6543C138.178 43.8952 138.212 44.1898 138.212 44.5381V48H137.348V44.5283C137.348 44.2516 137.317 44.0303 137.255 43.8643C137.196 43.695 137.105 43.5729 136.981 43.498C136.861 43.4199 136.708 43.3809 136.522 43.3809C136.353 43.3809 136.195 43.4281 136.049 43.5225C135.902 43.6169 135.774 43.7471 135.663 43.9131C135.556 44.0791 135.471 44.2695 135.409 44.4844C135.351 44.696 135.321 44.9206 135.321 45.1582ZM140.438 42.7168V48H139.579V42.7168H140.438ZM139.53 41.3154C139.53 41.1689 139.571 41.0452 139.652 40.9443C139.734 40.8434 139.856 40.793 140.019 40.793C140.181 40.793 140.303 40.8434 140.385 40.9443C140.469 41.0452 140.512 41.1689 140.512 41.3154C140.512 41.4554 140.469 41.5758 140.385 41.6768C140.303 41.7744 140.181 41.8232 140.019 41.8232C139.856 41.8232 139.734 41.7744 139.652 41.6768C139.571 41.5758 139.53 41.4554 139.53 41.3154ZM143.695 48.0977C143.38 48.0977 143.095 48.0505 142.841 47.9561C142.587 47.8617 142.37 47.7184 142.191 47.5264C142.012 47.3311 141.876 47.0853 141.781 46.7891C141.687 46.4928 141.64 46.1429 141.64 45.7393V45.1436C141.64 44.6781 141.693 44.2842 141.801 43.9619C141.911 43.6396 142.06 43.3809 142.245 43.1855C142.431 42.987 142.641 42.8437 142.875 42.7559C143.109 42.6647 143.35 42.6191 143.598 42.6191C143.93 42.6191 144.213 42.6729 144.447 42.7803C144.682 42.8877 144.872 43.0472 145.019 43.2588C145.165 43.4704 145.272 43.7308 145.341 44.04C145.412 44.3493 145.448 44.7057 145.448 45.1094V45.6123H142.147V44.875H144.584V44.7529C144.571 44.4795 144.534 44.2386 144.472 44.0303C144.413 43.8219 144.315 43.6592 144.179 43.542C144.042 43.4215 143.848 43.3613 143.598 43.3613C143.438 43.3613 143.29 43.389 143.153 43.4443C143.02 43.4964 142.904 43.5892 142.807 43.7227C142.712 43.8529 142.637 44.0335 142.582 44.2646C142.53 44.4958 142.504 44.7887 142.504 45.1436V45.7393C142.504 46.0225 142.53 46.2666 142.582 46.4717C142.637 46.6735 142.717 46.8411 142.821 46.9746C142.929 47.1048 143.059 47.2025 143.212 47.2676C143.368 47.3294 143.546 47.3604 143.744 47.3604C144.034 47.3604 144.273 47.305 144.462 47.1943C144.651 47.0804 144.815 46.9355 144.955 46.7598L145.409 47.3018C145.315 47.4352 145.191 47.5638 145.038 47.6875C144.888 47.8079 144.703 47.9072 144.481 47.9854C144.263 48.0602 144.001 48.0977 143.695 48.0977Z" fill="url(#paint1_linear_363_3095)"/>
<path d="M190.907 41.8516L192.045 36.8906H192.685L192.348 38.8193L191.112 44H190.473L190.907 41.8516ZM189.784 36.8906L190.673 41.7539L190.937 44H190.307L188.891 36.8906H189.784ZM194.135 41.749L195.004 36.8906H195.897L194.486 44H193.856L194.135 41.749ZM192.787 36.8906L193.891 41.8516L194.315 44H193.676L192.494 38.8193L192.157 36.8906H192.787ZM198.544 44.0977C198.228 44.0977 197.943 44.0505 197.689 43.9561C197.436 43.8617 197.219 43.7184 197.04 43.5264C196.861 43.3311 196.724 43.0853 196.63 42.7891C196.535 42.4928 196.488 42.1429 196.488 41.7393V41.1436C196.488 40.6781 196.542 40.2842 196.649 39.9619C196.76 39.6396 196.908 39.3809 197.094 39.1855C197.279 38.987 197.489 38.8438 197.724 38.7559C197.958 38.6647 198.199 38.6191 198.446 38.6191C198.778 38.6191 199.062 38.6729 199.296 38.7803C199.53 38.8877 199.721 39.0472 199.867 39.2588C200.014 39.4704 200.121 39.7308 200.189 40.04C200.261 40.3493 200.297 40.7057 200.297 41.1094V41.6123H196.996V40.875H199.433V40.7529C199.42 40.4795 199.382 40.2386 199.32 40.0303C199.262 39.8219 199.164 39.6592 199.027 39.542C198.891 39.4215 198.697 39.3613 198.446 39.3613C198.287 39.3613 198.139 39.389 198.002 39.4443C197.868 39.4964 197.753 39.5892 197.655 39.7227C197.561 39.8529 197.486 40.0335 197.431 40.2646C197.379 40.4958 197.353 40.7887 197.353 41.1436V41.7393C197.353 42.0225 197.379 42.2666 197.431 42.4717C197.486 42.6735 197.566 42.8411 197.67 42.9746C197.777 43.1048 197.908 43.2025 198.061 43.2676C198.217 43.3294 198.394 43.3604 198.593 43.3604C198.882 43.3604 199.122 43.305 199.311 43.1943C199.499 43.0804 199.664 42.9355 199.804 42.7598L200.258 43.3018C200.163 43.4352 200.04 43.5638 199.887 43.6875C199.737 43.8079 199.551 43.9072 199.33 43.9854C199.112 44.0602 198.85 44.0977 198.544 44.0977ZM202.206 39.5469V44H201.342V38.7168H202.177L202.206 39.5469ZM203.52 38.6875L203.524 39.5273C203.453 39.5111 203.388 39.5013 203.329 39.498C203.274 39.4915 203.209 39.4883 203.134 39.4883C202.971 39.4883 202.828 39.5208 202.704 39.5859C202.584 39.651 202.479 39.7422 202.392 39.8594C202.304 39.9766 202.234 40.1165 202.182 40.2793C202.13 40.4388 202.094 40.6146 202.074 40.8066L201.85 40.9531C201.85 40.6341 201.874 40.3346 201.923 40.0547C201.975 39.7747 202.055 39.5273 202.162 39.3125C202.27 39.0944 202.406 38.9251 202.572 38.8047C202.742 38.681 202.943 38.6191 203.178 38.6191C203.23 38.6191 203.293 38.6273 203.368 38.6436C203.446 38.6566 203.497 38.6712 203.52 38.6875ZM205.702 43.4531L206.879 38.7168H207.797L206.054 44.8154C206.011 44.9456 205.954 45.0856 205.883 45.2354C205.814 45.3883 205.727 45.5332 205.619 45.6699C205.512 45.8066 205.383 45.9173 205.233 46.002C205.084 46.0898 204.908 46.1338 204.706 46.1338C204.644 46.1338 204.564 46.124 204.467 46.1045C204.372 46.085 204.304 46.0687 204.262 46.0557V45.3232C204.281 45.3265 204.312 45.3298 204.354 45.333C204.397 45.3395 204.428 45.3428 204.447 45.3428C204.617 45.3428 204.76 45.3151 204.877 45.2598C204.997 45.2077 205.1 45.1182 205.185 44.9912C205.269 44.8675 205.341 44.6966 205.399 44.4785L205.702 43.4531ZM204.94 38.7168L205.99 42.8184L206.215 43.7705L205.6 44.1025L203.998 38.7168H204.94ZM209.75 44H208.886V38.2578C208.886 37.8574 208.952 37.5189 209.086 37.2422C209.223 36.9655 209.416 36.7555 209.667 36.6123C209.921 36.4691 210.22 36.3975 210.565 36.3975C210.771 36.3975 210.967 36.4268 211.156 36.4854C211.345 36.5407 211.54 36.6107 211.742 36.6953L211.596 37.457C211.479 37.3984 211.335 37.3431 211.166 37.291C210.997 37.2357 210.819 37.208 210.634 37.208C210.308 37.208 210.079 37.2959 209.945 37.4717C209.815 37.6442 209.75 37.9062 209.75 38.2578V44ZM210.604 38.7168V39.4102H208.197V38.7168H210.604ZM212.157 38.7168V44H211.293V38.7168L212.157 38.7168ZM214.418 36.5V44H213.554V36.5H214.418ZM217.099 38.7168L215.219 41.1826L214.057 42.5205L213.998 41.5586L214.799 40.4551L216.059 38.7168H217.099ZM216.308 44L214.823 41.4805L215.268 40.6748L217.313 44H216.308ZM220.648 43.0967V40.2305C220.648 40.0221 220.616 39.8545 220.551 39.7275C220.489 39.6006 220.395 39.5078 220.268 39.4492C220.144 39.3906 219.988 39.3613 219.799 39.3613C219.617 39.3613 219.459 39.3988 219.325 39.4736C219.195 39.5485 219.094 39.6478 219.022 39.7715C218.954 39.8952 218.92 40.0319 218.92 40.1816H218.056C218.056 39.9928 218.096 39.8057 218.178 39.6201C218.262 39.4346 218.383 39.2669 218.539 39.1172C218.695 38.9642 218.882 38.8437 219.101 38.7559C219.322 38.6647 219.569 38.6191 219.843 38.6191C220.168 38.6191 220.456 38.6729 220.707 38.7803C220.958 38.8844 221.155 39.0553 221.298 39.293C221.441 39.5306 221.513 39.8464 221.513 40.2402V42.8477C221.513 43.0234 221.526 43.2106 221.552 43.4092C221.581 43.6077 221.622 43.7786 221.674 43.9219V44H220.78C220.738 43.8958 220.705 43.7575 220.683 43.585C220.66 43.4092 220.648 43.2464 220.648 43.0967ZM220.785 40.7969L220.795 41.4316H220.194C219.989 41.4316 219.802 41.4544 219.633 41.5C219.467 41.5456 219.324 41.6123 219.203 41.7002C219.083 41.7848 218.99 41.8906 218.925 42.0176C218.863 42.1445 218.832 42.2894 218.832 42.4521C218.832 42.6637 218.861 42.833 218.92 42.96C218.979 43.0837 219.066 43.1732 219.184 43.2285C219.301 43.2839 219.449 43.3115 219.628 43.3115C219.846 43.3115 220.038 43.2611 220.204 43.1602C220.37 43.0592 220.499 42.9372 220.59 42.7939C220.684 42.6507 220.728 42.5173 220.722 42.3936L220.912 42.7988C220.899 42.9258 220.857 43.0641 220.785 43.2139C220.717 43.3604 220.621 43.502 220.497 43.6387C220.373 43.7721 220.227 43.8828 220.058 43.9707C219.892 44.0553 219.704 44.0977 219.496 44.0977C219.19 44.0977 218.922 44.0391 218.69 43.9219C218.463 43.8047 218.285 43.6322 218.158 43.4043C218.031 43.1764 217.968 42.8949 217.968 42.5596C217.968 42.3057 218.012 42.0713 218.1 41.8564C218.188 41.6416 218.318 41.4561 218.49 41.2998C218.663 41.1403 218.879 41.0166 219.14 40.9287C219.403 40.8408 219.708 40.7969 220.053 40.7969H220.785ZM224.687 43.3604C224.859 43.3604 225.015 43.3262 225.155 43.2578C225.299 43.1862 225.416 43.0755 225.507 42.9258C225.598 42.7728 225.65 42.5742 225.663 42.3301H226.474C226.461 42.6816 226.371 42.9909 226.205 43.2578C226.042 43.5215 225.827 43.7282 225.561 43.8779C225.297 44.0244 225.006 44.0977 224.687 44.0977C224.345 44.0977 224.047 44.0423 223.793 43.9316C223.542 43.821 223.334 43.6615 223.168 43.4531C223.005 43.2415 222.883 42.986 222.802 42.6865C222.72 42.3838 222.68 42.0404 222.68 41.6562V41.0605C222.68 40.6764 222.72 40.3346 222.802 40.0352C222.883 39.7324 223.005 39.4769 223.168 39.2686C223.334 39.057 223.542 38.8958 223.793 38.7852C224.047 38.6745 224.345 38.6191 224.687 38.6191C225.045 38.6191 225.354 38.6956 225.614 38.8486C225.878 38.9984 226.083 39.2165 226.229 39.5029C226.379 39.7861 226.461 40.1296 226.474 40.5332H225.663C225.65 40.2728 225.603 40.0563 225.521 39.8838C225.44 39.708 225.329 39.5778 225.189 39.4932C225.049 39.4053 224.882 39.3613 224.687 39.3613C224.459 39.3613 224.27 39.402 224.12 39.4834C223.974 39.5615 223.858 39.6755 223.773 39.8252C223.689 39.9749 223.629 40.154 223.593 40.3623C223.56 40.5706 223.544 40.8034 223.544 41.0605V41.6562C223.544 41.9134 223.56 42.1478 223.593 42.3594C223.629 42.5677 223.687 42.7467 223.769 42.8965C223.853 43.0462 223.97 43.1618 224.12 43.2432C224.27 43.3213 224.459 43.3604 224.687 43.3604ZM227.494 38.7168H228.354V44.6299C228.354 44.9521 228.311 45.2256 228.227 45.4502C228.145 45.6748 228.018 45.8441 227.846 45.958C227.676 46.0752 227.46 46.1338 227.196 46.1338C227.125 46.1338 227.042 46.1257 226.947 46.1094C226.856 46.0931 226.778 46.0736 226.713 46.0508V45.3232C226.768 45.3363 226.828 45.346 226.894 45.3525C226.959 45.3623 227.012 45.3672 227.055 45.3672C227.149 45.3672 227.229 45.3428 227.294 45.2939C227.359 45.2451 227.408 45.167 227.44 45.0596C227.476 44.9521 227.494 44.8089 227.494 44.6299V38.7168ZM227.416 37.3154C227.416 37.1689 227.457 37.0452 227.538 36.9443C227.623 36.8434 227.745 36.793 227.904 36.793C228.067 36.793 228.189 36.8434 228.271 36.9443C228.355 37.0452 228.397 37.1689 228.397 37.3154C228.397 37.4554 228.355 37.5758 228.271 37.6768C228.189 37.7744 228.067 37.8232 227.904 37.8232C227.745 37.8232 227.623 37.7744 227.538 37.6768C227.457 37.5758 227.416 37.4554 227.416 37.3154ZM232.309 43.0967V40.2305C232.309 40.0221 232.276 39.8545 232.211 39.7275C232.149 39.6006 232.055 39.5078 231.928 39.4492C231.804 39.3906 231.648 39.3613 231.459 39.3613C231.277 39.3613 231.119 39.3988 230.985 39.4736C230.855 39.5485 230.754 39.6478 230.683 39.7715C230.614 39.8952 230.58 40.0319 230.58 40.1816H229.716C229.716 39.9928 229.757 39.8057 229.838 39.6201C229.923 39.4346 230.043 39.2669 230.199 39.1172C230.355 38.9642 230.543 38.8437 230.761 38.7559C230.982 38.6647 231.229 38.6191 231.503 38.6191C231.828 38.6191 232.117 38.6729 232.367 38.7803C232.618 38.8844 232.815 39.0553 232.958 39.293C233.101 39.5306 233.173 39.8464 233.173 40.2402V42.8477C233.173 43.0234 233.186 43.2106 233.212 43.4092C233.241 43.6077 233.282 43.7786 233.334 43.9219V44H232.44C232.398 43.8958 232.366 43.7575 232.343 43.585C232.32 43.4092 232.309 43.2464 232.309 43.0967ZM232.445 40.7969L232.455 41.4316H231.854C231.649 41.4316 231.462 41.4544 231.293 41.5C231.127 41.5456 230.984 41.6123 230.863 41.7002C230.743 41.7848 230.65 41.8906 230.585 42.0176C230.523 42.1445 230.492 42.2894 230.492 42.4521C230.492 42.6637 230.521 42.833 230.58 42.96C230.639 43.0837 230.727 43.1732 230.844 43.2285C230.961 43.2839 231.109 43.3115 231.288 43.3115C231.506 43.3115 231.698 43.2611 231.864 43.1602C232.03 43.0592 232.159 42.9372 232.25 42.7939C232.344 42.6507 232.388 42.5173 232.382 42.3936L232.572 42.7988C232.559 42.9258 232.517 43.0641 232.445 43.2139C232.377 43.3604 232.281 43.502 232.157 43.6387C232.034 43.7721 231.887 43.8828 231.718 43.9707C231.552 44.0553 231.365 44.0977 231.156 44.0977C230.85 44.0977 230.582 44.0391 230.351 43.9219C230.123 43.8047 229.945 43.6322 229.818 43.4043C229.691 43.1764 229.628 42.8949 229.628 42.5596C229.628 42.3057 229.672 42.0713 229.76 41.8564C229.848 41.6416 229.978 41.4561 230.15 41.2998C230.323 41.1403 230.539 41.0166 230.8 40.9287C231.063 40.8408 231.368 40.7969 231.713 40.7969H232.445ZM237.738 38.7168V44H236.879V38.7168H237.738ZM236.83 37.3154C236.83 37.1689 236.871 37.0452 236.952 36.9443C237.034 36.8434 237.156 36.793 237.318 36.793C237.481 36.793 237.603 36.8434 237.685 36.9443C237.769 37.0452 237.812 37.1689 237.812 37.3154C237.812 37.4554 237.769 37.5758 237.685 37.6768C237.603 37.7744 237.481 37.8232 237.318 37.8232C237.156 37.8232 237.034 37.7744 236.952 37.6768C236.871 37.5758 236.83 37.4554 236.83 37.3154ZM197.895 50.7324V57.0312H197.03V49.7168H197.816L197.895 50.7324ZM200.849 52.1191V52.6123C200.849 53.029 200.81 53.3936 200.731 53.7061C200.657 54.0153 200.544 54.2741 200.395 54.4824C200.248 54.6875 200.067 54.8421 199.853 54.9463C199.638 55.0472 199.392 55.0977 199.115 55.0977C198.839 55.0977 198.598 55.0456 198.393 54.9414C198.191 54.834 198.02 54.6794 197.88 54.4775C197.743 54.2757 197.634 54.0332 197.553 53.75C197.475 53.4635 197.421 53.1429 197.392 52.7881V52.0361C197.421 51.6618 197.475 51.3265 197.553 51.0303C197.631 50.7308 197.738 50.4769 197.875 50.2686C198.015 50.057 198.186 49.8958 198.388 49.7852C198.593 49.6745 198.832 49.6191 199.105 49.6191C199.389 49.6191 199.638 49.668 199.853 49.7656C200.071 49.8633 200.253 50.0146 200.399 50.2197C200.549 50.4215 200.661 50.6803 200.736 50.9961C200.811 51.3086 200.849 51.6829 200.849 52.1191ZM199.984 52.6123V52.1191C199.984 51.8262 199.962 51.5706 199.916 51.3525C199.874 51.1344 199.805 50.9538 199.711 50.8105C199.617 50.6673 199.498 50.5599 199.354 50.4883C199.211 50.4167 199.039 50.3809 198.837 50.3809C198.664 50.3809 198.511 50.4167 198.378 50.4883C198.248 50.5599 198.135 50.6576 198.041 50.7812C197.947 50.9017 197.868 51.04 197.807 51.1963C197.745 51.3493 197.699 51.5088 197.67 51.6748V53.1543C197.725 53.3626 197.799 53.5596 197.89 53.7451C197.981 53.9274 198.103 54.0755 198.256 54.1895C198.412 54.3034 198.609 54.3604 198.847 54.3604C199.045 54.3604 199.216 54.3245 199.359 54.2529C199.503 54.1813 199.62 54.0739 199.711 53.9307C199.805 53.7842 199.874 53.6019 199.916 53.3838C199.962 53.1624 199.984 52.9053 199.984 52.6123ZM203.583 50.459V51.0547L201.566 51.9678V51.3721L203.583 50.459ZM202.968 47.5V55H202.104V47.5H202.968ZM207.06 54.0967V51.2305C207.06 51.0221 207.027 50.8545 206.962 50.7275C206.9 50.6006 206.806 50.5078 206.679 50.4492C206.555 50.3906 206.399 50.3613 206.21 50.3613C206.028 50.3613 205.87 50.3988 205.736 50.4736C205.606 50.5485 205.505 50.6478 205.434 50.7715C205.365 50.8952 205.331 51.0319 205.331 51.1816H204.467C204.467 50.9928 204.507 50.8057 204.589 50.6201C204.674 50.4346 204.794 50.2669 204.95 50.1172C205.106 49.9642 205.294 49.8438 205.512 49.7559C205.733 49.6647 205.98 49.6191 206.254 49.6191C206.579 49.6191 206.868 49.6729 207.118 49.7803C207.369 49.8844 207.566 50.0553 207.709 50.293C207.852 50.5306 207.924 50.8464 207.924 51.2402V53.8477C207.924 54.0234 207.937 54.2106 207.963 54.4092C207.992 54.6077 208.033 54.7786 208.085 54.9219V55H207.191C207.149 54.8958 207.117 54.7575 207.094 54.585C207.071 54.4092 207.06 54.2464 207.06 54.0967ZM207.196 51.7969L207.206 52.4316H206.605C206.4 52.4316 206.213 52.4544 206.044 52.5C205.878 52.5456 205.735 52.6123 205.614 52.7002C205.494 52.7848 205.401 52.8906 205.336 53.0176C205.274 53.1445 205.243 53.2894 205.243 53.4521C205.243 53.6637 205.272 53.833 205.331 53.96C205.39 54.0837 205.478 54.1732 205.595 54.2285C205.712 54.2839 205.86 54.3115 206.039 54.3115C206.257 54.3115 206.449 54.2611 206.615 54.1602C206.781 54.0592 206.91 53.9372 207.001 53.7939C207.095 53.6507 207.139 53.5173 207.133 53.3936L207.323 53.7988C207.31 53.9258 207.268 54.0641 207.196 54.2139C207.128 54.3604 207.032 54.502 206.908 54.6387C206.785 54.7721 206.638 54.8828 206.469 54.9707C206.303 55.0553 206.116 55.0977 205.907 55.0977C205.601 55.0977 205.333 55.0391 205.102 54.9219C204.874 54.8047 204.696 54.6322 204.569 54.4043C204.442 54.1764 204.379 53.8949 204.379 53.5596C204.379 53.3057 204.423 53.0713 204.511 52.8564C204.599 52.6416 204.729 52.4561 204.901 52.2998C205.074 52.1403 205.29 52.0166 205.551 51.9287C205.814 51.8408 206.119 51.7969 206.464 51.7969H207.196ZM211.195 49.7168V50.4102H208.729V49.7168H211.195ZM209.535 48.4326H210.399V53.6914C210.399 53.8704 210.421 54.0055 210.463 54.0967C210.508 54.1878 210.565 54.248 210.634 54.2773C210.702 54.3066 210.775 54.3213 210.854 54.3213C210.912 54.3213 210.977 54.3148 211.049 54.3018C211.12 54.2855 211.169 54.2725 211.195 54.2627L211.19 55C211.132 55.0228 211.054 55.0439 210.956 55.0635C210.858 55.0863 210.735 55.0977 210.585 55.0977C210.399 55.0977 210.227 55.0537 210.067 54.9658C209.908 54.8779 209.779 54.7314 209.682 54.5264C209.584 54.318 209.535 54.0381 209.535 53.6865V48.4326ZM213.09 50.8447V55H212.226V49.7168H213.041L213.09 50.8447ZM212.88 52.1582L212.528 52.1436C212.525 51.7822 212.566 51.4486 212.65 51.1426C212.738 50.8333 212.862 50.5648 213.021 50.3369C213.184 50.109 213.378 49.9333 213.603 49.8096C213.827 49.6826 214.076 49.6191 214.35 49.6191C214.564 49.6191 214.76 49.6549 214.936 49.7266C215.111 49.7949 215.261 49.9056 215.385 50.0586C215.508 50.2116 215.603 50.4102 215.668 50.6543C215.736 50.8952 215.771 51.1898 215.771 51.5381V55H214.906V51.5283C214.906 51.2516 214.875 51.0303 214.813 50.8643C214.755 50.695 214.664 50.5729 214.54 50.498C214.42 50.4199 214.267 50.3809 214.081 50.3809C213.912 50.3809 213.754 50.4281 213.607 50.5225C213.461 50.6169 213.332 50.7471 213.222 50.9131C213.114 51.0791 213.03 51.2695 212.968 51.4844C212.909 51.696 212.88 51.9206 212.88 52.1582ZM216.889 52.6123V52.1094C216.889 51.6992 216.941 51.3395 217.045 51.0303C217.149 50.7178 217.294 50.4574 217.479 50.249C217.665 50.0407 217.882 49.8844 218.129 49.7803C218.376 49.6729 218.642 49.6191 218.925 49.6191C219.215 49.6191 219.483 49.6729 219.73 49.7803C219.978 49.8844 220.194 50.0407 220.38 50.249C220.569 50.4574 220.715 50.7178 220.819 51.0303C220.924 51.3395 220.976 51.6992 220.976 52.1094V52.6123C220.976 53.0225 220.924 53.3838 220.819 53.6963C220.715 54.0055 220.57 54.2643 220.385 54.4727C220.199 54.681 219.983 54.8372 219.735 54.9414C219.488 55.0456 219.221 55.0977 218.935 55.0977C218.648 55.0977 218.381 55.0456 218.134 54.9414C217.886 54.8372 217.668 54.681 217.479 54.4727C217.294 54.2643 217.149 54.0055 217.045 53.6963C216.941 53.3838 216.889 53.0225 216.889 52.6123ZM217.753 52.1094V52.6123C217.753 52.902 217.782 53.1559 217.841 53.374C217.899 53.5921 217.982 53.7744 218.09 53.9209C218.197 54.0674 218.323 54.1781 218.466 54.2529C218.609 54.3245 218.765 54.3604 218.935 54.3604C219.13 54.3604 219.301 54.3245 219.447 54.2529C219.597 54.1781 219.721 54.0674 219.818 53.9209C219.916 53.7744 219.989 53.5921 220.038 53.374C220.087 53.1559 220.111 52.902 220.111 52.6123V52.1094C220.111 51.8197 220.082 51.5674 220.023 51.3525C219.965 51.1344 219.882 50.9521 219.774 50.8057C219.667 50.6559 219.54 50.5452 219.394 50.4736C219.25 50.3988 219.094 50.3613 218.925 50.3613C218.759 50.3613 218.604 50.3988 218.461 50.4736C218.318 50.5452 218.192 50.6559 218.085 50.8057C217.981 50.9521 217.899 51.1344 217.841 51.3525C217.782 51.5674 217.753 51.8197 217.753 52.1094ZM224.652 53.6475C224.652 53.514 224.62 53.3968 224.555 53.2959C224.49 53.195 224.382 53.0973 224.232 53.0029C224.086 52.9085 223.887 52.8076 223.637 52.7002C223.393 52.5993 223.173 52.5 222.978 52.4023C222.785 52.3014 222.623 52.1924 222.489 52.0752C222.356 51.958 222.253 51.8229 222.182 51.6699C222.113 51.5137 222.079 51.3298 222.079 51.1182C222.079 50.9066 222.118 50.7113 222.196 50.5322C222.278 50.3499 222.392 50.1904 222.538 50.0537C222.685 49.917 222.86 49.8112 223.065 49.7363C223.271 49.6582 223.5 49.6191 223.754 49.6191C224.115 49.6191 224.423 49.6891 224.677 49.8291C224.931 49.9691 225.124 50.1611 225.258 50.4053C225.395 50.6462 225.463 50.918 225.463 51.2207H224.604C224.604 51.0742 224.571 50.9359 224.506 50.8057C224.441 50.6755 224.345 50.5697 224.218 50.4883C224.091 50.4036 223.936 50.3613 223.754 50.3613C223.562 50.3613 223.406 50.3955 223.285 50.4639C223.165 50.5322 223.077 50.6217 223.021 50.7324C222.969 50.8398 222.943 50.9587 222.943 51.0889C222.943 51.1865 222.956 51.2712 222.982 51.3428C223.012 51.4111 223.061 51.4762 223.129 51.5381C223.197 51.5967 223.29 51.6585 223.407 51.7236C223.528 51.7855 223.681 51.8571 223.866 51.9385C224.224 52.0785 224.525 52.2201 224.77 52.3633C225.014 52.5065 225.199 52.6742 225.326 52.8662C225.453 53.0583 225.517 53.2959 225.517 53.5791C225.517 53.8102 225.474 54.0202 225.39 54.209C225.308 54.3945 225.191 54.554 225.038 54.6875C224.885 54.821 224.701 54.9235 224.486 54.9951C224.275 55.0635 224.037 55.0977 223.773 55.0977C223.376 55.0977 223.039 55.0195 222.763 54.8633C222.489 54.7038 222.281 54.4971 222.138 54.2432C221.998 53.986 221.928 53.7109 221.928 53.418H222.792C222.802 53.6654 222.857 53.8574 222.958 53.9941C223.062 54.1309 223.188 54.2253 223.334 54.2773C223.48 54.3294 223.627 54.3555 223.773 54.3555C223.965 54.3555 224.127 54.3278 224.257 54.2725C224.387 54.2139 224.485 54.1309 224.55 54.0234C224.618 53.916 224.652 53.7907 224.652 53.6475ZM223.383 48.9355L224.33 47.5H225.419L224.11 48.9355H223.383ZM228.48 54.3604C228.653 54.3604 228.809 54.3262 228.949 54.2578C229.092 54.1862 229.21 54.0755 229.301 53.9258C229.392 53.7728 229.444 53.5742 229.457 53.3301H230.268C230.255 53.6816 230.165 53.9909 229.999 54.2578C229.836 54.5215 229.621 54.7282 229.354 54.8779C229.091 55.0244 228.799 55.0977 228.48 55.0977C228.139 55.0977 227.841 55.0423 227.587 54.9316C227.336 54.821 227.128 54.6615 226.962 54.4531C226.799 54.2415 226.677 53.986 226.596 53.6865C226.514 53.3838 226.474 53.0404 226.474 52.6562V52.0605C226.474 51.6764 226.514 51.3346 226.596 51.0352C226.677 50.7324 226.799 50.4769 226.962 50.2686C227.128 50.057 227.336 49.8958 227.587 49.7852C227.841 49.6745 228.139 49.6191 228.48 49.6191C228.839 49.6191 229.148 49.6956 229.408 49.8486C229.672 49.9984 229.877 50.2165 230.023 50.5029C230.173 50.7861 230.255 51.1296 230.268 51.5332H229.457C229.444 51.2728 229.397 51.0563 229.315 50.8838C229.234 50.708 229.123 50.5778 228.983 50.4932C228.843 50.4053 228.676 50.3613 228.48 50.3613C228.253 50.3613 228.064 50.402 227.914 50.4834C227.768 50.5615 227.652 50.6755 227.567 50.8252C227.483 50.9749 227.423 51.154 227.387 51.3623C227.354 51.5706 227.338 51.8034 227.338 52.0605V52.6562C227.338 52.9134 227.354 53.1478 227.387 53.3594C227.423 53.5677 227.481 53.7467 227.562 53.8965C227.647 54.0462 227.764 54.1618 227.914 54.2432C228.064 54.3213 228.253 54.3604 228.48 54.3604ZM227.772 48.9355L228.72 47.5H229.809L228.5 48.9355H227.772Z" fill="#E0E0E9"/>
<path fill-rule="evenodd" clip-rule="evenodd" d="M203 16L136 16V14L203 14V16Z" fill="#D0CFD7"/>
<path fill-rule="evenodd" clip-rule="evenodd" d="M110 16L43 16V14L110 14V16Z" fill="url(#paint2_linear_363_3095)"/>
<path fill-rule="evenodd" clip-rule="evenodd" d="M17.7612 6.17317C17 8.01088 17 10.3406 17 15C17 19.6594 17 21.9891 17.7612 23.8268C18.7761 26.2771 20.7229 28.2239 23.1732 29.2388C25.0109 30 27.3406 30 32 30C36.6594 30 38.9891 30 40.8268 29.2388C43.2771 28.2239 45.2239 26.2771 46.2388 23.8268C47 21.9891 47 19.6594 47 15C47 10.3406 47 8.01088 46.2388 6.17317C45.2239 3.72288 43.2771 1.77614 40.8268 0.761205C38.9891 0 36.6594 0 32 0C27.3406 0 25.0109 0 23.1732 0.761205C20.7229 1.77614 18.7761 3.72288 17.7612 6.17317ZM38.7071 11.7071C39.0976 11.3166 39.0976 10.6834 38.7071 10.2929C38.3166 9.90237 37.6834 9.90237 37.2929 10.2929L30 17.5858L26.7071 14.2929C26.3166 13.9024 25.6834 13.9024 25.2929 14.2929C24.9024 14.6834 24.9024 15.3166 25.2929 15.7071L29.2929 19.7071C29.4804 19.8946 29.7348 20 30 20C30.2652 20 30.5196 19.8946 30.7071 19.7071L38.7071 11.7071Z" fill="url(#paint3_linear_363_3095)"/>
<path fill-rule="evenodd" clip-rule="evenodd" d="M108.761 6.17317C108 8.01088 108 10.3406 108 15C108 19.6594 108 21.9891 108.761 23.8268C109.776 26.2771 111.723 28.2239 114.173 29.2388C116.011 30 118.341 30 123 30C127.659 30 129.989 30 131.827 29.2388C134.277 28.2239 136.224 26.2771 137.239 23.8268C138 21.9891 138 19.6594 138 15C138 10.3406 138 8.01088 137.239 6.17317C136.224 3.72288 134.277 1.77614 131.827 0.761205C129.989 0 127.659 0 123 0C118.341 0 116.011 0 114.173 0.761205C111.723 1.77614 109.776 3.72288 108.761 6.17317ZM129.707 11.7071C130.098 11.3166 130.098 10.6834 129.707 10.2929C129.317 9.90237 128.683 9.90237 128.293 10.2929L121 17.5858L117.707 14.2929C117.317 13.9024 116.683 13.9024 116.293 14.2929C115.902 14.6834 115.902 15.3166 116.293 15.7071L120.293 19.7071C120.48 19.8946 120.735 20 121 20C121.265 20 121.52 19.8946 121.707 19.7071L129.707 11.7071Z" fill="url(#paint4_linear_363_3095)"/>
<path fill-rule="evenodd" clip-rule="evenodd" d="M199.761 6.17317C199 8.01088 199 10.3406 199 15C199 19.6594 199 21.9891 199.761 23.8268C200.776 26.2771 202.723 28.2239 205.173 29.2388C207.011 30 209.341 30 214 30C218.659 30 220.989 30 222.827 29.2388C225.277 28.2239 227.224 26.2771 228.239 23.8268C229 21.9891 229 19.6594 229 15C229 10.3406 229 8.01088 228.239 6.17317C227.224 3.72288 225.277 1.77614 222.827 0.761205C220.989 0 218.659 0 214 0C209.341 0 207.011 0 205.173 0.761205C202.723 1.77614 200.776 3.72288 199.761 6.17317ZM220.707 11.7071C221.098 11.3166 221.098 10.6834 220.707 10.2929C220.317 9.90237 219.683 9.90237 219.293 10.2929L212 17.5858L208.707 14.2929C208.317 13.9024 207.683 13.9024 207.293 14.2929C206.902 14.6834 206.902 15.3166 207.293 15.7071L211.293 19.7071C211.48 19.8946 211.735 20 212 20C212.265 20 212.52 19.8946 212.707 19.7071L220.707 11.7071Z" fill="#D0CFD7"/>
<defs>
<linearGradient id="paint0_linear_363_3095" x1="32" y1="57" x2="32" y2="35" gradientUnits="userSpaceOnUse">
<stop stop-color="#5CCC94"/>
<stop offset="1" stop-color="#8CCAAE"/>
</linearGradient>
<linearGradient id="paint1_linear_363_3095" x1="123.5" y1="55" x2="123.5" y2="35" gradientUnits="userSpaceOnUse">
<stop stop-color="#5CCC94"/>
<stop offset="1" stop-color="#8CCAAE"/>
</linearGradient>
<linearGradient id="paint2_linear_363_3095" x1="76.5" y1="16" x2="76.5" y2="14" gradientUnits="userSpaceOnUse">
<stop stop-color="#5CCC94"/>
<stop offset="1" stop-color="#8CCAAE"/>
</linearGradient>
<linearGradient id="paint3_linear_363_3095" x1="32" y1="30" x2="32" y2="1.58545e-07" gradientUnits="userSpaceOnUse">
<stop stop-color="#5CCC94"/>
<stop offset="1" stop-color="#8CCAAE"/>
</linearGradient>
<linearGradient id="paint4_linear_363_3095" x1="123" y1="30" x2="123" y2="1.58545e-07" gradientUnits="userSpaceOnUse">
<stop stop-color="#5CCC94"/>
<stop offset="1" stop-color="#8CCAAE"/>
</linearGradient>
</defs>
</svg>
