<svg width="241" height="69" viewBox="0 0 241 69" fill="none" xmlns="http://www.w3.org/2000/svg">
<path d="M10.1699 36.8906L10.1699 44H9.27148L9.27148 36.8906H10.1699ZM13.7441 36.8906L11.2979 40.2061L9.86719 41.9297L9.70605 40.9238L10.7559 39.5469L12.6699 36.8906H13.7441ZM12.8506 44L10.7559 40.5332L11.2881 39.7861L13.9199 44H12.8506ZM16.376 44.0977C16.0602 44.0977 15.7754 44.0505 15.5215 43.9561C15.2676 43.8617 15.0511 43.7184 14.8721 43.5264C14.693 43.3311 14.5563 43.0853 14.4619 42.7891C14.3675 42.4928 14.3203 42.1429 14.3203 41.7393V41.1436C14.3203 40.6781 14.374 40.2842 14.4814 39.9619C14.5921 39.6396 14.7402 39.3809 14.9258 39.1855C15.1113 38.987 15.3213 38.8438 15.5557 38.7559C15.79 38.6647 16.0309 38.6191 16.2783 38.6191C16.6104 38.6191 16.8936 38.6729 17.1279 38.7803C17.3623 38.8877 17.5527 39.0472 17.6992 39.2588C17.8457 39.4704 17.9531 39.7308 18.0215 40.04C18.0931 40.3493 18.1289 40.7057 18.1289 41.1094V41.6123H14.8281V40.875H17.2646V40.7529C17.2516 40.4795 17.2142 40.2386 17.1523 40.0303C17.0938 39.8219 16.9961 39.6592 16.8594 39.542C16.7227 39.4215 16.529 39.3613 16.2783 39.3613C16.1188 39.3613 15.9707 39.389 15.834 39.4443C15.7005 39.4964 15.585 39.5892 15.4873 39.7227C15.3929 39.8529 15.318 40.0335 15.2627 40.2646C15.2106 40.4958 15.1846 40.7887 15.1846 41.1436V41.7393C15.1846 42.0225 15.2106 42.2666 15.2627 42.4717C15.318 42.6735 15.3978 42.8411 15.502 42.9746C15.6094 43.1048 15.7396 43.2025 15.8926 43.2676C16.0488 43.3294 16.2262 43.3604 16.4248 43.3604C16.7145 43.3604 16.9538 43.305 17.1426 43.1943C17.3314 43.0804 17.4958 42.9355 17.6357 42.7598L18.0898 43.3018C17.9954 43.4352 17.8717 43.5638 17.7188 43.6875C17.569 43.8079 17.3835 43.9072 17.1621 43.9854C16.944 44.0602 16.682 44.0977 16.376 44.0977ZM20.0381 39.8447V44H19.1738V38.7168H19.9893L20.0381 39.8447ZM19.8281 41.1582L19.4766 41.1436C19.4733 40.7822 19.514 40.4486 19.5986 40.1426C19.6865 39.8333 19.8102 39.5648 19.9697 39.3369C20.1325 39.109 20.3262 38.9333 20.5508 38.8096C20.7754 38.6826 21.0244 38.6191 21.2979 38.6191C21.5127 38.6191 21.708 38.6549 21.8838 38.7266C22.0596 38.7949 22.2093 38.9056 22.333 39.0586C22.4567 39.2116 22.5511 39.4102 22.6162 39.6543C22.6846 39.8952 22.7188 40.1898 22.7188 40.5381V44H21.8545V40.5283C21.8545 40.2516 21.8236 40.0303 21.7617 39.8643C21.7031 39.695 21.612 39.5729 21.4883 39.498C21.3678 39.4199 21.2148 39.3809 21.0293 39.3809C20.86 39.3809 20.7021 39.4281 20.5557 39.5225C20.4092 39.6169 20.2806 39.7471 20.1699 39.9131C20.0625 40.0791 19.9779 40.2695 19.916 40.4844C19.8574 40.696 19.8281 40.9206 19.8281 41.1582ZM24.8818 39.8447V44H24.0176V38.7168H24.833L24.8818 39.8447ZM24.6719 41.1582L24.3203 41.1436C24.3171 40.7822 24.3577 40.4486 24.4424 40.1426C24.5303 39.8333 24.654 39.5648 24.8135 39.3369C24.9762 39.109 25.1699 38.9333 25.3945 38.8096C25.6191 38.6826 25.8682 38.6191 26.1416 38.6191C26.3564 38.6191 26.5518 38.6549 26.7275 38.7266C26.9033 38.7949 27.0531 38.9056 27.1768 39.0586C27.3005 39.2116 27.3949 39.4102 27.46 39.6543C27.5283 39.8952 27.5625 40.1898 27.5625 40.5381V44H26.6982V40.5283C26.6982 40.2516 26.6673 40.0303 26.6055 39.8643C26.5469 39.695 26.4557 39.5729 26.332 39.498C26.2116 39.4199 26.0586 39.3809 25.873 39.3809C25.7038 39.3809 25.5459 39.4281 25.3994 39.5225C25.2529 39.6169 25.1243 39.7471 25.0137 39.9131C24.9062 40.0791 24.8216 40.2695 24.7598 40.4844C24.7012 40.696 24.6719 40.9206 24.6719 41.1582ZM32.2061 43.2578V44H29.0078V43.2578H32.2061ZM32.1084 39.3564L29.2031 44H28.6758V43.3359L31.5615 38.7168H32.1084V39.3564ZM31.7324 38.7168V39.4639H28.6904V38.7168H31.7324ZM35.0674 44.0977C34.7516 44.0977 34.4668 44.0505 34.2129 43.9561C33.959 43.8617 33.7425 43.7184 33.5635 43.5264C33.3844 43.3311 33.2477 43.0853 33.1533 42.7891C33.0589 42.4928 33.0117 42.1429 33.0117 41.7393V41.1436C33.0117 40.6781 33.0654 40.2842 33.1729 39.9619C33.2835 39.6396 33.4316 39.3809 33.6172 39.1855C33.8027 38.987 34.0127 38.8437 34.2471 38.7559C34.4814 38.6647 34.7223 38.6191 34.9697 38.6191C35.3018 38.6191 35.585 38.6729 35.8193 38.7803C36.0537 38.8877 36.2441 39.0472 36.3906 39.2588C36.5371 39.4704 36.6445 39.7308 36.7129 40.04C36.7845 40.3493 36.8203 40.7057 36.8203 41.1094V41.6123H33.5195V40.875H35.9561V40.7529C35.943 40.4795 35.9056 40.2386 35.8438 40.0303C35.7852 39.8219 35.6875 39.6592 35.5508 39.542C35.4141 39.4215 35.2204 39.3613 34.9697 39.3613C34.8102 39.3613 34.6621 39.389 34.5254 39.4443C34.3919 39.4964 34.2764 39.5892 34.1787 39.7227C34.0843 39.8529 34.0094 40.0335 33.9541 40.2646C33.902 40.4958 33.876 40.7887 33.876 41.1436V41.7393C33.876 42.0225 33.902 42.2666 33.9541 42.4717C34.0094 42.6735 34.0892 42.8411 34.1934 42.9746C34.3008 43.1048 34.431 43.2025 34.584 43.2676C34.7402 43.3294 34.9176 43.3604 35.1162 43.3604C35.4059 43.3604 35.6452 43.305 35.834 43.1943C36.0228 43.0804 36.1872 42.9355 36.3271 42.7598L36.7812 43.3018C36.6868 43.4352 36.5632 43.5638 36.4102 43.6875C36.2604 43.8079 36.0749 43.9072 35.8535 43.9854C35.6354 44.0602 35.3734 44.0977 35.0674 44.0977ZM38.793 38.7168V44H37.9336V38.7168H38.793ZM37.8848 37.3154C37.8848 37.1689 37.9255 37.0452 38.0068 36.9443C38.0882 36.8434 38.2103 36.793 38.373 36.793C38.5358 36.793 38.6579 36.8434 38.7393 36.9443C38.8239 37.0452 38.8662 37.1689 38.8662 37.3154C38.8662 37.4554 38.8239 37.5758 38.7393 37.6768C38.6579 37.7744 38.5358 37.8232 38.373 37.8232C38.2103 37.8232 38.0882 37.7744 38.0068 37.6768C37.9255 37.5758 37.8848 37.4554 37.8848 37.3154ZM41.9912 43.3604C42.1637 43.3604 42.32 43.3262 42.46 43.2578C42.6032 43.1862 42.7204 43.0755 42.8115 42.9258C42.9027 42.7728 42.9548 42.5742 42.9678 42.3301H43.7783C43.7653 42.6816 43.6758 42.9909 43.5098 43.2578C43.347 43.5215 43.1322 43.7282 42.8652 43.8779C42.6016 44.0244 42.3102 44.0977 41.9912 44.0977C41.6494 44.0977 41.3516 44.0423 41.0977 43.9316C40.847 43.821 40.6387 43.6615 40.4727 43.4531C40.3099 43.2415 40.1878 42.986 40.1064 42.6865C40.0251 42.3838 39.9844 42.0404 39.9844 41.6562V41.0605C39.9844 40.6764 40.0251 40.3346 40.1064 40.0352C40.1878 39.7324 40.3099 39.4769 40.4727 39.2686C40.6387 39.057 40.847 38.8958 41.0977 38.7852C41.3516 38.6745 41.6494 38.6191 41.9912 38.6191C42.3493 38.6191 42.6585 38.6956 42.9189 38.8486C43.1826 38.9984 43.3877 39.2165 43.5342 39.5029C43.6839 39.7861 43.7653 40.1296 43.7783 40.5332H42.9678C42.9548 40.2728 42.9076 40.0563 42.8262 39.8838C42.7448 39.708 42.6341 39.5778 42.4941 39.4932C42.3542 39.4053 42.1865 39.3613 41.9912 39.3613C41.7633 39.3613 41.5745 39.402 41.4248 39.4834C41.2783 39.5615 41.1628 39.6755 41.0781 39.8252C40.9935 39.9749 40.9333 40.154 40.8975 40.3623C40.8649 40.5706 40.8486 40.8034 40.8486 41.0605V41.6562C40.8486 41.9134 40.8649 42.1478 40.8975 42.3594C40.9333 42.5677 40.9919 42.7467 41.0732 42.8965C41.1579 43.0462 41.2751 43.1618 41.4248 43.2432C41.5745 43.3213 41.7633 43.3604 41.9912 43.3604ZM45.6436 36.5V44H44.7793V36.5H45.6436ZM45.4336 41.1582L45.082 41.1436C45.0788 40.7822 45.1195 40.4486 45.2041 40.1426C45.292 39.8333 45.4157 39.5648 45.5752 39.3369C45.738 39.109 45.9316 38.9333 46.1562 38.8096C46.3809 38.6826 46.6299 38.6191 46.9033 38.6191C47.1182 38.6191 47.3135 38.6549 47.4893 38.7266C47.665 38.7949 47.8148 38.9056 47.9385 39.0586C48.0622 39.2116 48.1566 39.4102 48.2217 39.6543C48.29 39.8952 48.3242 40.1898 48.3242 40.5381V44H47.46V40.5283C47.46 40.2516 47.429 40.0303 47.3672 39.8643C47.3086 39.695 47.2174 39.5729 47.0938 39.498C46.9733 39.4199 46.8203 39.3809 46.6348 39.3809C46.4655 39.3809 46.3076 39.4281 46.1611 39.5225C46.0146 39.6169 45.8861 39.7471 45.7754 39.9131C45.668 40.0791 45.5833 40.2695 45.5215 40.4844C45.4629 40.696 45.4336 40.9206 45.4336 41.1582ZM51.5029 44.0977C51.1872 44.0977 50.9023 44.0505 50.6484 43.9561C50.3945 43.8617 50.1781 43.7184 49.999 43.5264C49.82 43.3311 49.6833 43.0853 49.5889 42.7891C49.4945 42.4928 49.4473 42.1429 49.4473 41.7393V41.1436C49.4473 40.6781 49.501 40.2842 49.6084 39.9619C49.7191 39.6396 49.8672 39.3809 50.0527 39.1855C50.2383 38.987 50.4482 38.8437 50.6826 38.7559C50.917 38.6647 51.1579 38.6191 51.4053 38.6191C51.7373 38.6191 52.0205 38.6729 52.2549 38.7803C52.4893 38.8877 52.6797 39.0472 52.8262 39.2588C52.9727 39.4704 53.0801 39.7308 53.1484 40.04C53.2201 40.3493 53.2559 40.7057 53.2559 41.1094V41.6123H49.9551V40.875H52.3916V40.7529C52.3786 40.4795 52.3411 40.2386 52.2793 40.0303C52.2207 39.8219 52.123 39.6592 51.9863 39.542C51.8496 39.4215 51.6559 39.3613 51.4053 39.3613C51.2458 39.3613 51.0977 39.389 50.9609 39.4443C50.8275 39.4964 50.7119 39.5892 50.6143 39.7227C50.5199 39.8529 50.445 40.0335 50.3896 40.2646C50.3376 40.4958 50.3115 40.7887 50.3115 41.1436V41.7393C50.3115 42.0225 50.3376 42.2666 50.3896 42.4717C50.445 42.6735 50.5247 42.8411 50.6289 42.9746C50.7363 43.1048 50.8665 43.2025 51.0195 43.2676C51.1758 43.3294 51.3532 43.3604 51.5518 43.3604C51.8415 43.3604 52.0807 43.305 52.2695 43.1943C52.4583 43.0804 52.6227 42.9355 52.7627 42.7598L53.2168 43.3018C53.1224 43.4352 52.9987 43.5638 52.8457 43.6875C52.696 43.8079 52.5104 43.9072 52.2891 43.9854C52.071 44.0602 51.8089 44.0977 51.5029 44.0977ZM55.165 39.8447V44H54.3008V38.7168H55.1162L55.165 39.8447ZM54.9551 41.1582L54.6035 41.1436C54.6003 40.7822 54.641 40.4486 54.7256 40.1426C54.8135 39.8333 54.9372 39.5648 55.0967 39.3369C55.2594 39.109 55.4531 38.9333 55.6777 38.8096C55.9023 38.6826 56.1514 38.6191 56.4248 38.6191C56.6396 38.6191 56.835 38.6549 57.0107 38.7266C57.1865 38.7949 57.3363 38.9056 57.46 39.0586C57.5837 39.2116 57.6781 39.4102 57.7432 39.6543C57.8115 39.8952 57.8457 40.1898 57.8457 40.5381V44H56.9814V40.5283C56.9814 40.2516 56.9505 40.0303 56.8887 39.8643C56.8301 39.695 56.7389 39.5729 56.6152 39.498C56.4948 39.4199 56.3418 39.3809 56.1562 39.3809C55.987 39.3809 55.8291 39.4281 55.6826 39.5225C55.5361 39.6169 55.4076 39.7471 55.2969 39.9131C55.1895 40.0791 55.1048 40.2695 55.043 40.4844C54.9844 40.696 54.9551 40.9206 54.9551 41.1582Z" fill="url(#paint0_linear_363_2817)"/>
<path d="M88.835 40.8906H90.8223C91.2845 40.8906 91.6719 40.972 91.9844 41.1348C92.3001 41.2975 92.5378 41.5384 92.6973 41.8574C92.86 42.1732 92.9414 42.5622 92.9414 43.0244C92.9414 43.3499 92.8877 43.6478 92.7803 43.918C92.6729 44.1849 92.5166 44.4128 92.3115 44.6016C92.1064 44.7871 91.8574 44.9255 91.5645 45.0166L91.3203 45.1191H89.5479L89.5381 44.3525H90.8125C91.0859 44.3525 91.3138 44.2939 91.4961 44.1768C91.6784 44.0563 91.8151 43.8952 91.9062 43.6934C91.9974 43.4915 92.043 43.2686 92.043 43.0244C92.043 42.751 92.0023 42.5117 91.9209 42.3066C91.8395 42.1016 91.7093 41.9437 91.5303 41.833C91.3545 41.7191 91.1185 41.6621 90.8223 41.6621H89.7334V48H88.835V40.8906ZM92.248 48L90.832 44.7773L91.7646 44.7725L93.21 47.9414V48H92.248ZM95.915 48.0977C95.5993 48.0977 95.3145 48.0505 95.0605 47.9561C94.8066 47.8617 94.5902 47.7184 94.4111 47.5264C94.2321 47.3311 94.0954 47.0853 94.001 46.7891C93.9066 46.4928 93.8594 46.1429 93.8594 45.7393V45.1436C93.8594 44.6781 93.9131 44.2842 94.0205 43.9619C94.1312 43.6396 94.2793 43.3809 94.4648 43.1855C94.6504 42.987 94.8604 42.8438 95.0947 42.7559C95.3291 42.6647 95.57 42.6191 95.8174 42.6191C96.1494 42.6191 96.4326 42.6729 96.667 42.7803C96.9014 42.8877 97.0918 43.0472 97.2383 43.2588C97.3848 43.4704 97.4922 43.7308 97.5605 44.04C97.6322 44.3493 97.668 44.7057 97.668 45.1094V45.6123H94.3672V44.875H96.8037V44.7529C96.7907 44.4795 96.7533 44.2386 96.6914 44.0303C96.6328 43.8219 96.5352 43.6592 96.3984 43.542C96.2617 43.4215 96.068 43.3613 95.8174 43.3613C95.6579 43.3613 95.5098 43.389 95.373 43.4443C95.2396 43.4964 95.124 43.5892 95.0264 43.7227C94.932 43.8529 94.8571 44.0335 94.8018 44.2646C94.7497 44.4958 94.7236 44.7887 94.7236 45.1436V45.7393C94.7236 46.0225 94.7497 46.2666 94.8018 46.4717C94.8571 46.6735 94.9368 46.8411 95.041 46.9746C95.1484 47.1048 95.2786 47.2025 95.4316 47.2676C95.5879 47.3294 95.7653 47.3604 95.9639 47.3604C96.2536 47.3604 96.4928 47.305 96.6816 47.1943C96.8704 47.0804 97.0348 46.9355 97.1748 46.7598L97.6289 47.3018C97.5345 47.4352 97.4108 47.5638 97.2578 47.6875C97.1081 47.8079 96.9225 47.9072 96.7012 47.9854C96.4831 48.0602 96.221 48.0977 95.915 48.0977ZM100.544 47.3604C100.716 47.3604 100.873 47.3262 101.013 47.2578C101.156 47.1862 101.273 47.0755 101.364 46.9258C101.455 46.7728 101.507 46.5742 101.521 46.3301H102.331C102.318 46.6816 102.229 46.9909 102.062 47.2578C101.9 47.5215 101.685 47.7282 101.418 47.8779C101.154 48.0244 100.863 48.0977 100.544 48.0977C100.202 48.0977 99.9043 48.0423 99.6504 47.9316C99.3997 47.821 99.1914 47.6615 99.0254 47.4531C98.8626 47.2415 98.7406 46.986 98.6592 46.6865C98.5778 46.3838 98.5371 46.0404 98.5371 45.6562V45.0605C98.5371 44.6764 98.5778 44.3346 98.6592 44.0352C98.7406 43.7324 98.8626 43.4769 99.0254 43.2686C99.1914 43.057 99.3997 42.8958 99.6504 42.7852C99.9043 42.6745 100.202 42.6191 100.544 42.6191C100.902 42.6191 101.211 42.6956 101.472 42.8486C101.735 42.9984 101.94 43.2165 102.087 43.5029C102.237 43.7861 102.318 44.1296 102.331 44.5332H101.521C101.507 44.2728 101.46 44.0563 101.379 43.8838C101.298 43.708 101.187 43.5778 101.047 43.4932C100.907 43.4053 100.739 43.3613 100.544 43.3613C100.316 43.3613 100.127 43.402 99.9775 43.4834C99.8311 43.5615 99.7155 43.6755 99.6309 43.8252C99.5462 43.9749 99.486 44.154 99.4502 44.3623C99.4176 44.5706 99.4014 44.8034 99.4014 45.0605V45.6562C99.4014 45.9134 99.4176 46.1478 99.4502 46.3594C99.486 46.5677 99.5446 46.7467 99.626 46.8965C99.7106 47.0462 99.8278 47.1618 99.9775 47.2432C100.127 47.3213 100.316 47.3604 100.544 47.3604ZM104.196 40.5V48H103.332V40.5H104.196ZM103.986 45.1582L103.635 45.1436C103.632 44.7822 103.672 44.4486 103.757 44.1426C103.845 43.8333 103.968 43.5648 104.128 43.3369C104.291 43.109 104.484 42.9333 104.709 42.8096C104.934 42.6826 105.183 42.6191 105.456 42.6191C105.671 42.6191 105.866 42.6549 106.042 42.7266C106.218 42.7949 106.368 42.9056 106.491 43.0586C106.615 43.2116 106.709 43.4102 106.774 43.6543C106.843 43.8952 106.877 44.1898 106.877 44.5381V48H106.013V44.5283C106.013 44.2516 105.982 44.0303 105.92 43.8643C105.861 43.695 105.77 43.5729 105.646 43.498C105.526 43.4199 105.373 43.3809 105.188 43.3809C105.018 43.3809 104.86 43.4281 104.714 43.5225C104.567 43.6169 104.439 43.7471 104.328 43.9131C104.221 44.0791 104.136 44.2695 104.074 44.4844C104.016 44.696 103.986 44.9206 103.986 45.1582ZM109.03 43.8447V48H108.166V42.7168H108.981L109.03 43.8447ZM108.82 45.1582L108.469 45.1436C108.465 44.7822 108.506 44.4486 108.591 44.1426C108.679 43.8333 108.802 43.5648 108.962 43.3369C109.125 43.109 109.318 42.9333 109.543 42.8096C109.768 42.6826 110.017 42.6191 110.29 42.6191C110.505 42.6191 110.7 42.6549 110.876 42.7266C111.052 42.7949 111.201 42.9056 111.325 43.0586C111.449 43.2116 111.543 43.4102 111.608 43.6543C111.677 43.8952 111.711 44.1898 111.711 44.5381V48H110.847V44.5283C110.847 44.2516 110.816 44.0303 110.754 43.8643C110.695 43.695 110.604 43.5729 110.48 43.498C110.36 43.4199 110.207 43.3809 110.021 43.3809C109.852 43.3809 109.694 43.4281 109.548 43.5225C109.401 43.6169 109.273 43.7471 109.162 43.9131C109.055 44.0791 108.97 44.2695 108.908 44.4844C108.85 44.696 108.82 44.9206 108.82 45.1582ZM115.681 46.7793V42.7168H116.545V48H115.725L115.681 46.7793ZM115.842 45.666L116.184 45.6562C116.184 46.0078 116.153 46.3333 116.091 46.6328C116.032 46.929 115.935 47.1862 115.798 47.4043C115.664 47.6224 115.487 47.7933 115.266 47.917C115.044 48.0374 114.772 48.0977 114.45 48.0977C114.232 48.0977 114.034 48.0602 113.854 47.9854C113.679 47.9105 113.526 47.7949 113.396 47.6387C113.269 47.4824 113.169 47.279 113.098 47.0283C113.029 46.7777 112.995 46.4766 112.995 46.125V42.7168H113.854V46.1348C113.854 46.3724 113.876 46.5693 113.918 46.7256C113.96 46.8786 114.017 47.0007 114.089 47.0918C114.16 47.1797 114.24 47.2415 114.328 47.2773C114.416 47.3132 114.506 47.3311 114.597 47.3311C114.903 47.3311 115.147 47.2578 115.329 47.1113C115.511 46.9616 115.642 46.7614 115.72 46.5107C115.801 46.2568 115.842 45.9753 115.842 45.666ZM118.708 43.8447V48H117.844V42.7168H118.659L118.708 43.8447ZM118.498 45.1582L118.146 45.1436C118.143 44.7822 118.184 44.4486 118.269 44.1426C118.356 43.8333 118.48 43.5648 118.64 43.3369C118.802 43.109 118.996 42.9333 119.221 42.8096C119.445 42.6826 119.694 42.6191 119.968 42.6191C120.183 42.6191 120.378 42.6549 120.554 42.7266C120.729 42.7949 120.879 42.9056 121.003 43.0586C121.127 43.2116 121.221 43.4102 121.286 43.6543C121.354 43.8952 121.389 44.1898 121.389 44.5381V48H120.524V44.5283C120.524 44.2516 120.493 44.0303 120.432 43.8643C120.373 43.695 120.282 43.5729 120.158 43.498C120.038 43.4199 119.885 43.3809 119.699 43.3809C119.53 43.3809 119.372 43.4281 119.226 43.5225C119.079 43.6169 118.951 43.7471 118.84 43.9131C118.732 44.0791 118.648 44.2695 118.586 44.4844C118.527 44.696 118.498 44.9206 118.498 45.1582ZM125.549 42.7168H126.325V48.0439C126.325 48.5094 126.244 48.8936 126.081 49.1963C125.922 49.499 125.699 49.722 125.412 49.8652C125.126 50.0117 124.795 50.085 124.421 50.085C124.287 50.085 124.12 50.0605 123.918 50.0117C123.716 49.9629 123.514 49.888 123.312 49.7871C123.111 49.6895 122.945 49.5658 122.814 49.416L123.171 48.8154C123.356 49.0042 123.553 49.1393 123.762 49.2207C123.97 49.3021 124.169 49.3428 124.357 49.3428C124.582 49.3428 124.777 49.3021 124.943 49.2207C125.109 49.1393 125.238 49.0059 125.329 48.8203C125.42 48.638 125.466 48.3939 125.466 48.0879V43.8789L125.549 42.7168ZM122.512 45.6123V45.1191C122.512 44.6829 122.552 44.3086 122.634 43.9961C122.715 43.6803 122.832 43.4215 122.985 43.2197C123.142 43.0146 123.329 42.8633 123.547 42.7656C123.765 42.668 124.009 42.6191 124.279 42.6191C124.553 42.6191 124.789 42.6745 124.987 42.7852C125.186 42.8958 125.35 43.057 125.48 43.2686C125.614 43.4769 125.718 43.7308 125.793 44.0303C125.871 44.3265 125.925 44.6618 125.954 45.0361V45.6953C125.925 46.0664 125.871 46.4001 125.793 46.6963C125.718 46.9925 125.612 47.2448 125.476 47.4531C125.342 47.6615 125.176 47.821 124.978 47.9316C124.779 48.0423 124.543 48.0977 124.27 48.0977C124.003 48.0977 123.762 48.0472 123.547 47.9463C123.332 47.8421 123.146 47.6875 122.99 47.4824C122.837 47.2741 122.718 47.0153 122.634 46.7061C122.552 46.3936 122.512 46.029 122.512 45.6123ZM123.376 45.1191V45.6123C123.376 45.9053 123.397 46.1608 123.439 46.3789C123.482 46.5937 123.547 46.7728 123.635 46.916C123.726 47.056 123.841 47.1602 123.981 47.2285C124.125 47.2969 124.296 47.3311 124.494 47.3311C124.735 47.3311 124.932 47.2725 125.085 47.1553C125.238 47.0381 125.36 46.8835 125.451 46.6914C125.546 46.4961 125.62 46.2861 125.676 46.0615V44.6748C125.643 44.5088 125.596 44.3493 125.534 44.1963C125.476 44.04 125.399 43.9017 125.305 43.7812C125.21 43.6576 125.096 43.5599 124.963 43.4883C124.833 43.4167 124.68 43.3809 124.504 43.3809C124.305 43.3809 124.134 43.4167 123.991 43.4883C123.848 43.5599 123.731 43.6673 123.64 43.8105C123.549 43.9538 123.482 44.1344 123.439 44.3525C123.397 44.5706 123.376 44.8262 123.376 45.1191ZM130.183 46.6475C130.183 46.514 130.15 46.3968 130.085 46.2959C130.02 46.195 129.912 46.0973 129.763 46.0029C129.616 45.9085 129.418 45.8076 129.167 45.7002C128.923 45.5993 128.703 45.5 128.508 45.4023C128.316 45.3014 128.153 45.1924 128.02 45.0752C127.886 44.958 127.784 44.8229 127.712 44.6699C127.644 44.5137 127.609 44.3298 127.609 44.1182C127.609 43.9066 127.648 43.7113 127.727 43.5322C127.808 43.3499 127.922 43.1904 128.068 43.0537C128.215 42.917 128.391 42.8112 128.596 42.7363C128.801 42.6582 129.03 42.6191 129.284 42.6191C129.646 42.6191 129.953 42.6891 130.207 42.8291C130.461 42.9691 130.655 43.1611 130.788 43.4053C130.925 43.6462 130.993 43.918 130.993 44.2207H130.134C130.134 44.0742 130.101 43.9359 130.036 43.8057C129.971 43.6755 129.875 43.5697 129.748 43.4883C129.621 43.4036 129.466 43.3613 129.284 43.3613C129.092 43.3613 128.936 43.3955 128.815 43.4639C128.695 43.5322 128.607 43.6217 128.552 43.7324C128.5 43.8398 128.474 43.9587 128.474 44.0889C128.474 44.1865 128.487 44.2712 128.513 44.3428C128.542 44.4111 128.591 44.4762 128.659 44.5381C128.728 44.5967 128.82 44.6585 128.938 44.7236C129.058 44.7855 129.211 44.8571 129.396 44.9385C129.755 45.0785 130.056 45.2201 130.3 45.3633C130.544 45.5065 130.729 45.6742 130.856 45.8662C130.983 46.0583 131.047 46.2959 131.047 46.5791C131.047 46.8102 131.005 47.0202 130.92 47.209C130.839 47.3945 130.721 47.554 130.568 47.6875C130.415 47.821 130.231 47.9235 130.017 47.9951C129.805 48.0635 129.567 48.0977 129.304 48.0977C128.907 48.0977 128.57 48.0195 128.293 47.8633C128.02 47.7038 127.811 47.4971 127.668 47.2432C127.528 46.986 127.458 46.7109 127.458 46.418H128.322C128.332 46.6654 128.387 46.8574 128.488 46.9941C128.592 47.1309 128.718 47.2253 128.864 47.2773C129.011 47.3294 129.157 47.3555 129.304 47.3555C129.496 47.3555 129.657 47.3278 129.787 47.2725C129.917 47.2139 130.015 47.1309 130.08 47.0234C130.148 46.916 130.183 46.7907 130.183 46.6475ZM134.743 46.6475C134.743 46.514 134.711 46.3968 134.646 46.2959C134.58 46.195 134.473 46.0973 134.323 46.0029C134.177 45.9085 133.978 45.8076 133.728 45.7002C133.483 45.5993 133.264 45.5 133.068 45.4023C132.876 45.3014 132.714 45.1924 132.58 45.0752C132.447 44.958 132.344 44.8229 132.272 44.6699C132.204 44.5137 132.17 44.3298 132.17 44.1182C132.17 43.9066 132.209 43.7113 132.287 43.5322C132.368 43.3499 132.482 43.1904 132.629 43.0537C132.775 42.917 132.951 42.8112 133.156 42.7363C133.361 42.6582 133.591 42.6191 133.845 42.6191C134.206 42.6191 134.514 42.6891 134.768 42.8291C135.021 42.9691 135.215 43.1611 135.349 43.4053C135.485 43.6462 135.554 43.918 135.554 44.2207H134.694C134.694 44.0742 134.662 43.9359 134.597 43.8057C134.532 43.6755 134.436 43.5697 134.309 43.4883C134.182 43.4036 134.027 43.3613 133.845 43.3613C133.653 43.3613 133.496 43.3955 133.376 43.4639C133.256 43.5322 133.168 43.6217 133.112 43.7324C133.06 43.8398 133.034 43.9587 133.034 44.0889C133.034 44.1865 133.047 44.2712 133.073 44.3428C133.103 44.4111 133.151 44.4762 133.22 44.5381C133.288 44.5967 133.381 44.6585 133.498 44.7236C133.618 44.7855 133.771 44.8571 133.957 44.9385C134.315 45.0785 134.616 45.2201 134.86 45.3633C135.104 45.5065 135.29 45.6742 135.417 45.8662C135.544 46.0583 135.607 46.2959 135.607 46.5791C135.607 46.8102 135.565 47.0202 135.48 47.209C135.399 47.3945 135.282 47.554 135.129 47.6875C134.976 47.821 134.792 47.9235 134.577 47.9951C134.366 48.0635 134.128 48.0977 133.864 48.0977C133.467 48.0977 133.13 48.0195 132.854 47.8633C132.58 47.7038 132.372 47.4971 132.229 47.2432C132.089 46.986 132.019 46.7109 132.019 46.418H132.883C132.893 46.6654 132.948 46.8574 133.049 46.9941C133.153 47.1309 133.278 47.2253 133.425 47.2773C133.571 47.3294 133.718 47.3555 133.864 47.3555C134.056 47.3555 134.217 47.3278 134.348 47.2725C134.478 47.2139 134.576 47.1309 134.641 47.0234C134.709 46.916 134.743 46.7907 134.743 46.6475ZM138.669 42.7168V43.4102H136.203V42.7168H138.669ZM137.009 41.4326H137.873V46.6914C137.873 46.8704 137.894 47.0055 137.937 47.0967C137.982 47.1878 138.039 47.248 138.107 47.2773C138.176 47.3066 138.249 47.3213 138.327 47.3213C138.386 47.3213 138.451 47.3148 138.522 47.3018C138.594 47.2855 138.643 47.2725 138.669 47.2627L138.664 48C138.605 48.0228 138.527 48.0439 138.43 48.0635C138.332 48.0863 138.208 48.0977 138.059 48.0977C137.873 48.0977 137.701 48.0537 137.541 47.9658C137.382 47.8779 137.253 47.7314 137.155 47.5264C137.058 47.318 137.009 47.0381 137.009 46.6865V41.4326ZM141.589 48.0977C141.273 48.0977 140.988 48.0505 140.734 47.9561C140.48 47.8617 140.264 47.7184 140.085 47.5264C139.906 47.3311 139.769 47.0853 139.675 46.7891C139.58 46.4928 139.533 46.1429 139.533 45.7393V45.1436C139.533 44.6781 139.587 44.2842 139.694 43.9619C139.805 43.6396 139.953 43.3809 140.139 43.1855C140.324 42.987 140.534 42.8437 140.769 42.7559C141.003 42.6647 141.244 42.6191 141.491 42.6191C141.823 42.6191 142.106 42.6729 142.341 42.7803C142.575 42.8877 142.766 43.0472 142.912 43.2588C143.059 43.4704 143.166 43.7308 143.234 44.04C143.306 44.3493 143.342 44.7057 143.342 45.1094V45.6123H140.041V44.875H142.478V44.7529C142.465 44.4795 142.427 44.2386 142.365 44.0303C142.307 43.8219 142.209 43.6592 142.072 43.542C141.936 43.4215 141.742 43.3613 141.491 43.3613C141.332 43.3613 141.184 43.389 141.047 43.4443C140.913 43.4964 140.798 43.5892 140.7 43.7227C140.606 43.8529 140.531 44.0335 140.476 44.2646C140.424 44.4958 140.397 44.7887 140.397 45.1436V45.7393C140.397 46.0225 140.424 46.2666 140.476 46.4717C140.531 46.6735 140.611 46.8411 140.715 46.9746C140.822 47.1048 140.952 47.2025 141.105 47.2676C141.262 47.3294 141.439 47.3604 141.638 47.3604C141.927 47.3604 142.167 47.305 142.355 47.1943C142.544 47.0804 142.709 46.9355 142.849 46.7598L143.303 47.3018C143.208 47.4352 143.085 47.5638 142.932 47.6875C142.782 47.8079 142.596 47.9072 142.375 47.9854C142.157 48.0602 141.895 48.0977 141.589 48.0977ZM145.314 40.5V48H144.455V40.5H145.314ZM147.609 40.5V48H146.75V40.5H147.609ZM151.647 46.7793V42.7168H152.512V48H151.691L151.647 46.7793ZM151.809 45.666L152.15 45.6562C152.15 46.0078 152.119 46.3333 152.058 46.6328C151.999 46.929 151.901 47.1862 151.765 47.4043C151.631 47.6224 151.454 47.7933 151.232 47.917C151.011 48.0374 150.739 48.0977 150.417 48.0977C150.199 48.0977 150 48.0602 149.821 47.9854C149.646 47.9105 149.493 47.7949 149.362 47.6387C149.235 47.4824 149.136 47.279 149.064 47.0283C148.996 46.7777 148.962 46.4766 148.962 46.125V42.7168H149.821V46.1348C149.821 46.3724 149.842 46.5693 149.885 46.7256C149.927 46.8786 149.984 47.0007 150.056 47.0918C150.127 47.1797 150.207 47.2415 150.295 47.2773C150.383 47.3132 150.472 47.3311 150.563 47.3311C150.869 47.3311 151.114 47.2578 151.296 47.1113C151.478 46.9616 151.608 46.7614 151.687 46.5107C151.768 46.2568 151.809 45.9753 151.809 45.666ZM154.675 43.8447V48H153.811V42.7168H154.626L154.675 43.8447ZM154.465 45.1582L154.113 45.1436C154.11 44.7822 154.151 44.4486 154.235 44.1426C154.323 43.8333 154.447 43.5648 154.606 43.3369C154.769 43.109 154.963 42.9333 155.188 42.8096C155.412 42.6826 155.661 42.6191 155.935 42.6191C156.149 42.6191 156.345 42.6549 156.521 42.7266C156.696 42.7949 156.846 42.9056 156.97 43.0586C157.093 43.2116 157.188 43.4102 157.253 43.6543C157.321 43.8952 157.355 44.1898 157.355 44.5381V48H156.491V44.5283C156.491 44.2516 156.46 44.0303 156.398 43.8643C156.34 43.695 156.249 43.5729 156.125 43.498C156.005 43.4199 155.852 43.3809 155.666 43.3809C155.497 43.3809 155.339 43.4281 155.192 43.5225C155.046 43.6169 154.917 43.7471 154.807 43.9131C154.699 44.0791 154.615 44.2695 154.553 44.4844C154.494 44.696 154.465 44.9206 154.465 45.1582ZM161.516 42.7168H162.292V48.0439C162.292 48.5094 162.211 48.8936 162.048 49.1963C161.888 49.499 161.665 49.722 161.379 49.8652C161.092 50.0117 160.762 50.085 160.388 50.085C160.254 50.085 160.087 50.0605 159.885 50.0117C159.683 49.9629 159.481 49.888 159.279 49.7871C159.077 49.6895 158.911 49.5658 158.781 49.416L159.138 48.8154C159.323 49.0042 159.52 49.1393 159.729 49.2207C159.937 49.3021 160.135 49.3428 160.324 49.3428C160.549 49.3428 160.744 49.3021 160.91 49.2207C161.076 49.1393 161.205 49.0059 161.296 48.8203C161.387 48.638 161.433 48.3939 161.433 48.0879V43.8789L161.516 42.7168ZM158.479 45.6123V45.1191C158.479 44.6829 158.519 44.3086 158.601 43.9961C158.682 43.6803 158.799 43.4215 158.952 43.2197C159.108 43.0146 159.296 42.8633 159.514 42.7656C159.732 42.668 159.976 42.6191 160.246 42.6191C160.52 42.6191 160.756 42.6745 160.954 42.7852C161.153 42.8958 161.317 43.057 161.447 43.2686C161.581 43.4769 161.685 43.7308 161.76 44.0303C161.838 44.3265 161.892 44.6618 161.921 45.0361V45.6953C161.892 46.0664 161.838 46.4001 161.76 46.6963C161.685 46.9925 161.579 47.2448 161.442 47.4531C161.309 47.6615 161.143 47.821 160.944 47.9316C160.746 48.0423 160.51 48.0977 160.236 48.0977C159.969 48.0977 159.729 48.0472 159.514 47.9463C159.299 47.8421 159.113 47.6875 158.957 47.4824C158.804 47.2741 158.685 47.0153 158.601 46.7061C158.519 46.3936 158.479 46.029 158.479 45.6123ZM159.343 45.1191V45.6123C159.343 45.9053 159.364 46.1608 159.406 46.3789C159.449 46.5937 159.514 46.7728 159.602 46.916C159.693 47.056 159.808 47.1602 159.948 47.2285C160.091 47.2969 160.262 47.3311 160.461 47.3311C160.702 47.3311 160.899 47.2725 161.052 47.1553C161.205 47.0381 161.327 46.8835 161.418 46.6914C161.512 46.4961 161.587 46.2861 161.643 46.0615V44.6748C161.61 44.5088 161.563 44.3493 161.501 44.1963C161.442 44.04 161.366 43.9017 161.271 43.7812C161.177 43.6576 161.063 43.5599 160.93 43.4883C160.799 43.4167 160.646 43.3809 160.471 43.3809C160.272 43.3809 160.101 43.4167 159.958 43.4883C159.815 43.5599 159.698 43.6673 159.606 43.8105C159.515 43.9538 159.449 44.1344 159.406 44.3525C159.364 44.5706 159.343 44.8262 159.343 45.1191Z" fill="#E0E0E9"/>
<path d="M195.178 36.8906H196.076V41.8955C196.076 42.4294 195.974 42.8574 195.769 43.1797C195.563 43.502 195.293 43.7363 194.958 43.8828C194.626 44.026 194.268 44.0977 193.884 44.0977C193.474 44.0977 193.104 44.026 192.775 43.8828C192.447 43.7363 192.185 43.502 191.989 43.1797C191.797 42.8574 191.701 42.4294 191.701 41.8955V36.8906H192.595V41.8955C192.595 42.2666 192.647 42.5563 192.751 42.7646C192.858 42.973 193.008 43.1195 193.2 43.2041C193.396 43.2887 193.623 43.3311 193.884 43.3311C194.147 43.3311 194.375 43.2887 194.567 43.2041C194.763 43.1195 194.912 42.973 195.017 42.7646C195.124 42.5563 195.178 42.2666 195.178 41.8955V36.8906ZM192.307 35.7871C192.307 35.6406 192.352 35.5169 192.443 35.416C192.535 35.3151 192.666 35.2646 192.839 35.2646C193.015 35.2646 193.148 35.3151 193.239 35.416C193.33 35.5169 193.376 35.6406 193.376 35.7871C193.376 35.9271 193.33 36.0475 193.239 36.1484C193.148 36.2461 193.015 36.2949 192.839 36.2949C192.666 36.2949 192.535 36.2461 192.443 36.1484C192.352 36.0475 192.307 35.9271 192.307 35.7871ZM194.411 35.7969C194.411 35.6504 194.455 35.5267 194.543 35.4258C194.634 35.3249 194.768 35.2744 194.943 35.2744C195.116 35.2744 195.248 35.3249 195.339 35.4258C195.433 35.5267 195.48 35.6504 195.48 35.7969C195.48 35.9368 195.433 36.0573 195.339 36.1582C195.248 36.2559 195.116 36.3047 194.943 36.3047C194.768 36.3047 194.634 36.2559 194.543 36.1582C194.455 36.0573 194.411 35.9368 194.411 35.7969ZM197.331 36.5H198.195V42.9746L198.122 44H197.331V36.5ZM201.159 41.1191V41.6123C201.159 42.029 201.12 42.3936 201.042 42.7061C200.967 43.0153 200.855 43.2741 200.705 43.4824C200.555 43.6875 200.373 43.8421 200.158 43.9463C199.943 44.0472 199.698 44.0977 199.421 44.0977C199.147 44.0977 198.911 44.0423 198.713 43.9316C198.514 43.821 198.348 43.6615 198.215 43.4531C198.081 43.2448 197.976 42.9925 197.897 42.6963C197.823 42.4001 197.771 42.0664 197.741 41.6953V41.0361C197.771 40.6618 197.823 40.3265 197.897 40.0303C197.972 39.7308 198.076 39.4769 198.21 39.2686C198.343 39.057 198.509 38.8958 198.708 38.7852C198.907 38.6745 199.143 38.6191 199.416 38.6191C199.696 38.6191 199.943 38.668 200.158 38.7656C200.376 38.8633 200.559 39.0146 200.705 39.2197C200.855 39.4215 200.967 39.6803 201.042 39.9961C201.12 40.3086 201.159 40.6829 201.159 41.1191ZM200.295 41.6123V41.1191C200.295 40.8262 200.275 40.5706 200.236 40.3525C200.201 40.1344 200.14 39.9538 200.056 39.8105C199.971 39.6673 199.857 39.5599 199.714 39.4883C199.574 39.4167 199.4 39.3809 199.191 39.3809C199.016 39.3809 198.861 39.4167 198.728 39.4883C198.597 39.5599 198.485 39.6576 198.391 39.7812C198.296 39.9017 198.218 40.04 198.156 40.1963C198.094 40.3493 198.049 40.5088 198.02 40.6748V42.0615C198.062 42.2731 198.129 42.4766 198.22 42.6719C198.314 42.8639 198.441 43.0218 198.601 43.1455C198.76 43.2692 198.959 43.3311 199.196 43.3311C199.395 43.3311 199.562 43.2969 199.699 43.2285C199.839 43.1602 199.953 43.056 200.041 42.916C200.129 42.7728 200.192 42.5938 200.231 42.3789C200.274 42.1608 200.295 41.9053 200.295 41.6123ZM204.152 44.0977C203.837 44.0977 203.552 44.0505 203.298 43.9561C203.044 43.8617 202.827 43.7184 202.648 43.5264C202.469 43.3311 202.333 43.0853 202.238 42.7891C202.144 42.4928 202.097 42.1429 202.097 41.7393V41.1436C202.097 40.6781 202.15 40.2842 202.258 39.9619C202.368 39.6396 202.517 39.3809 202.702 39.1855C202.888 38.987 203.098 38.8438 203.332 38.7559C203.566 38.6647 203.807 38.6191 204.055 38.6191C204.387 38.6191 204.67 38.6729 204.904 38.7803C205.139 38.8877 205.329 39.0472 205.476 39.2588C205.622 39.4704 205.729 39.7308 205.798 40.04C205.869 40.3493 205.905 40.7057 205.905 41.1094V41.6123H202.604V40.875H205.041V40.7529C205.028 40.4795 204.991 40.2386 204.929 40.0303C204.87 39.8219 204.772 39.6592 204.636 39.542C204.499 39.4215 204.305 39.3613 204.055 39.3613C203.895 39.3613 203.747 39.389 203.61 39.4443C203.477 39.4964 203.361 39.5892 203.264 39.7227C203.169 39.8529 203.094 40.0335 203.039 40.2646C202.987 40.4958 202.961 40.7887 202.961 41.1436V41.7393C202.961 42.0225 202.987 42.2666 203.039 42.4717C203.094 42.6735 203.174 42.8411 203.278 42.9746C203.386 43.1048 203.516 43.2025 203.669 43.2676C203.825 43.3294 204.003 43.3604 204.201 43.3604C204.491 43.3604 204.73 43.305 204.919 43.1943C205.108 43.0804 205.272 42.9355 205.412 42.7598L205.866 43.3018C205.772 43.4352 205.648 43.5638 205.495 43.6875C205.345 43.8079 205.16 43.9072 204.938 43.9854C204.72 44.0602 204.458 44.0977 204.152 44.0977ZM207.814 39.5469V44H206.95V38.7168H207.785L207.814 39.5469ZM209.128 38.6875L209.133 39.5273C209.061 39.5111 208.996 39.5013 208.938 39.498C208.882 39.4915 208.817 39.4883 208.742 39.4883C208.579 39.4883 208.436 39.5208 208.312 39.5859C208.192 39.651 208.088 39.7422 208 39.8594C207.912 39.9766 207.842 40.1165 207.79 40.2793C207.738 40.4388 207.702 40.6146 207.683 40.8066L207.458 40.9531C207.458 40.6341 207.482 40.3346 207.531 40.0547C207.583 39.7747 207.663 39.5273 207.771 39.3125C207.878 39.0944 208.015 38.9251 208.181 38.8047C208.35 38.681 208.552 38.6191 208.786 38.6191C208.838 38.6191 208.902 38.6273 208.977 38.6436C209.055 38.6566 209.105 38.6712 209.128 38.6875ZM210.861 39.7324V46.0312H209.997V38.7168H210.783L210.861 39.7324ZM213.815 41.1191V41.6123C213.815 42.029 213.776 42.3936 213.698 42.7061C213.623 43.0153 213.511 43.2741 213.361 43.4824C213.215 43.6875 213.034 43.8421 212.819 43.9463C212.604 44.0472 212.359 44.0977 212.082 44.0977C211.805 44.0977 211.564 44.0456 211.359 43.9414C211.158 43.834 210.987 43.6794 210.847 43.4775C210.71 43.2757 210.601 43.0332 210.52 42.75C210.441 42.4635 210.388 42.1429 210.358 41.7881V41.0361C210.388 40.6618 210.441 40.3265 210.52 40.0303C210.598 39.7308 210.705 39.4769 210.842 39.2686C210.982 39.057 211.153 38.8958 211.354 38.7852C211.56 38.6745 211.799 38.6191 212.072 38.6191C212.355 38.6191 212.604 38.668 212.819 38.7656C213.037 38.8633 213.22 39.0146 213.366 39.2197C213.516 39.4215 213.628 39.6803 213.703 39.9961C213.778 40.3086 213.815 40.6829 213.815 41.1191ZM212.951 41.6123V41.1191C212.951 40.8262 212.928 40.5706 212.883 40.3525C212.84 40.1344 212.772 39.9538 212.678 39.8105C212.583 39.6673 212.465 39.5599 212.321 39.4883C212.178 39.4167 212.006 39.3809 211.804 39.3809C211.631 39.3809 211.478 39.4167 211.345 39.4883C211.215 39.5599 211.102 39.6576 211.008 39.7812C210.913 39.9017 210.835 40.04 210.773 40.1963C210.712 40.3493 210.666 40.5088 210.637 40.6748V42.1543C210.692 42.3626 210.765 42.5596 210.856 42.7451C210.948 42.9274 211.07 43.0755 211.223 43.1895C211.379 43.3034 211.576 43.3604 211.813 43.3604C212.012 43.3604 212.183 43.3245 212.326 43.2529C212.469 43.1813 212.587 43.0739 212.678 42.9307C212.772 42.7842 212.84 42.6019 212.883 42.3838C212.928 42.1624 212.951 41.9053 212.951 41.6123ZM215.793 39.5469V44H214.929V38.7168H215.764L215.793 39.5469ZM217.106 38.6875L217.111 39.5273C217.04 39.5111 216.975 39.5013 216.916 39.498C216.861 39.4915 216.796 39.4883 216.721 39.4883C216.558 39.4883 216.415 39.5208 216.291 39.5859C216.171 39.651 216.066 39.7422 215.979 39.8594C215.891 39.9766 215.821 40.1165 215.769 40.2793C215.716 40.4388 215.681 40.6146 215.661 40.8066L215.437 40.9531C215.437 40.6341 215.461 40.3346 215.51 40.0547C215.562 39.7747 215.642 39.5273 215.749 39.3125C215.856 39.0944 215.993 38.9251 216.159 38.8047C216.328 38.681 216.53 38.6191 216.765 38.6191C216.817 38.6191 216.88 38.6273 216.955 38.6436C217.033 38.6566 217.084 38.6712 217.106 38.6875ZM220.646 42.7793V38.7168H221.511V44H220.69L220.646 42.7793ZM220.808 41.666L221.149 41.6562C221.149 42.0078 221.118 42.3333 221.057 42.6328C220.998 42.929 220.9 43.1862 220.764 43.4043C220.63 43.6224 220.453 43.7933 220.231 43.917C220.01 44.0374 219.738 44.0977 219.416 44.0977C219.198 44.0977 218.999 44.0602 218.82 43.9854C218.645 43.9105 218.492 43.7949 218.361 43.6387C218.234 43.4824 218.135 43.279 218.063 43.0283C217.995 42.7777 217.961 42.4766 217.961 42.125V38.7168H218.82V42.1348C218.82 42.3724 218.841 42.5693 218.884 42.7256C218.926 42.8786 218.983 43.0007 219.055 43.0918C219.126 43.1797 219.206 43.2415 219.294 43.2773C219.382 43.3132 219.471 43.3311 219.562 43.3311C219.868 43.3311 220.113 43.2578 220.295 43.1113C220.477 42.9616 220.607 42.7614 220.686 42.5107C220.767 42.2568 220.808 41.9753 220.808 41.666ZM218.171 37.3057C218.171 37.1592 218.216 37.0355 218.308 36.9346C218.399 36.8337 218.531 36.7832 218.703 36.7832C218.879 36.7832 219.012 36.8337 219.104 36.9346C219.195 37.0355 219.24 37.1592 219.24 37.3057C219.24 37.4456 219.195 37.5661 219.104 37.667C219.012 37.7646 218.879 37.8135 218.703 37.8135C218.531 37.8135 218.399 37.7646 218.308 37.667C218.216 37.5661 218.171 37.4456 218.171 37.3057ZM220.275 37.3154C220.275 37.1689 220.319 37.0452 220.407 36.9443C220.498 36.8434 220.632 36.793 220.808 36.793C220.98 36.793 221.112 36.8434 221.203 36.9443C221.298 37.0452 221.345 37.1689 221.345 37.3154C221.345 37.4554 221.298 37.5758 221.203 37.6768C221.112 37.7744 220.98 37.8232 220.808 37.8232C220.632 37.8232 220.498 37.7744 220.407 37.6768C220.319 37.5758 220.275 37.4554 220.275 37.3154ZM224.055 44H223.19V38.1602C223.19 37.7793 223.251 37.4587 223.371 37.1982C223.495 36.9346 223.669 36.736 223.894 36.6025C224.121 36.4658 224.392 36.3975 224.704 36.3975C224.792 36.3975 224.88 36.404 224.968 36.417C225.059 36.43 225.145 36.4495 225.227 36.4756L225.188 37.2129C225.135 37.1966 225.072 37.1852 224.997 37.1787C224.925 37.1722 224.857 37.1689 224.792 37.1689C224.636 37.1689 224.502 37.208 224.392 37.2861C224.281 37.361 224.196 37.4717 224.138 37.6182C224.082 37.7646 224.055 37.9453 224.055 38.1602V44ZM224.953 38.7168V39.4102H222.502V38.7168H224.953ZM228.645 42.7793V38.7168H229.509V44H228.688L228.645 42.7793ZM228.806 41.666L229.147 41.6562C229.147 42.0078 229.117 42.3333 229.055 42.6328C228.996 42.929 228.898 43.1862 228.762 43.4043C228.628 43.6224 228.451 43.7933 228.229 43.917C228.008 44.0374 227.736 44.0977 227.414 44.0977C227.196 44.0977 226.997 44.0602 226.818 43.9854C226.643 43.9105 226.49 43.7949 226.359 43.6387C226.232 43.4824 226.133 43.279 226.062 43.0283C225.993 42.7777 225.959 42.4766 225.959 42.125V38.7168H226.818V42.1348C226.818 42.3724 226.84 42.5693 226.882 42.7256C226.924 42.8786 226.981 43.0007 227.053 43.0918C227.124 43.1797 227.204 43.2415 227.292 43.2773C227.38 43.3132 227.469 43.3311 227.561 43.3311C227.867 43.3311 228.111 43.2578 228.293 43.1113C228.475 42.9616 228.605 42.7614 228.684 42.5107C228.765 42.2568 228.806 41.9753 228.806 41.666ZM231.672 39.8447V44H230.808V38.7168H231.623L231.672 39.8447ZM231.462 41.1582L231.11 41.1436C231.107 40.7822 231.148 40.4486 231.232 40.1426C231.32 39.8333 231.444 39.5648 231.604 39.3369C231.766 39.109 231.96 38.9333 232.185 38.8096C232.409 38.6826 232.658 38.6191 232.932 38.6191C233.146 38.6191 233.342 38.6549 233.518 38.7266C233.693 38.7949 233.843 38.9056 233.967 39.0586C234.09 39.2116 234.185 39.4102 234.25 39.6543C234.318 39.8952 234.353 40.1898 234.353 40.5381V44H233.488V40.5283C233.488 40.2516 233.457 40.0303 233.396 39.8643C233.337 39.695 233.246 39.5729 233.122 39.498C233.002 39.4199 232.849 39.3809 232.663 39.3809C232.494 39.3809 232.336 39.4281 232.189 39.5225C232.043 39.6169 231.914 39.7471 231.804 39.9131C231.696 40.0791 231.612 40.2695 231.55 40.4844C231.491 40.696 231.462 40.9206 231.462 41.1582ZM238.513 38.7168H239.289V44.0439C239.289 44.5094 239.208 44.8936 239.045 45.1963C238.885 45.499 238.662 45.722 238.376 45.8652C238.09 46.0117 237.759 46.085 237.385 46.085C237.251 46.085 237.084 46.0605 236.882 46.0117C236.68 45.9629 236.478 45.888 236.276 45.7871C236.075 45.6895 235.909 45.5658 235.778 45.416L236.135 44.8154C236.32 45.0042 236.517 45.1393 236.726 45.2207C236.934 45.3021 237.132 45.3428 237.321 45.3428C237.546 45.3428 237.741 45.3021 237.907 45.2207C238.073 45.1393 238.202 45.0059 238.293 44.8203C238.384 44.638 238.43 44.3939 238.43 44.0879V39.8789L238.513 38.7168ZM235.476 41.6123V41.1191C235.476 40.6829 235.516 40.3086 235.598 39.9961C235.679 39.6803 235.796 39.4215 235.949 39.2197C236.105 39.0146 236.293 38.8633 236.511 38.7656C236.729 38.668 236.973 38.6191 237.243 38.6191C237.517 38.6191 237.753 38.6745 237.951 38.7852C238.15 38.8958 238.314 39.057 238.444 39.2686C238.578 39.4769 238.682 39.7308 238.757 40.0303C238.835 40.3265 238.889 40.6618 238.918 41.0361V41.6953C238.889 42.0664 238.835 42.4001 238.757 42.6963C238.682 42.9925 238.576 43.2448 238.439 43.4531C238.306 43.6615 238.14 43.821 237.941 43.9316C237.743 44.0423 237.507 44.0977 237.233 44.0977C236.966 44.0977 236.726 44.0472 236.511 43.9463C236.296 43.8421 236.11 43.6875 235.954 43.4824C235.801 43.2741 235.682 43.0153 235.598 42.7061C235.516 42.3936 235.476 42.029 235.476 41.6123ZM236.34 41.1191V41.6123C236.34 41.9053 236.361 42.1608 236.403 42.3789C236.446 42.5937 236.511 42.7728 236.599 42.916C236.69 43.056 236.805 43.1602 236.945 43.2285C237.089 43.2969 237.259 43.3311 237.458 43.3311C237.699 43.3311 237.896 43.2725 238.049 43.1553C238.202 43.0381 238.324 42.8835 238.415 42.6914C238.509 42.4961 238.584 42.2861 238.64 42.0615V40.6748C238.607 40.5088 238.56 40.3493 238.498 40.1963C238.439 40.04 238.363 39.9017 238.269 39.7812C238.174 39.6576 238.06 39.5599 237.927 39.4883C237.797 39.4167 237.644 39.3809 237.468 39.3809C237.269 39.3809 237.098 39.4167 236.955 39.4883C236.812 39.5599 236.695 39.6673 236.604 39.8105C236.512 39.9538 236.446 40.1344 236.403 40.3525C236.361 40.5706 236.34 40.8262 236.34 41.1191ZM211.501 53.7793V49.7168H212.365V55H211.545L211.501 53.7793ZM211.662 52.666L212.004 52.6562C212.004 53.0078 211.973 53.3333 211.911 53.6328C211.853 53.929 211.755 54.1862 211.618 54.4043C211.485 54.6224 211.307 54.7933 211.086 54.917C210.865 55.0374 210.593 55.0977 210.271 55.0977C210.052 55.0977 209.854 55.0602 209.675 54.9854C209.499 54.9105 209.346 54.7949 209.216 54.6387C209.089 54.4824 208.99 54.279 208.918 54.0283C208.85 53.7777 208.815 53.4766 208.815 53.125V49.7168H209.675V53.1348C209.675 53.3724 209.696 53.5693 209.738 53.7256C209.781 53.8786 209.838 54.0007 209.909 54.0918C209.981 54.1797 210.061 54.2415 210.148 54.2773C210.236 54.3132 210.326 54.3311 210.417 54.3311C210.723 54.3311 210.967 54.2578 211.149 54.1113C211.332 53.9616 211.462 53.7614 211.54 53.5107C211.621 53.2568 211.662 52.9753 211.662 52.666ZM214.528 50.8447V55H213.664V49.7168H214.479L214.528 50.8447ZM214.318 52.1582L213.967 52.1436C213.964 51.7822 214.004 51.4486 214.089 51.1426C214.177 50.8333 214.3 50.5648 214.46 50.3369C214.623 50.109 214.816 49.9333 215.041 49.8096C215.266 49.6826 215.515 49.6191 215.788 49.6191C216.003 49.6191 216.198 49.6549 216.374 49.7266C216.55 49.7949 216.7 49.9056 216.823 50.0586C216.947 50.2116 217.041 50.4102 217.106 50.6543C217.175 50.8952 217.209 51.1898 217.209 51.5381V55H216.345V51.5283C216.345 51.2516 216.314 51.0303 216.252 50.8643C216.193 50.695 216.102 50.5729 215.979 50.498C215.858 50.4199 215.705 50.3809 215.52 50.3809C215.35 50.3809 215.192 50.4281 215.046 50.5225C214.899 50.6169 214.771 50.7471 214.66 50.9131C214.553 51.0791 214.468 51.2695 214.406 51.4844C214.348 51.696 214.318 51.9206 214.318 52.1582ZM221.276 53.9746V47.5H222.136V55H221.35L221.276 53.9746ZM218.322 52.6123V52.1191C218.322 51.6829 218.365 51.3086 218.449 50.9961C218.534 50.6803 218.654 50.4215 218.811 50.2197C218.967 50.0146 219.154 49.8633 219.372 49.7656C219.59 49.668 219.831 49.6191 220.095 49.6191C220.368 49.6191 220.603 49.6745 220.798 49.7852C220.996 49.8958 221.162 50.057 221.296 50.2686C221.429 50.4769 221.534 50.7308 221.608 51.0303C221.687 51.3265 221.739 51.6618 221.765 52.0361V52.6953C221.735 53.0664 221.682 53.4001 221.604 53.6963C221.529 53.9925 221.424 54.2448 221.291 54.4531C221.158 54.6615 220.992 54.821 220.793 54.9316C220.594 55.0423 220.358 55.0977 220.085 55.0977C219.825 55.0977 219.587 55.0472 219.372 54.9463C219.157 54.8421 218.97 54.6875 218.811 54.4824C218.654 54.2741 218.534 54.0153 218.449 53.7061C218.365 53.3936 218.322 53.029 218.322 52.6123ZM219.187 52.1191V52.6123C219.187 52.9053 219.208 53.1608 219.25 53.3789C219.292 53.5938 219.359 53.7728 219.45 53.916C219.541 54.056 219.657 54.1602 219.797 54.2285C219.94 54.2969 220.111 54.3311 220.31 54.3311C220.55 54.3311 220.747 54.2725 220.9 54.1553C221.053 54.0381 221.175 53.8835 221.267 53.6914C221.361 53.4961 221.436 53.2861 221.491 53.0615V51.6748C221.459 51.5088 221.411 51.3493 221.35 51.1963C221.288 51.04 221.21 50.9017 221.115 50.7812C221.024 50.6576 220.912 50.5599 220.778 50.4883C220.648 50.4167 220.495 50.3809 220.319 50.3809C220.121 50.3809 219.948 50.4167 219.802 50.4883C219.659 50.5599 219.541 50.6673 219.45 50.8105C219.362 50.9538 219.296 51.1344 219.25 51.3525C219.208 51.5706 219.187 51.8262 219.187 52.1191ZM197.883 62.6748H196.438L196.428 61.918H197.771C197.972 61.918 198.151 61.8724 198.308 61.7812C198.464 61.6901 198.586 61.5599 198.674 61.3906C198.765 61.2181 198.811 61.013 198.811 60.7754C198.811 60.515 198.771 60.3034 198.693 60.1406C198.618 59.9746 198.503 59.8542 198.347 59.7793C198.194 59.7012 197.998 59.6621 197.761 59.6621H196.628V66H195.729V58.8906H197.761C198.067 58.8906 198.34 58.9281 198.581 59.0029C198.822 59.0745 199.025 59.1885 199.191 59.3447C199.361 59.4977 199.489 59.693 199.577 59.9307C199.665 60.1683 199.709 60.4531 199.709 60.7852C199.709 61.0781 199.642 61.3434 199.509 61.5811C199.379 61.8154 199.196 62.0075 198.962 62.1572C198.728 62.307 198.457 62.403 198.151 62.4453L197.883 62.6748ZM197.849 66H196.066L196.589 65.2334H197.849C198.083 65.2334 198.282 65.1813 198.444 65.0771C198.607 64.973 198.731 64.8265 198.815 64.6377C198.903 64.4456 198.947 64.2194 198.947 63.959C198.947 63.6953 198.911 63.4674 198.84 63.2754C198.768 63.0833 198.654 62.9352 198.498 62.8311C198.342 62.7269 198.137 62.6748 197.883 62.6748H196.726L196.735 61.918H198.298L198.498 62.1914C198.791 62.2207 199.037 62.3184 199.235 62.4844C199.437 62.6471 199.589 62.8555 199.689 63.1094C199.794 63.3633 199.846 63.6432 199.846 63.9492C199.846 64.3919 199.763 64.7663 199.597 65.0723C199.434 65.375 199.203 65.6061 198.903 65.7656C198.604 65.9219 198.252 66 197.849 66ZM202.961 66.0977C202.645 66.0977 202.36 66.0505 202.106 65.9561C201.853 65.8617 201.636 65.7184 201.457 65.5264C201.278 65.3311 201.141 65.0853 201.047 64.7891C200.952 64.4928 200.905 64.1429 200.905 63.7393V63.1436C200.905 62.6781 200.959 62.2842 201.066 61.9619C201.177 61.6396 201.325 61.3809 201.511 61.1855C201.696 60.987 201.906 60.8438 202.141 60.7559C202.375 60.6647 202.616 60.6191 202.863 60.6191C203.195 60.6191 203.479 60.6729 203.713 60.7803C203.947 60.8877 204.138 61.0472 204.284 61.2588C204.431 61.4704 204.538 61.7308 204.606 62.04C204.678 62.3493 204.714 62.7057 204.714 63.1094V63.6123H201.413V62.875H203.85V62.7529C203.837 62.4795 203.799 62.2386 203.737 62.0303C203.679 61.8219 203.581 61.6592 203.444 61.542C203.308 61.4215 203.114 61.3613 202.863 61.3613C202.704 61.3613 202.556 61.389 202.419 61.4443C202.285 61.4964 202.17 61.5892 202.072 61.7227C201.978 61.8529 201.903 62.0335 201.848 62.2646C201.796 62.4958 201.77 62.7887 201.77 63.1436V63.7393C201.77 64.0225 201.796 64.2666 201.848 64.4717C201.903 64.6735 201.983 64.8411 202.087 64.9746C202.194 65.1048 202.325 65.2025 202.478 65.2676C202.634 65.3294 202.811 65.3604 203.01 65.3604C203.299 65.3604 203.539 65.305 203.728 65.1943C203.916 65.0804 204.081 64.9355 204.221 64.7598L204.675 65.3018C204.58 65.4352 204.457 65.5638 204.304 65.6875C204.154 65.8079 203.968 65.9072 203.747 65.9854C203.529 66.0602 203.267 66.0977 202.961 66.0977ZM209.104 65.2578V66H205.905V65.2578H209.104ZM209.006 61.3564L206.101 66H205.573V65.3359L208.459 60.7168H209.006V61.3564ZM208.63 60.7168V61.4639H205.588V60.7168H208.63ZM212.741 65.0967V62.2305C212.741 62.0221 212.709 61.8545 212.644 61.7275C212.582 61.6006 212.487 61.5078 212.36 61.4492C212.237 61.3906 212.08 61.3613 211.892 61.3613C211.709 61.3613 211.551 61.3988 211.418 61.4736C211.288 61.5485 211.187 61.6478 211.115 61.7715C211.047 61.8952 211.013 62.0319 211.013 62.1816H210.148C210.148 61.9928 210.189 61.8057 210.271 61.6201C210.355 61.4346 210.476 61.2669 210.632 61.1172C210.788 60.9642 210.975 60.8438 211.193 60.7559C211.415 60.6647 211.662 60.6191 211.936 60.6191C212.261 60.6191 212.549 60.6729 212.8 60.7803C213.05 60.8844 213.247 61.0553 213.391 61.293C213.534 61.5306 213.605 61.8464 213.605 62.2402V64.8477C213.605 65.0234 213.618 65.2106 213.645 65.4092C213.674 65.6077 213.715 65.7786 213.767 65.9219V66H212.873C212.831 65.8958 212.798 65.7575 212.775 65.585C212.753 65.4092 212.741 65.2464 212.741 65.0967ZM212.878 62.7969L212.888 63.4316H212.287C212.082 63.4316 211.895 63.4544 211.726 63.5C211.56 63.5456 211.416 63.6123 211.296 63.7002C211.175 63.7848 211.083 63.8906 211.018 64.0176C210.956 64.1445 210.925 64.2894 210.925 64.4521C210.925 64.6637 210.954 64.833 211.013 64.96C211.071 65.0837 211.159 65.1732 211.276 65.2285C211.394 65.2839 211.542 65.3115 211.721 65.3115C211.939 65.3115 212.131 65.2611 212.297 65.1602C212.463 65.0592 212.591 64.9372 212.683 64.7939C212.777 64.6507 212.821 64.5173 212.814 64.3936L213.005 64.7988C212.992 64.9258 212.95 65.0641 212.878 65.2139C212.81 65.3604 212.714 65.502 212.59 65.6387C212.466 65.7721 212.32 65.8828 212.15 65.9707C211.984 66.0553 211.797 66.0977 211.589 66.0977C211.283 66.0977 211.014 66.0391 210.783 65.9219C210.555 65.8047 210.378 65.6322 210.251 65.4043C210.124 65.1764 210.061 64.8949 210.061 64.5596C210.061 64.3057 210.104 64.0713 210.192 63.8564C210.28 63.6416 210.41 63.4561 210.583 63.2998C210.756 63.1403 210.972 63.0166 211.232 62.9287C211.496 62.8408 211.8 62.7969 212.146 62.7969H212.878ZM215.812 58.5V66H214.948V58.5H215.812ZM215.603 63.1582L215.251 63.1436C215.248 62.7822 215.288 62.4486 215.373 62.1426C215.461 61.8333 215.585 61.5648 215.744 61.3369C215.907 61.109 216.101 60.9333 216.325 60.8096C216.55 60.6826 216.799 60.6191 217.072 60.6191C217.287 60.6191 217.482 60.6549 217.658 60.7266C217.834 60.7949 217.984 60.9056 218.107 61.0586C218.231 61.2116 218.326 61.4102 218.391 61.6543C218.459 61.8952 218.493 62.1898 218.493 62.5381V66H217.629V62.5283C217.629 62.2516 217.598 62.0303 217.536 61.8643C217.478 61.695 217.386 61.5729 217.263 61.498C217.142 61.4199 216.989 61.3809 216.804 61.3809C216.634 61.3809 216.477 61.4281 216.33 61.5225C216.184 61.6169 216.055 61.7471 215.944 61.9131C215.837 62.0791 215.752 62.2695 215.69 62.4844C215.632 62.696 215.603 62.9206 215.603 63.1582ZM220.71 58.5V66H219.851V58.5H220.71ZM224.748 64.7793V60.7168H225.612V66H224.792L224.748 64.7793ZM224.909 63.666L225.251 63.6562C225.251 64.0078 225.22 64.3333 225.158 64.6328C225.1 64.929 225.002 65.1862 224.865 65.4043C224.732 65.6224 224.554 65.7933 224.333 65.917C224.112 66.0374 223.84 66.0977 223.518 66.0977C223.299 66.0977 223.101 66.0602 222.922 65.9854C222.746 65.9105 222.593 65.7949 222.463 65.6387C222.336 65.4824 222.237 65.279 222.165 65.0283C222.097 64.7777 222.062 64.4766 222.062 64.125V60.7168H222.922V64.1348C222.922 64.3724 222.943 64.5693 222.985 64.7256C223.028 64.8786 223.085 65.0007 223.156 65.0918C223.228 65.1797 223.308 65.2415 223.396 65.2773C223.483 65.3132 223.573 65.3311 223.664 65.3311C223.97 65.3311 224.214 65.2578 224.396 65.1113C224.579 64.9616 224.709 64.7614 224.787 64.5107C224.868 64.2568 224.909 63.9753 224.909 63.666ZM227.775 61.8447V66H226.911V60.7168H227.727L227.775 61.8447ZM227.565 63.1582L227.214 63.1436C227.211 62.7822 227.251 62.4486 227.336 62.1426C227.424 61.8333 227.548 61.5648 227.707 61.3369C227.87 61.109 228.063 60.9333 228.288 60.8096C228.513 60.6826 228.762 60.6191 229.035 60.6191C229.25 60.6191 229.445 60.6549 229.621 60.7266C229.797 60.7949 229.947 60.9056 230.07 61.0586C230.194 61.2116 230.288 61.4102 230.354 61.6543C230.422 61.8952 230.456 62.1898 230.456 62.5381V66H229.592V62.5283C229.592 62.2516 229.561 62.0303 229.499 61.8643C229.44 61.695 229.349 61.5729 229.226 61.498C229.105 61.4199 228.952 61.3809 228.767 61.3809C228.597 61.3809 228.439 61.4281 228.293 61.5225C228.146 61.6169 228.018 61.7471 227.907 61.9131C227.8 62.0791 227.715 62.2695 227.653 62.4844C227.595 62.696 227.565 62.9206 227.565 63.1582ZM234.616 60.7168H235.393V66.0439C235.393 66.5094 235.311 66.8936 235.148 67.1963C234.989 67.499 234.766 67.722 234.479 67.8652C234.193 68.0117 233.863 68.085 233.488 68.085C233.355 68.085 233.187 68.0605 232.985 68.0117C232.784 67.9629 232.582 67.888 232.38 67.7871C232.178 67.6895 232.012 67.5658 231.882 67.416L232.238 66.8154C232.424 67.0042 232.621 67.1393 232.829 67.2207C233.037 67.3021 233.236 67.3428 233.425 67.3428C233.649 67.3428 233.845 67.3021 234.011 67.2207C234.177 67.1393 234.305 67.0059 234.396 66.8203C234.488 66.638 234.533 66.3939 234.533 66.0879V61.8789L234.616 60.7168ZM231.579 63.6123V63.1191C231.579 62.6829 231.62 62.3086 231.701 61.9961C231.783 61.6803 231.9 61.4215 232.053 61.2197C232.209 61.0146 232.396 60.8633 232.614 60.7656C232.832 60.668 233.076 60.6191 233.347 60.6191C233.62 60.6191 233.856 60.6745 234.055 60.7852C234.253 60.8958 234.418 61.057 234.548 61.2686C234.681 61.4769 234.785 61.7308 234.86 62.0303C234.938 62.3265 234.992 62.6618 235.021 63.0361V63.6953C234.992 64.0664 234.938 64.4001 234.86 64.6963C234.785 64.9925 234.68 65.2448 234.543 65.4531C234.41 65.6615 234.243 65.821 234.045 65.9316C233.846 66.0423 233.61 66.0977 233.337 66.0977C233.07 66.0977 232.829 66.0472 232.614 65.9463C232.399 65.8421 232.214 65.6875 232.058 65.4824C231.905 65.2741 231.786 65.0153 231.701 64.7061C231.62 64.3936 231.579 64.029 231.579 63.6123ZM232.443 63.1191V63.6123C232.443 63.9053 232.465 64.1608 232.507 64.3789C232.549 64.5938 232.614 64.7728 232.702 64.916C232.793 65.056 232.909 65.1602 233.049 65.2285C233.192 65.2969 233.363 65.3311 233.562 65.3311C233.802 65.3311 233.999 65.2725 234.152 65.1553C234.305 65.0381 234.427 64.8835 234.519 64.6914C234.613 64.4961 234.688 64.2861 234.743 64.0615V62.6748C234.711 62.5088 234.663 62.3493 234.602 62.1963C234.543 62.04 234.466 61.9017 234.372 61.7812C234.278 61.6576 234.164 61.5599 234.03 61.4883C233.9 61.4167 233.747 61.3809 233.571 61.3809C233.373 61.3809 233.202 61.4167 233.059 61.4883C232.915 61.5599 232.798 61.6673 232.707 61.8105C232.616 61.9538 232.549 62.1344 232.507 62.3525C232.465 62.5706 232.443 62.8262 232.443 63.1191Z" fill="#E0E0E9"/>
<path fill-rule="evenodd" clip-rule="evenodd" d="M205 16L138 16V14L205 14V16Z" fill="#D0CFD7"/>
<path fill-rule="evenodd" clip-rule="evenodd" d="M112 16L45 16V14L112 14V16Z" fill="#D0CFD7"/>
<path fill-rule="evenodd" clip-rule="evenodd" d="M19.7612 6.17317C19 8.01088 19 10.3406 19 15C19 19.6594 19 21.9891 19.7612 23.8268C20.7761 26.2771 22.7229 28.2239 25.1732 29.2388C27.0109 30 29.3406 30 34 30C38.6594 30 40.9891 30 42.8268 29.2388C45.2771 28.2239 47.2239 26.2771 48.2388 23.8268C49 21.9891 49 19.6594 49 15C49 10.3406 49 8.01088 48.2388 6.17317C47.2239 3.72288 45.2771 1.77614 42.8268 0.761205C40.9891 0 38.6594 0 34 0C29.3406 0 27.0109 0 25.1732 0.761205C22.7229 1.77614 20.7761 3.72288 19.7612 6.17317ZM40.7071 11.7071C41.0976 11.3166 41.0976 10.6834 40.7071 10.2929C40.3166 9.90237 39.6834 9.90237 39.2929 10.2929L32 17.5858L28.7071 14.2929C28.3166 13.9024 27.6834 13.9024 27.2929 14.2929C26.9024 14.6834 26.9024 15.3166 27.2929 15.7071L31.2929 19.7071C31.4804 19.8946 31.7348 20 32 20C32.2652 20 32.5196 19.8946 32.7071 19.7071L40.7071 11.7071Z" fill="url(#paint1_linear_363_2817)"/>
<path fill-rule="evenodd" clip-rule="evenodd" d="M201.761 6.17317C201 8.01088 201 10.3406 201 15C201 19.6594 201 21.9891 201.761 23.8268C202.776 26.2771 204.723 28.2239 207.173 29.2388C209.011 30 211.341 30 216 30C220.659 30 222.989 30 224.827 29.2388C227.277 28.2239 229.224 26.2771 230.239 23.8268C231 21.9891 231 19.6594 231 15C231 10.3406 231 8.01088 230.239 6.17317C229.224 3.72288 227.277 1.77614 224.827 0.761205C222.989 0 220.659 0 216 0C211.341 0 209.011 0 207.173 0.761205C204.723 1.77614 202.776 3.72288 201.761 6.17317ZM222.707 11.7071C223.098 11.3166 223.098 10.6834 222.707 10.2929C222.317 9.90237 221.683 9.90237 221.293 10.2929L214 17.5858L210.707 14.2929C210.317 13.9024 209.683 13.9024 209.293 14.2929C208.902 14.6834 208.902 15.3166 209.293 15.7071L213.293 19.7071C213.48 19.8946 213.735 20 214 20C214.265 20 214.52 19.8946 214.707 19.7071L222.707 11.7071Z" fill="#D0CFD7"/>
<path fill-rule="evenodd" clip-rule="evenodd" d="M110.761 6.17317C110 8.01088 110 10.3406 110 15C110 19.6594 110 21.9891 110.761 23.8268C111.776 26.2771 113.723 28.2239 116.173 29.2388C118.011 30 120.341 30 125 30C129.659 30 131.989 30 133.827 29.2388C136.277 28.2239 138.224 26.2771 139.239 23.8268C140 21.9891 140 19.6594 140 15C140 10.3406 140 8.01088 139.239 6.17317C138.224 3.72288 136.277 1.77614 133.827 0.761205C131.989 0 129.659 0 125 0C120.341 0 118.011 0 116.173 0.761205C113.723 1.77614 111.776 3.72288 110.761 6.17317ZM131.707 11.7071C132.098 11.3166 132.098 10.6834 131.707 10.2929C131.317 9.90237 130.683 9.90237 130.293 10.2929L123 17.5858L119.707 14.2929C119.317 13.9024 118.683 13.9024 118.293 14.2929C117.902 14.6834 117.902 15.3166 118.293 15.7071L122.293 19.7071C122.48 19.8946 122.735 20 123 20C123.265 20 123.52 19.8946 123.707 19.7071L131.707 11.7071Z" fill="#D0CFD7"/>
<defs>
<linearGradient id="paint0_linear_363_2817" x1="33.5" y1="46" x2="33.5" y2="35" gradientUnits="userSpaceOnUse">
<stop stop-color="#5CCC94"/>
<stop offset="1" stop-color="#8CCAAE"/>
</linearGradient>
<linearGradient id="paint1_linear_363_2817" x1="34" y1="30" x2="34" y2="1.58545e-07" gradientUnits="userSpaceOnUse">
<stop stop-color="#5CCC94"/>
<stop offset="1" stop-color="#8CCAAE"/>
</linearGradient>
</defs>
</svg>
