<svg width="240" height="69" viewBox="0 0 240 69" fill="none" xmlns="http://www.w3.org/2000/svg">
<path d="M9.66992 36.8906L9.66992 44H8.77148L8.77148 36.8906H9.66992ZM13.2441 36.8906L10.7979 40.2061L9.36719 41.9297L9.20605 40.9238L10.2559 39.5469L12.1699 36.8906H13.2441ZM12.3506 44L10.2559 40.5332L10.7881 39.7861L13.4199 44H12.3506ZM15.876 44.0977C15.5602 44.0977 15.2754 44.0505 15.0215 43.9561C14.7676 43.8617 14.5511 43.7184 14.3721 43.5264C14.193 43.3311 14.0563 43.0853 13.9619 42.7891C13.8675 42.4928 13.8203 42.1429 13.8203 41.7393V41.1436C13.8203 40.6781 13.874 40.2842 13.9814 39.9619C14.0921 39.6396 14.2402 39.3809 14.4258 39.1855C14.6113 38.987 14.8213 38.8438 15.0557 38.7559C15.29 38.6647 15.5309 38.6191 15.7783 38.6191C16.1104 38.6191 16.3936 38.6729 16.6279 38.7803C16.8623 38.8877 17.0527 39.0472 17.1992 39.2588C17.3457 39.4704 17.4531 39.7308 17.5215 40.04C17.5931 40.3493 17.6289 40.7057 17.6289 41.1094V41.6123H14.3281V40.875H16.7646V40.7529C16.7516 40.4795 16.7142 40.2386 16.6523 40.0303C16.5938 39.8219 16.4961 39.6592 16.3594 39.542C16.2227 39.4215 16.029 39.3613 15.7783 39.3613C15.6188 39.3613 15.4707 39.389 15.334 39.4443C15.2005 39.4964 15.085 39.5892 14.9873 39.7227C14.8929 39.8529 14.818 40.0335 14.7627 40.2646C14.7106 40.4958 14.6846 40.7887 14.6846 41.1436V41.7393C14.6846 42.0225 14.7106 42.2666 14.7627 42.4717C14.818 42.6735 14.8978 42.8411 15.002 42.9746C15.1094 43.1048 15.2396 43.2025 15.3926 43.2676C15.5488 43.3294 15.7262 43.3604 15.9248 43.3604C16.2145 43.3604 16.4538 43.305 16.6426 43.1943C16.8314 43.0804 16.9958 42.9355 17.1357 42.7598L17.5898 43.3018C17.4954 43.4352 17.3717 43.5638 17.2188 43.6875C17.069 43.8079 16.8835 43.9072 16.6621 43.9854C16.444 44.0602 16.182 44.0977 15.876 44.0977ZM19.5381 39.8447V44H18.6738V38.7168H19.4893L19.5381 39.8447ZM19.3281 41.1582L18.9766 41.1436C18.9733 40.7822 19.014 40.4486 19.0986 40.1426C19.1865 39.8333 19.3102 39.5648 19.4697 39.3369C19.6325 39.109 19.8262 38.9333 20.0508 38.8096C20.2754 38.6826 20.5244 38.6191 20.7979 38.6191C21.0127 38.6191 21.208 38.6549 21.3838 38.7266C21.5596 38.7949 21.7093 38.9056 21.833 39.0586C21.9567 39.2116 22.0511 39.4102 22.1162 39.6543C22.1846 39.8952 22.2188 40.1898 22.2188 40.5381V44H21.3545V40.5283C21.3545 40.2516 21.3236 40.0303 21.2617 39.8643C21.2031 39.695 21.112 39.5729 20.9883 39.498C20.8678 39.4199 20.7148 39.3809 20.5293 39.3809C20.36 39.3809 20.2021 39.4281 20.0557 39.5225C19.9092 39.6169 19.7806 39.7471 19.6699 39.9131C19.5625 40.0791 19.4779 40.2695 19.416 40.4844C19.3574 40.696 19.3281 40.9206 19.3281 41.1582ZM24.3818 39.8447V44H23.5176V38.7168H24.333L24.3818 39.8447ZM24.1719 41.1582L23.8203 41.1436C23.8171 40.7822 23.8577 40.4486 23.9424 40.1426C24.0303 39.8333 24.154 39.5648 24.3135 39.3369C24.4762 39.109 24.6699 38.9333 24.8945 38.8096C25.1191 38.6826 25.3682 38.6191 25.6416 38.6191C25.8564 38.6191 26.0518 38.6549 26.2275 38.7266C26.4033 38.7949 26.5531 38.9056 26.6768 39.0586C26.8005 39.2116 26.8949 39.4102 26.96 39.6543C27.0283 39.8952 27.0625 40.1898 27.0625 40.5381V44H26.1982V40.5283C26.1982 40.2516 26.1673 40.0303 26.1055 39.8643C26.0469 39.695 25.9557 39.5729 25.832 39.498C25.7116 39.4199 25.5586 39.3809 25.373 39.3809C25.2038 39.3809 25.0459 39.4281 24.8994 39.5225C24.7529 39.6169 24.6243 39.7471 24.5137 39.9131C24.4062 40.0791 24.3216 40.2695 24.2598 40.4844C24.2012 40.696 24.1719 40.9206 24.1719 41.1582ZM31.7061 43.2578V44H28.5078V43.2578H31.7061ZM31.6084 39.3564L28.7031 44H28.1758V43.3359L31.0615 38.7168H31.6084V39.3564ZM31.2324 38.7168V39.4639H28.1904V38.7168H31.2324ZM34.5674 44.0977C34.2516 44.0977 33.9668 44.0505 33.7129 43.9561C33.459 43.8617 33.2425 43.7184 33.0635 43.5264C32.8844 43.3311 32.7477 43.0853 32.6533 42.7891C32.5589 42.4928 32.5117 42.1429 32.5117 41.7393V41.1436C32.5117 40.6781 32.5654 40.2842 32.6729 39.9619C32.7835 39.6396 32.9316 39.3809 33.1172 39.1855C33.3027 38.987 33.5127 38.8437 33.7471 38.7559C33.9814 38.6647 34.2223 38.6191 34.4697 38.6191C34.8018 38.6191 35.085 38.6729 35.3193 38.7803C35.5537 38.8877 35.7441 39.0472 35.8906 39.2588C36.0371 39.4704 36.1445 39.7308 36.2129 40.04C36.2845 40.3493 36.3203 40.7057 36.3203 41.1094V41.6123H33.0195V40.875H35.4561V40.7529C35.443 40.4795 35.4056 40.2386 35.3438 40.0303C35.2852 39.8219 35.1875 39.6592 35.0508 39.542C34.9141 39.4215 34.7204 39.3613 34.4697 39.3613C34.3102 39.3613 34.1621 39.389 34.0254 39.4443C33.8919 39.4964 33.7764 39.5892 33.6787 39.7227C33.5843 39.8529 33.5094 40.0335 33.4541 40.2646C33.402 40.4958 33.376 40.7887 33.376 41.1436V41.7393C33.376 42.0225 33.402 42.2666 33.4541 42.4717C33.5094 42.6735 33.5892 42.8411 33.6934 42.9746C33.8008 43.1048 33.931 43.2025 34.084 43.2676C34.2402 43.3294 34.4176 43.3604 34.6162 43.3604C34.9059 43.3604 35.1452 43.305 35.334 43.1943C35.5228 43.0804 35.6872 42.9355 35.8271 42.7598L36.2812 43.3018C36.1868 43.4352 36.0632 43.5638 35.9102 43.6875C35.7604 43.8079 35.5749 43.9072 35.3535 43.9854C35.1354 44.0602 34.8734 44.0977 34.5674 44.0977ZM38.293 38.7168V44H37.4336V38.7168H38.293ZM37.3848 37.3154C37.3848 37.1689 37.4255 37.0452 37.5068 36.9443C37.5882 36.8434 37.7103 36.793 37.873 36.793C38.0358 36.793 38.1579 36.8434 38.2393 36.9443C38.3239 37.0452 38.3662 37.1689 38.3662 37.3154C38.3662 37.4554 38.3239 37.5758 38.2393 37.6768C38.1579 37.7744 38.0358 37.8232 37.873 37.8232C37.7103 37.8232 37.5882 37.7744 37.5068 37.6768C37.4255 37.5758 37.3848 37.4554 37.3848 37.3154ZM41.4912 43.3604C41.6637 43.3604 41.82 43.3262 41.96 43.2578C42.1032 43.1862 42.2204 43.0755 42.3115 42.9258C42.4027 42.7728 42.4548 42.5742 42.4678 42.3301H43.2783C43.2653 42.6816 43.1758 42.9909 43.0098 43.2578C42.847 43.5215 42.6322 43.7282 42.3652 43.8779C42.1016 44.0244 41.8102 44.0977 41.4912 44.0977C41.1494 44.0977 40.8516 44.0423 40.5977 43.9316C40.347 43.821 40.1387 43.6615 39.9727 43.4531C39.8099 43.2415 39.6878 42.986 39.6064 42.6865C39.5251 42.3838 39.4844 42.0404 39.4844 41.6562V41.0605C39.4844 40.6764 39.5251 40.3346 39.6064 40.0352C39.6878 39.7324 39.8099 39.4769 39.9727 39.2686C40.1387 39.057 40.347 38.8958 40.5977 38.7852C40.8516 38.6745 41.1494 38.6191 41.4912 38.6191C41.8493 38.6191 42.1585 38.6956 42.4189 38.8486C42.6826 38.9984 42.8877 39.2165 43.0342 39.5029C43.1839 39.7861 43.2653 40.1296 43.2783 40.5332H42.4678C42.4548 40.2728 42.4076 40.0563 42.3262 39.8838C42.2448 39.708 42.1341 39.5778 41.9941 39.4932C41.8542 39.4053 41.6865 39.3613 41.4912 39.3613C41.2633 39.3613 41.0745 39.402 40.9248 39.4834C40.7783 39.5615 40.6628 39.6755 40.5781 39.8252C40.4935 39.9749 40.4333 40.154 40.3975 40.3623C40.3649 40.5706 40.3486 40.8034 40.3486 41.0605V41.6562C40.3486 41.9134 40.3649 42.1478 40.3975 42.3594C40.4333 42.5677 40.4919 42.7467 40.5732 42.8965C40.6579 43.0462 40.7751 43.1618 40.9248 43.2432C41.0745 43.3213 41.2633 43.3604 41.4912 43.3604ZM45.1436 36.5V44H44.2793V36.5H45.1436ZM44.9336 41.1582L44.582 41.1436C44.5788 40.7822 44.6195 40.4486 44.7041 40.1426C44.792 39.8333 44.9157 39.5648 45.0752 39.3369C45.238 39.109 45.4316 38.9333 45.6562 38.8096C45.8809 38.6826 46.1299 38.6191 46.4033 38.6191C46.6182 38.6191 46.8135 38.6549 46.9893 38.7266C47.165 38.7949 47.3148 38.9056 47.4385 39.0586C47.5622 39.2116 47.6566 39.4102 47.7217 39.6543C47.79 39.8952 47.8242 40.1898 47.8242 40.5381V44H46.96V40.5283C46.96 40.2516 46.929 40.0303 46.8672 39.8643C46.8086 39.695 46.7174 39.5729 46.5938 39.498C46.4733 39.4199 46.3203 39.3809 46.1348 39.3809C45.9655 39.3809 45.8076 39.4281 45.6611 39.5225C45.5146 39.6169 45.3861 39.7471 45.2754 39.9131C45.168 40.0791 45.0833 40.2695 45.0215 40.4844C44.9629 40.696 44.9336 40.9206 44.9336 41.1582ZM51.0029 44.0977C50.6872 44.0977 50.4023 44.0505 50.1484 43.9561C49.8945 43.8617 49.6781 43.7184 49.499 43.5264C49.32 43.3311 49.1833 43.0853 49.0889 42.7891C48.9945 42.4928 48.9473 42.1429 48.9473 41.7393V41.1436C48.9473 40.6781 49.001 40.2842 49.1084 39.9619C49.2191 39.6396 49.3672 39.3809 49.5527 39.1855C49.7383 38.987 49.9482 38.8437 50.1826 38.7559C50.417 38.6647 50.6579 38.6191 50.9053 38.6191C51.2373 38.6191 51.5205 38.6729 51.7549 38.7803C51.9893 38.8877 52.1797 39.0472 52.3262 39.2588C52.4727 39.4704 52.5801 39.7308 52.6484 40.04C52.7201 40.3493 52.7559 40.7057 52.7559 41.1094V41.6123H49.4551V40.875H51.8916V40.7529C51.8786 40.4795 51.8411 40.2386 51.7793 40.0303C51.7207 39.8219 51.623 39.6592 51.4863 39.542C51.3496 39.4215 51.1559 39.3613 50.9053 39.3613C50.7458 39.3613 50.5977 39.389 50.4609 39.4443C50.3275 39.4964 50.2119 39.5892 50.1143 39.7227C50.0199 39.8529 49.945 40.0335 49.8896 40.2646C49.8376 40.4958 49.8115 40.7887 49.8115 41.1436V41.7393C49.8115 42.0225 49.8376 42.2666 49.8896 42.4717C49.945 42.6735 50.0247 42.8411 50.1289 42.9746C50.2363 43.1048 50.3665 43.2025 50.5195 43.2676C50.6758 43.3294 50.8532 43.3604 51.0518 43.3604C51.3415 43.3604 51.5807 43.305 51.7695 43.1943C51.9583 43.0804 52.1227 42.9355 52.2627 42.7598L52.7168 43.3018C52.6224 43.4352 52.4987 43.5638 52.3457 43.6875C52.196 43.8079 52.0104 43.9072 51.7891 43.9854C51.571 44.0602 51.3089 44.0977 51.0029 44.0977ZM54.665 39.8447V44H53.8008V38.7168H54.6162L54.665 39.8447ZM54.4551 41.1582L54.1035 41.1436C54.1003 40.7822 54.141 40.4486 54.2256 40.1426C54.3135 39.8333 54.4372 39.5648 54.5967 39.3369C54.7594 39.109 54.9531 38.9333 55.1777 38.8096C55.4023 38.6826 55.6514 38.6191 55.9248 38.6191C56.1396 38.6191 56.335 38.6549 56.5107 38.7266C56.6865 38.7949 56.8363 38.9056 56.96 39.0586C57.0837 39.2116 57.1781 39.4102 57.2432 39.6543C57.3115 39.8952 57.3457 40.1898 57.3457 40.5381V44H56.4814V40.5283C56.4814 40.2516 56.4505 40.0303 56.3887 39.8643C56.3301 39.695 56.2389 39.5729 56.1152 39.498C55.9948 39.4199 55.8418 39.3809 55.6562 39.3809C55.487 39.3809 55.3291 39.4281 55.1826 39.5225C55.0361 39.6169 54.9076 39.7471 54.7969 39.9131C54.6895 40.0791 54.6048 40.2695 54.543 40.4844C54.4844 40.696 54.4551 40.9206 54.4551 41.1582Z" fill="url(#paint0_linear_363_2833)"/>
<path d="M87.835 40.8906H89.8223C90.2845 40.8906 90.6719 40.972 90.9844 41.1348C91.3001 41.2975 91.5378 41.5384 91.6973 41.8574C91.86 42.1732 91.9414 42.5622 91.9414 43.0244C91.9414 43.3499 91.8877 43.6478 91.7803 43.918C91.6729 44.1849 91.5166 44.4128 91.3115 44.6016C91.1064 44.7871 90.8574 44.9255 90.5645 45.0166L90.3203 45.1191H88.5479L88.5381 44.3525H89.8125C90.0859 44.3525 90.3138 44.2939 90.4961 44.1768C90.6784 44.0563 90.8151 43.8952 90.9062 43.6934C90.9974 43.4915 91.043 43.2686 91.043 43.0244C91.043 42.751 91.0023 42.5117 90.9209 42.3066C90.8395 42.1016 90.7093 41.9437 90.5303 41.833C90.3545 41.7191 90.1185 41.6621 89.8223 41.6621H88.7334V48H87.835V40.8906ZM91.248 48L89.832 44.7773L90.7646 44.7725L92.21 47.9414V48H91.248ZM94.915 48.0977C94.5993 48.0977 94.3145 48.0505 94.0605 47.9561C93.8066 47.8617 93.5902 47.7184 93.4111 47.5264C93.2321 47.3311 93.0954 47.0853 93.001 46.7891C92.9066 46.4928 92.8594 46.1429 92.8594 45.7393V45.1436C92.8594 44.6781 92.9131 44.2842 93.0205 43.9619C93.1312 43.6396 93.2793 43.3809 93.4648 43.1855C93.6504 42.987 93.8604 42.8438 94.0947 42.7559C94.3291 42.6647 94.57 42.6191 94.8174 42.6191C95.1494 42.6191 95.4326 42.6729 95.667 42.7803C95.9014 42.8877 96.0918 43.0472 96.2383 43.2588C96.3848 43.4704 96.4922 43.7308 96.5605 44.04C96.6322 44.3493 96.668 44.7057 96.668 45.1094V45.6123H93.3672V44.875H95.8037V44.7529C95.7907 44.4795 95.7533 44.2386 95.6914 44.0303C95.6328 43.8219 95.5352 43.6592 95.3984 43.542C95.2617 43.4215 95.068 43.3613 94.8174 43.3613C94.6579 43.3613 94.5098 43.389 94.373 43.4443C94.2396 43.4964 94.124 43.5892 94.0264 43.7227C93.932 43.8529 93.8571 44.0335 93.8018 44.2646C93.7497 44.4958 93.7236 44.7887 93.7236 45.1436V45.7393C93.7236 46.0225 93.7497 46.2666 93.8018 46.4717C93.8571 46.6735 93.9368 46.8411 94.041 46.9746C94.1484 47.1048 94.2786 47.2025 94.4316 47.2676C94.5879 47.3294 94.7653 47.3604 94.9639 47.3604C95.2536 47.3604 95.4928 47.305 95.6816 47.1943C95.8704 47.0804 96.0348 46.9355 96.1748 46.7598L96.6289 47.3018C96.5345 47.4352 96.4108 47.5638 96.2578 47.6875C96.1081 47.8079 95.9225 47.9072 95.7012 47.9854C95.4831 48.0602 95.221 48.0977 94.915 48.0977ZM99.5439 47.3604C99.7165 47.3604 99.8727 47.3262 100.013 47.2578C100.156 47.1862 100.273 47.0755 100.364 46.9258C100.455 46.7728 100.507 46.5742 100.521 46.3301H101.331C101.318 46.6816 101.229 46.9909 101.062 47.2578C100.9 47.5215 100.685 47.7282 100.418 47.8779C100.154 48.0244 99.863 48.0977 99.5439 48.0977C99.2021 48.0977 98.9043 48.0423 98.6504 47.9316C98.3997 47.821 98.1914 47.6615 98.0254 47.4531C97.8626 47.2415 97.7406 46.986 97.6592 46.6865C97.5778 46.3838 97.5371 46.0404 97.5371 45.6562V45.0605C97.5371 44.6764 97.5778 44.3346 97.6592 44.0352C97.7406 43.7324 97.8626 43.4769 98.0254 43.2686C98.1914 43.057 98.3997 42.8958 98.6504 42.7852C98.9043 42.6745 99.2021 42.6191 99.5439 42.6191C99.902 42.6191 100.211 42.6956 100.472 42.8486C100.735 42.9984 100.94 43.2165 101.087 43.5029C101.237 43.7861 101.318 44.1296 101.331 44.5332H100.521C100.507 44.2728 100.46 44.0563 100.379 43.8838C100.298 43.708 100.187 43.5778 100.047 43.4932C99.9069 43.4053 99.7393 43.3613 99.5439 43.3613C99.3161 43.3613 99.1273 43.402 98.9775 43.4834C98.8311 43.5615 98.7155 43.6755 98.6309 43.8252C98.5462 43.9749 98.486 44.154 98.4502 44.3623C98.4176 44.5706 98.4014 44.8034 98.4014 45.0605V45.6562C98.4014 45.9134 98.4176 46.1478 98.4502 46.3594C98.486 46.5677 98.5446 46.7467 98.626 46.8965C98.7106 47.0462 98.8278 47.1618 98.9775 47.2432C99.1273 47.3213 99.3161 47.3604 99.5439 47.3604ZM103.196 40.5V48H102.332V40.5H103.196ZM102.986 45.1582L102.635 45.1436C102.632 44.7822 102.672 44.4486 102.757 44.1426C102.845 43.8333 102.968 43.5648 103.128 43.3369C103.291 43.109 103.484 42.9333 103.709 42.8096C103.934 42.6826 104.183 42.6191 104.456 42.6191C104.671 42.6191 104.866 42.6549 105.042 42.7266C105.218 42.7949 105.368 42.9056 105.491 43.0586C105.615 43.2116 105.709 43.4102 105.774 43.6543C105.843 43.8952 105.877 44.1898 105.877 44.5381V48H105.013V44.5283C105.013 44.2516 104.982 44.0303 104.92 43.8643C104.861 43.695 104.77 43.5729 104.646 43.498C104.526 43.4199 104.373 43.3809 104.188 43.3809C104.018 43.3809 103.86 43.4281 103.714 43.5225C103.567 43.6169 103.439 43.7471 103.328 43.9131C103.221 44.0791 103.136 44.2695 103.074 44.4844C103.016 44.696 102.986 44.9206 102.986 45.1582ZM108.03 43.8447V48H107.166V42.7168H107.981L108.03 43.8447ZM107.82 45.1582L107.469 45.1436C107.465 44.7822 107.506 44.4486 107.591 44.1426C107.679 43.8333 107.802 43.5648 107.962 43.3369C108.125 43.109 108.318 42.9333 108.543 42.8096C108.768 42.6826 109.017 42.6191 109.29 42.6191C109.505 42.6191 109.7 42.6549 109.876 42.7266C110.052 42.7949 110.201 42.9056 110.325 43.0586C110.449 43.2116 110.543 43.4102 110.608 43.6543C110.677 43.8952 110.711 44.1898 110.711 44.5381V48H109.847V44.5283C109.847 44.2516 109.816 44.0303 109.754 43.8643C109.695 43.695 109.604 43.5729 109.48 43.498C109.36 43.4199 109.207 43.3809 109.021 43.3809C108.852 43.3809 108.694 43.4281 108.548 43.5225C108.401 43.6169 108.273 43.7471 108.162 43.9131C108.055 44.0791 107.97 44.2695 107.908 44.4844C107.85 44.696 107.82 44.9206 107.82 45.1582ZM114.681 46.7793V42.7168H115.545V48H114.725L114.681 46.7793ZM114.842 45.666L115.184 45.6562C115.184 46.0078 115.153 46.3333 115.091 46.6328C115.032 46.929 114.935 47.1862 114.798 47.4043C114.664 47.6224 114.487 47.7933 114.266 47.917C114.044 48.0374 113.772 48.0977 113.45 48.0977C113.232 48.0977 113.034 48.0602 112.854 47.9854C112.679 47.9105 112.526 47.7949 112.396 47.6387C112.269 47.4824 112.169 47.279 112.098 47.0283C112.029 46.7777 111.995 46.4766 111.995 46.125V42.7168H112.854V46.1348C112.854 46.3724 112.876 46.5693 112.918 46.7256C112.96 46.8786 113.017 47.0007 113.089 47.0918C113.16 47.1797 113.24 47.2415 113.328 47.2773C113.416 47.3132 113.506 47.3311 113.597 47.3311C113.903 47.3311 114.147 47.2578 114.329 47.1113C114.511 46.9616 114.642 46.7614 114.72 46.5107C114.801 46.2568 114.842 45.9753 114.842 45.666ZM117.708 43.8447V48H116.844V42.7168H117.659L117.708 43.8447ZM117.498 45.1582L117.146 45.1436C117.143 44.7822 117.184 44.4486 117.269 44.1426C117.356 43.8333 117.48 43.5648 117.64 43.3369C117.802 43.109 117.996 42.9333 118.221 42.8096C118.445 42.6826 118.694 42.6191 118.968 42.6191C119.183 42.6191 119.378 42.6549 119.554 42.7266C119.729 42.7949 119.879 42.9056 120.003 43.0586C120.127 43.2116 120.221 43.4102 120.286 43.6543C120.354 43.8952 120.389 44.1898 120.389 44.5381V48H119.524V44.5283C119.524 44.2516 119.493 44.0303 119.432 43.8643C119.373 43.695 119.282 43.5729 119.158 43.498C119.038 43.4199 118.885 43.3809 118.699 43.3809C118.53 43.3809 118.372 43.4281 118.226 43.5225C118.079 43.6169 117.951 43.7471 117.84 43.9131C117.732 44.0791 117.648 44.2695 117.586 44.4844C117.527 44.696 117.498 44.9206 117.498 45.1582ZM124.549 42.7168H125.325V48.0439C125.325 48.5094 125.244 48.8936 125.081 49.1963C124.922 49.499 124.699 49.722 124.412 49.8652C124.126 50.0117 123.795 50.085 123.421 50.085C123.287 50.085 123.12 50.0605 122.918 50.0117C122.716 49.9629 122.514 49.888 122.312 49.7871C122.111 49.6895 121.945 49.5658 121.814 49.416L122.171 48.8154C122.356 49.0042 122.553 49.1393 122.762 49.2207C122.97 49.3021 123.169 49.3428 123.357 49.3428C123.582 49.3428 123.777 49.3021 123.943 49.2207C124.109 49.1393 124.238 49.0059 124.329 48.8203C124.42 48.638 124.466 48.3939 124.466 48.0879V43.8789L124.549 42.7168ZM121.512 45.6123V45.1191C121.512 44.6829 121.552 44.3086 121.634 43.9961C121.715 43.6803 121.832 43.4215 121.985 43.2197C122.142 43.0146 122.329 42.8633 122.547 42.7656C122.765 42.668 123.009 42.6191 123.279 42.6191C123.553 42.6191 123.789 42.6745 123.987 42.7852C124.186 42.8958 124.35 43.057 124.48 43.2686C124.614 43.4769 124.718 43.7308 124.793 44.0303C124.871 44.3265 124.925 44.6618 124.954 45.0361V45.6953C124.925 46.0664 124.871 46.4001 124.793 46.6963C124.718 46.9925 124.612 47.2448 124.476 47.4531C124.342 47.6615 124.176 47.821 123.978 47.9316C123.779 48.0423 123.543 48.0977 123.27 48.0977C123.003 48.0977 122.762 48.0472 122.547 47.9463C122.332 47.8421 122.146 47.6875 121.99 47.4824C121.837 47.2741 121.718 47.0153 121.634 46.7061C121.552 46.3936 121.512 46.029 121.512 45.6123ZM122.376 45.1191V45.6123C122.376 45.9053 122.397 46.1608 122.439 46.3789C122.482 46.5937 122.547 46.7728 122.635 46.916C122.726 47.056 122.841 47.1602 122.981 47.2285C123.125 47.2969 123.296 47.3311 123.494 47.3311C123.735 47.3311 123.932 47.2725 124.085 47.1553C124.238 47.0381 124.36 46.8835 124.451 46.6914C124.546 46.4961 124.62 46.2861 124.676 46.0615V44.6748C124.643 44.5088 124.596 44.3493 124.534 44.1963C124.476 44.04 124.399 43.9017 124.305 43.7812C124.21 43.6576 124.096 43.5599 123.963 43.4883C123.833 43.4167 123.68 43.3809 123.504 43.3809C123.305 43.3809 123.134 43.4167 122.991 43.4883C122.848 43.5599 122.731 43.6673 122.64 43.8105C122.549 43.9538 122.482 44.1344 122.439 44.3525C122.397 44.5706 122.376 44.8262 122.376 45.1191ZM129.183 46.6475C129.183 46.514 129.15 46.3968 129.085 46.2959C129.02 46.195 128.912 46.0973 128.763 46.0029C128.616 45.9085 128.418 45.8076 128.167 45.7002C127.923 45.5993 127.703 45.5 127.508 45.4023C127.316 45.3014 127.153 45.1924 127.02 45.0752C126.886 44.958 126.784 44.8229 126.712 44.6699C126.644 44.5137 126.609 44.3298 126.609 44.1182C126.609 43.9066 126.648 43.7113 126.727 43.5322C126.808 43.3499 126.922 43.1904 127.068 43.0537C127.215 42.917 127.391 42.8112 127.596 42.7363C127.801 42.6582 128.03 42.6191 128.284 42.6191C128.646 42.6191 128.953 42.6891 129.207 42.8291C129.461 42.9691 129.655 43.1611 129.788 43.4053C129.925 43.6462 129.993 43.918 129.993 44.2207H129.134C129.134 44.0742 129.101 43.9359 129.036 43.8057C128.971 43.6755 128.875 43.5697 128.748 43.4883C128.621 43.4036 128.466 43.3613 128.284 43.3613C128.092 43.3613 127.936 43.3955 127.815 43.4639C127.695 43.5322 127.607 43.6217 127.552 43.7324C127.5 43.8398 127.474 43.9587 127.474 44.0889C127.474 44.1865 127.487 44.2712 127.513 44.3428C127.542 44.4111 127.591 44.4762 127.659 44.5381C127.728 44.5967 127.82 44.6585 127.938 44.7236C128.058 44.7855 128.211 44.8571 128.396 44.9385C128.755 45.0785 129.056 45.2201 129.3 45.3633C129.544 45.5065 129.729 45.6742 129.856 45.8662C129.983 46.0583 130.047 46.2959 130.047 46.5791C130.047 46.8102 130.005 47.0202 129.92 47.209C129.839 47.3945 129.721 47.554 129.568 47.6875C129.415 47.821 129.231 47.9235 129.017 47.9951C128.805 48.0635 128.567 48.0977 128.304 48.0977C127.907 48.0977 127.57 48.0195 127.293 47.8633C127.02 47.7038 126.811 47.4971 126.668 47.2432C126.528 46.986 126.458 46.7109 126.458 46.418H127.322C127.332 46.6654 127.387 46.8574 127.488 46.9941C127.592 47.1309 127.718 47.2253 127.864 47.2773C128.011 47.3294 128.157 47.3555 128.304 47.3555C128.496 47.3555 128.657 47.3278 128.787 47.2725C128.917 47.2139 129.015 47.1309 129.08 47.0234C129.148 46.916 129.183 46.7907 129.183 46.6475ZM133.743 46.6475C133.743 46.514 133.711 46.3968 133.646 46.2959C133.58 46.195 133.473 46.0973 133.323 46.0029C133.177 45.9085 132.978 45.8076 132.728 45.7002C132.483 45.5993 132.264 45.5 132.068 45.4023C131.876 45.3014 131.714 45.1924 131.58 45.0752C131.447 44.958 131.344 44.8229 131.272 44.6699C131.204 44.5137 131.17 44.3298 131.17 44.1182C131.17 43.9066 131.209 43.7113 131.287 43.5322C131.368 43.3499 131.482 43.1904 131.629 43.0537C131.775 42.917 131.951 42.8112 132.156 42.7363C132.361 42.6582 132.591 42.6191 132.845 42.6191C133.206 42.6191 133.514 42.6891 133.768 42.8291C134.021 42.9691 134.215 43.1611 134.349 43.4053C134.485 43.6462 134.554 43.918 134.554 44.2207H133.694C133.694 44.0742 133.662 43.9359 133.597 43.8057C133.532 43.6755 133.436 43.5697 133.309 43.4883C133.182 43.4036 133.027 43.3613 132.845 43.3613C132.653 43.3613 132.496 43.3955 132.376 43.4639C132.256 43.5322 132.168 43.6217 132.112 43.7324C132.06 43.8398 132.034 43.9587 132.034 44.0889C132.034 44.1865 132.047 44.2712 132.073 44.3428C132.103 44.4111 132.151 44.4762 132.22 44.5381C132.288 44.5967 132.381 44.6585 132.498 44.7236C132.618 44.7855 132.771 44.8571 132.957 44.9385C133.315 45.0785 133.616 45.2201 133.86 45.3633C134.104 45.5065 134.29 45.6742 134.417 45.8662C134.544 46.0583 134.607 46.2959 134.607 46.5791C134.607 46.8102 134.565 47.0202 134.48 47.209C134.399 47.3945 134.282 47.554 134.129 47.6875C133.976 47.821 133.792 47.9235 133.577 47.9951C133.366 48.0635 133.128 48.0977 132.864 48.0977C132.467 48.0977 132.13 48.0195 131.854 47.8633C131.58 47.7038 131.372 47.4971 131.229 47.2432C131.089 46.986 131.019 46.7109 131.019 46.418H131.883C131.893 46.6654 131.948 46.8574 132.049 46.9941C132.153 47.1309 132.278 47.2253 132.425 47.2773C132.571 47.3294 132.718 47.3555 132.864 47.3555C133.056 47.3555 133.217 47.3278 133.348 47.2725C133.478 47.2139 133.576 47.1309 133.641 47.0234C133.709 46.916 133.743 46.7907 133.743 46.6475ZM137.669 42.7168V43.4102H135.203V42.7168H137.669ZM136.009 41.4326H136.873V46.6914C136.873 46.8704 136.894 47.0055 136.937 47.0967C136.982 47.1878 137.039 47.248 137.107 47.2773C137.176 47.3066 137.249 47.3213 137.327 47.3213C137.386 47.3213 137.451 47.3148 137.522 47.3018C137.594 47.2855 137.643 47.2725 137.669 47.2627L137.664 48C137.605 48.0228 137.527 48.0439 137.43 48.0635C137.332 48.0863 137.208 48.0977 137.059 48.0977C136.873 48.0977 136.701 48.0537 136.541 47.9658C136.382 47.8779 136.253 47.7314 136.155 47.5264C136.058 47.318 136.009 47.0381 136.009 46.6865V41.4326ZM140.589 48.0977C140.273 48.0977 139.988 48.0505 139.734 47.9561C139.48 47.8617 139.264 47.7184 139.085 47.5264C138.906 47.3311 138.769 47.0853 138.675 46.7891C138.58 46.4928 138.533 46.1429 138.533 45.7393V45.1436C138.533 44.6781 138.587 44.2842 138.694 43.9619C138.805 43.6396 138.953 43.3809 139.139 43.1855C139.324 42.987 139.534 42.8437 139.769 42.7559C140.003 42.6647 140.244 42.6191 140.491 42.6191C140.823 42.6191 141.106 42.6729 141.341 42.7803C141.575 42.8877 141.766 43.0472 141.912 43.2588C142.059 43.4704 142.166 43.7308 142.234 44.04C142.306 44.3493 142.342 44.7057 142.342 45.1094V45.6123H139.041V44.875H141.478V44.7529C141.465 44.4795 141.427 44.2386 141.365 44.0303C141.307 43.8219 141.209 43.6592 141.072 43.542C140.936 43.4215 140.742 43.3613 140.491 43.3613C140.332 43.3613 140.184 43.389 140.047 43.4443C139.913 43.4964 139.798 43.5892 139.7 43.7227C139.606 43.8529 139.531 44.0335 139.476 44.2646C139.424 44.4958 139.397 44.7887 139.397 45.1436V45.7393C139.397 46.0225 139.424 46.2666 139.476 46.4717C139.531 46.6735 139.611 46.8411 139.715 46.9746C139.822 47.1048 139.952 47.2025 140.105 47.2676C140.262 47.3294 140.439 47.3604 140.638 47.3604C140.927 47.3604 141.167 47.305 141.355 47.1943C141.544 47.0804 141.709 46.9355 141.849 46.7598L142.303 47.3018C142.208 47.4352 142.085 47.5638 141.932 47.6875C141.782 47.8079 141.596 47.9072 141.375 47.9854C141.157 48.0602 140.895 48.0977 140.589 48.0977ZM144.314 40.5V48H143.455V40.5H144.314ZM146.609 40.5V48H145.75V40.5H146.609ZM150.647 46.7793V42.7168H151.512V48H150.691L150.647 46.7793ZM150.809 45.666L151.15 45.6562C151.15 46.0078 151.119 46.3333 151.058 46.6328C150.999 46.929 150.901 47.1862 150.765 47.4043C150.631 47.6224 150.454 47.7933 150.232 47.917C150.011 48.0374 149.739 48.0977 149.417 48.0977C149.199 48.0977 149 48.0602 148.821 47.9854C148.646 47.9105 148.493 47.7949 148.362 47.6387C148.235 47.4824 148.136 47.279 148.064 47.0283C147.996 46.7777 147.962 46.4766 147.962 46.125V42.7168H148.821V46.1348C148.821 46.3724 148.842 46.5693 148.885 46.7256C148.927 46.8786 148.984 47.0007 149.056 47.0918C149.127 47.1797 149.207 47.2415 149.295 47.2773C149.383 47.3132 149.472 47.3311 149.563 47.3311C149.869 47.3311 150.114 47.2578 150.296 47.1113C150.478 46.9616 150.608 46.7614 150.687 46.5107C150.768 46.2568 150.809 45.9753 150.809 45.666ZM153.675 43.8447V48H152.811V42.7168H153.626L153.675 43.8447ZM153.465 45.1582L153.113 45.1436C153.11 44.7822 153.151 44.4486 153.235 44.1426C153.323 43.8333 153.447 43.5648 153.606 43.3369C153.769 43.109 153.963 42.9333 154.188 42.8096C154.412 42.6826 154.661 42.6191 154.935 42.6191C155.149 42.6191 155.345 42.6549 155.521 42.7266C155.696 42.7949 155.846 42.9056 155.97 43.0586C156.093 43.2116 156.188 43.4102 156.253 43.6543C156.321 43.8952 156.355 44.1898 156.355 44.5381V48H155.491V44.5283C155.491 44.2516 155.46 44.0303 155.398 43.8643C155.34 43.695 155.249 43.5729 155.125 43.498C155.005 43.4199 154.852 43.3809 154.666 43.3809C154.497 43.3809 154.339 43.4281 154.192 43.5225C154.046 43.6169 153.917 43.7471 153.807 43.9131C153.699 44.0791 153.615 44.2695 153.553 44.4844C153.494 44.696 153.465 44.9206 153.465 45.1582ZM160.516 42.7168H161.292V48.0439C161.292 48.5094 161.211 48.8936 161.048 49.1963C160.888 49.499 160.665 49.722 160.379 49.8652C160.092 50.0117 159.762 50.085 159.388 50.085C159.254 50.085 159.087 50.0605 158.885 50.0117C158.683 49.9629 158.481 49.888 158.279 49.7871C158.077 49.6895 157.911 49.5658 157.781 49.416L158.138 48.8154C158.323 49.0042 158.52 49.1393 158.729 49.2207C158.937 49.3021 159.135 49.3428 159.324 49.3428C159.549 49.3428 159.744 49.3021 159.91 49.2207C160.076 49.1393 160.205 49.0059 160.296 48.8203C160.387 48.638 160.433 48.3939 160.433 48.0879V43.8789L160.516 42.7168ZM157.479 45.6123V45.1191C157.479 44.6829 157.519 44.3086 157.601 43.9961C157.682 43.6803 157.799 43.4215 157.952 43.2197C158.108 43.0146 158.296 42.8633 158.514 42.7656C158.732 42.668 158.976 42.6191 159.246 42.6191C159.52 42.6191 159.756 42.6745 159.954 42.7852C160.153 42.8958 160.317 43.057 160.447 43.2686C160.581 43.4769 160.685 43.7308 160.76 44.0303C160.838 44.3265 160.892 44.6618 160.921 45.0361V45.6953C160.892 46.0664 160.838 46.4001 160.76 46.6963C160.685 46.9925 160.579 47.2448 160.442 47.4531C160.309 47.6615 160.143 47.821 159.944 47.9316C159.746 48.0423 159.51 48.0977 159.236 48.0977C158.969 48.0977 158.729 48.0472 158.514 47.9463C158.299 47.8421 158.113 47.6875 157.957 47.4824C157.804 47.2741 157.685 47.0153 157.601 46.7061C157.519 46.3936 157.479 46.029 157.479 45.6123ZM158.343 45.1191V45.6123C158.343 45.9053 158.364 46.1608 158.406 46.3789C158.449 46.5937 158.514 46.7728 158.602 46.916C158.693 47.056 158.808 47.1602 158.948 47.2285C159.091 47.2969 159.262 47.3311 159.461 47.3311C159.702 47.3311 159.899 47.2725 160.052 47.1553C160.205 47.0381 160.327 46.8835 160.418 46.6914C160.512 46.4961 160.587 46.2861 160.643 46.0615V44.6748C160.61 44.5088 160.563 44.3493 160.501 44.1963C160.442 44.04 160.366 43.9017 160.271 43.7812C160.177 43.6576 160.063 43.5599 159.93 43.4883C159.799 43.4167 159.646 43.3809 159.471 43.3809C159.272 43.3809 159.101 43.4167 158.958 43.4883C158.815 43.5599 158.698 43.6673 158.606 43.8105C158.515 43.9538 158.449 44.1344 158.406 44.3525C158.364 44.5706 158.343 44.8262 158.343 45.1191Z" fill="url(#paint1_linear_363_2833)"/>
<path d="M194.178 36.8906H195.076V41.8955C195.076 42.4294 194.974 42.8574 194.769 43.1797C194.563 43.502 194.293 43.7363 193.958 43.8828C193.626 44.026 193.268 44.0977 192.884 44.0977C192.474 44.0977 192.104 44.026 191.775 43.8828C191.447 43.7363 191.185 43.502 190.989 43.1797C190.797 42.8574 190.701 42.4294 190.701 41.8955V36.8906H191.595V41.8955C191.595 42.2666 191.647 42.5563 191.751 42.7646C191.858 42.973 192.008 43.1195 192.2 43.2041C192.396 43.2887 192.623 43.3311 192.884 43.3311C193.147 43.3311 193.375 43.2887 193.567 43.2041C193.763 43.1195 193.912 42.973 194.017 42.7646C194.124 42.5563 194.178 42.2666 194.178 41.8955V36.8906ZM191.307 35.7871C191.307 35.6406 191.352 35.5169 191.443 35.416C191.535 35.3151 191.666 35.2646 191.839 35.2646C192.015 35.2646 192.148 35.3151 192.239 35.416C192.33 35.5169 192.376 35.6406 192.376 35.7871C192.376 35.9271 192.33 36.0475 192.239 36.1484C192.148 36.2461 192.015 36.2949 191.839 36.2949C191.666 36.2949 191.535 36.2461 191.443 36.1484C191.352 36.0475 191.307 35.9271 191.307 35.7871ZM193.411 35.7969C193.411 35.6504 193.455 35.5267 193.543 35.4258C193.634 35.3249 193.768 35.2744 193.943 35.2744C194.116 35.2744 194.248 35.3249 194.339 35.4258C194.433 35.5267 194.48 35.6504 194.48 35.7969C194.48 35.9368 194.433 36.0573 194.339 36.1582C194.248 36.2559 194.116 36.3047 193.943 36.3047C193.768 36.3047 193.634 36.2559 193.543 36.1582C193.455 36.0573 193.411 35.9368 193.411 35.7969ZM196.331 36.5H197.195V42.9746L197.122 44H196.331V36.5ZM200.159 41.1191V41.6123C200.159 42.029 200.12 42.3936 200.042 42.7061C199.967 43.0153 199.855 43.2741 199.705 43.4824C199.555 43.6875 199.373 43.8421 199.158 43.9463C198.943 44.0472 198.698 44.0977 198.421 44.0977C198.147 44.0977 197.911 44.0423 197.713 43.9316C197.514 43.821 197.348 43.6615 197.215 43.4531C197.081 43.2448 196.976 42.9925 196.897 42.6963C196.823 42.4001 196.771 42.0664 196.741 41.6953V41.0361C196.771 40.6618 196.823 40.3265 196.897 40.0303C196.972 39.7308 197.076 39.4769 197.21 39.2686C197.343 39.057 197.509 38.8958 197.708 38.7852C197.907 38.6745 198.143 38.6191 198.416 38.6191C198.696 38.6191 198.943 38.668 199.158 38.7656C199.376 38.8633 199.559 39.0146 199.705 39.2197C199.855 39.4215 199.967 39.6803 200.042 39.9961C200.12 40.3086 200.159 40.6829 200.159 41.1191ZM199.295 41.6123V41.1191C199.295 40.8262 199.275 40.5706 199.236 40.3525C199.201 40.1344 199.14 39.9538 199.056 39.8105C198.971 39.6673 198.857 39.5599 198.714 39.4883C198.574 39.4167 198.4 39.3809 198.191 39.3809C198.016 39.3809 197.861 39.4167 197.728 39.4883C197.597 39.5599 197.485 39.6576 197.391 39.7812C197.296 39.9017 197.218 40.04 197.156 40.1963C197.094 40.3493 197.049 40.5088 197.02 40.6748V42.0615C197.062 42.2731 197.129 42.4766 197.22 42.6719C197.314 42.8639 197.441 43.0218 197.601 43.1455C197.76 43.2692 197.959 43.3311 198.196 43.3311C198.395 43.3311 198.562 43.2969 198.699 43.2285C198.839 43.1602 198.953 43.056 199.041 42.916C199.129 42.7728 199.192 42.5938 199.231 42.3789C199.274 42.1608 199.295 41.9053 199.295 41.6123ZM203.152 44.0977C202.837 44.0977 202.552 44.0505 202.298 43.9561C202.044 43.8617 201.827 43.7184 201.648 43.5264C201.469 43.3311 201.333 43.0853 201.238 42.7891C201.144 42.4928 201.097 42.1429 201.097 41.7393V41.1436C201.097 40.6781 201.15 40.2842 201.258 39.9619C201.368 39.6396 201.517 39.3809 201.702 39.1855C201.888 38.987 202.098 38.8438 202.332 38.7559C202.566 38.6647 202.807 38.6191 203.055 38.6191C203.387 38.6191 203.67 38.6729 203.904 38.7803C204.139 38.8877 204.329 39.0472 204.476 39.2588C204.622 39.4704 204.729 39.7308 204.798 40.04C204.869 40.3493 204.905 40.7057 204.905 41.1094V41.6123H201.604V40.875H204.041V40.7529C204.028 40.4795 203.991 40.2386 203.929 40.0303C203.87 39.8219 203.772 39.6592 203.636 39.542C203.499 39.4215 203.305 39.3613 203.055 39.3613C202.895 39.3613 202.747 39.389 202.61 39.4443C202.477 39.4964 202.361 39.5892 202.264 39.7227C202.169 39.8529 202.094 40.0335 202.039 40.2646C201.987 40.4958 201.961 40.7887 201.961 41.1436V41.7393C201.961 42.0225 201.987 42.2666 202.039 42.4717C202.094 42.6735 202.174 42.8411 202.278 42.9746C202.386 43.1048 202.516 43.2025 202.669 43.2676C202.825 43.3294 203.003 43.3604 203.201 43.3604C203.491 43.3604 203.73 43.305 203.919 43.1943C204.108 43.0804 204.272 42.9355 204.412 42.7598L204.866 43.3018C204.772 43.4352 204.648 43.5638 204.495 43.6875C204.345 43.8079 204.16 43.9072 203.938 43.9854C203.72 44.0602 203.458 44.0977 203.152 44.0977ZM206.814 39.5469V44H205.95V38.7168H206.785L206.814 39.5469ZM208.128 38.6875L208.133 39.5273C208.061 39.5111 207.996 39.5013 207.938 39.498C207.882 39.4915 207.817 39.4883 207.742 39.4883C207.579 39.4883 207.436 39.5208 207.312 39.5859C207.192 39.651 207.088 39.7422 207 39.8594C206.912 39.9766 206.842 40.1165 206.79 40.2793C206.738 40.4388 206.702 40.6146 206.683 40.8066L206.458 40.9531C206.458 40.6341 206.482 40.3346 206.531 40.0547C206.583 39.7747 206.663 39.5273 206.771 39.3125C206.878 39.0944 207.015 38.9251 207.181 38.8047C207.35 38.681 207.552 38.6191 207.786 38.6191C207.838 38.6191 207.902 38.6273 207.977 38.6436C208.055 38.6566 208.105 38.6712 208.128 38.6875ZM209.861 39.7324V46.0312H208.997V38.7168H209.783L209.861 39.7324ZM212.815 41.1191V41.6123C212.815 42.029 212.776 42.3936 212.698 42.7061C212.623 43.0153 212.511 43.2741 212.361 43.4824C212.215 43.6875 212.034 43.8421 211.819 43.9463C211.604 44.0472 211.359 44.0977 211.082 44.0977C210.805 44.0977 210.564 44.0456 210.359 43.9414C210.158 43.834 209.987 43.6794 209.847 43.4775C209.71 43.2757 209.601 43.0332 209.52 42.75C209.441 42.4635 209.388 42.1429 209.358 41.7881V41.0361C209.388 40.6618 209.441 40.3265 209.52 40.0303C209.598 39.7308 209.705 39.4769 209.842 39.2686C209.982 39.057 210.153 38.8958 210.354 38.7852C210.56 38.6745 210.799 38.6191 211.072 38.6191C211.355 38.6191 211.604 38.668 211.819 38.7656C212.037 38.8633 212.22 39.0146 212.366 39.2197C212.516 39.4215 212.628 39.6803 212.703 39.9961C212.778 40.3086 212.815 40.6829 212.815 41.1191ZM211.951 41.6123V41.1191C211.951 40.8262 211.928 40.5706 211.883 40.3525C211.84 40.1344 211.772 39.9538 211.678 39.8105C211.583 39.6673 211.465 39.5599 211.321 39.4883C211.178 39.4167 211.006 39.3809 210.804 39.3809C210.631 39.3809 210.478 39.4167 210.345 39.4883C210.215 39.5599 210.102 39.6576 210.008 39.7812C209.913 39.9017 209.835 40.04 209.773 40.1963C209.712 40.3493 209.666 40.5088 209.637 40.6748V42.1543C209.692 42.3626 209.765 42.5596 209.856 42.7451C209.948 42.9274 210.07 43.0755 210.223 43.1895C210.379 43.3034 210.576 43.3604 210.813 43.3604C211.012 43.3604 211.183 43.3245 211.326 43.2529C211.469 43.1813 211.587 43.0739 211.678 42.9307C211.772 42.7842 211.84 42.6019 211.883 42.3838C211.928 42.1624 211.951 41.9053 211.951 41.6123ZM214.793 39.5469V44H213.929V38.7168H214.764L214.793 39.5469ZM216.106 38.6875L216.111 39.5273C216.04 39.5111 215.975 39.5013 215.916 39.498C215.861 39.4915 215.796 39.4883 215.721 39.4883C215.558 39.4883 215.415 39.5208 215.291 39.5859C215.171 39.651 215.066 39.7422 214.979 39.8594C214.891 39.9766 214.821 40.1165 214.769 40.2793C214.716 40.4388 214.681 40.6146 214.661 40.8066L214.437 40.9531C214.437 40.6341 214.461 40.3346 214.51 40.0547C214.562 39.7747 214.642 39.5273 214.749 39.3125C214.856 39.0944 214.993 38.9251 215.159 38.8047C215.328 38.681 215.53 38.6191 215.765 38.6191C215.817 38.6191 215.88 38.6273 215.955 38.6436C216.033 38.6566 216.084 38.6712 216.106 38.6875ZM219.646 42.7793V38.7168H220.511V44H219.69L219.646 42.7793ZM219.808 41.666L220.149 41.6562C220.149 42.0078 220.118 42.3333 220.057 42.6328C219.998 42.929 219.9 43.1862 219.764 43.4043C219.63 43.6224 219.453 43.7933 219.231 43.917C219.01 44.0374 218.738 44.0977 218.416 44.0977C218.198 44.0977 217.999 44.0602 217.82 43.9854C217.645 43.9105 217.492 43.7949 217.361 43.6387C217.234 43.4824 217.135 43.279 217.063 43.0283C216.995 42.7777 216.961 42.4766 216.961 42.125V38.7168H217.82V42.1348C217.82 42.3724 217.841 42.5693 217.884 42.7256C217.926 42.8786 217.983 43.0007 218.055 43.0918C218.126 43.1797 218.206 43.2415 218.294 43.2773C218.382 43.3132 218.471 43.3311 218.562 43.3311C218.868 43.3311 219.113 43.2578 219.295 43.1113C219.477 42.9616 219.607 42.7614 219.686 42.5107C219.767 42.2568 219.808 41.9753 219.808 41.666ZM217.171 37.3057C217.171 37.1592 217.216 37.0355 217.308 36.9346C217.399 36.8337 217.531 36.7832 217.703 36.7832C217.879 36.7832 218.012 36.8337 218.104 36.9346C218.195 37.0355 218.24 37.1592 218.24 37.3057C218.24 37.4456 218.195 37.5661 218.104 37.667C218.012 37.7646 217.879 37.8135 217.703 37.8135C217.531 37.8135 217.399 37.7646 217.308 37.667C217.216 37.5661 217.171 37.4456 217.171 37.3057ZM219.275 37.3154C219.275 37.1689 219.319 37.0452 219.407 36.9443C219.498 36.8434 219.632 36.793 219.808 36.793C219.98 36.793 220.112 36.8434 220.203 36.9443C220.298 37.0452 220.345 37.1689 220.345 37.3154C220.345 37.4554 220.298 37.5758 220.203 37.6768C220.112 37.7744 219.98 37.8232 219.808 37.8232C219.632 37.8232 219.498 37.7744 219.407 37.6768C219.319 37.5758 219.275 37.4554 219.275 37.3154ZM223.055 44H222.19V38.1602C222.19 37.7793 222.251 37.4587 222.371 37.1982C222.495 36.9346 222.669 36.736 222.894 36.6025C223.121 36.4658 223.392 36.3975 223.704 36.3975C223.792 36.3975 223.88 36.404 223.968 36.417C224.059 36.43 224.145 36.4495 224.227 36.4756L224.188 37.2129C224.135 37.1966 224.072 37.1852 223.997 37.1787C223.925 37.1722 223.857 37.1689 223.792 37.1689C223.636 37.1689 223.502 37.208 223.392 37.2861C223.281 37.361 223.196 37.4717 223.138 37.6182C223.082 37.7646 223.055 37.9453 223.055 38.1602V44ZM223.953 38.7168V39.4102H221.502V38.7168H223.953ZM227.645 42.7793V38.7168H228.509V44H227.688L227.645 42.7793ZM227.806 41.666L228.147 41.6562C228.147 42.0078 228.117 42.3333 228.055 42.6328C227.996 42.929 227.898 43.1862 227.762 43.4043C227.628 43.6224 227.451 43.7933 227.229 43.917C227.008 44.0374 226.736 44.0977 226.414 44.0977C226.196 44.0977 225.997 44.0602 225.818 43.9854C225.643 43.9105 225.49 43.7949 225.359 43.6387C225.232 43.4824 225.133 43.279 225.062 43.0283C224.993 42.7777 224.959 42.4766 224.959 42.125V38.7168H225.818V42.1348C225.818 42.3724 225.84 42.5693 225.882 42.7256C225.924 42.8786 225.981 43.0007 226.053 43.0918C226.124 43.1797 226.204 43.2415 226.292 43.2773C226.38 43.3132 226.469 43.3311 226.561 43.3311C226.867 43.3311 227.111 43.2578 227.293 43.1113C227.475 42.9616 227.605 42.7614 227.684 42.5107C227.765 42.2568 227.806 41.9753 227.806 41.666ZM230.672 39.8447V44H229.808V38.7168H230.623L230.672 39.8447ZM230.462 41.1582L230.11 41.1436C230.107 40.7822 230.148 40.4486 230.232 40.1426C230.32 39.8333 230.444 39.5648 230.604 39.3369C230.766 39.109 230.96 38.9333 231.185 38.8096C231.409 38.6826 231.658 38.6191 231.932 38.6191C232.146 38.6191 232.342 38.6549 232.518 38.7266C232.693 38.7949 232.843 38.9056 232.967 39.0586C233.09 39.2116 233.185 39.4102 233.25 39.6543C233.318 39.8952 233.353 40.1898 233.353 40.5381V44H232.488V40.5283C232.488 40.2516 232.457 40.0303 232.396 39.8643C232.337 39.695 232.246 39.5729 232.122 39.498C232.002 39.4199 231.849 39.3809 231.663 39.3809C231.494 39.3809 231.336 39.4281 231.189 39.5225C231.043 39.6169 230.914 39.7471 230.804 39.9131C230.696 40.0791 230.612 40.2695 230.55 40.4844C230.491 40.696 230.462 40.9206 230.462 41.1582ZM237.513 38.7168H238.289V44.0439C238.289 44.5094 238.208 44.8936 238.045 45.1963C237.885 45.499 237.662 45.722 237.376 45.8652C237.09 46.0117 236.759 46.085 236.385 46.085C236.251 46.085 236.084 46.0605 235.882 46.0117C235.68 45.9629 235.478 45.888 235.276 45.7871C235.075 45.6895 234.909 45.5658 234.778 45.416L235.135 44.8154C235.32 45.0042 235.517 45.1393 235.726 45.2207C235.934 45.3021 236.132 45.3428 236.321 45.3428C236.546 45.3428 236.741 45.3021 236.907 45.2207C237.073 45.1393 237.202 45.0059 237.293 44.8203C237.384 44.638 237.43 44.3939 237.43 44.0879V39.8789L237.513 38.7168ZM234.476 41.6123V41.1191C234.476 40.6829 234.516 40.3086 234.598 39.9961C234.679 39.6803 234.796 39.4215 234.949 39.2197C235.105 39.0146 235.293 38.8633 235.511 38.7656C235.729 38.668 235.973 38.6191 236.243 38.6191C236.517 38.6191 236.753 38.6745 236.951 38.7852C237.15 38.8958 237.314 39.057 237.444 39.2686C237.578 39.4769 237.682 39.7308 237.757 40.0303C237.835 40.3265 237.889 40.6618 237.918 41.0361V41.6953C237.889 42.0664 237.835 42.4001 237.757 42.6963C237.682 42.9925 237.576 43.2448 237.439 43.4531C237.306 43.6615 237.14 43.821 236.941 43.9316C236.743 44.0423 236.507 44.0977 236.233 44.0977C235.966 44.0977 235.726 44.0472 235.511 43.9463C235.296 43.8421 235.11 43.6875 234.954 43.4824C234.801 43.2741 234.682 43.0153 234.598 42.7061C234.516 42.3936 234.476 42.029 234.476 41.6123ZM235.34 41.1191V41.6123C235.34 41.9053 235.361 42.1608 235.403 42.3789C235.446 42.5937 235.511 42.7728 235.599 42.916C235.69 43.056 235.805 43.1602 235.945 43.2285C236.089 43.2969 236.259 43.3311 236.458 43.3311C236.699 43.3311 236.896 43.2725 237.049 43.1553C237.202 43.0381 237.324 42.8835 237.415 42.6914C237.509 42.4961 237.584 42.2861 237.64 42.0615V40.6748C237.607 40.5088 237.56 40.3493 237.498 40.1963C237.439 40.04 237.363 39.9017 237.269 39.7812C237.174 39.6576 237.06 39.5599 236.927 39.4883C236.797 39.4167 236.644 39.3809 236.468 39.3809C236.269 39.3809 236.098 39.4167 235.955 39.4883C235.812 39.5599 235.695 39.6673 235.604 39.8105C235.512 39.9538 235.446 40.1344 235.403 40.3525C235.361 40.5706 235.34 40.8262 235.34 41.1191ZM210.501 53.7793V49.7168H211.365V55H210.545L210.501 53.7793ZM210.662 52.666L211.004 52.6562C211.004 53.0078 210.973 53.3333 210.911 53.6328C210.853 53.929 210.755 54.1862 210.618 54.4043C210.485 54.6224 210.307 54.7933 210.086 54.917C209.865 55.0374 209.593 55.0977 209.271 55.0977C209.052 55.0977 208.854 55.0602 208.675 54.9854C208.499 54.9105 208.346 54.7949 208.216 54.6387C208.089 54.4824 207.99 54.279 207.918 54.0283C207.85 53.7777 207.815 53.4766 207.815 53.125V49.7168H208.675V53.1348C208.675 53.3724 208.696 53.5693 208.738 53.7256C208.781 53.8786 208.838 54.0007 208.909 54.0918C208.981 54.1797 209.061 54.2415 209.148 54.2773C209.236 54.3132 209.326 54.3311 209.417 54.3311C209.723 54.3311 209.967 54.2578 210.149 54.1113C210.332 53.9616 210.462 53.7614 210.54 53.5107C210.621 53.2568 210.662 52.9753 210.662 52.666ZM213.528 50.8447V55H212.664V49.7168H213.479L213.528 50.8447ZM213.318 52.1582L212.967 52.1436C212.964 51.7822 213.004 51.4486 213.089 51.1426C213.177 50.8333 213.3 50.5648 213.46 50.3369C213.623 50.109 213.816 49.9333 214.041 49.8096C214.266 49.6826 214.515 49.6191 214.788 49.6191C215.003 49.6191 215.198 49.6549 215.374 49.7266C215.55 49.7949 215.7 49.9056 215.823 50.0586C215.947 50.2116 216.041 50.4102 216.106 50.6543C216.175 50.8952 216.209 51.1898 216.209 51.5381V55H215.345V51.5283C215.345 51.2516 215.314 51.0303 215.252 50.8643C215.193 50.695 215.102 50.5729 214.979 50.498C214.858 50.4199 214.705 50.3809 214.52 50.3809C214.35 50.3809 214.192 50.4281 214.046 50.5225C213.899 50.6169 213.771 50.7471 213.66 50.9131C213.553 51.0791 213.468 51.2695 213.406 51.4844C213.348 51.696 213.318 51.9206 213.318 52.1582ZM220.276 53.9746V47.5H221.136V55H220.35L220.276 53.9746ZM217.322 52.6123V52.1191C217.322 51.6829 217.365 51.3086 217.449 50.9961C217.534 50.6803 217.654 50.4215 217.811 50.2197C217.967 50.0146 218.154 49.8633 218.372 49.7656C218.59 49.668 218.831 49.6191 219.095 49.6191C219.368 49.6191 219.603 49.6745 219.798 49.7852C219.996 49.8958 220.162 50.057 220.296 50.2686C220.429 50.4769 220.534 50.7308 220.608 51.0303C220.687 51.3265 220.739 51.6618 220.765 52.0361V52.6953C220.735 53.0664 220.682 53.4001 220.604 53.6963C220.529 53.9925 220.424 54.2448 220.291 54.4531C220.158 54.6615 219.992 54.821 219.793 54.9316C219.594 55.0423 219.358 55.0977 219.085 55.0977C218.825 55.0977 218.587 55.0472 218.372 54.9463C218.157 54.8421 217.97 54.6875 217.811 54.4824C217.654 54.2741 217.534 54.0153 217.449 53.7061C217.365 53.3936 217.322 53.029 217.322 52.6123ZM218.187 52.1191V52.6123C218.187 52.9053 218.208 53.1608 218.25 53.3789C218.292 53.5938 218.359 53.7728 218.45 53.916C218.541 54.056 218.657 54.1602 218.797 54.2285C218.94 54.2969 219.111 54.3311 219.31 54.3311C219.55 54.3311 219.747 54.2725 219.9 54.1553C220.053 54.0381 220.175 53.8835 220.267 53.6914C220.361 53.4961 220.436 53.2861 220.491 53.0615V51.6748C220.459 51.5088 220.411 51.3493 220.35 51.1963C220.288 51.04 220.21 50.9017 220.115 50.7812C220.024 50.6576 219.912 50.5599 219.778 50.4883C219.648 50.4167 219.495 50.3809 219.319 50.3809C219.121 50.3809 218.948 50.4167 218.802 50.4883C218.659 50.5599 218.541 50.6673 218.45 50.8105C218.362 50.9538 218.296 51.1344 218.25 51.3525C218.208 51.5706 218.187 51.8262 218.187 52.1191ZM196.883 62.6748H195.438L195.428 61.918H196.771C196.972 61.918 197.151 61.8724 197.308 61.7812C197.464 61.6901 197.586 61.5599 197.674 61.3906C197.765 61.2181 197.811 61.013 197.811 60.7754C197.811 60.515 197.771 60.3034 197.693 60.1406C197.618 59.9746 197.503 59.8542 197.347 59.7793C197.194 59.7012 196.998 59.6621 196.761 59.6621H195.628V66H194.729V58.8906H196.761C197.067 58.8906 197.34 58.9281 197.581 59.0029C197.822 59.0745 198.025 59.1885 198.191 59.3447C198.361 59.4977 198.489 59.693 198.577 59.9307C198.665 60.1683 198.709 60.4531 198.709 60.7852C198.709 61.0781 198.642 61.3434 198.509 61.5811C198.379 61.8154 198.196 62.0075 197.962 62.1572C197.728 62.307 197.457 62.403 197.151 62.4453L196.883 62.6748ZM196.849 66H195.066L195.589 65.2334H196.849C197.083 65.2334 197.282 65.1813 197.444 65.0771C197.607 64.973 197.731 64.8265 197.815 64.6377C197.903 64.4456 197.947 64.2194 197.947 63.959C197.947 63.6953 197.911 63.4674 197.84 63.2754C197.768 63.0833 197.654 62.9352 197.498 62.8311C197.342 62.7269 197.137 62.6748 196.883 62.6748H195.726L195.735 61.918H197.298L197.498 62.1914C197.791 62.2207 198.037 62.3184 198.235 62.4844C198.437 62.6471 198.589 62.8555 198.689 63.1094C198.794 63.3633 198.846 63.6432 198.846 63.9492C198.846 64.3919 198.763 64.7663 198.597 65.0723C198.434 65.375 198.203 65.6061 197.903 65.7656C197.604 65.9219 197.252 66 196.849 66ZM201.961 66.0977C201.645 66.0977 201.36 66.0505 201.106 65.9561C200.853 65.8617 200.636 65.7184 200.457 65.5264C200.278 65.3311 200.141 65.0853 200.047 64.7891C199.952 64.4928 199.905 64.1429 199.905 63.7393V63.1436C199.905 62.6781 199.959 62.2842 200.066 61.9619C200.177 61.6396 200.325 61.3809 200.511 61.1855C200.696 60.987 200.906 60.8438 201.141 60.7559C201.375 60.6647 201.616 60.6191 201.863 60.6191C202.195 60.6191 202.479 60.6729 202.713 60.7803C202.947 60.8877 203.138 61.0472 203.284 61.2588C203.431 61.4704 203.538 61.7308 203.606 62.04C203.678 62.3493 203.714 62.7057 203.714 63.1094V63.6123H200.413V62.875H202.85V62.7529C202.837 62.4795 202.799 62.2386 202.737 62.0303C202.679 61.8219 202.581 61.6592 202.444 61.542C202.308 61.4215 202.114 61.3613 201.863 61.3613C201.704 61.3613 201.556 61.389 201.419 61.4443C201.285 61.4964 201.17 61.5892 201.072 61.7227C200.978 61.8529 200.903 62.0335 200.848 62.2646C200.796 62.4958 200.77 62.7887 200.77 63.1436V63.7393C200.77 64.0225 200.796 64.2666 200.848 64.4717C200.903 64.6735 200.983 64.8411 201.087 64.9746C201.194 65.1048 201.325 65.2025 201.478 65.2676C201.634 65.3294 201.811 65.3604 202.01 65.3604C202.299 65.3604 202.539 65.305 202.728 65.1943C202.916 65.0804 203.081 64.9355 203.221 64.7598L203.675 65.3018C203.58 65.4352 203.457 65.5638 203.304 65.6875C203.154 65.8079 202.968 65.9072 202.747 65.9854C202.529 66.0602 202.267 66.0977 201.961 66.0977ZM208.104 65.2578V66H204.905V65.2578H208.104ZM208.006 61.3564L205.101 66H204.573V65.3359L207.459 60.7168H208.006V61.3564ZM207.63 60.7168V61.4639H204.588V60.7168H207.63ZM211.741 65.0967V62.2305C211.741 62.0221 211.709 61.8545 211.644 61.7275C211.582 61.6006 211.487 61.5078 211.36 61.4492C211.237 61.3906 211.08 61.3613 210.892 61.3613C210.709 61.3613 210.551 61.3988 210.418 61.4736C210.288 61.5485 210.187 61.6478 210.115 61.7715C210.047 61.8952 210.013 62.0319 210.013 62.1816H209.148C209.148 61.9928 209.189 61.8057 209.271 61.6201C209.355 61.4346 209.476 61.2669 209.632 61.1172C209.788 60.9642 209.975 60.8438 210.193 60.7559C210.415 60.6647 210.662 60.6191 210.936 60.6191C211.261 60.6191 211.549 60.6729 211.8 60.7803C212.05 60.8844 212.247 61.0553 212.391 61.293C212.534 61.5306 212.605 61.8464 212.605 62.2402V64.8477C212.605 65.0234 212.618 65.2106 212.645 65.4092C212.674 65.6077 212.715 65.7786 212.767 65.9219V66H211.873C211.831 65.8958 211.798 65.7575 211.775 65.585C211.753 65.4092 211.741 65.2464 211.741 65.0967ZM211.878 62.7969L211.888 63.4316H211.287C211.082 63.4316 210.895 63.4544 210.726 63.5C210.56 63.5456 210.416 63.6123 210.296 63.7002C210.175 63.7848 210.083 63.8906 210.018 64.0176C209.956 64.1445 209.925 64.2894 209.925 64.4521C209.925 64.6637 209.954 64.833 210.013 64.96C210.071 65.0837 210.159 65.1732 210.276 65.2285C210.394 65.2839 210.542 65.3115 210.721 65.3115C210.939 65.3115 211.131 65.2611 211.297 65.1602C211.463 65.0592 211.591 64.9372 211.683 64.7939C211.777 64.6507 211.821 64.5173 211.814 64.3936L212.005 64.7988C211.992 64.9258 211.95 65.0641 211.878 65.2139C211.81 65.3604 211.714 65.502 211.59 65.6387C211.466 65.7721 211.32 65.8828 211.15 65.9707C210.984 66.0553 210.797 66.0977 210.589 66.0977C210.283 66.0977 210.014 66.0391 209.783 65.9219C209.555 65.8047 209.378 65.6322 209.251 65.4043C209.124 65.1764 209.061 64.8949 209.061 64.5596C209.061 64.3057 209.104 64.0713 209.192 63.8564C209.28 63.6416 209.41 63.4561 209.583 63.2998C209.756 63.1403 209.972 63.0166 210.232 62.9287C210.496 62.8408 210.8 62.7969 211.146 62.7969H211.878ZM214.812 58.5V66H213.948V58.5H214.812ZM214.603 63.1582L214.251 63.1436C214.248 62.7822 214.288 62.4486 214.373 62.1426C214.461 61.8333 214.585 61.5648 214.744 61.3369C214.907 61.109 215.101 60.9333 215.325 60.8096C215.55 60.6826 215.799 60.6191 216.072 60.6191C216.287 60.6191 216.482 60.6549 216.658 60.7266C216.834 60.7949 216.984 60.9056 217.107 61.0586C217.231 61.2116 217.326 61.4102 217.391 61.6543C217.459 61.8952 217.493 62.1898 217.493 62.5381V66H216.629V62.5283C216.629 62.2516 216.598 62.0303 216.536 61.8643C216.478 61.695 216.386 61.5729 216.263 61.498C216.142 61.4199 215.989 61.3809 215.804 61.3809C215.634 61.3809 215.477 61.4281 215.33 61.5225C215.184 61.6169 215.055 61.7471 214.944 61.9131C214.837 62.0791 214.752 62.2695 214.69 62.4844C214.632 62.696 214.603 62.9206 214.603 63.1582ZM219.71 58.5V66H218.851V58.5H219.71ZM223.748 64.7793V60.7168H224.612V66H223.792L223.748 64.7793ZM223.909 63.666L224.251 63.6562C224.251 64.0078 224.22 64.3333 224.158 64.6328C224.1 64.929 224.002 65.1862 223.865 65.4043C223.732 65.6224 223.554 65.7933 223.333 65.917C223.112 66.0374 222.84 66.0977 222.518 66.0977C222.299 66.0977 222.101 66.0602 221.922 65.9854C221.746 65.9105 221.593 65.7949 221.463 65.6387C221.336 65.4824 221.237 65.279 221.165 65.0283C221.097 64.7777 221.062 64.4766 221.062 64.125V60.7168H221.922V64.1348C221.922 64.3724 221.943 64.5693 221.985 64.7256C222.028 64.8786 222.085 65.0007 222.156 65.0918C222.228 65.1797 222.308 65.2415 222.396 65.2773C222.483 65.3132 222.573 65.3311 222.664 65.3311C222.97 65.3311 223.214 65.2578 223.396 65.1113C223.579 64.9616 223.709 64.7614 223.787 64.5107C223.868 64.2568 223.909 63.9753 223.909 63.666ZM226.775 61.8447V66H225.911V60.7168H226.727L226.775 61.8447ZM226.565 63.1582L226.214 63.1436C226.211 62.7822 226.251 62.4486 226.336 62.1426C226.424 61.8333 226.548 61.5648 226.707 61.3369C226.87 61.109 227.063 60.9333 227.288 60.8096C227.513 60.6826 227.762 60.6191 228.035 60.6191C228.25 60.6191 228.445 60.6549 228.621 60.7266C228.797 60.7949 228.947 60.9056 229.07 61.0586C229.194 61.2116 229.288 61.4102 229.354 61.6543C229.422 61.8952 229.456 62.1898 229.456 62.5381V66H228.592V62.5283C228.592 62.2516 228.561 62.0303 228.499 61.8643C228.44 61.695 228.349 61.5729 228.226 61.498C228.105 61.4199 227.952 61.3809 227.767 61.3809C227.597 61.3809 227.439 61.4281 227.293 61.5225C227.146 61.6169 227.018 61.7471 226.907 61.9131C226.8 62.0791 226.715 62.2695 226.653 62.4844C226.595 62.696 226.565 62.9206 226.565 63.1582ZM233.616 60.7168H234.393V66.0439C234.393 66.5094 234.311 66.8936 234.148 67.1963C233.989 67.499 233.766 67.722 233.479 67.8652C233.193 68.0117 232.863 68.085 232.488 68.085C232.355 68.085 232.187 68.0605 231.985 68.0117C231.784 67.9629 231.582 67.888 231.38 67.7871C231.178 67.6895 231.012 67.5658 230.882 67.416L231.238 66.8154C231.424 67.0042 231.621 67.1393 231.829 67.2207C232.037 67.3021 232.236 67.3428 232.425 67.3428C232.649 67.3428 232.845 67.3021 233.011 67.2207C233.177 67.1393 233.305 67.0059 233.396 66.8203C233.488 66.638 233.533 66.3939 233.533 66.0879V61.8789L233.616 60.7168ZM230.579 63.6123V63.1191C230.579 62.6829 230.62 62.3086 230.701 61.9961C230.783 61.6803 230.9 61.4215 231.053 61.2197C231.209 61.0146 231.396 60.8633 231.614 60.7656C231.832 60.668 232.076 60.6191 232.347 60.6191C232.62 60.6191 232.856 60.6745 233.055 60.7852C233.253 60.8958 233.418 61.057 233.548 61.2686C233.681 61.4769 233.785 61.7308 233.86 62.0303C233.938 62.3265 233.992 62.6618 234.021 63.0361V63.6953C233.992 64.0664 233.938 64.4001 233.86 64.6963C233.785 64.9925 233.68 65.2448 233.543 65.4531C233.41 65.6615 233.243 65.821 233.045 65.9316C232.846 66.0423 232.61 66.0977 232.337 66.0977C232.07 66.0977 231.829 66.0472 231.614 65.9463C231.399 65.8421 231.214 65.6875 231.058 65.4824C230.905 65.2741 230.786 65.0153 230.701 64.7061C230.62 64.3936 230.579 64.029 230.579 63.6123ZM231.443 63.1191V63.6123C231.443 63.9053 231.465 64.1608 231.507 64.3789C231.549 64.5938 231.614 64.7728 231.702 64.916C231.793 65.056 231.909 65.1602 232.049 65.2285C232.192 65.2969 232.363 65.3311 232.562 65.3311C232.802 65.3311 232.999 65.2725 233.152 65.1553C233.305 65.0381 233.427 64.8835 233.519 64.6914C233.613 64.4961 233.688 64.2861 233.743 64.0615V62.6748C233.711 62.5088 233.663 62.3493 233.602 62.1963C233.543 62.04 233.466 61.9017 233.372 61.7812C233.278 61.6576 233.164 61.5599 233.03 61.4883C232.9 61.4167 232.747 61.3809 232.571 61.3809C232.373 61.3809 232.202 61.4167 232.059 61.4883C231.915 61.5599 231.798 61.6673 231.707 61.8105C231.616 61.9538 231.549 62.1344 231.507 62.3525C231.465 62.5706 231.443 62.8262 231.443 63.1191Z" fill="url(#paint2_linear_363_2833)"/>
<path fill-rule="evenodd" clip-rule="evenodd" d="M204 16L137 16V14L204 14V16Z" fill="url(#paint3_linear_363_2833)"/>
<path fill-rule="evenodd" clip-rule="evenodd" d="M111 16L44 16V14L111 14V16Z" fill="url(#paint4_linear_363_2833)"/>
<path fill-rule="evenodd" clip-rule="evenodd" d="M18.7612 6.17317C18 8.01088 18 10.3406 18 15C18 19.6594 18 21.9891 18.7612 23.8268C19.7761 26.2771 21.7229 28.2239 24.1732 29.2388C26.0109 30 28.3406 30 33 30C37.6594 30 39.9891 30 41.8268 29.2388C44.2771 28.2239 46.2239 26.2771 47.2388 23.8268C48 21.9891 48 19.6594 48 15C48 10.3406 48 8.01088 47.2388 6.17317C46.2239 3.72288 44.2771 1.77614 41.8268 0.761205C39.9891 0 37.6594 0 33 0C28.3406 0 26.0109 0 24.1732 0.761205C21.7229 1.77614 19.7761 3.72288 18.7612 6.17317ZM39.7071 11.7071C40.0976 11.3166 40.0976 10.6834 39.7071 10.2929C39.3166 9.90237 38.6834 9.90237 38.2929 10.2929L31 17.5858L27.7071 14.2929C27.3166 13.9024 26.6834 13.9024 26.2929 14.2929C25.9024 14.6834 25.9024 15.3166 26.2929 15.7071L30.2929 19.7071C30.4804 19.8946 30.7348 20 31 20C31.2652 20 31.5196 19.8946 31.7071 19.7071L39.7071 11.7071Z" fill="url(#paint5_linear_363_2833)"/>
<path fill-rule="evenodd" clip-rule="evenodd" d="M109.761 6.17317C109 8.01088 109 10.3406 109 15C109 19.6594 109 21.9891 109.761 23.8268C110.776 26.2771 112.723 28.2239 115.173 29.2388C117.011 30 119.341 30 124 30C128.659 30 130.989 30 132.827 29.2388C135.277 28.2239 137.224 26.2771 138.239 23.8268C139 21.9891 139 19.6594 139 15C139 10.3406 139 8.01088 138.239 6.17317C137.224 3.72288 135.277 1.77614 132.827 0.761205C130.989 0 128.659 0 124 0C119.341 0 117.011 0 115.173 0.761205C112.723 1.77614 110.776 3.72288 109.761 6.17317ZM130.707 11.7071C131.098 11.3166 131.098 10.6834 130.707 10.2929C130.317 9.90237 129.683 9.90237 129.293 10.2929L122 17.5858L118.707 14.2929C118.317 13.9024 117.683 13.9024 117.293 14.2929C116.902 14.6834 116.902 15.3166 117.293 15.7071L121.293 19.7071C121.48 19.8946 121.735 20 122 20C122.265 20 122.52 19.8946 122.707 19.7071L130.707 11.7071Z" fill="url(#paint6_linear_363_2833)"/>
<path fill-rule="evenodd" clip-rule="evenodd" d="M200.761 6.17317C200 8.01088 200 10.3406 200 15C200 19.6594 200 21.9891 200.761 23.8268C201.776 26.2771 203.723 28.2239 206.173 29.2388C208.011 30 210.341 30 215 30C219.659 30 221.989 30 223.827 29.2388C226.277 28.2239 228.224 26.2771 229.239 23.8268C230 21.9891 230 19.6594 230 15C230 10.3406 230 8.01088 229.239 6.17317C228.224 3.72288 226.277 1.77614 223.827 0.761205C221.989 0 219.659 0 215 0C210.341 0 208.011 0 206.173 0.761205C203.723 1.77614 201.776 3.72288 200.761 6.17317ZM221.707 11.7071C222.098 11.3166 222.098 10.6834 221.707 10.2929C221.317 9.90237 220.683 9.90237 220.293 10.2929L213 17.5858L209.707 14.2929C209.317 13.9024 208.683 13.9024 208.293 14.2929C207.902 14.6834 207.902 15.3166 208.293 15.7071L212.293 19.7071C212.48 19.8946 212.735 20 213 20C213.265 20 213.52 19.8946 213.707 19.7071L221.707 11.7071Z" fill="url(#paint7_linear_363_2833)"/>
<defs>
<linearGradient id="paint0_linear_363_2833" x1="33" y1="46" x2="33" y2="35" gradientUnits="userSpaceOnUse">
<stop stop-color="#5CCC94"/>
<stop offset="1" stop-color="#8CCAAE"/>
</linearGradient>
<linearGradient id="paint1_linear_363_2833" x1="124.5" y1="55" x2="124.5" y2="35" gradientUnits="userSpaceOnUse">
<stop stop-color="#5CCC94"/>
<stop offset="1" stop-color="#8CCAAE"/>
</linearGradient>
<linearGradient id="paint2_linear_363_2833" x1="214.5" y1="68" x2="214.5" y2="35" gradientUnits="userSpaceOnUse">
<stop stop-color="#5CCC94"/>
<stop offset="1" stop-color="#8CCAAE"/>
</linearGradient>
<linearGradient id="paint3_linear_363_2833" x1="170.5" y1="16" x2="170.5" y2="14" gradientUnits="userSpaceOnUse">
<stop stop-color="#5CCC94"/>
<stop offset="1" stop-color="#8CCAAE"/>
</linearGradient>
<linearGradient id="paint4_linear_363_2833" x1="77.5" y1="16" x2="77.5" y2="14" gradientUnits="userSpaceOnUse">
<stop stop-color="#5CCC94"/>
<stop offset="1" stop-color="#8CCAAE"/>
</linearGradient>
<linearGradient id="paint5_linear_363_2833" x1="33" y1="30" x2="33" y2="1.58545e-07" gradientUnits="userSpaceOnUse">
<stop stop-color="#5CCC94"/>
<stop offset="1" stop-color="#8CCAAE"/>
</linearGradient>
<linearGradient id="paint6_linear_363_2833" x1="124" y1="30" x2="124" y2="1.58545e-07" gradientUnits="userSpaceOnUse">
<stop stop-color="#5CCC94"/>
<stop offset="1" stop-color="#8CCAAE"/>
</linearGradient>
<linearGradient id="paint7_linear_363_2833" x1="215" y1="30" x2="215" y2="1.58545e-07" gradientUnits="userSpaceOnUse">
<stop stop-color="#5CCC94"/>
<stop offset="1" stop-color="#8CCAAE"/>
</linearGradient>
</defs>
</svg>
