<svg width="319" height="68" viewBox="0 0 319 68" fill="none" xmlns="http://www.w3.org/2000/svg">
<path d="M10.3223 35.8906L10.3223 43H9.43359L9.43359 35.8906H10.3223ZM12.1924 35.8906V36.6621H7.56836V35.8906H12.1924ZM13.999 42.4531L15.1758 37.7168H16.0938L14.3506 43.8154C14.3083 43.9456 14.2513 44.0856 14.1797 44.2354C14.1113 44.3883 14.0234 44.5332 13.916 44.6699C13.8086 44.8066 13.68 44.9173 13.5303 45.002C13.3805 45.0898 13.2048 45.1338 13.0029 45.1338C12.9411 45.1338 12.8613 45.124 12.7637 45.1045C12.6693 45.085 12.6009 45.0687 12.5586 45.0557V44.3232C12.5781 44.3265 12.609 44.3298 12.6514 44.333C12.6937 44.3395 12.7246 44.3428 12.7441 44.3428C12.9134 44.3428 13.0566 44.3151 13.1738 44.2598C13.2943 44.2077 13.3968 44.1182 13.4814 43.9912C13.5661 43.8675 13.6377 43.6966 13.6963 43.4785L13.999 42.4531ZM13.2373 37.7168L14.2871 41.8184L14.5117 42.7705L13.8965 43.1025L12.2949 37.7168H13.2373ZM17.8076 38.7324V45.0312H16.9434V37.7168H17.7295L17.8076 38.7324ZM20.7617 40.1191V40.6123C20.7617 41.029 20.7227 41.3936 20.6445 41.7061C20.5697 42.0153 20.4574 42.2741 20.3076 42.4824C20.1611 42.6875 19.9805 42.8421 19.7656 42.9463C19.5508 43.0472 19.305 43.0977 19.0283 43.0977C18.7516 43.0977 18.5107 43.0456 18.3057 42.9414C18.1038 42.834 17.9329 42.6794 17.793 42.4775C17.6562 42.2757 17.5472 42.0332 17.4658 41.75C17.3877 41.4635 17.334 41.1429 17.3047 40.7881V40.0361C17.334 39.6618 17.3877 39.3265 17.4658 39.0303C17.5439 38.7308 17.6514 38.4769 17.7881 38.2686C17.9281 38.057 18.099 37.8958 18.3008 37.7852C18.5059 37.6745 18.7451 37.6191 19.0186 37.6191C19.3018 37.6191 19.5508 37.668 19.7656 37.7656C19.9837 37.8633 20.166 38.0146 20.3125 38.2197C20.4622 38.4215 20.5745 38.6803 20.6494 38.9961C20.7243 39.3086 20.7617 39.6829 20.7617 40.1191ZM19.8975 40.6123V40.1191C19.8975 39.8262 19.8747 39.5706 19.8291 39.3525C19.7868 39.1344 19.7184 38.9538 19.624 38.8105C19.5296 38.6673 19.4108 38.5599 19.2676 38.4883C19.1243 38.4167 18.9518 38.3809 18.75 38.3809C18.5775 38.3809 18.4245 38.4167 18.291 38.4883C18.1608 38.5599 18.0485 38.6576 17.9541 38.7812C17.8597 38.9017 17.7816 39.04 17.7197 39.1963C17.6579 39.3493 17.6123 39.5088 17.583 39.6748V41.1543C17.6383 41.3626 17.7116 41.5596 17.8027 41.7451C17.8939 41.9274 18.016 42.0755 18.1689 42.1895C18.3252 42.3034 18.5221 42.3604 18.7598 42.3604C18.9583 42.3604 19.1292 42.3245 19.2725 42.2529C19.4157 42.1813 19.5329 42.0739 19.624 41.9307C19.7184 41.7842 19.7868 41.6019 19.8291 41.3838C19.8747 41.1624 19.8975 40.9053 19.8975 40.6123ZM26.9385 41.9746V35.5H27.7979V43L27.0117 43L26.9385 41.9746ZM23.9844 40.6123V40.1191C23.9844 39.6829 24.0267 39.3086 24.1113 38.9961C24.196 38.6803 24.3164 38.4215 24.4727 38.2197C24.6289 38.0146 24.8161 37.8633 25.0342 37.7656C25.2523 37.668 25.4932 37.6191 25.7568 37.6191C26.0303 37.6191 26.2646 37.6745 26.46 37.7852C26.6585 37.8958 26.8245 38.057 26.958 38.2686C27.0915 38.4769 27.1956 38.7308 27.2705 39.0303C27.3486 39.3265 27.4007 39.6618 27.4268 40.0361V40.6953C27.3975 41.0664 27.3438 41.4001 27.2656 41.6963C27.1908 41.9925 27.0866 42.2448 26.9531 42.4531C26.8197 42.6615 26.6536 42.821 26.4551 42.9316C26.2565 43.0423 26.0205 43.0977 25.7471 43.0977C25.4867 43.0977 25.249 43.0472 25.0342 42.9463C24.8193 42.8421 24.6322 42.6875 24.4727 42.4824C24.3164 42.2741 24.196 42.0153 24.1113 41.7061C24.0267 41.3936 23.9844 41.029 23.9844 40.6123ZM24.8486 40.1191V40.6123C24.8486 40.9053 24.8698 41.1608 24.9121 41.3789C24.9544 41.5937 25.0212 41.7728 25.1123 41.916C25.2035 42.056 25.319 42.1602 25.459 42.2285C25.6022 42.2969 25.7731 42.3311 25.9717 42.3311C26.2126 42.3311 26.4095 42.2725 26.5625 42.1553C26.7155 42.0381 26.8376 41.8835 26.9287 41.6914C27.0231 41.4961 27.098 41.2861 27.1533 41.0615V39.6748C27.1208 39.5088 27.0736 39.3493 27.0117 39.1963C26.9499 39.04 26.8717 38.9017 26.7773 38.7812C26.6862 38.6576 26.5739 38.5599 26.4404 38.4883C26.3102 38.4167 26.1572 38.3809 25.9814 38.3809C25.7829 38.3809 25.6104 38.4167 25.4639 38.4883C25.3206 38.5599 25.2035 38.6673 25.1123 38.8105C25.0244 38.9538 24.9577 39.1344 24.9121 39.3525C24.8698 39.5706 24.8486 39.8262 24.8486 40.1191ZM31.0205 43.0977C30.7048 43.0977 30.4199 43.0505 30.166 42.9561C29.9121 42.8617 29.6956 42.7184 29.5166 42.5264C29.3376 42.3311 29.2008 42.0853 29.1064 41.7891C29.012 41.4928 28.9648 41.1429 28.9648 40.7393V40.1436C28.9648 39.6781 29.0186 39.2842 29.126 38.9619C29.2367 38.6396 29.3848 38.3809 29.5703 38.1855C29.7559 37.987 29.9658 37.8437 30.2002 37.7559C30.4346 37.6647 30.6755 37.6191 30.9229 37.6191C31.2549 37.6191 31.5381 37.6729 31.7725 37.7803C32.0068 37.8877 32.1973 38.0472 32.3438 38.2588C32.4902 38.4704 32.5977 38.7308 32.666 39.04C32.7376 39.3493 32.7734 39.7057 32.7734 40.1094V40.6123H29.4727V39.875H31.9092V39.7529C31.8962 39.4795 31.8587 39.2386 31.7969 39.0303C31.7383 38.8219 31.6406 38.6592 31.5039 38.542C31.3672 38.4215 31.1735 38.3613 30.9229 38.3613C30.7633 38.3613 30.6152 38.389 30.4785 38.4443C30.3451 38.4964 30.2295 38.5892 30.1318 38.7227C30.0374 38.8529 29.9626 39.0335 29.9072 39.2646C29.8551 39.4958 29.8291 39.7887 29.8291 40.1436V40.7393C29.8291 41.0225 29.8551 41.2666 29.9072 41.4717C29.9626 41.6735 30.0423 41.8411 30.1465 41.9746C30.2539 42.1048 30.3841 42.2025 30.5371 42.2676C30.6934 42.3294 30.8708 42.3604 31.0693 42.3604C31.359 42.3604 31.5983 42.305 31.7871 42.1943C31.9759 42.0804 32.1403 41.9355 32.2803 41.7598L32.7344 42.3018C32.64 42.4352 32.5163 42.5638 32.3633 42.6875C32.2135 42.8079 32.028 42.9072 31.8066 42.9854C31.5885 43.0602 31.3265 43.0977 31.0205 43.0977ZM36.3818 41.6475C36.3818 41.514 36.3493 41.3968 36.2842 41.2959C36.2191 41.195 36.1117 41.0973 35.9619 41.0029C35.8154 40.9085 35.6169 40.8076 35.3662 40.7002C35.1221 40.5993 34.9023 40.5 34.707 40.4023C34.515 40.3014 34.3522 40.1924 34.2188 40.0752C34.0853 39.958 33.9827 39.8229 33.9111 39.6699C33.8428 39.5137 33.8086 39.3298 33.8086 39.1182C33.8086 38.9066 33.8477 38.7113 33.9258 38.5322C34.0072 38.3499 34.1211 38.1904 34.2676 38.0537C34.4141 37.917 34.5898 37.8112 34.7949 37.7363C35 37.6582 35.2295 37.6191 35.4834 37.6191C35.8447 37.6191 36.1523 37.6891 36.4062 37.8291C36.6602 37.9691 36.8538 38.1611 36.9873 38.4053C37.124 38.6462 37.1924 38.918 37.1924 39.2207H36.333C36.333 39.0742 36.3005 38.9359 36.2354 38.8057C36.1702 38.6755 36.0742 38.5697 35.9473 38.4883C35.8203 38.4036 35.6657 38.3613 35.4834 38.3613C35.2913 38.3613 35.1351 38.3955 35.0146 38.4639C34.8942 38.5322 34.8063 38.6217 34.751 38.7324C34.6989 38.8398 34.6729 38.9587 34.6729 39.0889C34.6729 39.1865 34.6859 39.2712 34.7119 39.3428C34.7412 39.4111 34.79 39.4762 34.8584 39.5381C34.9268 39.5967 35.0195 39.6585 35.1367 39.7236C35.2572 39.7855 35.4102 39.8571 35.5957 39.9385C35.9538 40.0785 36.2549 40.2201 36.499 40.3633C36.7432 40.5065 36.9287 40.6742 37.0557 40.8662C37.1826 41.0583 37.2461 41.2959 37.2461 41.5791C37.2461 41.8102 37.2038 42.0202 37.1191 42.209C37.0378 42.3945 36.9206 42.554 36.7676 42.6875C36.6146 42.821 36.4307 42.9235 36.2158 42.9951C36.0042 43.0635 35.7666 43.0977 35.5029 43.0977C35.1058 43.0977 34.7689 43.0195 34.4922 42.8633C34.2188 42.7038 34.0104 42.4971 33.8672 42.2432C33.7272 41.986 33.6572 41.7109 33.6572 41.418H34.5215C34.5312 41.6654 34.5866 41.8574 34.6875 41.9941C34.7917 42.1309 34.917 42.2253 35.0635 42.2773C35.21 42.3294 35.3564 42.3555 35.5029 42.3555C35.695 42.3555 35.8561 42.3278 35.9863 42.2725C36.1165 42.2139 36.2142 42.1309 36.2793 42.0234C36.3477 41.916 36.3818 41.7907 36.3818 41.6475ZM4.35547 47.5205L2.41211 54H1.49414L3.78418 46.8906H4.36035L4.35547 47.5205ZM5.92773 54L3.98438 47.5205L3.97461 46.8906H4.55566L6.8457 54H5.92773ZM5.92773 51.3682V52.1396H2.5L2.5 51.3682H5.92773ZM10.3174 52.7793L10.3174 48.7168H11.1816L11.1816 54H10.3613L10.3174 52.7793ZM10.4785 51.666L10.8203 51.6562C10.8203 52.0078 10.7894 52.3333 10.7275 52.6328C10.6689 52.929 10.5713 53.1862 10.4346 53.4043C10.3011 53.6224 10.1237 53.7933 9.90234 53.917C9.68099 54.0374 9.40918 54.0977 9.08691 54.0977C8.86882 54.0977 8.67025 54.0602 8.49121 53.9854C8.31543 53.9105 8.16243 53.7949 8.03223 53.6387C7.90527 53.4824 7.80599 53.279 7.73438 53.0283C7.66602 52.7777 7.63184 52.4766 7.63184 52.125V48.7168H8.49121L8.49121 52.1348C8.49121 52.3724 8.51237 52.5693 8.55469 52.7256C8.59701 52.8786 8.65397 53.0007 8.72559 53.0918C8.7972 53.1797 8.87695 53.2415 8.96484 53.2773C9.05273 53.3132 9.14225 53.3311 9.2334 53.3311C9.53939 53.3311 9.78353 53.2578 9.96582 53.1113C10.1481 52.9616 10.2783 52.7614 10.3564 52.5107C10.4378 52.2568 10.4785 51.9753 10.4785 51.666ZM13.7256 54H12.8613L12.8613 48.1602C12.8613 47.7793 12.9215 47.4587 13.042 47.1982C13.1657 46.9346 13.3398 46.736 13.5645 46.6025C13.7923 46.4658 14.0625 46.3975 14.375 46.3975C14.4629 46.3975 14.5508 46.404 14.6387 46.417C14.7298 46.43 14.8161 46.4495 14.8975 46.4756L14.8584 47.2129C14.8063 47.1966 14.7428 47.1852 14.668 47.1787C14.5964 47.1722 14.528 47.1689 14.4629 47.1689C14.3066 47.1689 14.1732 47.208 14.0625 47.2861C13.9518 47.361 13.8672 47.4717 13.8086 47.6182C13.7533 47.7646 13.7256 47.9453 13.7256 48.1602L13.7256 54ZM14.624 48.7168V49.4102H12.1729V48.7168H14.624ZM16.5137 46.5V54H15.6494L15.6494 46.5H16.5137ZM19.1943 48.7168L17.3145 51.1826L16.1523 52.5205L16.0938 51.5586L16.8945 50.4551L18.1543 48.7168H19.1943ZM18.4033 54L16.9189 51.4805L17.3633 50.6748L19.4092 54H18.4033ZM21.084 46.5V54H20.2246V46.5H21.084ZM24.3408 54.0977C24.0251 54.0977 23.7402 54.0505 23.4863 53.9561C23.2324 53.8617 23.016 53.7184 22.8369 53.5264C22.6579 53.3311 22.5212 53.0853 22.4268 52.7891C22.3324 52.4928 22.2852 52.1429 22.2852 51.7393V51.1436C22.2852 50.6781 22.3389 50.2842 22.4463 49.9619C22.557 49.6396 22.7051 49.3809 22.8906 49.1855C23.0762 48.987 23.2861 48.8438 23.5205 48.7559C23.7549 48.6647 23.9958 48.6191 24.2432 48.6191C24.5752 48.6191 24.8584 48.6729 25.0928 48.7803C25.3271 48.8877 25.5176 49.0472 25.6641 49.2588C25.8105 49.4704 25.918 49.7308 25.9863 50.04C26.0579 50.3493 26.0938 50.7057 26.0938 51.1094V51.6123H22.793V50.875H25.2295V50.7529C25.2165 50.4795 25.179 50.2386 25.1172 50.0303C25.0586 49.8219 24.9609 49.6592 24.8242 49.542C24.6875 49.4215 24.4938 49.3613 24.2432 49.3613C24.0837 49.3613 23.9355 49.389 23.7988 49.4443C23.6654 49.4964 23.5498 49.5892 23.4521 49.7227C23.3577 49.8529 23.2829 50.0335 23.2275 50.2646C23.1755 50.4958 23.1494 50.7887 23.1494 51.1436V51.7393C23.1494 52.0225 23.1755 52.2666 23.2275 52.4717C23.2829 52.6735 23.3626 52.8411 23.4668 52.9746C23.5742 53.1048 23.7044 53.2025 23.8574 53.2676C24.0137 53.3294 24.1911 53.3604 24.3896 53.3604C24.6794 53.3604 24.9186 53.305 25.1074 53.1943C25.2962 53.0804 25.4606 52.9355 25.6006 52.7598L26.0547 53.3018C25.9603 53.4352 25.8366 53.5638 25.6836 53.6875C25.5339 53.8079 25.3483 53.9072 25.127 53.9854C24.9089 54.0602 24.6468 54.0977 24.3408 54.0977ZM27.1387 46.5L28.0029 46.5V52.9746L27.9297 54H27.1387V46.5ZM30.9668 51.1191V51.6123C30.9668 52.029 30.9277 52.3936 30.8496 52.7061C30.7747 53.0153 30.6624 53.2741 30.5127 53.4824C30.363 53.6875 30.1807 53.8421 29.9658 53.9463C29.751 54.0472 29.5052 54.0977 29.2285 54.0977C28.9551 54.0977 28.7191 54.0423 28.5205 53.9316C28.3219 53.821 28.1559 53.6615 28.0225 53.4531C27.889 53.2448 27.7832 52.9925 27.7051 52.6963C27.6302 52.4001 27.5781 52.0664 27.5488 51.6953V51.0361C27.5781 50.6618 27.6302 50.3265 27.7051 50.0303C27.7799 49.7308 27.8841 49.4769 28.0176 49.2686C28.151 49.057 28.3171 48.8958 28.5156 48.7852C28.7142 48.6745 28.9502 48.6191 29.2236 48.6191C29.5036 48.6191 29.751 48.668 29.9658 48.7656C30.1839 48.8633 30.3662 49.0146 30.5127 49.2197C30.6624 49.4215 30.7747 49.6803 30.8496 49.9961C30.9277 50.3086 30.9668 50.6829 30.9668 51.1191ZM30.1025 51.6123V51.1191C30.1025 50.8262 30.083 50.5706 30.0439 50.3525C30.0081 50.1344 29.9479 49.9538 29.8633 49.8105C29.7786 49.6673 29.6647 49.5599 29.5215 49.4883C29.3815 49.4167 29.2074 49.3809 28.999 49.3809C28.8232 49.3809 28.6686 49.4167 28.5352 49.4883C28.4049 49.5599 28.2926 49.6576 28.1982 49.7812C28.1038 49.9017 28.0257 50.04 27.9639 50.1963C27.902 50.3493 27.8564 50.5088 27.8271 50.6748V52.0615C27.8695 52.2731 27.9362 52.4766 28.0273 52.6719C28.1217 52.8639 28.2487 53.0218 28.4082 53.1455C28.5677 53.2692 28.7663 53.3311 29.0039 53.3311C29.2025 53.3311 29.3701 53.2969 29.5068 53.2285C29.6468 53.1602 29.7607 53.056 29.8486 52.916C29.9365 52.7728 30 52.5938 30.0391 52.3789C30.0814 52.1608 30.1025 51.9053 30.1025 51.6123ZM33.96 54.0977C33.6442 54.0977 33.3594 54.0505 33.1055 53.9561C32.8516 53.8617 32.6351 53.7184 32.4561 53.5264C32.277 53.3311 32.1403 53.0853 32.0459 52.7891C31.9515 52.4928 31.9043 52.1429 31.9043 51.7393V51.1436C31.9043 50.6781 31.958 50.2842 32.0654 49.9619C32.1761 49.6396 32.3242 49.3809 32.5098 49.1855C32.6953 48.987 32.9053 48.8437 33.1396 48.7559C33.374 48.6647 33.6149 48.6191 33.8623 48.6191C34.1943 48.6191 34.4775 48.6729 34.7119 48.7803C34.9463 48.8877 35.1367 49.0472 35.2832 49.2588C35.4297 49.4704 35.5371 49.7308 35.6055 50.04C35.6771 50.3493 35.7129 50.7057 35.7129 51.1094V51.6123L32.4121 51.6123V50.875L34.8486 50.875V50.7529C34.8356 50.4795 34.7982 50.2386 34.7363 50.0303C34.6777 49.8219 34.5801 49.6592 34.4434 49.542C34.3066 49.4215 34.113 49.3613 33.8623 49.3613C33.7028 49.3613 33.5547 49.389 33.418 49.4443C33.2845 49.4964 33.1689 49.5892 33.0713 49.7227C32.9769 49.8529 32.902 50.0335 32.8467 50.2646C32.7946 50.4958 32.7686 50.7887 32.7686 51.1436V51.7393C32.7686 52.0225 32.7946 52.2666 32.8467 52.4717C32.902 52.6735 32.9818 52.8411 33.0859 52.9746C33.1934 53.1048 33.3236 53.2025 33.4766 53.2676C33.6328 53.3294 33.8102 53.3604 34.0088 53.3604C34.2985 53.3604 34.5378 53.305 34.7266 53.1943C34.9154 53.0804 35.0798 52.9355 35.2197 52.7598L35.6738 53.3018C35.5794 53.4352 35.4557 53.5638 35.3027 53.6875C35.153 53.8079 34.9674 53.9072 34.7461 53.9854C34.528 54.0602 34.266 54.0977 33.96 54.0977ZM37.6221 49.5469V54H36.7578V48.7168H37.5928L37.6221 49.5469ZM38.9355 48.6875L38.9404 49.5273C38.8688 49.5111 38.8037 49.5013 38.7451 49.498C38.6898 49.4915 38.6247 49.4883 38.5498 49.4883C38.387 49.4883 38.2438 49.5208 38.1201 49.5859C37.9997 49.651 37.8955 49.7422 37.8076 49.8594C37.7197 49.9766 37.6497 50.1165 37.5977 50.2793C37.5456 50.4388 37.5098 50.6146 37.4902 50.8066L37.2656 50.9531C37.2656 50.6341 37.29 50.3346 37.3389 50.0547C37.391 49.7747 37.4707 49.5273 37.5781 49.3125C37.6855 49.0944 37.8223 48.9251 37.9883 48.8047C38.1576 48.681 38.3594 48.6191 38.5938 48.6191C38.6458 48.6191 38.7093 48.6273 38.7842 48.6436C38.8623 48.6566 38.9128 48.6712 38.9355 48.6875ZM42.3682 52.6475C42.3682 52.514 42.3356 52.3968 42.2705 52.2959C42.2054 52.195 42.098 52.0973 41.9482 52.0029C41.8018 51.9085 41.6032 51.8076 41.3525 51.7002C41.1084 51.5993 40.8887 51.5 40.6934 51.4023C40.5013 51.3014 40.3385 51.1924 40.2051 51.0752C40.0716 50.958 39.9691 50.8229 39.8975 50.6699C39.8291 50.5137 39.7949 50.3298 39.7949 50.1182C39.7949 49.9066 39.834 49.7113 39.9121 49.5322C39.9935 49.3499 40.1074 49.1904 40.2539 49.0537C40.4004 48.917 40.5762 48.8112 40.7812 48.7363C40.9863 48.6582 41.2158 48.6191 41.4697 48.6191C41.8311 48.6191 42.1387 48.6891 42.3926 48.8291C42.6465 48.9691 42.8402 49.1611 42.9736 49.4053C43.1104 49.6462 43.1787 49.918 43.1787 50.2207H42.3193C42.3193 50.0742 42.2868 49.9359 42.2217 49.8057C42.1566 49.6755 42.0605 49.5697 41.9336 49.4883C41.8066 49.4036 41.652 49.3613 41.4697 49.3613C41.2777 49.3613 41.1214 49.3955 41.001 49.4639C40.8805 49.5322 40.7926 49.6217 40.7373 49.7324C40.6852 49.8398 40.6592 49.9587 40.6592 50.0889C40.6592 50.1865 40.6722 50.2712 40.6982 50.3428C40.7275 50.4111 40.7764 50.4762 40.8447 50.5381C40.9131 50.5967 41.0059 50.6585 41.123 50.7236C41.2435 50.7855 41.3965 50.8571 41.582 50.9385C41.9401 51.0785 42.2412 51.2201 42.4854 51.3633C42.7295 51.5065 42.915 51.6742 43.042 51.8662C43.1689 52.0583 43.2324 52.2959 43.2324 52.5791C43.2324 52.8102 43.1901 53.0202 43.1055 53.209C43.0241 53.3945 42.9069 53.554 42.7539 53.6875C42.6009 53.821 42.417 53.9235 42.2021 53.9951C41.9906 54.0635 41.7529 54.0977 41.4893 54.0977C41.0921 54.0977 40.7552 54.0195 40.4785 53.8633C40.2051 53.7038 39.9967 53.4971 39.8535 53.2432C39.7135 52.986 39.6436 52.7109 39.6436 52.418H40.5078C40.5176 52.6654 40.5729 52.8574 40.6738 52.9941C40.778 53.1309 40.9033 53.2253 41.0498 53.2773C41.1963 53.3294 41.3428 53.3555 41.4893 53.3555C41.6813 53.3555 41.8424 53.3278 41.9727 53.2725C42.1029 53.2139 42.2005 53.1309 42.2656 53.0234C42.334 52.916 42.3682 52.7907 42.3682 52.6475Z" fill="url(#paint0_linear_1406_1489)"/>
<path d="M90.1221 41.5205L88.1787 48H87.2607L89.5508 40.8906H90.127L90.1221 41.5205ZM91.6943 48L89.751 41.5205L89.7412 40.8906H90.3223L92.6123 48H91.6943ZM91.6943 45.3682V46.1396H88.2666V45.3682H91.6943ZM96.084 46.7793V42.7168H96.9482V48H96.1279L96.084 46.7793ZM96.2451 45.666L96.5869 45.6562C96.5869 46.0078 96.556 46.3333 96.4941 46.6328C96.4355 46.929 96.3379 47.1862 96.2012 47.4043C96.0677 47.6224 95.8903 47.7933 95.6689 47.917C95.4476 48.0374 95.1758 48.0977 94.8535 48.0977C94.6354 48.0977 94.4368 48.0602 94.2578 47.9854C94.082 47.9105 93.929 47.7949 93.7988 47.6387C93.6719 47.4824 93.5726 47.279 93.501 47.0283C93.4326 46.7777 93.3984 46.4766 93.3984 46.125V42.7168H94.2578V46.1348C94.2578 46.3724 94.279 46.5693 94.3213 46.7256C94.3636 46.8786 94.4206 47.0007 94.4922 47.0918C94.5638 47.1797 94.6436 47.2415 94.7314 47.2773C94.8193 47.3132 94.9089 47.3311 95 47.3311C95.306 47.3311 95.5501 47.2578 95.7324 47.1113C95.9147 46.9616 96.0449 46.7614 96.123 46.5107C96.2044 46.2568 96.2451 45.9753 96.2451 45.666ZM100.176 42.7168V43.4102H97.71V42.7168H100.176ZM98.5156 41.4326H99.3799V46.6914C99.3799 46.8704 99.401 47.0055 99.4434 47.0967C99.4889 47.1878 99.5459 47.248 99.6143 47.2773C99.6826 47.3066 99.7559 47.3213 99.834 47.3213C99.8926 47.3213 99.9577 47.3148 100.029 47.3018C100.101 47.2855 100.15 47.2725 100.176 47.2627L100.171 48C100.112 48.0228 100.034 48.0439 99.9365 48.0635C99.8389 48.0863 99.7152 48.0977 99.5654 48.0977C99.3799 48.0977 99.2074 48.0537 99.0479 47.9658C98.8883 47.8779 98.7598 47.7314 98.6621 47.5264C98.5645 47.318 98.5156 47.0381 98.5156 46.6865V41.4326ZM100.928 45.6123V45.1094C100.928 44.6992 100.98 44.3395 101.084 44.0303C101.188 43.7178 101.333 43.4574 101.519 43.249C101.704 43.0407 101.921 42.8844 102.168 42.7803C102.415 42.6729 102.681 42.6191 102.964 42.6191C103.254 42.6191 103.522 42.6729 103.77 42.7803C104.017 42.8844 104.233 43.0407 104.419 43.249C104.608 43.4574 104.754 43.7178 104.858 44.0303C104.963 44.3395 105.015 44.6992 105.015 45.1094V45.6123C105.015 46.0225 104.963 46.3838 104.858 46.6963C104.754 47.0055 104.609 47.2643 104.424 47.4727C104.238 47.681 104.022 47.8372 103.774 47.9414C103.527 48.0456 103.26 48.0977 102.974 48.0977C102.687 48.0977 102.42 48.0456 102.173 47.9414C101.925 47.8372 101.707 47.681 101.519 47.4727C101.333 47.2643 101.188 47.0055 101.084 46.6963C100.98 46.3838 100.928 46.0225 100.928 45.6123ZM101.792 45.1094V45.6123C101.792 45.902 101.821 46.1559 101.88 46.374C101.938 46.5921 102.021 46.7744 102.129 46.9209C102.236 47.0674 102.362 47.1781 102.505 47.2529C102.648 47.3245 102.804 47.3604 102.974 47.3604C103.169 47.3604 103.34 47.3245 103.486 47.2529C103.636 47.1781 103.76 47.0674 103.857 46.9209C103.955 46.7744 104.028 46.5921 104.077 46.374C104.126 46.1559 104.15 45.902 104.15 45.6123V45.1094C104.15 44.8197 104.121 44.5674 104.062 44.3525C104.004 44.1344 103.921 43.9521 103.813 43.8057C103.706 43.6559 103.579 43.5452 103.433 43.4736C103.289 43.3988 103.133 43.3613 102.964 43.3613C102.798 43.3613 102.643 43.3988 102.5 43.4736C102.357 43.5452 102.231 43.6559 102.124 43.8057C102.02 43.9521 101.938 44.1344 101.88 44.3525C101.821 44.5674 101.792 44.8197 101.792 45.1094ZM106.992 43.8447V48H106.128V42.7168H106.943L106.992 43.8447ZM106.782 45.1582L106.431 45.1436C106.427 44.7822 106.468 44.4486 106.553 44.1426C106.641 43.8333 106.764 43.5648 106.924 43.3369C107.087 43.109 107.28 42.9333 107.505 42.8096C107.729 42.6826 107.979 42.6191 108.252 42.6191C108.467 42.6191 108.662 42.6549 108.838 42.7266C109.014 42.7949 109.163 42.9056 109.287 43.0586C109.411 43.2116 109.505 43.4102 109.57 43.6543C109.639 43.8952 109.673 44.1898 109.673 44.5381V48H108.809V44.5283C108.809 44.2516 108.778 44.0303 108.716 43.8643C108.657 43.695 108.566 43.5729 108.442 43.498C108.322 43.4199 108.169 43.3809 107.983 43.3809C107.814 43.3809 107.656 43.4281 107.51 43.5225C107.363 43.6169 107.235 43.7471 107.124 43.9131C107.017 44.0791 106.932 44.2695 106.87 44.4844C106.812 44.696 106.782 44.9206 106.782 45.1582ZM113.643 46.7793V42.7168H114.507V48H113.687L113.643 46.7793ZM113.804 45.666L114.146 45.6562C114.146 46.0078 114.115 46.3333 114.053 46.6328C113.994 46.929 113.896 47.1862 113.76 47.4043C113.626 47.6224 113.449 47.7933 113.228 47.917C113.006 48.0374 112.734 48.0977 112.412 48.0977C112.194 48.0977 111.995 48.0602 111.816 47.9854C111.641 47.9105 111.488 47.7949 111.357 47.6387C111.23 47.4824 111.131 47.279 111.06 47.0283C110.991 46.7777 110.957 46.4766 110.957 46.125V42.7168H111.816V46.1348C111.816 46.3724 111.838 46.5693 111.88 46.7256C111.922 46.8786 111.979 47.0007 112.051 47.0918C112.122 47.1797 112.202 47.2415 112.29 47.2773C112.378 47.3132 112.467 47.3311 112.559 47.3311C112.865 47.3311 113.109 47.2578 113.291 47.1113C113.473 46.9616 113.604 46.7614 113.682 46.5107C113.763 46.2568 113.804 45.9753 113.804 45.666ZM116.67 43.7666V48H115.811V42.7168H116.621L116.67 43.7666ZM116.494 45.1582L116.094 45.1436C116.09 44.7822 116.126 44.4486 116.201 44.1426C116.276 43.8333 116.388 43.5648 116.538 43.3369C116.691 43.109 116.882 42.9333 117.109 42.8096C117.34 42.6826 117.609 42.6191 117.915 42.6191C118.117 42.6191 118.304 42.6549 118.477 42.7266C118.652 42.7949 118.805 42.904 118.936 43.0537C119.066 43.2035 119.167 43.3955 119.238 43.6299C119.313 43.8643 119.351 44.1475 119.351 44.4795V48H118.486V44.5234C118.486 44.2467 118.449 44.0254 118.374 43.8594C118.302 43.6934 118.2 43.5729 118.066 43.498C117.933 43.4199 117.773 43.3809 117.588 43.3809C117.376 43.3809 117.199 43.4281 117.056 43.5225C116.916 43.6169 116.803 43.7471 116.719 43.9131C116.637 44.0791 116.579 44.2695 116.543 44.4844C116.51 44.696 116.494 44.9206 116.494 45.1582ZM119.341 44.6602L118.765 44.8457C118.761 44.556 118.797 44.2777 118.872 44.0107C118.947 43.7438 119.058 43.5062 119.204 43.2979C119.354 43.0895 119.539 42.9251 119.761 42.8047C119.982 42.681 120.239 42.6191 120.532 42.6191C120.773 42.6191 120.986 42.6566 121.172 42.7314C121.357 42.8063 121.514 42.9219 121.641 43.0781C121.771 43.2311 121.868 43.4281 121.934 43.6689C121.999 43.9098 122.031 44.1963 122.031 44.5283V48H121.167V44.5186C121.167 44.2223 121.13 43.9928 121.055 43.8301C120.983 43.6641 120.881 43.5485 120.747 43.4834C120.614 43.415 120.454 43.3809 120.269 43.3809C120.119 43.3809 119.985 43.415 119.868 43.4834C119.754 43.5518 119.658 43.6462 119.58 43.7666C119.502 43.8838 119.442 44.0189 119.399 44.1719C119.36 44.3249 119.341 44.4876 119.341 44.6602ZM124.199 43.7666V48H123.34V42.7168H124.15L124.199 43.7666ZM124.023 45.1582L123.623 45.1436C123.62 44.7822 123.656 44.4486 123.73 44.1426C123.805 43.8333 123.918 43.5648 124.067 43.3369C124.22 43.109 124.411 42.9333 124.639 42.8096C124.87 42.6826 125.138 42.6191 125.444 42.6191C125.646 42.6191 125.833 42.6549 126.006 42.7266C126.182 42.7949 126.335 42.904 126.465 43.0537C126.595 43.2035 126.696 43.3955 126.768 43.6299C126.842 43.8643 126.88 44.1475 126.88 44.4795V48H126.016V44.5234C126.016 44.2467 125.978 44.0254 125.903 43.8594C125.832 43.6934 125.729 43.5729 125.596 43.498C125.462 43.4199 125.303 43.3809 125.117 43.3809C124.906 43.3809 124.728 43.4281 124.585 43.5225C124.445 43.6169 124.333 43.7471 124.248 43.9131C124.167 44.0791 124.108 44.2695 124.072 44.4844C124.04 44.696 124.023 44.9206 124.023 45.1582ZM126.87 44.6602L126.294 44.8457C126.291 44.556 126.326 44.2777 126.401 44.0107C126.476 43.7438 126.587 43.5062 126.733 43.2979C126.883 43.0895 127.069 42.9251 127.29 42.8047C127.511 42.681 127.769 42.6191 128.062 42.6191C128.302 42.6191 128.516 42.6566 128.701 42.7314C128.887 42.8063 129.043 42.9219 129.17 43.0781C129.3 43.2311 129.398 43.4281 129.463 43.6689C129.528 43.9098 129.561 44.1963 129.561 44.5283V48H128.696V44.5186C128.696 44.2223 128.659 43.9928 128.584 43.8301C128.512 43.6641 128.41 43.5485 128.276 43.4834C128.143 43.415 127.983 43.3809 127.798 43.3809C127.648 43.3809 127.515 43.415 127.397 43.4834C127.284 43.5518 127.188 43.6462 127.109 43.7666C127.031 43.8838 126.971 44.0189 126.929 44.1719C126.89 44.3249 126.87 44.4876 126.87 44.6602ZM132.754 48.0977C132.438 48.0977 132.153 48.0505 131.899 47.9561C131.646 47.8617 131.429 47.7184 131.25 47.5264C131.071 47.3311 130.934 47.0853 130.84 46.7891C130.745 46.4928 130.698 46.1429 130.698 45.7393V45.1436C130.698 44.6781 130.752 44.2842 130.859 43.9619C130.97 43.6396 131.118 43.3809 131.304 43.1855C131.489 42.987 131.699 42.8437 131.934 42.7559C132.168 42.6647 132.409 42.6191 132.656 42.6191C132.988 42.6191 133.271 42.6729 133.506 42.7803C133.74 42.8877 133.931 43.0472 134.077 43.2588C134.224 43.4704 134.331 43.7308 134.399 44.04C134.471 44.3493 134.507 44.7057 134.507 45.1094V45.6123H131.206V44.875H133.643V44.7529C133.63 44.4795 133.592 44.2386 133.53 44.0303C133.472 43.8219 133.374 43.6592 133.237 43.542C133.101 43.4215 132.907 43.3613 132.656 43.3613C132.497 43.3613 132.349 43.389 132.212 43.4443C132.078 43.4964 131.963 43.5892 131.865 43.7227C131.771 43.8529 131.696 44.0335 131.641 44.2646C131.589 44.4958 131.562 44.7887 131.562 45.1436V45.7393C131.562 46.0225 131.589 46.2666 131.641 46.4717C131.696 46.6735 131.776 46.8411 131.88 46.9746C131.987 47.1048 132.118 47.2025 132.271 47.2676C132.427 47.3294 132.604 47.3604 132.803 47.3604C133.092 47.3604 133.332 47.305 133.521 47.1943C133.709 47.0804 133.874 46.9355 134.014 46.7598L134.468 47.3018C134.373 47.4352 134.25 47.5638 134.097 47.6875C133.947 47.8079 133.761 47.9072 133.54 47.9854C133.322 48.0602 133.06 48.0977 132.754 48.0977ZM136.416 43.5469V48H135.552V42.7168H136.387L136.416 43.5469ZM137.729 42.6875L137.734 43.5273C137.663 43.5111 137.598 43.5013 137.539 43.498C137.484 43.4915 137.419 43.4883 137.344 43.4883C137.181 43.4883 137.038 43.5208 136.914 43.5859C136.794 43.651 136.689 43.7422 136.602 43.8594C136.514 43.9766 136.444 44.1165 136.392 44.2793C136.34 44.4388 136.304 44.6146 136.284 44.8066L136.06 44.9531C136.06 44.6341 136.084 44.3346 136.133 44.0547C136.185 43.7747 136.265 43.5273 136.372 43.3125C136.479 43.0944 136.616 42.9251 136.782 42.8047C136.951 42.681 137.153 42.6191 137.388 42.6191C137.44 42.6191 137.503 42.6273 137.578 42.6436C137.656 42.6566 137.707 42.6712 137.729 42.6875Z" fill="#E0E0E9"/>
<path d="M168.835 40.8906H170.822C171.285 40.8906 171.672 40.972 171.984 41.1348C172.3 41.2975 172.538 41.5384 172.697 41.8574C172.86 42.1732 172.941 42.5622 172.941 43.0244C172.941 43.3499 172.888 43.6478 172.78 43.918C172.673 44.1849 172.517 44.4128 172.312 44.6016C172.106 44.7871 171.857 44.9255 171.564 45.0166L171.32 45.1191H169.548L169.538 44.3525H170.812C171.086 44.3525 171.314 44.2939 171.496 44.1768C171.678 44.0563 171.815 43.8952 171.906 43.6934C171.997 43.4915 172.043 43.2686 172.043 43.0244C172.043 42.751 172.002 42.5117 171.921 42.3066C171.84 42.1016 171.709 41.9437 171.53 41.833C171.354 41.7191 171.118 41.6621 170.822 41.6621H169.733V48H168.835V40.8906ZM172.248 48L170.832 44.7773L171.765 44.7725L173.21 47.9414V48H172.248ZM175.915 48.0977C175.599 48.0977 175.314 48.0505 175.061 47.9561C174.807 47.8617 174.59 47.7184 174.411 47.5264C174.232 47.3311 174.095 47.0853 174.001 46.7891C173.907 46.4928 173.859 46.1429 173.859 45.7393V45.1436C173.859 44.6781 173.913 44.2842 174.021 43.9619C174.131 43.6396 174.279 43.3809 174.465 43.1855C174.65 42.987 174.86 42.8438 175.095 42.7559C175.329 42.6647 175.57 42.6191 175.817 42.6191C176.149 42.6191 176.433 42.6729 176.667 42.7803C176.901 42.8877 177.092 43.0472 177.238 43.2588C177.385 43.4704 177.492 43.7308 177.561 44.04C177.632 44.3493 177.668 44.7057 177.668 45.1094V45.6123H174.367V44.875H176.804V44.7529C176.791 44.4795 176.753 44.2386 176.691 44.0303C176.633 43.8219 176.535 43.6592 176.398 43.542C176.262 43.4215 176.068 43.3613 175.817 43.3613C175.658 43.3613 175.51 43.389 175.373 43.4443C175.24 43.4964 175.124 43.5892 175.026 43.7227C174.932 43.8529 174.857 44.0335 174.802 44.2646C174.75 44.4958 174.724 44.7887 174.724 45.1436V45.7393C174.724 46.0225 174.75 46.2666 174.802 46.4717C174.857 46.6735 174.937 46.8411 175.041 46.9746C175.148 47.1048 175.279 47.2025 175.432 47.2676C175.588 47.3294 175.765 47.3604 175.964 47.3604C176.254 47.3604 176.493 47.305 176.682 47.1943C176.87 47.0804 177.035 46.9355 177.175 46.7598L177.629 47.3018C177.535 47.4352 177.411 47.5638 177.258 47.6875C177.108 47.8079 176.923 47.9072 176.701 47.9854C176.483 48.0602 176.221 48.0977 175.915 48.0977ZM180.544 47.3604C180.716 47.3604 180.873 47.3262 181.013 47.2578C181.156 47.1862 181.273 47.0755 181.364 46.9258C181.455 46.7728 181.507 46.5742 181.521 46.3301H182.331C182.318 46.6816 182.229 46.9909 182.062 47.2578C181.9 47.5215 181.685 47.7282 181.418 47.8779C181.154 48.0244 180.863 48.0977 180.544 48.0977C180.202 48.0977 179.904 48.0423 179.65 47.9316C179.4 47.821 179.191 47.6615 179.025 47.4531C178.863 47.2415 178.741 46.986 178.659 46.6865C178.578 46.3838 178.537 46.0404 178.537 45.6562V45.0605C178.537 44.6764 178.578 44.3346 178.659 44.0352C178.741 43.7324 178.863 43.4769 179.025 43.2686C179.191 43.057 179.4 42.8958 179.65 42.7852C179.904 42.6745 180.202 42.6191 180.544 42.6191C180.902 42.6191 181.211 42.6956 181.472 42.8486C181.735 42.9984 181.94 43.2165 182.087 43.5029C182.237 43.7861 182.318 44.1296 182.331 44.5332H181.521C181.507 44.2728 181.46 44.0563 181.379 43.8838C181.298 43.708 181.187 43.5778 181.047 43.4932C180.907 43.4053 180.739 43.3613 180.544 43.3613C180.316 43.3613 180.127 43.402 179.978 43.4834C179.831 43.5615 179.715 43.6755 179.631 43.8252C179.546 43.9749 179.486 44.154 179.45 44.3623C179.418 44.5706 179.401 44.8034 179.401 45.0605V45.6562C179.401 45.9134 179.418 46.1478 179.45 46.3594C179.486 46.5677 179.545 46.7467 179.626 46.8965C179.711 47.0462 179.828 47.1618 179.978 47.2432C180.127 47.3213 180.316 47.3604 180.544 47.3604ZM184.196 40.5V48H183.332V40.5H184.196ZM183.986 45.1582L183.635 45.1436C183.632 44.7822 183.672 44.4486 183.757 44.1426C183.845 43.8333 183.968 43.5648 184.128 43.3369C184.291 43.109 184.484 42.9333 184.709 42.8096C184.934 42.6826 185.183 42.6191 185.456 42.6191C185.671 42.6191 185.866 42.6549 186.042 42.7266C186.218 42.7949 186.368 42.9056 186.491 43.0586C186.615 43.2116 186.709 43.4102 186.774 43.6543C186.843 43.8952 186.877 44.1898 186.877 44.5381V48H186.013V44.5283C186.013 44.2516 185.982 44.0303 185.92 43.8643C185.861 43.695 185.77 43.5729 185.646 43.498C185.526 43.4199 185.373 43.3809 185.188 43.3809C185.018 43.3809 184.86 43.4281 184.714 43.5225C184.567 43.6169 184.439 43.7471 184.328 43.9131C184.221 44.0791 184.136 44.2695 184.074 44.4844C184.016 44.696 183.986 44.9206 183.986 45.1582ZM189.03 43.8447V48H188.166V42.7168H188.981L189.03 43.8447ZM188.82 45.1582L188.469 45.1436C188.465 44.7822 188.506 44.4486 188.591 44.1426C188.679 43.8333 188.802 43.5648 188.962 43.3369C189.125 43.109 189.318 42.9333 189.543 42.8096C189.768 42.6826 190.017 42.6191 190.29 42.6191C190.505 42.6191 190.7 42.6549 190.876 42.7266C191.052 42.7949 191.201 42.9056 191.325 43.0586C191.449 43.2116 191.543 43.4102 191.608 43.6543C191.677 43.8952 191.711 44.1898 191.711 44.5381V48H190.847V44.5283C190.847 44.2516 190.816 44.0303 190.754 43.8643C190.695 43.695 190.604 43.5729 190.48 43.498C190.36 43.4199 190.207 43.3809 190.021 43.3809C189.852 43.3809 189.694 43.4281 189.548 43.5225C189.401 43.6169 189.273 43.7471 189.162 43.9131C189.055 44.0791 188.97 44.2695 188.908 44.4844C188.85 44.696 188.82 44.9206 188.82 45.1582ZM195.681 46.7793V42.7168H196.545V48H195.725L195.681 46.7793ZM195.842 45.666L196.184 45.6562C196.184 46.0078 196.153 46.3333 196.091 46.6328C196.032 46.929 195.935 47.1862 195.798 47.4043C195.664 47.6224 195.487 47.7933 195.266 47.917C195.044 48.0374 194.772 48.0977 194.45 48.0977C194.232 48.0977 194.034 48.0602 193.854 47.9854C193.679 47.9105 193.526 47.7949 193.396 47.6387C193.269 47.4824 193.169 47.279 193.098 47.0283C193.029 46.7777 192.995 46.4766 192.995 46.125V42.7168H193.854V46.1348C193.854 46.3724 193.876 46.5693 193.918 46.7256C193.96 46.8786 194.017 47.0007 194.089 47.0918C194.16 47.1797 194.24 47.2415 194.328 47.2773C194.416 47.3132 194.506 47.3311 194.597 47.3311C194.903 47.3311 195.147 47.2578 195.329 47.1113C195.511 46.9616 195.642 46.7614 195.72 46.5107C195.801 46.2568 195.842 45.9753 195.842 45.666ZM198.708 43.8447V48H197.844V42.7168H198.659L198.708 43.8447ZM198.498 45.1582L198.146 45.1436C198.143 44.7822 198.184 44.4486 198.269 44.1426C198.356 43.8333 198.48 43.5648 198.64 43.3369C198.802 43.109 198.996 42.9333 199.221 42.8096C199.445 42.6826 199.694 42.6191 199.968 42.6191C200.183 42.6191 200.378 42.6549 200.554 42.7266C200.729 42.7949 200.879 42.9056 201.003 43.0586C201.127 43.2116 201.221 43.4102 201.286 43.6543C201.354 43.8952 201.389 44.1898 201.389 44.5381V48H200.524V44.5283C200.524 44.2516 200.493 44.0303 200.432 43.8643C200.373 43.695 200.282 43.5729 200.158 43.498C200.038 43.4199 199.885 43.3809 199.699 43.3809C199.53 43.3809 199.372 43.4281 199.226 43.5225C199.079 43.6169 198.951 43.7471 198.84 43.9131C198.732 44.0791 198.648 44.2695 198.586 44.4844C198.527 44.696 198.498 44.9206 198.498 45.1582ZM205.549 42.7168H206.325V48.0439C206.325 48.5094 206.244 48.8936 206.081 49.1963C205.922 49.499 205.699 49.722 205.412 49.8652C205.126 50.0117 204.795 50.085 204.421 50.085C204.287 50.085 204.12 50.0605 203.918 50.0117C203.716 49.9629 203.514 49.888 203.312 49.7871C203.111 49.6895 202.945 49.5658 202.814 49.416L203.171 48.8154C203.356 49.0042 203.553 49.1393 203.762 49.2207C203.97 49.3021 204.169 49.3428 204.357 49.3428C204.582 49.3428 204.777 49.3021 204.943 49.2207C205.109 49.1393 205.238 49.0059 205.329 48.8203C205.42 48.638 205.466 48.3939 205.466 48.0879V43.8789L205.549 42.7168ZM202.512 45.6123V45.1191C202.512 44.6829 202.552 44.3086 202.634 43.9961C202.715 43.6803 202.832 43.4215 202.985 43.2197C203.142 43.0146 203.329 42.8633 203.547 42.7656C203.765 42.668 204.009 42.6191 204.279 42.6191C204.553 42.6191 204.789 42.6745 204.987 42.7852C205.186 42.8958 205.35 43.057 205.48 43.2686C205.614 43.4769 205.718 43.7308 205.793 44.0303C205.871 44.3265 205.925 44.6618 205.954 45.0361V45.6953C205.925 46.0664 205.871 46.4001 205.793 46.6963C205.718 46.9925 205.612 47.2448 205.476 47.4531C205.342 47.6615 205.176 47.821 204.978 47.9316C204.779 48.0423 204.543 48.0977 204.27 48.0977C204.003 48.0977 203.762 48.0472 203.547 47.9463C203.332 47.8421 203.146 47.6875 202.99 47.4824C202.837 47.2741 202.718 47.0153 202.634 46.7061C202.552 46.3936 202.512 46.029 202.512 45.6123ZM203.376 45.1191V45.6123C203.376 45.9053 203.397 46.1608 203.439 46.3789C203.482 46.5937 203.547 46.7728 203.635 46.916C203.726 47.056 203.841 47.1602 203.981 47.2285C204.125 47.2969 204.296 47.3311 204.494 47.3311C204.735 47.3311 204.932 47.2725 205.085 47.1553C205.238 47.0381 205.36 46.8835 205.451 46.6914C205.546 46.4961 205.62 46.2861 205.676 46.0615V44.6748C205.643 44.5088 205.596 44.3493 205.534 44.1963C205.476 44.04 205.399 43.9017 205.305 43.7812C205.21 43.6576 205.096 43.5599 204.963 43.4883C204.833 43.4167 204.68 43.3809 204.504 43.3809C204.305 43.3809 204.134 43.4167 203.991 43.4883C203.848 43.5599 203.731 43.6673 203.64 43.8105C203.549 43.9538 203.482 44.1344 203.439 44.3525C203.397 44.5706 203.376 44.8262 203.376 45.1191ZM210.183 46.6475C210.183 46.514 210.15 46.3968 210.085 46.2959C210.02 46.195 209.912 46.0973 209.763 46.0029C209.616 45.9085 209.418 45.8076 209.167 45.7002C208.923 45.5993 208.703 45.5 208.508 45.4023C208.316 45.3014 208.153 45.1924 208.02 45.0752C207.886 44.958 207.784 44.8229 207.712 44.6699C207.644 44.5137 207.609 44.3298 207.609 44.1182C207.609 43.9066 207.648 43.7113 207.727 43.5322C207.808 43.3499 207.922 43.1904 208.068 43.0537C208.215 42.917 208.391 42.8112 208.596 42.7363C208.801 42.6582 209.03 42.6191 209.284 42.6191C209.646 42.6191 209.953 42.6891 210.207 42.8291C210.461 42.9691 210.655 43.1611 210.788 43.4053C210.925 43.6462 210.993 43.918 210.993 44.2207H210.134C210.134 44.0742 210.101 43.9359 210.036 43.8057C209.971 43.6755 209.875 43.5697 209.748 43.4883C209.621 43.4036 209.466 43.3613 209.284 43.3613C209.092 43.3613 208.936 43.3955 208.815 43.4639C208.695 43.5322 208.607 43.6217 208.552 43.7324C208.5 43.8398 208.474 43.9587 208.474 44.0889C208.474 44.1865 208.487 44.2712 208.513 44.3428C208.542 44.4111 208.591 44.4762 208.659 44.5381C208.728 44.5967 208.82 44.6585 208.938 44.7236C209.058 44.7855 209.211 44.8571 209.396 44.9385C209.755 45.0785 210.056 45.2201 210.3 45.3633C210.544 45.5065 210.729 45.6742 210.856 45.8662C210.983 46.0583 211.047 46.2959 211.047 46.5791C211.047 46.8102 211.005 47.0202 210.92 47.209C210.839 47.3945 210.721 47.554 210.568 47.6875C210.415 47.821 210.231 47.9235 210.017 47.9951C209.805 48.0635 209.567 48.0977 209.304 48.0977C208.907 48.0977 208.57 48.0195 208.293 47.8633C208.02 47.7038 207.811 47.4971 207.668 47.2432C207.528 46.986 207.458 46.7109 207.458 46.418H208.322C208.332 46.6654 208.387 46.8574 208.488 46.9941C208.592 47.1309 208.718 47.2253 208.864 47.2773C209.011 47.3294 209.157 47.3555 209.304 47.3555C209.496 47.3555 209.657 47.3278 209.787 47.2725C209.917 47.2139 210.015 47.1309 210.08 47.0234C210.148 46.916 210.183 46.7907 210.183 46.6475ZM214.743 46.6475C214.743 46.514 214.711 46.3968 214.646 46.2959C214.58 46.195 214.473 46.0973 214.323 46.0029C214.177 45.9085 213.978 45.8076 213.728 45.7002C213.483 45.5993 213.264 45.5 213.068 45.4023C212.876 45.3014 212.714 45.1924 212.58 45.0752C212.447 44.958 212.344 44.8229 212.272 44.6699C212.204 44.5137 212.17 44.3298 212.17 44.1182C212.17 43.9066 212.209 43.7113 212.287 43.5322C212.368 43.3499 212.482 43.1904 212.629 43.0537C212.775 42.917 212.951 42.8112 213.156 42.7363C213.361 42.6582 213.591 42.6191 213.845 42.6191C214.206 42.6191 214.514 42.6891 214.768 42.8291C215.021 42.9691 215.215 43.1611 215.349 43.4053C215.485 43.6462 215.554 43.918 215.554 44.2207H214.694C214.694 44.0742 214.662 43.9359 214.597 43.8057C214.532 43.6755 214.436 43.5697 214.309 43.4883C214.182 43.4036 214.027 43.3613 213.845 43.3613C213.653 43.3613 213.496 43.3955 213.376 43.4639C213.256 43.5322 213.168 43.6217 213.112 43.7324C213.06 43.8398 213.034 43.9587 213.034 44.0889C213.034 44.1865 213.047 44.2712 213.073 44.3428C213.103 44.4111 213.151 44.4762 213.22 44.5381C213.288 44.5967 213.381 44.6585 213.498 44.7236C213.618 44.7855 213.771 44.8571 213.957 44.9385C214.315 45.0785 214.616 45.2201 214.86 45.3633C215.104 45.5065 215.29 45.6742 215.417 45.8662C215.544 46.0583 215.607 46.2959 215.607 46.5791C215.607 46.8102 215.565 47.0202 215.48 47.209C215.399 47.3945 215.282 47.554 215.129 47.6875C214.976 47.821 214.792 47.9235 214.577 47.9951C214.366 48.0635 214.128 48.0977 213.864 48.0977C213.467 48.0977 213.13 48.0195 212.854 47.8633C212.58 47.7038 212.372 47.4971 212.229 47.2432C212.089 46.986 212.019 46.7109 212.019 46.418H212.883C212.893 46.6654 212.948 46.8574 213.049 46.9941C213.153 47.1309 213.278 47.2253 213.425 47.2773C213.571 47.3294 213.718 47.3555 213.864 47.3555C214.056 47.3555 214.217 47.3278 214.348 47.2725C214.478 47.2139 214.576 47.1309 214.641 47.0234C214.709 46.916 214.743 46.7907 214.743 46.6475ZM218.669 42.7168V43.4102H216.203V42.7168H218.669ZM217.009 41.4326H217.873V46.6914C217.873 46.8704 217.894 47.0055 217.937 47.0967C217.982 47.1878 218.039 47.248 218.107 47.2773C218.176 47.3066 218.249 47.3213 218.327 47.3213C218.386 47.3213 218.451 47.3148 218.522 47.3018C218.594 47.2855 218.643 47.2725 218.669 47.2627L218.664 48C218.605 48.0228 218.527 48.0439 218.43 48.0635C218.332 48.0863 218.208 48.0977 218.059 48.0977C217.873 48.0977 217.701 48.0537 217.541 47.9658C217.382 47.8779 217.253 47.7314 217.155 47.5264C217.058 47.318 217.009 47.0381 217.009 46.6865V41.4326ZM221.589 48.0977C221.273 48.0977 220.988 48.0505 220.734 47.9561C220.48 47.8617 220.264 47.7184 220.085 47.5264C219.906 47.3311 219.769 47.0853 219.675 46.7891C219.58 46.4928 219.533 46.1429 219.533 45.7393V45.1436C219.533 44.6781 219.587 44.2842 219.694 43.9619C219.805 43.6396 219.953 43.3809 220.139 43.1855C220.324 42.987 220.534 42.8437 220.769 42.7559C221.003 42.6647 221.244 42.6191 221.491 42.6191C221.823 42.6191 222.106 42.6729 222.341 42.7803C222.575 42.8877 222.766 43.0472 222.912 43.2588C223.059 43.4704 223.166 43.7308 223.234 44.04C223.306 44.3493 223.342 44.7057 223.342 45.1094V45.6123H220.041V44.875H222.478V44.7529C222.465 44.4795 222.427 44.2386 222.365 44.0303C222.307 43.8219 222.209 43.6592 222.072 43.542C221.936 43.4215 221.742 43.3613 221.491 43.3613C221.332 43.3613 221.184 43.389 221.047 43.4443C220.913 43.4964 220.798 43.5892 220.7 43.7227C220.606 43.8529 220.531 44.0335 220.476 44.2646C220.424 44.4958 220.397 44.7887 220.397 45.1436V45.7393C220.397 46.0225 220.424 46.2666 220.476 46.4717C220.531 46.6735 220.611 46.8411 220.715 46.9746C220.822 47.1048 220.952 47.2025 221.105 47.2676C221.262 47.3294 221.439 47.3604 221.638 47.3604C221.927 47.3604 222.167 47.305 222.355 47.1943C222.544 47.0804 222.709 46.9355 222.849 46.7598L223.303 47.3018C223.208 47.4352 223.085 47.5638 222.932 47.6875C222.782 47.8079 222.596 47.9072 222.375 47.9854C222.157 48.0602 221.895 48.0977 221.589 48.0977ZM225.314 40.5V48H224.455V40.5H225.314ZM227.609 40.5V48H226.75V40.5H227.609ZM231.647 46.7793V42.7168H232.512V48H231.691L231.647 46.7793ZM231.809 45.666L232.15 45.6562C232.15 46.0078 232.119 46.3333 232.058 46.6328C231.999 46.929 231.901 47.1862 231.765 47.4043C231.631 47.6224 231.454 47.7933 231.232 47.917C231.011 48.0374 230.739 48.0977 230.417 48.0977C230.199 48.0977 230 48.0602 229.821 47.9854C229.646 47.9105 229.493 47.7949 229.362 47.6387C229.235 47.4824 229.136 47.279 229.064 47.0283C228.996 46.7777 228.962 46.4766 228.962 46.125V42.7168H229.821V46.1348C229.821 46.3724 229.842 46.5693 229.885 46.7256C229.927 46.8786 229.984 47.0007 230.056 47.0918C230.127 47.1797 230.207 47.2415 230.295 47.2773C230.383 47.3132 230.472 47.3311 230.563 47.3311C230.869 47.3311 231.114 47.2578 231.296 47.1113C231.478 46.9616 231.608 46.7614 231.687 46.5107C231.768 46.2568 231.809 45.9753 231.809 45.666ZM234.675 43.8447V48H233.811V42.7168H234.626L234.675 43.8447ZM234.465 45.1582L234.113 45.1436C234.11 44.7822 234.151 44.4486 234.235 44.1426C234.323 43.8333 234.447 43.5648 234.606 43.3369C234.769 43.109 234.963 42.9333 235.188 42.8096C235.412 42.6826 235.661 42.6191 235.935 42.6191C236.149 42.6191 236.345 42.6549 236.521 42.7266C236.696 42.7949 236.846 42.9056 236.97 43.0586C237.093 43.2116 237.188 43.4102 237.253 43.6543C237.321 43.8952 237.355 44.1898 237.355 44.5381V48H236.491V44.5283C236.491 44.2516 236.46 44.0303 236.398 43.8643C236.34 43.695 236.249 43.5729 236.125 43.498C236.005 43.4199 235.852 43.3809 235.666 43.3809C235.497 43.3809 235.339 43.4281 235.192 43.5225C235.046 43.6169 234.917 43.7471 234.807 43.9131C234.699 44.0791 234.615 44.2695 234.553 44.4844C234.494 44.696 234.465 44.9206 234.465 45.1582ZM241.516 42.7168H242.292V48.0439C242.292 48.5094 242.211 48.8936 242.048 49.1963C241.888 49.499 241.665 49.722 241.379 49.8652C241.092 50.0117 240.762 50.085 240.388 50.085C240.254 50.085 240.087 50.0605 239.885 50.0117C239.683 49.9629 239.481 49.888 239.279 49.7871C239.077 49.6895 238.911 49.5658 238.781 49.416L239.138 48.8154C239.323 49.0042 239.52 49.1393 239.729 49.2207C239.937 49.3021 240.135 49.3428 240.324 49.3428C240.549 49.3428 240.744 49.3021 240.91 49.2207C241.076 49.1393 241.205 49.0059 241.296 48.8203C241.387 48.638 241.433 48.3939 241.433 48.0879V43.8789L241.516 42.7168ZM238.479 45.6123V45.1191C238.479 44.6829 238.519 44.3086 238.601 43.9961C238.682 43.6803 238.799 43.4215 238.952 43.2197C239.108 43.0146 239.296 42.8633 239.514 42.7656C239.732 42.668 239.976 42.6191 240.246 42.6191C240.52 42.6191 240.756 42.6745 240.954 42.7852C241.153 42.8958 241.317 43.057 241.447 43.2686C241.581 43.4769 241.685 43.7308 241.76 44.0303C241.838 44.3265 241.892 44.6618 241.921 45.0361V45.6953C241.892 46.0664 241.838 46.4001 241.76 46.6963C241.685 46.9925 241.579 47.2448 241.442 47.4531C241.309 47.6615 241.143 47.821 240.944 47.9316C240.746 48.0423 240.51 48.0977 240.236 48.0977C239.969 48.0977 239.729 48.0472 239.514 47.9463C239.299 47.8421 239.113 47.6875 238.957 47.4824C238.804 47.2741 238.685 47.0153 238.601 46.7061C238.519 46.3936 238.479 46.029 238.479 45.6123ZM239.343 45.1191V45.6123C239.343 45.9053 239.364 46.1608 239.406 46.3789C239.449 46.5937 239.514 46.7728 239.602 46.916C239.693 47.056 239.808 47.1602 239.948 47.2285C240.091 47.2969 240.262 47.3311 240.461 47.3311C240.702 47.3311 240.899 47.2725 241.052 47.1553C241.205 47.0381 241.327 46.8835 241.418 46.6914C241.512 46.4961 241.587 46.2861 241.643 46.0615V44.6748C241.61 44.5088 241.563 44.3493 241.501 44.1963C241.442 44.04 241.366 43.9017 241.271 43.7812C241.177 43.6576 241.063 43.5599 240.93 43.4883C240.799 43.4167 240.646 43.3809 240.471 43.3809C240.272 43.3809 240.101 43.4167 239.958 43.4883C239.815 43.5599 239.698 43.6673 239.606 43.8105C239.515 43.9538 239.449 44.1344 239.406 44.3525C239.364 44.5706 239.343 44.8262 239.343 45.1191Z" fill="#E0E0E9"/>
<path d="M280.47 35.8906V43H279.571V35.8906H280.47ZM284.044 35.8906L281.598 39.2061L280.167 40.9297L280.006 39.9238L281.056 38.5469L282.97 35.8906H284.044ZM283.15 43L281.056 39.5332L281.588 38.7861L284.22 43H283.15ZM284.596 40.6123V40.1094C284.596 39.6992 284.648 39.3395 284.752 39.0303C284.856 38.7178 285.001 38.4574 285.187 38.249C285.372 38.0407 285.589 37.8844 285.836 37.7803C286.083 37.6729 286.349 37.6191 286.632 37.6191C286.922 37.6191 287.19 37.6729 287.438 37.7803C287.685 37.8844 287.901 38.0407 288.087 38.249C288.276 38.4574 288.422 38.7178 288.526 39.0303C288.631 39.3395 288.683 39.6992 288.683 40.1094V40.6123C288.683 41.0225 288.631 41.3838 288.526 41.6963C288.422 42.0055 288.277 42.2643 288.092 42.4727C287.906 42.681 287.69 42.8372 287.442 42.9414C287.195 43.0456 286.928 43.0977 286.642 43.0977C286.355 43.0977 286.088 43.0456 285.841 42.9414C285.593 42.8372 285.375 42.681 285.187 42.4727C285.001 42.2643 284.856 42.0055 284.752 41.6963C284.648 41.3838 284.596 41.0225 284.596 40.6123ZM285.46 40.1094V40.6123C285.46 40.902 285.489 41.1559 285.548 41.374C285.606 41.5921 285.689 41.7744 285.797 41.9209C285.904 42.0674 286.03 42.1781 286.173 42.2529C286.316 42.3245 286.472 42.3604 286.642 42.3604C286.837 42.3604 287.008 42.3245 287.154 42.2529C287.304 42.1781 287.428 42.0674 287.525 41.9209C287.623 41.7744 287.696 41.5921 287.745 41.374C287.794 41.1559 287.818 40.902 287.818 40.6123V40.1094C287.818 39.8197 287.789 39.5674 287.73 39.3525C287.672 39.1344 287.589 38.9521 287.481 38.8057C287.374 38.6559 287.247 38.5452 287.101 38.4736C286.957 38.3988 286.801 38.3613 286.632 38.3613C286.466 38.3613 286.311 38.3988 286.168 38.4736C286.025 38.5452 285.899 38.6559 285.792 38.8057C285.688 38.9521 285.606 39.1344 285.548 39.3525C285.489 39.5674 285.46 39.8197 285.46 40.1094ZM290.66 38.8447V43H289.796V37.7168H290.611L290.66 38.8447ZM290.45 40.1582L290.099 40.1436C290.095 39.7822 290.136 39.4486 290.221 39.1426C290.309 38.8333 290.432 38.5648 290.592 38.3369C290.755 38.109 290.948 37.9333 291.173 37.8096C291.397 37.6826 291.646 37.6191 291.92 37.6191C292.135 37.6191 292.33 37.6549 292.506 37.7266C292.682 37.7949 292.831 37.9056 292.955 38.0586C293.079 38.2116 293.173 38.4102 293.238 38.6543C293.307 38.8952 293.341 39.1898 293.341 39.5381V43H292.477V39.5283C292.477 39.2516 292.446 39.0303 292.384 38.8643C292.325 38.695 292.234 38.5729 292.11 38.498C291.99 38.4199 291.837 38.3809 291.651 38.3809C291.482 38.3809 291.324 38.4281 291.178 38.5225C291.031 38.6169 290.903 38.7471 290.792 38.9131C290.685 39.0791 290.6 39.2695 290.538 39.4844C290.479 39.696 290.45 39.9206 290.45 40.1582ZM296.568 37.7168V38.4102H294.103V37.7168H296.568ZM294.908 36.4326H295.772V41.6914C295.772 41.8704 295.794 42.0055 295.836 42.0967C295.882 42.1878 295.938 42.248 296.007 42.2773C296.075 42.3066 296.148 42.3213 296.227 42.3213C296.285 42.3213 296.35 42.3148 296.422 42.3018C296.493 42.2855 296.542 42.2725 296.568 42.2627L296.563 43C296.505 43.0228 296.427 43.0439 296.329 43.0635C296.231 43.0863 296.108 43.0977 295.958 43.0977C295.772 43.0977 295.6 43.0537 295.44 42.9658C295.281 42.8779 295.152 42.7314 295.055 42.5264C294.957 42.318 294.908 42.0381 294.908 41.6865V36.4326ZM298.463 38.5469V43H297.599V37.7168H298.434L298.463 38.5469ZM299.776 37.6875L299.781 38.5273C299.71 38.5111 299.645 38.5013 299.586 38.498C299.531 38.4915 299.465 38.4883 299.391 38.4883C299.228 38.4883 299.085 38.5208 298.961 38.5859C298.84 38.651 298.736 38.7422 298.648 38.8594C298.561 38.9766 298.491 39.1165 298.438 39.2793C298.386 39.4388 298.351 39.6146 298.331 39.8066L298.106 39.9531C298.106 39.6341 298.131 39.3346 298.18 39.0547C298.232 38.7747 298.312 38.5273 298.419 38.3125C298.526 38.0944 298.663 37.9251 298.829 37.8047C298.998 37.681 299.2 37.6191 299.435 37.6191C299.487 37.6191 299.55 37.6273 299.625 37.6436C299.703 37.6566 299.754 37.6712 299.776 37.6875ZM300.367 40.6123V40.1094C300.367 39.6992 300.419 39.3395 300.523 39.0303C300.628 38.7178 300.772 38.4574 300.958 38.249C301.144 38.0407 301.36 37.8844 301.607 37.7803C301.855 37.6729 302.12 37.6191 302.403 37.6191C302.693 37.6191 302.962 37.6729 303.209 37.7803C303.456 37.8844 303.673 38.0407 303.858 38.249C304.047 38.4574 304.194 38.7178 304.298 39.0303C304.402 39.3395 304.454 39.6992 304.454 40.1094V40.6123C304.454 41.0225 304.402 41.3838 304.298 41.6963C304.194 42.0055 304.049 42.2643 303.863 42.4727C303.678 42.681 303.461 42.8372 303.214 42.9414C302.966 43.0456 302.7 43.0977 302.413 43.0977C302.127 43.0977 301.86 43.0456 301.612 42.9414C301.365 42.8372 301.147 42.681 300.958 42.4727C300.772 42.2643 300.628 42.0055 300.523 41.6963C300.419 41.3838 300.367 41.0225 300.367 40.6123ZM301.231 40.1094V40.6123C301.231 40.902 301.261 41.1559 301.319 41.374C301.378 41.5921 301.461 41.7744 301.568 41.9209C301.676 42.0674 301.801 42.1781 301.944 42.2529C302.088 42.3245 302.244 42.3604 302.413 42.3604C302.608 42.3604 302.779 42.3245 302.926 42.2529C303.076 42.1781 303.199 42.0674 303.297 41.9209C303.395 41.7744 303.468 41.5921 303.517 41.374C303.565 41.1559 303.59 40.902 303.59 40.6123V40.1094C303.59 39.8197 303.561 39.5674 303.502 39.3525C303.443 39.1344 303.36 38.9521 303.253 38.8057C303.146 38.6559 303.019 38.5452 302.872 38.4736C302.729 38.3988 302.573 38.3613 302.403 38.3613C302.237 38.3613 302.083 38.3988 301.939 38.4736C301.796 38.5452 301.671 38.6559 301.563 38.8057C301.459 38.9521 301.378 39.1344 301.319 39.3525C301.261 39.5674 301.231 39.8197 301.231 40.1094ZM306.495 35.5V43H305.636V35.5H306.495ZM308.79 35.5V43H307.931V35.5H308.79ZM312.047 43.0977C311.731 43.0977 311.446 43.0505 311.192 42.9561C310.938 42.8617 310.722 42.7184 310.543 42.5264C310.364 42.3311 310.227 42.0853 310.133 41.7891C310.038 41.4928 309.991 41.1429 309.991 40.7393V40.1436C309.991 39.6781 310.045 39.2842 310.152 38.9619C310.263 38.6396 310.411 38.3809 310.597 38.1855C310.782 37.987 310.992 37.8437 311.227 37.7559C311.461 37.6647 311.702 37.6191 311.949 37.6191C312.281 37.6191 312.564 37.6729 312.799 37.7803C313.033 37.8877 313.224 38.0472 313.37 38.2588C313.517 38.4704 313.624 38.7308 313.692 39.04C313.764 39.3493 313.8 39.7057 313.8 40.1094V40.6123H310.499V39.875H312.936V39.7529C312.923 39.4795 312.885 39.2386 312.823 39.0303C312.765 38.8219 312.667 38.6592 312.53 38.542C312.394 38.4215 312.2 38.3613 311.949 38.3613C311.79 38.3613 311.642 38.389 311.505 38.4443C311.371 38.4964 311.256 38.5892 311.158 38.7227C311.064 38.8529 310.989 39.0335 310.934 39.2646C310.882 39.4958 310.855 39.7887 310.855 40.1436V40.7393C310.855 41.0225 310.882 41.2666 310.934 41.4717C310.989 41.6735 311.069 41.8411 311.173 41.9746C311.28 42.1048 311.41 42.2025 311.563 42.2676C311.72 42.3294 311.897 42.3604 312.096 42.3604C312.385 42.3604 312.625 42.305 312.813 42.1943C313.002 42.0804 313.167 41.9355 313.307 41.7598L313.761 42.3018C313.666 42.4352 313.543 42.5638 313.39 42.6875C313.24 42.8079 313.054 42.9072 312.833 42.9854C312.615 43.0602 312.353 43.0977 312.047 43.0977ZM292.501 52.7793V48.7168H293.365V54H292.545L292.501 52.7793ZM292.662 51.666L293.004 51.6562C293.004 52.0078 292.973 52.3333 292.911 52.6328C292.853 52.929 292.755 53.1862 292.618 53.4043C292.485 53.6224 292.307 53.7933 292.086 53.917C291.865 54.0374 291.593 54.0977 291.271 54.0977C291.052 54.0977 290.854 54.0602 290.675 53.9854C290.499 53.9105 290.346 53.7949 290.216 53.6387C290.089 53.4824 289.99 53.279 289.918 53.0283C289.85 52.7777 289.815 52.4766 289.815 52.125V48.7168H290.675V52.1348C290.675 52.3724 290.696 52.5693 290.738 52.7256C290.781 52.8786 290.838 53.0007 290.909 53.0918C290.981 53.1797 291.061 53.2415 291.148 53.2773C291.236 53.3132 291.326 53.3311 291.417 53.3311C291.723 53.3311 291.967 53.2578 292.149 53.1113C292.332 52.9616 292.462 52.7614 292.54 52.5107C292.621 52.2568 292.662 51.9753 292.662 51.666ZM295.528 49.8447V54H294.664V48.7168H295.479L295.528 49.8447ZM295.318 51.1582L294.967 51.1436C294.964 50.7822 295.004 50.4486 295.089 50.1426C295.177 49.8333 295.3 49.5648 295.46 49.3369C295.623 49.109 295.816 48.9333 296.041 48.8096C296.266 48.6826 296.515 48.6191 296.788 48.6191C297.003 48.6191 297.198 48.6549 297.374 48.7266C297.55 48.7949 297.7 48.9056 297.823 49.0586C297.947 49.2116 298.041 49.4102 298.106 49.6543C298.175 49.8952 298.209 50.1898 298.209 50.5381V54H297.345V50.5283C297.345 50.2516 297.314 50.0303 297.252 49.8643C297.193 49.695 297.102 49.5729 296.979 49.498C296.858 49.4199 296.705 49.3809 296.52 49.3809C296.35 49.3809 296.192 49.4281 296.046 49.5225C295.899 49.6169 295.771 49.7471 295.66 49.9131C295.553 50.0791 295.468 50.2695 295.406 50.4844C295.348 50.696 295.318 50.9206 295.318 51.1582ZM302.276 52.9746V46.5H303.136V54H302.35L302.276 52.9746ZM299.322 51.6123V51.1191C299.322 50.6829 299.365 50.3086 299.449 49.9961C299.534 49.6803 299.654 49.4215 299.811 49.2197C299.967 49.0146 300.154 48.8633 300.372 48.7656C300.59 48.668 300.831 48.6191 301.095 48.6191C301.368 48.6191 301.603 48.6745 301.798 48.7852C301.996 48.8958 302.162 49.057 302.296 49.2686C302.429 49.4769 302.534 49.7308 302.608 50.0303C302.687 50.3265 302.739 50.6618 302.765 51.0361V51.6953C302.735 52.0664 302.682 52.4001 302.604 52.6963C302.529 52.9925 302.424 53.2448 302.291 53.4531C302.158 53.6615 301.992 53.821 301.793 53.9316C301.594 54.0423 301.358 54.0977 301.085 54.0977C300.825 54.0977 300.587 54.0472 300.372 53.9463C300.157 53.8421 299.97 53.6875 299.811 53.4824C299.654 53.2741 299.534 53.0153 299.449 52.7061C299.365 52.3936 299.322 52.029 299.322 51.6123ZM300.187 51.1191V51.6123C300.187 51.9053 300.208 52.1608 300.25 52.3789C300.292 52.5938 300.359 52.7728 300.45 52.916C300.541 53.056 300.657 53.1602 300.797 53.2285C300.94 53.2969 301.111 53.3311 301.31 53.3311C301.55 53.3311 301.747 53.2725 301.9 53.1553C302.053 53.0381 302.175 52.8835 302.267 52.6914C302.361 52.4961 302.436 52.2861 302.491 52.0615V50.6748C302.459 50.5088 302.411 50.3493 302.35 50.1963C302.288 50.04 302.21 49.9017 302.115 49.7812C302.024 49.6576 301.912 49.5599 301.778 49.4883C301.648 49.4167 301.495 49.3809 301.319 49.3809C301.121 49.3809 300.948 49.4167 300.802 49.4883C300.659 49.5599 300.541 49.6673 300.45 49.8105C300.362 49.9538 300.296 50.1344 300.25 50.3525C300.208 50.5706 300.187 50.8262 300.187 51.1191ZM278.883 61.6748H277.438L277.428 60.918H278.771C278.972 60.918 279.151 60.8724 279.308 60.7812C279.464 60.6901 279.586 60.5599 279.674 60.3906C279.765 60.2181 279.811 60.013 279.811 59.7754C279.811 59.515 279.771 59.3034 279.693 59.1406C279.618 58.9746 279.503 58.8542 279.347 58.7793C279.194 58.7012 278.998 58.6621 278.761 58.6621H277.628V65H276.729V57.8906H278.761C279.067 57.8906 279.34 57.9281 279.581 58.0029C279.822 58.0745 280.025 58.1885 280.191 58.3447C280.361 58.4977 280.489 58.693 280.577 58.9307C280.665 59.1683 280.709 59.4531 280.709 59.7852C280.709 60.0781 280.642 60.3434 280.509 60.5811C280.379 60.8154 280.196 61.0075 279.962 61.1572C279.728 61.307 279.457 61.403 279.151 61.4453L278.883 61.6748ZM278.849 65H277.066L277.589 64.2334H278.849C279.083 64.2334 279.282 64.1813 279.444 64.0771C279.607 63.973 279.731 63.8265 279.815 63.6377C279.903 63.4456 279.947 63.2194 279.947 62.959C279.947 62.6953 279.911 62.4674 279.84 62.2754C279.768 62.0833 279.654 61.9352 279.498 61.8311C279.342 61.7269 279.137 61.6748 278.883 61.6748H277.726L277.735 60.918H279.298L279.498 61.1914C279.791 61.2207 280.037 61.3184 280.235 61.4844C280.437 61.6471 280.589 61.8555 280.689 62.1094C280.794 62.3633 280.846 62.6432 280.846 62.9492C280.846 63.3919 280.763 63.7663 280.597 64.0723C280.434 64.375 280.203 64.6061 279.903 64.7656C279.604 64.9219 279.252 65 278.849 65ZM283.961 65.0977C283.645 65.0977 283.36 65.0505 283.106 64.9561C282.853 64.8617 282.636 64.7184 282.457 64.5264C282.278 64.3311 282.141 64.0853 282.047 63.7891C281.952 63.4928 281.905 63.1429 281.905 62.7393V62.1436C281.905 61.6781 281.959 61.2842 282.066 60.9619C282.177 60.6396 282.325 60.3809 282.511 60.1855C282.696 59.987 282.906 59.8438 283.141 59.7559C283.375 59.6647 283.616 59.6191 283.863 59.6191C284.195 59.6191 284.479 59.6729 284.713 59.7803C284.947 59.8877 285.138 60.0472 285.284 60.2588C285.431 60.4704 285.538 60.7308 285.606 61.04C285.678 61.3493 285.714 61.7057 285.714 62.1094V62.6123H282.413V61.875H284.85V61.7529C284.837 61.4795 284.799 61.2386 284.737 61.0303C284.679 60.8219 284.581 60.6592 284.444 60.542C284.308 60.4215 284.114 60.3613 283.863 60.3613C283.704 60.3613 283.556 60.389 283.419 60.4443C283.285 60.4964 283.17 60.5892 283.072 60.7227C282.978 60.8529 282.903 61.0335 282.848 61.2646C282.796 61.4958 282.77 61.7887 282.77 62.1436V62.7393C282.77 63.0225 282.796 63.2666 282.848 63.4717C282.903 63.6735 282.983 63.8411 283.087 63.9746C283.194 64.1048 283.325 64.2025 283.478 64.2676C283.634 64.3294 283.811 64.3604 284.01 64.3604C284.299 64.3604 284.539 64.305 284.728 64.1943C284.916 64.0804 285.081 63.9355 285.221 63.7598L285.675 64.3018C285.58 64.4352 285.457 64.5638 285.304 64.6875C285.154 64.8079 284.968 64.9072 284.747 64.9854C284.529 65.0602 284.267 65.0977 283.961 65.0977ZM290.104 64.2578V65H286.905V64.2578H290.104ZM290.006 60.3564L287.101 65H286.573V64.3359L289.459 59.7168H290.006V60.3564ZM289.63 59.7168V60.4639H286.588V59.7168H289.63ZM293.741 64.0967V61.2305C293.741 61.0221 293.709 60.8545 293.644 60.7275C293.582 60.6006 293.487 60.5078 293.36 60.4492C293.237 60.3906 293.08 60.3613 292.892 60.3613C292.709 60.3613 292.551 60.3988 292.418 60.4736C292.288 60.5485 292.187 60.6478 292.115 60.7715C292.047 60.8952 292.013 61.0319 292.013 61.1816H291.148C291.148 60.9928 291.189 60.8057 291.271 60.6201C291.355 60.4346 291.476 60.2669 291.632 60.1172C291.788 59.9642 291.975 59.8438 292.193 59.7559C292.415 59.6647 292.662 59.6191 292.936 59.6191C293.261 59.6191 293.549 59.6729 293.8 59.7803C294.05 59.8844 294.247 60.0553 294.391 60.293C294.534 60.5306 294.605 60.8464 294.605 61.2402V63.8477C294.605 64.0234 294.618 64.2106 294.645 64.4092C294.674 64.6077 294.715 64.7786 294.767 64.9219V65H293.873C293.831 64.8958 293.798 64.7575 293.775 64.585C293.753 64.4092 293.741 64.2464 293.741 64.0967ZM293.878 61.7969L293.888 62.4316H293.287C293.082 62.4316 292.895 62.4544 292.726 62.5C292.56 62.5456 292.416 62.6123 292.296 62.7002C292.175 62.7848 292.083 62.8906 292.018 63.0176C291.956 63.1445 291.925 63.2894 291.925 63.4521C291.925 63.6637 291.954 63.833 292.013 63.96C292.071 64.0837 292.159 64.1732 292.276 64.2285C292.394 64.2839 292.542 64.3115 292.721 64.3115C292.939 64.3115 293.131 64.2611 293.297 64.1602C293.463 64.0592 293.591 63.9372 293.683 63.7939C293.777 63.6507 293.821 63.5173 293.814 63.3936L294.005 63.7988C293.992 63.9258 293.95 64.0641 293.878 64.2139C293.81 64.3604 293.714 64.502 293.59 64.6387C293.466 64.7721 293.32 64.8828 293.15 64.9707C292.984 65.0553 292.797 65.0977 292.589 65.0977C292.283 65.0977 292.014 65.0391 291.783 64.9219C291.555 64.8047 291.378 64.6322 291.251 64.4043C291.124 64.1764 291.061 63.8949 291.061 63.5596C291.061 63.3057 291.104 63.0713 291.192 62.8564C291.28 62.6416 291.41 62.4561 291.583 62.2998C291.756 62.1403 291.972 62.0166 292.232 61.9287C292.496 61.8408 292.8 61.7969 293.146 61.7969H293.878ZM296.812 57.5V65H295.948V57.5H296.812ZM296.603 62.1582L296.251 62.1436C296.248 61.7822 296.288 61.4486 296.373 61.1426C296.461 60.8333 296.585 60.5648 296.744 60.3369C296.907 60.109 297.101 59.9333 297.325 59.8096C297.55 59.6826 297.799 59.6191 298.072 59.6191C298.287 59.6191 298.482 59.6549 298.658 59.7266C298.834 59.7949 298.984 59.9056 299.107 60.0586C299.231 60.2116 299.326 60.4102 299.391 60.6543C299.459 60.8952 299.493 61.1898 299.493 61.5381V65H298.629V61.5283C298.629 61.2516 298.598 61.0303 298.536 60.8643C298.478 60.695 298.386 60.5729 298.263 60.498C298.142 60.4199 297.989 60.3809 297.804 60.3809C297.634 60.3809 297.477 60.4281 297.33 60.5225C297.184 60.6169 297.055 60.7471 296.944 60.9131C296.837 61.0791 296.752 61.2695 296.69 61.4844C296.632 61.696 296.603 61.9206 296.603 62.1582ZM301.71 57.5V65H300.851V57.5H301.71ZM305.748 63.7793V59.7168H306.612V65H305.792L305.748 63.7793ZM305.909 62.666L306.251 62.6562C306.251 63.0078 306.22 63.3333 306.158 63.6328C306.1 63.929 306.002 64.1862 305.865 64.4043C305.732 64.6224 305.554 64.7933 305.333 64.917C305.112 65.0374 304.84 65.0977 304.518 65.0977C304.299 65.0977 304.101 65.0602 303.922 64.9854C303.746 64.9105 303.593 64.7949 303.463 64.6387C303.336 64.4824 303.237 64.279 303.165 64.0283C303.097 63.7777 303.062 63.4766 303.062 63.125V59.7168H303.922V63.1348C303.922 63.3724 303.943 63.5693 303.985 63.7256C304.028 63.8786 304.085 64.0007 304.156 64.0918C304.228 64.1797 304.308 64.2415 304.396 64.2773C304.483 64.3132 304.573 64.3311 304.664 64.3311C304.97 64.3311 305.214 64.2578 305.396 64.1113C305.579 63.9616 305.709 63.7614 305.787 63.5107C305.868 63.2568 305.909 62.9753 305.909 62.666ZM308.775 60.8447V65H307.911V59.7168H308.727L308.775 60.8447ZM308.565 62.1582L308.214 62.1436C308.211 61.7822 308.251 61.4486 308.336 61.1426C308.424 60.8333 308.548 60.5648 308.707 60.3369C308.87 60.109 309.063 59.9333 309.288 59.8096C309.513 59.6826 309.762 59.6191 310.035 59.6191C310.25 59.6191 310.445 59.6549 310.621 59.7266C310.797 59.7949 310.947 59.9056 311.07 60.0586C311.194 60.2116 311.288 60.4102 311.354 60.6543C311.422 60.8952 311.456 61.1898 311.456 61.5381V65H310.592V61.5283C310.592 61.2516 310.561 61.0303 310.499 60.8643C310.44 60.695 310.349 60.5729 310.226 60.498C310.105 60.4199 309.952 60.3809 309.767 60.3809C309.597 60.3809 309.439 60.4281 309.293 60.5225C309.146 60.6169 309.018 60.7471 308.907 60.9131C308.8 61.0791 308.715 61.2695 308.653 61.4844C308.595 61.696 308.565 61.9206 308.565 62.1582ZM315.616 59.7168H316.393V65.0439C316.393 65.5094 316.311 65.8936 316.148 66.1963C315.989 66.499 315.766 66.722 315.479 66.8652C315.193 67.0117 314.863 67.085 314.488 67.085C314.355 67.085 314.187 67.0605 313.985 67.0117C313.784 66.9629 313.582 66.888 313.38 66.7871C313.178 66.6895 313.012 66.5658 312.882 66.416L313.238 65.8154C313.424 66.0042 313.621 66.1393 313.829 66.2207C314.037 66.3021 314.236 66.3428 314.425 66.3428C314.649 66.3428 314.845 66.3021 315.011 66.2207C315.177 66.1393 315.305 66.0059 315.396 65.8203C315.488 65.638 315.533 65.3939 315.533 65.0879V60.8789L315.616 59.7168ZM312.579 62.6123V62.1191C312.579 61.6829 312.62 61.3086 312.701 60.9961C312.783 60.6803 312.9 60.4215 313.053 60.2197C313.209 60.0146 313.396 59.8633 313.614 59.7656C313.832 59.668 314.076 59.6191 314.347 59.6191C314.62 59.6191 314.856 59.6745 315.055 59.7852C315.253 59.8958 315.418 60.057 315.548 60.2686C315.681 60.4769 315.785 60.7308 315.86 61.0303C315.938 61.3265 315.992 61.6618 316.021 62.0361V62.6953C315.992 63.0664 315.938 63.4001 315.86 63.6963C315.785 63.9925 315.68 64.2448 315.543 64.4531C315.41 64.6615 315.243 64.821 315.045 64.9316C314.846 65.0423 314.61 65.0977 314.337 65.0977C314.07 65.0977 313.829 65.0472 313.614 64.9463C313.399 64.8421 313.214 64.6875 313.058 64.4824C312.905 64.2741 312.786 64.0153 312.701 63.7061C312.62 63.3936 312.579 63.029 312.579 62.6123ZM313.443 62.1191V62.6123C313.443 62.9053 313.465 63.1608 313.507 63.3789C313.549 63.5937 313.614 63.7728 313.702 63.916C313.793 64.056 313.909 64.1602 314.049 64.2285C314.192 64.2969 314.363 64.3311 314.562 64.3311C314.802 64.3311 314.999 64.2725 315.152 64.1553C315.305 64.0381 315.427 63.8835 315.519 63.6914C315.613 63.4961 315.688 63.2861 315.743 63.0615V61.6748C315.711 61.5088 315.663 61.3493 315.602 61.1963C315.543 61.04 315.466 60.9017 315.372 60.7812C315.278 60.6576 315.164 60.5599 315.03 60.4883C314.9 60.4167 314.747 60.3809 314.571 60.3809C314.373 60.3809 314.202 60.4167 314.059 60.4883C313.915 60.5599 313.798 60.6673 313.707 60.8105C313.616 60.9538 313.549 61.1344 313.507 61.3525C313.465 61.5706 313.443 61.8262 313.443 62.1191Z" fill="#E0E0E9"/>
<path fill-rule="evenodd" clip-rule="evenodd" d="M285 16L218 16V14L285 14V16Z" fill="#D0CFD7"/>
<path fill-rule="evenodd" clip-rule="evenodd" d="M192 16L125 16V14L192 14V16Z" fill="#D0CFD7"/>
<path fill-rule="evenodd" clip-rule="evenodd" d="M100 16L33 16V14L100 14V16Z" fill="#D0CFD7"/>
<path fill-rule="evenodd" clip-rule="evenodd" d="M8.7612 6.17317C8 8.01088 8 10.3406 8 15C8 19.6594 8 21.9891 8.7612 23.8268C9.77614 26.2771 11.7229 28.2239 14.1732 29.2388C16.0109 30 18.3406 30 23 30C27.6594 30 29.9891 30 31.8268 29.2388C34.2771 28.2239 36.2239 26.2771 37.2388 23.8268C38 21.9891 38 19.6594 38 15C38 10.3406 38 8.01088 37.2388 6.17317C36.2239 3.72288 34.2771 1.77614 31.8268 0.761205C29.9891 0 27.6594 0 23 0C18.3406 0 16.0109 0 14.1732 0.761205C11.7229 1.77614 9.77614 3.72288 8.7612 6.17317ZM29.7071 11.7071C30.0976 11.3166 30.0976 10.6834 29.7071 10.2929C29.3166 9.90237 28.6834 9.90237 28.2929 10.2929L21 17.5858L17.7071 14.2929C17.3166 13.9024 16.6834 13.9024 16.2929 14.2929C15.9024 14.6834 15.9024 15.3166 16.2929 15.7071L20.2929 19.7071C20.4804 19.8946 20.7348 20 21 20C21.2652 20 21.5196 19.8946 21.7071 19.7071L29.7071 11.7071Z" fill="url(#paint1_linear_1406_1489)"/>
<path fill-rule="evenodd" clip-rule="evenodd" d="M281.761 6.17317C281 8.01088 281 10.3406 281 15C281 19.6594 281 21.9891 281.761 23.8268C282.776 26.2771 284.723 28.2239 287.173 29.2388C289.011 30 291.341 30 296 30C300.659 30 302.989 30 304.827 29.2388C307.277 28.2239 309.224 26.2771 310.239 23.8268C311 21.9891 311 19.6594 311 15C311 10.3406 311 8.01088 310.239 6.17317C309.224 3.72288 307.277 1.77614 304.827 0.761205C302.989 0 300.659 0 296 0C291.341 0 289.011 0 287.173 0.761205C284.723 1.77614 282.776 3.72288 281.761 6.17317ZM302.707 11.7071C303.098 11.3166 303.098 10.6834 302.707 10.2929C302.317 9.90237 301.683 9.90237 301.293 10.2929L294 17.5858L290.707 14.2929C290.317 13.9024 289.683 13.9024 289.293 14.2929C288.902 14.6834 288.902 15.3166 289.293 15.7071L293.293 19.7071C293.48 19.8946 293.735 20 294 20C294.265 20 294.52 19.8946 294.707 19.7071L302.707 11.7071Z" fill="#D0CFD7"/>
<path fill-rule="evenodd" clip-rule="evenodd" d="M190.761 6.17317C190 8.01088 190 10.3406 190 15C190 19.6594 190 21.9891 190.761 23.8268C191.776 26.2771 193.723 28.2239 196.173 29.2388C198.011 30 200.341 30 205 30C209.659 30 211.989 30 213.827 29.2388C216.277 28.2239 218.224 26.2771 219.239 23.8268C220 21.9891 220 19.6594 220 15C220 10.3406 220 8.01088 219.239 6.17317C218.224 3.72288 216.277 1.77614 213.827 0.761205C211.989 0 209.659 0 205 0C200.341 0 198.011 0 196.173 0.761205C193.723 1.77614 191.776 3.72288 190.761 6.17317ZM211.707 11.7071C212.098 11.3166 212.098 10.6834 211.707 10.2929C211.317 9.90237 210.683 9.90237 210.293 10.2929L203 17.5858L199.707 14.2929C199.317 13.9024 198.683 13.9024 198.293 14.2929C197.902 14.6834 197.902 15.3166 198.293 15.7071L202.293 19.7071C202.48 19.8946 202.735 20 203 20C203.265 20 203.52 19.8946 203.707 19.7071L211.707 11.7071Z" fill="#D0CFD7"/>
<path fill-rule="evenodd" clip-rule="evenodd" d="M99.7612 6.17317C99 8.01088 99 10.3406 99 15C99 19.6594 99 21.9891 99.7612 23.8268C100.776 26.2771 102.723 28.2239 105.173 29.2388C107.011 30 109.341 30 114 30C118.659 30 120.989 30 122.827 29.2388C125.277 28.2239 127.224 26.2771 128.239 23.8268C129 21.9891 129 19.6594 129 15C129 10.3406 129 8.01088 128.239 6.17317C127.224 3.72288 125.277 1.77614 122.827 0.761205C120.989 0 118.659 0 114 0C109.341 0 107.011 0 105.173 0.761205C102.723 1.77614 100.776 3.72288 99.7612 6.17317ZM120.707 11.7071C121.098 11.3166 121.098 10.6834 120.707 10.2929C120.317 9.90237 119.683 9.90237 119.293 10.2929L112 17.5858L108.707 14.2929C108.317 13.9024 107.683 13.9024 107.293 14.2929C106.902 14.6834 106.902 15.3166 107.293 15.7071L111.293 19.7071C111.48 19.8946 111.735 20 112 20C112.265 20 112.52 19.8946 112.707 19.7071L120.707 11.7071Z" fill="#D0CFD7"/>
<defs>
<linearGradient id="paint0_linear_1406_1489" x1="22.5" y1="56" x2="22.5" y2="34" gradientUnits="userSpaceOnUse">
<stop stop-color="#5CCC94"/>
<stop offset="1" stop-color="#8CCAAE"/>
</linearGradient>
<linearGradient id="paint1_linear_1406_1489" x1="23" y1="30" x2="23" y2="1.58545e-07" gradientUnits="userSpaceOnUse">
<stop stop-color="#5CCC94"/>
<stop offset="1" stop-color="#8CCAAE"/>
</linearGradient>
</defs>
</svg>
