<svg width="239" height="57" viewBox="0 0 239 57" fill="none" xmlns="http://www.w3.org/2000/svg">
<path d="M12.2295 36.8906H14.2168C14.679 36.8906 15.0664 36.972 15.3789 37.1348C15.6947 37.2975 15.9323 37.5384 16.0918 37.8574C16.2546 38.1732 16.3359 38.5622 16.3359 39.0244C16.3359 39.3499 16.2822 39.6478 16.1748 39.918C16.0674 40.1849 15.9111 40.4128 15.7061 40.6016C15.501 40.7871 15.252 40.9255 14.959 41.0166L14.7148 41.1191H12.9424L12.9326 40.3525H14.207C14.4805 40.3525 14.7083 40.2939 14.8906 40.1768C15.0729 40.0563 15.2096 39.8952 15.3008 39.6934C15.3919 39.4915 15.4375 39.2686 15.4375 39.0244C15.4375 38.751 15.3968 38.5117 15.3154 38.3066C15.234 38.1016 15.1038 37.9437 14.9248 37.833C14.749 37.7191 14.513 37.6621 14.2168 37.6621H13.1279L13.1279 44H12.2295L12.2295 36.8906ZM15.6426 44L14.2266 40.7773L15.1592 40.7725L16.6045 43.9414V44H15.6426ZM19.3096 44.0977C18.9938 44.0977 18.709 44.0505 18.4551 43.9561C18.2012 43.8617 17.9847 43.7184 17.8057 43.5264C17.6266 43.3311 17.4899 43.0853 17.3955 42.7891C17.3011 42.4928 17.2539 42.1429 17.2539 41.7393V41.1436C17.2539 40.6781 17.3076 40.2842 17.415 39.9619C17.5257 39.6396 17.6738 39.3809 17.8594 39.1855C18.0449 38.987 18.2549 38.8438 18.4893 38.7559C18.7236 38.6647 18.9645 38.6191 19.2119 38.6191C19.5439 38.6191 19.8271 38.6729 20.0615 38.7803C20.2959 38.8877 20.4863 39.0472 20.6328 39.2588C20.7793 39.4704 20.8867 39.7308 20.9551 40.04C21.0267 40.3493 21.0625 40.7057 21.0625 41.1094V41.6123H17.7617V40.875H20.1982V40.7529C20.1852 40.4795 20.1478 40.2386 20.0859 40.0303C20.0273 39.8219 19.9297 39.6592 19.793 39.542C19.6562 39.4215 19.4626 39.3613 19.2119 39.3613C19.0524 39.3613 18.9043 39.389 18.7676 39.4443C18.6341 39.4964 18.5186 39.5892 18.4209 39.7227C18.3265 39.8529 18.2516 40.0335 18.1963 40.2646C18.1442 40.4958 18.1182 40.7887 18.1182 41.1436V41.7393C18.1182 42.0225 18.1442 42.2666 18.1963 42.4717C18.2516 42.6735 18.3314 42.8411 18.4355 42.9746C18.543 43.1048 18.6732 43.2025 18.8262 43.2676C18.9824 43.3294 19.1598 43.3604 19.3584 43.3604C19.6481 43.3604 19.8874 43.305 20.0762 43.1943C20.265 43.0804 20.4294 42.9355 20.5693 42.7598L21.0234 43.3018C20.929 43.4352 20.8053 43.5638 20.6523 43.6875C20.5026 43.8079 20.3171 43.9072 20.0957 43.9854C19.8776 44.0602 19.6156 44.0977 19.3096 44.0977ZM22.9717 39.8447V44H22.1074V38.7168H22.9229L22.9717 39.8447ZM22.7617 41.1582L22.4102 41.1436C22.4069 40.7822 22.4476 40.4486 22.5322 40.1426C22.6201 39.8333 22.7438 39.5648 22.9033 39.3369C23.0661 39.109 23.2598 38.9333 23.4844 38.8096C23.709 38.6826 23.958 38.6191 24.2314 38.6191C24.4463 38.6191 24.6416 38.6549 24.8174 38.7266C24.9932 38.7949 25.1429 38.9056 25.2666 39.0586C25.3903 39.2116 25.4847 39.4102 25.5498 39.6543C25.6182 39.8952 25.6523 40.1898 25.6523 40.5381V44H24.7881V40.5283C24.7881 40.2516 24.7572 40.0303 24.6953 39.8643C24.6367 39.695 24.5456 39.5729 24.4219 39.498C24.3014 39.4199 24.1484 39.3809 23.9629 39.3809C23.7936 39.3809 23.6357 39.4281 23.4893 39.5225C23.3428 39.6169 23.2142 39.7471 23.1035 39.9131C22.9961 40.0791 22.9115 40.2695 22.8496 40.4844C22.791 40.696 22.7617 40.9206 22.7617 41.1582ZM29.7197 42.9746V36.5H30.5791V44H29.793L29.7197 42.9746ZM26.7656 41.6123V41.1191C26.7656 40.6829 26.8079 40.3086 26.8926 39.9961C26.9772 39.6803 27.0977 39.4215 27.2539 39.2197C27.4102 39.0146 27.5973 38.8633 27.8154 38.7656C28.0335 38.668 28.2744 38.6191 28.5381 38.6191C28.8115 38.6191 29.0459 38.6745 29.2412 38.7852C29.4398 38.8958 29.6058 39.057 29.7393 39.2686C29.8727 39.4769 29.9769 39.7308 30.0518 40.0303C30.1299 40.3265 30.182 40.6618 30.208 41.0361V41.6953C30.1787 42.0664 30.125 42.4001 30.0469 42.6963C29.972 42.9925 29.8678 43.2448 29.7344 43.4531C29.6009 43.6615 29.4349 43.821 29.2363 43.9316C29.0378 44.0423 28.8018 44.0977 28.5283 44.0977C28.2679 44.0977 28.0303 44.0472 27.8154 43.9463C27.6006 43.8421 27.4134 43.6875 27.2539 43.4824C27.0977 43.2741 26.9772 43.0153 26.8926 42.7061C26.8079 42.3936 26.7656 42.029 26.7656 41.6123ZM27.6299 41.1191V41.6123C27.6299 41.9053 27.651 42.1608 27.6934 42.3789C27.7357 42.5937 27.8024 42.7728 27.8936 42.916C27.9847 43.056 28.1003 43.1602 28.2402 43.2285C28.3835 43.2969 28.5544 43.3311 28.7529 43.3311C28.9938 43.3311 29.1908 43.2725 29.3438 43.1553C29.4967 43.0381 29.6188 42.8835 29.71 42.6914C29.8044 42.4961 29.8792 42.2861 29.9346 42.0615V40.6748C29.902 40.5088 29.8548 40.3493 29.793 40.1963C29.7311 40.04 29.653 39.9017 29.5586 39.7812C29.4674 39.6576 29.3551 39.5599 29.2217 39.4883C29.0915 39.4167 28.9385 39.3809 28.7627 39.3809C28.5641 39.3809 28.3916 39.4167 28.2451 39.4883C28.1019 39.5599 27.9847 39.6673 27.8936 39.8105C27.8057 39.9538 27.7389 40.1344 27.6934 40.3525C27.651 40.5706 27.6299 40.8262 27.6299 41.1191ZM34.4756 42.6475C34.4756 42.514 34.443 42.3968 34.3779 42.2959C34.3128 42.195 34.2054 42.0973 34.0557 42.0029C33.9092 41.9085 33.7106 41.8076 33.46 41.7002C33.2158 41.5993 32.9961 41.5 32.8008 41.4023C32.6087 41.3014 32.446 41.1924 32.3125 41.0752C32.179 40.958 32.0765 40.8229 32.0049 40.6699C31.9365 40.5137 31.9023 40.3298 31.9023 40.1182C31.9023 39.9066 31.9414 39.7113 32.0195 39.5322C32.1009 39.3499 32.2148 39.1904 32.3613 39.0537C32.5078 38.917 32.6836 38.8112 32.8887 38.7363C33.0938 38.6582 33.3232 38.6191 33.5771 38.6191C33.9385 38.6191 34.2461 38.6891 34.5 38.8291C34.7539 38.9691 34.9476 39.1611 35.0811 39.4053C35.2178 39.6462 35.2861 39.918 35.2861 40.2207H34.4268C34.4268 40.0742 34.3942 39.9359 34.3291 39.8057C34.264 39.6755 34.168 39.5697 34.041 39.4883C33.9141 39.4036 33.7594 39.3613 33.5771 39.3613C33.3851 39.3613 33.2288 39.3955 33.1084 39.4639C32.988 39.5322 32.9001 39.6217 32.8447 39.7324C32.7926 39.8398 32.7666 39.9587 32.7666 40.0889C32.7666 40.1865 32.7796 40.2712 32.8057 40.3428C32.835 40.4111 32.8838 40.4762 32.9521 40.5381C33.0205 40.5967 33.1133 40.6585 33.2305 40.7236C33.3509 40.7855 33.5039 40.8571 33.6895 40.9385C34.0475 41.0785 34.3486 41.2201 34.5928 41.3633C34.8369 41.5065 35.0225 41.6742 35.1494 41.8662C35.2764 42.0583 35.3398 42.2959 35.3398 42.5791C35.3398 42.8102 35.2975 43.0202 35.2129 43.209C35.1315 43.3945 35.0143 43.554 34.8613 43.6875C34.7083 43.821 34.5244 43.9235 34.3096 43.9951C34.098 44.0635 33.8604 44.0977 33.5967 44.0977C33.1995 44.0977 32.8626 44.0195 32.5859 43.8633C32.3125 43.7038 32.1042 43.4971 31.9609 43.2432C31.821 42.986 31.751 42.7109 31.751 42.418H32.6152C32.625 42.6654 32.6803 42.8574 32.7812 42.9941C32.8854 43.1309 33.0107 43.2253 33.1572 43.2773C33.3037 43.3294 33.4502 43.3555 33.5967 43.3555C33.7887 43.3555 33.9499 43.3278 34.0801 43.2725C34.2103 43.2139 34.3079 43.1309 34.373 43.0234C34.4414 42.916 34.4756 42.7907 34.4756 42.6475ZM39.8174 43.2578V44H36.6191V43.2578H39.8174ZM39.7197 39.3564L36.8145 44H36.2871V43.3359L39.1729 38.7168H39.7197V39.3564ZM39.3438 38.7168V39.4639H36.3018V38.7168H39.3438ZM43.4551 43.0967V40.2305C43.4551 40.0221 43.4225 39.8545 43.3574 39.7275C43.2956 39.6006 43.2012 39.5078 43.0742 39.4492C42.9505 39.3906 42.7943 39.3613 42.6055 39.3613C42.4232 39.3613 42.2653 39.3988 42.1318 39.4736C42.0016 39.5485 41.9007 39.6478 41.8291 39.7715C41.7607 39.8952 41.7266 40.0319 41.7266 40.1816H40.8623C40.8623 39.9928 40.903 39.8057 40.9844 39.6201C41.069 39.4346 41.1895 39.2669 41.3457 39.1172C41.502 38.9642 41.6891 38.8437 41.9072 38.7559C42.1286 38.6647 42.376 38.6191 42.6494 38.6191C42.9749 38.6191 43.263 38.6729 43.5137 38.7803C43.7643 38.8844 43.9613 39.0553 44.1045 39.293C44.2477 39.5306 44.3193 39.8464 44.3193 40.2402V42.8477C44.3193 43.0234 44.3324 43.2106 44.3584 43.4092C44.3877 43.6077 44.4284 43.7786 44.4805 43.9219V44H43.5869C43.5446 43.8958 43.512 43.7575 43.4893 43.585C43.4665 43.4092 43.4551 43.2464 43.4551 43.0967ZM43.5918 40.7969L43.6016 41.4316H43.001C42.7959 41.4316 42.6087 41.4544 42.4395 41.5C42.2734 41.5456 42.1302 41.6123 42.0098 41.7002C41.8893 41.7848 41.7965 41.8906 41.7314 42.0176C41.6696 42.1445 41.6387 42.2894 41.6387 42.4521C41.6387 42.6637 41.668 42.833 41.7266 42.96C41.7852 43.0837 41.873 43.1732 41.9902 43.2285C42.1074 43.2839 42.2555 43.3115 42.4346 43.3115C42.6527 43.3115 42.8447 43.2611 43.0107 43.1602C43.1768 43.0592 43.3053 42.9372 43.3965 42.7939C43.4909 42.6507 43.5348 42.5173 43.5283 42.3936L43.7188 42.7988C43.7057 42.9258 43.6634 43.0641 43.5918 43.2139C43.5234 43.3604 43.4274 43.502 43.3037 43.6387C43.18 43.7721 43.0335 43.8828 42.8643 43.9707C42.6982 44.0553 42.5111 44.0977 42.3027 44.0977C41.9967 44.0977 41.7282 44.0391 41.4971 43.9219C41.2692 43.8047 41.0918 43.6322 40.9648 43.4043C40.8379 43.1764 40.7744 42.8949 40.7744 42.5596C40.7744 42.3057 40.8184 42.0713 40.9062 41.8564C40.9941 41.6416 41.1243 41.4561 41.2969 41.2998C41.4694 41.1403 41.6859 41.0166 41.9463 40.9287C42.21 40.8408 42.5143 40.7969 42.8594 40.7969H43.5918ZM42.2051 37.9355L43.1523 36.5H44.2412L42.9326 37.9355H42.2051ZM46.5264 39.7666V44H45.667V38.7168H46.4775L46.5264 39.7666ZM46.3506 41.1582L45.9502 41.1436C45.9469 40.7822 45.9827 40.4486 46.0576 40.1426C46.1325 39.8333 46.2448 39.5648 46.3945 39.3369C46.5475 39.109 46.738 38.9333 46.9658 38.8096C47.1969 38.6826 47.4655 38.6191 47.7715 38.6191C47.9733 38.6191 48.1605 38.6549 48.333 38.7266C48.5088 38.7949 48.6618 38.904 48.792 39.0537C48.9222 39.2035 49.0231 39.3955 49.0947 39.6299C49.1696 39.8643 49.207 40.1475 49.207 40.4795V44H48.3428V40.5234C48.3428 40.2467 48.3053 40.0254 48.2305 39.8594C48.1589 39.6934 48.0563 39.5729 47.9229 39.498C47.7894 39.4199 47.6299 39.3809 47.4443 39.3809C47.2327 39.3809 47.0553 39.4281 46.9121 39.5225C46.7721 39.6169 46.6598 39.7471 46.5752 39.9131C46.4938 40.0791 46.4352 40.2695 46.3994 40.4844C46.3669 40.696 46.3506 40.9206 46.3506 41.1582ZM49.1973 40.6602L48.6211 40.8457C48.6178 40.556 48.6536 40.2777 48.7285 40.0107C48.8034 39.7438 48.9141 39.5062 49.0605 39.2979C49.2103 39.0895 49.3958 38.9251 49.6172 38.8047C49.8385 38.681 50.0957 38.6191 50.3887 38.6191C50.6296 38.6191 50.8428 38.6566 51.0283 38.7314C51.2139 38.8063 51.3701 38.9219 51.4971 39.0781C51.6273 39.2311 51.7249 39.4281 51.79 39.6689C51.8551 39.9098 51.8877 40.1963 51.8877 40.5283V44H51.0234V40.5186C51.0234 40.2223 50.986 39.9928 50.9111 39.8301C50.8395 39.6641 50.737 39.5485 50.6035 39.4834C50.4701 39.415 50.3105 39.3809 50.125 39.3809C49.9753 39.3809 49.8418 39.415 49.7246 39.4834C49.6107 39.5518 49.5146 39.6462 49.4365 39.7666C49.3584 39.8838 49.2982 40.0189 49.2559 40.1719C49.2168 40.3249 49.1973 40.4876 49.1973 40.6602Z" fill="url(#paint0_linear_366_1452)"/>
<path d="M106.005 46.2031C106.005 46.0371 105.985 45.8906 105.946 45.7637C105.907 45.6335 105.839 45.5163 105.741 45.4121C105.644 45.3079 105.507 45.2087 105.331 45.1143C105.155 45.0199 104.932 44.9238 104.662 44.8262C104.369 44.722 104.104 44.6064 103.866 44.4795C103.629 44.3493 103.425 44.2012 103.256 44.0352C103.09 43.8691 102.961 43.6787 102.87 43.4639C102.779 43.249 102.733 43.0033 102.733 42.7266C102.733 42.4499 102.781 42.1943 102.875 41.96C102.973 41.7256 103.109 41.5221 103.285 41.3496C103.464 41.1738 103.679 41.0371 103.93 40.9395C104.18 40.8418 104.46 40.793 104.77 40.793C105.232 40.793 105.621 40.8955 105.937 41.1006C106.256 41.3024 106.496 41.5677 106.659 41.8965C106.822 42.222 106.903 42.5703 106.903 42.9414H106.005C106.005 42.6745 105.961 42.4385 105.873 42.2334C105.788 42.0251 105.655 41.8623 105.473 41.7451C105.294 41.6247 105.059 41.5645 104.77 41.5645C104.509 41.5645 104.294 41.6149 104.125 41.7158C103.959 41.8167 103.835 41.9535 103.754 42.126C103.676 42.2985 103.637 42.4954 103.637 42.7168C103.637 42.8665 103.663 43.0033 103.715 43.127C103.767 43.2474 103.847 43.3597 103.954 43.4639C104.065 43.568 104.201 43.6641 104.364 43.752C104.53 43.8398 104.726 43.9245 104.95 44.0059C105.299 44.1198 105.596 44.2467 105.844 44.3867C106.091 44.5267 106.293 44.6846 106.449 44.8604C106.605 45.0329 106.719 45.2298 106.791 45.4512C106.866 45.6693 106.903 45.9167 106.903 46.1934C106.903 46.4831 106.854 46.7451 106.757 46.9795C106.662 47.2139 106.524 47.4141 106.342 47.5801C106.16 47.7461 105.94 47.8747 105.683 47.9658C105.425 48.0537 105.136 48.0977 104.813 48.0977C104.534 48.0977 104.258 48.0521 103.988 47.9609C103.721 47.8698 103.479 47.7331 103.261 47.5508C103.043 47.3685 102.868 47.1439 102.738 46.877C102.608 46.6068 102.543 46.2943 102.543 45.9395H103.441C103.441 46.1836 103.477 46.3936 103.549 46.5693C103.62 46.7419 103.72 46.8851 103.847 46.999C103.974 47.113 104.118 47.1976 104.281 47.2529C104.447 47.305 104.625 47.3311 104.813 47.3311C105.074 47.3311 105.292 47.2855 105.468 47.1943C105.647 47.1032 105.78 46.973 105.868 46.8037C105.959 46.6344 106.005 46.4342 106.005 46.2031ZM111.308 47.2578V48H108.109V47.2578H111.308ZM111.21 43.3564L108.305 48H107.777V47.3359L110.663 42.7168H111.21V43.3564ZM110.834 42.7168V43.4639H107.792V42.7168H110.834ZM114.945 47.0967V44.2305C114.945 44.0221 114.913 43.8545 114.848 43.7275C114.786 43.6006 114.691 43.5078 114.564 43.4492C114.441 43.3906 114.285 43.3613 114.096 43.3613C113.913 43.3613 113.756 43.3988 113.622 43.4736C113.492 43.5485 113.391 43.6478 113.319 43.7715C113.251 43.8952 113.217 44.0319 113.217 44.1816H112.353C112.353 43.9928 112.393 43.8057 112.475 43.6201C112.559 43.4346 112.68 43.2669 112.836 43.1172C112.992 42.9642 113.179 42.8438 113.397 42.7559C113.619 42.6647 113.866 42.6191 114.14 42.6191C114.465 42.6191 114.753 42.6729 115.004 42.7803C115.255 42.8844 115.451 43.0553 115.595 43.293C115.738 43.5306 115.81 43.8464 115.81 44.2402V46.8477C115.81 47.0234 115.823 47.2106 115.849 47.4092C115.878 47.6077 115.919 47.7786 115.971 47.9219V48H115.077C115.035 47.8958 115.002 47.7575 114.979 47.585C114.957 47.4092 114.945 47.2464 114.945 47.0967ZM115.082 44.7969L115.092 45.4316H114.491C114.286 45.4316 114.099 45.4544 113.93 45.5C113.764 45.5456 113.62 45.6123 113.5 45.7002C113.38 45.7848 113.287 45.8906 113.222 46.0176C113.16 46.1445 113.129 46.2894 113.129 46.4521C113.129 46.6637 113.158 46.833 113.217 46.96C113.275 47.0837 113.363 47.1732 113.48 47.2285C113.598 47.2839 113.746 47.3115 113.925 47.3115C114.143 47.3115 114.335 47.2611 114.501 47.1602C114.667 47.0592 114.796 46.9372 114.887 46.7939C114.981 46.6507 115.025 46.5173 115.019 46.3936L115.209 46.7988C115.196 46.9258 115.154 47.0641 115.082 47.2139C115.014 47.3604 114.918 47.502 114.794 47.6387C114.67 47.7721 114.524 47.8828 114.354 47.9707C114.188 48.0553 114.001 48.0977 113.793 48.0977C113.487 48.0977 113.218 48.0391 112.987 47.9219C112.759 47.8047 112.582 47.6322 112.455 47.4043C112.328 47.1764 112.265 46.8949 112.265 46.5596C112.265 46.3057 112.309 46.0713 112.396 45.8564C112.484 45.6416 112.615 45.4561 112.787 45.2998C112.96 45.1403 113.176 45.0166 113.437 44.9287C113.7 44.8408 114.005 44.7969 114.35 44.7969H115.082ZM113.695 41.9355L114.643 40.5H115.731L114.423 41.9355H113.695ZM118.017 43.7666V48H117.157V42.7168H117.968L118.017 43.7666ZM117.841 45.1582L117.44 45.1436C117.437 44.7822 117.473 44.4486 117.548 44.1426C117.623 43.8333 117.735 43.5648 117.885 43.3369C118.038 43.109 118.228 42.9333 118.456 42.8096C118.687 42.6826 118.956 42.6191 119.262 42.6191C119.464 42.6191 119.651 42.6549 119.823 42.7266C119.999 42.7949 120.152 42.904 120.282 43.0537C120.412 43.2035 120.513 43.3955 120.585 43.6299C120.66 43.8643 120.697 44.1475 120.697 44.4795V48H119.833V44.5234C119.833 44.2467 119.796 44.0254 119.721 43.8594C119.649 43.6934 119.547 43.5729 119.413 43.498C119.28 43.4199 119.12 43.3809 118.935 43.3809C118.723 43.3809 118.546 43.4281 118.402 43.5225C118.262 43.6169 118.15 43.7471 118.065 43.9131C117.984 44.0791 117.925 44.2695 117.89 44.4844C117.857 44.696 117.841 44.9206 117.841 45.1582ZM120.688 44.6602L120.111 44.8457C120.108 44.556 120.144 44.2777 120.219 44.0107C120.294 43.7438 120.404 43.5062 120.551 43.2979C120.701 43.0895 120.886 42.9251 121.107 42.8047C121.329 42.681 121.586 42.6191 121.879 42.6191C122.12 42.6191 122.333 42.6566 122.519 42.7314C122.704 42.8063 122.86 42.9219 122.987 43.0781C123.118 43.2311 123.215 43.4281 123.28 43.6689C123.345 43.9098 123.378 44.1963 123.378 44.5283V48H122.514V44.5186C122.514 44.2223 122.476 43.9928 122.401 43.8301C122.33 43.6641 122.227 43.5485 122.094 43.4834C121.96 43.415 121.801 43.3809 121.615 43.3809C121.465 43.3809 121.332 43.415 121.215 43.4834C121.101 43.5518 121.005 43.6462 120.927 43.7666C120.849 43.8838 120.788 44.0189 120.746 44.1719C120.707 44.3249 120.688 44.4876 120.688 44.6602ZM125.609 40.5V48H124.75V40.5H125.609ZM129.564 47.0967V44.2305C129.564 44.0221 129.532 43.8545 129.467 43.7275C129.405 43.6006 129.311 43.5078 129.184 43.4492C129.06 43.3906 128.904 43.3613 128.715 43.3613C128.533 43.3613 128.375 43.3988 128.241 43.4736C128.111 43.5485 128.01 43.6478 127.938 43.7715C127.87 43.8952 127.836 44.0319 127.836 44.1816H126.972C126.972 43.9928 127.012 43.8057 127.094 43.6201C127.178 43.4346 127.299 43.2669 127.455 43.1172C127.611 42.9642 127.799 42.8437 128.017 42.7559C128.238 42.6647 128.485 42.6191 128.759 42.6191C129.084 42.6191 129.372 42.6729 129.623 42.7803C129.874 42.8844 130.071 43.0553 130.214 43.293C130.357 43.5306 130.429 43.8464 130.429 44.2402V46.8477C130.429 47.0234 130.442 47.2106 130.468 47.4092C130.497 47.6077 130.538 47.7786 130.59 47.9219V48H129.696C129.654 47.8958 129.621 47.7575 129.599 47.585C129.576 47.4092 129.564 47.2464 129.564 47.0967ZM129.701 44.7969L129.711 45.4316L129.11 45.4316C128.905 45.4316 128.718 45.4544 128.549 45.5C128.383 45.5456 128.24 45.6123 128.119 45.7002C127.999 45.7848 127.906 45.8906 127.841 46.0176C127.779 46.1445 127.748 46.2894 127.748 46.4521C127.748 46.6637 127.777 46.833 127.836 46.96C127.895 47.0837 127.982 47.1732 128.1 47.2285C128.217 47.2839 128.365 47.3115 128.544 47.3115C128.762 47.3115 128.954 47.2611 129.12 47.1602C129.286 47.0592 129.415 46.9372 129.506 46.7939C129.6 46.6507 129.644 46.5173 129.638 46.3936L129.828 46.7988C129.815 46.9258 129.773 47.0641 129.701 47.2139C129.633 47.3604 129.537 47.502 129.413 47.6387C129.289 47.7721 129.143 47.8828 128.974 47.9707C128.808 48.0553 128.62 48.0977 128.412 48.0977C128.106 48.0977 127.838 48.0391 127.606 47.9219C127.379 47.8047 127.201 47.6322 127.074 47.4043C126.947 47.1764 126.884 46.8949 126.884 46.5596C126.884 46.3057 126.928 46.0713 127.016 45.8564C127.104 45.6416 127.234 45.4561 127.406 45.2998C127.579 45.1403 127.795 45.0166 128.056 44.9287C128.319 44.8408 128.624 44.7969 128.969 44.7969L129.701 44.7969ZM128.314 41.9355L129.262 40.5H130.351L129.042 41.9355H128.314ZM135.116 47.2578V48H131.918V47.2578H135.116ZM135.019 43.3564L132.113 48H131.586V47.3359L134.472 42.7168H135.019V43.3564ZM134.643 42.7168V43.4639H131.601V42.7168H134.643ZM138.754 47.0967V44.2305C138.754 44.0221 138.721 43.8545 138.656 43.7275C138.594 43.6006 138.5 43.5078 138.373 43.4492C138.249 43.3906 138.093 43.3613 137.904 43.3613C137.722 43.3613 137.564 43.3988 137.431 43.4736C137.3 43.5485 137.2 43.6478 137.128 43.7715C137.06 43.8952 137.025 44.0319 137.025 44.1816H136.161C136.161 43.9928 136.202 43.8057 136.283 43.6201C136.368 43.4346 136.488 43.2669 136.645 43.1172C136.801 42.9642 136.988 42.8437 137.206 42.7559C137.427 42.6647 137.675 42.6191 137.948 42.6191C138.274 42.6191 138.562 42.6729 138.812 42.7803C139.063 42.8844 139.26 43.0553 139.403 43.293C139.547 43.5306 139.618 43.8464 139.618 44.2402V46.8477C139.618 47.0234 139.631 47.2106 139.657 47.4092C139.687 47.6077 139.727 47.7786 139.779 47.9219V48H138.886C138.843 47.8958 138.811 47.7575 138.788 47.585C138.765 47.4092 138.754 47.2464 138.754 47.0967ZM138.891 44.7969L138.9 45.4316H138.3C138.095 45.4316 137.908 45.4544 137.738 45.5C137.572 45.5456 137.429 45.6123 137.309 45.7002C137.188 45.7848 137.095 45.8906 137.03 46.0176C136.968 46.1445 136.938 46.2894 136.938 46.4521C136.938 46.6637 136.967 46.833 137.025 46.96C137.084 47.0837 137.172 47.1732 137.289 47.2285C137.406 47.2839 137.554 47.3115 137.733 47.3115C137.951 47.3115 138.144 47.2611 138.31 47.1602C138.476 47.0592 138.604 46.9372 138.695 46.7939C138.79 46.6507 138.834 46.5173 138.827 46.3936L139.018 46.7988C139.005 46.9258 138.962 47.0641 138.891 47.2139C138.822 47.3604 138.726 47.502 138.603 47.6387C138.479 47.7721 138.332 47.8828 138.163 47.9707C137.997 48.0553 137.81 48.0977 137.602 48.0977C137.296 48.0977 137.027 48.0391 136.796 47.9219C136.568 47.8047 136.391 47.6322 136.264 47.4043C136.137 47.1764 136.073 46.8949 136.073 46.5596C136.073 46.3057 136.117 46.0713 136.205 45.8564C136.293 45.6416 136.423 45.4561 136.596 45.2998C136.768 45.1403 136.985 45.0166 137.245 44.9287C137.509 44.8408 137.813 44.7969 138.158 44.7969H138.891ZM137.504 41.9355L138.451 40.5H139.54L138.231 41.9355H137.504ZM143.524 46.6475C143.524 46.514 143.492 46.3968 143.427 46.2959C143.362 46.195 143.254 46.0973 143.104 46.0029C142.958 45.9085 142.759 45.8076 142.509 45.7002C142.265 45.5993 142.045 45.5 141.85 45.4023C141.658 45.3014 141.495 45.1924 141.361 45.0752C141.228 44.958 141.125 44.8229 141.054 44.6699C140.985 44.5137 140.951 44.3298 140.951 44.1182C140.951 43.9066 140.99 43.7113 141.068 43.5322C141.15 43.3499 141.264 43.1904 141.41 43.0537C141.557 42.917 141.732 42.8112 141.938 42.7363C142.143 42.6582 142.372 42.6191 142.626 42.6191C142.987 42.6191 143.295 42.6891 143.549 42.8291C143.803 42.9691 143.996 43.1611 144.13 43.4053C144.267 43.6462 144.335 43.918 144.335 44.2207H143.476C143.476 44.0742 143.443 43.9359 143.378 43.8057C143.313 43.6755 143.217 43.5697 143.09 43.4883C142.963 43.4036 142.808 43.3613 142.626 43.3613C142.434 43.3613 142.278 43.3955 142.157 43.4639C142.037 43.5322 141.949 43.6217 141.894 43.7324C141.841 43.8398 141.815 43.9587 141.815 44.0889C141.815 44.1865 141.828 44.2712 141.854 44.3428C141.884 44.4111 141.933 44.4762 142.001 44.5381C142.069 44.5967 142.162 44.6585 142.279 44.7236C142.4 44.7855 142.553 44.8571 142.738 44.9385C143.096 45.0785 143.397 45.2201 143.642 45.3633C143.886 45.5065 144.071 45.6742 144.198 45.8662C144.325 46.0583 144.389 46.2959 144.389 46.5791C144.389 46.8102 144.346 47.0202 144.262 47.209C144.18 47.3945 144.063 47.554 143.91 47.6875C143.757 47.821 143.573 47.9235 143.358 47.9951C143.147 48.0635 142.909 48.0977 142.646 48.0977C142.248 48.0977 141.911 48.0195 141.635 47.8633C141.361 47.7038 141.153 47.4971 141.01 47.2432C140.87 46.986 140.8 46.7109 140.8 46.418H141.664C141.674 46.6654 141.729 46.8574 141.83 46.9941C141.934 47.1309 142.06 47.2253 142.206 47.2773C142.353 47.3294 142.499 47.3555 142.646 47.3555C142.838 47.3555 142.999 47.3278 143.129 47.2725C143.259 47.2139 143.357 47.1309 143.422 47.0234C143.49 46.916 143.524 46.7907 143.524 46.6475Z" fill="url(#paint1_linear_366_1452)"/>
<path d="M197.729 43.2334V44H194.643V43.2334H197.729ZM194.804 36.8906V44H193.905V36.8906H194.804ZM197.313 39.9473V40.7139H194.643V39.9473H197.313ZM197.68 36.8906V37.6621H194.643V36.8906H197.68ZM199.687 36.5V44H198.827V36.5H199.687ZM201.981 36.5V44H201.122V36.5H201.981ZM205.238 44.0977C204.923 44.0977 204.638 44.0505 204.384 43.9561C204.13 43.8617 203.913 43.7184 203.734 43.5264C203.555 43.3311 203.419 43.0853 203.324 42.7891C203.23 42.4928 203.183 42.1429 203.183 41.7393V41.1436C203.183 40.6781 203.236 40.2842 203.344 39.9619C203.454 39.6396 203.603 39.3809 203.788 39.1855C203.974 38.987 204.184 38.8438 204.418 38.7559C204.652 38.6647 204.893 38.6191 205.141 38.6191C205.473 38.6191 205.756 38.6729 205.99 38.7803C206.225 38.8877 206.415 39.0472 206.562 39.2588C206.708 39.4704 206.815 39.7308 206.884 40.04C206.955 40.3493 206.991 40.7057 206.991 41.1094V41.6123H203.69V40.875H206.127V40.7529C206.114 40.4795 206.076 40.2386 206.015 40.0303C205.956 39.8219 205.858 39.6592 205.722 39.542C205.585 39.4215 205.391 39.3613 205.141 39.3613C204.981 39.3613 204.833 39.389 204.696 39.4443C204.563 39.4964 204.447 39.5892 204.35 39.7227C204.255 39.8529 204.18 40.0335 204.125 40.2646C204.073 40.4958 204.047 40.7887 204.047 41.1436V41.7393C204.047 42.0225 204.073 42.2666 204.125 42.4717C204.18 42.6735 204.26 42.8411 204.364 42.9746C204.472 43.1048 204.602 43.2025 204.755 43.2676C204.911 43.3294 205.089 43.3604 205.287 43.3604C205.577 43.3604 205.816 43.305 206.005 43.1943C206.194 43.0804 206.358 42.9355 206.498 42.7598L206.952 43.3018C206.858 43.4352 206.734 43.5638 206.581 43.6875C206.431 43.8079 206.246 43.9072 206.024 43.9854C205.806 44.0602 205.544 44.0977 205.238 44.0977ZM208.9 39.8447V44H208.036V38.7168H208.852L208.9 39.8447ZM208.69 41.1582L208.339 41.1436C208.336 40.7822 208.376 40.4486 208.461 40.1426C208.549 39.8333 208.673 39.5648 208.832 39.3369C208.995 39.109 209.188 38.9333 209.413 38.8096C209.638 38.6826 209.887 38.6191 210.16 38.6191C210.375 38.6191 210.57 38.6549 210.746 38.7266C210.922 38.7949 211.072 38.9056 211.195 39.0586C211.319 39.2116 211.413 39.4102 211.479 39.6543C211.547 39.8952 211.581 40.1898 211.581 40.5381V44H210.717V40.5283C210.717 40.2516 210.686 40.0303 210.624 39.8643C210.565 39.695 210.474 39.5729 210.351 39.498C210.23 39.4199 210.077 39.3809 209.892 39.3809C209.722 39.3809 209.564 39.4281 209.418 39.5225C209.271 39.6169 209.143 39.7471 209.032 39.9131C208.925 40.0791 208.84 40.2695 208.778 40.4844C208.72 40.696 208.69 40.9206 208.69 41.1582ZM212.699 41.6123V41.1094C212.699 40.6992 212.751 40.3395 212.855 40.0303C212.96 39.7178 213.104 39.4574 213.29 39.249C213.476 39.0407 213.692 38.8844 213.939 38.7803C214.187 38.6729 214.452 38.6191 214.735 38.6191C215.025 38.6191 215.294 38.6729 215.541 38.7803C215.788 38.8844 216.005 39.0407 216.19 39.249C216.379 39.4574 216.526 39.7178 216.63 40.0303C216.734 40.3395 216.786 40.6992 216.786 41.1094V41.6123C216.786 42.0225 216.734 42.3838 216.63 42.6963C216.526 43.0055 216.381 43.2643 216.195 43.4727C216.01 43.681 215.793 43.8372 215.546 43.9414C215.299 44.0456 215.032 44.0977 214.745 44.0977C214.459 44.0977 214.192 44.0456 213.944 43.9414C213.697 43.8372 213.479 43.681 213.29 43.4727C213.104 43.2643 212.96 43.0055 212.855 42.6963C212.751 42.3838 212.699 42.0225 212.699 41.6123ZM213.563 41.1094V41.6123C213.563 41.902 213.593 42.1559 213.651 42.374C213.71 42.5921 213.793 42.7744 213.9 42.9209C214.008 43.0674 214.133 43.1781 214.276 43.2529C214.42 43.3245 214.576 43.3604 214.745 43.3604C214.94 43.3604 215.111 43.3245 215.258 43.2529C215.408 43.1781 215.531 43.0674 215.629 42.9209C215.727 42.7744 215.8 42.5921 215.849 42.374C215.897 42.1559 215.922 41.902 215.922 41.6123V41.1094C215.922 40.8197 215.893 40.5674 215.834 40.3525C215.775 40.1344 215.692 39.9521 215.585 39.8057C215.478 39.6559 215.351 39.5452 215.204 39.4736C215.061 39.3988 214.905 39.3613 214.735 39.3613C214.569 39.3613 214.415 39.3988 214.271 39.4736C214.128 39.5452 214.003 39.6559 213.896 39.8057C213.791 39.9521 213.71 40.1344 213.651 40.3525C213.593 40.5674 213.563 40.8197 213.563 41.1094ZM214.804 37.9844L215.707 36.5049H216.654L215.57 37.9844H214.804ZM213.617 37.9844L214.267 36.5049H215.17L214.296 37.9844H213.617ZM218.764 39.5469V44H217.899V38.7168H218.734L218.764 39.5469ZM220.077 38.6875L220.082 39.5273C220.01 39.5111 219.945 39.5013 219.887 39.498C219.831 39.4915 219.766 39.4883 219.691 39.4883C219.529 39.4883 219.385 39.5208 219.262 39.5859C219.141 39.651 219.037 39.7422 218.949 39.8594C218.861 39.9766 218.791 40.1165 218.739 40.2793C218.687 40.4388 218.651 40.6146 218.632 40.8066L218.407 40.9531C218.407 40.6341 218.432 40.3346 218.48 40.0547C218.533 39.7747 218.612 39.5273 218.72 39.3125C218.827 39.0944 218.964 38.9251 219.13 38.8047C219.299 38.681 219.501 38.6191 219.735 38.6191C219.787 38.6191 219.851 38.6273 219.926 38.6436C220.004 38.6566 220.054 38.6712 220.077 38.6875ZM224.291 43.2578V44H221.093V43.2578H224.291ZM224.193 39.3564L221.288 44H220.761V43.3359L223.646 38.7168H224.193V39.3564ZM223.817 38.7168V39.4639H220.775V38.7168H223.817ZM227.152 44.0977C226.837 44.0977 226.552 44.0505 226.298 43.9561C226.044 43.8617 225.827 43.7184 225.648 43.5264C225.469 43.3311 225.333 43.0853 225.238 42.7891C225.144 42.4928 225.097 42.1429 225.097 41.7393V41.1436C225.097 40.6781 225.15 40.2842 225.258 39.9619C225.368 39.6396 225.517 39.3809 225.702 39.1855C225.888 38.987 226.098 38.8437 226.332 38.7559C226.566 38.6647 226.807 38.6191 227.055 38.6191C227.387 38.6191 227.67 38.6729 227.904 38.7803C228.139 38.8877 228.329 39.0472 228.476 39.2588C228.622 39.4704 228.729 39.7308 228.798 40.04C228.869 40.3493 228.905 40.7057 228.905 41.1094V41.6123H225.604V40.875H228.041V40.7529C228.028 40.4795 227.991 40.2386 227.929 40.0303C227.87 39.8219 227.772 39.6592 227.636 39.542C227.499 39.4215 227.305 39.3613 227.055 39.3613C226.895 39.3613 226.747 39.389 226.61 39.4443C226.477 39.4964 226.361 39.5892 226.264 39.7227C226.169 39.8529 226.094 40.0335 226.039 40.2646C225.987 40.4958 225.961 40.7887 225.961 41.1436V41.7393C225.961 42.0225 225.987 42.2666 226.039 42.4717C226.094 42.6735 226.174 42.8411 226.278 42.9746C226.386 43.1048 226.516 43.2025 226.669 43.2676C226.825 43.3294 227.003 43.3604 227.201 43.3604C227.491 43.3604 227.73 43.305 227.919 43.1943C228.108 43.0804 228.272 42.9355 228.412 42.7598L228.866 43.3018C228.772 43.4352 228.648 43.5638 228.495 43.6875C228.345 43.8079 228.16 43.9072 227.938 43.9854C227.72 44.0602 227.458 44.0977 227.152 44.0977ZM226.527 37.9355L227.475 36.5H228.563L227.255 37.9355H226.527ZM232.514 42.6475C232.514 42.514 232.481 42.3968 232.416 42.2959C232.351 42.195 232.243 42.0973 232.094 42.0029C231.947 41.9085 231.749 41.8076 231.498 41.7002C231.254 41.5993 231.034 41.5 230.839 41.4023C230.647 41.3014 230.484 41.1924 230.351 41.0752C230.217 40.958 230.115 40.8229 230.043 40.6699C229.975 40.5137 229.94 40.3298 229.94 40.1182C229.94 39.9066 229.979 39.7113 230.058 39.5322C230.139 39.3499 230.253 39.1904 230.399 39.0537C230.546 38.917 230.722 38.8112 230.927 38.7363C231.132 38.6582 231.361 38.6191 231.615 38.6191C231.977 38.6191 232.284 38.6891 232.538 38.8291C232.792 38.9691 232.986 39.1611 233.119 39.4053C233.256 39.6462 233.324 39.918 233.324 40.2207H232.465C232.465 40.0742 232.432 39.9359 232.367 39.8057C232.302 39.6755 232.206 39.5697 232.079 39.4883C231.952 39.4036 231.798 39.3613 231.615 39.3613C231.423 39.3613 231.267 39.3955 231.146 39.4639C231.026 39.5322 230.938 39.6217 230.883 39.7324C230.831 39.8398 230.805 39.9587 230.805 40.0889C230.805 40.1865 230.818 40.2712 230.844 40.3428C230.873 40.4111 230.922 40.4762 230.99 40.5381C231.059 40.5967 231.151 40.6585 231.269 40.7236C231.389 40.7855 231.542 40.8571 231.728 40.9385C232.086 41.0785 232.387 41.2201 232.631 41.3633C232.875 41.5065 233.061 41.6742 233.188 41.8662C233.314 42.0583 233.378 42.2959 233.378 42.5791C233.378 42.8102 233.336 43.0202 233.251 43.209C233.17 43.3945 233.052 43.554 232.899 43.6875C232.746 43.821 232.562 43.9235 232.348 43.9951C232.136 44.0635 231.898 44.0977 231.635 44.0977C231.238 44.0977 230.901 44.0195 230.624 43.8633C230.351 43.7038 230.142 43.4971 229.999 43.2432C229.859 42.986 229.789 42.7109 229.789 42.418H230.653C230.663 42.6654 230.718 42.8574 230.819 42.9941C230.924 43.1309 231.049 43.2253 231.195 43.2773C231.342 43.3294 231.488 43.3555 231.635 43.3555C231.827 43.3555 231.988 43.3278 232.118 43.2725C232.248 43.2139 232.346 43.1309 232.411 43.0234C232.479 42.916 232.514 42.7907 232.514 42.6475ZM197.211 55.0977C196.895 55.0977 196.61 55.0505 196.356 54.9561C196.103 54.8617 195.886 54.7184 195.707 54.5264C195.528 54.3311 195.391 54.0853 195.297 53.7891C195.202 53.4928 195.155 53.1429 195.155 52.7393V52.1436C195.155 51.6781 195.209 51.2842 195.316 50.9619C195.427 50.6396 195.575 50.3809 195.761 50.1855C195.946 49.987 196.156 49.8438 196.391 49.7559C196.625 49.6647 196.866 49.6191 197.113 49.6191C197.445 49.6191 197.729 49.6729 197.963 49.7803C198.197 49.8877 198.388 50.0472 198.534 50.2588C198.681 50.4704 198.788 50.7308 198.856 51.04C198.928 51.3493 198.964 51.7057 198.964 52.1094V52.6123H195.663V51.875H198.1V51.7529C198.087 51.4795 198.049 51.2386 197.987 51.0303C197.929 50.8219 197.831 50.6592 197.694 50.542C197.558 50.4215 197.364 50.3613 197.113 50.3613C196.954 50.3613 196.806 50.389 196.669 50.4443C196.535 50.4964 196.42 50.5892 196.322 50.7227C196.228 50.8529 196.153 51.0335 196.098 51.2646C196.046 51.4958 196.02 51.7887 196.02 52.1436V52.7393C196.02 53.0225 196.046 53.2666 196.098 53.4717C196.153 53.6735 196.233 53.8411 196.337 53.9746C196.444 54.1048 196.575 54.2025 196.728 54.2676C196.884 54.3294 197.061 54.3604 197.26 54.3604C197.549 54.3604 197.789 54.305 197.978 54.1943C198.166 54.0804 198.331 53.9355 198.471 53.7598L198.925 54.3018C198.83 54.4352 198.707 54.5638 198.554 54.6875C198.404 54.8079 198.218 54.9072 197.997 54.9854C197.779 55.0602 197.517 55.0977 197.211 55.0977ZM196.586 48.9355L197.533 47.5H198.622L197.313 48.9355H196.586ZM202.572 53.6475C202.572 53.514 202.54 53.3968 202.475 53.2959C202.41 53.195 202.302 53.0973 202.152 53.0029C202.006 52.9085 201.807 52.8076 201.557 52.7002C201.312 52.5993 201.093 52.5 200.897 52.4023C200.705 52.3014 200.543 52.1924 200.409 52.0752C200.276 51.958 200.173 51.8229 200.102 51.6699C200.033 51.5137 199.999 51.3298 199.999 51.1182C199.999 50.9066 200.038 50.7113 200.116 50.5322C200.198 50.3499 200.312 50.1904 200.458 50.0537C200.604 49.917 200.78 49.8112 200.985 49.7363C201.19 49.6582 201.42 49.6191 201.674 49.6191C202.035 49.6191 202.343 49.6891 202.597 49.8291C202.851 49.9691 203.044 50.1611 203.178 50.4053C203.314 50.6462 203.383 50.918 203.383 51.2207H202.523C202.523 51.0742 202.491 50.9359 202.426 50.8057C202.361 50.6755 202.265 50.5697 202.138 50.4883C202.011 50.4036 201.856 50.3613 201.674 50.3613C201.482 50.3613 201.326 50.3955 201.205 50.4639C201.085 50.5322 200.997 50.6217 200.941 50.7324C200.889 50.8398 200.863 50.9587 200.863 51.0889C200.863 51.1865 200.876 51.2712 200.902 51.3428C200.932 51.4111 200.98 51.4762 201.049 51.5381C201.117 51.5967 201.21 51.6585 201.327 51.7236C201.448 51.7855 201.601 51.8571 201.786 51.9385C202.144 52.0785 202.445 52.2201 202.689 52.3633C202.934 52.5065 203.119 52.6742 203.246 52.8662C203.373 53.0583 203.437 53.2959 203.437 53.5791C203.437 53.8102 203.394 54.0202 203.31 54.209C203.228 54.3945 203.111 54.554 202.958 54.6875C202.805 54.821 202.621 54.9235 202.406 54.9951C202.195 55.0635 201.957 55.0977 201.693 55.0977C201.296 55.0977 200.959 55.0195 200.683 54.8633C200.409 54.7038 200.201 54.4971 200.058 54.2432C199.918 53.986 199.848 53.7109 199.848 53.418H200.712C200.722 53.6654 200.777 53.8574 200.878 53.9941C200.982 54.1309 201.107 54.2253 201.254 54.2773C201.4 54.3294 201.547 54.3555 201.693 54.3555C201.885 54.3555 202.047 54.3278 202.177 54.2725C202.307 54.2139 202.405 54.1309 202.47 54.0234C202.538 53.916 202.572 53.7907 202.572 53.6475ZM207.968 55H207.104V49.2578C207.104 48.8574 207.17 48.5189 207.304 48.2422C207.44 47.9655 207.634 47.7555 207.885 47.6123C208.139 47.4691 208.438 47.3975 208.783 47.3975C208.988 47.3975 209.185 47.4268 209.374 47.4854C209.563 47.5407 209.758 47.6107 209.96 47.6953L209.813 48.457C209.696 48.3984 209.553 48.3431 209.384 48.291C209.215 48.2357 209.037 48.208 208.852 48.208C208.526 48.208 208.297 48.2959 208.163 48.4717C208.033 48.6442 207.968 48.9062 207.968 49.2578V55ZM208.822 49.7168V50.4102H206.415V49.7168H208.822ZM210.375 49.7168V55H209.511V49.7168H210.375ZM215.111 54.2578V55H211.913V54.2578H215.111ZM215.014 50.3564L212.108 55H211.581V54.3359L214.467 49.7168H215.014V50.3564ZM214.638 49.7168V50.4639H211.596V49.7168H214.638ZM217.973 55.0977C217.657 55.0977 217.372 55.0505 217.118 54.9561C216.864 54.8617 216.648 54.7184 216.469 54.5264C216.29 54.3311 216.153 54.0853 216.059 53.7891C215.964 53.4928 215.917 53.1429 215.917 52.7393V52.1436C215.917 51.6781 215.971 51.2842 216.078 50.9619C216.189 50.6396 216.337 50.3809 216.522 50.1855C216.708 49.987 216.918 49.8437 217.152 49.7559C217.387 49.6647 217.628 49.6191 217.875 49.6191C218.207 49.6191 218.49 49.6729 218.725 49.7803C218.959 49.8877 219.149 50.0472 219.296 50.2588C219.442 50.4704 219.55 50.7308 219.618 51.04C219.69 51.3493 219.726 51.7057 219.726 52.1094V52.6123H216.425V51.875H218.861V51.7529C218.848 51.4795 218.811 51.2386 218.749 51.0303C218.69 50.8219 218.593 50.6592 218.456 50.542C218.319 50.4215 218.126 50.3613 217.875 50.3613C217.715 50.3613 217.567 50.389 217.431 50.4443C217.297 50.4964 217.182 50.5892 217.084 50.7227C216.99 50.8529 216.915 51.0335 216.859 51.2646C216.807 51.4958 216.781 51.7887 216.781 52.1436V52.7393C216.781 53.0225 216.807 53.2666 216.859 53.4717C216.915 53.6735 216.994 53.8411 217.099 53.9746C217.206 54.1048 217.336 54.2025 217.489 54.2676C217.646 54.3294 217.823 54.3604 218.021 54.3604C218.311 54.3604 218.55 54.305 218.739 54.1943C218.928 54.0804 219.092 53.9355 219.232 53.7598L219.687 54.3018C219.592 54.4352 219.468 54.5638 219.315 54.6875C219.166 54.8079 218.98 54.9072 218.759 54.9854C218.541 55.0602 218.279 55.0977 217.973 55.0977ZM222.699 49.7168V50.4102H220.233V49.7168H222.699ZM221.039 48.4326H221.903V53.6914C221.903 53.8704 221.924 54.0055 221.967 54.0967C222.012 54.1878 222.069 54.248 222.138 54.2773C222.206 54.3066 222.279 54.3213 222.357 54.3213C222.416 54.3213 222.481 54.3148 222.553 54.3018C222.624 54.2855 222.673 54.2725 222.699 54.2627L222.694 55C222.636 55.0228 222.558 55.0439 222.46 55.0635C222.362 55.0863 222.239 55.0977 222.089 55.0977C221.903 55.0977 221.731 55.0537 221.571 54.9658C221.412 54.8779 221.283 54.7314 221.186 54.5264C221.088 54.318 221.039 54.0381 221.039 53.6865V48.4326ZM225.619 55.0977C225.303 55.0977 225.019 55.0505 224.765 54.9561C224.511 54.8617 224.294 54.7184 224.115 54.5264C223.936 54.3311 223.799 54.0853 223.705 53.7891C223.611 53.4928 223.563 53.1429 223.563 52.7393V52.1436C223.563 51.6781 223.617 51.2842 223.725 50.9619C223.835 50.6396 223.983 50.3809 224.169 50.1855C224.354 49.987 224.564 49.8437 224.799 49.7559C225.033 49.6647 225.274 49.6191 225.521 49.6191C225.854 49.6191 226.137 49.6729 226.371 49.7803C226.605 49.8877 226.796 50.0472 226.942 50.2588C227.089 50.4704 227.196 50.7308 227.265 51.04C227.336 51.3493 227.372 51.7057 227.372 52.1094V52.6123H224.071V51.875H226.508V51.7529C226.495 51.4795 226.457 51.2386 226.396 51.0303C226.337 50.8219 226.239 50.6592 226.103 50.542C225.966 50.4215 225.772 50.3613 225.521 50.3613C225.362 50.3613 225.214 50.389 225.077 50.4443C224.944 50.4964 224.828 50.5892 224.73 50.7227C224.636 50.8529 224.561 51.0335 224.506 51.2646C224.454 51.4958 224.428 51.7887 224.428 52.1436V52.7393C224.428 53.0225 224.454 53.2666 224.506 53.4717C224.561 53.6735 224.641 53.8411 224.745 53.9746C224.853 54.1048 224.983 54.2025 225.136 54.2676C225.292 54.3294 225.469 54.3604 225.668 54.3604C225.958 54.3604 226.197 54.305 226.386 54.1943C226.575 54.0804 226.739 53.9355 226.879 53.7598L227.333 54.3018C227.239 54.4352 227.115 54.5638 226.962 54.6875C226.812 54.8079 226.627 54.9072 226.405 54.9854C226.187 55.0602 225.925 55.0977 225.619 55.0977ZM224.994 48.9355L225.941 47.5H227.03L225.722 48.9355H224.994ZM230.98 53.6475C230.98 53.514 230.948 53.3968 230.883 53.2959C230.818 53.195 230.71 53.0973 230.561 53.0029C230.414 52.9085 230.215 52.8076 229.965 52.7002C229.721 52.5993 229.501 52.5 229.306 52.4023C229.114 52.3014 228.951 52.1924 228.817 52.0752C228.684 51.958 228.581 51.8229 228.51 51.6699C228.441 51.5137 228.407 51.3298 228.407 51.1182C228.407 50.9066 228.446 50.7113 228.524 50.5322C228.606 50.3499 228.72 50.1904 228.866 50.0537C229.013 49.917 229.188 49.8112 229.394 49.7363C229.599 49.6582 229.828 49.6191 230.082 49.6191C230.443 49.6191 230.751 49.6891 231.005 49.8291C231.259 49.9691 231.452 50.1611 231.586 50.4053C231.723 50.6462 231.791 50.918 231.791 51.2207H230.932C230.932 51.0742 230.899 50.9359 230.834 50.8057C230.769 50.6755 230.673 50.5697 230.546 50.4883C230.419 50.4036 230.264 50.3613 230.082 50.3613C229.89 50.3613 229.734 50.3955 229.613 50.4639C229.493 50.5322 229.405 50.6217 229.35 50.7324C229.298 50.8398 229.271 50.9587 229.271 51.0889C229.271 51.1865 229.285 51.2712 229.311 51.3428C229.34 51.4111 229.389 51.4762 229.457 51.5381C229.525 51.5967 229.618 51.6585 229.735 51.7236C229.856 51.7855 230.009 51.8571 230.194 51.9385C230.552 52.0785 230.854 52.2201 231.098 52.3633C231.342 52.5065 231.527 52.6742 231.654 52.8662C231.781 53.0583 231.845 53.2959 231.845 53.5791C231.845 53.8102 231.802 54.0202 231.718 54.209C231.636 54.3945 231.519 54.554 231.366 54.6875C231.213 54.821 231.029 54.9235 230.814 54.9951C230.603 55.0635 230.365 55.0977 230.102 55.0977C229.704 55.0977 229.368 55.0195 229.091 54.8633C228.817 54.7038 228.609 54.4971 228.466 54.2432C228.326 53.986 228.256 53.7109 228.256 53.418H229.12C229.13 53.6654 229.185 53.8574 229.286 53.9941C229.39 54.1309 229.516 54.2253 229.662 54.2773C229.809 54.3294 229.955 54.3555 230.102 54.3555C230.294 54.3555 230.455 54.3278 230.585 54.2725C230.715 54.2139 230.813 54.1309 230.878 54.0234C230.946 53.916 230.98 53.7907 230.98 53.6475Z" fill="#E0E0E9"/>
<path fill-rule="evenodd" clip-rule="evenodd" d="M203 16L136 16V14L203 14V16Z" fill="#D0CFD7"/>
<path fill-rule="evenodd" clip-rule="evenodd" d="M110 16L43 16V14L110 14V16Z" fill="url(#paint2_linear_366_1452)"/>
<path fill-rule="evenodd" clip-rule="evenodd" d="M17.7612 6.17317C17 8.01088 17 10.3406 17 15C17 19.6594 17 21.9891 17.7612 23.8268C18.7761 26.2771 20.7229 28.2239 23.1732 29.2388C25.0109 30 27.3406 30 32 30C36.6594 30 38.9891 30 40.8268 29.2388C43.2771 28.2239 45.2239 26.2771 46.2388 23.8268C47 21.9891 47 19.6594 47 15C47 10.3406 47 8.01088 46.2388 6.17317C45.2239 3.72288 43.2771 1.77614 40.8268 0.761205C38.9891 0 36.6594 0 32 0C27.3406 0 25.0109 0 23.1732 0.761205C20.7229 1.77614 18.7761 3.72288 17.7612 6.17317ZM38.7071 11.7071C39.0976 11.3166 39.0976 10.6834 38.7071 10.2929C38.3166 9.90237 37.6834 9.90237 37.2929 10.2929L30 17.5858L26.7071 14.2929C26.3166 13.9024 25.6834 13.9024 25.2929 14.2929C24.9024 14.6834 24.9024 15.3166 25.2929 15.7071L29.2929 19.7071C29.4804 19.8946 29.7348 20 30 20C30.2652 20 30.5196 19.8946 30.7071 19.7071L38.7071 11.7071Z" fill="url(#paint3_linear_366_1452)"/>
<path fill-rule="evenodd" clip-rule="evenodd" d="M108.761 6.17317C108 8.01088 108 10.3406 108 15C108 19.6594 108 21.9891 108.761 23.8268C109.776 26.2771 111.723 28.2239 114.173 29.2388C116.011 30 118.341 30 123 30C127.659 30 129.989 30 131.827 29.2388C134.277 28.2239 136.224 26.2771 137.239 23.8268C138 21.9891 138 19.6594 138 15C138 10.3406 138 8.01088 137.239 6.17317C136.224 3.72288 134.277 1.77614 131.827 0.761205C129.989 0 127.659 0 123 0C118.341 0 116.011 0 114.173 0.761205C111.723 1.77614 109.776 3.72288 108.761 6.17317ZM129.707 11.7071C130.098 11.3166 130.098 10.6834 129.707 10.2929C129.317 9.90237 128.683 9.90237 128.293 10.2929L121 17.5858L117.707 14.2929C117.317 13.9024 116.683 13.9024 116.293 14.2929C115.902 14.6834 115.902 15.3166 116.293 15.7071L120.293 19.7071C120.48 19.8946 120.735 20 121 20C121.265 20 121.52 19.8946 121.707 19.7071L129.707 11.7071Z" fill="url(#paint4_linear_366_1452)"/>
<path fill-rule="evenodd" clip-rule="evenodd" d="M199.761 6.17317C199 8.01088 199 10.3406 199 15C199 19.6594 199 21.9891 199.761 23.8268C200.776 26.2771 202.723 28.2239 205.173 29.2388C207.011 30 209.341 30 214 30C218.659 30 220.989 30 222.827 29.2388C225.277 28.2239 227.224 26.2771 228.239 23.8268C229 21.9891 229 19.6594 229 15C229 10.3406 229 8.01088 228.239 6.17317C227.224 3.72288 225.277 1.77614 222.827 0.761205C220.989 0 218.659 0 214 0C209.341 0 207.011 0 205.173 0.761205C202.723 1.77614 200.776 3.72288 199.761 6.17317ZM220.707 11.7071C221.098 11.3166 221.098 10.6834 220.707 10.2929C220.317 9.90237 219.683 9.90237 219.293 10.2929L212 17.5858L208.707 14.2929C208.317 13.9024 207.683 13.9024 207.293 14.2929C206.902 14.6834 206.902 15.3166 207.293 15.7071L211.293 19.7071C211.48 19.8946 211.735 20 212 20C212.265 20 212.52 19.8946 212.707 19.7071L220.707 11.7071Z" fill="#D0CFD7"/>
<defs>
<linearGradient id="paint0_linear_366_1452" x1="32" y1="46" x2="32" y2="35" gradientUnits="userSpaceOnUse">
<stop stop-color="#5CCC94"/>
<stop offset="1" stop-color="#8CCAAE"/>
</linearGradient>
<linearGradient id="paint1_linear_366_1452" x1="123.5" y1="55" x2="123.5" y2="35" gradientUnits="userSpaceOnUse">
<stop stop-color="#5CCC94"/>
<stop offset="1" stop-color="#8CCAAE"/>
</linearGradient>
<linearGradient id="paint2_linear_366_1452" x1="76.5" y1="16" x2="76.5" y2="14" gradientUnits="userSpaceOnUse">
<stop stop-color="#5CCC94"/>
<stop offset="1" stop-color="#8CCAAE"/>
</linearGradient>
<linearGradient id="paint3_linear_366_1452" x1="32" y1="30" x2="32" y2="1.58545e-07" gradientUnits="userSpaceOnUse">
<stop stop-color="#5CCC94"/>
<stop offset="1" stop-color="#8CCAAE"/>
</linearGradient>
<linearGradient id="paint4_linear_366_1452" x1="123" y1="30" x2="123" y2="1.58545e-07" gradientUnits="userSpaceOnUse">
<stop stop-color="#5CCC94"/>
<stop offset="1" stop-color="#8CCAAE"/>
</linearGradient>
</defs>
</svg>
