<svg width="321" height="68" viewBox="0 0 321 68" fill="none" xmlns="http://www.w3.org/2000/svg">
<path d="M12.8223 35.8906L12.8223 43H11.9336L11.9336 35.8906H12.8223ZM14.6924 35.8906V36.6621H10.0684V35.8906H14.6924ZM16.499 42.4531L17.6758 37.7168H18.5938L16.8506 43.8154C16.8083 43.9456 16.7513 44.0856 16.6797 44.2354C16.6113 44.3883 16.5234 44.5332 16.416 44.6699C16.3086 44.8066 16.18 44.9173 16.0303 45.002C15.8805 45.0898 15.7048 45.1338 15.5029 45.1338C15.4411 45.1338 15.3613 45.124 15.2637 45.1045C15.1693 45.085 15.1009 45.0687 15.0586 45.0557V44.3232C15.0781 44.3265 15.109 44.3298 15.1514 44.333C15.1937 44.3395 15.2246 44.3428 15.2441 44.3428C15.4134 44.3428 15.5566 44.3151 15.6738 44.2598C15.7943 44.2077 15.8968 44.1182 15.9814 43.9912C16.0661 43.8675 16.1377 43.6966 16.1963 43.4785L16.499 42.4531ZM15.7373 37.7168L16.7871 41.8184L17.0117 42.7705L16.3965 43.1025L14.7949 37.7168H15.7373ZM20.3076 38.7324V45.0312H19.4434V37.7168H20.2295L20.3076 38.7324ZM23.2617 40.1191V40.6123C23.2617 41.029 23.2227 41.3936 23.1445 41.7061C23.0697 42.0153 22.9574 42.2741 22.8076 42.4824C22.6611 42.6875 22.4805 42.8421 22.2656 42.9463C22.0508 43.0472 21.805 43.0977 21.5283 43.0977C21.2516 43.0977 21.0107 43.0456 20.8057 42.9414C20.6038 42.834 20.4329 42.6794 20.293 42.4775C20.1562 42.2757 20.0472 42.0332 19.9658 41.75C19.8877 41.4635 19.834 41.1429 19.8047 40.7881V40.0361C19.834 39.6618 19.8877 39.3265 19.9658 39.0303C20.0439 38.7308 20.1514 38.4769 20.2881 38.2686C20.4281 38.057 20.599 37.8958 20.8008 37.7852C21.0059 37.6745 21.2451 37.6191 21.5186 37.6191C21.8018 37.6191 22.0508 37.668 22.2656 37.7656C22.4837 37.8633 22.666 38.0146 22.8125 38.2197C22.9622 38.4215 23.0745 38.6803 23.1494 38.9961C23.2243 39.3086 23.2617 39.6829 23.2617 40.1191ZM22.3975 40.6123V40.1191C22.3975 39.8262 22.3747 39.5706 22.3291 39.3525C22.2868 39.1344 22.2184 38.9538 22.124 38.8105C22.0296 38.6673 21.9108 38.5599 21.7676 38.4883C21.6243 38.4167 21.4518 38.3809 21.25 38.3809C21.0775 38.3809 20.9245 38.4167 20.791 38.4883C20.6608 38.5599 20.5485 38.6576 20.4541 38.7812C20.3597 38.9017 20.2816 39.04 20.2197 39.1963C20.1579 39.3493 20.1123 39.5088 20.083 39.6748V41.1543C20.1383 41.3626 20.2116 41.5596 20.3027 41.7451C20.3939 41.9274 20.516 42.0755 20.6689 42.1895C20.8252 42.3034 21.0221 42.3604 21.2598 42.3604C21.4583 42.3604 21.6292 42.3245 21.7725 42.2529C21.9157 42.1813 22.0329 42.0739 22.124 41.9307C22.2184 41.7842 22.2868 41.6019 22.3291 41.3838C22.3747 41.1624 22.3975 40.9053 22.3975 40.6123ZM29.4385 41.9746V35.5H30.2979V43H29.5117L29.4385 41.9746ZM26.4844 40.6123V40.1191C26.4844 39.6829 26.5267 39.3086 26.6113 38.9961C26.696 38.6803 26.8164 38.4215 26.9727 38.2197C27.1289 38.0146 27.3161 37.8633 27.5342 37.7656C27.7523 37.668 27.9932 37.6191 28.2568 37.6191C28.5303 37.6191 28.7646 37.6745 28.96 37.7852C29.1585 37.8958 29.3245 38.057 29.458 38.2686C29.5915 38.4769 29.6956 38.7308 29.7705 39.0303C29.8486 39.3265 29.9007 39.6618 29.9268 40.0361V40.6953C29.8975 41.0664 29.8438 41.4001 29.7656 41.6963C29.6908 41.9925 29.5866 42.2448 29.4531 42.4531C29.3197 42.6615 29.1536 42.821 28.9551 42.9316C28.7565 43.0423 28.5205 43.0977 28.2471 43.0977C27.9867 43.0977 27.749 43.0472 27.5342 42.9463C27.3193 42.8421 27.1322 42.6875 26.9727 42.4824C26.8164 42.2741 26.696 42.0153 26.6113 41.7061C26.5267 41.3936 26.4844 41.029 26.4844 40.6123ZM27.3486 40.1191V40.6123C27.3486 40.9053 27.3698 41.1608 27.4121 41.3789C27.4544 41.5937 27.5212 41.7728 27.6123 41.916C27.7035 42.056 27.819 42.1602 27.959 42.2285C28.1022 42.2969 28.2731 42.3311 28.4717 42.3311C28.7126 42.3311 28.9095 42.2725 29.0625 42.1553C29.2155 42.0381 29.3376 41.8835 29.4287 41.6914C29.5231 41.4961 29.598 41.2861 29.6533 41.0615V39.6748C29.6208 39.5088 29.5736 39.3493 29.5117 39.1963C29.4499 39.04 29.3717 38.9017 29.2773 38.7812C29.1862 38.6576 29.0739 38.5599 28.9404 38.4883C28.8102 38.4167 28.6572 38.3809 28.4814 38.3809C28.2829 38.3809 28.1104 38.4167 27.9639 38.4883C27.8206 38.5599 27.7035 38.6673 27.6123 38.8105C27.5244 38.9538 27.4577 39.1344 27.4121 39.3525C27.3698 39.5706 27.3486 39.8262 27.3486 40.1191ZM33.5205 43.0977C33.2048 43.0977 32.9199 43.0505 32.666 42.9561C32.4121 42.8617 32.1956 42.7184 32.0166 42.5264C31.8376 42.3311 31.7008 42.0853 31.6064 41.7891C31.512 41.4928 31.4648 41.1429 31.4648 40.7393V40.1436C31.4648 39.6781 31.5186 39.2842 31.626 38.9619C31.7367 38.6396 31.8848 38.3809 32.0703 38.1855C32.2559 37.987 32.4658 37.8437 32.7002 37.7559C32.9346 37.6647 33.1755 37.6191 33.4229 37.6191C33.7549 37.6191 34.0381 37.6729 34.2725 37.7803C34.5068 37.8877 34.6973 38.0472 34.8438 38.2588C34.9902 38.4704 35.0977 38.7308 35.166 39.04C35.2376 39.3493 35.2734 39.7057 35.2734 40.1094V40.6123H31.9727V39.875H34.4092V39.7529C34.3962 39.4795 34.3587 39.2386 34.2969 39.0303C34.2383 38.8219 34.1406 38.6592 34.0039 38.542C33.8672 38.4215 33.6735 38.3613 33.4229 38.3613C33.2633 38.3613 33.1152 38.389 32.9785 38.4443C32.8451 38.4964 32.7295 38.5892 32.6318 38.7227C32.5374 38.8529 32.4626 39.0335 32.4072 39.2646C32.3551 39.4958 32.3291 39.7887 32.3291 40.1436V40.7393C32.3291 41.0225 32.3551 41.2666 32.4072 41.4717C32.4626 41.6735 32.5423 41.8411 32.6465 41.9746C32.7539 42.1048 32.8841 42.2025 33.0371 42.2676C33.1934 42.3294 33.3708 42.3604 33.5693 42.3604C33.859 42.3604 34.0983 42.305 34.2871 42.1943C34.4759 42.0804 34.6403 41.9355 34.7803 41.7598L35.2344 42.3018C35.14 42.4352 35.0163 42.5638 34.8633 42.6875C34.7135 42.8079 34.528 42.9072 34.3066 42.9854C34.0885 43.0602 33.8265 43.0977 33.5205 43.0977ZM38.8818 41.6475C38.8818 41.514 38.8493 41.3968 38.7842 41.2959C38.7191 41.195 38.6117 41.0973 38.4619 41.0029C38.3154 40.9085 38.1169 40.8076 37.8662 40.7002C37.6221 40.5993 37.4023 40.5 37.207 40.4023C37.015 40.3014 36.8522 40.1924 36.7188 40.0752C36.5853 39.958 36.4827 39.8229 36.4111 39.6699C36.3428 39.5137 36.3086 39.3298 36.3086 39.1182C36.3086 38.9066 36.3477 38.7113 36.4258 38.5322C36.5072 38.3499 36.6211 38.1904 36.7676 38.0537C36.9141 37.917 37.0898 37.8112 37.2949 37.7363C37.5 37.6582 37.7295 37.6191 37.9834 37.6191C38.3447 37.6191 38.6523 37.6891 38.9062 37.8291C39.1602 37.9691 39.3538 38.1611 39.4873 38.4053C39.624 38.6462 39.6924 38.918 39.6924 39.2207H38.833C38.833 39.0742 38.8005 38.9359 38.7354 38.8057C38.6702 38.6755 38.5742 38.5697 38.4473 38.4883C38.3203 38.4036 38.1657 38.3613 37.9834 38.3613C37.7913 38.3613 37.6351 38.3955 37.5146 38.4639C37.3942 38.5322 37.3063 38.6217 37.251 38.7324C37.1989 38.8398 37.1729 38.9587 37.1729 39.0889C37.1729 39.1865 37.1859 39.2712 37.2119 39.3428C37.2412 39.4111 37.29 39.4762 37.3584 39.5381C37.4268 39.5967 37.5195 39.6585 37.6367 39.7236C37.7572 39.7855 37.9102 39.8571 38.0957 39.9385C38.4538 40.0785 38.7549 40.2201 38.999 40.3633C39.2432 40.5065 39.4287 40.6742 39.5557 40.8662C39.6826 41.0583 39.7461 41.2959 39.7461 41.5791C39.7461 41.8102 39.7038 42.0202 39.6191 42.209C39.5378 42.3945 39.4206 42.554 39.2676 42.6875C39.1146 42.821 38.9307 42.9235 38.7158 42.9951C38.5042 43.0635 38.2666 43.0977 38.0029 43.0977C37.6058 43.0977 37.2689 43.0195 36.9922 42.8633C36.7188 42.7038 36.5104 42.4971 36.3672 42.2432C36.2272 41.986 36.1572 41.7109 36.1572 41.418H37.0215C37.0312 41.6654 37.0866 41.8574 37.1875 41.9941C37.2917 42.1309 37.417 42.2253 37.5635 42.2773C37.71 42.3294 37.8564 42.3555 38.0029 42.3555C38.195 42.3555 38.3561 42.3278 38.4863 42.2725C38.6165 42.2139 38.7142 42.1309 38.7793 42.0234C38.8477 41.916 38.8818 41.7907 38.8818 41.6475ZM6.85547 47.5205L4.91211 54H3.99414L6.28418 46.8906H6.86035L6.85547 47.5205ZM8.42773 54L6.48438 47.5205L6.47461 46.8906H7.05566L9.3457 54H8.42773ZM8.42773 51.3682V52.1396H5V51.3682H8.42773ZM12.8174 52.7793L12.8174 48.7168H13.6816L13.6816 54H12.8613L12.8174 52.7793ZM12.9785 51.666L13.3203 51.6562C13.3203 52.0078 13.2894 52.3333 13.2275 52.6328C13.1689 52.929 13.0713 53.1862 12.9346 53.4043C12.8011 53.6224 12.6237 53.7933 12.4023 53.917C12.181 54.0374 11.9092 54.0977 11.5869 54.0977C11.3688 54.0977 11.1702 54.0602 10.9912 53.9854C10.8154 53.9105 10.6624 53.7949 10.5322 53.6387C10.4053 53.4824 10.306 53.279 10.2344 53.0283C10.166 52.7777 10.1318 52.4766 10.1318 52.125L10.1318 48.7168H10.9912L10.9912 52.1348C10.9912 52.3724 11.0124 52.5693 11.0547 52.7256C11.097 52.8786 11.154 53.0007 11.2256 53.0918C11.2972 53.1797 11.377 53.2415 11.4648 53.2773C11.5527 53.3132 11.6423 53.3311 11.7334 53.3311C12.0394 53.3311 12.2835 53.2578 12.4658 53.1113C12.6481 52.9616 12.7783 52.7614 12.8564 52.5107C12.9378 52.2568 12.9785 51.9753 12.9785 51.666ZM16.2256 54H15.3613L15.3613 48.1602C15.3613 47.7793 15.4215 47.4587 15.542 47.1982C15.6657 46.9346 15.8398 46.736 16.0645 46.6025C16.2923 46.4658 16.5625 46.3975 16.875 46.3975C16.9629 46.3975 17.0508 46.404 17.1387 46.417C17.2298 46.43 17.3161 46.4495 17.3975 46.4756L17.3584 47.2129C17.3063 47.1966 17.2428 47.1852 17.168 47.1787C17.0964 47.1722 17.028 47.1689 16.9629 47.1689C16.8066 47.1689 16.6732 47.208 16.5625 47.2861C16.4518 47.361 16.3672 47.4717 16.3086 47.6182C16.2533 47.7646 16.2256 47.9453 16.2256 48.1602V54ZM17.124 48.7168V49.4102H14.6729V48.7168H17.124ZM19.0137 46.5V54H18.1494V46.5H19.0137ZM21.6943 48.7168L19.8145 51.1826L18.6523 52.5205L18.5938 51.5586L19.3945 50.4551L20.6543 48.7168H21.6943ZM20.9033 54L19.4189 51.4805L19.8633 50.6748L21.9092 54H20.9033ZM23.584 46.5V54H22.7246V46.5H23.584ZM26.8408 54.0977C26.5251 54.0977 26.2402 54.0505 25.9863 53.9561C25.7324 53.8617 25.516 53.7184 25.3369 53.5264C25.1579 53.3311 25.0212 53.0853 24.9268 52.7891C24.8324 52.4928 24.7852 52.1429 24.7852 51.7393V51.1436C24.7852 50.6781 24.8389 50.2842 24.9463 49.9619C25.057 49.6396 25.2051 49.3809 25.3906 49.1855C25.5762 48.987 25.7861 48.8438 26.0205 48.7559C26.2549 48.6647 26.4958 48.6191 26.7432 48.6191C27.0752 48.6191 27.3584 48.6729 27.5928 48.7803C27.8271 48.8877 28.0176 49.0472 28.1641 49.2588C28.3105 49.4704 28.418 49.7308 28.4863 50.04C28.5579 50.3493 28.5938 50.7057 28.5938 51.1094V51.6123H25.293V50.875H27.7295V50.7529C27.7165 50.4795 27.679 50.2386 27.6172 50.0303C27.5586 49.8219 27.4609 49.6592 27.3242 49.542C27.1875 49.4215 26.9938 49.3613 26.7432 49.3613C26.5837 49.3613 26.4355 49.389 26.2988 49.4443C26.1654 49.4964 26.0498 49.5892 25.9521 49.7227C25.8577 49.8529 25.7829 50.0335 25.7275 50.2646C25.6755 50.4958 25.6494 50.7887 25.6494 51.1436V51.7393C25.6494 52.0225 25.6755 52.2666 25.7275 52.4717C25.7829 52.6735 25.8626 52.8411 25.9668 52.9746C26.0742 53.1048 26.2044 53.2025 26.3574 53.2676C26.5137 53.3294 26.6911 53.3604 26.8896 53.3604C27.1794 53.3604 27.4186 53.305 27.6074 53.1943C27.7962 53.0804 27.9606 52.9355 28.1006 52.7598L28.5547 53.3018C28.4603 53.4352 28.3366 53.5638 28.1836 53.6875C28.0339 53.8079 27.8483 53.9072 27.627 53.9854C27.4089 54.0602 27.1468 54.0977 26.8408 54.0977ZM29.6387 46.5H30.5029V52.9746L30.4297 54H29.6387V46.5ZM33.4668 51.1191V51.6123C33.4668 52.029 33.4277 52.3936 33.3496 52.7061C33.2747 53.0153 33.1624 53.2741 33.0127 53.4824C32.863 53.6875 32.6807 53.8421 32.4658 53.9463C32.251 54.0472 32.0052 54.0977 31.7285 54.0977C31.4551 54.0977 31.2191 54.0423 31.0205 53.9316C30.8219 53.821 30.6559 53.6615 30.5225 53.4531C30.389 53.2448 30.2832 52.9925 30.2051 52.6963C30.1302 52.4001 30.0781 52.0664 30.0488 51.6953V51.0361C30.0781 50.6618 30.1302 50.3265 30.2051 50.0303C30.2799 49.7308 30.3841 49.4769 30.5176 49.2686C30.651 49.057 30.8171 48.8958 31.0156 48.7852C31.2142 48.6745 31.4502 48.6191 31.7236 48.6191C32.0036 48.6191 32.251 48.668 32.4658 48.7656C32.6839 48.8633 32.8662 49.0146 33.0127 49.2197C33.1624 49.4215 33.2747 49.6803 33.3496 49.9961C33.4277 50.3086 33.4668 50.6829 33.4668 51.1191ZM32.6025 51.6123V51.1191C32.6025 50.8262 32.583 50.5706 32.5439 50.3525C32.5081 50.1344 32.4479 49.9538 32.3633 49.8105C32.2786 49.6673 32.1647 49.5599 32.0215 49.4883C31.8815 49.4167 31.7074 49.3809 31.499 49.3809C31.3232 49.3809 31.1686 49.4167 31.0352 49.4883C30.9049 49.5599 30.7926 49.6576 30.6982 49.7812C30.6038 49.9017 30.5257 50.04 30.4639 50.1963C30.402 50.3493 30.3564 50.5088 30.3271 50.6748V52.0615C30.3695 52.2731 30.4362 52.4766 30.5273 52.6719C30.6217 52.8639 30.7487 53.0218 30.9082 53.1455C31.0677 53.2692 31.2663 53.3311 31.5039 53.3311C31.7025 53.3311 31.8701 53.2969 32.0068 53.2285C32.1468 53.1602 32.2607 53.056 32.3486 52.916C32.4365 52.7728 32.5 52.5938 32.5391 52.3789C32.5814 52.1608 32.6025 51.9053 32.6025 51.6123ZM36.46 54.0977C36.1442 54.0977 35.8594 54.0505 35.6055 53.9561C35.3516 53.8617 35.1351 53.7184 34.9561 53.5264C34.777 53.3311 34.6403 53.0853 34.5459 52.7891C34.4515 52.4928 34.4043 52.1429 34.4043 51.7393V51.1436C34.4043 50.6781 34.458 50.2842 34.5654 49.9619C34.6761 49.6396 34.8242 49.3809 35.0098 49.1855C35.1953 48.987 35.4053 48.8437 35.6396 48.7559C35.874 48.6647 36.1149 48.6191 36.3623 48.6191C36.6943 48.6191 36.9775 48.6729 37.2119 48.7803C37.4463 48.8877 37.6367 49.0472 37.7832 49.2588C37.9297 49.4704 38.0371 49.7308 38.1055 50.04C38.1771 50.3493 38.2129 50.7057 38.2129 51.1094V51.6123H34.9121V50.875H37.3486V50.7529C37.3356 50.4795 37.2982 50.2386 37.2363 50.0303C37.1777 49.8219 37.0801 49.6592 36.9434 49.542C36.8066 49.4215 36.613 49.3613 36.3623 49.3613C36.2028 49.3613 36.0547 49.389 35.918 49.4443C35.7845 49.4964 35.6689 49.5892 35.5713 49.7227C35.4769 49.8529 35.402 50.0335 35.3467 50.2646C35.2946 50.4958 35.2686 50.7887 35.2686 51.1436V51.7393C35.2686 52.0225 35.2946 52.2666 35.3467 52.4717C35.402 52.6735 35.4818 52.8411 35.5859 52.9746C35.6934 53.1048 35.8236 53.2025 35.9766 53.2676C36.1328 53.3294 36.3102 53.3604 36.5088 53.3604C36.7985 53.3604 37.0378 53.305 37.2266 53.1943C37.4154 53.0804 37.5798 52.9355 37.7197 52.7598L38.1738 53.3018C38.0794 53.4352 37.9557 53.5638 37.8027 53.6875C37.653 53.8079 37.4674 53.9072 37.2461 53.9854C37.028 54.0602 36.766 54.0977 36.46 54.0977ZM40.1221 49.5469V54H39.2578V48.7168H40.0928L40.1221 49.5469ZM41.4355 48.6875L41.4404 49.5273C41.3688 49.5111 41.3037 49.5013 41.2451 49.498C41.1898 49.4915 41.1247 49.4883 41.0498 49.4883C40.887 49.4883 40.7438 49.5208 40.6201 49.5859C40.4997 49.651 40.3955 49.7422 40.3076 49.8594C40.2197 49.9766 40.1497 50.1165 40.0977 50.2793C40.0456 50.4388 40.0098 50.6146 39.9902 50.8066L39.7656 50.9531C39.7656 50.6341 39.79 50.3346 39.8389 50.0547C39.891 49.7747 39.9707 49.5273 40.0781 49.3125C40.1855 49.0944 40.3223 48.9251 40.4883 48.8047C40.6576 48.681 40.8594 48.6191 41.0938 48.6191C41.1458 48.6191 41.2093 48.6273 41.2842 48.6436C41.3623 48.6566 41.4128 48.6712 41.4355 48.6875ZM44.8682 52.6475C44.8682 52.514 44.8356 52.3968 44.7705 52.2959C44.7054 52.195 44.598 52.0973 44.4482 52.0029C44.3018 51.9085 44.1032 51.8076 43.8525 51.7002C43.6084 51.5993 43.3887 51.5 43.1934 51.4023C43.0013 51.3014 42.8385 51.1924 42.7051 51.0752C42.5716 50.958 42.4691 50.8229 42.3975 50.6699C42.3291 50.5137 42.2949 50.3298 42.2949 50.1182C42.2949 49.9066 42.334 49.7113 42.4121 49.5322C42.4935 49.3499 42.6074 49.1904 42.7539 49.0537C42.9004 48.917 43.0762 48.8112 43.2812 48.7363C43.4863 48.6582 43.7158 48.6191 43.9697 48.6191C44.3311 48.6191 44.6387 48.6891 44.8926 48.8291C45.1465 48.9691 45.3402 49.1611 45.4736 49.4053C45.6104 49.6462 45.6787 49.918 45.6787 50.2207H44.8193C44.8193 50.0742 44.7868 49.9359 44.7217 49.8057C44.6566 49.6755 44.5605 49.5697 44.4336 49.4883C44.3066 49.4036 44.152 49.3613 43.9697 49.3613C43.7777 49.3613 43.6214 49.3955 43.501 49.4639C43.3805 49.5322 43.2926 49.6217 43.2373 49.7324C43.1852 49.8398 43.1592 49.9587 43.1592 50.0889C43.1592 50.1865 43.1722 50.2712 43.1982 50.3428C43.2275 50.4111 43.2764 50.4762 43.3447 50.5381C43.4131 50.5967 43.5059 50.6585 43.623 50.7236C43.7435 50.7855 43.8965 50.8571 44.082 50.9385C44.4401 51.0785 44.7412 51.2201 44.9854 51.3633C45.2295 51.5065 45.415 51.6742 45.542 51.8662C45.6689 52.0583 45.7324 52.2959 45.7324 52.5791C45.7324 52.8102 45.6901 53.0202 45.6055 53.209C45.5241 53.3945 45.4069 53.554 45.2539 53.6875C45.1009 53.821 44.917 53.9235 44.7021 53.9951C44.4906 54.0635 44.2529 54.0977 43.9893 54.0977C43.5921 54.0977 43.2552 54.0195 42.9785 53.8633C42.7051 53.7038 42.4967 53.4971 42.3535 53.2432C42.2135 52.986 42.1436 52.7109 42.1436 52.418H43.0078C43.0176 52.6654 43.0729 52.8574 43.1738 52.9941C43.278 53.1309 43.4033 53.2253 43.5498 53.2773C43.6963 53.3294 43.8428 53.3555 43.9893 53.3555C44.1813 53.3555 44.3424 53.3278 44.4727 53.2725C44.6029 53.2139 44.7005 53.1309 44.7656 53.0234C44.834 52.916 44.8682 52.7907 44.8682 52.6475Z" fill="url(#paint0_linear_1406_1509)"/>
<path d="M92.1221 41.5205L90.1787 48H89.2607L91.5508 40.8906H92.127L92.1221 41.5205ZM93.6943 48L91.751 41.5205L91.7412 40.8906H92.3223L94.6123 48H93.6943ZM93.6943 45.3682V46.1396H90.2666V45.3682H93.6943ZM98.084 46.7793V42.7168H98.9482V48H98.1279L98.084 46.7793ZM98.2451 45.666L98.5869 45.6562C98.5869 46.0078 98.556 46.3333 98.4941 46.6328C98.4355 46.929 98.3379 47.1862 98.2012 47.4043C98.0677 47.6224 97.8903 47.7933 97.6689 47.917C97.4476 48.0374 97.1758 48.0977 96.8535 48.0977C96.6354 48.0977 96.4368 48.0602 96.2578 47.9854C96.082 47.9105 95.929 47.7949 95.7988 47.6387C95.6719 47.4824 95.5726 47.279 95.501 47.0283C95.4326 46.7777 95.3984 46.4766 95.3984 46.125V42.7168H96.2578V46.1348C96.2578 46.3724 96.279 46.5693 96.3213 46.7256C96.3636 46.8786 96.4206 47.0007 96.4922 47.0918C96.5638 47.1797 96.6436 47.2415 96.7314 47.2773C96.8193 47.3132 96.9089 47.3311 97 47.3311C97.306 47.3311 97.5501 47.2578 97.7324 47.1113C97.9147 46.9616 98.0449 46.7614 98.123 46.5107C98.2044 46.2568 98.2451 45.9753 98.2451 45.666ZM102.176 42.7168V43.4102H99.71V42.7168H102.176ZM100.516 41.4326H101.38V46.6914C101.38 46.8704 101.401 47.0055 101.443 47.0967C101.489 47.1878 101.546 47.248 101.614 47.2773C101.683 47.3066 101.756 47.3213 101.834 47.3213C101.893 47.3213 101.958 47.3148 102.029 47.3018C102.101 47.2855 102.15 47.2725 102.176 47.2627L102.171 48C102.112 48.0228 102.034 48.0439 101.937 48.0635C101.839 48.0863 101.715 48.0977 101.565 48.0977C101.38 48.0977 101.207 48.0537 101.048 47.9658C100.888 47.8779 100.76 47.7314 100.662 47.5264C100.564 47.318 100.516 47.0381 100.516 46.6865V41.4326ZM102.928 45.6123V45.1094C102.928 44.6992 102.98 44.3395 103.084 44.0303C103.188 43.7178 103.333 43.4574 103.519 43.249C103.704 43.0407 103.921 42.8844 104.168 42.7803C104.415 42.6729 104.681 42.6191 104.964 42.6191C105.254 42.6191 105.522 42.6729 105.77 42.7803C106.017 42.8844 106.233 43.0407 106.419 43.249C106.608 43.4574 106.754 43.7178 106.858 44.0303C106.963 44.3395 107.015 44.6992 107.015 45.1094V45.6123C107.015 46.0225 106.963 46.3838 106.858 46.6963C106.754 47.0055 106.609 47.2643 106.424 47.4727C106.238 47.681 106.022 47.8372 105.774 47.9414C105.527 48.0456 105.26 48.0977 104.974 48.0977C104.687 48.0977 104.42 48.0456 104.173 47.9414C103.925 47.8372 103.707 47.681 103.519 47.4727C103.333 47.2643 103.188 47.0055 103.084 46.6963C102.98 46.3838 102.928 46.0225 102.928 45.6123ZM103.792 45.1094V45.6123C103.792 45.902 103.821 46.1559 103.88 46.374C103.938 46.5921 104.021 46.7744 104.129 46.9209C104.236 47.0674 104.362 47.1781 104.505 47.2529C104.648 47.3245 104.804 47.3604 104.974 47.3604C105.169 47.3604 105.34 47.3245 105.486 47.2529C105.636 47.1781 105.76 47.0674 105.857 46.9209C105.955 46.7744 106.028 46.5921 106.077 46.374C106.126 46.1559 106.15 45.902 106.15 45.6123V45.1094C106.15 44.8197 106.121 44.5674 106.062 44.3525C106.004 44.1344 105.921 43.9521 105.813 43.8057C105.706 43.6559 105.579 43.5452 105.433 43.4736C105.289 43.3988 105.133 43.3613 104.964 43.3613C104.798 43.3613 104.643 43.3988 104.5 43.4736C104.357 43.5452 104.231 43.6559 104.124 43.8057C104.02 43.9521 103.938 44.1344 103.88 44.3525C103.821 44.5674 103.792 44.8197 103.792 45.1094ZM108.992 43.8447V48H108.128V42.7168H108.943L108.992 43.8447ZM108.782 45.1582L108.431 45.1436C108.427 44.7822 108.468 44.4486 108.553 44.1426C108.641 43.8333 108.764 43.5648 108.924 43.3369C109.087 43.109 109.28 42.9333 109.505 42.8096C109.729 42.6826 109.979 42.6191 110.252 42.6191C110.467 42.6191 110.662 42.6549 110.838 42.7266C111.014 42.7949 111.163 42.9056 111.287 43.0586C111.411 43.2116 111.505 43.4102 111.57 43.6543C111.639 43.8952 111.673 44.1898 111.673 44.5381V48H110.809V44.5283C110.809 44.2516 110.778 44.0303 110.716 43.8643C110.657 43.695 110.566 43.5729 110.442 43.498C110.322 43.4199 110.169 43.3809 109.983 43.3809C109.814 43.3809 109.656 43.4281 109.51 43.5225C109.363 43.6169 109.235 43.7471 109.124 43.9131C109.017 44.0791 108.932 44.2695 108.87 44.4844C108.812 44.696 108.782 44.9206 108.782 45.1582ZM115.643 46.7793V42.7168H116.507V48H115.687L115.643 46.7793ZM115.804 45.666L116.146 45.6562C116.146 46.0078 116.115 46.3333 116.053 46.6328C115.994 46.929 115.896 47.1862 115.76 47.4043C115.626 47.6224 115.449 47.7933 115.228 47.917C115.006 48.0374 114.734 48.0977 114.412 48.0977C114.194 48.0977 113.995 48.0602 113.816 47.9854C113.641 47.9105 113.488 47.7949 113.357 47.6387C113.23 47.4824 113.131 47.279 113.06 47.0283C112.991 46.7777 112.957 46.4766 112.957 46.125V42.7168H113.816V46.1348C113.816 46.3724 113.838 46.5693 113.88 46.7256C113.922 46.8786 113.979 47.0007 114.051 47.0918C114.122 47.1797 114.202 47.2415 114.29 47.2773C114.378 47.3132 114.467 47.3311 114.559 47.3311C114.865 47.3311 115.109 47.2578 115.291 47.1113C115.473 46.9616 115.604 46.7614 115.682 46.5107C115.763 46.2568 115.804 45.9753 115.804 45.666ZM118.67 43.7666V48H117.811V42.7168H118.621L118.67 43.7666ZM118.494 45.1582L118.094 45.1436C118.09 44.7822 118.126 44.4486 118.201 44.1426C118.276 43.8333 118.388 43.5648 118.538 43.3369C118.691 43.109 118.882 42.9333 119.109 42.8096C119.34 42.6826 119.609 42.6191 119.915 42.6191C120.117 42.6191 120.304 42.6549 120.477 42.7266C120.652 42.7949 120.805 42.904 120.936 43.0537C121.066 43.2035 121.167 43.3955 121.238 43.6299C121.313 43.8643 121.351 44.1475 121.351 44.4795V48H120.486V44.5234C120.486 44.2467 120.449 44.0254 120.374 43.8594C120.302 43.6934 120.2 43.5729 120.066 43.498C119.933 43.4199 119.773 43.3809 119.588 43.3809C119.376 43.3809 119.199 43.4281 119.056 43.5225C118.916 43.6169 118.803 43.7471 118.719 43.9131C118.637 44.0791 118.579 44.2695 118.543 44.4844C118.51 44.696 118.494 44.9206 118.494 45.1582ZM121.341 44.6602L120.765 44.8457C120.761 44.556 120.797 44.2777 120.872 44.0107C120.947 43.7438 121.058 43.5062 121.204 43.2979C121.354 43.0895 121.539 42.9251 121.761 42.8047C121.982 42.681 122.239 42.6191 122.532 42.6191C122.773 42.6191 122.986 42.6566 123.172 42.7314C123.357 42.8063 123.514 42.9219 123.641 43.0781C123.771 43.2311 123.868 43.4281 123.934 43.6689C123.999 43.9098 124.031 44.1963 124.031 44.5283V48H123.167V44.5186C123.167 44.2223 123.13 43.9928 123.055 43.8301C122.983 43.6641 122.881 43.5485 122.747 43.4834C122.614 43.415 122.454 43.3809 122.269 43.3809C122.119 43.3809 121.985 43.415 121.868 43.4834C121.754 43.5518 121.658 43.6462 121.58 43.7666C121.502 43.8838 121.442 44.0189 121.399 44.1719C121.36 44.3249 121.341 44.4876 121.341 44.6602ZM126.199 43.7666V48H125.34V42.7168H126.15L126.199 43.7666ZM126.023 45.1582L125.623 45.1436C125.62 44.7822 125.656 44.4486 125.73 44.1426C125.805 43.8333 125.918 43.5648 126.067 43.3369C126.22 43.109 126.411 42.9333 126.639 42.8096C126.87 42.6826 127.138 42.6191 127.444 42.6191C127.646 42.6191 127.833 42.6549 128.006 42.7266C128.182 42.7949 128.335 42.904 128.465 43.0537C128.595 43.2035 128.696 43.3955 128.768 43.6299C128.842 43.8643 128.88 44.1475 128.88 44.4795V48H128.016V44.5234C128.016 44.2467 127.978 44.0254 127.903 43.8594C127.832 43.6934 127.729 43.5729 127.596 43.498C127.462 43.4199 127.303 43.3809 127.117 43.3809C126.906 43.3809 126.728 43.4281 126.585 43.5225C126.445 43.6169 126.333 43.7471 126.248 43.9131C126.167 44.0791 126.108 44.2695 126.072 44.4844C126.04 44.696 126.023 44.9206 126.023 45.1582ZM128.87 44.6602L128.294 44.8457C128.291 44.556 128.326 44.2777 128.401 44.0107C128.476 43.7438 128.587 43.5062 128.733 43.2979C128.883 43.0895 129.069 42.9251 129.29 42.8047C129.511 42.681 129.769 42.6191 130.062 42.6191C130.302 42.6191 130.516 42.6566 130.701 42.7314C130.887 42.8063 131.043 42.9219 131.17 43.0781C131.3 43.2311 131.398 43.4281 131.463 43.6689C131.528 43.9098 131.561 44.1963 131.561 44.5283V48H130.696V44.5186C130.696 44.2223 130.659 43.9928 130.584 43.8301C130.512 43.6641 130.41 43.5485 130.276 43.4834C130.143 43.415 129.983 43.3809 129.798 43.3809C129.648 43.3809 129.515 43.415 129.397 43.4834C129.284 43.5518 129.188 43.6462 129.109 43.7666C129.031 43.8838 128.971 44.0189 128.929 44.1719C128.89 44.3249 128.87 44.4876 128.87 44.6602ZM134.754 48.0977C134.438 48.0977 134.153 48.0505 133.899 47.9561C133.646 47.8617 133.429 47.7184 133.25 47.5264C133.071 47.3311 132.934 47.0853 132.84 46.7891C132.745 46.4928 132.698 46.1429 132.698 45.7393V45.1436C132.698 44.6781 132.752 44.2842 132.859 43.9619C132.97 43.6396 133.118 43.3809 133.304 43.1855C133.489 42.987 133.699 42.8437 133.934 42.7559C134.168 42.6647 134.409 42.6191 134.656 42.6191C134.988 42.6191 135.271 42.6729 135.506 42.7803C135.74 42.8877 135.931 43.0472 136.077 43.2588C136.224 43.4704 136.331 43.7308 136.399 44.04C136.471 44.3493 136.507 44.7057 136.507 45.1094V45.6123H133.206V44.875H135.643V44.7529C135.63 44.4795 135.592 44.2386 135.53 44.0303C135.472 43.8219 135.374 43.6592 135.237 43.542C135.101 43.4215 134.907 43.3613 134.656 43.3613C134.497 43.3613 134.349 43.389 134.212 43.4443C134.078 43.4964 133.963 43.5892 133.865 43.7227C133.771 43.8529 133.696 44.0335 133.641 44.2646C133.589 44.4958 133.562 44.7887 133.562 45.1436V45.7393C133.562 46.0225 133.589 46.2666 133.641 46.4717C133.696 46.6735 133.776 46.8411 133.88 46.9746C133.987 47.1048 134.118 47.2025 134.271 47.2676C134.427 47.3294 134.604 47.3604 134.803 47.3604C135.092 47.3604 135.332 47.305 135.521 47.1943C135.709 47.0804 135.874 46.9355 136.014 46.7598L136.468 47.3018C136.373 47.4352 136.25 47.5638 136.097 47.6875C135.947 47.8079 135.761 47.9072 135.54 47.9854C135.322 48.0602 135.06 48.0977 134.754 48.0977ZM138.416 43.5469V48H137.552V42.7168H138.387L138.416 43.5469ZM139.729 42.6875L139.734 43.5273C139.663 43.5111 139.598 43.5013 139.539 43.498C139.484 43.4915 139.419 43.4883 139.344 43.4883C139.181 43.4883 139.038 43.5208 138.914 43.5859C138.794 43.651 138.689 43.7422 138.602 43.8594C138.514 43.9766 138.444 44.1165 138.392 44.2793C138.34 44.4388 138.304 44.6146 138.284 44.8066L138.06 44.9531C138.06 44.6341 138.084 44.3346 138.133 44.0547C138.185 43.7747 138.265 43.5273 138.372 43.3125C138.479 43.0944 138.616 42.9251 138.782 42.8047C138.951 42.681 139.153 42.6191 139.388 42.6191C139.44 42.6191 139.503 42.6273 139.578 42.6436C139.656 42.6566 139.707 42.6712 139.729 42.6875Z" fill="url(#paint1_linear_1406_1509)"/>
<path d="M170.835 40.8906H172.822C173.285 40.8906 173.672 40.972 173.984 41.1348C174.3 41.2975 174.538 41.5384 174.697 41.8574C174.86 42.1732 174.941 42.5622 174.941 43.0244C174.941 43.3499 174.888 43.6478 174.78 43.918C174.673 44.1849 174.517 44.4128 174.312 44.6016C174.106 44.7871 173.857 44.9255 173.564 45.0166L173.32 45.1191H171.548L171.538 44.3525H172.812C173.086 44.3525 173.314 44.2939 173.496 44.1768C173.678 44.0563 173.815 43.8952 173.906 43.6934C173.997 43.4915 174.043 43.2686 174.043 43.0244C174.043 42.751 174.002 42.5117 173.921 42.3066C173.84 42.1016 173.709 41.9437 173.53 41.833C173.354 41.7191 173.118 41.6621 172.822 41.6621H171.733V48H170.835V40.8906ZM174.248 48L172.832 44.7773L173.765 44.7725L175.21 47.9414V48H174.248ZM177.915 48.0977C177.599 48.0977 177.314 48.0505 177.061 47.9561C176.807 47.8617 176.59 47.7184 176.411 47.5264C176.232 47.3311 176.095 47.0853 176.001 46.7891C175.907 46.4928 175.859 46.1429 175.859 45.7393V45.1436C175.859 44.6781 175.913 44.2842 176.021 43.9619C176.131 43.6396 176.279 43.3809 176.465 43.1855C176.65 42.987 176.86 42.8438 177.095 42.7559C177.329 42.6647 177.57 42.6191 177.817 42.6191C178.149 42.6191 178.433 42.6729 178.667 42.7803C178.901 42.8877 179.092 43.0472 179.238 43.2588C179.385 43.4704 179.492 43.7308 179.561 44.04C179.632 44.3493 179.668 44.7057 179.668 45.1094V45.6123H176.367V44.875H178.804V44.7529C178.791 44.4795 178.753 44.2386 178.691 44.0303C178.633 43.8219 178.535 43.6592 178.398 43.542C178.262 43.4215 178.068 43.3613 177.817 43.3613C177.658 43.3613 177.51 43.389 177.373 43.4443C177.24 43.4964 177.124 43.5892 177.026 43.7227C176.932 43.8529 176.857 44.0335 176.802 44.2646C176.75 44.4958 176.724 44.7887 176.724 45.1436V45.7393C176.724 46.0225 176.75 46.2666 176.802 46.4717C176.857 46.6735 176.937 46.8411 177.041 46.9746C177.148 47.1048 177.279 47.2025 177.432 47.2676C177.588 47.3294 177.765 47.3604 177.964 47.3604C178.254 47.3604 178.493 47.305 178.682 47.1943C178.87 47.0804 179.035 46.9355 179.175 46.7598L179.629 47.3018C179.535 47.4352 179.411 47.5638 179.258 47.6875C179.108 47.8079 178.923 47.9072 178.701 47.9854C178.483 48.0602 178.221 48.0977 177.915 48.0977ZM182.544 47.3604C182.716 47.3604 182.873 47.3262 183.013 47.2578C183.156 47.1862 183.273 47.0755 183.364 46.9258C183.455 46.7728 183.507 46.5742 183.521 46.3301H184.331C184.318 46.6816 184.229 46.9909 184.062 47.2578C183.9 47.5215 183.685 47.7282 183.418 47.8779C183.154 48.0244 182.863 48.0977 182.544 48.0977C182.202 48.0977 181.904 48.0423 181.65 47.9316C181.4 47.821 181.191 47.6615 181.025 47.4531C180.863 47.2415 180.741 46.986 180.659 46.6865C180.578 46.3838 180.537 46.0404 180.537 45.6562V45.0605C180.537 44.6764 180.578 44.3346 180.659 44.0352C180.741 43.7324 180.863 43.4769 181.025 43.2686C181.191 43.057 181.4 42.8958 181.65 42.7852C181.904 42.6745 182.202 42.6191 182.544 42.6191C182.902 42.6191 183.211 42.6956 183.472 42.8486C183.735 42.9984 183.94 43.2165 184.087 43.5029C184.237 43.7861 184.318 44.1296 184.331 44.5332H183.521C183.507 44.2728 183.46 44.0563 183.379 43.8838C183.298 43.708 183.187 43.5778 183.047 43.4932C182.907 43.4053 182.739 43.3613 182.544 43.3613C182.316 43.3613 182.127 43.402 181.978 43.4834C181.831 43.5615 181.715 43.6755 181.631 43.8252C181.546 43.9749 181.486 44.154 181.45 44.3623C181.418 44.5706 181.401 44.8034 181.401 45.0605V45.6562C181.401 45.9134 181.418 46.1478 181.45 46.3594C181.486 46.5677 181.545 46.7467 181.626 46.8965C181.711 47.0462 181.828 47.1618 181.978 47.2432C182.127 47.3213 182.316 47.3604 182.544 47.3604ZM186.196 40.5V48H185.332V40.5H186.196ZM185.986 45.1582L185.635 45.1436C185.632 44.7822 185.672 44.4486 185.757 44.1426C185.845 43.8333 185.968 43.5648 186.128 43.3369C186.291 43.109 186.484 42.9333 186.709 42.8096C186.934 42.6826 187.183 42.6191 187.456 42.6191C187.671 42.6191 187.866 42.6549 188.042 42.7266C188.218 42.7949 188.368 42.9056 188.491 43.0586C188.615 43.2116 188.709 43.4102 188.774 43.6543C188.843 43.8952 188.877 44.1898 188.877 44.5381V48H188.013V44.5283C188.013 44.2516 187.982 44.0303 187.92 43.8643C187.861 43.695 187.77 43.5729 187.646 43.498C187.526 43.4199 187.373 43.3809 187.188 43.3809C187.018 43.3809 186.86 43.4281 186.714 43.5225C186.567 43.6169 186.439 43.7471 186.328 43.9131C186.221 44.0791 186.136 44.2695 186.074 44.4844C186.016 44.696 185.986 44.9206 185.986 45.1582ZM191.03 43.8447V48H190.166V42.7168H190.981L191.03 43.8447ZM190.82 45.1582L190.469 45.1436C190.465 44.7822 190.506 44.4486 190.591 44.1426C190.679 43.8333 190.802 43.5648 190.962 43.3369C191.125 43.109 191.318 42.9333 191.543 42.8096C191.768 42.6826 192.017 42.6191 192.29 42.6191C192.505 42.6191 192.7 42.6549 192.876 42.7266C193.052 42.7949 193.201 42.9056 193.325 43.0586C193.449 43.2116 193.543 43.4102 193.608 43.6543C193.677 43.8952 193.711 44.1898 193.711 44.5381V48H192.847V44.5283C192.847 44.2516 192.816 44.0303 192.754 43.8643C192.695 43.695 192.604 43.5729 192.48 43.498C192.36 43.4199 192.207 43.3809 192.021 43.3809C191.852 43.3809 191.694 43.4281 191.548 43.5225C191.401 43.6169 191.273 43.7471 191.162 43.9131C191.055 44.0791 190.97 44.2695 190.908 44.4844C190.85 44.696 190.82 44.9206 190.82 45.1582ZM197.681 46.7793V42.7168H198.545V48H197.725L197.681 46.7793ZM197.842 45.666L198.184 45.6562C198.184 46.0078 198.153 46.3333 198.091 46.6328C198.032 46.929 197.935 47.1862 197.798 47.4043C197.664 47.6224 197.487 47.7933 197.266 47.917C197.044 48.0374 196.772 48.0977 196.45 48.0977C196.232 48.0977 196.034 48.0602 195.854 47.9854C195.679 47.9105 195.526 47.7949 195.396 47.6387C195.269 47.4824 195.169 47.279 195.098 47.0283C195.029 46.7777 194.995 46.4766 194.995 46.125V42.7168H195.854V46.1348C195.854 46.3724 195.876 46.5693 195.918 46.7256C195.96 46.8786 196.017 47.0007 196.089 47.0918C196.16 47.1797 196.24 47.2415 196.328 47.2773C196.416 47.3132 196.506 47.3311 196.597 47.3311C196.903 47.3311 197.147 47.2578 197.329 47.1113C197.511 46.9616 197.642 46.7614 197.72 46.5107C197.801 46.2568 197.842 45.9753 197.842 45.666ZM200.708 43.8447V48H199.844V42.7168H200.659L200.708 43.8447ZM200.498 45.1582L200.146 45.1436C200.143 44.7822 200.184 44.4486 200.269 44.1426C200.356 43.8333 200.48 43.5648 200.64 43.3369C200.802 43.109 200.996 42.9333 201.221 42.8096C201.445 42.6826 201.694 42.6191 201.968 42.6191C202.183 42.6191 202.378 42.6549 202.554 42.7266C202.729 42.7949 202.879 42.9056 203.003 43.0586C203.127 43.2116 203.221 43.4102 203.286 43.6543C203.354 43.8952 203.389 44.1898 203.389 44.5381V48H202.524V44.5283C202.524 44.2516 202.493 44.0303 202.432 43.8643C202.373 43.695 202.282 43.5729 202.158 43.498C202.038 43.4199 201.885 43.3809 201.699 43.3809C201.53 43.3809 201.372 43.4281 201.226 43.5225C201.079 43.6169 200.951 43.7471 200.84 43.9131C200.732 44.0791 200.648 44.2695 200.586 44.4844C200.527 44.696 200.498 44.9206 200.498 45.1582ZM207.549 42.7168H208.325V48.0439C208.325 48.5094 208.244 48.8936 208.081 49.1963C207.922 49.499 207.699 49.722 207.412 49.8652C207.126 50.0117 206.795 50.085 206.421 50.085C206.287 50.085 206.12 50.0605 205.918 50.0117C205.716 49.9629 205.514 49.888 205.312 49.7871C205.111 49.6895 204.945 49.5658 204.814 49.416L205.171 48.8154C205.356 49.0042 205.553 49.1393 205.762 49.2207C205.97 49.3021 206.169 49.3428 206.357 49.3428C206.582 49.3428 206.777 49.3021 206.943 49.2207C207.109 49.1393 207.238 49.0059 207.329 48.8203C207.42 48.638 207.466 48.3939 207.466 48.0879V43.8789L207.549 42.7168ZM204.512 45.6123V45.1191C204.512 44.6829 204.552 44.3086 204.634 43.9961C204.715 43.6803 204.832 43.4215 204.985 43.2197C205.142 43.0146 205.329 42.8633 205.547 42.7656C205.765 42.668 206.009 42.6191 206.279 42.6191C206.553 42.6191 206.789 42.6745 206.987 42.7852C207.186 42.8958 207.35 43.057 207.48 43.2686C207.614 43.4769 207.718 43.7308 207.793 44.0303C207.871 44.3265 207.925 44.6618 207.954 45.0361V45.6953C207.925 46.0664 207.871 46.4001 207.793 46.6963C207.718 46.9925 207.612 47.2448 207.476 47.4531C207.342 47.6615 207.176 47.821 206.978 47.9316C206.779 48.0423 206.543 48.0977 206.27 48.0977C206.003 48.0977 205.762 48.0472 205.547 47.9463C205.332 47.8421 205.146 47.6875 204.99 47.4824C204.837 47.2741 204.718 47.0153 204.634 46.7061C204.552 46.3936 204.512 46.029 204.512 45.6123ZM205.376 45.1191V45.6123C205.376 45.9053 205.397 46.1608 205.439 46.3789C205.482 46.5937 205.547 46.7728 205.635 46.916C205.726 47.056 205.841 47.1602 205.981 47.2285C206.125 47.2969 206.296 47.3311 206.494 47.3311C206.735 47.3311 206.932 47.2725 207.085 47.1553C207.238 47.0381 207.36 46.8835 207.451 46.6914C207.546 46.4961 207.62 46.2861 207.676 46.0615V44.6748C207.643 44.5088 207.596 44.3493 207.534 44.1963C207.476 44.04 207.399 43.9017 207.305 43.7812C207.21 43.6576 207.096 43.5599 206.963 43.4883C206.833 43.4167 206.68 43.3809 206.504 43.3809C206.305 43.3809 206.134 43.4167 205.991 43.4883C205.848 43.5599 205.731 43.6673 205.64 43.8105C205.549 43.9538 205.482 44.1344 205.439 44.3525C205.397 44.5706 205.376 44.8262 205.376 45.1191ZM212.183 46.6475C212.183 46.514 212.15 46.3968 212.085 46.2959C212.02 46.195 211.912 46.0973 211.763 46.0029C211.616 45.9085 211.418 45.8076 211.167 45.7002C210.923 45.5993 210.703 45.5 210.508 45.4023C210.316 45.3014 210.153 45.1924 210.02 45.0752C209.886 44.958 209.784 44.8229 209.712 44.6699C209.644 44.5137 209.609 44.3298 209.609 44.1182C209.609 43.9066 209.648 43.7113 209.727 43.5322C209.808 43.3499 209.922 43.1904 210.068 43.0537C210.215 42.917 210.391 42.8112 210.596 42.7363C210.801 42.6582 211.03 42.6191 211.284 42.6191C211.646 42.6191 211.953 42.6891 212.207 42.8291C212.461 42.9691 212.655 43.1611 212.788 43.4053C212.925 43.6462 212.993 43.918 212.993 44.2207H212.134C212.134 44.0742 212.101 43.9359 212.036 43.8057C211.971 43.6755 211.875 43.5697 211.748 43.4883C211.621 43.4036 211.466 43.3613 211.284 43.3613C211.092 43.3613 210.936 43.3955 210.815 43.4639C210.695 43.5322 210.607 43.6217 210.552 43.7324C210.5 43.8398 210.474 43.9587 210.474 44.0889C210.474 44.1865 210.487 44.2712 210.513 44.3428C210.542 44.4111 210.591 44.4762 210.659 44.5381C210.728 44.5967 210.82 44.6585 210.938 44.7236C211.058 44.7855 211.211 44.8571 211.396 44.9385C211.755 45.0785 212.056 45.2201 212.3 45.3633C212.544 45.5065 212.729 45.6742 212.856 45.8662C212.983 46.0583 213.047 46.2959 213.047 46.5791C213.047 46.8102 213.005 47.0202 212.92 47.209C212.839 47.3945 212.721 47.554 212.568 47.6875C212.415 47.821 212.231 47.9235 212.017 47.9951C211.805 48.0635 211.567 48.0977 211.304 48.0977C210.907 48.0977 210.57 48.0195 210.293 47.8633C210.02 47.7038 209.811 47.4971 209.668 47.2432C209.528 46.986 209.458 46.7109 209.458 46.418H210.322C210.332 46.6654 210.387 46.8574 210.488 46.9941C210.592 47.1309 210.718 47.2253 210.864 47.2773C211.011 47.3294 211.157 47.3555 211.304 47.3555C211.496 47.3555 211.657 47.3278 211.787 47.2725C211.917 47.2139 212.015 47.1309 212.08 47.0234C212.148 46.916 212.183 46.7907 212.183 46.6475ZM216.743 46.6475C216.743 46.514 216.711 46.3968 216.646 46.2959C216.58 46.195 216.473 46.0973 216.323 46.0029C216.177 45.9085 215.978 45.8076 215.728 45.7002C215.483 45.5993 215.264 45.5 215.068 45.4023C214.876 45.3014 214.714 45.1924 214.58 45.0752C214.447 44.958 214.344 44.8229 214.272 44.6699C214.204 44.5137 214.17 44.3298 214.17 44.1182C214.17 43.9066 214.209 43.7113 214.287 43.5322C214.368 43.3499 214.482 43.1904 214.629 43.0537C214.775 42.917 214.951 42.8112 215.156 42.7363C215.361 42.6582 215.591 42.6191 215.845 42.6191C216.206 42.6191 216.514 42.6891 216.768 42.8291C217.021 42.9691 217.215 43.1611 217.349 43.4053C217.485 43.6462 217.554 43.918 217.554 44.2207H216.694C216.694 44.0742 216.662 43.9359 216.597 43.8057C216.532 43.6755 216.436 43.5697 216.309 43.4883C216.182 43.4036 216.027 43.3613 215.845 43.3613C215.653 43.3613 215.496 43.3955 215.376 43.4639C215.256 43.5322 215.168 43.6217 215.112 43.7324C215.06 43.8398 215.034 43.9587 215.034 44.0889C215.034 44.1865 215.047 44.2712 215.073 44.3428C215.103 44.4111 215.151 44.4762 215.22 44.5381C215.288 44.5967 215.381 44.6585 215.498 44.7236C215.618 44.7855 215.771 44.8571 215.957 44.9385C216.315 45.0785 216.616 45.2201 216.86 45.3633C217.104 45.5065 217.29 45.6742 217.417 45.8662C217.544 46.0583 217.607 46.2959 217.607 46.5791C217.607 46.8102 217.565 47.0202 217.48 47.209C217.399 47.3945 217.282 47.554 217.129 47.6875C216.976 47.821 216.792 47.9235 216.577 47.9951C216.366 48.0635 216.128 48.0977 215.864 48.0977C215.467 48.0977 215.13 48.0195 214.854 47.8633C214.58 47.7038 214.372 47.4971 214.229 47.2432C214.089 46.986 214.019 46.7109 214.019 46.418H214.883C214.893 46.6654 214.948 46.8574 215.049 46.9941C215.153 47.1309 215.278 47.2253 215.425 47.2773C215.571 47.3294 215.718 47.3555 215.864 47.3555C216.056 47.3555 216.217 47.3278 216.348 47.2725C216.478 47.2139 216.576 47.1309 216.641 47.0234C216.709 46.916 216.743 46.7907 216.743 46.6475ZM220.669 42.7168V43.4102H218.203V42.7168H220.669ZM219.009 41.4326H219.873V46.6914C219.873 46.8704 219.894 47.0055 219.937 47.0967C219.982 47.1878 220.039 47.248 220.107 47.2773C220.176 47.3066 220.249 47.3213 220.327 47.3213C220.386 47.3213 220.451 47.3148 220.522 47.3018C220.594 47.2855 220.643 47.2725 220.669 47.2627L220.664 48C220.605 48.0228 220.527 48.0439 220.43 48.0635C220.332 48.0863 220.208 48.0977 220.059 48.0977C219.873 48.0977 219.701 48.0537 219.541 47.9658C219.382 47.8779 219.253 47.7314 219.155 47.5264C219.058 47.318 219.009 47.0381 219.009 46.6865V41.4326ZM223.589 48.0977C223.273 48.0977 222.988 48.0505 222.734 47.9561C222.48 47.8617 222.264 47.7184 222.085 47.5264C221.906 47.3311 221.769 47.0853 221.675 46.7891C221.58 46.4928 221.533 46.1429 221.533 45.7393V45.1436C221.533 44.6781 221.587 44.2842 221.694 43.9619C221.805 43.6396 221.953 43.3809 222.139 43.1855C222.324 42.987 222.534 42.8437 222.769 42.7559C223.003 42.6647 223.244 42.6191 223.491 42.6191C223.823 42.6191 224.106 42.6729 224.341 42.7803C224.575 42.8877 224.766 43.0472 224.912 43.2588C225.059 43.4704 225.166 43.7308 225.234 44.04C225.306 44.3493 225.342 44.7057 225.342 45.1094V45.6123H222.041V44.875H224.478V44.7529C224.465 44.4795 224.427 44.2386 224.365 44.0303C224.307 43.8219 224.209 43.6592 224.072 43.542C223.936 43.4215 223.742 43.3613 223.491 43.3613C223.332 43.3613 223.184 43.389 223.047 43.4443C222.913 43.4964 222.798 43.5892 222.7 43.7227C222.606 43.8529 222.531 44.0335 222.476 44.2646C222.424 44.4958 222.397 44.7887 222.397 45.1436V45.7393C222.397 46.0225 222.424 46.2666 222.476 46.4717C222.531 46.6735 222.611 46.8411 222.715 46.9746C222.822 47.1048 222.952 47.2025 223.105 47.2676C223.262 47.3294 223.439 47.3604 223.638 47.3604C223.927 47.3604 224.167 47.305 224.355 47.1943C224.544 47.0804 224.709 46.9355 224.849 46.7598L225.303 47.3018C225.208 47.4352 225.085 47.5638 224.932 47.6875C224.782 47.8079 224.596 47.9072 224.375 47.9854C224.157 48.0602 223.895 48.0977 223.589 48.0977ZM227.314 40.5V48H226.455V40.5H227.314ZM229.609 40.5V48H228.75V40.5H229.609ZM233.647 46.7793V42.7168H234.512V48H233.691L233.647 46.7793ZM233.809 45.666L234.15 45.6562C234.15 46.0078 234.119 46.3333 234.058 46.6328C233.999 46.929 233.901 47.1862 233.765 47.4043C233.631 47.6224 233.454 47.7933 233.232 47.917C233.011 48.0374 232.739 48.0977 232.417 48.0977C232.199 48.0977 232 48.0602 231.821 47.9854C231.646 47.9105 231.493 47.7949 231.362 47.6387C231.235 47.4824 231.136 47.279 231.064 47.0283C230.996 46.7777 230.962 46.4766 230.962 46.125V42.7168H231.821V46.1348C231.821 46.3724 231.842 46.5693 231.885 46.7256C231.927 46.8786 231.984 47.0007 232.056 47.0918C232.127 47.1797 232.207 47.2415 232.295 47.2773C232.383 47.3132 232.472 47.3311 232.563 47.3311C232.869 47.3311 233.114 47.2578 233.296 47.1113C233.478 46.9616 233.608 46.7614 233.687 46.5107C233.768 46.2568 233.809 45.9753 233.809 45.666ZM236.675 43.8447V48H235.811V42.7168H236.626L236.675 43.8447ZM236.465 45.1582L236.113 45.1436C236.11 44.7822 236.151 44.4486 236.235 44.1426C236.323 43.8333 236.447 43.5648 236.606 43.3369C236.769 43.109 236.963 42.9333 237.188 42.8096C237.412 42.6826 237.661 42.6191 237.935 42.6191C238.149 42.6191 238.345 42.6549 238.521 42.7266C238.696 42.7949 238.846 42.9056 238.97 43.0586C239.093 43.2116 239.188 43.4102 239.253 43.6543C239.321 43.8952 239.355 44.1898 239.355 44.5381V48H238.491V44.5283C238.491 44.2516 238.46 44.0303 238.398 43.8643C238.34 43.695 238.249 43.5729 238.125 43.498C238.005 43.4199 237.852 43.3809 237.666 43.3809C237.497 43.3809 237.339 43.4281 237.192 43.5225C237.046 43.6169 236.917 43.7471 236.807 43.9131C236.699 44.0791 236.615 44.2695 236.553 44.4844C236.494 44.696 236.465 44.9206 236.465 45.1582ZM243.516 42.7168H244.292V48.0439C244.292 48.5094 244.211 48.8936 244.048 49.1963C243.888 49.499 243.665 49.722 243.379 49.8652C243.092 50.0117 242.762 50.085 242.388 50.085C242.254 50.085 242.087 50.0605 241.885 50.0117C241.683 49.9629 241.481 49.888 241.279 49.7871C241.077 49.6895 240.911 49.5658 240.781 49.416L241.138 48.8154C241.323 49.0042 241.52 49.1393 241.729 49.2207C241.937 49.3021 242.135 49.3428 242.324 49.3428C242.549 49.3428 242.744 49.3021 242.91 49.2207C243.076 49.1393 243.205 49.0059 243.296 48.8203C243.387 48.638 243.433 48.3939 243.433 48.0879V43.8789L243.516 42.7168ZM240.479 45.6123V45.1191C240.479 44.6829 240.519 44.3086 240.601 43.9961C240.682 43.6803 240.799 43.4215 240.952 43.2197C241.108 43.0146 241.296 42.8633 241.514 42.7656C241.732 42.668 241.976 42.6191 242.246 42.6191C242.52 42.6191 242.756 42.6745 242.954 42.7852C243.153 42.8958 243.317 43.057 243.447 43.2686C243.581 43.4769 243.685 43.7308 243.76 44.0303C243.838 44.3265 243.892 44.6618 243.921 45.0361V45.6953C243.892 46.0664 243.838 46.4001 243.76 46.6963C243.685 46.9925 243.579 47.2448 243.442 47.4531C243.309 47.6615 243.143 47.821 242.944 47.9316C242.746 48.0423 242.51 48.0977 242.236 48.0977C241.969 48.0977 241.729 48.0472 241.514 47.9463C241.299 47.8421 241.113 47.6875 240.957 47.4824C240.804 47.2741 240.685 47.0153 240.601 46.7061C240.519 46.3936 240.479 46.029 240.479 45.6123ZM241.343 45.1191V45.6123C241.343 45.9053 241.364 46.1608 241.406 46.3789C241.449 46.5937 241.514 46.7728 241.602 46.916C241.693 47.056 241.808 47.1602 241.948 47.2285C242.091 47.2969 242.262 47.3311 242.461 47.3311C242.702 47.3311 242.899 47.2725 243.052 47.1553C243.205 47.0381 243.327 46.8835 243.418 46.6914C243.512 46.4961 243.587 46.2861 243.643 46.0615V44.6748C243.61 44.5088 243.563 44.3493 243.501 44.1963C243.442 44.04 243.366 43.9017 243.271 43.7812C243.177 43.6576 243.063 43.5599 242.93 43.4883C242.799 43.4167 242.646 43.3809 242.471 43.3809C242.272 43.3809 242.101 43.4167 241.958 43.4883C241.815 43.5599 241.698 43.6673 241.606 43.8105C241.515 43.9538 241.449 44.1344 241.406 44.3525C241.364 44.5706 241.343 44.8262 241.343 45.1191Z" fill="url(#paint2_linear_1406_1509)"/>
<path d="M282.47 35.8906V43H281.571V35.8906H282.47ZM286.044 35.8906L283.598 39.2061L282.167 40.9297L282.006 39.9238L283.056 38.5469L284.97 35.8906H286.044ZM285.15 43L283.056 39.5332L283.588 38.7861L286.22 43H285.15ZM286.596 40.6123V40.1094C286.596 39.6992 286.648 39.3395 286.752 39.0303C286.856 38.7178 287.001 38.4574 287.187 38.249C287.372 38.0407 287.589 37.8844 287.836 37.7803C288.083 37.6729 288.349 37.6191 288.632 37.6191C288.922 37.6191 289.19 37.6729 289.438 37.7803C289.685 37.8844 289.901 38.0407 290.087 38.249C290.276 38.4574 290.422 38.7178 290.526 39.0303C290.631 39.3395 290.683 39.6992 290.683 40.1094V40.6123C290.683 41.0225 290.631 41.3838 290.526 41.6963C290.422 42.0055 290.277 42.2643 290.092 42.4727C289.906 42.681 289.69 42.8372 289.442 42.9414C289.195 43.0456 288.928 43.0977 288.642 43.0977C288.355 43.0977 288.088 43.0456 287.841 42.9414C287.593 42.8372 287.375 42.681 287.187 42.4727C287.001 42.2643 286.856 42.0055 286.752 41.6963C286.648 41.3838 286.596 41.0225 286.596 40.6123ZM287.46 40.1094V40.6123C287.46 40.902 287.489 41.1559 287.548 41.374C287.606 41.5921 287.689 41.7744 287.797 41.9209C287.904 42.0674 288.03 42.1781 288.173 42.2529C288.316 42.3245 288.472 42.3604 288.642 42.3604C288.837 42.3604 289.008 42.3245 289.154 42.2529C289.304 42.1781 289.428 42.0674 289.525 41.9209C289.623 41.7744 289.696 41.5921 289.745 41.374C289.794 41.1559 289.818 40.902 289.818 40.6123V40.1094C289.818 39.8197 289.789 39.5674 289.73 39.3525C289.672 39.1344 289.589 38.9521 289.481 38.8057C289.374 38.6559 289.247 38.5452 289.101 38.4736C288.957 38.3988 288.801 38.3613 288.632 38.3613C288.466 38.3613 288.311 38.3988 288.168 38.4736C288.025 38.5452 287.899 38.6559 287.792 38.8057C287.688 38.9521 287.606 39.1344 287.548 39.3525C287.489 39.5674 287.46 39.8197 287.46 40.1094ZM292.66 38.8447V43H291.796V37.7168H292.611L292.66 38.8447ZM292.45 40.1582L292.099 40.1436C292.095 39.7822 292.136 39.4486 292.221 39.1426C292.309 38.8333 292.432 38.5648 292.592 38.3369C292.755 38.109 292.948 37.9333 293.173 37.8096C293.397 37.6826 293.646 37.6191 293.92 37.6191C294.135 37.6191 294.33 37.6549 294.506 37.7266C294.682 37.7949 294.831 37.9056 294.955 38.0586C295.079 38.2116 295.173 38.4102 295.238 38.6543C295.307 38.8952 295.341 39.1898 295.341 39.5381V43H294.477V39.5283C294.477 39.2516 294.446 39.0303 294.384 38.8643C294.325 38.695 294.234 38.5729 294.11 38.498C293.99 38.4199 293.837 38.3809 293.651 38.3809C293.482 38.3809 293.324 38.4281 293.178 38.5225C293.031 38.6169 292.903 38.7471 292.792 38.9131C292.685 39.0791 292.6 39.2695 292.538 39.4844C292.479 39.696 292.45 39.9206 292.45 40.1582ZM298.568 37.7168V38.4102H296.103V37.7168H298.568ZM296.908 36.4326H297.772V41.6914C297.772 41.8704 297.794 42.0055 297.836 42.0967C297.882 42.1878 297.938 42.248 298.007 42.2773C298.075 42.3066 298.148 42.3213 298.227 42.3213C298.285 42.3213 298.35 42.3148 298.422 42.3018C298.493 42.2855 298.542 42.2725 298.568 42.2627L298.563 43C298.505 43.0228 298.427 43.0439 298.329 43.0635C298.231 43.0863 298.108 43.0977 297.958 43.0977C297.772 43.0977 297.6 43.0537 297.44 42.9658C297.281 42.8779 297.152 42.7314 297.055 42.5264C296.957 42.318 296.908 42.0381 296.908 41.6865V36.4326ZM300.463 38.5469V43H299.599V37.7168H300.434L300.463 38.5469ZM301.776 37.6875L301.781 38.5273C301.71 38.5111 301.645 38.5013 301.586 38.498C301.531 38.4915 301.465 38.4883 301.391 38.4883C301.228 38.4883 301.085 38.5208 300.961 38.5859C300.84 38.651 300.736 38.7422 300.648 38.8594C300.561 38.9766 300.491 39.1165 300.438 39.2793C300.386 39.4388 300.351 39.6146 300.331 39.8066L300.106 39.9531C300.106 39.6341 300.131 39.3346 300.18 39.0547C300.232 38.7747 300.312 38.5273 300.419 38.3125C300.526 38.0944 300.663 37.9251 300.829 37.8047C300.998 37.681 301.2 37.6191 301.435 37.6191C301.487 37.6191 301.55 37.6273 301.625 37.6436C301.703 37.6566 301.754 37.6712 301.776 37.6875ZM302.367 40.6123V40.1094C302.367 39.6992 302.419 39.3395 302.523 39.0303C302.628 38.7178 302.772 38.4574 302.958 38.249C303.144 38.0407 303.36 37.8844 303.607 37.7803C303.855 37.6729 304.12 37.6191 304.403 37.6191C304.693 37.6191 304.962 37.6729 305.209 37.7803C305.456 37.8844 305.673 38.0407 305.858 38.249C306.047 38.4574 306.194 38.7178 306.298 39.0303C306.402 39.3395 306.454 39.6992 306.454 40.1094V40.6123C306.454 41.0225 306.402 41.3838 306.298 41.6963C306.194 42.0055 306.049 42.2643 305.863 42.4727C305.678 42.681 305.461 42.8372 305.214 42.9414C304.966 43.0456 304.7 43.0977 304.413 43.0977C304.127 43.0977 303.86 43.0456 303.612 42.9414C303.365 42.8372 303.147 42.681 302.958 42.4727C302.772 42.2643 302.628 42.0055 302.523 41.6963C302.419 41.3838 302.367 41.0225 302.367 40.6123ZM303.231 40.1094V40.6123C303.231 40.902 303.261 41.1559 303.319 41.374C303.378 41.5921 303.461 41.7744 303.568 41.9209C303.676 42.0674 303.801 42.1781 303.944 42.2529C304.088 42.3245 304.244 42.3604 304.413 42.3604C304.608 42.3604 304.779 42.3245 304.926 42.2529C305.076 42.1781 305.199 42.0674 305.297 41.9209C305.395 41.7744 305.468 41.5921 305.517 41.374C305.565 41.1559 305.59 40.902 305.59 40.6123V40.1094C305.59 39.8197 305.561 39.5674 305.502 39.3525C305.443 39.1344 305.36 38.9521 305.253 38.8057C305.146 38.6559 305.019 38.5452 304.872 38.4736C304.729 38.3988 304.573 38.3613 304.403 38.3613C304.237 38.3613 304.083 38.3988 303.939 38.4736C303.796 38.5452 303.671 38.6559 303.563 38.8057C303.459 38.9521 303.378 39.1344 303.319 39.3525C303.261 39.5674 303.231 39.8197 303.231 40.1094ZM308.495 35.5V43H307.636V35.5H308.495ZM310.79 35.5V43H309.931V35.5H310.79ZM314.047 43.0977C313.731 43.0977 313.446 43.0505 313.192 42.9561C312.938 42.8617 312.722 42.7184 312.543 42.5264C312.364 42.3311 312.227 42.0853 312.133 41.7891C312.038 41.4928 311.991 41.1429 311.991 40.7393V40.1436C311.991 39.6781 312.045 39.2842 312.152 38.9619C312.263 38.6396 312.411 38.3809 312.597 38.1855C312.782 37.987 312.992 37.8437 313.227 37.7559C313.461 37.6647 313.702 37.6191 313.949 37.6191C314.281 37.6191 314.564 37.6729 314.799 37.7803C315.033 37.8877 315.224 38.0472 315.37 38.2588C315.517 38.4704 315.624 38.7308 315.692 39.04C315.764 39.3493 315.8 39.7057 315.8 40.1094V40.6123H312.499V39.875H314.936V39.7529C314.923 39.4795 314.885 39.2386 314.823 39.0303C314.765 38.8219 314.667 38.6592 314.53 38.542C314.394 38.4215 314.2 38.3613 313.949 38.3613C313.79 38.3613 313.642 38.389 313.505 38.4443C313.371 38.4964 313.256 38.5892 313.158 38.7227C313.064 38.8529 312.989 39.0335 312.934 39.2646C312.882 39.4958 312.855 39.7887 312.855 40.1436V40.7393C312.855 41.0225 312.882 41.2666 312.934 41.4717C312.989 41.6735 313.069 41.8411 313.173 41.9746C313.28 42.1048 313.41 42.2025 313.563 42.2676C313.72 42.3294 313.897 42.3604 314.096 42.3604C314.385 42.3604 314.625 42.305 314.813 42.1943C315.002 42.0804 315.167 41.9355 315.307 41.7598L315.761 42.3018C315.666 42.4352 315.543 42.5638 315.39 42.6875C315.24 42.8079 315.054 42.9072 314.833 42.9854C314.615 43.0602 314.353 43.0977 314.047 43.0977ZM294.501 52.7793V48.7168H295.365V54H294.545L294.501 52.7793ZM294.662 51.666L295.004 51.6562C295.004 52.0078 294.973 52.3333 294.911 52.6328C294.853 52.929 294.755 53.1862 294.618 53.4043C294.485 53.6224 294.307 53.7933 294.086 53.917C293.865 54.0374 293.593 54.0977 293.271 54.0977C293.052 54.0977 292.854 54.0602 292.675 53.9854C292.499 53.9105 292.346 53.7949 292.216 53.6387C292.089 53.4824 291.99 53.279 291.918 53.0283C291.85 52.7777 291.815 52.4766 291.815 52.125V48.7168H292.675V52.1348C292.675 52.3724 292.696 52.5693 292.738 52.7256C292.781 52.8786 292.838 53.0007 292.909 53.0918C292.981 53.1797 293.061 53.2415 293.148 53.2773C293.236 53.3132 293.326 53.3311 293.417 53.3311C293.723 53.3311 293.967 53.2578 294.149 53.1113C294.332 52.9616 294.462 52.7614 294.54 52.5107C294.621 52.2568 294.662 51.9753 294.662 51.666ZM297.528 49.8447V54H296.664V48.7168H297.479L297.528 49.8447ZM297.318 51.1582L296.967 51.1436C296.964 50.7822 297.004 50.4486 297.089 50.1426C297.177 49.8333 297.3 49.5648 297.46 49.3369C297.623 49.109 297.816 48.9333 298.041 48.8096C298.266 48.6826 298.515 48.6191 298.788 48.6191C299.003 48.6191 299.198 48.6549 299.374 48.7266C299.55 48.7949 299.7 48.9056 299.823 49.0586C299.947 49.2116 300.041 49.4102 300.106 49.6543C300.175 49.8952 300.209 50.1898 300.209 50.5381V54H299.345V50.5283C299.345 50.2516 299.314 50.0303 299.252 49.8643C299.193 49.695 299.102 49.5729 298.979 49.498C298.858 49.4199 298.705 49.3809 298.52 49.3809C298.35 49.3809 298.192 49.4281 298.046 49.5225C297.899 49.6169 297.771 49.7471 297.66 49.9131C297.553 50.0791 297.468 50.2695 297.406 50.4844C297.348 50.696 297.318 50.9206 297.318 51.1582ZM304.276 52.9746V46.5H305.136V54H304.35L304.276 52.9746ZM301.322 51.6123V51.1191C301.322 50.6829 301.365 50.3086 301.449 49.9961C301.534 49.6803 301.654 49.4215 301.811 49.2197C301.967 49.0146 302.154 48.8633 302.372 48.7656C302.59 48.668 302.831 48.6191 303.095 48.6191C303.368 48.6191 303.603 48.6745 303.798 48.7852C303.996 48.8958 304.162 49.057 304.296 49.2686C304.429 49.4769 304.534 49.7308 304.608 50.0303C304.687 50.3265 304.739 50.6618 304.765 51.0361V51.6953C304.735 52.0664 304.682 52.4001 304.604 52.6963C304.529 52.9925 304.424 53.2448 304.291 53.4531C304.158 53.6615 303.992 53.821 303.793 53.9316C303.594 54.0423 303.358 54.0977 303.085 54.0977C302.825 54.0977 302.587 54.0472 302.372 53.9463C302.157 53.8421 301.97 53.6875 301.811 53.4824C301.654 53.2741 301.534 53.0153 301.449 52.7061C301.365 52.3936 301.322 52.029 301.322 51.6123ZM302.187 51.1191V51.6123C302.187 51.9053 302.208 52.1608 302.25 52.3789C302.292 52.5938 302.359 52.7728 302.45 52.916C302.541 53.056 302.657 53.1602 302.797 53.2285C302.94 53.2969 303.111 53.3311 303.31 53.3311C303.55 53.3311 303.747 53.2725 303.9 53.1553C304.053 53.0381 304.175 52.8835 304.267 52.6914C304.361 52.4961 304.436 52.2861 304.491 52.0615V50.6748C304.459 50.5088 304.411 50.3493 304.35 50.1963C304.288 50.04 304.21 49.9017 304.115 49.7812C304.024 49.6576 303.912 49.5599 303.778 49.4883C303.648 49.4167 303.495 49.3809 303.319 49.3809C303.121 49.3809 302.948 49.4167 302.802 49.4883C302.659 49.5599 302.541 49.6673 302.45 49.8105C302.362 49.9538 302.296 50.1344 302.25 50.3525C302.208 50.5706 302.187 50.8262 302.187 51.1191ZM280.883 61.6748H279.438L279.428 60.918H280.771C280.972 60.918 281.151 60.8724 281.308 60.7812C281.464 60.6901 281.586 60.5599 281.674 60.3906C281.765 60.2181 281.811 60.013 281.811 59.7754C281.811 59.515 281.771 59.3034 281.693 59.1406C281.618 58.9746 281.503 58.8542 281.347 58.7793C281.194 58.7012 280.998 58.6621 280.761 58.6621H279.628V65H278.729V57.8906H280.761C281.067 57.8906 281.34 57.9281 281.581 58.0029C281.822 58.0745 282.025 58.1885 282.191 58.3447C282.361 58.4977 282.489 58.693 282.577 58.9307C282.665 59.1683 282.709 59.4531 282.709 59.7852C282.709 60.0781 282.642 60.3434 282.509 60.5811C282.379 60.8154 282.196 61.0075 281.962 61.1572C281.728 61.307 281.457 61.403 281.151 61.4453L280.883 61.6748ZM280.849 65H279.066L279.589 64.2334H280.849C281.083 64.2334 281.282 64.1813 281.444 64.0771C281.607 63.973 281.731 63.8265 281.815 63.6377C281.903 63.4456 281.947 63.2194 281.947 62.959C281.947 62.6953 281.911 62.4674 281.84 62.2754C281.768 62.0833 281.654 61.9352 281.498 61.8311C281.342 61.7269 281.137 61.6748 280.883 61.6748H279.726L279.735 60.918H281.298L281.498 61.1914C281.791 61.2207 282.037 61.3184 282.235 61.4844C282.437 61.6471 282.589 61.8555 282.689 62.1094C282.794 62.3633 282.846 62.6432 282.846 62.9492C282.846 63.3919 282.763 63.7663 282.597 64.0723C282.434 64.375 282.203 64.6061 281.903 64.7656C281.604 64.9219 281.252 65 280.849 65ZM285.961 65.0977C285.645 65.0977 285.36 65.0505 285.106 64.9561C284.853 64.8617 284.636 64.7184 284.457 64.5264C284.278 64.3311 284.141 64.0853 284.047 63.7891C283.952 63.4928 283.905 63.1429 283.905 62.7393V62.1436C283.905 61.6781 283.959 61.2842 284.066 60.9619C284.177 60.6396 284.325 60.3809 284.511 60.1855C284.696 59.987 284.906 59.8438 285.141 59.7559C285.375 59.6647 285.616 59.6191 285.863 59.6191C286.195 59.6191 286.479 59.6729 286.713 59.7803C286.947 59.8877 287.138 60.0472 287.284 60.2588C287.431 60.4704 287.538 60.7308 287.606 61.04C287.678 61.3493 287.714 61.7057 287.714 62.1094V62.6123H284.413V61.875H286.85V61.7529C286.837 61.4795 286.799 61.2386 286.737 61.0303C286.679 60.8219 286.581 60.6592 286.444 60.542C286.308 60.4215 286.114 60.3613 285.863 60.3613C285.704 60.3613 285.556 60.389 285.419 60.4443C285.285 60.4964 285.17 60.5892 285.072 60.7227C284.978 60.8529 284.903 61.0335 284.848 61.2646C284.796 61.4958 284.77 61.7887 284.77 62.1436V62.7393C284.77 63.0225 284.796 63.2666 284.848 63.4717C284.903 63.6735 284.983 63.8411 285.087 63.9746C285.194 64.1048 285.325 64.2025 285.478 64.2676C285.634 64.3294 285.811 64.3604 286.01 64.3604C286.299 64.3604 286.539 64.305 286.728 64.1943C286.916 64.0804 287.081 63.9355 287.221 63.7598L287.675 64.3018C287.58 64.4352 287.457 64.5638 287.304 64.6875C287.154 64.8079 286.968 64.9072 286.747 64.9854C286.529 65.0602 286.267 65.0977 285.961 65.0977ZM292.104 64.2578V65H288.905V64.2578H292.104ZM292.006 60.3564L289.101 65H288.573V64.3359L291.459 59.7168H292.006V60.3564ZM291.63 59.7168V60.4639H288.588V59.7168H291.63ZM295.741 64.0967V61.2305C295.741 61.0221 295.709 60.8545 295.644 60.7275C295.582 60.6006 295.487 60.5078 295.36 60.4492C295.237 60.3906 295.08 60.3613 294.892 60.3613C294.709 60.3613 294.551 60.3988 294.418 60.4736C294.288 60.5485 294.187 60.6478 294.115 60.7715C294.047 60.8952 294.013 61.0319 294.013 61.1816H293.148C293.148 60.9928 293.189 60.8057 293.271 60.6201C293.355 60.4346 293.476 60.2669 293.632 60.1172C293.788 59.9642 293.975 59.8438 294.193 59.7559C294.415 59.6647 294.662 59.6191 294.936 59.6191C295.261 59.6191 295.549 59.6729 295.8 59.7803C296.05 59.8844 296.247 60.0553 296.391 60.293C296.534 60.5306 296.605 60.8464 296.605 61.2402V63.8477C296.605 64.0234 296.618 64.2106 296.645 64.4092C296.674 64.6077 296.715 64.7786 296.767 64.9219V65H295.873C295.831 64.8958 295.798 64.7575 295.775 64.585C295.753 64.4092 295.741 64.2464 295.741 64.0967ZM295.878 61.7969L295.888 62.4316H295.287C295.082 62.4316 294.895 62.4544 294.726 62.5C294.56 62.5456 294.416 62.6123 294.296 62.7002C294.175 62.7848 294.083 62.8906 294.018 63.0176C293.956 63.1445 293.925 63.2894 293.925 63.4521C293.925 63.6637 293.954 63.833 294.013 63.96C294.071 64.0837 294.159 64.1732 294.276 64.2285C294.394 64.2839 294.542 64.3115 294.721 64.3115C294.939 64.3115 295.131 64.2611 295.297 64.1602C295.463 64.0592 295.591 63.9372 295.683 63.7939C295.777 63.6507 295.821 63.5173 295.814 63.3936L296.005 63.7988C295.992 63.9258 295.95 64.0641 295.878 64.2139C295.81 64.3604 295.714 64.502 295.59 64.6387C295.466 64.7721 295.32 64.8828 295.15 64.9707C294.984 65.0553 294.797 65.0977 294.589 65.0977C294.283 65.0977 294.014 65.0391 293.783 64.9219C293.555 64.8047 293.378 64.6322 293.251 64.4043C293.124 64.1764 293.061 63.8949 293.061 63.5596C293.061 63.3057 293.104 63.0713 293.192 62.8564C293.28 62.6416 293.41 62.4561 293.583 62.2998C293.756 62.1403 293.972 62.0166 294.232 61.9287C294.496 61.8408 294.8 61.7969 295.146 61.7969H295.878ZM298.812 57.5V65H297.948V57.5H298.812ZM298.603 62.1582L298.251 62.1436C298.248 61.7822 298.288 61.4486 298.373 61.1426C298.461 60.8333 298.585 60.5648 298.744 60.3369C298.907 60.109 299.101 59.9333 299.325 59.8096C299.55 59.6826 299.799 59.6191 300.072 59.6191C300.287 59.6191 300.482 59.6549 300.658 59.7266C300.834 59.7949 300.984 59.9056 301.107 60.0586C301.231 60.2116 301.326 60.4102 301.391 60.6543C301.459 60.8952 301.493 61.1898 301.493 61.5381V65H300.629V61.5283C300.629 61.2516 300.598 61.0303 300.536 60.8643C300.478 60.695 300.386 60.5729 300.263 60.498C300.142 60.4199 299.989 60.3809 299.804 60.3809C299.634 60.3809 299.477 60.4281 299.33 60.5225C299.184 60.6169 299.055 60.7471 298.944 60.9131C298.837 61.0791 298.752 61.2695 298.69 61.4844C298.632 61.696 298.603 61.9206 298.603 62.1582ZM303.71 57.5V65H302.851V57.5H303.71ZM307.748 63.7793V59.7168H308.612V65H307.792L307.748 63.7793ZM307.909 62.666L308.251 62.6562C308.251 63.0078 308.22 63.3333 308.158 63.6328C308.1 63.929 308.002 64.1862 307.865 64.4043C307.732 64.6224 307.554 64.7933 307.333 64.917C307.112 65.0374 306.84 65.0977 306.518 65.0977C306.299 65.0977 306.101 65.0602 305.922 64.9854C305.746 64.9105 305.593 64.7949 305.463 64.6387C305.336 64.4824 305.237 64.279 305.165 64.0283C305.097 63.7777 305.062 63.4766 305.062 63.125V59.7168H305.922V63.1348C305.922 63.3724 305.943 63.5693 305.985 63.7256C306.028 63.8786 306.085 64.0007 306.156 64.0918C306.228 64.1797 306.308 64.2415 306.396 64.2773C306.483 64.3132 306.573 64.3311 306.664 64.3311C306.97 64.3311 307.214 64.2578 307.396 64.1113C307.579 63.9616 307.709 63.7614 307.787 63.5107C307.868 63.2568 307.909 62.9753 307.909 62.666ZM310.775 60.8447V65H309.911V59.7168H310.727L310.775 60.8447ZM310.565 62.1582L310.214 62.1436C310.211 61.7822 310.251 61.4486 310.336 61.1426C310.424 60.8333 310.548 60.5648 310.707 60.3369C310.87 60.109 311.063 59.9333 311.288 59.8096C311.513 59.6826 311.762 59.6191 312.035 59.6191C312.25 59.6191 312.445 59.6549 312.621 59.7266C312.797 59.7949 312.947 59.9056 313.07 60.0586C313.194 60.2116 313.288 60.4102 313.354 60.6543C313.422 60.8952 313.456 61.1898 313.456 61.5381V65H312.592V61.5283C312.592 61.2516 312.561 61.0303 312.499 60.8643C312.44 60.695 312.349 60.5729 312.226 60.498C312.105 60.4199 311.952 60.3809 311.767 60.3809C311.597 60.3809 311.439 60.4281 311.293 60.5225C311.146 60.6169 311.018 60.7471 310.907 60.9131C310.8 61.0791 310.715 61.2695 310.653 61.4844C310.595 61.696 310.565 61.9206 310.565 62.1582ZM317.616 59.7168H318.393V65.0439C318.393 65.5094 318.311 65.8936 318.148 66.1963C317.989 66.499 317.766 66.722 317.479 66.8652C317.193 67.0117 316.863 67.085 316.488 67.085C316.355 67.085 316.187 67.0605 315.985 67.0117C315.784 66.9629 315.582 66.888 315.38 66.7871C315.178 66.6895 315.012 66.5658 314.882 66.416L315.238 65.8154C315.424 66.0042 315.621 66.1393 315.829 66.2207C316.037 66.3021 316.236 66.3428 316.425 66.3428C316.649 66.3428 316.845 66.3021 317.011 66.2207C317.177 66.1393 317.305 66.0059 317.396 65.8203C317.488 65.638 317.533 65.3939 317.533 65.0879V60.8789L317.616 59.7168ZM314.579 62.6123V62.1191C314.579 61.6829 314.62 61.3086 314.701 60.9961C314.783 60.6803 314.9 60.4215 315.053 60.2197C315.209 60.0146 315.396 59.8633 315.614 59.7656C315.832 59.668 316.076 59.6191 316.347 59.6191C316.62 59.6191 316.856 59.6745 317.055 59.7852C317.253 59.8958 317.418 60.057 317.548 60.2686C317.681 60.4769 317.785 60.7308 317.86 61.0303C317.938 61.3265 317.992 61.6618 318.021 62.0361V62.6953C317.992 63.0664 317.938 63.4001 317.86 63.6963C317.785 63.9925 317.68 64.2448 317.543 64.4531C317.41 64.6615 317.243 64.821 317.045 64.9316C316.846 65.0423 316.61 65.0977 316.337 65.0977C316.07 65.0977 315.829 65.0472 315.614 64.9463C315.399 64.8421 315.214 64.6875 315.058 64.4824C314.905 64.2741 314.786 64.0153 314.701 63.7061C314.62 63.3936 314.579 63.029 314.579 62.6123ZM315.443 62.1191V62.6123C315.443 62.9053 315.465 63.1608 315.507 63.3789C315.549 63.5937 315.614 63.7728 315.702 63.916C315.793 64.056 315.909 64.1602 316.049 64.2285C316.192 64.2969 316.363 64.3311 316.562 64.3311C316.802 64.3311 316.999 64.2725 317.152 64.1553C317.305 64.0381 317.427 63.8835 317.519 63.6914C317.613 63.4961 317.688 63.2861 317.743 63.0615V61.6748C317.711 61.5088 317.663 61.3493 317.602 61.1963C317.543 61.04 317.466 60.9017 317.372 60.7812C317.278 60.6576 317.164 60.5599 317.03 60.4883C316.9 60.4167 316.747 60.3809 316.571 60.3809C316.373 60.3809 316.202 60.4167 316.059 60.4883C315.915 60.5599 315.798 60.6673 315.707 60.8105C315.616 60.9538 315.549 61.1344 315.507 61.3525C315.465 61.5706 315.443 61.8262 315.443 62.1191Z" fill="url(#paint3_linear_1406_1509)"/>
<path fill-rule="evenodd" clip-rule="evenodd" d="M287 16L220 16V14L287 14V16Z" fill="url(#paint4_linear_1406_1509)"/>
<path fill-rule="evenodd" clip-rule="evenodd" d="M194 16L127 16V14L194 14V16Z" fill="url(#paint5_linear_1406_1509)"/>
<path fill-rule="evenodd" clip-rule="evenodd" d="M102 16L32 16V14L102 14V16Z" fill="url(#paint6_linear_1406_1509)"/>
<path fill-rule="evenodd" clip-rule="evenodd" d="M10.7612 6.17317C10 8.01088 10 10.3406 10 15C10 19.6594 10 21.9891 10.7612 23.8268C11.7761 26.2771 13.7229 28.2239 16.1732 29.2388C18.0109 30 20.3406 30 25 30C29.6594 30 31.9891 30 33.8268 29.2388C36.2771 28.2239 38.2239 26.2771 39.2388 23.8268C40 21.9891 40 19.6594 40 15C40 10.3406 40 8.01088 39.2388 6.17317C38.2239 3.72288 36.2771 1.77614 33.8268 0.761205C31.9891 0 29.6594 0 25 0C20.3406 0 18.0109 0 16.1732 0.761205C13.7229 1.77614 11.7761 3.72288 10.7612 6.17317ZM31.7071 11.7071C32.0976 11.3166 32.0976 10.6834 31.7071 10.2929C31.3166 9.90237 30.6834 9.90237 30.2929 10.2929L23 17.5858L19.7071 14.2929C19.3166 13.9024 18.6834 13.9024 18.2929 14.2929C17.9024 14.6834 17.9024 15.3166 18.2929 15.7071L22.2929 19.7071C22.4804 19.8946 22.7348 20 23 20C23.2652 20 23.5196 19.8946 23.7071 19.7071L31.7071 11.7071Z" fill="url(#paint7_linear_1406_1509)"/>
<path fill-rule="evenodd" clip-rule="evenodd" d="M101.761 6.17317C101 8.01088 101 10.3406 101 15C101 19.6594 101 21.9891 101.761 23.8268C102.776 26.2771 104.723 28.2239 107.173 29.2388C109.011 30 111.341 30 116 30C120.659 30 122.989 30 124.827 29.2388C127.277 28.2239 129.224 26.2771 130.239 23.8268C131 21.9891 131 19.6594 131 15C131 10.3406 131 8.01088 130.239 6.17317C129.224 3.72288 127.277 1.77614 124.827 0.761205C122.989 0 120.659 0 116 0C111.341 0 109.011 0 107.173 0.761205C104.723 1.77614 102.776 3.72288 101.761 6.17317ZM122.707 11.7071C123.098 11.3166 123.098 10.6834 122.707 10.2929C122.317 9.90237 121.683 9.90237 121.293 10.2929L114 17.5858L110.707 14.2929C110.317 13.9024 109.683 13.9024 109.293 14.2929C108.902 14.6834 108.902 15.3166 109.293 15.7071L113.293 19.7071C113.48 19.8946 113.735 20 114 20C114.265 20 114.52 19.8946 114.707 19.7071L122.707 11.7071Z" fill="url(#paint8_linear_1406_1509)"/>
<path fill-rule="evenodd" clip-rule="evenodd" d="M192.761 6.17317C192 8.01088 192 10.3406 192 15C192 19.6594 192 21.9891 192.761 23.8268C193.776 26.2771 195.723 28.2239 198.173 29.2388C200.011 30 202.341 30 207 30C211.659 30 213.989 30 215.827 29.2388C218.277 28.2239 220.224 26.2771 221.239 23.8268C222 21.9891 222 19.6594 222 15C222 10.3406 222 8.01088 221.239 6.17317C220.224 3.72288 218.277 1.77614 215.827 0.761205C213.989 0 211.659 0 207 0C202.341 0 200.011 0 198.173 0.761205C195.723 1.77614 193.776 3.72288 192.761 6.17317ZM213.707 11.7071C214.098 11.3166 214.098 10.6834 213.707 10.2929C213.317 9.90237 212.683 9.90237 212.293 10.2929L205 17.5858L201.707 14.2929C201.317 13.9024 200.683 13.9024 200.293 14.2929C199.902 14.6834 199.902 15.3166 200.293 15.7071L204.293 19.7071C204.48 19.8946 204.735 20 205 20C205.265 20 205.52 19.8946 205.707 19.7071L213.707 11.7071Z" fill="url(#paint9_linear_1406_1509)"/>
<path fill-rule="evenodd" clip-rule="evenodd" d="M283.761 6.17317C283 8.01088 283 10.3406 283 15C283 19.6594 283 21.9891 283.761 23.8268C284.776 26.2771 286.723 28.2239 289.173 29.2388C291.011 30 293.341 30 298 30C302.659 30 304.989 30 306.827 29.2388C309.277 28.2239 311.224 26.2771 312.239 23.8268C313 21.9891 313 19.6594 313 15C313 10.3406 313 8.01088 312.239 6.17317C311.224 3.72288 309.277 1.77614 306.827 0.761205C304.989 0 302.659 0 298 0C293.341 0 291.011 0 289.173 0.761205C286.723 1.77614 284.776 3.72288 283.761 6.17317ZM304.707 11.7071C305.098 11.3166 305.098 10.6834 304.707 10.2929C304.317 9.90237 303.683 9.90237 303.293 10.2929L296 17.5858L292.707 14.2929C292.317 13.9024 291.683 13.9024 291.293 14.2929C290.902 14.6834 290.902 15.3166 291.293 15.7071L295.293 19.7071C295.48 19.8946 295.735 20 296 20C296.265 20 296.52 19.8946 296.707 19.7071L304.707 11.7071Z" fill="url(#paint10_linear_1406_1509)"/>
<defs>
<linearGradient id="paint0_linear_1406_1509" x1="25" y1="56" x2="25" y2="34" gradientUnits="userSpaceOnUse">
<stop stop-color="#5CCC94"/>
<stop offset="1" stop-color="#8CCAAE"/>
</linearGradient>
<linearGradient id="paint1_linear_1406_1509" x1="114.5" y1="55" x2="114.5" y2="35" gradientUnits="userSpaceOnUse">
<stop stop-color="#5CCC94"/>
<stop offset="1" stop-color="#8CCAAE"/>
</linearGradient>
<linearGradient id="paint2_linear_1406_1509" x1="207.5" y1="55" x2="207.5" y2="35" gradientUnits="userSpaceOnUse">
<stop stop-color="#5CCC94"/>
<stop offset="1" stop-color="#8CCAAE"/>
</linearGradient>
<linearGradient id="paint3_linear_1406_1509" x1="298.5" y1="67" x2="298.5" y2="34" gradientUnits="userSpaceOnUse">
<stop stop-color="#5CCC94"/>
<stop offset="1" stop-color="#8CCAAE"/>
</linearGradient>
<linearGradient id="paint4_linear_1406_1509" x1="253.5" y1="16" x2="253.5" y2="14" gradientUnits="userSpaceOnUse">
<stop stop-color="#5CCC94"/>
<stop offset="1" stop-color="#8CCAAE"/>
</linearGradient>
<linearGradient id="paint5_linear_1406_1509" x1="160.5" y1="16" x2="160.5" y2="14" gradientUnits="userSpaceOnUse">
<stop stop-color="#5CCC94"/>
<stop offset="1" stop-color="#8CCAAE"/>
</linearGradient>
<linearGradient id="paint6_linear_1406_1509" x1="67" y1="16" x2="67" y2="14" gradientUnits="userSpaceOnUse">
<stop stop-color="#5CCC94"/>
<stop offset="1" stop-color="#8CCAAE"/>
</linearGradient>
<linearGradient id="paint7_linear_1406_1509" x1="25" y1="30" x2="25" y2="1.58545e-07" gradientUnits="userSpaceOnUse">
<stop stop-color="#5CCC94"/>
<stop offset="1" stop-color="#8CCAAE"/>
</linearGradient>
<linearGradient id="paint8_linear_1406_1509" x1="116" y1="30" x2="116" y2="1.58545e-07" gradientUnits="userSpaceOnUse">
<stop stop-color="#5CCC94"/>
<stop offset="1" stop-color="#8CCAAE"/>
</linearGradient>
<linearGradient id="paint9_linear_1406_1509" x1="207" y1="30" x2="207" y2="1.58545e-07" gradientUnits="userSpaceOnUse">
<stop stop-color="#5CCC94"/>
<stop offset="1" stop-color="#8CCAAE"/>
</linearGradient>
<linearGradient id="paint10_linear_1406_1509" x1="298" y1="30" x2="298" y2="1.58545e-07" gradientUnits="userSpaceOnUse">
<stop stop-color="#5CCC94"/>
<stop offset="1" stop-color="#8CCAAE"/>
</linearGradient>
</defs>
</svg>
