<svg width="240" height="68" viewBox="0 0 240 68" fill="none" xmlns="http://www.w3.org/2000/svg">
<path d="M18.3076 41.7393H19.2061C19.1833 42.2275 19.084 42.6491 18.9082 43.0039C18.7357 43.3555 18.4834 43.6257 18.1514 43.8145C17.8226 44.0033 17.4108 44.0977 16.916 44.0977C16.5612 44.0977 16.2406 44.0277 15.9541 43.8877C15.6676 43.7477 15.4219 43.5475 15.2168 43.2871C15.015 43.0234 14.8604 42.7077 14.7529 42.3398C14.6455 41.972 14.5918 41.5586 14.5918 41.0996L14.5918 39.7861C14.5918 39.3304 14.6455 38.9186 14.7529 38.5508C14.8636 38.1829 15.0215 37.8688 15.2266 37.6084C15.4349 37.3447 15.6872 37.1429 15.9834 37.0029C16.2829 36.863 16.6214 36.793 16.999 36.793C17.4613 36.793 17.8519 36.8857 18.1709 37.0713C18.4932 37.2536 18.7406 37.5221 18.9131 37.877C19.0889 38.2285 19.1865 38.6598 19.2061 39.1709H18.3076C18.2848 38.7965 18.2262 38.4922 18.1318 38.2578C18.0374 38.0202 17.8975 37.846 17.7119 37.7354C17.5296 37.6214 17.292 37.5645 16.999 37.5645C16.7386 37.5645 16.5124 37.6165 16.3203 37.7207C16.1315 37.8249 15.9753 37.9746 15.8516 38.1699C15.7311 38.362 15.64 38.5947 15.5781 38.8682C15.5195 39.1383 15.4902 39.4411 15.4902 39.7764L15.4902 41.0996C15.4902 41.4121 15.5146 41.7035 15.5635 41.9736C15.6156 42.2438 15.6969 42.4814 15.8076 42.6865C15.9215 42.8883 16.0697 43.0462 16.252 43.1602C16.4342 43.2741 16.6556 43.3311 16.916 43.3311C17.2448 43.3311 17.5052 43.2773 17.6973 43.1699C17.8893 43.0625 18.0309 42.8916 18.1221 42.6572C18.2165 42.4229 18.2783 42.1169 18.3076 41.7393ZM16.2764 34.8301L16.8623 35.6602L17.4434 34.8301H18.1855V34.8789L17.1162 36.2168H16.6084L15.5537 34.8789V34.8301H16.2764ZM21.2373 38.7168V44H20.373V38.7168H21.2373ZM20.3242 37.9453L21.2715 36.5098H22.3604L21.0518 37.9453H20.3242ZM25.2217 42.6475C25.2217 42.514 25.1891 42.3968 25.124 42.2959C25.0589 42.195 24.9515 42.0973 24.8018 42.0029C24.6553 41.9085 24.4567 41.8076 24.2061 41.7002C23.9619 41.5993 23.7422 41.5 23.5469 41.4023C23.3548 41.3014 23.1921 41.1924 23.0586 41.0752C22.9251 40.958 22.8226 40.8229 22.751 40.6699C22.6826 40.5137 22.6484 40.3298 22.6484 40.1182C22.6484 39.9066 22.6875 39.7113 22.7656 39.5322C22.847 39.3499 22.9609 39.1904 23.1074 39.0537C23.2539 38.917 23.4297 38.8112 23.6348 38.7363C23.8398 38.6582 24.0693 38.6191 24.3232 38.6191C24.6846 38.6191 24.9922 38.6891 25.2461 38.8291C25.5 38.9691 25.6937 39.1611 25.8271 39.4053C25.9639 39.6462 26.0322 39.918 26.0322 40.2207H25.1729C25.1729 40.0742 25.1403 39.9359 25.0752 39.8057C25.0101 39.6755 24.9141 39.5697 24.7871 39.4883C24.6602 39.4036 24.5055 39.3613 24.3232 39.3613C24.1312 39.3613 23.9749 39.3955 23.8545 39.4639C23.734 39.5322 23.6462 39.6217 23.5908 39.7324C23.5387 39.8398 23.5127 39.9587 23.5127 40.0889C23.5127 40.1865 23.5257 40.2712 23.5518 40.3428C23.5811 40.4111 23.6299 40.4762 23.6982 40.5381C23.7666 40.5967 23.8594 40.6585 23.9766 40.7236C24.097 40.7855 24.25 40.8571 24.4355 40.9385C24.7936 41.0785 25.0947 41.2201 25.3389 41.3633C25.583 41.5065 25.7686 41.6742 25.8955 41.8662C26.0225 42.0583 26.0859 42.2959 26.0859 42.5791C26.0859 42.8102 26.0436 43.0202 25.959 43.209C25.8776 43.3945 25.7604 43.554 25.6074 43.6875C25.4544 43.821 25.2705 43.9235 25.0557 43.9951C24.8441 44.0635 24.6064 44.0977 24.3428 44.0977C23.9456 44.0977 23.6087 44.0195 23.332 43.8633C23.0586 43.7038 22.8503 43.4971 22.707 43.2432C22.5671 42.986 22.4971 42.7109 22.4971 42.418H23.3613C23.3711 42.6654 23.4264 42.8574 23.5273 42.9941C23.6315 43.1309 23.7568 43.2253 23.9033 43.2773C24.0498 43.3294 24.1963 43.3555 24.3428 43.3555C24.5348 43.3555 24.696 43.3278 24.8262 43.2725C24.9564 43.2139 25.054 43.1309 25.1191 43.0234C25.1875 42.916 25.2217 42.7907 25.2217 42.6475ZM28.1465 36.5V44L27.2871 44V36.5H28.1465ZM29.333 41.6123V41.1094C29.333 40.6992 29.3851 40.3395 29.4893 40.0303C29.5934 39.7178 29.7383 39.4574 29.9238 39.249C30.1094 39.0407 30.3258 38.8844 30.5732 38.7803C30.8206 38.6729 31.0859 38.6191 31.3691 38.6191C31.6589 38.6191 31.9274 38.6729 32.1748 38.7803C32.4222 38.8844 32.6387 39.0407 32.8242 39.249C33.013 39.4574 33.1595 39.7178 33.2637 40.0303C33.3678 40.3395 33.4199 40.6992 33.4199 41.1094V41.6123C33.4199 42.0225 33.3678 42.3838 33.2637 42.6963C33.1595 43.0055 33.0146 43.2643 32.8291 43.4727C32.6436 43.681 32.4271 43.8372 32.1797 43.9414C31.9323 44.0456 31.6654 44.0977 31.3789 44.0977C31.0924 44.0977 30.8255 44.0456 30.5781 43.9414C30.3307 43.8372 30.1126 43.681 29.9238 43.4727C29.7383 43.2643 29.5934 43.0055 29.4893 42.6963C29.3851 42.3838 29.333 42.0225 29.333 41.6123ZM30.1973 41.1094V41.6123C30.1973 41.902 30.2266 42.1559 30.2852 42.374C30.3438 42.5921 30.4268 42.7744 30.5342 42.9209C30.6416 43.0674 30.7669 43.1781 30.9102 43.2529C31.0534 43.3245 31.2096 43.3604 31.3789 43.3604C31.5742 43.3604 31.7451 43.3245 31.8916 43.2529C32.0413 43.1781 32.165 43.0674 32.2627 42.9209C32.3604 42.7744 32.4336 42.5921 32.4824 42.374C32.5312 42.1559 32.5557 41.902 32.5557 41.6123V41.1094C32.5557 40.8197 32.5264 40.5674 32.4678 40.3525C32.4092 40.1344 32.3262 39.9521 32.2188 39.8057C32.1113 39.6559 31.9844 39.5452 31.8379 39.4736C31.6947 39.3988 31.5384 39.3613 31.3691 39.3613C31.2031 39.3613 31.0485 39.3988 30.9053 39.4736C30.762 39.5452 30.6367 39.6559 30.5293 39.8057C30.4251 39.9521 30.3438 40.1344 30.2852 40.3525C30.2266 40.5674 30.1973 40.8197 30.1973 41.1094ZM40.0557 42.2031C40.0557 42.0371 40.0361 41.8906 39.9971 41.7637C39.958 41.6335 39.8896 41.5163 39.792 41.4121C39.6943 41.3079 39.5576 41.2087 39.3818 41.1143C39.2061 41.0199 38.9831 40.9238 38.7129 40.8262C38.4199 40.722 38.1546 40.6064 37.917 40.4795C37.6794 40.3493 37.4759 40.2012 37.3066 40.0352C37.1406 39.8691 37.012 39.6787 36.9209 39.4639C36.8298 39.249 36.7842 39.0033 36.7842 38.7266C36.7842 38.4499 36.8314 38.1943 36.9258 37.96C37.0234 37.7256 37.1602 37.5221 37.3359 37.3496C37.515 37.1738 37.7298 37.0371 37.9805 36.9395C38.2311 36.8418 38.5111 36.793 38.8203 36.793C39.2826 36.793 39.6715 36.8955 39.9873 37.1006C40.3063 37.3024 40.5472 37.5677 40.71 37.8965C40.8727 38.222 40.9541 38.5703 40.9541 38.9414H40.0557C40.0557 38.6745 40.0117 38.4385 39.9238 38.2334C39.8392 38.0251 39.7057 37.8623 39.5234 37.7451C39.3444 37.6247 39.11 37.5645 38.8203 37.5645C38.5599 37.5645 38.3451 37.6149 38.1758 37.7158C38.0098 37.8167 37.8861 37.9535 37.8047 38.126C37.7266 38.2985 37.6875 38.4954 37.6875 38.7168C37.6875 38.8665 37.7135 39.0033 37.7656 39.127C37.8177 39.2474 37.8975 39.3597 38.0049 39.4639C38.1156 39.568 38.2523 39.6641 38.415 39.752C38.5811 39.8398 38.7764 39.9245 39.001 40.0059C39.3493 40.1198 39.6471 40.2467 39.8945 40.3867C40.1419 40.5267 40.3438 40.6846 40.5 40.8604C40.6562 41.0329 40.7702 41.2298 40.8418 41.4512C40.9167 41.6693 40.9541 41.9167 40.9541 42.1934C40.9541 42.4831 40.9053 42.7451 40.8076 42.9795C40.7132 43.2139 40.5749 43.4141 40.3926 43.5801C40.2103 43.7461 39.9906 43.8747 39.7334 43.9658C39.4762 44.0537 39.1865 44.0977 38.8643 44.0977C38.5843 44.0977 38.3092 44.0521 38.0391 43.9609C37.7721 43.8698 37.5296 43.7331 37.3115 43.5508C37.0934 43.3685 36.9193 43.1439 36.7891 42.877C36.6589 42.6068 36.5938 42.2943 36.5938 41.9395H37.4922C37.4922 42.1836 37.528 42.3936 37.5996 42.5693C37.6712 42.7419 37.7705 42.8851 37.8975 42.999C38.0244 43.113 38.1693 43.1976 38.332 43.2529C38.498 43.305 38.6755 43.3311 38.8643 43.3311C39.1247 43.3311 39.3428 43.2855 39.5186 43.1943C39.6976 43.1032 39.8311 42.973 39.9189 42.8037C40.0101 42.6344 40.0557 42.4342 40.0557 42.2031ZM44.3965 41.2119H42.8438V40.4453H44.3965C44.6895 40.4453 44.9255 40.3867 45.1045 40.2695C45.2868 40.1523 45.4186 39.9896 45.5 39.7812C45.5846 39.5729 45.627 39.3353 45.627 39.0684C45.627 38.8242 45.5846 38.5947 45.5 38.3799C45.4186 38.165 45.2868 37.9925 45.1045 37.8623C44.9255 37.7288 44.6895 37.6621 44.3965 37.6621H43.0293V44H42.1309V36.8906H44.3965C44.8555 36.8906 45.2428 36.9834 45.5586 37.1689C45.8743 37.3545 46.1136 37.6117 46.2764 37.9404C46.4424 38.266 46.5254 38.6387 46.5254 39.0586C46.5254 39.5143 46.4424 39.9033 46.2764 40.2256C46.1136 40.5479 45.8743 40.7936 45.5586 40.9629C45.2428 41.1289 44.8555 41.2119 44.3965 41.2119ZM51.5938 43.2334V44H47.5752V43.2334H51.5938ZM51.4668 37.5742L47.7852 44H47.2334V43.2969L50.9102 36.8906H51.4668V37.5742ZM51.0859 36.8906V37.6621H47.2627V36.8906H51.0859Z" fill="url(#paint0_linear_363_3420)"/>
<path d="M106.814 40.8906V48H105.916V40.8906H106.814ZM109.212 44.0889V44.8604H106.644V44.0889H109.212ZM109.617 40.8906V41.6621H106.644V40.8906H109.617ZM113.035 47.0967V44.2305C113.035 44.0221 113.003 43.8545 112.938 43.7275C112.876 43.6006 112.781 43.5078 112.654 43.4492C112.531 43.3906 112.374 43.3613 112.186 43.3613C112.003 43.3613 111.845 43.3988 111.712 43.4736C111.582 43.5485 111.481 43.6478 111.409 43.7715C111.341 43.8952 111.307 44.0319 111.307 44.1816H110.442C110.442 43.9928 110.483 43.8057 110.564 43.6201C110.649 43.4346 110.77 43.2669 110.926 43.1172C111.082 42.9642 111.269 42.8438 111.487 42.7559C111.709 42.6647 111.956 42.6191 112.229 42.6191C112.555 42.6191 112.843 42.6729 113.094 42.7803C113.344 42.8844 113.541 43.0553 113.685 43.293C113.828 43.5306 113.899 43.8464 113.899 44.2402V46.8477C113.899 47.0234 113.912 47.2106 113.938 47.4092C113.968 47.6077 114.008 47.7786 114.061 47.9219V48H113.167C113.125 47.8958 113.092 47.7575 113.069 47.585C113.047 47.4092 113.035 47.2464 113.035 47.0967ZM113.172 44.7969L113.182 45.4316H112.581C112.376 45.4316 112.189 45.4544 112.02 45.5C111.854 45.5456 111.71 45.6123 111.59 45.7002C111.469 45.7848 111.377 45.8906 111.312 46.0176C111.25 46.1445 111.219 46.2894 111.219 46.4521C111.219 46.6637 111.248 46.833 111.307 46.96C111.365 47.0837 111.453 47.1732 111.57 47.2285C111.688 47.2839 111.836 47.3115 112.015 47.3115C112.233 47.3115 112.425 47.2611 112.591 47.1602C112.757 47.0592 112.885 46.9372 112.977 46.7939C113.071 46.6507 113.115 46.5173 113.108 46.3936L113.299 46.7988C113.286 46.9258 113.243 47.0641 113.172 47.2139C113.104 47.3604 113.007 47.502 112.884 47.6387C112.76 47.7721 112.614 47.8828 112.444 47.9707C112.278 48.0553 112.091 48.0977 111.883 48.0977C111.577 48.0977 111.308 48.0391 111.077 47.9219C110.849 47.8047 110.672 47.6322 110.545 47.4043C110.418 47.1764 110.354 46.8949 110.354 46.5596C110.354 46.3057 110.398 46.0713 110.486 45.8564C110.574 45.6416 110.704 45.4561 110.877 45.2998C111.049 45.1403 111.266 45.0166 111.526 44.9287C111.79 44.8408 112.094 44.7969 112.439 44.7969H113.172ZM116.111 40.5V48H115.247V40.5H116.111ZM118.792 42.7168L116.912 45.1826L115.75 46.5205L115.691 45.5586L116.492 44.4551L117.752 42.7168H118.792ZM118.001 48L116.517 45.4805L116.961 44.6748L119.007 48H118.001ZM121.683 42.7168V43.4102H119.217V42.7168H121.683ZM120.022 41.4326H120.887V46.6914C120.887 46.8704 120.908 47.0055 120.95 47.0967C120.996 47.1878 121.053 47.248 121.121 47.2773C121.189 47.3066 121.263 47.3213 121.341 47.3213C121.399 47.3213 121.465 47.3148 121.536 47.3018C121.608 47.2855 121.657 47.2725 121.683 47.2627L121.678 48C121.619 48.0228 121.541 48.0439 121.443 48.0635C121.346 48.0863 121.222 48.0977 121.072 48.0977C120.887 48.0977 120.714 48.0537 120.555 47.9658C120.395 47.8779 120.267 47.7314 120.169 47.5264C120.071 47.318 120.022 47.0381 120.022 46.6865V41.4326ZM125.384 46.7793V42.7168H126.248V48H125.428L125.384 46.7793ZM125.545 45.666L125.887 45.6562C125.887 46.0078 125.856 46.3333 125.794 46.6328C125.735 46.929 125.638 47.1862 125.501 47.4043C125.368 47.6224 125.19 47.7933 124.969 47.917C124.747 48.0374 124.476 48.0977 124.153 48.0977C123.935 48.0977 123.737 48.0602 123.558 47.9854C123.382 47.9105 123.229 47.7949 123.099 47.6387C122.972 47.4824 122.872 47.279 122.801 47.0283C122.732 46.7777 122.698 46.4766 122.698 46.125V42.7168H123.558V46.1348C123.558 46.3724 123.579 46.5693 123.621 46.7256C123.663 46.8786 123.72 47.0007 123.792 47.0918C123.864 47.1797 123.943 47.2415 124.031 47.2773C124.119 47.3132 124.209 47.3311 124.3 47.3311C124.606 47.3311 124.85 47.2578 125.032 47.1113C125.215 46.9616 125.345 46.7614 125.423 46.5107C125.504 46.2568 125.545 45.9753 125.545 45.666ZM128.411 43.5469V48H127.547V42.7168H128.382L128.411 43.5469ZM129.725 42.6875L129.729 43.5273C129.658 43.5111 129.593 43.5013 129.534 43.498C129.479 43.4915 129.414 43.4883 129.339 43.4883C129.176 43.4883 129.033 43.5208 128.909 43.5859C128.789 43.651 128.685 43.7422 128.597 43.8594C128.509 43.9766 128.439 44.1165 128.387 44.2793C128.335 44.4388 128.299 44.6146 128.279 44.8066L128.055 44.9531C128.055 44.6341 128.079 44.3346 128.128 44.0547C128.18 43.7747 128.26 43.5273 128.367 43.3125C128.475 43.0944 128.611 42.9251 128.777 42.8047C128.947 42.681 129.148 42.6191 129.383 42.6191C129.435 42.6191 129.498 42.6273 129.573 42.6436C129.651 42.6566 129.702 42.6712 129.725 42.6875ZM132.986 47.0967V44.2305C132.986 44.0221 132.954 43.8545 132.889 43.7275C132.827 43.6006 132.732 43.5078 132.605 43.4492C132.482 43.3906 132.326 43.3613 132.137 43.3613C131.954 43.3613 131.797 43.3988 131.663 43.4736C131.533 43.5485 131.432 43.6478 131.36 43.7715C131.292 43.8952 131.258 44.0319 131.258 44.1816H130.394C130.394 43.9928 130.434 43.8057 130.516 43.6201C130.6 43.4346 130.721 43.2669 130.877 43.1172C131.033 42.9642 131.22 42.8437 131.438 42.7559C131.66 42.6647 131.907 42.6191 132.181 42.6191C132.506 42.6191 132.794 42.6729 133.045 42.7803C133.296 42.8844 133.493 43.0553 133.636 43.293C133.779 43.5306 133.851 43.8464 133.851 44.2402V46.8477C133.851 47.0234 133.864 47.2106 133.89 47.4092C133.919 47.6077 133.96 47.7786 134.012 47.9219V48H133.118C133.076 47.8958 133.043 47.7575 133.021 47.585C132.998 47.4092 132.986 47.2464 132.986 47.0967ZM133.123 44.7969L133.133 45.4316L132.532 45.4316C132.327 45.4316 132.14 45.4544 131.971 45.5C131.805 45.5456 131.661 45.6123 131.541 45.7002C131.421 45.7848 131.328 45.8906 131.263 46.0176C131.201 46.1445 131.17 46.2894 131.17 46.4521C131.17 46.6637 131.199 46.833 131.258 46.96C131.316 47.0837 131.404 47.1732 131.521 47.2285C131.639 47.2839 131.787 47.3115 131.966 47.3115C132.184 47.3115 132.376 47.2611 132.542 47.1602C132.708 47.0592 132.837 46.9372 132.928 46.7939C133.022 46.6507 133.066 46.5173 133.06 46.3936L133.25 46.7988C133.237 46.9258 133.195 47.0641 133.123 47.2139C133.055 47.3604 132.959 47.502 132.835 47.6387C132.711 47.7721 132.565 47.8828 132.396 47.9707C132.229 48.0553 132.042 48.0977 131.834 48.0977C131.528 48.0977 131.259 48.0391 131.028 47.9219C130.8 47.8047 130.623 47.6322 130.496 47.4043C130.369 47.1764 130.306 46.8949 130.306 46.5596C130.306 46.3057 130.35 46.0713 130.438 45.8564C130.525 45.6416 130.656 45.4561 130.828 45.2998C131.001 45.1403 131.217 45.0166 131.478 44.9287C131.741 44.8408 132.046 44.7969 132.391 44.7969L133.123 44.7969ZM137.024 47.3604C137.197 47.3604 137.353 47.3262 137.493 47.2578C137.636 47.1862 137.754 47.0755 137.845 46.9258C137.936 46.7728 137.988 46.5742 138.001 46.3301H138.812C138.799 46.6816 138.709 46.9909 138.543 47.2578C138.38 47.5215 138.165 47.7282 137.898 47.8779C137.635 48.0244 137.343 48.0977 137.024 48.0977C136.683 48.0977 136.385 48.0423 136.131 47.9316C135.88 47.821 135.672 47.6615 135.506 47.4531C135.343 47.2415 135.221 46.986 135.14 46.6865C135.058 46.3838 135.018 46.0404 135.018 45.6562V45.0605C135.018 44.6764 135.058 44.3346 135.14 44.0352C135.221 43.7324 135.343 43.4769 135.506 43.2686C135.672 43.057 135.88 42.8958 136.131 42.7852C136.385 42.6745 136.683 42.6191 137.024 42.6191C137.382 42.6191 137.692 42.6956 137.952 42.8486C138.216 42.9984 138.421 43.2165 138.567 43.5029C138.717 43.7861 138.799 44.1296 138.812 44.5332H138.001C137.988 44.2728 137.941 44.0563 137.859 43.8838C137.778 43.708 137.667 43.5778 137.527 43.4932C137.387 43.4053 137.22 43.3613 137.024 43.3613C136.797 43.3613 136.608 43.402 136.458 43.4834C136.312 43.5615 136.196 43.6755 136.111 43.8252C136.027 43.9749 135.966 44.154 135.931 44.3623C135.898 44.5706 135.882 44.8034 135.882 45.0605V45.6562C135.882 45.9134 135.898 46.1478 135.931 46.3594C135.966 46.5677 136.025 46.7467 136.106 46.8965C136.191 47.0462 136.308 47.1618 136.458 47.2432C136.608 47.3213 136.797 47.3604 137.024 47.3604ZM141.702 48.0977C141.386 48.0977 141.102 48.0505 140.848 47.9561C140.594 47.8617 140.377 47.7184 140.198 47.5264C140.019 47.3311 139.882 47.0853 139.788 46.7891C139.694 46.4928 139.646 46.1429 139.646 45.7393V45.1436C139.646 44.6781 139.7 44.2842 139.808 43.9619C139.918 43.6396 140.066 43.3809 140.252 43.1855C140.438 42.987 140.647 42.8437 140.882 42.7559C141.116 42.6647 141.357 42.6191 141.604 42.6191C141.937 42.6191 142.22 42.6729 142.454 42.7803C142.688 42.8877 142.879 43.0472 143.025 43.2588C143.172 43.4704 143.279 43.7308 143.348 44.04C143.419 44.3493 143.455 44.7057 143.455 45.1094V45.6123H140.154V44.875H142.591V44.7529C142.578 44.4795 142.54 44.2386 142.479 44.0303C142.42 43.8219 142.322 43.6592 142.186 43.542C142.049 43.4215 141.855 43.3613 141.604 43.3613C141.445 43.3613 141.297 43.389 141.16 43.4443C141.027 43.4964 140.911 43.5892 140.813 43.7227C140.719 43.8529 140.644 44.0335 140.589 44.2646C140.537 44.4958 140.511 44.7887 140.511 45.1436V45.7393C140.511 46.0225 140.537 46.2666 140.589 46.4717C140.644 46.6735 140.724 46.8411 140.828 46.9746C140.936 47.1048 141.066 47.2025 141.219 47.2676C141.375 47.3294 141.552 47.3604 141.751 47.3604C142.041 47.3604 142.28 47.305 142.469 47.1943C142.658 47.0804 142.822 46.9355 142.962 46.7598L143.416 47.3018C143.322 47.4352 143.198 47.5638 143.045 47.6875C142.895 47.8079 142.71 47.9072 142.488 47.9854C142.27 48.0602 142.008 48.0977 141.702 48.0977Z" fill="url(#paint1_linear_363_3420)"/>
<path d="M201.473 39.8301V41.0654C201.473 41.5667 201.417 42.0078 201.307 42.3887C201.199 42.7663 201.041 43.082 200.833 43.3359C200.625 43.5898 200.374 43.7803 200.081 43.9072C199.788 44.0342 199.458 44.0977 199.09 44.0977C198.735 44.0977 198.411 44.0342 198.118 43.9072C197.825 43.7803 197.573 43.5898 197.361 43.3359C197.15 43.082 196.985 42.7663 196.868 42.3887C196.754 42.0078 196.697 41.5667 196.697 41.0654V39.8301C196.697 39.3288 196.754 38.8893 196.868 38.5117C196.982 38.1309 197.145 37.8135 197.356 37.5596C197.568 37.3057 197.82 37.1152 198.113 36.9883C198.406 36.8581 198.73 36.793 199.085 36.793C199.453 36.793 199.783 36.8581 200.076 36.9883C200.372 37.1152 200.623 37.3057 200.828 37.5596C201.036 37.8135 201.196 38.1309 201.307 38.5117C201.417 38.8893 201.473 39.3288 201.473 39.8301ZM200.584 41.0654V39.8203C200.584 39.4297 200.551 39.0944 200.486 38.8145C200.421 38.5312 200.325 38.3001 200.198 38.1211C200.071 37.9421 199.915 37.8102 199.729 37.7256C199.544 37.6377 199.329 37.5938 199.085 37.5938C198.854 37.5938 198.646 37.6377 198.46 37.7256C198.278 37.8102 198.121 37.9421 197.991 38.1211C197.861 38.3001 197.76 38.5312 197.688 38.8145C197.62 39.0944 197.586 39.4297 197.586 39.8203V41.0654C197.586 41.4593 197.62 41.7979 197.688 42.0811C197.76 42.361 197.861 42.5921 197.991 42.7744C198.125 42.9535 198.284 43.0869 198.47 43.1748C198.655 43.2594 198.862 43.3018 199.09 43.3018C199.334 43.3018 199.549 43.2594 199.734 43.1748C199.923 43.0869 200.079 42.9535 200.203 42.7744C200.33 42.5921 200.424 42.361 200.486 42.0811C200.551 41.7979 200.584 41.4593 200.584 41.0654ZM204.114 43.1846L205.247 38.7168H206.126L204.559 44H203.987L204.114 43.1846ZM203.201 38.7168L204.383 43.209L204.476 44H203.909L202.322 38.7168H203.201ZM208.846 44.0977C208.53 44.0977 208.245 44.0505 207.991 43.9561C207.737 43.8617 207.521 43.7184 207.342 43.5264C207.163 43.3311 207.026 43.0853 206.932 42.7891C206.837 42.4928 206.79 42.1429 206.79 41.7393V41.1436C206.79 40.6781 206.844 40.2842 206.951 39.9619C207.062 39.6396 207.21 39.3809 207.396 39.1855C207.581 38.987 207.791 38.8438 208.025 38.7559C208.26 38.6647 208.501 38.6191 208.748 38.6191C209.08 38.6191 209.363 38.6729 209.598 38.7803C209.832 38.8877 210.022 39.0472 210.169 39.2588C210.315 39.4704 210.423 39.7308 210.491 40.04C210.563 40.3493 210.599 40.7057 210.599 41.1094V41.6123H207.298V40.875H209.734V40.7529C209.721 40.4795 209.684 40.2386 209.622 40.0303C209.563 39.8219 209.466 39.6592 209.329 39.542C209.192 39.4215 208.999 39.3613 208.748 39.3613C208.589 39.3613 208.44 39.389 208.304 39.4443C208.17 39.4964 208.055 39.5892 207.957 39.7227C207.863 39.8529 207.788 40.0335 207.732 40.2646C207.68 40.4958 207.654 40.7887 207.654 41.1436V41.7393C207.654 42.0225 207.68 42.2666 207.732 42.4717C207.788 42.6735 207.868 42.8411 207.972 42.9746C208.079 43.1048 208.209 43.2025 208.362 43.2676C208.519 43.3294 208.696 43.3604 208.895 43.3604C209.184 43.3604 209.424 43.305 209.612 43.1943C209.801 43.0804 209.965 42.9355 210.105 42.7598L210.56 43.3018C210.465 43.4352 210.341 43.5638 210.188 43.6875C210.039 43.8079 209.853 43.9072 209.632 43.9854C209.414 44.0602 209.152 44.0977 208.846 44.0977ZM208.128 36.5049L208.714 37.335L209.295 36.5049H210.037V36.5537L208.968 37.8916H208.46L207.405 36.5537V36.5049H208.128ZM212.508 39.5469V44H211.644V38.7168H212.479L212.508 39.5469ZM213.821 38.6875L213.826 39.5273C213.755 39.5111 213.689 39.5013 213.631 39.498C213.576 39.4915 213.51 39.4883 213.436 39.4883C213.273 39.4883 213.13 39.5208 213.006 39.5859C212.885 39.651 212.781 39.7422 212.693 39.8594C212.605 39.9766 212.535 40.1165 212.483 40.2793C212.431 40.4388 212.396 40.6146 212.376 40.8066L212.151 40.9531C212.151 40.6341 212.176 40.3346 212.225 40.0547C212.277 39.7747 212.356 39.5273 212.464 39.3125C212.571 39.0944 212.708 38.9251 212.874 38.8047C213.043 38.681 213.245 38.6191 213.479 38.6191C213.532 38.6191 213.595 38.6273 213.67 38.6436C213.748 38.6566 213.799 38.6712 213.821 38.6875ZM212.171 36.5049L212.757 37.335L213.338 36.5049H214.08V36.5537L213.011 37.8916L212.503 37.8916L211.448 36.5537V36.5049H212.171ZM216.482 44.0977C216.167 44.0977 215.882 44.0505 215.628 43.9561C215.374 43.8617 215.158 43.7184 214.979 43.5264C214.799 43.3311 214.663 43.0853 214.568 42.7891C214.474 42.4928 214.427 42.1429 214.427 41.7393V41.1436C214.427 40.6781 214.48 40.2842 214.588 39.9619C214.699 39.6396 214.847 39.3809 215.032 39.1855C215.218 38.987 215.428 38.8437 215.662 38.7559C215.896 38.6647 216.137 38.6191 216.385 38.6191C216.717 38.6191 217 38.6729 217.234 38.7803C217.469 38.8877 217.659 39.0472 217.806 39.2588C217.952 39.4704 218.06 39.7308 218.128 40.04C218.2 40.3493 218.235 40.7057 218.235 41.1094V41.6123H214.935V40.875H217.371V40.7529C217.358 40.4795 217.321 40.2386 217.259 40.0303C217.2 39.8219 217.103 39.6592 216.966 39.542C216.829 39.4215 216.635 39.3613 216.385 39.3613C216.225 39.3613 216.077 39.389 215.94 39.4443C215.807 39.4964 215.691 39.5892 215.594 39.7227C215.499 39.8529 215.424 40.0335 215.369 40.2646C215.317 40.4958 215.291 40.7887 215.291 41.1436V41.7393C215.291 42.0225 215.317 42.2666 215.369 42.4717C215.424 42.6735 215.504 42.8411 215.608 42.9746C215.716 43.1048 215.846 43.2025 215.999 43.2676C216.155 43.3294 216.333 43.3604 216.531 43.3604C216.821 43.3604 217.06 43.305 217.249 43.1943C217.438 43.0804 217.602 42.9355 217.742 42.7598L218.196 43.3018C218.102 43.4352 217.978 43.5638 217.825 43.6875C217.675 43.8079 217.49 43.9072 217.269 43.9854C217.05 44.0602 216.788 44.0977 216.482 44.0977ZM220.145 39.8447V44H219.28V38.7168H220.096L220.145 39.8447ZM219.935 41.1582L219.583 41.1436C219.58 40.7822 219.62 40.4486 219.705 40.1426C219.793 39.8333 219.917 39.5648 220.076 39.3369C220.239 39.109 220.433 38.9333 220.657 38.8096C220.882 38.6826 221.131 38.6191 221.404 38.6191C221.619 38.6191 221.814 38.6549 221.99 38.7266C222.166 38.7949 222.316 38.9056 222.439 39.0586C222.563 39.2116 222.658 39.4102 222.723 39.6543C222.791 39.8952 222.825 40.1898 222.825 40.5381V44H221.961V40.5283C221.961 40.2516 221.93 40.0303 221.868 39.8643C221.81 39.695 221.718 39.5729 221.595 39.498C221.474 39.4199 221.321 39.3809 221.136 39.3809C220.966 39.3809 220.809 39.4281 220.662 39.5225C220.516 39.6169 220.387 39.7471 220.276 39.9131C220.169 40.0791 220.084 40.2695 220.022 40.4844C219.964 40.696 219.935 40.9206 219.935 41.1582ZM225.057 38.7168V44H224.192V38.7168H225.057ZM224.144 37.9453L225.091 36.5098H226.18L224.871 37.9453H224.144ZM231.36 43.0967V40.2305C231.36 40.0221 231.328 39.8545 231.263 39.7275C231.201 39.6006 231.106 39.5078 230.979 39.4492C230.856 39.3906 230.7 39.3613 230.511 39.3613C230.328 39.3613 230.171 39.3988 230.037 39.4736C229.907 39.5485 229.806 39.6478 229.734 39.7715C229.666 39.8952 229.632 40.0319 229.632 40.1816H228.768C228.768 39.9928 228.808 39.8057 228.89 39.6201C228.974 39.4346 229.095 39.2669 229.251 39.1172C229.407 38.9642 229.594 38.8437 229.812 38.7559C230.034 38.6647 230.281 38.6191 230.555 38.6191C230.88 38.6191 231.168 38.6729 231.419 38.7803C231.67 38.8844 231.867 39.0553 232.01 39.293C232.153 39.5306 232.225 39.8464 232.225 40.2402V42.8477C232.225 43.0234 232.238 43.2106 232.264 43.4092C232.293 43.6077 232.334 43.7786 232.386 43.9219V44H231.492C231.45 43.8958 231.417 43.7575 231.395 43.585C231.372 43.4092 231.36 43.2464 231.36 43.0967ZM231.497 40.7969L231.507 41.4316H230.906C230.701 41.4316 230.514 41.4544 230.345 41.5C230.179 41.5456 230.035 41.6123 229.915 41.7002C229.795 41.7848 229.702 41.8906 229.637 42.0176C229.575 42.1445 229.544 42.2894 229.544 42.4521C229.544 42.6637 229.573 42.833 229.632 42.96C229.69 43.0837 229.778 43.1732 229.896 43.2285C230.013 43.2839 230.161 43.3115 230.34 43.3115C230.558 43.3115 230.75 43.2611 230.916 43.1602C231.082 43.0592 231.211 42.9372 231.302 42.7939C231.396 42.6507 231.44 42.5173 231.434 42.3936L231.624 42.7988C231.611 42.9258 231.569 43.0641 231.497 43.2139C231.429 43.3604 231.333 43.502 231.209 43.6387C231.085 43.7721 230.939 43.8828 230.77 43.9707C230.604 44.0553 230.416 44.0977 230.208 44.0977C229.902 44.0977 229.633 44.0391 229.402 43.9219C229.174 43.8047 228.997 43.6322 228.87 43.4043C228.743 43.1764 228.68 42.8949 228.68 42.5596C228.68 42.3057 228.724 42.0713 228.812 41.8564C228.899 41.6416 229.03 41.4561 229.202 41.2998C229.375 41.1403 229.591 41.0166 229.852 40.9287C230.115 40.8408 230.42 40.7969 230.765 40.7969H231.497ZM203.66 50.7324V57.0312H202.796V49.7168H203.582L203.66 50.7324ZM206.614 52.1191V52.6123C206.614 53.029 206.575 53.3936 206.497 53.7061C206.422 54.0153 206.31 54.2741 206.16 54.4824C206.014 54.6875 205.833 54.8421 205.618 54.9463C205.403 55.0472 205.158 55.0977 204.881 55.0977C204.604 55.0977 204.363 55.0456 204.158 54.9414C203.956 54.834 203.785 54.6794 203.646 54.4775C203.509 54.2757 203.4 54.0332 203.318 53.75C203.24 53.4635 203.187 53.1429 203.157 52.7881V52.0361C203.187 51.6618 203.24 51.3265 203.318 51.0303C203.396 50.7308 203.504 50.4769 203.641 50.2686C203.781 50.057 203.951 49.8958 204.153 49.7852C204.358 49.6745 204.598 49.6191 204.871 49.6191C205.154 49.6191 205.403 49.668 205.618 49.7656C205.836 49.8633 206.019 50.0146 206.165 50.2197C206.315 50.4215 206.427 50.6803 206.502 50.9961C206.577 51.3086 206.614 51.6829 206.614 52.1191ZM205.75 52.6123V52.1191C205.75 51.8262 205.727 51.5706 205.682 51.3525C205.639 51.1344 205.571 50.9538 205.477 50.8105C205.382 50.6673 205.263 50.5599 205.12 50.4883C204.977 50.4167 204.804 50.3809 204.603 50.3809C204.43 50.3809 204.277 50.4167 204.144 50.4883C204.013 50.5599 203.901 50.6576 203.807 50.7812C203.712 50.9017 203.634 51.04 203.572 51.1963C203.51 51.3493 203.465 51.5088 203.436 51.6748V53.1543C203.491 53.3626 203.564 53.5596 203.655 53.7451C203.746 53.9274 203.868 54.0755 204.021 54.1895C204.178 54.3034 204.375 54.3604 204.612 54.3604C204.811 54.3604 204.982 54.3245 205.125 54.2529C205.268 54.1813 205.385 54.0739 205.477 53.9307C205.571 53.7842 205.639 53.6019 205.682 53.3838C205.727 53.1624 205.75 52.9053 205.75 52.6123ZM208.655 47.5V55H207.796V47.5H208.655ZM212.61 54.0967V51.2305C212.61 51.0221 212.578 50.8545 212.513 50.7275C212.451 50.6006 212.356 50.5078 212.229 50.4492C212.106 50.3906 211.95 50.3613 211.761 50.3613C211.578 50.3613 211.421 50.3988 211.287 50.4736C211.157 50.5485 211.056 50.6478 210.984 50.7715C210.916 50.8952 210.882 51.0319 210.882 51.1816H210.018C210.018 50.9928 210.058 50.8057 210.14 50.6201C210.224 50.4346 210.345 50.2669 210.501 50.1172C210.657 49.9642 210.844 49.8438 211.062 49.7559C211.284 49.6647 211.531 49.6191 211.805 49.6191C212.13 49.6191 212.418 49.6729 212.669 49.7803C212.92 49.8844 213.117 50.0553 213.26 50.293C213.403 50.5306 213.475 50.8464 213.475 51.2402V53.8477C213.475 54.0234 213.488 54.2106 213.514 54.4092C213.543 54.6077 213.584 54.7786 213.636 54.9219V55H212.742C212.7 54.8958 212.667 54.7575 212.645 54.585C212.622 54.4092 212.61 54.2464 212.61 54.0967ZM212.747 51.7969L212.757 52.4316H212.156C211.951 52.4316 211.764 52.4544 211.595 52.5C211.429 52.5456 211.285 52.6123 211.165 52.7002C211.045 52.7848 210.952 52.8906 210.887 53.0176C210.825 53.1445 210.794 53.2894 210.794 53.4521C210.794 53.6637 210.823 53.833 210.882 53.96C210.94 54.0837 211.028 54.1732 211.146 54.2285C211.263 54.2839 211.411 54.3115 211.59 54.3115C211.808 54.3115 212 54.2611 212.166 54.1602C212.332 54.0592 212.461 53.9372 212.552 53.7939C212.646 53.6507 212.69 53.5173 212.684 53.3936L212.874 53.7988C212.861 53.9258 212.819 54.0641 212.747 54.2139C212.679 54.3604 212.583 54.502 212.459 54.6387C212.335 54.7721 212.189 54.8828 212.02 54.9707C211.854 55.0553 211.666 55.0977 211.458 55.0977C211.152 55.0977 210.883 55.0391 210.652 54.9219C210.424 54.8047 210.247 54.6322 210.12 54.4043C209.993 54.1764 209.93 53.8949 209.93 53.5596C209.93 53.3057 209.974 53.0713 210.062 52.8564C210.149 52.6416 210.28 52.4561 210.452 52.2998C210.625 52.1403 210.841 52.0166 211.102 51.9287C211.365 51.8408 211.67 51.7969 212.015 51.7969H212.747ZM216.746 49.7168V50.4102H214.28V49.7168H216.746ZM215.086 48.4326H215.95V53.6914C215.95 53.8704 215.971 54.0055 216.014 54.0967C216.059 54.1878 216.116 54.248 216.185 54.2773C216.253 54.3066 216.326 54.3213 216.404 54.3213C216.463 54.3213 216.528 54.3148 216.6 54.3018C216.671 54.2855 216.72 54.2725 216.746 54.2627L216.741 55C216.683 55.0228 216.604 55.0439 216.507 55.0635C216.409 55.0863 216.285 55.0977 216.136 55.0977C215.95 55.0977 215.778 55.0537 215.618 54.9658C215.459 54.8779 215.33 54.7314 215.232 54.5264C215.135 54.318 215.086 54.0381 215.086 53.6865V48.4326ZM217.776 47.5H218.641V53.9746L218.567 55H217.776V47.5ZM221.604 52.1191V52.6123C221.604 53.029 221.565 53.3936 221.487 53.7061C221.412 54.0153 221.3 54.2741 221.15 54.4824C221.001 54.6875 220.818 54.8421 220.604 54.9463C220.389 55.0472 220.143 55.0977 219.866 55.0977C219.593 55.0977 219.357 55.0423 219.158 54.9316C218.96 54.821 218.794 54.6615 218.66 54.4531C218.527 54.2448 218.421 53.9925 218.343 53.6963C218.268 53.4001 218.216 53.0664 218.187 52.6953V52.0361C218.216 51.6618 218.268 51.3265 218.343 51.0303C218.418 50.7308 218.522 50.4769 218.655 50.2686C218.789 50.057 218.955 49.8958 219.153 49.7852C219.352 49.6745 219.588 49.6191 219.861 49.6191C220.141 49.6191 220.389 49.668 220.604 49.7656C220.822 49.8633 221.004 50.0146 221.15 50.2197C221.3 50.4215 221.412 50.6803 221.487 50.9961C221.565 51.3086 221.604 51.6829 221.604 52.1191ZM220.74 52.6123V52.1191C220.74 51.8262 220.721 51.5706 220.682 51.3525C220.646 51.1344 220.586 50.9538 220.501 50.8105C220.416 50.6673 220.302 50.5599 220.159 50.4883C220.019 50.4167 219.845 50.3809 219.637 50.3809C219.461 50.3809 219.306 50.4167 219.173 50.4883C219.043 50.5599 218.93 50.6576 218.836 50.7812C218.742 50.9017 218.663 51.04 218.602 51.1963C218.54 51.3493 218.494 51.5088 218.465 51.6748V53.0615C218.507 53.2731 218.574 53.4766 218.665 53.6719C218.759 53.8639 218.886 54.0218 219.046 54.1455C219.205 54.2692 219.404 54.3311 219.642 54.3311C219.84 54.3311 220.008 54.2969 220.145 54.2285C220.285 54.1602 220.398 54.056 220.486 53.916C220.574 53.7728 220.638 53.5938 220.677 53.3789C220.719 53.1608 220.74 52.9053 220.74 52.6123ZM225.296 54.0967V51.2305C225.296 51.0221 225.263 50.8545 225.198 50.7275C225.136 50.6006 225.042 50.5078 224.915 50.4492C224.791 50.3906 224.635 50.3613 224.446 50.3613C224.264 50.3613 224.106 50.3988 223.973 50.4736C223.842 50.5485 223.742 50.6478 223.67 50.7715C223.602 50.8952 223.567 51.0319 223.567 51.1816L222.703 51.1816C222.703 50.9928 222.744 50.8057 222.825 50.6201C222.91 50.4346 223.03 50.2669 223.187 50.1172C223.343 49.9642 223.53 49.8437 223.748 49.7559C223.969 49.6647 224.217 49.6191 224.49 49.6191C224.816 49.6191 225.104 49.6729 225.354 49.7803C225.605 49.8844 225.802 50.0553 225.945 50.293C226.089 50.5306 226.16 50.8464 226.16 51.2402V53.8477C226.16 54.0234 226.173 54.2106 226.199 54.4092C226.229 54.6077 226.269 54.7786 226.321 54.9219V55H225.428C225.385 54.8958 225.353 54.7575 225.33 54.585C225.307 54.4092 225.296 54.2464 225.296 54.0967ZM225.433 51.7969L225.442 52.4316H224.842C224.637 52.4316 224.45 52.4544 224.28 52.5C224.114 52.5456 223.971 52.6123 223.851 52.7002C223.73 52.7848 223.637 52.8906 223.572 53.0176C223.51 53.1445 223.479 53.2894 223.479 53.4521C223.479 53.6637 223.509 53.833 223.567 53.96C223.626 54.0837 223.714 54.1732 223.831 54.2285C223.948 54.2839 224.096 54.3115 224.275 54.3115C224.493 54.3115 224.686 54.2611 224.852 54.1602C225.018 54.0592 225.146 53.9372 225.237 53.7939C225.332 53.6507 225.376 53.5173 225.369 53.3936L225.56 53.7988C225.547 53.9258 225.504 54.0641 225.433 54.2139C225.364 54.3604 225.268 54.502 225.145 54.6387C225.021 54.7721 224.874 54.8828 224.705 54.9707C224.539 55.0553 224.352 55.0977 224.144 55.0977C223.838 55.0977 223.569 55.0391 223.338 54.9219C223.11 54.8047 222.933 54.6322 222.806 54.4043C222.679 54.1764 222.615 53.8949 222.615 53.5596C222.615 53.3057 222.659 53.0713 222.747 52.8564C222.835 52.6416 222.965 52.4561 223.138 52.2998C223.31 52.1403 223.527 52.0166 223.787 51.9287C224.051 51.8408 224.355 51.7969 224.7 51.7969H225.433Z" fill="url(#paint2_linear_363_3420)"/>
<path fill-rule="evenodd" clip-rule="evenodd" d="M204 16L137 16V14L204 14V16Z" fill="url(#paint3_linear_363_3420)"/>
<path fill-rule="evenodd" clip-rule="evenodd" d="M111 16L44 16V14L111 14V16Z" fill="url(#paint4_linear_363_3420)"/>
<path fill-rule="evenodd" clip-rule="evenodd" d="M18.7612 6.17317C18 8.01088 18 10.3406 18 15C18 19.6594 18 21.9891 18.7612 23.8268C19.7761 26.2771 21.7229 28.2239 24.1732 29.2388C26.0109 30 28.3406 30 33 30C37.6594 30 39.9891 30 41.8268 29.2388C44.2771 28.2239 46.2239 26.2771 47.2388 23.8268C48 21.9891 48 19.6594 48 15C48 10.3406 48 8.01088 47.2388 6.17317C46.2239 3.72288 44.2771 1.77614 41.8268 0.761205C39.9891 0 37.6594 0 33 0C28.3406 0 26.0109 0 24.1732 0.761205C21.7229 1.77614 19.7761 3.72288 18.7612 6.17317ZM39.7071 11.7071C40.0976 11.3166 40.0976 10.6834 39.7071 10.2929C39.3166 9.90237 38.6834 9.90237 38.2929 10.2929L31 17.5858L27.7071 14.2929C27.3166 13.9024 26.6834 13.9024 26.2929 14.2929C25.9024 14.6834 25.9024 15.3166 26.2929 15.7071L30.2929 19.7071C30.4804 19.8946 30.7348 20 31 20C31.2652 20 31.5196 19.8946 31.7071 19.7071L39.7071 11.7071Z" fill="url(#paint5_linear_363_3420)"/>
<path fill-rule="evenodd" clip-rule="evenodd" d="M109.761 6.17317C109 8.01088 109 10.3406 109 15C109 19.6594 109 21.9891 109.761 23.8268C110.776 26.2771 112.723 28.2239 115.173 29.2388C117.011 30 119.341 30 124 30C128.659 30 130.989 30 132.827 29.2388C135.277 28.2239 137.224 26.2771 138.239 23.8268C139 21.9891 139 19.6594 139 15C139 10.3406 139 8.01088 138.239 6.17317C137.224 3.72288 135.277 1.77614 132.827 0.761205C130.989 0 128.659 0 124 0C119.341 0 117.011 0 115.173 0.761205C112.723 1.77614 110.776 3.72288 109.761 6.17317ZM130.707 11.7071C131.098 11.3166 131.098 10.6834 130.707 10.2929C130.317 9.90237 129.683 9.90237 129.293 10.2929L122 17.5858L118.707 14.2929C118.317 13.9024 117.683 13.9024 117.293 14.2929C116.902 14.6834 116.902 15.3166 117.293 15.7071L121.293 19.7071C121.48 19.8946 121.735 20 122 20C122.265 20 122.52 19.8946 122.707 19.7071L130.707 11.7071Z" fill="url(#paint6_linear_363_3420)"/>
<path fill-rule="evenodd" clip-rule="evenodd" d="M200.761 6.17317C200 8.01088 200 10.3406 200 15C200 19.6594 200 21.9891 200.761 23.8268C201.776 26.2771 203.723 28.2239 206.173 29.2388C208.011 30 210.341 30 215 30C219.659 30 221.989 30 223.827 29.2388C226.277 28.2239 228.224 26.2771 229.239 23.8268C230 21.9891 230 19.6594 230 15C230 10.3406 230 8.01088 229.239 6.17317C228.224 3.72288 226.277 1.77614 223.827 0.761205C221.989 0 219.659 0 215 0C210.341 0 208.011 0 206.173 0.761205C203.723 1.77614 201.776 3.72288 200.761 6.17317ZM221.707 11.7071C222.098 11.3166 222.098 10.6834 221.707 10.2929C221.317 9.90237 220.683 9.90237 220.293 10.2929L213 17.5858L209.707 14.2929C209.317 13.9024 208.683 13.9024 208.293 14.2929C207.902 14.6834 207.902 15.3166 208.293 15.7071L212.293 19.7071C212.48 19.8946 212.735 20 213 20C213.265 20 213.52 19.8946 213.707 19.7071L221.707 11.7071Z" fill="url(#paint7_linear_363_3420)"/>
<defs>
<linearGradient id="paint0_linear_363_3420" x1="33" y1="46" x2="33" y2="35" gradientUnits="userSpaceOnUse">
<stop stop-color="#5CCC94"/>
<stop offset="1" stop-color="#8CCAAE"/>
</linearGradient>
<linearGradient id="paint1_linear_363_3420" x1="124.5" y1="55" x2="124.5" y2="35" gradientUnits="userSpaceOnUse">
<stop stop-color="#5CCC94"/>
<stop offset="1" stop-color="#8CCAAE"/>
</linearGradient>
<linearGradient id="paint2_linear_363_3420" x1="214.5" y1="68" x2="214.5" y2="35" gradientUnits="userSpaceOnUse">
<stop stop-color="#5CCC94"/>
<stop offset="1" stop-color="#8CCAAE"/>
</linearGradient>
<linearGradient id="paint3_linear_363_3420" x1="170.5" y1="16" x2="170.5" y2="14" gradientUnits="userSpaceOnUse">
<stop stop-color="#5CCC94"/>
<stop offset="1" stop-color="#8CCAAE"/>
</linearGradient>
<linearGradient id="paint4_linear_363_3420" x1="77.5" y1="16" x2="77.5" y2="14" gradientUnits="userSpaceOnUse">
<stop stop-color="#5CCC94"/>
<stop offset="1" stop-color="#8CCAAE"/>
</linearGradient>
<linearGradient id="paint5_linear_363_3420" x1="33" y1="30" x2="33" y2="1.58545e-07" gradientUnits="userSpaceOnUse">
<stop stop-color="#5CCC94"/>
<stop offset="1" stop-color="#8CCAAE"/>
</linearGradient>
<linearGradient id="paint6_linear_363_3420" x1="124" y1="30" x2="124" y2="1.58545e-07" gradientUnits="userSpaceOnUse">
<stop stop-color="#5CCC94"/>
<stop offset="1" stop-color="#8CCAAE"/>
</linearGradient>
<linearGradient id="paint7_linear_363_3420" x1="215" y1="30" x2="215" y2="1.58545e-07" gradientUnits="userSpaceOnUse">
<stop stop-color="#5CCC94"/>
<stop offset="1" stop-color="#8CCAAE"/>
</linearGradient>
</defs>
</svg>
