<svg width="312" height="57" viewBox="0 0 312 57" fill="none" xmlns="http://www.w3.org/2000/svg">
<path d="M12.0742 35.8906L12.0742 43H11.1855L11.1855 35.8906H12.0742ZM13.9443 35.8906V36.6621H9.32031V35.8906H13.9443ZM15.751 42.4531L16.9277 37.7168H17.8457L16.1025 43.8154C16.0602 43.9456 16.0033 44.0856 15.9316 44.2354C15.8633 44.3883 15.7754 44.5332 15.668 44.6699C15.5605 44.8066 15.432 44.9173 15.2822 45.002C15.1325 45.0898 14.9567 45.1338 14.7549 45.1338C14.693 45.1338 14.6133 45.124 14.5156 45.1045C14.4212 45.085 14.3529 45.0687 14.3105 45.0557V44.3232C14.3301 44.3265 14.361 44.3298 14.4033 44.333C14.4456 44.3395 14.4766 44.3428 14.4961 44.3428C14.6654 44.3428 14.8086 44.3151 14.9258 44.2598C15.0462 44.2077 15.1488 44.1182 15.2334 43.9912C15.318 43.8675 15.3896 43.6966 15.4482 43.4785L15.751 42.4531ZM14.9893 37.7168L16.0391 41.8184L16.2637 42.7705L15.6484 43.1025L14.0469 37.7168H14.9893ZM19.5596 38.7324V45.0312H18.6953V37.7168H19.4814L19.5596 38.7324ZM22.5137 40.1191V40.6123C22.5137 41.029 22.4746 41.3936 22.3965 41.7061C22.3216 42.0153 22.2093 42.2741 22.0596 42.4824C21.9131 42.6875 21.7324 42.8421 21.5176 42.9463C21.3027 43.0472 21.057 43.0977 20.7803 43.0977C20.5036 43.0977 20.2627 43.0456 20.0576 42.9414C19.8558 42.834 19.6849 42.6794 19.5449 42.4775C19.4082 42.2757 19.2992 42.0332 19.2178 41.75C19.1396 41.4635 19.0859 41.1429 19.0566 40.7881V40.0361C19.0859 39.6618 19.1396 39.3265 19.2178 39.0303C19.2959 38.7308 19.4033 38.4769 19.54 38.2686C19.68 38.057 19.8509 37.8958 20.0527 37.7852C20.2578 37.6745 20.4971 37.6191 20.7705 37.6191C21.0537 37.6191 21.3027 37.668 21.5176 37.7656C21.7357 37.8633 21.918 38.0146 22.0645 38.2197C22.2142 38.4215 22.3265 38.6803 22.4014 38.9961C22.4762 39.3086 22.5137 39.6829 22.5137 40.1191ZM21.6494 40.6123V40.1191C21.6494 39.8262 21.6266 39.5706 21.5811 39.3525C21.5387 39.1344 21.4704 38.9538 21.376 38.8105C21.2816 38.6673 21.1628 38.5599 21.0195 38.4883C20.8763 38.4167 20.7038 38.3809 20.502 38.3809C20.3294 38.3809 20.1764 38.4167 20.043 38.4883C19.9128 38.5599 19.8005 38.6576 19.7061 38.7812C19.6117 38.9017 19.5335 39.04 19.4717 39.1963C19.4098 39.3493 19.3643 39.5088 19.335 39.6748V41.1543C19.3903 41.3626 19.4635 41.5596 19.5547 41.7451C19.6458 41.9274 19.7679 42.0755 19.9209 42.1895C20.0771 42.3034 20.2741 42.3604 20.5117 42.3604C20.7103 42.3604 20.8812 42.3245 21.0244 42.2529C21.1676 42.1813 21.2848 42.0739 21.376 41.9307C21.4704 41.7842 21.5387 41.6019 21.5811 41.3838C21.6266 41.1624 21.6494 40.9053 21.6494 40.6123ZM2.39648 49.8447L2.39648 54H1.53223L1.53223 48.7168H2.34766L2.39648 49.8447ZM2.18652 51.1582L1.83496 51.1436C1.83171 50.7822 1.8724 50.4486 1.95703 50.1426C2.04492 49.8333 2.16862 49.5648 2.32813 49.3369C2.49089 49.109 2.68457 48.9333 2.90918 48.8096C3.13379 48.6826 3.38281 48.6191 3.65625 48.6191C3.87109 48.6191 4.06641 48.6549 4.24219 48.7266C4.41797 48.7949 4.56771 48.9056 4.69141 49.0586C4.8151 49.2116 4.90951 49.4102 4.97461 49.6543C5.04297 49.8952 5.07715 50.1898 5.07715 50.5381L5.07715 54H4.21289L4.21289 50.5283C4.21289 50.2516 4.18197 50.0303 4.12012 49.8643C4.06152 49.695 3.97038 49.5729 3.84668 49.498C3.72624 49.4199 3.57324 49.3809 3.3877 49.3809C3.21842 49.3809 3.06055 49.4281 2.91406 49.5225C2.76758 49.6169 2.639 49.7471 2.52832 49.9131C2.4209 50.0791 2.33626 50.2695 2.27441 50.4844C2.21582 50.696 2.18652 50.9206 2.18652 51.1582ZM8.96387 53.0967L8.96387 50.2305C8.96387 50.0221 8.93132 49.8545 8.86621 49.7275C8.80436 49.6006 8.70996 49.5078 8.58301 49.4492C8.45931 49.3906 8.30306 49.3613 8.11426 49.3613C7.93197 49.3613 7.77409 49.3988 7.64063 49.4736C7.51042 49.5485 7.40951 49.6478 7.33789 49.7715C7.26953 49.8952 7.23535 50.0319 7.23535 50.1816H6.37109C6.37109 49.9928 6.41178 49.8057 6.49316 49.6201C6.5778 49.4346 6.69824 49.2669 6.85449 49.1172C7.01074 48.9642 7.19792 48.8438 7.41602 48.7559C7.63737 48.6647 7.88477 48.6191 8.1582 48.6191C8.48372 48.6191 8.77181 48.6729 9.02246 48.7803C9.27311 48.8844 9.47005 49.0553 9.61328 49.293C9.75651 49.5306 9.82813 49.8464 9.82813 50.2402L9.82813 52.8477C9.82813 53.0234 9.84115 53.2106 9.86719 53.4092C9.89648 53.6077 9.93717 53.7786 9.98926 53.9219V54H9.0957C9.05339 53.8958 9.02083 53.7575 8.99805 53.585C8.97526 53.4092 8.96387 53.2464 8.96387 53.0967ZM9.10059 50.7969L9.11035 51.4316H8.50977C8.30469 51.4316 8.11751 51.4544 7.94824 51.5C7.78223 51.5456 7.639 51.6123 7.51855 51.7002C7.39811 51.7848 7.30534 51.8906 7.24023 52.0176C7.17839 52.1445 7.14746 52.2894 7.14746 52.4521C7.14746 52.6637 7.17676 52.833 7.23535 52.96C7.29395 53.0837 7.38184 53.1732 7.49902 53.2285C7.61621 53.2839 7.76432 53.3115 7.94336 53.3115C8.16146 53.3115 8.35352 53.2611 8.51953 53.1602C8.68555 53.0592 8.81413 52.9372 8.90527 52.7939C8.99967 52.6507 9.04362 52.5173 9.03711 52.3936L9.22754 52.7988C9.21452 52.9258 9.1722 53.0641 9.10059 53.2139C9.03223 53.3604 8.9362 53.502 8.8125 53.6387C8.6888 53.7721 8.54232 53.8828 8.37305 53.9707C8.20703 54.0553 8.01986 54.0977 7.81152 54.0977C7.50553 54.0977 7.23698 54.0391 7.00586 53.9219C6.77799 53.8047 6.60059 53.6322 6.47363 53.4043C6.34668 53.1764 6.2832 52.8949 6.2832 52.5596C6.2832 52.3057 6.32715 52.0713 6.41504 51.8564C6.50293 51.6416 6.63314 51.4561 6.80566 51.2998C6.97819 51.1403 7.19466 51.0166 7.45508 50.9287C7.71875 50.8408 8.02311 50.7969 8.36816 50.7969H9.10059ZM7.71387 47.9355L8.66113 46.5H9.75L8.44141 47.9355H7.71387ZM12.0986 46.5L12.0986 54H11.2393L11.2393 46.5H12.0986ZM15.3555 54.0977C15.0397 54.0977 14.7549 54.0505 14.501 53.9561C14.2471 53.8617 14.0306 53.7184 13.8516 53.5264C13.6725 53.3311 13.5358 53.0853 13.4414 52.7891C13.347 52.4928 13.2998 52.1429 13.2998 51.7393V51.1436C13.2998 50.6781 13.3535 50.2842 13.4609 49.9619C13.5716 49.6396 13.7197 49.3809 13.9053 49.1855C14.0908 48.987 14.3008 48.8438 14.5352 48.7559C14.7695 48.6647 15.0104 48.6191 15.2578 48.6191C15.5898 48.6191 15.873 48.6729 16.1074 48.7803C16.3418 48.8877 16.5322 49.0472 16.6787 49.2588C16.8252 49.4704 16.9326 49.7308 17.001 50.04C17.0726 50.3493 17.1084 50.7057 17.1084 51.1094V51.6123H13.8076V50.875H16.2441V50.7529C16.2311 50.4795 16.1937 50.2386 16.1318 50.0303C16.0732 49.8219 15.9756 49.6592 15.8389 49.542C15.7021 49.4215 15.5085 49.3613 15.2578 49.3613C15.0983 49.3613 14.9502 49.389 14.8135 49.4443C14.68 49.4964 14.5645 49.5892 14.4668 49.7227C14.3724 49.8529 14.2975 50.0335 14.2422 50.2646C14.1901 50.4958 14.1641 50.7887 14.1641 51.1436V51.7393C14.1641 52.0225 14.1901 52.2666 14.2422 52.4717C14.2975 52.6735 14.3773 52.8411 14.4814 52.9746C14.5889 53.1048 14.7191 53.2025 14.8721 53.2676C15.0283 53.3294 15.2057 53.3604 15.4043 53.3604C15.694 53.3604 15.9333 53.305 16.1221 53.1943C16.3109 53.0804 16.4753 52.9355 16.6152 52.7598L17.0693 53.3018C16.9749 53.4352 16.8512 53.5638 16.6982 53.6875C16.5485 53.8079 16.363 53.9072 16.1416 53.9854C15.9235 54.0602 15.6615 54.0977 15.3555 54.0977ZM19.0176 49.7324V56.0312H18.1533V48.7168H18.9395L19.0176 49.7324ZM21.9717 51.1191V51.6123C21.9717 52.029 21.9326 52.3936 21.8545 52.7061C21.7796 53.0153 21.6673 53.2741 21.5176 53.4824C21.3711 53.6875 21.1904 53.8421 20.9756 53.9463C20.7607 54.0472 20.515 54.0977 20.2383 54.0977C19.9616 54.0977 19.7207 54.0456 19.5156 53.9414C19.3138 53.834 19.1429 53.6794 19.0029 53.4775C18.8662 53.2757 18.7572 53.0332 18.6758 52.75C18.5977 52.4635 18.5439 52.1429 18.5146 51.7881V51.0361C18.5439 50.6618 18.5977 50.3265 18.6758 50.0303C18.7539 49.7308 18.8613 49.4769 18.998 49.2686C19.138 49.057 19.3089 48.8958 19.5107 48.7852C19.7158 48.6745 19.9551 48.6191 20.2285 48.6191C20.5117 48.6191 20.7607 48.668 20.9756 48.7656C21.1937 48.8633 21.376 49.0146 21.5225 49.2197C21.6722 49.4215 21.7845 49.6803 21.8594 49.9961C21.9342 50.3086 21.9717 50.6829 21.9717 51.1191ZM21.1074 51.6123V51.1191C21.1074 50.8262 21.0846 50.5706 21.0391 50.3525C20.9967 50.1344 20.9284 49.9538 20.834 49.8105C20.7396 49.6673 20.6208 49.5599 20.4775 49.4883C20.3343 49.4167 20.1618 49.3809 19.96 49.3809C19.7874 49.3809 19.6344 49.4167 19.501 49.4883C19.3708 49.5599 19.2585 49.6576 19.1641 49.7812C19.0697 49.9017 18.9915 50.04 18.9297 50.1963C18.8678 50.3493 18.8223 50.5088 18.793 50.6748V52.1543C18.8483 52.3626 18.9215 52.5596 19.0127 52.7451C19.1038 52.9274 19.2259 53.0755 19.3789 53.1895C19.5352 53.3034 19.7321 53.3604 19.9697 53.3604C20.1683 53.3604 20.3392 53.3245 20.4824 53.2529C20.6257 53.1813 20.7428 53.0739 20.834 52.9307C20.9284 52.7842 20.9967 52.6019 21.0391 52.3838C21.0846 52.1624 21.1074 51.9053 21.1074 51.6123ZM23.9541 46.5V54H23.0898V46.5H23.9541ZM26.6348 48.7168L24.7549 51.1826L23.5928 52.5205L23.5342 51.5586L24.335 50.4551L25.5947 48.7168H26.6348ZM25.8438 54L24.3594 51.4805L24.8037 50.6748L26.8496 54H25.8438ZM28.8223 53.4531L29.999 48.7168H30.917L29.1738 54.8154C29.1315 54.9456 29.0745 55.0856 29.0029 55.2354C28.9346 55.3883 28.8467 55.5332 28.7393 55.6699C28.6318 55.8066 28.5033 55.9173 28.3535 56.002C28.2038 56.0898 28.028 56.1338 27.8262 56.1338C27.7643 56.1338 27.6846 56.124 27.5869 56.1045C27.4925 56.085 27.4242 56.0687 27.3818 56.0557V55.3232C27.4014 55.3265 27.4323 55.3298 27.4746 55.333C27.5169 55.3395 27.5479 55.3428 27.5674 55.3428C27.7367 55.3428 27.8799 55.3151 27.9971 55.2598C28.1175 55.2077 28.2201 55.1182 28.3047 54.9912C28.3893 54.8675 28.4609 54.6966 28.5195 54.4785L28.8223 53.4531ZM28.0605 48.7168L29.1104 52.8184L29.335 53.7705L28.7197 54.1025L27.1182 48.7168L28.0605 48.7168Z" fill="url(#paint0_linear_1406_1549)"/>
<path d="M78.9893 47.2334V48H75.9033V47.2334H78.9893ZM76.0645 40.8906V48H75.166V40.8906H76.0645ZM78.5742 43.9473V44.7139H75.9033V43.9473H78.5742ZM78.9404 40.8906V41.6621H75.9033V40.8906H78.9404ZM81.2598 47.1846L82.3926 42.7168H83.2715L81.7041 48H81.1328L81.2598 47.1846ZM80.3467 42.7168L81.5283 47.209L81.6211 48H81.0547L79.4678 42.7168H80.3467ZM85.0977 42.7168V48H84.2383V42.7168H85.0977ZM84.1895 41.3154C84.1895 41.1689 84.2301 41.0452 84.3115 40.9443C84.3929 40.8434 84.515 40.793 84.6777 40.793C84.8405 40.793 84.9626 40.8434 85.0439 40.9443C85.1286 41.0452 85.1709 41.1689 85.1709 41.3154C85.1709 41.4554 85.1286 41.5758 85.0439 41.6768C84.9626 41.7744 84.8405 41.8232 84.6777 41.8232C84.515 41.8232 84.3929 41.7744 84.3115 41.6768C84.2301 41.5758 84.1895 41.4554 84.1895 41.3154ZM89.2334 46.9746V40.5H90.0928V48H89.3066L89.2334 46.9746ZM86.2793 45.6123V45.1191C86.2793 44.6829 86.3216 44.3086 86.4062 43.9961C86.4909 43.6803 86.6113 43.4215 86.7676 43.2197C86.9238 43.0146 87.111 42.8633 87.3291 42.7656C87.5472 42.668 87.7881 42.6191 88.0518 42.6191C88.3252 42.6191 88.5596 42.6745 88.7549 42.7852C88.9535 42.8958 89.1195 43.057 89.2529 43.2686C89.3864 43.4769 89.4906 43.7308 89.5654 44.0303C89.6436 44.3265 89.6956 44.6618 89.7217 45.0361V45.6953C89.6924 46.0664 89.6387 46.4001 89.5605 46.6963C89.4857 46.9925 89.3815 47.2448 89.248 47.4531C89.1146 47.6615 88.9486 47.821 88.75 47.9316C88.5514 48.0423 88.3154 48.0977 88.042 48.0977C87.7816 48.0977 87.5439 48.0472 87.3291 47.9463C87.1143 47.8421 86.9271 47.6875 86.7676 47.4824C86.6113 47.2741 86.4909 47.0153 86.4062 46.7061C86.3216 46.3936 86.2793 46.029 86.2793 45.6123ZM87.1436 45.1191V45.6123C87.1436 45.9053 87.1647 46.1608 87.207 46.3789C87.2493 46.5938 87.3161 46.7728 87.4072 46.916C87.4984 47.056 87.6139 47.1602 87.7539 47.2285C87.8971 47.2969 88.068 47.3311 88.2666 47.3311C88.5075 47.3311 88.7044 47.2725 88.8574 47.1553C89.0104 47.0381 89.1325 46.8835 89.2236 46.6914C89.318 46.4961 89.3929 46.2861 89.4482 46.0615V44.6748C89.4157 44.5088 89.3685 44.3493 89.3066 44.1963C89.2448 44.04 89.1667 43.9017 89.0723 43.7812C88.9811 43.6576 88.8688 43.5599 88.7354 43.4883C88.6051 43.4167 88.4521 43.3809 88.2764 43.3809C88.0778 43.3809 87.9053 43.4167 87.7588 43.4883C87.6156 43.5599 87.4984 43.6673 87.4072 43.8105C87.3193 43.9538 87.2526 44.1344 87.207 44.3525C87.1647 44.5706 87.1436 44.8262 87.1436 45.1191ZM93.3154 48.0977C92.9997 48.0977 92.7148 48.0505 92.4609 47.9561C92.207 47.8617 91.9906 47.7184 91.8115 47.5264C91.6325 47.3311 91.4958 47.0853 91.4014 46.7891C91.307 46.4928 91.2598 46.1429 91.2598 45.7393V45.1436C91.2598 44.6781 91.3135 44.2842 91.4209 43.9619C91.5316 43.6396 91.6797 43.3809 91.8652 43.1855C92.0508 42.987 92.2607 42.8438 92.4951 42.7559C92.7295 42.6647 92.9704 42.6191 93.2178 42.6191C93.5498 42.6191 93.833 42.6729 94.0674 42.7803C94.3018 42.8877 94.4922 43.0472 94.6387 43.2588C94.7852 43.4704 94.8926 43.7308 94.9609 44.04C95.0326 44.3493 95.0684 44.7057 95.0684 45.1094V45.6123H91.7676V44.875H94.2041V44.7529C94.1911 44.4795 94.1536 44.2386 94.0918 44.0303C94.0332 43.8219 93.9355 43.6592 93.7988 43.542C93.6621 43.4215 93.4684 43.3613 93.2178 43.3613C93.0583 43.3613 92.9102 43.389 92.7734 43.4443C92.64 43.4964 92.5244 43.5892 92.4268 43.7227C92.3324 43.8529 92.2575 44.0335 92.2021 44.2646C92.1501 44.4958 92.124 44.7887 92.124 45.1436V45.7393C92.124 46.0225 92.1501 46.2666 92.2021 46.4717C92.2575 46.6735 92.3372 46.8411 92.4414 46.9746C92.5488 47.1048 92.679 47.2025 92.832 47.2676C92.9883 47.3294 93.1657 47.3604 93.3643 47.3604C93.654 47.3604 93.8932 47.305 94.082 47.1943C94.2708 47.0804 94.4352 46.9355 94.5752 46.7598L95.0293 47.3018C94.9349 47.4352 94.8112 47.5638 94.6582 47.6875C94.5085 47.8079 94.3229 47.9072 94.1016 47.9854C93.8835 48.0602 93.6214 48.0977 93.3154 48.0977ZM96.9775 43.8447V48H96.1133V42.7168H96.9287L96.9775 43.8447ZM96.7676 45.1582L96.416 45.1436C96.4128 44.7822 96.4535 44.4486 96.5381 44.1426C96.626 43.8333 96.7497 43.5648 96.9092 43.3369C97.0719 43.109 97.2656 42.9333 97.4902 42.8096C97.7148 42.6826 97.9639 42.6191 98.2373 42.6191C98.4521 42.6191 98.6475 42.6549 98.8232 42.7266C98.999 42.7949 99.1488 42.9056 99.2725 43.0586C99.3962 43.2116 99.4906 43.4102 99.5557 43.6543C99.624 43.8952 99.6582 44.1898 99.6582 44.5381V48H98.7939V44.5283C98.7939 44.2516 98.763 44.0303 98.7012 43.8643C98.6426 43.695 98.5514 43.5729 98.4277 43.498C98.3073 43.4199 98.1543 43.3809 97.9688 43.3809C97.7995 43.3809 97.6416 43.4281 97.4951 43.5225C97.3486 43.6169 97.2201 43.7471 97.1094 43.9131C97.002 44.0791 96.9173 44.2695 96.8555 44.4844C96.7969 44.696 96.7676 44.9206 96.7676 45.1582ZM102.788 47.3604C102.961 47.3604 103.117 47.3262 103.257 47.2578C103.4 47.1862 103.517 47.0755 103.608 46.9258C103.7 46.7728 103.752 46.5742 103.765 46.3301H104.575C104.562 46.6816 104.473 46.9909 104.307 47.2578C104.144 47.5215 103.929 47.7282 103.662 47.8779C103.398 48.0244 103.107 48.0977 102.788 48.0977C102.446 48.0977 102.148 48.0423 101.895 47.9316C101.644 47.821 101.436 47.6615 101.27 47.4531C101.107 47.2415 100.985 46.986 100.903 46.6865C100.822 46.3838 100.781 46.0404 100.781 45.6562V45.0605C100.781 44.6764 100.822 44.3346 100.903 44.0352C100.985 43.7324 101.107 43.4769 101.27 43.2686C101.436 43.057 101.644 42.8958 101.895 42.7852C102.148 42.6745 102.446 42.6191 102.788 42.6191C103.146 42.6191 103.455 42.6956 103.716 42.8486C103.979 42.9984 104.185 43.2165 104.331 43.5029C104.481 43.7861 104.562 44.1296 104.575 44.5332H103.765C103.752 44.2728 103.704 44.0563 103.623 43.8838C103.542 43.708 103.431 43.5778 103.291 43.4932C103.151 43.4053 102.983 43.3613 102.788 43.3613C102.56 43.3613 102.371 43.402 102.222 43.4834C102.075 43.5615 101.96 43.6755 101.875 43.8252C101.79 43.9749 101.73 44.154 101.694 44.3623C101.662 44.5706 101.646 44.8034 101.646 45.0605V45.6562C101.646 45.9134 101.662 46.1478 101.694 46.3594C101.73 46.5677 101.789 46.7467 101.87 46.8965C101.955 47.0462 102.072 47.1618 102.222 47.2432C102.371 47.3213 102.56 47.3604 102.788 47.3604ZM101.987 40.5049L102.573 41.335L103.154 40.5049H103.896V40.5537L102.827 41.8916H102.319L101.265 40.5537V40.5049H101.987ZM106.44 43.8447V48H105.576V42.7168H106.392L106.44 43.8447ZM106.23 45.1582L105.879 45.1436C105.876 44.7822 105.916 44.4486 106.001 44.1426C106.089 43.8333 106.213 43.5648 106.372 43.3369C106.535 43.109 106.729 42.9333 106.953 42.8096C107.178 42.6826 107.427 42.6191 107.7 42.6191C107.915 42.6191 108.11 42.6549 108.286 42.7266C108.462 42.7949 108.612 42.9056 108.735 43.0586C108.859 43.2116 108.953 43.4102 109.019 43.6543C109.087 43.8952 109.121 44.1898 109.121 44.5381V48H108.257V44.5283C108.257 44.2516 108.226 44.0303 108.164 43.8643C108.105 43.695 108.014 43.5729 107.891 43.498C107.77 43.4199 107.617 43.3809 107.432 43.3809C107.262 43.3809 107.104 43.4281 106.958 43.5225C106.812 43.6169 106.683 43.7471 106.572 43.9131C106.465 44.0791 106.38 44.2695 106.318 44.4844C106.26 44.696 106.23 44.9206 106.23 45.1582ZM112.31 48.0977C111.994 48.0977 111.709 48.0505 111.455 47.9561C111.201 47.8617 110.985 47.7184 110.806 47.5264C110.627 47.3311 110.49 47.0853 110.396 46.7891C110.301 46.4928 110.254 46.1429 110.254 45.7393V45.1436C110.254 44.6781 110.308 44.2842 110.415 43.9619C110.526 43.6396 110.674 43.3809 110.859 43.1855C111.045 42.987 111.255 42.8437 111.489 42.7559C111.724 42.6647 111.965 42.6191 112.212 42.6191C112.544 42.6191 112.827 42.6729 113.062 42.7803C113.296 42.8877 113.486 43.0472 113.633 43.2588C113.779 43.4704 113.887 43.7308 113.955 44.04C114.027 44.3493 114.062 44.7057 114.062 45.1094V45.6123H110.762V44.875H113.198V44.7529C113.185 44.4795 113.148 44.2386 113.086 44.0303C113.027 43.8219 112.93 43.6592 112.793 43.542C112.656 43.4215 112.463 43.3613 112.212 43.3613C112.052 43.3613 111.904 43.389 111.768 43.4443C111.634 43.4964 111.519 43.5892 111.421 43.7227C111.326 43.8529 111.252 44.0335 111.196 44.2646C111.144 44.4958 111.118 44.7887 111.118 45.1436V45.7393C111.118 46.0225 111.144 46.2666 111.196 46.4717C111.252 46.6735 111.331 46.8411 111.436 46.9746C111.543 47.1048 111.673 47.2025 111.826 47.2676C111.982 47.3294 112.16 47.3604 112.358 47.3604C112.648 47.3604 112.887 47.305 113.076 47.1943C113.265 47.0804 113.429 46.9355 113.569 46.7598L114.023 47.3018C113.929 47.4352 113.805 47.5638 113.652 47.6875C113.503 47.8079 113.317 47.9072 113.096 47.9854C112.878 48.0602 112.616 48.0977 112.31 48.0977ZM111.685 41.9355L112.632 40.5H113.721L112.412 41.9355H111.685ZM119.233 47.3604C119.406 47.3604 119.562 47.3262 119.702 47.2578C119.845 47.1862 119.963 47.0755 120.054 46.9258C120.145 46.7728 120.197 46.5742 120.21 46.3301H121.021C121.007 46.6816 120.918 46.9909 120.752 47.2578C120.589 47.5215 120.374 47.7282 120.107 47.8779C119.844 48.0244 119.552 48.0977 119.233 48.0977C118.892 48.0977 118.594 48.0423 118.34 47.9316C118.089 47.821 117.881 47.6615 117.715 47.4531C117.552 47.2415 117.43 46.986 117.349 46.6865C117.267 46.3838 117.227 46.0404 117.227 45.6562V45.0605C117.227 44.6764 117.267 44.3346 117.349 44.0352C117.43 43.7324 117.552 43.4769 117.715 43.2686C117.881 43.057 118.089 42.8958 118.34 42.7852C118.594 42.6745 118.892 42.6191 119.233 42.6191C119.591 42.6191 119.901 42.6956 120.161 42.8486C120.425 42.9984 120.63 43.2165 120.776 43.5029C120.926 43.7861 121.007 44.1296 121.021 44.5332H120.21C120.197 44.2728 120.15 44.0563 120.068 43.8838C119.987 43.708 119.876 43.5778 119.736 43.4932C119.596 43.4053 119.429 43.3613 119.233 43.3613C119.006 43.3613 118.817 43.402 118.667 43.4834C118.521 43.5615 118.405 43.6755 118.32 43.8252C118.236 43.9749 118.175 44.154 118.14 44.3623C118.107 44.5706 118.091 44.8034 118.091 45.0605V45.6562C118.091 45.9134 118.107 46.1478 118.14 46.3594C118.175 46.5677 118.234 46.7467 118.315 46.8965C118.4 47.0462 118.517 47.1618 118.667 47.2432C118.817 47.3213 119.006 47.3604 119.233 47.3604ZM118.433 40.5049L119.019 41.335L119.6 40.5049H120.342V40.5537L119.272 41.8916H118.765L117.71 40.5537V40.5049H118.433ZM122.954 42.7168V48H122.09V42.7168H122.954ZM122.041 41.9453L122.988 40.5098H124.077L122.769 41.9453H122.041ZM126.938 46.6475C126.938 46.514 126.906 46.3968 126.841 46.2959C126.776 46.195 126.668 46.0973 126.519 46.0029C126.372 45.9085 126.174 45.8076 125.923 45.7002C125.679 45.5993 125.459 45.5 125.264 45.4023C125.072 45.3014 124.909 45.1924 124.775 45.0752C124.642 44.958 124.539 44.8229 124.468 44.6699C124.399 44.5137 124.365 44.3298 124.365 44.1182C124.365 43.9066 124.404 43.7113 124.482 43.5322C124.564 43.3499 124.678 43.1904 124.824 43.0537C124.971 42.917 125.146 42.8112 125.352 42.7363C125.557 42.6582 125.786 42.6191 126.04 42.6191C126.401 42.6191 126.709 42.6891 126.963 42.8291C127.217 42.9691 127.41 43.1611 127.544 43.4053C127.681 43.6462 127.749 43.918 127.749 44.2207H126.89C126.89 44.0742 126.857 43.9359 126.792 43.8057C126.727 43.6755 126.631 43.5697 126.504 43.4883C126.377 43.4036 126.222 43.3613 126.04 43.3613C125.848 43.3613 125.692 43.3955 125.571 43.4639C125.451 43.5322 125.363 43.6217 125.308 43.7324C125.256 43.8398 125.229 43.9587 125.229 44.0889C125.229 44.1865 125.243 44.2712 125.269 44.3428C125.298 44.4111 125.347 44.4762 125.415 44.5381C125.483 44.5967 125.576 44.6585 125.693 44.7236C125.814 44.7855 125.967 44.8571 126.152 44.9385C126.51 45.0785 126.812 45.2201 127.056 45.3633C127.3 45.5065 127.485 45.6742 127.612 45.8662C127.739 46.0583 127.803 46.2959 127.803 46.5791C127.803 46.8102 127.76 47.0202 127.676 47.209C127.594 47.3945 127.477 47.554 127.324 47.6875C127.171 47.821 126.987 47.9235 126.772 47.9951C126.561 48.0635 126.323 48.0977 126.06 48.0977C125.662 48.0977 125.326 48.0195 125.049 47.8633C124.775 47.7038 124.567 47.4971 124.424 47.2432C124.284 46.986 124.214 46.7109 124.214 46.418H125.078C125.088 46.6654 125.143 46.8574 125.244 46.9941C125.348 47.1309 125.474 47.2253 125.62 47.2773C125.767 47.3294 125.913 47.3555 126.06 47.3555C126.252 47.3555 126.413 47.3278 126.543 47.2725C126.673 47.2139 126.771 47.1309 126.836 47.0234C126.904 46.916 126.938 46.7907 126.938 46.6475ZM129.863 40.5V48H129.004V40.5H129.863ZM131.05 45.6123V45.1094C131.05 44.6992 131.102 44.3395 131.206 44.0303C131.31 43.7178 131.455 43.4574 131.641 43.249C131.826 43.0407 132.043 42.8844 132.29 42.7803C132.537 42.6729 132.803 42.6191 133.086 42.6191C133.376 42.6191 133.644 42.6729 133.892 42.7803C134.139 42.8844 134.355 43.0407 134.541 43.249C134.73 43.4574 134.876 43.7178 134.98 44.0303C135.085 44.3395 135.137 44.6992 135.137 45.1094V45.6123C135.137 46.0225 135.085 46.3838 134.98 46.6963C134.876 47.0055 134.731 47.2643 134.546 47.4727C134.36 47.681 134.144 47.8372 133.896 47.9414C133.649 48.0456 133.382 48.0977 133.096 48.0977C132.809 48.0977 132.542 48.0456 132.295 47.9414C132.048 47.8372 131.829 47.681 131.641 47.4727C131.455 47.2643 131.31 47.0055 131.206 46.6963C131.102 46.3838 131.05 46.0225 131.05 45.6123ZM131.914 45.1094V45.6123C131.914 45.902 131.943 46.1559 132.002 46.374C132.061 46.5921 132.144 46.7744 132.251 46.9209C132.358 47.0674 132.484 47.1781 132.627 47.2529C132.77 47.3245 132.926 47.3604 133.096 47.3604C133.291 47.3604 133.462 47.3245 133.608 47.2529C133.758 47.1781 133.882 47.0674 133.979 46.9209C134.077 46.7744 134.15 46.5921 134.199 46.374C134.248 46.1559 134.272 45.902 134.272 45.6123V45.1094C134.272 44.8197 134.243 44.5674 134.185 44.3525C134.126 44.1344 134.043 43.9521 133.936 43.8057C133.828 43.6559 133.701 43.5452 133.555 43.4736C133.411 43.3988 133.255 43.3613 133.086 43.3613C132.92 43.3613 132.765 43.3988 132.622 43.4736C132.479 43.5452 132.354 43.6559 132.246 43.8057C132.142 43.9521 132.061 44.1344 132.002 44.3525C131.943 44.5674 131.914 44.8197 131.914 45.1094Z" fill="url(#paint1_linear_1406_1549)"/>
<path d="M179.113 40.8906V48H178.215V40.8906H179.113ZM181.511 44.0889V44.8604H178.942V44.0889H181.511ZM181.916 40.8906V41.6621H178.942V40.8906H181.916ZM185.334 47.0967V44.2305C185.334 44.0221 185.301 43.8545 185.236 43.7275C185.174 43.6006 185.08 43.5078 184.953 43.4492C184.829 43.3906 184.673 43.3613 184.484 43.3613C184.302 43.3613 184.144 43.3988 184.011 43.4736C183.881 43.5485 183.78 43.6478 183.708 43.7715C183.64 43.8952 183.605 44.0319 183.605 44.1816H182.741C182.741 43.9928 182.782 43.8057 182.863 43.6201C182.948 43.4346 183.068 43.2669 183.225 43.1172C183.381 42.9642 183.568 42.8438 183.786 42.7559C184.007 42.6647 184.255 42.6191 184.528 42.6191C184.854 42.6191 185.142 42.6729 185.393 42.7803C185.643 42.8844 185.84 43.0553 185.983 43.293C186.127 43.5306 186.198 43.8464 186.198 44.2402V46.8477C186.198 47.0234 186.211 47.2106 186.237 47.4092C186.267 47.6077 186.307 47.7786 186.359 47.9219V48H185.466C185.424 47.8958 185.391 47.7575 185.368 47.585C185.345 47.4092 185.334 47.2464 185.334 47.0967ZM185.471 44.7969L185.48 45.4316H184.88C184.675 45.4316 184.488 45.4544 184.318 45.5C184.152 45.5456 184.009 45.6123 183.889 45.7002C183.768 45.7848 183.675 45.8906 183.61 46.0176C183.549 46.1445 183.518 46.2894 183.518 46.4521C183.518 46.6637 183.547 46.833 183.605 46.96C183.664 47.0837 183.752 47.1732 183.869 47.2285C183.986 47.2839 184.134 47.3115 184.313 47.3115C184.532 47.3115 184.724 47.2611 184.89 47.1602C185.056 47.0592 185.184 46.9372 185.275 46.7939C185.37 46.6507 185.414 46.5173 185.407 46.3936L185.598 46.7988C185.585 46.9258 185.542 47.0641 185.471 47.2139C185.402 47.3604 185.306 47.502 185.183 47.6387C185.059 47.7721 184.912 47.8828 184.743 47.9707C184.577 48.0553 184.39 48.0977 184.182 48.0977C183.876 48.0977 183.607 48.0391 183.376 47.9219C183.148 47.8047 182.971 47.6322 182.844 47.4043C182.717 47.1764 182.653 46.8949 182.653 46.5596C182.653 46.3057 182.697 46.0713 182.785 45.8564C182.873 45.6416 183.003 45.4561 183.176 45.2998C183.348 45.1403 183.565 45.0166 183.825 44.9287C184.089 44.8408 184.393 44.7969 184.738 44.7969H185.471ZM188.41 40.5V48H187.546V40.5H188.41ZM191.091 42.7168L189.211 45.1826L188.049 46.5205L187.99 45.5586L188.791 44.4551L190.051 42.7168H191.091ZM190.3 48L188.815 45.4805L189.26 44.6748L191.306 48H190.3ZM193.981 42.7168V43.4102H191.516V42.7168H193.981ZM192.321 41.4326H193.186V46.6914C193.186 46.8704 193.207 47.0055 193.249 47.0967C193.295 47.1878 193.352 47.248 193.42 47.2773C193.488 47.3066 193.562 47.3213 193.64 47.3213C193.698 47.3213 193.763 47.3148 193.835 47.3018C193.907 47.2855 193.955 47.2725 193.981 47.2627L193.977 48C193.918 48.0228 193.84 48.0439 193.742 48.0635C193.645 48.0863 193.521 48.0977 193.371 48.0977C193.186 48.0977 193.013 48.0537 192.854 47.9658C192.694 47.8779 192.565 47.7314 192.468 47.5264C192.37 47.318 192.321 47.0381 192.321 46.6865V41.4326ZM197.683 46.7793V42.7168H198.547V48H197.727L197.683 46.7793ZM197.844 45.666L198.186 45.6562C198.186 46.0078 198.155 46.3333 198.093 46.6328C198.034 46.929 197.937 47.1862 197.8 47.4043C197.666 47.6224 197.489 47.7933 197.268 47.917C197.046 48.0374 196.774 48.0977 196.452 48.0977C196.234 48.0977 196.035 48.0602 195.856 47.9854C195.681 47.9105 195.528 47.7949 195.397 47.6387C195.271 47.4824 195.171 47.279 195.1 47.0283C195.031 46.7777 194.997 46.4766 194.997 46.125V42.7168H195.856V46.1348C195.856 46.3724 195.878 46.5693 195.92 46.7256C195.962 46.8786 196.019 47.0007 196.091 47.0918C196.162 47.1797 196.242 47.2415 196.33 47.2773C196.418 47.3132 196.507 47.3311 196.599 47.3311C196.905 47.3311 197.149 47.2578 197.331 47.1113C197.513 46.9616 197.644 46.7614 197.722 46.5107C197.803 46.2568 197.844 45.9753 197.844 45.666ZM200.71 43.5469V48H199.846V42.7168H200.681L200.71 43.5469ZM202.023 42.6875L202.028 43.5273C201.957 43.5111 201.892 43.5013 201.833 43.498C201.778 43.4915 201.713 43.4883 201.638 43.4883C201.475 43.4883 201.332 43.5208 201.208 43.5859C201.088 43.651 200.983 43.7422 200.896 43.8594C200.808 43.9766 200.738 44.1165 200.686 44.2793C200.633 44.4388 200.598 44.6146 200.578 44.8066L200.354 44.9531C200.354 44.6341 200.378 44.3346 200.427 44.0547C200.479 43.7747 200.559 43.5273 200.666 43.3125C200.773 43.0944 200.91 42.9251 201.076 42.8047C201.245 42.681 201.447 42.6191 201.682 42.6191C201.734 42.6191 201.797 42.6273 201.872 42.6436C201.95 42.6566 202.001 42.6712 202.023 42.6875ZM205.285 47.0967V44.2305C205.285 44.0221 205.253 43.8545 205.188 43.7275C205.126 43.6006 205.031 43.5078 204.904 43.4492C204.781 43.3906 204.624 43.3613 204.436 43.3613C204.253 43.3613 204.095 43.3988 203.962 43.4736C203.832 43.5485 203.731 43.6478 203.659 43.7715C203.591 43.8952 203.557 44.0319 203.557 44.1816H202.692C202.692 43.9928 202.733 43.8057 202.814 43.6201C202.899 43.4346 203.02 43.2669 203.176 43.1172C203.332 42.9642 203.519 42.8437 203.737 42.7559C203.959 42.6647 204.206 42.6191 204.479 42.6191C204.805 42.6191 205.093 42.6729 205.344 42.7803C205.594 42.8844 205.791 43.0553 205.935 43.293C206.078 43.5306 206.149 43.8464 206.149 44.2402V46.8477C206.149 47.0234 206.162 47.2106 206.188 47.4092C206.218 47.6077 206.258 47.7786 206.311 47.9219V48H205.417C205.375 47.8958 205.342 47.7575 205.319 47.585C205.297 47.4092 205.285 47.2464 205.285 47.0967ZM205.422 44.7969L205.432 45.4316H204.831C204.626 45.4316 204.439 45.4544 204.27 45.5C204.104 45.5456 203.96 45.6123 203.84 45.7002C203.719 45.7848 203.627 45.8906 203.562 46.0176C203.5 46.1445 203.469 46.2894 203.469 46.4521C203.469 46.6637 203.498 46.833 203.557 46.96C203.615 47.0837 203.703 47.1732 203.82 47.2285C203.938 47.2839 204.086 47.3115 204.265 47.3115C204.483 47.3115 204.675 47.2611 204.841 47.1602C205.007 47.0592 205.135 46.9372 205.227 46.7939C205.321 46.6507 205.365 46.5173 205.358 46.3936L205.549 46.7988C205.536 46.9258 205.493 47.0641 205.422 47.2139C205.354 47.3604 205.257 47.502 205.134 47.6387C205.01 47.7721 204.864 47.8828 204.694 47.9707C204.528 48.0553 204.341 48.0977 204.133 48.0977C203.827 48.0977 203.558 48.0391 203.327 47.9219C203.099 47.8047 202.922 47.6322 202.795 47.4043C202.668 47.1764 202.604 46.8949 202.604 46.5596C202.604 46.3057 202.648 46.0713 202.736 45.8564C202.824 45.6416 202.954 45.4561 203.127 45.2998C203.299 45.1403 203.516 45.0166 203.776 44.9287C204.04 44.8408 204.344 44.7969 204.689 44.7969H205.422ZM204.035 41.9355L204.982 40.5H206.071L204.763 41.9355H204.035ZM209.323 47.3604C209.496 47.3604 209.652 47.3262 209.792 47.2578C209.935 47.1862 210.052 47.0755 210.144 46.9258C210.235 46.7728 210.287 46.5742 210.3 46.3301H211.11C211.097 46.6816 211.008 46.9909 210.842 47.2578C210.679 47.5215 210.464 47.7282 210.197 47.8779C209.934 48.0244 209.642 48.0977 209.323 48.0977C208.981 48.0977 208.684 48.0423 208.43 47.9316C208.179 47.821 207.971 47.6615 207.805 47.4531C207.642 47.2415 207.52 46.986 207.438 46.6865C207.357 46.3838 207.316 46.0404 207.316 45.6562V45.0605C207.316 44.6764 207.357 44.3346 207.438 44.0352C207.52 43.7324 207.642 43.4769 207.805 43.2686C207.971 43.057 208.179 42.8958 208.43 42.7852C208.684 42.6745 208.981 42.6191 209.323 42.6191C209.681 42.6191 209.991 42.6956 210.251 42.8486C210.515 42.9984 210.72 43.2165 210.866 43.5029C211.016 43.7861 211.097 44.1296 211.11 44.5332H210.3C210.287 44.2728 210.24 44.0563 210.158 43.8838C210.077 43.708 209.966 43.5778 209.826 43.4932C209.686 43.4053 209.519 43.3613 209.323 43.3613C209.095 43.3613 208.907 43.402 208.757 43.4834C208.61 43.5615 208.495 43.6755 208.41 43.8252C208.326 43.9749 208.265 44.154 208.229 44.3623C208.197 44.5706 208.181 44.8034 208.181 45.0605V45.6562C208.181 45.9134 208.197 46.1478 208.229 46.3594C208.265 46.5677 208.324 46.7467 208.405 46.8965C208.49 47.0462 208.607 47.1618 208.757 47.2432C208.907 47.3213 209.095 47.3604 209.323 47.3604ZM213.039 42.7168V48H212.18V42.7168H213.039ZM212.131 41.3154C212.131 41.1689 212.172 41.0452 212.253 40.9443C212.334 40.8434 212.456 40.793 212.619 40.793C212.782 40.793 212.904 40.8434 212.985 40.9443C213.07 41.0452 213.112 41.1689 213.112 41.3154C213.112 41.4554 213.07 41.5758 212.985 41.6768C212.904 41.7744 212.782 41.8232 212.619 41.8232C212.456 41.8232 212.334 41.7744 212.253 41.6768C212.172 41.5758 212.131 41.4554 212.131 41.3154ZM216.994 47.0967V44.2305C216.994 44.0221 216.962 43.8545 216.896 43.7275C216.835 43.6006 216.74 43.5078 216.613 43.4492C216.49 43.3906 216.333 43.3613 216.145 43.3613C215.962 43.3613 215.804 43.3988 215.671 43.4736C215.541 43.5485 215.44 43.6478 215.368 43.7715C215.3 43.8952 215.266 44.0319 215.266 44.1816H214.401C214.401 43.9928 214.442 43.8057 214.523 43.6201C214.608 43.4346 214.729 43.2669 214.885 43.1172C215.041 42.9642 215.228 42.8437 215.446 42.7559C215.668 42.6647 215.915 42.6191 216.188 42.6191C216.514 42.6191 216.802 42.6729 217.053 42.7803C217.303 42.8844 217.5 43.0553 217.644 43.293C217.787 43.5306 217.858 43.8464 217.858 44.2402V46.8477C217.858 47.0234 217.871 47.2106 217.897 47.4092C217.927 47.6077 217.967 47.7786 218.02 47.9219V48H217.126C217.084 47.8958 217.051 47.7575 217.028 47.585C217.006 47.4092 216.994 47.2464 216.994 47.0967ZM217.131 44.7969L217.141 45.4316H216.54C216.335 45.4316 216.148 45.4544 215.979 45.5C215.812 45.5456 215.669 45.6123 215.549 45.7002C215.428 45.7848 215.336 45.8906 215.271 46.0176C215.209 46.1445 215.178 46.2894 215.178 46.4521C215.178 46.6637 215.207 46.833 215.266 46.96C215.324 47.0837 215.412 47.1732 215.529 47.2285C215.646 47.2839 215.795 47.3115 215.974 47.3115C216.192 47.3115 216.384 47.2611 216.55 47.1602C216.716 47.0592 216.844 46.9372 216.936 46.7939C217.03 46.6507 217.074 46.5173 217.067 46.3936L217.258 46.7988C217.245 46.9258 217.202 47.0641 217.131 47.2139C217.062 47.3604 216.966 47.502 216.843 47.6387C216.719 47.7721 216.573 47.8828 216.403 47.9707C216.237 48.0553 216.05 48.0977 215.842 48.0977C215.536 48.0977 215.267 48.0391 215.036 47.9219C214.808 47.8047 214.631 47.6322 214.504 47.4043C214.377 47.1764 214.313 46.8949 214.313 46.5596C214.313 46.3057 214.357 46.0713 214.445 45.8564C214.533 45.6416 214.663 45.4561 214.836 45.2998C215.008 45.1403 215.225 45.0166 215.485 44.9287C215.749 44.8408 216.053 44.7969 216.398 44.7969H217.131Z" fill="#E0E0E9"/>
<path d="M271.019 35.8906V43H270.12V35.8906H271.019ZM274.593 35.8906L272.146 39.2061L270.716 40.9297L270.555 39.9238L271.604 38.5469L273.519 35.8906H274.593ZM273.699 43L271.604 39.5332L272.137 38.7861L274.769 43H273.699ZM275.145 40.6123V40.1094C275.145 39.6992 275.197 39.3395 275.301 39.0303C275.405 38.7178 275.55 38.4574 275.735 38.249C275.921 38.0407 276.137 37.8844 276.385 37.7803C276.632 37.6729 276.897 37.6191 277.181 37.6191C277.47 37.6191 277.739 37.6729 277.986 37.7803C278.234 37.8844 278.45 38.0407 278.636 38.249C278.825 38.4574 278.971 38.7178 279.075 39.0303C279.179 39.3395 279.231 39.6992 279.231 40.1094V40.6123C279.231 41.0225 279.179 41.3838 279.075 41.6963C278.971 42.0055 278.826 42.2643 278.641 42.4727C278.455 42.681 278.239 42.8372 277.991 42.9414C277.744 43.0456 277.477 43.0977 277.19 43.0977C276.904 43.0977 276.637 43.0456 276.39 42.9414C276.142 42.8372 275.924 42.681 275.735 42.4727C275.55 42.2643 275.405 42.0055 275.301 41.6963C275.197 41.3838 275.145 41.0225 275.145 40.6123ZM276.009 40.1094V40.6123C276.009 40.902 276.038 41.1559 276.097 41.374C276.155 41.5921 276.238 41.7744 276.346 41.9209C276.453 42.0674 276.578 42.1781 276.722 42.2529C276.865 42.3245 277.021 42.3604 277.19 42.3604C277.386 42.3604 277.557 42.3245 277.703 42.2529C277.853 42.1781 277.977 42.0674 278.074 41.9209C278.172 41.7744 278.245 41.5921 278.294 41.374C278.343 41.1559 278.367 40.902 278.367 40.6123V40.1094C278.367 39.8197 278.338 39.5674 278.279 39.3525C278.221 39.1344 278.138 38.9521 278.03 38.8057C277.923 38.6559 277.796 38.5452 277.649 38.4736C277.506 38.3988 277.35 38.3613 277.181 38.3613C277.015 38.3613 276.86 38.3988 276.717 38.4736C276.574 38.5452 276.448 38.6559 276.341 38.8057C276.237 38.9521 276.155 39.1344 276.097 39.3525C276.038 39.5674 276.009 39.8197 276.009 40.1094ZM281.209 38.8447V43H280.345V37.7168H281.16L281.209 38.8447ZM280.999 40.1582L280.647 40.1436C280.644 39.7822 280.685 39.4486 280.77 39.1426C280.857 38.8333 280.981 38.5648 281.141 38.3369C281.303 38.109 281.497 37.9333 281.722 37.8096C281.946 37.6826 282.195 37.6191 282.469 37.6191C282.684 37.6191 282.879 37.6549 283.055 37.7266C283.23 37.7949 283.38 37.9056 283.504 38.0586C283.628 38.2116 283.722 38.4102 283.787 38.6543C283.855 38.8952 283.89 39.1898 283.89 39.5381V43H283.025V39.5283C283.025 39.2516 282.994 39.0303 282.933 38.8643C282.874 38.695 282.783 38.5729 282.659 38.498C282.539 38.4199 282.386 38.3809 282.2 38.3809C282.031 38.3809 281.873 38.4281 281.727 38.5225C281.58 38.6169 281.451 38.7471 281.341 38.9131C281.233 39.0791 281.149 39.2695 281.087 39.4844C281.028 39.696 280.999 39.9206 280.999 40.1582ZM287.117 37.7168V38.4102H284.651V37.7168H287.117ZM285.457 36.4326H286.321V41.6914C286.321 41.8704 286.342 42.0055 286.385 42.0967C286.43 42.1878 286.487 42.248 286.556 42.2773C286.624 42.3066 286.697 42.3213 286.775 42.3213C286.834 42.3213 286.899 42.3148 286.971 42.3018C287.042 42.2855 287.091 42.2725 287.117 42.2627L287.112 43C287.054 43.0228 286.976 43.0439 286.878 43.0635C286.78 43.0863 286.657 43.0977 286.507 43.0977C286.321 43.0977 286.149 43.0537 285.989 42.9658C285.83 42.8779 285.701 42.7314 285.604 42.5264C285.506 42.318 285.457 42.0381 285.457 41.6865V36.4326ZM289.012 38.5469V43H288.147V37.7168H288.982L289.012 38.5469ZM290.325 37.6875L290.33 38.5273C290.258 38.5111 290.193 38.5013 290.135 38.498C290.079 38.4915 290.014 38.4883 289.939 38.4883C289.777 38.4883 289.633 38.5208 289.51 38.5859C289.389 38.651 289.285 38.7422 289.197 38.8594C289.109 38.9766 289.039 39.1165 288.987 39.2793C288.935 39.4388 288.899 39.6146 288.88 39.8066L288.655 39.9531C288.655 39.6341 288.68 39.3346 288.729 39.0547C288.781 38.7747 288.86 38.5273 288.968 38.3125C289.075 38.0944 289.212 37.9251 289.378 37.8047C289.547 37.681 289.749 37.6191 289.983 37.6191C290.035 37.6191 290.099 37.6273 290.174 37.6436C290.252 37.6566 290.302 37.6712 290.325 37.6875ZM290.916 40.6123V40.1094C290.916 39.6992 290.968 39.3395 291.072 39.0303C291.176 38.7178 291.321 38.4574 291.507 38.249C291.692 38.0407 291.909 37.8844 292.156 37.7803C292.404 37.6729 292.669 37.6191 292.952 37.6191C293.242 37.6191 293.51 37.6729 293.758 37.7803C294.005 37.8844 294.222 38.0407 294.407 38.249C294.596 38.4574 294.743 38.7178 294.847 39.0303C294.951 39.3395 295.003 39.6992 295.003 40.1094V40.6123C295.003 41.0225 294.951 41.3838 294.847 41.6963C294.743 42.0055 294.598 42.2643 294.412 42.4727C294.227 42.681 294.01 42.8372 293.763 42.9414C293.515 43.0456 293.248 43.0977 292.962 43.0977C292.675 43.0977 292.409 43.0456 292.161 42.9414C291.914 42.8372 291.696 42.681 291.507 42.4727C291.321 42.2643 291.176 42.0055 291.072 41.6963C290.968 41.3838 290.916 41.0225 290.916 40.6123ZM291.78 40.1094V40.6123C291.78 40.902 291.81 41.1559 291.868 41.374C291.927 41.5921 292.01 41.7744 292.117 41.9209C292.225 42.0674 292.35 42.1781 292.493 42.2529C292.636 42.3245 292.793 42.3604 292.962 42.3604C293.157 42.3604 293.328 42.3245 293.475 42.2529C293.624 42.1781 293.748 42.0674 293.846 41.9209C293.943 41.7744 294.017 41.5921 294.065 41.374C294.114 41.1559 294.139 40.902 294.139 40.6123V40.1094C294.139 39.8197 294.109 39.5674 294.051 39.3525C293.992 39.1344 293.909 38.9521 293.802 38.8057C293.694 38.6559 293.567 38.5452 293.421 38.4736C293.278 38.3988 293.121 38.3613 292.952 38.3613C292.786 38.3613 292.632 38.3988 292.488 38.4736C292.345 38.5452 292.22 38.6559 292.112 38.8057C292.008 38.9521 291.927 39.1344 291.868 39.3525C291.81 39.5674 291.78 39.8197 291.78 40.1094ZM297.044 35.5V43H296.185V35.5H297.044ZM300.999 42.0967V39.2305C300.999 39.0221 300.966 38.8545 300.901 38.7275C300.84 38.6006 300.745 38.5078 300.618 38.4492C300.494 38.3906 300.338 38.3613 300.149 38.3613C299.967 38.3613 299.809 38.3988 299.676 38.4736C299.546 38.5485 299.445 38.6478 299.373 38.7715C299.305 38.8952 299.271 39.0319 299.271 39.1816H298.406C298.406 38.9928 298.447 38.8057 298.528 38.6201C298.613 38.4346 298.733 38.2669 298.89 38.1172C299.046 37.9642 299.233 37.8437 299.451 37.7559C299.673 37.6647 299.92 37.6191 300.193 37.6191C300.519 37.6191 300.807 37.6729 301.058 37.7803C301.308 37.8844 301.505 38.0553 301.648 38.293C301.792 38.5306 301.863 38.8464 301.863 39.2402V41.8477C301.863 42.0234 301.876 42.2106 301.902 42.4092C301.932 42.6077 301.972 42.7786 302.024 42.9219V43H301.131C301.089 42.8958 301.056 42.7575 301.033 42.585C301.01 42.4092 300.999 42.2464 300.999 42.0967ZM301.136 39.7969L301.146 40.4316H300.545C300.34 40.4316 300.153 40.4544 299.983 40.5C299.817 40.5456 299.674 40.6123 299.554 40.7002C299.433 40.7848 299.34 40.8906 299.275 41.0176C299.214 41.1445 299.183 41.2894 299.183 41.4521C299.183 41.6637 299.212 41.833 299.271 41.96C299.329 42.0837 299.417 42.1732 299.534 42.2285C299.651 42.2839 299.799 42.3115 299.979 42.3115C300.197 42.3115 300.389 42.2611 300.555 42.1602C300.721 42.0592 300.849 41.9372 300.94 41.7939C301.035 41.6507 301.079 41.5173 301.072 41.3936L301.263 41.7988C301.25 41.9258 301.207 42.0641 301.136 42.2139C301.067 42.3604 300.971 42.502 300.848 42.6387C300.724 42.7721 300.577 42.8828 300.408 42.9707C300.242 43.0553 300.055 43.0977 299.847 43.0977C299.541 43.0977 299.272 43.0391 299.041 42.9219C298.813 42.8047 298.636 42.6322 298.509 42.4043C298.382 42.1764 298.318 41.8949 298.318 41.5596C298.318 41.3057 298.362 41.0713 298.45 40.8564C298.538 40.6416 298.668 40.4561 298.841 40.2998C299.013 40.1403 299.23 40.0166 299.49 39.9287C299.754 39.8408 300.058 39.7969 300.403 39.7969H301.136ZM308.089 42.0967V39.2305C308.089 39.0221 308.056 38.8545 307.991 38.7275C307.929 38.6006 307.835 38.5078 307.708 38.4492C307.584 38.3906 307.428 38.3613 307.239 38.3613C307.057 38.3613 306.899 38.3988 306.766 38.4736C306.635 38.5485 306.535 38.6478 306.463 38.7715C306.395 38.8952 306.36 39.0319 306.36 39.1816H305.496C305.496 38.9928 305.537 38.8057 305.618 38.6201C305.703 38.4346 305.823 38.2669 305.979 38.1172C306.136 37.9642 306.323 37.8437 306.541 37.7559C306.762 37.6647 307.01 37.6191 307.283 37.6191C307.609 37.6191 307.897 37.6729 308.147 37.7803C308.398 37.8844 308.595 38.0553 308.738 38.293C308.882 38.5306 308.953 38.8464 308.953 39.2402V41.8477C308.953 42.0234 308.966 42.2106 308.992 42.4092C309.021 42.6077 309.062 42.7786 309.114 42.9219V43H308.221C308.178 42.8958 308.146 42.7575 308.123 42.585C308.1 42.4092 308.089 42.2464 308.089 42.0967ZM308.226 39.7969L308.235 40.4316H307.635C307.43 40.4316 307.243 40.4544 307.073 40.5C306.907 40.5456 306.764 40.6123 306.644 40.7002C306.523 40.7848 306.43 40.8906 306.365 41.0176C306.303 41.1445 306.272 41.2894 306.272 41.4521C306.272 41.6637 306.302 41.833 306.36 41.96C306.419 42.0837 306.507 42.1732 306.624 42.2285C306.741 42.2839 306.889 42.3115 307.068 42.3115C307.286 42.3115 307.479 42.2611 307.645 42.1602C307.811 42.0592 307.939 41.9372 308.03 41.7939C308.125 41.6507 308.169 41.5173 308.162 41.3936L308.353 41.7988C308.34 41.9258 308.297 42.0641 308.226 42.2139C308.157 42.3604 308.061 42.502 307.938 42.6387C307.814 42.7721 307.667 42.8828 307.498 42.9707C307.332 43.0553 307.145 43.0977 306.937 43.0977C306.631 43.0977 306.362 43.0391 306.131 42.9219C305.903 42.8047 305.726 42.6322 305.599 42.4043C305.472 42.1764 305.408 41.8949 305.408 41.5596C305.408 41.3057 305.452 41.0713 305.54 40.8564C305.628 40.6416 305.758 40.4561 305.931 40.2998C306.103 40.1403 306.32 40.0166 306.58 39.9287C306.844 39.8408 307.148 39.7969 307.493 39.7969H308.226ZM278.66 49.7324V56.0312H277.796V48.7168H278.582L278.66 49.7324ZM281.614 51.1191V51.6123C281.614 52.029 281.575 52.3936 281.497 52.7061C281.422 53.0153 281.31 53.2741 281.16 53.4824C281.014 53.6875 280.833 53.8421 280.618 53.9463C280.403 54.0472 280.158 54.0977 279.881 54.0977C279.604 54.0977 279.363 54.0456 279.158 53.9414C278.956 53.834 278.785 53.6794 278.646 53.4775C278.509 53.2757 278.4 53.0332 278.318 52.75C278.24 52.4635 278.187 52.1429 278.157 51.7881V51.0361C278.187 50.6618 278.24 50.3265 278.318 50.0303C278.396 49.7308 278.504 49.4769 278.641 49.2686C278.781 49.057 278.951 48.8958 279.153 48.7852C279.358 48.6745 279.598 48.6191 279.871 48.6191C280.154 48.6191 280.403 48.668 280.618 48.7656C280.836 48.8633 281.019 49.0146 281.165 49.2197C281.315 49.4215 281.427 49.6803 281.502 49.9961C281.577 50.3086 281.614 50.6829 281.614 51.1191ZM280.75 51.6123V51.1191C280.75 50.8262 280.727 50.5706 280.682 50.3525C280.639 50.1344 280.571 49.9538 280.477 49.8105C280.382 49.6673 280.263 49.5599 280.12 49.4883C279.977 49.4167 279.804 49.3809 279.603 49.3809C279.43 49.3809 279.277 49.4167 279.144 49.4883C279.013 49.5599 278.901 49.6576 278.807 49.7812C278.712 49.9017 278.634 50.04 278.572 50.1963C278.51 50.3493 278.465 50.5088 278.436 50.6748V52.1543C278.491 52.3626 278.564 52.5596 278.655 52.7451C278.746 52.9274 278.868 53.0755 279.021 53.1895C279.178 53.3034 279.375 53.3604 279.612 53.3604C279.811 53.3604 279.982 53.3245 280.125 53.2529C280.268 53.1813 280.385 53.0739 280.477 52.9307C280.571 52.7842 280.639 52.6019 280.682 52.3838C280.727 52.1624 280.75 51.9053 280.75 51.6123ZM283.655 46.5V54H282.796V46.5H283.655ZM287.61 53.0967V50.2305C287.61 50.0221 287.578 49.8545 287.513 49.7275C287.451 49.6006 287.356 49.5078 287.229 49.4492C287.106 49.3906 286.95 49.3613 286.761 49.3613C286.578 49.3613 286.421 49.3988 286.287 49.4736C286.157 49.5485 286.056 49.6478 285.984 49.7715C285.916 49.8952 285.882 50.0319 285.882 50.1816H285.018C285.018 49.9928 285.058 49.8057 285.14 49.6201C285.224 49.4346 285.345 49.2669 285.501 49.1172C285.657 48.9642 285.844 48.8438 286.062 48.7559C286.284 48.6647 286.531 48.6191 286.805 48.6191C287.13 48.6191 287.418 48.6729 287.669 48.7803C287.92 48.8844 288.117 49.0553 288.26 49.293C288.403 49.5306 288.475 49.8464 288.475 50.2402V52.8477C288.475 53.0234 288.488 53.2106 288.514 53.4092C288.543 53.6077 288.584 53.7786 288.636 53.9219V54H287.742C287.7 53.8958 287.667 53.7575 287.645 53.585C287.622 53.4092 287.61 53.2464 287.61 53.0967ZM287.747 50.7969L287.757 51.4316H287.156C286.951 51.4316 286.764 51.4544 286.595 51.5C286.429 51.5456 286.285 51.6123 286.165 51.7002C286.045 51.7848 285.952 51.8906 285.887 52.0176C285.825 52.1445 285.794 52.2894 285.794 52.4521C285.794 52.6637 285.823 52.833 285.882 52.96C285.94 53.0837 286.028 53.1732 286.146 53.2285C286.263 53.2839 286.411 53.3115 286.59 53.3115C286.808 53.3115 287 53.2611 287.166 53.1602C287.332 53.0592 287.461 52.9372 287.552 52.7939C287.646 52.6507 287.69 52.5173 287.684 52.3936L287.874 52.7988C287.861 52.9258 287.819 53.0641 287.747 53.2139C287.679 53.3604 287.583 53.502 287.459 53.6387C287.335 53.7721 287.189 53.8828 287.02 53.9707C286.854 54.0553 286.666 54.0977 286.458 54.0977C286.152 54.0977 285.883 54.0391 285.652 53.9219C285.424 53.8047 285.247 53.6322 285.12 53.4043C284.993 53.1764 284.93 52.8949 284.93 52.5596C284.93 52.3057 284.974 52.0713 285.062 51.8564C285.149 51.6416 285.28 51.4561 285.452 51.2998C285.625 51.1403 285.841 51.0166 286.102 50.9287C286.365 50.8408 286.67 50.7969 287.015 50.7969H287.747ZM291.746 48.7168V49.4102H289.28V48.7168H291.746ZM290.086 47.4326H290.95V52.6914C290.95 52.8704 290.971 53.0055 291.014 53.0967C291.059 53.1878 291.116 53.248 291.185 53.2773C291.253 53.3066 291.326 53.3213 291.404 53.3213C291.463 53.3213 291.528 53.3148 291.6 53.3018C291.671 53.2855 291.72 53.2725 291.746 53.2627L291.741 54C291.683 54.0228 291.604 54.0439 291.507 54.0635C291.409 54.0863 291.285 54.0977 291.136 54.0977C290.95 54.0977 290.778 54.0537 290.618 53.9658C290.459 53.8779 290.33 53.7314 290.232 53.5264C290.135 53.318 290.086 53.0381 290.086 52.6865V47.4326ZM292.776 46.5H293.641V52.9746L293.567 54H292.776V46.5ZM296.604 51.1191V51.6123C296.604 52.029 296.565 52.3936 296.487 52.7061C296.412 53.0153 296.3 53.2741 296.15 53.4824C296.001 53.6875 295.818 53.8421 295.604 53.9463C295.389 54.0472 295.143 54.0977 294.866 54.0977C294.593 54.0977 294.357 54.0423 294.158 53.9316C293.96 53.821 293.794 53.6615 293.66 53.4531C293.527 53.2448 293.421 52.9925 293.343 52.6963C293.268 52.4001 293.216 52.0664 293.187 51.6953V51.0361C293.216 50.6618 293.268 50.3265 293.343 50.0303C293.418 49.7308 293.522 49.4769 293.655 49.2686C293.789 49.057 293.955 48.8958 294.153 48.7852C294.352 48.6745 294.588 48.6191 294.861 48.6191C295.141 48.6191 295.389 48.668 295.604 48.7656C295.822 48.8633 296.004 49.0146 296.15 49.2197C296.3 49.4215 296.412 49.6803 296.487 49.9961C296.565 50.3086 296.604 50.6829 296.604 51.1191ZM295.74 51.6123V51.1191C295.74 50.8262 295.721 50.5706 295.682 50.3525C295.646 50.1344 295.586 49.9538 295.501 49.8105C295.416 49.6673 295.302 49.5599 295.159 49.4883C295.019 49.4167 294.845 49.3809 294.637 49.3809C294.461 49.3809 294.306 49.4167 294.173 49.4883C294.043 49.5599 293.93 49.6576 293.836 49.7812C293.742 49.9017 293.663 50.04 293.602 50.1963C293.54 50.3493 293.494 50.5088 293.465 50.6748V52.0615C293.507 52.2731 293.574 52.4766 293.665 52.6719C293.759 52.8639 293.886 53.0218 294.046 53.1455C294.205 53.2692 294.404 53.3311 294.642 53.3311C294.84 53.3311 295.008 53.2969 295.145 53.2285C295.285 53.1602 295.398 53.056 295.486 52.916C295.574 52.7728 295.638 52.5938 295.677 52.3789C295.719 52.1608 295.74 51.9053 295.74 51.6123ZM300.296 53.0967V50.2305C300.296 50.0221 300.263 49.8545 300.198 49.7275C300.136 49.6006 300.042 49.5078 299.915 49.4492C299.791 49.3906 299.635 49.3613 299.446 49.3613C299.264 49.3613 299.106 49.3988 298.973 49.4736C298.842 49.5485 298.742 49.6478 298.67 49.7715C298.602 49.8952 298.567 50.0319 298.567 50.1816H297.703C297.703 49.9928 297.744 49.8057 297.825 49.6201C297.91 49.4346 298.03 49.2669 298.187 49.1172C298.343 48.9642 298.53 48.8437 298.748 48.7559C298.969 48.6647 299.217 48.6191 299.49 48.6191C299.816 48.6191 300.104 48.6729 300.354 48.7803C300.605 48.8844 300.802 49.0553 300.945 49.293C301.089 49.5306 301.16 49.8464 301.16 50.2402V52.8477C301.16 53.0234 301.173 53.2106 301.199 53.4092C301.229 53.6077 301.269 53.7786 301.321 53.9219V54H300.428C300.385 53.8958 300.353 53.7575 300.33 53.585C300.307 53.4092 300.296 53.2464 300.296 53.0967ZM300.433 50.7969L300.442 51.4316L299.842 51.4316C299.637 51.4316 299.45 51.4544 299.28 51.5C299.114 51.5456 298.971 51.6123 298.851 51.7002C298.73 51.7848 298.637 51.8906 298.572 52.0176C298.51 52.1445 298.479 52.2894 298.479 52.4521C298.479 52.6637 298.509 52.833 298.567 52.96C298.626 53.0837 298.714 53.1732 298.831 53.2285C298.948 53.2839 299.096 53.3115 299.275 53.3115C299.493 53.3115 299.686 53.2611 299.852 53.1602C300.018 53.0592 300.146 52.9372 300.237 52.7939C300.332 52.6507 300.376 52.5173 300.369 52.3936L300.56 52.7988C300.547 52.9258 300.504 53.0641 300.433 53.2139C300.364 53.3604 300.268 53.502 300.145 53.6387C300.021 53.7721 299.874 53.8828 299.705 53.9707C299.539 54.0553 299.352 54.0977 299.144 54.0977C298.838 54.0977 298.569 54.0391 298.338 53.9219C298.11 53.8047 297.933 53.6322 297.806 53.4043C297.679 53.1764 297.615 52.8949 297.615 52.5596C297.615 52.3057 297.659 52.0713 297.747 51.8564C297.835 51.6416 297.965 51.4561 298.138 51.2998C298.31 51.1403 298.527 51.0166 298.787 50.9287C299.051 50.8408 299.355 50.7969 299.7 50.7969L300.433 50.7969Z" fill="#E0E0E9"/>
<path fill-rule="evenodd" clip-rule="evenodd" d="M278 16L211 16V14L278 14V16Z" fill="#D0CFD7"/>
<path fill-rule="evenodd" clip-rule="evenodd" d="M185 16L118 16V14L185 14V16Z" fill="#D0CFD7"/>
<path fill-rule="evenodd" clip-rule="evenodd" d="M93 16L23 16V14L93 14V16Z" fill="url(#paint2_linear_1406_1549)"/>
<path fill-rule="evenodd" clip-rule="evenodd" d="M1.7612 6.17317C1 8.01088 1 10.3406 1 15C1 19.6594 1 21.9891 1.7612 23.8268C2.77614 26.2771 4.72288 28.2239 7.17317 29.2388C9.01088 30 11.3406 30 16 30C20.6594 30 22.9891 30 24.8268 29.2388C27.2771 28.2239 29.2239 26.2771 30.2388 23.8268C31 21.9891 31 19.6594 31 15C31 10.3406 31 8.01088 30.2388 6.17317C29.2239 3.72288 27.2771 1.77614 24.8268 0.761205C22.9891 0 20.6594 0 16 0C11.3406 0 9.01088 0 7.17317 0.761205C4.72288 1.77614 2.77614 3.72288 1.7612 6.17317ZM22.7071 11.7071C23.0976 11.3166 23.0976 10.6834 22.7071 10.2929C22.3166 9.90237 21.6834 9.90237 21.2929 10.2929L14 17.5858L10.7071 14.2929C10.3166 13.9024 9.68342 13.9024 9.29289 14.2929C8.90237 14.6834 8.90237 15.3166 9.29289 15.7071L13.2929 19.7071C13.4804 19.8946 13.7348 20 14 20C14.2652 20 14.5196 19.8946 14.7071 19.7071L22.7071 11.7071Z" fill="url(#paint3_linear_1406_1549)"/>
<path fill-rule="evenodd" clip-rule="evenodd" d="M92.7612 6.17317C92 8.01088 92 10.3406 92 15C92 19.6594 92 21.9891 92.7612 23.8268C93.7761 26.2771 95.7229 28.2239 98.1732 29.2388C100.011 30 102.341 30 107 30C111.659 30 113.989 30 115.827 29.2388C118.277 28.2239 120.224 26.2771 121.239 23.8268C122 21.9891 122 19.6594 122 15C122 10.3406 122 8.01088 121.239 6.17317C120.224 3.72288 118.277 1.77614 115.827 0.761205C113.989 0 111.659 0 107 0C102.341 0 100.011 0 98.1732 0.761205C95.7229 1.77614 93.7761 3.72288 92.7612 6.17317ZM113.707 11.7071C114.098 11.3166 114.098 10.6834 113.707 10.2929C113.317 9.90237 112.683 9.90237 112.293 10.2929L105 17.5858L101.707 14.2929C101.317 13.9024 100.683 13.9024 100.293 14.2929C99.9024 14.6834 99.9024 15.3166 100.293 15.7071L104.293 19.7071C104.48 19.8946 104.735 20 105 20C105.265 20 105.52 19.8946 105.707 19.7071L113.707 11.7071Z" fill="url(#paint4_linear_1406_1549)"/>
<path fill-rule="evenodd" clip-rule="evenodd" d="M274.761 6.17317C274 8.01088 274 10.3406 274 15C274 19.6594 274 21.9891 274.761 23.8268C275.776 26.2771 277.723 28.2239 280.173 29.2388C282.011 30 284.341 30 289 30C293.659 30 295.989 30 297.827 29.2388C300.277 28.2239 302.224 26.2771 303.239 23.8268C304 21.9891 304 19.6594 304 15C304 10.3406 304 8.01088 303.239 6.17317C302.224 3.72288 300.277 1.77614 297.827 0.761205C295.989 0 293.659 0 289 0C284.341 0 282.011 0 280.173 0.761205C277.723 1.77614 275.776 3.72288 274.761 6.17317ZM295.707 11.7071C296.098 11.3166 296.098 10.6834 295.707 10.2929C295.317 9.90237 294.683 9.90237 294.293 10.2929L287 17.5858L283.707 14.2929C283.317 13.9024 282.683 13.9024 282.293 14.2929C281.902 14.6834 281.902 15.3166 282.293 15.7071L286.293 19.7071C286.48 19.8946 286.735 20 287 20C287.265 20 287.52 19.8946 287.707 19.7071L295.707 11.7071Z" fill="#D0CFD7"/>
<path fill-rule="evenodd" clip-rule="evenodd" d="M183.761 6.17317C183 8.01088 183 10.3406 183 15C183 19.6594 183 21.9891 183.761 23.8268C184.776 26.2771 186.723 28.2239 189.173 29.2388C191.011 30 193.341 30 198 30C202.659 30 204.989 30 206.827 29.2388C209.277 28.2239 211.224 26.2771 212.239 23.8268C213 21.9891 213 19.6594 213 15C213 10.3406 213 8.01088 212.239 6.17317C211.224 3.72288 209.277 1.77614 206.827 0.761205C204.989 0 202.659 0 198 0C193.341 0 191.011 0 189.173 0.761205C186.723 1.77614 184.776 3.72288 183.761 6.17317ZM204.707 11.7071C205.098 11.3166 205.098 10.6834 204.707 10.2929C204.317 9.90237 203.683 9.90237 203.293 10.2929L196 17.5858L192.707 14.2929C192.317 13.9024 191.683 13.9024 191.293 14.2929C190.902 14.6834 190.902 15.3166 191.293 15.7071L195.293 19.7071C195.48 19.8946 195.735 20 196 20C196.265 20 196.52 19.8946 196.707 19.7071L204.707 11.7071Z" fill="#D0CFD7"/>
<defs>
<linearGradient id="paint0_linear_1406_1549" x1="16" y1="56" x2="16" y2="34" gradientUnits="userSpaceOnUse">
<stop stop-color="#5CCC94"/>
<stop offset="1" stop-color="#8CCAAE"/>
</linearGradient>
<linearGradient id="paint1_linear_1406_1549" x1="105" y1="55" x2="105" y2="35" gradientUnits="userSpaceOnUse">
<stop stop-color="#5CCC94"/>
<stop offset="1" stop-color="#8CCAAE"/>
</linearGradient>
<linearGradient id="paint2_linear_1406_1549" x1="58" y1="16" x2="58" y2="14" gradientUnits="userSpaceOnUse">
<stop stop-color="#5CCC94"/>
<stop offset="1" stop-color="#8CCAAE"/>
</linearGradient>
<linearGradient id="paint3_linear_1406_1549" x1="16" y1="30" x2="16" y2="1.58545e-07" gradientUnits="userSpaceOnUse">
<stop stop-color="#5CCC94"/>
<stop offset="1" stop-color="#8CCAAE"/>
</linearGradient>
<linearGradient id="paint4_linear_1406_1549" x1="107" y1="30" x2="107" y2="1.58545e-07" gradientUnits="userSpaceOnUse">
<stop stop-color="#5CCC94"/>
<stop offset="1" stop-color="#8CCAAE"/>
</linearGradient>
</defs>
</svg>
