<svg width="240" height="68" viewBox="0 0 240 68" fill="none" xmlns="http://www.w3.org/2000/svg">
<path d="M21.501 36.8906V44H20.5977L17.751 38.5166V44H16.8525V36.8906H17.751L20.6123 42.3887V36.8906H21.501ZM25.6074 42.7793V38.7168H26.4717V44H25.6514L25.6074 42.7793ZM25.7686 41.666L26.1104 41.6562C26.1104 42.0078 26.0794 42.3333 26.0176 42.6328C25.959 42.929 25.8613 43.1862 25.7246 43.4043C25.5911 43.6224 25.4137 43.7933 25.1924 43.917C24.971 44.0374 24.6992 44.0977 24.377 44.0977C24.1589 44.0977 23.9603 44.0602 23.7812 43.9854C23.6055 43.9105 23.4525 43.7949 23.3223 43.6387C23.1953 43.4824 23.096 43.279 23.0244 43.0283C22.9561 42.7777 22.9219 42.4766 22.9219 42.125V38.7168L23.7812 38.7168V42.1348C23.7812 42.3724 23.8024 42.5693 23.8447 42.7256C23.887 42.8786 23.944 43.0007 24.0156 43.0918C24.0872 43.1797 24.167 43.2415 24.2549 43.2773C24.3428 43.3132 24.4323 43.3311 24.5234 43.3311C24.8294 43.3311 25.0736 43.2578 25.2559 43.1113C25.4382 42.9616 25.5684 42.7614 25.6465 42.5107C25.7279 42.2568 25.7686 41.9753 25.7686 41.666ZM28.6348 39.7666V44H27.7754V38.7168H28.5859L28.6348 39.7666ZM28.459 41.1582L28.0586 41.1436C28.0553 40.7822 28.0911 40.4486 28.166 40.1426C28.2409 39.8333 28.3532 39.5648 28.5029 39.3369C28.6559 39.109 28.8464 38.9333 29.0742 38.8096C29.3053 38.6826 29.5739 38.6191 29.8799 38.6191C30.0817 38.6191 30.2689 38.6549 30.4414 38.7266C30.6172 38.7949 30.7702 38.904 30.9004 39.0537C31.0306 39.2035 31.1315 39.3955 31.2031 39.6299C31.278 39.8643 31.3154 40.1475 31.3154 40.4795V44H30.4512V40.5234C30.4512 40.2467 30.4137 40.0254 30.3389 39.8594C30.2673 39.6934 30.1647 39.5729 30.0312 39.498C29.8978 39.4199 29.7383 39.3809 29.5527 39.3809C29.3411 39.3809 29.1637 39.4281 29.0205 39.5225C28.8805 39.6169 28.7682 39.7471 28.6836 39.9131C28.6022 40.0791 28.5436 40.2695 28.5078 40.4844C28.4753 40.696 28.459 40.9206 28.459 41.1582ZM31.3057 40.6602L30.7295 40.8457C30.7262 40.556 30.762 40.2777 30.8369 40.0107C30.9118 39.7438 31.0225 39.5062 31.1689 39.2979C31.3187 39.0895 31.5042 38.9251 31.7256 38.8047C31.9469 38.681 32.2041 38.6191 32.4971 38.6191C32.738 38.6191 32.9512 38.6566 33.1367 38.7314C33.3223 38.8063 33.4785 38.9219 33.6055 39.0781C33.7357 39.2311 33.8333 39.4281 33.8984 39.6689C33.9635 39.9098 33.9961 40.1963 33.9961 40.5283V44H33.1318V40.5186C33.1318 40.2223 33.0944 39.9928 33.0195 39.8301C32.9479 39.6641 32.8454 39.5485 32.7119 39.4834C32.5785 39.415 32.4189 39.3809 32.2334 39.3809C32.0837 39.3809 31.9502 39.415 31.833 39.4834C31.7191 39.5518 31.623 39.6462 31.5449 39.7666C31.4668 39.8838 31.4066 40.0189 31.3643 40.1719C31.3252 40.3249 31.3057 40.4876 31.3057 40.6602ZM36.1641 39.7666V44H35.3047V38.7168H36.1152L36.1641 39.7666ZM35.9883 41.1582L35.5879 41.1436C35.5846 40.7822 35.6204 40.4486 35.6953 40.1426C35.7702 39.8333 35.8825 39.5648 36.0322 39.3369C36.1852 39.109 36.3757 38.9333 36.6035 38.8096C36.8346 38.6826 37.1032 38.6191 37.4092 38.6191C37.611 38.6191 37.7982 38.6549 37.9707 38.7266C38.1465 38.7949 38.2995 38.904 38.4297 39.0537C38.5599 39.2035 38.6608 39.3955 38.7324 39.6299C38.8073 39.8643 38.8447 40.1475 38.8447 40.4795V44H37.9805V40.5234C37.9805 40.2467 37.943 40.0254 37.8682 39.8594C37.7965 39.6934 37.694 39.5729 37.5605 39.498C37.4271 39.4199 37.2676 39.3809 37.082 39.3809C36.8704 39.3809 36.693 39.4281 36.5498 39.5225C36.4098 39.6169 36.2975 39.7471 36.2129 39.9131C36.1315 40.0791 36.0729 40.2695 36.0371 40.4844C36.0046 40.696 35.9883 40.9206 35.9883 41.1582ZM38.835 40.6602L38.2588 40.8457C38.2555 40.556 38.2913 40.2777 38.3662 40.0107C38.4411 39.7438 38.5518 39.5062 38.6982 39.2979C38.848 39.0895 39.0335 38.9251 39.2549 38.8047C39.4762 38.681 39.7334 38.6191 40.0264 38.6191C40.2673 38.6191 40.4805 38.6566 40.666 38.7314C40.8516 38.8063 41.0078 38.9219 41.1348 39.0781C41.265 39.2311 41.3626 39.4281 41.4277 39.6689C41.4928 39.9098 41.5254 40.1963 41.5254 40.5283V44H40.6611V40.5186C40.6611 40.2223 40.6237 39.9928 40.5488 39.8301C40.4772 39.6641 40.3747 39.5485 40.2412 39.4834C40.1077 39.415 39.9482 39.3809 39.7627 39.3809C39.613 39.3809 39.4795 39.415 39.3623 39.4834C39.2484 39.5518 39.1523 39.6462 39.0742 39.7666C38.9961 39.8838 38.9359 40.0189 38.8936 40.1719C38.8545 40.3249 38.835 40.4876 38.835 40.6602ZM44.7188 44.0977C44.403 44.0977 44.1182 44.0505 43.8643 43.9561C43.6104 43.8617 43.3939 43.7184 43.2148 43.5264C43.0358 43.3311 42.8991 43.0853 42.8047 42.7891C42.7103 42.4928 42.6631 42.1429 42.6631 41.7393V41.1436C42.6631 40.6781 42.7168 40.2842 42.8242 39.9619C42.9349 39.6396 43.083 39.3809 43.2686 39.1855C43.4541 38.987 43.6641 38.8437 43.8984 38.7559C44.1328 38.6647 44.3737 38.6191 44.6211 38.6191C44.9531 38.6191 45.2363 38.6729 45.4707 38.7803C45.7051 38.8877 45.8955 39.0472 46.042 39.2588C46.1885 39.4704 46.2959 39.7308 46.3643 40.04C46.4359 40.3493 46.4717 40.7057 46.4717 41.1094V41.6123H43.1709V40.875H45.6074V40.7529C45.5944 40.4795 45.557 40.2386 45.4951 40.0303C45.4365 39.8219 45.3389 39.6592 45.2021 39.542C45.0654 39.4215 44.8717 39.3613 44.6211 39.3613C44.4616 39.3613 44.3135 39.389 44.1768 39.4443C44.0433 39.4964 43.9277 39.5892 43.8301 39.7227C43.7357 39.8529 43.6608 40.0335 43.6055 40.2646C43.5534 40.4958 43.5273 40.7887 43.5273 41.1436V41.7393C43.5273 42.0225 43.5534 42.2666 43.6055 42.4717C43.6608 42.6735 43.7406 42.8411 43.8447 42.9746C43.9521 43.1048 44.0824 43.2025 44.2354 43.2676C44.3916 43.3294 44.569 43.3604 44.7676 43.3604C45.0573 43.3604 45.2965 43.305 45.4854 43.1943C45.6742 43.0804 45.8385 42.9355 45.9785 42.7598L46.4326 43.3018C46.3382 43.4352 46.2145 43.5638 46.0615 43.6875C45.9118 43.8079 45.7262 43.9072 45.5049 43.9854C45.2868 44.0602 45.0247 44.0977 44.7188 44.0977ZM48.3809 39.5469V44H47.5166V38.7168H48.3516L48.3809 39.5469ZM49.6943 38.6875L49.6992 39.5273C49.6276 39.5111 49.5625 39.5013 49.5039 39.498C49.4486 39.4915 49.3835 39.4883 49.3086 39.4883C49.1458 39.4883 49.0026 39.5208 48.8789 39.5859C48.7585 39.651 48.6543 39.7422 48.5664 39.8594C48.4785 39.9766 48.4085 40.1165 48.3564 40.2793C48.3044 40.4388 48.2686 40.6146 48.249 40.8066L48.0244 40.9531C48.0244 40.6341 48.0488 40.3346 48.0977 40.0547C48.1497 39.7747 48.2295 39.5273 48.3369 39.3125C48.4443 39.0944 48.5811 38.9251 48.7471 38.8047C48.9163 38.681 49.1182 38.6191 49.3525 38.6191C49.4046 38.6191 49.4681 38.6273 49.543 38.6436C49.6211 38.6566 49.6715 38.6712 49.6943 38.6875ZM16.75 47.5V55H15.8857L15.8857 47.5H16.75ZM19.4307 49.7168L17.5508 52.1826L16.3887 53.5205L16.3301 52.5586L17.1309 51.4551L18.3906 49.7168H19.4307ZM18.6396 55L17.1553 52.4805L17.5996 51.6748L19.6455 55H18.6396ZM22.1846 55.0977C21.8688 55.0977 21.584 55.0505 21.3301 54.9561C21.0762 54.8617 20.8597 54.7184 20.6807 54.5264C20.5016 54.3311 20.3649 54.0853 20.2705 53.7891C20.1761 53.4928 20.1289 53.1429 20.1289 52.7393V52.1436C20.1289 51.6781 20.1826 51.2842 20.29 50.9619C20.4007 50.6396 20.5488 50.3809 20.7344 50.1855C20.9199 49.987 21.1299 49.8438 21.3643 49.7559C21.5986 49.6647 21.8395 49.6191 22.0869 49.6191C22.4189 49.6191 22.7021 49.6729 22.9365 49.7803C23.1709 49.8877 23.3613 50.0472 23.5078 50.2588C23.6543 50.4704 23.7617 50.7308 23.8301 51.04C23.9017 51.3493 23.9375 51.7057 23.9375 52.1094V52.6123H20.6367V51.875H23.0732V51.7529C23.0602 51.4795 23.0228 51.2386 22.9609 51.0303C22.9023 50.8219 22.8047 50.6592 22.668 50.542C22.5313 50.4215 22.3376 50.3613 22.0869 50.3613C21.9274 50.3613 21.7793 50.389 21.6426 50.4443C21.5091 50.4964 21.3936 50.5892 21.2959 50.7227C21.2015 50.8529 21.1266 51.0335 21.0713 51.2646C21.0192 51.4958 20.9932 51.7887 20.9932 52.1436V52.7393C20.9932 53.0225 21.0192 53.2666 21.0713 53.4717C21.1266 53.6735 21.2064 53.8411 21.3105 53.9746C21.418 54.1048 21.5482 54.2025 21.7012 54.2676C21.8574 54.3294 22.0348 54.3604 22.2334 54.3604C22.5231 54.3604 22.7624 54.305 22.9512 54.1943C23.14 54.0804 23.3044 53.9355 23.4443 53.7598L23.8984 54.3018C23.804 54.4352 23.6803 54.5638 23.5273 54.6875C23.3776 54.8079 23.1921 54.9072 22.9707 54.9854C22.7526 55.0602 22.4906 55.0977 22.1846 55.0977ZM25.8467 50.8447V55H24.9824V49.7168H25.7979L25.8467 50.8447ZM25.6367 52.1582L25.2852 52.1436C25.2819 51.7822 25.3226 51.4486 25.4072 51.1426C25.4951 50.8333 25.6188 50.5648 25.7783 50.3369C25.9411 50.109 26.1348 49.9333 26.3594 49.8096C26.584 49.6826 26.833 49.6191 27.1064 49.6191C27.3213 49.6191 27.5166 49.6549 27.6924 49.7266C27.8682 49.7949 28.0179 49.9056 28.1416 50.0586C28.2653 50.2116 28.3597 50.4102 28.4248 50.6543C28.4932 50.8952 28.5273 51.1898 28.5273 51.5381V55H27.6631V51.5283C27.6631 51.2516 27.6322 51.0303 27.5703 50.8643C27.5117 50.695 27.4206 50.5729 27.2969 50.498C27.1764 50.4199 27.0234 50.3809 26.8379 50.3809C26.6686 50.3809 26.5107 50.4281 26.3643 50.5225C26.2178 50.6169 26.0892 50.7471 25.9785 50.9131C25.8711 51.0791 25.7865 51.2695 25.7246 51.4844C25.666 51.696 25.6367 51.9206 25.6367 52.1582ZM31.7549 49.7168V50.4102H29.2891V49.7168H31.7549ZM30.0947 48.4326H30.959V53.6914C30.959 53.8704 30.9801 54.0055 31.0225 54.0967C31.068 54.1878 31.125 54.248 31.1934 54.2773C31.2617 54.3066 31.335 54.3213 31.4131 54.3213C31.4717 54.3213 31.5368 54.3148 31.6084 54.3018C31.68 54.2855 31.7288 54.2725 31.7549 54.2627L31.75 55C31.6914 55.0228 31.6133 55.0439 31.5156 55.0635C31.418 55.0863 31.2943 55.0977 31.1445 55.0977C30.959 55.0977 30.7865 55.0537 30.627 54.9658C30.4674 54.8779 30.3389 54.7314 30.2412 54.5264C30.1436 54.318 30.0947 54.0381 30.0947 53.6865V48.4326ZM34.6748 55.0977C34.359 55.0977 34.0742 55.0505 33.8203 54.9561C33.5664 54.8617 33.3499 54.7184 33.1709 54.5264C32.9919 54.3311 32.8551 54.0853 32.7607 53.7891C32.6663 53.4928 32.6191 53.1429 32.6191 52.7393V52.1436C32.6191 51.6781 32.6729 51.2842 32.7803 50.9619C32.891 50.6396 33.0391 50.3809 33.2246 50.1855C33.4102 49.987 33.6201 49.8437 33.8545 49.7559C34.0889 49.6647 34.3298 49.6191 34.5771 49.6191C34.9092 49.6191 35.1924 49.6729 35.4268 49.7803C35.6611 49.8877 35.8516 50.0472 35.998 50.2588C36.1445 50.4704 36.252 50.7308 36.3203 51.04C36.3919 51.3493 36.4277 51.7057 36.4277 52.1094V52.6123L33.127 52.6123V51.875L35.5635 51.875V51.7529C35.5505 51.4795 35.513 51.2386 35.4512 51.0303C35.3926 50.8219 35.2949 50.6592 35.1582 50.542C35.0215 50.4215 34.8278 50.3613 34.5771 50.3613C34.4176 50.3613 34.2695 50.389 34.1328 50.4443C33.9993 50.4964 33.8838 50.5892 33.7861 50.7227C33.6917 50.8529 33.6169 51.0335 33.5615 51.2646C33.5094 51.4958 33.4834 51.7887 33.4834 52.1436V52.7393C33.4834 53.0225 33.5094 53.2666 33.5615 53.4717C33.6169 53.6735 33.6966 53.8411 33.8008 53.9746C33.9082 54.1048 34.0384 54.2025 34.1914 54.2676C34.3477 54.3294 34.5251 54.3604 34.7236 54.3604C35.0133 54.3604 35.2526 54.305 35.4414 54.1943C35.6302 54.0804 35.7946 53.9355 35.9346 53.7598L36.3887 54.3018C36.2943 54.4352 36.1706 54.5638 36.0176 54.6875C35.8678 54.8079 35.6823 54.9072 35.4609 54.9854C35.2428 55.0602 34.9808 55.0977 34.6748 55.0977ZM38.3418 47.5V55H37.4775V47.5H38.3418ZM41.0225 49.7168L39.1426 52.1826L37.9805 53.5205L37.9219 52.5586L38.7227 51.4551L39.9824 49.7168H41.0225ZM40.2314 55L38.7471 52.4805L39.1914 51.6748L41.2373 55H40.2314ZM43.7764 55.0977C43.4606 55.0977 43.1758 55.0505 42.9219 54.9561C42.668 54.8617 42.4515 54.7184 42.2725 54.5264C42.0934 54.3311 41.9567 54.0853 41.8623 53.7891C41.7679 53.4928 41.7207 53.1429 41.7207 52.7393V52.1436C41.7207 51.6781 41.7744 51.2842 41.8818 50.9619C41.9925 50.6396 42.1406 50.3809 42.3262 50.1855C42.5117 49.987 42.7217 49.8437 42.9561 49.7559C43.1904 49.6647 43.4313 49.6191 43.6787 49.6191C44.0107 49.6191 44.2939 49.6729 44.5283 49.7803C44.7627 49.8877 44.9531 50.0472 45.0996 50.2588C45.2461 50.4704 45.3535 50.7308 45.4219 51.04C45.4935 51.3493 45.5293 51.7057 45.5293 52.1094V52.6123H42.2285V51.875H44.665V51.7529C44.652 51.4795 44.6146 51.2386 44.5527 51.0303C44.4941 50.8219 44.3965 50.6592 44.2598 50.542C44.123 50.4215 43.9294 50.3613 43.6787 50.3613C43.5192 50.3613 43.3711 50.389 43.2344 50.4443C43.1009 50.4964 42.9854 50.5892 42.8877 50.7227C42.7933 50.8529 42.7184 51.0335 42.6631 51.2646C42.611 51.4958 42.585 51.7887 42.585 52.1436V52.7393C42.585 53.0225 42.611 53.2666 42.6631 53.4717C42.7184 53.6735 42.7982 53.8411 42.9023 53.9746C43.0098 54.1048 43.14 54.2025 43.293 54.2676C43.4492 54.3294 43.6266 54.3604 43.8252 54.3604C44.1149 54.3604 44.3542 54.305 44.543 54.1943C44.7318 54.0804 44.8962 53.9355 45.0361 53.7598L45.4902 54.3018C45.3958 54.4352 45.2721 54.5638 45.1191 54.6875C44.9694 54.8079 44.7839 54.9072 44.5625 54.9854C44.3444 55.0602 44.0824 55.0977 43.7764 55.0977ZM47.4385 50.8447V55H46.5742V49.7168H47.3896L47.4385 50.8447ZM47.2285 52.1582L46.877 52.1436C46.8737 51.7822 46.9144 51.4486 46.999 51.1426C47.0869 50.8333 47.2106 50.5648 47.3701 50.3369C47.5329 50.109 47.7266 49.9333 47.9512 49.8096C48.1758 49.6826 48.4248 49.6191 48.6982 49.6191C48.9131 49.6191 49.1084 49.6549 49.2842 49.7266C49.46 49.7949 49.6097 49.9056 49.7334 50.0586C49.8571 50.2116 49.9515 50.4102 50.0166 50.6543C50.085 50.8952 50.1191 51.1898 50.1191 51.5381V55H49.2549V51.5283C49.2549 51.2516 49.224 51.0303 49.1621 50.8643C49.1035 50.695 49.0124 50.5729 48.8887 50.498C48.7682 50.4199 48.6152 50.3809 48.4297 50.3809C48.2604 50.3809 48.1025 50.4281 47.9561 50.5225C47.8096 50.6169 47.681 50.7471 47.5703 50.9131C47.4629 51.0791 47.3783 51.2695 47.3164 51.4844C47.2578 51.696 47.2285 51.9206 47.2285 52.1582Z" fill="url(#paint0_linear_363_3053)"/>
<path d="M103.86 40.8906V48H102.962V40.8906H103.86ZM106.258 44.0889V44.8604H103.689V44.0889H106.258ZM106.663 40.8906V41.6621H103.689V40.8906H106.663ZM110.081 47.0967V44.2305C110.081 44.0221 110.049 43.8545 109.983 43.7275C109.922 43.6006 109.827 43.5078 109.7 43.4492C109.576 43.3906 109.42 43.3613 109.231 43.3613C109.049 43.3613 108.891 43.3988 108.758 43.4736C108.628 43.5485 108.527 43.6478 108.455 43.7715C108.387 43.8952 108.353 44.0319 108.353 44.1816H107.488C107.488 43.9928 107.529 43.8057 107.61 43.6201C107.695 43.4346 107.815 43.2669 107.972 43.1172C108.128 42.9642 108.315 42.8438 108.533 42.7559C108.755 42.6647 109.002 42.6191 109.275 42.6191C109.601 42.6191 109.889 42.6729 110.14 42.7803C110.39 42.8844 110.587 43.0553 110.73 43.293C110.874 43.5306 110.945 43.8464 110.945 44.2402V46.8477C110.945 47.0234 110.958 47.2106 110.984 47.4092C111.014 47.6077 111.054 47.7786 111.106 47.9219V48H110.213C110.171 47.8958 110.138 47.7575 110.115 47.585C110.092 47.4092 110.081 47.2464 110.081 47.0967ZM110.218 44.7969L110.228 45.4316H109.627C109.422 45.4316 109.235 45.4544 109.065 45.5C108.899 45.5456 108.756 45.6123 108.636 45.7002C108.515 45.7848 108.423 45.8906 108.357 46.0176C108.296 46.1445 108.265 46.2894 108.265 46.4521C108.265 46.6637 108.294 46.833 108.353 46.96C108.411 47.0837 108.499 47.1732 108.616 47.2285C108.733 47.2839 108.882 47.3115 109.061 47.3115C109.279 47.3115 109.471 47.2611 109.637 47.1602C109.803 47.0592 109.931 46.9372 110.022 46.7939C110.117 46.6507 110.161 46.5173 110.154 46.3936L110.345 46.7988C110.332 46.9258 110.289 47.0641 110.218 47.2139C110.149 47.3604 110.053 47.502 109.93 47.6387C109.806 47.7721 109.66 47.8828 109.49 47.9707C109.324 48.0553 109.137 48.0977 108.929 48.0977C108.623 48.0977 108.354 48.0391 108.123 47.9219C107.895 47.8047 107.718 47.6322 107.591 47.4043C107.464 47.1764 107.4 46.8949 107.4 46.5596C107.4 46.3057 107.444 46.0713 107.532 45.8564C107.62 45.6416 107.75 45.4561 107.923 45.2998C108.095 45.1403 108.312 45.0166 108.572 44.9287C108.836 44.8408 109.14 44.7969 109.485 44.7969H110.218ZM114.119 47.3604C114.292 47.3604 114.448 47.3262 114.588 47.2578C114.731 47.1862 114.848 47.0755 114.939 46.9258C115.031 46.7728 115.083 46.5742 115.096 46.3301H115.906C115.893 46.6816 115.804 46.9909 115.638 47.2578C115.475 47.5215 115.26 47.7282 114.993 47.8779C114.729 48.0244 114.438 48.0977 114.119 48.0977C113.777 48.0977 113.479 48.0423 113.226 47.9316C112.975 47.821 112.767 47.6615 112.601 47.4531C112.438 47.2415 112.316 46.986 112.234 46.6865C112.153 46.3838 112.112 46.0404 112.112 45.6562V45.0605C112.112 44.6764 112.153 44.3346 112.234 44.0352C112.316 43.7324 112.438 43.4769 112.601 43.2686C112.767 43.057 112.975 42.8958 113.226 42.7852C113.479 42.6745 113.777 42.6191 114.119 42.6191C114.477 42.6191 114.786 42.6956 115.047 42.8486C115.311 42.9984 115.516 43.2165 115.662 43.5029C115.812 43.7861 115.893 44.1296 115.906 44.5332H115.096C115.083 44.2728 115.035 44.0563 114.954 43.8838C114.873 43.708 114.762 43.5778 114.622 43.4932C114.482 43.4053 114.314 43.3613 114.119 43.3613C113.891 43.3613 113.702 43.402 113.553 43.4834C113.406 43.5615 113.291 43.6755 113.206 43.8252C113.121 43.9749 113.061 44.154 113.025 44.3623C112.993 44.5706 112.977 44.8034 112.977 45.0605V45.6562C112.977 45.9134 112.993 46.1478 113.025 46.3594C113.061 46.5677 113.12 46.7467 113.201 46.8965C113.286 47.0462 113.403 47.1618 113.553 47.2432C113.702 47.3213 113.891 47.3604 114.119 47.3604ZM118.836 42.7168V43.4102H116.37V42.7168H118.836ZM117.176 41.4326H118.04V46.6914C118.04 46.8704 118.061 47.0055 118.104 47.0967C118.149 47.1878 118.206 47.248 118.274 47.2773C118.343 47.3066 118.416 47.3213 118.494 47.3213C118.553 47.3213 118.618 47.3148 118.689 47.3018C118.761 47.2855 118.81 47.2725 118.836 47.2627L118.831 48C118.772 48.0228 118.694 48.0439 118.597 48.0635C118.499 48.0863 118.375 48.0977 118.226 48.0977C118.04 48.0977 117.868 48.0537 117.708 47.9658C117.549 47.8779 117.42 47.7314 117.322 47.5264C117.225 47.318 117.176 47.0381 117.176 46.6865V41.4326ZM122.537 46.7793V42.7168H123.401V48H122.581L122.537 46.7793ZM122.698 45.666L123.04 45.6562C123.04 46.0078 123.009 46.3333 122.947 46.6328C122.889 46.929 122.791 47.1862 122.654 47.4043C122.521 47.6224 122.343 47.7933 122.122 47.917C121.901 48.0374 121.629 48.0977 121.307 48.0977C121.089 48.0977 120.89 48.0602 120.711 47.9854C120.535 47.9105 120.382 47.7949 120.252 47.6387C120.125 47.4824 120.026 47.279 119.954 47.0283C119.886 46.7777 119.852 46.4766 119.852 46.125V42.7168H120.711V46.1348C120.711 46.3724 120.732 46.5693 120.774 46.7256C120.817 46.8786 120.874 47.0007 120.945 47.0918C121.017 47.1797 121.097 47.2415 121.185 47.2773C121.272 47.3132 121.362 47.3311 121.453 47.3311C121.759 47.3311 122.003 47.2578 122.186 47.1113C122.368 46.9616 122.498 46.7614 122.576 46.5107C122.658 46.2568 122.698 45.9753 122.698 45.666ZM125.564 43.5469V48H124.7V42.7168H125.535L125.564 43.5469ZM126.878 42.6875L126.883 43.5273C126.811 43.5111 126.746 43.5013 126.688 43.498C126.632 43.4915 126.567 43.4883 126.492 43.4883C126.329 43.4883 126.186 43.5208 126.062 43.5859C125.942 43.651 125.838 43.7422 125.75 43.8594C125.662 43.9766 125.592 44.1165 125.54 44.2793C125.488 44.4388 125.452 44.6146 125.433 44.8066L125.208 44.9531C125.208 44.6341 125.232 44.3346 125.281 44.0547C125.333 43.7747 125.413 43.5273 125.521 43.3125C125.628 43.0944 125.765 42.9251 125.931 42.8047C126.1 42.681 126.302 42.6191 126.536 42.6191C126.588 42.6191 126.652 42.6273 126.727 42.6436C126.805 42.6566 126.855 42.6712 126.878 42.6875ZM129.539 48.0977C129.223 48.0977 128.938 48.0505 128.685 47.9561C128.431 47.8617 128.214 47.7184 128.035 47.5264C127.856 47.3311 127.719 47.0853 127.625 46.7891C127.531 46.4928 127.483 46.1429 127.483 45.7393V45.1436C127.483 44.6781 127.537 44.2842 127.645 43.9619C127.755 43.6396 127.903 43.3809 128.089 43.1855C128.274 42.987 128.484 42.8437 128.719 42.7559C128.953 42.6647 129.194 42.6191 129.441 42.6191C129.773 42.6191 130.057 42.6729 130.291 42.7803C130.525 42.8877 130.716 43.0472 130.862 43.2588C131.009 43.4704 131.116 43.7308 131.185 44.04C131.256 44.3493 131.292 44.7057 131.292 45.1094V45.6123L127.991 45.6123V44.875L130.428 44.875V44.7529C130.415 44.4795 130.377 44.2386 130.315 44.0303C130.257 43.8219 130.159 43.6592 130.022 43.542C129.886 43.4215 129.692 43.3613 129.441 43.3613C129.282 43.3613 129.134 43.389 128.997 43.4443C128.864 43.4964 128.748 43.5892 128.65 43.7227C128.556 43.8529 128.481 44.0335 128.426 44.2646C128.374 44.4958 128.348 44.7887 128.348 45.1436V45.7393C128.348 46.0225 128.374 46.2666 128.426 46.4717C128.481 46.6735 128.561 46.8411 128.665 46.9746C128.772 47.1048 128.903 47.2025 129.056 47.2676C129.212 47.3294 129.389 47.3604 129.588 47.3604C129.878 47.3604 130.117 47.305 130.306 47.1943C130.494 47.0804 130.659 46.9355 130.799 46.7598L131.253 47.3018C131.159 47.4352 131.035 47.5638 130.882 47.6875C130.732 47.8079 130.547 47.9072 130.325 47.9854C130.107 48.0602 129.845 48.0977 129.539 48.0977ZM133.201 43.5469V48H132.337V42.7168H133.172L133.201 43.5469ZM134.515 42.6875L134.52 43.5273C134.448 43.5111 134.383 43.5013 134.324 43.498C134.269 43.4915 134.204 43.4883 134.129 43.4883C133.966 43.4883 133.823 43.5208 133.699 43.5859C133.579 43.651 133.475 43.7422 133.387 43.8594C133.299 43.9766 133.229 44.1165 133.177 44.2793C133.125 44.4388 133.089 44.6146 133.069 44.8066L132.845 44.9531C132.845 44.6341 132.869 44.3346 132.918 44.0547C132.97 43.7747 133.05 43.5273 133.157 43.3125C133.265 43.0944 133.401 42.9251 133.567 42.8047C133.737 42.681 133.938 42.6191 134.173 42.6191C134.225 42.6191 134.288 42.6273 134.363 42.6436C134.441 42.6566 134.492 42.6712 134.515 42.6875ZM136.312 42.7168V48H135.452V42.7168H136.312ZM135.403 41.3154C135.403 41.1689 135.444 41.0452 135.525 40.9443C135.607 40.8434 135.729 40.793 135.892 40.793C136.054 40.793 136.176 40.8434 136.258 40.9443C136.342 41.0452 136.385 41.1689 136.385 41.3154C136.385 41.4554 136.342 41.5758 136.258 41.6768C136.176 41.7744 136.054 41.8232 135.892 41.8232C135.729 41.8232 135.607 41.7744 135.525 41.6768C135.444 41.5758 135.403 41.4554 135.403 41.3154ZM138.543 43.8447V48H137.679V42.7168H138.494L138.543 43.8447ZM138.333 45.1582L137.981 45.1436C137.978 44.7822 138.019 44.4486 138.104 44.1426C138.191 43.8333 138.315 43.5648 138.475 43.3369C138.637 43.109 138.831 42.9333 139.056 42.8096C139.28 42.6826 139.529 42.6191 139.803 42.6191C140.018 42.6191 140.213 42.6549 140.389 42.7266C140.564 42.7949 140.714 42.9056 140.838 43.0586C140.962 43.2116 141.056 43.4102 141.121 43.6543C141.189 43.8952 141.224 44.1898 141.224 44.5381V48H140.359V44.5283C140.359 44.2516 140.328 44.0303 140.267 43.8643C140.208 43.695 140.117 43.5729 139.993 43.498C139.873 43.4199 139.72 43.3809 139.534 43.3809C139.365 43.3809 139.207 43.4281 139.061 43.5225C138.914 43.6169 138.785 43.7471 138.675 43.9131C138.567 44.0791 138.483 44.2695 138.421 44.4844C138.362 44.696 138.333 44.9206 138.333 45.1582ZM145.384 42.7168H146.16V48.0439C146.16 48.5094 146.079 48.8936 145.916 49.1963C145.757 49.499 145.534 49.722 145.247 49.8652C144.961 50.0117 144.63 50.085 144.256 50.085C144.122 50.085 143.955 50.0605 143.753 50.0117C143.551 49.9629 143.349 49.888 143.147 49.7871C142.946 49.6895 142.78 49.5658 142.649 49.416L143.006 48.8154C143.191 49.0042 143.388 49.1393 143.597 49.2207C143.805 49.3021 144.004 49.3428 144.192 49.3428C144.417 49.3428 144.612 49.3021 144.778 49.2207C144.944 49.1393 145.073 49.0059 145.164 48.8203C145.255 48.638 145.301 48.3939 145.301 48.0879V43.8789L145.384 42.7168ZM142.347 45.6123V45.1191C142.347 44.6829 142.387 44.3086 142.469 43.9961C142.55 43.6803 142.667 43.4215 142.82 43.2197C142.977 43.0146 143.164 42.8633 143.382 42.7656C143.6 42.668 143.844 42.6191 144.114 42.6191C144.388 42.6191 144.624 42.6745 144.822 42.7852C145.021 42.8958 145.185 43.057 145.315 43.2686C145.449 43.4769 145.553 43.7308 145.628 44.0303C145.706 44.3265 145.76 44.6618 145.789 45.0361V45.6953C145.76 46.0664 145.706 46.4001 145.628 46.6963C145.553 46.9925 145.447 47.2448 145.311 47.4531C145.177 47.6615 145.011 47.821 144.812 47.9316C144.614 48.0423 144.378 48.0977 144.104 48.0977C143.838 48.0977 143.597 48.0472 143.382 47.9463C143.167 47.8421 142.981 47.6875 142.825 47.4824C142.672 47.2741 142.553 47.0153 142.469 46.7061C142.387 46.3936 142.347 46.029 142.347 45.6123ZM143.211 45.1191V45.6123C143.211 45.9053 143.232 46.1608 143.274 46.3789C143.317 46.5937 143.382 46.7728 143.47 46.916C143.561 47.056 143.676 47.1602 143.816 47.2285C143.96 47.2969 144.131 47.3311 144.329 47.3311C144.57 47.3311 144.767 47.2725 144.92 47.1553C145.073 47.0381 145.195 46.8835 145.286 46.6914C145.381 46.4961 145.455 46.2861 145.511 46.0615V44.6748C145.478 44.5088 145.431 44.3493 145.369 44.1963C145.311 44.04 145.234 43.9017 145.14 43.7812C145.045 43.6576 144.931 43.5599 144.798 43.4883C144.668 43.4167 144.515 43.3809 144.339 43.3809C144.14 43.3809 143.969 43.4167 143.826 43.4883C143.683 43.5599 143.566 43.6673 143.475 43.8105C143.383 43.9538 143.317 44.1344 143.274 44.3525C143.232 44.5706 143.211 44.8262 143.211 45.1191Z" fill="url(#paint1_linear_363_3053)"/>
<path d="M193.514 42.9209L195.223 36.8906H196.199L193.992 44H193.304L193.514 42.9209ZM191.98 36.8906L193.675 42.9209L193.899 44H193.211L191.004 36.8906H191.98ZM198.724 44.0977C198.408 44.0977 198.123 44.0505 197.869 43.9561C197.615 43.8617 197.399 43.7184 197.22 43.5264C197.041 43.3311 196.904 43.0853 196.81 42.7891C196.715 42.4928 196.668 42.1429 196.668 41.7393V41.1436C196.668 40.6781 196.722 40.2842 196.829 39.9619C196.94 39.6396 197.088 39.3809 197.273 39.1855C197.459 38.987 197.669 38.8438 197.903 38.7559C198.138 38.6647 198.379 38.6191 198.626 38.6191C198.958 38.6191 199.241 38.6729 199.476 38.7803C199.71 38.8877 199.9 39.0472 200.047 39.2588C200.193 39.4704 200.301 39.7308 200.369 40.04C200.441 40.3493 200.477 40.7057 200.477 41.1094V41.6123H197.176V40.875H199.612V40.7529C199.599 40.4795 199.562 40.2386 199.5 40.0303C199.441 39.8219 199.344 39.6592 199.207 39.542C199.07 39.4215 198.877 39.3613 198.626 39.3613C198.466 39.3613 198.318 39.389 198.182 39.4443C198.048 39.4964 197.933 39.5892 197.835 39.7227C197.741 39.8529 197.666 40.0335 197.61 40.2646C197.558 40.4958 197.532 40.7887 197.532 41.1436V41.7393C197.532 42.0225 197.558 42.2666 197.61 42.4717C197.666 42.6735 197.745 42.8411 197.85 42.9746C197.957 43.1048 198.087 43.2025 198.24 43.2676C198.396 43.3294 198.574 43.3604 198.772 43.3604C199.062 43.3604 199.301 43.305 199.49 43.1943C199.679 43.0804 199.843 42.9355 199.983 42.7598L200.438 43.3018C200.343 43.4352 200.219 43.5638 200.066 43.6875C199.917 43.8079 199.731 43.9072 199.51 43.9854C199.292 44.0602 199.03 44.0977 198.724 44.0977ZM202.386 39.5469V44H201.521V38.7168H202.356L202.386 39.5469ZM203.699 38.6875L203.704 39.5273C203.632 39.5111 203.567 39.5013 203.509 39.498C203.453 39.4915 203.388 39.4883 203.313 39.4883C203.151 39.4883 203.007 39.5208 202.884 39.5859C202.763 39.651 202.659 39.7422 202.571 39.8594C202.483 39.9766 202.413 40.1165 202.361 40.2793C202.309 40.4388 202.273 40.6146 202.254 40.8066L202.029 40.9531C202.029 40.6341 202.054 40.3346 202.103 40.0547C202.155 39.7747 202.234 39.5273 202.342 39.3125C202.449 39.0944 202.586 38.9251 202.752 38.8047C202.921 38.681 203.123 38.6191 203.357 38.6191C203.41 38.6191 203.473 38.6273 203.548 38.6436C203.626 38.6566 203.676 38.6712 203.699 38.6875ZM205.496 38.7168V44H204.637V38.7168H205.496ZM204.588 37.3154C204.588 37.1689 204.629 37.0452 204.71 36.9443C204.791 36.8434 204.913 36.793 205.076 36.793C205.239 36.793 205.361 36.8434 205.442 36.9443C205.527 37.0452 205.569 37.1689 205.569 37.3154C205.569 37.4554 205.527 37.5758 205.442 37.6768C205.361 37.7744 205.239 37.8232 205.076 37.8232C204.913 37.8232 204.791 37.7744 204.71 37.6768C204.629 37.5758 204.588 37.4554 204.588 37.3154ZM207.967 44H207.103V38.2578C207.103 37.8574 207.169 37.5189 207.303 37.2422C207.439 36.9655 207.633 36.7555 207.884 36.6123C208.138 36.4691 208.437 36.3975 208.782 36.3975C208.987 36.3975 209.184 36.4268 209.373 36.4854C209.562 36.5407 209.757 36.6107 209.959 36.6953L209.812 37.457C209.695 37.3984 209.552 37.3431 209.383 37.291C209.214 37.2357 209.036 37.208 208.851 37.208C208.525 37.208 208.296 37.2959 208.162 37.4717C208.032 37.6442 207.967 37.9062 207.967 38.2578V44ZM208.821 38.7168V39.4102H206.414V38.7168H208.821ZM210.374 38.7168V44H209.51V38.7168H210.374ZM213.597 43.3604C213.769 43.3604 213.925 43.3262 214.065 43.2578C214.209 43.1862 214.326 43.0755 214.417 42.9258C214.508 42.7728 214.56 42.5742 214.573 42.3301H215.384C215.371 42.6816 215.281 42.9909 215.115 43.2578C214.952 43.5215 214.738 43.7282 214.471 43.8779C214.207 44.0244 213.916 44.0977 213.597 44.0977C213.255 44.0977 212.957 44.0423 212.703 43.9316C212.452 43.821 212.244 43.6615 212.078 43.4531C211.915 43.2415 211.793 42.986 211.712 42.6865C211.631 42.3838 211.59 42.0404 211.59 41.6562V41.0605C211.59 40.6764 211.631 40.3346 211.712 40.0352C211.793 39.7324 211.915 39.4769 212.078 39.2686C212.244 39.057 212.452 38.8958 212.703 38.7852C212.957 38.6745 213.255 38.6191 213.597 38.6191C213.955 38.6191 214.264 38.6956 214.524 38.8486C214.788 38.9984 214.993 39.2165 215.14 39.5029C215.289 39.7861 215.371 40.1296 215.384 40.5332H214.573C214.56 40.2728 214.513 40.0563 214.432 39.8838C214.35 39.708 214.24 39.5778 214.1 39.4932C213.96 39.4053 213.792 39.3613 213.597 39.3613C213.369 39.3613 213.18 39.402 213.03 39.4834C212.884 39.5615 212.768 39.6755 212.684 39.8252C212.599 39.9749 212.539 40.154 212.503 40.3623C212.47 40.5706 212.454 40.8034 212.454 41.0605V41.6562C212.454 41.9134 212.47 42.1478 212.503 42.3594C212.539 42.5677 212.597 42.7467 212.679 42.8965C212.763 43.0462 212.881 43.1618 213.03 43.2432C213.18 43.3213 213.369 43.3604 213.597 43.3604ZM218.973 43.0967V40.2305C218.973 40.0221 218.94 39.8545 218.875 39.7275C218.813 39.6006 218.719 39.5078 218.592 39.4492C218.468 39.3906 218.312 39.3613 218.123 39.3613C217.941 39.3613 217.783 39.3988 217.649 39.4736C217.519 39.5485 217.418 39.6478 217.347 39.7715C217.278 39.8952 217.244 40.0319 217.244 40.1816H216.38C216.38 39.9928 216.421 39.8057 216.502 39.6201C216.587 39.4346 216.707 39.2669 216.863 39.1172C217.02 38.9642 217.207 38.8437 217.425 38.7559C217.646 38.6647 217.894 38.6191 218.167 38.6191C218.493 38.6191 218.781 38.6729 219.031 38.7803C219.282 38.8844 219.479 39.0553 219.622 39.293C219.765 39.5306 219.837 39.8464 219.837 40.2402V42.8477C219.837 43.0234 219.85 43.2106 219.876 43.4092C219.905 43.6077 219.946 43.7786 219.998 43.9219V44H219.104C219.062 43.8958 219.03 43.7575 219.007 43.585C218.984 43.4092 218.973 43.2464 218.973 43.0967ZM219.109 40.7969L219.119 41.4316H218.519C218.313 41.4316 218.126 41.4544 217.957 41.5C217.791 41.5456 217.648 41.6123 217.527 41.7002C217.407 41.7848 217.314 41.8906 217.249 42.0176C217.187 42.1445 217.156 42.2894 217.156 42.4521C217.156 42.6637 217.186 42.833 217.244 42.96C217.303 43.0837 217.391 43.1732 217.508 43.2285C217.625 43.2839 217.773 43.3115 217.952 43.3115C218.17 43.3115 218.362 43.2611 218.528 43.1602C218.694 43.0592 218.823 42.9372 218.914 42.7939C219.008 42.6507 219.052 42.5173 219.046 42.3936L219.236 42.7988C219.223 42.9258 219.181 43.0641 219.109 43.2139C219.041 43.3604 218.945 43.502 218.821 43.6387C218.698 43.7721 218.551 43.8828 218.382 43.9707C218.216 44.0553 218.029 44.0977 217.82 44.0977C217.514 44.0977 217.246 44.0391 217.015 43.9219C216.787 43.8047 216.609 43.6322 216.482 43.4043C216.355 43.1764 216.292 42.8949 216.292 42.5596C216.292 42.3057 216.336 42.0713 216.424 41.8564C216.512 41.6416 216.642 41.4561 216.814 41.2998C216.987 41.1403 217.203 41.0166 217.464 40.9287C217.728 40.8408 218.032 40.7969 218.377 40.7969H219.109ZM223.108 38.7168V39.4102H220.643V38.7168H223.108ZM221.448 37.4326H222.312V42.6914C222.312 42.8704 222.334 43.0055 222.376 43.0967C222.422 43.1878 222.479 43.248 222.547 43.2773C222.615 43.3066 222.688 43.3213 222.767 43.3213C222.825 43.3213 222.89 43.3148 222.962 43.3018C223.034 43.2855 223.082 43.2725 223.108 43.2627L223.104 44C223.045 44.0228 222.967 44.0439 222.869 44.0635C222.771 44.0863 222.648 44.0977 222.498 44.0977C222.312 44.0977 222.14 44.0537 221.98 43.9658C221.821 43.8779 221.692 43.7314 221.595 43.5264C221.497 43.318 221.448 43.0381 221.448 42.6865V37.4326ZM225.066 38.7168V44H224.207V38.7168H225.066ZM224.158 37.3154C224.158 37.1689 224.199 37.0452 224.28 36.9443C224.362 36.8434 224.484 36.793 224.646 36.793C224.809 36.793 224.931 36.8434 225.013 36.9443C225.097 37.0452 225.14 37.1689 225.14 37.3154C225.14 37.4554 225.097 37.5758 225.013 37.6768C224.931 37.7744 224.809 37.8232 224.646 37.8232C224.484 37.8232 224.362 37.7744 224.28 37.6768C224.199 37.5758 224.158 37.4554 224.158 37.3154ZM228.323 44.0977C228.007 44.0977 227.723 44.0505 227.469 43.9561C227.215 43.8617 226.998 43.7184 226.819 43.5264C226.64 43.3311 226.504 43.0853 226.409 42.7891C226.315 42.4928 226.268 42.1429 226.268 41.7393V41.1436C226.268 40.6781 226.321 40.2842 226.429 39.9619C226.539 39.6396 226.688 39.3809 226.873 39.1855C227.059 38.987 227.269 38.8437 227.503 38.7559C227.737 38.6647 227.978 38.6191 228.226 38.6191C228.558 38.6191 228.841 38.6729 229.075 38.7803C229.31 38.8877 229.5 39.0472 229.646 39.2588C229.793 39.4704 229.9 39.7308 229.969 40.04C230.04 40.3493 230.076 40.7057 230.076 41.1094V41.6123H226.775V40.875H229.212V40.7529C229.199 40.4795 229.161 40.2386 229.1 40.0303C229.041 39.8219 228.943 39.6592 228.807 39.542C228.67 39.4215 228.476 39.3613 228.226 39.3613C228.066 39.3613 227.918 39.389 227.781 39.4443C227.648 39.4964 227.532 39.5892 227.435 39.7227C227.34 39.8529 227.265 40.0335 227.21 40.2646C227.158 40.4958 227.132 40.7887 227.132 41.1436V41.7393C227.132 42.0225 227.158 42.2666 227.21 42.4717C227.265 42.6735 227.345 42.8411 227.449 42.9746C227.557 43.1048 227.687 43.2025 227.84 43.2676C227.996 43.3294 228.174 43.3604 228.372 43.3604C228.662 43.3604 228.901 43.305 229.09 43.1943C229.279 43.0804 229.443 42.9355 229.583 42.7598L230.037 43.3018C229.943 43.4352 229.819 43.5638 229.666 43.6875C229.516 43.8079 229.331 43.9072 229.109 43.9854C228.891 44.0602 228.629 44.0977 228.323 44.0977ZM234.573 40.0547L235.447 39.2979C235.62 39.1579 235.748 39.0179 235.833 38.8779C235.918 38.7347 235.96 38.5394 235.96 38.292C235.96 38.0999 235.9 37.9258 235.779 37.7695C235.662 37.61 235.494 37.5303 235.276 37.5303C235.13 37.5303 235.006 37.5742 234.905 37.6621C234.804 37.75 234.728 37.8672 234.676 38.0137C234.627 38.1569 234.603 38.3148 234.603 38.4873C234.603 38.6338 234.633 38.7852 234.695 38.9414C234.76 39.0977 234.847 39.2604 234.954 39.4297C235.062 39.599 235.184 39.778 235.32 39.9668L238.118 44H237.088L234.827 40.6992C234.622 40.4128 234.437 40.1507 234.271 39.9131C234.108 39.6722 233.978 39.4395 233.88 39.2148C233.785 38.9902 233.738 38.7575 233.738 38.5166C233.738 38.1455 233.802 37.833 233.929 37.5791C234.059 37.3219 234.24 37.1266 234.471 36.9932C234.702 36.8597 234.972 36.793 235.281 36.793C235.584 36.793 235.844 36.863 236.062 37.0029C236.284 37.1396 236.455 37.3219 236.575 37.5498C236.696 37.7744 236.756 38.0218 236.756 38.292C236.756 38.5199 236.723 38.7249 236.658 38.9072C236.593 39.0863 236.499 39.2507 236.375 39.4004C236.255 39.5501 236.11 39.6966 235.94 39.8398L234.72 40.8896C234.537 41.0622 234.404 41.2266 234.319 41.3828C234.238 41.5391 234.186 41.6774 234.163 41.7979C234.144 41.9183 234.134 42.0143 234.134 42.0859C234.134 42.3171 234.173 42.5286 234.251 42.7207C234.332 42.9128 234.454 43.0674 234.617 43.1846C234.78 43.2985 234.985 43.3555 235.232 43.3555C235.451 43.3555 235.662 43.2936 235.867 43.1699C236.076 43.043 236.263 42.8639 236.429 42.6328C236.595 42.3984 236.727 42.1201 236.824 41.7979C236.925 41.4723 236.976 41.1126 236.976 40.7187H237.747C237.747 41.041 237.721 41.3454 237.669 41.6318C237.617 41.9183 237.534 42.1852 237.42 42.4326C237.309 42.6768 237.166 42.8997 236.99 43.1016C236.967 43.1309 236.948 43.165 236.932 43.2041C236.915 43.2432 236.896 43.2773 236.873 43.3066C236.668 43.5703 236.414 43.7689 236.111 43.9023C235.812 44.0326 235.519 44.0977 235.232 44.0977C234.829 44.0977 234.48 44.0114 234.188 43.8389C233.895 43.6663 233.668 43.4287 233.509 43.126C233.349 42.8232 233.27 42.4766 233.27 42.0859C233.27 41.7865 233.325 41.5228 233.436 41.2949C233.546 41.0671 233.699 40.8538 233.895 40.6553C234.093 40.4567 234.319 40.2565 234.573 40.0547ZM199.28 47.5H200.145V53.9746L200.071 55H199.28V47.5ZM203.108 52.1191V52.6123C203.108 53.029 203.069 53.3936 202.991 53.7061C202.916 54.0153 202.804 54.2741 202.654 54.4824C202.505 54.6875 202.322 54.8421 202.107 54.9463C201.893 55.0472 201.647 55.0977 201.37 55.0977C201.097 55.0977 200.861 55.0423 200.662 54.9316C200.464 54.821 200.298 54.6615 200.164 54.4531C200.031 54.2448 199.925 53.9925 199.847 53.6963C199.772 53.4001 199.72 53.0664 199.69 52.6953V52.0361C199.72 51.6618 199.772 51.3265 199.847 51.0303C199.922 50.7308 200.026 50.4769 200.159 50.2686C200.293 50.057 200.459 49.8958 200.657 49.7852C200.856 49.6745 201.092 49.6191 201.365 49.6191C201.645 49.6191 201.893 49.668 202.107 49.7656C202.326 49.8633 202.508 50.0146 202.654 50.2197C202.804 50.4215 202.916 50.6803 202.991 50.9961C203.069 51.3086 203.108 51.6829 203.108 52.1191ZM202.244 52.6123V52.1191C202.244 51.8262 202.225 51.5706 202.186 51.3525C202.15 51.1344 202.09 50.9538 202.005 50.8105C201.92 50.6673 201.806 50.5599 201.663 50.4883C201.523 50.4167 201.349 50.3809 201.141 50.3809C200.965 50.3809 200.81 50.4167 200.677 50.4883C200.547 50.5599 200.434 50.6576 200.34 50.7812C200.245 50.9017 200.167 51.04 200.105 51.1963C200.044 51.3493 199.998 51.5088 199.969 51.6748V53.0615C200.011 53.2731 200.078 53.4766 200.169 53.6719C200.263 53.8639 200.39 54.0218 200.55 54.1455C200.709 54.2692 200.908 54.3311 201.146 54.3311C201.344 54.3311 201.512 54.2969 201.648 54.2285C201.788 54.1602 201.902 54.056 201.99 53.916C202.078 53.7728 202.142 53.5938 202.181 53.3789C202.223 53.1608 202.244 52.9053 202.244 52.6123ZM206.102 55.0977C205.786 55.0977 205.501 55.0505 205.247 54.9561C204.993 54.8617 204.777 54.7184 204.598 54.5264C204.419 54.3311 204.282 54.0853 204.188 53.7891C204.093 53.4928 204.046 53.1429 204.046 52.7393V52.1436C204.046 51.6781 204.1 51.2842 204.207 50.9619C204.318 50.6396 204.466 50.3809 204.651 50.1855C204.837 49.987 205.047 49.8438 205.281 49.7559C205.516 49.6647 205.757 49.6191 206.004 49.6191C206.336 49.6191 206.619 49.6729 206.854 49.7803C207.088 49.8877 207.278 50.0472 207.425 50.2588C207.571 50.4704 207.679 50.7308 207.747 51.04C207.819 51.3493 207.854 51.7057 207.854 52.1094V52.6123H204.554V51.875H206.99V51.7529C206.977 51.4795 206.94 51.2386 206.878 51.0303C206.819 50.8219 206.722 50.6592 206.585 50.542C206.448 50.4215 206.255 50.3613 206.004 50.3613C205.844 50.3613 205.696 50.389 205.56 50.4443C205.426 50.4964 205.311 50.5892 205.213 50.7227C205.118 50.8529 205.044 51.0335 204.988 51.2646C204.936 51.4958 204.91 51.7887 204.91 52.1436V52.7393C204.91 53.0225 204.936 53.2666 204.988 53.4717C205.044 53.6735 205.123 53.8411 205.228 53.9746C205.335 54.1048 205.465 54.2025 205.618 54.2676C205.774 54.3294 205.952 54.3604 206.15 54.3604C206.44 54.3604 206.679 54.305 206.868 54.1943C207.057 54.0804 207.221 53.9355 207.361 53.7598L207.815 54.3018C207.721 54.4352 207.597 54.5638 207.444 54.6875C207.295 54.8079 207.109 54.9072 206.888 54.9854C206.67 55.0602 206.408 55.0977 206.102 55.0977ZM210.828 49.7168V50.4102H208.362V49.7168H210.828ZM209.168 48.4326H210.032V53.6914C210.032 53.8704 210.053 54.0055 210.096 54.0967C210.141 54.1878 210.198 54.248 210.267 54.2773C210.335 54.3066 210.408 54.3213 210.486 54.3213C210.545 54.3213 210.61 54.3148 210.682 54.3018C210.753 54.2855 210.802 54.2725 210.828 54.2627L210.823 55C210.765 55.0228 210.687 55.0439 210.589 55.0635C210.491 55.0863 210.368 55.0977 210.218 55.0977C210.032 55.0977 209.86 55.0537 209.7 54.9658C209.541 54.8779 209.412 54.7314 209.314 54.5264C209.217 54.318 209.168 54.0381 209.168 53.6865V48.4326ZM214.446 54.0967V51.2305C214.446 51.0221 214.414 50.8545 214.349 50.7275C214.287 50.6006 214.192 50.5078 214.065 50.4492C213.942 50.3906 213.785 50.3613 213.597 50.3613C213.414 50.3613 213.257 50.3988 213.123 50.4736C212.993 50.5485 212.892 50.6478 212.82 50.7715C212.752 50.8952 212.718 51.0319 212.718 51.1816H211.854C211.854 50.9928 211.894 50.8057 211.976 50.6201C212.06 50.4346 212.181 50.2669 212.337 50.1172C212.493 49.9642 212.68 49.8438 212.898 49.7559C213.12 49.6647 213.367 49.6191 213.641 49.6191C213.966 49.6191 214.254 49.6729 214.505 49.7803C214.756 49.8844 214.952 50.0553 215.096 50.293C215.239 50.5306 215.311 50.8464 215.311 51.2402V53.8477C215.311 54.0234 215.324 54.2106 215.35 54.4092C215.379 54.6077 215.42 54.7786 215.472 54.9219V55H214.578C214.536 54.8958 214.503 54.7575 214.48 54.585C214.458 54.4092 214.446 54.2464 214.446 54.0967ZM214.583 51.7969L214.593 52.4316H213.992C213.787 52.4316 213.6 52.4544 213.431 52.5C213.265 52.5456 213.121 52.6123 213.001 52.7002C212.881 52.7848 212.788 52.8906 212.723 53.0176C212.661 53.1445 212.63 53.2894 212.63 53.4521C212.63 53.6637 212.659 53.833 212.718 53.96C212.776 54.0837 212.864 54.1732 212.981 54.2285C213.099 54.2839 213.247 54.3115 213.426 54.3115C213.644 54.3115 213.836 54.2611 214.002 54.1602C214.168 54.0592 214.297 53.9372 214.388 53.7939C214.482 53.6507 214.526 53.5173 214.52 53.3936L214.71 53.7988C214.697 53.9258 214.655 54.0641 214.583 54.2139C214.515 54.3604 214.419 54.502 214.295 54.6387C214.171 54.7721 214.025 54.8828 213.855 54.9707C213.689 55.0553 213.502 55.0977 213.294 55.0977C212.988 55.0977 212.719 55.0391 212.488 54.9219C212.26 54.8047 212.083 54.6322 211.956 54.4043C211.829 54.1764 211.766 53.8949 211.766 53.5596C211.766 53.3057 211.81 53.0713 211.897 52.8564C211.985 52.6416 212.116 52.4561 212.288 52.2998C212.461 52.1403 212.677 52.0166 212.938 51.9287C213.201 51.8408 213.506 51.7969 213.851 51.7969H214.583ZM217.581 47.5V55H216.722V47.5L217.581 47.5ZM219.876 49.7168V55H219.017V49.7168H219.876ZM218.968 48.3154C218.968 48.1689 219.008 48.0452 219.09 47.9443C219.171 47.8434 219.293 47.793 219.456 47.793C219.619 47.793 219.741 47.8434 219.822 47.9443C219.907 48.0452 219.949 48.1689 219.949 48.3154C219.949 48.4554 219.907 48.5758 219.822 48.6768C219.741 48.7744 219.619 48.8232 219.456 48.8232C219.293 48.8232 219.171 48.7744 219.09 48.6768C219.008 48.5758 218.968 48.4554 218.968 48.3154ZM222.107 50.8447V55H221.243V49.7168H222.059L222.107 50.8447ZM221.897 52.1582L221.546 52.1436C221.543 51.7822 221.583 51.4486 221.668 51.1426C221.756 50.8333 221.88 50.5648 222.039 50.3369C222.202 50.109 222.396 49.9333 222.62 49.8096C222.845 49.6826 223.094 49.6191 223.367 49.6191C223.582 49.6191 223.777 49.6549 223.953 49.7266C224.129 49.7949 224.279 49.9056 224.402 50.0586C224.526 50.2116 224.62 50.4102 224.686 50.6543C224.754 50.8952 224.788 51.1898 224.788 51.5381V55H223.924V51.5283C223.924 51.2516 223.893 51.0303 223.831 50.8643C223.772 50.695 223.681 50.5729 223.558 50.498C223.437 50.4199 223.284 50.3809 223.099 50.3809C222.929 50.3809 222.771 50.4281 222.625 50.5225C222.479 50.6169 222.35 50.7471 222.239 50.9131C222.132 51.0791 222.047 51.2695 221.985 51.4844C221.927 51.696 221.897 51.9206 221.897 52.1582ZM228.948 49.7168H229.725V55.0439C229.725 55.5094 229.643 55.8936 229.48 56.1963C229.321 56.499 229.098 56.722 228.812 56.8652C228.525 57.0117 228.195 57.085 227.82 57.085C227.687 57.085 227.519 57.0605 227.317 57.0117C227.116 56.9629 226.914 56.888 226.712 56.7871C226.51 56.6895 226.344 56.5658 226.214 56.416L226.57 55.8154C226.756 56.0042 226.953 56.1393 227.161 56.2207C227.369 56.3021 227.568 56.3428 227.757 56.3428C227.981 56.3428 228.177 56.3021 228.343 56.2207C228.509 56.1393 228.637 56.0059 228.729 55.8203C228.82 55.638 228.865 55.3939 228.865 55.0879V50.8789L228.948 49.7168ZM225.911 52.6123V52.1191C225.911 51.6829 225.952 51.3086 226.033 50.9961C226.115 50.6803 226.232 50.4215 226.385 50.2197C226.541 50.0146 226.728 49.8633 226.946 49.7656C227.164 49.668 227.409 49.6191 227.679 49.6191C227.952 49.6191 228.188 49.6745 228.387 49.7852C228.585 49.8958 228.75 50.057 228.88 50.2686C229.013 50.4769 229.118 50.7308 229.192 51.0303C229.271 51.3265 229.324 51.6618 229.354 52.0361V52.6953C229.324 53.0664 229.271 53.4001 229.192 53.6963C229.118 53.9925 229.012 54.2448 228.875 54.4531C228.742 54.6615 228.576 54.821 228.377 54.9316C228.178 55.0423 227.942 55.0977 227.669 55.0977C227.402 55.0977 227.161 55.0472 226.946 54.9463C226.731 54.8421 226.546 54.6875 226.39 54.4824C226.237 54.2741 226.118 54.0153 226.033 53.7061C225.952 53.3936 225.911 53.029 225.911 52.6123ZM226.775 52.1191V52.6123C226.775 52.9053 226.797 53.1608 226.839 53.3789C226.881 53.5937 226.946 53.7728 227.034 53.916C227.125 54.056 227.241 54.1602 227.381 54.2285C227.524 54.2969 227.695 54.3311 227.894 54.3311C228.134 54.3311 228.331 54.2725 228.484 54.1553C228.637 54.0381 228.759 53.8835 228.851 53.6914C228.945 53.4961 229.02 53.2861 229.075 53.0615V51.6748C229.043 51.5088 228.995 51.3493 228.934 51.1963C228.875 51.04 228.799 50.9017 228.704 50.7812C228.61 50.6576 228.496 50.5599 228.362 50.4883C228.232 50.4167 228.079 50.3809 227.903 50.3809C227.705 50.3809 227.534 50.4167 227.391 50.4883C227.247 50.5599 227.13 50.6673 227.039 50.8105C226.948 50.9538 226.881 51.1344 226.839 51.3525C226.797 51.5706 226.775 51.8262 226.775 52.1191Z" fill="url(#paint2_linear_363_3053)"/>
<path fill-rule="evenodd" clip-rule="evenodd" d="M204 16L137 16V14L204 14V16Z" fill="url(#paint3_linear_363_3053)"/>
<path fill-rule="evenodd" clip-rule="evenodd" d="M111 16L44 16V14L111 14V16Z" fill="url(#paint4_linear_363_3053)"/>
<path fill-rule="evenodd" clip-rule="evenodd" d="M18.7612 6.17317C18 8.01088 18 10.3406 18 15C18 19.6594 18 21.9891 18.7612 23.8268C19.7761 26.2771 21.7229 28.2239 24.1732 29.2388C26.0109 30 28.3406 30 33 30C37.6594 30 39.9891 30 41.8268 29.2388C44.2771 28.2239 46.2239 26.2771 47.2388 23.8268C48 21.9891 48 19.6594 48 15C48 10.3406 48 8.01088 47.2388 6.17317C46.2239 3.72288 44.2771 1.77614 41.8268 0.761205C39.9891 0 37.6594 0 33 0C28.3406 0 26.0109 0 24.1732 0.761205C21.7229 1.77614 19.7761 3.72288 18.7612 6.17317ZM39.7071 11.7071C40.0976 11.3166 40.0976 10.6834 39.7071 10.2929C39.3166 9.90237 38.6834 9.90237 38.2929 10.2929L31 17.5858L27.7071 14.2929C27.3166 13.9024 26.6834 13.9024 26.2929 14.2929C25.9024 14.6834 25.9024 15.3166 26.2929 15.7071L30.2929 19.7071C30.4804 19.8946 30.7348 20 31 20C31.2652 20 31.5196 19.8946 31.7071 19.7071L39.7071 11.7071Z" fill="url(#paint5_linear_363_3053)"/>
<path fill-rule="evenodd" clip-rule="evenodd" d="M109.761 6.17317C109 8.01088 109 10.3406 109 15C109 19.6594 109 21.9891 109.761 23.8268C110.776 26.2771 112.723 28.2239 115.173 29.2388C117.011 30 119.341 30 124 30C128.659 30 130.989 30 132.827 29.2388C135.277 28.2239 137.224 26.2771 138.239 23.8268C139 21.9891 139 19.6594 139 15C139 10.3406 139 8.01088 138.239 6.17317C137.224 3.72288 135.277 1.77614 132.827 0.761205C130.989 0 128.659 0 124 0C119.341 0 117.011 0 115.173 0.761205C112.723 1.77614 110.776 3.72288 109.761 6.17317ZM130.707 11.7071C131.098 11.3166 131.098 10.6834 130.707 10.2929C130.317 9.90237 129.683 9.90237 129.293 10.2929L122 17.5858L118.707 14.2929C118.317 13.9024 117.683 13.9024 117.293 14.2929C116.902 14.6834 116.902 15.3166 117.293 15.7071L121.293 19.7071C121.48 19.8946 121.735 20 122 20C122.265 20 122.52 19.8946 122.707 19.7071L130.707 11.7071Z" fill="url(#paint6_linear_363_3053)"/>
<path fill-rule="evenodd" clip-rule="evenodd" d="M200.761 6.17317C200 8.01088 200 10.3406 200 15C200 19.6594 200 21.9891 200.761 23.8268C201.776 26.2771 203.723 28.2239 206.173 29.2388C208.011 30 210.341 30 215 30C219.659 30 221.989 30 223.827 29.2388C226.277 28.2239 228.224 26.2771 229.239 23.8268C230 21.9891 230 19.6594 230 15C230 10.3406 230 8.01088 229.239 6.17317C228.224 3.72288 226.277 1.77614 223.827 0.761205C221.989 0 219.659 0 215 0C210.341 0 208.011 0 206.173 0.761205C203.723 1.77614 201.776 3.72288 200.761 6.17317ZM221.707 11.7071C222.098 11.3166 222.098 10.6834 221.707 10.2929C221.317 9.90237 220.683 9.90237 220.293 10.2929L213 17.5858L209.707 14.2929C209.317 13.9024 208.683 13.9024 208.293 14.2929C207.902 14.6834 207.902 15.3166 208.293 15.7071L212.293 19.7071C212.48 19.8946 212.735 20 213 20C213.265 20 213.52 19.8946 213.707 19.7071L221.707 11.7071Z" fill="url(#paint7_linear_363_3053)"/>
<defs>
<linearGradient id="paint0_linear_363_3053" x1="33" y1="57" x2="33" y2="35" gradientUnits="userSpaceOnUse">
<stop stop-color="#5CCC94"/>
<stop offset="1" stop-color="#8CCAAE"/>
</linearGradient>
<linearGradient id="paint1_linear_363_3053" x1="124.5" y1="55" x2="124.5" y2="35" gradientUnits="userSpaceOnUse">
<stop stop-color="#5CCC94"/>
<stop offset="1" stop-color="#8CCAAE"/>
</linearGradient>
<linearGradient id="paint2_linear_363_3053" x1="214.5" y1="68" x2="214.5" y2="35" gradientUnits="userSpaceOnUse">
<stop stop-color="#5CCC94"/>
<stop offset="1" stop-color="#8CCAAE"/>
</linearGradient>
<linearGradient id="paint3_linear_363_3053" x1="170.5" y1="16" x2="170.5" y2="14" gradientUnits="userSpaceOnUse">
<stop stop-color="#5CCC94"/>
<stop offset="1" stop-color="#8CCAAE"/>
</linearGradient>
<linearGradient id="paint4_linear_363_3053" x1="77.5" y1="16" x2="77.5" y2="14" gradientUnits="userSpaceOnUse">
<stop stop-color="#5CCC94"/>
<stop offset="1" stop-color="#8CCAAE"/>
</linearGradient>
<linearGradient id="paint5_linear_363_3053" x1="33" y1="30" x2="33" y2="1.58545e-07" gradientUnits="userSpaceOnUse">
<stop stop-color="#5CCC94"/>
<stop offset="1" stop-color="#8CCAAE"/>
</linearGradient>
<linearGradient id="paint6_linear_363_3053" x1="124" y1="30" x2="124" y2="1.58545e-07" gradientUnits="userSpaceOnUse">
<stop stop-color="#5CCC94"/>
<stop offset="1" stop-color="#8CCAAE"/>
</linearGradient>
<linearGradient id="paint7_linear_363_3053" x1="215" y1="30" x2="215" y2="1.58545e-07" gradientUnits="userSpaceOnUse">
<stop stop-color="#5CCC94"/>
<stop offset="1" stop-color="#8CCAAE"/>
</linearGradient>
</defs>
</svg>
