<svg width="241" height="69" viewBox="0 0 241 69" fill="none" xmlns="http://www.w3.org/2000/svg">
<path d="M27.375 41.7393H28.2734C28.2507 42.2275 28.1514 42.6491 27.9756 43.0039C27.8031 43.3555 27.5508 43.6257 27.2188 43.8145C26.89 44.0033 26.4782 44.0977 25.9834 44.0977C25.6286 44.0977 25.3079 44.0277 25.0215 43.8877C24.735 43.7477 24.4893 43.5475 24.2842 43.2871C24.0824 43.0234 23.9277 42.7077 23.8203 42.3398C23.7129 41.972 23.6592 41.5586 23.6592 41.0996V39.7861C23.6592 39.3304 23.7129 38.9186 23.8203 38.5508C23.931 38.1829 24.0889 37.8688 24.2939 37.6084C24.5023 37.3447 24.7546 37.1429 25.0508 37.0029C25.3503 36.863 25.6888 36.793 26.0664 36.793C26.5286 36.793 26.9193 36.8857 27.2383 37.0713C27.5605 37.2536 27.8079 37.5221 27.9805 37.877C28.1562 38.2285 28.2539 38.6598 28.2734 39.1709H27.375C27.3522 38.7965 27.2936 38.4922 27.1992 38.2578C27.1048 38.0202 26.9648 37.846 26.7793 37.7354C26.597 37.6214 26.3594 37.5645 26.0664 37.5645C25.806 37.5645 25.5798 37.6165 25.3877 37.7207C25.1989 37.8249 25.0426 37.9746 24.9189 38.1699C24.7985 38.362 24.7074 38.5947 24.6455 38.8682C24.5869 39.1383 24.5576 39.4411 24.5576 39.7764V41.0996C24.5576 41.4121 24.582 41.7035 24.6309 41.9736C24.6829 42.2438 24.7643 42.4814 24.875 42.6865C24.9889 42.8883 25.137 43.0462 25.3193 43.1602C25.5016 43.2741 25.723 43.3311 25.9834 43.3311C26.3122 43.3311 26.5726 43.2773 26.7646 43.1699C26.9567 43.0625 27.0983 42.8916 27.1895 42.6572C27.2839 42.4229 27.3457 42.1169 27.375 41.7393ZM25.3438 34.8301L25.9297 35.6602L26.5107 34.8301H27.2529V34.8789L26.1836 36.2168H25.6758L24.6211 34.8789V34.8301H25.3438ZM30.3047 38.7168V44H29.4404V38.7168H30.3047ZM29.3916 37.9453L30.3389 36.5098H31.4277L30.1191 37.9453H29.3916ZM34.2891 42.6475C34.2891 42.514 34.2565 42.3968 34.1914 42.2959C34.1263 42.195 34.0189 42.0973 33.8691 42.0029C33.7227 41.9085 33.5241 41.8076 33.2734 41.7002C33.0293 41.5993 32.8096 41.5 32.6143 41.4023C32.4222 41.3014 32.2594 41.1924 32.126 41.0752C31.9925 40.958 31.89 40.8229 31.8184 40.6699C31.75 40.5137 31.7158 40.3298 31.7158 40.1182C31.7158 39.9066 31.7549 39.7113 31.833 39.5322C31.9144 39.3499 32.0283 39.1904 32.1748 39.0537C32.3213 38.917 32.4971 38.8112 32.7021 38.7363C32.9072 38.6582 33.1367 38.6191 33.3906 38.6191C33.752 38.6191 34.0596 38.6891 34.3135 38.8291C34.5674 38.9691 34.7611 39.1611 34.8945 39.4053C35.0312 39.6462 35.0996 39.918 35.0996 40.2207H34.2402C34.2402 40.0742 34.2077 39.9359 34.1426 39.8057C34.0775 39.6755 33.9814 39.5697 33.8545 39.4883C33.7275 39.4036 33.5729 39.3613 33.3906 39.3613C33.1986 39.3613 33.0423 39.3955 32.9219 39.4639C32.8014 39.5322 32.7135 39.6217 32.6582 39.7324C32.6061 39.8398 32.5801 39.9587 32.5801 40.0889C32.5801 40.1865 32.5931 40.2712 32.6191 40.3428C32.6484 40.4111 32.6973 40.4762 32.7656 40.5381C32.834 40.5967 32.9268 40.6585 33.0439 40.7236C33.1644 40.7855 33.3174 40.8571 33.5029 40.9385C33.861 41.0785 34.1621 41.2201 34.4062 41.3633C34.6504 41.5065 34.8359 41.6742 34.9629 41.8662C35.0898 42.0583 35.1533 42.2959 35.1533 42.5791C35.1533 42.8102 35.111 43.0202 35.0264 43.209C34.945 43.3945 34.8278 43.554 34.6748 43.6875C34.5218 43.821 34.3379 43.9235 34.123 43.9951C33.9115 44.0635 33.6738 44.0977 33.4102 44.0977C33.013 44.0977 32.6761 44.0195 32.3994 43.8633C32.126 43.7038 31.9176 43.4971 31.7744 43.2432C31.6344 42.986 31.5645 42.7109 31.5645 42.418H32.4287C32.4385 42.6654 32.4938 42.8574 32.5947 42.9941C32.6989 43.1309 32.8242 43.2253 32.9707 43.2773C33.1172 43.3294 33.2637 43.3555 33.4102 43.3555C33.6022 43.3555 33.7633 43.3278 33.8936 43.2725C34.0238 43.2139 34.1214 43.1309 34.1865 43.0234C34.2549 42.916 34.2891 42.7907 34.2891 42.6475ZM37.2139 36.5V44H36.3545V36.5H37.2139ZM38.4004 41.6123V41.1094C38.4004 40.6992 38.4525 40.3395 38.5566 40.0303C38.6608 39.7178 38.8057 39.4574 38.9912 39.249C39.1768 39.0407 39.3932 38.8844 39.6406 38.7803C39.888 38.6729 40.1533 38.6191 40.4365 38.6191C40.7262 38.6191 40.9948 38.6729 41.2422 38.7803C41.4896 38.8844 41.7061 39.0407 41.8916 39.249C42.0804 39.4574 42.2269 39.7178 42.3311 40.0303C42.4352 40.3395 42.4873 40.6992 42.4873 41.1094V41.6123C42.4873 42.0225 42.4352 42.3838 42.3311 42.6963C42.2269 43.0055 42.082 43.2643 41.8965 43.4727C41.7109 43.681 41.4945 43.8372 41.2471 43.9414C40.9997 44.0456 40.7327 44.0977 40.4463 44.0977C40.1598 44.0977 39.8929 44.0456 39.6455 43.9414C39.3981 43.8372 39.18 43.681 38.9912 43.4727C38.8057 43.2643 38.6608 43.0055 38.5566 42.6963C38.4525 42.3838 38.4004 42.0225 38.4004 41.6123ZM39.2646 41.1094V41.6123C39.2646 41.902 39.2939 42.1559 39.3525 42.374C39.4111 42.5921 39.4941 42.7744 39.6016 42.9209C39.709 43.0674 39.8343 43.1781 39.9775 43.2529C40.1208 43.3245 40.277 43.3604 40.4463 43.3604C40.6416 43.3604 40.8125 43.3245 40.959 43.2529C41.1087 43.1781 41.2324 43.0674 41.3301 42.9209C41.4277 42.7744 41.501 42.5921 41.5498 42.374C41.5986 42.1559 41.623 41.902 41.623 41.6123V41.1094C41.623 40.8197 41.5938 40.5674 41.5352 40.3525C41.4766 40.1344 41.3936 39.9521 41.2861 39.8057C41.1787 39.6559 41.0518 39.5452 40.9053 39.4736C40.762 39.3988 40.6058 39.3613 40.4365 39.3613C40.2705 39.3613 40.1159 39.3988 39.9727 39.4736C39.8294 39.5452 39.7041 39.6559 39.5967 39.8057C39.4925 39.9521 39.4111 40.1344 39.3525 40.3525C39.2939 40.5674 39.2646 40.8197 39.2646 41.1094ZM12.3262 50.7324L12.3262 57.0312H11.4619L11.4619 49.7168H12.248L12.3262 50.7324ZM15.2803 52.1191V52.6123C15.2803 53.029 15.2412 53.3936 15.1631 53.7061C15.0882 54.0153 14.9759 54.2741 14.8262 54.4824C14.6797 54.6875 14.499 54.8421 14.2842 54.9463C14.0693 55.0472 13.8236 55.0977 13.5469 55.0977C13.2702 55.0977 13.0293 55.0456 12.8242 54.9414C12.6224 54.834 12.4515 54.6794 12.3115 54.4775C12.1748 54.2757 12.0658 54.0332 11.9844 53.75C11.9063 53.4635 11.8525 53.1429 11.8232 52.7881V52.0361C11.8525 51.6618 11.9063 51.3265 11.9844 51.0303C12.0625 50.7308 12.1699 50.4769 12.3066 50.2686C12.4466 50.057 12.6175 49.8958 12.8193 49.7852C13.0244 49.6745 13.2637 49.6191 13.5371 49.6191C13.8203 49.6191 14.0693 49.668 14.2842 49.7656C14.5023 49.8633 14.6846 50.0146 14.8311 50.2197C14.9808 50.4215 15.0931 50.6803 15.168 50.9961C15.2428 51.3086 15.2803 51.6829 15.2803 52.1191ZM14.416 52.6123V52.1191C14.416 51.8262 14.3932 51.5706 14.3477 51.3525C14.3053 51.1344 14.237 50.9538 14.1426 50.8105C14.0482 50.6673 13.9294 50.5599 13.7861 50.4883C13.6429 50.4167 13.4704 50.3809 13.2686 50.3809C13.096 50.3809 12.943 50.4167 12.8096 50.4883C12.6794 50.5599 12.5671 50.6576 12.4727 50.7812C12.3783 50.9017 12.3001 51.04 12.2383 51.1963C12.1764 51.3493 12.1309 51.5088 12.1016 51.6748V53.1543C12.1569 53.3626 12.2301 53.5596 12.3213 53.7451C12.4124 53.9274 12.5345 54.0755 12.6875 54.1895C12.8438 54.3034 13.0407 54.3604 13.2783 54.3604C13.4769 54.3604 13.6478 54.3245 13.791 54.2529C13.9342 54.1813 14.0514 54.0739 14.1426 53.9307C14.237 53.7842 14.3053 53.6019 14.3477 53.3838C14.3932 53.1624 14.416 52.9053 14.416 52.6123ZM16.2129 52.6123V52.1094C16.2129 51.6992 16.265 51.3395 16.3691 51.0303C16.4733 50.7178 16.6182 50.4574 16.8037 50.249C16.9893 50.0407 17.2057 49.8844 17.4531 49.7803C17.7005 49.6729 17.9658 49.6191 18.249 49.6191C18.5387 49.6191 18.8073 49.6729 19.0547 49.7803C19.3021 49.8844 19.5186 50.0407 19.7041 50.249C19.8929 50.4574 20.0394 50.7178 20.1436 51.0303C20.2477 51.3395 20.2998 51.6992 20.2998 52.1094V52.6123C20.2998 53.0225 20.2477 53.3838 20.1436 53.6963C20.0394 54.0055 19.8945 54.2643 19.709 54.4727C19.5234 54.681 19.307 54.8372 19.0596 54.9414C18.8122 55.0456 18.5452 55.0977 18.2588 55.0977C17.9723 55.0977 17.7054 55.0456 17.458 54.9414C17.2106 54.8372 16.9925 54.681 16.8037 54.4727C16.6182 54.2643 16.4733 54.0055 16.3691 53.6963C16.265 53.3838 16.2129 53.0225 16.2129 52.6123ZM17.0771 52.1094V52.6123C17.0771 52.902 17.1064 53.1559 17.165 53.374C17.2236 53.5921 17.3066 53.7744 17.4141 53.9209C17.5215 54.0674 17.6468 54.1781 17.79 54.2529C17.9333 54.3245 18.0895 54.3604 18.2588 54.3604C18.4541 54.3604 18.625 54.3245 18.7715 54.2529C18.9212 54.1781 19.0449 54.0674 19.1426 53.9209C19.2402 53.7744 19.3135 53.5921 19.3623 53.374C19.4111 53.1559 19.4355 52.902 19.4355 52.6123V52.1094C19.4355 51.8197 19.4063 51.5674 19.3477 51.3525C19.2891 51.1344 19.2061 50.9521 19.0986 50.8057C18.9912 50.6559 18.8643 50.5452 18.7178 50.4736C18.5745 50.3988 18.4183 50.3613 18.249 50.3613C18.083 50.3613 17.9284 50.3988 17.7852 50.4736C17.6419 50.5452 17.5166 50.6559 17.4092 50.8057C17.305 50.9521 17.2236 51.1344 17.165 51.3525C17.1064 51.5674 17.0771 51.8197 17.0771 52.1094ZM24.6797 54.2578V55H21.4814V54.2578H24.6797ZM24.582 50.3564L21.6768 55H21.1494V54.3359L24.0352 49.7168H24.582V50.3564ZM24.2061 49.7168V50.4639H21.1641V49.7168H24.2061ZM26.5938 50.8447V55H25.7295V49.7168H26.5449L26.5938 50.8447ZM26.3838 52.1582L26.0322 52.1436C26.029 51.7822 26.0697 51.4486 26.1543 51.1426C26.2422 50.8333 26.3659 50.5648 26.5254 50.3369C26.6882 50.109 26.8818 49.9333 27.1064 49.8096C27.3311 49.6826 27.5801 49.6191 27.8535 49.6191C28.0684 49.6191 28.2637 49.6549 28.4395 49.7266C28.6152 49.7949 28.765 49.9056 28.8887 50.0586C29.0124 50.2116 29.1068 50.4102 29.1719 50.6543C29.2402 50.8952 29.2744 51.1898 29.2744 51.5381V55H28.4102V51.5283C28.4102 51.2516 28.3792 51.0303 28.3174 50.8643C28.2588 50.695 28.1676 50.5729 28.0439 50.498C27.9235 50.4199 27.7705 50.3809 27.585 50.3809C27.4157 50.3809 27.2578 50.4281 27.1113 50.5225C26.9648 50.6169 26.8363 50.7471 26.7256 50.9131C26.6182 51.0791 26.5335 51.2695 26.4717 51.4844C26.4131 51.696 26.3838 51.9206 26.3838 52.1582ZM33.1611 54.0967V51.2305C33.1611 51.0221 33.1286 50.8545 33.0635 50.7275C33.0016 50.6006 32.9072 50.5078 32.7803 50.4492C32.6566 50.3906 32.5003 50.3613 32.3115 50.3613C32.1292 50.3613 31.9714 50.3988 31.8379 50.4736C31.7077 50.5485 31.6068 50.6478 31.5352 50.7715C31.4668 50.8952 31.4326 51.0319 31.4326 51.1816H30.5684C30.5684 50.9928 30.609 50.8057 30.6904 50.6201C30.7751 50.4346 30.8955 50.2669 31.0518 50.1172C31.208 49.9642 31.3952 49.8437 31.6133 49.7559C31.8346 49.6647 32.082 49.6191 32.3555 49.6191C32.681 49.6191 32.9691 49.6729 33.2197 49.7803C33.4704 49.8844 33.6673 50.0553 33.8105 50.293C33.9538 50.5306 34.0254 50.8464 34.0254 51.2402V53.8477C34.0254 54.0234 34.0384 54.2106 34.0645 54.4092C34.0938 54.6077 34.1344 54.7786 34.1865 54.9219V55H33.293C33.2507 54.8958 33.2181 54.7575 33.1953 54.585C33.1725 54.4092 33.1611 54.2464 33.1611 54.0967ZM33.2979 51.7969L33.3076 52.4316L32.707 52.4316C32.502 52.4316 32.3148 52.4544 32.1455 52.5C31.9795 52.5456 31.8363 52.6123 31.7158 52.7002C31.5954 52.7848 31.5026 52.8906 31.4375 53.0176C31.3757 53.1445 31.3447 53.2894 31.3447 53.4521C31.3447 53.6637 31.374 53.833 31.4326 53.96C31.4912 54.0837 31.5791 54.1732 31.6963 54.2285C31.8135 54.2839 31.9616 54.3115 32.1406 54.3115C32.3587 54.3115 32.5508 54.2611 32.7168 54.1602C32.8828 54.0592 33.0114 53.9372 33.1025 53.7939C33.1969 53.6507 33.2409 53.5173 33.2344 53.3936L33.4248 53.7988C33.4118 53.9258 33.3695 54.0641 33.2979 54.2139C33.2295 54.3604 33.1335 54.502 33.0098 54.6387C32.8861 54.7721 32.7396 54.8828 32.5703 54.9707C32.4043 55.0553 32.2171 55.0977 32.0088 55.0977C31.7028 55.0977 31.4342 55.0391 31.2031 54.9219C30.9753 54.8047 30.7979 54.6322 30.6709 54.4043C30.5439 54.1764 30.4805 53.8949 30.4805 53.5596C30.4805 53.3057 30.5244 53.0713 30.6123 52.8564C30.7002 52.6416 30.8304 52.4561 31.0029 52.2998C31.1755 52.1403 31.3919 52.0166 31.6523 51.9287C31.916 51.8408 32.2204 51.7969 32.5654 51.7969L33.2979 51.7969ZM31.9111 48.9355L32.8584 47.5H33.9473L32.6387 48.9355H31.9111ZM36.6572 54.1846L37.79 49.7168H38.6689L37.1016 55H36.5303L36.6572 54.1846ZM35.7441 49.7168L36.9258 54.209L37.0186 55H36.4521L34.8652 49.7168H35.7441ZM42.0771 54.0967V51.2305C42.0771 51.0221 42.0446 50.8545 41.9795 50.7275C41.9176 50.6006 41.8232 50.5078 41.6963 50.4492C41.5726 50.3906 41.4163 50.3613 41.2275 50.3613C41.0452 50.3613 40.8874 50.3988 40.7539 50.4736C40.6237 50.5485 40.5228 50.6478 40.4512 50.7715C40.3828 50.8952 40.3486 51.0319 40.3486 51.1816H39.4844C39.4844 50.9928 39.5251 50.8057 39.6064 50.6201C39.6911 50.4346 39.8115 50.2669 39.9678 50.1172C40.124 49.9642 40.3112 49.8437 40.5293 49.7559C40.7507 49.6647 40.998 49.6191 41.2715 49.6191C41.597 49.6191 41.8851 49.6729 42.1357 49.7803C42.3864 49.8844 42.5833 50.0553 42.7266 50.293C42.8698 50.5306 42.9414 50.8464 42.9414 51.2402V53.8477C42.9414 54.0234 42.9544 54.2106 42.9805 54.4092C43.0098 54.6077 43.0505 54.7786 43.1025 54.9219V55H42.209C42.1667 54.8958 42.1341 54.7575 42.1113 54.585C42.0885 54.4092 42.0771 54.2464 42.0771 54.0967ZM42.2139 51.7969L42.2236 52.4316H41.623C41.418 52.4316 41.2308 52.4544 41.0615 52.5C40.8955 52.5456 40.7523 52.6123 40.6318 52.7002C40.5114 52.7848 40.4186 52.8906 40.3535 53.0176C40.2917 53.1445 40.2607 53.2894 40.2607 53.4521C40.2607 53.6637 40.29 53.833 40.3486 53.96C40.4072 54.0837 40.4951 54.1732 40.6123 54.2285C40.7295 54.2839 40.8776 54.3115 41.0566 54.3115C41.2747 54.3115 41.4668 54.2611 41.6328 54.1602C41.7988 54.0592 41.9274 53.9372 42.0186 53.7939C42.113 53.6507 42.1569 53.5173 42.1504 53.3936L42.3408 53.7988C42.3278 53.9258 42.2855 54.0641 42.2139 54.2139C42.1455 54.3604 42.0495 54.502 41.9258 54.6387C41.8021 54.7721 41.6556 54.8828 41.4863 54.9707C41.3203 55.0553 41.1331 55.0977 40.9248 55.0977C40.6188 55.0977 40.3503 55.0391 40.1191 54.9219C39.8913 54.8047 39.7139 54.6322 39.5869 54.4043C39.46 54.1764 39.3965 53.8949 39.3965 53.5596C39.3965 53.3057 39.4404 53.0713 39.5283 52.8564C39.6162 52.6416 39.7464 52.4561 39.9189 52.2998C40.0915 52.1403 40.3079 52.0166 40.5684 51.9287C40.832 51.8408 41.1364 51.7969 41.4814 51.7969H42.2139ZM46.1152 54.3604C46.2878 54.3604 46.444 54.3262 46.584 54.2578C46.7272 54.1862 46.8444 54.0755 46.9355 53.9258C47.0267 53.7728 47.0788 53.5742 47.0918 53.3301H47.9023C47.8893 53.6816 47.7998 53.9909 47.6338 54.2578C47.471 54.5215 47.2562 54.7282 46.9893 54.8779C46.7256 55.0244 46.4342 55.0977 46.1152 55.0977C45.7734 55.0977 45.4756 55.0423 45.2217 54.9316C44.971 54.821 44.7627 54.6615 44.5967 54.4531C44.4339 54.2415 44.3118 53.986 44.2305 53.6865C44.1491 53.3838 44.1084 53.0404 44.1084 52.6562V52.0605C44.1084 51.6764 44.1491 51.3346 44.2305 51.0352C44.3118 50.7324 44.4339 50.4769 44.5967 50.2686C44.7627 50.057 44.971 49.8958 45.2217 49.7852C45.4756 49.6745 45.7734 49.6191 46.1152 49.6191C46.4733 49.6191 46.7826 49.6956 47.043 49.8486C47.3066 49.9984 47.5117 50.2165 47.6582 50.5029C47.8079 50.7861 47.8893 51.1296 47.9023 51.5332H47.0918C47.0788 51.2728 47.0316 51.0563 46.9502 50.8838C46.8688 50.708 46.7581 50.5778 46.6182 50.4932C46.4782 50.4053 46.3105 50.3613 46.1152 50.3613C45.8874 50.3613 45.6986 50.402 45.5488 50.4834C45.4023 50.5615 45.2868 50.6755 45.2021 50.8252C45.1175 50.9749 45.0573 51.154 45.0215 51.3623C44.9889 51.5706 44.9727 51.8034 44.9727 52.0605V52.6562C44.9727 52.9134 44.9889 53.1478 45.0215 53.3594C45.0573 53.5677 45.1159 53.7467 45.1973 53.8965C45.2819 54.0462 45.3991 54.1618 45.5488 54.2432C45.6986 54.3213 45.8874 54.3604 46.1152 54.3604ZM50.793 55.0977C50.4772 55.0977 50.1924 55.0505 49.9385 54.9561C49.6846 54.8617 49.4681 54.7184 49.2891 54.5264C49.11 54.3311 48.9733 54.0853 48.8789 53.7891C48.7845 53.4928 48.7373 53.1429 48.7373 52.7393V52.1436C48.7373 51.6781 48.791 51.2842 48.8984 50.9619C49.0091 50.6396 49.1572 50.3809 49.3428 50.1855C49.5283 49.987 49.7383 49.8437 49.9727 49.7559C50.207 49.6647 50.4479 49.6191 50.6953 49.6191C51.0273 49.6191 51.3105 49.6729 51.5449 49.7803C51.7793 49.8877 51.9697 50.0472 52.1162 50.2588C52.2627 50.4704 52.3701 50.7308 52.4385 51.04C52.5101 51.3493 52.5459 51.7057 52.5459 52.1094V52.6123H49.2451V51.875H51.6816V51.7529C51.6686 51.4795 51.6312 51.2386 51.5693 51.0303C51.5107 50.8219 51.4131 50.6592 51.2764 50.542C51.1396 50.4215 50.946 50.3613 50.6953 50.3613C50.5358 50.3613 50.3877 50.389 50.251 50.4443C50.1175 50.4964 50.002 50.5892 49.9043 50.7227C49.8099 50.8529 49.735 51.0335 49.6797 51.2646C49.6276 51.4958 49.6016 51.7887 49.6016 52.1436V52.7393C49.6016 53.0225 49.6276 53.2666 49.6797 53.4717C49.735 53.6735 49.8148 53.8411 49.9189 53.9746C50.0264 54.1048 50.1566 54.2025 50.3096 54.2676C50.4658 54.3294 50.6432 54.3604 50.8418 54.3604C51.1315 54.3604 51.3708 54.305 51.5596 54.1943C51.7484 54.0804 51.9128 53.9355 52.0527 53.7598L52.5068 54.3018C52.4124 54.4352 52.2887 54.5638 52.1357 54.6875C51.986 54.8079 51.8005 54.9072 51.5791 54.9854C51.361 55.0602 51.099 55.0977 50.793 55.0977ZM53.6104 49.7168H54.4697V55.6299C54.4697 55.9521 54.4274 56.2256 54.3428 56.4502C54.2614 56.6748 54.1344 56.8441 53.9619 56.958C53.7926 57.0752 53.5762 57.1338 53.3125 57.1338C53.2409 57.1338 53.1579 57.1257 53.0635 57.1094C52.9723 57.0931 52.8942 57.0736 52.8291 57.0508V56.3232C52.8844 56.3363 52.9447 56.346 53.0098 56.3525C53.0749 56.3623 53.1286 56.3672 53.1709 56.3672C53.2653 56.3672 53.3451 56.3428 53.4102 56.2939C53.4753 56.2451 53.5241 56.167 53.5566 56.0596C53.5924 55.9521 53.6104 55.8089 53.6104 55.6299V49.7168ZM53.5322 48.3154C53.5322 48.1689 53.5729 48.0452 53.6543 47.9443C53.7389 47.8434 53.861 47.793 54.0205 47.793C54.1833 47.793 54.3053 47.8434 54.3867 47.9443C54.4714 48.0452 54.5137 48.1689 54.5137 48.3154C54.5137 48.4554 54.4714 48.5758 54.3867 48.6768C54.3053 48.7744 54.1833 48.8232 54.0205 48.8232C53.861 48.8232 53.7389 48.7744 53.6543 48.6768C53.5729 48.5758 53.5322 48.4554 53.5322 48.3154ZM23.3271 65.2578V66H20.1289V65.2578H23.3271ZM23.2295 61.3564L20.3242 66H19.7969V65.3359L22.6826 60.7168H23.2295V61.3564ZM22.8535 60.7168V61.4639H19.8115V60.7168H22.8535ZM25.2412 61.8447V66H24.377V60.7168H25.1924L25.2412 61.8447ZM25.0313 63.1582L24.6797 63.1436C24.6764 62.7822 24.7171 62.4486 24.8018 62.1426C24.8896 61.8333 25.0133 61.5648 25.1729 61.3369C25.3356 61.109 25.5293 60.9333 25.7539 60.8096C25.9785 60.6826 26.2275 60.6191 26.501 60.6191C26.7158 60.6191 26.9111 60.6549 27.0869 60.7266C27.2627 60.7949 27.4124 60.9056 27.5361 61.0586C27.6598 61.2116 27.7542 61.4102 27.8193 61.6543C27.8877 61.8952 27.9219 62.1898 27.9219 62.5381V66H27.0576V62.5283C27.0576 62.2516 27.0267 62.0303 26.9648 61.8643C26.9063 61.695 26.8151 61.5729 26.6914 61.498C26.571 61.4199 26.418 61.3809 26.2324 61.3809C26.0632 61.3809 25.9053 61.4281 25.7588 61.5225C25.6123 61.6169 25.4837 61.7471 25.373 61.9131C25.2656 62.0791 25.181 62.2695 25.1191 62.4844C25.0605 62.696 25.0313 62.9206 25.0313 63.1582ZM31.8086 65.0967V62.2305C31.8086 62.0221 31.776 61.8545 31.7109 61.7275C31.6491 61.6006 31.5547 61.5078 31.4277 61.4492C31.304 61.3906 31.1478 61.3613 30.959 61.3613C30.7767 61.3613 30.6188 61.3988 30.4854 61.4736C30.3551 61.5485 30.2542 61.6478 30.1826 61.7715C30.1143 61.8952 30.0801 62.0319 30.0801 62.1816H29.2158C29.2158 61.9928 29.2565 61.8057 29.3379 61.6201C29.4225 61.4346 29.543 61.2669 29.6992 61.1172C29.8555 60.9642 30.0426 60.8438 30.2607 60.7559C30.4821 60.6647 30.7295 60.6191 31.0029 60.6191C31.3285 60.6191 31.6165 60.6729 31.8672 60.7803C32.1178 60.8844 32.3148 61.0553 32.458 61.293C32.6012 61.5306 32.6729 61.8464 32.6729 62.2402V64.8477C32.6729 65.0234 32.6859 65.2106 32.7119 65.4092C32.7412 65.6077 32.7819 65.7786 32.834 65.9219V66H31.9404C31.8981 65.8958 31.8656 65.7575 31.8428 65.585C31.82 65.4092 31.8086 65.2464 31.8086 65.0967ZM31.9453 62.7969L31.9551 63.4316H31.3545C31.1494 63.4316 30.9622 63.4544 30.793 63.5C30.627 63.5456 30.4837 63.6123 30.3633 63.7002C30.2428 63.7848 30.1501 63.8906 30.085 64.0176C30.0231 64.1445 29.9922 64.2894 29.9922 64.4521C29.9922 64.6637 30.0215 64.833 30.0801 64.96C30.1387 65.0837 30.2266 65.1732 30.3438 65.2285C30.4609 65.2839 30.609 65.3115 30.7881 65.3115C31.0062 65.3115 31.1982 65.2611 31.3643 65.1602C31.5303 65.0592 31.6589 64.9372 31.75 64.7939C31.8444 64.6507 31.8883 64.5173 31.8818 64.3936L32.0723 64.7988C32.0592 64.9258 32.0169 65.0641 31.9453 65.2139C31.877 65.3604 31.7809 65.502 31.6572 65.6387C31.5335 65.7721 31.387 65.8828 31.2178 65.9707C31.0518 66.0553 30.8646 66.0977 30.6563 66.0977C30.3503 66.0977 30.0817 66.0391 29.8506 65.9219C29.6227 65.8047 29.4453 65.6322 29.3184 65.4043C29.1914 65.1764 29.1279 64.8949 29.1279 64.5596C29.1279 64.3057 29.1719 64.0713 29.2598 63.8564C29.3477 63.6416 29.4779 63.4561 29.6504 63.2998C29.8229 63.1403 30.0394 63.0166 30.2998 62.9287C30.5635 62.8408 30.8678 62.7969 31.2129 62.7969H31.9453ZM35.8467 65.3604C36.0192 65.3604 36.1755 65.3262 36.3154 65.2578C36.4587 65.1862 36.5758 65.0755 36.667 64.9258C36.7581 64.7728 36.8102 64.5742 36.8232 64.3301H37.6338C37.6208 64.6816 37.5313 64.9909 37.3652 65.2578C37.2025 65.5215 36.9876 65.7282 36.7207 65.8779C36.457 66.0244 36.1657 66.0977 35.8467 66.0977C35.5049 66.0977 35.207 66.0423 34.9531 65.9316C34.7025 65.821 34.4941 65.6615 34.3281 65.4531C34.1654 65.2415 34.0433 64.986 33.9619 64.6865C33.8805 64.3838 33.8398 64.0404 33.8398 63.6562V63.0605C33.8398 62.6764 33.8805 62.3346 33.9619 62.0352C34.0433 61.7324 34.1654 61.4769 34.3281 61.2686C34.4941 61.057 34.7025 60.8958 34.9531 60.7852C35.207 60.6745 35.5049 60.6191 35.8467 60.6191C36.2048 60.6191 36.514 60.6956 36.7744 60.8486C37.0381 60.9984 37.2432 61.2165 37.3896 61.5029C37.5394 61.7861 37.6208 62.1296 37.6338 62.5332H36.8232C36.8102 62.2728 36.763 62.0563 36.6816 61.8838C36.6003 61.708 36.4896 61.5778 36.3496 61.4932C36.2096 61.4053 36.042 61.3613 35.8467 61.3613C35.6188 61.3613 35.43 61.402 35.2803 61.4834C35.1338 61.5615 35.0182 61.6755 34.9336 61.8252C34.849 61.9749 34.7887 62.154 34.7529 62.3623C34.7204 62.5706 34.7041 62.8034 34.7041 63.0605V63.6562C34.7041 63.9134 34.7204 64.1478 34.7529 64.3594C34.7887 64.5677 34.8473 64.7467 34.9287 64.8965C35.0133 65.0462 35.1305 65.1618 35.2803 65.2432C35.43 65.3213 35.6188 65.3604 35.8467 65.3604ZM35.0459 58.5049L35.6318 59.335L36.2129 58.5049H36.9551V58.5537L35.8857 59.8916H35.3779L34.3232 58.5537V58.5049H35.0459ZM39.5039 58.5V66H38.6396V58.5H39.5039ZM42.1846 60.7168L40.3047 63.1826L39.1426 64.5205L39.084 63.5586L39.8848 62.4551L41.1445 60.7168H42.1846ZM41.3936 66L39.9092 63.4805L40.3535 62.6748L42.3994 66H41.3936ZM44.3721 65.4531L45.5488 60.7168H46.4668L44.7236 66.8154C44.6813 66.9456 44.6243 67.0856 44.5527 67.2354C44.4844 67.3883 44.3965 67.5332 44.2891 67.6699C44.1816 67.8066 44.0531 67.9173 43.9033 68.002C43.7536 68.0898 43.5778 68.1338 43.376 68.1338C43.3141 68.1338 43.2344 68.124 43.1367 68.1045C43.0423 68.085 42.974 68.0687 42.9316 68.0557V67.3232C42.9512 67.3265 42.9821 67.3298 43.0244 67.333C43.0667 67.3395 43.0977 67.3428 43.1172 67.3428C43.2865 67.3428 43.4297 67.3151 43.5469 67.2598C43.6673 67.2077 43.7699 67.1182 43.8545 66.9912C43.9391 66.8675 44.0107 66.6966 44.0693 66.4785L44.3721 65.4531ZM43.6104 60.7168L44.6602 64.8184L44.8848 65.7705L44.2695 66.1025L42.668 60.7168H43.6104Z" fill="url(#paint0_linear_363_2964)"/>
<path d="M106.113 40.8906V48H105.215V40.8906H106.113ZM108.511 44.0889V44.8604H105.942V44.0889H108.511ZM108.916 40.8906V41.6621H105.942V40.8906H108.916ZM112.334 47.0967V44.2305C112.334 44.0221 112.301 43.8545 112.236 43.7275C112.174 43.6006 112.08 43.5078 111.953 43.4492C111.829 43.3906 111.673 43.3613 111.484 43.3613C111.302 43.3613 111.144 43.3988 111.011 43.4736C110.881 43.5485 110.78 43.6478 110.708 43.7715C110.64 43.8952 110.605 44.0319 110.605 44.1816H109.741C109.741 43.9928 109.782 43.8057 109.863 43.6201C109.948 43.4346 110.068 43.2669 110.225 43.1172C110.381 42.9642 110.568 42.8438 110.786 42.7559C111.007 42.6647 111.255 42.6191 111.528 42.6191C111.854 42.6191 112.142 42.6729 112.393 42.7803C112.643 42.8844 112.84 43.0553 112.983 43.293C113.127 43.5306 113.198 43.8464 113.198 44.2402V46.8477C113.198 47.0234 113.211 47.2106 113.237 47.4092C113.267 47.6077 113.307 47.7786 113.359 47.9219V48H112.466C112.424 47.8958 112.391 47.7575 112.368 47.585C112.345 47.4092 112.334 47.2464 112.334 47.0967ZM112.471 44.7969L112.48 45.4316H111.88C111.675 45.4316 111.488 45.4544 111.318 45.5C111.152 45.5456 111.009 45.6123 110.889 45.7002C110.768 45.7848 110.675 45.8906 110.61 46.0176C110.549 46.1445 110.518 46.2894 110.518 46.4521C110.518 46.6637 110.547 46.833 110.605 46.96C110.664 47.0837 110.752 47.1732 110.869 47.2285C110.986 47.2839 111.134 47.3115 111.313 47.3115C111.532 47.3115 111.724 47.2611 111.89 47.1602C112.056 47.0592 112.184 46.9372 112.275 46.7939C112.37 46.6507 112.414 46.5173 112.407 46.3936L112.598 46.7988C112.585 46.9258 112.542 47.0641 112.471 47.2139C112.402 47.3604 112.306 47.502 112.183 47.6387C112.059 47.7721 111.912 47.8828 111.743 47.9707C111.577 48.0553 111.39 48.0977 111.182 48.0977C110.876 48.0977 110.607 48.0391 110.376 47.9219C110.148 47.8047 109.971 47.6322 109.844 47.4043C109.717 47.1764 109.653 46.8949 109.653 46.5596C109.653 46.3057 109.697 46.0713 109.785 45.8564C109.873 45.6416 110.003 45.4561 110.176 45.2998C110.348 45.1403 110.565 45.0166 110.825 44.9287C111.089 44.8408 111.393 44.7969 111.738 44.7969H112.471ZM115.41 40.5V48H114.546V40.5H115.41ZM118.091 42.7168L116.211 45.1826L115.049 46.5205L114.99 45.5586L115.791 44.4551L117.051 42.7168H118.091ZM117.3 48L115.815 45.4805L116.26 44.6748L118.306 48H117.3ZM120.981 42.7168V43.4102H118.516V42.7168H120.981ZM119.321 41.4326H120.186V46.6914C120.186 46.8704 120.207 47.0055 120.249 47.0967C120.295 47.1878 120.352 47.248 120.42 47.2773C120.488 47.3066 120.562 47.3213 120.64 47.3213C120.698 47.3213 120.763 47.3148 120.835 47.3018C120.907 47.2855 120.955 47.2725 120.981 47.2627L120.977 48C120.918 48.0228 120.84 48.0439 120.742 48.0635C120.645 48.0863 120.521 48.0977 120.371 48.0977C120.186 48.0977 120.013 48.0537 119.854 47.9658C119.694 47.8779 119.565 47.7314 119.468 47.5264C119.37 47.318 119.321 47.0381 119.321 46.6865V41.4326ZM124.683 46.7793V42.7168H125.547V48H124.727L124.683 46.7793ZM124.844 45.666L125.186 45.6562C125.186 46.0078 125.155 46.3333 125.093 46.6328C125.034 46.929 124.937 47.1862 124.8 47.4043C124.666 47.6224 124.489 47.7933 124.268 47.917C124.046 48.0374 123.774 48.0977 123.452 48.0977C123.234 48.0977 123.035 48.0602 122.856 47.9854C122.681 47.9105 122.528 47.7949 122.397 47.6387C122.271 47.4824 122.171 47.279 122.1 47.0283C122.031 46.7777 121.997 46.4766 121.997 46.125V42.7168H122.856V46.1348C122.856 46.3724 122.878 46.5693 122.92 46.7256C122.962 46.8786 123.019 47.0007 123.091 47.0918C123.162 47.1797 123.242 47.2415 123.33 47.2773C123.418 47.3132 123.507 47.3311 123.599 47.3311C123.905 47.3311 124.149 47.2578 124.331 47.1113C124.513 46.9616 124.644 46.7614 124.722 46.5107C124.803 46.2568 124.844 45.9753 124.844 45.666ZM127.71 43.5469V48H126.846V42.7168H127.681L127.71 43.5469ZM129.023 42.6875L129.028 43.5273C128.957 43.5111 128.892 43.5013 128.833 43.498C128.778 43.4915 128.713 43.4883 128.638 43.4883C128.475 43.4883 128.332 43.5208 128.208 43.5859C128.088 43.651 127.983 43.7422 127.896 43.8594C127.808 43.9766 127.738 44.1165 127.686 44.2793C127.633 44.4388 127.598 44.6146 127.578 44.8066L127.354 44.9531C127.354 44.6341 127.378 44.3346 127.427 44.0547C127.479 43.7747 127.559 43.5273 127.666 43.3125C127.773 43.0944 127.91 42.9251 128.076 42.8047C128.245 42.681 128.447 42.6191 128.682 42.6191C128.734 42.6191 128.797 42.6273 128.872 42.6436C128.95 42.6566 129.001 42.6712 129.023 42.6875ZM132.285 47.0967V44.2305C132.285 44.0221 132.253 43.8545 132.188 43.7275C132.126 43.6006 132.031 43.5078 131.904 43.4492C131.781 43.3906 131.624 43.3613 131.436 43.3613C131.253 43.3613 131.095 43.3988 130.962 43.4736C130.832 43.5485 130.731 43.6478 130.659 43.7715C130.591 43.8952 130.557 44.0319 130.557 44.1816H129.692C129.692 43.9928 129.733 43.8057 129.814 43.6201C129.899 43.4346 130.02 43.2669 130.176 43.1172C130.332 42.9642 130.519 42.8437 130.737 42.7559C130.959 42.6647 131.206 42.6191 131.479 42.6191C131.805 42.6191 132.093 42.6729 132.344 42.7803C132.594 42.8844 132.791 43.0553 132.935 43.293C133.078 43.5306 133.149 43.8464 133.149 44.2402V46.8477C133.149 47.0234 133.162 47.2106 133.188 47.4092C133.218 47.6077 133.258 47.7786 133.311 47.9219V48H132.417C132.375 47.8958 132.342 47.7575 132.319 47.585C132.297 47.4092 132.285 47.2464 132.285 47.0967ZM132.422 44.7969L132.432 45.4316H131.831C131.626 45.4316 131.439 45.4544 131.27 45.5C131.104 45.5456 130.96 45.6123 130.84 45.7002C130.719 45.7848 130.627 45.8906 130.562 46.0176C130.5 46.1445 130.469 46.2894 130.469 46.4521C130.469 46.6637 130.498 46.833 130.557 46.96C130.615 47.0837 130.703 47.1732 130.82 47.2285C130.938 47.2839 131.086 47.3115 131.265 47.3115C131.483 47.3115 131.675 47.2611 131.841 47.1602C132.007 47.0592 132.135 46.9372 132.227 46.7939C132.321 46.6507 132.365 46.5173 132.358 46.3936L132.549 46.7988C132.536 46.9258 132.493 47.0641 132.422 47.2139C132.354 47.3604 132.257 47.502 132.134 47.6387C132.01 47.7721 131.864 47.8828 131.694 47.9707C131.528 48.0553 131.341 48.0977 131.133 48.0977C130.827 48.0977 130.558 48.0391 130.327 47.9219C130.099 47.8047 129.922 47.6322 129.795 47.4043C129.668 47.1764 129.604 46.8949 129.604 46.5596C129.604 46.3057 129.648 46.0713 129.736 45.8564C129.824 45.6416 129.954 45.4561 130.127 45.2998C130.299 45.1403 130.516 45.0166 130.776 44.9287C131.04 44.8408 131.344 44.7969 131.689 44.7969H132.422ZM131.035 41.9355L131.982 40.5H133.071L131.763 41.9355H131.035ZM136.323 47.3604C136.496 47.3604 136.652 47.3262 136.792 47.2578C136.935 47.1862 137.052 47.0755 137.144 46.9258C137.235 46.7728 137.287 46.5742 137.3 46.3301H138.11C138.097 46.6816 138.008 46.9909 137.842 47.2578C137.679 47.5215 137.464 47.7282 137.197 47.8779C136.934 48.0244 136.642 48.0977 136.323 48.0977C135.981 48.0977 135.684 48.0423 135.43 47.9316C135.179 47.821 134.971 47.6615 134.805 47.4531C134.642 47.2415 134.52 46.986 134.438 46.6865C134.357 46.3838 134.316 46.0404 134.316 45.6562V45.0605C134.316 44.6764 134.357 44.3346 134.438 44.0352C134.52 43.7324 134.642 43.4769 134.805 43.2686C134.971 43.057 135.179 42.8958 135.43 42.7852C135.684 42.6745 135.981 42.6191 136.323 42.6191C136.681 42.6191 136.991 42.6956 137.251 42.8486C137.515 42.9984 137.72 43.2165 137.866 43.5029C138.016 43.7861 138.097 44.1296 138.11 44.5332H137.3C137.287 44.2728 137.24 44.0563 137.158 43.8838C137.077 43.708 136.966 43.5778 136.826 43.4932C136.686 43.4053 136.519 43.3613 136.323 43.3613C136.095 43.3613 135.907 43.402 135.757 43.4834C135.61 43.5615 135.495 43.6755 135.41 43.8252C135.326 43.9749 135.265 44.154 135.229 44.3623C135.197 44.5706 135.181 44.8034 135.181 45.0605V45.6562C135.181 45.9134 135.197 46.1478 135.229 46.3594C135.265 46.5677 135.324 46.7467 135.405 46.8965C135.49 47.0462 135.607 47.1618 135.757 47.2432C135.907 47.3213 136.095 47.3604 136.323 47.3604ZM140.039 42.7168V48H139.18V42.7168H140.039ZM139.131 41.3154C139.131 41.1689 139.172 41.0452 139.253 40.9443C139.334 40.8434 139.456 40.793 139.619 40.793C139.782 40.793 139.904 40.8434 139.985 40.9443C140.07 41.0452 140.112 41.1689 140.112 41.3154C140.112 41.4554 140.07 41.5758 139.985 41.6768C139.904 41.7744 139.782 41.8232 139.619 41.8232C139.456 41.8232 139.334 41.7744 139.253 41.6768C139.172 41.5758 139.131 41.4554 139.131 41.3154ZM143.994 47.0967V44.2305C143.994 44.0221 143.962 43.8545 143.896 43.7275C143.835 43.6006 143.74 43.5078 143.613 43.4492C143.49 43.3906 143.333 43.3613 143.145 43.3613C142.962 43.3613 142.804 43.3988 142.671 43.4736C142.541 43.5485 142.44 43.6478 142.368 43.7715C142.3 43.8952 142.266 44.0319 142.266 44.1816H141.401C141.401 43.9928 141.442 43.8057 141.523 43.6201C141.608 43.4346 141.729 43.2669 141.885 43.1172C142.041 42.9642 142.228 42.8437 142.446 42.7559C142.668 42.6647 142.915 42.6191 143.188 42.6191C143.514 42.6191 143.802 42.6729 144.053 42.7803C144.303 42.8844 144.5 43.0553 144.644 43.293C144.787 43.5306 144.858 43.8464 144.858 44.2402V46.8477C144.858 47.0234 144.871 47.2106 144.897 47.4092C144.927 47.6077 144.967 47.7786 145.02 47.9219V48H144.126C144.084 47.8958 144.051 47.7575 144.028 47.585C144.006 47.4092 143.994 47.2464 143.994 47.0967ZM144.131 44.7969L144.141 45.4316H143.54C143.335 45.4316 143.148 45.4544 142.979 45.5C142.812 45.5456 142.669 45.6123 142.549 45.7002C142.428 45.7848 142.336 45.8906 142.271 46.0176C142.209 46.1445 142.178 46.2894 142.178 46.4521C142.178 46.6637 142.207 46.833 142.266 46.96C142.324 47.0837 142.412 47.1732 142.529 47.2285C142.646 47.2839 142.795 47.3115 142.974 47.3115C143.192 47.3115 143.384 47.2611 143.55 47.1602C143.716 47.0592 143.844 46.9372 143.936 46.7939C144.03 46.6507 144.074 46.5173 144.067 46.3936L144.258 46.7988C144.245 46.9258 144.202 47.0641 144.131 47.2139C144.062 47.3604 143.966 47.502 143.843 47.6387C143.719 47.7721 143.573 47.8828 143.403 47.9707C143.237 48.0553 143.05 48.0977 142.842 48.0977C142.536 48.0977 142.267 48.0391 142.036 47.9219C141.808 47.8047 141.631 47.6322 141.504 47.4043C141.377 47.1764 141.313 46.8949 141.313 46.5596C141.313 46.3057 141.357 46.0713 141.445 45.8564C141.533 45.6416 141.663 45.4561 141.836 45.2998C142.008 45.1403 142.225 45.0166 142.485 44.9287C142.749 44.8408 143.053 44.7969 143.398 44.7969H144.131Z" fill="#E0E0E9"/>
<path d="M200.158 39.8301V41.0654C200.158 41.5667 200.103 42.0078 199.992 42.3887C199.885 42.7663 199.727 43.082 199.519 43.3359C199.31 43.5898 199.06 43.7803 198.767 43.9072C198.474 44.0342 198.143 44.0977 197.775 44.0977C197.421 44.0977 197.097 44.0342 196.804 43.9072C196.511 43.7803 196.258 43.5898 196.047 43.3359C195.835 43.082 195.671 42.7663 195.554 42.3887C195.44 42.0078 195.383 41.5667 195.383 41.0654V39.8301C195.383 39.3288 195.44 38.8893 195.554 38.5117C195.668 38.1309 195.83 37.8135 196.042 37.5596C196.254 37.3057 196.506 37.1152 196.799 36.9883C197.092 36.8581 197.416 36.793 197.771 36.793C198.138 36.793 198.469 36.8581 198.762 36.9883C199.058 37.1152 199.309 37.3057 199.514 37.5596C199.722 37.8135 199.882 38.1309 199.992 38.5117C200.103 38.8893 200.158 39.3288 200.158 39.8301ZM199.27 41.0654V39.8203C199.27 39.4297 199.237 39.0944 199.172 38.8145C199.107 38.5312 199.011 38.3001 198.884 38.1211C198.757 37.9421 198.601 37.8102 198.415 37.7256C198.229 37.6377 198.015 37.5938 197.771 37.5938C197.539 37.5938 197.331 37.6377 197.146 37.7256C196.963 37.8102 196.807 37.9421 196.677 38.1211C196.547 38.3001 196.446 38.5312 196.374 38.8145C196.306 39.0944 196.271 39.4297 196.271 39.8203V41.0654C196.271 41.4593 196.306 41.7979 196.374 42.0811C196.446 42.361 196.547 42.5921 196.677 42.7744C196.81 42.9535 196.97 43.0869 197.155 43.1748C197.341 43.2594 197.548 43.3018 197.775 43.3018C198.02 43.3018 198.234 43.2594 198.42 43.1748C198.609 43.0869 198.765 42.9535 198.889 42.7744C199.016 42.5921 199.11 42.361 199.172 42.0811C199.237 41.7979 199.27 41.4593 199.27 41.0654ZM202.8 43.1846L203.933 38.7168H204.812L203.244 44H202.673L202.8 43.1846ZM201.887 38.7168L203.068 43.209L203.161 44H202.595L201.008 38.7168H201.887ZM207.531 44.0977C207.215 44.0977 206.931 44.0505 206.677 43.9561C206.423 43.8617 206.206 43.7184 206.027 43.5264C205.848 43.3311 205.712 43.0853 205.617 42.7891C205.523 42.4928 205.476 42.1429 205.476 41.7393V41.1436C205.476 40.6781 205.529 40.2842 205.637 39.9619C205.747 39.6396 205.896 39.3809 206.081 39.1855C206.267 38.987 206.477 38.8438 206.711 38.7559C206.945 38.6647 207.186 38.6191 207.434 38.6191C207.766 38.6191 208.049 38.6729 208.283 38.7803C208.518 38.8877 208.708 39.0472 208.854 39.2588C209.001 39.4704 209.108 39.7308 209.177 40.04C209.248 40.3493 209.284 40.7057 209.284 41.1094V41.6123H205.983V40.875H208.42V40.7529C208.407 40.4795 208.369 40.2386 208.308 40.0303C208.249 39.8219 208.151 39.6592 208.015 39.542C207.878 39.4215 207.684 39.3613 207.434 39.3613C207.274 39.3613 207.126 39.389 206.989 39.4443C206.856 39.4964 206.74 39.5892 206.643 39.7227C206.548 39.8529 206.473 40.0335 206.418 40.2646C206.366 40.4958 206.34 40.7887 206.34 41.1436V41.7393C206.34 42.0225 206.366 42.2666 206.418 42.4717C206.473 42.6735 206.553 42.8411 206.657 42.9746C206.765 43.1048 206.895 43.2025 207.048 43.2676C207.204 43.3294 207.382 43.3604 207.58 43.3604C207.87 43.3604 208.109 43.305 208.298 43.1943C208.487 43.0804 208.651 42.9355 208.791 42.7598L209.245 43.3018C209.151 43.4352 209.027 43.5638 208.874 43.6875C208.724 43.8079 208.539 43.9072 208.317 43.9854C208.099 44.0602 207.837 44.0977 207.531 44.0977ZM211.193 39.5469V44H210.329V38.7168H211.164L211.193 39.5469ZM212.507 38.6875L212.512 39.5273C212.44 39.5111 212.375 39.5013 212.316 39.498C212.261 39.4915 212.196 39.4883 212.121 39.4883C211.958 39.4883 211.815 39.5208 211.691 39.5859C211.571 39.651 211.467 39.7422 211.379 39.8594C211.291 39.9766 211.221 40.1165 211.169 40.2793C211.117 40.4388 211.081 40.6146 211.062 40.8066L210.837 40.9531C210.837 40.6341 210.861 40.3346 210.91 40.0547C210.962 39.7747 211.042 39.5273 211.149 39.3125C211.257 39.0944 211.394 38.9251 211.56 38.8047C211.729 38.681 211.931 38.6191 212.165 38.6191C212.217 38.6191 212.281 38.6273 212.355 38.6436C212.434 38.6566 212.484 38.6712 212.507 38.6875ZM215.168 44.0977C214.852 44.0977 214.567 44.0505 214.313 43.9561C214.06 43.8617 213.843 43.7184 213.664 43.5264C213.485 43.3311 213.348 43.0853 213.254 42.7891C213.16 42.4928 213.112 42.1429 213.112 41.7393V41.1436C213.112 40.6781 213.166 40.2842 213.273 39.9619C213.384 39.6396 213.532 39.3809 213.718 39.1855C213.903 38.987 214.113 38.8437 214.348 38.7559C214.582 38.6647 214.823 38.6191 215.07 38.6191C215.402 38.6191 215.686 38.6729 215.92 38.7803C216.154 38.8877 216.345 39.0472 216.491 39.2588C216.638 39.4704 216.745 39.7308 216.813 40.04C216.885 40.3493 216.921 40.7057 216.921 41.1094V41.6123L213.62 41.6123V40.875L216.057 40.875V40.7529C216.044 40.4795 216.006 40.2386 215.944 40.0303C215.886 39.8219 215.788 39.6592 215.651 39.542C215.515 39.4215 215.321 39.3613 215.07 39.3613C214.911 39.3613 214.763 39.389 214.626 39.4443C214.493 39.4964 214.377 39.5892 214.279 39.7227C214.185 39.8529 214.11 40.0335 214.055 40.2646C214.003 40.4958 213.977 40.7887 213.977 41.1436V41.7393C213.977 42.0225 214.003 42.2666 214.055 42.4717C214.11 42.6735 214.19 42.8411 214.294 42.9746C214.401 43.1048 214.532 43.2025 214.685 43.2676C214.841 43.3294 215.018 43.3604 215.217 43.3604C215.507 43.3604 215.746 43.305 215.935 43.1943C216.123 43.0804 216.288 42.9355 216.428 42.7598L216.882 43.3018C216.787 43.4352 216.664 43.5638 216.511 43.6875C216.361 43.8079 216.175 43.9072 215.954 43.9854C215.736 44.0602 215.474 44.0977 215.168 44.0977ZM218.83 39.8447V44L217.966 44V38.7168H218.781L218.83 39.8447ZM218.62 41.1582L218.269 41.1436C218.265 40.7822 218.306 40.4486 218.391 40.1426C218.479 39.8333 218.602 39.5648 218.762 39.3369C218.924 39.109 219.118 38.9333 219.343 38.8096C219.567 38.6826 219.816 38.6191 220.09 38.6191C220.305 38.6191 220.5 38.6549 220.676 38.7266C220.852 38.7949 221.001 38.9056 221.125 39.0586C221.249 39.2116 221.343 39.4102 221.408 39.6543C221.477 39.8952 221.511 40.1898 221.511 40.5381V44H220.646V40.5283C220.646 40.2516 220.616 40.0303 220.554 39.8643C220.495 39.695 220.404 39.5729 220.28 39.498C220.16 39.4199 220.007 39.3809 219.821 39.3809C219.652 39.3809 219.494 39.4281 219.348 39.5225C219.201 39.6169 219.073 39.7471 218.962 39.9131C218.854 40.0791 218.77 40.2695 218.708 40.4844C218.649 40.696 218.62 40.9206 218.62 41.1582ZM223.737 38.7168V44H222.878V38.7168H223.737ZM222.829 37.3154C222.829 37.1689 222.87 37.0452 222.951 36.9443C223.033 36.8434 223.155 36.793 223.317 36.793C223.48 36.793 223.602 36.8434 223.684 36.9443C223.768 37.0452 223.811 37.1689 223.811 37.3154C223.811 37.4554 223.768 37.5758 223.684 37.6768C223.602 37.7744 223.48 37.8232 223.317 37.8232C223.155 37.8232 223.033 37.7744 222.951 37.6768C222.87 37.5758 222.829 37.4554 222.829 37.3154ZM226.994 44.0977C226.678 44.0977 226.394 44.0505 226.14 43.9561C225.886 43.8617 225.669 43.7184 225.49 43.5264C225.311 43.3311 225.174 43.0853 225.08 42.7891C224.986 42.4928 224.938 42.1429 224.938 41.7393V41.1436C224.938 40.6781 224.992 40.2842 225.1 39.9619C225.21 39.6396 225.358 39.3809 225.544 39.1855C225.729 38.987 225.939 38.8437 226.174 38.7559C226.408 38.6647 226.649 38.6191 226.896 38.6191C227.229 38.6191 227.512 38.6729 227.746 38.7803C227.98 38.8877 228.171 39.0472 228.317 39.2588C228.464 39.4704 228.571 39.7308 228.64 40.04C228.711 40.3493 228.747 40.7057 228.747 41.1094V41.6123H225.446V40.875H227.883V40.7529C227.87 40.4795 227.832 40.2386 227.771 40.0303C227.712 39.8219 227.614 39.6592 227.478 39.542C227.341 39.4215 227.147 39.3613 226.896 39.3613C226.737 39.3613 226.589 39.389 226.452 39.4443C226.319 39.4964 226.203 39.5892 226.105 39.7227C226.011 39.8529 225.936 40.0335 225.881 40.2646C225.829 40.4958 225.803 40.7887 225.803 41.1436V41.7393C225.803 42.0225 225.829 42.2666 225.881 42.4717C225.936 42.6735 226.016 42.8411 226.12 42.9746C226.228 43.1048 226.358 43.2025 226.511 43.2676C226.667 43.3294 226.844 43.3604 227.043 43.3604C227.333 43.3604 227.572 43.305 227.761 43.1943C227.95 43.0804 228.114 42.9355 228.254 42.7598L228.708 43.3018C228.614 43.4352 228.49 43.5638 228.337 43.6875C228.187 43.8079 228.002 43.9072 227.78 43.9854C227.562 44.0602 227.3 44.0977 226.994 44.0977ZM234.675 43.0967V40.2305C234.675 40.0221 234.642 39.8545 234.577 39.7275C234.515 39.6006 234.421 39.5078 234.294 39.4492C234.17 39.3906 234.014 39.3613 233.825 39.3613C233.643 39.3613 233.485 39.3988 233.352 39.4736C233.221 39.5485 233.12 39.6478 233.049 39.7715C232.98 39.8952 232.946 40.0319 232.946 40.1816H232.082C232.082 39.9928 232.123 39.8057 232.204 39.6201C232.289 39.4346 232.409 39.2669 232.565 39.1172C232.722 38.9642 232.909 38.8437 233.127 38.7559C233.348 38.6647 233.596 38.6191 233.869 38.6191C234.195 38.6191 234.483 38.6729 234.733 38.7803C234.984 38.8844 235.181 39.0553 235.324 39.293C235.467 39.5306 235.539 39.8464 235.539 40.2402V42.8477C235.539 43.0234 235.552 43.2106 235.578 43.4092C235.607 43.6077 235.648 43.7786 235.7 43.9219V44H234.807C234.764 43.8958 234.732 43.7575 234.709 43.585C234.686 43.4092 234.675 43.2464 234.675 43.0967ZM234.812 40.7969L234.821 41.4316H234.221C234.016 41.4316 233.828 41.4544 233.659 41.5C233.493 41.5456 233.35 41.6123 233.229 41.7002C233.109 41.7848 233.016 41.8906 232.951 42.0176C232.889 42.1445 232.858 42.2894 232.858 42.4521C232.858 42.6637 232.888 42.833 232.946 42.96C233.005 43.0837 233.093 43.1732 233.21 43.2285C233.327 43.2839 233.475 43.3115 233.654 43.3115C233.872 43.3115 234.064 43.2611 234.23 43.1602C234.396 43.0592 234.525 42.9372 234.616 42.7939C234.711 42.6507 234.755 42.5173 234.748 42.3936L234.938 42.7988C234.925 42.9258 234.883 43.0641 234.812 43.2139C234.743 43.3604 234.647 43.502 234.523 43.6387C234.4 43.7721 234.253 43.8828 234.084 43.9707C233.918 44.0553 233.731 44.0977 233.522 44.0977C233.216 44.0977 232.948 44.0391 232.717 43.9219C232.489 43.8047 232.312 43.6322 232.185 43.4043C232.058 43.1764 231.994 42.8949 231.994 42.5596C231.994 42.3057 232.038 42.0713 232.126 41.8564C232.214 41.6416 232.344 41.4561 232.517 41.2998C232.689 41.1403 232.906 41.0166 233.166 40.9287C233.43 40.8408 233.734 40.7969 234.079 40.7969H234.812ZM204.66 50.7324V57.0312H203.796V49.7168H204.582L204.66 50.7324ZM207.614 52.1191V52.6123C207.614 53.029 207.575 53.3936 207.497 53.7061C207.422 54.0153 207.31 54.2741 207.16 54.4824C207.014 54.6875 206.833 54.8421 206.618 54.9463C206.403 55.0472 206.158 55.0977 205.881 55.0977C205.604 55.0977 205.363 55.0456 205.158 54.9414C204.956 54.834 204.785 54.6794 204.646 54.4775C204.509 54.2757 204.4 54.0332 204.318 53.75C204.24 53.4635 204.187 53.1429 204.157 52.7881V52.0361C204.187 51.6618 204.24 51.3265 204.318 51.0303C204.396 50.7308 204.504 50.4769 204.641 50.2686C204.781 50.057 204.951 49.8958 205.153 49.7852C205.358 49.6745 205.598 49.6191 205.871 49.6191C206.154 49.6191 206.403 49.668 206.618 49.7656C206.836 49.8633 207.019 50.0146 207.165 50.2197C207.315 50.4215 207.427 50.6803 207.502 50.9961C207.577 51.3086 207.614 51.6829 207.614 52.1191ZM206.75 52.6123V52.1191C206.75 51.8262 206.727 51.5706 206.682 51.3525C206.639 51.1344 206.571 50.9538 206.477 50.8105C206.382 50.6673 206.263 50.5599 206.12 50.4883C205.977 50.4167 205.804 50.3809 205.603 50.3809C205.43 50.3809 205.277 50.4167 205.144 50.4883C205.013 50.5599 204.901 50.6576 204.807 50.7812C204.712 50.9017 204.634 51.04 204.572 51.1963C204.51 51.3493 204.465 51.5088 204.436 51.6748V53.1543C204.491 53.3626 204.564 53.5596 204.655 53.7451C204.746 53.9274 204.868 54.0755 205.021 54.1895C205.178 54.3034 205.375 54.3604 205.612 54.3604C205.811 54.3604 205.982 54.3245 206.125 54.2529C206.268 54.1813 206.385 54.0739 206.477 53.9307C206.571 53.7842 206.639 53.6019 206.682 53.3838C206.727 53.1624 206.75 52.9053 206.75 52.6123ZM209.655 47.5V55H208.796V47.5H209.655ZM213.61 54.0967V51.2305C213.61 51.0221 213.578 50.8545 213.513 50.7275C213.451 50.6006 213.356 50.5078 213.229 50.4492C213.106 50.3906 212.95 50.3613 212.761 50.3613C212.578 50.3613 212.421 50.3988 212.287 50.4736C212.157 50.5485 212.056 50.6478 211.984 50.7715C211.916 50.8952 211.882 51.0319 211.882 51.1816H211.018C211.018 50.9928 211.058 50.8057 211.14 50.6201C211.224 50.4346 211.345 50.2669 211.501 50.1172C211.657 49.9642 211.844 49.8438 212.062 49.7559C212.284 49.6647 212.531 49.6191 212.805 49.6191C213.13 49.6191 213.418 49.6729 213.669 49.7803C213.92 49.8844 214.117 50.0553 214.26 50.293C214.403 50.5306 214.475 50.8464 214.475 51.2402V53.8477C214.475 54.0234 214.488 54.2106 214.514 54.4092C214.543 54.6077 214.584 54.7786 214.636 54.9219V55H213.742C213.7 54.8958 213.667 54.7575 213.645 54.585C213.622 54.4092 213.61 54.2464 213.61 54.0967ZM213.747 51.7969L213.757 52.4316H213.156C212.951 52.4316 212.764 52.4544 212.595 52.5C212.429 52.5456 212.285 52.6123 212.165 52.7002C212.045 52.7848 211.952 52.8906 211.887 53.0176C211.825 53.1445 211.794 53.2894 211.794 53.4521C211.794 53.6637 211.823 53.833 211.882 53.96C211.94 54.0837 212.028 54.1732 212.146 54.2285C212.263 54.2839 212.411 54.3115 212.59 54.3115C212.808 54.3115 213 54.2611 213.166 54.1602C213.332 54.0592 213.461 53.9372 213.552 53.7939C213.646 53.6507 213.69 53.5173 213.684 53.3936L213.874 53.7988C213.861 53.9258 213.819 54.0641 213.747 54.2139C213.679 54.3604 213.583 54.502 213.459 54.6387C213.335 54.7721 213.189 54.8828 213.02 54.9707C212.854 55.0553 212.666 55.0977 212.458 55.0977C212.152 55.0977 211.883 55.0391 211.652 54.9219C211.424 54.8047 211.247 54.6322 211.12 54.4043C210.993 54.1764 210.93 53.8949 210.93 53.5596C210.93 53.3057 210.974 53.0713 211.062 52.8564C211.149 52.6416 211.28 52.4561 211.452 52.2998C211.625 52.1403 211.841 52.0166 212.102 51.9287C212.365 51.8408 212.67 51.7969 213.015 51.7969H213.747ZM217.746 49.7168V50.4102H215.28V49.7168H217.746ZM216.086 48.4326H216.95V53.6914C216.95 53.8704 216.971 54.0055 217.014 54.0967C217.059 54.1878 217.116 54.248 217.185 54.2773C217.253 54.3066 217.326 54.3213 217.404 54.3213C217.463 54.3213 217.528 54.3148 217.6 54.3018C217.671 54.2855 217.72 54.2725 217.746 54.2627L217.741 55C217.683 55.0228 217.604 55.0439 217.507 55.0635C217.409 55.0863 217.285 55.0977 217.136 55.0977C216.95 55.0977 216.778 55.0537 216.618 54.9658C216.459 54.8779 216.33 54.7314 216.232 54.5264C216.135 54.318 216.086 54.0381 216.086 53.6865V48.4326ZM218.776 47.5H219.641V53.9746L219.567 55H218.776V47.5ZM222.604 52.1191V52.6123C222.604 53.029 222.565 53.3936 222.487 53.7061C222.412 54.0153 222.3 54.2741 222.15 54.4824C222.001 54.6875 221.818 54.8421 221.604 54.9463C221.389 55.0472 221.143 55.0977 220.866 55.0977C220.593 55.0977 220.357 55.0423 220.158 54.9316C219.96 54.821 219.794 54.6615 219.66 54.4531C219.527 54.2448 219.421 53.9925 219.343 53.6963C219.268 53.4001 219.216 53.0664 219.187 52.6953V52.0361C219.216 51.6618 219.268 51.3265 219.343 51.0303C219.418 50.7308 219.522 50.4769 219.655 50.2686C219.789 50.057 219.955 49.8958 220.153 49.7852C220.352 49.6745 220.588 49.6191 220.861 49.6191C221.141 49.6191 221.389 49.668 221.604 49.7656C221.822 49.8633 222.004 50.0146 222.15 50.2197C222.3 50.4215 222.412 50.6803 222.487 50.9961C222.565 51.3086 222.604 51.6829 222.604 52.1191ZM221.74 52.6123V52.1191C221.74 51.8262 221.721 51.5706 221.682 51.3525C221.646 51.1344 221.586 50.9538 221.501 50.8105C221.416 50.6673 221.302 50.5599 221.159 50.4883C221.019 50.4167 220.845 50.3809 220.637 50.3809C220.461 50.3809 220.306 50.4167 220.173 50.4883C220.043 50.5599 219.93 50.6576 219.836 50.7812C219.742 50.9017 219.663 51.04 219.602 51.1963C219.54 51.3493 219.494 51.5088 219.465 51.6748V53.0615C219.507 53.2731 219.574 53.4766 219.665 53.6719C219.759 53.8639 219.886 54.0218 220.046 54.1455C220.205 54.2692 220.404 54.3311 220.642 54.3311C220.84 54.3311 221.008 54.2969 221.145 54.2285C221.285 54.1602 221.398 54.056 221.486 53.916C221.574 53.7728 221.638 53.5938 221.677 53.3789C221.719 53.1608 221.74 52.9053 221.74 52.6123ZM226.296 54.0967V51.2305C226.296 51.0221 226.263 50.8545 226.198 50.7275C226.136 50.6006 226.042 50.5078 225.915 50.4492C225.791 50.3906 225.635 50.3613 225.446 50.3613C225.264 50.3613 225.106 50.3988 224.973 50.4736C224.842 50.5485 224.742 50.6478 224.67 50.7715C224.602 50.8952 224.567 51.0319 224.567 51.1816L223.703 51.1816C223.703 50.9928 223.744 50.8057 223.825 50.6201C223.91 50.4346 224.03 50.2669 224.187 50.1172C224.343 49.9642 224.53 49.8437 224.748 49.7559C224.969 49.6647 225.217 49.6191 225.49 49.6191C225.816 49.6191 226.104 49.6729 226.354 49.7803C226.605 49.8844 226.802 50.0553 226.945 50.293C227.089 50.5306 227.16 50.8464 227.16 51.2402V53.8477C227.16 54.0234 227.173 54.2106 227.199 54.4092C227.229 54.6077 227.269 54.7786 227.321 54.9219V55H226.428C226.385 54.8958 226.353 54.7575 226.33 54.585C226.307 54.4092 226.296 54.2464 226.296 54.0967ZM226.433 51.7969L226.442 52.4316H225.842C225.637 52.4316 225.45 52.4544 225.28 52.5C225.114 52.5456 224.971 52.6123 224.851 52.7002C224.73 52.7848 224.637 52.8906 224.572 53.0176C224.51 53.1445 224.479 53.2894 224.479 53.4521C224.479 53.6637 224.509 53.833 224.567 53.96C224.626 54.0837 224.714 54.1732 224.831 54.2285C224.948 54.2839 225.096 54.3115 225.275 54.3115C225.493 54.3115 225.686 54.2611 225.852 54.1602C226.018 54.0592 226.146 53.9372 226.237 53.7939C226.332 53.6507 226.376 53.5173 226.369 53.3936L226.56 53.7988C226.547 53.9258 226.504 54.0641 226.433 54.2139C226.364 54.3604 226.268 54.502 226.145 54.6387C226.021 54.7721 225.874 54.8828 225.705 54.9707C225.539 55.0553 225.352 55.0977 225.144 55.0977C224.838 55.0977 224.569 55.0391 224.338 54.9219C224.11 54.8047 223.933 54.6322 223.806 54.4043C223.679 54.1764 223.615 53.8949 223.615 53.5596C223.615 53.3057 223.659 53.0713 223.747 52.8564C223.835 52.6416 223.965 52.4561 224.138 52.2998C224.31 52.1403 224.527 52.0166 224.787 51.9287C225.051 51.8408 225.355 51.7969 225.7 51.7969H226.433Z" fill="#E0E0E9"/>
<path fill-rule="evenodd" clip-rule="evenodd" d="M205 16L138 16V14L205 14V16Z" fill="#D0CFD7"/>
<path fill-rule="evenodd" clip-rule="evenodd" d="M112 16L45 16V14L112 14V16Z" fill="#D0CFD7"/>
<path fill-rule="evenodd" clip-rule="evenodd" d="M19.7612 6.17317C19 8.01088 19 10.3406 19 15C19 19.6594 19 21.9891 19.7612 23.8268C20.7761 26.2771 22.7229 28.2239 25.1732 29.2388C27.0109 30 29.3406 30 34 30C38.6594 30 40.9891 30 42.8268 29.2388C45.2771 28.2239 47.2239 26.2771 48.2388 23.8268C49 21.9891 49 19.6594 49 15C49 10.3406 49 8.01088 48.2388 6.17317C47.2239 3.72288 45.2771 1.77614 42.8268 0.761205C40.9891 0 38.6594 0 34 0C29.3406 0 27.0109 0 25.1732 0.761205C22.7229 1.77614 20.7761 3.72288 19.7612 6.17317ZM40.7071 11.7071C41.0976 11.3166 41.0976 10.6834 40.7071 10.2929C40.3166 9.90237 39.6834 9.90237 39.2929 10.2929L32 17.5858L28.7071 14.2929C28.3166 13.9024 27.6834 13.9024 27.2929 14.2929C26.9024 14.6834 26.9024 15.3166 27.2929 15.7071L31.2929 19.7071C31.4804 19.8946 31.7348 20 32 20C32.2652 20 32.5196 19.8946 32.7071 19.7071L40.7071 11.7071Z" fill="url(#paint1_linear_363_2964)"/>
<path fill-rule="evenodd" clip-rule="evenodd" d="M201.761 6.17317C201 8.01088 201 10.3406 201 15C201 19.6594 201 21.9891 201.761 23.8268C202.776 26.2771 204.723 28.2239 207.173 29.2388C209.011 30 211.341 30 216 30C220.659 30 222.989 30 224.827 29.2388C227.277 28.2239 229.224 26.2771 230.239 23.8268C231 21.9891 231 19.6594 231 15C231 10.3406 231 8.01088 230.239 6.17317C229.224 3.72288 227.277 1.77614 224.827 0.761205C222.989 0 220.659 0 216 0C211.341 0 209.011 0 207.173 0.761205C204.723 1.77614 202.776 3.72288 201.761 6.17317ZM222.707 11.7071C223.098 11.3166 223.098 10.6834 222.707 10.2929C222.317 9.90237 221.683 9.90237 221.293 10.2929L214 17.5858L210.707 14.2929C210.317 13.9024 209.683 13.9024 209.293 14.2929C208.902 14.6834 208.902 15.3166 209.293 15.7071L213.293 19.7071C213.48 19.8946 213.735 20 214 20C214.265 20 214.52 19.8946 214.707 19.7071L222.707 11.7071Z" fill="#D0CFD7"/>
<path fill-rule="evenodd" clip-rule="evenodd" d="M110.761 6.17317C110 8.01088 110 10.3406 110 15C110 19.6594 110 21.9891 110.761 23.8268C111.776 26.2771 113.723 28.2239 116.173 29.2388C118.011 30 120.341 30 125 30C129.659 30 131.989 30 133.827 29.2388C136.277 28.2239 138.224 26.2771 139.239 23.8268C140 21.9891 140 19.6594 140 15C140 10.3406 140 8.01088 139.239 6.17317C138.224 3.72288 136.277 1.77614 133.827 0.761205C131.989 0 129.659 0 125 0C120.341 0 118.011 0 116.173 0.761205C113.723 1.77614 111.776 3.72288 110.761 6.17317ZM131.707 11.7071C132.098 11.3166 132.098 10.6834 131.707 10.2929C131.317 9.90237 130.683 9.90237 130.293 10.2929L123 17.5858L119.707 14.2929C119.317 13.9024 118.683 13.9024 118.293 14.2929C117.902 14.6834 117.902 15.3166 118.293 15.7071L122.293 19.7071C122.48 19.8946 122.735 20 123 20C123.265 20 123.52 19.8946 123.707 19.7071L131.707 11.7071Z" fill="#D0CFD7"/>
<defs>
<linearGradient id="paint0_linear_363_2964" x1="33" y1="68" x2="33" y2="35" gradientUnits="userSpaceOnUse">
<stop stop-color="#5CCC94"/>
<stop offset="1" stop-color="#8CCAAE"/>
</linearGradient>
<linearGradient id="paint1_linear_363_2964" x1="34" y1="30" x2="34" y2="1.58545e-07" gradientUnits="userSpaceOnUse">
<stop stop-color="#5CCC94"/>
<stop offset="1" stop-color="#8CCAAE"/>
</linearGradient>
</defs>
</svg>
