<svg width="241" height="68" viewBox="0 0 241 68" fill="none" xmlns="http://www.w3.org/2000/svg">
<path d="M16.1758 36.8906V44H15.2725L12.4258 38.5166L12.4258 44H11.5273L11.5273 36.8906H12.4258L15.2871 42.3887L15.2871 36.8906H16.1758ZM20.2822 42.7793V38.7168H21.1465V44H20.3262L20.2822 42.7793ZM20.4434 41.666L20.7852 41.6562C20.7852 42.0078 20.7542 42.3333 20.6924 42.6328C20.6338 42.929 20.5361 43.1862 20.3994 43.4043C20.266 43.6224 20.0885 43.7933 19.8672 43.917C19.6458 44.0374 19.374 44.0977 19.0518 44.0977C18.8337 44.0977 18.6351 44.0602 18.4561 43.9854C18.2803 43.9105 18.1273 43.7949 17.9971 43.6387C17.8701 43.4824 17.7708 43.279 17.6992 43.0283C17.6309 42.7777 17.5967 42.4766 17.5967 42.125V38.7168H18.4561V42.1348C18.4561 42.3724 18.4772 42.5693 18.5195 42.7256C18.5618 42.8786 18.6188 43.0007 18.6904 43.0918C18.762 43.1797 18.8418 43.2415 18.9297 43.2773C19.0176 43.3132 19.1071 43.3311 19.1982 43.3311C19.5042 43.3311 19.7484 43.2578 19.9307 43.1113C20.113 42.9616 20.2432 42.7614 20.3213 42.5107C20.4027 42.2568 20.4434 41.9753 20.4434 41.666ZM23.3096 39.7666V44H22.4502V38.7168H23.2607L23.3096 39.7666ZM23.1338 41.1582L22.7334 41.1436C22.7301 40.7822 22.766 40.4486 22.8408 40.1426C22.9157 39.8333 23.028 39.5648 23.1777 39.3369C23.3307 39.109 23.5212 38.9333 23.749 38.8096C23.9801 38.6826 24.2487 38.6191 24.5547 38.6191C24.7565 38.6191 24.9437 38.6549 25.1162 38.7266C25.292 38.7949 25.445 38.904 25.5752 39.0537C25.7054 39.2035 25.8063 39.3955 25.8779 39.6299C25.9528 39.8643 25.9902 40.1475 25.9902 40.4795V44H25.126V40.5234C25.126 40.2467 25.0885 40.0254 25.0137 39.8594C24.9421 39.6934 24.8395 39.5729 24.7061 39.498C24.5726 39.4199 24.4131 39.3809 24.2275 39.3809C24.016 39.3809 23.8385 39.4281 23.6953 39.5225C23.5553 39.6169 23.443 39.7471 23.3584 39.9131C23.277 40.0791 23.2184 40.2695 23.1826 40.4844C23.1501 40.696 23.1338 40.9206 23.1338 41.1582ZM25.9805 40.6602L25.4043 40.8457C25.401 40.556 25.4368 40.2777 25.5117 40.0107C25.5866 39.7438 25.6973 39.5062 25.8438 39.2979C25.9935 39.0895 26.179 38.9251 26.4004 38.8047C26.6217 38.681 26.8789 38.6191 27.1719 38.6191C27.4128 38.6191 27.626 38.6566 27.8115 38.7314C27.9971 38.8063 28.1533 38.9219 28.2803 39.0781C28.4105 39.2311 28.5081 39.4281 28.5732 39.6689C28.6383 39.9098 28.6709 40.1963 28.6709 40.5283V44H27.8066V40.5186C27.8066 40.2223 27.7692 39.9928 27.6943 39.8301C27.6227 39.6641 27.5202 39.5485 27.3867 39.4834C27.2533 39.415 27.0938 39.3809 26.9082 39.3809C26.7585 39.3809 26.625 39.415 26.5078 39.4834C26.3939 39.5518 26.2979 39.6462 26.2197 39.7666C26.1416 39.8838 26.0814 40.0189 26.0391 40.1719C26 40.3249 25.9805 40.4876 25.9805 40.6602ZM32.5625 43.0967V40.2305C32.5625 40.0221 32.5299 39.8545 32.4648 39.7275C32.403 39.6006 32.3086 39.5078 32.1816 39.4492C32.0579 39.3906 31.9017 39.3613 31.7129 39.3613C31.5306 39.3613 31.3727 39.3988 31.2393 39.4736C31.109 39.5485 31.0081 39.6478 30.9365 39.7715C30.8682 39.8952 30.834 40.0319 30.834 40.1816H29.9697C29.9697 39.9928 30.0104 39.8057 30.0918 39.6201C30.1764 39.4346 30.2969 39.2669 30.4531 39.1172C30.6094 38.9642 30.7965 38.8437 31.0146 38.7559C31.236 38.6647 31.4834 38.6191 31.7568 38.6191C32.0824 38.6191 32.3704 38.6729 32.6211 38.7803C32.8717 38.8844 33.0687 39.0553 33.2119 39.293C33.3551 39.5306 33.4268 39.8464 33.4268 40.2402V42.8477C33.4268 43.0234 33.4398 43.2106 33.4658 43.4092C33.4951 43.6077 33.5358 43.7786 33.5879 43.9219V44H32.6943C32.652 43.8958 32.6195 43.7575 32.5967 43.585C32.5739 43.4092 32.5625 43.2464 32.5625 43.0967ZM32.6992 40.7969L32.709 41.4316H32.1084C31.9033 41.4316 31.7161 41.4544 31.5469 41.5C31.3809 41.5456 31.2376 41.6123 31.1172 41.7002C30.9967 41.7848 30.904 41.8906 30.8389 42.0176C30.777 42.1445 30.7461 42.2894 30.7461 42.4521C30.7461 42.6637 30.7754 42.833 30.834 42.96C30.8926 43.0837 30.9805 43.1732 31.0977 43.2285C31.2148 43.2839 31.363 43.3115 31.542 43.3115C31.7601 43.3115 31.9521 43.2611 32.1182 43.1602C32.2842 43.0592 32.4128 42.9372 32.5039 42.7939C32.5983 42.6507 32.6423 42.5173 32.6357 42.3936L32.8262 42.7988C32.8132 42.9258 32.7708 43.0641 32.6992 43.2139C32.6309 43.3604 32.5348 43.502 32.4111 43.6387C32.2874 43.7721 32.141 43.8828 31.9717 43.9707C31.8057 44.0553 31.6185 44.0977 31.4102 44.0977C31.1042 44.0977 30.8356 44.0391 30.6045 43.9219C30.3766 43.8047 30.1992 43.6322 30.0723 43.4043C29.9453 43.1764 29.8818 42.8949 29.8818 42.5596C29.8818 42.3057 29.9258 42.0713 30.0137 41.8564C30.1016 41.6416 30.2318 41.4561 30.4043 41.2998C30.5768 41.1403 30.7933 41.0166 31.0537 40.9287C31.3174 40.8408 31.6217 40.7969 31.9668 40.7969H32.6992ZM32.5381 36.7002H33.2705C33.2705 36.9541 33.2119 37.1803 33.0947 37.3789C32.9775 37.5742 32.8099 37.7272 32.5918 37.8379C32.3737 37.9486 32.1149 38.0039 31.8154 38.0039C31.363 38.0039 31.0049 37.8835 30.7412 37.6426C30.4808 37.3984 30.3506 37.0843 30.3506 36.7002H31.083C31.083 36.8923 31.1383 37.0615 31.249 37.208C31.3597 37.3545 31.5485 37.4277 31.8154 37.4277C32.0758 37.4277 32.2614 37.3545 32.3721 37.208C32.4827 37.0615 32.5381 36.8923 32.5381 36.7002ZM35.6338 39.5469V44H34.7695V38.7168H35.6045L35.6338 39.5469ZM36.9473 38.6875L36.9521 39.5273C36.8805 39.5111 36.8154 39.5013 36.7568 39.498C36.7015 39.4915 36.6364 39.4883 36.5615 39.4883C36.3988 39.4883 36.2555 39.5208 36.1318 39.5859C36.0114 39.651 35.9072 39.7422 35.8193 39.8594C35.7314 39.9766 35.6615 40.1165 35.6094 40.2793C35.5573 40.4388 35.5215 40.6146 35.502 40.8066L35.2773 40.9531C35.2773 40.6341 35.3018 40.3346 35.3506 40.0547C35.4027 39.7747 35.4824 39.5273 35.5898 39.3125C35.6973 39.0944 35.834 38.9251 36 38.8047C36.1693 38.681 36.3711 38.6191 36.6055 38.6191C36.6576 38.6191 36.721 38.6273 36.7959 38.6436C36.874 38.6566 36.9245 38.6712 36.9473 38.6875ZM40.4873 42.7793V38.7168H41.3516V44H40.5312L40.4873 42.7793ZM40.6484 41.666L40.9902 41.6562C40.9902 42.0078 40.9593 42.3333 40.8975 42.6328C40.8389 42.929 40.7412 43.1862 40.6045 43.4043C40.471 43.6224 40.2936 43.7933 40.0723 43.917C39.8509 44.0374 39.5791 44.0977 39.2568 44.0977C39.0387 44.0977 38.8402 44.0602 38.6611 43.9854C38.4854 43.9105 38.3324 43.7949 38.2021 43.6387C38.0752 43.4824 37.9759 43.279 37.9043 43.0283C37.8359 42.7777 37.8018 42.4766 37.8018 42.125V38.7168H38.6611V42.1348C38.6611 42.3724 38.6823 42.5693 38.7246 42.7256C38.7669 42.8786 38.8239 43.0007 38.8955 43.0918C38.9671 43.1797 39.0469 43.2415 39.1348 43.2773C39.2227 43.3132 39.3122 43.3311 39.4033 43.3311C39.7093 43.3311 39.9535 43.2578 40.1357 43.1113C40.318 42.9616 40.4482 42.7614 40.5264 42.5107C40.6077 42.2568 40.6484 41.9753 40.6484 41.666ZM43.5781 36.5V44H42.7188V36.5H43.5781ZM50.0088 42.9746V36.5H50.8682V44H50.082L50.0088 42.9746ZM47.0547 41.6123V41.1191C47.0547 40.6829 47.097 40.3086 47.1816 39.9961C47.2663 39.6803 47.3867 39.4215 47.543 39.2197C47.6992 39.0146 47.8864 38.8633 48.1045 38.7656C48.3226 38.668 48.5635 38.6191 48.8271 38.6191C49.1006 38.6191 49.335 38.6745 49.5303 38.7852C49.7288 38.8958 49.8949 39.057 50.0283 39.2686C50.1618 39.4769 50.266 39.7308 50.3408 40.0303C50.4189 40.3265 50.471 40.6618 50.4971 41.0361V41.6953C50.4678 42.0664 50.4141 42.4001 50.3359 42.6963C50.2611 42.9925 50.1569 43.2448 50.0234 43.4531C49.89 43.6615 49.724 43.821 49.5254 43.9316C49.3268 44.0423 49.0908 44.0977 48.8174 44.0977C48.557 44.0977 48.3193 44.0472 48.1045 43.9463C47.8896 43.8421 47.7025 43.6875 47.543 43.4824C47.3867 43.2741 47.2663 43.0153 47.1816 42.7061C47.097 42.3936 47.0547 42.029 47.0547 41.6123ZM47.9189 41.1191V41.6123C47.9189 41.9053 47.9401 42.1608 47.9824 42.3789C48.0247 42.5937 48.0915 42.7728 48.1826 42.916C48.2738 43.056 48.3893 43.1602 48.5293 43.2285C48.6725 43.2969 48.8434 43.3311 49.042 43.3311C49.2829 43.3311 49.4798 43.2725 49.6328 43.1553C49.7858 43.0381 49.9079 42.8835 49.999 42.6914C50.0934 42.4961 50.1683 42.2861 50.2236 42.0615V40.6748C50.1911 40.5088 50.1439 40.3493 50.082 40.1963C50.0202 40.04 49.9421 39.9017 49.8477 39.7812C49.7565 39.6576 49.6442 39.5599 49.5107 39.4883C49.3805 39.4167 49.2275 39.3809 49.0518 39.3809C48.8532 39.3809 48.6807 39.4167 48.5342 39.4883C48.391 39.5599 48.2738 39.6673 48.1826 39.8105C48.0947 39.9538 48.028 40.1344 47.9824 40.3525C47.9401 40.5706 47.9189 40.8262 47.9189 41.1191ZM54.0908 44.0977C53.7751 44.0977 53.4902 44.0505 53.2363 43.9561C52.9824 43.8617 52.766 43.7184 52.5869 43.5264C52.4079 43.3311 52.2712 43.0853 52.1768 42.7891C52.0824 42.4928 52.0352 42.1429 52.0352 41.7393V41.1436C52.0352 40.6781 52.0889 40.2842 52.1963 39.9619C52.307 39.6396 52.4551 39.3809 52.6406 39.1855C52.8262 38.987 53.0361 38.8437 53.2705 38.7559C53.5049 38.6647 53.7458 38.6191 53.9932 38.6191C54.3252 38.6191 54.6084 38.6729 54.8428 38.7803C55.0771 38.8877 55.2676 39.0472 55.4141 39.2588C55.5605 39.4704 55.668 39.7308 55.7363 40.04C55.8079 40.3493 55.8438 40.7057 55.8438 41.1094V41.6123H52.543V40.875H54.9795V40.7529C54.9665 40.4795 54.929 40.2386 54.8672 40.0303C54.8086 39.8219 54.7109 39.6592 54.5742 39.542C54.4375 39.4215 54.2438 39.3613 53.9932 39.3613C53.8337 39.3613 53.6855 39.389 53.5488 39.4443C53.4154 39.4964 53.2998 39.5892 53.2021 39.7227C53.1077 39.8529 53.0329 40.0335 52.9775 40.2646C52.9255 40.4958 52.8994 40.7887 52.8994 41.1436V41.7393C52.8994 42.0225 52.9255 42.2666 52.9775 42.4717C53.0329 42.6735 53.1126 42.8411 53.2168 42.9746C53.3242 43.1048 53.4544 43.2025 53.6074 43.2676C53.7637 43.3294 53.9411 43.3604 54.1396 43.3604C54.4294 43.3604 54.6686 43.305 54.8574 43.1943C55.0462 43.0804 55.2106 42.9355 55.3506 42.7598L55.8047 43.3018C55.7103 43.4352 55.5866 43.5638 55.4336 43.6875C55.2839 43.8079 55.0983 43.9072 54.877 43.9854C54.6589 44.0602 54.3968 44.0977 54.0908 44.0977ZM9.08105 49.7168L9.08105 55H8.2168L8.2168 49.7168H9.08105ZM8.9248 47.5098L9.9502 48.8428V48.8916H9.25195L8.66602 48.0664L8.08496 48.8916H7.3916V48.8379L8.40723 47.5098H8.9248ZM11.3662 50.8447L11.3662 55H10.502L10.502 49.7168H11.3174L11.3662 50.8447ZM11.1563 52.1582L10.8047 52.1436C10.8014 51.7822 10.8421 51.4486 10.9268 51.1426C11.0146 50.8333 11.1383 50.5648 11.2979 50.3369C11.4606 50.109 11.6543 49.9333 11.8789 49.8096C12.1035 49.6826 12.3525 49.6191 12.626 49.6191C12.8408 49.6191 13.0361 49.6549 13.2119 49.7266C13.3877 49.7949 13.5374 49.9056 13.6611 50.0586C13.7848 50.2116 13.8792 50.4102 13.9443 50.6543C14.0127 50.8952 14.0469 51.1898 14.0469 51.5381L14.0469 55H13.1826L13.1826 51.5283C13.1826 51.2516 13.1517 51.0303 13.0898 50.8643C13.0313 50.695 12.9401 50.5729 12.8164 50.498C12.696 50.4199 12.543 50.3809 12.3574 50.3809C12.1882 50.3809 12.0303 50.4281 11.8838 50.5225C11.7373 50.6169 11.6087 50.7471 11.498 50.9131C11.3906 51.0791 11.306 51.2695 11.2441 51.4844C11.1855 51.696 11.1563 51.9206 11.1563 52.1582ZM16.21 50.7666V55H15.3506L15.3506 49.7168H16.1611L16.21 50.7666ZM16.0342 52.1582L15.6338 52.1436C15.6305 51.7822 15.6663 51.4486 15.7412 51.1426C15.8161 50.8333 15.9284 50.5648 16.0781 50.3369C16.2311 50.109 16.4215 49.9333 16.6494 49.8096C16.8805 49.6826 17.1491 49.6191 17.4551 49.6191C17.6569 49.6191 17.8441 49.6549 18.0166 49.7266C18.1924 49.7949 18.3454 49.904 18.4756 50.0537C18.6058 50.2035 18.7067 50.3955 18.7783 50.6299C18.8532 50.8643 18.8906 51.1475 18.8906 51.4795V55H18.0264V51.5234C18.0264 51.2467 17.9889 51.0254 17.9141 50.8594C17.8424 50.6934 17.7399 50.5729 17.6064 50.498C17.473 50.4199 17.3135 50.3809 17.1279 50.3809C16.9163 50.3809 16.7389 50.4281 16.5957 50.5225C16.4557 50.6169 16.3434 50.7471 16.2588 50.9131C16.1774 51.0791 16.1188 51.2695 16.083 51.4844C16.0505 51.696 16.0342 51.9206 16.0342 52.1582ZM18.8809 51.6602L18.3047 51.8457C18.3014 51.556 18.3372 51.2777 18.4121 51.0107C18.487 50.7438 18.5977 50.5062 18.7441 50.2979C18.8939 50.0895 19.0794 49.9251 19.3008 49.8047C19.5221 49.681 19.7793 49.6191 20.0723 49.6191C20.3132 49.6191 20.5264 49.6566 20.7119 49.7314C20.8975 49.8063 21.0537 49.9219 21.1807 50.0781C21.3109 50.2311 21.4085 50.4281 21.4736 50.6689C21.5387 50.9098 21.5713 51.1963 21.5713 51.5283V55H20.707V51.5186C20.707 51.2223 20.6696 50.9928 20.5947 50.8301C20.5231 50.6641 20.4206 50.5485 20.2871 50.4834C20.1536 50.415 19.9941 50.3809 19.8086 50.3809C19.6589 50.3809 19.5254 50.415 19.4082 50.4834C19.2943 50.5518 19.1982 50.6462 19.1201 50.7666C19.042 50.8838 18.9818 51.0189 18.9395 51.1719C18.9004 51.3249 18.8809 51.4876 18.8809 51.6602ZM25.4629 54.0967V51.2305C25.4629 51.0221 25.4303 50.8545 25.3652 50.7275C25.3034 50.6006 25.209 50.5078 25.082 50.4492C24.9583 50.3906 24.8021 50.3613 24.6133 50.3613C24.431 50.3613 24.2731 50.3988 24.1396 50.4736C24.0094 50.5485 23.9085 50.6478 23.8369 50.7715C23.7686 50.8952 23.7344 51.0319 23.7344 51.1816H22.8701C22.8701 50.9928 22.9108 50.8057 22.9922 50.6201C23.0768 50.4346 23.1973 50.2669 23.3535 50.1172C23.5098 49.9642 23.6969 49.8438 23.915 49.7559C24.1364 49.6647 24.3838 49.6191 24.6572 49.6191C24.9827 49.6191 25.2708 49.6729 25.5215 49.7803C25.7721 49.8844 25.9691 50.0553 26.1123 50.293C26.2555 50.5306 26.3271 50.8464 26.3271 51.2402V53.8477C26.3271 54.0234 26.3402 54.2106 26.3662 54.4092C26.3955 54.6077 26.4362 54.7786 26.4883 54.9219V55H25.5947C25.5524 54.8958 25.5199 54.7575 25.4971 54.585C25.4743 54.4092 25.4629 54.2464 25.4629 54.0967ZM25.5996 51.7969L25.6094 52.4316H25.0088C24.8037 52.4316 24.6165 52.4544 24.4473 52.5C24.2813 52.5456 24.138 52.6123 24.0176 52.7002C23.8971 52.7848 23.8044 52.8906 23.7393 53.0176C23.6774 53.1445 23.6465 53.2894 23.6465 53.4521C23.6465 53.6637 23.6758 53.833 23.7344 53.96C23.793 54.0837 23.8809 54.1732 23.998 54.2285C24.1152 54.2839 24.2633 54.3115 24.4424 54.3115C24.6605 54.3115 24.8525 54.2611 25.0186 54.1602C25.1846 54.0592 25.3132 53.9372 25.4043 53.7939C25.4987 53.6507 25.5426 53.5173 25.5361 53.3936L25.7266 53.7988C25.7135 53.9258 25.6712 54.0641 25.5996 54.2139C25.5313 54.3604 25.4352 54.502 25.3115 54.6387C25.1878 54.7721 25.0413 54.8828 24.8721 54.9707C24.7061 55.0553 24.5189 55.0977 24.3105 55.0977C24.0046 55.0977 23.736 55.0391 23.5049 54.9219C23.277 54.8047 23.0996 54.6322 22.9727 54.4043C22.8457 54.1764 22.7822 53.8949 22.7822 53.5596C22.7822 53.3057 22.8262 53.0713 22.9141 52.8564C23.002 52.6416 23.1322 52.4561 23.3047 52.2998C23.4772 52.1403 23.6937 52.0166 23.9541 51.9287C24.2178 51.8408 24.5221 51.7969 24.8672 51.7969H25.5996ZM29.5986 49.7168V50.4102L27.1328 50.4102V49.7168L29.5986 49.7168ZM27.9385 48.4326H28.8027V53.6914C28.8027 53.8704 28.8239 54.0055 28.8662 54.0967C28.9118 54.1878 28.9688 54.248 29.0371 54.2773C29.1055 54.3066 29.1787 54.3213 29.2568 54.3213C29.3154 54.3213 29.3805 54.3148 29.4521 54.3018C29.5238 54.2855 29.5726 54.2725 29.5986 54.2627L29.5938 55C29.5352 55.0228 29.457 55.0439 29.3594 55.0635C29.2617 55.0863 29.138 55.0977 28.9883 55.0977C28.8027 55.0977 28.6302 55.0537 28.4707 54.9658C28.3112 54.8779 28.1826 54.7314 28.085 54.5264C27.9873 54.318 27.9385 54.0381 27.9385 53.6865V48.4326ZM31.4932 50.5469V55H30.6289V49.7168H31.4639L31.4932 50.5469ZM32.8066 49.6875L32.8115 50.5273C32.7399 50.5111 32.6748 50.5013 32.6162 50.498C32.5609 50.4915 32.4958 50.4883 32.4209 50.4883C32.2581 50.4883 32.1149 50.5208 31.9912 50.5859C31.8708 50.651 31.7666 50.7422 31.6787 50.8594C31.5908 50.9766 31.5208 51.1165 31.4688 51.2793C31.4167 51.4388 31.3809 51.6146 31.3613 51.8066L31.1367 51.9531C31.1367 51.6341 31.1611 51.3346 31.21 51.0547C31.262 50.7747 31.3418 50.5273 31.4492 50.3125C31.5566 50.0944 31.6934 49.9251 31.8594 49.8047C32.0286 49.681 32.2305 49.6191 32.4648 49.6191C32.5169 49.6191 32.5804 49.6273 32.6553 49.6436C32.7334 49.6566 32.7839 49.6712 32.8066 49.6875ZM34.6035 49.7168V55H33.7441V49.7168H34.6035ZM33.6953 48.3154C33.6953 48.1689 33.736 48.0452 33.8174 47.9443C33.8988 47.8434 34.0208 47.793 34.1836 47.793C34.3464 47.793 34.4684 47.8434 34.5498 47.9443C34.6344 48.0452 34.6768 48.1689 34.6768 48.3154C34.6768 48.4554 34.6344 48.5758 34.5498 48.6768C34.4684 48.7744 34.3464 48.8232 34.1836 48.8232C34.0208 48.8232 33.8988 48.7744 33.8174 48.6768C33.736 48.5758 33.6953 48.4554 33.6953 48.3154ZM37.8018 54.3604C37.9743 54.3604 38.1305 54.3262 38.2705 54.2578C38.4137 54.1862 38.5309 54.0755 38.6221 53.9258C38.7132 53.7728 38.7653 53.5742 38.7783 53.3301H39.5889C39.5758 53.6816 39.4863 53.9909 39.3203 54.2578C39.1576 54.5215 38.9427 54.7282 38.6758 54.8779C38.4121 55.0244 38.1208 55.0977 37.8018 55.0977C37.46 55.0977 37.1621 55.0423 36.9082 54.9316C36.6576 54.821 36.4492 54.6615 36.2832 54.4531C36.1204 54.2415 35.9984 53.986 35.917 53.6865C35.8356 53.3838 35.7949 53.0404 35.7949 52.6562V52.0605C35.7949 51.6764 35.8356 51.3346 35.917 51.0352C35.9984 50.7324 36.1204 50.4769 36.2832 50.2686C36.4492 50.057 36.6576 49.8958 36.9082 49.7852C37.1621 49.6745 37.46 49.6191 37.8018 49.6191C38.1598 49.6191 38.4691 49.6956 38.7295 49.8486C38.9932 49.9984 39.1982 50.2165 39.3447 50.5029C39.4945 50.7861 39.5758 51.1296 39.5889 51.5332H38.7783C38.7653 51.2728 38.7181 51.0563 38.6367 50.8838C38.5553 50.708 38.4447 50.5778 38.3047 50.4932C38.1647 50.4053 37.9971 50.3613 37.8018 50.3613C37.5739 50.3613 37.3851 50.402 37.2354 50.4834C37.0889 50.5615 36.9733 50.6755 36.8887 50.8252C36.804 50.9749 36.7438 51.154 36.708 51.3623C36.6755 51.5706 36.6592 51.8034 36.6592 52.0605V52.6562C36.6592 52.9134 36.6755 53.1478 36.708 53.3594C36.7438 53.5677 36.8024 53.7467 36.8838 53.8965C36.9684 54.0462 37.0856 54.1618 37.2354 54.2432C37.3851 54.3213 37.5739 54.3604 37.8018 54.3604ZM43.2607 53.7793V49.7168H44.125V55H43.3047L43.2607 53.7793ZM43.4219 52.666L43.7637 52.6562C43.7637 53.0078 43.7327 53.3333 43.6709 53.6328C43.6123 53.929 43.5146 54.1862 43.3779 54.4043C43.2445 54.6224 43.0671 54.7933 42.8457 54.917C42.6243 55.0374 42.3525 55.0977 42.0303 55.0977C41.8122 55.0977 41.6136 55.0602 41.4346 54.9854C41.2588 54.9105 41.1058 54.7949 40.9756 54.6387C40.8486 54.4824 40.7493 54.279 40.6777 54.0283C40.6094 53.7777 40.5752 53.4766 40.5752 53.125V49.7168H41.4346V53.1348C41.4346 53.3724 41.4557 53.5693 41.498 53.7256C41.5404 53.8786 41.5973 54.0007 41.6689 54.0918C41.7406 54.1797 41.8203 54.2415 41.9082 54.2773C41.9961 54.3132 42.0856 54.3311 42.1768 54.3311C42.4827 54.3311 42.7269 54.2578 42.9092 54.1113C43.0915 53.9616 43.2217 53.7614 43.2998 53.5107C43.3812 53.2568 43.4219 52.9753 43.4219 52.666ZM46.3516 47.5V55H45.4922V47.5H46.3516ZM50.3066 54.0967V51.2305C50.3066 51.0221 50.2741 50.8545 50.209 50.7275C50.1471 50.6006 50.0527 50.5078 49.9258 50.4492C49.8021 50.3906 49.6458 50.3613 49.457 50.3613C49.2747 50.3613 49.1169 50.3988 48.9834 50.4736C48.8532 50.5485 48.7523 50.6478 48.6807 50.7715C48.6123 50.8952 48.5781 51.0319 48.5781 51.1816H47.7139C47.7139 50.9928 47.7546 50.8057 47.8359 50.6201C47.9206 50.4346 48.041 50.2669 48.1973 50.1172C48.3535 49.9642 48.5407 49.8437 48.7588 49.7559C48.9801 49.6647 49.2275 49.6191 49.501 49.6191C49.8265 49.6191 50.1146 49.6729 50.3652 49.7803C50.6159 49.8844 50.8128 50.0553 50.9561 50.293C51.0993 50.5306 51.1709 50.8464 51.1709 51.2402V53.8477C51.1709 54.0234 51.1839 54.2106 51.21 54.4092C51.2393 54.6077 51.2799 54.7786 51.332 54.9219V55H50.4385C50.3962 54.8958 50.3636 54.7575 50.3408 54.585C50.318 54.4092 50.3066 54.2464 50.3066 54.0967ZM50.4434 51.7969L50.4531 52.4316H49.8525C49.6475 52.4316 49.4603 52.4544 49.291 52.5C49.125 52.5456 48.9818 52.6123 48.8613 52.7002C48.7409 52.7848 48.6481 52.8906 48.583 53.0176C48.5212 53.1445 48.4902 53.2894 48.4902 53.4521C48.4902 53.6637 48.5195 53.833 48.5781 53.96C48.6367 54.0837 48.7246 54.1732 48.8418 54.2285C48.959 54.2839 49.1071 54.3115 49.2861 54.3115C49.5042 54.3115 49.6963 54.2611 49.8623 54.1602C50.0283 54.0592 50.1569 53.9372 50.248 53.7939C50.3424 53.6507 50.3864 53.5173 50.3799 53.3936L50.5703 53.7988C50.5573 53.9258 50.515 54.0641 50.4434 54.2139C50.375 54.3604 50.279 54.502 50.1553 54.6387C50.0316 54.7721 49.8851 54.8828 49.7158 54.9707C49.5498 55.0553 49.3626 55.0977 49.1543 55.0977C48.8483 55.0977 48.5798 55.0391 48.3486 54.9219C48.1208 54.8047 47.9434 54.6322 47.8164 54.4043C47.6895 54.1764 47.626 53.8949 47.626 53.5596C47.626 53.3057 47.6699 53.0713 47.7578 52.8564C47.8457 52.6416 47.9759 52.4561 48.1484 52.2998C48.321 52.1403 48.5374 52.0166 48.7979 51.9287C49.0615 51.8408 49.3659 51.7969 49.7109 51.7969H50.4434ZM53.3779 50.5469V55H52.5137V49.7168H53.3486L53.3779 50.5469ZM54.6914 49.6875L54.6963 50.5273C54.6247 50.5111 54.5596 50.5013 54.501 50.498C54.4456 50.4915 54.3805 50.4883 54.3057 50.4883C54.1429 50.4883 53.9997 50.5208 53.876 50.5859C53.7555 50.651 53.6514 50.7422 53.5635 50.8594C53.4756 50.9766 53.4056 51.1165 53.3535 51.2793C53.3014 51.4388 53.2656 51.6146 53.2461 51.8066L53.0215 51.9531C53.0215 51.6341 53.0459 51.3346 53.0947 51.0547C53.1468 50.7747 53.2266 50.5273 53.334 50.3125C53.4414 50.0944 53.5781 49.9251 53.7441 49.8047C53.9134 49.681 54.1152 49.6191 54.3496 49.6191C54.4017 49.6191 54.4652 49.6273 54.54 49.6436C54.6182 49.6566 54.6686 49.6712 54.6914 49.6875ZM57.3525 55.0977C57.0368 55.0977 56.752 55.0505 56.498 54.9561C56.2441 54.8617 56.0277 54.7184 55.8486 54.5264C55.6696 54.3311 55.5329 54.0853 55.4385 53.7891C55.3441 53.4928 55.2969 53.1429 55.2969 52.7393V52.1436C55.2969 51.6781 55.3506 51.2842 55.458 50.9619C55.5687 50.6396 55.7168 50.3809 55.9023 50.1855C56.0879 49.987 56.2979 49.8437 56.5322 49.7559C56.7666 49.6647 57.0075 49.6191 57.2549 49.6191C57.5869 49.6191 57.8701 49.6729 58.1045 49.7803C58.3389 49.8877 58.5293 50.0472 58.6758 50.2588C58.8223 50.4704 58.9297 50.7308 58.998 51.04C59.0697 51.3493 59.1055 51.7057 59.1055 52.1094V52.6123H55.8047V51.875H58.2412V51.7529C58.2282 51.4795 58.1908 51.2386 58.1289 51.0303C58.0703 50.8219 57.9727 50.6592 57.8359 50.542C57.6992 50.4215 57.5055 50.3613 57.2549 50.3613C57.0954 50.3613 56.9473 50.389 56.8105 50.4443C56.6771 50.4964 56.5615 50.5892 56.4639 50.7227C56.3695 50.8529 56.2946 51.0335 56.2393 51.2646C56.1872 51.4958 56.1611 51.7887 56.1611 52.1436V52.7393C56.1611 53.0225 56.1872 53.2666 56.2393 53.4717C56.2946 53.6735 56.3743 53.8411 56.4785 53.9746C56.5859 54.1048 56.7161 54.2025 56.8691 54.2676C57.0254 54.3294 57.2028 54.3604 57.4014 54.3604C57.6911 54.3604 57.9303 54.305 58.1191 54.1943C58.3079 54.0804 58.4723 53.9355 58.6123 53.7598L59.0664 54.3018C58.972 54.4352 58.8483 54.5638 58.6953 54.6875C58.5456 54.8079 58.36 54.9072 58.1387 54.9854C57.9206 55.0602 57.6585 55.0977 57.3525 55.0977Z" fill="url(#paint0_linear_363_2889)"/>
<path d="M108.096 40.8906V48H107.197V40.8906H108.096ZM110.493 44.0889V44.8604H107.925V44.0889H110.493ZM110.898 40.8906V41.6621H107.925V40.8906H110.898ZM114.316 47.0967V44.2305C114.316 44.0221 114.284 43.8545 114.219 43.7275C114.157 43.6006 114.062 43.5078 113.936 43.4492C113.812 43.3906 113.656 43.3613 113.467 43.3613C113.285 43.3613 113.127 43.3988 112.993 43.4736C112.863 43.5485 112.762 43.6478 112.69 43.7715C112.622 43.8952 112.588 44.0319 112.588 44.1816H111.724C111.724 43.9928 111.764 43.8057 111.846 43.6201C111.93 43.4346 112.051 43.2669 112.207 43.1172C112.363 42.9642 112.55 42.8438 112.769 42.7559C112.99 42.6647 113.237 42.6191 113.511 42.6191C113.836 42.6191 114.124 42.6729 114.375 42.7803C114.626 42.8844 114.823 43.0553 114.966 43.293C115.109 43.5306 115.181 43.8464 115.181 44.2402V46.8477C115.181 47.0234 115.194 47.2106 115.22 47.4092C115.249 47.6077 115.29 47.7786 115.342 47.9219V48H114.448C114.406 47.8958 114.373 47.7575 114.351 47.585C114.328 47.4092 114.316 47.2464 114.316 47.0967ZM114.453 44.7969L114.463 45.4316H113.862C113.657 45.4316 113.47 45.4544 113.301 45.5C113.135 45.5456 112.992 45.6123 112.871 45.7002C112.751 45.7848 112.658 45.8906 112.593 46.0176C112.531 46.1445 112.5 46.2894 112.5 46.4521C112.5 46.6637 112.529 46.833 112.588 46.96C112.646 47.0837 112.734 47.1732 112.852 47.2285C112.969 47.2839 113.117 47.3115 113.296 47.3115C113.514 47.3115 113.706 47.2611 113.872 47.1602C114.038 47.0592 114.167 46.9372 114.258 46.7939C114.352 46.6507 114.396 46.5173 114.39 46.3936L114.58 46.7988C114.567 46.9258 114.525 47.0641 114.453 47.2139C114.385 47.3604 114.289 47.502 114.165 47.6387C114.041 47.7721 113.895 47.8828 113.726 47.9707C113.56 48.0553 113.372 48.0977 113.164 48.0977C112.858 48.0977 112.59 48.0391 112.358 47.9219C112.131 47.8047 111.953 47.6322 111.826 47.4043C111.699 47.1764 111.636 46.8949 111.636 46.5596C111.636 46.3057 111.68 46.0713 111.768 45.8564C111.855 45.6416 111.986 45.4561 112.158 45.2998C112.331 45.1403 112.547 45.0166 112.808 44.9287C113.071 44.8408 113.376 44.7969 113.721 44.7969H114.453ZM118.354 47.3604C118.527 47.3604 118.683 47.3262 118.823 47.2578C118.966 47.1862 119.084 47.0755 119.175 46.9258C119.266 46.7728 119.318 46.5742 119.331 46.3301H120.142C120.129 46.6816 120.039 46.9909 119.873 47.2578C119.71 47.5215 119.495 47.7282 119.229 47.8779C118.965 48.0244 118.674 48.0977 118.354 48.0977C118.013 48.0977 117.715 48.0423 117.461 47.9316C117.21 47.821 117.002 47.6615 116.836 47.4531C116.673 47.2415 116.551 46.986 116.47 46.6865C116.388 46.3838 116.348 46.0404 116.348 45.6562V45.0605C116.348 44.6764 116.388 44.3346 116.47 44.0352C116.551 43.7324 116.673 43.4769 116.836 43.2686C117.002 43.057 117.21 42.8958 117.461 42.7852C117.715 42.6745 118.013 42.6191 118.354 42.6191C118.713 42.6191 119.022 42.6956 119.282 42.8486C119.546 42.9984 119.751 43.2165 119.897 43.5029C120.047 43.7861 120.129 44.1296 120.142 44.5332H119.331C119.318 44.2728 119.271 44.0563 119.189 43.8838C119.108 43.708 118.997 43.5778 118.857 43.4932C118.717 43.4053 118.55 43.3613 118.354 43.3613C118.127 43.3613 117.938 43.402 117.788 43.4834C117.642 43.5615 117.526 43.6755 117.441 43.8252C117.357 43.9749 117.297 44.154 117.261 44.3623C117.228 44.5706 117.212 44.8034 117.212 45.0605V45.6562C117.212 45.9134 117.228 46.1478 117.261 46.3594C117.297 46.5677 117.355 46.7467 117.437 46.8965C117.521 47.0462 117.638 47.1618 117.788 47.2432C117.938 47.3213 118.127 47.3604 118.354 47.3604ZM123.071 42.7168V43.4102H120.605V42.7168H123.071ZM121.411 41.4326H122.275V46.6914C122.275 46.8704 122.297 47.0055 122.339 47.0967C122.384 47.1878 122.441 47.248 122.51 47.2773C122.578 47.3066 122.651 47.3213 122.729 47.3213C122.788 47.3213 122.853 47.3148 122.925 47.3018C122.996 47.2855 123.045 47.2725 123.071 47.2627L123.066 48C123.008 48.0228 122.93 48.0439 122.832 48.0635C122.734 48.0863 122.611 48.0977 122.461 48.0977C122.275 48.0977 122.103 48.0537 121.943 47.9658C121.784 47.8779 121.655 47.7314 121.558 47.5264C121.46 47.318 121.411 47.0381 121.411 46.6865V41.4326ZM126.772 46.7793V42.7168H127.637V48H126.816L126.772 46.7793ZM126.934 45.666L127.275 45.6562C127.275 46.0078 127.244 46.3333 127.183 46.6328C127.124 46.929 127.026 47.1862 126.89 47.4043C126.756 47.6224 126.579 47.7933 126.357 47.917C126.136 48.0374 125.864 48.0977 125.542 48.0977C125.324 48.0977 125.125 48.0602 124.946 47.9854C124.771 47.9105 124.618 47.7949 124.487 47.6387C124.36 47.4824 124.261 47.279 124.189 47.0283C124.121 46.7777 124.087 46.4766 124.087 46.125V42.7168H124.946V46.1348C124.946 46.3724 124.967 46.5693 125.01 46.7256C125.052 46.8786 125.109 47.0007 125.181 47.0918C125.252 47.1797 125.332 47.2415 125.42 47.2773C125.508 47.3132 125.597 47.3311 125.688 47.3311C125.994 47.3311 126.239 47.2578 126.421 47.1113C126.603 46.9616 126.733 46.7614 126.812 46.5107C126.893 46.2568 126.934 45.9753 126.934 45.666ZM129.8 43.5469V48H128.936V42.7168H129.771L129.8 43.5469ZM131.113 42.6875L131.118 43.5273C131.047 43.5111 130.981 43.5013 130.923 43.498C130.868 43.4915 130.802 43.4883 130.728 43.4883C130.565 43.4883 130.422 43.5208 130.298 43.5859C130.177 43.651 130.073 43.7422 129.985 43.8594C129.897 43.9766 129.827 44.1165 129.775 44.2793C129.723 44.4388 129.688 44.6146 129.668 44.8066L129.443 44.9531C129.443 44.6341 129.468 44.3346 129.517 44.0547C129.569 43.7747 129.648 43.5273 129.756 43.3125C129.863 43.0944 130 42.9251 130.166 42.8047C130.335 42.681 130.537 42.6191 130.771 42.6191C130.824 42.6191 130.887 42.6273 130.962 42.6436C131.04 42.6566 131.09 42.6712 131.113 42.6875ZM134.375 47.0967V44.2305C134.375 44.0221 134.342 43.8545 134.277 43.7275C134.215 43.6006 134.121 43.5078 133.994 43.4492C133.87 43.3906 133.714 43.3613 133.525 43.3613C133.343 43.3613 133.185 43.3988 133.052 43.4736C132.922 43.5485 132.821 43.6478 132.749 43.7715C132.681 43.8952 132.646 44.0319 132.646 44.1816H131.782C131.782 43.9928 131.823 43.8057 131.904 43.6201C131.989 43.4346 132.109 43.2669 132.266 43.1172C132.422 42.9642 132.609 42.8437 132.827 42.7559C133.049 42.6647 133.296 42.6191 133.569 42.6191C133.895 42.6191 134.183 42.6729 134.434 42.7803C134.684 42.8844 134.881 43.0553 135.024 43.293C135.168 43.5306 135.239 43.8464 135.239 44.2402V46.8477C135.239 47.0234 135.252 47.2106 135.278 47.4092C135.308 47.6077 135.348 47.7786 135.4 47.9219V48H134.507C134.465 47.8958 134.432 47.7575 134.409 47.585C134.386 47.4092 134.375 47.2464 134.375 47.0967ZM134.512 44.7969L134.521 45.4316H133.921C133.716 45.4316 133.529 45.4544 133.359 45.5C133.193 45.5456 133.05 45.6123 132.93 45.7002C132.809 45.7848 132.716 45.8906 132.651 46.0176C132.59 46.1445 132.559 46.2894 132.559 46.4521C132.559 46.6637 132.588 46.833 132.646 46.96C132.705 47.0837 132.793 47.1732 132.91 47.2285C133.027 47.2839 133.175 47.3115 133.354 47.3115C133.573 47.3115 133.765 47.2611 133.931 47.1602C134.097 47.0592 134.225 46.9372 134.316 46.7939C134.411 46.6507 134.455 46.5173 134.448 46.3936L134.639 46.7988C134.626 46.9258 134.583 47.0641 134.512 47.2139C134.443 47.3604 134.347 47.502 134.224 47.6387C134.1 47.7721 133.953 47.8828 133.784 47.9707C133.618 48.0553 133.431 48.0977 133.223 48.0977C132.917 48.0977 132.648 48.0391 132.417 47.9219C132.189 47.8047 132.012 47.6322 131.885 47.4043C131.758 47.1764 131.694 46.8949 131.694 46.5596C131.694 46.3057 131.738 46.0713 131.826 45.8564C131.914 45.6416 132.044 45.4561 132.217 45.2998C132.389 45.1403 132.606 45.0166 132.866 44.9287C133.13 44.8408 133.434 44.7969 133.779 44.7969H134.512ZM137.446 43.5469V48H136.582V42.7168H137.417L137.446 43.5469ZM138.76 42.6875L138.765 43.5273C138.693 43.5111 138.628 43.5013 138.569 43.498C138.514 43.4915 138.449 43.4883 138.374 43.4883C138.211 43.4883 138.068 43.5208 137.944 43.5859C137.824 43.651 137.72 43.7422 137.632 43.8594C137.544 43.9766 137.474 44.1165 137.422 44.2793C137.37 44.4388 137.334 44.6146 137.314 44.8066L137.09 44.9531C137.09 44.6341 137.114 44.3346 137.163 44.0547C137.215 43.7747 137.295 43.5273 137.402 43.3125C137.51 43.0944 137.646 42.9251 137.812 42.8047C137.982 42.681 138.184 42.6191 138.418 42.6191C138.47 42.6191 138.534 42.6273 138.608 42.6436C138.687 42.6566 138.737 42.6712 138.76 42.6875ZM141.421 48.0977C141.105 48.0977 140.82 48.0505 140.566 47.9561C140.312 47.8617 140.096 47.7184 139.917 47.5264C139.738 47.3311 139.601 47.0853 139.507 46.7891C139.412 46.4928 139.365 46.1429 139.365 45.7393V45.1436C139.365 44.6781 139.419 44.2842 139.526 43.9619C139.637 43.6396 139.785 43.3809 139.971 43.1855C140.156 42.987 140.366 42.8437 140.601 42.7559C140.835 42.6647 141.076 42.6191 141.323 42.6191C141.655 42.6191 141.938 42.6729 142.173 42.7803C142.407 42.8877 142.598 43.0472 142.744 43.2588C142.891 43.4704 142.998 43.7308 143.066 44.04C143.138 44.3493 143.174 44.7057 143.174 45.1094V45.6123H139.873V44.875H142.31V44.7529C142.297 44.4795 142.259 44.2386 142.197 44.0303C142.139 43.8219 142.041 43.6592 141.904 43.542C141.768 43.4215 141.574 43.3613 141.323 43.3613C141.164 43.3613 141.016 43.389 140.879 43.4443C140.745 43.4964 140.63 43.5892 140.532 43.7227C140.438 43.8529 140.363 44.0335 140.308 44.2646C140.256 44.4958 140.229 44.7887 140.229 45.1436V45.7393C140.229 46.0225 140.256 46.2666 140.308 46.4717C140.363 46.6735 140.443 46.8411 140.547 46.9746C140.654 47.1048 140.785 47.2025 140.938 47.2676C141.094 47.3294 141.271 47.3604 141.47 47.3604C141.759 47.3604 141.999 47.305 142.188 47.1943C142.376 47.0804 142.541 46.9355 142.681 46.7598L143.135 47.3018C143.04 47.4352 142.917 47.5638 142.764 47.6875C142.614 47.8079 142.428 47.9072 142.207 47.9854C141.989 48.0602 141.727 48.0977 141.421 48.0977Z" fill="#E0E0E9"/>
<path d="M194.958 42.9209L196.667 36.8906H197.644L195.437 44H194.748L194.958 42.9209ZM193.425 36.8906L195.119 42.9209L195.344 44H194.655L192.448 36.8906H193.425ZM200.168 44.0977C199.852 44.0977 199.567 44.0505 199.313 43.9561C199.06 43.8617 198.843 43.7184 198.664 43.5264C198.485 43.3311 198.348 43.0853 198.254 42.7891C198.16 42.4928 198.112 42.1429 198.112 41.7393V41.1436C198.112 40.6781 198.166 40.2842 198.273 39.9619C198.384 39.6396 198.532 39.3809 198.718 39.1855C198.903 38.987 199.113 38.8438 199.348 38.7559C199.582 38.6647 199.823 38.6191 200.07 38.6191C200.402 38.6191 200.686 38.6729 200.92 38.7803C201.154 38.8877 201.345 39.0472 201.491 39.2588C201.638 39.4704 201.745 39.7308 201.813 40.04C201.885 40.3493 201.921 40.7057 201.921 41.1094V41.6123H198.62V40.875H201.057V40.7529C201.044 40.4795 201.006 40.2386 200.944 40.0303C200.886 39.8219 200.788 39.6592 200.651 39.542C200.515 39.4215 200.321 39.3613 200.07 39.3613C199.911 39.3613 199.763 39.389 199.626 39.4443C199.493 39.4964 199.377 39.5892 199.279 39.7227C199.185 39.8529 199.11 40.0335 199.055 40.2646C199.003 40.4958 198.977 40.7887 198.977 41.1436V41.7393C198.977 42.0225 199.003 42.2666 199.055 42.4717C199.11 42.6735 199.19 42.8411 199.294 42.9746C199.401 43.1048 199.532 43.2025 199.685 43.2676C199.841 43.3294 200.018 43.3604 200.217 43.3604C200.507 43.3604 200.746 43.305 200.935 43.1943C201.123 43.0804 201.288 42.9355 201.428 42.7598L201.882 43.3018C201.787 43.4352 201.664 43.5638 201.511 43.6875C201.361 43.8079 201.175 43.9072 200.954 43.9854C200.736 44.0602 200.474 44.0977 200.168 44.0977ZM203.83 39.5469V44H202.966V38.7168H203.801L203.83 39.5469ZM205.144 38.6875L205.148 39.5273C205.077 39.5111 205.012 39.5013 204.953 39.498C204.898 39.4915 204.833 39.4883 204.758 39.4883C204.595 39.4883 204.452 39.5208 204.328 39.5859C204.208 39.651 204.104 39.7422 204.016 39.8594C203.928 39.9766 203.858 40.1165 203.806 40.2793C203.754 40.4388 203.718 40.6146 203.698 40.8066L203.474 40.9531C203.474 40.6341 203.498 40.3346 203.547 40.0547C203.599 39.7747 203.679 39.5273 203.786 39.3125C203.894 39.0944 204.03 38.9251 204.196 38.8047C204.366 38.681 204.567 38.6191 204.802 38.6191C204.854 38.6191 204.917 38.6273 204.992 38.6436C205.07 38.6566 205.121 38.6712 205.144 38.6875ZM206.94 38.7168V44H206.081V38.7168H206.94ZM206.032 37.3154C206.032 37.1689 206.073 37.0452 206.154 36.9443C206.236 36.8434 206.358 36.793 206.521 36.793C206.683 36.793 206.805 36.8434 206.887 36.9443C206.971 37.0452 207.014 37.1689 207.014 37.3154C207.014 37.4554 206.971 37.5758 206.887 37.6768C206.805 37.7744 206.683 37.8232 206.521 37.8232C206.358 37.8232 206.236 37.7744 206.154 37.6768C206.073 37.5758 206.032 37.4554 206.032 37.3154ZM209.411 44H208.547V38.2578C208.547 37.8574 208.614 37.5189 208.747 37.2422C208.884 36.9655 209.077 36.7555 209.328 36.6123C209.582 36.4691 209.882 36.3975 210.227 36.3975C210.432 36.3975 210.629 36.4268 210.817 36.4854C211.006 36.5407 211.201 36.6107 211.403 36.6953L211.257 37.457C211.14 37.3984 210.996 37.3431 210.827 37.291C210.658 37.2357 210.48 37.208 210.295 37.208C209.969 37.208 209.74 37.2959 209.606 37.4717C209.476 37.6442 209.411 37.9062 209.411 38.2578V44ZM210.266 38.7168V39.4102H207.858V38.7168H210.266ZM211.818 38.7168V44H210.954V38.7168H211.818ZM215.041 43.3604C215.214 43.3604 215.37 43.3262 215.51 43.2578C215.653 43.1862 215.77 43.0755 215.861 42.9258C215.952 42.7728 216.005 42.5742 216.018 42.3301H216.828C216.815 42.6816 216.726 42.9909 216.56 43.2578C216.397 43.5215 216.182 43.7282 215.915 43.8779C215.651 44.0244 215.36 44.0977 215.041 44.0977C214.699 44.0977 214.401 44.0423 214.147 43.9316C213.897 43.821 213.688 43.6615 213.522 43.4531C213.36 43.2415 213.238 42.986 213.156 42.6865C213.075 42.3838 213.034 42.0404 213.034 41.6562V41.0605C213.034 40.6764 213.075 40.3346 213.156 40.0352C213.238 39.7324 213.36 39.4769 213.522 39.2686C213.688 39.057 213.897 38.8958 214.147 38.7852C214.401 38.6745 214.699 38.6191 215.041 38.6191C215.399 38.6191 215.708 38.6956 215.969 38.8486C216.232 38.9984 216.438 39.2165 216.584 39.5029C216.734 39.7861 216.815 40.1296 216.828 40.5332H216.018C216.005 40.2728 215.957 40.0563 215.876 39.8838C215.795 39.708 215.684 39.5778 215.544 39.4932C215.404 39.4053 215.236 39.3613 215.041 39.3613C214.813 39.3613 214.624 39.402 214.475 39.4834C214.328 39.5615 214.213 39.6755 214.128 39.8252C214.043 39.9749 213.983 40.154 213.947 40.3623C213.915 40.5706 213.898 40.8034 213.898 41.0605V41.6562C213.898 41.9134 213.915 42.1478 213.947 42.3594C213.983 42.5677 214.042 42.7467 214.123 42.8965C214.208 43.0462 214.325 43.1618 214.475 43.2432C214.624 43.3213 214.813 43.3604 215.041 43.3604ZM220.417 43.0967V40.2305C220.417 40.0221 220.384 39.8545 220.319 39.7275C220.257 39.6006 220.163 39.5078 220.036 39.4492C219.912 39.3906 219.756 39.3613 219.567 39.3613C219.385 39.3613 219.227 39.3988 219.094 39.4736C218.964 39.5485 218.863 39.6478 218.791 39.7715C218.723 39.8952 218.688 40.0319 218.688 40.1816H217.824C217.824 39.9928 217.865 39.8057 217.946 39.6201C218.031 39.4346 218.151 39.2669 218.308 39.1172C218.464 38.9642 218.651 38.8437 218.869 38.7559C219.09 38.6647 219.338 38.6191 219.611 38.6191C219.937 38.6191 220.225 38.6729 220.476 38.7803C220.726 38.8844 220.923 39.0553 221.066 39.293C221.21 39.5306 221.281 39.8464 221.281 40.2402V42.8477C221.281 43.0234 221.294 43.2106 221.32 43.4092C221.35 43.6077 221.39 43.7786 221.442 43.9219V44H220.549C220.507 43.8958 220.474 43.7575 220.451 43.585C220.428 43.4092 220.417 43.2464 220.417 43.0967ZM220.554 40.7969L220.563 41.4316H219.963C219.758 41.4316 219.571 41.4544 219.401 41.5C219.235 41.5456 219.092 41.6123 218.972 41.7002C218.851 41.7848 218.758 41.8906 218.693 42.0176C218.632 42.1445 218.601 42.2894 218.601 42.4521C218.601 42.6637 218.63 42.833 218.688 42.96C218.747 43.0837 218.835 43.1732 218.952 43.2285C219.069 43.2839 219.217 43.3115 219.396 43.3115C219.615 43.3115 219.807 43.2611 219.973 43.1602C220.139 43.0592 220.267 42.9372 220.358 42.7939C220.453 42.6507 220.497 42.5173 220.49 42.3936L220.681 42.7988C220.668 42.9258 220.625 43.0641 220.554 43.2139C220.485 43.3604 220.389 43.502 220.266 43.6387C220.142 43.7721 219.995 43.8828 219.826 43.9707C219.66 44.0553 219.473 44.0977 219.265 44.0977C218.959 44.0977 218.69 44.0391 218.459 43.9219C218.231 43.8047 218.054 43.6322 217.927 43.4043C217.8 43.1764 217.736 42.8949 217.736 42.5596C217.736 42.3057 217.78 42.0713 217.868 41.8564C217.956 41.6416 218.086 41.4561 218.259 41.2998C218.431 41.1403 218.648 41.0166 218.908 40.9287C219.172 40.8408 219.476 40.7969 219.821 40.7969H220.554ZM223.488 39.5469V44H222.624V38.7168H223.459L223.488 39.5469ZM224.802 38.6875L224.807 39.5273C224.735 39.5111 224.67 39.5013 224.611 39.498C224.556 39.4915 224.491 39.4883 224.416 39.4883C224.253 39.4883 224.11 39.5208 223.986 39.5859C223.866 39.651 223.762 39.7422 223.674 39.8594C223.586 39.9766 223.516 40.1165 223.464 40.2793C223.412 40.4388 223.376 40.6146 223.356 40.8066L223.132 40.9531C223.132 40.6341 223.156 40.3346 223.205 40.0547C223.257 39.7747 223.337 39.5273 223.444 39.3125C223.552 39.0944 223.688 38.9251 223.854 38.8047C224.024 38.681 224.226 38.6191 224.46 38.6191C224.512 38.6191 224.576 38.6273 224.65 38.6436C224.729 38.6566 224.779 38.6712 224.802 38.6875ZM227.463 44.0977C227.147 44.0977 226.862 44.0505 226.608 43.9561C226.354 43.8617 226.138 43.7184 225.959 43.5264C225.78 43.3311 225.643 43.0853 225.549 42.7891C225.454 42.4928 225.407 42.1429 225.407 41.7393V41.1436C225.407 40.6781 225.461 40.2842 225.568 39.9619C225.679 39.6396 225.827 39.3809 226.013 39.1855C226.198 38.987 226.408 38.8437 226.643 38.7559C226.877 38.6647 227.118 38.6191 227.365 38.6191C227.697 38.6191 227.98 38.6729 228.215 38.7803C228.449 38.8877 228.64 39.0472 228.786 39.2588C228.933 39.4704 229.04 39.7308 229.108 40.04C229.18 40.3493 229.216 40.7057 229.216 41.1094V41.6123H225.915V40.875H228.352V40.7529C228.339 40.4795 228.301 40.2386 228.239 40.0303C228.181 39.8219 228.083 39.6592 227.946 39.542C227.81 39.4215 227.616 39.3613 227.365 39.3613C227.206 39.3613 227.058 39.389 226.921 39.4443C226.787 39.4964 226.672 39.5892 226.574 39.7227C226.48 39.8529 226.405 40.0335 226.35 40.2646C226.298 40.4958 226.271 40.7887 226.271 41.1436V41.7393C226.271 42.0225 226.298 42.2666 226.35 42.4717C226.405 42.6735 226.485 42.8411 226.589 42.9746C226.696 43.1048 226.826 43.2025 226.979 43.2676C227.136 43.3294 227.313 43.3604 227.512 43.3604C227.801 43.3604 228.041 43.305 228.229 43.1943C228.418 43.0804 228.583 42.9355 228.723 42.7598L229.177 43.3018C229.082 43.4352 228.959 43.5638 228.806 43.6875C228.656 43.8079 228.47 43.9072 228.249 43.9854C228.031 44.0602 227.769 44.0977 227.463 44.0977ZM235.119 42.6475C235.119 42.514 235.087 42.3968 235.021 42.2959C234.956 42.195 234.849 42.0973 234.699 42.0029C234.553 41.9085 234.354 41.8076 234.104 41.7002C233.859 41.5993 233.64 41.5 233.444 41.4023C233.252 41.3014 233.09 41.1924 232.956 41.0752C232.823 40.958 232.72 40.8229 232.648 40.6699C232.58 40.5137 232.546 40.3298 232.546 40.1182C232.546 39.9066 232.585 39.7113 232.663 39.5322C232.744 39.3499 232.858 39.1904 233.005 39.0537C233.151 38.917 233.327 38.8112 233.532 38.7363C233.737 38.6582 233.967 38.6191 234.221 38.6191C234.582 38.6191 234.89 38.6891 235.144 38.8291C235.397 38.9691 235.591 39.1611 235.725 39.4053C235.861 39.6462 235.93 39.918 235.93 40.2207H235.07C235.07 40.0742 235.038 39.9359 234.973 39.8057C234.908 39.6755 234.812 39.5697 234.685 39.4883C234.558 39.4036 234.403 39.3613 234.221 39.3613C234.029 39.3613 233.872 39.3955 233.752 39.4639C233.632 39.5322 233.544 39.6217 233.488 39.7324C233.436 39.8398 233.41 39.9587 233.41 40.0889C233.41 40.1865 233.423 40.2712 233.449 40.3428C233.479 40.4111 233.527 40.4762 233.596 40.5381C233.664 40.5967 233.757 40.6585 233.874 40.7236C233.994 40.7855 234.147 40.8571 234.333 40.9385C234.691 41.0785 234.992 41.2201 235.236 41.3633C235.48 41.5065 235.666 41.6742 235.793 41.8662C235.92 42.0583 235.983 42.2959 235.983 42.5791C235.983 42.8102 235.941 43.0202 235.856 43.209C235.775 43.3945 235.658 43.554 235.505 43.6875C235.352 43.821 235.168 43.9235 234.953 43.9951C234.742 44.0635 234.504 44.0977 234.24 44.0977C233.843 44.0977 233.506 44.0195 233.229 43.8633C232.956 43.7038 232.748 43.4971 232.604 43.2432C232.465 42.986 232.395 42.7109 232.395 42.418H233.259C233.269 42.6654 233.324 42.8574 233.425 42.9941C233.529 43.1309 233.654 43.2253 233.801 43.2773C233.947 43.3294 234.094 43.3555 234.24 43.3555C234.432 43.3555 234.593 43.3278 234.724 43.2725C234.854 43.2139 234.951 43.1309 235.017 43.0234C235.085 42.916 235.119 42.7907 235.119 42.6475ZM234.748 44.6104V44.9961C234.748 45.2533 234.696 45.5299 234.592 45.8262C234.488 46.1224 234.326 46.3698 234.108 46.5684L233.62 46.2119C233.724 46.0264 233.802 45.8359 233.854 45.6406C233.907 45.4453 233.933 45.2337 233.933 45.0059V44.6104H234.748ZM238.044 38.7168V44H237.185V38.7168H238.044ZM237.136 37.3154C237.136 37.1689 237.176 37.0452 237.258 36.9443C237.339 36.8434 237.461 36.793 237.624 36.793C237.787 36.793 237.909 36.8434 237.99 36.9443C238.075 37.0452 238.117 37.1689 238.117 37.3154C238.117 37.4554 238.075 37.5758 237.99 37.6768C237.909 37.7744 237.787 37.8232 237.624 37.8232C237.461 37.8232 237.339 37.7744 237.258 37.6768C237.176 37.5758 237.136 37.4554 237.136 37.3154ZM207.126 50.7324V57.0312H206.262V49.7168H207.048L207.126 50.7324ZM210.08 52.1191V52.6123C210.08 53.029 210.041 53.3936 209.963 53.7061C209.888 54.0153 209.776 54.2741 209.626 54.4824C209.479 54.6875 209.299 54.8421 209.084 54.9463C208.869 55.0472 208.623 55.0977 208.347 55.0977C208.07 55.0977 207.829 55.0456 207.624 54.9414C207.422 54.834 207.251 54.6794 207.111 54.4775C206.975 54.2757 206.866 54.0332 206.784 53.75C206.706 53.4635 206.652 53.1429 206.623 52.7881V52.0361C206.652 51.6618 206.706 51.3265 206.784 51.0303C206.862 50.7308 206.97 50.4769 207.106 50.2686C207.246 50.057 207.417 49.8958 207.619 49.7852C207.824 49.6745 208.063 49.6191 208.337 49.6191C208.62 49.6191 208.869 49.668 209.084 49.7656C209.302 49.8633 209.484 50.0146 209.631 50.2197C209.781 50.4215 209.893 50.6803 209.968 50.9961C210.043 51.3086 210.08 51.6829 210.08 52.1191ZM209.216 52.6123V52.1191C209.216 51.8262 209.193 51.5706 209.147 51.3525C209.105 51.1344 209.037 50.9538 208.942 50.8105C208.848 50.6673 208.729 50.5599 208.586 50.4883C208.443 50.4167 208.27 50.3809 208.068 50.3809C207.896 50.3809 207.743 50.4167 207.609 50.4883C207.479 50.5599 207.367 50.6576 207.272 50.7812C207.178 50.9017 207.1 51.04 207.038 51.1963C206.976 51.3493 206.931 51.5088 206.901 51.6748V53.1543C206.957 53.3626 207.03 53.5596 207.121 53.7451C207.212 53.9274 207.334 54.0755 207.487 54.1895C207.644 54.3034 207.84 54.3604 208.078 54.3604C208.277 54.3604 208.448 54.3245 208.591 54.2529C208.734 54.1813 208.851 54.0739 208.942 53.9307C209.037 53.7842 209.105 53.6019 209.147 53.3838C209.193 53.1624 209.216 52.9053 209.216 52.6123ZM212.121 47.5V55H211.262V47.5H212.121ZM216.076 54.0967V51.2305C216.076 51.0221 216.044 50.8545 215.979 50.7275C215.917 50.6006 215.822 50.5078 215.695 50.4492C215.572 50.3906 215.415 50.3613 215.227 50.3613C215.044 50.3613 214.886 50.3988 214.753 50.4736C214.623 50.5485 214.522 50.6478 214.45 50.7715C214.382 50.8952 214.348 51.0319 214.348 51.1816H213.483C213.483 50.9928 213.524 50.8057 213.605 50.6201C213.69 50.4346 213.811 50.2669 213.967 50.1172C214.123 49.9642 214.31 49.8438 214.528 49.7559C214.75 49.6647 214.997 49.6191 215.271 49.6191C215.596 49.6191 215.884 49.6729 216.135 49.7803C216.385 49.8844 216.582 50.0553 216.726 50.293C216.869 50.5306 216.94 50.8464 216.94 51.2402V53.8477C216.94 54.0234 216.953 54.2106 216.979 54.4092C217.009 54.6077 217.049 54.7786 217.102 54.9219V55H216.208C216.166 54.8958 216.133 54.7575 216.11 54.585C216.088 54.4092 216.076 54.2464 216.076 54.0967ZM216.213 51.7969L216.223 52.4316H215.622C215.417 52.4316 215.23 52.4544 215.061 52.5C214.895 52.5456 214.751 52.6123 214.631 52.7002C214.51 52.7848 214.418 52.8906 214.353 53.0176C214.291 53.1445 214.26 53.2894 214.26 53.4521C214.26 53.6637 214.289 53.833 214.348 53.96C214.406 54.0837 214.494 54.1732 214.611 54.2285C214.729 54.2839 214.877 54.3115 215.056 54.3115C215.274 54.3115 215.466 54.2611 215.632 54.1602C215.798 54.0592 215.926 53.9372 216.018 53.7939C216.112 53.6507 216.156 53.5173 216.149 53.3936L216.34 53.7988C216.327 53.9258 216.285 54.0641 216.213 54.2139C216.145 54.3604 216.049 54.502 215.925 54.6387C215.801 54.7721 215.655 54.8828 215.485 54.9707C215.319 55.0553 215.132 55.0977 214.924 55.0977C214.618 55.0977 214.349 55.0391 214.118 54.9219C213.89 54.8047 213.713 54.6322 213.586 54.4043C213.459 54.1764 213.396 53.8949 213.396 53.5596C213.396 53.3057 213.439 53.0713 213.527 52.8564C213.615 52.6416 213.745 52.4561 213.918 52.2998C214.09 52.1403 214.307 52.0166 214.567 51.9287C214.831 51.8408 215.135 51.7969 215.48 51.7969H216.213ZM220.212 49.7168V50.4102L217.746 50.4102V49.7168L220.212 49.7168ZM218.552 48.4326H219.416V53.6914C219.416 53.8704 219.437 54.0055 219.479 54.0967C219.525 54.1878 219.582 54.248 219.65 54.2773C219.719 54.3066 219.792 54.3213 219.87 54.3213C219.929 54.3213 219.994 54.3148 220.065 54.3018C220.137 54.2855 220.186 54.2725 220.212 54.2627L220.207 55C220.148 55.0228 220.07 55.0439 219.973 55.0635C219.875 55.0863 219.751 55.0977 219.602 55.0977C219.416 55.0977 219.243 55.0537 219.084 54.9658C218.924 54.8779 218.796 54.7314 218.698 54.5264C218.601 54.318 218.552 54.0381 218.552 53.6865V48.4326ZM223.83 54.0967V51.2305C223.83 51.0221 223.798 50.8545 223.732 50.7275C223.671 50.6006 223.576 50.5078 223.449 50.4492C223.326 50.3906 223.169 50.3613 222.98 50.3613C222.798 50.3613 222.64 50.3988 222.507 50.4736C222.377 50.5485 222.276 50.6478 222.204 50.7715C222.136 50.8952 222.102 51.0319 222.102 51.1816H221.237C221.237 50.9928 221.278 50.8057 221.359 50.6201C221.444 50.4346 221.564 50.2669 221.721 50.1172C221.877 49.9642 222.064 49.8437 222.282 49.7559C222.504 49.6647 222.751 49.6191 223.024 49.6191C223.35 49.6191 223.638 49.6729 223.889 49.7803C224.139 49.8844 224.336 50.0553 224.479 50.293C224.623 50.5306 224.694 50.8464 224.694 51.2402V53.8477C224.694 54.0234 224.707 54.2106 224.733 54.4092C224.763 54.6077 224.803 54.7786 224.855 54.9219V55H223.962C223.92 54.8958 223.887 54.7575 223.864 54.585C223.841 54.4092 223.83 54.2464 223.83 54.0967ZM223.967 51.7969L223.977 52.4316L223.376 52.4316C223.171 52.4316 222.984 52.4544 222.814 52.5C222.648 52.5456 222.505 52.6123 222.385 52.7002C222.264 52.7848 222.172 52.8906 222.106 53.0176C222.045 53.1445 222.014 53.2894 222.014 53.4521C222.014 53.6637 222.043 53.833 222.102 53.96C222.16 54.0837 222.248 54.1732 222.365 54.2285C222.482 54.2839 222.631 54.3115 222.81 54.3115C223.028 54.3115 223.22 54.2611 223.386 54.1602C223.552 54.0592 223.68 53.9372 223.771 53.7939C223.866 53.6507 223.91 53.5173 223.903 53.3936L224.094 53.7988C224.081 53.9258 224.038 54.0641 223.967 54.2139C223.898 54.3604 223.802 54.502 223.679 54.6387C223.555 54.7721 223.409 54.8828 223.239 54.9707C223.073 55.0553 222.886 55.0977 222.678 55.0977C222.372 55.0977 222.103 55.0391 221.872 54.9219C221.644 54.8047 221.467 54.6322 221.34 54.4043C221.213 54.1764 221.149 53.8949 221.149 53.5596C221.149 53.3057 221.193 53.0713 221.281 52.8564C221.369 52.6416 221.499 52.4561 221.672 52.2998C221.844 52.1403 222.061 52.0166 222.321 51.9287C222.585 51.8408 222.889 51.7969 223.234 51.7969L223.967 51.7969ZM223.806 47.7002H224.538C224.538 47.9541 224.479 48.1803 224.362 48.3789C224.245 48.5742 224.077 48.7272 223.859 48.8379C223.641 48.9486 223.382 49.0039 223.083 49.0039C222.631 49.0039 222.272 48.8835 222.009 48.6426C221.748 48.3984 221.618 48.0843 221.618 47.7002H222.351C222.351 47.8923 222.406 48.0615 222.517 48.208C222.627 48.3545 222.816 48.4277 223.083 48.4277C223.343 48.4277 223.529 48.3545 223.64 48.208C223.75 48.0615 223.806 47.8923 223.806 47.7002Z" fill="#E0E0E9"/>
<path fill-rule="evenodd" clip-rule="evenodd" d="M205 16L138 16V14L205 14V16Z" fill="#D0CFD7"/>
<path fill-rule="evenodd" clip-rule="evenodd" d="M112 16L45 16V14L112 14V16Z" fill="#D0CFD7"/>
<path fill-rule="evenodd" clip-rule="evenodd" d="M19.7612 6.17317C19 8.01088 19 10.3406 19 15C19 19.6594 19 21.9891 19.7612 23.8268C20.7761 26.2771 22.7229 28.2239 25.1732 29.2388C27.0109 30 29.3406 30 34 30C38.6594 30 40.9891 30 42.8268 29.2388C45.2771 28.2239 47.2239 26.2771 48.2388 23.8268C49 21.9891 49 19.6594 49 15C49 10.3406 49 8.01088 48.2388 6.17317C47.2239 3.72288 45.2771 1.77614 42.8268 0.761205C40.9891 0 38.6594 0 34 0C29.3406 0 27.0109 0 25.1732 0.761205C22.7229 1.77614 20.7761 3.72288 19.7612 6.17317ZM40.7071 11.7071C41.0976 11.3166 41.0976 10.6834 40.7071 10.2929C40.3166 9.90237 39.6834 9.90237 39.2929 10.2929L32 17.5858L28.7071 14.2929C28.3166 13.9024 27.6834 13.9024 27.2929 14.2929C26.9024 14.6834 26.9024 15.3166 27.2929 15.7071L31.2929 19.7071C31.4804 19.8946 31.7348 20 32 20C32.2652 20 32.5196 19.8946 32.7071 19.7071L40.7071 11.7071Z" fill="url(#paint1_linear_363_2889)"/>
<path fill-rule="evenodd" clip-rule="evenodd" d="M201.761 6.17317C201 8.01088 201 10.3406 201 15C201 19.6594 201 21.9891 201.761 23.8268C202.776 26.2771 204.723 28.2239 207.173 29.2388C209.011 30 211.341 30 216 30C220.659 30 222.989 30 224.827 29.2388C227.277 28.2239 229.224 26.2771 230.239 23.8268C231 21.9891 231 19.6594 231 15C231 10.3406 231 8.01088 230.239 6.17317C229.224 3.72288 227.277 1.77614 224.827 0.761205C222.989 0 220.659 0 216 0C211.341 0 209.011 0 207.173 0.761205C204.723 1.77614 202.776 3.72288 201.761 6.17317ZM222.707 11.7071C223.098 11.3166 223.098 10.6834 222.707 10.2929C222.317 9.90237 221.683 9.90237 221.293 10.2929L214 17.5858L210.707 14.2929C210.317 13.9024 209.683 13.9024 209.293 14.2929C208.902 14.6834 208.902 15.3166 209.293 15.7071L213.293 19.7071C213.48 19.8946 213.735 20 214 20C214.265 20 214.52 19.8946 214.707 19.7071L222.707 11.7071Z" fill="#D0CFD7"/>
<path fill-rule="evenodd" clip-rule="evenodd" d="M110.761 6.17317C110 8.01088 110 10.3406 110 15C110 19.6594 110 21.9891 110.761 23.8268C111.776 26.2771 113.723 28.2239 116.173 29.2388C118.011 30 120.341 30 125 30C129.659 30 131.989 30 133.827 29.2388C136.277 28.2239 138.224 26.2771 139.239 23.8268C140 21.9891 140 19.6594 140 15C140 10.3406 140 8.01088 139.239 6.17317C138.224 3.72288 136.277 1.77614 133.827 0.761205C131.989 0 129.659 0 125 0C120.341 0 118.011 0 116.173 0.761205C113.723 1.77614 111.776 3.72288 110.761 6.17317ZM131.707 11.7071C132.098 11.3166 132.098 10.6834 131.707 10.2929C131.317 9.90237 130.683 9.90237 130.293 10.2929L123 17.5858L119.707 14.2929C119.317 13.9024 118.683 13.9024 118.293 14.2929C117.902 14.6834 117.902 15.3166 118.293 15.7071L122.293 19.7071C122.48 19.8946 122.735 20 123 20C123.265 20 123.52 19.8946 123.707 19.7071L131.707 11.7071Z" fill="#D0CFD7"/>
<defs>
<linearGradient id="paint0_linear_363_2889" x1="33.5" y1="57" x2="33.5" y2="35" gradientUnits="userSpaceOnUse">
<stop stop-color="#5CCC94"/>
<stop offset="1" stop-color="#8CCAAE"/>
</linearGradient>
<linearGradient id="paint1_linear_363_2889" x1="34" y1="30" x2="34" y2="1.58545e-07" gradientUnits="userSpaceOnUse">
<stop stop-color="#5CCC94"/>
<stop offset="1" stop-color="#8CCAAE"/>
</linearGradient>
</defs>
</svg>
