<svg width="239" height="69" viewBox="0 0 239 69" fill="none" xmlns="http://www.w3.org/2000/svg">
<path d="M22.9717 39.9473V40.7139H19.8906V39.9473H22.9717ZM20.0127 36.8906V44H19.1143V36.8906H20.0127ZM23.7676 36.8906V44H22.8691V36.8906H23.7676ZM25.0176 41.6123V41.1094C25.0176 40.6992 25.0697 40.3395 25.1738 40.0303C25.278 39.7178 25.4229 39.4574 25.6084 39.249C25.7939 39.0407 26.0104 38.8844 26.2578 38.7803C26.5052 38.6729 26.7705 38.6191 27.0537 38.6191C27.3434 38.6191 27.612 38.6729 27.8594 38.7803C28.1068 38.8844 28.3232 39.0407 28.5088 39.249C28.6976 39.4574 28.8441 39.7178 28.9482 40.0303C29.0524 40.3395 29.1045 40.6992 29.1045 41.1094V41.6123C29.1045 42.0225 29.0524 42.3838 28.9482 42.6963C28.8441 43.0055 28.6992 43.2643 28.5137 43.4727C28.3281 43.681 28.1117 43.8372 27.8643 43.9414C27.6169 44.0456 27.3499 44.0977 27.0635 44.0977C26.777 44.0977 26.5101 44.0456 26.2627 43.9414C26.0153 43.8372 25.7972 43.681 25.6084 43.4727C25.4229 43.2643 25.278 43.0055 25.1738 42.6963C25.0697 42.3838 25.0176 42.0225 25.0176 41.6123ZM25.8818 41.1094V41.6123C25.8818 41.902 25.9111 42.1559 25.9697 42.374C26.0283 42.5921 26.1113 42.7744 26.2188 42.9209C26.3262 43.0674 26.4515 43.1781 26.5947 43.2529C26.738 43.3245 26.8942 43.3604 27.0635 43.3604C27.2588 43.3604 27.4297 43.3245 27.5762 43.2529C27.7259 43.1781 27.8496 43.0674 27.9473 42.9209C28.0449 42.7744 28.1182 42.5921 28.167 42.374C28.2158 42.1559 28.2402 41.902 28.2402 41.6123V41.1094C28.2402 40.8197 28.2109 40.5674 28.1523 40.3525C28.0938 40.1344 28.0107 39.9521 27.9033 39.8057C27.7959 39.6559 27.6689 39.5452 27.5225 39.4736C27.3792 39.3988 27.223 39.3613 27.0537 39.3613C26.8877 39.3613 26.7331 39.3988 26.5898 39.4736C26.4466 39.5452 26.3213 39.6559 26.2139 39.8057C26.1097 39.9521 26.0283 40.1344 25.9697 40.3525C25.9111 40.5674 25.8818 40.8197 25.8818 41.1094ZM32.8105 42.7988L34.2217 38.7168H35.042L33.1084 44H32.5127L30.584 38.7168H31.4043L32.8105 42.7988ZM31.1553 38.7168V44H30.2959V38.7168H31.1553ZM34.4365 44V38.7168H35.3008V44H34.4365ZM38.5723 44.0977C38.2565 44.0977 37.9717 44.0505 37.7178 43.9561C37.4639 43.8617 37.2474 43.7184 37.0684 43.5264C36.8893 43.3311 36.7526 43.0853 36.6582 42.7891C36.5638 42.4928 36.5166 42.1429 36.5166 41.7393V41.1436C36.5166 40.6781 36.5703 40.2842 36.6777 39.9619C36.7884 39.6396 36.9365 39.3809 37.1221 39.1855C37.3076 38.987 37.5176 38.8437 37.752 38.7559C37.9863 38.6647 38.2272 38.6191 38.4746 38.6191C38.8066 38.6191 39.0898 38.6729 39.3242 38.7803C39.5586 38.8877 39.749 39.0472 39.8955 39.2588C40.042 39.4704 40.1494 39.7308 40.2178 40.04C40.2894 40.3493 40.3252 40.7057 40.3252 41.1094V41.6123H37.0244V40.875H39.4609V40.7529C39.4479 40.4795 39.4105 40.2386 39.3486 40.0303C39.29 39.8219 39.1924 39.6592 39.0557 39.542C38.9189 39.4215 38.7253 39.3613 38.4746 39.3613C38.3151 39.3613 38.167 39.389 38.0303 39.4443C37.8968 39.4964 37.7812 39.5892 37.6836 39.7227C37.5892 39.8529 37.5143 40.0335 37.459 40.2646C37.4069 40.4958 37.3809 40.7887 37.3809 41.1436V41.7393C37.3809 42.0225 37.4069 42.2666 37.459 42.4717C37.5143 42.6735 37.5941 42.8411 37.6982 42.9746C37.8057 43.1048 37.9359 43.2025 38.0889 43.2676C38.2451 43.3294 38.4225 43.3604 38.6211 43.3604C38.9108 43.3604 39.1501 43.305 39.3389 43.1943C39.5277 43.0804 39.6921 42.9355 39.832 42.7598L40.2861 43.3018C40.1917 43.4352 40.068 43.5638 39.915 43.6875C39.7653 43.8079 39.5798 43.9072 39.3584 43.9854C39.1403 44.0602 38.8783 44.0977 38.5723 44.0977ZM42.2344 39.7324V46.0312H41.3701V38.7168H42.1562L42.2344 39.7324ZM45.1885 41.1191V41.6123C45.1885 42.029 45.1494 42.3936 45.0713 42.7061C44.9964 43.0153 44.8841 43.2741 44.7344 43.4824C44.5879 43.6875 44.4072 43.8421 44.1924 43.9463C43.9775 44.0472 43.7318 44.0977 43.4551 44.0977C43.1784 44.0977 42.9375 44.0456 42.7324 43.9414C42.5306 43.834 42.3597 43.6794 42.2197 43.4775C42.083 43.2757 41.974 43.0332 41.8926 42.75C41.8145 42.4635 41.7607 42.1429 41.7314 41.7881V41.0361C41.7607 40.6618 41.8145 40.3265 41.8926 40.0303C41.9707 39.7308 42.0781 39.4769 42.2148 39.2686C42.3548 39.057 42.5257 38.8958 42.7275 38.7852C42.9326 38.6745 43.1719 38.6191 43.4453 38.6191C43.7285 38.6191 43.9775 38.668 44.1924 38.7656C44.4105 38.8633 44.5928 39.0146 44.7393 39.2197C44.889 39.4215 45.0013 39.6803 45.0762 39.9961C45.151 40.3086 45.1885 40.6829 45.1885 41.1191ZM44.3242 41.6123V41.1191C44.3242 40.8262 44.3014 40.5706 44.2559 40.3525C44.2135 40.1344 44.1452 39.9538 44.0508 39.8105C43.9564 39.6673 43.8376 39.5599 43.6943 39.4883C43.5511 39.4167 43.3786 39.3809 43.1768 39.3809C43.0042 39.3809 42.8512 39.4167 42.7178 39.4883C42.5876 39.5599 42.4753 39.6576 42.3809 39.7812C42.2865 39.9017 42.2083 40.04 42.1465 40.1963C42.0846 40.3493 42.0391 40.5088 42.0098 40.6748V42.1543C42.0651 42.3626 42.1383 42.5596 42.2295 42.7451C42.3206 42.9274 42.4427 43.0755 42.5957 43.1895C42.752 43.3034 42.9489 43.3604 43.1865 43.3604C43.3851 43.3604 43.556 43.3245 43.6992 43.2529C43.8424 43.1813 43.9596 43.0739 44.0508 42.9307C44.1452 42.7842 44.2135 42.6019 44.2559 42.3838C44.3014 42.1624 44.3242 41.9053 44.3242 41.6123ZM3.87012 49.7168L3.87012 55H3.00586L3.00586 49.7168H3.87012ZM5.31055 49.7168V50.4492H1.58496V49.7168H5.31055ZM7.09277 50.7324L7.09277 57.0312H6.22852L6.22852 49.7168H7.01465L7.09277 50.7324ZM10.0469 52.1191V52.6123C10.0469 53.029 10.0078 53.3936 9.92969 53.7061C9.85482 54.0153 9.74251 54.2741 9.59277 54.4824C9.44629 54.6875 9.26563 54.8421 9.05078 54.9463C8.83594 55.0472 8.59017 55.0977 8.31348 55.0977C8.03678 55.0977 7.7959 55.0456 7.59082 54.9414C7.389 54.834 7.2181 54.6794 7.07813 54.4775C6.94141 54.2757 6.83236 54.0332 6.75098 53.75C6.67285 53.4635 6.61914 53.1429 6.58984 52.7881V52.0361C6.61914 51.6618 6.67285 51.3265 6.75098 51.0303C6.8291 50.7308 6.93652 50.4769 7.07324 50.2686C7.21322 50.057 7.38411 49.8958 7.58594 49.7852C7.79102 49.6745 8.03027 49.6191 8.30371 49.6191C8.58691 49.6191 8.83594 49.668 9.05078 49.7656C9.26888 49.8633 9.45117 50.0146 9.59766 50.2197C9.7474 50.4215 9.8597 50.6803 9.93457 50.9961C10.0094 51.3086 10.0469 51.6829 10.0469 52.1191ZM9.18262 52.6123V52.1191C9.18262 51.8262 9.15983 51.5706 9.11426 51.3525C9.07194 51.1344 9.00358 50.9538 8.90918 50.8105C8.81478 50.6673 8.69596 50.5599 8.55273 50.4883C8.40951 50.4167 8.23698 50.3809 8.03516 50.3809C7.86263 50.3809 7.70964 50.4167 7.57617 50.4883C7.44596 50.5599 7.33366 50.6576 7.23926 50.7812C7.14486 50.9017 7.06673 51.04 7.00488 51.1963C6.94303 51.3493 6.89746 51.5088 6.86816 51.6748V53.1543C6.9235 53.3626 6.99674 53.5596 7.08789 53.7451C7.17904 53.9274 7.30111 54.0755 7.4541 54.1895C7.61035 54.3034 7.80729 54.3604 8.04492 54.3604C8.24349 54.3604 8.41439 54.3245 8.55762 54.2529C8.70085 54.1813 8.81803 54.0739 8.90918 53.9307C9.00358 53.7842 9.07194 53.6019 9.11426 53.3838C9.15983 53.1624 9.18262 52.9053 9.18262 52.6123ZM13.748 54.0967L13.748 51.2305C13.748 51.0221 13.7155 50.8545 13.6504 50.7275C13.5885 50.6006 13.4941 50.5078 13.3672 50.4492C13.2435 50.3906 13.0872 50.3613 12.8984 50.3613C12.7161 50.3613 12.5583 50.3988 12.4248 50.4736C12.2946 50.5485 12.1937 50.6478 12.1221 50.7715C12.0537 50.8952 12.0195 51.0319 12.0195 51.1816H11.1553C11.1553 50.9928 11.196 50.8057 11.2773 50.6201C11.362 50.4346 11.4824 50.2669 11.6387 50.1172C11.7949 49.9642 11.9821 49.8438 12.2002 49.7559C12.4215 49.6647 12.6689 49.6191 12.9424 49.6191C13.2679 49.6191 13.556 49.6729 13.8066 49.7803C14.0573 49.8844 14.2542 50.0553 14.3975 50.293C14.5407 50.5306 14.6123 50.8464 14.6123 51.2402L14.6123 53.8477C14.6123 54.0234 14.6253 54.2106 14.6514 54.4092C14.6807 54.6077 14.7214 54.7786 14.7734 54.9219V55H13.8799C13.8376 54.8958 13.805 54.7575 13.7822 54.585C13.7594 54.4092 13.748 54.2464 13.748 54.0967ZM13.8848 51.7969L13.8945 52.4316H13.2939C13.0889 52.4316 12.9017 52.4544 12.7324 52.5C12.5664 52.5456 12.4232 52.6123 12.3027 52.7002C12.1823 52.7848 12.0895 52.8906 12.0244 53.0176C11.9626 53.1445 11.9316 53.2894 11.9316 53.4521C11.9316 53.6637 11.9609 53.833 12.0195 53.96C12.0781 54.0837 12.166 54.1732 12.2832 54.2285C12.4004 54.2839 12.5485 54.3115 12.7275 54.3115C12.9456 54.3115 13.1377 54.2611 13.3037 54.1602C13.4697 54.0592 13.5983 53.9372 13.6895 53.7939C13.7839 53.6507 13.8278 53.5173 13.8213 53.3936L14.0117 53.7988C13.9987 53.9258 13.9564 54.0641 13.8848 54.2139C13.8164 54.3604 13.7204 54.502 13.5967 54.6387C13.473 54.7721 13.3265 54.8828 13.1572 54.9707C12.9912 55.0553 12.804 55.0977 12.5957 55.0977C12.2897 55.0977 12.0212 55.0391 11.79 54.9219C11.5622 54.8047 11.3848 54.6322 11.2578 54.4043C11.1309 54.1764 11.0674 53.8949 11.0674 53.5596C11.0674 53.3057 11.1113 53.0713 11.1992 52.8564C11.2871 52.6416 11.4173 52.4561 11.5898 52.2998C11.7624 52.1403 11.9788 52.0166 12.2393 51.9287C12.5029 51.8408 12.8073 51.7969 13.1523 51.7969H13.8848ZM18.9629 52.0068V52.7393H16.7217V52.0068H18.9629ZM16.8975 49.7168V55H16.0332V49.7168H16.8975ZM19.666 49.7168V55H18.8018V49.7168H19.666ZM22.874 54.3604C23.0465 54.3604 23.2028 54.3262 23.3428 54.2578C23.486 54.1862 23.6032 54.0755 23.6943 53.9258C23.7855 53.7728 23.8376 53.5742 23.8506 53.3301H24.6611C24.6481 53.6816 24.5586 53.9909 24.3926 54.2578C24.2298 54.5215 24.015 54.7282 23.748 54.8779C23.4844 55.0244 23.193 55.0977 22.874 55.0977C22.5322 55.0977 22.2344 55.0423 21.9805 54.9316C21.7298 54.821 21.5215 54.6615 21.3555 54.4531C21.1927 54.2415 21.0706 53.986 20.9893 53.6865C20.9079 53.3838 20.8672 53.0404 20.8672 52.6562V52.0605C20.8672 51.6764 20.9079 51.3346 20.9893 51.0352C21.0706 50.7324 21.1927 50.4769 21.3555 50.2686C21.5215 50.057 21.7298 49.8958 21.9805 49.7852C22.2344 49.6745 22.5322 49.6191 22.874 49.6191C23.2321 49.6191 23.5413 49.6956 23.8018 49.8486C24.0654 49.9984 24.2705 50.2165 24.417 50.5029C24.5667 50.7861 24.6481 51.1296 24.6611 51.5332H23.8506C23.8376 51.2728 23.7904 51.0563 23.709 50.8838C23.6276 50.708 23.5169 50.5778 23.377 50.4932C23.237 50.4053 23.0693 50.3613 22.874 50.3613C22.6462 50.3613 22.4574 50.402 22.3076 50.4834C22.1611 50.5615 22.0456 50.6755 21.9609 50.8252C21.8763 50.9749 21.8161 51.154 21.7803 51.3623C21.7477 51.5706 21.7314 51.8034 21.7314 52.0605V52.6562C21.7314 52.9134 21.7477 53.1478 21.7803 53.3594C21.8161 53.5677 21.8747 53.7467 21.9561 53.8965C22.0407 54.0462 22.1579 54.1618 22.3076 54.2432C22.4574 54.3213 22.6462 54.3604 22.874 54.3604ZM28.6016 49.7168V50.4639L26.4922 50.4639V49.7168L28.6016 49.7168ZM26.6045 49.7168V55H25.7402V49.7168H26.6045ZM29.3779 49.7168V55H28.5137V49.7168H29.3779ZM30.5791 52.6123V52.1094C30.5791 51.6992 30.6312 51.3395 30.7354 51.0303C30.8395 50.7178 30.9844 50.4574 31.1699 50.249C31.3555 50.0407 31.5719 49.8844 31.8193 49.7803C32.0667 49.6729 32.332 49.6191 32.6152 49.6191C32.9049 49.6191 33.1735 49.6729 33.4209 49.7803C33.6683 49.8844 33.8848 50.0407 34.0703 50.249C34.2591 50.4574 34.4056 50.7178 34.5098 51.0303C34.6139 51.3395 34.666 51.6992 34.666 52.1094V52.6123C34.666 53.0225 34.6139 53.3838 34.5098 53.6963C34.4056 54.0055 34.2607 54.2643 34.0752 54.4727C33.8896 54.681 33.6732 54.8372 33.4258 54.9414C33.1784 55.0456 32.9115 55.0977 32.625 55.0977C32.3385 55.0977 32.0716 55.0456 31.8242 54.9414C31.5768 54.8372 31.3587 54.681 31.1699 54.4727C30.9844 54.2643 30.8395 54.0055 30.7354 53.6963C30.6312 53.3838 30.5791 53.0225 30.5791 52.6123ZM31.4434 52.1094V52.6123C31.4434 52.902 31.4727 53.1559 31.5313 53.374C31.5898 53.5921 31.6729 53.7744 31.7803 53.9209C31.8877 54.0674 32.013 54.1781 32.1562 54.2529C32.2995 54.3245 32.4557 54.3604 32.625 54.3604C32.8203 54.3604 32.9912 54.3245 33.1377 54.2529C33.2874 54.1781 33.4111 54.0674 33.5088 53.9209C33.6064 53.7744 33.6797 53.5921 33.7285 53.374C33.7773 53.1559 33.8018 52.902 33.8018 52.6123V52.1094C33.8018 51.8197 33.7725 51.5674 33.7139 51.3525C33.6553 51.1344 33.5723 50.9521 33.4648 50.8057C33.3574 50.6559 33.2305 50.5452 33.084 50.4736C32.9408 50.3988 32.7845 50.3613 32.6152 50.3613C32.4492 50.3613 32.2946 50.3988 32.1514 50.4736C32.0081 50.5452 31.8828 50.6559 31.7754 50.8057C31.6712 50.9521 31.5898 51.1344 31.5313 51.3525C31.4727 51.5674 31.4434 51.8197 31.4434 52.1094ZM36.6436 50.7324V57.0312H35.7793V49.7168H36.5654L36.6436 50.7324ZM39.5977 52.1191V52.6123C39.5977 53.029 39.5586 53.3936 39.4805 53.7061C39.4056 54.0153 39.2933 54.2741 39.1436 54.4824C38.9971 54.6875 38.8164 54.8421 38.6016 54.9463C38.3867 55.0472 38.141 55.0977 37.8643 55.0977C37.5876 55.0977 37.3467 55.0456 37.1416 54.9414C36.9398 54.834 36.7689 54.6794 36.6289 54.4775C36.4922 54.2757 36.3831 54.0332 36.3018 53.75C36.2236 53.4635 36.1699 53.1429 36.1406 52.7881V52.0361C36.1699 51.6618 36.2236 51.3265 36.3018 51.0303C36.3799 50.7308 36.4873 50.4769 36.624 50.2686C36.764 50.057 36.9349 49.8958 37.1367 49.7852C37.3418 49.6745 37.5811 49.6191 37.8545 49.6191C38.1377 49.6191 38.3867 49.668 38.6016 49.7656C38.8197 49.8633 39.002 50.0146 39.1484 50.2197C39.2982 50.4215 39.4105 50.6803 39.4854 50.9961C39.5602 51.3086 39.5977 51.6829 39.5977 52.1191ZM38.7334 52.6123V52.1191C38.7334 51.8262 38.7106 51.5706 38.665 51.3525C38.6227 51.1344 38.5544 50.9538 38.46 50.8105C38.3656 50.6673 38.2467 50.5599 38.1035 50.4883C37.9603 50.4167 37.7878 50.3809 37.5859 50.3809C37.4134 50.3809 37.2604 50.4167 37.127 50.4883C36.9967 50.5599 36.8844 50.6576 36.79 50.7812C36.6956 50.9017 36.6175 51.04 36.5557 51.1963C36.4938 51.3493 36.4482 51.5088 36.4189 51.6748V53.1543C36.4743 53.3626 36.5475 53.5596 36.6387 53.7451C36.7298 53.9274 36.8519 54.0755 37.0049 54.1895C37.1611 54.3034 37.3581 54.3604 37.5957 54.3604C37.7943 54.3604 37.9652 54.3245 38.1084 54.2529C38.2516 54.1813 38.3688 54.0739 38.46 53.9307C38.5544 53.7842 38.6227 53.6019 38.665 53.3838C38.7106 53.1624 38.7334 52.9053 38.7334 52.6123ZM42.2197 49.7168V55H41.3555V49.7168H42.2197ZM43.6602 49.7168V50.4492H39.9346V49.7168H43.6602ZM47.5859 52.0068V52.7393H45.3447V52.0068H47.5859ZM45.5205 49.7168V55H44.6562V49.7168H45.5205ZM48.2891 49.7168V55H47.4248V49.7168H48.2891ZM49.4854 52.6123V52.1094C49.4854 51.6992 49.5374 51.3395 49.6416 51.0303C49.7458 50.7178 49.8906 50.4574 50.0762 50.249C50.2617 50.0407 50.4782 49.8844 50.7256 49.7803C50.973 49.6729 51.2383 49.6191 51.5215 49.6191C51.8112 49.6191 52.0798 49.6729 52.3271 49.7803C52.5745 49.8844 52.791 50.0407 52.9766 50.249C53.1654 50.4574 53.3118 50.7178 53.416 51.0303C53.5202 51.3395 53.5723 51.6992 53.5723 52.1094V52.6123C53.5723 53.0225 53.5202 53.3838 53.416 53.6963C53.3118 54.0055 53.167 54.2643 52.9814 54.4727C52.7959 54.681 52.5794 54.8372 52.332 54.9414C52.0846 55.0456 51.8177 55.0977 51.5312 55.0977C51.2448 55.0977 50.9779 55.0456 50.7305 54.9414C50.4831 54.8372 50.265 54.681 50.0762 54.4727C49.8906 54.2643 49.7458 54.0055 49.6416 53.6963C49.5374 53.3838 49.4854 53.0225 49.4854 52.6123ZM50.3496 52.1094V52.6123C50.3496 52.902 50.3789 53.1559 50.4375 53.374C50.4961 53.5921 50.5791 53.7744 50.6865 53.9209C50.7939 54.0674 50.9193 54.1781 51.0625 54.2529C51.2057 54.3245 51.362 54.3604 51.5312 54.3604C51.7266 54.3604 51.8975 54.3245 52.0439 54.2529C52.1937 54.1781 52.3174 54.0674 52.415 53.9209C52.5127 53.7744 52.5859 53.5921 52.6348 53.374C52.6836 53.1559 52.708 52.902 52.708 52.6123V52.1094C52.708 51.8197 52.6787 51.5674 52.6201 51.3525C52.5615 51.1344 52.4785 50.9521 52.3711 50.8057C52.2637 50.6559 52.1367 50.5452 51.9902 50.4736C51.847 50.3988 51.6908 50.3613 51.5215 50.3613C51.3555 50.3613 51.2008 50.3988 51.0576 50.4736C50.9144 50.5452 50.7891 50.6559 50.6816 50.8057C50.5775 50.9521 50.4961 51.1344 50.4375 51.3525C50.3789 51.5674 50.3496 51.8197 50.3496 52.1094ZM57.5908 49.7168V50.4639H55.6182V55L54.7539 55V49.7168H57.5908ZM58.1279 52.6123V52.1094C58.1279 51.6992 58.18 51.3395 58.2842 51.0303C58.3883 50.7178 58.5332 50.4574 58.7188 50.249C58.9043 50.0407 59.1208 49.8844 59.3682 49.7803C59.6156 49.6729 59.8809 49.6191 60.1641 49.6191C60.4538 49.6191 60.7223 49.6729 60.9697 49.7803C61.2171 49.8844 61.4336 50.0407 61.6191 50.249C61.8079 50.4574 61.9544 50.7178 62.0586 51.0303C62.1628 51.3395 62.2148 51.6992 62.2148 52.1094V52.6123C62.2148 53.0225 62.1628 53.3838 62.0586 53.6963C61.9544 54.0055 61.8096 54.2643 61.624 54.4727C61.4385 54.681 61.222 54.8372 60.9746 54.9414C60.7272 55.0456 60.4603 55.0977 60.1738 55.0977C59.8874 55.0977 59.6204 55.0456 59.373 54.9414C59.1257 54.8372 58.9076 54.681 58.7188 54.4727C58.5332 54.2643 58.3883 54.0055 58.2842 53.6963C58.18 53.3838 58.1279 53.0225 58.1279 52.6123ZM58.9922 52.1094V52.6123C58.9922 52.902 59.0215 53.1559 59.0801 53.374C59.1387 53.5921 59.2217 53.7744 59.3291 53.9209C59.4365 54.0674 59.5618 54.1781 59.7051 54.2529C59.8483 54.3245 60.0046 54.3604 60.1738 54.3604C60.3691 54.3604 60.54 54.3245 60.6865 54.2529C60.8363 54.1781 60.96 54.0674 61.0576 53.9209C61.1553 53.7744 61.2285 53.5921 61.2773 53.374C61.3262 53.1559 61.3506 52.902 61.3506 52.6123V52.1094C61.3506 51.8197 61.3213 51.5674 61.2627 51.3525C61.2041 51.1344 61.1211 50.9521 61.0137 50.8057C60.9062 50.6559 60.7793 50.5452 60.6328 50.4736C60.4896 50.3988 60.3333 50.3613 60.1641 50.3613C59.998 50.3613 59.8434 50.3988 59.7002 50.4736C59.557 50.5452 59.4316 50.6559 59.3242 50.8057C59.2201 50.9521 59.1387 51.1344 59.0801 51.3525C59.0215 51.5674 58.9922 51.8197 58.9922 52.1094ZM20.3887 63.4756H19.5342V62.9189H20.3203C20.5091 62.9189 20.6572 62.888 20.7646 62.8262C20.8721 62.7611 20.9486 62.6715 20.9941 62.5576C21.0397 62.4437 21.0625 62.3102 21.0625 62.1572C21.0625 62.0205 21.0365 61.8919 20.9844 61.7715C20.9323 61.6478 20.8477 61.5485 20.7305 61.4736C20.6133 61.3955 20.457 61.3564 20.2617 61.3564C20.1022 61.3564 19.9574 61.3939 19.8271 61.4688C19.6969 61.5404 19.5944 61.6396 19.5195 61.7666C19.4447 61.8903 19.4072 62.0303 19.4072 62.1865H18.5479C18.5479 61.8643 18.6243 61.5876 18.7773 61.3564C18.9336 61.1221 19.1419 60.9414 19.4023 60.8145C19.6628 60.6875 19.9492 60.624 20.2617 60.624C20.5221 60.624 20.7549 60.6582 20.96 60.7266C21.165 60.7917 21.3392 60.8893 21.4824 61.0195C21.6257 61.1465 21.7347 61.306 21.8096 61.498C21.8877 61.6868 21.9268 61.9066 21.9268 62.1572C21.9268 62.3363 21.891 62.5055 21.8193 62.665C21.7477 62.8245 21.6452 62.9661 21.5117 63.0898C21.3783 63.2103 21.2155 63.3047 21.0234 63.373C20.8346 63.4414 20.623 63.4756 20.3887 63.4756ZM19.5342 63.1338H20.3887C20.6491 63.1338 20.8802 63.1647 21.082 63.2266C21.2839 63.2852 21.4531 63.373 21.5898 63.4902C21.7298 63.6074 21.834 63.7523 21.9023 63.9248C21.974 64.0941 22.0098 64.2894 22.0098 64.5107C22.0098 64.7581 21.9674 64.9811 21.8828 65.1797C21.7982 65.375 21.6777 65.541 21.5215 65.6777C21.3685 65.8145 21.1846 65.9186 20.9697 65.9902C20.7581 66.0618 20.5221 66.0977 20.2617 66.0977C19.9688 66.0977 19.6855 66.0391 19.4121 65.9219C19.1419 65.8047 18.9189 65.624 18.7432 65.3799C18.5674 65.1325 18.4795 64.8184 18.4795 64.4375H19.3389C19.3389 64.597 19.3763 64.7484 19.4512 64.8916C19.5293 65.0348 19.6367 65.1504 19.7734 65.2383C19.9134 65.3262 20.0762 65.3701 20.2617 65.3701C20.457 65.3701 20.6198 65.3311 20.75 65.2529C20.8802 65.1748 20.9779 65.0706 21.043 64.9404C21.1081 64.8102 21.1406 64.6686 21.1406 64.5156C21.1406 64.3171 21.1113 64.1576 21.0527 64.0371C20.9941 63.9167 20.9046 63.8288 20.7842 63.7734C20.6637 63.7148 20.5091 63.6855 20.3203 63.6855H19.5342V63.1338ZM25.7451 65.0967V62.2305C25.7451 62.0221 25.7126 61.8545 25.6475 61.7275C25.5856 61.6006 25.4912 61.5078 25.3643 61.4492C25.2406 61.3906 25.0843 61.3613 24.8955 61.3613C24.7132 61.3613 24.5553 61.3988 24.4219 61.4736C24.2917 61.5485 24.1908 61.6478 24.1191 61.7715C24.0508 61.8952 24.0166 62.0319 24.0166 62.1816H23.1523C23.1523 61.9928 23.193 61.8057 23.2744 61.6201C23.359 61.4346 23.4795 61.2669 23.6357 61.1172C23.792 60.9642 23.9792 60.8438 24.1973 60.7559C24.4186 60.6647 24.666 60.6191 24.9395 60.6191C25.265 60.6191 25.5531 60.6729 25.8037 60.7803C26.0544 60.8844 26.2513 61.0553 26.3945 61.293C26.5378 61.5306 26.6094 61.8464 26.6094 62.2402V64.8477C26.6094 65.0234 26.6224 65.2106 26.6484 65.4092C26.6777 65.6077 26.7184 65.7786 26.7705 65.9219V66H25.877C25.8346 65.8958 25.8021 65.7575 25.7793 65.585C25.7565 65.4092 25.7451 65.2464 25.7451 65.0967ZM25.8818 62.7969L25.8916 63.4316H25.291C25.0859 63.4316 24.8988 63.4544 24.7295 63.5C24.5635 63.5456 24.4202 63.6123 24.2998 63.7002C24.1794 63.7848 24.0866 63.8906 24.0215 64.0176C23.9596 64.1445 23.9287 64.2894 23.9287 64.4521C23.9287 64.6637 23.958 64.833 24.0166 64.96C24.0752 65.0837 24.1631 65.1732 24.2803 65.2285C24.3975 65.2839 24.5456 65.3115 24.7246 65.3115C24.9427 65.3115 25.1348 65.2611 25.3008 65.1602C25.4668 65.0592 25.5954 64.9372 25.6865 64.7939C25.7809 64.6507 25.8249 64.5173 25.8184 64.3936L26.0088 64.7988C25.9958 64.9258 25.9535 65.0641 25.8818 65.2139C25.8135 65.3604 25.7174 65.502 25.5938 65.6387C25.4701 65.7721 25.3236 65.8828 25.1543 65.9707C24.9883 66.0553 24.8011 66.0977 24.5928 66.0977C24.2868 66.0977 24.0182 66.0391 23.7871 65.9219C23.5592 65.8047 23.3818 65.6322 23.2549 65.4043C23.1279 65.1764 23.0645 64.8949 23.0645 64.5596C23.0645 64.3057 23.1084 64.0713 23.1963 63.8564C23.2842 63.6416 23.4144 63.4561 23.5869 63.2998C23.7594 63.1403 23.9759 63.0166 24.2363 62.9287C24.5 62.8408 24.8044 62.7969 25.1494 62.7969H25.8818ZM29.7832 65.3604C29.9557 65.3604 30.112 65.3262 30.252 65.2578C30.3952 65.1862 30.5124 65.0755 30.6035 64.9258C30.6947 64.7728 30.7467 64.5742 30.7598 64.3301H31.5703C31.5573 64.6816 31.4678 64.9909 31.3018 65.2578C31.139 65.5215 30.9242 65.7282 30.6572 65.8779C30.3936 66.0244 30.1022 66.0977 29.7832 66.0977C29.4414 66.0977 29.1436 66.0423 28.8896 65.9316C28.639 65.821 28.4307 65.6615 28.2646 65.4531C28.1019 65.2415 27.9798 64.986 27.8984 64.6865C27.8171 64.3838 27.7764 64.0404 27.7764 63.6562V63.0605C27.7764 62.6764 27.8171 62.3346 27.8984 62.0352C27.9798 61.7324 28.1019 61.4769 28.2646 61.2686C28.4307 61.057 28.639 60.8958 28.8896 60.7852C29.1436 60.6745 29.4414 60.6191 29.7832 60.6191C30.1413 60.6191 30.4505 60.6956 30.7109 60.8486C30.9746 60.9984 31.1797 61.2165 31.3262 61.5029C31.4759 61.7861 31.5573 62.1296 31.5703 62.5332H30.7598C30.7467 62.2728 30.6995 62.0563 30.6182 61.8838C30.5368 61.708 30.4261 61.5778 30.2861 61.4932C30.1462 61.4053 29.9785 61.3613 29.7832 61.3613C29.5553 61.3613 29.3665 61.402 29.2168 61.4834C29.0703 61.5615 28.9548 61.6755 28.8701 61.8252C28.7855 61.9749 28.7253 62.154 28.6895 62.3623C28.6569 62.5706 28.6406 62.8034 28.6406 63.0605V63.6562C28.6406 63.9134 28.6569 64.1478 28.6895 64.3594C28.7253 64.5677 28.7839 64.7467 28.8652 64.8965C28.9499 65.0462 29.0671 65.1618 29.2168 65.2432C29.3665 65.3213 29.5553 65.3604 29.7832 65.3604ZM32.3906 63.6123V63.1094C32.3906 62.6992 32.4427 62.3395 32.5469 62.0303C32.651 61.7178 32.7959 61.4574 32.9814 61.249C33.167 61.0407 33.3835 60.8844 33.6309 60.7803C33.8783 60.6729 34.1436 60.6191 34.4268 60.6191C34.7165 60.6191 34.985 60.6729 35.2324 60.7803C35.4798 60.8844 35.6963 61.0407 35.8818 61.249C36.0706 61.4574 36.2171 61.7178 36.3213 62.0303C36.4255 62.3395 36.4775 62.6992 36.4775 63.1094V63.6123C36.4775 64.0225 36.4255 64.3838 36.3213 64.6963C36.2171 65.0055 36.0723 65.2643 35.8867 65.4727C35.7012 65.681 35.4847 65.8372 35.2373 65.9414C34.9899 66.0456 34.723 66.0977 34.4365 66.0977C34.1501 66.0977 33.8831 66.0456 33.6357 65.9414C33.3883 65.8372 33.1702 65.681 32.9814 65.4727C32.7959 65.2643 32.651 65.0055 32.5469 64.6963C32.4427 64.3838 32.3906 64.0225 32.3906 63.6123ZM33.2549 63.1094V63.6123C33.2549 63.902 33.2842 64.1559 33.3428 64.374C33.4014 64.5921 33.4844 64.7744 33.5918 64.9209C33.6992 65.0674 33.8245 65.1781 33.9678 65.2529C34.111 65.3245 34.2673 65.3604 34.4365 65.3604C34.6318 65.3604 34.8027 65.3245 34.9492 65.2529C35.099 65.1781 35.2227 65.0674 35.3203 64.9209C35.418 64.7744 35.4912 64.5921 35.54 64.374C35.5889 64.1559 35.6133 63.902 35.6133 63.6123V63.1094C35.6133 62.8197 35.584 62.5674 35.5254 62.3525C35.4668 62.1344 35.3838 61.9521 35.2764 61.8057C35.1689 61.6559 35.042 61.5452 34.8955 61.4736C34.7523 61.3988 34.596 61.3613 34.4268 61.3613C34.2607 61.3613 34.1061 61.3988 33.9629 61.4736C33.8197 61.5452 33.6943 61.6559 33.5869 61.8057C33.4827 61.9521 33.4014 62.1344 33.3428 62.3525C33.2842 62.5674 33.2549 62.8197 33.2549 63.1094ZM40.4277 58.417H41.126C41.126 58.736 41.082 58.9899 40.9941 59.1787C40.9095 59.3643 40.7956 59.5075 40.6523 59.6084C40.5091 59.7093 40.3496 59.7858 40.1738 59.8379C39.998 59.89 39.819 59.9404 39.6367 59.9893C39.4089 60.0479 39.1956 60.1406 38.9971 60.2676C38.7985 60.3913 38.6276 60.5671 38.4844 60.7949C38.3444 61.0228 38.2419 61.319 38.1768 61.6836C38.1149 62.0482 38.1035 62.499 38.1426 63.0361V63.4854H37.4395V63.0361C37.4395 62.4339 37.4883 61.9082 37.5859 61.459C37.6836 61.0098 37.8219 60.6305 38.001 60.3213C38.18 60.012 38.3916 59.7663 38.6357 59.584C38.8799 59.4017 39.1501 59.2764 39.4463 59.208C39.6351 59.1592 39.8027 59.1071 39.9492 59.0518C40.099 58.9932 40.2161 58.915 40.3008 58.8174C40.3854 58.7197 40.4277 58.5863 40.4277 58.417ZM39.6025 61.0195C39.8923 61.0195 40.1494 61.0798 40.374 61.2002C40.5986 61.3206 40.7891 61.4883 40.9453 61.7031C41.1016 61.918 41.2204 62.1719 41.3018 62.4648C41.3831 62.7546 41.4238 63.0703 41.4238 63.4121V63.5195C41.4238 63.8874 41.3799 64.2292 41.292 64.5449C41.2041 64.8574 41.0739 65.1309 40.9014 65.3652C40.7321 65.5964 40.5238 65.777 40.2764 65.9072C40.029 66.0374 39.7474 66.1025 39.4316 66.1025C39.1159 66.1025 38.8343 66.0374 38.5869 65.9072C38.3428 65.777 38.1344 65.5964 37.9619 65.3652C37.7926 65.1309 37.6624 64.8574 37.5713 64.5449C37.4834 64.2292 37.4395 63.8874 37.4395 63.5195V63.4121C37.4395 63.3307 37.4541 63.251 37.4834 63.1729C37.5127 63.0947 37.5469 63.015 37.5859 62.9336C37.625 62.8522 37.6608 62.766 37.6934 62.6748C37.7943 62.3818 37.9342 62.11 38.1133 61.8594C38.2923 61.6087 38.5055 61.4069 38.7529 61.2539C39.0036 61.0977 39.2868 61.0195 39.6025 61.0195ZM39.4268 61.7568C39.1631 61.7568 38.9482 61.8333 38.7822 61.9863C38.6195 62.1393 38.499 62.3428 38.4209 62.5967C38.3428 62.8473 38.3037 63.1191 38.3037 63.4121V63.5195C38.3037 63.7669 38.3249 64.0013 38.3672 64.2227C38.4095 64.444 38.4762 64.641 38.5674 64.8135C38.6585 64.9827 38.7757 65.1162 38.9189 65.2139C39.0622 65.3115 39.2331 65.3604 39.4316 65.3604C39.6302 65.3604 39.7995 65.3115 39.9395 65.2139C40.0827 65.1162 40.1999 64.9827 40.291 64.8135C40.3822 64.641 40.4489 64.444 40.4912 64.2227C40.5368 64.0013 40.5596 63.7669 40.5596 63.5195V63.4121C40.5596 63.1908 40.5368 62.9808 40.4912 62.7822C40.4489 62.5837 40.3822 62.4079 40.291 62.2549C40.1999 62.1019 40.0827 61.9814 39.9395 61.8936C39.7962 61.8024 39.6253 61.7568 39.4268 61.7568ZM43.6699 65.4531L44.8467 60.7168H45.7646L44.0215 66.8154C43.9792 66.9456 43.9222 67.0856 43.8506 67.2354C43.7822 67.3883 43.6943 67.5332 43.5869 67.6699C43.4795 67.8066 43.3509 67.9173 43.2012 68.002C43.0514 68.0898 42.8757 68.1338 42.6738 68.1338C42.612 68.1338 42.5322 68.124 42.4346 68.1045C42.3402 68.085 42.2718 68.0687 42.2295 68.0557V67.3232C42.249 67.3265 42.2799 67.3298 42.3223 67.333C42.3646 67.3395 42.3955 67.3428 42.415 67.3428C42.5843 67.3428 42.7275 67.3151 42.8447 67.2598C42.9652 67.2077 43.0677 67.1182 43.1523 66.9912C43.237 66.8675 43.3086 66.6966 43.3672 66.4785L43.6699 65.4531ZM42.9082 60.7168L43.958 64.8184L44.1826 65.7705L43.5674 66.1025L41.9658 60.7168H42.9082Z" fill="url(#paint0_linear_363_3240)"/>
<path d="M115.932 40.8906V41.6621H113.139V48H112.24V40.8906H115.932ZM112.948 43.7861H114.564C115.004 43.7861 115.375 43.874 115.678 44.0498C115.984 44.2223 116.215 44.4648 116.371 44.7773C116.531 45.0898 116.61 45.4561 116.61 45.876C116.61 46.1885 116.565 46.4749 116.474 46.7354C116.386 46.9925 116.254 47.2171 116.078 47.4092C115.906 47.598 115.692 47.7445 115.438 47.8486C115.185 47.9495 114.893 48 114.564 48H112.24V40.8906H113.139V47.2334H114.564C114.838 47.2334 115.058 47.1699 115.224 47.043C115.393 46.9128 115.517 46.7435 115.595 46.5352C115.673 46.3268 115.712 46.1038 115.712 45.8662C115.712 45.6286 115.673 45.4105 115.595 45.2119C115.517 45.0133 115.393 44.8555 115.224 44.7383C115.058 44.6178 114.838 44.5576 114.564 44.5576H112.948V43.7861ZM118.573 42.7168V48H117.714V42.7168H118.573ZM117.665 41.3154C117.665 41.1689 117.706 41.0452 117.787 40.9443C117.868 40.8434 117.991 40.793 118.153 40.793C118.316 40.793 118.438 40.8434 118.52 40.9443C118.604 41.0452 118.646 41.1689 118.646 41.3154C118.646 41.4554 118.604 41.5758 118.52 41.6768C118.438 41.7744 118.316 41.8232 118.153 41.8232C117.991 41.8232 117.868 41.7744 117.787 41.6768C117.706 41.5758 117.665 41.4554 117.665 41.3154ZM122.89 42.7168V43.4639H120.785V42.7168H122.89ZM123.661 42.7168V48H122.802V42.7168H123.661ZM120.58 42.7168H121.444L121.322 45.2656C121.303 45.6595 121.27 46.0078 121.225 46.3105C121.182 46.61 121.122 46.8672 121.044 47.082C120.969 47.2969 120.875 47.4727 120.761 47.6094C120.65 47.7428 120.517 47.8421 120.36 47.9072C120.207 47.9691 120.03 48 119.828 48H119.569V47.2041L119.74 47.1895C119.854 47.1797 119.952 47.1471 120.033 47.0918C120.118 47.0365 120.186 46.9551 120.238 46.8477C120.294 46.737 120.338 46.5954 120.37 46.4229C120.406 46.2503 120.434 46.0452 120.453 45.8076C120.473 45.57 120.487 45.2933 120.497 44.9775L120.58 42.7168ZM125.976 42.7168V48H125.116V42.7168H125.976ZM125.067 41.3154C125.067 41.1689 125.108 41.0452 125.189 40.9443C125.271 40.8434 125.393 40.793 125.556 40.793C125.718 40.793 125.84 40.8434 125.922 40.9443C126.007 41.0452 126.049 41.1689 126.049 41.3154C126.049 41.4554 126.007 41.5758 125.922 41.6768C125.84 41.7744 125.718 41.8232 125.556 41.8232C125.393 41.8232 125.271 41.7744 125.189 41.6768C125.108 41.5758 125.067 41.4554 125.067 41.3154ZM130.351 45.0068V45.7393H128.109V45.0068H130.351ZM128.285 42.7168V48H127.421V42.7168H128.285ZM131.054 42.7168V48H130.189V42.7168H131.054ZM135.336 42.7168V43.4639H133.363V48H132.499V42.7168H135.336Z" fill="url(#paint1_linear_363_3240)"/>
<path d="M197.694 36.8906V44H196.796V37.6621H194.018V44H193.119V36.8906H197.694ZM201.059 44.0977C200.743 44.0977 200.458 44.0505 200.204 43.9561C199.95 43.8617 199.734 43.7184 199.555 43.5264C199.376 43.3311 199.239 43.0853 199.145 42.7891C199.05 42.4928 199.003 42.1429 199.003 41.7393V41.1436C199.003 40.6781 199.057 40.2842 199.164 39.9619C199.275 39.6396 199.423 39.3809 199.608 39.1855C199.794 38.987 200.004 38.8438 200.238 38.7559C200.473 38.6647 200.714 38.6191 200.961 38.6191C201.293 38.6191 201.576 38.6729 201.811 38.7803C202.045 38.8877 202.235 39.0472 202.382 39.2588C202.528 39.4704 202.636 39.7308 202.704 40.04C202.776 40.3493 202.812 40.7057 202.812 41.1094V41.6123H199.511V40.875H201.947V40.7529C201.934 40.4795 201.897 40.2386 201.835 40.0303C201.776 39.8219 201.679 39.6592 201.542 39.542C201.405 39.4215 201.212 39.3613 200.961 39.3613C200.801 39.3613 200.653 39.389 200.517 39.4443C200.383 39.4964 200.268 39.5892 200.17 39.7227C200.076 39.8529 200.001 40.0335 199.945 40.2646C199.893 40.4958 199.867 40.7887 199.867 41.1436V41.7393C199.867 42.0225 199.893 42.2666 199.945 42.4717C200.001 42.6735 200.08 42.8411 200.185 42.9746C200.292 43.1048 200.422 43.2025 200.575 43.2676C200.731 43.3294 200.909 43.3604 201.107 43.3604C201.397 43.3604 201.636 43.305 201.825 43.1943C202.014 43.0804 202.178 42.9355 202.318 42.7598L202.772 43.3018C202.678 43.4352 202.554 43.5638 202.401 43.6875C202.252 43.8079 202.066 43.9072 201.845 43.9854C201.627 44.0602 201.365 44.0977 201.059 44.0977ZM204.721 39.7324V46.0312H203.856V38.7168H204.643L204.721 39.7324ZM207.675 41.1191V41.6123C207.675 42.029 207.636 42.3936 207.558 42.7061C207.483 43.0153 207.37 43.2741 207.221 43.4824C207.074 43.6875 206.894 43.8421 206.679 43.9463C206.464 44.0472 206.218 44.0977 205.941 44.0977C205.665 44.0977 205.424 44.0456 205.219 43.9414C205.017 43.834 204.846 43.6794 204.706 43.4775C204.569 43.2757 204.46 43.0332 204.379 42.75C204.301 42.4635 204.247 42.1429 204.218 41.7881V41.0361C204.247 40.6618 204.301 40.3265 204.379 40.0303C204.457 39.7308 204.564 39.4769 204.701 39.2686C204.841 39.057 205.012 38.8958 205.214 38.7852C205.419 38.6745 205.658 38.6191 205.932 38.6191C206.215 38.6191 206.464 38.668 206.679 38.7656C206.897 38.8633 207.079 39.0146 207.226 39.2197C207.375 39.4215 207.488 39.6803 207.562 39.9961C207.637 40.3086 207.675 40.6829 207.675 41.1191ZM206.811 41.6123V41.1191C206.811 40.8262 206.788 40.5706 206.742 40.3525C206.7 40.1344 206.632 39.9538 206.537 39.8105C206.443 39.6673 206.324 39.5599 206.181 39.4883C206.037 39.4167 205.865 39.3809 205.663 39.3809C205.491 39.3809 205.338 39.4167 205.204 39.4883C205.074 39.5599 204.962 39.6576 204.867 39.7812C204.773 39.9017 204.695 40.04 204.633 40.1963C204.571 40.3493 204.525 40.5088 204.496 40.6748V42.1543C204.551 42.3626 204.625 42.5596 204.716 42.7451C204.807 42.9274 204.929 43.0755 205.082 43.1895C205.238 43.3034 205.435 43.3604 205.673 43.3604C205.871 43.3604 206.042 43.3245 206.186 43.2529C206.329 43.1813 206.446 43.0739 206.537 42.9307C206.632 42.7842 206.7 42.6019 206.742 42.3838C206.788 42.1624 206.811 41.9053 206.811 41.6123ZM210.678 44.0977C210.362 44.0977 210.077 44.0505 209.823 43.9561C209.569 43.8617 209.353 43.7184 209.174 43.5264C208.995 43.3311 208.858 43.0853 208.764 42.7891C208.669 42.4928 208.622 42.1429 208.622 41.7393V41.1436C208.622 40.6781 208.676 40.2842 208.783 39.9619C208.894 39.6396 209.042 39.3809 209.228 39.1855C209.413 38.987 209.623 38.8438 209.857 38.7559C210.092 38.6647 210.333 38.6191 210.58 38.6191C210.912 38.6191 211.195 38.6729 211.43 38.7803C211.664 38.8877 211.854 39.0472 212.001 39.2588C212.147 39.4704 212.255 39.7308 212.323 40.04C212.395 40.3493 212.431 40.7057 212.431 41.1094V41.6123H209.13V40.875H211.566V40.7529C211.553 40.4795 211.516 40.2386 211.454 40.0303C211.396 39.8219 211.298 39.6592 211.161 39.542C211.024 39.4215 210.831 39.3613 210.58 39.3613C210.421 39.3613 210.272 39.389 210.136 39.4443C210.002 39.4964 209.887 39.5892 209.789 39.7227C209.695 39.8529 209.62 40.0335 209.564 40.2646C209.512 40.4958 209.486 40.7887 209.486 41.1436V41.7393C209.486 42.0225 209.512 42.2666 209.564 42.4717C209.62 42.6735 209.7 42.8411 209.804 42.9746C209.911 43.1048 210.041 43.2025 210.194 43.2676C210.351 43.3294 210.528 43.3604 210.727 43.3604C211.016 43.3604 211.256 43.305 211.444 43.1943C211.633 43.0804 211.798 42.9355 211.938 42.7598L212.392 43.3018C212.297 43.4352 212.174 43.5638 212.021 43.6875C211.871 43.8079 211.685 43.9072 211.464 43.9854C211.246 44.0602 210.984 44.0977 210.678 44.0977ZM215.604 41.6758H214.193L214.184 40.9531H215.316C215.541 40.9531 215.727 40.9255 215.873 40.8701C216.023 40.8148 216.135 40.7318 216.21 40.6211C216.285 40.5104 216.322 40.3737 216.322 40.2109C216.322 40.084 216.301 39.9733 216.259 39.8789C216.216 39.7812 216.153 39.7015 216.068 39.6396C215.987 39.5745 215.884 39.5273 215.761 39.498C215.637 39.4655 215.492 39.4492 215.326 39.4492H214.413V44H213.554V38.7168H215.326C215.613 38.7168 215.87 38.7461 216.098 38.8047C216.329 38.8633 216.524 38.9528 216.684 39.0732C216.846 39.1904 216.97 39.3402 217.055 39.5225C217.143 39.7048 217.187 39.9196 217.187 40.167C217.187 40.3265 217.159 40.4779 217.104 40.6211C217.048 40.7643 216.965 40.8913 216.854 41.002C216.747 41.1126 216.614 41.2038 216.454 41.2754C216.295 41.3437 216.111 41.3877 215.902 41.4072L215.604 41.6758ZM215.604 44H213.871L214.315 43.2676H215.604C215.803 43.2676 215.966 43.2367 216.093 43.1748C216.22 43.1097 216.314 43.0186 216.376 42.9014C216.441 42.7809 216.474 42.6377 216.474 42.4717C216.474 42.3057 216.441 42.1641 216.376 42.0469C216.314 41.9264 216.22 41.8353 216.093 41.7734C215.966 41.7083 215.803 41.6758 215.604 41.6758H214.447L214.457 40.9531H215.888L216.19 41.2266C216.441 41.2493 216.651 41.321 216.82 41.4414C216.993 41.5618 217.121 41.7148 217.206 41.9004C217.294 42.0827 217.338 42.2812 217.338 42.4961C217.338 42.7435 217.299 42.9616 217.221 43.1504C217.143 43.3392 217.029 43.4971 216.879 43.624C216.729 43.7477 216.547 43.8421 216.332 43.9072C216.117 43.9691 215.875 44 215.604 44ZM219.442 38.7168V44H218.583V38.7168H219.442ZM218.534 37.3154C218.534 37.1689 218.575 37.0452 218.656 36.9443C218.738 36.8434 218.86 36.793 219.022 36.793C219.185 36.793 219.307 36.8434 219.389 36.9443C219.473 37.0452 219.516 37.1689 219.516 37.3154C219.516 37.4554 219.473 37.5758 219.389 37.6768C219.307 37.7744 219.185 37.8232 219.022 37.8232C218.86 37.8232 218.738 37.7744 218.656 37.6768C218.575 37.5758 218.534 37.4554 218.534 37.3154ZM221.674 39.7324V46.0312H220.81V38.7168H221.596L221.674 39.7324ZM224.628 41.1191V41.6123C224.628 42.029 224.589 42.3936 224.511 42.7061C224.436 43.0153 224.324 43.2741 224.174 43.4824C224.027 43.6875 223.847 43.8421 223.632 43.9463C223.417 44.0472 223.171 44.0977 222.895 44.0977C222.618 44.0977 222.377 44.0456 222.172 43.9414C221.97 43.834 221.799 43.6794 221.659 43.4775C221.522 43.2757 221.413 43.0332 221.332 42.75C221.254 42.4635 221.2 42.1429 221.171 41.7881V41.0361C221.2 40.6618 221.254 40.3265 221.332 40.0303C221.41 39.7308 221.518 39.4769 221.654 39.2686C221.794 39.057 221.965 38.8958 222.167 38.7852C222.372 38.6745 222.611 38.6191 222.885 38.6191C223.168 38.6191 223.417 38.668 223.632 38.7656C223.85 38.8633 224.032 39.0146 224.179 39.2197C224.328 39.4215 224.441 39.6803 224.516 39.9961C224.59 40.3086 224.628 40.6829 224.628 41.1191ZM223.764 41.6123V41.1191C223.764 40.8262 223.741 40.5706 223.695 40.3525C223.653 40.1344 223.585 39.9538 223.49 39.8105C223.396 39.6673 223.277 39.5599 223.134 39.4883C222.991 39.4167 222.818 39.3809 222.616 39.3809C222.444 39.3809 222.291 39.4167 222.157 39.4883C222.027 39.5599 221.915 39.6576 221.82 39.7812C221.726 39.9017 221.648 40.04 221.586 40.1963C221.524 40.3493 221.479 40.5088 221.449 40.6748V42.1543C221.505 42.3626 221.578 42.5596 221.669 42.7451C221.76 42.9274 221.882 43.0755 222.035 43.1895C222.191 43.3034 222.388 43.3604 222.626 43.3604C222.825 43.3604 222.995 43.3245 223.139 43.2529C223.282 43.1813 223.399 43.0739 223.49 42.9307C223.585 42.7842 223.653 42.6019 223.695 42.3838C223.741 42.1624 223.764 41.9053 223.764 41.6123ZM226.684 38.7168V44H225.819V38.7168H226.684ZM229.589 38.7168L227.465 41.7441H226.396L226.259 40.9531H227.113L228.554 38.7168H229.589ZM228.632 44L227.084 41.6074L227.636 40.9531L229.716 44H228.632ZM233.134 43.0967V40.2305C233.134 40.0221 233.101 39.8545 233.036 39.7275C232.974 39.6006 232.88 39.5078 232.753 39.4492C232.629 39.3906 232.473 39.3613 232.284 39.3613C232.102 39.3613 231.944 39.3988 231.811 39.4736C231.68 39.5485 231.579 39.6478 231.508 39.7715C231.439 39.8952 231.405 40.0319 231.405 40.1816H230.541C230.541 39.9928 230.582 39.8057 230.663 39.6201C230.748 39.4346 230.868 39.2669 231.024 39.1172C231.181 38.9642 231.368 38.8437 231.586 38.7559C231.807 38.6647 232.055 38.6191 232.328 38.6191C232.654 38.6191 232.942 38.6729 233.192 38.7803C233.443 38.8844 233.64 39.0553 233.783 39.293C233.926 39.5306 233.998 39.8464 233.998 40.2402V42.8477C233.998 43.0234 234.011 43.2106 234.037 43.4092C234.066 43.6077 234.107 43.7786 234.159 43.9219V44H233.266C233.223 43.8958 233.191 43.7575 233.168 43.585C233.145 43.4092 233.134 43.2464 233.134 43.0967ZM233.271 40.7969L233.28 41.4316H232.68C232.475 41.4316 232.287 41.4544 232.118 41.5C231.952 41.5456 231.809 41.6123 231.688 41.7002C231.568 41.7848 231.475 41.8906 231.41 42.0176C231.348 42.1445 231.317 42.2894 231.317 42.4521C231.317 42.6637 231.347 42.833 231.405 42.96C231.464 43.0837 231.552 43.1732 231.669 43.2285C231.786 43.2839 231.934 43.3115 232.113 43.3115C232.331 43.3115 232.523 43.2611 232.689 43.1602C232.855 43.0592 232.984 42.9372 233.075 42.7939C233.17 42.6507 233.214 42.5173 233.207 42.3936L233.397 42.7988C233.384 42.9258 233.342 43.0641 233.271 43.2139C233.202 43.3604 233.106 43.502 232.982 43.6387C232.859 43.7721 232.712 43.8828 232.543 43.9707C232.377 44.0553 232.19 44.0977 231.981 44.0977C231.675 44.0977 231.407 44.0391 231.176 43.9219C230.948 43.8047 230.771 43.6322 230.644 43.4043C230.517 43.1764 230.453 42.8949 230.453 42.5596C230.453 42.3057 230.497 42.0713 230.585 41.8564C230.673 41.6416 230.803 41.4561 230.976 41.2998C231.148 41.1403 231.365 41.0166 231.625 40.9287C231.889 40.8408 232.193 40.7969 232.538 40.7969H233.271ZM195.956 49.7168V55H195.092V49.7168H195.956ZM197.396 49.7168V50.4492H193.671V49.7168H197.396ZM200.824 54.0967V51.2305C200.824 51.0221 200.792 50.8545 200.727 50.7275C200.665 50.6006 200.57 50.5078 200.443 50.4492C200.32 50.3906 200.163 50.3613 199.975 50.3613C199.792 50.3613 199.634 50.3988 199.501 50.4736C199.371 50.5485 199.27 50.6478 199.198 50.7715C199.13 50.8952 199.096 51.0319 199.096 51.1816H198.231C198.231 50.9928 198.272 50.8057 198.354 50.6201C198.438 50.4346 198.559 50.2669 198.715 50.1172C198.871 49.9642 199.058 49.8438 199.276 49.7559C199.498 49.6647 199.745 49.6191 200.019 49.6191C200.344 49.6191 200.632 49.6729 200.883 49.7803C201.133 49.8844 201.33 50.0553 201.474 50.293C201.617 50.5306 201.688 50.8464 201.688 51.2402V53.8477C201.688 54.0234 201.701 54.2106 201.728 54.4092C201.757 54.6077 201.798 54.7786 201.85 54.9219V55H200.956C200.914 54.8958 200.881 54.7575 200.858 54.585C200.836 54.4092 200.824 54.2464 200.824 54.0967ZM200.961 51.7969L200.971 52.4316H200.37C200.165 52.4316 199.978 52.4544 199.809 52.5C199.643 52.5456 199.499 52.6123 199.379 52.7002C199.258 52.7848 199.166 52.8906 199.101 53.0176C199.039 53.1445 199.008 53.2894 199.008 53.4521C199.008 53.6637 199.037 53.833 199.096 53.96C199.154 54.0837 199.242 54.1732 199.359 54.2285C199.477 54.2839 199.625 54.3115 199.804 54.3115C200.022 54.3115 200.214 54.2611 200.38 54.1602C200.546 54.0592 200.674 53.9372 200.766 53.7939C200.86 53.6507 200.904 53.5173 200.897 53.3936L201.088 53.7988C201.075 53.9258 201.033 54.0641 200.961 54.2139C200.893 54.3604 200.797 54.502 200.673 54.6387C200.549 54.7721 200.403 54.8828 200.233 54.9707C200.067 55.0553 199.88 55.0977 199.672 55.0977C199.366 55.0977 199.097 55.0391 198.866 54.9219C198.638 54.8047 198.461 54.6322 198.334 54.4043C198.207 54.1764 198.144 53.8949 198.144 53.5596C198.144 53.3057 198.188 53.0713 198.275 52.8564C198.363 52.6416 198.493 52.4561 198.666 52.2998C198.839 52.1403 199.055 52.0166 199.315 51.9287C199.579 51.8408 199.883 51.7969 200.229 51.7969H200.961ZM205.146 52.6123V52.1094C205.146 51.6992 205.198 51.3395 205.302 51.0303C205.406 50.7178 205.551 50.4574 205.736 50.249C205.922 50.0407 206.138 49.8844 206.386 49.7803C206.633 49.6729 206.898 49.6191 207.182 49.6191C207.471 49.6191 207.74 49.6729 207.987 49.7803C208.235 49.8844 208.451 50.0407 208.637 50.249C208.826 50.4574 208.972 50.7178 209.076 51.0303C209.18 51.3395 209.232 51.6992 209.232 52.1094V52.6123C209.232 53.0225 209.18 53.3838 209.076 53.6963C208.972 54.0055 208.827 54.2643 208.642 54.4727C208.456 54.681 208.24 54.8372 207.992 54.9414C207.745 55.0456 207.478 55.0977 207.191 55.0977C206.905 55.0977 206.638 55.0456 206.391 54.9414C206.143 54.8372 205.925 54.681 205.736 54.4727C205.551 54.2643 205.406 54.0055 205.302 53.6963C205.198 53.3838 205.146 53.0225 205.146 52.6123ZM206.01 52.1094V52.6123C206.01 52.902 206.039 53.1559 206.098 53.374C206.156 53.5921 206.239 53.7744 206.347 53.9209C206.454 54.0674 206.579 54.1781 206.723 54.2529C206.866 54.3245 207.022 54.3604 207.191 54.3604C207.387 54.3604 207.558 54.3245 207.704 54.2529C207.854 54.1781 207.978 54.0674 208.075 53.9209C208.173 53.7744 208.246 53.5921 208.295 53.374C208.344 53.1559 208.368 52.902 208.368 52.6123V52.1094C208.368 51.8197 208.339 51.5674 208.28 51.3525C208.222 51.1344 208.139 50.9521 208.031 50.8057C207.924 50.6559 207.797 50.5452 207.65 50.4736C207.507 50.3988 207.351 50.3613 207.182 50.3613C207.016 50.3613 206.861 50.3988 206.718 50.4736C206.575 50.5452 206.449 50.6559 206.342 50.8057C206.238 50.9521 206.156 51.1344 206.098 51.3525C206.039 51.5674 206.01 51.8197 206.01 52.1094ZM213.285 49.7168V50.4639H211.176V49.7168H213.285ZM211.288 49.7168V55H210.424V49.7168H211.288ZM214.062 49.7168V55H213.197V49.7168H214.062ZM218.393 49.7168V50.4639H216.288V49.7168H218.393ZM219.164 49.7168V55H218.305V49.7168H219.164ZM216.083 49.7168H216.947L216.825 52.2656C216.806 52.6595 216.773 53.0078 216.728 53.3105C216.685 53.61 216.625 53.8672 216.547 54.082C216.472 54.2969 216.378 54.4727 216.264 54.6094C216.153 54.7428 216.02 54.8421 215.863 54.9072C215.71 54.9691 215.533 55 215.331 55H215.072V54.2041L215.243 54.1895C215.357 54.1797 215.455 54.1471 215.536 54.0918C215.621 54.0365 215.689 53.9551 215.741 53.8477C215.797 53.737 215.84 53.5954 215.873 53.4229C215.909 53.2503 215.937 53.0452 215.956 52.8076C215.976 52.57 215.99 52.2933 216 51.9775L216.083 49.7168ZM223.139 54.0967V51.2305C223.139 51.0221 223.106 50.8545 223.041 50.7275C222.979 50.6006 222.885 50.5078 222.758 50.4492C222.634 50.3906 222.478 50.3613 222.289 50.3613C222.107 50.3613 221.949 50.3988 221.815 50.4736C221.685 50.5485 221.584 50.6478 221.513 50.7715C221.444 50.8952 221.41 51.0319 221.41 51.1816L220.546 51.1816C220.546 50.9928 220.587 50.8057 220.668 50.6201C220.753 50.4346 220.873 50.2669 221.029 50.1172C221.186 49.9642 221.373 49.8437 221.591 49.7559C221.812 49.6647 222.06 49.6191 222.333 49.6191C222.659 49.6191 222.947 49.6729 223.197 49.7803C223.448 49.8844 223.645 50.0553 223.788 50.293C223.931 50.5306 224.003 50.8464 224.003 51.2402V53.8477C224.003 54.0234 224.016 54.2106 224.042 54.4092C224.071 54.6077 224.112 54.7786 224.164 54.9219V55H223.271C223.228 54.8958 223.196 54.7575 223.173 54.585C223.15 54.4092 223.139 54.2464 223.139 54.0967ZM223.275 51.7969L223.285 52.4316H222.685C222.479 52.4316 222.292 52.4544 222.123 52.5C221.957 52.5456 221.814 52.6123 221.693 52.7002C221.573 52.7848 221.48 52.8906 221.415 53.0176C221.353 53.1445 221.322 53.2894 221.322 53.4521C221.322 53.6637 221.352 53.833 221.41 53.96C221.469 54.0837 221.557 54.1732 221.674 54.2285C221.791 54.2839 221.939 54.3115 222.118 54.3115C222.336 54.3115 222.528 54.2611 222.694 54.1602C222.86 54.0592 222.989 53.9372 223.08 53.7939C223.174 53.6507 223.218 53.5173 223.212 53.3936L223.402 53.7988C223.389 53.9258 223.347 54.0641 223.275 54.2139C223.207 54.3604 223.111 54.502 222.987 54.6387C222.864 54.7721 222.717 54.8828 222.548 54.9707C222.382 55.0553 222.195 55.0977 221.986 55.0977C221.68 55.0977 221.412 55.0391 221.181 54.9219C220.953 54.8047 220.775 54.6322 220.648 54.4043C220.521 54.1764 220.458 53.8949 220.458 53.5596C220.458 53.3057 220.502 53.0713 220.59 52.8564C220.678 52.6416 220.808 52.4561 220.98 52.2998C221.153 52.1403 221.369 52.0166 221.63 51.9287C221.894 51.8408 222.198 51.7969 222.543 51.7969H223.275ZM227.167 49.7168V55H226.303V49.7168H227.167ZM228.607 49.7168V50.4492H224.882V49.7168H228.607ZM232.035 54.0967V51.2305C232.035 51.0221 232.003 50.8545 231.938 50.7275C231.876 50.6006 231.781 50.5078 231.654 50.4492C231.531 50.3906 231.374 50.3613 231.186 50.3613C231.003 50.3613 230.845 50.3988 230.712 50.4736C230.582 50.5485 230.481 50.6478 230.409 50.7715C230.341 50.8952 230.307 51.0319 230.307 51.1816H229.442C229.442 50.9928 229.483 50.8057 229.564 50.6201C229.649 50.4346 229.77 50.2669 229.926 50.1172C230.082 49.9642 230.269 49.8437 230.487 49.7559C230.709 49.6647 230.956 49.6191 231.229 49.6191C231.555 49.6191 231.843 49.6729 232.094 49.7803C232.344 49.8844 232.541 50.0553 232.685 50.293C232.828 50.5306 232.899 50.8464 232.899 51.2402V53.8477C232.899 54.0234 232.912 54.2106 232.938 54.4092C232.968 54.6077 233.008 54.7786 233.061 54.9219V55H232.167C232.125 54.8958 232.092 54.7575 232.069 54.585C232.047 54.4092 232.035 54.2464 232.035 54.0967ZM232.172 51.7969L232.182 52.4316H231.581C231.376 52.4316 231.189 52.4544 231.02 52.5C230.854 52.5456 230.71 52.6123 230.59 52.7002C230.469 52.7848 230.377 52.8906 230.312 53.0176C230.25 53.1445 230.219 53.2894 230.219 53.4521C230.219 53.6637 230.248 53.833 230.307 53.96C230.365 54.0837 230.453 54.1732 230.57 54.2285C230.688 54.2839 230.836 54.3115 231.015 54.3115C231.233 54.3115 231.425 54.2611 231.591 54.1602C231.757 54.0592 231.885 53.9372 231.977 53.7939C232.071 53.6507 232.115 53.5173 232.108 53.3936L232.299 53.7988C232.286 53.9258 232.243 54.0641 232.172 54.2139C232.104 54.3604 232.007 54.502 231.884 54.6387C231.76 54.7721 231.614 54.8828 231.444 54.9707C231.278 55.0553 231.091 55.0977 230.883 55.0977C230.577 55.0977 230.308 55.0391 230.077 54.9219C229.849 54.8047 229.672 54.6322 229.545 54.4043C229.418 54.1764 229.354 53.8949 229.354 53.5596C229.354 53.3057 229.398 53.0713 229.486 52.8564C229.574 52.6416 229.704 52.4561 229.877 52.2998C230.049 52.1403 230.266 52.0166 230.526 51.9287C230.79 51.8408 231.094 51.7969 231.439 51.7969H232.172Z" fill="#E0E0E9"/>
<path fill-rule="evenodd" clip-rule="evenodd" d="M203 16L136 16V14L203 14V16Z" fill="#D0CFD7"/>
<path fill-rule="evenodd" clip-rule="evenodd" d="M110 16L43 16V14L110 14V16Z" fill="url(#paint2_linear_363_3240)"/>
<path fill-rule="evenodd" clip-rule="evenodd" d="M17.7612 6.17317C17 8.01088 17 10.3406 17 15C17 19.6594 17 21.9891 17.7612 23.8268C18.7761 26.2771 20.7229 28.2239 23.1732 29.2388C25.0109 30 27.3406 30 32 30C36.6594 30 38.9891 30 40.8268 29.2388C43.2771 28.2239 45.2239 26.2771 46.2388 23.8268C47 21.9891 47 19.6594 47 15C47 10.3406 47 8.01088 46.2388 6.17317C45.2239 3.72288 43.2771 1.77614 40.8268 0.761205C38.9891 0 36.6594 0 32 0C27.3406 0 25.0109 0 23.1732 0.761205C20.7229 1.77614 18.7761 3.72288 17.7612 6.17317ZM38.7071 11.7071C39.0976 11.3166 39.0976 10.6834 38.7071 10.2929C38.3166 9.90237 37.6834 9.90237 37.2929 10.2929L30 17.5858L26.7071 14.2929C26.3166 13.9024 25.6834 13.9024 25.2929 14.2929C24.9024 14.6834 24.9024 15.3166 25.2929 15.7071L29.2929 19.7071C29.4804 19.8946 29.7348 20 30 20C30.2652 20 30.5196 19.8946 30.7071 19.7071L38.7071 11.7071Z" fill="url(#paint3_linear_363_3240)"/>
<path fill-rule="evenodd" clip-rule="evenodd" d="M108.761 6.17317C108 8.01088 108 10.3406 108 15C108 19.6594 108 21.9891 108.761 23.8268C109.776 26.2771 111.723 28.2239 114.173 29.2388C116.011 30 118.341 30 123 30C127.659 30 129.989 30 131.827 29.2388C134.277 28.2239 136.224 26.2771 137.239 23.8268C138 21.9891 138 19.6594 138 15C138 10.3406 138 8.01088 137.239 6.17317C136.224 3.72288 134.277 1.77614 131.827 0.761205C129.989 0 127.659 0 123 0C118.341 0 116.011 0 114.173 0.761205C111.723 1.77614 109.776 3.72288 108.761 6.17317ZM129.707 11.7071C130.098 11.3166 130.098 10.6834 129.707 10.2929C129.317 9.90237 128.683 9.90237 128.293 10.2929L121 17.5858L117.707 14.2929C117.317 13.9024 116.683 13.9024 116.293 14.2929C115.902 14.6834 115.902 15.3166 116.293 15.7071L120.293 19.7071C120.48 19.8946 120.735 20 121 20C121.265 20 121.52 19.8946 121.707 19.7071L129.707 11.7071Z" fill="url(#paint4_linear_363_3240)"/>
<path fill-rule="evenodd" clip-rule="evenodd" d="M199.761 6.17317C199 8.01088 199 10.3406 199 15C199 19.6594 199 21.9891 199.761 23.8268C200.776 26.2771 202.723 28.2239 205.173 29.2388C207.011 30 209.341 30 214 30C218.659 30 220.989 30 222.827 29.2388C225.277 28.2239 227.224 26.2771 228.239 23.8268C229 21.9891 229 19.6594 229 15C229 10.3406 229 8.01088 228.239 6.17317C227.224 3.72288 225.277 1.77614 222.827 0.761205C220.989 0 218.659 0 214 0C209.341 0 207.011 0 205.173 0.761205C202.723 1.77614 200.776 3.72288 199.761 6.17317ZM220.707 11.7071C221.098 11.3166 221.098 10.6834 220.707 10.2929C220.317 9.90237 219.683 9.90237 219.293 10.2929L212 17.5858L208.707 14.2929C208.317 13.9024 207.683 13.9024 207.293 14.2929C206.902 14.6834 206.902 15.3166 207.293 15.7071L211.293 19.7071C211.48 19.8946 211.735 20 212 20C212.265 20 212.52 19.8946 212.707 19.7071L220.707 11.7071Z" fill="#D0CFD7"/>
<defs>
<linearGradient id="paint0_linear_363_3240" x1="32" y1="68" x2="32" y2="35" gradientUnits="userSpaceOnUse">
<stop stop-color="#5CCC94"/>
<stop offset="1" stop-color="#8CCAAE"/>
</linearGradient>
<linearGradient id="paint1_linear_363_3240" x1="123.5" y1="55" x2="123.5" y2="35" gradientUnits="userSpaceOnUse">
<stop stop-color="#5CCC94"/>
<stop offset="1" stop-color="#8CCAAE"/>
</linearGradient>
<linearGradient id="paint2_linear_363_3240" x1="76.5" y1="16" x2="76.5" y2="14" gradientUnits="userSpaceOnUse">
<stop stop-color="#5CCC94"/>
<stop offset="1" stop-color="#8CCAAE"/>
</linearGradient>
<linearGradient id="paint3_linear_363_3240" x1="32" y1="30" x2="32" y2="1.58545e-07" gradientUnits="userSpaceOnUse">
<stop stop-color="#5CCC94"/>
<stop offset="1" stop-color="#8CCAAE"/>
</linearGradient>
<linearGradient id="paint4_linear_363_3240" x1="123" y1="30" x2="123" y2="1.58545e-07" gradientUnits="userSpaceOnUse">
<stop stop-color="#5CCC94"/>
<stop offset="1" stop-color="#8CCAAE"/>
</linearGradient>
</defs>
</svg>
