<svg width="239" height="58" viewBox="0 0 239 58" fill="none" xmlns="http://www.w3.org/2000/svg">
<path d="M14.6758 36.8906L14.6758 44H13.7725L10.9258 38.5166L10.9258 44H10.0273L10.0273 36.8906H10.9258L13.7871 42.3887L13.7871 36.8906H14.6758ZM18.7822 42.7793V38.7168H19.6465V44H18.8262L18.7822 42.7793ZM18.9434 41.666L19.2852 41.6562C19.2852 42.0078 19.2542 42.3333 19.1924 42.6328C19.1338 42.929 19.0361 43.1862 18.8994 43.4043C18.766 43.6224 18.5885 43.7933 18.3672 43.917C18.1458 44.0374 17.874 44.0977 17.5518 44.0977C17.3337 44.0977 17.1351 44.0602 16.9561 43.9854C16.7803 43.9105 16.6273 43.7949 16.4971 43.6387C16.3701 43.4824 16.2708 43.279 16.1992 43.0283C16.1309 42.7777 16.0967 42.4766 16.0967 42.125V38.7168H16.9561V42.1348C16.9561 42.3724 16.9772 42.5693 17.0195 42.7256C17.0618 42.8786 17.1188 43.0007 17.1904 43.0918C17.262 43.1797 17.3418 43.2415 17.4297 43.2773C17.5176 43.3132 17.6071 43.3311 17.6982 43.3311C18.0042 43.3311 18.2484 43.2578 18.4307 43.1113C18.613 42.9616 18.7432 42.7614 18.8213 42.5107C18.9027 42.2568 18.9434 41.9753 18.9434 41.666ZM21.8096 39.7666V44H20.9502V38.7168H21.7607L21.8096 39.7666ZM21.6338 41.1582L21.2334 41.1436C21.2301 40.7822 21.266 40.4486 21.3408 40.1426C21.4157 39.8333 21.528 39.5648 21.6777 39.3369C21.8307 39.109 22.0212 38.9333 22.249 38.8096C22.4801 38.6826 22.7487 38.6191 23.0547 38.6191C23.2565 38.6191 23.4437 38.6549 23.6162 38.7266C23.792 38.7949 23.945 38.904 24.0752 39.0537C24.2054 39.2035 24.3063 39.3955 24.3779 39.6299C24.4528 39.8643 24.4902 40.1475 24.4902 40.4795V44H23.626V40.5234C23.626 40.2467 23.5885 40.0254 23.5137 39.8594C23.4421 39.6934 23.3395 39.5729 23.2061 39.498C23.0726 39.4199 22.9131 39.3809 22.7275 39.3809C22.516 39.3809 22.3385 39.4281 22.1953 39.5225C22.0553 39.6169 21.943 39.7471 21.8584 39.9131C21.777 40.0791 21.7184 40.2695 21.6826 40.4844C21.6501 40.696 21.6338 40.9206 21.6338 41.1582ZM24.4805 40.6602L23.9043 40.8457C23.901 40.556 23.9368 40.2777 24.0117 40.0107C24.0866 39.7438 24.1973 39.5062 24.3438 39.2979C24.4935 39.0895 24.679 38.9251 24.9004 38.8047C25.1217 38.681 25.3789 38.6191 25.6719 38.6191C25.9128 38.6191 26.126 38.6566 26.3115 38.7314C26.4971 38.8063 26.6533 38.9219 26.7803 39.0781C26.9105 39.2311 27.0081 39.4281 27.0732 39.6689C27.1383 39.9098 27.1709 40.1963 27.1709 40.5283V44H26.3066V40.5186C26.3066 40.2223 26.2692 39.9928 26.1943 39.8301C26.1227 39.6641 26.0202 39.5485 25.8867 39.4834C25.7533 39.415 25.5938 39.3809 25.4082 39.3809C25.2585 39.3809 25.125 39.415 25.0078 39.4834C24.8939 39.5518 24.7979 39.6462 24.7197 39.7666C24.6416 39.8838 24.5814 40.0189 24.5391 40.1719C24.5 40.3249 24.4805 40.4876 24.4805 40.6602ZM31.0625 43.0967V40.2305C31.0625 40.0221 31.0299 39.8545 30.9648 39.7275C30.903 39.6006 30.8086 39.5078 30.6816 39.4492C30.5579 39.3906 30.4017 39.3613 30.2129 39.3613C30.0306 39.3613 29.8727 39.3988 29.7393 39.4736C29.609 39.5485 29.5081 39.6478 29.4365 39.7715C29.3682 39.8952 29.334 40.0319 29.334 40.1816H28.4697C28.4697 39.9928 28.5104 39.8057 28.5918 39.6201C28.6764 39.4346 28.7969 39.2669 28.9531 39.1172C29.1094 38.9642 29.2965 38.8437 29.5146 38.7559C29.736 38.6647 29.9834 38.6191 30.2568 38.6191C30.5824 38.6191 30.8704 38.6729 31.1211 38.7803C31.3717 38.8844 31.5687 39.0553 31.7119 39.293C31.8551 39.5306 31.9268 39.8464 31.9268 40.2402V42.8477C31.9268 43.0234 31.9398 43.2106 31.9658 43.4092C31.9951 43.6077 32.0358 43.7786 32.0879 43.9219V44H31.1943C31.152 43.8958 31.1195 43.7575 31.0967 43.585C31.0739 43.4092 31.0625 43.2464 31.0625 43.0967ZM31.1992 40.7969L31.209 41.4316H30.6084C30.4033 41.4316 30.2161 41.4544 30.0469 41.5C29.8809 41.5456 29.7376 41.6123 29.6172 41.7002C29.4967 41.7848 29.404 41.8906 29.3389 42.0176C29.277 42.1445 29.2461 42.2894 29.2461 42.4521C29.2461 42.6637 29.2754 42.833 29.334 42.96C29.3926 43.0837 29.4805 43.1732 29.5977 43.2285C29.7148 43.2839 29.863 43.3115 30.042 43.3115C30.2601 43.3115 30.4521 43.2611 30.6182 43.1602C30.7842 43.0592 30.9128 42.9372 31.0039 42.7939C31.0983 42.6507 31.1423 42.5173 31.1357 42.3936L31.3262 42.7988C31.3132 42.9258 31.2708 43.0641 31.1992 43.2139C31.1309 43.3604 31.0348 43.502 30.9111 43.6387C30.7874 43.7721 30.641 43.8828 30.4717 43.9707C30.3057 44.0553 30.1185 44.0977 29.9102 44.0977C29.6042 44.0977 29.3356 44.0391 29.1045 43.9219C28.8766 43.8047 28.6992 43.6322 28.5723 43.4043C28.4453 43.1764 28.3818 42.8949 28.3818 42.5596C28.3818 42.3057 28.4258 42.0713 28.5137 41.8564C28.6016 41.6416 28.7318 41.4561 28.9043 41.2998C29.0768 41.1403 29.2933 41.0166 29.5537 40.9287C29.8174 40.8408 30.1217 40.7969 30.4668 40.7969H31.1992ZM31.0381 36.7002H31.7705C31.7705 36.9541 31.7119 37.1803 31.5947 37.3789C31.4775 37.5742 31.3099 37.7272 31.0918 37.8379C30.8737 37.9486 30.6149 38.0039 30.3154 38.0039C29.863 38.0039 29.5049 37.8835 29.2412 37.6426C28.9808 37.3984 28.8506 37.0843 28.8506 36.7002H29.583C29.583 36.8923 29.6383 37.0615 29.749 37.208C29.8597 37.3545 30.0485 37.4277 30.3154 37.4277C30.5758 37.4277 30.7614 37.3545 30.8721 37.208C30.9827 37.0615 31.0381 36.8923 31.0381 36.7002ZM34.1338 39.5469V44H33.2695V38.7168H34.1045L34.1338 39.5469ZM35.4473 38.6875L35.4521 39.5273C35.3805 39.5111 35.3154 39.5013 35.2568 39.498C35.2015 39.4915 35.1364 39.4883 35.0615 39.4883C34.8988 39.4883 34.7555 39.5208 34.6318 39.5859C34.5114 39.651 34.4072 39.7422 34.3193 39.8594C34.2314 39.9766 34.1615 40.1165 34.1094 40.2793C34.0573 40.4388 34.0215 40.6146 34.002 40.8066L33.7773 40.9531C33.7773 40.6341 33.8018 40.3346 33.8506 40.0547C33.9027 39.7747 33.9824 39.5273 34.0898 39.3125C34.1973 39.0944 34.334 38.9251 34.5 38.8047C34.6693 38.681 34.8711 38.6191 35.1055 38.6191C35.1576 38.6191 35.221 38.6273 35.2959 38.6436C35.374 38.6566 35.4245 38.6712 35.4473 38.6875ZM38.9873 42.7793V38.7168H39.8516V44H39.0312L38.9873 42.7793ZM39.1484 41.666L39.4902 41.6562C39.4902 42.0078 39.4593 42.3333 39.3975 42.6328C39.3389 42.929 39.2412 43.1862 39.1045 43.4043C38.971 43.6224 38.7936 43.7933 38.5723 43.917C38.3509 44.0374 38.0791 44.0977 37.7568 44.0977C37.5387 44.0977 37.3402 44.0602 37.1611 43.9854C36.9854 43.9105 36.8324 43.7949 36.7021 43.6387C36.5752 43.4824 36.4759 43.279 36.4043 43.0283C36.3359 42.7777 36.3018 42.4766 36.3018 42.125V38.7168H37.1611V42.1348C37.1611 42.3724 37.1823 42.5693 37.2246 42.7256C37.2669 42.8786 37.3239 43.0007 37.3955 43.0918C37.4671 43.1797 37.5469 43.2415 37.6348 43.2773C37.7227 43.3132 37.8122 43.3311 37.9033 43.3311C38.2093 43.3311 38.4535 43.2578 38.6357 43.1113C38.818 42.9616 38.9482 42.7614 39.0264 42.5107C39.1077 42.2568 39.1484 41.9753 39.1484 41.666ZM42.0781 36.5V44H41.2188V36.5H42.0781ZM48.5088 42.9746V36.5H49.3682V44H48.582L48.5088 42.9746ZM45.5547 41.6123V41.1191C45.5547 40.6829 45.597 40.3086 45.6816 39.9961C45.7663 39.6803 45.8867 39.4215 46.043 39.2197C46.1992 39.0146 46.3864 38.8633 46.6045 38.7656C46.8226 38.668 47.0635 38.6191 47.3271 38.6191C47.6006 38.6191 47.835 38.6745 48.0303 38.7852C48.2288 38.8958 48.3949 39.057 48.5283 39.2686C48.6618 39.4769 48.766 39.7308 48.8408 40.0303C48.9189 40.3265 48.971 40.6618 48.9971 41.0361V41.6953C48.9678 42.0664 48.9141 42.4001 48.8359 42.6963C48.7611 42.9925 48.6569 43.2448 48.5234 43.4531C48.39 43.6615 48.224 43.821 48.0254 43.9316C47.8268 44.0423 47.5908 44.0977 47.3174 44.0977C47.057 44.0977 46.8193 44.0472 46.6045 43.9463C46.3896 43.8421 46.2025 43.6875 46.043 43.4824C45.8867 43.2741 45.7663 43.0153 45.6816 42.7061C45.597 42.3936 45.5547 42.029 45.5547 41.6123ZM46.4189 41.1191V41.6123C46.4189 41.9053 46.4401 42.1608 46.4824 42.3789C46.5247 42.5937 46.5915 42.7728 46.6826 42.916C46.7738 43.056 46.8893 43.1602 47.0293 43.2285C47.1725 43.2969 47.3434 43.3311 47.542 43.3311C47.7829 43.3311 47.9798 43.2725 48.1328 43.1553C48.2858 43.0381 48.4079 42.8835 48.499 42.6914C48.5934 42.4961 48.6683 42.2861 48.7236 42.0615V40.6748C48.6911 40.5088 48.6439 40.3493 48.582 40.1963C48.5202 40.04 48.4421 39.9017 48.3477 39.7812C48.2565 39.6576 48.1442 39.5599 48.0107 39.4883C47.8805 39.4167 47.7275 39.3809 47.5518 39.3809C47.3532 39.3809 47.1807 39.4167 47.0342 39.4883C46.891 39.5599 46.7738 39.6673 46.6826 39.8105C46.5947 39.9538 46.528 40.1344 46.4824 40.3525C46.4401 40.5706 46.4189 40.8262 46.4189 41.1191ZM52.5908 44.0977C52.2751 44.0977 51.9902 44.0505 51.7363 43.9561C51.4824 43.8617 51.266 43.7184 51.0869 43.5264C50.9079 43.3311 50.7712 43.0853 50.6768 42.7891C50.5824 42.4928 50.5352 42.1429 50.5352 41.7393V41.1436C50.5352 40.6781 50.5889 40.2842 50.6963 39.9619C50.807 39.6396 50.9551 39.3809 51.1406 39.1855C51.3262 38.987 51.5361 38.8437 51.7705 38.7559C52.0049 38.6647 52.2458 38.6191 52.4932 38.6191C52.8252 38.6191 53.1084 38.6729 53.3428 38.7803C53.5771 38.8877 53.7676 39.0472 53.9141 39.2588C54.0605 39.4704 54.168 39.7308 54.2363 40.04C54.3079 40.3493 54.3438 40.7057 54.3438 41.1094V41.6123H51.043V40.875H53.4795V40.7529C53.4665 40.4795 53.429 40.2386 53.3672 40.0303C53.3086 39.8219 53.2109 39.6592 53.0742 39.542C52.9375 39.4215 52.7438 39.3613 52.4932 39.3613C52.3337 39.3613 52.1855 39.389 52.0488 39.4443C51.9154 39.4964 51.7998 39.5892 51.7021 39.7227C51.6077 39.8529 51.5329 40.0335 51.4775 40.2646C51.4255 40.4958 51.3994 40.7887 51.3994 41.1436V41.7393C51.3994 42.0225 51.4255 42.2666 51.4775 42.4717C51.5329 42.6735 51.6126 42.8411 51.7168 42.9746C51.8242 43.1048 51.9544 43.2025 52.1074 43.2676C52.2637 43.3294 52.4411 43.3604 52.6396 43.3604C52.9294 43.3604 53.1686 43.305 53.3574 43.1943C53.5462 43.0804 53.7106 42.9355 53.8506 42.7598L54.3047 43.3018C54.2103 43.4352 54.0866 43.5638 53.9336 43.6875C53.7839 43.8079 53.5983 43.9072 53.377 43.9854C53.1589 44.0602 52.8968 44.0977 52.5908 44.0977ZM7.58105 49.7168L7.58105 55H6.7168L6.7168 49.7168H7.58105ZM7.4248 47.5098L8.4502 48.8428V48.8916H7.75195L7.16602 48.0664L6.58496 48.8916H5.8916V48.8379L6.90723 47.5098H7.4248ZM9.86621 50.8447L9.86621 55H9.00195L9.00195 49.7168H9.81738L9.86621 50.8447ZM9.65625 52.1582L9.30469 52.1436C9.30143 51.7822 9.34212 51.4486 9.42676 51.1426C9.51465 50.8333 9.63835 50.5648 9.79785 50.3369C9.96061 50.109 10.1543 49.9333 10.3789 49.8096C10.6035 49.6826 10.8525 49.6191 11.126 49.6191C11.3408 49.6191 11.5361 49.6549 11.7119 49.7266C11.8877 49.7949 12.0374 49.9056 12.1611 50.0586C12.2848 50.2116 12.3792 50.4102 12.4443 50.6543C12.5127 50.8952 12.5469 51.1898 12.5469 51.5381L12.5469 55H11.6826L11.6826 51.5283C11.6826 51.2516 11.6517 51.0303 11.5898 50.8643C11.5313 50.695 11.4401 50.5729 11.3164 50.498C11.196 50.4199 11.043 50.3809 10.8574 50.3809C10.6882 50.3809 10.5303 50.4281 10.3838 50.5225C10.2373 50.6169 10.1087 50.7471 9.99805 50.9131C9.89063 51.0791 9.80599 51.2695 9.74414 51.4844C9.68555 51.696 9.65625 51.9206 9.65625 52.1582ZM14.71 50.7666L14.71 55H13.8506L13.8506 49.7168H14.6611L14.71 50.7666ZM14.5342 52.1582L14.1338 52.1436C14.1305 51.7822 14.1663 51.4486 14.2412 51.1426C14.3161 50.8333 14.4284 50.5648 14.5781 50.3369C14.7311 50.109 14.9215 49.9333 15.1494 49.8096C15.3805 49.6826 15.6491 49.6191 15.9551 49.6191C16.1569 49.6191 16.3441 49.6549 16.5166 49.7266C16.6924 49.7949 16.8454 49.904 16.9756 50.0537C17.1058 50.2035 17.2067 50.3955 17.2783 50.6299C17.3532 50.8643 17.3906 51.1475 17.3906 51.4795V55H16.5264V51.5234C16.5264 51.2467 16.4889 51.0254 16.4141 50.8594C16.3424 50.6934 16.2399 50.5729 16.1064 50.498C15.973 50.4199 15.8135 50.3809 15.6279 50.3809C15.4163 50.3809 15.2389 50.4281 15.0957 50.5225C14.9557 50.6169 14.8434 50.7471 14.7588 50.9131C14.6774 51.0791 14.6188 51.2695 14.583 51.4844C14.5505 51.696 14.5342 51.9206 14.5342 52.1582ZM17.3809 51.6602L16.8047 51.8457C16.8014 51.556 16.8372 51.2777 16.9121 51.0107C16.987 50.7438 17.0977 50.5062 17.2441 50.2979C17.3939 50.0895 17.5794 49.9251 17.8008 49.8047C18.0221 49.681 18.2793 49.6191 18.5723 49.6191C18.8132 49.6191 19.0264 49.6566 19.2119 49.7314C19.3975 49.8063 19.5537 49.9219 19.6807 50.0781C19.8109 50.2311 19.9085 50.4281 19.9736 50.6689C20.0387 50.9098 20.0713 51.1963 20.0713 51.5283V55H19.207V51.5186C19.207 51.2223 19.1696 50.9928 19.0947 50.8301C19.0231 50.6641 18.9206 50.5485 18.7871 50.4834C18.6536 50.415 18.4941 50.3809 18.3086 50.3809C18.1589 50.3809 18.0254 50.415 17.9082 50.4834C17.7943 50.5518 17.6982 50.6462 17.6201 50.7666C17.542 50.8838 17.4818 51.0189 17.4395 51.1719C17.4004 51.3249 17.3809 51.4876 17.3809 51.6602ZM23.9629 54.0967V51.2305C23.9629 51.0221 23.9303 50.8545 23.8652 50.7275C23.8034 50.6006 23.709 50.5078 23.582 50.4492C23.4583 50.3906 23.3021 50.3613 23.1133 50.3613C22.931 50.3613 22.7731 50.3988 22.6396 50.4736C22.5094 50.5485 22.4085 50.6478 22.3369 50.7715C22.2686 50.8952 22.2344 51.0319 22.2344 51.1816H21.3701C21.3701 50.9928 21.4108 50.8057 21.4922 50.6201C21.5768 50.4346 21.6973 50.2669 21.8535 50.1172C22.0098 49.9642 22.1969 49.8438 22.415 49.7559C22.6364 49.6647 22.8838 49.6191 23.1572 49.6191C23.4827 49.6191 23.7708 49.6729 24.0215 49.7803C24.2721 49.8844 24.4691 50.0553 24.6123 50.293C24.7555 50.5306 24.8271 50.8464 24.8271 51.2402V53.8477C24.8271 54.0234 24.8402 54.2106 24.8662 54.4092C24.8955 54.6077 24.9362 54.7786 24.9883 54.9219V55H24.0947C24.0524 54.8958 24.0199 54.7575 23.9971 54.585C23.9743 54.4092 23.9629 54.2464 23.9629 54.0967ZM24.0996 51.7969L24.1094 52.4316H23.5088C23.3037 52.4316 23.1165 52.4544 22.9473 52.5C22.7813 52.5456 22.638 52.6123 22.5176 52.7002C22.3971 52.7848 22.3044 52.8906 22.2393 53.0176C22.1774 53.1445 22.1465 53.2894 22.1465 53.4521C22.1465 53.6637 22.1758 53.833 22.2344 53.96C22.293 54.0837 22.3809 54.1732 22.498 54.2285C22.6152 54.2839 22.7633 54.3115 22.9424 54.3115C23.1605 54.3115 23.3525 54.2611 23.5186 54.1602C23.6846 54.0592 23.8132 53.9372 23.9043 53.7939C23.9987 53.6507 24.0426 53.5173 24.0361 53.3936L24.2266 53.7988C24.2135 53.9258 24.1712 54.0641 24.0996 54.2139C24.0313 54.3604 23.9352 54.502 23.8115 54.6387C23.6878 54.7721 23.5413 54.8828 23.3721 54.9707C23.2061 55.0553 23.0189 55.0977 22.8105 55.0977C22.5046 55.0977 22.236 55.0391 22.0049 54.9219C21.777 54.8047 21.5996 54.6322 21.4727 54.4043C21.3457 54.1764 21.2822 53.8949 21.2822 53.5596C21.2822 53.3057 21.3262 53.0713 21.4141 52.8564C21.502 52.6416 21.6322 52.4561 21.8047 52.2998C21.9772 52.1403 22.1937 52.0166 22.4541 51.9287C22.7178 51.8408 23.0221 51.7969 23.3672 51.7969H24.0996ZM28.0986 49.7168V50.4102L25.6328 50.4102V49.7168L28.0986 49.7168ZM26.4385 48.4326H27.3027V53.6914C27.3027 53.8704 27.3239 54.0055 27.3662 54.0967C27.4118 54.1878 27.4688 54.248 27.5371 54.2773C27.6055 54.3066 27.6787 54.3213 27.7568 54.3213C27.8154 54.3213 27.8805 54.3148 27.9521 54.3018C28.0238 54.2855 28.0726 54.2725 28.0986 54.2627L28.0938 55C28.0352 55.0228 27.957 55.0439 27.8594 55.0635C27.7617 55.0863 27.638 55.0977 27.4883 55.0977C27.3027 55.0977 27.1302 55.0537 26.9707 54.9658C26.8112 54.8779 26.6826 54.7314 26.585 54.5264C26.4873 54.318 26.4385 54.0381 26.4385 53.6865V48.4326ZM29.9932 50.5469V55H29.1289V49.7168H29.9639L29.9932 50.5469ZM31.3066 49.6875L31.3115 50.5273C31.2399 50.5111 31.1748 50.5013 31.1162 50.498C31.0609 50.4915 30.9958 50.4883 30.9209 50.4883C30.7581 50.4883 30.6149 50.5208 30.4912 50.5859C30.3708 50.651 30.2666 50.7422 30.1787 50.8594C30.0908 50.9766 30.0208 51.1165 29.9688 51.2793C29.9167 51.4388 29.8809 51.6146 29.8613 51.8066L29.6367 51.9531C29.6367 51.6341 29.6611 51.3346 29.71 51.0547C29.762 50.7747 29.8418 50.5273 29.9492 50.3125C30.0566 50.0944 30.1934 49.9251 30.3594 49.8047C30.5286 49.681 30.7305 49.6191 30.9648 49.6191C31.0169 49.6191 31.0804 49.6273 31.1553 49.6436C31.2334 49.6566 31.2839 49.6712 31.3066 49.6875ZM33.1035 49.7168V55H32.2441V49.7168H33.1035ZM32.1953 48.3154C32.1953 48.1689 32.236 48.0452 32.3174 47.9443C32.3988 47.8434 32.5208 47.793 32.6836 47.793C32.8464 47.793 32.9684 47.8434 33.0498 47.9443C33.1344 48.0452 33.1768 48.1689 33.1768 48.3154C33.1768 48.4554 33.1344 48.5758 33.0498 48.6768C32.9684 48.7744 32.8464 48.8232 32.6836 48.8232C32.5208 48.8232 32.3988 48.7744 32.3174 48.6768C32.236 48.5758 32.1953 48.4554 32.1953 48.3154ZM36.3018 54.3604C36.4743 54.3604 36.6305 54.3262 36.7705 54.2578C36.9137 54.1862 37.0309 54.0755 37.1221 53.9258C37.2132 53.7728 37.2653 53.5742 37.2783 53.3301H38.0889C38.0758 53.6816 37.9863 53.9909 37.8203 54.2578C37.6576 54.5215 37.4427 54.7282 37.1758 54.8779C36.9121 55.0244 36.6208 55.0977 36.3018 55.0977C35.96 55.0977 35.6621 55.0423 35.4082 54.9316C35.1576 54.821 34.9492 54.6615 34.7832 54.4531C34.6204 54.2415 34.4984 53.986 34.417 53.6865C34.3356 53.3838 34.2949 53.0404 34.2949 52.6562V52.0605C34.2949 51.6764 34.3356 51.3346 34.417 51.0352C34.4984 50.7324 34.6204 50.4769 34.7832 50.2686C34.9492 50.057 35.1576 49.8958 35.4082 49.7852C35.6621 49.6745 35.96 49.6191 36.3018 49.6191C36.6598 49.6191 36.9691 49.6956 37.2295 49.8486C37.4932 49.9984 37.6982 50.2165 37.8447 50.5029C37.9945 50.7861 38.0758 51.1296 38.0889 51.5332H37.2783C37.2653 51.2728 37.2181 51.0563 37.1367 50.8838C37.0553 50.708 36.9447 50.5778 36.8047 50.4932C36.6647 50.4053 36.4971 50.3613 36.3018 50.3613C36.0739 50.3613 35.8851 50.402 35.7354 50.4834C35.5889 50.5615 35.4733 50.6755 35.3887 50.8252C35.304 50.9749 35.2438 51.154 35.208 51.3623C35.1755 51.5706 35.1592 51.8034 35.1592 52.0605V52.6562C35.1592 52.9134 35.1755 53.1478 35.208 53.3594C35.2438 53.5677 35.3024 53.7467 35.3838 53.8965C35.4684 54.0462 35.5856 54.1618 35.7354 54.2432C35.8851 54.3213 36.0739 54.3604 36.3018 54.3604ZM41.7607 53.7793V49.7168H42.625V55H41.8047L41.7607 53.7793ZM41.9219 52.666L42.2637 52.6562C42.2637 53.0078 42.2327 53.3333 42.1709 53.6328C42.1123 53.929 42.0146 54.1862 41.8779 54.4043C41.7445 54.6224 41.5671 54.7933 41.3457 54.917C41.1243 55.0374 40.8525 55.0977 40.5303 55.0977C40.3122 55.0977 40.1136 55.0602 39.9346 54.9854C39.7588 54.9105 39.6058 54.7949 39.4756 54.6387C39.3486 54.4824 39.2493 54.279 39.1777 54.0283C39.1094 53.7777 39.0752 53.4766 39.0752 53.125V49.7168H39.9346V53.1348C39.9346 53.3724 39.9557 53.5693 39.998 53.7256C40.0404 53.8786 40.0973 54.0007 40.1689 54.0918C40.2406 54.1797 40.3203 54.2415 40.4082 54.2773C40.4961 54.3132 40.5856 54.3311 40.6768 54.3311C40.9827 54.3311 41.2269 54.2578 41.4092 54.1113C41.5915 53.9616 41.7217 53.7614 41.7998 53.5107C41.8812 53.2568 41.9219 52.9753 41.9219 52.666ZM44.8516 47.5V55H43.9922V47.5H44.8516ZM48.8066 54.0967V51.2305C48.8066 51.0221 48.7741 50.8545 48.709 50.7275C48.6471 50.6006 48.5527 50.5078 48.4258 50.4492C48.3021 50.3906 48.1458 50.3613 47.957 50.3613C47.7747 50.3613 47.6169 50.3988 47.4834 50.4736C47.3532 50.5485 47.2523 50.6478 47.1807 50.7715C47.1123 50.8952 47.0781 51.0319 47.0781 51.1816H46.2139C46.2139 50.9928 46.2546 50.8057 46.3359 50.6201C46.4206 50.4346 46.541 50.2669 46.6973 50.1172C46.8535 49.9642 47.0407 49.8437 47.2588 49.7559C47.4801 49.6647 47.7275 49.6191 48.001 49.6191C48.3265 49.6191 48.6146 49.6729 48.8652 49.7803C49.1159 49.8844 49.3128 50.0553 49.4561 50.293C49.5993 50.5306 49.6709 50.8464 49.6709 51.2402V53.8477C49.6709 54.0234 49.6839 54.2106 49.71 54.4092C49.7393 54.6077 49.7799 54.7786 49.832 54.9219V55H48.9385C48.8962 54.8958 48.8636 54.7575 48.8408 54.585C48.818 54.4092 48.8066 54.2464 48.8066 54.0967ZM48.9434 51.7969L48.9531 52.4316H48.3525C48.1475 52.4316 47.9603 52.4544 47.791 52.5C47.625 52.5456 47.4818 52.6123 47.3613 52.7002C47.2409 52.7848 47.1481 52.8906 47.083 53.0176C47.0212 53.1445 46.9902 53.2894 46.9902 53.4521C46.9902 53.6637 47.0195 53.833 47.0781 53.96C47.1367 54.0837 47.2246 54.1732 47.3418 54.2285C47.459 54.2839 47.6071 54.3115 47.7861 54.3115C48.0042 54.3115 48.1963 54.2611 48.3623 54.1602C48.5283 54.0592 48.6569 53.9372 48.748 53.7939C48.8424 53.6507 48.8864 53.5173 48.8799 53.3936L49.0703 53.7988C49.0573 53.9258 49.015 54.0641 48.9434 54.2139C48.875 54.3604 48.779 54.502 48.6553 54.6387C48.5316 54.7721 48.3851 54.8828 48.2158 54.9707C48.0498 55.0553 47.8626 55.0977 47.6543 55.0977C47.3483 55.0977 47.0798 55.0391 46.8486 54.9219C46.6208 54.8047 46.4434 54.6322 46.3164 54.4043C46.1895 54.1764 46.126 53.8949 46.126 53.5596C46.126 53.3057 46.1699 53.0713 46.2578 52.8564C46.3457 52.6416 46.4759 52.4561 46.6484 52.2998C46.821 52.1403 47.0374 52.0166 47.2979 51.9287C47.5615 51.8408 47.8659 51.7969 48.2109 51.7969H48.9434ZM51.8779 50.5469V55H51.0137V49.7168H51.8486L51.8779 50.5469ZM53.1914 49.6875L53.1963 50.5273C53.1247 50.5111 53.0596 50.5013 53.001 50.498C52.9456 50.4915 52.8805 50.4883 52.8057 50.4883C52.6429 50.4883 52.4997 50.5208 52.376 50.5859C52.2555 50.651 52.1514 50.7422 52.0635 50.8594C51.9756 50.9766 51.9056 51.1165 51.8535 51.2793C51.8014 51.4388 51.7656 51.6146 51.7461 51.8066L51.5215 51.9531C51.5215 51.6341 51.5459 51.3346 51.5947 51.0547C51.6468 50.7747 51.7266 50.5273 51.834 50.3125C51.9414 50.0944 52.0781 49.9251 52.2441 49.8047C52.4134 49.681 52.6152 49.6191 52.8496 49.6191C52.9017 49.6191 52.9652 49.6273 53.04 49.6436C53.1182 49.6566 53.1686 49.6712 53.1914 49.6875ZM55.8525 55.0977C55.5368 55.0977 55.252 55.0505 54.998 54.9561C54.7441 54.8617 54.5277 54.7184 54.3486 54.5264C54.1696 54.3311 54.0329 54.0853 53.9385 53.7891C53.8441 53.4928 53.7969 53.1429 53.7969 52.7393V52.1436C53.7969 51.6781 53.8506 51.2842 53.958 50.9619C54.0687 50.6396 54.2168 50.3809 54.4023 50.1855C54.5879 49.987 54.7979 49.8437 55.0322 49.7559C55.2666 49.6647 55.5075 49.6191 55.7549 49.6191C56.0869 49.6191 56.3701 49.6729 56.6045 49.7803C56.8389 49.8877 57.0293 50.0472 57.1758 50.2588C57.3223 50.4704 57.4297 50.7308 57.498 51.04C57.5697 51.3493 57.6055 51.7057 57.6055 52.1094V52.6123L54.3047 52.6123V51.875L56.7412 51.875V51.7529C56.7282 51.4795 56.6908 51.2386 56.6289 51.0303C56.5703 50.8219 56.4727 50.6592 56.3359 50.542C56.1992 50.4215 56.0055 50.3613 55.7549 50.3613C55.5954 50.3613 55.4473 50.389 55.3105 50.4443C55.1771 50.4964 55.0615 50.5892 54.9639 50.7227C54.8695 50.8529 54.7946 51.0335 54.7393 51.2646C54.6872 51.4958 54.6611 51.7887 54.6611 52.1436V52.7393C54.6611 53.0225 54.6872 53.2666 54.7393 53.4717C54.7946 53.6735 54.8743 53.8411 54.9785 53.9746C55.0859 54.1048 55.2161 54.2025 55.3691 54.2676C55.5254 54.3294 55.7028 54.3604 55.9014 54.3604C56.1911 54.3604 56.4303 54.305 56.6191 54.1943C56.8079 54.0804 56.9723 53.9355 57.1123 53.7598L57.5664 54.3018C57.472 54.4352 57.3483 54.5638 57.1953 54.6875C57.0456 54.8079 56.86 54.9072 56.6387 54.9854C56.4206 55.0602 56.1585 55.0977 55.8525 55.0977Z" fill="url(#paint0_linear_363_2874)"/>
<path d="M106.096 40.8906V48H105.197V40.8906H106.096ZM108.493 44.0889V44.8604H105.925V44.0889H108.493ZM108.898 40.8906V41.6621H105.925V40.8906H108.898ZM112.316 47.0967V44.2305C112.316 44.0221 112.284 43.8545 112.219 43.7275C112.157 43.6006 112.062 43.5078 111.936 43.4492C111.812 43.3906 111.656 43.3613 111.467 43.3613C111.285 43.3613 111.127 43.3988 110.993 43.4736C110.863 43.5485 110.762 43.6478 110.69 43.7715C110.622 43.8952 110.588 44.0319 110.588 44.1816H109.724C109.724 43.9928 109.764 43.8057 109.846 43.6201C109.93 43.4346 110.051 43.2669 110.207 43.1172C110.363 42.9642 110.55 42.8438 110.769 42.7559C110.99 42.6647 111.237 42.6191 111.511 42.6191C111.836 42.6191 112.124 42.6729 112.375 42.7803C112.626 42.8844 112.823 43.0553 112.966 43.293C113.109 43.5306 113.181 43.8464 113.181 44.2402V46.8477C113.181 47.0234 113.194 47.2106 113.22 47.4092C113.249 47.6077 113.29 47.7786 113.342 47.9219V48H112.448C112.406 47.8958 112.373 47.7575 112.351 47.585C112.328 47.4092 112.316 47.2464 112.316 47.0967ZM112.453 44.7969L112.463 45.4316H111.862C111.657 45.4316 111.47 45.4544 111.301 45.5C111.135 45.5456 110.992 45.6123 110.871 45.7002C110.751 45.7848 110.658 45.8906 110.593 46.0176C110.531 46.1445 110.5 46.2894 110.5 46.4521C110.5 46.6637 110.529 46.833 110.588 46.96C110.646 47.0837 110.734 47.1732 110.852 47.2285C110.969 47.2839 111.117 47.3115 111.296 47.3115C111.514 47.3115 111.706 47.2611 111.872 47.1602C112.038 47.0592 112.167 46.9372 112.258 46.7939C112.352 46.6507 112.396 46.5173 112.39 46.3936L112.58 46.7988C112.567 46.9258 112.525 47.0641 112.453 47.2139C112.385 47.3604 112.289 47.502 112.165 47.6387C112.041 47.7721 111.895 47.8828 111.726 47.9707C111.56 48.0553 111.372 48.0977 111.164 48.0977C110.858 48.0977 110.59 48.0391 110.358 47.9219C110.131 47.8047 109.953 47.6322 109.826 47.4043C109.699 47.1764 109.636 46.8949 109.636 46.5596C109.636 46.3057 109.68 46.0713 109.768 45.8564C109.855 45.6416 109.986 45.4561 110.158 45.2998C110.331 45.1403 110.547 45.0166 110.808 44.9287C111.071 44.8408 111.376 44.7969 111.721 44.7969H112.453ZM116.354 47.3604C116.527 47.3604 116.683 47.3262 116.823 47.2578C116.966 47.1862 117.084 47.0755 117.175 46.9258C117.266 46.7728 117.318 46.5742 117.331 46.3301H118.142C118.129 46.6816 118.039 46.9909 117.873 47.2578C117.71 47.5215 117.495 47.7282 117.229 47.8779C116.965 48.0244 116.674 48.0977 116.354 48.0977C116.013 48.0977 115.715 48.0423 115.461 47.9316C115.21 47.821 115.002 47.6615 114.836 47.4531C114.673 47.2415 114.551 46.986 114.47 46.6865C114.388 46.3838 114.348 46.0404 114.348 45.6562V45.0605C114.348 44.6764 114.388 44.3346 114.47 44.0352C114.551 43.7324 114.673 43.4769 114.836 43.2686C115.002 43.057 115.21 42.8958 115.461 42.7852C115.715 42.6745 116.013 42.6191 116.354 42.6191C116.713 42.6191 117.022 42.6956 117.282 42.8486C117.546 42.9984 117.751 43.2165 117.897 43.5029C118.047 43.7861 118.129 44.1296 118.142 44.5332H117.331C117.318 44.2728 117.271 44.0563 117.189 43.8838C117.108 43.708 116.997 43.5778 116.857 43.4932C116.717 43.4053 116.55 43.3613 116.354 43.3613C116.127 43.3613 115.938 43.402 115.788 43.4834C115.642 43.5615 115.526 43.6755 115.441 43.8252C115.357 43.9749 115.297 44.154 115.261 44.3623C115.228 44.5706 115.212 44.8034 115.212 45.0605V45.6562C115.212 45.9134 115.228 46.1478 115.261 46.3594C115.297 46.5677 115.355 46.7467 115.437 46.8965C115.521 47.0462 115.638 47.1618 115.788 47.2432C115.938 47.3213 116.127 47.3604 116.354 47.3604ZM121.071 42.7168V43.4102H118.605V42.7168H121.071ZM119.411 41.4326H120.275V46.6914C120.275 46.8704 120.297 47.0055 120.339 47.0967C120.384 47.1878 120.441 47.248 120.51 47.2773C120.578 47.3066 120.651 47.3213 120.729 47.3213C120.788 47.3213 120.853 47.3148 120.925 47.3018C120.996 47.2855 121.045 47.2725 121.071 47.2627L121.066 48C121.008 48.0228 120.93 48.0439 120.832 48.0635C120.734 48.0863 120.611 48.0977 120.461 48.0977C120.275 48.0977 120.103 48.0537 119.943 47.9658C119.784 47.8779 119.655 47.7314 119.558 47.5264C119.46 47.318 119.411 47.0381 119.411 46.6865V41.4326ZM124.772 46.7793V42.7168H125.637V48H124.816L124.772 46.7793ZM124.934 45.666L125.275 45.6562C125.275 46.0078 125.244 46.3333 125.183 46.6328C125.124 46.929 125.026 47.1862 124.89 47.4043C124.756 47.6224 124.579 47.7933 124.357 47.917C124.136 48.0374 123.864 48.0977 123.542 48.0977C123.324 48.0977 123.125 48.0602 122.946 47.9854C122.771 47.9105 122.618 47.7949 122.487 47.6387C122.36 47.4824 122.261 47.279 122.189 47.0283C122.121 46.7777 122.087 46.4766 122.087 46.125V42.7168H122.946V46.1348C122.946 46.3724 122.967 46.5693 123.01 46.7256C123.052 46.8786 123.109 47.0007 123.181 47.0918C123.252 47.1797 123.332 47.2415 123.42 47.2773C123.508 47.3132 123.597 47.3311 123.688 47.3311C123.994 47.3311 124.239 47.2578 124.421 47.1113C124.603 46.9616 124.733 46.7614 124.812 46.5107C124.893 46.2568 124.934 45.9753 124.934 45.666ZM127.8 43.5469V48H126.936V42.7168H127.771L127.8 43.5469ZM129.113 42.6875L129.118 43.5273C129.047 43.5111 128.981 43.5013 128.923 43.498C128.868 43.4915 128.802 43.4883 128.728 43.4883C128.565 43.4883 128.422 43.5208 128.298 43.5859C128.177 43.651 128.073 43.7422 127.985 43.8594C127.897 43.9766 127.827 44.1165 127.775 44.2793C127.723 44.4388 127.688 44.6146 127.668 44.8066L127.443 44.9531C127.443 44.6341 127.468 44.3346 127.517 44.0547C127.569 43.7747 127.648 43.5273 127.756 43.3125C127.863 43.0944 128 42.9251 128.166 42.8047C128.335 42.681 128.537 42.6191 128.771 42.6191C128.824 42.6191 128.887 42.6273 128.962 42.6436C129.04 42.6566 129.09 42.6712 129.113 42.6875ZM132.375 47.0967V44.2305C132.375 44.0221 132.342 43.8545 132.277 43.7275C132.215 43.6006 132.121 43.5078 131.994 43.4492C131.87 43.3906 131.714 43.3613 131.525 43.3613C131.343 43.3613 131.185 43.3988 131.052 43.4736C130.922 43.5485 130.821 43.6478 130.749 43.7715C130.681 43.8952 130.646 44.0319 130.646 44.1816H129.782C129.782 43.9928 129.823 43.8057 129.904 43.6201C129.989 43.4346 130.109 43.2669 130.266 43.1172C130.422 42.9642 130.609 42.8437 130.827 42.7559C131.049 42.6647 131.296 42.6191 131.569 42.6191C131.895 42.6191 132.183 42.6729 132.434 42.7803C132.684 42.8844 132.881 43.0553 133.024 43.293C133.168 43.5306 133.239 43.8464 133.239 44.2402V46.8477C133.239 47.0234 133.252 47.2106 133.278 47.4092C133.308 47.6077 133.348 47.7786 133.4 47.9219V48H132.507C132.465 47.8958 132.432 47.7575 132.409 47.585C132.386 47.4092 132.375 47.2464 132.375 47.0967ZM132.512 44.7969L132.521 45.4316H131.921C131.716 45.4316 131.529 45.4544 131.359 45.5C131.193 45.5456 131.05 45.6123 130.93 45.7002C130.809 45.7848 130.716 45.8906 130.651 46.0176C130.59 46.1445 130.559 46.2894 130.559 46.4521C130.559 46.6637 130.588 46.833 130.646 46.96C130.705 47.0837 130.793 47.1732 130.91 47.2285C131.027 47.2839 131.175 47.3115 131.354 47.3115C131.573 47.3115 131.765 47.2611 131.931 47.1602C132.097 47.0592 132.225 46.9372 132.316 46.7939C132.411 46.6507 132.455 46.5173 132.448 46.3936L132.639 46.7988C132.626 46.9258 132.583 47.0641 132.512 47.2139C132.443 47.3604 132.347 47.502 132.224 47.6387C132.1 47.7721 131.953 47.8828 131.784 47.9707C131.618 48.0553 131.431 48.0977 131.223 48.0977C130.917 48.0977 130.648 48.0391 130.417 47.9219C130.189 47.8047 130.012 47.6322 129.885 47.4043C129.758 47.1764 129.694 46.8949 129.694 46.5596C129.694 46.3057 129.738 46.0713 129.826 45.8564C129.914 45.6416 130.044 45.4561 130.217 45.2998C130.389 45.1403 130.606 45.0166 130.866 44.9287C131.13 44.8408 131.434 44.7969 131.779 44.7969H132.512ZM135.446 43.5469V48H134.582V42.7168H135.417L135.446 43.5469ZM136.76 42.6875L136.765 43.5273C136.693 43.5111 136.628 43.5013 136.569 43.498C136.514 43.4915 136.449 43.4883 136.374 43.4883C136.211 43.4883 136.068 43.5208 135.944 43.5859C135.824 43.651 135.72 43.7422 135.632 43.8594C135.544 43.9766 135.474 44.1165 135.422 44.2793C135.37 44.4388 135.334 44.6146 135.314 44.8066L135.09 44.9531C135.09 44.6341 135.114 44.3346 135.163 44.0547C135.215 43.7747 135.295 43.5273 135.402 43.3125C135.51 43.0944 135.646 42.9251 135.812 42.8047C135.982 42.681 136.184 42.6191 136.418 42.6191C136.47 42.6191 136.534 42.6273 136.608 42.6436C136.687 42.6566 136.737 42.6712 136.76 42.6875ZM139.421 48.0977C139.105 48.0977 138.82 48.0505 138.566 47.9561C138.312 47.8617 138.096 47.7184 137.917 47.5264C137.738 47.3311 137.601 47.0853 137.507 46.7891C137.412 46.4928 137.365 46.1429 137.365 45.7393V45.1436C137.365 44.6781 137.419 44.2842 137.526 43.9619C137.637 43.6396 137.785 43.3809 137.971 43.1855C138.156 42.987 138.366 42.8437 138.601 42.7559C138.835 42.6647 139.076 42.6191 139.323 42.6191C139.655 42.6191 139.938 42.6729 140.173 42.7803C140.407 42.8877 140.598 43.0472 140.744 43.2588C140.891 43.4704 140.998 43.7308 141.066 44.04C141.138 44.3493 141.174 44.7057 141.174 45.1094V45.6123H137.873V44.875H140.31V44.7529C140.297 44.4795 140.259 44.2386 140.197 44.0303C140.139 43.8219 140.041 43.6592 139.904 43.542C139.768 43.4215 139.574 43.3613 139.323 43.3613C139.164 43.3613 139.016 43.389 138.879 43.4443C138.745 43.4964 138.63 43.5892 138.532 43.7227C138.438 43.8529 138.363 44.0335 138.308 44.2646C138.256 44.4958 138.229 44.7887 138.229 45.1436V45.7393C138.229 46.0225 138.256 46.2666 138.308 46.4717C138.363 46.6735 138.443 46.8411 138.547 46.9746C138.654 47.1048 138.785 47.2025 138.938 47.2676C139.094 47.3294 139.271 47.3604 139.47 47.3604C139.759 47.3604 139.999 47.305 140.188 47.1943C140.376 47.0804 140.541 46.9355 140.681 46.7598L141.135 47.3018C141.04 47.4352 140.917 47.5638 140.764 47.6875C140.614 47.8079 140.428 47.9072 140.207 47.9854C139.989 48.0602 139.727 48.0977 139.421 48.0977Z" fill="url(#paint1_linear_363_2874)"/>
<path d="M192.958 42.9209L194.667 36.8906H195.644L193.437 44H192.748L192.958 42.9209ZM191.425 36.8906L193.119 42.9209L193.344 44H192.655L190.448 36.8906H191.425ZM198.168 44.0977C197.852 44.0977 197.567 44.0505 197.313 43.9561C197.06 43.8617 196.843 43.7184 196.664 43.5264C196.485 43.3311 196.348 43.0853 196.254 42.7891C196.16 42.4928 196.112 42.1429 196.112 41.7393V41.1436C196.112 40.6781 196.166 40.2842 196.273 39.9619C196.384 39.6396 196.532 39.3809 196.718 39.1855C196.903 38.987 197.113 38.8438 197.348 38.7559C197.582 38.6647 197.823 38.6191 198.07 38.6191C198.402 38.6191 198.686 38.6729 198.92 38.7803C199.154 38.8877 199.345 39.0472 199.491 39.2588C199.638 39.4704 199.745 39.7308 199.813 40.04C199.885 40.3493 199.921 40.7057 199.921 41.1094V41.6123H196.62V40.875H199.057V40.7529C199.044 40.4795 199.006 40.2386 198.944 40.0303C198.886 39.8219 198.788 39.6592 198.651 39.542C198.515 39.4215 198.321 39.3613 198.07 39.3613C197.911 39.3613 197.763 39.389 197.626 39.4443C197.493 39.4964 197.377 39.5892 197.279 39.7227C197.185 39.8529 197.11 40.0335 197.055 40.2646C197.003 40.4958 196.977 40.7887 196.977 41.1436V41.7393C196.977 42.0225 197.003 42.2666 197.055 42.4717C197.11 42.6735 197.19 42.8411 197.294 42.9746C197.401 43.1048 197.532 43.2025 197.685 43.2676C197.841 43.3294 198.018 43.3604 198.217 43.3604C198.507 43.3604 198.746 43.305 198.935 43.1943C199.123 43.0804 199.288 42.9355 199.428 42.7598L199.882 43.3018C199.787 43.4352 199.664 43.5638 199.511 43.6875C199.361 43.8079 199.175 43.9072 198.954 43.9854C198.736 44.0602 198.474 44.0977 198.168 44.0977ZM201.83 39.5469V44H200.966V38.7168H201.801L201.83 39.5469ZM203.144 38.6875L203.148 39.5273C203.077 39.5111 203.012 39.5013 202.953 39.498C202.898 39.4915 202.833 39.4883 202.758 39.4883C202.595 39.4883 202.452 39.5208 202.328 39.5859C202.208 39.651 202.104 39.7422 202.016 39.8594C201.928 39.9766 201.858 40.1165 201.806 40.2793C201.754 40.4388 201.718 40.6146 201.698 40.8066L201.474 40.9531C201.474 40.6341 201.498 40.3346 201.547 40.0547C201.599 39.7747 201.679 39.5273 201.786 39.3125C201.894 39.0944 202.03 38.9251 202.196 38.8047C202.366 38.681 202.567 38.6191 202.802 38.6191C202.854 38.6191 202.917 38.6273 202.992 38.6436C203.07 38.6566 203.121 38.6712 203.144 38.6875ZM204.94 38.7168V44H204.081V38.7168H204.94ZM204.032 37.3154C204.032 37.1689 204.073 37.0452 204.154 36.9443C204.236 36.8434 204.358 36.793 204.521 36.793C204.683 36.793 204.805 36.8434 204.887 36.9443C204.971 37.0452 205.014 37.1689 205.014 37.3154C205.014 37.4554 204.971 37.5758 204.887 37.6768C204.805 37.7744 204.683 37.8232 204.521 37.8232C204.358 37.8232 204.236 37.7744 204.154 37.6768C204.073 37.5758 204.032 37.4554 204.032 37.3154ZM207.411 44H206.547V38.2578C206.547 37.8574 206.614 37.5189 206.747 37.2422C206.884 36.9655 207.077 36.7555 207.328 36.6123C207.582 36.4691 207.882 36.3975 208.227 36.3975C208.432 36.3975 208.629 36.4268 208.817 36.4854C209.006 36.5407 209.201 36.6107 209.403 36.6953L209.257 37.457C209.14 37.3984 208.996 37.3431 208.827 37.291C208.658 37.2357 208.48 37.208 208.295 37.208C207.969 37.208 207.74 37.2959 207.606 37.4717C207.476 37.6442 207.411 37.9062 207.411 38.2578V44ZM208.266 38.7168V39.4102H205.858V38.7168H208.266ZM209.818 38.7168V44H208.954V38.7168H209.818ZM213.041 43.3604C213.214 43.3604 213.37 43.3262 213.51 43.2578C213.653 43.1862 213.77 43.0755 213.861 42.9258C213.952 42.7728 214.005 42.5742 214.018 42.3301H214.828C214.815 42.6816 214.726 42.9909 214.56 43.2578C214.397 43.5215 214.182 43.7282 213.915 43.8779C213.651 44.0244 213.36 44.0977 213.041 44.0977C212.699 44.0977 212.401 44.0423 212.147 43.9316C211.897 43.821 211.688 43.6615 211.522 43.4531C211.36 43.2415 211.238 42.986 211.156 42.6865C211.075 42.3838 211.034 42.0404 211.034 41.6562V41.0605C211.034 40.6764 211.075 40.3346 211.156 40.0352C211.238 39.7324 211.36 39.4769 211.522 39.2686C211.688 39.057 211.897 38.8958 212.147 38.7852C212.401 38.6745 212.699 38.6191 213.041 38.6191C213.399 38.6191 213.708 38.6956 213.969 38.8486C214.232 38.9984 214.438 39.2165 214.584 39.5029C214.734 39.7861 214.815 40.1296 214.828 40.5332H214.018C214.005 40.2728 213.957 40.0563 213.876 39.8838C213.795 39.708 213.684 39.5778 213.544 39.4932C213.404 39.4053 213.236 39.3613 213.041 39.3613C212.813 39.3613 212.624 39.402 212.475 39.4834C212.328 39.5615 212.213 39.6755 212.128 39.8252C212.043 39.9749 211.983 40.154 211.947 40.3623C211.915 40.5706 211.898 40.8034 211.898 41.0605V41.6562C211.898 41.9134 211.915 42.1478 211.947 42.3594C211.983 42.5677 212.042 42.7467 212.123 42.8965C212.208 43.0462 212.325 43.1618 212.475 43.2432C212.624 43.3213 212.813 43.3604 213.041 43.3604ZM218.417 43.0967V40.2305C218.417 40.0221 218.384 39.8545 218.319 39.7275C218.257 39.6006 218.163 39.5078 218.036 39.4492C217.912 39.3906 217.756 39.3613 217.567 39.3613C217.385 39.3613 217.227 39.3988 217.094 39.4736C216.964 39.5485 216.863 39.6478 216.791 39.7715C216.723 39.8952 216.688 40.0319 216.688 40.1816H215.824C215.824 39.9928 215.865 39.8057 215.946 39.6201C216.031 39.4346 216.151 39.2669 216.308 39.1172C216.464 38.9642 216.651 38.8437 216.869 38.7559C217.09 38.6647 217.338 38.6191 217.611 38.6191C217.937 38.6191 218.225 38.6729 218.476 38.7803C218.726 38.8844 218.923 39.0553 219.066 39.293C219.21 39.5306 219.281 39.8464 219.281 40.2402V42.8477C219.281 43.0234 219.294 43.2106 219.32 43.4092C219.35 43.6077 219.39 43.7786 219.442 43.9219V44H218.549C218.507 43.8958 218.474 43.7575 218.451 43.585C218.428 43.4092 218.417 43.2464 218.417 43.0967ZM218.554 40.7969L218.563 41.4316H217.963C217.758 41.4316 217.571 41.4544 217.401 41.5C217.235 41.5456 217.092 41.6123 216.972 41.7002C216.851 41.7848 216.758 41.8906 216.693 42.0176C216.632 42.1445 216.601 42.2894 216.601 42.4521C216.601 42.6637 216.63 42.833 216.688 42.96C216.747 43.0837 216.835 43.1732 216.952 43.2285C217.069 43.2839 217.217 43.3115 217.396 43.3115C217.615 43.3115 217.807 43.2611 217.973 43.1602C218.139 43.0592 218.267 42.9372 218.358 42.7939C218.453 42.6507 218.497 42.5173 218.49 42.3936L218.681 42.7988C218.668 42.9258 218.625 43.0641 218.554 43.2139C218.485 43.3604 218.389 43.502 218.266 43.6387C218.142 43.7721 217.995 43.8828 217.826 43.9707C217.66 44.0553 217.473 44.0977 217.265 44.0977C216.959 44.0977 216.69 44.0391 216.459 43.9219C216.231 43.8047 216.054 43.6322 215.927 43.4043C215.8 43.1764 215.736 42.8949 215.736 42.5596C215.736 42.3057 215.78 42.0713 215.868 41.8564C215.956 41.6416 216.086 41.4561 216.259 41.2998C216.431 41.1403 216.648 41.0166 216.908 40.9287C217.172 40.8408 217.476 40.7969 217.821 40.7969H218.554ZM221.488 39.5469V44H220.624V38.7168H221.459L221.488 39.5469ZM222.802 38.6875L222.807 39.5273C222.735 39.5111 222.67 39.5013 222.611 39.498C222.556 39.4915 222.491 39.4883 222.416 39.4883C222.253 39.4883 222.11 39.5208 221.986 39.5859C221.866 39.651 221.762 39.7422 221.674 39.8594C221.586 39.9766 221.516 40.1165 221.464 40.2793C221.412 40.4388 221.376 40.6146 221.356 40.8066L221.132 40.9531C221.132 40.6341 221.156 40.3346 221.205 40.0547C221.257 39.7747 221.337 39.5273 221.444 39.3125C221.552 39.0944 221.688 38.9251 221.854 38.8047C222.024 38.681 222.226 38.6191 222.46 38.6191C222.512 38.6191 222.576 38.6273 222.65 38.6436C222.729 38.6566 222.779 38.6712 222.802 38.6875ZM225.463 44.0977C225.147 44.0977 224.862 44.0505 224.608 43.9561C224.354 43.8617 224.138 43.7184 223.959 43.5264C223.78 43.3311 223.643 43.0853 223.549 42.7891C223.454 42.4928 223.407 42.1429 223.407 41.7393V41.1436C223.407 40.6781 223.461 40.2842 223.568 39.9619C223.679 39.6396 223.827 39.3809 224.013 39.1855C224.198 38.987 224.408 38.8437 224.643 38.7559C224.877 38.6647 225.118 38.6191 225.365 38.6191C225.697 38.6191 225.98 38.6729 226.215 38.7803C226.449 38.8877 226.64 39.0472 226.786 39.2588C226.933 39.4704 227.04 39.7308 227.108 40.04C227.18 40.3493 227.216 40.7057 227.216 41.1094V41.6123H223.915V40.875H226.352V40.7529C226.339 40.4795 226.301 40.2386 226.239 40.0303C226.181 39.8219 226.083 39.6592 225.946 39.542C225.81 39.4215 225.616 39.3613 225.365 39.3613C225.206 39.3613 225.058 39.389 224.921 39.4443C224.787 39.4964 224.672 39.5892 224.574 39.7227C224.48 39.8529 224.405 40.0335 224.35 40.2646C224.298 40.4958 224.271 40.7887 224.271 41.1436V41.7393C224.271 42.0225 224.298 42.2666 224.35 42.4717C224.405 42.6735 224.485 42.8411 224.589 42.9746C224.696 43.1048 224.826 43.2025 224.979 43.2676C225.136 43.3294 225.313 43.3604 225.512 43.3604C225.801 43.3604 226.041 43.305 226.229 43.1943C226.418 43.0804 226.583 42.9355 226.723 42.7598L227.177 43.3018C227.082 43.4352 226.959 43.5638 226.806 43.6875C226.656 43.8079 226.47 43.9072 226.249 43.9854C226.031 44.0602 225.769 44.0977 225.463 44.0977ZM233.119 42.6475C233.119 42.514 233.087 42.3968 233.021 42.2959C232.956 42.195 232.849 42.0973 232.699 42.0029C232.553 41.9085 232.354 41.8076 232.104 41.7002C231.859 41.5993 231.64 41.5 231.444 41.4023C231.252 41.3014 231.09 41.1924 230.956 41.0752C230.823 40.958 230.72 40.8229 230.648 40.6699C230.58 40.5137 230.546 40.3298 230.546 40.1182C230.546 39.9066 230.585 39.7113 230.663 39.5322C230.744 39.3499 230.858 39.1904 231.005 39.0537C231.151 38.917 231.327 38.8112 231.532 38.7363C231.737 38.6582 231.967 38.6191 232.221 38.6191C232.582 38.6191 232.89 38.6891 233.144 38.8291C233.397 38.9691 233.591 39.1611 233.725 39.4053C233.861 39.6462 233.93 39.918 233.93 40.2207H233.07C233.07 40.0742 233.038 39.9359 232.973 39.8057C232.908 39.6755 232.812 39.5697 232.685 39.4883C232.558 39.4036 232.403 39.3613 232.221 39.3613C232.029 39.3613 231.872 39.3955 231.752 39.4639C231.632 39.5322 231.544 39.6217 231.488 39.7324C231.436 39.8398 231.41 39.9587 231.41 40.0889C231.41 40.1865 231.423 40.2712 231.449 40.3428C231.479 40.4111 231.527 40.4762 231.596 40.5381C231.664 40.5967 231.757 40.6585 231.874 40.7236C231.994 40.7855 232.147 40.8571 232.333 40.9385C232.691 41.0785 232.992 41.2201 233.236 41.3633C233.48 41.5065 233.666 41.6742 233.793 41.8662C233.92 42.0583 233.983 42.2959 233.983 42.5791C233.983 42.8102 233.941 43.0202 233.856 43.209C233.775 43.3945 233.658 43.554 233.505 43.6875C233.352 43.821 233.168 43.9235 232.953 43.9951C232.742 44.0635 232.504 44.0977 232.24 44.0977C231.843 44.0977 231.506 44.0195 231.229 43.8633C230.956 43.7038 230.748 43.4971 230.604 43.2432C230.465 42.986 230.395 42.7109 230.395 42.418H231.259C231.269 42.6654 231.324 42.8574 231.425 42.9941C231.529 43.1309 231.654 43.2253 231.801 43.2773C231.947 43.3294 232.094 43.3555 232.24 43.3555C232.432 43.3555 232.593 43.3278 232.724 43.2725C232.854 43.2139 232.951 43.1309 233.017 43.0234C233.085 42.916 233.119 42.7907 233.119 42.6475ZM232.748 44.6104V44.9961C232.748 45.2533 232.696 45.5299 232.592 45.8262C232.488 46.1224 232.326 46.3698 232.108 46.5684L231.62 46.2119C231.724 46.0264 231.802 45.8359 231.854 45.6406C231.907 45.4453 231.933 45.2337 231.933 45.0059V44.6104H232.748ZM236.044 38.7168V44H235.185V38.7168H236.044ZM235.136 37.3154C235.136 37.1689 235.176 37.0452 235.258 36.9443C235.339 36.8434 235.461 36.793 235.624 36.793C235.787 36.793 235.909 36.8434 235.99 36.9443C236.075 37.0452 236.117 37.1689 236.117 37.3154C236.117 37.4554 236.075 37.5758 235.99 37.6768C235.909 37.7744 235.787 37.8232 235.624 37.8232C235.461 37.8232 235.339 37.7744 235.258 37.6768C235.176 37.5758 235.136 37.4554 235.136 37.3154ZM205.126 50.7324V57.0312H204.262V49.7168H205.048L205.126 50.7324ZM208.08 52.1191V52.6123C208.08 53.029 208.041 53.3936 207.963 53.7061C207.888 54.0153 207.776 54.2741 207.626 54.4824C207.479 54.6875 207.299 54.8421 207.084 54.9463C206.869 55.0472 206.623 55.0977 206.347 55.0977C206.07 55.0977 205.829 55.0456 205.624 54.9414C205.422 54.834 205.251 54.6794 205.111 54.4775C204.975 54.2757 204.866 54.0332 204.784 53.75C204.706 53.4635 204.652 53.1429 204.623 52.7881V52.0361C204.652 51.6618 204.706 51.3265 204.784 51.0303C204.862 50.7308 204.97 50.4769 205.106 50.2686C205.246 50.057 205.417 49.8958 205.619 49.7852C205.824 49.6745 206.063 49.6191 206.337 49.6191C206.62 49.6191 206.869 49.668 207.084 49.7656C207.302 49.8633 207.484 50.0146 207.631 50.2197C207.781 50.4215 207.893 50.6803 207.968 50.9961C208.043 51.3086 208.08 51.6829 208.08 52.1191ZM207.216 52.6123V52.1191C207.216 51.8262 207.193 51.5706 207.147 51.3525C207.105 51.1344 207.037 50.9538 206.942 50.8105C206.848 50.6673 206.729 50.5599 206.586 50.4883C206.443 50.4167 206.27 50.3809 206.068 50.3809C205.896 50.3809 205.743 50.4167 205.609 50.4883C205.479 50.5599 205.367 50.6576 205.272 50.7812C205.178 50.9017 205.1 51.04 205.038 51.1963C204.976 51.3493 204.931 51.5088 204.901 51.6748V53.1543C204.957 53.3626 205.03 53.5596 205.121 53.7451C205.212 53.9274 205.334 54.0755 205.487 54.1895C205.644 54.3034 205.84 54.3604 206.078 54.3604C206.277 54.3604 206.448 54.3245 206.591 54.2529C206.734 54.1813 206.851 54.0739 206.942 53.9307C207.037 53.7842 207.105 53.6019 207.147 53.3838C207.193 53.1624 207.216 52.9053 207.216 52.6123ZM210.121 47.5V55H209.262V47.5H210.121ZM214.076 54.0967V51.2305C214.076 51.0221 214.044 50.8545 213.979 50.7275C213.917 50.6006 213.822 50.5078 213.695 50.4492C213.572 50.3906 213.415 50.3613 213.227 50.3613C213.044 50.3613 212.886 50.3988 212.753 50.4736C212.623 50.5485 212.522 50.6478 212.45 50.7715C212.382 50.8952 212.348 51.0319 212.348 51.1816H211.483C211.483 50.9928 211.524 50.8057 211.605 50.6201C211.69 50.4346 211.811 50.2669 211.967 50.1172C212.123 49.9642 212.31 49.8438 212.528 49.7559C212.75 49.6647 212.997 49.6191 213.271 49.6191C213.596 49.6191 213.884 49.6729 214.135 49.7803C214.385 49.8844 214.582 50.0553 214.726 50.293C214.869 50.5306 214.94 50.8464 214.94 51.2402V53.8477C214.94 54.0234 214.953 54.2106 214.979 54.4092C215.009 54.6077 215.049 54.7786 215.102 54.9219V55H214.208C214.166 54.8958 214.133 54.7575 214.11 54.585C214.088 54.4092 214.076 54.2464 214.076 54.0967ZM214.213 51.7969L214.223 52.4316H213.622C213.417 52.4316 213.23 52.4544 213.061 52.5C212.895 52.5456 212.751 52.6123 212.631 52.7002C212.51 52.7848 212.418 52.8906 212.353 53.0176C212.291 53.1445 212.26 53.2894 212.26 53.4521C212.26 53.6637 212.289 53.833 212.348 53.96C212.406 54.0837 212.494 54.1732 212.611 54.2285C212.729 54.2839 212.877 54.3115 213.056 54.3115C213.274 54.3115 213.466 54.2611 213.632 54.1602C213.798 54.0592 213.926 53.9372 214.018 53.7939C214.112 53.6507 214.156 53.5173 214.149 53.3936L214.34 53.7988C214.327 53.9258 214.285 54.0641 214.213 54.2139C214.145 54.3604 214.049 54.502 213.925 54.6387C213.801 54.7721 213.655 54.8828 213.485 54.9707C213.319 55.0553 213.132 55.0977 212.924 55.0977C212.618 55.0977 212.349 55.0391 212.118 54.9219C211.89 54.8047 211.713 54.6322 211.586 54.4043C211.459 54.1764 211.396 53.8949 211.396 53.5596C211.396 53.3057 211.439 53.0713 211.527 52.8564C211.615 52.6416 211.745 52.4561 211.918 52.2998C212.09 52.1403 212.307 52.0166 212.567 51.9287C212.831 51.8408 213.135 51.7969 213.48 51.7969H214.213ZM218.212 49.7168V50.4102H215.746V49.7168H218.212ZM216.552 48.4326H217.416V53.6914C217.416 53.8704 217.437 54.0055 217.479 54.0967C217.525 54.1878 217.582 54.248 217.65 54.2773C217.719 54.3066 217.792 54.3213 217.87 54.3213C217.929 54.3213 217.994 54.3148 218.065 54.3018C218.137 54.2855 218.186 54.2725 218.212 54.2627L218.207 55C218.148 55.0228 218.07 55.0439 217.973 55.0635C217.875 55.0863 217.751 55.0977 217.602 55.0977C217.416 55.0977 217.243 55.0537 217.084 54.9658C216.924 54.8779 216.796 54.7314 216.698 54.5264C216.601 54.318 216.552 54.0381 216.552 53.6865V48.4326ZM221.83 54.0967V51.2305C221.83 51.0221 221.798 50.8545 221.732 50.7275C221.671 50.6006 221.576 50.5078 221.449 50.4492C221.326 50.3906 221.169 50.3613 220.98 50.3613C220.798 50.3613 220.64 50.3988 220.507 50.4736C220.377 50.5485 220.276 50.6478 220.204 50.7715C220.136 50.8952 220.102 51.0319 220.102 51.1816H219.237C219.237 50.9928 219.278 50.8057 219.359 50.6201C219.444 50.4346 219.564 50.2669 219.721 50.1172C219.877 49.9642 220.064 49.8437 220.282 49.7559C220.504 49.6647 220.751 49.6191 221.024 49.6191C221.35 49.6191 221.638 49.6729 221.889 49.7803C222.139 49.8844 222.336 50.0553 222.479 50.293C222.623 50.5306 222.694 50.8464 222.694 51.2402V53.8477C222.694 54.0234 222.707 54.2106 222.733 54.4092C222.763 54.6077 222.803 54.7786 222.855 54.9219V55H221.962C221.92 54.8958 221.887 54.7575 221.864 54.585C221.841 54.4092 221.83 54.2464 221.83 54.0967ZM221.967 51.7969L221.977 52.4316H221.376C221.171 52.4316 220.984 52.4544 220.814 52.5C220.648 52.5456 220.505 52.6123 220.385 52.7002C220.264 52.7848 220.172 52.8906 220.106 53.0176C220.045 53.1445 220.014 53.2894 220.014 53.4521C220.014 53.6637 220.043 53.833 220.102 53.96C220.16 54.0837 220.248 54.1732 220.365 54.2285C220.482 54.2839 220.631 54.3115 220.81 54.3115C221.028 54.3115 221.22 54.2611 221.386 54.1602C221.552 54.0592 221.68 53.9372 221.771 53.7939C221.866 53.6507 221.91 53.5173 221.903 53.3936L222.094 53.7988C222.081 53.9258 222.038 54.0641 221.967 54.2139C221.898 54.3604 221.802 54.502 221.679 54.6387C221.555 54.7721 221.409 54.8828 221.239 54.9707C221.073 55.0553 220.886 55.0977 220.678 55.0977C220.372 55.0977 220.103 55.0391 219.872 54.9219C219.644 54.8047 219.467 54.6322 219.34 54.4043C219.213 54.1764 219.149 53.8949 219.149 53.5596C219.149 53.3057 219.193 53.0713 219.281 52.8564C219.369 52.6416 219.499 52.4561 219.672 52.2998C219.844 52.1403 220.061 52.0166 220.321 51.9287C220.585 51.8408 220.889 51.7969 221.234 51.7969H221.967ZM221.806 47.7002H222.538C222.538 47.9541 222.479 48.1803 222.362 48.3789C222.245 48.5742 222.077 48.7272 221.859 48.8379C221.641 48.9486 221.382 49.0039 221.083 49.0039C220.631 49.0039 220.272 48.8835 220.009 48.6426C219.748 48.3984 219.618 48.0843 219.618 47.7002H220.351C220.351 47.8923 220.406 48.0615 220.517 48.208C220.627 48.3545 220.816 48.4277 221.083 48.4277C221.343 48.4277 221.529 48.3545 221.64 48.208C221.75 48.0615 221.806 47.8923 221.806 47.7002Z" fill="#E0E0E9"/>
<path fill-rule="evenodd" clip-rule="evenodd" d="M203 16L136 16V14L203 14V16Z" fill="#D0CFD7"/>
<path fill-rule="evenodd" clip-rule="evenodd" d="M110 16L43 16V14L110 14V16Z" fill="url(#paint2_linear_363_2874)"/>
<path fill-rule="evenodd" clip-rule="evenodd" d="M17.7612 6.17317C17 8.01088 17 10.3406 17 15C17 19.6594 17 21.9891 17.7612 23.8268C18.7761 26.2771 20.7229 28.2239 23.1732 29.2388C25.0109 30 27.3406 30 32 30C36.6594 30 38.9891 30 40.8268 29.2388C43.2771 28.2239 45.2239 26.2771 46.2388 23.8268C47 21.9891 47 19.6594 47 15C47 10.3406 47 8.01088 46.2388 6.17317C45.2239 3.72288 43.2771 1.77614 40.8268 0.761205C38.9891 0 36.6594 0 32 0C27.3406 0 25.0109 0 23.1732 0.761205C20.7229 1.77614 18.7761 3.72288 17.7612 6.17317ZM38.7071 11.7071C39.0976 11.3166 39.0976 10.6834 38.7071 10.2929C38.3166 9.90237 37.6834 9.90237 37.2929 10.2929L30 17.5858L26.7071 14.2929C26.3166 13.9024 25.6834 13.9024 25.2929 14.2929C24.9024 14.6834 24.9024 15.3166 25.2929 15.7071L29.2929 19.7071C29.4804 19.8946 29.7348 20 30 20C30.2652 20 30.5196 19.8946 30.7071 19.7071L38.7071 11.7071Z" fill="url(#paint3_linear_363_2874)"/>
<path fill-rule="evenodd" clip-rule="evenodd" d="M108.761 6.17317C108 8.01088 108 10.3406 108 15C108 19.6594 108 21.9891 108.761 23.8268C109.776 26.2771 111.723 28.2239 114.173 29.2388C116.011 30 118.341 30 123 30C127.659 30 129.989 30 131.827 29.2388C134.277 28.2239 136.224 26.2771 137.239 23.8268C138 21.9891 138 19.6594 138 15C138 10.3406 138 8.01088 137.239 6.17317C136.224 3.72288 134.277 1.77614 131.827 0.761205C129.989 0 127.659 0 123 0C118.341 0 116.011 0 114.173 0.761205C111.723 1.77614 109.776 3.72288 108.761 6.17317ZM129.707 11.7071C130.098 11.3166 130.098 10.6834 129.707 10.2929C129.317 9.90237 128.683 9.90237 128.293 10.2929L121 17.5858L117.707 14.2929C117.317 13.9024 116.683 13.9024 116.293 14.2929C115.902 14.6834 115.902 15.3166 116.293 15.7071L120.293 19.7071C120.48 19.8946 120.735 20 121 20C121.265 20 121.52 19.8946 121.707 19.7071L129.707 11.7071Z" fill="url(#paint4_linear_363_2874)"/>
<path fill-rule="evenodd" clip-rule="evenodd" d="M199.761 6.17317C199 8.01088 199 10.3406 199 15C199 19.6594 199 21.9891 199.761 23.8268C200.776 26.2771 202.723 28.2239 205.173 29.2388C207.011 30 209.341 30 214 30C218.659 30 220.989 30 222.827 29.2388C225.277 28.2239 227.224 26.2771 228.239 23.8268C229 21.9891 229 19.6594 229 15C229 10.3406 229 8.01088 228.239 6.17317C227.224 3.72288 225.277 1.77614 222.827 0.761205C220.989 0 218.659 0 214 0C209.341 0 207.011 0 205.173 0.761205C202.723 1.77614 200.776 3.72288 199.761 6.17317ZM220.707 11.7071C221.098 11.3166 221.098 10.6834 220.707 10.2929C220.317 9.90237 219.683 9.90237 219.293 10.2929L212 17.5858L208.707 14.2929C208.317 13.9024 207.683 13.9024 207.293 14.2929C206.902 14.6834 206.902 15.3166 207.293 15.7071L211.293 19.7071C211.48 19.8946 211.735 20 212 20C212.265 20 212.52 19.8946 212.707 19.7071L220.707 11.7071Z" fill="#D0CFD7"/>
<defs>
<linearGradient id="paint0_linear_363_2874" x1="32" y1="57" x2="32" y2="35" gradientUnits="userSpaceOnUse">
<stop stop-color="#5CCC94"/>
<stop offset="1" stop-color="#8CCAAE"/>
</linearGradient>
<linearGradient id="paint1_linear_363_2874" x1="123" y1="55" x2="123" y2="35" gradientUnits="userSpaceOnUse">
<stop stop-color="#5CCC94"/>
<stop offset="1" stop-color="#8CCAAE"/>
</linearGradient>
<linearGradient id="paint2_linear_363_2874" x1="76.5" y1="16" x2="76.5" y2="14" gradientUnits="userSpaceOnUse">
<stop stop-color="#5CCC94"/>
<stop offset="1" stop-color="#8CCAAE"/>
</linearGradient>
<linearGradient id="paint3_linear_363_2874" x1="32" y1="30" x2="32" y2="1.58545e-07" gradientUnits="userSpaceOnUse">
<stop stop-color="#5CCC94"/>
<stop offset="1" stop-color="#8CCAAE"/>
</linearGradient>
<linearGradient id="paint4_linear_363_2874" x1="123" y1="30" x2="123" y2="1.58545e-07" gradientUnits="userSpaceOnUse">
<stop stop-color="#5CCC94"/>
<stop offset="1" stop-color="#8CCAAE"/>
</linearGradient>
</defs>
</svg>
