<svg width="241" height="68" viewBox="0 0 241 68" fill="none" xmlns="http://www.w3.org/2000/svg">
<path d="M18.8076 41.7393H19.7061C19.6833 42.2275 19.584 42.6491 19.4082 43.0039C19.2357 43.3555 18.9834 43.6257 18.6514 43.8145C18.3226 44.0033 17.9108 44.0977 17.416 44.0977C17.0612 44.0977 16.7406 44.0277 16.4541 43.8877C16.1676 43.7477 15.9219 43.5475 15.7168 43.2871C15.515 43.0234 15.3604 42.7077 15.2529 42.3398C15.1455 41.972 15.0918 41.5586 15.0918 41.0996L15.0918 39.7861C15.0918 39.3304 15.1455 38.9186 15.2529 38.5508C15.3636 38.1829 15.5215 37.8688 15.7266 37.6084C15.9349 37.3447 16.1872 37.1429 16.4834 37.0029C16.7829 36.863 17.1214 36.793 17.499 36.793C17.9613 36.793 18.3519 36.8857 18.6709 37.0713C18.9932 37.2536 19.2406 37.5221 19.4131 37.877C19.5889 38.2285 19.6865 38.6598 19.7061 39.1709H18.8076C18.7848 38.7965 18.7262 38.4922 18.6318 38.2578C18.5374 38.0202 18.3975 37.846 18.2119 37.7354C18.0296 37.6214 17.792 37.5645 17.499 37.5645C17.2386 37.5645 17.0124 37.6165 16.8203 37.7207C16.6315 37.8249 16.4753 37.9746 16.3516 38.1699C16.2311 38.362 16.14 38.5947 16.0781 38.8682C16.0195 39.1383 15.9902 39.4411 15.9902 39.7764L15.9902 41.0996C15.9902 41.4121 16.0146 41.7035 16.0635 41.9736C16.1156 42.2438 16.1969 42.4814 16.3076 42.6865C16.4215 42.8883 16.5697 43.0462 16.752 43.1602C16.9342 43.2741 17.1556 43.3311 17.416 43.3311C17.7448 43.3311 18.0052 43.2773 18.1973 43.1699C18.3893 43.0625 18.5309 42.8916 18.6221 42.6572C18.7165 42.4229 18.7783 42.1169 18.8076 41.7393ZM16.7764 34.8301L17.3623 35.6602L17.9434 34.8301H18.6855V34.8789L17.6162 36.2168H17.1084L16.0537 34.8789V34.8301H16.7764ZM21.7373 38.7168V44H20.873V38.7168H21.7373ZM20.8242 37.9453L21.7715 36.5098L22.8604 36.5098L21.5518 37.9453H20.8242ZM25.7217 42.6475C25.7217 42.514 25.6891 42.3968 25.624 42.2959C25.5589 42.195 25.4515 42.0973 25.3018 42.0029C25.1553 41.9085 24.9567 41.8076 24.7061 41.7002C24.4619 41.5993 24.2422 41.5 24.0469 41.4023C23.8548 41.3014 23.6921 41.1924 23.5586 41.0752C23.4251 40.958 23.3226 40.8229 23.251 40.6699C23.1826 40.5137 23.1484 40.3298 23.1484 40.1182C23.1484 39.9066 23.1875 39.7113 23.2656 39.5322C23.347 39.3499 23.4609 39.1904 23.6074 39.0537C23.7539 38.917 23.9297 38.8112 24.1348 38.7363C24.3398 38.6582 24.5693 38.6191 24.8232 38.6191C25.1846 38.6191 25.4922 38.6891 25.7461 38.8291C26 38.9691 26.1937 39.1611 26.3271 39.4053C26.4639 39.6462 26.5322 39.918 26.5322 40.2207H25.6729C25.6729 40.0742 25.6403 39.9359 25.5752 39.8057C25.5101 39.6755 25.4141 39.5697 25.2871 39.4883C25.1602 39.4036 25.0055 39.3613 24.8232 39.3613C24.6312 39.3613 24.4749 39.3955 24.3545 39.4639C24.234 39.5322 24.1462 39.6217 24.0908 39.7324C24.0387 39.8398 24.0127 39.9587 24.0127 40.0889C24.0127 40.1865 24.0257 40.2712 24.0518 40.3428C24.0811 40.4111 24.1299 40.4762 24.1982 40.5381C24.2666 40.5967 24.3594 40.6585 24.4766 40.7236C24.597 40.7855 24.75 40.8571 24.9355 40.9385C25.2936 41.0785 25.5947 41.2201 25.8389 41.3633C26.083 41.5065 26.2686 41.6742 26.3955 41.8662C26.5225 42.0583 26.5859 42.2959 26.5859 42.5791C26.5859 42.8102 26.5436 43.0202 26.459 43.209C26.3776 43.3945 26.2604 43.554 26.1074 43.6875C25.9544 43.821 25.7705 43.9235 25.5557 43.9951C25.3441 44.0635 25.1064 44.0977 24.8428 44.0977C24.4456 44.0977 24.1087 44.0195 23.832 43.8633C23.5586 43.7038 23.3503 43.4971 23.207 43.2432C23.0671 42.986 22.9971 42.7109 22.9971 42.418H23.8613C23.8711 42.6654 23.9264 42.8574 24.0273 42.9941C24.1315 43.1309 24.2568 43.2253 24.4033 43.2773C24.5498 43.3294 24.6963 43.3555 24.8428 43.3555C25.0348 43.3555 25.196 43.3278 25.3262 43.2725C25.4564 43.2139 25.554 43.1309 25.6191 43.0234C25.6875 42.916 25.7217 42.7907 25.7217 42.6475ZM28.6465 36.5V44H27.7871V36.5H28.6465ZM29.833 41.6123V41.1094C29.833 40.6992 29.8851 40.3395 29.9893 40.0303C30.0934 39.7178 30.2383 39.4574 30.4238 39.249C30.6094 39.0407 30.8258 38.8844 31.0732 38.7803C31.3206 38.6729 31.5859 38.6191 31.8691 38.6191C32.1589 38.6191 32.4274 38.6729 32.6748 38.7803C32.9222 38.8844 33.1387 39.0407 33.3242 39.249C33.513 39.4574 33.6595 39.7178 33.7637 40.0303C33.8678 40.3395 33.9199 40.6992 33.9199 41.1094V41.6123C33.9199 42.0225 33.8678 42.3838 33.7637 42.6963C33.6595 43.0055 33.5146 43.2643 33.3291 43.4727C33.1436 43.681 32.9271 43.8372 32.6797 43.9414C32.4323 44.0456 32.1654 44.0977 31.8789 44.0977C31.5924 44.0977 31.3255 44.0456 31.0781 43.9414C30.8307 43.8372 30.6126 43.681 30.4238 43.4727C30.2383 43.2643 30.0934 43.0055 29.9893 42.6963C29.8851 42.3838 29.833 42.0225 29.833 41.6123ZM30.6973 41.1094V41.6123C30.6973 41.902 30.7266 42.1559 30.7852 42.374C30.8438 42.5921 30.9268 42.7744 31.0342 42.9209C31.1416 43.0674 31.2669 43.1781 31.4102 43.2529C31.5534 43.3245 31.7096 43.3604 31.8789 43.3604C32.0742 43.3604 32.2451 43.3245 32.3916 43.2529C32.5413 43.1781 32.665 43.0674 32.7627 42.9209C32.8604 42.7744 32.9336 42.5921 32.9824 42.374C33.0312 42.1559 33.0557 41.902 33.0557 41.6123V41.1094C33.0557 40.8197 33.0264 40.5674 32.9678 40.3525C32.9092 40.1344 32.8262 39.9521 32.7188 39.8057C32.6113 39.6559 32.4844 39.5452 32.3379 39.4736C32.1947 39.3988 32.0384 39.3613 31.8691 39.3613C31.7031 39.3613 31.5485 39.3988 31.4053 39.4736C31.262 39.5452 31.1367 39.6559 31.0293 39.8057C30.9251 39.9521 30.8438 40.1344 30.7852 40.3525C30.7266 40.5674 30.6973 40.8197 30.6973 41.1094ZM40.5557 42.2031C40.5557 42.0371 40.5361 41.8906 40.4971 41.7637C40.458 41.6335 40.3896 41.5163 40.292 41.4121C40.1943 41.3079 40.0576 41.2087 39.8818 41.1143C39.7061 41.0199 39.4831 40.9238 39.2129 40.8262C38.9199 40.722 38.6546 40.6064 38.417 40.4795C38.1794 40.3493 37.9759 40.2012 37.8066 40.0352C37.6406 39.8691 37.512 39.6787 37.4209 39.4639C37.3298 39.249 37.2842 39.0033 37.2842 38.7266C37.2842 38.4499 37.3314 38.1943 37.4258 37.96C37.5234 37.7256 37.6602 37.5221 37.8359 37.3496C38.015 37.1738 38.2298 37.0371 38.4805 36.9395C38.7311 36.8418 39.0111 36.793 39.3203 36.793C39.7826 36.793 40.1715 36.8955 40.4873 37.1006C40.8063 37.3024 41.0472 37.5677 41.21 37.8965C41.3727 38.222 41.4541 38.5703 41.4541 38.9414H40.5557C40.5557 38.6745 40.5117 38.4385 40.4238 38.2334C40.3392 38.0251 40.2057 37.8623 40.0234 37.7451C39.8444 37.6247 39.61 37.5645 39.3203 37.5645C39.0599 37.5645 38.8451 37.6149 38.6758 37.7158C38.5098 37.8167 38.3861 37.9535 38.3047 38.126C38.2266 38.2985 38.1875 38.4954 38.1875 38.7168C38.1875 38.8665 38.2135 39.0033 38.2656 39.127C38.3177 39.2474 38.3975 39.3597 38.5049 39.4639C38.6156 39.568 38.7523 39.6641 38.915 39.752C39.0811 39.8398 39.2764 39.9245 39.501 40.0059C39.8493 40.1198 40.1471 40.2467 40.3945 40.3867C40.6419 40.5267 40.8438 40.6846 41 40.8604C41.1562 41.0329 41.2702 41.2298 41.3418 41.4512C41.4167 41.6693 41.4541 41.9167 41.4541 42.1934C41.4541 42.4831 41.4053 42.7451 41.3076 42.9795C41.2132 43.2139 41.0749 43.4141 40.8926 43.5801C40.7103 43.7461 40.4906 43.8747 40.2334 43.9658C39.9762 44.0537 39.6865 44.0977 39.3643 44.0977C39.0843 44.0977 38.8092 44.0521 38.5391 43.9609C38.2721 43.8698 38.0296 43.7331 37.8115 43.5508C37.5934 43.3685 37.4193 43.1439 37.2891 42.877C37.1589 42.6068 37.0938 42.2943 37.0938 41.9395H37.9922C37.9922 42.1836 38.028 42.3936 38.0996 42.5693C38.1712 42.7419 38.2705 42.8851 38.3975 42.999C38.5244 43.113 38.6693 43.1976 38.832 43.2529C38.998 43.305 39.1755 43.3311 39.3643 43.3311C39.6247 43.3311 39.8428 43.2855 40.0186 43.1943C40.1976 43.1032 40.3311 42.973 40.4189 42.8037C40.5101 42.6344 40.5557 42.4342 40.5557 42.2031ZM44.8965 41.2119H43.3438V40.4453H44.8965C45.1895 40.4453 45.4255 40.3867 45.6045 40.2695C45.7868 40.1523 45.9186 39.9896 46 39.7812C46.0846 39.5729 46.127 39.3353 46.127 39.0684C46.127 38.8242 46.0846 38.5947 46 38.3799C45.9186 38.165 45.7868 37.9925 45.6045 37.8623C45.4255 37.7288 45.1895 37.6621 44.8965 37.6621H43.5293V44H42.6309V36.8906H44.8965C45.3555 36.8906 45.7428 36.9834 46.0586 37.1689C46.3743 37.3545 46.6136 37.6117 46.7764 37.9404C46.9424 38.266 47.0254 38.6387 47.0254 39.0586C47.0254 39.5143 46.9424 39.9033 46.7764 40.2256C46.6136 40.5479 46.3743 40.7936 46.0586 40.9629C45.7428 41.1289 45.3555 41.2119 44.8965 41.2119ZM52.0938 43.2334V44H48.0752V43.2334H52.0938ZM51.9668 37.5742L48.2852 44H47.7334V43.2969L51.4102 36.8906H51.9668V37.5742ZM51.5859 36.8906V37.6621H47.7627V36.8906H51.5859Z" fill="url(#paint0_linear_363_3404)"/>
<path d="M107.814 40.8906V48H106.916V40.8906H107.814ZM110.212 44.0889V44.8604H107.644V44.0889H110.212ZM110.617 40.8906V41.6621H107.644V40.8906H110.617ZM114.035 47.0967V44.2305C114.035 44.0221 114.003 43.8545 113.938 43.7275C113.876 43.6006 113.781 43.5078 113.654 43.4492C113.531 43.3906 113.374 43.3613 113.186 43.3613C113.003 43.3613 112.845 43.3988 112.712 43.4736C112.582 43.5485 112.481 43.6478 112.409 43.7715C112.341 43.8952 112.307 44.0319 112.307 44.1816H111.442C111.442 43.9928 111.483 43.8057 111.564 43.6201C111.649 43.4346 111.77 43.2669 111.926 43.1172C112.082 42.9642 112.269 42.8438 112.487 42.7559C112.709 42.6647 112.956 42.6191 113.229 42.6191C113.555 42.6191 113.843 42.6729 114.094 42.7803C114.344 42.8844 114.541 43.0553 114.685 43.293C114.828 43.5306 114.899 43.8464 114.899 44.2402V46.8477C114.899 47.0234 114.912 47.2106 114.938 47.4092C114.968 47.6077 115.008 47.7786 115.061 47.9219V48H114.167C114.125 47.8958 114.092 47.7575 114.069 47.585C114.047 47.4092 114.035 47.2464 114.035 47.0967ZM114.172 44.7969L114.182 45.4316H113.581C113.376 45.4316 113.189 45.4544 113.02 45.5C112.854 45.5456 112.71 45.6123 112.59 45.7002C112.469 45.7848 112.377 45.8906 112.312 46.0176C112.25 46.1445 112.219 46.2894 112.219 46.4521C112.219 46.6637 112.248 46.833 112.307 46.96C112.365 47.0837 112.453 47.1732 112.57 47.2285C112.688 47.2839 112.836 47.3115 113.015 47.3115C113.233 47.3115 113.425 47.2611 113.591 47.1602C113.757 47.0592 113.885 46.9372 113.977 46.7939C114.071 46.6507 114.115 46.5173 114.108 46.3936L114.299 46.7988C114.286 46.9258 114.243 47.0641 114.172 47.2139C114.104 47.3604 114.007 47.502 113.884 47.6387C113.76 47.7721 113.614 47.8828 113.444 47.9707C113.278 48.0553 113.091 48.0977 112.883 48.0977C112.577 48.0977 112.308 48.0391 112.077 47.9219C111.849 47.8047 111.672 47.6322 111.545 47.4043C111.418 47.1764 111.354 46.8949 111.354 46.5596C111.354 46.3057 111.398 46.0713 111.486 45.8564C111.574 45.6416 111.704 45.4561 111.877 45.2998C112.049 45.1403 112.266 45.0166 112.526 44.9287C112.79 44.8408 113.094 44.7969 113.439 44.7969H114.172ZM117.111 40.5V48H116.247V40.5H117.111ZM119.792 42.7168L117.912 45.1826L116.75 46.5205L116.691 45.5586L117.492 44.4551L118.752 42.7168H119.792ZM119.001 48L117.517 45.4805L117.961 44.6748L120.007 48H119.001ZM122.683 42.7168V43.4102H120.217V42.7168H122.683ZM121.022 41.4326H121.887V46.6914C121.887 46.8704 121.908 47.0055 121.95 47.0967C121.996 47.1878 122.053 47.248 122.121 47.2773C122.189 47.3066 122.263 47.3213 122.341 47.3213C122.399 47.3213 122.465 47.3148 122.536 47.3018C122.608 47.2855 122.657 47.2725 122.683 47.2627L122.678 48C122.619 48.0228 122.541 48.0439 122.443 48.0635C122.346 48.0863 122.222 48.0977 122.072 48.0977C121.887 48.0977 121.714 48.0537 121.555 47.9658C121.395 47.8779 121.267 47.7314 121.169 47.5264C121.071 47.318 121.022 47.0381 121.022 46.6865V41.4326ZM126.384 46.7793V42.7168H127.248V48H126.428L126.384 46.7793ZM126.545 45.666L126.887 45.6562C126.887 46.0078 126.856 46.3333 126.794 46.6328C126.735 46.929 126.638 47.1862 126.501 47.4043C126.368 47.6224 126.19 47.7933 125.969 47.917C125.747 48.0374 125.476 48.0977 125.153 48.0977C124.935 48.0977 124.737 48.0602 124.558 47.9854C124.382 47.9105 124.229 47.7949 124.099 47.6387C123.972 47.4824 123.872 47.279 123.801 47.0283C123.732 46.7777 123.698 46.4766 123.698 46.125V42.7168H124.558V46.1348C124.558 46.3724 124.579 46.5693 124.621 46.7256C124.663 46.8786 124.72 47.0007 124.792 47.0918C124.864 47.1797 124.943 47.2415 125.031 47.2773C125.119 47.3132 125.209 47.3311 125.3 47.3311C125.606 47.3311 125.85 47.2578 126.032 47.1113C126.215 46.9616 126.345 46.7614 126.423 46.5107C126.504 46.2568 126.545 45.9753 126.545 45.666ZM129.411 43.5469V48H128.547V42.7168H129.382L129.411 43.5469ZM130.725 42.6875L130.729 43.5273C130.658 43.5111 130.593 43.5013 130.534 43.498C130.479 43.4915 130.414 43.4883 130.339 43.4883C130.176 43.4883 130.033 43.5208 129.909 43.5859C129.789 43.651 129.685 43.7422 129.597 43.8594C129.509 43.9766 129.439 44.1165 129.387 44.2793C129.335 44.4388 129.299 44.6146 129.279 44.8066L129.055 44.9531C129.055 44.6341 129.079 44.3346 129.128 44.0547C129.18 43.7747 129.26 43.5273 129.367 43.3125C129.475 43.0944 129.611 42.9251 129.777 42.8047C129.947 42.681 130.148 42.6191 130.383 42.6191C130.435 42.6191 130.498 42.6273 130.573 42.6436C130.651 42.6566 130.702 42.6712 130.725 42.6875ZM133.986 47.0967V44.2305C133.986 44.0221 133.954 43.8545 133.889 43.7275C133.827 43.6006 133.732 43.5078 133.605 43.4492C133.482 43.3906 133.326 43.3613 133.137 43.3613C132.954 43.3613 132.797 43.3988 132.663 43.4736C132.533 43.5485 132.432 43.6478 132.36 43.7715C132.292 43.8952 132.258 44.0319 132.258 44.1816H131.394C131.394 43.9928 131.434 43.8057 131.516 43.6201C131.6 43.4346 131.721 43.2669 131.877 43.1172C132.033 42.9642 132.22 42.8437 132.438 42.7559C132.66 42.6647 132.907 42.6191 133.181 42.6191C133.506 42.6191 133.794 42.6729 134.045 42.7803C134.296 42.8844 134.493 43.0553 134.636 43.293C134.779 43.5306 134.851 43.8464 134.851 44.2402V46.8477C134.851 47.0234 134.864 47.2106 134.89 47.4092C134.919 47.6077 134.96 47.7786 135.012 47.9219V48H134.118C134.076 47.8958 134.043 47.7575 134.021 47.585C133.998 47.4092 133.986 47.2464 133.986 47.0967ZM134.123 44.7969L134.133 45.4316L133.532 45.4316C133.327 45.4316 133.14 45.4544 132.971 45.5C132.805 45.5456 132.661 45.6123 132.541 45.7002C132.421 45.7848 132.328 45.8906 132.263 46.0176C132.201 46.1445 132.17 46.2894 132.17 46.4521C132.17 46.6637 132.199 46.833 132.258 46.96C132.316 47.0837 132.404 47.1732 132.521 47.2285C132.639 47.2839 132.787 47.3115 132.966 47.3115C133.184 47.3115 133.376 47.2611 133.542 47.1602C133.708 47.0592 133.837 46.9372 133.928 46.7939C134.022 46.6507 134.066 46.5173 134.06 46.3936L134.25 46.7988C134.237 46.9258 134.195 47.0641 134.123 47.2139C134.055 47.3604 133.959 47.502 133.835 47.6387C133.711 47.7721 133.565 47.8828 133.396 47.9707C133.229 48.0553 133.042 48.0977 132.834 48.0977C132.528 48.0977 132.259 48.0391 132.028 47.9219C131.8 47.8047 131.623 47.6322 131.496 47.4043C131.369 47.1764 131.306 46.8949 131.306 46.5596C131.306 46.3057 131.35 46.0713 131.438 45.8564C131.525 45.6416 131.656 45.4561 131.828 45.2998C132.001 45.1403 132.217 45.0166 132.478 44.9287C132.741 44.8408 133.046 44.7969 133.391 44.7969L134.123 44.7969ZM138.024 47.3604C138.197 47.3604 138.353 47.3262 138.493 47.2578C138.636 47.1862 138.754 47.0755 138.845 46.9258C138.936 46.7728 138.988 46.5742 139.001 46.3301H139.812C139.799 46.6816 139.709 46.9909 139.543 47.2578C139.38 47.5215 139.165 47.7282 138.898 47.8779C138.635 48.0244 138.343 48.0977 138.024 48.0977C137.683 48.0977 137.385 48.0423 137.131 47.9316C136.88 47.821 136.672 47.6615 136.506 47.4531C136.343 47.2415 136.221 46.986 136.14 46.6865C136.058 46.3838 136.018 46.0404 136.018 45.6562V45.0605C136.018 44.6764 136.058 44.3346 136.14 44.0352C136.221 43.7324 136.343 43.4769 136.506 43.2686C136.672 43.057 136.88 42.8958 137.131 42.7852C137.385 42.6745 137.683 42.6191 138.024 42.6191C138.382 42.6191 138.692 42.6956 138.952 42.8486C139.216 42.9984 139.421 43.2165 139.567 43.5029C139.717 43.7861 139.799 44.1296 139.812 44.5332H139.001C138.988 44.2728 138.941 44.0563 138.859 43.8838C138.778 43.708 138.667 43.5778 138.527 43.4932C138.387 43.4053 138.22 43.3613 138.024 43.3613C137.797 43.3613 137.608 43.402 137.458 43.4834C137.312 43.5615 137.196 43.6755 137.111 43.8252C137.027 43.9749 136.966 44.154 136.931 44.3623C136.898 44.5706 136.882 44.8034 136.882 45.0605V45.6562C136.882 45.9134 136.898 46.1478 136.931 46.3594C136.966 46.5677 137.025 46.7467 137.106 46.8965C137.191 47.0462 137.308 47.1618 137.458 47.2432C137.608 47.3213 137.797 47.3604 138.024 47.3604ZM142.702 48.0977C142.386 48.0977 142.102 48.0505 141.848 47.9561C141.594 47.8617 141.377 47.7184 141.198 47.5264C141.019 47.3311 140.882 47.0853 140.788 46.7891C140.694 46.4928 140.646 46.1429 140.646 45.7393V45.1436C140.646 44.6781 140.7 44.2842 140.808 43.9619C140.918 43.6396 141.066 43.3809 141.252 43.1855C141.438 42.987 141.647 42.8437 141.882 42.7559C142.116 42.6647 142.357 42.6191 142.604 42.6191C142.937 42.6191 143.22 42.6729 143.454 42.7803C143.688 42.8877 143.879 43.0472 144.025 43.2588C144.172 43.4704 144.279 43.7308 144.348 44.04C144.419 44.3493 144.455 44.7057 144.455 45.1094V45.6123H141.154V44.875H143.591V44.7529C143.578 44.4795 143.54 44.2386 143.479 44.0303C143.42 43.8219 143.322 43.6592 143.186 43.542C143.049 43.4215 142.855 43.3613 142.604 43.3613C142.445 43.3613 142.297 43.389 142.16 43.4443C142.027 43.4964 141.911 43.5892 141.813 43.7227C141.719 43.8529 141.644 44.0335 141.589 44.2646C141.537 44.4958 141.511 44.7887 141.511 45.1436V45.7393C141.511 46.0225 141.537 46.2666 141.589 46.4717C141.644 46.6735 141.724 46.8411 141.828 46.9746C141.936 47.1048 142.066 47.2025 142.219 47.2676C142.375 47.3294 142.552 47.3604 142.751 47.3604C143.041 47.3604 143.28 47.305 143.469 47.1943C143.658 47.0804 143.822 46.9355 143.962 46.7598L144.416 47.3018C144.322 47.4352 144.198 47.5638 144.045 47.6875C143.895 47.8079 143.71 47.9072 143.488 47.9854C143.27 48.0602 143.008 48.0977 142.702 48.0977Z" fill="#E0E0E9"/>
<path d="M202.473 39.8301V41.0654C202.473 41.5667 202.417 42.0078 202.307 42.3887C202.199 42.7663 202.041 43.082 201.833 43.3359C201.625 43.5898 201.374 43.7803 201.081 43.9072C200.788 44.0342 200.458 44.0977 200.09 44.0977C199.735 44.0977 199.411 44.0342 199.118 43.9072C198.825 43.7803 198.573 43.5898 198.361 43.3359C198.15 43.082 197.985 42.7663 197.868 42.3887C197.754 42.0078 197.697 41.5667 197.697 41.0654V39.8301C197.697 39.3288 197.754 38.8893 197.868 38.5117C197.982 38.1309 198.145 37.8135 198.356 37.5596C198.568 37.3057 198.82 37.1152 199.113 36.9883C199.406 36.8581 199.73 36.793 200.085 36.793C200.453 36.793 200.783 36.8581 201.076 36.9883C201.372 37.1152 201.623 37.3057 201.828 37.5596C202.036 37.8135 202.196 38.1309 202.307 38.5117C202.417 38.8893 202.473 39.3288 202.473 39.8301ZM201.584 41.0654V39.8203C201.584 39.4297 201.551 39.0944 201.486 38.8145C201.421 38.5312 201.325 38.3001 201.198 38.1211C201.071 37.9421 200.915 37.8102 200.729 37.7256C200.544 37.6377 200.329 37.5938 200.085 37.5938C199.854 37.5938 199.646 37.6377 199.46 37.7256C199.278 37.8102 199.121 37.9421 198.991 38.1211C198.861 38.3001 198.76 38.5312 198.688 38.8145C198.62 39.0944 198.586 39.4297 198.586 39.8203V41.0654C198.586 41.4593 198.62 41.7979 198.688 42.0811C198.76 42.361 198.861 42.5921 198.991 42.7744C199.125 42.9535 199.284 43.0869 199.47 43.1748C199.655 43.2594 199.862 43.3018 200.09 43.3018C200.334 43.3018 200.549 43.2594 200.734 43.1748C200.923 43.0869 201.079 42.9535 201.203 42.7744C201.33 42.5921 201.424 42.361 201.486 42.0811C201.551 41.7979 201.584 41.4593 201.584 41.0654ZM205.114 43.1846L206.247 38.7168H207.126L205.559 44H204.987L205.114 43.1846ZM204.201 38.7168L205.383 43.209L205.476 44H204.909L203.322 38.7168H204.201ZM209.846 44.0977C209.53 44.0977 209.245 44.0505 208.991 43.9561C208.737 43.8617 208.521 43.7184 208.342 43.5264C208.163 43.3311 208.026 43.0853 207.932 42.7891C207.837 42.4928 207.79 42.1429 207.79 41.7393V41.1436C207.79 40.6781 207.844 40.2842 207.951 39.9619C208.062 39.6396 208.21 39.3809 208.396 39.1855C208.581 38.987 208.791 38.8438 209.025 38.7559C209.26 38.6647 209.501 38.6191 209.748 38.6191C210.08 38.6191 210.363 38.6729 210.598 38.7803C210.832 38.8877 211.022 39.0472 211.169 39.2588C211.315 39.4704 211.423 39.7308 211.491 40.04C211.563 40.3493 211.599 40.7057 211.599 41.1094V41.6123H208.298V40.875H210.734V40.7529C210.721 40.4795 210.684 40.2386 210.622 40.0303C210.563 39.8219 210.466 39.6592 210.329 39.542C210.192 39.4215 209.999 39.3613 209.748 39.3613C209.589 39.3613 209.44 39.389 209.304 39.4443C209.17 39.4964 209.055 39.5892 208.957 39.7227C208.863 39.8529 208.788 40.0335 208.732 40.2646C208.68 40.4958 208.654 40.7887 208.654 41.1436V41.7393C208.654 42.0225 208.68 42.2666 208.732 42.4717C208.788 42.6735 208.868 42.8411 208.972 42.9746C209.079 43.1048 209.209 43.2025 209.362 43.2676C209.519 43.3294 209.696 43.3604 209.895 43.3604C210.184 43.3604 210.424 43.305 210.612 43.1943C210.801 43.0804 210.965 42.9355 211.105 42.7598L211.56 43.3018C211.465 43.4352 211.341 43.5638 211.188 43.6875C211.039 43.8079 210.853 43.9072 210.632 43.9854C210.414 44.0602 210.152 44.0977 209.846 44.0977ZM209.128 36.5049L209.714 37.335L210.295 36.5049H211.037V36.5537L209.968 37.8916H209.46L208.405 36.5537V36.5049H209.128ZM213.508 39.5469V44H212.644V38.7168H213.479L213.508 39.5469ZM214.821 38.6875L214.826 39.5273C214.755 39.5111 214.689 39.5013 214.631 39.498C214.576 39.4915 214.51 39.4883 214.436 39.4883C214.273 39.4883 214.13 39.5208 214.006 39.5859C213.885 39.651 213.781 39.7422 213.693 39.8594C213.605 39.9766 213.535 40.1165 213.483 40.2793C213.431 40.4388 213.396 40.6146 213.376 40.8066L213.151 40.9531C213.151 40.6341 213.176 40.3346 213.225 40.0547C213.277 39.7747 213.356 39.5273 213.464 39.3125C213.571 39.0944 213.708 38.9251 213.874 38.8047C214.043 38.681 214.245 38.6191 214.479 38.6191C214.532 38.6191 214.595 38.6273 214.67 38.6436C214.748 38.6566 214.799 38.6712 214.821 38.6875ZM213.171 36.5049L213.757 37.335L214.338 36.5049H215.08V36.5537L214.011 37.8916L213.503 37.8916L212.448 36.5537V36.5049H213.171ZM217.482 44.0977C217.167 44.0977 216.882 44.0505 216.628 43.9561C216.374 43.8617 216.158 43.7184 215.979 43.5264C215.799 43.3311 215.663 43.0853 215.568 42.7891C215.474 42.4928 215.427 42.1429 215.427 41.7393V41.1436C215.427 40.6781 215.48 40.2842 215.588 39.9619C215.699 39.6396 215.847 39.3809 216.032 39.1855C216.218 38.987 216.428 38.8437 216.662 38.7559C216.896 38.6647 217.137 38.6191 217.385 38.6191C217.717 38.6191 218 38.6729 218.234 38.7803C218.469 38.8877 218.659 39.0472 218.806 39.2588C218.952 39.4704 219.06 39.7308 219.128 40.04C219.2 40.3493 219.235 40.7057 219.235 41.1094V41.6123H215.935V40.875H218.371V40.7529C218.358 40.4795 218.321 40.2386 218.259 40.0303C218.2 39.8219 218.103 39.6592 217.966 39.542C217.829 39.4215 217.635 39.3613 217.385 39.3613C217.225 39.3613 217.077 39.389 216.94 39.4443C216.807 39.4964 216.691 39.5892 216.594 39.7227C216.499 39.8529 216.424 40.0335 216.369 40.2646C216.317 40.4958 216.291 40.7887 216.291 41.1436V41.7393C216.291 42.0225 216.317 42.2666 216.369 42.4717C216.424 42.6735 216.504 42.8411 216.608 42.9746C216.716 43.1048 216.846 43.2025 216.999 43.2676C217.155 43.3294 217.333 43.3604 217.531 43.3604C217.821 43.3604 218.06 43.305 218.249 43.1943C218.438 43.0804 218.602 42.9355 218.742 42.7598L219.196 43.3018C219.102 43.4352 218.978 43.5638 218.825 43.6875C218.675 43.8079 218.49 43.9072 218.269 43.9854C218.05 44.0602 217.788 44.0977 217.482 44.0977ZM221.145 39.8447V44H220.28V38.7168H221.096L221.145 39.8447ZM220.935 41.1582L220.583 41.1436C220.58 40.7822 220.62 40.4486 220.705 40.1426C220.793 39.8333 220.917 39.5648 221.076 39.3369C221.239 39.109 221.433 38.9333 221.657 38.8096C221.882 38.6826 222.131 38.6191 222.404 38.6191C222.619 38.6191 222.814 38.6549 222.99 38.7266C223.166 38.7949 223.316 38.9056 223.439 39.0586C223.563 39.2116 223.658 39.4102 223.723 39.6543C223.791 39.8952 223.825 40.1898 223.825 40.5381V44H222.961V40.5283C222.961 40.2516 222.93 40.0303 222.868 39.8643C222.81 39.695 222.718 39.5729 222.595 39.498C222.474 39.4199 222.321 39.3809 222.136 39.3809C221.966 39.3809 221.809 39.4281 221.662 39.5225C221.516 39.6169 221.387 39.7471 221.276 39.9131C221.169 40.0791 221.084 40.2695 221.022 40.4844C220.964 40.696 220.935 40.9206 220.935 41.1582ZM226.057 38.7168V44H225.192V38.7168H226.057ZM225.144 37.9453L226.091 36.5098H227.18L225.871 37.9453H225.144ZM232.36 43.0967V40.2305C232.36 40.0221 232.328 39.8545 232.263 39.7275C232.201 39.6006 232.106 39.5078 231.979 39.4492C231.856 39.3906 231.7 39.3613 231.511 39.3613C231.328 39.3613 231.171 39.3988 231.037 39.4736C230.907 39.5485 230.806 39.6478 230.734 39.7715C230.666 39.8952 230.632 40.0319 230.632 40.1816H229.768C229.768 39.9928 229.808 39.8057 229.89 39.6201C229.974 39.4346 230.095 39.2669 230.251 39.1172C230.407 38.9642 230.594 38.8437 230.812 38.7559C231.034 38.6647 231.281 38.6191 231.555 38.6191C231.88 38.6191 232.168 38.6729 232.419 38.7803C232.67 38.8844 232.867 39.0553 233.01 39.293C233.153 39.5306 233.225 39.8464 233.225 40.2402V42.8477C233.225 43.0234 233.238 43.2106 233.264 43.4092C233.293 43.6077 233.334 43.7786 233.386 43.9219V44H232.492C232.45 43.8958 232.417 43.7575 232.395 43.585C232.372 43.4092 232.36 43.2464 232.36 43.0967ZM232.497 40.7969L232.507 41.4316H231.906C231.701 41.4316 231.514 41.4544 231.345 41.5C231.179 41.5456 231.035 41.6123 230.915 41.7002C230.795 41.7848 230.702 41.8906 230.637 42.0176C230.575 42.1445 230.544 42.2894 230.544 42.4521C230.544 42.6637 230.573 42.833 230.632 42.96C230.69 43.0837 230.778 43.1732 230.896 43.2285C231.013 43.2839 231.161 43.3115 231.34 43.3115C231.558 43.3115 231.75 43.2611 231.916 43.1602C232.082 43.0592 232.211 42.9372 232.302 42.7939C232.396 42.6507 232.44 42.5173 232.434 42.3936L232.624 42.7988C232.611 42.9258 232.569 43.0641 232.497 43.2139C232.429 43.3604 232.333 43.502 232.209 43.6387C232.085 43.7721 231.939 43.8828 231.77 43.9707C231.604 44.0553 231.416 44.0977 231.208 44.0977C230.902 44.0977 230.633 44.0391 230.402 43.9219C230.174 43.8047 229.997 43.6322 229.87 43.4043C229.743 43.1764 229.68 42.8949 229.68 42.5596C229.68 42.3057 229.724 42.0713 229.812 41.8564C229.899 41.6416 230.03 41.4561 230.202 41.2998C230.375 41.1403 230.591 41.0166 230.852 40.9287C231.115 40.8408 231.42 40.7969 231.765 40.7969H232.497ZM204.66 50.7324V57.0312H203.796V49.7168H204.582L204.66 50.7324ZM207.614 52.1191V52.6123C207.614 53.029 207.575 53.3936 207.497 53.7061C207.422 54.0153 207.31 54.2741 207.16 54.4824C207.014 54.6875 206.833 54.8421 206.618 54.9463C206.403 55.0472 206.158 55.0977 205.881 55.0977C205.604 55.0977 205.363 55.0456 205.158 54.9414C204.956 54.834 204.785 54.6794 204.646 54.4775C204.509 54.2757 204.4 54.0332 204.318 53.75C204.24 53.4635 204.187 53.1429 204.157 52.7881V52.0361C204.187 51.6618 204.24 51.3265 204.318 51.0303C204.396 50.7308 204.504 50.4769 204.641 50.2686C204.781 50.057 204.951 49.8958 205.153 49.7852C205.358 49.6745 205.598 49.6191 205.871 49.6191C206.154 49.6191 206.403 49.668 206.618 49.7656C206.836 49.8633 207.019 50.0146 207.165 50.2197C207.315 50.4215 207.427 50.6803 207.502 50.9961C207.577 51.3086 207.614 51.6829 207.614 52.1191ZM206.75 52.6123V52.1191C206.75 51.8262 206.727 51.5706 206.682 51.3525C206.639 51.1344 206.571 50.9538 206.477 50.8105C206.382 50.6673 206.263 50.5599 206.12 50.4883C205.977 50.4167 205.804 50.3809 205.603 50.3809C205.43 50.3809 205.277 50.4167 205.144 50.4883C205.013 50.5599 204.901 50.6576 204.807 50.7812C204.712 50.9017 204.634 51.04 204.572 51.1963C204.51 51.3493 204.465 51.5088 204.436 51.6748V53.1543C204.491 53.3626 204.564 53.5596 204.655 53.7451C204.746 53.9274 204.868 54.0755 205.021 54.1895C205.178 54.3034 205.375 54.3604 205.612 54.3604C205.811 54.3604 205.982 54.3245 206.125 54.2529C206.268 54.1813 206.385 54.0739 206.477 53.9307C206.571 53.7842 206.639 53.6019 206.682 53.3838C206.727 53.1624 206.75 52.9053 206.75 52.6123ZM209.655 47.5V55H208.796V47.5H209.655ZM213.61 54.0967V51.2305C213.61 51.0221 213.578 50.8545 213.513 50.7275C213.451 50.6006 213.356 50.5078 213.229 50.4492C213.106 50.3906 212.95 50.3613 212.761 50.3613C212.578 50.3613 212.421 50.3988 212.287 50.4736C212.157 50.5485 212.056 50.6478 211.984 50.7715C211.916 50.8952 211.882 51.0319 211.882 51.1816H211.018C211.018 50.9928 211.058 50.8057 211.14 50.6201C211.224 50.4346 211.345 50.2669 211.501 50.1172C211.657 49.9642 211.844 49.8438 212.062 49.7559C212.284 49.6647 212.531 49.6191 212.805 49.6191C213.13 49.6191 213.418 49.6729 213.669 49.7803C213.92 49.8844 214.117 50.0553 214.26 50.293C214.403 50.5306 214.475 50.8464 214.475 51.2402V53.8477C214.475 54.0234 214.488 54.2106 214.514 54.4092C214.543 54.6077 214.584 54.7786 214.636 54.9219V55H213.742C213.7 54.8958 213.667 54.7575 213.645 54.585C213.622 54.4092 213.61 54.2464 213.61 54.0967ZM213.747 51.7969L213.757 52.4316H213.156C212.951 52.4316 212.764 52.4544 212.595 52.5C212.429 52.5456 212.285 52.6123 212.165 52.7002C212.045 52.7848 211.952 52.8906 211.887 53.0176C211.825 53.1445 211.794 53.2894 211.794 53.4521C211.794 53.6637 211.823 53.833 211.882 53.96C211.94 54.0837 212.028 54.1732 212.146 54.2285C212.263 54.2839 212.411 54.3115 212.59 54.3115C212.808 54.3115 213 54.2611 213.166 54.1602C213.332 54.0592 213.461 53.9372 213.552 53.7939C213.646 53.6507 213.69 53.5173 213.684 53.3936L213.874 53.7988C213.861 53.9258 213.819 54.0641 213.747 54.2139C213.679 54.3604 213.583 54.502 213.459 54.6387C213.335 54.7721 213.189 54.8828 213.02 54.9707C212.854 55.0553 212.666 55.0977 212.458 55.0977C212.152 55.0977 211.883 55.0391 211.652 54.9219C211.424 54.8047 211.247 54.6322 211.12 54.4043C210.993 54.1764 210.93 53.8949 210.93 53.5596C210.93 53.3057 210.974 53.0713 211.062 52.8564C211.149 52.6416 211.28 52.4561 211.452 52.2998C211.625 52.1403 211.841 52.0166 212.102 51.9287C212.365 51.8408 212.67 51.7969 213.015 51.7969H213.747ZM217.746 49.7168V50.4102H215.28V49.7168H217.746ZM216.086 48.4326H216.95V53.6914C216.95 53.8704 216.971 54.0055 217.014 54.0967C217.059 54.1878 217.116 54.248 217.185 54.2773C217.253 54.3066 217.326 54.3213 217.404 54.3213C217.463 54.3213 217.528 54.3148 217.6 54.3018C217.671 54.2855 217.72 54.2725 217.746 54.2627L217.741 55C217.683 55.0228 217.604 55.0439 217.507 55.0635C217.409 55.0863 217.285 55.0977 217.136 55.0977C216.95 55.0977 216.778 55.0537 216.618 54.9658C216.459 54.8779 216.33 54.7314 216.232 54.5264C216.135 54.318 216.086 54.0381 216.086 53.6865V48.4326ZM218.776 47.5H219.641V53.9746L219.567 55H218.776V47.5ZM222.604 52.1191V52.6123C222.604 53.029 222.565 53.3936 222.487 53.7061C222.412 54.0153 222.3 54.2741 222.15 54.4824C222.001 54.6875 221.818 54.8421 221.604 54.9463C221.389 55.0472 221.143 55.0977 220.866 55.0977C220.593 55.0977 220.357 55.0423 220.158 54.9316C219.96 54.821 219.794 54.6615 219.66 54.4531C219.527 54.2448 219.421 53.9925 219.343 53.6963C219.268 53.4001 219.216 53.0664 219.187 52.6953V52.0361C219.216 51.6618 219.268 51.3265 219.343 51.0303C219.418 50.7308 219.522 50.4769 219.655 50.2686C219.789 50.057 219.955 49.8958 220.153 49.7852C220.352 49.6745 220.588 49.6191 220.861 49.6191C221.141 49.6191 221.389 49.668 221.604 49.7656C221.822 49.8633 222.004 50.0146 222.15 50.2197C222.3 50.4215 222.412 50.6803 222.487 50.9961C222.565 51.3086 222.604 51.6829 222.604 52.1191ZM221.74 52.6123V52.1191C221.74 51.8262 221.721 51.5706 221.682 51.3525C221.646 51.1344 221.586 50.9538 221.501 50.8105C221.416 50.6673 221.302 50.5599 221.159 50.4883C221.019 50.4167 220.845 50.3809 220.637 50.3809C220.461 50.3809 220.306 50.4167 220.173 50.4883C220.043 50.5599 219.93 50.6576 219.836 50.7812C219.742 50.9017 219.663 51.04 219.602 51.1963C219.54 51.3493 219.494 51.5088 219.465 51.6748V53.0615C219.507 53.2731 219.574 53.4766 219.665 53.6719C219.759 53.8639 219.886 54.0218 220.046 54.1455C220.205 54.2692 220.404 54.3311 220.642 54.3311C220.84 54.3311 221.008 54.2969 221.145 54.2285C221.285 54.1602 221.398 54.056 221.486 53.916C221.574 53.7728 221.638 53.5938 221.677 53.3789C221.719 53.1608 221.74 52.9053 221.74 52.6123ZM226.296 54.0967V51.2305C226.296 51.0221 226.263 50.8545 226.198 50.7275C226.136 50.6006 226.042 50.5078 225.915 50.4492C225.791 50.3906 225.635 50.3613 225.446 50.3613C225.264 50.3613 225.106 50.3988 224.973 50.4736C224.842 50.5485 224.742 50.6478 224.67 50.7715C224.602 50.8952 224.567 51.0319 224.567 51.1816L223.703 51.1816C223.703 50.9928 223.744 50.8057 223.825 50.6201C223.91 50.4346 224.03 50.2669 224.187 50.1172C224.343 49.9642 224.53 49.8437 224.748 49.7559C224.969 49.6647 225.217 49.6191 225.49 49.6191C225.816 49.6191 226.104 49.6729 226.354 49.7803C226.605 49.8844 226.802 50.0553 226.945 50.293C227.089 50.5306 227.16 50.8464 227.16 51.2402V53.8477C227.16 54.0234 227.173 54.2106 227.199 54.4092C227.229 54.6077 227.269 54.7786 227.321 54.9219V55H226.428C226.385 54.8958 226.353 54.7575 226.33 54.585C226.307 54.4092 226.296 54.2464 226.296 54.0967ZM226.433 51.7969L226.442 52.4316H225.842C225.637 52.4316 225.45 52.4544 225.28 52.5C225.114 52.5456 224.971 52.6123 224.851 52.7002C224.73 52.7848 224.637 52.8906 224.572 53.0176C224.51 53.1445 224.479 53.2894 224.479 53.4521C224.479 53.6637 224.509 53.833 224.567 53.96C224.626 54.0837 224.714 54.1732 224.831 54.2285C224.948 54.2839 225.096 54.3115 225.275 54.3115C225.493 54.3115 225.686 54.2611 225.852 54.1602C226.018 54.0592 226.146 53.9372 226.237 53.7939C226.332 53.6507 226.376 53.5173 226.369 53.3936L226.56 53.7988C226.547 53.9258 226.504 54.0641 226.433 54.2139C226.364 54.3604 226.268 54.502 226.145 54.6387C226.021 54.7721 225.874 54.8828 225.705 54.9707C225.539 55.0553 225.352 55.0977 225.144 55.0977C224.838 55.0977 224.569 55.0391 224.338 54.9219C224.11 54.8047 223.933 54.6322 223.806 54.4043C223.679 54.1764 223.615 53.8949 223.615 53.5596C223.615 53.3057 223.659 53.0713 223.747 52.8564C223.835 52.6416 223.965 52.4561 224.138 52.2998C224.31 52.1403 224.527 52.0166 224.787 51.9287C225.051 51.8408 225.355 51.7969 225.7 51.7969H226.433Z" fill="#E0E0E9"/>
<path fill-rule="evenodd" clip-rule="evenodd" d="M205 16L138 16V14L205 14V16Z" fill="#D0CFD7"/>
<path fill-rule="evenodd" clip-rule="evenodd" d="M112 16L45 16V14L112 14V16Z" fill="#D0CFD7"/>
<path fill-rule="evenodd" clip-rule="evenodd" d="M19.7612 6.17317C19 8.01088 19 10.3406 19 15C19 19.6594 19 21.9891 19.7612 23.8268C20.7761 26.2771 22.7229 28.2239 25.1732 29.2388C27.0109 30 29.3406 30 34 30C38.6594 30 40.9891 30 42.8268 29.2388C45.2771 28.2239 47.2239 26.2771 48.2388 23.8268C49 21.9891 49 19.6594 49 15C49 10.3406 49 8.01088 48.2388 6.17317C47.2239 3.72288 45.2771 1.77614 42.8268 0.761205C40.9891 0 38.6594 0 34 0C29.3406 0 27.0109 0 25.1732 0.761205C22.7229 1.77614 20.7761 3.72288 19.7612 6.17317ZM40.7071 11.7071C41.0976 11.3166 41.0976 10.6834 40.7071 10.2929C40.3166 9.90237 39.6834 9.90237 39.2929 10.2929L32 17.5858L28.7071 14.2929C28.3166 13.9024 27.6834 13.9024 27.2929 14.2929C26.9024 14.6834 26.9024 15.3166 27.2929 15.7071L31.2929 19.7071C31.4804 19.8946 31.7348 20 32 20C32.2652 20 32.5196 19.8946 32.7071 19.7071L40.7071 11.7071Z" fill="url(#paint1_linear_363_3404)"/>
<path fill-rule="evenodd" clip-rule="evenodd" d="M201.761 6.17317C201 8.01088 201 10.3406 201 15C201 19.6594 201 21.9891 201.761 23.8268C202.776 26.2771 204.723 28.2239 207.173 29.2388C209.011 30 211.341 30 216 30C220.659 30 222.989 30 224.827 29.2388C227.277 28.2239 229.224 26.2771 230.239 23.8268C231 21.9891 231 19.6594 231 15C231 10.3406 231 8.01088 230.239 6.17317C229.224 3.72288 227.277 1.77614 224.827 0.761205C222.989 0 220.659 0 216 0C211.341 0 209.011 0 207.173 0.761205C204.723 1.77614 202.776 3.72288 201.761 6.17317ZM222.707 11.7071C223.098 11.3166 223.098 10.6834 222.707 10.2929C222.317 9.90237 221.683 9.90237 221.293 10.2929L214 17.5858L210.707 14.2929C210.317 13.9024 209.683 13.9024 209.293 14.2929C208.902 14.6834 208.902 15.3166 209.293 15.7071L213.293 19.7071C213.48 19.8946 213.735 20 214 20C214.265 20 214.52 19.8946 214.707 19.7071L222.707 11.7071Z" fill="#D0CFD7"/>
<path fill-rule="evenodd" clip-rule="evenodd" d="M110.761 6.17317C110 8.01088 110 10.3406 110 15C110 19.6594 110 21.9891 110.761 23.8268C111.776 26.2771 113.723 28.2239 116.173 29.2388C118.011 30 120.341 30 125 30C129.659 30 131.989 30 133.827 29.2388C136.277 28.2239 138.224 26.2771 139.239 23.8268C140 21.9891 140 19.6594 140 15C140 10.3406 140 8.01088 139.239 6.17317C138.224 3.72288 136.277 1.77614 133.827 0.761205C131.989 0 129.659 0 125 0C120.341 0 118.011 0 116.173 0.761205C113.723 1.77614 111.776 3.72288 110.761 6.17317ZM131.707 11.7071C132.098 11.3166 132.098 10.6834 131.707 10.2929C131.317 9.90237 130.683 9.90237 130.293 10.2929L123 17.5858L119.707 14.2929C119.317 13.9024 118.683 13.9024 118.293 14.2929C117.902 14.6834 117.902 15.3166 118.293 15.7071L122.293 19.7071C122.48 19.8946 122.735 20 123 20C123.265 20 123.52 19.8946 123.707 19.7071L131.707 11.7071Z" fill="#D0CFD7"/>
<defs>
<linearGradient id="paint0_linear_363_3404" x1="33.5" y1="46" x2="33.5" y2="35" gradientUnits="userSpaceOnUse">
<stop stop-color="#5CCC94"/>
<stop offset="1" stop-color="#8CCAAE"/>
</linearGradient>
<linearGradient id="paint1_linear_363_3404" x1="34" y1="30" x2="34" y2="1.58545e-07" gradientUnits="userSpaceOnUse">
<stop stop-color="#5CCC94"/>
<stop offset="1" stop-color="#8CCAAE"/>
</linearGradient>
</defs>
</svg>
