<svg width="240" height="68" viewBox="0 0 240 68" fill="none" xmlns="http://www.w3.org/2000/svg">
<path d="M4.99219 40.6748H3.54688L3.53711 39.918H4.87988C5.08171 39.918 5.26074 39.8724 5.41699 39.7812C5.57324 39.6901 5.69531 39.5599 5.7832 39.3906C5.87435 39.2181 5.91992 39.013 5.91992 38.7754C5.91992 38.515 5.88086 38.3034 5.80273 38.1406C5.72786 37.9746 5.6123 37.8542 5.45605 37.7793C5.30306 37.7012 5.10775 37.6621 4.87012 37.6621H3.7373L3.7373 44H2.83887L2.83887 36.8906H4.87012C5.17611 36.8906 5.44954 36.9281 5.69043 37.0029C5.93132 37.0745 6.13477 37.1885 6.30078 37.3447C6.47005 37.4977 6.59863 37.693 6.68652 37.9307C6.77441 38.1683 6.81836 38.4531 6.81836 38.7852C6.81836 39.0781 6.75163 39.3434 6.61816 39.5811C6.48796 39.8154 6.30566 40.0075 6.07129 40.1572C5.83691 40.307 5.56673 40.403 5.26074 40.4453L4.99219 40.6748ZM4.95801 44H3.17578L3.69824 43.2334H4.95801C5.19238 43.2334 5.39095 43.1813 5.55371 43.0771C5.71647 42.973 5.84017 42.8265 5.9248 42.6377C6.0127 42.4456 6.05664 42.2194 6.05664 41.959C6.05664 41.6953 6.02083 41.4674 5.94922 41.2754C5.8776 41.0833 5.76367 40.9352 5.60742 40.8311C5.45117 40.7269 5.24609 40.6748 4.99219 40.6748H3.83496L3.84473 39.918H5.40723L5.60742 40.1914C5.90039 40.2207 6.14616 40.3184 6.34473 40.4844C6.54655 40.6471 6.69792 40.8555 6.79883 41.1094C6.90299 41.3633 6.95508 41.6432 6.95508 41.9492C6.95508 42.3919 6.87207 42.7663 6.70605 43.0723C6.54329 43.375 6.31217 43.6061 6.0127 43.7656C5.71322 43.9219 5.36165 44 4.95801 44ZM9.04492 39.5469L9.04492 44H8.18066L8.18066 38.7168H9.01562L9.04492 39.5469ZM10.3584 38.6875L10.3633 39.5273C10.2917 39.5111 10.2266 39.5013 10.168 39.498C10.1126 39.4915 10.0475 39.4883 9.97266 39.4883C9.8099 39.4883 9.66667 39.5208 9.54297 39.5859C9.42253 39.651 9.31836 39.7422 9.23047 39.8594C9.14258 39.9766 9.07259 40.1165 9.02051 40.2793C8.96842 40.4388 8.93262 40.6146 8.91309 40.8066L8.68848 40.9531C8.68848 40.6341 8.71289 40.3346 8.76172 40.0547C8.8138 39.7747 8.89355 39.5273 9.00098 39.3125C9.1084 39.0944 9.24512 38.9251 9.41113 38.8047C9.5804 38.681 9.78223 38.6191 10.0166 38.6191C10.0687 38.6191 10.1322 38.6273 10.207 38.6436C10.2852 38.6566 10.3356 38.6712 10.3584 38.6875ZM10.9492 41.6123V41.1094C10.9492 40.6992 11.0013 40.3395 11.1055 40.0303C11.2096 39.7178 11.3545 39.4574 11.54 39.249C11.7256 39.0407 11.9421 38.8844 12.1895 38.7803C12.4368 38.6729 12.7021 38.6191 12.9854 38.6191C13.2751 38.6191 13.5436 38.6729 13.791 38.7803C14.0384 38.8844 14.2549 39.0407 14.4404 39.249C14.6292 39.4574 14.7757 39.7178 14.8799 40.0303C14.984 40.3395 15.0361 40.6992 15.0361 41.1094V41.6123C15.0361 42.0225 14.984 42.3838 14.8799 42.6963C14.7757 43.0055 14.6309 43.2643 14.4453 43.4727C14.2598 43.681 14.0433 43.8372 13.7959 43.9414C13.5485 44.0456 13.2816 44.0977 12.9951 44.0977C12.7087 44.0977 12.4417 44.0456 12.1943 43.9414C11.9469 43.8372 11.7288 43.681 11.54 43.4727C11.3545 43.2643 11.2096 43.0055 11.1055 42.6963C11.0013 42.3838 10.9492 42.0225 10.9492 41.6123ZM11.8135 41.1094V41.6123C11.8135 41.902 11.8428 42.1559 11.9014 42.374C11.96 42.5921 12.043 42.7744 12.1504 42.9209C12.2578 43.0674 12.3831 43.1781 12.5264 43.2529C12.6696 43.3245 12.8258 43.3604 12.9951 43.3604C13.1904 43.3604 13.3613 43.3245 13.5078 43.2529C13.6576 43.1781 13.7813 43.0674 13.8789 42.9209C13.9766 42.7744 14.0498 42.5921 14.0986 42.374C14.1475 42.1559 14.1719 41.902 14.1719 41.6123V41.1094C14.1719 40.8197 14.1426 40.5674 14.084 40.3525C14.0254 40.1344 13.9424 39.9521 13.835 39.8057C13.7275 39.6559 13.6006 39.5452 13.4541 39.4736C13.3109 39.3988 13.1546 39.3613 12.9854 39.3613C12.8193 39.3613 12.6647 39.3988 12.5215 39.4736C12.3783 39.5452 12.2529 39.6559 12.1455 39.8057C12.0413 39.9521 11.96 40.1344 11.9014 40.3525C11.8428 40.5674 11.8135 40.8197 11.8135 41.1094ZM16.1689 38.7168H17.0283V44.6299C17.0283 44.9521 16.986 45.2256 16.9014 45.4502C16.82 45.6748 16.693 45.8441 16.5205 45.958C16.3512 46.0752 16.1348 46.1338 15.8711 46.1338C15.7995 46.1338 15.7165 46.1257 15.6221 46.1094C15.5309 46.0931 15.4528 46.0736 15.3877 46.0508V45.3232C15.443 45.3363 15.5033 45.346 15.5684 45.3525C15.6335 45.3623 15.6872 45.3672 15.7295 45.3672C15.8239 45.3672 15.9036 45.3428 15.9688 45.2939C16.0339 45.2451 16.0827 45.167 16.1152 45.0596C16.151 44.9521 16.1689 44.8089 16.1689 44.6299V38.7168ZM16.0908 37.3154C16.0908 37.1689 16.1315 37.0452 16.2129 36.9443C16.2975 36.8434 16.4196 36.793 16.5791 36.793C16.7419 36.793 16.8639 36.8434 16.9453 36.9443C17.0299 37.0452 17.0723 37.1689 17.0723 37.3154C17.0723 37.4554 17.0299 37.5758 16.9453 37.6768C16.8639 37.7744 16.7419 37.8232 16.5791 37.8232C16.4196 37.8232 16.2975 37.7744 16.2129 37.6768C16.1315 37.5758 16.0908 37.4554 16.0908 37.3154ZM21.5547 39.5469V44H20.6904V38.7168H21.5254L21.5547 39.5469ZM22.8682 38.6875L22.873 39.5273C22.8014 39.5111 22.7363 39.5013 22.6777 39.498C22.6224 39.4915 22.5573 39.4883 22.4824 39.4883C22.3197 39.4883 22.1764 39.5208 22.0527 39.5859C21.9323 39.651 21.8281 39.7422 21.7402 39.8594C21.6523 39.9766 21.5824 40.1165 21.5303 40.2793C21.4782 40.4388 21.4424 40.6146 21.4229 40.8066L21.1982 40.9531C21.1982 40.6341 21.2227 40.3346 21.2715 40.0547C21.3236 39.7747 21.4033 39.5273 21.5107 39.3125C21.6182 39.0944 21.7549 38.9251 21.9209 38.8047C22.0902 38.681 22.292 38.6191 22.5264 38.6191C22.5785 38.6191 22.6419 38.6273 22.7168 38.6436C22.7949 38.6566 22.8454 38.6712 22.8682 38.6875ZM25.5293 44.0977C25.2135 44.0977 24.9287 44.0505 24.6748 43.9561C24.4209 43.8617 24.2044 43.7184 24.0254 43.5264C23.8464 43.3311 23.7096 43.0853 23.6152 42.7891C23.5208 42.4928 23.4736 42.1429 23.4736 41.7393V41.1436C23.4736 40.6781 23.5273 40.2842 23.6348 39.9619C23.7454 39.6396 23.8936 39.3809 24.0791 39.1855C24.2646 38.987 24.4746 38.8437 24.709 38.7559C24.9434 38.6647 25.1842 38.6191 25.4316 38.6191C25.7637 38.6191 26.0469 38.6729 26.2812 38.7803C26.5156 38.8877 26.7061 39.0472 26.8525 39.2588C26.999 39.4704 27.1064 39.7308 27.1748 40.04C27.2464 40.3493 27.2822 40.7057 27.2822 41.1094V41.6123L23.9814 41.6123V40.875L26.418 40.875V40.7529C26.4049 40.4795 26.3675 40.2386 26.3057 40.0303C26.2471 39.8219 26.1494 39.6592 26.0127 39.542C25.876 39.4215 25.6823 39.3613 25.4316 39.3613C25.2721 39.3613 25.124 39.389 24.9873 39.4443C24.8538 39.4964 24.7383 39.5892 24.6406 39.7227C24.5462 39.8529 24.4714 40.0335 24.416 40.2646C24.3639 40.4958 24.3379 40.7887 24.3379 41.1436V41.7393C24.3379 42.0225 24.3639 42.2666 24.416 42.4717C24.4714 42.6735 24.5511 42.8411 24.6553 42.9746C24.7627 43.1048 24.8929 43.2025 25.0459 43.2676C25.2021 43.3294 25.3796 43.3604 25.5781 43.3604C25.8678 43.3604 26.1071 43.305 26.2959 43.1943C26.4847 43.0804 26.6491 42.9355 26.7891 42.7598L27.2432 43.3018C27.1488 43.4352 27.0251 43.5638 26.8721 43.6875C26.7223 43.8079 26.5368 43.9072 26.3154 43.9854C26.0973 44.0602 25.8353 44.0977 25.5293 44.0977ZM31.1885 38.7168H31.9648V44.0439C31.9648 44.5094 31.8835 44.8936 31.7207 45.1963C31.5612 45.499 31.3382 45.722 31.0518 45.8652C30.7653 46.0117 30.4349 46.085 30.0605 46.085C29.9271 46.085 29.7594 46.0605 29.5576 46.0117C29.3558 45.9629 29.154 45.888 28.9521 45.7871C28.7503 45.6895 28.5843 45.5658 28.4541 45.416L28.8105 44.8154C28.9961 45.0042 29.193 45.1393 29.4014 45.2207C29.6097 45.3021 29.8083 45.3428 29.9971 45.3428C30.2217 45.3428 30.417 45.3021 30.583 45.2207C30.749 45.1393 30.8776 45.0059 30.9688 44.8203C31.0599 44.638 31.1055 44.3939 31.1055 44.0879V39.8789L31.1885 38.7168ZM28.1514 41.6123V41.1191C28.1514 40.6829 28.1921 40.3086 28.2734 39.9961C28.3548 39.6803 28.472 39.4215 28.625 39.2197C28.7812 39.0146 28.9684 38.8633 29.1865 38.7656C29.4046 38.668 29.6488 38.6191 29.9189 38.6191C30.1924 38.6191 30.4284 38.6745 30.627 38.7852C30.8255 38.8958 30.9899 39.057 31.1201 39.2686C31.2536 39.4769 31.3577 39.7308 31.4326 40.0303C31.5107 40.3265 31.5645 40.6618 31.5938 41.0361V41.6953C31.5645 42.0664 31.5107 42.4001 31.4326 42.6963C31.3577 42.9925 31.252 43.2448 31.1152 43.4531C30.9818 43.6615 30.8158 43.821 30.6172 43.9316C30.4186 44.0423 30.1826 44.0977 29.9092 44.0977C29.6423 44.0977 29.4014 44.0472 29.1865 43.9463C28.9717 43.8421 28.7861 43.6875 28.6299 43.4824C28.4769 43.2741 28.3581 43.0153 28.2734 42.7061C28.1921 42.3936 28.1514 42.029 28.1514 41.6123ZM29.0156 41.1191V41.6123C29.0156 41.9053 29.0368 42.1608 29.0791 42.3789C29.1214 42.5937 29.1865 42.7728 29.2744 42.916C29.3656 43.056 29.4811 43.1602 29.6211 43.2285C29.7643 43.2969 29.9352 43.3311 30.1338 43.3311C30.3747 43.3311 30.5716 43.2725 30.7246 43.1553C30.8776 43.0381 30.9997 42.8835 31.0908 42.6914C31.1852 42.4961 31.2601 42.2861 31.3154 42.0615V40.6748C31.2829 40.5088 31.2357 40.3493 31.1738 40.1963C31.1152 40.04 31.0387 39.9017 30.9443 39.7812C30.8499 39.6576 30.736 39.5599 30.6025 39.4883C30.4723 39.4167 30.3193 39.3809 30.1436 39.3809C29.945 39.3809 29.7741 39.4167 29.6309 39.4883C29.4876 39.5599 29.3704 39.6673 29.2793 39.8105C29.1882 39.9538 29.1214 40.1344 29.0791 40.3525C29.0368 40.5706 29.0156 40.8262 29.0156 41.1191ZM34.1865 38.7168V44H33.3271V38.7168H34.1865ZM33.2783 37.3154C33.2783 37.1689 33.319 37.0452 33.4004 36.9443C33.4818 36.8434 33.6038 36.793 33.7666 36.793C33.9294 36.793 34.0514 36.8434 34.1328 36.9443C34.2174 37.0452 34.2598 37.1689 34.2598 37.3154C34.2598 37.4554 34.2174 37.5758 34.1328 37.6768C34.0514 37.7744 33.9294 37.8232 33.7666 37.8232C33.6038 37.8232 33.4818 37.7744 33.4004 37.6768C33.319 37.5758 33.2783 37.4554 33.2783 37.3154ZM38.1172 42.6475C38.1172 42.514 38.0846 42.3968 38.0195 42.2959C37.9544 42.195 37.847 42.0973 37.6973 42.0029C37.5508 41.9085 37.3522 41.8076 37.1016 41.7002C36.8574 41.5993 36.6377 41.5 36.4424 41.4023C36.2503 41.3014 36.0876 41.1924 35.9541 41.0752C35.8206 40.958 35.7181 40.8229 35.6465 40.6699C35.5781 40.5137 35.5439 40.3298 35.5439 40.1182C35.5439 39.9066 35.583 39.7113 35.6611 39.5322C35.7425 39.3499 35.8564 39.1904 36.0029 39.0537C36.1494 38.917 36.3252 38.8112 36.5303 38.7363C36.7354 38.6582 36.9648 38.6191 37.2188 38.6191C37.5801 38.6191 37.8877 38.6891 38.1416 38.8291C38.3955 38.9691 38.5892 39.1611 38.7227 39.4053C38.8594 39.6462 38.9277 39.918 38.9277 40.2207H38.0684C38.0684 40.0742 38.0358 39.9359 37.9707 39.8057C37.9056 39.6755 37.8096 39.5697 37.6826 39.4883C37.5557 39.4036 37.401 39.3613 37.2188 39.3613C37.0267 39.3613 36.8704 39.3955 36.75 39.4639C36.6296 39.5322 36.5417 39.6217 36.4863 39.7324C36.4342 39.8398 36.4082 39.9587 36.4082 40.0889C36.4082 40.1865 36.4212 40.2712 36.4473 40.3428C36.4766 40.4111 36.5254 40.4762 36.5938 40.5381C36.6621 40.5967 36.7549 40.6585 36.8721 40.7236C36.9925 40.7855 37.1455 40.8571 37.3311 40.9385C37.6891 41.0785 37.9902 41.2201 38.2344 41.3633C38.4785 41.5065 38.6641 41.6742 38.791 41.8662C38.918 42.0583 38.9814 42.2959 38.9814 42.5791C38.9814 42.8102 38.9391 43.0202 38.8545 43.209C38.7731 43.3945 38.6559 43.554 38.5029 43.6875C38.3499 43.821 38.166 43.9235 37.9512 43.9951C37.7396 44.0635 37.502 44.0977 37.2383 44.0977C36.8411 44.0977 36.5042 44.0195 36.2275 43.8633C35.9541 43.7038 35.7458 43.4971 35.6025 43.2432C35.4626 42.986 35.3926 42.7109 35.3926 42.418H36.2568C36.2666 42.6654 36.3219 42.8574 36.4229 42.9941C36.527 43.1309 36.6523 43.2253 36.7988 43.2773C36.9453 43.3294 37.0918 43.3555 37.2383 43.3555C37.4303 43.3555 37.5915 43.3278 37.7217 43.2725C37.8519 43.2139 37.9495 43.1309 38.0146 43.0234C38.083 42.916 38.1172 42.7907 38.1172 42.6475ZM42.043 38.7168V39.4102H39.5771V38.7168H42.043ZM40.3828 37.4326H41.2471V42.6914C41.2471 42.8704 41.2682 43.0055 41.3105 43.0967C41.3561 43.1878 41.4131 43.248 41.4814 43.2773C41.5498 43.3066 41.623 43.3213 41.7012 43.3213C41.7598 43.3213 41.8249 43.3148 41.8965 43.3018C41.9681 43.2855 42.0169 43.2725 42.043 43.2627L42.0381 44C41.9795 44.0228 41.9014 44.0439 41.8037 44.0635C41.7061 44.0863 41.5824 44.0977 41.4326 44.0977C41.2471 44.0977 41.0745 44.0537 40.915 43.9658C40.7555 43.8779 40.627 43.7314 40.5293 43.5264C40.4316 43.318 40.3828 43.0381 40.3828 42.6865V37.4326ZM45.6611 43.0967V40.2305C45.6611 40.0221 45.6286 39.8545 45.5635 39.7275C45.5016 39.6006 45.4072 39.5078 45.2803 39.4492C45.1566 39.3906 45.0003 39.3613 44.8115 39.3613C44.6292 39.3613 44.4714 39.3988 44.3379 39.4736C44.2077 39.5485 44.1068 39.6478 44.0352 39.7715C43.9668 39.8952 43.9326 40.0319 43.9326 40.1816H43.0684C43.0684 39.9928 43.109 39.8057 43.1904 39.6201C43.2751 39.4346 43.3955 39.2669 43.5518 39.1172C43.708 38.9642 43.8952 38.8437 44.1133 38.7559C44.3346 38.6647 44.582 38.6191 44.8555 38.6191C45.181 38.6191 45.4691 38.6729 45.7197 38.7803C45.9704 38.8844 46.1673 39.0553 46.3105 39.293C46.4538 39.5306 46.5254 39.8464 46.5254 40.2402V42.8477C46.5254 43.0234 46.5384 43.2106 46.5645 43.4092C46.5938 43.6077 46.6344 43.7786 46.6865 43.9219V44H45.793C45.7507 43.8958 45.7181 43.7575 45.6953 43.585C45.6725 43.4092 45.6611 43.2464 45.6611 43.0967ZM45.7979 40.7969L45.8076 41.4316H45.207C45.002 41.4316 44.8148 41.4544 44.6455 41.5C44.4795 41.5456 44.3363 41.6123 44.2158 41.7002C44.0954 41.7848 44.0026 41.8906 43.9375 42.0176C43.8757 42.1445 43.8447 42.2894 43.8447 42.4521C43.8447 42.6637 43.874 42.833 43.9326 42.96C43.9912 43.0837 44.0791 43.1732 44.1963 43.2285C44.3135 43.2839 44.4616 43.3115 44.6406 43.3115C44.8587 43.3115 45.0508 43.2611 45.2168 43.1602C45.3828 43.0592 45.5114 42.9372 45.6025 42.7939C45.6969 42.6507 45.7409 42.5173 45.7344 42.3936L45.9248 42.7988C45.9118 42.9258 45.8695 43.0641 45.7979 43.2139C45.7295 43.3604 45.6335 43.502 45.5098 43.6387C45.3861 43.7721 45.2396 43.8828 45.0703 43.9707C44.9043 44.0553 44.7171 44.0977 44.5088 44.0977C44.2028 44.0977 43.9342 44.0391 43.7031 43.9219C43.4753 43.8047 43.2979 43.6322 43.1709 43.4043C43.0439 43.1764 42.9805 42.8949 42.9805 42.5596C42.9805 42.3057 43.0244 42.0713 43.1123 41.8564C43.2002 41.6416 43.3304 41.4561 43.5029 41.2998C43.6755 41.1403 43.8919 41.0166 44.1523 40.9287C44.416 40.8408 44.7204 40.7969 45.0654 40.7969H45.7979ZM48.7324 39.5469V44H47.8682V38.7168H48.7031L48.7324 39.5469ZM50.0459 38.6875L50.0508 39.5273C49.9792 39.5111 49.9141 39.5013 49.8555 39.498C49.8001 39.4915 49.735 39.4883 49.6602 39.4883C49.4974 39.4883 49.3542 39.5208 49.2305 39.5859C49.11 39.651 49.0059 39.7422 48.918 39.8594C48.8301 39.9766 48.7601 40.1165 48.708 40.2793C48.6559 40.4388 48.6201 40.6146 48.6006 40.8066L48.376 40.9531C48.376 40.6341 48.4004 40.3346 48.4492 40.0547C48.5013 39.7747 48.5811 39.5273 48.6885 39.3125C48.7959 39.0944 48.9326 38.9251 49.0986 38.8047C49.2679 38.681 49.4697 38.6191 49.7041 38.6191C49.7562 38.6191 49.8197 38.6273 49.8945 38.6436C49.9727 38.6566 50.0231 38.6712 50.0459 38.6875ZM53.4785 42.6475C53.4785 42.514 53.446 42.3968 53.3809 42.2959C53.3158 42.195 53.2083 42.0973 53.0586 42.0029C52.9121 41.9085 52.7135 41.8076 52.4629 41.7002C52.2188 41.5993 51.999 41.5 51.8037 41.4023C51.6117 41.3014 51.4489 41.1924 51.3154 41.0752C51.182 40.958 51.0794 40.8229 51.0078 40.6699C50.9395 40.5137 50.9053 40.3298 50.9053 40.1182C50.9053 39.9066 50.9443 39.7113 51.0225 39.5322C51.1038 39.3499 51.2178 39.1904 51.3643 39.0537C51.5107 38.917 51.6865 38.8112 51.8916 38.7363C52.0967 38.6582 52.3262 38.6191 52.5801 38.6191C52.9414 38.6191 53.249 38.6891 53.5029 38.8291C53.7568 38.9691 53.9505 39.1611 54.084 39.4053C54.2207 39.6462 54.2891 39.918 54.2891 40.2207H53.4297C53.4297 40.0742 53.3971 39.9359 53.332 39.8057C53.2669 39.6755 53.1709 39.5697 53.0439 39.4883C52.917 39.4036 52.7624 39.3613 52.5801 39.3613C52.388 39.3613 52.2318 39.3955 52.1113 39.4639C51.9909 39.5322 51.903 39.6217 51.8477 39.7324C51.7956 39.8398 51.7695 39.9587 51.7695 40.0889C51.7695 40.1865 51.7826 40.2712 51.8086 40.3428C51.8379 40.4111 51.8867 40.4762 51.9551 40.5381C52.0234 40.5967 52.1162 40.6585 52.2334 40.7236C52.3538 40.7855 52.5068 40.8571 52.6924 40.9385C53.0505 41.0785 53.3516 41.2201 53.5957 41.3633C53.8398 41.5065 54.0254 41.6742 54.1523 41.8662C54.2793 42.0583 54.3428 42.2959 54.3428 42.5791C54.3428 42.8102 54.3005 43.0202 54.2158 43.209C54.1344 43.3945 54.0173 43.554 53.8643 43.6875C53.7113 43.821 53.5273 43.9235 53.3125 43.9951C53.1009 44.0635 52.8633 44.0977 52.5996 44.0977C52.2025 44.0977 51.8656 44.0195 51.5889 43.8633C51.3154 43.7038 51.1071 43.4971 50.9639 43.2432C50.8239 42.986 50.7539 42.7109 50.7539 42.418H51.6182C51.6279 42.6654 51.6833 42.8574 51.7842 42.9941C51.8883 43.1309 52.0137 43.2253 52.1602 43.2773C52.3066 43.3294 52.4531 43.3555 52.5996 43.3555C52.7917 43.3555 52.9528 43.3278 53.083 43.2725C53.2132 43.2139 53.3109 43.1309 53.376 43.0234C53.4443 42.916 53.4785 42.7907 53.4785 42.6475ZM56.3447 36.5V44H55.4805V36.5H56.3447ZM59.0254 38.7168L57.1455 41.1826L55.9834 42.5205L55.9248 41.5586L56.7256 40.4551L57.9854 38.7168H59.0254ZM58.2344 44L56.75 41.4805L57.1943 40.6748L59.2402 44H58.2344ZM61.7793 44.0977C61.4635 44.0977 61.1787 44.0505 60.9248 43.9561C60.6709 43.8617 60.4544 43.7184 60.2754 43.5264C60.0964 43.3311 59.9596 43.0853 59.8652 42.7891C59.7708 42.4928 59.7236 42.1429 59.7236 41.7393V41.1436C59.7236 40.6781 59.7773 40.2842 59.8848 39.9619C59.9954 39.6396 60.1436 39.3809 60.3291 39.1855C60.5146 38.987 60.7246 38.8437 60.959 38.7559C61.1934 38.6647 61.4342 38.6191 61.6816 38.6191C62.0137 38.6191 62.2969 38.6729 62.5312 38.7803C62.7656 38.8877 62.9561 39.0472 63.1025 39.2588C63.249 39.4704 63.3564 39.7308 63.4248 40.04C63.4964 40.3493 63.5322 40.7057 63.5322 41.1094V41.6123L60.2314 41.6123V40.875H62.668V40.7529C62.6549 40.4795 62.6175 40.2386 62.5557 40.0303C62.4971 39.8219 62.3994 39.6592 62.2627 39.542C62.126 39.4215 61.9323 39.3613 61.6816 39.3613C61.5221 39.3613 61.374 39.389 61.2373 39.4443C61.1038 39.4964 60.9883 39.5892 60.8906 39.7227C60.7962 39.8529 60.7214 40.0335 60.666 40.2646C60.6139 40.4958 60.5879 40.7887 60.5879 41.1436V41.7393C60.5879 42.0225 60.6139 42.2666 60.666 42.4717C60.7214 42.6735 60.8011 42.8411 60.9053 42.9746C61.0127 43.1048 61.1429 43.2025 61.2959 43.2676C61.4521 43.3294 61.6296 43.3604 61.8281 43.3604C62.1178 43.3604 62.3571 43.305 62.5459 43.1943C62.7347 43.0804 62.8991 42.9355 63.0391 42.7598L63.4932 43.3018C63.3988 43.4352 63.2751 43.5638 63.1221 43.6875C62.9723 43.8079 62.7868 43.9072 62.5654 43.9854C62.3473 44.0602 62.0853 44.0977 61.7793 44.0977ZM20.2803 50.7324V57.0312H19.416V49.7168H20.2021L20.2803 50.7324ZM23.2344 52.1191V52.6123C23.2344 53.029 23.1953 53.3936 23.1172 53.7061C23.0423 54.0153 22.93 54.2741 22.7803 54.4824C22.6338 54.6875 22.4531 54.8421 22.2383 54.9463C22.0234 55.0472 21.7777 55.0977 21.501 55.0977C21.2243 55.0977 20.9834 55.0456 20.7783 54.9414C20.5765 54.834 20.4056 54.6794 20.2656 54.4775C20.1289 54.2757 20.0199 54.0332 19.9385 53.75C19.8604 53.4635 19.8066 53.1429 19.7773 52.7881V52.0361C19.8066 51.6618 19.8604 51.3265 19.9385 51.0303C20.0166 50.7308 20.124 50.4769 20.2607 50.2686C20.4007 50.057 20.5716 49.8958 20.7734 49.7852C20.9785 49.6745 21.2178 49.6191 21.4912 49.6191C21.7744 49.6191 22.0234 49.668 22.2383 49.7656C22.4564 49.8633 22.6387 50.0146 22.7852 50.2197C22.9349 50.4215 23.0472 50.6803 23.1221 50.9961C23.1969 51.3086 23.2344 51.6829 23.2344 52.1191ZM22.3701 52.6123V52.1191C22.3701 51.8262 22.3473 51.5706 22.3018 51.3525C22.2594 51.1344 22.1911 50.9538 22.0967 50.8105C22.0023 50.6673 21.8835 50.5599 21.7402 50.4883C21.597 50.4167 21.4245 50.3809 21.2227 50.3809C21.0501 50.3809 20.8971 50.4167 20.7637 50.4883C20.6335 50.5599 20.5212 50.6576 20.4268 50.7812C20.3324 50.9017 20.2542 51.04 20.1924 51.1963C20.1305 51.3493 20.085 51.5088 20.0557 51.6748V53.1543C20.111 53.3626 20.1842 53.5596 20.2754 53.7451C20.3665 53.9274 20.4886 54.0755 20.6416 54.1895C20.7979 54.3034 20.9948 54.3604 21.2324 54.3604C21.431 54.3604 21.6019 54.3245 21.7451 54.2529C21.8883 54.1813 22.0055 54.0739 22.0967 53.9307C22.1911 53.7842 22.2594 53.6019 22.3018 53.3838C22.3473 53.1624 22.3701 52.9053 22.3701 52.6123ZM25.2754 47.5V55H24.416V47.5H25.2754ZM26.4619 52.6123V52.1094C26.4619 51.6992 26.514 51.3395 26.6182 51.0303C26.7223 50.7178 26.8672 50.4574 27.0527 50.249C27.2383 50.0407 27.4548 49.8844 27.7021 49.7803C27.9495 49.6729 28.2148 49.6191 28.498 49.6191C28.7878 49.6191 29.0563 49.6729 29.3037 49.7803C29.5511 49.8844 29.7676 50.0407 29.9531 50.249C30.1419 50.4574 30.2884 50.7178 30.3926 51.0303C30.4967 51.3395 30.5488 51.6992 30.5488 52.1094V52.6123C30.5488 53.0225 30.4967 53.3838 30.3926 53.6963C30.2884 54.0055 30.1436 54.2643 29.958 54.4727C29.7725 54.681 29.556 54.8372 29.3086 54.9414C29.0612 55.0456 28.7943 55.0977 28.5078 55.0977C28.2214 55.0977 27.9544 55.0456 27.707 54.9414C27.4596 54.8372 27.2415 54.681 27.0527 54.4727C26.8672 54.2643 26.7223 54.0055 26.6182 53.6963C26.514 53.3838 26.4619 53.0225 26.4619 52.6123ZM27.3262 52.1094V52.6123C27.3262 52.902 27.3555 53.1559 27.4141 53.374C27.4727 53.5921 27.5557 53.7744 27.6631 53.9209C27.7705 54.0674 27.8958 54.1781 28.0391 54.2529C28.1823 54.3245 28.3385 54.3604 28.5078 54.3604C28.7031 54.3604 28.874 54.3245 29.0205 54.2529C29.1702 54.1781 29.2939 54.0674 29.3916 53.9209C29.4893 53.7744 29.5625 53.5921 29.6113 53.374C29.6602 53.1559 29.6846 52.902 29.6846 52.6123V52.1094C29.6846 51.8197 29.6553 51.5674 29.5967 51.3525C29.5381 51.1344 29.4551 50.9521 29.3477 50.8057C29.2402 50.6559 29.1133 50.5452 28.9668 50.4736C28.8236 50.3988 28.6673 50.3613 28.498 50.3613C28.332 50.3613 28.1774 50.3988 28.0342 50.4736C27.891 50.5452 27.7656 50.6559 27.6582 50.8057C27.554 50.9521 27.4727 51.1344 27.4141 51.3525C27.3555 51.5674 27.3262 51.8197 27.3262 52.1094ZM33.4932 54.3604C33.6657 54.3604 33.8219 54.3262 33.9619 54.2578C34.1051 54.1862 34.2223 54.0755 34.3135 53.9258C34.4046 53.7728 34.4567 53.5742 34.4697 53.3301H35.2803C35.2673 53.6816 35.1777 53.9909 35.0117 54.2578C34.849 54.5215 34.6341 54.7282 34.3672 54.8779C34.1035 55.0244 33.8122 55.0977 33.4932 55.0977C33.1514 55.0977 32.8535 55.0423 32.5996 54.9316C32.349 54.821 32.1406 54.6615 31.9746 54.4531C31.8118 54.2415 31.6898 53.986 31.6084 53.6865C31.527 53.3838 31.4863 53.0404 31.4863 52.6562V52.0605C31.4863 51.6764 31.527 51.3346 31.6084 51.0352C31.6898 50.7324 31.8118 50.4769 31.9746 50.2686C32.1406 50.057 32.349 49.8958 32.5996 49.7852C32.8535 49.6745 33.1514 49.6191 33.4932 49.6191C33.8512 49.6191 34.1605 49.6956 34.4209 49.8486C34.6846 49.9984 34.8896 50.2165 35.0361 50.5029C35.1859 50.7861 35.2673 51.1296 35.2803 51.5332H34.4697C34.4567 51.2728 34.4095 51.0563 34.3281 50.8838C34.2467 50.708 34.1361 50.5778 33.9961 50.4932C33.8561 50.4053 33.6885 50.3613 33.4932 50.3613C33.2653 50.3613 33.0765 50.402 32.9268 50.4834C32.7803 50.5615 32.6647 50.6755 32.5801 50.8252C32.4954 50.9749 32.4352 51.154 32.3994 51.3623C32.3669 51.5706 32.3506 51.8034 32.3506 52.0605V52.6562C32.3506 52.9134 32.3669 53.1478 32.3994 53.3594C32.4352 53.5677 32.4938 53.7467 32.5752 53.8965C32.6598 54.0462 32.777 54.1618 32.9268 54.2432C33.0765 54.3213 33.2653 54.3604 33.4932 54.3604ZM32.6924 47.5049L33.2783 48.335L33.8594 47.5049H34.6016V47.5537L33.5322 48.8916H33.0244L31.9697 47.5537V47.5049H32.6924ZM37.209 49.7168V55H36.3496V49.7168H37.209ZM36.3008 48.3154C36.3008 48.1689 36.3415 48.0452 36.4229 47.9443C36.5042 47.8434 36.6263 47.793 36.7891 47.793C36.9518 47.793 37.0739 47.8434 37.1553 47.9443C37.2399 48.0452 37.2822 48.1689 37.2822 48.3154C37.2822 48.4554 37.2399 48.5758 37.1553 48.6768C37.0739 48.7744 36.9518 48.8232 36.7891 48.8232C36.6263 48.8232 36.5042 48.7744 36.4229 48.6768C36.3415 48.5758 36.3008 48.4554 36.3008 48.3154ZM40.4072 54.3604C40.5798 54.3604 40.736 54.3262 40.876 54.2578C41.0192 54.1862 41.1364 54.0755 41.2275 53.9258C41.3187 53.7728 41.3708 53.5742 41.3838 53.3301H42.1943C42.1813 53.6816 42.0918 53.9909 41.9258 54.2578C41.763 54.5215 41.5482 54.7282 41.2812 54.8779C41.0176 55.0244 40.7262 55.0977 40.4072 55.0977C40.0654 55.0977 39.7676 55.0423 39.5137 54.9316C39.263 54.821 39.0547 54.6615 38.8887 54.4531C38.7259 54.2415 38.6038 53.986 38.5225 53.6865C38.4411 53.3838 38.4004 53.0404 38.4004 52.6562V52.0605C38.4004 51.6764 38.4411 51.3346 38.5225 51.0352C38.6038 50.7324 38.7259 50.4769 38.8887 50.2686C39.0547 50.057 39.263 49.8958 39.5137 49.7852C39.7676 49.6745 40.0654 49.6191 40.4072 49.6191C40.7653 49.6191 41.0745 49.6956 41.335 49.8486C41.5986 49.9984 41.8037 50.2165 41.9502 50.5029C42.0999 50.7861 42.1813 51.1296 42.1943 51.5332H41.3838C41.3708 51.2728 41.3236 51.0563 41.2422 50.8838C41.1608 50.708 41.0501 50.5778 40.9102 50.4932C40.7702 50.4053 40.6025 50.3613 40.4072 50.3613C40.1794 50.3613 39.9906 50.402 39.8408 50.4834C39.6943 50.5615 39.5788 50.6755 39.4941 50.8252C39.4095 50.9749 39.3493 51.154 39.3135 51.3623C39.2809 51.5706 39.2646 51.8034 39.2646 52.0605V52.6562C39.2646 52.9134 39.2809 53.1478 39.3135 53.3594C39.3493 53.5677 39.4079 53.7467 39.4893 53.8965C39.5739 54.0462 39.6911 54.1618 39.8408 54.2432C39.9906 54.3213 40.1794 54.3604 40.4072 54.3604ZM45.085 55.0977C44.7692 55.0977 44.4844 55.0505 44.2305 54.9561C43.9766 54.8617 43.7601 54.7184 43.5811 54.5264C43.402 54.3311 43.2653 54.0853 43.1709 53.7891C43.0765 53.4928 43.0293 53.1429 43.0293 52.7393V52.1436C43.0293 51.6781 43.083 51.2842 43.1904 50.9619C43.3011 50.6396 43.4492 50.3809 43.6348 50.1855C43.8203 49.987 44.0303 49.8437 44.2646 49.7559C44.499 49.6647 44.7399 49.6191 44.9873 49.6191C45.3193 49.6191 45.6025 49.6729 45.8369 49.7803C46.0713 49.8877 46.2617 50.0472 46.4082 50.2588C46.5547 50.4704 46.6621 50.7308 46.7305 51.04C46.8021 51.3493 46.8379 51.7057 46.8379 52.1094V52.6123H43.5371V51.875H45.9736V51.7529C45.9606 51.4795 45.9232 51.2386 45.8613 51.0303C45.8027 50.8219 45.7051 50.6592 45.5684 50.542C45.4316 50.4215 45.238 50.3613 44.9873 50.3613C44.8278 50.3613 44.6797 50.389 44.543 50.4443C44.4095 50.4964 44.2939 50.5892 44.1963 50.7227C44.1019 50.8529 44.027 51.0335 43.9717 51.2646C43.9196 51.4958 43.8936 51.7887 43.8936 52.1436V52.7393C43.8936 53.0225 43.9196 53.2666 43.9717 53.4717C44.027 53.6735 44.1068 53.8411 44.2109 53.9746C44.3184 54.1048 44.4486 54.2025 44.6016 54.2676C44.7578 54.3294 44.9352 54.3604 45.1338 54.3604C45.4235 54.3604 45.6628 54.305 45.8516 54.1943C46.0404 54.0804 46.2048 53.9355 46.3447 53.7598L46.7988 54.3018C46.7044 54.4352 46.5807 54.5638 46.4277 54.6875C46.278 54.8079 46.0924 54.9072 45.8711 54.9854C45.653 55.0602 45.391 55.0977 45.085 55.0977Z" fill="url(#paint0_linear_363_3346)"/>
<path d="M114.529 40.8906V48H113.626L110.779 42.5166V48H109.881V40.8906H110.779L113.641 46.3887V40.8906H114.529ZM118.553 47.0967V44.2305C118.553 44.0221 118.52 43.8545 118.455 43.7275C118.393 43.6006 118.299 43.5078 118.172 43.4492C118.048 43.3906 117.892 43.3613 117.703 43.3613C117.521 43.3613 117.363 43.3988 117.229 43.4736C117.099 43.5485 116.998 43.6478 116.927 43.7715C116.858 43.8952 116.824 44.0319 116.824 44.1816H115.96C115.96 43.9928 116.001 43.8057 116.082 43.6201C116.167 43.4346 116.287 43.2669 116.443 43.1172C116.6 42.9642 116.787 42.8438 117.005 42.7559C117.226 42.6647 117.474 42.6191 117.747 42.6191C118.073 42.6191 118.361 42.6729 118.611 42.7803C118.862 42.8844 119.059 43.0553 119.202 43.293C119.345 43.5306 119.417 43.8464 119.417 44.2402V46.8477C119.417 47.0234 119.43 47.2106 119.456 47.4092C119.485 47.6077 119.526 47.7786 119.578 47.9219V48H118.685C118.642 47.8958 118.61 47.7575 118.587 47.585C118.564 47.4092 118.553 47.2464 118.553 47.0967ZM118.689 44.7969L118.699 45.4316H118.099C117.894 45.4316 117.706 45.4544 117.537 45.5C117.371 45.5456 117.228 45.6123 117.107 45.7002C116.987 45.7848 116.894 45.8906 116.829 46.0176C116.767 46.1445 116.736 46.2894 116.736 46.4521C116.736 46.6637 116.766 46.833 116.824 46.96C116.883 47.0837 116.971 47.1732 117.088 47.2285C117.205 47.2839 117.353 47.3115 117.532 47.3115C117.75 47.3115 117.942 47.2611 118.108 47.1602C118.274 47.0592 118.403 46.9372 118.494 46.7939C118.589 46.6507 118.632 46.5173 118.626 46.3936L118.816 46.7988C118.803 46.9258 118.761 47.0641 118.689 47.2139C118.621 47.3604 118.525 47.502 118.401 47.6387C118.278 47.7721 118.131 47.8828 117.962 47.9707C117.796 48.0553 117.609 48.0977 117.4 48.0977C117.094 48.0977 116.826 48.0391 116.595 47.9219C116.367 47.8047 116.189 47.6322 116.062 47.4043C115.936 47.1764 115.872 46.8949 115.872 46.5596C115.872 46.3057 115.916 46.0713 116.004 45.8564C116.092 45.6416 116.222 45.4561 116.395 45.2998C116.567 45.1403 116.784 45.0166 117.044 44.9287C117.308 44.8408 117.612 44.7969 117.957 44.7969H118.689ZM121.624 43.7324V50.0312H120.76V42.7168H121.546L121.624 43.7324ZM124.578 45.1191V45.6123C124.578 46.029 124.539 46.3936 124.461 46.7061C124.386 47.0153 124.274 47.2741 124.124 47.4824C123.978 47.6875 123.797 47.8421 123.582 47.9463C123.367 48.0472 123.121 48.0977 122.845 48.0977C122.568 48.0977 122.327 48.0456 122.122 47.9414C121.92 47.834 121.749 47.6794 121.609 47.4775C121.473 47.2757 121.364 47.0332 121.282 46.75C121.204 46.4635 121.15 46.1429 121.121 45.7881V45.0361C121.15 44.6618 121.204 44.3265 121.282 44.0303C121.36 43.7308 121.468 43.4769 121.604 43.2686C121.744 43.057 121.915 42.8958 122.117 42.7852C122.322 42.6745 122.562 42.6191 122.835 42.6191C123.118 42.6191 123.367 42.668 123.582 42.7656C123.8 42.8633 123.982 43.0146 124.129 43.2197C124.279 43.4215 124.391 43.6803 124.466 43.9961C124.541 44.3086 124.578 44.6829 124.578 45.1191ZM123.714 45.6123V45.1191C123.714 44.8262 123.691 44.5706 123.646 44.3525C123.603 44.1344 123.535 43.9538 123.44 43.8105C123.346 43.6673 123.227 43.5599 123.084 43.4883C122.941 43.4167 122.768 43.3809 122.566 43.3809C122.394 43.3809 122.241 43.4167 122.107 43.4883C121.977 43.5599 121.865 43.6576 121.771 43.7812C121.676 43.9017 121.598 44.04 121.536 44.1963C121.474 44.3493 121.429 44.5088 121.399 44.6748V46.1543C121.455 46.3626 121.528 46.5596 121.619 46.7451C121.71 46.9274 121.832 47.0755 121.985 47.1895C122.142 47.3034 122.339 47.3604 122.576 47.3604C122.775 47.3604 122.946 47.3245 123.089 47.2529C123.232 47.1813 123.349 47.0739 123.44 46.9307C123.535 46.7842 123.603 46.6019 123.646 46.3838C123.691 46.1624 123.714 45.9053 123.714 45.6123ZM126.619 40.5V48H125.76V40.5H126.619ZM130.574 47.0967V44.2305C130.574 44.0221 130.542 43.8545 130.477 43.7275C130.415 43.6006 130.32 43.5078 130.193 43.4492C130.07 43.3906 129.913 43.3613 129.725 43.3613C129.542 43.3613 129.384 43.3988 129.251 43.4736C129.121 43.5485 129.02 43.6478 128.948 43.7715C128.88 43.8952 128.846 44.0319 128.846 44.1816H127.981C127.981 43.9928 128.022 43.8057 128.104 43.6201C128.188 43.4346 128.309 43.2669 128.465 43.1172C128.621 42.9642 128.808 42.8438 129.026 42.7559C129.248 42.6647 129.495 42.6191 129.769 42.6191C130.094 42.6191 130.382 42.6729 130.633 42.7803C130.883 42.8844 131.08 43.0553 131.224 43.293C131.367 43.5306 131.438 43.8464 131.438 44.2402V46.8477C131.438 47.0234 131.451 47.2106 131.478 47.4092C131.507 47.6077 131.548 47.7786 131.6 47.9219V48H130.706C130.664 47.8958 130.631 47.7575 130.608 47.585C130.586 47.4092 130.574 47.2464 130.574 47.0967ZM130.711 44.7969L130.721 45.4316H130.12C129.915 45.4316 129.728 45.4544 129.559 45.5C129.393 45.5456 129.249 45.6123 129.129 45.7002C129.008 45.7848 128.916 45.8906 128.851 46.0176C128.789 46.1445 128.758 46.2894 128.758 46.4521C128.758 46.6637 128.787 46.833 128.846 46.96C128.904 47.0837 128.992 47.1732 129.109 47.2285C129.227 47.2839 129.375 47.3115 129.554 47.3115C129.772 47.3115 129.964 47.2611 130.13 47.1602C130.296 47.0592 130.424 46.9372 130.516 46.7939C130.61 46.6507 130.654 46.5173 130.647 46.3936L130.838 46.7988C130.825 46.9258 130.783 47.0641 130.711 47.2139C130.643 47.3604 130.547 47.502 130.423 47.6387C130.299 47.7721 130.153 47.8828 129.983 47.9707C129.817 48.0553 129.63 48.0977 129.422 48.0977C129.116 48.0977 128.847 48.0391 128.616 47.9219C128.388 47.8047 128.211 47.6322 128.084 47.4043C127.957 47.1764 127.894 46.8949 127.894 46.5596C127.894 46.3057 127.938 46.0713 128.025 45.8564C128.113 45.6416 128.243 45.4561 128.416 45.2998C128.589 45.1403 128.805 45.0166 129.065 44.9287C129.329 44.8408 129.633 44.7969 129.979 44.7969H130.711ZM134.71 42.7168V43.4102H132.244V42.7168L134.71 42.7168ZM133.05 41.4326L133.914 41.4326V46.6914C133.914 46.8704 133.935 47.0055 133.978 47.0967C134.023 47.1878 134.08 47.248 134.148 47.2773C134.217 47.3066 134.29 47.3213 134.368 47.3213C134.427 47.3213 134.492 47.3148 134.563 47.3018C134.635 47.2855 134.684 47.2725 134.71 47.2627L134.705 48C134.646 48.0228 134.568 48.0439 134.471 48.0635C134.373 48.0863 134.249 48.0977 134.1 48.0977C133.914 48.0977 133.742 48.0537 133.582 47.9658C133.423 47.8779 133.294 47.7314 133.196 47.5264C133.099 47.318 133.05 47.0381 133.05 46.6865V41.4326ZM138.328 47.0967V44.2305C138.328 44.0221 138.296 43.8545 138.23 43.7275C138.169 43.6006 138.074 43.5078 137.947 43.4492C137.824 43.3906 137.667 43.3613 137.479 43.3613C137.296 43.3613 137.138 43.3988 137.005 43.4736C136.875 43.5485 136.774 43.6478 136.702 43.7715C136.634 43.8952 136.6 44.0319 136.6 44.1816H135.735C135.735 43.9928 135.776 43.8057 135.857 43.6201C135.942 43.4346 136.062 43.2669 136.219 43.1172C136.375 42.9642 136.562 42.8437 136.78 42.7559C137.002 42.6647 137.249 42.6191 137.522 42.6191C137.848 42.6191 138.136 42.6729 138.387 42.7803C138.637 42.8844 138.834 43.0553 138.978 43.293C139.121 43.5306 139.192 43.8464 139.192 44.2402V46.8477C139.192 47.0234 139.205 47.2106 139.231 47.4092C139.261 47.6077 139.301 47.7786 139.354 47.9219V48H138.46C138.418 47.8958 138.385 47.7575 138.362 47.585C138.34 47.4092 138.328 47.2464 138.328 47.0967ZM138.465 44.7969L138.475 45.4316H137.874C137.669 45.4316 137.482 45.4544 137.312 45.5C137.146 45.5456 137.003 45.6123 136.883 45.7002C136.762 45.7848 136.67 45.8906 136.604 46.0176C136.543 46.1445 136.512 46.2894 136.512 46.4521C136.512 46.6637 136.541 46.833 136.6 46.96C136.658 47.0837 136.746 47.1732 136.863 47.2285C136.98 47.2839 137.129 47.3115 137.308 47.3115C137.526 47.3115 137.718 47.2611 137.884 47.1602C138.05 47.0592 138.178 46.9372 138.27 46.7939C138.364 46.6507 138.408 46.5173 138.401 46.3936L138.592 46.7988C138.579 46.9258 138.536 47.0641 138.465 47.2139C138.396 47.3604 138.3 47.502 138.177 47.6387C138.053 47.7721 137.907 47.8828 137.737 47.9707C137.571 48.0553 137.384 48.0977 137.176 48.0977C136.87 48.0977 136.601 48.0391 136.37 47.9219C136.142 47.8047 135.965 47.6322 135.838 47.4043C135.711 47.1764 135.647 46.8949 135.647 46.5596C135.647 46.3057 135.691 46.0713 135.779 45.8564C135.867 45.6416 135.997 45.4561 136.17 45.2998C136.342 45.1403 136.559 45.0166 136.819 44.9287C137.083 44.8408 137.387 44.7969 137.732 44.7969H138.465Z" fill="url(#paint1_linear_363_3346)"/>
<path d="M199.09 41.2119H197.537V40.4453H199.09C199.383 40.4453 199.619 40.3867 199.798 40.2695C199.98 40.1523 200.112 39.9896 200.193 39.7812C200.278 39.5729 200.32 39.3353 200.32 39.0684C200.32 38.8242 200.278 38.5947 200.193 38.3799C200.112 38.165 199.98 37.9925 199.798 37.8623C199.619 37.7288 199.383 37.6621 199.09 37.6621H197.723V44H196.824V36.8906H199.09C199.549 36.8906 199.936 36.9834 200.252 37.1689C200.568 37.3545 200.807 37.6117 200.97 37.9404C201.136 38.266 201.219 38.6387 201.219 39.0586C201.219 39.5143 201.136 39.9033 200.97 40.2256C200.807 40.5479 200.568 40.7936 200.252 40.9629C199.936 41.1289 199.549 41.2119 199.09 41.2119ZM203.118 39.5469V44H202.254V38.7168H203.089L203.118 39.5469ZM204.432 38.6875L204.437 39.5273C204.365 39.5111 204.3 39.5013 204.241 39.498C204.186 39.4915 204.121 39.4883 204.046 39.4883C203.883 39.4883 203.74 39.5208 203.616 39.5859C203.496 39.651 203.392 39.7422 203.304 39.8594C203.216 39.9766 203.146 40.1165 203.094 40.2793C203.042 40.4388 203.006 40.6146 202.986 40.8066L202.762 40.9531C202.762 40.6341 202.786 40.3346 202.835 40.0547C202.887 39.7747 202.967 39.5273 203.074 39.3125C203.182 39.0944 203.318 38.9251 203.484 38.8047C203.654 38.681 203.855 38.6191 204.09 38.6191C204.142 38.6191 204.205 38.6273 204.28 38.6436C204.358 38.6566 204.409 38.6712 204.432 38.6875ZM205.022 41.6123V41.1094C205.022 40.6992 205.075 40.3395 205.179 40.0303C205.283 39.7178 205.428 39.4574 205.613 39.249C205.799 39.0407 206.015 38.8844 206.263 38.7803C206.51 38.6729 206.775 38.6191 207.059 38.6191C207.348 38.6191 207.617 38.6729 207.864 38.7803C208.112 38.8844 208.328 39.0407 208.514 39.249C208.702 39.4574 208.849 39.7178 208.953 40.0303C209.057 40.3395 209.109 40.6992 209.109 41.1094V41.6123C209.109 42.0225 209.057 42.3838 208.953 42.6963C208.849 43.0055 208.704 43.2643 208.519 43.4727C208.333 43.681 208.117 43.8372 207.869 43.9414C207.622 44.0456 207.355 44.0977 207.068 44.0977C206.782 44.0977 206.515 44.0456 206.268 43.9414C206.02 43.8372 205.802 43.681 205.613 43.4727C205.428 43.2643 205.283 43.0055 205.179 42.6963C205.075 42.3838 205.022 42.0225 205.022 41.6123ZM205.887 41.1094V41.6123C205.887 41.902 205.916 42.1559 205.975 42.374C206.033 42.5921 206.116 42.7744 206.224 42.9209C206.331 43.0674 206.456 43.1781 206.6 43.2529C206.743 43.3245 206.899 43.3604 207.068 43.3604C207.264 43.3604 207.435 43.3245 207.581 43.2529C207.731 43.1781 207.854 43.0674 207.952 42.9209C208.05 42.7744 208.123 42.5921 208.172 42.374C208.221 42.1559 208.245 41.902 208.245 41.6123V41.1094C208.245 40.8197 208.216 40.5674 208.157 40.3525C208.099 40.1344 208.016 39.9521 207.908 39.8057C207.801 39.6559 207.674 39.5452 207.527 39.4736C207.384 39.3988 207.228 39.3613 207.059 39.3613C206.893 39.3613 206.738 39.3988 206.595 39.4736C206.451 39.5452 206.326 39.6559 206.219 39.8057C206.115 39.9521 206.033 40.1344 205.975 40.3525C205.916 40.5674 205.887 40.8197 205.887 41.1094ZM211.512 43.1846L212.645 38.7168L213.523 38.7168L211.956 44H211.385L211.512 43.1846ZM210.599 38.7168L211.78 43.209L211.873 44H211.307L209.72 38.7168H210.599ZM214.441 38.7168H215.301V44.6299C215.301 44.9521 215.258 45.2256 215.174 45.4502C215.092 45.6748 214.965 45.8441 214.793 45.958C214.624 46.0752 214.407 46.1338 214.144 46.1338C214.072 46.1338 213.989 46.1257 213.895 46.1094C213.803 46.0931 213.725 46.0736 213.66 46.0508V45.3232C213.715 45.3363 213.776 45.346 213.841 45.3525C213.906 45.3623 213.96 45.3672 214.002 45.3672C214.096 45.3672 214.176 45.3428 214.241 45.2939C214.306 45.2451 214.355 45.167 214.388 45.0596C214.424 44.9521 214.441 44.8089 214.441 44.6299V38.7168ZM214.363 37.3154C214.363 37.1689 214.404 37.0452 214.485 36.9443C214.57 36.8434 214.692 36.793 214.852 36.793C215.014 36.793 215.136 36.8434 215.218 36.9443C215.302 37.0452 215.345 37.1689 215.345 37.3154C215.345 37.4554 215.302 37.5758 215.218 37.6768C215.136 37.7744 215.014 37.8232 214.852 37.8232C214.692 37.8232 214.57 37.7744 214.485 37.6768C214.404 37.5758 214.363 37.4554 214.363 37.3154ZM218.558 44.0977C218.242 44.0977 217.957 44.0505 217.703 43.9561C217.449 43.8617 217.233 43.7184 217.054 43.5264C216.875 43.3311 216.738 43.0853 216.644 42.7891C216.549 42.4928 216.502 42.1429 216.502 41.7393V41.1436C216.502 40.6781 216.556 40.2842 216.663 39.9619C216.774 39.6396 216.922 39.3809 217.107 39.1855C217.293 38.987 217.503 38.8437 217.737 38.7559C217.972 38.6647 218.213 38.6191 218.46 38.6191C218.792 38.6191 219.075 38.6729 219.31 38.7803C219.544 38.8877 219.734 39.0472 219.881 39.2588C220.027 39.4704 220.135 39.7308 220.203 40.04C220.275 40.3493 220.311 40.7057 220.311 41.1094V41.6123H217.01V40.875H219.446V40.7529C219.433 40.4795 219.396 40.2386 219.334 40.0303C219.275 39.8219 219.178 39.6592 219.041 39.542C218.904 39.4215 218.711 39.3613 218.46 39.3613C218.3 39.3613 218.152 39.389 218.016 39.4443C217.882 39.4964 217.767 39.5892 217.669 39.7227C217.575 39.8529 217.5 40.0335 217.444 40.2646C217.392 40.4958 217.366 40.7887 217.366 41.1436V41.7393C217.366 42.0225 217.392 42.2666 217.444 42.4717C217.5 42.6735 217.579 42.8411 217.684 42.9746C217.791 43.1048 217.921 43.2025 218.074 43.2676C218.23 43.3294 218.408 43.3604 218.606 43.3604C218.896 43.3604 219.135 43.305 219.324 43.1943C219.513 43.0804 219.677 42.9355 219.817 42.7598L220.271 43.3018C220.177 43.4352 220.053 43.5638 219.9 43.6875C219.751 43.8079 219.565 43.9072 219.344 43.9854C219.126 44.0602 218.864 44.0977 218.558 44.0977ZM222.22 39.5469V44H221.355V38.7168H222.19L222.22 39.5469ZM223.533 38.6875L223.538 39.5273C223.466 39.5111 223.401 39.5013 223.343 39.498C223.287 39.4915 223.222 39.4883 223.147 39.4883C222.985 39.4883 222.841 39.5208 222.718 39.5859C222.597 39.651 222.493 39.7422 222.405 39.8594C222.317 39.9766 222.247 40.1165 222.195 40.2793C222.143 40.4388 222.107 40.6146 222.088 40.8066L221.863 40.9531C221.863 40.6341 221.888 40.3346 221.937 40.0547C221.989 39.7747 222.068 39.5273 222.176 39.3125C222.283 39.0944 222.42 38.9251 222.586 38.8047C222.755 38.681 222.957 38.6191 223.191 38.6191C223.243 38.6191 223.307 38.6273 223.382 38.6436C223.46 38.6566 223.51 38.6712 223.533 38.6875ZM226.795 43.0967V40.2305C226.795 40.0221 226.762 39.8545 226.697 39.7275C226.635 39.6006 226.541 39.5078 226.414 39.4492C226.29 39.3906 226.134 39.3613 225.945 39.3613C225.763 39.3613 225.605 39.3988 225.472 39.4736C225.341 39.5485 225.241 39.6478 225.169 39.7715C225.101 39.8952 225.066 40.0319 225.066 40.1816H224.202C224.202 39.9928 224.243 39.8057 224.324 39.6201C224.409 39.4346 224.529 39.2669 224.686 39.1172C224.842 38.9642 225.029 38.8437 225.247 38.7559C225.468 38.6647 225.716 38.6191 225.989 38.6191C226.315 38.6191 226.603 38.6729 226.854 38.7803C227.104 38.8844 227.301 39.0553 227.444 39.293C227.588 39.5306 227.659 39.8464 227.659 40.2402V42.8477C227.659 43.0234 227.672 43.2106 227.698 43.4092C227.728 43.6077 227.768 43.7786 227.82 43.9219V44H226.927C226.884 43.8958 226.852 43.7575 226.829 43.585C226.806 43.4092 226.795 43.2464 226.795 43.0967ZM226.932 40.7969L226.941 41.4316H226.341C226.136 41.4316 225.949 41.4544 225.779 41.5C225.613 41.5456 225.47 41.6123 225.35 41.7002C225.229 41.7848 225.136 41.8906 225.071 42.0176C225.009 42.1445 224.979 42.2894 224.979 42.4521C224.979 42.6637 225.008 42.833 225.066 42.96C225.125 43.0837 225.213 43.1732 225.33 43.2285C225.447 43.2839 225.595 43.3115 225.774 43.3115C225.993 43.3115 226.185 43.2611 226.351 43.1602C226.517 43.0592 226.645 42.9372 226.736 42.7939C226.831 42.6507 226.875 42.5173 226.868 42.3936L227.059 42.7988C227.046 42.9258 227.003 43.0641 226.932 43.2139C226.863 43.3604 226.767 43.502 226.644 43.6387C226.52 43.7721 226.373 43.8828 226.204 43.9707C226.038 44.0553 225.851 44.0977 225.643 44.0977C225.337 44.0977 225.068 44.0391 224.837 43.9219C224.609 43.8047 224.432 43.6322 224.305 43.4043C224.178 43.1764 224.114 42.8949 224.114 42.5596C224.114 42.3057 224.158 42.0713 224.246 41.8564C224.334 41.6416 224.464 41.4561 224.637 41.2998C224.809 41.1403 225.026 41.0166 225.286 40.9287C225.55 40.8408 225.854 40.7969 226.199 40.7969H226.932ZM232.225 38.7168V44H231.365V38.7168H232.225ZM231.316 37.3154C231.316 37.1689 231.357 37.0452 231.438 36.9443C231.52 36.8434 231.642 36.793 231.805 36.793C231.967 36.793 232.09 36.8434 232.171 36.9443C232.256 37.0452 232.298 37.1689 232.298 37.3154C232.298 37.4554 232.256 37.5758 232.171 37.6768C232.09 37.7744 231.967 37.8232 231.805 37.8232C231.642 37.8232 231.52 37.7744 231.438 37.6768C231.357 37.5758 231.316 37.4554 231.316 37.3154ZM199.407 50.7324V57.0312H198.543V49.7168H199.329L199.407 50.7324ZM202.361 52.1191V52.6123C202.361 53.029 202.322 53.3936 202.244 53.7061C202.169 54.0153 202.057 54.2741 201.907 54.4824C201.761 54.6875 201.58 54.8421 201.365 54.9463C201.15 55.0472 200.905 55.0977 200.628 55.0977C200.351 55.0977 200.11 55.0456 199.905 54.9414C199.703 54.834 199.533 54.6794 199.393 54.4775C199.256 54.2757 199.147 54.0332 199.065 53.75C198.987 53.4635 198.934 53.1429 198.904 52.7881V52.0361C198.934 51.6618 198.987 51.3265 199.065 51.0303C199.144 50.7308 199.251 50.4769 199.388 50.2686C199.528 50.057 199.699 49.8958 199.9 49.7852C200.105 49.6745 200.345 49.6191 200.618 49.6191C200.901 49.6191 201.15 49.668 201.365 49.7656C201.583 49.8633 201.766 50.0146 201.912 50.2197C202.062 50.4215 202.174 50.6803 202.249 50.9961C202.324 51.3086 202.361 51.6829 202.361 52.1191ZM201.497 52.6123V52.1191C201.497 51.8262 201.474 51.5706 201.429 51.3525C201.386 51.1344 201.318 50.9538 201.224 50.8105C201.129 50.6673 201.01 50.5599 200.867 50.4883C200.724 50.4167 200.551 50.3809 200.35 50.3809C200.177 50.3809 200.024 50.4167 199.891 50.4883C199.76 50.5599 199.648 50.6576 199.554 50.7812C199.459 50.9017 199.381 51.04 199.319 51.1963C199.257 51.3493 199.212 51.5088 199.183 51.6748V53.1543C199.238 53.3626 199.311 53.5596 199.402 53.7451C199.493 53.9274 199.616 54.0755 199.769 54.1895C199.925 54.3034 200.122 54.3604 200.359 54.3604C200.558 54.3604 200.729 54.3245 200.872 54.2529C201.015 54.1813 201.132 54.0739 201.224 53.9307C201.318 53.7842 201.386 53.6019 201.429 53.3838C201.474 53.1624 201.497 52.9053 201.497 52.6123ZM204.402 47.5V55H203.543V47.5H204.402ZM208.357 54.0967V51.2305C208.357 51.0221 208.325 50.8545 208.26 50.7275C208.198 50.6006 208.104 50.5078 207.977 50.4492C207.853 50.3906 207.697 50.3613 207.508 50.3613C207.326 50.3613 207.168 50.3988 207.034 50.4736C206.904 50.5485 206.803 50.6478 206.731 50.7715C206.663 50.8952 206.629 51.0319 206.629 51.1816H205.765C205.765 50.9928 205.805 50.8057 205.887 50.6201C205.971 50.4346 206.092 50.2669 206.248 50.1172C206.404 49.9642 206.591 49.8438 206.81 49.7559C207.031 49.6647 207.278 49.6191 207.552 49.6191C207.877 49.6191 208.165 49.6729 208.416 49.7803C208.667 49.8844 208.864 50.0553 209.007 50.293C209.15 50.5306 209.222 50.8464 209.222 51.2402V53.8477C209.222 54.0234 209.235 54.2106 209.261 54.4092C209.29 54.6077 209.331 54.7786 209.383 54.9219V55H208.489C208.447 54.8958 208.414 54.7575 208.392 54.585C208.369 54.4092 208.357 54.2464 208.357 54.0967ZM208.494 51.7969L208.504 52.4316H207.903C207.698 52.4316 207.511 52.4544 207.342 52.5C207.176 52.5456 207.033 52.6123 206.912 52.7002C206.792 52.7848 206.699 52.8906 206.634 53.0176C206.572 53.1445 206.541 53.2894 206.541 53.4521C206.541 53.6637 206.57 53.833 206.629 53.96C206.688 54.0837 206.775 54.1732 206.893 54.2285C207.01 54.2839 207.158 54.3115 207.337 54.3115C207.555 54.3115 207.747 54.2611 207.913 54.1602C208.079 54.0592 208.208 53.9372 208.299 53.7939C208.393 53.6507 208.437 53.5173 208.431 53.3936L208.621 53.7988C208.608 53.9258 208.566 54.0641 208.494 54.2139C208.426 54.3604 208.33 54.502 208.206 54.6387C208.082 54.7721 207.936 54.8828 207.767 54.9707C207.601 55.0553 207.413 55.0977 207.205 55.0977C206.899 55.0977 206.631 55.0391 206.399 54.9219C206.172 54.8047 205.994 54.6322 205.867 54.4043C205.74 54.1764 205.677 53.8949 205.677 53.5596C205.677 53.3057 205.721 53.0713 205.809 52.8564C205.896 52.6416 206.027 52.4561 206.199 52.2998C206.372 52.1403 206.588 52.0166 206.849 51.9287C207.112 51.8408 207.417 51.7969 207.762 51.7969H208.494ZM212.396 54.3604C212.568 54.3604 212.724 54.3262 212.864 54.2578C213.007 54.1862 213.125 54.0755 213.216 53.9258C213.307 53.7728 213.359 53.5742 213.372 53.3301H214.183C214.17 53.6816 214.08 53.9909 213.914 54.2578C213.751 54.5215 213.536 54.7282 213.27 54.8779C213.006 55.0244 212.715 55.0977 212.396 55.0977C212.054 55.0977 211.756 55.0423 211.502 54.9316C211.251 54.821 211.043 54.6615 210.877 54.4531C210.714 54.2415 210.592 53.986 210.511 53.6865C210.429 53.3838 210.389 53.0404 210.389 52.6562V52.0605C210.389 51.6764 210.429 51.3346 210.511 51.0352C210.592 50.7324 210.714 50.4769 210.877 50.2686C211.043 50.057 211.251 49.8958 211.502 49.7852C211.756 49.6745 212.054 49.6191 212.396 49.6191C212.754 49.6191 213.063 49.6956 213.323 49.8486C213.587 49.9984 213.792 50.2165 213.938 50.5029C214.088 50.7861 214.17 51.1296 214.183 51.5332H213.372C213.359 51.2728 213.312 51.0563 213.23 50.8838C213.149 50.708 213.038 50.5778 212.898 50.4932C212.758 50.4053 212.591 50.3613 212.396 50.3613C212.168 50.3613 211.979 50.402 211.829 50.4834C211.683 50.5615 211.567 50.6755 211.482 50.8252C211.398 50.9749 211.338 51.154 211.302 51.3623C211.269 51.5706 211.253 51.8034 211.253 52.0605V52.6562C211.253 52.9134 211.269 53.1478 211.302 53.3594C211.338 53.5677 211.396 53.7467 211.478 53.8965C211.562 54.0462 211.679 54.1618 211.829 54.2432C211.979 54.3213 212.168 54.3604 212.396 54.3604ZM211.688 48.9355L212.635 47.5H213.724L212.415 48.9355H211.688ZM217.771 54.0967V51.2305C217.771 51.0221 217.739 50.8545 217.674 50.7275C217.612 50.6006 217.518 50.5078 217.391 50.4492C217.267 50.3906 217.111 50.3613 216.922 50.3613C216.74 50.3613 216.582 50.3988 216.448 50.4736C216.318 50.5485 216.217 50.6478 216.146 50.7715C216.077 50.8952 216.043 51.0319 216.043 51.1816H215.179C215.179 50.9928 215.219 50.8057 215.301 50.6201C215.385 50.4346 215.506 50.2669 215.662 50.1172C215.818 49.9642 216.006 49.8438 216.224 49.7559C216.445 49.6647 216.692 49.6191 216.966 49.6191C217.291 49.6191 217.579 49.6729 217.83 49.7803C218.081 49.8844 218.278 50.0553 218.421 50.293C218.564 50.5306 218.636 50.8464 218.636 51.2402V53.8477C218.636 54.0234 218.649 54.2106 218.675 54.4092C218.704 54.6077 218.745 54.7786 218.797 54.9219V55H217.903C217.861 54.8958 217.828 54.7575 217.806 54.585C217.783 54.4092 217.771 54.2464 217.771 54.0967ZM217.908 51.7969L217.918 52.4316H217.317C217.112 52.4316 216.925 52.4544 216.756 52.5C216.59 52.5456 216.447 52.6123 216.326 52.7002C216.206 52.7848 216.113 52.8906 216.048 53.0176C215.986 53.1445 215.955 53.2894 215.955 53.4521C215.955 53.6637 215.984 53.833 216.043 53.96C216.102 54.0837 216.189 54.1732 216.307 54.2285C216.424 54.2839 216.572 54.3115 216.751 54.3115C216.969 54.3115 217.161 54.2611 217.327 54.1602C217.493 54.0592 217.622 53.9372 217.713 53.7939C217.807 53.6507 217.851 53.5173 217.845 53.3936L218.035 53.7988C218.022 53.9258 217.98 54.0641 217.908 54.2139C217.84 54.3604 217.744 54.502 217.62 54.6387C217.496 54.7721 217.35 54.8828 217.181 54.9707C217.015 55.0553 216.827 55.0977 216.619 55.0977C216.313 55.0977 216.045 55.0391 215.813 54.9219C215.586 54.8047 215.408 54.6322 215.281 54.4043C215.154 54.1764 215.091 53.8949 215.091 53.5596C215.091 53.3057 215.135 53.0713 215.223 52.8564C215.311 52.6416 215.441 52.4561 215.613 52.2998C215.786 52.1403 216.002 52.0166 216.263 51.9287C216.526 51.8408 216.831 51.7969 217.176 51.7969H217.908ZM220.843 50.8447V55H219.979V49.7168H220.794L220.843 50.8447ZM220.633 52.1582L220.281 52.1436C220.278 51.7822 220.319 51.4486 220.403 51.1426C220.491 50.8333 220.615 50.5648 220.774 50.3369C220.937 50.109 221.131 49.9333 221.355 49.8096C221.58 49.6826 221.829 49.6191 222.103 49.6191C222.317 49.6191 222.513 49.6549 222.688 49.7266C222.864 49.7949 223.014 49.9056 223.138 50.0586C223.261 50.2116 223.356 50.4102 223.421 50.6543C223.489 50.8952 223.523 51.1898 223.523 51.5381V55L222.659 55V51.5283C222.659 51.2516 222.628 51.0303 222.566 50.8643C222.508 50.695 222.417 50.5729 222.293 50.498C222.173 50.4199 222.02 50.3809 221.834 50.3809C221.665 50.3809 221.507 50.4281 221.36 50.5225C221.214 50.6169 221.085 50.7471 220.975 50.9131C220.867 51.0791 220.783 51.2695 220.721 51.4844C220.662 51.696 220.633 51.9206 220.633 52.1582ZM224.842 49.7168H225.701V55.6299C225.701 55.9521 225.659 56.2256 225.574 56.4502C225.493 56.6748 225.366 56.8441 225.193 56.958C225.024 57.0752 224.808 57.1338 224.544 57.1338C224.472 57.1338 224.389 57.1257 224.295 57.1094C224.204 57.0931 224.126 57.0736 224.061 57.0508V56.3232C224.116 56.3363 224.176 56.346 224.241 56.3525C224.306 56.3623 224.36 56.3672 224.402 56.3672C224.497 56.3672 224.576 56.3428 224.642 56.2939C224.707 56.2451 224.756 56.167 224.788 56.0596C224.824 55.9521 224.842 55.8089 224.842 55.6299V49.7168ZM224.764 48.3154C224.764 48.1689 224.804 48.0452 224.886 47.9443C224.97 47.8434 225.092 47.793 225.252 47.793C225.415 47.793 225.537 47.8434 225.618 47.9443C225.703 48.0452 225.745 48.1689 225.745 48.3154C225.745 48.4554 225.703 48.5758 225.618 48.6768C225.537 48.7744 225.415 48.8232 225.252 48.8232C225.092 48.8232 224.97 48.7744 224.886 48.6768C224.804 48.5758 224.764 48.4554 224.764 48.3154ZM228.958 55.0977C228.642 55.0977 228.357 55.0505 228.104 54.9561C227.85 54.8617 227.633 54.7184 227.454 54.5264C227.275 54.3311 227.138 54.0853 227.044 53.7891C226.95 53.4928 226.902 53.1429 226.902 52.7393V52.1436C226.902 51.6781 226.956 51.2842 227.063 50.9619C227.174 50.6396 227.322 50.3809 227.508 50.1855C227.693 49.987 227.903 49.8437 228.138 49.7559C228.372 49.6647 228.613 49.6191 228.86 49.6191C229.192 49.6191 229.476 49.6729 229.71 49.7803C229.944 49.8877 230.135 50.0472 230.281 50.2588C230.428 50.4704 230.535 50.7308 230.604 51.04C230.675 51.3493 230.711 51.7057 230.711 52.1094V52.6123H227.41V51.875H229.847V51.7529C229.834 51.4795 229.796 51.2386 229.734 51.0303C229.676 50.8219 229.578 50.6592 229.441 50.542C229.305 50.4215 229.111 50.3613 228.86 50.3613C228.701 50.3613 228.553 50.389 228.416 50.4443C228.283 50.4964 228.167 50.5892 228.069 50.7227C227.975 50.8529 227.9 51.0335 227.845 51.2646C227.793 51.4958 227.767 51.7887 227.767 52.1436V52.7393C227.767 53.0225 227.793 53.2666 227.845 53.4717C227.9 53.6735 227.98 53.8411 228.084 53.9746C228.191 54.1048 228.322 54.2025 228.475 54.2676C228.631 54.3294 228.808 54.3604 229.007 54.3604C229.297 54.3604 229.536 54.305 229.725 54.1943C229.913 54.0804 230.078 53.9355 230.218 53.7598L230.672 54.3018C230.577 54.4352 230.454 54.5638 230.301 54.6875C230.151 54.8079 229.965 54.9072 229.744 54.9854C229.526 55.0602 229.264 55.0977 228.958 55.0977Z" fill="url(#paint2_linear_363_3346)"/>
<path fill-rule="evenodd" clip-rule="evenodd" d="M204 16L137 16V14L204 14V16Z" fill="url(#paint3_linear_363_3346)"/>
<path fill-rule="evenodd" clip-rule="evenodd" d="M111 16L44 16V14L111 14V16Z" fill="url(#paint4_linear_363_3346)"/>
<path fill-rule="evenodd" clip-rule="evenodd" d="M18.7612 6.17317C18 8.01088 18 10.3406 18 15C18 19.6594 18 21.9891 18.7612 23.8268C19.7761 26.2771 21.7229 28.2239 24.1732 29.2388C26.0109 30 28.3406 30 33 30C37.6594 30 39.9891 30 41.8268 29.2388C44.2771 28.2239 46.2239 26.2771 47.2388 23.8268C48 21.9891 48 19.6594 48 15C48 10.3406 48 8.01088 47.2388 6.17317C46.2239 3.72288 44.2771 1.77614 41.8268 0.761205C39.9891 0 37.6594 0 33 0C28.3406 0 26.0109 0 24.1732 0.761205C21.7229 1.77614 19.7761 3.72288 18.7612 6.17317ZM39.7071 11.7071C40.0976 11.3166 40.0976 10.6834 39.7071 10.2929C39.3166 9.90237 38.6834 9.90237 38.2929 10.2929L31 17.5858L27.7071 14.2929C27.3166 13.9024 26.6834 13.9024 26.2929 14.2929C25.9024 14.6834 25.9024 15.3166 26.2929 15.7071L30.2929 19.7071C30.4804 19.8946 30.7348 20 31 20C31.2652 20 31.5196 19.8946 31.7071 19.7071L39.7071 11.7071Z" fill="url(#paint5_linear_363_3346)"/>
<path fill-rule="evenodd" clip-rule="evenodd" d="M109.761 6.17317C109 8.01088 109 10.3406 109 15C109 19.6594 109 21.9891 109.761 23.8268C110.776 26.2771 112.723 28.2239 115.173 29.2388C117.011 30 119.341 30 124 30C128.659 30 130.989 30 132.827 29.2388C135.277 28.2239 137.224 26.2771 138.239 23.8268C139 21.9891 139 19.6594 139 15C139 10.3406 139 8.01088 138.239 6.17317C137.224 3.72288 135.277 1.77614 132.827 0.761205C130.989 0 128.659 0 124 0C119.341 0 117.011 0 115.173 0.761205C112.723 1.77614 110.776 3.72288 109.761 6.17317ZM130.707 11.7071C131.098 11.3166 131.098 10.6834 130.707 10.2929C130.317 9.90237 129.683 9.90237 129.293 10.2929L122 17.5858L118.707 14.2929C118.317 13.9024 117.683 13.9024 117.293 14.2929C116.902 14.6834 116.902 15.3166 117.293 15.7071L121.293 19.7071C121.48 19.8946 121.735 20 122 20C122.265 20 122.52 19.8946 122.707 19.7071L130.707 11.7071Z" fill="url(#paint6_linear_363_3346)"/>
<path fill-rule="evenodd" clip-rule="evenodd" d="M200.761 6.17317C200 8.01088 200 10.3406 200 15C200 19.6594 200 21.9891 200.761 23.8268C201.776 26.2771 203.723 28.2239 206.173 29.2388C208.011 30 210.341 30 215 30C219.659 30 221.989 30 223.827 29.2388C226.277 28.2239 228.224 26.2771 229.239 23.8268C230 21.9891 230 19.6594 230 15C230 10.3406 230 8.01088 229.239 6.17317C228.224 3.72288 226.277 1.77614 223.827 0.761205C221.989 0 219.659 0 215 0C210.341 0 208.011 0 206.173 0.761205C203.723 1.77614 201.776 3.72288 200.761 6.17317ZM221.707 11.7071C222.098 11.3166 222.098 10.6834 221.707 10.2929C221.317 9.90237 220.683 9.90237 220.293 10.2929L213 17.5858L209.707 14.2929C209.317 13.9024 208.683 13.9024 208.293 14.2929C207.902 14.6834 207.902 15.3166 208.293 15.7071L212.293 19.7071C212.48 19.8946 212.735 20 213 20C213.265 20 213.52 19.8946 213.707 19.7071L221.707 11.7071Z" fill="url(#paint7_linear_363_3346)"/>
<defs>
<linearGradient id="paint0_linear_363_3346" x1="33" y1="57" x2="33" y2="35" gradientUnits="userSpaceOnUse">
<stop stop-color="#5CCC94"/>
<stop offset="1" stop-color="#8CCAAE"/>
</linearGradient>
<linearGradient id="paint1_linear_363_3346" x1="124.5" y1="55" x2="124.5" y2="35" gradientUnits="userSpaceOnUse">
<stop stop-color="#5CCC94"/>
<stop offset="1" stop-color="#8CCAAE"/>
</linearGradient>
<linearGradient id="paint2_linear_363_3346" x1="214.5" y1="68" x2="214.5" y2="35" gradientUnits="userSpaceOnUse">
<stop stop-color="#5CCC94"/>
<stop offset="1" stop-color="#8CCAAE"/>
</linearGradient>
<linearGradient id="paint3_linear_363_3346" x1="170.5" y1="16" x2="170.5" y2="14" gradientUnits="userSpaceOnUse">
<stop stop-color="#5CCC94"/>
<stop offset="1" stop-color="#8CCAAE"/>
</linearGradient>
<linearGradient id="paint4_linear_363_3346" x1="77.5" y1="16" x2="77.5" y2="14" gradientUnits="userSpaceOnUse">
<stop stop-color="#5CCC94"/>
<stop offset="1" stop-color="#8CCAAE"/>
</linearGradient>
<linearGradient id="paint5_linear_363_3346" x1="33" y1="30" x2="33" y2="1.58545e-07" gradientUnits="userSpaceOnUse">
<stop stop-color="#5CCC94"/>
<stop offset="1" stop-color="#8CCAAE"/>
</linearGradient>
<linearGradient id="paint6_linear_363_3346" x1="124" y1="30" x2="124" y2="1.58545e-07" gradientUnits="userSpaceOnUse">
<stop stop-color="#5CCC94"/>
<stop offset="1" stop-color="#8CCAAE"/>
</linearGradient>
<linearGradient id="paint7_linear_363_3346" x1="215" y1="30" x2="215" y2="1.58545e-07" gradientUnits="userSpaceOnUse">
<stop stop-color="#5CCC94"/>
<stop offset="1" stop-color="#8CCAAE"/>
</linearGradient>
</defs>
</svg>
