<svg width="240" height="69" viewBox="0 0 240 69" fill="none" xmlns="http://www.w3.org/2000/svg">
<path d="M27.375 41.7393H28.2734C28.2507 42.2275 28.1514 42.6491 27.9756 43.0039C27.8031 43.3555 27.5508 43.6257 27.2188 43.8145C26.89 44.0033 26.4782 44.0977 25.9834 44.0977C25.6286 44.0977 25.3079 44.0277 25.0215 43.8877C24.735 43.7477 24.4893 43.5475 24.2842 43.2871C24.0824 43.0234 23.9277 42.7077 23.8203 42.3398C23.7129 41.972 23.6592 41.5586 23.6592 41.0996V39.7861C23.6592 39.3304 23.7129 38.9186 23.8203 38.5508C23.931 38.1829 24.0889 37.8688 24.2939 37.6084C24.5023 37.3447 24.7546 37.1429 25.0508 37.0029C25.3503 36.863 25.6888 36.793 26.0664 36.793C26.5286 36.793 26.9193 36.8857 27.2383 37.0713C27.5605 37.2536 27.8079 37.5221 27.9805 37.877C28.1562 38.2285 28.2539 38.6598 28.2734 39.1709H27.375C27.3522 38.7965 27.2936 38.4922 27.1992 38.2578C27.1048 38.0202 26.9648 37.846 26.7793 37.7354C26.597 37.6214 26.3594 37.5645 26.0664 37.5645C25.806 37.5645 25.5798 37.6165 25.3877 37.7207C25.1989 37.8249 25.0426 37.9746 24.9189 38.1699C24.7985 38.362 24.7074 38.5947 24.6455 38.8682C24.5869 39.1383 24.5576 39.4411 24.5576 39.7764V41.0996C24.5576 41.4121 24.582 41.7035 24.6309 41.9736C24.6829 42.2438 24.7643 42.4814 24.875 42.6865C24.9889 42.8883 25.137 43.0462 25.3193 43.1602C25.5016 43.2741 25.723 43.3311 25.9834 43.3311C26.3122 43.3311 26.5726 43.2773 26.7646 43.1699C26.9567 43.0625 27.0983 42.8916 27.1895 42.6572C27.2839 42.4229 27.3457 42.1169 27.375 41.7393ZM25.3438 34.8301L25.9297 35.6602L26.5107 34.8301H27.2529V34.8789L26.1836 36.2168H25.6758L24.6211 34.8789V34.8301H25.3438ZM30.3047 38.7168V44H29.4404V38.7168H30.3047ZM29.3916 37.9453L30.3389 36.5098H31.4277L30.1191 37.9453H29.3916ZM34.2891 42.6475C34.2891 42.514 34.2565 42.3968 34.1914 42.2959C34.1263 42.195 34.0189 42.0973 33.8691 42.0029C33.7227 41.9085 33.5241 41.8076 33.2734 41.7002C33.0293 41.5993 32.8096 41.5 32.6143 41.4023C32.4222 41.3014 32.2594 41.1924 32.126 41.0752C31.9925 40.958 31.89 40.8229 31.8184 40.6699C31.75 40.5137 31.7158 40.3298 31.7158 40.1182C31.7158 39.9066 31.7549 39.7113 31.833 39.5322C31.9144 39.3499 32.0283 39.1904 32.1748 39.0537C32.3213 38.917 32.4971 38.8112 32.7021 38.7363C32.9072 38.6582 33.1367 38.6191 33.3906 38.6191C33.752 38.6191 34.0596 38.6891 34.3135 38.8291C34.5674 38.9691 34.7611 39.1611 34.8945 39.4053C35.0312 39.6462 35.0996 39.918 35.0996 40.2207H34.2402C34.2402 40.0742 34.2077 39.9359 34.1426 39.8057C34.0775 39.6755 33.9814 39.5697 33.8545 39.4883C33.7275 39.4036 33.5729 39.3613 33.3906 39.3613C33.1986 39.3613 33.0423 39.3955 32.9219 39.4639C32.8014 39.5322 32.7135 39.6217 32.6582 39.7324C32.6061 39.8398 32.5801 39.9587 32.5801 40.0889C32.5801 40.1865 32.5931 40.2712 32.6191 40.3428C32.6484 40.4111 32.6973 40.4762 32.7656 40.5381C32.834 40.5967 32.9268 40.6585 33.0439 40.7236C33.1644 40.7855 33.3174 40.8571 33.5029 40.9385C33.861 41.0785 34.1621 41.2201 34.4062 41.3633C34.6504 41.5065 34.8359 41.6742 34.9629 41.8662C35.0898 42.0583 35.1533 42.2959 35.1533 42.5791C35.1533 42.8102 35.111 43.0202 35.0264 43.209C34.945 43.3945 34.8278 43.554 34.6748 43.6875C34.5218 43.821 34.3379 43.9235 34.123 43.9951C33.9115 44.0635 33.6738 44.0977 33.4102 44.0977C33.013 44.0977 32.6761 44.0195 32.3994 43.8633C32.126 43.7038 31.9176 43.4971 31.7744 43.2432C31.6344 42.986 31.5645 42.7109 31.5645 42.418H32.4287C32.4385 42.6654 32.4938 42.8574 32.5947 42.9941C32.6989 43.1309 32.8242 43.2253 32.9707 43.2773C33.1172 43.3294 33.2637 43.3555 33.4102 43.3555C33.6022 43.3555 33.7633 43.3278 33.8936 43.2725C34.0238 43.2139 34.1214 43.1309 34.1865 43.0234C34.2549 42.916 34.2891 42.7907 34.2891 42.6475ZM37.2139 36.5V44H36.3545V36.5H37.2139ZM38.4004 41.6123V41.1094C38.4004 40.6992 38.4525 40.3395 38.5566 40.0303C38.6608 39.7178 38.8057 39.4574 38.9912 39.249C39.1768 39.0407 39.3932 38.8844 39.6406 38.7803C39.888 38.6729 40.1533 38.6191 40.4365 38.6191C40.7262 38.6191 40.9948 38.6729 41.2422 38.7803C41.4896 38.8844 41.7061 39.0407 41.8916 39.249C42.0804 39.4574 42.2269 39.7178 42.3311 40.0303C42.4352 40.3395 42.4873 40.6992 42.4873 41.1094V41.6123C42.4873 42.0225 42.4352 42.3838 42.3311 42.6963C42.2269 43.0055 42.082 43.2643 41.8965 43.4727C41.7109 43.681 41.4945 43.8372 41.2471 43.9414C40.9997 44.0456 40.7327 44.0977 40.4463 44.0977C40.1598 44.0977 39.8929 44.0456 39.6455 43.9414C39.3981 43.8372 39.18 43.681 38.9912 43.4727C38.8057 43.2643 38.6608 43.0055 38.5566 42.6963C38.4525 42.3838 38.4004 42.0225 38.4004 41.6123ZM39.2646 41.1094V41.6123C39.2646 41.902 39.2939 42.1559 39.3525 42.374C39.4111 42.5921 39.4941 42.7744 39.6016 42.9209C39.709 43.0674 39.8343 43.1781 39.9775 43.2529C40.1208 43.3245 40.277 43.3604 40.4463 43.3604C40.6416 43.3604 40.8125 43.3245 40.959 43.2529C41.1087 43.1781 41.2324 43.0674 41.3301 42.9209C41.4277 42.7744 41.501 42.5921 41.5498 42.374C41.5986 42.1559 41.623 41.902 41.623 41.6123V41.1094C41.623 40.8197 41.5938 40.5674 41.5352 40.3525C41.4766 40.1344 41.3936 39.9521 41.2861 39.8057C41.1787 39.6559 41.0518 39.5452 40.9053 39.4736C40.762 39.3988 40.6058 39.3613 40.4365 39.3613C40.2705 39.3613 40.1159 39.3988 39.9727 39.4736C39.8294 39.5452 39.7041 39.6559 39.5967 39.8057C39.4925 39.9521 39.4111 40.1344 39.3525 40.3525C39.2939 40.5674 39.2646 40.8197 39.2646 41.1094ZM12.3262 50.7324L12.3262 57.0312H11.4619L11.4619 49.7168H12.248L12.3262 50.7324ZM15.2803 52.1191V52.6123C15.2803 53.029 15.2412 53.3936 15.1631 53.7061C15.0882 54.0153 14.9759 54.2741 14.8262 54.4824C14.6797 54.6875 14.499 54.8421 14.2842 54.9463C14.0693 55.0472 13.8236 55.0977 13.5469 55.0977C13.2702 55.0977 13.0293 55.0456 12.8242 54.9414C12.6224 54.834 12.4515 54.6794 12.3115 54.4775C12.1748 54.2757 12.0658 54.0332 11.9844 53.75C11.9063 53.4635 11.8525 53.1429 11.8232 52.7881V52.0361C11.8525 51.6618 11.9063 51.3265 11.9844 51.0303C12.0625 50.7308 12.1699 50.4769 12.3066 50.2686C12.4466 50.057 12.6175 49.8958 12.8193 49.7852C13.0244 49.6745 13.2637 49.6191 13.5371 49.6191C13.8203 49.6191 14.0693 49.668 14.2842 49.7656C14.5023 49.8633 14.6846 50.0146 14.8311 50.2197C14.9808 50.4215 15.0931 50.6803 15.168 50.9961C15.2428 51.3086 15.2803 51.6829 15.2803 52.1191ZM14.416 52.6123V52.1191C14.416 51.8262 14.3932 51.5706 14.3477 51.3525C14.3053 51.1344 14.237 50.9538 14.1426 50.8105C14.0482 50.6673 13.9294 50.5599 13.7861 50.4883C13.6429 50.4167 13.4704 50.3809 13.2686 50.3809C13.096 50.3809 12.943 50.4167 12.8096 50.4883C12.6794 50.5599 12.5671 50.6576 12.4727 50.7812C12.3783 50.9017 12.3001 51.04 12.2383 51.1963C12.1764 51.3493 12.1309 51.5088 12.1016 51.6748V53.1543C12.1569 53.3626 12.2301 53.5596 12.3213 53.7451C12.4124 53.9274 12.5345 54.0755 12.6875 54.1895C12.8438 54.3034 13.0407 54.3604 13.2783 54.3604C13.4769 54.3604 13.6478 54.3245 13.791 54.2529C13.9342 54.1813 14.0514 54.0739 14.1426 53.9307C14.237 53.7842 14.3053 53.6019 14.3477 53.3838C14.3932 53.1624 14.416 52.9053 14.416 52.6123ZM16.2129 52.6123V52.1094C16.2129 51.6992 16.265 51.3395 16.3691 51.0303C16.4733 50.7178 16.6182 50.4574 16.8037 50.249C16.9893 50.0407 17.2057 49.8844 17.4531 49.7803C17.7005 49.6729 17.9658 49.6191 18.249 49.6191C18.5387 49.6191 18.8073 49.6729 19.0547 49.7803C19.3021 49.8844 19.5186 50.0407 19.7041 50.249C19.8929 50.4574 20.0394 50.7178 20.1436 51.0303C20.2477 51.3395 20.2998 51.6992 20.2998 52.1094V52.6123C20.2998 53.0225 20.2477 53.3838 20.1436 53.6963C20.0394 54.0055 19.8945 54.2643 19.709 54.4727C19.5234 54.681 19.307 54.8372 19.0596 54.9414C18.8122 55.0456 18.5452 55.0977 18.2588 55.0977C17.9723 55.0977 17.7054 55.0456 17.458 54.9414C17.2106 54.8372 16.9925 54.681 16.8037 54.4727C16.6182 54.2643 16.4733 54.0055 16.3691 53.6963C16.265 53.3838 16.2129 53.0225 16.2129 52.6123ZM17.0771 52.1094V52.6123C17.0771 52.902 17.1064 53.1559 17.165 53.374C17.2236 53.5921 17.3066 53.7744 17.4141 53.9209C17.5215 54.0674 17.6468 54.1781 17.79 54.2529C17.9333 54.3245 18.0895 54.3604 18.2588 54.3604C18.4541 54.3604 18.625 54.3245 18.7715 54.2529C18.9212 54.1781 19.0449 54.0674 19.1426 53.9209C19.2402 53.7744 19.3135 53.5921 19.3623 53.374C19.4111 53.1559 19.4355 52.902 19.4355 52.6123V52.1094C19.4355 51.8197 19.4063 51.5674 19.3477 51.3525C19.2891 51.1344 19.2061 50.9521 19.0986 50.8057C18.9912 50.6559 18.8643 50.5452 18.7178 50.4736C18.5745 50.3988 18.4183 50.3613 18.249 50.3613C18.083 50.3613 17.9284 50.3988 17.7852 50.4736C17.6419 50.5452 17.5166 50.6559 17.4092 50.8057C17.305 50.9521 17.2236 51.1344 17.165 51.3525C17.1064 51.5674 17.0771 51.8197 17.0771 52.1094ZM24.6797 54.2578V55H21.4814V54.2578H24.6797ZM24.582 50.3564L21.6768 55H21.1494V54.3359L24.0352 49.7168H24.582V50.3564ZM24.2061 49.7168V50.4639H21.1641V49.7168H24.2061ZM26.5938 50.8447V55H25.7295V49.7168H26.5449L26.5938 50.8447ZM26.3838 52.1582L26.0322 52.1436C26.029 51.7822 26.0697 51.4486 26.1543 51.1426C26.2422 50.8333 26.3659 50.5648 26.5254 50.3369C26.6882 50.109 26.8818 49.9333 27.1064 49.8096C27.3311 49.6826 27.5801 49.6191 27.8535 49.6191C28.0684 49.6191 28.2637 49.6549 28.4395 49.7266C28.6152 49.7949 28.765 49.9056 28.8887 50.0586C29.0124 50.2116 29.1068 50.4102 29.1719 50.6543C29.2402 50.8952 29.2744 51.1898 29.2744 51.5381V55H28.4102V51.5283C28.4102 51.2516 28.3792 51.0303 28.3174 50.8643C28.2588 50.695 28.1676 50.5729 28.0439 50.498C27.9235 50.4199 27.7705 50.3809 27.585 50.3809C27.4157 50.3809 27.2578 50.4281 27.1113 50.5225C26.9648 50.6169 26.8363 50.7471 26.7256 50.9131C26.6182 51.0791 26.5335 51.2695 26.4717 51.4844C26.4131 51.696 26.3838 51.9206 26.3838 52.1582ZM33.1611 54.0967V51.2305C33.1611 51.0221 33.1286 50.8545 33.0635 50.7275C33.0016 50.6006 32.9072 50.5078 32.7803 50.4492C32.6566 50.3906 32.5003 50.3613 32.3115 50.3613C32.1292 50.3613 31.9714 50.3988 31.8379 50.4736C31.7077 50.5485 31.6068 50.6478 31.5352 50.7715C31.4668 50.8952 31.4326 51.0319 31.4326 51.1816H30.5684C30.5684 50.9928 30.609 50.8057 30.6904 50.6201C30.7751 50.4346 30.8955 50.2669 31.0518 50.1172C31.208 49.9642 31.3952 49.8437 31.6133 49.7559C31.8346 49.6647 32.082 49.6191 32.3555 49.6191C32.681 49.6191 32.9691 49.6729 33.2197 49.7803C33.4704 49.8844 33.6673 50.0553 33.8105 50.293C33.9538 50.5306 34.0254 50.8464 34.0254 51.2402V53.8477C34.0254 54.0234 34.0384 54.2106 34.0645 54.4092C34.0938 54.6077 34.1344 54.7786 34.1865 54.9219V55H33.293C33.2507 54.8958 33.2181 54.7575 33.1953 54.585C33.1725 54.4092 33.1611 54.2464 33.1611 54.0967ZM33.2979 51.7969L33.3076 52.4316L32.707 52.4316C32.502 52.4316 32.3148 52.4544 32.1455 52.5C31.9795 52.5456 31.8363 52.6123 31.7158 52.7002C31.5954 52.7848 31.5026 52.8906 31.4375 53.0176C31.3757 53.1445 31.3447 53.2894 31.3447 53.4521C31.3447 53.6637 31.374 53.833 31.4326 53.96C31.4912 54.0837 31.5791 54.1732 31.6963 54.2285C31.8135 54.2839 31.9616 54.3115 32.1406 54.3115C32.3587 54.3115 32.5508 54.2611 32.7168 54.1602C32.8828 54.0592 33.0114 53.9372 33.1025 53.7939C33.1969 53.6507 33.2409 53.5173 33.2344 53.3936L33.4248 53.7988C33.4118 53.9258 33.3695 54.0641 33.2979 54.2139C33.2295 54.3604 33.1335 54.502 33.0098 54.6387C32.8861 54.7721 32.7396 54.8828 32.5703 54.9707C32.4043 55.0553 32.2171 55.0977 32.0088 55.0977C31.7028 55.0977 31.4342 55.0391 31.2031 54.9219C30.9753 54.8047 30.7979 54.6322 30.6709 54.4043C30.5439 54.1764 30.4805 53.8949 30.4805 53.5596C30.4805 53.3057 30.5244 53.0713 30.6123 52.8564C30.7002 52.6416 30.8304 52.4561 31.0029 52.2998C31.1755 52.1403 31.3919 52.0166 31.6523 51.9287C31.916 51.8408 32.2204 51.7969 32.5654 51.7969L33.2979 51.7969ZM31.9111 48.9355L32.8584 47.5H33.9473L32.6387 48.9355H31.9111ZM36.6572 54.1846L37.79 49.7168H38.6689L37.1016 55H36.5303L36.6572 54.1846ZM35.7441 49.7168L36.9258 54.209L37.0186 55H36.4521L34.8652 49.7168H35.7441ZM42.0771 54.0967V51.2305C42.0771 51.0221 42.0446 50.8545 41.9795 50.7275C41.9176 50.6006 41.8232 50.5078 41.6963 50.4492C41.5726 50.3906 41.4163 50.3613 41.2275 50.3613C41.0452 50.3613 40.8874 50.3988 40.7539 50.4736C40.6237 50.5485 40.5228 50.6478 40.4512 50.7715C40.3828 50.8952 40.3486 51.0319 40.3486 51.1816H39.4844C39.4844 50.9928 39.5251 50.8057 39.6064 50.6201C39.6911 50.4346 39.8115 50.2669 39.9678 50.1172C40.124 49.9642 40.3112 49.8437 40.5293 49.7559C40.7507 49.6647 40.998 49.6191 41.2715 49.6191C41.597 49.6191 41.8851 49.6729 42.1357 49.7803C42.3864 49.8844 42.5833 50.0553 42.7266 50.293C42.8698 50.5306 42.9414 50.8464 42.9414 51.2402V53.8477C42.9414 54.0234 42.9544 54.2106 42.9805 54.4092C43.0098 54.6077 43.0505 54.7786 43.1025 54.9219V55H42.209C42.1667 54.8958 42.1341 54.7575 42.1113 54.585C42.0885 54.4092 42.0771 54.2464 42.0771 54.0967ZM42.2139 51.7969L42.2236 52.4316H41.623C41.418 52.4316 41.2308 52.4544 41.0615 52.5C40.8955 52.5456 40.7523 52.6123 40.6318 52.7002C40.5114 52.7848 40.4186 52.8906 40.3535 53.0176C40.2917 53.1445 40.2607 53.2894 40.2607 53.4521C40.2607 53.6637 40.29 53.833 40.3486 53.96C40.4072 54.0837 40.4951 54.1732 40.6123 54.2285C40.7295 54.2839 40.8776 54.3115 41.0566 54.3115C41.2747 54.3115 41.4668 54.2611 41.6328 54.1602C41.7988 54.0592 41.9274 53.9372 42.0186 53.7939C42.113 53.6507 42.1569 53.5173 42.1504 53.3936L42.3408 53.7988C42.3278 53.9258 42.2855 54.0641 42.2139 54.2139C42.1455 54.3604 42.0495 54.502 41.9258 54.6387C41.8021 54.7721 41.6556 54.8828 41.4863 54.9707C41.3203 55.0553 41.1331 55.0977 40.9248 55.0977C40.6188 55.0977 40.3503 55.0391 40.1191 54.9219C39.8913 54.8047 39.7139 54.6322 39.5869 54.4043C39.46 54.1764 39.3965 53.8949 39.3965 53.5596C39.3965 53.3057 39.4404 53.0713 39.5283 52.8564C39.6162 52.6416 39.7464 52.4561 39.9189 52.2998C40.0915 52.1403 40.3079 52.0166 40.5684 51.9287C40.832 51.8408 41.1364 51.7969 41.4814 51.7969H42.2139ZM46.1152 54.3604C46.2878 54.3604 46.444 54.3262 46.584 54.2578C46.7272 54.1862 46.8444 54.0755 46.9355 53.9258C47.0267 53.7728 47.0788 53.5742 47.0918 53.3301H47.9023C47.8893 53.6816 47.7998 53.9909 47.6338 54.2578C47.471 54.5215 47.2562 54.7282 46.9893 54.8779C46.7256 55.0244 46.4342 55.0977 46.1152 55.0977C45.7734 55.0977 45.4756 55.0423 45.2217 54.9316C44.971 54.821 44.7627 54.6615 44.5967 54.4531C44.4339 54.2415 44.3118 53.986 44.2305 53.6865C44.1491 53.3838 44.1084 53.0404 44.1084 52.6562V52.0605C44.1084 51.6764 44.1491 51.3346 44.2305 51.0352C44.3118 50.7324 44.4339 50.4769 44.5967 50.2686C44.7627 50.057 44.971 49.8958 45.2217 49.7852C45.4756 49.6745 45.7734 49.6191 46.1152 49.6191C46.4733 49.6191 46.7826 49.6956 47.043 49.8486C47.3066 49.9984 47.5117 50.2165 47.6582 50.5029C47.8079 50.7861 47.8893 51.1296 47.9023 51.5332H47.0918C47.0788 51.2728 47.0316 51.0563 46.9502 50.8838C46.8688 50.708 46.7581 50.5778 46.6182 50.4932C46.4782 50.4053 46.3105 50.3613 46.1152 50.3613C45.8874 50.3613 45.6986 50.402 45.5488 50.4834C45.4023 50.5615 45.2868 50.6755 45.2021 50.8252C45.1175 50.9749 45.0573 51.154 45.0215 51.3623C44.9889 51.5706 44.9727 51.8034 44.9727 52.0605V52.6562C44.9727 52.9134 44.9889 53.1478 45.0215 53.3594C45.0573 53.5677 45.1159 53.7467 45.1973 53.8965C45.2819 54.0462 45.3991 54.1618 45.5488 54.2432C45.6986 54.3213 45.8874 54.3604 46.1152 54.3604ZM50.793 55.0977C50.4772 55.0977 50.1924 55.0505 49.9385 54.9561C49.6846 54.8617 49.4681 54.7184 49.2891 54.5264C49.11 54.3311 48.9733 54.0853 48.8789 53.7891C48.7845 53.4928 48.7373 53.1429 48.7373 52.7393V52.1436C48.7373 51.6781 48.791 51.2842 48.8984 50.9619C49.0091 50.6396 49.1572 50.3809 49.3428 50.1855C49.5283 49.987 49.7383 49.8437 49.9727 49.7559C50.207 49.6647 50.4479 49.6191 50.6953 49.6191C51.0273 49.6191 51.3105 49.6729 51.5449 49.7803C51.7793 49.8877 51.9697 50.0472 52.1162 50.2588C52.2627 50.4704 52.3701 50.7308 52.4385 51.04C52.5101 51.3493 52.5459 51.7057 52.5459 52.1094V52.6123H49.2451V51.875H51.6816V51.7529C51.6686 51.4795 51.6312 51.2386 51.5693 51.0303C51.5107 50.8219 51.4131 50.6592 51.2764 50.542C51.1396 50.4215 50.946 50.3613 50.6953 50.3613C50.5358 50.3613 50.3877 50.389 50.251 50.4443C50.1175 50.4964 50.002 50.5892 49.9043 50.7227C49.8099 50.8529 49.735 51.0335 49.6797 51.2646C49.6276 51.4958 49.6016 51.7887 49.6016 52.1436V52.7393C49.6016 53.0225 49.6276 53.2666 49.6797 53.4717C49.735 53.6735 49.8148 53.8411 49.9189 53.9746C50.0264 54.1048 50.1566 54.2025 50.3096 54.2676C50.4658 54.3294 50.6432 54.3604 50.8418 54.3604C51.1315 54.3604 51.3708 54.305 51.5596 54.1943C51.7484 54.0804 51.9128 53.9355 52.0527 53.7598L52.5068 54.3018C52.4124 54.4352 52.2887 54.5638 52.1357 54.6875C51.986 54.8079 51.8005 54.9072 51.5791 54.9854C51.361 55.0602 51.099 55.0977 50.793 55.0977ZM53.6104 49.7168H54.4697V55.6299C54.4697 55.9521 54.4274 56.2256 54.3428 56.4502C54.2614 56.6748 54.1344 56.8441 53.9619 56.958C53.7926 57.0752 53.5762 57.1338 53.3125 57.1338C53.2409 57.1338 53.1579 57.1257 53.0635 57.1094C52.9723 57.0931 52.8942 57.0736 52.8291 57.0508V56.3232C52.8844 56.3363 52.9447 56.346 53.0098 56.3525C53.0749 56.3623 53.1286 56.3672 53.1709 56.3672C53.2653 56.3672 53.3451 56.3428 53.4102 56.2939C53.4753 56.2451 53.5241 56.167 53.5566 56.0596C53.5924 55.9521 53.6104 55.8089 53.6104 55.6299V49.7168ZM53.5322 48.3154C53.5322 48.1689 53.5729 48.0452 53.6543 47.9443C53.7389 47.8434 53.861 47.793 54.0205 47.793C54.1833 47.793 54.3053 47.8434 54.3867 47.9443C54.4714 48.0452 54.5137 48.1689 54.5137 48.3154C54.5137 48.4554 54.4714 48.5758 54.3867 48.6768C54.3053 48.7744 54.1833 48.8232 54.0205 48.8232C53.861 48.8232 53.7389 48.7744 53.6543 48.6768C53.5729 48.5758 53.5322 48.4554 53.5322 48.3154ZM23.3271 65.2578V66H20.1289V65.2578H23.3271ZM23.2295 61.3564L20.3242 66H19.7969V65.3359L22.6826 60.7168H23.2295V61.3564ZM22.8535 60.7168V61.4639H19.8115V60.7168H22.8535ZM25.2412 61.8447V66H24.377V60.7168H25.1924L25.2412 61.8447ZM25.0313 63.1582L24.6797 63.1436C24.6764 62.7822 24.7171 62.4486 24.8018 62.1426C24.8896 61.8333 25.0133 61.5648 25.1729 61.3369C25.3356 61.109 25.5293 60.9333 25.7539 60.8096C25.9785 60.6826 26.2275 60.6191 26.501 60.6191C26.7158 60.6191 26.9111 60.6549 27.0869 60.7266C27.2627 60.7949 27.4124 60.9056 27.5361 61.0586C27.6598 61.2116 27.7542 61.4102 27.8193 61.6543C27.8877 61.8952 27.9219 62.1898 27.9219 62.5381V66H27.0576V62.5283C27.0576 62.2516 27.0267 62.0303 26.9648 61.8643C26.9063 61.695 26.8151 61.5729 26.6914 61.498C26.571 61.4199 26.418 61.3809 26.2324 61.3809C26.0632 61.3809 25.9053 61.4281 25.7588 61.5225C25.6123 61.6169 25.4837 61.7471 25.373 61.9131C25.2656 62.0791 25.181 62.2695 25.1191 62.4844C25.0605 62.696 25.0313 62.9206 25.0313 63.1582ZM31.8086 65.0967V62.2305C31.8086 62.0221 31.776 61.8545 31.7109 61.7275C31.6491 61.6006 31.5547 61.5078 31.4277 61.4492C31.304 61.3906 31.1478 61.3613 30.959 61.3613C30.7767 61.3613 30.6188 61.3988 30.4854 61.4736C30.3551 61.5485 30.2542 61.6478 30.1826 61.7715C30.1143 61.8952 30.0801 62.0319 30.0801 62.1816H29.2158C29.2158 61.9928 29.2565 61.8057 29.3379 61.6201C29.4225 61.4346 29.543 61.2669 29.6992 61.1172C29.8555 60.9642 30.0426 60.8438 30.2607 60.7559C30.4821 60.6647 30.7295 60.6191 31.0029 60.6191C31.3285 60.6191 31.6165 60.6729 31.8672 60.7803C32.1178 60.8844 32.3148 61.0553 32.458 61.293C32.6012 61.5306 32.6729 61.8464 32.6729 62.2402V64.8477C32.6729 65.0234 32.6859 65.2106 32.7119 65.4092C32.7412 65.6077 32.7819 65.7786 32.834 65.9219V66H31.9404C31.8981 65.8958 31.8656 65.7575 31.8428 65.585C31.82 65.4092 31.8086 65.2464 31.8086 65.0967ZM31.9453 62.7969L31.9551 63.4316H31.3545C31.1494 63.4316 30.9622 63.4544 30.793 63.5C30.627 63.5456 30.4837 63.6123 30.3633 63.7002C30.2428 63.7848 30.1501 63.8906 30.085 64.0176C30.0231 64.1445 29.9922 64.2894 29.9922 64.4521C29.9922 64.6637 30.0215 64.833 30.0801 64.96C30.1387 65.0837 30.2266 65.1732 30.3438 65.2285C30.4609 65.2839 30.609 65.3115 30.7881 65.3115C31.0062 65.3115 31.1982 65.2611 31.3643 65.1602C31.5303 65.0592 31.6589 64.9372 31.75 64.7939C31.8444 64.6507 31.8883 64.5173 31.8818 64.3936L32.0723 64.7988C32.0592 64.9258 32.0169 65.0641 31.9453 65.2139C31.877 65.3604 31.7809 65.502 31.6572 65.6387C31.5335 65.7721 31.387 65.8828 31.2178 65.9707C31.0518 66.0553 30.8646 66.0977 30.6563 66.0977C30.3503 66.0977 30.0817 66.0391 29.8506 65.9219C29.6227 65.8047 29.4453 65.6322 29.3184 65.4043C29.1914 65.1764 29.1279 64.8949 29.1279 64.5596C29.1279 64.3057 29.1719 64.0713 29.2598 63.8564C29.3477 63.6416 29.4779 63.4561 29.6504 63.2998C29.8229 63.1403 30.0394 63.0166 30.2998 62.9287C30.5635 62.8408 30.8678 62.7969 31.2129 62.7969H31.9453ZM35.8467 65.3604C36.0192 65.3604 36.1755 65.3262 36.3154 65.2578C36.4587 65.1862 36.5758 65.0755 36.667 64.9258C36.7581 64.7728 36.8102 64.5742 36.8232 64.3301H37.6338C37.6208 64.6816 37.5313 64.9909 37.3652 65.2578C37.2025 65.5215 36.9876 65.7282 36.7207 65.8779C36.457 66.0244 36.1657 66.0977 35.8467 66.0977C35.5049 66.0977 35.207 66.0423 34.9531 65.9316C34.7025 65.821 34.4941 65.6615 34.3281 65.4531C34.1654 65.2415 34.0433 64.986 33.9619 64.6865C33.8805 64.3838 33.8398 64.0404 33.8398 63.6562V63.0605C33.8398 62.6764 33.8805 62.3346 33.9619 62.0352C34.0433 61.7324 34.1654 61.4769 34.3281 61.2686C34.4941 61.057 34.7025 60.8958 34.9531 60.7852C35.207 60.6745 35.5049 60.6191 35.8467 60.6191C36.2048 60.6191 36.514 60.6956 36.7744 60.8486C37.0381 60.9984 37.2432 61.2165 37.3896 61.5029C37.5394 61.7861 37.6208 62.1296 37.6338 62.5332H36.8232C36.8102 62.2728 36.763 62.0563 36.6816 61.8838C36.6003 61.708 36.4896 61.5778 36.3496 61.4932C36.2096 61.4053 36.042 61.3613 35.8467 61.3613C35.6188 61.3613 35.43 61.402 35.2803 61.4834C35.1338 61.5615 35.0182 61.6755 34.9336 61.8252C34.849 61.9749 34.7887 62.154 34.7529 62.3623C34.7204 62.5706 34.7041 62.8034 34.7041 63.0605V63.6562C34.7041 63.9134 34.7204 64.1478 34.7529 64.3594C34.7887 64.5677 34.8473 64.7467 34.9287 64.8965C35.0133 65.0462 35.1305 65.1618 35.2803 65.2432C35.43 65.3213 35.6188 65.3604 35.8467 65.3604ZM35.0459 58.5049L35.6318 59.335L36.2129 58.5049H36.9551V58.5537L35.8857 59.8916H35.3779L34.3232 58.5537V58.5049H35.0459ZM39.5039 58.5V66H38.6396V58.5H39.5039ZM42.1846 60.7168L40.3047 63.1826L39.1426 64.5205L39.084 63.5586L39.8848 62.4551L41.1445 60.7168H42.1846ZM41.3936 66L39.9092 63.4805L40.3535 62.6748L42.3994 66H41.3936ZM44.3721 65.4531L45.5488 60.7168H46.4668L44.7236 66.8154C44.6813 66.9456 44.6243 67.0856 44.5527 67.2354C44.4844 67.3883 44.3965 67.5332 44.2891 67.6699C44.1816 67.8066 44.0531 67.9173 43.9033 68.002C43.7536 68.0898 43.5778 68.1338 43.376 68.1338C43.3141 68.1338 43.2344 68.124 43.1367 68.1045C43.0423 68.085 42.974 68.0687 42.9316 68.0557V67.3232C42.9512 67.3265 42.9821 67.3298 43.0244 67.333C43.0667 67.3395 43.0977 67.3428 43.1172 67.3428C43.2865 67.3428 43.4297 67.3151 43.5469 67.2598C43.6673 67.2077 43.7699 67.1182 43.8545 66.9912C43.9391 66.8675 44.0107 66.6966 44.0693 66.4785L44.3721 65.4531ZM43.6104 60.7168L44.6602 64.8184L44.8848 65.7705L44.2695 66.1025L42.668 60.7168H43.6104Z" fill="url(#paint0_linear_363_2980)"/>
<path d="M105.113 40.8906V48H104.215V40.8906H105.113ZM107.511 44.0889V44.8604H104.942V44.0889H107.511ZM107.916 40.8906V41.6621H104.942V40.8906H107.916ZM111.334 47.0967V44.2305C111.334 44.0221 111.301 43.8545 111.236 43.7275C111.174 43.6006 111.08 43.5078 110.953 43.4492C110.829 43.3906 110.673 43.3613 110.484 43.3613C110.302 43.3613 110.144 43.3988 110.011 43.4736C109.881 43.5485 109.78 43.6478 109.708 43.7715C109.64 43.8952 109.605 44.0319 109.605 44.1816H108.741C108.741 43.9928 108.782 43.8057 108.863 43.6201C108.948 43.4346 109.068 43.2669 109.225 43.1172C109.381 42.9642 109.568 42.8438 109.786 42.7559C110.007 42.6647 110.255 42.6191 110.528 42.6191C110.854 42.6191 111.142 42.6729 111.393 42.7803C111.643 42.8844 111.84 43.0553 111.983 43.293C112.127 43.5306 112.198 43.8464 112.198 44.2402V46.8477C112.198 47.0234 112.211 47.2106 112.237 47.4092C112.267 47.6077 112.307 47.7786 112.359 47.9219V48H111.466C111.424 47.8958 111.391 47.7575 111.368 47.585C111.345 47.4092 111.334 47.2464 111.334 47.0967ZM111.471 44.7969L111.48 45.4316H110.88C110.675 45.4316 110.488 45.4544 110.318 45.5C110.152 45.5456 110.009 45.6123 109.889 45.7002C109.768 45.7848 109.675 45.8906 109.61 46.0176C109.549 46.1445 109.518 46.2894 109.518 46.4521C109.518 46.6637 109.547 46.833 109.605 46.96C109.664 47.0837 109.752 47.1732 109.869 47.2285C109.986 47.2839 110.134 47.3115 110.313 47.3115C110.532 47.3115 110.724 47.2611 110.89 47.1602C111.056 47.0592 111.184 46.9372 111.275 46.7939C111.37 46.6507 111.414 46.5173 111.407 46.3936L111.598 46.7988C111.585 46.9258 111.542 47.0641 111.471 47.2139C111.402 47.3604 111.306 47.502 111.183 47.6387C111.059 47.7721 110.912 47.8828 110.743 47.9707C110.577 48.0553 110.39 48.0977 110.182 48.0977C109.876 48.0977 109.607 48.0391 109.376 47.9219C109.148 47.8047 108.971 47.6322 108.844 47.4043C108.717 47.1764 108.653 46.8949 108.653 46.5596C108.653 46.3057 108.697 46.0713 108.785 45.8564C108.873 45.6416 109.003 45.4561 109.176 45.2998C109.348 45.1403 109.565 45.0166 109.825 44.9287C110.089 44.8408 110.393 44.7969 110.738 44.7969H111.471ZM114.41 40.5V48H113.546V40.5H114.41ZM117.091 42.7168L115.211 45.1826L114.049 46.5205L113.99 45.5586L114.791 44.4551L116.051 42.7168H117.091ZM116.3 48L114.815 45.4805L115.26 44.6748L117.306 48H116.3ZM119.981 42.7168V43.4102H117.516V42.7168H119.981ZM118.321 41.4326H119.186V46.6914C119.186 46.8704 119.207 47.0055 119.249 47.0967C119.295 47.1878 119.352 47.248 119.42 47.2773C119.488 47.3066 119.562 47.3213 119.64 47.3213C119.698 47.3213 119.763 47.3148 119.835 47.3018C119.907 47.2855 119.955 47.2725 119.981 47.2627L119.977 48C119.918 48.0228 119.84 48.0439 119.742 48.0635C119.645 48.0863 119.521 48.0977 119.371 48.0977C119.186 48.0977 119.013 48.0537 118.854 47.9658C118.694 47.8779 118.565 47.7314 118.468 47.5264C118.37 47.318 118.321 47.0381 118.321 46.6865V41.4326ZM123.683 46.7793V42.7168H124.547V48H123.727L123.683 46.7793ZM123.844 45.666L124.186 45.6562C124.186 46.0078 124.155 46.3333 124.093 46.6328C124.034 46.929 123.937 47.1862 123.8 47.4043C123.666 47.6224 123.489 47.7933 123.268 47.917C123.046 48.0374 122.774 48.0977 122.452 48.0977C122.234 48.0977 122.035 48.0602 121.856 47.9854C121.681 47.9105 121.528 47.7949 121.397 47.6387C121.271 47.4824 121.171 47.279 121.1 47.0283C121.031 46.7777 120.997 46.4766 120.997 46.125V42.7168H121.856V46.1348C121.856 46.3724 121.878 46.5693 121.92 46.7256C121.962 46.8786 122.019 47.0007 122.091 47.0918C122.162 47.1797 122.242 47.2415 122.33 47.2773C122.418 47.3132 122.507 47.3311 122.599 47.3311C122.905 47.3311 123.149 47.2578 123.331 47.1113C123.513 46.9616 123.644 46.7614 123.722 46.5107C123.803 46.2568 123.844 45.9753 123.844 45.666ZM126.71 43.5469V48H125.846V42.7168H126.681L126.71 43.5469ZM128.023 42.6875L128.028 43.5273C127.957 43.5111 127.892 43.5013 127.833 43.498C127.778 43.4915 127.713 43.4883 127.638 43.4883C127.475 43.4883 127.332 43.5208 127.208 43.5859C127.088 43.651 126.983 43.7422 126.896 43.8594C126.808 43.9766 126.738 44.1165 126.686 44.2793C126.633 44.4388 126.598 44.6146 126.578 44.8066L126.354 44.9531C126.354 44.6341 126.378 44.3346 126.427 44.0547C126.479 43.7747 126.559 43.5273 126.666 43.3125C126.773 43.0944 126.91 42.9251 127.076 42.8047C127.245 42.681 127.447 42.6191 127.682 42.6191C127.734 42.6191 127.797 42.6273 127.872 42.6436C127.95 42.6566 128.001 42.6712 128.023 42.6875ZM131.285 47.0967V44.2305C131.285 44.0221 131.253 43.8545 131.188 43.7275C131.126 43.6006 131.031 43.5078 130.904 43.4492C130.781 43.3906 130.624 43.3613 130.436 43.3613C130.253 43.3613 130.095 43.3988 129.962 43.4736C129.832 43.5485 129.731 43.6478 129.659 43.7715C129.591 43.8952 129.557 44.0319 129.557 44.1816H128.692C128.692 43.9928 128.733 43.8057 128.814 43.6201C128.899 43.4346 129.02 43.2669 129.176 43.1172C129.332 42.9642 129.519 42.8437 129.737 42.7559C129.959 42.6647 130.206 42.6191 130.479 42.6191C130.805 42.6191 131.093 42.6729 131.344 42.7803C131.594 42.8844 131.791 43.0553 131.935 43.293C132.078 43.5306 132.149 43.8464 132.149 44.2402V46.8477C132.149 47.0234 132.162 47.2106 132.188 47.4092C132.218 47.6077 132.258 47.7786 132.311 47.9219V48H131.417C131.375 47.8958 131.342 47.7575 131.319 47.585C131.297 47.4092 131.285 47.2464 131.285 47.0967ZM131.422 44.7969L131.432 45.4316H130.831C130.626 45.4316 130.439 45.4544 130.27 45.5C130.104 45.5456 129.96 45.6123 129.84 45.7002C129.719 45.7848 129.627 45.8906 129.562 46.0176C129.5 46.1445 129.469 46.2894 129.469 46.4521C129.469 46.6637 129.498 46.833 129.557 46.96C129.615 47.0837 129.703 47.1732 129.82 47.2285C129.938 47.2839 130.086 47.3115 130.265 47.3115C130.483 47.3115 130.675 47.2611 130.841 47.1602C131.007 47.0592 131.135 46.9372 131.227 46.7939C131.321 46.6507 131.365 46.5173 131.358 46.3936L131.549 46.7988C131.536 46.9258 131.493 47.0641 131.422 47.2139C131.354 47.3604 131.257 47.502 131.134 47.6387C131.01 47.7721 130.864 47.8828 130.694 47.9707C130.528 48.0553 130.341 48.0977 130.133 48.0977C129.827 48.0977 129.558 48.0391 129.327 47.9219C129.099 47.8047 128.922 47.6322 128.795 47.4043C128.668 47.1764 128.604 46.8949 128.604 46.5596C128.604 46.3057 128.648 46.0713 128.736 45.8564C128.824 45.6416 128.954 45.4561 129.127 45.2998C129.299 45.1403 129.516 45.0166 129.776 44.9287C130.04 44.8408 130.344 44.7969 130.689 44.7969H131.422ZM130.035 41.9355L130.982 40.5H132.071L130.763 41.9355H130.035ZM135.323 47.3604C135.496 47.3604 135.652 47.3262 135.792 47.2578C135.935 47.1862 136.052 47.0755 136.144 46.9258C136.235 46.7728 136.287 46.5742 136.3 46.3301H137.11C137.097 46.6816 137.008 46.9909 136.842 47.2578C136.679 47.5215 136.464 47.7282 136.197 47.8779C135.934 48.0244 135.642 48.0977 135.323 48.0977C134.981 48.0977 134.684 48.0423 134.43 47.9316C134.179 47.821 133.971 47.6615 133.805 47.4531C133.642 47.2415 133.52 46.986 133.438 46.6865C133.357 46.3838 133.316 46.0404 133.316 45.6562V45.0605C133.316 44.6764 133.357 44.3346 133.438 44.0352C133.52 43.7324 133.642 43.4769 133.805 43.2686C133.971 43.057 134.179 42.8958 134.43 42.7852C134.684 42.6745 134.981 42.6191 135.323 42.6191C135.681 42.6191 135.991 42.6956 136.251 42.8486C136.515 42.9984 136.72 43.2165 136.866 43.5029C137.016 43.7861 137.097 44.1296 137.11 44.5332H136.3C136.287 44.2728 136.24 44.0563 136.158 43.8838C136.077 43.708 135.966 43.5778 135.826 43.4932C135.686 43.4053 135.519 43.3613 135.323 43.3613C135.095 43.3613 134.907 43.402 134.757 43.4834C134.61 43.5615 134.495 43.6755 134.41 43.8252C134.326 43.9749 134.265 44.154 134.229 44.3623C134.197 44.5706 134.181 44.8034 134.181 45.0605V45.6562C134.181 45.9134 134.197 46.1478 134.229 46.3594C134.265 46.5677 134.324 46.7467 134.405 46.8965C134.49 47.0462 134.607 47.1618 134.757 47.2432C134.907 47.3213 135.095 47.3604 135.323 47.3604ZM139.039 42.7168V48H138.18V42.7168H139.039ZM138.131 41.3154C138.131 41.1689 138.172 41.0452 138.253 40.9443C138.334 40.8434 138.456 40.793 138.619 40.793C138.782 40.793 138.904 40.8434 138.985 40.9443C139.07 41.0452 139.112 41.1689 139.112 41.3154C139.112 41.4554 139.07 41.5758 138.985 41.6768C138.904 41.7744 138.782 41.8232 138.619 41.8232C138.456 41.8232 138.334 41.7744 138.253 41.6768C138.172 41.5758 138.131 41.4554 138.131 41.3154ZM142.994 47.0967V44.2305C142.994 44.0221 142.962 43.8545 142.896 43.7275C142.835 43.6006 142.74 43.5078 142.613 43.4492C142.49 43.3906 142.333 43.3613 142.145 43.3613C141.962 43.3613 141.804 43.3988 141.671 43.4736C141.541 43.5485 141.44 43.6478 141.368 43.7715C141.3 43.8952 141.266 44.0319 141.266 44.1816H140.401C140.401 43.9928 140.442 43.8057 140.523 43.6201C140.608 43.4346 140.729 43.2669 140.885 43.1172C141.041 42.9642 141.228 42.8437 141.446 42.7559C141.668 42.6647 141.915 42.6191 142.188 42.6191C142.514 42.6191 142.802 42.6729 143.053 42.7803C143.303 42.8844 143.5 43.0553 143.644 43.293C143.787 43.5306 143.858 43.8464 143.858 44.2402V46.8477C143.858 47.0234 143.871 47.2106 143.897 47.4092C143.927 47.6077 143.967 47.7786 144.02 47.9219V48H143.126C143.084 47.8958 143.051 47.7575 143.028 47.585C143.006 47.4092 142.994 47.2464 142.994 47.0967ZM143.131 44.7969L143.141 45.4316H142.54C142.335 45.4316 142.148 45.4544 141.979 45.5C141.812 45.5456 141.669 45.6123 141.549 45.7002C141.428 45.7848 141.336 45.8906 141.271 46.0176C141.209 46.1445 141.178 46.2894 141.178 46.4521C141.178 46.6637 141.207 46.833 141.266 46.96C141.324 47.0837 141.412 47.1732 141.529 47.2285C141.646 47.2839 141.795 47.3115 141.974 47.3115C142.192 47.3115 142.384 47.2611 142.55 47.1602C142.716 47.0592 142.844 46.9372 142.936 46.7939C143.03 46.6507 143.074 46.5173 143.067 46.3936L143.258 46.7988C143.245 46.9258 143.202 47.0641 143.131 47.2139C143.062 47.3604 142.966 47.502 142.843 47.6387C142.719 47.7721 142.573 47.8828 142.403 47.9707C142.237 48.0553 142.05 48.0977 141.842 48.0977C141.536 48.0977 141.267 48.0391 141.036 47.9219C140.808 47.8047 140.631 47.6322 140.504 47.4043C140.377 47.1764 140.313 46.8949 140.313 46.5596C140.313 46.3057 140.357 46.0713 140.445 45.8564C140.533 45.6416 140.663 45.4561 140.836 45.2998C141.008 45.1403 141.225 45.0166 141.485 44.9287C141.749 44.8408 142.053 44.7969 142.398 44.7969H143.131Z" fill="url(#paint1_linear_363_2980)"/>
<path d="M199.158 39.8301V41.0654C199.158 41.5667 199.103 42.0078 198.992 42.3887C198.885 42.7663 198.727 43.082 198.519 43.3359C198.31 43.5898 198.06 43.7803 197.767 43.9072C197.474 44.0342 197.143 44.0977 196.775 44.0977C196.421 44.0977 196.097 44.0342 195.804 43.9072C195.511 43.7803 195.258 43.5898 195.047 43.3359C194.835 43.082 194.671 42.7663 194.554 42.3887C194.44 42.0078 194.383 41.5667 194.383 41.0654V39.8301C194.383 39.3288 194.44 38.8893 194.554 38.5117C194.668 38.1309 194.83 37.8135 195.042 37.5596C195.254 37.3057 195.506 37.1152 195.799 36.9883C196.092 36.8581 196.416 36.793 196.771 36.793C197.138 36.793 197.469 36.8581 197.762 36.9883C198.058 37.1152 198.309 37.3057 198.514 37.5596C198.722 37.8135 198.882 38.1309 198.992 38.5117C199.103 38.8893 199.158 39.3288 199.158 39.8301ZM198.27 41.0654V39.8203C198.27 39.4297 198.237 39.0944 198.172 38.8145C198.107 38.5312 198.011 38.3001 197.884 38.1211C197.757 37.9421 197.601 37.8102 197.415 37.7256C197.229 37.6377 197.015 37.5938 196.771 37.5938C196.539 37.5938 196.331 37.6377 196.146 37.7256C195.963 37.8102 195.807 37.9421 195.677 38.1211C195.547 38.3001 195.446 38.5312 195.374 38.8145C195.306 39.0944 195.271 39.4297 195.271 39.8203V41.0654C195.271 41.4593 195.306 41.7979 195.374 42.0811C195.446 42.361 195.547 42.5921 195.677 42.7744C195.81 42.9535 195.97 43.0869 196.155 43.1748C196.341 43.2594 196.548 43.3018 196.775 43.3018C197.02 43.3018 197.234 43.2594 197.42 43.1748C197.609 43.0869 197.765 42.9535 197.889 42.7744C198.016 42.5921 198.11 42.361 198.172 42.0811C198.237 41.7979 198.27 41.4593 198.27 41.0654ZM201.8 43.1846L202.933 38.7168H203.812L202.244 44H201.673L201.8 43.1846ZM200.887 38.7168L202.068 43.209L202.161 44H201.595L200.008 38.7168H200.887ZM206.531 44.0977C206.215 44.0977 205.931 44.0505 205.677 43.9561C205.423 43.8617 205.206 43.7184 205.027 43.5264C204.848 43.3311 204.712 43.0853 204.617 42.7891C204.523 42.4928 204.476 42.1429 204.476 41.7393V41.1436C204.476 40.6781 204.529 40.2842 204.637 39.9619C204.747 39.6396 204.896 39.3809 205.081 39.1855C205.267 38.987 205.477 38.8438 205.711 38.7559C205.945 38.6647 206.186 38.6191 206.434 38.6191C206.766 38.6191 207.049 38.6729 207.283 38.7803C207.518 38.8877 207.708 39.0472 207.854 39.2588C208.001 39.4704 208.108 39.7308 208.177 40.04C208.248 40.3493 208.284 40.7057 208.284 41.1094V41.6123H204.983V40.875H207.42V40.7529C207.407 40.4795 207.369 40.2386 207.308 40.0303C207.249 39.8219 207.151 39.6592 207.015 39.542C206.878 39.4215 206.684 39.3613 206.434 39.3613C206.274 39.3613 206.126 39.389 205.989 39.4443C205.856 39.4964 205.74 39.5892 205.643 39.7227C205.548 39.8529 205.473 40.0335 205.418 40.2646C205.366 40.4958 205.34 40.7887 205.34 41.1436V41.7393C205.34 42.0225 205.366 42.2666 205.418 42.4717C205.473 42.6735 205.553 42.8411 205.657 42.9746C205.765 43.1048 205.895 43.2025 206.048 43.2676C206.204 43.3294 206.382 43.3604 206.58 43.3604C206.87 43.3604 207.109 43.305 207.298 43.1943C207.487 43.0804 207.651 42.9355 207.791 42.7598L208.245 43.3018C208.151 43.4352 208.027 43.5638 207.874 43.6875C207.724 43.8079 207.539 43.9072 207.317 43.9854C207.099 44.0602 206.837 44.0977 206.531 44.0977ZM210.193 39.5469V44H209.329V38.7168H210.164L210.193 39.5469ZM211.507 38.6875L211.512 39.5273C211.44 39.5111 211.375 39.5013 211.316 39.498C211.261 39.4915 211.196 39.4883 211.121 39.4883C210.958 39.4883 210.815 39.5208 210.691 39.5859C210.571 39.651 210.467 39.7422 210.379 39.8594C210.291 39.9766 210.221 40.1165 210.169 40.2793C210.117 40.4388 210.081 40.6146 210.062 40.8066L209.837 40.9531C209.837 40.6341 209.861 40.3346 209.91 40.0547C209.962 39.7747 210.042 39.5273 210.149 39.3125C210.257 39.0944 210.394 38.9251 210.56 38.8047C210.729 38.681 210.931 38.6191 211.165 38.6191C211.217 38.6191 211.281 38.6273 211.355 38.6436C211.434 38.6566 211.484 38.6712 211.507 38.6875ZM214.168 44.0977C213.852 44.0977 213.567 44.0505 213.313 43.9561C213.06 43.8617 212.843 43.7184 212.664 43.5264C212.485 43.3311 212.348 43.0853 212.254 42.7891C212.16 42.4928 212.112 42.1429 212.112 41.7393V41.1436C212.112 40.6781 212.166 40.2842 212.273 39.9619C212.384 39.6396 212.532 39.3809 212.718 39.1855C212.903 38.987 213.113 38.8437 213.348 38.7559C213.582 38.6647 213.823 38.6191 214.07 38.6191C214.402 38.6191 214.686 38.6729 214.92 38.7803C215.154 38.8877 215.345 39.0472 215.491 39.2588C215.638 39.4704 215.745 39.7308 215.813 40.04C215.885 40.3493 215.921 40.7057 215.921 41.1094V41.6123L212.62 41.6123V40.875L215.057 40.875V40.7529C215.044 40.4795 215.006 40.2386 214.944 40.0303C214.886 39.8219 214.788 39.6592 214.651 39.542C214.515 39.4215 214.321 39.3613 214.07 39.3613C213.911 39.3613 213.763 39.389 213.626 39.4443C213.493 39.4964 213.377 39.5892 213.279 39.7227C213.185 39.8529 213.11 40.0335 213.055 40.2646C213.003 40.4958 212.977 40.7887 212.977 41.1436V41.7393C212.977 42.0225 213.003 42.2666 213.055 42.4717C213.11 42.6735 213.19 42.8411 213.294 42.9746C213.401 43.1048 213.532 43.2025 213.685 43.2676C213.841 43.3294 214.018 43.3604 214.217 43.3604C214.507 43.3604 214.746 43.305 214.935 43.1943C215.123 43.0804 215.288 42.9355 215.428 42.7598L215.882 43.3018C215.787 43.4352 215.664 43.5638 215.511 43.6875C215.361 43.8079 215.175 43.9072 214.954 43.9854C214.736 44.0602 214.474 44.0977 214.168 44.0977ZM217.83 39.8447V44L216.966 44V38.7168H217.781L217.83 39.8447ZM217.62 41.1582L217.269 41.1436C217.265 40.7822 217.306 40.4486 217.391 40.1426C217.479 39.8333 217.602 39.5648 217.762 39.3369C217.924 39.109 218.118 38.9333 218.343 38.8096C218.567 38.6826 218.816 38.6191 219.09 38.6191C219.305 38.6191 219.5 38.6549 219.676 38.7266C219.852 38.7949 220.001 38.9056 220.125 39.0586C220.249 39.2116 220.343 39.4102 220.408 39.6543C220.477 39.8952 220.511 40.1898 220.511 40.5381V44H219.646V40.5283C219.646 40.2516 219.616 40.0303 219.554 39.8643C219.495 39.695 219.404 39.5729 219.28 39.498C219.16 39.4199 219.007 39.3809 218.821 39.3809C218.652 39.3809 218.494 39.4281 218.348 39.5225C218.201 39.6169 218.073 39.7471 217.962 39.9131C217.854 40.0791 217.77 40.2695 217.708 40.4844C217.649 40.696 217.62 40.9206 217.62 41.1582ZM222.737 38.7168V44H221.878V38.7168H222.737ZM221.829 37.3154C221.829 37.1689 221.87 37.0452 221.951 36.9443C222.033 36.8434 222.155 36.793 222.317 36.793C222.48 36.793 222.602 36.8434 222.684 36.9443C222.768 37.0452 222.811 37.1689 222.811 37.3154C222.811 37.4554 222.768 37.5758 222.684 37.6768C222.602 37.7744 222.48 37.8232 222.317 37.8232C222.155 37.8232 222.033 37.7744 221.951 37.6768C221.87 37.5758 221.829 37.4554 221.829 37.3154ZM225.994 44.0977C225.678 44.0977 225.394 44.0505 225.14 43.9561C224.886 43.8617 224.669 43.7184 224.49 43.5264C224.311 43.3311 224.174 43.0853 224.08 42.7891C223.986 42.4928 223.938 42.1429 223.938 41.7393V41.1436C223.938 40.6781 223.992 40.2842 224.1 39.9619C224.21 39.6396 224.358 39.3809 224.544 39.1855C224.729 38.987 224.939 38.8437 225.174 38.7559C225.408 38.6647 225.649 38.6191 225.896 38.6191C226.229 38.6191 226.512 38.6729 226.746 38.7803C226.98 38.8877 227.171 39.0472 227.317 39.2588C227.464 39.4704 227.571 39.7308 227.64 40.04C227.711 40.3493 227.747 40.7057 227.747 41.1094V41.6123H224.446V40.875H226.883V40.7529C226.87 40.4795 226.832 40.2386 226.771 40.0303C226.712 39.8219 226.614 39.6592 226.478 39.542C226.341 39.4215 226.147 39.3613 225.896 39.3613C225.737 39.3613 225.589 39.389 225.452 39.4443C225.319 39.4964 225.203 39.5892 225.105 39.7227C225.011 39.8529 224.936 40.0335 224.881 40.2646C224.829 40.4958 224.803 40.7887 224.803 41.1436V41.7393C224.803 42.0225 224.829 42.2666 224.881 42.4717C224.936 42.6735 225.016 42.8411 225.12 42.9746C225.228 43.1048 225.358 43.2025 225.511 43.2676C225.667 43.3294 225.844 43.3604 226.043 43.3604C226.333 43.3604 226.572 43.305 226.761 43.1943C226.95 43.0804 227.114 42.9355 227.254 42.7598L227.708 43.3018C227.614 43.4352 227.49 43.5638 227.337 43.6875C227.187 43.8079 227.002 43.9072 226.78 43.9854C226.562 44.0602 226.3 44.0977 225.994 44.0977ZM233.675 43.0967V40.2305C233.675 40.0221 233.642 39.8545 233.577 39.7275C233.515 39.6006 233.421 39.5078 233.294 39.4492C233.17 39.3906 233.014 39.3613 232.825 39.3613C232.643 39.3613 232.485 39.3988 232.352 39.4736C232.221 39.5485 232.12 39.6478 232.049 39.7715C231.98 39.8952 231.946 40.0319 231.946 40.1816H231.082C231.082 39.9928 231.123 39.8057 231.204 39.6201C231.289 39.4346 231.409 39.2669 231.565 39.1172C231.722 38.9642 231.909 38.8437 232.127 38.7559C232.348 38.6647 232.596 38.6191 232.869 38.6191C233.195 38.6191 233.483 38.6729 233.733 38.7803C233.984 38.8844 234.181 39.0553 234.324 39.293C234.467 39.5306 234.539 39.8464 234.539 40.2402V42.8477C234.539 43.0234 234.552 43.2106 234.578 43.4092C234.607 43.6077 234.648 43.7786 234.7 43.9219V44H233.807C233.764 43.8958 233.732 43.7575 233.709 43.585C233.686 43.4092 233.675 43.2464 233.675 43.0967ZM233.812 40.7969L233.821 41.4316H233.221C233.016 41.4316 232.828 41.4544 232.659 41.5C232.493 41.5456 232.35 41.6123 232.229 41.7002C232.109 41.7848 232.016 41.8906 231.951 42.0176C231.889 42.1445 231.858 42.2894 231.858 42.4521C231.858 42.6637 231.888 42.833 231.946 42.96C232.005 43.0837 232.093 43.1732 232.21 43.2285C232.327 43.2839 232.475 43.3115 232.654 43.3115C232.872 43.3115 233.064 43.2611 233.23 43.1602C233.396 43.0592 233.525 42.9372 233.616 42.7939C233.711 42.6507 233.755 42.5173 233.748 42.3936L233.938 42.7988C233.925 42.9258 233.883 43.0641 233.812 43.2139C233.743 43.3604 233.647 43.502 233.523 43.6387C233.4 43.7721 233.253 43.8828 233.084 43.9707C232.918 44.0553 232.731 44.0977 232.522 44.0977C232.216 44.0977 231.948 44.0391 231.717 43.9219C231.489 43.8047 231.312 43.6322 231.185 43.4043C231.058 43.1764 230.994 42.8949 230.994 42.5596C230.994 42.3057 231.038 42.0713 231.126 41.8564C231.214 41.6416 231.344 41.4561 231.517 41.2998C231.689 41.1403 231.906 41.0166 232.166 40.9287C232.43 40.8408 232.734 40.7969 233.079 40.7969H233.812ZM203.66 50.7324V57.0312H202.796V49.7168H203.582L203.66 50.7324ZM206.614 52.1191V52.6123C206.614 53.029 206.575 53.3936 206.497 53.7061C206.422 54.0153 206.31 54.2741 206.16 54.4824C206.014 54.6875 205.833 54.8421 205.618 54.9463C205.403 55.0472 205.158 55.0977 204.881 55.0977C204.604 55.0977 204.363 55.0456 204.158 54.9414C203.956 54.834 203.785 54.6794 203.646 54.4775C203.509 54.2757 203.4 54.0332 203.318 53.75C203.24 53.4635 203.187 53.1429 203.157 52.7881V52.0361C203.187 51.6618 203.24 51.3265 203.318 51.0303C203.396 50.7308 203.504 50.4769 203.641 50.2686C203.781 50.057 203.951 49.8958 204.153 49.7852C204.358 49.6745 204.598 49.6191 204.871 49.6191C205.154 49.6191 205.403 49.668 205.618 49.7656C205.836 49.8633 206.019 50.0146 206.165 50.2197C206.315 50.4215 206.427 50.6803 206.502 50.9961C206.577 51.3086 206.614 51.6829 206.614 52.1191ZM205.75 52.6123V52.1191C205.75 51.8262 205.727 51.5706 205.682 51.3525C205.639 51.1344 205.571 50.9538 205.477 50.8105C205.382 50.6673 205.263 50.5599 205.12 50.4883C204.977 50.4167 204.804 50.3809 204.603 50.3809C204.43 50.3809 204.277 50.4167 204.144 50.4883C204.013 50.5599 203.901 50.6576 203.807 50.7812C203.712 50.9017 203.634 51.04 203.572 51.1963C203.51 51.3493 203.465 51.5088 203.436 51.6748V53.1543C203.491 53.3626 203.564 53.5596 203.655 53.7451C203.746 53.9274 203.868 54.0755 204.021 54.1895C204.178 54.3034 204.375 54.3604 204.612 54.3604C204.811 54.3604 204.982 54.3245 205.125 54.2529C205.268 54.1813 205.385 54.0739 205.477 53.9307C205.571 53.7842 205.639 53.6019 205.682 53.3838C205.727 53.1624 205.75 52.9053 205.75 52.6123ZM208.655 47.5V55H207.796V47.5H208.655ZM212.61 54.0967V51.2305C212.61 51.0221 212.578 50.8545 212.513 50.7275C212.451 50.6006 212.356 50.5078 212.229 50.4492C212.106 50.3906 211.95 50.3613 211.761 50.3613C211.578 50.3613 211.421 50.3988 211.287 50.4736C211.157 50.5485 211.056 50.6478 210.984 50.7715C210.916 50.8952 210.882 51.0319 210.882 51.1816H210.018C210.018 50.9928 210.058 50.8057 210.14 50.6201C210.224 50.4346 210.345 50.2669 210.501 50.1172C210.657 49.9642 210.844 49.8438 211.062 49.7559C211.284 49.6647 211.531 49.6191 211.805 49.6191C212.13 49.6191 212.418 49.6729 212.669 49.7803C212.92 49.8844 213.117 50.0553 213.26 50.293C213.403 50.5306 213.475 50.8464 213.475 51.2402V53.8477C213.475 54.0234 213.488 54.2106 213.514 54.4092C213.543 54.6077 213.584 54.7786 213.636 54.9219V55H212.742C212.7 54.8958 212.667 54.7575 212.645 54.585C212.622 54.4092 212.61 54.2464 212.61 54.0967ZM212.747 51.7969L212.757 52.4316H212.156C211.951 52.4316 211.764 52.4544 211.595 52.5C211.429 52.5456 211.285 52.6123 211.165 52.7002C211.045 52.7848 210.952 52.8906 210.887 53.0176C210.825 53.1445 210.794 53.2894 210.794 53.4521C210.794 53.6637 210.823 53.833 210.882 53.96C210.94 54.0837 211.028 54.1732 211.146 54.2285C211.263 54.2839 211.411 54.3115 211.59 54.3115C211.808 54.3115 212 54.2611 212.166 54.1602C212.332 54.0592 212.461 53.9372 212.552 53.7939C212.646 53.6507 212.69 53.5173 212.684 53.3936L212.874 53.7988C212.861 53.9258 212.819 54.0641 212.747 54.2139C212.679 54.3604 212.583 54.502 212.459 54.6387C212.335 54.7721 212.189 54.8828 212.02 54.9707C211.854 55.0553 211.666 55.0977 211.458 55.0977C211.152 55.0977 210.883 55.0391 210.652 54.9219C210.424 54.8047 210.247 54.6322 210.12 54.4043C209.993 54.1764 209.93 53.8949 209.93 53.5596C209.93 53.3057 209.974 53.0713 210.062 52.8564C210.149 52.6416 210.28 52.4561 210.452 52.2998C210.625 52.1403 210.841 52.0166 211.102 51.9287C211.365 51.8408 211.67 51.7969 212.015 51.7969H212.747ZM216.746 49.7168V50.4102H214.28V49.7168H216.746ZM215.086 48.4326H215.95V53.6914C215.95 53.8704 215.971 54.0055 216.014 54.0967C216.059 54.1878 216.116 54.248 216.185 54.2773C216.253 54.3066 216.326 54.3213 216.404 54.3213C216.463 54.3213 216.528 54.3148 216.6 54.3018C216.671 54.2855 216.72 54.2725 216.746 54.2627L216.741 55C216.683 55.0228 216.604 55.0439 216.507 55.0635C216.409 55.0863 216.285 55.0977 216.136 55.0977C215.95 55.0977 215.778 55.0537 215.618 54.9658C215.459 54.8779 215.33 54.7314 215.232 54.5264C215.135 54.318 215.086 54.0381 215.086 53.6865V48.4326ZM217.776 47.5H218.641V53.9746L218.567 55H217.776V47.5ZM221.604 52.1191V52.6123C221.604 53.029 221.565 53.3936 221.487 53.7061C221.412 54.0153 221.3 54.2741 221.15 54.4824C221.001 54.6875 220.818 54.8421 220.604 54.9463C220.389 55.0472 220.143 55.0977 219.866 55.0977C219.593 55.0977 219.357 55.0423 219.158 54.9316C218.96 54.821 218.794 54.6615 218.66 54.4531C218.527 54.2448 218.421 53.9925 218.343 53.6963C218.268 53.4001 218.216 53.0664 218.187 52.6953V52.0361C218.216 51.6618 218.268 51.3265 218.343 51.0303C218.418 50.7308 218.522 50.4769 218.655 50.2686C218.789 50.057 218.955 49.8958 219.153 49.7852C219.352 49.6745 219.588 49.6191 219.861 49.6191C220.141 49.6191 220.389 49.668 220.604 49.7656C220.822 49.8633 221.004 50.0146 221.15 50.2197C221.3 50.4215 221.412 50.6803 221.487 50.9961C221.565 51.3086 221.604 51.6829 221.604 52.1191ZM220.74 52.6123V52.1191C220.74 51.8262 220.721 51.5706 220.682 51.3525C220.646 51.1344 220.586 50.9538 220.501 50.8105C220.416 50.6673 220.302 50.5599 220.159 50.4883C220.019 50.4167 219.845 50.3809 219.637 50.3809C219.461 50.3809 219.306 50.4167 219.173 50.4883C219.043 50.5599 218.93 50.6576 218.836 50.7812C218.742 50.9017 218.663 51.04 218.602 51.1963C218.54 51.3493 218.494 51.5088 218.465 51.6748V53.0615C218.507 53.2731 218.574 53.4766 218.665 53.6719C218.759 53.8639 218.886 54.0218 219.046 54.1455C219.205 54.2692 219.404 54.3311 219.642 54.3311C219.84 54.3311 220.008 54.2969 220.145 54.2285C220.285 54.1602 220.398 54.056 220.486 53.916C220.574 53.7728 220.638 53.5938 220.677 53.3789C220.719 53.1608 220.74 52.9053 220.74 52.6123ZM225.296 54.0967V51.2305C225.296 51.0221 225.263 50.8545 225.198 50.7275C225.136 50.6006 225.042 50.5078 224.915 50.4492C224.791 50.3906 224.635 50.3613 224.446 50.3613C224.264 50.3613 224.106 50.3988 223.973 50.4736C223.842 50.5485 223.742 50.6478 223.67 50.7715C223.602 50.8952 223.567 51.0319 223.567 51.1816L222.703 51.1816C222.703 50.9928 222.744 50.8057 222.825 50.6201C222.91 50.4346 223.03 50.2669 223.187 50.1172C223.343 49.9642 223.53 49.8437 223.748 49.7559C223.969 49.6647 224.217 49.6191 224.49 49.6191C224.816 49.6191 225.104 49.6729 225.354 49.7803C225.605 49.8844 225.802 50.0553 225.945 50.293C226.089 50.5306 226.16 50.8464 226.16 51.2402V53.8477C226.16 54.0234 226.173 54.2106 226.199 54.4092C226.229 54.6077 226.269 54.7786 226.321 54.9219V55H225.428C225.385 54.8958 225.353 54.7575 225.33 54.585C225.307 54.4092 225.296 54.2464 225.296 54.0967ZM225.433 51.7969L225.442 52.4316H224.842C224.637 52.4316 224.45 52.4544 224.28 52.5C224.114 52.5456 223.971 52.6123 223.851 52.7002C223.73 52.7848 223.637 52.8906 223.572 53.0176C223.51 53.1445 223.479 53.2894 223.479 53.4521C223.479 53.6637 223.509 53.833 223.567 53.96C223.626 54.0837 223.714 54.1732 223.831 54.2285C223.948 54.2839 224.096 54.3115 224.275 54.3115C224.493 54.3115 224.686 54.2611 224.852 54.1602C225.018 54.0592 225.146 53.9372 225.237 53.7939C225.332 53.6507 225.376 53.5173 225.369 53.3936L225.56 53.7988C225.547 53.9258 225.504 54.0641 225.433 54.2139C225.364 54.3604 225.268 54.502 225.145 54.6387C225.021 54.7721 224.874 54.8828 224.705 54.9707C224.539 55.0553 224.352 55.0977 224.144 55.0977C223.838 55.0977 223.569 55.0391 223.338 54.9219C223.11 54.8047 222.933 54.6322 222.806 54.4043C222.679 54.1764 222.615 53.8949 222.615 53.5596C222.615 53.3057 222.659 53.0713 222.747 52.8564C222.835 52.6416 222.965 52.4561 223.138 52.2998C223.31 52.1403 223.527 52.0166 223.787 51.9287C224.051 51.8408 224.355 51.7969 224.7 51.7969H225.433Z" fill="url(#paint2_linear_363_2980)"/>
<path fill-rule="evenodd" clip-rule="evenodd" d="M204 16L137 16V14L204 14V16Z" fill="url(#paint3_linear_363_2980)"/>
<path fill-rule="evenodd" clip-rule="evenodd" d="M111 16L44 16V14L111 14V16Z" fill="url(#paint4_linear_363_2980)"/>
<path fill-rule="evenodd" clip-rule="evenodd" d="M18.7612 6.17317C18 8.01088 18 10.3406 18 15C18 19.6594 18 21.9891 18.7612 23.8268C19.7761 26.2771 21.7229 28.2239 24.1732 29.2388C26.0109 30 28.3406 30 33 30C37.6594 30 39.9891 30 41.8268 29.2388C44.2771 28.2239 46.2239 26.2771 47.2388 23.8268C48 21.9891 48 19.6594 48 15C48 10.3406 48 8.01088 47.2388 6.17317C46.2239 3.72288 44.2771 1.77614 41.8268 0.761205C39.9891 0 37.6594 0 33 0C28.3406 0 26.0109 0 24.1732 0.761205C21.7229 1.77614 19.7761 3.72288 18.7612 6.17317ZM39.7071 11.7071C40.0976 11.3166 40.0976 10.6834 39.7071 10.2929C39.3166 9.90237 38.6834 9.90237 38.2929 10.2929L31 17.5858L27.7071 14.2929C27.3166 13.9024 26.6834 13.9024 26.2929 14.2929C25.9024 14.6834 25.9024 15.3166 26.2929 15.7071L30.2929 19.7071C30.4804 19.8946 30.7348 20 31 20C31.2652 20 31.5196 19.8946 31.7071 19.7071L39.7071 11.7071Z" fill="url(#paint5_linear_363_2980)"/>
<path fill-rule="evenodd" clip-rule="evenodd" d="M109.761 6.17317C109 8.01088 109 10.3406 109 15C109 19.6594 109 21.9891 109.761 23.8268C110.776 26.2771 112.723 28.2239 115.173 29.2388C117.011 30 119.341 30 124 30C128.659 30 130.989 30 132.827 29.2388C135.277 28.2239 137.224 26.2771 138.239 23.8268C139 21.9891 139 19.6594 139 15C139 10.3406 139 8.01088 138.239 6.17317C137.224 3.72288 135.277 1.77614 132.827 0.761205C130.989 0 128.659 0 124 0C119.341 0 117.011 0 115.173 0.761205C112.723 1.77614 110.776 3.72288 109.761 6.17317ZM130.707 11.7071C131.098 11.3166 131.098 10.6834 130.707 10.2929C130.317 9.90237 129.683 9.90237 129.293 10.2929L122 17.5858L118.707 14.2929C118.317 13.9024 117.683 13.9024 117.293 14.2929C116.902 14.6834 116.902 15.3166 117.293 15.7071L121.293 19.7071C121.48 19.8946 121.735 20 122 20C122.265 20 122.52 19.8946 122.707 19.7071L130.707 11.7071Z" fill="url(#paint6_linear_363_2980)"/>
<path fill-rule="evenodd" clip-rule="evenodd" d="M200.761 6.17317C200 8.01088 200 10.3406 200 15C200 19.6594 200 21.9891 200.761 23.8268C201.776 26.2771 203.723 28.2239 206.173 29.2388C208.011 30 210.341 30 215 30C219.659 30 221.989 30 223.827 29.2388C226.277 28.2239 228.224 26.2771 229.239 23.8268C230 21.9891 230 19.6594 230 15C230 10.3406 230 8.01088 229.239 6.17317C228.224 3.72288 226.277 1.77614 223.827 0.761205C221.989 0 219.659 0 215 0C210.341 0 208.011 0 206.173 0.761205C203.723 1.77614 201.776 3.72288 200.761 6.17317ZM221.707 11.7071C222.098 11.3166 222.098 10.6834 221.707 10.2929C221.317 9.90237 220.683 9.90237 220.293 10.2929L213 17.5858L209.707 14.2929C209.317 13.9024 208.683 13.9024 208.293 14.2929C207.902 14.6834 207.902 15.3166 208.293 15.7071L212.293 19.7071C212.48 19.8946 212.735 20 213 20C213.265 20 213.52 19.8946 213.707 19.7071L221.707 11.7071Z" fill="url(#paint7_linear_363_2980)"/>
<defs>
<linearGradient id="paint0_linear_363_2980" x1="33" y1="68" x2="33" y2="35" gradientUnits="userSpaceOnUse">
<stop stop-color="#5CCC94"/>
<stop offset="1" stop-color="#8CCAAE"/>
</linearGradient>
<linearGradient id="paint1_linear_363_2980" x1="124" y1="55" x2="124" y2="35" gradientUnits="userSpaceOnUse">
<stop stop-color="#5CCC94"/>
<stop offset="1" stop-color="#8CCAAE"/>
</linearGradient>
<linearGradient id="paint2_linear_363_2980" x1="214.5" y1="68" x2="214.5" y2="35" gradientUnits="userSpaceOnUse">
<stop stop-color="#5CCC94"/>
<stop offset="1" stop-color="#8CCAAE"/>
</linearGradient>
<linearGradient id="paint3_linear_363_2980" x1="170.5" y1="16" x2="170.5" y2="14" gradientUnits="userSpaceOnUse">
<stop stop-color="#5CCC94"/>
<stop offset="1" stop-color="#8CCAAE"/>
</linearGradient>
<linearGradient id="paint4_linear_363_2980" x1="77.5" y1="16" x2="77.5" y2="14" gradientUnits="userSpaceOnUse">
<stop stop-color="#5CCC94"/>
<stop offset="1" stop-color="#8CCAAE"/>
</linearGradient>
<linearGradient id="paint5_linear_363_2980" x1="33" y1="30" x2="33" y2="1.58545e-07" gradientUnits="userSpaceOnUse">
<stop stop-color="#5CCC94"/>
<stop offset="1" stop-color="#8CCAAE"/>
</linearGradient>
<linearGradient id="paint6_linear_363_2980" x1="124" y1="30" x2="124" y2="1.58545e-07" gradientUnits="userSpaceOnUse">
<stop stop-color="#5CCC94"/>
<stop offset="1" stop-color="#8CCAAE"/>
</linearGradient>
<linearGradient id="paint7_linear_363_2980" x1="215" y1="30" x2="215" y2="1.58545e-07" gradientUnits="userSpaceOnUse">
<stop stop-color="#5CCC94"/>
<stop offset="1" stop-color="#8CCAAE"/>
</linearGradient>
</defs>
</svg>
