<svg width="239" height="58" viewBox="0 0 239 58" fill="none" xmlns="http://www.w3.org/2000/svg">
<path d="M3.99219 40.6748H2.54688L2.53711 39.918H3.87988C4.08171 39.918 4.26074 39.8724 4.41699 39.7812C4.57324 39.6901 4.69531 39.5599 4.7832 39.3906C4.87435 39.2181 4.91992 39.013 4.91992 38.7754C4.91992 38.515 4.88086 38.3034 4.80273 38.1406C4.72786 37.9746 4.6123 37.8542 4.45605 37.7793C4.30306 37.7012 4.10775 37.6621 3.87012 37.6621H2.7373L2.7373 44H1.83887L1.83887 36.8906H3.87012C4.17611 36.8906 4.44954 36.9281 4.69043 37.0029C4.93132 37.0745 5.13477 37.1885 5.30078 37.3447C5.47005 37.4977 5.59863 37.693 5.68652 37.9307C5.77441 38.1683 5.81836 38.4531 5.81836 38.7852C5.81836 39.0781 5.75163 39.3434 5.61816 39.5811C5.48796 39.8154 5.30566 40.0075 5.07129 40.1572C4.83691 40.307 4.56673 40.403 4.26074 40.4453L3.99219 40.6748ZM3.95801 44H2.17578L2.69824 43.2334H3.95801C4.19238 43.2334 4.39095 43.1813 4.55371 43.0771C4.71647 42.973 4.84017 42.8265 4.9248 42.6377C5.0127 42.4456 5.05664 42.2194 5.05664 41.959C5.05664 41.6953 5.02083 41.4674 4.94922 41.2754C4.8776 41.0833 4.76367 40.9352 4.60742 40.8311C4.45117 40.7269 4.24609 40.6748 3.99219 40.6748H2.83496L2.84473 39.918H4.40723L4.60742 40.1914C4.90039 40.2207 5.14616 40.3184 5.34473 40.4844C5.54655 40.6471 5.69792 40.8555 5.79883 41.1094C5.90299 41.3633 5.95508 41.6432 5.95508 41.9492C5.95508 42.3919 5.87207 42.7663 5.70605 43.0723C5.54329 43.375 5.31217 43.6061 5.0127 43.7656C4.71322 43.9219 4.36165 44 3.95801 44ZM8.04492 39.5469L8.04492 44H7.18066L7.18066 38.7168H8.01562L8.04492 39.5469ZM9.3584 38.6875L9.36328 39.5273C9.29167 39.5111 9.22656 39.5013 9.16797 39.498C9.11263 39.4915 9.04753 39.4883 8.97266 39.4883C8.8099 39.4883 8.66667 39.5208 8.54297 39.5859C8.42253 39.651 8.31836 39.7422 8.23047 39.8594C8.14258 39.9766 8.07259 40.1165 8.02051 40.2793C7.96842 40.4388 7.93262 40.6146 7.91309 40.8066L7.68848 40.9531C7.68848 40.6341 7.71289 40.3346 7.76172 40.0547C7.8138 39.7747 7.89355 39.5273 8.00098 39.3125C8.1084 39.0944 8.24512 38.9251 8.41113 38.8047C8.5804 38.681 8.78223 38.6191 9.0166 38.6191C9.06868 38.6191 9.13216 38.6273 9.20703 38.6436C9.28516 38.6566 9.33561 38.6712 9.3584 38.6875ZM9.94922 41.6123V41.1094C9.94922 40.6992 10.0013 40.3395 10.1055 40.0303C10.2096 39.7178 10.3545 39.4574 10.54 39.249C10.7256 39.0407 10.9421 38.8844 11.1895 38.7803C11.4368 38.6729 11.7021 38.6191 11.9854 38.6191C12.2751 38.6191 12.5436 38.6729 12.791 38.7803C13.0384 38.8844 13.2549 39.0407 13.4404 39.249C13.6292 39.4574 13.7757 39.7178 13.8799 40.0303C13.984 40.3395 14.0361 40.6992 14.0361 41.1094V41.6123C14.0361 42.0225 13.984 42.3838 13.8799 42.6963C13.7757 43.0055 13.6309 43.2643 13.4453 43.4727C13.2598 43.681 13.0433 43.8372 12.7959 43.9414C12.5485 44.0456 12.2816 44.0977 11.9951 44.0977C11.7087 44.0977 11.4417 44.0456 11.1943 43.9414C10.9469 43.8372 10.7288 43.681 10.54 43.4727C10.3545 43.2643 10.2096 43.0055 10.1055 42.6963C10.0013 42.3838 9.94922 42.0225 9.94922 41.6123ZM10.8135 41.1094V41.6123C10.8135 41.902 10.8428 42.1559 10.9014 42.374C10.96 42.5921 11.043 42.7744 11.1504 42.9209C11.2578 43.0674 11.3831 43.1781 11.5264 43.2529C11.6696 43.3245 11.8258 43.3604 11.9951 43.3604C12.1904 43.3604 12.3613 43.3245 12.5078 43.2529C12.6576 43.1781 12.7813 43.0674 12.8789 42.9209C12.9766 42.7744 13.0498 42.5921 13.0986 42.374C13.1475 42.1559 13.1719 41.902 13.1719 41.6123V41.1094C13.1719 40.8197 13.1426 40.5674 13.084 40.3525C13.0254 40.1344 12.9424 39.9521 12.835 39.8057C12.7275 39.6559 12.6006 39.5452 12.4541 39.4736C12.3109 39.3988 12.1546 39.3613 11.9854 39.3613C11.8193 39.3613 11.6647 39.3988 11.5215 39.4736C11.3783 39.5452 11.2529 39.6559 11.1455 39.8057C11.0413 39.9521 10.96 40.1344 10.9014 40.3525C10.8428 40.5674 10.8135 40.8197 10.8135 41.1094ZM15.1689 38.7168H16.0283V44.6299C16.0283 44.9521 15.986 45.2256 15.9014 45.4502C15.82 45.6748 15.693 45.8441 15.5205 45.958C15.3512 46.0752 15.1348 46.1338 14.8711 46.1338C14.7995 46.1338 14.7165 46.1257 14.6221 46.1094C14.5309 46.0931 14.4528 46.0736 14.3877 46.0508V45.3232C14.443 45.3363 14.5033 45.346 14.5684 45.3525C14.6335 45.3623 14.6872 45.3672 14.7295 45.3672C14.8239 45.3672 14.9036 45.3428 14.9688 45.2939C15.0339 45.2451 15.0827 45.167 15.1152 45.0596C15.151 44.9521 15.1689 44.8089 15.1689 44.6299L15.1689 38.7168ZM15.0908 37.3154C15.0908 37.1689 15.1315 37.0452 15.2129 36.9443C15.2975 36.8434 15.4196 36.793 15.5791 36.793C15.7419 36.793 15.8639 36.8434 15.9453 36.9443C16.0299 37.0452 16.0723 37.1689 16.0723 37.3154C16.0723 37.4554 16.0299 37.5758 15.9453 37.6768C15.8639 37.7744 15.7419 37.8232 15.5791 37.8232C15.4196 37.8232 15.2975 37.7744 15.2129 37.6768C15.1315 37.5758 15.0908 37.4554 15.0908 37.3154ZM20.5547 39.5469V44H19.6904V38.7168H20.5254L20.5547 39.5469ZM21.8682 38.6875L21.873 39.5273C21.8014 39.5111 21.7363 39.5013 21.6777 39.498C21.6224 39.4915 21.5573 39.4883 21.4824 39.4883C21.3197 39.4883 21.1764 39.5208 21.0527 39.5859C20.9323 39.651 20.8281 39.7422 20.7402 39.8594C20.6523 39.9766 20.5824 40.1165 20.5303 40.2793C20.4782 40.4388 20.4424 40.6146 20.4229 40.8066L20.1982 40.9531C20.1982 40.6341 20.2227 40.3346 20.2715 40.0547C20.3236 39.7747 20.4033 39.5273 20.5107 39.3125C20.6182 39.0944 20.7549 38.9251 20.9209 38.8047C21.0902 38.681 21.292 38.6191 21.5264 38.6191C21.5785 38.6191 21.6419 38.6273 21.7168 38.6436C21.7949 38.6566 21.8454 38.6712 21.8682 38.6875ZM24.5293 44.0977C24.2135 44.0977 23.9287 44.0505 23.6748 43.9561C23.4209 43.8617 23.2044 43.7184 23.0254 43.5264C22.8464 43.3311 22.7096 43.0853 22.6152 42.7891C22.5208 42.4928 22.4736 42.1429 22.4736 41.7393V41.1436C22.4736 40.6781 22.5273 40.2842 22.6348 39.9619C22.7454 39.6396 22.8936 39.3809 23.0791 39.1855C23.2646 38.987 23.4746 38.8437 23.709 38.7559C23.9434 38.6647 24.1842 38.6191 24.4316 38.6191C24.7637 38.6191 25.0469 38.6729 25.2812 38.7803C25.5156 38.8877 25.7061 39.0472 25.8525 39.2588C25.999 39.4704 26.1064 39.7308 26.1748 40.04C26.2464 40.3493 26.2822 40.7057 26.2822 41.1094V41.6123L22.9814 41.6123V40.875L25.418 40.875V40.7529C25.4049 40.4795 25.3675 40.2386 25.3057 40.0303C25.2471 39.8219 25.1494 39.6592 25.0127 39.542C24.876 39.4215 24.6823 39.3613 24.4316 39.3613C24.2721 39.3613 24.124 39.389 23.9873 39.4443C23.8538 39.4964 23.7383 39.5892 23.6406 39.7227C23.5462 39.8529 23.4714 40.0335 23.416 40.2646C23.3639 40.4958 23.3379 40.7887 23.3379 41.1436V41.7393C23.3379 42.0225 23.3639 42.2666 23.416 42.4717C23.4714 42.6735 23.5511 42.8411 23.6553 42.9746C23.7627 43.1048 23.8929 43.2025 24.0459 43.2676C24.2021 43.3294 24.3796 43.3604 24.5781 43.3604C24.8678 43.3604 25.1071 43.305 25.2959 43.1943C25.4847 43.0804 25.6491 42.9355 25.7891 42.7598L26.2432 43.3018C26.1488 43.4352 26.0251 43.5638 25.8721 43.6875C25.7223 43.8079 25.5368 43.9072 25.3154 43.9854C25.0973 44.0602 24.8353 44.0977 24.5293 44.0977ZM30.1885 38.7168H30.9648V44.0439C30.9648 44.5094 30.8835 44.8936 30.7207 45.1963C30.5612 45.499 30.3382 45.722 30.0518 45.8652C29.7653 46.0117 29.4349 46.085 29.0605 46.085C28.9271 46.085 28.7594 46.0605 28.5576 46.0117C28.3558 45.9629 28.154 45.888 27.9521 45.7871C27.7503 45.6895 27.5843 45.5658 27.4541 45.416L27.8105 44.8154C27.9961 45.0042 28.193 45.1393 28.4014 45.2207C28.6097 45.3021 28.8083 45.3428 28.9971 45.3428C29.2217 45.3428 29.417 45.3021 29.583 45.2207C29.749 45.1393 29.8776 45.0059 29.9688 44.8203C30.0599 44.638 30.1055 44.3939 30.1055 44.0879V39.8789L30.1885 38.7168ZM27.1514 41.6123V41.1191C27.1514 40.6829 27.1921 40.3086 27.2734 39.9961C27.3548 39.6803 27.472 39.4215 27.625 39.2197C27.7812 39.0146 27.9684 38.8633 28.1865 38.7656C28.4046 38.668 28.6488 38.6191 28.9189 38.6191C29.1924 38.6191 29.4284 38.6745 29.627 38.7852C29.8255 38.8958 29.9899 39.057 30.1201 39.2686C30.2536 39.4769 30.3577 39.7308 30.4326 40.0303C30.5107 40.3265 30.5645 40.6618 30.5938 41.0361V41.6953C30.5645 42.0664 30.5107 42.4001 30.4326 42.6963C30.3577 42.9925 30.252 43.2448 30.1152 43.4531C29.9818 43.6615 29.8158 43.821 29.6172 43.9316C29.4186 44.0423 29.1826 44.0977 28.9092 44.0977C28.6423 44.0977 28.4014 44.0472 28.1865 43.9463C27.9717 43.8421 27.7861 43.6875 27.6299 43.4824C27.4769 43.2741 27.3581 43.0153 27.2734 42.7061C27.1921 42.3936 27.1514 42.029 27.1514 41.6123ZM28.0156 41.1191V41.6123C28.0156 41.9053 28.0368 42.1608 28.0791 42.3789C28.1214 42.5937 28.1865 42.7728 28.2744 42.916C28.3656 43.056 28.4811 43.1602 28.6211 43.2285C28.7643 43.2969 28.9352 43.3311 29.1338 43.3311C29.3747 43.3311 29.5716 43.2725 29.7246 43.1553C29.8776 43.0381 29.9997 42.8835 30.0908 42.6914C30.1852 42.4961 30.2601 42.2861 30.3154 42.0615V40.6748C30.2829 40.5088 30.2357 40.3493 30.1738 40.1963C30.1152 40.04 30.0387 39.9017 29.9443 39.7812C29.8499 39.6576 29.736 39.5599 29.6025 39.4883C29.4723 39.4167 29.3193 39.3809 29.1436 39.3809C28.945 39.3809 28.7741 39.4167 28.6309 39.4883C28.4876 39.5599 28.3704 39.6673 28.2793 39.8105C28.1882 39.9538 28.1214 40.1344 28.0791 40.3525C28.0368 40.5706 28.0156 40.8262 28.0156 41.1191ZM33.1865 38.7168V44H32.3271V38.7168H33.1865ZM32.2783 37.3154C32.2783 37.1689 32.319 37.0452 32.4004 36.9443C32.4818 36.8434 32.6038 36.793 32.7666 36.793C32.9294 36.793 33.0514 36.8434 33.1328 36.9443C33.2174 37.0452 33.2598 37.1689 33.2598 37.3154C33.2598 37.4554 33.2174 37.5758 33.1328 37.6768C33.0514 37.7744 32.9294 37.8232 32.7666 37.8232C32.6038 37.8232 32.4818 37.7744 32.4004 37.6768C32.319 37.5758 32.2783 37.4554 32.2783 37.3154ZM37.1172 42.6475C37.1172 42.514 37.0846 42.3968 37.0195 42.2959C36.9544 42.195 36.847 42.0973 36.6973 42.0029C36.5508 41.9085 36.3522 41.8076 36.1016 41.7002C35.8574 41.5993 35.6377 41.5 35.4424 41.4023C35.2503 41.3014 35.0876 41.1924 34.9541 41.0752C34.8206 40.958 34.7181 40.8229 34.6465 40.6699C34.5781 40.5137 34.5439 40.3298 34.5439 40.1182C34.5439 39.9066 34.583 39.7113 34.6611 39.5322C34.7425 39.3499 34.8564 39.1904 35.0029 39.0537C35.1494 38.917 35.3252 38.8112 35.5303 38.7363C35.7354 38.6582 35.9648 38.6191 36.2188 38.6191C36.5801 38.6191 36.8877 38.6891 37.1416 38.8291C37.3955 38.9691 37.5892 39.1611 37.7227 39.4053C37.8594 39.6462 37.9277 39.918 37.9277 40.2207H37.0684C37.0684 40.0742 37.0358 39.9359 36.9707 39.8057C36.9056 39.6755 36.8096 39.5697 36.6826 39.4883C36.5557 39.4036 36.401 39.3613 36.2188 39.3613C36.0267 39.3613 35.8704 39.3955 35.75 39.4639C35.6296 39.5322 35.5417 39.6217 35.4863 39.7324C35.4342 39.8398 35.4082 39.9587 35.4082 40.0889C35.4082 40.1865 35.4212 40.2712 35.4473 40.3428C35.4766 40.4111 35.5254 40.4762 35.5938 40.5381C35.6621 40.5967 35.7549 40.6585 35.8721 40.7236C35.9925 40.7855 36.1455 40.8571 36.3311 40.9385C36.6891 41.0785 36.9902 41.2201 37.2344 41.3633C37.4785 41.5065 37.6641 41.6742 37.791 41.8662C37.918 42.0583 37.9814 42.2959 37.9814 42.5791C37.9814 42.8102 37.9391 43.0202 37.8545 43.209C37.7731 43.3945 37.6559 43.554 37.5029 43.6875C37.3499 43.821 37.166 43.9235 36.9512 43.9951C36.7396 44.0635 36.502 44.0977 36.2383 44.0977C35.8411 44.0977 35.5042 44.0195 35.2275 43.8633C34.9541 43.7038 34.7458 43.4971 34.6025 43.2432C34.4626 42.986 34.3926 42.7109 34.3926 42.418H35.2568C35.2666 42.6654 35.3219 42.8574 35.4229 42.9941C35.527 43.1309 35.6523 43.2253 35.7988 43.2773C35.9453 43.3294 36.0918 43.3555 36.2383 43.3555C36.4303 43.3555 36.5915 43.3278 36.7217 43.2725C36.8519 43.2139 36.9495 43.1309 37.0146 43.0234C37.083 42.916 37.1172 42.7907 37.1172 42.6475ZM41.043 38.7168V39.4102H38.5771V38.7168H41.043ZM39.3828 37.4326H40.2471V42.6914C40.2471 42.8704 40.2682 43.0055 40.3105 43.0967C40.3561 43.1878 40.4131 43.248 40.4814 43.2773C40.5498 43.3066 40.623 43.3213 40.7012 43.3213C40.7598 43.3213 40.8249 43.3148 40.8965 43.3018C40.9681 43.2855 41.0169 43.2725 41.043 43.2627L41.0381 44C40.9795 44.0228 40.9014 44.0439 40.8037 44.0635C40.7061 44.0863 40.5824 44.0977 40.4326 44.0977C40.2471 44.0977 40.0745 44.0537 39.915 43.9658C39.7555 43.8779 39.627 43.7314 39.5293 43.5264C39.4316 43.318 39.3828 43.0381 39.3828 42.6865V37.4326ZM44.6611 43.0967V40.2305C44.6611 40.0221 44.6286 39.8545 44.5635 39.7275C44.5016 39.6006 44.4072 39.5078 44.2803 39.4492C44.1566 39.3906 44.0003 39.3613 43.8115 39.3613C43.6292 39.3613 43.4714 39.3988 43.3379 39.4736C43.2077 39.5485 43.1068 39.6478 43.0352 39.7715C42.9668 39.8952 42.9326 40.0319 42.9326 40.1816H42.0684C42.0684 39.9928 42.109 39.8057 42.1904 39.6201C42.2751 39.4346 42.3955 39.2669 42.5518 39.1172C42.708 38.9642 42.8952 38.8437 43.1133 38.7559C43.3346 38.6647 43.582 38.6191 43.8555 38.6191C44.181 38.6191 44.4691 38.6729 44.7197 38.7803C44.9704 38.8844 45.1673 39.0553 45.3105 39.293C45.4538 39.5306 45.5254 39.8464 45.5254 40.2402V42.8477C45.5254 43.0234 45.5384 43.2106 45.5645 43.4092C45.5938 43.6077 45.6344 43.7786 45.6865 43.9219V44H44.793C44.7507 43.8958 44.7181 43.7575 44.6953 43.585C44.6725 43.4092 44.6611 43.2464 44.6611 43.0967ZM44.7979 40.7969L44.8076 41.4316H44.207C44.002 41.4316 43.8148 41.4544 43.6455 41.5C43.4795 41.5456 43.3363 41.6123 43.2158 41.7002C43.0954 41.7848 43.0026 41.8906 42.9375 42.0176C42.8757 42.1445 42.8447 42.2894 42.8447 42.4521C42.8447 42.6637 42.874 42.833 42.9326 42.96C42.9912 43.0837 43.0791 43.1732 43.1963 43.2285C43.3135 43.2839 43.4616 43.3115 43.6406 43.3115C43.8587 43.3115 44.0508 43.2611 44.2168 43.1602C44.3828 43.0592 44.5114 42.9372 44.6025 42.7939C44.6969 42.6507 44.7409 42.5173 44.7344 42.3936L44.9248 42.7988C44.9118 42.9258 44.8695 43.0641 44.7979 43.2139C44.7295 43.3604 44.6335 43.502 44.5098 43.6387C44.3861 43.7721 44.2396 43.8828 44.0703 43.9707C43.9043 44.0553 43.7171 44.0977 43.5088 44.0977C43.2028 44.0977 42.9342 44.0391 42.7031 43.9219C42.4753 43.8047 42.2979 43.6322 42.1709 43.4043C42.0439 43.1764 41.9805 42.8949 41.9805 42.5596C41.9805 42.3057 42.0244 42.0713 42.1123 41.8564C42.2002 41.6416 42.3304 41.4561 42.5029 41.2998C42.6755 41.1403 42.8919 41.0166 43.1523 40.9287C43.416 40.8408 43.7204 40.7969 44.0654 40.7969H44.7979ZM47.7324 39.5469V44H46.8682V38.7168H47.7031L47.7324 39.5469ZM49.0459 38.6875L49.0508 39.5273C48.9792 39.5111 48.9141 39.5013 48.8555 39.498C48.8001 39.4915 48.735 39.4883 48.6602 39.4883C48.4974 39.4883 48.3542 39.5208 48.2305 39.5859C48.11 39.651 48.0059 39.7422 47.918 39.8594C47.8301 39.9766 47.7601 40.1165 47.708 40.2793C47.6559 40.4388 47.6201 40.6146 47.6006 40.8066L47.376 40.9531C47.376 40.6341 47.4004 40.3346 47.4492 40.0547C47.5013 39.7747 47.5811 39.5273 47.6885 39.3125C47.7959 39.0944 47.9326 38.9251 48.0986 38.8047C48.2679 38.681 48.4697 38.6191 48.7041 38.6191C48.7562 38.6191 48.8197 38.6273 48.8945 38.6436C48.9727 38.6566 49.0231 38.6712 49.0459 38.6875ZM52.4785 42.6475C52.4785 42.514 52.446 42.3968 52.3809 42.2959C52.3158 42.195 52.2083 42.0973 52.0586 42.0029C51.9121 41.9085 51.7135 41.8076 51.4629 41.7002C51.2188 41.5993 50.999 41.5 50.8037 41.4023C50.6117 41.3014 50.4489 41.1924 50.3154 41.0752C50.182 40.958 50.0794 40.8229 50.0078 40.6699C49.9395 40.5137 49.9053 40.3298 49.9053 40.1182C49.9053 39.9066 49.9443 39.7113 50.0225 39.5322C50.1038 39.3499 50.2178 39.1904 50.3643 39.0537C50.5107 38.917 50.6865 38.8112 50.8916 38.7363C51.0967 38.6582 51.3262 38.6191 51.5801 38.6191C51.9414 38.6191 52.249 38.6891 52.5029 38.8291C52.7568 38.9691 52.9505 39.1611 53.084 39.4053C53.2207 39.6462 53.2891 39.918 53.2891 40.2207H52.4297C52.4297 40.0742 52.3971 39.9359 52.332 39.8057C52.2669 39.6755 52.1709 39.5697 52.0439 39.4883C51.917 39.4036 51.7624 39.3613 51.5801 39.3613C51.388 39.3613 51.2318 39.3955 51.1113 39.4639C50.9909 39.5322 50.903 39.6217 50.8477 39.7324C50.7956 39.8398 50.7695 39.9587 50.7695 40.0889C50.7695 40.1865 50.7826 40.2712 50.8086 40.3428C50.8379 40.4111 50.8867 40.4762 50.9551 40.5381C51.0234 40.5967 51.1162 40.6585 51.2334 40.7236C51.3538 40.7855 51.5068 40.8571 51.6924 40.9385C52.0505 41.0785 52.3516 41.2201 52.5957 41.3633C52.8398 41.5065 53.0254 41.6742 53.1523 41.8662C53.2793 42.0583 53.3428 42.2959 53.3428 42.5791C53.3428 42.8102 53.3005 43.0202 53.2158 43.209C53.1344 43.3945 53.0173 43.554 52.8643 43.6875C52.7113 43.821 52.5273 43.9235 52.3125 43.9951C52.1009 44.0635 51.8633 44.0977 51.5996 44.0977C51.2025 44.0977 50.8656 44.0195 50.5889 43.8633C50.3154 43.7038 50.1071 43.4971 49.9639 43.2432C49.8239 42.986 49.7539 42.7109 49.7539 42.418H50.6182C50.6279 42.6654 50.6833 42.8574 50.7842 42.9941C50.8883 43.1309 51.0137 43.2253 51.1602 43.2773C51.3066 43.3294 51.4531 43.3555 51.5996 43.3555C51.7917 43.3555 51.9528 43.3278 52.083 43.2725C52.2132 43.2139 52.3109 43.1309 52.376 43.0234C52.4443 42.916 52.4785 42.7907 52.4785 42.6475ZM55.3447 36.5V44H54.4805V36.5H55.3447ZM58.0254 38.7168L56.1455 41.1826L54.9834 42.5205L54.9248 41.5586L55.7256 40.4551L56.9854 38.7168H58.0254ZM57.2344 44L55.75 41.4805L56.1943 40.6748L58.2402 44H57.2344ZM60.7793 44.0977C60.4635 44.0977 60.1787 44.0505 59.9248 43.9561C59.6709 43.8617 59.4544 43.7184 59.2754 43.5264C59.0964 43.3311 58.9596 43.0853 58.8652 42.7891C58.7708 42.4928 58.7236 42.1429 58.7236 41.7393V41.1436C58.7236 40.6781 58.7773 40.2842 58.8848 39.9619C58.9954 39.6396 59.1436 39.3809 59.3291 39.1855C59.5146 38.987 59.7246 38.8437 59.959 38.7559C60.1934 38.6647 60.4342 38.6191 60.6816 38.6191C61.0137 38.6191 61.2969 38.6729 61.5312 38.7803C61.7656 38.8877 61.9561 39.0472 62.1025 39.2588C62.249 39.4704 62.3564 39.7308 62.4248 40.04C62.4964 40.3493 62.5322 40.7057 62.5322 41.1094V41.6123H59.2314V40.875H61.668V40.7529C61.6549 40.4795 61.6175 40.2386 61.5557 40.0303C61.4971 39.8219 61.3994 39.6592 61.2627 39.542C61.126 39.4215 60.9323 39.3613 60.6816 39.3613C60.5221 39.3613 60.374 39.389 60.2373 39.4443C60.1038 39.4964 59.9883 39.5892 59.8906 39.7227C59.7962 39.8529 59.7214 40.0335 59.666 40.2646C59.6139 40.4958 59.5879 40.7887 59.5879 41.1436V41.7393C59.5879 42.0225 59.6139 42.2666 59.666 42.4717C59.7214 42.6735 59.8011 42.8411 59.9053 42.9746C60.0127 43.1048 60.1429 43.2025 60.2959 43.2676C60.4521 43.3294 60.6296 43.3604 60.8281 43.3604C61.1178 43.3604 61.3571 43.305 61.5459 43.1943C61.7347 43.0804 61.8991 42.9355 62.0391 42.7598L62.4932 43.3018C62.3988 43.4352 62.2751 43.5638 62.1221 43.6875C61.9723 43.8079 61.7868 43.9072 61.5654 43.9854C61.3473 44.0602 61.0853 44.0977 60.7793 44.0977ZM19.2803 50.7324V57.0312H18.416V49.7168H19.2021L19.2803 50.7324ZM22.2344 52.1191V52.6123C22.2344 53.029 22.1953 53.3936 22.1172 53.7061C22.0423 54.0153 21.93 54.2741 21.7803 54.4824C21.6338 54.6875 21.4531 54.8421 21.2383 54.9463C21.0234 55.0472 20.7777 55.0977 20.501 55.0977C20.2243 55.0977 19.9834 55.0456 19.7783 54.9414C19.5765 54.834 19.4056 54.6794 19.2656 54.4775C19.1289 54.2757 19.0199 54.0332 18.9385 53.75C18.8604 53.4635 18.8066 53.1429 18.7773 52.7881V52.0361C18.8066 51.6618 18.8604 51.3265 18.9385 51.0303C19.0166 50.7308 19.124 50.4769 19.2607 50.2686C19.4007 50.057 19.5716 49.8958 19.7734 49.7852C19.9785 49.6745 20.2178 49.6191 20.4912 49.6191C20.7744 49.6191 21.0234 49.668 21.2383 49.7656C21.4564 49.8633 21.6387 50.0146 21.7852 50.2197C21.9349 50.4215 22.0472 50.6803 22.1221 50.9961C22.1969 51.3086 22.2344 51.6829 22.2344 52.1191ZM21.3701 52.6123V52.1191C21.3701 51.8262 21.3473 51.5706 21.3018 51.3525C21.2594 51.1344 21.1911 50.9538 21.0967 50.8105C21.0023 50.6673 20.8835 50.5599 20.7402 50.4883C20.597 50.4167 20.4245 50.3809 20.2227 50.3809C20.0501 50.3809 19.8971 50.4167 19.7637 50.4883C19.6335 50.5599 19.5212 50.6576 19.4268 50.7812C19.3324 50.9017 19.2542 51.04 19.1924 51.1963C19.1305 51.3493 19.085 51.5088 19.0557 51.6748V53.1543C19.111 53.3626 19.1842 53.5596 19.2754 53.7451C19.3665 53.9274 19.4886 54.0755 19.6416 54.1895C19.7979 54.3034 19.9948 54.3604 20.2324 54.3604C20.431 54.3604 20.6019 54.3245 20.7451 54.2529C20.8883 54.1813 21.0055 54.0739 21.0967 53.9307C21.1911 53.7842 21.2594 53.6019 21.3018 53.3838C21.3473 53.1624 21.3701 52.9053 21.3701 52.6123ZM24.2754 47.5V55H23.416V47.5H24.2754ZM25.4619 52.6123V52.1094C25.4619 51.6992 25.514 51.3395 25.6182 51.0303C25.7223 50.7178 25.8672 50.4574 26.0527 50.249C26.2383 50.0407 26.4548 49.8844 26.7021 49.7803C26.9495 49.6729 27.2148 49.6191 27.498 49.6191C27.7878 49.6191 28.0563 49.6729 28.3037 49.7803C28.5511 49.8844 28.7676 50.0407 28.9531 50.249C29.1419 50.4574 29.2884 50.7178 29.3926 51.0303C29.4967 51.3395 29.5488 51.6992 29.5488 52.1094V52.6123C29.5488 53.0225 29.4967 53.3838 29.3926 53.6963C29.2884 54.0055 29.1436 54.2643 28.958 54.4727C28.7725 54.681 28.556 54.8372 28.3086 54.9414C28.0612 55.0456 27.7943 55.0977 27.5078 55.0977C27.2214 55.0977 26.9544 55.0456 26.707 54.9414C26.4596 54.8372 26.2415 54.681 26.0527 54.4727C25.8672 54.2643 25.7223 54.0055 25.6182 53.6963C25.514 53.3838 25.4619 53.0225 25.4619 52.6123ZM26.3262 52.1094V52.6123C26.3262 52.902 26.3555 53.1559 26.4141 53.374C26.4727 53.5921 26.5557 53.7744 26.6631 53.9209C26.7705 54.0674 26.8958 54.1781 27.0391 54.2529C27.1823 54.3245 27.3385 54.3604 27.5078 54.3604C27.7031 54.3604 27.874 54.3245 28.0205 54.2529C28.1702 54.1781 28.2939 54.0674 28.3916 53.9209C28.4893 53.7744 28.5625 53.5921 28.6113 53.374C28.6602 53.1559 28.6846 52.902 28.6846 52.6123V52.1094C28.6846 51.8197 28.6553 51.5674 28.5967 51.3525C28.5381 51.1344 28.4551 50.9521 28.3477 50.8057C28.2402 50.6559 28.1133 50.5452 27.9668 50.4736C27.8236 50.3988 27.6673 50.3613 27.498 50.3613C27.332 50.3613 27.1774 50.3988 27.0342 50.4736C26.891 50.5452 26.7656 50.6559 26.6582 50.8057C26.554 50.9521 26.4727 51.1344 26.4141 51.3525C26.3555 51.5674 26.3262 51.8197 26.3262 52.1094ZM32.4932 54.3604C32.6657 54.3604 32.8219 54.3262 32.9619 54.2578C33.1051 54.1862 33.2223 54.0755 33.3135 53.9258C33.4046 53.7728 33.4567 53.5742 33.4697 53.3301H34.2803C34.2673 53.6816 34.1777 53.9909 34.0117 54.2578C33.849 54.5215 33.6341 54.7282 33.3672 54.8779C33.1035 55.0244 32.8122 55.0977 32.4932 55.0977C32.1514 55.0977 31.8535 55.0423 31.5996 54.9316C31.349 54.821 31.1406 54.6615 30.9746 54.4531C30.8118 54.2415 30.6898 53.986 30.6084 53.6865C30.527 53.3838 30.4863 53.0404 30.4863 52.6562V52.0605C30.4863 51.6764 30.527 51.3346 30.6084 51.0352C30.6898 50.7324 30.8118 50.4769 30.9746 50.2686C31.1406 50.057 31.349 49.8958 31.5996 49.7852C31.8535 49.6745 32.1514 49.6191 32.4932 49.6191C32.8512 49.6191 33.1605 49.6956 33.4209 49.8486C33.6846 49.9984 33.8896 50.2165 34.0361 50.5029C34.1859 50.7861 34.2673 51.1296 34.2803 51.5332H33.4697C33.4567 51.2728 33.4095 51.0563 33.3281 50.8838C33.2467 50.708 33.1361 50.5778 32.9961 50.4932C32.8561 50.4053 32.6885 50.3613 32.4932 50.3613C32.2653 50.3613 32.0765 50.402 31.9268 50.4834C31.7803 50.5615 31.6647 50.6755 31.5801 50.8252C31.4954 50.9749 31.4352 51.154 31.3994 51.3623C31.3669 51.5706 31.3506 51.8034 31.3506 52.0605V52.6562C31.3506 52.9134 31.3669 53.1478 31.3994 53.3594C31.4352 53.5677 31.4938 53.7467 31.5752 53.8965C31.6598 54.0462 31.777 54.1618 31.9268 54.2432C32.0765 54.3213 32.2653 54.3604 32.4932 54.3604ZM31.6924 47.5049L32.2783 48.335L32.8594 47.5049H33.6016V47.5537L32.5322 48.8916H32.0244L30.9697 47.5537V47.5049H31.6924ZM36.209 49.7168V55H35.3496V49.7168H36.209ZM35.3008 48.3154C35.3008 48.1689 35.3415 48.0452 35.4229 47.9443C35.5042 47.8434 35.6263 47.793 35.7891 47.793C35.9518 47.793 36.0739 47.8434 36.1553 47.9443C36.2399 48.0452 36.2822 48.1689 36.2822 48.3154C36.2822 48.4554 36.2399 48.5758 36.1553 48.6768C36.0739 48.7744 35.9518 48.8232 35.7891 48.8232C35.6263 48.8232 35.5042 48.7744 35.4229 48.6768C35.3415 48.5758 35.3008 48.4554 35.3008 48.3154ZM39.4072 54.3604C39.5798 54.3604 39.736 54.3262 39.876 54.2578C40.0192 54.1862 40.1364 54.0755 40.2275 53.9258C40.3187 53.7728 40.3708 53.5742 40.3838 53.3301H41.1943C41.1813 53.6816 41.0918 53.9909 40.9258 54.2578C40.763 54.5215 40.5482 54.7282 40.2812 54.8779C40.0176 55.0244 39.7262 55.0977 39.4072 55.0977C39.0654 55.0977 38.7676 55.0423 38.5137 54.9316C38.263 54.821 38.0547 54.6615 37.8887 54.4531C37.7259 54.2415 37.6038 53.986 37.5225 53.6865C37.4411 53.3838 37.4004 53.0404 37.4004 52.6562V52.0605C37.4004 51.6764 37.4411 51.3346 37.5225 51.0352C37.6038 50.7324 37.7259 50.4769 37.8887 50.2686C38.0547 50.057 38.263 49.8958 38.5137 49.7852C38.7676 49.6745 39.0654 49.6191 39.4072 49.6191C39.7653 49.6191 40.0745 49.6956 40.335 49.8486C40.5986 49.9984 40.8037 50.2165 40.9502 50.5029C41.0999 50.7861 41.1813 51.1296 41.1943 51.5332H40.3838C40.3708 51.2728 40.3236 51.0563 40.2422 50.8838C40.1608 50.708 40.0501 50.5778 39.9102 50.4932C39.7702 50.4053 39.6025 50.3613 39.4072 50.3613C39.1794 50.3613 38.9906 50.402 38.8408 50.4834C38.6943 50.5615 38.5788 50.6755 38.4941 50.8252C38.4095 50.9749 38.3493 51.154 38.3135 51.3623C38.2809 51.5706 38.2646 51.8034 38.2646 52.0605V52.6562C38.2646 52.9134 38.2809 53.1478 38.3135 53.3594C38.3493 53.5677 38.4079 53.7467 38.4893 53.8965C38.5739 54.0462 38.6911 54.1618 38.8408 54.2432C38.9906 54.3213 39.1794 54.3604 39.4072 54.3604ZM44.085 55.0977C43.7692 55.0977 43.4844 55.0505 43.2305 54.9561C42.9766 54.8617 42.7601 54.7184 42.5811 54.5264C42.402 54.3311 42.2653 54.0853 42.1709 53.7891C42.0765 53.4928 42.0293 53.1429 42.0293 52.7393V52.1436C42.0293 51.6781 42.083 51.2842 42.1904 50.9619C42.3011 50.6396 42.4492 50.3809 42.6348 50.1855C42.8203 49.987 43.0303 49.8437 43.2646 49.7559C43.499 49.6647 43.7399 49.6191 43.9873 49.6191C44.3193 49.6191 44.6025 49.6729 44.8369 49.7803C45.0713 49.8877 45.2617 50.0472 45.4082 50.2588C45.5547 50.4704 45.6621 50.7308 45.7305 51.04C45.8021 51.3493 45.8379 51.7057 45.8379 52.1094V52.6123H42.5371V51.875H44.9736V51.7529C44.9606 51.4795 44.9232 51.2386 44.8613 51.0303C44.8027 50.8219 44.7051 50.6592 44.5684 50.542C44.4316 50.4215 44.238 50.3613 43.9873 50.3613C43.8278 50.3613 43.6797 50.389 43.543 50.4443C43.4095 50.4964 43.2939 50.5892 43.1963 50.7227C43.1019 50.8529 43.027 51.0335 42.9717 51.2646C42.9196 51.4958 42.8936 51.7887 42.8936 52.1436V52.7393C42.8936 53.0225 42.9196 53.2666 42.9717 53.4717C43.027 53.6735 43.1068 53.8411 43.2109 53.9746C43.3184 54.1048 43.4486 54.2025 43.6016 54.2676C43.7578 54.3294 43.9352 54.3604 44.1338 54.3604C44.4235 54.3604 44.6628 54.305 44.8516 54.1943C45.0404 54.0804 45.2048 53.9355 45.3447 53.7598L45.7988 54.3018C45.7044 54.4352 45.5807 54.5638 45.4277 54.6875C45.278 54.8079 45.0924 54.9072 44.8711 54.9854C44.653 55.0602 44.391 55.0977 44.085 55.0977Z" fill="url(#paint0_linear_363_3315)"/>
<path d="M113.529 40.8906V48H112.626L109.779 42.5166V48H108.881V40.8906H109.779L112.641 46.3887V40.8906H113.529ZM117.553 47.0967V44.2305C117.553 44.0221 117.52 43.8545 117.455 43.7275C117.393 43.6006 117.299 43.5078 117.172 43.4492C117.048 43.3906 116.892 43.3613 116.703 43.3613C116.521 43.3613 116.363 43.3988 116.229 43.4736C116.099 43.5485 115.998 43.6478 115.927 43.7715C115.858 43.8952 115.824 44.0319 115.824 44.1816H114.96C114.96 43.9928 115.001 43.8057 115.082 43.6201C115.167 43.4346 115.287 43.2669 115.443 43.1172C115.6 42.9642 115.787 42.8438 116.005 42.7559C116.226 42.6647 116.474 42.6191 116.747 42.6191C117.073 42.6191 117.361 42.6729 117.611 42.7803C117.862 42.8844 118.059 43.0553 118.202 43.293C118.345 43.5306 118.417 43.8464 118.417 44.2402V46.8477C118.417 47.0234 118.43 47.2106 118.456 47.4092C118.485 47.6077 118.526 47.7786 118.578 47.9219V48H117.685C117.642 47.8958 117.61 47.7575 117.587 47.585C117.564 47.4092 117.553 47.2464 117.553 47.0967ZM117.689 44.7969L117.699 45.4316H117.099C116.894 45.4316 116.706 45.4544 116.537 45.5C116.371 45.5456 116.228 45.6123 116.107 45.7002C115.987 45.7848 115.894 45.8906 115.829 46.0176C115.767 46.1445 115.736 46.2894 115.736 46.4521C115.736 46.6637 115.766 46.833 115.824 46.96C115.883 47.0837 115.971 47.1732 116.088 47.2285C116.205 47.2839 116.353 47.3115 116.532 47.3115C116.75 47.3115 116.942 47.2611 117.108 47.1602C117.274 47.0592 117.403 46.9372 117.494 46.7939C117.589 46.6507 117.632 46.5173 117.626 46.3936L117.816 46.7988C117.803 46.9258 117.761 47.0641 117.689 47.2139C117.621 47.3604 117.525 47.502 117.401 47.6387C117.278 47.7721 117.131 47.8828 116.962 47.9707C116.796 48.0553 116.609 48.0977 116.4 48.0977C116.094 48.0977 115.826 48.0391 115.595 47.9219C115.367 47.8047 115.189 47.6322 115.062 47.4043C114.936 47.1764 114.872 46.8949 114.872 46.5596C114.872 46.3057 114.916 46.0713 115.004 45.8564C115.092 45.6416 115.222 45.4561 115.395 45.2998C115.567 45.1403 115.784 45.0166 116.044 44.9287C116.308 44.8408 116.612 44.7969 116.957 44.7969H117.689ZM120.624 43.7324V50.0312H119.76V42.7168H120.546L120.624 43.7324ZM123.578 45.1191V45.6123C123.578 46.029 123.539 46.3936 123.461 46.7061C123.386 47.0153 123.274 47.2741 123.124 47.4824C122.978 47.6875 122.797 47.8421 122.582 47.9463C122.367 48.0472 122.121 48.0977 121.845 48.0977C121.568 48.0977 121.327 48.0456 121.122 47.9414C120.92 47.834 120.749 47.6794 120.609 47.4775C120.473 47.2757 120.364 47.0332 120.282 46.75C120.204 46.4635 120.15 46.1429 120.121 45.7881V45.0361C120.15 44.6618 120.204 44.3265 120.282 44.0303C120.36 43.7308 120.468 43.4769 120.604 43.2686C120.744 43.057 120.915 42.8958 121.117 42.7852C121.322 42.6745 121.562 42.6191 121.835 42.6191C122.118 42.6191 122.367 42.668 122.582 42.7656C122.8 42.8633 122.982 43.0146 123.129 43.2197C123.279 43.4215 123.391 43.6803 123.466 43.9961C123.541 44.3086 123.578 44.6829 123.578 45.1191ZM122.714 45.6123V45.1191C122.714 44.8262 122.691 44.5706 122.646 44.3525C122.603 44.1344 122.535 43.9538 122.44 43.8105C122.346 43.6673 122.227 43.5599 122.084 43.4883C121.941 43.4167 121.768 43.3809 121.566 43.3809C121.394 43.3809 121.241 43.4167 121.107 43.4883C120.977 43.5599 120.865 43.6576 120.771 43.7812C120.676 43.9017 120.598 44.04 120.536 44.1963C120.474 44.3493 120.429 44.5088 120.399 44.6748V46.1543C120.455 46.3626 120.528 46.5596 120.619 46.7451C120.71 46.9274 120.832 47.0755 120.985 47.1895C121.142 47.3034 121.339 47.3604 121.576 47.3604C121.775 47.3604 121.946 47.3245 122.089 47.2529C122.232 47.1813 122.349 47.0739 122.44 46.9307C122.535 46.7842 122.603 46.6019 122.646 46.3838C122.691 46.1624 122.714 45.9053 122.714 45.6123ZM125.619 40.5V48H124.76V40.5H125.619ZM129.574 47.0967V44.2305C129.574 44.0221 129.542 43.8545 129.477 43.7275C129.415 43.6006 129.32 43.5078 129.193 43.4492C129.07 43.3906 128.913 43.3613 128.725 43.3613C128.542 43.3613 128.384 43.3988 128.251 43.4736C128.121 43.5485 128.02 43.6478 127.948 43.7715C127.88 43.8952 127.846 44.0319 127.846 44.1816H126.981C126.981 43.9928 127.022 43.8057 127.104 43.6201C127.188 43.4346 127.309 43.2669 127.465 43.1172C127.621 42.9642 127.808 42.8438 128.026 42.7559C128.248 42.6647 128.495 42.6191 128.769 42.6191C129.094 42.6191 129.382 42.6729 129.633 42.7803C129.883 42.8844 130.08 43.0553 130.224 43.293C130.367 43.5306 130.438 43.8464 130.438 44.2402V46.8477C130.438 47.0234 130.451 47.2106 130.478 47.4092C130.507 47.6077 130.548 47.7786 130.6 47.9219V48H129.706C129.664 47.8958 129.631 47.7575 129.608 47.585C129.586 47.4092 129.574 47.2464 129.574 47.0967ZM129.711 44.7969L129.721 45.4316H129.12C128.915 45.4316 128.728 45.4544 128.559 45.5C128.393 45.5456 128.249 45.6123 128.129 45.7002C128.008 45.7848 127.916 45.8906 127.851 46.0176C127.789 46.1445 127.758 46.2894 127.758 46.4521C127.758 46.6637 127.787 46.833 127.846 46.96C127.904 47.0837 127.992 47.1732 128.109 47.2285C128.227 47.2839 128.375 47.3115 128.554 47.3115C128.772 47.3115 128.964 47.2611 129.13 47.1602C129.296 47.0592 129.424 46.9372 129.516 46.7939C129.61 46.6507 129.654 46.5173 129.647 46.3936L129.838 46.7988C129.825 46.9258 129.783 47.0641 129.711 47.2139C129.643 47.3604 129.547 47.502 129.423 47.6387C129.299 47.7721 129.153 47.8828 128.983 47.9707C128.817 48.0553 128.63 48.0977 128.422 48.0977C128.116 48.0977 127.847 48.0391 127.616 47.9219C127.388 47.8047 127.211 47.6322 127.084 47.4043C126.957 47.1764 126.894 46.8949 126.894 46.5596C126.894 46.3057 126.938 46.0713 127.025 45.8564C127.113 45.6416 127.243 45.4561 127.416 45.2998C127.589 45.1403 127.805 45.0166 128.065 44.9287C128.329 44.8408 128.633 44.7969 128.979 44.7969H129.711ZM133.71 42.7168V43.4102H131.244V42.7168L133.71 42.7168ZM132.05 41.4326L132.914 41.4326V46.6914C132.914 46.8704 132.935 47.0055 132.978 47.0967C133.023 47.1878 133.08 47.248 133.148 47.2773C133.217 47.3066 133.29 47.3213 133.368 47.3213C133.427 47.3213 133.492 47.3148 133.563 47.3018C133.635 47.2855 133.684 47.2725 133.71 47.2627L133.705 48C133.646 48.0228 133.568 48.0439 133.471 48.0635C133.373 48.0863 133.249 48.0977 133.1 48.0977C132.914 48.0977 132.742 48.0537 132.582 47.9658C132.423 47.8779 132.294 47.7314 132.196 47.5264C132.099 47.318 132.05 47.0381 132.05 46.6865V41.4326ZM137.328 47.0967V44.2305C137.328 44.0221 137.296 43.8545 137.23 43.7275C137.169 43.6006 137.074 43.5078 136.947 43.4492C136.824 43.3906 136.667 43.3613 136.479 43.3613C136.296 43.3613 136.138 43.3988 136.005 43.4736C135.875 43.5485 135.774 43.6478 135.702 43.7715C135.634 43.8952 135.6 44.0319 135.6 44.1816H134.735C134.735 43.9928 134.776 43.8057 134.857 43.6201C134.942 43.4346 135.062 43.2669 135.219 43.1172C135.375 42.9642 135.562 42.8437 135.78 42.7559C136.002 42.6647 136.249 42.6191 136.522 42.6191C136.848 42.6191 137.136 42.6729 137.387 42.7803C137.637 42.8844 137.834 43.0553 137.978 43.293C138.121 43.5306 138.192 43.8464 138.192 44.2402V46.8477C138.192 47.0234 138.205 47.2106 138.231 47.4092C138.261 47.6077 138.301 47.7786 138.354 47.9219V48H137.46C137.418 47.8958 137.385 47.7575 137.362 47.585C137.34 47.4092 137.328 47.2464 137.328 47.0967ZM137.465 44.7969L137.475 45.4316H136.874C136.669 45.4316 136.482 45.4544 136.312 45.5C136.146 45.5456 136.003 45.6123 135.883 45.7002C135.762 45.7848 135.67 45.8906 135.604 46.0176C135.543 46.1445 135.512 46.2894 135.512 46.4521C135.512 46.6637 135.541 46.833 135.6 46.96C135.658 47.0837 135.746 47.1732 135.863 47.2285C135.98 47.2839 136.129 47.3115 136.308 47.3115C136.526 47.3115 136.718 47.2611 136.884 47.1602C137.05 47.0592 137.178 46.9372 137.27 46.7939C137.364 46.6507 137.408 46.5173 137.401 46.3936L137.592 46.7988C137.579 46.9258 137.536 47.0641 137.465 47.2139C137.396 47.3604 137.3 47.502 137.177 47.6387C137.053 47.7721 136.907 47.8828 136.737 47.9707C136.571 48.0553 136.384 48.0977 136.176 48.0977C135.87 48.0977 135.601 48.0391 135.37 47.9219C135.142 47.8047 134.965 47.6322 134.838 47.4043C134.711 47.1764 134.647 46.8949 134.647 46.5596C134.647 46.3057 134.691 46.0713 134.779 45.8564C134.867 45.6416 134.997 45.4561 135.17 45.2998C135.342 45.1403 135.559 45.0166 135.819 44.9287C136.083 44.8408 136.387 44.7969 136.732 44.7969H137.465Z" fill="url(#paint1_linear_363_3315)"/>
<path d="M198.09 41.2119H196.537V40.4453H198.09C198.383 40.4453 198.619 40.3867 198.798 40.2695C198.98 40.1523 199.112 39.9896 199.193 39.7812C199.278 39.5729 199.32 39.3353 199.32 39.0684C199.32 38.8242 199.278 38.5947 199.193 38.3799C199.112 38.165 198.98 37.9925 198.798 37.8623C198.619 37.7288 198.383 37.6621 198.09 37.6621H196.723V44H195.824V36.8906H198.09C198.549 36.8906 198.936 36.9834 199.252 37.1689C199.568 37.3545 199.807 37.6117 199.97 37.9404C200.136 38.266 200.219 38.6387 200.219 39.0586C200.219 39.5143 200.136 39.9033 199.97 40.2256C199.807 40.5479 199.568 40.7936 199.252 40.9629C198.936 41.1289 198.549 41.2119 198.09 41.2119ZM202.118 39.5469V44H201.254V38.7168H202.089L202.118 39.5469ZM203.432 38.6875L203.437 39.5273C203.365 39.5111 203.3 39.5013 203.241 39.498C203.186 39.4915 203.121 39.4883 203.046 39.4883C202.883 39.4883 202.74 39.5208 202.616 39.5859C202.496 39.651 202.392 39.7422 202.304 39.8594C202.216 39.9766 202.146 40.1165 202.094 40.2793C202.042 40.4388 202.006 40.6146 201.986 40.8066L201.762 40.9531C201.762 40.6341 201.786 40.3346 201.835 40.0547C201.887 39.7747 201.967 39.5273 202.074 39.3125C202.182 39.0944 202.318 38.9251 202.484 38.8047C202.654 38.681 202.855 38.6191 203.09 38.6191C203.142 38.6191 203.205 38.6273 203.28 38.6436C203.358 38.6566 203.409 38.6712 203.432 38.6875ZM204.022 41.6123V41.1094C204.022 40.6992 204.075 40.3395 204.179 40.0303C204.283 39.7178 204.428 39.4574 204.613 39.249C204.799 39.0407 205.015 38.8844 205.263 38.7803C205.51 38.6729 205.775 38.6191 206.059 38.6191C206.348 38.6191 206.617 38.6729 206.864 38.7803C207.112 38.8844 207.328 39.0407 207.514 39.249C207.702 39.4574 207.849 39.7178 207.953 40.0303C208.057 40.3395 208.109 40.6992 208.109 41.1094V41.6123C208.109 42.0225 208.057 42.3838 207.953 42.6963C207.849 43.0055 207.704 43.2643 207.519 43.4727C207.333 43.681 207.117 43.8372 206.869 43.9414C206.622 44.0456 206.355 44.0977 206.068 44.0977C205.782 44.0977 205.515 44.0456 205.268 43.9414C205.02 43.8372 204.802 43.681 204.613 43.4727C204.428 43.2643 204.283 43.0055 204.179 42.6963C204.075 42.3838 204.022 42.0225 204.022 41.6123ZM204.887 41.1094V41.6123C204.887 41.902 204.916 42.1559 204.975 42.374C205.033 42.5921 205.116 42.7744 205.224 42.9209C205.331 43.0674 205.456 43.1781 205.6 43.2529C205.743 43.3245 205.899 43.3604 206.068 43.3604C206.264 43.3604 206.435 43.3245 206.581 43.2529C206.731 43.1781 206.854 43.0674 206.952 42.9209C207.05 42.7744 207.123 42.5921 207.172 42.374C207.221 42.1559 207.245 41.902 207.245 41.6123V41.1094C207.245 40.8197 207.216 40.5674 207.157 40.3525C207.099 40.1344 207.016 39.9521 206.908 39.8057C206.801 39.6559 206.674 39.5452 206.527 39.4736C206.384 39.3988 206.228 39.3613 206.059 39.3613C205.893 39.3613 205.738 39.3988 205.595 39.4736C205.451 39.5452 205.326 39.6559 205.219 39.8057C205.115 39.9521 205.033 40.1344 204.975 40.3525C204.916 40.5674 204.887 40.8197 204.887 41.1094ZM210.512 43.1846L211.645 38.7168H212.523L210.956 44H210.385L210.512 43.1846ZM209.599 38.7168L210.78 43.209L210.873 44H210.307L208.72 38.7168H209.599ZM213.441 38.7168H214.301V44.6299C214.301 44.9521 214.258 45.2256 214.174 45.4502C214.092 45.6748 213.965 45.8441 213.793 45.958C213.624 46.0752 213.407 46.1338 213.144 46.1338C213.072 46.1338 212.989 46.1257 212.895 46.1094C212.803 46.0931 212.725 46.0736 212.66 46.0508V45.3232C212.715 45.3363 212.776 45.346 212.841 45.3525C212.906 45.3623 212.96 45.3672 213.002 45.3672C213.096 45.3672 213.176 45.3428 213.241 45.2939C213.306 45.2451 213.355 45.167 213.388 45.0596C213.424 44.9521 213.441 44.8089 213.441 44.6299V38.7168ZM213.363 37.3154C213.363 37.1689 213.404 37.0452 213.485 36.9443C213.57 36.8434 213.692 36.793 213.852 36.793C214.014 36.793 214.136 36.8434 214.218 36.9443C214.302 37.0452 214.345 37.1689 214.345 37.3154C214.345 37.4554 214.302 37.5758 214.218 37.6768C214.136 37.7744 214.014 37.8232 213.852 37.8232C213.692 37.8232 213.57 37.7744 213.485 37.6768C213.404 37.5758 213.363 37.4554 213.363 37.3154ZM217.558 44.0977C217.242 44.0977 216.957 44.0505 216.703 43.9561C216.449 43.8617 216.233 43.7184 216.054 43.5264C215.875 43.3311 215.738 43.0853 215.644 42.7891C215.549 42.4928 215.502 42.1429 215.502 41.7393V41.1436C215.502 40.6781 215.556 40.2842 215.663 39.9619C215.774 39.6396 215.922 39.3809 216.107 39.1855C216.293 38.987 216.503 38.8437 216.737 38.7559C216.972 38.6647 217.213 38.6191 217.46 38.6191C217.792 38.6191 218.075 38.6729 218.31 38.7803C218.544 38.8877 218.734 39.0472 218.881 39.2588C219.027 39.4704 219.135 39.7308 219.203 40.04C219.275 40.3493 219.311 40.7057 219.311 41.1094V41.6123H216.01V40.875H218.446V40.7529C218.433 40.4795 218.396 40.2386 218.334 40.0303C218.275 39.8219 218.178 39.6592 218.041 39.542C217.904 39.4215 217.711 39.3613 217.46 39.3613C217.3 39.3613 217.152 39.389 217.016 39.4443C216.882 39.4964 216.767 39.5892 216.669 39.7227C216.575 39.8529 216.5 40.0335 216.444 40.2646C216.392 40.4958 216.366 40.7887 216.366 41.1436V41.7393C216.366 42.0225 216.392 42.2666 216.444 42.4717C216.5 42.6735 216.579 42.8411 216.684 42.9746C216.791 43.1048 216.921 43.2025 217.074 43.2676C217.23 43.3294 217.408 43.3604 217.606 43.3604C217.896 43.3604 218.135 43.305 218.324 43.1943C218.513 43.0804 218.677 42.9355 218.817 42.7598L219.271 43.3018C219.177 43.4352 219.053 43.5638 218.9 43.6875C218.751 43.8079 218.565 43.9072 218.344 43.9854C218.126 44.0602 217.864 44.0977 217.558 44.0977ZM221.22 39.5469V44H220.355V38.7168H221.19L221.22 39.5469ZM222.533 38.6875L222.538 39.5273C222.466 39.5111 222.401 39.5013 222.343 39.498C222.287 39.4915 222.222 39.4883 222.147 39.4883C221.985 39.4883 221.841 39.5208 221.718 39.5859C221.597 39.651 221.493 39.7422 221.405 39.8594C221.317 39.9766 221.247 40.1165 221.195 40.2793C221.143 40.4388 221.107 40.6146 221.088 40.8066L220.863 40.9531C220.863 40.6341 220.888 40.3346 220.937 40.0547C220.989 39.7747 221.068 39.5273 221.176 39.3125C221.283 39.0944 221.42 38.9251 221.586 38.8047C221.755 38.681 221.957 38.6191 222.191 38.6191C222.243 38.6191 222.307 38.6273 222.382 38.6436C222.46 38.6566 222.51 38.6712 222.533 38.6875ZM225.795 43.0967V40.2305C225.795 40.0221 225.762 39.8545 225.697 39.7275C225.635 39.6006 225.541 39.5078 225.414 39.4492C225.29 39.3906 225.134 39.3613 224.945 39.3613C224.763 39.3613 224.605 39.3988 224.472 39.4736C224.341 39.5485 224.241 39.6478 224.169 39.7715C224.101 39.8952 224.066 40.0319 224.066 40.1816H223.202C223.202 39.9928 223.243 39.8057 223.324 39.6201C223.409 39.4346 223.529 39.2669 223.686 39.1172C223.842 38.9642 224.029 38.8437 224.247 38.7559C224.468 38.6647 224.716 38.6191 224.989 38.6191C225.315 38.6191 225.603 38.6729 225.854 38.7803C226.104 38.8844 226.301 39.0553 226.444 39.293C226.588 39.5306 226.659 39.8464 226.659 40.2402V42.8477C226.659 43.0234 226.672 43.2106 226.698 43.4092C226.728 43.6077 226.768 43.7786 226.82 43.9219V44H225.927C225.884 43.8958 225.852 43.7575 225.829 43.585C225.806 43.4092 225.795 43.2464 225.795 43.0967ZM225.932 40.7969L225.941 41.4316H225.341C225.136 41.4316 224.949 41.4544 224.779 41.5C224.613 41.5456 224.47 41.6123 224.35 41.7002C224.229 41.7848 224.136 41.8906 224.071 42.0176C224.009 42.1445 223.979 42.2894 223.979 42.4521C223.979 42.6637 224.008 42.833 224.066 42.96C224.125 43.0837 224.213 43.1732 224.33 43.2285C224.447 43.2839 224.595 43.3115 224.774 43.3115C224.993 43.3115 225.185 43.2611 225.351 43.1602C225.517 43.0592 225.645 42.9372 225.736 42.7939C225.831 42.6507 225.875 42.5173 225.868 42.3936L226.059 42.7988C226.046 42.9258 226.003 43.0641 225.932 43.2139C225.863 43.3604 225.767 43.502 225.644 43.6387C225.52 43.7721 225.373 43.8828 225.204 43.9707C225.038 44.0553 224.851 44.0977 224.643 44.0977C224.337 44.0977 224.068 44.0391 223.837 43.9219C223.609 43.8047 223.432 43.6322 223.305 43.4043C223.178 43.1764 223.114 42.8949 223.114 42.5596C223.114 42.3057 223.158 42.0713 223.246 41.8564C223.334 41.6416 223.464 41.4561 223.637 41.2998C223.809 41.1403 224.026 41.0166 224.286 40.9287C224.55 40.8408 224.854 40.7969 225.199 40.7969H225.932ZM231.225 38.7168V44H230.365V38.7168H231.225ZM230.316 37.3154C230.316 37.1689 230.357 37.0452 230.438 36.9443C230.52 36.8434 230.642 36.793 230.805 36.793C230.967 36.793 231.09 36.8434 231.171 36.9443C231.256 37.0452 231.298 37.1689 231.298 37.3154C231.298 37.4554 231.256 37.5758 231.171 37.6768C231.09 37.7744 230.967 37.8232 230.805 37.8232C230.642 37.8232 230.52 37.7744 230.438 37.6768C230.357 37.5758 230.316 37.4554 230.316 37.3154ZM198.407 50.7324V57.0312H197.543V49.7168H198.329L198.407 50.7324ZM201.361 52.1191V52.6123C201.361 53.029 201.322 53.3936 201.244 53.7061C201.169 54.0153 201.057 54.2741 200.907 54.4824C200.761 54.6875 200.58 54.8421 200.365 54.9463C200.15 55.0472 199.905 55.0977 199.628 55.0977C199.351 55.0977 199.11 55.0456 198.905 54.9414C198.703 54.834 198.533 54.6794 198.393 54.4775C198.256 54.2757 198.147 54.0332 198.065 53.75C197.987 53.4635 197.934 53.1429 197.904 52.7881V52.0361C197.934 51.6618 197.987 51.3265 198.065 51.0303C198.144 50.7308 198.251 50.4769 198.388 50.2686C198.528 50.057 198.699 49.8958 198.9 49.7852C199.105 49.6745 199.345 49.6191 199.618 49.6191C199.901 49.6191 200.15 49.668 200.365 49.7656C200.583 49.8633 200.766 50.0146 200.912 50.2197C201.062 50.4215 201.174 50.6803 201.249 50.9961C201.324 51.3086 201.361 51.6829 201.361 52.1191ZM200.497 52.6123V52.1191C200.497 51.8262 200.474 51.5706 200.429 51.3525C200.386 51.1344 200.318 50.9538 200.224 50.8105C200.129 50.6673 200.01 50.5599 199.867 50.4883C199.724 50.4167 199.551 50.3809 199.35 50.3809C199.177 50.3809 199.024 50.4167 198.891 50.4883C198.76 50.5599 198.648 50.6576 198.554 50.7812C198.459 50.9017 198.381 51.04 198.319 51.1963C198.257 51.3493 198.212 51.5088 198.183 51.6748V53.1543C198.238 53.3626 198.311 53.5596 198.402 53.7451C198.493 53.9274 198.616 54.0755 198.769 54.1895C198.925 54.3034 199.122 54.3604 199.359 54.3604C199.558 54.3604 199.729 54.3245 199.872 54.2529C200.015 54.1813 200.132 54.0739 200.224 53.9307C200.318 53.7842 200.386 53.6019 200.429 53.3838C200.474 53.1624 200.497 52.9053 200.497 52.6123ZM203.402 47.5V55H202.543V47.5H203.402ZM207.357 54.0967V51.2305C207.357 51.0221 207.325 50.8545 207.26 50.7275C207.198 50.6006 207.104 50.5078 206.977 50.4492C206.853 50.3906 206.697 50.3613 206.508 50.3613C206.326 50.3613 206.168 50.3988 206.034 50.4736C205.904 50.5485 205.803 50.6478 205.731 50.7715C205.663 50.8952 205.629 51.0319 205.629 51.1816H204.765C204.765 50.9928 204.805 50.8057 204.887 50.6201C204.971 50.4346 205.092 50.2669 205.248 50.1172C205.404 49.9642 205.591 49.8438 205.81 49.7559C206.031 49.6647 206.278 49.6191 206.552 49.6191C206.877 49.6191 207.165 49.6729 207.416 49.7803C207.667 49.8844 207.864 50.0553 208.007 50.293C208.15 50.5306 208.222 50.8464 208.222 51.2402V53.8477C208.222 54.0234 208.235 54.2106 208.261 54.4092C208.29 54.6077 208.331 54.7786 208.383 54.9219V55H207.489C207.447 54.8958 207.414 54.7575 207.392 54.585C207.369 54.4092 207.357 54.2464 207.357 54.0967ZM207.494 51.7969L207.504 52.4316H206.903C206.698 52.4316 206.511 52.4544 206.342 52.5C206.176 52.5456 206.033 52.6123 205.912 52.7002C205.792 52.7848 205.699 52.8906 205.634 53.0176C205.572 53.1445 205.541 53.2894 205.541 53.4521C205.541 53.6637 205.57 53.833 205.629 53.96C205.688 54.0837 205.775 54.1732 205.893 54.2285C206.01 54.2839 206.158 54.3115 206.337 54.3115C206.555 54.3115 206.747 54.2611 206.913 54.1602C207.079 54.0592 207.208 53.9372 207.299 53.7939C207.393 53.6507 207.437 53.5173 207.431 53.3936L207.621 53.7988C207.608 53.9258 207.566 54.0641 207.494 54.2139C207.426 54.3604 207.33 54.502 207.206 54.6387C207.082 54.7721 206.936 54.8828 206.767 54.9707C206.601 55.0553 206.413 55.0977 206.205 55.0977C205.899 55.0977 205.631 55.0391 205.399 54.9219C205.172 54.8047 204.994 54.6322 204.867 54.4043C204.74 54.1764 204.677 53.8949 204.677 53.5596C204.677 53.3057 204.721 53.0713 204.809 52.8564C204.896 52.6416 205.027 52.4561 205.199 52.2998C205.372 52.1403 205.588 52.0166 205.849 51.9287C206.112 51.8408 206.417 51.7969 206.762 51.7969H207.494ZM211.396 54.3604C211.568 54.3604 211.724 54.3262 211.864 54.2578C212.007 54.1862 212.125 54.0755 212.216 53.9258C212.307 53.7728 212.359 53.5742 212.372 53.3301H213.183C213.17 53.6816 213.08 53.9909 212.914 54.2578C212.751 54.5215 212.536 54.7282 212.27 54.8779C212.006 55.0244 211.715 55.0977 211.396 55.0977C211.054 55.0977 210.756 55.0423 210.502 54.9316C210.251 54.821 210.043 54.6615 209.877 54.4531C209.714 54.2415 209.592 53.986 209.511 53.6865C209.429 53.3838 209.389 53.0404 209.389 52.6562V52.0605C209.389 51.6764 209.429 51.3346 209.511 51.0352C209.592 50.7324 209.714 50.4769 209.877 50.2686C210.043 50.057 210.251 49.8958 210.502 49.7852C210.756 49.6745 211.054 49.6191 211.396 49.6191C211.754 49.6191 212.063 49.6956 212.323 49.8486C212.587 49.9984 212.792 50.2165 212.938 50.5029C213.088 50.7861 213.17 51.1296 213.183 51.5332H212.372C212.359 51.2728 212.312 51.0563 212.23 50.8838C212.149 50.708 212.038 50.5778 211.898 50.4932C211.758 50.4053 211.591 50.3613 211.396 50.3613C211.168 50.3613 210.979 50.402 210.829 50.4834C210.683 50.5615 210.567 50.6755 210.482 50.8252C210.398 50.9749 210.338 51.154 210.302 51.3623C210.269 51.5706 210.253 51.8034 210.253 52.0605V52.6562C210.253 52.9134 210.269 53.1478 210.302 53.3594C210.338 53.5677 210.396 53.7467 210.478 53.8965C210.562 54.0462 210.679 54.1618 210.829 54.2432C210.979 54.3213 211.168 54.3604 211.396 54.3604ZM210.688 48.9355L211.635 47.5H212.724L211.415 48.9355H210.688ZM216.771 54.0967V51.2305C216.771 51.0221 216.739 50.8545 216.674 50.7275C216.612 50.6006 216.518 50.5078 216.391 50.4492C216.267 50.3906 216.111 50.3613 215.922 50.3613C215.74 50.3613 215.582 50.3988 215.448 50.4736C215.318 50.5485 215.217 50.6478 215.146 50.7715C215.077 50.8952 215.043 51.0319 215.043 51.1816H214.179C214.179 50.9928 214.219 50.8057 214.301 50.6201C214.385 50.4346 214.506 50.2669 214.662 50.1172C214.818 49.9642 215.006 49.8438 215.224 49.7559C215.445 49.6647 215.692 49.6191 215.966 49.6191C216.291 49.6191 216.579 49.6729 216.83 49.7803C217.081 49.8844 217.278 50.0553 217.421 50.293C217.564 50.5306 217.636 50.8464 217.636 51.2402V53.8477C217.636 54.0234 217.649 54.2106 217.675 54.4092C217.704 54.6077 217.745 54.7786 217.797 54.9219V55H216.903C216.861 54.8958 216.828 54.7575 216.806 54.585C216.783 54.4092 216.771 54.2464 216.771 54.0967ZM216.908 51.7969L216.918 52.4316H216.317C216.112 52.4316 215.925 52.4544 215.756 52.5C215.59 52.5456 215.447 52.6123 215.326 52.7002C215.206 52.7848 215.113 52.8906 215.048 53.0176C214.986 53.1445 214.955 53.2894 214.955 53.4521C214.955 53.6637 214.984 53.833 215.043 53.96C215.102 54.0837 215.189 54.1732 215.307 54.2285C215.424 54.2839 215.572 54.3115 215.751 54.3115C215.969 54.3115 216.161 54.2611 216.327 54.1602C216.493 54.0592 216.622 53.9372 216.713 53.7939C216.807 53.6507 216.851 53.5173 216.845 53.3936L217.035 53.7988C217.022 53.9258 216.98 54.0641 216.908 54.2139C216.84 54.3604 216.744 54.502 216.62 54.6387C216.496 54.7721 216.35 54.8828 216.181 54.9707C216.015 55.0553 215.827 55.0977 215.619 55.0977C215.313 55.0977 215.045 55.0391 214.813 54.9219C214.586 54.8047 214.408 54.6322 214.281 54.4043C214.154 54.1764 214.091 53.8949 214.091 53.5596C214.091 53.3057 214.135 53.0713 214.223 52.8564C214.311 52.6416 214.441 52.4561 214.613 52.2998C214.786 52.1403 215.002 52.0166 215.263 51.9287C215.526 51.8408 215.831 51.7969 216.176 51.7969H216.908ZM219.843 50.8447V55H218.979V49.7168H219.794L219.843 50.8447ZM219.633 52.1582L219.281 52.1436C219.278 51.7822 219.319 51.4486 219.403 51.1426C219.491 50.8333 219.615 50.5648 219.774 50.3369C219.937 50.109 220.131 49.9333 220.355 49.8096C220.58 49.6826 220.829 49.6191 221.103 49.6191C221.317 49.6191 221.513 49.6549 221.688 49.7266C221.864 49.7949 222.014 49.9056 222.138 50.0586C222.261 50.2116 222.356 50.4102 222.421 50.6543C222.489 50.8952 222.523 51.1898 222.523 51.5381V55H221.659V51.5283C221.659 51.2516 221.628 51.0303 221.566 50.8643C221.508 50.695 221.417 50.5729 221.293 50.498C221.173 50.4199 221.02 50.3809 220.834 50.3809C220.665 50.3809 220.507 50.4281 220.36 50.5225C220.214 50.6169 220.085 50.7471 219.975 50.9131C219.867 51.0791 219.783 51.2695 219.721 51.4844C219.662 51.696 219.633 51.9206 219.633 52.1582ZM223.842 49.7168H224.701V55.6299C224.701 55.9521 224.659 56.2256 224.574 56.4502C224.493 56.6748 224.366 56.8441 224.193 56.958C224.024 57.0752 223.808 57.1338 223.544 57.1338C223.472 57.1338 223.389 57.1257 223.295 57.1094C223.204 57.0931 223.126 57.0736 223.061 57.0508V56.3232C223.116 56.3363 223.176 56.346 223.241 56.3525C223.306 56.3623 223.36 56.3672 223.402 56.3672C223.497 56.3672 223.576 56.3428 223.642 56.2939C223.707 56.2451 223.756 56.167 223.788 56.0596C223.824 55.9521 223.842 55.8089 223.842 55.6299V49.7168ZM223.764 48.3154C223.764 48.1689 223.804 48.0452 223.886 47.9443C223.97 47.8434 224.092 47.793 224.252 47.793C224.415 47.793 224.537 47.8434 224.618 47.9443C224.703 48.0452 224.745 48.1689 224.745 48.3154C224.745 48.4554 224.703 48.5758 224.618 48.6768C224.537 48.7744 224.415 48.8232 224.252 48.8232C224.092 48.8232 223.97 48.7744 223.886 48.6768C223.804 48.5758 223.764 48.4554 223.764 48.3154ZM227.958 55.0977C227.642 55.0977 227.357 55.0505 227.104 54.9561C226.85 54.8617 226.633 54.7184 226.454 54.5264C226.275 54.3311 226.138 54.0853 226.044 53.7891C225.95 53.4928 225.902 53.1429 225.902 52.7393V52.1436C225.902 51.6781 225.956 51.2842 226.063 50.9619C226.174 50.6396 226.322 50.3809 226.508 50.1855C226.693 49.987 226.903 49.8437 227.138 49.7559C227.372 49.6647 227.613 49.6191 227.86 49.6191C228.192 49.6191 228.476 49.6729 228.71 49.7803C228.944 49.8877 229.135 50.0472 229.281 50.2588C229.428 50.4704 229.535 50.7308 229.604 51.04C229.675 51.3493 229.711 51.7057 229.711 52.1094V52.6123H226.41V51.875H228.847V51.7529C228.834 51.4795 228.796 51.2386 228.734 51.0303C228.676 50.8219 228.578 50.6592 228.441 50.542C228.305 50.4215 228.111 50.3613 227.86 50.3613C227.701 50.3613 227.553 50.389 227.416 50.4443C227.283 50.4964 227.167 50.5892 227.069 50.7227C226.975 50.8529 226.9 51.0335 226.845 51.2646C226.793 51.4958 226.767 51.7887 226.767 52.1436V52.7393C226.767 53.0225 226.793 53.2666 226.845 53.4717C226.9 53.6735 226.98 53.8411 227.084 53.9746C227.191 54.1048 227.322 54.2025 227.475 54.2676C227.631 54.3294 227.808 54.3604 228.007 54.3604C228.297 54.3604 228.536 54.305 228.725 54.1943C228.913 54.0804 229.078 53.9355 229.218 53.7598L229.672 54.3018C229.577 54.4352 229.454 54.5638 229.301 54.6875C229.151 54.8079 228.965 54.9072 228.744 54.9854C228.526 55.0602 228.264 55.0977 227.958 55.0977Z" fill="#E0E0E9"/>
<path fill-rule="evenodd" clip-rule="evenodd" d="M203 16L136 16V14L203 14V16Z" fill="#D0CFD7"/>
<path fill-rule="evenodd" clip-rule="evenodd" d="M110 16L43 16V14L110 14V16Z" fill="url(#paint2_linear_363_3315)"/>
<path fill-rule="evenodd" clip-rule="evenodd" d="M17.7612 6.17317C17 8.01088 17 10.3406 17 15C17 19.6594 17 21.9891 17.7612 23.8268C18.7761 26.2771 20.7229 28.2239 23.1732 29.2388C25.0109 30 27.3406 30 32 30C36.6594 30 38.9891 30 40.8268 29.2388C43.2771 28.2239 45.2239 26.2771 46.2388 23.8268C47 21.9891 47 19.6594 47 15C47 10.3406 47 8.01088 46.2388 6.17317C45.2239 3.72288 43.2771 1.77614 40.8268 0.761205C38.9891 0 36.6594 0 32 0C27.3406 0 25.0109 0 23.1732 0.761205C20.7229 1.77614 18.7761 3.72288 17.7612 6.17317ZM38.7071 11.7071C39.0976 11.3166 39.0976 10.6834 38.7071 10.2929C38.3166 9.90237 37.6834 9.90237 37.2929 10.2929L30 17.5858L26.7071 14.2929C26.3166 13.9024 25.6834 13.9024 25.2929 14.2929C24.9024 14.6834 24.9024 15.3166 25.2929 15.7071L29.2929 19.7071C29.4804 19.8946 29.7348 20 30 20C30.2652 20 30.5196 19.8946 30.7071 19.7071L38.7071 11.7071Z" fill="url(#paint3_linear_363_3315)"/>
<path fill-rule="evenodd" clip-rule="evenodd" d="M108.761 6.17317C108 8.01088 108 10.3406 108 15C108 19.6594 108 21.9891 108.761 23.8268C109.776 26.2771 111.723 28.2239 114.173 29.2388C116.011 30 118.341 30 123 30C127.659 30 129.989 30 131.827 29.2388C134.277 28.2239 136.224 26.2771 137.239 23.8268C138 21.9891 138 19.6594 138 15C138 10.3406 138 8.01088 137.239 6.17317C136.224 3.72288 134.277 1.77614 131.827 0.761205C129.989 0 127.659 0 123 0C118.341 0 116.011 0 114.173 0.761205C111.723 1.77614 109.776 3.72288 108.761 6.17317ZM129.707 11.7071C130.098 11.3166 130.098 10.6834 129.707 10.2929C129.317 9.90237 128.683 9.90237 128.293 10.2929L121 17.5858L117.707 14.2929C117.317 13.9024 116.683 13.9024 116.293 14.2929C115.902 14.6834 115.902 15.3166 116.293 15.7071L120.293 19.7071C120.48 19.8946 120.735 20 121 20C121.265 20 121.52 19.8946 121.707 19.7071L129.707 11.7071Z" fill="url(#paint4_linear_363_3315)"/>
<path fill-rule="evenodd" clip-rule="evenodd" d="M199.761 6.17317C199 8.01088 199 10.3406 199 15C199 19.6594 199 21.9891 199.761 23.8268C200.776 26.2771 202.723 28.2239 205.173 29.2388C207.011 30 209.341 30 214 30C218.659 30 220.989 30 222.827 29.2388C225.277 28.2239 227.224 26.2771 228.239 23.8268C229 21.9891 229 19.6594 229 15C229 10.3406 229 8.01088 228.239 6.17317C227.224 3.72288 225.277 1.77614 222.827 0.761205C220.989 0 218.659 0 214 0C209.341 0 207.011 0 205.173 0.761205C202.723 1.77614 200.776 3.72288 199.761 6.17317ZM220.707 11.7071C221.098 11.3166 221.098 10.6834 220.707 10.2929C220.317 9.90237 219.683 9.90237 219.293 10.2929L212 17.5858L208.707 14.2929C208.317 13.9024 207.683 13.9024 207.293 14.2929C206.902 14.6834 206.902 15.3166 207.293 15.7071L211.293 19.7071C211.48 19.8946 211.735 20 212 20C212.265 20 212.52 19.8946 212.707 19.7071L220.707 11.7071Z" fill="#D0CFD7"/>
<defs>
<linearGradient id="paint0_linear_363_3315" x1="32" y1="57" x2="32" y2="35" gradientUnits="userSpaceOnUse">
<stop stop-color="#5CCC94"/>
<stop offset="1" stop-color="#8CCAAE"/>
</linearGradient>
<linearGradient id="paint1_linear_363_3315" x1="123.5" y1="55" x2="123.5" y2="35" gradientUnits="userSpaceOnUse">
<stop stop-color="#5CCC94"/>
<stop offset="1" stop-color="#8CCAAE"/>
</linearGradient>
<linearGradient id="paint2_linear_363_3315" x1="76.5" y1="16" x2="76.5" y2="14" gradientUnits="userSpaceOnUse">
<stop stop-color="#5CCC94"/>
<stop offset="1" stop-color="#8CCAAE"/>
</linearGradient>
<linearGradient id="paint3_linear_363_3315" x1="32" y1="30" x2="32" y2="1.58545e-07" gradientUnits="userSpaceOnUse">
<stop stop-color="#5CCC94"/>
<stop offset="1" stop-color="#8CCAAE"/>
</linearGradient>
<linearGradient id="paint4_linear_363_3315" x1="123" y1="30" x2="123" y2="1.58545e-07" gradientUnits="userSpaceOnUse">
<stop stop-color="#5CCC94"/>
<stop offset="1" stop-color="#8CCAAE"/>
</linearGradient>
</defs>
</svg>
