<svg width="241" height="68" viewBox="0 0 241 68" fill="none" xmlns="http://www.w3.org/2000/svg">
<path d="M11.5859 36.8906L11.5859 44H10.6826L7.83594 38.5166L7.83594 44H6.9375L6.9375 36.8906H7.83594L10.6973 42.3887L10.6973 36.8906H11.5859ZM15.6924 42.7793L15.6924 38.7168H16.5566V44H15.7363L15.6924 42.7793ZM15.8535 41.666L16.1953 41.6562C16.1953 42.0078 16.1644 42.3333 16.1025 42.6328C16.0439 42.929 15.9463 43.1862 15.8096 43.4043C15.6761 43.6224 15.4987 43.7933 15.2773 43.917C15.056 44.0374 14.7842 44.0977 14.4619 44.0977C14.2438 44.0977 14.0452 44.0602 13.8662 43.9854C13.6904 43.9105 13.5374 43.7949 13.4072 43.6387C13.2803 43.4824 13.181 43.279 13.1094 43.0283C13.041 42.7777 13.0068 42.4766 13.0068 42.125L13.0068 38.7168H13.8662L13.8662 42.1348C13.8662 42.3724 13.8874 42.5693 13.9297 42.7256C13.972 42.8786 14.029 43.0007 14.1006 43.0918C14.1722 43.1797 14.252 43.2415 14.3398 43.2773C14.4277 43.3132 14.5173 43.3311 14.6084 43.3311C14.9144 43.3311 15.1585 43.2578 15.3408 43.1113C15.5231 42.9616 15.6533 42.7614 15.7314 42.5107C15.8128 42.2568 15.8535 41.9753 15.8535 41.666ZM18.7197 39.7666V44H17.8604V38.7168H18.6709L18.7197 39.7666ZM18.5439 41.1582L18.1436 41.1436C18.1403 40.7822 18.1761 40.4486 18.251 40.1426C18.3258 39.8333 18.4382 39.5648 18.5879 39.3369C18.7409 39.109 18.9313 38.9333 19.1592 38.8096C19.3903 38.6826 19.6589 38.6191 19.9648 38.6191C20.1667 38.6191 20.3538 38.6549 20.5264 38.7266C20.7021 38.7949 20.8551 38.904 20.9854 39.0537C21.1156 39.2035 21.2165 39.3955 21.2881 39.6299C21.363 39.8643 21.4004 40.1475 21.4004 40.4795V44H20.5361V40.5234C20.5361 40.2467 20.4987 40.0254 20.4238 39.8594C20.3522 39.6934 20.2497 39.5729 20.1162 39.498C19.9827 39.4199 19.8232 39.3809 19.6377 39.3809C19.4261 39.3809 19.2487 39.4281 19.1055 39.5225C18.9655 39.6169 18.8532 39.7471 18.7686 39.9131C18.6872 40.0791 18.6286 40.2695 18.5928 40.4844C18.5602 40.696 18.5439 40.9206 18.5439 41.1582ZM21.3906 40.6602L20.8145 40.8457C20.8112 40.556 20.847 40.2777 20.9219 40.0107C20.9967 39.7438 21.1074 39.5062 21.2539 39.2979C21.4036 39.0895 21.5892 38.9251 21.8105 38.8047C22.0319 38.681 22.2891 38.6191 22.582 38.6191C22.8229 38.6191 23.0361 38.6566 23.2217 38.7314C23.4072 38.8063 23.5635 38.9219 23.6904 39.0781C23.8206 39.2311 23.9183 39.4281 23.9834 39.6689C24.0485 39.9098 24.0811 40.1963 24.0811 40.5283V44H23.2168V40.5186C23.2168 40.2223 23.1794 39.9928 23.1045 39.8301C23.0329 39.6641 22.9303 39.5485 22.7969 39.4834C22.6634 39.415 22.5039 39.3809 22.3184 39.3809C22.1686 39.3809 22.0352 39.415 21.918 39.4834C21.804 39.5518 21.708 39.6462 21.6299 39.7666C21.5518 39.8838 21.4915 40.0189 21.4492 40.1719C21.4102 40.3249 21.3906 40.4876 21.3906 40.6602ZM27.2744 44.0977C26.9587 44.0977 26.6738 44.0505 26.4199 43.9561C26.166 43.8617 25.9495 43.7184 25.7705 43.5264C25.5915 43.3311 25.4548 43.0853 25.3604 42.7891C25.266 42.4928 25.2188 42.1429 25.2188 41.7393V41.1436C25.2188 40.6781 25.2725 40.2842 25.3799 39.9619C25.4906 39.6396 25.6387 39.3809 25.8242 39.1855C26.0098 38.987 26.2197 38.8437 26.4541 38.7559C26.6885 38.6647 26.9294 38.6191 27.1768 38.6191C27.5088 38.6191 27.792 38.6729 28.0264 38.7803C28.2607 38.8877 28.4512 39.0472 28.5977 39.2588C28.7441 39.4704 28.8516 39.7308 28.9199 40.04C28.9915 40.3493 29.0273 40.7057 29.0273 41.1094V41.6123H25.7266V40.875H28.1631V40.7529C28.1501 40.4795 28.1126 40.2386 28.0508 40.0303C27.9922 39.8219 27.8945 39.6592 27.7578 39.542C27.6211 39.4215 27.4274 39.3613 27.1768 39.3613C27.0173 39.3613 26.8691 39.389 26.7324 39.4443C26.599 39.4964 26.4834 39.5892 26.3857 39.7227C26.2913 39.8529 26.2165 40.0335 26.1611 40.2646C26.109 40.4958 26.083 40.7887 26.083 41.1436V41.7393C26.083 42.0225 26.109 42.2666 26.1611 42.4717C26.2165 42.6735 26.2962 42.8411 26.4004 42.9746C26.5078 43.1048 26.638 43.2025 26.791 43.2676C26.9473 43.3294 27.1247 43.3604 27.3232 43.3604C27.613 43.3604 27.8522 43.305 28.041 43.1943C28.2298 43.0804 28.3942 42.9355 28.5342 42.7598L28.9883 43.3018C28.8939 43.4352 28.7702 43.5638 28.6172 43.6875C28.4674 43.8079 28.2819 43.9072 28.0605 43.9854C27.8424 44.0602 27.5804 44.0977 27.2744 44.0977ZM30.9365 39.5469V44H30.0723V38.7168H30.9072L30.9365 39.5469ZM32.25 38.6875L32.2549 39.5273C32.1833 39.5111 32.1182 39.5013 32.0596 39.498C32.0042 39.4915 31.9391 39.4883 31.8643 39.4883C31.7015 39.4883 31.5583 39.5208 31.4346 39.5859C31.3141 39.651 31.21 39.7422 31.1221 39.8594C31.0342 39.9766 30.9642 40.1165 30.9121 40.2793C30.86 40.4388 30.8242 40.6146 30.8047 40.8066L30.5801 40.9531C30.5801 40.6341 30.6045 40.3346 30.6533 40.0547C30.7054 39.7747 30.7852 39.5273 30.8926 39.3125C31 39.0944 31.1367 38.9251 31.3027 38.8047C31.472 38.681 31.6738 38.6191 31.9082 38.6191C31.9603 38.6191 32.0238 38.6273 32.0986 38.6436C32.1768 38.6566 32.2272 38.6712 32.25 38.6875ZM37.3428 38.7168V39.4102H34.877V38.7168H37.3428ZM35.6826 37.4326H36.5469V42.6914C36.5469 42.8704 36.568 43.0055 36.6104 43.0967C36.6559 43.1878 36.7129 43.248 36.7812 43.2773C36.8496 43.3066 36.9229 43.3213 37.001 43.3213C37.0596 43.3213 37.1247 43.3148 37.1963 43.3018C37.2679 43.2855 37.3167 43.2725 37.3428 43.2627L37.3379 44C37.2793 44.0228 37.2012 44.0439 37.1035 44.0635C37.0059 44.0863 36.8822 44.0977 36.7324 44.0977C36.5469 44.0977 36.3743 44.0537 36.2148 43.9658C36.0553 43.8779 35.9268 43.7314 35.8291 43.5264C35.7314 43.318 35.6826 43.0381 35.6826 42.6865V37.4326ZM40.9609 43.0967V40.2305C40.9609 40.0221 40.9284 39.8545 40.8633 39.7275C40.8014 39.6006 40.707 39.5078 40.5801 39.4492C40.4564 39.3906 40.3001 39.3613 40.1113 39.3613C39.929 39.3613 39.7712 39.3988 39.6377 39.4736C39.5075 39.5485 39.4066 39.6478 39.335 39.7715C39.2666 39.8952 39.2324 40.0319 39.2324 40.1816H38.3682C38.3682 39.9928 38.4089 39.8057 38.4902 39.6201C38.5749 39.4346 38.6953 39.2669 38.8516 39.1172C39.0078 38.9642 39.195 38.8437 39.4131 38.7559C39.6344 38.6647 39.8818 38.6191 40.1553 38.6191C40.4808 38.6191 40.7689 38.6729 41.0195 38.7803C41.2702 38.8844 41.4671 39.0553 41.6104 39.293C41.7536 39.5306 41.8252 39.8464 41.8252 40.2402V42.8477C41.8252 43.0234 41.8382 43.2106 41.8643 43.4092C41.8936 43.6077 41.9342 43.7786 41.9863 43.9219V44H41.0928C41.0505 43.8958 41.0179 43.7575 40.9951 43.585C40.9723 43.4092 40.9609 43.2464 40.9609 43.0967ZM41.0977 40.7969L41.1074 41.4316H40.5068C40.3018 41.4316 40.1146 41.4544 39.9453 41.5C39.7793 41.5456 39.6361 41.6123 39.5156 41.7002C39.3952 41.7848 39.3024 41.8906 39.2373 42.0176C39.1755 42.1445 39.1445 42.2894 39.1445 42.4521C39.1445 42.6637 39.1738 42.833 39.2324 42.96C39.291 43.0837 39.3789 43.1732 39.4961 43.2285C39.6133 43.2839 39.7614 43.3115 39.9404 43.3115C40.1585 43.3115 40.3506 43.2611 40.5166 43.1602C40.6826 43.0592 40.8112 42.9372 40.9023 42.7939C40.9967 42.6507 41.0407 42.5173 41.0342 42.3936L41.2246 42.7988C41.2116 42.9258 41.1693 43.0641 41.0977 43.2139C41.0293 43.3604 40.9333 43.502 40.8096 43.6387C40.6859 43.7721 40.5394 43.8828 40.3701 43.9707C40.2041 44.0553 40.0169 44.0977 39.8086 44.0977C39.5026 44.0977 39.234 44.0391 39.0029 43.9219C38.7751 43.8047 38.5977 43.6322 38.4707 43.4043C38.3438 43.1764 38.2803 42.8949 38.2803 42.5596C38.2803 42.3057 38.3242 42.0713 38.4121 41.8564C38.5 41.6416 38.6302 41.4561 38.8027 41.2998C38.9753 41.1403 39.1917 41.0166 39.4521 40.9287C39.7158 40.8408 40.0202 40.7969 40.3652 40.7969H41.0977ZM43.168 36.5H44.0322V42.9746L43.959 44H43.168V36.5ZM46.9961 41.1191V41.6123C46.9961 42.029 46.957 42.3936 46.8789 42.7061C46.804 43.0153 46.6917 43.2741 46.542 43.4824C46.3923 43.6875 46.21 43.8421 45.9951 43.9463C45.7803 44.0472 45.5345 44.0977 45.2578 44.0977C44.9844 44.0977 44.7484 44.0423 44.5498 43.9316C44.3512 43.821 44.1852 43.6615 44.0518 43.4531C43.9183 43.2448 43.8125 42.9925 43.7344 42.6963C43.6595 42.4001 43.6074 42.0664 43.5781 41.6953V41.0361C43.6074 40.6618 43.6595 40.3265 43.7344 40.0303C43.8092 39.7308 43.9134 39.4769 44.0469 39.2686C44.1803 39.057 44.3464 38.8958 44.5449 38.7852C44.7435 38.6745 44.9795 38.6191 45.2529 38.6191C45.5329 38.6191 45.7803 38.668 45.9951 38.7656C46.2132 38.8633 46.3955 39.0146 46.542 39.2197C46.6917 39.4215 46.804 39.6803 46.8789 39.9961C46.957 40.3086 46.9961 40.6829 46.9961 41.1191ZM46.1318 41.6123V41.1191C46.1318 40.8262 46.1123 40.5706 46.0732 40.3525C46.0374 40.1344 45.9772 39.9538 45.8926 39.8105C45.8079 39.6673 45.694 39.5599 45.5508 39.4883C45.4108 39.4167 45.2367 39.3809 45.0283 39.3809C44.8525 39.3809 44.6979 39.4167 44.5645 39.4883C44.4342 39.5599 44.3219 39.6576 44.2275 39.7812C44.1331 39.9017 44.055 40.04 43.9932 40.1963C43.9313 40.3493 43.8857 40.5088 43.8564 40.6748V42.0615C43.8988 42.2731 43.9655 42.4766 44.0566 42.6719C44.151 42.8639 44.278 43.0218 44.4375 43.1455C44.597 43.2692 44.7956 43.3311 45.0332 43.3311C45.2318 43.3311 45.3994 43.2969 45.5361 43.2285C45.6761 43.1602 45.79 43.056 45.8779 42.916C45.9658 42.7728 46.0293 42.5937 46.0684 42.3789C46.1107 42.1608 46.1318 41.9053 46.1318 41.6123ZM49.0273 36.5V44H48.168V36.5H49.0273ZM51.3223 38.7168V44H50.4629V38.7168H51.3223ZM50.4141 37.3154C50.4141 37.1689 50.4548 37.0452 50.5361 36.9443C50.6175 36.8434 50.7396 36.793 50.9023 36.793C51.0651 36.793 51.1872 36.8434 51.2686 36.9443C51.3532 37.0452 51.3955 37.1689 51.3955 37.3154C51.3955 37.4554 51.3532 37.5758 51.2686 37.6768C51.1872 37.7744 51.0651 37.8232 50.9023 37.8232C50.7396 37.8232 50.6175 37.7744 50.5361 37.6768C50.4548 37.5758 50.4141 37.4554 50.4141 37.3154ZM54.5205 43.3604C54.693 43.3604 54.8493 43.3262 54.9893 43.2578C55.1325 43.1862 55.2497 43.0755 55.3408 42.9258C55.432 42.7728 55.484 42.5742 55.4971 42.3301H56.3076C56.2946 42.6816 56.2051 42.9909 56.0391 43.2578C55.8763 43.5215 55.6615 43.7282 55.3945 43.8779C55.1309 44.0244 54.8395 44.0977 54.5205 44.0977C54.1787 44.0977 53.8809 44.0423 53.627 43.9316C53.3763 43.821 53.168 43.6615 53.002 43.4531C52.8392 43.2415 52.7171 42.986 52.6357 42.6865C52.5544 42.3838 52.5137 42.0404 52.5137 41.6562V41.0605C52.5137 40.6764 52.5544 40.3346 52.6357 40.0352C52.7171 39.7324 52.8392 39.4769 53.002 39.2686C53.168 39.057 53.3763 38.8958 53.627 38.7852C53.8809 38.6745 54.1787 38.6191 54.5205 38.6191C54.8786 38.6191 55.1878 38.6956 55.4482 38.8486C55.7119 38.9984 55.917 39.2165 56.0635 39.5029C56.2132 39.7861 56.2946 40.1296 56.3076 40.5332H55.4971C55.484 40.2728 55.4368 40.0563 55.3555 39.8838C55.2741 39.708 55.1634 39.5778 55.0234 39.4932C54.8835 39.4053 54.7158 39.3613 54.5205 39.3613C54.2926 39.3613 54.1038 39.402 53.9541 39.4834C53.8076 39.5615 53.6921 39.6755 53.6074 39.8252C53.5228 39.9749 53.4626 40.154 53.4268 40.3623C53.3942 40.5706 53.3779 40.8034 53.3779 41.0605V41.6562C53.3779 41.9134 53.3942 42.1478 53.4268 42.3594C53.4626 42.5677 53.5212 42.7467 53.6025 42.8965C53.6872 43.0462 53.8044 43.1618 53.9541 43.2432C54.1038 43.3213 54.2926 43.3604 54.5205 43.3604ZM58.5342 43.4531L59.7109 38.7168H60.6289L58.8857 44.8154C58.8434 44.9456 58.7865 45.0856 58.7148 45.2354C58.6465 45.3883 58.5586 45.5332 58.4512 45.6699C58.3438 45.8066 58.2152 45.9173 58.0654 46.002C57.9157 46.0898 57.7399 46.1338 57.5381 46.1338C57.4762 46.1338 57.3965 46.124 57.2988 46.1045C57.2044 46.085 57.1361 46.0687 57.0938 46.0557V45.3232C57.1133 45.3265 57.1442 45.3298 57.1865 45.333C57.2288 45.3395 57.2598 45.3428 57.2793 45.3428C57.4486 45.3428 57.5918 45.3151 57.709 45.2598C57.8294 45.2077 57.932 45.1182 58.0166 44.9912C58.1012 44.8675 58.1729 44.6966 58.2314 44.4785L58.5342 43.4531ZM57.7725 38.7168L58.8223 42.8184L59.0469 43.7705L58.4316 44.1025L56.8301 38.7168H57.7725ZM8.73926 50.5469L8.73926 55H7.875L7.875 49.7168H8.70996L8.73926 50.5469ZM10.0527 49.6875L10.0576 50.5273C9.986 50.5111 9.9209 50.5013 9.8623 50.498C9.80697 50.4915 9.74186 50.4883 9.66699 50.4883C9.50423 50.4883 9.361 50.5208 9.2373 50.5859C9.11686 50.651 9.0127 50.7422 8.9248 50.8594C8.83691 50.9766 8.76693 51.1165 8.71484 51.2793C8.66276 51.4388 8.62695 51.6146 8.60742 51.8066L8.38281 51.9531C8.38281 51.6341 8.40723 51.3346 8.45605 51.0547C8.50814 50.7747 8.58789 50.5273 8.69531 50.3125C8.80273 50.0944 8.93945 49.9251 9.10547 49.8047C9.27474 49.681 9.47656 49.6191 9.71094 49.6191C9.76302 49.6191 9.8265 49.6273 9.90137 49.6436C9.97949 49.6566 10.0299 49.6712 10.0527 49.6875ZM12.7139 55.0977C12.3981 55.0977 12.1133 55.0505 11.8594 54.9561C11.6055 54.8617 11.389 54.7184 11.21 54.5264C11.0309 54.3311 10.8942 54.0853 10.7998 53.7891C10.7054 53.4928 10.6582 53.1429 10.6582 52.7393V52.1436C10.6582 51.6781 10.7119 51.2842 10.8193 50.9619C10.93 50.6396 11.0781 50.3809 11.2637 50.1855C11.4492 49.987 11.6592 49.8438 11.8936 49.7559C12.1279 49.6647 12.3688 49.6191 12.6162 49.6191C12.9482 49.6191 13.2314 49.6729 13.4658 49.7803C13.7002 49.8877 13.8906 50.0472 14.0371 50.2588C14.1836 50.4704 14.291 50.7308 14.3594 51.04C14.431 51.3493 14.4668 51.7057 14.4668 52.1094V52.6123H11.166V51.875H13.6025V51.7529C13.5895 51.4795 13.5521 51.2386 13.4902 51.0303C13.4316 50.8219 13.334 50.6592 13.1973 50.542C13.0605 50.4215 12.8669 50.3613 12.6162 50.3613C12.4567 50.3613 12.3086 50.389 12.1719 50.4443C12.0384 50.4964 11.9229 50.5892 11.8252 50.7227C11.7308 50.8529 11.6559 51.0335 11.6006 51.2646C11.5485 51.4958 11.5225 51.7887 11.5225 52.1436V52.7393C11.5225 53.0225 11.5485 53.2666 11.6006 53.4717C11.6559 53.6735 11.7357 53.8411 11.8398 53.9746C11.9473 54.1048 12.0775 54.2025 12.2305 54.2676C12.3867 54.3294 12.5641 54.3604 12.7627 54.3604C13.0524 54.3604 13.2917 54.305 13.4805 54.1943C13.6693 54.0804 13.8337 53.9355 13.9736 53.7598L14.4277 54.3018C14.3333 54.4352 14.2096 54.5638 14.0566 54.6875C13.9069 54.8079 13.7214 54.9072 13.5 54.9854C13.2819 55.0602 13.0199 55.0977 12.7139 55.0977ZM15.5313 49.7168H16.3906V55.6299C16.3906 55.9521 16.3483 56.2256 16.2637 56.4502C16.1823 56.6748 16.0553 56.8441 15.8828 56.958C15.7135 57.0752 15.4971 57.1338 15.2334 57.1338C15.1618 57.1338 15.0788 57.1257 14.9844 57.1094C14.8932 57.0931 14.8151 57.0736 14.75 57.0508V56.3232C14.8053 56.3363 14.8656 56.346 14.9307 56.3525C14.9958 56.3623 15.0495 56.3672 15.0918 56.3672C15.1862 56.3672 15.266 56.3428 15.3311 56.2939C15.3962 56.2451 15.445 56.167 15.4775 56.0596C15.5133 55.9521 15.5313 55.8089 15.5313 55.6299L15.5313 49.7168ZM15.4531 48.3154C15.4531 48.1689 15.4938 48.0452 15.5752 47.9443C15.6598 47.8434 15.7819 47.793 15.9414 47.793C16.1042 47.793 16.2262 47.8434 16.3076 47.9443C16.3923 48.0452 16.4346 48.1689 16.4346 48.3154C16.4346 48.4554 16.3923 48.5758 16.3076 48.6768C16.2262 48.7744 16.1042 48.8232 15.9414 48.8232C15.7819 48.8232 15.6598 48.7744 15.5752 48.6768C15.4938 48.5758 15.4531 48.4554 15.4531 48.3154ZM19.6475 55.0977C19.3317 55.0977 19.0469 55.0505 18.793 54.9561C18.5391 54.8617 18.3226 54.7184 18.1436 54.5264C17.9645 54.3311 17.8278 54.0853 17.7334 53.7891C17.639 53.4928 17.5918 53.1429 17.5918 52.7393V52.1436C17.5918 51.6781 17.6455 51.2842 17.7529 50.9619C17.8636 50.6396 18.0117 50.3809 18.1973 50.1855C18.3828 49.987 18.5928 49.8438 18.8271 49.7559C19.0615 49.6647 19.3024 49.6191 19.5498 49.6191C19.8818 49.6191 20.165 49.6729 20.3994 49.7803C20.6338 49.8877 20.8242 50.0472 20.9707 50.2588C21.1172 50.4704 21.2246 50.7308 21.293 51.04C21.3646 51.3493 21.4004 51.7057 21.4004 52.1094V52.6123H18.0996V51.875H20.5361V51.7529C20.5231 51.4795 20.4857 51.2386 20.4238 51.0303C20.3652 50.8219 20.2676 50.6592 20.1309 50.542C19.9941 50.4215 19.8005 50.3613 19.5498 50.3613C19.3903 50.3613 19.2422 50.389 19.1055 50.4443C18.972 50.4964 18.8564 50.5892 18.7588 50.7227C18.6644 50.8529 18.5895 51.0335 18.5342 51.2646C18.4821 51.4958 18.4561 51.7887 18.4561 52.1436V52.7393C18.4561 53.0225 18.4821 53.2666 18.5342 53.4717C18.5895 53.6735 18.6693 53.8411 18.7734 53.9746C18.8809 54.1048 19.0111 54.2025 19.1641 54.2676C19.3203 54.3294 19.4977 54.3604 19.6963 54.3604C19.986 54.3604 20.2253 54.305 20.4141 54.1943C20.6029 54.0804 20.7673 53.9355 20.9072 53.7598L21.3613 54.3018C21.2669 54.4352 21.1432 54.5638 20.9902 54.6875C20.8405 54.8079 20.6549 54.9072 20.4336 54.9854C20.2155 55.0602 19.9535 55.0977 19.6475 55.0977ZM25.0088 53.6475C25.0088 53.514 24.9762 53.3968 24.9111 53.2959C24.846 53.195 24.7386 53.0973 24.5889 53.0029C24.4424 52.9085 24.2438 52.8076 23.9932 52.7002C23.749 52.5993 23.5293 52.5 23.334 52.4023C23.1419 52.3014 22.9792 52.1924 22.8457 52.0752C22.7122 51.958 22.6097 51.8229 22.5381 51.6699C22.4697 51.5137 22.4355 51.3298 22.4355 51.1182C22.4355 50.9066 22.4746 50.7113 22.5527 50.5322C22.6341 50.3499 22.748 50.1904 22.8945 50.0537C23.041 49.917 23.2168 49.8112 23.4219 49.7363C23.627 49.6582 23.8564 49.6191 24.1104 49.6191C24.4717 49.6191 24.7793 49.6891 25.0332 49.8291C25.2871 49.9691 25.4808 50.1611 25.6143 50.4053C25.751 50.6462 25.8193 50.918 25.8193 51.2207H24.96C24.96 51.0742 24.9274 50.9359 24.8623 50.8057C24.7972 50.6755 24.7012 50.5697 24.5742 50.4883C24.4473 50.4036 24.2926 50.3613 24.1104 50.3613C23.9183 50.3613 23.762 50.3955 23.6416 50.4639C23.5212 50.5322 23.4333 50.6217 23.3779 50.7324C23.3258 50.8398 23.2998 50.9587 23.2998 51.0889C23.2998 51.1865 23.3128 51.2712 23.3389 51.3428C23.3682 51.4111 23.417 51.4762 23.4854 51.5381C23.5537 51.5967 23.6465 51.6585 23.7637 51.7236C23.8841 51.7855 24.0371 51.8571 24.2227 51.9385C24.5807 52.0785 24.8818 52.2201 25.126 52.3633C25.3701 52.5065 25.5557 52.6742 25.6826 52.8662C25.8096 53.0583 25.873 53.2959 25.873 53.5791C25.873 53.8102 25.8307 54.0202 25.7461 54.209C25.6647 54.3945 25.5475 54.554 25.3945 54.6875C25.2415 54.821 25.0576 54.9235 24.8428 54.9951C24.6312 55.0635 24.3936 55.0977 24.1299 55.0977C23.7327 55.0977 23.3958 55.0195 23.1191 54.8633C22.8457 54.7038 22.6374 54.4971 22.4941 54.2432C22.3542 53.986 22.2842 53.7109 22.2842 53.418H23.1484C23.1582 53.6654 23.2135 53.8574 23.3145 53.9941C23.4186 54.1309 23.5439 54.2253 23.6904 54.2773C23.8369 54.3294 23.9834 54.3555 24.1299 54.3555C24.3219 54.3555 24.4831 54.3278 24.6133 54.2725C24.7435 54.2139 24.8411 54.1309 24.9063 54.0234C24.9746 53.916 25.0088 53.7907 25.0088 53.6475ZM28.9346 49.7168V50.4102L26.4688 50.4102V49.7168L28.9346 49.7168ZM27.2744 48.4326L28.1387 48.4326V53.6914C28.1387 53.8704 28.1598 54.0055 28.2021 54.0967C28.2477 54.1878 28.3047 54.248 28.373 54.2773C28.4414 54.3066 28.5146 54.3213 28.5928 54.3213C28.6514 54.3213 28.7165 54.3148 28.7881 54.3018C28.8597 54.2855 28.9085 54.2725 28.9346 54.2627L28.9297 55C28.8711 55.0228 28.793 55.0439 28.6953 55.0635C28.5977 55.0863 28.474 55.0977 28.3242 55.0977C28.1387 55.0977 27.9661 55.0537 27.8066 54.9658C27.6471 54.8779 27.5186 54.7314 27.4209 54.5264C27.3232 54.318 27.2744 54.0381 27.2744 53.6865V48.4326ZM30.8291 50.5469V55H29.9648V49.7168H30.7998L30.8291 50.5469ZM32.1426 49.6875L32.1475 50.5273C32.0758 50.5111 32.0107 50.5013 31.9521 50.498C31.8968 50.4915 31.8317 50.4883 31.7568 50.4883C31.5941 50.4883 31.4508 50.5208 31.3271 50.5859C31.2067 50.651 31.1025 50.7422 31.0146 50.8594C30.9268 50.9766 30.8568 51.1165 30.8047 51.2793C30.7526 51.4388 30.7168 51.6146 30.6973 51.8066L30.4727 51.9531C30.4727 51.6341 30.4971 51.3346 30.5459 51.0547C30.598 50.7747 30.6777 50.5273 30.7852 50.3125C30.8926 50.0944 31.0293 49.9251 31.1953 49.8047C31.3646 49.681 31.5664 49.6191 31.8008 49.6191C31.8529 49.6191 31.9163 49.6273 31.9912 49.6436C32.0693 49.6566 32.1198 49.6712 32.1426 49.6875ZM35.4043 54.0967V51.2305C35.4043 51.0221 35.3717 50.8545 35.3066 50.7275C35.2448 50.6006 35.1504 50.5078 35.0234 50.4492C34.8997 50.3906 34.7435 50.3613 34.5547 50.3613C34.3724 50.3613 34.2145 50.3988 34.0811 50.4736C33.9508 50.5485 33.8499 50.6478 33.7783 50.7715C33.71 50.8952 33.6758 51.0319 33.6758 51.1816L32.8115 51.1816C32.8115 50.9928 32.8522 50.8057 32.9336 50.6201C33.0182 50.4346 33.1387 50.2669 33.2949 50.1172C33.4512 49.9642 33.6383 49.8437 33.8564 49.7559C34.0778 49.6647 34.3252 49.6191 34.5986 49.6191C34.9242 49.6191 35.2122 49.6729 35.4629 49.7803C35.7135 49.8844 35.9105 50.0553 36.0537 50.293C36.1969 50.5306 36.2686 50.8464 36.2686 51.2402V53.8477C36.2686 54.0234 36.2816 54.2106 36.3076 54.4092C36.3369 54.6077 36.3776 54.7786 36.4297 54.9219V55H35.5361C35.4938 54.8958 35.4613 54.7575 35.4385 54.585C35.4157 54.4092 35.4043 54.2464 35.4043 54.0967ZM35.541 51.7969L35.5508 52.4316H34.9502C34.7451 52.4316 34.5579 52.4544 34.3887 52.5C34.2227 52.5456 34.0794 52.6123 33.959 52.7002C33.8385 52.7848 33.7458 52.8906 33.6807 53.0176C33.6188 53.1445 33.5879 53.2894 33.5879 53.4521C33.5879 53.6637 33.6172 53.833 33.6758 53.96C33.7344 54.0837 33.8223 54.1732 33.9395 54.2285C34.0566 54.2839 34.2048 54.3115 34.3838 54.3115C34.6019 54.3115 34.7939 54.2611 34.96 54.1602C35.126 54.0592 35.2546 53.9372 35.3457 53.7939C35.4401 53.6507 35.484 53.5173 35.4775 53.3936L35.668 53.7988C35.6549 53.9258 35.6126 54.0641 35.541 54.2139C35.4727 54.3604 35.3766 54.502 35.2529 54.6387C35.1292 54.7721 34.9827 54.8828 34.8135 54.9707C34.6475 55.0553 34.4603 55.0977 34.252 55.0977C33.946 55.0977 33.6774 55.0391 33.4463 54.9219C33.2184 54.8047 33.041 54.6322 32.9141 54.4043C32.7871 54.1764 32.7236 53.8949 32.7236 53.5596C32.7236 53.3057 32.7676 53.0713 32.8555 52.8564C32.9434 52.6416 33.0736 52.4561 33.2461 52.2998C33.4186 52.1403 33.6351 52.0166 33.8955 51.9287C34.1592 51.8408 34.4635 51.7969 34.8086 51.7969H35.541ZM39.4424 54.3604C39.6149 54.3604 39.7712 54.3262 39.9111 54.2578C40.0544 54.1862 40.1715 54.0755 40.2627 53.9258C40.3538 53.7728 40.4059 53.5742 40.4189 53.3301H41.2295C41.2165 53.6816 41.127 53.9909 40.9609 54.2578C40.7982 54.5215 40.5833 54.7282 40.3164 54.8779C40.0527 55.0244 39.7614 55.0977 39.4424 55.0977C39.1006 55.0977 38.8027 55.0423 38.5488 54.9316C38.2982 54.821 38.0898 54.6615 37.9238 54.4531C37.7611 54.2415 37.639 53.986 37.5576 53.6865C37.4762 53.3838 37.4355 53.0404 37.4355 52.6562V52.0605C37.4355 51.6764 37.4762 51.3346 37.5576 51.0352C37.639 50.7324 37.7611 50.4769 37.9238 50.2686C38.0898 50.057 38.2982 49.8958 38.5488 49.7852C38.8027 49.6745 39.1006 49.6191 39.4424 49.6191C39.8005 49.6191 40.1097 49.6956 40.3701 49.8486C40.6338 49.9984 40.8389 50.2165 40.9854 50.5029C41.1351 50.7861 41.2165 51.1296 41.2295 51.5332H40.4189C40.4059 51.2728 40.3587 51.0563 40.2773 50.8838C40.196 50.708 40.0853 50.5778 39.9453 50.4932C39.8053 50.4053 39.6377 50.3613 39.4424 50.3613C39.2145 50.3613 39.0257 50.402 38.876 50.4834C38.7295 50.5615 38.6139 50.6755 38.5293 50.8252C38.4447 50.9749 38.3844 51.154 38.3486 51.3623C38.3161 51.5706 38.2998 51.8034 38.2998 52.0605V52.6562C38.2998 52.9134 38.3161 53.1478 38.3486 53.3594C38.3844 53.5677 38.443 53.7467 38.5244 53.8965C38.609 54.0462 38.7262 54.1618 38.876 54.2432C39.0257 54.3213 39.2145 54.3604 39.4424 54.3604ZM43.4561 54.4531L44.6328 49.7168H45.5508L43.8076 55.8154C43.7653 55.9456 43.7083 56.0856 43.6367 56.2354C43.5684 56.3883 43.4805 56.5332 43.373 56.6699C43.2656 56.8066 43.137 56.9173 42.9873 57.002C42.8376 57.0898 42.6618 57.1338 42.46 57.1338C42.3981 57.1338 42.3184 57.124 42.2207 57.1045C42.1263 57.085 42.0579 57.0687 42.0156 57.0557V56.3232C42.0352 56.3265 42.0661 56.3298 42.1084 56.333C42.1507 56.3395 42.1816 56.3428 42.2012 56.3428C42.3704 56.3428 42.5137 56.3151 42.6309 56.2598C42.7513 56.2077 42.8538 56.1182 42.9385 55.9912C43.0231 55.8675 43.0947 55.6966 43.1533 55.4785L43.4561 54.4531ZM42.6943 49.7168L43.7441 53.8184L43.9688 54.7705L43.3535 55.1025L41.752 49.7168H42.6943ZM46.4199 49.7168H47.2793V55.6299C47.2793 55.9521 47.237 56.2256 47.1523 56.4502C47.071 56.6748 46.944 56.8441 46.7715 56.958C46.6022 57.0752 46.3857 57.1338 46.1221 57.1338C46.0505 57.1338 45.9674 57.1257 45.873 57.1094C45.7819 57.0931 45.7038 57.0736 45.6387 57.0508V56.3232C45.694 56.3363 45.7542 56.346 45.8193 56.3525C45.8844 56.3623 45.9382 56.3672 45.9805 56.3672C46.0749 56.3672 46.1546 56.3428 46.2197 56.2939C46.2848 56.2451 46.3337 56.167 46.3662 56.0596C46.402 55.9521 46.4199 55.8089 46.4199 55.6299V49.7168ZM46.3418 48.3154C46.3418 48.1689 46.3825 48.0452 46.4639 47.9443C46.5485 47.8434 46.6706 47.793 46.8301 47.793C46.9928 47.793 47.1149 47.8434 47.1963 47.9443C47.2809 48.0452 47.3232 48.1689 47.3232 48.3154C47.3232 48.4554 47.2809 48.5758 47.1963 48.6768C47.1149 48.7744 46.9928 48.8232 46.8301 48.8232C46.6706 48.8232 46.5485 48.7744 46.4639 48.6768C46.3825 48.5758 46.3418 48.4554 46.3418 48.3154ZM49.5107 50.8447V55H48.6465V49.7168H49.4619L49.5107 50.8447ZM49.3008 52.1582L48.9492 52.1436C48.946 51.7822 48.9867 51.4486 49.0713 51.1426C49.1592 50.8333 49.2829 50.5648 49.4424 50.3369C49.6051 50.109 49.7988 49.9333 50.0234 49.8096C50.248 49.6826 50.4971 49.6191 50.7705 49.6191C50.9854 49.6191 51.1807 49.6549 51.3564 49.7266C51.5322 49.7949 51.682 49.9056 51.8057 50.0586C51.9294 50.2116 52.0238 50.4102 52.0889 50.6543C52.1572 50.8952 52.1914 51.1898 52.1914 51.5381V55H51.3271V51.5283C51.3271 51.2516 51.2962 51.0303 51.2344 50.8643C51.1758 50.695 51.0846 50.5729 50.9609 50.498C50.8405 50.4199 50.6875 50.3809 50.502 50.3809C50.3327 50.3809 50.1748 50.4281 50.0283 50.5225C49.8818 50.6169 49.7533 50.7471 49.6426 50.9131C49.5352 51.0791 49.4505 51.2695 49.3887 51.4844C49.3301 51.696 49.3008 51.9206 49.3008 52.1582ZM55.3799 55.0977C55.0641 55.0977 54.7793 55.0505 54.5254 54.9561C54.2715 54.8617 54.055 54.7184 53.876 54.5264C53.6969 54.3311 53.5602 54.0853 53.4658 53.7891C53.3714 53.4928 53.3242 53.1429 53.3242 52.7393V52.1436C53.3242 51.6781 53.3779 51.2842 53.4854 50.9619C53.596 50.6396 53.7441 50.3809 53.9297 50.1855C54.1152 49.987 54.3252 49.8437 54.5596 49.7559C54.7939 49.6647 55.0348 49.6191 55.2822 49.6191C55.6143 49.6191 55.8975 49.6729 56.1318 49.7803C56.3662 49.8877 56.5566 50.0472 56.7031 50.2588C56.8496 50.4704 56.957 50.7308 57.0254 51.04C57.097 51.3493 57.1328 51.7057 57.1328 52.1094V52.6123L53.832 52.6123V51.875L56.2686 51.875V51.7529C56.2555 51.4795 56.2181 51.2386 56.1562 51.0303C56.0977 50.8219 56 50.6592 55.8633 50.542C55.7266 50.4215 55.5329 50.3613 55.2822 50.3613C55.1227 50.3613 54.9746 50.389 54.8379 50.4443C54.7044 50.4964 54.5889 50.5892 54.4912 50.7227C54.3968 50.8529 54.3219 51.0335 54.2666 51.2646C54.2145 51.4958 54.1885 51.7887 54.1885 52.1436V52.7393C54.1885 53.0225 54.2145 53.2666 54.2666 53.4717C54.3219 53.6735 54.4017 53.8411 54.5059 53.9746C54.6133 54.1048 54.7435 54.2025 54.8965 54.2676C55.0527 54.3294 55.2301 54.3604 55.4287 54.3604C55.7184 54.3604 55.9577 54.305 56.1465 54.1943C56.3353 54.0804 56.4997 53.9355 56.6396 53.7598L57.0938 54.3018C56.9993 54.4352 56.8757 54.5638 56.7227 54.6875C56.5729 54.8079 56.3874 54.9072 56.166 54.9854C55.9479 55.0602 55.6859 55.0977 55.3799 55.0977ZM58.1973 49.7168H59.0566V55.6299C59.0566 55.9521 59.0143 56.2256 58.9297 56.4502C58.8483 56.6748 58.7214 56.8441 58.5488 56.958C58.3796 57.0752 58.1631 57.1338 57.8994 57.1338C57.8278 57.1338 57.7448 57.1257 57.6504 57.1094C57.5592 57.0931 57.4811 57.0736 57.416 57.0508V56.3232C57.4714 56.3363 57.5316 56.346 57.5967 56.3525C57.6618 56.3623 57.7155 56.3672 57.7578 56.3672C57.8522 56.3672 57.932 56.3428 57.9971 56.2939C58.0622 56.2451 58.111 56.167 58.1436 56.0596C58.1794 55.9521 58.1973 55.8089 58.1973 55.6299V49.7168ZM58.1191 48.3154C58.1191 48.1689 58.1598 48.0452 58.2412 47.9443C58.3258 47.8434 58.4479 47.793 58.6074 47.793C58.7702 47.793 58.8923 47.8434 58.9736 47.9443C59.0583 48.0452 59.1006 48.1689 59.1006 48.3154C59.1006 48.4554 59.0583 48.5758 58.9736 48.6768C58.8923 48.7744 58.7702 48.8232 58.6074 48.8232C58.4479 48.8232 58.3258 48.7744 58.2412 48.6768C58.1598 48.5758 58.1191 48.4554 58.1191 48.3154Z" fill="url(#paint0_linear_363_3110)"/>
<path d="M103.928 40.8906H105.915C106.377 40.8906 106.765 40.972 107.077 41.1348C107.393 41.2975 107.631 41.5384 107.79 41.8574C107.953 42.1732 108.034 42.5622 108.034 43.0244C108.034 43.3499 107.98 43.6478 107.873 43.918C107.766 44.1849 107.609 44.4128 107.404 44.6016C107.199 44.7871 106.95 44.9255 106.657 45.0166L106.413 45.1191H104.641L104.631 44.3525H105.905C106.179 44.3525 106.407 44.2939 106.589 44.1768C106.771 44.0563 106.908 43.8952 106.999 43.6934C107.09 43.4915 107.136 43.2686 107.136 43.0244C107.136 42.751 107.095 42.5117 107.014 42.3066C106.932 42.1016 106.802 41.9437 106.623 41.833C106.447 41.7191 106.211 41.6621 105.915 41.6621H104.826V48H103.928V40.8906ZM107.341 48L105.925 44.7773L106.857 44.7725L108.303 47.9414V48H107.341ZM108.938 45.6123V45.1094C108.938 44.6992 108.99 44.3395 109.094 44.0303C109.198 43.7178 109.343 43.4574 109.528 43.249C109.714 43.0407 109.93 42.8844 110.178 42.7803C110.425 42.6729 110.69 42.6191 110.974 42.6191C111.263 42.6191 111.532 42.6729 111.779 42.7803C112.027 42.8844 112.243 43.0407 112.429 43.249C112.618 43.4574 112.764 43.7178 112.868 44.0303C112.972 44.3395 113.024 44.6992 113.024 45.1094V45.6123C113.024 46.0225 112.972 46.3838 112.868 46.6963C112.764 47.0055 112.619 47.2643 112.434 47.4727C112.248 47.681 112.032 47.8372 111.784 47.9414C111.537 48.0456 111.27 48.0977 110.983 48.0977C110.697 48.0977 110.43 48.0456 110.183 47.9414C109.935 47.8372 109.717 47.681 109.528 47.4727C109.343 47.2643 109.198 47.0055 109.094 46.6963C108.99 46.3838 108.938 46.0225 108.938 45.6123ZM109.802 45.1094V45.6123C109.802 45.902 109.831 46.1559 109.89 46.374C109.948 46.5921 110.031 46.7744 110.139 46.9209C110.246 47.0674 110.371 47.1781 110.515 47.2529C110.658 47.3245 110.814 47.3604 110.983 47.3604C111.179 47.3604 111.35 47.3245 111.496 47.2529C111.646 47.1781 111.77 47.0674 111.867 46.9209C111.965 46.7744 112.038 46.5921 112.087 46.374C112.136 46.1559 112.16 45.902 112.16 45.6123V45.1094C112.16 44.8197 112.131 44.5674 112.072 44.3525C112.014 44.1344 111.931 43.9521 111.823 43.8057C111.716 43.6559 111.589 43.5452 111.442 43.4736C111.299 43.3988 111.143 43.3613 110.974 43.3613C110.808 43.3613 110.653 43.3988 110.51 43.4736C110.367 43.5452 110.241 43.6559 110.134 43.8057C110.03 43.9521 109.948 44.1344 109.89 44.3525C109.831 44.5674 109.802 44.8197 109.802 45.1094ZM117.404 47.2578V48H114.206V47.2578H117.404ZM117.307 43.3564L114.401 48H113.874V47.3359L116.76 42.7168H117.307V43.3564ZM116.931 42.7168V43.4639H113.889V42.7168H116.931ZM119.382 40.5V48H118.522V40.5H119.382ZM121.677 42.7168V48H120.817V42.7168H121.677ZM120.769 41.3154C120.769 41.1689 120.809 41.0452 120.891 40.9443C120.972 40.8434 121.094 40.793 121.257 40.793C121.42 40.793 121.542 40.8434 121.623 40.9443C121.708 41.0452 121.75 41.1689 121.75 41.3154C121.75 41.4554 121.708 41.5758 121.623 41.6768C121.542 41.7744 121.42 41.8232 121.257 41.8232C121.094 41.8232 120.972 41.7744 120.891 41.6768C120.809 41.5758 120.769 41.4554 120.769 41.3154ZM124.875 47.3604C125.048 47.3604 125.204 47.3262 125.344 47.2578C125.487 47.1862 125.604 47.0755 125.695 46.9258C125.786 46.7728 125.839 46.5742 125.852 46.3301H126.662C126.649 46.6816 126.56 46.9909 126.394 47.2578C126.231 47.5215 126.016 47.7282 125.749 47.8779C125.485 48.0244 125.194 48.0977 124.875 48.0977C124.533 48.0977 124.235 48.0423 123.981 47.9316C123.731 47.821 123.522 47.6615 123.356 47.4531C123.194 47.2415 123.072 46.986 122.99 46.6865C122.909 46.3838 122.868 46.0404 122.868 45.6562V45.0605C122.868 44.6764 122.909 44.3346 122.99 44.0352C123.072 43.7324 123.194 43.4769 123.356 43.2686C123.522 43.057 123.731 42.8958 123.981 42.7852C124.235 42.6745 124.533 42.6191 124.875 42.6191C125.233 42.6191 125.542 42.6956 125.803 42.8486C126.066 42.9984 126.271 43.2165 126.418 43.5029C126.568 43.7861 126.649 44.1296 126.662 44.5332H125.852C125.839 44.2728 125.791 44.0563 125.71 43.8838C125.629 43.708 125.518 43.5778 125.378 43.4932C125.238 43.4053 125.07 43.3613 124.875 43.3613C124.647 43.3613 124.458 43.402 124.309 43.4834C124.162 43.5615 124.047 43.6755 123.962 43.8252C123.877 43.9749 123.817 44.154 123.781 44.3623C123.749 44.5706 123.732 44.8034 123.732 45.0605V45.6562C123.732 45.9134 123.749 46.1478 123.781 46.3594C123.817 46.5677 123.876 46.7467 123.957 46.8965C124.042 47.0462 124.159 47.1618 124.309 47.2432C124.458 47.3213 124.647 47.3604 124.875 47.3604ZM131.008 47.2578V48L127.81 48V47.2578L131.008 47.2578ZM130.91 43.3564L128.005 48H127.478V47.3359L130.363 42.7168H130.91V43.3564ZM130.534 42.7168V43.4639H127.492V42.7168L130.534 42.7168ZM133.869 48.0977C133.553 48.0977 133.269 48.0505 133.015 47.9561C132.761 47.8617 132.544 47.7184 132.365 47.5264C132.186 47.3311 132.049 47.0853 131.955 46.7891C131.861 46.4928 131.813 46.1429 131.813 45.7393V45.1436C131.813 44.6781 131.867 44.2842 131.975 43.9619C132.085 43.6396 132.233 43.3809 132.419 43.1855C132.604 42.987 132.814 42.8437 133.049 42.7559C133.283 42.6647 133.524 42.6191 133.771 42.6191C134.104 42.6191 134.387 42.6729 134.621 42.7803C134.855 42.8877 135.046 43.0472 135.192 43.2588C135.339 43.4704 135.446 43.7308 135.515 44.04C135.586 44.3493 135.622 44.7057 135.622 45.1094V45.6123H132.321V44.875H134.758V44.7529C134.745 44.4795 134.707 44.2386 134.646 44.0303C134.587 43.8219 134.489 43.6592 134.353 43.542C134.216 43.4215 134.022 43.3613 133.771 43.3613C133.612 43.3613 133.464 43.389 133.327 43.4443C133.194 43.4964 133.078 43.5892 132.98 43.7227C132.886 43.8529 132.811 44.0335 132.756 44.2646C132.704 44.4958 132.678 44.7887 132.678 45.1436V45.7393C132.678 46.0225 132.704 46.2666 132.756 46.4717C132.811 46.6735 132.891 46.8411 132.995 46.9746C133.103 47.1048 133.233 47.2025 133.386 47.2676C133.542 47.3294 133.719 47.3604 133.918 47.3604C134.208 47.3604 134.447 47.305 134.636 47.1943C134.825 47.0804 134.989 46.9355 135.129 46.7598L135.583 47.3018C135.489 47.4352 135.365 47.5638 135.212 47.6875C135.062 47.8079 134.877 47.9072 134.655 47.9854C134.437 48.0602 134.175 48.0977 133.869 48.0977ZM137.531 43.8447V48H136.667V42.7168H137.482L137.531 43.8447ZM137.321 45.1582L136.97 45.1436C136.966 44.7822 137.007 44.4486 137.092 44.1426C137.18 43.8333 137.303 43.5648 137.463 43.3369C137.626 43.109 137.819 42.9333 138.044 42.8096C138.269 42.6826 138.518 42.6191 138.791 42.6191C139.006 42.6191 139.201 42.6549 139.377 42.7266C139.553 42.7949 139.702 42.9056 139.826 43.0586C139.95 43.2116 140.044 43.4102 140.109 43.6543C140.178 43.8952 140.212 44.1898 140.212 44.5381V48H139.348V44.5283C139.348 44.2516 139.317 44.0303 139.255 43.8643C139.196 43.695 139.105 43.5729 138.981 43.498C138.861 43.4199 138.708 43.3809 138.522 43.3809C138.353 43.3809 138.195 43.4281 138.049 43.5225C137.902 43.6169 137.774 43.7471 137.663 43.9131C137.556 44.0791 137.471 44.2695 137.409 44.4844C137.351 44.696 137.321 44.9206 137.321 45.1582ZM142.438 42.7168V48H141.579V42.7168H142.438ZM141.53 41.3154C141.53 41.1689 141.571 41.0452 141.652 40.9443C141.734 40.8434 141.856 40.793 142.019 40.793C142.181 40.793 142.303 40.8434 142.385 40.9443C142.469 41.0452 142.512 41.1689 142.512 41.3154C142.512 41.4554 142.469 41.5758 142.385 41.6768C142.303 41.7744 142.181 41.8232 142.019 41.8232C141.856 41.8232 141.734 41.7744 141.652 41.6768C141.571 41.5758 141.53 41.4554 141.53 41.3154ZM145.695 48.0977C145.38 48.0977 145.095 48.0505 144.841 47.9561C144.587 47.8617 144.37 47.7184 144.191 47.5264C144.012 47.3311 143.876 47.0853 143.781 46.7891C143.687 46.4928 143.64 46.1429 143.64 45.7393V45.1436C143.64 44.6781 143.693 44.2842 143.801 43.9619C143.911 43.6396 144.06 43.3809 144.245 43.1855C144.431 42.987 144.641 42.8437 144.875 42.7559C145.109 42.6647 145.35 42.6191 145.598 42.6191C145.93 42.6191 146.213 42.6729 146.447 42.7803C146.682 42.8877 146.872 43.0472 147.019 43.2588C147.165 43.4704 147.272 43.7308 147.341 44.04C147.412 44.3493 147.448 44.7057 147.448 45.1094V45.6123H144.147V44.875H146.584V44.7529C146.571 44.4795 146.534 44.2386 146.472 44.0303C146.413 43.8219 146.315 43.6592 146.179 43.542C146.042 43.4215 145.848 43.3613 145.598 43.3613C145.438 43.3613 145.29 43.389 145.153 43.4443C145.02 43.4964 144.904 43.5892 144.807 43.7227C144.712 43.8529 144.637 44.0335 144.582 44.2646C144.53 44.4958 144.504 44.7887 144.504 45.1436V45.7393C144.504 46.0225 144.53 46.2666 144.582 46.4717C144.637 46.6735 144.717 46.8411 144.821 46.9746C144.929 47.1048 145.059 47.2025 145.212 47.2676C145.368 47.3294 145.546 47.3604 145.744 47.3604C146.034 47.3604 146.273 47.305 146.462 47.1943C146.651 47.0804 146.815 46.9355 146.955 46.7598L147.409 47.3018C147.315 47.4352 147.191 47.5638 147.038 47.6875C146.888 47.8079 146.703 47.9072 146.481 47.9854C146.263 48.0602 146.001 48.0977 145.695 48.0977Z" fill="#E0E0E9"/>
<path d="M192.907 41.8516L194.045 36.8906H194.685L194.348 38.8193L193.112 44H192.473L192.907 41.8516ZM191.784 36.8906L192.673 41.7539L192.937 44H192.307L190.891 36.8906H191.784ZM196.135 41.749L197.004 36.8906H197.897L196.486 44H195.856L196.135 41.749ZM194.787 36.8906L195.891 41.8516L196.315 44H195.676L194.494 38.8193L194.157 36.8906H194.787ZM200.544 44.0977C200.228 44.0977 199.943 44.0505 199.689 43.9561C199.436 43.8617 199.219 43.7184 199.04 43.5264C198.861 43.3311 198.724 43.0853 198.63 42.7891C198.535 42.4928 198.488 42.1429 198.488 41.7393V41.1436C198.488 40.6781 198.542 40.2842 198.649 39.9619C198.76 39.6396 198.908 39.3809 199.094 39.1855C199.279 38.987 199.489 38.8438 199.724 38.7559C199.958 38.6647 200.199 38.6191 200.446 38.6191C200.778 38.6191 201.062 38.6729 201.296 38.7803C201.53 38.8877 201.721 39.0472 201.867 39.2588C202.014 39.4704 202.121 39.7308 202.189 40.04C202.261 40.3493 202.297 40.7057 202.297 41.1094V41.6123H198.996V40.875H201.433V40.7529C201.42 40.4795 201.382 40.2386 201.32 40.0303C201.262 39.8219 201.164 39.6592 201.027 39.542C200.891 39.4215 200.697 39.3613 200.446 39.3613C200.287 39.3613 200.139 39.389 200.002 39.4443C199.868 39.4964 199.753 39.5892 199.655 39.7227C199.561 39.8529 199.486 40.0335 199.431 40.2646C199.379 40.4958 199.353 40.7887 199.353 41.1436V41.7393C199.353 42.0225 199.379 42.2666 199.431 42.4717C199.486 42.6735 199.566 42.8411 199.67 42.9746C199.777 43.1048 199.908 43.2025 200.061 43.2676C200.217 43.3294 200.394 43.3604 200.593 43.3604C200.882 43.3604 201.122 43.305 201.311 43.1943C201.499 43.0804 201.664 42.9355 201.804 42.7598L202.258 43.3018C202.163 43.4352 202.04 43.5638 201.887 43.6875C201.737 43.8079 201.551 43.9072 201.33 43.9854C201.112 44.0602 200.85 44.0977 200.544 44.0977ZM204.206 39.5469V44H203.342V38.7168H204.177L204.206 39.5469ZM205.52 38.6875L205.524 39.5273C205.453 39.5111 205.388 39.5013 205.329 39.498C205.274 39.4915 205.209 39.4883 205.134 39.4883C204.971 39.4883 204.828 39.5208 204.704 39.5859C204.584 39.651 204.479 39.7422 204.392 39.8594C204.304 39.9766 204.234 40.1165 204.182 40.2793C204.13 40.4388 204.094 40.6146 204.074 40.8066L203.85 40.9531C203.85 40.6341 203.874 40.3346 203.923 40.0547C203.975 39.7747 204.055 39.5273 204.162 39.3125C204.27 39.0944 204.406 38.9251 204.572 38.8047C204.742 38.681 204.943 38.6191 205.178 38.6191C205.23 38.6191 205.293 38.6273 205.368 38.6436C205.446 38.6566 205.497 38.6712 205.52 38.6875ZM207.702 43.4531L208.879 38.7168H209.797L208.054 44.8154C208.011 44.9456 207.954 45.0856 207.883 45.2354C207.814 45.3883 207.727 45.5332 207.619 45.6699C207.512 45.8066 207.383 45.9173 207.233 46.002C207.084 46.0898 206.908 46.1338 206.706 46.1338C206.644 46.1338 206.564 46.124 206.467 46.1045C206.372 46.085 206.304 46.0687 206.262 46.0557V45.3232C206.281 45.3265 206.312 45.3298 206.354 45.333C206.397 45.3395 206.428 45.3428 206.447 45.3428C206.617 45.3428 206.76 45.3151 206.877 45.2598C206.997 45.2077 207.1 45.1182 207.185 44.9912C207.269 44.8675 207.341 44.6966 207.399 44.4785L207.702 43.4531ZM206.94 38.7168L207.99 42.8184L208.215 43.7705L207.6 44.1025L205.998 38.7168H206.94ZM211.75 44H210.886V38.2578C210.886 37.8574 210.952 37.5189 211.086 37.2422C211.223 36.9655 211.416 36.7555 211.667 36.6123C211.921 36.4691 212.22 36.3975 212.565 36.3975C212.771 36.3975 212.967 36.4268 213.156 36.4854C213.345 36.5407 213.54 36.6107 213.742 36.6953L213.596 37.457C213.479 37.3984 213.335 37.3431 213.166 37.291C212.997 37.2357 212.819 37.208 212.634 37.208C212.308 37.208 212.079 37.2959 211.945 37.4717C211.815 37.6442 211.75 37.9062 211.75 38.2578V44ZM212.604 38.7168V39.4102H210.197V38.7168H212.604ZM214.157 38.7168V44H213.293V38.7168L214.157 38.7168ZM216.418 36.5V44H215.554V36.5H216.418ZM219.099 38.7168L217.219 41.1826L216.057 42.5205L215.998 41.5586L216.799 40.4551L218.059 38.7168H219.099ZM218.308 44L216.823 41.4805L217.268 40.6748L219.313 44H218.308ZM222.648 43.0967V40.2305C222.648 40.0221 222.616 39.8545 222.551 39.7275C222.489 39.6006 222.395 39.5078 222.268 39.4492C222.144 39.3906 221.988 39.3613 221.799 39.3613C221.617 39.3613 221.459 39.3988 221.325 39.4736C221.195 39.5485 221.094 39.6478 221.022 39.7715C220.954 39.8952 220.92 40.0319 220.92 40.1816H220.056C220.056 39.9928 220.096 39.8057 220.178 39.6201C220.262 39.4346 220.383 39.2669 220.539 39.1172C220.695 38.9642 220.882 38.8437 221.101 38.7559C221.322 38.6647 221.569 38.6191 221.843 38.6191C222.168 38.6191 222.456 38.6729 222.707 38.7803C222.958 38.8844 223.155 39.0553 223.298 39.293C223.441 39.5306 223.513 39.8464 223.513 40.2402V42.8477C223.513 43.0234 223.526 43.2106 223.552 43.4092C223.581 43.6077 223.622 43.7786 223.674 43.9219V44H222.78C222.738 43.8958 222.705 43.7575 222.683 43.585C222.66 43.4092 222.648 43.2464 222.648 43.0967ZM222.785 40.7969L222.795 41.4316H222.194C221.989 41.4316 221.802 41.4544 221.633 41.5C221.467 41.5456 221.324 41.6123 221.203 41.7002C221.083 41.7848 220.99 41.8906 220.925 42.0176C220.863 42.1445 220.832 42.2894 220.832 42.4521C220.832 42.6637 220.861 42.833 220.92 42.96C220.979 43.0837 221.066 43.1732 221.184 43.2285C221.301 43.2839 221.449 43.3115 221.628 43.3115C221.846 43.3115 222.038 43.2611 222.204 43.1602C222.37 43.0592 222.499 42.9372 222.59 42.7939C222.684 42.6507 222.728 42.5173 222.722 42.3936L222.912 42.7988C222.899 42.9258 222.857 43.0641 222.785 43.2139C222.717 43.3604 222.621 43.502 222.497 43.6387C222.373 43.7721 222.227 43.8828 222.058 43.9707C221.892 44.0553 221.704 44.0977 221.496 44.0977C221.19 44.0977 220.922 44.0391 220.69 43.9219C220.463 43.8047 220.285 43.6322 220.158 43.4043C220.031 43.1764 219.968 42.8949 219.968 42.5596C219.968 42.3057 220.012 42.0713 220.1 41.8564C220.188 41.6416 220.318 41.4561 220.49 41.2998C220.663 41.1403 220.879 41.0166 221.14 40.9287C221.403 40.8408 221.708 40.7969 222.053 40.7969H222.785ZM226.687 43.3604C226.859 43.3604 227.015 43.3262 227.155 43.2578C227.299 43.1862 227.416 43.0755 227.507 42.9258C227.598 42.7728 227.65 42.5742 227.663 42.3301H228.474C228.461 42.6816 228.371 42.9909 228.205 43.2578C228.042 43.5215 227.827 43.7282 227.561 43.8779C227.297 44.0244 227.006 44.0977 226.687 44.0977C226.345 44.0977 226.047 44.0423 225.793 43.9316C225.542 43.821 225.334 43.6615 225.168 43.4531C225.005 43.2415 224.883 42.986 224.802 42.6865C224.72 42.3838 224.68 42.0404 224.68 41.6562V41.0605C224.68 40.6764 224.72 40.3346 224.802 40.0352C224.883 39.7324 225.005 39.4769 225.168 39.2686C225.334 39.057 225.542 38.8958 225.793 38.7852C226.047 38.6745 226.345 38.6191 226.687 38.6191C227.045 38.6191 227.354 38.6956 227.614 38.8486C227.878 38.9984 228.083 39.2165 228.229 39.5029C228.379 39.7861 228.461 40.1296 228.474 40.5332H227.663C227.65 40.2728 227.603 40.0563 227.521 39.8838C227.44 39.708 227.329 39.5778 227.189 39.4932C227.049 39.4053 226.882 39.3613 226.687 39.3613C226.459 39.3613 226.27 39.402 226.12 39.4834C225.974 39.5615 225.858 39.6755 225.773 39.8252C225.689 39.9749 225.629 40.154 225.593 40.3623C225.56 40.5706 225.544 40.8034 225.544 41.0605V41.6562C225.544 41.9134 225.56 42.1478 225.593 42.3594C225.629 42.5677 225.687 42.7467 225.769 42.8965C225.853 43.0462 225.97 43.1618 226.12 43.2432C226.27 43.3213 226.459 43.3604 226.687 43.3604ZM229.494 38.7168H230.354V44.6299C230.354 44.9521 230.311 45.2256 230.227 45.4502C230.145 45.6748 230.018 45.8441 229.846 45.958C229.676 46.0752 229.46 46.1338 229.196 46.1338C229.125 46.1338 229.042 46.1257 228.947 46.1094C228.856 46.0931 228.778 46.0736 228.713 46.0508V45.3232C228.768 45.3363 228.828 45.346 228.894 45.3525C228.959 45.3623 229.012 45.3672 229.055 45.3672C229.149 45.3672 229.229 45.3428 229.294 45.2939C229.359 45.2451 229.408 45.167 229.44 45.0596C229.476 44.9521 229.494 44.8089 229.494 44.6299V38.7168ZM229.416 37.3154C229.416 37.1689 229.457 37.0452 229.538 36.9443C229.623 36.8434 229.745 36.793 229.904 36.793C230.067 36.793 230.189 36.8434 230.271 36.9443C230.355 37.0452 230.397 37.1689 230.397 37.3154C230.397 37.4554 230.355 37.5758 230.271 37.6768C230.189 37.7744 230.067 37.8232 229.904 37.8232C229.745 37.8232 229.623 37.7744 229.538 37.6768C229.457 37.5758 229.416 37.4554 229.416 37.3154ZM234.309 43.0967V40.2305C234.309 40.0221 234.276 39.8545 234.211 39.7275C234.149 39.6006 234.055 39.5078 233.928 39.4492C233.804 39.3906 233.648 39.3613 233.459 39.3613C233.277 39.3613 233.119 39.3988 232.985 39.4736C232.855 39.5485 232.754 39.6478 232.683 39.7715C232.614 39.8952 232.58 40.0319 232.58 40.1816H231.716C231.716 39.9928 231.757 39.8057 231.838 39.6201C231.923 39.4346 232.043 39.2669 232.199 39.1172C232.355 38.9642 232.543 38.8437 232.761 38.7559C232.982 38.6647 233.229 38.6191 233.503 38.6191C233.828 38.6191 234.117 38.6729 234.367 38.7803C234.618 38.8844 234.815 39.0553 234.958 39.293C235.101 39.5306 235.173 39.8464 235.173 40.2402V42.8477C235.173 43.0234 235.186 43.2106 235.212 43.4092C235.241 43.6077 235.282 43.7786 235.334 43.9219V44H234.44C234.398 43.8958 234.366 43.7575 234.343 43.585C234.32 43.4092 234.309 43.2464 234.309 43.0967ZM234.445 40.7969L234.455 41.4316H233.854C233.649 41.4316 233.462 41.4544 233.293 41.5C233.127 41.5456 232.984 41.6123 232.863 41.7002C232.743 41.7848 232.65 41.8906 232.585 42.0176C232.523 42.1445 232.492 42.2894 232.492 42.4521C232.492 42.6637 232.521 42.833 232.58 42.96C232.639 43.0837 232.727 43.1732 232.844 43.2285C232.961 43.2839 233.109 43.3115 233.288 43.3115C233.506 43.3115 233.698 43.2611 233.864 43.1602C234.03 43.0592 234.159 42.9372 234.25 42.7939C234.344 42.6507 234.388 42.5173 234.382 42.3936L234.572 42.7988C234.559 42.9258 234.517 43.0641 234.445 43.2139C234.377 43.3604 234.281 43.502 234.157 43.6387C234.034 43.7721 233.887 43.8828 233.718 43.9707C233.552 44.0553 233.365 44.0977 233.156 44.0977C232.85 44.0977 232.582 44.0391 232.351 43.9219C232.123 43.8047 231.945 43.6322 231.818 43.4043C231.691 43.1764 231.628 42.8949 231.628 42.5596C231.628 42.3057 231.672 42.0713 231.76 41.8564C231.848 41.6416 231.978 41.4561 232.15 41.2998C232.323 41.1403 232.539 41.0166 232.8 40.9287C233.063 40.8408 233.368 40.7969 233.713 40.7969H234.445ZM239.738 38.7168V44H238.879V38.7168H239.738ZM238.83 37.3154C238.83 37.1689 238.871 37.0452 238.952 36.9443C239.034 36.8434 239.156 36.793 239.318 36.793C239.481 36.793 239.603 36.8434 239.685 36.9443C239.769 37.0452 239.812 37.1689 239.812 37.3154C239.812 37.4554 239.769 37.5758 239.685 37.6768C239.603 37.7744 239.481 37.8232 239.318 37.8232C239.156 37.8232 239.034 37.7744 238.952 37.6768C238.871 37.5758 238.83 37.4554 238.83 37.3154ZM199.895 50.7324V57.0312H199.03V49.7168H199.816L199.895 50.7324ZM202.849 52.1191V52.6123C202.849 53.029 202.81 53.3936 202.731 53.7061C202.657 54.0153 202.544 54.2741 202.395 54.4824C202.248 54.6875 202.067 54.8421 201.853 54.9463C201.638 55.0472 201.392 55.0977 201.115 55.0977C200.839 55.0977 200.598 55.0456 200.393 54.9414C200.191 54.834 200.02 54.6794 199.88 54.4775C199.743 54.2757 199.634 54.0332 199.553 53.75C199.475 53.4635 199.421 53.1429 199.392 52.7881V52.0361C199.421 51.6618 199.475 51.3265 199.553 51.0303C199.631 50.7308 199.738 50.4769 199.875 50.2686C200.015 50.057 200.186 49.8958 200.388 49.7852C200.593 49.6745 200.832 49.6191 201.105 49.6191C201.389 49.6191 201.638 49.668 201.853 49.7656C202.071 49.8633 202.253 50.0146 202.399 50.2197C202.549 50.4215 202.661 50.6803 202.736 50.9961C202.811 51.3086 202.849 51.6829 202.849 52.1191ZM201.984 52.6123V52.1191C201.984 51.8262 201.962 51.5706 201.916 51.3525C201.874 51.1344 201.805 50.9538 201.711 50.8105C201.617 50.6673 201.498 50.5599 201.354 50.4883C201.211 50.4167 201.039 50.3809 200.837 50.3809C200.664 50.3809 200.511 50.4167 200.378 50.4883C200.248 50.5599 200.135 50.6576 200.041 50.7812C199.947 50.9017 199.868 51.04 199.807 51.1963C199.745 51.3493 199.699 51.5088 199.67 51.6748V53.1543C199.725 53.3626 199.799 53.5596 199.89 53.7451C199.981 53.9274 200.103 54.0755 200.256 54.1895C200.412 54.3034 200.609 54.3604 200.847 54.3604C201.045 54.3604 201.216 54.3245 201.359 54.2529C201.503 54.1813 201.62 54.0739 201.711 53.9307C201.805 53.7842 201.874 53.6019 201.916 53.3838C201.962 53.1624 201.984 52.9053 201.984 52.6123ZM205.583 50.459V51.0547L203.566 51.9678V51.3721L205.583 50.459ZM204.968 47.5V55H204.104V47.5H204.968ZM209.06 54.0967V51.2305C209.06 51.0221 209.027 50.8545 208.962 50.7275C208.9 50.6006 208.806 50.5078 208.679 50.4492C208.555 50.3906 208.399 50.3613 208.21 50.3613C208.028 50.3613 207.87 50.3988 207.736 50.4736C207.606 50.5485 207.505 50.6478 207.434 50.7715C207.365 50.8952 207.331 51.0319 207.331 51.1816H206.467C206.467 50.9928 206.507 50.8057 206.589 50.6201C206.674 50.4346 206.794 50.2669 206.95 50.1172C207.106 49.9642 207.294 49.8438 207.512 49.7559C207.733 49.6647 207.98 49.6191 208.254 49.6191C208.579 49.6191 208.868 49.6729 209.118 49.7803C209.369 49.8844 209.566 50.0553 209.709 50.293C209.852 50.5306 209.924 50.8464 209.924 51.2402V53.8477C209.924 54.0234 209.937 54.2106 209.963 54.4092C209.992 54.6077 210.033 54.7786 210.085 54.9219V55H209.191C209.149 54.8958 209.117 54.7575 209.094 54.585C209.071 54.4092 209.06 54.2464 209.06 54.0967ZM209.196 51.7969L209.206 52.4316H208.605C208.4 52.4316 208.213 52.4544 208.044 52.5C207.878 52.5456 207.735 52.6123 207.614 52.7002C207.494 52.7848 207.401 52.8906 207.336 53.0176C207.274 53.1445 207.243 53.2894 207.243 53.4521C207.243 53.6637 207.272 53.833 207.331 53.96C207.39 54.0837 207.478 54.1732 207.595 54.2285C207.712 54.2839 207.86 54.3115 208.039 54.3115C208.257 54.3115 208.449 54.2611 208.615 54.1602C208.781 54.0592 208.91 53.9372 209.001 53.7939C209.095 53.6507 209.139 53.5173 209.133 53.3936L209.323 53.7988C209.31 53.9258 209.268 54.0641 209.196 54.2139C209.128 54.3604 209.032 54.502 208.908 54.6387C208.785 54.7721 208.638 54.8828 208.469 54.9707C208.303 55.0553 208.116 55.0977 207.907 55.0977C207.601 55.0977 207.333 55.0391 207.102 54.9219C206.874 54.8047 206.696 54.6322 206.569 54.4043C206.442 54.1764 206.379 53.8949 206.379 53.5596C206.379 53.3057 206.423 53.0713 206.511 52.8564C206.599 52.6416 206.729 52.4561 206.901 52.2998C207.074 52.1403 207.29 52.0166 207.551 51.9287C207.814 51.8408 208.119 51.7969 208.464 51.7969H209.196ZM213.195 49.7168V50.4102H210.729V49.7168H213.195ZM211.535 48.4326H212.399V53.6914C212.399 53.8704 212.421 54.0055 212.463 54.0967C212.508 54.1878 212.565 54.248 212.634 54.2773C212.702 54.3066 212.775 54.3213 212.854 54.3213C212.912 54.3213 212.977 54.3148 213.049 54.3018C213.12 54.2855 213.169 54.2725 213.195 54.2627L213.19 55C213.132 55.0228 213.054 55.0439 212.956 55.0635C212.858 55.0863 212.735 55.0977 212.585 55.0977C212.399 55.0977 212.227 55.0537 212.067 54.9658C211.908 54.8779 211.779 54.7314 211.682 54.5264C211.584 54.318 211.535 54.0381 211.535 53.6865V48.4326ZM215.09 50.8447V55H214.226V49.7168H215.041L215.09 50.8447ZM214.88 52.1582L214.528 52.1436C214.525 51.7822 214.566 51.4486 214.65 51.1426C214.738 50.8333 214.862 50.5648 215.021 50.3369C215.184 50.109 215.378 49.9333 215.603 49.8096C215.827 49.6826 216.076 49.6191 216.35 49.6191C216.564 49.6191 216.76 49.6549 216.936 49.7266C217.111 49.7949 217.261 49.9056 217.385 50.0586C217.508 50.2116 217.603 50.4102 217.668 50.6543C217.736 50.8952 217.771 51.1898 217.771 51.5381V55H216.906V51.5283C216.906 51.2516 216.875 51.0303 216.813 50.8643C216.755 50.695 216.664 50.5729 216.54 50.498C216.42 50.4199 216.267 50.3809 216.081 50.3809C215.912 50.3809 215.754 50.4281 215.607 50.5225C215.461 50.6169 215.332 50.7471 215.222 50.9131C215.114 51.0791 215.03 51.2695 214.968 51.4844C214.909 51.696 214.88 51.9206 214.88 52.1582ZM218.889 52.6123V52.1094C218.889 51.6992 218.941 51.3395 219.045 51.0303C219.149 50.7178 219.294 50.4574 219.479 50.249C219.665 50.0407 219.882 49.8844 220.129 49.7803C220.376 49.6729 220.642 49.6191 220.925 49.6191C221.215 49.6191 221.483 49.6729 221.73 49.7803C221.978 49.8844 222.194 50.0407 222.38 50.249C222.569 50.4574 222.715 50.7178 222.819 51.0303C222.924 51.3395 222.976 51.6992 222.976 52.1094V52.6123C222.976 53.0225 222.924 53.3838 222.819 53.6963C222.715 54.0055 222.57 54.2643 222.385 54.4727C222.199 54.681 221.983 54.8372 221.735 54.9414C221.488 55.0456 221.221 55.0977 220.935 55.0977C220.648 55.0977 220.381 55.0456 220.134 54.9414C219.886 54.8372 219.668 54.681 219.479 54.4727C219.294 54.2643 219.149 54.0055 219.045 53.6963C218.941 53.3838 218.889 53.0225 218.889 52.6123ZM219.753 52.1094V52.6123C219.753 52.902 219.782 53.1559 219.841 53.374C219.899 53.5921 219.982 53.7744 220.09 53.9209C220.197 54.0674 220.323 54.1781 220.466 54.2529C220.609 54.3245 220.765 54.3604 220.935 54.3604C221.13 54.3604 221.301 54.3245 221.447 54.2529C221.597 54.1781 221.721 54.0674 221.818 53.9209C221.916 53.7744 221.989 53.5921 222.038 53.374C222.087 53.1559 222.111 52.902 222.111 52.6123V52.1094C222.111 51.8197 222.082 51.5674 222.023 51.3525C221.965 51.1344 221.882 50.9521 221.774 50.8057C221.667 50.6559 221.54 50.5452 221.394 50.4736C221.25 50.3988 221.094 50.3613 220.925 50.3613C220.759 50.3613 220.604 50.3988 220.461 50.4736C220.318 50.5452 220.192 50.6559 220.085 50.8057C219.981 50.9521 219.899 51.1344 219.841 51.3525C219.782 51.5674 219.753 51.8197 219.753 52.1094ZM226.652 53.6475C226.652 53.514 226.62 53.3968 226.555 53.2959C226.49 53.195 226.382 53.0973 226.232 53.0029C226.086 52.9085 225.887 52.8076 225.637 52.7002C225.393 52.5993 225.173 52.5 224.978 52.4023C224.785 52.3014 224.623 52.1924 224.489 52.0752C224.356 51.958 224.253 51.8229 224.182 51.6699C224.113 51.5137 224.079 51.3298 224.079 51.1182C224.079 50.9066 224.118 50.7113 224.196 50.5322C224.278 50.3499 224.392 50.1904 224.538 50.0537C224.685 49.917 224.86 49.8112 225.065 49.7363C225.271 49.6582 225.5 49.6191 225.754 49.6191C226.115 49.6191 226.423 49.6891 226.677 49.8291C226.931 49.9691 227.124 50.1611 227.258 50.4053C227.395 50.6462 227.463 50.918 227.463 51.2207H226.604C226.604 51.0742 226.571 50.9359 226.506 50.8057C226.441 50.6755 226.345 50.5697 226.218 50.4883C226.091 50.4036 225.936 50.3613 225.754 50.3613C225.562 50.3613 225.406 50.3955 225.285 50.4639C225.165 50.5322 225.077 50.6217 225.021 50.7324C224.969 50.8398 224.943 50.9587 224.943 51.0889C224.943 51.1865 224.956 51.2712 224.982 51.3428C225.012 51.4111 225.061 51.4762 225.129 51.5381C225.197 51.5967 225.29 51.6585 225.407 51.7236C225.528 51.7855 225.681 51.8571 225.866 51.9385C226.224 52.0785 226.525 52.2201 226.77 52.3633C227.014 52.5065 227.199 52.6742 227.326 52.8662C227.453 53.0583 227.517 53.2959 227.517 53.5791C227.517 53.8102 227.474 54.0202 227.39 54.209C227.308 54.3945 227.191 54.554 227.038 54.6875C226.885 54.821 226.701 54.9235 226.486 54.9951C226.275 55.0635 226.037 55.0977 225.773 55.0977C225.376 55.0977 225.039 55.0195 224.763 54.8633C224.489 54.7038 224.281 54.4971 224.138 54.2432C223.998 53.986 223.928 53.7109 223.928 53.418H224.792C224.802 53.6654 224.857 53.8574 224.958 53.9941C225.062 54.1309 225.188 54.2253 225.334 54.2773C225.48 54.3294 225.627 54.3555 225.773 54.3555C225.965 54.3555 226.127 54.3278 226.257 54.2725C226.387 54.2139 226.485 54.1309 226.55 54.0234C226.618 53.916 226.652 53.7907 226.652 53.6475ZM225.383 48.9355L226.33 47.5H227.419L226.11 48.9355H225.383ZM230.48 54.3604C230.653 54.3604 230.809 54.3262 230.949 54.2578C231.092 54.1862 231.21 54.0755 231.301 53.9258C231.392 53.7728 231.444 53.5742 231.457 53.3301H232.268C232.255 53.6816 232.165 53.9909 231.999 54.2578C231.836 54.5215 231.621 54.7282 231.354 54.8779C231.091 55.0244 230.799 55.0977 230.48 55.0977C230.139 55.0977 229.841 55.0423 229.587 54.9316C229.336 54.821 229.128 54.6615 228.962 54.4531C228.799 54.2415 228.677 53.986 228.596 53.6865C228.514 53.3838 228.474 53.0404 228.474 52.6562V52.0605C228.474 51.6764 228.514 51.3346 228.596 51.0352C228.677 50.7324 228.799 50.4769 228.962 50.2686C229.128 50.057 229.336 49.8958 229.587 49.7852C229.841 49.6745 230.139 49.6191 230.48 49.6191C230.839 49.6191 231.148 49.6956 231.408 49.8486C231.672 49.9984 231.877 50.2165 232.023 50.5029C232.173 50.7861 232.255 51.1296 232.268 51.5332H231.457C231.444 51.2728 231.397 51.0563 231.315 50.8838C231.234 50.708 231.123 50.5778 230.983 50.4932C230.843 50.4053 230.676 50.3613 230.48 50.3613C230.253 50.3613 230.064 50.402 229.914 50.4834C229.768 50.5615 229.652 50.6755 229.567 50.8252C229.483 50.9749 229.423 51.154 229.387 51.3623C229.354 51.5706 229.338 51.8034 229.338 52.0605V52.6562C229.338 52.9134 229.354 53.1478 229.387 53.3594C229.423 53.5677 229.481 53.7467 229.562 53.8965C229.647 54.0462 229.764 54.1618 229.914 54.2432C230.064 54.3213 230.253 54.3604 230.48 54.3604ZM229.772 48.9355L230.72 47.5H231.809L230.5 48.9355H229.772Z" fill="#E0E0E9"/>
<path fill-rule="evenodd" clip-rule="evenodd" d="M205 16L138 16V14L205 14V16Z" fill="#D0CFD7"/>
<path fill-rule="evenodd" clip-rule="evenodd" d="M112 16L45 16V14L112 14V16Z" fill="#D0CFD7"/>
<path fill-rule="evenodd" clip-rule="evenodd" d="M19.7612 6.17317C19 8.01088 19 10.3406 19 15C19 19.6594 19 21.9891 19.7612 23.8268C20.7761 26.2771 22.7229 28.2239 25.1732 29.2388C27.0109 30 29.3406 30 34 30C38.6594 30 40.9891 30 42.8268 29.2388C45.2771 28.2239 47.2239 26.2771 48.2388 23.8268C49 21.9891 49 19.6594 49 15C49 10.3406 49 8.01088 48.2388 6.17317C47.2239 3.72288 45.2771 1.77614 42.8268 0.761205C40.9891 0 38.6594 0 34 0C29.3406 0 27.0109 0 25.1732 0.761205C22.7229 1.77614 20.7761 3.72288 19.7612 6.17317ZM40.7071 11.7071C41.0976 11.3166 41.0976 10.6834 40.7071 10.2929C40.3166 9.90237 39.6834 9.90237 39.2929 10.2929L32 17.5858L28.7071 14.2929C28.3166 13.9024 27.6834 13.9024 27.2929 14.2929C26.9024 14.6834 26.9024 15.3166 27.2929 15.7071L31.2929 19.7071C31.4804 19.8946 31.7348 20 32 20C32.2652 20 32.5196 19.8946 32.7071 19.7071L40.7071 11.7071Z" fill="url(#paint1_linear_363_3110)"/>
<path fill-rule="evenodd" clip-rule="evenodd" d="M201.761 6.17317C201 8.01088 201 10.3406 201 15C201 19.6594 201 21.9891 201.761 23.8268C202.776 26.2771 204.723 28.2239 207.173 29.2388C209.011 30 211.341 30 216 30C220.659 30 222.989 30 224.827 29.2388C227.277 28.2239 229.224 26.2771 230.239 23.8268C231 21.9891 231 19.6594 231 15C231 10.3406 231 8.01088 230.239 6.17317C229.224 3.72288 227.277 1.77614 224.827 0.761205C222.989 0 220.659 0 216 0C211.341 0 209.011 0 207.173 0.761205C204.723 1.77614 202.776 3.72288 201.761 6.17317ZM222.707 11.7071C223.098 11.3166 223.098 10.6834 222.707 10.2929C222.317 9.90237 221.683 9.90237 221.293 10.2929L214 17.5858L210.707 14.2929C210.317 13.9024 209.683 13.9024 209.293 14.2929C208.902 14.6834 208.902 15.3166 209.293 15.7071L213.293 19.7071C213.48 19.8946 213.735 20 214 20C214.265 20 214.52 19.8946 214.707 19.7071L222.707 11.7071Z" fill="#D0CFD7"/>
<path fill-rule="evenodd" clip-rule="evenodd" d="M110.761 6.17317C110 8.01088 110 10.3406 110 15C110 19.6594 110 21.9891 110.761 23.8268C111.776 26.2771 113.723 28.2239 116.173 29.2388C118.011 30 120.341 30 125 30C129.659 30 131.989 30 133.827 29.2388C136.277 28.2239 138.224 26.2771 139.239 23.8268C140 21.9891 140 19.6594 140 15C140 10.3406 140 8.01088 139.239 6.17317C138.224 3.72288 136.277 1.77614 133.827 0.761205C131.989 0 129.659 0 125 0C120.341 0 118.011 0 116.173 0.761205C113.723 1.77614 111.776 3.72288 110.761 6.17317ZM131.707 11.7071C132.098 11.3166 132.098 10.6834 131.707 10.2929C131.317 9.90237 130.683 9.90237 130.293 10.2929L123 17.5858L119.707 14.2929C119.317 13.9024 118.683 13.9024 118.293 14.2929C117.902 14.6834 117.902 15.3166 118.293 15.7071L122.293 19.7071C122.48 19.8946 122.735 20 123 20C123.265 20 123.52 19.8946 123.707 19.7071L131.707 11.7071Z" fill="#D0CFD7"/>
<defs>
<linearGradient id="paint0_linear_363_3110" x1="33.5" y1="57" x2="33.5" y2="35" gradientUnits="userSpaceOnUse">
<stop stop-color="#5CCC94"/>
<stop offset="1" stop-color="#8CCAAE"/>
</linearGradient>
<linearGradient id="paint1_linear_363_3110" x1="34" y1="30" x2="34" y2="1.58545e-07" gradientUnits="userSpaceOnUse">
<stop stop-color="#5CCC94"/>
<stop offset="1" stop-color="#8CCAAE"/>
</linearGradient>
</defs>
</svg>
