<svg width="312" height="68" viewBox="0 0 312 68" fill="none" xmlns="http://www.w3.org/2000/svg">
<path d="M6.27344 41.2031C6.27344 41.0371 6.25391 40.8906 6.21484 40.7637C6.17578 40.6335 6.10742 40.5163 6.00977 40.4121C5.91211 40.3079 5.77539 40.2087 5.59961 40.1143C5.42383 40.0199 5.20085 39.9238 4.93066 39.8262C4.6377 39.722 4.3724 39.6064 4.13477 39.4795C3.89714 39.3493 3.69368 39.2012 3.52441 39.0352C3.3584 38.8691 3.22982 38.6787 3.13867 38.4639C3.04753 38.249 3.00195 38.0033 3.00195 37.7266C3.00195 37.4499 3.04915 37.1943 3.14355 36.96C3.24121 36.7256 3.37793 36.5221 3.55371 36.3496C3.73275 36.1738 3.94759 36.0371 4.19824 35.9395C4.44889 35.8418 4.72884 35.793 5.03809 35.793C5.50033 35.793 5.88932 35.8955 6.20508 36.1006C6.52409 36.3024 6.76497 36.5677 6.92773 36.8965C7.09049 37.222 7.17188 37.5703 7.17188 37.9414H6.27344C6.27344 37.6745 6.22949 37.4385 6.1416 37.2334C6.05697 37.0251 5.9235 36.8623 5.74121 36.7451C5.56217 36.6247 5.3278 36.5645 5.03809 36.5645C4.77767 36.5645 4.56283 36.6149 4.39355 36.7158C4.22754 36.8167 4.10384 36.9535 4.02246 37.126C3.94434 37.2985 3.90527 37.4954 3.90527 37.7168C3.90527 37.8665 3.93132 38.0033 3.9834 38.127C4.03548 38.2474 4.11523 38.3597 4.22266 38.4639C4.33333 38.568 4.47005 38.6641 4.63281 38.752C4.79883 38.8398 4.99414 38.9245 5.21875 39.0059C5.56706 39.1198 5.86491 39.2467 6.1123 39.3867C6.3597 39.5267 6.56152 39.6846 6.71777 39.8604C6.87402 40.0329 6.98796 40.2298 7.05957 40.4512C7.13444 40.6693 7.17188 40.9167 7.17188 41.1934C7.17188 41.4831 7.12305 41.7451 7.02539 41.9795C6.93099 42.2139 6.79264 42.4141 6.61035 42.5801C6.42806 42.7461 6.20833 42.8747 5.95117 42.9658C5.69401 43.0537 5.4043 43.0977 5.08203 43.0977C4.80208 43.0977 4.52702 43.0521 4.25684 42.9609C3.98991 42.8698 3.7474 42.7331 3.5293 42.5508C3.3112 42.3685 3.13704 42.1439 3.00684 41.877C2.87663 41.6068 2.81152 41.2943 2.81152 40.9395H3.70996C3.70996 41.1836 3.74577 41.3936 3.81738 41.5693C3.889 41.7419 3.98828 41.8851 4.11523 41.999C4.24219 42.113 4.38704 42.1976 4.5498 42.2529C4.71582 42.305 4.89323 42.3311 5.08203 42.3311C5.34245 42.3311 5.56055 42.2855 5.73633 42.1943C5.91536 42.1032 6.04883 41.973 6.13672 41.8037C6.22786 41.6344 6.27344 41.4342 6.27344 41.2031ZM10.1602 37.7168V38.4102H7.69434V37.7168H10.1602ZM8.5 36.4326H9.36426L9.36426 41.6914C9.36426 41.8704 9.38542 42.0055 9.42773 42.0967C9.47331 42.1878 9.53027 42.248 9.59863 42.2773C9.66699 42.3066 9.74023 42.3213 9.81836 42.3213C9.87695 42.3213 9.94206 42.3148 10.0137 42.3018C10.0853 42.2855 10.1341 42.2725 10.1602 42.2627L10.1553 43C10.0967 43.0228 10.0186 43.0439 9.9209 43.0635C9.82324 43.0863 9.69954 43.0977 9.5498 43.0977C9.36426 43.0977 9.19173 43.0537 9.03223 42.9658C8.87272 42.8779 8.74414 42.7314 8.64648 42.5264C8.54883 42.318 8.5 42.0381 8.5 41.6865L8.5 36.4326ZM12.1182 37.7168L12.1182 43H11.2588L11.2588 37.7168H12.1182ZM11.21 36.3154C11.21 36.1689 11.2507 36.0452 11.332 35.9443C11.4134 35.8434 11.5355 35.793 11.6982 35.793C11.861 35.793 11.9831 35.8434 12.0645 35.9443C12.1491 36.0452 12.1914 36.1689 12.1914 36.3154C12.1914 36.4554 12.1491 36.5758 12.0645 36.6768C11.9831 36.7744 11.861 36.8232 11.6982 36.8232C11.5355 36.8232 11.4134 36.7744 11.332 36.6768C11.2507 36.5758 11.21 36.4554 11.21 36.3154ZM15.3164 42.3604C15.4889 42.3604 15.6452 42.3262 15.7852 42.2578C15.9284 42.1862 16.0456 42.0755 16.1367 41.9258C16.2279 41.7728 16.2799 41.5742 16.293 41.3301H17.1035C17.0905 41.6816 17.001 41.9909 16.835 42.2578C16.6722 42.5215 16.4574 42.7282 16.1904 42.8779C15.9268 43.0244 15.6354 43.0977 15.3164 43.0977C14.9746 43.0977 14.6768 43.0423 14.4229 42.9316C14.1722 42.821 13.9639 42.6615 13.7979 42.4531C13.6351 42.2415 13.513 41.986 13.4316 41.6865C13.3503 41.3838 13.3096 41.0404 13.3096 40.6562V40.0605C13.3096 39.6764 13.3503 39.3346 13.4316 39.0352C13.513 38.7324 13.6351 38.4769 13.7979 38.2686C13.9639 38.057 14.1722 37.8958 14.4229 37.7852C14.6768 37.6745 14.9746 37.6191 15.3164 37.6191C15.6745 37.6191 15.9837 37.6956 16.2441 37.8486C16.5078 37.9984 16.7129 38.2165 16.8594 38.5029C17.0091 38.7861 17.0905 39.1296 17.1035 39.5332H16.293C16.2799 39.2728 16.2327 39.0563 16.1514 38.8838C16.07 38.708 15.9593 38.5778 15.8193 38.4932C15.6794 38.4053 15.5117 38.3613 15.3164 38.3613C15.0885 38.3613 14.8997 38.402 14.75 38.4834C14.6035 38.5615 14.488 38.6755 14.4033 38.8252C14.3187 38.9749 14.2585 39.154 14.2227 39.3623C14.1901 39.5706 14.1738 39.8034 14.1738 40.0605V40.6562C14.1738 40.9134 14.1901 41.1478 14.2227 41.3594C14.2585 41.5677 14.3171 41.7467 14.3984 41.8965C14.4831 42.0462 14.6003 42.1618 14.75 42.2432C14.8997 42.3213 15.0885 42.3604 15.3164 42.3604ZM18.9736 35.5V43H18.1094V35.5H18.9736ZM21.6543 37.7168L19.7744 40.1826L18.6123 41.5205L18.5537 40.5586L19.3545 39.4551L20.6143 37.7168H21.6543ZM20.8633 43L19.3789 40.4805L19.8232 39.6748L21.8691 43H20.8633ZM24.4082 43.0977C24.0924 43.0977 23.8076 43.0505 23.5537 42.9561C23.2998 42.8617 23.0833 42.7184 22.9043 42.5264C22.7253 42.3311 22.5885 42.0853 22.4941 41.7891C22.3997 41.4928 22.3525 41.1429 22.3525 40.7393V40.1436C22.3525 39.6781 22.4062 39.2842 22.5137 38.9619C22.6243 38.6396 22.7725 38.3809 22.958 38.1855C23.1436 37.987 23.3535 37.8438 23.5879 37.7559C23.8223 37.6647 24.0632 37.6191 24.3105 37.6191C24.6426 37.6191 24.9258 37.6729 25.1602 37.7803C25.3945 37.8877 25.585 38.0472 25.7314 38.2588C25.8779 38.4704 25.9854 38.7308 26.0537 39.04C26.1253 39.3493 26.1611 39.7057 26.1611 40.1094V40.6123L22.8604 40.6123V39.875L25.2969 39.875V39.7529C25.2839 39.4795 25.2464 39.2386 25.1846 39.0303C25.126 38.8219 25.0283 38.6592 24.8916 38.542C24.7549 38.4215 24.5612 38.3613 24.3105 38.3613C24.151 38.3613 24.0029 38.389 23.8662 38.4443C23.7327 38.4964 23.6172 38.5892 23.5195 38.7227C23.4251 38.8529 23.3503 39.0335 23.2949 39.2646C23.2428 39.4958 23.2168 39.7887 23.2168 40.1436V40.7393C23.2168 41.0225 23.2428 41.2666 23.2949 41.4717C23.3503 41.6735 23.43 41.8411 23.5342 41.9746C23.6416 42.1048 23.7718 42.2025 23.9248 42.2676C24.0811 42.3294 24.2585 42.3604 24.457 42.3604C24.7467 42.3604 24.986 42.305 25.1748 42.1943C25.3636 42.0804 25.528 41.9355 25.668 41.7598L26.1221 42.3018C26.0277 42.4352 25.904 42.5638 25.751 42.6875C25.6012 42.8079 25.4157 42.9072 25.1943 42.9854C24.9762 43.0602 24.7142 43.0977 24.4082 43.0977ZM28.0703 38.5469V43L27.2061 43V37.7168H28.041L28.0703 38.5469ZM29.3838 37.6875L29.3887 38.5273C29.3171 38.5111 29.252 38.5013 29.1934 38.498C29.138 38.4915 29.0729 38.4883 28.998 38.4883C28.8353 38.4883 28.6921 38.5208 28.5684 38.5859C28.4479 38.651 28.3438 38.7422 28.2559 38.8594C28.168 38.9766 28.098 39.1165 28.0459 39.2793C27.9938 39.4388 27.958 39.6146 27.9385 39.8066L27.7139 39.9531C27.7139 39.6341 27.7383 39.3346 27.7871 39.0547C27.8392 38.7747 27.9189 38.5273 28.0264 38.3125C28.1338 38.0944 28.2705 37.9251 28.4365 37.8047C28.6058 37.681 28.8076 37.6191 29.042 37.6191C29.0941 37.6191 29.1576 37.6273 29.2324 37.6436C29.3105 37.6566 29.361 37.6712 29.3838 37.6875ZM10.2041 48.7168V49.4102H7.73828V48.7168H10.2041ZM8.54395 47.4326H9.4082L9.4082 52.6914C9.4082 52.8704 9.42936 53.0055 9.47168 53.0967C9.51725 53.1878 9.57422 53.248 9.64258 53.2773C9.71094 53.3066 9.78418 53.3213 9.8623 53.3213C9.9209 53.3213 9.986 53.3148 10.0576 53.3018C10.1292 53.2855 10.1781 53.2725 10.2041 53.2627L10.1992 54C10.1406 54.0228 10.0625 54.0439 9.96484 54.0635C9.86719 54.0863 9.74349 54.0977 9.59375 54.0977C9.4082 54.0977 9.23568 54.0537 9.07617 53.9658C8.91667 53.8779 8.78809 53.7314 8.69043 53.5264C8.59277 53.318 8.54395 53.0381 8.54395 52.6865L8.54395 47.4326ZM12.46 53.4531L13.6367 48.7168H14.5547L12.8115 54.8154C12.7692 54.9456 12.7122 55.0856 12.6406 55.2354C12.5723 55.3883 12.4844 55.5332 12.377 55.6699C12.2695 55.8066 12.141 55.9173 11.9912 56.002C11.8415 56.0898 11.6657 56.1338 11.4639 56.1338C11.402 56.1338 11.3223 56.124 11.2246 56.1045C11.1302 56.085 11.0618 56.0687 11.0195 56.0557V55.3232C11.0391 55.3265 11.07 55.3298 11.1123 55.333C11.1546 55.3395 11.1855 55.3428 11.2051 55.3428C11.3743 55.3428 11.5176 55.3151 11.6348 55.2598C11.7552 55.2077 11.8577 55.1182 11.9424 54.9912C12.027 54.8675 12.0986 54.6966 12.1572 54.4785L12.46 53.4531ZM11.6982 48.7168L12.748 52.8184L12.9727 53.7705L12.3574 54.1025L10.7559 48.7168H11.6982ZM16.2686 49.7324V56.0312H15.4043L15.4043 48.7168H16.1904L16.2686 49.7324ZM19.2227 51.1191V51.6123C19.2227 52.029 19.1836 52.3936 19.1055 52.7061C19.0306 53.0153 18.9183 53.2741 18.7686 53.4824C18.6221 53.6875 18.4414 53.8421 18.2266 53.9463C18.0117 54.0472 17.766 54.0977 17.4893 54.0977C17.2126 54.0977 16.9717 54.0456 16.7666 53.9414C16.5648 53.834 16.3939 53.6794 16.2539 53.4775C16.1172 53.2757 16.0081 53.0332 15.9268 52.75C15.8486 52.4635 15.7949 52.1429 15.7656 51.7881V51.0361C15.7949 50.6618 15.8486 50.3265 15.9268 50.0303C16.0049 49.7308 16.1123 49.4769 16.249 49.2686C16.389 49.057 16.5599 48.8958 16.7617 48.7852C16.9668 48.6745 17.2061 48.6191 17.4795 48.6191C17.7627 48.6191 18.0117 48.668 18.2266 48.7656C18.4447 48.8633 18.627 49.0146 18.7734 49.2197C18.9232 49.4215 19.0355 49.6803 19.1104 49.9961C19.1852 50.3086 19.2227 50.6829 19.2227 51.1191ZM18.3584 51.6123V51.1191C18.3584 50.8262 18.3356 50.5706 18.29 50.3525C18.2477 50.1344 18.1794 49.9538 18.085 49.8105C17.9906 49.6673 17.8717 49.5599 17.7285 49.4883C17.5853 49.4167 17.4128 49.3809 17.2109 49.3809C17.0384 49.3809 16.8854 49.4167 16.752 49.4883C16.6217 49.5599 16.5094 49.6576 16.415 49.7812C16.3206 49.9017 16.2425 50.04 16.1807 50.1963C16.1188 50.3493 16.0732 50.5088 16.0439 50.6748V52.1543C16.0993 52.3626 16.1725 52.5596 16.2637 52.7451C16.3548 52.9274 16.4769 53.0755 16.6299 53.1895C16.7861 53.3034 16.9831 53.3604 17.2207 53.3604C17.4193 53.3604 17.5902 53.3245 17.7334 53.2529C17.8766 53.1813 17.9938 53.0739 18.085 52.9307C18.1794 52.7842 18.2477 52.6019 18.29 52.3838C18.3356 52.1624 18.3584 51.9053 18.3584 51.6123ZM22.2256 54.0977C21.9098 54.0977 21.625 54.0505 21.3711 53.9561C21.1172 53.8617 20.9007 53.7184 20.7217 53.5264C20.5426 53.3311 20.4059 53.0853 20.3115 52.7891C20.2171 52.4928 20.1699 52.1429 20.1699 51.7393V51.1436C20.1699 50.6781 20.2236 50.2842 20.3311 49.9619C20.4417 49.6396 20.5898 49.3809 20.7754 49.1855C20.9609 48.987 21.1709 48.8438 21.4053 48.7559C21.6396 48.6647 21.8805 48.6191 22.1279 48.6191C22.46 48.6191 22.7432 48.6729 22.9775 48.7803C23.2119 48.8877 23.4023 49.0472 23.5488 49.2588C23.6953 49.4704 23.8027 49.7308 23.8711 50.04C23.9427 50.3493 23.9785 50.7057 23.9785 51.1094V51.6123H20.6777V50.875H23.1143V50.7529C23.1012 50.4795 23.0638 50.2386 23.002 50.0303C22.9434 49.8219 22.8457 49.6592 22.709 49.542C22.5723 49.4215 22.3786 49.3613 22.1279 49.3613C21.9684 49.3613 21.8203 49.389 21.6836 49.4443C21.5501 49.4964 21.4346 49.5892 21.3369 49.7227C21.2425 49.8529 21.1676 50.0335 21.1123 50.2646C21.0602 50.4958 21.0342 50.7887 21.0342 51.1436V51.7393C21.0342 52.0225 21.0602 52.2666 21.1123 52.4717C21.1676 52.6735 21.2474 52.8411 21.3516 52.9746C21.459 53.1048 21.5892 53.2025 21.7422 53.2676C21.8984 53.3294 22.0758 53.3604 22.2744 53.3604C22.5641 53.3604 22.8034 53.305 22.9922 53.1943C23.181 53.0804 23.3454 52.9355 23.4854 52.7598L23.9395 53.3018C23.8451 53.4352 23.7214 53.5638 23.5684 53.6875C23.4186 53.8079 23.2331 53.9072 23.0117 53.9854C22.7936 54.0602 22.5316 54.0977 22.2256 54.0977Z" fill="url(#paint0_linear_1406_1429)"/>
<path d="M67.6631 47.2334V48H64.7139V47.2334H67.6631ZM64.875 40.8906V48H63.9766V40.8906H64.875ZM69.543 42.7168V48H68.6836V42.7168H69.543ZM68.6348 41.3154C68.6348 41.1689 68.6755 41.0452 68.7568 40.9443C68.8382 40.8434 68.9603 40.793 69.123 40.793C69.2858 40.793 69.4079 40.8434 69.4893 40.9443C69.5739 41.0452 69.6162 41.1689 69.6162 41.3154C69.6162 41.4554 69.5739 41.5758 69.4893 41.6768C69.4079 41.7744 69.2858 41.8232 69.123 41.8232C68.9603 41.8232 68.8382 41.7744 68.7568 41.6768C68.6755 41.5758 68.6348 41.4554 68.6348 41.3154ZM72.7412 47.3604C72.9137 47.3604 73.07 47.3262 73.21 47.2578C73.3532 47.1862 73.4704 47.0755 73.5615 46.9258C73.6527 46.7728 73.7048 46.5742 73.7178 46.3301H74.5283C74.5153 46.6816 74.4258 46.9909 74.2598 47.2578C74.097 47.5215 73.8822 47.7282 73.6152 47.8779C73.3516 48.0244 73.0602 48.0977 72.7412 48.0977C72.3994 48.0977 72.1016 48.0423 71.8477 47.9316C71.597 47.821 71.3887 47.6615 71.2227 47.4531C71.0599 47.2415 70.9378 46.986 70.8564 46.6865C70.7751 46.3838 70.7344 46.0404 70.7344 45.6562V45.0605C70.7344 44.6764 70.7751 44.3346 70.8564 44.0352C70.9378 43.7324 71.0599 43.4769 71.2227 43.2686C71.3887 43.057 71.597 42.8958 71.8477 42.7852C72.1016 42.6745 72.3994 42.6191 72.7412 42.6191C73.0993 42.6191 73.4085 42.6956 73.6689 42.8486C73.9326 42.9984 74.1377 43.2165 74.2842 43.5029C74.4339 43.7861 74.5153 44.1296 74.5283 44.5332H73.7178C73.7048 44.2728 73.6576 44.0563 73.5762 43.8838C73.4948 43.708 73.3841 43.5778 73.2441 43.4932C73.1042 43.4053 72.9365 43.3613 72.7412 43.3613C72.5133 43.3613 72.3245 43.402 72.1748 43.4834C72.0283 43.5615 71.9128 43.6755 71.8281 43.8252C71.7435 43.9749 71.6833 44.154 71.6475 44.3623C71.6149 44.5706 71.5986 44.8034 71.5986 45.0605V45.6562C71.5986 45.9134 71.6149 46.1478 71.6475 46.3594C71.6833 46.5677 71.7419 46.7467 71.8232 46.8965C71.9079 47.0462 72.0251 47.1618 72.1748 47.2432C72.3245 47.3213 72.5133 47.3604 72.7412 47.3604ZM77.4189 48.0977C77.1032 48.0977 76.8184 48.0505 76.5645 47.9561C76.3105 47.8617 76.0941 47.7184 75.915 47.5264C75.736 47.3311 75.5993 47.0853 75.5049 46.7891C75.4105 46.4928 75.3633 46.1429 75.3633 45.7393V45.1436C75.3633 44.6781 75.417 44.2842 75.5244 43.9619C75.6351 43.6396 75.7832 43.3809 75.9688 43.1855C76.1543 42.987 76.3643 42.8438 76.5986 42.7559C76.833 42.6647 77.0739 42.6191 77.3213 42.6191C77.6533 42.6191 77.9365 42.6729 78.1709 42.7803C78.4053 42.8877 78.5957 43.0472 78.7422 43.2588C78.8887 43.4704 78.9961 43.7308 79.0645 44.04C79.1361 44.3493 79.1719 44.7057 79.1719 45.1094V45.6123H75.8711V44.875H78.3076V44.7529C78.2946 44.4795 78.2572 44.2386 78.1953 44.0303C78.1367 43.8219 78.0391 43.6592 77.9023 43.542C77.7656 43.4215 77.5719 43.3613 77.3213 43.3613C77.1618 43.3613 77.0137 43.389 76.877 43.4443C76.7435 43.4964 76.6279 43.5892 76.5303 43.7227C76.4359 43.8529 76.361 44.0335 76.3057 44.2646C76.2536 44.4958 76.2275 44.7887 76.2275 45.1436V45.7393C76.2275 46.0225 76.2536 46.2666 76.3057 46.4717C76.361 46.6735 76.4408 46.8411 76.5449 46.9746C76.6523 47.1048 76.7826 47.2025 76.9355 47.2676C77.0918 47.3294 77.2692 47.3604 77.4678 47.3604C77.7575 47.3604 77.9967 47.305 78.1855 47.1943C78.3743 47.0804 78.5387 46.9355 78.6787 46.7598L79.1328 47.3018C79.0384 47.4352 78.9147 47.5638 78.7617 47.6875C78.612 47.8079 78.4264 47.9072 78.2051 47.9854C77.987 48.0602 77.7249 48.0977 77.4189 48.0977ZM81.0811 43.8447V48H80.2168V42.7168H81.0322L81.0811 43.8447ZM80.8711 45.1582L80.5195 45.1436C80.5163 44.7822 80.557 44.4486 80.6416 44.1426C80.7295 43.8333 80.8532 43.5648 81.0127 43.3369C81.1755 43.109 81.3691 42.9333 81.5938 42.8096C81.8184 42.6826 82.0674 42.6191 82.3408 42.6191C82.5557 42.6191 82.751 42.6549 82.9268 42.7266C83.1025 42.7949 83.2523 42.9056 83.376 43.0586C83.4997 43.2116 83.5941 43.4102 83.6592 43.6543C83.7275 43.8952 83.7617 44.1898 83.7617 44.5381V48H82.8975V44.5283C82.8975 44.2516 82.8665 44.0303 82.8047 43.8643C82.7461 43.695 82.6549 43.5729 82.5312 43.498C82.4108 43.4199 82.2578 43.3809 82.0723 43.3809C81.903 43.3809 81.7451 43.4281 81.5986 43.5225C81.4521 43.6169 81.3236 43.7471 81.2129 43.9131C81.1055 44.0791 81.0208 44.2695 80.959 44.4844C80.9004 44.696 80.8711 44.9206 80.8711 45.1582ZM87.624 46.6475C87.624 46.514 87.5915 46.3968 87.5264 46.2959C87.4613 46.195 87.3538 46.0973 87.2041 46.0029C87.0576 45.9085 86.859 45.8076 86.6084 45.7002C86.3643 45.5993 86.1445 45.5 85.9492 45.4023C85.7572 45.3014 85.5944 45.1924 85.4609 45.0752C85.3275 44.958 85.2249 44.8229 85.1533 44.6699C85.085 44.5137 85.0508 44.3298 85.0508 44.1182C85.0508 43.9066 85.0898 43.7113 85.168 43.5322C85.2493 43.3499 85.3633 43.1904 85.5098 43.0537C85.6562 42.917 85.832 42.8112 86.0371 42.7363C86.2422 42.6582 86.4717 42.6191 86.7256 42.6191C87.0869 42.6191 87.3945 42.6891 87.6484 42.8291C87.9023 42.9691 88.096 43.1611 88.2295 43.4053C88.3662 43.6462 88.4346 43.918 88.4346 44.2207H87.5752C87.5752 44.0742 87.5426 43.9359 87.4775 43.8057C87.4124 43.6755 87.3164 43.5697 87.1895 43.4883C87.0625 43.4036 86.9079 43.3613 86.7256 43.3613C86.5335 43.3613 86.3773 43.3955 86.2568 43.4639C86.1364 43.5322 86.0485 43.6217 85.9932 43.7324C85.9411 43.8398 85.915 43.9587 85.915 44.0889C85.915 44.1865 85.9281 44.2712 85.9541 44.3428C85.9834 44.4111 86.0322 44.4762 86.1006 44.5381C86.1689 44.5967 86.2617 44.6585 86.3789 44.7236C86.4993 44.7855 86.6523 44.8571 86.8379 44.9385C87.196 45.0785 87.4971 45.2201 87.7412 45.3633C87.9854 45.5065 88.1709 45.6742 88.2979 45.8662C88.4248 46.0583 88.4883 46.2959 88.4883 46.5791C88.4883 46.8102 88.446 47.0202 88.3613 47.209C88.2799 47.3945 88.1628 47.554 88.0098 47.6875C87.8568 47.821 87.6729 47.9235 87.458 47.9951C87.2464 48.0635 87.0088 48.0977 86.7451 48.0977C86.348 48.0977 86.0111 48.0195 85.7344 47.8633C85.4609 47.7038 85.2526 47.4971 85.1094 47.2432C84.9694 46.986 84.8994 46.7109 84.8994 46.418H85.7637C85.7734 46.6654 85.8288 46.8574 85.9297 46.9941C86.0339 47.1309 86.1592 47.2253 86.3057 47.2773C86.4521 47.3294 86.5986 47.3555 86.7451 47.3555C86.9372 47.3555 87.0983 47.3278 87.2285 47.2725C87.3587 47.2139 87.4564 47.1309 87.5215 47.0234C87.5898 46.916 87.624 46.7907 87.624 46.6475ZM91.5107 48.0977C91.195 48.0977 90.9102 48.0505 90.6562 47.9561C90.4023 47.8617 90.1859 47.7184 90.0068 47.5264C89.8278 47.3311 89.6911 47.0853 89.5967 46.7891C89.5023 46.4928 89.4551 46.1429 89.4551 45.7393V45.1436C89.4551 44.6781 89.5088 44.2842 89.6162 43.9619C89.7269 43.6396 89.875 43.3809 90.0605 43.1855C90.2461 42.987 90.4561 42.8437 90.6904 42.7559C90.9248 42.6647 91.1657 42.6191 91.4131 42.6191C91.7451 42.6191 92.0283 42.6729 92.2627 42.7803C92.4971 42.8877 92.6875 43.0472 92.834 43.2588C92.9805 43.4704 93.0879 43.7308 93.1562 44.04C93.2279 44.3493 93.2637 44.7057 93.2637 45.1094V45.6123L89.9629 45.6123V44.875L92.3994 44.875V44.7529C92.3864 44.4795 92.349 44.2386 92.2871 44.0303C92.2285 43.8219 92.1309 43.6592 91.9941 43.542C91.8574 43.4215 91.6637 43.3613 91.4131 43.3613C91.2536 43.3613 91.1055 43.389 90.9688 43.4443C90.8353 43.4964 90.7197 43.5892 90.6221 43.7227C90.5277 43.8529 90.4528 44.0335 90.3975 44.2646C90.3454 44.4958 90.3193 44.7887 90.3193 45.1436V45.7393C90.3193 46.0225 90.3454 46.2666 90.3975 46.4717C90.4528 46.6735 90.5326 46.8411 90.6367 46.9746C90.7441 47.1048 90.8743 47.2025 91.0273 47.2676C91.1836 47.3294 91.361 47.3604 91.5596 47.3604C91.8493 47.3604 92.0885 47.305 92.2773 47.1943C92.4661 47.0804 92.6305 46.9355 92.7705 46.7598L93.2246 47.3018C93.1302 47.4352 93.0065 47.5638 92.8535 47.6875C92.7038 47.8079 92.5182 47.9072 92.2969 47.9854C92.0788 48.0602 91.8167 48.0977 91.5107 48.0977ZM97.4678 43.7324V50.0312H96.6035V42.7168H97.3896L97.4678 43.7324ZM100.422 45.1191V45.6123C100.422 46.029 100.383 46.3936 100.305 46.7061C100.23 47.0153 100.118 47.2741 99.9678 47.4824C99.8213 47.6875 99.6406 47.8421 99.4258 47.9463C99.2109 48.0472 98.9652 48.0977 98.6885 48.0977C98.4118 48.0977 98.1709 48.0456 97.9658 47.9414C97.764 47.834 97.5931 47.6794 97.4531 47.4775C97.3164 47.2757 97.2074 47.0332 97.126 46.75C97.0479 46.4635 96.9941 46.1429 96.9648 45.7881V45.0361C96.9941 44.6618 97.0479 44.3265 97.126 44.0303C97.2041 43.7308 97.3115 43.4769 97.4482 43.2686C97.5882 43.057 97.7591 42.8958 97.9609 42.7852C98.166 42.6745 98.4053 42.6191 98.6787 42.6191C98.9619 42.6191 99.2109 42.668 99.4258 42.7656C99.6439 42.8633 99.8262 43.0146 99.9727 43.2197C100.122 43.4215 100.235 43.6803 100.31 43.9961C100.384 44.3086 100.422 44.6829 100.422 45.1191ZM99.5576 45.6123V45.1191C99.5576 44.8262 99.5348 44.5706 99.4893 44.3525C99.4469 44.1344 99.3786 43.9538 99.2842 43.8105C99.1898 43.6673 99.071 43.5599 98.9277 43.4883C98.7845 43.4167 98.612 43.3809 98.4102 43.3809C98.2376 43.3809 98.0846 43.4167 97.9512 43.4883C97.821 43.5599 97.7087 43.6576 97.6143 43.7812C97.5199 43.9017 97.4417 44.04 97.3799 44.1963C97.318 44.3493 97.2725 44.5088 97.2432 44.6748V46.1543C97.2985 46.3626 97.3717 46.5596 97.4629 46.7451C97.554 46.9274 97.6761 47.0755 97.8291 47.1895C97.9854 47.3034 98.1823 47.3604 98.4199 47.3604C98.6185 47.3604 98.7894 47.3245 98.9326 47.2529C99.0758 47.1813 99.193 47.0739 99.2842 46.9307C99.3786 46.7842 99.4469 46.6019 99.4893 46.3838C99.5348 46.1624 99.5576 45.9053 99.5576 45.6123ZM102.463 40.5V48H101.604V40.5H102.463ZM106.418 47.0967V44.2305C106.418 44.0221 106.385 43.8545 106.32 43.7275C106.258 43.6006 106.164 43.5078 106.037 43.4492C105.913 43.3906 105.757 43.3613 105.568 43.3613C105.386 43.3613 105.228 43.3988 105.095 43.4736C104.965 43.5485 104.864 43.6478 104.792 43.7715C104.724 43.8952 104.689 44.0319 104.689 44.1816H103.825C103.825 43.9928 103.866 43.8057 103.947 43.6201C104.032 43.4346 104.152 43.2669 104.309 43.1172C104.465 42.9642 104.652 42.8437 104.87 42.7559C105.091 42.6647 105.339 42.6191 105.612 42.6191C105.938 42.6191 106.226 42.6729 106.477 42.7803C106.727 42.8844 106.924 43.0553 107.067 43.293C107.211 43.5306 107.282 43.8464 107.282 44.2402V46.8477C107.282 47.0234 107.295 47.2106 107.321 47.4092C107.351 47.6077 107.391 47.7786 107.443 47.9219V48H106.55C106.507 47.8958 106.475 47.7575 106.452 47.585C106.429 47.4092 106.418 47.2464 106.418 47.0967ZM106.555 44.7969L106.564 45.4316H105.964C105.759 45.4316 105.572 45.4544 105.402 45.5C105.236 45.5456 105.093 45.6123 104.973 45.7002C104.852 45.7848 104.759 45.8906 104.694 46.0176C104.632 46.1445 104.602 46.2894 104.602 46.4521C104.602 46.6637 104.631 46.833 104.689 46.96C104.748 47.0837 104.836 47.1732 104.953 47.2285C105.07 47.2839 105.218 47.3115 105.397 47.3115C105.616 47.3115 105.808 47.2611 105.974 47.1602C106.14 47.0592 106.268 46.9372 106.359 46.7939C106.454 46.6507 106.498 46.5173 106.491 46.3936L106.682 46.7988C106.669 46.9258 106.626 47.0641 106.555 47.2139C106.486 47.3604 106.39 47.502 106.267 47.6387C106.143 47.7721 105.996 47.8828 105.827 47.9707C105.661 48.0553 105.474 48.0977 105.266 48.0977C104.96 48.0977 104.691 48.0391 104.46 47.9219C104.232 47.8047 104.055 47.6322 103.928 47.4043C103.801 47.1764 103.737 46.8949 103.737 46.5596C103.737 46.3057 103.781 46.0713 103.869 45.8564C103.957 45.6416 104.087 45.4561 104.26 45.2998C104.432 45.1403 104.649 45.0166 104.909 44.9287C105.173 44.8408 105.477 44.7969 105.822 44.7969H106.555ZM110.554 42.7168V43.4102H108.088V42.7168H110.554ZM108.894 41.4326H109.758V46.6914C109.758 46.8704 109.779 47.0055 109.821 47.0967C109.867 47.1878 109.924 47.248 109.992 47.2773C110.061 47.3066 110.134 47.3213 110.212 47.3213C110.271 47.3213 110.336 47.3148 110.407 47.3018C110.479 47.2855 110.528 47.2725 110.554 47.2627L110.549 48C110.49 48.0228 110.412 48.0439 110.314 48.0635C110.217 48.0863 110.093 48.0977 109.943 48.0977C109.758 48.0977 109.585 48.0537 109.426 47.9658C109.266 47.8779 109.138 47.7314 109.04 47.5264C108.942 47.318 108.894 47.0381 108.894 46.6865V41.4326ZM113.474 48.0977C113.158 48.0977 112.873 48.0505 112.619 47.9561C112.365 47.8617 112.149 47.7184 111.97 47.5264C111.791 47.3311 111.654 47.0853 111.56 46.7891C111.465 46.4928 111.418 46.1429 111.418 45.7393V45.1436C111.418 44.6781 111.472 44.2842 111.579 43.9619C111.69 43.6396 111.838 43.3809 112.023 43.1855C112.209 42.987 112.419 42.8437 112.653 42.7559C112.888 42.6647 113.129 42.6191 113.376 42.6191C113.708 42.6191 113.991 42.6729 114.226 42.7803C114.46 42.8877 114.65 43.0472 114.797 43.2588C114.943 43.4704 115.051 43.7308 115.119 44.04C115.191 44.3493 115.227 44.7057 115.227 45.1094V45.6123H111.926V44.875H114.362V44.7529C114.349 44.4795 114.312 44.2386 114.25 44.0303C114.191 43.8219 114.094 43.6592 113.957 43.542C113.82 43.4215 113.627 43.3613 113.376 43.3613C113.216 43.3613 113.068 43.389 112.932 43.4443C112.798 43.4964 112.683 43.5892 112.585 43.7227C112.491 43.8529 112.416 44.0335 112.36 44.2646C112.308 44.4958 112.282 44.7887 112.282 45.1436V45.7393C112.282 46.0225 112.308 46.2666 112.36 46.4717C112.416 46.6735 112.495 46.8411 112.6 46.9746C112.707 47.1048 112.837 47.2025 112.99 47.2676C113.146 47.3294 113.324 47.3604 113.522 47.3604C113.812 47.3604 114.051 47.305 114.24 47.1943C114.429 47.0804 114.593 46.9355 114.733 46.7598L115.188 47.3018C115.093 47.4352 114.969 47.5638 114.816 47.6875C114.667 47.8079 114.481 47.9072 114.26 47.9854C114.042 48.0602 113.78 48.0977 113.474 48.0977ZM119.431 43.8447V48H118.566V42.7168H119.382L119.431 43.8447ZM119.221 45.1582L118.869 45.1436C118.866 44.7822 118.907 44.4486 118.991 44.1426C119.079 43.8333 119.203 43.5648 119.362 43.3369C119.525 43.109 119.719 42.9333 119.943 42.8096C120.168 42.6826 120.417 42.6191 120.69 42.6191C120.905 42.6191 121.101 42.6549 121.276 42.7266C121.452 42.7949 121.602 42.9056 121.726 43.0586C121.849 43.2116 121.944 43.4102 122.009 43.6543C122.077 43.8952 122.111 44.1898 122.111 44.5381V48H121.247V44.5283C121.247 44.2516 121.216 44.0303 121.154 43.8643C121.096 43.695 121.005 43.5729 120.881 43.498C120.76 43.4199 120.607 43.3809 120.422 43.3809C120.253 43.3809 120.095 43.4281 119.948 43.5225C119.802 43.6169 119.673 43.7471 119.562 43.9131C119.455 44.0791 119.37 44.2695 119.309 44.4844C119.25 44.696 119.221 44.9206 119.221 45.1582ZM126.081 46.7793V42.7168L126.945 42.7168V48H126.125L126.081 46.7793ZM126.242 45.666L126.584 45.6562C126.584 46.0078 126.553 46.3333 126.491 46.6328C126.433 46.929 126.335 47.1862 126.198 47.4043C126.065 47.6224 125.887 47.7933 125.666 47.917C125.445 48.0374 125.173 48.0977 124.851 48.0977C124.632 48.0977 124.434 48.0602 124.255 47.9854C124.079 47.9105 123.926 47.7949 123.796 47.6387C123.669 47.4824 123.57 47.279 123.498 47.0283C123.43 46.7777 123.396 46.4766 123.396 46.125V42.7168H124.255V46.1348C124.255 46.3724 124.276 46.5693 124.318 46.7256C124.361 46.8786 124.418 47.0007 124.489 47.0918C124.561 47.1797 124.641 47.2415 124.729 47.2773C124.816 47.3132 124.906 47.3311 124.997 47.3311C125.303 47.3311 125.547 47.2578 125.729 47.1113C125.912 46.9616 126.042 46.7614 126.12 46.5107C126.201 46.2568 126.242 45.9753 126.242 45.666ZM129.108 43.7666V48H128.249V42.7168H129.06L129.108 43.7666ZM128.933 45.1582L128.532 45.1436C128.529 44.7822 128.565 44.4486 128.64 44.1426C128.715 43.8333 128.827 43.5648 128.977 43.3369C129.13 43.109 129.32 42.9333 129.548 42.8096C129.779 42.6826 130.048 42.6191 130.354 42.6191C130.555 42.6191 130.743 42.6549 130.915 42.7266C131.091 42.7949 131.244 42.904 131.374 43.0537C131.504 43.2035 131.605 43.3955 131.677 43.6299C131.752 43.8643 131.789 44.1475 131.789 44.4795V48H130.925V44.5234C130.925 44.2467 130.887 44.0254 130.812 43.8594C130.741 43.6934 130.638 43.5729 130.505 43.498C130.371 43.4199 130.212 43.3809 130.026 43.3809C129.815 43.3809 129.637 43.4281 129.494 43.5225C129.354 43.6169 129.242 43.7471 129.157 43.9131C129.076 44.0791 129.017 44.2695 128.981 44.4844C128.949 44.696 128.933 44.9206 128.933 45.1582ZM131.779 44.6602L131.203 44.8457C131.2 44.556 131.236 44.2777 131.311 44.0107C131.385 43.7438 131.496 43.5062 131.643 43.2979C131.792 43.0895 131.978 42.9251 132.199 42.8047C132.421 42.681 132.678 42.6191 132.971 42.6191C133.212 42.6191 133.425 42.6566 133.61 42.7314C133.796 42.8063 133.952 42.9219 134.079 43.0781C134.209 43.2311 134.307 43.4281 134.372 43.6689C134.437 43.9098 134.47 44.1963 134.47 44.5283V48H133.605V44.5186C133.605 44.2223 133.568 43.9928 133.493 43.8301C133.422 43.6641 133.319 43.5485 133.186 43.4834C133.052 43.415 132.893 43.3809 132.707 43.3809C132.557 43.3809 132.424 43.415 132.307 43.4834C132.193 43.5518 132.097 43.6462 132.019 43.7666C131.94 43.8838 131.88 44.0189 131.838 44.1719C131.799 44.3249 131.779 44.4876 131.779 44.6602ZM135.773 40.5H136.638V46.9746L136.564 48H135.773V40.5ZM139.602 45.1191V45.6123C139.602 46.029 139.562 46.3936 139.484 46.7061C139.41 47.0153 139.297 47.2741 139.147 47.4824C138.998 47.6875 138.815 47.8421 138.601 47.9463C138.386 48.0472 138.14 48.0977 137.863 48.0977C137.59 48.0977 137.354 48.0423 137.155 47.9316C136.957 47.821 136.791 47.6615 136.657 47.4531C136.524 47.2448 136.418 46.9925 136.34 46.6963C136.265 46.4001 136.213 46.0664 136.184 45.6953V45.0361C136.213 44.6618 136.265 44.3265 136.34 44.0303C136.415 43.7308 136.519 43.4769 136.652 43.2686C136.786 43.057 136.952 42.8958 137.15 42.7852C137.349 42.6745 137.585 42.6191 137.858 42.6191C138.138 42.6191 138.386 42.668 138.601 42.7656C138.819 42.8633 139.001 43.0146 139.147 43.2197C139.297 43.4215 139.41 43.6803 139.484 43.9961C139.562 44.3086 139.602 44.6829 139.602 45.1191ZM138.737 45.6123V45.1191C138.737 44.8262 138.718 44.5706 138.679 44.3525C138.643 44.1344 138.583 43.9538 138.498 43.8105C138.413 43.6673 138.299 43.5599 138.156 43.4883C138.016 43.4167 137.842 43.3809 137.634 43.3809C137.458 43.3809 137.303 43.4167 137.17 43.4883C137.04 43.5599 136.927 43.6576 136.833 43.7812C136.739 43.9017 136.66 44.04 136.599 44.1963C136.537 44.3493 136.491 44.5088 136.462 44.6748V46.0615C136.504 46.2731 136.571 46.4766 136.662 46.6719C136.757 46.8639 136.883 47.0218 137.043 47.1455C137.202 47.2692 137.401 47.3311 137.639 47.3311C137.837 47.3311 138.005 47.2969 138.142 47.2285C138.282 47.1602 138.396 47.056 138.483 46.916C138.571 46.7728 138.635 46.5937 138.674 46.3789C138.716 46.1608 138.737 45.9053 138.737 45.6123ZM142.595 48.0977C142.279 48.0977 141.994 48.0505 141.74 47.9561C141.486 47.8617 141.27 47.7184 141.091 47.5264C140.912 47.3311 140.775 47.0853 140.681 46.7891C140.586 46.4928 140.539 46.1429 140.539 45.7393V45.1436C140.539 44.6781 140.593 44.2842 140.7 43.9619C140.811 43.6396 140.959 43.3809 141.145 43.1855C141.33 42.987 141.54 42.8437 141.774 42.7559C142.009 42.6647 142.25 42.6191 142.497 42.6191C142.829 42.6191 143.112 42.6729 143.347 42.7803C143.581 42.8877 143.771 43.0472 143.918 43.2588C144.064 43.4704 144.172 43.7308 144.24 44.04C144.312 44.3493 144.348 44.7057 144.348 45.1094V45.6123H141.047V44.875H143.483V44.7529C143.47 44.4795 143.433 44.2386 143.371 44.0303C143.312 43.8219 143.215 43.6592 143.078 43.542C142.941 43.4215 142.748 43.3613 142.497 43.3613C142.338 43.3613 142.189 43.389 142.053 43.4443C141.919 43.4964 141.804 43.5892 141.706 43.7227C141.612 43.8529 141.537 44.0335 141.481 44.2646C141.429 44.4958 141.403 44.7887 141.403 45.1436V45.7393C141.403 46.0225 141.429 46.2666 141.481 46.4717C141.537 46.6735 141.617 46.8411 141.721 46.9746C141.828 47.1048 141.958 47.2025 142.111 47.2676C142.268 47.3294 142.445 47.3604 142.644 47.3604C142.933 47.3604 143.173 47.305 143.361 47.1943C143.55 47.0804 143.715 46.9355 143.854 46.7598L144.309 47.3018C144.214 47.4352 144.09 47.5638 143.938 47.6875C143.788 47.8079 143.602 47.9072 143.381 47.9854C143.163 48.0602 142.901 48.0977 142.595 48.0977ZM146.257 43.5469V48H145.393V42.7168H146.228L146.257 43.5469ZM147.57 42.6875L147.575 43.5273C147.504 43.5111 147.438 43.5013 147.38 43.498C147.325 43.4915 147.259 43.4883 147.185 43.4883C147.022 43.4883 146.879 43.5208 146.755 43.5859C146.634 43.651 146.53 43.7422 146.442 43.8594C146.354 43.9766 146.285 44.1165 146.232 44.2793C146.18 44.4388 146.145 44.6146 146.125 44.8066L145.9 44.9531C145.9 44.6341 145.925 44.3346 145.974 44.0547C146.026 43.7747 146.105 43.5273 146.213 43.3125C146.32 43.0944 146.457 42.9251 146.623 42.8047C146.792 42.681 146.994 42.6191 147.229 42.6191C147.281 42.6191 147.344 42.6273 147.419 42.6436C147.497 42.6566 147.548 42.6712 147.57 42.6875Z" fill="url(#paint1_linear_1406_1429)"/>
<path d="M189.213 44.6748H187.768L187.758 43.918H189.101C189.302 43.918 189.481 43.8724 189.638 43.7812C189.794 43.6901 189.916 43.5599 190.004 43.3906C190.095 43.2181 190.141 43.013 190.141 42.7754C190.141 42.515 190.102 42.3034 190.023 42.1406C189.949 41.9746 189.833 41.8542 189.677 41.7793C189.524 41.7012 189.328 41.6621 189.091 41.6621H187.958V48H187.06V40.8906H189.091C189.397 40.8906 189.67 40.9281 189.911 41.0029C190.152 41.0745 190.355 41.1885 190.521 41.3447C190.691 41.4977 190.819 41.693 190.907 41.9307C190.995 42.1683 191.039 42.4531 191.039 42.7852C191.039 43.0781 190.972 43.3434 190.839 43.5811C190.709 43.8154 190.526 44.0075 190.292 44.1572C190.058 44.307 189.787 44.403 189.481 44.4453L189.213 44.6748ZM189.179 48H187.396L187.919 47.2334H189.179C189.413 47.2334 189.612 47.1813 189.774 47.0771C189.937 46.973 190.061 46.8265 190.146 46.6377C190.233 46.4456 190.277 46.2194 190.277 45.959C190.277 45.6953 190.242 45.4674 190.17 45.2754C190.098 45.0833 189.984 44.9352 189.828 44.8311C189.672 44.7269 189.467 44.6748 189.213 44.6748H188.056L188.065 43.918H189.628L189.828 44.1914C190.121 44.2207 190.367 44.3184 190.565 44.4844C190.767 44.6471 190.919 44.8555 191.02 45.1094C191.124 45.3633 191.176 45.6432 191.176 45.9492C191.176 46.3919 191.093 46.7663 190.927 47.0723C190.764 47.375 190.533 47.6061 190.233 47.7656C189.934 47.9219 189.582 48 189.179 48ZM193.329 42.7168V48H192.47V42.7168H193.329ZM192.421 41.3154C192.421 41.1689 192.462 41.0452 192.543 40.9443C192.624 40.8434 192.746 40.793 192.909 40.793C193.072 40.793 193.194 40.8434 193.275 40.9443C193.36 41.0452 193.402 41.1689 193.402 41.3154C193.402 41.4554 193.36 41.5758 193.275 41.6768C193.194 41.7744 193.072 41.8232 192.909 41.8232C192.746 41.8232 192.624 41.7744 192.543 41.6768C192.462 41.5758 192.421 41.4554 192.421 41.3154ZM195.624 40.5V48H194.765V40.5H195.624ZM197.919 40.5V48H197.06V40.5H197.919ZM200.214 42.7168V48H199.354V42.7168H200.214ZM199.306 41.3154C199.306 41.1689 199.346 41.0452 199.428 40.9443C199.509 40.8434 199.631 40.793 199.794 40.793C199.957 40.793 200.079 40.8434 200.16 40.9443C200.245 41.0452 200.287 41.1689 200.287 41.3154C200.287 41.4554 200.245 41.5758 200.16 41.6768C200.079 41.7744 199.957 41.8232 199.794 41.8232C199.631 41.8232 199.509 41.7744 199.428 41.6768C199.346 41.5758 199.306 41.4554 199.306 41.3154ZM202.445 43.8447V48H201.581V42.7168H202.396L202.445 43.8447ZM202.235 45.1582L201.884 45.1436C201.881 44.7822 201.921 44.4486 202.006 44.1426C202.094 43.8333 202.217 43.5648 202.377 43.3369C202.54 43.109 202.733 42.9333 202.958 42.8096C203.183 42.6826 203.432 42.6191 203.705 42.6191C203.92 42.6191 204.115 42.6549 204.291 42.7266C204.467 42.7949 204.617 42.9056 204.74 43.0586C204.864 43.2116 204.958 43.4102 205.023 43.6543C205.092 43.8952 205.126 44.1898 205.126 44.5381V48H204.262V44.5283C204.262 44.2516 204.231 44.0303 204.169 43.8643C204.11 43.695 204.019 43.5729 203.896 43.498C203.775 43.4199 203.622 43.3809 203.437 43.3809C203.267 43.3809 203.109 43.4281 202.963 43.5225C202.816 43.6169 202.688 43.7471 202.577 43.9131C202.47 44.0791 202.385 44.2695 202.323 44.4844C202.265 44.696 202.235 44.9206 202.235 45.1582ZM209.286 42.7168H210.062V48.0439C210.062 48.5094 209.981 48.8936 209.818 49.1963C209.659 49.499 209.436 49.722 209.149 49.8652C208.863 50.0117 208.533 50.085 208.158 50.085C208.025 50.085 207.857 50.0605 207.655 50.0117C207.453 49.9629 207.252 49.888 207.05 49.7871C206.848 49.6895 206.682 49.5658 206.552 49.416L206.908 48.8154C207.094 49.0042 207.291 49.1393 207.499 49.2207C207.707 49.3021 207.906 49.3428 208.095 49.3428C208.319 49.3428 208.515 49.3021 208.681 49.2207C208.847 49.1393 208.975 49.0059 209.066 48.8203C209.158 48.638 209.203 48.3939 209.203 48.0879V43.8789L209.286 42.7168ZM206.249 45.6123V45.1191C206.249 44.6829 206.29 44.3086 206.371 43.9961C206.452 43.6803 206.57 43.4215 206.723 43.2197C206.879 43.0146 207.066 42.8633 207.284 42.7656C207.502 42.668 207.746 42.6191 208.017 42.6191C208.29 42.6191 208.526 42.6745 208.725 42.7852C208.923 42.8958 209.088 43.057 209.218 43.2686C209.351 43.4769 209.455 43.7308 209.53 44.0303C209.608 44.3265 209.662 44.6618 209.691 45.0361V45.6953C209.662 46.0664 209.608 46.4001 209.53 46.6963C209.455 46.9925 209.35 47.2448 209.213 47.4531C209.079 47.6615 208.913 47.821 208.715 47.9316C208.516 48.0423 208.28 48.0977 208.007 48.0977C207.74 48.0977 207.499 48.0472 207.284 47.9463C207.069 47.8421 206.884 47.6875 206.728 47.4824C206.575 47.2741 206.456 47.0153 206.371 46.7061C206.29 46.3936 206.249 46.029 206.249 45.6123ZM207.113 45.1191V45.6123C207.113 45.9053 207.134 46.1608 207.177 46.3789C207.219 46.5938 207.284 46.7728 207.372 46.916C207.463 47.056 207.579 47.1602 207.719 47.2285C207.862 47.2969 208.033 47.3311 208.231 47.3311C208.472 47.3311 208.669 47.2725 208.822 47.1553C208.975 47.0381 209.097 46.8835 209.188 46.6914C209.283 46.4961 209.358 46.2861 209.413 46.0615V44.6748C209.381 44.5088 209.333 44.3493 209.271 44.1963C209.213 44.04 209.136 43.9017 209.042 43.7812C208.948 43.6576 208.834 43.5599 208.7 43.4883C208.57 43.4167 208.417 43.3809 208.241 43.3809C208.043 43.3809 207.872 43.4167 207.729 43.4883C207.585 43.5599 207.468 43.6673 207.377 43.8105C207.286 43.9538 207.219 44.1344 207.177 44.3525C207.134 44.5706 207.113 44.8262 207.113 45.1191Z" fill="url(#paint2_linear_1406_1429)"/>
<path d="M269.793 41.9209L271.502 35.8906H272.479L270.271 43H269.583L269.793 41.9209ZM268.26 35.8906L269.954 41.9209L270.179 43H269.49L267.283 35.8906H268.26ZM275.003 43.0977C274.687 43.0977 274.402 43.0505 274.148 42.9561C273.895 42.8617 273.678 42.7184 273.499 42.5264C273.32 42.3311 273.183 42.0853 273.089 41.7891C272.994 41.4928 272.947 41.1429 272.947 40.7393V40.1436C272.947 39.6781 273.001 39.2842 273.108 38.9619C273.219 38.6396 273.367 38.3809 273.553 38.1855C273.738 37.987 273.948 37.8438 274.183 37.7559C274.417 37.6647 274.658 37.6191 274.905 37.6191C275.237 37.6191 275.521 37.6729 275.755 37.7803C275.989 37.8877 276.18 38.0472 276.326 38.2588C276.473 38.4704 276.58 38.7308 276.648 39.04C276.72 39.3493 276.756 39.7057 276.756 40.1094V40.6123H273.455V39.875H275.892V39.7529C275.879 39.4795 275.841 39.2386 275.779 39.0303C275.721 38.8219 275.623 38.6592 275.486 38.542C275.35 38.4215 275.156 38.3613 274.905 38.3613C274.746 38.3613 274.598 38.389 274.461 38.4443C274.327 38.4964 274.212 38.5892 274.114 38.7227C274.02 38.8529 273.945 39.0335 273.89 39.2646C273.838 39.4958 273.812 39.7887 273.812 40.1436V40.7393C273.812 41.0225 273.838 41.2666 273.89 41.4717C273.945 41.6735 274.025 41.8411 274.129 41.9746C274.236 42.1048 274.367 42.2025 274.52 42.2676C274.676 42.3294 274.853 42.3604 275.052 42.3604C275.341 42.3604 275.581 42.305 275.77 42.1943C275.958 42.0804 276.123 41.9355 276.263 41.7598L276.717 42.3018C276.622 42.4352 276.499 42.5638 276.346 42.6875C276.196 42.8079 276.01 42.9072 275.789 42.9854C275.571 43.0602 275.309 43.0977 275.003 43.0977ZM278.665 38.5469V43H277.801V37.7168H278.636L278.665 38.5469ZM279.979 37.6875L279.983 38.5273C279.912 38.5111 279.847 38.5013 279.788 38.498C279.733 38.4915 279.668 38.4883 279.593 38.4883C279.43 38.4883 279.287 38.5208 279.163 38.5859C279.043 38.651 278.938 38.7422 278.851 38.8594C278.763 38.9766 278.693 39.1165 278.641 39.2793C278.589 39.4388 278.553 39.6146 278.533 39.8066L278.309 39.9531C278.309 39.6341 278.333 39.3346 278.382 39.0547C278.434 38.7747 278.514 38.5273 278.621 38.3125C278.729 38.0944 278.865 37.9251 279.031 37.8047C279.201 37.681 279.402 37.6191 279.637 37.6191C279.689 37.6191 279.752 37.6273 279.827 37.6436C279.905 37.6566 279.956 37.6712 279.979 37.6875ZM281.775 37.7168V43H280.916V37.7168H281.775ZM280.867 36.3154C280.867 36.1689 280.908 36.0452 280.989 35.9443C281.071 35.8434 281.193 35.793 281.355 35.793C281.518 35.793 281.64 35.8434 281.722 35.9443C281.806 36.0452 281.849 36.1689 281.849 36.3154C281.849 36.4554 281.806 36.5758 281.722 36.6768C281.64 36.7744 281.518 36.8232 281.355 36.8232C281.193 36.8232 281.071 36.7744 280.989 36.6768C280.908 36.5758 280.867 36.4554 280.867 36.3154ZM284.246 43H283.382V37.2578C283.382 36.8574 283.449 36.5189 283.582 36.2422C283.719 35.9655 283.912 35.7555 284.163 35.6123C284.417 35.4691 284.716 35.3975 285.062 35.3975C285.267 35.3975 285.464 35.4268 285.652 35.4854C285.841 35.5407 286.036 35.6107 286.238 35.6953L286.092 36.457C285.975 36.3984 285.831 36.3431 285.662 36.291C285.493 36.2357 285.315 36.208 285.13 36.208C284.804 36.208 284.575 36.2959 284.441 36.4717C284.311 36.6442 284.246 36.9062 284.246 37.2578V43ZM285.101 37.7168V38.4102H282.693V37.7168H285.101ZM286.653 37.7168V43H285.789V37.7168H286.653ZM289.876 42.3604C290.049 42.3604 290.205 42.3262 290.345 42.2578C290.488 42.1862 290.605 42.0755 290.696 41.9258C290.787 41.7728 290.84 41.5742 290.853 41.3301H291.663C291.65 41.6816 291.561 41.9909 291.395 42.2578C291.232 42.5215 291.017 42.7282 290.75 42.8779C290.486 43.0244 290.195 43.0977 289.876 43.0977C289.534 43.0977 289.236 43.0423 288.982 42.9316C288.732 42.821 288.523 42.6615 288.357 42.4531C288.195 42.2415 288.073 41.986 287.991 41.6865C287.91 41.3838 287.869 41.0404 287.869 40.6562V40.0605C287.869 39.6764 287.91 39.3346 287.991 39.0352C288.073 38.7324 288.195 38.4769 288.357 38.2686C288.523 38.057 288.732 37.8958 288.982 37.7852C289.236 37.6745 289.534 37.6191 289.876 37.6191C290.234 37.6191 290.543 37.6956 290.804 37.8486C291.067 37.9984 291.272 38.2165 291.419 38.5029C291.569 38.7861 291.65 39.1296 291.663 39.5332H290.853C290.84 39.2728 290.792 39.0563 290.711 38.8838C290.63 38.708 290.519 38.5778 290.379 38.4932C290.239 38.4053 290.071 38.3613 289.876 38.3613C289.648 38.3613 289.459 38.402 289.31 38.4834C289.163 38.5615 289.048 38.6755 288.963 38.8252C288.878 38.9749 288.818 39.154 288.782 39.3623C288.75 39.5706 288.733 39.8034 288.733 40.0605V40.6562C288.733 40.9134 288.75 41.1478 288.782 41.3594C288.818 41.5677 288.877 41.7467 288.958 41.8965C289.043 42.0462 289.16 42.1618 289.31 42.2432C289.459 42.3213 289.648 42.3604 289.876 42.3604ZM295.252 42.0967V39.2305C295.252 39.0221 295.219 38.8545 295.154 38.7275C295.092 38.6006 294.998 38.5078 294.871 38.4492C294.747 38.3906 294.591 38.3613 294.402 38.3613C294.22 38.3613 294.062 38.3988 293.929 38.4736C293.799 38.5485 293.698 38.6478 293.626 38.7715C293.558 38.8952 293.523 39.0319 293.523 39.1816H292.659C292.659 38.9928 292.7 38.8057 292.781 38.6201C292.866 38.4346 292.986 38.2669 293.143 38.1172C293.299 37.9642 293.486 37.8437 293.704 37.7559C293.925 37.6647 294.173 37.6191 294.446 37.6191C294.772 37.6191 295.06 37.6729 295.311 37.7803C295.561 37.8844 295.758 38.0553 295.901 38.293C296.045 38.5306 296.116 38.8464 296.116 39.2402V41.8477C296.116 42.0234 296.129 42.2106 296.155 42.4092C296.185 42.6077 296.225 42.7786 296.277 42.9219V43H295.384C295.341 42.8958 295.309 42.7575 295.286 42.585C295.263 42.4092 295.252 42.2464 295.252 42.0967ZM295.389 39.7969L295.398 40.4316H294.798C294.593 40.4316 294.406 40.4544 294.236 40.5C294.07 40.5456 293.927 40.6123 293.807 40.7002C293.686 40.7848 293.593 40.8906 293.528 41.0176C293.466 41.1445 293.436 41.2894 293.436 41.4521C293.436 41.6637 293.465 41.833 293.523 41.96C293.582 42.0837 293.67 42.1732 293.787 42.2285C293.904 42.2839 294.052 42.3115 294.231 42.3115C294.45 42.3115 294.642 42.2611 294.808 42.1602C294.974 42.0592 295.102 41.9372 295.193 41.7939C295.288 41.6507 295.332 41.5173 295.325 41.3936L295.516 41.7988C295.503 41.9258 295.46 42.0641 295.389 42.2139C295.32 42.3604 295.224 42.502 295.101 42.6387C294.977 42.7721 294.83 42.8828 294.661 42.9707C294.495 43.0553 294.308 43.0977 294.1 43.0977C293.794 43.0977 293.525 43.0391 293.294 42.9219C293.066 42.8047 292.889 42.6322 292.762 42.4043C292.635 42.1764 292.571 41.8949 292.571 41.5596C292.571 41.3057 292.615 41.0713 292.703 40.8564C292.791 40.6416 292.921 40.4561 293.094 40.2998C293.266 40.1403 293.483 40.0166 293.743 39.9287C294.007 39.8408 294.311 39.7969 294.656 39.7969H295.389ZM299.388 37.7168V38.4102H296.922V37.7168H299.388ZM297.728 36.4326H298.592V41.6914C298.592 41.8704 298.613 42.0055 298.655 42.0967C298.701 42.1878 298.758 42.248 298.826 42.2773C298.895 42.3066 298.968 42.3213 299.046 42.3213C299.104 42.3213 299.17 42.3148 299.241 42.3018C299.313 42.2855 299.362 42.2725 299.388 42.2627L299.383 43C299.324 43.0228 299.246 43.0439 299.148 43.0635C299.051 43.0863 298.927 43.0977 298.777 43.0977C298.592 43.0977 298.419 43.0537 298.26 42.9658C298.1 42.8779 297.972 42.7314 297.874 42.5264C297.776 42.318 297.728 42.0381 297.728 41.6865V36.4326ZM301.346 37.7168V43H300.486V37.7168H301.346ZM300.438 36.3154C300.438 36.1689 300.478 36.0452 300.56 35.9443C300.641 35.8434 300.763 35.793 300.926 35.793C301.089 35.793 301.211 35.8434 301.292 35.9443C301.377 36.0452 301.419 36.1689 301.419 36.3154C301.419 36.4554 301.377 36.5758 301.292 36.6768C301.211 36.7744 301.089 36.8232 300.926 36.8232C300.763 36.8232 300.641 36.7744 300.56 36.6768C300.478 36.5758 300.438 36.4554 300.438 36.3154ZM302.532 40.6123V40.1094C302.532 39.6992 302.584 39.3395 302.688 39.0303C302.793 38.7178 302.938 38.4574 303.123 38.249C303.309 38.0407 303.525 37.8844 303.772 37.7803C304.02 37.6729 304.285 37.6191 304.568 37.6191C304.858 37.6191 305.127 37.6729 305.374 37.7803C305.621 37.8844 305.838 38.0407 306.023 38.249C306.212 38.4574 306.359 38.7178 306.463 39.0303C306.567 39.3395 306.619 39.6992 306.619 40.1094V40.6123C306.619 41.0225 306.567 41.3838 306.463 41.6963C306.359 42.0055 306.214 42.2643 306.028 42.4727C305.843 42.681 305.626 42.8372 305.379 42.9414C305.132 43.0456 304.865 43.0977 304.578 43.0977C304.292 43.0977 304.025 43.0456 303.777 42.9414C303.53 42.8372 303.312 42.681 303.123 42.4727C302.938 42.2643 302.793 42.0055 302.688 41.6963C302.584 41.3838 302.532 41.0225 302.532 40.6123ZM303.396 40.1094V40.6123C303.396 40.902 303.426 41.1559 303.484 41.374C303.543 41.5921 303.626 41.7744 303.733 41.9209C303.841 42.0674 303.966 42.1781 304.109 42.2529C304.253 42.3245 304.409 42.3604 304.578 42.3604C304.773 42.3604 304.944 42.3245 305.091 42.2529C305.241 42.1781 305.364 42.0674 305.462 41.9209C305.56 41.7744 305.633 41.5921 305.682 41.374C305.73 41.1559 305.755 40.902 305.755 40.6123V40.1094C305.755 39.8197 305.726 39.5674 305.667 39.3525C305.608 39.1344 305.525 38.9521 305.418 38.8057C305.311 38.6559 305.184 38.5452 305.037 38.4736C304.894 38.3988 304.738 38.3613 304.568 38.3613C304.402 38.3613 304.248 38.3988 304.104 38.4736C303.961 38.5452 303.836 38.6559 303.729 38.8057C303.624 38.9521 303.543 39.1344 303.484 39.3525C303.426 39.5674 303.396 39.8197 303.396 40.1094ZM308.597 38.8447V43H307.732V37.7168H308.548L308.597 38.8447ZM308.387 40.1582L308.035 40.1436C308.032 39.7822 308.073 39.4486 308.157 39.1426C308.245 38.8333 308.369 38.5648 308.528 38.3369C308.691 38.109 308.885 37.9333 309.109 37.8096C309.334 37.6826 309.583 37.6191 309.856 37.6191C310.071 37.6191 310.267 37.6549 310.442 37.7266C310.618 37.7949 310.768 37.9056 310.892 38.0586C311.015 38.2116 311.11 38.4102 311.175 38.6543C311.243 38.8952 311.277 39.1898 311.277 39.5381V43H310.413V39.5283C310.413 39.2516 310.382 39.0303 310.32 38.8643C310.262 38.695 310.171 38.5729 310.047 38.498C309.926 38.4199 309.773 38.3809 309.588 38.3809C309.419 38.3809 309.261 38.4281 309.114 38.5225C308.968 38.6169 308.839 38.7471 308.729 38.9131C308.621 39.0791 308.536 39.2695 308.475 39.4844C308.416 39.696 308.387 39.9206 308.387 40.1582ZM285.438 53.0967V50.2305C285.438 50.0221 285.405 49.8545 285.34 49.7275C285.278 49.6006 285.184 49.5078 285.057 49.4492C284.933 49.3906 284.777 49.3613 284.588 49.3613C284.406 49.3613 284.248 49.3988 284.114 49.4736C283.984 49.5485 283.883 49.6478 283.812 49.7715C283.743 49.8952 283.709 50.0319 283.709 50.1816H282.845C282.845 49.9928 282.885 49.8057 282.967 49.6201C283.051 49.4346 283.172 49.2669 283.328 49.1172C283.484 48.9642 283.672 48.8438 283.89 48.7559C284.111 48.6647 284.358 48.6191 284.632 48.6191C284.957 48.6191 285.245 48.6729 285.496 48.7803C285.747 48.8844 285.944 49.0553 286.087 49.293C286.23 49.5306 286.302 49.8464 286.302 50.2402V52.8477C286.302 53.0234 286.315 53.2106 286.341 53.4092C286.37 53.6077 286.411 53.7786 286.463 53.9219V54H285.569C285.527 53.8958 285.494 53.7575 285.472 53.585C285.449 53.4092 285.438 53.2464 285.438 53.0967ZM285.574 50.7969L285.584 51.4316H284.983C284.778 51.4316 284.591 51.4544 284.422 51.5C284.256 51.5456 284.113 51.6123 283.992 51.7002C283.872 51.7848 283.779 51.8906 283.714 52.0176C283.652 52.1445 283.621 52.2894 283.621 52.4521C283.621 52.6637 283.65 52.833 283.709 52.96C283.768 53.0837 283.855 53.1732 283.973 53.2285C284.09 53.2839 284.238 53.3115 284.417 53.3115C284.635 53.3115 284.827 53.2611 284.993 53.1602C285.159 53.0592 285.288 52.9372 285.379 52.7939C285.473 52.6507 285.517 52.5173 285.511 52.3936L285.701 52.7988C285.688 52.9258 285.646 53.0641 285.574 53.2139C285.506 53.3604 285.41 53.502 285.286 53.6387C285.162 53.7721 285.016 53.8828 284.847 53.9707C284.681 54.0553 284.493 54.0977 284.285 54.0977C283.979 54.0977 283.711 54.0391 283.479 53.9219C283.252 53.8047 283.074 53.6322 282.947 53.4043C282.82 53.1764 282.757 52.8949 282.757 52.5596C282.757 52.3057 282.801 52.0713 282.889 51.8564C282.977 51.6416 283.107 51.4561 283.279 51.2998C283.452 51.1403 283.668 51.0166 283.929 50.9287C284.192 50.8408 284.497 50.7969 284.842 50.7969H285.574ZM288.509 49.8447V54H287.645V48.7168H288.46L288.509 49.8447ZM288.299 51.1582L287.947 51.1436C287.944 50.7822 287.985 50.4486 288.069 50.1426C288.157 49.8333 288.281 49.5648 288.44 49.3369C288.603 49.109 288.797 48.9333 289.021 48.8096C289.246 48.6826 289.495 48.6191 289.769 48.6191C289.983 48.6191 290.179 48.6549 290.354 48.7266C290.53 48.7949 290.68 48.9056 290.804 49.0586C290.927 49.2116 291.022 49.4102 291.087 49.6543C291.155 49.8952 291.189 50.1898 291.189 50.5381V54H290.325V50.5283C290.325 50.2516 290.294 50.0303 290.232 49.8643C290.174 49.695 290.083 49.5729 289.959 49.498C289.839 49.4199 289.686 49.3809 289.5 49.3809C289.331 49.3809 289.173 49.4281 289.026 49.5225C288.88 49.6169 288.751 49.7471 288.641 49.9131C288.533 50.0791 288.449 50.2695 288.387 50.4844C288.328 50.696 288.299 50.9206 288.299 51.1582ZM295.257 52.9746V46.5H296.116V54H295.33L295.257 52.9746ZM292.303 51.6123V51.1191C292.303 50.6829 292.345 50.3086 292.43 49.9961C292.514 49.6803 292.635 49.4215 292.791 49.2197C292.947 49.0146 293.134 48.8633 293.353 48.7656C293.571 48.668 293.812 48.6191 294.075 48.6191C294.349 48.6191 294.583 48.6745 294.778 48.7852C294.977 48.8958 295.143 49.057 295.276 49.2686C295.41 49.4769 295.514 49.7308 295.589 50.0303C295.667 50.3265 295.719 50.6618 295.745 51.0361V51.6953C295.716 52.0664 295.662 52.4001 295.584 52.6963C295.509 52.9925 295.405 53.2448 295.271 53.4531C295.138 53.6615 294.972 53.821 294.773 53.9316C294.575 54.0423 294.339 54.0977 294.065 54.0977C293.805 54.0977 293.567 54.0472 293.353 53.9463C293.138 53.8421 292.951 53.6875 292.791 53.4824C292.635 53.2741 292.514 53.0153 292.43 52.7061C292.345 52.3936 292.303 52.029 292.303 51.6123ZM293.167 51.1191V51.6123C293.167 51.9053 293.188 52.1608 293.23 52.3789C293.273 52.5938 293.34 52.7728 293.431 52.916C293.522 53.056 293.637 53.1602 293.777 53.2285C293.921 53.2969 294.091 53.3311 294.29 53.3311C294.531 53.3311 294.728 53.2725 294.881 53.1553C295.034 53.0381 295.156 52.8835 295.247 52.6914C295.341 52.4961 295.416 52.2861 295.472 52.0615V50.6748C295.439 50.5088 295.392 50.3493 295.33 50.1963C295.268 50.04 295.19 49.9017 295.096 49.7812C295.005 49.6576 294.892 49.5599 294.759 49.4883C294.629 49.4167 294.476 49.3809 294.3 49.3809C294.101 49.3809 293.929 49.4167 293.782 49.4883C293.639 49.5599 293.522 49.6673 293.431 49.8105C293.343 49.9538 293.276 50.1344 293.23 50.3525C293.188 50.5706 293.167 50.8262 293.167 51.1191ZM274.095 60.7324V67.0312H273.23V59.7168H274.017L274.095 60.7324ZM277.049 62.1191V62.6123C277.049 63.029 277.01 63.3936 276.932 63.7061C276.857 64.0153 276.744 64.2741 276.595 64.4824C276.448 64.6875 276.268 64.8421 276.053 64.9463C275.838 65.0472 275.592 65.0977 275.315 65.0977C275.039 65.0977 274.798 65.0456 274.593 64.9414C274.391 64.834 274.22 64.6794 274.08 64.4775C273.943 64.2757 273.834 64.0332 273.753 63.75C273.675 63.4635 273.621 63.1429 273.592 62.7881V62.0361C273.621 61.6618 273.675 61.3265 273.753 61.0303C273.831 60.7308 273.938 60.4769 274.075 60.2686C274.215 60.057 274.386 59.8958 274.588 59.7852C274.793 59.6745 275.032 59.6191 275.306 59.6191C275.589 59.6191 275.838 59.668 276.053 59.7656C276.271 59.8633 276.453 60.0146 276.6 60.2197C276.749 60.4215 276.862 60.6803 276.937 60.9961C277.011 61.3086 277.049 61.6829 277.049 62.1191ZM276.185 62.6123V62.1191C276.185 61.8262 276.162 61.5706 276.116 61.3525C276.074 61.1344 276.006 60.9538 275.911 60.8105C275.817 60.6673 275.698 60.5599 275.555 60.4883C275.411 60.4167 275.239 60.3809 275.037 60.3809C274.865 60.3809 274.712 60.4167 274.578 60.4883C274.448 60.5599 274.336 60.6576 274.241 60.7812C274.147 60.9017 274.069 61.04 274.007 61.1963C273.945 61.3493 273.899 61.5088 273.87 61.6748V63.1543C273.925 63.3626 273.999 63.5596 274.09 63.7451C274.181 63.9274 274.303 64.0755 274.456 64.1895C274.612 64.3034 274.809 64.3604 275.047 64.3604C275.245 64.3604 275.416 64.3245 275.56 64.2529C275.703 64.1813 275.82 64.0739 275.911 63.9307C276.006 63.7842 276.074 63.6019 276.116 63.3838C276.162 63.1624 276.185 62.9053 276.185 62.6123ZM280.75 64.0967V61.2305C280.75 61.0221 280.717 60.8545 280.652 60.7275C280.59 60.6006 280.496 60.5078 280.369 60.4492C280.245 60.3906 280.089 60.3613 279.9 60.3613C279.718 60.3613 279.56 60.3988 279.427 60.4736C279.297 60.5485 279.196 60.6478 279.124 60.7715C279.056 60.8952 279.021 61.0319 279.021 61.1816H278.157C278.157 60.9928 278.198 60.8057 278.279 60.6201C278.364 60.4346 278.484 60.2669 278.641 60.1172C278.797 59.9642 278.984 59.8438 279.202 59.7559C279.424 59.6647 279.671 59.6191 279.944 59.6191C280.27 59.6191 280.558 59.6729 280.809 59.7803C281.059 59.8844 281.256 60.0553 281.399 60.293C281.543 60.5306 281.614 60.8464 281.614 61.2402V63.8477C281.614 64.0234 281.627 64.2106 281.653 64.4092C281.683 64.6077 281.723 64.7786 281.775 64.9219V65H280.882C280.84 64.8958 280.807 64.7575 280.784 64.585C280.761 64.4092 280.75 64.2464 280.75 64.0967ZM280.887 61.7969L280.896 62.4316H280.296C280.091 62.4316 279.904 62.4544 279.734 62.5C279.568 62.5456 279.425 62.6123 279.305 62.7002C279.184 62.7848 279.091 62.8906 279.026 63.0176C278.965 63.1445 278.934 63.2894 278.934 63.4521C278.934 63.6637 278.963 63.833 279.021 63.96C279.08 64.0837 279.168 64.1732 279.285 64.2285C279.402 64.2839 279.55 64.3115 279.729 64.3115C279.948 64.3115 280.14 64.2611 280.306 64.1602C280.472 64.0592 280.6 63.9372 280.691 63.7939C280.786 63.6507 280.83 63.5173 280.823 63.3936L281.014 63.7988C281.001 63.9258 280.958 64.0641 280.887 64.2139C280.818 64.3604 280.722 64.502 280.599 64.6387C280.475 64.7721 280.328 64.8828 280.159 64.9707C279.993 65.0553 279.806 65.0977 279.598 65.0977C279.292 65.0977 279.023 65.0391 278.792 64.9219C278.564 64.8047 278.387 64.6322 278.26 64.4043C278.133 64.1764 278.069 63.8949 278.069 63.5596C278.069 63.3057 278.113 63.0713 278.201 62.8564C278.289 62.6416 278.419 62.4561 278.592 62.2998C278.764 62.1403 278.981 62.0166 279.241 61.9287C279.505 61.8408 279.809 61.7969 280.154 61.7969H280.887ZM284.104 64.4531L285.281 59.7168H286.199L284.456 65.8154C284.414 65.9456 284.357 66.0856 284.285 66.2354C284.217 66.3883 284.129 66.5332 284.021 66.6699C283.914 66.8066 283.785 66.9173 283.636 67.002C283.486 67.0898 283.31 67.1338 283.108 67.1338C283.047 67.1338 282.967 67.124 282.869 67.1045C282.775 67.085 282.706 67.0687 282.664 67.0557V66.3232C282.684 66.3265 282.715 66.3298 282.757 66.333C282.799 66.3395 282.83 66.3428 282.85 66.3428C283.019 66.3428 283.162 66.3151 283.279 66.2598C283.4 66.2077 283.502 66.1182 283.587 65.9912C283.672 65.8675 283.743 65.6966 283.802 65.4785L284.104 64.4531ZM283.343 59.7168L284.393 63.8184L284.617 64.7705L284.002 65.1025L282.4 59.7168H283.343ZM287.913 60.7666V65H287.054V59.7168H287.864L287.913 60.7666ZM287.737 62.1582L287.337 62.1436C287.334 61.7822 287.369 61.4486 287.444 61.1426C287.519 60.8333 287.632 60.5648 287.781 60.3369C287.934 60.109 288.125 59.9333 288.353 59.8096C288.584 59.6826 288.852 59.6191 289.158 59.6191C289.36 59.6191 289.547 59.6549 289.72 59.7266C289.896 59.7949 290.049 59.904 290.179 60.0537C290.309 60.2035 290.41 60.3955 290.481 60.6299C290.556 60.8643 290.594 61.1475 290.594 61.4795V65H289.729V61.5234C289.729 61.2467 289.692 61.0254 289.617 60.8594C289.546 60.6934 289.443 60.5729 289.31 60.498C289.176 60.4199 289.017 60.3809 288.831 60.3809C288.619 60.3809 288.442 60.4281 288.299 60.5225C288.159 60.6169 288.047 60.7471 287.962 60.9131C287.881 61.0791 287.822 61.2695 287.786 61.4844C287.754 61.696 287.737 61.9206 287.737 62.1582ZM290.584 61.6602L290.008 61.8457C290.005 61.556 290.04 61.2777 290.115 61.0107C290.19 60.7438 290.301 60.5062 290.447 60.2979C290.597 60.0895 290.783 59.9251 291.004 59.8047C291.225 59.681 291.482 59.6191 291.775 59.6191C292.016 59.6191 292.229 59.6566 292.415 59.7314C292.601 59.8063 292.757 59.9219 292.884 60.0781C293.014 60.2311 293.112 60.4281 293.177 60.6689C293.242 60.9098 293.274 61.1963 293.274 61.5283V65H292.41V61.5186C292.41 61.2223 292.373 60.9928 292.298 60.8301C292.226 60.6641 292.124 60.5485 291.99 60.4834C291.857 60.415 291.697 60.3809 291.512 60.3809C291.362 60.3809 291.229 60.415 291.111 60.4834C290.997 60.5518 290.901 60.6462 290.823 60.7666C290.745 60.8838 290.685 61.0189 290.643 61.1719C290.604 61.3249 290.584 61.4876 290.584 61.6602ZM296.468 65.0977C296.152 65.0977 295.867 65.0505 295.613 64.9561C295.359 64.8617 295.143 64.7184 294.964 64.5264C294.785 64.3311 294.648 64.0853 294.554 63.7891C294.459 63.4928 294.412 63.1429 294.412 62.7393V62.1436C294.412 61.6781 294.466 61.2842 294.573 60.9619C294.684 60.6396 294.832 60.3809 295.018 60.1855C295.203 59.987 295.413 59.8438 295.647 59.7559C295.882 59.6647 296.123 59.6191 296.37 59.6191C296.702 59.6191 296.985 59.6729 297.22 59.7803C297.454 59.8877 297.645 60.0472 297.791 60.2588C297.938 60.4704 298.045 60.7308 298.113 61.04C298.185 61.3493 298.221 61.7057 298.221 62.1094V62.6123H294.92V61.875H297.356V61.7529C297.343 61.4795 297.306 61.2386 297.244 61.0303C297.186 60.8219 297.088 60.6592 296.951 60.542C296.814 60.4215 296.621 60.3613 296.37 60.3613C296.211 60.3613 296.062 60.389 295.926 60.4443C295.792 60.4964 295.677 60.5892 295.579 60.7227C295.485 60.8529 295.41 61.0335 295.354 61.2646C295.302 61.4958 295.276 61.7887 295.276 62.1436V62.7393C295.276 63.0225 295.302 63.2666 295.354 63.4717C295.41 63.6735 295.49 63.8411 295.594 63.9746C295.701 64.1048 295.831 64.2025 295.984 64.2676C296.141 64.3294 296.318 64.3604 296.517 64.3604C296.806 64.3604 297.046 64.305 297.234 64.1943C297.423 64.0804 297.588 63.9355 297.728 63.7598L298.182 64.3018C298.087 64.4352 297.964 64.5638 297.811 64.6875C297.661 64.8079 297.475 64.9072 297.254 64.9854C297.036 65.0602 296.774 65.0977 296.468 65.0977ZM300.13 60.8447V65H299.266V59.7168H300.081L300.13 60.8447ZM299.92 62.1582L299.568 62.1436C299.565 61.7822 299.606 61.4486 299.69 61.1426C299.778 60.8333 299.902 60.5648 300.062 60.3369C300.224 60.109 300.418 59.9333 300.643 59.8096C300.867 59.6826 301.116 59.6191 301.39 59.6191C301.604 59.6191 301.8 59.6549 301.976 59.7266C302.151 59.7949 302.301 59.9056 302.425 60.0586C302.549 60.2116 302.643 60.4102 302.708 60.6543C302.776 60.8952 302.811 61.1898 302.811 61.5381V65H301.946V61.5283C301.946 61.2516 301.915 61.0303 301.854 60.8643C301.795 60.695 301.704 60.5729 301.58 60.498C301.46 60.4199 301.307 60.3809 301.121 60.3809C300.952 60.3809 300.794 60.4281 300.647 60.5225C300.501 60.6169 300.372 60.7471 300.262 60.9131C300.154 61.0791 300.07 61.2695 300.008 61.4844C299.949 61.696 299.92 61.9206 299.92 62.1582ZM306.038 59.7168V60.4102H303.572V59.7168H306.038ZM304.378 58.4326H305.242V63.6914C305.242 63.8704 305.263 64.0055 305.306 64.0967C305.351 64.1878 305.408 64.248 305.477 64.2773C305.545 64.3066 305.618 64.3213 305.696 64.3213C305.755 64.3213 305.82 64.3148 305.892 64.3018C305.963 64.2855 306.012 64.2725 306.038 64.2627L306.033 65C305.975 65.0228 305.896 65.0439 305.799 65.0635C305.701 65.0863 305.577 65.0977 305.428 65.0977C305.242 65.0977 305.07 65.0537 304.91 64.9658C304.751 64.8779 304.622 64.7314 304.524 64.5264C304.427 64.318 304.378 64.0381 304.378 63.6865V58.4326Z" fill="url(#paint3_linear_1406_1429)"/>
<path fill-rule="evenodd" clip-rule="evenodd" d="M278 16L211 16V14L278 14V16Z" fill="url(#paint4_linear_1406_1429)"/>
<path fill-rule="evenodd" clip-rule="evenodd" d="M185 16L118 16V14L185 14V16Z" fill="url(#paint5_linear_1406_1429)"/>
<path fill-rule="evenodd" clip-rule="evenodd" d="M93 16L23 16V14L93 14V16Z" fill="url(#paint6_linear_1406_1429)"/>
<path fill-rule="evenodd" clip-rule="evenodd" d="M1.7612 6.17317C1 8.01088 1 10.3406 1 15C1 19.6594 1 21.9891 1.7612 23.8268C2.77614 26.2771 4.72288 28.2239 7.17317 29.2388C9.01088 30 11.3406 30 16 30C20.6594 30 22.9891 30 24.8268 29.2388C27.2771 28.2239 29.2239 26.2771 30.2388 23.8268C31 21.9891 31 19.6594 31 15C31 10.3406 31 8.01088 30.2388 6.17317C29.2239 3.72288 27.2771 1.77614 24.8268 0.761205C22.9891 0 20.6594 0 16 0C11.3406 0 9.01088 0 7.17317 0.761205C4.72288 1.77614 2.77614 3.72288 1.7612 6.17317ZM22.7071 11.7071C23.0976 11.3166 23.0976 10.6834 22.7071 10.2929C22.3166 9.90237 21.6834 9.90237 21.2929 10.2929L14 17.5858L10.7071 14.2929C10.3166 13.9024 9.68342 13.9024 9.29289 14.2929C8.90237 14.6834 8.90237 15.3166 9.29289 15.7071L13.2929 19.7071C13.4804 19.8946 13.7348 20 14 20C14.2652 20 14.5196 19.8946 14.7071 19.7071L22.7071 11.7071Z" fill="url(#paint7_linear_1406_1429)"/>
<path fill-rule="evenodd" clip-rule="evenodd" d="M92.7612 6.17317C92 8.01088 92 10.3406 92 15C92 19.6594 92 21.9891 92.7612 23.8268C93.7761 26.2771 95.7229 28.2239 98.1732 29.2388C100.011 30 102.341 30 107 30C111.659 30 113.989 30 115.827 29.2388C118.277 28.2239 120.224 26.2771 121.239 23.8268C122 21.9891 122 19.6594 122 15C122 10.3406 122 8.01088 121.239 6.17317C120.224 3.72288 118.277 1.77614 115.827 0.761205C113.989 0 111.659 0 107 0C102.341 0 100.011 0 98.1732 0.761205C95.7229 1.77614 93.7761 3.72288 92.7612 6.17317ZM113.707 11.7071C114.098 11.3166 114.098 10.6834 113.707 10.2929C113.317 9.90237 112.683 9.90237 112.293 10.2929L105 17.5858L101.707 14.2929C101.317 13.9024 100.683 13.9024 100.293 14.2929C99.9024 14.6834 99.9024 15.3166 100.293 15.7071L104.293 19.7071C104.48 19.8946 104.735 20 105 20C105.265 20 105.52 19.8946 105.707 19.7071L113.707 11.7071Z" fill="url(#paint8_linear_1406_1429)"/>
<path fill-rule="evenodd" clip-rule="evenodd" d="M183.761 6.17317C183 8.01088 183 10.3406 183 15C183 19.6594 183 21.9891 183.761 23.8268C184.776 26.2771 186.723 28.2239 189.173 29.2388C191.011 30 193.341 30 198 30C202.659 30 204.989 30 206.827 29.2388C209.277 28.2239 211.224 26.2771 212.239 23.8268C213 21.9891 213 19.6594 213 15C213 10.3406 213 8.01088 212.239 6.17317C211.224 3.72288 209.277 1.77614 206.827 0.761205C204.989 0 202.659 0 198 0C193.341 0 191.011 0 189.173 0.761205C186.723 1.77614 184.776 3.72288 183.761 6.17317ZM204.707 11.7071C205.098 11.3166 205.098 10.6834 204.707 10.2929C204.317 9.90237 203.683 9.90237 203.293 10.2929L196 17.5858L192.707 14.2929C192.317 13.9024 191.683 13.9024 191.293 14.2929C190.902 14.6834 190.902 15.3166 191.293 15.7071L195.293 19.7071C195.48 19.8946 195.735 20 196 20C196.265 20 196.52 19.8946 196.707 19.7071L204.707 11.7071Z" fill="url(#paint9_linear_1406_1429)"/>
<path fill-rule="evenodd" clip-rule="evenodd" d="M274.761 6.17317C274 8.01088 274 10.3406 274 15C274 19.6594 274 21.9891 274.761 23.8268C275.776 26.2771 277.723 28.2239 280.173 29.2388C282.011 30 284.341 30 289 30C293.659 30 295.989 30 297.827 29.2388C300.277 28.2239 302.224 26.2771 303.239 23.8268C304 21.9891 304 19.6594 304 15C304 10.3406 304 8.01088 303.239 6.17317C302.224 3.72288 300.277 1.77614 297.827 0.761205C295.989 0 293.659 0 289 0C284.341 0 282.011 0 280.173 0.761205C277.723 1.77614 275.776 3.72288 274.761 6.17317ZM295.707 11.7071C296.098 11.3166 296.098 10.6834 295.707 10.2929C295.317 9.90237 294.683 9.90237 294.293 10.2929L287 17.5858L283.707 14.2929C283.317 13.9024 282.683 13.9024 282.293 14.2929C281.902 14.6834 281.902 15.3166 282.293 15.7071L286.293 19.7071C286.48 19.8946 286.735 20 287 20C287.265 20 287.52 19.8946 287.707 19.7071L295.707 11.7071Z" fill="url(#paint10_linear_1406_1429)"/>
<defs>
<linearGradient id="paint0_linear_1406_1429" x1="16" y1="56" x2="16" y2="34" gradientUnits="userSpaceOnUse">
<stop stop-color="#5CCC94"/>
<stop offset="1" stop-color="#8CCAAE"/>
</linearGradient>
<linearGradient id="paint1_linear_1406_1429" x1="105.5" y1="55" x2="105.5" y2="35" gradientUnits="userSpaceOnUse">
<stop stop-color="#5CCC94"/>
<stop offset="1" stop-color="#8CCAAE"/>
</linearGradient>
<linearGradient id="paint2_linear_1406_1429" x1="198.5" y1="55" x2="198.5" y2="35" gradientUnits="userSpaceOnUse">
<stop stop-color="#5CCC94"/>
<stop offset="1" stop-color="#8CCAAE"/>
</linearGradient>
<linearGradient id="paint3_linear_1406_1429" x1="289.5" y1="67" x2="289.5" y2="34" gradientUnits="userSpaceOnUse">
<stop stop-color="#5CCC94"/>
<stop offset="1" stop-color="#8CCAAE"/>
</linearGradient>
<linearGradient id="paint4_linear_1406_1429" x1="244.5" y1="16" x2="244.5" y2="14" gradientUnits="userSpaceOnUse">
<stop stop-color="#5CCC94"/>
<stop offset="1" stop-color="#8CCAAE"/>
</linearGradient>
<linearGradient id="paint5_linear_1406_1429" x1="151.5" y1="16" x2="151.5" y2="14" gradientUnits="userSpaceOnUse">
<stop stop-color="#5CCC94"/>
<stop offset="1" stop-color="#8CCAAE"/>
</linearGradient>
<linearGradient id="paint6_linear_1406_1429" x1="58" y1="16" x2="58" y2="14" gradientUnits="userSpaceOnUse">
<stop stop-color="#5CCC94"/>
<stop offset="1" stop-color="#8CCAAE"/>
</linearGradient>
<linearGradient id="paint7_linear_1406_1429" x1="16" y1="30" x2="16" y2="1.58545e-07" gradientUnits="userSpaceOnUse">
<stop stop-color="#5CCC94"/>
<stop offset="1" stop-color="#8CCAAE"/>
</linearGradient>
<linearGradient id="paint8_linear_1406_1429" x1="107" y1="30" x2="107" y2="1.58545e-07" gradientUnits="userSpaceOnUse">
<stop stop-color="#5CCC94"/>
<stop offset="1" stop-color="#8CCAAE"/>
</linearGradient>
<linearGradient id="paint9_linear_1406_1429" x1="198" y1="30" x2="198" y2="1.58545e-07" gradientUnits="userSpaceOnUse">
<stop stop-color="#5CCC94"/>
<stop offset="1" stop-color="#8CCAAE"/>
</linearGradient>
<linearGradient id="paint10_linear_1406_1429" x1="289" y1="30" x2="289" y2="1.58545e-07" gradientUnits="userSpaceOnUse">
<stop stop-color="#5CCC94"/>
<stop offset="1" stop-color="#8CCAAE"/>
</linearGradient>
</defs>
</svg>
