<svg width="239" height="69" viewBox="0 0 239 69" fill="none" xmlns="http://www.w3.org/2000/svg">
<path d="M26.375 41.7393H27.2734C27.2507 42.2275 27.1514 42.6491 26.9756 43.0039C26.8031 43.3555 26.5508 43.6257 26.2188 43.8145C25.89 44.0033 25.4782 44.0977 24.9834 44.0977C24.6286 44.0977 24.3079 44.0277 24.0215 43.8877C23.735 43.7477 23.4893 43.5475 23.2842 43.2871C23.0824 43.0234 22.9277 42.7077 22.8203 42.3398C22.7129 41.972 22.6592 41.5586 22.6592 41.0996V39.7861C22.6592 39.3304 22.7129 38.9186 22.8203 38.5508C22.931 38.1829 23.0889 37.8688 23.2939 37.6084C23.5023 37.3447 23.7546 37.1429 24.0508 37.0029C24.3503 36.863 24.6888 36.793 25.0664 36.793C25.5286 36.793 25.9193 36.8857 26.2383 37.0713C26.5605 37.2536 26.8079 37.5221 26.9805 37.877C27.1562 38.2285 27.2539 38.6598 27.2734 39.1709H26.375C26.3522 38.7965 26.2936 38.4922 26.1992 38.2578C26.1048 38.0202 25.9648 37.846 25.7793 37.7354C25.597 37.6214 25.3594 37.5645 25.0664 37.5645C24.806 37.5645 24.5798 37.6165 24.3877 37.7207C24.1989 37.8249 24.0426 37.9746 23.9189 38.1699C23.7985 38.362 23.7074 38.5947 23.6455 38.8682C23.5869 39.1383 23.5576 39.4411 23.5576 39.7764V41.0996C23.5576 41.4121 23.582 41.7035 23.6309 41.9736C23.6829 42.2438 23.7643 42.4814 23.875 42.6865C23.9889 42.8883 24.137 43.0462 24.3193 43.1602C24.5016 43.2741 24.723 43.3311 24.9834 43.3311C25.3122 43.3311 25.5726 43.2773 25.7646 43.1699C25.9567 43.0625 26.0983 42.8916 26.1895 42.6572C26.2839 42.4229 26.3457 42.1169 26.375 41.7393ZM24.3438 34.8301L24.9297 35.6602L25.5107 34.8301H26.2529V34.8789L25.1836 36.2168H24.6758L23.6211 34.8789V34.8301H24.3438ZM29.3047 38.7168V44H28.4404V38.7168H29.3047ZM28.3916 37.9453L29.3389 36.5098H30.4277L29.1191 37.9453H28.3916ZM33.2891 42.6475C33.2891 42.514 33.2565 42.3968 33.1914 42.2959C33.1263 42.195 33.0189 42.0973 32.8691 42.0029C32.7227 41.9085 32.5241 41.8076 32.2734 41.7002C32.0293 41.5993 31.8096 41.5 31.6143 41.4023C31.4222 41.3014 31.2594 41.1924 31.126 41.0752C30.9925 40.958 30.89 40.8229 30.8184 40.6699C30.75 40.5137 30.7158 40.3298 30.7158 40.1182C30.7158 39.9066 30.7549 39.7113 30.833 39.5322C30.9144 39.3499 31.0283 39.1904 31.1748 39.0537C31.3213 38.917 31.4971 38.8112 31.7021 38.7363C31.9072 38.6582 32.1367 38.6191 32.3906 38.6191C32.752 38.6191 33.0596 38.6891 33.3135 38.8291C33.5674 38.9691 33.7611 39.1611 33.8945 39.4053C34.0312 39.6462 34.0996 39.918 34.0996 40.2207H33.2402C33.2402 40.0742 33.2077 39.9359 33.1426 39.8057C33.0775 39.6755 32.9814 39.5697 32.8545 39.4883C32.7275 39.4036 32.5729 39.3613 32.3906 39.3613C32.1986 39.3613 32.0423 39.3955 31.9219 39.4639C31.8014 39.5322 31.7135 39.6217 31.6582 39.7324C31.6061 39.8398 31.5801 39.9587 31.5801 40.0889C31.5801 40.1865 31.5931 40.2712 31.6191 40.3428C31.6484 40.4111 31.6973 40.4762 31.7656 40.5381C31.834 40.5967 31.9268 40.6585 32.0439 40.7236C32.1644 40.7855 32.3174 40.8571 32.5029 40.9385C32.861 41.0785 33.1621 41.2201 33.4062 41.3633C33.6504 41.5065 33.8359 41.6742 33.9629 41.8662C34.0898 42.0583 34.1533 42.2959 34.1533 42.5791C34.1533 42.8102 34.111 43.0202 34.0264 43.209C33.945 43.3945 33.8278 43.554 33.6748 43.6875C33.5218 43.821 33.3379 43.9235 33.123 43.9951C32.9115 44.0635 32.6738 44.0977 32.4102 44.0977C32.013 44.0977 31.6761 44.0195 31.3994 43.8633C31.126 43.7038 30.9176 43.4971 30.7744 43.2432C30.6344 42.986 30.5645 42.7109 30.5645 42.418H31.4287C31.4385 42.6654 31.4938 42.8574 31.5947 42.9941C31.6989 43.1309 31.8242 43.2253 31.9707 43.2773C32.1172 43.3294 32.2637 43.3555 32.4102 43.3555C32.6022 43.3555 32.7633 43.3278 32.8936 43.2725C33.0238 43.2139 33.1214 43.1309 33.1865 43.0234C33.2549 42.916 33.2891 42.7907 33.2891 42.6475ZM36.2139 36.5V44H35.3545V36.5H36.2139ZM37.4004 41.6123V41.1094C37.4004 40.6992 37.4525 40.3395 37.5566 40.0303C37.6608 39.7178 37.8057 39.4574 37.9912 39.249C38.1768 39.0407 38.3932 38.8844 38.6406 38.7803C38.888 38.6729 39.1533 38.6191 39.4365 38.6191C39.7262 38.6191 39.9948 38.6729 40.2422 38.7803C40.4896 38.8844 40.7061 39.0407 40.8916 39.249C41.0804 39.4574 41.2269 39.7178 41.3311 40.0303C41.4352 40.3395 41.4873 40.6992 41.4873 41.1094V41.6123C41.4873 42.0225 41.4352 42.3838 41.3311 42.6963C41.2269 43.0055 41.082 43.2643 40.8965 43.4727C40.7109 43.681 40.4945 43.8372 40.2471 43.9414C39.9997 44.0456 39.7327 44.0977 39.4463 44.0977C39.1598 44.0977 38.8929 44.0456 38.6455 43.9414C38.3981 43.8372 38.18 43.681 37.9912 43.4727C37.8057 43.2643 37.6608 43.0055 37.5566 42.6963C37.4525 42.3838 37.4004 42.0225 37.4004 41.6123ZM38.2646 41.1094V41.6123C38.2646 41.902 38.2939 42.1559 38.3525 42.374C38.4111 42.5921 38.4941 42.7744 38.6016 42.9209C38.709 43.0674 38.8343 43.1781 38.9775 43.2529C39.1208 43.3245 39.277 43.3604 39.4463 43.3604C39.6416 43.3604 39.8125 43.3245 39.959 43.2529C40.1087 43.1781 40.2324 43.0674 40.3301 42.9209C40.4277 42.7744 40.501 42.5921 40.5498 42.374C40.5986 42.1559 40.623 41.902 40.623 41.6123V41.1094C40.623 40.8197 40.5938 40.5674 40.5352 40.3525C40.4766 40.1344 40.3936 39.9521 40.2861 39.8057C40.1787 39.6559 40.0518 39.5452 39.9053 39.4736C39.762 39.3988 39.6058 39.3613 39.4365 39.3613C39.2705 39.3613 39.1159 39.3988 38.9727 39.4736C38.8294 39.5452 38.7041 39.6559 38.5967 39.8057C38.4925 39.9521 38.4111 40.1344 38.3525 40.3525C38.2939 40.5674 38.2646 40.8197 38.2646 41.1094ZM11.3262 50.7324L11.3262 57.0312H10.4619L10.4619 49.7168H11.248L11.3262 50.7324ZM14.2803 52.1191V52.6123C14.2803 53.029 14.2412 53.3936 14.1631 53.7061C14.0882 54.0153 13.9759 54.2741 13.8262 54.4824C13.6797 54.6875 13.499 54.8421 13.2842 54.9463C13.0693 55.0472 12.8236 55.0977 12.5469 55.0977C12.2702 55.0977 12.0293 55.0456 11.8242 54.9414C11.6224 54.834 11.4515 54.6794 11.3115 54.4775C11.1748 54.2757 11.0658 54.0332 10.9844 53.75C10.9063 53.4635 10.8525 53.1429 10.8232 52.7881V52.0361C10.8525 51.6618 10.9063 51.3265 10.9844 51.0303C11.0625 50.7308 11.1699 50.4769 11.3066 50.2686C11.4466 50.057 11.6175 49.8958 11.8193 49.7852C12.0244 49.6745 12.2637 49.6191 12.5371 49.6191C12.8203 49.6191 13.0693 49.668 13.2842 49.7656C13.5023 49.8633 13.6846 50.0146 13.8311 50.2197C13.9808 50.4215 14.0931 50.6803 14.168 50.9961C14.2428 51.3086 14.2803 51.6829 14.2803 52.1191ZM13.416 52.6123V52.1191C13.416 51.8262 13.3932 51.5706 13.3477 51.3525C13.3053 51.1344 13.237 50.9538 13.1426 50.8105C13.0482 50.6673 12.9294 50.5599 12.7861 50.4883C12.6429 50.4167 12.4704 50.3809 12.2686 50.3809C12.096 50.3809 11.943 50.4167 11.8096 50.4883C11.6794 50.5599 11.5671 50.6576 11.4727 50.7812C11.3783 50.9017 11.3001 51.04 11.2383 51.1963C11.1764 51.3493 11.1309 51.5088 11.1016 51.6748V53.1543C11.1569 53.3626 11.2301 53.5596 11.3213 53.7451C11.4124 53.9274 11.5345 54.0755 11.6875 54.1895C11.8438 54.3034 12.0407 54.3604 12.2783 54.3604C12.4769 54.3604 12.6478 54.3245 12.791 54.2529C12.9342 54.1813 13.0514 54.0739 13.1426 53.9307C13.237 53.7842 13.3053 53.6019 13.3477 53.3838C13.3932 53.1624 13.416 52.9053 13.416 52.6123ZM15.2129 52.6123V52.1094C15.2129 51.6992 15.265 51.3395 15.3691 51.0303C15.4733 50.7178 15.6182 50.4574 15.8037 50.249C15.9893 50.0407 16.2057 49.8844 16.4531 49.7803C16.7005 49.6729 16.9658 49.6191 17.249 49.6191C17.5387 49.6191 17.8073 49.6729 18.0547 49.7803C18.3021 49.8844 18.5186 50.0407 18.7041 50.249C18.8929 50.4574 19.0394 50.7178 19.1436 51.0303C19.2477 51.3395 19.2998 51.6992 19.2998 52.1094V52.6123C19.2998 53.0225 19.2477 53.3838 19.1436 53.6963C19.0394 54.0055 18.8945 54.2643 18.709 54.4727C18.5234 54.681 18.307 54.8372 18.0596 54.9414C17.8122 55.0456 17.5452 55.0977 17.2588 55.0977C16.9723 55.0977 16.7054 55.0456 16.458 54.9414C16.2106 54.8372 15.9925 54.681 15.8037 54.4727C15.6182 54.2643 15.4733 54.0055 15.3691 53.6963C15.265 53.3838 15.2129 53.0225 15.2129 52.6123ZM16.0771 52.1094V52.6123C16.0771 52.902 16.1064 53.1559 16.165 53.374C16.2236 53.5921 16.3066 53.7744 16.4141 53.9209C16.5215 54.0674 16.6468 54.1781 16.79 54.2529C16.9333 54.3245 17.0895 54.3604 17.2588 54.3604C17.4541 54.3604 17.625 54.3245 17.7715 54.2529C17.9212 54.1781 18.0449 54.0674 18.1426 53.9209C18.2402 53.7744 18.3135 53.5921 18.3623 53.374C18.4111 53.1559 18.4355 52.902 18.4355 52.6123V52.1094C18.4355 51.8197 18.4063 51.5674 18.3477 51.3525C18.2891 51.1344 18.2061 50.9521 18.0986 50.8057C17.9912 50.6559 17.8643 50.5452 17.7178 50.4736C17.5745 50.3988 17.4183 50.3613 17.249 50.3613C17.083 50.3613 16.9284 50.3988 16.7852 50.4736C16.6419 50.5452 16.5166 50.6559 16.4092 50.8057C16.305 50.9521 16.2236 51.1344 16.165 51.3525C16.1064 51.5674 16.0771 51.8197 16.0771 52.1094ZM23.6797 54.2578V55H20.4814V54.2578H23.6797ZM23.582 50.3564L20.6768 55H20.1494V54.3359L23.0352 49.7168H23.582V50.3564ZM23.2061 49.7168V50.4639H20.1641V49.7168H23.2061ZM25.5938 50.8447V55H24.7295V49.7168H25.5449L25.5938 50.8447ZM25.3838 52.1582L25.0322 52.1436C25.029 51.7822 25.0697 51.4486 25.1543 51.1426C25.2422 50.8333 25.3659 50.5648 25.5254 50.3369C25.6882 50.109 25.8818 49.9333 26.1064 49.8096C26.3311 49.6826 26.5801 49.6191 26.8535 49.6191C27.0684 49.6191 27.2637 49.6549 27.4395 49.7266C27.6152 49.7949 27.765 49.9056 27.8887 50.0586C28.0124 50.2116 28.1068 50.4102 28.1719 50.6543C28.2402 50.8952 28.2744 51.1898 28.2744 51.5381V55H27.4102V51.5283C27.4102 51.2516 27.3792 51.0303 27.3174 50.8643C27.2588 50.695 27.1676 50.5729 27.0439 50.498C26.9235 50.4199 26.7705 50.3809 26.585 50.3809C26.4157 50.3809 26.2578 50.4281 26.1113 50.5225C25.9648 50.6169 25.8363 50.7471 25.7256 50.9131C25.6182 51.0791 25.5335 51.2695 25.4717 51.4844C25.4131 51.696 25.3838 51.9206 25.3838 52.1582ZM32.1611 54.0967V51.2305C32.1611 51.0221 32.1286 50.8545 32.0635 50.7275C32.0016 50.6006 31.9072 50.5078 31.7803 50.4492C31.6566 50.3906 31.5003 50.3613 31.3115 50.3613C31.1292 50.3613 30.9714 50.3988 30.8379 50.4736C30.7077 50.5485 30.6068 50.6478 30.5352 50.7715C30.4668 50.8952 30.4326 51.0319 30.4326 51.1816H29.5684C29.5684 50.9928 29.609 50.8057 29.6904 50.6201C29.7751 50.4346 29.8955 50.2669 30.0518 50.1172C30.208 49.9642 30.3952 49.8437 30.6133 49.7559C30.8346 49.6647 31.082 49.6191 31.3555 49.6191C31.681 49.6191 31.9691 49.6729 32.2197 49.7803C32.4704 49.8844 32.6673 50.0553 32.8105 50.293C32.9538 50.5306 33.0254 50.8464 33.0254 51.2402V53.8477C33.0254 54.0234 33.0384 54.2106 33.0645 54.4092C33.0938 54.6077 33.1344 54.7786 33.1865 54.9219V55L32.293 55C32.2507 54.8958 32.2181 54.7575 32.1953 54.585C32.1725 54.4092 32.1611 54.2464 32.1611 54.0967ZM32.2979 51.7969L32.3076 52.4316H31.707C31.502 52.4316 31.3148 52.4544 31.1455 52.5C30.9795 52.5456 30.8363 52.6123 30.7158 52.7002C30.5954 52.7848 30.5026 52.8906 30.4375 53.0176C30.3757 53.1445 30.3447 53.2894 30.3447 53.4521C30.3447 53.6637 30.374 53.833 30.4326 53.96C30.4912 54.0837 30.5791 54.1732 30.6963 54.2285C30.8135 54.2839 30.9616 54.3115 31.1406 54.3115C31.3587 54.3115 31.5508 54.2611 31.7168 54.1602C31.8828 54.0592 32.0114 53.9372 32.1025 53.7939C32.1969 53.6507 32.2409 53.5173 32.2344 53.3936L32.4248 53.7988C32.4118 53.9258 32.3695 54.0641 32.2979 54.2139C32.2295 54.3604 32.1335 54.502 32.0098 54.6387C31.8861 54.7721 31.7396 54.8828 31.5703 54.9707C31.4043 55.0553 31.2171 55.0977 31.0088 55.0977C30.7028 55.0977 30.4342 55.0391 30.2031 54.9219C29.9753 54.8047 29.7979 54.6322 29.6709 54.4043C29.5439 54.1764 29.4805 53.8949 29.4805 53.5596C29.4805 53.3057 29.5244 53.0713 29.6123 52.8564C29.7002 52.6416 29.8304 52.4561 30.0029 52.2998C30.1755 52.1403 30.3919 52.0166 30.6523 51.9287C30.916 51.8408 31.2204 51.7969 31.5654 51.7969H32.2979ZM30.9111 48.9355L31.8584 47.5H32.9473L31.6387 48.9355H30.9111ZM35.6572 54.1846L36.79 49.7168H37.6689L36.1016 55H35.5303L35.6572 54.1846ZM34.7441 49.7168L35.9258 54.209L36.0186 55H35.4521L33.8652 49.7168H34.7441ZM41.0771 54.0967V51.2305C41.0771 51.0221 41.0446 50.8545 40.9795 50.7275C40.9176 50.6006 40.8232 50.5078 40.6963 50.4492C40.5726 50.3906 40.4163 50.3613 40.2275 50.3613C40.0452 50.3613 39.8874 50.3988 39.7539 50.4736C39.6237 50.5485 39.5228 50.6478 39.4512 50.7715C39.3828 50.8952 39.3486 51.0319 39.3486 51.1816H38.4844C38.4844 50.9928 38.5251 50.8057 38.6064 50.6201C38.6911 50.4346 38.8115 50.2669 38.9678 50.1172C39.124 49.9642 39.3112 49.8437 39.5293 49.7559C39.7507 49.6647 39.998 49.6191 40.2715 49.6191C40.597 49.6191 40.8851 49.6729 41.1357 49.7803C41.3864 49.8844 41.5833 50.0553 41.7266 50.293C41.8698 50.5306 41.9414 50.8464 41.9414 51.2402V53.8477C41.9414 54.0234 41.9544 54.2106 41.9805 54.4092C42.0098 54.6077 42.0505 54.7786 42.1025 54.9219V55H41.209C41.1667 54.8958 41.1341 54.7575 41.1113 54.585C41.0885 54.4092 41.0771 54.2464 41.0771 54.0967ZM41.2139 51.7969L41.2236 52.4316H40.623C40.418 52.4316 40.2308 52.4544 40.0615 52.5C39.8955 52.5456 39.7523 52.6123 39.6318 52.7002C39.5114 52.7848 39.4186 52.8906 39.3535 53.0176C39.2917 53.1445 39.2607 53.2894 39.2607 53.4521C39.2607 53.6637 39.29 53.833 39.3486 53.96C39.4072 54.0837 39.4951 54.1732 39.6123 54.2285C39.7295 54.2839 39.8776 54.3115 40.0566 54.3115C40.2747 54.3115 40.4668 54.2611 40.6328 54.1602C40.7988 54.0592 40.9274 53.9372 41.0186 53.7939C41.113 53.6507 41.1569 53.5173 41.1504 53.3936L41.3408 53.7988C41.3278 53.9258 41.2855 54.0641 41.2139 54.2139C41.1455 54.3604 41.0495 54.502 40.9258 54.6387C40.8021 54.7721 40.6556 54.8828 40.4863 54.9707C40.3203 55.0553 40.1331 55.0977 39.9248 55.0977C39.6188 55.0977 39.3503 55.0391 39.1191 54.9219C38.8913 54.8047 38.7139 54.6322 38.5869 54.4043C38.46 54.1764 38.3965 53.8949 38.3965 53.5596C38.3965 53.3057 38.4404 53.0713 38.5283 52.8564C38.6162 52.6416 38.7464 52.4561 38.9189 52.2998C39.0915 52.1403 39.3079 52.0166 39.5684 51.9287C39.832 51.8408 40.1364 51.7969 40.4814 51.7969H41.2139ZM45.1152 54.3604C45.2878 54.3604 45.444 54.3262 45.584 54.2578C45.7272 54.1862 45.8444 54.0755 45.9355 53.9258C46.0267 53.7728 46.0788 53.5742 46.0918 53.3301H46.9023C46.8893 53.6816 46.7998 53.9909 46.6338 54.2578C46.471 54.5215 46.2562 54.7282 45.9893 54.8779C45.7256 55.0244 45.4342 55.0977 45.1152 55.0977C44.7734 55.0977 44.4756 55.0423 44.2217 54.9316C43.971 54.821 43.7627 54.6615 43.5967 54.4531C43.4339 54.2415 43.3118 53.986 43.2305 53.6865C43.1491 53.3838 43.1084 53.0404 43.1084 52.6562V52.0605C43.1084 51.6764 43.1491 51.3346 43.2305 51.0352C43.3118 50.7324 43.4339 50.4769 43.5967 50.2686C43.7627 50.057 43.971 49.8958 44.2217 49.7852C44.4756 49.6745 44.7734 49.6191 45.1152 49.6191C45.4733 49.6191 45.7826 49.6956 46.043 49.8486C46.3066 49.9984 46.5117 50.2165 46.6582 50.5029C46.8079 50.7861 46.8893 51.1296 46.9023 51.5332H46.0918C46.0788 51.2728 46.0316 51.0563 45.9502 50.8838C45.8688 50.708 45.7581 50.5778 45.6182 50.4932C45.4782 50.4053 45.3105 50.3613 45.1152 50.3613C44.8874 50.3613 44.6986 50.402 44.5488 50.4834C44.4023 50.5615 44.2868 50.6755 44.2021 50.8252C44.1175 50.9749 44.0573 51.154 44.0215 51.3623C43.9889 51.5706 43.9727 51.8034 43.9727 52.0605V52.6562C43.9727 52.9134 43.9889 53.1478 44.0215 53.3594C44.0573 53.5677 44.1159 53.7467 44.1973 53.8965C44.2819 54.0462 44.3991 54.1618 44.5488 54.2432C44.6986 54.3213 44.8874 54.3604 45.1152 54.3604ZM49.793 55.0977C49.4772 55.0977 49.1924 55.0505 48.9385 54.9561C48.6846 54.8617 48.4681 54.7184 48.2891 54.5264C48.11 54.3311 47.9733 54.0853 47.8789 53.7891C47.7845 53.4928 47.7373 53.1429 47.7373 52.7393V52.1436C47.7373 51.6781 47.791 51.2842 47.8984 50.9619C48.0091 50.6396 48.1572 50.3809 48.3428 50.1855C48.5283 49.987 48.7383 49.8437 48.9727 49.7559C49.207 49.6647 49.4479 49.6191 49.6953 49.6191C50.0273 49.6191 50.3105 49.6729 50.5449 49.7803C50.7793 49.8877 50.9697 50.0472 51.1162 50.2588C51.2627 50.4704 51.3701 50.7308 51.4385 51.04C51.5101 51.3493 51.5459 51.7057 51.5459 52.1094V52.6123H48.2451V51.875H50.6816V51.7529C50.6686 51.4795 50.6312 51.2386 50.5693 51.0303C50.5107 50.8219 50.4131 50.6592 50.2764 50.542C50.1396 50.4215 49.946 50.3613 49.6953 50.3613C49.5358 50.3613 49.3877 50.389 49.251 50.4443C49.1175 50.4964 49.002 50.5892 48.9043 50.7227C48.8099 50.8529 48.735 51.0335 48.6797 51.2646C48.6276 51.4958 48.6016 51.7887 48.6016 52.1436V52.7393C48.6016 53.0225 48.6276 53.2666 48.6797 53.4717C48.735 53.6735 48.8148 53.8411 48.9189 53.9746C49.0264 54.1048 49.1566 54.2025 49.3096 54.2676C49.4658 54.3294 49.6432 54.3604 49.8418 54.3604C50.1315 54.3604 50.3708 54.305 50.5596 54.1943C50.7484 54.0804 50.9128 53.9355 51.0527 53.7598L51.5068 54.3018C51.4124 54.4352 51.2887 54.5638 51.1357 54.6875C50.986 54.8079 50.8005 54.9072 50.5791 54.9854C50.361 55.0602 50.099 55.0977 49.793 55.0977ZM52.6104 49.7168H53.4697V55.6299C53.4697 55.9521 53.4274 56.2256 53.3428 56.4502C53.2614 56.6748 53.1344 56.8441 52.9619 56.958C52.7926 57.0752 52.5762 57.1338 52.3125 57.1338C52.2409 57.1338 52.1579 57.1257 52.0635 57.1094C51.9723 57.0931 51.8942 57.0736 51.8291 57.0508V56.3232C51.8844 56.3363 51.9447 56.346 52.0098 56.3525C52.0749 56.3623 52.1286 56.3672 52.1709 56.3672C52.2653 56.3672 52.3451 56.3428 52.4102 56.2939C52.4753 56.2451 52.5241 56.167 52.5566 56.0596C52.5924 55.9521 52.6104 55.8089 52.6104 55.6299V49.7168ZM52.5322 48.3154C52.5322 48.1689 52.5729 48.0452 52.6543 47.9443C52.7389 47.8434 52.861 47.793 53.0205 47.793C53.1833 47.793 53.3053 47.8434 53.3867 47.9443C53.4714 48.0452 53.5137 48.1689 53.5137 48.3154C53.5137 48.4554 53.4714 48.5758 53.3867 48.6768C53.3053 48.7744 53.1833 48.8232 53.0205 48.8232C52.861 48.8232 52.7389 48.7744 52.6543 48.6768C52.5729 48.5758 52.5322 48.4554 52.5322 48.3154ZM22.3271 65.2578V66H19.1289V65.2578H22.3271ZM22.2295 61.3564L19.3242 66H18.7969V65.3359L21.6826 60.7168H22.2295V61.3564ZM21.8535 60.7168V61.4639H18.8115V60.7168H21.8535ZM24.2412 61.8447V66H23.377V60.7168H24.1924L24.2412 61.8447ZM24.0313 63.1582L23.6797 63.1436C23.6764 62.7822 23.7171 62.4486 23.8018 62.1426C23.8896 61.8333 24.0133 61.5648 24.1729 61.3369C24.3356 61.109 24.5293 60.9333 24.7539 60.8096C24.9785 60.6826 25.2275 60.6191 25.501 60.6191C25.7158 60.6191 25.9111 60.6549 26.0869 60.7266C26.2627 60.7949 26.4124 60.9056 26.5361 61.0586C26.6598 61.2116 26.7542 61.4102 26.8193 61.6543C26.8877 61.8952 26.9219 62.1898 26.9219 62.5381V66H26.0576V62.5283C26.0576 62.2516 26.0267 62.0303 25.9648 61.8643C25.9063 61.695 25.8151 61.5729 25.6914 61.498C25.571 61.4199 25.418 61.3809 25.2324 61.3809C25.0632 61.3809 24.9053 61.4281 24.7588 61.5225C24.6123 61.6169 24.4837 61.7471 24.373 61.9131C24.2656 62.0791 24.181 62.2695 24.1191 62.4844C24.0605 62.696 24.0313 62.9206 24.0313 63.1582ZM30.8086 65.0967V62.2305C30.8086 62.0221 30.776 61.8545 30.7109 61.7275C30.6491 61.6006 30.5547 61.5078 30.4277 61.4492C30.304 61.3906 30.1478 61.3613 29.959 61.3613C29.7767 61.3613 29.6188 61.3988 29.4854 61.4736C29.3551 61.5485 29.2542 61.6478 29.1826 61.7715C29.1143 61.8952 29.0801 62.0319 29.0801 62.1816H28.2158C28.2158 61.9928 28.2565 61.8057 28.3379 61.6201C28.4225 61.4346 28.543 61.2669 28.6992 61.1172C28.8555 60.9642 29.0426 60.8438 29.2607 60.7559C29.4821 60.6647 29.7295 60.6191 30.0029 60.6191C30.3285 60.6191 30.6165 60.6729 30.8672 60.7803C31.1178 60.8844 31.3148 61.0553 31.458 61.293C31.6012 61.5306 31.6729 61.8464 31.6729 62.2402V64.8477C31.6729 65.0234 31.6859 65.2106 31.7119 65.4092C31.7412 65.6077 31.7819 65.7786 31.834 65.9219V66H30.9404C30.8981 65.8958 30.8656 65.7575 30.8428 65.585C30.82 65.4092 30.8086 65.2464 30.8086 65.0967ZM30.9453 62.7969L30.9551 63.4316H30.3545C30.1494 63.4316 29.9622 63.4544 29.793 63.5C29.627 63.5456 29.4837 63.6123 29.3633 63.7002C29.2428 63.7848 29.1501 63.8906 29.085 64.0176C29.0231 64.1445 28.9922 64.2894 28.9922 64.4521C28.9922 64.6637 29.0215 64.833 29.0801 64.96C29.1387 65.0837 29.2266 65.1732 29.3438 65.2285C29.4609 65.2839 29.609 65.3115 29.7881 65.3115C30.0062 65.3115 30.1982 65.2611 30.3643 65.1602C30.5303 65.0592 30.6589 64.9372 30.75 64.7939C30.8444 64.6507 30.8883 64.5173 30.8818 64.3936L31.0723 64.7988C31.0592 64.9258 31.0169 65.0641 30.9453 65.2139C30.877 65.3604 30.7809 65.502 30.6572 65.6387C30.5335 65.7721 30.387 65.8828 30.2178 65.9707C30.0518 66.0553 29.8646 66.0977 29.6563 66.0977C29.3503 66.0977 29.0817 66.0391 28.8506 65.9219C28.6227 65.8047 28.4453 65.6322 28.3184 65.4043C28.1914 65.1764 28.1279 64.8949 28.1279 64.5596C28.1279 64.3057 28.1719 64.0713 28.2598 63.8564C28.3477 63.6416 28.4779 63.4561 28.6504 63.2998C28.8229 63.1403 29.0394 63.0166 29.2998 62.9287C29.5635 62.8408 29.8678 62.7969 30.2129 62.7969H30.9453ZM34.8467 65.3604C35.0192 65.3604 35.1755 65.3262 35.3154 65.2578C35.4587 65.1862 35.5758 65.0755 35.667 64.9258C35.7581 64.7728 35.8102 64.5742 35.8232 64.3301H36.6338C36.6208 64.6816 36.5313 64.9909 36.3652 65.2578C36.2025 65.5215 35.9876 65.7282 35.7207 65.8779C35.457 66.0244 35.1657 66.0977 34.8467 66.0977C34.5049 66.0977 34.207 66.0423 33.9531 65.9316C33.7025 65.821 33.4941 65.6615 33.3281 65.4531C33.1654 65.2415 33.0433 64.986 32.9619 64.6865C32.8805 64.3838 32.8398 64.0404 32.8398 63.6562V63.0605C32.8398 62.6764 32.8805 62.3346 32.9619 62.0352C33.0433 61.7324 33.1654 61.4769 33.3281 61.2686C33.4941 61.057 33.7025 60.8958 33.9531 60.7852C34.207 60.6745 34.5049 60.6191 34.8467 60.6191C35.2048 60.6191 35.514 60.6956 35.7744 60.8486C36.0381 60.9984 36.2432 61.2165 36.3896 61.5029C36.5394 61.7861 36.6208 62.1296 36.6338 62.5332H35.8232C35.8102 62.2728 35.763 62.0563 35.6816 61.8838C35.6003 61.708 35.4896 61.5778 35.3496 61.4932C35.2096 61.4053 35.042 61.3613 34.8467 61.3613C34.6188 61.3613 34.43 61.402 34.2803 61.4834C34.1338 61.5615 34.0182 61.6755 33.9336 61.8252C33.849 61.9749 33.7887 62.154 33.7529 62.3623C33.7204 62.5706 33.7041 62.8034 33.7041 63.0605V63.6562C33.7041 63.9134 33.7204 64.1478 33.7529 64.3594C33.7887 64.5677 33.8473 64.7467 33.9287 64.8965C34.0133 65.0462 34.1305 65.1618 34.2803 65.2432C34.43 65.3213 34.6188 65.3604 34.8467 65.3604ZM34.0459 58.5049L34.6318 59.335L35.2129 58.5049H35.9551V58.5537L34.8857 59.8916H34.3779L33.3232 58.5537V58.5049H34.0459ZM38.5039 58.5V66H37.6396V58.5H38.5039ZM41.1846 60.7168L39.3047 63.1826L38.1426 64.5205L38.084 63.5586L38.8848 62.4551L40.1445 60.7168H41.1846ZM40.3936 66L38.9092 63.4805L39.3535 62.6748L41.3994 66H40.3936ZM43.3721 65.4531L44.5488 60.7168H45.4668L43.7236 66.8154C43.6813 66.9456 43.6243 67.0856 43.5527 67.2354C43.4844 67.3883 43.3965 67.5332 43.2891 67.6699C43.1816 67.8066 43.0531 67.9173 42.9033 68.002C42.7536 68.0898 42.5778 68.1338 42.376 68.1338C42.3141 68.1338 42.2344 68.124 42.1367 68.1045C42.0423 68.085 41.974 68.0687 41.9316 68.0557V67.3232C41.9512 67.3265 41.9821 67.3298 42.0244 67.333C42.0667 67.3395 42.0977 67.3428 42.1172 67.3428C42.2865 67.3428 42.4297 67.3151 42.5469 67.2598C42.6673 67.2077 42.7699 67.1182 42.8545 66.9912C42.9391 66.8675 43.0107 66.6966 43.0693 66.4785L43.3721 65.4531ZM42.6104 60.7168L43.6602 64.8184L43.8848 65.7705L43.2695 66.1025L41.668 60.7168H42.6104Z" fill="url(#paint0_linear_363_2949)"/>
<path d="M104.113 40.8906V48H103.215V40.8906H104.113ZM106.511 44.0889V44.8604H103.942V44.0889H106.511ZM106.916 40.8906V41.6621H103.942V40.8906H106.916ZM110.334 47.0967V44.2305C110.334 44.0221 110.301 43.8545 110.236 43.7275C110.174 43.6006 110.08 43.5078 109.953 43.4492C109.829 43.3906 109.673 43.3613 109.484 43.3613C109.302 43.3613 109.144 43.3988 109.011 43.4736C108.881 43.5485 108.78 43.6478 108.708 43.7715C108.64 43.8952 108.605 44.0319 108.605 44.1816H107.741C107.741 43.9928 107.782 43.8057 107.863 43.6201C107.948 43.4346 108.068 43.2669 108.225 43.1172C108.381 42.9642 108.568 42.8438 108.786 42.7559C109.007 42.6647 109.255 42.6191 109.528 42.6191C109.854 42.6191 110.142 42.6729 110.393 42.7803C110.643 42.8844 110.84 43.0553 110.983 43.293C111.127 43.5306 111.198 43.8464 111.198 44.2402V46.8477C111.198 47.0234 111.211 47.2106 111.237 47.4092C111.267 47.6077 111.307 47.7786 111.359 47.9219V48H110.466C110.424 47.8958 110.391 47.7575 110.368 47.585C110.345 47.4092 110.334 47.2464 110.334 47.0967ZM110.471 44.7969L110.48 45.4316H109.88C109.675 45.4316 109.488 45.4544 109.318 45.5C109.152 45.5456 109.009 45.6123 108.889 45.7002C108.768 45.7848 108.675 45.8906 108.61 46.0176C108.549 46.1445 108.518 46.2894 108.518 46.4521C108.518 46.6637 108.547 46.833 108.605 46.96C108.664 47.0837 108.752 47.1732 108.869 47.2285C108.986 47.2839 109.134 47.3115 109.313 47.3115C109.532 47.3115 109.724 47.2611 109.89 47.1602C110.056 47.0592 110.184 46.9372 110.275 46.7939C110.37 46.6507 110.414 46.5173 110.407 46.3936L110.598 46.7988C110.585 46.9258 110.542 47.0641 110.471 47.2139C110.402 47.3604 110.306 47.502 110.183 47.6387C110.059 47.7721 109.912 47.8828 109.743 47.9707C109.577 48.0553 109.39 48.0977 109.182 48.0977C108.876 48.0977 108.607 48.0391 108.376 47.9219C108.148 47.8047 107.971 47.6322 107.844 47.4043C107.717 47.1764 107.653 46.8949 107.653 46.5596C107.653 46.3057 107.697 46.0713 107.785 45.8564C107.873 45.6416 108.003 45.4561 108.176 45.2998C108.348 45.1403 108.565 45.0166 108.825 44.9287C109.089 44.8408 109.393 44.7969 109.738 44.7969H110.471ZM113.41 40.5V48H112.546V40.5H113.41ZM116.091 42.7168L114.211 45.1826L113.049 46.5205L112.99 45.5586L113.791 44.4551L115.051 42.7168H116.091ZM115.3 48L113.815 45.4805L114.26 44.6748L116.306 48H115.3ZM118.981 42.7168V43.4102H116.516V42.7168H118.981ZM117.321 41.4326H118.186V46.6914C118.186 46.8704 118.207 47.0055 118.249 47.0967C118.295 47.1878 118.352 47.248 118.42 47.2773C118.488 47.3066 118.562 47.3213 118.64 47.3213C118.698 47.3213 118.763 47.3148 118.835 47.3018C118.907 47.2855 118.955 47.2725 118.981 47.2627L118.977 48C118.918 48.0228 118.84 48.0439 118.742 48.0635C118.645 48.0863 118.521 48.0977 118.371 48.0977C118.186 48.0977 118.013 48.0537 117.854 47.9658C117.694 47.8779 117.565 47.7314 117.468 47.5264C117.37 47.318 117.321 47.0381 117.321 46.6865V41.4326ZM122.683 46.7793V42.7168H123.547V48H122.727L122.683 46.7793ZM122.844 45.666L123.186 45.6562C123.186 46.0078 123.155 46.3333 123.093 46.6328C123.034 46.929 122.937 47.1862 122.8 47.4043C122.666 47.6224 122.489 47.7933 122.268 47.917C122.046 48.0374 121.774 48.0977 121.452 48.0977C121.234 48.0977 121.035 48.0602 120.856 47.9854C120.681 47.9105 120.528 47.7949 120.397 47.6387C120.271 47.4824 120.171 47.279 120.1 47.0283C120.031 46.7777 119.997 46.4766 119.997 46.125V42.7168H120.856V46.1348C120.856 46.3724 120.878 46.5693 120.92 46.7256C120.962 46.8786 121.019 47.0007 121.091 47.0918C121.162 47.1797 121.242 47.2415 121.33 47.2773C121.418 47.3132 121.507 47.3311 121.599 47.3311C121.905 47.3311 122.149 47.2578 122.331 47.1113C122.513 46.9616 122.644 46.7614 122.722 46.5107C122.803 46.2568 122.844 45.9753 122.844 45.666ZM125.71 43.5469V48H124.846V42.7168H125.681L125.71 43.5469ZM127.023 42.6875L127.028 43.5273C126.957 43.5111 126.892 43.5013 126.833 43.498C126.778 43.4915 126.713 43.4883 126.638 43.4883C126.475 43.4883 126.332 43.5208 126.208 43.5859C126.088 43.651 125.983 43.7422 125.896 43.8594C125.808 43.9766 125.738 44.1165 125.686 44.2793C125.633 44.4388 125.598 44.6146 125.578 44.8066L125.354 44.9531C125.354 44.6341 125.378 44.3346 125.427 44.0547C125.479 43.7747 125.559 43.5273 125.666 43.3125C125.773 43.0944 125.91 42.9251 126.076 42.8047C126.245 42.681 126.447 42.6191 126.682 42.6191C126.734 42.6191 126.797 42.6273 126.872 42.6436C126.95 42.6566 127.001 42.6712 127.023 42.6875ZM130.285 47.0967V44.2305C130.285 44.0221 130.253 43.8545 130.188 43.7275C130.126 43.6006 130.031 43.5078 129.904 43.4492C129.781 43.3906 129.624 43.3613 129.436 43.3613C129.253 43.3613 129.095 43.3988 128.962 43.4736C128.832 43.5485 128.731 43.6478 128.659 43.7715C128.591 43.8952 128.557 44.0319 128.557 44.1816H127.692C127.692 43.9928 127.733 43.8057 127.814 43.6201C127.899 43.4346 128.02 43.2669 128.176 43.1172C128.332 42.9642 128.519 42.8437 128.737 42.7559C128.959 42.6647 129.206 42.6191 129.479 42.6191C129.805 42.6191 130.093 42.6729 130.344 42.7803C130.594 42.8844 130.791 43.0553 130.935 43.293C131.078 43.5306 131.149 43.8464 131.149 44.2402V46.8477C131.149 47.0234 131.162 47.2106 131.188 47.4092C131.218 47.6077 131.258 47.7786 131.311 47.9219V48H130.417C130.375 47.8958 130.342 47.7575 130.319 47.585C130.297 47.4092 130.285 47.2464 130.285 47.0967ZM130.422 44.7969L130.432 45.4316H129.831C129.626 45.4316 129.439 45.4544 129.27 45.5C129.104 45.5456 128.96 45.6123 128.84 45.7002C128.719 45.7848 128.627 45.8906 128.562 46.0176C128.5 46.1445 128.469 46.2894 128.469 46.4521C128.469 46.6637 128.498 46.833 128.557 46.96C128.615 47.0837 128.703 47.1732 128.82 47.2285C128.938 47.2839 129.086 47.3115 129.265 47.3115C129.483 47.3115 129.675 47.2611 129.841 47.1602C130.007 47.0592 130.135 46.9372 130.227 46.7939C130.321 46.6507 130.365 46.5173 130.358 46.3936L130.549 46.7988C130.536 46.9258 130.493 47.0641 130.422 47.2139C130.354 47.3604 130.257 47.502 130.134 47.6387C130.01 47.7721 129.864 47.8828 129.694 47.9707C129.528 48.0553 129.341 48.0977 129.133 48.0977C128.827 48.0977 128.558 48.0391 128.327 47.9219C128.099 47.8047 127.922 47.6322 127.795 47.4043C127.668 47.1764 127.604 46.8949 127.604 46.5596C127.604 46.3057 127.648 46.0713 127.736 45.8564C127.824 45.6416 127.954 45.4561 128.127 45.2998C128.299 45.1403 128.516 45.0166 128.776 44.9287C129.04 44.8408 129.344 44.7969 129.689 44.7969H130.422ZM129.035 41.9355L129.982 40.5H131.071L129.763 41.9355H129.035ZM134.323 47.3604C134.496 47.3604 134.652 47.3262 134.792 47.2578C134.935 47.1862 135.052 47.0755 135.144 46.9258C135.235 46.7728 135.287 46.5742 135.3 46.3301H136.11C136.097 46.6816 136.008 46.9909 135.842 47.2578C135.679 47.5215 135.464 47.7282 135.197 47.8779C134.934 48.0244 134.642 48.0977 134.323 48.0977C133.981 48.0977 133.684 48.0423 133.43 47.9316C133.179 47.821 132.971 47.6615 132.805 47.4531C132.642 47.2415 132.52 46.986 132.438 46.6865C132.357 46.3838 132.316 46.0404 132.316 45.6562V45.0605C132.316 44.6764 132.357 44.3346 132.438 44.0352C132.52 43.7324 132.642 43.4769 132.805 43.2686C132.971 43.057 133.179 42.8958 133.43 42.7852C133.684 42.6745 133.981 42.6191 134.323 42.6191C134.681 42.6191 134.991 42.6956 135.251 42.8486C135.515 42.9984 135.72 43.2165 135.866 43.5029C136.016 43.7861 136.097 44.1296 136.11 44.5332H135.3C135.287 44.2728 135.24 44.0563 135.158 43.8838C135.077 43.708 134.966 43.5778 134.826 43.4932C134.686 43.4053 134.519 43.3613 134.323 43.3613C134.095 43.3613 133.907 43.402 133.757 43.4834C133.61 43.5615 133.495 43.6755 133.41 43.8252C133.326 43.9749 133.265 44.154 133.229 44.3623C133.197 44.5706 133.181 44.8034 133.181 45.0605V45.6562C133.181 45.9134 133.197 46.1478 133.229 46.3594C133.265 46.5677 133.324 46.7467 133.405 46.8965C133.49 47.0462 133.607 47.1618 133.757 47.2432C133.907 47.3213 134.095 47.3604 134.323 47.3604ZM138.039 42.7168V48H137.18V42.7168H138.039ZM137.131 41.3154C137.131 41.1689 137.172 41.0452 137.253 40.9443C137.334 40.8434 137.456 40.793 137.619 40.793C137.782 40.793 137.904 40.8434 137.985 40.9443C138.07 41.0452 138.112 41.1689 138.112 41.3154C138.112 41.4554 138.07 41.5758 137.985 41.6768C137.904 41.7744 137.782 41.8232 137.619 41.8232C137.456 41.8232 137.334 41.7744 137.253 41.6768C137.172 41.5758 137.131 41.4554 137.131 41.3154ZM141.994 47.0967V44.2305C141.994 44.0221 141.962 43.8545 141.896 43.7275C141.835 43.6006 141.74 43.5078 141.613 43.4492C141.49 43.3906 141.333 43.3613 141.145 43.3613C140.962 43.3613 140.804 43.3988 140.671 43.4736C140.541 43.5485 140.44 43.6478 140.368 43.7715C140.3 43.8952 140.266 44.0319 140.266 44.1816H139.401C139.401 43.9928 139.442 43.8057 139.523 43.6201C139.608 43.4346 139.729 43.2669 139.885 43.1172C140.041 42.9642 140.228 42.8437 140.446 42.7559C140.668 42.6647 140.915 42.6191 141.188 42.6191C141.514 42.6191 141.802 42.6729 142.053 42.7803C142.303 42.8844 142.5 43.0553 142.644 43.293C142.787 43.5306 142.858 43.8464 142.858 44.2402V46.8477C142.858 47.0234 142.871 47.2106 142.897 47.4092C142.927 47.6077 142.967 47.7786 143.02 47.9219V48H142.126C142.084 47.8958 142.051 47.7575 142.028 47.585C142.006 47.4092 141.994 47.2464 141.994 47.0967ZM142.131 44.7969L142.141 45.4316H141.54C141.335 45.4316 141.148 45.4544 140.979 45.5C140.812 45.5456 140.669 45.6123 140.549 45.7002C140.428 45.7848 140.336 45.8906 140.271 46.0176C140.209 46.1445 140.178 46.2894 140.178 46.4521C140.178 46.6637 140.207 46.833 140.266 46.96C140.324 47.0837 140.412 47.1732 140.529 47.2285C140.646 47.2839 140.795 47.3115 140.974 47.3115C141.192 47.3115 141.384 47.2611 141.55 47.1602C141.716 47.0592 141.844 46.9372 141.936 46.7939C142.03 46.6507 142.074 46.5173 142.067 46.3936L142.258 46.7988C142.245 46.9258 142.202 47.0641 142.131 47.2139C142.062 47.3604 141.966 47.502 141.843 47.6387C141.719 47.7721 141.573 47.8828 141.403 47.9707C141.237 48.0553 141.05 48.0977 140.842 48.0977C140.536 48.0977 140.267 48.0391 140.036 47.9219C139.808 47.8047 139.631 47.6322 139.504 47.4043C139.377 47.1764 139.313 46.8949 139.313 46.5596C139.313 46.3057 139.357 46.0713 139.445 45.8564C139.533 45.6416 139.663 45.4561 139.836 45.2998C140.008 45.1403 140.225 45.0166 140.485 44.9287C140.749 44.8408 141.053 44.7969 141.398 44.7969H142.131Z" fill="url(#paint1_linear_363_2949)"/>
<path d="M198.158 39.8301V41.0654C198.158 41.5667 198.103 42.0078 197.992 42.3887C197.885 42.7663 197.727 43.082 197.519 43.3359C197.31 43.5898 197.06 43.7803 196.767 43.9072C196.474 44.0342 196.143 44.0977 195.775 44.0977C195.421 44.0977 195.097 44.0342 194.804 43.9072C194.511 43.7803 194.258 43.5898 194.047 43.3359C193.835 43.082 193.671 42.7663 193.554 42.3887C193.44 42.0078 193.383 41.5667 193.383 41.0654V39.8301C193.383 39.3288 193.44 38.8893 193.554 38.5117C193.668 38.1309 193.83 37.8135 194.042 37.5596C194.254 37.3057 194.506 37.1152 194.799 36.9883C195.092 36.8581 195.416 36.793 195.771 36.793C196.138 36.793 196.469 36.8581 196.762 36.9883C197.058 37.1152 197.309 37.3057 197.514 37.5596C197.722 37.8135 197.882 38.1309 197.992 38.5117C198.103 38.8893 198.158 39.3288 198.158 39.8301ZM197.27 41.0654V39.8203C197.27 39.4297 197.237 39.0944 197.172 38.8145C197.107 38.5312 197.011 38.3001 196.884 38.1211C196.757 37.9421 196.601 37.8102 196.415 37.7256C196.229 37.6377 196.015 37.5938 195.771 37.5938C195.539 37.5938 195.331 37.6377 195.146 37.7256C194.963 37.8102 194.807 37.9421 194.677 38.1211C194.547 38.3001 194.446 38.5312 194.374 38.8145C194.306 39.0944 194.271 39.4297 194.271 39.8203V41.0654C194.271 41.4593 194.306 41.7979 194.374 42.0811C194.446 42.361 194.547 42.5921 194.677 42.7744C194.81 42.9535 194.97 43.0869 195.155 43.1748C195.341 43.2594 195.548 43.3018 195.775 43.3018C196.02 43.3018 196.234 43.2594 196.42 43.1748C196.609 43.0869 196.765 42.9535 196.889 42.7744C197.016 42.5921 197.11 42.361 197.172 42.0811C197.237 41.7979 197.27 41.4593 197.27 41.0654ZM200.8 43.1846L201.933 38.7168H202.812L201.244 44H200.673L200.8 43.1846ZM199.887 38.7168L201.068 43.209L201.161 44H200.595L199.008 38.7168H199.887ZM205.531 44.0977C205.215 44.0977 204.931 44.0505 204.677 43.9561C204.423 43.8617 204.206 43.7184 204.027 43.5264C203.848 43.3311 203.712 43.0853 203.617 42.7891C203.523 42.4928 203.476 42.1429 203.476 41.7393V41.1436C203.476 40.6781 203.529 40.2842 203.637 39.9619C203.747 39.6396 203.896 39.3809 204.081 39.1855C204.267 38.987 204.477 38.8438 204.711 38.7559C204.945 38.6647 205.186 38.6191 205.434 38.6191C205.766 38.6191 206.049 38.6729 206.283 38.7803C206.518 38.8877 206.708 39.0472 206.854 39.2588C207.001 39.4704 207.108 39.7308 207.177 40.04C207.248 40.3493 207.284 40.7057 207.284 41.1094V41.6123H203.983V40.875H206.42V40.7529C206.407 40.4795 206.369 40.2386 206.308 40.0303C206.249 39.8219 206.151 39.6592 206.015 39.542C205.878 39.4215 205.684 39.3613 205.434 39.3613C205.274 39.3613 205.126 39.389 204.989 39.4443C204.856 39.4964 204.74 39.5892 204.643 39.7227C204.548 39.8529 204.473 40.0335 204.418 40.2646C204.366 40.4958 204.34 40.7887 204.34 41.1436V41.7393C204.34 42.0225 204.366 42.2666 204.418 42.4717C204.473 42.6735 204.553 42.8411 204.657 42.9746C204.765 43.1048 204.895 43.2025 205.048 43.2676C205.204 43.3294 205.382 43.3604 205.58 43.3604C205.87 43.3604 206.109 43.305 206.298 43.1943C206.487 43.0804 206.651 42.9355 206.791 42.7598L207.245 43.3018C207.151 43.4352 207.027 43.5638 206.874 43.6875C206.724 43.8079 206.539 43.9072 206.317 43.9854C206.099 44.0602 205.837 44.0977 205.531 44.0977ZM209.193 39.5469V44H208.329V38.7168H209.164L209.193 39.5469ZM210.507 38.6875L210.512 39.5273C210.44 39.5111 210.375 39.5013 210.316 39.498C210.261 39.4915 210.196 39.4883 210.121 39.4883C209.958 39.4883 209.815 39.5208 209.691 39.5859C209.571 39.651 209.467 39.7422 209.379 39.8594C209.291 39.9766 209.221 40.1165 209.169 40.2793C209.117 40.4388 209.081 40.6146 209.062 40.8066L208.837 40.9531C208.837 40.6341 208.861 40.3346 208.91 40.0547C208.962 39.7747 209.042 39.5273 209.149 39.3125C209.257 39.0944 209.394 38.9251 209.56 38.8047C209.729 38.681 209.931 38.6191 210.165 38.6191C210.217 38.6191 210.281 38.6273 210.355 38.6436C210.434 38.6566 210.484 38.6712 210.507 38.6875ZM213.168 44.0977C212.852 44.0977 212.567 44.0505 212.313 43.9561C212.06 43.8617 211.843 43.7184 211.664 43.5264C211.485 43.3311 211.348 43.0853 211.254 42.7891C211.16 42.4928 211.112 42.1429 211.112 41.7393V41.1436C211.112 40.6781 211.166 40.2842 211.273 39.9619C211.384 39.6396 211.532 39.3809 211.718 39.1855C211.903 38.987 212.113 38.8437 212.348 38.7559C212.582 38.6647 212.823 38.6191 213.07 38.6191C213.402 38.6191 213.686 38.6729 213.92 38.7803C214.154 38.8877 214.345 39.0472 214.491 39.2588C214.638 39.4704 214.745 39.7308 214.813 40.04C214.885 40.3493 214.921 40.7057 214.921 41.1094V41.6123L211.62 41.6123V40.875L214.057 40.875V40.7529C214.044 40.4795 214.006 40.2386 213.944 40.0303C213.886 39.8219 213.788 39.6592 213.651 39.542C213.515 39.4215 213.321 39.3613 213.07 39.3613C212.911 39.3613 212.763 39.389 212.626 39.4443C212.493 39.4964 212.377 39.5892 212.279 39.7227C212.185 39.8529 212.11 40.0335 212.055 40.2646C212.003 40.4958 211.977 40.7887 211.977 41.1436V41.7393C211.977 42.0225 212.003 42.2666 212.055 42.4717C212.11 42.6735 212.19 42.8411 212.294 42.9746C212.401 43.1048 212.532 43.2025 212.685 43.2676C212.841 43.3294 213.018 43.3604 213.217 43.3604C213.507 43.3604 213.746 43.305 213.935 43.1943C214.123 43.0804 214.288 42.9355 214.428 42.7598L214.882 43.3018C214.787 43.4352 214.664 43.5638 214.511 43.6875C214.361 43.8079 214.175 43.9072 213.954 43.9854C213.736 44.0602 213.474 44.0977 213.168 44.0977ZM216.83 39.8447V44H215.966V38.7168H216.781L216.83 39.8447ZM216.62 41.1582L216.269 41.1436C216.265 40.7822 216.306 40.4486 216.391 40.1426C216.479 39.8333 216.602 39.5648 216.762 39.3369C216.924 39.109 217.118 38.9333 217.343 38.8096C217.567 38.6826 217.816 38.6191 218.09 38.6191C218.305 38.6191 218.5 38.6549 218.676 38.7266C218.852 38.7949 219.001 38.9056 219.125 39.0586C219.249 39.2116 219.343 39.4102 219.408 39.6543C219.477 39.8952 219.511 40.1898 219.511 40.5381V44H218.646V40.5283C218.646 40.2516 218.616 40.0303 218.554 39.8643C218.495 39.695 218.404 39.5729 218.28 39.498C218.16 39.4199 218.007 39.3809 217.821 39.3809C217.652 39.3809 217.494 39.4281 217.348 39.5225C217.201 39.6169 217.073 39.7471 216.962 39.9131C216.854 40.0791 216.77 40.2695 216.708 40.4844C216.649 40.696 216.62 40.9206 216.62 41.1582ZM221.737 38.7168V44H220.878V38.7168H221.737ZM220.829 37.3154C220.829 37.1689 220.87 37.0452 220.951 36.9443C221.033 36.8434 221.155 36.793 221.317 36.793C221.48 36.793 221.602 36.8434 221.684 36.9443C221.768 37.0452 221.811 37.1689 221.811 37.3154C221.811 37.4554 221.768 37.5758 221.684 37.6768C221.602 37.7744 221.48 37.8232 221.317 37.8232C221.155 37.8232 221.033 37.7744 220.951 37.6768C220.87 37.5758 220.829 37.4554 220.829 37.3154ZM224.994 44.0977C224.678 44.0977 224.394 44.0505 224.14 43.9561C223.886 43.8617 223.669 43.7184 223.49 43.5264C223.311 43.3311 223.174 43.0853 223.08 42.7891C222.986 42.4928 222.938 42.1429 222.938 41.7393V41.1436C222.938 40.6781 222.992 40.2842 223.1 39.9619C223.21 39.6396 223.358 39.3809 223.544 39.1855C223.729 38.987 223.939 38.8437 224.174 38.7559C224.408 38.6647 224.649 38.6191 224.896 38.6191C225.229 38.6191 225.512 38.6729 225.746 38.7803C225.98 38.8877 226.171 39.0472 226.317 39.2588C226.464 39.4704 226.571 39.7308 226.64 40.04C226.711 40.3493 226.747 40.7057 226.747 41.1094V41.6123H223.446V40.875H225.883V40.7529C225.87 40.4795 225.832 40.2386 225.771 40.0303C225.712 39.8219 225.614 39.6592 225.478 39.542C225.341 39.4215 225.147 39.3613 224.896 39.3613C224.737 39.3613 224.589 39.389 224.452 39.4443C224.319 39.4964 224.203 39.5892 224.105 39.7227C224.011 39.8529 223.936 40.0335 223.881 40.2646C223.829 40.4958 223.803 40.7887 223.803 41.1436V41.7393C223.803 42.0225 223.829 42.2666 223.881 42.4717C223.936 42.6735 224.016 42.8411 224.12 42.9746C224.228 43.1048 224.358 43.2025 224.511 43.2676C224.667 43.3294 224.844 43.3604 225.043 43.3604C225.333 43.3604 225.572 43.305 225.761 43.1943C225.95 43.0804 226.114 42.9355 226.254 42.7598L226.708 43.3018C226.614 43.4352 226.49 43.5638 226.337 43.6875C226.187 43.8079 226.002 43.9072 225.78 43.9854C225.562 44.0602 225.3 44.0977 224.994 44.0977ZM232.675 43.0967V40.2305C232.675 40.0221 232.642 39.8545 232.577 39.7275C232.515 39.6006 232.421 39.5078 232.294 39.4492C232.17 39.3906 232.014 39.3613 231.825 39.3613C231.643 39.3613 231.485 39.3988 231.352 39.4736C231.221 39.5485 231.12 39.6478 231.049 39.7715C230.98 39.8952 230.946 40.0319 230.946 40.1816H230.082C230.082 39.9928 230.123 39.8057 230.204 39.6201C230.289 39.4346 230.409 39.2669 230.565 39.1172C230.722 38.9642 230.909 38.8437 231.127 38.7559C231.348 38.6647 231.596 38.6191 231.869 38.6191C232.195 38.6191 232.483 38.6729 232.733 38.7803C232.984 38.8844 233.181 39.0553 233.324 39.293C233.467 39.5306 233.539 39.8464 233.539 40.2402V42.8477C233.539 43.0234 233.552 43.2106 233.578 43.4092C233.607 43.6077 233.648 43.7786 233.7 43.9219V44H232.807C232.764 43.8958 232.732 43.7575 232.709 43.585C232.686 43.4092 232.675 43.2464 232.675 43.0967ZM232.812 40.7969L232.821 41.4316H232.221C232.016 41.4316 231.828 41.4544 231.659 41.5C231.493 41.5456 231.35 41.6123 231.229 41.7002C231.109 41.7848 231.016 41.8906 230.951 42.0176C230.889 42.1445 230.858 42.2894 230.858 42.4521C230.858 42.6637 230.888 42.833 230.946 42.96C231.005 43.0837 231.093 43.1732 231.21 43.2285C231.327 43.2839 231.475 43.3115 231.654 43.3115C231.872 43.3115 232.064 43.2611 232.23 43.1602C232.396 43.0592 232.525 42.9372 232.616 42.7939C232.711 42.6507 232.755 42.5173 232.748 42.3936L232.938 42.7988C232.925 42.9258 232.883 43.0641 232.812 43.2139C232.743 43.3604 232.647 43.502 232.523 43.6387C232.4 43.7721 232.253 43.8828 232.084 43.9707C231.918 44.0553 231.731 44.0977 231.522 44.0977C231.216 44.0977 230.948 44.0391 230.717 43.9219C230.489 43.8047 230.312 43.6322 230.185 43.4043C230.058 43.1764 229.994 42.8949 229.994 42.5596C229.994 42.3057 230.038 42.0713 230.126 41.8564C230.214 41.6416 230.344 41.4561 230.517 41.2998C230.689 41.1403 230.906 41.0166 231.166 40.9287C231.43 40.8408 231.734 40.7969 232.079 40.7969H232.812ZM202.66 50.7324V57.0312H201.796V49.7168H202.582L202.66 50.7324ZM205.614 52.1191V52.6123C205.614 53.029 205.575 53.3936 205.497 53.7061C205.422 54.0153 205.31 54.2741 205.16 54.4824C205.014 54.6875 204.833 54.8421 204.618 54.9463C204.403 55.0472 204.158 55.0977 203.881 55.0977C203.604 55.0977 203.363 55.0456 203.158 54.9414C202.956 54.834 202.785 54.6794 202.646 54.4775C202.509 54.2757 202.4 54.0332 202.318 53.75C202.24 53.4635 202.187 53.1429 202.157 52.7881V52.0361C202.187 51.6618 202.24 51.3265 202.318 51.0303C202.396 50.7308 202.504 50.4769 202.641 50.2686C202.781 50.057 202.951 49.8958 203.153 49.7852C203.358 49.6745 203.598 49.6191 203.871 49.6191C204.154 49.6191 204.403 49.668 204.618 49.7656C204.836 49.8633 205.019 50.0146 205.165 50.2197C205.315 50.4215 205.427 50.6803 205.502 50.9961C205.577 51.3086 205.614 51.6829 205.614 52.1191ZM204.75 52.6123V52.1191C204.75 51.8262 204.727 51.5706 204.682 51.3525C204.639 51.1344 204.571 50.9538 204.477 50.8105C204.382 50.6673 204.263 50.5599 204.12 50.4883C203.977 50.4167 203.804 50.3809 203.603 50.3809C203.43 50.3809 203.277 50.4167 203.144 50.4883C203.013 50.5599 202.901 50.6576 202.807 50.7812C202.712 50.9017 202.634 51.04 202.572 51.1963C202.51 51.3493 202.465 51.5088 202.436 51.6748V53.1543C202.491 53.3626 202.564 53.5596 202.655 53.7451C202.746 53.9274 202.868 54.0755 203.021 54.1895C203.178 54.3034 203.375 54.3604 203.612 54.3604C203.811 54.3604 203.982 54.3245 204.125 54.2529C204.268 54.1813 204.385 54.0739 204.477 53.9307C204.571 53.7842 204.639 53.6019 204.682 53.3838C204.727 53.1624 204.75 52.9053 204.75 52.6123ZM207.655 47.5V55H206.796V47.5H207.655ZM211.61 54.0967V51.2305C211.61 51.0221 211.578 50.8545 211.513 50.7275C211.451 50.6006 211.356 50.5078 211.229 50.4492C211.106 50.3906 210.95 50.3613 210.761 50.3613C210.578 50.3613 210.421 50.3988 210.287 50.4736C210.157 50.5485 210.056 50.6478 209.984 50.7715C209.916 50.8952 209.882 51.0319 209.882 51.1816H209.018C209.018 50.9928 209.058 50.8057 209.14 50.6201C209.224 50.4346 209.345 50.2669 209.501 50.1172C209.657 49.9642 209.844 49.8438 210.062 49.7559C210.284 49.6647 210.531 49.6191 210.805 49.6191C211.13 49.6191 211.418 49.6729 211.669 49.7803C211.92 49.8844 212.117 50.0553 212.26 50.293C212.403 50.5306 212.475 50.8464 212.475 51.2402V53.8477C212.475 54.0234 212.488 54.2106 212.514 54.4092C212.543 54.6077 212.584 54.7786 212.636 54.9219V55H211.742C211.7 54.8958 211.667 54.7575 211.645 54.585C211.622 54.4092 211.61 54.2464 211.61 54.0967ZM211.747 51.7969L211.757 52.4316H211.156C210.951 52.4316 210.764 52.4544 210.595 52.5C210.429 52.5456 210.285 52.6123 210.165 52.7002C210.045 52.7848 209.952 52.8906 209.887 53.0176C209.825 53.1445 209.794 53.2894 209.794 53.4521C209.794 53.6637 209.823 53.833 209.882 53.96C209.94 54.0837 210.028 54.1732 210.146 54.2285C210.263 54.2839 210.411 54.3115 210.59 54.3115C210.808 54.3115 211 54.2611 211.166 54.1602C211.332 54.0592 211.461 53.9372 211.552 53.7939C211.646 53.6507 211.69 53.5173 211.684 53.3936L211.874 53.7988C211.861 53.9258 211.819 54.0641 211.747 54.2139C211.679 54.3604 211.583 54.502 211.459 54.6387C211.335 54.7721 211.189 54.8828 211.02 54.9707C210.854 55.0553 210.666 55.0977 210.458 55.0977C210.152 55.0977 209.883 55.0391 209.652 54.9219C209.424 54.8047 209.247 54.6322 209.12 54.4043C208.993 54.1764 208.93 53.8949 208.93 53.5596C208.93 53.3057 208.974 53.0713 209.062 52.8564C209.149 52.6416 209.28 52.4561 209.452 52.2998C209.625 52.1403 209.841 52.0166 210.102 51.9287C210.365 51.8408 210.67 51.7969 211.015 51.7969H211.747ZM215.746 49.7168V50.4102L213.28 50.4102V49.7168L215.746 49.7168ZM214.086 48.4326H214.95V53.6914C214.95 53.8704 214.971 54.0055 215.014 54.0967C215.059 54.1878 215.116 54.248 215.185 54.2773C215.253 54.3066 215.326 54.3213 215.404 54.3213C215.463 54.3213 215.528 54.3148 215.6 54.3018C215.671 54.2855 215.72 54.2725 215.746 54.2627L215.741 55C215.683 55.0228 215.604 55.0439 215.507 55.0635C215.409 55.0863 215.285 55.0977 215.136 55.0977C214.95 55.0977 214.778 55.0537 214.618 54.9658C214.459 54.8779 214.33 54.7314 214.232 54.5264C214.135 54.318 214.086 54.0381 214.086 53.6865V48.4326ZM216.776 47.5H217.641V53.9746L217.567 55H216.776V47.5ZM220.604 52.1191V52.6123C220.604 53.029 220.565 53.3936 220.487 53.7061C220.412 54.0153 220.3 54.2741 220.15 54.4824C220.001 54.6875 219.818 54.8421 219.604 54.9463C219.389 55.0472 219.143 55.0977 218.866 55.0977C218.593 55.0977 218.357 55.0423 218.158 54.9316C217.96 54.821 217.794 54.6615 217.66 54.4531C217.527 54.2448 217.421 53.9925 217.343 53.6963C217.268 53.4001 217.216 53.0664 217.187 52.6953V52.0361C217.216 51.6618 217.268 51.3265 217.343 51.0303C217.418 50.7308 217.522 50.4769 217.655 50.2686C217.789 50.057 217.955 49.8958 218.153 49.7852C218.352 49.6745 218.588 49.6191 218.861 49.6191C219.141 49.6191 219.389 49.668 219.604 49.7656C219.822 49.8633 220.004 50.0146 220.15 50.2197C220.3 50.4215 220.412 50.6803 220.487 50.9961C220.565 51.3086 220.604 51.6829 220.604 52.1191ZM219.74 52.6123V52.1191C219.74 51.8262 219.721 51.5706 219.682 51.3525C219.646 51.1344 219.586 50.9538 219.501 50.8105C219.416 50.6673 219.302 50.5599 219.159 50.4883C219.019 50.4167 218.845 50.3809 218.637 50.3809C218.461 50.3809 218.306 50.4167 218.173 50.4883C218.043 50.5599 217.93 50.6576 217.836 50.7812C217.742 50.9017 217.663 51.04 217.602 51.1963C217.54 51.3493 217.494 51.5088 217.465 51.6748V53.0615C217.507 53.2731 217.574 53.4766 217.665 53.6719C217.759 53.8639 217.886 54.0218 218.046 54.1455C218.205 54.2692 218.404 54.3311 218.642 54.3311C218.84 54.3311 219.008 54.2969 219.145 54.2285C219.285 54.1602 219.398 54.056 219.486 53.916C219.574 53.7728 219.638 53.5938 219.677 53.3789C219.719 53.1608 219.74 52.9053 219.74 52.6123ZM224.296 54.0967V51.2305C224.296 51.0221 224.263 50.8545 224.198 50.7275C224.136 50.6006 224.042 50.5078 223.915 50.4492C223.791 50.3906 223.635 50.3613 223.446 50.3613C223.264 50.3613 223.106 50.3988 222.973 50.4736C222.842 50.5485 222.742 50.6478 222.67 50.7715C222.602 50.8952 222.567 51.0319 222.567 51.1816H221.703C221.703 50.9928 221.744 50.8057 221.825 50.6201C221.91 50.4346 222.03 50.2669 222.187 50.1172C222.343 49.9642 222.53 49.8437 222.748 49.7559C222.969 49.6647 223.217 49.6191 223.49 49.6191C223.816 49.6191 224.104 49.6729 224.354 49.7803C224.605 49.8844 224.802 50.0553 224.945 50.293C225.089 50.5306 225.16 50.8464 225.16 51.2402V53.8477C225.16 54.0234 225.173 54.2106 225.199 54.4092C225.229 54.6077 225.269 54.7786 225.321 54.9219V55H224.428C224.385 54.8958 224.353 54.7575 224.33 54.585C224.307 54.4092 224.296 54.2464 224.296 54.0967ZM224.433 51.7969L224.442 52.4316H223.842C223.637 52.4316 223.45 52.4544 223.28 52.5C223.114 52.5456 222.971 52.6123 222.851 52.7002C222.73 52.7848 222.637 52.8906 222.572 53.0176C222.51 53.1445 222.479 53.2894 222.479 53.4521C222.479 53.6637 222.509 53.833 222.567 53.96C222.626 54.0837 222.714 54.1732 222.831 54.2285C222.948 54.2839 223.096 54.3115 223.275 54.3115C223.493 54.3115 223.686 54.2611 223.852 54.1602C224.018 54.0592 224.146 53.9372 224.237 53.7939C224.332 53.6507 224.376 53.5173 224.369 53.3936L224.56 53.7988C224.547 53.9258 224.504 54.0641 224.433 54.2139C224.364 54.3604 224.268 54.502 224.145 54.6387C224.021 54.7721 223.874 54.8828 223.705 54.9707C223.539 55.0553 223.352 55.0977 223.144 55.0977C222.838 55.0977 222.569 55.0391 222.338 54.9219C222.11 54.8047 221.933 54.6322 221.806 54.4043C221.679 54.1764 221.615 53.8949 221.615 53.5596C221.615 53.3057 221.659 53.0713 221.747 52.8564C221.835 52.6416 221.965 52.4561 222.138 52.2998C222.31 52.1403 222.527 52.0166 222.787 51.9287C223.051 51.8408 223.355 51.7969 223.7 51.7969H224.433Z" fill="#E0E0E9"/>
<path fill-rule="evenodd" clip-rule="evenodd" d="M203 16L136 16V14L203 14V16Z" fill="#D0CFD7"/>
<path fill-rule="evenodd" clip-rule="evenodd" d="M110 16L43 16V14L110 14V16Z" fill="url(#paint2_linear_363_2949)"/>
<path fill-rule="evenodd" clip-rule="evenodd" d="M17.7612 6.17317C17 8.01088 17 10.3406 17 15C17 19.6594 17 21.9891 17.7612 23.8268C18.7761 26.2771 20.7229 28.2239 23.1732 29.2388C25.0109 30 27.3406 30 32 30C36.6594 30 38.9891 30 40.8268 29.2388C43.2771 28.2239 45.2239 26.2771 46.2388 23.8268C47 21.9891 47 19.6594 47 15C47 10.3406 47 8.01088 46.2388 6.17317C45.2239 3.72288 43.2771 1.77614 40.8268 0.761205C38.9891 0 36.6594 0 32 0C27.3406 0 25.0109 0 23.1732 0.761205C20.7229 1.77614 18.7761 3.72288 17.7612 6.17317ZM38.7071 11.7071C39.0976 11.3166 39.0976 10.6834 38.7071 10.2929C38.3166 9.90237 37.6834 9.90237 37.2929 10.2929L30 17.5858L26.7071 14.2929C26.3166 13.9024 25.6834 13.9024 25.2929 14.2929C24.9024 14.6834 24.9024 15.3166 25.2929 15.7071L29.2929 19.7071C29.4804 19.8946 29.7348 20 30 20C30.2652 20 30.5196 19.8946 30.7071 19.7071L38.7071 11.7071Z" fill="url(#paint3_linear_363_2949)"/>
<path fill-rule="evenodd" clip-rule="evenodd" d="M108.761 6.17317C108 8.01088 108 10.3406 108 15C108 19.6594 108 21.9891 108.761 23.8268C109.776 26.2771 111.723 28.2239 114.173 29.2388C116.011 30 118.341 30 123 30C127.659 30 129.989 30 131.827 29.2388C134.277 28.2239 136.224 26.2771 137.239 23.8268C138 21.9891 138 19.6594 138 15C138 10.3406 138 8.01088 137.239 6.17317C136.224 3.72288 134.277 1.77614 131.827 0.761205C129.989 0 127.659 0 123 0C118.341 0 116.011 0 114.173 0.761205C111.723 1.77614 109.776 3.72288 108.761 6.17317ZM129.707 11.7071C130.098 11.3166 130.098 10.6834 129.707 10.2929C129.317 9.90237 128.683 9.90237 128.293 10.2929L121 17.5858L117.707 14.2929C117.317 13.9024 116.683 13.9024 116.293 14.2929C115.902 14.6834 115.902 15.3166 116.293 15.7071L120.293 19.7071C120.48 19.8946 120.735 20 121 20C121.265 20 121.52 19.8946 121.707 19.7071L129.707 11.7071Z" fill="url(#paint4_linear_363_2949)"/>
<path fill-rule="evenodd" clip-rule="evenodd" d="M199.761 6.17317C199 8.01088 199 10.3406 199 15C199 19.6594 199 21.9891 199.761 23.8268C200.776 26.2771 202.723 28.2239 205.173 29.2388C207.011 30 209.341 30 214 30C218.659 30 220.989 30 222.827 29.2388C225.277 28.2239 227.224 26.2771 228.239 23.8268C229 21.9891 229 19.6594 229 15C229 10.3406 229 8.01088 228.239 6.17317C227.224 3.72288 225.277 1.77614 222.827 0.761205C220.989 0 218.659 0 214 0C209.341 0 207.011 0 205.173 0.761205C202.723 1.77614 200.776 3.72288 199.761 6.17317ZM220.707 11.7071C221.098 11.3166 221.098 10.6834 220.707 10.2929C220.317 9.90237 219.683 9.90237 219.293 10.2929L212 17.5858L208.707 14.2929C208.317 13.9024 207.683 13.9024 207.293 14.2929C206.902 14.6834 206.902 15.3166 207.293 15.7071L211.293 19.7071C211.48 19.8946 211.735 20 212 20C212.265 20 212.52 19.8946 212.707 19.7071L220.707 11.7071Z" fill="#D0CFD7"/>
<defs>
<linearGradient id="paint0_linear_363_2949" x1="32" y1="68" x2="32" y2="35" gradientUnits="userSpaceOnUse">
<stop stop-color="#5CCC94"/>
<stop offset="1" stop-color="#8CCAAE"/>
</linearGradient>
<linearGradient id="paint1_linear_363_2949" x1="123" y1="55" x2="123" y2="35" gradientUnits="userSpaceOnUse">
<stop stop-color="#5CCC94"/>
<stop offset="1" stop-color="#8CCAAE"/>
</linearGradient>
<linearGradient id="paint2_linear_363_2949" x1="76.5" y1="16" x2="76.5" y2="14" gradientUnits="userSpaceOnUse">
<stop stop-color="#5CCC94"/>
<stop offset="1" stop-color="#8CCAAE"/>
</linearGradient>
<linearGradient id="paint3_linear_363_2949" x1="32" y1="30" x2="32" y2="1.58545e-07" gradientUnits="userSpaceOnUse">
<stop stop-color="#5CCC94"/>
<stop offset="1" stop-color="#8CCAAE"/>
</linearGradient>
<linearGradient id="paint4_linear_363_2949" x1="123" y1="30" x2="123" y2="1.58545e-07" gradientUnits="userSpaceOnUse">
<stop stop-color="#5CCC94"/>
<stop offset="1" stop-color="#8CCAAE"/>
</linearGradient>
</defs>
</svg>
