<svg width="240" height="68" viewBox="0 0 240 68" fill="none" xmlns="http://www.w3.org/2000/svg">
<path d="M6.66699 36.8906L6.66699 44H5.76367L2.91699 38.5166L2.91699 44H2.01855L2.01855 36.8906H2.91699L5.77832 42.3887L5.77832 36.8906H6.66699ZM10.7734 42.7793L10.7734 38.7168H11.6377L11.6377 44H10.8174L10.7734 42.7793ZM10.9346 41.666L11.2764 41.6562C11.2764 42.0078 11.2454 42.3333 11.1836 42.6328C11.125 42.929 11.0273 43.1862 10.8906 43.4043C10.7572 43.6224 10.5798 43.7933 10.3584 43.917C10.137 44.0374 9.86523 44.0977 9.54297 44.0977C9.32487 44.0977 9.1263 44.0602 8.94727 43.9854C8.77148 43.9105 8.61849 43.7949 8.48828 43.6387C8.36133 43.4824 8.26204 43.279 8.19043 43.0283C8.12207 42.7777 8.08789 42.4766 8.08789 42.125L8.08789 38.7168H8.94727L8.94727 42.1348C8.94727 42.3724 8.96842 42.5693 9.01074 42.7256C9.05306 42.8786 9.11003 43.0007 9.18164 43.0918C9.25326 43.1797 9.33301 43.2415 9.4209 43.2773C9.50879 43.3132 9.59831 43.3311 9.68945 43.3311C9.99544 43.3311 10.2396 43.2578 10.4219 43.1113C10.6042 42.9616 10.7344 42.7614 10.8125 42.5107C10.8939 42.2568 10.9346 41.9753 10.9346 41.666ZM13.8008 39.7666L13.8008 44H12.9414L12.9414 38.7168H13.752L13.8008 39.7666ZM13.625 41.1582L13.2246 41.1436C13.2214 40.7822 13.2572 40.4486 13.332 40.1426C13.4069 39.8333 13.5192 39.5648 13.6689 39.3369C13.8219 39.109 14.0124 38.9333 14.2402 38.8096C14.4714 38.6826 14.7399 38.6191 15.0459 38.6191C15.2477 38.6191 15.4349 38.6549 15.6074 38.7266C15.7832 38.7949 15.9362 38.904 16.0664 39.0537C16.1966 39.2035 16.2975 39.3955 16.3691 39.6299C16.444 39.8643 16.4814 40.1475 16.4814 40.4795V44H15.6172V40.5234C15.6172 40.2467 15.5798 40.0254 15.5049 39.8594C15.4333 39.6934 15.3307 39.5729 15.1973 39.498C15.0638 39.4199 14.9043 39.3809 14.7188 39.3809C14.5072 39.3809 14.3298 39.4281 14.1865 39.5225C14.0465 39.6169 13.9342 39.7471 13.8496 39.9131C13.7682 40.0791 13.7096 40.2695 13.6738 40.4844C13.6413 40.696 13.625 40.9206 13.625 41.1582ZM16.4717 40.6602L15.8955 40.8457C15.8923 40.556 15.9281 40.2777 16.0029 40.0107C16.0778 39.7438 16.1885 39.5062 16.335 39.2979C16.4847 39.0895 16.6702 38.9251 16.8916 38.8047C17.113 38.681 17.3701 38.6191 17.6631 38.6191C17.904 38.6191 18.1172 38.6566 18.3027 38.7314C18.4883 38.8063 18.6445 38.9219 18.7715 39.0781C18.9017 39.2311 18.9993 39.4281 19.0645 39.6689C19.1296 39.9098 19.1621 40.1963 19.1621 40.5283V44H18.2979V40.5186C18.2979 40.2223 18.2604 39.9928 18.1855 39.8301C18.1139 39.6641 18.0114 39.5485 17.8779 39.4834C17.7445 39.415 17.585 39.3809 17.3994 39.3809C17.2497 39.3809 17.1162 39.415 16.999 39.4834C16.8851 39.5518 16.7891 39.6462 16.7109 39.7666C16.6328 39.8838 16.5726 40.0189 16.5303 40.1719C16.4912 40.3249 16.4717 40.4876 16.4717 40.6602ZM22.3555 44.0977C22.0397 44.0977 21.7549 44.0505 21.501 43.9561C21.2471 43.8617 21.0306 43.7184 20.8516 43.5264C20.6725 43.3311 20.5358 43.0853 20.4414 42.7891C20.347 42.4928 20.2998 42.1429 20.2998 41.7393V41.1436C20.2998 40.6781 20.3535 40.2842 20.4609 39.9619C20.5716 39.6396 20.7197 39.3809 20.9053 39.1855C21.0908 38.987 21.3008 38.8438 21.5352 38.7559C21.7695 38.6647 22.0104 38.6191 22.2578 38.6191C22.5898 38.6191 22.873 38.6729 23.1074 38.7803C23.3418 38.8877 23.5322 39.0472 23.6787 39.2588C23.8252 39.4704 23.9326 39.7308 24.001 40.04C24.0726 40.3493 24.1084 40.7057 24.1084 41.1094V41.6123H20.8076V40.875H23.2441V40.7529C23.2311 40.4795 23.1937 40.2386 23.1318 40.0303C23.0732 39.8219 22.9756 39.6592 22.8389 39.542C22.7021 39.4215 22.5085 39.3613 22.2578 39.3613C22.0983 39.3613 21.9502 39.389 21.8135 39.4443C21.68 39.4964 21.5645 39.5892 21.4668 39.7227C21.3724 39.8529 21.2975 40.0335 21.2422 40.2646C21.1901 40.4958 21.1641 40.7887 21.1641 41.1436V41.7393C21.1641 42.0225 21.1901 42.2666 21.2422 42.4717C21.2975 42.6735 21.3773 42.8411 21.4814 42.9746C21.5889 43.1048 21.7191 43.2025 21.8721 43.2676C22.0283 43.3294 22.2057 43.3604 22.4043 43.3604C22.694 43.3604 22.9333 43.305 23.1221 43.1943C23.3109 43.0804 23.4753 42.9355 23.6152 42.7598L24.0693 43.3018C23.9749 43.4352 23.8512 43.5638 23.6982 43.6875C23.5485 43.8079 23.363 43.9072 23.1416 43.9854C22.9235 44.0602 22.6615 44.0977 22.3555 44.0977ZM26.0176 39.5469V44H25.1533V38.7168H25.9883L26.0176 39.5469ZM27.3311 38.6875L27.3359 39.5273C27.2643 39.5111 27.1992 39.5013 27.1406 39.498C27.0853 39.4915 27.0202 39.4883 26.9453 39.4883C26.7826 39.4883 26.6393 39.5208 26.5156 39.5859C26.3952 39.651 26.291 39.7422 26.2031 39.8594C26.1152 39.9766 26.0452 40.1165 25.9932 40.2793C25.9411 40.4388 25.9053 40.6146 25.8857 40.8066L25.6611 40.9531C25.6611 40.6341 25.6855 40.3346 25.7344 40.0547C25.7865 39.7747 25.8662 39.5273 25.9736 39.3125C26.0811 39.0944 26.2178 38.9251 26.3838 38.8047C26.5531 38.681 26.7549 38.6191 26.9893 38.6191C27.0413 38.6191 27.1048 38.6273 27.1797 38.6436C27.2578 38.6566 27.3083 38.6712 27.3311 38.6875ZM27.9219 41.6123V41.1094C27.9219 40.6992 27.974 40.3395 28.0781 40.0303C28.1823 39.7178 28.3271 39.4574 28.5127 39.249C28.6982 39.0407 28.9147 38.8844 29.1621 38.7803C29.4095 38.6729 29.6748 38.6191 29.958 38.6191C30.2477 38.6191 30.5163 38.6729 30.7637 38.7803C31.0111 38.8844 31.2275 39.0407 31.4131 39.249C31.6019 39.4574 31.7484 39.7178 31.8525 40.0303C31.9567 40.3395 32.0088 40.6992 32.0088 41.1094V41.6123C32.0088 42.0225 31.9567 42.3838 31.8525 42.6963C31.7484 43.0055 31.6035 43.2643 31.418 43.4727C31.2324 43.681 31.016 43.8372 30.7686 43.9414C30.5212 44.0456 30.2542 44.0977 29.9678 44.0977C29.6813 44.0977 29.4144 44.0456 29.167 43.9414C28.9196 43.8372 28.7015 43.681 28.5127 43.4727C28.3271 43.2643 28.1823 43.0055 28.0781 42.6963C27.974 42.3838 27.9219 42.0225 27.9219 41.6123ZM28.7861 41.1094V41.6123C28.7861 41.902 28.8154 42.1559 28.874 42.374C28.9326 42.5921 29.0156 42.7744 29.123 42.9209C29.2305 43.0674 29.3558 43.1781 29.499 43.2529C29.6423 43.3245 29.7985 43.3604 29.9678 43.3604C30.1631 43.3604 30.334 43.3245 30.4805 43.2529C30.6302 43.1781 30.7539 43.0674 30.8516 42.9209C30.9492 42.7744 31.0225 42.5921 31.0713 42.374C31.1201 42.1559 31.1445 41.902 31.1445 41.6123V41.1094C31.1445 40.8197 31.1152 40.5674 31.0566 40.3525C30.998 40.1344 30.915 39.9521 30.8076 39.8057C30.7002 39.6559 30.5732 39.5452 30.4268 39.4736C30.2835 39.3988 30.1273 39.3613 29.958 39.3613C29.792 39.3613 29.6374 39.3988 29.4941 39.4736C29.3509 39.5452 29.2256 39.6559 29.1182 39.8057C29.014 39.9521 28.9326 40.1344 28.874 40.3525C28.8154 40.5674 28.7861 40.8197 28.7861 41.1094ZM38.1855 42.9746V36.5H39.0449V44H38.2588L38.1855 42.9746ZM35.2314 41.6123V41.1191C35.2314 40.6829 35.2738 40.3086 35.3584 39.9961C35.443 39.6803 35.5635 39.4215 35.7197 39.2197C35.876 39.0146 36.0632 38.8633 36.2812 38.7656C36.4993 38.668 36.7402 38.6191 37.0039 38.6191C37.2773 38.6191 37.5117 38.6745 37.707 38.7852C37.9056 38.8958 38.0716 39.057 38.2051 39.2686C38.3385 39.4769 38.4427 39.7308 38.5176 40.0303C38.5957 40.3265 38.6478 40.6618 38.6738 41.0361V41.6953C38.6445 42.0664 38.5908 42.4001 38.5127 42.6963C38.4378 42.9925 38.3337 43.2448 38.2002 43.4531C38.0667 43.6615 37.9007 43.821 37.7021 43.9316C37.5036 44.0423 37.2676 44.0977 36.9941 44.0977C36.7337 44.0977 36.4961 44.0472 36.2812 43.9463C36.0664 43.8421 35.8792 43.6875 35.7197 43.4824C35.5635 43.2741 35.443 43.0153 35.3584 42.7061C35.2738 42.3936 35.2314 42.029 35.2314 41.6123ZM36.0957 41.1191V41.6123C36.0957 41.9053 36.1169 42.1608 36.1592 42.3789C36.2015 42.5937 36.2682 42.7728 36.3594 42.916C36.4505 43.056 36.5661 43.1602 36.7061 43.2285C36.8493 43.2969 37.0202 43.3311 37.2188 43.3311C37.4596 43.3311 37.6566 43.2725 37.8096 43.1553C37.9626 43.0381 38.0846 42.8835 38.1758 42.6914C38.2702 42.4961 38.3451 42.2861 38.4004 42.0615V40.6748C38.3678 40.5088 38.3206 40.3493 38.2588 40.1963C38.1969 40.04 38.1188 39.9017 38.0244 39.7812C37.9333 39.6576 37.821 39.5599 37.6875 39.4883C37.5573 39.4167 37.4043 39.3809 37.2285 39.3809C37.0299 39.3809 36.8574 39.4167 36.7109 39.4883C36.5677 39.5599 36.4505 39.6673 36.3594 39.8105C36.2715 39.9538 36.2048 40.1344 36.1592 40.3525C36.1169 40.5706 36.0957 40.8262 36.0957 41.1191ZM41.3057 38.7168V44H40.4463V38.7168H41.3057ZM40.3975 37.3154C40.3975 37.1689 40.4382 37.0452 40.5195 36.9443C40.6009 36.8434 40.723 36.793 40.8857 36.793C41.0485 36.793 41.1706 36.8434 41.252 36.9443C41.3366 37.0452 41.3789 37.1689 41.3789 37.3154C41.3789 37.4554 41.3366 37.5758 41.252 37.6768C41.1706 37.7744 41.0485 37.8232 40.8857 37.8232C40.723 37.8232 40.6009 37.7744 40.5195 37.6768C40.4382 37.5758 40.3975 37.4554 40.3975 37.3154ZM46.8965 38.7168V39.4102H44.4307V38.7168H46.8965ZM45.2363 37.4326H46.1006V42.6914C46.1006 42.8704 46.1217 43.0055 46.1641 43.0967C46.2096 43.1878 46.2666 43.248 46.335 43.2773C46.4033 43.3066 46.4766 43.3213 46.5547 43.3213C46.6133 43.3213 46.6784 43.3148 46.75 43.3018C46.8216 43.2855 46.8704 43.2725 46.8965 43.2627L46.8916 44C46.833 44.0228 46.7549 44.0439 46.6572 44.0635C46.5596 44.0863 46.4359 44.0977 46.2861 44.0977C46.1006 44.0977 45.9281 44.0537 45.7686 43.9658C45.609 43.8779 45.4805 43.7314 45.3828 43.5264C45.2852 43.318 45.2363 43.0381 45.2363 42.6865V37.4326ZM50.5146 43.0967V40.2305C50.5146 40.0221 50.4821 39.8545 50.417 39.7275C50.3551 39.6006 50.2607 39.5078 50.1338 39.4492C50.0101 39.3906 49.8538 39.3613 49.665 39.3613C49.4827 39.3613 49.3249 39.3988 49.1914 39.4736C49.0612 39.5485 48.9603 39.6478 48.8887 39.7715C48.8203 39.8952 48.7861 40.0319 48.7861 40.1816H47.9219C47.9219 39.9928 47.9626 39.8057 48.0439 39.6201C48.1286 39.4346 48.249 39.2669 48.4053 39.1172C48.5615 38.9642 48.7487 38.8437 48.9668 38.7559C49.1882 38.6647 49.4355 38.6191 49.709 38.6191C50.0345 38.6191 50.3226 38.6729 50.5732 38.7803C50.8239 38.8844 51.0208 39.0553 51.1641 39.293C51.3073 39.5306 51.3789 39.8464 51.3789 40.2402V42.8477C51.3789 43.0234 51.3919 43.2106 51.418 43.4092C51.4473 43.6077 51.488 43.7786 51.54 43.9219V44H50.6465C50.6042 43.8958 50.5716 43.7575 50.5488 43.585C50.526 43.4092 50.5146 43.2464 50.5146 43.0967ZM50.6514 40.7969L50.6611 41.4316H50.0605C49.8555 41.4316 49.6683 41.4544 49.499 41.5C49.333 41.5456 49.1898 41.6123 49.0693 41.7002C48.9489 41.7848 48.8561 41.8906 48.791 42.0176C48.7292 42.1445 48.6982 42.2894 48.6982 42.4521C48.6982 42.6637 48.7275 42.833 48.7861 42.96C48.8447 43.0837 48.9326 43.1732 49.0498 43.2285C49.167 43.2839 49.3151 43.3115 49.4941 43.3115C49.7122 43.3115 49.9043 43.2611 50.0703 43.1602C50.2363 43.0592 50.3649 42.9372 50.4561 42.7939C50.5505 42.6507 50.5944 42.5173 50.5879 42.3936L50.7783 42.7988C50.7653 42.9258 50.723 43.0641 50.6514 43.2139C50.583 43.3604 50.487 43.502 50.3633 43.6387C50.2396 43.7721 50.0931 43.8828 49.9238 43.9707C49.7578 44.0553 49.5706 44.0977 49.3623 44.0977C49.0563 44.0977 48.7878 44.0391 48.5566 43.9219C48.3288 43.8047 48.1514 43.6322 48.0244 43.4043C47.8975 43.1764 47.834 42.8949 47.834 42.5596C47.834 42.3057 47.8779 42.0713 47.9658 41.8564C48.0537 41.6416 48.1839 41.4561 48.3564 41.2998C48.529 41.1403 48.7454 41.0166 49.0059 40.9287C49.2695 40.8408 49.5739 40.7969 49.9189 40.7969H50.6514ZM53.5859 39.5469V44H52.7217V38.7168H53.5566L53.5859 39.5469ZM54.8994 38.6875L54.9043 39.5273C54.8327 39.5111 54.7676 39.5013 54.709 39.498C54.6536 39.4915 54.5885 39.4883 54.5137 39.4883C54.3509 39.4883 54.2077 39.5208 54.084 39.5859C53.9635 39.651 53.8594 39.7422 53.7715 39.8594C53.6836 39.9766 53.6136 40.1165 53.5615 40.2793C53.5094 40.4388 53.4736 40.6146 53.4541 40.8066L53.2295 40.9531C53.2295 40.6341 53.2539 40.3346 53.3027 40.0547C53.3548 39.7747 53.4346 39.5273 53.542 39.3125C53.6494 39.0944 53.7861 38.9251 53.9521 38.8047C54.1214 38.681 54.3232 38.6191 54.5576 38.6191C54.6097 38.6191 54.6732 38.6273 54.748 38.6436C54.8262 38.6566 54.8766 38.6712 54.8994 38.6875ZM58.5322 38.7168H59.3086V44.0439C59.3086 44.5094 59.2272 44.8936 59.0645 45.1963C58.9049 45.499 58.682 45.722 58.3955 45.8652C58.109 46.0117 57.7786 46.085 57.4043 46.085C57.2708 46.085 57.1032 46.0605 56.9014 46.0117C56.6995 45.9629 56.4977 45.888 56.2959 45.7871C56.0941 45.6895 55.9281 45.5658 55.7979 45.416L56.1543 44.8154C56.3398 45.0042 56.5368 45.1393 56.7451 45.2207C56.9535 45.3021 57.152 45.3428 57.3408 45.3428C57.5654 45.3428 57.7607 45.3021 57.9268 45.2207C58.0928 45.1393 58.2214 45.0059 58.3125 44.8203C58.4036 44.638 58.4492 44.3939 58.4492 44.0879V39.8789L58.5322 38.7168ZM55.4951 41.6123V41.1191C55.4951 40.6829 55.5358 40.3086 55.6172 39.9961C55.6986 39.6803 55.8158 39.4215 55.9688 39.2197C56.125 39.0146 56.3122 38.8633 56.5303 38.7656C56.7484 38.668 56.9925 38.6191 57.2627 38.6191C57.5361 38.6191 57.7721 38.6745 57.9707 38.7852C58.1693 38.8958 58.3337 39.057 58.4639 39.2686C58.5973 39.4769 58.7015 39.7308 58.7764 40.0303C58.8545 40.3265 58.9082 40.6618 58.9375 41.0361V41.6953C58.9082 42.0664 58.8545 42.4001 58.7764 42.6963C58.7015 42.9925 58.5957 43.2448 58.459 43.4531C58.3255 43.6615 58.1595 43.821 57.9609 43.9316C57.7624 44.0423 57.5264 44.0977 57.2529 44.0977C56.986 44.0977 56.7451 44.0472 56.5303 43.9463C56.3154 43.8421 56.1299 43.6875 55.9736 43.4824C55.8206 43.2741 55.7018 43.0153 55.6172 42.7061C55.5358 42.3936 55.4951 42.029 55.4951 41.6123ZM56.3594 41.1191V41.6123C56.3594 41.9053 56.3805 42.1608 56.4229 42.3789C56.4652 42.5937 56.5303 42.7728 56.6182 42.916C56.7093 43.056 56.8249 43.1602 56.9648 43.2285C57.1081 43.2969 57.279 43.3311 57.4775 43.3311C57.7184 43.3311 57.9154 43.2725 58.0684 43.1553C58.2214 43.0381 58.3434 42.8835 58.4346 42.6914C58.529 42.4961 58.6038 42.2861 58.6592 42.0615V40.6748C58.6266 40.5088 58.5794 40.3493 58.5176 40.1963C58.459 40.04 58.3825 39.9017 58.2881 39.7812C58.1937 39.6576 58.0798 39.5599 57.9463 39.4883C57.8161 39.4167 57.6631 39.3809 57.4873 39.3809C57.2887 39.3809 57.1178 39.4167 56.9746 39.4883C56.8314 39.5599 56.7142 39.6673 56.623 39.8105C56.5319 39.9538 56.4652 40.1344 56.4229 40.3525C56.3805 40.5706 56.3594 40.8262 56.3594 41.1191ZM63.1904 43.0967V40.2305C63.1904 40.0221 63.1579 39.8545 63.0928 39.7275C63.0309 39.6006 62.9365 39.5078 62.8096 39.4492C62.6859 39.3906 62.5296 39.3613 62.3408 39.3613C62.1585 39.3613 62.0007 39.3988 61.8672 39.4736C61.737 39.5485 61.6361 39.6478 61.5645 39.7715C61.4961 39.8952 61.4619 40.0319 61.4619 40.1816H60.5977C60.5977 39.9928 60.6383 39.8057 60.7197 39.6201C60.8044 39.4346 60.9248 39.2669 61.0811 39.1172C61.2373 38.9642 61.4245 38.8437 61.6426 38.7559C61.8639 38.6647 62.1113 38.6191 62.3848 38.6191C62.7103 38.6191 62.9984 38.6729 63.249 38.7803C63.4997 38.8844 63.6966 39.0553 63.8398 39.293C63.9831 39.5306 64.0547 39.8464 64.0547 40.2402V42.8477C64.0547 43.0234 64.0677 43.2106 64.0938 43.4092C64.123 43.6077 64.1637 43.7786 64.2158 43.9219V44H63.3223C63.2799 43.8958 63.2474 43.7575 63.2246 43.585C63.2018 43.4092 63.1904 43.2464 63.1904 43.0967ZM63.3271 40.7969L63.3369 41.4316H62.7363C62.5312 41.4316 62.3441 41.4544 62.1748 41.5C62.0088 41.5456 61.8656 41.6123 61.7451 41.7002C61.6247 41.7848 61.5319 41.8906 61.4668 42.0176C61.4049 42.1445 61.374 42.2894 61.374 42.4521C61.374 42.6637 61.4033 42.833 61.4619 42.96C61.5205 43.0837 61.6084 43.1732 61.7256 43.2285C61.8428 43.2839 61.9909 43.3115 62.1699 43.3115C62.388 43.3115 62.5801 43.2611 62.7461 43.1602C62.9121 43.0592 63.0407 42.9372 63.1318 42.7939C63.2262 42.6507 63.2702 42.5173 63.2637 42.3936L63.4541 42.7988C63.4411 42.9258 63.3988 43.0641 63.3271 43.2139C63.2588 43.3604 63.1628 43.502 63.0391 43.6387C62.9154 43.7721 62.7689 43.8828 62.5996 43.9707C62.4336 44.0553 62.2464 44.0977 62.0381 44.0977C61.7321 44.0977 61.4635 44.0391 61.2324 43.9219C61.0046 43.8047 60.8271 43.6322 60.7002 43.4043C60.5732 43.1764 60.5098 42.8949 60.5098 42.5596C60.5098 42.3057 60.5537 42.0713 60.6416 41.8564C60.7295 41.6416 60.8597 41.4561 61.0322 41.2998C61.2048 41.1403 61.4212 41.0166 61.6816 40.9287C61.9453 40.8408 62.2497 40.7969 62.5947 40.7969H63.3271Z" fill="url(#paint0_linear_363_3493)"/>
<path d="M101.124 40.8906V48H100.226V40.8906H101.124ZM103.521 44.0889V44.8604H100.953V44.0889H103.521ZM103.927 40.8906V41.6621H100.953V40.8906H103.927ZM107.345 47.0967V44.2305C107.345 44.0221 107.312 43.8545 107.247 43.7275C107.185 43.6006 107.091 43.5078 106.964 43.4492C106.84 43.3906 106.684 43.3613 106.495 43.3613C106.313 43.3613 106.155 43.3988 106.021 43.4736C105.891 43.5485 105.79 43.6478 105.719 43.7715C105.65 43.8952 105.616 44.0319 105.616 44.1816H104.752C104.752 43.9928 104.793 43.8057 104.874 43.6201C104.959 43.4346 105.079 43.2669 105.235 43.1172C105.392 42.9642 105.579 42.8438 105.797 42.7559C106.018 42.6647 106.266 42.6191 106.539 42.6191C106.865 42.6191 107.153 42.6729 107.403 42.7803C107.654 42.8844 107.851 43.0553 107.994 43.293C108.137 43.5306 108.209 43.8464 108.209 44.2402V46.8477C108.209 47.0234 108.222 47.2106 108.248 47.4092C108.277 47.6077 108.318 47.7786 108.37 47.9219V48H107.477C107.434 47.8958 107.402 47.7575 107.379 47.585C107.356 47.4092 107.345 47.2464 107.345 47.0967ZM107.481 44.7969L107.491 45.4316H106.891C106.686 45.4316 106.498 45.4544 106.329 45.5C106.163 45.5456 106.02 45.6123 105.899 45.7002C105.779 45.7848 105.686 45.8906 105.621 46.0176C105.559 46.1445 105.528 46.2894 105.528 46.4521C105.528 46.6637 105.558 46.833 105.616 46.96C105.675 47.0837 105.763 47.1732 105.88 47.2285C105.997 47.2839 106.145 47.3115 106.324 47.3115C106.542 47.3115 106.734 47.2611 106.9 47.1602C107.066 47.0592 107.195 46.9372 107.286 46.7939C107.381 46.6507 107.424 46.5173 107.418 46.3936L107.608 46.7988C107.595 46.9258 107.553 47.0641 107.481 47.2139C107.413 47.3604 107.317 47.502 107.193 47.6387C107.07 47.7721 106.923 47.8828 106.754 47.9707C106.588 48.0553 106.401 48.0977 106.192 48.0977C105.886 48.0977 105.618 48.0391 105.387 47.9219C105.159 47.8047 104.981 47.6322 104.854 47.4043C104.728 47.1764 104.664 46.8949 104.664 46.5596C104.664 46.3057 104.708 46.0713 104.796 45.8564C104.884 45.6416 105.014 45.4561 105.187 45.2998C105.359 45.1403 105.576 45.0166 105.836 44.9287C106.1 44.8408 106.404 44.7969 106.749 44.7969H107.481ZM111.48 42.7168V43.4102H109.015V42.7168H111.48ZM109.82 41.4326H110.685V46.6914C110.685 46.8704 110.706 47.0055 110.748 47.0967C110.794 47.1878 110.851 47.248 110.919 47.2773C110.987 47.3066 111.061 47.3213 111.139 47.3213C111.197 47.3213 111.262 47.3148 111.334 47.3018C111.406 47.2855 111.454 47.2725 111.48 47.2627L111.476 48C111.417 48.0228 111.339 48.0439 111.241 48.0635C111.144 48.0863 111.02 48.0977 110.87 48.0977C110.685 48.0977 110.512 48.0537 110.353 47.9658C110.193 47.8779 110.064 47.7314 109.967 47.5264C109.869 47.318 109.82 47.0381 109.82 46.6865V41.4326ZM114.439 42.7168V43.4102H111.974V42.7168H114.439ZM112.779 41.4326H113.644V46.6914C113.644 46.8704 113.665 47.0055 113.707 47.0967C113.753 47.1878 113.81 47.248 113.878 47.2773C113.946 47.3066 114.02 47.3213 114.098 47.3213C114.156 47.3213 114.221 47.3148 114.293 47.3018C114.365 47.2855 114.413 47.2725 114.439 47.2627L114.435 48C114.376 48.0228 114.298 48.0439 114.2 48.0635C114.103 48.0863 113.979 48.0977 113.829 48.0977C113.644 48.0977 113.471 48.0537 113.312 47.9658C113.152 47.8779 113.023 47.7314 112.926 47.5264C112.828 47.318 112.779 47.0381 112.779 46.6865V41.4326ZM118.141 46.7793V42.7168H119.005V48H118.185L118.141 46.7793ZM118.302 45.666L118.644 45.6562C118.644 46.0078 118.613 46.3333 118.551 46.6328C118.492 46.929 118.395 47.1862 118.258 47.4043C118.124 47.6224 117.947 47.7933 117.726 47.917C117.504 48.0374 117.232 48.0977 116.91 48.0977C116.692 48.0977 116.493 48.0602 116.314 47.9854C116.139 47.9105 115.986 47.7949 115.855 47.6387C115.729 47.4824 115.629 47.279 115.558 47.0283C115.489 46.7777 115.455 46.4766 115.455 46.125V42.7168H116.314V46.1348C116.314 46.3724 116.336 46.5693 116.378 46.7256C116.42 46.8786 116.477 47.0007 116.549 47.0918C116.62 47.1797 116.7 47.2415 116.788 47.2773C116.876 47.3132 116.965 47.3311 117.057 47.3311C117.363 47.3311 117.607 47.2578 117.789 47.1113C117.971 46.9616 118.102 46.7614 118.18 46.5107C118.261 46.2568 118.302 45.9753 118.302 45.666ZM121.168 43.5469V48H120.304V42.7168H121.139L121.168 43.5469ZM122.481 42.6875L122.486 43.5273C122.415 43.5111 122.35 43.5013 122.291 43.498C122.236 43.4915 122.171 43.4883 122.096 43.4883C121.933 43.4883 121.79 43.5208 121.666 43.5859C121.546 43.651 121.441 43.7422 121.354 43.8594C121.266 43.9766 121.196 44.1165 121.144 44.2793C121.091 44.4388 121.056 44.6146 121.036 44.8066L120.812 44.9531C120.812 44.6341 120.836 44.3346 120.885 44.0547C120.937 43.7747 121.017 43.5273 121.124 43.3125C121.231 43.0944 121.368 42.9251 121.534 42.8047C121.703 42.681 121.905 42.6191 122.14 42.6191C122.192 42.6191 122.255 42.6273 122.33 42.6436C122.408 42.6566 122.459 42.6712 122.481 42.6875ZM125.743 47.0967V44.2305C125.743 44.0221 125.711 43.8545 125.646 43.7275C125.584 43.6006 125.489 43.5078 125.362 43.4492C125.239 43.3906 125.082 43.3613 124.894 43.3613C124.711 43.3613 124.553 43.3988 124.42 43.4736C124.29 43.5485 124.189 43.6478 124.117 43.7715C124.049 43.8952 124.015 44.0319 124.015 44.1816H123.15C123.15 43.9928 123.191 43.8057 123.272 43.6201C123.357 43.4346 123.478 43.2669 123.634 43.1172C123.79 42.9642 123.977 42.8437 124.195 42.7559C124.417 42.6647 124.664 42.6191 124.938 42.6191C125.263 42.6191 125.551 42.6729 125.802 42.7803C126.052 42.8844 126.249 43.0553 126.393 43.293C126.536 43.5306 126.607 43.8464 126.607 44.2402V46.8477C126.607 47.0234 126.62 47.2106 126.646 47.4092C126.676 47.6077 126.716 47.7786 126.769 47.9219V48L125.875 48C125.833 47.8958 125.8 47.7575 125.777 47.585C125.755 47.4092 125.743 47.2464 125.743 47.0967ZM125.88 44.7969L125.89 45.4316H125.289C125.084 45.4316 124.897 45.4544 124.728 45.5C124.562 45.5456 124.418 45.6123 124.298 45.7002C124.177 45.7848 124.085 45.8906 124.02 46.0176C123.958 46.1445 123.927 46.2894 123.927 46.4521C123.927 46.6637 123.956 46.833 124.015 46.96C124.073 47.0837 124.161 47.1732 124.278 47.2285C124.396 47.2839 124.544 47.3115 124.723 47.3115C124.941 47.3115 125.133 47.2611 125.299 47.1602C125.465 47.0592 125.593 46.9372 125.685 46.7939C125.779 46.6507 125.823 46.5173 125.816 46.3936L126.007 46.7988C125.994 46.9258 125.951 47.0641 125.88 47.2139C125.812 47.3604 125.715 47.502 125.592 47.6387C125.468 47.7721 125.322 47.8828 125.152 47.9707C124.986 48.0553 124.799 48.0977 124.591 48.0977C124.285 48.0977 124.016 48.0391 123.785 47.9219C123.557 47.8047 123.38 47.6322 123.253 47.4043C123.126 47.1764 123.062 46.8949 123.062 46.5596C123.062 46.3057 123.106 46.0713 123.194 45.8564C123.282 45.6416 123.412 45.4561 123.585 45.2998C123.757 45.1403 123.974 45.0166 124.234 44.9287C124.498 44.8408 124.802 44.7969 125.147 44.7969H125.88ZM131.295 47.2578V48H128.097V47.2578H131.295ZM131.197 43.3564L128.292 48H127.765V47.3359L130.65 42.7168H131.197V43.3564ZM130.821 42.7168V43.4639H127.779V42.7168H130.821ZM133.272 42.7168V48H132.413V42.7168H133.272ZM132.364 41.3154C132.364 41.1689 132.405 41.0452 132.486 40.9443C132.568 40.8434 132.69 40.793 132.853 40.793C133.015 40.793 133.137 40.8434 133.219 40.9443C133.303 41.0452 133.346 41.1689 133.346 41.3154C133.346 41.4554 133.303 41.5758 133.219 41.6768C133.137 41.7744 133.015 41.8232 132.853 41.8232C132.69 41.8232 132.568 41.7744 132.486 41.6768C132.405 41.5758 132.364 41.4554 132.364 41.3154ZM134.459 45.6123V45.1094C134.459 44.6992 134.511 44.3395 134.615 44.0303C134.719 43.7178 134.864 43.4574 135.05 43.249C135.235 43.0407 135.452 42.8844 135.699 42.7803C135.947 42.6729 136.212 42.6191 136.495 42.6191C136.785 42.6191 137.053 42.6729 137.301 42.7803C137.548 42.8844 137.765 43.0407 137.95 43.249C138.139 43.4574 138.285 43.7178 138.39 44.0303C138.494 44.3395 138.546 44.6992 138.546 45.1094V45.6123C138.546 46.0225 138.494 46.3838 138.39 46.6963C138.285 47.0055 138.141 47.2643 137.955 47.4727C137.77 47.681 137.553 47.8372 137.306 47.9414C137.058 48.0456 136.791 48.0977 136.505 48.0977C136.218 48.0977 135.951 48.0456 135.704 47.9414C135.457 47.8372 135.239 47.681 135.05 47.4727C134.864 47.2643 134.719 47.0055 134.615 46.6963C134.511 46.3838 134.459 46.0225 134.459 45.6123ZM135.323 45.1094V45.6123C135.323 45.902 135.353 46.1559 135.411 46.374C135.47 46.5921 135.553 46.7744 135.66 46.9209C135.768 47.0674 135.893 47.1781 136.036 47.2529C136.179 47.3245 136.336 47.3604 136.505 47.3604C136.7 47.3604 136.871 47.3245 137.018 47.2529C137.167 47.1781 137.291 47.0674 137.389 46.9209C137.486 46.7744 137.56 46.5921 137.608 46.374C137.657 46.1559 137.682 45.902 137.682 45.6123V45.1094C137.682 44.8197 137.652 44.5674 137.594 44.3525C137.535 44.1344 137.452 43.9521 137.345 43.8057C137.237 43.6559 137.11 43.5452 136.964 43.4736C136.821 43.3988 136.664 43.3613 136.495 43.3613C136.329 43.3613 136.174 43.3988 136.031 43.4736C135.888 43.5452 135.763 43.6559 135.655 43.8057C135.551 43.9521 135.47 44.1344 135.411 44.3525C135.353 44.5674 135.323 44.8197 135.323 45.1094ZM140.523 43.8447V48H139.659V42.7168H140.475L140.523 43.8447ZM140.313 45.1582L139.962 45.1436C139.959 44.7822 139.999 44.4486 140.084 44.1426C140.172 43.8333 140.296 43.5648 140.455 43.3369C140.618 43.109 140.812 42.9333 141.036 42.8096C141.261 42.6826 141.51 42.6191 141.783 42.6191C141.998 42.6191 142.193 42.6549 142.369 42.7266C142.545 42.7949 142.695 42.9056 142.818 43.0586C142.942 43.2116 143.036 43.4102 143.102 43.6543C143.17 43.8952 143.204 44.1898 143.204 44.5381V48H142.34V44.5283C142.34 44.2516 142.309 44.0303 142.247 43.8643C142.188 43.695 142.097 43.5729 141.974 43.498C141.853 43.4199 141.7 43.3809 141.515 43.3809C141.345 43.3809 141.188 43.4281 141.041 43.5225C140.895 43.6169 140.766 43.7471 140.655 43.9131C140.548 44.0791 140.463 44.2695 140.401 44.4844C140.343 44.696 140.313 44.9206 140.313 45.1582ZM146.393 48.0977C146.077 48.0977 145.792 48.0505 145.538 47.9561C145.284 47.8617 145.068 47.7184 144.889 47.5264C144.71 47.3311 144.573 47.0853 144.479 46.7891C144.384 46.4928 144.337 46.1429 144.337 45.7393V45.1436C144.337 44.6781 144.391 44.2842 144.498 43.9619C144.609 43.6396 144.757 43.3809 144.942 43.1855C145.128 42.987 145.338 42.8437 145.572 42.7559C145.807 42.6647 146.048 42.6191 146.295 42.6191C146.627 42.6191 146.91 42.6729 147.145 42.7803C147.379 42.8877 147.569 43.0472 147.716 43.2588C147.862 43.4704 147.97 43.7308 148.038 44.04C148.11 44.3493 148.146 44.7057 148.146 45.1094V45.6123H144.845V44.875H147.281V44.7529C147.268 44.4795 147.231 44.2386 147.169 44.0303C147.11 43.8219 147.013 43.6592 146.876 43.542C146.739 43.4215 146.546 43.3613 146.295 43.3613C146.135 43.3613 145.987 43.389 145.851 43.4443C145.717 43.4964 145.602 43.5892 145.504 43.7227C145.41 43.8529 145.335 44.0335 145.279 44.2646C145.227 44.4958 145.201 44.7887 145.201 45.1436V45.7393C145.201 46.0225 145.227 46.2666 145.279 46.4717C145.335 46.6735 145.414 46.8411 145.519 46.9746C145.626 47.1048 145.756 47.2025 145.909 47.2676C146.065 47.3294 146.243 47.3604 146.441 47.3604C146.731 47.3604 146.97 47.305 147.159 47.1943C147.348 47.0804 147.512 46.9355 147.652 46.7598L148.106 47.3018C148.012 47.4352 147.888 47.5638 147.735 47.6875C147.586 47.8079 147.4 47.9072 147.179 47.9854C146.961 48.0602 146.699 48.0977 146.393 48.0977Z" fill="url(#paint1_linear_363_3493)"/>
<path d="M198.86 42.9209L200.569 36.8906H201.546L199.339 44H198.65L198.86 42.9209ZM197.327 36.8906L199.021 42.9209L199.246 44H198.558L196.351 36.8906H197.327ZM204.07 44.0977C203.755 44.0977 203.47 44.0505 203.216 43.9561C202.962 43.8617 202.745 43.7184 202.566 43.5264C202.387 43.3311 202.251 43.0853 202.156 42.7891C202.062 42.4928 202.015 42.1429 202.015 41.7393V41.1436C202.015 40.6781 202.068 40.2842 202.176 39.9619C202.286 39.6396 202.435 39.3809 202.62 39.1855C202.806 38.987 203.016 38.8438 203.25 38.7559C203.484 38.6647 203.725 38.6191 203.973 38.6191C204.305 38.6191 204.588 38.6729 204.822 38.7803C205.057 38.8877 205.247 39.0472 205.394 39.2588C205.54 39.4704 205.647 39.7308 205.716 40.04C205.787 40.3493 205.823 40.7057 205.823 41.1094V41.6123H202.522V40.875H204.959V40.7529C204.946 40.4795 204.909 40.2386 204.847 40.0303C204.788 39.8219 204.69 39.6592 204.554 39.542C204.417 39.4215 204.223 39.3613 203.973 39.3613C203.813 39.3613 203.665 39.389 203.528 39.4443C203.395 39.4964 203.279 39.5892 203.182 39.7227C203.087 39.8529 203.012 40.0335 202.957 40.2646C202.905 40.4958 202.879 40.7887 202.879 41.1436V41.7393C202.879 42.0225 202.905 42.2666 202.957 42.4717C203.012 42.6735 203.092 42.8411 203.196 42.9746C203.304 43.1048 203.434 43.2025 203.587 43.2676C203.743 43.3294 203.921 43.3604 204.119 43.3604C204.409 43.3604 204.648 43.305 204.837 43.1943C205.026 43.0804 205.19 42.9355 205.33 42.7598L205.784 43.3018C205.69 43.4352 205.566 43.5638 205.413 43.6875C205.263 43.8079 205.078 43.9072 204.856 43.9854C204.638 44.0602 204.376 44.0977 204.07 44.0977ZM207.732 39.5469V44H206.868V38.7168H207.703L207.732 39.5469ZM209.046 38.6875L209.051 39.5273C208.979 39.5111 208.914 39.5013 208.855 39.498C208.8 39.4915 208.735 39.4883 208.66 39.4883C208.497 39.4883 208.354 39.5208 208.23 39.5859C208.11 39.651 208.006 39.7422 207.918 39.8594C207.83 39.9766 207.76 40.1165 207.708 40.2793C207.656 40.4388 207.62 40.6146 207.601 40.8066L207.376 40.9531C207.376 40.6341 207.4 40.3346 207.449 40.0547C207.501 39.7747 207.581 39.5273 207.688 39.3125C207.796 39.0944 207.933 38.9251 208.099 38.8047C208.268 38.681 208.47 38.6191 208.704 38.6191C208.756 38.6191 208.82 38.6273 208.895 38.6436C208.973 38.6566 209.023 38.6712 209.046 38.6875ZM210.843 38.7168V44H209.983V38.7168H210.843ZM209.935 37.3154C209.935 37.1689 209.975 37.0452 210.057 36.9443C210.138 36.8434 210.26 36.793 210.423 36.793C210.586 36.793 210.708 36.8434 210.789 36.9443C210.874 37.0452 210.916 37.1689 210.916 37.3154C210.916 37.4554 210.874 37.5758 210.789 37.6768C210.708 37.7744 210.586 37.8232 210.423 37.8232C210.26 37.8232 210.138 37.7744 210.057 37.6768C209.975 37.5758 209.935 37.4554 209.935 37.3154ZM213.313 44H212.449V38.2578C212.449 37.8574 212.516 37.5189 212.649 37.2422C212.786 36.9655 212.98 36.7555 213.23 36.6123C213.484 36.4691 213.784 36.3975 214.129 36.3975C214.334 36.3975 214.531 36.4268 214.72 36.4854C214.909 36.5407 215.104 36.6107 215.306 36.6953L215.159 37.457C215.042 37.3984 214.899 37.3431 214.729 37.291C214.56 37.2357 214.383 37.208 214.197 37.208C213.872 37.208 213.642 37.2959 213.509 37.4717C213.379 37.6442 213.313 37.9062 213.313 38.2578V44ZM214.168 38.7168V39.4102H211.761V38.7168L214.168 38.7168ZM215.721 38.7168V44H214.856V38.7168H215.721ZM218.943 43.3604C219.116 43.3604 219.272 43.3262 219.412 43.2578C219.555 43.1862 219.673 43.0755 219.764 42.9258C219.855 42.7728 219.907 42.5742 219.92 42.3301H220.73C220.717 42.6816 220.628 42.9909 220.462 43.2578C220.299 43.5215 220.084 43.7282 219.817 43.8779C219.554 44.0244 219.262 44.0977 218.943 44.0977C218.602 44.0977 218.304 44.0423 218.05 43.9316C217.799 43.821 217.591 43.6615 217.425 43.4531C217.262 43.2415 217.14 42.986 217.059 42.6865C216.977 42.3838 216.937 42.0404 216.937 41.6562V41.0605C216.937 40.6764 216.977 40.3346 217.059 40.0352C217.14 39.7324 217.262 39.4769 217.425 39.2686C217.591 39.057 217.799 38.8958 218.05 38.7852C218.304 38.6745 218.602 38.6191 218.943 38.6191C219.301 38.6191 219.611 38.6956 219.871 38.8486C220.135 38.9984 220.34 39.2165 220.486 39.5029C220.636 39.7861 220.717 40.1296 220.73 40.5332H219.92C219.907 40.2728 219.86 40.0563 219.778 39.8838C219.697 39.708 219.586 39.5778 219.446 39.4932C219.306 39.4053 219.139 39.3613 218.943 39.3613C218.715 39.3613 218.527 39.402 218.377 39.4834C218.23 39.5615 218.115 39.6755 218.03 39.8252C217.946 39.9749 217.885 40.154 217.85 40.3623C217.817 40.5706 217.801 40.8034 217.801 41.0605V41.6562C217.801 41.9134 217.817 42.1478 217.85 42.3594C217.885 42.5677 217.944 42.7467 218.025 42.8965C218.11 43.0462 218.227 43.1618 218.377 43.2432C218.527 43.3213 218.715 43.3604 218.943 43.3604ZM224.319 43.0967V40.2305C224.319 40.0221 224.287 39.8545 224.222 39.7275C224.16 39.6006 224.065 39.5078 223.938 39.4492C223.815 39.3906 223.659 39.3613 223.47 39.3613C223.287 39.3613 223.13 39.3988 222.996 39.4736C222.866 39.5485 222.765 39.6478 222.693 39.7715C222.625 39.8952 222.591 40.0319 222.591 40.1816H221.727C221.727 39.9928 221.767 39.8057 221.849 39.6201C221.933 39.4346 222.054 39.2669 222.21 39.1172C222.366 38.9642 222.553 38.8437 222.771 38.7559C222.993 38.6647 223.24 38.6191 223.514 38.6191C223.839 38.6191 224.127 38.6729 224.378 38.7803C224.629 38.8844 224.826 39.0553 224.969 39.293C225.112 39.5306 225.184 39.8464 225.184 40.2402V42.8477C225.184 43.0234 225.197 43.2106 225.223 43.4092C225.252 43.6077 225.293 43.7786 225.345 43.9219V44H224.451C224.409 43.8958 224.376 43.7575 224.354 43.585C224.331 43.4092 224.319 43.2464 224.319 43.0967ZM224.456 40.7969L224.466 41.4316H223.865C223.66 41.4316 223.473 41.4544 223.304 41.5C223.138 41.5456 222.994 41.6123 222.874 41.7002C222.754 41.7848 222.661 41.8906 222.596 42.0176C222.534 42.1445 222.503 42.2894 222.503 42.4521C222.503 42.6637 222.532 42.833 222.591 42.96C222.649 43.0837 222.737 43.1732 222.854 43.2285C222.972 43.2839 223.12 43.3115 223.299 43.3115C223.517 43.3115 223.709 43.2611 223.875 43.1602C224.041 43.0592 224.17 42.9372 224.261 42.7939C224.355 42.6507 224.399 42.5173 224.393 42.3936L224.583 42.7988C224.57 42.9258 224.528 43.0641 224.456 43.2139C224.388 43.3604 224.292 43.502 224.168 43.6387C224.044 43.7721 223.898 43.8828 223.729 43.9707C223.562 44.0553 223.375 44.0977 223.167 44.0977C222.861 44.0977 222.592 44.0391 222.361 43.9219C222.133 43.8047 221.956 43.6322 221.829 43.4043C221.702 43.1764 221.639 42.8949 221.639 42.5596C221.639 42.3057 221.683 42.0713 221.771 41.8564C221.858 41.6416 221.989 41.4561 222.161 41.2998C222.334 41.1403 222.55 41.0166 222.811 40.9287C223.074 40.8408 223.379 40.7969 223.724 40.7969H224.456ZM230.711 44.0977C230.395 44.0977 230.11 44.0505 229.856 43.9561C229.603 43.8617 229.386 43.7184 229.207 43.5264C229.028 43.3311 228.891 43.0853 228.797 42.7891C228.702 42.4928 228.655 42.1429 228.655 41.7393V41.1436C228.655 40.6781 228.709 40.2842 228.816 39.9619C228.927 39.6396 229.075 39.3809 229.261 39.1855C229.446 38.987 229.656 38.8437 229.891 38.7559C230.125 38.6647 230.366 38.6191 230.613 38.6191C230.945 38.6191 231.229 38.6729 231.463 38.7803C231.697 38.8877 231.888 39.0472 232.034 39.2588C232.181 39.4704 232.288 39.7308 232.356 40.04C232.428 40.3493 232.464 40.7057 232.464 41.1094V41.6123H229.163V40.875H231.6V40.7529C231.587 40.4795 231.549 40.2386 231.487 40.0303C231.429 39.8219 231.331 39.6592 231.194 39.542C231.058 39.4215 230.864 39.3613 230.613 39.3613C230.454 39.3613 230.306 39.389 230.169 39.4443C230.035 39.4964 229.92 39.5892 229.822 39.7227C229.728 39.8529 229.653 40.0335 229.598 40.2646C229.546 40.4958 229.52 40.7887 229.52 41.1436V41.7393C229.52 42.0225 229.546 42.2666 229.598 42.4717C229.653 42.6735 229.733 42.8411 229.837 42.9746C229.944 43.1048 230.075 43.2025 230.228 43.2676C230.384 43.3294 230.561 43.3604 230.76 43.3604C231.049 43.3604 231.289 43.305 231.478 43.1943C231.666 43.0804 231.831 42.9355 231.971 42.7598L232.425 43.3018C232.33 43.4352 232.207 43.5638 232.054 43.6875C231.904 43.8079 231.718 43.9072 231.497 43.9854C231.279 44.0602 231.017 44.0977 230.711 44.0977ZM193.816 50.7324V57.0312H192.952V49.7168H193.738L193.816 50.7324ZM196.771 52.1191V52.6123C196.771 53.029 196.731 53.3936 196.653 53.7061C196.578 54.0153 196.466 54.2741 196.316 54.4824C196.17 54.6875 195.989 54.8421 195.774 54.9463C195.56 55.0472 195.314 55.0977 195.037 55.0977C194.76 55.0977 194.52 55.0456 194.314 54.9414C194.113 54.834 193.942 54.6794 193.802 54.4775C193.665 54.2757 193.556 54.0332 193.475 53.75C193.396 53.4635 193.343 53.1429 193.313 52.7881V52.0361C193.343 51.6618 193.396 51.3265 193.475 51.0303C193.553 50.7308 193.66 50.4769 193.797 50.2686C193.937 50.057 194.108 49.8958 194.31 49.7852C194.515 49.6745 194.754 49.6191 195.027 49.6191C195.311 49.6191 195.56 49.668 195.774 49.7656C195.993 49.8633 196.175 50.0146 196.321 50.2197C196.471 50.4215 196.583 50.6803 196.658 50.9961C196.733 51.3086 196.771 51.6829 196.771 52.1191ZM195.906 52.6123V52.1191C195.906 51.8262 195.883 51.5706 195.838 51.3525C195.796 51.1344 195.727 50.9538 195.633 50.8105C195.538 50.6673 195.42 50.5599 195.276 50.4883C195.133 50.4167 194.961 50.3809 194.759 50.3809C194.586 50.3809 194.433 50.4167 194.3 50.4883C194.17 50.5599 194.057 50.6576 193.963 50.7812C193.868 50.9017 193.79 51.04 193.729 51.1963C193.667 51.3493 193.621 51.5088 193.592 51.6748V53.1543C193.647 53.3626 193.72 53.5596 193.812 53.7451C193.903 53.9274 194.025 54.0755 194.178 54.1895C194.334 54.3034 194.531 54.3604 194.769 54.3604C194.967 54.3604 195.138 54.3245 195.281 54.2529C195.424 54.1813 195.542 54.0739 195.633 53.9307C195.727 53.7842 195.796 53.6019 195.838 53.3838C195.883 53.1624 195.906 52.9053 195.906 52.6123ZM200.472 54.0967V51.2305C200.472 51.0221 200.439 50.8545 200.374 50.7275C200.312 50.6006 200.218 50.5078 200.091 50.4492C199.967 50.3906 199.811 50.3613 199.622 50.3613C199.44 50.3613 199.282 50.3988 199.148 50.4736C199.018 50.5485 198.917 50.6478 198.846 50.7715C198.777 50.8952 198.743 51.0319 198.743 51.1816H197.879C197.879 50.9928 197.92 50.8057 198.001 50.6201C198.086 50.4346 198.206 50.2669 198.362 50.1172C198.519 49.9642 198.706 49.8438 198.924 49.7559C199.145 49.6647 199.393 49.6191 199.666 49.6191C199.992 49.6191 200.28 49.6729 200.53 49.7803C200.781 49.8844 200.978 50.0553 201.121 50.293C201.264 50.5306 201.336 50.8464 201.336 51.2402V53.8477C201.336 54.0234 201.349 54.2106 201.375 54.4092C201.404 54.6077 201.445 54.7786 201.497 54.9219V55H200.604C200.561 54.8958 200.529 54.7575 200.506 54.585C200.483 54.4092 200.472 54.2464 200.472 54.0967ZM200.608 51.7969L200.618 52.4316H200.018C199.812 52.4316 199.625 52.4544 199.456 52.5C199.29 52.5456 199.147 52.6123 199.026 52.7002C198.906 52.7848 198.813 52.8906 198.748 53.0176C198.686 53.1445 198.655 53.2894 198.655 53.4521C198.655 53.6637 198.685 53.833 198.743 53.96C198.802 54.0837 198.89 54.1732 199.007 54.2285C199.124 54.2839 199.272 54.3115 199.451 54.3115C199.669 54.3115 199.861 54.2611 200.027 54.1602C200.193 54.0592 200.322 53.9372 200.413 53.7939C200.507 53.6507 200.551 53.5173 200.545 53.3936L200.735 53.7988C200.722 53.9258 200.68 54.0641 200.608 54.2139C200.54 54.3604 200.444 54.502 200.32 54.6387C200.197 54.7721 200.05 54.8828 199.881 54.9707C199.715 55.0553 199.528 55.0977 199.319 55.0977C199.013 55.0977 198.745 55.0391 198.514 54.9219C198.286 54.8047 198.108 54.6322 197.981 54.4043C197.854 54.1764 197.791 53.8949 197.791 53.5596C197.791 53.3057 197.835 53.0713 197.923 52.8564C198.011 52.6416 198.141 52.4561 198.313 52.2998C198.486 52.1403 198.702 52.0166 198.963 51.9287C199.227 51.8408 199.531 51.7969 199.876 51.7969H200.608ZM205.54 49.7168H206.316V55.0439C206.316 55.5094 206.235 55.8936 206.072 56.1963C205.913 56.499 205.69 56.722 205.403 56.8652C205.117 57.0117 204.786 57.085 204.412 57.085C204.279 57.085 204.111 57.0605 203.909 57.0117C203.707 56.9629 203.506 56.888 203.304 56.7871C203.102 56.6895 202.936 56.5658 202.806 56.416L203.162 55.8154C203.348 56.0042 203.545 56.1393 203.753 56.2207C203.961 56.3021 204.16 56.3428 204.349 56.3428C204.573 56.3428 204.769 56.3021 204.935 56.2207C205.101 56.1393 205.229 56.0059 205.32 55.8203C205.411 55.638 205.457 55.3939 205.457 55.0879V50.8789L205.54 49.7168ZM202.503 52.6123V52.1191C202.503 51.6829 202.544 51.3086 202.625 50.9961C202.706 50.6803 202.824 50.4215 202.977 50.2197C203.133 50.0146 203.32 49.8633 203.538 49.7656C203.756 49.668 204 49.6191 204.271 49.6191C204.544 49.6191 204.78 49.6745 204.979 49.7852C205.177 49.8958 205.341 50.057 205.472 50.2686C205.605 50.4769 205.709 50.7308 205.784 51.0303C205.862 51.3265 205.916 51.6618 205.945 52.0361V52.6953C205.916 53.0664 205.862 53.4001 205.784 53.6963C205.709 53.9925 205.604 54.2448 205.467 54.4531C205.333 54.6615 205.167 54.821 204.969 54.9316C204.77 55.0423 204.534 55.0977 204.261 55.0977C203.994 55.0977 203.753 55.0472 203.538 54.9463C203.323 54.8421 203.138 54.6875 202.981 54.4824C202.828 54.2741 202.71 54.0153 202.625 53.7061C202.544 53.3936 202.503 53.029 202.503 52.6123ZM203.367 52.1191V52.6123C203.367 52.9053 203.388 53.1608 203.431 53.3789C203.473 53.5938 203.538 53.7728 203.626 53.916C203.717 54.056 203.833 54.1602 203.973 54.2285C204.116 54.2969 204.287 54.3311 204.485 54.3311C204.726 54.3311 204.923 54.2725 205.076 54.1553C205.229 54.0381 205.351 53.8835 205.442 53.6914C205.537 53.4961 205.612 53.2861 205.667 53.0615V51.6748C205.634 51.5088 205.587 51.3493 205.525 51.1963C205.467 51.04 205.39 50.9017 205.296 50.7812C205.201 50.6576 205.088 50.5599 204.954 50.4883C204.824 50.4167 204.671 50.3809 204.495 50.3809C204.297 50.3809 204.126 50.4167 203.982 50.4883C203.839 50.5599 203.722 50.6673 203.631 50.8105C203.54 50.9538 203.473 51.1344 203.431 51.3525C203.388 51.5706 203.367 51.8262 203.367 52.1191ZM210.198 54.0967V51.2305C210.198 51.0221 210.166 50.8545 210.101 50.7275C210.039 50.6006 209.944 50.5078 209.817 50.4492C209.694 50.3906 209.537 50.3613 209.349 50.3613C209.166 50.3613 209.008 50.3988 208.875 50.4736C208.745 50.5485 208.644 50.6478 208.572 50.7715C208.504 50.8952 208.47 51.0319 208.47 51.1816H207.605C207.605 50.9928 207.646 50.8057 207.728 50.6201C207.812 50.4346 207.933 50.2669 208.089 50.1172C208.245 49.9642 208.432 49.8438 208.65 49.7559C208.872 49.6647 209.119 49.6191 209.393 49.6191C209.718 49.6191 210.006 49.6729 210.257 49.7803C210.507 49.8844 210.704 50.0553 210.848 50.293C210.991 50.5306 211.062 50.8464 211.062 51.2402V53.8477C211.062 54.0234 211.076 54.2106 211.102 54.4092C211.131 54.6077 211.172 54.7786 211.224 54.9219V55H210.33C210.288 54.8958 210.255 54.7575 210.232 54.585C210.21 54.4092 210.198 54.2464 210.198 54.0967ZM210.335 51.7969L210.345 52.4316H209.744C209.539 52.4316 209.352 52.4544 209.183 52.5C209.017 52.5456 208.873 52.6123 208.753 52.7002C208.632 52.7848 208.54 52.8906 208.475 53.0176C208.413 53.1445 208.382 53.2894 208.382 53.4521C208.382 53.6637 208.411 53.833 208.47 53.96C208.528 54.0837 208.616 54.1732 208.733 54.2285C208.851 54.2839 208.999 54.3115 209.178 54.3115C209.396 54.3115 209.588 54.2611 209.754 54.1602C209.92 54.0592 210.049 53.9372 210.14 53.7939C210.234 53.6507 210.278 53.5173 210.271 53.3936L210.462 53.7988C210.449 53.9258 210.407 54.0641 210.335 54.2139C210.267 54.3604 210.171 54.502 210.047 54.6387C209.923 54.7721 209.777 54.8828 209.607 54.9707C209.441 55.0553 209.254 55.0977 209.046 55.0977C208.74 55.0977 208.471 55.0391 208.24 54.9219C208.012 54.8047 207.835 54.6322 207.708 54.4043C207.581 54.1764 207.518 53.8949 207.518 53.5596C207.518 53.3057 207.562 53.0713 207.649 52.8564C207.737 52.6416 207.868 52.4561 208.04 52.2998C208.213 52.1403 208.429 52.0166 208.689 51.9287C208.953 51.8408 209.257 51.7969 209.603 51.7969H210.335ZM213.27 50.7666V55H212.41V49.7168H213.221L213.27 50.7666ZM213.094 52.1582L212.693 52.1436C212.69 51.7822 212.726 51.4486 212.801 51.1426C212.876 50.8333 212.988 50.5648 213.138 50.3369C213.291 50.109 213.481 49.9333 213.709 49.8096C213.94 49.6826 214.209 49.6191 214.515 49.6191C214.716 49.6191 214.904 49.6549 215.076 49.7266C215.252 49.7949 215.405 49.904 215.535 50.0537C215.665 50.2035 215.766 50.3955 215.838 50.6299C215.913 50.8643 215.95 51.1475 215.95 51.4795V55H215.086V51.5234C215.086 51.2467 215.049 51.0254 214.974 50.8594C214.902 50.6934 214.799 50.5729 214.666 50.498C214.533 50.4199 214.373 50.3809 214.188 50.3809C213.976 50.3809 213.799 50.4281 213.655 50.5225C213.515 50.6169 213.403 50.7471 213.318 50.9131C213.237 51.0791 213.178 51.2695 213.143 51.4844C213.11 51.696 213.094 51.9206 213.094 52.1582ZM215.94 51.6602L215.364 51.8457C215.361 51.556 215.397 51.2777 215.472 51.0107C215.547 50.7438 215.657 50.5062 215.804 50.2979C215.953 50.0895 216.139 49.9251 216.36 49.8047C216.582 49.681 216.839 49.6191 217.132 49.6191C217.373 49.6191 217.586 49.6566 217.771 49.7314C217.957 49.8063 218.113 49.9219 218.24 50.0781C218.37 50.2311 218.468 50.4281 218.533 50.6689C218.598 50.9098 218.631 51.1963 218.631 51.5283V55H217.767V51.5186C217.767 51.2223 217.729 50.9928 217.654 50.8301C217.583 50.6641 217.48 50.5485 217.347 50.4834C217.213 50.415 217.054 50.3809 216.868 50.3809C216.718 50.3809 216.585 50.415 216.468 50.4834C216.354 50.5518 216.258 50.6462 216.18 50.7666C216.102 50.8838 216.041 51.0189 215.999 51.1719C215.96 51.3249 215.94 51.4876 215.94 51.6602ZM221.824 55.0977C221.508 55.0977 221.224 55.0505 220.97 54.9561C220.716 54.8617 220.499 54.7184 220.32 54.5264C220.141 54.3311 220.005 54.0853 219.91 53.7891C219.816 53.4928 219.769 53.1429 219.769 52.7393V52.1436C219.769 51.6781 219.822 51.2842 219.93 50.9619C220.04 50.6396 220.188 50.3809 220.374 50.1855C220.56 49.987 220.77 49.8437 221.004 49.7559C221.238 49.6647 221.479 49.6191 221.727 49.6191C222.059 49.6191 222.342 49.6729 222.576 49.7803C222.811 49.8877 223.001 50.0472 223.147 50.2588C223.294 50.4704 223.401 50.7308 223.47 51.04C223.541 51.3493 223.577 51.7057 223.577 52.1094V52.6123L220.276 52.6123V51.875H222.713V51.7529C222.7 51.4795 222.662 51.2386 222.601 51.0303C222.542 50.8219 222.444 50.6592 222.308 50.542C222.171 50.4215 221.977 50.3613 221.727 50.3613C221.567 50.3613 221.419 50.389 221.282 50.4443C221.149 50.4964 221.033 50.5892 220.936 50.7227C220.841 50.8529 220.766 51.0335 220.711 51.2646C220.659 51.4958 220.633 51.7887 220.633 52.1436V52.7393C220.633 53.0225 220.659 53.2666 220.711 53.4717C220.766 53.6735 220.846 53.8411 220.95 53.9746C221.058 54.1048 221.188 54.2025 221.341 54.2676C221.497 54.3294 221.674 54.3604 221.873 54.3604C222.163 54.3604 222.402 54.305 222.591 54.1943C222.78 54.0804 222.944 53.9355 223.084 53.7598L223.538 54.3018C223.444 54.4352 223.32 54.5638 223.167 54.6875C223.017 54.8079 222.832 54.9072 222.61 54.9854C222.392 55.0602 222.13 55.0977 221.824 55.0977ZM225.486 50.8447V55H224.622V49.7168H225.438L225.486 50.8447ZM225.276 52.1582L224.925 52.1436C224.922 51.7822 224.962 51.4486 225.047 51.1426C225.135 50.8333 225.258 50.5648 225.418 50.3369C225.581 50.109 225.774 49.9333 225.999 49.8096C226.224 49.6826 226.473 49.6191 226.746 49.6191C226.961 49.6191 227.156 49.6549 227.332 49.7266C227.508 49.7949 227.658 49.9056 227.781 50.0586C227.905 50.2116 227.999 50.4102 228.064 50.6543C228.133 50.8952 228.167 51.1898 228.167 51.5381V55H227.303V51.5283C227.303 51.2516 227.272 51.0303 227.21 50.8643C227.151 50.695 227.06 50.5729 226.937 50.498C226.816 50.4199 226.663 50.3809 226.478 50.3809C226.308 50.3809 226.15 50.4281 226.004 50.5225C225.857 50.6169 225.729 50.7471 225.618 50.9131C225.511 51.0791 225.426 51.2695 225.364 51.4844C225.306 51.696 225.276 51.9206 225.276 52.1582ZM231.395 49.7168V50.4102H228.929V49.7168H231.395ZM229.734 48.4326H230.599V53.6914C230.599 53.8704 230.62 54.0055 230.662 54.0967C230.708 54.1878 230.765 54.248 230.833 54.2773C230.901 54.3066 230.975 54.3213 231.053 54.3213C231.111 54.3213 231.176 54.3148 231.248 54.3018C231.32 54.2855 231.368 54.2725 231.395 54.2627L231.39 55C231.331 55.0228 231.253 55.0439 231.155 55.0635C231.058 55.0863 230.934 55.0977 230.784 55.0977C230.599 55.0977 230.426 55.0537 230.267 54.9658C230.107 54.8779 229.979 54.7314 229.881 54.5264C229.783 54.318 229.734 54.0381 229.734 53.6865V48.4326ZM232.146 52.6123V52.1094C232.146 51.6992 232.199 51.3395 232.303 51.0303C232.407 50.7178 232.552 50.4574 232.737 50.249C232.923 50.0407 233.139 49.8844 233.387 49.7803C233.634 49.6729 233.899 49.6191 234.183 49.6191C234.472 49.6191 234.741 49.6729 234.988 49.7803C235.236 49.8844 235.452 50.0407 235.638 50.249C235.826 50.4574 235.973 50.7178 236.077 51.0303C236.181 51.3395 236.233 51.6992 236.233 52.1094V52.6123C236.233 53.0225 236.181 53.3838 236.077 53.6963C235.973 54.0055 235.828 54.2643 235.643 54.4727C235.457 54.681 235.241 54.8372 234.993 54.9414C234.746 55.0456 234.479 55.0977 234.192 55.0977C233.906 55.0977 233.639 55.0456 233.392 54.9414C233.144 54.8372 232.926 54.681 232.737 54.4727C232.552 54.2643 232.407 54.0055 232.303 53.6963C232.199 53.3838 232.146 53.0225 232.146 52.6123ZM233.011 52.1094V52.6123C233.011 52.902 233.04 53.1559 233.099 53.374C233.157 53.5921 233.24 53.7744 233.348 53.9209C233.455 54.0674 233.58 54.1781 233.724 54.2529C233.867 54.3245 234.023 54.3604 234.192 54.3604C234.388 54.3604 234.559 54.3245 234.705 54.2529C234.855 54.1781 234.979 54.0674 235.076 53.9209C235.174 53.7744 235.247 53.5921 235.296 53.374C235.345 53.1559 235.369 52.902 235.369 52.6123V52.1094C235.369 51.8197 235.34 51.5674 235.281 51.3525C235.223 51.1344 235.14 50.9521 235.032 50.8057C234.925 50.6559 234.798 50.5452 234.651 50.4736C234.508 50.3988 234.352 50.3613 234.183 50.3613C234.017 50.3613 233.862 50.3988 233.719 50.4736C233.576 50.5452 233.45 50.6559 233.343 50.8057C233.239 50.9521 233.157 51.1344 233.099 51.3525C233.04 51.5674 233.011 51.8197 233.011 52.1094Z" fill="url(#paint2_linear_363_3493)"/>
<path fill-rule="evenodd" clip-rule="evenodd" d="M204 16L137 16V14L204 14V16Z" fill="url(#paint3_linear_363_3493)"/>
<path fill-rule="evenodd" clip-rule="evenodd" d="M111 16L44 16V14L111 14V16Z" fill="url(#paint4_linear_363_3493)"/>
<path fill-rule="evenodd" clip-rule="evenodd" d="M18.7612 6.17317C18 8.01088 18 10.3406 18 15C18 19.6594 18 21.9891 18.7612 23.8268C19.7761 26.2771 21.7229 28.2239 24.1732 29.2388C26.0109 30 28.3406 30 33 30C37.6594 30 39.9891 30 41.8268 29.2388C44.2771 28.2239 46.2239 26.2771 47.2388 23.8268C48 21.9891 48 19.6594 48 15C48 10.3406 48 8.01088 47.2388 6.17317C46.2239 3.72288 44.2771 1.77614 41.8268 0.761205C39.9891 0 37.6594 0 33 0C28.3406 0 26.0109 0 24.1732 0.761205C21.7229 1.77614 19.7761 3.72288 18.7612 6.17317ZM39.7071 11.7071C40.0976 11.3166 40.0976 10.6834 39.7071 10.2929C39.3166 9.90237 38.6834 9.90237 38.2929 10.2929L31 17.5858L27.7071 14.2929C27.3166 13.9024 26.6834 13.9024 26.2929 14.2929C25.9024 14.6834 25.9024 15.3166 26.2929 15.7071L30.2929 19.7071C30.4804 19.8946 30.7348 20 31 20C31.2652 20 31.5196 19.8946 31.7071 19.7071L39.7071 11.7071Z" fill="url(#paint5_linear_363_3493)"/>
<path fill-rule="evenodd" clip-rule="evenodd" d="M109.761 6.17317C109 8.01088 109 10.3406 109 15C109 19.6594 109 21.9891 109.761 23.8268C110.776 26.2771 112.723 28.2239 115.173 29.2388C117.011 30 119.341 30 124 30C128.659 30 130.989 30 132.827 29.2388C135.277 28.2239 137.224 26.2771 138.239 23.8268C139 21.9891 139 19.6594 139 15C139 10.3406 139 8.01088 138.239 6.17317C137.224 3.72288 135.277 1.77614 132.827 0.761205C130.989 0 128.659 0 124 0C119.341 0 117.011 0 115.173 0.761205C112.723 1.77614 110.776 3.72288 109.761 6.17317ZM130.707 11.7071C131.098 11.3166 131.098 10.6834 130.707 10.2929C130.317 9.90237 129.683 9.90237 129.293 10.2929L122 17.5858L118.707 14.2929C118.317 13.9024 117.683 13.9024 117.293 14.2929C116.902 14.6834 116.902 15.3166 117.293 15.7071L121.293 19.7071C121.48 19.8946 121.735 20 122 20C122.265 20 122.52 19.8946 122.707 19.7071L130.707 11.7071Z" fill="url(#paint6_linear_363_3493)"/>
<path fill-rule="evenodd" clip-rule="evenodd" d="M200.761 6.17317C200 8.01088 200 10.3406 200 15C200 19.6594 200 21.9891 200.761 23.8268C201.776 26.2771 203.723 28.2239 206.173 29.2388C208.011 30 210.341 30 215 30C219.659 30 221.989 30 223.827 29.2388C226.277 28.2239 228.224 26.2771 229.239 23.8268C230 21.9891 230 19.6594 230 15C230 10.3406 230 8.01088 229.239 6.17317C228.224 3.72288 226.277 1.77614 223.827 0.761205C221.989 0 219.659 0 215 0C210.341 0 208.011 0 206.173 0.761205C203.723 1.77614 201.776 3.72288 200.761 6.17317ZM221.707 11.7071C222.098 11.3166 222.098 10.6834 221.707 10.2929C221.317 9.90237 220.683 9.90237 220.293 10.2929L213 17.5858L209.707 14.2929C209.317 13.9024 208.683 13.9024 208.293 14.2929C207.902 14.6834 207.902 15.3166 208.293 15.7071L212.293 19.7071C212.48 19.8946 212.735 20 213 20C213.265 20 213.52 19.8946 213.707 19.7071L221.707 11.7071Z" fill="url(#paint7_linear_363_3493)"/>
<defs>
<linearGradient id="paint0_linear_363_3493" x1="33" y1="46" x2="33" y2="35" gradientUnits="userSpaceOnUse">
<stop stop-color="#5CCC94"/>
<stop offset="1" stop-color="#8CCAAE"/>
</linearGradient>
<linearGradient id="paint1_linear_363_3493" x1="124" y1="55" x2="124" y2="35" gradientUnits="userSpaceOnUse">
<stop stop-color="#5CCC94"/>
<stop offset="1" stop-color="#8CCAAE"/>
</linearGradient>
<linearGradient id="paint2_linear_363_3493" x1="214.5" y1="68" x2="214.5" y2="35" gradientUnits="userSpaceOnUse">
<stop stop-color="#5CCC94"/>
<stop offset="1" stop-color="#8CCAAE"/>
</linearGradient>
<linearGradient id="paint3_linear_363_3493" x1="170.5" y1="16" x2="170.5" y2="14" gradientUnits="userSpaceOnUse">
<stop stop-color="#5CCC94"/>
<stop offset="1" stop-color="#8CCAAE"/>
</linearGradient>
<linearGradient id="paint4_linear_363_3493" x1="77.5" y1="16" x2="77.5" y2="14" gradientUnits="userSpaceOnUse">
<stop stop-color="#5CCC94"/>
<stop offset="1" stop-color="#8CCAAE"/>
</linearGradient>
<linearGradient id="paint5_linear_363_3493" x1="33" y1="30" x2="33" y2="1.58545e-07" gradientUnits="userSpaceOnUse">
<stop stop-color="#5CCC94"/>
<stop offset="1" stop-color="#8CCAAE"/>
</linearGradient>
<linearGradient id="paint6_linear_363_3493" x1="124" y1="30" x2="124" y2="1.58545e-07" gradientUnits="userSpaceOnUse">
<stop stop-color="#5CCC94"/>
<stop offset="1" stop-color="#8CCAAE"/>
</linearGradient>
<linearGradient id="paint7_linear_363_3493" x1="215" y1="30" x2="215" y2="1.58545e-07" gradientUnits="userSpaceOnUse">
<stop stop-color="#5CCC94"/>
<stop offset="1" stop-color="#8CCAAE"/>
</linearGradient>
</defs>
</svg>
