<svg width="241" height="68" viewBox="0 0 241 68" fill="none" xmlns="http://www.w3.org/2000/svg">
<path d="M11.1465 36.8906H13.1338C13.596 36.8906 13.9834 36.972 14.2959 37.1348C14.6117 37.2975 14.8493 37.5384 15.0088 37.8574C15.1715 38.1732 15.2529 38.5622 15.2529 39.0244C15.2529 39.3499 15.1992 39.6478 15.0918 39.918C14.9844 40.1849 14.8281 40.4128 14.623 40.6016C14.418 40.7871 14.1689 40.9255 13.876 41.0166L13.6318 41.1191H11.8594L11.8496 40.3525H13.124C13.3975 40.3525 13.6253 40.2939 13.8076 40.1768C13.9899 40.0563 14.1266 39.8952 14.2178 39.6934C14.3089 39.4915 14.3545 39.2686 14.3545 39.0244C14.3545 38.751 14.3138 38.5117 14.2324 38.3066C14.151 38.1016 14.0208 37.9437 13.8418 37.833C13.666 37.7191 13.43 37.6621 13.1338 37.6621H12.0449L12.0449 44H11.1465L11.1465 36.8906ZM14.5596 44L13.1436 40.7773L14.0762 40.7725L15.5215 43.9414V44H14.5596ZM18.2266 44.0977C17.9108 44.0977 17.626 44.0505 17.3721 43.9561C17.1182 43.8617 16.9017 43.7184 16.7227 43.5264C16.5436 43.3311 16.4069 43.0853 16.3125 42.7891C16.2181 42.4928 16.1709 42.1429 16.1709 41.7393V41.1436C16.1709 40.6781 16.2246 40.2842 16.332 39.9619C16.4427 39.6396 16.5908 39.3809 16.7764 39.1855C16.9619 38.987 17.1719 38.8438 17.4062 38.7559C17.6406 38.6647 17.8815 38.6191 18.1289 38.6191C18.4609 38.6191 18.7441 38.6729 18.9785 38.7803C19.2129 38.8877 19.4033 39.0472 19.5498 39.2588C19.6963 39.4704 19.8037 39.7308 19.8721 40.04C19.9437 40.3493 19.9795 40.7057 19.9795 41.1094V41.6123H16.6787V40.875H19.1152V40.7529C19.1022 40.4795 19.0648 40.2386 19.0029 40.0303C18.9443 39.8219 18.8467 39.6592 18.71 39.542C18.5732 39.4215 18.3796 39.3613 18.1289 39.3613C17.9694 39.3613 17.8213 39.389 17.6846 39.4443C17.5511 39.4964 17.4355 39.5892 17.3379 39.7227C17.2435 39.8529 17.1686 40.0335 17.1133 40.2646C17.0612 40.4958 17.0352 40.7887 17.0352 41.1436V41.7393C17.0352 42.0225 17.0612 42.2666 17.1133 42.4717C17.1686 42.6735 17.2484 42.8411 17.3525 42.9746C17.46 43.1048 17.5902 43.2025 17.7432 43.2676C17.8994 43.3294 18.0768 43.3604 18.2754 43.3604C18.5651 43.3604 18.8044 43.305 18.9932 43.1943C19.182 43.0804 19.3464 42.9355 19.4863 42.7598L19.9404 43.3018C19.846 43.4352 19.7223 43.5638 19.5693 43.6875C19.4196 43.8079 19.234 43.9072 19.0127 43.9854C18.7946 44.0602 18.5326 44.0977 18.2266 44.0977ZM23.8857 38.7168H24.6621V44.0439C24.6621 44.5094 24.5807 44.8936 24.418 45.1963C24.2585 45.499 24.0355 45.722 23.749 45.8652C23.4626 46.0117 23.1322 46.085 22.7578 46.085C22.6243 46.085 22.4567 46.0605 22.2549 46.0117C22.0531 45.9629 21.8512 45.888 21.6494 45.7871C21.4476 45.6895 21.2816 45.5658 21.1514 45.416L21.5078 44.8154C21.6934 45.0042 21.8903 45.1393 22.0986 45.2207C22.307 45.3021 22.5055 45.3428 22.6943 45.3428C22.9189 45.3428 23.1143 45.3021 23.2803 45.2207C23.4463 45.1393 23.5749 45.0059 23.666 44.8203C23.7572 44.638 23.8027 44.3939 23.8027 44.0879V39.8789L23.8857 38.7168ZM20.8486 41.6123V41.1191C20.8486 40.6829 20.8893 40.3086 20.9707 39.9961C21.0521 39.6803 21.1693 39.4215 21.3223 39.2197C21.4785 39.0146 21.6657 38.8633 21.8838 38.7656C22.1019 38.668 22.346 38.6191 22.6162 38.6191C22.8896 38.6191 23.1257 38.6745 23.3242 38.7852C23.5228 38.8958 23.6872 39.057 23.8174 39.2686C23.9508 39.4769 24.055 39.7308 24.1299 40.0303C24.208 40.3265 24.2617 40.6618 24.291 41.0361V41.6953C24.2617 42.0664 24.208 42.4001 24.1299 42.6963C24.055 42.9925 23.9492 43.2448 23.8125 43.4531C23.679 43.6615 23.513 43.821 23.3145 43.9316C23.1159 44.0423 22.8799 44.0977 22.6064 44.0977C22.3395 44.0977 22.0986 44.0472 21.8838 43.9463C21.6689 43.8421 21.4834 43.6875 21.3271 43.4824C21.1742 43.2741 21.0553 43.0153 20.9707 42.7061C20.8893 42.3936 20.8486 42.029 20.8486 41.6123ZM21.7129 41.1191V41.6123C21.7129 41.9053 21.734 42.1608 21.7764 42.3789C21.8187 42.5938 21.8838 42.7728 21.9717 42.916C22.0628 43.056 22.1784 43.1602 22.3184 43.2285C22.4616 43.2969 22.6325 43.3311 22.8311 43.3311C23.0719 43.3311 23.2689 43.2725 23.4219 43.1553C23.5749 43.0381 23.6969 42.8835 23.7881 42.6914C23.8825 42.4961 23.9574 42.2861 24.0127 42.0615V40.6748C23.9801 40.5088 23.9329 40.3493 23.8711 40.1963C23.8125 40.04 23.736 39.9017 23.6416 39.7812C23.5472 39.6576 23.4333 39.5599 23.2998 39.4883C23.1696 39.4167 23.0166 39.3809 22.8408 39.3809C22.6423 39.3809 22.4714 39.4167 22.3281 39.4883C22.1849 39.5599 22.0677 39.6673 21.9766 39.8105C21.8854 39.9538 21.8187 40.1344 21.7764 40.3525C21.734 40.5706 21.7129 40.8262 21.7129 41.1191ZM26.8838 38.7168V44H26.0244V38.7168H26.8838ZM25.9756 37.3154C25.9756 37.1689 26.0163 37.0452 26.0977 36.9443C26.179 36.8434 26.3011 36.793 26.4639 36.793C26.6266 36.793 26.7487 36.8434 26.8301 36.9443C26.9147 37.0452 26.957 37.1689 26.957 37.3154C26.957 37.4554 26.9147 37.5758 26.8301 37.6768C26.7487 37.7744 26.6266 37.8232 26.4639 37.8232C26.3011 37.8232 26.179 37.7744 26.0977 37.6768C26.0163 37.5758 25.9756 37.4554 25.9756 37.3154ZM30.8145 42.6475C30.8145 42.514 30.7819 42.3968 30.7168 42.2959C30.6517 42.195 30.5443 42.0973 30.3945 42.0029C30.248 41.9085 30.0495 41.8076 29.7988 41.7002C29.5547 41.5993 29.335 41.5 29.1396 41.4023C28.9476 41.3014 28.7848 41.1924 28.6514 41.0752C28.5179 40.958 28.4154 40.8229 28.3438 40.6699C28.2754 40.5137 28.2412 40.3298 28.2412 40.1182C28.2412 39.9066 28.2803 39.7113 28.3584 39.5322C28.4398 39.3499 28.5537 39.1904 28.7002 39.0537C28.8467 38.917 29.0225 38.8112 29.2275 38.7363C29.4326 38.6582 29.6621 38.6191 29.916 38.6191C30.2773 38.6191 30.585 38.6891 30.8389 38.8291C31.0928 38.9691 31.2865 39.1611 31.4199 39.4053C31.5566 39.6462 31.625 39.918 31.625 40.2207H30.7656C30.7656 40.0742 30.7331 39.9359 30.668 39.8057C30.6029 39.6755 30.5068 39.5697 30.3799 39.4883C30.2529 39.4036 30.0983 39.3613 29.916 39.3613C29.724 39.3613 29.5677 39.3955 29.4473 39.4639C29.3268 39.5322 29.2389 39.6217 29.1836 39.7324C29.1315 39.8398 29.1055 39.9587 29.1055 40.0889C29.1055 40.1865 29.1185 40.2712 29.1445 40.3428C29.1738 40.4111 29.2227 40.4762 29.291 40.5381C29.3594 40.5967 29.4521 40.6585 29.5693 40.7236C29.6898 40.7855 29.8428 40.8571 30.0283 40.9385C30.3864 41.0785 30.6875 41.2201 30.9316 41.3633C31.1758 41.5065 31.3613 41.6742 31.4883 41.8662C31.6152 42.0583 31.6787 42.2959 31.6787 42.5791C31.6787 42.8102 31.6364 43.0202 31.5518 43.209C31.4704 43.3945 31.3532 43.554 31.2002 43.6875C31.0472 43.821 30.8633 43.9235 30.6484 43.9951C30.4368 44.0635 30.1992 44.0977 29.9355 44.0977C29.5384 44.0977 29.2015 44.0195 28.9248 43.8633C28.6514 43.7038 28.443 43.4971 28.2998 43.2432C28.1598 42.986 28.0898 42.7109 28.0898 42.418H28.9541C28.9639 42.6654 29.0192 42.8574 29.1201 42.9941C29.2243 43.1309 29.3496 43.2253 29.4961 43.2773C29.6426 43.3294 29.7891 43.3555 29.9355 43.3555C30.1276 43.3555 30.2887 43.3278 30.4189 43.2725C30.5492 43.2139 30.6468 43.1309 30.7119 43.0234C30.7803 42.916 30.8145 42.7907 30.8145 42.6475ZM34.7402 38.7168V39.4102H32.2744V38.7168H34.7402ZM33.0801 37.4326H33.9443V42.6914C33.9443 42.8704 33.9655 43.0055 34.0078 43.0967C34.0534 43.1878 34.1104 43.248 34.1787 43.2773C34.2471 43.3066 34.3203 43.3213 34.3984 43.3213C34.457 43.3213 34.5221 43.3148 34.5938 43.3018C34.6654 43.2855 34.7142 43.2725 34.7402 43.2627L34.7354 44C34.6768 44.0228 34.5986 44.0439 34.501 44.0635C34.4033 44.0863 34.2796 44.0977 34.1299 44.0977C33.9443 44.0977 33.7718 44.0537 33.6123 43.9658C33.4528 43.8779 33.3242 43.7314 33.2266 43.5264C33.1289 43.318 33.0801 43.0381 33.0801 42.6865V37.4326ZM38.3584 43.0967V40.2305C38.3584 40.0221 38.3258 39.8545 38.2607 39.7275C38.1989 39.6006 38.1045 39.5078 37.9775 39.4492C37.8538 39.3906 37.6976 39.3613 37.5088 39.3613C37.3265 39.3613 37.1686 39.3988 37.0352 39.4736C36.9049 39.5485 36.804 39.6478 36.7324 39.7715C36.6641 39.8952 36.6299 40.0319 36.6299 40.1816H35.7656C35.7656 39.9928 35.8063 39.8057 35.8877 39.6201C35.9723 39.4346 36.0928 39.2669 36.249 39.1172C36.4053 38.9642 36.5924 38.8437 36.8105 38.7559C37.0319 38.6647 37.2793 38.6191 37.5527 38.6191C37.8783 38.6191 38.1663 38.6729 38.417 38.7803C38.6676 38.8844 38.8646 39.0553 39.0078 39.293C39.151 39.5306 39.2227 39.8464 39.2227 40.2402V42.8477C39.2227 43.0234 39.2357 43.2106 39.2617 43.4092C39.291 43.6077 39.3317 43.7786 39.3838 43.9219V44H38.4902C38.4479 43.8958 38.4154 43.7575 38.3926 43.585C38.3698 43.4092 38.3584 43.2464 38.3584 43.0967ZM38.4951 40.7969L38.5049 41.4316H37.9043C37.6992 41.4316 37.512 41.4544 37.3428 41.5C37.1768 41.5456 37.0335 41.6123 36.9131 41.7002C36.7926 41.7848 36.6999 41.8906 36.6348 42.0176C36.5729 42.1445 36.542 42.2894 36.542 42.4521C36.542 42.6637 36.5713 42.833 36.6299 42.96C36.6885 43.0837 36.7764 43.1732 36.8936 43.2285C37.0107 43.2839 37.1589 43.3115 37.3379 43.3115C37.556 43.3115 37.748 43.2611 37.9141 43.1602C38.0801 43.0592 38.2087 42.9372 38.2998 42.7939C38.3942 42.6507 38.4382 42.5173 38.4316 42.3936L38.6221 42.7988C38.609 42.9258 38.5667 43.0641 38.4951 43.2139C38.4268 43.3604 38.3307 43.502 38.207 43.6387C38.0833 43.7721 37.9368 43.8828 37.7676 43.9707C37.6016 44.0553 37.4144 44.0977 37.2061 44.0977C36.9001 44.0977 36.6315 44.0391 36.4004 43.9219C36.1725 43.8047 35.9951 43.6322 35.8682 43.4043C35.7412 43.1764 35.6777 42.8949 35.6777 42.5596C35.6777 42.3057 35.7217 42.0713 35.8096 41.8564C35.8975 41.6416 36.0277 41.4561 36.2002 41.2998C36.3727 41.1403 36.5892 41.0166 36.8496 40.9287C37.1133 40.8408 37.4176 40.7969 37.7627 40.7969H38.4951ZM41.4297 39.5469V44H40.5654V38.7168H41.4004L41.4297 39.5469ZM42.7432 38.6875L42.748 39.5273C42.6764 39.5111 42.6113 39.5013 42.5527 39.498C42.4974 39.4915 42.4323 39.4883 42.3574 39.4883C42.1947 39.4883 42.0514 39.5208 41.9277 39.5859C41.8073 39.651 41.7031 39.7422 41.6152 39.8594C41.5273 39.9766 41.4574 40.1165 41.4053 40.2793C41.3532 40.4388 41.3174 40.6146 41.2979 40.8066L41.0732 40.9531C41.0732 40.6341 41.0977 40.3346 41.1465 40.0547C41.1986 39.7747 41.2783 39.5273 41.3857 39.3125C41.4932 39.0944 41.6299 38.9251 41.7959 38.8047C41.9652 38.681 42.167 38.6191 42.4014 38.6191C42.4535 38.6191 42.5169 38.6273 42.5918 38.6436C42.6699 38.6566 42.7204 38.6712 42.7432 38.6875ZM46.1758 42.6475C46.1758 42.514 46.1432 42.3968 46.0781 42.2959C46.013 42.195 45.9056 42.0973 45.7559 42.0029C45.6094 41.9085 45.4108 41.8076 45.1602 41.7002C44.916 41.5993 44.6963 41.5 44.501 41.4023C44.3089 41.3014 44.1462 41.1924 44.0127 41.0752C43.8792 40.958 43.7767 40.8229 43.7051 40.6699C43.6367 40.5137 43.6025 40.3298 43.6025 40.1182C43.6025 39.9066 43.6416 39.7113 43.7197 39.5322C43.8011 39.3499 43.915 39.1904 44.0615 39.0537C44.208 38.917 44.3838 38.8112 44.5889 38.7363C44.7939 38.6582 45.0234 38.6191 45.2773 38.6191C45.6387 38.6191 45.9463 38.6891 46.2002 38.8291C46.4541 38.9691 46.6478 39.1611 46.7812 39.4053C46.918 39.6462 46.9863 39.918 46.9863 40.2207H46.127C46.127 40.0742 46.0944 39.9359 46.0293 39.8057C45.9642 39.6755 45.8682 39.5697 45.7412 39.4883C45.6143 39.4036 45.4596 39.3613 45.2773 39.3613C45.0853 39.3613 44.929 39.3955 44.8086 39.4639C44.6882 39.5322 44.6003 39.6217 44.5449 39.7324C44.4928 39.8398 44.4668 39.9587 44.4668 40.0889C44.4668 40.1865 44.4798 40.2712 44.5059 40.3428C44.5352 40.4111 44.584 40.4762 44.6523 40.5381C44.7207 40.5967 44.8135 40.6585 44.9307 40.7236C45.0511 40.7855 45.2041 40.8571 45.3896 40.9385C45.7477 41.0785 46.0488 41.2201 46.293 41.3633C46.5371 41.5065 46.7227 41.6742 46.8496 41.8662C46.9766 42.0583 47.04 42.2959 47.04 42.5791C47.04 42.8102 46.9977 43.0202 46.9131 43.209C46.8317 43.3945 46.7145 43.554 46.5615 43.6875C46.4085 43.821 46.2246 43.9235 46.0098 43.9951C45.7982 44.0635 45.5605 44.0977 45.2969 44.0977C44.8997 44.0977 44.5628 44.0195 44.2861 43.8633C44.0127 43.7038 43.8044 43.4971 43.6611 43.2432C43.5212 42.986 43.4512 42.7109 43.4512 42.418H44.3154C44.3252 42.6654 44.3805 42.8574 44.4814 42.9941C44.5856 43.1309 44.7109 43.2253 44.8574 43.2773C45.0039 43.3294 45.1504 43.3555 45.2969 43.3555C45.4889 43.3555 45.6501 43.3278 45.7803 43.2725C45.9105 43.2139 46.0081 43.1309 46.0732 43.0234C46.1416 42.916 46.1758 42.7907 46.1758 42.6475ZM49.042 36.5V44H48.1777V36.5H49.042ZM51.7227 38.7168L49.8428 41.1826L48.6807 42.5205L48.6221 41.5586L49.4229 40.4551L50.6826 38.7168H51.7227ZM50.9316 44L49.4473 41.4805L49.8916 40.6748L51.9375 44H50.9316ZM54.4766 44.0977C54.1608 44.0977 53.876 44.0505 53.6221 43.9561C53.3682 43.8617 53.1517 43.7184 52.9727 43.5264C52.7936 43.3311 52.6569 43.0853 52.5625 42.7891C52.4681 42.4928 52.4209 42.1429 52.4209 41.7393V41.1436C52.4209 40.6781 52.4746 40.2842 52.582 39.9619C52.6927 39.6396 52.8408 39.3809 53.0264 39.1855C53.2119 38.987 53.4219 38.8437 53.6562 38.7559C53.8906 38.6647 54.1315 38.6191 54.3789 38.6191C54.7109 38.6191 54.9941 38.6729 55.2285 38.7803C55.4629 38.8877 55.6533 39.0472 55.7998 39.2588C55.9463 39.4704 56.0537 39.7308 56.1221 40.04C56.1937 40.3493 56.2295 40.7057 56.2295 41.1094V41.6123H52.9287V40.875H55.3652V40.7529C55.3522 40.4795 55.3148 40.2386 55.2529 40.0303C55.1943 39.8219 55.0967 39.6592 54.96 39.542C54.8232 39.4215 54.6296 39.3613 54.3789 39.3613C54.2194 39.3613 54.0713 39.389 53.9346 39.4443C53.8011 39.4964 53.6855 39.5892 53.5879 39.7227C53.4935 39.8529 53.4186 40.0335 53.3633 40.2646C53.3112 40.4958 53.2852 40.7887 53.2852 41.1436V41.7393C53.2852 42.0225 53.3112 42.2666 53.3633 42.4717C53.4186 42.6735 53.4984 42.8411 53.6025 42.9746C53.71 43.1048 53.8402 43.2025 53.9932 43.2676C54.1494 43.3294 54.3268 43.3604 54.5254 43.3604C54.8151 43.3604 55.0544 43.305 55.2432 43.1943C55.432 43.0804 55.5964 42.9355 55.7363 42.7598L56.1904 43.3018C56.096 43.4352 55.9723 43.5638 55.8193 43.6875C55.6696 43.8079 55.484 43.9072 55.2627 43.9854C55.0446 44.0602 54.7826 44.0977 54.4766 44.0977ZM22.7871 49.7168V50.4102H20.3213V49.7168H22.7871ZM21.127 48.4326H21.9912V53.6914C21.9912 53.8704 22.0124 54.0055 22.0547 54.0967C22.1003 54.1878 22.1572 54.248 22.2256 54.2773C22.2939 54.3066 22.3672 54.3213 22.4453 54.3213C22.5039 54.3213 22.569 54.3148 22.6406 54.3018C22.7122 54.2855 22.7611 54.2725 22.7871 54.2627L22.7822 55C22.7236 55.0228 22.6455 55.0439 22.5479 55.0635C22.4502 55.0863 22.3265 55.0977 22.1768 55.0977C21.9912 55.0977 21.8187 55.0537 21.6592 54.9658C21.4997 54.8779 21.3711 54.7314 21.2734 54.5264C21.1758 54.318 21.127 54.0381 21.127 53.6865V48.4326ZM26.4053 54.0967V51.2305C26.4053 51.0221 26.3727 50.8545 26.3076 50.7275C26.2458 50.6006 26.1514 50.5078 26.0244 50.4492C25.9007 50.3906 25.7445 50.3613 25.5557 50.3613C25.3734 50.3613 25.2155 50.3988 25.082 50.4736C24.9518 50.5485 24.8509 50.6478 24.7793 50.7715C24.7109 50.8952 24.6768 51.0319 24.6768 51.1816H23.8125C23.8125 50.9928 23.8532 50.8057 23.9346 50.6201C24.0192 50.4346 24.1396 50.2669 24.2959 50.1172C24.4521 49.9642 24.6393 49.8438 24.8574 49.7559C25.0788 49.6647 25.3262 49.6191 25.5996 49.6191C25.9251 49.6191 26.2132 49.6729 26.4639 49.7803C26.7145 49.8844 26.9115 50.0553 27.0547 50.293C27.1979 50.5306 27.2695 50.8464 27.2695 51.2402V53.8477C27.2695 54.0234 27.2826 54.2106 27.3086 54.4092C27.3379 54.6077 27.3786 54.7786 27.4307 54.9219V55H26.5371C26.4948 54.8958 26.4622 54.7575 26.4395 54.585C26.4167 54.4092 26.4053 54.2464 26.4053 54.0967ZM26.542 51.7969L26.5518 52.4316H25.9512C25.7461 52.4316 25.5589 52.4544 25.3896 52.5C25.2236 52.5456 25.0804 52.6123 24.96 52.7002C24.8395 52.7848 24.7467 52.8906 24.6816 53.0176C24.6198 53.1445 24.5889 53.2894 24.5889 53.4521C24.5889 53.6637 24.6182 53.833 24.6768 53.96C24.7354 54.0837 24.8232 54.1732 24.9404 54.2285C25.0576 54.2839 25.2057 54.3115 25.3848 54.3115C25.6029 54.3115 25.7949 54.2611 25.9609 54.1602C26.127 54.0592 26.2555 53.9372 26.3467 53.7939C26.4411 53.6507 26.485 53.5173 26.4785 53.3936L26.6689 53.7988C26.6559 53.9258 26.6136 54.0641 26.542 54.2139C26.4736 54.3604 26.3776 54.502 26.2539 54.6387C26.1302 54.7721 25.9837 54.8828 25.8145 54.9707C25.6484 55.0553 25.4613 55.0977 25.2529 55.0977C24.9469 55.0977 24.6784 55.0391 24.4473 54.9219C24.2194 54.8047 24.042 54.6322 23.915 54.4043C23.7881 54.1764 23.7246 53.8949 23.7246 53.5596C23.7246 53.3057 23.7686 53.0713 23.8564 52.8564C23.9443 52.6416 24.0745 52.4561 24.2471 52.2998C24.4196 52.1403 24.6361 52.0166 24.8965 51.9287C25.1602 51.8408 25.4645 51.7969 25.8096 51.7969H26.542ZM28.6123 47.5H29.4766V53.9746L29.4033 55H28.6123V47.5ZM32.4404 52.1191V52.6123C32.4404 53.029 32.4014 53.3936 32.3232 53.7061C32.2484 54.0153 32.1361 54.2741 31.9863 54.4824C31.8366 54.6875 31.6543 54.8421 31.4395 54.9463C31.2246 55.0472 30.9788 55.0977 30.7021 55.0977C30.4287 55.0977 30.1927 55.0423 29.9941 54.9316C29.7956 54.821 29.6296 54.6615 29.4961 54.4531C29.3626 54.2448 29.2568 53.9925 29.1787 53.6963C29.1038 53.4001 29.0518 53.0664 29.0225 52.6953V52.0361C29.0518 51.6618 29.1038 51.3265 29.1787 51.0303C29.2536 50.7308 29.3577 50.4769 29.4912 50.2686C29.6247 50.057 29.7907 49.8958 29.9893 49.7852C30.1878 49.6745 30.4238 49.6191 30.6973 49.6191C30.9772 49.6191 31.2246 49.668 31.4395 49.7656C31.6576 49.8633 31.8398 50.0146 31.9863 50.2197C32.1361 50.4215 32.2484 50.6803 32.3232 50.9961C32.4014 51.3086 32.4404 51.6829 32.4404 52.1191ZM31.5762 52.6123V52.1191C31.5762 51.8262 31.5566 51.5706 31.5176 51.3525C31.4818 51.1344 31.4215 50.9538 31.3369 50.8105C31.2523 50.6673 31.1383 50.5599 30.9951 50.4883C30.8551 50.4167 30.681 50.3809 30.4727 50.3809C30.2969 50.3809 30.1423 50.4167 30.0088 50.4883C29.8786 50.5599 29.7663 50.6576 29.6719 50.7812C29.5775 50.9017 29.4993 51.04 29.4375 51.1963C29.3757 51.3493 29.3301 51.5088 29.3008 51.6748V53.0615C29.3431 53.2731 29.4098 53.4766 29.501 53.6719C29.5954 53.8639 29.7223 54.0218 29.8818 54.1455C30.0413 54.2692 30.2399 54.3311 30.4775 54.3311C30.6761 54.3311 30.8438 54.2969 30.9805 54.2285C31.1204 54.1602 31.2344 54.056 31.3223 53.916C31.4102 53.7728 31.4736 53.5938 31.5127 53.3789C31.555 53.1608 31.5762 52.9053 31.5762 52.6123ZM34.4717 47.5V55H33.6123V47.5H34.4717ZM36.7666 49.7168V55H35.9072V49.7168H36.7666ZM35.8584 48.3154C35.8584 48.1689 35.8991 48.0452 35.9805 47.9443C36.0618 47.8434 36.1839 47.793 36.3467 47.793C36.5094 47.793 36.6315 47.8434 36.7129 47.9443C36.7975 48.0452 36.8398 48.1689 36.8398 48.3154C36.8398 48.4554 36.7975 48.5758 36.7129 48.6768C36.6315 48.7744 36.5094 48.8232 36.3467 48.8232C36.1839 48.8232 36.0618 48.7744 35.9805 48.6768C35.8991 48.5758 35.8584 48.4554 35.8584 48.3154ZM39.9648 54.3604C40.1374 54.3604 40.2936 54.3262 40.4336 54.2578C40.5768 54.1862 40.694 54.0755 40.7852 53.9258C40.8763 53.7728 40.9284 53.5742 40.9414 53.3301H41.752C41.7389 53.6816 41.6494 53.9909 41.4834 54.2578C41.3206 54.5215 41.1058 54.7282 40.8389 54.8779C40.5752 55.0244 40.2839 55.0977 39.9648 55.0977C39.623 55.0977 39.3252 55.0423 39.0713 54.9316C38.8206 54.821 38.6123 54.6615 38.4463 54.4531C38.2835 54.2415 38.1615 53.986 38.0801 53.6865C37.9987 53.3838 37.958 53.0404 37.958 52.6562V52.0605C37.958 51.6764 37.9987 51.3346 38.0801 51.0352C38.1615 50.7324 38.2835 50.4769 38.4463 50.2686C38.6123 50.057 38.8206 49.8958 39.0713 49.7852C39.3252 49.6745 39.623 49.6191 39.9648 49.6191C40.3229 49.6191 40.6322 49.6956 40.8926 49.8486C41.1562 49.9984 41.3613 50.2165 41.5078 50.5029C41.6576 50.7861 41.7389 51.1296 41.752 51.5332H40.9414C40.9284 51.2728 40.8812 51.0563 40.7998 50.8838C40.7184 50.708 40.6077 50.5778 40.4678 50.4932C40.3278 50.4053 40.1602 50.3613 39.9648 50.3613C39.737 50.3613 39.5482 50.402 39.3984 50.4834C39.252 50.5615 39.1364 50.6755 39.0518 50.8252C38.9671 50.9749 38.9069 51.154 38.8711 51.3623C38.8385 51.5706 38.8223 51.8034 38.8223 52.0605V52.6562C38.8223 52.9134 38.8385 53.1478 38.8711 53.3594C38.9069 53.5677 38.9655 53.7467 39.0469 53.8965C39.1315 54.0462 39.2487 54.1618 39.3984 54.2432C39.5482 54.3213 39.737 54.3604 39.9648 54.3604ZM44.6426 55.0977C44.3268 55.0977 44.042 55.0505 43.7881 54.9561C43.5342 54.8617 43.3177 54.7184 43.1387 54.5264C42.9596 54.3311 42.8229 54.0853 42.7285 53.7891C42.6341 53.4928 42.5869 53.1429 42.5869 52.7393V52.1436C42.5869 51.6781 42.6406 51.2842 42.748 50.9619C42.8587 50.6396 43.0068 50.3809 43.1924 50.1855C43.3779 49.987 43.5879 49.8437 43.8223 49.7559C44.0566 49.6647 44.2975 49.6191 44.5449 49.6191C44.877 49.6191 45.1602 49.6729 45.3945 49.7803C45.6289 49.8877 45.8193 50.0472 45.9658 50.2588C46.1123 50.4704 46.2197 50.7308 46.2881 51.04C46.3597 51.3493 46.3955 51.7057 46.3955 52.1094V52.6123H43.0947V51.875H45.5312V51.7529C45.5182 51.4795 45.4808 51.2386 45.4189 51.0303C45.3604 50.8219 45.2627 50.6592 45.126 50.542C44.9893 50.4215 44.7956 50.3613 44.5449 50.3613C44.3854 50.3613 44.2373 50.389 44.1006 50.4443C43.9671 50.4964 43.8516 50.5892 43.7539 50.7227C43.6595 50.8529 43.5846 51.0335 43.5293 51.2646C43.4772 51.4958 43.4512 51.7887 43.4512 52.1436V52.7393C43.4512 53.0225 43.4772 53.2666 43.5293 53.4717C43.5846 53.6735 43.6644 53.8411 43.7686 53.9746C43.876 54.1048 44.0062 54.2025 44.1592 54.2676C44.3154 54.3294 44.4928 54.3604 44.6914 54.3604C44.9811 54.3604 45.2204 54.305 45.4092 54.1943C45.598 54.0804 45.7624 53.9355 45.9023 53.7598L46.3564 54.3018C46.262 54.4352 46.1383 54.5638 45.9854 54.6875C45.8356 54.8079 45.6501 54.9072 45.4287 54.9854C45.2106 55.0602 44.9486 55.0977 44.6426 55.0977Z" fill="url(#paint0_linear_363_3183)"/>
<path d="M115.583 40.8906V48H114.68L111.833 42.5166V48H110.935V40.8906H111.833L114.694 46.3887V40.8906H115.583ZM119.606 47.0967V44.2305C119.606 44.0221 119.574 43.8545 119.509 43.7275C119.447 43.6006 119.353 43.5078 119.226 43.4492C119.102 43.3906 118.946 43.3613 118.757 43.3613C118.575 43.3613 118.417 43.3988 118.283 43.4736C118.153 43.5485 118.052 43.6478 117.98 43.7715C117.912 43.8952 117.878 44.0319 117.878 44.1816H117.014C117.014 43.9928 117.054 43.8057 117.136 43.6201C117.22 43.4346 117.341 43.2669 117.497 43.1172C117.653 42.9642 117.84 42.8438 118.059 42.7559C118.28 42.6647 118.527 42.6191 118.801 42.6191C119.126 42.6191 119.414 42.6729 119.665 42.7803C119.916 42.8844 120.113 43.0553 120.256 43.293C120.399 43.5306 120.471 43.8464 120.471 44.2402V46.8477C120.471 47.0234 120.484 47.2106 120.51 47.4092C120.539 47.6077 120.58 47.7786 120.632 47.9219V48H119.738C119.696 47.8958 119.663 47.7575 119.641 47.585C119.618 47.4092 119.606 47.2464 119.606 47.0967ZM119.743 44.7969L119.753 45.4316H119.152C118.947 45.4316 118.76 45.4544 118.591 45.5C118.425 45.5456 118.282 45.6123 118.161 45.7002C118.041 45.7848 117.948 45.8906 117.883 46.0176C117.821 46.1445 117.79 46.2894 117.79 46.4521C117.79 46.6637 117.819 46.833 117.878 46.96C117.937 47.0837 118.024 47.1732 118.142 47.2285C118.259 47.2839 118.407 47.3115 118.586 47.3115C118.804 47.3115 118.996 47.2611 119.162 47.1602C119.328 47.0592 119.457 46.9372 119.548 46.7939C119.642 46.6507 119.686 46.5173 119.68 46.3936L119.87 46.7988C119.857 46.9258 119.815 47.0641 119.743 47.2139C119.675 47.3604 119.579 47.502 119.455 47.6387C119.331 47.7721 119.185 47.8828 119.016 47.9707C118.85 48.0553 118.662 48.0977 118.454 48.0977C118.148 48.0977 117.88 48.0391 117.648 47.9219C117.421 47.8047 117.243 47.6322 117.116 47.4043C116.989 47.1764 116.926 46.8949 116.926 46.5596C116.926 46.3057 116.97 46.0713 117.058 45.8564C117.146 45.6416 117.276 45.4561 117.448 45.2998C117.621 45.1403 117.837 45.0166 118.098 44.9287C118.361 44.8408 118.666 44.7969 119.011 44.7969H119.743ZM122.678 43.7324V50.0312H121.813V42.7168H122.6L122.678 43.7324ZM125.632 45.1191V45.6123C125.632 46.029 125.593 46.3936 125.515 46.7061C125.44 47.0153 125.327 47.2741 125.178 47.4824C125.031 47.6875 124.851 47.8421 124.636 47.9463C124.421 48.0472 124.175 48.0977 123.898 48.0977C123.622 48.0977 123.381 48.0456 123.176 47.9414C122.974 47.834 122.803 47.6794 122.663 47.4775C122.526 47.2757 122.417 47.0332 122.336 46.75C122.258 46.4635 122.204 46.1429 122.175 45.7881V45.0361C122.204 44.6618 122.258 44.3265 122.336 44.0303C122.414 43.7308 122.521 43.4769 122.658 43.2686C122.798 43.057 122.969 42.8958 123.171 42.7852C123.376 42.6745 123.615 42.6191 123.889 42.6191C124.172 42.6191 124.421 42.668 124.636 42.7656C124.854 42.8633 125.036 43.0146 125.183 43.2197C125.332 43.4215 125.445 43.6803 125.52 43.9961C125.594 44.3086 125.632 44.6829 125.632 45.1191ZM124.768 45.6123V45.1191C124.768 44.8262 124.745 44.5706 124.699 44.3525C124.657 44.1344 124.589 43.9538 124.494 43.8105C124.4 43.6673 124.281 43.5599 124.138 43.4883C123.994 43.4167 123.822 43.3809 123.62 43.3809C123.448 43.3809 123.295 43.4167 123.161 43.4883C123.031 43.5599 122.919 43.6576 122.824 43.7812C122.73 43.9017 122.652 44.04 122.59 44.1963C122.528 44.3493 122.482 44.5088 122.453 44.6748V46.1543C122.508 46.3626 122.582 46.5596 122.673 46.7451C122.764 46.9274 122.886 47.0755 123.039 47.1895C123.195 47.3034 123.392 47.3604 123.63 47.3604C123.828 47.3604 123.999 47.3245 124.143 47.2529C124.286 47.1813 124.403 47.0739 124.494 46.9307C124.589 46.7842 124.657 46.6019 124.699 46.3838C124.745 46.1624 124.768 45.9053 124.768 45.6123ZM127.673 40.5V48H126.813V40.5H127.673ZM131.628 47.0967V44.2305C131.628 44.0221 131.595 43.8545 131.53 43.7275C131.468 43.6006 131.374 43.5078 131.247 43.4492C131.123 43.3906 130.967 43.3613 130.778 43.3613C130.596 43.3613 130.438 43.3988 130.305 43.4736C130.174 43.5485 130.074 43.6478 130.002 43.7715C129.934 43.8952 129.899 44.0319 129.899 44.1816H129.035C129.035 43.9928 129.076 43.8057 129.157 43.6201C129.242 43.4346 129.362 43.2669 129.519 43.1172C129.675 42.9642 129.862 42.8438 130.08 42.7559C130.301 42.6647 130.549 42.6191 130.822 42.6191C131.148 42.6191 131.436 42.6729 131.687 42.7803C131.937 42.8844 132.134 43.0553 132.277 43.293C132.421 43.5306 132.492 43.8464 132.492 44.2402V46.8477C132.492 47.0234 132.505 47.2106 132.531 47.4092C132.561 47.6077 132.601 47.7786 132.653 47.9219V48H131.76C131.717 47.8958 131.685 47.7575 131.662 47.585C131.639 47.4092 131.628 47.2464 131.628 47.0967ZM131.765 44.7969L131.774 45.4316H131.174C130.969 45.4316 130.782 45.4544 130.612 45.5C130.446 45.5456 130.303 45.6123 130.183 45.7002C130.062 45.7848 129.969 45.8906 129.904 46.0176C129.842 46.1445 129.812 46.2894 129.812 46.4521C129.812 46.6637 129.841 46.833 129.899 46.96C129.958 47.0837 130.046 47.1732 130.163 47.2285C130.28 47.2839 130.428 47.3115 130.607 47.3115C130.826 47.3115 131.018 47.2611 131.184 47.1602C131.35 47.0592 131.478 46.9372 131.569 46.7939C131.664 46.6507 131.708 46.5173 131.701 46.3936L131.892 46.7988C131.879 46.9258 131.836 47.0641 131.765 47.2139C131.696 47.3604 131.6 47.502 131.477 47.6387C131.353 47.7721 131.206 47.8828 131.037 47.9707C130.871 48.0553 130.684 48.0977 130.476 48.0977C130.17 48.0977 129.901 48.0391 129.67 47.9219C129.442 47.8047 129.265 47.6322 129.138 47.4043C129.011 47.1764 128.947 46.8949 128.947 46.5596C128.947 46.3057 128.991 46.0713 129.079 45.8564C129.167 45.6416 129.297 45.4561 129.47 45.2998C129.642 45.1403 129.859 45.0166 130.119 44.9287C130.383 44.8408 130.687 44.7969 131.032 44.7969H131.765ZM135.764 42.7168V43.4102H133.298V42.7168L135.764 42.7168ZM134.104 41.4326L134.968 41.4326V46.6914C134.968 46.8704 134.989 47.0055 135.031 47.0967C135.077 47.1878 135.134 47.248 135.202 47.2773C135.271 47.3066 135.344 47.3213 135.422 47.3213C135.48 47.3213 135.546 47.3148 135.617 47.3018C135.689 47.2855 135.738 47.2725 135.764 47.2627L135.759 48C135.7 48.0228 135.622 48.0439 135.524 48.0635C135.427 48.0863 135.303 48.0977 135.153 48.0977C134.968 48.0977 134.795 48.0537 134.636 47.9658C134.476 47.8779 134.348 47.7314 134.25 47.5264C134.152 47.318 134.104 47.0381 134.104 46.6865V41.4326ZM138.684 48.0977C138.368 48.0977 138.083 48.0505 137.829 47.9561C137.575 47.8617 137.359 47.7184 137.18 47.5264C137.001 47.3311 136.864 47.0853 136.77 46.7891C136.675 46.4928 136.628 46.1429 136.628 45.7393V45.1436C136.628 44.6781 136.682 44.2842 136.789 43.9619C136.9 43.6396 137.048 43.3809 137.233 43.1855C137.419 42.987 137.629 42.8437 137.863 42.7559C138.098 42.6647 138.339 42.6191 138.586 42.6191C138.918 42.6191 139.201 42.6729 139.436 42.7803C139.67 42.8877 139.86 43.0472 140.007 43.2588C140.153 43.4704 140.261 43.7308 140.329 44.04C140.401 44.3493 140.437 44.7057 140.437 45.1094V45.6123L137.136 45.6123V44.875L139.572 44.875V44.7529C139.559 44.4795 139.522 44.2386 139.46 44.0303C139.401 43.8219 139.304 43.6592 139.167 43.542C139.03 43.4215 138.837 43.3613 138.586 43.3613C138.426 43.3613 138.278 43.389 138.142 43.4443C138.008 43.4964 137.893 43.5892 137.795 43.7227C137.701 43.8529 137.626 44.0335 137.57 44.2646C137.518 44.4958 137.492 44.7887 137.492 45.1436V45.7393C137.492 46.0225 137.518 46.2666 137.57 46.4717C137.626 46.6735 137.705 46.8411 137.81 46.9746C137.917 47.1048 138.047 47.2025 138.2 47.2676C138.356 47.3294 138.534 47.3604 138.732 47.3604C139.022 47.3604 139.261 47.305 139.45 47.1943C139.639 47.0804 139.803 46.9355 139.943 46.7598L140.397 47.3018C140.303 47.4352 140.179 47.5638 140.026 47.6875C139.877 47.8079 139.691 47.9072 139.47 47.9854C139.252 48.0602 138.99 48.0977 138.684 48.0977Z" fill="#E0E0E9"/>
<path d="M194.133 42.9209L195.842 36.8906H196.818L194.611 44H193.923L194.133 42.9209ZM192.6 36.8906L194.294 42.9209L194.519 44H193.83L191.623 36.8906H192.6ZM199.343 44.0977C199.027 44.0977 198.742 44.0505 198.488 43.9561C198.234 43.8617 198.018 43.7184 197.839 43.5264C197.66 43.3311 197.523 43.0853 197.429 42.7891C197.334 42.4928 197.287 42.1429 197.287 41.7393V41.1436C197.287 40.6781 197.341 40.2842 197.448 39.9619C197.559 39.6396 197.707 39.3809 197.893 39.1855C198.078 38.987 198.288 38.8438 198.522 38.7559C198.757 38.6647 198.998 38.6191 199.245 38.6191C199.577 38.6191 199.86 38.6729 200.095 38.7803C200.329 38.8877 200.52 39.0472 200.666 39.2588C200.812 39.4704 200.92 39.7308 200.988 40.04C201.06 40.3493 201.096 40.7057 201.096 41.1094V41.6123H197.795V40.875H200.231V40.7529C200.218 40.4795 200.181 40.2386 200.119 40.0303C200.061 39.8219 199.963 39.6592 199.826 39.542C199.689 39.4215 199.496 39.3613 199.245 39.3613C199.086 39.3613 198.938 39.389 198.801 39.4443C198.667 39.4964 198.552 39.5892 198.454 39.7227C198.36 39.8529 198.285 40.0335 198.229 40.2646C198.177 40.4958 198.151 40.7887 198.151 41.1436V41.7393C198.151 42.0225 198.177 42.2666 198.229 42.4717C198.285 42.6735 198.365 42.8411 198.469 42.9746C198.576 43.1048 198.706 43.2025 198.859 43.2676C199.016 43.3294 199.193 43.3604 199.392 43.3604C199.681 43.3604 199.921 43.305 200.109 43.1943C200.298 43.0804 200.463 42.9355 200.603 42.7598L201.057 43.3018C200.962 43.4352 200.839 43.5638 200.686 43.6875C200.536 43.8079 200.35 43.9072 200.129 43.9854C199.911 44.0602 199.649 44.0977 199.343 44.0977ZM203.005 39.5469V44H202.141V38.7168H202.976L203.005 39.5469ZM204.318 38.6875L204.323 39.5273C204.252 39.5111 204.187 39.5013 204.128 39.498C204.073 39.4915 204.007 39.4883 203.933 39.4883C203.77 39.4883 203.627 39.5208 203.503 39.5859C203.382 39.651 203.278 39.7422 203.19 39.8594C203.103 39.9766 203.033 40.1165 202.98 40.2793C202.928 40.4388 202.893 40.6146 202.873 40.8066L202.648 40.9531C202.648 40.6341 202.673 40.3346 202.722 40.0547C202.774 39.7747 202.854 39.5273 202.961 39.3125C203.068 39.0944 203.205 38.9251 203.371 38.8047C203.54 38.681 203.742 38.6191 203.977 38.6191C204.029 38.6191 204.092 38.6273 204.167 38.6436C204.245 38.6566 204.296 38.6712 204.318 38.6875ZM206.115 38.7168V44H205.256V38.7168H206.115ZM205.207 37.3154C205.207 37.1689 205.248 37.0452 205.329 36.9443C205.41 36.8434 205.533 36.793 205.695 36.793C205.858 36.793 205.98 36.8434 206.062 36.9443C206.146 37.0452 206.188 37.1689 206.188 37.3154C206.188 37.4554 206.146 37.5758 206.062 37.6768C205.98 37.7744 205.858 37.8232 205.695 37.8232C205.533 37.8232 205.41 37.7744 205.329 37.6768C205.248 37.5758 205.207 37.4554 205.207 37.3154ZM208.586 44H207.722V38.2578C207.722 37.8574 207.788 37.5189 207.922 37.2422C208.059 36.9655 208.252 36.7555 208.503 36.6123C208.757 36.4691 209.056 36.3975 209.401 36.3975C209.606 36.3975 209.803 36.4268 209.992 36.4854C210.181 36.5407 210.376 36.6107 210.578 36.6953L210.432 37.457C210.314 37.3984 210.171 37.3431 210.002 37.291C209.833 37.2357 209.655 37.208 209.47 37.208C209.144 37.208 208.915 37.2959 208.781 37.4717C208.651 37.6442 208.586 37.9062 208.586 38.2578V44ZM209.44 38.7168V39.4102H207.033V38.7168H209.44ZM210.993 38.7168V44H210.129V38.7168H210.993ZM213.254 36.5V44H212.39V36.5H213.254ZM215.935 38.7168L214.055 41.1826L212.893 42.5205L212.834 41.5586L213.635 40.4551L214.895 38.7168H215.935ZM215.144 44L213.659 41.4805L214.104 40.6748L216.149 44H215.144ZM219.484 43.0967V40.2305C219.484 40.0221 219.452 39.8545 219.387 39.7275C219.325 39.6006 219.23 39.5078 219.104 39.4492C218.98 39.3906 218.824 39.3613 218.635 39.3613C218.452 39.3613 218.295 39.3988 218.161 39.4736C218.031 39.5485 217.93 39.6478 217.858 39.7715C217.79 39.8952 217.756 40.0319 217.756 40.1816H216.892C216.892 39.9928 216.932 39.8057 217.014 39.6201C217.098 39.4346 217.219 39.2669 217.375 39.1172C217.531 38.9642 217.718 38.8437 217.937 38.7559C218.158 38.6647 218.405 38.6191 218.679 38.6191C219.004 38.6191 219.292 38.6729 219.543 38.7803C219.794 38.8844 219.991 39.0553 220.134 39.293C220.277 39.5306 220.349 39.8464 220.349 40.2402V42.8477C220.349 43.0234 220.362 43.2106 220.388 43.4092C220.417 43.6077 220.458 43.7786 220.51 43.9219V44H219.616C219.574 43.8958 219.541 43.7575 219.519 43.585C219.496 43.4092 219.484 43.2464 219.484 43.0967ZM219.621 40.7969L219.631 41.4316H219.03C218.825 41.4316 218.638 41.4544 218.469 41.5C218.303 41.5456 218.16 41.6123 218.039 41.7002C217.919 41.7848 217.826 41.8906 217.761 42.0176C217.699 42.1445 217.668 42.2894 217.668 42.4521C217.668 42.6637 217.697 42.833 217.756 42.96C217.814 43.0837 217.902 43.1732 218.02 43.2285C218.137 43.2839 218.285 43.3115 218.464 43.3115C218.682 43.3115 218.874 43.2611 219.04 43.1602C219.206 43.0592 219.335 42.9372 219.426 42.7939C219.52 42.6507 219.564 42.5173 219.558 42.3936L219.748 42.7988C219.735 42.9258 219.693 43.0641 219.621 43.2139C219.553 43.3604 219.457 43.502 219.333 43.6387C219.209 43.7721 219.063 43.8828 218.894 43.9707C218.728 44.0553 218.54 44.0977 218.332 44.0977C218.026 44.0977 217.757 44.0391 217.526 43.9219C217.299 43.8047 217.121 43.6322 216.994 43.4043C216.867 43.1764 216.804 42.8949 216.804 42.5596C216.804 42.3057 216.848 42.0713 216.936 41.8564C217.023 41.6416 217.154 41.4561 217.326 41.2998C217.499 41.1403 217.715 41.0166 217.976 40.9287C218.239 40.8408 218.544 40.7969 218.889 40.7969H219.621ZM223.522 43.3604C223.695 43.3604 223.851 43.3262 223.991 43.2578C224.134 43.1862 224.252 43.0755 224.343 42.9258C224.434 42.7728 224.486 42.5742 224.499 42.3301H225.31C225.297 42.6816 225.207 42.9909 225.041 43.2578C224.878 43.5215 224.663 43.7282 224.396 43.8779C224.133 44.0244 223.841 44.0977 223.522 44.0977C223.181 44.0977 222.883 44.0423 222.629 43.9316C222.378 43.821 222.17 43.6615 222.004 43.4531C221.841 43.2415 221.719 42.986 221.638 42.6865C221.556 42.3838 221.516 42.0404 221.516 41.6562V41.0605C221.516 40.6764 221.556 40.3346 221.638 40.0352C221.719 39.7324 221.841 39.4769 222.004 39.2686C222.17 39.057 222.378 38.8958 222.629 38.7852C222.883 38.6745 223.181 38.6191 223.522 38.6191C223.881 38.6191 224.19 38.6956 224.45 38.8486C224.714 38.9984 224.919 39.2165 225.065 39.5029C225.215 39.7861 225.297 40.1296 225.31 40.5332H224.499C224.486 40.2728 224.439 40.0563 224.357 39.8838C224.276 39.708 224.165 39.5778 224.025 39.4932C223.885 39.4053 223.718 39.3613 223.522 39.3613C223.295 39.3613 223.106 39.402 222.956 39.4834C222.81 39.5615 222.694 39.6755 222.609 39.8252C222.525 39.9749 222.465 40.154 222.429 40.3623C222.396 40.5706 222.38 40.8034 222.38 41.0605V41.6562C222.38 41.9134 222.396 42.1478 222.429 42.3594C222.465 42.5677 222.523 42.7467 222.604 42.8965C222.689 43.0462 222.806 43.1618 222.956 43.2432C223.106 43.3213 223.295 43.3604 223.522 43.3604ZM227.238 38.7168V44H226.379V38.7168H227.238ZM226.33 37.3154C226.33 37.1689 226.371 37.0452 226.452 36.9443C226.534 36.8434 226.656 36.793 226.818 36.793C226.981 36.793 227.103 36.8434 227.185 36.9443C227.269 37.0452 227.312 37.1689 227.312 37.3154C227.312 37.4554 227.269 37.5758 227.185 37.6768C227.103 37.7744 226.981 37.8232 226.818 37.8232C226.656 37.8232 226.534 37.7744 226.452 37.6768C226.371 37.5758 226.33 37.4554 226.33 37.3154ZM228.625 38.7168H229.484V44.6299C229.484 44.9521 229.442 45.2256 229.357 45.4502C229.276 45.6748 229.149 45.8441 228.977 45.958C228.807 46.0752 228.591 46.1338 228.327 46.1338C228.256 46.1338 228.173 46.1257 228.078 46.1094C227.987 46.0931 227.909 46.0736 227.844 46.0508V45.3232C227.899 45.3363 227.959 45.346 228.024 45.3525C228.09 45.3623 228.143 45.3672 228.186 45.3672C228.28 45.3672 228.36 45.3428 228.425 45.2939C228.49 45.2451 228.539 45.167 228.571 45.0596C228.607 44.9521 228.625 44.8089 228.625 44.6299V38.7168ZM228.547 37.3154C228.547 37.1689 228.588 37.0452 228.669 36.9443C228.754 36.8434 228.876 36.793 229.035 36.793C229.198 36.793 229.32 36.8434 229.401 36.9443C229.486 37.0452 229.528 37.1689 229.528 37.3154C229.528 37.4554 229.486 37.5758 229.401 37.6768C229.32 37.7744 229.198 37.8232 229.035 37.8232C228.876 37.8232 228.754 37.7744 228.669 37.6768C228.588 37.5758 228.547 37.4554 228.547 37.3154ZM233.439 43.0967V40.2305C233.439 40.0221 233.407 39.8545 233.342 39.7275C233.28 39.6006 233.186 39.5078 233.059 39.4492C232.935 39.3906 232.779 39.3613 232.59 39.3613C232.408 39.3613 232.25 39.3988 232.116 39.4736C231.986 39.5485 231.885 39.6478 231.813 39.7715C231.745 39.8952 231.711 40.0319 231.711 40.1816H230.847C230.847 39.9928 230.887 39.8057 230.969 39.6201C231.053 39.4346 231.174 39.2669 231.33 39.1172C231.486 38.9642 231.674 38.8437 231.892 38.7559C232.113 38.6647 232.36 38.6191 232.634 38.6191C232.959 38.6191 233.247 38.6729 233.498 38.7803C233.749 38.8844 233.946 39.0553 234.089 39.293C234.232 39.5306 234.304 39.8464 234.304 40.2402V42.8477C234.304 43.0234 234.317 43.2106 234.343 43.4092C234.372 43.6077 234.413 43.7786 234.465 43.9219V44H233.571C233.529 43.8958 233.496 43.7575 233.474 43.585C233.451 43.4092 233.439 43.2464 233.439 43.0967ZM233.576 40.7969L233.586 41.4316H232.985C232.78 41.4316 232.593 41.4544 232.424 41.5C232.258 41.5456 232.115 41.6123 231.994 41.7002C231.874 41.7848 231.781 41.8906 231.716 42.0176C231.654 42.1445 231.623 42.2894 231.623 42.4521C231.623 42.6637 231.652 42.833 231.711 42.96C231.77 43.0837 231.857 43.1732 231.975 43.2285C232.092 43.2839 232.24 43.3115 232.419 43.3115C232.637 43.3115 232.829 43.2611 232.995 43.1602C233.161 43.0592 233.29 42.9372 233.381 42.7939C233.475 42.6507 233.519 42.5173 233.513 42.3936L233.703 42.7988C233.69 42.9258 233.648 43.0641 233.576 43.2139C233.508 43.3604 233.412 43.502 233.288 43.6387C233.164 43.7721 233.018 43.8828 232.849 43.9707C232.683 44.0553 232.495 44.0977 232.287 44.0977C231.981 44.0977 231.713 44.0391 231.481 43.9219C231.254 43.8047 231.076 43.6322 230.949 43.4043C230.822 43.1764 230.759 42.8949 230.759 42.5596C230.759 42.3057 230.803 42.0713 230.891 41.8564C230.979 41.6416 231.109 41.4561 231.281 41.2998C231.454 41.1403 231.67 41.0166 231.931 40.9287C232.194 40.8408 232.499 40.7969 232.844 40.7969H233.576ZM238.869 38.7168V44H238.01V38.7168H238.869ZM237.961 37.3154C237.961 37.1689 238.002 37.0452 238.083 36.9443C238.164 36.8434 238.286 36.793 238.449 36.793C238.612 36.793 238.734 36.8434 238.815 36.9443C238.9 37.0452 238.942 37.1689 238.942 37.3154C238.942 37.4554 238.9 37.5758 238.815 37.6768C238.734 37.7744 238.612 37.8232 238.449 37.8232C238.286 37.8232 238.164 37.7744 238.083 37.6768C238.002 37.5758 237.961 37.4554 237.961 37.3154ZM200.407 50.7324V57.0312H199.543V49.7168H200.329L200.407 50.7324ZM203.361 52.1191V52.6123C203.361 53.029 203.322 53.3936 203.244 53.7061C203.169 54.0153 203.057 54.2741 202.907 54.4824C202.761 54.6875 202.58 54.8421 202.365 54.9463C202.15 55.0472 201.905 55.0977 201.628 55.0977C201.351 55.0977 201.11 55.0456 200.905 54.9414C200.703 54.834 200.533 54.6794 200.393 54.4775C200.256 54.2757 200.147 54.0332 200.065 53.75C199.987 53.4635 199.934 53.1429 199.904 52.7881V52.0361C199.934 51.6618 199.987 51.3265 200.065 51.0303C200.144 50.7308 200.251 50.4769 200.388 50.2686C200.528 50.057 200.699 49.8958 200.9 49.7852C201.105 49.6745 201.345 49.6191 201.618 49.6191C201.901 49.6191 202.15 49.668 202.365 49.7656C202.583 49.8633 202.766 50.0146 202.912 50.2197C203.062 50.4215 203.174 50.6803 203.249 50.9961C203.324 51.3086 203.361 51.6829 203.361 52.1191ZM202.497 52.6123V52.1191C202.497 51.8262 202.474 51.5706 202.429 51.3525C202.386 51.1344 202.318 50.9538 202.224 50.8105C202.129 50.6673 202.01 50.5599 201.867 50.4883C201.724 50.4167 201.551 50.3809 201.35 50.3809C201.177 50.3809 201.024 50.4167 200.891 50.4883C200.76 50.5599 200.648 50.6576 200.554 50.7812C200.459 50.9017 200.381 51.04 200.319 51.1963C200.257 51.3493 200.212 51.5088 200.183 51.6748V53.1543C200.238 53.3626 200.311 53.5596 200.402 53.7451C200.493 53.9274 200.616 54.0755 200.769 54.1895C200.925 54.3034 201.122 54.3604 201.359 54.3604C201.558 54.3604 201.729 54.3245 201.872 54.2529C202.015 54.1813 202.132 54.0739 202.224 53.9307C202.318 53.7842 202.386 53.6019 202.429 53.3838C202.474 53.1624 202.497 52.9053 202.497 52.6123ZM205.402 47.5V55H204.543V47.5H205.402ZM209.357 54.0967V51.2305C209.357 51.0221 209.325 50.8545 209.26 50.7275C209.198 50.6006 209.104 50.5078 208.977 50.4492C208.853 50.3906 208.697 50.3613 208.508 50.3613C208.326 50.3613 208.168 50.3988 208.034 50.4736C207.904 50.5485 207.803 50.6478 207.731 50.7715C207.663 50.8952 207.629 51.0319 207.629 51.1816H206.765C206.765 50.9928 206.805 50.8057 206.887 50.6201C206.971 50.4346 207.092 50.2669 207.248 50.1172C207.404 49.9642 207.591 49.8438 207.81 49.7559C208.031 49.6647 208.278 49.6191 208.552 49.6191C208.877 49.6191 209.165 49.6729 209.416 49.7803C209.667 49.8844 209.864 50.0553 210.007 50.293C210.15 50.5306 210.222 50.8464 210.222 51.2402V53.8477C210.222 54.0234 210.235 54.2106 210.261 54.4092C210.29 54.6077 210.331 54.7786 210.383 54.9219V55H209.489C209.447 54.8958 209.414 54.7575 209.392 54.585C209.369 54.4092 209.357 54.2464 209.357 54.0967ZM209.494 51.7969L209.504 52.4316H208.903C208.698 52.4316 208.511 52.4544 208.342 52.5C208.176 52.5456 208.033 52.6123 207.912 52.7002C207.792 52.7848 207.699 52.8906 207.634 53.0176C207.572 53.1445 207.541 53.2894 207.541 53.4521C207.541 53.6637 207.57 53.833 207.629 53.96C207.688 54.0837 207.775 54.1732 207.893 54.2285C208.01 54.2839 208.158 54.3115 208.337 54.3115C208.555 54.3115 208.747 54.2611 208.913 54.1602C209.079 54.0592 209.208 53.9372 209.299 53.7939C209.393 53.6507 209.437 53.5173 209.431 53.3936L209.621 53.7988C209.608 53.9258 209.566 54.0641 209.494 54.2139C209.426 54.3604 209.33 54.502 209.206 54.6387C209.082 54.7721 208.936 54.8828 208.767 54.9707C208.601 55.0553 208.413 55.0977 208.205 55.0977C207.899 55.0977 207.631 55.0391 207.399 54.9219C207.172 54.8047 206.994 54.6322 206.867 54.4043C206.74 54.1764 206.677 53.8949 206.677 53.5596C206.677 53.3057 206.721 53.0713 206.809 52.8564C206.896 52.6416 207.027 52.4561 207.199 52.2998C207.372 52.1403 207.588 52.0166 207.849 51.9287C208.112 51.8408 208.417 51.7969 208.762 51.7969H209.494ZM213.396 54.3604C213.568 54.3604 213.724 54.3262 213.864 54.2578C214.007 54.1862 214.125 54.0755 214.216 53.9258C214.307 53.7728 214.359 53.5742 214.372 53.3301H215.183C215.17 53.6816 215.08 53.9909 214.914 54.2578C214.751 54.5215 214.536 54.7282 214.27 54.8779C214.006 55.0244 213.715 55.0977 213.396 55.0977C213.054 55.0977 212.756 55.0423 212.502 54.9316C212.251 54.821 212.043 54.6615 211.877 54.4531C211.714 54.2415 211.592 53.986 211.511 53.6865C211.429 53.3838 211.389 53.0404 211.389 52.6562V52.0605C211.389 51.6764 211.429 51.3346 211.511 51.0352C211.592 50.7324 211.714 50.4769 211.877 50.2686C212.043 50.057 212.251 49.8958 212.502 49.7852C212.756 49.6745 213.054 49.6191 213.396 49.6191C213.754 49.6191 214.063 49.6956 214.323 49.8486C214.587 49.9984 214.792 50.2165 214.938 50.5029C215.088 50.7861 215.17 51.1296 215.183 51.5332H214.372C214.359 51.2728 214.312 51.0563 214.23 50.8838C214.149 50.708 214.038 50.5778 213.898 50.4932C213.758 50.4053 213.591 50.3613 213.396 50.3613C213.168 50.3613 212.979 50.402 212.829 50.4834C212.683 50.5615 212.567 50.6755 212.482 50.8252C212.398 50.9749 212.338 51.154 212.302 51.3623C212.269 51.5706 212.253 51.8034 212.253 52.0605V52.6562C212.253 52.9134 212.269 53.1478 212.302 53.3594C212.338 53.5677 212.396 53.7467 212.478 53.8965C212.562 54.0462 212.679 54.1618 212.829 54.2432C212.979 54.3213 213.168 54.3604 213.396 54.3604ZM212.688 48.9355L213.635 47.5H214.724L213.415 48.9355H212.688ZM218.771 54.0967V51.2305C218.771 51.0221 218.739 50.8545 218.674 50.7275C218.612 50.6006 218.518 50.5078 218.391 50.4492C218.267 50.3906 218.111 50.3613 217.922 50.3613C217.74 50.3613 217.582 50.3988 217.448 50.4736C217.318 50.5485 217.217 50.6478 217.146 50.7715C217.077 50.8952 217.043 51.0319 217.043 51.1816H216.179C216.179 50.9928 216.219 50.8057 216.301 50.6201C216.385 50.4346 216.506 50.2669 216.662 50.1172C216.818 49.9642 217.006 49.8438 217.224 49.7559C217.445 49.6647 217.692 49.6191 217.966 49.6191C218.291 49.6191 218.579 49.6729 218.83 49.7803C219.081 49.8844 219.278 50.0553 219.421 50.293C219.564 50.5306 219.636 50.8464 219.636 51.2402V53.8477C219.636 54.0234 219.649 54.2106 219.675 54.4092C219.704 54.6077 219.745 54.7786 219.797 54.9219V55H218.903C218.861 54.8958 218.828 54.7575 218.806 54.585C218.783 54.4092 218.771 54.2464 218.771 54.0967ZM218.908 51.7969L218.918 52.4316H218.317C218.112 52.4316 217.925 52.4544 217.756 52.5C217.59 52.5456 217.447 52.6123 217.326 52.7002C217.206 52.7848 217.113 52.8906 217.048 53.0176C216.986 53.1445 216.955 53.2894 216.955 53.4521C216.955 53.6637 216.984 53.833 217.043 53.96C217.102 54.0837 217.189 54.1732 217.307 54.2285C217.424 54.2839 217.572 54.3115 217.751 54.3115C217.969 54.3115 218.161 54.2611 218.327 54.1602C218.493 54.0592 218.622 53.9372 218.713 53.7939C218.807 53.6507 218.851 53.5173 218.845 53.3936L219.035 53.7988C219.022 53.9258 218.98 54.0641 218.908 54.2139C218.84 54.3604 218.744 54.502 218.62 54.6387C218.496 54.7721 218.35 54.8828 218.181 54.9707C218.015 55.0553 217.827 55.0977 217.619 55.0977C217.313 55.0977 217.045 55.0391 216.813 54.9219C216.586 54.8047 216.408 54.6322 216.281 54.4043C216.154 54.1764 216.091 53.8949 216.091 53.5596C216.091 53.3057 216.135 53.0713 216.223 52.8564C216.311 52.6416 216.441 52.4561 216.613 52.2998C216.786 52.1403 217.002 52.0166 217.263 51.9287C217.526 51.8408 217.831 51.7969 218.176 51.7969H218.908ZM221.843 50.8447V55H220.979V49.7168H221.794L221.843 50.8447ZM221.633 52.1582L221.281 52.1436C221.278 51.7822 221.319 51.4486 221.403 51.1426C221.491 50.8333 221.615 50.5648 221.774 50.3369C221.937 50.109 222.131 49.9333 222.355 49.8096C222.58 49.6826 222.829 49.6191 223.103 49.6191C223.317 49.6191 223.513 49.6549 223.688 49.7266C223.864 49.7949 224.014 49.9056 224.138 50.0586C224.261 50.2116 224.356 50.4102 224.421 50.6543C224.489 50.8952 224.523 51.1898 224.523 51.5381V55L223.659 55V51.5283C223.659 51.2516 223.628 51.0303 223.566 50.8643C223.508 50.695 223.417 50.5729 223.293 50.498C223.173 50.4199 223.02 50.3809 222.834 50.3809C222.665 50.3809 222.507 50.4281 222.36 50.5225C222.214 50.6169 222.085 50.7471 221.975 50.9131C221.867 51.0791 221.783 51.2695 221.721 51.4844C221.662 51.696 221.633 51.9206 221.633 52.1582ZM225.842 49.7168H226.701V55.6299C226.701 55.9521 226.659 56.2256 226.574 56.4502C226.493 56.6748 226.366 56.8441 226.193 56.958C226.024 57.0752 225.808 57.1338 225.544 57.1338C225.472 57.1338 225.389 57.1257 225.295 57.1094C225.204 57.0931 225.126 57.0736 225.061 57.0508V56.3232C225.116 56.3363 225.176 56.346 225.241 56.3525C225.306 56.3623 225.36 56.3672 225.402 56.3672C225.497 56.3672 225.576 56.3428 225.642 56.2939C225.707 56.2451 225.756 56.167 225.788 56.0596C225.824 55.9521 225.842 55.8089 225.842 55.6299V49.7168ZM225.764 48.3154C225.764 48.1689 225.804 48.0452 225.886 47.9443C225.97 47.8434 226.092 47.793 226.252 47.793C226.415 47.793 226.537 47.8434 226.618 47.9443C226.703 48.0452 226.745 48.1689 226.745 48.3154C226.745 48.4554 226.703 48.5758 226.618 48.6768C226.537 48.7744 226.415 48.8232 226.252 48.8232C226.092 48.8232 225.97 48.7744 225.886 48.6768C225.804 48.5758 225.764 48.4554 225.764 48.3154ZM229.958 55.0977C229.642 55.0977 229.357 55.0505 229.104 54.9561C228.85 54.8617 228.633 54.7184 228.454 54.5264C228.275 54.3311 228.138 54.0853 228.044 53.7891C227.95 53.4928 227.902 53.1429 227.902 52.7393V52.1436C227.902 51.6781 227.956 51.2842 228.063 50.9619C228.174 50.6396 228.322 50.3809 228.508 50.1855C228.693 49.987 228.903 49.8437 229.138 49.7559C229.372 49.6647 229.613 49.6191 229.86 49.6191C230.192 49.6191 230.476 49.6729 230.71 49.7803C230.944 49.8877 231.135 50.0472 231.281 50.2588C231.428 50.4704 231.535 50.7308 231.604 51.04C231.675 51.3493 231.711 51.7057 231.711 52.1094V52.6123H228.41V51.875H230.847V51.7529C230.834 51.4795 230.796 51.2386 230.734 51.0303C230.676 50.8219 230.578 50.6592 230.441 50.542C230.305 50.4215 230.111 50.3613 229.86 50.3613C229.701 50.3613 229.553 50.389 229.416 50.4443C229.283 50.4964 229.167 50.5892 229.069 50.7227C228.975 50.8529 228.9 51.0335 228.845 51.2646C228.793 51.4958 228.767 51.7887 228.767 52.1436V52.7393C228.767 53.0225 228.793 53.2666 228.845 53.4717C228.9 53.6735 228.98 53.8411 229.084 53.9746C229.191 54.1048 229.322 54.2025 229.475 54.2676C229.631 54.3294 229.808 54.3604 230.007 54.3604C230.297 54.3604 230.536 54.305 230.725 54.1943C230.913 54.0804 231.078 53.9355 231.218 53.7598L231.672 54.3018C231.577 54.4352 231.454 54.5638 231.301 54.6875C231.151 54.8079 230.965 54.9072 230.744 54.9854C230.526 55.0602 230.264 55.0977 229.958 55.0977Z" fill="#E0E0E9"/>
<path fill-rule="evenodd" clip-rule="evenodd" d="M205 16L138 16V14L205 14V16Z" fill="#D0CFD7"/>
<path fill-rule="evenodd" clip-rule="evenodd" d="M112 16L45 16V14L112 14V16Z" fill="#D0CFD7"/>
<path fill-rule="evenodd" clip-rule="evenodd" d="M19.7612 6.17317C19 8.01088 19 10.3406 19 15C19 19.6594 19 21.9891 19.7612 23.8268C20.7761 26.2771 22.7229 28.2239 25.1732 29.2388C27.0109 30 29.3406 30 34 30C38.6594 30 40.9891 30 42.8268 29.2388C45.2771 28.2239 47.2239 26.2771 48.2388 23.8268C49 21.9891 49 19.6594 49 15C49 10.3406 49 8.01088 48.2388 6.17317C47.2239 3.72288 45.2771 1.77614 42.8268 0.761205C40.9891 0 38.6594 0 34 0C29.3406 0 27.0109 0 25.1732 0.761205C22.7229 1.77614 20.7761 3.72288 19.7612 6.17317ZM40.7071 11.7071C41.0976 11.3166 41.0976 10.6834 40.7071 10.2929C40.3166 9.90237 39.6834 9.90237 39.2929 10.2929L32 17.5858L28.7071 14.2929C28.3166 13.9024 27.6834 13.9024 27.2929 14.2929C26.9024 14.6834 26.9024 15.3166 27.2929 15.7071L31.2929 19.7071C31.4804 19.8946 31.7348 20 32 20C32.2652 20 32.5196 19.8946 32.7071 19.7071L40.7071 11.7071Z" fill="url(#paint1_linear_363_3183)"/>
<path fill-rule="evenodd" clip-rule="evenodd" d="M201.761 6.17317C201 8.01088 201 10.3406 201 15C201 19.6594 201 21.9891 201.761 23.8268C202.776 26.2771 204.723 28.2239 207.173 29.2388C209.011 30 211.341 30 216 30C220.659 30 222.989 30 224.827 29.2388C227.277 28.2239 229.224 26.2771 230.239 23.8268C231 21.9891 231 19.6594 231 15C231 10.3406 231 8.01088 230.239 6.17317C229.224 3.72288 227.277 1.77614 224.827 0.761205C222.989 0 220.659 0 216 0C211.341 0 209.011 0 207.173 0.761205C204.723 1.77614 202.776 3.72288 201.761 6.17317ZM222.707 11.7071C223.098 11.3166 223.098 10.6834 222.707 10.2929C222.317 9.90237 221.683 9.90237 221.293 10.2929L214 17.5858L210.707 14.2929C210.317 13.9024 209.683 13.9024 209.293 14.2929C208.902 14.6834 208.902 15.3166 209.293 15.7071L213.293 19.7071C213.48 19.8946 213.735 20 214 20C214.265 20 214.52 19.8946 214.707 19.7071L222.707 11.7071Z" fill="#D0CFD7"/>
<path fill-rule="evenodd" clip-rule="evenodd" d="M110.761 6.17317C110 8.01088 110 10.3406 110 15C110 19.6594 110 21.9891 110.761 23.8268C111.776 26.2771 113.723 28.2239 116.173 29.2388C118.011 30 120.341 30 125 30C129.659 30 131.989 30 133.827 29.2388C136.277 28.2239 138.224 26.2771 139.239 23.8268C140 21.9891 140 19.6594 140 15C140 10.3406 140 8.01088 139.239 6.17317C138.224 3.72288 136.277 1.77614 133.827 0.761205C131.989 0 129.659 0 125 0C120.341 0 118.011 0 116.173 0.761205C113.723 1.77614 111.776 3.72288 110.761 6.17317ZM131.707 11.7071C132.098 11.3166 132.098 10.6834 131.707 10.2929C131.317 9.90237 130.683 9.90237 130.293 10.2929L123 17.5858L119.707 14.2929C119.317 13.9024 118.683 13.9024 118.293 14.2929C117.902 14.6834 117.902 15.3166 118.293 15.7071L122.293 19.7071C122.48 19.8946 122.735 20 123 20C123.265 20 123.52 19.8946 123.707 19.7071L131.707 11.7071Z" fill="#D0CFD7"/>
<defs>
<linearGradient id="paint0_linear_363_3183" x1="33.5" y1="57" x2="33.5" y2="35" gradientUnits="userSpaceOnUse">
<stop stop-color="#5CCC94"/>
<stop offset="1" stop-color="#8CCAAE"/>
</linearGradient>
<linearGradient id="paint1_linear_363_3183" x1="34" y1="30" x2="34" y2="1.58545e-07" gradientUnits="userSpaceOnUse">
<stop stop-color="#5CCC94"/>
<stop offset="1" stop-color="#8CCAAE"/>
</linearGradient>
</defs>
</svg>
