<svg width="239" height="57" viewBox="0 0 239 57" fill="none" xmlns="http://www.w3.org/2000/svg">
<path d="M11.7471 43.2334V44H8.79785V43.2334H11.7471ZM8.95898 36.8906L8.95898 44H8.06055L8.06055 36.8906H8.95898ZM13.627 38.7168L13.627 44H12.7676L12.7676 38.7168H13.627ZM12.7188 37.3154C12.7188 37.1689 12.7594 37.0452 12.8408 36.9443C12.9222 36.8434 13.0443 36.793 13.207 36.793C13.3698 36.793 13.4919 36.8434 13.5732 36.9443C13.6579 37.0452 13.7002 37.1689 13.7002 37.3154C13.7002 37.4554 13.6579 37.5758 13.5732 37.6768C13.4919 37.7744 13.3698 37.8232 13.207 37.8232C13.0443 37.8232 12.9222 37.7744 12.8408 37.6768C12.7594 37.5758 12.7188 37.4554 12.7188 37.3154ZM16.8252 43.3604C16.9977 43.3604 17.154 43.3262 17.2939 43.2578C17.4372 43.1862 17.5544 43.0755 17.6455 42.9258C17.7367 42.7728 17.7887 42.5742 17.8018 42.3301H18.6123C18.5993 42.6816 18.5098 42.9909 18.3438 43.2578C18.181 43.5215 17.9661 43.7282 17.6992 43.8779C17.4355 44.0244 17.1442 44.0977 16.8252 44.0977C16.4834 44.0977 16.1855 44.0423 15.9316 43.9316C15.681 43.821 15.4727 43.6615 15.3066 43.4531C15.1439 43.2415 15.0218 42.986 14.9404 42.6865C14.859 42.3838 14.8184 42.0404 14.8184 41.6562V41.0605C14.8184 40.6764 14.859 40.3346 14.9404 40.0352C15.0218 39.7324 15.1439 39.4769 15.3066 39.2686C15.4727 39.057 15.681 38.8958 15.9316 38.7852C16.1855 38.6745 16.4834 38.6191 16.8252 38.6191C17.1833 38.6191 17.4925 38.6956 17.7529 38.8486C18.0166 38.9984 18.2217 39.2165 18.3682 39.5029C18.5179 39.7861 18.5993 40.1296 18.6123 40.5332H17.8018C17.7887 40.2728 17.7415 40.0563 17.6602 39.8838C17.5788 39.708 17.4681 39.5778 17.3281 39.4932C17.1882 39.4053 17.0205 39.3613 16.8252 39.3613C16.5973 39.3613 16.4085 39.402 16.2588 39.4834C16.1123 39.5615 15.9967 39.6755 15.9121 39.8252C15.8275 39.9749 15.7673 40.154 15.7314 40.3623C15.6989 40.5706 15.6826 40.8034 15.6826 41.0605V41.6562C15.6826 41.9134 15.6989 42.1478 15.7314 42.3594C15.7673 42.5677 15.8258 42.7467 15.9072 42.8965C15.9919 43.0462 16.109 43.1618 16.2588 43.2432C16.4085 43.3213 16.5973 43.3604 16.8252 43.3604ZM21.5029 44.0977C21.1872 44.0977 20.9023 44.0505 20.6484 43.9561C20.3945 43.8617 20.1781 43.7184 19.999 43.5264C19.82 43.3311 19.6833 43.0853 19.5889 42.7891C19.4945 42.4928 19.4473 42.1429 19.4473 41.7393V41.1436C19.4473 40.6781 19.501 40.2842 19.6084 39.9619C19.7191 39.6396 19.8672 39.3809 20.0527 39.1855C20.2383 38.987 20.4482 38.8438 20.6826 38.7559C20.917 38.6647 21.1579 38.6191 21.4053 38.6191C21.7373 38.6191 22.0205 38.6729 22.2549 38.7803C22.4893 38.8877 22.6797 39.0472 22.8262 39.2588C22.9727 39.4704 23.0801 39.7308 23.1484 40.04C23.2201 40.3493 23.2559 40.7057 23.2559 41.1094V41.6123H19.9551V40.875H22.3916V40.7529C22.3786 40.4795 22.3411 40.2386 22.2793 40.0303C22.2207 39.8219 22.123 39.6592 21.9863 39.542C21.8496 39.4215 21.6559 39.3613 21.4053 39.3613C21.2458 39.3613 21.0977 39.389 20.9609 39.4443C20.8275 39.4964 20.7119 39.5892 20.6143 39.7227C20.5199 39.8529 20.445 40.0335 20.3896 40.2646C20.3376 40.4958 20.3115 40.7887 20.3115 41.1436V41.7393C20.3115 42.0225 20.3376 42.2666 20.3896 42.4717C20.445 42.6735 20.5247 42.8411 20.6289 42.9746C20.7363 43.1048 20.8665 43.2025 21.0195 43.2676C21.1758 43.3294 21.3532 43.3604 21.5518 43.3604C21.8415 43.3604 22.0807 43.305 22.2695 43.1943C22.4583 43.0804 22.6227 42.9355 22.7627 42.7598L23.2168 43.3018C23.1224 43.4352 22.9987 43.5638 22.8457 43.6875C22.696 43.8079 22.5104 43.9072 22.2891 43.9854C22.071 44.0602 21.8089 44.0977 21.5029 44.0977ZM25.165 39.8447V44H24.3008V38.7168H25.1162L25.165 39.8447ZM24.9551 41.1582L24.6035 41.1436C24.6003 40.7822 24.641 40.4486 24.7256 40.1426C24.8135 39.8333 24.9372 39.5648 25.0967 39.3369C25.2594 39.109 25.4531 38.9333 25.6777 38.8096C25.9023 38.6826 26.1514 38.6191 26.4248 38.6191C26.6396 38.6191 26.835 38.6549 27.0107 38.7266C27.1865 38.7949 27.3363 38.9056 27.46 39.0586C27.5837 39.2116 27.6781 39.4102 27.7432 39.6543C27.8115 39.8952 27.8457 40.1898 27.8457 40.5381V44L26.9814 44V40.5283C26.9814 40.2516 26.9505 40.0303 26.8887 39.8643C26.8301 39.695 26.7389 39.5729 26.6152 39.498C26.4948 39.4199 26.3418 39.3809 26.1562 39.3809C25.987 39.3809 25.8291 39.4281 25.6826 39.5225C25.5361 39.6169 25.4076 39.7471 25.2969 39.9131C25.1895 40.0791 25.1048 40.2695 25.043 40.4844C24.9844 40.696 24.9551 40.9206 24.9551 41.1582ZM31.708 42.6475C31.708 42.514 31.6755 42.3968 31.6104 42.2959C31.5452 42.195 31.4378 42.0973 31.2881 42.0029C31.1416 41.9085 30.943 41.8076 30.6924 41.7002C30.4482 41.5993 30.2285 41.5 30.0332 41.4023C29.8411 41.3014 29.6784 41.1924 29.5449 41.0752C29.4115 40.958 29.3089 40.8229 29.2373 40.6699C29.1689 40.5137 29.1348 40.3298 29.1348 40.1182C29.1348 39.9066 29.1738 39.7113 29.252 39.5322C29.3333 39.3499 29.4473 39.1904 29.5938 39.0537C29.7402 38.917 29.916 38.8112 30.1211 38.7363C30.3262 38.6582 30.5557 38.6191 30.8096 38.6191C31.1709 38.6191 31.4785 38.6891 31.7324 38.8291C31.9863 38.9691 32.18 39.1611 32.3135 39.4053C32.4502 39.6462 32.5186 39.918 32.5186 40.2207H31.6592C31.6592 40.0742 31.6266 39.9359 31.5615 39.8057C31.4964 39.6755 31.4004 39.5697 31.2734 39.4883C31.1465 39.4036 30.9919 39.3613 30.8096 39.3613C30.6175 39.3613 30.4613 39.3955 30.3408 39.4639C30.2204 39.5322 30.1325 39.6217 30.0771 39.7324C30.0251 39.8398 29.999 39.9587 29.999 40.0889C29.999 40.1865 30.012 40.2712 30.0381 40.3428C30.0674 40.4111 30.1162 40.4762 30.1846 40.5381C30.2529 40.5967 30.3457 40.6585 30.4629 40.7236C30.5833 40.7855 30.7363 40.8571 30.9219 40.9385C31.2799 41.0785 31.5811 41.2201 31.8252 41.3633C32.0693 41.5065 32.2549 41.6742 32.3818 41.8662C32.5088 42.0583 32.5723 42.2959 32.5723 42.5791C32.5723 42.8102 32.5299 43.0202 32.4453 43.209C32.3639 43.3945 32.2467 43.554 32.0938 43.6875C31.9408 43.821 31.7568 43.9235 31.542 43.9951C31.3304 44.0635 31.0928 44.0977 30.8291 44.0977C30.432 44.0977 30.0951 44.0195 29.8184 43.8633C29.5449 43.7038 29.3366 43.4971 29.1934 43.2432C29.0534 42.986 28.9834 42.7109 28.9834 42.418H29.8477C29.8574 42.6654 29.9128 42.8574 30.0137 42.9941C30.1178 43.1309 30.2432 43.2253 30.3896 43.2773C30.5361 43.3294 30.6826 43.3555 30.8291 43.3555C31.0212 43.3555 31.1823 43.3278 31.3125 43.2725C31.4427 43.2139 31.5404 43.1309 31.6055 43.0234C31.6738 42.916 31.708 42.7907 31.708 42.6475ZM35.5947 44.0977C35.279 44.0977 34.9941 44.0505 34.7402 43.9561C34.4863 43.8617 34.2699 43.7184 34.0908 43.5264C33.9118 43.3311 33.7751 43.0853 33.6807 42.7891C33.5863 42.4928 33.5391 42.1429 33.5391 41.7393V41.1436C33.5391 40.6781 33.5928 40.2842 33.7002 39.9619C33.8109 39.6396 33.959 39.3809 34.1445 39.1855C34.3301 38.987 34.54 38.8437 34.7744 38.7559C35.0088 38.6647 35.2497 38.6191 35.4971 38.6191C35.8291 38.6191 36.1123 38.6729 36.3467 38.7803C36.5811 38.8877 36.7715 39.0472 36.918 39.2588C37.0645 39.4704 37.1719 39.7308 37.2402 40.04C37.3118 40.3493 37.3477 40.7057 37.3477 41.1094V41.6123H34.0469V40.875H36.4834V40.7529C36.4704 40.4795 36.4329 40.2386 36.3711 40.0303C36.3125 39.8219 36.2148 39.6592 36.0781 39.542C35.9414 39.4215 35.7477 39.3613 35.4971 39.3613C35.3376 39.3613 35.1895 39.389 35.0527 39.4443C34.9193 39.4964 34.8037 39.5892 34.7061 39.7227C34.6117 39.8529 34.5368 40.0335 34.4814 40.2646C34.4294 40.4958 34.4033 40.7887 34.4033 41.1436V41.7393C34.4033 42.0225 34.4294 42.2666 34.4814 42.4717C34.5368 42.6735 34.6165 42.8411 34.7207 42.9746C34.8281 43.1048 34.9583 43.2025 35.1113 43.2676C35.2676 43.3294 35.445 43.3604 35.6436 43.3604C35.9333 43.3604 36.1725 43.305 36.3613 43.1943C36.5501 43.0804 36.7145 42.9355 36.8545 42.7598L37.3086 43.3018C37.2142 43.4352 37.0905 43.5638 36.9375 43.6875C36.7878 43.8079 36.6022 43.9072 36.3809 43.9854C36.1628 44.0602 35.9007 44.0977 35.5947 44.0977ZM41.5518 39.7324V46.0312H40.6875V38.7168H41.4736L41.5518 39.7324ZM44.5059 41.1191V41.6123C44.5059 42.029 44.4668 42.3936 44.3887 42.7061C44.3138 43.0153 44.2015 43.2741 44.0518 43.4824C43.9053 43.6875 43.7246 43.8421 43.5098 43.9463C43.2949 44.0472 43.0492 44.0977 42.7725 44.0977C42.4958 44.0977 42.2549 44.0456 42.0498 43.9414C41.848 43.834 41.6771 43.6794 41.5371 43.4775C41.4004 43.2757 41.2913 43.0332 41.21 42.75C41.1318 42.4635 41.0781 42.1429 41.0488 41.7881V41.0361C41.0781 40.6618 41.1318 40.3265 41.21 40.0303C41.2881 39.7308 41.3955 39.4769 41.5322 39.2686C41.6722 39.057 41.8431 38.8958 42.0449 38.7852C42.25 38.6745 42.4893 38.6191 42.7627 38.6191C43.0459 38.6191 43.2949 38.668 43.5098 38.7656C43.7279 38.8633 43.9102 39.0146 44.0566 39.2197C44.2064 39.4215 44.3187 39.6803 44.3936 39.9961C44.4684 40.3086 44.5059 40.6829 44.5059 41.1191ZM43.6416 41.6123V41.1191C43.6416 40.8262 43.6188 40.5706 43.5732 40.3525C43.5309 40.1344 43.4626 39.9538 43.3682 39.8105C43.2738 39.6673 43.1549 39.5599 43.0117 39.4883C42.8685 39.4167 42.696 39.3809 42.4941 39.3809C42.3216 39.3809 42.1686 39.4167 42.0352 39.4883C41.9049 39.5599 41.7926 39.6576 41.6982 39.7812C41.6038 39.9017 41.5257 40.04 41.4639 40.1963C41.402 40.3493 41.3564 40.5088 41.3271 40.6748V42.1543C41.3825 42.3626 41.4557 42.5596 41.5469 42.7451C41.638 42.9274 41.7601 43.0755 41.9131 43.1895C42.0693 43.3034 42.2663 43.3604 42.5039 43.3604C42.7025 43.3604 42.8734 43.3245 43.0166 43.2529C43.1598 43.1813 43.277 43.0739 43.3682 42.9307C43.4626 42.7842 43.5309 42.6019 43.5732 42.3838C43.6188 42.1624 43.6416 41.9053 43.6416 41.6123ZM46.5469 36.5V44H45.6875V36.5H46.5469ZM50.502 43.0967V40.2305C50.502 40.0221 50.4694 39.8545 50.4043 39.7275C50.3424 39.6006 50.248 39.5078 50.1211 39.4492C49.9974 39.3906 49.8411 39.3613 49.6523 39.3613C49.4701 39.3613 49.3122 39.3988 49.1787 39.4736C49.0485 39.5485 48.9476 39.6478 48.876 39.7715C48.8076 39.8952 48.7734 40.0319 48.7734 40.1816H47.9092C47.9092 39.9928 47.9499 39.8057 48.0312 39.6201C48.1159 39.4346 48.2363 39.2669 48.3926 39.1172C48.5488 38.9642 48.736 38.8437 48.9541 38.7559C49.1755 38.6647 49.4229 38.6191 49.6963 38.6191C50.0218 38.6191 50.3099 38.6729 50.5605 38.7803C50.8112 38.8844 51.0081 39.0553 51.1514 39.293C51.2946 39.5306 51.3662 39.8464 51.3662 40.2402V42.8477C51.3662 43.0234 51.3792 43.2106 51.4053 43.4092C51.4346 43.6077 51.4753 43.7786 51.5273 43.9219V44H50.6338C50.5915 43.8958 50.5589 43.7575 50.5361 43.585C50.5133 43.4092 50.502 43.2464 50.502 43.0967ZM50.6387 40.7969L50.6484 41.4316H50.0479C49.8428 41.4316 49.6556 41.4544 49.4863 41.5C49.3203 41.5456 49.1771 41.6123 49.0566 41.7002C48.9362 41.7848 48.8434 41.8906 48.7783 42.0176C48.7165 42.1445 48.6855 42.2894 48.6855 42.4521C48.6855 42.6637 48.7148 42.833 48.7734 42.96C48.832 43.0837 48.9199 43.1732 49.0371 43.2285C49.1543 43.2839 49.3024 43.3115 49.4814 43.3115C49.6995 43.3115 49.8916 43.2611 50.0576 43.1602C50.2236 43.0592 50.3522 42.9372 50.4434 42.7939C50.5378 42.6507 50.5817 42.5173 50.5752 42.3936L50.7656 42.7988C50.7526 42.9258 50.7103 43.0641 50.6387 43.2139C50.5703 43.3604 50.4743 43.502 50.3506 43.6387C50.2269 43.7721 50.0804 43.8828 49.9111 43.9707C49.7451 44.0553 49.5579 44.0977 49.3496 44.0977C49.0436 44.0977 48.7751 44.0391 48.5439 43.9219C48.3161 43.8047 48.1387 43.6322 48.0117 43.4043C47.8848 43.1764 47.8213 42.8949 47.8213 42.5596C47.8213 42.3057 47.8652 42.0713 47.9531 41.8564C48.041 41.6416 48.1712 41.4561 48.3438 41.2998C48.5163 41.1403 48.7327 41.0166 48.9932 40.9287C49.2568 40.8408 49.5612 40.7969 49.9062 40.7969H50.6387ZM54.6377 38.7168V39.4102H52.1719V38.7168H54.6377ZM52.9775 37.4326H53.8418V42.6914C53.8418 42.8704 53.863 43.0055 53.9053 43.0967C53.9508 43.1878 54.0078 43.248 54.0762 43.2773C54.1445 43.3066 54.2178 43.3213 54.2959 43.3213C54.3545 43.3213 54.4196 43.3148 54.4912 43.3018C54.5628 43.2855 54.6117 43.2725 54.6377 43.2627L54.6328 44C54.5742 44.0228 54.4961 44.0439 54.3984 44.0635C54.3008 44.0863 54.1771 44.0977 54.0273 44.0977C53.8418 44.0977 53.6693 44.0537 53.5098 43.9658C53.3503 43.8779 53.2217 43.7314 53.124 43.5264C53.0264 43.318 52.9775 43.0381 52.9775 42.6865V37.4326ZM57.5576 44.0977C57.2419 44.0977 56.957 44.0505 56.7031 43.9561C56.4492 43.8617 56.2327 43.7184 56.0537 43.5264C55.8747 43.3311 55.738 43.0853 55.6436 42.7891C55.5492 42.4928 55.502 42.1429 55.502 41.7393V41.1436C55.502 40.6781 55.5557 40.2842 55.6631 39.9619C55.7738 39.6396 55.9219 39.3809 56.1074 39.1855C56.293 38.987 56.5029 38.8437 56.7373 38.7559C56.9717 38.6647 57.2126 38.6191 57.46 38.6191C57.792 38.6191 58.0752 38.6729 58.3096 38.7803C58.5439 38.8877 58.7344 39.0472 58.8809 39.2588C59.0273 39.4704 59.1348 39.7308 59.2031 40.04C59.2747 40.3493 59.3105 40.7057 59.3105 41.1094V41.6123H56.0098V40.875H58.4463V40.7529C58.4333 40.4795 58.3958 40.2386 58.334 40.0303C58.2754 39.8219 58.1777 39.6592 58.041 39.542C57.9043 39.4215 57.7106 39.3613 57.46 39.3613C57.3005 39.3613 57.1523 39.389 57.0156 39.4443C56.8822 39.4964 56.7666 39.5892 56.6689 39.7227C56.5745 39.8529 56.4997 40.0335 56.4443 40.2646C56.3923 40.4958 56.3662 40.7887 56.3662 41.1436V41.7393C56.3662 42.0225 56.3923 42.2666 56.4443 42.4717C56.4997 42.6735 56.5794 42.8411 56.6836 42.9746C56.791 43.1048 56.9212 43.2025 57.0742 43.2676C57.2305 43.3294 57.4079 43.3604 57.6064 43.3604C57.8962 43.3604 58.1354 43.305 58.3242 43.1943C58.513 43.0804 58.6774 42.9355 58.8174 42.7598L59.2715 43.3018C59.1771 43.4352 59.0534 43.5638 58.9004 43.6875C58.7507 43.8079 58.5651 43.9072 58.3438 43.9854C58.1257 44.0602 57.8636 44.0977 57.5576 44.0977ZM20.0771 50.8447V55H19.2129V49.7168H20.0283L20.0771 50.8447ZM19.8672 52.1582L19.5156 52.1436C19.5124 51.7822 19.5531 51.4486 19.6377 51.1426C19.7256 50.8333 19.8493 50.5648 20.0088 50.3369C20.1715 50.109 20.3652 49.9333 20.5898 49.8096C20.8145 49.6826 21.0635 49.6191 21.3369 49.6191C21.5518 49.6191 21.7471 49.6549 21.9229 49.7266C22.0986 49.7949 22.2484 49.9056 22.3721 50.0586C22.4958 50.2116 22.5902 50.4102 22.6553 50.6543C22.7236 50.8952 22.7578 51.1898 22.7578 51.5381V55H21.8936V51.5283C21.8936 51.2516 21.8626 51.0303 21.8008 50.8643C21.7422 50.695 21.651 50.5729 21.5273 50.498C21.4069 50.4199 21.2539 50.3809 21.0684 50.3809C20.8991 50.3809 20.7412 50.4281 20.5947 50.5225C20.4482 50.6169 20.3197 50.7471 20.209 50.9131C20.1016 51.0791 20.0169 51.2695 19.9551 51.4844C19.8965 51.696 19.8672 51.9206 19.8672 52.1582ZM26.7275 53.7793V49.7168H27.5918V55H26.7715L26.7275 53.7793ZM26.8887 52.666L27.2305 52.6562C27.2305 53.0078 27.1995 53.3333 27.1377 53.6328C27.0791 53.929 26.9814 54.1862 26.8447 54.4043C26.7113 54.6224 26.5339 54.7933 26.3125 54.917C26.0911 55.0374 25.8193 55.0977 25.4971 55.0977C25.279 55.0977 25.0804 55.0602 24.9014 54.9854C24.7256 54.9105 24.5726 54.7949 24.4424 54.6387C24.3154 54.4824 24.2161 54.279 24.1445 54.0283C24.0762 53.7777 24.042 53.4766 24.042 53.125V49.7168H24.9014V53.1348C24.9014 53.3724 24.9225 53.5693 24.9648 53.7256C25.0072 53.8786 25.0641 54.0007 25.1357 54.0918C25.2074 54.1797 25.2871 54.2415 25.375 54.2773C25.4629 54.3132 25.5524 54.3311 25.6436 54.3311C25.9495 54.3311 26.1937 54.2578 26.376 54.1113C26.5583 53.9616 26.6885 53.7614 26.7666 53.5107C26.848 53.2568 26.8887 52.9753 26.8887 52.666ZM29.7549 50.7666V55H28.8955V49.7168H29.7061L29.7549 50.7666ZM29.5791 52.1582L29.1787 52.1436C29.1755 51.7822 29.2113 51.4486 29.2861 51.1426C29.361 50.8333 29.4733 50.5648 29.623 50.3369C29.776 50.109 29.9665 49.9333 30.1943 49.8096C30.4255 49.6826 30.694 49.6191 31 49.6191C31.2018 49.6191 31.389 49.6549 31.5615 49.7266C31.7373 49.7949 31.8903 49.904 32.0205 50.0537C32.1507 50.2035 32.2516 50.3955 32.3232 50.6299C32.3981 50.8643 32.4355 51.1475 32.4355 51.4795V55H31.5713V51.5234C31.5713 51.2467 31.5339 51.0254 31.459 50.8594C31.3874 50.6934 31.2848 50.5729 31.1514 50.498C31.0179 50.4199 30.8584 50.3809 30.6729 50.3809C30.4613 50.3809 30.2839 50.4281 30.1406 50.5225C30.0007 50.6169 29.8883 50.7471 29.8037 50.9131C29.7223 51.0791 29.6637 51.2695 29.6279 51.4844C29.5954 51.696 29.5791 51.9206 29.5791 52.1582ZM32.4258 51.6602L31.8496 51.8457C31.8464 51.556 31.8822 51.2777 31.957 51.0107C32.0319 50.7438 32.1426 50.5062 32.2891 50.2979C32.4388 50.0895 32.6243 49.9251 32.8457 49.8047C33.0671 49.681 33.3242 49.6191 33.6172 49.6191C33.8581 49.6191 34.0713 49.6566 34.2568 49.7314C34.4424 49.8063 34.5986 49.9219 34.7256 50.0781C34.8558 50.2311 34.9535 50.4281 35.0186 50.6689C35.0837 50.9098 35.1162 51.1963 35.1162 51.5283V55H34.252V51.5186C34.252 51.2223 34.2145 50.9928 34.1396 50.8301C34.068 50.6641 33.9655 50.5485 33.832 50.4834C33.6986 50.415 33.5391 50.3809 33.3535 50.3809C33.2038 50.3809 33.0703 50.415 32.9531 50.4834C32.8392 50.5518 32.7432 50.6462 32.665 50.7666C32.5869 50.8838 32.5267 51.0189 32.4844 51.1719C32.4453 51.3249 32.4258 51.4876 32.4258 51.6602ZM36.4199 47.5H37.2842V53.9746L37.2109 55H36.4199V47.5ZM40.248 52.1191V52.6123C40.248 53.029 40.209 53.3936 40.1309 53.7061C40.056 54.0153 39.9437 54.2741 39.7939 54.4824C39.6442 54.6875 39.4619 54.8421 39.2471 54.9463C39.0322 55.0472 38.7865 55.0977 38.5098 55.0977C38.2363 55.0977 38.0003 55.0423 37.8018 54.9316C37.6032 54.821 37.4372 54.6615 37.3037 54.4531C37.1702 54.2448 37.0645 53.9925 36.9863 53.6963C36.9115 53.4001 36.8594 53.0664 36.8301 52.6953V52.0361C36.8594 51.6618 36.9115 51.3265 36.9863 51.0303C37.0612 50.7308 37.1654 50.4769 37.2988 50.2686C37.4323 50.057 37.5983 49.8958 37.7969 49.7852C37.9954 49.6745 38.2314 49.6191 38.5049 49.6191C38.7848 49.6191 39.0322 49.668 39.2471 49.7656C39.4652 49.8633 39.6475 50.0146 39.7939 50.2197C39.9437 50.4215 40.056 50.6803 40.1309 50.9961C40.209 51.3086 40.248 51.6829 40.248 52.1191ZM39.3838 52.6123V52.1191C39.3838 51.8262 39.3643 51.5706 39.3252 51.3525C39.2894 51.1344 39.2292 50.9538 39.1445 50.8105C39.0599 50.6673 38.946 50.5599 38.8027 50.4883C38.6628 50.4167 38.4886 50.3809 38.2803 50.3809C38.1045 50.3809 37.9499 50.4167 37.8164 50.4883C37.6862 50.5599 37.5739 50.6576 37.4795 50.7812C37.3851 50.9017 37.307 51.04 37.2451 51.1963C37.1833 51.3493 37.1377 51.5088 37.1084 51.6748V53.0615C37.1507 53.2731 37.2174 53.4766 37.3086 53.6719C37.403 53.8639 37.5299 54.0218 37.6895 54.1455C37.849 54.2692 38.0475 54.3311 38.2852 54.3311C38.4837 54.3311 38.6514 54.2969 38.7881 54.2285C38.9281 54.1602 39.042 54.056 39.1299 53.916C39.2178 53.7728 39.2812 53.5937 39.3203 53.3789C39.3626 53.1608 39.3838 52.9053 39.3838 52.6123ZM43.2412 55.0977C42.9255 55.0977 42.6406 55.0505 42.3867 54.9561C42.1328 54.8617 41.9163 54.7184 41.7373 54.5264C41.5583 54.3311 41.4215 54.0853 41.3271 53.7891C41.2327 53.4928 41.1855 53.1429 41.1855 52.7393V52.1436C41.1855 51.6781 41.2393 51.2842 41.3467 50.9619C41.4574 50.6396 41.6055 50.3809 41.791 50.1855C41.9766 49.987 42.1865 49.8437 42.4209 49.7559C42.6553 49.6647 42.8962 49.6191 43.1436 49.6191C43.4756 49.6191 43.7588 49.6729 43.9932 49.7803C44.2275 49.8877 44.418 50.0472 44.5645 50.2588C44.7109 50.4704 44.8184 50.7308 44.8867 51.04C44.9583 51.3493 44.9941 51.7057 44.9941 52.1094V52.6123H41.6934V51.875H44.1299V51.7529C44.1169 51.4795 44.0794 51.2386 44.0176 51.0303C43.959 50.8219 43.8613 50.6592 43.7246 50.542C43.5879 50.4215 43.3942 50.3613 43.1436 50.3613C42.984 50.3613 42.8359 50.389 42.6992 50.4443C42.5658 50.4964 42.4502 50.5892 42.3525 50.7227C42.2581 50.8529 42.1833 51.0335 42.1279 51.2646C42.0758 51.4958 42.0498 51.7887 42.0498 52.1436V52.7393C42.0498 53.0225 42.0758 53.2666 42.1279 53.4717C42.1833 53.6735 42.263 53.8411 42.3672 53.9746C42.4746 54.1048 42.6048 54.2025 42.7578 54.2676C42.9141 54.3294 43.0915 54.3604 43.29 54.3604C43.5798 54.3604 43.819 54.305 44.0078 54.1943C44.1966 54.0804 44.361 53.9355 44.501 53.7598L44.9551 54.3018C44.8607 54.4352 44.737 54.5638 44.584 54.6875C44.4342 54.8079 44.2487 54.9072 44.0273 54.9854C43.8092 55.0602 43.5472 55.0977 43.2412 55.0977ZM46.9033 50.5469V55H46.0391V49.7168H46.874L46.9033 50.5469ZM48.2168 49.6875L48.2217 50.5273C48.1501 50.5111 48.085 50.5013 48.0264 50.498C47.971 50.4915 47.9059 50.4883 47.8311 50.4883C47.6683 50.4883 47.5251 50.5208 47.4014 50.5859C47.2809 50.651 47.1768 50.7422 47.0889 50.8594C47.001 50.9766 46.931 51.1165 46.8789 51.2793C46.8268 51.4388 46.791 51.6146 46.7715 51.8066L46.5469 51.9531C46.5469 51.6341 46.5713 51.3346 46.6201 51.0547C46.6722 50.7747 46.752 50.5273 46.8594 50.3125C46.9668 50.0944 47.1035 49.9251 47.2695 49.8047C47.4388 49.681 47.6406 49.6191 47.875 49.6191C47.9271 49.6191 47.9906 49.6273 48.0654 49.6436C48.1436 49.6566 48.194 49.6712 48.2168 49.6875Z" fill="url(#paint0_linear_363_1676)"/>
<path d="M116.213 44.6748H114.768L114.758 43.918H116.101C116.302 43.918 116.481 43.8724 116.638 43.7812C116.794 43.6901 116.916 43.5599 117.004 43.3906C117.095 43.2181 117.141 43.013 117.141 42.7754C117.141 42.515 117.102 42.3034 117.023 42.1406C116.949 41.9746 116.833 41.8542 116.677 41.7793C116.524 41.7012 116.328 41.6621 116.091 41.6621H114.958V48H114.06V40.8906H116.091C116.397 40.8906 116.67 40.9281 116.911 41.0029C117.152 41.0745 117.355 41.1885 117.521 41.3447C117.691 41.4977 117.819 41.693 117.907 41.9307C117.995 42.1683 118.039 42.4531 118.039 42.7852C118.039 43.0781 117.972 43.3434 117.839 43.5811C117.709 43.8154 117.526 44.0075 117.292 44.1572C117.058 44.307 116.787 44.403 116.481 44.4453L116.213 44.6748ZM116.179 48H114.396L114.919 47.2334H116.179C116.413 47.2334 116.612 47.1813 116.774 47.0771C116.937 46.973 117.061 46.8265 117.146 46.6377C117.233 46.4456 117.277 46.2194 117.277 45.959C117.277 45.6953 117.242 45.4674 117.17 45.2754C117.098 45.0833 116.984 44.9352 116.828 44.8311C116.672 44.7269 116.467 44.6748 116.213 44.6748H115.056L115.065 43.918H116.628L116.828 44.1914C117.121 44.2207 117.367 44.3184 117.565 44.4844C117.767 44.6471 117.919 44.8555 118.02 45.1094C118.124 45.3633 118.176 45.6432 118.176 45.9492C118.176 46.3919 118.093 46.7663 117.927 47.0723C117.764 47.375 117.533 47.6061 117.233 47.7656C116.934 47.9219 116.582 48 116.179 48ZM120.329 42.7168V48H119.47V42.7168H120.329ZM119.421 41.3154C119.421 41.1689 119.462 41.0452 119.543 40.9443C119.624 40.8434 119.746 40.793 119.909 40.793C120.072 40.793 120.194 40.8434 120.275 40.9443C120.36 41.0452 120.402 41.1689 120.402 41.3154C120.402 41.4554 120.36 41.5758 120.275 41.6768C120.194 41.7744 120.072 41.8232 119.909 41.8232C119.746 41.8232 119.624 41.7744 119.543 41.6768C119.462 41.5758 119.421 41.4554 119.421 41.3154ZM122.624 40.5V48H121.765V40.5H122.624ZM124.919 40.5V48H124.06V40.5H124.919ZM127.214 42.7168V48H126.354V42.7168H127.214ZM126.306 41.3154C126.306 41.1689 126.346 41.0452 126.428 40.9443C126.509 40.8434 126.631 40.793 126.794 40.793C126.957 40.793 127.079 40.8434 127.16 40.9443C127.245 41.0452 127.287 41.1689 127.287 41.3154C127.287 41.4554 127.245 41.5758 127.16 41.6768C127.079 41.7744 126.957 41.8232 126.794 41.8232C126.631 41.8232 126.509 41.7744 126.428 41.6768C126.346 41.5758 126.306 41.4554 126.306 41.3154ZM129.445 43.8447V48H128.581V42.7168H129.396L129.445 43.8447ZM129.235 45.1582L128.884 45.1436C128.881 44.7822 128.921 44.4486 129.006 44.1426C129.094 43.8333 129.217 43.5648 129.377 43.3369C129.54 43.109 129.733 42.9333 129.958 42.8096C130.183 42.6826 130.432 42.6191 130.705 42.6191C130.92 42.6191 131.115 42.6549 131.291 42.7266C131.467 42.7949 131.617 42.9056 131.74 43.0586C131.864 43.2116 131.958 43.4102 132.023 43.6543C132.092 43.8952 132.126 44.1898 132.126 44.5381V48H131.262V44.5283C131.262 44.2516 131.231 44.0303 131.169 43.8643C131.11 43.695 131.019 43.5729 130.896 43.498C130.775 43.4199 130.622 43.3809 130.437 43.3809C130.267 43.3809 130.109 43.4281 129.963 43.5225C129.816 43.6169 129.688 43.7471 129.577 43.9131C129.47 44.0791 129.385 44.2695 129.323 44.4844C129.265 44.696 129.235 44.9206 129.235 45.1582ZM136.286 42.7168H137.062V48.0439C137.062 48.5094 136.981 48.8936 136.818 49.1963C136.659 49.499 136.436 49.722 136.149 49.8652C135.863 50.0117 135.533 50.085 135.158 50.085C135.025 50.085 134.857 50.0605 134.655 50.0117C134.453 49.9629 134.252 49.888 134.05 49.7871C133.848 49.6895 133.682 49.5658 133.552 49.416L133.908 48.8154C134.094 49.0042 134.291 49.1393 134.499 49.2207C134.707 49.3021 134.906 49.3428 135.095 49.3428C135.319 49.3428 135.515 49.3021 135.681 49.2207C135.847 49.1393 135.975 49.0059 136.066 48.8203C136.158 48.638 136.203 48.3939 136.203 48.0879V43.8789L136.286 42.7168ZM133.249 45.6123V45.1191C133.249 44.6829 133.29 44.3086 133.371 43.9961C133.452 43.6803 133.57 43.4215 133.723 43.2197C133.879 43.0146 134.066 42.8633 134.284 42.7656C134.502 42.668 134.746 42.6191 135.017 42.6191C135.29 42.6191 135.526 42.6745 135.725 42.7852C135.923 42.8958 136.088 43.057 136.218 43.2686C136.351 43.4769 136.455 43.7308 136.53 44.0303C136.608 44.3265 136.662 44.6618 136.691 45.0361V45.6953C136.662 46.0664 136.608 46.4001 136.53 46.6963C136.455 46.9925 136.35 47.2448 136.213 47.4531C136.079 47.6615 135.913 47.821 135.715 47.9316C135.516 48.0423 135.28 48.0977 135.007 48.0977C134.74 48.0977 134.499 48.0472 134.284 47.9463C134.069 47.8421 133.884 47.6875 133.728 47.4824C133.575 47.2741 133.456 47.0153 133.371 46.7061C133.29 46.3936 133.249 46.029 133.249 45.6123ZM134.113 45.1191V45.6123C134.113 45.9053 134.134 46.1608 134.177 46.3789C134.219 46.5938 134.284 46.7728 134.372 46.916C134.463 47.056 134.579 47.1602 134.719 47.2285C134.862 47.2969 135.033 47.3311 135.231 47.3311C135.472 47.3311 135.669 47.2725 135.822 47.1553C135.975 47.0381 136.097 46.8835 136.188 46.6914C136.283 46.4961 136.358 46.2861 136.413 46.0615V44.6748C136.381 44.5088 136.333 44.3493 136.271 44.1963C136.213 44.04 136.136 43.9017 136.042 43.7812C135.948 43.6576 135.834 43.5599 135.7 43.4883C135.57 43.4167 135.417 43.3809 135.241 43.3809C135.043 43.3809 134.872 43.4167 134.729 43.4883C134.585 43.5599 134.468 43.6673 134.377 43.8105C134.286 43.9538 134.219 44.1344 134.177 44.3525C134.134 44.5706 134.113 44.8262 134.113 45.1191Z" fill="#E0E0E9"/>
<path d="M196.793 41.9209L198.502 35.8906H199.479L197.271 43H196.583L196.793 41.9209ZM195.26 35.8906L196.954 41.9209L197.179 43H196.49L194.283 35.8906H195.26ZM202.003 43.0977C201.687 43.0977 201.402 43.0505 201.148 42.9561C200.895 42.8617 200.678 42.7184 200.499 42.5264C200.32 42.3311 200.183 42.0853 200.089 41.7891C199.994 41.4928 199.947 41.1429 199.947 40.7393V40.1436C199.947 39.6781 200.001 39.2842 200.108 38.9619C200.219 38.6396 200.367 38.3809 200.553 38.1855C200.738 37.987 200.948 37.8438 201.183 37.7559C201.417 37.6647 201.658 37.6191 201.905 37.6191C202.237 37.6191 202.521 37.6729 202.755 37.7803C202.989 37.8877 203.18 38.0472 203.326 38.2588C203.473 38.4704 203.58 38.7308 203.648 39.04C203.72 39.3493 203.756 39.7057 203.756 40.1094V40.6123H200.455V39.875H202.892V39.7529C202.879 39.4795 202.841 39.2386 202.779 39.0303C202.721 38.8219 202.623 38.6592 202.486 38.542C202.35 38.4215 202.156 38.3613 201.905 38.3613C201.746 38.3613 201.598 38.389 201.461 38.4443C201.327 38.4964 201.212 38.5892 201.114 38.7227C201.02 38.8529 200.945 39.0335 200.89 39.2646C200.838 39.4958 200.812 39.7887 200.812 40.1436V40.7393C200.812 41.0225 200.838 41.2666 200.89 41.4717C200.945 41.6735 201.025 41.8411 201.129 41.9746C201.236 42.1048 201.367 42.2025 201.52 42.2676C201.676 42.3294 201.853 42.3604 202.052 42.3604C202.341 42.3604 202.581 42.305 202.77 42.1943C202.958 42.0804 203.123 41.9355 203.263 41.7598L203.717 42.3018C203.622 42.4352 203.499 42.5638 203.346 42.6875C203.196 42.8079 203.01 42.9072 202.789 42.9854C202.571 43.0602 202.309 43.0977 202.003 43.0977ZM205.665 38.5469V43H204.801V37.7168H205.636L205.665 38.5469ZM206.979 37.6875L206.983 38.5273C206.912 38.5111 206.847 38.5013 206.788 38.498C206.733 38.4915 206.668 38.4883 206.593 38.4883C206.43 38.4883 206.287 38.5208 206.163 38.5859C206.043 38.651 205.938 38.7422 205.851 38.8594C205.763 38.9766 205.693 39.1165 205.641 39.2793C205.589 39.4388 205.553 39.6146 205.533 39.8066L205.309 39.9531C205.309 39.6341 205.333 39.3346 205.382 39.0547C205.434 38.7747 205.514 38.5273 205.621 38.3125C205.729 38.0944 205.865 37.9251 206.031 37.8047C206.201 37.681 206.402 37.6191 206.637 37.6191C206.689 37.6191 206.752 37.6273 206.827 37.6436C206.905 37.6566 206.956 37.6712 206.979 37.6875ZM208.775 37.7168V43H207.916V37.7168H208.775ZM207.867 36.3154C207.867 36.1689 207.908 36.0452 207.989 35.9443C208.071 35.8434 208.193 35.793 208.355 35.793C208.518 35.793 208.64 35.8434 208.722 35.9443C208.806 36.0452 208.849 36.1689 208.849 36.3154C208.849 36.4554 208.806 36.5758 208.722 36.6768C208.64 36.7744 208.518 36.8232 208.355 36.8232C208.193 36.8232 208.071 36.7744 207.989 36.6768C207.908 36.5758 207.867 36.4554 207.867 36.3154ZM211.246 43H210.382V37.2578C210.382 36.8574 210.449 36.5189 210.582 36.2422C210.719 35.9655 210.912 35.7555 211.163 35.6123C211.417 35.4691 211.716 35.3975 212.062 35.3975C212.267 35.3975 212.464 35.4268 212.652 35.4854C212.841 35.5407 213.036 35.6107 213.238 35.6953L213.092 36.457C212.975 36.3984 212.831 36.3431 212.662 36.291C212.493 36.2357 212.315 36.208 212.13 36.208C211.804 36.208 211.575 36.2959 211.441 36.4717C211.311 36.6442 211.246 36.9062 211.246 37.2578V43ZM212.101 37.7168V38.4102H209.693V37.7168H212.101ZM213.653 37.7168V43H212.789V37.7168H213.653ZM216.876 42.3604C217.049 42.3604 217.205 42.3262 217.345 42.2578C217.488 42.1862 217.605 42.0755 217.696 41.9258C217.787 41.7728 217.84 41.5742 217.853 41.3301H218.663C218.65 41.6816 218.561 41.9909 218.395 42.2578C218.232 42.5215 218.017 42.7282 217.75 42.8779C217.486 43.0244 217.195 43.0977 216.876 43.0977C216.534 43.0977 216.236 43.0423 215.982 42.9316C215.732 42.821 215.523 42.6615 215.357 42.4531C215.195 42.2415 215.073 41.986 214.991 41.6865C214.91 41.3838 214.869 41.0404 214.869 40.6562V40.0605C214.869 39.6764 214.91 39.3346 214.991 39.0352C215.073 38.7324 215.195 38.4769 215.357 38.2686C215.523 38.057 215.732 37.8958 215.982 37.7852C216.236 37.6745 216.534 37.6191 216.876 37.6191C217.234 37.6191 217.543 37.6956 217.804 37.8486C218.067 37.9984 218.272 38.2165 218.419 38.5029C218.569 38.7861 218.65 39.1296 218.663 39.5332H217.853C217.84 39.2728 217.792 39.0563 217.711 38.8838C217.63 38.708 217.519 38.5778 217.379 38.4932C217.239 38.4053 217.071 38.3613 216.876 38.3613C216.648 38.3613 216.459 38.402 216.31 38.4834C216.163 38.5615 216.048 38.6755 215.963 38.8252C215.878 38.9749 215.818 39.154 215.782 39.3623C215.75 39.5706 215.733 39.8034 215.733 40.0605V40.6562C215.733 40.9134 215.75 41.1478 215.782 41.3594C215.818 41.5677 215.877 41.7467 215.958 41.8965C216.043 42.0462 216.16 42.1618 216.31 42.2432C216.459 42.3213 216.648 42.3604 216.876 42.3604ZM222.252 42.0967V39.2305C222.252 39.0221 222.219 38.8545 222.154 38.7275C222.092 38.6006 221.998 38.5078 221.871 38.4492C221.747 38.3906 221.591 38.3613 221.402 38.3613C221.22 38.3613 221.062 38.3988 220.929 38.4736C220.799 38.5485 220.698 38.6478 220.626 38.7715C220.558 38.8952 220.523 39.0319 220.523 39.1816H219.659C219.659 38.9928 219.7 38.8057 219.781 38.6201C219.866 38.4346 219.986 38.2669 220.143 38.1172C220.299 37.9642 220.486 37.8437 220.704 37.7559C220.925 37.6647 221.173 37.6191 221.446 37.6191C221.772 37.6191 222.06 37.6729 222.311 37.7803C222.561 37.8844 222.758 38.0553 222.901 38.293C223.045 38.5306 223.116 38.8464 223.116 39.2402V41.8477C223.116 42.0234 223.129 42.2106 223.155 42.4092C223.185 42.6077 223.225 42.7786 223.277 42.9219V43H222.384C222.341 42.8958 222.309 42.7575 222.286 42.585C222.263 42.4092 222.252 42.2464 222.252 42.0967ZM222.389 39.7969L222.398 40.4316H221.798C221.593 40.4316 221.406 40.4544 221.236 40.5C221.07 40.5456 220.927 40.6123 220.807 40.7002C220.686 40.7848 220.593 40.8906 220.528 41.0176C220.466 41.1445 220.436 41.2894 220.436 41.4521C220.436 41.6637 220.465 41.833 220.523 41.96C220.582 42.0837 220.67 42.1732 220.787 42.2285C220.904 42.2839 221.052 42.3115 221.231 42.3115C221.45 42.3115 221.642 42.2611 221.808 42.1602C221.974 42.0592 222.102 41.9372 222.193 41.7939C222.288 41.6507 222.332 41.5173 222.325 41.3936L222.516 41.7988C222.503 41.9258 222.46 42.0641 222.389 42.2139C222.32 42.3604 222.224 42.502 222.101 42.6387C221.977 42.7721 221.83 42.8828 221.661 42.9707C221.495 43.0553 221.308 43.0977 221.1 43.0977C220.794 43.0977 220.525 43.0391 220.294 42.9219C220.066 42.8047 219.889 42.6322 219.762 42.4043C219.635 42.1764 219.571 41.8949 219.571 41.5596C219.571 41.3057 219.615 41.0713 219.703 40.8564C219.791 40.6416 219.921 40.4561 220.094 40.2998C220.266 40.1403 220.483 40.0166 220.743 39.9287C221.007 39.8408 221.311 39.7969 221.656 39.7969H222.389ZM226.388 37.7168V38.4102H223.922V37.7168H226.388ZM224.728 36.4326H225.592V41.6914C225.592 41.8704 225.613 42.0055 225.655 42.0967C225.701 42.1878 225.758 42.248 225.826 42.2773C225.895 42.3066 225.968 42.3213 226.046 42.3213C226.104 42.3213 226.17 42.3148 226.241 42.3018C226.313 42.2855 226.362 42.2725 226.388 42.2627L226.383 43C226.324 43.0228 226.246 43.0439 226.148 43.0635C226.051 43.0863 225.927 43.0977 225.777 43.0977C225.592 43.0977 225.419 43.0537 225.26 42.9658C225.1 42.8779 224.972 42.7314 224.874 42.5264C224.776 42.318 224.728 42.0381 224.728 41.6865V36.4326ZM228.346 37.7168V43H227.486V37.7168H228.346ZM227.438 36.3154C227.438 36.1689 227.478 36.0452 227.56 35.9443C227.641 35.8434 227.763 35.793 227.926 35.793C228.089 35.793 228.211 35.8434 228.292 35.9443C228.377 36.0452 228.419 36.1689 228.419 36.3154C228.419 36.4554 228.377 36.5758 228.292 36.6768C228.211 36.7744 228.089 36.8232 227.926 36.8232C227.763 36.8232 227.641 36.7744 227.56 36.6768C227.478 36.5758 227.438 36.4554 227.438 36.3154ZM229.532 40.6123V40.1094C229.532 39.6992 229.584 39.3395 229.688 39.0303C229.793 38.7178 229.938 38.4574 230.123 38.249C230.309 38.0407 230.525 37.8844 230.772 37.7803C231.02 37.6729 231.285 37.6191 231.568 37.6191C231.858 37.6191 232.127 37.6729 232.374 37.7803C232.621 37.8844 232.838 38.0407 233.023 38.249C233.212 38.4574 233.359 38.7178 233.463 39.0303C233.567 39.3395 233.619 39.6992 233.619 40.1094V40.6123C233.619 41.0225 233.567 41.3838 233.463 41.6963C233.359 42.0055 233.214 42.2643 233.028 42.4727C232.843 42.681 232.626 42.8372 232.379 42.9414C232.132 43.0456 231.865 43.0977 231.578 43.0977C231.292 43.0977 231.025 43.0456 230.777 42.9414C230.53 42.8372 230.312 42.681 230.123 42.4727C229.938 42.2643 229.793 42.0055 229.688 41.6963C229.584 41.3838 229.532 41.0225 229.532 40.6123ZM230.396 40.1094V40.6123C230.396 40.902 230.426 41.1559 230.484 41.374C230.543 41.5921 230.626 41.7744 230.733 41.9209C230.841 42.0674 230.966 42.1781 231.109 42.2529C231.253 42.3245 231.409 42.3604 231.578 42.3604C231.773 42.3604 231.944 42.3245 232.091 42.2529C232.241 42.1781 232.364 42.0674 232.462 41.9209C232.56 41.7744 232.633 41.5921 232.682 41.374C232.73 41.1559 232.755 40.902 232.755 40.6123V40.1094C232.755 39.8197 232.726 39.5674 232.667 39.3525C232.608 39.1344 232.525 38.9521 232.418 38.8057C232.311 38.6559 232.184 38.5452 232.037 38.4736C231.894 38.3988 231.738 38.3613 231.568 38.3613C231.402 38.3613 231.248 38.3988 231.104 38.4736C230.961 38.5452 230.836 38.6559 230.729 38.8057C230.624 38.9521 230.543 39.1344 230.484 39.3525C230.426 39.5674 230.396 39.8197 230.396 40.1094ZM235.597 38.8447V43H234.732V37.7168H235.548L235.597 38.8447ZM235.387 40.1582L235.035 40.1436C235.032 39.7822 235.073 39.4486 235.157 39.1426C235.245 38.8333 235.369 38.5648 235.528 38.3369C235.691 38.109 235.885 37.9333 236.109 37.8096C236.334 37.6826 236.583 37.6191 236.856 37.6191C237.071 37.6191 237.267 37.6549 237.442 37.7266C237.618 37.7949 237.768 37.9056 237.892 38.0586C238.015 38.2116 238.11 38.4102 238.175 38.6543C238.243 38.8952 238.277 39.1898 238.277 39.5381V43H237.413V39.5283C237.413 39.2516 237.382 39.0303 237.32 38.8643C237.262 38.695 237.171 38.5729 237.047 38.498C236.926 38.4199 236.773 38.3809 236.588 38.3809C236.419 38.3809 236.261 38.4281 236.114 38.5225C235.968 38.6169 235.839 38.7471 235.729 38.9131C235.621 39.0791 235.536 39.2695 235.475 39.4844C235.416 39.696 235.387 39.9206 235.387 40.1582ZM197.521 50.0547L198.395 49.2979C198.567 49.1579 198.696 49.0179 198.78 48.8779C198.865 48.7347 198.907 48.5394 198.907 48.292C198.907 48.0999 198.847 47.9258 198.727 47.7695C198.609 47.61 198.442 47.5303 198.224 47.5303C198.077 47.5303 197.953 47.5742 197.853 47.6621C197.752 47.75 197.675 47.8672 197.623 48.0137C197.574 48.1569 197.55 48.3148 197.55 48.4873C197.55 48.6338 197.581 48.7852 197.643 48.9414C197.708 49.0977 197.794 49.2604 197.901 49.4297C198.009 49.599 198.131 49.778 198.268 49.9668L201.065 54H200.035L197.774 50.6992C197.569 50.4128 197.384 50.1507 197.218 49.9131C197.055 49.6722 196.925 49.4395 196.827 49.2148C196.733 48.9902 196.686 48.7575 196.686 48.5166C196.686 48.1455 196.749 47.833 196.876 47.5791C197.006 47.3219 197.187 47.1266 197.418 46.9932C197.649 46.8597 197.919 46.793 198.229 46.793C198.531 46.793 198.792 46.863 199.01 47.0029C199.231 47.1396 199.402 47.3219 199.522 47.5498C199.643 47.7744 199.703 48.0218 199.703 48.292C199.703 48.5199 199.671 48.7249 199.605 48.9072C199.54 49.0863 199.446 49.2507 199.322 49.4004C199.202 49.5501 199.057 49.6966 198.888 49.8398L197.667 50.8896C197.485 51.0622 197.351 51.2266 197.267 51.3828C197.185 51.5391 197.133 51.6774 197.11 51.7979C197.091 51.9183 197.081 52.0143 197.081 52.0859C197.081 52.3171 197.12 52.5286 197.198 52.7207C197.28 52.9128 197.402 53.0674 197.564 53.1846C197.727 53.2985 197.932 53.3555 198.18 53.3555C198.398 53.3555 198.609 53.2936 198.814 53.1699C199.023 53.043 199.21 52.8639 199.376 52.6328C199.542 52.3984 199.674 52.1201 199.771 51.7979C199.872 51.4723 199.923 51.1126 199.923 50.7188H200.694C200.694 51.041 200.668 51.3454 200.616 51.6318C200.564 51.9183 200.481 52.1852 200.367 52.4326C200.257 52.6768 200.113 52.8997 199.938 53.1016C199.915 53.1309 199.895 53.165 199.879 53.2041C199.863 53.2432 199.843 53.2773 199.82 53.3066C199.615 53.5703 199.361 53.7689 199.059 53.9023C198.759 54.0326 198.466 54.0977 198.18 54.0977C197.776 54.0977 197.428 54.0114 197.135 53.8389C196.842 53.6663 196.616 53.4287 196.456 53.126C196.297 52.8232 196.217 52.4766 196.217 52.0859C196.217 51.7865 196.272 51.5228 196.383 51.2949C196.493 51.0671 196.646 50.8538 196.842 50.6553C197.04 50.4567 197.267 50.2565 197.521 50.0547ZM204.962 49.7324V56.0312H204.098V48.7168H204.884L204.962 49.7324ZM207.916 51.1191V51.6123C207.916 52.029 207.877 52.3936 207.799 52.7061C207.724 53.0153 207.612 53.2741 207.462 53.4824C207.315 53.6875 207.135 53.8421 206.92 53.9463C206.705 54.0472 206.459 54.0977 206.183 54.0977C205.906 54.0977 205.665 54.0456 205.46 53.9414C205.258 53.834 205.087 53.6794 204.947 53.4775C204.811 53.2757 204.701 53.0332 204.62 52.75C204.542 52.4635 204.488 52.1429 204.459 51.7881V51.0361C204.488 50.6618 204.542 50.3265 204.62 50.0303C204.698 49.7308 204.806 49.4769 204.942 49.2686C205.082 49.057 205.253 48.8958 205.455 48.7852C205.66 48.6745 205.899 48.6191 206.173 48.6191C206.456 48.6191 206.705 48.668 206.92 48.7656C207.138 48.8633 207.32 49.0146 207.467 49.2197C207.617 49.4215 207.729 49.6803 207.804 49.9961C207.879 50.3086 207.916 50.6829 207.916 51.1191ZM207.052 51.6123V51.1191C207.052 50.8262 207.029 50.5706 206.983 50.3525C206.941 50.1344 206.873 49.9538 206.778 49.8105C206.684 49.6673 206.565 49.5599 206.422 49.4883C206.279 49.4167 206.106 49.3809 205.904 49.3809C205.732 49.3809 205.579 49.4167 205.445 49.4883C205.315 49.5599 205.203 49.6576 205.108 49.7812C205.014 49.9017 204.936 50.04 204.874 50.1963C204.812 50.3493 204.767 50.5088 204.737 50.6748V52.1543C204.793 52.3626 204.866 52.5596 204.957 52.7451C205.048 52.9274 205.17 53.0755 205.323 53.1895C205.479 53.3034 205.676 53.3604 205.914 53.3604C206.113 53.3604 206.284 53.3245 206.427 53.2529C206.57 53.1813 206.687 53.0739 206.778 52.9307C206.873 52.7842 206.941 52.6019 206.983 52.3838C207.029 52.1624 207.052 51.9053 207.052 51.6123ZM211.617 53.0967V50.2305C211.617 50.0221 211.585 49.8545 211.52 49.7275C211.458 49.6006 211.363 49.5078 211.236 49.4492C211.113 49.3906 210.956 49.3613 210.768 49.3613C210.585 49.3613 210.427 49.3988 210.294 49.4736C210.164 49.5485 210.063 49.6478 209.991 49.7715C209.923 49.8952 209.889 50.0319 209.889 50.1816H209.024C209.024 49.9928 209.065 49.8057 209.146 49.6201C209.231 49.4346 209.352 49.2669 209.508 49.1172C209.664 48.9642 209.851 48.8438 210.069 48.7559C210.291 48.6647 210.538 48.6191 210.812 48.6191C211.137 48.6191 211.425 48.6729 211.676 48.7803C211.926 48.8844 212.123 49.0553 212.267 49.293C212.41 49.5306 212.481 49.8464 212.481 50.2402V52.8477C212.481 53.0234 212.494 53.2106 212.521 53.4092C212.55 53.6077 212.59 53.7786 212.643 53.9219V54H211.749C211.707 53.8958 211.674 53.7575 211.651 53.585C211.629 53.4092 211.617 53.2464 211.617 53.0967ZM211.754 50.7969L211.764 51.4316H211.163C210.958 51.4316 210.771 51.4544 210.602 51.5C210.436 51.5456 210.292 51.6123 210.172 51.7002C210.051 51.7848 209.959 51.8906 209.894 52.0176C209.832 52.1445 209.801 52.2894 209.801 52.4521C209.801 52.6637 209.83 52.833 209.889 52.96C209.947 53.0837 210.035 53.1732 210.152 53.2285C210.27 53.2839 210.418 53.3115 210.597 53.3115C210.815 53.3115 211.007 53.2611 211.173 53.1602C211.339 53.0592 211.467 52.9372 211.559 52.7939C211.653 52.6507 211.697 52.5173 211.69 52.3936L211.881 52.7988C211.868 52.9258 211.826 53.0641 211.754 53.2139C211.686 53.3604 211.59 53.502 211.466 53.6387C211.342 53.7721 211.196 53.8828 211.026 53.9707C210.86 54.0553 210.673 54.0977 210.465 54.0977C210.159 54.0977 209.89 54.0391 209.659 53.9219C209.431 53.8047 209.254 53.6322 209.127 53.4043C209 53.1764 208.937 52.8949 208.937 52.5596C208.937 52.3057 208.98 52.0713 209.068 51.8564C209.156 51.6416 209.286 51.4561 209.459 51.2998C209.632 51.1403 209.848 51.0166 210.108 50.9287C210.372 50.8408 210.676 50.7969 211.021 50.7969H211.754ZM214.972 53.4531L216.148 48.7168H217.066L215.323 54.8154C215.281 54.9456 215.224 55.0856 215.152 55.2354C215.084 55.3883 214.996 55.5332 214.889 55.6699C214.781 55.8066 214.653 55.9173 214.503 56.002C214.353 56.0898 214.177 56.1338 213.976 56.1338C213.914 56.1338 213.834 56.124 213.736 56.1045C213.642 56.085 213.574 56.0687 213.531 56.0557V55.3232C213.551 55.3265 213.582 55.3298 213.624 55.333C213.666 55.3395 213.697 55.3428 213.717 55.3428C213.886 55.3428 214.029 55.3151 214.146 55.2598C214.267 55.2077 214.369 55.1182 214.454 54.9912C214.539 54.8675 214.61 54.6966 214.669 54.4785L214.972 53.4531ZM214.21 48.7168L215.26 52.8184L215.484 53.7705L214.869 54.1025L213.268 48.7168H214.21ZM218.78 49.7666V54H217.921V48.7168H218.731L218.78 49.7666ZM218.604 51.1582L218.204 51.1436C218.201 50.7822 218.237 50.4486 218.312 50.1426C218.386 49.8333 218.499 49.5648 218.648 49.3369C218.801 49.109 218.992 48.9333 219.22 48.8096C219.451 48.6826 219.719 48.6191 220.025 48.6191C220.227 48.6191 220.414 48.6549 220.587 48.7266C220.763 48.7949 220.916 48.904 221.046 49.0537C221.176 49.2035 221.277 49.3955 221.349 49.6299C221.424 49.8643 221.461 50.1475 221.461 50.4795V54H220.597V50.5234C220.597 50.2467 220.559 50.0254 220.484 49.8594C220.413 49.6934 220.31 49.5729 220.177 49.498C220.043 49.4199 219.884 49.3809 219.698 49.3809C219.487 49.3809 219.309 49.4281 219.166 49.5225C219.026 49.6169 218.914 49.7471 218.829 49.9131C218.748 50.0791 218.689 50.2695 218.653 50.4844C218.621 50.696 218.604 50.9206 218.604 51.1582ZM221.451 50.6602L220.875 50.8457C220.872 50.556 220.908 50.2777 220.982 50.0107C221.057 49.7438 221.168 49.5062 221.314 49.2979C221.464 49.0895 221.65 48.9251 221.871 48.8047C222.092 48.681 222.35 48.6191 222.643 48.6191C222.883 48.6191 223.097 48.6566 223.282 48.7314C223.468 48.8063 223.624 48.9219 223.751 49.0781C223.881 49.2311 223.979 49.4281 224.044 49.6689C224.109 49.9098 224.142 50.1963 224.142 50.5283V54H223.277V50.5186C223.277 50.2223 223.24 49.9928 223.165 49.8301C223.093 49.6641 222.991 49.5485 222.857 49.4834C222.724 49.415 222.564 49.3809 222.379 49.3809C222.229 49.3809 222.096 49.415 221.979 49.4834C221.865 49.5518 221.769 49.6462 221.69 49.7666C221.612 49.8838 221.552 50.0189 221.51 50.1719C221.471 50.3249 221.451 50.4876 221.451 50.6602ZM227.335 54.0977C227.019 54.0977 226.734 54.0505 226.48 53.9561C226.227 53.8617 226.01 53.7184 225.831 53.5264C225.652 53.3311 225.515 53.0853 225.421 52.7891C225.326 52.4928 225.279 52.1429 225.279 51.7393V51.1436C225.279 50.6781 225.333 50.2842 225.44 49.9619C225.551 49.6396 225.699 49.3809 225.885 49.1855C226.07 48.987 226.28 48.8437 226.515 48.7559C226.749 48.6647 226.99 48.6191 227.237 48.6191C227.569 48.6191 227.853 48.6729 228.087 48.7803C228.321 48.8877 228.512 49.0472 228.658 49.2588C228.805 49.4704 228.912 49.7308 228.98 50.04C229.052 50.3493 229.088 50.7057 229.088 51.1094V51.6123L225.787 51.6123V50.875L228.224 50.875V50.7529C228.211 50.4795 228.173 50.2386 228.111 50.0303C228.053 49.8219 227.955 49.6592 227.818 49.542C227.682 49.4215 227.488 49.3613 227.237 49.3613C227.078 49.3613 226.93 49.389 226.793 49.4443C226.66 49.4964 226.544 49.5892 226.446 49.7227C226.352 49.8529 226.277 50.0335 226.222 50.2646C226.17 50.4958 226.144 50.7887 226.144 51.1436V51.7393C226.144 52.0225 226.17 52.2666 226.222 52.4717C226.277 52.6735 226.357 52.8411 226.461 52.9746C226.568 53.1048 226.699 53.2025 226.852 53.2676C227.008 53.3294 227.185 53.3604 227.384 53.3604C227.674 53.3604 227.913 53.305 228.102 53.1943C228.29 53.0804 228.455 52.9355 228.595 52.7598L229.049 53.3018C228.954 53.4352 228.831 53.5638 228.678 53.6875C228.528 53.8079 228.342 53.9072 228.121 53.9854C227.903 54.0602 227.641 54.0977 227.335 54.0977ZM230.997 49.8447V54H230.133V48.7168H230.948L230.997 49.8447ZM230.787 51.1582L230.436 51.1436C230.432 50.7822 230.473 50.4486 230.558 50.1426C230.646 49.8333 230.769 49.5648 230.929 49.3369C231.091 49.109 231.285 48.9333 231.51 48.8096C231.734 48.6826 231.983 48.6191 232.257 48.6191C232.472 48.6191 232.667 48.6549 232.843 48.7266C233.019 48.7949 233.168 48.9056 233.292 49.0586C233.416 49.2116 233.51 49.4102 233.575 49.6543C233.644 49.8952 233.678 50.1898 233.678 50.5381V54H232.813V50.5283C232.813 50.2516 232.783 50.0303 232.721 49.8643C232.662 49.695 232.571 49.5729 232.447 49.498C232.327 49.4199 232.174 49.3809 231.988 49.3809C231.819 49.3809 231.661 49.4281 231.515 49.5225C231.368 49.6169 231.24 49.7471 231.129 49.9131C231.021 50.0791 230.937 50.2695 230.875 50.4844C230.816 50.696 230.787 50.9206 230.787 51.1582ZM236.905 48.7168V49.4102H234.439V48.7168H236.905ZM235.245 47.4326H236.109V52.6914C236.109 52.8704 236.131 53.0055 236.173 53.0967C236.218 53.1878 236.275 53.248 236.344 53.2773C236.412 53.3066 236.485 53.3213 236.563 53.3213C236.622 53.3213 236.687 53.3148 236.759 53.3018C236.83 53.2855 236.879 53.2725 236.905 53.2627L236.9 54C236.842 54.0228 236.764 54.0439 236.666 54.0635C236.568 54.0863 236.445 54.0977 236.295 54.0977C236.109 54.0977 235.937 54.0537 235.777 53.9658C235.618 53.8779 235.489 53.7314 235.392 53.5264C235.294 53.318 235.245 53.0381 235.245 52.6865V47.4326Z" fill="#E0E0E9"/>
<path fill-rule="evenodd" clip-rule="evenodd" d="M205 16L138 16V14L205 14V16Z" fill="#D0CFD7"/>
<path fill-rule="evenodd" clip-rule="evenodd" d="M112 16L45 16V14L112 14V16Z" fill="#D0CFD7"/>
<path fill-rule="evenodd" clip-rule="evenodd" d="M19.7612 6.17317C19 8.01088 19 10.3406 19 15C19 19.6594 19 21.9891 19.7612 23.8268C20.7761 26.2771 22.7229 28.2239 25.1732 29.2388C27.0109 30 29.3406 30 34 30C38.6594 30 40.9891 30 42.8268 29.2388C45.2771 28.2239 47.2239 26.2771 48.2388 23.8268C49 21.9891 49 19.6594 49 15C49 10.3406 49 8.01088 48.2388 6.17317C47.2239 3.72288 45.2771 1.77614 42.8268 0.761205C40.9891 0 38.6594 0 34 0C29.3406 0 27.0109 0 25.1732 0.761205C22.7229 1.77614 20.7761 3.72288 19.7612 6.17317ZM40.7071 11.7071C41.0976 11.3166 41.0976 10.6834 40.7071 10.2929C40.3166 9.90237 39.6834 9.90237 39.2929 10.2929L32 17.5858L28.7071 14.2929C28.3166 13.9024 27.6834 13.9024 27.2929 14.2929C26.9024 14.6834 26.9024 15.3166 27.2929 15.7071L31.2929 19.7071C31.4804 19.8946 31.7348 20 32 20C32.2652 20 32.5196 19.8946 32.7071 19.7071L40.7071 11.7071Z" fill="url(#paint1_linear_363_1676)"/>
<path fill-rule="evenodd" clip-rule="evenodd" d="M201.761 6.17317C201 8.01088 201 10.3406 201 15C201 19.6594 201 21.9891 201.761 23.8268C202.776 26.2771 204.723 28.2239 207.173 29.2388C209.011 30 211.341 30 216 30C220.659 30 222.989 30 224.827 29.2388C227.277 28.2239 229.224 26.2771 230.239 23.8268C231 21.9891 231 19.6594 231 15C231 10.3406 231 8.01088 230.239 6.17317C229.224 3.72288 227.277 1.77614 224.827 0.761205C222.989 0 220.659 0 216 0C211.341 0 209.011 0 207.173 0.761205C204.723 1.77614 202.776 3.72288 201.761 6.17317ZM222.707 11.7071C223.098 11.3166 223.098 10.6834 222.707 10.2929C222.317 9.90237 221.683 9.90237 221.293 10.2929L214 17.5858L210.707 14.2929C210.317 13.9024 209.683 13.9024 209.293 14.2929C208.902 14.6834 208.902 15.3166 209.293 15.7071L213.293 19.7071C213.48 19.8946 213.735 20 214 20C214.265 20 214.52 19.8946 214.707 19.7071L222.707 11.7071Z" fill="#D0CFD7"/>
<path fill-rule="evenodd" clip-rule="evenodd" d="M110.761 6.17317C110 8.01088 110 10.3406 110 15C110 19.6594 110 21.9891 110.761 23.8268C111.776 26.2771 113.723 28.2239 116.173 29.2388C118.011 30 120.341 30 125 30C129.659 30 131.989 30 133.827 29.2388C136.277 28.2239 138.224 26.2771 139.239 23.8268C140 21.9891 140 19.6594 140 15C140 10.3406 140 8.01088 139.239 6.17317C138.224 3.72288 136.277 1.77614 133.827 0.761205C131.989 0 129.659 0 125 0C120.341 0 118.011 0 116.173 0.761205C113.723 1.77614 111.776 3.72288 110.761 6.17317ZM131.707 11.7071C132.098 11.3166 132.098 10.6834 131.707 10.2929C131.317 9.90237 130.683 9.90237 130.293 10.2929L123 17.5858L119.707 14.2929C119.317 13.9024 118.683 13.9024 118.293 14.2929C117.902 14.6834 117.902 15.3166 118.293 15.7071L122.293 19.7071C122.48 19.8946 122.735 20 123 20C123.265 20 123.52 19.8946 123.707 19.7071L131.707 11.7071Z" fill="#D0CFD7"/>
<defs>
<linearGradient id="paint0_linear_363_1676" x1="33.5" y1="57" x2="33.5" y2="35" gradientUnits="userSpaceOnUse">
<stop stop-color="#5CCC94"/>
<stop offset="1" stop-color="#8CCAAE"/>
</linearGradient>
<linearGradient id="paint1_linear_363_1676" x1="34" y1="30" x2="34" y2="1.58545e-07" gradientUnits="userSpaceOnUse">
<stop stop-color="#5CCC94"/>
<stop offset="1" stop-color="#8CCAAE"/>
</linearGradient>
</defs>
</svg>
