<svg width="240" height="68" viewBox="0 0 240 68" fill="none" xmlns="http://www.w3.org/2000/svg">
<path d="M13.2295 36.8906H15.2168C15.679 36.8906 16.0664 36.972 16.3789 37.1348C16.6947 37.2975 16.9323 37.5384 17.0918 37.8574C17.2546 38.1732 17.3359 38.5622 17.3359 39.0244C17.3359 39.3499 17.2822 39.6478 17.1748 39.918C17.0674 40.1849 16.9111 40.4128 16.7061 40.6016C16.501 40.7871 16.252 40.9255 15.959 41.0166L15.7148 41.1191H13.9424L13.9326 40.3525H15.207C15.4805 40.3525 15.7083 40.2939 15.8906 40.1768C16.0729 40.0563 16.2096 39.8952 16.3008 39.6934C16.3919 39.4915 16.4375 39.2686 16.4375 39.0244C16.4375 38.751 16.3968 38.5117 16.3154 38.3066C16.234 38.1016 16.1038 37.9437 15.9248 37.833C15.749 37.7191 15.513 37.6621 15.2168 37.6621H14.1279L14.1279 44H13.2295L13.2295 36.8906ZM16.6426 44L15.2266 40.7773L16.1592 40.7725L17.6045 43.9414V44H16.6426ZM20.3096 44.0977C19.9938 44.0977 19.709 44.0505 19.4551 43.9561C19.2012 43.8617 18.9847 43.7184 18.8057 43.5264C18.6266 43.3311 18.4899 43.0853 18.3955 42.7891C18.3011 42.4928 18.2539 42.1429 18.2539 41.7393V41.1436C18.2539 40.6781 18.3076 40.2842 18.415 39.9619C18.5257 39.6396 18.6738 39.3809 18.8594 39.1855C19.0449 38.987 19.2549 38.8438 19.4893 38.7559C19.7236 38.6647 19.9645 38.6191 20.2119 38.6191C20.5439 38.6191 20.8271 38.6729 21.0615 38.7803C21.2959 38.8877 21.4863 39.0472 21.6328 39.2588C21.7793 39.4704 21.8867 39.7308 21.9551 40.04C22.0267 40.3493 22.0625 40.7057 22.0625 41.1094V41.6123H18.7617V40.875H21.1982V40.7529C21.1852 40.4795 21.1478 40.2386 21.0859 40.0303C21.0273 39.8219 20.9297 39.6592 20.793 39.542C20.6562 39.4215 20.4626 39.3613 20.2119 39.3613C20.0524 39.3613 19.9043 39.389 19.7676 39.4443C19.6341 39.4964 19.5186 39.5892 19.4209 39.7227C19.3265 39.8529 19.2516 40.0335 19.1963 40.2646C19.1442 40.4958 19.1182 40.7887 19.1182 41.1436V41.7393C19.1182 42.0225 19.1442 42.2666 19.1963 42.4717C19.2516 42.6735 19.3314 42.8411 19.4355 42.9746C19.543 43.1048 19.6732 43.2025 19.8262 43.2676C19.9824 43.3294 20.1598 43.3604 20.3584 43.3604C20.6481 43.3604 20.8874 43.305 21.0762 43.1943C21.265 43.0804 21.4294 42.9355 21.5693 42.7598L22.0234 43.3018C21.929 43.4352 21.8053 43.5638 21.6523 43.6875C21.5026 43.8079 21.3171 43.9072 21.0957 43.9854C20.8776 44.0602 20.6156 44.0977 20.3096 44.0977ZM23.9717 39.8447V44H23.1074V38.7168L23.9229 38.7168L23.9717 39.8447ZM23.7617 41.1582L23.4102 41.1436C23.4069 40.7822 23.4476 40.4486 23.5322 40.1426C23.6201 39.8333 23.7438 39.5648 23.9033 39.3369C24.0661 39.109 24.2598 38.9333 24.4844 38.8096C24.709 38.6826 24.958 38.6191 25.2314 38.6191C25.4463 38.6191 25.6416 38.6549 25.8174 38.7266C25.9932 38.7949 26.1429 38.9056 26.2666 39.0586C26.3903 39.2116 26.4847 39.4102 26.5498 39.6543C26.6182 39.8952 26.6523 40.1898 26.6523 40.5381V44H25.7881V40.5283C25.7881 40.2516 25.7572 40.0303 25.6953 39.8643C25.6367 39.695 25.5456 39.5729 25.4219 39.498C25.3014 39.4199 25.1484 39.3809 24.9629 39.3809C24.7936 39.3809 24.6357 39.4281 24.4893 39.5225C24.3428 39.6169 24.2142 39.7471 24.1035 39.9131C23.9961 40.0791 23.9115 40.2695 23.8496 40.4844C23.791 40.696 23.7617 40.9206 23.7617 41.1582ZM30.7197 42.9746V36.5H31.5791V44H30.793L30.7197 42.9746ZM27.7656 41.6123V41.1191C27.7656 40.6829 27.8079 40.3086 27.8926 39.9961C27.9772 39.6803 28.0977 39.4215 28.2539 39.2197C28.4102 39.0146 28.5973 38.8633 28.8154 38.7656C29.0335 38.668 29.2744 38.6191 29.5381 38.6191C29.8115 38.6191 30.0459 38.6745 30.2412 38.7852C30.4398 38.8958 30.6058 39.057 30.7393 39.2686C30.8727 39.4769 30.9769 39.7308 31.0518 40.0303C31.1299 40.3265 31.182 40.6618 31.208 41.0361V41.6953C31.1787 42.0664 31.125 42.4001 31.0469 42.6963C30.972 42.9925 30.8678 43.2448 30.7344 43.4531C30.6009 43.6615 30.4349 43.821 30.2363 43.9316C30.0378 44.0423 29.8018 44.0977 29.5283 44.0977C29.2679 44.0977 29.0303 44.0472 28.8154 43.9463C28.6006 43.8421 28.4134 43.6875 28.2539 43.4824C28.0977 43.2741 27.9772 43.0153 27.8926 42.7061C27.8079 42.3936 27.7656 42.029 27.7656 41.6123ZM28.6299 41.1191V41.6123C28.6299 41.9053 28.651 42.1608 28.6934 42.3789C28.7357 42.5937 28.8024 42.7728 28.8936 42.916C28.9847 43.056 29.1003 43.1602 29.2402 43.2285C29.3835 43.2969 29.5544 43.3311 29.7529 43.3311C29.9938 43.3311 30.1908 43.2725 30.3438 43.1553C30.4967 43.0381 30.6188 42.8835 30.71 42.6914C30.8044 42.4961 30.8792 42.2861 30.9346 42.0615V40.6748C30.902 40.5088 30.8548 40.3493 30.793 40.1963C30.7311 40.04 30.653 39.9017 30.5586 39.7812C30.4674 39.6576 30.3551 39.5599 30.2217 39.4883C30.0915 39.4167 29.9385 39.3809 29.7627 39.3809C29.5641 39.3809 29.3916 39.4167 29.2451 39.4883C29.1019 39.5599 28.9847 39.6673 28.8936 39.8105C28.8057 39.9538 28.7389 40.1344 28.6934 40.3525C28.651 40.5706 28.6299 40.8262 28.6299 41.1191ZM35.4756 42.6475C35.4756 42.514 35.443 42.3968 35.3779 42.2959C35.3128 42.195 35.2054 42.0973 35.0557 42.0029C34.9092 41.9085 34.7106 41.8076 34.46 41.7002C34.2158 41.5993 33.9961 41.5 33.8008 41.4023C33.6087 41.3014 33.446 41.1924 33.3125 41.0752C33.179 40.958 33.0765 40.8229 33.0049 40.6699C32.9365 40.5137 32.9023 40.3298 32.9023 40.1182C32.9023 39.9066 32.9414 39.7113 33.0195 39.5322C33.1009 39.3499 33.2148 39.1904 33.3613 39.0537C33.5078 38.917 33.6836 38.8112 33.8887 38.7363C34.0938 38.6582 34.3232 38.6191 34.5771 38.6191C34.9385 38.6191 35.2461 38.6891 35.5 38.8291C35.7539 38.9691 35.9476 39.1611 36.0811 39.4053C36.2178 39.6462 36.2861 39.918 36.2861 40.2207H35.4268C35.4268 40.0742 35.3942 39.9359 35.3291 39.8057C35.264 39.6755 35.168 39.5697 35.041 39.4883C34.9141 39.4036 34.7594 39.3613 34.5771 39.3613C34.3851 39.3613 34.2288 39.3955 34.1084 39.4639C33.988 39.5322 33.9001 39.6217 33.8447 39.7324C33.7926 39.8398 33.7666 39.9587 33.7666 40.0889C33.7666 40.1865 33.7796 40.2712 33.8057 40.3428C33.835 40.4111 33.8838 40.4762 33.9521 40.5381C34.0205 40.5967 34.1133 40.6585 34.2305 40.7236C34.3509 40.7855 34.5039 40.8571 34.6895 40.9385C35.0475 41.0785 35.3486 41.2201 35.5928 41.3633C35.8369 41.5065 36.0225 41.6742 36.1494 41.8662C36.2764 42.0583 36.3398 42.2959 36.3398 42.5791C36.3398 42.8102 36.2975 43.0202 36.2129 43.209C36.1315 43.3945 36.0143 43.554 35.8613 43.6875C35.7083 43.821 35.5244 43.9235 35.3096 43.9951C35.098 44.0635 34.8604 44.0977 34.5967 44.0977C34.1995 44.0977 33.8626 44.0195 33.5859 43.8633C33.3125 43.7038 33.1042 43.4971 32.9609 43.2432C32.821 42.986 32.751 42.7109 32.751 42.418H33.6152C33.625 42.6654 33.6803 42.8574 33.7812 42.9941C33.8854 43.1309 34.0107 43.2253 34.1572 43.2773C34.3037 43.3294 34.4502 43.3555 34.5967 43.3555C34.7887 43.3555 34.9499 43.3278 35.0801 43.2725C35.2103 43.2139 35.3079 43.1309 35.373 43.0234C35.4414 42.916 35.4756 42.7907 35.4756 42.6475ZM40.8174 43.2578V44H37.6191V43.2578H40.8174ZM40.7197 39.3564L37.8145 44H37.2871V43.3359L40.1729 38.7168H40.7197V39.3564ZM40.3438 38.7168V39.4639H37.3018V38.7168H40.3438ZM44.4551 43.0967V40.2305C44.4551 40.0221 44.4225 39.8545 44.3574 39.7275C44.2956 39.6006 44.2012 39.5078 44.0742 39.4492C43.9505 39.3906 43.7943 39.3613 43.6055 39.3613C43.4232 39.3613 43.2653 39.3988 43.1318 39.4736C43.0016 39.5485 42.9007 39.6478 42.8291 39.7715C42.7607 39.8952 42.7266 40.0319 42.7266 40.1816H41.8623C41.8623 39.9928 41.903 39.8057 41.9844 39.6201C42.069 39.4346 42.1895 39.2669 42.3457 39.1172C42.502 38.9642 42.6891 38.8437 42.9072 38.7559C43.1286 38.6647 43.376 38.6191 43.6494 38.6191C43.9749 38.6191 44.263 38.6729 44.5137 38.7803C44.7643 38.8844 44.9613 39.0553 45.1045 39.293C45.2477 39.5306 45.3193 39.8464 45.3193 40.2402V42.8477C45.3193 43.0234 45.3324 43.2106 45.3584 43.4092C45.3877 43.6077 45.4284 43.7786 45.4805 43.9219V44H44.5869C44.5446 43.8958 44.512 43.7575 44.4893 43.585C44.4665 43.4092 44.4551 43.2464 44.4551 43.0967ZM44.5918 40.7969L44.6016 41.4316H44.001C43.7959 41.4316 43.6087 41.4544 43.4395 41.5C43.2734 41.5456 43.1302 41.6123 43.0098 41.7002C42.8893 41.7848 42.7965 41.8906 42.7314 42.0176C42.6696 42.1445 42.6387 42.2894 42.6387 42.4521C42.6387 42.6637 42.668 42.833 42.7266 42.96C42.7852 43.0837 42.873 43.1732 42.9902 43.2285C43.1074 43.2839 43.2555 43.3115 43.4346 43.3115C43.6527 43.3115 43.8447 43.2611 44.0107 43.1602C44.1768 43.0592 44.3053 42.9372 44.3965 42.7939C44.4909 42.6507 44.5348 42.5173 44.5283 42.3936L44.7188 42.7988C44.7057 42.9258 44.6634 43.0641 44.5918 43.2139C44.5234 43.3604 44.4274 43.502 44.3037 43.6387C44.18 43.7721 44.0335 43.8828 43.8643 43.9707C43.6982 44.0553 43.5111 44.0977 43.3027 44.0977C42.9967 44.0977 42.7282 44.0391 42.4971 43.9219C42.2692 43.8047 42.0918 43.6322 41.9648 43.4043C41.8379 43.1764 41.7744 42.8949 41.7744 42.5596C41.7744 42.3057 41.8184 42.0713 41.9062 41.8564C41.9941 41.6416 42.1243 41.4561 42.2969 41.2998C42.4694 41.1403 42.6859 41.0166 42.9463 40.9287C43.21 40.8408 43.5143 40.7969 43.8594 40.7969H44.5918ZM43.2051 37.9355L44.1523 36.5H45.2412L43.9326 37.9355H43.2051ZM47.5264 39.7666V44H46.667V38.7168H47.4775L47.5264 39.7666ZM47.3506 41.1582L46.9502 41.1436C46.9469 40.7822 46.9827 40.4486 47.0576 40.1426C47.1325 39.8333 47.2448 39.5648 47.3945 39.3369C47.5475 39.109 47.738 38.9333 47.9658 38.8096C48.1969 38.6826 48.4655 38.6191 48.7715 38.6191C48.9733 38.6191 49.1605 38.6549 49.333 38.7266C49.5088 38.7949 49.6618 38.904 49.792 39.0537C49.9222 39.2035 50.0231 39.3955 50.0947 39.6299C50.1696 39.8643 50.207 40.1475 50.207 40.4795V44H49.3428V40.5234C49.3428 40.2467 49.3053 40.0254 49.2305 39.8594C49.1589 39.6934 49.0563 39.5729 48.9229 39.498C48.7894 39.4199 48.6299 39.3809 48.4443 39.3809C48.2327 39.3809 48.0553 39.4281 47.9121 39.5225C47.7721 39.6169 47.6598 39.7471 47.5752 39.9131C47.4938 40.0791 47.4352 40.2695 47.3994 40.4844C47.3669 40.696 47.3506 40.9206 47.3506 41.1582ZM50.1973 40.6602L49.6211 40.8457C49.6178 40.556 49.6536 40.2777 49.7285 40.0107C49.8034 39.7438 49.9141 39.5062 50.0605 39.2979C50.2103 39.0895 50.3958 38.9251 50.6172 38.8047C50.8385 38.681 51.0957 38.6191 51.3887 38.6191C51.6296 38.6191 51.8428 38.6566 52.0283 38.7314C52.2139 38.8063 52.3701 38.9219 52.4971 39.0781C52.6273 39.2311 52.7249 39.4281 52.79 39.6689C52.8551 39.9098 52.8877 40.1963 52.8877 40.5283V44H52.0234V40.5186C52.0234 40.2223 51.986 39.9928 51.9111 39.8301C51.8395 39.6641 51.737 39.5485 51.6035 39.4834C51.4701 39.415 51.3105 39.3809 51.125 39.3809C50.9753 39.3809 50.8418 39.415 50.7246 39.4834C50.6107 39.5518 50.5146 39.6462 50.4365 39.7666C50.3584 39.8838 50.2982 40.0189 50.2559 40.1719C50.2168 40.3249 50.1973 40.4876 50.1973 40.6602Z" fill="url(#paint0_linear_366_1483)"/>
<path d="M107.005 46.2031C107.005 46.0371 106.985 45.8906 106.946 45.7637C106.907 45.6335 106.839 45.5163 106.741 45.4121C106.644 45.3079 106.507 45.2087 106.331 45.1143C106.155 45.0199 105.932 44.9238 105.662 44.8262C105.369 44.722 105.104 44.6064 104.866 44.4795C104.629 44.3493 104.425 44.2012 104.256 44.0352C104.09 43.8691 103.961 43.6787 103.87 43.4639C103.779 43.249 103.733 43.0033 103.733 42.7266C103.733 42.4499 103.781 42.1943 103.875 41.96C103.973 41.7256 104.109 41.5221 104.285 41.3496C104.464 41.1738 104.679 41.0371 104.93 40.9395C105.18 40.8418 105.46 40.793 105.77 40.793C106.232 40.793 106.621 40.8955 106.937 41.1006C107.256 41.3024 107.496 41.5677 107.659 41.8965C107.822 42.222 107.903 42.5703 107.903 42.9414H107.005C107.005 42.6745 106.961 42.4385 106.873 42.2334C106.788 42.0251 106.655 41.8623 106.473 41.7451C106.294 41.6247 106.059 41.5645 105.77 41.5645C105.509 41.5645 105.294 41.6149 105.125 41.7158C104.959 41.8167 104.835 41.9535 104.754 42.126C104.676 42.2985 104.637 42.4954 104.637 42.7168C104.637 42.8665 104.663 43.0033 104.715 43.127C104.767 43.2474 104.847 43.3597 104.954 43.4639C105.065 43.568 105.201 43.6641 105.364 43.752C105.53 43.8398 105.726 43.9245 105.95 44.0059C106.299 44.1198 106.596 44.2467 106.844 44.3867C107.091 44.5267 107.293 44.6846 107.449 44.8604C107.605 45.0329 107.719 45.2298 107.791 45.4512C107.866 45.6693 107.903 45.9167 107.903 46.1934C107.903 46.4831 107.854 46.7451 107.757 46.9795C107.662 47.2139 107.524 47.4141 107.342 47.5801C107.16 47.7461 106.94 47.8747 106.683 47.9658C106.425 48.0537 106.136 48.0977 105.813 48.0977C105.534 48.0977 105.258 48.0521 104.988 47.9609C104.721 47.8698 104.479 47.7331 104.261 47.5508C104.043 47.3685 103.868 47.1439 103.738 46.877C103.608 46.6068 103.543 46.2943 103.543 45.9395H104.441C104.441 46.1836 104.477 46.3936 104.549 46.5693C104.62 46.7419 104.72 46.8851 104.847 46.999C104.974 47.113 105.118 47.1976 105.281 47.2529C105.447 47.305 105.625 47.3311 105.813 47.3311C106.074 47.3311 106.292 47.2855 106.468 47.1943C106.647 47.1032 106.78 46.973 106.868 46.8037C106.959 46.6344 107.005 46.4342 107.005 46.2031ZM112.308 47.2578V48H109.109V47.2578H112.308ZM112.21 43.3564L109.305 48H108.777V47.3359L111.663 42.7168H112.21V43.3564ZM111.834 42.7168V43.4639H108.792V42.7168H111.834ZM115.945 47.0967V44.2305C115.945 44.0221 115.913 43.8545 115.848 43.7275C115.786 43.6006 115.691 43.5078 115.564 43.4492C115.441 43.3906 115.285 43.3613 115.096 43.3613C114.913 43.3613 114.756 43.3988 114.622 43.4736C114.492 43.5485 114.391 43.6478 114.319 43.7715C114.251 43.8952 114.217 44.0319 114.217 44.1816H113.353C113.353 43.9928 113.393 43.8057 113.475 43.6201C113.559 43.4346 113.68 43.2669 113.836 43.1172C113.992 42.9642 114.179 42.8438 114.397 42.7559C114.619 42.6647 114.866 42.6191 115.14 42.6191C115.465 42.6191 115.753 42.6729 116.004 42.7803C116.255 42.8844 116.451 43.0553 116.595 43.293C116.738 43.5306 116.81 43.8464 116.81 44.2402V46.8477C116.81 47.0234 116.823 47.2106 116.849 47.4092C116.878 47.6077 116.919 47.7786 116.971 47.9219V48H116.077C116.035 47.8958 116.002 47.7575 115.979 47.585C115.957 47.4092 115.945 47.2464 115.945 47.0967ZM116.082 44.7969L116.092 45.4316H115.491C115.286 45.4316 115.099 45.4544 114.93 45.5C114.764 45.5456 114.62 45.6123 114.5 45.7002C114.38 45.7848 114.287 45.8906 114.222 46.0176C114.16 46.1445 114.129 46.2894 114.129 46.4521C114.129 46.6637 114.158 46.833 114.217 46.96C114.275 47.0837 114.363 47.1732 114.48 47.2285C114.598 47.2839 114.746 47.3115 114.925 47.3115C115.143 47.3115 115.335 47.2611 115.501 47.1602C115.667 47.0592 115.796 46.9372 115.887 46.7939C115.981 46.6507 116.025 46.5173 116.019 46.3936L116.209 46.7988C116.196 46.9258 116.154 47.0641 116.082 47.2139C116.014 47.3604 115.918 47.502 115.794 47.6387C115.67 47.7721 115.524 47.8828 115.354 47.9707C115.188 48.0553 115.001 48.0977 114.793 48.0977C114.487 48.0977 114.218 48.0391 113.987 47.9219C113.759 47.8047 113.582 47.6322 113.455 47.4043C113.328 47.1764 113.265 46.8949 113.265 46.5596C113.265 46.3057 113.309 46.0713 113.396 45.8564C113.484 45.6416 113.615 45.4561 113.787 45.2998C113.96 45.1403 114.176 45.0166 114.437 44.9287C114.7 44.8408 115.005 44.7969 115.35 44.7969H116.082ZM114.695 41.9355L115.643 40.5H116.731L115.423 41.9355H114.695ZM119.017 43.7666V48H118.157V42.7168H118.968L119.017 43.7666ZM118.841 45.1582L118.44 45.1436C118.437 44.7822 118.473 44.4486 118.548 44.1426C118.623 43.8333 118.735 43.5648 118.885 43.3369C119.038 43.109 119.228 42.9333 119.456 42.8096C119.687 42.6826 119.956 42.6191 120.262 42.6191C120.464 42.6191 120.651 42.6549 120.823 42.7266C120.999 42.7949 121.152 42.904 121.282 43.0537C121.412 43.2035 121.513 43.3955 121.585 43.6299C121.66 43.8643 121.697 44.1475 121.697 44.4795V48H120.833V44.5234C120.833 44.2467 120.796 44.0254 120.721 43.8594C120.649 43.6934 120.547 43.5729 120.413 43.498C120.28 43.4199 120.12 43.3809 119.935 43.3809C119.723 43.3809 119.546 43.4281 119.402 43.5225C119.262 43.6169 119.15 43.7471 119.065 43.9131C118.984 44.0791 118.925 44.2695 118.89 44.4844C118.857 44.696 118.841 44.9206 118.841 45.1582ZM121.688 44.6602L121.111 44.8457C121.108 44.556 121.144 44.2777 121.219 44.0107C121.294 43.7438 121.404 43.5062 121.551 43.2979C121.701 43.0895 121.886 42.9251 122.107 42.8047C122.329 42.681 122.586 42.6191 122.879 42.6191C123.12 42.6191 123.333 42.6566 123.519 42.7314C123.704 42.8063 123.86 42.9219 123.987 43.0781C124.118 43.2311 124.215 43.4281 124.28 43.6689C124.345 43.9098 124.378 44.1963 124.378 44.5283V48H123.514V44.5186C123.514 44.2223 123.476 43.9928 123.401 43.8301C123.33 43.6641 123.227 43.5485 123.094 43.4834C122.96 43.415 122.801 43.3809 122.615 43.3809C122.465 43.3809 122.332 43.415 122.215 43.4834C122.101 43.5518 122.005 43.6462 121.927 43.7666C121.849 43.8838 121.788 44.0189 121.746 44.1719C121.707 44.3249 121.688 44.4876 121.688 44.6602ZM126.609 40.5V48H125.75V40.5H126.609ZM130.564 47.0967V44.2305C130.564 44.0221 130.532 43.8545 130.467 43.7275C130.405 43.6006 130.311 43.5078 130.184 43.4492C130.06 43.3906 129.904 43.3613 129.715 43.3613C129.533 43.3613 129.375 43.3988 129.241 43.4736C129.111 43.5485 129.01 43.6478 128.938 43.7715C128.87 43.8952 128.836 44.0319 128.836 44.1816H127.972C127.972 43.9928 128.012 43.8057 128.094 43.6201C128.178 43.4346 128.299 43.2669 128.455 43.1172C128.611 42.9642 128.799 42.8437 129.017 42.7559C129.238 42.6647 129.485 42.6191 129.759 42.6191C130.084 42.6191 130.372 42.6729 130.623 42.7803C130.874 42.8844 131.071 43.0553 131.214 43.293C131.357 43.5306 131.429 43.8464 131.429 44.2402V46.8477C131.429 47.0234 131.442 47.2106 131.468 47.4092C131.497 47.6077 131.538 47.7786 131.59 47.9219V48H130.696C130.654 47.8958 130.621 47.7575 130.599 47.585C130.576 47.4092 130.564 47.2464 130.564 47.0967ZM130.701 44.7969L130.711 45.4316L130.11 45.4316C129.905 45.4316 129.718 45.4544 129.549 45.5C129.383 45.5456 129.24 45.6123 129.119 45.7002C128.999 45.7848 128.906 45.8906 128.841 46.0176C128.779 46.1445 128.748 46.2894 128.748 46.4521C128.748 46.6637 128.777 46.833 128.836 46.96C128.895 47.0837 128.982 47.1732 129.1 47.2285C129.217 47.2839 129.365 47.3115 129.544 47.3115C129.762 47.3115 129.954 47.2611 130.12 47.1602C130.286 47.0592 130.415 46.9372 130.506 46.7939C130.6 46.6507 130.644 46.5173 130.638 46.3936L130.828 46.7988C130.815 46.9258 130.773 47.0641 130.701 47.2139C130.633 47.3604 130.537 47.502 130.413 47.6387C130.289 47.7721 130.143 47.8828 129.974 47.9707C129.808 48.0553 129.62 48.0977 129.412 48.0977C129.106 48.0977 128.838 48.0391 128.606 47.9219C128.379 47.8047 128.201 47.6322 128.074 47.4043C127.947 47.1764 127.884 46.8949 127.884 46.5596C127.884 46.3057 127.928 46.0713 128.016 45.8564C128.104 45.6416 128.234 45.4561 128.406 45.2998C128.579 45.1403 128.795 45.0166 129.056 44.9287C129.319 44.8408 129.624 44.7969 129.969 44.7969L130.701 44.7969ZM129.314 41.9355L130.262 40.5H131.351L130.042 41.9355H129.314ZM136.116 47.2578V48H132.918V47.2578H136.116ZM136.019 43.3564L133.113 48H132.586V47.3359L135.472 42.7168H136.019V43.3564ZM135.643 42.7168V43.4639H132.601V42.7168H135.643ZM139.754 47.0967V44.2305C139.754 44.0221 139.721 43.8545 139.656 43.7275C139.594 43.6006 139.5 43.5078 139.373 43.4492C139.249 43.3906 139.093 43.3613 138.904 43.3613C138.722 43.3613 138.564 43.3988 138.431 43.4736C138.3 43.5485 138.2 43.6478 138.128 43.7715C138.06 43.8952 138.025 44.0319 138.025 44.1816H137.161C137.161 43.9928 137.202 43.8057 137.283 43.6201C137.368 43.4346 137.488 43.2669 137.645 43.1172C137.801 42.9642 137.988 42.8437 138.206 42.7559C138.427 42.6647 138.675 42.6191 138.948 42.6191C139.274 42.6191 139.562 42.6729 139.812 42.7803C140.063 42.8844 140.26 43.0553 140.403 43.293C140.547 43.5306 140.618 43.8464 140.618 44.2402V46.8477C140.618 47.0234 140.631 47.2106 140.657 47.4092C140.687 47.6077 140.727 47.7786 140.779 47.9219V48H139.886C139.843 47.8958 139.811 47.7575 139.788 47.585C139.765 47.4092 139.754 47.2464 139.754 47.0967ZM139.891 44.7969L139.9 45.4316H139.3C139.095 45.4316 138.908 45.4544 138.738 45.5C138.572 45.5456 138.429 45.6123 138.309 45.7002C138.188 45.7848 138.095 45.8906 138.03 46.0176C137.968 46.1445 137.938 46.2894 137.938 46.4521C137.938 46.6637 137.967 46.833 138.025 46.96C138.084 47.0837 138.172 47.1732 138.289 47.2285C138.406 47.2839 138.554 47.3115 138.733 47.3115C138.951 47.3115 139.144 47.2611 139.31 47.1602C139.476 47.0592 139.604 46.9372 139.695 46.7939C139.79 46.6507 139.834 46.5173 139.827 46.3936L140.018 46.7988C140.005 46.9258 139.962 47.0641 139.891 47.2139C139.822 47.3604 139.726 47.502 139.603 47.6387C139.479 47.7721 139.332 47.8828 139.163 47.9707C138.997 48.0553 138.81 48.0977 138.602 48.0977C138.296 48.0977 138.027 48.0391 137.796 47.9219C137.568 47.8047 137.391 47.6322 137.264 47.4043C137.137 47.1764 137.073 46.8949 137.073 46.5596C137.073 46.3057 137.117 46.0713 137.205 45.8564C137.293 45.6416 137.423 45.4561 137.596 45.2998C137.768 45.1403 137.985 45.0166 138.245 44.9287C138.509 44.8408 138.813 44.7969 139.158 44.7969H139.891ZM138.504 41.9355L139.451 40.5H140.54L139.231 41.9355H138.504ZM144.524 46.6475C144.524 46.514 144.492 46.3968 144.427 46.2959C144.362 46.195 144.254 46.0973 144.104 46.0029C143.958 45.9085 143.759 45.8076 143.509 45.7002C143.265 45.5993 143.045 45.5 142.85 45.4023C142.658 45.3014 142.495 45.1924 142.361 45.0752C142.228 44.958 142.125 44.8229 142.054 44.6699C141.985 44.5137 141.951 44.3298 141.951 44.1182C141.951 43.9066 141.99 43.7113 142.068 43.5322C142.15 43.3499 142.264 43.1904 142.41 43.0537C142.557 42.917 142.732 42.8112 142.938 42.7363C143.143 42.6582 143.372 42.6191 143.626 42.6191C143.987 42.6191 144.295 42.6891 144.549 42.8291C144.803 42.9691 144.996 43.1611 145.13 43.4053C145.267 43.6462 145.335 43.918 145.335 44.2207H144.476C144.476 44.0742 144.443 43.9359 144.378 43.8057C144.313 43.6755 144.217 43.5697 144.09 43.4883C143.963 43.4036 143.808 43.3613 143.626 43.3613C143.434 43.3613 143.278 43.3955 143.157 43.4639C143.037 43.5322 142.949 43.6217 142.894 43.7324C142.841 43.8398 142.815 43.9587 142.815 44.0889C142.815 44.1865 142.828 44.2712 142.854 44.3428C142.884 44.4111 142.933 44.4762 143.001 44.5381C143.069 44.5967 143.162 44.6585 143.279 44.7236C143.4 44.7855 143.553 44.8571 143.738 44.9385C144.096 45.0785 144.397 45.2201 144.642 45.3633C144.886 45.5065 145.071 45.6742 145.198 45.8662C145.325 46.0583 145.389 46.2959 145.389 46.5791C145.389 46.8102 145.346 47.0202 145.262 47.209C145.18 47.3945 145.063 47.554 144.91 47.6875C144.757 47.821 144.573 47.9235 144.358 47.9951C144.147 48.0635 143.909 48.0977 143.646 48.0977C143.248 48.0977 142.911 48.0195 142.635 47.8633C142.361 47.7038 142.153 47.4971 142.01 47.2432C141.87 46.986 141.8 46.7109 141.8 46.418H142.664C142.674 46.6654 142.729 46.8574 142.83 46.9941C142.934 47.1309 143.06 47.2253 143.206 47.2773C143.353 47.3294 143.499 47.3555 143.646 47.3555C143.838 47.3555 143.999 47.3278 144.129 47.2725C144.259 47.2139 144.357 47.1309 144.422 47.0234C144.49 46.916 144.524 46.7907 144.524 46.6475Z" fill="url(#paint1_linear_366_1483)"/>
<path d="M198.729 43.2334V44H195.643V43.2334H198.729ZM195.804 36.8906V44H194.905V36.8906H195.804ZM198.313 39.9473V40.7139H195.643V39.9473H198.313ZM198.68 36.8906V37.6621H195.643V36.8906H198.68ZM200.687 36.5V44H199.827V36.5H200.687ZM202.981 36.5V44H202.122V36.5H202.981ZM206.238 44.0977C205.923 44.0977 205.638 44.0505 205.384 43.9561C205.13 43.8617 204.913 43.7184 204.734 43.5264C204.555 43.3311 204.419 43.0853 204.324 42.7891C204.23 42.4928 204.183 42.1429 204.183 41.7393V41.1436C204.183 40.6781 204.236 40.2842 204.344 39.9619C204.454 39.6396 204.603 39.3809 204.788 39.1855C204.974 38.987 205.184 38.8438 205.418 38.7559C205.652 38.6647 205.893 38.6191 206.141 38.6191C206.473 38.6191 206.756 38.6729 206.99 38.7803C207.225 38.8877 207.415 39.0472 207.562 39.2588C207.708 39.4704 207.815 39.7308 207.884 40.04C207.955 40.3493 207.991 40.7057 207.991 41.1094V41.6123H204.69V40.875H207.127V40.7529C207.114 40.4795 207.076 40.2386 207.015 40.0303C206.956 39.8219 206.858 39.6592 206.722 39.542C206.585 39.4215 206.391 39.3613 206.141 39.3613C205.981 39.3613 205.833 39.389 205.696 39.4443C205.563 39.4964 205.447 39.5892 205.35 39.7227C205.255 39.8529 205.18 40.0335 205.125 40.2646C205.073 40.4958 205.047 40.7887 205.047 41.1436V41.7393C205.047 42.0225 205.073 42.2666 205.125 42.4717C205.18 42.6735 205.26 42.8411 205.364 42.9746C205.472 43.1048 205.602 43.2025 205.755 43.2676C205.911 43.3294 206.089 43.3604 206.287 43.3604C206.577 43.3604 206.816 43.305 207.005 43.1943C207.194 43.0804 207.358 42.9355 207.498 42.7598L207.952 43.3018C207.858 43.4352 207.734 43.5638 207.581 43.6875C207.431 43.8079 207.246 43.9072 207.024 43.9854C206.806 44.0602 206.544 44.0977 206.238 44.0977ZM209.9 39.8447V44H209.036V38.7168H209.852L209.9 39.8447ZM209.69 41.1582L209.339 41.1436C209.336 40.7822 209.376 40.4486 209.461 40.1426C209.549 39.8333 209.673 39.5648 209.832 39.3369C209.995 39.109 210.188 38.9333 210.413 38.8096C210.638 38.6826 210.887 38.6191 211.16 38.6191C211.375 38.6191 211.57 38.6549 211.746 38.7266C211.922 38.7949 212.072 38.9056 212.195 39.0586C212.319 39.2116 212.413 39.4102 212.479 39.6543C212.547 39.8952 212.581 40.1898 212.581 40.5381V44H211.717V40.5283C211.717 40.2516 211.686 40.0303 211.624 39.8643C211.565 39.695 211.474 39.5729 211.351 39.498C211.23 39.4199 211.077 39.3809 210.892 39.3809C210.722 39.3809 210.564 39.4281 210.418 39.5225C210.271 39.6169 210.143 39.7471 210.032 39.9131C209.925 40.0791 209.84 40.2695 209.778 40.4844C209.72 40.696 209.69 40.9206 209.69 41.1582ZM213.699 41.6123V41.1094C213.699 40.6992 213.751 40.3395 213.855 40.0303C213.96 39.7178 214.104 39.4574 214.29 39.249C214.476 39.0407 214.692 38.8844 214.939 38.7803C215.187 38.6729 215.452 38.6191 215.735 38.6191C216.025 38.6191 216.294 38.6729 216.541 38.7803C216.788 38.8844 217.005 39.0407 217.19 39.249C217.379 39.4574 217.526 39.7178 217.63 40.0303C217.734 40.3395 217.786 40.6992 217.786 41.1094V41.6123C217.786 42.0225 217.734 42.3838 217.63 42.6963C217.526 43.0055 217.381 43.2643 217.195 43.4727C217.01 43.681 216.793 43.8372 216.546 43.9414C216.299 44.0456 216.032 44.0977 215.745 44.0977C215.459 44.0977 215.192 44.0456 214.944 43.9414C214.697 43.8372 214.479 43.681 214.29 43.4727C214.104 43.2643 213.96 43.0055 213.855 42.6963C213.751 42.3838 213.699 42.0225 213.699 41.6123ZM214.563 41.1094V41.6123C214.563 41.902 214.593 42.1559 214.651 42.374C214.71 42.5921 214.793 42.7744 214.9 42.9209C215.008 43.0674 215.133 43.1781 215.276 43.2529C215.42 43.3245 215.576 43.3604 215.745 43.3604C215.94 43.3604 216.111 43.3245 216.258 43.2529C216.408 43.1781 216.531 43.0674 216.629 42.9209C216.727 42.7744 216.8 42.5921 216.849 42.374C216.897 42.1559 216.922 41.902 216.922 41.6123V41.1094C216.922 40.8197 216.893 40.5674 216.834 40.3525C216.775 40.1344 216.692 39.9521 216.585 39.8057C216.478 39.6559 216.351 39.5452 216.204 39.4736C216.061 39.3988 215.905 39.3613 215.735 39.3613C215.569 39.3613 215.415 39.3988 215.271 39.4736C215.128 39.5452 215.003 39.6559 214.896 39.8057C214.791 39.9521 214.71 40.1344 214.651 40.3525C214.593 40.5674 214.563 40.8197 214.563 41.1094ZM215.804 37.9844L216.707 36.5049H217.654L216.57 37.9844H215.804ZM214.617 37.9844L215.267 36.5049H216.17L215.296 37.9844H214.617ZM219.764 39.5469V44H218.899V38.7168H219.734L219.764 39.5469ZM221.077 38.6875L221.082 39.5273C221.01 39.5111 220.945 39.5013 220.887 39.498C220.831 39.4915 220.766 39.4883 220.691 39.4883C220.529 39.4883 220.385 39.5208 220.262 39.5859C220.141 39.651 220.037 39.7422 219.949 39.8594C219.861 39.9766 219.791 40.1165 219.739 40.2793C219.687 40.4388 219.651 40.6146 219.632 40.8066L219.407 40.9531C219.407 40.6341 219.432 40.3346 219.48 40.0547C219.533 39.7747 219.612 39.5273 219.72 39.3125C219.827 39.0944 219.964 38.9251 220.13 38.8047C220.299 38.681 220.501 38.6191 220.735 38.6191C220.787 38.6191 220.851 38.6273 220.926 38.6436C221.004 38.6566 221.054 38.6712 221.077 38.6875ZM225.291 43.2578V44H222.093V43.2578H225.291ZM225.193 39.3564L222.288 44H221.761V43.3359L224.646 38.7168H225.193V39.3564ZM224.817 38.7168V39.4639H221.775V38.7168H224.817ZM228.152 44.0977C227.837 44.0977 227.552 44.0505 227.298 43.9561C227.044 43.8617 226.827 43.7184 226.648 43.5264C226.469 43.3311 226.333 43.0853 226.238 42.7891C226.144 42.4928 226.097 42.1429 226.097 41.7393V41.1436C226.097 40.6781 226.15 40.2842 226.258 39.9619C226.368 39.6396 226.517 39.3809 226.702 39.1855C226.888 38.987 227.098 38.8437 227.332 38.7559C227.566 38.6647 227.807 38.6191 228.055 38.6191C228.387 38.6191 228.67 38.6729 228.904 38.7803C229.139 38.8877 229.329 39.0472 229.476 39.2588C229.622 39.4704 229.729 39.7308 229.798 40.04C229.869 40.3493 229.905 40.7057 229.905 41.1094V41.6123H226.604V40.875H229.041V40.7529C229.028 40.4795 228.991 40.2386 228.929 40.0303C228.87 39.8219 228.772 39.6592 228.636 39.542C228.499 39.4215 228.305 39.3613 228.055 39.3613C227.895 39.3613 227.747 39.389 227.61 39.4443C227.477 39.4964 227.361 39.5892 227.264 39.7227C227.169 39.8529 227.094 40.0335 227.039 40.2646C226.987 40.4958 226.961 40.7887 226.961 41.1436V41.7393C226.961 42.0225 226.987 42.2666 227.039 42.4717C227.094 42.6735 227.174 42.8411 227.278 42.9746C227.386 43.1048 227.516 43.2025 227.669 43.2676C227.825 43.3294 228.003 43.3604 228.201 43.3604C228.491 43.3604 228.73 43.305 228.919 43.1943C229.108 43.0804 229.272 42.9355 229.412 42.7598L229.866 43.3018C229.772 43.4352 229.648 43.5638 229.495 43.6875C229.345 43.8079 229.16 43.9072 228.938 43.9854C228.72 44.0602 228.458 44.0977 228.152 44.0977ZM227.527 37.9355L228.475 36.5H229.563L228.255 37.9355H227.527ZM233.514 42.6475C233.514 42.514 233.481 42.3968 233.416 42.2959C233.351 42.195 233.243 42.0973 233.094 42.0029C232.947 41.9085 232.749 41.8076 232.498 41.7002C232.254 41.5993 232.034 41.5 231.839 41.4023C231.647 41.3014 231.484 41.1924 231.351 41.0752C231.217 40.958 231.115 40.8229 231.043 40.6699C230.975 40.5137 230.94 40.3298 230.94 40.1182C230.94 39.9066 230.979 39.7113 231.058 39.5322C231.139 39.3499 231.253 39.1904 231.399 39.0537C231.546 38.917 231.722 38.8112 231.927 38.7363C232.132 38.6582 232.361 38.6191 232.615 38.6191C232.977 38.6191 233.284 38.6891 233.538 38.8291C233.792 38.9691 233.986 39.1611 234.119 39.4053C234.256 39.6462 234.324 39.918 234.324 40.2207H233.465C233.465 40.0742 233.432 39.9359 233.367 39.8057C233.302 39.6755 233.206 39.5697 233.079 39.4883C232.952 39.4036 232.798 39.3613 232.615 39.3613C232.423 39.3613 232.267 39.3955 232.146 39.4639C232.026 39.5322 231.938 39.6217 231.883 39.7324C231.831 39.8398 231.805 39.9587 231.805 40.0889C231.805 40.1865 231.818 40.2712 231.844 40.3428C231.873 40.4111 231.922 40.4762 231.99 40.5381C232.059 40.5967 232.151 40.6585 232.269 40.7236C232.389 40.7855 232.542 40.8571 232.728 40.9385C233.086 41.0785 233.387 41.2201 233.631 41.3633C233.875 41.5065 234.061 41.6742 234.188 41.8662C234.314 42.0583 234.378 42.2959 234.378 42.5791C234.378 42.8102 234.336 43.0202 234.251 43.209C234.17 43.3945 234.052 43.554 233.899 43.6875C233.746 43.821 233.562 43.9235 233.348 43.9951C233.136 44.0635 232.898 44.0977 232.635 44.0977C232.238 44.0977 231.901 44.0195 231.624 43.8633C231.351 43.7038 231.142 43.4971 230.999 43.2432C230.859 42.986 230.789 42.7109 230.789 42.418H231.653C231.663 42.6654 231.718 42.8574 231.819 42.9941C231.924 43.1309 232.049 43.2253 232.195 43.2773C232.342 43.3294 232.488 43.3555 232.635 43.3555C232.827 43.3555 232.988 43.3278 233.118 43.2725C233.248 43.2139 233.346 43.1309 233.411 43.0234C233.479 42.916 233.514 42.7907 233.514 42.6475ZM198.211 55.0977C197.895 55.0977 197.61 55.0505 197.356 54.9561C197.103 54.8617 196.886 54.7184 196.707 54.5264C196.528 54.3311 196.391 54.0853 196.297 53.7891C196.202 53.4928 196.155 53.1429 196.155 52.7393V52.1436C196.155 51.6781 196.209 51.2842 196.316 50.9619C196.427 50.6396 196.575 50.3809 196.761 50.1855C196.946 49.987 197.156 49.8438 197.391 49.7559C197.625 49.6647 197.866 49.6191 198.113 49.6191C198.445 49.6191 198.729 49.6729 198.963 49.7803C199.197 49.8877 199.388 50.0472 199.534 50.2588C199.681 50.4704 199.788 50.7308 199.856 51.04C199.928 51.3493 199.964 51.7057 199.964 52.1094V52.6123H196.663V51.875H199.1V51.7529C199.087 51.4795 199.049 51.2386 198.987 51.0303C198.929 50.8219 198.831 50.6592 198.694 50.542C198.558 50.4215 198.364 50.3613 198.113 50.3613C197.954 50.3613 197.806 50.389 197.669 50.4443C197.535 50.4964 197.42 50.5892 197.322 50.7227C197.228 50.8529 197.153 51.0335 197.098 51.2646C197.046 51.4958 197.02 51.7887 197.02 52.1436V52.7393C197.02 53.0225 197.046 53.2666 197.098 53.4717C197.153 53.6735 197.233 53.8411 197.337 53.9746C197.444 54.1048 197.575 54.2025 197.728 54.2676C197.884 54.3294 198.061 54.3604 198.26 54.3604C198.549 54.3604 198.789 54.305 198.978 54.1943C199.166 54.0804 199.331 53.9355 199.471 53.7598L199.925 54.3018C199.83 54.4352 199.707 54.5638 199.554 54.6875C199.404 54.8079 199.218 54.9072 198.997 54.9854C198.779 55.0602 198.517 55.0977 198.211 55.0977ZM197.586 48.9355L198.533 47.5H199.622L198.313 48.9355H197.586ZM203.572 53.6475C203.572 53.514 203.54 53.3968 203.475 53.2959C203.41 53.195 203.302 53.0973 203.152 53.0029C203.006 52.9085 202.807 52.8076 202.557 52.7002C202.312 52.5993 202.093 52.5 201.897 52.4023C201.705 52.3014 201.543 52.1924 201.409 52.0752C201.276 51.958 201.173 51.8229 201.102 51.6699C201.033 51.5137 200.999 51.3298 200.999 51.1182C200.999 50.9066 201.038 50.7113 201.116 50.5322C201.198 50.3499 201.312 50.1904 201.458 50.0537C201.604 49.917 201.78 49.8112 201.985 49.7363C202.19 49.6582 202.42 49.6191 202.674 49.6191C203.035 49.6191 203.343 49.6891 203.597 49.8291C203.851 49.9691 204.044 50.1611 204.178 50.4053C204.314 50.6462 204.383 50.918 204.383 51.2207H203.523C203.523 51.0742 203.491 50.9359 203.426 50.8057C203.361 50.6755 203.265 50.5697 203.138 50.4883C203.011 50.4036 202.856 50.3613 202.674 50.3613C202.482 50.3613 202.326 50.3955 202.205 50.4639C202.085 50.5322 201.997 50.6217 201.941 50.7324C201.889 50.8398 201.863 50.9587 201.863 51.0889C201.863 51.1865 201.876 51.2712 201.902 51.3428C201.932 51.4111 201.98 51.4762 202.049 51.5381C202.117 51.5967 202.21 51.6585 202.327 51.7236C202.448 51.7855 202.601 51.8571 202.786 51.9385C203.144 52.0785 203.445 52.2201 203.689 52.3633C203.934 52.5065 204.119 52.6742 204.246 52.8662C204.373 53.0583 204.437 53.2959 204.437 53.5791C204.437 53.8102 204.394 54.0202 204.31 54.209C204.228 54.3945 204.111 54.554 203.958 54.6875C203.805 54.821 203.621 54.9235 203.406 54.9951C203.195 55.0635 202.957 55.0977 202.693 55.0977C202.296 55.0977 201.959 55.0195 201.683 54.8633C201.409 54.7038 201.201 54.4971 201.058 54.2432C200.918 53.986 200.848 53.7109 200.848 53.418H201.712C201.722 53.6654 201.777 53.8574 201.878 53.9941C201.982 54.1309 202.107 54.2253 202.254 54.2773C202.4 54.3294 202.547 54.3555 202.693 54.3555C202.885 54.3555 203.047 54.3278 203.177 54.2725C203.307 54.2139 203.405 54.1309 203.47 54.0234C203.538 53.916 203.572 53.7907 203.572 53.6475ZM208.968 55H208.104V49.2578C208.104 48.8574 208.17 48.5189 208.304 48.2422C208.44 47.9655 208.634 47.7555 208.885 47.6123C209.139 47.4691 209.438 47.3975 209.783 47.3975C209.988 47.3975 210.185 47.4268 210.374 47.4854C210.563 47.5407 210.758 47.6107 210.96 47.6953L210.813 48.457C210.696 48.3984 210.553 48.3431 210.384 48.291C210.215 48.2357 210.037 48.208 209.852 48.208C209.526 48.208 209.297 48.2959 209.163 48.4717C209.033 48.6442 208.968 48.9062 208.968 49.2578V55ZM209.822 49.7168V50.4102H207.415V49.7168H209.822ZM211.375 49.7168V55H210.511V49.7168H211.375ZM216.111 54.2578V55H212.913V54.2578H216.111ZM216.014 50.3564L213.108 55H212.581V54.3359L215.467 49.7168H216.014V50.3564ZM215.638 49.7168V50.4639H212.596V49.7168H215.638ZM218.973 55.0977C218.657 55.0977 218.372 55.0505 218.118 54.9561C217.864 54.8617 217.648 54.7184 217.469 54.5264C217.29 54.3311 217.153 54.0853 217.059 53.7891C216.964 53.4928 216.917 53.1429 216.917 52.7393V52.1436C216.917 51.6781 216.971 51.2842 217.078 50.9619C217.189 50.6396 217.337 50.3809 217.522 50.1855C217.708 49.987 217.918 49.8437 218.152 49.7559C218.387 49.6647 218.628 49.6191 218.875 49.6191C219.207 49.6191 219.49 49.6729 219.725 49.7803C219.959 49.8877 220.149 50.0472 220.296 50.2588C220.442 50.4704 220.55 50.7308 220.618 51.04C220.69 51.3493 220.726 51.7057 220.726 52.1094V52.6123H217.425V51.875H219.861V51.7529C219.848 51.4795 219.811 51.2386 219.749 51.0303C219.69 50.8219 219.593 50.6592 219.456 50.542C219.319 50.4215 219.126 50.3613 218.875 50.3613C218.715 50.3613 218.567 50.389 218.431 50.4443C218.297 50.4964 218.182 50.5892 218.084 50.7227C217.99 50.8529 217.915 51.0335 217.859 51.2646C217.807 51.4958 217.781 51.7887 217.781 52.1436V52.7393C217.781 53.0225 217.807 53.2666 217.859 53.4717C217.915 53.6735 217.994 53.8411 218.099 53.9746C218.206 54.1048 218.336 54.2025 218.489 54.2676C218.646 54.3294 218.823 54.3604 219.021 54.3604C219.311 54.3604 219.55 54.305 219.739 54.1943C219.928 54.0804 220.092 53.9355 220.232 53.7598L220.687 54.3018C220.592 54.4352 220.468 54.5638 220.315 54.6875C220.166 54.8079 219.98 54.9072 219.759 54.9854C219.541 55.0602 219.279 55.0977 218.973 55.0977ZM223.699 49.7168V50.4102H221.233V49.7168H223.699ZM222.039 48.4326H222.903V53.6914C222.903 53.8704 222.924 54.0055 222.967 54.0967C223.012 54.1878 223.069 54.248 223.138 54.2773C223.206 54.3066 223.279 54.3213 223.357 54.3213C223.416 54.3213 223.481 54.3148 223.553 54.3018C223.624 54.2855 223.673 54.2725 223.699 54.2627L223.694 55C223.636 55.0228 223.558 55.0439 223.46 55.0635C223.362 55.0863 223.239 55.0977 223.089 55.0977C222.903 55.0977 222.731 55.0537 222.571 54.9658C222.412 54.8779 222.283 54.7314 222.186 54.5264C222.088 54.318 222.039 54.0381 222.039 53.6865V48.4326ZM226.619 55.0977C226.303 55.0977 226.019 55.0505 225.765 54.9561C225.511 54.8617 225.294 54.7184 225.115 54.5264C224.936 54.3311 224.799 54.0853 224.705 53.7891C224.611 53.4928 224.563 53.1429 224.563 52.7393V52.1436C224.563 51.6781 224.617 51.2842 224.725 50.9619C224.835 50.6396 224.983 50.3809 225.169 50.1855C225.354 49.987 225.564 49.8437 225.799 49.7559C226.033 49.6647 226.274 49.6191 226.521 49.6191C226.854 49.6191 227.137 49.6729 227.371 49.7803C227.605 49.8877 227.796 50.0472 227.942 50.2588C228.089 50.4704 228.196 50.7308 228.265 51.04C228.336 51.3493 228.372 51.7057 228.372 52.1094V52.6123H225.071V51.875H227.508V51.7529C227.495 51.4795 227.457 51.2386 227.396 51.0303C227.337 50.8219 227.239 50.6592 227.103 50.542C226.966 50.4215 226.772 50.3613 226.521 50.3613C226.362 50.3613 226.214 50.389 226.077 50.4443C225.944 50.4964 225.828 50.5892 225.73 50.7227C225.636 50.8529 225.561 51.0335 225.506 51.2646C225.454 51.4958 225.428 51.7887 225.428 52.1436V52.7393C225.428 53.0225 225.454 53.2666 225.506 53.4717C225.561 53.6735 225.641 53.8411 225.745 53.9746C225.853 54.1048 225.983 54.2025 226.136 54.2676C226.292 54.3294 226.469 54.3604 226.668 54.3604C226.958 54.3604 227.197 54.305 227.386 54.1943C227.575 54.0804 227.739 53.9355 227.879 53.7598L228.333 54.3018C228.239 54.4352 228.115 54.5638 227.962 54.6875C227.812 54.8079 227.627 54.9072 227.405 54.9854C227.187 55.0602 226.925 55.0977 226.619 55.0977ZM225.994 48.9355L226.941 47.5H228.03L226.722 48.9355H225.994ZM231.98 53.6475C231.98 53.514 231.948 53.3968 231.883 53.2959C231.818 53.195 231.71 53.0973 231.561 53.0029C231.414 52.9085 231.215 52.8076 230.965 52.7002C230.721 52.5993 230.501 52.5 230.306 52.4023C230.114 52.3014 229.951 52.1924 229.817 52.0752C229.684 51.958 229.581 51.8229 229.51 51.6699C229.441 51.5137 229.407 51.3298 229.407 51.1182C229.407 50.9066 229.446 50.7113 229.524 50.5322C229.606 50.3499 229.72 50.1904 229.866 50.0537C230.013 49.917 230.188 49.8112 230.394 49.7363C230.599 49.6582 230.828 49.6191 231.082 49.6191C231.443 49.6191 231.751 49.6891 232.005 49.8291C232.259 49.9691 232.452 50.1611 232.586 50.4053C232.723 50.6462 232.791 50.918 232.791 51.2207H231.932C231.932 51.0742 231.899 50.9359 231.834 50.8057C231.769 50.6755 231.673 50.5697 231.546 50.4883C231.419 50.4036 231.264 50.3613 231.082 50.3613C230.89 50.3613 230.734 50.3955 230.613 50.4639C230.493 50.5322 230.405 50.6217 230.35 50.7324C230.298 50.8398 230.271 50.9587 230.271 51.0889C230.271 51.1865 230.285 51.2712 230.311 51.3428C230.34 51.4111 230.389 51.4762 230.457 51.5381C230.525 51.5967 230.618 51.6585 230.735 51.7236C230.856 51.7855 231.009 51.8571 231.194 51.9385C231.552 52.0785 231.854 52.2201 232.098 52.3633C232.342 52.5065 232.527 52.6742 232.654 52.8662C232.781 53.0583 232.845 53.2959 232.845 53.5791C232.845 53.8102 232.802 54.0202 232.718 54.209C232.636 54.3945 232.519 54.554 232.366 54.6875C232.213 54.821 232.029 54.9235 231.814 54.9951C231.603 55.0635 231.365 55.0977 231.102 55.0977C230.704 55.0977 230.368 55.0195 230.091 54.8633C229.817 54.7038 229.609 54.4971 229.466 54.2432C229.326 53.986 229.256 53.7109 229.256 53.418H230.12C230.13 53.6654 230.185 53.8574 230.286 53.9941C230.39 54.1309 230.516 54.2253 230.662 54.2773C230.809 54.3294 230.955 54.3555 231.102 54.3555C231.294 54.3555 231.455 54.3278 231.585 54.2725C231.715 54.2139 231.813 54.1309 231.878 54.0234C231.946 53.916 231.98 53.7907 231.98 53.6475Z" fill="url(#paint2_linear_366_1483)"/>
<path fill-rule="evenodd" clip-rule="evenodd" d="M204 16L137 16V14L204 14V16Z" fill="url(#paint3_linear_366_1483)"/>
<path fill-rule="evenodd" clip-rule="evenodd" d="M111 16L44 16V14L111 14V16Z" fill="url(#paint4_linear_366_1483)"/>
<path fill-rule="evenodd" clip-rule="evenodd" d="M18.7612 6.17317C18 8.01088 18 10.3406 18 15C18 19.6594 18 21.9891 18.7612 23.8268C19.7761 26.2771 21.7229 28.2239 24.1732 29.2388C26.0109 30 28.3406 30 33 30C37.6594 30 39.9891 30 41.8268 29.2388C44.2771 28.2239 46.2239 26.2771 47.2388 23.8268C48 21.9891 48 19.6594 48 15C48 10.3406 48 8.01088 47.2388 6.17317C46.2239 3.72288 44.2771 1.77614 41.8268 0.761205C39.9891 0 37.6594 0 33 0C28.3406 0 26.0109 0 24.1732 0.761205C21.7229 1.77614 19.7761 3.72288 18.7612 6.17317ZM39.7071 11.7071C40.0976 11.3166 40.0976 10.6834 39.7071 10.2929C39.3166 9.90237 38.6834 9.90237 38.2929 10.2929L31 17.5858L27.7071 14.2929C27.3166 13.9024 26.6834 13.9024 26.2929 14.2929C25.9024 14.6834 25.9024 15.3166 26.2929 15.7071L30.2929 19.7071C30.4804 19.8946 30.7348 20 31 20C31.2652 20 31.5196 19.8946 31.7071 19.7071L39.7071 11.7071Z" fill="url(#paint5_linear_366_1483)"/>
<path fill-rule="evenodd" clip-rule="evenodd" d="M109.761 6.17317C109 8.01088 109 10.3406 109 15C109 19.6594 109 21.9891 109.761 23.8268C110.776 26.2771 112.723 28.2239 115.173 29.2388C117.011 30 119.341 30 124 30C128.659 30 130.989 30 132.827 29.2388C135.277 28.2239 137.224 26.2771 138.239 23.8268C139 21.9891 139 19.6594 139 15C139 10.3406 139 8.01088 138.239 6.17317C137.224 3.72288 135.277 1.77614 132.827 0.761205C130.989 0 128.659 0 124 0C119.341 0 117.011 0 115.173 0.761205C112.723 1.77614 110.776 3.72288 109.761 6.17317ZM130.707 11.7071C131.098 11.3166 131.098 10.6834 130.707 10.2929C130.317 9.90237 129.683 9.90237 129.293 10.2929L122 17.5858L118.707 14.2929C118.317 13.9024 117.683 13.9024 117.293 14.2929C116.902 14.6834 116.902 15.3166 117.293 15.7071L121.293 19.7071C121.48 19.8946 121.735 20 122 20C122.265 20 122.52 19.8946 122.707 19.7071L130.707 11.7071Z" fill="url(#paint6_linear_366_1483)"/>
<path fill-rule="evenodd" clip-rule="evenodd" d="M200.761 6.17317C200 8.01088 200 10.3406 200 15C200 19.6594 200 21.9891 200.761 23.8268C201.776 26.2771 203.723 28.2239 206.173 29.2388C208.011 30 210.341 30 215 30C219.659 30 221.989 30 223.827 29.2388C226.277 28.2239 228.224 26.2771 229.239 23.8268C230 21.9891 230 19.6594 230 15C230 10.3406 230 8.01088 229.239 6.17317C228.224 3.72288 226.277 1.77614 223.827 0.761205C221.989 0 219.659 0 215 0C210.341 0 208.011 0 206.173 0.761205C203.723 1.77614 201.776 3.72288 200.761 6.17317ZM221.707 11.7071C222.098 11.3166 222.098 10.6834 221.707 10.2929C221.317 9.90237 220.683 9.90237 220.293 10.2929L213 17.5858L209.707 14.2929C209.317 13.9024 208.683 13.9024 208.293 14.2929C207.902 14.6834 207.902 15.3166 208.293 15.7071L212.293 19.7071C212.48 19.8946 212.735 20 213 20C213.265 20 213.52 19.8946 213.707 19.7071L221.707 11.7071Z" fill="url(#paint7_linear_366_1483)"/>
<defs>
<linearGradient id="paint0_linear_366_1483" x1="33" y1="46" x2="33" y2="35" gradientUnits="userSpaceOnUse">
<stop stop-color="#5CCC94"/>
<stop offset="1" stop-color="#8CCAAE"/>
</linearGradient>
<linearGradient id="paint1_linear_366_1483" x1="124.5" y1="55" x2="124.5" y2="35" gradientUnits="userSpaceOnUse">
<stop stop-color="#5CCC94"/>
<stop offset="1" stop-color="#8CCAAE"/>
</linearGradient>
<linearGradient id="paint2_linear_366_1483" x1="214.5" y1="68" x2="214.5" y2="35" gradientUnits="userSpaceOnUse">
<stop stop-color="#5CCC94"/>
<stop offset="1" stop-color="#8CCAAE"/>
</linearGradient>
<linearGradient id="paint3_linear_366_1483" x1="170.5" y1="16" x2="170.5" y2="14" gradientUnits="userSpaceOnUse">
<stop stop-color="#5CCC94"/>
<stop offset="1" stop-color="#8CCAAE"/>
</linearGradient>
<linearGradient id="paint4_linear_366_1483" x1="77.5" y1="16" x2="77.5" y2="14" gradientUnits="userSpaceOnUse">
<stop stop-color="#5CCC94"/>
<stop offset="1" stop-color="#8CCAAE"/>
</linearGradient>
<linearGradient id="paint5_linear_366_1483" x1="33" y1="30" x2="33" y2="1.58545e-07" gradientUnits="userSpaceOnUse">
<stop stop-color="#5CCC94"/>
<stop offset="1" stop-color="#8CCAAE"/>
</linearGradient>
<linearGradient id="paint6_linear_366_1483" x1="124" y1="30" x2="124" y2="1.58545e-07" gradientUnits="userSpaceOnUse">
<stop stop-color="#5CCC94"/>
<stop offset="1" stop-color="#8CCAAE"/>
</linearGradient>
<linearGradient id="paint7_linear_366_1483" x1="215" y1="30" x2="215" y2="1.58545e-07" gradientUnits="userSpaceOnUse">
<stop stop-color="#5CCC94"/>
<stop offset="1" stop-color="#8CCAAE"/>
</linearGradient>
</defs>
</svg>
