<svg width="240" height="68" viewBox="0 0 240 68" fill="none" xmlns="http://www.w3.org/2000/svg">
<path d="M10.6465 36.8906H12.6338C13.096 36.8906 13.4834 36.972 13.7959 37.1348C14.1117 37.2975 14.3493 37.5384 14.5088 37.8574C14.6715 38.1732 14.7529 38.5622 14.7529 39.0244C14.7529 39.3499 14.6992 39.6478 14.5918 39.918C14.4844 40.1849 14.3281 40.4128 14.123 40.6016C13.918 40.7871 13.6689 40.9255 13.376 41.0166L13.1318 41.1191H11.3594L11.3496 40.3525H12.624C12.8975 40.3525 13.1253 40.2939 13.3076 40.1768C13.4899 40.0563 13.6266 39.8952 13.7178 39.6934C13.8089 39.4915 13.8545 39.2686 13.8545 39.0244C13.8545 38.751 13.8138 38.5117 13.7324 38.3066C13.651 38.1016 13.5208 37.9437 13.3418 37.833C13.166 37.7191 12.93 37.6621 12.6338 37.6621H11.5449L11.5449 44H10.6465L10.6465 36.8906ZM14.0596 44L12.6436 40.7773L13.5762 40.7725L15.0215 43.9414V44H14.0596ZM17.7266 44.0977C17.4108 44.0977 17.126 44.0505 16.8721 43.9561C16.6182 43.8617 16.4017 43.7184 16.2227 43.5264C16.0436 43.3311 15.9069 43.0853 15.8125 42.7891C15.7181 42.4928 15.6709 42.1429 15.6709 41.7393V41.1436C15.6709 40.6781 15.7246 40.2842 15.832 39.9619C15.9427 39.6396 16.0908 39.3809 16.2764 39.1855C16.4619 38.987 16.6719 38.8438 16.9062 38.7559C17.1406 38.6647 17.3815 38.6191 17.6289 38.6191C17.9609 38.6191 18.2441 38.6729 18.4785 38.7803C18.7129 38.8877 18.9033 39.0472 19.0498 39.2588C19.1963 39.4704 19.3037 39.7308 19.3721 40.04C19.4437 40.3493 19.4795 40.7057 19.4795 41.1094V41.6123H16.1787V40.875H18.6152V40.7529C18.6022 40.4795 18.5648 40.2386 18.5029 40.0303C18.4443 39.8219 18.3467 39.6592 18.21 39.542C18.0732 39.4215 17.8796 39.3613 17.6289 39.3613C17.4694 39.3613 17.3213 39.389 17.1846 39.4443C17.0511 39.4964 16.9355 39.5892 16.8379 39.7227C16.7435 39.8529 16.6686 40.0335 16.6133 40.2646C16.5612 40.4958 16.5352 40.7887 16.5352 41.1436V41.7393C16.5352 42.0225 16.5612 42.2666 16.6133 42.4717C16.6686 42.6735 16.7484 42.8411 16.8525 42.9746C16.96 43.1048 17.0902 43.2025 17.2432 43.2676C17.3994 43.3294 17.5768 43.3604 17.7754 43.3604C18.0651 43.3604 18.3044 43.305 18.4932 43.1943C18.682 43.0804 18.8464 42.9355 18.9863 42.7598L19.4404 43.3018C19.346 43.4352 19.2223 43.5638 19.0693 43.6875C18.9196 43.8079 18.734 43.9072 18.5127 43.9854C18.2946 44.0602 18.0326 44.0977 17.7266 44.0977ZM23.3857 38.7168L24.1621 38.7168V44.0439C24.1621 44.5094 24.0807 44.8936 23.918 45.1963C23.7585 45.499 23.5355 45.722 23.249 45.8652C22.9626 46.0117 22.6322 46.085 22.2578 46.085C22.1243 46.085 21.9567 46.0605 21.7549 46.0117C21.5531 45.9629 21.3512 45.888 21.1494 45.7871C20.9476 45.6895 20.7816 45.5658 20.6514 45.416L21.0078 44.8154C21.1934 45.0042 21.3903 45.1393 21.5986 45.2207C21.807 45.3021 22.0055 45.3428 22.1943 45.3428C22.4189 45.3428 22.6143 45.3021 22.7803 45.2207C22.9463 45.1393 23.0749 45.0059 23.166 44.8203C23.2572 44.638 23.3027 44.3939 23.3027 44.0879V39.8789L23.3857 38.7168ZM20.3486 41.6123V41.1191C20.3486 40.6829 20.3893 40.3086 20.4707 39.9961C20.5521 39.6803 20.6693 39.4215 20.8223 39.2197C20.9785 39.0146 21.1657 38.8633 21.3838 38.7656C21.6019 38.668 21.846 38.6191 22.1162 38.6191C22.3896 38.6191 22.6257 38.6745 22.8242 38.7852C23.0228 38.8958 23.1872 39.057 23.3174 39.2686C23.4508 39.4769 23.555 39.7308 23.6299 40.0303C23.708 40.3265 23.7617 40.6618 23.791 41.0361V41.6953C23.7617 42.0664 23.708 42.4001 23.6299 42.6963C23.555 42.9925 23.4492 43.2448 23.3125 43.4531C23.179 43.6615 23.013 43.821 22.8145 43.9316C22.6159 44.0423 22.3799 44.0977 22.1064 44.0977C21.8395 44.0977 21.5986 44.0472 21.3838 43.9463C21.1689 43.8421 20.9834 43.6875 20.8271 43.4824C20.6742 43.2741 20.5553 43.0153 20.4707 42.7061C20.3893 42.3936 20.3486 42.029 20.3486 41.6123ZM21.2129 41.1191V41.6123C21.2129 41.9053 21.234 42.1608 21.2764 42.3789C21.3187 42.5938 21.3838 42.7728 21.4717 42.916C21.5628 43.056 21.6784 43.1602 21.8184 43.2285C21.9616 43.2969 22.1325 43.3311 22.3311 43.3311C22.5719 43.3311 22.7689 43.2725 22.9219 43.1553C23.0749 43.0381 23.1969 42.8835 23.2881 42.6914C23.3825 42.4961 23.4574 42.2861 23.5127 42.0615V40.6748C23.4801 40.5088 23.4329 40.3493 23.3711 40.1963C23.3125 40.04 23.236 39.9017 23.1416 39.7812C23.0472 39.6576 22.9333 39.5599 22.7998 39.4883C22.6696 39.4167 22.5166 39.3809 22.3408 39.3809C22.1423 39.3809 21.9714 39.4167 21.8281 39.4883C21.6849 39.5599 21.5677 39.6673 21.4766 39.8105C21.3854 39.9538 21.3187 40.1344 21.2764 40.3525C21.234 40.5706 21.2129 40.8262 21.2129 41.1191ZM26.3838 38.7168V44H25.5244V38.7168H26.3838ZM25.4756 37.3154C25.4756 37.1689 25.5163 37.0452 25.5977 36.9443C25.679 36.8434 25.8011 36.793 25.9639 36.793C26.1266 36.793 26.2487 36.8434 26.3301 36.9443C26.4147 37.0452 26.457 37.1689 26.457 37.3154C26.457 37.4554 26.4147 37.5758 26.3301 37.6768C26.2487 37.7744 26.1266 37.8232 25.9639 37.8232C25.8011 37.8232 25.679 37.7744 25.5977 37.6768C25.5163 37.5758 25.4756 37.4554 25.4756 37.3154ZM30.3145 42.6475C30.3145 42.514 30.2819 42.3968 30.2168 42.2959C30.1517 42.195 30.0443 42.0973 29.8945 42.0029C29.748 41.9085 29.5495 41.8076 29.2988 41.7002C29.0547 41.5993 28.835 41.5 28.6396 41.4023C28.4476 41.3014 28.2848 41.1924 28.1514 41.0752C28.0179 40.958 27.9154 40.8229 27.8438 40.6699C27.7754 40.5137 27.7412 40.3298 27.7412 40.1182C27.7412 39.9066 27.7803 39.7113 27.8584 39.5322C27.9398 39.3499 28.0537 39.1904 28.2002 39.0537C28.3467 38.917 28.5225 38.8112 28.7275 38.7363C28.9326 38.6582 29.1621 38.6191 29.416 38.6191C29.7773 38.6191 30.085 38.6891 30.3389 38.8291C30.5928 38.9691 30.7865 39.1611 30.9199 39.4053C31.0566 39.6462 31.125 39.918 31.125 40.2207H30.2656C30.2656 40.0742 30.2331 39.9359 30.168 39.8057C30.1029 39.6755 30.0068 39.5697 29.8799 39.4883C29.7529 39.4036 29.5983 39.3613 29.416 39.3613C29.224 39.3613 29.0677 39.3955 28.9473 39.4639C28.8268 39.5322 28.7389 39.6217 28.6836 39.7324C28.6315 39.8398 28.6055 39.9587 28.6055 40.0889C28.6055 40.1865 28.6185 40.2712 28.6445 40.3428C28.6738 40.4111 28.7227 40.4762 28.791 40.5381C28.8594 40.5967 28.9521 40.6585 29.0693 40.7236C29.1898 40.7855 29.3428 40.8571 29.5283 40.9385C29.8864 41.0785 30.1875 41.2201 30.4316 41.3633C30.6758 41.5065 30.8613 41.6742 30.9883 41.8662C31.1152 42.0583 31.1787 42.2959 31.1787 42.5791C31.1787 42.8102 31.1364 43.0202 31.0518 43.209C30.9704 43.3945 30.8532 43.554 30.7002 43.6875C30.5472 43.821 30.3633 43.9235 30.1484 43.9951C29.9368 44.0635 29.6992 44.0977 29.4355 44.0977C29.0384 44.0977 28.7015 44.0195 28.4248 43.8633C28.1514 43.7038 27.943 43.4971 27.7998 43.2432C27.6598 42.986 27.5898 42.7109 27.5898 42.418H28.4541C28.4639 42.6654 28.5192 42.8574 28.6201 42.9941C28.7243 43.1309 28.8496 43.2253 28.9961 43.2773C29.1426 43.3294 29.2891 43.3555 29.4355 43.3555C29.6276 43.3555 29.7887 43.3278 29.9189 43.2725C30.0492 43.2139 30.1468 43.1309 30.2119 43.0234C30.2803 42.916 30.3145 42.7907 30.3145 42.6475ZM34.2402 38.7168V39.4102H31.7744V38.7168H34.2402ZM32.5801 37.4326H33.4443V42.6914C33.4443 42.8704 33.4655 43.0055 33.5078 43.0967C33.5534 43.1878 33.6104 43.248 33.6787 43.2773C33.7471 43.3066 33.8203 43.3213 33.8984 43.3213C33.957 43.3213 34.0221 43.3148 34.0938 43.3018C34.1654 43.2855 34.2142 43.2725 34.2402 43.2627L34.2354 44C34.1768 44.0228 34.0986 44.0439 34.001 44.0635C33.9033 44.0863 33.7796 44.0977 33.6299 44.0977C33.4443 44.0977 33.2718 44.0537 33.1123 43.9658C32.9528 43.8779 32.8242 43.7314 32.7266 43.5264C32.6289 43.318 32.5801 43.0381 32.5801 42.6865V37.4326ZM37.8584 43.0967V40.2305C37.8584 40.0221 37.8258 39.8545 37.7607 39.7275C37.6989 39.6006 37.6045 39.5078 37.4775 39.4492C37.3538 39.3906 37.1976 39.3613 37.0088 39.3613C36.8265 39.3613 36.6686 39.3988 36.5352 39.4736C36.4049 39.5485 36.304 39.6478 36.2324 39.7715C36.1641 39.8952 36.1299 40.0319 36.1299 40.1816H35.2656C35.2656 39.9928 35.3063 39.8057 35.3877 39.6201C35.4723 39.4346 35.5928 39.2669 35.749 39.1172C35.9053 38.9642 36.0924 38.8437 36.3105 38.7559C36.5319 38.6647 36.7793 38.6191 37.0527 38.6191C37.3783 38.6191 37.6663 38.6729 37.917 38.7803C38.1676 38.8844 38.3646 39.0553 38.5078 39.293C38.651 39.5306 38.7227 39.8464 38.7227 40.2402V42.8477C38.7227 43.0234 38.7357 43.2106 38.7617 43.4092C38.791 43.6077 38.8317 43.7786 38.8838 43.9219V44H37.9902C37.9479 43.8958 37.9154 43.7575 37.8926 43.585C37.8698 43.4092 37.8584 43.2464 37.8584 43.0967ZM37.9951 40.7969L38.0049 41.4316H37.4043C37.1992 41.4316 37.012 41.4544 36.8428 41.5C36.6768 41.5456 36.5335 41.6123 36.4131 41.7002C36.2926 41.7848 36.1999 41.8906 36.1348 42.0176C36.0729 42.1445 36.042 42.2894 36.042 42.4521C36.042 42.6637 36.0713 42.833 36.1299 42.96C36.1885 43.0837 36.2764 43.1732 36.3936 43.2285C36.5107 43.2839 36.6589 43.3115 36.8379 43.3115C37.056 43.3115 37.248 43.2611 37.4141 43.1602C37.5801 43.0592 37.7087 42.9372 37.7998 42.7939C37.8942 42.6507 37.9382 42.5173 37.9316 42.3936L38.1221 42.7988C38.109 42.9258 38.0667 43.0641 37.9951 43.2139C37.9268 43.3604 37.8307 43.502 37.707 43.6387C37.5833 43.7721 37.4368 43.8828 37.2676 43.9707C37.1016 44.0553 36.9144 44.0977 36.7061 44.0977C36.4001 44.0977 36.1315 44.0391 35.9004 43.9219C35.6725 43.8047 35.4951 43.6322 35.3682 43.4043C35.2412 43.1764 35.1777 42.8949 35.1777 42.5596C35.1777 42.3057 35.2217 42.0713 35.3096 41.8564C35.3975 41.6416 35.5277 41.4561 35.7002 41.2998C35.8727 41.1403 36.0892 41.0166 36.3496 40.9287C36.6133 40.8408 36.9176 40.7969 37.2627 40.7969H37.9951ZM40.9297 39.5469V44H40.0654V38.7168H40.9004L40.9297 39.5469ZM42.2432 38.6875L42.248 39.5273C42.1764 39.5111 42.1113 39.5013 42.0527 39.498C41.9974 39.4915 41.9323 39.4883 41.8574 39.4883C41.6947 39.4883 41.5514 39.5208 41.4277 39.5859C41.3073 39.651 41.2031 39.7422 41.1152 39.8594C41.0273 39.9766 40.9574 40.1165 40.9053 40.2793C40.8532 40.4388 40.8174 40.6146 40.7979 40.8066L40.5732 40.9531C40.5732 40.6341 40.5977 40.3346 40.6465 40.0547C40.6986 39.7747 40.7783 39.5273 40.8857 39.3125C40.9932 39.0944 41.1299 38.9251 41.2959 38.8047C41.4652 38.681 41.667 38.6191 41.9014 38.6191C41.9535 38.6191 42.0169 38.6273 42.0918 38.6436C42.1699 38.6566 42.2204 38.6712 42.2432 38.6875ZM45.6758 42.6475C45.6758 42.514 45.6432 42.3968 45.5781 42.2959C45.513 42.195 45.4056 42.0973 45.2559 42.0029C45.1094 41.9085 44.9108 41.8076 44.6602 41.7002C44.416 41.5993 44.1963 41.5 44.001 41.4023C43.8089 41.3014 43.6462 41.1924 43.5127 41.0752C43.3792 40.958 43.2767 40.8229 43.2051 40.6699C43.1367 40.5137 43.1025 40.3298 43.1025 40.1182C43.1025 39.9066 43.1416 39.7113 43.2197 39.5322C43.3011 39.3499 43.415 39.1904 43.5615 39.0537C43.708 38.917 43.8838 38.8112 44.0889 38.7363C44.2939 38.6582 44.5234 38.6191 44.7773 38.6191C45.1387 38.6191 45.4463 38.6891 45.7002 38.8291C45.9541 38.9691 46.1478 39.1611 46.2812 39.4053C46.418 39.6462 46.4863 39.918 46.4863 40.2207H45.627C45.627 40.0742 45.5944 39.9359 45.5293 39.8057C45.4642 39.6755 45.3682 39.5697 45.2412 39.4883C45.1143 39.4036 44.9596 39.3613 44.7773 39.3613C44.5853 39.3613 44.429 39.3955 44.3086 39.4639C44.1882 39.5322 44.1003 39.6217 44.0449 39.7324C43.9928 39.8398 43.9668 39.9587 43.9668 40.0889C43.9668 40.1865 43.9798 40.2712 44.0059 40.3428C44.0352 40.4111 44.084 40.4762 44.1523 40.5381C44.2207 40.5967 44.3135 40.6585 44.4307 40.7236C44.5511 40.7855 44.7041 40.8571 44.8896 40.9385C45.2477 41.0785 45.5488 41.2201 45.793 41.3633C46.0371 41.5065 46.2227 41.6742 46.3496 41.8662C46.4766 42.0583 46.54 42.2959 46.54 42.5791C46.54 42.8102 46.4977 43.0202 46.4131 43.209C46.3317 43.3945 46.2145 43.554 46.0615 43.6875C45.9085 43.821 45.7246 43.9235 45.5098 43.9951C45.2982 44.0635 45.0605 44.0977 44.7969 44.0977C44.3997 44.0977 44.0628 44.0195 43.7861 43.8633C43.5127 43.7038 43.3044 43.4971 43.1611 43.2432C43.0212 42.986 42.9512 42.7109 42.9512 42.418H43.8154C43.8252 42.6654 43.8805 42.8574 43.9814 42.9941C44.0856 43.1309 44.2109 43.2253 44.3574 43.2773C44.5039 43.3294 44.6504 43.3555 44.7969 43.3555C44.9889 43.3555 45.1501 43.3278 45.2803 43.2725C45.4105 43.2139 45.5081 43.1309 45.5732 43.0234C45.6416 42.916 45.6758 42.7907 45.6758 42.6475ZM48.542 36.5V44H47.6777V36.5H48.542ZM51.2227 38.7168L49.3428 41.1826L48.1807 42.5205L48.1221 41.5586L48.9229 40.4551L50.1826 38.7168H51.2227ZM50.4316 44L48.9473 41.4805L49.3916 40.6748L51.4375 44H50.4316ZM53.9766 44.0977C53.6608 44.0977 53.376 44.0505 53.1221 43.9561C52.8682 43.8617 52.6517 43.7184 52.4727 43.5264C52.2936 43.3311 52.1569 43.0853 52.0625 42.7891C51.9681 42.4928 51.9209 42.1429 51.9209 41.7393V41.1436C51.9209 40.6781 51.9746 40.2842 52.082 39.9619C52.1927 39.6396 52.3408 39.3809 52.5264 39.1855C52.7119 38.987 52.9219 38.8437 53.1562 38.7559C53.3906 38.6647 53.6315 38.6191 53.8789 38.6191C54.2109 38.6191 54.4941 38.6729 54.7285 38.7803C54.9629 38.8877 55.1533 39.0472 55.2998 39.2588C55.4463 39.4704 55.5537 39.7308 55.6221 40.04C55.6937 40.3493 55.7295 40.7057 55.7295 41.1094V41.6123H52.4287V40.875H54.8652V40.7529C54.8522 40.4795 54.8148 40.2386 54.7529 40.0303C54.6943 39.8219 54.5967 39.6592 54.46 39.542C54.3232 39.4215 54.1296 39.3613 53.8789 39.3613C53.7194 39.3613 53.5713 39.389 53.4346 39.4443C53.3011 39.4964 53.1855 39.5892 53.0879 39.7227C52.9935 39.8529 52.9186 40.0335 52.8633 40.2646C52.8112 40.4958 52.7852 40.7887 52.7852 41.1436V41.7393C52.7852 42.0225 52.8112 42.2666 52.8633 42.4717C52.9186 42.6735 52.9984 42.8411 53.1025 42.9746C53.21 43.1048 53.3402 43.2025 53.4932 43.2676C53.6494 43.3294 53.8268 43.3604 54.0254 43.3604C54.3151 43.3604 54.5544 43.305 54.7432 43.1943C54.932 43.0804 55.0964 42.9355 55.2363 42.7598L55.6904 43.3018C55.596 43.4352 55.4723 43.5638 55.3193 43.6875C55.1696 43.8079 54.984 43.9072 54.7627 43.9854C54.5446 44.0602 54.2826 44.0977 53.9766 44.0977ZM22.2871 49.7168V50.4102H19.8213V49.7168H22.2871ZM20.627 48.4326H21.4912V53.6914C21.4912 53.8704 21.5124 54.0055 21.5547 54.0967C21.6003 54.1878 21.6572 54.248 21.7256 54.2773C21.7939 54.3066 21.8672 54.3213 21.9453 54.3213C22.0039 54.3213 22.069 54.3148 22.1406 54.3018C22.2122 54.2855 22.2611 54.2725 22.2871 54.2627L22.2822 55C22.2236 55.0228 22.1455 55.0439 22.0479 55.0635C21.9502 55.0863 21.8265 55.0977 21.6768 55.0977C21.4912 55.0977 21.3187 55.0537 21.1592 54.9658C20.9997 54.8779 20.8711 54.7314 20.7734 54.5264C20.6758 54.318 20.627 54.0381 20.627 53.6865V48.4326ZM25.9053 54.0967V51.2305C25.9053 51.0221 25.8727 50.8545 25.8076 50.7275C25.7458 50.6006 25.6514 50.5078 25.5244 50.4492C25.4007 50.3906 25.2445 50.3613 25.0557 50.3613C24.8734 50.3613 24.7155 50.3988 24.582 50.4736C24.4518 50.5485 24.3509 50.6478 24.2793 50.7715C24.2109 50.8952 24.1768 51.0319 24.1768 51.1816H23.3125C23.3125 50.9928 23.3532 50.8057 23.4346 50.6201C23.5192 50.4346 23.6396 50.2669 23.7959 50.1172C23.9521 49.9642 24.1393 49.8438 24.3574 49.7559C24.5788 49.6647 24.8262 49.6191 25.0996 49.6191C25.4251 49.6191 25.7132 49.6729 25.9639 49.7803C26.2145 49.8844 26.4115 50.0553 26.5547 50.293C26.6979 50.5306 26.7695 50.8464 26.7695 51.2402V53.8477C26.7695 54.0234 26.7826 54.2106 26.8086 54.4092C26.8379 54.6077 26.8786 54.7786 26.9307 54.9219V55H26.0371C25.9948 54.8958 25.9622 54.7575 25.9395 54.585C25.9167 54.4092 25.9053 54.2464 25.9053 54.0967ZM26.042 51.7969L26.0518 52.4316H25.4512C25.2461 52.4316 25.0589 52.4544 24.8896 52.5C24.7236 52.5456 24.5804 52.6123 24.46 52.7002C24.3395 52.7848 24.2467 52.8906 24.1816 53.0176C24.1198 53.1445 24.0889 53.2894 24.0889 53.4521C24.0889 53.6637 24.1182 53.833 24.1768 53.96C24.2354 54.0837 24.3232 54.1732 24.4404 54.2285C24.5576 54.2839 24.7057 54.3115 24.8848 54.3115C25.1029 54.3115 25.2949 54.2611 25.4609 54.1602C25.627 54.0592 25.7555 53.9372 25.8467 53.7939C25.9411 53.6507 25.985 53.5173 25.9785 53.3936L26.1689 53.7988C26.1559 53.9258 26.1136 54.0641 26.042 54.2139C25.9736 54.3604 25.8776 54.502 25.7539 54.6387C25.6302 54.7721 25.4837 54.8828 25.3145 54.9707C25.1484 55.0553 24.9613 55.0977 24.7529 55.0977C24.4469 55.0977 24.1784 55.0391 23.9473 54.9219C23.7194 54.8047 23.542 54.6322 23.415 54.4043C23.2881 54.1764 23.2246 53.8949 23.2246 53.5596C23.2246 53.3057 23.2686 53.0713 23.3564 52.8564C23.4443 52.6416 23.5745 52.4561 23.7471 52.2998C23.9196 52.1403 24.1361 52.0166 24.3965 51.9287C24.6602 51.8408 24.9645 51.7969 25.3096 51.7969H26.042ZM28.1123 47.5H28.9766V53.9746L28.9033 55H28.1123V47.5ZM31.9404 52.1191V52.6123C31.9404 53.029 31.9014 53.3936 31.8232 53.7061C31.7484 54.0153 31.6361 54.2741 31.4863 54.4824C31.3366 54.6875 31.1543 54.8421 30.9395 54.9463C30.7246 55.0472 30.4788 55.0977 30.2021 55.0977C29.9287 55.0977 29.6927 55.0423 29.4941 54.9316C29.2956 54.821 29.1296 54.6615 28.9961 54.4531C28.8626 54.2448 28.7568 53.9925 28.6787 53.6963C28.6038 53.4001 28.5518 53.0664 28.5225 52.6953V52.0361C28.5518 51.6618 28.6038 51.3265 28.6787 51.0303C28.7536 50.7308 28.8577 50.4769 28.9912 50.2686C29.1247 50.057 29.2907 49.8958 29.4893 49.7852C29.6878 49.6745 29.9238 49.6191 30.1973 49.6191C30.4772 49.6191 30.7246 49.668 30.9395 49.7656C31.1576 49.8633 31.3398 50.0146 31.4863 50.2197C31.6361 50.4215 31.7484 50.6803 31.8232 50.9961C31.9014 51.3086 31.9404 51.6829 31.9404 52.1191ZM31.0762 52.6123V52.1191C31.0762 51.8262 31.0566 51.5706 31.0176 51.3525C30.9818 51.1344 30.9215 50.9538 30.8369 50.8105C30.7523 50.6673 30.6383 50.5599 30.4951 50.4883C30.3551 50.4167 30.181 50.3809 29.9727 50.3809C29.7969 50.3809 29.6423 50.4167 29.5088 50.4883C29.3786 50.5599 29.2663 50.6576 29.1719 50.7812C29.0775 50.9017 28.9993 51.04 28.9375 51.1963C28.8757 51.3493 28.8301 51.5088 28.8008 51.6748V53.0615C28.8431 53.2731 28.9098 53.4766 29.001 53.6719C29.0954 53.8639 29.2223 54.0218 29.3818 54.1455C29.5413 54.2692 29.7399 54.3311 29.9775 54.3311C30.1761 54.3311 30.3438 54.2969 30.4805 54.2285C30.6204 54.1602 30.7344 54.056 30.8223 53.916C30.9102 53.7728 30.9736 53.5938 31.0127 53.3789C31.055 53.1608 31.0762 52.9053 31.0762 52.6123ZM33.9717 47.5V55L33.1123 55V47.5H33.9717ZM36.2666 49.7168V55H35.4072V49.7168H36.2666ZM35.3584 48.3154C35.3584 48.1689 35.3991 48.0452 35.4805 47.9443C35.5618 47.8434 35.6839 47.793 35.8467 47.793C36.0094 47.793 36.1315 47.8434 36.2129 47.9443C36.2975 48.0452 36.3398 48.1689 36.3398 48.3154C36.3398 48.4554 36.2975 48.5758 36.2129 48.6768C36.1315 48.7744 36.0094 48.8232 35.8467 48.8232C35.6839 48.8232 35.5618 48.7744 35.4805 48.6768C35.3991 48.5758 35.3584 48.4554 35.3584 48.3154ZM39.4648 54.3604C39.6374 54.3604 39.7936 54.3262 39.9336 54.2578C40.0768 54.1862 40.194 54.0755 40.2852 53.9258C40.3763 53.7728 40.4284 53.5742 40.4414 53.3301H41.252C41.2389 53.6816 41.1494 53.9909 40.9834 54.2578C40.8206 54.5215 40.6058 54.7282 40.3389 54.8779C40.0752 55.0244 39.7839 55.0977 39.4648 55.0977C39.123 55.0977 38.8252 55.0423 38.5713 54.9316C38.3206 54.821 38.1123 54.6615 37.9463 54.4531C37.7835 54.2415 37.6615 53.986 37.5801 53.6865C37.4987 53.3838 37.458 53.0404 37.458 52.6562V52.0605C37.458 51.6764 37.4987 51.3346 37.5801 51.0352C37.6615 50.7324 37.7835 50.4769 37.9463 50.2686C38.1123 50.057 38.3206 49.8958 38.5713 49.7852C38.8252 49.6745 39.123 49.6191 39.4648 49.6191C39.8229 49.6191 40.1322 49.6956 40.3926 49.8486C40.6562 49.9984 40.8613 50.2165 41.0078 50.5029C41.1576 50.7861 41.2389 51.1296 41.252 51.5332H40.4414C40.4284 51.2728 40.3812 51.0563 40.2998 50.8838C40.2184 50.708 40.1077 50.5778 39.9678 50.4932C39.8278 50.4053 39.6602 50.3613 39.4648 50.3613C39.237 50.3613 39.0482 50.402 38.8984 50.4834C38.752 50.5615 38.6364 50.6755 38.5518 50.8252C38.4671 50.9749 38.4069 51.154 38.3711 51.3623C38.3385 51.5706 38.3223 51.8034 38.3223 52.0605V52.6562C38.3223 52.9134 38.3385 53.1478 38.3711 53.3594C38.4069 53.5677 38.4655 53.7467 38.5469 53.8965C38.6315 54.0462 38.7487 54.1618 38.8984 54.2432C39.0482 54.3213 39.237 54.3604 39.4648 54.3604ZM44.1426 55.0977C43.8268 55.0977 43.542 55.0505 43.2881 54.9561C43.0342 54.8617 42.8177 54.7184 42.6387 54.5264C42.4596 54.3311 42.3229 54.0853 42.2285 53.7891C42.1341 53.4928 42.0869 53.1429 42.0869 52.7393V52.1436C42.0869 51.6781 42.1406 51.2842 42.248 50.9619C42.3587 50.6396 42.5068 50.3809 42.6924 50.1855C42.8779 49.987 43.0879 49.8437 43.3223 49.7559C43.5566 49.6647 43.7975 49.6191 44.0449 49.6191C44.377 49.6191 44.6602 49.6729 44.8945 49.7803C45.1289 49.8877 45.3193 50.0472 45.4658 50.2588C45.6123 50.4704 45.7197 50.7308 45.7881 51.04C45.8597 51.3493 45.8955 51.7057 45.8955 52.1094V52.6123H42.5947V51.875H45.0312V51.7529C45.0182 51.4795 44.9808 51.2386 44.9189 51.0303C44.8604 50.8219 44.7627 50.6592 44.626 50.542C44.4893 50.4215 44.2956 50.3613 44.0449 50.3613C43.8854 50.3613 43.7373 50.389 43.6006 50.4443C43.4671 50.4964 43.3516 50.5892 43.2539 50.7227C43.1595 50.8529 43.0846 51.0335 43.0293 51.2646C42.9772 51.4958 42.9512 51.7887 42.9512 52.1436V52.7393C42.9512 53.0225 42.9772 53.2666 43.0293 53.4717C43.0846 53.6735 43.1644 53.8411 43.2686 53.9746C43.376 54.1048 43.5062 54.2025 43.6592 54.2676C43.8154 54.3294 43.9928 54.3604 44.1914 54.3604C44.4811 54.3604 44.7204 54.305 44.9092 54.1943C45.098 54.0804 45.2624 53.9355 45.4023 53.7598L45.8564 54.3018C45.762 54.4352 45.6383 54.5638 45.4854 54.6875C45.3356 54.8079 45.1501 54.9072 44.9287 54.9854C44.7106 55.0602 44.4486 55.0977 44.1426 55.0977Z" fill="url(#paint0_linear_363_3199)"/>
<path d="M114.583 40.8906V48H113.68L110.833 42.5166V48H109.935V40.8906H110.833L113.694 46.3887V40.8906H114.583ZM118.606 47.0967V44.2305C118.606 44.0221 118.574 43.8545 118.509 43.7275C118.447 43.6006 118.353 43.5078 118.226 43.4492C118.102 43.3906 117.946 43.3613 117.757 43.3613C117.575 43.3613 117.417 43.3988 117.283 43.4736C117.153 43.5485 117.052 43.6478 116.98 43.7715C116.912 43.8952 116.878 44.0319 116.878 44.1816H116.014C116.014 43.9928 116.054 43.8057 116.136 43.6201C116.22 43.4346 116.341 43.2669 116.497 43.1172C116.653 42.9642 116.84 42.8438 117.059 42.7559C117.28 42.6647 117.527 42.6191 117.801 42.6191C118.126 42.6191 118.414 42.6729 118.665 42.7803C118.916 42.8844 119.113 43.0553 119.256 43.293C119.399 43.5306 119.471 43.8464 119.471 44.2402V46.8477C119.471 47.0234 119.484 47.2106 119.51 47.4092C119.539 47.6077 119.58 47.7786 119.632 47.9219V48H118.738C118.696 47.8958 118.663 47.7575 118.641 47.585C118.618 47.4092 118.606 47.2464 118.606 47.0967ZM118.743 44.7969L118.753 45.4316H118.152C117.947 45.4316 117.76 45.4544 117.591 45.5C117.425 45.5456 117.282 45.6123 117.161 45.7002C117.041 45.7848 116.948 45.8906 116.883 46.0176C116.821 46.1445 116.79 46.2894 116.79 46.4521C116.79 46.6637 116.819 46.833 116.878 46.96C116.937 47.0837 117.024 47.1732 117.142 47.2285C117.259 47.2839 117.407 47.3115 117.586 47.3115C117.804 47.3115 117.996 47.2611 118.162 47.1602C118.328 47.0592 118.457 46.9372 118.548 46.7939C118.642 46.6507 118.686 46.5173 118.68 46.3936L118.87 46.7988C118.857 46.9258 118.815 47.0641 118.743 47.2139C118.675 47.3604 118.579 47.502 118.455 47.6387C118.331 47.7721 118.185 47.8828 118.016 47.9707C117.85 48.0553 117.662 48.0977 117.454 48.0977C117.148 48.0977 116.88 48.0391 116.648 47.9219C116.421 47.8047 116.243 47.6322 116.116 47.4043C115.989 47.1764 115.926 46.8949 115.926 46.5596C115.926 46.3057 115.97 46.0713 116.058 45.8564C116.146 45.6416 116.276 45.4561 116.448 45.2998C116.621 45.1403 116.837 45.0166 117.098 44.9287C117.361 44.8408 117.666 44.7969 118.011 44.7969H118.743ZM121.678 43.7324V50.0312H120.813V42.7168H121.6L121.678 43.7324ZM124.632 45.1191V45.6123C124.632 46.029 124.593 46.3936 124.515 46.7061C124.44 47.0153 124.327 47.2741 124.178 47.4824C124.031 47.6875 123.851 47.8421 123.636 47.9463C123.421 48.0472 123.175 48.0977 122.898 48.0977C122.622 48.0977 122.381 48.0456 122.176 47.9414C121.974 47.834 121.803 47.6794 121.663 47.4775C121.526 47.2757 121.417 47.0332 121.336 46.75C121.258 46.4635 121.204 46.1429 121.175 45.7881V45.0361C121.204 44.6618 121.258 44.3265 121.336 44.0303C121.414 43.7308 121.521 43.4769 121.658 43.2686C121.798 43.057 121.969 42.8958 122.171 42.7852C122.376 42.6745 122.615 42.6191 122.889 42.6191C123.172 42.6191 123.421 42.668 123.636 42.7656C123.854 42.8633 124.036 43.0146 124.183 43.2197C124.332 43.4215 124.445 43.6803 124.52 43.9961C124.594 44.3086 124.632 44.6829 124.632 45.1191ZM123.768 45.6123V45.1191C123.768 44.8262 123.745 44.5706 123.699 44.3525C123.657 44.1344 123.589 43.9538 123.494 43.8105C123.4 43.6673 123.281 43.5599 123.138 43.4883C122.994 43.4167 122.822 43.3809 122.62 43.3809C122.448 43.3809 122.295 43.4167 122.161 43.4883C122.031 43.5599 121.919 43.6576 121.824 43.7812C121.73 43.9017 121.652 44.04 121.59 44.1963C121.528 44.3493 121.482 44.5088 121.453 44.6748V46.1543C121.508 46.3626 121.582 46.5596 121.673 46.7451C121.764 46.9274 121.886 47.0755 122.039 47.1895C122.195 47.3034 122.392 47.3604 122.63 47.3604C122.828 47.3604 122.999 47.3245 123.143 47.2529C123.286 47.1813 123.403 47.0739 123.494 46.9307C123.589 46.7842 123.657 46.6019 123.699 46.3838C123.745 46.1624 123.768 45.9053 123.768 45.6123ZM126.673 40.5V48H125.813V40.5H126.673ZM130.628 47.0967V44.2305C130.628 44.0221 130.595 43.8545 130.53 43.7275C130.468 43.6006 130.374 43.5078 130.247 43.4492C130.123 43.3906 129.967 43.3613 129.778 43.3613C129.596 43.3613 129.438 43.3988 129.305 43.4736C129.174 43.5485 129.074 43.6478 129.002 43.7715C128.934 43.8952 128.899 44.0319 128.899 44.1816H128.035C128.035 43.9928 128.076 43.8057 128.157 43.6201C128.242 43.4346 128.362 43.2669 128.519 43.1172C128.675 42.9642 128.862 42.8438 129.08 42.7559C129.301 42.6647 129.549 42.6191 129.822 42.6191C130.148 42.6191 130.436 42.6729 130.687 42.7803C130.937 42.8844 131.134 43.0553 131.277 43.293C131.421 43.5306 131.492 43.8464 131.492 44.2402V46.8477C131.492 47.0234 131.505 47.2106 131.531 47.4092C131.561 47.6077 131.601 47.7786 131.653 47.9219V48H130.76C130.717 47.8958 130.685 47.7575 130.662 47.585C130.639 47.4092 130.628 47.2464 130.628 47.0967ZM130.765 44.7969L130.774 45.4316H130.174C129.969 45.4316 129.782 45.4544 129.612 45.5C129.446 45.5456 129.303 45.6123 129.183 45.7002C129.062 45.7848 128.969 45.8906 128.904 46.0176C128.842 46.1445 128.812 46.2894 128.812 46.4521C128.812 46.6637 128.841 46.833 128.899 46.96C128.958 47.0837 129.046 47.1732 129.163 47.2285C129.28 47.2839 129.428 47.3115 129.607 47.3115C129.826 47.3115 130.018 47.2611 130.184 47.1602C130.35 47.0592 130.478 46.9372 130.569 46.7939C130.664 46.6507 130.708 46.5173 130.701 46.3936L130.892 46.7988C130.879 46.9258 130.836 47.0641 130.765 47.2139C130.696 47.3604 130.6 47.502 130.477 47.6387C130.353 47.7721 130.206 47.8828 130.037 47.9707C129.871 48.0553 129.684 48.0977 129.476 48.0977C129.17 48.0977 128.901 48.0391 128.67 47.9219C128.442 47.8047 128.265 47.6322 128.138 47.4043C128.011 47.1764 127.947 46.8949 127.947 46.5596C127.947 46.3057 127.991 46.0713 128.079 45.8564C128.167 45.6416 128.297 45.4561 128.47 45.2998C128.642 45.1403 128.859 45.0166 129.119 44.9287C129.383 44.8408 129.687 44.7969 130.032 44.7969H130.765ZM134.764 42.7168V43.4102H132.298V42.7168L134.764 42.7168ZM133.104 41.4326L133.968 41.4326V46.6914C133.968 46.8704 133.989 47.0055 134.031 47.0967C134.077 47.1878 134.134 47.248 134.202 47.2773C134.271 47.3066 134.344 47.3213 134.422 47.3213C134.48 47.3213 134.546 47.3148 134.617 47.3018C134.689 47.2855 134.738 47.2725 134.764 47.2627L134.759 48C134.7 48.0228 134.622 48.0439 134.524 48.0635C134.427 48.0863 134.303 48.0977 134.153 48.0977C133.968 48.0977 133.795 48.0537 133.636 47.9658C133.476 47.8779 133.348 47.7314 133.25 47.5264C133.152 47.318 133.104 47.0381 133.104 46.6865V41.4326ZM137.684 48.0977C137.368 48.0977 137.083 48.0505 136.829 47.9561C136.575 47.8617 136.359 47.7184 136.18 47.5264C136.001 47.3311 135.864 47.0853 135.77 46.7891C135.675 46.4928 135.628 46.1429 135.628 45.7393V45.1436C135.628 44.6781 135.682 44.2842 135.789 43.9619C135.9 43.6396 136.048 43.3809 136.233 43.1855C136.419 42.987 136.629 42.8437 136.863 42.7559C137.098 42.6647 137.339 42.6191 137.586 42.6191C137.918 42.6191 138.201 42.6729 138.436 42.7803C138.67 42.8877 138.86 43.0472 139.007 43.2588C139.153 43.4704 139.261 43.7308 139.329 44.04C139.401 44.3493 139.437 44.7057 139.437 45.1094V45.6123L136.136 45.6123V44.875L138.572 44.875V44.7529C138.559 44.4795 138.522 44.2386 138.46 44.0303C138.401 43.8219 138.304 43.6592 138.167 43.542C138.03 43.4215 137.837 43.3613 137.586 43.3613C137.426 43.3613 137.278 43.389 137.142 43.4443C137.008 43.4964 136.893 43.5892 136.795 43.7227C136.701 43.8529 136.626 44.0335 136.57 44.2646C136.518 44.4958 136.492 44.7887 136.492 45.1436V45.7393C136.492 46.0225 136.518 46.2666 136.57 46.4717C136.626 46.6735 136.705 46.8411 136.81 46.9746C136.917 47.1048 137.047 47.2025 137.2 47.2676C137.356 47.3294 137.534 47.3604 137.732 47.3604C138.022 47.3604 138.261 47.305 138.45 47.1943C138.639 47.0804 138.803 46.9355 138.943 46.7598L139.397 47.3018C139.303 47.4352 139.179 47.5638 139.026 47.6875C138.877 47.8079 138.691 47.9072 138.47 47.9854C138.252 48.0602 137.99 48.0977 137.684 48.0977Z" fill="url(#paint1_linear_363_3199)"/>
<path d="M193.133 42.9209L194.842 36.8906H195.818L193.611 44H192.923L193.133 42.9209ZM191.6 36.8906L193.294 42.9209L193.519 44H192.83L190.623 36.8906H191.6ZM198.343 44.0977C198.027 44.0977 197.742 44.0505 197.488 43.9561C197.234 43.8617 197.018 43.7184 196.839 43.5264C196.66 43.3311 196.523 43.0853 196.429 42.7891C196.334 42.4928 196.287 42.1429 196.287 41.7393V41.1436C196.287 40.6781 196.341 40.2842 196.448 39.9619C196.559 39.6396 196.707 39.3809 196.893 39.1855C197.078 38.987 197.288 38.8438 197.522 38.7559C197.757 38.6647 197.998 38.6191 198.245 38.6191C198.577 38.6191 198.86 38.6729 199.095 38.7803C199.329 38.8877 199.52 39.0472 199.666 39.2588C199.812 39.4704 199.92 39.7308 199.988 40.04C200.06 40.3493 200.096 40.7057 200.096 41.1094V41.6123H196.795V40.875H199.231V40.7529C199.218 40.4795 199.181 40.2386 199.119 40.0303C199.061 39.8219 198.963 39.6592 198.826 39.542C198.689 39.4215 198.496 39.3613 198.245 39.3613C198.086 39.3613 197.938 39.389 197.801 39.4443C197.667 39.4964 197.552 39.5892 197.454 39.7227C197.36 39.8529 197.285 40.0335 197.229 40.2646C197.177 40.4958 197.151 40.7887 197.151 41.1436V41.7393C197.151 42.0225 197.177 42.2666 197.229 42.4717C197.285 42.6735 197.365 42.8411 197.469 42.9746C197.576 43.1048 197.706 43.2025 197.859 43.2676C198.016 43.3294 198.193 43.3604 198.392 43.3604C198.681 43.3604 198.921 43.305 199.109 43.1943C199.298 43.0804 199.463 42.9355 199.603 42.7598L200.057 43.3018C199.962 43.4352 199.839 43.5638 199.686 43.6875C199.536 43.8079 199.35 43.9072 199.129 43.9854C198.911 44.0602 198.649 44.0977 198.343 44.0977ZM202.005 39.5469V44H201.141V38.7168H201.976L202.005 39.5469ZM203.318 38.6875L203.323 39.5273C203.252 39.5111 203.187 39.5013 203.128 39.498C203.073 39.4915 203.007 39.4883 202.933 39.4883C202.77 39.4883 202.627 39.5208 202.503 39.5859C202.382 39.651 202.278 39.7422 202.19 39.8594C202.103 39.9766 202.033 40.1165 201.98 40.2793C201.928 40.4388 201.893 40.6146 201.873 40.8066L201.648 40.9531C201.648 40.6341 201.673 40.3346 201.722 40.0547C201.774 39.7747 201.854 39.5273 201.961 39.3125C202.068 39.0944 202.205 38.9251 202.371 38.8047C202.54 38.681 202.742 38.6191 202.977 38.6191C203.029 38.6191 203.092 38.6273 203.167 38.6436C203.245 38.6566 203.296 38.6712 203.318 38.6875ZM205.115 38.7168V44H204.256V38.7168H205.115ZM204.207 37.3154C204.207 37.1689 204.248 37.0452 204.329 36.9443C204.41 36.8434 204.533 36.793 204.695 36.793C204.858 36.793 204.98 36.8434 205.062 36.9443C205.146 37.0452 205.188 37.1689 205.188 37.3154C205.188 37.4554 205.146 37.5758 205.062 37.6768C204.98 37.7744 204.858 37.8232 204.695 37.8232C204.533 37.8232 204.41 37.7744 204.329 37.6768C204.248 37.5758 204.207 37.4554 204.207 37.3154ZM207.586 44H206.722V38.2578C206.722 37.8574 206.788 37.5189 206.922 37.2422C207.059 36.9655 207.252 36.7555 207.503 36.6123C207.757 36.4691 208.056 36.3975 208.401 36.3975C208.606 36.3975 208.803 36.4268 208.992 36.4854C209.181 36.5407 209.376 36.6107 209.578 36.6953L209.432 37.457C209.314 37.3984 209.171 37.3431 209.002 37.291C208.833 37.2357 208.655 37.208 208.47 37.208C208.144 37.208 207.915 37.2959 207.781 37.4717C207.651 37.6442 207.586 37.9062 207.586 38.2578V44ZM208.44 38.7168V39.4102H206.033V38.7168H208.44ZM209.993 38.7168V44H209.129V38.7168H209.993ZM212.254 36.5V44H211.39V36.5H212.254ZM214.935 38.7168L213.055 41.1826L211.893 42.5205L211.834 41.5586L212.635 40.4551L213.895 38.7168H214.935ZM214.144 44L212.659 41.4805L213.104 40.6748L215.149 44H214.144ZM218.484 43.0967V40.2305C218.484 40.0221 218.452 39.8545 218.387 39.7275C218.325 39.6006 218.23 39.5078 218.104 39.4492C217.98 39.3906 217.824 39.3613 217.635 39.3613C217.452 39.3613 217.295 39.3988 217.161 39.4736C217.031 39.5485 216.93 39.6478 216.858 39.7715C216.79 39.8952 216.756 40.0319 216.756 40.1816H215.892C215.892 39.9928 215.932 39.8057 216.014 39.6201C216.098 39.4346 216.219 39.2669 216.375 39.1172C216.531 38.9642 216.718 38.8437 216.937 38.7559C217.158 38.6647 217.405 38.6191 217.679 38.6191C218.004 38.6191 218.292 38.6729 218.543 38.7803C218.794 38.8844 218.991 39.0553 219.134 39.293C219.277 39.5306 219.349 39.8464 219.349 40.2402V42.8477C219.349 43.0234 219.362 43.2106 219.388 43.4092C219.417 43.6077 219.458 43.7786 219.51 43.9219V44H218.616C218.574 43.8958 218.541 43.7575 218.519 43.585C218.496 43.4092 218.484 43.2464 218.484 43.0967ZM218.621 40.7969L218.631 41.4316H218.03C217.825 41.4316 217.638 41.4544 217.469 41.5C217.303 41.5456 217.16 41.6123 217.039 41.7002C216.919 41.7848 216.826 41.8906 216.761 42.0176C216.699 42.1445 216.668 42.2894 216.668 42.4521C216.668 42.6637 216.697 42.833 216.756 42.96C216.814 43.0837 216.902 43.1732 217.02 43.2285C217.137 43.2839 217.285 43.3115 217.464 43.3115C217.682 43.3115 217.874 43.2611 218.04 43.1602C218.206 43.0592 218.335 42.9372 218.426 42.7939C218.52 42.6507 218.564 42.5173 218.558 42.3936L218.748 42.7988C218.735 42.9258 218.693 43.0641 218.621 43.2139C218.553 43.3604 218.457 43.502 218.333 43.6387C218.209 43.7721 218.063 43.8828 217.894 43.9707C217.728 44.0553 217.54 44.0977 217.332 44.0977C217.026 44.0977 216.757 44.0391 216.526 43.9219C216.299 43.8047 216.121 43.6322 215.994 43.4043C215.867 43.1764 215.804 42.8949 215.804 42.5596C215.804 42.3057 215.848 42.0713 215.936 41.8564C216.023 41.6416 216.154 41.4561 216.326 41.2998C216.499 41.1403 216.715 41.0166 216.976 40.9287C217.239 40.8408 217.544 40.7969 217.889 40.7969H218.621ZM222.522 43.3604C222.695 43.3604 222.851 43.3262 222.991 43.2578C223.134 43.1862 223.252 43.0755 223.343 42.9258C223.434 42.7728 223.486 42.5742 223.499 42.3301H224.31C224.297 42.6816 224.207 42.9909 224.041 43.2578C223.878 43.5215 223.663 43.7282 223.396 43.8779C223.133 44.0244 222.841 44.0977 222.522 44.0977C222.181 44.0977 221.883 44.0423 221.629 43.9316C221.378 43.821 221.17 43.6615 221.004 43.4531C220.841 43.2415 220.719 42.986 220.638 42.6865C220.556 42.3838 220.516 42.0404 220.516 41.6562V41.0605C220.516 40.6764 220.556 40.3346 220.638 40.0352C220.719 39.7324 220.841 39.4769 221.004 39.2686C221.17 39.057 221.378 38.8958 221.629 38.7852C221.883 38.6745 222.181 38.6191 222.522 38.6191C222.881 38.6191 223.19 38.6956 223.45 38.8486C223.714 38.9984 223.919 39.2165 224.065 39.5029C224.215 39.7861 224.297 40.1296 224.31 40.5332H223.499C223.486 40.2728 223.439 40.0563 223.357 39.8838C223.276 39.708 223.165 39.5778 223.025 39.4932C222.885 39.4053 222.718 39.3613 222.522 39.3613C222.295 39.3613 222.106 39.402 221.956 39.4834C221.81 39.5615 221.694 39.6755 221.609 39.8252C221.525 39.9749 221.465 40.154 221.429 40.3623C221.396 40.5706 221.38 40.8034 221.38 41.0605V41.6562C221.38 41.9134 221.396 42.1478 221.429 42.3594C221.465 42.5677 221.523 42.7467 221.604 42.8965C221.689 43.0462 221.806 43.1618 221.956 43.2432C222.106 43.3213 222.295 43.3604 222.522 43.3604ZM226.238 38.7168V44H225.379V38.7168H226.238ZM225.33 37.3154C225.33 37.1689 225.371 37.0452 225.452 36.9443C225.534 36.8434 225.656 36.793 225.818 36.793C225.981 36.793 226.103 36.8434 226.185 36.9443C226.269 37.0452 226.312 37.1689 226.312 37.3154C226.312 37.4554 226.269 37.5758 226.185 37.6768C226.103 37.7744 225.981 37.8232 225.818 37.8232C225.656 37.8232 225.534 37.7744 225.452 37.6768C225.371 37.5758 225.33 37.4554 225.33 37.3154ZM227.625 38.7168H228.484V44.6299C228.484 44.9521 228.442 45.2256 228.357 45.4502C228.276 45.6748 228.149 45.8441 227.977 45.958C227.807 46.0752 227.591 46.1338 227.327 46.1338C227.256 46.1338 227.173 46.1257 227.078 46.1094C226.987 46.0931 226.909 46.0736 226.844 46.0508V45.3232C226.899 45.3363 226.959 45.346 227.024 45.3525C227.09 45.3623 227.143 45.3672 227.186 45.3672C227.28 45.3672 227.36 45.3428 227.425 45.2939C227.49 45.2451 227.539 45.167 227.571 45.0596C227.607 44.9521 227.625 44.8089 227.625 44.6299V38.7168ZM227.547 37.3154C227.547 37.1689 227.588 37.0452 227.669 36.9443C227.754 36.8434 227.876 36.793 228.035 36.793C228.198 36.793 228.32 36.8434 228.401 36.9443C228.486 37.0452 228.528 37.1689 228.528 37.3154C228.528 37.4554 228.486 37.5758 228.401 37.6768C228.32 37.7744 228.198 37.8232 228.035 37.8232C227.876 37.8232 227.754 37.7744 227.669 37.6768C227.588 37.5758 227.547 37.4554 227.547 37.3154ZM232.439 43.0967V40.2305C232.439 40.0221 232.407 39.8545 232.342 39.7275C232.28 39.6006 232.186 39.5078 232.059 39.4492C231.935 39.3906 231.779 39.3613 231.59 39.3613C231.408 39.3613 231.25 39.3988 231.116 39.4736C230.986 39.5485 230.885 39.6478 230.813 39.7715C230.745 39.8952 230.711 40.0319 230.711 40.1816H229.847C229.847 39.9928 229.887 39.8057 229.969 39.6201C230.053 39.4346 230.174 39.2669 230.33 39.1172C230.486 38.9642 230.674 38.8437 230.892 38.7559C231.113 38.6647 231.36 38.6191 231.634 38.6191C231.959 38.6191 232.247 38.6729 232.498 38.7803C232.749 38.8844 232.946 39.0553 233.089 39.293C233.232 39.5306 233.304 39.8464 233.304 40.2402V42.8477C233.304 43.0234 233.317 43.2106 233.343 43.4092C233.372 43.6077 233.413 43.7786 233.465 43.9219V44H232.571C232.529 43.8958 232.496 43.7575 232.474 43.585C232.451 43.4092 232.439 43.2464 232.439 43.0967ZM232.576 40.7969L232.586 41.4316H231.985C231.78 41.4316 231.593 41.4544 231.424 41.5C231.258 41.5456 231.115 41.6123 230.994 41.7002C230.874 41.7848 230.781 41.8906 230.716 42.0176C230.654 42.1445 230.623 42.2894 230.623 42.4521C230.623 42.6637 230.652 42.833 230.711 42.96C230.77 43.0837 230.857 43.1732 230.975 43.2285C231.092 43.2839 231.24 43.3115 231.419 43.3115C231.637 43.3115 231.829 43.2611 231.995 43.1602C232.161 43.0592 232.29 42.9372 232.381 42.7939C232.475 42.6507 232.519 42.5173 232.513 42.3936L232.703 42.7988C232.69 42.9258 232.648 43.0641 232.576 43.2139C232.508 43.3604 232.412 43.502 232.288 43.6387C232.164 43.7721 232.018 43.8828 231.849 43.9707C231.683 44.0553 231.495 44.0977 231.287 44.0977C230.981 44.0977 230.713 44.0391 230.481 43.9219C230.254 43.8047 230.076 43.6322 229.949 43.4043C229.822 43.1764 229.759 42.8949 229.759 42.5596C229.759 42.3057 229.803 42.0713 229.891 41.8564C229.979 41.6416 230.109 41.4561 230.281 41.2998C230.454 41.1403 230.67 41.0166 230.931 40.9287C231.194 40.8408 231.499 40.7969 231.844 40.7969H232.576ZM237.869 38.7168V44H237.01V38.7168H237.869ZM236.961 37.3154C236.961 37.1689 237.002 37.0452 237.083 36.9443C237.164 36.8434 237.286 36.793 237.449 36.793C237.612 36.793 237.734 36.8434 237.815 36.9443C237.9 37.0452 237.942 37.1689 237.942 37.3154C237.942 37.4554 237.9 37.5758 237.815 37.6768C237.734 37.7744 237.612 37.8232 237.449 37.8232C237.286 37.8232 237.164 37.7744 237.083 37.6768C237.002 37.5758 236.961 37.4554 236.961 37.3154ZM199.407 50.7324V57.0312H198.543V49.7168H199.329L199.407 50.7324ZM202.361 52.1191V52.6123C202.361 53.029 202.322 53.3936 202.244 53.7061C202.169 54.0153 202.057 54.2741 201.907 54.4824C201.761 54.6875 201.58 54.8421 201.365 54.9463C201.15 55.0472 200.905 55.0977 200.628 55.0977C200.351 55.0977 200.11 55.0456 199.905 54.9414C199.703 54.834 199.533 54.6794 199.393 54.4775C199.256 54.2757 199.147 54.0332 199.065 53.75C198.987 53.4635 198.934 53.1429 198.904 52.7881V52.0361C198.934 51.6618 198.987 51.3265 199.065 51.0303C199.144 50.7308 199.251 50.4769 199.388 50.2686C199.528 50.057 199.699 49.8958 199.9 49.7852C200.105 49.6745 200.345 49.6191 200.618 49.6191C200.901 49.6191 201.15 49.668 201.365 49.7656C201.583 49.8633 201.766 50.0146 201.912 50.2197C202.062 50.4215 202.174 50.6803 202.249 50.9961C202.324 51.3086 202.361 51.6829 202.361 52.1191ZM201.497 52.6123V52.1191C201.497 51.8262 201.474 51.5706 201.429 51.3525C201.386 51.1344 201.318 50.9538 201.224 50.8105C201.129 50.6673 201.01 50.5599 200.867 50.4883C200.724 50.4167 200.551 50.3809 200.35 50.3809C200.177 50.3809 200.024 50.4167 199.891 50.4883C199.76 50.5599 199.648 50.6576 199.554 50.7812C199.459 50.9017 199.381 51.04 199.319 51.1963C199.257 51.3493 199.212 51.5088 199.183 51.6748V53.1543C199.238 53.3626 199.311 53.5596 199.402 53.7451C199.493 53.9274 199.616 54.0755 199.769 54.1895C199.925 54.3034 200.122 54.3604 200.359 54.3604C200.558 54.3604 200.729 54.3245 200.872 54.2529C201.015 54.1813 201.132 54.0739 201.224 53.9307C201.318 53.7842 201.386 53.6019 201.429 53.3838C201.474 53.1624 201.497 52.9053 201.497 52.6123ZM204.402 47.5V55H203.543V47.5H204.402ZM208.357 54.0967V51.2305C208.357 51.0221 208.325 50.8545 208.26 50.7275C208.198 50.6006 208.104 50.5078 207.977 50.4492C207.853 50.3906 207.697 50.3613 207.508 50.3613C207.326 50.3613 207.168 50.3988 207.034 50.4736C206.904 50.5485 206.803 50.6478 206.731 50.7715C206.663 50.8952 206.629 51.0319 206.629 51.1816H205.765C205.765 50.9928 205.805 50.8057 205.887 50.6201C205.971 50.4346 206.092 50.2669 206.248 50.1172C206.404 49.9642 206.591 49.8438 206.81 49.7559C207.031 49.6647 207.278 49.6191 207.552 49.6191C207.877 49.6191 208.165 49.6729 208.416 49.7803C208.667 49.8844 208.864 50.0553 209.007 50.293C209.15 50.5306 209.222 50.8464 209.222 51.2402V53.8477C209.222 54.0234 209.235 54.2106 209.261 54.4092C209.29 54.6077 209.331 54.7786 209.383 54.9219V55H208.489C208.447 54.8958 208.414 54.7575 208.392 54.585C208.369 54.4092 208.357 54.2464 208.357 54.0967ZM208.494 51.7969L208.504 52.4316H207.903C207.698 52.4316 207.511 52.4544 207.342 52.5C207.176 52.5456 207.033 52.6123 206.912 52.7002C206.792 52.7848 206.699 52.8906 206.634 53.0176C206.572 53.1445 206.541 53.2894 206.541 53.4521C206.541 53.6637 206.57 53.833 206.629 53.96C206.688 54.0837 206.775 54.1732 206.893 54.2285C207.01 54.2839 207.158 54.3115 207.337 54.3115C207.555 54.3115 207.747 54.2611 207.913 54.1602C208.079 54.0592 208.208 53.9372 208.299 53.7939C208.393 53.6507 208.437 53.5173 208.431 53.3936L208.621 53.7988C208.608 53.9258 208.566 54.0641 208.494 54.2139C208.426 54.3604 208.33 54.502 208.206 54.6387C208.082 54.7721 207.936 54.8828 207.767 54.9707C207.601 55.0553 207.413 55.0977 207.205 55.0977C206.899 55.0977 206.631 55.0391 206.399 54.9219C206.172 54.8047 205.994 54.6322 205.867 54.4043C205.74 54.1764 205.677 53.8949 205.677 53.5596C205.677 53.3057 205.721 53.0713 205.809 52.8564C205.896 52.6416 206.027 52.4561 206.199 52.2998C206.372 52.1403 206.588 52.0166 206.849 51.9287C207.112 51.8408 207.417 51.7969 207.762 51.7969H208.494ZM212.396 54.3604C212.568 54.3604 212.724 54.3262 212.864 54.2578C213.007 54.1862 213.125 54.0755 213.216 53.9258C213.307 53.7728 213.359 53.5742 213.372 53.3301H214.183C214.17 53.6816 214.08 53.9909 213.914 54.2578C213.751 54.5215 213.536 54.7282 213.27 54.8779C213.006 55.0244 212.715 55.0977 212.396 55.0977C212.054 55.0977 211.756 55.0423 211.502 54.9316C211.251 54.821 211.043 54.6615 210.877 54.4531C210.714 54.2415 210.592 53.986 210.511 53.6865C210.429 53.3838 210.389 53.0404 210.389 52.6562V52.0605C210.389 51.6764 210.429 51.3346 210.511 51.0352C210.592 50.7324 210.714 50.4769 210.877 50.2686C211.043 50.057 211.251 49.8958 211.502 49.7852C211.756 49.6745 212.054 49.6191 212.396 49.6191C212.754 49.6191 213.063 49.6956 213.323 49.8486C213.587 49.9984 213.792 50.2165 213.938 50.5029C214.088 50.7861 214.17 51.1296 214.183 51.5332H213.372C213.359 51.2728 213.312 51.0563 213.23 50.8838C213.149 50.708 213.038 50.5778 212.898 50.4932C212.758 50.4053 212.591 50.3613 212.396 50.3613C212.168 50.3613 211.979 50.402 211.829 50.4834C211.683 50.5615 211.567 50.6755 211.482 50.8252C211.398 50.9749 211.338 51.154 211.302 51.3623C211.269 51.5706 211.253 51.8034 211.253 52.0605V52.6562C211.253 52.9134 211.269 53.1478 211.302 53.3594C211.338 53.5677 211.396 53.7467 211.478 53.8965C211.562 54.0462 211.679 54.1618 211.829 54.2432C211.979 54.3213 212.168 54.3604 212.396 54.3604ZM211.688 48.9355L212.635 47.5H213.724L212.415 48.9355H211.688ZM217.771 54.0967V51.2305C217.771 51.0221 217.739 50.8545 217.674 50.7275C217.612 50.6006 217.518 50.5078 217.391 50.4492C217.267 50.3906 217.111 50.3613 216.922 50.3613C216.74 50.3613 216.582 50.3988 216.448 50.4736C216.318 50.5485 216.217 50.6478 216.146 50.7715C216.077 50.8952 216.043 51.0319 216.043 51.1816H215.179C215.179 50.9928 215.219 50.8057 215.301 50.6201C215.385 50.4346 215.506 50.2669 215.662 50.1172C215.818 49.9642 216.006 49.8438 216.224 49.7559C216.445 49.6647 216.692 49.6191 216.966 49.6191C217.291 49.6191 217.579 49.6729 217.83 49.7803C218.081 49.8844 218.278 50.0553 218.421 50.293C218.564 50.5306 218.636 50.8464 218.636 51.2402V53.8477C218.636 54.0234 218.649 54.2106 218.675 54.4092C218.704 54.6077 218.745 54.7786 218.797 54.9219V55H217.903C217.861 54.8958 217.828 54.7575 217.806 54.585C217.783 54.4092 217.771 54.2464 217.771 54.0967ZM217.908 51.7969L217.918 52.4316H217.317C217.112 52.4316 216.925 52.4544 216.756 52.5C216.59 52.5456 216.447 52.6123 216.326 52.7002C216.206 52.7848 216.113 52.8906 216.048 53.0176C215.986 53.1445 215.955 53.2894 215.955 53.4521C215.955 53.6637 215.984 53.833 216.043 53.96C216.102 54.0837 216.189 54.1732 216.307 54.2285C216.424 54.2839 216.572 54.3115 216.751 54.3115C216.969 54.3115 217.161 54.2611 217.327 54.1602C217.493 54.0592 217.622 53.9372 217.713 53.7939C217.807 53.6507 217.851 53.5173 217.845 53.3936L218.035 53.7988C218.022 53.9258 217.98 54.0641 217.908 54.2139C217.84 54.3604 217.744 54.502 217.62 54.6387C217.496 54.7721 217.35 54.8828 217.181 54.9707C217.015 55.0553 216.827 55.0977 216.619 55.0977C216.313 55.0977 216.045 55.0391 215.813 54.9219C215.586 54.8047 215.408 54.6322 215.281 54.4043C215.154 54.1764 215.091 53.8949 215.091 53.5596C215.091 53.3057 215.135 53.0713 215.223 52.8564C215.311 52.6416 215.441 52.4561 215.613 52.2998C215.786 52.1403 216.002 52.0166 216.263 51.9287C216.526 51.8408 216.831 51.7969 217.176 51.7969H217.908ZM220.843 50.8447V55H219.979V49.7168H220.794L220.843 50.8447ZM220.633 52.1582L220.281 52.1436C220.278 51.7822 220.319 51.4486 220.403 51.1426C220.491 50.8333 220.615 50.5648 220.774 50.3369C220.937 50.109 221.131 49.9333 221.355 49.8096C221.58 49.6826 221.829 49.6191 222.103 49.6191C222.317 49.6191 222.513 49.6549 222.688 49.7266C222.864 49.7949 223.014 49.9056 223.138 50.0586C223.261 50.2116 223.356 50.4102 223.421 50.6543C223.489 50.8952 223.523 51.1898 223.523 51.5381V55L222.659 55V51.5283C222.659 51.2516 222.628 51.0303 222.566 50.8643C222.508 50.695 222.417 50.5729 222.293 50.498C222.173 50.4199 222.02 50.3809 221.834 50.3809C221.665 50.3809 221.507 50.4281 221.36 50.5225C221.214 50.6169 221.085 50.7471 220.975 50.9131C220.867 51.0791 220.783 51.2695 220.721 51.4844C220.662 51.696 220.633 51.9206 220.633 52.1582ZM224.842 49.7168H225.701V55.6299C225.701 55.9521 225.659 56.2256 225.574 56.4502C225.493 56.6748 225.366 56.8441 225.193 56.958C225.024 57.0752 224.808 57.1338 224.544 57.1338C224.472 57.1338 224.389 57.1257 224.295 57.1094C224.204 57.0931 224.126 57.0736 224.061 57.0508V56.3232C224.116 56.3363 224.176 56.346 224.241 56.3525C224.306 56.3623 224.36 56.3672 224.402 56.3672C224.497 56.3672 224.576 56.3428 224.642 56.2939C224.707 56.2451 224.756 56.167 224.788 56.0596C224.824 55.9521 224.842 55.8089 224.842 55.6299V49.7168ZM224.764 48.3154C224.764 48.1689 224.804 48.0452 224.886 47.9443C224.97 47.8434 225.092 47.793 225.252 47.793C225.415 47.793 225.537 47.8434 225.618 47.9443C225.703 48.0452 225.745 48.1689 225.745 48.3154C225.745 48.4554 225.703 48.5758 225.618 48.6768C225.537 48.7744 225.415 48.8232 225.252 48.8232C225.092 48.8232 224.97 48.7744 224.886 48.6768C224.804 48.5758 224.764 48.4554 224.764 48.3154ZM228.958 55.0977C228.642 55.0977 228.357 55.0505 228.104 54.9561C227.85 54.8617 227.633 54.7184 227.454 54.5264C227.275 54.3311 227.138 54.0853 227.044 53.7891C226.95 53.4928 226.902 53.1429 226.902 52.7393V52.1436C226.902 51.6781 226.956 51.2842 227.063 50.9619C227.174 50.6396 227.322 50.3809 227.508 50.1855C227.693 49.987 227.903 49.8437 228.138 49.7559C228.372 49.6647 228.613 49.6191 228.86 49.6191C229.192 49.6191 229.476 49.6729 229.71 49.7803C229.944 49.8877 230.135 50.0472 230.281 50.2588C230.428 50.4704 230.535 50.7308 230.604 51.04C230.675 51.3493 230.711 51.7057 230.711 52.1094V52.6123H227.41V51.875H229.847V51.7529C229.834 51.4795 229.796 51.2386 229.734 51.0303C229.676 50.8219 229.578 50.6592 229.441 50.542C229.305 50.4215 229.111 50.3613 228.86 50.3613C228.701 50.3613 228.553 50.389 228.416 50.4443C228.283 50.4964 228.167 50.5892 228.069 50.7227C227.975 50.8529 227.9 51.0335 227.845 51.2646C227.793 51.4958 227.767 51.7887 227.767 52.1436V52.7393C227.767 53.0225 227.793 53.2666 227.845 53.4717C227.9 53.6735 227.98 53.8411 228.084 53.9746C228.191 54.1048 228.322 54.2025 228.475 54.2676C228.631 54.3294 228.808 54.3604 229.007 54.3604C229.297 54.3604 229.536 54.305 229.725 54.1943C229.913 54.0804 230.078 53.9355 230.218 53.7598L230.672 54.3018C230.577 54.4352 230.454 54.5638 230.301 54.6875C230.151 54.8079 229.965 54.9072 229.744 54.9854C229.526 55.0602 229.264 55.0977 228.958 55.0977Z" fill="url(#paint2_linear_363_3199)"/>
<path fill-rule="evenodd" clip-rule="evenodd" d="M204 16L137 16V14L204 14V16Z" fill="url(#paint3_linear_363_3199)"/>
<path fill-rule="evenodd" clip-rule="evenodd" d="M111 16L44 16V14L111 14V16Z" fill="url(#paint4_linear_363_3199)"/>
<path fill-rule="evenodd" clip-rule="evenodd" d="M18.7612 6.17317C18 8.01088 18 10.3406 18 15C18 19.6594 18 21.9891 18.7612 23.8268C19.7761 26.2771 21.7229 28.2239 24.1732 29.2388C26.0109 30 28.3406 30 33 30C37.6594 30 39.9891 30 41.8268 29.2388C44.2771 28.2239 46.2239 26.2771 47.2388 23.8268C48 21.9891 48 19.6594 48 15C48 10.3406 48 8.01088 47.2388 6.17317C46.2239 3.72288 44.2771 1.77614 41.8268 0.761205C39.9891 0 37.6594 0 33 0C28.3406 0 26.0109 0 24.1732 0.761205C21.7229 1.77614 19.7761 3.72288 18.7612 6.17317ZM39.7071 11.7071C40.0976 11.3166 40.0976 10.6834 39.7071 10.2929C39.3166 9.90237 38.6834 9.90237 38.2929 10.2929L31 17.5858L27.7071 14.2929C27.3166 13.9024 26.6834 13.9024 26.2929 14.2929C25.9024 14.6834 25.9024 15.3166 26.2929 15.7071L30.2929 19.7071C30.4804 19.8946 30.7348 20 31 20C31.2652 20 31.5196 19.8946 31.7071 19.7071L39.7071 11.7071Z" fill="url(#paint5_linear_363_3199)"/>
<path fill-rule="evenodd" clip-rule="evenodd" d="M109.761 6.17317C109 8.01088 109 10.3406 109 15C109 19.6594 109 21.9891 109.761 23.8268C110.776 26.2771 112.723 28.2239 115.173 29.2388C117.011 30 119.341 30 124 30C128.659 30 130.989 30 132.827 29.2388C135.277 28.2239 137.224 26.2771 138.239 23.8268C139 21.9891 139 19.6594 139 15C139 10.3406 139 8.01088 138.239 6.17317C137.224 3.72288 135.277 1.77614 132.827 0.761205C130.989 0 128.659 0 124 0C119.341 0 117.011 0 115.173 0.761205C112.723 1.77614 110.776 3.72288 109.761 6.17317ZM130.707 11.7071C131.098 11.3166 131.098 10.6834 130.707 10.2929C130.317 9.90237 129.683 9.90237 129.293 10.2929L122 17.5858L118.707 14.2929C118.317 13.9024 117.683 13.9024 117.293 14.2929C116.902 14.6834 116.902 15.3166 117.293 15.7071L121.293 19.7071C121.48 19.8946 121.735 20 122 20C122.265 20 122.52 19.8946 122.707 19.7071L130.707 11.7071Z" fill="url(#paint6_linear_363_3199)"/>
<path fill-rule="evenodd" clip-rule="evenodd" d="M200.761 6.17317C200 8.01088 200 10.3406 200 15C200 19.6594 200 21.9891 200.761 23.8268C201.776 26.2771 203.723 28.2239 206.173 29.2388C208.011 30 210.341 30 215 30C219.659 30 221.989 30 223.827 29.2388C226.277 28.2239 228.224 26.2771 229.239 23.8268C230 21.9891 230 19.6594 230 15C230 10.3406 230 8.01088 229.239 6.17317C228.224 3.72288 226.277 1.77614 223.827 0.761205C221.989 0 219.659 0 215 0C210.341 0 208.011 0 206.173 0.761205C203.723 1.77614 201.776 3.72288 200.761 6.17317ZM221.707 11.7071C222.098 11.3166 222.098 10.6834 221.707 10.2929C221.317 9.90237 220.683 9.90237 220.293 10.2929L213 17.5858L209.707 14.2929C209.317 13.9024 208.683 13.9024 208.293 14.2929C207.902 14.6834 207.902 15.3166 208.293 15.7071L212.293 19.7071C212.48 19.8946 212.735 20 213 20C213.265 20 213.52 19.8946 213.707 19.7071L221.707 11.7071Z" fill="url(#paint7_linear_363_3199)"/>
<defs>
<linearGradient id="paint0_linear_363_3199" x1="33" y1="57" x2="33" y2="35" gradientUnits="userSpaceOnUse">
<stop stop-color="#5CCC94"/>
<stop offset="1" stop-color="#8CCAAE"/>
</linearGradient>
<linearGradient id="paint1_linear_363_3199" x1="124.5" y1="55" x2="124.5" y2="35" gradientUnits="userSpaceOnUse">
<stop stop-color="#5CCC94"/>
<stop offset="1" stop-color="#8CCAAE"/>
</linearGradient>
<linearGradient id="paint2_linear_363_3199" x1="214.5" y1="68" x2="214.5" y2="35" gradientUnits="userSpaceOnUse">
<stop stop-color="#5CCC94"/>
<stop offset="1" stop-color="#8CCAAE"/>
</linearGradient>
<linearGradient id="paint3_linear_363_3199" x1="170.5" y1="16" x2="170.5" y2="14" gradientUnits="userSpaceOnUse">
<stop stop-color="#5CCC94"/>
<stop offset="1" stop-color="#8CCAAE"/>
</linearGradient>
<linearGradient id="paint4_linear_363_3199" x1="77.5" y1="16" x2="77.5" y2="14" gradientUnits="userSpaceOnUse">
<stop stop-color="#5CCC94"/>
<stop offset="1" stop-color="#8CCAAE"/>
</linearGradient>
<linearGradient id="paint5_linear_363_3199" x1="33" y1="30" x2="33" y2="1.58545e-07" gradientUnits="userSpaceOnUse">
<stop stop-color="#5CCC94"/>
<stop offset="1" stop-color="#8CCAAE"/>
</linearGradient>
<linearGradient id="paint6_linear_363_3199" x1="124" y1="30" x2="124" y2="1.58545e-07" gradientUnits="userSpaceOnUse">
<stop stop-color="#5CCC94"/>
<stop offset="1" stop-color="#8CCAAE"/>
</linearGradient>
<linearGradient id="paint7_linear_363_3199" x1="215" y1="30" x2="215" y2="1.58545e-07" gradientUnits="userSpaceOnUse">
<stop stop-color="#5CCC94"/>
<stop offset="1" stop-color="#8CCAAE"/>
</linearGradient>
</defs>
</svg>
