<svg width="241" height="69" viewBox="0 0 241 69" fill="none" xmlns="http://www.w3.org/2000/svg">
<path d="M24.4717 39.9473V40.7139H21.3906V39.9473H24.4717ZM21.5127 36.8906V44H20.6143V36.8906H21.5127ZM25.2676 36.8906V44H24.3691V36.8906H25.2676ZM26.5176 41.6123V41.1094C26.5176 40.6992 26.5697 40.3395 26.6738 40.0303C26.778 39.7178 26.9229 39.4574 27.1084 39.249C27.2939 39.0407 27.5104 38.8844 27.7578 38.7803C28.0052 38.6729 28.2705 38.6191 28.5537 38.6191C28.8434 38.6191 29.112 38.6729 29.3594 38.7803C29.6068 38.8844 29.8232 39.0407 30.0088 39.249C30.1976 39.4574 30.3441 39.7178 30.4482 40.0303C30.5524 40.3395 30.6045 40.6992 30.6045 41.1094V41.6123C30.6045 42.0225 30.5524 42.3838 30.4482 42.6963C30.3441 43.0055 30.1992 43.2643 30.0137 43.4727C29.8281 43.681 29.6117 43.8372 29.3643 43.9414C29.1169 44.0456 28.8499 44.0977 28.5635 44.0977C28.277 44.0977 28.0101 44.0456 27.7627 43.9414C27.5153 43.8372 27.2972 43.681 27.1084 43.4727C26.9229 43.2643 26.778 43.0055 26.6738 42.6963C26.5697 42.3838 26.5176 42.0225 26.5176 41.6123ZM27.3818 41.1094V41.6123C27.3818 41.902 27.4111 42.1559 27.4697 42.374C27.5283 42.5921 27.6113 42.7744 27.7188 42.9209C27.8262 43.0674 27.9515 43.1781 28.0947 43.2529C28.238 43.3245 28.3942 43.3604 28.5635 43.3604C28.7588 43.3604 28.9297 43.3245 29.0762 43.2529C29.2259 43.1781 29.3496 43.0674 29.4473 42.9209C29.5449 42.7744 29.6182 42.5921 29.667 42.374C29.7158 42.1559 29.7402 41.902 29.7402 41.6123V41.1094C29.7402 40.8197 29.7109 40.5674 29.6523 40.3525C29.5938 40.1344 29.5107 39.9521 29.4033 39.8057C29.2959 39.6559 29.1689 39.5452 29.0225 39.4736C28.8792 39.3988 28.723 39.3613 28.5537 39.3613C28.3877 39.3613 28.2331 39.3988 28.0898 39.4736C27.9466 39.5452 27.8213 39.6559 27.7139 39.8057C27.6097 39.9521 27.5283 40.1344 27.4697 40.3525C27.4111 40.5674 27.3818 40.8197 27.3818 41.1094ZM34.3105 42.7988L35.7217 38.7168H36.542L34.6084 44H34.0127L32.084 38.7168H32.9043L34.3105 42.7988ZM32.6553 38.7168V44H31.7959V38.7168H32.6553ZM35.9365 44V38.7168H36.8008V44H35.9365ZM40.0723 44.0977C39.7565 44.0977 39.4717 44.0505 39.2178 43.9561C38.9639 43.8617 38.7474 43.7184 38.5684 43.5264C38.3893 43.3311 38.2526 43.0853 38.1582 42.7891C38.0638 42.4928 38.0166 42.1429 38.0166 41.7393V41.1436C38.0166 40.6781 38.0703 40.2842 38.1777 39.9619C38.2884 39.6396 38.4365 39.3809 38.6221 39.1855C38.8076 38.987 39.0176 38.8437 39.252 38.7559C39.4863 38.6647 39.7272 38.6191 39.9746 38.6191C40.3066 38.6191 40.5898 38.6729 40.8242 38.7803C41.0586 38.8877 41.249 39.0472 41.3955 39.2588C41.542 39.4704 41.6494 39.7308 41.7178 40.04C41.7894 40.3493 41.8252 40.7057 41.8252 41.1094V41.6123H38.5244V40.875H40.9609V40.7529C40.9479 40.4795 40.9105 40.2386 40.8486 40.0303C40.79 39.8219 40.6924 39.6592 40.5557 39.542C40.4189 39.4215 40.2253 39.3613 39.9746 39.3613C39.8151 39.3613 39.667 39.389 39.5303 39.4443C39.3968 39.4964 39.2812 39.5892 39.1836 39.7227C39.0892 39.8529 39.0143 40.0335 38.959 40.2646C38.9069 40.4958 38.8809 40.7887 38.8809 41.1436V41.7393C38.8809 42.0225 38.9069 42.2666 38.959 42.4717C39.0143 42.6735 39.0941 42.8411 39.1982 42.9746C39.3057 43.1048 39.4359 43.2025 39.5889 43.2676C39.7451 43.3294 39.9225 43.3604 40.1211 43.3604C40.4108 43.3604 40.6501 43.305 40.8389 43.1943C41.0277 43.0804 41.1921 42.9355 41.332 42.7598L41.7861 43.3018C41.6917 43.4352 41.568 43.5638 41.415 43.6875C41.2653 43.8079 41.0798 43.9072 40.8584 43.9854C40.6403 44.0602 40.3783 44.0977 40.0723 44.0977ZM43.7344 39.7324V46.0312H42.8701V38.7168H43.6562L43.7344 39.7324ZM46.6885 41.1191V41.6123C46.6885 42.029 46.6494 42.3936 46.5713 42.7061C46.4964 43.0153 46.3841 43.2741 46.2344 43.4824C46.0879 43.6875 45.9072 43.8421 45.6924 43.9463C45.4775 44.0472 45.2318 44.0977 44.9551 44.0977C44.6784 44.0977 44.4375 44.0456 44.2324 43.9414C44.0306 43.834 43.8597 43.6794 43.7197 43.4775C43.583 43.2757 43.474 43.0332 43.3926 42.75C43.3145 42.4635 43.2607 42.1429 43.2314 41.7881V41.0361C43.2607 40.6618 43.3145 40.3265 43.3926 40.0303C43.4707 39.7308 43.5781 39.4769 43.7148 39.2686C43.8548 39.057 44.0257 38.8958 44.2275 38.7852C44.4326 38.6745 44.6719 38.6191 44.9453 38.6191C45.2285 38.6191 45.4775 38.668 45.6924 38.7656C45.9105 38.8633 46.0928 39.0146 46.2393 39.2197C46.389 39.4215 46.5013 39.6803 46.5762 39.9961C46.651 40.3086 46.6885 40.6829 46.6885 41.1191ZM45.8242 41.6123V41.1191C45.8242 40.8262 45.8014 40.5706 45.7559 40.3525C45.7135 40.1344 45.6452 39.9538 45.5508 39.8105C45.4564 39.6673 45.3376 39.5599 45.1943 39.4883C45.0511 39.4167 44.8786 39.3809 44.6768 39.3809C44.5042 39.3809 44.3512 39.4167 44.2178 39.4883C44.0876 39.5599 43.9753 39.6576 43.8809 39.7812C43.7865 39.9017 43.7083 40.04 43.6465 40.1963C43.5846 40.3493 43.5391 40.5088 43.5098 40.6748V42.1543C43.5651 42.3626 43.6383 42.5596 43.7295 42.7451C43.8206 42.9274 43.9427 43.0755 44.0957 43.1895C44.252 43.3034 44.4489 43.3604 44.6865 43.3604C44.8851 43.3604 45.056 43.3245 45.1992 43.2529C45.3424 43.1813 45.4596 43.0739 45.5508 42.9307C45.6452 42.7842 45.7135 42.6019 45.7559 42.3838C45.8014 42.1624 45.8242 41.9053 45.8242 41.6123ZM5.37012 49.7168L5.37012 55H4.50586L4.50586 49.7168H5.37012ZM6.81055 49.7168V50.4492H3.08496L3.08496 49.7168H6.81055ZM8.59277 50.7324L8.59277 57.0312H7.72852L7.72852 49.7168H8.51465L8.59277 50.7324ZM11.5469 52.1191V52.6123C11.5469 53.029 11.5078 53.3936 11.4297 53.7061C11.3548 54.0153 11.2425 54.2741 11.0928 54.4824C10.9463 54.6875 10.7656 54.8421 10.5508 54.9463C10.3359 55.0472 10.0902 55.0977 9.81348 55.0977C9.53678 55.0977 9.2959 55.0456 9.09082 54.9414C8.889 54.834 8.7181 54.6794 8.57813 54.4775C8.44141 54.2757 8.33236 54.0332 8.25098 53.75C8.17285 53.4635 8.11914 53.1429 8.08984 52.7881V52.0361C8.11914 51.6618 8.17285 51.3265 8.25098 51.0303C8.3291 50.7308 8.43652 50.4769 8.57324 50.2686C8.71322 50.057 8.88411 49.8958 9.08594 49.7852C9.29102 49.6745 9.53027 49.6191 9.80371 49.6191C10.0869 49.6191 10.3359 49.668 10.5508 49.7656C10.7689 49.8633 10.9512 50.0146 11.0977 50.2197C11.2474 50.4215 11.3597 50.6803 11.4346 50.9961C11.5094 51.3086 11.5469 51.6829 11.5469 52.1191ZM10.6826 52.6123V52.1191C10.6826 51.8262 10.6598 51.5706 10.6143 51.3525C10.5719 51.1344 10.5036 50.9538 10.4092 50.8105C10.3148 50.6673 10.196 50.5599 10.0527 50.4883C9.90951 50.4167 9.73698 50.3809 9.53516 50.3809C9.36263 50.3809 9.20964 50.4167 9.07617 50.4883C8.94596 50.5599 8.83366 50.6576 8.73926 50.7812C8.64486 50.9017 8.56673 51.04 8.50488 51.1963C8.44303 51.3493 8.39746 51.5088 8.36816 51.6748V53.1543C8.4235 53.3626 8.49674 53.5596 8.58789 53.7451C8.67904 53.9274 8.80111 54.0755 8.9541 54.1895C9.11035 54.3034 9.30729 54.3604 9.54492 54.3604C9.74349 54.3604 9.91439 54.3245 10.0576 54.2529C10.2008 54.1813 10.318 54.0739 10.4092 53.9307C10.5036 53.7842 10.5719 53.6019 10.6143 53.3838C10.6598 53.1624 10.6826 52.9053 10.6826 52.6123ZM15.248 54.0967L15.248 51.2305C15.248 51.0221 15.2155 50.8545 15.1504 50.7275C15.0885 50.6006 14.9941 50.5078 14.8672 50.4492C14.7435 50.3906 14.5872 50.3613 14.3984 50.3613C14.2161 50.3613 14.0583 50.3988 13.9248 50.4736C13.7946 50.5485 13.6937 50.6478 13.6221 50.7715C13.5537 50.8952 13.5195 51.0319 13.5195 51.1816H12.6553C12.6553 50.9928 12.696 50.8057 12.7773 50.6201C12.862 50.4346 12.9824 50.2669 13.1387 50.1172C13.2949 49.9642 13.4821 49.8438 13.7002 49.7559C13.9215 49.6647 14.1689 49.6191 14.4424 49.6191C14.7679 49.6191 15.056 49.6729 15.3066 49.7803C15.5573 49.8844 15.7542 50.0553 15.8975 50.293C16.0407 50.5306 16.1123 50.8464 16.1123 51.2402V53.8477C16.1123 54.0234 16.1253 54.2106 16.1514 54.4092C16.1807 54.6077 16.2214 54.7786 16.2734 54.9219V55H15.3799C15.3376 54.8958 15.305 54.7575 15.2822 54.585C15.2594 54.4092 15.248 54.2464 15.248 54.0967ZM15.3848 51.7969L15.3945 52.4316H14.7939C14.5889 52.4316 14.4017 52.4544 14.2324 52.5C14.0664 52.5456 13.9232 52.6123 13.8027 52.7002C13.6823 52.7848 13.5895 52.8906 13.5244 53.0176C13.4626 53.1445 13.4316 53.2894 13.4316 53.4521C13.4316 53.6637 13.4609 53.833 13.5195 53.96C13.5781 54.0837 13.666 54.1732 13.7832 54.2285C13.9004 54.2839 14.0485 54.3115 14.2275 54.3115C14.4456 54.3115 14.6377 54.2611 14.8037 54.1602C14.9697 54.0592 15.0983 53.9372 15.1895 53.7939C15.2839 53.6507 15.3278 53.5173 15.3213 53.3936L15.5117 53.7988C15.4987 53.9258 15.4564 54.0641 15.3848 54.2139C15.3164 54.3604 15.2204 54.502 15.0967 54.6387C14.973 54.7721 14.8265 54.8828 14.6572 54.9707C14.4912 55.0553 14.304 55.0977 14.0957 55.0977C13.7897 55.0977 13.5212 55.0391 13.29 54.9219C13.0622 54.8047 12.8848 54.6322 12.7578 54.4043C12.6309 54.1764 12.5674 53.8949 12.5674 53.5596C12.5674 53.3057 12.6113 53.0713 12.6992 52.8564C12.7871 52.6416 12.9173 52.4561 13.0898 52.2998C13.2624 52.1403 13.4788 52.0166 13.7393 51.9287C14.0029 51.8408 14.3073 51.7969 14.6523 51.7969H15.3848ZM20.4629 52.0068V52.7393H18.2217V52.0068H20.4629ZM18.3975 49.7168V55H17.5332V49.7168H18.3975ZM21.166 49.7168V55H20.3018V49.7168H21.166ZM24.374 54.3604C24.5465 54.3604 24.7028 54.3262 24.8428 54.2578C24.986 54.1862 25.1032 54.0755 25.1943 53.9258C25.2855 53.7728 25.3376 53.5742 25.3506 53.3301H26.1611C26.1481 53.6816 26.0586 53.9909 25.8926 54.2578C25.7298 54.5215 25.515 54.7282 25.248 54.8779C24.9844 55.0244 24.693 55.0977 24.374 55.0977C24.0322 55.0977 23.7344 55.0423 23.4805 54.9316C23.2298 54.821 23.0215 54.6615 22.8555 54.4531C22.6927 54.2415 22.5706 53.986 22.4893 53.6865C22.4079 53.3838 22.3672 53.0404 22.3672 52.6562V52.0605C22.3672 51.6764 22.4079 51.3346 22.4893 51.0352C22.5706 50.7324 22.6927 50.4769 22.8555 50.2686C23.0215 50.057 23.2298 49.8958 23.4805 49.7852C23.7344 49.6745 24.0322 49.6191 24.374 49.6191C24.7321 49.6191 25.0413 49.6956 25.3018 49.8486C25.5654 49.9984 25.7705 50.2165 25.917 50.5029C26.0667 50.7861 26.1481 51.1296 26.1611 51.5332H25.3506C25.3376 51.2728 25.2904 51.0563 25.209 50.8838C25.1276 50.708 25.0169 50.5778 24.877 50.4932C24.737 50.4053 24.5693 50.3613 24.374 50.3613C24.1462 50.3613 23.9574 50.402 23.8076 50.4834C23.6611 50.5615 23.5456 50.6755 23.4609 50.8252C23.3763 50.9749 23.3161 51.154 23.2803 51.3623C23.2477 51.5706 23.2314 51.8034 23.2314 52.0605V52.6562C23.2314 52.9134 23.2477 53.1478 23.2803 53.3594C23.3161 53.5677 23.3747 53.7467 23.4561 53.8965C23.5407 54.0462 23.6579 54.1618 23.8076 54.2432C23.9574 54.3213 24.1462 54.3604 24.374 54.3604ZM30.1016 49.7168V50.4639H27.9922V49.7168H30.1016ZM28.1045 49.7168V55H27.2402V49.7168L28.1045 49.7168ZM30.8779 49.7168V55H30.0137V49.7168H30.8779ZM32.0791 52.6123V52.1094C32.0791 51.6992 32.1312 51.3395 32.2354 51.0303C32.3395 50.7178 32.4844 50.4574 32.6699 50.249C32.8555 50.0407 33.0719 49.8844 33.3193 49.7803C33.5667 49.6729 33.832 49.6191 34.1152 49.6191C34.4049 49.6191 34.6735 49.6729 34.9209 49.7803C35.1683 49.8844 35.3848 50.0407 35.5703 50.249C35.7591 50.4574 35.9056 50.7178 36.0098 51.0303C36.1139 51.3395 36.166 51.6992 36.166 52.1094V52.6123C36.166 53.0225 36.1139 53.3838 36.0098 53.6963C35.9056 54.0055 35.7607 54.2643 35.5752 54.4727C35.3896 54.681 35.1732 54.8372 34.9258 54.9414C34.6784 55.0456 34.4115 55.0977 34.125 55.0977C33.8385 55.0977 33.5716 55.0456 33.3242 54.9414C33.0768 54.8372 32.8587 54.681 32.6699 54.4727C32.4844 54.2643 32.3395 54.0055 32.2354 53.6963C32.1312 53.3838 32.0791 53.0225 32.0791 52.6123ZM32.9434 52.1094V52.6123C32.9434 52.902 32.9727 53.1559 33.0312 53.374C33.0898 53.5921 33.1729 53.7744 33.2803 53.9209C33.3877 54.0674 33.513 54.1781 33.6562 54.2529C33.7995 54.3245 33.9557 54.3604 34.125 54.3604C34.3203 54.3604 34.4912 54.3245 34.6377 54.2529C34.7874 54.1781 34.9111 54.0674 35.0088 53.9209C35.1064 53.7744 35.1797 53.5921 35.2285 53.374C35.2773 53.1559 35.3018 52.902 35.3018 52.6123V52.1094C35.3018 51.8197 35.2725 51.5674 35.2139 51.3525C35.1553 51.1344 35.0723 50.9521 34.9648 50.8057C34.8574 50.6559 34.7305 50.5452 34.584 50.4736C34.4408 50.3988 34.2845 50.3613 34.1152 50.3613C33.9492 50.3613 33.7946 50.3988 33.6514 50.4736C33.5081 50.5452 33.3828 50.6559 33.2754 50.8057C33.1712 50.9521 33.0898 51.1344 33.0312 51.3525C32.9727 51.5674 32.9434 51.8197 32.9434 52.1094ZM38.1436 50.7324V57.0312H37.2793V49.7168H38.0654L38.1436 50.7324ZM41.0977 52.1191V52.6123C41.0977 53.029 41.0586 53.3936 40.9805 53.7061C40.9056 54.0153 40.7933 54.2741 40.6436 54.4824C40.4971 54.6875 40.3164 54.8421 40.1016 54.9463C39.8867 55.0472 39.641 55.0977 39.3643 55.0977C39.0876 55.0977 38.8467 55.0456 38.6416 54.9414C38.4398 54.834 38.2689 54.6794 38.1289 54.4775C37.9922 54.2757 37.8831 54.0332 37.8018 53.75C37.7236 53.4635 37.6699 53.1429 37.6406 52.7881V52.0361C37.6699 51.6618 37.7236 51.3265 37.8018 51.0303C37.8799 50.7308 37.9873 50.4769 38.124 50.2686C38.264 50.057 38.4349 49.8958 38.6367 49.7852C38.8418 49.6745 39.0811 49.6191 39.3545 49.6191C39.6377 49.6191 39.8867 49.668 40.1016 49.7656C40.3197 49.8633 40.502 50.0146 40.6484 50.2197C40.7982 50.4215 40.9105 50.6803 40.9854 50.9961C41.0602 51.3086 41.0977 51.6829 41.0977 52.1191ZM40.2334 52.6123V52.1191C40.2334 51.8262 40.2106 51.5706 40.165 51.3525C40.1227 51.1344 40.0544 50.9538 39.96 50.8105C39.8656 50.6673 39.7467 50.5599 39.6035 50.4883C39.4603 50.4167 39.2878 50.3809 39.0859 50.3809C38.9134 50.3809 38.7604 50.4167 38.627 50.4883C38.4967 50.5599 38.3844 50.6576 38.29 50.7812C38.1956 50.9017 38.1175 51.04 38.0557 51.1963C37.9938 51.3493 37.9482 51.5088 37.9189 51.6748V53.1543C37.9743 53.3626 38.0475 53.5596 38.1387 53.7451C38.2298 53.9274 38.3519 54.0755 38.5049 54.1895C38.6611 54.3034 38.8581 54.3604 39.0957 54.3604C39.2943 54.3604 39.4652 54.3245 39.6084 54.2529C39.7516 54.1813 39.8688 54.0739 39.96 53.9307C40.0544 53.7842 40.1227 53.6019 40.165 53.3838C40.2106 53.1624 40.2334 52.9053 40.2334 52.6123ZM43.7197 49.7168V55H42.8555V49.7168H43.7197ZM45.1602 49.7168V50.4492H41.4346V49.7168H45.1602ZM49.0859 52.0068V52.7393H46.8447V52.0068H49.0859ZM47.0205 49.7168V55H46.1562V49.7168H47.0205ZM49.7891 49.7168V55H48.9248V49.7168H49.7891ZM50.9854 52.6123V52.1094C50.9854 51.6992 51.0374 51.3395 51.1416 51.0303C51.2458 50.7178 51.3906 50.4574 51.5762 50.249C51.7617 50.0407 51.9782 49.8844 52.2256 49.7803C52.473 49.6729 52.7383 49.6191 53.0215 49.6191C53.3112 49.6191 53.5798 49.6729 53.8271 49.7803C54.0745 49.8844 54.291 50.0407 54.4766 50.249C54.6654 50.4574 54.8118 50.7178 54.916 51.0303C55.0202 51.3395 55.0723 51.6992 55.0723 52.1094V52.6123C55.0723 53.0225 55.0202 53.3838 54.916 53.6963C54.8118 54.0055 54.667 54.2643 54.4814 54.4727C54.2959 54.681 54.0794 54.8372 53.832 54.9414C53.5846 55.0456 53.3177 55.0977 53.0312 55.0977C52.7448 55.0977 52.4779 55.0456 52.2305 54.9414C51.9831 54.8372 51.765 54.681 51.5762 54.4727C51.3906 54.2643 51.2458 54.0055 51.1416 53.6963C51.0374 53.3838 50.9854 53.0225 50.9854 52.6123ZM51.8496 52.1094V52.6123C51.8496 52.902 51.8789 53.1559 51.9375 53.374C51.9961 53.5921 52.0791 53.7744 52.1865 53.9209C52.2939 54.0674 52.4193 54.1781 52.5625 54.2529C52.7057 54.3245 52.862 54.3604 53.0312 54.3604C53.2266 54.3604 53.3975 54.3245 53.5439 54.2529C53.6937 54.1781 53.8174 54.0674 53.915 53.9209C54.0127 53.7744 54.0859 53.5921 54.1348 53.374C54.1836 53.1559 54.208 52.902 54.208 52.6123V52.1094C54.208 51.8197 54.1787 51.5674 54.1201 51.3525C54.0615 51.1344 53.9785 50.9521 53.8711 50.8057C53.7637 50.6559 53.6367 50.5452 53.4902 50.4736C53.347 50.3988 53.1908 50.3613 53.0215 50.3613C52.8555 50.3613 52.7008 50.3988 52.5576 50.4736C52.4144 50.5452 52.2891 50.6559 52.1816 50.8057C52.0775 50.9521 51.9961 51.1344 51.9375 51.3525C51.8789 51.5674 51.8496 51.8197 51.8496 52.1094ZM59.0908 49.7168V50.4639H57.1182V55H56.2539V49.7168H59.0908ZM59.6279 52.6123V52.1094C59.6279 51.6992 59.68 51.3395 59.7842 51.0303C59.8883 50.7178 60.0332 50.4574 60.2188 50.249C60.4043 50.0407 60.6208 49.8844 60.8682 49.7803C61.1156 49.6729 61.3809 49.6191 61.6641 49.6191C61.9538 49.6191 62.2223 49.6729 62.4697 49.7803C62.7171 49.8844 62.9336 50.0407 63.1191 50.249C63.3079 50.4574 63.4544 50.7178 63.5586 51.0303C63.6628 51.3395 63.7148 51.6992 63.7148 52.1094V52.6123C63.7148 53.0225 63.6628 53.3838 63.5586 53.6963C63.4544 54.0055 63.3096 54.2643 63.124 54.4727C62.9385 54.681 62.722 54.8372 62.4746 54.9414C62.2272 55.0456 61.9603 55.0977 61.6738 55.0977C61.3874 55.0977 61.1204 55.0456 60.873 54.9414C60.6257 54.8372 60.4076 54.681 60.2188 54.4727C60.0332 54.2643 59.8883 54.0055 59.7842 53.6963C59.68 53.3838 59.6279 53.0225 59.6279 52.6123ZM60.4922 52.1094V52.6123C60.4922 52.902 60.5215 53.1559 60.5801 53.374C60.6387 53.5921 60.7217 53.7744 60.8291 53.9209C60.9365 54.0674 61.0618 54.1781 61.2051 54.2529C61.3483 54.3245 61.5046 54.3604 61.6738 54.3604C61.8691 54.3604 62.04 54.3245 62.1865 54.2529C62.3363 54.1781 62.46 54.0674 62.5576 53.9209C62.6553 53.7744 62.7285 53.5921 62.7773 53.374C62.8262 53.1559 62.8506 52.902 62.8506 52.6123V52.1094C62.8506 51.8197 62.8213 51.5674 62.7627 51.3525C62.7041 51.1344 62.6211 50.9521 62.5137 50.8057C62.4062 50.6559 62.2793 50.5452 62.1328 50.4736C61.9896 50.3988 61.8333 50.3613 61.6641 50.3613C61.498 50.3613 61.3434 50.3988 61.2002 50.4736C61.057 50.5452 60.9316 50.6559 60.8242 50.8057C60.7201 50.9521 60.6387 51.1344 60.5801 51.3525C60.5215 51.5674 60.4922 51.8197 60.4922 52.1094ZM21.8887 63.4756H21.0342V62.9189H21.8203C22.0091 62.9189 22.1572 62.888 22.2646 62.8262C22.3721 62.7611 22.4486 62.6715 22.4941 62.5576C22.5397 62.4437 22.5625 62.3102 22.5625 62.1572C22.5625 62.0205 22.5365 61.8919 22.4844 61.7715C22.4323 61.6478 22.3477 61.5485 22.2305 61.4736C22.1133 61.3955 21.957 61.3564 21.7617 61.3564C21.6022 61.3564 21.4574 61.3939 21.3271 61.4688C21.1969 61.5404 21.0944 61.6396 21.0195 61.7666C20.9447 61.8903 20.9072 62.0303 20.9072 62.1865H20.0479C20.0479 61.8643 20.1243 61.5876 20.2773 61.3564C20.4336 61.1221 20.6419 60.9414 20.9023 60.8145C21.1628 60.6875 21.4492 60.624 21.7617 60.624C22.0221 60.624 22.2549 60.6582 22.46 60.7266C22.665 60.7917 22.8392 60.8893 22.9824 61.0195C23.1257 61.1465 23.2347 61.306 23.3096 61.498C23.3877 61.6868 23.4268 61.9066 23.4268 62.1572C23.4268 62.3363 23.391 62.5055 23.3193 62.665C23.2477 62.8245 23.1452 62.9661 23.0117 63.0898C22.8783 63.2103 22.7155 63.3047 22.5234 63.373C22.3346 63.4414 22.123 63.4756 21.8887 63.4756ZM21.0342 63.1338H21.8887C22.1491 63.1338 22.3802 63.1647 22.582 63.2266C22.7839 63.2852 22.9531 63.373 23.0898 63.4902C23.2298 63.6074 23.334 63.7523 23.4023 63.9248C23.474 64.0941 23.5098 64.2894 23.5098 64.5107C23.5098 64.7581 23.4674 64.9811 23.3828 65.1797C23.2982 65.375 23.1777 65.541 23.0215 65.6777C22.8685 65.8145 22.6846 65.9186 22.4697 65.9902C22.2581 66.0618 22.0221 66.0977 21.7617 66.0977C21.4688 66.0977 21.1855 66.0391 20.9121 65.9219C20.6419 65.8047 20.4189 65.624 20.2432 65.3799C20.0674 65.1325 19.9795 64.8184 19.9795 64.4375H20.8389C20.8389 64.597 20.8763 64.7484 20.9512 64.8916C21.0293 65.0348 21.1367 65.1504 21.2734 65.2383C21.4134 65.3262 21.5762 65.3701 21.7617 65.3701C21.957 65.3701 22.1198 65.3311 22.25 65.2529C22.3802 65.1748 22.4779 65.0706 22.543 64.9404C22.6081 64.8102 22.6406 64.6686 22.6406 64.5156C22.6406 64.3171 22.6113 64.1576 22.5527 64.0371C22.4941 63.9167 22.4046 63.8288 22.2842 63.7734C22.1637 63.7148 22.0091 63.6855 21.8203 63.6855H21.0342V63.1338ZM27.2451 65.0967V62.2305C27.2451 62.0221 27.2126 61.8545 27.1475 61.7275C27.0856 61.6006 26.9912 61.5078 26.8643 61.4492C26.7406 61.3906 26.5843 61.3613 26.3955 61.3613C26.2132 61.3613 26.0553 61.3988 25.9219 61.4736C25.7917 61.5485 25.6908 61.6478 25.6191 61.7715C25.5508 61.8952 25.5166 62.0319 25.5166 62.1816H24.6523C24.6523 61.9928 24.693 61.8057 24.7744 61.6201C24.859 61.4346 24.9795 61.2669 25.1357 61.1172C25.292 60.9642 25.4792 60.8438 25.6973 60.7559C25.9186 60.6647 26.166 60.6191 26.4395 60.6191C26.765 60.6191 27.0531 60.6729 27.3037 60.7803C27.5544 60.8844 27.7513 61.0553 27.8945 61.293C28.0378 61.5306 28.1094 61.8464 28.1094 62.2402V64.8477C28.1094 65.0234 28.1224 65.2106 28.1484 65.4092C28.1777 65.6077 28.2184 65.7786 28.2705 65.9219V66H27.377C27.3346 65.8958 27.3021 65.7575 27.2793 65.585C27.2565 65.4092 27.2451 65.2464 27.2451 65.0967ZM27.3818 62.7969L27.3916 63.4316H26.791C26.5859 63.4316 26.3988 63.4544 26.2295 63.5C26.0635 63.5456 25.9202 63.6123 25.7998 63.7002C25.6794 63.7848 25.5866 63.8906 25.5215 64.0176C25.4596 64.1445 25.4287 64.2894 25.4287 64.4521C25.4287 64.6637 25.458 64.833 25.5166 64.96C25.5752 65.0837 25.6631 65.1732 25.7803 65.2285C25.8975 65.2839 26.0456 65.3115 26.2246 65.3115C26.4427 65.3115 26.6348 65.2611 26.8008 65.1602C26.9668 65.0592 27.0954 64.9372 27.1865 64.7939C27.2809 64.6507 27.3249 64.5173 27.3184 64.3936L27.5088 64.7988C27.4958 64.9258 27.4535 65.0641 27.3818 65.2139C27.3135 65.3604 27.2174 65.502 27.0938 65.6387C26.9701 65.7721 26.8236 65.8828 26.6543 65.9707C26.4883 66.0553 26.3011 66.0977 26.0928 66.0977C25.7868 66.0977 25.5182 66.0391 25.2871 65.9219C25.0592 65.8047 24.8818 65.6322 24.7549 65.4043C24.6279 65.1764 24.5645 64.8949 24.5645 64.5596C24.5645 64.3057 24.6084 64.0713 24.6963 63.8564C24.7842 63.6416 24.9144 63.4561 25.0869 63.2998C25.2594 63.1403 25.4759 63.0166 25.7363 62.9287C26 62.8408 26.3044 62.7969 26.6494 62.7969H27.3818ZM31.2832 65.3604C31.4557 65.3604 31.612 65.3262 31.752 65.2578C31.8952 65.1862 32.0124 65.0755 32.1035 64.9258C32.1947 64.7728 32.2467 64.5742 32.2598 64.3301H33.0703C33.0573 64.6816 32.9678 64.9909 32.8018 65.2578C32.639 65.5215 32.4242 65.7282 32.1572 65.8779C31.8936 66.0244 31.6022 66.0977 31.2832 66.0977C30.9414 66.0977 30.6436 66.0423 30.3896 65.9316C30.139 65.821 29.9307 65.6615 29.7646 65.4531C29.6019 65.2415 29.4798 64.986 29.3984 64.6865C29.3171 64.3838 29.2764 64.0404 29.2764 63.6562V63.0605C29.2764 62.6764 29.3171 62.3346 29.3984 62.0352C29.4798 61.7324 29.6019 61.4769 29.7646 61.2686C29.9307 61.057 30.139 60.8958 30.3896 60.7852C30.6436 60.6745 30.9414 60.6191 31.2832 60.6191C31.6413 60.6191 31.9505 60.6956 32.2109 60.8486C32.4746 60.9984 32.6797 61.2165 32.8262 61.5029C32.9759 61.7861 33.0573 62.1296 33.0703 62.5332H32.2598C32.2467 62.2728 32.1995 62.0563 32.1182 61.8838C32.0368 61.708 31.9261 61.5778 31.7861 61.4932C31.6462 61.4053 31.4785 61.3613 31.2832 61.3613C31.0553 61.3613 30.8665 61.402 30.7168 61.4834C30.5703 61.5615 30.4548 61.6755 30.3701 61.8252C30.2855 61.9749 30.2253 62.154 30.1895 62.3623C30.1569 62.5706 30.1406 62.8034 30.1406 63.0605V63.6562C30.1406 63.9134 30.1569 64.1478 30.1895 64.3594C30.2253 64.5677 30.2839 64.7467 30.3652 64.8965C30.4499 65.0462 30.5671 65.1618 30.7168 65.2432C30.8665 65.3213 31.0553 65.3604 31.2832 65.3604ZM33.8906 63.6123V63.1094C33.8906 62.6992 33.9427 62.3395 34.0469 62.0303C34.151 61.7178 34.2959 61.4574 34.4814 61.249C34.667 61.0407 34.8835 60.8844 35.1309 60.7803C35.3783 60.6729 35.6436 60.6191 35.9268 60.6191C36.2165 60.6191 36.485 60.6729 36.7324 60.7803C36.9798 60.8844 37.1963 61.0407 37.3818 61.249C37.5706 61.4574 37.7171 61.7178 37.8213 62.0303C37.9255 62.3395 37.9775 62.6992 37.9775 63.1094V63.6123C37.9775 64.0225 37.9255 64.3838 37.8213 64.6963C37.7171 65.0055 37.5723 65.2643 37.3867 65.4727C37.2012 65.681 36.9847 65.8372 36.7373 65.9414C36.4899 66.0456 36.223 66.0977 35.9365 66.0977C35.6501 66.0977 35.3831 66.0456 35.1357 65.9414C34.8883 65.8372 34.6702 65.681 34.4814 65.4727C34.2959 65.2643 34.151 65.0055 34.0469 64.6963C33.9427 64.3838 33.8906 64.0225 33.8906 63.6123ZM34.7549 63.1094V63.6123C34.7549 63.902 34.7842 64.1559 34.8428 64.374C34.9014 64.5921 34.9844 64.7744 35.0918 64.9209C35.1992 65.0674 35.3245 65.1781 35.4678 65.2529C35.611 65.3245 35.7673 65.3604 35.9365 65.3604C36.1318 65.3604 36.3027 65.3245 36.4492 65.2529C36.599 65.1781 36.7227 65.0674 36.8203 64.9209C36.918 64.7744 36.9912 64.5921 37.04 64.374C37.0889 64.1559 37.1133 63.902 37.1133 63.6123V63.1094C37.1133 62.8197 37.084 62.5674 37.0254 62.3525C36.9668 62.1344 36.8838 61.9521 36.7764 61.8057C36.6689 61.6559 36.542 61.5452 36.3955 61.4736C36.2523 61.3988 36.096 61.3613 35.9268 61.3613C35.7607 61.3613 35.6061 61.3988 35.4629 61.4736C35.3197 61.5452 35.1943 61.6559 35.0869 61.8057C34.9827 61.9521 34.9014 62.1344 34.8428 62.3525C34.7842 62.5674 34.7549 62.8197 34.7549 63.1094ZM41.9277 58.417H42.626C42.626 58.736 42.582 58.9899 42.4941 59.1787C42.4095 59.3643 42.2956 59.5075 42.1523 59.6084C42.0091 59.7093 41.8496 59.7858 41.6738 59.8379C41.498 59.89 41.319 59.9404 41.1367 59.9893C40.9089 60.0479 40.6956 60.1406 40.4971 60.2676C40.2985 60.3913 40.1276 60.5671 39.9844 60.7949C39.8444 61.0228 39.7419 61.319 39.6768 61.6836C39.6149 62.0482 39.6035 62.499 39.6426 63.0361V63.4854H38.9395V63.0361C38.9395 62.4339 38.9883 61.9082 39.0859 61.459C39.1836 61.0098 39.3219 60.6305 39.501 60.3213C39.68 60.012 39.8916 59.7663 40.1357 59.584C40.3799 59.4017 40.6501 59.2764 40.9463 59.208C41.1351 59.1592 41.3027 59.1071 41.4492 59.0518C41.599 58.9932 41.7161 58.915 41.8008 58.8174C41.8854 58.7197 41.9277 58.5863 41.9277 58.417ZM41.1025 61.0195C41.3923 61.0195 41.6494 61.0798 41.874 61.2002C42.0986 61.3206 42.2891 61.4883 42.4453 61.7031C42.6016 61.918 42.7204 62.1719 42.8018 62.4648C42.8831 62.7546 42.9238 63.0703 42.9238 63.4121V63.5195C42.9238 63.8874 42.8799 64.2292 42.792 64.5449C42.7041 64.8574 42.5739 65.1309 42.4014 65.3652C42.2321 65.5964 42.0238 65.777 41.7764 65.9072C41.529 66.0374 41.2474 66.1025 40.9316 66.1025C40.6159 66.1025 40.3343 66.0374 40.0869 65.9072C39.8428 65.777 39.6344 65.5964 39.4619 65.3652C39.2926 65.1309 39.1624 64.8574 39.0713 64.5449C38.9834 64.2292 38.9395 63.8874 38.9395 63.5195V63.4121C38.9395 63.3307 38.9541 63.251 38.9834 63.1729C39.0127 63.0947 39.0469 63.015 39.0859 62.9336C39.125 62.8522 39.1608 62.766 39.1934 62.6748C39.2943 62.3818 39.4342 62.11 39.6133 61.8594C39.7923 61.6087 40.0055 61.4069 40.2529 61.2539C40.5036 61.0977 40.7868 61.0195 41.1025 61.0195ZM40.9268 61.7568C40.6631 61.7568 40.4482 61.8333 40.2822 61.9863C40.1195 62.1393 39.999 62.3428 39.9209 62.5967C39.8428 62.8473 39.8037 63.1191 39.8037 63.4121V63.5195C39.8037 63.7669 39.8249 64.0013 39.8672 64.2227C39.9095 64.444 39.9762 64.641 40.0674 64.8135C40.1585 64.9827 40.2757 65.1162 40.4189 65.2139C40.5622 65.3115 40.7331 65.3604 40.9316 65.3604C41.1302 65.3604 41.2995 65.3115 41.4395 65.2139C41.5827 65.1162 41.6999 64.9827 41.791 64.8135C41.8822 64.641 41.9489 64.444 41.9912 64.2227C42.0368 64.0013 42.0596 63.7669 42.0596 63.5195V63.4121C42.0596 63.1908 42.0368 62.9808 41.9912 62.7822C41.9489 62.5837 41.8822 62.4079 41.791 62.2549C41.6999 62.1019 41.5827 61.9814 41.4395 61.8936C41.2962 61.8024 41.1253 61.7568 40.9268 61.7568ZM45.1699 65.4531L46.3467 60.7168H47.2646L45.5215 66.8154C45.4792 66.9456 45.4222 67.0856 45.3506 67.2354C45.2822 67.3883 45.1943 67.5332 45.0869 67.6699C44.9795 67.8066 44.8509 67.9173 44.7012 68.002C44.5514 68.0898 44.3757 68.1338 44.1738 68.1338C44.112 68.1338 44.0322 68.124 43.9346 68.1045C43.8402 68.085 43.7718 68.0687 43.7295 68.0557V67.3232C43.749 67.3265 43.7799 67.3298 43.8223 67.333C43.8646 67.3395 43.8955 67.3428 43.915 67.3428C44.0843 67.3428 44.2275 67.3151 44.3447 67.2598C44.4652 67.2077 44.5677 67.1182 44.6523 66.9912C44.737 66.8675 44.8086 66.6966 44.8672 66.4785L45.1699 65.4531ZM44.4082 60.7168L45.458 64.8184L45.6826 65.7705L45.0674 66.1025L43.4658 60.7168H44.4082Z" fill="url(#paint0_linear_363_3255)"/>
<path d="M117.932 40.8906V41.6621H115.139V48H114.24V40.8906H117.932ZM114.948 43.7861H116.564C117.004 43.7861 117.375 43.874 117.678 44.0498C117.984 44.2223 118.215 44.4648 118.371 44.7773C118.531 45.0898 118.61 45.4561 118.61 45.876C118.61 46.1885 118.565 46.4749 118.474 46.7354C118.386 46.9925 118.254 47.2171 118.078 47.4092C117.906 47.598 117.692 47.7445 117.438 47.8486C117.185 47.9495 116.893 48 116.564 48H114.24V40.8906H115.139V47.2334H116.564C116.838 47.2334 117.058 47.1699 117.224 47.043C117.393 46.9128 117.517 46.7435 117.595 46.5352C117.673 46.3268 117.712 46.1038 117.712 45.8662C117.712 45.6286 117.673 45.4105 117.595 45.2119C117.517 45.0133 117.393 44.8555 117.224 44.7383C117.058 44.6178 116.838 44.5576 116.564 44.5576H114.948V43.7861ZM120.573 42.7168V48H119.714V42.7168H120.573ZM119.665 41.3154C119.665 41.1689 119.706 41.0452 119.787 40.9443C119.868 40.8434 119.991 40.793 120.153 40.793C120.316 40.793 120.438 40.8434 120.52 40.9443C120.604 41.0452 120.646 41.1689 120.646 41.3154C120.646 41.4554 120.604 41.5758 120.52 41.6768C120.438 41.7744 120.316 41.8232 120.153 41.8232C119.991 41.8232 119.868 41.7744 119.787 41.6768C119.706 41.5758 119.665 41.4554 119.665 41.3154ZM124.89 42.7168V43.4639H122.785V42.7168H124.89ZM125.661 42.7168V48H124.802V42.7168H125.661ZM122.58 42.7168H123.444L123.322 45.2656C123.303 45.6595 123.27 46.0078 123.225 46.3105C123.182 46.61 123.122 46.8672 123.044 47.082C122.969 47.2969 122.875 47.4727 122.761 47.6094C122.65 47.7428 122.517 47.8421 122.36 47.9072C122.207 47.9691 122.03 48 121.828 48H121.569V47.2041L121.74 47.1895C121.854 47.1797 121.952 47.1471 122.033 47.0918C122.118 47.0365 122.186 46.9551 122.238 46.8477C122.294 46.737 122.338 46.5954 122.37 46.4229C122.406 46.2503 122.434 46.0452 122.453 45.8076C122.473 45.57 122.487 45.2933 122.497 44.9775L122.58 42.7168ZM127.976 42.7168V48H127.116V42.7168H127.976ZM127.067 41.3154C127.067 41.1689 127.108 41.0452 127.189 40.9443C127.271 40.8434 127.393 40.793 127.556 40.793C127.718 40.793 127.84 40.8434 127.922 40.9443C128.007 41.0452 128.049 41.1689 128.049 41.3154C128.049 41.4554 128.007 41.5758 127.922 41.6768C127.84 41.7744 127.718 41.8232 127.556 41.8232C127.393 41.8232 127.271 41.7744 127.189 41.6768C127.108 41.5758 127.067 41.4554 127.067 41.3154ZM132.351 45.0068V45.7393H130.109V45.0068H132.351ZM130.285 42.7168V48H129.421V42.7168H130.285ZM133.054 42.7168V48H132.189V42.7168H133.054ZM137.336 42.7168V43.4639H135.363V48H134.499V42.7168H137.336Z" fill="#E0E0E9"/>
<path d="M199.694 36.8906V44H198.796V37.6621H196.018V44H195.119V36.8906H199.694ZM203.059 44.0977C202.743 44.0977 202.458 44.0505 202.204 43.9561C201.95 43.8617 201.734 43.7184 201.555 43.5264C201.376 43.3311 201.239 43.0853 201.145 42.7891C201.05 42.4928 201.003 42.1429 201.003 41.7393V41.1436C201.003 40.6781 201.057 40.2842 201.164 39.9619C201.275 39.6396 201.423 39.3809 201.608 39.1855C201.794 38.987 202.004 38.8438 202.238 38.7559C202.473 38.6647 202.714 38.6191 202.961 38.6191C203.293 38.6191 203.576 38.6729 203.811 38.7803C204.045 38.8877 204.235 39.0472 204.382 39.2588C204.528 39.4704 204.636 39.7308 204.704 40.04C204.776 40.3493 204.812 40.7057 204.812 41.1094V41.6123H201.511V40.875H203.947V40.7529C203.934 40.4795 203.897 40.2386 203.835 40.0303C203.776 39.8219 203.679 39.6592 203.542 39.542C203.405 39.4215 203.212 39.3613 202.961 39.3613C202.801 39.3613 202.653 39.389 202.517 39.4443C202.383 39.4964 202.268 39.5892 202.17 39.7227C202.076 39.8529 202.001 40.0335 201.945 40.2646C201.893 40.4958 201.867 40.7887 201.867 41.1436V41.7393C201.867 42.0225 201.893 42.2666 201.945 42.4717C202.001 42.6735 202.08 42.8411 202.185 42.9746C202.292 43.1048 202.422 43.2025 202.575 43.2676C202.731 43.3294 202.909 43.3604 203.107 43.3604C203.397 43.3604 203.636 43.305 203.825 43.1943C204.014 43.0804 204.178 42.9355 204.318 42.7598L204.772 43.3018C204.678 43.4352 204.554 43.5638 204.401 43.6875C204.252 43.8079 204.066 43.9072 203.845 43.9854C203.627 44.0602 203.365 44.0977 203.059 44.0977ZM206.721 39.7324V46.0312H205.856V38.7168H206.643L206.721 39.7324ZM209.675 41.1191V41.6123C209.675 42.029 209.636 42.3936 209.558 42.7061C209.483 43.0153 209.37 43.2741 209.221 43.4824C209.074 43.6875 208.894 43.8421 208.679 43.9463C208.464 44.0472 208.218 44.0977 207.941 44.0977C207.665 44.0977 207.424 44.0456 207.219 43.9414C207.017 43.834 206.846 43.6794 206.706 43.4775C206.569 43.2757 206.46 43.0332 206.379 42.75C206.301 42.4635 206.247 42.1429 206.218 41.7881V41.0361C206.247 40.6618 206.301 40.3265 206.379 40.0303C206.457 39.7308 206.564 39.4769 206.701 39.2686C206.841 39.057 207.012 38.8958 207.214 38.7852C207.419 38.6745 207.658 38.6191 207.932 38.6191C208.215 38.6191 208.464 38.668 208.679 38.7656C208.897 38.8633 209.079 39.0146 209.226 39.2197C209.375 39.4215 209.488 39.6803 209.562 39.9961C209.637 40.3086 209.675 40.6829 209.675 41.1191ZM208.811 41.6123V41.1191C208.811 40.8262 208.788 40.5706 208.742 40.3525C208.7 40.1344 208.632 39.9538 208.537 39.8105C208.443 39.6673 208.324 39.5599 208.181 39.4883C208.037 39.4167 207.865 39.3809 207.663 39.3809C207.491 39.3809 207.338 39.4167 207.204 39.4883C207.074 39.5599 206.962 39.6576 206.867 39.7812C206.773 39.9017 206.695 40.04 206.633 40.1963C206.571 40.3493 206.525 40.5088 206.496 40.6748V42.1543C206.551 42.3626 206.625 42.5596 206.716 42.7451C206.807 42.9274 206.929 43.0755 207.082 43.1895C207.238 43.3034 207.435 43.3604 207.673 43.3604C207.871 43.3604 208.042 43.3245 208.186 43.2529C208.329 43.1813 208.446 43.0739 208.537 42.9307C208.632 42.7842 208.7 42.6019 208.742 42.3838C208.788 42.1624 208.811 41.9053 208.811 41.6123ZM212.678 44.0977C212.362 44.0977 212.077 44.0505 211.823 43.9561C211.569 43.8617 211.353 43.7184 211.174 43.5264C210.995 43.3311 210.858 43.0853 210.764 42.7891C210.669 42.4928 210.622 42.1429 210.622 41.7393V41.1436C210.622 40.6781 210.676 40.2842 210.783 39.9619C210.894 39.6396 211.042 39.3809 211.228 39.1855C211.413 38.987 211.623 38.8438 211.857 38.7559C212.092 38.6647 212.333 38.6191 212.58 38.6191C212.912 38.6191 213.195 38.6729 213.43 38.7803C213.664 38.8877 213.854 39.0472 214.001 39.2588C214.147 39.4704 214.255 39.7308 214.323 40.04C214.395 40.3493 214.431 40.7057 214.431 41.1094V41.6123H211.13V40.875H213.566V40.7529C213.553 40.4795 213.516 40.2386 213.454 40.0303C213.396 39.8219 213.298 39.6592 213.161 39.542C213.024 39.4215 212.831 39.3613 212.58 39.3613C212.421 39.3613 212.272 39.389 212.136 39.4443C212.002 39.4964 211.887 39.5892 211.789 39.7227C211.695 39.8529 211.62 40.0335 211.564 40.2646C211.512 40.4958 211.486 40.7887 211.486 41.1436V41.7393C211.486 42.0225 211.512 42.2666 211.564 42.4717C211.62 42.6735 211.7 42.8411 211.804 42.9746C211.911 43.1048 212.041 43.2025 212.194 43.2676C212.351 43.3294 212.528 43.3604 212.727 43.3604C213.016 43.3604 213.256 43.305 213.444 43.1943C213.633 43.0804 213.798 42.9355 213.938 42.7598L214.392 43.3018C214.297 43.4352 214.174 43.5638 214.021 43.6875C213.871 43.8079 213.685 43.9072 213.464 43.9854C213.246 44.0602 212.984 44.0977 212.678 44.0977ZM217.604 41.6758H216.193L216.184 40.9531H217.316C217.541 40.9531 217.727 40.9255 217.873 40.8701C218.023 40.8148 218.135 40.7318 218.21 40.6211C218.285 40.5104 218.322 40.3737 218.322 40.2109C218.322 40.084 218.301 39.9733 218.259 39.8789C218.216 39.7812 218.153 39.7015 218.068 39.6396C217.987 39.5745 217.884 39.5273 217.761 39.498C217.637 39.4655 217.492 39.4492 217.326 39.4492H216.413V44H215.554V38.7168H217.326C217.613 38.7168 217.87 38.7461 218.098 38.8047C218.329 38.8633 218.524 38.9528 218.684 39.0732C218.846 39.1904 218.97 39.3402 219.055 39.5225C219.143 39.7048 219.187 39.9196 219.187 40.167C219.187 40.3265 219.159 40.4779 219.104 40.6211C219.048 40.7643 218.965 40.8913 218.854 41.002C218.747 41.1126 218.614 41.2038 218.454 41.2754C218.295 41.3437 218.111 41.3877 217.902 41.4072L217.604 41.6758ZM217.604 44H215.871L216.315 43.2676H217.604C217.803 43.2676 217.966 43.2367 218.093 43.1748C218.22 43.1097 218.314 43.0186 218.376 42.9014C218.441 42.7809 218.474 42.6377 218.474 42.4717C218.474 42.3057 218.441 42.1641 218.376 42.0469C218.314 41.9264 218.22 41.8353 218.093 41.7734C217.966 41.7083 217.803 41.6758 217.604 41.6758H216.447L216.457 40.9531H217.888L218.19 41.2266C218.441 41.2493 218.651 41.321 218.82 41.4414C218.993 41.5618 219.121 41.7148 219.206 41.9004C219.294 42.0827 219.338 42.2812 219.338 42.4961C219.338 42.7435 219.299 42.9616 219.221 43.1504C219.143 43.3392 219.029 43.4971 218.879 43.624C218.729 43.7477 218.547 43.8421 218.332 43.9072C218.117 43.9691 217.875 44 217.604 44ZM221.442 38.7168V44H220.583V38.7168H221.442ZM220.534 37.3154C220.534 37.1689 220.575 37.0452 220.656 36.9443C220.738 36.8434 220.86 36.793 221.022 36.793C221.185 36.793 221.307 36.8434 221.389 36.9443C221.473 37.0452 221.516 37.1689 221.516 37.3154C221.516 37.4554 221.473 37.5758 221.389 37.6768C221.307 37.7744 221.185 37.8232 221.022 37.8232C220.86 37.8232 220.738 37.7744 220.656 37.6768C220.575 37.5758 220.534 37.4554 220.534 37.3154ZM223.674 39.7324V46.0312H222.81V38.7168H223.596L223.674 39.7324ZM226.628 41.1191V41.6123C226.628 42.029 226.589 42.3936 226.511 42.7061C226.436 43.0153 226.324 43.2741 226.174 43.4824C226.027 43.6875 225.847 43.8421 225.632 43.9463C225.417 44.0472 225.171 44.0977 224.895 44.0977C224.618 44.0977 224.377 44.0456 224.172 43.9414C223.97 43.834 223.799 43.6794 223.659 43.4775C223.522 43.2757 223.413 43.0332 223.332 42.75C223.254 42.4635 223.2 42.1429 223.171 41.7881V41.0361C223.2 40.6618 223.254 40.3265 223.332 40.0303C223.41 39.7308 223.518 39.4769 223.654 39.2686C223.794 39.057 223.965 38.8958 224.167 38.7852C224.372 38.6745 224.611 38.6191 224.885 38.6191C225.168 38.6191 225.417 38.668 225.632 38.7656C225.85 38.8633 226.032 39.0146 226.179 39.2197C226.328 39.4215 226.441 39.6803 226.516 39.9961C226.59 40.3086 226.628 40.6829 226.628 41.1191ZM225.764 41.6123V41.1191C225.764 40.8262 225.741 40.5706 225.695 40.3525C225.653 40.1344 225.585 39.9538 225.49 39.8105C225.396 39.6673 225.277 39.5599 225.134 39.4883C224.991 39.4167 224.818 39.3809 224.616 39.3809C224.444 39.3809 224.291 39.4167 224.157 39.4883C224.027 39.5599 223.915 39.6576 223.82 39.7812C223.726 39.9017 223.648 40.04 223.586 40.1963C223.524 40.3493 223.479 40.5088 223.449 40.6748V42.1543C223.505 42.3626 223.578 42.5596 223.669 42.7451C223.76 42.9274 223.882 43.0755 224.035 43.1895C224.191 43.3034 224.388 43.3604 224.626 43.3604C224.825 43.3604 224.995 43.3245 225.139 43.2529C225.282 43.1813 225.399 43.0739 225.49 42.9307C225.585 42.7842 225.653 42.6019 225.695 42.3838C225.741 42.1624 225.764 41.9053 225.764 41.6123ZM228.684 38.7168V44H227.819V38.7168H228.684ZM231.589 38.7168L229.465 41.7441H228.396L228.259 40.9531H229.113L230.554 38.7168H231.589ZM230.632 44L229.084 41.6074L229.636 40.9531L231.716 44H230.632ZM235.134 43.0967V40.2305C235.134 40.0221 235.101 39.8545 235.036 39.7275C234.974 39.6006 234.88 39.5078 234.753 39.4492C234.629 39.3906 234.473 39.3613 234.284 39.3613C234.102 39.3613 233.944 39.3988 233.811 39.4736C233.68 39.5485 233.579 39.6478 233.508 39.7715C233.439 39.8952 233.405 40.0319 233.405 40.1816H232.541C232.541 39.9928 232.582 39.8057 232.663 39.6201C232.748 39.4346 232.868 39.2669 233.024 39.1172C233.181 38.9642 233.368 38.8437 233.586 38.7559C233.807 38.6647 234.055 38.6191 234.328 38.6191C234.654 38.6191 234.942 38.6729 235.192 38.7803C235.443 38.8844 235.64 39.0553 235.783 39.293C235.926 39.5306 235.998 39.8464 235.998 40.2402V42.8477C235.998 43.0234 236.011 43.2106 236.037 43.4092C236.066 43.6077 236.107 43.7786 236.159 43.9219V44H235.266C235.223 43.8958 235.191 43.7575 235.168 43.585C235.145 43.4092 235.134 43.2464 235.134 43.0967ZM235.271 40.7969L235.28 41.4316H234.68C234.475 41.4316 234.287 41.4544 234.118 41.5C233.952 41.5456 233.809 41.6123 233.688 41.7002C233.568 41.7848 233.475 41.8906 233.41 42.0176C233.348 42.1445 233.317 42.2894 233.317 42.4521C233.317 42.6637 233.347 42.833 233.405 42.96C233.464 43.0837 233.552 43.1732 233.669 43.2285C233.786 43.2839 233.934 43.3115 234.113 43.3115C234.331 43.3115 234.523 43.2611 234.689 43.1602C234.855 43.0592 234.984 42.9372 235.075 42.7939C235.17 42.6507 235.214 42.5173 235.207 42.3936L235.397 42.7988C235.384 42.9258 235.342 43.0641 235.271 43.2139C235.202 43.3604 235.106 43.502 234.982 43.6387C234.859 43.7721 234.712 43.8828 234.543 43.9707C234.377 44.0553 234.19 44.0977 233.981 44.0977C233.675 44.0977 233.407 44.0391 233.176 43.9219C232.948 43.8047 232.771 43.6322 232.644 43.4043C232.517 43.1764 232.453 42.8949 232.453 42.5596C232.453 42.3057 232.497 42.0713 232.585 41.8564C232.673 41.6416 232.803 41.4561 232.976 41.2998C233.148 41.1403 233.365 41.0166 233.625 40.9287C233.889 40.8408 234.193 40.7969 234.538 40.7969H235.271ZM197.956 49.7168V55H197.092V49.7168H197.956ZM199.396 49.7168V50.4492H195.671V49.7168H199.396ZM202.824 54.0967V51.2305C202.824 51.0221 202.792 50.8545 202.727 50.7275C202.665 50.6006 202.57 50.5078 202.443 50.4492C202.32 50.3906 202.163 50.3613 201.975 50.3613C201.792 50.3613 201.634 50.3988 201.501 50.4736C201.371 50.5485 201.27 50.6478 201.198 50.7715C201.13 50.8952 201.096 51.0319 201.096 51.1816H200.231C200.231 50.9928 200.272 50.8057 200.354 50.6201C200.438 50.4346 200.559 50.2669 200.715 50.1172C200.871 49.9642 201.058 49.8438 201.276 49.7559C201.498 49.6647 201.745 49.6191 202.019 49.6191C202.344 49.6191 202.632 49.6729 202.883 49.7803C203.133 49.8844 203.33 50.0553 203.474 50.293C203.617 50.5306 203.688 50.8464 203.688 51.2402V53.8477C203.688 54.0234 203.701 54.2106 203.728 54.4092C203.757 54.6077 203.798 54.7786 203.85 54.9219V55H202.956C202.914 54.8958 202.881 54.7575 202.858 54.585C202.836 54.4092 202.824 54.2464 202.824 54.0967ZM202.961 51.7969L202.971 52.4316H202.37C202.165 52.4316 201.978 52.4544 201.809 52.5C201.643 52.5456 201.499 52.6123 201.379 52.7002C201.258 52.7848 201.166 52.8906 201.101 53.0176C201.039 53.1445 201.008 53.2894 201.008 53.4521C201.008 53.6637 201.037 53.833 201.096 53.96C201.154 54.0837 201.242 54.1732 201.359 54.2285C201.477 54.2839 201.625 54.3115 201.804 54.3115C202.022 54.3115 202.214 54.2611 202.38 54.1602C202.546 54.0592 202.674 53.9372 202.766 53.7939C202.86 53.6507 202.904 53.5173 202.897 53.3936L203.088 53.7988C203.075 53.9258 203.033 54.0641 202.961 54.2139C202.893 54.3604 202.797 54.502 202.673 54.6387C202.549 54.7721 202.403 54.8828 202.233 54.9707C202.067 55.0553 201.88 55.0977 201.672 55.0977C201.366 55.0977 201.097 55.0391 200.866 54.9219C200.638 54.8047 200.461 54.6322 200.334 54.4043C200.207 54.1764 200.144 53.8949 200.144 53.5596C200.144 53.3057 200.188 53.0713 200.275 52.8564C200.363 52.6416 200.493 52.4561 200.666 52.2998C200.839 52.1403 201.055 52.0166 201.315 51.9287C201.579 51.8408 201.883 51.7969 202.229 51.7969H202.961ZM207.146 52.6123V52.1094C207.146 51.6992 207.198 51.3395 207.302 51.0303C207.406 50.7178 207.551 50.4574 207.736 50.249C207.922 50.0407 208.138 49.8844 208.386 49.7803C208.633 49.6729 208.898 49.6191 209.182 49.6191C209.471 49.6191 209.74 49.6729 209.987 49.7803C210.235 49.8844 210.451 50.0407 210.637 50.249C210.826 50.4574 210.972 50.7178 211.076 51.0303C211.18 51.3395 211.232 51.6992 211.232 52.1094V52.6123C211.232 53.0225 211.18 53.3838 211.076 53.6963C210.972 54.0055 210.827 54.2643 210.642 54.4727C210.456 54.681 210.24 54.8372 209.992 54.9414C209.745 55.0456 209.478 55.0977 209.191 55.0977C208.905 55.0977 208.638 55.0456 208.391 54.9414C208.143 54.8372 207.925 54.681 207.736 54.4727C207.551 54.2643 207.406 54.0055 207.302 53.6963C207.198 53.3838 207.146 53.0225 207.146 52.6123ZM208.01 52.1094V52.6123C208.01 52.902 208.039 53.1559 208.098 53.374C208.156 53.5921 208.239 53.7744 208.347 53.9209C208.454 54.0674 208.579 54.1781 208.723 54.2529C208.866 54.3245 209.022 54.3604 209.191 54.3604C209.387 54.3604 209.558 54.3245 209.704 54.2529C209.854 54.1781 209.978 54.0674 210.075 53.9209C210.173 53.7744 210.246 53.5921 210.295 53.374C210.344 53.1559 210.368 52.902 210.368 52.6123V52.1094C210.368 51.8197 210.339 51.5674 210.28 51.3525C210.222 51.1344 210.139 50.9521 210.031 50.8057C209.924 50.6559 209.797 50.5452 209.65 50.4736C209.507 50.3988 209.351 50.3613 209.182 50.3613C209.016 50.3613 208.861 50.3988 208.718 50.4736C208.575 50.5452 208.449 50.6559 208.342 50.8057C208.238 50.9521 208.156 51.1344 208.098 51.3525C208.039 51.5674 208.01 51.8197 208.01 52.1094ZM215.285 49.7168V50.4639H213.176V49.7168H215.285ZM213.288 49.7168V55H212.424V49.7168H213.288ZM216.062 49.7168V55H215.197V49.7168H216.062ZM220.393 49.7168V50.4639H218.288V49.7168H220.393ZM221.164 49.7168V55H220.305V49.7168H221.164ZM218.083 49.7168L218.947 49.7168L218.825 52.2656C218.806 52.6595 218.773 53.0078 218.728 53.3105C218.685 53.61 218.625 53.8672 218.547 54.082C218.472 54.2969 218.378 54.4727 218.264 54.6094C218.153 54.7428 218.02 54.8421 217.863 54.9072C217.71 54.9691 217.533 55 217.331 55H217.072V54.2041L217.243 54.1895C217.357 54.1797 217.455 54.1471 217.536 54.0918C217.621 54.0365 217.689 53.9551 217.741 53.8477C217.797 53.737 217.84 53.5954 217.873 53.4229C217.909 53.2503 217.937 53.0452 217.956 52.8076C217.976 52.57 217.99 52.2933 218 51.9775L218.083 49.7168ZM225.139 54.0967V51.2305C225.139 51.0221 225.106 50.8545 225.041 50.7275C224.979 50.6006 224.885 50.5078 224.758 50.4492C224.634 50.3906 224.478 50.3613 224.289 50.3613C224.107 50.3613 223.949 50.3988 223.815 50.4736C223.685 50.5485 223.584 50.6478 223.513 50.7715C223.444 50.8952 223.41 51.0319 223.41 51.1816H222.546C222.546 50.9928 222.587 50.8057 222.668 50.6201C222.753 50.4346 222.873 50.2669 223.029 50.1172C223.186 49.9642 223.373 49.8437 223.591 49.7559C223.812 49.6647 224.06 49.6191 224.333 49.6191C224.659 49.6191 224.947 49.6729 225.197 49.7803C225.448 49.8844 225.645 50.0553 225.788 50.293C225.931 50.5306 226.003 50.8464 226.003 51.2402V53.8477C226.003 54.0234 226.016 54.2106 226.042 54.4092C226.071 54.6077 226.112 54.7786 226.164 54.9219V55H225.271C225.228 54.8958 225.196 54.7575 225.173 54.585C225.15 54.4092 225.139 54.2464 225.139 54.0967ZM225.275 51.7969L225.285 52.4316H224.685C224.479 52.4316 224.292 52.4544 224.123 52.5C223.957 52.5456 223.814 52.6123 223.693 52.7002C223.573 52.7848 223.48 52.8906 223.415 53.0176C223.353 53.1445 223.322 53.2894 223.322 53.4521C223.322 53.6637 223.352 53.833 223.41 53.96C223.469 54.0837 223.557 54.1732 223.674 54.2285C223.791 54.2839 223.939 54.3115 224.118 54.3115C224.336 54.3115 224.528 54.2611 224.694 54.1602C224.86 54.0592 224.989 53.9372 225.08 53.7939C225.174 53.6507 225.218 53.5173 225.212 53.3936L225.402 53.7988C225.389 53.9258 225.347 54.0641 225.275 54.2139C225.207 54.3604 225.111 54.502 224.987 54.6387C224.864 54.7721 224.717 54.8828 224.548 54.9707C224.382 55.0553 224.195 55.0977 223.986 55.0977C223.68 55.0977 223.412 55.0391 223.181 54.9219C222.953 54.8047 222.775 54.6322 222.648 54.4043C222.521 54.1764 222.458 53.8949 222.458 53.5596C222.458 53.3057 222.502 53.0713 222.59 52.8564C222.678 52.6416 222.808 52.4561 222.98 52.2998C223.153 52.1403 223.369 52.0166 223.63 51.9287C223.894 51.8408 224.198 51.7969 224.543 51.7969H225.275ZM229.167 49.7168V55H228.303V49.7168H229.167ZM230.607 49.7168V50.4492H226.882V49.7168H230.607ZM234.035 54.0967V51.2305C234.035 51.0221 234.003 50.8545 233.938 50.7275C233.876 50.6006 233.781 50.5078 233.654 50.4492C233.531 50.3906 233.374 50.3613 233.186 50.3613C233.003 50.3613 232.845 50.3988 232.712 50.4736C232.582 50.5485 232.481 50.6478 232.409 50.7715C232.341 50.8952 232.307 51.0319 232.307 51.1816H231.442C231.442 50.9928 231.483 50.8057 231.564 50.6201C231.649 50.4346 231.77 50.2669 231.926 50.1172C232.082 49.9642 232.269 49.8437 232.487 49.7559C232.709 49.6647 232.956 49.6191 233.229 49.6191C233.555 49.6191 233.843 49.6729 234.094 49.7803C234.344 49.8844 234.541 50.0553 234.685 50.293C234.828 50.5306 234.899 50.8464 234.899 51.2402V53.8477C234.899 54.0234 234.912 54.2106 234.938 54.4092C234.968 54.6077 235.008 54.7786 235.061 54.9219V55H234.167C234.125 54.8958 234.092 54.7575 234.069 54.585C234.047 54.4092 234.035 54.2464 234.035 54.0967ZM234.172 51.7969L234.182 52.4316H233.581C233.376 52.4316 233.189 52.4544 233.02 52.5C232.854 52.5456 232.71 52.6123 232.59 52.7002C232.469 52.7848 232.377 52.8906 232.312 53.0176C232.25 53.1445 232.219 53.2894 232.219 53.4521C232.219 53.6637 232.248 53.833 232.307 53.96C232.365 54.0837 232.453 54.1732 232.57 54.2285C232.688 54.2839 232.836 54.3115 233.015 54.3115C233.233 54.3115 233.425 54.2611 233.591 54.1602C233.757 54.0592 233.885 53.9372 233.977 53.7939C234.071 53.6507 234.115 53.5173 234.108 53.3936L234.299 53.7988C234.286 53.9258 234.243 54.0641 234.172 54.2139C234.104 54.3604 234.007 54.502 233.884 54.6387C233.76 54.7721 233.614 54.8828 233.444 54.9707C233.278 55.0553 233.091 55.0977 232.883 55.0977C232.577 55.0977 232.308 55.0391 232.077 54.9219C231.849 54.8047 231.672 54.6322 231.545 54.4043C231.418 54.1764 231.354 53.8949 231.354 53.5596C231.354 53.3057 231.398 53.0713 231.486 52.8564C231.574 52.6416 231.704 52.4561 231.877 52.2998C232.049 52.1403 232.266 52.0166 232.526 51.9287C232.79 51.8408 233.094 51.7969 233.439 51.7969H234.172Z" fill="#E0E0E9"/>
<path fill-rule="evenodd" clip-rule="evenodd" d="M205 16L138 16V14L205 14V16Z" fill="#D0CFD7"/>
<path fill-rule="evenodd" clip-rule="evenodd" d="M112 16L45 16V14L112 14V16Z" fill="#D0CFD7"/>
<path fill-rule="evenodd" clip-rule="evenodd" d="M19.7612 6.17317C19 8.01088 19 10.3406 19 15C19 19.6594 19 21.9891 19.7612 23.8268C20.7761 26.2771 22.7229 28.2239 25.1732 29.2388C27.0109 30 29.3406 30 34 30C38.6594 30 40.9891 30 42.8268 29.2388C45.2771 28.2239 47.2239 26.2771 48.2388 23.8268C49 21.9891 49 19.6594 49 15C49 10.3406 49 8.01088 48.2388 6.17317C47.2239 3.72288 45.2771 1.77614 42.8268 0.761205C40.9891 0 38.6594 0 34 0C29.3406 0 27.0109 0 25.1732 0.761205C22.7229 1.77614 20.7761 3.72288 19.7612 6.17317ZM40.7071 11.7071C41.0976 11.3166 41.0976 10.6834 40.7071 10.2929C40.3166 9.90237 39.6834 9.90237 39.2929 10.2929L32 17.5858L28.7071 14.2929C28.3166 13.9024 27.6834 13.9024 27.2929 14.2929C26.9024 14.6834 26.9024 15.3166 27.2929 15.7071L31.2929 19.7071C31.4804 19.8946 31.7348 20 32 20C32.2652 20 32.5196 19.8946 32.7071 19.7071L40.7071 11.7071Z" fill="url(#paint1_linear_363_3255)"/>
<path fill-rule="evenodd" clip-rule="evenodd" d="M201.761 6.17317C201 8.01088 201 10.3406 201 15C201 19.6594 201 21.9891 201.761 23.8268C202.776 26.2771 204.723 28.2239 207.173 29.2388C209.011 30 211.341 30 216 30C220.659 30 222.989 30 224.827 29.2388C227.277 28.2239 229.224 26.2771 230.239 23.8268C231 21.9891 231 19.6594 231 15C231 10.3406 231 8.01088 230.239 6.17317C229.224 3.72288 227.277 1.77614 224.827 0.761205C222.989 0 220.659 0 216 0C211.341 0 209.011 0 207.173 0.761205C204.723 1.77614 202.776 3.72288 201.761 6.17317ZM222.707 11.7071C223.098 11.3166 223.098 10.6834 222.707 10.2929C222.317 9.90237 221.683 9.90237 221.293 10.2929L214 17.5858L210.707 14.2929C210.317 13.9024 209.683 13.9024 209.293 14.2929C208.902 14.6834 208.902 15.3166 209.293 15.7071L213.293 19.7071C213.48 19.8946 213.735 20 214 20C214.265 20 214.52 19.8946 214.707 19.7071L222.707 11.7071Z" fill="#D0CFD7"/>
<path fill-rule="evenodd" clip-rule="evenodd" d="M110.761 6.17317C110 8.01088 110 10.3406 110 15C110 19.6594 110 21.9891 110.761 23.8268C111.776 26.2771 113.723 28.2239 116.173 29.2388C118.011 30 120.341 30 125 30C129.659 30 131.989 30 133.827 29.2388C136.277 28.2239 138.224 26.2771 139.239 23.8268C140 21.9891 140 19.6594 140 15C140 10.3406 140 8.01088 139.239 6.17317C138.224 3.72288 136.277 1.77614 133.827 0.761205C131.989 0 129.659 0 125 0C120.341 0 118.011 0 116.173 0.761205C113.723 1.77614 111.776 3.72288 110.761 6.17317ZM131.707 11.7071C132.098 11.3166 132.098 10.6834 131.707 10.2929C131.317 9.90237 130.683 9.90237 130.293 10.2929L123 17.5858L119.707 14.2929C119.317 13.9024 118.683 13.9024 118.293 14.2929C117.902 14.6834 117.902 15.3166 118.293 15.7071L122.293 19.7071C122.48 19.8946 122.735 20 123 20C123.265 20 123.52 19.8946 123.707 19.7071L131.707 11.7071Z" fill="#D0CFD7"/>
<defs>
<linearGradient id="paint0_linear_363_3255" x1="33.5" y1="68" x2="33.5" y2="35" gradientUnits="userSpaceOnUse">
<stop stop-color="#5CCC94"/>
<stop offset="1" stop-color="#8CCAAE"/>
</linearGradient>
<linearGradient id="paint1_linear_363_3255" x1="34" y1="30" x2="34" y2="1.58545e-07" gradientUnits="userSpaceOnUse">
<stop stop-color="#5CCC94"/>
<stop offset="1" stop-color="#8CCAAE"/>
</linearGradient>
</defs>
</svg>
