<svg width="241" height="68" viewBox="0 0 241 68" fill="none" xmlns="http://www.w3.org/2000/svg">
<path d="M22.001 36.8906V44H21.0977L18.251 38.5166V44H17.3525V36.8906H18.251L21.1123 42.3887V36.8906H22.001ZM26.1074 42.7793V38.7168H26.9717V44H26.1514L26.1074 42.7793ZM26.2686 41.666L26.6104 41.6562C26.6104 42.0078 26.5794 42.3333 26.5176 42.6328C26.459 42.929 26.3613 43.1862 26.2246 43.4043C26.0911 43.6224 25.9137 43.7933 25.6924 43.917C25.471 44.0374 25.1992 44.0977 24.877 44.0977C24.6589 44.0977 24.4603 44.0602 24.2812 43.9854C24.1055 43.9105 23.9525 43.7949 23.8223 43.6387C23.6953 43.4824 23.596 43.279 23.5244 43.0283C23.4561 42.7777 23.4219 42.4766 23.4219 42.125V38.7168L24.2812 38.7168V42.1348C24.2812 42.3724 24.3024 42.5693 24.3447 42.7256C24.387 42.8786 24.444 43.0007 24.5156 43.0918C24.5872 43.1797 24.667 43.2415 24.7549 43.2773C24.8428 43.3132 24.9323 43.3311 25.0234 43.3311C25.3294 43.3311 25.5736 43.2578 25.7559 43.1113C25.9382 42.9616 26.0684 42.7614 26.1465 42.5107C26.2279 42.2568 26.2686 41.9753 26.2686 41.666ZM29.1348 39.7666V44H28.2754V38.7168H29.0859L29.1348 39.7666ZM28.959 41.1582L28.5586 41.1436C28.5553 40.7822 28.5911 40.4486 28.666 40.1426C28.7409 39.8333 28.8532 39.5648 29.0029 39.3369C29.1559 39.109 29.3464 38.9333 29.5742 38.8096C29.8053 38.6826 30.0739 38.6191 30.3799 38.6191C30.5817 38.6191 30.7689 38.6549 30.9414 38.7266C31.1172 38.7949 31.2702 38.904 31.4004 39.0537C31.5306 39.2035 31.6315 39.3955 31.7031 39.6299C31.778 39.8643 31.8154 40.1475 31.8154 40.4795V44H30.9512V40.5234C30.9512 40.2467 30.9137 40.0254 30.8389 39.8594C30.7673 39.6934 30.6647 39.5729 30.5312 39.498C30.3978 39.4199 30.2383 39.3809 30.0527 39.3809C29.8411 39.3809 29.6637 39.4281 29.5205 39.5225C29.3805 39.6169 29.2682 39.7471 29.1836 39.9131C29.1022 40.0791 29.0436 40.2695 29.0078 40.4844C28.9753 40.696 28.959 40.9206 28.959 41.1582ZM31.8057 40.6602L31.2295 40.8457C31.2262 40.556 31.262 40.2777 31.3369 40.0107C31.4118 39.7438 31.5225 39.5062 31.6689 39.2979C31.8187 39.0895 32.0042 38.9251 32.2256 38.8047C32.4469 38.681 32.7041 38.6191 32.9971 38.6191C33.238 38.6191 33.4512 38.6566 33.6367 38.7314C33.8223 38.8063 33.9785 38.9219 34.1055 39.0781C34.2357 39.2311 34.3333 39.4281 34.3984 39.6689C34.4635 39.9098 34.4961 40.1963 34.4961 40.5283V44H33.6318V40.5186C33.6318 40.2223 33.5944 39.9928 33.5195 39.8301C33.4479 39.6641 33.3454 39.5485 33.2119 39.4834C33.0785 39.415 32.9189 39.3809 32.7334 39.3809C32.5837 39.3809 32.4502 39.415 32.333 39.4834C32.2191 39.5518 32.123 39.6462 32.0449 39.7666C31.9668 39.8838 31.9066 40.0189 31.8643 40.1719C31.8252 40.3249 31.8057 40.4876 31.8057 40.6602ZM36.6641 39.7666V44H35.8047V38.7168H36.6152L36.6641 39.7666ZM36.4883 41.1582L36.0879 41.1436C36.0846 40.7822 36.1204 40.4486 36.1953 40.1426C36.2702 39.8333 36.3825 39.5648 36.5322 39.3369C36.6852 39.109 36.8757 38.9333 37.1035 38.8096C37.3346 38.6826 37.6032 38.6191 37.9092 38.6191C38.111 38.6191 38.2982 38.6549 38.4707 38.7266C38.6465 38.7949 38.7995 38.904 38.9297 39.0537C39.0599 39.2035 39.1608 39.3955 39.2324 39.6299C39.3073 39.8643 39.3447 40.1475 39.3447 40.4795V44H38.4805V40.5234C38.4805 40.2467 38.443 40.0254 38.3682 39.8594C38.2965 39.6934 38.194 39.5729 38.0605 39.498C37.9271 39.4199 37.7676 39.3809 37.582 39.3809C37.3704 39.3809 37.193 39.4281 37.0498 39.5225C36.9098 39.6169 36.7975 39.7471 36.7129 39.9131C36.6315 40.0791 36.5729 40.2695 36.5371 40.4844C36.5046 40.696 36.4883 40.9206 36.4883 41.1582ZM39.335 40.6602L38.7588 40.8457C38.7555 40.556 38.7913 40.2777 38.8662 40.0107C38.9411 39.7438 39.0518 39.5062 39.1982 39.2979C39.348 39.0895 39.5335 38.9251 39.7549 38.8047C39.9762 38.681 40.2334 38.6191 40.5264 38.6191C40.7673 38.6191 40.9805 38.6566 41.166 38.7314C41.3516 38.8063 41.5078 38.9219 41.6348 39.0781C41.765 39.2311 41.8626 39.4281 41.9277 39.6689C41.9928 39.9098 42.0254 40.1963 42.0254 40.5283V44H41.1611V40.5186C41.1611 40.2223 41.1237 39.9928 41.0488 39.8301C40.9772 39.6641 40.8747 39.5485 40.7412 39.4834C40.6077 39.415 40.4482 39.3809 40.2627 39.3809C40.113 39.3809 39.9795 39.415 39.8623 39.4834C39.7484 39.5518 39.6523 39.6462 39.5742 39.7666C39.4961 39.8838 39.4359 40.0189 39.3936 40.1719C39.3545 40.3249 39.335 40.4876 39.335 40.6602ZM45.2188 44.0977C44.903 44.0977 44.6182 44.0505 44.3643 43.9561C44.1104 43.8617 43.8939 43.7184 43.7148 43.5264C43.5358 43.3311 43.3991 43.0853 43.3047 42.7891C43.2103 42.4928 43.1631 42.1429 43.1631 41.7393V41.1436C43.1631 40.6781 43.2168 40.2842 43.3242 39.9619C43.4349 39.6396 43.583 39.3809 43.7686 39.1855C43.9541 38.987 44.1641 38.8437 44.3984 38.7559C44.6328 38.6647 44.8737 38.6191 45.1211 38.6191C45.4531 38.6191 45.7363 38.6729 45.9707 38.7803C46.2051 38.8877 46.3955 39.0472 46.542 39.2588C46.6885 39.4704 46.7959 39.7308 46.8643 40.04C46.9359 40.3493 46.9717 40.7057 46.9717 41.1094V41.6123H43.6709V40.875H46.1074V40.7529C46.0944 40.4795 46.057 40.2386 45.9951 40.0303C45.9365 39.8219 45.8389 39.6592 45.7021 39.542C45.5654 39.4215 45.3717 39.3613 45.1211 39.3613C44.9616 39.3613 44.8135 39.389 44.6768 39.4443C44.5433 39.4964 44.4277 39.5892 44.3301 39.7227C44.2357 39.8529 44.1608 40.0335 44.1055 40.2646C44.0534 40.4958 44.0273 40.7887 44.0273 41.1436V41.7393C44.0273 42.0225 44.0534 42.2666 44.1055 42.4717C44.1608 42.6735 44.2406 42.8411 44.3447 42.9746C44.4521 43.1048 44.5824 43.2025 44.7354 43.2676C44.8916 43.3294 45.069 43.3604 45.2676 43.3604C45.5573 43.3604 45.7965 43.305 45.9854 43.1943C46.1742 43.0804 46.3385 42.9355 46.4785 42.7598L46.9326 43.3018C46.8382 43.4352 46.7145 43.5638 46.5615 43.6875C46.4118 43.8079 46.2262 43.9072 46.0049 43.9854C45.7868 44.0602 45.5247 44.0977 45.2188 44.0977ZM48.8809 39.5469V44H48.0166V38.7168H48.8516L48.8809 39.5469ZM50.1943 38.6875L50.1992 39.5273C50.1276 39.5111 50.0625 39.5013 50.0039 39.498C49.9486 39.4915 49.8835 39.4883 49.8086 39.4883C49.6458 39.4883 49.5026 39.5208 49.3789 39.5859C49.2585 39.651 49.1543 39.7422 49.0664 39.8594C48.9785 39.9766 48.9085 40.1165 48.8564 40.2793C48.8044 40.4388 48.7686 40.6146 48.749 40.8066L48.5244 40.9531C48.5244 40.6341 48.5488 40.3346 48.5977 40.0547C48.6497 39.7747 48.7295 39.5273 48.8369 39.3125C48.9443 39.0944 49.0811 38.9251 49.2471 38.8047C49.4163 38.681 49.6182 38.6191 49.8525 38.6191C49.9046 38.6191 49.9681 38.6273 50.043 38.6436C50.1211 38.6566 50.1715 38.6712 50.1943 38.6875ZM17.25 47.5V55H16.3857V47.5H17.25ZM19.9307 49.7168L18.0508 52.1826L16.8887 53.5205L16.8301 52.5586L17.6309 51.4551L18.8906 49.7168H19.9307ZM19.1396 55L17.6553 52.4805L18.0996 51.6748L20.1455 55H19.1396ZM22.6846 55.0977C22.3688 55.0977 22.084 55.0505 21.8301 54.9561C21.5762 54.8617 21.3597 54.7184 21.1807 54.5264C21.0016 54.3311 20.8649 54.0853 20.7705 53.7891C20.6761 53.4928 20.6289 53.1429 20.6289 52.7393V52.1436C20.6289 51.6781 20.6826 51.2842 20.79 50.9619C20.9007 50.6396 21.0488 50.3809 21.2344 50.1855C21.4199 49.987 21.6299 49.8438 21.8643 49.7559C22.0986 49.6647 22.3395 49.6191 22.5869 49.6191C22.9189 49.6191 23.2021 49.6729 23.4365 49.7803C23.6709 49.8877 23.8613 50.0472 24.0078 50.2588C24.1543 50.4704 24.2617 50.7308 24.3301 51.04C24.4017 51.3493 24.4375 51.7057 24.4375 52.1094V52.6123H21.1367V51.875H23.5732V51.7529C23.5602 51.4795 23.5228 51.2386 23.4609 51.0303C23.4023 50.8219 23.3047 50.6592 23.168 50.542C23.0313 50.4215 22.8376 50.3613 22.5869 50.3613C22.4274 50.3613 22.2793 50.389 22.1426 50.4443C22.0091 50.4964 21.8936 50.5892 21.7959 50.7227C21.7015 50.8529 21.6266 51.0335 21.5713 51.2646C21.5192 51.4958 21.4932 51.7887 21.4932 52.1436V52.7393C21.4932 53.0225 21.5192 53.2666 21.5713 53.4717C21.6266 53.6735 21.7064 53.8411 21.8105 53.9746C21.918 54.1048 22.0482 54.2025 22.2012 54.2676C22.3574 54.3294 22.5348 54.3604 22.7334 54.3604C23.0231 54.3604 23.2624 54.305 23.4512 54.1943C23.64 54.0804 23.8044 53.9355 23.9443 53.7598L24.3984 54.3018C24.304 54.4352 24.1803 54.5638 24.0273 54.6875C23.8776 54.8079 23.6921 54.9072 23.4707 54.9854C23.2526 55.0602 22.9906 55.0977 22.6846 55.0977ZM26.3467 50.8447V55H25.4824V49.7168H26.2979L26.3467 50.8447ZM26.1367 52.1582L25.7852 52.1436C25.7819 51.7822 25.8226 51.4486 25.9072 51.1426C25.9951 50.8333 26.1188 50.5648 26.2783 50.3369C26.4411 50.109 26.6348 49.9333 26.8594 49.8096C27.084 49.6826 27.333 49.6191 27.6064 49.6191C27.8213 49.6191 28.0166 49.6549 28.1924 49.7266C28.3682 49.7949 28.5179 49.9056 28.6416 50.0586C28.7653 50.2116 28.8597 50.4102 28.9248 50.6543C28.9932 50.8952 29.0273 51.1898 29.0273 51.5381V55H28.1631V51.5283C28.1631 51.2516 28.1322 51.0303 28.0703 50.8643C28.0117 50.695 27.9206 50.5729 27.7969 50.498C27.6764 50.4199 27.5234 50.3809 27.3379 50.3809C27.1686 50.3809 27.0107 50.4281 26.8643 50.5225C26.7178 50.6169 26.5892 50.7471 26.4785 50.9131C26.3711 51.0791 26.2865 51.2695 26.2246 51.4844C26.166 51.696 26.1367 51.9206 26.1367 52.1582ZM32.2549 49.7168V50.4102H29.7891V49.7168H32.2549ZM30.5947 48.4326H31.459V53.6914C31.459 53.8704 31.4801 54.0055 31.5225 54.0967C31.568 54.1878 31.625 54.248 31.6934 54.2773C31.7617 54.3066 31.835 54.3213 31.9131 54.3213C31.9717 54.3213 32.0368 54.3148 32.1084 54.3018C32.18 54.2855 32.2288 54.2725 32.2549 54.2627L32.25 55C32.1914 55.0228 32.1133 55.0439 32.0156 55.0635C31.918 55.0863 31.7943 55.0977 31.6445 55.0977C31.459 55.0977 31.2865 55.0537 31.127 54.9658C30.9674 54.8779 30.8389 54.7314 30.7412 54.5264C30.6436 54.318 30.5947 54.0381 30.5947 53.6865V48.4326ZM35.1748 55.0977C34.859 55.0977 34.5742 55.0505 34.3203 54.9561C34.0664 54.8617 33.8499 54.7184 33.6709 54.5264C33.4919 54.3311 33.3551 54.0853 33.2607 53.7891C33.1663 53.4928 33.1191 53.1429 33.1191 52.7393V52.1436C33.1191 51.6781 33.1729 51.2842 33.2803 50.9619C33.391 50.6396 33.5391 50.3809 33.7246 50.1855C33.9102 49.987 34.1201 49.8437 34.3545 49.7559C34.5889 49.6647 34.8298 49.6191 35.0771 49.6191C35.4092 49.6191 35.6924 49.6729 35.9268 49.7803C36.1611 49.8877 36.3516 50.0472 36.498 50.2588C36.6445 50.4704 36.752 50.7308 36.8203 51.04C36.8919 51.3493 36.9277 51.7057 36.9277 52.1094V52.6123H33.627V51.875H36.0635V51.7529C36.0505 51.4795 36.013 51.2386 35.9512 51.0303C35.8926 50.8219 35.7949 50.6592 35.6582 50.542C35.5215 50.4215 35.3278 50.3613 35.0771 50.3613C34.9176 50.3613 34.7695 50.389 34.6328 50.4443C34.4993 50.4964 34.3838 50.5892 34.2861 50.7227C34.1917 50.8529 34.1169 51.0335 34.0615 51.2646C34.0094 51.4958 33.9834 51.7887 33.9834 52.1436V52.7393C33.9834 53.0225 34.0094 53.2666 34.0615 53.4717C34.1169 53.6735 34.1966 53.8411 34.3008 53.9746C34.4082 54.1048 34.5384 54.2025 34.6914 54.2676C34.8477 54.3294 35.0251 54.3604 35.2236 54.3604C35.5133 54.3604 35.7526 54.305 35.9414 54.1943C36.1302 54.0804 36.2946 53.9355 36.4346 53.7598L36.8887 54.3018C36.7943 54.4352 36.6706 54.5638 36.5176 54.6875C36.3678 54.8079 36.1823 54.9072 35.9609 54.9854C35.7428 55.0602 35.4808 55.0977 35.1748 55.0977ZM38.8418 47.5V55H37.9775V47.5H38.8418ZM41.5225 49.7168L39.6426 52.1826L38.4805 53.5205L38.4219 52.5586L39.2227 51.4551L40.4824 49.7168H41.5225ZM40.7314 55L39.2471 52.4805L39.6914 51.6748L41.7373 55H40.7314ZM44.2764 55.0977C43.9606 55.0977 43.6758 55.0505 43.4219 54.9561C43.168 54.8617 42.9515 54.7184 42.7725 54.5264C42.5934 54.3311 42.4567 54.0853 42.3623 53.7891C42.2679 53.4928 42.2207 53.1429 42.2207 52.7393V52.1436C42.2207 51.6781 42.2744 51.2842 42.3818 50.9619C42.4925 50.6396 42.6406 50.3809 42.8262 50.1855C43.0117 49.987 43.2217 49.8437 43.4561 49.7559C43.6904 49.6647 43.9313 49.6191 44.1787 49.6191C44.5107 49.6191 44.7939 49.6729 45.0283 49.7803C45.2627 49.8877 45.4531 50.0472 45.5996 50.2588C45.7461 50.4704 45.8535 50.7308 45.9219 51.04C45.9935 51.3493 46.0293 51.7057 46.0293 52.1094V52.6123H42.7285V51.875H45.165V51.7529C45.152 51.4795 45.1146 51.2386 45.0527 51.0303C44.9941 50.8219 44.8965 50.6592 44.7598 50.542C44.623 50.4215 44.4294 50.3613 44.1787 50.3613C44.0192 50.3613 43.8711 50.389 43.7344 50.4443C43.6009 50.4964 43.4854 50.5892 43.3877 50.7227C43.2933 50.8529 43.2184 51.0335 43.1631 51.2646C43.111 51.4958 43.085 51.7887 43.085 52.1436V52.7393C43.085 53.0225 43.111 53.2666 43.1631 53.4717C43.2184 53.6735 43.2982 53.8411 43.4023 53.9746C43.5098 54.1048 43.64 54.2025 43.793 54.2676C43.9492 54.3294 44.1266 54.3604 44.3252 54.3604C44.6149 54.3604 44.8542 54.305 45.043 54.1943C45.2318 54.0804 45.3962 53.9355 45.5361 53.7598L45.9902 54.3018C45.8958 54.4352 45.7721 54.5638 45.6191 54.6875C45.4694 54.8079 45.2839 54.9072 45.0625 54.9854C44.8444 55.0602 44.5824 55.0977 44.2764 55.0977ZM47.9385 50.8447V55H47.0742V49.7168H47.8896L47.9385 50.8447ZM47.7285 52.1582L47.377 52.1436C47.3737 51.7822 47.4144 51.4486 47.499 51.1426C47.5869 50.8333 47.7106 50.5648 47.8701 50.3369C48.0329 50.109 48.2266 49.9333 48.4512 49.8096C48.6758 49.6826 48.9248 49.6191 49.1982 49.6191C49.4131 49.6191 49.6084 49.6549 49.7842 49.7266C49.96 49.7949 50.1097 49.9056 50.2334 50.0586C50.3571 50.2116 50.4515 50.4102 50.5166 50.6543C50.585 50.8952 50.6191 51.1898 50.6191 51.5381V55H49.7549V51.5283C49.7549 51.2516 49.724 51.0303 49.6621 50.8643C49.6035 50.695 49.5124 50.5729 49.3887 50.498C49.2682 50.4199 49.1152 50.3809 48.9297 50.3809C48.7604 50.3809 48.6025 50.4281 48.4561 50.5225C48.3096 50.6169 48.181 50.7471 48.0703 50.9131C47.9629 51.0791 47.8783 51.2695 47.8164 51.4844C47.7578 51.696 47.7285 51.9206 47.7285 52.1582Z" fill="url(#paint0_linear_363_3037)"/>
<path d="M104.86 40.8906V48H103.962V40.8906H104.86ZM107.258 44.0889V44.8604H104.689V44.0889H107.258ZM107.663 40.8906V41.6621H104.689V40.8906H107.663ZM111.081 47.0967V44.2305C111.081 44.0221 111.049 43.8545 110.983 43.7275C110.922 43.6006 110.827 43.5078 110.7 43.4492C110.576 43.3906 110.42 43.3613 110.231 43.3613C110.049 43.3613 109.891 43.3988 109.758 43.4736C109.628 43.5485 109.527 43.6478 109.455 43.7715C109.387 43.8952 109.353 44.0319 109.353 44.1816H108.488C108.488 43.9928 108.529 43.8057 108.61 43.6201C108.695 43.4346 108.815 43.2669 108.972 43.1172C109.128 42.9642 109.315 42.8438 109.533 42.7559C109.755 42.6647 110.002 42.6191 110.275 42.6191C110.601 42.6191 110.889 42.6729 111.14 42.7803C111.39 42.8844 111.587 43.0553 111.73 43.293C111.874 43.5306 111.945 43.8464 111.945 44.2402V46.8477C111.945 47.0234 111.958 47.2106 111.984 47.4092C112.014 47.6077 112.054 47.7786 112.106 47.9219V48H111.213C111.171 47.8958 111.138 47.7575 111.115 47.585C111.092 47.4092 111.081 47.2464 111.081 47.0967ZM111.218 44.7969L111.228 45.4316H110.627C110.422 45.4316 110.235 45.4544 110.065 45.5C109.899 45.5456 109.756 45.6123 109.636 45.7002C109.515 45.7848 109.423 45.8906 109.357 46.0176C109.296 46.1445 109.265 46.2894 109.265 46.4521C109.265 46.6637 109.294 46.833 109.353 46.96C109.411 47.0837 109.499 47.1732 109.616 47.2285C109.733 47.2839 109.882 47.3115 110.061 47.3115C110.279 47.3115 110.471 47.2611 110.637 47.1602C110.803 47.0592 110.931 46.9372 111.022 46.7939C111.117 46.6507 111.161 46.5173 111.154 46.3936L111.345 46.7988C111.332 46.9258 111.289 47.0641 111.218 47.2139C111.149 47.3604 111.053 47.502 110.93 47.6387C110.806 47.7721 110.66 47.8828 110.49 47.9707C110.324 48.0553 110.137 48.0977 109.929 48.0977C109.623 48.0977 109.354 48.0391 109.123 47.9219C108.895 47.8047 108.718 47.6322 108.591 47.4043C108.464 47.1764 108.4 46.8949 108.4 46.5596C108.4 46.3057 108.444 46.0713 108.532 45.8564C108.62 45.6416 108.75 45.4561 108.923 45.2998C109.095 45.1403 109.312 45.0166 109.572 44.9287C109.836 44.8408 110.14 44.7969 110.485 44.7969H111.218ZM115.119 47.3604C115.292 47.3604 115.448 47.3262 115.588 47.2578C115.731 47.1862 115.848 47.0755 115.939 46.9258C116.031 46.7728 116.083 46.5742 116.096 46.3301H116.906C116.893 46.6816 116.804 46.9909 116.638 47.2578C116.475 47.5215 116.26 47.7282 115.993 47.8779C115.729 48.0244 115.438 48.0977 115.119 48.0977C114.777 48.0977 114.479 48.0423 114.226 47.9316C113.975 47.821 113.767 47.6615 113.601 47.4531C113.438 47.2415 113.316 46.986 113.234 46.6865C113.153 46.3838 113.112 46.0404 113.112 45.6562V45.0605C113.112 44.6764 113.153 44.3346 113.234 44.0352C113.316 43.7324 113.438 43.4769 113.601 43.2686C113.767 43.057 113.975 42.8958 114.226 42.7852C114.479 42.6745 114.777 42.6191 115.119 42.6191C115.477 42.6191 115.786 42.6956 116.047 42.8486C116.311 42.9984 116.516 43.2165 116.662 43.5029C116.812 43.7861 116.893 44.1296 116.906 44.5332H116.096C116.083 44.2728 116.035 44.0563 115.954 43.8838C115.873 43.708 115.762 43.5778 115.622 43.4932C115.482 43.4053 115.314 43.3613 115.119 43.3613C114.891 43.3613 114.702 43.402 114.553 43.4834C114.406 43.5615 114.291 43.6755 114.206 43.8252C114.121 43.9749 114.061 44.154 114.025 44.3623C113.993 44.5706 113.977 44.8034 113.977 45.0605V45.6562C113.977 45.9134 113.993 46.1478 114.025 46.3594C114.061 46.5677 114.12 46.7467 114.201 46.8965C114.286 47.0462 114.403 47.1618 114.553 47.2432C114.702 47.3213 114.891 47.3604 115.119 47.3604ZM119.836 42.7168V43.4102H117.37V42.7168H119.836ZM118.176 41.4326H119.04V46.6914C119.04 46.8704 119.061 47.0055 119.104 47.0967C119.149 47.1878 119.206 47.248 119.274 47.2773C119.343 47.3066 119.416 47.3213 119.494 47.3213C119.553 47.3213 119.618 47.3148 119.689 47.3018C119.761 47.2855 119.81 47.2725 119.836 47.2627L119.831 48C119.772 48.0228 119.694 48.0439 119.597 48.0635C119.499 48.0863 119.375 48.0977 119.226 48.0977C119.04 48.0977 118.868 48.0537 118.708 47.9658C118.549 47.8779 118.42 47.7314 118.322 47.5264C118.225 47.318 118.176 47.0381 118.176 46.6865V41.4326ZM123.537 46.7793V42.7168H124.401V48H123.581L123.537 46.7793ZM123.698 45.666L124.04 45.6562C124.04 46.0078 124.009 46.3333 123.947 46.6328C123.889 46.929 123.791 47.1862 123.654 47.4043C123.521 47.6224 123.343 47.7933 123.122 47.917C122.901 48.0374 122.629 48.0977 122.307 48.0977C122.089 48.0977 121.89 48.0602 121.711 47.9854C121.535 47.9105 121.382 47.7949 121.252 47.6387C121.125 47.4824 121.026 47.279 120.954 47.0283C120.886 46.7777 120.852 46.4766 120.852 46.125V42.7168H121.711V46.1348C121.711 46.3724 121.732 46.5693 121.774 46.7256C121.817 46.8786 121.874 47.0007 121.945 47.0918C122.017 47.1797 122.097 47.2415 122.185 47.2773C122.272 47.3132 122.362 47.3311 122.453 47.3311C122.759 47.3311 123.003 47.2578 123.186 47.1113C123.368 46.9616 123.498 46.7614 123.576 46.5107C123.658 46.2568 123.698 45.9753 123.698 45.666ZM126.564 43.5469V48H125.7V42.7168H126.535L126.564 43.5469ZM127.878 42.6875L127.883 43.5273C127.811 43.5111 127.746 43.5013 127.688 43.498C127.632 43.4915 127.567 43.4883 127.492 43.4883C127.329 43.4883 127.186 43.5208 127.062 43.5859C126.942 43.651 126.838 43.7422 126.75 43.8594C126.662 43.9766 126.592 44.1165 126.54 44.2793C126.488 44.4388 126.452 44.6146 126.433 44.8066L126.208 44.9531C126.208 44.6341 126.232 44.3346 126.281 44.0547C126.333 43.7747 126.413 43.5273 126.521 43.3125C126.628 43.0944 126.765 42.9251 126.931 42.8047C127.1 42.681 127.302 42.6191 127.536 42.6191C127.588 42.6191 127.652 42.6273 127.727 42.6436C127.805 42.6566 127.855 42.6712 127.878 42.6875ZM130.539 48.0977C130.223 48.0977 129.938 48.0505 129.685 47.9561C129.431 47.8617 129.214 47.7184 129.035 47.5264C128.856 47.3311 128.719 47.0853 128.625 46.7891C128.531 46.4928 128.483 46.1429 128.483 45.7393V45.1436C128.483 44.6781 128.537 44.2842 128.645 43.9619C128.755 43.6396 128.903 43.3809 129.089 43.1855C129.274 42.987 129.484 42.8437 129.719 42.7559C129.953 42.6647 130.194 42.6191 130.441 42.6191C130.773 42.6191 131.057 42.6729 131.291 42.7803C131.525 42.8877 131.716 43.0472 131.862 43.2588C132.009 43.4704 132.116 43.7308 132.185 44.04C132.256 44.3493 132.292 44.7057 132.292 45.1094V45.6123L128.991 45.6123V44.875L131.428 44.875V44.7529C131.415 44.4795 131.377 44.2386 131.315 44.0303C131.257 43.8219 131.159 43.6592 131.022 43.542C130.886 43.4215 130.692 43.3613 130.441 43.3613C130.282 43.3613 130.134 43.389 129.997 43.4443C129.864 43.4964 129.748 43.5892 129.65 43.7227C129.556 43.8529 129.481 44.0335 129.426 44.2646C129.374 44.4958 129.348 44.7887 129.348 45.1436V45.7393C129.348 46.0225 129.374 46.2666 129.426 46.4717C129.481 46.6735 129.561 46.8411 129.665 46.9746C129.772 47.1048 129.903 47.2025 130.056 47.2676C130.212 47.3294 130.389 47.3604 130.588 47.3604C130.878 47.3604 131.117 47.305 131.306 47.1943C131.494 47.0804 131.659 46.9355 131.799 46.7598L132.253 47.3018C132.159 47.4352 132.035 47.5638 131.882 47.6875C131.732 47.8079 131.547 47.9072 131.325 47.9854C131.107 48.0602 130.845 48.0977 130.539 48.0977ZM134.201 43.5469V48H133.337V42.7168H134.172L134.201 43.5469ZM135.515 42.6875L135.52 43.5273C135.448 43.5111 135.383 43.5013 135.324 43.498C135.269 43.4915 135.204 43.4883 135.129 43.4883C134.966 43.4883 134.823 43.5208 134.699 43.5859C134.579 43.651 134.475 43.7422 134.387 43.8594C134.299 43.9766 134.229 44.1165 134.177 44.2793C134.125 44.4388 134.089 44.6146 134.069 44.8066L133.845 44.9531C133.845 44.6341 133.869 44.3346 133.918 44.0547C133.97 43.7747 134.05 43.5273 134.157 43.3125C134.265 43.0944 134.401 42.9251 134.567 42.8047C134.737 42.681 134.938 42.6191 135.173 42.6191C135.225 42.6191 135.288 42.6273 135.363 42.6436C135.441 42.6566 135.492 42.6712 135.515 42.6875ZM137.312 42.7168V48H136.452V42.7168H137.312ZM136.403 41.3154C136.403 41.1689 136.444 41.0452 136.525 40.9443C136.607 40.8434 136.729 40.793 136.892 40.793C137.054 40.793 137.176 40.8434 137.258 40.9443C137.342 41.0452 137.385 41.1689 137.385 41.3154C137.385 41.4554 137.342 41.5758 137.258 41.6768C137.176 41.7744 137.054 41.8232 136.892 41.8232C136.729 41.8232 136.607 41.7744 136.525 41.6768C136.444 41.5758 136.403 41.4554 136.403 41.3154ZM139.543 43.8447V48H138.679V42.7168H139.494L139.543 43.8447ZM139.333 45.1582L138.981 45.1436C138.978 44.7822 139.019 44.4486 139.104 44.1426C139.191 43.8333 139.315 43.5648 139.475 43.3369C139.637 43.109 139.831 42.9333 140.056 42.8096C140.28 42.6826 140.529 42.6191 140.803 42.6191C141.018 42.6191 141.213 42.6549 141.389 42.7266C141.564 42.7949 141.714 42.9056 141.838 43.0586C141.962 43.2116 142.056 43.4102 142.121 43.6543C142.189 43.8952 142.224 44.1898 142.224 44.5381V48H141.359V44.5283C141.359 44.2516 141.328 44.0303 141.267 43.8643C141.208 43.695 141.117 43.5729 140.993 43.498C140.873 43.4199 140.72 43.3809 140.534 43.3809C140.365 43.3809 140.207 43.4281 140.061 43.5225C139.914 43.6169 139.785 43.7471 139.675 43.9131C139.567 44.0791 139.483 44.2695 139.421 44.4844C139.362 44.696 139.333 44.9206 139.333 45.1582ZM146.384 42.7168H147.16V48.0439C147.16 48.5094 147.079 48.8936 146.916 49.1963C146.757 49.499 146.534 49.722 146.247 49.8652C145.961 50.0117 145.63 50.085 145.256 50.085C145.122 50.085 144.955 50.0605 144.753 50.0117C144.551 49.9629 144.349 49.888 144.147 49.7871C143.946 49.6895 143.78 49.5658 143.649 49.416L144.006 48.8154C144.191 49.0042 144.388 49.1393 144.597 49.2207C144.805 49.3021 145.004 49.3428 145.192 49.3428C145.417 49.3428 145.612 49.3021 145.778 49.2207C145.944 49.1393 146.073 49.0059 146.164 48.8203C146.255 48.638 146.301 48.3939 146.301 48.0879V43.8789L146.384 42.7168ZM143.347 45.6123V45.1191C143.347 44.6829 143.387 44.3086 143.469 43.9961C143.55 43.6803 143.667 43.4215 143.82 43.2197C143.977 43.0146 144.164 42.8633 144.382 42.7656C144.6 42.668 144.844 42.6191 145.114 42.6191C145.388 42.6191 145.624 42.6745 145.822 42.7852C146.021 42.8958 146.185 43.057 146.315 43.2686C146.449 43.4769 146.553 43.7308 146.628 44.0303C146.706 44.3265 146.76 44.6618 146.789 45.0361V45.6953C146.76 46.0664 146.706 46.4001 146.628 46.6963C146.553 46.9925 146.447 47.2448 146.311 47.4531C146.177 47.6615 146.011 47.821 145.812 47.9316C145.614 48.0423 145.378 48.0977 145.104 48.0977C144.838 48.0977 144.597 48.0472 144.382 47.9463C144.167 47.8421 143.981 47.6875 143.825 47.4824C143.672 47.2741 143.553 47.0153 143.469 46.7061C143.387 46.3936 143.347 46.029 143.347 45.6123ZM144.211 45.1191V45.6123C144.211 45.9053 144.232 46.1608 144.274 46.3789C144.317 46.5937 144.382 46.7728 144.47 46.916C144.561 47.056 144.676 47.1602 144.816 47.2285C144.96 47.2969 145.131 47.3311 145.329 47.3311C145.57 47.3311 145.767 47.2725 145.92 47.1553C146.073 47.0381 146.195 46.8835 146.286 46.6914C146.381 46.4961 146.455 46.2861 146.511 46.0615V44.6748C146.478 44.5088 146.431 44.3493 146.369 44.1963C146.311 44.04 146.234 43.9017 146.14 43.7812C146.045 43.6576 145.931 43.5599 145.798 43.4883C145.668 43.4167 145.515 43.3809 145.339 43.3809C145.14 43.3809 144.969 43.4167 144.826 43.4883C144.683 43.5599 144.566 43.6673 144.475 43.8105C144.383 43.9538 144.317 44.1344 144.274 44.3525C144.232 44.5706 144.211 44.8262 144.211 45.1191Z" fill="#E0E0E9"/>
<path d="M194.514 42.9209L196.223 36.8906H197.199L194.992 44H194.304L194.514 42.9209ZM192.98 36.8906L194.675 42.9209L194.899 44H194.211L192.004 36.8906H192.98ZM199.724 44.0977C199.408 44.0977 199.123 44.0505 198.869 43.9561C198.615 43.8617 198.399 43.7184 198.22 43.5264C198.041 43.3311 197.904 43.0853 197.81 42.7891C197.715 42.4928 197.668 42.1429 197.668 41.7393V41.1436C197.668 40.6781 197.722 40.2842 197.829 39.9619C197.94 39.6396 198.088 39.3809 198.273 39.1855C198.459 38.987 198.669 38.8438 198.903 38.7559C199.138 38.6647 199.379 38.6191 199.626 38.6191C199.958 38.6191 200.241 38.6729 200.476 38.7803C200.71 38.8877 200.9 39.0472 201.047 39.2588C201.193 39.4704 201.301 39.7308 201.369 40.04C201.441 40.3493 201.477 40.7057 201.477 41.1094V41.6123H198.176V40.875H200.612V40.7529C200.599 40.4795 200.562 40.2386 200.5 40.0303C200.441 39.8219 200.344 39.6592 200.207 39.542C200.07 39.4215 199.877 39.3613 199.626 39.3613C199.466 39.3613 199.318 39.389 199.182 39.4443C199.048 39.4964 198.933 39.5892 198.835 39.7227C198.741 39.8529 198.666 40.0335 198.61 40.2646C198.558 40.4958 198.532 40.7887 198.532 41.1436V41.7393C198.532 42.0225 198.558 42.2666 198.61 42.4717C198.666 42.6735 198.745 42.8411 198.85 42.9746C198.957 43.1048 199.087 43.2025 199.24 43.2676C199.396 43.3294 199.574 43.3604 199.772 43.3604C200.062 43.3604 200.301 43.305 200.49 43.1943C200.679 43.0804 200.843 42.9355 200.983 42.7598L201.438 43.3018C201.343 43.4352 201.219 43.5638 201.066 43.6875C200.917 43.8079 200.731 43.9072 200.51 43.9854C200.292 44.0602 200.03 44.0977 199.724 44.0977ZM203.386 39.5469V44H202.521V38.7168H203.356L203.386 39.5469ZM204.699 38.6875L204.704 39.5273C204.632 39.5111 204.567 39.5013 204.509 39.498C204.453 39.4915 204.388 39.4883 204.313 39.4883C204.151 39.4883 204.007 39.5208 203.884 39.5859C203.763 39.651 203.659 39.7422 203.571 39.8594C203.483 39.9766 203.413 40.1165 203.361 40.2793C203.309 40.4388 203.273 40.6146 203.254 40.8066L203.029 40.9531C203.029 40.6341 203.054 40.3346 203.103 40.0547C203.155 39.7747 203.234 39.5273 203.342 39.3125C203.449 39.0944 203.586 38.9251 203.752 38.8047C203.921 38.681 204.123 38.6191 204.357 38.6191C204.41 38.6191 204.473 38.6273 204.548 38.6436C204.626 38.6566 204.676 38.6712 204.699 38.6875ZM206.496 38.7168V44H205.637V38.7168H206.496ZM205.588 37.3154C205.588 37.1689 205.629 37.0452 205.71 36.9443C205.791 36.8434 205.913 36.793 206.076 36.793C206.239 36.793 206.361 36.8434 206.442 36.9443C206.527 37.0452 206.569 37.1689 206.569 37.3154C206.569 37.4554 206.527 37.5758 206.442 37.6768C206.361 37.7744 206.239 37.8232 206.076 37.8232C205.913 37.8232 205.791 37.7744 205.71 37.6768C205.629 37.5758 205.588 37.4554 205.588 37.3154ZM208.967 44H208.103V38.2578C208.103 37.8574 208.169 37.5189 208.303 37.2422C208.439 36.9655 208.633 36.7555 208.884 36.6123C209.138 36.4691 209.437 36.3975 209.782 36.3975C209.987 36.3975 210.184 36.4268 210.373 36.4854C210.562 36.5407 210.757 36.6107 210.959 36.6953L210.812 37.457C210.695 37.3984 210.552 37.3431 210.383 37.291C210.214 37.2357 210.036 37.208 209.851 37.208C209.525 37.208 209.296 37.2959 209.162 37.4717C209.032 37.6442 208.967 37.9062 208.967 38.2578V44ZM209.821 38.7168V39.4102H207.414V38.7168H209.821ZM211.374 38.7168V44H210.51V38.7168H211.374ZM214.597 43.3604C214.769 43.3604 214.925 43.3262 215.065 43.2578C215.209 43.1862 215.326 43.0755 215.417 42.9258C215.508 42.7728 215.56 42.5742 215.573 42.3301H216.384C216.371 42.6816 216.281 42.9909 216.115 43.2578C215.952 43.5215 215.738 43.7282 215.471 43.8779C215.207 44.0244 214.916 44.0977 214.597 44.0977C214.255 44.0977 213.957 44.0423 213.703 43.9316C213.452 43.821 213.244 43.6615 213.078 43.4531C212.915 43.2415 212.793 42.986 212.712 42.6865C212.631 42.3838 212.59 42.0404 212.59 41.6562V41.0605C212.59 40.6764 212.631 40.3346 212.712 40.0352C212.793 39.7324 212.915 39.4769 213.078 39.2686C213.244 39.057 213.452 38.8958 213.703 38.7852C213.957 38.6745 214.255 38.6191 214.597 38.6191C214.955 38.6191 215.264 38.6956 215.524 38.8486C215.788 38.9984 215.993 39.2165 216.14 39.5029C216.289 39.7861 216.371 40.1296 216.384 40.5332H215.573C215.56 40.2728 215.513 40.0563 215.432 39.8838C215.35 39.708 215.24 39.5778 215.1 39.4932C214.96 39.4053 214.792 39.3613 214.597 39.3613C214.369 39.3613 214.18 39.402 214.03 39.4834C213.884 39.5615 213.768 39.6755 213.684 39.8252C213.599 39.9749 213.539 40.154 213.503 40.3623C213.47 40.5706 213.454 40.8034 213.454 41.0605V41.6562C213.454 41.9134 213.47 42.1478 213.503 42.3594C213.539 42.5677 213.597 42.7467 213.679 42.8965C213.763 43.0462 213.881 43.1618 214.03 43.2432C214.18 43.3213 214.369 43.3604 214.597 43.3604ZM219.973 43.0967V40.2305C219.973 40.0221 219.94 39.8545 219.875 39.7275C219.813 39.6006 219.719 39.5078 219.592 39.4492C219.468 39.3906 219.312 39.3613 219.123 39.3613C218.941 39.3613 218.783 39.3988 218.649 39.4736C218.519 39.5485 218.418 39.6478 218.347 39.7715C218.278 39.8952 218.244 40.0319 218.244 40.1816H217.38C217.38 39.9928 217.421 39.8057 217.502 39.6201C217.587 39.4346 217.707 39.2669 217.863 39.1172C218.02 38.9642 218.207 38.8437 218.425 38.7559C218.646 38.6647 218.894 38.6191 219.167 38.6191C219.493 38.6191 219.781 38.6729 220.031 38.7803C220.282 38.8844 220.479 39.0553 220.622 39.293C220.765 39.5306 220.837 39.8464 220.837 40.2402V42.8477C220.837 43.0234 220.85 43.2106 220.876 43.4092C220.905 43.6077 220.946 43.7786 220.998 43.9219V44H220.104C220.062 43.8958 220.03 43.7575 220.007 43.585C219.984 43.4092 219.973 43.2464 219.973 43.0967ZM220.109 40.7969L220.119 41.4316H219.519C219.313 41.4316 219.126 41.4544 218.957 41.5C218.791 41.5456 218.648 41.6123 218.527 41.7002C218.407 41.7848 218.314 41.8906 218.249 42.0176C218.187 42.1445 218.156 42.2894 218.156 42.4521C218.156 42.6637 218.186 42.833 218.244 42.96C218.303 43.0837 218.391 43.1732 218.508 43.2285C218.625 43.2839 218.773 43.3115 218.952 43.3115C219.17 43.3115 219.362 43.2611 219.528 43.1602C219.694 43.0592 219.823 42.9372 219.914 42.7939C220.008 42.6507 220.052 42.5173 220.046 42.3936L220.236 42.7988C220.223 42.9258 220.181 43.0641 220.109 43.2139C220.041 43.3604 219.945 43.502 219.821 43.6387C219.698 43.7721 219.551 43.8828 219.382 43.9707C219.216 44.0553 219.029 44.0977 218.82 44.0977C218.514 44.0977 218.246 44.0391 218.015 43.9219C217.787 43.8047 217.609 43.6322 217.482 43.4043C217.355 43.1764 217.292 42.8949 217.292 42.5596C217.292 42.3057 217.336 42.0713 217.424 41.8564C217.512 41.6416 217.642 41.4561 217.814 41.2998C217.987 41.1403 218.203 41.0166 218.464 40.9287C218.728 40.8408 219.032 40.7969 219.377 40.7969H220.109ZM224.108 38.7168V39.4102H221.643V38.7168H224.108ZM222.448 37.4326H223.312V42.6914C223.312 42.8704 223.334 43.0055 223.376 43.0967C223.422 43.1878 223.479 43.248 223.547 43.2773C223.615 43.3066 223.688 43.3213 223.767 43.3213C223.825 43.3213 223.89 43.3148 223.962 43.3018C224.034 43.2855 224.082 43.2725 224.108 43.2627L224.104 44C224.045 44.0228 223.967 44.0439 223.869 44.0635C223.771 44.0863 223.648 44.0977 223.498 44.0977C223.312 44.0977 223.14 44.0537 222.98 43.9658C222.821 43.8779 222.692 43.7314 222.595 43.5264C222.497 43.318 222.448 43.0381 222.448 42.6865V37.4326ZM226.066 38.7168V44H225.207V38.7168H226.066ZM225.158 37.3154C225.158 37.1689 225.199 37.0452 225.28 36.9443C225.362 36.8434 225.484 36.793 225.646 36.793C225.809 36.793 225.931 36.8434 226.013 36.9443C226.097 37.0452 226.14 37.1689 226.14 37.3154C226.14 37.4554 226.097 37.5758 226.013 37.6768C225.931 37.7744 225.809 37.8232 225.646 37.8232C225.484 37.8232 225.362 37.7744 225.28 37.6768C225.199 37.5758 225.158 37.4554 225.158 37.3154ZM229.323 44.0977C229.007 44.0977 228.723 44.0505 228.469 43.9561C228.215 43.8617 227.998 43.7184 227.819 43.5264C227.64 43.3311 227.504 43.0853 227.409 42.7891C227.315 42.4928 227.268 42.1429 227.268 41.7393V41.1436C227.268 40.6781 227.321 40.2842 227.429 39.9619C227.539 39.6396 227.688 39.3809 227.873 39.1855C228.059 38.987 228.269 38.8437 228.503 38.7559C228.737 38.6647 228.978 38.6191 229.226 38.6191C229.558 38.6191 229.841 38.6729 230.075 38.7803C230.31 38.8877 230.5 39.0472 230.646 39.2588C230.793 39.4704 230.9 39.7308 230.969 40.04C231.04 40.3493 231.076 40.7057 231.076 41.1094V41.6123H227.775V40.875H230.212V40.7529C230.199 40.4795 230.161 40.2386 230.1 40.0303C230.041 39.8219 229.943 39.6592 229.807 39.542C229.67 39.4215 229.476 39.3613 229.226 39.3613C229.066 39.3613 228.918 39.389 228.781 39.4443C228.648 39.4964 228.532 39.5892 228.435 39.7227C228.34 39.8529 228.265 40.0335 228.21 40.2646C228.158 40.4958 228.132 40.7887 228.132 41.1436V41.7393C228.132 42.0225 228.158 42.2666 228.21 42.4717C228.265 42.6735 228.345 42.8411 228.449 42.9746C228.557 43.1048 228.687 43.2025 228.84 43.2676C228.996 43.3294 229.174 43.3604 229.372 43.3604C229.662 43.3604 229.901 43.305 230.09 43.1943C230.279 43.0804 230.443 42.9355 230.583 42.7598L231.037 43.3018C230.943 43.4352 230.819 43.5638 230.666 43.6875C230.516 43.8079 230.331 43.9072 230.109 43.9854C229.891 44.0602 229.629 44.0977 229.323 44.0977ZM235.573 40.0547L236.447 39.2979C236.62 39.1579 236.748 39.0179 236.833 38.8779C236.918 38.7347 236.96 38.5394 236.96 38.292C236.96 38.0999 236.9 37.9258 236.779 37.7695C236.662 37.61 236.494 37.5303 236.276 37.5303C236.13 37.5303 236.006 37.5742 235.905 37.6621C235.804 37.75 235.728 37.8672 235.676 38.0137C235.627 38.1569 235.603 38.3148 235.603 38.4873C235.603 38.6338 235.633 38.7852 235.695 38.9414C235.76 39.0977 235.847 39.2604 235.954 39.4297C236.062 39.599 236.184 39.778 236.32 39.9668L239.118 44H238.088L235.827 40.6992C235.622 40.4128 235.437 40.1507 235.271 39.9131C235.108 39.6722 234.978 39.4395 234.88 39.2148C234.785 38.9902 234.738 38.7575 234.738 38.5166C234.738 38.1455 234.802 37.833 234.929 37.5791C235.059 37.3219 235.24 37.1266 235.471 36.9932C235.702 36.8597 235.972 36.793 236.281 36.793C236.584 36.793 236.844 36.863 237.062 37.0029C237.284 37.1396 237.455 37.3219 237.575 37.5498C237.696 37.7744 237.756 38.0218 237.756 38.292C237.756 38.5199 237.723 38.7249 237.658 38.9072C237.593 39.0863 237.499 39.2507 237.375 39.4004C237.255 39.5501 237.11 39.6966 236.94 39.8398L235.72 40.8896C235.537 41.0622 235.404 41.2266 235.319 41.3828C235.238 41.5391 235.186 41.6774 235.163 41.7979C235.144 41.9183 235.134 42.0143 235.134 42.0859C235.134 42.3171 235.173 42.5286 235.251 42.7207C235.332 42.9128 235.454 43.0674 235.617 43.1846C235.78 43.2985 235.985 43.3555 236.232 43.3555C236.451 43.3555 236.662 43.2936 236.867 43.1699C237.076 43.043 237.263 42.8639 237.429 42.6328C237.595 42.3984 237.727 42.1201 237.824 41.7979C237.925 41.4723 237.976 41.1126 237.976 40.7187H238.747C238.747 41.041 238.721 41.3454 238.669 41.6318C238.617 41.9183 238.534 42.1852 238.42 42.4326C238.309 42.6768 238.166 42.8997 237.99 43.1016C237.967 43.1309 237.948 43.165 237.932 43.2041C237.915 43.2432 237.896 43.2773 237.873 43.3066C237.668 43.5703 237.414 43.7689 237.111 43.9023C236.812 44.0326 236.519 44.0977 236.232 44.0977C235.829 44.0977 235.48 44.0114 235.188 43.8389C234.895 43.6663 234.668 43.4287 234.509 43.126C234.349 42.8232 234.27 42.4766 234.27 42.0859C234.27 41.7865 234.325 41.5228 234.436 41.2949C234.546 41.0671 234.699 40.8538 234.895 40.6553C235.093 40.4567 235.319 40.2565 235.573 40.0547ZM200.28 47.5H201.145V53.9746L201.071 55H200.28V47.5ZM204.108 52.1191V52.6123C204.108 53.029 204.069 53.3936 203.991 53.7061C203.916 54.0153 203.804 54.2741 203.654 54.4824C203.505 54.6875 203.322 54.8421 203.107 54.9463C202.893 55.0472 202.647 55.0977 202.37 55.0977C202.097 55.0977 201.861 55.0423 201.662 54.9316C201.464 54.821 201.298 54.6615 201.164 54.4531C201.031 54.2448 200.925 53.9925 200.847 53.6963C200.772 53.4001 200.72 53.0664 200.69 52.6953V52.0361C200.72 51.6618 200.772 51.3265 200.847 51.0303C200.922 50.7308 201.026 50.4769 201.159 50.2686C201.293 50.057 201.459 49.8958 201.657 49.7852C201.856 49.6745 202.092 49.6191 202.365 49.6191C202.645 49.6191 202.893 49.668 203.107 49.7656C203.326 49.8633 203.508 50.0146 203.654 50.2197C203.804 50.4215 203.916 50.6803 203.991 50.9961C204.069 51.3086 204.108 51.6829 204.108 52.1191ZM203.244 52.6123V52.1191C203.244 51.8262 203.225 51.5706 203.186 51.3525C203.15 51.1344 203.09 50.9538 203.005 50.8105C202.92 50.6673 202.806 50.5599 202.663 50.4883C202.523 50.4167 202.349 50.3809 202.141 50.3809C201.965 50.3809 201.81 50.4167 201.677 50.4883C201.547 50.5599 201.434 50.6576 201.34 50.7812C201.245 50.9017 201.167 51.04 201.105 51.1963C201.044 51.3493 200.998 51.5088 200.969 51.6748V53.0615C201.011 53.2731 201.078 53.4766 201.169 53.6719C201.263 53.8639 201.39 54.0218 201.55 54.1455C201.709 54.2692 201.908 54.3311 202.146 54.3311C202.344 54.3311 202.512 54.2969 202.648 54.2285C202.788 54.1602 202.902 54.056 202.99 53.916C203.078 53.7728 203.142 53.5938 203.181 53.3789C203.223 53.1608 203.244 52.9053 203.244 52.6123ZM207.102 55.0977C206.786 55.0977 206.501 55.0505 206.247 54.9561C205.993 54.8617 205.777 54.7184 205.598 54.5264C205.419 54.3311 205.282 54.0853 205.188 53.7891C205.093 53.4928 205.046 53.1429 205.046 52.7393V52.1436C205.046 51.6781 205.1 51.2842 205.207 50.9619C205.318 50.6396 205.466 50.3809 205.651 50.1855C205.837 49.987 206.047 49.8438 206.281 49.7559C206.516 49.6647 206.757 49.6191 207.004 49.6191C207.336 49.6191 207.619 49.6729 207.854 49.7803C208.088 49.8877 208.278 50.0472 208.425 50.2588C208.571 50.4704 208.679 50.7308 208.747 51.04C208.819 51.3493 208.854 51.7057 208.854 52.1094V52.6123H205.554V51.875H207.99V51.7529C207.977 51.4795 207.94 51.2386 207.878 51.0303C207.819 50.8219 207.722 50.6592 207.585 50.542C207.448 50.4215 207.255 50.3613 207.004 50.3613C206.844 50.3613 206.696 50.389 206.56 50.4443C206.426 50.4964 206.311 50.5892 206.213 50.7227C206.118 50.8529 206.044 51.0335 205.988 51.2646C205.936 51.4958 205.91 51.7887 205.91 52.1436V52.7393C205.91 53.0225 205.936 53.2666 205.988 53.4717C206.044 53.6735 206.123 53.8411 206.228 53.9746C206.335 54.1048 206.465 54.2025 206.618 54.2676C206.774 54.3294 206.952 54.3604 207.15 54.3604C207.44 54.3604 207.679 54.305 207.868 54.1943C208.057 54.0804 208.221 53.9355 208.361 53.7598L208.815 54.3018C208.721 54.4352 208.597 54.5638 208.444 54.6875C208.295 54.8079 208.109 54.9072 207.888 54.9854C207.67 55.0602 207.408 55.0977 207.102 55.0977ZM211.828 49.7168V50.4102H209.362V49.7168H211.828ZM210.168 48.4326H211.032V53.6914C211.032 53.8704 211.053 54.0055 211.096 54.0967C211.141 54.1878 211.198 54.248 211.267 54.2773C211.335 54.3066 211.408 54.3213 211.486 54.3213C211.545 54.3213 211.61 54.3148 211.682 54.3018C211.753 54.2855 211.802 54.2725 211.828 54.2627L211.823 55C211.765 55.0228 211.687 55.0439 211.589 55.0635C211.491 55.0863 211.368 55.0977 211.218 55.0977C211.032 55.0977 210.86 55.0537 210.7 54.9658C210.541 54.8779 210.412 54.7314 210.314 54.5264C210.217 54.318 210.168 54.0381 210.168 53.6865V48.4326ZM215.446 54.0967V51.2305C215.446 51.0221 215.414 50.8545 215.349 50.7275C215.287 50.6006 215.192 50.5078 215.065 50.4492C214.942 50.3906 214.785 50.3613 214.597 50.3613C214.414 50.3613 214.257 50.3988 214.123 50.4736C213.993 50.5485 213.892 50.6478 213.82 50.7715C213.752 50.8952 213.718 51.0319 213.718 51.1816H212.854C212.854 50.9928 212.894 50.8057 212.976 50.6201C213.06 50.4346 213.181 50.2669 213.337 50.1172C213.493 49.9642 213.68 49.8438 213.898 49.7559C214.12 49.6647 214.367 49.6191 214.641 49.6191C214.966 49.6191 215.254 49.6729 215.505 49.7803C215.756 49.8844 215.952 50.0553 216.096 50.293C216.239 50.5306 216.311 50.8464 216.311 51.2402V53.8477C216.311 54.0234 216.324 54.2106 216.35 54.4092C216.379 54.6077 216.42 54.7786 216.472 54.9219V55H215.578C215.536 54.8958 215.503 54.7575 215.48 54.585C215.458 54.4092 215.446 54.2464 215.446 54.0967ZM215.583 51.7969L215.593 52.4316H214.992C214.787 52.4316 214.6 52.4544 214.431 52.5C214.265 52.5456 214.121 52.6123 214.001 52.7002C213.881 52.7848 213.788 52.8906 213.723 53.0176C213.661 53.1445 213.63 53.2894 213.63 53.4521C213.63 53.6637 213.659 53.833 213.718 53.96C213.776 54.0837 213.864 54.1732 213.981 54.2285C214.099 54.2839 214.247 54.3115 214.426 54.3115C214.644 54.3115 214.836 54.2611 215.002 54.1602C215.168 54.0592 215.297 53.9372 215.388 53.7939C215.482 53.6507 215.526 53.5173 215.52 53.3936L215.71 53.7988C215.697 53.9258 215.655 54.0641 215.583 54.2139C215.515 54.3604 215.419 54.502 215.295 54.6387C215.171 54.7721 215.025 54.8828 214.855 54.9707C214.689 55.0553 214.502 55.0977 214.294 55.0977C213.988 55.0977 213.719 55.0391 213.488 54.9219C213.26 54.8047 213.083 54.6322 212.956 54.4043C212.829 54.1764 212.766 53.8949 212.766 53.5596C212.766 53.3057 212.81 53.0713 212.897 52.8564C212.985 52.6416 213.116 52.4561 213.288 52.2998C213.461 52.1403 213.677 52.0166 213.938 51.9287C214.201 51.8408 214.506 51.7969 214.851 51.7969H215.583ZM218.581 47.5V55H217.722V47.5L218.581 47.5ZM220.876 49.7168V55H220.017V49.7168H220.876ZM219.968 48.3154C219.968 48.1689 220.008 48.0452 220.09 47.9443C220.171 47.8434 220.293 47.793 220.456 47.793C220.619 47.793 220.741 47.8434 220.822 47.9443C220.907 48.0452 220.949 48.1689 220.949 48.3154C220.949 48.4554 220.907 48.5758 220.822 48.6768C220.741 48.7744 220.619 48.8232 220.456 48.8232C220.293 48.8232 220.171 48.7744 220.09 48.6768C220.008 48.5758 219.968 48.4554 219.968 48.3154ZM223.107 50.8447V55H222.243V49.7168H223.059L223.107 50.8447ZM222.897 52.1582L222.546 52.1436C222.543 51.7822 222.583 51.4486 222.668 51.1426C222.756 50.8333 222.88 50.5648 223.039 50.3369C223.202 50.109 223.396 49.9333 223.62 49.8096C223.845 49.6826 224.094 49.6191 224.367 49.6191C224.582 49.6191 224.777 49.6549 224.953 49.7266C225.129 49.7949 225.279 49.9056 225.402 50.0586C225.526 50.2116 225.62 50.4102 225.686 50.6543C225.754 50.8952 225.788 51.1898 225.788 51.5381V55H224.924V51.5283C224.924 51.2516 224.893 51.0303 224.831 50.8643C224.772 50.695 224.681 50.5729 224.558 50.498C224.437 50.4199 224.284 50.3809 224.099 50.3809C223.929 50.3809 223.771 50.4281 223.625 50.5225C223.479 50.6169 223.35 50.7471 223.239 50.9131C223.132 51.0791 223.047 51.2695 222.985 51.4844C222.927 51.696 222.897 51.9206 222.897 52.1582ZM229.948 49.7168H230.725V55.0439C230.725 55.5094 230.643 55.8936 230.48 56.1963C230.321 56.499 230.098 56.722 229.812 56.8652C229.525 57.0117 229.195 57.085 228.82 57.085C228.687 57.085 228.519 57.0605 228.317 57.0117C228.116 56.9629 227.914 56.888 227.712 56.7871C227.51 56.6895 227.344 56.5658 227.214 56.416L227.57 55.8154C227.756 56.0042 227.953 56.1393 228.161 56.2207C228.369 56.3021 228.568 56.3428 228.757 56.3428C228.981 56.3428 229.177 56.3021 229.343 56.2207C229.509 56.1393 229.637 56.0059 229.729 55.8203C229.82 55.638 229.865 55.3939 229.865 55.0879V50.8789L229.948 49.7168ZM226.911 52.6123V52.1191C226.911 51.6829 226.952 51.3086 227.033 50.9961C227.115 50.6803 227.232 50.4215 227.385 50.2197C227.541 50.0146 227.728 49.8633 227.946 49.7656C228.164 49.668 228.409 49.6191 228.679 49.6191C228.952 49.6191 229.188 49.6745 229.387 49.7852C229.585 49.8958 229.75 50.057 229.88 50.2686C230.013 50.4769 230.118 50.7308 230.192 51.0303C230.271 51.3265 230.324 51.6618 230.354 52.0361V52.6953C230.324 53.0664 230.271 53.4001 230.192 53.6963C230.118 53.9925 230.012 54.2448 229.875 54.4531C229.742 54.6615 229.576 54.821 229.377 54.9316C229.178 55.0423 228.942 55.0977 228.669 55.0977C228.402 55.0977 228.161 55.0472 227.946 54.9463C227.731 54.8421 227.546 54.6875 227.39 54.4824C227.237 54.2741 227.118 54.0153 227.033 53.7061C226.952 53.3936 226.911 53.029 226.911 52.6123ZM227.775 52.1191V52.6123C227.775 52.9053 227.797 53.1608 227.839 53.3789C227.881 53.5937 227.946 53.7728 228.034 53.916C228.125 54.056 228.241 54.1602 228.381 54.2285C228.524 54.2969 228.695 54.3311 228.894 54.3311C229.134 54.3311 229.331 54.2725 229.484 54.1553C229.637 54.0381 229.759 53.8835 229.851 53.6914C229.945 53.4961 230.02 53.2861 230.075 53.0615V51.6748C230.043 51.5088 229.995 51.3493 229.934 51.1963C229.875 51.04 229.799 50.9017 229.704 50.7812C229.61 50.6576 229.496 50.5599 229.362 50.4883C229.232 50.4167 229.079 50.3809 228.903 50.3809C228.705 50.3809 228.534 50.4167 228.391 50.4883C228.247 50.5599 228.13 50.6673 228.039 50.8105C227.948 50.9538 227.881 51.1344 227.839 51.3525C227.797 51.5706 227.775 51.8262 227.775 52.1191Z" fill="#E0E0E9"/>
<path fill-rule="evenodd" clip-rule="evenodd" d="M205 16L138 16V14L205 14V16Z" fill="#D0CFD7"/>
<path fill-rule="evenodd" clip-rule="evenodd" d="M112 16L45 16V14L112 14V16Z" fill="#D0CFD7"/>
<path fill-rule="evenodd" clip-rule="evenodd" d="M19.7612 6.17317C19 8.01088 19 10.3406 19 15C19 19.6594 19 21.9891 19.7612 23.8268C20.7761 26.2771 22.7229 28.2239 25.1732 29.2388C27.0109 30 29.3406 30 34 30C38.6594 30 40.9891 30 42.8268 29.2388C45.2771 28.2239 47.2239 26.2771 48.2388 23.8268C49 21.9891 49 19.6594 49 15C49 10.3406 49 8.01088 48.2388 6.17317C47.2239 3.72288 45.2771 1.77614 42.8268 0.761205C40.9891 0 38.6594 0 34 0C29.3406 0 27.0109 0 25.1732 0.761205C22.7229 1.77614 20.7761 3.72288 19.7612 6.17317ZM40.7071 11.7071C41.0976 11.3166 41.0976 10.6834 40.7071 10.2929C40.3166 9.90237 39.6834 9.90237 39.2929 10.2929L32 17.5858L28.7071 14.2929C28.3166 13.9024 27.6834 13.9024 27.2929 14.2929C26.9024 14.6834 26.9024 15.3166 27.2929 15.7071L31.2929 19.7071C31.4804 19.8946 31.7348 20 32 20C32.2652 20 32.5196 19.8946 32.7071 19.7071L40.7071 11.7071Z" fill="url(#paint1_linear_363_3037)"/>
<path fill-rule="evenodd" clip-rule="evenodd" d="M201.761 6.17317C201 8.01088 201 10.3406 201 15C201 19.6594 201 21.9891 201.761 23.8268C202.776 26.2771 204.723 28.2239 207.173 29.2388C209.011 30 211.341 30 216 30C220.659 30 222.989 30 224.827 29.2388C227.277 28.2239 229.224 26.2771 230.239 23.8268C231 21.9891 231 19.6594 231 15C231 10.3406 231 8.01088 230.239 6.17317C229.224 3.72288 227.277 1.77614 224.827 0.761205C222.989 0 220.659 0 216 0C211.341 0 209.011 0 207.173 0.761205C204.723 1.77614 202.776 3.72288 201.761 6.17317ZM222.707 11.7071C223.098 11.3166 223.098 10.6834 222.707 10.2929C222.317 9.90237 221.683 9.90237 221.293 10.2929L214 17.5858L210.707 14.2929C210.317 13.9024 209.683 13.9024 209.293 14.2929C208.902 14.6834 208.902 15.3166 209.293 15.7071L213.293 19.7071C213.48 19.8946 213.735 20 214 20C214.265 20 214.52 19.8946 214.707 19.7071L222.707 11.7071Z" fill="#D0CFD7"/>
<path fill-rule="evenodd" clip-rule="evenodd" d="M110.761 6.17317C110 8.01088 110 10.3406 110 15C110 19.6594 110 21.9891 110.761 23.8268C111.776 26.2771 113.723 28.2239 116.173 29.2388C118.011 30 120.341 30 125 30C129.659 30 131.989 30 133.827 29.2388C136.277 28.2239 138.224 26.2771 139.239 23.8268C140 21.9891 140 19.6594 140 15C140 10.3406 140 8.01088 139.239 6.17317C138.224 3.72288 136.277 1.77614 133.827 0.761205C131.989 0 129.659 0 125 0C120.341 0 118.011 0 116.173 0.761205C113.723 1.77614 111.776 3.72288 110.761 6.17317ZM131.707 11.7071C132.098 11.3166 132.098 10.6834 131.707 10.2929C131.317 9.90237 130.683 9.90237 130.293 10.2929L123 17.5858L119.707 14.2929C119.317 13.9024 118.683 13.9024 118.293 14.2929C117.902 14.6834 117.902 15.3166 118.293 15.7071L122.293 19.7071C122.48 19.8946 122.735 20 123 20C123.265 20 123.52 19.8946 123.707 19.7071L131.707 11.7071Z" fill="#D0CFD7"/>
<defs>
<linearGradient id="paint0_linear_363_3037" x1="33.5" y1="57" x2="33.5" y2="35" gradientUnits="userSpaceOnUse">
<stop stop-color="#5CCC94"/>
<stop offset="1" stop-color="#8CCAAE"/>
</linearGradient>
<linearGradient id="paint1_linear_363_3037" x1="34" y1="30" x2="34" y2="1.58545e-07" gradientUnits="userSpaceOnUse">
<stop stop-color="#5CCC94"/>
<stop offset="1" stop-color="#8CCAAE"/>
</linearGradient>
</defs>
</svg>
