<svg width="312" height="57" viewBox="0 0 312 57" fill="none" xmlns="http://www.w3.org/2000/svg">
<path d="M2.88477 35.8906L4.74023 41.6914L6.5957 35.8906H7.74805L7.74805 43H6.85449L6.85449 40.2314L6.9375 37.458L5.07715 43H4.39355L2.54297 37.4775L2.62598 40.2314L2.62598 43H1.73242L1.73242 35.8906H2.88477ZM11.8887 43C11.8366 42.8861 11.7992 42.694 11.7764 42.4238C11.4704 42.873 11.0798 43.0977 10.6045 43.0977C10.126 43.0977 9.75163 42.9642 9.48145 42.6973C9.21452 42.4271 9.08105 42.0479 9.08105 41.5596C9.08105 41.0225 9.26335 40.596 9.62793 40.2803C9.99251 39.9645 10.4922 39.8034 11.127 39.7969H11.7617L11.7617 39.2354C11.7617 38.9196 11.6917 38.695 11.5518 38.5615C11.4118 38.4281 11.1986 38.3613 10.9121 38.3613C10.6517 38.3613 10.4401 38.4395 10.2773 38.5957C10.1146 38.7487 10.0332 38.944 10.0332 39.1816H9.16895C9.16895 38.9115 9.2487 38.6543 9.4082 38.4102C9.56771 38.1628 9.78255 37.9691 10.0527 37.8291C10.3229 37.6891 10.624 37.6191 10.9561 37.6191C11.4964 37.6191 11.9066 37.7542 12.1865 38.0244C12.4697 38.2913 12.6146 38.682 12.6211 39.1963L12.6211 41.8623C12.6243 42.2692 12.6797 42.6224 12.7871 42.9219V43H11.8887ZM10.7363 42.3115C10.9479 42.3115 11.1497 42.2529 11.3418 42.1357C11.5339 42.0186 11.6738 41.8721 11.7617 41.6963V40.4365H11.2734C10.8633 40.443 10.5394 40.5358 10.3018 40.7148C10.0641 40.8906 9.94531 41.138 9.94531 41.457C9.94531 41.7565 10.0055 41.9746 10.126 42.1113C10.2464 42.2448 10.4499 42.3115 10.7363 42.3115ZM15.0967 36.4375V37.7168H15.8926V38.415H15.0967L15.0967 41.6914C15.0967 41.8997 15.1309 42.0576 15.1992 42.165C15.2676 42.2725 15.3848 42.3262 15.5508 42.3262C15.6647 42.3262 15.7803 42.3066 15.8975 42.2676L15.8877 43C15.6924 43.0651 15.4922 43.0977 15.2871 43.0977C14.9453 43.0977 14.6849 42.9756 14.5059 42.7314C14.3268 42.4873 14.2373 42.1423 14.2373 41.6963L14.2373 38.415H13.4316V37.7168H14.2373V36.4375H15.0967ZM19.1055 38.5273C18.985 38.5046 18.8548 38.4932 18.7148 38.4932C18.2721 38.4932 17.9629 38.7357 17.7871 39.2207V43H16.9229V37.7168H17.7627L17.7773 38.2539C18.0085 37.8307 18.3356 37.6191 18.7588 37.6191C18.8955 37.6191 19.0094 37.6419 19.1006 37.6875L19.1055 38.5273ZM20.9023 43H20.0381V37.7168H20.9023V43ZM20.9707 36.3154C20.9707 36.4619 20.93 36.584 20.8486 36.6816C20.7673 36.7793 20.6436 36.8281 20.4775 36.8281C20.3148 36.8281 20.1927 36.7793 20.1113 36.6816C20.0299 36.584 19.9893 36.4619 19.9893 36.3154C19.9893 36.1689 20.0299 36.0452 20.1113 35.9443C20.1927 35.8434 20.3148 35.793 20.4775 35.793C20.6403 35.793 20.7624 35.8451 20.8438 35.9492C20.9284 36.0501 20.9707 36.1722 20.9707 36.3154ZM24.1006 42.3604C24.387 42.3604 24.6165 42.2725 24.7891 42.0967C24.9616 41.9176 25.056 41.6637 25.0723 41.335H25.8877C25.8682 41.8428 25.6875 42.2643 25.3457 42.5996C25.0072 42.9316 24.5921 43.0977 24.1006 43.0977C23.4463 43.0977 22.9466 42.8926 22.6016 42.4824C22.2598 42.069 22.0889 41.4554 22.0889 40.6416V40.0605C22.0889 39.263 22.2598 38.6576 22.6016 38.2441C22.9434 37.8275 23.4414 37.6191 24.0957 37.6191C24.6361 37.6191 25.0641 37.79 25.3799 38.1318C25.6989 38.4736 25.8682 38.9408 25.8877 39.5332H25.0723C25.0527 39.1426 24.9583 38.8496 24.7891 38.6543C24.623 38.459 24.3919 38.3613 24.0957 38.3613C23.7116 38.3613 23.4268 38.4883 23.2412 38.7422C23.0557 38.9928 22.9596 39.4062 22.9531 39.9824V40.6562C22.9531 41.278 23.0443 41.7174 23.2266 41.9746C23.4121 42.2318 23.7035 42.3604 24.1006 42.3604ZM29.6035 43C29.5514 42.8861 29.514 42.694 29.4912 42.4238C29.1852 42.873 28.7946 43.0977 28.3193 43.0977C27.8408 43.0977 27.4665 42.9642 27.1963 42.6973C26.9294 42.4271 26.7959 42.0479 26.7959 41.5596C26.7959 41.0225 26.9782 40.596 27.3428 40.2803C27.7074 39.9645 28.207 39.8034 28.8418 39.7969H29.4766V39.2354C29.4766 38.9196 29.4066 38.695 29.2666 38.5615C29.1266 38.4281 28.9134 38.3613 28.627 38.3613C28.3665 38.3613 28.1549 38.4395 27.9922 38.5957C27.8294 38.7487 27.748 38.944 27.748 39.1816H26.8838C26.8838 38.9115 26.9635 38.6543 27.123 38.4102C27.2826 38.1628 27.4974 37.9691 27.7676 37.8291C28.0378 37.6891 28.3389 37.6191 28.6709 37.6191C29.2113 37.6191 29.6214 37.7542 29.9014 38.0244C30.1846 38.2913 30.3294 38.682 30.3359 39.1963V41.8623C30.3392 42.2692 30.3945 42.6224 30.502 42.9219V43H29.6035ZM28.4512 42.3115C28.6628 42.3115 28.8646 42.2529 29.0566 42.1357C29.2487 42.0186 29.3887 41.8721 29.4766 41.6963V40.4365H28.9883C28.5781 40.443 28.2542 40.5358 28.0166 40.7148C27.779 40.8906 27.6602 41.138 27.6602 41.457C27.6602 41.7565 27.7204 41.9746 27.8408 42.1113C27.9613 42.2448 28.1647 42.3115 28.4512 42.3115ZM5.56055 47.4375L5.56055 48.7168H6.35645V49.415H5.56055V52.6914C5.56055 52.8997 5.59473 53.0576 5.66309 53.165C5.73145 53.2725 5.84863 53.3262 6.01465 53.3262C6.12858 53.3262 6.24414 53.3066 6.36133 53.2676L6.35156 54C6.15625 54.0651 5.95605 54.0977 5.75098 54.0977C5.40918 54.0977 5.14876 53.9756 4.96973 53.7314C4.79069 53.4873 4.70117 53.1423 4.70117 52.6963V49.415H3.89551L3.89551 48.7168H4.70117L4.70117 47.4375H5.56055ZM8.31934 54H7.45508L7.45508 48.7168H8.31934L8.31934 54ZM8.35352 46.5049H9.44727L8.13867 47.9404H7.41113L8.35352 46.5049ZM13.5586 51.6123C13.5586 52.4489 13.4072 53.0723 13.1045 53.4824C12.805 53.8926 12.3802 54.0977 11.8301 54.0977C11.2995 54.0977 10.891 53.8975 10.6045 53.4971V56.0312H9.74512L9.74512 48.7168H10.5264L10.5703 49.3027C10.86 48.847 11.2751 48.6191 11.8154 48.6191C12.3949 48.6191 12.8278 48.821 13.1143 49.2246C13.4007 49.6283 13.5488 50.2321 13.5586 51.0361V51.6123ZM12.6992 51.1191C12.6992 50.5267 12.6081 50.0905 12.4258 49.8105C12.2435 49.5273 11.9505 49.3857 11.5469 49.3857C11.1335 49.3857 10.8193 49.5924 10.6045 50.0059L10.6045 52.7549C10.8161 53.1585 11.1335 53.3604 11.5566 53.3604C11.9473 53.3604 12.2337 53.2204 12.416 52.9404C12.6016 52.6572 12.696 52.2259 12.6992 51.6465V51.1191ZM17.3672 53.5361C17.0807 53.9105 16.6624 54.0977 16.1123 54.0977C15.6338 54.0977 15.2725 53.9333 15.0283 53.6045C14.7842 53.2725 14.6605 52.7907 14.6572 52.1592L14.6572 48.7168H15.5166L15.5166 52.0957C15.5166 52.9193 15.764 53.3311 16.2588 53.3311C16.7829 53.3311 17.1442 53.0967 17.3428 52.6279V48.7168H18.207V54H17.3867L17.3672 53.5361ZM22.0742 52.6475C22.0742 52.4619 22.0042 52.3024 21.8643 52.1689C21.7243 52.0355 21.4541 51.8792 21.0537 51.7002C20.5882 51.5081 20.2594 51.3438 20.0674 51.207C19.8786 51.0703 19.737 50.9157 19.6426 50.7432C19.5482 50.5674 19.501 50.359 19.501 50.1182C19.501 49.6885 19.6572 49.332 19.9697 49.0488C20.2855 48.7624 20.6875 48.6191 21.1758 48.6191C21.6901 48.6191 22.1035 48.7689 22.416 49.0684C22.7285 49.3678 22.8848 49.752 22.8848 50.2207H22.0254C22.0254 49.9831 21.9456 49.7812 21.7861 49.6152C21.6266 49.446 21.4232 49.3613 21.1758 49.3613C20.9219 49.3613 20.7217 49.4281 20.5752 49.5615C20.432 49.6917 20.3604 49.8675 20.3604 50.0889C20.3604 50.2646 20.4124 50.4062 20.5166 50.5137C20.624 50.6211 20.8796 50.7627 21.2832 50.9385C21.9245 51.1891 22.3607 51.4349 22.5918 51.6758C22.8229 51.9134 22.9385 52.2161 22.9385 52.584C22.9385 53.043 22.7806 53.4108 22.4648 53.6875C22.1491 53.9609 21.7259 54.0977 21.1953 54.0977C20.6452 54.0977 20.1992 53.9398 19.8574 53.624C19.5156 53.3083 19.3447 52.9079 19.3447 52.4229H20.2139C20.2236 52.7158 20.3132 52.9453 20.4824 53.1113C20.6517 53.2773 20.8893 53.3604 21.1953 53.3604C21.4818 53.3604 21.6999 53.2969 21.8496 53.1699C21.9993 53.0397 22.0742 52.8656 22.0742 52.6475ZM26.7861 54C26.734 53.8861 26.6966 53.694 26.6738 53.4238C26.3678 53.873 25.9772 54.0977 25.502 54.0977C25.0234 54.0977 24.6491 53.9642 24.3789 53.6973C24.112 53.4271 23.9785 53.0479 23.9785 52.5596C23.9785 52.0225 24.1608 51.596 24.5254 51.2803C24.89 50.9645 25.3896 50.8034 26.0244 50.7969H26.6592V50.2354C26.6592 49.9196 26.5892 49.695 26.4492 49.5615C26.3092 49.4281 26.096 49.3613 25.8096 49.3613C25.5492 49.3613 25.3376 49.4395 25.1748 49.5957C25.012 49.7487 24.9307 49.944 24.9307 50.1816H24.0664C24.0664 49.9115 24.1462 49.6543 24.3057 49.4102C24.4652 49.1628 24.68 48.9691 24.9502 48.8291C25.2204 48.6891 25.5215 48.6191 25.8535 48.6191C26.3939 48.6191 26.804 48.7542 27.084 49.0244C27.3672 49.2913 27.512 49.682 27.5186 50.1963V52.8623C27.5218 53.2692 27.5771 53.6224 27.6846 53.9219V54H26.7861ZM25.6338 53.3115C25.8454 53.3115 26.0472 53.2529 26.2393 53.1357C26.4313 53.0186 26.5713 52.8721 26.6592 52.6963V51.4365H26.1709C25.7607 51.443 25.4368 51.5358 25.1992 51.7148C24.9616 51.8906 24.8428 52.138 24.8428 52.457C24.8428 52.7565 24.903 52.9746 25.0234 53.1113C25.1439 53.2448 25.3473 53.3115 25.6338 53.3115Z" fill="url(#paint0_linear_1259_3921)"/>
<path d="M87.373 45.124H86.123V48H85.2246V40.8906H87.2168C87.9134 40.8906 88.4408 41.0729 88.7988 41.4375C89.1569 41.7988 89.3359 42.3294 89.3359 43.0293C89.3359 43.4688 89.2383 43.8529 89.043 44.1816C88.8509 44.5072 88.5775 44.7529 88.2227 44.9189L89.5996 47.9414V48H88.6377L87.373 45.124ZM86.123 44.3574H87.207C87.5814 44.3574 87.8792 44.237 88.1006 43.9961C88.3252 43.7552 88.4375 43.4329 88.4375 43.0293C88.4375 42.1178 88.0241 41.6621 87.1973 41.6621H86.123V44.3574ZM92.3047 48.0977C91.6471 48.0977 91.1426 47.9023 90.791 47.5117C90.4395 47.1178 90.2604 46.5417 90.2539 45.7832V45.1436C90.2539 44.3558 90.4248 43.7389 90.7666 43.293C91.1117 42.8438 91.5918 42.6191 92.207 42.6191C92.8255 42.6191 93.2878 42.8161 93.5938 43.21C93.8997 43.6038 94.056 44.2174 94.0625 45.0508V45.6172H91.1133V45.7393C91.1133 46.3057 91.2191 46.7174 91.4307 46.9746C91.6455 47.2318 91.9531 47.3604 92.3535 47.3604C92.6074 47.3604 92.8304 47.3132 93.0225 47.2188C93.2178 47.1211 93.4001 46.9681 93.5693 46.7598L94.0186 47.3066C93.6442 47.834 93.0729 48.0977 92.3047 48.0977ZM92.207 43.3613C91.849 43.3613 91.5837 43.485 91.4111 43.7324C91.2386 43.9766 91.141 44.3574 91.1182 44.875H93.1982V44.7578C93.1755 44.2565 93.0843 43.8984 92.9248 43.6836C92.7686 43.4688 92.5293 43.3613 92.207 43.3613ZM95.918 42.7168L95.9424 43.2881C96.2777 42.8421 96.7057 42.6191 97.2266 42.6191C98.1608 42.6191 98.6344 43.2425 98.6475 44.4893V48H97.7881V44.5283C97.7881 44.1149 97.7181 43.8219 97.5781 43.6494C97.4414 43.4736 97.2347 43.3857 96.958 43.3857C96.7432 43.3857 96.5495 43.4574 96.377 43.6006C96.2077 43.7438 96.071 43.931 95.9668 44.1621V48H95.1025V42.7168H95.918ZM99.7656 45.1191C99.7656 44.3053 99.917 43.6852 100.22 43.2588C100.526 42.8324 100.964 42.6191 101.533 42.6191C102.038 42.6191 102.432 42.8242 102.715 43.2344V40.5H103.579V48H102.788L102.744 47.4336C102.461 47.8763 102.056 48.0977 101.528 48.0977C100.981 48.0977 100.552 47.8861 100.239 47.4629C99.93 47.0365 99.7721 46.4359 99.7656 45.6611V45.1191ZM100.63 45.6123C100.63 46.2048 100.718 46.641 100.894 46.9209C101.069 47.1976 101.356 47.3359 101.753 47.3359C102.183 47.3359 102.503 47.1195 102.715 46.6865V44.0205C102.493 43.5973 102.174 43.3857 101.758 43.3857C101.361 43.3857 101.074 43.5257 100.898 43.8057C100.723 44.0824 100.633 44.5088 100.63 45.085V45.6123ZM107.476 46.6475C107.476 46.4619 107.406 46.3024 107.266 46.1689C107.126 46.0355 106.855 45.8792 106.455 45.7002C105.99 45.5081 105.661 45.3438 105.469 45.207C105.28 45.0703 105.138 44.9157 105.044 44.7432C104.95 44.5674 104.902 44.359 104.902 44.1182C104.902 43.6885 105.059 43.332 105.371 43.0488C105.687 42.7624 106.089 42.6191 106.577 42.6191C107.091 42.6191 107.505 42.7689 107.817 43.0684C108.13 43.3678 108.286 43.752 108.286 44.2207H107.427C107.427 43.9831 107.347 43.7812 107.188 43.6152C107.028 43.446 106.825 43.3613 106.577 43.3613C106.323 43.3613 106.123 43.4281 105.977 43.5615C105.833 43.6917 105.762 43.8675 105.762 44.0889C105.762 44.2646 105.814 44.4062 105.918 44.5137C106.025 44.6211 106.281 44.7627 106.685 44.9385C107.326 45.1891 107.762 45.4349 107.993 45.6758C108.224 45.9134 108.34 46.2161 108.34 46.584C108.34 47.043 108.182 47.4108 107.866 47.6875C107.55 47.9609 107.127 48.0977 106.597 48.0977C106.047 48.0977 105.601 47.9398 105.259 47.624C104.917 47.3083 104.746 46.9079 104.746 46.4229H105.615C105.625 46.7158 105.715 46.9453 105.884 47.1113C106.053 47.2773 106.291 47.3604 106.597 47.3604C106.883 47.3604 107.101 47.2969 107.251 47.1699C107.401 47.0397 107.476 46.8656 107.476 46.6475ZM110.269 47.2627L112.817 47.2627V48L109.282 48V47.3359L111.704 43.4639L109.302 43.4639V42.7168H112.72V43.3564L110.269 47.2627ZM116.582 48C116.53 47.8861 116.493 47.694 116.47 47.4238C116.164 47.873 115.773 48.0977 115.298 48.0977C114.819 48.0977 114.445 47.9642 114.175 47.6973C113.908 47.4271 113.774 47.0479 113.774 46.5596C113.774 46.0225 113.957 45.596 114.321 45.2803C114.686 44.9645 115.186 44.8034 115.82 44.7969H116.455V44.2354C116.455 43.9196 116.385 43.695 116.245 43.5615C116.105 43.4281 115.892 43.3613 115.605 43.3613C115.345 43.3613 115.133 43.4395 114.971 43.5957C114.808 43.7487 114.727 43.944 114.727 44.1816H113.862C113.862 43.9115 113.942 43.6543 114.102 43.4102C114.261 43.1628 114.476 42.9691 114.746 42.8291C115.016 42.6891 115.317 42.6191 115.649 42.6191C116.19 42.6191 116.6 42.7542 116.88 43.0244C117.163 43.2913 117.308 43.682 117.314 44.1963V46.8623C117.318 47.2692 117.373 47.6224 117.48 47.9219V48H116.582ZM115.43 47.3115C115.641 47.3115 115.843 47.2529 116.035 47.1357C116.227 47.0186 116.367 46.8721 116.455 46.6963V45.4365H115.967C115.557 45.443 115.233 45.5358 114.995 45.7148C114.757 45.8906 114.639 46.138 114.639 46.457C114.639 46.7565 114.699 46.9746 114.819 47.1113C114.94 47.2448 115.143 47.3115 115.43 47.3115ZM116.147 40.5H117.241L115.933 41.9355H115.205L116.147 40.5ZM119.473 42.7168L119.492 43.2051C119.814 42.8145 120.239 42.6191 120.767 42.6191C121.356 42.6191 121.768 42.8747 122.002 43.3857C122.334 42.8747 122.796 42.6191 123.389 42.6191C124.362 42.6191 124.86 43.2262 124.883 44.4404V48H124.023V44.5234C124.023 44.1393 123.955 43.8545 123.818 43.6689C123.682 43.4801 123.451 43.3857 123.125 43.3857C122.865 43.3857 122.653 43.4867 122.49 43.6885C122.327 43.8903 122.233 44.1475 122.207 44.46V48H121.338V44.4844C121.328 43.752 121.03 43.3857 120.444 43.3857C120.008 43.3857 119.701 43.6038 119.521 44.04V48H118.662V42.7168H119.473Z" fill="url(#paint1_linear_1259_3921)"/>
<path d="M181 46.2031C181 45.8483 180.904 45.5765 180.712 45.3877C180.52 45.1989 180.173 45.015 179.672 44.8359C179.171 44.6569 178.786 44.4697 178.52 44.2744C178.256 44.0758 178.057 43.8512 177.924 43.6006C177.794 43.3467 177.729 43.057 177.729 42.7314C177.729 42.1683 177.916 41.7044 178.29 41.3398C178.668 40.9753 179.161 40.793 179.77 40.793C180.186 40.793 180.557 40.8874 180.883 41.0762C181.208 41.2617 181.459 41.5205 181.635 41.8525C181.811 42.1846 181.898 42.5492 181.898 42.9463H181C181 42.5068 180.894 42.1667 180.683 41.9258C180.471 41.6849 180.167 41.5645 179.77 41.5645C179.408 41.5645 179.128 41.6654 178.93 41.8672C178.731 42.069 178.632 42.3522 178.632 42.7168C178.632 43.0163 178.739 43.2669 178.954 43.4688C179.169 43.6706 179.501 43.8512 179.95 44.0107C180.65 44.2419 181.15 44.5267 181.449 44.8652C181.752 45.2038 181.903 45.6465 181.903 46.1934C181.903 46.7695 181.716 47.2318 181.342 47.5801C180.967 47.9251 180.458 48.0977 179.813 48.0977C179.4 48.0977 179.018 48.0081 178.666 47.8291C178.318 47.6468 178.043 47.3929 177.841 47.0674C177.642 46.7386 177.543 46.3626 177.543 45.9395H178.441C178.441 46.3789 178.563 46.7207 178.808 46.9648C179.055 47.209 179.39 47.3311 179.813 47.3311C180.207 47.3311 180.504 47.2301 180.702 47.0283C180.901 46.8265 181 46.5514 181 46.2031ZM183.759 47.2627H186.308V48H182.772V47.3359L185.194 43.4639H182.792V42.7168H186.21V43.3564L183.759 47.2627ZM190.072 48C190.02 47.8861 189.983 47.694 189.96 47.4238C189.654 47.873 189.263 48.0977 188.788 48.0977C188.31 48.0977 187.935 47.9642 187.665 47.6973C187.398 47.4271 187.265 47.0479 187.265 46.5596C187.265 46.0225 187.447 45.596 187.812 45.2803C188.176 44.9645 188.676 44.8034 189.311 44.7969H189.945V44.2354C189.945 43.9196 189.875 43.695 189.735 43.5615C189.595 43.4281 189.382 43.3613 189.096 43.3613C188.835 43.3613 188.624 43.4395 188.461 43.5957C188.298 43.7487 188.217 43.944 188.217 44.1816H187.353C187.353 43.9115 187.432 43.6543 187.592 43.4102C187.751 43.1628 187.966 42.9691 188.236 42.8291C188.507 42.6891 188.808 42.6191 189.14 42.6191C189.68 42.6191 190.09 42.7542 190.37 43.0244C190.653 43.2913 190.798 43.682 190.805 44.1963V46.8623C190.808 47.2692 190.863 47.6224 190.971 47.9219V48H190.072ZM188.92 47.3115C189.132 47.3115 189.333 47.2529 189.525 47.1357C189.717 47.0186 189.857 46.8721 189.945 46.6963V45.4365H189.457C189.047 45.443 188.723 45.5358 188.485 45.7148C188.248 45.8906 188.129 46.138 188.129 46.457C188.129 46.7565 188.189 46.9746 188.31 47.1113C188.43 47.2448 188.633 47.3115 188.92 47.3115ZM189.638 40.5H190.731L189.423 41.9355H188.695L189.638 40.5ZM192.963 42.7168L192.982 43.2051C193.305 42.8145 193.729 42.6191 194.257 42.6191C194.846 42.6191 195.258 42.8747 195.492 43.3857C195.824 42.8747 196.286 42.6191 196.879 42.6191C197.852 42.6191 198.35 43.2262 198.373 44.4404V48H197.514V44.5234C197.514 44.1393 197.445 43.8545 197.309 43.6689C197.172 43.4801 196.941 43.3857 196.615 43.3857C196.355 43.3857 196.143 43.4867 195.98 43.6885C195.818 43.8903 195.723 44.1475 195.697 44.46V48H194.828V44.4844C194.818 43.752 194.521 43.3857 193.935 43.3857C193.498 43.3857 193.191 43.6038 193.012 44.04V48H192.152V42.7168H192.963ZM200.609 48H199.745V40.5H200.609V48ZM204.691 48C204.639 47.8861 204.602 47.694 204.579 47.4238C204.273 47.873 203.882 48.0977 203.407 48.0977C202.929 48.0977 202.554 47.9642 202.284 47.6973C202.017 47.4271 201.884 47.0479 201.884 46.5596C201.884 46.0225 202.066 45.596 202.431 45.2803C202.795 44.9645 203.295 44.8034 203.93 44.7969H204.564V44.2354C204.564 43.9196 204.494 43.695 204.354 43.5615C204.215 43.4281 204.001 43.3613 203.715 43.3613C203.454 43.3613 203.243 43.4395 203.08 43.5957C202.917 43.7487 202.836 43.944 202.836 44.1816H201.972C201.972 43.9115 202.051 43.6543 202.211 43.4102C202.37 43.1628 202.585 42.9691 202.855 42.8291C203.126 42.6891 203.427 42.6191 203.759 42.6191C204.299 42.6191 204.709 42.7542 204.989 43.0244C205.272 43.2913 205.417 43.682 205.424 44.1963V46.8623C205.427 47.2692 205.482 47.6224 205.59 47.9219V48H204.691ZM203.539 47.3115C203.751 47.3115 203.952 47.2529 204.145 47.1357C204.337 47.0186 204.477 46.8721 204.564 46.6963V45.4365H204.076C203.666 45.443 203.342 45.5358 203.104 45.7148C202.867 45.8906 202.748 46.138 202.748 46.457C202.748 46.7565 202.808 46.9746 202.929 47.1113C203.049 47.2448 203.253 47.3115 203.539 47.3115ZM204.257 40.5H205.351L204.042 41.9355H203.314L204.257 40.5ZM207.567 47.2627H210.116V48H206.581V47.3359L209.003 43.4639H206.601V42.7168H210.019V43.3564L207.567 47.2627ZM213.881 48C213.829 47.8861 213.791 47.694 213.769 47.4238C213.463 47.873 213.072 48.0977 212.597 48.0977C212.118 48.0977 211.744 47.9642 211.474 47.6973C211.207 47.4271 211.073 47.0479 211.073 46.5596C211.073 46.0225 211.256 45.596 211.62 45.2803C211.985 44.9645 212.484 44.8034 213.119 44.7969H213.754V44.2354C213.754 43.9196 213.684 43.695 213.544 43.5615C213.404 43.4281 213.191 43.3613 212.904 43.3613C212.644 43.3613 212.432 43.4395 212.27 43.5957C212.107 43.7487 212.025 43.944 212.025 44.1816H211.161C211.161 43.9115 211.241 43.6543 211.4 43.4102C211.56 43.1628 211.775 42.9691 212.045 42.8291C212.315 42.6891 212.616 42.6191 212.948 42.6191C213.489 42.6191 213.899 42.7542 214.179 43.0244C214.462 43.2913 214.607 43.682 214.613 44.1963V46.8623C214.617 47.2692 214.672 47.6224 214.779 47.9219V48H213.881ZM212.729 47.3115C212.94 47.3115 213.142 47.2529 213.334 47.1357C213.526 47.0186 213.666 46.8721 213.754 46.6963V45.4365H213.266C212.855 45.443 212.532 45.5358 212.294 45.7148C212.056 45.8906 211.938 46.138 211.938 46.457C211.938 46.7565 211.998 46.9746 212.118 47.1113C212.239 47.2448 212.442 47.3115 212.729 47.3115ZM213.446 40.5H214.54L213.231 41.9355H212.504L213.446 40.5ZM218.524 46.6475C218.524 46.4619 218.454 46.3024 218.314 46.1689C218.174 46.0355 217.904 45.8792 217.504 45.7002C217.038 45.5081 216.71 45.3437 216.518 45.207C216.329 45.0703 216.187 44.9157 216.093 44.7432C215.998 44.5674 215.951 44.359 215.951 44.1182C215.951 43.6885 216.107 43.332 216.42 43.0488C216.736 42.7624 217.138 42.6191 217.626 42.6191C218.14 42.6191 218.554 42.7689 218.866 43.0684C219.179 43.3678 219.335 43.752 219.335 44.2207H218.476C218.476 43.9831 218.396 43.7812 218.236 43.6152C218.077 43.446 217.873 43.3613 217.626 43.3613C217.372 43.3613 217.172 43.4281 217.025 43.5615C216.882 43.6917 216.811 43.8675 216.811 44.0889C216.811 44.2646 216.863 44.4062 216.967 44.5137C217.074 44.6211 217.33 44.7627 217.733 44.9385C218.375 45.1891 218.811 45.4349 219.042 45.6758C219.273 45.9134 219.389 46.2161 219.389 46.584C219.389 47.043 219.231 47.4108 218.915 47.6875C218.599 47.9609 218.176 48.0977 217.646 48.0977C217.095 48.0977 216.649 47.9398 216.308 47.624C215.966 47.3083 215.795 46.9079 215.795 46.4229H216.664C216.674 46.7158 216.763 46.9453 216.933 47.1113C217.102 47.2773 217.34 47.3604 217.646 47.3604C217.932 47.3604 218.15 47.2969 218.3 47.1699C218.45 47.0397 218.524 46.8656 218.524 46.6475Z" fill="url(#paint2_linear_1259_3921)"/>
<path d="M273.313 39.7139H270.799V42.2334H273.729V43H269.905V35.8906H273.68V36.6621H270.799V38.9473H273.313V39.7139ZM275.687 43H274.822V35.5H275.687V43ZM277.981 43H277.117V35.5H277.981V43ZM281.233 43.0977C280.576 43.0977 280.071 42.9023 279.72 42.5117C279.368 42.1178 279.189 41.5417 279.183 40.7832V40.1436C279.183 39.3558 279.354 38.7389 279.695 38.293C280.04 37.8438 280.521 37.6191 281.136 37.6191C281.754 37.6191 282.216 37.8161 282.522 38.21C282.828 38.6038 282.985 39.2174 282.991 40.0508V40.6172H280.042V40.7393C280.042 41.3057 280.148 41.7174 280.359 41.9746C280.574 42.2318 280.882 42.3604 281.282 42.3604C281.536 42.3604 281.759 42.3132 281.951 42.2188C282.146 42.1211 282.329 41.9681 282.498 41.7598L282.947 42.3066C282.573 42.834 282.002 43.0977 281.233 43.0977ZM281.136 38.3613C280.778 38.3613 280.512 38.485 280.34 38.7324C280.167 38.9766 280.07 39.3574 280.047 39.875H282.127V39.7578C282.104 39.2565 282.013 38.8984 281.854 38.6836C281.697 38.4688 281.458 38.3613 281.136 38.3613ZM284.847 37.7168L284.871 38.2881C285.206 37.8421 285.634 37.6191 286.155 37.6191C287.09 37.6191 287.563 38.2425 287.576 39.4893V43H286.717V39.5283C286.717 39.1149 286.647 38.8219 286.507 38.6494C286.37 38.4736 286.163 38.3857 285.887 38.3857C285.672 38.3857 285.478 38.4574 285.306 38.6006C285.136 38.7438 285 38.931 284.896 39.1621V43H284.031V37.7168H284.847ZM288.694 40.1143C288.694 39.346 288.88 38.7389 289.251 38.293C289.625 37.8438 290.118 37.6191 290.73 37.6191C291.342 37.6191 291.834 37.8372 292.205 38.2734C292.579 38.7096 292.771 39.3037 292.781 40.0557V40.6123C292.781 41.3773 292.596 41.9827 292.225 42.4287C291.854 42.8747 291.359 43.0977 290.74 43.0977C290.128 43.0977 289.637 42.8812 289.266 42.4482C288.898 42.0153 288.707 41.4294 288.694 40.6904V40.1143ZM289.559 40.6123C289.559 41.1559 289.664 41.584 289.876 41.8965C290.091 42.2057 290.379 42.3604 290.74 42.3604C291.502 42.3604 291.894 41.8102 291.917 40.71V40.1143C291.917 39.5739 291.81 39.1475 291.595 38.835C291.38 38.5192 291.092 38.3613 290.73 38.3613C290.376 38.3613 290.091 38.5192 289.876 38.835C289.664 39.1475 289.559 39.5723 289.559 40.1094V40.6123ZM291.712 35.5049H292.659L291.57 36.9844H290.804L291.712 35.5049ZM290.271 35.5049H291.175L290.301 36.9844H289.622L290.271 35.5049ZM296.077 38.5273C295.957 38.5046 295.826 38.4932 295.687 38.4932C295.244 38.4932 294.935 38.7357 294.759 39.2207V43L293.895 43V37.7168H294.734L294.749 38.2539C294.98 37.8307 295.307 37.6191 295.73 37.6191C295.867 37.6191 295.981 37.6419 296.072 37.6875L296.077 38.5273ZM297.742 42.2627H300.291V43H296.756V42.3359L299.178 38.4639H296.775V37.7168H300.193V38.3564L297.742 42.2627ZM303.147 43.0977C302.49 43.0977 301.985 42.9023 301.634 42.5117C301.282 42.1178 301.103 41.5417 301.097 40.7832V40.1436C301.097 39.3558 301.268 38.7389 301.609 38.293C301.954 37.8437 302.435 37.6191 303.05 37.6191C303.668 37.6191 304.131 37.8161 304.437 38.21C304.743 38.6038 304.899 39.2174 304.905 40.0508V40.6172H301.956V40.7393C301.956 41.3057 302.062 41.7174 302.273 41.9746C302.488 42.2318 302.796 42.3604 303.196 42.3604C303.45 42.3604 303.673 42.3132 303.865 42.2187C304.061 42.1211 304.243 41.9681 304.412 41.7598L304.861 42.3066C304.487 42.834 303.916 43.0977 303.147 43.0977ZM303.05 38.3613C302.692 38.3613 302.426 38.485 302.254 38.7324C302.081 38.9766 301.984 39.3574 301.961 39.875H304.041V39.7578C304.018 39.2565 303.927 38.8984 303.768 38.6836C303.611 38.4687 303.372 38.3613 303.05 38.3613ZM303.47 35.5H304.563L303.255 36.9355H302.527L303.47 35.5ZM308.514 41.6475C308.514 41.4619 308.444 41.3024 308.304 41.1689C308.164 41.0355 307.894 40.8792 307.493 40.7002C307.028 40.5081 306.699 40.3437 306.507 40.207C306.318 40.0703 306.176 39.9157 306.082 39.7432C305.988 39.5674 305.94 39.359 305.94 39.1182C305.94 38.6885 306.097 38.332 306.409 38.0488C306.725 37.7624 307.127 37.6191 307.615 37.6191C308.13 37.6191 308.543 37.7689 308.855 38.0684C309.168 38.3678 309.324 38.752 309.324 39.2207H308.465C308.465 38.9831 308.385 38.7812 308.226 38.6152C308.066 38.446 307.863 38.3613 307.615 38.3613C307.361 38.3613 307.161 38.4281 307.015 38.5615C306.871 38.6917 306.8 38.8675 306.8 39.0889C306.8 39.2646 306.852 39.4062 306.956 39.5137C307.063 39.6211 307.319 39.7627 307.723 39.9385C308.364 40.1891 308.8 40.4349 309.031 40.6758C309.262 40.9134 309.378 41.2161 309.378 41.584C309.378 42.043 309.22 42.4108 308.904 42.6875C308.589 42.9609 308.165 43.0977 307.635 43.0977C307.085 43.0977 306.639 42.9398 306.297 42.624C305.955 42.3083 305.784 41.9079 305.784 41.4229H306.653C306.663 41.7158 306.753 41.9453 306.922 42.1113C307.091 42.2773 307.329 42.3604 307.635 42.3604C307.921 42.3604 308.139 42.2969 308.289 42.1699C308.439 42.0397 308.514 41.8656 308.514 41.6475ZM273.206 54.0977C272.549 54.0977 272.044 53.9023 271.692 53.5117C271.341 53.1178 271.162 52.5417 271.155 51.7832V51.1436C271.155 50.3558 271.326 49.7389 271.668 49.293C272.013 48.8438 272.493 48.6191 273.108 48.6191C273.727 48.6191 274.189 48.8161 274.495 49.21C274.801 49.6038 274.957 50.2174 274.964 51.0508V51.6172H272.015V51.7393C272.015 52.3057 272.12 52.7174 272.332 52.9746C272.547 53.2318 272.854 53.3604 273.255 53.3604C273.509 53.3604 273.732 53.3132 273.924 53.2188C274.119 53.1211 274.301 52.9681 274.471 52.7598L274.92 53.3066C274.546 53.834 273.974 54.0977 273.206 54.0977ZM273.108 49.3613C272.75 49.3613 272.485 49.485 272.312 49.7324C272.14 49.9766 272.042 50.3574 272.02 50.875H274.1V50.7578C274.077 50.2565 273.986 49.8984 273.826 49.6836C273.67 49.4688 273.431 49.3613 273.108 49.3613ZM273.528 46.5H274.622L273.313 47.9355H272.586L273.528 46.5ZM278.572 52.6475C278.572 52.4619 278.502 52.3024 278.362 52.1689C278.222 52.0355 277.952 51.8792 277.552 51.7002C277.086 51.5081 276.757 51.3438 276.565 51.207C276.377 51.0703 276.235 50.9157 276.141 50.7432C276.046 50.5674 275.999 50.359 275.999 50.1182C275.999 49.6885 276.155 49.332 276.468 49.0488C276.784 48.7624 277.186 48.6191 277.674 48.6191C278.188 48.6191 278.602 48.7689 278.914 49.0684C279.227 49.3678 279.383 49.752 279.383 50.2207H278.523C278.523 49.9831 278.444 49.7812 278.284 49.6152C278.125 49.446 277.921 49.3613 277.674 49.3613C277.42 49.3613 277.22 49.4281 277.073 49.5615C276.93 49.6917 276.858 49.8675 276.858 50.0889C276.858 50.2646 276.91 50.4062 277.015 50.5137C277.122 50.6211 277.378 50.7627 277.781 50.9385C278.423 51.1891 278.859 51.4349 279.09 51.6758C279.321 51.9134 279.437 52.2161 279.437 52.584C279.437 53.043 279.279 53.4108 278.963 53.6875C278.647 53.9609 278.224 54.0977 277.693 54.0977C277.143 54.0977 276.697 53.9398 276.355 53.624C276.014 53.3083 275.843 52.9079 275.843 52.4229H276.712C276.722 52.7158 276.811 52.9453 276.98 53.1113C277.15 53.2773 277.387 53.3604 277.693 53.3604C277.98 53.3604 278.198 53.2969 278.348 53.1699C278.497 53.0397 278.572 52.8656 278.572 52.6475ZM283.099 54V49.415H282.41V48.7168H283.099V48.2285C283.105 47.6523 283.255 47.2031 283.548 46.8809C283.844 46.5586 284.256 46.3975 284.783 46.3975C284.988 46.3975 285.184 46.4268 285.369 46.4854C285.555 46.5407 285.75 46.6107 285.955 46.6953L285.809 47.457C285.493 47.2943 285.174 47.2129 284.852 47.2129C284.526 47.2129 284.297 47.2992 284.163 47.4717C284.033 47.6442 283.968 47.9062 283.968 48.2578V48.7168H284.822V49.415H283.968V54H283.099ZM286.375 54H285.506V48.7168H286.375V54ZM288.562 53.2627H291.111V54H287.576V53.3359L289.998 49.4639H287.596V48.7168H291.014V49.3564L288.562 53.2627ZM293.968 54.0977C293.31 54.0977 292.806 53.9023 292.454 53.5117C292.103 53.1178 291.924 52.5417 291.917 51.7832V51.1436C291.917 50.3558 292.088 49.7389 292.43 49.293C292.775 48.8438 293.255 48.6191 293.87 48.6191C294.489 48.6191 294.951 48.8161 295.257 49.21C295.563 49.6038 295.719 50.2174 295.726 51.0508V51.6172H292.776V51.7393C292.776 52.3057 292.882 52.7174 293.094 52.9746C293.309 53.2318 293.616 53.3604 294.017 53.3604C294.271 53.3604 294.493 53.3132 294.686 53.2188C294.881 53.1211 295.063 52.9681 295.232 52.7598L295.682 53.3066C295.307 53.834 294.736 54.0977 293.968 54.0977ZM293.87 49.3613C293.512 49.3613 293.247 49.485 293.074 49.7324C292.902 49.9766 292.804 50.3574 292.781 50.875H294.861V50.7578C294.839 50.2565 294.747 49.8984 294.588 49.6836C294.432 49.4688 294.192 49.3613 293.87 49.3613ZM297.898 47.4375V48.7168H298.694V49.415H297.898V52.6914C297.898 52.8997 297.933 53.0576 298.001 53.165C298.069 53.2725 298.187 53.3262 298.353 53.3262C298.466 53.3262 298.582 53.3066 298.699 53.2676L298.689 54C298.494 54.0651 298.294 54.0977 298.089 54.0977C297.747 54.0977 297.487 53.9756 297.308 53.7314C297.129 53.4873 297.039 53.1423 297.039 52.6963V49.415H296.233V48.7168H297.039V47.4375H297.898ZM301.614 54.0977C300.957 54.0977 300.452 53.9023 300.101 53.5117C299.749 53.1178 299.57 52.5417 299.563 51.7832V51.1436C299.563 50.3558 299.734 49.7389 300.076 49.293C300.421 48.8437 300.901 48.6191 301.517 48.6191C302.135 48.6191 302.597 48.8161 302.903 49.21C303.209 49.6038 303.366 50.2174 303.372 51.0508V51.6172H300.423V51.7393C300.423 52.3057 300.529 52.7174 300.74 52.9746C300.955 53.2318 301.263 53.3604 301.663 53.3604C301.917 53.3604 302.14 53.3132 302.332 53.2187C302.527 53.1211 302.71 52.9681 302.879 52.7598L303.328 53.3066C302.954 53.834 302.382 54.0977 301.614 54.0977ZM301.517 49.3613C301.159 49.3613 300.893 49.485 300.721 49.7324C300.548 49.9766 300.451 50.3574 300.428 50.875H302.508V50.7578C302.485 50.2565 302.394 49.8984 302.234 49.6836C302.078 49.4687 301.839 49.3613 301.517 49.3613ZM301.937 46.5H303.03L301.722 47.9355H300.994L301.937 46.5ZM306.98 52.6475C306.98 52.4619 306.91 52.3024 306.771 52.1689C306.631 52.0355 306.36 51.8792 305.96 51.7002C305.494 51.5081 305.166 51.3437 304.974 51.207C304.785 51.0703 304.643 50.9157 304.549 50.7432C304.454 50.5674 304.407 50.359 304.407 50.1182C304.407 49.6885 304.563 49.332 304.876 49.0488C305.192 48.7624 305.594 48.6191 306.082 48.6191C306.596 48.6191 307.01 48.7689 307.322 49.0684C307.635 49.3678 307.791 49.752 307.791 50.2207H306.932C306.932 49.9831 306.852 49.7812 306.692 49.6152C306.533 49.446 306.329 49.3613 306.082 49.3613C305.828 49.3613 305.628 49.4281 305.481 49.5615C305.338 49.6917 305.267 49.8675 305.267 50.0889C305.267 50.2646 305.319 50.4062 305.423 50.5137C305.53 50.6211 305.786 50.7627 306.189 50.9385C306.831 51.1891 307.267 51.4349 307.498 51.6758C307.729 51.9134 307.845 52.2161 307.845 52.584C307.845 53.043 307.687 53.4108 307.371 53.6875C307.055 53.9609 306.632 54.0977 306.102 54.0977C305.551 54.0977 305.105 53.9398 304.764 53.624C304.422 53.3083 304.251 52.9079 304.251 52.4229H305.12C305.13 52.7158 305.219 52.9453 305.389 53.1113C305.558 53.2773 305.796 53.3604 306.102 53.3604C306.388 53.3604 306.606 53.2969 306.756 53.1699C306.906 53.0397 306.98 52.8656 306.98 52.6475Z" fill="#E0E0E9"/>
<path fill-rule="evenodd" clip-rule="evenodd" d="M278 16L211 16V14L278 14V16Z" fill="#D0CFD7"/>
<path fill-rule="evenodd" clip-rule="evenodd" d="M185 16L118 16V14L185 14V16Z" fill="url(#paint3_linear_1259_3921)"/>
<path fill-rule="evenodd" clip-rule="evenodd" d="M93 16L23 16V14L93 14V16Z" fill="url(#paint4_linear_1259_3921)"/>
<path fill-rule="evenodd" clip-rule="evenodd" d="M1.7612 6.17317C1 8.01088 1 10.3406 1 15C1 19.6594 1 21.9891 1.7612 23.8268C2.77614 26.2771 4.72288 28.2239 7.17317 29.2388C9.01088 30 11.3406 30 16 30C20.6594 30 22.9891 30 24.8268 29.2388C27.2771 28.2239 29.2239 26.2771 30.2388 23.8268C31 21.9891 31 19.6594 31 15C31 10.3406 31 8.01088 30.2388 6.17317C29.2239 3.72288 27.2771 1.77614 24.8268 0.761205C22.9891 0 20.6594 0 16 0C11.3406 0 9.01088 0 7.17317 0.761205C4.72288 1.77614 2.77614 3.72288 1.7612 6.17317ZM22.7071 11.7071C23.0976 11.3166 23.0976 10.6834 22.7071 10.2929C22.3166 9.90237 21.6834 9.90237 21.2929 10.2929L14 17.5858L10.7071 14.2929C10.3166 13.9024 9.68342 13.9024 9.29289 14.2929C8.90237 14.6834 8.90237 15.3166 9.29289 15.7071L13.2929 19.7071C13.4804 19.8946 13.7348 20 14 20C14.2652 20 14.5196 19.8946 14.7071 19.7071L22.7071 11.7071Z" fill="url(#paint5_linear_1259_3921)"/>
<path fill-rule="evenodd" clip-rule="evenodd" d="M92.7612 6.17317C92 8.01088 92 10.3406 92 15C92 19.6594 92 21.9891 92.7612 23.8268C93.7761 26.2771 95.7229 28.2239 98.1732 29.2388C100.011 30 102.341 30 107 30C111.659 30 113.989 30 115.827 29.2388C118.277 28.2239 120.224 26.2771 121.239 23.8268C122 21.9891 122 19.6594 122 15C122 10.3406 122 8.01088 121.239 6.17317C120.224 3.72288 118.277 1.77614 115.827 0.761205C113.989 0 111.659 0 107 0C102.341 0 100.011 0 98.1732 0.761205C95.7229 1.77614 93.7761 3.72288 92.7612 6.17317ZM113.707 11.7071C114.098 11.3166 114.098 10.6834 113.707 10.2929C113.317 9.90237 112.683 9.90237 112.293 10.2929L105 17.5858L101.707 14.2929C101.317 13.9024 100.683 13.9024 100.293 14.2929C99.9024 14.6834 99.9024 15.3166 100.293 15.7071L104.293 19.7071C104.48 19.8946 104.735 20 105 20C105.265 20 105.52 19.8946 105.707 19.7071L113.707 11.7071Z" fill="url(#paint6_linear_1259_3921)"/>
<path fill-rule="evenodd" clip-rule="evenodd" d="M183.761 6.17317C183 8.01088 183 10.3406 183 15C183 19.6594 183 21.9891 183.761 23.8268C184.776 26.2771 186.723 28.2239 189.173 29.2388C191.011 30 193.341 30 198 30C202.659 30 204.989 30 206.827 29.2388C209.277 28.2239 211.224 26.2771 212.239 23.8268C213 21.9891 213 19.6594 213 15C213 10.3406 213 8.01088 212.239 6.17317C211.224 3.72288 209.277 1.77614 206.827 0.761205C204.989 0 202.659 0 198 0C193.341 0 191.011 0 189.173 0.761205C186.723 1.77614 184.776 3.72288 183.761 6.17317ZM204.707 11.7071C205.098 11.3166 205.098 10.6834 204.707 10.2929C204.317 9.90237 203.683 9.90237 203.293 10.2929L196 17.5858L192.707 14.2929C192.317 13.9024 191.683 13.9024 191.293 14.2929C190.902 14.6834 190.902 15.3166 191.293 15.7071L195.293 19.7071C195.48 19.8946 195.735 20 196 20C196.265 20 196.52 19.8946 196.707 19.7071L204.707 11.7071Z" fill="url(#paint7_linear_1259_3921)"/>
<path fill-rule="evenodd" clip-rule="evenodd" d="M274.761 6.17317C274 8.01088 274 10.3406 274 15C274 19.6594 274 21.9891 274.761 23.8268C275.776 26.2771 277.723 28.2239 280.173 29.2388C282.011 30 284.341 30 289 30C293.659 30 295.989 30 297.827 29.2388C300.277 28.2239 302.224 26.2771 303.239 23.8268C304 21.9891 304 19.6594 304 15C304 10.3406 304 8.01088 303.239 6.17317C302.224 3.72288 300.277 1.77614 297.827 0.761205C295.989 0 293.659 0 289 0C284.341 0 282.011 0 280.173 0.761205C277.723 1.77614 275.776 3.72288 274.761 6.17317ZM295.707 11.7071C296.098 11.3166 296.098 10.6834 295.707 10.2929C295.317 9.90237 294.683 9.90237 294.293 10.2929L287 17.5858L283.707 14.2929C283.317 13.9024 282.683 13.9024 282.293 14.2929C281.902 14.6834 281.902 15.3166 282.293 15.7071L286.293 19.7071C286.48 19.8946 286.735 20 287 20C287.265 20 287.52 19.8946 287.707 19.7071L295.707 11.7071Z" fill="#D0CFD7"/>
<defs>
<linearGradient id="paint0_linear_1259_3921" x1="16" y1="56" x2="16" y2="34" gradientUnits="userSpaceOnUse">
<stop stop-color="#5CCC94"/>
<stop offset="1" stop-color="#8CCAAE"/>
</linearGradient>
<linearGradient id="paint1_linear_1259_3921" x1="105" y1="55" x2="105" y2="35" gradientUnits="userSpaceOnUse">
<stop stop-color="#5CCC94"/>
<stop offset="1" stop-color="#8CCAAE"/>
</linearGradient>
<linearGradient id="paint2_linear_1259_3921" x1="198.5" y1="55" x2="198.5" y2="35" gradientUnits="userSpaceOnUse">
<stop stop-color="#5CCC94"/>
<stop offset="1" stop-color="#8CCAAE"/>
</linearGradient>
<linearGradient id="paint3_linear_1259_3921" x1="151.5" y1="16" x2="151.5" y2="14" gradientUnits="userSpaceOnUse">
<stop stop-color="#5CCC94"/>
<stop offset="1" stop-color="#8CCAAE"/>
</linearGradient>
<linearGradient id="paint4_linear_1259_3921" x1="58" y1="16" x2="58" y2="14" gradientUnits="userSpaceOnUse">
<stop stop-color="#5CCC94"/>
<stop offset="1" stop-color="#8CCAAE"/>
</linearGradient>
<linearGradient id="paint5_linear_1259_3921" x1="16" y1="30" x2="16" y2="1.58545e-07" gradientUnits="userSpaceOnUse">
<stop stop-color="#5CCC94"/>
<stop offset="1" stop-color="#8CCAAE"/>
</linearGradient>
<linearGradient id="paint6_linear_1259_3921" x1="107" y1="30" x2="107" y2="1.58545e-07" gradientUnits="userSpaceOnUse">
<stop stop-color="#5CCC94"/>
<stop offset="1" stop-color="#8CCAAE"/>
</linearGradient>
<linearGradient id="paint7_linear_1259_3921" x1="198" y1="30" x2="198" y2="1.58545e-07" gradientUnits="userSpaceOnUse">
<stop stop-color="#5CCC94"/>
<stop offset="1" stop-color="#8CCAAE"/>
</linearGradient>
</defs>
</svg>
