<svg width="241" height="68" viewBox="0 0 241 68" fill="none" xmlns="http://www.w3.org/2000/svg">
<path d="M7.16699 36.8906L7.16699 44H6.26367L3.41699 38.5166L3.41699 44H2.51855L2.51855 36.8906H3.41699L6.27832 42.3887L6.27832 36.8906H7.16699ZM11.2734 42.7793L11.2734 38.7168H12.1377L12.1377 44H11.3174L11.2734 42.7793ZM11.4346 41.666L11.7764 41.6562C11.7764 42.0078 11.7454 42.3333 11.6836 42.6328C11.625 42.929 11.5273 43.1862 11.3906 43.4043C11.2572 43.6224 11.0798 43.7933 10.8584 43.917C10.637 44.0374 10.3652 44.0977 10.043 44.0977C9.82487 44.0977 9.6263 44.0602 9.44727 43.9854C9.27148 43.9105 9.11849 43.7949 8.98828 43.6387C8.86133 43.4824 8.76204 43.279 8.69043 43.0283C8.62207 42.7777 8.58789 42.4766 8.58789 42.125L8.58789 38.7168H9.44727L9.44727 42.1348C9.44727 42.3724 9.46842 42.5693 9.51074 42.7256C9.55306 42.8786 9.61003 43.0007 9.68164 43.0918C9.75326 43.1797 9.83301 43.2415 9.9209 43.2773C10.0088 43.3132 10.0983 43.3311 10.1895 43.3311C10.4954 43.3311 10.7396 43.2578 10.9219 43.1113C11.1042 42.9616 11.2344 42.7614 11.3125 42.5107C11.3939 42.2568 11.4346 41.9753 11.4346 41.666ZM14.3008 39.7666L14.3008 44H13.4414L13.4414 38.7168H14.252L14.3008 39.7666ZM14.125 41.1582L13.7246 41.1436C13.7214 40.7822 13.7572 40.4486 13.832 40.1426C13.9069 39.8333 14.0192 39.5648 14.1689 39.3369C14.3219 39.109 14.5124 38.9333 14.7402 38.8096C14.9714 38.6826 15.2399 38.6191 15.5459 38.6191C15.7477 38.6191 15.9349 38.6549 16.1074 38.7266C16.2832 38.7949 16.4362 38.904 16.5664 39.0537C16.6966 39.2035 16.7975 39.3955 16.8691 39.6299C16.944 39.8643 16.9814 40.1475 16.9814 40.4795V44H16.1172V40.5234C16.1172 40.2467 16.0798 40.0254 16.0049 39.8594C15.9333 39.6934 15.8307 39.5729 15.6973 39.498C15.5638 39.4199 15.4043 39.3809 15.2188 39.3809C15.0072 39.3809 14.8298 39.4281 14.6865 39.5225C14.5465 39.6169 14.4342 39.7471 14.3496 39.9131C14.2682 40.0791 14.2096 40.2695 14.1738 40.4844C14.1413 40.696 14.125 40.9206 14.125 41.1582ZM16.9717 40.6602L16.3955 40.8457C16.3923 40.556 16.4281 40.2777 16.5029 40.0107C16.5778 39.7438 16.6885 39.5062 16.835 39.2979C16.9847 39.0895 17.1702 38.9251 17.3916 38.8047C17.613 38.681 17.8701 38.6191 18.1631 38.6191C18.404 38.6191 18.6172 38.6566 18.8027 38.7314C18.9883 38.8063 19.1445 38.9219 19.2715 39.0781C19.4017 39.2311 19.4993 39.4281 19.5645 39.6689C19.6296 39.9098 19.6621 40.1963 19.6621 40.5283V44H18.7979V40.5186C18.7979 40.2223 18.7604 39.9928 18.6855 39.8301C18.6139 39.6641 18.5114 39.5485 18.3779 39.4834C18.2445 39.415 18.085 39.3809 17.8994 39.3809C17.7497 39.3809 17.6162 39.415 17.499 39.4834C17.3851 39.5518 17.2891 39.6462 17.2109 39.7666C17.1328 39.8838 17.0726 40.0189 17.0303 40.1719C16.9912 40.3249 16.9717 40.4876 16.9717 40.6602ZM22.8555 44.0977C22.5397 44.0977 22.2549 44.0505 22.001 43.9561C21.7471 43.8617 21.5306 43.7184 21.3516 43.5264C21.1725 43.3311 21.0358 43.0853 20.9414 42.7891C20.847 42.4928 20.7998 42.1429 20.7998 41.7393V41.1436C20.7998 40.6781 20.8535 40.2842 20.9609 39.9619C21.0716 39.6396 21.2197 39.3809 21.4053 39.1855C21.5908 38.987 21.8008 38.8438 22.0352 38.7559C22.2695 38.6647 22.5104 38.6191 22.7578 38.6191C23.0898 38.6191 23.373 38.6729 23.6074 38.7803C23.8418 38.8877 24.0322 39.0472 24.1787 39.2588C24.3252 39.4704 24.4326 39.7308 24.501 40.04C24.5726 40.3493 24.6084 40.7057 24.6084 41.1094V41.6123H21.3076V40.875H23.7441V40.7529C23.7311 40.4795 23.6937 40.2386 23.6318 40.0303C23.5732 39.8219 23.4756 39.6592 23.3389 39.542C23.2021 39.4215 23.0085 39.3613 22.7578 39.3613C22.5983 39.3613 22.4502 39.389 22.3135 39.4443C22.18 39.4964 22.0645 39.5892 21.9668 39.7227C21.8724 39.8529 21.7975 40.0335 21.7422 40.2646C21.6901 40.4958 21.6641 40.7887 21.6641 41.1436V41.7393C21.6641 42.0225 21.6901 42.2666 21.7422 42.4717C21.7975 42.6735 21.8773 42.8411 21.9814 42.9746C22.0889 43.1048 22.2191 43.2025 22.3721 43.2676C22.5283 43.3294 22.7057 43.3604 22.9043 43.3604C23.194 43.3604 23.4333 43.305 23.6221 43.1943C23.8109 43.0804 23.9753 42.9355 24.1152 42.7598L24.5693 43.3018C24.4749 43.4352 24.3512 43.5638 24.1982 43.6875C24.0485 43.8079 23.863 43.9072 23.6416 43.9854C23.4235 44.0602 23.1615 44.0977 22.8555 44.0977ZM26.5176 39.5469V44H25.6533V38.7168H26.4883L26.5176 39.5469ZM27.8311 38.6875L27.8359 39.5273C27.7643 39.5111 27.6992 39.5013 27.6406 39.498C27.5853 39.4915 27.5202 39.4883 27.4453 39.4883C27.2826 39.4883 27.1393 39.5208 27.0156 39.5859C26.8952 39.651 26.791 39.7422 26.7031 39.8594C26.6152 39.9766 26.5452 40.1165 26.4932 40.2793C26.4411 40.4388 26.4053 40.6146 26.3857 40.8066L26.1611 40.9531C26.1611 40.6341 26.1855 40.3346 26.2344 40.0547C26.2865 39.7747 26.3662 39.5273 26.4736 39.3125C26.5811 39.0944 26.7178 38.9251 26.8838 38.8047C27.0531 38.681 27.2549 38.6191 27.4893 38.6191C27.5413 38.6191 27.6048 38.6273 27.6797 38.6436C27.7578 38.6566 27.8083 38.6712 27.8311 38.6875ZM28.4219 41.6123V41.1094C28.4219 40.6992 28.474 40.3395 28.5781 40.0303C28.6823 39.7178 28.8271 39.4574 29.0127 39.249C29.1982 39.0407 29.4147 38.8844 29.6621 38.7803C29.9095 38.6729 30.1748 38.6191 30.458 38.6191C30.7477 38.6191 31.0163 38.6729 31.2637 38.7803C31.5111 38.8844 31.7275 39.0407 31.9131 39.249C32.1019 39.4574 32.2484 39.7178 32.3525 40.0303C32.4567 40.3395 32.5088 40.6992 32.5088 41.1094V41.6123C32.5088 42.0225 32.4567 42.3838 32.3525 42.6963C32.2484 43.0055 32.1035 43.2643 31.918 43.4727C31.7324 43.681 31.516 43.8372 31.2686 43.9414C31.0212 44.0456 30.7542 44.0977 30.4678 44.0977C30.1813 44.0977 29.9144 44.0456 29.667 43.9414C29.4196 43.8372 29.2015 43.681 29.0127 43.4727C28.8271 43.2643 28.6823 43.0055 28.5781 42.6963C28.474 42.3838 28.4219 42.0225 28.4219 41.6123ZM29.2861 41.1094V41.6123C29.2861 41.902 29.3154 42.1559 29.374 42.374C29.4326 42.5921 29.5156 42.7744 29.623 42.9209C29.7305 43.0674 29.8558 43.1781 29.999 43.2529C30.1423 43.3245 30.2985 43.3604 30.4678 43.3604C30.6631 43.3604 30.834 43.3245 30.9805 43.2529C31.1302 43.1781 31.2539 43.0674 31.3516 42.9209C31.4492 42.7744 31.5225 42.5921 31.5713 42.374C31.6201 42.1559 31.6445 41.902 31.6445 41.6123V41.1094C31.6445 40.8197 31.6152 40.5674 31.5566 40.3525C31.498 40.1344 31.415 39.9521 31.3076 39.8057C31.2002 39.6559 31.0732 39.5452 30.9268 39.4736C30.7835 39.3988 30.6273 39.3613 30.458 39.3613C30.292 39.3613 30.1374 39.3988 29.9941 39.4736C29.8509 39.5452 29.7256 39.6559 29.6182 39.8057C29.514 39.9521 29.4326 40.1344 29.374 40.3525C29.3154 40.5674 29.2861 40.8197 29.2861 41.1094ZM38.6855 42.9746V36.5H39.5449V44H38.7588L38.6855 42.9746ZM35.7314 41.6123V41.1191C35.7314 40.6829 35.7738 40.3086 35.8584 39.9961C35.943 39.6803 36.0635 39.4215 36.2197 39.2197C36.376 39.0146 36.5632 38.8633 36.7812 38.7656C36.9993 38.668 37.2402 38.6191 37.5039 38.6191C37.7773 38.6191 38.0117 38.6745 38.207 38.7852C38.4056 38.8958 38.5716 39.057 38.7051 39.2686C38.8385 39.4769 38.9427 39.7308 39.0176 40.0303C39.0957 40.3265 39.1478 40.6618 39.1738 41.0361V41.6953C39.1445 42.0664 39.0908 42.4001 39.0127 42.6963C38.9378 42.9925 38.8337 43.2448 38.7002 43.4531C38.5667 43.6615 38.4007 43.821 38.2021 43.9316C38.0036 44.0423 37.7676 44.0977 37.4941 44.0977C37.2337 44.0977 36.9961 44.0472 36.7812 43.9463C36.5664 43.8421 36.3792 43.6875 36.2197 43.4824C36.0635 43.2741 35.943 43.0153 35.8584 42.7061C35.7738 42.3936 35.7314 42.029 35.7314 41.6123ZM36.5957 41.1191V41.6123C36.5957 41.9053 36.6169 42.1608 36.6592 42.3789C36.7015 42.5937 36.7682 42.7728 36.8594 42.916C36.9505 43.056 37.0661 43.1602 37.2061 43.2285C37.3493 43.2969 37.5202 43.3311 37.7188 43.3311C37.9596 43.3311 38.1566 43.2725 38.3096 43.1553C38.4626 43.0381 38.5846 42.8835 38.6758 42.6914C38.7702 42.4961 38.8451 42.2861 38.9004 42.0615V40.6748C38.8678 40.5088 38.8206 40.3493 38.7588 40.1963C38.6969 40.04 38.6188 39.9017 38.5244 39.7812C38.4333 39.6576 38.321 39.5599 38.1875 39.4883C38.0573 39.4167 37.9043 39.3809 37.7285 39.3809C37.5299 39.3809 37.3574 39.4167 37.2109 39.4883C37.0677 39.5599 36.9505 39.6673 36.8594 39.8105C36.7715 39.9538 36.7048 40.1344 36.6592 40.3525C36.6169 40.5706 36.5957 40.8262 36.5957 41.1191ZM41.8057 38.7168V44H40.9463V38.7168H41.8057ZM40.8975 37.3154C40.8975 37.1689 40.9382 37.0452 41.0195 36.9443C41.1009 36.8434 41.223 36.793 41.3857 36.793C41.5485 36.793 41.6706 36.8434 41.752 36.9443C41.8366 37.0452 41.8789 37.1689 41.8789 37.3154C41.8789 37.4554 41.8366 37.5758 41.752 37.6768C41.6706 37.7744 41.5485 37.8232 41.3857 37.8232C41.223 37.8232 41.1009 37.7744 41.0195 37.6768C40.9382 37.5758 40.8975 37.4554 40.8975 37.3154ZM47.3965 38.7168V39.4102H44.9307V38.7168H47.3965ZM45.7363 37.4326H46.6006V42.6914C46.6006 42.8704 46.6217 43.0055 46.6641 43.0967C46.7096 43.1878 46.7666 43.248 46.835 43.2773C46.9033 43.3066 46.9766 43.3213 47.0547 43.3213C47.1133 43.3213 47.1784 43.3148 47.25 43.3018C47.3216 43.2855 47.3704 43.2725 47.3965 43.2627L47.3916 44C47.333 44.0228 47.2549 44.0439 47.1572 44.0635C47.0596 44.0863 46.9359 44.0977 46.7861 44.0977C46.6006 44.0977 46.4281 44.0537 46.2686 43.9658C46.109 43.8779 45.9805 43.7314 45.8828 43.5264C45.7852 43.318 45.7363 43.0381 45.7363 42.6865V37.4326ZM51.0146 43.0967V40.2305C51.0146 40.0221 50.9821 39.8545 50.917 39.7275C50.8551 39.6006 50.7607 39.5078 50.6338 39.4492C50.5101 39.3906 50.3538 39.3613 50.165 39.3613C49.9827 39.3613 49.8249 39.3988 49.6914 39.4736C49.5612 39.5485 49.4603 39.6478 49.3887 39.7715C49.3203 39.8952 49.2861 40.0319 49.2861 40.1816H48.4219C48.4219 39.9928 48.4626 39.8057 48.5439 39.6201C48.6286 39.4346 48.749 39.2669 48.9053 39.1172C49.0615 38.9642 49.2487 38.8437 49.4668 38.7559C49.6882 38.6647 49.9355 38.6191 50.209 38.6191C50.5345 38.6191 50.8226 38.6729 51.0732 38.7803C51.3239 38.8844 51.5208 39.0553 51.6641 39.293C51.8073 39.5306 51.8789 39.8464 51.8789 40.2402V42.8477C51.8789 43.0234 51.8919 43.2106 51.918 43.4092C51.9473 43.6077 51.988 43.7786 52.04 43.9219V44H51.1465C51.1042 43.8958 51.0716 43.7575 51.0488 43.585C51.026 43.4092 51.0146 43.2464 51.0146 43.0967ZM51.1514 40.7969L51.1611 41.4316H50.5605C50.3555 41.4316 50.1683 41.4544 49.999 41.5C49.833 41.5456 49.6898 41.6123 49.5693 41.7002C49.4489 41.7848 49.3561 41.8906 49.291 42.0176C49.2292 42.1445 49.1982 42.2894 49.1982 42.4521C49.1982 42.6637 49.2275 42.833 49.2861 42.96C49.3447 43.0837 49.4326 43.1732 49.5498 43.2285C49.667 43.2839 49.8151 43.3115 49.9941 43.3115C50.2122 43.3115 50.4043 43.2611 50.5703 43.1602C50.7363 43.0592 50.8649 42.9372 50.9561 42.7939C51.0505 42.6507 51.0944 42.5173 51.0879 42.3936L51.2783 42.7988C51.2653 42.9258 51.223 43.0641 51.1514 43.2139C51.083 43.3604 50.987 43.502 50.8633 43.6387C50.7396 43.7721 50.5931 43.8828 50.4238 43.9707C50.2578 44.0553 50.0706 44.0977 49.8623 44.0977C49.5563 44.0977 49.2878 44.0391 49.0566 43.9219C48.8288 43.8047 48.6514 43.6322 48.5244 43.4043C48.3975 43.1764 48.334 42.8949 48.334 42.5596C48.334 42.3057 48.3779 42.0713 48.4658 41.8564C48.5537 41.6416 48.6839 41.4561 48.8564 41.2998C49.029 41.1403 49.2454 41.0166 49.5059 40.9287C49.7695 40.8408 50.0739 40.7969 50.4189 40.7969H51.1514ZM54.0859 39.5469V44H53.2217V38.7168H54.0566L54.0859 39.5469ZM55.3994 38.6875L55.4043 39.5273C55.3327 39.5111 55.2676 39.5013 55.209 39.498C55.1536 39.4915 55.0885 39.4883 55.0137 39.4883C54.8509 39.4883 54.7077 39.5208 54.584 39.5859C54.4635 39.651 54.3594 39.7422 54.2715 39.8594C54.1836 39.9766 54.1136 40.1165 54.0615 40.2793C54.0094 40.4388 53.9736 40.6146 53.9541 40.8066L53.7295 40.9531C53.7295 40.6341 53.7539 40.3346 53.8027 40.0547C53.8548 39.7747 53.9346 39.5273 54.042 39.3125C54.1494 39.0944 54.2861 38.9251 54.4521 38.8047C54.6214 38.681 54.8232 38.6191 55.0576 38.6191C55.1097 38.6191 55.1732 38.6273 55.248 38.6436C55.3262 38.6566 55.3766 38.6712 55.3994 38.6875ZM59.0322 38.7168H59.8086V44.0439C59.8086 44.5094 59.7272 44.8936 59.5645 45.1963C59.4049 45.499 59.182 45.722 58.8955 45.8652C58.609 46.0117 58.2786 46.085 57.9043 46.085C57.7708 46.085 57.6032 46.0605 57.4014 46.0117C57.1995 45.9629 56.9977 45.888 56.7959 45.7871C56.5941 45.6895 56.4281 45.5658 56.2979 45.416L56.6543 44.8154C56.8398 45.0042 57.0368 45.1393 57.2451 45.2207C57.4535 45.3021 57.652 45.3428 57.8408 45.3428C58.0654 45.3428 58.2607 45.3021 58.4268 45.2207C58.5928 45.1393 58.7214 45.0059 58.8125 44.8203C58.9036 44.638 58.9492 44.3939 58.9492 44.0879V39.8789L59.0322 38.7168ZM55.9951 41.6123V41.1191C55.9951 40.6829 56.0358 40.3086 56.1172 39.9961C56.1986 39.6803 56.3158 39.4215 56.4688 39.2197C56.625 39.0146 56.8122 38.8633 57.0303 38.7656C57.2484 38.668 57.4925 38.6191 57.7627 38.6191C58.0361 38.6191 58.2721 38.6745 58.4707 38.7852C58.6693 38.8958 58.8337 39.057 58.9639 39.2686C59.0973 39.4769 59.2015 39.7308 59.2764 40.0303C59.3545 40.3265 59.4082 40.6618 59.4375 41.0361V41.6953C59.4082 42.0664 59.3545 42.4001 59.2764 42.6963C59.2015 42.9925 59.0957 43.2448 58.959 43.4531C58.8255 43.6615 58.6595 43.821 58.4609 43.9316C58.2624 44.0423 58.0264 44.0977 57.7529 44.0977C57.486 44.0977 57.2451 44.0472 57.0303 43.9463C56.8154 43.8421 56.6299 43.6875 56.4736 43.4824C56.3206 43.2741 56.2018 43.0153 56.1172 42.7061C56.0358 42.3936 55.9951 42.029 55.9951 41.6123ZM56.8594 41.1191V41.6123C56.8594 41.9053 56.8805 42.1608 56.9229 42.3789C56.9652 42.5937 57.0303 42.7728 57.1182 42.916C57.2093 43.056 57.3249 43.1602 57.4648 43.2285C57.6081 43.2969 57.779 43.3311 57.9775 43.3311C58.2184 43.3311 58.4154 43.2725 58.5684 43.1553C58.7214 43.0381 58.8434 42.8835 58.9346 42.6914C59.029 42.4961 59.1038 42.2861 59.1592 42.0615V40.6748C59.1266 40.5088 59.0794 40.3493 59.0176 40.1963C58.959 40.04 58.8825 39.9017 58.7881 39.7812C58.6937 39.6576 58.5798 39.5599 58.4463 39.4883C58.3161 39.4167 58.1631 39.3809 57.9873 39.3809C57.7887 39.3809 57.6178 39.4167 57.4746 39.4883C57.3314 39.5599 57.2142 39.6673 57.123 39.8105C57.0319 39.9538 56.9652 40.1344 56.9229 40.3525C56.8805 40.5706 56.8594 40.8262 56.8594 41.1191ZM63.6904 43.0967V40.2305C63.6904 40.0221 63.6579 39.8545 63.5928 39.7275C63.5309 39.6006 63.4365 39.5078 63.3096 39.4492C63.1859 39.3906 63.0296 39.3613 62.8408 39.3613C62.6585 39.3613 62.5007 39.3988 62.3672 39.4736C62.237 39.5485 62.1361 39.6478 62.0645 39.7715C61.9961 39.8952 61.9619 40.0319 61.9619 40.1816H61.0977C61.0977 39.9928 61.1383 39.8057 61.2197 39.6201C61.3044 39.4346 61.4248 39.2669 61.5811 39.1172C61.7373 38.9642 61.9245 38.8437 62.1426 38.7559C62.3639 38.6647 62.6113 38.6191 62.8848 38.6191C63.2103 38.6191 63.4984 38.6729 63.749 38.7803C63.9997 38.8844 64.1966 39.0553 64.3398 39.293C64.4831 39.5306 64.5547 39.8464 64.5547 40.2402V42.8477C64.5547 43.0234 64.5677 43.2106 64.5938 43.4092C64.623 43.6077 64.6637 43.7786 64.7158 43.9219V44H63.8223C63.7799 43.8958 63.7474 43.7575 63.7246 43.585C63.7018 43.4092 63.6904 43.2464 63.6904 43.0967ZM63.8271 40.7969L63.8369 41.4316L63.2363 41.4316C63.0312 41.4316 62.8441 41.4544 62.6748 41.5C62.5088 41.5456 62.3656 41.6123 62.2451 41.7002C62.1247 41.7848 62.0319 41.8906 61.9668 42.0176C61.9049 42.1445 61.874 42.2894 61.874 42.4521C61.874 42.6637 61.9033 42.833 61.9619 42.96C62.0205 43.0837 62.1084 43.1732 62.2256 43.2285C62.3428 43.2839 62.4909 43.3115 62.6699 43.3115C62.888 43.3115 63.0801 43.2611 63.2461 43.1602C63.4121 43.0592 63.5407 42.9372 63.6318 42.7939C63.7262 42.6507 63.7702 42.5173 63.7637 42.3936L63.9541 42.7988C63.9411 42.9258 63.8988 43.0641 63.8271 43.2139C63.7588 43.3604 63.6628 43.502 63.5391 43.6387C63.4154 43.7721 63.2689 43.8828 63.0996 43.9707C62.9336 44.0553 62.7464 44.0977 62.5381 44.0977C62.2321 44.0977 61.9635 44.0391 61.7324 43.9219C61.5046 43.8047 61.3271 43.6322 61.2002 43.4043C61.0732 43.1764 61.0098 42.8949 61.0098 42.5596C61.0098 42.3057 61.0537 42.0713 61.1416 41.8564C61.2295 41.6416 61.3597 41.4561 61.5322 41.2998C61.7048 41.1403 61.9212 41.0166 62.1816 40.9287C62.4453 40.8408 62.7497 40.7969 63.0947 40.7969L63.8271 40.7969Z" fill="url(#paint0_linear_363_3477)"/>
<path d="M102.124 40.8906V48H101.226V40.8906H102.124ZM104.521 44.0889V44.8604H101.953V44.0889H104.521ZM104.927 40.8906V41.6621H101.953V40.8906H104.927ZM108.345 47.0967V44.2305C108.345 44.0221 108.312 43.8545 108.247 43.7275C108.185 43.6006 108.091 43.5078 107.964 43.4492C107.84 43.3906 107.684 43.3613 107.495 43.3613C107.313 43.3613 107.155 43.3988 107.021 43.4736C106.891 43.5485 106.79 43.6478 106.719 43.7715C106.65 43.8952 106.616 44.0319 106.616 44.1816H105.752C105.752 43.9928 105.793 43.8057 105.874 43.6201C105.959 43.4346 106.079 43.2669 106.235 43.1172C106.392 42.9642 106.579 42.8438 106.797 42.7559C107.018 42.6647 107.266 42.6191 107.539 42.6191C107.865 42.6191 108.153 42.6729 108.403 42.7803C108.654 42.8844 108.851 43.0553 108.994 43.293C109.137 43.5306 109.209 43.8464 109.209 44.2402V46.8477C109.209 47.0234 109.222 47.2106 109.248 47.4092C109.277 47.6077 109.318 47.7786 109.37 47.9219V48H108.477C108.434 47.8958 108.402 47.7575 108.379 47.585C108.356 47.4092 108.345 47.2464 108.345 47.0967ZM108.481 44.7969L108.491 45.4316H107.891C107.686 45.4316 107.498 45.4544 107.329 45.5C107.163 45.5456 107.02 45.6123 106.899 45.7002C106.779 45.7848 106.686 45.8906 106.621 46.0176C106.559 46.1445 106.528 46.2894 106.528 46.4521C106.528 46.6637 106.558 46.833 106.616 46.96C106.675 47.0837 106.763 47.1732 106.88 47.2285C106.997 47.2839 107.145 47.3115 107.324 47.3115C107.542 47.3115 107.734 47.2611 107.9 47.1602C108.066 47.0592 108.195 46.9372 108.286 46.7939C108.381 46.6507 108.424 46.5173 108.418 46.3936L108.608 46.7988C108.595 46.9258 108.553 47.0641 108.481 47.2139C108.413 47.3604 108.317 47.502 108.193 47.6387C108.07 47.7721 107.923 47.8828 107.754 47.9707C107.588 48.0553 107.401 48.0977 107.192 48.0977C106.886 48.0977 106.618 48.0391 106.387 47.9219C106.159 47.8047 105.981 47.6322 105.854 47.4043C105.728 47.1764 105.664 46.8949 105.664 46.5596C105.664 46.3057 105.708 46.0713 105.796 45.8564C105.884 45.6416 106.014 45.4561 106.187 45.2998C106.359 45.1403 106.576 45.0166 106.836 44.9287C107.1 44.8408 107.404 44.7969 107.749 44.7969H108.481ZM112.48 42.7168V43.4102H110.015V42.7168H112.48ZM110.82 41.4326H111.685V46.6914C111.685 46.8704 111.706 47.0055 111.748 47.0967C111.794 47.1878 111.851 47.248 111.919 47.2773C111.987 47.3066 112.061 47.3213 112.139 47.3213C112.197 47.3213 112.262 47.3148 112.334 47.3018C112.406 47.2855 112.454 47.2725 112.48 47.2627L112.476 48C112.417 48.0228 112.339 48.0439 112.241 48.0635C112.144 48.0863 112.02 48.0977 111.87 48.0977C111.685 48.0977 111.512 48.0537 111.353 47.9658C111.193 47.8779 111.064 47.7314 110.967 47.5264C110.869 47.318 110.82 47.0381 110.82 46.6865V41.4326ZM115.439 42.7168V43.4102H112.974V42.7168H115.439ZM113.779 41.4326H114.644V46.6914C114.644 46.8704 114.665 47.0055 114.707 47.0967C114.753 47.1878 114.81 47.248 114.878 47.2773C114.946 47.3066 115.02 47.3213 115.098 47.3213C115.156 47.3213 115.221 47.3148 115.293 47.3018C115.365 47.2855 115.413 47.2725 115.439 47.2627L115.435 48C115.376 48.0228 115.298 48.0439 115.2 48.0635C115.103 48.0863 114.979 48.0977 114.829 48.0977C114.644 48.0977 114.471 48.0537 114.312 47.9658C114.152 47.8779 114.023 47.7314 113.926 47.5264C113.828 47.318 113.779 47.0381 113.779 46.6865V41.4326ZM119.141 46.7793V42.7168H120.005V48H119.185L119.141 46.7793ZM119.302 45.666L119.644 45.6562C119.644 46.0078 119.613 46.3333 119.551 46.6328C119.492 46.929 119.395 47.1862 119.258 47.4043C119.124 47.6224 118.947 47.7933 118.726 47.917C118.504 48.0374 118.232 48.0977 117.91 48.0977C117.692 48.0977 117.493 48.0602 117.314 47.9854C117.139 47.9105 116.986 47.7949 116.855 47.6387C116.729 47.4824 116.629 47.279 116.558 47.0283C116.489 46.7777 116.455 46.4766 116.455 46.125V42.7168H117.314V46.1348C117.314 46.3724 117.336 46.5693 117.378 46.7256C117.42 46.8786 117.477 47.0007 117.549 47.0918C117.62 47.1797 117.7 47.2415 117.788 47.2773C117.876 47.3132 117.965 47.3311 118.057 47.3311C118.363 47.3311 118.607 47.2578 118.789 47.1113C118.971 46.9616 119.102 46.7614 119.18 46.5107C119.261 46.2568 119.302 45.9753 119.302 45.666ZM122.168 43.5469V48H121.304V42.7168H122.139L122.168 43.5469ZM123.481 42.6875L123.486 43.5273C123.415 43.5111 123.35 43.5013 123.291 43.498C123.236 43.4915 123.171 43.4883 123.096 43.4883C122.933 43.4883 122.79 43.5208 122.666 43.5859C122.546 43.651 122.441 43.7422 122.354 43.8594C122.266 43.9766 122.196 44.1165 122.144 44.2793C122.091 44.4388 122.056 44.6146 122.036 44.8066L121.812 44.9531C121.812 44.6341 121.836 44.3346 121.885 44.0547C121.937 43.7747 122.017 43.5273 122.124 43.3125C122.231 43.0944 122.368 42.9251 122.534 42.8047C122.703 42.681 122.905 42.6191 123.14 42.6191C123.192 42.6191 123.255 42.6273 123.33 42.6436C123.408 42.6566 123.459 42.6712 123.481 42.6875ZM126.743 47.0967V44.2305C126.743 44.0221 126.711 43.8545 126.646 43.7275C126.584 43.6006 126.489 43.5078 126.362 43.4492C126.239 43.3906 126.082 43.3613 125.894 43.3613C125.711 43.3613 125.553 43.3988 125.42 43.4736C125.29 43.5485 125.189 43.6478 125.117 43.7715C125.049 43.8952 125.015 44.0319 125.015 44.1816H124.15C124.15 43.9928 124.191 43.8057 124.272 43.6201C124.357 43.4346 124.478 43.2669 124.634 43.1172C124.79 42.9642 124.977 42.8437 125.195 42.7559C125.417 42.6647 125.664 42.6191 125.938 42.6191C126.263 42.6191 126.551 42.6729 126.802 42.7803C127.052 42.8844 127.249 43.0553 127.393 43.293C127.536 43.5306 127.607 43.8464 127.607 44.2402V46.8477C127.607 47.0234 127.62 47.2106 127.646 47.4092C127.676 47.6077 127.716 47.7786 127.769 47.9219V48L126.875 48C126.833 47.8958 126.8 47.7575 126.777 47.585C126.755 47.4092 126.743 47.2464 126.743 47.0967ZM126.88 44.7969L126.89 45.4316H126.289C126.084 45.4316 125.897 45.4544 125.728 45.5C125.562 45.5456 125.418 45.6123 125.298 45.7002C125.177 45.7848 125.085 45.8906 125.02 46.0176C124.958 46.1445 124.927 46.2894 124.927 46.4521C124.927 46.6637 124.956 46.833 125.015 46.96C125.073 47.0837 125.161 47.1732 125.278 47.2285C125.396 47.2839 125.544 47.3115 125.723 47.3115C125.941 47.3115 126.133 47.2611 126.299 47.1602C126.465 47.0592 126.593 46.9372 126.685 46.7939C126.779 46.6507 126.823 46.5173 126.816 46.3936L127.007 46.7988C126.994 46.9258 126.951 47.0641 126.88 47.2139C126.812 47.3604 126.715 47.502 126.592 47.6387C126.468 47.7721 126.322 47.8828 126.152 47.9707C125.986 48.0553 125.799 48.0977 125.591 48.0977C125.285 48.0977 125.016 48.0391 124.785 47.9219C124.557 47.8047 124.38 47.6322 124.253 47.4043C124.126 47.1764 124.062 46.8949 124.062 46.5596C124.062 46.3057 124.106 46.0713 124.194 45.8564C124.282 45.6416 124.412 45.4561 124.585 45.2998C124.757 45.1403 124.974 45.0166 125.234 44.9287C125.498 44.8408 125.802 44.7969 126.147 44.7969H126.88ZM132.295 47.2578V48H129.097V47.2578H132.295ZM132.197 43.3564L129.292 48H128.765V47.3359L131.65 42.7168H132.197V43.3564ZM131.821 42.7168V43.4639H128.779V42.7168H131.821ZM134.272 42.7168V48H133.413V42.7168H134.272ZM133.364 41.3154C133.364 41.1689 133.405 41.0452 133.486 40.9443C133.568 40.8434 133.69 40.793 133.853 40.793C134.015 40.793 134.137 40.8434 134.219 40.9443C134.303 41.0452 134.346 41.1689 134.346 41.3154C134.346 41.4554 134.303 41.5758 134.219 41.6768C134.137 41.7744 134.015 41.8232 133.853 41.8232C133.69 41.8232 133.568 41.7744 133.486 41.6768C133.405 41.5758 133.364 41.4554 133.364 41.3154ZM135.459 45.6123V45.1094C135.459 44.6992 135.511 44.3395 135.615 44.0303C135.719 43.7178 135.864 43.4574 136.05 43.249C136.235 43.0407 136.452 42.8844 136.699 42.7803C136.947 42.6729 137.212 42.6191 137.495 42.6191C137.785 42.6191 138.053 42.6729 138.301 42.7803C138.548 42.8844 138.765 43.0407 138.95 43.249C139.139 43.4574 139.285 43.7178 139.39 44.0303C139.494 44.3395 139.546 44.6992 139.546 45.1094V45.6123C139.546 46.0225 139.494 46.3838 139.39 46.6963C139.285 47.0055 139.141 47.2643 138.955 47.4727C138.77 47.681 138.553 47.8372 138.306 47.9414C138.058 48.0456 137.791 48.0977 137.505 48.0977C137.218 48.0977 136.951 48.0456 136.704 47.9414C136.457 47.8372 136.239 47.681 136.05 47.4727C135.864 47.2643 135.719 47.0055 135.615 46.6963C135.511 46.3838 135.459 46.0225 135.459 45.6123ZM136.323 45.1094V45.6123C136.323 45.902 136.353 46.1559 136.411 46.374C136.47 46.5921 136.553 46.7744 136.66 46.9209C136.768 47.0674 136.893 47.1781 137.036 47.2529C137.179 47.3245 137.336 47.3604 137.505 47.3604C137.7 47.3604 137.871 47.3245 138.018 47.2529C138.167 47.1781 138.291 47.0674 138.389 46.9209C138.486 46.7744 138.56 46.5921 138.608 46.374C138.657 46.1559 138.682 45.902 138.682 45.6123V45.1094C138.682 44.8197 138.652 44.5674 138.594 44.3525C138.535 44.1344 138.452 43.9521 138.345 43.8057C138.237 43.6559 138.11 43.5452 137.964 43.4736C137.821 43.3988 137.664 43.3613 137.495 43.3613C137.329 43.3613 137.174 43.3988 137.031 43.4736C136.888 43.5452 136.763 43.6559 136.655 43.8057C136.551 43.9521 136.47 44.1344 136.411 44.3525C136.353 44.5674 136.323 44.8197 136.323 45.1094ZM141.523 43.8447V48H140.659V42.7168H141.475L141.523 43.8447ZM141.313 45.1582L140.962 45.1436C140.959 44.7822 140.999 44.4486 141.084 44.1426C141.172 43.8333 141.296 43.5648 141.455 43.3369C141.618 43.109 141.812 42.9333 142.036 42.8096C142.261 42.6826 142.51 42.6191 142.783 42.6191C142.998 42.6191 143.193 42.6549 143.369 42.7266C143.545 42.7949 143.695 42.9056 143.818 43.0586C143.942 43.2116 144.036 43.4102 144.102 43.6543C144.17 43.8952 144.204 44.1898 144.204 44.5381V48H143.34V44.5283C143.34 44.2516 143.309 44.0303 143.247 43.8643C143.188 43.695 143.097 43.5729 142.974 43.498C142.853 43.4199 142.7 43.3809 142.515 43.3809C142.345 43.3809 142.188 43.4281 142.041 43.5225C141.895 43.6169 141.766 43.7471 141.655 43.9131C141.548 44.0791 141.463 44.2695 141.401 44.4844C141.343 44.696 141.313 44.9206 141.313 45.1582ZM147.393 48.0977C147.077 48.0977 146.792 48.0505 146.538 47.9561C146.284 47.8617 146.068 47.7184 145.889 47.5264C145.71 47.3311 145.573 47.0853 145.479 46.7891C145.384 46.4928 145.337 46.1429 145.337 45.7393V45.1436C145.337 44.6781 145.391 44.2842 145.498 43.9619C145.609 43.6396 145.757 43.3809 145.942 43.1855C146.128 42.987 146.338 42.8437 146.572 42.7559C146.807 42.6647 147.048 42.6191 147.295 42.6191C147.627 42.6191 147.91 42.6729 148.145 42.7803C148.379 42.8877 148.569 43.0472 148.716 43.2588C148.862 43.4704 148.97 43.7308 149.038 44.04C149.11 44.3493 149.146 44.7057 149.146 45.1094V45.6123H145.845V44.875H148.281V44.7529C148.268 44.4795 148.231 44.2386 148.169 44.0303C148.11 43.8219 148.013 43.6592 147.876 43.542C147.739 43.4215 147.546 43.3613 147.295 43.3613C147.135 43.3613 146.987 43.389 146.851 43.4443C146.717 43.4964 146.602 43.5892 146.504 43.7227C146.41 43.8529 146.335 44.0335 146.279 44.2646C146.227 44.4958 146.201 44.7887 146.201 45.1436V45.7393C146.201 46.0225 146.227 46.2666 146.279 46.4717C146.335 46.6735 146.414 46.8411 146.519 46.9746C146.626 47.1048 146.756 47.2025 146.909 47.2676C147.065 47.3294 147.243 47.3604 147.441 47.3604C147.731 47.3604 147.97 47.305 148.159 47.1943C148.348 47.0804 148.512 46.9355 148.652 46.7598L149.106 47.3018C149.012 47.4352 148.888 47.5638 148.735 47.6875C148.586 47.8079 148.4 47.9072 148.179 47.9854C147.961 48.0602 147.699 48.0977 147.393 48.0977Z" fill="#E0E0E9"/>
<path d="M199.86 42.9209L201.569 36.8906H202.546L200.339 44H199.65L199.86 42.9209ZM198.327 36.8906L200.021 42.9209L200.246 44H199.558L197.351 36.8906H198.327ZM205.07 44.0977C204.755 44.0977 204.47 44.0505 204.216 43.9561C203.962 43.8617 203.745 43.7184 203.566 43.5264C203.387 43.3311 203.251 43.0853 203.156 42.7891C203.062 42.4928 203.015 42.1429 203.015 41.7393V41.1436C203.015 40.6781 203.068 40.2842 203.176 39.9619C203.286 39.6396 203.435 39.3809 203.62 39.1855C203.806 38.987 204.016 38.8438 204.25 38.7559C204.484 38.6647 204.725 38.6191 204.973 38.6191C205.305 38.6191 205.588 38.6729 205.822 38.7803C206.057 38.8877 206.247 39.0472 206.394 39.2588C206.54 39.4704 206.647 39.7308 206.716 40.04C206.787 40.3493 206.823 40.7057 206.823 41.1094V41.6123H203.522V40.875H205.959V40.7529C205.946 40.4795 205.909 40.2386 205.847 40.0303C205.788 39.8219 205.69 39.6592 205.554 39.542C205.417 39.4215 205.223 39.3613 204.973 39.3613C204.813 39.3613 204.665 39.389 204.528 39.4443C204.395 39.4964 204.279 39.5892 204.182 39.7227C204.087 39.8529 204.012 40.0335 203.957 40.2646C203.905 40.4958 203.879 40.7887 203.879 41.1436V41.7393C203.879 42.0225 203.905 42.2666 203.957 42.4717C204.012 42.6735 204.092 42.8411 204.196 42.9746C204.304 43.1048 204.434 43.2025 204.587 43.2676C204.743 43.3294 204.921 43.3604 205.119 43.3604C205.409 43.3604 205.648 43.305 205.837 43.1943C206.026 43.0804 206.19 42.9355 206.33 42.7598L206.784 43.3018C206.69 43.4352 206.566 43.5638 206.413 43.6875C206.263 43.8079 206.078 43.9072 205.856 43.9854C205.638 44.0602 205.376 44.0977 205.07 44.0977ZM208.732 39.5469V44H207.868V38.7168H208.703L208.732 39.5469ZM210.046 38.6875L210.051 39.5273C209.979 39.5111 209.914 39.5013 209.855 39.498C209.8 39.4915 209.735 39.4883 209.66 39.4883C209.497 39.4883 209.354 39.5208 209.23 39.5859C209.11 39.651 209.006 39.7422 208.918 39.8594C208.83 39.9766 208.76 40.1165 208.708 40.2793C208.656 40.4388 208.62 40.6146 208.601 40.8066L208.376 40.9531C208.376 40.6341 208.4 40.3346 208.449 40.0547C208.501 39.7747 208.581 39.5273 208.688 39.3125C208.796 39.0944 208.933 38.9251 209.099 38.8047C209.268 38.681 209.47 38.6191 209.704 38.6191C209.756 38.6191 209.82 38.6273 209.895 38.6436C209.973 38.6566 210.023 38.6712 210.046 38.6875ZM211.843 38.7168V44H210.983V38.7168H211.843ZM210.935 37.3154C210.935 37.1689 210.975 37.0452 211.057 36.9443C211.138 36.8434 211.26 36.793 211.423 36.793C211.586 36.793 211.708 36.8434 211.789 36.9443C211.874 37.0452 211.916 37.1689 211.916 37.3154C211.916 37.4554 211.874 37.5758 211.789 37.6768C211.708 37.7744 211.586 37.8232 211.423 37.8232C211.26 37.8232 211.138 37.7744 211.057 37.6768C210.975 37.5758 210.935 37.4554 210.935 37.3154ZM214.313 44H213.449V38.2578C213.449 37.8574 213.516 37.5189 213.649 37.2422C213.786 36.9655 213.98 36.7555 214.23 36.6123C214.484 36.4691 214.784 36.3975 215.129 36.3975C215.334 36.3975 215.531 36.4268 215.72 36.4854C215.909 36.5407 216.104 36.6107 216.306 36.6953L216.159 37.457C216.042 37.3984 215.899 37.3431 215.729 37.291C215.56 37.2357 215.383 37.208 215.197 37.208C214.872 37.208 214.642 37.2959 214.509 37.4717C214.379 37.6442 214.313 37.9062 214.313 38.2578V44ZM215.168 38.7168V39.4102H212.761V38.7168L215.168 38.7168ZM216.721 38.7168V44H215.856V38.7168H216.721ZM219.943 43.3604C220.116 43.3604 220.272 43.3262 220.412 43.2578C220.555 43.1862 220.673 43.0755 220.764 42.9258C220.855 42.7728 220.907 42.5742 220.92 42.3301H221.73C221.717 42.6816 221.628 42.9909 221.462 43.2578C221.299 43.5215 221.084 43.7282 220.817 43.8779C220.554 44.0244 220.262 44.0977 219.943 44.0977C219.602 44.0977 219.304 44.0423 219.05 43.9316C218.799 43.821 218.591 43.6615 218.425 43.4531C218.262 43.2415 218.14 42.986 218.059 42.6865C217.977 42.3838 217.937 42.0404 217.937 41.6562V41.0605C217.937 40.6764 217.977 40.3346 218.059 40.0352C218.14 39.7324 218.262 39.4769 218.425 39.2686C218.591 39.057 218.799 38.8958 219.05 38.7852C219.304 38.6745 219.602 38.6191 219.943 38.6191C220.301 38.6191 220.611 38.6956 220.871 38.8486C221.135 38.9984 221.34 39.2165 221.486 39.5029C221.636 39.7861 221.717 40.1296 221.73 40.5332H220.92C220.907 40.2728 220.86 40.0563 220.778 39.8838C220.697 39.708 220.586 39.5778 220.446 39.4932C220.306 39.4053 220.139 39.3613 219.943 39.3613C219.715 39.3613 219.527 39.402 219.377 39.4834C219.23 39.5615 219.115 39.6755 219.03 39.8252C218.946 39.9749 218.885 40.154 218.85 40.3623C218.817 40.5706 218.801 40.8034 218.801 41.0605V41.6562C218.801 41.9134 218.817 42.1478 218.85 42.3594C218.885 42.5677 218.944 42.7467 219.025 42.8965C219.11 43.0462 219.227 43.1618 219.377 43.2432C219.527 43.3213 219.715 43.3604 219.943 43.3604ZM225.319 43.0967V40.2305C225.319 40.0221 225.287 39.8545 225.222 39.7275C225.16 39.6006 225.065 39.5078 224.938 39.4492C224.815 39.3906 224.659 39.3613 224.47 39.3613C224.287 39.3613 224.13 39.3988 223.996 39.4736C223.866 39.5485 223.765 39.6478 223.693 39.7715C223.625 39.8952 223.591 40.0319 223.591 40.1816H222.727C222.727 39.9928 222.767 39.8057 222.849 39.6201C222.933 39.4346 223.054 39.2669 223.21 39.1172C223.366 38.9642 223.553 38.8437 223.771 38.7559C223.993 38.6647 224.24 38.6191 224.514 38.6191C224.839 38.6191 225.127 38.6729 225.378 38.7803C225.629 38.8844 225.826 39.0553 225.969 39.293C226.112 39.5306 226.184 39.8464 226.184 40.2402V42.8477C226.184 43.0234 226.197 43.2106 226.223 43.4092C226.252 43.6077 226.293 43.7786 226.345 43.9219V44H225.451C225.409 43.8958 225.376 43.7575 225.354 43.585C225.331 43.4092 225.319 43.2464 225.319 43.0967ZM225.456 40.7969L225.466 41.4316H224.865C224.66 41.4316 224.473 41.4544 224.304 41.5C224.138 41.5456 223.994 41.6123 223.874 41.7002C223.754 41.7848 223.661 41.8906 223.596 42.0176C223.534 42.1445 223.503 42.2894 223.503 42.4521C223.503 42.6637 223.532 42.833 223.591 42.96C223.649 43.0837 223.737 43.1732 223.854 43.2285C223.972 43.2839 224.12 43.3115 224.299 43.3115C224.517 43.3115 224.709 43.2611 224.875 43.1602C225.041 43.0592 225.17 42.9372 225.261 42.7939C225.355 42.6507 225.399 42.5173 225.393 42.3936L225.583 42.7988C225.57 42.9258 225.528 43.0641 225.456 43.2139C225.388 43.3604 225.292 43.502 225.168 43.6387C225.044 43.7721 224.898 43.8828 224.729 43.9707C224.562 44.0553 224.375 44.0977 224.167 44.0977C223.861 44.0977 223.592 44.0391 223.361 43.9219C223.133 43.8047 222.956 43.6322 222.829 43.4043C222.702 43.1764 222.639 42.8949 222.639 42.5596C222.639 42.3057 222.683 42.0713 222.771 41.8564C222.858 41.6416 222.989 41.4561 223.161 41.2998C223.334 41.1403 223.55 41.0166 223.811 40.9287C224.074 40.8408 224.379 40.7969 224.724 40.7969H225.456ZM231.711 44.0977C231.395 44.0977 231.11 44.0505 230.856 43.9561C230.603 43.8617 230.386 43.7184 230.207 43.5264C230.028 43.3311 229.891 43.0853 229.797 42.7891C229.702 42.4928 229.655 42.1429 229.655 41.7393V41.1436C229.655 40.6781 229.709 40.2842 229.816 39.9619C229.927 39.6396 230.075 39.3809 230.261 39.1855C230.446 38.987 230.656 38.8437 230.891 38.7559C231.125 38.6647 231.366 38.6191 231.613 38.6191C231.945 38.6191 232.229 38.6729 232.463 38.7803C232.697 38.8877 232.888 39.0472 233.034 39.2588C233.181 39.4704 233.288 39.7308 233.356 40.04C233.428 40.3493 233.464 40.7057 233.464 41.1094V41.6123H230.163V40.875H232.6V40.7529C232.587 40.4795 232.549 40.2386 232.487 40.0303C232.429 39.8219 232.331 39.6592 232.194 39.542C232.058 39.4215 231.864 39.3613 231.613 39.3613C231.454 39.3613 231.306 39.389 231.169 39.4443C231.035 39.4964 230.92 39.5892 230.822 39.7227C230.728 39.8529 230.653 40.0335 230.598 40.2646C230.546 40.4958 230.52 40.7887 230.52 41.1436V41.7393C230.52 42.0225 230.546 42.2666 230.598 42.4717C230.653 42.6735 230.733 42.8411 230.837 42.9746C230.944 43.1048 231.075 43.2025 231.228 43.2676C231.384 43.3294 231.561 43.3604 231.76 43.3604C232.049 43.3604 232.289 43.305 232.478 43.1943C232.666 43.0804 232.831 42.9355 232.971 42.7598L233.425 43.3018C233.33 43.4352 233.207 43.5638 233.054 43.6875C232.904 43.8079 232.718 43.9072 232.497 43.9854C232.279 44.0602 232.017 44.0977 231.711 44.0977ZM194.816 50.7324V57.0312H193.952V49.7168H194.738L194.816 50.7324ZM197.771 52.1191V52.6123C197.771 53.029 197.731 53.3936 197.653 53.7061C197.578 54.0153 197.466 54.2741 197.316 54.4824C197.17 54.6875 196.989 54.8421 196.774 54.9463C196.56 55.0472 196.314 55.0977 196.037 55.0977C195.76 55.0977 195.52 55.0456 195.314 54.9414C195.113 54.834 194.942 54.6794 194.802 54.4775C194.665 54.2757 194.556 54.0332 194.475 53.75C194.396 53.4635 194.343 53.1429 194.313 52.7881V52.0361C194.343 51.6618 194.396 51.3265 194.475 51.0303C194.553 50.7308 194.66 50.4769 194.797 50.2686C194.937 50.057 195.108 49.8958 195.31 49.7852C195.515 49.6745 195.754 49.6191 196.027 49.6191C196.311 49.6191 196.56 49.668 196.774 49.7656C196.993 49.8633 197.175 50.0146 197.321 50.2197C197.471 50.4215 197.583 50.6803 197.658 50.9961C197.733 51.3086 197.771 51.6829 197.771 52.1191ZM196.906 52.6123V52.1191C196.906 51.8262 196.883 51.5706 196.838 51.3525C196.796 51.1344 196.727 50.9538 196.633 50.8105C196.538 50.6673 196.42 50.5599 196.276 50.4883C196.133 50.4167 195.961 50.3809 195.759 50.3809C195.586 50.3809 195.433 50.4167 195.3 50.4883C195.17 50.5599 195.057 50.6576 194.963 50.7812C194.868 50.9017 194.79 51.04 194.729 51.1963C194.667 51.3493 194.621 51.5088 194.592 51.6748V53.1543C194.647 53.3626 194.72 53.5596 194.812 53.7451C194.903 53.9274 195.025 54.0755 195.178 54.1895C195.334 54.3034 195.531 54.3604 195.769 54.3604C195.967 54.3604 196.138 54.3245 196.281 54.2529C196.424 54.1813 196.542 54.0739 196.633 53.9307C196.727 53.7842 196.796 53.6019 196.838 53.3838C196.883 53.1624 196.906 52.9053 196.906 52.6123ZM201.472 54.0967V51.2305C201.472 51.0221 201.439 50.8545 201.374 50.7275C201.312 50.6006 201.218 50.5078 201.091 50.4492C200.967 50.3906 200.811 50.3613 200.622 50.3613C200.44 50.3613 200.282 50.3988 200.148 50.4736C200.018 50.5485 199.917 50.6478 199.846 50.7715C199.777 50.8952 199.743 51.0319 199.743 51.1816H198.879C198.879 50.9928 198.92 50.8057 199.001 50.6201C199.086 50.4346 199.206 50.2669 199.362 50.1172C199.519 49.9642 199.706 49.8438 199.924 49.7559C200.145 49.6647 200.393 49.6191 200.666 49.6191C200.992 49.6191 201.28 49.6729 201.53 49.7803C201.781 49.8844 201.978 50.0553 202.121 50.293C202.264 50.5306 202.336 50.8464 202.336 51.2402V53.8477C202.336 54.0234 202.349 54.2106 202.375 54.4092C202.404 54.6077 202.445 54.7786 202.497 54.9219V55H201.604C201.561 54.8958 201.529 54.7575 201.506 54.585C201.483 54.4092 201.472 54.2464 201.472 54.0967ZM201.608 51.7969L201.618 52.4316H201.018C200.812 52.4316 200.625 52.4544 200.456 52.5C200.29 52.5456 200.147 52.6123 200.026 52.7002C199.906 52.7848 199.813 52.8906 199.748 53.0176C199.686 53.1445 199.655 53.2894 199.655 53.4521C199.655 53.6637 199.685 53.833 199.743 53.96C199.802 54.0837 199.89 54.1732 200.007 54.2285C200.124 54.2839 200.272 54.3115 200.451 54.3115C200.669 54.3115 200.861 54.2611 201.027 54.1602C201.193 54.0592 201.322 53.9372 201.413 53.7939C201.507 53.6507 201.551 53.5173 201.545 53.3936L201.735 53.7988C201.722 53.9258 201.68 54.0641 201.608 54.2139C201.54 54.3604 201.444 54.502 201.32 54.6387C201.197 54.7721 201.05 54.8828 200.881 54.9707C200.715 55.0553 200.528 55.0977 200.319 55.0977C200.013 55.0977 199.745 55.0391 199.514 54.9219C199.286 54.8047 199.108 54.6322 198.981 54.4043C198.854 54.1764 198.791 53.8949 198.791 53.5596C198.791 53.3057 198.835 53.0713 198.923 52.8564C199.011 52.6416 199.141 52.4561 199.313 52.2998C199.486 52.1403 199.702 52.0166 199.963 51.9287C200.227 51.8408 200.531 51.7969 200.876 51.7969H201.608ZM206.54 49.7168H207.316V55.0439C207.316 55.5094 207.235 55.8936 207.072 56.1963C206.913 56.499 206.69 56.722 206.403 56.8652C206.117 57.0117 205.786 57.085 205.412 57.085C205.279 57.085 205.111 57.0605 204.909 57.0117C204.707 56.9629 204.506 56.888 204.304 56.7871C204.102 56.6895 203.936 56.5658 203.806 56.416L204.162 55.8154C204.348 56.0042 204.545 56.1393 204.753 56.2207C204.961 56.3021 205.16 56.3428 205.349 56.3428C205.573 56.3428 205.769 56.3021 205.935 56.2207C206.101 56.1393 206.229 56.0059 206.32 55.8203C206.411 55.638 206.457 55.3939 206.457 55.0879V50.8789L206.54 49.7168ZM203.503 52.6123V52.1191C203.503 51.6829 203.544 51.3086 203.625 50.9961C203.706 50.6803 203.824 50.4215 203.977 50.2197C204.133 50.0146 204.32 49.8633 204.538 49.7656C204.756 49.668 205 49.6191 205.271 49.6191C205.544 49.6191 205.78 49.6745 205.979 49.7852C206.177 49.8958 206.341 50.057 206.472 50.2686C206.605 50.4769 206.709 50.7308 206.784 51.0303C206.862 51.3265 206.916 51.6618 206.945 52.0361V52.6953C206.916 53.0664 206.862 53.4001 206.784 53.6963C206.709 53.9925 206.604 54.2448 206.467 54.4531C206.333 54.6615 206.167 54.821 205.969 54.9316C205.77 55.0423 205.534 55.0977 205.261 55.0977C204.994 55.0977 204.753 55.0472 204.538 54.9463C204.323 54.8421 204.138 54.6875 203.981 54.4824C203.828 54.2741 203.71 54.0153 203.625 53.7061C203.544 53.3936 203.503 53.029 203.503 52.6123ZM204.367 52.1191V52.6123C204.367 52.9053 204.388 53.1608 204.431 53.3789C204.473 53.5938 204.538 53.7728 204.626 53.916C204.717 54.056 204.833 54.1602 204.973 54.2285C205.116 54.2969 205.287 54.3311 205.485 54.3311C205.726 54.3311 205.923 54.2725 206.076 54.1553C206.229 54.0381 206.351 53.8835 206.442 53.6914C206.537 53.4961 206.612 53.2861 206.667 53.0615V51.6748C206.634 51.5088 206.587 51.3493 206.525 51.1963C206.467 51.04 206.39 50.9017 206.296 50.7812C206.201 50.6576 206.088 50.5599 205.954 50.4883C205.824 50.4167 205.671 50.3809 205.495 50.3809C205.297 50.3809 205.126 50.4167 204.982 50.4883C204.839 50.5599 204.722 50.6673 204.631 50.8105C204.54 50.9538 204.473 51.1344 204.431 51.3525C204.388 51.5706 204.367 51.8262 204.367 52.1191ZM211.198 54.0967V51.2305C211.198 51.0221 211.166 50.8545 211.101 50.7275C211.039 50.6006 210.944 50.5078 210.817 50.4492C210.694 50.3906 210.537 50.3613 210.349 50.3613C210.166 50.3613 210.008 50.3988 209.875 50.4736C209.745 50.5485 209.644 50.6478 209.572 50.7715C209.504 50.8952 209.47 51.0319 209.47 51.1816H208.605C208.605 50.9928 208.646 50.8057 208.728 50.6201C208.812 50.4346 208.933 50.2669 209.089 50.1172C209.245 49.9642 209.432 49.8438 209.65 49.7559C209.872 49.6647 210.119 49.6191 210.393 49.6191C210.718 49.6191 211.006 49.6729 211.257 49.7803C211.507 49.8844 211.704 50.0553 211.848 50.293C211.991 50.5306 212.062 50.8464 212.062 51.2402V53.8477C212.062 54.0234 212.076 54.2106 212.102 54.4092C212.131 54.6077 212.172 54.7786 212.224 54.9219V55H211.33C211.288 54.8958 211.255 54.7575 211.232 54.585C211.21 54.4092 211.198 54.2464 211.198 54.0967ZM211.335 51.7969L211.345 52.4316H210.744C210.539 52.4316 210.352 52.4544 210.183 52.5C210.017 52.5456 209.873 52.6123 209.753 52.7002C209.632 52.7848 209.54 52.8906 209.475 53.0176C209.413 53.1445 209.382 53.2894 209.382 53.4521C209.382 53.6637 209.411 53.833 209.47 53.96C209.528 54.0837 209.616 54.1732 209.733 54.2285C209.851 54.2839 209.999 54.3115 210.178 54.3115C210.396 54.3115 210.588 54.2611 210.754 54.1602C210.92 54.0592 211.049 53.9372 211.14 53.7939C211.234 53.6507 211.278 53.5173 211.271 53.3936L211.462 53.7988C211.449 53.9258 211.407 54.0641 211.335 54.2139C211.267 54.3604 211.171 54.502 211.047 54.6387C210.923 54.7721 210.777 54.8828 210.607 54.9707C210.441 55.0553 210.254 55.0977 210.046 55.0977C209.74 55.0977 209.471 55.0391 209.24 54.9219C209.012 54.8047 208.835 54.6322 208.708 54.4043C208.581 54.1764 208.518 53.8949 208.518 53.5596C208.518 53.3057 208.562 53.0713 208.649 52.8564C208.737 52.6416 208.868 52.4561 209.04 52.2998C209.213 52.1403 209.429 52.0166 209.689 51.9287C209.953 51.8408 210.257 51.7969 210.603 51.7969H211.335ZM214.27 50.7666V55H213.41V49.7168H214.221L214.27 50.7666ZM214.094 52.1582L213.693 52.1436C213.69 51.7822 213.726 51.4486 213.801 51.1426C213.876 50.8333 213.988 50.5648 214.138 50.3369C214.291 50.109 214.481 49.9333 214.709 49.8096C214.94 49.6826 215.209 49.6191 215.515 49.6191C215.716 49.6191 215.904 49.6549 216.076 49.7266C216.252 49.7949 216.405 49.904 216.535 50.0537C216.665 50.2035 216.766 50.3955 216.838 50.6299C216.913 50.8643 216.95 51.1475 216.95 51.4795V55H216.086V51.5234C216.086 51.2467 216.049 51.0254 215.974 50.8594C215.902 50.6934 215.799 50.5729 215.666 50.498C215.533 50.4199 215.373 50.3809 215.188 50.3809C214.976 50.3809 214.799 50.4281 214.655 50.5225C214.515 50.6169 214.403 50.7471 214.318 50.9131C214.237 51.0791 214.178 51.2695 214.143 51.4844C214.11 51.696 214.094 51.9206 214.094 52.1582ZM216.94 51.6602L216.364 51.8457C216.361 51.556 216.397 51.2777 216.472 51.0107C216.547 50.7438 216.657 50.5062 216.804 50.2979C216.953 50.0895 217.139 49.9251 217.36 49.8047C217.582 49.681 217.839 49.6191 218.132 49.6191C218.373 49.6191 218.586 49.6566 218.771 49.7314C218.957 49.8063 219.113 49.9219 219.24 50.0781C219.37 50.2311 219.468 50.4281 219.533 50.6689C219.598 50.9098 219.631 51.1963 219.631 51.5283V55H218.767V51.5186C218.767 51.2223 218.729 50.9928 218.654 50.8301C218.583 50.6641 218.48 50.5485 218.347 50.4834C218.213 50.415 218.054 50.3809 217.868 50.3809C217.718 50.3809 217.585 50.415 217.468 50.4834C217.354 50.5518 217.258 50.6462 217.18 50.7666C217.102 50.8838 217.041 51.0189 216.999 51.1719C216.96 51.3249 216.94 51.4876 216.94 51.6602ZM222.824 55.0977C222.508 55.0977 222.224 55.0505 221.97 54.9561C221.716 54.8617 221.499 54.7184 221.32 54.5264C221.141 54.3311 221.005 54.0853 220.91 53.7891C220.816 53.4928 220.769 53.1429 220.769 52.7393V52.1436C220.769 51.6781 220.822 51.2842 220.93 50.9619C221.04 50.6396 221.188 50.3809 221.374 50.1855C221.56 49.987 221.77 49.8437 222.004 49.7559C222.238 49.6647 222.479 49.6191 222.727 49.6191C223.059 49.6191 223.342 49.6729 223.576 49.7803C223.811 49.8877 224.001 50.0472 224.147 50.2588C224.294 50.4704 224.401 50.7308 224.47 51.04C224.541 51.3493 224.577 51.7057 224.577 52.1094V52.6123L221.276 52.6123V51.875H223.713V51.7529C223.7 51.4795 223.662 51.2386 223.601 51.0303C223.542 50.8219 223.444 50.6592 223.308 50.542C223.171 50.4215 222.977 50.3613 222.727 50.3613C222.567 50.3613 222.419 50.389 222.282 50.4443C222.149 50.4964 222.033 50.5892 221.936 50.7227C221.841 50.8529 221.766 51.0335 221.711 51.2646C221.659 51.4958 221.633 51.7887 221.633 52.1436V52.7393C221.633 53.0225 221.659 53.2666 221.711 53.4717C221.766 53.6735 221.846 53.8411 221.95 53.9746C222.058 54.1048 222.188 54.2025 222.341 54.2676C222.497 54.3294 222.674 54.3604 222.873 54.3604C223.163 54.3604 223.402 54.305 223.591 54.1943C223.78 54.0804 223.944 53.9355 224.084 53.7598L224.538 54.3018C224.444 54.4352 224.32 54.5638 224.167 54.6875C224.017 54.8079 223.832 54.9072 223.61 54.9854C223.392 55.0602 223.13 55.0977 222.824 55.0977ZM226.486 50.8447V55H225.622V49.7168H226.438L226.486 50.8447ZM226.276 52.1582L225.925 52.1436C225.922 51.7822 225.962 51.4486 226.047 51.1426C226.135 50.8333 226.258 50.5648 226.418 50.3369C226.581 50.109 226.774 49.9333 226.999 49.8096C227.224 49.6826 227.473 49.6191 227.746 49.6191C227.961 49.6191 228.156 49.6549 228.332 49.7266C228.508 49.7949 228.658 49.9056 228.781 50.0586C228.905 50.2116 228.999 50.4102 229.064 50.6543C229.133 50.8952 229.167 51.1898 229.167 51.5381V55H228.303V51.5283C228.303 51.2516 228.272 51.0303 228.21 50.8643C228.151 50.695 228.06 50.5729 227.937 50.498C227.816 50.4199 227.663 50.3809 227.478 50.3809C227.308 50.3809 227.15 50.4281 227.004 50.5225C226.857 50.6169 226.729 50.7471 226.618 50.9131C226.511 51.0791 226.426 51.2695 226.364 51.4844C226.306 51.696 226.276 51.9206 226.276 52.1582ZM232.395 49.7168V50.4102H229.929V49.7168H232.395ZM230.734 48.4326H231.599V53.6914C231.599 53.8704 231.62 54.0055 231.662 54.0967C231.708 54.1878 231.765 54.248 231.833 54.2773C231.901 54.3066 231.975 54.3213 232.053 54.3213C232.111 54.3213 232.176 54.3148 232.248 54.3018C232.32 54.2855 232.368 54.2725 232.395 54.2627L232.39 55C232.331 55.0228 232.253 55.0439 232.155 55.0635C232.058 55.0863 231.934 55.0977 231.784 55.0977C231.599 55.0977 231.426 55.0537 231.267 54.9658C231.107 54.8779 230.979 54.7314 230.881 54.5264C230.783 54.318 230.734 54.0381 230.734 53.6865V48.4326ZM233.146 52.6123V52.1094C233.146 51.6992 233.199 51.3395 233.303 51.0303C233.407 50.7178 233.552 50.4574 233.737 50.249C233.923 50.0407 234.139 49.8844 234.387 49.7803C234.634 49.6729 234.899 49.6191 235.183 49.6191C235.472 49.6191 235.741 49.6729 235.988 49.7803C236.236 49.8844 236.452 50.0407 236.638 50.249C236.826 50.4574 236.973 50.7178 237.077 51.0303C237.181 51.3395 237.233 51.6992 237.233 52.1094V52.6123C237.233 53.0225 237.181 53.3838 237.077 53.6963C236.973 54.0055 236.828 54.2643 236.643 54.4727C236.457 54.681 236.241 54.8372 235.993 54.9414C235.746 55.0456 235.479 55.0977 235.192 55.0977C234.906 55.0977 234.639 55.0456 234.392 54.9414C234.144 54.8372 233.926 54.681 233.737 54.4727C233.552 54.2643 233.407 54.0055 233.303 53.6963C233.199 53.3838 233.146 53.0225 233.146 52.6123ZM234.011 52.1094V52.6123C234.011 52.902 234.04 53.1559 234.099 53.374C234.157 53.5921 234.24 53.7744 234.348 53.9209C234.455 54.0674 234.58 54.1781 234.724 54.2529C234.867 54.3245 235.023 54.3604 235.192 54.3604C235.388 54.3604 235.559 54.3245 235.705 54.2529C235.855 54.1781 235.979 54.0674 236.076 53.9209C236.174 53.7744 236.247 53.5921 236.296 53.374C236.345 53.1559 236.369 52.902 236.369 52.6123V52.1094C236.369 51.8197 236.34 51.5674 236.281 51.3525C236.223 51.1344 236.14 50.9521 236.032 50.8057C235.925 50.6559 235.798 50.5452 235.651 50.4736C235.508 50.3988 235.352 50.3613 235.183 50.3613C235.017 50.3613 234.862 50.3988 234.719 50.4736C234.576 50.5452 234.45 50.6559 234.343 50.8057C234.239 50.9521 234.157 51.1344 234.099 51.3525C234.04 51.5674 234.011 51.8197 234.011 52.1094Z" fill="#E0E0E9"/>
<path fill-rule="evenodd" clip-rule="evenodd" d="M205 16L138 16V14L205 14V16Z" fill="#D0CFD7"/>
<path fill-rule="evenodd" clip-rule="evenodd" d="M112 16L45 16V14L112 14V16Z" fill="#D0CFD7"/>
<path fill-rule="evenodd" clip-rule="evenodd" d="M19.7612 6.17317C19 8.01088 19 10.3406 19 15C19 19.6594 19 21.9891 19.7612 23.8268C20.7761 26.2771 22.7229 28.2239 25.1732 29.2388C27.0109 30 29.3406 30 34 30C38.6594 30 40.9891 30 42.8268 29.2388C45.2771 28.2239 47.2239 26.2771 48.2388 23.8268C49 21.9891 49 19.6594 49 15C49 10.3406 49 8.01088 48.2388 6.17317C47.2239 3.72288 45.2771 1.77614 42.8268 0.761205C40.9891 0 38.6594 0 34 0C29.3406 0 27.0109 0 25.1732 0.761205C22.7229 1.77614 20.7761 3.72288 19.7612 6.17317ZM40.7071 11.7071C41.0976 11.3166 41.0976 10.6834 40.7071 10.2929C40.3166 9.90237 39.6834 9.90237 39.2929 10.2929L32 17.5858L28.7071 14.2929C28.3166 13.9024 27.6834 13.9024 27.2929 14.2929C26.9024 14.6834 26.9024 15.3166 27.2929 15.7071L31.2929 19.7071C31.4804 19.8946 31.7348 20 32 20C32.2652 20 32.5196 19.8946 32.7071 19.7071L40.7071 11.7071Z" fill="url(#paint1_linear_363_3477)"/>
<path fill-rule="evenodd" clip-rule="evenodd" d="M201.761 6.17317C201 8.01088 201 10.3406 201 15C201 19.6594 201 21.9891 201.761 23.8268C202.776 26.2771 204.723 28.2239 207.173 29.2388C209.011 30 211.341 30 216 30C220.659 30 222.989 30 224.827 29.2388C227.277 28.2239 229.224 26.2771 230.239 23.8268C231 21.9891 231 19.6594 231 15C231 10.3406 231 8.01088 230.239 6.17317C229.224 3.72288 227.277 1.77614 224.827 0.761205C222.989 0 220.659 0 216 0C211.341 0 209.011 0 207.173 0.761205C204.723 1.77614 202.776 3.72288 201.761 6.17317ZM222.707 11.7071C223.098 11.3166 223.098 10.6834 222.707 10.2929C222.317 9.90237 221.683 9.90237 221.293 10.2929L214 17.5858L210.707 14.2929C210.317 13.9024 209.683 13.9024 209.293 14.2929C208.902 14.6834 208.902 15.3166 209.293 15.7071L213.293 19.7071C213.48 19.8946 213.735 20 214 20C214.265 20 214.52 19.8946 214.707 19.7071L222.707 11.7071Z" fill="#D0CFD7"/>
<path fill-rule="evenodd" clip-rule="evenodd" d="M110.761 6.17317C110 8.01088 110 10.3406 110 15C110 19.6594 110 21.9891 110.761 23.8268C111.776 26.2771 113.723 28.2239 116.173 29.2388C118.011 30 120.341 30 125 30C129.659 30 131.989 30 133.827 29.2388C136.277 28.2239 138.224 26.2771 139.239 23.8268C140 21.9891 140 19.6594 140 15C140 10.3406 140 8.01088 139.239 6.17317C138.224 3.72288 136.277 1.77614 133.827 0.761205C131.989 0 129.659 0 125 0C120.341 0 118.011 0 116.173 0.761205C113.723 1.77614 111.776 3.72288 110.761 6.17317ZM131.707 11.7071C132.098 11.3166 132.098 10.6834 131.707 10.2929C131.317 9.90237 130.683 9.90237 130.293 10.2929L123 17.5858L119.707 14.2929C119.317 13.9024 118.683 13.9024 118.293 14.2929C117.902 14.6834 117.902 15.3166 118.293 15.7071L122.293 19.7071C122.48 19.8946 122.735 20 123 20C123.265 20 123.52 19.8946 123.707 19.7071L131.707 11.7071Z" fill="#D0CFD7"/>
<defs>
<linearGradient id="paint0_linear_363_3477" x1="33.5" y1="46" x2="33.5" y2="35" gradientUnits="userSpaceOnUse">
<stop stop-color="#5CCC94"/>
<stop offset="1" stop-color="#8CCAAE"/>
</linearGradient>
<linearGradient id="paint1_linear_363_3477" x1="34" y1="30" x2="34" y2="1.58545e-07" gradientUnits="userSpaceOnUse">
<stop stop-color="#5CCC94"/>
<stop offset="1" stop-color="#8CCAAE"/>
</linearGradient>
</defs>
</svg>
