<svg width="240" height="68" viewBox="0 0 240 68" fill="none" xmlns="http://www.w3.org/2000/svg">
<path d="M15.6758 36.8906L15.6758 44H14.7725L11.9258 38.5166L11.9258 44H11.0273L11.0273 36.8906H11.9258L14.7871 42.3887L14.7871 36.8906H15.6758ZM19.7822 42.7793V38.7168H20.6465V44H19.8262L19.7822 42.7793ZM19.9434 41.666L20.2852 41.6562C20.2852 42.0078 20.2542 42.3333 20.1924 42.6328C20.1338 42.929 20.0361 43.1862 19.8994 43.4043C19.766 43.6224 19.5885 43.7933 19.3672 43.917C19.1458 44.0374 18.874 44.0977 18.5518 44.0977C18.3337 44.0977 18.1351 44.0602 17.9561 43.9854C17.7803 43.9105 17.6273 43.7949 17.4971 43.6387C17.3701 43.4824 17.2708 43.279 17.1992 43.0283C17.1309 42.7777 17.0967 42.4766 17.0967 42.125V38.7168H17.9561V42.1348C17.9561 42.3724 17.9772 42.5693 18.0195 42.7256C18.0618 42.8786 18.1188 43.0007 18.1904 43.0918C18.262 43.1797 18.3418 43.2415 18.4297 43.2773C18.5176 43.3132 18.6071 43.3311 18.6982 43.3311C19.0042 43.3311 19.2484 43.2578 19.4307 43.1113C19.613 42.9616 19.7432 42.7614 19.8213 42.5107C19.9027 42.2568 19.9434 41.9753 19.9434 41.666ZM22.8096 39.7666V44H21.9502V38.7168H22.7607L22.8096 39.7666ZM22.6338 41.1582L22.2334 41.1436C22.2301 40.7822 22.266 40.4486 22.3408 40.1426C22.4157 39.8333 22.528 39.5648 22.6777 39.3369C22.8307 39.109 23.0212 38.9333 23.249 38.8096C23.4801 38.6826 23.7487 38.6191 24.0547 38.6191C24.2565 38.6191 24.4437 38.6549 24.6162 38.7266C24.792 38.7949 24.945 38.904 25.0752 39.0537C25.2054 39.2035 25.3063 39.3955 25.3779 39.6299C25.4528 39.8643 25.4902 40.1475 25.4902 40.4795V44H24.626V40.5234C24.626 40.2467 24.5885 40.0254 24.5137 39.8594C24.4421 39.6934 24.3395 39.5729 24.2061 39.498C24.0726 39.4199 23.9131 39.3809 23.7275 39.3809C23.516 39.3809 23.3385 39.4281 23.1953 39.5225C23.0553 39.6169 22.943 39.7471 22.8584 39.9131C22.777 40.0791 22.7184 40.2695 22.6826 40.4844C22.6501 40.696 22.6338 40.9206 22.6338 41.1582ZM25.4805 40.6602L24.9043 40.8457C24.901 40.556 24.9368 40.2777 25.0117 40.0107C25.0866 39.7438 25.1973 39.5062 25.3438 39.2979C25.4935 39.0895 25.679 38.9251 25.9004 38.8047C26.1217 38.681 26.3789 38.6191 26.6719 38.6191C26.9128 38.6191 27.126 38.6566 27.3115 38.7314C27.4971 38.8063 27.6533 38.9219 27.7803 39.0781C27.9105 39.2311 28.0081 39.4281 28.0732 39.6689C28.1383 39.9098 28.1709 40.1963 28.1709 40.5283V44L27.3066 44V40.5186C27.3066 40.2223 27.2692 39.9928 27.1943 39.8301C27.1227 39.6641 27.0202 39.5485 26.8867 39.4834C26.7533 39.415 26.5938 39.3809 26.4082 39.3809C26.2585 39.3809 26.125 39.415 26.0078 39.4834C25.8939 39.5518 25.7979 39.6462 25.7197 39.7666C25.6416 39.8838 25.5814 40.0189 25.5391 40.1719C25.5 40.3249 25.4805 40.4876 25.4805 40.6602ZM32.0625 43.0967V40.2305C32.0625 40.0221 32.0299 39.8545 31.9648 39.7275C31.903 39.6006 31.8086 39.5078 31.6816 39.4492C31.5579 39.3906 31.4017 39.3613 31.2129 39.3613C31.0306 39.3613 30.8727 39.3988 30.7393 39.4736C30.609 39.5485 30.5081 39.6478 30.4365 39.7715C30.3682 39.8952 30.334 40.0319 30.334 40.1816H29.4697C29.4697 39.9928 29.5104 39.8057 29.5918 39.6201C29.6764 39.4346 29.7969 39.2669 29.9531 39.1172C30.1094 38.9642 30.2965 38.8437 30.5146 38.7559C30.736 38.6647 30.9834 38.6191 31.2568 38.6191C31.5824 38.6191 31.8704 38.6729 32.1211 38.7803C32.3717 38.8844 32.5687 39.0553 32.7119 39.293C32.8551 39.5306 32.9268 39.8464 32.9268 40.2402V42.8477C32.9268 43.0234 32.9398 43.2106 32.9658 43.4092C32.9951 43.6077 33.0358 43.7786 33.0879 43.9219V44H32.1943C32.152 43.8958 32.1195 43.7575 32.0967 43.585C32.0739 43.4092 32.0625 43.2464 32.0625 43.0967ZM32.1992 40.7969L32.209 41.4316H31.6084C31.4033 41.4316 31.2161 41.4544 31.0469 41.5C30.8809 41.5456 30.7376 41.6123 30.6172 41.7002C30.4967 41.7848 30.404 41.8906 30.3389 42.0176C30.277 42.1445 30.2461 42.2894 30.2461 42.4521C30.2461 42.6637 30.2754 42.833 30.334 42.96C30.3926 43.0837 30.4805 43.1732 30.5977 43.2285C30.7148 43.2839 30.863 43.3115 31.042 43.3115C31.2601 43.3115 31.4521 43.2611 31.6182 43.1602C31.7842 43.0592 31.9128 42.9372 32.0039 42.7939C32.0983 42.6507 32.1423 42.5173 32.1357 42.3936L32.3262 42.7988C32.3132 42.9258 32.2708 43.0641 32.1992 43.2139C32.1309 43.3604 32.0348 43.502 31.9111 43.6387C31.7874 43.7721 31.641 43.8828 31.4717 43.9707C31.3057 44.0553 31.1185 44.0977 30.9102 44.0977C30.6042 44.0977 30.3356 44.0391 30.1045 43.9219C29.8766 43.8047 29.6992 43.6322 29.5723 43.4043C29.4453 43.1764 29.3818 42.8949 29.3818 42.5596C29.3818 42.3057 29.4258 42.0713 29.5137 41.8564C29.6016 41.6416 29.7318 41.4561 29.9043 41.2998C30.0768 41.1403 30.2933 41.0166 30.5537 40.9287C30.8174 40.8408 31.1217 40.7969 31.4668 40.7969H32.1992ZM32.0381 36.7002H32.7705C32.7705 36.9541 32.7119 37.1803 32.5947 37.3789C32.4775 37.5742 32.3099 37.7272 32.0918 37.8379C31.8737 37.9486 31.6149 38.0039 31.3154 38.0039C30.863 38.0039 30.5049 37.8835 30.2412 37.6426C29.9808 37.3984 29.8506 37.0843 29.8506 36.7002H30.583C30.583 36.8923 30.6383 37.0615 30.749 37.208C30.8597 37.3545 31.0485 37.4277 31.3154 37.4277C31.5758 37.4277 31.7614 37.3545 31.8721 37.208C31.9827 37.0615 32.0381 36.8923 32.0381 36.7002ZM35.1338 39.5469V44H34.2695V38.7168H35.1045L35.1338 39.5469ZM36.4473 38.6875L36.4521 39.5273C36.3805 39.5111 36.3154 39.5013 36.2568 39.498C36.2015 39.4915 36.1364 39.4883 36.0615 39.4883C35.8988 39.4883 35.7555 39.5208 35.6318 39.5859C35.5114 39.651 35.4072 39.7422 35.3193 39.8594C35.2314 39.9766 35.1615 40.1165 35.1094 40.2793C35.0573 40.4388 35.0215 40.6146 35.002 40.8066L34.7773 40.9531C34.7773 40.6341 34.8018 40.3346 34.8506 40.0547C34.9027 39.7747 34.9824 39.5273 35.0898 39.3125C35.1973 39.0944 35.334 38.9251 35.5 38.8047C35.6693 38.681 35.8711 38.6191 36.1055 38.6191C36.1576 38.6191 36.221 38.6273 36.2959 38.6436C36.374 38.6566 36.4245 38.6712 36.4473 38.6875ZM39.9873 42.7793V38.7168H40.8516V44H40.0312L39.9873 42.7793ZM40.1484 41.666L40.4902 41.6562C40.4902 42.0078 40.4593 42.3333 40.3975 42.6328C40.3389 42.929 40.2412 43.1862 40.1045 43.4043C39.971 43.6224 39.7936 43.7933 39.5723 43.917C39.3509 44.0374 39.0791 44.0977 38.7568 44.0977C38.5387 44.0977 38.3402 44.0602 38.1611 43.9854C37.9854 43.9105 37.8324 43.7949 37.7021 43.6387C37.5752 43.4824 37.4759 43.279 37.4043 43.0283C37.3359 42.7777 37.3018 42.4766 37.3018 42.125V38.7168H38.1611V42.1348C38.1611 42.3724 38.1823 42.5693 38.2246 42.7256C38.2669 42.8786 38.3239 43.0007 38.3955 43.0918C38.4671 43.1797 38.5469 43.2415 38.6348 43.2773C38.7227 43.3132 38.8122 43.3311 38.9033 43.3311C39.2093 43.3311 39.4535 43.2578 39.6357 43.1113C39.818 42.9616 39.9482 42.7614 40.0264 42.5107C40.1077 42.2568 40.1484 41.9753 40.1484 41.666ZM43.0781 36.5V44H42.2188V36.5H43.0781ZM49.5088 42.9746V36.5H50.3682V44H49.582L49.5088 42.9746ZM46.5547 41.6123V41.1191C46.5547 40.6829 46.597 40.3086 46.6816 39.9961C46.7663 39.6803 46.8867 39.4215 47.043 39.2197C47.1992 39.0146 47.3864 38.8633 47.6045 38.7656C47.8226 38.668 48.0635 38.6191 48.3271 38.6191C48.6006 38.6191 48.835 38.6745 49.0303 38.7852C49.2288 38.8958 49.3949 39.057 49.5283 39.2686C49.6618 39.4769 49.766 39.7308 49.8408 40.0303C49.9189 40.3265 49.971 40.6618 49.9971 41.0361V41.6953C49.9678 42.0664 49.9141 42.4001 49.8359 42.6963C49.7611 42.9925 49.6569 43.2448 49.5234 43.4531C49.39 43.6615 49.224 43.821 49.0254 43.9316C48.8268 44.0423 48.5908 44.0977 48.3174 44.0977C48.057 44.0977 47.8193 44.0472 47.6045 43.9463C47.3896 43.8421 47.2025 43.6875 47.043 43.4824C46.8867 43.2741 46.7663 43.0153 46.6816 42.7061C46.597 42.3936 46.5547 42.029 46.5547 41.6123ZM47.4189 41.1191V41.6123C47.4189 41.9053 47.4401 42.1608 47.4824 42.3789C47.5247 42.5937 47.5915 42.7728 47.6826 42.916C47.7738 43.056 47.8893 43.1602 48.0293 43.2285C48.1725 43.2969 48.3434 43.3311 48.542 43.3311C48.7829 43.3311 48.9798 43.2725 49.1328 43.1553C49.2858 43.0381 49.4079 42.8835 49.499 42.6914C49.5934 42.4961 49.6683 42.2861 49.7236 42.0615V40.6748C49.6911 40.5088 49.6439 40.3493 49.582 40.1963C49.5202 40.04 49.4421 39.9017 49.3477 39.7812C49.2565 39.6576 49.1442 39.5599 49.0107 39.4883C48.8805 39.4167 48.7275 39.3809 48.5518 39.3809C48.3532 39.3809 48.1807 39.4167 48.0342 39.4883C47.891 39.5599 47.7738 39.6673 47.6826 39.8105C47.5947 39.9538 47.528 40.1344 47.4824 40.3525C47.4401 40.5706 47.4189 40.8262 47.4189 41.1191ZM53.5908 44.0977C53.2751 44.0977 52.9902 44.0505 52.7363 43.9561C52.4824 43.8617 52.266 43.7184 52.0869 43.5264C51.9079 43.3311 51.7712 43.0853 51.6768 42.7891C51.5824 42.4928 51.5352 42.1429 51.5352 41.7393V41.1436C51.5352 40.6781 51.5889 40.2842 51.6963 39.9619C51.807 39.6396 51.9551 39.3809 52.1406 39.1855C52.3262 38.987 52.5361 38.8437 52.7705 38.7559C53.0049 38.6647 53.2458 38.6191 53.4932 38.6191C53.8252 38.6191 54.1084 38.6729 54.3428 38.7803C54.5771 38.8877 54.7676 39.0472 54.9141 39.2588C55.0605 39.4704 55.168 39.7308 55.2363 40.04C55.3079 40.3493 55.3438 40.7057 55.3438 41.1094V41.6123H52.043V40.875H54.4795V40.7529C54.4665 40.4795 54.429 40.2386 54.3672 40.0303C54.3086 39.8219 54.2109 39.6592 54.0742 39.542C53.9375 39.4215 53.7438 39.3613 53.4932 39.3613C53.3337 39.3613 53.1855 39.389 53.0488 39.4443C52.9154 39.4964 52.7998 39.5892 52.7021 39.7227C52.6077 39.8529 52.5329 40.0335 52.4775 40.2646C52.4255 40.4958 52.3994 40.7887 52.3994 41.1436V41.7393C52.3994 42.0225 52.4255 42.2666 52.4775 42.4717C52.5329 42.6735 52.6126 42.8411 52.7168 42.9746C52.8242 43.1048 52.9544 43.2025 53.1074 43.2676C53.2637 43.3294 53.4411 43.3604 53.6396 43.3604C53.9294 43.3604 54.1686 43.305 54.3574 43.1943C54.5462 43.0804 54.7106 42.9355 54.8506 42.7598L55.3047 43.3018C55.2103 43.4352 55.0866 43.5638 54.9336 43.6875C54.7839 43.8079 54.5983 43.9072 54.377 43.9854C54.1589 44.0602 53.8968 44.0977 53.5908 44.0977ZM8.58105 49.7168L8.58105 55H7.7168L7.7168 49.7168H8.58105ZM8.4248 47.5098L9.4502 48.8428V48.8916H8.75195L8.16602 48.0664L7.58496 48.8916H6.8916V48.8379L7.90723 47.5098H8.4248ZM10.8662 50.8447L10.8662 55H10.002L10.002 49.7168H10.8174L10.8662 50.8447ZM10.6563 52.1582L10.3047 52.1436C10.3014 51.7822 10.3421 51.4486 10.4268 51.1426C10.5146 50.8333 10.6383 50.5648 10.7979 50.3369C10.9606 50.109 11.1543 49.9333 11.3789 49.8096C11.6035 49.6826 11.8525 49.6191 12.126 49.6191C12.3408 49.6191 12.5361 49.6549 12.7119 49.7266C12.8877 49.7949 13.0374 49.9056 13.1611 50.0586C13.2848 50.2116 13.3792 50.4102 13.4443 50.6543C13.5127 50.8952 13.5469 51.1898 13.5469 51.5381L13.5469 55H12.6826L12.6826 51.5283C12.6826 51.2516 12.6517 51.0303 12.5898 50.8643C12.5313 50.695 12.4401 50.5729 12.3164 50.498C12.196 50.4199 12.043 50.3809 11.8574 50.3809C11.6882 50.3809 11.5303 50.4281 11.3838 50.5225C11.2373 50.6169 11.1087 50.7471 10.998 50.9131C10.8906 51.0791 10.806 51.2695 10.7441 51.4844C10.6855 51.696 10.6563 51.9206 10.6563 52.1582ZM15.71 50.7666L15.71 55H14.8506L14.8506 49.7168H15.6611L15.71 50.7666ZM15.5342 52.1582L15.1338 52.1436C15.1305 51.7822 15.1663 51.4486 15.2412 51.1426C15.3161 50.8333 15.4284 50.5648 15.5781 50.3369C15.7311 50.109 15.9215 49.9333 16.1494 49.8096C16.3805 49.6826 16.6491 49.6191 16.9551 49.6191C17.1569 49.6191 17.3441 49.6549 17.5166 49.7266C17.6924 49.7949 17.8454 49.904 17.9756 50.0537C18.1058 50.2035 18.2067 50.3955 18.2783 50.6299C18.3532 50.8643 18.3906 51.1475 18.3906 51.4795V55H17.5264V51.5234C17.5264 51.2467 17.4889 51.0254 17.4141 50.8594C17.3424 50.6934 17.2399 50.5729 17.1064 50.498C16.973 50.4199 16.8135 50.3809 16.6279 50.3809C16.4163 50.3809 16.2389 50.4281 16.0957 50.5225C15.9557 50.6169 15.8434 50.7471 15.7588 50.9131C15.6774 51.0791 15.6188 51.2695 15.583 51.4844C15.5505 51.696 15.5342 51.9206 15.5342 52.1582ZM18.3809 51.6602L17.8047 51.8457C17.8014 51.556 17.8372 51.2777 17.9121 51.0107C17.987 50.7438 18.0977 50.5062 18.2441 50.2979C18.3939 50.0895 18.5794 49.9251 18.8008 49.8047C19.0221 49.681 19.2793 49.6191 19.5723 49.6191C19.8132 49.6191 20.0264 49.6566 20.2119 49.7314C20.3975 49.8063 20.5537 49.9219 20.6807 50.0781C20.8109 50.2311 20.9085 50.4281 20.9736 50.6689C21.0387 50.9098 21.0713 51.1963 21.0713 51.5283V55H20.207V51.5186C20.207 51.2223 20.1696 50.9928 20.0947 50.8301C20.0231 50.6641 19.9206 50.5485 19.7871 50.4834C19.6536 50.415 19.4941 50.3809 19.3086 50.3809C19.1589 50.3809 19.0254 50.415 18.9082 50.4834C18.7943 50.5518 18.6982 50.6462 18.6201 50.7666C18.542 50.8838 18.4818 51.0189 18.4395 51.1719C18.4004 51.3249 18.3809 51.4876 18.3809 51.6602ZM24.9629 54.0967V51.2305C24.9629 51.0221 24.9303 50.8545 24.8652 50.7275C24.8034 50.6006 24.709 50.5078 24.582 50.4492C24.4583 50.3906 24.3021 50.3613 24.1133 50.3613C23.931 50.3613 23.7731 50.3988 23.6396 50.4736C23.5094 50.5485 23.4085 50.6478 23.3369 50.7715C23.2686 50.8952 23.2344 51.0319 23.2344 51.1816H22.3701C22.3701 50.9928 22.4108 50.8057 22.4922 50.6201C22.5768 50.4346 22.6973 50.2669 22.8535 50.1172C23.0098 49.9642 23.1969 49.8438 23.415 49.7559C23.6364 49.6647 23.8838 49.6191 24.1572 49.6191C24.4827 49.6191 24.7708 49.6729 25.0215 49.7803C25.2721 49.8844 25.4691 50.0553 25.6123 50.293C25.7555 50.5306 25.8271 50.8464 25.8271 51.2402V53.8477C25.8271 54.0234 25.8402 54.2106 25.8662 54.4092C25.8955 54.6077 25.9362 54.7786 25.9883 54.9219V55H25.0947C25.0524 54.8958 25.0199 54.7575 24.9971 54.585C24.9743 54.4092 24.9629 54.2464 24.9629 54.0967ZM25.0996 51.7969L25.1094 52.4316H24.5088C24.3037 52.4316 24.1165 52.4544 23.9473 52.5C23.7813 52.5456 23.638 52.6123 23.5176 52.7002C23.3971 52.7848 23.3044 52.8906 23.2393 53.0176C23.1774 53.1445 23.1465 53.2894 23.1465 53.4521C23.1465 53.6637 23.1758 53.833 23.2344 53.96C23.293 54.0837 23.3809 54.1732 23.498 54.2285C23.6152 54.2839 23.7633 54.3115 23.9424 54.3115C24.1605 54.3115 24.3525 54.2611 24.5186 54.1602C24.6846 54.0592 24.8132 53.9372 24.9043 53.7939C24.9987 53.6507 25.0426 53.5173 25.0361 53.3936L25.2266 53.7988C25.2135 53.9258 25.1712 54.0641 25.0996 54.2139C25.0313 54.3604 24.9352 54.502 24.8115 54.6387C24.6878 54.7721 24.5413 54.8828 24.3721 54.9707C24.2061 55.0553 24.0189 55.0977 23.8105 55.0977C23.5046 55.0977 23.236 55.0391 23.0049 54.9219C22.777 54.8047 22.5996 54.6322 22.4727 54.4043C22.3457 54.1764 22.2822 53.8949 22.2822 53.5596C22.2822 53.3057 22.3262 53.0713 22.4141 52.8564C22.502 52.6416 22.6322 52.4561 22.8047 52.2998C22.9772 52.1403 23.1937 52.0166 23.4541 51.9287C23.7178 51.8408 24.0221 51.7969 24.3672 51.7969H25.0996ZM29.0986 49.7168V50.4102L26.6328 50.4102V49.7168L29.0986 49.7168ZM27.4385 48.4326L28.3027 48.4326V53.6914C28.3027 53.8704 28.3239 54.0055 28.3662 54.0967C28.4118 54.1878 28.4688 54.248 28.5371 54.2773C28.6055 54.3066 28.6787 54.3213 28.7568 54.3213C28.8154 54.3213 28.8805 54.3148 28.9521 54.3018C29.0238 54.2855 29.0726 54.2725 29.0986 54.2627L29.0938 55C29.0352 55.0228 28.957 55.0439 28.8594 55.0635C28.7617 55.0863 28.638 55.0977 28.4883 55.0977C28.3027 55.0977 28.1302 55.0537 27.9707 54.9658C27.8112 54.8779 27.6826 54.7314 27.585 54.5264C27.4873 54.318 27.4385 54.0381 27.4385 53.6865V48.4326ZM30.9932 50.5469V55H30.1289V49.7168H30.9639L30.9932 50.5469ZM32.3066 49.6875L32.3115 50.5273C32.2399 50.5111 32.1748 50.5013 32.1162 50.498C32.0609 50.4915 31.9958 50.4883 31.9209 50.4883C31.7581 50.4883 31.6149 50.5208 31.4912 50.5859C31.3708 50.651 31.2666 50.7422 31.1787 50.8594C31.0908 50.9766 31.0208 51.1165 30.9688 51.2793C30.9167 51.4388 30.8809 51.6146 30.8613 51.8066L30.6367 51.9531C30.6367 51.6341 30.6611 51.3346 30.71 51.0547C30.762 50.7747 30.8418 50.5273 30.9492 50.3125C31.0566 50.0944 31.1934 49.9251 31.3594 49.8047C31.5286 49.681 31.7305 49.6191 31.9648 49.6191C32.0169 49.6191 32.0804 49.6273 32.1553 49.6436C32.2334 49.6566 32.2839 49.6712 32.3066 49.6875ZM34.1035 49.7168V55H33.2441V49.7168H34.1035ZM33.1953 48.3154C33.1953 48.1689 33.236 48.0452 33.3174 47.9443C33.3988 47.8434 33.5208 47.793 33.6836 47.793C33.8464 47.793 33.9684 47.8434 34.0498 47.9443C34.1344 48.0452 34.1768 48.1689 34.1768 48.3154C34.1768 48.4554 34.1344 48.5758 34.0498 48.6768C33.9684 48.7744 33.8464 48.8232 33.6836 48.8232C33.5208 48.8232 33.3988 48.7744 33.3174 48.6768C33.236 48.5758 33.1953 48.4554 33.1953 48.3154ZM37.3018 54.3604C37.4743 54.3604 37.6305 54.3262 37.7705 54.2578C37.9137 54.1862 38.0309 54.0755 38.1221 53.9258C38.2132 53.7728 38.2653 53.5742 38.2783 53.3301H39.0889C39.0758 53.6816 38.9863 53.9909 38.8203 54.2578C38.6576 54.5215 38.4427 54.7282 38.1758 54.8779C37.9121 55.0244 37.6208 55.0977 37.3018 55.0977C36.96 55.0977 36.6621 55.0423 36.4082 54.9316C36.1576 54.821 35.9492 54.6615 35.7832 54.4531C35.6204 54.2415 35.4984 53.986 35.417 53.6865C35.3356 53.3838 35.2949 53.0404 35.2949 52.6562V52.0605C35.2949 51.6764 35.3356 51.3346 35.417 51.0352C35.4984 50.7324 35.6204 50.4769 35.7832 50.2686C35.9492 50.057 36.1576 49.8958 36.4082 49.7852C36.6621 49.6745 36.96 49.6191 37.3018 49.6191C37.6598 49.6191 37.9691 49.6956 38.2295 49.8486C38.4932 49.9984 38.6982 50.2165 38.8447 50.5029C38.9945 50.7861 39.0758 51.1296 39.0889 51.5332H38.2783C38.2653 51.2728 38.2181 51.0563 38.1367 50.8838C38.0553 50.708 37.9447 50.5778 37.8047 50.4932C37.6647 50.4053 37.4971 50.3613 37.3018 50.3613C37.0739 50.3613 36.8851 50.402 36.7354 50.4834C36.5889 50.5615 36.4733 50.6755 36.3887 50.8252C36.304 50.9749 36.2438 51.154 36.208 51.3623C36.1755 51.5706 36.1592 51.8034 36.1592 52.0605V52.6562C36.1592 52.9134 36.1755 53.1478 36.208 53.3594C36.2438 53.5677 36.3024 53.7467 36.3838 53.8965C36.4684 54.0462 36.5856 54.1618 36.7354 54.2432C36.8851 54.3213 37.0739 54.3604 37.3018 54.3604ZM42.7607 53.7793V49.7168H43.625V55H42.8047L42.7607 53.7793ZM42.9219 52.666L43.2637 52.6562C43.2637 53.0078 43.2327 53.3333 43.1709 53.6328C43.1123 53.929 43.0146 54.1862 42.8779 54.4043C42.7445 54.6224 42.5671 54.7933 42.3457 54.917C42.1243 55.0374 41.8525 55.0977 41.5303 55.0977C41.3122 55.0977 41.1136 55.0602 40.9346 54.9854C40.7588 54.9105 40.6058 54.7949 40.4756 54.6387C40.3486 54.4824 40.2493 54.279 40.1777 54.0283C40.1094 53.7777 40.0752 53.4766 40.0752 53.125V49.7168H40.9346V53.1348C40.9346 53.3724 40.9557 53.5693 40.998 53.7256C41.0404 53.8786 41.0973 54.0007 41.1689 54.0918C41.2406 54.1797 41.3203 54.2415 41.4082 54.2773C41.4961 54.3132 41.5856 54.3311 41.6768 54.3311C41.9827 54.3311 42.2269 54.2578 42.4092 54.1113C42.5915 53.9616 42.7217 53.7614 42.7998 53.5107C42.8812 53.2568 42.9219 52.9753 42.9219 52.666ZM45.8516 47.5V55H44.9922V47.5H45.8516ZM49.8066 54.0967V51.2305C49.8066 51.0221 49.7741 50.8545 49.709 50.7275C49.6471 50.6006 49.5527 50.5078 49.4258 50.4492C49.3021 50.3906 49.1458 50.3613 48.957 50.3613C48.7747 50.3613 48.6169 50.3988 48.4834 50.4736C48.3532 50.5485 48.2523 50.6478 48.1807 50.7715C48.1123 50.8952 48.0781 51.0319 48.0781 51.1816H47.2139C47.2139 50.9928 47.2546 50.8057 47.3359 50.6201C47.4206 50.4346 47.541 50.2669 47.6973 50.1172C47.8535 49.9642 48.0407 49.8437 48.2588 49.7559C48.4801 49.6647 48.7275 49.6191 49.001 49.6191C49.3265 49.6191 49.6146 49.6729 49.8652 49.7803C50.1159 49.8844 50.3128 50.0553 50.4561 50.293C50.5993 50.5306 50.6709 50.8464 50.6709 51.2402V53.8477C50.6709 54.0234 50.6839 54.2106 50.71 54.4092C50.7393 54.6077 50.7799 54.7786 50.832 54.9219V55H49.9385C49.8962 54.8958 49.8636 54.7575 49.8408 54.585C49.818 54.4092 49.8066 54.2464 49.8066 54.0967ZM49.9434 51.7969L49.9531 52.4316H49.3525C49.1475 52.4316 48.9603 52.4544 48.791 52.5C48.625 52.5456 48.4818 52.6123 48.3613 52.7002C48.2409 52.7848 48.1481 52.8906 48.083 53.0176C48.0212 53.1445 47.9902 53.2894 47.9902 53.4521C47.9902 53.6637 48.0195 53.833 48.0781 53.96C48.1367 54.0837 48.2246 54.1732 48.3418 54.2285C48.459 54.2839 48.6071 54.3115 48.7861 54.3115C49.0042 54.3115 49.1963 54.2611 49.3623 54.1602C49.5283 54.0592 49.6569 53.9372 49.748 53.7939C49.8424 53.6507 49.8864 53.5173 49.8799 53.3936L50.0703 53.7988C50.0573 53.9258 50.015 54.0641 49.9434 54.2139C49.875 54.3604 49.779 54.502 49.6553 54.6387C49.5316 54.7721 49.3851 54.8828 49.2158 54.9707C49.0498 55.0553 48.8626 55.0977 48.6543 55.0977C48.3483 55.0977 48.0798 55.0391 47.8486 54.9219C47.6208 54.8047 47.4434 54.6322 47.3164 54.4043C47.1895 54.1764 47.126 53.8949 47.126 53.5596C47.126 53.3057 47.1699 53.0713 47.2578 52.8564C47.3457 52.6416 47.4759 52.4561 47.6484 52.2998C47.821 52.1403 48.0374 52.0166 48.2979 51.9287C48.5615 51.8408 48.8659 51.7969 49.2109 51.7969H49.9434ZM52.8779 50.5469V55H52.0137V49.7168H52.8486L52.8779 50.5469ZM54.1914 49.6875L54.1963 50.5273C54.1247 50.5111 54.0596 50.5013 54.001 50.498C53.9456 50.4915 53.8805 50.4883 53.8057 50.4883C53.6429 50.4883 53.4997 50.5208 53.376 50.5859C53.2555 50.651 53.1514 50.7422 53.0635 50.8594C52.9756 50.9766 52.9056 51.1165 52.8535 51.2793C52.8014 51.4388 52.7656 51.6146 52.7461 51.8066L52.5215 51.9531C52.5215 51.6341 52.5459 51.3346 52.5947 51.0547C52.6468 50.7747 52.7266 50.5273 52.834 50.3125C52.9414 50.0944 53.0781 49.9251 53.2441 49.8047C53.4134 49.681 53.6152 49.6191 53.8496 49.6191C53.9017 49.6191 53.9652 49.6273 54.04 49.6436C54.1182 49.6566 54.1686 49.6712 54.1914 49.6875ZM56.8525 55.0977C56.5368 55.0977 56.252 55.0505 55.998 54.9561C55.7441 54.8617 55.5277 54.7184 55.3486 54.5264C55.1696 54.3311 55.0329 54.0853 54.9385 53.7891C54.8441 53.4928 54.7969 53.1429 54.7969 52.7393V52.1436C54.7969 51.6781 54.8506 51.2842 54.958 50.9619C55.0687 50.6396 55.2168 50.3809 55.4023 50.1855C55.5879 49.987 55.7979 49.8437 56.0322 49.7559C56.2666 49.6647 56.5075 49.6191 56.7549 49.6191C57.0869 49.6191 57.3701 49.6729 57.6045 49.7803C57.8389 49.8877 58.0293 50.0472 58.1758 50.2588C58.3223 50.4704 58.4297 50.7308 58.498 51.04C58.5697 51.3493 58.6055 51.7057 58.6055 52.1094V52.6123H55.3047V51.875H57.7412V51.7529C57.7282 51.4795 57.6908 51.2386 57.6289 51.0303C57.5703 50.8219 57.4727 50.6592 57.3359 50.542C57.1992 50.4215 57.0055 50.3613 56.7549 50.3613C56.5954 50.3613 56.4473 50.389 56.3105 50.4443C56.1771 50.4964 56.0615 50.5892 55.9639 50.7227C55.8695 50.8529 55.7946 51.0335 55.7393 51.2646C55.6872 51.4958 55.6611 51.7887 55.6611 52.1436V52.7393C55.6611 53.0225 55.6872 53.2666 55.7393 53.4717C55.7946 53.6735 55.8743 53.8411 55.9785 53.9746C56.0859 54.1048 56.2161 54.2025 56.3691 54.2676C56.5254 54.3294 56.7028 54.3604 56.9014 54.3604C57.1911 54.3604 57.4303 54.305 57.6191 54.1943C57.8079 54.0804 57.9723 53.9355 58.1123 53.7598L58.5664 54.3018C58.472 54.4352 58.3483 54.5638 58.1953 54.6875C58.0456 54.8079 57.86 54.9072 57.6387 54.9854C57.4206 55.0602 57.1585 55.0977 56.8525 55.0977Z" fill="url(#paint0_linear_363_2905)"/>
<path d="M107.096 40.8906V48H106.197V40.8906H107.096ZM109.493 44.0889V44.8604H106.925V44.0889H109.493ZM109.898 40.8906V41.6621H106.925V40.8906H109.898ZM113.316 47.0967V44.2305C113.316 44.0221 113.284 43.8545 113.219 43.7275C113.157 43.6006 113.062 43.5078 112.936 43.4492C112.812 43.3906 112.656 43.3613 112.467 43.3613C112.285 43.3613 112.127 43.3988 111.993 43.4736C111.863 43.5485 111.762 43.6478 111.69 43.7715C111.622 43.8952 111.588 44.0319 111.588 44.1816H110.724C110.724 43.9928 110.764 43.8057 110.846 43.6201C110.93 43.4346 111.051 43.2669 111.207 43.1172C111.363 42.9642 111.55 42.8438 111.769 42.7559C111.99 42.6647 112.237 42.6191 112.511 42.6191C112.836 42.6191 113.124 42.6729 113.375 42.7803C113.626 42.8844 113.823 43.0553 113.966 43.293C114.109 43.5306 114.181 43.8464 114.181 44.2402V46.8477C114.181 47.0234 114.194 47.2106 114.22 47.4092C114.249 47.6077 114.29 47.7786 114.342 47.9219V48H113.448C113.406 47.8958 113.373 47.7575 113.351 47.585C113.328 47.4092 113.316 47.2464 113.316 47.0967ZM113.453 44.7969L113.463 45.4316H112.862C112.657 45.4316 112.47 45.4544 112.301 45.5C112.135 45.5456 111.992 45.6123 111.871 45.7002C111.751 45.7848 111.658 45.8906 111.593 46.0176C111.531 46.1445 111.5 46.2894 111.5 46.4521C111.5 46.6637 111.529 46.833 111.588 46.96C111.646 47.0837 111.734 47.1732 111.852 47.2285C111.969 47.2839 112.117 47.3115 112.296 47.3115C112.514 47.3115 112.706 47.2611 112.872 47.1602C113.038 47.0592 113.167 46.9372 113.258 46.7939C113.352 46.6507 113.396 46.5173 113.39 46.3936L113.58 46.7988C113.567 46.9258 113.525 47.0641 113.453 47.2139C113.385 47.3604 113.289 47.502 113.165 47.6387C113.041 47.7721 112.895 47.8828 112.726 47.9707C112.56 48.0553 112.372 48.0977 112.164 48.0977C111.858 48.0977 111.59 48.0391 111.358 47.9219C111.131 47.8047 110.953 47.6322 110.826 47.4043C110.699 47.1764 110.636 46.8949 110.636 46.5596C110.636 46.3057 110.68 46.0713 110.768 45.8564C110.855 45.6416 110.986 45.4561 111.158 45.2998C111.331 45.1403 111.547 45.0166 111.808 44.9287C112.071 44.8408 112.376 44.7969 112.721 44.7969H113.453ZM117.354 47.3604C117.527 47.3604 117.683 47.3262 117.823 47.2578C117.966 47.1862 118.084 47.0755 118.175 46.9258C118.266 46.7728 118.318 46.5742 118.331 46.3301H119.142C119.129 46.6816 119.039 46.9909 118.873 47.2578C118.71 47.5215 118.495 47.7282 118.229 47.8779C117.965 48.0244 117.674 48.0977 117.354 48.0977C117.013 48.0977 116.715 48.0423 116.461 47.9316C116.21 47.821 116.002 47.6615 115.836 47.4531C115.673 47.2415 115.551 46.986 115.47 46.6865C115.388 46.3838 115.348 46.0404 115.348 45.6562V45.0605C115.348 44.6764 115.388 44.3346 115.47 44.0352C115.551 43.7324 115.673 43.4769 115.836 43.2686C116.002 43.057 116.21 42.8958 116.461 42.7852C116.715 42.6745 117.013 42.6191 117.354 42.6191C117.713 42.6191 118.022 42.6956 118.282 42.8486C118.546 42.9984 118.751 43.2165 118.897 43.5029C119.047 43.7861 119.129 44.1296 119.142 44.5332H118.331C118.318 44.2728 118.271 44.0563 118.189 43.8838C118.108 43.708 117.997 43.5778 117.857 43.4932C117.717 43.4053 117.55 43.3613 117.354 43.3613C117.127 43.3613 116.938 43.402 116.788 43.4834C116.642 43.5615 116.526 43.6755 116.441 43.8252C116.357 43.9749 116.297 44.154 116.261 44.3623C116.228 44.5706 116.212 44.8034 116.212 45.0605V45.6562C116.212 45.9134 116.228 46.1478 116.261 46.3594C116.297 46.5677 116.355 46.7467 116.437 46.8965C116.521 47.0462 116.638 47.1618 116.788 47.2432C116.938 47.3213 117.127 47.3604 117.354 47.3604ZM122.071 42.7168V43.4102H119.605V42.7168H122.071ZM120.411 41.4326H121.275V46.6914C121.275 46.8704 121.297 47.0055 121.339 47.0967C121.384 47.1878 121.441 47.248 121.51 47.2773C121.578 47.3066 121.651 47.3213 121.729 47.3213C121.788 47.3213 121.853 47.3148 121.925 47.3018C121.996 47.2855 122.045 47.2725 122.071 47.2627L122.066 48C122.008 48.0228 121.93 48.0439 121.832 48.0635C121.734 48.0863 121.611 48.0977 121.461 48.0977C121.275 48.0977 121.103 48.0537 120.943 47.9658C120.784 47.8779 120.655 47.7314 120.558 47.5264C120.46 47.318 120.411 47.0381 120.411 46.6865V41.4326ZM125.772 46.7793V42.7168H126.637V48H125.816L125.772 46.7793ZM125.934 45.666L126.275 45.6562C126.275 46.0078 126.244 46.3333 126.183 46.6328C126.124 46.929 126.026 47.1862 125.89 47.4043C125.756 47.6224 125.579 47.7933 125.357 47.917C125.136 48.0374 124.864 48.0977 124.542 48.0977C124.324 48.0977 124.125 48.0602 123.946 47.9854C123.771 47.9105 123.618 47.7949 123.487 47.6387C123.36 47.4824 123.261 47.279 123.189 47.0283C123.121 46.7777 123.087 46.4766 123.087 46.125V42.7168H123.946V46.1348C123.946 46.3724 123.967 46.5693 124.01 46.7256C124.052 46.8786 124.109 47.0007 124.181 47.0918C124.252 47.1797 124.332 47.2415 124.42 47.2773C124.508 47.3132 124.597 47.3311 124.688 47.3311C124.994 47.3311 125.239 47.2578 125.421 47.1113C125.603 46.9616 125.733 46.7614 125.812 46.5107C125.893 46.2568 125.934 45.9753 125.934 45.666ZM128.8 43.5469V48H127.936V42.7168H128.771L128.8 43.5469ZM130.113 42.6875L130.118 43.5273C130.047 43.5111 129.981 43.5013 129.923 43.498C129.868 43.4915 129.802 43.4883 129.728 43.4883C129.565 43.4883 129.422 43.5208 129.298 43.5859C129.177 43.651 129.073 43.7422 128.985 43.8594C128.897 43.9766 128.827 44.1165 128.775 44.2793C128.723 44.4388 128.688 44.6146 128.668 44.8066L128.443 44.9531C128.443 44.6341 128.468 44.3346 128.517 44.0547C128.569 43.7747 128.648 43.5273 128.756 43.3125C128.863 43.0944 129 42.9251 129.166 42.8047C129.335 42.681 129.537 42.6191 129.771 42.6191C129.824 42.6191 129.887 42.6273 129.962 42.6436C130.04 42.6566 130.09 42.6712 130.113 42.6875ZM133.375 47.0967V44.2305C133.375 44.0221 133.342 43.8545 133.277 43.7275C133.215 43.6006 133.121 43.5078 132.994 43.4492C132.87 43.3906 132.714 43.3613 132.525 43.3613C132.343 43.3613 132.185 43.3988 132.052 43.4736C131.922 43.5485 131.821 43.6478 131.749 43.7715C131.681 43.8952 131.646 44.0319 131.646 44.1816H130.782C130.782 43.9928 130.823 43.8057 130.904 43.6201C130.989 43.4346 131.109 43.2669 131.266 43.1172C131.422 42.9642 131.609 42.8437 131.827 42.7559C132.049 42.6647 132.296 42.6191 132.569 42.6191C132.895 42.6191 133.183 42.6729 133.434 42.7803C133.684 42.8844 133.881 43.0553 134.024 43.293C134.168 43.5306 134.239 43.8464 134.239 44.2402V46.8477C134.239 47.0234 134.252 47.2106 134.278 47.4092C134.308 47.6077 134.348 47.7786 134.4 47.9219V48H133.507C133.465 47.8958 133.432 47.7575 133.409 47.585C133.386 47.4092 133.375 47.2464 133.375 47.0967ZM133.512 44.7969L133.521 45.4316H132.921C132.716 45.4316 132.529 45.4544 132.359 45.5C132.193 45.5456 132.05 45.6123 131.93 45.7002C131.809 45.7848 131.716 45.8906 131.651 46.0176C131.59 46.1445 131.559 46.2894 131.559 46.4521C131.559 46.6637 131.588 46.833 131.646 46.96C131.705 47.0837 131.793 47.1732 131.91 47.2285C132.027 47.2839 132.175 47.3115 132.354 47.3115C132.573 47.3115 132.765 47.2611 132.931 47.1602C133.097 47.0592 133.225 46.9372 133.316 46.7939C133.411 46.6507 133.455 46.5173 133.448 46.3936L133.639 46.7988C133.626 46.9258 133.583 47.0641 133.512 47.2139C133.443 47.3604 133.347 47.502 133.224 47.6387C133.1 47.7721 132.953 47.8828 132.784 47.9707C132.618 48.0553 132.431 48.0977 132.223 48.0977C131.917 48.0977 131.648 48.0391 131.417 47.9219C131.189 47.8047 131.012 47.6322 130.885 47.4043C130.758 47.1764 130.694 46.8949 130.694 46.5596C130.694 46.3057 130.738 46.0713 130.826 45.8564C130.914 45.6416 131.044 45.4561 131.217 45.2998C131.389 45.1403 131.606 45.0166 131.866 44.9287C132.13 44.8408 132.434 44.7969 132.779 44.7969H133.512ZM136.446 43.5469V48H135.582V42.7168H136.417L136.446 43.5469ZM137.76 42.6875L137.765 43.5273C137.693 43.5111 137.628 43.5013 137.569 43.498C137.514 43.4915 137.449 43.4883 137.374 43.4883C137.211 43.4883 137.068 43.5208 136.944 43.5859C136.824 43.651 136.72 43.7422 136.632 43.8594C136.544 43.9766 136.474 44.1165 136.422 44.2793C136.37 44.4388 136.334 44.6146 136.314 44.8066L136.09 44.9531C136.09 44.6341 136.114 44.3346 136.163 44.0547C136.215 43.7747 136.295 43.5273 136.402 43.3125C136.51 43.0944 136.646 42.9251 136.812 42.8047C136.982 42.681 137.184 42.6191 137.418 42.6191C137.47 42.6191 137.534 42.6273 137.608 42.6436C137.687 42.6566 137.737 42.6712 137.76 42.6875ZM140.421 48.0977C140.105 48.0977 139.82 48.0505 139.566 47.9561C139.312 47.8617 139.096 47.7184 138.917 47.5264C138.738 47.3311 138.601 47.0853 138.507 46.7891C138.412 46.4928 138.365 46.1429 138.365 45.7393V45.1436C138.365 44.6781 138.419 44.2842 138.526 43.9619C138.637 43.6396 138.785 43.3809 138.971 43.1855C139.156 42.987 139.366 42.8437 139.601 42.7559C139.835 42.6647 140.076 42.6191 140.323 42.6191C140.655 42.6191 140.938 42.6729 141.173 42.7803C141.407 42.8877 141.598 43.0472 141.744 43.2588C141.891 43.4704 141.998 43.7308 142.066 44.04C142.138 44.3493 142.174 44.7057 142.174 45.1094V45.6123H138.873V44.875H141.31V44.7529C141.297 44.4795 141.259 44.2386 141.197 44.0303C141.139 43.8219 141.041 43.6592 140.904 43.542C140.768 43.4215 140.574 43.3613 140.323 43.3613C140.164 43.3613 140.016 43.389 139.879 43.4443C139.745 43.4964 139.63 43.5892 139.532 43.7227C139.438 43.8529 139.363 44.0335 139.308 44.2646C139.256 44.4958 139.229 44.7887 139.229 45.1436V45.7393C139.229 46.0225 139.256 46.2666 139.308 46.4717C139.363 46.6735 139.443 46.8411 139.547 46.9746C139.654 47.1048 139.785 47.2025 139.938 47.2676C140.094 47.3294 140.271 47.3604 140.47 47.3604C140.759 47.3604 140.999 47.305 141.188 47.1943C141.376 47.0804 141.541 46.9355 141.681 46.7598L142.135 47.3018C142.04 47.4352 141.917 47.5638 141.764 47.6875C141.614 47.8079 141.428 47.9072 141.207 47.9854C140.989 48.0602 140.727 48.0977 140.421 48.0977Z" fill="url(#paint1_linear_363_2905)"/>
<path d="M193.958 42.9209L195.667 36.8906H196.644L194.437 44H193.748L193.958 42.9209ZM192.425 36.8906L194.119 42.9209L194.344 44H193.655L191.448 36.8906H192.425ZM199.168 44.0977C198.852 44.0977 198.567 44.0505 198.313 43.9561C198.06 43.8617 197.843 43.7184 197.664 43.5264C197.485 43.3311 197.348 43.0853 197.254 42.7891C197.16 42.4928 197.112 42.1429 197.112 41.7393V41.1436C197.112 40.6781 197.166 40.2842 197.273 39.9619C197.384 39.6396 197.532 39.3809 197.718 39.1855C197.903 38.987 198.113 38.8438 198.348 38.7559C198.582 38.6647 198.823 38.6191 199.07 38.6191C199.402 38.6191 199.686 38.6729 199.92 38.7803C200.154 38.8877 200.345 39.0472 200.491 39.2588C200.638 39.4704 200.745 39.7308 200.813 40.04C200.885 40.3493 200.921 40.7057 200.921 41.1094V41.6123H197.62V40.875H200.057V40.7529C200.044 40.4795 200.006 40.2386 199.944 40.0303C199.886 39.8219 199.788 39.6592 199.651 39.542C199.515 39.4215 199.321 39.3613 199.07 39.3613C198.911 39.3613 198.763 39.389 198.626 39.4443C198.493 39.4964 198.377 39.5892 198.279 39.7227C198.185 39.8529 198.11 40.0335 198.055 40.2646C198.003 40.4958 197.977 40.7887 197.977 41.1436V41.7393C197.977 42.0225 198.003 42.2666 198.055 42.4717C198.11 42.6735 198.19 42.8411 198.294 42.9746C198.401 43.1048 198.532 43.2025 198.685 43.2676C198.841 43.3294 199.018 43.3604 199.217 43.3604C199.507 43.3604 199.746 43.305 199.935 43.1943C200.123 43.0804 200.288 42.9355 200.428 42.7598L200.882 43.3018C200.787 43.4352 200.664 43.5638 200.511 43.6875C200.361 43.8079 200.175 43.9072 199.954 43.9854C199.736 44.0602 199.474 44.0977 199.168 44.0977ZM202.83 39.5469V44H201.966V38.7168H202.801L202.83 39.5469ZM204.144 38.6875L204.148 39.5273C204.077 39.5111 204.012 39.5013 203.953 39.498C203.898 39.4915 203.833 39.4883 203.758 39.4883C203.595 39.4883 203.452 39.5208 203.328 39.5859C203.208 39.651 203.104 39.7422 203.016 39.8594C202.928 39.9766 202.858 40.1165 202.806 40.2793C202.754 40.4388 202.718 40.6146 202.698 40.8066L202.474 40.9531C202.474 40.6341 202.498 40.3346 202.547 40.0547C202.599 39.7747 202.679 39.5273 202.786 39.3125C202.894 39.0944 203.03 38.9251 203.196 38.8047C203.366 38.681 203.567 38.6191 203.802 38.6191C203.854 38.6191 203.917 38.6273 203.992 38.6436C204.07 38.6566 204.121 38.6712 204.144 38.6875ZM205.94 38.7168V44H205.081V38.7168H205.94ZM205.032 37.3154C205.032 37.1689 205.073 37.0452 205.154 36.9443C205.236 36.8434 205.358 36.793 205.521 36.793C205.683 36.793 205.805 36.8434 205.887 36.9443C205.971 37.0452 206.014 37.1689 206.014 37.3154C206.014 37.4554 205.971 37.5758 205.887 37.6768C205.805 37.7744 205.683 37.8232 205.521 37.8232C205.358 37.8232 205.236 37.7744 205.154 37.6768C205.073 37.5758 205.032 37.4554 205.032 37.3154ZM208.411 44H207.547V38.2578C207.547 37.8574 207.614 37.5189 207.747 37.2422C207.884 36.9655 208.077 36.7555 208.328 36.6123C208.582 36.4691 208.882 36.3975 209.227 36.3975C209.432 36.3975 209.629 36.4268 209.817 36.4854C210.006 36.5407 210.201 36.6107 210.403 36.6953L210.257 37.457C210.14 37.3984 209.996 37.3431 209.827 37.291C209.658 37.2357 209.48 37.208 209.295 37.208C208.969 37.208 208.74 37.2959 208.606 37.4717C208.476 37.6442 208.411 37.9062 208.411 38.2578V44ZM209.266 38.7168V39.4102H206.858V38.7168H209.266ZM210.818 38.7168V44H209.954V38.7168H210.818ZM214.041 43.3604C214.214 43.3604 214.37 43.3262 214.51 43.2578C214.653 43.1862 214.77 43.0755 214.861 42.9258C214.952 42.7728 215.005 42.5742 215.018 42.3301H215.828C215.815 42.6816 215.726 42.9909 215.56 43.2578C215.397 43.5215 215.182 43.7282 214.915 43.8779C214.651 44.0244 214.36 44.0977 214.041 44.0977C213.699 44.0977 213.401 44.0423 213.147 43.9316C212.897 43.821 212.688 43.6615 212.522 43.4531C212.36 43.2415 212.238 42.986 212.156 42.6865C212.075 42.3838 212.034 42.0404 212.034 41.6562V41.0605C212.034 40.6764 212.075 40.3346 212.156 40.0352C212.238 39.7324 212.36 39.4769 212.522 39.2686C212.688 39.057 212.897 38.8958 213.147 38.7852C213.401 38.6745 213.699 38.6191 214.041 38.6191C214.399 38.6191 214.708 38.6956 214.969 38.8486C215.232 38.9984 215.438 39.2165 215.584 39.5029C215.734 39.7861 215.815 40.1296 215.828 40.5332H215.018C215.005 40.2728 214.957 40.0563 214.876 39.8838C214.795 39.708 214.684 39.5778 214.544 39.4932C214.404 39.4053 214.236 39.3613 214.041 39.3613C213.813 39.3613 213.624 39.402 213.475 39.4834C213.328 39.5615 213.213 39.6755 213.128 39.8252C213.043 39.9749 212.983 40.154 212.947 40.3623C212.915 40.5706 212.898 40.8034 212.898 41.0605V41.6562C212.898 41.9134 212.915 42.1478 212.947 42.3594C212.983 42.5677 213.042 42.7467 213.123 42.8965C213.208 43.0462 213.325 43.1618 213.475 43.2432C213.624 43.3213 213.813 43.3604 214.041 43.3604ZM219.417 43.0967V40.2305C219.417 40.0221 219.384 39.8545 219.319 39.7275C219.257 39.6006 219.163 39.5078 219.036 39.4492C218.912 39.3906 218.756 39.3613 218.567 39.3613C218.385 39.3613 218.227 39.3988 218.094 39.4736C217.964 39.5485 217.863 39.6478 217.791 39.7715C217.723 39.8952 217.688 40.0319 217.688 40.1816H216.824C216.824 39.9928 216.865 39.8057 216.946 39.6201C217.031 39.4346 217.151 39.2669 217.308 39.1172C217.464 38.9642 217.651 38.8437 217.869 38.7559C218.09 38.6647 218.338 38.6191 218.611 38.6191C218.937 38.6191 219.225 38.6729 219.476 38.7803C219.726 38.8844 219.923 39.0553 220.066 39.293C220.21 39.5306 220.281 39.8464 220.281 40.2402V42.8477C220.281 43.0234 220.294 43.2106 220.32 43.4092C220.35 43.6077 220.39 43.7786 220.442 43.9219V44H219.549C219.507 43.8958 219.474 43.7575 219.451 43.585C219.428 43.4092 219.417 43.2464 219.417 43.0967ZM219.554 40.7969L219.563 41.4316H218.963C218.758 41.4316 218.571 41.4544 218.401 41.5C218.235 41.5456 218.092 41.6123 217.972 41.7002C217.851 41.7848 217.758 41.8906 217.693 42.0176C217.632 42.1445 217.601 42.2894 217.601 42.4521C217.601 42.6637 217.63 42.833 217.688 42.96C217.747 43.0837 217.835 43.1732 217.952 43.2285C218.069 43.2839 218.217 43.3115 218.396 43.3115C218.615 43.3115 218.807 43.2611 218.973 43.1602C219.139 43.0592 219.267 42.9372 219.358 42.7939C219.453 42.6507 219.497 42.5173 219.49 42.3936L219.681 42.7988C219.668 42.9258 219.625 43.0641 219.554 43.2139C219.485 43.3604 219.389 43.502 219.266 43.6387C219.142 43.7721 218.995 43.8828 218.826 43.9707C218.66 44.0553 218.473 44.0977 218.265 44.0977C217.959 44.0977 217.69 44.0391 217.459 43.9219C217.231 43.8047 217.054 43.6322 216.927 43.4043C216.8 43.1764 216.736 42.8949 216.736 42.5596C216.736 42.3057 216.78 42.0713 216.868 41.8564C216.956 41.6416 217.086 41.4561 217.259 41.2998C217.431 41.1403 217.648 41.0166 217.908 40.9287C218.172 40.8408 218.476 40.7969 218.821 40.7969H219.554ZM222.488 39.5469V44H221.624V38.7168H222.459L222.488 39.5469ZM223.802 38.6875L223.807 39.5273C223.735 39.5111 223.67 39.5013 223.611 39.498C223.556 39.4915 223.491 39.4883 223.416 39.4883C223.253 39.4883 223.11 39.5208 222.986 39.5859C222.866 39.651 222.762 39.7422 222.674 39.8594C222.586 39.9766 222.516 40.1165 222.464 40.2793C222.412 40.4388 222.376 40.6146 222.356 40.8066L222.132 40.9531C222.132 40.6341 222.156 40.3346 222.205 40.0547C222.257 39.7747 222.337 39.5273 222.444 39.3125C222.552 39.0944 222.688 38.9251 222.854 38.8047C223.024 38.681 223.226 38.6191 223.46 38.6191C223.512 38.6191 223.576 38.6273 223.65 38.6436C223.729 38.6566 223.779 38.6712 223.802 38.6875ZM226.463 44.0977C226.147 44.0977 225.862 44.0505 225.608 43.9561C225.354 43.8617 225.138 43.7184 224.959 43.5264C224.78 43.3311 224.643 43.0853 224.549 42.7891C224.454 42.4928 224.407 42.1429 224.407 41.7393V41.1436C224.407 40.6781 224.461 40.2842 224.568 39.9619C224.679 39.6396 224.827 39.3809 225.013 39.1855C225.198 38.987 225.408 38.8437 225.643 38.7559C225.877 38.6647 226.118 38.6191 226.365 38.6191C226.697 38.6191 226.98 38.6729 227.215 38.7803C227.449 38.8877 227.64 39.0472 227.786 39.2588C227.933 39.4704 228.04 39.7308 228.108 40.04C228.18 40.3493 228.216 40.7057 228.216 41.1094V41.6123H224.915V40.875H227.352V40.7529C227.339 40.4795 227.301 40.2386 227.239 40.0303C227.181 39.8219 227.083 39.6592 226.946 39.542C226.81 39.4215 226.616 39.3613 226.365 39.3613C226.206 39.3613 226.058 39.389 225.921 39.4443C225.787 39.4964 225.672 39.5892 225.574 39.7227C225.48 39.8529 225.405 40.0335 225.35 40.2646C225.298 40.4958 225.271 40.7887 225.271 41.1436V41.7393C225.271 42.0225 225.298 42.2666 225.35 42.4717C225.405 42.6735 225.485 42.8411 225.589 42.9746C225.696 43.1048 225.826 43.2025 225.979 43.2676C226.136 43.3294 226.313 43.3604 226.512 43.3604C226.801 43.3604 227.041 43.305 227.229 43.1943C227.418 43.0804 227.583 42.9355 227.723 42.7598L228.177 43.3018C228.082 43.4352 227.959 43.5638 227.806 43.6875C227.656 43.8079 227.47 43.9072 227.249 43.9854C227.031 44.0602 226.769 44.0977 226.463 44.0977ZM234.119 42.6475C234.119 42.514 234.087 42.3968 234.021 42.2959C233.956 42.195 233.849 42.0973 233.699 42.0029C233.553 41.9085 233.354 41.8076 233.104 41.7002C232.859 41.5993 232.64 41.5 232.444 41.4023C232.252 41.3014 232.09 41.1924 231.956 41.0752C231.823 40.958 231.72 40.8229 231.648 40.6699C231.58 40.5137 231.546 40.3298 231.546 40.1182C231.546 39.9066 231.585 39.7113 231.663 39.5322C231.744 39.3499 231.858 39.1904 232.005 39.0537C232.151 38.917 232.327 38.8112 232.532 38.7363C232.737 38.6582 232.967 38.6191 233.221 38.6191C233.582 38.6191 233.89 38.6891 234.144 38.8291C234.397 38.9691 234.591 39.1611 234.725 39.4053C234.861 39.6462 234.93 39.918 234.93 40.2207H234.07C234.07 40.0742 234.038 39.9359 233.973 39.8057C233.908 39.6755 233.812 39.5697 233.685 39.4883C233.558 39.4036 233.403 39.3613 233.221 39.3613C233.029 39.3613 232.872 39.3955 232.752 39.4639C232.632 39.5322 232.544 39.6217 232.488 39.7324C232.436 39.8398 232.41 39.9587 232.41 40.0889C232.41 40.1865 232.423 40.2712 232.449 40.3428C232.479 40.4111 232.527 40.4762 232.596 40.5381C232.664 40.5967 232.757 40.6585 232.874 40.7236C232.994 40.7855 233.147 40.8571 233.333 40.9385C233.691 41.0785 233.992 41.2201 234.236 41.3633C234.48 41.5065 234.666 41.6742 234.793 41.8662C234.92 42.0583 234.983 42.2959 234.983 42.5791C234.983 42.8102 234.941 43.0202 234.856 43.209C234.775 43.3945 234.658 43.554 234.505 43.6875C234.352 43.821 234.168 43.9235 233.953 43.9951C233.742 44.0635 233.504 44.0977 233.24 44.0977C232.843 44.0977 232.506 44.0195 232.229 43.8633C231.956 43.7038 231.748 43.4971 231.604 43.2432C231.465 42.986 231.395 42.7109 231.395 42.418H232.259C232.269 42.6654 232.324 42.8574 232.425 42.9941C232.529 43.1309 232.654 43.2253 232.801 43.2773C232.947 43.3294 233.094 43.3555 233.24 43.3555C233.432 43.3555 233.593 43.3278 233.724 43.2725C233.854 43.2139 233.951 43.1309 234.017 43.0234C234.085 42.916 234.119 42.7907 234.119 42.6475ZM233.748 44.6104V44.9961C233.748 45.2533 233.696 45.5299 233.592 45.8262C233.488 46.1224 233.326 46.3698 233.108 46.5684L232.62 46.2119C232.724 46.0264 232.802 45.8359 232.854 45.6406C232.907 45.4453 232.933 45.2337 232.933 45.0059V44.6104H233.748ZM237.044 38.7168V44H236.185V38.7168H237.044ZM236.136 37.3154C236.136 37.1689 236.176 37.0452 236.258 36.9443C236.339 36.8434 236.461 36.793 236.624 36.793C236.787 36.793 236.909 36.8434 236.99 36.9443C237.075 37.0452 237.117 37.1689 237.117 37.3154C237.117 37.4554 237.075 37.5758 236.99 37.6768C236.909 37.7744 236.787 37.8232 236.624 37.8232C236.461 37.8232 236.339 37.7744 236.258 37.6768C236.176 37.5758 236.136 37.4554 236.136 37.3154ZM206.126 50.7324V57.0312H205.262V49.7168H206.048L206.126 50.7324ZM209.08 52.1191V52.6123C209.08 53.029 209.041 53.3936 208.963 53.7061C208.888 54.0153 208.776 54.2741 208.626 54.4824C208.479 54.6875 208.299 54.8421 208.084 54.9463C207.869 55.0472 207.623 55.0977 207.347 55.0977C207.07 55.0977 206.829 55.0456 206.624 54.9414C206.422 54.834 206.251 54.6794 206.111 54.4775C205.975 54.2757 205.866 54.0332 205.784 53.75C205.706 53.4635 205.652 53.1429 205.623 52.7881V52.0361C205.652 51.6618 205.706 51.3265 205.784 51.0303C205.862 50.7308 205.97 50.4769 206.106 50.2686C206.246 50.057 206.417 49.8958 206.619 49.7852C206.824 49.6745 207.063 49.6191 207.337 49.6191C207.62 49.6191 207.869 49.668 208.084 49.7656C208.302 49.8633 208.484 50.0146 208.631 50.2197C208.781 50.4215 208.893 50.6803 208.968 50.9961C209.043 51.3086 209.08 51.6829 209.08 52.1191ZM208.216 52.6123V52.1191C208.216 51.8262 208.193 51.5706 208.147 51.3525C208.105 51.1344 208.037 50.9538 207.942 50.8105C207.848 50.6673 207.729 50.5599 207.586 50.4883C207.443 50.4167 207.27 50.3809 207.068 50.3809C206.896 50.3809 206.743 50.4167 206.609 50.4883C206.479 50.5599 206.367 50.6576 206.272 50.7812C206.178 50.9017 206.1 51.04 206.038 51.1963C205.976 51.3493 205.931 51.5088 205.901 51.6748V53.1543C205.957 53.3626 206.03 53.5596 206.121 53.7451C206.212 53.9274 206.334 54.0755 206.487 54.1895C206.644 54.3034 206.84 54.3604 207.078 54.3604C207.277 54.3604 207.448 54.3245 207.591 54.2529C207.734 54.1813 207.851 54.0739 207.942 53.9307C208.037 53.7842 208.105 53.6019 208.147 53.3838C208.193 53.1624 208.216 52.9053 208.216 52.6123ZM211.121 47.5V55H210.262V47.5H211.121ZM215.076 54.0967V51.2305C215.076 51.0221 215.044 50.8545 214.979 50.7275C214.917 50.6006 214.822 50.5078 214.695 50.4492C214.572 50.3906 214.415 50.3613 214.227 50.3613C214.044 50.3613 213.886 50.3988 213.753 50.4736C213.623 50.5485 213.522 50.6478 213.45 50.7715C213.382 50.8952 213.348 51.0319 213.348 51.1816H212.483C212.483 50.9928 212.524 50.8057 212.605 50.6201C212.69 50.4346 212.811 50.2669 212.967 50.1172C213.123 49.9642 213.31 49.8438 213.528 49.7559C213.75 49.6647 213.997 49.6191 214.271 49.6191C214.596 49.6191 214.884 49.6729 215.135 49.7803C215.385 49.8844 215.582 50.0553 215.726 50.293C215.869 50.5306 215.94 50.8464 215.94 51.2402V53.8477C215.94 54.0234 215.953 54.2106 215.979 54.4092C216.009 54.6077 216.049 54.7786 216.102 54.9219V55H215.208C215.166 54.8958 215.133 54.7575 215.11 54.585C215.088 54.4092 215.076 54.2464 215.076 54.0967ZM215.213 51.7969L215.223 52.4316H214.622C214.417 52.4316 214.23 52.4544 214.061 52.5C213.895 52.5456 213.751 52.6123 213.631 52.7002C213.51 52.7848 213.418 52.8906 213.353 53.0176C213.291 53.1445 213.26 53.2894 213.26 53.4521C213.26 53.6637 213.289 53.833 213.348 53.96C213.406 54.0837 213.494 54.1732 213.611 54.2285C213.729 54.2839 213.877 54.3115 214.056 54.3115C214.274 54.3115 214.466 54.2611 214.632 54.1602C214.798 54.0592 214.926 53.9372 215.018 53.7939C215.112 53.6507 215.156 53.5173 215.149 53.3936L215.34 53.7988C215.327 53.9258 215.285 54.0641 215.213 54.2139C215.145 54.3604 215.049 54.502 214.925 54.6387C214.801 54.7721 214.655 54.8828 214.485 54.9707C214.319 55.0553 214.132 55.0977 213.924 55.0977C213.618 55.0977 213.349 55.0391 213.118 54.9219C212.89 54.8047 212.713 54.6322 212.586 54.4043C212.459 54.1764 212.396 53.8949 212.396 53.5596C212.396 53.3057 212.439 53.0713 212.527 52.8564C212.615 52.6416 212.745 52.4561 212.918 52.2998C213.09 52.1403 213.307 52.0166 213.567 51.9287C213.831 51.8408 214.135 51.7969 214.48 51.7969H215.213ZM219.212 49.7168V50.4102L216.746 50.4102V49.7168L219.212 49.7168ZM217.552 48.4326H218.416V53.6914C218.416 53.8704 218.437 54.0055 218.479 54.0967C218.525 54.1878 218.582 54.248 218.65 54.2773C218.719 54.3066 218.792 54.3213 218.87 54.3213C218.929 54.3213 218.994 54.3148 219.065 54.3018C219.137 54.2855 219.186 54.2725 219.212 54.2627L219.207 55C219.148 55.0228 219.07 55.0439 218.973 55.0635C218.875 55.0863 218.751 55.0977 218.602 55.0977C218.416 55.0977 218.243 55.0537 218.084 54.9658C217.924 54.8779 217.796 54.7314 217.698 54.5264C217.601 54.318 217.552 54.0381 217.552 53.6865V48.4326ZM222.83 54.0967V51.2305C222.83 51.0221 222.798 50.8545 222.732 50.7275C222.671 50.6006 222.576 50.5078 222.449 50.4492C222.326 50.3906 222.169 50.3613 221.98 50.3613C221.798 50.3613 221.64 50.3988 221.507 50.4736C221.377 50.5485 221.276 50.6478 221.204 50.7715C221.136 50.8952 221.102 51.0319 221.102 51.1816H220.237C220.237 50.9928 220.278 50.8057 220.359 50.6201C220.444 50.4346 220.564 50.2669 220.721 50.1172C220.877 49.9642 221.064 49.8437 221.282 49.7559C221.504 49.6647 221.751 49.6191 222.024 49.6191C222.35 49.6191 222.638 49.6729 222.889 49.7803C223.139 49.8844 223.336 50.0553 223.479 50.293C223.623 50.5306 223.694 50.8464 223.694 51.2402V53.8477C223.694 54.0234 223.707 54.2106 223.733 54.4092C223.763 54.6077 223.803 54.7786 223.855 54.9219V55H222.962C222.92 54.8958 222.887 54.7575 222.864 54.585C222.841 54.4092 222.83 54.2464 222.83 54.0967ZM222.967 51.7969L222.977 52.4316L222.376 52.4316C222.171 52.4316 221.984 52.4544 221.814 52.5C221.648 52.5456 221.505 52.6123 221.385 52.7002C221.264 52.7848 221.172 52.8906 221.106 53.0176C221.045 53.1445 221.014 53.2894 221.014 53.4521C221.014 53.6637 221.043 53.833 221.102 53.96C221.16 54.0837 221.248 54.1732 221.365 54.2285C221.482 54.2839 221.631 54.3115 221.81 54.3115C222.028 54.3115 222.22 54.2611 222.386 54.1602C222.552 54.0592 222.68 53.9372 222.771 53.7939C222.866 53.6507 222.91 53.5173 222.903 53.3936L223.094 53.7988C223.081 53.9258 223.038 54.0641 222.967 54.2139C222.898 54.3604 222.802 54.502 222.679 54.6387C222.555 54.7721 222.409 54.8828 222.239 54.9707C222.073 55.0553 221.886 55.0977 221.678 55.0977C221.372 55.0977 221.103 55.0391 220.872 54.9219C220.644 54.8047 220.467 54.6322 220.34 54.4043C220.213 54.1764 220.149 53.8949 220.149 53.5596C220.149 53.3057 220.193 53.0713 220.281 52.8564C220.369 52.6416 220.499 52.4561 220.672 52.2998C220.844 52.1403 221.061 52.0166 221.321 51.9287C221.585 51.8408 221.889 51.7969 222.234 51.7969L222.967 51.7969ZM222.806 47.7002H223.538C223.538 47.9541 223.479 48.1803 223.362 48.3789C223.245 48.5742 223.077 48.7272 222.859 48.8379C222.641 48.9486 222.382 49.0039 222.083 49.0039C221.631 49.0039 221.272 48.8835 221.009 48.6426C220.748 48.3984 220.618 48.0843 220.618 47.7002H221.351C221.351 47.8923 221.406 48.0615 221.517 48.208C221.627 48.3545 221.816 48.4277 222.083 48.4277C222.343 48.4277 222.529 48.3545 222.64 48.208C222.75 48.0615 222.806 47.8923 222.806 47.7002Z" fill="url(#paint2_linear_363_2905)"/>
<path fill-rule="evenodd" clip-rule="evenodd" d="M204 16L137 16V14L204 14V16Z" fill="url(#paint3_linear_363_2905)"/>
<path fill-rule="evenodd" clip-rule="evenodd" d="M111 16L44 16V14L111 14V16Z" fill="url(#paint4_linear_363_2905)"/>
<path fill-rule="evenodd" clip-rule="evenodd" d="M18.7612 6.17317C18 8.01088 18 10.3406 18 15C18 19.6594 18 21.9891 18.7612 23.8268C19.7761 26.2771 21.7229 28.2239 24.1732 29.2388C26.0109 30 28.3406 30 33 30C37.6594 30 39.9891 30 41.8268 29.2388C44.2771 28.2239 46.2239 26.2771 47.2388 23.8268C48 21.9891 48 19.6594 48 15C48 10.3406 48 8.01088 47.2388 6.17317C46.2239 3.72288 44.2771 1.77614 41.8268 0.761205C39.9891 0 37.6594 0 33 0C28.3406 0 26.0109 0 24.1732 0.761205C21.7229 1.77614 19.7761 3.72288 18.7612 6.17317ZM39.7071 11.7071C40.0976 11.3166 40.0976 10.6834 39.7071 10.2929C39.3166 9.90237 38.6834 9.90237 38.2929 10.2929L31 17.5858L27.7071 14.2929C27.3166 13.9024 26.6834 13.9024 26.2929 14.2929C25.9024 14.6834 25.9024 15.3166 26.2929 15.7071L30.2929 19.7071C30.4804 19.8946 30.7348 20 31 20C31.2652 20 31.5196 19.8946 31.7071 19.7071L39.7071 11.7071Z" fill="url(#paint5_linear_363_2905)"/>
<path fill-rule="evenodd" clip-rule="evenodd" d="M109.761 6.17317C109 8.01088 109 10.3406 109 15C109 19.6594 109 21.9891 109.761 23.8268C110.776 26.2771 112.723 28.2239 115.173 29.2388C117.011 30 119.341 30 124 30C128.659 30 130.989 30 132.827 29.2388C135.277 28.2239 137.224 26.2771 138.239 23.8268C139 21.9891 139 19.6594 139 15C139 10.3406 139 8.01088 138.239 6.17317C137.224 3.72288 135.277 1.77614 132.827 0.761205C130.989 0 128.659 0 124 0C119.341 0 117.011 0 115.173 0.761205C112.723 1.77614 110.776 3.72288 109.761 6.17317ZM130.707 11.7071C131.098 11.3166 131.098 10.6834 130.707 10.2929C130.317 9.90237 129.683 9.90237 129.293 10.2929L122 17.5858L118.707 14.2929C118.317 13.9024 117.683 13.9024 117.293 14.2929C116.902 14.6834 116.902 15.3166 117.293 15.7071L121.293 19.7071C121.48 19.8946 121.735 20 122 20C122.265 20 122.52 19.8946 122.707 19.7071L130.707 11.7071Z" fill="url(#paint6_linear_363_2905)"/>
<path fill-rule="evenodd" clip-rule="evenodd" d="M200.761 6.17317C200 8.01088 200 10.3406 200 15C200 19.6594 200 21.9891 200.761 23.8268C201.776 26.2771 203.723 28.2239 206.173 29.2388C208.011 30 210.341 30 215 30C219.659 30 221.989 30 223.827 29.2388C226.277 28.2239 228.224 26.2771 229.239 23.8268C230 21.9891 230 19.6594 230 15C230 10.3406 230 8.01088 229.239 6.17317C228.224 3.72288 226.277 1.77614 223.827 0.761205C221.989 0 219.659 0 215 0C210.341 0 208.011 0 206.173 0.761205C203.723 1.77614 201.776 3.72288 200.761 6.17317ZM221.707 11.7071C222.098 11.3166 222.098 10.6834 221.707 10.2929C221.317 9.90237 220.683 9.90237 220.293 10.2929L213 17.5858L209.707 14.2929C209.317 13.9024 208.683 13.9024 208.293 14.2929C207.902 14.6834 207.902 15.3166 208.293 15.7071L212.293 19.7071C212.48 19.8946 212.735 20 213 20C213.265 20 213.52 19.8946 213.707 19.7071L221.707 11.7071Z" fill="url(#paint7_linear_363_2905)"/>
<defs>
<linearGradient id="paint0_linear_363_2905" x1="33" y1="57" x2="33" y2="35" gradientUnits="userSpaceOnUse">
<stop stop-color="#5CCC94"/>
<stop offset="1" stop-color="#8CCAAE"/>
</linearGradient>
<linearGradient id="paint1_linear_363_2905" x1="124" y1="55" x2="124" y2="35" gradientUnits="userSpaceOnUse">
<stop stop-color="#5CCC94"/>
<stop offset="1" stop-color="#8CCAAE"/>
</linearGradient>
<linearGradient id="paint2_linear_363_2905" x1="214.5" y1="68" x2="214.5" y2="35" gradientUnits="userSpaceOnUse">
<stop stop-color="#5CCC94"/>
<stop offset="1" stop-color="#8CCAAE"/>
</linearGradient>
<linearGradient id="paint3_linear_363_2905" x1="170.5" y1="16" x2="170.5" y2="14" gradientUnits="userSpaceOnUse">
<stop stop-color="#5CCC94"/>
<stop offset="1" stop-color="#8CCAAE"/>
</linearGradient>
<linearGradient id="paint4_linear_363_2905" x1="77.5" y1="16" x2="77.5" y2="14" gradientUnits="userSpaceOnUse">
<stop stop-color="#5CCC94"/>
<stop offset="1" stop-color="#8CCAAE"/>
</linearGradient>
<linearGradient id="paint5_linear_363_2905" x1="33" y1="30" x2="33" y2="1.58545e-07" gradientUnits="userSpaceOnUse">
<stop stop-color="#5CCC94"/>
<stop offset="1" stop-color="#8CCAAE"/>
</linearGradient>
<linearGradient id="paint6_linear_363_2905" x1="124" y1="30" x2="124" y2="1.58545e-07" gradientUnits="userSpaceOnUse">
<stop stop-color="#5CCC94"/>
<stop offset="1" stop-color="#8CCAAE"/>
</linearGradient>
<linearGradient id="paint7_linear_363_2905" x1="215" y1="30" x2="215" y2="1.58545e-07" gradientUnits="userSpaceOnUse">
<stop stop-color="#5CCC94"/>
<stop offset="1" stop-color="#8CCAAE"/>
</linearGradient>
</defs>
</svg>
