<svg width="241" height="68" viewBox="0 0 241 68" fill="none" xmlns="http://www.w3.org/2000/svg">
<path d="M13.7295 36.8906H15.7168C16.179 36.8906 16.5664 36.972 16.8789 37.1348C17.1947 37.2975 17.4323 37.5384 17.5918 37.8574C17.7546 38.1732 17.8359 38.5622 17.8359 39.0244C17.8359 39.3499 17.7822 39.6478 17.6748 39.918C17.5674 40.1849 17.4111 40.4128 17.2061 40.6016C17.001 40.7871 16.752 40.9255 16.459 41.0166L16.2148 41.1191H14.4424L14.4326 40.3525H15.707C15.9805 40.3525 16.2083 40.2939 16.3906 40.1768C16.5729 40.0563 16.7096 39.8952 16.8008 39.6934C16.8919 39.4915 16.9375 39.2686 16.9375 39.0244C16.9375 38.751 16.8968 38.5117 16.8154 38.3066C16.734 38.1016 16.6038 37.9437 16.4248 37.833C16.249 37.7191 16.013 37.6621 15.7168 37.6621H14.6279L14.6279 44H13.7295L13.7295 36.8906ZM17.1426 44L15.7266 40.7773L16.6592 40.7725L18.1045 43.9414V44H17.1426ZM20.8096 44.0977C20.4938 44.0977 20.209 44.0505 19.9551 43.9561C19.7012 43.8617 19.4847 43.7184 19.3057 43.5264C19.1266 43.3311 18.9899 43.0853 18.8955 42.7891C18.8011 42.4928 18.7539 42.1429 18.7539 41.7393V41.1436C18.7539 40.6781 18.8076 40.2842 18.915 39.9619C19.0257 39.6396 19.1738 39.3809 19.3594 39.1855C19.5449 38.987 19.7549 38.8438 19.9893 38.7559C20.2236 38.6647 20.4645 38.6191 20.7119 38.6191C21.0439 38.6191 21.3271 38.6729 21.5615 38.7803C21.7959 38.8877 21.9863 39.0472 22.1328 39.2588C22.2793 39.4704 22.3867 39.7308 22.4551 40.04C22.5267 40.3493 22.5625 40.7057 22.5625 41.1094V41.6123H19.2617V40.875H21.6982V40.7529C21.6852 40.4795 21.6478 40.2386 21.5859 40.0303C21.5273 39.8219 21.4297 39.6592 21.293 39.542C21.1562 39.4215 20.9626 39.3613 20.7119 39.3613C20.5524 39.3613 20.4043 39.389 20.2676 39.4443C20.1341 39.4964 20.0186 39.5892 19.9209 39.7227C19.8265 39.8529 19.7516 40.0335 19.6963 40.2646C19.6442 40.4958 19.6182 40.7887 19.6182 41.1436V41.7393C19.6182 42.0225 19.6442 42.2666 19.6963 42.4717C19.7516 42.6735 19.8314 42.8411 19.9355 42.9746C20.043 43.1048 20.1732 43.2025 20.3262 43.2676C20.4824 43.3294 20.6598 43.3604 20.8584 43.3604C21.1481 43.3604 21.3874 43.305 21.5762 43.1943C21.765 43.0804 21.9294 42.9355 22.0693 42.7598L22.5234 43.3018C22.429 43.4352 22.3053 43.5638 22.1523 43.6875C22.0026 43.8079 21.8171 43.9072 21.5957 43.9854C21.3776 44.0602 21.1156 44.0977 20.8096 44.0977ZM24.4717 39.8447V44H23.6074V38.7168H24.4229L24.4717 39.8447ZM24.2617 41.1582L23.9102 41.1436C23.9069 40.7822 23.9476 40.4486 24.0322 40.1426C24.1201 39.8333 24.2438 39.5648 24.4033 39.3369C24.5661 39.109 24.7598 38.9333 24.9844 38.8096C25.209 38.6826 25.458 38.6191 25.7314 38.6191C25.9463 38.6191 26.1416 38.6549 26.3174 38.7266C26.4932 38.7949 26.6429 38.9056 26.7666 39.0586C26.8903 39.2116 26.9847 39.4102 27.0498 39.6543C27.1182 39.8952 27.1523 40.1898 27.1523 40.5381V44H26.2881V40.5283C26.2881 40.2516 26.2572 40.0303 26.1953 39.8643C26.1367 39.695 26.0456 39.5729 25.9219 39.498C25.8014 39.4199 25.6484 39.3809 25.4629 39.3809C25.2936 39.3809 25.1357 39.4281 24.9893 39.5225C24.8428 39.6169 24.7142 39.7471 24.6035 39.9131C24.4961 40.0791 24.4115 40.2695 24.3496 40.4844C24.291 40.696 24.2617 40.9206 24.2617 41.1582ZM31.2197 42.9746V36.5H32.0791V44H31.293L31.2197 42.9746ZM28.2656 41.6123V41.1191C28.2656 40.6829 28.3079 40.3086 28.3926 39.9961C28.4772 39.6803 28.5977 39.4215 28.7539 39.2197C28.9102 39.0146 29.0973 38.8633 29.3154 38.7656C29.5335 38.668 29.7744 38.6191 30.0381 38.6191C30.3115 38.6191 30.5459 38.6745 30.7412 38.7852C30.9398 38.8958 31.1058 39.057 31.2393 39.2686C31.3727 39.4769 31.4769 39.7308 31.5518 40.0303C31.6299 40.3265 31.682 40.6618 31.708 41.0361V41.6953C31.6787 42.0664 31.625 42.4001 31.5469 42.6963C31.472 42.9925 31.3678 43.2448 31.2344 43.4531C31.1009 43.6615 30.9349 43.821 30.7363 43.9316C30.5378 44.0423 30.3018 44.0977 30.0283 44.0977C29.7679 44.0977 29.5303 44.0472 29.3154 43.9463C29.1006 43.8421 28.9134 43.6875 28.7539 43.4824C28.5977 43.2741 28.4772 43.0153 28.3926 42.7061C28.3079 42.3936 28.2656 42.029 28.2656 41.6123ZM29.1299 41.1191V41.6123C29.1299 41.9053 29.151 42.1608 29.1934 42.3789C29.2357 42.5937 29.3024 42.7728 29.3936 42.916C29.4847 43.056 29.6003 43.1602 29.7402 43.2285C29.8835 43.2969 30.0544 43.3311 30.2529 43.3311C30.4938 43.3311 30.6908 43.2725 30.8438 43.1553C30.9967 43.0381 31.1188 42.8835 31.21 42.6914C31.3044 42.4961 31.3792 42.2861 31.4346 42.0615V40.6748C31.402 40.5088 31.3548 40.3493 31.293 40.1963C31.2311 40.04 31.153 39.9017 31.0586 39.7812C30.9674 39.6576 30.8551 39.5599 30.7217 39.4883C30.5915 39.4167 30.4385 39.3809 30.2627 39.3809C30.0641 39.3809 29.8916 39.4167 29.7451 39.4883C29.6019 39.5599 29.4847 39.6673 29.3936 39.8105C29.3057 39.9538 29.2389 40.1344 29.1934 40.3525C29.151 40.5706 29.1299 40.8262 29.1299 41.1191ZM35.9756 42.6475C35.9756 42.514 35.943 42.3968 35.8779 42.2959C35.8128 42.195 35.7054 42.0973 35.5557 42.0029C35.4092 41.9085 35.2106 41.8076 34.96 41.7002C34.7158 41.5993 34.4961 41.5 34.3008 41.4023C34.1087 41.3014 33.946 41.1924 33.8125 41.0752C33.679 40.958 33.5765 40.8229 33.5049 40.6699C33.4365 40.5137 33.4023 40.3298 33.4023 40.1182C33.4023 39.9066 33.4414 39.7113 33.5195 39.5322C33.6009 39.3499 33.7148 39.1904 33.8613 39.0537C34.0078 38.917 34.1836 38.8112 34.3887 38.7363C34.5938 38.6582 34.8232 38.6191 35.0771 38.6191C35.4385 38.6191 35.7461 38.6891 36 38.8291C36.2539 38.9691 36.4476 39.1611 36.5811 39.4053C36.7178 39.6462 36.7861 39.918 36.7861 40.2207H35.9268C35.9268 40.0742 35.8942 39.9359 35.8291 39.8057C35.764 39.6755 35.668 39.5697 35.541 39.4883C35.4141 39.4036 35.2594 39.3613 35.0771 39.3613C34.8851 39.3613 34.7288 39.3955 34.6084 39.4639C34.488 39.5322 34.4001 39.6217 34.3447 39.7324C34.2926 39.8398 34.2666 39.9587 34.2666 40.0889C34.2666 40.1865 34.2796 40.2712 34.3057 40.3428C34.335 40.4111 34.3838 40.4762 34.4521 40.5381C34.5205 40.5967 34.6133 40.6585 34.7305 40.7236C34.8509 40.7855 35.0039 40.8571 35.1895 40.9385C35.5475 41.0785 35.8486 41.2201 36.0928 41.3633C36.3369 41.5065 36.5225 41.6742 36.6494 41.8662C36.7764 42.0583 36.8398 42.2959 36.8398 42.5791C36.8398 42.8102 36.7975 43.0202 36.7129 43.209C36.6315 43.3945 36.5143 43.554 36.3613 43.6875C36.2083 43.821 36.0244 43.9235 35.8096 43.9951C35.598 44.0635 35.3604 44.0977 35.0967 44.0977C34.6995 44.0977 34.3626 44.0195 34.0859 43.8633C33.8125 43.7038 33.6042 43.4971 33.4609 43.2432C33.321 42.986 33.251 42.7109 33.251 42.418H34.1152C34.125 42.6654 34.1803 42.8574 34.2812 42.9941C34.3854 43.1309 34.5107 43.2253 34.6572 43.2773C34.8037 43.3294 34.9502 43.3555 35.0967 43.3555C35.2887 43.3555 35.4499 43.3278 35.5801 43.2725C35.7103 43.2139 35.8079 43.1309 35.873 43.0234C35.9414 42.916 35.9756 42.7907 35.9756 42.6475ZM41.3174 43.2578V44H38.1191V43.2578H41.3174ZM41.2197 39.3564L38.3145 44H37.7871V43.3359L40.6729 38.7168H41.2197V39.3564ZM40.8438 38.7168V39.4639H37.8018V38.7168H40.8438ZM44.9551 43.0967V40.2305C44.9551 40.0221 44.9225 39.8545 44.8574 39.7275C44.7956 39.6006 44.7012 39.5078 44.5742 39.4492C44.4505 39.3906 44.2943 39.3613 44.1055 39.3613C43.9232 39.3613 43.7653 39.3988 43.6318 39.4736C43.5016 39.5485 43.4007 39.6478 43.3291 39.7715C43.2607 39.8952 43.2266 40.0319 43.2266 40.1816H42.3623C42.3623 39.9928 42.403 39.8057 42.4844 39.6201C42.569 39.4346 42.6895 39.2669 42.8457 39.1172C43.002 38.9642 43.1891 38.8437 43.4072 38.7559C43.6286 38.6647 43.876 38.6191 44.1494 38.6191C44.4749 38.6191 44.763 38.6729 45.0137 38.7803C45.2643 38.8844 45.4613 39.0553 45.6045 39.293C45.7477 39.5306 45.8193 39.8464 45.8193 40.2402V42.8477C45.8193 43.0234 45.8324 43.2106 45.8584 43.4092C45.8877 43.6077 45.9284 43.7786 45.9805 43.9219V44H45.0869C45.0446 43.8958 45.012 43.7575 44.9893 43.585C44.9665 43.4092 44.9551 43.2464 44.9551 43.0967ZM45.0918 40.7969L45.1016 41.4316H44.501C44.2959 41.4316 44.1087 41.4544 43.9395 41.5C43.7734 41.5456 43.6302 41.6123 43.5098 41.7002C43.3893 41.7848 43.2965 41.8906 43.2314 42.0176C43.1696 42.1445 43.1387 42.2894 43.1387 42.4521C43.1387 42.6637 43.168 42.833 43.2266 42.96C43.2852 43.0837 43.373 43.1732 43.4902 43.2285C43.6074 43.2839 43.7555 43.3115 43.9346 43.3115C44.1527 43.3115 44.3447 43.2611 44.5107 43.1602C44.6768 43.0592 44.8053 42.9372 44.8965 42.7939C44.9909 42.6507 45.0348 42.5173 45.0283 42.3936L45.2188 42.7988C45.2057 42.9258 45.1634 43.0641 45.0918 43.2139C45.0234 43.3604 44.9274 43.502 44.8037 43.6387C44.68 43.7721 44.5335 43.8828 44.3643 43.9707C44.1982 44.0553 44.0111 44.0977 43.8027 44.0977C43.4967 44.0977 43.2282 44.0391 42.9971 43.9219C42.7692 43.8047 42.5918 43.6322 42.4648 43.4043C42.3379 43.1764 42.2744 42.8949 42.2744 42.5596C42.2744 42.3057 42.3184 42.0713 42.4062 41.8564C42.4941 41.6416 42.6243 41.4561 42.7969 41.2998C42.9694 41.1403 43.1859 41.0166 43.4463 40.9287C43.71 40.8408 44.0143 40.7969 44.3594 40.7969H45.0918ZM43.7051 37.9355L44.6523 36.5H45.7412L44.4326 37.9355H43.7051ZM48.0264 39.7666V44H47.167V38.7168H47.9775L48.0264 39.7666ZM47.8506 41.1582L47.4502 41.1436C47.4469 40.7822 47.4827 40.4486 47.5576 40.1426C47.6325 39.8333 47.7448 39.5648 47.8945 39.3369C48.0475 39.109 48.238 38.9333 48.4658 38.8096C48.6969 38.6826 48.9655 38.6191 49.2715 38.6191C49.4733 38.6191 49.6605 38.6549 49.833 38.7266C50.0088 38.7949 50.1618 38.904 50.292 39.0537C50.4222 39.2035 50.5231 39.3955 50.5947 39.6299C50.6696 39.8643 50.707 40.1475 50.707 40.4795V44H49.8428V40.5234C49.8428 40.2467 49.8053 40.0254 49.7305 39.8594C49.6589 39.6934 49.5563 39.5729 49.4229 39.498C49.2894 39.4199 49.1299 39.3809 48.9443 39.3809C48.7327 39.3809 48.5553 39.4281 48.4121 39.5225C48.2721 39.6169 48.1598 39.7471 48.0752 39.9131C47.9938 40.0791 47.9352 40.2695 47.8994 40.4844C47.8669 40.696 47.8506 40.9206 47.8506 41.1582ZM50.6973 40.6602L50.1211 40.8457C50.1178 40.556 50.1536 40.2777 50.2285 40.0107C50.3034 39.7438 50.4141 39.5062 50.5605 39.2979C50.7103 39.0895 50.8958 38.9251 51.1172 38.8047C51.3385 38.681 51.5957 38.6191 51.8887 38.6191C52.1296 38.6191 52.3428 38.6566 52.5283 38.7314C52.7139 38.8063 52.8701 38.9219 52.9971 39.0781C53.1273 39.2311 53.2249 39.4281 53.29 39.6689C53.3551 39.9098 53.3877 40.1963 53.3877 40.5283V44H52.5234V40.5186C52.5234 40.2223 52.486 39.9928 52.4111 39.8301C52.3395 39.6641 52.237 39.5485 52.1035 39.4834C51.9701 39.415 51.8105 39.3809 51.625 39.3809C51.4753 39.3809 51.3418 39.415 51.2246 39.4834C51.1107 39.5518 51.0146 39.6462 50.9365 39.7666C50.8584 39.8838 50.7982 40.0189 50.7559 40.1719C50.7168 40.3249 50.6973 40.4876 50.6973 40.6602Z" fill="url(#paint0_linear_366_1467)"/>
<path d="M108.005 46.2031C108.005 46.0371 107.985 45.8906 107.946 45.7637C107.907 45.6335 107.839 45.5163 107.741 45.4121C107.644 45.3079 107.507 45.2087 107.331 45.1143C107.155 45.0199 106.932 44.9238 106.662 44.8262C106.369 44.722 106.104 44.6064 105.866 44.4795C105.629 44.3493 105.425 44.2012 105.256 44.0352C105.09 43.8691 104.961 43.6787 104.87 43.4639C104.779 43.249 104.733 43.0033 104.733 42.7266C104.733 42.4499 104.781 42.1943 104.875 41.96C104.973 41.7256 105.109 41.5221 105.285 41.3496C105.464 41.1738 105.679 41.0371 105.93 40.9395C106.18 40.8418 106.46 40.793 106.77 40.793C107.232 40.793 107.621 40.8955 107.937 41.1006C108.256 41.3024 108.496 41.5677 108.659 41.8965C108.822 42.222 108.903 42.5703 108.903 42.9414H108.005C108.005 42.6745 107.961 42.4385 107.873 42.2334C107.788 42.0251 107.655 41.8623 107.473 41.7451C107.294 41.6247 107.059 41.5645 106.77 41.5645C106.509 41.5645 106.294 41.6149 106.125 41.7158C105.959 41.8167 105.835 41.9535 105.754 42.126C105.676 42.2985 105.637 42.4954 105.637 42.7168C105.637 42.8665 105.663 43.0033 105.715 43.127C105.767 43.2474 105.847 43.3597 105.954 43.4639C106.065 43.568 106.201 43.6641 106.364 43.752C106.53 43.8398 106.726 43.9245 106.95 44.0059C107.299 44.1198 107.596 44.2467 107.844 44.3867C108.091 44.5267 108.293 44.6846 108.449 44.8604C108.605 45.0329 108.719 45.2298 108.791 45.4512C108.866 45.6693 108.903 45.9167 108.903 46.1934C108.903 46.4831 108.854 46.7451 108.757 46.9795C108.662 47.2139 108.524 47.4141 108.342 47.5801C108.16 47.7461 107.94 47.8747 107.683 47.9658C107.425 48.0537 107.136 48.0977 106.813 48.0977C106.534 48.0977 106.258 48.0521 105.988 47.9609C105.721 47.8698 105.479 47.7331 105.261 47.5508C105.043 47.3685 104.868 47.1439 104.738 46.877C104.608 46.6068 104.543 46.2943 104.543 45.9395H105.441C105.441 46.1836 105.477 46.3936 105.549 46.5693C105.62 46.7419 105.72 46.8851 105.847 46.999C105.974 47.113 106.118 47.1976 106.281 47.2529C106.447 47.305 106.625 47.3311 106.813 47.3311C107.074 47.3311 107.292 47.2855 107.468 47.1943C107.647 47.1032 107.78 46.973 107.868 46.8037C107.959 46.6344 108.005 46.4342 108.005 46.2031ZM113.308 47.2578V48H110.109V47.2578H113.308ZM113.21 43.3564L110.305 48H109.777V47.3359L112.663 42.7168H113.21V43.3564ZM112.834 42.7168V43.4639H109.792V42.7168H112.834ZM116.945 47.0967V44.2305C116.945 44.0221 116.913 43.8545 116.848 43.7275C116.786 43.6006 116.691 43.5078 116.564 43.4492C116.441 43.3906 116.285 43.3613 116.096 43.3613C115.913 43.3613 115.756 43.3988 115.622 43.4736C115.492 43.5485 115.391 43.6478 115.319 43.7715C115.251 43.8952 115.217 44.0319 115.217 44.1816H114.353C114.353 43.9928 114.393 43.8057 114.475 43.6201C114.559 43.4346 114.68 43.2669 114.836 43.1172C114.992 42.9642 115.179 42.8438 115.397 42.7559C115.619 42.6647 115.866 42.6191 116.14 42.6191C116.465 42.6191 116.753 42.6729 117.004 42.7803C117.255 42.8844 117.451 43.0553 117.595 43.293C117.738 43.5306 117.81 43.8464 117.81 44.2402V46.8477C117.81 47.0234 117.823 47.2106 117.849 47.4092C117.878 47.6077 117.919 47.7786 117.971 47.9219V48H117.077C117.035 47.8958 117.002 47.7575 116.979 47.585C116.957 47.4092 116.945 47.2464 116.945 47.0967ZM117.082 44.7969L117.092 45.4316H116.491C116.286 45.4316 116.099 45.4544 115.93 45.5C115.764 45.5456 115.62 45.6123 115.5 45.7002C115.38 45.7848 115.287 45.8906 115.222 46.0176C115.16 46.1445 115.129 46.2894 115.129 46.4521C115.129 46.6637 115.158 46.833 115.217 46.96C115.275 47.0837 115.363 47.1732 115.48 47.2285C115.598 47.2839 115.746 47.3115 115.925 47.3115C116.143 47.3115 116.335 47.2611 116.501 47.1602C116.667 47.0592 116.796 46.9372 116.887 46.7939C116.981 46.6507 117.025 46.5173 117.019 46.3936L117.209 46.7988C117.196 46.9258 117.154 47.0641 117.082 47.2139C117.014 47.3604 116.918 47.502 116.794 47.6387C116.67 47.7721 116.524 47.8828 116.354 47.9707C116.188 48.0553 116.001 48.0977 115.793 48.0977C115.487 48.0977 115.218 48.0391 114.987 47.9219C114.759 47.8047 114.582 47.6322 114.455 47.4043C114.328 47.1764 114.265 46.8949 114.265 46.5596C114.265 46.3057 114.309 46.0713 114.396 45.8564C114.484 45.6416 114.615 45.4561 114.787 45.2998C114.96 45.1403 115.176 45.0166 115.437 44.9287C115.7 44.8408 116.005 44.7969 116.35 44.7969H117.082ZM115.695 41.9355L116.643 40.5H117.731L116.423 41.9355H115.695ZM120.017 43.7666V48H119.157V42.7168H119.968L120.017 43.7666ZM119.841 45.1582L119.44 45.1436C119.437 44.7822 119.473 44.4486 119.548 44.1426C119.623 43.8333 119.735 43.5648 119.885 43.3369C120.038 43.109 120.228 42.9333 120.456 42.8096C120.687 42.6826 120.956 42.6191 121.262 42.6191C121.464 42.6191 121.651 42.6549 121.823 42.7266C121.999 42.7949 122.152 42.904 122.282 43.0537C122.412 43.2035 122.513 43.3955 122.585 43.6299C122.66 43.8643 122.697 44.1475 122.697 44.4795V48H121.833V44.5234C121.833 44.2467 121.796 44.0254 121.721 43.8594C121.649 43.6934 121.547 43.5729 121.413 43.498C121.28 43.4199 121.12 43.3809 120.935 43.3809C120.723 43.3809 120.546 43.4281 120.402 43.5225C120.262 43.6169 120.15 43.7471 120.065 43.9131C119.984 44.0791 119.925 44.2695 119.89 44.4844C119.857 44.696 119.841 44.9206 119.841 45.1582ZM122.688 44.6602L122.111 44.8457C122.108 44.556 122.144 44.2777 122.219 44.0107C122.294 43.7438 122.404 43.5062 122.551 43.2979C122.701 43.0895 122.886 42.9251 123.107 42.8047C123.329 42.681 123.586 42.6191 123.879 42.6191C124.12 42.6191 124.333 42.6566 124.519 42.7314C124.704 42.8063 124.86 42.9219 124.987 43.0781C125.118 43.2311 125.215 43.4281 125.28 43.6689C125.345 43.9098 125.378 44.1963 125.378 44.5283V48H124.514V44.5186C124.514 44.2223 124.476 43.9928 124.401 43.8301C124.33 43.6641 124.227 43.5485 124.094 43.4834C123.96 43.415 123.801 43.3809 123.615 43.3809C123.465 43.3809 123.332 43.415 123.215 43.4834C123.101 43.5518 123.005 43.6462 122.927 43.7666C122.849 43.8838 122.788 44.0189 122.746 44.1719C122.707 44.3249 122.688 44.4876 122.688 44.6602ZM127.609 40.5V48H126.75V40.5H127.609ZM131.564 47.0967V44.2305C131.564 44.0221 131.532 43.8545 131.467 43.7275C131.405 43.6006 131.311 43.5078 131.184 43.4492C131.06 43.3906 130.904 43.3613 130.715 43.3613C130.533 43.3613 130.375 43.3988 130.241 43.4736C130.111 43.5485 130.01 43.6478 129.938 43.7715C129.87 43.8952 129.836 44.0319 129.836 44.1816H128.972C128.972 43.9928 129.012 43.8057 129.094 43.6201C129.178 43.4346 129.299 43.2669 129.455 43.1172C129.611 42.9642 129.799 42.8437 130.017 42.7559C130.238 42.6647 130.485 42.6191 130.759 42.6191C131.084 42.6191 131.372 42.6729 131.623 42.7803C131.874 42.8844 132.071 43.0553 132.214 43.293C132.357 43.5306 132.429 43.8464 132.429 44.2402V46.8477C132.429 47.0234 132.442 47.2106 132.468 47.4092C132.497 47.6077 132.538 47.7786 132.59 47.9219V48H131.696C131.654 47.8958 131.621 47.7575 131.599 47.585C131.576 47.4092 131.564 47.2464 131.564 47.0967ZM131.701 44.7969L131.711 45.4316L131.11 45.4316C130.905 45.4316 130.718 45.4544 130.549 45.5C130.383 45.5456 130.24 45.6123 130.119 45.7002C129.999 45.7848 129.906 45.8906 129.841 46.0176C129.779 46.1445 129.748 46.2894 129.748 46.4521C129.748 46.6637 129.777 46.833 129.836 46.96C129.895 47.0837 129.982 47.1732 130.1 47.2285C130.217 47.2839 130.365 47.3115 130.544 47.3115C130.762 47.3115 130.954 47.2611 131.12 47.1602C131.286 47.0592 131.415 46.9372 131.506 46.7939C131.6 46.6507 131.644 46.5173 131.638 46.3936L131.828 46.7988C131.815 46.9258 131.773 47.0641 131.701 47.2139C131.633 47.3604 131.537 47.502 131.413 47.6387C131.289 47.7721 131.143 47.8828 130.974 47.9707C130.808 48.0553 130.62 48.0977 130.412 48.0977C130.106 48.0977 129.838 48.0391 129.606 47.9219C129.379 47.8047 129.201 47.6322 129.074 47.4043C128.947 47.1764 128.884 46.8949 128.884 46.5596C128.884 46.3057 128.928 46.0713 129.016 45.8564C129.104 45.6416 129.234 45.4561 129.406 45.2998C129.579 45.1403 129.795 45.0166 130.056 44.9287C130.319 44.8408 130.624 44.7969 130.969 44.7969L131.701 44.7969ZM130.314 41.9355L131.262 40.5H132.351L131.042 41.9355H130.314ZM137.116 47.2578V48H133.918V47.2578H137.116ZM137.019 43.3564L134.113 48H133.586V47.3359L136.472 42.7168H137.019V43.3564ZM136.643 42.7168V43.4639H133.601V42.7168H136.643ZM140.754 47.0967V44.2305C140.754 44.0221 140.721 43.8545 140.656 43.7275C140.594 43.6006 140.5 43.5078 140.373 43.4492C140.249 43.3906 140.093 43.3613 139.904 43.3613C139.722 43.3613 139.564 43.3988 139.431 43.4736C139.3 43.5485 139.2 43.6478 139.128 43.7715C139.06 43.8952 139.025 44.0319 139.025 44.1816H138.161C138.161 43.9928 138.202 43.8057 138.283 43.6201C138.368 43.4346 138.488 43.2669 138.645 43.1172C138.801 42.9642 138.988 42.8437 139.206 42.7559C139.427 42.6647 139.675 42.6191 139.948 42.6191C140.274 42.6191 140.562 42.6729 140.812 42.7803C141.063 42.8844 141.26 43.0553 141.403 43.293C141.547 43.5306 141.618 43.8464 141.618 44.2402V46.8477C141.618 47.0234 141.631 47.2106 141.657 47.4092C141.687 47.6077 141.727 47.7786 141.779 47.9219V48H140.886C140.843 47.8958 140.811 47.7575 140.788 47.585C140.765 47.4092 140.754 47.2464 140.754 47.0967ZM140.891 44.7969L140.9 45.4316H140.3C140.095 45.4316 139.908 45.4544 139.738 45.5C139.572 45.5456 139.429 45.6123 139.309 45.7002C139.188 45.7848 139.095 45.8906 139.03 46.0176C138.968 46.1445 138.938 46.2894 138.938 46.4521C138.938 46.6637 138.967 46.833 139.025 46.96C139.084 47.0837 139.172 47.1732 139.289 47.2285C139.406 47.2839 139.554 47.3115 139.733 47.3115C139.951 47.3115 140.144 47.2611 140.31 47.1602C140.476 47.0592 140.604 46.9372 140.695 46.7939C140.79 46.6507 140.834 46.5173 140.827 46.3936L141.018 46.7988C141.005 46.9258 140.962 47.0641 140.891 47.2139C140.822 47.3604 140.726 47.502 140.603 47.6387C140.479 47.7721 140.332 47.8828 140.163 47.9707C139.997 48.0553 139.81 48.0977 139.602 48.0977C139.296 48.0977 139.027 48.0391 138.796 47.9219C138.568 47.8047 138.391 47.6322 138.264 47.4043C138.137 47.1764 138.073 46.8949 138.073 46.5596C138.073 46.3057 138.117 46.0713 138.205 45.8564C138.293 45.6416 138.423 45.4561 138.596 45.2998C138.768 45.1403 138.985 45.0166 139.245 44.9287C139.509 44.8408 139.813 44.7969 140.158 44.7969H140.891ZM139.504 41.9355L140.451 40.5H141.54L140.231 41.9355H139.504ZM145.524 46.6475C145.524 46.514 145.492 46.3968 145.427 46.2959C145.362 46.195 145.254 46.0973 145.104 46.0029C144.958 45.9085 144.759 45.8076 144.509 45.7002C144.265 45.5993 144.045 45.5 143.85 45.4023C143.658 45.3014 143.495 45.1924 143.361 45.0752C143.228 44.958 143.125 44.8229 143.054 44.6699C142.985 44.5137 142.951 44.3298 142.951 44.1182C142.951 43.9066 142.99 43.7113 143.068 43.5322C143.15 43.3499 143.264 43.1904 143.41 43.0537C143.557 42.917 143.732 42.8112 143.938 42.7363C144.143 42.6582 144.372 42.6191 144.626 42.6191C144.987 42.6191 145.295 42.6891 145.549 42.8291C145.803 42.9691 145.996 43.1611 146.13 43.4053C146.267 43.6462 146.335 43.918 146.335 44.2207H145.476C145.476 44.0742 145.443 43.9359 145.378 43.8057C145.313 43.6755 145.217 43.5697 145.09 43.4883C144.963 43.4036 144.808 43.3613 144.626 43.3613C144.434 43.3613 144.278 43.3955 144.157 43.4639C144.037 43.5322 143.949 43.6217 143.894 43.7324C143.841 43.8398 143.815 43.9587 143.815 44.0889C143.815 44.1865 143.828 44.2712 143.854 44.3428C143.884 44.4111 143.933 44.4762 144.001 44.5381C144.069 44.5967 144.162 44.6585 144.279 44.7236C144.4 44.7855 144.553 44.8571 144.738 44.9385C145.096 45.0785 145.397 45.2201 145.642 45.3633C145.886 45.5065 146.071 45.6742 146.198 45.8662C146.325 46.0583 146.389 46.2959 146.389 46.5791C146.389 46.8102 146.346 47.0202 146.262 47.209C146.18 47.3945 146.063 47.554 145.91 47.6875C145.757 47.821 145.573 47.9235 145.358 47.9951C145.147 48.0635 144.909 48.0977 144.646 48.0977C144.248 48.0977 143.911 48.0195 143.635 47.8633C143.361 47.7038 143.153 47.4971 143.01 47.2432C142.87 46.986 142.8 46.7109 142.8 46.418H143.664C143.674 46.6654 143.729 46.8574 143.83 46.9941C143.934 47.1309 144.06 47.2253 144.206 47.2773C144.353 47.3294 144.499 47.3555 144.646 47.3555C144.838 47.3555 144.999 47.3278 145.129 47.2725C145.259 47.2139 145.357 47.1309 145.422 47.0234C145.49 46.916 145.524 46.7907 145.524 46.6475Z" fill="#E0E0E9"/>
<path d="M199.729 43.2334V44H196.643V43.2334H199.729ZM196.804 36.8906V44H195.905V36.8906H196.804ZM199.313 39.9473V40.7139H196.643V39.9473H199.313ZM199.68 36.8906V37.6621H196.643V36.8906H199.68ZM201.687 36.5V44H200.827V36.5H201.687ZM203.981 36.5V44H203.122V36.5H203.981ZM207.238 44.0977C206.923 44.0977 206.638 44.0505 206.384 43.9561C206.13 43.8617 205.913 43.7184 205.734 43.5264C205.555 43.3311 205.419 43.0853 205.324 42.7891C205.23 42.4928 205.183 42.1429 205.183 41.7393V41.1436C205.183 40.6781 205.236 40.2842 205.344 39.9619C205.454 39.6396 205.603 39.3809 205.788 39.1855C205.974 38.987 206.184 38.8438 206.418 38.7559C206.652 38.6647 206.893 38.6191 207.141 38.6191C207.473 38.6191 207.756 38.6729 207.99 38.7803C208.225 38.8877 208.415 39.0472 208.562 39.2588C208.708 39.4704 208.815 39.7308 208.884 40.04C208.955 40.3493 208.991 40.7057 208.991 41.1094V41.6123H205.69V40.875H208.127V40.7529C208.114 40.4795 208.076 40.2386 208.015 40.0303C207.956 39.8219 207.858 39.6592 207.722 39.542C207.585 39.4215 207.391 39.3613 207.141 39.3613C206.981 39.3613 206.833 39.389 206.696 39.4443C206.563 39.4964 206.447 39.5892 206.35 39.7227C206.255 39.8529 206.18 40.0335 206.125 40.2646C206.073 40.4958 206.047 40.7887 206.047 41.1436V41.7393C206.047 42.0225 206.073 42.2666 206.125 42.4717C206.18 42.6735 206.26 42.8411 206.364 42.9746C206.472 43.1048 206.602 43.2025 206.755 43.2676C206.911 43.3294 207.089 43.3604 207.287 43.3604C207.577 43.3604 207.816 43.305 208.005 43.1943C208.194 43.0804 208.358 42.9355 208.498 42.7598L208.952 43.3018C208.858 43.4352 208.734 43.5638 208.581 43.6875C208.431 43.8079 208.246 43.9072 208.024 43.9854C207.806 44.0602 207.544 44.0977 207.238 44.0977ZM210.9 39.8447V44H210.036V38.7168H210.852L210.9 39.8447ZM210.69 41.1582L210.339 41.1436C210.336 40.7822 210.376 40.4486 210.461 40.1426C210.549 39.8333 210.673 39.5648 210.832 39.3369C210.995 39.109 211.188 38.9333 211.413 38.8096C211.638 38.6826 211.887 38.6191 212.16 38.6191C212.375 38.6191 212.57 38.6549 212.746 38.7266C212.922 38.7949 213.072 38.9056 213.195 39.0586C213.319 39.2116 213.413 39.4102 213.479 39.6543C213.547 39.8952 213.581 40.1898 213.581 40.5381V44H212.717V40.5283C212.717 40.2516 212.686 40.0303 212.624 39.8643C212.565 39.695 212.474 39.5729 212.351 39.498C212.23 39.4199 212.077 39.3809 211.892 39.3809C211.722 39.3809 211.564 39.4281 211.418 39.5225C211.271 39.6169 211.143 39.7471 211.032 39.9131C210.925 40.0791 210.84 40.2695 210.778 40.4844C210.72 40.696 210.69 40.9206 210.69 41.1582ZM214.699 41.6123V41.1094C214.699 40.6992 214.751 40.3395 214.855 40.0303C214.96 39.7178 215.104 39.4574 215.29 39.249C215.476 39.0407 215.692 38.8844 215.939 38.7803C216.187 38.6729 216.452 38.6191 216.735 38.6191C217.025 38.6191 217.294 38.6729 217.541 38.7803C217.788 38.8844 218.005 39.0407 218.19 39.249C218.379 39.4574 218.526 39.7178 218.63 40.0303C218.734 40.3395 218.786 40.6992 218.786 41.1094V41.6123C218.786 42.0225 218.734 42.3838 218.63 42.6963C218.526 43.0055 218.381 43.2643 218.195 43.4727C218.01 43.681 217.793 43.8372 217.546 43.9414C217.299 44.0456 217.032 44.0977 216.745 44.0977C216.459 44.0977 216.192 44.0456 215.944 43.9414C215.697 43.8372 215.479 43.681 215.29 43.4727C215.104 43.2643 214.96 43.0055 214.855 42.6963C214.751 42.3838 214.699 42.0225 214.699 41.6123ZM215.563 41.1094V41.6123C215.563 41.902 215.593 42.1559 215.651 42.374C215.71 42.5921 215.793 42.7744 215.9 42.9209C216.008 43.0674 216.133 43.1781 216.276 43.2529C216.42 43.3245 216.576 43.3604 216.745 43.3604C216.94 43.3604 217.111 43.3245 217.258 43.2529C217.408 43.1781 217.531 43.0674 217.629 42.9209C217.727 42.7744 217.8 42.5921 217.849 42.374C217.897 42.1559 217.922 41.902 217.922 41.6123V41.1094C217.922 40.8197 217.893 40.5674 217.834 40.3525C217.775 40.1344 217.692 39.9521 217.585 39.8057C217.478 39.6559 217.351 39.5452 217.204 39.4736C217.061 39.3988 216.905 39.3613 216.735 39.3613C216.569 39.3613 216.415 39.3988 216.271 39.4736C216.128 39.5452 216.003 39.6559 215.896 39.8057C215.791 39.9521 215.71 40.1344 215.651 40.3525C215.593 40.5674 215.563 40.8197 215.563 41.1094ZM216.804 37.9844L217.707 36.5049H218.654L217.57 37.9844H216.804ZM215.617 37.9844L216.267 36.5049H217.17L216.296 37.9844H215.617ZM220.764 39.5469V44H219.899V38.7168H220.734L220.764 39.5469ZM222.077 38.6875L222.082 39.5273C222.01 39.5111 221.945 39.5013 221.887 39.498C221.831 39.4915 221.766 39.4883 221.691 39.4883C221.529 39.4883 221.385 39.5208 221.262 39.5859C221.141 39.651 221.037 39.7422 220.949 39.8594C220.861 39.9766 220.791 40.1165 220.739 40.2793C220.687 40.4388 220.651 40.6146 220.632 40.8066L220.407 40.9531C220.407 40.6341 220.432 40.3346 220.48 40.0547C220.533 39.7747 220.612 39.5273 220.72 39.3125C220.827 39.0944 220.964 38.9251 221.13 38.8047C221.299 38.681 221.501 38.6191 221.735 38.6191C221.787 38.6191 221.851 38.6273 221.926 38.6436C222.004 38.6566 222.054 38.6712 222.077 38.6875ZM226.291 43.2578V44H223.093V43.2578H226.291ZM226.193 39.3564L223.288 44H222.761V43.3359L225.646 38.7168H226.193V39.3564ZM225.817 38.7168V39.4639H222.775V38.7168H225.817ZM229.152 44.0977C228.837 44.0977 228.552 44.0505 228.298 43.9561C228.044 43.8617 227.827 43.7184 227.648 43.5264C227.469 43.3311 227.333 43.0853 227.238 42.7891C227.144 42.4928 227.097 42.1429 227.097 41.7393V41.1436C227.097 40.6781 227.15 40.2842 227.258 39.9619C227.368 39.6396 227.517 39.3809 227.702 39.1855C227.888 38.987 228.098 38.8437 228.332 38.7559C228.566 38.6647 228.807 38.6191 229.055 38.6191C229.387 38.6191 229.67 38.6729 229.904 38.7803C230.139 38.8877 230.329 39.0472 230.476 39.2588C230.622 39.4704 230.729 39.7308 230.798 40.04C230.869 40.3493 230.905 40.7057 230.905 41.1094V41.6123H227.604V40.875H230.041V40.7529C230.028 40.4795 229.991 40.2386 229.929 40.0303C229.87 39.8219 229.772 39.6592 229.636 39.542C229.499 39.4215 229.305 39.3613 229.055 39.3613C228.895 39.3613 228.747 39.389 228.61 39.4443C228.477 39.4964 228.361 39.5892 228.264 39.7227C228.169 39.8529 228.094 40.0335 228.039 40.2646C227.987 40.4958 227.961 40.7887 227.961 41.1436V41.7393C227.961 42.0225 227.987 42.2666 228.039 42.4717C228.094 42.6735 228.174 42.8411 228.278 42.9746C228.386 43.1048 228.516 43.2025 228.669 43.2676C228.825 43.3294 229.003 43.3604 229.201 43.3604C229.491 43.3604 229.73 43.305 229.919 43.1943C230.108 43.0804 230.272 42.9355 230.412 42.7598L230.866 43.3018C230.772 43.4352 230.648 43.5638 230.495 43.6875C230.345 43.8079 230.16 43.9072 229.938 43.9854C229.72 44.0602 229.458 44.0977 229.152 44.0977ZM228.527 37.9355L229.475 36.5H230.563L229.255 37.9355H228.527ZM234.514 42.6475C234.514 42.514 234.481 42.3968 234.416 42.2959C234.351 42.195 234.243 42.0973 234.094 42.0029C233.947 41.9085 233.749 41.8076 233.498 41.7002C233.254 41.5993 233.034 41.5 232.839 41.4023C232.647 41.3014 232.484 41.1924 232.351 41.0752C232.217 40.958 232.115 40.8229 232.043 40.6699C231.975 40.5137 231.94 40.3298 231.94 40.1182C231.94 39.9066 231.979 39.7113 232.058 39.5322C232.139 39.3499 232.253 39.1904 232.399 39.0537C232.546 38.917 232.722 38.8112 232.927 38.7363C233.132 38.6582 233.361 38.6191 233.615 38.6191C233.977 38.6191 234.284 38.6891 234.538 38.8291C234.792 38.9691 234.986 39.1611 235.119 39.4053C235.256 39.6462 235.324 39.918 235.324 40.2207H234.465C234.465 40.0742 234.432 39.9359 234.367 39.8057C234.302 39.6755 234.206 39.5697 234.079 39.4883C233.952 39.4036 233.798 39.3613 233.615 39.3613C233.423 39.3613 233.267 39.3955 233.146 39.4639C233.026 39.5322 232.938 39.6217 232.883 39.7324C232.831 39.8398 232.805 39.9587 232.805 40.0889C232.805 40.1865 232.818 40.2712 232.844 40.3428C232.873 40.4111 232.922 40.4762 232.99 40.5381C233.059 40.5967 233.151 40.6585 233.269 40.7236C233.389 40.7855 233.542 40.8571 233.728 40.9385C234.086 41.0785 234.387 41.2201 234.631 41.3633C234.875 41.5065 235.061 41.6742 235.188 41.8662C235.314 42.0583 235.378 42.2959 235.378 42.5791C235.378 42.8102 235.336 43.0202 235.251 43.209C235.17 43.3945 235.052 43.554 234.899 43.6875C234.746 43.821 234.562 43.9235 234.348 43.9951C234.136 44.0635 233.898 44.0977 233.635 44.0977C233.238 44.0977 232.901 44.0195 232.624 43.8633C232.351 43.7038 232.142 43.4971 231.999 43.2432C231.859 42.986 231.789 42.7109 231.789 42.418H232.653C232.663 42.6654 232.718 42.8574 232.819 42.9941C232.924 43.1309 233.049 43.2253 233.195 43.2773C233.342 43.3294 233.488 43.3555 233.635 43.3555C233.827 43.3555 233.988 43.3278 234.118 43.2725C234.248 43.2139 234.346 43.1309 234.411 43.0234C234.479 42.916 234.514 42.7907 234.514 42.6475ZM199.211 55.0977C198.895 55.0977 198.61 55.0505 198.356 54.9561C198.103 54.8617 197.886 54.7184 197.707 54.5264C197.528 54.3311 197.391 54.0853 197.297 53.7891C197.202 53.4928 197.155 53.1429 197.155 52.7393V52.1436C197.155 51.6781 197.209 51.2842 197.316 50.9619C197.427 50.6396 197.575 50.3809 197.761 50.1855C197.946 49.987 198.156 49.8438 198.391 49.7559C198.625 49.6647 198.866 49.6191 199.113 49.6191C199.445 49.6191 199.729 49.6729 199.963 49.7803C200.197 49.8877 200.388 50.0472 200.534 50.2588C200.681 50.4704 200.788 50.7308 200.856 51.04C200.928 51.3493 200.964 51.7057 200.964 52.1094V52.6123H197.663V51.875H200.1V51.7529C200.087 51.4795 200.049 51.2386 199.987 51.0303C199.929 50.8219 199.831 50.6592 199.694 50.542C199.558 50.4215 199.364 50.3613 199.113 50.3613C198.954 50.3613 198.806 50.389 198.669 50.4443C198.535 50.4964 198.42 50.5892 198.322 50.7227C198.228 50.8529 198.153 51.0335 198.098 51.2646C198.046 51.4958 198.02 51.7887 198.02 52.1436V52.7393C198.02 53.0225 198.046 53.2666 198.098 53.4717C198.153 53.6735 198.233 53.8411 198.337 53.9746C198.444 54.1048 198.575 54.2025 198.728 54.2676C198.884 54.3294 199.061 54.3604 199.26 54.3604C199.549 54.3604 199.789 54.305 199.978 54.1943C200.166 54.0804 200.331 53.9355 200.471 53.7598L200.925 54.3018C200.83 54.4352 200.707 54.5638 200.554 54.6875C200.404 54.8079 200.218 54.9072 199.997 54.9854C199.779 55.0602 199.517 55.0977 199.211 55.0977ZM198.586 48.9355L199.533 47.5H200.622L199.313 48.9355H198.586ZM204.572 53.6475C204.572 53.514 204.54 53.3968 204.475 53.2959C204.41 53.195 204.302 53.0973 204.152 53.0029C204.006 52.9085 203.807 52.8076 203.557 52.7002C203.312 52.5993 203.093 52.5 202.897 52.4023C202.705 52.3014 202.543 52.1924 202.409 52.0752C202.276 51.958 202.173 51.8229 202.102 51.6699C202.033 51.5137 201.999 51.3298 201.999 51.1182C201.999 50.9066 202.038 50.7113 202.116 50.5322C202.198 50.3499 202.312 50.1904 202.458 50.0537C202.604 49.917 202.78 49.8112 202.985 49.7363C203.19 49.6582 203.42 49.6191 203.674 49.6191C204.035 49.6191 204.343 49.6891 204.597 49.8291C204.851 49.9691 205.044 50.1611 205.178 50.4053C205.314 50.6462 205.383 50.918 205.383 51.2207H204.523C204.523 51.0742 204.491 50.9359 204.426 50.8057C204.361 50.6755 204.265 50.5697 204.138 50.4883C204.011 50.4036 203.856 50.3613 203.674 50.3613C203.482 50.3613 203.326 50.3955 203.205 50.4639C203.085 50.5322 202.997 50.6217 202.941 50.7324C202.889 50.8398 202.863 50.9587 202.863 51.0889C202.863 51.1865 202.876 51.2712 202.902 51.3428C202.932 51.4111 202.98 51.4762 203.049 51.5381C203.117 51.5967 203.21 51.6585 203.327 51.7236C203.448 51.7855 203.601 51.8571 203.786 51.9385C204.144 52.0785 204.445 52.2201 204.689 52.3633C204.934 52.5065 205.119 52.6742 205.246 52.8662C205.373 53.0583 205.437 53.2959 205.437 53.5791C205.437 53.8102 205.394 54.0202 205.31 54.209C205.228 54.3945 205.111 54.554 204.958 54.6875C204.805 54.821 204.621 54.9235 204.406 54.9951C204.195 55.0635 203.957 55.0977 203.693 55.0977C203.296 55.0977 202.959 55.0195 202.683 54.8633C202.409 54.7038 202.201 54.4971 202.058 54.2432C201.918 53.986 201.848 53.7109 201.848 53.418H202.712C202.722 53.6654 202.777 53.8574 202.878 53.9941C202.982 54.1309 203.107 54.2253 203.254 54.2773C203.4 54.3294 203.547 54.3555 203.693 54.3555C203.885 54.3555 204.047 54.3278 204.177 54.2725C204.307 54.2139 204.405 54.1309 204.47 54.0234C204.538 53.916 204.572 53.7907 204.572 53.6475ZM209.968 55H209.104V49.2578C209.104 48.8574 209.17 48.5189 209.304 48.2422C209.44 47.9655 209.634 47.7555 209.885 47.6123C210.139 47.4691 210.438 47.3975 210.783 47.3975C210.988 47.3975 211.185 47.4268 211.374 47.4854C211.563 47.5407 211.758 47.6107 211.96 47.6953L211.813 48.457C211.696 48.3984 211.553 48.3431 211.384 48.291C211.215 48.2357 211.037 48.208 210.852 48.208C210.526 48.208 210.297 48.2959 210.163 48.4717C210.033 48.6442 209.968 48.9062 209.968 49.2578V55ZM210.822 49.7168V50.4102H208.415V49.7168H210.822ZM212.375 49.7168V55H211.511V49.7168H212.375ZM217.111 54.2578V55H213.913V54.2578H217.111ZM217.014 50.3564L214.108 55H213.581V54.3359L216.467 49.7168H217.014V50.3564ZM216.638 49.7168V50.4639H213.596V49.7168H216.638ZM219.973 55.0977C219.657 55.0977 219.372 55.0505 219.118 54.9561C218.864 54.8617 218.648 54.7184 218.469 54.5264C218.29 54.3311 218.153 54.0853 218.059 53.7891C217.964 53.4928 217.917 53.1429 217.917 52.7393V52.1436C217.917 51.6781 217.971 51.2842 218.078 50.9619C218.189 50.6396 218.337 50.3809 218.522 50.1855C218.708 49.987 218.918 49.8437 219.152 49.7559C219.387 49.6647 219.628 49.6191 219.875 49.6191C220.207 49.6191 220.49 49.6729 220.725 49.7803C220.959 49.8877 221.149 50.0472 221.296 50.2588C221.442 50.4704 221.55 50.7308 221.618 51.04C221.69 51.3493 221.726 51.7057 221.726 52.1094V52.6123H218.425V51.875H220.861V51.7529C220.848 51.4795 220.811 51.2386 220.749 51.0303C220.69 50.8219 220.593 50.6592 220.456 50.542C220.319 50.4215 220.126 50.3613 219.875 50.3613C219.715 50.3613 219.567 50.389 219.431 50.4443C219.297 50.4964 219.182 50.5892 219.084 50.7227C218.99 50.8529 218.915 51.0335 218.859 51.2646C218.807 51.4958 218.781 51.7887 218.781 52.1436V52.7393C218.781 53.0225 218.807 53.2666 218.859 53.4717C218.915 53.6735 218.994 53.8411 219.099 53.9746C219.206 54.1048 219.336 54.2025 219.489 54.2676C219.646 54.3294 219.823 54.3604 220.021 54.3604C220.311 54.3604 220.55 54.305 220.739 54.1943C220.928 54.0804 221.092 53.9355 221.232 53.7598L221.687 54.3018C221.592 54.4352 221.468 54.5638 221.315 54.6875C221.166 54.8079 220.98 54.9072 220.759 54.9854C220.541 55.0602 220.279 55.0977 219.973 55.0977ZM224.699 49.7168V50.4102H222.233V49.7168H224.699ZM223.039 48.4326H223.903V53.6914C223.903 53.8704 223.924 54.0055 223.967 54.0967C224.012 54.1878 224.069 54.248 224.138 54.2773C224.206 54.3066 224.279 54.3213 224.357 54.3213C224.416 54.3213 224.481 54.3148 224.553 54.3018C224.624 54.2855 224.673 54.2725 224.699 54.2627L224.694 55C224.636 55.0228 224.558 55.0439 224.46 55.0635C224.362 55.0863 224.239 55.0977 224.089 55.0977C223.903 55.0977 223.731 55.0537 223.571 54.9658C223.412 54.8779 223.283 54.7314 223.186 54.5264C223.088 54.318 223.039 54.0381 223.039 53.6865V48.4326ZM227.619 55.0977C227.303 55.0977 227.019 55.0505 226.765 54.9561C226.511 54.8617 226.294 54.7184 226.115 54.5264C225.936 54.3311 225.799 54.0853 225.705 53.7891C225.611 53.4928 225.563 53.1429 225.563 52.7393V52.1436C225.563 51.6781 225.617 51.2842 225.725 50.9619C225.835 50.6396 225.983 50.3809 226.169 50.1855C226.354 49.987 226.564 49.8437 226.799 49.7559C227.033 49.6647 227.274 49.6191 227.521 49.6191C227.854 49.6191 228.137 49.6729 228.371 49.7803C228.605 49.8877 228.796 50.0472 228.942 50.2588C229.089 50.4704 229.196 50.7308 229.265 51.04C229.336 51.3493 229.372 51.7057 229.372 52.1094V52.6123H226.071V51.875H228.508V51.7529C228.495 51.4795 228.457 51.2386 228.396 51.0303C228.337 50.8219 228.239 50.6592 228.103 50.542C227.966 50.4215 227.772 50.3613 227.521 50.3613C227.362 50.3613 227.214 50.389 227.077 50.4443C226.944 50.4964 226.828 50.5892 226.73 50.7227C226.636 50.8529 226.561 51.0335 226.506 51.2646C226.454 51.4958 226.428 51.7887 226.428 52.1436V52.7393C226.428 53.0225 226.454 53.2666 226.506 53.4717C226.561 53.6735 226.641 53.8411 226.745 53.9746C226.853 54.1048 226.983 54.2025 227.136 54.2676C227.292 54.3294 227.469 54.3604 227.668 54.3604C227.958 54.3604 228.197 54.305 228.386 54.1943C228.575 54.0804 228.739 53.9355 228.879 53.7598L229.333 54.3018C229.239 54.4352 229.115 54.5638 228.962 54.6875C228.812 54.8079 228.627 54.9072 228.405 54.9854C228.187 55.0602 227.925 55.0977 227.619 55.0977ZM226.994 48.9355L227.941 47.5H229.03L227.722 48.9355H226.994ZM232.98 53.6475C232.98 53.514 232.948 53.3968 232.883 53.2959C232.818 53.195 232.71 53.0973 232.561 53.0029C232.414 52.9085 232.215 52.8076 231.965 52.7002C231.721 52.5993 231.501 52.5 231.306 52.4023C231.114 52.3014 230.951 52.1924 230.817 52.0752C230.684 51.958 230.581 51.8229 230.51 51.6699C230.441 51.5137 230.407 51.3298 230.407 51.1182C230.407 50.9066 230.446 50.7113 230.524 50.5322C230.606 50.3499 230.72 50.1904 230.866 50.0537C231.013 49.917 231.188 49.8112 231.394 49.7363C231.599 49.6582 231.828 49.6191 232.082 49.6191C232.443 49.6191 232.751 49.6891 233.005 49.8291C233.259 49.9691 233.452 50.1611 233.586 50.4053C233.723 50.6462 233.791 50.918 233.791 51.2207H232.932C232.932 51.0742 232.899 50.9359 232.834 50.8057C232.769 50.6755 232.673 50.5697 232.546 50.4883C232.419 50.4036 232.264 50.3613 232.082 50.3613C231.89 50.3613 231.734 50.3955 231.613 50.4639C231.493 50.5322 231.405 50.6217 231.35 50.7324C231.298 50.8398 231.271 50.9587 231.271 51.0889C231.271 51.1865 231.285 51.2712 231.311 51.3428C231.34 51.4111 231.389 51.4762 231.457 51.5381C231.525 51.5967 231.618 51.6585 231.735 51.7236C231.856 51.7855 232.009 51.8571 232.194 51.9385C232.552 52.0785 232.854 52.2201 233.098 52.3633C233.342 52.5065 233.527 52.6742 233.654 52.8662C233.781 53.0583 233.845 53.2959 233.845 53.5791C233.845 53.8102 233.802 54.0202 233.718 54.209C233.636 54.3945 233.519 54.554 233.366 54.6875C233.213 54.821 233.029 54.9235 232.814 54.9951C232.603 55.0635 232.365 55.0977 232.102 55.0977C231.704 55.0977 231.368 55.0195 231.091 54.8633C230.817 54.7038 230.609 54.4971 230.466 54.2432C230.326 53.986 230.256 53.7109 230.256 53.418H231.12C231.13 53.6654 231.185 53.8574 231.286 53.9941C231.39 54.1309 231.516 54.2253 231.662 54.2773C231.809 54.3294 231.955 54.3555 232.102 54.3555C232.294 54.3555 232.455 54.3278 232.585 54.2725C232.715 54.2139 232.813 54.1309 232.878 54.0234C232.946 53.916 232.98 53.7907 232.98 53.6475Z" fill="#E0E0E9"/>
<path fill-rule="evenodd" clip-rule="evenodd" d="M205 16L138 16V14L205 14V16Z" fill="#D0CFD7"/>
<path fill-rule="evenodd" clip-rule="evenodd" d="M112 16L45 16V14L112 14V16Z" fill="#D0CFD7"/>
<path fill-rule="evenodd" clip-rule="evenodd" d="M19.7612 6.17317C19 8.01088 19 10.3406 19 15C19 19.6594 19 21.9891 19.7612 23.8268C20.7761 26.2771 22.7229 28.2239 25.1732 29.2388C27.0109 30 29.3406 30 34 30C38.6594 30 40.9891 30 42.8268 29.2388C45.2771 28.2239 47.2239 26.2771 48.2388 23.8268C49 21.9891 49 19.6594 49 15C49 10.3406 49 8.01088 48.2388 6.17317C47.2239 3.72288 45.2771 1.77614 42.8268 0.761205C40.9891 0 38.6594 0 34 0C29.3406 0 27.0109 0 25.1732 0.761205C22.7229 1.77614 20.7761 3.72288 19.7612 6.17317ZM40.7071 11.7071C41.0976 11.3166 41.0976 10.6834 40.7071 10.2929C40.3166 9.90237 39.6834 9.90237 39.2929 10.2929L32 17.5858L28.7071 14.2929C28.3166 13.9024 27.6834 13.9024 27.2929 14.2929C26.9024 14.6834 26.9024 15.3166 27.2929 15.7071L31.2929 19.7071C31.4804 19.8946 31.7348 20 32 20C32.2652 20 32.5196 19.8946 32.7071 19.7071L40.7071 11.7071Z" fill="url(#paint1_linear_366_1467)"/>
<path fill-rule="evenodd" clip-rule="evenodd" d="M201.761 6.17317C201 8.01088 201 10.3406 201 15C201 19.6594 201 21.9891 201.761 23.8268C202.776 26.2771 204.723 28.2239 207.173 29.2388C209.011 30 211.341 30 216 30C220.659 30 222.989 30 224.827 29.2388C227.277 28.2239 229.224 26.2771 230.239 23.8268C231 21.9891 231 19.6594 231 15C231 10.3406 231 8.01088 230.239 6.17317C229.224 3.72288 227.277 1.77614 224.827 0.761205C222.989 0 220.659 0 216 0C211.341 0 209.011 0 207.173 0.761205C204.723 1.77614 202.776 3.72288 201.761 6.17317ZM222.707 11.7071C223.098 11.3166 223.098 10.6834 222.707 10.2929C222.317 9.90237 221.683 9.90237 221.293 10.2929L214 17.5858L210.707 14.2929C210.317 13.9024 209.683 13.9024 209.293 14.2929C208.902 14.6834 208.902 15.3166 209.293 15.7071L213.293 19.7071C213.48 19.8946 213.735 20 214 20C214.265 20 214.52 19.8946 214.707 19.7071L222.707 11.7071Z" fill="#D0CFD7"/>
<path fill-rule="evenodd" clip-rule="evenodd" d="M110.761 6.17317C110 8.01088 110 10.3406 110 15C110 19.6594 110 21.9891 110.761 23.8268C111.776 26.2771 113.723 28.2239 116.173 29.2388C118.011 30 120.341 30 125 30C129.659 30 131.989 30 133.827 29.2388C136.277 28.2239 138.224 26.2771 139.239 23.8268C140 21.9891 140 19.6594 140 15C140 10.3406 140 8.01088 139.239 6.17317C138.224 3.72288 136.277 1.77614 133.827 0.761205C131.989 0 129.659 0 125 0C120.341 0 118.011 0 116.173 0.761205C113.723 1.77614 111.776 3.72288 110.761 6.17317ZM131.707 11.7071C132.098 11.3166 132.098 10.6834 131.707 10.2929C131.317 9.90237 130.683 9.90237 130.293 10.2929L123 17.5858L119.707 14.2929C119.317 13.9024 118.683 13.9024 118.293 14.2929C117.902 14.6834 117.902 15.3166 118.293 15.7071L122.293 19.7071C122.48 19.8946 122.735 20 123 20C123.265 20 123.52 19.8946 123.707 19.7071L131.707 11.7071Z" fill="#D0CFD7"/>
<defs>
<linearGradient id="paint0_linear_366_1467" x1="33.5" y1="46" x2="33.5" y2="35" gradientUnits="userSpaceOnUse">
<stop stop-color="#5CCC94"/>
<stop offset="1" stop-color="#8CCAAE"/>
</linearGradient>
<linearGradient id="paint1_linear_366_1467" x1="34" y1="30" x2="34" y2="1.58545e-07" gradientUnits="userSpaceOnUse">
<stop stop-color="#5CCC94"/>
<stop offset="1" stop-color="#8CCAAE"/>
</linearGradient>
</defs>
</svg>
