<svg width="318" height="68" viewBox="0 0 318 68" fill="none" xmlns="http://www.w3.org/2000/svg">
<path d="M9.82227 35.8906L9.82227 43H8.93359L8.93359 35.8906H9.82227ZM11.6924 35.8906V36.6621H7.06836V35.8906H11.6924ZM13.499 42.4531L14.6758 37.7168H15.5938L13.8506 43.8154C13.8083 43.9456 13.7513 44.0856 13.6797 44.2354C13.6113 44.3883 13.5234 44.5332 13.416 44.6699C13.3086 44.8066 13.18 44.9173 13.0303 45.002C12.8805 45.0898 12.7048 45.1338 12.5029 45.1338C12.4411 45.1338 12.3613 45.124 12.2637 45.1045C12.1693 45.085 12.1009 45.0687 12.0586 45.0557V44.3232C12.0781 44.3265 12.109 44.3298 12.1514 44.333C12.1937 44.3395 12.2246 44.3428 12.2441 44.3428C12.4134 44.3428 12.5566 44.3151 12.6738 44.2598C12.7943 44.2077 12.8968 44.1182 12.9814 43.9912C13.0661 43.8675 13.1377 43.6966 13.1963 43.4785L13.499 42.4531ZM12.7373 37.7168L13.7871 41.8184L14.0117 42.7705L13.3965 43.1025L11.7949 37.7168H12.7373ZM17.3076 38.7324V45.0312H16.4434V37.7168H17.2295L17.3076 38.7324ZM20.2617 40.1191V40.6123C20.2617 41.029 20.2227 41.3936 20.1445 41.7061C20.0697 42.0153 19.9574 42.2741 19.8076 42.4824C19.6611 42.6875 19.4805 42.8421 19.2656 42.9463C19.0508 43.0472 18.805 43.0977 18.5283 43.0977C18.2516 43.0977 18.0107 43.0456 17.8057 42.9414C17.6038 42.834 17.4329 42.6794 17.293 42.4775C17.1562 42.2757 17.0472 42.0332 16.9658 41.75C16.8877 41.4635 16.834 41.1429 16.8047 40.7881V40.0361C16.834 39.6618 16.8877 39.3265 16.9658 39.0303C17.0439 38.7308 17.1514 38.4769 17.2881 38.2686C17.4281 38.057 17.599 37.8958 17.8008 37.7852C18.0059 37.6745 18.2451 37.6191 18.5186 37.6191C18.8018 37.6191 19.0508 37.668 19.2656 37.7656C19.4837 37.8633 19.666 38.0146 19.8125 38.2197C19.9622 38.4215 20.0745 38.6803 20.1494 38.9961C20.2243 39.3086 20.2617 39.6829 20.2617 40.1191ZM19.3975 40.6123V40.1191C19.3975 39.8262 19.3747 39.5706 19.3291 39.3525C19.2868 39.1344 19.2184 38.9538 19.124 38.8105C19.0296 38.6673 18.9108 38.5599 18.7676 38.4883C18.6243 38.4167 18.4518 38.3809 18.25 38.3809C18.0775 38.3809 17.9245 38.4167 17.791 38.4883C17.6608 38.5599 17.5485 38.6576 17.4541 38.7812C17.3597 38.9017 17.2816 39.04 17.2197 39.1963C17.1579 39.3493 17.1123 39.5088 17.083 39.6748V41.1543C17.1383 41.3626 17.2116 41.5596 17.3027 41.7451C17.3939 41.9274 17.516 42.0755 17.6689 42.1895C17.8252 42.3034 18.0221 42.3604 18.2598 42.3604C18.4583 42.3604 18.6292 42.3245 18.7725 42.2529C18.9157 42.1813 19.0329 42.0739 19.124 41.9307C19.2184 41.7842 19.2868 41.6019 19.3291 41.3838C19.3747 41.1624 19.3975 40.9053 19.3975 40.6123ZM26.4385 41.9746V35.5H27.2979V43H26.5117L26.4385 41.9746ZM23.4844 40.6123V40.1191C23.4844 39.6829 23.5267 39.3086 23.6113 38.9961C23.696 38.6803 23.8164 38.4215 23.9727 38.2197C24.1289 38.0146 24.3161 37.8633 24.5342 37.7656C24.7523 37.668 24.9932 37.6191 25.2568 37.6191C25.5303 37.6191 25.7646 37.6745 25.96 37.7852C26.1585 37.8958 26.3245 38.057 26.458 38.2686C26.5915 38.4769 26.6956 38.7308 26.7705 39.0303C26.8486 39.3265 26.9007 39.6618 26.9268 40.0361V40.6953C26.8975 41.0664 26.8438 41.4001 26.7656 41.6963C26.6908 41.9925 26.5866 42.2448 26.4531 42.4531C26.3197 42.6615 26.1536 42.821 25.9551 42.9316C25.7565 43.0423 25.5205 43.0977 25.2471 43.0977C24.9867 43.0977 24.749 43.0472 24.5342 42.9463C24.3193 42.8421 24.1322 42.6875 23.9727 42.4824C23.8164 42.2741 23.696 42.0153 23.6113 41.7061C23.5267 41.3936 23.4844 41.029 23.4844 40.6123ZM24.3486 40.1191V40.6123C24.3486 40.9053 24.3698 41.1608 24.4121 41.3789C24.4544 41.5938 24.5212 41.7728 24.6123 41.916C24.7035 42.056 24.819 42.1602 24.959 42.2285C25.1022 42.2969 25.2731 42.3311 25.4717 42.3311C25.7126 42.3311 25.9095 42.2725 26.0625 42.1553C26.2155 42.0381 26.3376 41.8835 26.4287 41.6914C26.5231 41.4961 26.598 41.2861 26.6533 41.0615V39.6748C26.6208 39.5088 26.5736 39.3493 26.5117 39.1963C26.4499 39.04 26.3717 38.9017 26.2773 38.7812C26.1862 38.6576 26.0739 38.5599 25.9404 38.4883C25.8102 38.4167 25.6572 38.3809 25.4814 38.3809C25.2829 38.3809 25.1104 38.4167 24.9639 38.4883C24.8206 38.5599 24.7035 38.6673 24.6123 38.8105C24.5244 38.9538 24.4577 39.1344 24.4121 39.3525C24.3698 39.5706 24.3486 39.8262 24.3486 40.1191ZM30.5205 43.0977C30.2048 43.0977 29.9199 43.0505 29.666 42.9561C29.4121 42.8617 29.1956 42.7184 29.0166 42.5264C28.8376 42.3311 28.7008 42.0853 28.6064 41.7891C28.512 41.4928 28.4648 41.1429 28.4648 40.7393V40.1436C28.4648 39.6781 28.5186 39.2842 28.626 38.9619C28.7367 38.6396 28.8848 38.3809 29.0703 38.1855C29.2559 37.987 29.4658 37.8437 29.7002 37.7559C29.9346 37.6647 30.1755 37.6191 30.4229 37.6191C30.7549 37.6191 31.0381 37.6729 31.2725 37.7803C31.5068 37.8877 31.6973 38.0472 31.8438 38.2588C31.9902 38.4704 32.0977 38.7308 32.166 39.04C32.2376 39.3493 32.2734 39.7057 32.2734 40.1094V40.6123H28.9727V39.875H31.4092V39.7529C31.3962 39.4795 31.3587 39.2386 31.2969 39.0303C31.2383 38.8219 31.1406 38.6592 31.0039 38.542C30.8672 38.4215 30.6735 38.3613 30.4229 38.3613C30.2633 38.3613 30.1152 38.389 29.9785 38.4443C29.8451 38.4964 29.7295 38.5892 29.6318 38.7227C29.5374 38.8529 29.4626 39.0335 29.4072 39.2646C29.3551 39.4958 29.3291 39.7887 29.3291 40.1436V40.7393C29.3291 41.0225 29.3551 41.2666 29.4072 41.4717C29.4626 41.6735 29.5423 41.8411 29.6465 41.9746C29.7539 42.1048 29.8841 42.2025 30.0371 42.2676C30.1934 42.3294 30.3708 42.3604 30.5693 42.3604C30.859 42.3604 31.0983 42.305 31.2871 42.1943C31.4759 42.0804 31.6403 41.9355 31.7803 41.7598L32.2344 42.3018C32.14 42.4352 32.0163 42.5638 31.8633 42.6875C31.7135 42.8079 31.528 42.9072 31.3066 42.9854C31.0885 43.0602 30.8265 43.0977 30.5205 43.0977ZM35.8818 41.6475C35.8818 41.514 35.8493 41.3968 35.7842 41.2959C35.7191 41.195 35.6117 41.0973 35.4619 41.0029C35.3154 40.9085 35.1169 40.8076 34.8662 40.7002C34.6221 40.5993 34.4023 40.5 34.207 40.4023C34.015 40.3014 33.8522 40.1924 33.7188 40.0752C33.5853 39.958 33.4827 39.8229 33.4111 39.6699C33.3428 39.5137 33.3086 39.3298 33.3086 39.1182C33.3086 38.9066 33.3477 38.7113 33.4258 38.5322C33.5072 38.3499 33.6211 38.1904 33.7676 38.0537C33.9141 37.917 34.0898 37.8112 34.2949 37.7363C34.5 37.6582 34.7295 37.6191 34.9834 37.6191C35.3447 37.6191 35.6523 37.6891 35.9062 37.8291C36.1602 37.9691 36.3538 38.1611 36.4873 38.4053C36.624 38.6462 36.6924 38.918 36.6924 39.2207H35.833C35.833 39.0742 35.8005 38.9359 35.7354 38.8057C35.6702 38.6755 35.5742 38.5697 35.4473 38.4883C35.3203 38.4036 35.1657 38.3613 34.9834 38.3613C34.7913 38.3613 34.6351 38.3955 34.5146 38.4639C34.3942 38.5322 34.3063 38.6217 34.251 38.7324C34.1989 38.8398 34.1729 38.9587 34.1729 39.0889C34.1729 39.1865 34.1859 39.2712 34.2119 39.3428C34.2412 39.4111 34.29 39.4762 34.3584 39.5381C34.4268 39.5967 34.5195 39.6585 34.6367 39.7236C34.7572 39.7855 34.9102 39.8571 35.0957 39.9385C35.4538 40.0785 35.7549 40.2201 35.999 40.3633C36.2432 40.5065 36.4287 40.6742 36.5557 40.8662C36.6826 41.0583 36.7461 41.2959 36.7461 41.5791C36.7461 41.8102 36.7038 42.0202 36.6191 42.209C36.5378 42.3945 36.4206 42.554 36.2676 42.6875C36.1146 42.821 35.9307 42.9235 35.7158 42.9951C35.5042 43.0635 35.2666 43.0977 35.0029 43.0977C34.6058 43.0977 34.2689 43.0195 33.9922 42.8633C33.7188 42.7038 33.5104 42.4971 33.3672 42.2432C33.2272 41.986 33.1572 41.7109 33.1572 41.418H34.0215C34.0312 41.6654 34.0866 41.8574 34.1875 41.9941C34.2917 42.1309 34.417 42.2253 34.5635 42.2773C34.71 42.3294 34.8564 42.3555 35.0029 42.3555C35.195 42.3555 35.3561 42.3278 35.4863 42.2725C35.6165 42.2139 35.7142 42.1309 35.7793 42.0234C35.8477 41.916 35.8818 41.7907 35.8818 41.6475ZM3.85547 47.5205L1.91211 54H0.994141L3.28418 46.8906H3.86035L3.85547 47.5205ZM5.42773 54L3.48438 47.5205L3.47461 46.8906H4.05566L6.3457 54H5.42773ZM5.42773 51.3682V52.1396H2L2 51.3682H5.42773ZM9.81738 52.7793L9.81738 48.7168H10.6816L10.6816 54H9.86133L9.81738 52.7793ZM9.97852 51.666L10.3203 51.6562C10.3203 52.0078 10.2894 52.3333 10.2275 52.6328C10.1689 52.929 10.0713 53.1862 9.93457 53.4043C9.80111 53.6224 9.6237 53.7933 9.40234 53.917C9.18099 54.0374 8.90918 54.0977 8.58691 54.0977C8.36882 54.0977 8.17025 54.0602 7.99121 53.9854C7.81543 53.9105 7.66243 53.7949 7.53223 53.6387C7.40527 53.4824 7.30599 53.279 7.23438 53.0283C7.16602 52.7777 7.13184 52.4766 7.13184 52.125V48.7168H7.99121V52.1348C7.99121 52.3724 8.01237 52.5693 8.05469 52.7256C8.09701 52.8786 8.15397 53.0007 8.22559 53.0918C8.2972 53.1797 8.37695 53.2415 8.46484 53.2773C8.55273 53.3132 8.64225 53.3311 8.7334 53.3311C9.03939 53.3311 9.28353 53.2578 9.46582 53.1113C9.64811 52.9616 9.77832 52.7614 9.85645 52.5107C9.93783 52.2568 9.97852 51.9753 9.97852 51.666ZM13.2256 54H12.3613L12.3613 48.1602C12.3613 47.7793 12.4215 47.4587 12.542 47.1982C12.6657 46.9346 12.8398 46.736 13.0645 46.6025C13.2923 46.4658 13.5625 46.3975 13.875 46.3975C13.9629 46.3975 14.0508 46.404 14.1387 46.417C14.2298 46.43 14.3161 46.4495 14.3975 46.4756L14.3584 47.2129C14.3063 47.1966 14.2428 47.1852 14.168 47.1787C14.0964 47.1722 14.028 47.1689 13.9629 47.1689C13.8066 47.1689 13.6732 47.208 13.5625 47.2861C13.4518 47.361 13.3672 47.4717 13.3086 47.6182C13.2533 47.7646 13.2256 47.9453 13.2256 48.1602L13.2256 54ZM14.124 48.7168V49.4102H11.6729V48.7168H14.124ZM16.0137 46.5V54H15.1494L15.1494 46.5H16.0137ZM18.6943 48.7168L16.8145 51.1826L15.6523 52.5205L15.5938 51.5586L16.3945 50.4551L17.6543 48.7168H18.6943ZM17.9033 54L16.4189 51.4805L16.8633 50.6748L18.9092 54H17.9033ZM20.584 46.5V54H19.7246V46.5H20.584ZM23.8408 54.0977C23.5251 54.0977 23.2402 54.0505 22.9863 53.9561C22.7324 53.8617 22.516 53.7184 22.3369 53.5264C22.1579 53.3311 22.0212 53.0853 21.9268 52.7891C21.8324 52.4928 21.7852 52.1429 21.7852 51.7393V51.1436C21.7852 50.6781 21.8389 50.2842 21.9463 49.9619C22.057 49.6396 22.2051 49.3809 22.3906 49.1855C22.5762 48.987 22.7861 48.8438 23.0205 48.7559C23.2549 48.6647 23.4958 48.6191 23.7432 48.6191C24.0752 48.6191 24.3584 48.6729 24.5928 48.7803C24.8271 48.8877 25.0176 49.0472 25.1641 49.2588C25.3105 49.4704 25.418 49.7308 25.4863 50.04C25.5579 50.3493 25.5938 50.7057 25.5938 51.1094V51.6123H22.293V50.875H24.7295V50.7529C24.7165 50.4795 24.679 50.2386 24.6172 50.0303C24.5586 49.8219 24.4609 49.6592 24.3242 49.542C24.1875 49.4215 23.9938 49.3613 23.7432 49.3613C23.5837 49.3613 23.4355 49.389 23.2988 49.4443C23.1654 49.4964 23.0498 49.5892 22.9521 49.7227C22.8577 49.8529 22.7829 50.0335 22.7275 50.2646C22.6755 50.4958 22.6494 50.7887 22.6494 51.1436V51.7393C22.6494 52.0225 22.6755 52.2666 22.7275 52.4717C22.7829 52.6735 22.8626 52.8411 22.9668 52.9746C23.0742 53.1048 23.2044 53.2025 23.3574 53.2676C23.5137 53.3294 23.6911 53.3604 23.8896 53.3604C24.1794 53.3604 24.4186 53.305 24.6074 53.1943C24.7962 53.0804 24.9606 52.9355 25.1006 52.7598L25.5547 53.3018C25.4603 53.4352 25.3366 53.5638 25.1836 53.6875C25.0339 53.8079 24.8483 53.9072 24.627 53.9854C24.4089 54.0602 24.1468 54.0977 23.8408 54.0977ZM26.6387 46.5H27.5029V52.9746L27.4297 54H26.6387V46.5ZM30.4668 51.1191V51.6123C30.4668 52.029 30.4277 52.3936 30.3496 52.7061C30.2747 53.0153 30.1624 53.2741 30.0127 53.4824C29.863 53.6875 29.6807 53.8421 29.4658 53.9463C29.251 54.0472 29.0052 54.0977 28.7285 54.0977C28.4551 54.0977 28.2191 54.0423 28.0205 53.9316C27.8219 53.821 27.6559 53.6615 27.5225 53.4531C27.389 53.2448 27.2832 52.9925 27.2051 52.6963C27.1302 52.4001 27.0781 52.0664 27.0488 51.6953V51.0361C27.0781 50.6618 27.1302 50.3265 27.2051 50.0303C27.2799 49.7308 27.3841 49.4769 27.5176 49.2686C27.651 49.057 27.8171 48.8958 28.0156 48.7852C28.2142 48.6745 28.4502 48.6191 28.7236 48.6191C29.0036 48.6191 29.251 48.668 29.4658 48.7656C29.6839 48.8633 29.8662 49.0146 30.0127 49.2197C30.1624 49.4215 30.2747 49.6803 30.3496 49.9961C30.4277 50.3086 30.4668 50.6829 30.4668 51.1191ZM29.6025 51.6123V51.1191C29.6025 50.8262 29.583 50.5706 29.5439 50.3525C29.5081 50.1344 29.4479 49.9538 29.3633 49.8105C29.2786 49.6673 29.1647 49.5599 29.0215 49.4883C28.8815 49.4167 28.7074 49.3809 28.499 49.3809C28.3232 49.3809 28.1686 49.4167 28.0352 49.4883C27.9049 49.5599 27.7926 49.6576 27.6982 49.7812C27.6038 49.9017 27.5257 50.04 27.4639 50.1963C27.402 50.3493 27.3564 50.5088 27.3271 50.6748V52.0615C27.3695 52.2731 27.4362 52.4766 27.5273 52.6719C27.6217 52.8639 27.7487 53.0218 27.9082 53.1455C28.0677 53.2692 28.2663 53.3311 28.5039 53.3311C28.7025 53.3311 28.8701 53.2969 29.0068 53.2285C29.1468 53.1602 29.2607 53.056 29.3486 52.916C29.4365 52.7728 29.5 52.5938 29.5391 52.3789C29.5814 52.1608 29.6025 51.9053 29.6025 51.6123ZM33.46 54.0977C33.1442 54.0977 32.8594 54.0505 32.6055 53.9561C32.3516 53.8617 32.1351 53.7184 31.9561 53.5264C31.777 53.3311 31.6403 53.0853 31.5459 52.7891C31.4515 52.4928 31.4043 52.1429 31.4043 51.7393V51.1436C31.4043 50.6781 31.458 50.2842 31.5654 49.9619C31.6761 49.6396 31.8242 49.3809 32.0098 49.1855C32.1953 48.987 32.4053 48.8437 32.6396 48.7559C32.874 48.6647 33.1149 48.6191 33.3623 48.6191C33.6943 48.6191 33.9775 48.6729 34.2119 48.7803C34.4463 48.8877 34.6367 49.0472 34.7832 49.2588C34.9297 49.4704 35.0371 49.7308 35.1055 50.04C35.1771 50.3493 35.2129 50.7057 35.2129 51.1094V51.6123L31.9121 51.6123V50.875L34.3486 50.875V50.7529C34.3356 50.4795 34.2982 50.2386 34.2363 50.0303C34.1777 49.8219 34.0801 49.6592 33.9434 49.542C33.8066 49.4215 33.613 49.3613 33.3623 49.3613C33.2028 49.3613 33.0547 49.389 32.918 49.4443C32.7845 49.4964 32.6689 49.5892 32.5713 49.7227C32.4769 49.8529 32.402 50.0335 32.3467 50.2646C32.2946 50.4958 32.2686 50.7887 32.2686 51.1436V51.7393C32.2686 52.0225 32.2946 52.2666 32.3467 52.4717C32.402 52.6735 32.4818 52.8411 32.5859 52.9746C32.6934 53.1048 32.8236 53.2025 32.9766 53.2676C33.1328 53.3294 33.3102 53.3604 33.5088 53.3604C33.7985 53.3604 34.0378 53.305 34.2266 53.1943C34.4154 53.0804 34.5798 52.9355 34.7197 52.7598L35.1738 53.3018C35.0794 53.4352 34.9557 53.5638 34.8027 53.6875C34.653 53.8079 34.4674 53.9072 34.2461 53.9854C34.028 54.0602 33.766 54.0977 33.46 54.0977ZM37.1221 49.5469V54H36.2578V48.7168H37.0928L37.1221 49.5469ZM38.4355 48.6875L38.4404 49.5273C38.3688 49.5111 38.3037 49.5013 38.2451 49.498C38.1898 49.4915 38.1247 49.4883 38.0498 49.4883C37.887 49.4883 37.7438 49.5208 37.6201 49.5859C37.4997 49.651 37.3955 49.7422 37.3076 49.8594C37.2197 49.9766 37.1497 50.1165 37.0977 50.2793C37.0456 50.4388 37.0098 50.6146 36.9902 50.8066L36.7656 50.9531C36.7656 50.6341 36.79 50.3346 36.8389 50.0547C36.891 49.7747 36.9707 49.5273 37.0781 49.3125C37.1855 49.0944 37.3223 48.9251 37.4883 48.8047C37.6576 48.681 37.8594 48.6191 38.0938 48.6191C38.1458 48.6191 38.2093 48.6273 38.2842 48.6436C38.3623 48.6566 38.4128 48.6712 38.4355 48.6875ZM41.8682 52.6475C41.8682 52.514 41.8356 52.3968 41.7705 52.2959C41.7054 52.195 41.598 52.0973 41.4482 52.0029C41.3018 51.9085 41.1032 51.8076 40.8525 51.7002C40.6084 51.5993 40.3887 51.5 40.1934 51.4023C40.0013 51.3014 39.8385 51.1924 39.7051 51.0752C39.5716 50.958 39.4691 50.8229 39.3975 50.6699C39.3291 50.5137 39.2949 50.3298 39.2949 50.1182C39.2949 49.9066 39.334 49.7113 39.4121 49.5322C39.4935 49.3499 39.6074 49.1904 39.7539 49.0537C39.9004 48.917 40.0762 48.8112 40.2812 48.7363C40.4863 48.6582 40.7158 48.6191 40.9697 48.6191C41.3311 48.6191 41.6387 48.6891 41.8926 48.8291C42.1465 48.9691 42.3402 49.1611 42.4736 49.4053C42.6104 49.6462 42.6787 49.918 42.6787 50.2207H41.8193C41.8193 50.0742 41.7868 49.9359 41.7217 49.8057C41.6566 49.6755 41.5605 49.5697 41.4336 49.4883C41.3066 49.4036 41.152 49.3613 40.9697 49.3613C40.7777 49.3613 40.6214 49.3955 40.501 49.4639C40.3805 49.5322 40.2926 49.6217 40.2373 49.7324C40.1852 49.8398 40.1592 49.9587 40.1592 50.0889C40.1592 50.1865 40.1722 50.2712 40.1982 50.3428C40.2275 50.4111 40.2764 50.4762 40.3447 50.5381C40.4131 50.5967 40.5059 50.6585 40.623 50.7236C40.7435 50.7855 40.8965 50.8571 41.082 50.9385C41.4401 51.0785 41.7412 51.2201 41.9854 51.3633C42.2295 51.5065 42.415 51.6742 42.542 51.8662C42.6689 52.0583 42.7324 52.2959 42.7324 52.5791C42.7324 52.8102 42.6901 53.0202 42.6055 53.209C42.5241 53.3945 42.4069 53.554 42.2539 53.6875C42.1009 53.821 41.917 53.9235 41.7021 53.9951C41.4906 54.0635 41.2529 54.0977 40.9893 54.0977C40.5921 54.0977 40.2552 54.0195 39.9785 53.8633C39.7051 53.7038 39.4967 53.4971 39.3535 53.2432C39.2135 52.986 39.1436 52.7109 39.1436 52.418H40.0078C40.0176 52.6654 40.0729 52.8574 40.1738 52.9941C40.278 53.1309 40.4033 53.2253 40.5498 53.2773C40.6963 53.3294 40.8428 53.3555 40.9893 53.3555C41.1813 53.3555 41.3424 53.3278 41.4727 53.2725C41.6029 53.2139 41.7005 53.1309 41.7656 53.0234C41.834 52.916 41.8682 52.7907 41.8682 52.6475Z" fill="url(#paint0_linear_1406_1469)"/>
<path d="M89.1221 41.5205L87.1787 48H86.2607L88.5508 40.8906H89.127L89.1221 41.5205ZM90.6943 48L88.751 41.5205L88.7412 40.8906H89.3223L91.6123 48H90.6943ZM90.6943 45.3682V46.1396H87.2666V45.3682H90.6943ZM95.084 46.7793V42.7168H95.9482V48H95.1279L95.084 46.7793ZM95.2451 45.666L95.5869 45.6562C95.5869 46.0078 95.556 46.3333 95.4941 46.6328C95.4355 46.929 95.3379 47.1862 95.2012 47.4043C95.0677 47.6224 94.8903 47.7933 94.6689 47.917C94.4476 48.0374 94.1758 48.0977 93.8535 48.0977C93.6354 48.0977 93.4368 48.0602 93.2578 47.9854C93.082 47.9105 92.929 47.7949 92.7988 47.6387C92.6719 47.4824 92.5726 47.279 92.501 47.0283C92.4326 46.7777 92.3984 46.4766 92.3984 46.125V42.7168H93.2578V46.1348C93.2578 46.3724 93.279 46.5693 93.3213 46.7256C93.3636 46.8786 93.4206 47.0007 93.4922 47.0918C93.5638 47.1797 93.6436 47.2415 93.7314 47.2773C93.8193 47.3132 93.9089 47.3311 94 47.3311C94.306 47.3311 94.5501 47.2578 94.7324 47.1113C94.9147 46.9616 95.0449 46.7614 95.123 46.5107C95.2044 46.2568 95.2451 45.9753 95.2451 45.666ZM99.1758 42.7168V43.4102H96.71V42.7168H99.1758ZM97.5156 41.4326H98.3799V46.6914C98.3799 46.8704 98.401 47.0055 98.4434 47.0967C98.4889 47.1878 98.5459 47.248 98.6143 47.2773C98.6826 47.3066 98.7559 47.3213 98.834 47.3213C98.8926 47.3213 98.9577 47.3148 99.0293 47.3018C99.1009 47.2855 99.1497 47.2725 99.1758 47.2627L99.1709 48C99.1123 48.0228 99.0342 48.0439 98.9365 48.0635C98.8389 48.0863 98.7152 48.0977 98.5654 48.0977C98.3799 48.0977 98.2074 48.0537 98.0479 47.9658C97.8883 47.8779 97.7598 47.7314 97.6621 47.5264C97.5645 47.318 97.5156 47.0381 97.5156 46.6865V41.4326ZM99.9277 45.6123V45.1094C99.9277 44.6992 99.9798 44.3395 100.084 44.0303C100.188 43.7178 100.333 43.4574 100.519 43.249C100.704 43.0407 100.921 42.8844 101.168 42.7803C101.415 42.6729 101.681 42.6191 101.964 42.6191C102.254 42.6191 102.522 42.6729 102.77 42.7803C103.017 42.8844 103.233 43.0407 103.419 43.249C103.608 43.4574 103.754 43.7178 103.858 44.0303C103.963 44.3395 104.015 44.6992 104.015 45.1094V45.6123C104.015 46.0225 103.963 46.3838 103.858 46.6963C103.754 47.0055 103.609 47.2643 103.424 47.4727C103.238 47.681 103.022 47.8372 102.774 47.9414C102.527 48.0456 102.26 48.0977 101.974 48.0977C101.687 48.0977 101.42 48.0456 101.173 47.9414C100.925 47.8372 100.707 47.681 100.519 47.4727C100.333 47.2643 100.188 47.0055 100.084 46.6963C99.9798 46.3838 99.9277 46.0225 99.9277 45.6123ZM100.792 45.1094V45.6123C100.792 45.902 100.821 46.1559 100.88 46.374C100.938 46.5921 101.021 46.7744 101.129 46.9209C101.236 47.0674 101.362 47.1781 101.505 47.2529C101.648 47.3245 101.804 47.3604 101.974 47.3604C102.169 47.3604 102.34 47.3245 102.486 47.2529C102.636 47.1781 102.76 47.0674 102.857 46.9209C102.955 46.7744 103.028 46.5921 103.077 46.374C103.126 46.1559 103.15 45.902 103.15 45.6123V45.1094C103.15 44.8197 103.121 44.5674 103.062 44.3525C103.004 44.1344 102.921 43.9521 102.813 43.8057C102.706 43.6559 102.579 43.5452 102.433 43.4736C102.289 43.3988 102.133 43.3613 101.964 43.3613C101.798 43.3613 101.643 43.3988 101.5 43.4736C101.357 43.5452 101.231 43.6559 101.124 43.8057C101.02 43.9521 100.938 44.1344 100.88 44.3525C100.821 44.5674 100.792 44.8197 100.792 45.1094ZM105.992 43.8447V48H105.128V42.7168H105.943L105.992 43.8447ZM105.782 45.1582L105.431 45.1436C105.427 44.7822 105.468 44.4486 105.553 44.1426C105.641 43.8333 105.764 43.5648 105.924 43.3369C106.087 43.109 106.28 42.9333 106.505 42.8096C106.729 42.6826 106.979 42.6191 107.252 42.6191C107.467 42.6191 107.662 42.6549 107.838 42.7266C108.014 42.7949 108.163 42.9056 108.287 43.0586C108.411 43.2116 108.505 43.4102 108.57 43.6543C108.639 43.8952 108.673 44.1898 108.673 44.5381V48H107.809V44.5283C107.809 44.2516 107.778 44.0303 107.716 43.8643C107.657 43.695 107.566 43.5729 107.442 43.498C107.322 43.4199 107.169 43.3809 106.983 43.3809C106.814 43.3809 106.656 43.4281 106.51 43.5225C106.363 43.6169 106.235 43.7471 106.124 43.9131C106.017 44.0791 105.932 44.2695 105.87 44.4844C105.812 44.696 105.782 44.9206 105.782 45.1582ZM112.643 46.7793V42.7168H113.507V48H112.687L112.643 46.7793ZM112.804 45.666L113.146 45.6562C113.146 46.0078 113.115 46.3333 113.053 46.6328C112.994 46.929 112.896 47.1862 112.76 47.4043C112.626 47.6224 112.449 47.7933 112.228 47.917C112.006 48.0374 111.734 48.0977 111.412 48.0977C111.194 48.0977 110.995 48.0602 110.816 47.9854C110.641 47.9105 110.488 47.7949 110.357 47.6387C110.23 47.4824 110.131 47.279 110.06 47.0283C109.991 46.7777 109.957 46.4766 109.957 46.125V42.7168H110.816V46.1348C110.816 46.3724 110.838 46.5693 110.88 46.7256C110.922 46.8786 110.979 47.0007 111.051 47.0918C111.122 47.1797 111.202 47.2415 111.29 47.2773C111.378 47.3132 111.467 47.3311 111.559 47.3311C111.865 47.3311 112.109 47.2578 112.291 47.1113C112.473 46.9616 112.604 46.7614 112.682 46.5107C112.763 46.2568 112.804 45.9753 112.804 45.666ZM115.67 43.7666V48H114.811V42.7168H115.621L115.67 43.7666ZM115.494 45.1582L115.094 45.1436C115.09 44.7822 115.126 44.4486 115.201 44.1426C115.276 43.8333 115.388 43.5648 115.538 43.3369C115.691 43.109 115.882 42.9333 116.109 42.8096C116.34 42.6826 116.609 42.6191 116.915 42.6191C117.117 42.6191 117.304 42.6549 117.477 42.7266C117.652 42.7949 117.805 42.904 117.936 43.0537C118.066 43.2035 118.167 43.3955 118.238 43.6299C118.313 43.8643 118.351 44.1475 118.351 44.4795V48H117.486V44.5234C117.486 44.2467 117.449 44.0254 117.374 43.8594C117.302 43.6934 117.2 43.5729 117.066 43.498C116.933 43.4199 116.773 43.3809 116.588 43.3809C116.376 43.3809 116.199 43.4281 116.056 43.5225C115.916 43.6169 115.803 43.7471 115.719 43.9131C115.637 44.0791 115.579 44.2695 115.543 44.4844C115.51 44.696 115.494 44.9206 115.494 45.1582ZM118.341 44.6602L117.765 44.8457C117.761 44.556 117.797 44.2777 117.872 44.0107C117.947 43.7438 118.058 43.5062 118.204 43.2979C118.354 43.0895 118.539 42.9251 118.761 42.8047C118.982 42.681 119.239 42.6191 119.532 42.6191C119.773 42.6191 119.986 42.6566 120.172 42.7314C120.357 42.8063 120.514 42.9219 120.641 43.0781C120.771 43.2311 120.868 43.4281 120.934 43.6689C120.999 43.9098 121.031 44.1963 121.031 44.5283V48H120.167V44.5186C120.167 44.2223 120.13 43.9928 120.055 43.8301C119.983 43.6641 119.881 43.5485 119.747 43.4834C119.614 43.415 119.454 43.3809 119.269 43.3809C119.119 43.3809 118.985 43.415 118.868 43.4834C118.754 43.5518 118.658 43.6462 118.58 43.7666C118.502 43.8838 118.442 44.0189 118.399 44.1719C118.36 44.3249 118.341 44.4876 118.341 44.6602ZM123.199 43.7666V48H122.34V42.7168H123.15L123.199 43.7666ZM123.023 45.1582L122.623 45.1436C122.62 44.7822 122.656 44.4486 122.73 44.1426C122.805 43.8333 122.918 43.5648 123.067 43.3369C123.22 43.109 123.411 42.9333 123.639 42.8096C123.87 42.6826 124.138 42.6191 124.444 42.6191C124.646 42.6191 124.833 42.6549 125.006 42.7266C125.182 42.7949 125.335 42.904 125.465 43.0537C125.595 43.2035 125.696 43.3955 125.768 43.6299C125.842 43.8643 125.88 44.1475 125.88 44.4795V48H125.016V44.5234C125.016 44.2467 124.978 44.0254 124.903 43.8594C124.832 43.6934 124.729 43.5729 124.596 43.498C124.462 43.4199 124.303 43.3809 124.117 43.3809C123.906 43.3809 123.728 43.4281 123.585 43.5225C123.445 43.6169 123.333 43.7471 123.248 43.9131C123.167 44.0791 123.108 44.2695 123.072 44.4844C123.04 44.696 123.023 44.9206 123.023 45.1582ZM125.87 44.6602L125.294 44.8457C125.291 44.556 125.326 44.2777 125.401 44.0107C125.476 43.7438 125.587 43.5062 125.733 43.2979C125.883 43.0895 126.069 42.9251 126.29 42.8047C126.511 42.681 126.769 42.6191 127.062 42.6191C127.302 42.6191 127.516 42.6566 127.701 42.7314C127.887 42.8063 128.043 42.9219 128.17 43.0781C128.3 43.2311 128.398 43.4281 128.463 43.6689C128.528 43.9098 128.561 44.1963 128.561 44.5283V48H127.696V44.5186C127.696 44.2223 127.659 43.9928 127.584 43.8301C127.512 43.6641 127.41 43.5485 127.276 43.4834C127.143 43.415 126.983 43.3809 126.798 43.3809C126.648 43.3809 126.515 43.415 126.397 43.4834C126.284 43.5518 126.188 43.6462 126.109 43.7666C126.031 43.8838 125.971 44.0189 125.929 44.1719C125.89 44.3249 125.87 44.4876 125.87 44.6602ZM131.754 48.0977C131.438 48.0977 131.153 48.0505 130.899 47.9561C130.646 47.8617 130.429 47.7184 130.25 47.5264C130.071 47.3311 129.934 47.0853 129.84 46.7891C129.745 46.4928 129.698 46.1429 129.698 45.7393V45.1436C129.698 44.6781 129.752 44.2842 129.859 43.9619C129.97 43.6396 130.118 43.3809 130.304 43.1855C130.489 42.987 130.699 42.8437 130.934 42.7559C131.168 42.6647 131.409 42.6191 131.656 42.6191C131.988 42.6191 132.271 42.6729 132.506 42.7803C132.74 42.8877 132.931 43.0472 133.077 43.2588C133.224 43.4704 133.331 43.7308 133.399 44.04C133.471 44.3493 133.507 44.7057 133.507 45.1094V45.6123H130.206V44.875H132.643V44.7529C132.63 44.4795 132.592 44.2386 132.53 44.0303C132.472 43.8219 132.374 43.6592 132.237 43.542C132.101 43.4215 131.907 43.3613 131.656 43.3613C131.497 43.3613 131.349 43.389 131.212 43.4443C131.078 43.4964 130.963 43.5892 130.865 43.7227C130.771 43.8529 130.696 44.0335 130.641 44.2646C130.589 44.4958 130.562 44.7887 130.562 45.1436V45.7393C130.562 46.0225 130.589 46.2666 130.641 46.4717C130.696 46.6735 130.776 46.8411 130.88 46.9746C130.987 47.1048 131.118 47.2025 131.271 47.2676C131.427 47.3294 131.604 47.3604 131.803 47.3604C132.092 47.3604 132.332 47.305 132.521 47.1943C132.709 47.0804 132.874 46.9355 133.014 46.7598L133.468 47.3018C133.373 47.4352 133.25 47.5638 133.097 47.6875C132.947 47.8079 132.761 47.9072 132.54 47.9854C132.322 48.0602 132.06 48.0977 131.754 48.0977ZM135.416 43.5469V48H134.552V42.7168H135.387L135.416 43.5469ZM136.729 42.6875L136.734 43.5273C136.663 43.5111 136.598 43.5013 136.539 43.498C136.484 43.4915 136.419 43.4883 136.344 43.4883C136.181 43.4883 136.038 43.5208 135.914 43.5859C135.794 43.651 135.689 43.7422 135.602 43.8594C135.514 43.9766 135.444 44.1165 135.392 44.2793C135.34 44.4388 135.304 44.6146 135.284 44.8066L135.06 44.9531C135.06 44.6341 135.084 44.3346 135.133 44.0547C135.185 43.7747 135.265 43.5273 135.372 43.3125C135.479 43.0944 135.616 42.9251 135.782 42.8047C135.951 42.681 136.153 42.6191 136.388 42.6191C136.44 42.6191 136.503 42.6273 136.578 42.6436C136.656 42.6566 136.707 42.6712 136.729 42.6875Z" fill="url(#paint1_linear_1406_1469)"/>
<path d="M167.835 40.8906H169.822C170.285 40.8906 170.672 40.972 170.984 41.1348C171.3 41.2975 171.538 41.5384 171.697 41.8574C171.86 42.1732 171.941 42.5622 171.941 43.0244C171.941 43.3499 171.888 43.6478 171.78 43.918C171.673 44.1849 171.517 44.4128 171.312 44.6016C171.106 44.7871 170.857 44.9255 170.564 45.0166L170.32 45.1191H168.548L168.538 44.3525H169.812C170.086 44.3525 170.314 44.2939 170.496 44.1768C170.678 44.0563 170.815 43.8952 170.906 43.6934C170.997 43.4915 171.043 43.2686 171.043 43.0244C171.043 42.751 171.002 42.5117 170.921 42.3066C170.84 42.1016 170.709 41.9437 170.53 41.833C170.354 41.7191 170.118 41.6621 169.822 41.6621H168.733V48H167.835V40.8906ZM171.248 48L169.832 44.7773L170.765 44.7725L172.21 47.9414V48H171.248ZM174.915 48.0977C174.599 48.0977 174.314 48.0505 174.061 47.9561C173.807 47.8617 173.59 47.7184 173.411 47.5264C173.232 47.3311 173.095 47.0853 173.001 46.7891C172.907 46.4928 172.859 46.1429 172.859 45.7393V45.1436C172.859 44.6781 172.913 44.2842 173.021 43.9619C173.131 43.6396 173.279 43.3809 173.465 43.1855C173.65 42.987 173.86 42.8438 174.095 42.7559C174.329 42.6647 174.57 42.6191 174.817 42.6191C175.149 42.6191 175.433 42.6729 175.667 42.7803C175.901 42.8877 176.092 43.0472 176.238 43.2588C176.385 43.4704 176.492 43.7308 176.561 44.04C176.632 44.3493 176.668 44.7057 176.668 45.1094V45.6123H173.367V44.875H175.804V44.7529C175.791 44.4795 175.753 44.2386 175.691 44.0303C175.633 43.8219 175.535 43.6592 175.398 43.542C175.262 43.4215 175.068 43.3613 174.817 43.3613C174.658 43.3613 174.51 43.389 174.373 43.4443C174.24 43.4964 174.124 43.5892 174.026 43.7227C173.932 43.8529 173.857 44.0335 173.802 44.2646C173.75 44.4958 173.724 44.7887 173.724 45.1436V45.7393C173.724 46.0225 173.75 46.2666 173.802 46.4717C173.857 46.6735 173.937 46.8411 174.041 46.9746C174.148 47.1048 174.279 47.2025 174.432 47.2676C174.588 47.3294 174.765 47.3604 174.964 47.3604C175.254 47.3604 175.493 47.305 175.682 47.1943C175.87 47.0804 176.035 46.9355 176.175 46.7598L176.629 47.3018C176.535 47.4352 176.411 47.5638 176.258 47.6875C176.108 47.8079 175.923 47.9072 175.701 47.9854C175.483 48.0602 175.221 48.0977 174.915 48.0977ZM179.544 47.3604C179.716 47.3604 179.873 47.3262 180.013 47.2578C180.156 47.1862 180.273 47.0755 180.364 46.9258C180.455 46.7728 180.507 46.5742 180.521 46.3301H181.331C181.318 46.6816 181.229 46.9909 181.062 47.2578C180.9 47.5215 180.685 47.7282 180.418 47.8779C180.154 48.0244 179.863 48.0977 179.544 48.0977C179.202 48.0977 178.904 48.0423 178.65 47.9316C178.4 47.821 178.191 47.6615 178.025 47.4531C177.863 47.2415 177.741 46.986 177.659 46.6865C177.578 46.3838 177.537 46.0404 177.537 45.6562V45.0605C177.537 44.6764 177.578 44.3346 177.659 44.0352C177.741 43.7324 177.863 43.4769 178.025 43.2686C178.191 43.057 178.4 42.8958 178.65 42.7852C178.904 42.6745 179.202 42.6191 179.544 42.6191C179.902 42.6191 180.211 42.6956 180.472 42.8486C180.735 42.9984 180.94 43.2165 181.087 43.5029C181.237 43.7861 181.318 44.1296 181.331 44.5332H180.521C180.507 44.2728 180.46 44.0563 180.379 43.8838C180.298 43.708 180.187 43.5778 180.047 43.4932C179.907 43.4053 179.739 43.3613 179.544 43.3613C179.316 43.3613 179.127 43.402 178.978 43.4834C178.831 43.5615 178.715 43.6755 178.631 43.8252C178.546 43.9749 178.486 44.154 178.45 44.3623C178.418 44.5706 178.401 44.8034 178.401 45.0605V45.6562C178.401 45.9134 178.418 46.1478 178.45 46.3594C178.486 46.5677 178.545 46.7467 178.626 46.8965C178.711 47.0462 178.828 47.1618 178.978 47.2432C179.127 47.3213 179.316 47.3604 179.544 47.3604ZM183.196 40.5V48H182.332V40.5H183.196ZM182.986 45.1582L182.635 45.1436C182.632 44.7822 182.672 44.4486 182.757 44.1426C182.845 43.8333 182.968 43.5648 183.128 43.3369C183.291 43.109 183.484 42.9333 183.709 42.8096C183.934 42.6826 184.183 42.6191 184.456 42.6191C184.671 42.6191 184.866 42.6549 185.042 42.7266C185.218 42.7949 185.368 42.9056 185.491 43.0586C185.615 43.2116 185.709 43.4102 185.774 43.6543C185.843 43.8952 185.877 44.1898 185.877 44.5381V48H185.013V44.5283C185.013 44.2516 184.982 44.0303 184.92 43.8643C184.861 43.695 184.77 43.5729 184.646 43.498C184.526 43.4199 184.373 43.3809 184.188 43.3809C184.018 43.3809 183.86 43.4281 183.714 43.5225C183.567 43.6169 183.439 43.7471 183.328 43.9131C183.221 44.0791 183.136 44.2695 183.074 44.4844C183.016 44.696 182.986 44.9206 182.986 45.1582ZM188.03 43.8447V48H187.166V42.7168H187.981L188.03 43.8447ZM187.82 45.1582L187.469 45.1436C187.465 44.7822 187.506 44.4486 187.591 44.1426C187.679 43.8333 187.802 43.5648 187.962 43.3369C188.125 43.109 188.318 42.9333 188.543 42.8096C188.768 42.6826 189.017 42.6191 189.29 42.6191C189.505 42.6191 189.7 42.6549 189.876 42.7266C190.052 42.7949 190.201 42.9056 190.325 43.0586C190.449 43.2116 190.543 43.4102 190.608 43.6543C190.677 43.8952 190.711 44.1898 190.711 44.5381V48H189.847V44.5283C189.847 44.2516 189.816 44.0303 189.754 43.8643C189.695 43.695 189.604 43.5729 189.48 43.498C189.36 43.4199 189.207 43.3809 189.021 43.3809C188.852 43.3809 188.694 43.4281 188.548 43.5225C188.401 43.6169 188.273 43.7471 188.162 43.9131C188.055 44.0791 187.97 44.2695 187.908 44.4844C187.85 44.696 187.82 44.9206 187.82 45.1582ZM194.681 46.7793V42.7168H195.545V48H194.725L194.681 46.7793ZM194.842 45.666L195.184 45.6562C195.184 46.0078 195.153 46.3333 195.091 46.6328C195.032 46.929 194.935 47.1862 194.798 47.4043C194.664 47.6224 194.487 47.7933 194.266 47.917C194.044 48.0374 193.772 48.0977 193.45 48.0977C193.232 48.0977 193.034 48.0602 192.854 47.9854C192.679 47.9105 192.526 47.7949 192.396 47.6387C192.269 47.4824 192.169 47.279 192.098 47.0283C192.029 46.7777 191.995 46.4766 191.995 46.125V42.7168H192.854V46.1348C192.854 46.3724 192.876 46.5693 192.918 46.7256C192.96 46.8786 193.017 47.0007 193.089 47.0918C193.16 47.1797 193.24 47.2415 193.328 47.2773C193.416 47.3132 193.506 47.3311 193.597 47.3311C193.903 47.3311 194.147 47.2578 194.329 47.1113C194.511 46.9616 194.642 46.7614 194.72 46.5107C194.801 46.2568 194.842 45.9753 194.842 45.666ZM197.708 43.8447V48H196.844V42.7168H197.659L197.708 43.8447ZM197.498 45.1582L197.146 45.1436C197.143 44.7822 197.184 44.4486 197.269 44.1426C197.356 43.8333 197.48 43.5648 197.64 43.3369C197.802 43.109 197.996 42.9333 198.221 42.8096C198.445 42.6826 198.694 42.6191 198.968 42.6191C199.183 42.6191 199.378 42.6549 199.554 42.7266C199.729 42.7949 199.879 42.9056 200.003 43.0586C200.127 43.2116 200.221 43.4102 200.286 43.6543C200.354 43.8952 200.389 44.1898 200.389 44.5381V48H199.524V44.5283C199.524 44.2516 199.493 44.0303 199.432 43.8643C199.373 43.695 199.282 43.5729 199.158 43.498C199.038 43.4199 198.885 43.3809 198.699 43.3809C198.53 43.3809 198.372 43.4281 198.226 43.5225C198.079 43.6169 197.951 43.7471 197.84 43.9131C197.732 44.0791 197.648 44.2695 197.586 44.4844C197.527 44.696 197.498 44.9206 197.498 45.1582ZM204.549 42.7168H205.325V48.0439C205.325 48.5094 205.244 48.8936 205.081 49.1963C204.922 49.499 204.699 49.722 204.412 49.8652C204.126 50.0117 203.795 50.085 203.421 50.085C203.287 50.085 203.12 50.0605 202.918 50.0117C202.716 49.9629 202.514 49.888 202.312 49.7871C202.111 49.6895 201.945 49.5658 201.814 49.416L202.171 48.8154C202.356 49.0042 202.553 49.1393 202.762 49.2207C202.97 49.3021 203.169 49.3428 203.357 49.3428C203.582 49.3428 203.777 49.3021 203.943 49.2207C204.109 49.1393 204.238 49.0059 204.329 48.8203C204.42 48.638 204.466 48.3939 204.466 48.0879V43.8789L204.549 42.7168ZM201.512 45.6123V45.1191C201.512 44.6829 201.552 44.3086 201.634 43.9961C201.715 43.6803 201.832 43.4215 201.985 43.2197C202.142 43.0146 202.329 42.8633 202.547 42.7656C202.765 42.668 203.009 42.6191 203.279 42.6191C203.553 42.6191 203.789 42.6745 203.987 42.7852C204.186 42.8958 204.35 43.057 204.48 43.2686C204.614 43.4769 204.718 43.7308 204.793 44.0303C204.871 44.3265 204.925 44.6618 204.954 45.0361V45.6953C204.925 46.0664 204.871 46.4001 204.793 46.6963C204.718 46.9925 204.612 47.2448 204.476 47.4531C204.342 47.6615 204.176 47.821 203.978 47.9316C203.779 48.0423 203.543 48.0977 203.27 48.0977C203.003 48.0977 202.762 48.0472 202.547 47.9463C202.332 47.8421 202.146 47.6875 201.99 47.4824C201.837 47.2741 201.718 47.0153 201.634 46.7061C201.552 46.3936 201.512 46.029 201.512 45.6123ZM202.376 45.1191V45.6123C202.376 45.9053 202.397 46.1608 202.439 46.3789C202.482 46.5937 202.547 46.7728 202.635 46.916C202.726 47.056 202.841 47.1602 202.981 47.2285C203.125 47.2969 203.296 47.3311 203.494 47.3311C203.735 47.3311 203.932 47.2725 204.085 47.1553C204.238 47.0381 204.36 46.8835 204.451 46.6914C204.546 46.4961 204.62 46.2861 204.676 46.0615V44.6748C204.643 44.5088 204.596 44.3493 204.534 44.1963C204.476 44.04 204.399 43.9017 204.305 43.7812C204.21 43.6576 204.096 43.5599 203.963 43.4883C203.833 43.4167 203.68 43.3809 203.504 43.3809C203.305 43.3809 203.134 43.4167 202.991 43.4883C202.848 43.5599 202.731 43.6673 202.64 43.8105C202.549 43.9538 202.482 44.1344 202.439 44.3525C202.397 44.5706 202.376 44.8262 202.376 45.1191ZM209.183 46.6475C209.183 46.514 209.15 46.3968 209.085 46.2959C209.02 46.195 208.912 46.0973 208.763 46.0029C208.616 45.9085 208.418 45.8076 208.167 45.7002C207.923 45.5993 207.703 45.5 207.508 45.4023C207.316 45.3014 207.153 45.1924 207.02 45.0752C206.886 44.958 206.784 44.8229 206.712 44.6699C206.644 44.5137 206.609 44.3298 206.609 44.1182C206.609 43.9066 206.648 43.7113 206.727 43.5322C206.808 43.3499 206.922 43.1904 207.068 43.0537C207.215 42.917 207.391 42.8112 207.596 42.7363C207.801 42.6582 208.03 42.6191 208.284 42.6191C208.646 42.6191 208.953 42.6891 209.207 42.8291C209.461 42.9691 209.655 43.1611 209.788 43.4053C209.925 43.6462 209.993 43.918 209.993 44.2207H209.134C209.134 44.0742 209.101 43.9359 209.036 43.8057C208.971 43.6755 208.875 43.5697 208.748 43.4883C208.621 43.4036 208.466 43.3613 208.284 43.3613C208.092 43.3613 207.936 43.3955 207.815 43.4639C207.695 43.5322 207.607 43.6217 207.552 43.7324C207.5 43.8398 207.474 43.9587 207.474 44.0889C207.474 44.1865 207.487 44.2712 207.513 44.3428C207.542 44.4111 207.591 44.4762 207.659 44.5381C207.728 44.5967 207.82 44.6585 207.938 44.7236C208.058 44.7855 208.211 44.8571 208.396 44.9385C208.755 45.0785 209.056 45.2201 209.3 45.3633C209.544 45.5065 209.729 45.6742 209.856 45.8662C209.983 46.0583 210.047 46.2959 210.047 46.5791C210.047 46.8102 210.005 47.0202 209.92 47.209C209.839 47.3945 209.721 47.554 209.568 47.6875C209.415 47.821 209.231 47.9235 209.017 47.9951C208.805 48.0635 208.567 48.0977 208.304 48.0977C207.907 48.0977 207.57 48.0195 207.293 47.8633C207.02 47.7038 206.811 47.4971 206.668 47.2432C206.528 46.986 206.458 46.7109 206.458 46.418H207.322C207.332 46.6654 207.387 46.8574 207.488 46.9941C207.592 47.1309 207.718 47.2253 207.864 47.2773C208.011 47.3294 208.157 47.3555 208.304 47.3555C208.496 47.3555 208.657 47.3278 208.787 47.2725C208.917 47.2139 209.015 47.1309 209.08 47.0234C209.148 46.916 209.183 46.7907 209.183 46.6475ZM213.743 46.6475C213.743 46.514 213.711 46.3968 213.646 46.2959C213.58 46.195 213.473 46.0973 213.323 46.0029C213.177 45.9085 212.978 45.8076 212.728 45.7002C212.483 45.5993 212.264 45.5 212.068 45.4023C211.876 45.3014 211.714 45.1924 211.58 45.0752C211.447 44.958 211.344 44.8229 211.272 44.6699C211.204 44.5137 211.17 44.3298 211.17 44.1182C211.17 43.9066 211.209 43.7113 211.287 43.5322C211.368 43.3499 211.482 43.1904 211.629 43.0537C211.775 42.917 211.951 42.8112 212.156 42.7363C212.361 42.6582 212.591 42.6191 212.845 42.6191C213.206 42.6191 213.514 42.6891 213.768 42.8291C214.021 42.9691 214.215 43.1611 214.349 43.4053C214.485 43.6462 214.554 43.918 214.554 44.2207H213.694C213.694 44.0742 213.662 43.9359 213.597 43.8057C213.532 43.6755 213.436 43.5697 213.309 43.4883C213.182 43.4036 213.027 43.3613 212.845 43.3613C212.653 43.3613 212.496 43.3955 212.376 43.4639C212.256 43.5322 212.168 43.6217 212.112 43.7324C212.06 43.8398 212.034 43.9587 212.034 44.0889C212.034 44.1865 212.047 44.2712 212.073 44.3428C212.103 44.4111 212.151 44.4762 212.22 44.5381C212.288 44.5967 212.381 44.6585 212.498 44.7236C212.618 44.7855 212.771 44.8571 212.957 44.9385C213.315 45.0785 213.616 45.2201 213.86 45.3633C214.104 45.5065 214.29 45.6742 214.417 45.8662C214.544 46.0583 214.607 46.2959 214.607 46.5791C214.607 46.8102 214.565 47.0202 214.48 47.209C214.399 47.3945 214.282 47.554 214.129 47.6875C213.976 47.821 213.792 47.9235 213.577 47.9951C213.366 48.0635 213.128 48.0977 212.864 48.0977C212.467 48.0977 212.13 48.0195 211.854 47.8633C211.58 47.7038 211.372 47.4971 211.229 47.2432C211.089 46.986 211.019 46.7109 211.019 46.418H211.883C211.893 46.6654 211.948 46.8574 212.049 46.9941C212.153 47.1309 212.278 47.2253 212.425 47.2773C212.571 47.3294 212.718 47.3555 212.864 47.3555C213.056 47.3555 213.217 47.3278 213.348 47.2725C213.478 47.2139 213.576 47.1309 213.641 47.0234C213.709 46.916 213.743 46.7907 213.743 46.6475ZM217.669 42.7168V43.4102H215.203V42.7168H217.669ZM216.009 41.4326H216.873V46.6914C216.873 46.8704 216.894 47.0055 216.937 47.0967C216.982 47.1878 217.039 47.248 217.107 47.2773C217.176 47.3066 217.249 47.3213 217.327 47.3213C217.386 47.3213 217.451 47.3148 217.522 47.3018C217.594 47.2855 217.643 47.2725 217.669 47.2627L217.664 48C217.605 48.0228 217.527 48.0439 217.43 48.0635C217.332 48.0863 217.208 48.0977 217.059 48.0977C216.873 48.0977 216.701 48.0537 216.541 47.9658C216.382 47.8779 216.253 47.7314 216.155 47.5264C216.058 47.318 216.009 47.0381 216.009 46.6865V41.4326ZM220.589 48.0977C220.273 48.0977 219.988 48.0505 219.734 47.9561C219.48 47.8617 219.264 47.7184 219.085 47.5264C218.906 47.3311 218.769 47.0853 218.675 46.7891C218.58 46.4928 218.533 46.1429 218.533 45.7393V45.1436C218.533 44.6781 218.587 44.2842 218.694 43.9619C218.805 43.6396 218.953 43.3809 219.139 43.1855C219.324 42.987 219.534 42.8437 219.769 42.7559C220.003 42.6647 220.244 42.6191 220.491 42.6191C220.823 42.6191 221.106 42.6729 221.341 42.7803C221.575 42.8877 221.766 43.0472 221.912 43.2588C222.059 43.4704 222.166 43.7308 222.234 44.04C222.306 44.3493 222.342 44.7057 222.342 45.1094V45.6123H219.041V44.875H221.478V44.7529C221.465 44.4795 221.427 44.2386 221.365 44.0303C221.307 43.8219 221.209 43.6592 221.072 43.542C220.936 43.4215 220.742 43.3613 220.491 43.3613C220.332 43.3613 220.184 43.389 220.047 43.4443C219.913 43.4964 219.798 43.5892 219.7 43.7227C219.606 43.8529 219.531 44.0335 219.476 44.2646C219.424 44.4958 219.397 44.7887 219.397 45.1436V45.7393C219.397 46.0225 219.424 46.2666 219.476 46.4717C219.531 46.6735 219.611 46.8411 219.715 46.9746C219.822 47.1048 219.952 47.2025 220.105 47.2676C220.262 47.3294 220.439 47.3604 220.638 47.3604C220.927 47.3604 221.167 47.305 221.355 47.1943C221.544 47.0804 221.709 46.9355 221.849 46.7598L222.303 47.3018C222.208 47.4352 222.085 47.5638 221.932 47.6875C221.782 47.8079 221.596 47.9072 221.375 47.9854C221.157 48.0602 220.895 48.0977 220.589 48.0977ZM224.314 40.5V48H223.455V40.5H224.314ZM226.609 40.5V48H225.75V40.5H226.609ZM230.647 46.7793V42.7168H231.512V48H230.691L230.647 46.7793ZM230.809 45.666L231.15 45.6562C231.15 46.0078 231.119 46.3333 231.058 46.6328C230.999 46.929 230.901 47.1862 230.765 47.4043C230.631 47.6224 230.454 47.7933 230.232 47.917C230.011 48.0374 229.739 48.0977 229.417 48.0977C229.199 48.0977 229 48.0602 228.821 47.9854C228.646 47.9105 228.493 47.7949 228.362 47.6387C228.235 47.4824 228.136 47.279 228.064 47.0283C227.996 46.7777 227.962 46.4766 227.962 46.125V42.7168H228.821V46.1348C228.821 46.3724 228.842 46.5693 228.885 46.7256C228.927 46.8786 228.984 47.0007 229.056 47.0918C229.127 47.1797 229.207 47.2415 229.295 47.2773C229.383 47.3132 229.472 47.3311 229.563 47.3311C229.869 47.3311 230.114 47.2578 230.296 47.1113C230.478 46.9616 230.608 46.7614 230.687 46.5107C230.768 46.2568 230.809 45.9753 230.809 45.666ZM233.675 43.8447V48H232.811V42.7168H233.626L233.675 43.8447ZM233.465 45.1582L233.113 45.1436C233.11 44.7822 233.151 44.4486 233.235 44.1426C233.323 43.8333 233.447 43.5648 233.606 43.3369C233.769 43.109 233.963 42.9333 234.188 42.8096C234.412 42.6826 234.661 42.6191 234.935 42.6191C235.149 42.6191 235.345 42.6549 235.521 42.7266C235.696 42.7949 235.846 42.9056 235.97 43.0586C236.093 43.2116 236.188 43.4102 236.253 43.6543C236.321 43.8952 236.355 44.1898 236.355 44.5381V48H235.491V44.5283C235.491 44.2516 235.46 44.0303 235.398 43.8643C235.34 43.695 235.249 43.5729 235.125 43.498C235.005 43.4199 234.852 43.3809 234.666 43.3809C234.497 43.3809 234.339 43.4281 234.192 43.5225C234.046 43.6169 233.917 43.7471 233.807 43.9131C233.699 44.0791 233.615 44.2695 233.553 44.4844C233.494 44.696 233.465 44.9206 233.465 45.1582ZM240.516 42.7168H241.292V48.0439C241.292 48.5094 241.211 48.8936 241.048 49.1963C240.888 49.499 240.665 49.722 240.379 49.8652C240.092 50.0117 239.762 50.085 239.388 50.085C239.254 50.085 239.087 50.0605 238.885 50.0117C238.683 49.9629 238.481 49.888 238.279 49.7871C238.077 49.6895 237.911 49.5658 237.781 49.416L238.138 48.8154C238.323 49.0042 238.52 49.1393 238.729 49.2207C238.937 49.3021 239.135 49.3428 239.324 49.3428C239.549 49.3428 239.744 49.3021 239.91 49.2207C240.076 49.1393 240.205 49.0059 240.296 48.8203C240.387 48.638 240.433 48.3939 240.433 48.0879V43.8789L240.516 42.7168ZM237.479 45.6123V45.1191C237.479 44.6829 237.519 44.3086 237.601 43.9961C237.682 43.6803 237.799 43.4215 237.952 43.2197C238.108 43.0146 238.296 42.8633 238.514 42.7656C238.732 42.668 238.976 42.6191 239.246 42.6191C239.52 42.6191 239.756 42.6745 239.954 42.7852C240.153 42.8958 240.317 43.057 240.447 43.2686C240.581 43.4769 240.685 43.7308 240.76 44.0303C240.838 44.3265 240.892 44.6618 240.921 45.0361V45.6953C240.892 46.0664 240.838 46.4001 240.76 46.6963C240.685 46.9925 240.579 47.2448 240.442 47.4531C240.309 47.6615 240.143 47.821 239.944 47.9316C239.746 48.0423 239.51 48.0977 239.236 48.0977C238.969 48.0977 238.729 48.0472 238.514 47.9463C238.299 47.8421 238.113 47.6875 237.957 47.4824C237.804 47.2741 237.685 47.0153 237.601 46.7061C237.519 46.3936 237.479 46.029 237.479 45.6123ZM238.343 45.1191V45.6123C238.343 45.9053 238.364 46.1608 238.406 46.3789C238.449 46.5937 238.514 46.7728 238.602 46.916C238.693 47.056 238.808 47.1602 238.948 47.2285C239.091 47.2969 239.262 47.3311 239.461 47.3311C239.702 47.3311 239.899 47.2725 240.052 47.1553C240.205 47.0381 240.327 46.8835 240.418 46.6914C240.512 46.4961 240.587 46.2861 240.643 46.0615V44.6748C240.61 44.5088 240.563 44.3493 240.501 44.1963C240.442 44.04 240.366 43.9017 240.271 43.7812C240.177 43.6576 240.063 43.5599 239.93 43.4883C239.799 43.4167 239.646 43.3809 239.471 43.3809C239.272 43.3809 239.101 43.4167 238.958 43.4883C238.815 43.5599 238.698 43.6673 238.606 43.8105C238.515 43.9538 238.449 44.1344 238.406 44.3525C238.364 44.5706 238.343 44.8262 238.343 45.1191Z" fill="#E0E0E9"/>
<path d="M279.47 35.8906V43H278.571V35.8906H279.47ZM283.044 35.8906L280.598 39.2061L279.167 40.9297L279.006 39.9238L280.056 38.5469L281.97 35.8906H283.044ZM282.15 43L280.056 39.5332L280.588 38.7861L283.22 43H282.15ZM283.596 40.6123V40.1094C283.596 39.6992 283.648 39.3395 283.752 39.0303C283.856 38.7178 284.001 38.4574 284.187 38.249C284.372 38.0407 284.589 37.8844 284.836 37.7803C285.083 37.6729 285.349 37.6191 285.632 37.6191C285.922 37.6191 286.19 37.6729 286.438 37.7803C286.685 37.8844 286.901 38.0407 287.087 38.249C287.276 38.4574 287.422 38.7178 287.526 39.0303C287.631 39.3395 287.683 39.6992 287.683 40.1094V40.6123C287.683 41.0225 287.631 41.3838 287.526 41.6963C287.422 42.0055 287.277 42.2643 287.092 42.4727C286.906 42.681 286.69 42.8372 286.442 42.9414C286.195 43.0456 285.928 43.0977 285.642 43.0977C285.355 43.0977 285.088 43.0456 284.841 42.9414C284.593 42.8372 284.375 42.681 284.187 42.4727C284.001 42.2643 283.856 42.0055 283.752 41.6963C283.648 41.3838 283.596 41.0225 283.596 40.6123ZM284.46 40.1094V40.6123C284.46 40.902 284.489 41.1559 284.548 41.374C284.606 41.5921 284.689 41.7744 284.797 41.9209C284.904 42.0674 285.03 42.1781 285.173 42.2529C285.316 42.3245 285.472 42.3604 285.642 42.3604C285.837 42.3604 286.008 42.3245 286.154 42.2529C286.304 42.1781 286.428 42.0674 286.525 41.9209C286.623 41.7744 286.696 41.5921 286.745 41.374C286.794 41.1559 286.818 40.902 286.818 40.6123V40.1094C286.818 39.8197 286.789 39.5674 286.73 39.3525C286.672 39.1344 286.589 38.9521 286.481 38.8057C286.374 38.6559 286.247 38.5452 286.101 38.4736C285.957 38.3988 285.801 38.3613 285.632 38.3613C285.466 38.3613 285.311 38.3988 285.168 38.4736C285.025 38.5452 284.899 38.6559 284.792 38.8057C284.688 38.9521 284.606 39.1344 284.548 39.3525C284.489 39.5674 284.46 39.8197 284.46 40.1094ZM289.66 38.8447V43H288.796V37.7168H289.611L289.66 38.8447ZM289.45 40.1582L289.099 40.1436C289.095 39.7822 289.136 39.4486 289.221 39.1426C289.309 38.8333 289.432 38.5648 289.592 38.3369C289.755 38.109 289.948 37.9333 290.173 37.8096C290.397 37.6826 290.646 37.6191 290.92 37.6191C291.135 37.6191 291.33 37.6549 291.506 37.7266C291.682 37.7949 291.831 37.9056 291.955 38.0586C292.079 38.2116 292.173 38.4102 292.238 38.6543C292.307 38.8952 292.341 39.1898 292.341 39.5381V43H291.477V39.5283C291.477 39.2516 291.446 39.0303 291.384 38.8643C291.325 38.695 291.234 38.5729 291.11 38.498C290.99 38.4199 290.837 38.3809 290.651 38.3809C290.482 38.3809 290.324 38.4281 290.178 38.5225C290.031 38.6169 289.903 38.7471 289.792 38.9131C289.685 39.0791 289.6 39.2695 289.538 39.4844C289.479 39.696 289.45 39.9206 289.45 40.1582ZM295.568 37.7168V38.4102H293.103V37.7168H295.568ZM293.908 36.4326H294.772V41.6914C294.772 41.8704 294.794 42.0055 294.836 42.0967C294.882 42.1878 294.938 42.248 295.007 42.2773C295.075 42.3066 295.148 42.3213 295.227 42.3213C295.285 42.3213 295.35 42.3148 295.422 42.3018C295.493 42.2855 295.542 42.2725 295.568 42.2627L295.563 43C295.505 43.0228 295.427 43.0439 295.329 43.0635C295.231 43.0863 295.108 43.0977 294.958 43.0977C294.772 43.0977 294.6 43.0537 294.44 42.9658C294.281 42.8779 294.152 42.7314 294.055 42.5264C293.957 42.318 293.908 42.0381 293.908 41.6865V36.4326ZM297.463 38.5469V43H296.599V37.7168H297.434L297.463 38.5469ZM298.776 37.6875L298.781 38.5273C298.71 38.5111 298.645 38.5013 298.586 38.498C298.531 38.4915 298.465 38.4883 298.391 38.4883C298.228 38.4883 298.085 38.5208 297.961 38.5859C297.84 38.651 297.736 38.7422 297.648 38.8594C297.561 38.9766 297.491 39.1165 297.438 39.2793C297.386 39.4388 297.351 39.6146 297.331 39.8066L297.106 39.9531C297.106 39.6341 297.131 39.3346 297.18 39.0547C297.232 38.7747 297.312 38.5273 297.419 38.3125C297.526 38.0944 297.663 37.9251 297.829 37.8047C297.998 37.681 298.2 37.6191 298.435 37.6191C298.487 37.6191 298.55 37.6273 298.625 37.6436C298.703 37.6566 298.754 37.6712 298.776 37.6875ZM299.367 40.6123V40.1094C299.367 39.6992 299.419 39.3395 299.523 39.0303C299.628 38.7178 299.772 38.4574 299.958 38.249C300.144 38.0407 300.36 37.8844 300.607 37.7803C300.855 37.6729 301.12 37.6191 301.403 37.6191C301.693 37.6191 301.962 37.6729 302.209 37.7803C302.456 37.8844 302.673 38.0407 302.858 38.249C303.047 38.4574 303.194 38.7178 303.298 39.0303C303.402 39.3395 303.454 39.6992 303.454 40.1094V40.6123C303.454 41.0225 303.402 41.3838 303.298 41.6963C303.194 42.0055 303.049 42.2643 302.863 42.4727C302.678 42.681 302.461 42.8372 302.214 42.9414C301.966 43.0456 301.7 43.0977 301.413 43.0977C301.127 43.0977 300.86 43.0456 300.612 42.9414C300.365 42.8372 300.147 42.681 299.958 42.4727C299.772 42.2643 299.628 42.0055 299.523 41.6963C299.419 41.3838 299.367 41.0225 299.367 40.6123ZM300.231 40.1094V40.6123C300.231 40.902 300.261 41.1559 300.319 41.374C300.378 41.5921 300.461 41.7744 300.568 41.9209C300.676 42.0674 300.801 42.1781 300.944 42.2529C301.088 42.3245 301.244 42.3604 301.413 42.3604C301.608 42.3604 301.779 42.3245 301.926 42.2529C302.076 42.1781 302.199 42.0674 302.297 41.9209C302.395 41.7744 302.468 41.5921 302.517 41.374C302.565 41.1559 302.59 40.902 302.59 40.6123V40.1094C302.59 39.8197 302.561 39.5674 302.502 39.3525C302.443 39.1344 302.36 38.9521 302.253 38.8057C302.146 38.6559 302.019 38.5452 301.872 38.4736C301.729 38.3988 301.573 38.3613 301.403 38.3613C301.237 38.3613 301.083 38.3988 300.939 38.4736C300.796 38.5452 300.671 38.6559 300.563 38.8057C300.459 38.9521 300.378 39.1344 300.319 39.3525C300.261 39.5674 300.231 39.8197 300.231 40.1094ZM305.495 35.5V43H304.636V35.5H305.495ZM307.79 35.5V43H306.931V35.5H307.79ZM311.047 43.0977C310.731 43.0977 310.446 43.0505 310.192 42.9561C309.938 42.8617 309.722 42.7184 309.543 42.5264C309.364 42.3311 309.227 42.0853 309.133 41.7891C309.038 41.4928 308.991 41.1429 308.991 40.7393V40.1436C308.991 39.6781 309.045 39.2842 309.152 38.9619C309.263 38.6396 309.411 38.3809 309.597 38.1855C309.782 37.987 309.992 37.8437 310.227 37.7559C310.461 37.6647 310.702 37.6191 310.949 37.6191C311.281 37.6191 311.564 37.6729 311.799 37.7803C312.033 37.8877 312.224 38.0472 312.37 38.2588C312.517 38.4704 312.624 38.7308 312.692 39.04C312.764 39.3493 312.8 39.7057 312.8 40.1094V40.6123H309.499V39.875H311.936V39.7529C311.923 39.4795 311.885 39.2386 311.823 39.0303C311.765 38.8219 311.667 38.6592 311.53 38.542C311.394 38.4215 311.2 38.3613 310.949 38.3613C310.79 38.3613 310.642 38.389 310.505 38.4443C310.371 38.4964 310.256 38.5892 310.158 38.7227C310.064 38.8529 309.989 39.0335 309.934 39.2646C309.882 39.4958 309.855 39.7887 309.855 40.1436V40.7393C309.855 41.0225 309.882 41.2666 309.934 41.4717C309.989 41.6735 310.069 41.8411 310.173 41.9746C310.28 42.1048 310.41 42.2025 310.563 42.2676C310.72 42.3294 310.897 42.3604 311.096 42.3604C311.385 42.3604 311.625 42.305 311.813 42.1943C312.002 42.0804 312.167 41.9355 312.307 41.7598L312.761 42.3018C312.666 42.4352 312.543 42.5638 312.39 42.6875C312.24 42.8079 312.054 42.9072 311.833 42.9854C311.615 43.0602 311.353 43.0977 311.047 43.0977ZM291.501 52.7793V48.7168H292.365V54H291.545L291.501 52.7793ZM291.662 51.666L292.004 51.6562C292.004 52.0078 291.973 52.3333 291.911 52.6328C291.853 52.929 291.755 53.1862 291.618 53.4043C291.485 53.6224 291.307 53.7933 291.086 53.917C290.865 54.0374 290.593 54.0977 290.271 54.0977C290.052 54.0977 289.854 54.0602 289.675 53.9854C289.499 53.9105 289.346 53.7949 289.216 53.6387C289.089 53.4824 288.99 53.279 288.918 53.0283C288.85 52.7777 288.815 52.4766 288.815 52.125V48.7168H289.675V52.1348C289.675 52.3724 289.696 52.5693 289.738 52.7256C289.781 52.8786 289.838 53.0007 289.909 53.0918C289.981 53.1797 290.061 53.2415 290.148 53.2773C290.236 53.3132 290.326 53.3311 290.417 53.3311C290.723 53.3311 290.967 53.2578 291.149 53.1113C291.332 52.9616 291.462 52.7614 291.54 52.5107C291.621 52.2568 291.662 51.9753 291.662 51.666ZM294.528 49.8447V54H293.664V48.7168H294.479L294.528 49.8447ZM294.318 51.1582L293.967 51.1436C293.964 50.7822 294.004 50.4486 294.089 50.1426C294.177 49.8333 294.3 49.5648 294.46 49.3369C294.623 49.109 294.816 48.9333 295.041 48.8096C295.266 48.6826 295.515 48.6191 295.788 48.6191C296.003 48.6191 296.198 48.6549 296.374 48.7266C296.55 48.7949 296.7 48.9056 296.823 49.0586C296.947 49.2116 297.041 49.4102 297.106 49.6543C297.175 49.8952 297.209 50.1898 297.209 50.5381V54H296.345V50.5283C296.345 50.2516 296.314 50.0303 296.252 49.8643C296.193 49.695 296.102 49.5729 295.979 49.498C295.858 49.4199 295.705 49.3809 295.52 49.3809C295.35 49.3809 295.192 49.4281 295.046 49.5225C294.899 49.6169 294.771 49.7471 294.66 49.9131C294.553 50.0791 294.468 50.2695 294.406 50.4844C294.348 50.696 294.318 50.9206 294.318 51.1582ZM301.276 52.9746V46.5H302.136V54H301.35L301.276 52.9746ZM298.322 51.6123V51.1191C298.322 50.6829 298.365 50.3086 298.449 49.9961C298.534 49.6803 298.654 49.4215 298.811 49.2197C298.967 49.0146 299.154 48.8633 299.372 48.7656C299.59 48.668 299.831 48.6191 300.095 48.6191C300.368 48.6191 300.603 48.6745 300.798 48.7852C300.996 48.8958 301.162 49.057 301.296 49.2686C301.429 49.4769 301.534 49.7308 301.608 50.0303C301.687 50.3265 301.739 50.6618 301.765 51.0361V51.6953C301.735 52.0664 301.682 52.4001 301.604 52.6963C301.529 52.9925 301.424 53.2448 301.291 53.4531C301.158 53.6615 300.992 53.821 300.793 53.9316C300.594 54.0423 300.358 54.0977 300.085 54.0977C299.825 54.0977 299.587 54.0472 299.372 53.9463C299.157 53.8421 298.97 53.6875 298.811 53.4824C298.654 53.2741 298.534 53.0153 298.449 52.7061C298.365 52.3936 298.322 52.029 298.322 51.6123ZM299.187 51.1191V51.6123C299.187 51.9053 299.208 52.1608 299.25 52.3789C299.292 52.5938 299.359 52.7728 299.45 52.916C299.541 53.056 299.657 53.1602 299.797 53.2285C299.94 53.2969 300.111 53.3311 300.31 53.3311C300.55 53.3311 300.747 53.2725 300.9 53.1553C301.053 53.0381 301.175 52.8835 301.267 52.6914C301.361 52.4961 301.436 52.2861 301.491 52.0615V50.6748C301.459 50.5088 301.411 50.3493 301.35 50.1963C301.288 50.04 301.21 49.9017 301.115 49.7812C301.024 49.6576 300.912 49.5599 300.778 49.4883C300.648 49.4167 300.495 49.3809 300.319 49.3809C300.121 49.3809 299.948 49.4167 299.802 49.4883C299.659 49.5599 299.541 49.6673 299.45 49.8105C299.362 49.9538 299.296 50.1344 299.25 50.3525C299.208 50.5706 299.187 50.8262 299.187 51.1191ZM277.883 61.6748H276.438L276.428 60.918H277.771C277.972 60.918 278.151 60.8724 278.308 60.7812C278.464 60.6901 278.586 60.5599 278.674 60.3906C278.765 60.2181 278.811 60.013 278.811 59.7754C278.811 59.515 278.771 59.3034 278.693 59.1406C278.618 58.9746 278.503 58.8542 278.347 58.7793C278.194 58.7012 277.998 58.6621 277.761 58.6621H276.628V65H275.729V57.8906H277.761C278.067 57.8906 278.34 57.9281 278.581 58.0029C278.822 58.0745 279.025 58.1885 279.191 58.3447C279.361 58.4977 279.489 58.693 279.577 58.9307C279.665 59.1683 279.709 59.4531 279.709 59.7852C279.709 60.0781 279.642 60.3434 279.509 60.5811C279.379 60.8154 279.196 61.0075 278.962 61.1572C278.728 61.307 278.457 61.403 278.151 61.4453L277.883 61.6748ZM277.849 65H276.066L276.589 64.2334H277.849C278.083 64.2334 278.282 64.1813 278.444 64.0771C278.607 63.973 278.731 63.8265 278.815 63.6377C278.903 63.4456 278.947 63.2194 278.947 62.959C278.947 62.6953 278.911 62.4674 278.84 62.2754C278.768 62.0833 278.654 61.9352 278.498 61.8311C278.342 61.7269 278.137 61.6748 277.883 61.6748H276.726L276.735 60.918H278.298L278.498 61.1914C278.791 61.2207 279.037 61.3184 279.235 61.4844C279.437 61.6471 279.589 61.8555 279.689 62.1094C279.794 62.3633 279.846 62.6432 279.846 62.9492C279.846 63.3919 279.763 63.7663 279.597 64.0723C279.434 64.375 279.203 64.6061 278.903 64.7656C278.604 64.9219 278.252 65 277.849 65ZM282.961 65.0977C282.645 65.0977 282.36 65.0505 282.106 64.9561C281.853 64.8617 281.636 64.7184 281.457 64.5264C281.278 64.3311 281.141 64.0853 281.047 63.7891C280.952 63.4928 280.905 63.1429 280.905 62.7393V62.1436C280.905 61.6781 280.959 61.2842 281.066 60.9619C281.177 60.6396 281.325 60.3809 281.511 60.1855C281.696 59.987 281.906 59.8438 282.141 59.7559C282.375 59.6647 282.616 59.6191 282.863 59.6191C283.195 59.6191 283.479 59.6729 283.713 59.7803C283.947 59.8877 284.138 60.0472 284.284 60.2588C284.431 60.4704 284.538 60.7308 284.606 61.04C284.678 61.3493 284.714 61.7057 284.714 62.1094V62.6123H281.413V61.875H283.85V61.7529C283.837 61.4795 283.799 61.2386 283.737 61.0303C283.679 60.8219 283.581 60.6592 283.444 60.542C283.308 60.4215 283.114 60.3613 282.863 60.3613C282.704 60.3613 282.556 60.389 282.419 60.4443C282.285 60.4964 282.17 60.5892 282.072 60.7227C281.978 60.8529 281.903 61.0335 281.848 61.2646C281.796 61.4958 281.77 61.7887 281.77 62.1436V62.7393C281.77 63.0225 281.796 63.2666 281.848 63.4717C281.903 63.6735 281.983 63.8411 282.087 63.9746C282.194 64.1048 282.325 64.2025 282.478 64.2676C282.634 64.3294 282.811 64.3604 283.01 64.3604C283.299 64.3604 283.539 64.305 283.728 64.1943C283.916 64.0804 284.081 63.9355 284.221 63.7598L284.675 64.3018C284.58 64.4352 284.457 64.5638 284.304 64.6875C284.154 64.8079 283.968 64.9072 283.747 64.9854C283.529 65.0602 283.267 65.0977 282.961 65.0977ZM289.104 64.2578V65H285.905V64.2578H289.104ZM289.006 60.3564L286.101 65H285.573V64.3359L288.459 59.7168H289.006V60.3564ZM288.63 59.7168V60.4639H285.588V59.7168H288.63ZM292.741 64.0967V61.2305C292.741 61.0221 292.709 60.8545 292.644 60.7275C292.582 60.6006 292.487 60.5078 292.36 60.4492C292.237 60.3906 292.08 60.3613 291.892 60.3613C291.709 60.3613 291.551 60.3988 291.418 60.4736C291.288 60.5485 291.187 60.6478 291.115 60.7715C291.047 60.8952 291.013 61.0319 291.013 61.1816H290.148C290.148 60.9928 290.189 60.8057 290.271 60.6201C290.355 60.4346 290.476 60.2669 290.632 60.1172C290.788 59.9642 290.975 59.8438 291.193 59.7559C291.415 59.6647 291.662 59.6191 291.936 59.6191C292.261 59.6191 292.549 59.6729 292.8 59.7803C293.05 59.8844 293.247 60.0553 293.391 60.293C293.534 60.5306 293.605 60.8464 293.605 61.2402V63.8477C293.605 64.0234 293.618 64.2106 293.645 64.4092C293.674 64.6077 293.715 64.7786 293.767 64.9219V65H292.873C292.831 64.8958 292.798 64.7575 292.775 64.585C292.753 64.4092 292.741 64.2464 292.741 64.0967ZM292.878 61.7969L292.888 62.4316H292.287C292.082 62.4316 291.895 62.4544 291.726 62.5C291.56 62.5456 291.416 62.6123 291.296 62.7002C291.175 62.7848 291.083 62.8906 291.018 63.0176C290.956 63.1445 290.925 63.2894 290.925 63.4521C290.925 63.6637 290.954 63.833 291.013 63.96C291.071 64.0837 291.159 64.1732 291.276 64.2285C291.394 64.2839 291.542 64.3115 291.721 64.3115C291.939 64.3115 292.131 64.2611 292.297 64.1602C292.463 64.0592 292.591 63.9372 292.683 63.7939C292.777 63.6507 292.821 63.5173 292.814 63.3936L293.005 63.7988C292.992 63.9258 292.95 64.0641 292.878 64.2139C292.81 64.3604 292.714 64.502 292.59 64.6387C292.466 64.7721 292.32 64.8828 292.15 64.9707C291.984 65.0553 291.797 65.0977 291.589 65.0977C291.283 65.0977 291.014 65.0391 290.783 64.9219C290.555 64.8047 290.378 64.6322 290.251 64.4043C290.124 64.1764 290.061 63.8949 290.061 63.5596C290.061 63.3057 290.104 63.0713 290.192 62.8564C290.28 62.6416 290.41 62.4561 290.583 62.2998C290.756 62.1403 290.972 62.0166 291.232 61.9287C291.496 61.8408 291.8 61.7969 292.146 61.7969H292.878ZM295.812 57.5V65H294.948V57.5H295.812ZM295.603 62.1582L295.251 62.1436C295.248 61.7822 295.288 61.4486 295.373 61.1426C295.461 60.8333 295.585 60.5648 295.744 60.3369C295.907 60.109 296.101 59.9333 296.325 59.8096C296.55 59.6826 296.799 59.6191 297.072 59.6191C297.287 59.6191 297.482 59.6549 297.658 59.7266C297.834 59.7949 297.984 59.9056 298.107 60.0586C298.231 60.2116 298.326 60.4102 298.391 60.6543C298.459 60.8952 298.493 61.1898 298.493 61.5381V65H297.629V61.5283C297.629 61.2516 297.598 61.0303 297.536 60.8643C297.478 60.695 297.386 60.5729 297.263 60.498C297.142 60.4199 296.989 60.3809 296.804 60.3809C296.634 60.3809 296.477 60.4281 296.33 60.5225C296.184 60.6169 296.055 60.7471 295.944 60.9131C295.837 61.0791 295.752 61.2695 295.69 61.4844C295.632 61.696 295.603 61.9206 295.603 62.1582ZM300.71 57.5V65H299.851V57.5H300.71ZM304.748 63.7793V59.7168H305.612V65H304.792L304.748 63.7793ZM304.909 62.666L305.251 62.6562C305.251 63.0078 305.22 63.3333 305.158 63.6328C305.1 63.929 305.002 64.1862 304.865 64.4043C304.732 64.6224 304.554 64.7933 304.333 64.917C304.112 65.0374 303.84 65.0977 303.518 65.0977C303.299 65.0977 303.101 65.0602 302.922 64.9854C302.746 64.9105 302.593 64.7949 302.463 64.6387C302.336 64.4824 302.237 64.279 302.165 64.0283C302.097 63.7777 302.062 63.4766 302.062 63.125V59.7168H302.922V63.1348C302.922 63.3724 302.943 63.5693 302.985 63.7256C303.028 63.8786 303.085 64.0007 303.156 64.0918C303.228 64.1797 303.308 64.2415 303.396 64.2773C303.483 64.3132 303.573 64.3311 303.664 64.3311C303.97 64.3311 304.214 64.2578 304.396 64.1113C304.579 63.9616 304.709 63.7614 304.787 63.5107C304.868 63.2568 304.909 62.9753 304.909 62.666ZM307.775 60.8447V65H306.911V59.7168H307.727L307.775 60.8447ZM307.565 62.1582L307.214 62.1436C307.211 61.7822 307.251 61.4486 307.336 61.1426C307.424 60.8333 307.548 60.5648 307.707 60.3369C307.87 60.109 308.063 59.9333 308.288 59.8096C308.513 59.6826 308.762 59.6191 309.035 59.6191C309.25 59.6191 309.445 59.6549 309.621 59.7266C309.797 59.7949 309.947 59.9056 310.07 60.0586C310.194 60.2116 310.288 60.4102 310.354 60.6543C310.422 60.8952 310.456 61.1898 310.456 61.5381V65H309.592V61.5283C309.592 61.2516 309.561 61.0303 309.499 60.8643C309.44 60.695 309.349 60.5729 309.226 60.498C309.105 60.4199 308.952 60.3809 308.767 60.3809C308.597 60.3809 308.439 60.4281 308.293 60.5225C308.146 60.6169 308.018 60.7471 307.907 60.9131C307.8 61.0791 307.715 61.2695 307.653 61.4844C307.595 61.696 307.565 61.9206 307.565 62.1582ZM314.616 59.7168H315.393V65.0439C315.393 65.5094 315.311 65.8936 315.148 66.1963C314.989 66.499 314.766 66.722 314.479 66.8652C314.193 67.0117 313.863 67.085 313.488 67.085C313.355 67.085 313.187 67.0605 312.985 67.0117C312.784 66.9629 312.582 66.888 312.38 66.7871C312.178 66.6895 312.012 66.5658 311.882 66.416L312.238 65.8154C312.424 66.0042 312.621 66.1393 312.829 66.2207C313.037 66.3021 313.236 66.3428 313.425 66.3428C313.649 66.3428 313.845 66.3021 314.011 66.2207C314.177 66.1393 314.305 66.0059 314.396 65.8203C314.488 65.638 314.533 65.3939 314.533 65.0879V60.8789L314.616 59.7168ZM311.579 62.6123V62.1191C311.579 61.6829 311.62 61.3086 311.701 60.9961C311.783 60.6803 311.9 60.4215 312.053 60.2197C312.209 60.0146 312.396 59.8633 312.614 59.7656C312.832 59.668 313.076 59.6191 313.347 59.6191C313.62 59.6191 313.856 59.6745 314.055 59.7852C314.253 59.8958 314.418 60.057 314.548 60.2686C314.681 60.4769 314.785 60.7308 314.86 61.0303C314.938 61.3265 314.992 61.6618 315.021 62.0361V62.6953C314.992 63.0664 314.938 63.4001 314.86 63.6963C314.785 63.9925 314.68 64.2448 314.543 64.4531C314.41 64.6615 314.243 64.821 314.045 64.9316C313.846 65.0423 313.61 65.0977 313.337 65.0977C313.07 65.0977 312.829 65.0472 312.614 64.9463C312.399 64.8421 312.214 64.6875 312.058 64.4824C311.905 64.2741 311.786 64.0153 311.701 63.7061C311.62 63.3936 311.579 63.029 311.579 62.6123ZM312.443 62.1191V62.6123C312.443 62.9053 312.465 63.1608 312.507 63.3789C312.549 63.5937 312.614 63.7728 312.702 63.916C312.793 64.056 312.909 64.1602 313.049 64.2285C313.192 64.2969 313.363 64.3311 313.562 64.3311C313.802 64.3311 313.999 64.2725 314.152 64.1553C314.305 64.0381 314.427 63.8835 314.519 63.6914C314.613 63.4961 314.688 63.2861 314.743 63.0615V61.6748C314.711 61.5088 314.663 61.3493 314.602 61.1963C314.543 61.04 314.466 60.9017 314.372 60.7812C314.278 60.6576 314.164 60.5599 314.03 60.4883C313.9 60.4167 313.747 60.3809 313.571 60.3809C313.373 60.3809 313.202 60.4167 313.059 60.4883C312.915 60.5599 312.798 60.6673 312.707 60.8105C312.616 60.9538 312.549 61.1344 312.507 61.3525C312.465 61.5706 312.443 61.8262 312.443 62.1191Z" fill="#E0E0E9"/>
<path fill-rule="evenodd" clip-rule="evenodd" d="M284 16L217 16V14L284 14V16Z" fill="#D0CFD7"/>
<path fill-rule="evenodd" clip-rule="evenodd" d="M191 16L124 16V14L191 14V16Z" fill="#D0CFD7"/>
<path fill-rule="evenodd" clip-rule="evenodd" d="M99 16L29 16V14L99 14V16Z" fill="url(#paint2_linear_1406_1469)"/>
<path fill-rule="evenodd" clip-rule="evenodd" d="M7.7612 6.17317C7 8.01088 7 10.3406 7 15C7 19.6594 7 21.9891 7.7612 23.8268C8.77614 26.2771 10.7229 28.2239 13.1732 29.2388C15.0109 30 17.3406 30 22 30C26.6594 30 28.9891 30 30.8268 29.2388C33.2771 28.2239 35.2239 26.2771 36.2388 23.8268C37 21.9891 37 19.6594 37 15C37 10.3406 37 8.01088 36.2388 6.17317C35.2239 3.72288 33.2771 1.77614 30.8268 0.761205C28.9891 0 26.6594 0 22 0C17.3406 0 15.0109 0 13.1732 0.761205C10.7229 1.77614 8.77614 3.72288 7.7612 6.17317ZM28.7071 11.7071C29.0976 11.3166 29.0976 10.6834 28.7071 10.2929C28.3166 9.90237 27.6834 9.90237 27.2929 10.2929L20 17.5858L16.7071 14.2929C16.3166 13.9024 15.6834 13.9024 15.2929 14.2929C14.9024 14.6834 14.9024 15.3166 15.2929 15.7071L19.2929 19.7071C19.4804 19.8946 19.7348 20 20 20C20.2652 20 20.5196 19.8946 20.7071 19.7071L28.7071 11.7071Z" fill="url(#paint3_linear_1406_1469)"/>
<path fill-rule="evenodd" clip-rule="evenodd" d="M98.7612 6.17317C98 8.01088 98 10.3406 98 15C98 19.6594 98 21.9891 98.7612 23.8268C99.7761 26.2771 101.723 28.2239 104.173 29.2388C106.011 30 108.341 30 113 30C117.659 30 119.989 30 121.827 29.2388C124.277 28.2239 126.224 26.2771 127.239 23.8268C128 21.9891 128 19.6594 128 15C128 10.3406 128 8.01088 127.239 6.17317C126.224 3.72288 124.277 1.77614 121.827 0.761205C119.989 0 117.659 0 113 0C108.341 0 106.011 0 104.173 0.761205C101.723 1.77614 99.7761 3.72288 98.7612 6.17317ZM119.707 11.7071C120.098 11.3166 120.098 10.6834 119.707 10.2929C119.317 9.90237 118.683 9.90237 118.293 10.2929L111 17.5858L107.707 14.2929C107.317 13.9024 106.683 13.9024 106.293 14.2929C105.902 14.6834 105.902 15.3166 106.293 15.7071L110.293 19.7071C110.48 19.8946 110.735 20 111 20C111.265 20 111.52 19.8946 111.707 19.7071L119.707 11.7071Z" fill="url(#paint4_linear_1406_1469)"/>
<path fill-rule="evenodd" clip-rule="evenodd" d="M280.761 6.17317C280 8.01088 280 10.3406 280 15C280 19.6594 280 21.9891 280.761 23.8268C281.776 26.2771 283.723 28.2239 286.173 29.2388C288.011 30 290.341 30 295 30C299.659 30 301.989 30 303.827 29.2388C306.277 28.2239 308.224 26.2771 309.239 23.8268C310 21.9891 310 19.6594 310 15C310 10.3406 310 8.01088 309.239 6.17317C308.224 3.72288 306.277 1.77614 303.827 0.761205C301.989 0 299.659 0 295 0C290.341 0 288.011 0 286.173 0.761205C283.723 1.77614 281.776 3.72288 280.761 6.17317ZM301.707 11.7071C302.098 11.3166 302.098 10.6834 301.707 10.2929C301.317 9.90237 300.683 9.90237 300.293 10.2929L293 17.5858L289.707 14.2929C289.317 13.9024 288.683 13.9024 288.293 14.2929C287.902 14.6834 287.902 15.3166 288.293 15.7071L292.293 19.7071C292.48 19.8946 292.735 20 293 20C293.265 20 293.52 19.8946 293.707 19.7071L301.707 11.7071Z" fill="#D0CFD7"/>
<path fill-rule="evenodd" clip-rule="evenodd" d="M189.761 6.17317C189 8.01088 189 10.3406 189 15C189 19.6594 189 21.9891 189.761 23.8268C190.776 26.2771 192.723 28.2239 195.173 29.2388C197.011 30 199.341 30 204 30C208.659 30 210.989 30 212.827 29.2388C215.277 28.2239 217.224 26.2771 218.239 23.8268C219 21.9891 219 19.6594 219 15C219 10.3406 219 8.01088 218.239 6.17317C217.224 3.72288 215.277 1.77614 212.827 0.761205C210.989 0 208.659 0 204 0C199.341 0 197.011 0 195.173 0.761205C192.723 1.77614 190.776 3.72288 189.761 6.17317ZM210.707 11.7071C211.098 11.3166 211.098 10.6834 210.707 10.2929C210.317 9.90237 209.683 9.90237 209.293 10.2929L202 17.5858L198.707 14.2929C198.317 13.9024 197.683 13.9024 197.293 14.2929C196.902 14.6834 196.902 15.3166 197.293 15.7071L201.293 19.7071C201.48 19.8946 201.735 20 202 20C202.265 20 202.52 19.8946 202.707 19.7071L210.707 11.7071Z" fill="#D0CFD7"/>
<defs>
<linearGradient id="paint0_linear_1406_1469" x1="22" y1="56" x2="22" y2="34" gradientUnits="userSpaceOnUse">
<stop stop-color="#5CCC94"/>
<stop offset="1" stop-color="#8CCAAE"/>
</linearGradient>
<linearGradient id="paint1_linear_1406_1469" x1="111.5" y1="55" x2="111.5" y2="35" gradientUnits="userSpaceOnUse">
<stop stop-color="#5CCC94"/>
<stop offset="1" stop-color="#8CCAAE"/>
</linearGradient>
<linearGradient id="paint2_linear_1406_1469" x1="64" y1="16" x2="64" y2="14" gradientUnits="userSpaceOnUse">
<stop stop-color="#5CCC94"/>
<stop offset="1" stop-color="#8CCAAE"/>
</linearGradient>
<linearGradient id="paint3_linear_1406_1469" x1="22" y1="30" x2="22" y2="1.58545e-07" gradientUnits="userSpaceOnUse">
<stop stop-color="#5CCC94"/>
<stop offset="1" stop-color="#8CCAAE"/>
</linearGradient>
<linearGradient id="paint4_linear_1406_1469" x1="113" y1="30" x2="113" y2="1.58545e-07" gradientUnits="userSpaceOnUse">
<stop stop-color="#5CCC94"/>
<stop offset="1" stop-color="#8CCAAE"/>
</linearGradient>
</defs>
</svg>
