<svg width="238" height="57" viewBox="0 0 238 57" fill="none" xmlns="http://www.w3.org/2000/svg">
<path d="M11.2471 43.2334V44H8.29785V43.2334H11.2471ZM8.45898 36.8906L8.45898 44H7.56055L7.56055 36.8906H8.45898ZM13.127 38.7168L13.127 44H12.2676L12.2676 38.7168H13.127ZM12.2188 37.3154C12.2188 37.1689 12.2594 37.0452 12.3408 36.9443C12.4222 36.8434 12.5443 36.793 12.707 36.793C12.8698 36.793 12.9919 36.8434 13.0732 36.9443C13.1579 37.0452 13.2002 37.1689 13.2002 37.3154C13.2002 37.4554 13.1579 37.5758 13.0732 37.6768C12.9919 37.7744 12.8698 37.8232 12.707 37.8232C12.5443 37.8232 12.4222 37.7744 12.3408 37.6768C12.2594 37.5758 12.2188 37.4554 12.2188 37.3154ZM16.3252 43.3604C16.4977 43.3604 16.654 43.3262 16.7939 43.2578C16.9372 43.1862 17.0544 43.0755 17.1455 42.9258C17.2367 42.7728 17.2887 42.5742 17.3018 42.3301H18.1123C18.0993 42.6816 18.0098 42.9909 17.8438 43.2578C17.681 43.5215 17.4661 43.7282 17.1992 43.8779C16.9355 44.0244 16.6442 44.0977 16.3252 44.0977C15.9834 44.0977 15.6855 44.0423 15.4316 43.9316C15.181 43.821 14.9727 43.6615 14.8066 43.4531C14.6439 43.2415 14.5218 42.986 14.4404 42.6865C14.359 42.3838 14.3184 42.0404 14.3184 41.6562V41.0605C14.3184 40.6764 14.359 40.3346 14.4404 40.0352C14.5218 39.7324 14.6439 39.4769 14.8066 39.2686C14.9727 39.057 15.181 38.8958 15.4316 38.7852C15.6855 38.6745 15.9834 38.6191 16.3252 38.6191C16.6833 38.6191 16.9925 38.6956 17.2529 38.8486C17.5166 38.9984 17.7217 39.2165 17.8682 39.5029C18.0179 39.7861 18.0993 40.1296 18.1123 40.5332H17.3018C17.2887 40.2728 17.2415 40.0563 17.1602 39.8838C17.0788 39.708 16.9681 39.5778 16.8281 39.4932C16.6882 39.4053 16.5205 39.3613 16.3252 39.3613C16.0973 39.3613 15.9085 39.402 15.7588 39.4834C15.6123 39.5615 15.4967 39.6755 15.4121 39.8252C15.3275 39.9749 15.2673 40.154 15.2314 40.3623C15.1989 40.5706 15.1826 40.8034 15.1826 41.0605V41.6562C15.1826 41.9134 15.1989 42.1478 15.2314 42.3594C15.2673 42.5677 15.3258 42.7467 15.4072 42.8965C15.4919 43.0462 15.609 43.1618 15.7588 43.2432C15.9085 43.3213 16.0973 43.3604 16.3252 43.3604ZM21.0029 44.0977C20.6872 44.0977 20.4023 44.0505 20.1484 43.9561C19.8945 43.8617 19.6781 43.7184 19.499 43.5264C19.32 43.3311 19.1833 43.0853 19.0889 42.7891C18.9945 42.4928 18.9473 42.1429 18.9473 41.7393V41.1436C18.9473 40.6781 19.001 40.2842 19.1084 39.9619C19.2191 39.6396 19.3672 39.3809 19.5527 39.1855C19.7383 38.987 19.9482 38.8438 20.1826 38.7559C20.417 38.6647 20.6579 38.6191 20.9053 38.6191C21.2373 38.6191 21.5205 38.6729 21.7549 38.7803C21.9893 38.8877 22.1797 39.0472 22.3262 39.2588C22.4727 39.4704 22.5801 39.7308 22.6484 40.04C22.7201 40.3493 22.7559 40.7057 22.7559 41.1094V41.6123H19.4551V40.875H21.8916V40.7529C21.8786 40.4795 21.8411 40.2386 21.7793 40.0303C21.7207 39.8219 21.623 39.6592 21.4863 39.542C21.3496 39.4215 21.1559 39.3613 20.9053 39.3613C20.7458 39.3613 20.5977 39.389 20.4609 39.4443C20.3275 39.4964 20.2119 39.5892 20.1143 39.7227C20.0199 39.8529 19.945 40.0335 19.8896 40.2646C19.8376 40.4958 19.8115 40.7887 19.8115 41.1436V41.7393C19.8115 42.0225 19.8376 42.2666 19.8896 42.4717C19.945 42.6735 20.0247 42.8411 20.1289 42.9746C20.2363 43.1048 20.3665 43.2025 20.5195 43.2676C20.6758 43.3294 20.8532 43.3604 21.0518 43.3604C21.3415 43.3604 21.5807 43.305 21.7695 43.1943C21.9583 43.0804 22.1227 42.9355 22.2627 42.7598L22.7168 43.3018C22.6224 43.4352 22.4987 43.5638 22.3457 43.6875C22.196 43.8079 22.0104 43.9072 21.7891 43.9854C21.571 44.0602 21.3089 44.0977 21.0029 44.0977ZM24.665 39.8447V44H23.8008V38.7168H24.6162L24.665 39.8447ZM24.4551 41.1582L24.1035 41.1436C24.1003 40.7822 24.141 40.4486 24.2256 40.1426C24.3135 39.8333 24.4372 39.5648 24.5967 39.3369C24.7594 39.109 24.9531 38.9333 25.1777 38.8096C25.4023 38.6826 25.6514 38.6191 25.9248 38.6191C26.1396 38.6191 26.335 38.6549 26.5107 38.7266C26.6865 38.7949 26.8363 38.9056 26.96 39.0586C27.0837 39.2116 27.1781 39.4102 27.2432 39.6543C27.3115 39.8952 27.3457 40.1898 27.3457 40.5381V44H26.4814V40.5283C26.4814 40.2516 26.4505 40.0303 26.3887 39.8643C26.3301 39.695 26.2389 39.5729 26.1152 39.498C25.9948 39.4199 25.8418 39.3809 25.6562 39.3809C25.487 39.3809 25.3291 39.4281 25.1826 39.5225C25.0361 39.6169 24.9076 39.7471 24.7969 39.9131C24.6895 40.0791 24.6048 40.2695 24.543 40.4844C24.4844 40.696 24.4551 40.9206 24.4551 41.1582ZM31.208 42.6475C31.208 42.514 31.1755 42.3968 31.1104 42.2959C31.0452 42.195 30.9378 42.0973 30.7881 42.0029C30.6416 41.9085 30.443 41.8076 30.1924 41.7002C29.9482 41.5993 29.7285 41.5 29.5332 41.4023C29.3411 41.3014 29.1784 41.1924 29.0449 41.0752C28.9115 40.958 28.8089 40.8229 28.7373 40.6699C28.6689 40.5137 28.6348 40.3298 28.6348 40.1182C28.6348 39.9066 28.6738 39.7113 28.752 39.5322C28.8333 39.3499 28.9473 39.1904 29.0938 39.0537C29.2402 38.917 29.416 38.8112 29.6211 38.7363C29.8262 38.6582 30.0557 38.6191 30.3096 38.6191C30.6709 38.6191 30.9785 38.6891 31.2324 38.8291C31.4863 38.9691 31.68 39.1611 31.8135 39.4053C31.9502 39.6462 32.0186 39.918 32.0186 40.2207H31.1592C31.1592 40.0742 31.1266 39.9359 31.0615 39.8057C30.9964 39.6755 30.9004 39.5697 30.7734 39.4883C30.6465 39.4036 30.4919 39.3613 30.3096 39.3613C30.1175 39.3613 29.9613 39.3955 29.8408 39.4639C29.7204 39.5322 29.6325 39.6217 29.5771 39.7324C29.5251 39.8398 29.499 39.9587 29.499 40.0889C29.499 40.1865 29.512 40.2712 29.5381 40.3428C29.5674 40.4111 29.6162 40.4762 29.6846 40.5381C29.7529 40.5967 29.8457 40.6585 29.9629 40.7236C30.0833 40.7855 30.2363 40.8571 30.4219 40.9385C30.7799 41.0785 31.0811 41.2201 31.3252 41.3633C31.5693 41.5065 31.7549 41.6742 31.8818 41.8662C32.0088 42.0583 32.0723 42.2959 32.0723 42.5791C32.0723 42.8102 32.0299 43.0202 31.9453 43.209C31.8639 43.3945 31.7467 43.554 31.5938 43.6875C31.4408 43.821 31.2568 43.9235 31.042 43.9951C30.8304 44.0635 30.5928 44.0977 30.3291 44.0977C29.932 44.0977 29.5951 44.0195 29.3184 43.8633C29.0449 43.7038 28.8366 43.4971 28.6934 43.2432C28.5534 42.986 28.4834 42.7109 28.4834 42.418H29.3477C29.3574 42.6654 29.4128 42.8574 29.5137 42.9941C29.6178 43.1309 29.7432 43.2253 29.8896 43.2773C30.0361 43.3294 30.1826 43.3555 30.3291 43.3555C30.5212 43.3555 30.6823 43.3278 30.8125 43.2725C30.9427 43.2139 31.0404 43.1309 31.1055 43.0234C31.1738 42.916 31.208 42.7907 31.208 42.6475ZM35.0947 44.0977C34.779 44.0977 34.4941 44.0505 34.2402 43.9561C33.9863 43.8617 33.7699 43.7184 33.5908 43.5264C33.4118 43.3311 33.2751 43.0853 33.1807 42.7891C33.0863 42.4928 33.0391 42.1429 33.0391 41.7393V41.1436C33.0391 40.6781 33.0928 40.2842 33.2002 39.9619C33.3109 39.6396 33.459 39.3809 33.6445 39.1855C33.8301 38.987 34.04 38.8437 34.2744 38.7559C34.5088 38.6647 34.7497 38.6191 34.9971 38.6191C35.3291 38.6191 35.6123 38.6729 35.8467 38.7803C36.0811 38.8877 36.2715 39.0472 36.418 39.2588C36.5645 39.4704 36.6719 39.7308 36.7402 40.04C36.8118 40.3493 36.8477 40.7057 36.8477 41.1094V41.6123H33.5469V40.875H35.9834V40.7529C35.9704 40.4795 35.9329 40.2386 35.8711 40.0303C35.8125 39.8219 35.7148 39.6592 35.5781 39.542C35.4414 39.4215 35.2477 39.3613 34.9971 39.3613C34.8376 39.3613 34.6895 39.389 34.5527 39.4443C34.4193 39.4964 34.3037 39.5892 34.2061 39.7227C34.1117 39.8529 34.0368 40.0335 33.9814 40.2646C33.9294 40.4958 33.9033 40.7887 33.9033 41.1436V41.7393C33.9033 42.0225 33.9294 42.2666 33.9814 42.4717C34.0368 42.6735 34.1165 42.8411 34.2207 42.9746C34.3281 43.1048 34.4583 43.2025 34.6113 43.2676C34.7676 43.3294 34.945 43.3604 35.1436 43.3604C35.4333 43.3604 35.6725 43.305 35.8613 43.1943C36.0501 43.0804 36.2145 42.9355 36.3545 42.7598L36.8086 43.3018C36.7142 43.4352 36.5905 43.5638 36.4375 43.6875C36.2878 43.8079 36.1022 43.9072 35.8809 43.9854C35.6628 44.0602 35.4007 44.0977 35.0947 44.0977ZM41.0518 39.7324V46.0312H40.1875V38.7168H40.9736L41.0518 39.7324ZM44.0059 41.1191V41.6123C44.0059 42.029 43.9668 42.3936 43.8887 42.7061C43.8138 43.0153 43.7015 43.2741 43.5518 43.4824C43.4053 43.6875 43.2246 43.8421 43.0098 43.9463C42.7949 44.0472 42.5492 44.0977 42.2725 44.0977C41.9958 44.0977 41.7549 44.0456 41.5498 43.9414C41.348 43.834 41.1771 43.6794 41.0371 43.4775C40.9004 43.2757 40.7913 43.0332 40.71 42.75C40.6318 42.4635 40.5781 42.1429 40.5488 41.7881V41.0361C40.5781 40.6618 40.6318 40.3265 40.71 40.0303C40.7881 39.7308 40.8955 39.4769 41.0322 39.2686C41.1722 39.057 41.3431 38.8958 41.5449 38.7852C41.75 38.6745 41.9893 38.6191 42.2627 38.6191C42.5459 38.6191 42.7949 38.668 43.0098 38.7656C43.2279 38.8633 43.4102 39.0146 43.5566 39.2197C43.7064 39.4215 43.8187 39.6803 43.8936 39.9961C43.9684 40.3086 44.0059 40.6829 44.0059 41.1191ZM43.1416 41.6123V41.1191C43.1416 40.8262 43.1188 40.5706 43.0732 40.3525C43.0309 40.1344 42.9626 39.9538 42.8682 39.8105C42.7738 39.6673 42.6549 39.5599 42.5117 39.4883C42.3685 39.4167 42.196 39.3809 41.9941 39.3809C41.8216 39.3809 41.6686 39.4167 41.5352 39.4883C41.4049 39.5599 41.2926 39.6576 41.1982 39.7812C41.1038 39.9017 41.0257 40.04 40.9639 40.1963C40.902 40.3493 40.8564 40.5088 40.8271 40.6748V42.1543C40.8825 42.3626 40.9557 42.5596 41.0469 42.7451C41.138 42.9274 41.2601 43.0755 41.4131 43.1895C41.5693 43.3034 41.7663 43.3604 42.0039 43.3604C42.2025 43.3604 42.3734 43.3245 42.5166 43.2529C42.6598 43.1813 42.777 43.0739 42.8682 42.9307C42.9626 42.7842 43.0309 42.6019 43.0732 42.3838C43.1188 42.1624 43.1416 41.9053 43.1416 41.6123ZM46.0469 36.5V44H45.1875V36.5H46.0469ZM50.002 43.0967V40.2305C50.002 40.0221 49.9694 39.8545 49.9043 39.7275C49.8424 39.6006 49.748 39.5078 49.6211 39.4492C49.4974 39.3906 49.3411 39.3613 49.1523 39.3613C48.9701 39.3613 48.8122 39.3988 48.6787 39.4736C48.5485 39.5485 48.4476 39.6478 48.376 39.7715C48.3076 39.8952 48.2734 40.0319 48.2734 40.1816H47.4092C47.4092 39.9928 47.4499 39.8057 47.5312 39.6201C47.6159 39.4346 47.7363 39.2669 47.8926 39.1172C48.0488 38.9642 48.236 38.8437 48.4541 38.7559C48.6755 38.6647 48.9229 38.6191 49.1963 38.6191C49.5218 38.6191 49.8099 38.6729 50.0605 38.7803C50.3112 38.8844 50.5081 39.0553 50.6514 39.293C50.7946 39.5306 50.8662 39.8464 50.8662 40.2402V42.8477C50.8662 43.0234 50.8792 43.2106 50.9053 43.4092C50.9346 43.6077 50.9753 43.7786 51.0273 43.9219V44H50.1338C50.0915 43.8958 50.0589 43.7575 50.0361 43.585C50.0133 43.4092 50.002 43.2464 50.002 43.0967ZM50.1387 40.7969L50.1484 41.4316H49.5479C49.3428 41.4316 49.1556 41.4544 48.9863 41.5C48.8203 41.5456 48.6771 41.6123 48.5566 41.7002C48.4362 41.7848 48.3434 41.8906 48.2783 42.0176C48.2165 42.1445 48.1855 42.2894 48.1855 42.4521C48.1855 42.6637 48.2148 42.833 48.2734 42.96C48.332 43.0837 48.4199 43.1732 48.5371 43.2285C48.6543 43.2839 48.8024 43.3115 48.9814 43.3115C49.1995 43.3115 49.3916 43.2611 49.5576 43.1602C49.7236 43.0592 49.8522 42.9372 49.9434 42.7939C50.0378 42.6507 50.0817 42.5173 50.0752 42.3936L50.2656 42.7988C50.2526 42.9258 50.2103 43.0641 50.1387 43.2139C50.0703 43.3604 49.9743 43.502 49.8506 43.6387C49.7269 43.7721 49.5804 43.8828 49.4111 43.9707C49.2451 44.0553 49.0579 44.0977 48.8496 44.0977C48.5436 44.0977 48.2751 44.0391 48.0439 43.9219C47.8161 43.8047 47.6387 43.6322 47.5117 43.4043C47.3848 43.1764 47.3213 42.8949 47.3213 42.5596C47.3213 42.3057 47.3652 42.0713 47.4531 41.8564C47.541 41.6416 47.6712 41.4561 47.8438 41.2998C48.0163 41.1403 48.2327 41.0166 48.4932 40.9287C48.7568 40.8408 49.0612 40.7969 49.4062 40.7969H50.1387ZM54.1377 38.7168V39.4102H51.6719V38.7168H54.1377ZM52.4775 37.4326H53.3418V42.6914C53.3418 42.8704 53.363 43.0055 53.4053 43.0967C53.4508 43.1878 53.5078 43.248 53.5762 43.2773C53.6445 43.3066 53.7178 43.3213 53.7959 43.3213C53.8545 43.3213 53.9196 43.3148 53.9912 43.3018C54.0628 43.2855 54.1117 43.2725 54.1377 43.2627L54.1328 44C54.0742 44.0228 53.9961 44.0439 53.8984 44.0635C53.8008 44.0863 53.6771 44.0977 53.5273 44.0977C53.3418 44.0977 53.1693 44.0537 53.0098 43.9658C52.8503 43.8779 52.7217 43.7314 52.624 43.5264C52.5264 43.318 52.4775 43.0381 52.4775 42.6865V37.4326ZM57.0576 44.0977C56.7419 44.0977 56.457 44.0505 56.2031 43.9561C55.9492 43.8617 55.7327 43.7184 55.5537 43.5264C55.3747 43.3311 55.238 43.0853 55.1436 42.7891C55.0492 42.4928 55.002 42.1429 55.002 41.7393V41.1436C55.002 40.6781 55.0557 40.2842 55.1631 39.9619C55.2738 39.6396 55.4219 39.3809 55.6074 39.1855C55.793 38.987 56.0029 38.8437 56.2373 38.7559C56.4717 38.6647 56.7126 38.6191 56.96 38.6191C57.292 38.6191 57.5752 38.6729 57.8096 38.7803C58.0439 38.8877 58.2344 39.0472 58.3809 39.2588C58.5273 39.4704 58.6348 39.7308 58.7031 40.04C58.7747 40.3493 58.8105 40.7057 58.8105 41.1094V41.6123H55.5098V40.875H57.9463V40.7529C57.9333 40.4795 57.8958 40.2386 57.834 40.0303C57.7754 39.8219 57.6777 39.6592 57.541 39.542C57.4043 39.4215 57.2106 39.3613 56.96 39.3613C56.8005 39.3613 56.6523 39.389 56.5156 39.4443C56.3822 39.4964 56.2666 39.5892 56.1689 39.7227C56.0745 39.8529 55.9997 40.0335 55.9443 40.2646C55.8923 40.4958 55.8662 40.7887 55.8662 41.1436V41.7393C55.8662 42.0225 55.8923 42.2666 55.9443 42.4717C55.9997 42.6735 56.0794 42.8411 56.1836 42.9746C56.291 43.1048 56.4212 43.2025 56.5742 43.2676C56.7305 43.3294 56.9079 43.3604 57.1064 43.3604C57.3962 43.3604 57.6354 43.305 57.8242 43.1943C58.013 43.0804 58.1774 42.9355 58.3174 42.7598L58.7715 43.3018C58.6771 43.4352 58.5534 43.5638 58.4004 43.6875C58.2507 43.8079 58.0651 43.9072 57.8438 43.9854C57.6257 44.0602 57.3636 44.0977 57.0576 44.0977ZM19.5771 50.8447V55H18.7129V49.7168H19.5283L19.5771 50.8447ZM19.3672 52.1582L19.0156 52.1436C19.0124 51.7822 19.0531 51.4486 19.1377 51.1426C19.2256 50.8333 19.3493 50.5648 19.5088 50.3369C19.6715 50.109 19.8652 49.9333 20.0898 49.8096C20.3145 49.6826 20.5635 49.6191 20.8369 49.6191C21.0518 49.6191 21.2471 49.6549 21.4229 49.7266C21.5986 49.7949 21.7484 49.9056 21.8721 50.0586C21.9958 50.2116 22.0902 50.4102 22.1553 50.6543C22.2236 50.8952 22.2578 51.1898 22.2578 51.5381V55H21.3936V51.5283C21.3936 51.2516 21.3626 51.0303 21.3008 50.8643C21.2422 50.695 21.151 50.5729 21.0273 50.498C20.9069 50.4199 20.7539 50.3809 20.5684 50.3809C20.3991 50.3809 20.2412 50.4281 20.0947 50.5225C19.9482 50.6169 19.8197 50.7471 19.709 50.9131C19.6016 51.0791 19.5169 51.2695 19.4551 51.4844C19.3965 51.696 19.3672 51.9206 19.3672 52.1582ZM26.2275 53.7793V49.7168H27.0918V55H26.2715L26.2275 53.7793ZM26.3887 52.666L26.7305 52.6562C26.7305 53.0078 26.6995 53.3333 26.6377 53.6328C26.5791 53.929 26.4814 54.1862 26.3447 54.4043C26.2113 54.6224 26.0339 54.7933 25.8125 54.917C25.5911 55.0374 25.3193 55.0977 24.9971 55.0977C24.779 55.0977 24.5804 55.0602 24.4014 54.9854C24.2256 54.9105 24.0726 54.7949 23.9424 54.6387C23.8154 54.4824 23.7161 54.279 23.6445 54.0283C23.5762 53.7777 23.542 53.4766 23.542 53.125V49.7168H24.4014V53.1348C24.4014 53.3724 24.4225 53.5693 24.4648 53.7256C24.5072 53.8786 24.5641 54.0007 24.6357 54.0918C24.7074 54.1797 24.7871 54.2415 24.875 54.2773C24.9629 54.3132 25.0524 54.3311 25.1436 54.3311C25.4495 54.3311 25.6937 54.2578 25.876 54.1113C26.0583 53.9616 26.1885 53.7614 26.2666 53.5107C26.348 53.2568 26.3887 52.9753 26.3887 52.666ZM29.2549 50.7666V55H28.3955V49.7168H29.2061L29.2549 50.7666ZM29.0791 52.1582L28.6787 52.1436C28.6755 51.7822 28.7113 51.4486 28.7861 51.1426C28.861 50.8333 28.9733 50.5648 29.123 50.3369C29.276 50.109 29.4665 49.9333 29.6943 49.8096C29.9255 49.6826 30.194 49.6191 30.5 49.6191C30.7018 49.6191 30.889 49.6549 31.0615 49.7266C31.2373 49.7949 31.3903 49.904 31.5205 50.0537C31.6507 50.2035 31.7516 50.3955 31.8232 50.6299C31.8981 50.8643 31.9355 51.1475 31.9355 51.4795V55H31.0713V51.5234C31.0713 51.2467 31.0339 51.0254 30.959 50.8594C30.8874 50.6934 30.7848 50.5729 30.6514 50.498C30.5179 50.4199 30.3584 50.3809 30.1729 50.3809C29.9613 50.3809 29.7839 50.4281 29.6406 50.5225C29.5007 50.6169 29.3883 50.7471 29.3037 50.9131C29.2223 51.0791 29.1637 51.2695 29.1279 51.4844C29.0954 51.696 29.0791 51.9206 29.0791 52.1582ZM31.9258 51.6602L31.3496 51.8457C31.3464 51.556 31.3822 51.2777 31.457 51.0107C31.5319 50.7438 31.6426 50.5062 31.7891 50.2979C31.9388 50.0895 32.1243 49.9251 32.3457 49.8047C32.5671 49.681 32.8242 49.6191 33.1172 49.6191C33.3581 49.6191 33.5713 49.6566 33.7568 49.7314C33.9424 49.8063 34.0986 49.9219 34.2256 50.0781C34.3558 50.2311 34.4535 50.4281 34.5186 50.6689C34.5837 50.9098 34.6162 51.1963 34.6162 51.5283V55H33.752V51.5186C33.752 51.2223 33.7145 50.9928 33.6396 50.8301C33.568 50.6641 33.4655 50.5485 33.332 50.4834C33.1986 50.415 33.0391 50.3809 32.8535 50.3809C32.7038 50.3809 32.5703 50.415 32.4531 50.4834C32.3392 50.5518 32.2432 50.6462 32.165 50.7666C32.0869 50.8838 32.0267 51.0189 31.9844 51.1719C31.9453 51.3249 31.9258 51.4876 31.9258 51.6602ZM35.9199 47.5H36.7842V53.9746L36.7109 55H35.9199V47.5ZM39.748 52.1191V52.6123C39.748 53.029 39.709 53.3936 39.6309 53.7061C39.556 54.0153 39.4437 54.2741 39.2939 54.4824C39.1442 54.6875 38.9619 54.8421 38.7471 54.9463C38.5322 55.0472 38.2865 55.0977 38.0098 55.0977C37.7363 55.0977 37.5003 55.0423 37.3018 54.9316C37.1032 54.821 36.9372 54.6615 36.8037 54.4531C36.6702 54.2448 36.5645 53.9925 36.4863 53.6963C36.4115 53.4001 36.3594 53.0664 36.3301 52.6953V52.0361C36.3594 51.6618 36.4115 51.3265 36.4863 51.0303C36.5612 50.7308 36.6654 50.4769 36.7988 50.2686C36.9323 50.057 37.0983 49.8958 37.2969 49.7852C37.4954 49.6745 37.7314 49.6191 38.0049 49.6191C38.2848 49.6191 38.5322 49.668 38.7471 49.7656C38.9652 49.8633 39.1475 50.0146 39.2939 50.2197C39.4437 50.4215 39.556 50.6803 39.6309 50.9961C39.709 51.3086 39.748 51.6829 39.748 52.1191ZM38.8838 52.6123V52.1191C38.8838 51.8262 38.8643 51.5706 38.8252 51.3525C38.7894 51.1344 38.7292 50.9538 38.6445 50.8105C38.5599 50.6673 38.446 50.5599 38.3027 50.4883C38.1628 50.4167 37.9886 50.3809 37.7803 50.3809C37.6045 50.3809 37.4499 50.4167 37.3164 50.4883C37.1862 50.5599 37.0739 50.6576 36.9795 50.7812C36.8851 50.9017 36.807 51.04 36.7451 51.1963C36.6833 51.3493 36.6377 51.5088 36.6084 51.6748V53.0615C36.6507 53.2731 36.7174 53.4766 36.8086 53.6719C36.903 53.8639 37.0299 54.0218 37.1895 54.1455C37.349 54.2692 37.5475 54.3311 37.7852 54.3311C37.9837 54.3311 38.1514 54.2969 38.2881 54.2285C38.4281 54.1602 38.542 54.056 38.6299 53.916C38.7178 53.7728 38.7812 53.5937 38.8203 53.3789C38.8626 53.1608 38.8838 52.9053 38.8838 52.6123ZM42.7412 55.0977C42.4255 55.0977 42.1406 55.0505 41.8867 54.9561C41.6328 54.8617 41.4163 54.7184 41.2373 54.5264C41.0583 54.3311 40.9215 54.0853 40.8271 53.7891C40.7327 53.4928 40.6855 53.1429 40.6855 52.7393V52.1436C40.6855 51.6781 40.7393 51.2842 40.8467 50.9619C40.9574 50.6396 41.1055 50.3809 41.291 50.1855C41.4766 49.987 41.6865 49.8437 41.9209 49.7559C42.1553 49.6647 42.3962 49.6191 42.6436 49.6191C42.9756 49.6191 43.2588 49.6729 43.4932 49.7803C43.7275 49.8877 43.918 50.0472 44.0645 50.2588C44.2109 50.4704 44.3184 50.7308 44.3867 51.04C44.4583 51.3493 44.4941 51.7057 44.4941 52.1094V52.6123H41.1934V51.875H43.6299V51.7529C43.6169 51.4795 43.5794 51.2386 43.5176 51.0303C43.459 50.8219 43.3613 50.6592 43.2246 50.542C43.0879 50.4215 42.8942 50.3613 42.6436 50.3613C42.484 50.3613 42.3359 50.389 42.1992 50.4443C42.0658 50.4964 41.9502 50.5892 41.8525 50.7227C41.7581 50.8529 41.6833 51.0335 41.6279 51.2646C41.5758 51.4958 41.5498 51.7887 41.5498 52.1436V52.7393C41.5498 53.0225 41.5758 53.2666 41.6279 53.4717C41.6833 53.6735 41.763 53.8411 41.8672 53.9746C41.9746 54.1048 42.1048 54.2025 42.2578 54.2676C42.4141 54.3294 42.5915 54.3604 42.79 54.3604C43.0798 54.3604 43.319 54.305 43.5078 54.1943C43.6966 54.0804 43.861 53.9355 44.001 53.7598L44.4551 54.3018C44.3607 54.4352 44.237 54.5638 44.084 54.6875C43.9342 54.8079 43.7487 54.9072 43.5273 54.9854C43.3092 55.0602 43.0472 55.0977 42.7412 55.0977ZM46.4033 50.5469V55H45.5391V49.7168H46.374L46.4033 50.5469ZM47.7168 49.6875L47.7217 50.5273C47.6501 50.5111 47.585 50.5013 47.5264 50.498C47.471 50.4915 47.4059 50.4883 47.3311 50.4883C47.1683 50.4883 47.0251 50.5208 46.9014 50.5859C46.7809 50.651 46.6768 50.7422 46.5889 50.8594C46.501 50.9766 46.431 51.1165 46.3789 51.2793C46.3268 51.4388 46.291 51.6146 46.2715 51.8066L46.0469 51.9531C46.0469 51.6341 46.0713 51.3346 46.1201 51.0547C46.1722 50.7747 46.252 50.5273 46.3594 50.3125C46.4668 50.0944 46.6035 49.9251 46.7695 49.8047C46.9388 49.681 47.1406 49.6191 47.375 49.6191C47.4271 49.6191 47.4906 49.6273 47.5654 49.6436C47.6436 49.6566 47.694 49.6712 47.7168 49.6875Z" fill="url(#paint0_linear_363_1716)"/>
<path d="M115.213 44.6748H113.768L113.758 43.918H115.101C115.302 43.918 115.481 43.8724 115.638 43.7812C115.794 43.6901 115.916 43.5599 116.004 43.3906C116.095 43.2181 116.141 43.013 116.141 42.7754C116.141 42.515 116.102 42.3034 116.023 42.1406C115.949 41.9746 115.833 41.8542 115.677 41.7793C115.524 41.7012 115.328 41.6621 115.091 41.6621H113.958V48H113.06V40.8906H115.091C115.397 40.8906 115.67 40.9281 115.911 41.0029C116.152 41.0745 116.355 41.1885 116.521 41.3447C116.691 41.4977 116.819 41.693 116.907 41.9307C116.995 42.1683 117.039 42.4531 117.039 42.7852C117.039 43.0781 116.972 43.3434 116.839 43.5811C116.709 43.8154 116.526 44.0075 116.292 44.1572C116.058 44.307 115.787 44.403 115.481 44.4453L115.213 44.6748ZM115.179 48H113.396L113.919 47.2334H115.179C115.413 47.2334 115.612 47.1813 115.774 47.0771C115.937 46.973 116.061 46.8265 116.146 46.6377C116.233 46.4456 116.277 46.2194 116.277 45.959C116.277 45.6953 116.242 45.4674 116.17 45.2754C116.098 45.0833 115.984 44.9352 115.828 44.8311C115.672 44.7269 115.467 44.6748 115.213 44.6748H114.056L114.065 43.918H115.628L115.828 44.1914C116.121 44.2207 116.367 44.3184 116.565 44.4844C116.767 44.6471 116.919 44.8555 117.02 45.1094C117.124 45.3633 117.176 45.6432 117.176 45.9492C117.176 46.3919 117.093 46.7663 116.927 47.0723C116.764 47.375 116.533 47.6061 116.233 47.7656C115.934 47.9219 115.582 48 115.179 48ZM119.329 42.7168V48H118.47V42.7168H119.329ZM118.421 41.3154C118.421 41.1689 118.462 41.0452 118.543 40.9443C118.624 40.8434 118.746 40.793 118.909 40.793C119.072 40.793 119.194 40.8434 119.275 40.9443C119.36 41.0452 119.402 41.1689 119.402 41.3154C119.402 41.4554 119.36 41.5758 119.275 41.6768C119.194 41.7744 119.072 41.8232 118.909 41.8232C118.746 41.8232 118.624 41.7744 118.543 41.6768C118.462 41.5758 118.421 41.4554 118.421 41.3154ZM121.624 40.5V48H120.765V40.5H121.624ZM123.919 40.5V48H123.06V40.5H123.919ZM126.214 42.7168V48H125.354V42.7168H126.214ZM125.306 41.3154C125.306 41.1689 125.346 41.0452 125.428 40.9443C125.509 40.8434 125.631 40.793 125.794 40.793C125.957 40.793 126.079 40.8434 126.16 40.9443C126.245 41.0452 126.287 41.1689 126.287 41.3154C126.287 41.4554 126.245 41.5758 126.16 41.6768C126.079 41.7744 125.957 41.8232 125.794 41.8232C125.631 41.8232 125.509 41.7744 125.428 41.6768C125.346 41.5758 125.306 41.4554 125.306 41.3154ZM128.445 43.8447V48H127.581V42.7168H128.396L128.445 43.8447ZM128.235 45.1582L127.884 45.1436C127.881 44.7822 127.921 44.4486 128.006 44.1426C128.094 43.8333 128.217 43.5648 128.377 43.3369C128.54 43.109 128.733 42.9333 128.958 42.8096C129.183 42.6826 129.432 42.6191 129.705 42.6191C129.92 42.6191 130.115 42.6549 130.291 42.7266C130.467 42.7949 130.617 42.9056 130.74 43.0586C130.864 43.2116 130.958 43.4102 131.023 43.6543C131.092 43.8952 131.126 44.1898 131.126 44.5381V48H130.262V44.5283C130.262 44.2516 130.231 44.0303 130.169 43.8643C130.11 43.695 130.019 43.5729 129.896 43.498C129.775 43.4199 129.622 43.3809 129.437 43.3809C129.267 43.3809 129.109 43.4281 128.963 43.5225C128.816 43.6169 128.688 43.7471 128.577 43.9131C128.47 44.0791 128.385 44.2695 128.323 44.4844C128.265 44.696 128.235 44.9206 128.235 45.1582ZM135.286 42.7168H136.062V48.0439C136.062 48.5094 135.981 48.8936 135.818 49.1963C135.659 49.499 135.436 49.722 135.149 49.8652C134.863 50.0117 134.533 50.085 134.158 50.085C134.025 50.085 133.857 50.0605 133.655 50.0117C133.453 49.9629 133.252 49.888 133.05 49.7871C132.848 49.6895 132.682 49.5658 132.552 49.416L132.908 48.8154C133.094 49.0042 133.291 49.1393 133.499 49.2207C133.707 49.3021 133.906 49.3428 134.095 49.3428C134.319 49.3428 134.515 49.3021 134.681 49.2207C134.847 49.1393 134.975 49.0059 135.066 48.8203C135.158 48.638 135.203 48.3939 135.203 48.0879V43.8789L135.286 42.7168ZM132.249 45.6123V45.1191C132.249 44.6829 132.29 44.3086 132.371 43.9961C132.452 43.6803 132.57 43.4215 132.723 43.2197C132.879 43.0146 133.066 42.8633 133.284 42.7656C133.502 42.668 133.746 42.6191 134.017 42.6191C134.29 42.6191 134.526 42.6745 134.725 42.7852C134.923 42.8958 135.088 43.057 135.218 43.2686C135.351 43.4769 135.455 43.7308 135.53 44.0303C135.608 44.3265 135.662 44.6618 135.691 45.0361V45.6953C135.662 46.0664 135.608 46.4001 135.53 46.6963C135.455 46.9925 135.35 47.2448 135.213 47.4531C135.079 47.6615 134.913 47.821 134.715 47.9316C134.516 48.0423 134.28 48.0977 134.007 48.0977C133.74 48.0977 133.499 48.0472 133.284 47.9463C133.069 47.8421 132.884 47.6875 132.728 47.4824C132.575 47.2741 132.456 47.0153 132.371 46.7061C132.29 46.3936 132.249 46.029 132.249 45.6123ZM133.113 45.1191V45.6123C133.113 45.9053 133.134 46.1608 133.177 46.3789C133.219 46.5938 133.284 46.7728 133.372 46.916C133.463 47.056 133.579 47.1602 133.719 47.2285C133.862 47.2969 134.033 47.3311 134.231 47.3311C134.472 47.3311 134.669 47.2725 134.822 47.1553C134.975 47.0381 135.097 46.8835 135.188 46.6914C135.283 46.4961 135.358 46.2861 135.413 46.0615V44.6748C135.381 44.5088 135.333 44.3493 135.271 44.1963C135.213 44.04 135.136 43.9017 135.042 43.7812C134.948 43.6576 134.834 43.5599 134.7 43.4883C134.57 43.4167 134.417 43.3809 134.241 43.3809C134.043 43.3809 133.872 43.4167 133.729 43.4883C133.585 43.5599 133.468 43.6673 133.377 43.8105C133.286 43.9538 133.219 44.1344 133.177 44.3525C133.134 44.5706 133.113 44.8262 133.113 45.1191Z" fill="url(#paint1_linear_363_1716)"/>
<path d="M195.793 41.9209L197.502 35.8906H198.479L196.271 43H195.583L195.793 41.9209ZM194.26 35.8906L195.954 41.9209L196.179 43H195.49L193.283 35.8906H194.26ZM201.003 43.0977C200.687 43.0977 200.402 43.0505 200.148 42.9561C199.895 42.8617 199.678 42.7184 199.499 42.5264C199.32 42.3311 199.183 42.0853 199.089 41.7891C198.994 41.4928 198.947 41.1429 198.947 40.7393V40.1436C198.947 39.6781 199.001 39.2842 199.108 38.9619C199.219 38.6396 199.367 38.3809 199.553 38.1855C199.738 37.987 199.948 37.8438 200.183 37.7559C200.417 37.6647 200.658 37.6191 200.905 37.6191C201.237 37.6191 201.521 37.6729 201.755 37.7803C201.989 37.8877 202.18 38.0472 202.326 38.2588C202.473 38.4704 202.58 38.7308 202.648 39.04C202.72 39.3493 202.756 39.7057 202.756 40.1094V40.6123H199.455V39.875H201.892V39.7529C201.879 39.4795 201.841 39.2386 201.779 39.0303C201.721 38.8219 201.623 38.6592 201.486 38.542C201.35 38.4215 201.156 38.3613 200.905 38.3613C200.746 38.3613 200.598 38.389 200.461 38.4443C200.327 38.4964 200.212 38.5892 200.114 38.7227C200.02 38.8529 199.945 39.0335 199.89 39.2646C199.838 39.4958 199.812 39.7887 199.812 40.1436V40.7393C199.812 41.0225 199.838 41.2666 199.89 41.4717C199.945 41.6735 200.025 41.8411 200.129 41.9746C200.236 42.1048 200.367 42.2025 200.52 42.2676C200.676 42.3294 200.853 42.3604 201.052 42.3604C201.341 42.3604 201.581 42.305 201.77 42.1943C201.958 42.0804 202.123 41.9355 202.263 41.7598L202.717 42.3018C202.622 42.4352 202.499 42.5638 202.346 42.6875C202.196 42.8079 202.01 42.9072 201.789 42.9854C201.571 43.0602 201.309 43.0977 201.003 43.0977ZM204.665 38.5469V43H203.801V37.7168H204.636L204.665 38.5469ZM205.979 37.6875L205.983 38.5273C205.912 38.5111 205.847 38.5013 205.788 38.498C205.733 38.4915 205.668 38.4883 205.593 38.4883C205.43 38.4883 205.287 38.5208 205.163 38.5859C205.043 38.651 204.938 38.7422 204.851 38.8594C204.763 38.9766 204.693 39.1165 204.641 39.2793C204.589 39.4388 204.553 39.6146 204.533 39.8066L204.309 39.9531C204.309 39.6341 204.333 39.3346 204.382 39.0547C204.434 38.7747 204.514 38.5273 204.621 38.3125C204.729 38.0944 204.865 37.9251 205.031 37.8047C205.201 37.681 205.402 37.6191 205.637 37.6191C205.689 37.6191 205.752 37.6273 205.827 37.6436C205.905 37.6566 205.956 37.6712 205.979 37.6875ZM207.775 37.7168V43H206.916V37.7168H207.775ZM206.867 36.3154C206.867 36.1689 206.908 36.0452 206.989 35.9443C207.071 35.8434 207.193 35.793 207.355 35.793C207.518 35.793 207.64 35.8434 207.722 35.9443C207.806 36.0452 207.849 36.1689 207.849 36.3154C207.849 36.4554 207.806 36.5758 207.722 36.6768C207.64 36.7744 207.518 36.8232 207.355 36.8232C207.193 36.8232 207.071 36.7744 206.989 36.6768C206.908 36.5758 206.867 36.4554 206.867 36.3154ZM210.246 43H209.382V37.2578C209.382 36.8574 209.449 36.5189 209.582 36.2422C209.719 35.9655 209.912 35.7555 210.163 35.6123C210.417 35.4691 210.716 35.3975 211.062 35.3975C211.267 35.3975 211.464 35.4268 211.652 35.4854C211.841 35.5407 212.036 35.6107 212.238 35.6953L212.092 36.457C211.975 36.3984 211.831 36.3431 211.662 36.291C211.493 36.2357 211.315 36.208 211.13 36.208C210.804 36.208 210.575 36.2959 210.441 36.4717C210.311 36.6442 210.246 36.9062 210.246 37.2578V43ZM211.101 37.7168V38.4102H208.693V37.7168H211.101ZM212.653 37.7168V43H211.789V37.7168H212.653ZM215.876 42.3604C216.049 42.3604 216.205 42.3262 216.345 42.2578C216.488 42.1862 216.605 42.0755 216.696 41.9258C216.787 41.7728 216.84 41.5742 216.853 41.3301H217.663C217.65 41.6816 217.561 41.9909 217.395 42.2578C217.232 42.5215 217.017 42.7282 216.75 42.8779C216.486 43.0244 216.195 43.0977 215.876 43.0977C215.534 43.0977 215.236 43.0423 214.982 42.9316C214.732 42.821 214.523 42.6615 214.357 42.4531C214.195 42.2415 214.073 41.986 213.991 41.6865C213.91 41.3838 213.869 41.0404 213.869 40.6562V40.0605C213.869 39.6764 213.91 39.3346 213.991 39.0352C214.073 38.7324 214.195 38.4769 214.357 38.2686C214.523 38.057 214.732 37.8958 214.982 37.7852C215.236 37.6745 215.534 37.6191 215.876 37.6191C216.234 37.6191 216.543 37.6956 216.804 37.8486C217.067 37.9984 217.272 38.2165 217.419 38.5029C217.569 38.7861 217.65 39.1296 217.663 39.5332H216.853C216.84 39.2728 216.792 39.0563 216.711 38.8838C216.63 38.708 216.519 38.5778 216.379 38.4932C216.239 38.4053 216.071 38.3613 215.876 38.3613C215.648 38.3613 215.459 38.402 215.31 38.4834C215.163 38.5615 215.048 38.6755 214.963 38.8252C214.878 38.9749 214.818 39.154 214.782 39.3623C214.75 39.5706 214.733 39.8034 214.733 40.0605V40.6562C214.733 40.9134 214.75 41.1478 214.782 41.3594C214.818 41.5677 214.877 41.7467 214.958 41.8965C215.043 42.0462 215.16 42.1618 215.31 42.2432C215.459 42.3213 215.648 42.3604 215.876 42.3604ZM221.252 42.0967V39.2305C221.252 39.0221 221.219 38.8545 221.154 38.7275C221.092 38.6006 220.998 38.5078 220.871 38.4492C220.747 38.3906 220.591 38.3613 220.402 38.3613C220.22 38.3613 220.062 38.3988 219.929 38.4736C219.799 38.5485 219.698 38.6478 219.626 38.7715C219.558 38.8952 219.523 39.0319 219.523 39.1816H218.659C218.659 38.9928 218.7 38.8057 218.781 38.6201C218.866 38.4346 218.986 38.2669 219.143 38.1172C219.299 37.9642 219.486 37.8437 219.704 37.7559C219.925 37.6647 220.173 37.6191 220.446 37.6191C220.772 37.6191 221.06 37.6729 221.311 37.7803C221.561 37.8844 221.758 38.0553 221.901 38.293C222.045 38.5306 222.116 38.8464 222.116 39.2402V41.8477C222.116 42.0234 222.129 42.2106 222.155 42.4092C222.185 42.6077 222.225 42.7786 222.277 42.9219V43H221.384C221.341 42.8958 221.309 42.7575 221.286 42.585C221.263 42.4092 221.252 42.2464 221.252 42.0967ZM221.389 39.7969L221.398 40.4316H220.798C220.593 40.4316 220.406 40.4544 220.236 40.5C220.07 40.5456 219.927 40.6123 219.807 40.7002C219.686 40.7848 219.593 40.8906 219.528 41.0176C219.466 41.1445 219.436 41.2894 219.436 41.4521C219.436 41.6637 219.465 41.833 219.523 41.96C219.582 42.0837 219.67 42.1732 219.787 42.2285C219.904 42.2839 220.052 42.3115 220.231 42.3115C220.45 42.3115 220.642 42.2611 220.808 42.1602C220.974 42.0592 221.102 41.9372 221.193 41.7939C221.288 41.6507 221.332 41.5173 221.325 41.3936L221.516 41.7988C221.503 41.9258 221.46 42.0641 221.389 42.2139C221.32 42.3604 221.224 42.502 221.101 42.6387C220.977 42.7721 220.83 42.8828 220.661 42.9707C220.495 43.0553 220.308 43.0977 220.1 43.0977C219.794 43.0977 219.525 43.0391 219.294 42.9219C219.066 42.8047 218.889 42.6322 218.762 42.4043C218.635 42.1764 218.571 41.8949 218.571 41.5596C218.571 41.3057 218.615 41.0713 218.703 40.8564C218.791 40.6416 218.921 40.4561 219.094 40.2998C219.266 40.1403 219.483 40.0166 219.743 39.9287C220.007 39.8408 220.311 39.7969 220.656 39.7969H221.389ZM225.388 37.7168V38.4102H222.922V37.7168H225.388ZM223.728 36.4326H224.592V41.6914C224.592 41.8704 224.613 42.0055 224.655 42.0967C224.701 42.1878 224.758 42.248 224.826 42.2773C224.895 42.3066 224.968 42.3213 225.046 42.3213C225.104 42.3213 225.17 42.3148 225.241 42.3018C225.313 42.2855 225.362 42.2725 225.388 42.2627L225.383 43C225.324 43.0228 225.246 43.0439 225.148 43.0635C225.051 43.0863 224.927 43.0977 224.777 43.0977C224.592 43.0977 224.419 43.0537 224.26 42.9658C224.1 42.8779 223.972 42.7314 223.874 42.5264C223.776 42.318 223.728 42.0381 223.728 41.6865V36.4326ZM227.346 37.7168V43H226.486V37.7168H227.346ZM226.438 36.3154C226.438 36.1689 226.478 36.0452 226.56 35.9443C226.641 35.8434 226.763 35.793 226.926 35.793C227.089 35.793 227.211 35.8434 227.292 35.9443C227.377 36.0452 227.419 36.1689 227.419 36.3154C227.419 36.4554 227.377 36.5758 227.292 36.6768C227.211 36.7744 227.089 36.8232 226.926 36.8232C226.763 36.8232 226.641 36.7744 226.56 36.6768C226.478 36.5758 226.438 36.4554 226.438 36.3154ZM228.532 40.6123V40.1094C228.532 39.6992 228.584 39.3395 228.688 39.0303C228.793 38.7178 228.938 38.4574 229.123 38.249C229.309 38.0407 229.525 37.8844 229.772 37.7803C230.02 37.6729 230.285 37.6191 230.568 37.6191C230.858 37.6191 231.127 37.6729 231.374 37.7803C231.621 37.8844 231.838 38.0407 232.023 38.249C232.212 38.4574 232.359 38.7178 232.463 39.0303C232.567 39.3395 232.619 39.6992 232.619 40.1094V40.6123C232.619 41.0225 232.567 41.3838 232.463 41.6963C232.359 42.0055 232.214 42.2643 232.028 42.4727C231.843 42.681 231.626 42.8372 231.379 42.9414C231.132 43.0456 230.865 43.0977 230.578 43.0977C230.292 43.0977 230.025 43.0456 229.777 42.9414C229.53 42.8372 229.312 42.681 229.123 42.4727C228.938 42.2643 228.793 42.0055 228.688 41.6963C228.584 41.3838 228.532 41.0225 228.532 40.6123ZM229.396 40.1094V40.6123C229.396 40.902 229.426 41.1559 229.484 41.374C229.543 41.5921 229.626 41.7744 229.733 41.9209C229.841 42.0674 229.966 42.1781 230.109 42.2529C230.253 42.3245 230.409 42.3604 230.578 42.3604C230.773 42.3604 230.944 42.3245 231.091 42.2529C231.241 42.1781 231.364 42.0674 231.462 41.9209C231.56 41.7744 231.633 41.5921 231.682 41.374C231.73 41.1559 231.755 40.902 231.755 40.6123V40.1094C231.755 39.8197 231.726 39.5674 231.667 39.3525C231.608 39.1344 231.525 38.9521 231.418 38.8057C231.311 38.6559 231.184 38.5452 231.037 38.4736C230.894 38.3988 230.738 38.3613 230.568 38.3613C230.402 38.3613 230.248 38.3988 230.104 38.4736C229.961 38.5452 229.836 38.6559 229.729 38.8057C229.624 38.9521 229.543 39.1344 229.484 39.3525C229.426 39.5674 229.396 39.8197 229.396 40.1094ZM234.597 38.8447V43H233.732V37.7168H234.548L234.597 38.8447ZM234.387 40.1582L234.035 40.1436C234.032 39.7822 234.073 39.4486 234.157 39.1426C234.245 38.8333 234.369 38.5648 234.528 38.3369C234.691 38.109 234.885 37.9333 235.109 37.8096C235.334 37.6826 235.583 37.6191 235.856 37.6191C236.071 37.6191 236.267 37.6549 236.442 37.7266C236.618 37.7949 236.768 37.9056 236.892 38.0586C237.015 38.2116 237.11 38.4102 237.175 38.6543C237.243 38.8952 237.277 39.1898 237.277 39.5381V43H236.413V39.5283C236.413 39.2516 236.382 39.0303 236.32 38.8643C236.262 38.695 236.171 38.5729 236.047 38.498C235.926 38.4199 235.773 38.3809 235.588 38.3809C235.419 38.3809 235.261 38.4281 235.114 38.5225C234.968 38.6169 234.839 38.7471 234.729 38.9131C234.621 39.0791 234.536 39.2695 234.475 39.4844C234.416 39.696 234.387 39.9206 234.387 40.1582ZM196.521 50.0547L197.395 49.2979C197.567 49.1579 197.696 49.0179 197.78 48.8779C197.865 48.7347 197.907 48.5394 197.907 48.292C197.907 48.0999 197.847 47.9258 197.727 47.7695C197.609 47.61 197.442 47.5303 197.224 47.5303C197.077 47.5303 196.953 47.5742 196.853 47.6621C196.752 47.75 196.675 47.8672 196.623 48.0137C196.574 48.1569 196.55 48.3148 196.55 48.4873C196.55 48.6338 196.581 48.7852 196.643 48.9414C196.708 49.0977 196.794 49.2604 196.901 49.4297C197.009 49.599 197.131 49.778 197.268 49.9668L200.065 54H199.035L196.774 50.6992C196.569 50.4128 196.384 50.1507 196.218 49.9131C196.055 49.6722 195.925 49.4395 195.827 49.2148C195.733 48.9902 195.686 48.7575 195.686 48.5166C195.686 48.1455 195.749 47.833 195.876 47.5791C196.006 47.3219 196.187 47.1266 196.418 46.9932C196.649 46.8597 196.919 46.793 197.229 46.793C197.531 46.793 197.792 46.863 198.01 47.0029C198.231 47.1396 198.402 47.3219 198.522 47.5498C198.643 47.7744 198.703 48.0218 198.703 48.292C198.703 48.5199 198.671 48.7249 198.605 48.9072C198.54 49.0863 198.446 49.2507 198.322 49.4004C198.202 49.5501 198.057 49.6966 197.888 49.8398L196.667 50.8896C196.485 51.0622 196.351 51.2266 196.267 51.3828C196.185 51.5391 196.133 51.6774 196.11 51.7979C196.091 51.9183 196.081 52.0143 196.081 52.0859C196.081 52.3171 196.12 52.5286 196.198 52.7207C196.28 52.9128 196.402 53.0674 196.564 53.1846C196.727 53.2985 196.932 53.3555 197.18 53.3555C197.398 53.3555 197.609 53.2936 197.814 53.1699C198.023 53.043 198.21 52.8639 198.376 52.6328C198.542 52.3984 198.674 52.1201 198.771 51.7979C198.872 51.4723 198.923 51.1126 198.923 50.7188H199.694C199.694 51.041 199.668 51.3454 199.616 51.6318C199.564 51.9183 199.481 52.1852 199.367 52.4326C199.257 52.6768 199.113 52.8997 198.938 53.1016C198.915 53.1309 198.895 53.165 198.879 53.2041C198.863 53.2432 198.843 53.2773 198.82 53.3066C198.615 53.5703 198.361 53.7689 198.059 53.9023C197.759 54.0326 197.466 54.0977 197.18 54.0977C196.776 54.0977 196.428 54.0114 196.135 53.8389C195.842 53.6663 195.616 53.4287 195.456 53.126C195.297 52.8232 195.217 52.4766 195.217 52.0859C195.217 51.7865 195.272 51.5228 195.383 51.2949C195.493 51.0671 195.646 50.8538 195.842 50.6553C196.04 50.4567 196.267 50.2565 196.521 50.0547ZM203.962 49.7324V56.0312H203.098V48.7168H203.884L203.962 49.7324ZM206.916 51.1191V51.6123C206.916 52.029 206.877 52.3936 206.799 52.7061C206.724 53.0153 206.612 53.2741 206.462 53.4824C206.315 53.6875 206.135 53.8421 205.92 53.9463C205.705 54.0472 205.459 54.0977 205.183 54.0977C204.906 54.0977 204.665 54.0456 204.46 53.9414C204.258 53.834 204.087 53.6794 203.947 53.4775C203.811 53.2757 203.701 53.0332 203.62 52.75C203.542 52.4635 203.488 52.1429 203.459 51.7881V51.0361C203.488 50.6618 203.542 50.3265 203.62 50.0303C203.698 49.7308 203.806 49.4769 203.942 49.2686C204.082 49.057 204.253 48.8958 204.455 48.7852C204.66 48.6745 204.899 48.6191 205.173 48.6191C205.456 48.6191 205.705 48.668 205.92 48.7656C206.138 48.8633 206.32 49.0146 206.467 49.2197C206.617 49.4215 206.729 49.6803 206.804 49.9961C206.879 50.3086 206.916 50.6829 206.916 51.1191ZM206.052 51.6123V51.1191C206.052 50.8262 206.029 50.5706 205.983 50.3525C205.941 50.1344 205.873 49.9538 205.778 49.8105C205.684 49.6673 205.565 49.5599 205.422 49.4883C205.279 49.4167 205.106 49.3809 204.904 49.3809C204.732 49.3809 204.579 49.4167 204.445 49.4883C204.315 49.5599 204.203 49.6576 204.108 49.7812C204.014 49.9017 203.936 50.04 203.874 50.1963C203.812 50.3493 203.767 50.5088 203.737 50.6748V52.1543C203.793 52.3626 203.866 52.5596 203.957 52.7451C204.048 52.9274 204.17 53.0755 204.323 53.1895C204.479 53.3034 204.676 53.3604 204.914 53.3604C205.113 53.3604 205.284 53.3245 205.427 53.2529C205.57 53.1813 205.687 53.0739 205.778 52.9307C205.873 52.7842 205.941 52.6019 205.983 52.3838C206.029 52.1624 206.052 51.9053 206.052 51.6123ZM210.617 53.0967V50.2305C210.617 50.0221 210.585 49.8545 210.52 49.7275C210.458 49.6006 210.363 49.5078 210.236 49.4492C210.113 49.3906 209.956 49.3613 209.768 49.3613C209.585 49.3613 209.427 49.3988 209.294 49.4736C209.164 49.5485 209.063 49.6478 208.991 49.7715C208.923 49.8952 208.889 50.0319 208.889 50.1816H208.024C208.024 49.9928 208.065 49.8057 208.146 49.6201C208.231 49.4346 208.352 49.2669 208.508 49.1172C208.664 48.9642 208.851 48.8438 209.069 48.7559C209.291 48.6647 209.538 48.6191 209.812 48.6191C210.137 48.6191 210.425 48.6729 210.676 48.7803C210.926 48.8844 211.123 49.0553 211.267 49.293C211.41 49.5306 211.481 49.8464 211.481 50.2402V52.8477C211.481 53.0234 211.494 53.2106 211.521 53.4092C211.55 53.6077 211.59 53.7786 211.643 53.9219V54H210.749C210.707 53.8958 210.674 53.7575 210.651 53.585C210.629 53.4092 210.617 53.2464 210.617 53.0967ZM210.754 50.7969L210.764 51.4316H210.163C209.958 51.4316 209.771 51.4544 209.602 51.5C209.436 51.5456 209.292 51.6123 209.172 51.7002C209.051 51.7848 208.959 51.8906 208.894 52.0176C208.832 52.1445 208.801 52.2894 208.801 52.4521C208.801 52.6637 208.83 52.833 208.889 52.96C208.947 53.0837 209.035 53.1732 209.152 53.2285C209.27 53.2839 209.418 53.3115 209.597 53.3115C209.815 53.3115 210.007 53.2611 210.173 53.1602C210.339 53.0592 210.467 52.9372 210.559 52.7939C210.653 52.6507 210.697 52.5173 210.69 52.3936L210.881 52.7988C210.868 52.9258 210.826 53.0641 210.754 53.2139C210.686 53.3604 210.59 53.502 210.466 53.6387C210.342 53.7721 210.196 53.8828 210.026 53.9707C209.86 54.0553 209.673 54.0977 209.465 54.0977C209.159 54.0977 208.89 54.0391 208.659 53.9219C208.431 53.8047 208.254 53.6322 208.127 53.4043C208 53.1764 207.937 52.8949 207.937 52.5596C207.937 52.3057 207.98 52.0713 208.068 51.8564C208.156 51.6416 208.286 51.4561 208.459 51.2998C208.632 51.1403 208.848 51.0166 209.108 50.9287C209.372 50.8408 209.676 50.7969 210.021 50.7969H210.754ZM213.972 53.4531L215.148 48.7168H216.066L214.323 54.8154C214.281 54.9456 214.224 55.0856 214.152 55.2354C214.084 55.3883 213.996 55.5332 213.889 55.6699C213.781 55.8066 213.653 55.9173 213.503 56.002C213.353 56.0898 213.177 56.1338 212.976 56.1338C212.914 56.1338 212.834 56.124 212.736 56.1045C212.642 56.085 212.574 56.0687 212.531 56.0557V55.3232C212.551 55.3265 212.582 55.3298 212.624 55.333C212.666 55.3395 212.697 55.3428 212.717 55.3428C212.886 55.3428 213.029 55.3151 213.146 55.2598C213.267 55.2077 213.369 55.1182 213.454 54.9912C213.539 54.8675 213.61 54.6966 213.669 54.4785L213.972 53.4531ZM213.21 48.7168L214.26 52.8184L214.484 53.7705L213.869 54.1025L212.268 48.7168H213.21ZM217.78 49.7666V54H216.921V48.7168H217.731L217.78 49.7666ZM217.604 51.1582L217.204 51.1436C217.201 50.7822 217.237 50.4486 217.312 50.1426C217.386 49.8333 217.499 49.5648 217.648 49.3369C217.801 49.109 217.992 48.9333 218.22 48.8096C218.451 48.6826 218.719 48.6191 219.025 48.6191C219.227 48.6191 219.414 48.6549 219.587 48.7266C219.763 48.7949 219.916 48.904 220.046 49.0537C220.176 49.2035 220.277 49.3955 220.349 49.6299C220.424 49.8643 220.461 50.1475 220.461 50.4795V54H219.597V50.5234C219.597 50.2467 219.559 50.0254 219.484 49.8594C219.413 49.6934 219.31 49.5729 219.177 49.498C219.043 49.4199 218.884 49.3809 218.698 49.3809C218.487 49.3809 218.309 49.4281 218.166 49.5225C218.026 49.6169 217.914 49.7471 217.829 49.9131C217.748 50.0791 217.689 50.2695 217.653 50.4844C217.621 50.696 217.604 50.9206 217.604 51.1582ZM220.451 50.6602L219.875 50.8457C219.872 50.556 219.908 50.2777 219.982 50.0107C220.057 49.7438 220.168 49.5062 220.314 49.2979C220.464 49.0895 220.65 48.9251 220.871 48.8047C221.092 48.681 221.35 48.6191 221.643 48.6191C221.883 48.6191 222.097 48.6566 222.282 48.7314C222.468 48.8063 222.624 48.9219 222.751 49.0781C222.881 49.2311 222.979 49.4281 223.044 49.6689C223.109 49.9098 223.142 50.1963 223.142 50.5283V54H222.277V50.5186C222.277 50.2223 222.24 49.9928 222.165 49.8301C222.093 49.6641 221.991 49.5485 221.857 49.4834C221.724 49.415 221.564 49.3809 221.379 49.3809C221.229 49.3809 221.096 49.415 220.979 49.4834C220.865 49.5518 220.769 49.6462 220.69 49.7666C220.612 49.8838 220.552 50.0189 220.51 50.1719C220.471 50.3249 220.451 50.4876 220.451 50.6602ZM226.335 54.0977C226.019 54.0977 225.734 54.0505 225.48 53.9561C225.227 53.8617 225.01 53.7184 224.831 53.5264C224.652 53.3311 224.515 53.0853 224.421 52.7891C224.326 52.4928 224.279 52.1429 224.279 51.7393V51.1436C224.279 50.6781 224.333 50.2842 224.44 49.9619C224.551 49.6396 224.699 49.3809 224.885 49.1855C225.07 48.987 225.28 48.8437 225.515 48.7559C225.749 48.6647 225.99 48.6191 226.237 48.6191C226.569 48.6191 226.853 48.6729 227.087 48.7803C227.321 48.8877 227.512 49.0472 227.658 49.2588C227.805 49.4704 227.912 49.7308 227.98 50.04C228.052 50.3493 228.088 50.7057 228.088 51.1094V51.6123L224.787 51.6123V50.875L227.224 50.875V50.7529C227.211 50.4795 227.173 50.2386 227.111 50.0303C227.053 49.8219 226.955 49.6592 226.818 49.542C226.682 49.4215 226.488 49.3613 226.237 49.3613C226.078 49.3613 225.93 49.389 225.793 49.4443C225.66 49.4964 225.544 49.5892 225.446 49.7227C225.352 49.8529 225.277 50.0335 225.222 50.2646C225.17 50.4958 225.144 50.7887 225.144 51.1436V51.7393C225.144 52.0225 225.17 52.2666 225.222 52.4717C225.277 52.6735 225.357 52.8411 225.461 52.9746C225.568 53.1048 225.699 53.2025 225.852 53.2676C226.008 53.3294 226.185 53.3604 226.384 53.3604C226.674 53.3604 226.913 53.305 227.102 53.1943C227.29 53.0804 227.455 52.9355 227.595 52.7598L228.049 53.3018C227.954 53.4352 227.831 53.5638 227.678 53.6875C227.528 53.8079 227.342 53.9072 227.121 53.9854C226.903 54.0602 226.641 54.0977 226.335 54.0977ZM229.997 49.8447V54H229.133V48.7168H229.948L229.997 49.8447ZM229.787 51.1582L229.436 51.1436C229.432 50.7822 229.473 50.4486 229.558 50.1426C229.646 49.8333 229.769 49.5648 229.929 49.3369C230.091 49.109 230.285 48.9333 230.51 48.8096C230.734 48.6826 230.983 48.6191 231.257 48.6191C231.472 48.6191 231.667 48.6549 231.843 48.7266C232.019 48.7949 232.168 48.9056 232.292 49.0586C232.416 49.2116 232.51 49.4102 232.575 49.6543C232.644 49.8952 232.678 50.1898 232.678 50.5381V54H231.813V50.5283C231.813 50.2516 231.783 50.0303 231.721 49.8643C231.662 49.695 231.571 49.5729 231.447 49.498C231.327 49.4199 231.174 49.3809 230.988 49.3809C230.819 49.3809 230.661 49.4281 230.515 49.5225C230.368 49.6169 230.24 49.7471 230.129 49.9131C230.021 50.0791 229.937 50.2695 229.875 50.4844C229.816 50.696 229.787 50.9206 229.787 51.1582ZM235.905 48.7168V49.4102H233.439V48.7168H235.905ZM234.245 47.4326H235.109V52.6914C235.109 52.8704 235.131 53.0055 235.173 53.0967C235.218 53.1878 235.275 53.248 235.344 53.2773C235.412 53.3066 235.485 53.3213 235.563 53.3213C235.622 53.3213 235.687 53.3148 235.759 53.3018C235.83 53.2855 235.879 53.2725 235.905 53.2627L235.9 54C235.842 54.0228 235.764 54.0439 235.666 54.0635C235.568 54.0863 235.445 54.0977 235.295 54.0977C235.109 54.0977 234.937 54.0537 234.777 53.9658C234.618 53.8779 234.489 53.7314 234.392 53.5264C234.294 53.318 234.245 53.0381 234.245 52.6865V47.4326Z" fill="url(#paint2_linear_363_1716)"/>
<path fill-rule="evenodd" clip-rule="evenodd" d="M204 16L137 16V14L204 14V16Z" fill="url(#paint3_linear_363_1716)"/>
<path fill-rule="evenodd" clip-rule="evenodd" d="M111 16L44 16V14L111 14V16Z" fill="url(#paint4_linear_363_1716)"/>
<path fill-rule="evenodd" clip-rule="evenodd" d="M18.7612 6.17317C18 8.01088 18 10.3406 18 15C18 19.6594 18 21.9891 18.7612 23.8268C19.7761 26.2771 21.7229 28.2239 24.1732 29.2388C26.0109 30 28.3406 30 33 30C37.6594 30 39.9891 30 41.8268 29.2388C44.2771 28.2239 46.2239 26.2771 47.2388 23.8268C48 21.9891 48 19.6594 48 15C48 10.3406 48 8.01088 47.2388 6.17317C46.2239 3.72288 44.2771 1.77614 41.8268 0.761205C39.9891 0 37.6594 0 33 0C28.3406 0 26.0109 0 24.1732 0.761205C21.7229 1.77614 19.7761 3.72288 18.7612 6.17317ZM39.7071 11.7071C40.0976 11.3166 40.0976 10.6834 39.7071 10.2929C39.3166 9.90237 38.6834 9.90237 38.2929 10.2929L31 17.5858L27.7071 14.2929C27.3166 13.9024 26.6834 13.9024 26.2929 14.2929C25.9024 14.6834 25.9024 15.3166 26.2929 15.7071L30.2929 19.7071C30.4804 19.8946 30.7348 20 31 20C31.2652 20 31.5196 19.8946 31.7071 19.7071L39.7071 11.7071Z" fill="url(#paint5_linear_363_1716)"/>
<path fill-rule="evenodd" clip-rule="evenodd" d="M109.761 6.17317C109 8.01088 109 10.3406 109 15C109 19.6594 109 21.9891 109.761 23.8268C110.776 26.2771 112.723 28.2239 115.173 29.2388C117.011 30 119.341 30 124 30C128.659 30 130.989 30 132.827 29.2388C135.277 28.2239 137.224 26.2771 138.239 23.8268C139 21.9891 139 19.6594 139 15C139 10.3406 139 8.01088 138.239 6.17317C137.224 3.72288 135.277 1.77614 132.827 0.761205C130.989 0 128.659 0 124 0C119.341 0 117.011 0 115.173 0.761205C112.723 1.77614 110.776 3.72288 109.761 6.17317ZM130.707 11.7071C131.098 11.3166 131.098 10.6834 130.707 10.2929C130.317 9.90237 129.683 9.90237 129.293 10.2929L122 17.5858L118.707 14.2929C118.317 13.9024 117.683 13.9024 117.293 14.2929C116.902 14.6834 116.902 15.3166 117.293 15.7071L121.293 19.7071C121.48 19.8946 121.735 20 122 20C122.265 20 122.52 19.8946 122.707 19.7071L130.707 11.7071Z" fill="url(#paint6_linear_363_1716)"/>
<path fill-rule="evenodd" clip-rule="evenodd" d="M200.761 6.17317C200 8.01088 200 10.3406 200 15C200 19.6594 200 21.9891 200.761 23.8268C201.776 26.2771 203.723 28.2239 206.173 29.2388C208.011 30 210.341 30 215 30C219.659 30 221.989 30 223.827 29.2388C226.277 28.2239 228.224 26.2771 229.239 23.8268C230 21.9891 230 19.6594 230 15C230 10.3406 230 8.01088 229.239 6.17317C228.224 3.72288 226.277 1.77614 223.827 0.761205C221.989 0 219.659 0 215 0C210.341 0 208.011 0 206.173 0.761205C203.723 1.77614 201.776 3.72288 200.761 6.17317ZM221.707 11.7071C222.098 11.3166 222.098 10.6834 221.707 10.2929C221.317 9.90237 220.683 9.90237 220.293 10.2929L213 17.5858L209.707 14.2929C209.317 13.9024 208.683 13.9024 208.293 14.2929C207.902 14.6834 207.902 15.3166 208.293 15.7071L212.293 19.7071C212.48 19.8946 212.735 20 213 20C213.265 20 213.52 19.8946 213.707 19.7071L221.707 11.7071Z" fill="url(#paint7_linear_363_1716)"/>
<defs>
<linearGradient id="paint0_linear_363_1716" x1="33" y1="57" x2="33" y2="35" gradientUnits="userSpaceOnUse">
<stop stop-color="#5CCC94"/>
<stop offset="1" stop-color="#8CCAAE"/>
</linearGradient>
<linearGradient id="paint1_linear_363_1716" x1="124.5" y1="55" x2="124.5" y2="35" gradientUnits="userSpaceOnUse">
<stop stop-color="#5CCC94"/>
<stop offset="1" stop-color="#8CCAAE"/>
</linearGradient>
<linearGradient id="paint2_linear_363_1716" x1="215.5" y1="56" x2="215.5" y2="34" gradientUnits="userSpaceOnUse">
<stop stop-color="#5CCC94"/>
<stop offset="1" stop-color="#8CCAAE"/>
</linearGradient>
<linearGradient id="paint3_linear_363_1716" x1="170.5" y1="16" x2="170.5" y2="14" gradientUnits="userSpaceOnUse">
<stop stop-color="#5CCC94"/>
<stop offset="1" stop-color="#8CCAAE"/>
</linearGradient>
<linearGradient id="paint4_linear_363_1716" x1="77.5" y1="16" x2="77.5" y2="14" gradientUnits="userSpaceOnUse">
<stop stop-color="#5CCC94"/>
<stop offset="1" stop-color="#8CCAAE"/>
</linearGradient>
<linearGradient id="paint5_linear_363_1716" x1="33" y1="30" x2="33" y2="1.58545e-07" gradientUnits="userSpaceOnUse">
<stop stop-color="#5CCC94"/>
<stop offset="1" stop-color="#8CCAAE"/>
</linearGradient>
<linearGradient id="paint6_linear_363_1716" x1="124" y1="30" x2="124" y2="1.58545e-07" gradientUnits="userSpaceOnUse">
<stop stop-color="#5CCC94"/>
<stop offset="1" stop-color="#8CCAAE"/>
</linearGradient>
<linearGradient id="paint7_linear_363_1716" x1="215" y1="30" x2="215" y2="1.58545e-07" gradientUnits="userSpaceOnUse">
<stop stop-color="#5CCC94"/>
<stop offset="1" stop-color="#8CCAAE"/>
</linearGradient>
</defs>
</svg>
