<svg width="312" height="62" viewBox="0 0 312 62" fill="none" xmlns="http://www.w3.org/2000/svg">
<path d="M9.27148 36.8906L9.27148 44H8.38281L8.38281 36.8906H9.27148ZM11.1416 36.8906V37.6621H6.51758V36.8906H11.1416ZM13.002 38.7168L13.002 44H12.1426L12.1426 38.7168H13.002ZM12.0938 37.3154C12.0938 37.1689 12.1344 37.0452 12.2158 36.9443C12.2972 36.8434 12.4193 36.793 12.582 36.793C12.7448 36.793 12.8669 36.8434 12.9482 36.9443C13.0329 37.0452 13.0752 37.1689 13.0752 37.3154C13.0752 37.4554 13.0329 37.5758 12.9482 37.6768C12.8669 37.7744 12.7448 37.8232 12.582 37.8232C12.4193 37.8232 12.2972 37.7744 12.2158 37.6768C12.1344 37.5758 12.0938 37.4554 12.0938 37.3154ZM15.2334 39.7324V46.0312H14.3691L14.3691 38.7168H15.1553L15.2334 39.7324ZM18.1875 41.1191V41.6123C18.1875 42.029 18.1484 42.3936 18.0703 42.7061C17.9954 43.0153 17.8831 43.2741 17.7334 43.4824C17.5869 43.6875 17.4062 43.8421 17.1914 43.9463C16.9766 44.0472 16.7308 44.0977 16.4541 44.0977C16.1774 44.0977 15.9365 44.0456 15.7314 43.9414C15.5296 43.834 15.3587 43.6794 15.2188 43.4775C15.082 43.2757 14.973 43.0332 14.8916 42.75C14.8135 42.4635 14.7598 42.1429 14.7305 41.7881V41.0361C14.7598 40.6618 14.8135 40.3265 14.8916 40.0303C14.9697 39.7308 15.0771 39.4769 15.2139 39.2686C15.3538 39.057 15.5247 38.8958 15.7266 38.7852C15.9316 38.6745 16.1709 38.6191 16.4443 38.6191C16.7275 38.6191 16.9766 38.668 17.1914 38.7656C17.4095 38.8633 17.5918 39.0146 17.7383 39.2197C17.888 39.4215 18.0003 39.6803 18.0752 39.9961C18.1501 40.3086 18.1875 40.6829 18.1875 41.1191ZM17.3232 41.6123V41.1191C17.3232 40.8262 17.3005 40.5706 17.2549 40.3525C17.2126 40.1344 17.1442 39.9538 17.0498 39.8105C16.9554 39.6673 16.8366 39.5599 16.6934 39.4883C16.5501 39.4167 16.3776 39.3809 16.1758 39.3809C16.0033 39.3809 15.8503 39.4167 15.7168 39.4883C15.5866 39.5599 15.4743 39.6576 15.3799 39.7812C15.2855 39.9017 15.2074 40.04 15.1455 40.1963C15.0837 40.3493 15.0381 40.5088 15.0088 40.6748V42.1543C15.0641 42.3626 15.1374 42.5596 15.2285 42.7451C15.3197 42.9274 15.4417 43.0755 15.5947 43.1895C15.751 43.3034 15.9479 43.3604 16.1855 43.3604C16.3841 43.3604 16.555 43.3245 16.6982 43.2529C16.8415 43.1813 16.9587 43.0739 17.0498 42.9307C17.1442 42.7842 17.2126 42.6019 17.2549 42.3838C17.3005 42.1624 17.3232 41.9053 17.3232 41.6123ZM21.9717 42.7793V38.7168H22.8359V44H22.0156L21.9717 42.7793ZM22.1328 41.666L22.4746 41.6562C22.4746 42.0078 22.4437 42.3333 22.3818 42.6328C22.3232 42.929 22.2256 43.1862 22.0889 43.4043C21.9554 43.6224 21.778 43.7933 21.5566 43.917C21.3353 44.0374 21.0635 44.0977 20.7412 44.0977C20.5231 44.0977 20.3245 44.0602 20.1455 43.9854C19.9697 43.9105 19.8167 43.7949 19.6865 43.6387C19.5596 43.4824 19.4603 43.279 19.3887 43.0283C19.3203 42.7777 19.2861 42.4766 19.2861 42.125V38.7168H20.1455V42.1348C20.1455 42.3724 20.1667 42.5693 20.209 42.7256C20.2513 42.8786 20.3083 43.0007 20.3799 43.0918C20.4515 43.1797 20.5312 43.2415 20.6191 43.2773C20.707 43.3132 20.7965 43.3311 20.8877 43.3311C21.1937 43.3311 21.4378 43.2578 21.6201 43.1113C21.8024 42.9616 21.9326 42.7614 22.0107 42.5107C22.0921 42.2568 22.1328 41.9753 22.1328 41.666ZM25.0625 36.5V44H24.2031V36.5H25.0625ZM3.84668 57.1846L4.97949 52.7168H5.8584L4.29102 58H3.71973L3.84668 57.1846ZM2.93359 52.7168L4.11523 57.209L4.20801 58H3.6416L2.05469 52.7168H2.93359ZM7.68457 52.7168L7.68457 58H6.8252L6.8252 52.7168H7.68457ZM6.77637 51.3154C6.77637 51.1689 6.81706 51.0452 6.89844 50.9443C6.97982 50.8434 7.10189 50.793 7.26465 50.793C7.42741 50.793 7.54948 50.8434 7.63086 50.9443C7.71549 51.0452 7.75781 51.1689 7.75781 51.3154C7.75781 51.4554 7.71549 51.5758 7.63086 51.6768C7.54948 51.7744 7.42741 51.8232 7.26465 51.8232C7.10189 51.8232 6.97982 51.7744 6.89844 51.6768C6.81706 51.5758 6.77637 51.4554 6.77637 51.3154ZM9.91602 53.8447V58H9.05176V52.7168H9.86719L9.91602 53.8447ZM9.70605 55.1582L9.35449 55.1436C9.35124 54.7822 9.39193 54.4486 9.47656 54.1426C9.56445 53.8333 9.68815 53.5648 9.84766 53.3369C10.0104 53.109 10.2041 52.9333 10.4287 52.8096C10.6533 52.6826 10.9023 52.6191 11.1758 52.6191C11.3906 52.6191 11.5859 52.6549 11.7617 52.7266C11.9375 52.7949 12.0872 52.9056 12.2109 53.0586C12.3346 53.2116 12.429 53.4102 12.4941 53.6543C12.5625 53.8952 12.5967 54.1898 12.5967 54.5381V58H11.7324V54.5283C11.7324 54.2516 11.7015 54.0303 11.6396 53.8643C11.5811 53.695 11.4899 53.5729 11.3662 53.498C11.2458 53.4199 11.0928 53.3809 10.9072 53.3809C10.738 53.3809 10.5801 53.4281 10.4336 53.5225C10.2871 53.6169 10.1585 53.7471 10.0479 53.9131C9.94043 54.0791 9.85579 54.2695 9.79395 54.4844C9.73535 54.696 9.70605 54.9206 9.70605 55.1582ZM14.8232 52.7168V58H13.9639V52.7168H14.8232ZM13.915 51.3154C13.915 51.1689 13.9557 51.0452 14.0371 50.9443C14.1185 50.8434 14.2406 50.793 14.4033 50.793C14.5661 50.793 14.6882 50.8434 14.7695 50.9443C14.8542 51.0452 14.8965 51.1689 14.8965 51.3154C14.8965 51.4554 14.8542 51.5758 14.7695 51.6768C14.6882 51.7744 14.5661 51.8232 14.4033 51.8232C14.2406 51.8232 14.1185 51.7744 14.0371 51.6768C13.9557 51.5758 13.915 51.4554 13.915 51.3154ZM18.0801 58.0977C17.7643 58.0977 17.4795 58.0505 17.2256 57.9561C16.9717 57.8617 16.7552 57.7184 16.5762 57.5264C16.3971 57.3311 16.2604 57.0853 16.166 56.7891C16.0716 56.4928 16.0244 56.1429 16.0244 55.7393V55.1436C16.0244 54.6781 16.0781 54.2842 16.1855 53.9619C16.2962 53.6396 16.4443 53.3809 16.6299 53.1855C16.8154 52.987 17.0254 52.8438 17.2598 52.7559C17.4941 52.6647 17.735 52.6191 17.9824 52.6191C18.3145 52.6191 18.5977 52.6729 18.832 52.7803C19.0664 52.8877 19.2568 53.0472 19.4033 53.2588C19.5498 53.4704 19.6572 53.7308 19.7256 54.04C19.7972 54.3493 19.833 54.7057 19.833 55.1094V55.6123H16.5322V54.875H18.9688V54.7529C18.9557 54.4795 18.9183 54.2386 18.8564 54.0303C18.7979 53.8219 18.7002 53.6592 18.5635 53.542C18.4268 53.4215 18.2331 53.3613 17.9824 53.3613C17.8229 53.3613 17.6748 53.389 17.5381 53.4443C17.4046 53.4964 17.2891 53.5892 17.1914 53.7227C17.097 53.8529 17.0221 54.0335 16.9668 54.2646C16.9147 54.4958 16.8887 54.7887 16.8887 55.1436V55.7393C16.8887 56.0225 16.9147 56.2666 16.9668 56.4717C17.0221 56.6735 17.1019 56.8411 17.2061 56.9746C17.3135 57.1048 17.4437 57.2025 17.5967 57.2676C17.7529 57.3294 17.9303 57.3604 18.1289 57.3604C18.4186 57.3604 18.6579 57.305 18.8467 57.1943C19.0355 57.0804 19.1999 56.9355 19.3398 56.7598L19.7939 57.3018C19.6995 57.4352 19.5758 57.5638 19.4229 57.6875C19.2731 57.8079 19.0876 57.9072 18.8662 57.9854C18.6481 58.0602 18.3861 58.0977 18.0801 58.0977ZM22.8066 52.7168V53.4102H20.3408V52.7168H22.8066ZM21.1465 51.4326H22.0107V56.6914C22.0107 56.8704 22.0319 57.0055 22.0742 57.0967C22.1198 57.1878 22.1768 57.248 22.2451 57.2773C22.3135 57.3066 22.3867 57.3213 22.4648 57.3213C22.5234 57.3213 22.5885 57.3148 22.6602 57.3018C22.7318 57.2855 22.7806 57.2725 22.8066 57.2627L22.8018 58C22.7432 58.0228 22.665 58.0439 22.5674 58.0635C22.4697 58.0863 22.346 58.0977 22.1963 58.0977C22.0107 58.0977 21.8382 58.0537 21.6787 57.9658C21.5192 57.8779 21.3906 57.7314 21.293 57.5264C21.1953 57.318 21.1465 57.0381 21.1465 56.6865V51.4326ZM25.7266 58.0977C25.4108 58.0977 25.126 58.0505 24.8721 57.9561C24.6182 57.8617 24.4017 57.7184 24.2227 57.5264C24.0436 57.3311 23.9069 57.0853 23.8125 56.7891C23.7181 56.4928 23.6709 56.1429 23.6709 55.7393V55.1436C23.6709 54.6781 23.7246 54.2842 23.832 53.9619C23.9427 53.6396 24.0908 53.3809 24.2764 53.1855C24.4619 52.987 24.6719 52.8438 24.9063 52.7559C25.1406 52.6647 25.3815 52.6191 25.6289 52.6191C25.9609 52.6191 26.2441 52.6729 26.4785 52.7803C26.7129 52.8877 26.9033 53.0472 27.0498 53.2588C27.1963 53.4704 27.3037 53.7308 27.3721 54.04C27.4437 54.3493 27.4795 54.7057 27.4795 55.1094V55.6123H24.1787V54.875H26.6152V54.7529C26.6022 54.4795 26.5648 54.2386 26.5029 54.0303C26.4443 53.8219 26.3467 53.6592 26.21 53.542C26.0732 53.4215 25.8796 53.3613 25.6289 53.3613C25.4694 53.3613 25.3213 53.389 25.1846 53.4443C25.0511 53.4964 24.9355 53.5892 24.8379 53.7227C24.7435 53.8529 24.6686 54.0335 24.6133 54.2646C24.5612 54.4958 24.5352 54.7887 24.5352 55.1436V55.7393C24.5352 56.0225 24.5612 56.2666 24.6133 56.4717C24.6686 56.6735 24.7484 56.8411 24.8525 56.9746C24.96 57.1048 25.0902 57.2025 25.2432 57.2676C25.3994 57.3294 25.5768 57.3604 25.7754 57.3604C26.0651 57.3604 26.3044 57.305 26.4932 57.1943C26.682 57.0804 26.8464 56.9355 26.9863 56.7598L27.4404 57.3018C27.346 57.4352 27.2223 57.5638 27.0693 57.6875C26.9196 57.8079 26.734 57.9072 26.5127 57.9854C26.2946 58.0602 26.0326 58.0977 25.7266 58.0977ZM29.4521 52.7168V58H28.5928V52.7168H29.4521ZM28.5439 51.3154C28.5439 51.1689 28.5846 51.0452 28.666 50.9443C28.7474 50.8434 28.8695 50.793 29.0322 50.793C29.195 50.793 29.3171 50.8434 29.3984 50.9443C29.4831 51.0452 29.5254 51.1689 29.5254 51.3154C29.5254 51.4554 29.4831 51.5758 29.3984 51.6768C29.3171 51.7744 29.195 51.8232 29.0322 51.8232C28.8695 51.8232 28.7474 51.7744 28.666 51.6768C28.5846 51.5758 28.5439 51.4554 28.5439 51.3154Z" fill="url(#paint0_linear_1406_1609)"/>
<path d="M64.5918 40.8906V48H63.6885L60.8418 42.5166V48H59.9434V40.8906H60.8418L63.7031 46.3887V40.8906H64.5918ZM68.6982 46.7793V42.7168H69.5625V48H68.7422L68.6982 46.7793ZM68.8594 45.666L69.2012 45.6562C69.2012 46.0078 69.1702 46.3333 69.1084 46.6328C69.0498 46.929 68.9521 47.1862 68.8154 47.4043C68.682 47.6224 68.5046 47.7933 68.2832 47.917C68.0618 48.0374 67.79 48.0977 67.4678 48.0977C67.2497 48.0977 67.0511 48.0602 66.8721 47.9854C66.6963 47.9105 66.5433 47.7949 66.4131 47.6387C66.2861 47.4824 66.1868 47.279 66.1152 47.0283C66.0469 46.7777 66.0127 46.4766 66.0127 46.125V42.7168H66.8721V46.1348C66.8721 46.3724 66.8932 46.5693 66.9355 46.7256C66.9779 46.8786 67.0348 47.0007 67.1064 47.0918C67.1781 47.1797 67.2578 47.2415 67.3457 47.2773C67.4336 47.3132 67.5231 47.3311 67.6143 47.3311C67.9202 47.3311 68.1644 47.2578 68.3467 47.1113C68.529 46.9616 68.6592 46.7614 68.7373 46.5107C68.8187 46.2568 68.8594 45.9753 68.8594 45.666ZM71.7256 43.7666V48H70.8662V42.7168H71.6768L71.7256 43.7666ZM71.5498 45.1582L71.1494 45.1436C71.1462 44.7822 71.182 44.4486 71.2568 44.1426C71.3317 43.8333 71.444 43.5648 71.5938 43.3369C71.7467 43.109 71.9372 42.9333 72.165 42.8096C72.3962 42.6826 72.6647 42.6191 72.9707 42.6191C73.1725 42.6191 73.3597 42.6549 73.5322 42.7266C73.708 42.7949 73.861 42.904 73.9912 43.0537C74.1214 43.2035 74.2223 43.3955 74.2939 43.6299C74.3688 43.8643 74.4062 44.1475 74.4062 44.4795V48H73.542V44.5234C73.542 44.2467 73.5046 44.0254 73.4297 43.8594C73.3581 43.6934 73.2555 43.5729 73.1221 43.498C72.9886 43.4199 72.8291 43.3809 72.6436 43.3809C72.432 43.3809 72.2546 43.4281 72.1113 43.5225C71.9714 43.6169 71.859 43.7471 71.7744 43.9131C71.693 44.0791 71.6344 44.2695 71.5986 44.4844C71.5661 44.696 71.5498 44.9206 71.5498 45.1582ZM74.3965 44.6602L73.8203 44.8457C73.8171 44.556 73.8529 44.2777 73.9277 44.0107C74.0026 43.7438 74.1133 43.5062 74.2598 43.2979C74.4095 43.0895 74.5951 42.9251 74.8164 42.8047C75.0378 42.681 75.2949 42.6191 75.5879 42.6191C75.8288 42.6191 76.042 42.6566 76.2275 42.7314C76.4131 42.8063 76.5693 42.9219 76.6963 43.0781C76.8265 43.2311 76.9242 43.4281 76.9893 43.6689C77.0544 43.9098 77.0869 44.1963 77.0869 44.5283V48H76.2227V44.5186C76.2227 44.2223 76.1852 43.9928 76.1104 43.8301C76.0387 43.6641 75.9362 43.5485 75.8027 43.4834C75.6693 43.415 75.5098 43.3809 75.3242 43.3809C75.1745 43.3809 75.041 43.415 74.9238 43.4834C74.8099 43.5518 74.7139 43.6462 74.6357 43.7666C74.5576 43.8838 74.4974 44.0189 74.4551 44.1719C74.416 44.3249 74.3965 44.4876 74.3965 44.6602ZM80.9785 47.0967V44.2305C80.9785 44.0221 80.946 43.8545 80.8809 43.7275C80.819 43.6006 80.7246 43.5078 80.5977 43.4492C80.474 43.3906 80.3177 43.3613 80.1289 43.3613C79.9466 43.3613 79.7887 43.3988 79.6553 43.4736C79.5251 43.5485 79.4242 43.6478 79.3525 43.7715C79.2842 43.8952 79.25 44.0319 79.25 44.1816H78.3857C78.3857 43.9928 78.4264 43.8057 78.5078 43.6201C78.5924 43.4346 78.7129 43.2669 78.8691 43.1172C79.0254 42.9642 79.2126 42.8438 79.4307 42.7559C79.652 42.6647 79.8994 42.6191 80.1729 42.6191C80.4984 42.6191 80.7865 42.6729 81.0371 42.7803C81.2878 42.8844 81.4847 43.0553 81.6279 43.293C81.7712 43.5306 81.8428 43.8464 81.8428 44.2402V46.8477C81.8428 47.0234 81.8558 47.2106 81.8818 47.4092C81.9111 47.6077 81.9518 47.7786 82.0039 47.9219V48H81.1104C81.068 47.8958 81.0355 47.7575 81.0127 47.585C80.9899 47.4092 80.9785 47.2464 80.9785 47.0967ZM81.1152 44.7969L81.125 45.4316H80.5244C80.3193 45.4316 80.1322 45.4544 79.9629 45.5C79.7969 45.5456 79.6536 45.6123 79.5332 45.7002C79.4128 45.7848 79.32 45.8906 79.2549 46.0176C79.193 46.1445 79.1621 46.2894 79.1621 46.4521C79.1621 46.6637 79.1914 46.833 79.25 46.96C79.3086 47.0837 79.3965 47.1732 79.5137 47.2285C79.6309 47.2839 79.779 47.3115 79.958 47.3115C80.1761 47.3115 80.3682 47.2611 80.5342 47.1602C80.7002 47.0592 80.8288 46.9372 80.9199 46.7939C81.0143 46.6507 81.0583 46.5173 81.0518 46.3936L81.2422 46.7988C81.2292 46.9258 81.1868 47.0641 81.1152 47.2139C81.0469 47.3604 80.9508 47.502 80.8271 47.6387C80.7035 47.7721 80.557 47.8828 80.3877 47.9707C80.2217 48.0553 80.0345 48.0977 79.8262 48.0977C79.5202 48.0977 79.2516 48.0391 79.0205 47.9219C78.7926 47.8047 78.6152 47.6322 78.4883 47.4043C78.3613 47.1764 78.2979 46.8949 78.2979 46.5596C78.2979 46.3057 78.3418 46.0713 78.4297 45.8564C78.5176 45.6416 78.6478 45.4561 78.8203 45.2998C78.9928 45.1403 79.2093 45.0166 79.4697 44.9287C79.7334 44.8408 80.0378 44.7969 80.3828 44.7969H81.1152ZM80.9541 40.7002H81.6865C81.6865 40.9541 81.6279 41.1803 81.5107 41.3789C81.3936 41.5742 81.2259 41.7272 81.0078 41.8379C80.7897 41.9486 80.5309 42.0039 80.2314 42.0039C79.779 42.0039 79.4209 41.8835 79.1572 41.6426C78.8968 41.3984 78.7666 41.0843 78.7666 40.7002H79.499C79.499 40.8923 79.5544 41.0615 79.665 41.208C79.7757 41.3545 79.9645 41.4277 80.2314 41.4277C80.4919 41.4277 80.6774 41.3545 80.7881 41.208C80.8988 41.0615 80.9541 40.8923 80.9541 40.7002ZM84.0498 43.5469V48H83.1855V42.7168L84.0205 42.7168L84.0498 43.5469ZM85.3633 42.6875L85.3682 43.5273C85.2965 43.5111 85.2314 43.5013 85.1729 43.498C85.1175 43.4915 85.0524 43.4883 84.9775 43.4883C84.8148 43.4883 84.6715 43.5208 84.5479 43.5859C84.4274 43.651 84.3232 43.7422 84.2354 43.8594C84.1475 43.9766 84.0775 44.1165 84.0254 44.2793C83.9733 44.4388 83.9375 44.6146 83.918 44.8066L83.6934 44.9531C83.6934 44.6341 83.7178 44.3346 83.7666 44.0547C83.8187 43.7747 83.8984 43.5273 84.0059 43.3125C84.1133 43.0944 84.25 42.9251 84.416 42.8047C84.5853 42.681 84.7871 42.6191 85.0215 42.6191C85.0736 42.6191 85.137 42.6273 85.2119 42.6436C85.29 42.6566 85.3405 42.6712 85.3633 42.6875ZM91.2959 46.9746V40.5H92.1553V48H91.3691L91.2959 46.9746ZM88.3418 45.6123V45.1191C88.3418 44.6829 88.3841 44.3086 88.4688 43.9961C88.5534 43.6803 88.6738 43.4215 88.8301 43.2197C88.9863 43.0146 89.1735 42.8633 89.3916 42.7656C89.6097 42.668 89.8506 42.6191 90.1143 42.6191C90.3877 42.6191 90.6221 42.6745 90.8174 42.7852C91.016 42.8958 91.182 43.057 91.3154 43.2686C91.4489 43.4769 91.5531 43.7308 91.6279 44.0303C91.7061 44.3265 91.7581 44.6618 91.7842 45.0361V45.6953C91.7549 46.0664 91.7012 46.4001 91.623 46.6963C91.5482 46.9925 91.444 47.2448 91.3105 47.4531C91.1771 47.6615 91.0111 47.821 90.8125 47.9316C90.6139 48.0423 90.3779 48.0977 90.1045 48.0977C89.8441 48.0977 89.6064 48.0472 89.3916 47.9463C89.1768 47.8421 88.9896 47.6875 88.8301 47.4824C88.6738 47.2741 88.5534 47.0153 88.4688 46.7061C88.3841 46.3936 88.3418 46.029 88.3418 45.6123ZM89.2061 45.1191V45.6123C89.2061 45.9053 89.2272 46.1608 89.2695 46.3789C89.3118 46.5937 89.3786 46.7728 89.4697 46.916C89.5609 47.056 89.6764 47.1602 89.8164 47.2285C89.9596 47.2969 90.1305 47.3311 90.3291 47.3311C90.57 47.3311 90.7669 47.2725 90.9199 47.1553C91.0729 47.0381 91.195 46.8835 91.2861 46.6914C91.3805 46.4961 91.4554 46.2861 91.5107 46.0615V44.6748C91.4782 44.5088 91.431 44.3493 91.3691 44.1963C91.3073 44.04 91.2292 43.9017 91.1348 43.7812C91.0436 43.6576 90.9313 43.5599 90.7979 43.4883C90.6676 43.4167 90.5146 43.3809 90.3389 43.3809C90.1403 43.3809 89.9678 43.4167 89.8213 43.4883C89.6781 43.5599 89.5609 43.6673 89.4697 43.8105C89.3818 43.9538 89.3151 44.1344 89.2695 44.3525C89.2272 44.5706 89.2061 44.8262 89.2061 45.1191ZM95.3779 48.0977C95.0622 48.0977 94.7773 48.0505 94.5234 47.9561C94.2695 47.8617 94.0531 47.7184 93.874 47.5264C93.695 47.3311 93.5583 47.0853 93.4639 46.7891C93.3695 46.4928 93.3223 46.1429 93.3223 45.7393V45.1436C93.3223 44.6781 93.376 44.2842 93.4834 43.9619C93.5941 43.6396 93.7422 43.3809 93.9277 43.1855C94.1133 42.987 94.3232 42.8437 94.5576 42.7559C94.792 42.6647 95.0329 42.6191 95.2803 42.6191C95.6123 42.6191 95.8955 42.6729 96.1299 42.7803C96.3643 42.8877 96.5547 43.0472 96.7012 43.2588C96.8477 43.4704 96.9551 43.7308 97.0234 44.04C97.0951 44.3493 97.1309 44.7057 97.1309 45.1094V45.6123H93.8301V44.875H96.2666V44.7529C96.2536 44.4795 96.2161 44.2386 96.1543 44.0303C96.0957 43.8219 95.998 43.6592 95.8613 43.542C95.7246 43.4215 95.5309 43.3613 95.2803 43.3613C95.1208 43.3613 94.9727 43.389 94.8359 43.4443C94.7025 43.4964 94.5869 43.5892 94.4893 43.7227C94.3949 43.8529 94.32 44.0335 94.2646 44.2646C94.2126 44.4958 94.1865 44.7887 94.1865 45.1436V45.7393C94.1865 46.0225 94.2126 46.2666 94.2646 46.4717C94.32 46.6735 94.3997 46.8411 94.5039 46.9746C94.6113 47.1048 94.7415 47.2025 94.8945 47.2676C95.0508 47.3294 95.2282 47.3604 95.4268 47.3604C95.7165 47.3604 95.9557 47.305 96.1445 47.1943C96.3333 47.0804 96.4977 46.9355 96.6377 46.7598L97.0918 47.3018C96.9974 47.4352 96.8737 47.5638 96.7207 47.6875C96.571 47.8079 96.3854 47.9072 96.1641 47.9854C95.946 48.0602 95.6839 48.0977 95.3779 48.0977ZM101.403 42.7168V48H100.539V42.7168H101.403ZM101.247 40.5098L102.272 41.8428V41.8916H101.574L100.988 41.0664L100.407 41.8916H99.7139V41.8379L100.729 40.5098H101.247ZM103.688 43.8447V48H102.824V42.7168H103.64L103.688 43.8447ZM103.479 45.1582L103.127 45.1436C103.124 44.7822 103.164 44.4486 103.249 44.1426C103.337 43.8333 103.461 43.5648 103.62 43.3369C103.783 43.109 103.977 42.9333 104.201 42.8096C104.426 42.6826 104.675 42.6191 104.948 42.6191C105.163 42.6191 105.358 42.6549 105.534 42.7266C105.71 42.7949 105.86 42.9056 105.983 43.0586C106.107 43.2116 106.201 43.4102 106.267 43.6543C106.335 43.8952 106.369 44.1898 106.369 44.5381V48H105.505V44.5283C105.505 44.2516 105.474 44.0303 105.412 43.8643C105.354 43.695 105.262 43.5729 105.139 43.498C105.018 43.4199 104.865 43.3809 104.68 43.3809C104.51 43.3809 104.353 43.4281 104.206 43.5225C104.06 43.6169 103.931 43.7471 103.82 43.9131C103.713 44.0791 103.628 44.2695 103.566 44.4844C103.508 44.696 103.479 44.9206 103.479 45.1582ZM108.532 43.7666V48H107.673V42.7168H108.483L108.532 43.7666ZM108.356 45.1582L107.956 45.1436C107.953 44.7822 107.989 44.4486 108.063 44.1426C108.138 43.8333 108.251 43.5648 108.4 43.3369C108.553 43.109 108.744 42.9333 108.972 42.8096C109.203 42.6826 109.471 42.6191 109.777 42.6191C109.979 42.6191 110.166 42.6549 110.339 42.7266C110.515 42.7949 110.668 42.904 110.798 43.0537C110.928 43.2035 111.029 43.3955 111.101 43.6299C111.175 43.8643 111.213 44.1475 111.213 44.4795V48H110.349V44.5234C110.349 44.2467 110.311 44.0254 110.236 43.8594C110.165 43.6934 110.062 43.5729 109.929 43.498C109.795 43.4199 109.636 43.3809 109.45 43.3809C109.239 43.3809 109.061 43.4281 108.918 43.5225C108.778 43.6169 108.666 43.7471 108.581 43.9131C108.5 44.0791 108.441 44.2695 108.405 44.4844C108.373 44.696 108.356 44.9206 108.356 45.1582ZM111.203 44.6602L110.627 44.8457C110.624 44.556 110.66 44.2777 110.734 44.0107C110.809 43.7438 110.92 43.5062 111.066 43.2979C111.216 43.0895 111.402 42.9251 111.623 42.8047C111.844 42.681 112.102 42.6191 112.395 42.6191C112.635 42.6191 112.849 42.6566 113.034 42.7314C113.22 42.8063 113.376 42.9219 113.503 43.0781C113.633 43.2311 113.731 43.4281 113.796 43.6689C113.861 43.9098 113.894 44.1963 113.894 44.5283V48H113.029V44.5186C113.029 44.2223 112.992 43.9928 112.917 43.8301C112.845 43.6641 112.743 43.5485 112.609 43.4834C112.476 43.415 112.316 43.3809 112.131 43.3809C111.981 43.3809 111.848 43.415 111.73 43.4834C111.617 43.5518 111.521 43.6462 111.442 43.7666C111.364 43.8838 111.304 44.0189 111.262 44.1719C111.223 44.3249 111.203 44.4876 111.203 44.6602ZM117.785 47.0967V44.2305C117.785 44.0221 117.753 43.8545 117.688 43.7275C117.626 43.6006 117.531 43.5078 117.404 43.4492C117.281 43.3906 117.124 43.3613 116.936 43.3613C116.753 43.3613 116.595 43.3988 116.462 43.4736C116.332 43.5485 116.231 43.6478 116.159 43.7715C116.091 43.8952 116.057 44.0319 116.057 44.1816H115.192C115.192 43.9928 115.233 43.8057 115.314 43.6201C115.399 43.4346 115.52 43.2669 115.676 43.1172C115.832 42.9642 116.019 42.8437 116.237 42.7559C116.459 42.6647 116.706 42.6191 116.979 42.6191C117.305 42.6191 117.593 42.6729 117.844 42.7803C118.094 42.8844 118.291 43.0553 118.435 43.293C118.578 43.5306 118.649 43.8464 118.649 44.2402V46.8477C118.649 47.0234 118.662 47.2106 118.688 47.4092C118.718 47.6077 118.758 47.7786 118.811 47.9219V48H117.917C117.875 47.8958 117.842 47.7575 117.819 47.585C117.797 47.4092 117.785 47.2464 117.785 47.0967ZM117.922 44.7969L117.932 45.4316H117.331C117.126 45.4316 116.939 45.4544 116.77 45.5C116.604 45.5456 116.46 45.6123 116.34 45.7002C116.219 45.7848 116.127 45.8906 116.062 46.0176C116 46.1445 115.969 46.2894 115.969 46.4521C115.969 46.6637 115.998 46.833 116.057 46.96C116.115 47.0837 116.203 47.1732 116.32 47.2285C116.438 47.2839 116.586 47.3115 116.765 47.3115C116.983 47.3115 117.175 47.2611 117.341 47.1602C117.507 47.0592 117.635 46.9372 117.727 46.7939C117.821 46.6507 117.865 46.5173 117.858 46.3936L118.049 46.7988C118.036 46.9258 117.993 47.0641 117.922 47.2139C117.854 47.3604 117.757 47.502 117.634 47.6387C117.51 47.7721 117.364 47.8828 117.194 47.9707C117.028 48.0553 116.841 48.0977 116.633 48.0977C116.327 48.0977 116.058 48.0391 115.827 47.9219C115.599 47.8047 115.422 47.6322 115.295 47.4043C115.168 47.1764 115.104 46.8949 115.104 46.5596C115.104 46.3057 115.148 46.0713 115.236 45.8564C115.324 45.6416 115.454 45.4561 115.627 45.2998C115.799 45.1403 116.016 45.0166 116.276 44.9287C116.54 44.8408 116.844 44.7969 117.189 44.7969H117.922ZM121.921 42.7168V43.4102L119.455 43.4102V42.7168H121.921ZM120.261 41.4326H121.125V46.6914C121.125 46.8704 121.146 47.0055 121.188 47.0967C121.234 47.1878 121.291 47.248 121.359 47.2773C121.428 47.3066 121.501 47.3213 121.579 47.3213C121.638 47.3213 121.703 47.3148 121.774 47.3018C121.846 47.2855 121.895 47.2725 121.921 47.2627L121.916 48C121.857 48.0228 121.779 48.0439 121.682 48.0635C121.584 48.0863 121.46 48.0977 121.311 48.0977C121.125 48.0977 120.952 48.0537 120.793 47.9658C120.633 47.8779 120.505 47.7314 120.407 47.5264C120.31 47.318 120.261 47.0381 120.261 46.6865V41.4326ZM123.815 43.5469V48H122.951V42.7168H123.786L123.815 43.5469ZM125.129 42.6875L125.134 43.5273C125.062 43.5111 124.997 43.5013 124.938 43.498C124.883 43.4915 124.818 43.4883 124.743 43.4883C124.58 43.4883 124.437 43.5208 124.313 43.5859C124.193 43.651 124.089 43.7422 124.001 43.8594C123.913 43.9766 123.843 44.1165 123.791 44.2793C123.739 44.4388 123.703 44.6146 123.684 44.8066L123.459 44.9531C123.459 44.6341 123.483 44.3346 123.532 44.0547C123.584 43.7747 123.664 43.5273 123.771 43.3125C123.879 43.0944 124.016 42.9251 124.182 42.8047C124.351 42.681 124.553 42.6191 124.787 42.6191C124.839 42.6191 124.903 42.6273 124.978 42.6436C125.056 42.6566 125.106 42.6712 125.129 42.6875ZM126.926 42.7168V48H126.066V42.7168H126.926ZM126.018 41.3154C126.018 41.1689 126.058 41.0452 126.14 40.9443C126.221 40.8434 126.343 40.793 126.506 40.793C126.669 40.793 126.791 40.8434 126.872 40.9443C126.957 41.0452 126.999 41.1689 126.999 41.3154C126.999 41.4554 126.957 41.5758 126.872 41.6768C126.791 41.7744 126.669 41.8232 126.506 41.8232C126.343 41.8232 126.221 41.7744 126.14 41.6768C126.058 41.5758 126.018 41.4554 126.018 41.3154ZM130.124 47.3604C130.297 47.3604 130.453 47.3262 130.593 47.2578C130.736 47.1862 130.853 47.0755 130.944 46.9258C131.035 46.7728 131.088 46.5742 131.101 46.3301H131.911C131.898 46.6816 131.809 46.9909 131.643 47.2578C131.48 47.5215 131.265 47.7282 130.998 47.8779C130.734 48.0244 130.443 48.0977 130.124 48.0977C129.782 48.0977 129.484 48.0423 129.23 47.9316C128.98 47.821 128.771 47.6615 128.605 47.4531C128.443 47.2415 128.321 46.986 128.239 46.6865C128.158 46.3838 128.117 46.0404 128.117 45.6562V45.0605C128.117 44.6764 128.158 44.3346 128.239 44.0352C128.321 43.7324 128.443 43.4769 128.605 43.2686C128.771 43.057 128.98 42.8958 129.23 42.7852C129.484 42.6745 129.782 42.6191 130.124 42.6191C130.482 42.6191 130.791 42.6956 131.052 42.8486C131.315 42.9984 131.521 43.2165 131.667 43.5029C131.817 43.7861 131.898 44.1296 131.911 44.5332H131.101C131.088 44.2728 131.04 44.0563 130.959 43.8838C130.878 43.708 130.767 43.5778 130.627 43.4932C130.487 43.4053 130.319 43.3613 130.124 43.3613C129.896 43.3613 129.707 43.402 129.558 43.4834C129.411 43.5615 129.296 43.6755 129.211 43.8252C129.126 43.9749 129.066 44.154 129.03 44.3623C128.998 44.5706 128.981 44.8034 128.981 45.0605V45.6562C128.981 45.9134 128.998 46.1478 129.03 46.3594C129.066 46.5677 129.125 46.7467 129.206 46.8965C129.291 47.0462 129.408 47.1618 129.558 47.2432C129.707 47.3213 129.896 47.3604 130.124 47.3604ZM135.583 46.7793V42.7168H136.447V48H135.627L135.583 46.7793ZM135.744 45.666L136.086 45.6562C136.086 46.0078 136.055 46.3333 135.993 46.6328C135.935 46.929 135.837 47.1862 135.7 47.4043C135.567 47.6224 135.389 47.7933 135.168 47.917C134.947 48.0374 134.675 48.0977 134.353 48.0977C134.134 48.0977 133.936 48.0602 133.757 47.9854C133.581 47.9105 133.428 47.7949 133.298 47.6387C133.171 47.4824 133.072 47.279 133 47.0283C132.932 46.7777 132.897 46.4766 132.897 46.125V42.7168H133.757V46.1348C133.757 46.3724 133.778 46.5693 133.82 46.7256C133.863 46.8786 133.92 47.0007 133.991 47.0918C134.063 47.1797 134.143 47.2415 134.23 47.2773C134.318 47.3132 134.408 47.3311 134.499 47.3311C134.805 47.3311 135.049 47.2578 135.231 47.1113C135.414 46.9616 135.544 46.7614 135.622 46.5107C135.703 46.2568 135.744 45.9753 135.744 45.666ZM138.674 40.5V48H137.814V40.5H138.674ZM142.629 47.0967V44.2305C142.629 44.0221 142.596 43.8545 142.531 43.7275C142.469 43.6006 142.375 43.5078 142.248 43.4492C142.124 43.3906 141.968 43.3613 141.779 43.3613C141.597 43.3613 141.439 43.3988 141.306 43.4736C141.175 43.5485 141.075 43.6478 141.003 43.7715C140.935 43.8952 140.9 44.0319 140.9 44.1816H140.036C140.036 43.9928 140.077 43.8057 140.158 43.6201C140.243 43.4346 140.363 43.2669 140.52 43.1172C140.676 42.9642 140.863 42.8437 141.081 42.7559C141.302 42.6647 141.55 42.6191 141.823 42.6191C142.149 42.6191 142.437 42.6729 142.688 42.7803C142.938 42.8844 143.135 43.0553 143.278 43.293C143.422 43.5306 143.493 43.8464 143.493 44.2402V46.8477C143.493 47.0234 143.506 47.2106 143.532 47.4092C143.562 47.6077 143.602 47.7786 143.654 47.9219V48H142.761C142.718 47.8958 142.686 47.7575 142.663 47.585C142.64 47.4092 142.629 47.2464 142.629 47.0967ZM142.766 44.7969L142.775 45.4316H142.175C141.97 45.4316 141.783 45.4544 141.613 45.5C141.447 45.5456 141.304 45.6123 141.184 45.7002C141.063 45.7848 140.97 45.8906 140.905 46.0176C140.843 46.1445 140.812 46.2894 140.812 46.4521C140.812 46.6637 140.842 46.833 140.9 46.96C140.959 47.0837 141.047 47.1732 141.164 47.2285C141.281 47.2839 141.429 47.3115 141.608 47.3115C141.826 47.3115 142.019 47.2611 142.185 47.1602C142.351 47.0592 142.479 46.9372 142.57 46.7939C142.665 46.6507 142.709 46.5173 142.702 46.3936L142.893 46.7988C142.88 46.9258 142.837 47.0641 142.766 47.2139C142.697 47.3604 142.601 47.502 142.478 47.6387C142.354 47.7721 142.207 47.8828 142.038 47.9707C141.872 48.0553 141.685 48.0977 141.477 48.0977C141.171 48.0977 140.902 48.0391 140.671 47.9219C140.443 47.8047 140.266 47.6322 140.139 47.4043C140.012 47.1764 139.948 46.8949 139.948 46.5596C139.948 46.3057 139.992 46.0713 140.08 45.8564C140.168 45.6416 140.298 45.4561 140.471 45.2998C140.643 45.1403 140.86 45.0166 141.12 44.9287C141.384 44.8408 141.688 44.7969 142.033 44.7969H142.766ZM145.7 43.5469V48H144.836V42.7168H145.671L145.7 43.5469ZM147.014 42.6875L147.019 43.5273C146.947 43.5111 146.882 43.5013 146.823 43.498C146.768 43.4915 146.703 43.4883 146.628 43.4883C146.465 43.4883 146.322 43.5208 146.198 43.5859C146.078 43.651 145.974 43.7422 145.886 43.8594C145.798 43.9766 145.728 44.1165 145.676 44.2793C145.624 44.4388 145.588 44.6146 145.568 44.8066L145.344 44.9531C145.344 44.6341 145.368 44.3346 145.417 44.0547C145.469 43.7747 145.549 43.5273 145.656 43.3125C145.764 43.0944 145.9 42.9251 146.066 42.8047C146.236 42.681 146.438 42.6191 146.672 42.6191C146.724 42.6191 146.787 42.6273 146.862 42.6436C146.94 42.6566 146.991 42.6712 147.014 42.6875ZM149.675 48.0977C149.359 48.0977 149.074 48.0505 148.82 47.9561C148.566 47.8617 148.35 47.7184 148.171 47.5264C147.992 47.3311 147.855 47.0853 147.761 46.7891C147.666 46.4928 147.619 46.1429 147.619 45.7393V45.1436C147.619 44.6781 147.673 44.2842 147.78 43.9619C147.891 43.6396 148.039 43.3809 148.225 43.1855C148.41 42.987 148.62 42.8437 148.854 42.7559C149.089 42.6647 149.33 42.6191 149.577 42.6191C149.909 42.6191 150.192 42.6729 150.427 42.7803C150.661 42.8877 150.852 43.0472 150.998 43.2588C151.145 43.4704 151.252 43.7308 151.32 44.04C151.392 44.3493 151.428 44.7057 151.428 45.1094V45.6123H148.127V44.875H150.563V44.7529C150.55 44.4795 150.513 44.2386 150.451 44.0303C150.393 43.8219 150.295 43.6592 150.158 43.542C150.021 43.4215 149.828 43.3613 149.577 43.3613C149.418 43.3613 149.27 43.389 149.133 43.4443C148.999 43.4964 148.884 43.5892 148.786 43.7227C148.692 43.8529 148.617 44.0335 148.562 44.2646C148.509 44.4958 148.483 44.7887 148.483 45.1436V45.7393C148.483 46.0225 148.509 46.2666 148.562 46.4717C148.617 46.6735 148.697 46.8411 148.801 46.9746C148.908 47.1048 149.038 47.2025 149.191 47.2676C149.348 47.3294 149.525 47.3604 149.724 47.3604C150.013 47.3604 150.253 47.305 150.441 47.1943C150.63 47.0804 150.795 46.9355 150.935 46.7598L151.389 47.3018C151.294 47.4352 151.171 47.5638 151.018 47.6875C150.868 47.8079 150.682 47.9072 150.461 47.9854C150.243 48.0602 149.981 48.0977 149.675 48.0977Z" fill="#E0E0E9"/>
<path d="M181.096 40.8906V48H180.197V40.8906H181.096ZM183.493 44.0889V44.8604H180.925V44.0889H183.493ZM183.898 40.8906V41.6621H180.925V40.8906H183.898ZM187.316 47.0967V44.2305C187.316 44.0221 187.284 43.8545 187.219 43.7275C187.157 43.6006 187.062 43.5078 186.936 43.4492C186.812 43.3906 186.656 43.3613 186.467 43.3613C186.285 43.3613 186.127 43.3988 185.993 43.4736C185.863 43.5485 185.762 43.6478 185.69 43.7715C185.622 43.8952 185.588 44.0319 185.588 44.1816H184.724C184.724 43.9928 184.764 43.8057 184.846 43.6201C184.93 43.4346 185.051 43.2669 185.207 43.1172C185.363 42.9642 185.55 42.8438 185.769 42.7559C185.99 42.6647 186.237 42.6191 186.511 42.6191C186.836 42.6191 187.124 42.6729 187.375 42.7803C187.626 42.8844 187.823 43.0553 187.966 43.293C188.109 43.5306 188.181 43.8464 188.181 44.2402V46.8477C188.181 47.0234 188.194 47.2106 188.22 47.4092C188.249 47.6077 188.29 47.7786 188.342 47.9219V48H187.448C187.406 47.8958 187.373 47.7575 187.351 47.585C187.328 47.4092 187.316 47.2464 187.316 47.0967ZM187.453 44.7969L187.463 45.4316H186.862C186.657 45.4316 186.47 45.4544 186.301 45.5C186.135 45.5456 185.992 45.6123 185.871 45.7002C185.751 45.7848 185.658 45.8906 185.593 46.0176C185.531 46.1445 185.5 46.2894 185.5 46.4521C185.5 46.6637 185.529 46.833 185.588 46.96C185.646 47.0837 185.734 47.1732 185.852 47.2285C185.969 47.2839 186.117 47.3115 186.296 47.3115C186.514 47.3115 186.706 47.2611 186.872 47.1602C187.038 47.0592 187.167 46.9372 187.258 46.7939C187.352 46.6507 187.396 46.5173 187.39 46.3936L187.58 46.7988C187.567 46.9258 187.525 47.0641 187.453 47.2139C187.385 47.3604 187.289 47.502 187.165 47.6387C187.041 47.7721 186.895 47.8828 186.726 47.9707C186.56 48.0553 186.372 48.0977 186.164 48.0977C185.858 48.0977 185.59 48.0391 185.358 47.9219C185.131 47.8047 184.953 47.6322 184.826 47.4043C184.699 47.1764 184.636 46.8949 184.636 46.5596C184.636 46.3057 184.68 46.0713 184.768 45.8564C184.855 45.6416 184.986 45.4561 185.158 45.2998C185.331 45.1403 185.547 45.0166 185.808 44.9287C186.071 44.8408 186.376 44.7969 186.721 44.7969H187.453ZM191.354 47.3604C191.527 47.3604 191.683 47.3262 191.823 47.2578C191.966 47.1862 192.084 47.0755 192.175 46.9258C192.266 46.7728 192.318 46.5742 192.331 46.3301H193.142C193.129 46.6816 193.039 46.9909 192.873 47.2578C192.71 47.5215 192.495 47.7282 192.229 47.8779C191.965 48.0244 191.674 48.0977 191.354 48.0977C191.013 48.0977 190.715 48.0423 190.461 47.9316C190.21 47.821 190.002 47.6615 189.836 47.4531C189.673 47.2415 189.551 46.986 189.47 46.6865C189.388 46.3838 189.348 46.0404 189.348 45.6562V45.0605C189.348 44.6764 189.388 44.3346 189.47 44.0352C189.551 43.7324 189.673 43.4769 189.836 43.2686C190.002 43.057 190.21 42.8958 190.461 42.7852C190.715 42.6745 191.013 42.6191 191.354 42.6191C191.713 42.6191 192.022 42.6956 192.282 42.8486C192.546 42.9984 192.751 43.2165 192.897 43.5029C193.047 43.7861 193.129 44.1296 193.142 44.5332H192.331C192.318 44.2728 192.271 44.0563 192.189 43.8838C192.108 43.708 191.997 43.5778 191.857 43.4932C191.717 43.4053 191.55 43.3613 191.354 43.3613C191.127 43.3613 190.938 43.402 190.788 43.4834C190.642 43.5615 190.526 43.6755 190.441 43.8252C190.357 43.9749 190.297 44.154 190.261 44.3623C190.228 44.5706 190.212 44.8034 190.212 45.0605V45.6562C190.212 45.9134 190.228 46.1478 190.261 46.3594C190.297 46.5677 190.355 46.7467 190.437 46.8965C190.521 47.0462 190.638 47.1618 190.788 47.2432C190.938 47.3213 191.127 47.3604 191.354 47.3604ZM196.071 42.7168V43.4102H193.605V42.7168H196.071ZM194.411 41.4326H195.275V46.6914C195.275 46.8704 195.297 47.0055 195.339 47.0967C195.384 47.1878 195.441 47.248 195.51 47.2773C195.578 47.3066 195.651 47.3213 195.729 47.3213C195.788 47.3213 195.853 47.3148 195.925 47.3018C195.996 47.2855 196.045 47.2725 196.071 47.2627L196.066 48C196.008 48.0228 195.93 48.0439 195.832 48.0635C195.734 48.0863 195.611 48.0977 195.461 48.0977C195.275 48.0977 195.103 48.0537 194.943 47.9658C194.784 47.8779 194.655 47.7314 194.558 47.5264C194.46 47.318 194.411 47.0381 194.411 46.6865V41.4326ZM199.772 46.7793V42.7168H200.637V48H199.816L199.772 46.7793ZM199.934 45.666L200.275 45.6562C200.275 46.0078 200.244 46.3333 200.183 46.6328C200.124 46.929 200.026 47.1862 199.89 47.4043C199.756 47.6224 199.579 47.7933 199.357 47.917C199.136 48.0374 198.864 48.0977 198.542 48.0977C198.324 48.0977 198.125 48.0602 197.946 47.9854C197.771 47.9105 197.618 47.7949 197.487 47.6387C197.36 47.4824 197.261 47.279 197.189 47.0283C197.121 46.7777 197.087 46.4766 197.087 46.125V42.7168H197.946V46.1348C197.946 46.3724 197.967 46.5693 198.01 46.7256C198.052 46.8786 198.109 47.0007 198.181 47.0918C198.252 47.1797 198.332 47.2415 198.42 47.2773C198.508 47.3132 198.597 47.3311 198.688 47.3311C198.994 47.3311 199.239 47.2578 199.421 47.1113C199.603 46.9616 199.733 46.7614 199.812 46.5107C199.893 46.2568 199.934 45.9753 199.934 45.666ZM202.8 43.5469V48H201.936V42.7168H202.771L202.8 43.5469ZM204.113 42.6875L204.118 43.5273C204.047 43.5111 203.981 43.5013 203.923 43.498C203.868 43.4915 203.802 43.4883 203.728 43.4883C203.565 43.4883 203.422 43.5208 203.298 43.5859C203.177 43.651 203.073 43.7422 202.985 43.8594C202.897 43.9766 202.827 44.1165 202.775 44.2793C202.723 44.4388 202.688 44.6146 202.668 44.8066L202.443 44.9531C202.443 44.6341 202.468 44.3346 202.517 44.0547C202.569 43.7747 202.648 43.5273 202.756 43.3125C202.863 43.0944 203 42.9251 203.166 42.8047C203.335 42.681 203.537 42.6191 203.771 42.6191C203.824 42.6191 203.887 42.6273 203.962 42.6436C204.04 42.6566 204.09 42.6712 204.113 42.6875ZM207.375 47.0967V44.2305C207.375 44.0221 207.342 43.8545 207.277 43.7275C207.215 43.6006 207.121 43.5078 206.994 43.4492C206.87 43.3906 206.714 43.3613 206.525 43.3613C206.343 43.3613 206.185 43.3988 206.052 43.4736C205.922 43.5485 205.821 43.6478 205.749 43.7715C205.681 43.8952 205.646 44.0319 205.646 44.1816H204.782C204.782 43.9928 204.823 43.8057 204.904 43.6201C204.989 43.4346 205.109 43.2669 205.266 43.1172C205.422 42.9642 205.609 42.8437 205.827 42.7559C206.049 42.6647 206.296 42.6191 206.569 42.6191C206.895 42.6191 207.183 42.6729 207.434 42.7803C207.684 42.8844 207.881 43.0553 208.024 43.293C208.168 43.5306 208.239 43.8464 208.239 44.2402V46.8477C208.239 47.0234 208.252 47.2106 208.278 47.4092C208.308 47.6077 208.348 47.7786 208.4 47.9219V48H207.507C207.465 47.8958 207.432 47.7575 207.409 47.585C207.386 47.4092 207.375 47.2464 207.375 47.0967ZM207.512 44.7969L207.521 45.4316H206.921C206.716 45.4316 206.529 45.4544 206.359 45.5C206.193 45.5456 206.05 45.6123 205.93 45.7002C205.809 45.7848 205.716 45.8906 205.651 46.0176C205.59 46.1445 205.559 46.2894 205.559 46.4521C205.559 46.6637 205.588 46.833 205.646 46.96C205.705 47.0837 205.793 47.1732 205.91 47.2285C206.027 47.2839 206.175 47.3115 206.354 47.3115C206.573 47.3115 206.765 47.2611 206.931 47.1602C207.097 47.0592 207.225 46.9372 207.316 46.7939C207.411 46.6507 207.455 46.5173 207.448 46.3936L207.639 46.7988C207.626 46.9258 207.583 47.0641 207.512 47.2139C207.443 47.3604 207.347 47.502 207.224 47.6387C207.1 47.7721 206.953 47.8828 206.784 47.9707C206.618 48.0553 206.431 48.0977 206.223 48.0977C205.917 48.0977 205.648 48.0391 205.417 47.9219C205.189 47.8047 205.012 47.6322 204.885 47.4043C204.758 47.1764 204.694 46.8949 204.694 46.5596C204.694 46.3057 204.738 46.0713 204.826 45.8564C204.914 45.6416 205.044 45.4561 205.217 45.2998C205.389 45.1403 205.606 45.0166 205.866 44.9287C206.13 44.8408 206.434 44.7969 206.779 44.7969H207.512ZM210.446 43.5469V48H209.582V42.7168H210.417L210.446 43.5469ZM211.76 42.6875L211.765 43.5273C211.693 43.5111 211.628 43.5013 211.569 43.498C211.514 43.4915 211.449 43.4883 211.374 43.4883C211.211 43.4883 211.068 43.5208 210.944 43.5859C210.824 43.651 210.72 43.7422 210.632 43.8594C210.544 43.9766 210.474 44.1165 210.422 44.2793C210.37 44.4388 210.334 44.6146 210.314 44.8066L210.09 44.9531C210.09 44.6341 210.114 44.3346 210.163 44.0547C210.215 43.7747 210.295 43.5273 210.402 43.3125C210.51 43.0944 210.646 42.9251 210.812 42.8047C210.982 42.681 211.184 42.6191 211.418 42.6191C211.47 42.6191 211.534 42.6273 211.608 42.6436C211.687 42.6566 211.737 42.6712 211.76 42.6875ZM214.421 48.0977C214.105 48.0977 213.82 48.0505 213.566 47.9561C213.312 47.8617 213.096 47.7184 212.917 47.5264C212.738 47.3311 212.601 47.0853 212.507 46.7891C212.412 46.4928 212.365 46.1429 212.365 45.7393V45.1436C212.365 44.6781 212.419 44.2842 212.526 43.9619C212.637 43.6396 212.785 43.3809 212.971 43.1855C213.156 42.987 213.366 42.8437 213.601 42.7559C213.835 42.6647 214.076 42.6191 214.323 42.6191C214.655 42.6191 214.938 42.6729 215.173 42.7803C215.407 42.8877 215.598 43.0472 215.744 43.2588C215.891 43.4704 215.998 43.7308 216.066 44.04C216.138 44.3493 216.174 44.7057 216.174 45.1094V45.6123H212.873V44.875H215.31V44.7529C215.297 44.4795 215.259 44.2386 215.197 44.0303C215.139 43.8219 215.041 43.6592 214.904 43.542C214.768 43.4215 214.574 43.3613 214.323 43.3613C214.164 43.3613 214.016 43.389 213.879 43.4443C213.745 43.4964 213.63 43.5892 213.532 43.7227C213.438 43.8529 213.363 44.0335 213.308 44.2646C213.256 44.4958 213.229 44.7887 213.229 45.1436V45.7393C213.229 46.0225 213.256 46.2666 213.308 46.4717C213.363 46.6735 213.443 46.8411 213.547 46.9746C213.654 47.1048 213.785 47.2025 213.938 47.2676C214.094 47.3294 214.271 47.3604 214.47 47.3604C214.759 47.3604 214.999 47.305 215.188 47.1943C215.376 47.0804 215.541 46.9355 215.681 46.7598L216.135 47.3018C216.04 47.4352 215.917 47.5638 215.764 47.6875C215.614 47.8079 215.428 47.9072 215.207 47.9854C214.989 48.0602 214.727 48.0977 214.421 48.0977Z" fill="#E0E0E9"/>
<path d="M273.533 42.9209L275.242 36.8906H276.219L274.012 44H273.323L273.533 42.9209ZM272 36.8906L273.694 42.9209L273.919 44H273.23L271.023 36.8906H272ZM278.743 44.0977C278.427 44.0977 278.143 44.0505 277.889 43.9561C277.635 43.8617 277.418 43.7184 277.239 43.5264C277.06 43.3311 276.924 43.0853 276.829 42.7891C276.735 42.4928 276.688 42.1429 276.688 41.7393V41.1436C276.688 40.6781 276.741 40.2842 276.849 39.9619C276.959 39.6396 277.107 39.3809 277.293 39.1855C277.479 38.987 277.688 38.8438 277.923 38.7559C278.157 38.6647 278.398 38.6191 278.646 38.6191C278.978 38.6191 279.261 38.6729 279.495 38.7803C279.729 38.8877 279.92 39.0472 280.066 39.2588C280.213 39.4704 280.32 39.7308 280.389 40.04C280.46 40.3493 280.496 40.7057 280.496 41.1094V41.6123H277.195V40.875H279.632V40.7529C279.619 40.4795 279.581 40.2386 279.52 40.0303C279.461 39.8219 279.363 39.6592 279.227 39.542C279.09 39.4215 278.896 39.3613 278.646 39.3613C278.486 39.3613 278.338 39.389 278.201 39.4443C278.068 39.4964 277.952 39.5892 277.854 39.7227C277.76 39.8529 277.685 40.0335 277.63 40.2646C277.578 40.4958 277.552 40.7887 277.552 41.1436V41.7393C277.552 42.0225 277.578 42.2666 277.63 42.4717C277.685 42.6735 277.765 42.8411 277.869 42.9746C277.977 43.1048 278.107 43.2025 278.26 43.2676C278.416 43.3294 278.593 43.3604 278.792 43.3604C279.082 43.3604 279.321 43.305 279.51 43.1943C279.699 43.0804 279.863 42.9355 280.003 42.7598L280.457 43.3018C280.363 43.4352 280.239 43.5638 280.086 43.6875C279.936 43.8079 279.751 43.9072 279.529 43.9854C279.311 44.0602 279.049 44.0977 278.743 44.0977ZM282.405 39.5469V44H281.541V38.7168H282.376L282.405 39.5469ZM283.719 38.6875L283.724 39.5273C283.652 39.5111 283.587 39.5013 283.528 39.498C283.473 39.4915 283.408 39.4883 283.333 39.4883C283.17 39.4883 283.027 39.5208 282.903 39.5859C282.783 39.651 282.679 39.7422 282.591 39.8594C282.503 39.9766 282.433 40.1165 282.381 40.2793C282.329 40.4388 282.293 40.6146 282.273 40.8066L282.049 40.9531C282.049 40.6341 282.073 40.3346 282.122 40.0547C282.174 39.7747 282.254 39.5273 282.361 39.3125C282.469 39.0944 282.605 38.9251 282.771 38.8047C282.941 38.681 283.143 38.6191 283.377 38.6191C283.429 38.6191 283.493 38.6273 283.567 38.6436C283.646 38.6566 283.696 38.6712 283.719 38.6875ZM285.516 38.7168V44H284.656V38.7168H285.516ZM284.607 37.3154C284.607 37.1689 284.648 37.0452 284.729 36.9443C284.811 36.8434 284.933 36.793 285.096 36.793C285.258 36.793 285.381 36.8434 285.462 36.9443C285.547 37.0452 285.589 37.1689 285.589 37.3154C285.589 37.4554 285.547 37.5758 285.462 37.6768C285.381 37.7744 285.258 37.8232 285.096 37.8232C284.933 37.8232 284.811 37.7744 284.729 37.6768C284.648 37.5758 284.607 37.4554 284.607 37.3154ZM287.986 44H287.122V38.2578C287.122 37.8574 287.189 37.5189 287.322 37.2422C287.459 36.9655 287.653 36.7555 287.903 36.6123C288.157 36.4691 288.457 36.3975 288.802 36.3975C289.007 36.3975 289.204 36.4268 289.393 36.4854C289.581 36.5407 289.777 36.6107 289.979 36.6953L289.832 37.457C289.715 37.3984 289.572 37.3431 289.402 37.291C289.233 37.2357 289.056 37.208 288.87 37.208C288.545 37.208 288.315 37.2959 288.182 37.4717C288.051 37.6442 287.986 37.9062 287.986 38.2578V44ZM288.841 38.7168V39.4102H286.434V38.7168H288.841ZM290.394 38.7168V44H289.529V38.7168H290.394ZM293.616 43.3604C293.789 43.3604 293.945 43.3262 294.085 43.2578C294.228 43.1862 294.345 43.0755 294.437 42.9258C294.528 42.7728 294.58 42.5742 294.593 42.3301L295.403 42.3301C295.39 42.6816 295.301 42.9909 295.135 43.2578C294.972 43.5215 294.757 43.7282 294.49 43.8779C294.227 44.0244 293.935 44.0977 293.616 44.0977C293.274 44.0977 292.977 44.0423 292.723 43.9316C292.472 43.821 292.264 43.6615 292.098 43.4531C291.935 43.2415 291.813 42.986 291.731 42.6865C291.65 42.3838 291.609 42.0404 291.609 41.6562V41.0605C291.609 40.6764 291.65 40.3346 291.731 40.0352C291.813 39.7324 291.935 39.4769 292.098 39.2686C292.264 39.057 292.472 38.8958 292.723 38.7852C292.977 38.6745 293.274 38.6191 293.616 38.6191C293.974 38.6191 294.284 38.6956 294.544 38.8486C294.808 38.9984 295.013 39.2165 295.159 39.5029C295.309 39.7861 295.39 40.1296 295.403 40.5332H294.593C294.58 40.2728 294.533 40.0563 294.451 39.8838C294.37 39.708 294.259 39.5778 294.119 39.4932C293.979 39.4053 293.812 39.3613 293.616 39.3613C293.388 39.3613 293.2 39.402 293.05 39.4834C292.903 39.5615 292.788 39.6755 292.703 39.8252C292.618 39.9749 292.558 40.154 292.522 40.3623C292.49 40.5706 292.474 40.8034 292.474 41.0605V41.6562C292.474 41.9134 292.49 42.1478 292.522 42.3594C292.558 42.5677 292.617 42.7467 292.698 42.8965C292.783 43.0462 292.9 43.1618 293.05 43.2432C293.2 43.3213 293.388 43.3604 293.616 43.3604ZM298.992 43.0967V40.2305C298.992 40.0221 298.96 39.8545 298.895 39.7275C298.833 39.6006 298.738 39.5078 298.611 39.4492C298.488 39.3906 298.331 39.3613 298.143 39.3613C297.96 39.3613 297.802 39.3988 297.669 39.4736C297.539 39.5485 297.438 39.6478 297.366 39.7715C297.298 39.8952 297.264 40.0319 297.264 40.1816H296.399C296.399 39.9928 296.44 39.8057 296.521 39.6201C296.606 39.4346 296.727 39.2669 296.883 39.1172C297.039 38.9642 297.226 38.8437 297.444 38.7559C297.666 38.6647 297.913 38.6191 298.187 38.6191C298.512 38.6191 298.8 38.6729 299.051 38.7803C299.301 38.8844 299.498 39.0553 299.642 39.293C299.785 39.5306 299.856 39.8464 299.856 40.2402V42.8477C299.856 43.0234 299.869 43.2106 299.896 43.4092C299.925 43.6077 299.965 43.7786 300.018 43.9219V44H299.124C299.082 43.8958 299.049 43.7575 299.026 43.585C299.004 43.4092 298.992 43.2464 298.992 43.0967ZM299.129 40.7969L299.139 41.4316H298.538C298.333 41.4316 298.146 41.4544 297.977 41.5C297.811 41.5456 297.667 41.6123 297.547 41.7002C297.426 41.7848 297.334 41.8906 297.269 42.0176C297.207 42.1445 297.176 42.2894 297.176 42.4521C297.176 42.6637 297.205 42.833 297.264 42.96C297.322 43.0837 297.41 43.1732 297.527 43.2285C297.645 43.2839 297.793 43.3115 297.972 43.3115C298.19 43.3115 298.382 43.2611 298.548 43.1602C298.714 43.0592 298.842 42.9372 298.934 42.7939C299.028 42.6507 299.072 42.5173 299.065 42.3936L299.256 42.7988C299.243 42.9258 299.201 43.0641 299.129 43.2139C299.061 43.3604 298.965 43.502 298.841 43.6387C298.717 43.7721 298.571 43.8828 298.401 43.9707C298.235 44.0553 298.048 44.0977 297.84 44.0977C297.534 44.0977 297.265 44.0391 297.034 43.9219C296.806 43.8047 296.629 43.6322 296.502 43.4043C296.375 43.1764 296.312 42.8949 296.312 42.5596C296.312 42.3057 296.355 42.0713 296.443 41.8564C296.531 41.6416 296.661 41.4561 296.834 41.2998C297.007 41.1403 297.223 41.0166 297.483 40.9287C297.747 40.8408 298.051 40.7969 298.396 40.7969H299.129ZM302.063 39.5469V44H301.199V38.7168H302.034L302.063 39.5469ZM303.377 38.6875L303.382 39.5273C303.31 39.5111 303.245 39.5013 303.187 39.498C303.131 39.4915 303.066 39.4883 302.991 39.4883C302.828 39.4883 302.685 39.5208 302.562 39.5859C302.441 39.651 302.337 39.7422 302.249 39.8594C302.161 39.9766 302.091 40.1165 302.039 40.2793C301.987 40.4388 301.951 40.6146 301.932 40.8066L301.707 40.9531C301.707 40.6341 301.731 40.3346 301.78 40.0547C301.832 39.7747 301.912 39.5273 302.02 39.3125C302.127 39.0944 302.264 38.9251 302.43 38.8047C302.599 38.681 302.801 38.6191 303.035 38.6191C303.087 38.6191 303.151 38.6273 303.226 38.6436C303.304 38.6566 303.354 38.6712 303.377 38.6875ZM306.038 44.0977C305.722 44.0977 305.438 44.0505 305.184 43.9561C304.93 43.8617 304.713 43.7184 304.534 43.5264C304.355 43.3311 304.218 43.0853 304.124 42.7891C304.03 42.4928 303.982 42.1429 303.982 41.7393V41.1436C303.982 40.6781 304.036 40.2842 304.144 39.9619C304.254 39.6396 304.402 39.3809 304.588 39.1855C304.773 38.987 304.983 38.8437 305.218 38.7559C305.452 38.6647 305.693 38.6191 305.94 38.6191C306.272 38.6191 306.556 38.6729 306.79 38.7803C307.024 38.8877 307.215 39.0472 307.361 39.2588C307.508 39.4704 307.615 39.7308 307.684 40.04C307.755 40.3493 307.791 40.7057 307.791 41.1094V41.6123H304.49V40.875H306.927V40.7529C306.914 40.4795 306.876 40.2386 306.814 40.0303C306.756 39.8219 306.658 39.6592 306.521 39.542C306.385 39.4215 306.191 39.3613 305.94 39.3613C305.781 39.3613 305.633 39.389 305.496 39.4443C305.363 39.4964 305.247 39.5892 305.149 39.7227C305.055 39.8529 304.98 40.0335 304.925 40.2646C304.873 40.4958 304.847 40.7887 304.847 41.1436V41.7393C304.847 42.0225 304.873 42.2666 304.925 42.4717C304.98 42.6735 305.06 42.8411 305.164 42.9746C305.271 43.1048 305.402 43.2025 305.555 43.2676C305.711 43.3294 305.888 43.3604 306.087 43.3604C306.377 43.3604 306.616 43.305 306.805 43.1943C306.993 43.0804 307.158 42.9355 307.298 42.7598L307.752 43.3018C307.658 43.4352 307.534 43.5638 307.381 43.6875C307.231 43.8079 307.046 43.9072 306.824 43.9854C306.606 44.0602 306.344 44.0977 306.038 44.0977ZM278.25 56.6475C278.25 56.514 278.217 56.3968 278.152 56.2959C278.087 56.195 277.98 56.0973 277.83 56.0029C277.684 55.9085 277.485 55.8076 277.234 55.7002C276.99 55.5993 276.771 55.5 276.575 55.4023C276.383 55.3014 276.22 55.1924 276.087 55.0752C275.953 54.958 275.851 54.8229 275.779 54.6699C275.711 54.5137 275.677 54.3298 275.677 54.1182C275.677 53.9066 275.716 53.7113 275.794 53.5322C275.875 53.3499 275.989 53.1904 276.136 53.0537C276.282 52.917 276.458 52.8112 276.663 52.7363C276.868 52.6582 277.098 52.6191 277.352 52.6191C277.713 52.6191 278.021 52.6891 278.274 52.8291C278.528 52.9691 278.722 53.1611 278.855 53.4053C278.992 53.6462 279.061 53.918 279.061 54.2207H278.201C278.201 54.0742 278.169 53.9359 278.104 53.8057C278.038 53.6755 277.942 53.5697 277.815 53.4883C277.688 53.4036 277.534 53.3613 277.352 53.3613C277.16 53.3613 277.003 53.3955 276.883 53.4639C276.762 53.5322 276.674 53.6217 276.619 53.7324C276.567 53.8398 276.541 53.9587 276.541 54.0889C276.541 54.1865 276.554 54.2712 276.58 54.3428C276.609 54.4111 276.658 54.4762 276.727 54.5381C276.795 54.5967 276.888 54.6585 277.005 54.7236C277.125 54.7855 277.278 54.8571 277.464 54.9385C277.822 55.0785 278.123 55.2201 278.367 55.3633C278.611 55.5065 278.797 55.6742 278.924 55.8662C279.051 56.0583 279.114 56.2959 279.114 56.5791C279.114 56.8102 279.072 57.0202 278.987 57.209C278.906 57.3945 278.789 57.554 278.636 57.6875C278.483 57.821 278.299 57.9235 278.084 57.9951C277.872 58.0635 277.635 58.0977 277.371 58.0977C276.974 58.0977 276.637 58.0195 276.36 57.8633C276.087 57.7038 275.879 57.4971 275.735 57.2432C275.595 56.986 275.525 56.7109 275.525 56.418H276.39C276.399 56.6654 276.455 56.8574 276.556 56.9941C276.66 57.1309 276.785 57.2253 276.932 57.2773C277.078 57.3294 277.225 57.3555 277.371 57.3555C277.563 57.3555 277.724 57.3278 277.854 57.2725C277.985 57.2139 278.082 57.1309 278.147 57.0234C278.216 56.916 278.25 56.7907 278.25 56.6475ZM277.879 58.6104V58.9961C277.879 59.2533 277.827 59.5299 277.723 59.8262C277.618 60.1224 277.457 60.3698 277.239 60.5684L276.751 60.2119C276.855 60.0264 276.933 59.8359 276.985 59.6406C277.037 59.4453 277.063 59.2337 277.063 59.0059V58.6104H277.879ZM281.175 52.7168V58H280.315V52.7168H281.175ZM280.267 51.3154C280.267 51.1689 280.307 51.0452 280.389 50.9443C280.47 50.8434 280.592 50.793 280.755 50.793C280.918 50.793 281.04 50.8434 281.121 50.9443C281.206 51.0452 281.248 51.1689 281.248 51.3154C281.248 51.4554 281.206 51.5758 281.121 51.6768C281.04 51.7744 280.918 51.8232 280.755 51.8232C280.592 51.8232 280.47 51.7744 280.389 51.6768C280.307 51.5758 280.267 51.4554 280.267 51.3154ZM285.701 53.7324V60.0312H284.837V52.7168H285.623L285.701 53.7324ZM288.655 55.1191V55.6123C288.655 56.029 288.616 56.3936 288.538 56.7061C288.463 57.0153 288.351 57.2741 288.201 57.4824C288.055 57.6875 287.874 57.8421 287.659 57.9463C287.444 58.0472 287.199 58.0977 286.922 58.0977C286.645 58.0977 286.404 58.0456 286.199 57.9414C285.997 57.834 285.826 57.6794 285.687 57.4775C285.55 57.2757 285.441 57.0332 285.359 56.75C285.281 56.4635 285.228 56.1429 285.198 55.7881V55.0361C285.228 54.6618 285.281 54.3265 285.359 54.0303C285.438 53.7308 285.545 53.4769 285.682 53.2686C285.822 53.057 285.993 52.8958 286.194 52.7852C286.399 52.6745 286.639 52.6191 286.912 52.6191C287.195 52.6191 287.444 52.668 287.659 52.7656C287.877 52.8633 288.06 53.0146 288.206 53.2197C288.356 53.4215 288.468 53.6803 288.543 53.9961C288.618 54.3086 288.655 54.6829 288.655 55.1191ZM287.791 55.6123V55.1191C287.791 54.8262 287.768 54.5706 287.723 54.3525C287.68 54.1344 287.612 53.9538 287.518 53.8105C287.423 53.6673 287.304 53.5599 287.161 53.4883C287.018 53.4167 286.845 53.3809 286.644 53.3809C286.471 53.3809 286.318 53.4167 286.185 53.4883C286.054 53.5599 285.942 53.6576 285.848 53.7812C285.753 53.9017 285.675 54.04 285.613 54.1963C285.551 54.3493 285.506 54.5088 285.477 54.6748V56.1543C285.532 56.3626 285.605 56.5596 285.696 56.7451C285.787 56.9274 285.91 57.0755 286.062 57.1895C286.219 57.3034 286.416 57.3604 286.653 57.3604C286.852 57.3604 287.023 57.3245 287.166 57.2529C287.309 57.1813 287.426 57.0739 287.518 56.9307C287.612 56.7842 287.68 56.6019 287.723 56.3838C287.768 56.1624 287.791 55.9053 287.791 55.6123ZM290.696 50.5V58H289.837V50.5H290.696ZM294.651 57.0967V54.2305C294.651 54.0221 294.619 53.8545 294.554 53.7275C294.492 53.6006 294.397 53.5078 294.271 53.4492C294.147 53.3906 293.991 53.3613 293.802 53.3613C293.619 53.3613 293.462 53.3988 293.328 53.4736C293.198 53.5485 293.097 53.6478 293.025 53.7715C292.957 53.8952 292.923 54.0319 292.923 54.1816H292.059C292.059 53.9928 292.099 53.8057 292.181 53.6201C292.265 53.4346 292.386 53.2669 292.542 53.1172C292.698 52.9642 292.885 52.8438 293.104 52.7559C293.325 52.6647 293.572 52.6191 293.846 52.6191C294.171 52.6191 294.459 52.6729 294.71 52.7803C294.961 52.8844 295.158 53.0553 295.301 53.293C295.444 53.5306 295.516 53.8464 295.516 54.2402V56.8477C295.516 57.0234 295.529 57.2106 295.555 57.4092C295.584 57.6077 295.625 57.7786 295.677 57.9219V58H294.783C294.741 57.8958 294.708 57.7575 294.686 57.585C294.663 57.4092 294.651 57.2464 294.651 57.0967ZM294.788 54.7969L294.798 55.4316H294.197C293.992 55.4316 293.805 55.4544 293.636 55.5C293.47 55.5456 293.326 55.6123 293.206 55.7002C293.086 55.7848 292.993 55.8906 292.928 56.0176C292.866 56.1445 292.835 56.2894 292.835 56.4521C292.835 56.6637 292.864 56.833 292.923 56.96C292.981 57.0837 293.069 57.1732 293.187 57.2285C293.304 57.2839 293.452 57.3115 293.631 57.3115C293.849 57.3115 294.041 57.2611 294.207 57.1602C294.373 57.0592 294.502 56.9372 294.593 56.7939C294.687 56.6507 294.731 56.5173 294.725 56.3936L294.915 56.7988C294.902 56.9258 294.86 57.0641 294.788 57.2139C294.72 57.3604 294.624 57.502 294.5 57.6387C294.376 57.7721 294.23 57.8828 294.061 57.9707C293.895 58.0553 293.707 58.0977 293.499 58.0977C293.193 58.0977 292.924 58.0391 292.693 57.9219C292.465 57.8047 292.288 57.6322 292.161 57.4043C292.034 57.1764 291.971 56.8949 291.971 56.5596C291.971 56.3057 292.015 56.0713 292.103 55.8564C292.19 55.6416 292.321 55.4561 292.493 55.2998C292.666 55.1403 292.882 55.0166 293.143 54.9287C293.406 54.8408 293.711 54.7969 294.056 54.7969H294.788ZM298.787 52.7168V53.4102H296.321V52.7168H298.787ZM297.127 51.4326H297.991V56.6914C297.991 56.8704 298.012 57.0055 298.055 57.0967C298.1 57.1878 298.157 57.248 298.226 57.2773C298.294 57.3066 298.367 57.3213 298.445 57.3213C298.504 57.3213 298.569 57.3148 298.641 57.3018C298.712 57.2855 298.761 57.2725 298.787 57.2627L298.782 58C298.724 58.0228 298.646 58.0439 298.548 58.0635C298.45 58.0863 298.326 58.0977 298.177 58.0977C297.991 58.0977 297.819 58.0537 297.659 57.9658C297.5 57.8779 297.371 57.7314 297.273 57.5264C297.176 57.318 297.127 57.0381 297.127 56.6865V51.4326ZM302.405 57.0967V54.2305C302.405 54.0221 302.373 53.8545 302.308 53.7275C302.246 53.6006 302.151 53.5078 302.024 53.4492C301.901 53.3906 301.744 53.3613 301.556 53.3613C301.373 53.3613 301.215 53.3988 301.082 53.4736C300.952 53.5485 300.851 53.6478 300.779 53.7715C300.711 53.8952 300.677 54.0319 300.677 54.1816L299.812 54.1816C299.812 53.9928 299.853 53.8057 299.935 53.6201C300.019 53.4346 300.14 53.2669 300.296 53.1172C300.452 52.9642 300.639 52.8437 300.857 52.7559C301.079 52.6647 301.326 52.6191 301.6 52.6191C301.925 52.6191 302.213 52.6729 302.464 52.7803C302.715 52.8844 302.911 53.0553 303.055 53.293C303.198 53.5306 303.27 53.8464 303.27 54.2402V56.8477C303.27 57.0234 303.283 57.2106 303.309 57.4092C303.338 57.6077 303.379 57.7786 303.431 57.9219V58H302.537C302.495 57.8958 302.462 57.7575 302.439 57.585C302.417 57.4092 302.405 57.2464 302.405 57.0967ZM302.542 54.7969L302.552 55.4316H301.951C301.746 55.4316 301.559 55.4544 301.39 55.5C301.224 55.5456 301.08 55.6123 300.96 55.7002C300.84 55.7848 300.747 55.8906 300.682 56.0176C300.62 56.1445 300.589 56.2894 300.589 56.4521C300.589 56.6637 300.618 56.833 300.677 56.96C300.735 57.0837 300.823 57.1732 300.94 57.2285C301.058 57.2839 301.206 57.3115 301.385 57.3115C301.603 57.3115 301.795 57.2611 301.961 57.1602C302.127 57.0592 302.256 56.9372 302.347 56.7939C302.441 56.6507 302.485 56.5173 302.479 56.3936L302.669 56.7988C302.656 56.9258 302.614 57.0641 302.542 57.2139C302.474 57.3604 302.378 57.502 302.254 57.6387C302.13 57.7721 301.984 57.8828 301.814 57.9707C301.648 58.0553 301.461 58.0977 301.253 58.0977C300.947 58.0977 300.678 58.0391 300.447 57.9219C300.219 57.8047 300.042 57.6322 299.915 57.4043C299.788 57.1764 299.725 56.8949 299.725 56.5596C299.725 56.3057 299.769 56.0713 299.856 55.8564C299.944 55.6416 300.075 55.4561 300.247 55.2998C300.42 55.1403 300.636 55.0166 300.896 54.9287C301.16 54.8408 301.465 54.7969 301.81 54.7969H302.542ZM302.381 50.7002H303.113C303.113 50.9541 303.055 51.1803 302.938 51.3789C302.82 51.5742 302.653 51.7272 302.435 51.8379C302.216 51.9486 301.958 52.0039 301.658 52.0039C301.206 52.0039 300.848 51.8835 300.584 51.6426C300.324 51.3984 300.193 51.0843 300.193 50.7002H300.926C300.926 50.8923 300.981 51.0615 301.092 51.208C301.202 51.3545 301.391 51.4277 301.658 51.4277C301.919 51.4277 302.104 51.3545 302.215 51.208C302.326 51.0615 302.381 50.8923 302.381 50.7002Z" fill="#E0E0E9"/>
<path fill-rule="evenodd" clip-rule="evenodd" d="M278 16L211 16V14L278 14V16Z" fill="#D0CFD7"/>
<path fill-rule="evenodd" clip-rule="evenodd" d="M185 16L118 16V14L185 14V16Z" fill="url(#paint1_linear_1406_1609)"/>
<path fill-rule="evenodd" clip-rule="evenodd" d="M93 16L23 16V14L93 14V16Z" fill="url(#paint2_linear_1406_1609)"/>
<path fill-rule="evenodd" clip-rule="evenodd" d="M1.7612 6.17317C1 8.01088 1 10.3406 1 15C1 19.6594 1 21.9891 1.7612 23.8268C2.77614 26.2771 4.72288 28.2239 7.17317 29.2388C9.01088 30 11.3406 30 16 30C20.6594 30 22.9891 30 24.8268 29.2388C27.2771 28.2239 29.2239 26.2771 30.2388 23.8268C31 21.9891 31 19.6594 31 15C31 10.3406 31 8.01088 30.2388 6.17317C29.2239 3.72288 27.2771 1.77614 24.8268 0.761205C22.9891 0 20.6594 0 16 0C11.3406 0 9.01088 0 7.17317 0.761205C4.72288 1.77614 2.77614 3.72288 1.7612 6.17317ZM22.7071 11.7071C23.0976 11.3166 23.0976 10.6834 22.7071 10.2929C22.3166 9.90237 21.6834 9.90237 21.2929 10.2929L14 17.5858L10.7071 14.2929C10.3166 13.9024 9.68342 13.9024 9.29289 14.2929C8.90237 14.6834 8.90237 15.3166 9.29289 15.7071L13.2929 19.7071C13.4804 19.8946 13.7348 20 14 20C14.2652 20 14.5196 19.8946 14.7071 19.7071L22.7071 11.7071Z" fill="url(#paint3_linear_1406_1609)"/>
<path fill-rule="evenodd" clip-rule="evenodd" d="M92.7612 6.17317C92 8.01088 92 10.3406 92 15C92 19.6594 92 21.9891 92.7612 23.8268C93.7761 26.2771 95.7229 28.2239 98.1732 29.2388C100.011 30 102.341 30 107 30C111.659 30 113.989 30 115.827 29.2388C118.277 28.2239 120.224 26.2771 121.239 23.8268C122 21.9891 122 19.6594 122 15C122 10.3406 122 8.01088 121.239 6.17317C120.224 3.72288 118.277 1.77614 115.827 0.761205C113.989 0 111.659 0 107 0C102.341 0 100.011 0 98.1732 0.761205C95.7229 1.77614 93.7761 3.72288 92.7612 6.17317ZM113.707 11.7071C114.098 11.3166 114.098 10.6834 113.707 10.2929C113.317 9.90237 112.683 9.90237 112.293 10.2929L105 17.5858L101.707 14.2929C101.317 13.9024 100.683 13.9024 100.293 14.2929C99.9024 14.6834 99.9024 15.3166 100.293 15.7071L104.293 19.7071C104.48 19.8946 104.735 20 105 20C105.265 20 105.52 19.8946 105.707 19.7071L113.707 11.7071Z" fill="url(#paint4_linear_1406_1609)"/>
<path fill-rule="evenodd" clip-rule="evenodd" d="M183.761 6.17317C183 8.01088 183 10.3406 183 15C183 19.6594 183 21.9891 183.761 23.8268C184.776 26.2771 186.723 28.2239 189.173 29.2388C191.011 30 193.341 30 198 30C202.659 30 204.989 30 206.827 29.2388C209.277 28.2239 211.224 26.2771 212.239 23.8268C213 21.9891 213 19.6594 213 15C213 10.3406 213 8.01088 212.239 6.17317C211.224 3.72288 209.277 1.77614 206.827 0.761205C204.989 0 202.659 0 198 0C193.341 0 191.011 0 189.173 0.761205C186.723 1.77614 184.776 3.72288 183.761 6.17317ZM204.707 11.7071C205.098 11.3166 205.098 10.6834 204.707 10.2929C204.317 9.90237 203.683 9.90237 203.293 10.2929L196 17.5858L192.707 14.2929C192.317 13.9024 191.683 13.9024 191.293 14.2929C190.902 14.6834 190.902 15.3166 191.293 15.7071L195.293 19.7071C195.48 19.8946 195.735 20 196 20C196.265 20 196.52 19.8946 196.707 19.7071L204.707 11.7071Z" fill="url(#paint5_linear_1406_1609)"/>
<path fill-rule="evenodd" clip-rule="evenodd" d="M274.761 6.17317C274 8.01088 274 10.3406 274 15C274 19.6594 274 21.9891 274.761 23.8268C275.776 26.2771 277.723 28.2239 280.173 29.2388C282.011 30 284.341 30 289 30C293.659 30 295.989 30 297.827 29.2388C300.277 28.2239 302.224 26.2771 303.239 23.8268C304 21.9891 304 19.6594 304 15C304 10.3406 304 8.01088 303.239 6.17317C302.224 3.72288 300.277 1.77614 297.827 0.761205C295.989 0 293.659 0 289 0C284.341 0 282.011 0 280.173 0.761205C277.723 1.77614 275.776 3.72288 274.761 6.17317ZM295.707 11.7071C296.098 11.3166 296.098 10.6834 295.707 10.2929C295.317 9.90237 294.683 9.90237 294.293 10.2929L287 17.5858L283.707 14.2929C283.317 13.9024 282.683 13.9024 282.293 14.2929C281.902 14.6834 281.902 15.3166 282.293 15.7071L286.293 19.7071C286.48 19.8946 286.735 20 287 20C287.265 20 287.52 19.8946 287.707 19.7071L295.707 11.7071Z" fill="#D0CFD7"/>
<defs>
<linearGradient id="paint0_linear_1406_1609" x1="16" y1="62" x2="16" y2="34" gradientUnits="userSpaceOnUse">
<stop stop-color="#5CCC94"/>
<stop offset="1" stop-color="#8CCAAE"/>
</linearGradient>
<linearGradient id="paint1_linear_1406_1609" x1="151.5" y1="16" x2="151.5" y2="14" gradientUnits="userSpaceOnUse">
<stop stop-color="#5CCC94"/>
<stop offset="1" stop-color="#8CCAAE"/>
</linearGradient>
<linearGradient id="paint2_linear_1406_1609" x1="58" y1="16" x2="58" y2="14" gradientUnits="userSpaceOnUse">
<stop stop-color="#5CCC94"/>
<stop offset="1" stop-color="#8CCAAE"/>
</linearGradient>
<linearGradient id="paint3_linear_1406_1609" x1="16" y1="30" x2="16" y2="1.58545e-07" gradientUnits="userSpaceOnUse">
<stop stop-color="#5CCC94"/>
<stop offset="1" stop-color="#8CCAAE"/>
</linearGradient>
<linearGradient id="paint4_linear_1406_1609" x1="107" y1="30" x2="107" y2="1.58545e-07" gradientUnits="userSpaceOnUse">
<stop stop-color="#5CCC94"/>
<stop offset="1" stop-color="#8CCAAE"/>
</linearGradient>
<linearGradient id="paint5_linear_1406_1609" x1="198" y1="30" x2="198" y2="1.58545e-07" gradientUnits="userSpaceOnUse">
<stop stop-color="#5CCC94"/>
<stop offset="1" stop-color="#8CCAAE"/>
</linearGradient>
</defs>
</svg>
