<svg width="241" height="68" viewBox="0 0 241 68" fill="none" xmlns="http://www.w3.org/2000/svg">
<path d="M5.49219 40.6748H4.04688L4.03711 39.918H5.37988C5.58171 39.918 5.76074 39.8724 5.91699 39.7812C6.07324 39.6901 6.19531 39.5599 6.2832 39.3906C6.37435 39.2181 6.41992 39.013 6.41992 38.7754C6.41992 38.515 6.38086 38.3034 6.30273 38.1406C6.22786 37.9746 6.1123 37.8542 5.95605 37.7793C5.80306 37.7012 5.60775 37.6621 5.37012 37.6621H4.2373L4.2373 44H3.33887L3.33887 36.8906H5.37012C5.67611 36.8906 5.94954 36.9281 6.19043 37.0029C6.43132 37.0745 6.63477 37.1885 6.80078 37.3447C6.97005 37.4977 7.09863 37.693 7.18652 37.9307C7.27441 38.1683 7.31836 38.4531 7.31836 38.7852C7.31836 39.0781 7.25163 39.3434 7.11816 39.5811C6.98796 39.8154 6.80566 40.0075 6.57129 40.1572C6.33691 40.307 6.06673 40.403 5.76074 40.4453L5.49219 40.6748ZM5.45801 44H3.67578L4.19824 43.2334H5.45801C5.69238 43.2334 5.89095 43.1813 6.05371 43.0771C6.21647 42.973 6.34017 42.8265 6.4248 42.6377C6.5127 42.4456 6.55664 42.2194 6.55664 41.959C6.55664 41.6953 6.52083 41.4674 6.44922 41.2754C6.3776 41.0833 6.26367 40.9352 6.10742 40.8311C5.95117 40.7269 5.74609 40.6748 5.49219 40.6748H4.33496L4.34473 39.918H5.90723L6.10742 40.1914C6.40039 40.2207 6.64616 40.3184 6.84473 40.4844C7.04655 40.6471 7.19792 40.8555 7.29883 41.1094C7.40299 41.3633 7.45508 41.6432 7.45508 41.9492C7.45508 42.3919 7.37207 42.7663 7.20605 43.0723C7.04329 43.375 6.81217 43.6061 6.5127 43.7656C6.21322 43.9219 5.86165 44 5.45801 44ZM9.54492 39.5469L9.54492 44H8.68066L8.68066 38.7168H9.51562L9.54492 39.5469ZM10.8584 38.6875L10.8633 39.5273C10.7917 39.5111 10.7266 39.5013 10.668 39.498C10.6126 39.4915 10.5475 39.4883 10.4727 39.4883C10.3099 39.4883 10.1667 39.5208 10.043 39.5859C9.92253 39.651 9.81836 39.7422 9.73047 39.8594C9.64258 39.9766 9.57259 40.1165 9.52051 40.2793C9.46842 40.4388 9.43262 40.6146 9.41309 40.8066L9.18848 40.9531C9.18848 40.6341 9.21289 40.3346 9.26172 40.0547C9.3138 39.7747 9.39355 39.5273 9.50098 39.3125C9.6084 39.0944 9.74512 38.9251 9.91113 38.8047C10.0804 38.681 10.2822 38.6191 10.5166 38.6191C10.5687 38.6191 10.6322 38.6273 10.707 38.6436C10.7852 38.6566 10.8356 38.6712 10.8584 38.6875ZM11.4492 41.6123V41.1094C11.4492 40.6992 11.5013 40.3395 11.6055 40.0303C11.7096 39.7178 11.8545 39.4574 12.04 39.249C12.2256 39.0407 12.4421 38.8844 12.6895 38.7803C12.9368 38.6729 13.2021 38.6191 13.4854 38.6191C13.7751 38.6191 14.0436 38.6729 14.291 38.7803C14.5384 38.8844 14.7549 39.0407 14.9404 39.249C15.1292 39.4574 15.2757 39.7178 15.3799 40.0303C15.484 40.3395 15.5361 40.6992 15.5361 41.1094V41.6123C15.5361 42.0225 15.484 42.3838 15.3799 42.6963C15.2757 43.0055 15.1309 43.2643 14.9453 43.4727C14.7598 43.681 14.5433 43.8372 14.2959 43.9414C14.0485 44.0456 13.7816 44.0977 13.4951 44.0977C13.2087 44.0977 12.9417 44.0456 12.6943 43.9414C12.4469 43.8372 12.2288 43.681 12.04 43.4727C11.8545 43.2643 11.7096 43.0055 11.6055 42.6963C11.5013 42.3838 11.4492 42.0225 11.4492 41.6123ZM12.3135 41.1094V41.6123C12.3135 41.902 12.3428 42.1559 12.4014 42.374C12.46 42.5921 12.543 42.7744 12.6504 42.9209C12.7578 43.0674 12.8831 43.1781 13.0264 43.2529C13.1696 43.3245 13.3258 43.3604 13.4951 43.3604C13.6904 43.3604 13.8613 43.3245 14.0078 43.2529C14.1576 43.1781 14.2813 43.0674 14.3789 42.9209C14.4766 42.7744 14.5498 42.5921 14.5986 42.374C14.6475 42.1559 14.6719 41.902 14.6719 41.6123V41.1094C14.6719 40.8197 14.6426 40.5674 14.584 40.3525C14.5254 40.1344 14.4424 39.9521 14.335 39.8057C14.2275 39.6559 14.1006 39.5452 13.9541 39.4736C13.8109 39.3988 13.6546 39.3613 13.4854 39.3613C13.3193 39.3613 13.1647 39.3988 13.0215 39.4736C12.8783 39.5452 12.7529 39.6559 12.6455 39.8057C12.5413 39.9521 12.46 40.1344 12.4014 40.3525C12.3428 40.5674 12.3135 40.8197 12.3135 41.1094ZM16.6689 38.7168H17.5283V44.6299C17.5283 44.9521 17.486 45.2256 17.4014 45.4502C17.32 45.6748 17.193 45.8441 17.0205 45.958C16.8512 46.0752 16.6348 46.1338 16.3711 46.1338C16.2995 46.1338 16.2165 46.1257 16.1221 46.1094C16.0309 46.0931 15.9528 46.0736 15.8877 46.0508V45.3232C15.943 45.3363 16.0033 45.346 16.0684 45.3525C16.1335 45.3623 16.1872 45.3672 16.2295 45.3672C16.3239 45.3672 16.4036 45.3428 16.4688 45.2939C16.5339 45.2451 16.5827 45.167 16.6152 45.0596C16.651 44.9521 16.6689 44.8089 16.6689 44.6299V38.7168ZM16.5908 37.3154C16.5908 37.1689 16.6315 37.0452 16.7129 36.9443C16.7975 36.8434 16.9196 36.793 17.0791 36.793C17.2419 36.793 17.3639 36.8434 17.4453 36.9443C17.5299 37.0452 17.5723 37.1689 17.5723 37.3154C17.5723 37.4554 17.5299 37.5758 17.4453 37.6768C17.3639 37.7744 17.2419 37.8232 17.0791 37.8232C16.9196 37.8232 16.7975 37.7744 16.7129 37.6768C16.6315 37.5758 16.5908 37.4554 16.5908 37.3154ZM22.0547 39.5469V44H21.1904V38.7168H22.0254L22.0547 39.5469ZM23.3682 38.6875L23.373 39.5273C23.3014 39.5111 23.2363 39.5013 23.1777 39.498C23.1224 39.4915 23.0573 39.4883 22.9824 39.4883C22.8197 39.4883 22.6764 39.5208 22.5527 39.5859C22.4323 39.651 22.3281 39.7422 22.2402 39.8594C22.1523 39.9766 22.0824 40.1165 22.0303 40.2793C21.9782 40.4388 21.9424 40.6146 21.9229 40.8066L21.6982 40.9531C21.6982 40.6341 21.7227 40.3346 21.7715 40.0547C21.8236 39.7747 21.9033 39.5273 22.0107 39.3125C22.1182 39.0944 22.2549 38.9251 22.4209 38.8047C22.5902 38.681 22.792 38.6191 23.0264 38.6191C23.0785 38.6191 23.1419 38.6273 23.2168 38.6436C23.2949 38.6566 23.3454 38.6712 23.3682 38.6875ZM26.0293 44.0977C25.7135 44.0977 25.4287 44.0505 25.1748 43.9561C24.9209 43.8617 24.7044 43.7184 24.5254 43.5264C24.3464 43.3311 24.2096 43.0853 24.1152 42.7891C24.0208 42.4928 23.9736 42.1429 23.9736 41.7393V41.1436C23.9736 40.6781 24.0273 40.2842 24.1348 39.9619C24.2454 39.6396 24.3936 39.3809 24.5791 39.1855C24.7646 38.987 24.9746 38.8437 25.209 38.7559C25.4434 38.6647 25.6842 38.6191 25.9316 38.6191C26.2637 38.6191 26.5469 38.6729 26.7812 38.7803C27.0156 38.8877 27.2061 39.0472 27.3525 39.2588C27.499 39.4704 27.6064 39.7308 27.6748 40.04C27.7464 40.3493 27.7822 40.7057 27.7822 41.1094V41.6123L24.4814 41.6123V40.875L26.918 40.875V40.7529C26.9049 40.4795 26.8675 40.2386 26.8057 40.0303C26.7471 39.8219 26.6494 39.6592 26.5127 39.542C26.376 39.4215 26.1823 39.3613 25.9316 39.3613C25.7721 39.3613 25.624 39.389 25.4873 39.4443C25.3538 39.4964 25.2383 39.5892 25.1406 39.7227C25.0462 39.8529 24.9714 40.0335 24.916 40.2646C24.8639 40.4958 24.8379 40.7887 24.8379 41.1436V41.7393C24.8379 42.0225 24.8639 42.2666 24.916 42.4717C24.9714 42.6735 25.0511 42.8411 25.1553 42.9746C25.2627 43.1048 25.3929 43.2025 25.5459 43.2676C25.7021 43.3294 25.8796 43.3604 26.0781 43.3604C26.3678 43.3604 26.6071 43.305 26.7959 43.1943C26.9847 43.0804 27.1491 42.9355 27.2891 42.7598L27.7432 43.3018C27.6488 43.4352 27.5251 43.5638 27.3721 43.6875C27.2223 43.8079 27.0368 43.9072 26.8154 43.9854C26.5973 44.0602 26.3353 44.0977 26.0293 44.0977ZM31.6885 38.7168H32.4648V44.0439C32.4648 44.5094 32.3835 44.8936 32.2207 45.1963C32.0612 45.499 31.8382 45.722 31.5518 45.8652C31.2653 46.0117 30.9349 46.085 30.5605 46.085C30.4271 46.085 30.2594 46.0605 30.0576 46.0117C29.8558 45.9629 29.654 45.888 29.4521 45.7871C29.2503 45.6895 29.0843 45.5658 28.9541 45.416L29.3105 44.8154C29.4961 45.0042 29.693 45.1393 29.9014 45.2207C30.1097 45.3021 30.3083 45.3428 30.4971 45.3428C30.7217 45.3428 30.917 45.3021 31.083 45.2207C31.249 45.1393 31.3776 45.0059 31.4688 44.8203C31.5599 44.638 31.6055 44.3939 31.6055 44.0879V39.8789L31.6885 38.7168ZM28.6514 41.6123V41.1191C28.6514 40.6829 28.6921 40.3086 28.7734 39.9961C28.8548 39.6803 28.972 39.4215 29.125 39.2197C29.2812 39.0146 29.4684 38.8633 29.6865 38.7656C29.9046 38.668 30.1488 38.6191 30.4189 38.6191C30.6924 38.6191 30.9284 38.6745 31.127 38.7852C31.3255 38.8958 31.4899 39.057 31.6201 39.2686C31.7536 39.4769 31.8577 39.7308 31.9326 40.0303C32.0107 40.3265 32.0645 40.6618 32.0938 41.0361V41.6953C32.0645 42.0664 32.0107 42.4001 31.9326 42.6963C31.8577 42.9925 31.752 43.2448 31.6152 43.4531C31.4818 43.6615 31.3158 43.821 31.1172 43.9316C30.9186 44.0423 30.6826 44.0977 30.4092 44.0977C30.1423 44.0977 29.9014 44.0472 29.6865 43.9463C29.4717 43.8421 29.2861 43.6875 29.1299 43.4824C28.9769 43.2741 28.8581 43.0153 28.7734 42.7061C28.6921 42.3936 28.6514 42.029 28.6514 41.6123ZM29.5156 41.1191V41.6123C29.5156 41.9053 29.5368 42.1608 29.5791 42.3789C29.6214 42.5937 29.6865 42.7728 29.7744 42.916C29.8656 43.056 29.9811 43.1602 30.1211 43.2285C30.2643 43.2969 30.4352 43.3311 30.6338 43.3311C30.8747 43.3311 31.0716 43.2725 31.2246 43.1553C31.3776 43.0381 31.4997 42.8835 31.5908 42.6914C31.6852 42.4961 31.7601 42.2861 31.8154 42.0615V40.6748C31.7829 40.5088 31.7357 40.3493 31.6738 40.1963C31.6152 40.04 31.5387 39.9017 31.4443 39.7812C31.3499 39.6576 31.236 39.5599 31.1025 39.4883C30.9723 39.4167 30.8193 39.3809 30.6436 39.3809C30.445 39.3809 30.2741 39.4167 30.1309 39.4883C29.9876 39.5599 29.8704 39.6673 29.7793 39.8105C29.6882 39.9538 29.6214 40.1344 29.5791 40.3525C29.5368 40.5706 29.5156 40.8262 29.5156 41.1191ZM34.6865 38.7168V44H33.8271V38.7168H34.6865ZM33.7783 37.3154C33.7783 37.1689 33.819 37.0452 33.9004 36.9443C33.9818 36.8434 34.1038 36.793 34.2666 36.793C34.4294 36.793 34.5514 36.8434 34.6328 36.9443C34.7174 37.0452 34.7598 37.1689 34.7598 37.3154C34.7598 37.4554 34.7174 37.5758 34.6328 37.6768C34.5514 37.7744 34.4294 37.8232 34.2666 37.8232C34.1038 37.8232 33.9818 37.7744 33.9004 37.6768C33.819 37.5758 33.7783 37.4554 33.7783 37.3154ZM38.6172 42.6475C38.6172 42.514 38.5846 42.3968 38.5195 42.2959C38.4544 42.195 38.347 42.0973 38.1973 42.0029C38.0508 41.9085 37.8522 41.8076 37.6016 41.7002C37.3574 41.5993 37.1377 41.5 36.9424 41.4023C36.7503 41.3014 36.5876 41.1924 36.4541 41.0752C36.3206 40.958 36.2181 40.8229 36.1465 40.6699C36.0781 40.5137 36.0439 40.3298 36.0439 40.1182C36.0439 39.9066 36.083 39.7113 36.1611 39.5322C36.2425 39.3499 36.3564 39.1904 36.5029 39.0537C36.6494 38.917 36.8252 38.8112 37.0303 38.7363C37.2354 38.6582 37.4648 38.6191 37.7188 38.6191C38.0801 38.6191 38.3877 38.6891 38.6416 38.8291C38.8955 38.9691 39.0892 39.1611 39.2227 39.4053C39.3594 39.6462 39.4277 39.918 39.4277 40.2207H38.5684C38.5684 40.0742 38.5358 39.9359 38.4707 39.8057C38.4056 39.6755 38.3096 39.5697 38.1826 39.4883C38.0557 39.4036 37.901 39.3613 37.7188 39.3613C37.5267 39.3613 37.3704 39.3955 37.25 39.4639C37.1296 39.5322 37.0417 39.6217 36.9863 39.7324C36.9342 39.8398 36.9082 39.9587 36.9082 40.0889C36.9082 40.1865 36.9212 40.2712 36.9473 40.3428C36.9766 40.4111 37.0254 40.4762 37.0938 40.5381C37.1621 40.5967 37.2549 40.6585 37.3721 40.7236C37.4925 40.7855 37.6455 40.8571 37.8311 40.9385C38.1891 41.0785 38.4902 41.2201 38.7344 41.3633C38.9785 41.5065 39.1641 41.6742 39.291 41.8662C39.418 42.0583 39.4814 42.2959 39.4814 42.5791C39.4814 42.8102 39.4391 43.0202 39.3545 43.209C39.2731 43.3945 39.1559 43.554 39.0029 43.6875C38.8499 43.821 38.666 43.9235 38.4512 43.9951C38.2396 44.0635 38.002 44.0977 37.7383 44.0977C37.3411 44.0977 37.0042 44.0195 36.7275 43.8633C36.4541 43.7038 36.2458 43.4971 36.1025 43.2432C35.9626 42.986 35.8926 42.7109 35.8926 42.418H36.7568C36.7666 42.6654 36.8219 42.8574 36.9229 42.9941C37.027 43.1309 37.1523 43.2253 37.2988 43.2773C37.4453 43.3294 37.5918 43.3555 37.7383 43.3555C37.9303 43.3555 38.0915 43.3278 38.2217 43.2725C38.3519 43.2139 38.4495 43.1309 38.5146 43.0234C38.583 42.916 38.6172 42.7907 38.6172 42.6475ZM42.543 38.7168V39.4102H40.0771V38.7168H42.543ZM40.8828 37.4326H41.7471V42.6914C41.7471 42.8704 41.7682 43.0055 41.8105 43.0967C41.8561 43.1878 41.9131 43.248 41.9814 43.2773C42.0498 43.3066 42.123 43.3213 42.2012 43.3213C42.2598 43.3213 42.3249 43.3148 42.3965 43.3018C42.4681 43.2855 42.5169 43.2725 42.543 43.2627L42.5381 44C42.4795 44.0228 42.4014 44.0439 42.3037 44.0635C42.2061 44.0863 42.0824 44.0977 41.9326 44.0977C41.7471 44.0977 41.5745 44.0537 41.415 43.9658C41.2555 43.8779 41.127 43.7314 41.0293 43.5264C40.9316 43.318 40.8828 43.0381 40.8828 42.6865V37.4326ZM46.1611 43.0967V40.2305C46.1611 40.0221 46.1286 39.8545 46.0635 39.7275C46.0016 39.6006 45.9072 39.5078 45.7803 39.4492C45.6566 39.3906 45.5003 39.3613 45.3115 39.3613C45.1292 39.3613 44.9714 39.3988 44.8379 39.4736C44.7077 39.5485 44.6068 39.6478 44.5352 39.7715C44.4668 39.8952 44.4326 40.0319 44.4326 40.1816H43.5684C43.5684 39.9928 43.609 39.8057 43.6904 39.6201C43.7751 39.4346 43.8955 39.2669 44.0518 39.1172C44.208 38.9642 44.3952 38.8437 44.6133 38.7559C44.8346 38.6647 45.082 38.6191 45.3555 38.6191C45.681 38.6191 45.9691 38.6729 46.2197 38.7803C46.4704 38.8844 46.6673 39.0553 46.8105 39.293C46.9538 39.5306 47.0254 39.8464 47.0254 40.2402V42.8477C47.0254 43.0234 47.0384 43.2106 47.0645 43.4092C47.0938 43.6077 47.1344 43.7786 47.1865 43.9219V44H46.293C46.2507 43.8958 46.2181 43.7575 46.1953 43.585C46.1725 43.4092 46.1611 43.2464 46.1611 43.0967ZM46.2979 40.7969L46.3076 41.4316H45.707C45.502 41.4316 45.3148 41.4544 45.1455 41.5C44.9795 41.5456 44.8363 41.6123 44.7158 41.7002C44.5954 41.7848 44.5026 41.8906 44.4375 42.0176C44.3757 42.1445 44.3447 42.2894 44.3447 42.4521C44.3447 42.6637 44.374 42.833 44.4326 42.96C44.4912 43.0837 44.5791 43.1732 44.6963 43.2285C44.8135 43.2839 44.9616 43.3115 45.1406 43.3115C45.3587 43.3115 45.5508 43.2611 45.7168 43.1602C45.8828 43.0592 46.0114 42.9372 46.1025 42.7939C46.1969 42.6507 46.2409 42.5173 46.2344 42.3936L46.4248 42.7988C46.4118 42.9258 46.3695 43.0641 46.2979 43.2139C46.2295 43.3604 46.1335 43.502 46.0098 43.6387C45.8861 43.7721 45.7396 43.8828 45.5703 43.9707C45.4043 44.0553 45.2171 44.0977 45.0088 44.0977C44.7028 44.0977 44.4342 44.0391 44.2031 43.9219C43.9753 43.8047 43.7979 43.6322 43.6709 43.4043C43.5439 43.1764 43.4805 42.8949 43.4805 42.5596C43.4805 42.3057 43.5244 42.0713 43.6123 41.8564C43.7002 41.6416 43.8304 41.4561 44.0029 41.2998C44.1755 41.1403 44.3919 41.0166 44.6523 40.9287C44.916 40.8408 45.2204 40.7969 45.5654 40.7969H46.2979ZM49.2324 39.5469V44H48.3682V38.7168H49.2031L49.2324 39.5469ZM50.5459 38.6875L50.5508 39.5273C50.4792 39.5111 50.4141 39.5013 50.3555 39.498C50.3001 39.4915 50.235 39.4883 50.1602 39.4883C49.9974 39.4883 49.8542 39.5208 49.7305 39.5859C49.61 39.651 49.5059 39.7422 49.418 39.8594C49.3301 39.9766 49.2601 40.1165 49.208 40.2793C49.1559 40.4388 49.1201 40.6146 49.1006 40.8066L48.876 40.9531C48.876 40.6341 48.9004 40.3346 48.9492 40.0547C49.0013 39.7747 49.0811 39.5273 49.1885 39.3125C49.2959 39.0944 49.4326 38.9251 49.5986 38.8047C49.7679 38.681 49.9697 38.6191 50.2041 38.6191C50.2562 38.6191 50.3197 38.6273 50.3945 38.6436C50.4727 38.6566 50.5231 38.6712 50.5459 38.6875ZM53.9785 42.6475C53.9785 42.514 53.946 42.3968 53.8809 42.2959C53.8158 42.195 53.7083 42.0973 53.5586 42.0029C53.4121 41.9085 53.2135 41.8076 52.9629 41.7002C52.7188 41.5993 52.499 41.5 52.3037 41.4023C52.1117 41.3014 51.9489 41.1924 51.8154 41.0752C51.682 40.958 51.5794 40.8229 51.5078 40.6699C51.4395 40.5137 51.4053 40.3298 51.4053 40.1182C51.4053 39.9066 51.4443 39.7113 51.5225 39.5322C51.6038 39.3499 51.7178 39.1904 51.8643 39.0537C52.0107 38.917 52.1865 38.8112 52.3916 38.7363C52.5967 38.6582 52.8262 38.6191 53.0801 38.6191C53.4414 38.6191 53.749 38.6891 54.0029 38.8291C54.2568 38.9691 54.4505 39.1611 54.584 39.4053C54.7207 39.6462 54.7891 39.918 54.7891 40.2207H53.9297C53.9297 40.0742 53.8971 39.9359 53.832 39.8057C53.7669 39.6755 53.6709 39.5697 53.5439 39.4883C53.417 39.4036 53.2624 39.3613 53.0801 39.3613C52.888 39.3613 52.7318 39.3955 52.6113 39.4639C52.4909 39.5322 52.403 39.6217 52.3477 39.7324C52.2956 39.8398 52.2695 39.9587 52.2695 40.0889C52.2695 40.1865 52.2826 40.2712 52.3086 40.3428C52.3379 40.4111 52.3867 40.4762 52.4551 40.5381C52.5234 40.5967 52.6162 40.6585 52.7334 40.7236C52.8538 40.7855 53.0068 40.8571 53.1924 40.9385C53.5505 41.0785 53.8516 41.2201 54.0957 41.3633C54.3398 41.5065 54.5254 41.6742 54.6523 41.8662C54.7793 42.0583 54.8428 42.2959 54.8428 42.5791C54.8428 42.8102 54.8005 43.0202 54.7158 43.209C54.6344 43.3945 54.5173 43.554 54.3643 43.6875C54.2113 43.821 54.0273 43.9235 53.8125 43.9951C53.6009 44.0635 53.3633 44.0977 53.0996 44.0977C52.7025 44.0977 52.3656 44.0195 52.0889 43.8633C51.8154 43.7038 51.6071 43.4971 51.4639 43.2432C51.3239 42.986 51.2539 42.7109 51.2539 42.418H52.1182C52.1279 42.6654 52.1833 42.8574 52.2842 42.9941C52.3883 43.1309 52.5137 43.2253 52.6602 43.2773C52.8066 43.3294 52.9531 43.3555 53.0996 43.3555C53.2917 43.3555 53.4528 43.3278 53.583 43.2725C53.7132 43.2139 53.8109 43.1309 53.876 43.0234C53.9443 42.916 53.9785 42.7907 53.9785 42.6475ZM56.8447 36.5V44H55.9805V36.5H56.8447ZM59.5254 38.7168L57.6455 41.1826L56.4834 42.5205L56.4248 41.5586L57.2256 40.4551L58.4854 38.7168H59.5254ZM58.7344 44L57.25 41.4805L57.6943 40.6748L59.7402 44H58.7344ZM62.2793 44.0977C61.9635 44.0977 61.6787 44.0505 61.4248 43.9561C61.1709 43.8617 60.9544 43.7184 60.7754 43.5264C60.5964 43.3311 60.4596 43.0853 60.3652 42.7891C60.2708 42.4928 60.2236 42.1429 60.2236 41.7393V41.1436C60.2236 40.6781 60.2773 40.2842 60.3848 39.9619C60.4954 39.6396 60.6436 39.3809 60.8291 39.1855C61.0146 38.987 61.2246 38.8437 61.459 38.7559C61.6934 38.6647 61.9342 38.6191 62.1816 38.6191C62.5137 38.6191 62.7969 38.6729 63.0312 38.7803C63.2656 38.8877 63.4561 39.0472 63.6025 39.2588C63.749 39.4704 63.8564 39.7308 63.9248 40.04C63.9964 40.3493 64.0322 40.7057 64.0322 41.1094V41.6123L60.7314 41.6123V40.875H63.168V40.7529C63.1549 40.4795 63.1175 40.2386 63.0557 40.0303C62.9971 39.8219 62.8994 39.6592 62.7627 39.542C62.626 39.4215 62.4323 39.3613 62.1816 39.3613C62.0221 39.3613 61.874 39.389 61.7373 39.4443C61.6038 39.4964 61.4883 39.5892 61.3906 39.7227C61.2962 39.8529 61.2214 40.0335 61.166 40.2646C61.1139 40.4958 61.0879 40.7887 61.0879 41.1436V41.7393C61.0879 42.0225 61.1139 42.2666 61.166 42.4717C61.2214 42.6735 61.3011 42.8411 61.4053 42.9746C61.5127 43.1048 61.6429 43.2025 61.7959 43.2676C61.9521 43.3294 62.1296 43.3604 62.3281 43.3604C62.6178 43.3604 62.8571 43.305 63.0459 43.1943C63.2347 43.0804 63.3991 42.9355 63.5391 42.7598L63.9932 43.3018C63.8988 43.4352 63.7751 43.5638 63.6221 43.6875C63.4723 43.8079 63.2868 43.9072 63.0654 43.9854C62.8473 44.0602 62.5853 44.0977 62.2793 44.0977ZM20.7803 50.7324V57.0312H19.916V49.7168H20.7021L20.7803 50.7324ZM23.7344 52.1191V52.6123C23.7344 53.029 23.6953 53.3936 23.6172 53.7061C23.5423 54.0153 23.43 54.2741 23.2803 54.4824C23.1338 54.6875 22.9531 54.8421 22.7383 54.9463C22.5234 55.0472 22.2777 55.0977 22.001 55.0977C21.7243 55.0977 21.4834 55.0456 21.2783 54.9414C21.0765 54.834 20.9056 54.6794 20.7656 54.4775C20.6289 54.2757 20.5199 54.0332 20.4385 53.75C20.3604 53.4635 20.3066 53.1429 20.2773 52.7881V52.0361C20.3066 51.6618 20.3604 51.3265 20.4385 51.0303C20.5166 50.7308 20.624 50.4769 20.7607 50.2686C20.9007 50.057 21.0716 49.8958 21.2734 49.7852C21.4785 49.6745 21.7178 49.6191 21.9912 49.6191C22.2744 49.6191 22.5234 49.668 22.7383 49.7656C22.9564 49.8633 23.1387 50.0146 23.2852 50.2197C23.4349 50.4215 23.5472 50.6803 23.6221 50.9961C23.6969 51.3086 23.7344 51.6829 23.7344 52.1191ZM22.8701 52.6123V52.1191C22.8701 51.8262 22.8473 51.5706 22.8018 51.3525C22.7594 51.1344 22.6911 50.9538 22.5967 50.8105C22.5023 50.6673 22.3835 50.5599 22.2402 50.4883C22.097 50.4167 21.9245 50.3809 21.7227 50.3809C21.5501 50.3809 21.3971 50.4167 21.2637 50.4883C21.1335 50.5599 21.0212 50.6576 20.9268 50.7812C20.8324 50.9017 20.7542 51.04 20.6924 51.1963C20.6305 51.3493 20.585 51.5088 20.5557 51.6748V53.1543C20.611 53.3626 20.6842 53.5596 20.7754 53.7451C20.8665 53.9274 20.9886 54.0755 21.1416 54.1895C21.2979 54.3034 21.4948 54.3604 21.7324 54.3604C21.931 54.3604 22.1019 54.3245 22.2451 54.2529C22.3883 54.1813 22.5055 54.0739 22.5967 53.9307C22.6911 53.7842 22.7594 53.6019 22.8018 53.3838C22.8473 53.1624 22.8701 52.9053 22.8701 52.6123ZM25.7754 47.5V55H24.916V47.5H25.7754ZM26.9619 52.6123V52.1094C26.9619 51.6992 27.014 51.3395 27.1182 51.0303C27.2223 50.7178 27.3672 50.4574 27.5527 50.249C27.7383 50.0407 27.9548 49.8844 28.2021 49.7803C28.4495 49.6729 28.7148 49.6191 28.998 49.6191C29.2878 49.6191 29.5563 49.6729 29.8037 49.7803C30.0511 49.8844 30.2676 50.0407 30.4531 50.249C30.6419 50.4574 30.7884 50.7178 30.8926 51.0303C30.9967 51.3395 31.0488 51.6992 31.0488 52.1094V52.6123C31.0488 53.0225 30.9967 53.3838 30.8926 53.6963C30.7884 54.0055 30.6436 54.2643 30.458 54.4727C30.2725 54.681 30.056 54.8372 29.8086 54.9414C29.5612 55.0456 29.2943 55.0977 29.0078 55.0977C28.7214 55.0977 28.4544 55.0456 28.207 54.9414C27.9596 54.8372 27.7415 54.681 27.5527 54.4727C27.3672 54.2643 27.2223 54.0055 27.1182 53.6963C27.014 53.3838 26.9619 53.0225 26.9619 52.6123ZM27.8262 52.1094V52.6123C27.8262 52.902 27.8555 53.1559 27.9141 53.374C27.9727 53.5921 28.0557 53.7744 28.1631 53.9209C28.2705 54.0674 28.3958 54.1781 28.5391 54.2529C28.6823 54.3245 28.8385 54.3604 29.0078 54.3604C29.2031 54.3604 29.374 54.3245 29.5205 54.2529C29.6702 54.1781 29.7939 54.0674 29.8916 53.9209C29.9893 53.7744 30.0625 53.5921 30.1113 53.374C30.1602 53.1559 30.1846 52.902 30.1846 52.6123V52.1094C30.1846 51.8197 30.1553 51.5674 30.0967 51.3525C30.0381 51.1344 29.9551 50.9521 29.8477 50.8057C29.7402 50.6559 29.6133 50.5452 29.4668 50.4736C29.3236 50.3988 29.1673 50.3613 28.998 50.3613C28.832 50.3613 28.6774 50.3988 28.5342 50.4736C28.391 50.5452 28.2656 50.6559 28.1582 50.8057C28.054 50.9521 27.9727 51.1344 27.9141 51.3525C27.8555 51.5674 27.8262 51.8197 27.8262 52.1094ZM33.9932 54.3604C34.1657 54.3604 34.3219 54.3262 34.4619 54.2578C34.6051 54.1862 34.7223 54.0755 34.8135 53.9258C34.9046 53.7728 34.9567 53.5742 34.9697 53.3301H35.7803C35.7673 53.6816 35.6777 53.9909 35.5117 54.2578C35.349 54.5215 35.1341 54.7282 34.8672 54.8779C34.6035 55.0244 34.3122 55.0977 33.9932 55.0977C33.6514 55.0977 33.3535 55.0423 33.0996 54.9316C32.849 54.821 32.6406 54.6615 32.4746 54.4531C32.3118 54.2415 32.1898 53.986 32.1084 53.6865C32.027 53.3838 31.9863 53.0404 31.9863 52.6562V52.0605C31.9863 51.6764 32.027 51.3346 32.1084 51.0352C32.1898 50.7324 32.3118 50.4769 32.4746 50.2686C32.6406 50.057 32.849 49.8958 33.0996 49.7852C33.3535 49.6745 33.6514 49.6191 33.9932 49.6191C34.3512 49.6191 34.6605 49.6956 34.9209 49.8486C35.1846 49.9984 35.3896 50.2165 35.5361 50.5029C35.6859 50.7861 35.7673 51.1296 35.7803 51.5332H34.9697C34.9567 51.2728 34.9095 51.0563 34.8281 50.8838C34.7467 50.708 34.6361 50.5778 34.4961 50.4932C34.3561 50.4053 34.1885 50.3613 33.9932 50.3613C33.7653 50.3613 33.5765 50.402 33.4268 50.4834C33.2803 50.5615 33.1647 50.6755 33.0801 50.8252C32.9954 50.9749 32.9352 51.154 32.8994 51.3623C32.8669 51.5706 32.8506 51.8034 32.8506 52.0605V52.6562C32.8506 52.9134 32.8669 53.1478 32.8994 53.3594C32.9352 53.5677 32.9938 53.7467 33.0752 53.8965C33.1598 54.0462 33.277 54.1618 33.4268 54.2432C33.5765 54.3213 33.7653 54.3604 33.9932 54.3604ZM33.1924 47.5049L33.7783 48.335L34.3594 47.5049H35.1016V47.5537L34.0322 48.8916H33.5244L32.4697 47.5537V47.5049H33.1924ZM37.709 49.7168V55H36.8496V49.7168H37.709ZM36.8008 48.3154C36.8008 48.1689 36.8415 48.0452 36.9229 47.9443C37.0042 47.8434 37.1263 47.793 37.2891 47.793C37.4518 47.793 37.5739 47.8434 37.6553 47.9443C37.7399 48.0452 37.7822 48.1689 37.7822 48.3154C37.7822 48.4554 37.7399 48.5758 37.6553 48.6768C37.5739 48.7744 37.4518 48.8232 37.2891 48.8232C37.1263 48.8232 37.0042 48.7744 36.9229 48.6768C36.8415 48.5758 36.8008 48.4554 36.8008 48.3154ZM40.9072 54.3604C41.0798 54.3604 41.236 54.3262 41.376 54.2578C41.5192 54.1862 41.6364 54.0755 41.7275 53.9258C41.8187 53.7728 41.8708 53.5742 41.8838 53.3301H42.6943C42.6813 53.6816 42.5918 53.9909 42.4258 54.2578C42.263 54.5215 42.0482 54.7282 41.7812 54.8779C41.5176 55.0244 41.2262 55.0977 40.9072 55.0977C40.5654 55.0977 40.2676 55.0423 40.0137 54.9316C39.763 54.821 39.5547 54.6615 39.3887 54.4531C39.2259 54.2415 39.1038 53.986 39.0225 53.6865C38.9411 53.3838 38.9004 53.0404 38.9004 52.6562V52.0605C38.9004 51.6764 38.9411 51.3346 39.0225 51.0352C39.1038 50.7324 39.2259 50.4769 39.3887 50.2686C39.5547 50.057 39.763 49.8958 40.0137 49.7852C40.2676 49.6745 40.5654 49.6191 40.9072 49.6191C41.2653 49.6191 41.5745 49.6956 41.835 49.8486C42.0986 49.9984 42.3037 50.2165 42.4502 50.5029C42.5999 50.7861 42.6813 51.1296 42.6943 51.5332H41.8838C41.8708 51.2728 41.8236 51.0563 41.7422 50.8838C41.6608 50.708 41.5501 50.5778 41.4102 50.4932C41.2702 50.4053 41.1025 50.3613 40.9072 50.3613C40.6794 50.3613 40.4906 50.402 40.3408 50.4834C40.1943 50.5615 40.0788 50.6755 39.9941 50.8252C39.9095 50.9749 39.8493 51.154 39.8135 51.3623C39.7809 51.5706 39.7646 51.8034 39.7646 52.0605V52.6562C39.7646 52.9134 39.7809 53.1478 39.8135 53.3594C39.8493 53.5677 39.9079 53.7467 39.9893 53.8965C40.0739 54.0462 40.1911 54.1618 40.3408 54.2432C40.4906 54.3213 40.6794 54.3604 40.9072 54.3604ZM45.585 55.0977C45.2692 55.0977 44.9844 55.0505 44.7305 54.9561C44.4766 54.8617 44.2601 54.7184 44.0811 54.5264C43.902 54.3311 43.7653 54.0853 43.6709 53.7891C43.5765 53.4928 43.5293 53.1429 43.5293 52.7393V52.1436C43.5293 51.6781 43.583 51.2842 43.6904 50.9619C43.8011 50.6396 43.9492 50.3809 44.1348 50.1855C44.3203 49.987 44.5303 49.8437 44.7646 49.7559C44.999 49.6647 45.2399 49.6191 45.4873 49.6191C45.8193 49.6191 46.1025 49.6729 46.3369 49.7803C46.5713 49.8877 46.7617 50.0472 46.9082 50.2588C47.0547 50.4704 47.1621 50.7308 47.2305 51.04C47.3021 51.3493 47.3379 51.7057 47.3379 52.1094V52.6123H44.0371V51.875H46.4736V51.7529C46.4606 51.4795 46.4232 51.2386 46.3613 51.0303C46.3027 50.8219 46.2051 50.6592 46.0684 50.542C45.9316 50.4215 45.738 50.3613 45.4873 50.3613C45.3278 50.3613 45.1797 50.389 45.043 50.4443C44.9095 50.4964 44.7939 50.5892 44.6963 50.7227C44.6019 50.8529 44.527 51.0335 44.4717 51.2646C44.4196 51.4958 44.3936 51.7887 44.3936 52.1436V52.7393C44.3936 53.0225 44.4196 53.2666 44.4717 53.4717C44.527 53.6735 44.6068 53.8411 44.7109 53.9746C44.8184 54.1048 44.9486 54.2025 45.1016 54.2676C45.2578 54.3294 45.4352 54.3604 45.6338 54.3604C45.9235 54.3604 46.1628 54.305 46.3516 54.1943C46.5404 54.0804 46.7048 53.9355 46.8447 53.7598L47.2988 54.3018C47.2044 54.4352 47.0807 54.5638 46.9277 54.6875C46.778 54.8079 46.5924 54.9072 46.3711 54.9854C46.153 55.0602 45.891 55.0977 45.585 55.0977Z" fill="url(#paint0_linear_363_3330)"/>
<path d="M115.529 40.8906V48H114.626L111.779 42.5166V48H110.881V40.8906H111.779L114.641 46.3887V40.8906H115.529ZM119.553 47.0967V44.2305C119.553 44.0221 119.52 43.8545 119.455 43.7275C119.393 43.6006 119.299 43.5078 119.172 43.4492C119.048 43.3906 118.892 43.3613 118.703 43.3613C118.521 43.3613 118.363 43.3988 118.229 43.4736C118.099 43.5485 117.998 43.6478 117.927 43.7715C117.858 43.8952 117.824 44.0319 117.824 44.1816H116.96C116.96 43.9928 117.001 43.8057 117.082 43.6201C117.167 43.4346 117.287 43.2669 117.443 43.1172C117.6 42.9642 117.787 42.8438 118.005 42.7559C118.226 42.6647 118.474 42.6191 118.747 42.6191C119.073 42.6191 119.361 42.6729 119.611 42.7803C119.862 42.8844 120.059 43.0553 120.202 43.293C120.345 43.5306 120.417 43.8464 120.417 44.2402V46.8477C120.417 47.0234 120.43 47.2106 120.456 47.4092C120.485 47.6077 120.526 47.7786 120.578 47.9219V48H119.685C119.642 47.8958 119.61 47.7575 119.587 47.585C119.564 47.4092 119.553 47.2464 119.553 47.0967ZM119.689 44.7969L119.699 45.4316H119.099C118.894 45.4316 118.706 45.4544 118.537 45.5C118.371 45.5456 118.228 45.6123 118.107 45.7002C117.987 45.7848 117.894 45.8906 117.829 46.0176C117.767 46.1445 117.736 46.2894 117.736 46.4521C117.736 46.6637 117.766 46.833 117.824 46.96C117.883 47.0837 117.971 47.1732 118.088 47.2285C118.205 47.2839 118.353 47.3115 118.532 47.3115C118.75 47.3115 118.942 47.2611 119.108 47.1602C119.274 47.0592 119.403 46.9372 119.494 46.7939C119.589 46.6507 119.632 46.5173 119.626 46.3936L119.816 46.7988C119.803 46.9258 119.761 47.0641 119.689 47.2139C119.621 47.3604 119.525 47.502 119.401 47.6387C119.278 47.7721 119.131 47.8828 118.962 47.9707C118.796 48.0553 118.609 48.0977 118.4 48.0977C118.094 48.0977 117.826 48.0391 117.595 47.9219C117.367 47.8047 117.189 47.6322 117.062 47.4043C116.936 47.1764 116.872 46.8949 116.872 46.5596C116.872 46.3057 116.916 46.0713 117.004 45.8564C117.092 45.6416 117.222 45.4561 117.395 45.2998C117.567 45.1403 117.784 45.0166 118.044 44.9287C118.308 44.8408 118.612 44.7969 118.957 44.7969H119.689ZM122.624 43.7324V50.0312H121.76V42.7168H122.546L122.624 43.7324ZM125.578 45.1191V45.6123C125.578 46.029 125.539 46.3936 125.461 46.7061C125.386 47.0153 125.274 47.2741 125.124 47.4824C124.978 47.6875 124.797 47.8421 124.582 47.9463C124.367 48.0472 124.121 48.0977 123.845 48.0977C123.568 48.0977 123.327 48.0456 123.122 47.9414C122.92 47.834 122.749 47.6794 122.609 47.4775C122.473 47.2757 122.364 47.0332 122.282 46.75C122.204 46.4635 122.15 46.1429 122.121 45.7881V45.0361C122.15 44.6618 122.204 44.3265 122.282 44.0303C122.36 43.7308 122.468 43.4769 122.604 43.2686C122.744 43.057 122.915 42.8958 123.117 42.7852C123.322 42.6745 123.562 42.6191 123.835 42.6191C124.118 42.6191 124.367 42.668 124.582 42.7656C124.8 42.8633 124.982 43.0146 125.129 43.2197C125.279 43.4215 125.391 43.6803 125.466 43.9961C125.541 44.3086 125.578 44.6829 125.578 45.1191ZM124.714 45.6123V45.1191C124.714 44.8262 124.691 44.5706 124.646 44.3525C124.603 44.1344 124.535 43.9538 124.44 43.8105C124.346 43.6673 124.227 43.5599 124.084 43.4883C123.941 43.4167 123.768 43.3809 123.566 43.3809C123.394 43.3809 123.241 43.4167 123.107 43.4883C122.977 43.5599 122.865 43.6576 122.771 43.7812C122.676 43.9017 122.598 44.04 122.536 44.1963C122.474 44.3493 122.429 44.5088 122.399 44.6748V46.1543C122.455 46.3626 122.528 46.5596 122.619 46.7451C122.71 46.9274 122.832 47.0755 122.985 47.1895C123.142 47.3034 123.339 47.3604 123.576 47.3604C123.775 47.3604 123.946 47.3245 124.089 47.2529C124.232 47.1813 124.349 47.0739 124.44 46.9307C124.535 46.7842 124.603 46.6019 124.646 46.3838C124.691 46.1624 124.714 45.9053 124.714 45.6123ZM127.619 40.5V48H126.76V40.5H127.619ZM131.574 47.0967V44.2305C131.574 44.0221 131.542 43.8545 131.477 43.7275C131.415 43.6006 131.32 43.5078 131.193 43.4492C131.07 43.3906 130.913 43.3613 130.725 43.3613C130.542 43.3613 130.384 43.3988 130.251 43.4736C130.121 43.5485 130.02 43.6478 129.948 43.7715C129.88 43.8952 129.846 44.0319 129.846 44.1816H128.981C128.981 43.9928 129.022 43.8057 129.104 43.6201C129.188 43.4346 129.309 43.2669 129.465 43.1172C129.621 42.9642 129.808 42.8438 130.026 42.7559C130.248 42.6647 130.495 42.6191 130.769 42.6191C131.094 42.6191 131.382 42.6729 131.633 42.7803C131.883 42.8844 132.08 43.0553 132.224 43.293C132.367 43.5306 132.438 43.8464 132.438 44.2402V46.8477C132.438 47.0234 132.451 47.2106 132.478 47.4092C132.507 47.6077 132.548 47.7786 132.6 47.9219V48H131.706C131.664 47.8958 131.631 47.7575 131.608 47.585C131.586 47.4092 131.574 47.2464 131.574 47.0967ZM131.711 44.7969L131.721 45.4316H131.12C130.915 45.4316 130.728 45.4544 130.559 45.5C130.393 45.5456 130.249 45.6123 130.129 45.7002C130.008 45.7848 129.916 45.8906 129.851 46.0176C129.789 46.1445 129.758 46.2894 129.758 46.4521C129.758 46.6637 129.787 46.833 129.846 46.96C129.904 47.0837 129.992 47.1732 130.109 47.2285C130.227 47.2839 130.375 47.3115 130.554 47.3115C130.772 47.3115 130.964 47.2611 131.13 47.1602C131.296 47.0592 131.424 46.9372 131.516 46.7939C131.61 46.6507 131.654 46.5173 131.647 46.3936L131.838 46.7988C131.825 46.9258 131.783 47.0641 131.711 47.2139C131.643 47.3604 131.547 47.502 131.423 47.6387C131.299 47.7721 131.153 47.8828 130.983 47.9707C130.817 48.0553 130.63 48.0977 130.422 48.0977C130.116 48.0977 129.847 48.0391 129.616 47.9219C129.388 47.8047 129.211 47.6322 129.084 47.4043C128.957 47.1764 128.894 46.8949 128.894 46.5596C128.894 46.3057 128.938 46.0713 129.025 45.8564C129.113 45.6416 129.243 45.4561 129.416 45.2998C129.589 45.1403 129.805 45.0166 130.065 44.9287C130.329 44.8408 130.633 44.7969 130.979 44.7969H131.711ZM135.71 42.7168V43.4102H133.244V42.7168L135.71 42.7168ZM134.05 41.4326L134.914 41.4326V46.6914C134.914 46.8704 134.935 47.0055 134.978 47.0967C135.023 47.1878 135.08 47.248 135.148 47.2773C135.217 47.3066 135.29 47.3213 135.368 47.3213C135.427 47.3213 135.492 47.3148 135.563 47.3018C135.635 47.2855 135.684 47.2725 135.71 47.2627L135.705 48C135.646 48.0228 135.568 48.0439 135.471 48.0635C135.373 48.0863 135.249 48.0977 135.1 48.0977C134.914 48.0977 134.742 48.0537 134.582 47.9658C134.423 47.8779 134.294 47.7314 134.196 47.5264C134.099 47.318 134.05 47.0381 134.05 46.6865V41.4326ZM139.328 47.0967V44.2305C139.328 44.0221 139.296 43.8545 139.23 43.7275C139.169 43.6006 139.074 43.5078 138.947 43.4492C138.824 43.3906 138.667 43.3613 138.479 43.3613C138.296 43.3613 138.138 43.3988 138.005 43.4736C137.875 43.5485 137.774 43.6478 137.702 43.7715C137.634 43.8952 137.6 44.0319 137.6 44.1816H136.735C136.735 43.9928 136.776 43.8057 136.857 43.6201C136.942 43.4346 137.062 43.2669 137.219 43.1172C137.375 42.9642 137.562 42.8437 137.78 42.7559C138.002 42.6647 138.249 42.6191 138.522 42.6191C138.848 42.6191 139.136 42.6729 139.387 42.7803C139.637 42.8844 139.834 43.0553 139.978 43.293C140.121 43.5306 140.192 43.8464 140.192 44.2402V46.8477C140.192 47.0234 140.205 47.2106 140.231 47.4092C140.261 47.6077 140.301 47.7786 140.354 47.9219V48H139.46C139.418 47.8958 139.385 47.7575 139.362 47.585C139.34 47.4092 139.328 47.2464 139.328 47.0967ZM139.465 44.7969L139.475 45.4316H138.874C138.669 45.4316 138.482 45.4544 138.312 45.5C138.146 45.5456 138.003 45.6123 137.883 45.7002C137.762 45.7848 137.67 45.8906 137.604 46.0176C137.543 46.1445 137.512 46.2894 137.512 46.4521C137.512 46.6637 137.541 46.833 137.6 46.96C137.658 47.0837 137.746 47.1732 137.863 47.2285C137.98 47.2839 138.129 47.3115 138.308 47.3115C138.526 47.3115 138.718 47.2611 138.884 47.1602C139.05 47.0592 139.178 46.9372 139.27 46.7939C139.364 46.6507 139.408 46.5173 139.401 46.3936L139.592 46.7988C139.579 46.9258 139.536 47.0641 139.465 47.2139C139.396 47.3604 139.3 47.502 139.177 47.6387C139.053 47.7721 138.907 47.8828 138.737 47.9707C138.571 48.0553 138.384 48.0977 138.176 48.0977C137.87 48.0977 137.601 48.0391 137.37 47.9219C137.142 47.8047 136.965 47.6322 136.838 47.4043C136.711 47.1764 136.647 46.8949 136.647 46.5596C136.647 46.3057 136.691 46.0713 136.779 45.8564C136.867 45.6416 136.997 45.4561 137.17 45.2998C137.342 45.1403 137.559 45.0166 137.819 44.9287C138.083 44.8408 138.387 44.7969 138.732 44.7969H139.465Z" fill="#E0E0E9"/>
<path d="M200.09 41.2119H198.537V40.4453H200.09C200.383 40.4453 200.619 40.3867 200.798 40.2695C200.98 40.1523 201.112 39.9896 201.193 39.7812C201.278 39.5729 201.32 39.3353 201.32 39.0684C201.32 38.8242 201.278 38.5947 201.193 38.3799C201.112 38.165 200.98 37.9925 200.798 37.8623C200.619 37.7288 200.383 37.6621 200.09 37.6621H198.723V44H197.824V36.8906H200.09C200.549 36.8906 200.936 36.9834 201.252 37.1689C201.568 37.3545 201.807 37.6117 201.97 37.9404C202.136 38.266 202.219 38.6387 202.219 39.0586C202.219 39.5143 202.136 39.9033 201.97 40.2256C201.807 40.5479 201.568 40.7936 201.252 40.9629C200.936 41.1289 200.549 41.2119 200.09 41.2119ZM204.118 39.5469V44H203.254V38.7168H204.089L204.118 39.5469ZM205.432 38.6875L205.437 39.5273C205.365 39.5111 205.3 39.5013 205.241 39.498C205.186 39.4915 205.121 39.4883 205.046 39.4883C204.883 39.4883 204.74 39.5208 204.616 39.5859C204.496 39.651 204.392 39.7422 204.304 39.8594C204.216 39.9766 204.146 40.1165 204.094 40.2793C204.042 40.4388 204.006 40.6146 203.986 40.8066L203.762 40.9531C203.762 40.6341 203.786 40.3346 203.835 40.0547C203.887 39.7747 203.967 39.5273 204.074 39.3125C204.182 39.0944 204.318 38.9251 204.484 38.8047C204.654 38.681 204.855 38.6191 205.09 38.6191C205.142 38.6191 205.205 38.6273 205.28 38.6436C205.358 38.6566 205.409 38.6712 205.432 38.6875ZM206.022 41.6123V41.1094C206.022 40.6992 206.075 40.3395 206.179 40.0303C206.283 39.7178 206.428 39.4574 206.613 39.249C206.799 39.0407 207.015 38.8844 207.263 38.7803C207.51 38.6729 207.775 38.6191 208.059 38.6191C208.348 38.6191 208.617 38.6729 208.864 38.7803C209.112 38.8844 209.328 39.0407 209.514 39.249C209.702 39.4574 209.849 39.7178 209.953 40.0303C210.057 40.3395 210.109 40.6992 210.109 41.1094V41.6123C210.109 42.0225 210.057 42.3838 209.953 42.6963C209.849 43.0055 209.704 43.2643 209.519 43.4727C209.333 43.681 209.117 43.8372 208.869 43.9414C208.622 44.0456 208.355 44.0977 208.068 44.0977C207.782 44.0977 207.515 44.0456 207.268 43.9414C207.02 43.8372 206.802 43.681 206.613 43.4727C206.428 43.2643 206.283 43.0055 206.179 42.6963C206.075 42.3838 206.022 42.0225 206.022 41.6123ZM206.887 41.1094V41.6123C206.887 41.902 206.916 42.1559 206.975 42.374C207.033 42.5921 207.116 42.7744 207.224 42.9209C207.331 43.0674 207.456 43.1781 207.6 43.2529C207.743 43.3245 207.899 43.3604 208.068 43.3604C208.264 43.3604 208.435 43.3245 208.581 43.2529C208.731 43.1781 208.854 43.0674 208.952 42.9209C209.05 42.7744 209.123 42.5921 209.172 42.374C209.221 42.1559 209.245 41.902 209.245 41.6123V41.1094C209.245 40.8197 209.216 40.5674 209.157 40.3525C209.099 40.1344 209.016 39.9521 208.908 39.8057C208.801 39.6559 208.674 39.5452 208.527 39.4736C208.384 39.3988 208.228 39.3613 208.059 39.3613C207.893 39.3613 207.738 39.3988 207.595 39.4736C207.451 39.5452 207.326 39.6559 207.219 39.8057C207.115 39.9521 207.033 40.1344 206.975 40.3525C206.916 40.5674 206.887 40.8197 206.887 41.1094ZM212.512 43.1846L213.645 38.7168L214.523 38.7168L212.956 44H212.385L212.512 43.1846ZM211.599 38.7168L212.78 43.209L212.873 44H212.307L210.72 38.7168H211.599ZM215.441 38.7168H216.301V44.6299C216.301 44.9521 216.258 45.2256 216.174 45.4502C216.092 45.6748 215.965 45.8441 215.793 45.958C215.624 46.0752 215.407 46.1338 215.144 46.1338C215.072 46.1338 214.989 46.1257 214.895 46.1094C214.803 46.0931 214.725 46.0736 214.66 46.0508V45.3232C214.715 45.3363 214.776 45.346 214.841 45.3525C214.906 45.3623 214.96 45.3672 215.002 45.3672C215.096 45.3672 215.176 45.3428 215.241 45.2939C215.306 45.2451 215.355 45.167 215.388 45.0596C215.424 44.9521 215.441 44.8089 215.441 44.6299V38.7168ZM215.363 37.3154C215.363 37.1689 215.404 37.0452 215.485 36.9443C215.57 36.8434 215.692 36.793 215.852 36.793C216.014 36.793 216.136 36.8434 216.218 36.9443C216.302 37.0452 216.345 37.1689 216.345 37.3154C216.345 37.4554 216.302 37.5758 216.218 37.6768C216.136 37.7744 216.014 37.8232 215.852 37.8232C215.692 37.8232 215.57 37.7744 215.485 37.6768C215.404 37.5758 215.363 37.4554 215.363 37.3154ZM219.558 44.0977C219.242 44.0977 218.957 44.0505 218.703 43.9561C218.449 43.8617 218.233 43.7184 218.054 43.5264C217.875 43.3311 217.738 43.0853 217.644 42.7891C217.549 42.4928 217.502 42.1429 217.502 41.7393V41.1436C217.502 40.6781 217.556 40.2842 217.663 39.9619C217.774 39.6396 217.922 39.3809 218.107 39.1855C218.293 38.987 218.503 38.8437 218.737 38.7559C218.972 38.6647 219.213 38.6191 219.46 38.6191C219.792 38.6191 220.075 38.6729 220.31 38.7803C220.544 38.8877 220.734 39.0472 220.881 39.2588C221.027 39.4704 221.135 39.7308 221.203 40.04C221.275 40.3493 221.311 40.7057 221.311 41.1094V41.6123H218.01V40.875H220.446V40.7529C220.433 40.4795 220.396 40.2386 220.334 40.0303C220.275 39.8219 220.178 39.6592 220.041 39.542C219.904 39.4215 219.711 39.3613 219.46 39.3613C219.3 39.3613 219.152 39.389 219.016 39.4443C218.882 39.4964 218.767 39.5892 218.669 39.7227C218.575 39.8529 218.5 40.0335 218.444 40.2646C218.392 40.4958 218.366 40.7887 218.366 41.1436V41.7393C218.366 42.0225 218.392 42.2666 218.444 42.4717C218.5 42.6735 218.579 42.8411 218.684 42.9746C218.791 43.1048 218.921 43.2025 219.074 43.2676C219.23 43.3294 219.408 43.3604 219.606 43.3604C219.896 43.3604 220.135 43.305 220.324 43.1943C220.513 43.0804 220.677 42.9355 220.817 42.7598L221.271 43.3018C221.177 43.4352 221.053 43.5638 220.9 43.6875C220.751 43.8079 220.565 43.9072 220.344 43.9854C220.126 44.0602 219.864 44.0977 219.558 44.0977ZM223.22 39.5469V44H222.355V38.7168H223.19L223.22 39.5469ZM224.533 38.6875L224.538 39.5273C224.466 39.5111 224.401 39.5013 224.343 39.498C224.287 39.4915 224.222 39.4883 224.147 39.4883C223.985 39.4883 223.841 39.5208 223.718 39.5859C223.597 39.651 223.493 39.7422 223.405 39.8594C223.317 39.9766 223.247 40.1165 223.195 40.2793C223.143 40.4388 223.107 40.6146 223.088 40.8066L222.863 40.9531C222.863 40.6341 222.888 40.3346 222.937 40.0547C222.989 39.7747 223.068 39.5273 223.176 39.3125C223.283 39.0944 223.42 38.9251 223.586 38.8047C223.755 38.681 223.957 38.6191 224.191 38.6191C224.243 38.6191 224.307 38.6273 224.382 38.6436C224.46 38.6566 224.51 38.6712 224.533 38.6875ZM227.795 43.0967V40.2305C227.795 40.0221 227.762 39.8545 227.697 39.7275C227.635 39.6006 227.541 39.5078 227.414 39.4492C227.29 39.3906 227.134 39.3613 226.945 39.3613C226.763 39.3613 226.605 39.3988 226.472 39.4736C226.341 39.5485 226.241 39.6478 226.169 39.7715C226.101 39.8952 226.066 40.0319 226.066 40.1816H225.202C225.202 39.9928 225.243 39.8057 225.324 39.6201C225.409 39.4346 225.529 39.2669 225.686 39.1172C225.842 38.9642 226.029 38.8437 226.247 38.7559C226.468 38.6647 226.716 38.6191 226.989 38.6191C227.315 38.6191 227.603 38.6729 227.854 38.7803C228.104 38.8844 228.301 39.0553 228.444 39.293C228.588 39.5306 228.659 39.8464 228.659 40.2402V42.8477C228.659 43.0234 228.672 43.2106 228.698 43.4092C228.728 43.6077 228.768 43.7786 228.82 43.9219V44H227.927C227.884 43.8958 227.852 43.7575 227.829 43.585C227.806 43.4092 227.795 43.2464 227.795 43.0967ZM227.932 40.7969L227.941 41.4316H227.341C227.136 41.4316 226.949 41.4544 226.779 41.5C226.613 41.5456 226.47 41.6123 226.35 41.7002C226.229 41.7848 226.136 41.8906 226.071 42.0176C226.009 42.1445 225.979 42.2894 225.979 42.4521C225.979 42.6637 226.008 42.833 226.066 42.96C226.125 43.0837 226.213 43.1732 226.33 43.2285C226.447 43.2839 226.595 43.3115 226.774 43.3115C226.993 43.3115 227.185 43.2611 227.351 43.1602C227.517 43.0592 227.645 42.9372 227.736 42.7939C227.831 42.6507 227.875 42.5173 227.868 42.3936L228.059 42.7988C228.046 42.9258 228.003 43.0641 227.932 43.2139C227.863 43.3604 227.767 43.502 227.644 43.6387C227.52 43.7721 227.373 43.8828 227.204 43.9707C227.038 44.0553 226.851 44.0977 226.643 44.0977C226.337 44.0977 226.068 44.0391 225.837 43.9219C225.609 43.8047 225.432 43.6322 225.305 43.4043C225.178 43.1764 225.114 42.8949 225.114 42.5596C225.114 42.3057 225.158 42.0713 225.246 41.8564C225.334 41.6416 225.464 41.4561 225.637 41.2998C225.809 41.1403 226.026 41.0166 226.286 40.9287C226.55 40.8408 226.854 40.7969 227.199 40.7969H227.932ZM233.225 38.7168V44H232.365V38.7168H233.225ZM232.316 37.3154C232.316 37.1689 232.357 37.0452 232.438 36.9443C232.52 36.8434 232.642 36.793 232.805 36.793C232.967 36.793 233.09 36.8434 233.171 36.9443C233.256 37.0452 233.298 37.1689 233.298 37.3154C233.298 37.4554 233.256 37.5758 233.171 37.6768C233.09 37.7744 232.967 37.8232 232.805 37.8232C232.642 37.8232 232.52 37.7744 232.438 37.6768C232.357 37.5758 232.316 37.4554 232.316 37.3154ZM200.407 50.7324V57.0312H199.543V49.7168H200.329L200.407 50.7324ZM203.361 52.1191V52.6123C203.361 53.029 203.322 53.3936 203.244 53.7061C203.169 54.0153 203.057 54.2741 202.907 54.4824C202.761 54.6875 202.58 54.8421 202.365 54.9463C202.15 55.0472 201.905 55.0977 201.628 55.0977C201.351 55.0977 201.11 55.0456 200.905 54.9414C200.703 54.834 200.533 54.6794 200.393 54.4775C200.256 54.2757 200.147 54.0332 200.065 53.75C199.987 53.4635 199.934 53.1429 199.904 52.7881V52.0361C199.934 51.6618 199.987 51.3265 200.065 51.0303C200.144 50.7308 200.251 50.4769 200.388 50.2686C200.528 50.057 200.699 49.8958 200.9 49.7852C201.105 49.6745 201.345 49.6191 201.618 49.6191C201.901 49.6191 202.15 49.668 202.365 49.7656C202.583 49.8633 202.766 50.0146 202.912 50.2197C203.062 50.4215 203.174 50.6803 203.249 50.9961C203.324 51.3086 203.361 51.6829 203.361 52.1191ZM202.497 52.6123V52.1191C202.497 51.8262 202.474 51.5706 202.429 51.3525C202.386 51.1344 202.318 50.9538 202.224 50.8105C202.129 50.6673 202.01 50.5599 201.867 50.4883C201.724 50.4167 201.551 50.3809 201.35 50.3809C201.177 50.3809 201.024 50.4167 200.891 50.4883C200.76 50.5599 200.648 50.6576 200.554 50.7812C200.459 50.9017 200.381 51.04 200.319 51.1963C200.257 51.3493 200.212 51.5088 200.183 51.6748V53.1543C200.238 53.3626 200.311 53.5596 200.402 53.7451C200.493 53.9274 200.616 54.0755 200.769 54.1895C200.925 54.3034 201.122 54.3604 201.359 54.3604C201.558 54.3604 201.729 54.3245 201.872 54.2529C202.015 54.1813 202.132 54.0739 202.224 53.9307C202.318 53.7842 202.386 53.6019 202.429 53.3838C202.474 53.1624 202.497 52.9053 202.497 52.6123ZM205.402 47.5V55H204.543V47.5H205.402ZM209.357 54.0967V51.2305C209.357 51.0221 209.325 50.8545 209.26 50.7275C209.198 50.6006 209.104 50.5078 208.977 50.4492C208.853 50.3906 208.697 50.3613 208.508 50.3613C208.326 50.3613 208.168 50.3988 208.034 50.4736C207.904 50.5485 207.803 50.6478 207.731 50.7715C207.663 50.8952 207.629 51.0319 207.629 51.1816H206.765C206.765 50.9928 206.805 50.8057 206.887 50.6201C206.971 50.4346 207.092 50.2669 207.248 50.1172C207.404 49.9642 207.591 49.8438 207.81 49.7559C208.031 49.6647 208.278 49.6191 208.552 49.6191C208.877 49.6191 209.165 49.6729 209.416 49.7803C209.667 49.8844 209.864 50.0553 210.007 50.293C210.15 50.5306 210.222 50.8464 210.222 51.2402V53.8477C210.222 54.0234 210.235 54.2106 210.261 54.4092C210.29 54.6077 210.331 54.7786 210.383 54.9219V55H209.489C209.447 54.8958 209.414 54.7575 209.392 54.585C209.369 54.4092 209.357 54.2464 209.357 54.0967ZM209.494 51.7969L209.504 52.4316H208.903C208.698 52.4316 208.511 52.4544 208.342 52.5C208.176 52.5456 208.033 52.6123 207.912 52.7002C207.792 52.7848 207.699 52.8906 207.634 53.0176C207.572 53.1445 207.541 53.2894 207.541 53.4521C207.541 53.6637 207.57 53.833 207.629 53.96C207.688 54.0837 207.775 54.1732 207.893 54.2285C208.01 54.2839 208.158 54.3115 208.337 54.3115C208.555 54.3115 208.747 54.2611 208.913 54.1602C209.079 54.0592 209.208 53.9372 209.299 53.7939C209.393 53.6507 209.437 53.5173 209.431 53.3936L209.621 53.7988C209.608 53.9258 209.566 54.0641 209.494 54.2139C209.426 54.3604 209.33 54.502 209.206 54.6387C209.082 54.7721 208.936 54.8828 208.767 54.9707C208.601 55.0553 208.413 55.0977 208.205 55.0977C207.899 55.0977 207.631 55.0391 207.399 54.9219C207.172 54.8047 206.994 54.6322 206.867 54.4043C206.74 54.1764 206.677 53.8949 206.677 53.5596C206.677 53.3057 206.721 53.0713 206.809 52.8564C206.896 52.6416 207.027 52.4561 207.199 52.2998C207.372 52.1403 207.588 52.0166 207.849 51.9287C208.112 51.8408 208.417 51.7969 208.762 51.7969H209.494ZM213.396 54.3604C213.568 54.3604 213.724 54.3262 213.864 54.2578C214.007 54.1862 214.125 54.0755 214.216 53.9258C214.307 53.7728 214.359 53.5742 214.372 53.3301H215.183C215.17 53.6816 215.08 53.9909 214.914 54.2578C214.751 54.5215 214.536 54.7282 214.27 54.8779C214.006 55.0244 213.715 55.0977 213.396 55.0977C213.054 55.0977 212.756 55.0423 212.502 54.9316C212.251 54.821 212.043 54.6615 211.877 54.4531C211.714 54.2415 211.592 53.986 211.511 53.6865C211.429 53.3838 211.389 53.0404 211.389 52.6562V52.0605C211.389 51.6764 211.429 51.3346 211.511 51.0352C211.592 50.7324 211.714 50.4769 211.877 50.2686C212.043 50.057 212.251 49.8958 212.502 49.7852C212.756 49.6745 213.054 49.6191 213.396 49.6191C213.754 49.6191 214.063 49.6956 214.323 49.8486C214.587 49.9984 214.792 50.2165 214.938 50.5029C215.088 50.7861 215.17 51.1296 215.183 51.5332H214.372C214.359 51.2728 214.312 51.0563 214.23 50.8838C214.149 50.708 214.038 50.5778 213.898 50.4932C213.758 50.4053 213.591 50.3613 213.396 50.3613C213.168 50.3613 212.979 50.402 212.829 50.4834C212.683 50.5615 212.567 50.6755 212.482 50.8252C212.398 50.9749 212.338 51.154 212.302 51.3623C212.269 51.5706 212.253 51.8034 212.253 52.0605V52.6562C212.253 52.9134 212.269 53.1478 212.302 53.3594C212.338 53.5677 212.396 53.7467 212.478 53.8965C212.562 54.0462 212.679 54.1618 212.829 54.2432C212.979 54.3213 213.168 54.3604 213.396 54.3604ZM212.688 48.9355L213.635 47.5H214.724L213.415 48.9355H212.688ZM218.771 54.0967V51.2305C218.771 51.0221 218.739 50.8545 218.674 50.7275C218.612 50.6006 218.518 50.5078 218.391 50.4492C218.267 50.3906 218.111 50.3613 217.922 50.3613C217.74 50.3613 217.582 50.3988 217.448 50.4736C217.318 50.5485 217.217 50.6478 217.146 50.7715C217.077 50.8952 217.043 51.0319 217.043 51.1816H216.179C216.179 50.9928 216.219 50.8057 216.301 50.6201C216.385 50.4346 216.506 50.2669 216.662 50.1172C216.818 49.9642 217.006 49.8438 217.224 49.7559C217.445 49.6647 217.692 49.6191 217.966 49.6191C218.291 49.6191 218.579 49.6729 218.83 49.7803C219.081 49.8844 219.278 50.0553 219.421 50.293C219.564 50.5306 219.636 50.8464 219.636 51.2402V53.8477C219.636 54.0234 219.649 54.2106 219.675 54.4092C219.704 54.6077 219.745 54.7786 219.797 54.9219V55H218.903C218.861 54.8958 218.828 54.7575 218.806 54.585C218.783 54.4092 218.771 54.2464 218.771 54.0967ZM218.908 51.7969L218.918 52.4316H218.317C218.112 52.4316 217.925 52.4544 217.756 52.5C217.59 52.5456 217.447 52.6123 217.326 52.7002C217.206 52.7848 217.113 52.8906 217.048 53.0176C216.986 53.1445 216.955 53.2894 216.955 53.4521C216.955 53.6637 216.984 53.833 217.043 53.96C217.102 54.0837 217.189 54.1732 217.307 54.2285C217.424 54.2839 217.572 54.3115 217.751 54.3115C217.969 54.3115 218.161 54.2611 218.327 54.1602C218.493 54.0592 218.622 53.9372 218.713 53.7939C218.807 53.6507 218.851 53.5173 218.845 53.3936L219.035 53.7988C219.022 53.9258 218.98 54.0641 218.908 54.2139C218.84 54.3604 218.744 54.502 218.62 54.6387C218.496 54.7721 218.35 54.8828 218.181 54.9707C218.015 55.0553 217.827 55.0977 217.619 55.0977C217.313 55.0977 217.045 55.0391 216.813 54.9219C216.586 54.8047 216.408 54.6322 216.281 54.4043C216.154 54.1764 216.091 53.8949 216.091 53.5596C216.091 53.3057 216.135 53.0713 216.223 52.8564C216.311 52.6416 216.441 52.4561 216.613 52.2998C216.786 52.1403 217.002 52.0166 217.263 51.9287C217.526 51.8408 217.831 51.7969 218.176 51.7969H218.908ZM221.843 50.8447V55H220.979V49.7168H221.794L221.843 50.8447ZM221.633 52.1582L221.281 52.1436C221.278 51.7822 221.319 51.4486 221.403 51.1426C221.491 50.8333 221.615 50.5648 221.774 50.3369C221.937 50.109 222.131 49.9333 222.355 49.8096C222.58 49.6826 222.829 49.6191 223.103 49.6191C223.317 49.6191 223.513 49.6549 223.688 49.7266C223.864 49.7949 224.014 49.9056 224.138 50.0586C224.261 50.2116 224.356 50.4102 224.421 50.6543C224.489 50.8952 224.523 51.1898 224.523 51.5381V55L223.659 55V51.5283C223.659 51.2516 223.628 51.0303 223.566 50.8643C223.508 50.695 223.417 50.5729 223.293 50.498C223.173 50.4199 223.02 50.3809 222.834 50.3809C222.665 50.3809 222.507 50.4281 222.36 50.5225C222.214 50.6169 222.085 50.7471 221.975 50.9131C221.867 51.0791 221.783 51.2695 221.721 51.4844C221.662 51.696 221.633 51.9206 221.633 52.1582ZM225.842 49.7168H226.701V55.6299C226.701 55.9521 226.659 56.2256 226.574 56.4502C226.493 56.6748 226.366 56.8441 226.193 56.958C226.024 57.0752 225.808 57.1338 225.544 57.1338C225.472 57.1338 225.389 57.1257 225.295 57.1094C225.204 57.0931 225.126 57.0736 225.061 57.0508V56.3232C225.116 56.3363 225.176 56.346 225.241 56.3525C225.306 56.3623 225.36 56.3672 225.402 56.3672C225.497 56.3672 225.576 56.3428 225.642 56.2939C225.707 56.2451 225.756 56.167 225.788 56.0596C225.824 55.9521 225.842 55.8089 225.842 55.6299V49.7168ZM225.764 48.3154C225.764 48.1689 225.804 48.0452 225.886 47.9443C225.97 47.8434 226.092 47.793 226.252 47.793C226.415 47.793 226.537 47.8434 226.618 47.9443C226.703 48.0452 226.745 48.1689 226.745 48.3154C226.745 48.4554 226.703 48.5758 226.618 48.6768C226.537 48.7744 226.415 48.8232 226.252 48.8232C226.092 48.8232 225.97 48.7744 225.886 48.6768C225.804 48.5758 225.764 48.4554 225.764 48.3154ZM229.958 55.0977C229.642 55.0977 229.357 55.0505 229.104 54.9561C228.85 54.8617 228.633 54.7184 228.454 54.5264C228.275 54.3311 228.138 54.0853 228.044 53.7891C227.95 53.4928 227.902 53.1429 227.902 52.7393V52.1436C227.902 51.6781 227.956 51.2842 228.063 50.9619C228.174 50.6396 228.322 50.3809 228.508 50.1855C228.693 49.987 228.903 49.8437 229.138 49.7559C229.372 49.6647 229.613 49.6191 229.86 49.6191C230.192 49.6191 230.476 49.6729 230.71 49.7803C230.944 49.8877 231.135 50.0472 231.281 50.2588C231.428 50.4704 231.535 50.7308 231.604 51.04C231.675 51.3493 231.711 51.7057 231.711 52.1094V52.6123H228.41V51.875H230.847V51.7529C230.834 51.4795 230.796 51.2386 230.734 51.0303C230.676 50.8219 230.578 50.6592 230.441 50.542C230.305 50.4215 230.111 50.3613 229.86 50.3613C229.701 50.3613 229.553 50.389 229.416 50.4443C229.283 50.4964 229.167 50.5892 229.069 50.7227C228.975 50.8529 228.9 51.0335 228.845 51.2646C228.793 51.4958 228.767 51.7887 228.767 52.1436V52.7393C228.767 53.0225 228.793 53.2666 228.845 53.4717C228.9 53.6735 228.98 53.8411 229.084 53.9746C229.191 54.1048 229.322 54.2025 229.475 54.2676C229.631 54.3294 229.808 54.3604 230.007 54.3604C230.297 54.3604 230.536 54.305 230.725 54.1943C230.913 54.0804 231.078 53.9355 231.218 53.7598L231.672 54.3018C231.577 54.4352 231.454 54.5638 231.301 54.6875C231.151 54.8079 230.965 54.9072 230.744 54.9854C230.526 55.0602 230.264 55.0977 229.958 55.0977Z" fill="#E0E0E9"/>
<path fill-rule="evenodd" clip-rule="evenodd" d="M205 16L138 16V14L205 14V16Z" fill="#D0CFD7"/>
<path fill-rule="evenodd" clip-rule="evenodd" d="M112 16L45 16V14L112 14V16Z" fill="#D0CFD7"/>
<path fill-rule="evenodd" clip-rule="evenodd" d="M19.7612 6.17317C19 8.01088 19 10.3406 19 15C19 19.6594 19 21.9891 19.7612 23.8268C20.7761 26.2771 22.7229 28.2239 25.1732 29.2388C27.0109 30 29.3406 30 34 30C38.6594 30 40.9891 30 42.8268 29.2388C45.2771 28.2239 47.2239 26.2771 48.2388 23.8268C49 21.9891 49 19.6594 49 15C49 10.3406 49 8.01088 48.2388 6.17317C47.2239 3.72288 45.2771 1.77614 42.8268 0.761205C40.9891 0 38.6594 0 34 0C29.3406 0 27.0109 0 25.1732 0.761205C22.7229 1.77614 20.7761 3.72288 19.7612 6.17317ZM40.7071 11.7071C41.0976 11.3166 41.0976 10.6834 40.7071 10.2929C40.3166 9.90237 39.6834 9.90237 39.2929 10.2929L32 17.5858L28.7071 14.2929C28.3166 13.9024 27.6834 13.9024 27.2929 14.2929C26.9024 14.6834 26.9024 15.3166 27.2929 15.7071L31.2929 19.7071C31.4804 19.8946 31.7348 20 32 20C32.2652 20 32.5196 19.8946 32.7071 19.7071L40.7071 11.7071Z" fill="url(#paint1_linear_363_3330)"/>
<path fill-rule="evenodd" clip-rule="evenodd" d="M201.761 6.17317C201 8.01088 201 10.3406 201 15C201 19.6594 201 21.9891 201.761 23.8268C202.776 26.2771 204.723 28.2239 207.173 29.2388C209.011 30 211.341 30 216 30C220.659 30 222.989 30 224.827 29.2388C227.277 28.2239 229.224 26.2771 230.239 23.8268C231 21.9891 231 19.6594 231 15C231 10.3406 231 8.01088 230.239 6.17317C229.224 3.72288 227.277 1.77614 224.827 0.761205C222.989 0 220.659 0 216 0C211.341 0 209.011 0 207.173 0.761205C204.723 1.77614 202.776 3.72288 201.761 6.17317ZM222.707 11.7071C223.098 11.3166 223.098 10.6834 222.707 10.2929C222.317 9.90237 221.683 9.90237 221.293 10.2929L214 17.5858L210.707 14.2929C210.317 13.9024 209.683 13.9024 209.293 14.2929C208.902 14.6834 208.902 15.3166 209.293 15.7071L213.293 19.7071C213.48 19.8946 213.735 20 214 20C214.265 20 214.52 19.8946 214.707 19.7071L222.707 11.7071Z" fill="#D0CFD7"/>
<path fill-rule="evenodd" clip-rule="evenodd" d="M110.761 6.17317C110 8.01088 110 10.3406 110 15C110 19.6594 110 21.9891 110.761 23.8268C111.776 26.2771 113.723 28.2239 116.173 29.2388C118.011 30 120.341 30 125 30C129.659 30 131.989 30 133.827 29.2388C136.277 28.2239 138.224 26.2771 139.239 23.8268C140 21.9891 140 19.6594 140 15C140 10.3406 140 8.01088 139.239 6.17317C138.224 3.72288 136.277 1.77614 133.827 0.761205C131.989 0 129.659 0 125 0C120.341 0 118.011 0 116.173 0.761205C113.723 1.77614 111.776 3.72288 110.761 6.17317ZM131.707 11.7071C132.098 11.3166 132.098 10.6834 131.707 10.2929C131.317 9.90237 130.683 9.90237 130.293 10.2929L123 17.5858L119.707 14.2929C119.317 13.9024 118.683 13.9024 118.293 14.2929C117.902 14.6834 117.902 15.3166 118.293 15.7071L122.293 19.7071C122.48 19.8946 122.735 20 123 20C123.265 20 123.52 19.8946 123.707 19.7071L131.707 11.7071Z" fill="#D0CFD7"/>
<defs>
<linearGradient id="paint0_linear_363_3330" x1="33.5" y1="57" x2="33.5" y2="35" gradientUnits="userSpaceOnUse">
<stop stop-color="#5CCC94"/>
<stop offset="1" stop-color="#8CCAAE"/>
</linearGradient>
<linearGradient id="paint1_linear_363_3330" x1="34" y1="30" x2="34" y2="1.58545e-07" gradientUnits="userSpaceOnUse">
<stop stop-color="#5CCC94"/>
<stop offset="1" stop-color="#8CCAAE"/>
</linearGradient>
</defs>
</svg>
