<?xml version="1.0" encoding="UTF-8"?>
<svg id="Layer_1" data-name="Layer 1" xmlns="http://www.w3.org/2000/svg" xmlns:xlink="http://www.w3.org/1999/xlink" viewBox="0 0 1046.5 367.84">
  <defs>
    <style>
      .cls-1, .cls-2 {
        fill: #fff;
      }

      .cls-3, .cls-4 {
        fill: #f57d21;
      }

      .cls-5 {
        clip-path: url(#clippath-1);
      }

      .cls-2, .cls-6, .cls-4 {
        stroke-width: 0px;
      }

      .cls-7 {
        clip-path: url(#clippath-3);
      }

      .cls-6 {
        fill: #404040;
      }
    </style>
    <clipPath id="clippath-1">
      <path class="cls-2" d="m988.49,202.68l-64.5,100.35c-6.07,9.44-16.52,15.15-27.74,15.15H307.86l1.5-.87,22.71-13.09,17.29-9.99c8.58-4.96,13.87-14.12,13.87-24.04V99.47c0-9.92-5.29-19.08-13.87-24.05l-41.46-23.94h588.4c11.22,0,21.68,5.71,27.74,15.15l64.47,100.37c6.98,10.86,6.98,24.79,0,35.65"/>
    </clipPath>
    <clipPath id="clippath-3">
      <path class="cls-4" d="m189.01,18.51c-4.03.03-7.99,1.1-11.48,3.13l-4.39,2.53-27.48,15.86-91.86,53.04c-7.19,4.15-11.62,11.81-11.62,20.12v142.85c0,8.3,4.43,15.97,11.62,20.12l14.8,8.54,18.64,10.76,35.9,20.72,49.99,28.88,4.42,2.56c7.16,4.14,15.99,4.14,23.15,0l4.43-2.56,44.91-25.89,5.09-2.94,35.85-20.72,18.98-10.95,14.46-8.36c7.19-4.15,11.62-11.82,11.62-20.12V113.17c0-8.29-4.4-15.95-11.57-20.11l-74.43-42.98-17.34-10.01-27.56-15.93-4.39-2.53c-3.49-2.02-7.45-3.1-11.48-3.13l-.26.02Z"/>
    </clipPath>
  </defs>
  <g>
    <path class="cls-1" d="m988.49,202.68l-64.5,100.35c-6.07,9.44-16.52,15.15-27.74,15.15H307.86l1.5-.87,22.71-13.09,17.29-9.99c8.58-4.96,13.87-14.12,13.87-24.04V99.47c0-9.92-5.29-19.08-13.87-24.05l-41.46-23.94h588.4c11.22,0,21.68,5.71,27.74,15.15l64.47,100.37c6.98,10.86,6.98,24.79,0,35.65"/>
    <g class="cls-5">
      <rect class="cls-2" x="44.01" y="1.78" width="950.47" height="998.29"/>
    </g>
  </g>
  <g>
    <path class="cls-3" d="m189.01,18.51c-4.03.03-7.99,1.1-11.48,3.13l-4.39,2.53-27.48,15.86-91.86,53.04c-7.19,4.15-11.62,11.81-11.62,20.12v142.85c0,8.3,4.43,15.97,11.62,20.12l14.8,8.54,18.64,10.76,35.9,20.72,49.99,28.88,4.42,2.56c7.16,4.14,15.99,4.14,23.15,0l4.43-2.56,44.91-25.89,5.09-2.94,35.85-20.72,18.98-10.95,14.46-8.36c7.19-4.15,11.62-11.82,11.62-20.12V113.17c0-8.29-4.4-15.95-11.57-20.11l-74.43-42.98-17.34-10.01-27.56-15.93-4.39-2.53c-3.49-2.02-7.45-3.1-11.48-3.13l-.26.02Z"/>
    <g class="cls-7">
      <rect class="cls-4" x="44.01" y="1.78" width="950.47" height="998.29" transform="translate(1038.48 1001.85) rotate(-180)"/>
    </g>
  </g>
  <g>
    <g>
      <path class="cls-6" d="m486.62,240.03l-12.33-28.88-7.77,44.31c-.44,2.15-1.67,3.22-3.67,3.22h-11.99c-2.3,0-3.22-1.07-2.78-3.22l12.66-71.97c.3-2.15,1.52-3.22,3.67-3.22h11.33c1.93,0,3.11.63,3.55,1.89l13.99,33.21,25.77-33.21c1.04-1.26,2.33-1.89,3.89-1.89h12c2.3,0,3.22,1.07,2.78,3.22l-12.66,71.97c-.44,2.15-1.67,3.22-3.67,3.22h-11.99c-2.3,0-3.22-1.07-2.78-3.22l7.77-44.31-22.55,28.88c-.67,1.04-1.59,1.55-2.78,1.55-1.11,0-1.93-.52-2.44-1.55Z"/>
      <path class="cls-6" d="m591.13,255.58c-.3,2.07-1.41,3.11-3.33,3.11h-10.11c-1.78,0-2.74-.81-2.89-2.44l.22-4.89c-4.66,5.48-11.11,8.22-19.32,8.22-5.55,0-9.9-1.3-13.05-3.89-3.15-2.59-4.72-6.15-4.72-10.66,0-2.37.3-4.53.89-6.5.59-1.96,1.31-3.65,2.17-5.05.85-1.41,2.09-2.68,3.72-3.83,1.63-1.15,3.11-2.07,4.44-2.78s3.18-1.33,5.55-1.89c2.37-.56,4.31-.98,5.83-1.28,1.52-.3,3.66-.54,6.44-.72,2.78-.18,4.85-.3,6.22-.33,1.37-.04,3.46-.09,6.28-.17l.33-2.11c.59-2.81.09-4.91-1.5-6.28-1.59-1.37-4.39-2.05-8.39-2.05-5.18,0-10.74,1.04-16.66,3.11-1.93.74-3.07.11-3.44-1.89l-1-6.89c-.22-1.7.63-2.96,2.55-3.78,7.11-2.89,14.62-4.33,22.55-4.33,15.99,0,23.99,5.7,23.99,17.1,0,1.78-.15,3.44-.44,5l-6.33,35.21Zm-13.33-23.44c-2.66.15-4.72.28-6.16.39s-3.35.37-5.72.78c-2.37.41-4.18.93-5.44,1.55-1.26.63-2.39,1.57-3.39,2.83-1,1.26-1.5,2.78-1.5,4.55,0,3.78,2.37,5.66,7.11,5.66,4.15,0,7.4-1.02,9.77-3.05,2.37-2.04,3.85-4.72,4.44-8.05l.89-4.67Z"/>
      <path class="cls-6" d="m631.77,214.6l-4.33,24.32c-.44,2.67-.28,4.5.5,5.5.78,1,2.46,1.5,5.05,1.5.59,0,1.37-.09,2.33-.28.96-.18,1.67-.28,2.11-.28,1.7,0,2.44.93,2.22,2.78l-1,7.33c-.15,1.48-1.26,2.52-3.33,3.11-2.96.74-5.96,1.11-9,1.11-5.85,0-10.22-1.04-13.11-3.11-2.89-2.07-4.33-5.52-4.33-10.33,0-1.85.22-3.89.67-6.11l4.44-25.54h-5c-2.15,0-3-1-2.55-3l1.22-7.22c.44-2.07,1.59-3.11,3.44-3.11h5.44l2.33-13.44c.44-1.78,1.63-2.67,3.55-2.67h11.11c1.11,0,1.89.22,2.33.67.44.44.59,1.11.44,2l-2.33,13.44h10.77c2.22,0,3.11,1.04,2.67,3.11l-1.22,7.22c-.44,2-1.63,3-3.55,3h-10.88Z"/>
      <path class="cls-6" d="m671.75,199.6c1.85,0,2.78.89,2.78,2.67l-.56,7.55c1.85-2.81,4.48-5.33,7.89-7.55,3.41-2.22,7.11-3.33,11.11-3.33,1.04,0,1.74.2,2.11.61s.44,1.13.22,2.17l-2,12.22c-.37,1.63-1.41,2.44-3.11,2.44-.37,0-.98-.04-1.83-.11-.85-.07-1.61-.11-2.28-.11-3.92,0-7.29,1.33-10.11,4-2.81,2.67-4.55,6.03-5.22,10.11l-4.55,25.32c-.3,2.07-1.41,3.11-3.33,3.11h-11.99c-2.15,0-3.07-1.04-2.78-3.11l9.44-52.98c.3-2,1.44-3,3.44-3h10.77Z"/>
      <path class="cls-6" d="m713.62,255.58c-.3,2.07-1.44,3.11-3.44,3.11h-12c-2.07,0-2.96-1.04-2.66-3.11l9.44-52.98c.3-2,1.44-3,3.44-3h11.99c2.15,0,3.04,1,2.67,3l-9.44,52.98Zm11.66-65.08c-.3,2.07-1.44,3.11-3.44,3.11h-12.33c-2,0-2.89-1.04-2.66-3.11l1.33-7c.3-2,1.44-3,3.44-3h12.22c2.07,0,2.96,1,2.66,3l-1.22,7Z"/>
      <path class="cls-6" d="m741.39,205.99c6.07-5.15,13.77-7.72,23.1-7.72,3.63,0,7.16.39,10.61,1.17,3.44.78,5.94,1.72,7.5,2.83,1.63,1.11,1.93,2.48.89,4.11l-4.33,7.11c-1.18,1.7-2.78,2.18-4.78,1.44-2.81-1.33-5.92-2-9.33-2-9.4,0-15.07,5.37-16.99,16.1-.3,2.37-.44,4-.44,4.89,0,7.55,3.89,11.33,11.66,11.33,4,0,7.63-.78,10.88-2.33,2.22-.89,3.55-.37,4,1.55l1.89,7c.44,1.63-.37,3.04-2.44,4.22-4.66,2.81-10.48,4.22-17.44,4.22-8.37,0-14.99-2.05-19.88-6.16-4.89-4.11-7.33-10.05-7.33-17.83,0-2.3.22-4.66.67-7.11,1.78-10.07,5.7-17.68,11.77-22.82Z"/>
      <path class="cls-6" d="m836.9,255.58c-.3,2.07-1.41,3.11-3.33,3.11h-10.11c-1.78,0-2.74-.81-2.89-2.44l.22-4.89c-4.66,5.48-11.11,8.22-19.32,8.22-5.55,0-9.9-1.3-13.05-3.89-3.15-2.59-4.72-6.15-4.72-10.66,0-2.37.3-4.53.89-6.5.59-1.96,1.31-3.65,2.17-5.05.85-1.41,2.09-2.68,3.72-3.83,1.63-1.15,3.11-2.07,4.44-2.78s3.18-1.33,5.55-1.89c2.37-.56,4.31-.98,5.83-1.28,1.52-.3,3.66-.54,6.44-.72,2.78-.18,4.85-.3,6.22-.33,1.37-.04,3.46-.09,6.28-.17l.33-2.11c.59-2.81.09-4.91-1.5-6.28-1.59-1.37-4.39-2.05-8.39-2.05-5.18,0-10.74,1.04-16.66,3.11-1.93.74-3.07.11-3.44-1.89l-1-6.89c-.22-1.7.63-2.96,2.55-3.78,7.11-2.89,14.62-4.33,22.55-4.33,15.99,0,23.99,5.7,23.99,17.1,0,1.78-.15,3.44-.44,5l-6.33,35.21Zm-13.33-23.44c-2.67.15-4.72.28-6.16.39s-3.35.37-5.72.78c-2.37.41-4.18.93-5.44,1.55-1.26.63-2.39,1.57-3.39,2.83-1,1.26-1.5,2.78-1.5,4.55,0,3.78,2.37,5.66,7.11,5.66,4.15,0,7.4-1.02,9.77-3.05,2.37-2.04,3.85-4.72,4.44-8.05l.89-4.67Z"/>
    </g>
    <g>
      <path class="cls-6" d="m467.24,162.36c-1,0-1.59-.53-1.77-1.59l-10.53-58.94c-.12-1.06.35-1.59,1.42-1.59h4.96c.83,0,1.3.47,1.42,1.42l6.81,38.06,1.86,14.87h.09l7.17-14.96,20.09-37.97c.47-.94,1.12-1.42,1.95-1.42h5.31c1.12,0,1.42.53.89,1.59l-31.24,58.94c-.65,1.06-1.42,1.59-2.3,1.59h-6.11Z"/>
      <path class="cls-6" d="m534.23,160.94c-.18.94-.71,1.42-1.59,1.42h-3.98c-.94,0-1.33-.44-1.15-1.33l1.15-6.28c-4.19,5.6-10.09,8.41-17.7,8.41-4.48,0-7.98-1.09-10.49-3.27-2.51-2.18-3.76-4.96-3.76-8.32,0-8.32,5.69-13.48,17.08-15.49,3.25-.53,9.29-.94,18.14-1.24l.44-2.48c.24-1.53.35-2.57.35-3.1,0-2.54-.83-4.41-2.48-5.62-1.65-1.21-4.28-1.81-7.88-1.81-4.72,0-9.62,1-14.69,3.01-.88.29-1.39,0-1.5-.89l-.53-3.72c-.12-.65.24-1.15,1.06-1.5,5.07-2.18,10.56-3.27,16.46-3.27,11.03,0,16.55,4.28,16.55,12.83,0,1.18-.15,2.6-.44,4.25l-5.04,28.41Zm-3.27-20.53c-9.44.53-15.64,1.18-18.59,1.95-5.66,1.59-8.53,4.51-8.59,8.76,0,1.83.74,3.32,2.21,4.47,1.47,1.15,3.6,1.73,6.37,1.73,4.96,0,9.01-1.22,12.17-3.67,3.16-2.45,5.06-5.53,5.71-9.25l.71-3.98Zm-3.89-39.12c.65-.71,1.36-1.06,2.12-1.06h6.37c.47,0,.74.19.8.58.06.38-.12.72-.53,1.02l-9.56,7.7c-.65.59-1.39.89-2.21.89h-2.66c-.41,0-.68-.15-.8-.44-.12-.29-.03-.59.27-.89l6.19-7.79Z"/>
      <path class="cls-6" d="m557.77,116.51c.94,0,1.33.44,1.15,1.33l-1.5,8.67c1.42-2.54,3.6-4.87,6.55-6.99,2.95-2.12,6.34-3.19,10.18-3.19.71,0,1,.35.89,1.06l-.97,5.58c-.18.77-.62,1.15-1.33,1.15-.12,0-.4-.03-.84-.09-.44-.06-.87-.09-1.28-.09-3.54,0-6.86,1.71-9.96,5.13-3.1,3.42-5,7.26-5.71,11.51l-3.63,20.36c-.18.94-.71,1.42-1.59,1.42h-4.34c-1,0-1.42-.47-1.24-1.42l7.61-43.01c.18-.94.74-1.42,1.68-1.42h4.34Z"/>
      <path class="cls-6" d="m610.7,160.94c-.18.94-.71,1.42-1.59,1.42h-4.34c-1,0-1.42-.47-1.24-1.42l5.04-28.32c.24-1.53.35-2.63.35-3.27,0-4.84-2.77-7.26-8.32-7.26-3.95,0-7.29,1.15-10,3.45-2.71,2.3-4.4,5.34-5.04,9.12l-4.69,26.29c-.18.94-.71,1.42-1.59,1.42h-4.34c-1,0-1.42-.47-1.24-1.42l7.61-43.01c.18-.94.74-1.42,1.68-1.42h4.34c.94,0,1.33.44,1.15,1.33l-.97,5.75c3.13-5.43,8.2-8.14,15.22-8.14,7.67,0,11.98,2.86,12.92,8.59,3.84-5.72,9.47-8.59,16.9-8.59,4.31,0,7.63,1.12,9.96,3.36,2.33,2.24,3.5,5.31,3.5,9.2,0,1.3-.12,2.54-.35,3.72l-5.22,29.21c-.18.94-.68,1.42-1.5,1.42h-4.34c-1,0-1.42-.47-1.24-1.42l5.04-28.23c.24-1.53.35-2.63.35-3.27,0-4.9-2.8-7.35-8.41-7.35-3.84,0-7.11,1.12-9.82,3.36-2.71,2.24-4.4,5.04-5.04,8.41l-4.78,27.08Z"/>
      <path class="cls-6" d="m684.59,154.48c1-.47,1.62-.21,1.86.8l.71,3.27c.18.65-.24,1.18-1.24,1.59-4.66,2.18-9.32,3.27-13.98,3.27-6.37,0-11.37-1.67-15-5-3.63-3.33-5.44-7.98-5.44-13.94,0-1.77.18-3.69.53-5.75,1.3-7.38,4.1-13.1,8.41-17.17,4.31-4.07,9.68-6.11,16.11-6.11,5.55,0,9.84,1.5,12.88,4.51,3.04,3.01,4.56,7.02,4.56,12.04,0,1.3-.15,2.89-.44,4.78l-.71,4.43c-.18.94-.77,1.42-1.77,1.42h-32.66c-.06.41-.09,1-.09,1.77,0,3.89,1.27,7.02,3.81,9.38,2.54,2.36,6.02,3.54,10.44,3.54,4.13,0,8.14-.94,12.04-2.83Zm-25.13-17.79h27.26l.09-.44c.24-1.18.35-2.48.35-3.89,0-3.36-.92-6-2.74-7.92-1.83-1.92-4.57-2.88-8.23-2.88-8.85,0-14.43,5.04-16.73,15.13Z"/>
      <path class="cls-6" d="m736.54,155.81c-.94,5.61-3.41,9.9-7.39,12.88-3.98,2.98-9.1,4.47-15.36,4.47-7.08,0-12.39-.88-15.93-2.65-.71-.35-.92-.83-.62-1.42l1.95-3.63c.53-.94,1.15-1.24,1.86-.89,3.66,1.53,7.94,2.3,12.83,2.3,4.19,0,7.69-1,10.49-3.01,2.8-2.01,4.53-4.84,5.18-8.5l.88-5.04c-3.3,5.37-8.41,8.05-15.31,8.05-5.02,0-9.09-1.33-12.21-3.98-3.13-2.65-4.69-6.64-4.69-11.95,0-1.65.18-3.45.53-5.4,1.3-7.2,3.89-12.6,7.79-16.2,3.89-3.6,8.67-5.4,14.34-5.4,3.36,0,6.42.72,9.16,2.17,2.74,1.45,4.47,3.32,5.18,5.62l.97-5.4c.18-.88.74-1.33,1.68-1.33h4.25c.89,0,1.24.47,1.06,1.42l-6.64,37.88Zm-3.27-23.72c0-7.02-3.75-10.53-11.24-10.53-8.91,0-14.25,5.16-16.02,15.49-.29,1.53-.44,3.19-.44,4.96,0,6.96,3.66,10.44,10.97,10.44,4.19,0,7.73-1.37,10.62-4.12,2.89-2.74,4.78-6.71,5.66-11.9.29-1.77.44-3.22.44-4.34Z"/>
      <path class="cls-6" d="m767.16,159.44c-2.3,4.78-4.66,8.14-7.08,10.09s-5.75,2.92-10,2.92c-2.66,0-4.75-.32-6.28-.97-.77-.29-1.03-.74-.8-1.33l1.68-3.63c.41-.71.97-1.03,1.68-.97,2.06.41,3.54.62,4.43.62,2.65,0,4.6-.72,5.84-2.17,1.24-1.45,1.62-3.32,1.15-5.62l-8.59-40.36c-.18-1,.24-1.5,1.24-1.5h4.51c.71,0,1.12.44,1.24,1.33l4.78,23.28,2.12,13.72h.18l6.64-13.72,11.51-23.28c.47-.88,1.06-1.33,1.77-1.33h4.87c1,0,1.27.5.8,1.5l-21.68,41.42Z"/>
      <path class="cls-6" d="m820.35,154.48c1-.47,1.62-.21,1.86.8l.71,3.27c.18.65-.24,1.18-1.24,1.59-4.66,2.18-9.32,3.27-13.98,3.27-6.37,0-11.37-1.67-15-5-3.63-3.33-5.44-7.98-5.44-13.94,0-1.77.18-3.69.53-5.75,1.3-7.38,4.1-13.1,8.41-17.17,4.31-4.07,9.68-6.11,16.11-6.11,5.55,0,9.84,1.5,12.88,4.51,3.04,3.01,4.56,7.02,4.56,12.04,0,1.3-.15,2.89-.44,4.78l-.71,4.43c-.18.94-.77,1.42-1.77,1.42h-32.66c-.06.41-.09,1-.09,1.77,0,3.89,1.27,7.02,3.81,9.38,2.54,2.36,6.02,3.54,10.44,3.54,4.13,0,8.14-.94,12.04-2.83Zm-25.13-17.79h27.26l.09-.44c.24-1.18.35-2.48.35-3.89,0-3.36-.92-6-2.74-7.92-1.83-1.92-4.57-2.88-8.23-2.88-8.85,0-14.43,5.04-16.73,15.13Z"/>
      <path class="cls-6" d="m840.26,160.94c-.18.94-.68,1.42-1.5,1.42h-4.43c-.94,0-1.33-.47-1.15-1.42l7.61-43.01c.18-.94.71-1.42,1.59-1.42h4.43c.88,0,1.24.47,1.06,1.42l-7.61,43.01Zm9.12-51.78c-.06.94-.56,1.42-1.5,1.42h-4.42c-.83,0-1.21-.47-1.15-1.42l1.33-7.17c.18-.94.71-1.42,1.59-1.42h4.42c.89,0,1.24.47,1.06,1.42l-1.33,7.17Z"/>
    </g>
  </g>
  <g>
    <path class="cls-2" d="m177.25,136.74h-24.86c-2.68-.17-4.85-2.34-4.84-5.02,0-.5.08-1.01.23-1.49l20.48-63.2c.65-2,2.52-3.36,4.63-3.3h4.24c2.67-.05,4.84,2.12,5.6,4.79v63.19c-.76,2.68-2.93,4.85-5.48,4.85h0"/>
    <path class="cls-2" d="m180.84,302.64c0,.08,0,.16,0,.24-.17,2.11-2.01,3.68-4.11,3.51-.55-.04-1.09-.21-1.58-.48l-56.07-32.03c-3.07-1.78-4.54-5.42-3.57-8.83l23.51-81.67c.56-1.71,2.17-2.86,3.97-2.83h33.77c2.28,0,4.13,1.85,4.13,4.13h0l-.06,117.97Z"/>
    <path class="cls-2" d="m195.52,302.65c0,.08,0,.16,0,.24.17,2.11,2.01,3.68,4.11,3.51.55-.04,1.09-.21,1.58-.48l56.07-32.03c3.07-1.78,4.54-5.42,3.57-8.83l-23.47-81.67c-.56-1.71-2.17-2.86-3.97-2.83h-33.77c-2.28,0-4.13,1.85-4.13,4.13h0l.02,117.97Z"/>
    <path class="cls-2" d="m299.54,153.17v7.44c0,1.94-1.6,3.51-3.56,3.52h-14.79c-1.97,0-3.56,1.57-3.56,3.52v5.53c0,2.06-1.59,3.73-3.56,3.73h-14.82c-1.94,0-3.52-1.57-3.52-3.52v-5.75c0-1.94-1.58-3.51-3.52-3.51,0,0,2.45,0,2.44,0H124.24c-1.97,0-3.57,1.65-3.57,3.71,0,0,0,0,0,.01v5.55c0,1.94-1.57,3.51-3.51,3.51h-.06s-14.78,0-14.78,0c-1.97,0-3.56-1.67-3.56-3.73v-5.53c0-1.94-1.57-3.52-3.52-3.52h-14.95c-1.89,0-3.43-1.55-3.43-3.47v-7.66c0-1.92,1.54-3.47,3.43-3.47h215.99c1.94,0,3.51,1.58,3.52,3.52"/>
  </g>
  <path class="cls-6" d="m196.33,99.89v-30.36c0-2.9,2.36-5.25,5.26-5.24.92,0,1.82.24,2.61.7l26.29,15.18,26.27,15.19c2.51,1.44,3.37,4.65,1.93,7.16-.46.8-1.13,1.47-1.93,1.93l-26.29,15.18-26.29,15.18c-2.51,1.45-5.72.58-7.17-1.93-.46-.79-.7-1.7-.7-2.61l.02-30.35Z"/>
</svg>