<svg width="41" height="40" viewBox="0 0 41 40" fill="none" xmlns="http://www.w3.org/2000/svg">
<path d="M14.4999 0C9.25992 0 4.99992 4.26 4.99992 9.5C4.99992 14.64 9.01992 18.8 14.2599 18.98C14.4199 18.96 14.5799 18.96 14.6999 18.98H14.8399C17.2986 18.898 19.6291 17.863 21.3385 16.0938C23.0479 14.3247 24.0023 11.9601 23.9999 9.5C23.9999 4.26 19.7399 0 14.4999 0ZM24.6599 24.298C19.0799 20.578 9.97992 20.578 4.35992 24.298C1.81992 25.998 0.419922 28.298 0.419922 30.758C0.419922 33.218 1.81992 35.498 4.33992 37.178C7.13992 39.058 10.8199 39.998 14.4999 39.998C18.1799 39.998 21.8599 39.058 24.6599 37.178C27.1799 35.478 28.5799 33.198 28.5799 30.718C28.5599 28.258 27.1799 25.978 24.6599 24.298ZM36.4799 10.676C36.7999 14.556 34.0399 17.956 30.2199 18.416H30.1199C29.9999 18.416 29.8799 18.416 29.7799 18.456C27.8399 18.556 26.0599 17.936 24.7199 16.796C26.7799 14.956 27.9599 12.196 27.7199 9.196C27.5827 7.63601 27.0529 6.13611 26.1799 4.836C27.2279 4.32616 28.3842 4.07893 29.549 4.11564C30.7138 4.15235 31.8523 4.47189 32.8661 5.0467C33.8799 5.62152 34.7386 6.43434 35.3682 7.41505C35.9978 8.39577 36.3793 9.51493 36.4799 10.676Z" fill="white"/>
<path d="M40.4766 29.1808C40.3166 31.1208 39.0766 32.8008 36.9966 33.9408C34.9966 35.0408 32.4766 35.5608 29.9766 35.5008C31.4166 34.2008 32.2566 32.5808 32.4166 30.8608C32.6166 28.3808 31.4366 26.0008 29.0766 24.1008C27.7366 23.0408 26.1766 22.2008 24.4766 21.5808C28.8966 20.3008 34.4566 21.1608 37.8766 23.9208C39.7166 25.4008 40.6566 27.2608 40.4766 29.1808Z" fill="white"/>
</svg>
