<svg width="39" height="42" viewBox="0 0 39 42" fill="none" xmlns="http://www.w3.org/2000/svg">
<path d="M12 9.5C11.18 9.5 10.5 8.82 10.5 8V2C10.5 1.18 11.18 0.5 12 0.5C12.82 0.5 13.5 1.18 13.5 2V8C13.5 8.82 12.82 9.5 12 9.5ZM27 9.5C26.18 9.5 25.5 8.82 25.5 8V2C25.5 1.18 26.18 0.5 27 0.5C27.82 0.5 28.5 1.18 28.5 2V8C28.5 8.82 27.82 9.5 27 9.5ZM19.5 26.18C20.54 26.18 21.3 25.56 21.3 24.58C21.3 23.58 20.54 23 19.5 23C18.46 23 17.7 23.58 17.7 24.58C17.7 25.56 18.46 26.18 19.5 26.18ZM19.5 32C20.758 32 21.78 31.168 21.78 30.14C21.78 29.114 20.758 28.28 19.5 28.28C18.24 28.28 17.22 29.114 17.22 30.14C17.22 31.168 18.24 32 19.5 32Z" fill="white"/>
<path d="M34.64 7C33.32 6.02 31.42 6.96 31.42 8.62V8.82C31.42 11.16 29.74 13.32 27.4 13.56C24.7 13.84 22.42 11.72 22.42 9.08V7C22.42 5.9 21.52 5 20.42 5H18.58C17.48 5 16.58 5.9 16.58 7V9.08C16.58 10.66 15.76 12.06 14.52 12.84C14.34 12.96 14.14 13.06 13.94 13.16C13.76 13.26 13.56 13.34 13.34 13.4C13.1 13.48 12.84 13.54 12.56 13.56C12.24 13.6 11.92 13.6 11.6 13.56C11.32 13.54 11.06 13.48 10.82 13.4C10.4054 13.2619 10.0092 13.0738 9.64 12.84C8.38 11.96 7.58 10.44 7.58 8.82V8.62C7.58 7.08 5.94 6.16 4.64 6.82C4.62 6.84 4.6 6.84 4.58 6.86C4.5 6.9 4.44 6.94 4.36 7C4.3 7.06 4.22 7.1 4.16 7.16C3.6 7.6 3.1 8.1 2.68 8.64C2.46 8.88 2.28 9.14 2.12 9.4C1.91685 9.69248 1.73632 10 1.58 10.32C1.54 10.36 1.52 10.38 1.52 10.42C1.4 10.66 1.28 10.9 1.2 11.16C1.14 11.26 1.12 11.34 1.08 11.44C0.96 11.74 0.88 12.04 0.8 12.34C0.72 12.62 0.66 12.92 0.62 13.22C0.547284 13.7236 0.507201 14.2313 0.5 14.74V32.26C0.5 34.8432 1.52618 37.3206 3.35278 39.1472C5.17938 40.9738 7.65679 42 10.24 42H28.76C30.0391 42 31.3056 41.7481 32.4873 41.2586C33.669 40.7691 34.7428 40.0517 35.6472 39.1472C36.5517 38.2428 37.2691 37.1691 37.7586 35.9873C38.2481 34.8056 38.5 33.5391 38.5 32.26V14.74C38.5 11.56 36.98 8.78 34.64 7ZM19.5 34.5C16.4 34.5 14.5 32.96 14.5 30.48C14.5 29.12 15.2 27.94 16.42 27.24C15.54 26.62 14.96 25.7 14.96 24.44C14.96 21.84 17.04 20.5 19.5 20.5C21.96 20.5 24.02 21.84 24.02 24.44C24.02 25.7 23.46 26.62 22.56 27.24C23.8 27.94 24.5 29.12 24.5 30.48C24.5 32.96 22.58 34.5 19.5 34.5Z" fill="white"/>
</svg>
