<svg width="43" height="40" viewBox="0 0 43 40" fill="none" xmlns="http://www.w3.org/2000/svg">
<path d="M34.5 24.0009C30.08 24.0009 26.5 27.5809 26.5 32.0009C26.5 33.5009 26.92 34.9209 27.66 36.1209C28.3651 37.3058 29.3666 38.2868 30.5659 38.9671C31.7653 39.6474 33.1211 40.0037 34.5 40.0009C37.42 40.0009 39.96 38.4409 41.34 36.1209C42.08 34.9209 42.5 33.5009 42.5 32.0009C42.5 27.5809 38.92 24.0009 34.5 24.0009ZM38.64 31.1409L34.38 35.0809C34.1 35.3409 33.72 35.4809 33.36 35.4809C32.98 35.4809 32.6 35.3409 32.3 35.0409L30.32 33.0609C30.041 32.7786 29.8846 32.3977 29.8846 32.0009C29.8846 31.604 30.041 31.2231 30.32 30.9409C30.9 30.3609 31.86 30.3609 32.44 30.9409L33.4 31.9009L36.6 28.9409C37.2 28.3809 38.16 28.4209 38.72 29.0209C39.28 29.6209 39.24 30.5609 38.64 31.1409ZM40.5 9.09687V9.99687C40.5 11.0969 39.6 11.9969 38.5 11.9969H2.5C1.4 11.9969 0.5 11.0969 0.5 9.99687V9.07687C0.5 4.49687 4.2 0.796875 8.78 0.796875H32.2C36.78 0.796875 40.5 4.51687 40.5 9.09687Z" fill="white"/>
<path d="M0.5 16.9966V26.9166C0.5 31.4966 4.2 35.1966 8.78 35.1966H21.3C22.46 35.1966 23.46 34.2166 23.36 33.0566C23.08 29.9966 24.06 26.6766 26.78 24.0366C27.9 22.9366 29.28 22.0966 30.78 21.6166C33.28 20.8166 35.7 20.9166 37.84 21.6366C38.1408 21.7417 38.4625 21.7735 38.7781 21.7292C39.0937 21.6849 39.3941 21.5658 39.6543 21.3819C39.9146 21.1979 40.1271 20.9545 40.2742 20.6717C40.4213 20.389 40.4987 20.0753 40.5 19.7566V16.9766C40.5 15.8766 39.6 14.9766 38.5 14.9766H2.5C1.4 14.9966 0.5 15.8966 0.5 16.9966ZM12.5 28.4966H8.5C7.68 28.4966 7 27.8166 7 26.9966C7 26.1766 7.68 25.4966 8.5 25.4966H12.5C13.32 25.4966 14 26.1766 14 26.9966C14 27.8166 13.32 28.4966 12.5 28.4966Z" fill="white"/>
</svg>
