<svg width="44" height="40" viewBox="0 0 44 40" fill="none" xmlns="http://www.w3.org/2000/svg">
<path d="M42.5 27C43.06 27 43.5 27.44 43.5 28V30C43.5 33.32 40.82 36 37.5 36C37.5 32.7 34.8 30 31.5 30C28.2 30 25.5 32.7 25.5 36H21.5C21.5 32.7 18.8 30 15.5 30C12.2 30 9.5 32.7 9.5 36C6.18 36 3.5 33.32 3.5 30V26C3.5 24.9 4.4 24 5.5 24H24.5C25.8261 24 27.0979 23.4732 28.0355 22.5355C28.9732 21.5979 29.5 20.3261 29.5 19V8C29.5 6.9 30.4 6 31.5 6H33.18C34.62 6 35.94 6.78 36.66 8.02L37.94 10.26C38.12 10.58 37.88 11 37.5 11C36.1739 11 34.9021 11.5268 33.9645 12.4645C33.0268 13.4021 32.5 14.6739 32.5 16V22C32.5 23.3261 33.0268 24.5979 33.9645 25.5355C34.9021 26.4732 36.1739 27 37.5 27H42.5Z" fill="white"/>
<path d="M15.5 40C16.5609 40 17.5783 39.5786 18.3284 38.8284C19.0786 38.0783 19.5 37.0609 19.5 36C19.5 34.9391 19.0786 33.9217 18.3284 33.1716C17.5783 32.4214 16.5609 32 15.5 32C14.4391 32 13.4217 32.4214 12.6716 33.1716C11.9214 33.9217 11.5 34.9391 11.5 36C11.5 37.0609 11.9214 38.0783 12.6716 38.8284C13.4217 39.5786 14.4391 40 15.5 40ZM31.5 40C32.5609 40 33.5783 39.5786 34.3284 38.8284C35.0786 38.0783 35.5 37.0609 35.5 36C35.5 34.9391 35.0786 33.9217 34.3284 33.1716C33.5783 32.4214 32.5609 32 31.5 32C30.4391 32 29.4217 32.4214 28.6716 33.1716C27.9214 33.9217 27.5 34.9391 27.5 36C27.5 37.0609 27.9214 38.0783 28.6716 38.8284C29.4217 39.5786 30.4391 40 31.5 40ZM43.5 21.06V24H37.5C36.4 24 35.5 23.1 35.5 22V16C35.5 14.9 36.4 14 37.5 14H40.08L42.98 19.08C43.32 19.68 43.5 20.36 43.5 21.06ZM25.66 0H10.88C9.1695 0.000486543 7.51228 0.595124 6.19168 1.68225C4.87109 2.76937 3.96912 4.28146 3.64 5.96H12.38C13.14 5.96 13.74 6.58 13.74 7.34C13.74 8.1 13.14 8.7 12.38 8.7H3.5V11.46H8.7C9.46 11.46 10.08 12.08 10.08 12.84C10.08 13.6 9.46 14.2 8.7 14.2H3.5V16.96H5.04C5.8 16.96 6.42 17.58 6.42 18.34C6.42 19.1 5.8 19.7 5.04 19.7H3.5V20.16C3.5 21.26 4.4 22.16 5.5 22.16H23.8C25.84 22.16 27.5 20.5 27.5 18.46V1.84C27.5 0.82 26.68 0 25.66 0ZM3.64 5.96H1.38C0.62 5.96 0 6.58 0 7.34C0 8.1 0.62 8.7 1.38 8.7H3.5V7.38C3.5 6.9 3.56 6.42 3.64 5.96ZM3.2 11.46H1.38C0.62 11.46 0 12.08 0 12.84C0 13.6 0.62 14.2 1.38 14.2H3.5V11.46H3.2ZM3.2 16.96H1.38C0.62 16.96 0 17.58 0 18.34C0 19.1 0.62 19.7 1.38 19.7H3.5V16.96H3.2Z" fill="white"/>
</svg>
