<svg width="16" height="17" viewBox="0 0 16 17" fill="none" xmlns="http://www.w3.org/2000/svg">
<path d="M15.7665 13.6987L14.9832 12.9154C15.3915 12.2987 15.6332 11.557 15.6332 10.757C15.6332 8.59036 13.8749 6.83203 11.7082 6.83203C9.54154 6.83203 7.7832 8.59036 7.7832 10.757C7.7832 12.9237 9.54154 14.682 11.7082 14.682C12.5082 14.682 13.2415 14.4404 13.8665 14.032L14.6499 14.8154C14.8082 14.9737 15.0082 15.0487 15.2165 15.0487C15.4249 15.0487 15.6249 14.9737 15.7832 14.8154C16.0749 14.5154 16.0749 14.0154 15.7665 13.6987Z" fill="url(#paint0_linear_0_1)"/>
<path d="M14.8176 1.8513V3.7013C14.8176 4.3763 14.4009 5.21797 13.9842 5.64297L13.8342 5.7763C13.7176 5.88463 13.5426 5.90964 13.3926 5.85964C13.2259 5.8013 13.0592 5.75963 12.8926 5.71797C12.5259 5.6263 12.1342 5.58464 11.7342 5.58464C8.85925 5.58464 6.52591 7.91797 6.52591 10.793C6.52591 11.743 6.78425 12.6763 7.27591 13.4763C7.69258 14.1763 8.27591 14.7596 8.90924 15.1513C9.10091 15.2763 9.17591 15.543 9.00924 15.693C8.95091 15.743 8.89258 15.7846 8.83424 15.8263L7.66758 16.5846C6.58425 17.2596 5.09258 16.5013 5.09258 15.1513V10.693C5.09258 10.1013 4.75924 9.34297 4.42591 8.9263L1.26758 5.55964C0.850911 5.13464 0.517578 4.3763 0.517578 3.8763V1.93464C0.517578 0.926302 1.26758 0.167969 2.17591 0.167969H13.1592C14.0676 0.167969 14.8176 0.926302 14.8176 1.8513Z" fill="url(#paint1_linear_0_1)"/>
<defs>
<linearGradient id="paint0_linear_0_1" x1="11.8916" y1="6.83203" x2="11.8916" y2="15.0487" gradientUnits="userSpaceOnUse">
<stop stop-color="#F58C1F"/>
<stop offset="1" stop-color="#F57D21"/>
</linearGradient>
<linearGradient id="paint1_linear_0_1" x1="7.66758" y1="0.167969" x2="7.66758" y2="16.8354" gradientUnits="userSpaceOnUse">
<stop stop-color="#F58C1F"/>
<stop offset="1" stop-color="#F57D21"/>
</linearGradient>
</defs>
</svg>
