<svg width="76" height="60" viewBox="0 0 76 60" fill="none" xmlns="http://www.w3.org/2000/svg">
<path d="M0 34.8398C25.2799 34.8398 50.6399 34.8398 75.9198 34.8398C75.9198 34.9998 75.9998 35.1598 75.9998 35.3998C75.9998 35.7198 75.9998 36.0398 75.9998 36.3598C75.9998 40.5998 75.9998 44.8398 75.9998 49.1598C75.9998 49.7198 75.9998 50.2798 75.9198 50.8398C75.9198 51.0798 75.8398 51.2398 75.7598 51.4798C75.5998 51.8798 75.3598 52.1998 74.8798 52.3598C74.4798 52.5198 74.1598 52.5198 73.7598 52.5198C72.2398 52.5998 70.6398 52.5998 69.1198 52.5198C69.0398 52.5198 68.8798 52.5198 68.7998 52.5198C68.7998 52.5998 68.7198 52.6798 68.7198 52.7598C67.5998 56.0398 65.3598 58.2798 62.0798 59.3998C61.1198 59.7198 60.1599 59.8798 59.1199 59.8798C58.4799 59.8798 57.8399 59.8798 57.1999 59.7998C56.2399 59.6398 55.2799 59.3198 54.4799 58.8398C53.5199 58.2798 52.6399 57.7198 51.8399 56.9198C50.6399 55.7198 49.8399 54.3598 49.3599 52.7598C49.3599 52.6798 49.3599 52.5998 49.2799 52.5198C49.1999 52.5198 49.1199 52.5198 49.1199 52.5198C43.8399 52.5198 38.4799 52.5998 33.1999 52.5998C31.3599 52.5998 29.5199 52.5998 27.7599 52.5998C27.5999 52.5998 27.3599 52.5998 27.1999 52.6798C27.0399 52.7598 27.0399 52.7598 26.9599 52.9198C26.5599 54.0398 25.9999 55.0798 25.2799 56.0398C24.2399 57.3998 22.8799 58.3598 21.2799 59.0798C19.92 59.7198 20.0799 59.5598 19.04 59.7198C18.08 59.8798 17.2 59.8798 16.24 59.7998C16 59.7998 15.76 59.7998 15.6 59.7998C14.88 59.7998 14.16 59.6398 13.52 59.3198C12.64 58.9198 11.84 58.5198 11.12 57.8798C10.64 57.4798 10.24 57.0798 9.91997 56.5198C9.83998 56.4398 9.83998 56.3598 9.75998 56.2798C8.87998 55.2398 8.23998 54.0398 7.83998 52.7598C7.75998 52.5998 7.67998 52.5198 7.51998 52.4398C7.03998 52.3598 6.79998 52.3598 6.47998 52.3598C5.51999 52.4398 4.47999 52.4398 3.51999 52.4398C2.87999 52.4398 2.31999 52.4398 1.68 52.4398C1.44 52.4398 1.12 52.3598 0.879998 52.2798C0.399999 52.0398 0.0799998 51.6398 0 51.0798C0 50.9198 0 50.7598 0 50.5998C0 45.3998 0 40.2798 0 35.0798C0 34.9998 0 34.9198 0 34.8398ZM17.28 43.5598C13.92 43.5598 11.28 46.2798 11.28 49.5598C11.28 52.9198 14 55.5598 17.28 55.6398C20.6399 55.6398 23.2799 52.9198 23.2799 49.5598C23.2799 46.2798 20.6399 43.5598 17.28 43.5598ZM59.0399 43.5598C55.6799 43.5598 53.0399 46.2798 53.0399 49.6398C53.0399 52.9998 55.7599 55.6398 59.0399 55.6398C62.3198 55.6398 65.0398 52.9198 65.0398 49.5598C65.0398 46.2798 62.3998 43.5598 59.0399 43.5598Z" fill="white" fill-opacity="0.5"/>
<path d="M75.999 32.5991C67.679 32.5991 59.359 32.5991 51.0391 32.5991C51.0391 32.5191 51.0391 32.5191 51.0391 32.4391V32.3591C51.0391 22.1192 51.0391 11.7992 51.0391 1.55921C51.0391 1.39922 51.0391 1.31922 51.0391 1.15922C51.1191 0.599218 51.5991 0.279219 52.1591 0.199219H52.2391C59.359 0.199219 66.479 0.199219 73.599 0.199219C74.559 0.199219 75.439 0.759217 75.759 1.63922C75.839 1.95921 75.919 2.19921 75.919 2.51921C75.919 4.67921 75.919 6.8392 75.919 8.99919C75.919 16.7592 75.919 24.5192 75.919 32.2791C75.999 32.3591 75.999 32.4391 75.999 32.5991Z" fill="white" fill-opacity="0.5"/>
<path d="M0 32.601C0 32.521 0 32.441 0 32.361C0 25.881 0 19.401 0 12.9211C0 8.20107 2.71999 3.56109 7.35998 1.40109C8.71998 0.761092 10.08 0.361093 11.6 0.201094C12 0.201094 12.4 0.121094 12.88 0.121094C16.72 0.121094 20.5599 0.121094 24.3999 0.121094C24.5599 0.121094 24.7199 0.121094 24.8799 0.201094C25.3599 0.361093 25.5999 0.761093 25.5999 1.24109C25.5999 1.32109 25.5999 1.40109 25.5999 1.48109C25.5999 11.7211 25.5999 21.961 25.5999 32.281C25.5999 32.361 25.5999 32.441 25.5999 32.521C17.04 32.601 8.55998 32.601 0 32.601Z" fill="white" fill-opacity="0.5"/>
<path d="M48.8794 32.5991C41.6794 32.5991 34.5594 32.5991 27.4395 32.5991C27.4395 32.5191 27.4395 32.4391 27.4395 32.3591C27.4395 27.6391 27.4395 22.9192 27.4395 18.2792C27.4395 12.6792 27.4395 7.1592 27.4395 1.55921C27.4395 1.39922 27.4395 1.23922 27.5195 1.07922C27.6795 0.599217 28.0795 0.199219 28.6395 0.199219H28.7195C35.0394 0.199219 41.3594 0.199219 47.6794 0.199219C47.8394 0.199219 47.9994 0.199218 48.1594 0.279218C48.6394 0.439218 48.9594 0.839217 48.9594 1.39922C48.9594 1.47922 48.9594 1.55921 48.9594 1.55921C48.9594 11.7992 48.9594 22.1192 48.9594 32.3591C48.8794 32.3591 48.8794 32.4391 48.8794 32.5991Z" fill="white" fill-opacity="0.5"/>
</svg>
