<svg width="76" height="66" viewBox="0 0 76 66" fill="none" xmlns="http://www.w3.org/2000/svg">
<path d="M76 25.7011C76 24.674 76 23.647 76 22.541C76 22.225 75.9185 21.909 75.7554 21.593C75.4292 21.04 74.9399 20.724 74.3691 20.645C74.0429 20.566 73.7167 20.566 73.3906 20.566C71.4335 20.566 69.4764 20.566 67.6009 20.566C67.3562 20.566 67.03 20.566 66.7854 20.408C66.2146 20.25 65.8884 19.934 65.6438 19.381C65.4807 18.986 65.3991 18.591 65.2361 18.117C64.176 14.9569 63.0343 11.7969 61.9743 8.63683C61.5665 7.60982 61.2403 6.50381 60.8326 5.47679C60.3433 3.97577 58.3863 3.65977 57 3.18576C54.7983 2.47475 52.515 1.92174 50.2318 1.52674C47.867 1.13173 45.4206 0.815729 43.0558 0.736728C41.6695 0.657727 40.3648 0.578726 38.9785 0.578726C36.0429 0.499725 33.1073 0.657727 30.1717 0.973731C29.3562 1.05273 28.5408 1.13173 27.7253 1.28974C24.7082 1.68474 21.7725 2.23775 18.9185 3.26476C18.103 3.50176 17.3691 3.81777 16.5536 4.13377C16.2275 4.21277 15.9828 4.37078 15.7382 4.60778C15.4936 4.84478 15.3305 5.16079 15.1674 5.47679C14.8412 6.50381 14.4335 7.60982 14.0258 8.63683C12.9657 11.7969 11.824 14.9569 10.7639 18.117C10.6009 18.512 10.5193 18.907 10.3562 19.381C10.1931 19.934 9.78541 20.25 9.21459 20.408C8.96996 20.487 8.72532 20.566 8.39914 20.566C6.44206 20.566 4.48498 20.566 2.60944 20.566C2.28326 20.566 1.95708 20.566 1.6309 20.645C0.978541 20.724 0.48927 21.04 0.244635 21.593C0.16309 21.909 0.081545 22.225 0.081545 22.541C0.081545 23.568 0.081545 24.595 0.081545 25.7011C0.081545 26.0961 0.16309 26.4911 0.244635 26.8861C0.32618 27.1231 0.407725 27.3601 0.48927 27.5971C0.733906 28.4661 1.30472 29.0981 2.03863 29.5721C2.36481 29.7301 2.60944 29.8881 2.93562 29.9671C3.09871 30.0461 3.34335 30.0461 3.50644 30.2041C3.75107 30.3621 4.07725 30.4411 4.32189 30.5991C4.56652 30.6781 4.64807 30.8361 4.56652 31.0731C4.48498 31.3101 4.40343 31.4681 4.32189 31.7051C4.07725 32.1001 3.83262 32.4952 3.50644 32.8902C3.09871 33.4432 2.77253 33.9962 2.36481 34.5492C2.03863 35.0232 1.71245 35.4972 1.46781 35.9712C1.06009 36.7612 0.733906 37.6302 0.48927 38.4202C0.16309 39.6052 0 40.8693 0 42.0543C0 49.4804 0 56.8275 0 64.2536C0 64.3326 0 64.4116 0 64.4906C0 64.7276 0.0815449 64.8856 0.16309 65.0436C0.32618 65.2016 0.48927 65.3596 0.733905 65.4386C1.14163 65.2806 1.30472 65.2806 1.46781 65.2806C5.13734 65.2806 8.72532 65.2806 12.3949 65.2806C12.4764 65.2806 12.5579 65.2806 12.6395 65.2806C13.0472 65.2806 13.3734 65.0436 13.618 64.7276C13.7811 64.5696 13.7811 64.3326 13.7811 64.0956C13.7811 61.0935 13.7811 54.6155 13.7811 54.5364H62.2189C62.2189 54.6155 62.3004 61.0935 62.2189 64.0956C62.2189 64.3326 62.2189 64.5696 62.382 64.7276C62.6266 65.0436 62.9528 65.2016 63.3605 65.2806C63.4421 65.2806 63.5236 65.2806 63.6052 65.2806C67.2747 65.2806 70.8627 65.2806 74.5322 65.2806C74.6953 65.2806 74.9399 65.2806 75.103 65.2016C75.3476 65.1226 75.5107 65.0436 75.6738 64.8066C75.8369 64.6486 75.9185 64.4906 75.8369 64.2536C75.8369 64.1746 75.8369 64.0956 75.8369 64.0166C75.8369 56.5905 75.8369 49.2434 75.8369 41.8173C75.8369 40.5533 75.6738 39.3682 75.3476 38.1832C75.103 37.3142 74.8584 36.5242 74.3691 35.7342C74.1245 35.2602 73.7983 34.7862 73.4721 34.3122C73.1459 33.7592 72.7382 33.2062 72.3305 32.6532C72.0858 32.2582 71.7597 31.8631 71.515 31.4681C71.4335 31.3101 71.3519 31.0731 71.2704 30.8361C71.1888 30.5991 71.2704 30.4411 71.515 30.3621C71.7597 30.2831 72.0858 30.1251 72.3305 29.9671C72.4936 29.8881 72.7382 29.8091 72.9013 29.7301C73.2275 29.6511 73.5536 29.4931 73.7983 29.3351C74.6137 28.8611 75.103 28.2291 75.3476 27.3601C75.4292 27.1231 75.5107 26.8861 75.5923 26.6491C75.9185 26.4911 76 26.0961 76 25.7011ZM62.1373 21.909C61.7296 22.778 60.4249 22.857 59.5279 23.015C58.5494 23.252 57.6524 23.41 56.6738 23.568C55.0429 23.884 53.4936 24.121 51.8627 24.279C47.867 24.753 43.8712 24.9111 39.8755 24.9901C38.7339 24.9901 37.5107 24.9901 36.3691 24.9901C32.3734 24.9901 28.2961 24.8321 24.3004 24.279C21.7725 23.963 19.2446 23.568 16.7983 23.015C16.1459 22.857 15.4936 22.778 14.8412 22.541C14.3519 22.383 13.9442 22.146 13.8627 21.672C13.618 19.302 14.6781 16.9319 15.412 14.7199C15.9828 12.9029 16.6352 11.0859 17.3691 9.34784C17.6137 8.79484 17.8584 8.16283 18.103 7.60982C19 6.0298 20.6309 5.00279 22.4249 4.52878C24.5451 3.89677 26.9099 3.81777 29.1116 3.65977C32.1288 3.42276 35.1459 3.18576 38.2446 3.18576C39.1416 3.18576 39.9571 3.18576 40.8541 3.18576C43.1373 3.26476 45.4206 3.42276 47.7039 3.58077C49.824 3.73877 52.1073 3.89677 54.1459 4.60778C55.3691 5.00278 56.5107 5.71379 57.3262 6.66181C57.7339 7.21481 58.0601 7.92582 58.3047 8.63683C58.6309 9.50584 58.9571 10.3749 59.2833 11.2439C59.8541 12.6659 60.3433 14.0879 60.8326 15.5889C61.485 17.406 62.382 19.381 62.382 21.277C62.3004 21.514 62.2189 21.751 62.1373 21.909Z" fill="white" fill-opacity="0.5"/>
</svg>
