<svg width="76" height="56" viewBox="0 0 76 56" fill="none" xmlns="http://www.w3.org/2000/svg">
<path d="M25.2008 12.6476C25.2008 12.7271 25.2008 12.886 25.2008 12.9655C25.2008 18.2124 25.2008 23.4593 25.2008 28.7061C25.2008 28.9446 25.2008 29.1831 25.2008 29.4216C25.2008 30.1371 25.7573 30.6141 26.3933 30.6141C27.1883 30.6141 27.9833 30.6141 28.6987 30.6141C29.4142 30.6141 29.8912 30.1371 29.8912 29.4216C29.8912 28.5471 29.8912 27.5932 29.8912 26.7187C29.8912 18.3714 29.8912 10.1036 29.8912 1.75634C29.8912 1.59735 29.8912 1.51785 29.8912 1.35885C29.9707 0.802367 30.4477 0.484375 31.0042 0.484375C31.0837 0.484375 31.1632 0.484375 31.2427 0.484375C45.7113 0.484375 60.1799 0.484375 74.6485 0.484375C74.8075 0.484375 74.9665 0.484375 75.1255 0.484375C75.7615 0.643371 76 1.19986 76 1.67684C76 5.01576 76 8.35467 76 11.7731C76 22.8233 76 33.953 76 45.0032C76 45.4802 76 46.0367 75.841 46.5137V46.5932C75.682 47.4676 75.1255 48.0241 74.251 48.1036C73.8536 48.1831 73.5356 48.1831 73.1381 48.1831C71.7866 48.1831 70.3556 48.1831 69.0042 48.1831C68.8452 48.1831 68.6862 48.1831 68.6067 48.1831C68.4477 48.1831 68.4477 48.1831 68.4477 48.3421C68.2887 48.9781 68.0502 49.5346 67.7322 50.0911C66.1423 52.953 63.8368 54.7019 60.6569 55.3379C55.569 56.2919 50.6402 53.3505 49.0502 48.3421C49.0502 48.2626 48.9707 48.1831 48.9707 48.1831C41.8954 48.1831 34.8996 48.1831 27.8243 48.1831C27.0293 50.727 25.5188 52.794 23.2134 54.1455C21.5439 55.0994 19.7155 55.5764 17.8075 55.4969C15.5816 55.4174 13.5941 54.7019 11.8452 53.3505C10.0962 51.999 8.98326 50.2501 8.26778 48.1036C8.18828 48.1036 8.10879 48.1036 8.02929 48.1036C6.35983 48.1036 4.69038 48.1036 2.94142 48.1036C2.54393 48.1036 2.14644 48.1036 1.82845 47.9446C0.794979 47.5471 0.238494 46.8316 0.0794978 45.7982C0.0794978 45.7187 0.0794978 45.5597 0.0794978 45.4802C0.0794978 42.4593 0.0794979 39.4383 0 36.4174C0 34.271 0.0794979 32.1245 0.158996 29.9781C0.158996 29.2626 0.238494 28.6266 0.317991 27.9111C0.635983 25.0492 1.43096 22.4258 3.10042 20.0409C5.16736 17.1789 7.79079 15.0325 11.0502 13.681C11.9247 13.2835 12.7992 13.1245 13.7531 12.9655C15.0251 12.8066 16.3766 12.7271 17.6485 12.6476C19.954 12.5681 22.3389 12.5681 24.6444 12.6476C24.7238 12.6476 24.9623 12.6476 25.2008 12.6476ZM24.0084 45.4007C24.0084 42.0618 21.3054 39.3588 17.9665 39.3588C14.6276 39.3588 11.9247 42.0618 11.9247 45.4007C11.9247 48.7396 14.6276 51.4425 17.887 51.522C21.3054 51.4425 24.0084 48.7396 24.0084 45.4007ZM64.7113 45.4007C64.7113 42.0618 62.0084 39.3588 58.6695 39.3588C55.3305 39.3588 52.6276 42.0618 52.6276 45.4007C52.6276 48.7396 55.3305 51.4425 58.6695 51.4425C62.0084 51.4425 64.7113 48.7396 64.7113 45.4007Z" fill="white" fill-opacity="0.5"/>
</svg>
