<svg width="329" height="177" viewBox="0 0 329 177" fill="none" xmlns="http://www.w3.org/2000/svg">
<g filter="url(#filter0_d_26_1099)">
<g clip-path="url(#clip0_26_1099)">
<rect x="17" y="17" width="285" height="133" rx="5" fill="url(#paint0_linear_26_1099)"/>
<path d="M138.148 55.947C138.148 50.9759 138.148 45.9412 138.148 40.9702C138.148 39.122 138.34 37.3375 139.104 35.6167C139.869 33.9597 141.208 32.94 142.928 32.4939C143.884 32.239 144.84 32.0478 145.796 32.0478C149.301 31.9841 152.807 31.9841 156.312 32.0478C157.905 32.0478 159.562 32.3665 160.964 33.2587C162.111 34.0235 162.94 35.0432 163.386 36.3815C163.896 37.8473 164.023 39.4406 164.023 40.9702C164.023 51.0397 164.023 61.0455 164.023 71.115C164.023 72.8994 163.896 74.6202 163.131 76.2772C162.303 78.0617 160.837 79.1451 158.925 79.5275C157.841 79.7824 156.758 79.8461 155.611 79.9099C153.253 79.9736 150.831 80.0373 148.473 79.9736C146.816 79.9099 145.095 79.8461 143.502 79.5912C140.698 79.1451 138.977 77.2969 138.467 74.4927C138.276 73.2818 138.148 72.0072 138.148 70.7963C138.148 65.8253 138.148 60.8543 138.148 55.947ZM151.086 67.6098C149.174 67.6098 147.581 69.203 147.517 71.115C147.517 73.0269 149.174 74.6839 151.086 74.6839C152.998 74.6839 154.591 73.0269 154.591 71.115C154.591 69.203 152.998 67.6098 151.086 67.6098ZM151.022 39.4406C152.233 39.4406 153.38 39.4406 154.591 39.4406C155.802 39.4406 156.503 38.8033 156.567 37.8473C156.567 36.8914 155.802 36.2541 154.591 36.2541H154.527C152.233 36.2541 149.939 36.2541 147.581 36.2541C147.326 36.2541 147.007 36.3178 146.752 36.3815C146.051 36.5727 145.605 37.1463 145.605 37.7836C145.605 38.4846 145.987 39.0582 146.625 39.3131C146.943 39.4406 147.262 39.4406 147.581 39.4406C148.728 39.4406 149.875 39.4406 151.022 39.4406Z" fill="white"/>
<path d="M165.363 41.4792C166.065 42.1165 166.829 42.0528 167.594 42.0528C169.251 42.0528 170.844 42.0528 172.501 42.0528C172.82 42.0528 173.139 42.0528 173.457 41.9253C174.031 41.7979 174.477 41.2243 174.477 40.6507C174.477 40.0134 174.031 39.5036 173.394 39.3761C173.139 39.3124 172.884 39.3124 172.693 39.3124C170.844 39.3124 168.996 39.3124 167.084 39.3124C166.574 39.3124 166.001 39.5036 165.363 39.5673C165.363 39.5036 165.3 39.3124 165.236 39.1849C165.045 38.2927 164.917 37.3367 164.726 36.4445C164.599 35.9983 164.662 35.7434 165.172 35.7434C167.594 35.7434 170.016 35.6797 172.438 35.6797C173.712 35.6797 175.051 35.7434 176.325 35.9983C178.747 36.4445 180.149 38.0377 180.531 40.4595C180.723 41.6067 180.85 42.7538 180.85 43.901C180.85 52.1223 180.85 60.4074 180.85 68.6287C180.85 69.7758 180.723 70.923 180.468 72.0064C179.958 74.4282 178.301 75.7028 175.943 76.0215C174.732 76.2127 173.457 76.2127 172.246 76.2764C170.08 76.3401 167.913 76.2764 165.682 76.2764C165.491 76.2764 165.363 76.2764 165.172 76.2764C164.726 76.2764 164.535 76.0852 164.726 75.5754C165.172 74.1733 165.363 72.7075 165.363 71.1779C165.363 61.5545 165.363 51.8674 165.363 42.244C165.363 42.0528 165.363 41.7979 165.363 41.4792ZM172.82 68.7561C172.82 67.1629 171.482 65.7608 169.825 65.7608C168.168 65.7608 166.766 67.0991 166.829 68.7561C166.829 70.4131 168.231 71.7515 169.825 71.7515C171.418 71.8152 172.82 70.3494 172.82 68.7561Z" fill="white"/>
<path d="M97.7646 105.693H94.6338V108.332H98.3389V110H92.624V100.047H98.3252V101.722H94.6338V104.073H97.7646V105.693ZM99.0361 106.076C99.0361 104.864 99.2549 103.959 99.6924 103.362C100.13 102.765 100.743 102.467 101.531 102.467C102.201 102.467 102.718 102.731 103.083 103.26L103.158 102.604H104.901V110C104.901 110.943 104.637 111.663 104.108 112.16C103.58 112.661 102.821 112.912 101.832 112.912C101.426 112.912 101 112.83 100.554 112.666C100.107 112.507 99.7744 112.301 99.5557 112.051L100.205 110.711C100.387 110.902 100.624 111.057 100.916 111.176C101.208 111.299 101.483 111.36 101.743 111.36C102.176 111.36 102.486 111.256 102.673 111.046C102.864 110.841 102.962 110.508 102.967 110.048V109.412C102.598 109.895 102.117 110.137 101.524 110.137C100.736 110.137 100.125 109.831 99.6924 109.221C99.264 108.605 99.0452 107.74 99.0361 106.623V106.076ZM100.971 106.562C100.971 107.245 101.06 107.744 101.237 108.059C101.415 108.368 101.698 108.523 102.085 108.523C102.481 108.523 102.775 108.38 102.967 108.093V104.559C102.766 104.244 102.477 104.087 102.099 104.087C101.716 104.087 101.431 104.244 101.244 104.559C101.062 104.873 100.971 105.379 100.971 106.076V106.562ZM108.682 106.78L109.666 102.604H111.73L109.297 111.107C108.932 112.361 108.246 112.987 107.239 112.987C107.007 112.987 106.743 112.944 106.446 112.857V111.347L106.672 111.354C106.973 111.354 107.198 111.294 107.349 111.176C107.504 111.062 107.62 110.861 107.697 110.574L107.848 110.075L105.715 102.604H107.793L108.682 106.78ZM115.832 108.018C115.832 107.854 115.752 107.703 115.593 107.566C115.438 107.425 115.089 107.236 114.547 106.999C113.749 106.675 113.2 106.34 112.899 105.994C112.603 105.648 112.455 105.217 112.455 104.702C112.455 104.055 112.688 103.522 113.152 103.103C113.622 102.679 114.242 102.467 115.012 102.467C115.823 102.467 116.472 102.676 116.96 103.096C117.448 103.515 117.691 104.078 117.691 104.784H115.757C115.757 104.183 115.506 103.882 115.005 103.882C114.8 103.882 114.631 103.946 114.499 104.073C114.367 104.201 114.301 104.379 114.301 104.606C114.301 104.771 114.374 104.916 114.52 105.044C114.665 105.167 115.009 105.345 115.552 105.577C116.34 105.869 116.896 106.195 117.22 106.555C117.548 106.91 117.712 107.373 117.712 107.942C117.712 108.603 117.464 109.134 116.967 109.535C116.47 109.936 115.818 110.137 115.012 110.137C114.469 110.137 113.991 110.032 113.576 109.822C113.161 109.608 112.836 109.312 112.599 108.934C112.366 108.555 112.25 108.147 112.25 107.71H114.089C114.098 108.047 114.175 108.3 114.321 108.469C114.472 108.637 114.715 108.722 115.053 108.722C115.572 108.722 115.832 108.487 115.832 108.018ZM121.055 108.394H123.98V110H118.758V108.79L121.615 104.217H118.826V102.604H123.939V103.772L121.055 108.394ZM128.137 110.137C127.143 110.137 126.368 109.84 125.812 109.248C125.257 108.656 124.979 107.808 124.979 106.705V106.117C124.979 104.951 125.234 104.05 125.744 103.417C126.255 102.784 126.986 102.467 127.938 102.467C128.868 102.467 129.568 102.765 130.037 103.362C130.507 103.955 130.746 104.834 130.755 106.001V106.951H126.906C126.934 107.498 127.054 107.899 127.269 108.154C127.483 108.405 127.813 108.53 128.26 108.53C128.907 108.53 129.447 108.309 129.88 107.867L130.639 109.036C130.402 109.364 130.058 109.631 129.606 109.836C129.155 110.036 128.665 110.137 128.137 110.137ZM126.92 105.598H128.854V105.42C128.845 104.978 128.772 104.643 128.636 104.415C128.499 104.187 128.262 104.073 127.925 104.073C127.588 104.073 127.341 104.194 127.187 104.436C127.036 104.677 126.947 105.064 126.92 105.598ZM135.499 104.47L134.856 104.415C134.328 104.415 133.97 104.647 133.783 105.112V110H131.842V102.604H133.667L133.722 103.403C134.027 102.779 134.449 102.467 134.986 102.467C135.205 102.467 135.383 102.496 135.52 102.556L135.499 104.47ZM140.134 109.323C139.733 109.866 139.195 110.137 138.521 110.137C137.841 110.137 137.326 109.904 136.976 109.439C136.625 108.97 136.449 108.289 136.449 107.396V102.604H138.384V107.443C138.393 108.163 138.632 108.523 139.102 108.523C139.544 108.523 139.863 108.332 140.059 107.949V102.604H142.007V110H140.188L140.134 109.323ZM140.701 99.5068H142.39L140.886 101.564H139.471L140.701 99.5068ZM138.329 99.5068H139.997L138.691 101.564H137.311L138.329 99.5068ZM149.041 107.266L149.978 102.604H151.994L149.964 110H148.118L146.081 102.604H148.104L149.041 107.266ZM156.308 110C156.253 109.886 156.198 109.695 156.144 109.426C155.797 109.9 155.328 110.137 154.735 110.137C154.116 110.137 153.601 109.932 153.19 109.521C152.785 109.111 152.582 108.58 152.582 107.929C152.582 107.154 152.828 106.555 153.32 106.131C153.817 105.707 154.53 105.491 155.46 105.481H156.048V104.887C156.048 104.554 155.991 104.319 155.877 104.183C155.763 104.046 155.597 103.978 155.378 103.978C154.895 103.978 154.653 104.26 154.653 104.825H152.719C152.719 104.142 152.974 103.579 153.484 103.137C153.999 102.69 154.649 102.467 155.433 102.467C156.244 102.467 156.87 102.679 157.312 103.103C157.759 103.522 157.982 104.123 157.982 104.907V108.387C157.992 109.025 158.083 109.524 158.256 109.884V110H156.308ZM155.166 108.619C155.38 108.619 155.562 108.576 155.713 108.489C155.863 108.403 155.975 108.3 156.048 108.182V106.644H155.583C155.255 106.644 154.995 106.748 154.804 106.958C154.617 107.168 154.523 107.448 154.523 107.799C154.523 108.346 154.738 108.619 155.166 108.619ZM155.747 99.5H157.921L156.021 101.619H154.407L155.747 99.5ZM162.658 108.018C162.658 107.854 162.578 107.703 162.419 107.566C162.264 107.425 161.915 107.236 161.373 106.999C160.576 106.675 160.026 106.34 159.726 105.994C159.429 105.648 159.281 105.217 159.281 104.702C159.281 104.055 159.514 103.522 159.979 103.103C160.448 102.679 161.068 102.467 161.838 102.467C162.649 102.467 163.299 102.676 163.786 103.096C164.274 103.515 164.518 104.078 164.518 104.784H162.583C162.583 104.183 162.332 103.882 161.831 103.882C161.626 103.882 161.457 103.946 161.325 104.073C161.193 104.201 161.127 104.379 161.127 104.606C161.127 104.771 161.2 104.916 161.346 105.044C161.492 105.167 161.836 105.345 162.378 105.577C163.166 105.869 163.722 106.195 164.046 106.555C164.374 106.91 164.538 107.373 164.538 107.942C164.538 108.603 164.29 109.134 163.793 109.535C163.296 109.936 162.645 110.137 161.838 110.137C161.296 110.137 160.817 110.032 160.402 109.822C159.988 109.608 159.662 109.312 159.425 108.934C159.192 108.555 159.076 108.147 159.076 107.71H160.915C160.924 108.047 161.002 108.3 161.147 108.469C161.298 108.637 161.542 108.722 161.879 108.722C162.398 108.722 162.658 108.487 162.658 108.018ZM169.255 110C169.2 109.886 169.146 109.695 169.091 109.426C168.744 109.9 168.275 110.137 167.683 110.137C167.063 110.137 166.548 109.932 166.138 109.521C165.732 109.111 165.529 108.58 165.529 107.929C165.529 107.154 165.775 106.555 166.268 106.131C166.764 105.707 167.478 105.491 168.407 105.481H168.995V104.887C168.995 104.554 168.938 104.319 168.824 104.183C168.71 104.046 168.544 103.978 168.325 103.978C167.842 103.978 167.601 104.26 167.601 104.825H165.666C165.666 104.142 165.921 103.579 166.432 103.137C166.947 102.69 167.596 102.467 168.38 102.467C169.191 102.467 169.818 102.679 170.26 103.103C170.706 103.522 170.93 104.123 170.93 104.907V108.387C170.939 109.025 171.03 109.524 171.203 109.884V110H169.255ZM168.113 108.619C168.327 108.619 168.51 108.576 168.66 108.489C168.811 108.403 168.922 108.3 168.995 108.182V106.644H168.53C168.202 106.644 167.942 106.748 167.751 106.958C167.564 107.168 167.471 107.448 167.471 107.799C167.471 108.346 167.685 108.619 168.113 108.619ZM168.694 99.5H170.868L168.968 101.619H167.354L168.694 99.5ZM175.981 104.47L175.339 104.415C174.81 104.415 174.452 104.647 174.266 105.112V110H172.324V102.604H174.149L174.204 103.403C174.509 102.779 174.931 102.467 175.469 102.467C175.688 102.467 175.865 102.496 176.002 102.556L175.981 104.47ZM179.01 110H177.068V99.5H179.01V110ZM184.021 110C183.966 109.886 183.911 109.695 183.856 109.426C183.51 109.9 183.041 110.137 182.448 110.137C181.828 110.137 181.313 109.932 180.903 109.521C180.498 109.111 180.295 108.58 180.295 107.929C180.295 107.154 180.541 106.555 181.033 106.131C181.53 105.707 182.243 105.491 183.173 105.481H183.761V104.887C183.761 104.554 183.704 104.319 183.59 104.183C183.476 104.046 183.31 103.978 183.091 103.978C182.608 103.978 182.366 104.26 182.366 104.825H180.432C180.432 104.142 180.687 103.579 181.197 103.137C181.712 102.69 182.362 102.467 183.146 102.467C183.957 102.467 184.583 102.679 185.025 103.103C185.472 103.522 185.695 104.123 185.695 104.907V108.387C185.704 109.025 185.796 109.524 185.969 109.884V110H184.021ZM182.879 108.619C183.093 108.619 183.275 108.576 183.426 108.489C183.576 108.403 183.688 108.3 183.761 108.182V106.644H183.296C182.968 106.644 182.708 106.748 182.517 106.958C182.33 107.168 182.236 107.448 182.236 107.799C182.236 108.346 182.451 108.619 182.879 108.619ZM183.46 99.5H185.634L183.733 101.619H182.12L183.46 99.5ZM190.371 108.018C190.371 107.854 190.291 107.703 190.132 107.566C189.977 107.425 189.628 107.236 189.086 106.999C188.288 106.675 187.739 106.34 187.438 105.994C187.142 105.648 186.994 105.217 186.994 104.702C186.994 104.055 187.227 103.522 187.691 103.103C188.161 102.679 188.781 102.467 189.551 102.467C190.362 102.467 191.011 102.676 191.499 103.096C191.987 103.515 192.23 104.078 192.23 104.784H190.296C190.296 104.183 190.045 103.882 189.544 103.882C189.339 103.882 189.17 103.946 189.038 104.073C188.906 104.201 188.84 104.379 188.84 104.606C188.84 104.771 188.913 104.916 189.059 105.044C189.204 105.167 189.549 105.345 190.091 105.577C190.879 105.869 191.435 106.195 191.759 106.555C192.087 106.91 192.251 107.373 192.251 107.942C192.251 108.603 192.003 109.134 191.506 109.535C191.009 109.936 190.357 110.137 189.551 110.137C189.008 110.137 188.53 110.032 188.115 109.822C187.701 109.608 187.375 109.312 187.138 108.934C186.905 108.555 186.789 108.147 186.789 107.71H188.628C188.637 108.047 188.715 108.3 188.86 108.469C189.011 108.637 189.255 108.722 189.592 108.722C190.111 108.722 190.371 108.487 190.371 108.018ZM194.028 112.509L192.996 111.969L193.256 111.483C193.548 110.946 193.698 110.403 193.707 109.856V108.318H195.389L195.382 109.692C195.377 110.175 195.254 110.677 195.013 111.196C194.771 111.716 194.443 112.153 194.028 112.509ZM203.64 110C203.585 109.886 203.53 109.695 203.476 109.426C203.129 109.9 202.66 110.137 202.067 110.137C201.448 110.137 200.933 109.932 200.522 109.521C200.117 109.111 199.914 108.58 199.914 107.929C199.914 107.154 200.16 106.555 200.652 106.131C201.149 105.707 201.862 105.491 202.792 105.481H203.38V104.887C203.38 104.554 203.323 104.319 203.209 104.183C203.095 104.046 202.929 103.978 202.71 103.978C202.227 103.978 201.985 104.26 201.985 104.825H200.051C200.051 104.142 200.306 103.579 200.816 103.137C201.331 102.69 201.981 102.467 202.765 102.467C203.576 102.467 204.202 102.679 204.645 103.103C205.091 103.522 205.314 104.123 205.314 104.907V108.387C205.324 109.025 205.415 109.524 205.588 109.884V110H203.64ZM202.498 108.619C202.712 108.619 202.895 108.576 203.045 108.489C203.195 108.403 203.307 108.3 203.38 108.182V106.644H202.915C202.587 106.644 202.327 106.748 202.136 106.958C201.949 107.168 201.855 107.448 201.855 107.799C201.855 108.346 202.07 108.619 202.498 108.619ZM209.17 107.149L208.65 107.73V110H206.716V99.5H208.65V105.174L208.89 104.818L210.229 102.604H212.533L210.387 105.652L212.738 110H210.523L209.17 107.149ZM216.929 110C216.874 109.886 216.819 109.695 216.765 109.426C216.418 109.9 215.949 110.137 215.356 110.137C214.737 110.137 214.222 109.932 213.812 109.521C213.406 109.111 213.203 108.58 213.203 107.929C213.203 107.154 213.449 106.555 213.941 106.131C214.438 105.707 215.151 105.491 216.081 105.481H216.669V104.887C216.669 104.554 216.612 104.319 216.498 104.183C216.384 104.046 216.218 103.978 215.999 103.978C215.516 103.978 215.274 104.26 215.274 104.825H213.34C213.34 104.142 213.595 103.579 214.105 103.137C214.62 102.69 215.27 102.467 216.054 102.467C216.865 102.467 217.492 102.679 217.934 103.103C218.38 103.522 218.604 104.123 218.604 104.907V108.387C218.613 109.025 218.704 109.524 218.877 109.884V110H216.929ZM215.787 108.619C216.001 108.619 216.184 108.576 216.334 108.489C216.484 108.403 216.596 108.3 216.669 108.182V106.644H216.204C215.876 106.644 215.616 106.748 215.425 106.958C215.238 107.168 215.145 107.448 215.145 107.799C215.145 108.346 215.359 108.619 215.787 108.619ZM216.368 99.5H218.542L216.642 101.619H215.028L216.368 99.5ZM223.655 104.47L223.013 104.415C222.484 104.415 222.126 104.647 221.939 105.112V110H219.998V102.604H221.823L221.878 103.403C222.183 102.779 222.605 102.467 223.143 102.467C223.361 102.467 223.539 102.496 223.676 102.556L223.655 104.47ZM101.217 122.604L101.271 123.287C101.704 122.74 102.276 122.467 102.987 122.467C103.726 122.467 104.247 122.799 104.553 123.465C104.977 122.799 105.58 122.467 106.364 122.467C107.659 122.467 108.322 123.362 108.354 125.153V130H106.419V125.276C106.419 124.848 106.36 124.543 106.241 124.36C106.123 124.178 105.922 124.087 105.64 124.087C105.28 124.087 105.011 124.308 104.833 124.75L104.847 124.982V130H102.912V125.29C102.912 124.866 102.855 124.561 102.741 124.374C102.627 124.183 102.424 124.087 102.133 124.087C101.8 124.087 101.536 124.267 101.34 124.627V130H99.4053V122.604H101.217ZM109.563 126.062C109.563 124.941 109.828 124.062 110.356 123.424C110.885 122.786 111.617 122.467 112.551 122.467C113.494 122.467 114.23 122.786 114.759 123.424C115.287 124.062 115.552 124.946 115.552 126.076V126.548C115.552 127.674 115.29 128.553 114.766 129.187C114.242 129.82 113.508 130.137 112.564 130.137C111.617 130.137 110.878 129.82 110.35 129.187C109.826 128.549 109.563 127.664 109.563 126.534V126.062ZM111.505 126.548C111.505 127.869 111.858 128.53 112.564 128.53C113.216 128.53 113.567 127.979 113.617 126.876L113.624 126.062C113.624 125.388 113.531 124.889 113.344 124.565C113.157 124.237 112.893 124.073 112.551 124.073C112.223 124.073 111.965 124.237 111.778 124.565C111.596 124.889 111.505 125.388 111.505 126.062V126.548ZM122.531 126.541C122.531 127.74 122.34 128.64 121.957 129.241C121.574 129.838 120.973 130.137 120.152 130.137C119.51 130.137 118.995 129.847 118.607 129.269L118.546 130H116.762V119.5H118.696V123.205C119.061 122.713 119.542 122.467 120.139 122.467C120.959 122.467 121.561 122.765 121.943 123.362C122.326 123.955 122.522 124.825 122.531 125.974V126.541ZM120.597 126.056C120.597 125.276 120.521 124.755 120.371 124.49C120.221 124.221 119.959 124.087 119.585 124.087C119.179 124.087 118.883 124.271 118.696 124.641V128.011C118.869 128.357 119.17 128.53 119.599 128.53C119.968 128.53 120.223 128.41 120.364 128.168C120.51 127.926 120.588 127.457 120.597 126.76V126.056ZM125.724 130H123.782V122.604H125.724V130ZM123.693 120.689C123.693 120.389 123.789 120.143 123.98 119.951C124.172 119.76 124.427 119.664 124.746 119.664C125.065 119.664 125.32 119.76 125.512 119.951C125.703 120.143 125.799 120.389 125.799 120.689C125.799 120.986 125.703 121.232 125.512 121.428C125.325 121.624 125.07 121.722 124.746 121.722C124.423 121.722 124.165 121.624 123.974 121.428C123.787 121.232 123.693 120.986 123.693 120.689ZM129.251 130H127.31V119.5H129.251V130ZM137.488 130C137.434 129.886 137.379 129.695 137.324 129.426C136.978 129.9 136.508 130.137 135.916 130.137C135.296 130.137 134.781 129.932 134.371 129.521C133.965 129.111 133.763 128.58 133.763 127.929C133.763 127.154 134.009 126.555 134.501 126.131C134.998 125.707 135.711 125.491 136.641 125.481H137.229V124.887C137.229 124.554 137.172 124.319 137.058 124.183C136.944 124.046 136.777 123.978 136.559 123.978C136.076 123.978 135.834 124.26 135.834 124.825H133.899C133.899 124.142 134.155 123.579 134.665 123.137C135.18 122.69 135.829 122.467 136.613 122.467C137.424 122.467 138.051 122.679 138.493 123.103C138.94 123.522 139.163 124.123 139.163 124.907V128.387C139.172 129.025 139.263 129.524 139.437 129.884V130H137.488ZM136.347 128.619C136.561 128.619 136.743 128.576 136.894 128.489C137.044 128.403 137.156 128.3 137.229 128.182V126.644H136.764C136.436 126.644 136.176 126.748 135.984 126.958C135.798 127.168 135.704 127.448 135.704 127.799C135.704 128.346 135.918 128.619 136.347 128.619ZM146.327 126.534C146.327 127.696 146.127 128.587 145.726 129.207C145.329 129.827 144.737 130.137 143.948 130.137C143.347 130.137 142.864 129.893 142.499 129.405V132.844H140.564V122.604H142.355L142.424 123.28C142.793 122.738 143.297 122.467 143.935 122.467C144.723 122.467 145.315 122.754 145.712 123.328C146.113 123.902 146.318 124.782 146.327 125.967V126.534ZM144.399 126.049C144.399 125.333 144.32 124.827 144.16 124.531C144.005 124.235 143.741 124.087 143.367 124.087C142.971 124.087 142.681 124.253 142.499 124.586V128.052C142.672 128.371 142.966 128.53 143.381 128.53C143.764 128.53 144.028 128.368 144.174 128.045C144.324 127.721 144.399 127.218 144.399 126.534V126.049ZM153.259 126.534C153.259 127.696 153.058 128.587 152.657 129.207C152.261 129.827 151.668 130.137 150.88 130.137C150.278 130.137 149.795 129.893 149.431 129.405V132.844H147.496V122.604H149.287L149.355 123.28C149.725 122.738 150.228 122.467 150.866 122.467C151.655 122.467 152.247 122.754 152.644 123.328C153.045 123.902 153.25 124.782 153.259 125.967V126.534ZM151.331 126.049C151.331 125.333 151.251 124.827 151.092 124.531C150.937 124.235 150.673 124.087 150.299 124.087C149.902 124.087 149.613 124.253 149.431 124.586V128.052C149.604 128.371 149.898 128.53 150.312 128.53C150.695 128.53 150.96 128.368 151.105 128.045C151.256 127.721 151.331 127.218 151.331 126.534V126.049ZM156.458 130H154.517V119.5H156.458V130ZM159.985 130H158.044V122.604H159.985V130ZM157.955 120.689C157.955 120.389 158.051 120.143 158.242 119.951C158.434 119.76 158.689 119.664 159.008 119.664C159.327 119.664 159.582 119.76 159.773 119.951C159.965 120.143 160.061 120.389 160.061 120.689C160.061 120.986 159.965 121.232 159.773 121.428C159.587 121.624 159.331 121.722 159.008 121.722C158.684 121.722 158.427 121.624 158.235 121.428C158.049 121.232 157.955 120.986 157.955 120.689ZM163.937 127.149L163.417 127.73V130H161.482V119.5H163.417V125.174L163.656 124.818L164.996 122.604H167.3L165.153 125.652L167.505 130H165.29L163.937 127.149ZM171.695 130C171.641 129.886 171.586 129.695 171.531 129.426C171.185 129.9 170.715 130.137 170.123 130.137C169.503 130.137 168.988 129.932 168.578 129.521C168.173 129.111 167.97 128.58 167.97 127.929C167.97 127.154 168.216 126.555 168.708 126.131C169.205 125.707 169.918 125.491 170.848 125.481H171.436V124.887C171.436 124.554 171.379 124.319 171.265 124.183C171.151 124.046 170.984 123.978 170.766 123.978C170.283 123.978 170.041 124.26 170.041 124.825H168.106C168.106 124.142 168.362 123.579 168.872 123.137C169.387 122.69 170.036 122.467 170.82 122.467C171.632 122.467 172.258 122.679 172.7 123.103C173.147 123.522 173.37 124.123 173.37 124.907V128.387C173.379 129.025 173.47 129.524 173.644 129.884V130H171.695ZM170.554 128.619C170.768 128.619 170.95 128.576 171.101 128.489C171.251 128.403 171.363 128.3 171.436 128.182V126.644H170.971C170.643 126.644 170.383 126.748 170.191 126.958C170.005 127.168 169.911 127.448 169.911 127.799C169.911 128.346 170.125 128.619 170.554 128.619ZM171.135 119.5H173.309L171.408 121.619H169.795L171.135 119.5ZM177.444 128.53C178.005 128.53 178.29 128.166 178.299 127.437H180.117C180.108 128.243 179.86 128.895 179.372 129.392C178.884 129.888 178.256 130.137 177.485 130.137C176.533 130.137 175.806 129.84 175.305 129.248C174.803 128.656 174.548 127.783 174.539 126.63V126.042C174.539 124.88 174.785 123.993 175.277 123.383C175.774 122.772 176.506 122.467 177.472 122.467C178.287 122.467 178.93 122.72 179.399 123.226C179.869 123.727 180.108 124.44 180.117 125.365H178.299C178.294 124.951 178.226 124.632 178.094 124.408C177.962 124.185 177.743 124.073 177.438 124.073C177.1 124.073 176.859 124.194 176.713 124.436C176.567 124.673 176.49 125.135 176.48 125.823V126.575C176.48 127.177 176.51 127.598 176.569 127.84C176.629 128.077 176.727 128.252 176.863 128.366C177 128.476 177.194 128.53 177.444 128.53ZM183.241 130H181.3V122.604H183.241V130ZM181.211 120.689C181.211 120.389 181.307 120.143 181.498 119.951C181.689 119.76 181.945 119.664 182.264 119.664C182.583 119.664 182.838 119.76 183.029 119.951C183.221 120.143 183.316 120.389 183.316 120.689C183.316 120.986 183.221 121.232 183.029 121.428C182.842 121.624 182.587 121.722 182.264 121.722C181.94 121.722 181.683 121.624 181.491 121.428C181.304 121.232 181.211 120.986 181.211 120.689ZM184.513 126.062C184.513 124.941 184.777 124.062 185.306 123.424C185.834 122.786 186.566 122.467 187.5 122.467C188.443 122.467 189.179 122.786 189.708 123.424C190.237 124.062 190.501 124.946 190.501 126.076V126.548C190.501 127.674 190.239 128.553 189.715 129.187C189.191 129.82 188.457 130.137 187.514 130.137C186.566 130.137 185.827 129.82 185.299 129.187C184.775 128.549 184.513 127.664 184.513 126.534V126.062ZM186.454 126.548C186.454 127.869 186.807 128.53 187.514 128.53C188.165 128.53 188.516 127.979 188.566 126.876L188.573 126.062C188.573 125.388 188.48 124.889 188.293 124.565C188.106 124.237 187.842 124.073 187.5 124.073C187.172 124.073 186.914 124.237 186.728 124.565C186.545 124.889 186.454 125.388 186.454 126.062V126.548ZM187.876 119.5H190.05L188.149 121.619H186.536L187.876 119.5ZM194.028 127.266L194.965 122.604H196.981L194.951 130H193.105L191.068 122.604H193.092L194.028 127.266ZM201.295 130C201.24 129.886 201.186 129.695 201.131 129.426C200.785 129.9 200.315 130.137 199.723 130.137C199.103 130.137 198.588 129.932 198.178 129.521C197.772 129.111 197.569 128.58 197.569 127.929C197.569 127.154 197.815 126.555 198.308 126.131C198.804 125.707 199.518 125.491 200.447 125.481H201.035V124.887C201.035 124.554 200.978 124.319 200.864 124.183C200.75 124.046 200.584 123.978 200.365 123.978C199.882 123.978 199.641 124.26 199.641 124.825H197.706C197.706 124.142 197.961 123.579 198.472 123.137C198.987 122.69 199.636 122.467 200.42 122.467C201.231 122.467 201.858 122.679 202.3 123.103C202.746 123.522 202.97 124.123 202.97 124.907V128.387C202.979 129.025 203.07 129.524 203.243 129.884V130H201.295ZM200.153 128.619C200.368 128.619 200.55 128.576 200.7 128.489C200.851 128.403 200.962 128.3 201.035 128.182V126.644H200.57C200.242 126.644 199.982 126.748 199.791 126.958C199.604 127.168 199.511 127.448 199.511 127.799C199.511 128.346 199.725 128.619 200.153 128.619ZM206.401 130H204.46V119.5H206.401V130ZM213.155 130H211.214V122.604H213.155V130ZM211.125 120.689C211.125 120.389 211.221 120.143 211.412 119.951C211.604 119.76 211.859 119.664 212.178 119.664C212.497 119.664 212.752 119.76 212.943 119.951C213.135 120.143 213.23 120.389 213.23 120.689C213.23 120.986 213.135 121.232 212.943 121.428C212.757 121.624 212.501 121.722 212.178 121.722C211.854 121.722 211.597 121.624 211.405 121.428C211.218 121.232 211.125 120.986 211.125 120.689ZM217.927 128.018C217.927 127.854 217.847 127.703 217.688 127.566C217.533 127.425 217.184 127.236 216.642 126.999C215.844 126.675 215.295 126.34 214.994 125.994C214.698 125.648 214.55 125.217 214.55 124.702C214.55 124.055 214.782 123.522 215.247 123.103C215.716 122.679 216.336 122.467 217.106 122.467C217.918 122.467 218.567 122.676 219.055 123.096C219.542 123.515 219.786 124.078 219.786 124.784H217.852C217.852 124.183 217.601 123.882 217.1 123.882C216.895 123.882 216.726 123.946 216.594 124.073C216.462 124.201 216.396 124.379 216.396 124.606C216.396 124.771 216.468 124.916 216.614 125.044C216.76 125.167 217.104 125.345 217.646 125.577C218.435 125.869 218.991 126.195 219.314 126.555C219.643 126.91 219.807 127.373 219.807 127.942C219.807 128.603 219.558 129.134 219.062 129.535C218.565 129.936 217.913 130.137 217.106 130.137C216.564 130.137 216.086 130.032 215.671 129.822C215.256 129.608 214.93 129.312 214.693 128.934C214.461 128.555 214.345 128.147 214.345 127.71H216.184C216.193 128.047 216.27 128.3 216.416 128.469C216.566 128.637 216.81 128.722 217.147 128.722C217.667 128.722 217.927 128.487 217.927 128.018Z" fill="white"/>
<path d="M158.545 -57.936L259.666 -57.936C262.731 -57.9315 265.741 -57.1289 268.394 -55.6087C271.047 -54.0886 273.251 -51.9043 274.783 -49.2749C276.315 -46.6454 277.122 -43.6633 277.123 -40.6274C277.124 -37.5916 276.32 -34.6088 274.79 -31.9781L224.214 54.7297L173.67 141.374C172.133 143.998 169.927 146.177 167.273 147.691C164.618 149.206 161.609 150.003 158.545 150.003C155.482 150.003 152.472 149.206 149.818 147.691C147.164 146.177 144.958 143.998 143.421 141.374L92.8769 54.6657L42.333 -32.0421C40.8032 -34.6728 39.9986 -37.6556 39.9999 -40.6915C40.0012 -43.7273 40.8084 -46.7094 42.3404 -49.3389C43.8725 -51.9683 46.0755 -54.1526 48.7288 -55.6728C51.382 -57.1929 54.3922 -57.9955 57.4574 -58L158.545 -57.936Z" fill="url(#paint1_linear_26_1099)" fill-opacity="0.49"/>
</g>
</g>
<defs>
<filter id="filter0_d_26_1099" x="0" y="0" width="329" height="177" filterUnits="userSpaceOnUse" color-interpolation-filters="sRGB">
<feFlood flood-opacity="0" result="BackgroundImageFix"/>
<feColorMatrix in="SourceAlpha" type="matrix" values="0 0 0 0 0 0 0 0 0 0 0 0 0 0 0 0 0 0 127 0" result="hardAlpha"/>
<feOffset dx="5" dy="5"/>
<feGaussianBlur stdDeviation="11"/>
<feComposite in2="hardAlpha" operator="out"/>
<feColorMatrix type="matrix" values="0 0 0 0 0.960784 0 0 0 0 0.490196 0 0 0 0 0.129412 0 0 0 0.2 0"/>
<feBlend mode="normal" in2="BackgroundImageFix" result="effect1_dropShadow_26_1099"/>
<feBlend mode="normal" in="SourceGraphic" in2="effect1_dropShadow_26_1099" result="shape"/>
</filter>
<linearGradient id="paint0_linear_26_1099" x1="159.5" y1="17" x2="159.5" y2="150" gradientUnits="userSpaceOnUse">
<stop stop-color="#F58C1F"/>
<stop offset="1" stop-color="#F57D21"/>
</linearGradient>
<linearGradient id="paint1_linear_26_1099" x1="157.868" y1="-72.5602" x2="157.868" y2="90.3753" gradientUnits="userSpaceOnUse">
<stop stop-color="white"/>
<stop offset="1" stop-color="white" stop-opacity="0"/>
</linearGradient>
<clipPath id="clip0_26_1099">
<rect x="17" y="17" width="285" height="133" rx="5" fill="white"/>
</clipPath>
</defs>
</svg>
