<svg width="329" height="177" viewBox="0 0 329 177" fill="none" xmlns="http://www.w3.org/2000/svg">
<g filter="url(#filter0_d_26_1101)">
<g clip-path="url(#clip0_26_1101)">
<rect x="17" y="17" width="285" height="133" rx="5" fill="url(#paint0_linear_26_1101)"/>
<path d="M150.76 39.1396C151.116 38.9436 151.5 39.2436 151.5 39.6536V66.7656C151.5 67.2116 151.194 67.5896 150.8 67.7976C150.787 67.8042 150.773 67.8108 150.76 67.8176L146.06 70.4976C142.78 72.3776 140.08 70.8176 140.08 67.0176V47.5596C140.08 46.2996 140.98 44.7396 142.1 44.0996L150.76 39.1396ZM164.944 44.2056C165.111 44.2882 165.251 44.4156 165.349 44.5735C165.447 44.7314 165.5 44.9136 165.5 45.0996V71.4056C165.5 71.5747 165.457 71.7411 165.375 71.889C165.293 72.037 165.175 72.1618 165.032 72.2517C164.888 72.3416 164.725 72.3937 164.556 72.4031C164.387 72.4126 164.218 72.379 164.066 72.3056L155.566 68.2116C155.397 68.13 155.254 68.0022 155.154 67.8431C155.053 67.6839 155 67.4997 155 67.3116V40.8936C155 40.7233 155.043 40.5557 155.126 40.4067C155.208 40.2578 155.327 40.1324 155.472 40.0424C155.617 39.9525 155.782 39.901 155.952 39.8928C156.122 39.8846 156.291 39.92 156.444 39.9956L164.944 44.2056ZM179.5 44.9796V64.4396C179.5 65.6996 178.6 67.2596 177.48 67.8996L170.498 71.9016C170.346 71.989 170.174 72.0348 169.998 72.0344C169.823 72.0341 169.651 71.9876 169.499 71.8997C169.347 71.8117 169.221 71.6854 169.133 71.5334C169.046 71.3814 169 71.209 169 71.0336V44.6596C169 44.4833 169.047 44.3102 169.135 44.1578C169.224 44.0054 169.351 43.879 169.504 43.7916L173.52 41.4996C176.8 39.6196 179.5 41.1796 179.5 44.9796Z" fill="white"/>
<path d="M94.6406 105.693H91.5098V108.332H95.2148V110H89.5V100.047H95.2012V101.722H91.5098V104.073H94.6406V105.693ZM92.8906 97.3604H95.0645L93.1641 99.4795H91.5508L92.8906 97.3604ZM99.9316 104.47L99.2891 104.415C98.7604 104.415 98.4027 104.647 98.2158 105.112V110H96.2744V102.604H98.0996L98.1543 103.403C98.4596 102.779 98.8812 102.467 99.4189 102.467C99.6377 102.467 99.8154 102.496 99.9521 102.556L99.9316 104.47ZM103.479 107.266L104.416 102.604H106.433L104.402 110H102.557L100.52 102.604H102.543L103.479 107.266ZM110.233 110.137C109.24 110.137 108.465 109.84 107.909 109.248C107.353 108.656 107.075 107.808 107.075 106.705V106.117C107.075 104.951 107.33 104.05 107.841 103.417C108.351 102.784 109.083 102.467 110.035 102.467C110.965 102.467 111.664 102.765 112.134 103.362C112.603 103.955 112.842 104.834 112.852 106.001V106.951H109.003C109.03 107.498 109.151 107.899 109.365 108.154C109.579 108.405 109.91 108.53 110.356 108.53C111.004 108.53 111.544 108.309 111.977 107.867L112.735 109.036C112.498 109.364 112.154 109.631 111.703 109.836C111.252 110.036 110.762 110.137 110.233 110.137ZM109.017 105.598H110.951V105.42C110.942 104.978 110.869 104.643 110.732 104.415C110.596 104.187 110.359 104.073 110.021 104.073C109.684 104.073 109.438 104.194 109.283 104.436C109.133 104.677 109.044 105.064 109.017 105.598ZM110.165 99.5H112.339L110.438 101.619H108.825L110.165 99.5ZM115.716 102.604L115.771 103.335C116.208 102.756 116.78 102.467 117.486 102.467C118.758 102.467 119.412 103.358 119.448 105.14V110H117.507V105.283C117.507 104.864 117.443 104.561 117.315 104.374C117.192 104.183 116.974 104.087 116.659 104.087C116.308 104.087 116.035 104.267 115.839 104.627V110H113.897V102.604H115.716ZM123.208 106.78L124.192 102.604H126.257L123.823 111.107C123.459 112.361 122.773 112.987 121.766 112.987C121.533 112.987 121.269 112.944 120.973 112.857V111.347L121.198 111.354C121.499 111.354 121.725 111.294 121.875 111.176C122.03 111.062 122.146 110.861 122.224 110.574L122.374 110.075L120.241 102.604H122.319L123.208 106.78ZM129.976 110.137C128.982 110.137 128.207 109.84 127.651 109.248C127.095 108.656 126.817 107.808 126.817 106.705V106.117C126.817 104.951 127.073 104.05 127.583 103.417C128.093 102.784 128.825 102.467 129.777 102.467C130.707 102.467 131.407 102.765 131.876 103.362C132.345 103.955 132.585 104.834 132.594 106.001V106.951H128.745C128.772 107.498 128.893 107.899 129.107 108.154C129.322 108.405 129.652 108.53 130.099 108.53C130.746 108.53 131.286 108.309 131.719 107.867L132.478 109.036C132.241 109.364 131.896 109.631 131.445 109.836C130.994 110.036 130.504 110.137 129.976 110.137ZM128.759 105.598H130.693V105.42C130.684 104.978 130.611 104.643 130.475 104.415C130.338 104.187 130.101 104.073 129.764 104.073C129.426 104.073 129.18 104.194 129.025 104.436C128.875 104.677 128.786 105.064 128.759 105.598ZM136.962 108.018C136.962 107.854 136.882 107.703 136.723 107.566C136.568 107.425 136.219 107.236 135.677 106.999C134.879 106.675 134.33 106.34 134.029 105.994C133.733 105.648 133.585 105.217 133.585 104.702C133.585 104.055 133.817 103.522 134.282 103.103C134.752 102.679 135.371 102.467 136.142 102.467C136.953 102.467 137.602 102.676 138.09 103.096C138.577 103.515 138.821 104.078 138.821 104.784H136.887C136.887 104.183 136.636 103.882 136.135 103.882C135.93 103.882 135.761 103.946 135.629 104.073C135.497 104.201 135.431 104.379 135.431 104.606C135.431 104.771 135.504 104.916 135.649 105.044C135.795 105.167 136.139 105.345 136.682 105.577C137.47 105.869 138.026 106.195 138.35 106.555C138.678 106.91 138.842 107.373 138.842 107.942C138.842 108.603 138.593 109.134 138.097 109.535C137.6 109.936 136.948 110.137 136.142 110.137C135.599 110.137 135.121 110.032 134.706 109.822C134.291 109.608 133.965 109.312 133.729 108.934C133.496 108.555 133.38 108.147 133.38 107.71H135.219C135.228 108.047 135.305 108.3 135.451 108.469C135.602 108.637 135.845 108.722 136.183 108.722C136.702 108.722 136.962 108.487 136.962 108.018ZM143.319 108.018C143.319 107.854 143.24 107.703 143.08 107.566C142.925 107.425 142.576 107.236 142.034 106.999C141.237 106.675 140.688 106.34 140.387 105.994C140.09 105.648 139.942 105.217 139.942 104.702C139.942 104.055 140.175 103.522 140.64 103.103C141.109 102.679 141.729 102.467 142.499 102.467C143.31 102.467 143.96 102.676 144.447 103.096C144.935 103.515 145.179 104.078 145.179 104.784H143.244C143.244 104.183 142.993 103.882 142.492 103.882C142.287 103.882 142.118 103.946 141.986 104.073C141.854 104.201 141.788 104.379 141.788 104.606C141.788 104.771 141.861 104.916 142.007 105.044C142.153 105.167 142.497 105.345 143.039 105.577C143.827 105.869 144.383 106.195 144.707 106.555C145.035 106.91 145.199 107.373 145.199 107.942C145.199 108.603 144.951 109.134 144.454 109.535C143.957 109.936 143.306 110.137 142.499 110.137C141.957 110.137 141.478 110.032 141.063 109.822C140.649 109.608 140.323 109.312 140.086 108.934C139.854 108.555 139.737 108.147 139.737 107.71H141.576C141.585 108.047 141.663 108.3 141.809 108.469C141.959 108.637 142.203 108.722 142.54 108.722C143.06 108.722 143.319 108.487 143.319 108.018ZM149.39 110.137C148.396 110.137 147.621 109.84 147.065 109.248C146.509 108.656 146.231 107.808 146.231 106.705V106.117C146.231 104.951 146.487 104.05 146.997 103.417C147.507 102.784 148.239 102.467 149.191 102.467C150.121 102.467 150.821 102.765 151.29 103.362C151.759 103.955 151.999 104.834 152.008 106.001V106.951H148.159C148.187 107.498 148.307 107.899 148.521 108.154C148.736 108.405 149.066 108.53 149.513 108.53C150.16 108.53 150.7 108.309 151.133 107.867L151.892 109.036C151.655 109.364 151.311 109.631 150.859 109.836C150.408 110.036 149.918 110.137 149.39 110.137ZM148.173 105.598H150.107V105.42C150.098 104.978 150.025 104.643 149.889 104.415C149.752 104.187 149.515 104.073 149.178 104.073C148.84 104.073 148.594 104.194 148.439 104.436C148.289 104.677 148.2 105.064 148.173 105.598ZM149.321 99.5H151.495L149.595 101.619H147.981L149.321 99.5ZM152.869 106.076C152.869 104.864 153.088 103.959 153.525 103.362C153.963 102.765 154.576 102.467 155.364 102.467C156.034 102.467 156.551 102.731 156.916 103.26L156.991 102.604H158.734V110C158.734 110.943 158.47 111.663 157.941 112.16C157.413 112.661 156.654 112.912 155.665 112.912C155.259 112.912 154.833 112.83 154.387 112.666C153.94 112.507 153.607 112.301 153.389 112.051L154.038 110.711C154.22 110.902 154.457 111.057 154.749 111.176C155.041 111.299 155.316 111.36 155.576 111.36C156.009 111.36 156.319 111.256 156.506 111.046C156.697 110.841 156.795 110.508 156.8 110.048V109.412C156.431 109.895 155.95 110.137 155.357 110.137C154.569 110.137 153.958 109.831 153.525 109.221C153.097 108.605 152.878 107.74 152.869 106.623V106.076ZM154.804 106.562C154.804 107.245 154.893 107.744 155.07 108.059C155.248 108.368 155.531 108.523 155.918 108.523C156.314 108.523 156.608 108.38 156.8 108.093V104.559C156.599 104.244 156.31 104.087 155.932 104.087C155.549 104.087 155.264 104.244 155.077 104.559C154.895 104.873 154.804 105.379 154.804 106.076V106.562ZM165.399 110H163.458V99.5H165.399V110ZM169.884 110.137C168.89 110.137 168.116 109.84 167.56 109.248C167.004 108.656 166.726 107.808 166.726 106.705V106.117C166.726 104.951 166.981 104.05 167.491 103.417C168.002 102.784 168.733 102.467 169.686 102.467C170.615 102.467 171.315 102.765 171.784 103.362C172.254 103.955 172.493 104.834 172.502 106.001V106.951H168.653C168.681 107.498 168.801 107.899 169.016 108.154C169.23 108.405 169.56 108.53 170.007 108.53C170.654 108.53 171.194 108.309 171.627 107.867L172.386 109.036C172.149 109.364 171.805 109.631 171.354 109.836C170.902 110.036 170.412 110.137 169.884 110.137ZM168.667 105.598H170.602V105.42C170.592 104.978 170.52 104.643 170.383 104.415C170.246 104.187 170.009 104.073 169.672 104.073C169.335 104.073 169.089 104.194 168.934 104.436C168.783 104.677 168.694 105.064 168.667 105.598ZM176.05 107.149L175.53 107.73V110H173.596V99.5H175.53V105.174L175.77 104.818L177.109 102.604H179.413L177.267 105.652L179.618 110H177.403L176.05 107.149ZM183.146 110.137C182.152 110.137 181.377 109.84 180.821 109.248C180.265 108.656 179.987 107.808 179.987 106.705V106.117C179.987 104.951 180.243 104.05 180.753 103.417C181.263 102.784 181.995 102.467 182.947 102.467C183.877 102.467 184.576 102.765 185.046 103.362C185.515 103.955 185.755 104.834 185.764 106.001V106.951H181.915C181.942 107.498 182.063 107.899 182.277 108.154C182.492 108.405 182.822 108.53 183.269 108.53C183.916 108.53 184.456 108.309 184.889 107.867L185.647 109.036C185.41 109.364 185.066 109.631 184.615 109.836C184.164 110.036 183.674 110.137 183.146 110.137ZM181.929 105.598H183.863V105.42C183.854 104.978 183.781 104.643 183.645 104.415C183.508 104.187 183.271 104.073 182.934 104.073C182.596 104.073 182.35 104.194 182.195 104.436C182.045 104.677 181.956 105.064 181.929 105.598ZM183.077 99.5H185.251L183.351 101.619H181.737L183.077 99.5ZM190.508 104.47L189.865 104.415C189.337 104.415 188.979 104.647 188.792 105.112V110H186.851V102.604H188.676L188.73 103.403C189.036 102.779 189.457 102.467 189.995 102.467C190.214 102.467 190.392 102.496 190.528 102.556L190.508 104.47ZM191.109 106.076C191.109 104.864 191.314 103.959 191.725 103.362C192.135 102.765 192.732 102.467 193.516 102.467C194.085 102.467 194.559 102.713 194.938 103.205V99.5H196.886V110H195.129L195.04 109.248C194.644 109.84 194.133 110.137 193.509 110.137C192.734 110.137 192.142 109.84 191.731 109.248C191.326 108.656 191.118 107.785 191.109 106.637V106.076ZM193.051 106.562C193.051 107.291 193.128 107.801 193.283 108.093C193.438 108.38 193.7 108.523 194.069 108.523C194.452 108.523 194.742 108.353 194.938 108.011V104.634C194.746 104.269 194.459 104.087 194.076 104.087C193.721 104.087 193.461 104.23 193.297 104.518C193.133 104.805 193.051 105.315 193.051 106.049V106.562ZM201.302 110.137C200.308 110.137 199.534 109.84 198.978 109.248C198.422 108.656 198.144 107.808 198.144 106.705V106.117C198.144 104.951 198.399 104.05 198.909 103.417C199.42 102.784 200.151 102.467 201.104 102.467C202.033 102.467 202.733 102.765 203.202 103.362C203.672 103.955 203.911 104.834 203.92 106.001V106.951H200.071C200.099 107.498 200.219 107.899 200.434 108.154C200.648 108.405 200.978 108.53 201.425 108.53C202.072 108.53 202.612 108.309 203.045 107.867L203.804 109.036C203.567 109.364 203.223 109.631 202.771 109.836C202.32 110.036 201.83 110.137 201.302 110.137ZM200.085 105.598H202.02V105.42C202.01 104.978 201.938 104.643 201.801 104.415C201.664 104.187 201.427 104.073 201.09 104.073C200.753 104.073 200.507 104.194 200.352 104.436C200.201 104.677 200.112 105.064 200.085 105.598ZM207.153 108.394H210.079V110H204.856V108.79L207.714 104.217H204.925V102.604H210.038V103.772L207.153 108.394ZM214.235 110.137C213.242 110.137 212.467 109.84 211.911 109.248C211.355 108.656 211.077 107.808 211.077 106.705V106.117C211.077 104.951 211.332 104.05 211.843 103.417C212.353 102.784 213.085 102.467 214.037 102.467C214.967 102.467 215.666 102.765 216.136 103.362C216.605 103.955 216.844 104.834 216.854 106.001V106.951H213.005C213.032 107.498 213.153 107.899 213.367 108.154C213.581 108.405 213.912 108.53 214.358 108.53C215.006 108.53 215.546 108.309 215.979 107.867L216.737 109.036C216.5 109.364 216.156 109.631 215.705 109.836C215.254 110.036 214.764 110.137 214.235 110.137ZM213.019 105.598H214.953V105.42C214.944 104.978 214.871 104.643 214.734 104.415C214.598 104.187 214.361 104.073 214.023 104.073C213.686 104.073 213.44 104.194 213.285 104.436C213.135 104.677 213.046 105.064 213.019 105.598ZM214.167 99.5H216.341L214.44 101.619H212.827L214.167 99.5ZM221.222 108.018C221.222 107.854 221.142 107.703 220.982 107.566C220.827 107.425 220.479 107.236 219.937 106.999C219.139 106.675 218.59 106.34 218.289 105.994C217.993 105.648 217.845 105.217 217.845 104.702C217.845 104.055 218.077 103.522 218.542 103.103C219.011 102.679 219.631 102.467 220.401 102.467C221.213 102.467 221.862 102.676 222.35 103.096C222.837 103.515 223.081 104.078 223.081 104.784H221.146C221.146 104.183 220.896 103.882 220.395 103.882C220.189 103.882 220.021 103.946 219.889 104.073C219.757 104.201 219.69 104.379 219.69 104.606C219.69 104.771 219.763 104.916 219.909 105.044C220.055 105.167 220.399 105.345 220.941 105.577C221.73 105.869 222.286 106.195 222.609 106.555C222.938 106.91 223.102 107.373 223.102 107.942C223.102 108.603 222.853 109.134 222.356 109.535C221.86 109.936 221.208 110.137 220.401 110.137C219.859 110.137 219.381 110.032 218.966 109.822C218.551 109.608 218.225 109.312 217.988 108.934C217.756 108.555 217.64 108.147 217.64 107.71H219.479C219.488 108.047 219.565 108.3 219.711 108.469C219.861 108.637 220.105 108.722 220.442 108.722C220.962 108.722 221.222 108.487 221.222 108.018ZM227.292 110.137C226.299 110.137 225.524 109.84 224.968 109.248C224.412 108.656 224.134 107.808 224.134 106.705V106.117C224.134 104.951 224.389 104.05 224.899 103.417C225.41 102.784 226.141 102.467 227.094 102.467C228.023 102.467 228.723 102.765 229.192 103.362C229.662 103.955 229.901 104.834 229.91 106.001V106.951H226.062C226.089 107.498 226.21 107.899 226.424 108.154C226.638 108.405 226.968 108.53 227.415 108.53C228.062 108.53 228.602 108.309 229.035 107.867L229.794 109.036C229.557 109.364 229.213 109.631 228.762 109.836C228.311 110.036 227.821 110.137 227.292 110.137ZM226.075 105.598H228.01V105.42C228.001 104.978 227.928 104.643 227.791 104.415C227.654 104.187 227.417 104.073 227.08 104.073C226.743 104.073 226.497 104.194 226.342 104.436C226.191 104.677 226.103 105.064 226.075 105.598ZM82.3154 130H80.374V122.604H82.3154V130ZM80.2852 120.689C80.2852 120.389 80.3809 120.143 80.5723 119.951C80.7637 119.76 81.0189 119.664 81.3379 119.664C81.6569 119.664 81.9121 119.76 82.1035 119.951C82.2949 120.143 82.3906 120.389 82.3906 120.689C82.3906 120.986 82.2949 121.232 82.1035 121.428C81.9167 121.624 81.6615 121.722 81.3379 121.722C81.0143 121.722 80.7568 121.624 80.5654 121.428C80.3786 121.232 80.2852 120.986 80.2852 120.689ZM85.583 122.604L85.6377 123.335C86.0752 122.756 86.6471 122.467 87.3535 122.467C88.625 122.467 89.279 123.358 89.3154 125.14V130H87.374V125.283C87.374 124.864 87.3102 124.561 87.1826 124.374C87.0596 124.183 86.8408 124.087 86.5264 124.087C86.1755 124.087 85.902 124.267 85.7061 124.627V130H83.7646V122.604H85.583ZM90.4707 126.076C90.4707 124.864 90.6895 123.959 91.127 123.362C91.5645 122.765 92.1774 122.467 92.9658 122.467C93.6357 122.467 94.153 122.731 94.5176 123.26L94.5928 122.604H96.3359V130C96.3359 130.943 96.0716 131.663 95.543 132.16C95.0143 132.661 94.2555 132.912 93.2666 132.912C92.861 132.912 92.4349 132.83 91.9883 132.666C91.5417 132.507 91.209 132.301 90.9902 132.051L91.6396 130.711C91.8219 130.902 92.0589 131.057 92.3506 131.176C92.6423 131.299 92.918 131.36 93.1777 131.36C93.6107 131.36 93.9206 131.256 94.1074 131.046C94.2988 130.841 94.3968 130.508 94.4014 130.048V129.412C94.0322 129.895 93.5514 130.137 92.959 130.137C92.1706 130.137 91.5599 129.831 91.127 129.221C90.6986 128.605 90.4798 127.74 90.4707 126.623V126.076ZM92.4053 126.562C92.4053 127.245 92.4941 127.744 92.6719 128.059C92.8496 128.368 93.1322 128.523 93.5195 128.523C93.916 128.523 94.21 128.38 94.4014 128.093V124.559C94.2008 124.244 93.9115 124.087 93.5332 124.087C93.1504 124.087 92.8656 124.244 92.6787 124.559C92.4964 124.873 92.4053 125.379 92.4053 126.076V126.562ZM100.116 126.78L101.101 122.604H103.165L100.731 131.107C100.367 132.361 99.681 132.987 98.6738 132.987C98.4414 132.987 98.1771 132.944 97.8809 132.857V131.347L98.1064 131.354C98.4072 131.354 98.6328 131.294 98.7832 131.176C98.9382 131.062 99.0544 130.861 99.1318 130.574L99.2822 130.075L97.1494 122.604H99.2275L100.116 126.78ZM106.884 130.137C105.89 130.137 105.116 129.84 104.56 129.248C104.004 128.656 103.726 127.808 103.726 126.705V126.117C103.726 124.951 103.981 124.05 104.491 123.417C105.002 122.784 105.733 122.467 106.686 122.467C107.615 122.467 108.315 122.765 108.784 123.362C109.254 123.955 109.493 124.834 109.502 126.001V126.951H105.653C105.681 127.498 105.801 127.899 106.016 128.154C106.23 128.405 106.56 128.53 107.007 128.53C107.654 128.53 108.194 128.309 108.627 127.867L109.386 129.036C109.149 129.364 108.805 129.631 108.354 129.836C107.902 130.036 107.412 130.137 106.884 130.137ZM105.667 125.598H107.602V125.42C107.592 124.978 107.52 124.643 107.383 124.415C107.246 124.187 107.009 124.073 106.672 124.073C106.335 124.073 106.089 124.194 105.934 124.436C105.783 124.677 105.694 125.064 105.667 125.598ZM112.366 122.604L112.421 123.335C112.858 122.756 113.43 122.467 114.137 122.467C115.408 122.467 116.062 123.358 116.099 125.14V130H114.157V125.283C114.157 124.864 114.093 124.561 113.966 124.374C113.843 124.183 113.624 124.087 113.31 124.087C112.959 124.087 112.685 124.267 112.489 124.627V130H110.548V122.604H112.366ZM120.474 130.137C119.48 130.137 118.705 129.84 118.149 129.248C117.593 128.656 117.315 127.808 117.315 126.705V126.117C117.315 124.951 117.571 124.05 118.081 123.417C118.591 122.784 119.323 122.467 120.275 122.467C121.205 122.467 121.905 122.765 122.374 123.362C122.843 123.955 123.083 124.834 123.092 126.001V126.951H119.243C119.271 127.498 119.391 127.899 119.605 128.154C119.82 128.405 120.15 128.53 120.597 128.53C121.244 128.53 121.784 128.309 122.217 127.867L122.976 129.036C122.739 129.364 122.395 129.631 121.943 129.836C121.492 130.036 121.002 130.137 120.474 130.137ZM119.257 125.598H121.191V125.42C121.182 124.978 121.109 124.643 120.973 124.415C120.836 124.187 120.599 124.073 120.262 124.073C119.924 124.073 119.678 124.194 119.523 124.436C119.373 124.677 119.284 125.064 119.257 125.598ZM127.46 128.018C127.46 127.854 127.38 127.703 127.221 127.566C127.066 127.425 126.717 127.236 126.175 126.999C125.377 126.675 124.828 126.34 124.527 125.994C124.231 125.648 124.083 125.217 124.083 124.702C124.083 124.055 124.315 123.522 124.78 123.103C125.25 122.679 125.869 122.467 126.64 122.467C127.451 122.467 128.1 122.676 128.588 123.096C129.076 123.515 129.319 124.078 129.319 124.784H127.385C127.385 124.183 127.134 123.882 126.633 123.882C126.428 123.882 126.259 123.946 126.127 124.073C125.995 124.201 125.929 124.379 125.929 124.606C125.929 124.771 126.002 124.916 126.147 125.044C126.293 125.167 126.637 125.345 127.18 125.577C127.968 125.869 128.524 126.195 128.848 126.555C129.176 126.91 129.34 127.373 129.34 127.942C129.34 128.603 129.091 129.134 128.595 129.535C128.098 129.936 127.446 130.137 126.64 130.137C126.097 130.137 125.619 130.032 125.204 129.822C124.789 129.608 124.464 129.312 124.227 128.934C123.994 128.555 123.878 128.147 123.878 127.71H125.717C125.726 128.047 125.803 128.3 125.949 128.469C126.1 128.637 126.343 128.722 126.681 128.722C127.2 128.722 127.46 128.487 127.46 128.018ZM133.53 130.137C132.537 130.137 131.762 129.84 131.206 129.248C130.65 128.656 130.372 127.808 130.372 126.705V126.117C130.372 124.951 130.627 124.05 131.138 123.417C131.648 122.784 132.38 122.467 133.332 122.467C134.262 122.467 134.961 122.765 135.431 123.362C135.9 123.955 136.139 124.834 136.148 126.001V126.951H132.3C132.327 127.498 132.448 127.899 132.662 128.154C132.876 128.405 133.207 128.53 133.653 128.53C134.3 128.53 134.84 128.309 135.273 127.867L136.032 129.036C135.795 129.364 135.451 129.631 135 129.836C134.549 130.036 134.059 130.137 133.53 130.137ZM132.313 125.598H134.248V125.42C134.239 124.978 134.166 124.643 134.029 124.415C133.893 124.187 133.656 124.073 133.318 124.073C132.981 124.073 132.735 124.194 132.58 124.436C132.43 124.677 132.341 125.064 132.313 125.598ZM139.013 122.604L139.067 123.335C139.505 122.756 140.077 122.467 140.783 122.467C142.055 122.467 142.709 123.358 142.745 125.14V130H140.804V125.283C140.804 124.864 140.74 124.561 140.612 124.374C140.489 124.183 140.271 124.087 139.956 124.087C139.605 124.087 139.332 124.267 139.136 124.627V130H137.194V122.604H139.013ZM144.707 132.509L143.675 131.969L143.935 131.483C144.226 130.946 144.377 130.403 144.386 129.856V128.318H146.067L146.061 129.692C146.056 130.175 145.933 130.677 145.691 131.196C145.45 131.716 145.122 132.153 144.707 132.509ZM154.441 129.323C154.04 129.866 153.503 130.137 152.828 130.137C152.149 130.137 151.634 129.904 151.283 129.439C150.932 128.97 150.757 128.289 150.757 127.396V122.604H152.691V127.443C152.701 128.163 152.94 128.523 153.409 128.523C153.851 128.523 154.17 128.332 154.366 127.949V122.604H156.314V130H154.496L154.441 129.323ZM153.901 119.5H156.075L154.175 121.619H152.562L153.901 119.5ZM159.944 120.785V122.604H160.936V124.06H159.944V127.73C159.944 128.022 159.983 128.223 160.061 128.332C160.143 128.441 160.298 128.496 160.525 128.496C160.712 128.496 160.865 128.48 160.983 128.448L160.97 129.952C160.642 130.075 160.286 130.137 159.903 130.137C158.655 130.137 158.023 129.421 158.01 127.99V124.06H157.155V122.604H158.01V120.785H159.944ZM164.429 127.266L165.365 122.604H167.382L165.352 130H163.506L161.469 122.604H163.492L164.429 127.266ZM167.956 126.062C167.956 124.941 168.22 124.062 168.749 123.424C169.278 122.786 170.009 122.467 170.943 122.467C171.887 122.467 172.623 122.786 173.151 123.424C173.68 124.062 173.944 124.946 173.944 126.076V126.548C173.944 127.674 173.682 128.553 173.158 129.187C172.634 129.82 171.9 130.137 170.957 130.137C170.009 130.137 169.271 129.82 168.742 129.187C168.218 128.549 167.956 127.664 167.956 126.534V126.062ZM169.897 126.548C169.897 127.869 170.251 128.53 170.957 128.53C171.609 128.53 171.96 127.979 172.01 126.876L172.017 126.062C172.017 125.388 171.923 124.889 171.736 124.565C171.549 124.237 171.285 124.073 170.943 124.073C170.615 124.073 170.358 124.237 170.171 124.565C169.989 124.889 169.897 125.388 169.897 126.062V126.548ZM176.925 122.604L176.979 123.335C177.417 122.756 177.989 122.467 178.695 122.467C179.967 122.467 180.621 123.358 180.657 125.14V130H178.716V125.283C178.716 124.864 178.652 124.561 178.524 124.374C178.401 124.183 178.183 124.087 177.868 124.087C177.517 124.087 177.244 124.267 177.048 124.627V130H175.106V122.604H176.925ZM185.559 130C185.504 129.886 185.449 129.695 185.395 129.426C185.048 129.9 184.579 130.137 183.986 130.137C183.367 130.137 182.852 129.932 182.441 129.521C182.036 129.111 181.833 128.58 181.833 127.929C181.833 127.154 182.079 126.555 182.571 126.131C183.068 125.707 183.781 125.491 184.711 125.481H185.299V124.887C185.299 124.554 185.242 124.319 185.128 124.183C185.014 124.046 184.848 123.978 184.629 123.978C184.146 123.978 183.904 124.26 183.904 124.825H181.97C181.97 124.142 182.225 123.579 182.735 123.137C183.25 122.69 183.9 122.467 184.684 122.467C185.495 122.467 186.121 122.679 186.563 123.103C187.01 123.522 187.233 124.123 187.233 124.907V128.387C187.243 129.025 187.334 129.524 187.507 129.884V130H185.559ZM184.417 128.619C184.631 128.619 184.813 128.576 184.964 128.489C185.114 128.403 185.226 128.3 185.299 128.182V126.644H184.834C184.506 126.644 184.246 126.748 184.055 126.958C183.868 127.168 183.774 127.448 183.774 127.799C183.774 128.346 183.989 128.619 184.417 128.619ZM190.665 130H188.724V119.5H190.665V130ZM194.411 120.785V122.604H195.402V124.06H194.411V127.73C194.411 128.022 194.45 128.223 194.527 128.332C194.609 128.441 194.764 128.496 194.992 128.496C195.179 128.496 195.332 128.48 195.45 128.448L195.437 129.952C195.108 130.075 194.753 130.137 194.37 130.137C193.121 130.137 192.49 129.421 192.477 127.99V124.06H191.622V122.604H192.477V120.785H194.411ZM199.456 130.137C198.463 130.137 197.688 129.84 197.132 129.248C196.576 128.656 196.298 127.808 196.298 126.705V126.117C196.298 124.951 196.553 124.05 197.063 123.417C197.574 122.784 198.305 122.467 199.258 122.467C200.188 122.467 200.887 122.765 201.356 123.362C201.826 123.955 202.065 124.834 202.074 126.001V126.951H198.226C198.253 127.498 198.374 127.899 198.588 128.154C198.802 128.405 199.132 128.53 199.579 128.53C200.226 128.53 200.766 128.309 201.199 127.867L201.958 129.036C201.721 129.364 201.377 129.631 200.926 129.836C200.475 130.036 199.985 130.137 199.456 130.137ZM198.239 125.598H200.174V125.42C200.165 124.978 200.092 124.643 199.955 124.415C199.818 124.187 199.581 124.073 199.244 124.073C198.907 124.073 198.661 124.194 198.506 124.436C198.355 124.677 198.267 125.064 198.239 125.598ZM206.818 124.47L206.176 124.415C205.647 124.415 205.289 124.647 205.103 125.112V130H203.161V122.604H204.986L205.041 123.403C205.346 122.779 205.768 122.467 206.306 122.467C206.524 122.467 206.702 122.496 206.839 122.556L206.818 124.47ZM210.366 127.266L211.303 122.604H213.319L211.289 130H209.443L207.406 122.604H209.43L210.366 127.266ZM217.12 130.137C216.127 130.137 215.352 129.84 214.796 129.248C214.24 128.656 213.962 127.808 213.962 126.705V126.117C213.962 124.951 214.217 124.05 214.728 123.417C215.238 122.784 215.969 122.467 216.922 122.467C217.852 122.467 218.551 122.765 219.021 123.362C219.49 123.955 219.729 124.834 219.738 126.001V126.951H215.89C215.917 127.498 216.038 127.899 216.252 128.154C216.466 128.405 216.797 128.53 217.243 128.53C217.89 128.53 218.43 128.309 218.863 127.867L219.622 129.036C219.385 129.364 219.041 129.631 218.59 129.836C218.139 130.036 217.649 130.137 217.12 130.137ZM215.903 125.598H217.838V125.42C217.829 124.978 217.756 124.643 217.619 124.415C217.482 124.187 217.245 124.073 216.908 124.073C216.571 124.073 216.325 124.194 216.17 124.436C216.02 124.677 215.931 125.064 215.903 125.598ZM222.972 128.394H225.897V130H220.675V128.79L223.532 124.217H220.743V122.604H225.856V123.772L222.972 128.394ZM230.054 130.137C229.06 130.137 228.285 129.84 227.729 129.248C227.174 128.656 226.896 127.808 226.896 126.705V126.117C226.896 124.951 227.151 124.05 227.661 123.417C228.172 122.784 228.903 122.467 229.855 122.467C230.785 122.467 231.485 122.765 231.954 123.362C232.424 123.955 232.663 124.834 232.672 126.001V126.951H228.823C228.851 127.498 228.971 127.899 229.186 128.154C229.4 128.405 229.73 128.53 230.177 128.53C230.824 128.53 231.364 128.309 231.797 127.867L232.556 129.036C232.319 129.364 231.975 129.631 231.523 129.836C231.072 130.036 230.582 130.137 230.054 130.137ZM228.837 125.598H230.771V125.42C230.762 124.978 230.689 124.643 230.553 124.415C230.416 124.187 230.179 124.073 229.842 124.073C229.505 124.073 229.258 124.194 229.104 124.436C228.953 124.677 228.864 125.064 228.837 125.598ZM229.985 119.5H232.159L230.259 121.619H228.646L229.985 119.5ZM237.04 128.018C237.04 127.854 236.96 127.703 236.801 127.566C236.646 127.425 236.297 127.236 235.755 126.999C234.957 126.675 234.408 126.34 234.107 125.994C233.811 125.648 233.663 125.217 233.663 124.702C233.663 124.055 233.896 123.522 234.36 123.103C234.83 122.679 235.45 122.467 236.22 122.467C237.031 122.467 237.68 122.676 238.168 123.096C238.656 123.515 238.899 124.078 238.899 124.784H236.965C236.965 124.183 236.714 123.882 236.213 123.882C236.008 123.882 235.839 123.946 235.707 124.073C235.575 124.201 235.509 124.379 235.509 124.606C235.509 124.771 235.582 124.916 235.728 125.044C235.873 125.167 236.217 125.345 236.76 125.577C237.548 125.869 238.104 126.195 238.428 126.555C238.756 126.91 238.92 127.373 238.92 127.942C238.92 128.603 238.672 129.134 238.175 129.535C237.678 129.936 237.026 130.137 236.22 130.137C235.677 130.137 235.199 130.032 234.784 129.822C234.369 129.608 234.044 129.312 233.807 128.934C233.574 128.555 233.458 128.147 233.458 127.71H235.297C235.306 128.047 235.383 128.3 235.529 128.469C235.68 128.637 235.924 128.722 236.261 128.722C236.78 128.722 237.04 128.487 237.04 128.018Z" fill="white"/>
<path d="M158.545 -57.936L259.666 -57.936C262.731 -57.9315 265.741 -57.1289 268.394 -55.6087C271.047 -54.0886 273.251 -51.9043 274.783 -49.2749C276.315 -46.6454 277.122 -43.6633 277.123 -40.6274C277.124 -37.5916 276.32 -34.6088 274.79 -31.9781L224.214 54.7297L173.67 141.374C172.133 143.998 169.927 146.177 167.273 147.691C164.618 149.206 161.609 150.003 158.545 150.003C155.482 150.003 152.472 149.206 149.818 147.691C147.164 146.177 144.958 143.998 143.421 141.374L92.8769 54.6657L42.333 -32.0421C40.8032 -34.6728 39.9986 -37.6556 39.9999 -40.6915C40.0012 -43.7273 40.8084 -46.7094 42.3404 -49.3389C43.8725 -51.9683 46.0755 -54.1526 48.7288 -55.6728C51.382 -57.1929 54.3922 -57.9955 57.4574 -58L158.545 -57.936Z" fill="url(#paint1_linear_26_1101)" fill-opacity="0.49"/>
</g>
</g>
<defs>
<filter id="filter0_d_26_1101" x="0" y="0" width="329" height="177" filterUnits="userSpaceOnUse" color-interpolation-filters="sRGB">
<feFlood flood-opacity="0" result="BackgroundImageFix"/>
<feColorMatrix in="SourceAlpha" type="matrix" values="0 0 0 0 0 0 0 0 0 0 0 0 0 0 0 0 0 0 127 0" result="hardAlpha"/>
<feOffset dx="5" dy="5"/>
<feGaussianBlur stdDeviation="11"/>
<feComposite in2="hardAlpha" operator="out"/>
<feColorMatrix type="matrix" values="0 0 0 0 0.960784 0 0 0 0 0.490196 0 0 0 0 0.129412 0 0 0 0.2 0"/>
<feBlend mode="normal" in2="BackgroundImageFix" result="effect1_dropShadow_26_1101"/>
<feBlend mode="normal" in="SourceGraphic" in2="effect1_dropShadow_26_1101" result="shape"/>
</filter>
<linearGradient id="paint0_linear_26_1101" x1="159.5" y1="17" x2="159.5" y2="150" gradientUnits="userSpaceOnUse">
<stop stop-color="#F58C1F"/>
<stop offset="1" stop-color="#F57D21"/>
</linearGradient>
<linearGradient id="paint1_linear_26_1101" x1="157.868" y1="-72.5602" x2="157.868" y2="90.3753" gradientUnits="userSpaceOnUse">
<stop stop-color="white"/>
<stop offset="1" stop-color="white" stop-opacity="0"/>
</linearGradient>
<clipPath id="clip0_26_1101">
<rect x="17" y="17" width="285" height="133" rx="5" fill="white"/>
</clipPath>
</defs>
</svg>
