<svg width="329" height="177" viewBox="0 0 329 177" fill="none" xmlns="http://www.w3.org/2000/svg">
<g filter="url(#filter0_d_26_1103)">
<g clip-path="url(#clip0_26_1103)">
<rect x="17" y="17" width="285" height="133" rx="5" fill="url(#paint0_linear_26_1103)"/>
<path d="M178.5 63C179.06 63 179.5 63.44 179.5 64V66C179.5 69.32 176.82 72 173.5 72C173.5 68.7 170.8 66 167.5 66C164.2 66 161.5 68.7 161.5 72H157.5C157.5 68.7 154.8 66 151.5 66C148.2 66 145.5 68.7 145.5 72C142.18 72 139.5 69.32 139.5 66V62C139.5 60.9 140.4 60 141.5 60H160.5C161.826 60 163.098 59.4732 164.036 58.5355C164.973 57.5979 165.5 56.3261 165.5 55V44C165.5 42.9 166.4 42 167.5 42H169.18C170.62 42 171.94 42.78 172.66 44.02L173.94 46.26C174.12 46.58 173.88 47 173.5 47C172.174 47 170.902 47.5268 169.964 48.4645C169.027 49.4021 168.5 50.6739 168.5 52V58C168.5 59.3261 169.027 60.5979 169.964 61.5355C170.902 62.4732 172.174 63 173.5 63H178.5Z" fill="white"/>
<path d="M151.5 76C152.561 76 153.578 75.5786 154.328 74.8284C155.079 74.0783 155.5 73.0609 155.5 72C155.5 70.9391 155.079 69.9217 154.328 69.1716C153.578 68.4214 152.561 68 151.5 68C150.439 68 149.422 68.4214 148.672 69.1716C147.921 69.9217 147.5 70.9391 147.5 72C147.5 73.0609 147.921 74.0783 148.672 74.8284C149.422 75.5786 150.439 76 151.5 76ZM167.5 76C168.561 76 169.578 75.5786 170.328 74.8284C171.079 74.0783 171.5 73.0609 171.5 72C171.5 70.9391 171.079 69.9217 170.328 69.1716C169.578 68.4214 168.561 68 167.5 68C166.439 68 165.422 68.4214 164.672 69.1716C163.921 69.9217 163.5 70.9391 163.5 72C163.5 73.0609 163.921 74.0783 164.672 74.8284C165.422 75.5786 166.439 76 167.5 76ZM179.5 57.06V60H173.5C172.4 60 171.5 59.1 171.5 58V52C171.5 50.9 172.4 50 173.5 50H176.08L178.98 55.08C179.32 55.68 179.5 56.36 179.5 57.06ZM161.66 36H146.88C145.169 36.0005 143.512 36.5951 142.192 37.6822C140.871 38.7694 139.969 40.2815 139.64 41.96H148.38C149.14 41.96 149.74 42.58 149.74 43.34C149.74 44.1 149.14 44.7 148.38 44.7H139.5V47.46H144.7C145.46 47.46 146.08 48.08 146.08 48.84C146.08 49.6 145.46 50.2 144.7 50.2H139.5V52.96H141.04C141.8 52.96 142.42 53.58 142.42 54.34C142.42 55.1 141.8 55.7 141.04 55.7H139.5V56.16C139.5 57.26 140.4 58.16 141.5 58.16H159.8C161.84 58.16 163.5 56.5 163.5 54.46V37.84C163.5 36.82 162.68 36 161.66 36ZM139.64 41.96H137.38C136.62 41.96 136 42.58 136 43.34C136 44.1 136.62 44.7 137.38 44.7H139.5V43.38C139.5 42.9 139.56 42.42 139.64 41.96ZM139.2 47.46H137.38C136.62 47.46 136 48.08 136 48.84C136 49.6 136.62 50.2 137.38 50.2H139.5V47.46H139.2ZM139.2 52.96H137.38C136.62 52.96 136 53.58 136 54.34C136 55.1 136.62 55.7 137.38 55.7H139.5V52.96H139.2Z" fill="white"/>
<path d="M158.545 -57.936L259.666 -57.936C262.731 -57.9315 265.741 -57.1289 268.394 -55.6087C271.047 -54.0886 273.251 -51.9043 274.783 -49.2749C276.315 -46.6454 277.122 -43.6633 277.123 -40.6274C277.124 -37.5916 276.32 -34.6088 274.79 -31.9781L224.214 54.7297L173.67 141.374C172.133 143.998 169.927 146.177 167.273 147.691C164.618 149.206 161.609 150.003 158.545 150.003C155.482 150.003 152.472 149.206 149.818 147.691C147.164 146.177 144.958 143.998 143.421 141.374L92.8769 54.6657L42.333 -32.0421C40.8032 -34.6728 39.9986 -37.6556 39.9999 -40.6915C40.0012 -43.7273 40.8084 -46.7094 42.3404 -49.3389C43.8725 -51.9683 46.0755 -54.1526 48.7288 -55.6728C51.382 -57.1929 54.3922 -57.9955 57.4574 -58L158.545 -57.936Z" fill="url(#paint1_linear_26_1103)" fill-opacity="0.49"/>
<path d="M113.542 105.939H110.418V110H108.408V100.047H113.918V101.722H110.418V104.271H113.542V105.939ZM117.001 110H115.06V99.5H117.001V110ZM118.272 106.062C118.272 104.941 118.537 104.062 119.065 103.424C119.594 102.786 120.326 102.467 121.26 102.467C122.203 102.467 122.939 102.786 123.468 103.424C123.996 104.062 124.261 104.946 124.261 106.076V106.548C124.261 107.674 123.999 108.553 123.475 109.187C122.951 109.82 122.217 110.137 121.273 110.137C120.326 110.137 119.587 109.82 119.059 109.187C118.535 108.549 118.272 107.664 118.272 106.534V106.062ZM120.214 106.548C120.214 107.869 120.567 108.53 121.273 108.53C121.925 108.53 122.276 107.979 122.326 106.876L122.333 106.062C122.333 105.388 122.24 104.889 122.053 104.565C121.866 104.237 121.602 104.073 121.26 104.073C120.932 104.073 120.674 104.237 120.487 104.565C120.305 104.889 120.214 105.388 120.214 106.062V106.548ZM127.72 100.785V102.604H128.711V104.06H127.72V107.73C127.72 108.022 127.758 108.223 127.836 108.332C127.918 108.441 128.073 108.496 128.301 108.496C128.488 108.496 128.64 108.48 128.759 108.448L128.745 109.952C128.417 110.075 128.062 110.137 127.679 110.137C126.43 110.137 125.799 109.421 125.785 107.99V104.06H124.931V102.604H125.785V100.785H127.72ZM132.026 100.785V102.604H133.018V104.06H132.026V107.73C132.026 108.022 132.065 108.223 132.143 108.332C132.225 108.441 132.38 108.496 132.607 108.496C132.794 108.496 132.947 108.48 133.065 108.448L133.052 109.952C132.724 110.075 132.368 110.137 131.985 110.137C130.737 110.137 130.105 109.421 130.092 107.99V104.06H129.237V102.604H130.092V100.785H132.026ZM137.598 110C137.543 109.886 137.488 109.695 137.434 109.426C137.087 109.9 136.618 110.137 136.025 110.137C135.406 110.137 134.891 109.932 134.48 109.521C134.075 109.111 133.872 108.58 133.872 107.929C133.872 107.154 134.118 106.555 134.61 106.131C135.107 105.707 135.82 105.491 136.75 105.481H137.338V104.887C137.338 104.554 137.281 104.319 137.167 104.183C137.053 104.046 136.887 103.978 136.668 103.978C136.185 103.978 135.943 104.26 135.943 104.825H134.009C134.009 104.142 134.264 103.579 134.774 103.137C135.289 102.69 135.939 102.467 136.723 102.467C137.534 102.467 138.16 102.679 138.603 103.103C139.049 103.522 139.272 104.123 139.272 104.907V108.387C139.282 109.025 139.373 109.524 139.546 109.884V110H137.598ZM136.456 108.619C136.67 108.619 136.853 108.576 137.003 108.489C137.153 108.403 137.265 108.3 137.338 108.182V106.644H136.873C136.545 106.644 136.285 106.748 136.094 106.958C135.907 107.168 135.813 107.448 135.813 107.799C135.813 108.346 136.028 108.619 136.456 108.619ZM142.492 102.604L142.547 103.287C142.98 102.74 143.552 102.467 144.263 102.467C145.001 102.467 145.523 102.799 145.828 103.465C146.252 102.799 146.856 102.467 147.64 102.467C148.934 102.467 149.597 103.362 149.629 105.153V110H147.694V105.276C147.694 104.848 147.635 104.543 147.517 104.36C147.398 104.178 147.198 104.087 146.915 104.087C146.555 104.087 146.286 104.308 146.108 104.75L146.122 104.982V110H144.188V105.29C144.188 104.866 144.131 104.561 144.017 104.374C143.903 104.183 143.7 104.087 143.408 104.087C143.076 104.087 142.811 104.267 142.615 104.627V110H140.681V102.604H142.492ZM154.052 110.137C153.058 110.137 152.284 109.84 151.728 109.248C151.172 108.656 150.894 107.808 150.894 106.705V106.117C150.894 104.951 151.149 104.05 151.659 103.417C152.17 102.784 152.901 102.467 153.854 102.467C154.783 102.467 155.483 102.765 155.952 103.362C156.422 103.955 156.661 104.834 156.67 106.001V106.951H152.821C152.849 107.498 152.969 107.899 153.184 108.154C153.398 108.405 153.728 108.53 154.175 108.53C154.822 108.53 155.362 108.309 155.795 107.867L156.554 109.036C156.317 109.364 155.973 109.631 155.521 109.836C155.07 110.036 154.58 110.137 154.052 110.137ZM152.835 105.598H154.77V105.42C154.76 104.978 154.688 104.643 154.551 104.415C154.414 104.187 154.177 104.073 153.84 104.073C153.503 104.073 153.257 104.194 153.102 104.436C152.951 104.677 152.862 105.064 152.835 105.598ZM157.531 106.076C157.531 104.864 157.75 103.959 158.188 103.362C158.625 102.765 159.238 102.467 160.026 102.467C160.696 102.467 161.214 102.731 161.578 103.26L161.653 102.604H163.396V110C163.396 110.943 163.132 111.663 162.604 112.16C162.075 112.661 161.316 112.912 160.327 112.912C159.922 112.912 159.495 112.83 159.049 112.666C158.602 112.507 158.27 112.301 158.051 112.051L158.7 110.711C158.882 110.902 159.119 111.057 159.411 111.176C159.703 111.299 159.979 111.36 160.238 111.36C160.671 111.36 160.981 111.256 161.168 111.046C161.359 110.841 161.457 110.508 161.462 110.048V109.412C161.093 109.895 160.612 110.137 160.02 110.137C159.231 110.137 158.62 109.831 158.188 109.221C157.759 108.605 157.54 107.74 157.531 106.623V106.076ZM159.466 106.562C159.466 107.245 159.555 107.744 159.732 108.059C159.91 108.368 160.193 108.523 160.58 108.523C160.977 108.523 161.271 108.38 161.462 108.093V104.559C161.261 104.244 160.972 104.087 160.594 104.087C160.211 104.087 159.926 104.244 159.739 104.559C159.557 104.873 159.466 105.379 159.466 106.076V106.562ZM164.579 106.062C164.579 104.941 164.843 104.062 165.372 103.424C165.901 102.786 166.632 102.467 167.566 102.467C168.51 102.467 169.246 102.786 169.774 103.424C170.303 104.062 170.567 104.946 170.567 106.076V106.548C170.567 107.674 170.305 108.553 169.781 109.187C169.257 109.82 168.523 110.137 167.58 110.137C166.632 110.137 165.894 109.82 165.365 109.187C164.841 108.549 164.579 107.664 164.579 106.534V106.062ZM166.521 106.548C166.521 107.869 166.874 108.53 167.58 108.53C168.232 108.53 168.583 107.979 168.633 106.876L168.64 106.062C168.64 105.388 168.546 104.889 168.359 104.565C168.173 104.237 167.908 104.073 167.566 104.073C167.238 104.073 166.981 104.237 166.794 104.565C166.612 104.889 166.521 105.388 166.521 106.062V106.548ZM173.808 110H171.866V99.5H173.808V110ZM175.045 106.076C175.045 104.864 175.25 103.959 175.66 103.362C176.07 102.765 176.667 102.467 177.451 102.467C178.021 102.467 178.495 102.713 178.873 103.205V99.5H180.821V110H179.064L178.976 109.248C178.579 109.84 178.069 110.137 177.444 110.137C176.67 110.137 176.077 109.84 175.667 109.248C175.261 108.656 175.054 107.785 175.045 106.637V106.076ZM176.986 106.562C176.986 107.291 177.064 107.801 177.219 108.093C177.374 108.38 177.636 108.523 178.005 108.523C178.388 108.523 178.677 108.353 178.873 108.011V104.634C178.682 104.269 178.395 104.087 178.012 104.087C177.656 104.087 177.396 104.23 177.232 104.518C177.068 104.805 176.986 105.315 176.986 106.049V106.562ZM185.764 110C185.709 109.886 185.654 109.695 185.6 109.426C185.253 109.9 184.784 110.137 184.191 110.137C183.572 110.137 183.057 109.932 182.646 109.521C182.241 109.111 182.038 108.58 182.038 107.929C182.038 107.154 182.284 106.555 182.776 106.131C183.273 105.707 183.986 105.491 184.916 105.481H185.504V104.887C185.504 104.554 185.447 104.319 185.333 104.183C185.219 104.046 185.053 103.978 184.834 103.978C184.351 103.978 184.109 104.26 184.109 104.825H182.175C182.175 104.142 182.43 103.579 182.94 103.137C183.455 102.69 184.105 102.467 184.889 102.467C185.7 102.467 186.326 102.679 186.769 103.103C187.215 103.522 187.438 104.123 187.438 104.907V108.387C187.448 109.025 187.539 109.524 187.712 109.884V110H185.764ZM184.622 108.619C184.836 108.619 185.019 108.576 185.169 108.489C185.319 108.403 185.431 108.3 185.504 108.182V106.644H185.039C184.711 106.644 184.451 106.748 184.26 106.958C184.073 107.168 183.979 107.448 183.979 107.799C183.979 108.346 184.194 108.619 184.622 108.619ZM185.203 99.5H187.377L185.477 101.619H183.863L185.203 99.5ZM192.114 108.018C192.114 107.854 192.035 107.703 191.875 107.566C191.72 107.425 191.371 107.236 190.829 106.999C190.032 106.675 189.482 106.34 189.182 105.994C188.885 105.648 188.737 105.217 188.737 104.702C188.737 104.055 188.97 103.522 189.435 103.103C189.904 102.679 190.524 102.467 191.294 102.467C192.105 102.467 192.755 102.676 193.242 103.096C193.73 103.515 193.974 104.078 193.974 104.784H192.039C192.039 104.183 191.788 103.882 191.287 103.882C191.082 103.882 190.913 103.946 190.781 104.073C190.649 104.201 190.583 104.379 190.583 104.606C190.583 104.771 190.656 104.916 190.802 105.044C190.948 105.167 191.292 105.345 191.834 105.577C192.622 105.869 193.178 106.195 193.502 106.555C193.83 106.91 193.994 107.373 193.994 107.942C193.994 108.603 193.746 109.134 193.249 109.535C192.752 109.936 192.101 110.137 191.294 110.137C190.752 110.137 190.273 110.032 189.858 109.822C189.444 109.608 189.118 109.312 188.881 108.934C188.648 108.555 188.532 108.147 188.532 107.71H190.371C190.38 108.047 190.458 108.3 190.604 108.469C190.754 108.637 190.998 108.722 191.335 108.722C191.854 108.722 192.114 108.487 192.114 108.018ZM194.972 106.062C194.972 104.941 195.236 104.062 195.765 103.424C196.293 102.786 197.025 102.467 197.959 102.467C198.902 102.467 199.638 102.786 200.167 103.424C200.696 104.062 200.96 104.946 200.96 106.076V106.548C200.96 107.674 200.698 108.553 200.174 109.187C199.65 109.82 198.916 110.137 197.973 110.137C197.025 110.137 196.286 109.82 195.758 109.187C195.234 108.549 194.972 107.664 194.972 106.534V106.062ZM196.913 106.548C196.913 107.869 197.266 108.53 197.973 108.53C198.624 108.53 198.975 107.979 199.025 106.876L199.032 106.062C199.032 105.388 198.939 104.889 198.752 104.565C198.565 104.237 198.301 104.073 197.959 104.073C197.631 104.073 197.373 104.237 197.187 104.565C197.004 104.889 196.913 105.388 196.913 106.062V106.548ZM204.624 107.149L204.104 107.73V110H202.17V99.5H204.104V105.174L204.344 104.818L205.684 102.604H207.987L205.841 105.652L208.192 110H205.978L204.624 107.149ZM135.943 128.53C136.504 128.53 136.789 128.166 136.798 127.437H138.616C138.607 128.243 138.359 128.895 137.871 129.392C137.383 129.888 136.755 130.137 135.984 130.137C135.032 130.137 134.305 129.84 133.804 129.248C133.302 128.656 133.047 127.783 133.038 126.63V126.042C133.038 124.88 133.284 123.993 133.776 123.383C134.273 122.772 135.005 122.467 135.971 122.467C136.786 122.467 137.429 122.72 137.898 123.226C138.368 123.727 138.607 124.44 138.616 125.365H136.798C136.793 124.951 136.725 124.632 136.593 124.408C136.461 124.185 136.242 124.073 135.937 124.073C135.599 124.073 135.358 124.194 135.212 124.436C135.066 124.673 134.989 125.135 134.979 125.823V126.575C134.979 127.177 135.009 127.598 135.068 127.84C135.128 128.077 135.226 128.252 135.362 128.366C135.499 128.476 135.693 128.53 135.943 128.53ZM142.697 130.137C141.704 130.137 140.929 129.84 140.373 129.248C139.817 128.656 139.539 127.808 139.539 126.705V126.117C139.539 124.951 139.794 124.05 140.305 123.417C140.815 122.784 141.547 122.467 142.499 122.467C143.429 122.467 144.128 122.765 144.598 123.362C145.067 123.955 145.306 124.834 145.315 126.001V126.951H141.467C141.494 127.498 141.615 127.899 141.829 128.154C142.043 128.405 142.374 128.53 142.82 128.53C143.467 128.53 144.007 128.309 144.44 127.867L145.199 129.036C144.962 129.364 144.618 129.631 144.167 129.836C143.716 130.036 143.226 130.137 142.697 130.137ZM141.48 125.598H143.415V125.42C143.406 124.978 143.333 124.643 143.196 124.415C143.06 124.187 142.823 124.073 142.485 124.073C142.148 124.073 141.902 124.194 141.747 124.436C141.597 124.677 141.508 125.064 141.48 125.598ZM142.629 119.5H144.803L142.902 121.619H141.289L142.629 119.5ZM146.177 126.076C146.177 124.864 146.396 123.959 146.833 123.362C147.271 122.765 147.883 122.467 148.672 122.467C149.342 122.467 149.859 122.731 150.224 123.26L150.299 122.604H152.042V130C152.042 130.943 151.778 131.663 151.249 132.16C150.72 132.661 149.962 132.912 148.973 132.912C148.567 132.912 148.141 132.83 147.694 132.666C147.248 132.507 146.915 132.301 146.696 132.051L147.346 130.711C147.528 130.902 147.765 131.057 148.057 131.176C148.348 131.299 148.624 131.36 148.884 131.36C149.317 131.36 149.627 131.256 149.813 131.046C150.005 130.841 150.103 130.508 150.107 130.048V129.412C149.738 129.895 149.257 130.137 148.665 130.137C147.877 130.137 147.266 129.831 146.833 129.221C146.405 128.605 146.186 127.74 146.177 126.623V126.076ZM148.111 126.562C148.111 127.245 148.2 127.744 148.378 128.059C148.556 128.368 148.838 128.523 149.226 128.523C149.622 128.523 149.916 128.38 150.107 128.093V124.559C149.907 124.244 149.618 124.087 149.239 124.087C148.856 124.087 148.572 124.244 148.385 124.559C148.202 124.873 148.111 125.379 148.111 126.076V126.562ZM156.438 130.137C155.444 130.137 154.669 129.84 154.113 129.248C153.557 128.656 153.279 127.808 153.279 126.705V126.117C153.279 124.951 153.535 124.05 154.045 123.417C154.555 122.784 155.287 122.467 156.239 122.467C157.169 122.467 157.868 122.765 158.338 123.362C158.807 123.955 159.047 124.834 159.056 126.001V126.951H155.207C155.234 127.498 155.355 127.899 155.569 128.154C155.784 128.405 156.114 128.53 156.561 128.53C157.208 128.53 157.748 128.309 158.181 127.867L158.939 129.036C158.702 129.364 158.358 129.631 157.907 129.836C157.456 130.036 156.966 130.137 156.438 130.137ZM155.221 125.598H157.155V125.42C157.146 124.978 157.073 124.643 156.937 124.415C156.8 124.187 156.563 124.073 156.226 124.073C155.888 124.073 155.642 124.194 155.487 124.436C155.337 124.677 155.248 125.064 155.221 125.598ZM162.604 127.149L162.084 127.73V130H160.149V119.5H162.084V125.174L162.323 124.818L163.663 122.604H165.967L163.82 125.652L166.172 130H163.957L162.604 127.149ZM168.619 122.604L168.674 123.335C169.111 122.756 169.683 122.467 170.39 122.467C171.661 122.467 172.315 123.358 172.352 125.14V130H170.41V125.283C170.41 124.864 170.346 124.561 170.219 124.374C170.096 124.183 169.877 124.087 169.562 124.087C169.212 124.087 168.938 124.267 168.742 124.627V130H166.801V122.604H168.619ZM176.727 130.137C175.733 130.137 174.958 129.84 174.402 129.248C173.846 128.656 173.568 127.808 173.568 126.705V126.117C173.568 124.951 173.824 124.05 174.334 123.417C174.844 122.784 175.576 122.467 176.528 122.467C177.458 122.467 178.158 122.765 178.627 123.362C179.096 123.955 179.336 124.834 179.345 126.001V126.951H175.496C175.523 127.498 175.644 127.899 175.858 128.154C176.073 128.405 176.403 128.53 176.85 128.53C177.497 128.53 178.037 128.309 178.47 127.867L179.229 129.036C178.992 129.364 178.647 129.631 178.196 129.836C177.745 130.036 177.255 130.137 176.727 130.137ZM175.51 125.598H177.444V125.42C177.435 124.978 177.362 124.643 177.226 124.415C177.089 124.187 176.852 124.073 176.515 124.073C176.177 124.073 175.931 124.194 175.776 124.436C175.626 124.677 175.537 125.064 175.51 125.598ZM182.893 127.149L182.373 127.73V130H180.438V119.5H182.373V125.174L182.612 124.818L183.952 122.604H186.256L184.109 125.652L186.461 130H184.246L182.893 127.149Z" fill="white"/>
</g>
</g>
<defs>
<filter id="filter0_d_26_1103" x="0" y="0" width="329" height="177" filterUnits="userSpaceOnUse" color-interpolation-filters="sRGB">
<feFlood flood-opacity="0" result="BackgroundImageFix"/>
<feColorMatrix in="SourceAlpha" type="matrix" values="0 0 0 0 0 0 0 0 0 0 0 0 0 0 0 0 0 0 127 0" result="hardAlpha"/>
<feOffset dx="5" dy="5"/>
<feGaussianBlur stdDeviation="11"/>
<feComposite in2="hardAlpha" operator="out"/>
<feColorMatrix type="matrix" values="0 0 0 0 0.960784 0 0 0 0 0.490196 0 0 0 0 0.129412 0 0 0 0.2 0"/>
<feBlend mode="normal" in2="BackgroundImageFix" result="effect1_dropShadow_26_1103"/>
<feBlend mode="normal" in="SourceGraphic" in2="effect1_dropShadow_26_1103" result="shape"/>
</filter>
<linearGradient id="paint0_linear_26_1103" x1="159.5" y1="17" x2="159.5" y2="150" gradientUnits="userSpaceOnUse">
<stop stop-color="#F58C1F"/>
<stop offset="1" stop-color="#F57D21"/>
</linearGradient>
<linearGradient id="paint1_linear_26_1103" x1="157.868" y1="-72.5602" x2="157.868" y2="90.3753" gradientUnits="userSpaceOnUse">
<stop stop-color="white"/>
<stop offset="1" stop-color="white" stop-opacity="0"/>
</linearGradient>
<clipPath id="clip0_26_1103">
<rect x="17" y="17" width="285" height="133" rx="5" fill="white"/>
</clipPath>
</defs>
</svg>
