<svg width="329" height="177" viewBox="0 0 329 177" fill="none" xmlns="http://www.w3.org/2000/svg">
<g filter="url(#filter0_d_1_11)">
<g clip-path="url(#clip0_1_11)">
<rect x="17" y="17" width="285" height="133" rx="5" fill="url(#paint0_linear_1_11)"/>
<path d="M178 68.94L174.7 69.72C173.96 69.9 173.38 70.46 173.22 71.2L172.52 74.14C172.14 75.74 170.1 76.24 169.04 74.98L163.06 68.1C162.949 67.9719 162.872 67.8175 162.837 67.6515C162.802 67.4854 162.81 67.3132 162.86 67.151C162.91 66.9888 163 66.8421 163.123 66.7247C163.245 66.6073 163.396 66.5231 163.56 66.48C167.11 65.6169 170.287 63.632 172.62 60.82C173 60.36 173.68 60.3 174.1 60.72L178.54 65.16C180.06 66.68 179.52 68.58 178 68.94ZM140.9 68.94L144.2 69.72C144.94 69.9 145.52 70.46 145.68 71.2L146.38 74.14C146.76 75.74 148.8 76.24 149.86 74.98L155.84 68.1C156.32 67.54 156.06 66.66 155.34 66.48C151.79 65.6169 148.613 63.632 146.28 60.82C146.194 60.71 146.085 60.6193 145.961 60.554C145.838 60.4886 145.702 60.4499 145.562 60.4405C145.423 60.4311 145.283 60.4511 145.151 60.4992C145.02 60.5474 144.9 60.6226 144.8 60.72L140.36 65.16C138.84 66.68 139.38 68.58 140.9 68.94V68.94ZM159.5 36C151.76 36 145.5 42.26 145.5 50C145.5 52.9 146.36 55.56 147.84 57.78C148.924 59.3975 150.335 60.7704 151.982 61.8105C153.628 62.8507 155.474 63.5352 157.4 63.82C158.08 63.94 158.78 64 159.5 64C160.22 64 160.92 63.94 161.6 63.82C165.58 63.24 169 60.98 171.16 57.78C172.695 55.4766 173.51 52.7682 173.5 50C173.5 42.26 167.24 36 159.5 36ZM165.62 49.56L163.96 51.22C163.68 51.5 163.52 52.04 163.62 52.44L164.1 54.5C164.48 56.12 163.62 56.76 162.18 55.9L160.18 54.72C159.977 54.6116 159.75 54.5549 159.52 54.5549C159.29 54.5549 159.063 54.6116 158.86 54.72L156.86 55.9C155.42 56.74 154.56 56.12 154.94 54.5L155.42 52.44C155.5 52.06 155.36 51.5 155.08 51.22L153.38 49.56C152.4 48.58 152.72 47.6 154.08 47.38L156.22 47.02C156.58 46.96 157 46.64 157.16 46.32L158.34 43.96C158.98 42.68 160.02 42.68 160.66 43.96L161.84 46.32C162 46.64 162.42 46.96 162.8 47.02L164.94 47.38C166.28 47.6 166.6 48.58 165.62 49.56Z" fill="white"/>
<path d="M96.3906 108.346V110H92.2549V108.346H96.3906ZM92.8701 100.047V110H90.8672V100.047H92.8701ZM100.451 110.137C99.9453 110.137 99.4964 110.059 99.1045 109.904C98.7171 109.749 98.389 109.526 98.1201 109.234C97.8512 108.938 97.6462 108.58 97.5049 108.161C97.3636 107.742 97.293 107.263 97.293 106.726V106.117C97.293 105.516 97.3613 104.989 97.498 104.538C97.6348 104.082 97.8285 103.7 98.0791 103.39C98.3298 103.08 98.6374 102.85 99.002 102.699C99.3711 102.544 99.7881 102.467 100.253 102.467C100.718 102.467 101.126 102.544 101.477 102.699C101.832 102.85 102.126 103.077 102.358 103.383C102.591 103.684 102.766 104.057 102.885 104.504C103.003 104.951 103.062 105.47 103.062 106.062V106.938H98.1064V105.591H101.183V105.42C101.183 105.119 101.151 104.868 101.087 104.668C101.023 104.463 100.923 104.31 100.786 104.21C100.649 104.11 100.467 104.06 100.239 104.06C100.048 104.06 99.8861 104.098 99.7539 104.176C99.6217 104.253 99.5169 104.374 99.4395 104.538C99.362 104.702 99.305 104.916 99.2686 105.181C99.2321 105.44 99.2139 105.753 99.2139 106.117V106.726C99.2139 107.067 99.2435 107.354 99.3027 107.587C99.362 107.815 99.4486 108.002 99.5625 108.147C99.681 108.289 99.8245 108.391 99.9932 108.455C100.162 108.514 100.358 108.544 100.581 108.544C100.918 108.544 101.221 108.485 101.49 108.366C101.764 108.243 101.996 108.077 102.188 107.867L102.953 109.029C102.821 109.202 102.639 109.376 102.406 109.549C102.174 109.722 101.896 109.863 101.572 109.973C101.249 110.082 100.875 110.137 100.451 110.137ZM108.06 102.604H109.796V110C109.796 110.674 109.666 111.226 109.406 111.654C109.151 112.087 108.793 112.404 108.333 112.604C107.877 112.81 107.344 112.912 106.733 112.912C106.501 112.912 106.239 112.88 105.947 112.816C105.66 112.753 105.382 112.655 105.113 112.522C104.844 112.395 104.623 112.24 104.45 112.058L105.1 110.731C105.277 110.909 105.51 111.06 105.797 111.183C106.084 111.31 106.367 111.374 106.645 111.374C106.913 111.374 107.137 111.331 107.314 111.244C107.497 111.162 107.633 111.021 107.725 110.82C107.82 110.62 107.868 110.351 107.868 110.014V104.319L108.06 102.604ZM103.931 106.562V106.069C103.931 105.468 103.988 104.941 104.102 104.49C104.215 104.039 104.38 103.663 104.594 103.362C104.808 103.062 105.07 102.838 105.38 102.692C105.694 102.542 106.045 102.467 106.433 102.467C106.838 102.467 107.178 102.556 107.451 102.733C107.725 102.907 107.946 103.15 108.114 103.465C108.287 103.779 108.42 104.151 108.511 104.579C108.606 105.007 108.679 105.477 108.729 105.987V106.698C108.679 107.181 108.597 107.632 108.483 108.052C108.374 108.471 108.228 108.836 108.046 109.146C107.864 109.455 107.64 109.699 107.376 109.877C107.112 110.05 106.793 110.137 106.419 110.137C106.036 110.137 105.69 110.059 105.38 109.904C105.075 109.749 104.812 109.521 104.594 109.221C104.38 108.915 104.215 108.542 104.102 108.1C103.988 107.653 103.931 107.14 103.931 106.562ZM105.852 106.069V106.562C105.852 106.908 105.872 107.206 105.913 107.457C105.959 107.703 106.027 107.906 106.118 108.065C106.209 108.22 106.326 108.337 106.467 108.414C106.613 108.487 106.784 108.523 106.979 108.523C107.257 108.523 107.479 108.46 107.643 108.332C107.811 108.2 107.934 108.02 108.012 107.792C108.094 107.56 108.139 107.293 108.148 106.992V105.7C108.144 105.45 108.114 105.224 108.06 105.023C108.009 104.823 107.939 104.652 107.848 104.511C107.757 104.369 107.638 104.26 107.492 104.183C107.351 104.105 107.185 104.066 106.993 104.066C106.797 104.066 106.629 104.105 106.487 104.183C106.346 104.26 106.228 104.381 106.132 104.545C106.041 104.704 105.97 104.912 105.92 105.167C105.874 105.418 105.852 105.718 105.852 106.069ZM113.104 104.183V110H111.184V102.604H112.981L113.104 104.183ZM112.817 106.049L112.305 106.062C112.296 105.507 112.348 105.007 112.462 104.565C112.58 104.123 112.747 103.747 112.961 103.438C113.18 103.123 113.439 102.884 113.74 102.72C114.046 102.551 114.385 102.467 114.759 102.467C115.046 102.467 115.308 102.517 115.545 102.617C115.786 102.717 115.994 102.877 116.167 103.096C116.34 103.314 116.475 103.606 116.57 103.971C116.666 104.331 116.714 104.773 116.714 105.297V110H114.793V105.283C114.793 104.964 114.761 104.718 114.697 104.545C114.633 104.367 114.538 104.244 114.41 104.176C114.283 104.103 114.123 104.066 113.932 104.066C113.749 104.066 113.588 104.119 113.446 104.224C113.305 104.324 113.187 104.463 113.091 104.641C113 104.818 112.929 105.028 112.879 105.27C112.833 105.511 112.813 105.771 112.817 106.049ZM121.376 108.298V104.88C121.376 104.657 121.349 104.479 121.294 104.347C121.244 104.215 121.166 104.119 121.062 104.06C120.961 103.996 120.838 103.964 120.692 103.964C120.528 103.964 120.392 103.998 120.282 104.066C120.173 104.135 120.091 104.233 120.036 104.36C119.986 104.488 119.961 104.641 119.961 104.818H118.04C118.04 104.499 118.102 104.199 118.225 103.916C118.348 103.629 118.528 103.378 118.765 103.164C119.006 102.945 119.293 102.774 119.626 102.651C119.959 102.528 120.332 102.467 120.747 102.467C121.239 102.467 121.677 102.551 122.06 102.72C122.442 102.884 122.745 103.146 122.969 103.506C123.192 103.866 123.304 104.333 123.304 104.907V108.202C123.304 108.617 123.324 108.954 123.365 109.214C123.411 109.474 123.477 109.697 123.563 109.884V110H121.636C121.549 109.795 121.483 109.54 121.438 109.234C121.396 108.924 121.376 108.612 121.376 108.298ZM121.608 105.481L121.615 106.63H120.911C120.729 106.63 120.569 106.66 120.433 106.719C120.3 106.778 120.189 106.862 120.098 106.972C120.007 107.076 119.938 107.2 119.893 107.341C119.852 107.482 119.831 107.632 119.831 107.792C119.831 107.97 119.856 108.12 119.906 108.243C119.956 108.366 120.032 108.46 120.132 108.523C120.232 108.587 120.351 108.619 120.487 108.619C120.697 108.619 120.879 108.576 121.034 108.489C121.189 108.403 121.303 108.298 121.376 108.175C121.453 108.052 121.479 107.938 121.451 107.833L121.889 108.578C121.834 108.747 121.759 108.922 121.663 109.104C121.572 109.287 121.456 109.455 121.314 109.61C121.173 109.765 120.998 109.893 120.788 109.993C120.583 110.089 120.339 110.137 120.057 110.137C119.66 110.137 119.298 110.046 118.97 109.863C118.642 109.681 118.382 109.426 118.19 109.098C118.004 108.77 117.91 108.38 117.91 107.929C117.91 107.555 117.969 107.218 118.088 106.917C118.211 106.612 118.393 106.354 118.635 106.145C118.876 105.93 119.182 105.766 119.551 105.652C119.92 105.538 120.353 105.481 120.85 105.481H121.608ZM128.608 102.604H130.345V110C130.345 110.674 130.215 111.226 129.955 111.654C129.7 112.087 129.342 112.404 128.882 112.604C128.426 112.81 127.893 112.912 127.282 112.912C127.05 112.912 126.788 112.88 126.496 112.816C126.209 112.753 125.931 112.655 125.662 112.522C125.393 112.395 125.172 112.24 124.999 112.058L125.648 110.731C125.826 110.909 126.059 111.06 126.346 111.183C126.633 111.31 126.915 111.374 127.193 111.374C127.462 111.374 127.686 111.331 127.863 111.244C128.046 111.162 128.182 111.021 128.273 110.82C128.369 110.62 128.417 110.351 128.417 110.014V104.319L128.608 102.604ZM124.479 106.562V106.069C124.479 105.468 124.536 104.941 124.65 104.49C124.764 104.039 124.928 103.663 125.143 103.362C125.357 103.062 125.619 102.838 125.929 102.692C126.243 102.542 126.594 102.467 126.981 102.467C127.387 102.467 127.727 102.556 128 102.733C128.273 102.907 128.494 103.15 128.663 103.465C128.836 103.779 128.968 104.151 129.06 104.579C129.155 105.007 129.228 105.477 129.278 105.987V106.698C129.228 107.181 129.146 107.632 129.032 108.052C128.923 108.471 128.777 108.836 128.595 109.146C128.412 109.455 128.189 109.699 127.925 109.877C127.66 110.05 127.341 110.137 126.968 110.137C126.585 110.137 126.239 110.059 125.929 109.904C125.623 109.749 125.361 109.521 125.143 109.221C124.928 108.915 124.764 108.542 124.65 108.1C124.536 107.653 124.479 107.14 124.479 106.562ZM126.4 106.069V106.562C126.4 106.908 126.421 107.206 126.462 107.457C126.507 107.703 126.576 107.906 126.667 108.065C126.758 108.22 126.874 108.337 127.016 108.414C127.161 108.487 127.332 108.523 127.528 108.523C127.806 108.523 128.027 108.46 128.191 108.332C128.36 108.2 128.483 108.02 128.561 107.792C128.643 107.56 128.688 107.293 128.697 106.992V105.7C128.693 105.45 128.663 105.224 128.608 105.023C128.558 104.823 128.488 104.652 128.396 104.511C128.305 104.369 128.187 104.26 128.041 104.183C127.9 104.105 127.733 104.066 127.542 104.066C127.346 104.066 127.177 104.105 127.036 104.183C126.895 104.26 126.776 104.381 126.681 104.545C126.59 104.704 126.519 104.912 126.469 105.167C126.423 105.418 126.4 105.718 126.4 106.069ZM133.633 109.152L135.178 102.604H137.174L134.74 111.107C134.686 111.294 134.61 111.495 134.515 111.709C134.419 111.928 134.291 112.133 134.132 112.324C133.977 112.52 133.781 112.68 133.544 112.803C133.307 112.926 133.022 112.987 132.689 112.987C132.521 112.987 132.384 112.976 132.279 112.953C132.179 112.935 132.051 112.903 131.896 112.857V111.367C131.938 111.367 131.976 111.367 132.013 111.367C132.054 111.372 132.092 111.374 132.129 111.374C132.343 111.374 132.514 111.344 132.642 111.285C132.769 111.23 132.872 111.144 132.949 111.025C133.031 110.907 133.1 110.759 133.154 110.581L133.633 109.152ZM133.236 102.604L134.385 107.908L134.645 110.068L133.353 110.191L131.186 102.604H133.236ZM137.68 106.555V106.056C137.68 105.477 137.748 104.964 137.885 104.518C138.026 104.071 138.227 103.697 138.486 103.396C138.746 103.091 139.058 102.861 139.423 102.706C139.792 102.547 140.204 102.467 140.66 102.467C141.12 102.467 141.533 102.547 141.897 102.706C142.267 102.861 142.581 103.091 142.841 103.396C143.105 103.697 143.308 104.071 143.449 104.518C143.59 104.964 143.661 105.477 143.661 106.056V106.555C143.661 107.129 143.59 107.639 143.449 108.086C143.308 108.533 143.105 108.909 142.841 109.214C142.581 109.519 142.269 109.749 141.904 109.904C141.54 110.059 141.13 110.137 140.674 110.137C140.218 110.137 139.806 110.059 139.437 109.904C139.072 109.749 138.757 109.519 138.493 109.214C138.229 108.909 138.026 108.533 137.885 108.086C137.748 107.639 137.68 107.129 137.68 106.555ZM139.594 106.056V106.555C139.594 106.896 139.617 107.193 139.662 107.443C139.712 107.694 139.783 107.901 139.874 108.065C139.97 108.229 140.084 108.35 140.216 108.428C140.348 108.505 140.501 108.544 140.674 108.544C140.847 108.544 141.002 108.505 141.139 108.428C141.275 108.35 141.387 108.229 141.474 108.065C141.565 107.901 141.631 107.694 141.672 107.443C141.717 107.193 141.74 106.896 141.74 106.555V106.056C141.74 105.723 141.715 105.431 141.665 105.181C141.615 104.925 141.544 104.718 141.453 104.559C141.362 104.395 141.248 104.271 141.111 104.189C140.979 104.103 140.829 104.06 140.66 104.06C140.492 104.06 140.341 104.103 140.209 104.189C140.081 104.271 139.97 104.395 139.874 104.559C139.783 104.718 139.712 104.925 139.662 105.181C139.617 105.431 139.594 105.723 139.594 106.056ZM144.878 99.5H146.785V108.284L146.648 110H144.878V99.5ZM150.627 106.056V106.541C150.627 107.143 150.579 107.667 150.483 108.113C150.392 108.56 150.249 108.934 150.053 109.234C149.861 109.535 149.615 109.761 149.314 109.911C149.014 110.062 148.658 110.137 148.248 110.137C147.879 110.137 147.562 110.05 147.298 109.877C147.034 109.699 146.81 109.455 146.628 109.146C146.45 108.831 146.304 108.464 146.19 108.045C146.081 107.621 146.001 107.159 145.951 106.657V105.939C145.997 105.447 146.074 104.989 146.184 104.565C146.298 104.142 146.443 103.775 146.621 103.465C146.799 103.15 147.02 102.907 147.284 102.733C147.553 102.556 147.87 102.467 148.234 102.467C148.654 102.467 149.014 102.544 149.314 102.699C149.615 102.85 149.861 103.075 150.053 103.376C150.249 103.677 150.392 104.053 150.483 104.504C150.579 104.951 150.627 105.468 150.627 106.056ZM148.72 106.541V106.056C148.72 105.714 148.706 105.42 148.679 105.174C148.651 104.928 148.601 104.723 148.528 104.559C148.455 104.395 148.351 104.271 148.214 104.189C148.082 104.107 147.906 104.066 147.688 104.066C147.492 104.066 147.327 104.105 147.195 104.183C147.063 104.256 146.949 104.365 146.854 104.511C146.762 104.652 146.694 104.821 146.648 105.017C146.607 105.208 146.585 105.42 146.58 105.652V106.944C146.585 107.259 146.623 107.537 146.696 107.778C146.769 108.02 146.885 108.207 147.045 108.339C147.209 108.471 147.428 108.537 147.701 108.537C147.915 108.537 148.089 108.501 148.221 108.428C148.353 108.355 148.455 108.239 148.528 108.079C148.606 107.92 148.656 107.715 148.679 107.464C148.706 107.209 148.72 106.901 148.72 106.541ZM151.81 99.5H153.717V108.284L153.58 110H151.81V99.5ZM157.559 106.056V106.541C157.559 107.143 157.511 107.667 157.415 108.113C157.324 108.56 157.18 108.934 156.984 109.234C156.793 109.535 156.547 109.761 156.246 109.911C155.945 110.062 155.59 110.137 155.18 110.137C154.811 110.137 154.494 110.05 154.229 109.877C153.965 109.699 153.742 109.455 153.56 109.146C153.382 108.831 153.236 108.464 153.122 108.045C153.013 107.621 152.933 107.159 152.883 106.657V105.939C152.928 105.447 153.006 104.989 153.115 104.565C153.229 104.142 153.375 103.775 153.553 103.465C153.73 103.15 153.951 102.907 154.216 102.733C154.485 102.556 154.801 102.467 155.166 102.467C155.585 102.467 155.945 102.544 156.246 102.699C156.547 102.85 156.793 103.075 156.984 103.376C157.18 103.677 157.324 104.053 157.415 104.504C157.511 104.951 157.559 105.468 157.559 106.056ZM155.651 106.541V106.056C155.651 105.714 155.638 105.42 155.61 105.174C155.583 104.928 155.533 104.723 155.46 104.559C155.387 104.395 155.282 104.271 155.146 104.189C155.013 104.107 154.838 104.066 154.619 104.066C154.423 104.066 154.259 104.105 154.127 104.183C153.995 104.256 153.881 104.365 153.785 104.511C153.694 104.652 153.626 104.821 153.58 105.017C153.539 105.208 153.516 105.42 153.512 105.652V106.944C153.516 107.259 153.555 107.537 153.628 107.778C153.701 108.02 153.817 108.207 153.977 108.339C154.141 108.471 154.359 108.537 154.633 108.537C154.847 108.537 155.02 108.501 155.152 108.428C155.285 108.355 155.387 108.239 155.46 108.079C155.537 107.92 155.588 107.715 155.61 107.464C155.638 107.209 155.651 106.901 155.651 106.541ZM163.827 99.5V110H161.913V99.5H163.827ZM163.554 106.049L163.034 106.062C163.034 105.543 163.087 105.064 163.191 104.627C163.301 104.189 163.458 103.809 163.663 103.485C163.868 103.162 164.117 102.911 164.408 102.733C164.704 102.556 165.03 102.467 165.386 102.467C165.691 102.467 165.969 102.519 166.22 102.624C166.47 102.729 166.687 102.893 166.869 103.116C167.056 103.34 167.2 103.633 167.3 103.998C167.4 104.363 167.45 104.807 167.45 105.331V110H165.529V105.317C165.529 104.998 165.497 104.748 165.434 104.565C165.37 104.383 165.274 104.256 165.146 104.183C165.019 104.105 164.859 104.066 164.668 104.066C164.463 104.066 164.287 104.119 164.142 104.224C164 104.324 163.886 104.463 163.8 104.641C163.713 104.818 163.649 105.028 163.608 105.27C163.572 105.511 163.554 105.771 163.554 106.049ZM172.112 108.298V104.88C172.112 104.657 172.085 104.479 172.03 104.347C171.98 104.215 171.903 104.119 171.798 104.06C171.698 103.996 171.575 103.964 171.429 103.964C171.265 103.964 171.128 103.998 171.019 104.066C170.909 104.135 170.827 104.233 170.772 104.36C170.722 104.488 170.697 104.641 170.697 104.818H168.776C168.776 104.499 168.838 104.199 168.961 103.916C169.084 103.629 169.264 103.378 169.501 103.164C169.743 102.945 170.03 102.774 170.362 102.651C170.695 102.528 171.069 102.467 171.483 102.467C171.976 102.467 172.413 102.551 172.796 102.72C173.179 102.884 173.482 103.146 173.705 103.506C173.928 103.866 174.04 104.333 174.04 104.907V108.202C174.04 108.617 174.061 108.954 174.102 109.214C174.147 109.474 174.213 109.697 174.3 109.884V110H172.372C172.285 109.795 172.219 109.54 172.174 109.234C172.133 108.924 172.112 108.612 172.112 108.298ZM172.345 105.481L172.352 106.63H171.647C171.465 106.63 171.306 106.66 171.169 106.719C171.037 106.778 170.925 106.862 170.834 106.972C170.743 107.076 170.674 107.2 170.629 107.341C170.588 107.482 170.567 107.632 170.567 107.792C170.567 107.97 170.592 108.12 170.643 108.243C170.693 108.366 170.768 108.46 170.868 108.523C170.968 108.587 171.087 108.619 171.224 108.619C171.433 108.619 171.616 108.576 171.771 108.489C171.925 108.403 172.039 108.298 172.112 108.175C172.19 108.052 172.215 107.938 172.188 107.833L172.625 108.578C172.57 108.747 172.495 108.922 172.399 109.104C172.308 109.287 172.192 109.455 172.051 109.61C171.91 109.765 171.734 109.893 171.524 109.993C171.319 110.089 171.076 110.137 170.793 110.137C170.396 110.137 170.034 110.046 169.706 109.863C169.378 109.681 169.118 109.426 168.927 109.098C168.74 108.77 168.646 108.38 168.646 107.929C168.646 107.555 168.706 107.218 168.824 106.917C168.947 106.612 169.13 106.354 169.371 106.145C169.613 105.93 169.918 105.766 170.287 105.652C170.656 105.538 171.089 105.481 171.586 105.481H172.345ZM180.514 108.407V110H175.817V108.407H180.514ZM180.466 103.766L176.569 110H175.291V108.797L179.167 102.604H180.466V103.766ZM179.796 102.604V104.196H175.366V102.604H179.796ZM185.046 108.298V104.88C185.046 104.657 185.019 104.479 184.964 104.347C184.914 104.215 184.836 104.119 184.731 104.06C184.631 103.996 184.508 103.964 184.362 103.964C184.198 103.964 184.062 103.998 183.952 104.066C183.843 104.135 183.761 104.233 183.706 104.36C183.656 104.488 183.631 104.641 183.631 104.818H181.71C181.71 104.499 181.771 104.199 181.895 103.916C182.018 103.629 182.198 103.378 182.435 103.164C182.676 102.945 182.963 102.774 183.296 102.651C183.629 102.528 184.002 102.467 184.417 102.467C184.909 102.467 185.347 102.551 185.729 102.72C186.112 102.884 186.415 103.146 186.639 103.506C186.862 103.866 186.974 104.333 186.974 104.907V108.202C186.974 108.617 186.994 108.954 187.035 109.214C187.081 109.474 187.147 109.697 187.233 109.884V110H185.306C185.219 109.795 185.153 109.54 185.107 109.234C185.066 108.924 185.046 108.612 185.046 108.298ZM185.278 105.481L185.285 106.63H184.581C184.399 106.63 184.239 106.66 184.103 106.719C183.97 106.778 183.859 106.862 183.768 106.972C183.676 107.076 183.608 107.2 183.562 107.341C183.521 107.482 183.501 107.632 183.501 107.792C183.501 107.97 183.526 108.12 183.576 108.243C183.626 108.366 183.701 108.46 183.802 108.523C183.902 108.587 184.021 108.619 184.157 108.619C184.367 108.619 184.549 108.576 184.704 108.489C184.859 108.403 184.973 108.298 185.046 108.175C185.123 108.052 185.148 107.938 185.121 107.833L185.559 108.578C185.504 108.747 185.429 108.922 185.333 109.104C185.242 109.287 185.126 109.455 184.984 109.61C184.843 109.765 184.668 109.893 184.458 109.993C184.253 110.089 184.009 110.137 183.727 110.137C183.33 110.137 182.968 110.046 182.64 109.863C182.312 109.681 182.052 109.426 181.86 109.098C181.674 108.77 181.58 108.38 181.58 107.929C181.58 107.555 181.639 107.218 181.758 106.917C181.881 106.612 182.063 106.354 182.305 106.145C182.546 105.93 182.852 105.766 183.221 105.652C183.59 105.538 184.023 105.481 184.52 105.481H185.278ZM190.398 102.604V110H188.478V102.604H190.398ZM188.389 100.689C188.389 100.393 188.482 100.149 188.669 99.958C188.86 99.762 189.116 99.6641 189.435 99.6641C189.758 99.6641 190.013 99.762 190.2 99.958C190.387 100.149 190.48 100.393 190.48 100.689C190.48 100.981 190.385 101.225 190.193 101.421C190.007 101.612 189.756 101.708 189.441 101.708C189.118 101.708 188.86 101.612 188.669 101.421C188.482 101.225 188.389 100.981 188.389 100.689ZM194.924 106.555V106.056C194.924 105.477 194.992 104.964 195.129 104.518C195.27 104.071 195.471 103.697 195.73 103.396C195.99 103.091 196.302 102.861 196.667 102.706C197.036 102.547 197.449 102.467 197.904 102.467C198.365 102.467 198.777 102.547 199.142 102.706C199.511 102.861 199.825 103.091 200.085 103.396C200.349 103.697 200.552 104.071 200.693 104.518C200.835 104.964 200.905 105.477 200.905 106.056V106.555C200.905 107.129 200.835 107.639 200.693 108.086C200.552 108.533 200.349 108.909 200.085 109.214C199.825 109.519 199.513 109.749 199.148 109.904C198.784 110.059 198.374 110.137 197.918 110.137C197.462 110.137 197.05 110.059 196.681 109.904C196.316 109.749 196.002 109.519 195.737 109.214C195.473 108.909 195.27 108.533 195.129 108.086C194.992 107.639 194.924 107.129 194.924 106.555ZM196.838 106.056V106.555C196.838 106.896 196.861 107.193 196.906 107.443C196.956 107.694 197.027 107.901 197.118 108.065C197.214 108.229 197.328 108.35 197.46 108.428C197.592 108.505 197.745 108.544 197.918 108.544C198.091 108.544 198.246 108.505 198.383 108.428C198.52 108.35 198.631 108.229 198.718 108.065C198.809 107.901 198.875 107.694 198.916 107.443C198.962 107.193 198.984 106.896 198.984 106.555V106.056C198.984 105.723 198.959 105.431 198.909 105.181C198.859 104.925 198.788 104.718 198.697 104.559C198.606 104.395 198.492 104.271 198.355 104.189C198.223 104.103 198.073 104.06 197.904 104.06C197.736 104.06 197.585 104.103 197.453 104.189C197.326 104.271 197.214 104.395 197.118 104.559C197.027 104.718 196.956 104.925 196.906 105.181C196.861 105.431 196.838 105.723 196.838 106.056ZM203.995 104.183V110H202.074V102.604H203.872L203.995 104.183ZM203.708 106.049L203.195 106.062C203.186 105.507 203.239 105.007 203.353 104.565C203.471 104.123 203.637 103.747 203.852 103.438C204.07 103.123 204.33 102.884 204.631 102.72C204.936 102.551 205.276 102.467 205.649 102.467C205.937 102.467 206.199 102.517 206.436 102.617C206.677 102.717 206.884 102.877 207.058 103.096C207.231 103.314 207.365 103.606 207.461 103.971C207.557 104.331 207.604 104.773 207.604 105.297V110H205.684V105.283C205.684 104.964 205.652 104.718 205.588 104.545C205.524 104.367 205.428 104.244 205.301 104.176C205.173 104.103 205.014 104.066 204.822 104.066C204.64 104.066 204.478 104.119 204.337 104.224C204.196 104.324 204.077 104.463 203.981 104.641C203.89 104.818 203.82 105.028 203.77 105.27C203.724 105.511 203.703 105.771 203.708 106.049ZM211.016 99.5V110H209.095V99.5H211.016ZM214.543 102.604V110H212.622V102.604H214.543ZM212.533 100.689C212.533 100.393 212.627 100.149 212.813 99.958C213.005 99.762 213.26 99.6641 213.579 99.6641C213.903 99.6641 214.158 99.762 214.345 99.958C214.532 100.149 214.625 100.393 214.625 100.689C214.625 100.981 214.529 101.225 214.338 101.421C214.151 101.612 213.9 101.708 213.586 101.708C213.262 101.708 213.005 101.612 212.813 101.421C212.627 101.225 212.533 100.981 212.533 100.689ZM217.94 104.183V110H216.02V102.604H217.817L217.94 104.183ZM217.653 106.049L217.141 106.062C217.132 105.507 217.184 105.007 217.298 104.565C217.416 104.123 217.583 103.747 217.797 103.438C218.016 103.123 218.275 102.884 218.576 102.72C218.882 102.551 219.221 102.467 219.595 102.467C219.882 102.467 220.144 102.517 220.381 102.617C220.622 102.717 220.83 102.877 221.003 103.096C221.176 103.314 221.311 103.606 221.406 103.971C221.502 104.331 221.55 104.773 221.55 105.297V110H219.629V105.283C219.629 104.964 219.597 104.718 219.533 104.545C219.469 104.367 219.374 104.244 219.246 104.176C219.118 104.103 218.959 104.066 218.768 104.066C218.585 104.066 218.424 104.119 218.282 104.224C218.141 104.324 218.022 104.463 217.927 104.641C217.836 104.818 217.765 105.028 217.715 105.27C217.669 105.511 217.649 105.771 217.653 106.049ZM225.932 110.137C225.426 110.137 224.977 110.059 224.585 109.904C224.198 109.749 223.869 109.526 223.601 109.234C223.332 108.938 223.127 108.58 222.985 108.161C222.844 107.742 222.773 107.263 222.773 106.726V106.117C222.773 105.516 222.842 104.989 222.979 104.538C223.115 104.082 223.309 103.7 223.56 103.39C223.81 103.08 224.118 102.85 224.482 102.699C224.852 102.544 225.269 102.467 225.733 102.467C226.198 102.467 226.606 102.544 226.957 102.699C227.312 102.85 227.606 103.077 227.839 103.383C228.071 103.684 228.247 104.057 228.365 104.504C228.484 104.951 228.543 105.47 228.543 106.062V106.938H223.587V105.591H226.663V105.42C226.663 105.119 226.631 104.868 226.567 104.668C226.504 104.463 226.403 104.31 226.267 104.21C226.13 104.11 225.948 104.06 225.72 104.06C225.528 104.06 225.367 104.098 225.234 104.176C225.102 104.253 224.997 104.374 224.92 104.538C224.842 104.702 224.785 104.916 224.749 105.181C224.713 105.44 224.694 105.753 224.694 106.117V106.726C224.694 107.067 224.724 107.354 224.783 107.587C224.842 107.815 224.929 108.002 225.043 108.147C225.161 108.289 225.305 108.391 225.474 108.455C225.642 108.514 225.838 108.544 226.062 108.544C226.399 108.544 226.702 108.485 226.971 108.366C227.244 108.243 227.477 108.077 227.668 107.867L228.434 109.029C228.301 109.202 228.119 109.376 227.887 109.549C227.654 109.722 227.376 109.863 227.053 109.973C226.729 110.082 226.355 110.137 225.932 110.137ZM83.3203 128.298V124.88C83.3203 124.657 83.293 124.479 83.2383 124.347C83.1882 124.215 83.1107 124.119 83.0059 124.06C82.9056 123.996 82.7826 123.964 82.6367 123.964C82.4727 123.964 82.3359 123.998 82.2266 124.066C82.1172 124.135 82.0352 124.233 81.9805 124.36C81.9303 124.488 81.9053 124.641 81.9053 124.818H79.9844C79.9844 124.499 80.0459 124.199 80.1689 123.916C80.292 123.629 80.472 123.378 80.709 123.164C80.9505 122.945 81.2376 122.774 81.5703 122.651C81.903 122.528 82.2767 122.467 82.6914 122.467C83.1836 122.467 83.6211 122.551 84.0039 122.72C84.3867 122.884 84.6898 123.146 84.9131 123.506C85.1364 123.866 85.248 124.333 85.248 124.907V128.202C85.248 128.617 85.2686 128.954 85.3096 129.214C85.3551 129.474 85.4212 129.697 85.5078 129.884V130H83.5801C83.4935 129.795 83.4274 129.54 83.3818 129.234C83.3408 128.924 83.3203 128.612 83.3203 128.298ZM83.5527 125.481L83.5596 126.63H82.8555C82.6732 126.63 82.5137 126.66 82.377 126.719C82.2448 126.778 82.1331 126.862 82.042 126.972C81.9508 127.076 81.8825 127.2 81.8369 127.341C81.7959 127.482 81.7754 127.632 81.7754 127.792C81.7754 127.97 81.8005 128.12 81.8506 128.243C81.9007 128.366 81.9759 128.46 82.0762 128.523C82.1764 128.587 82.2949 128.619 82.4316 128.619C82.6413 128.619 82.8236 128.576 82.9785 128.489C83.1335 128.403 83.2474 128.298 83.3203 128.175C83.3978 128.052 83.4229 127.938 83.3955 127.833L83.833 128.578C83.7783 128.747 83.7031 128.922 83.6074 129.104C83.5163 129.287 83.4001 129.455 83.2588 129.61C83.1175 129.765 82.9421 129.893 82.7324 129.993C82.5273 130.089 82.2835 130.137 82.001 130.137C81.6045 130.137 81.2422 130.046 80.9141 129.863C80.5859 129.681 80.3262 129.426 80.1348 129.098C79.9479 128.77 79.8545 128.38 79.8545 127.929C79.8545 127.555 79.9137 127.218 80.0322 126.917C80.1553 126.612 80.3376 126.354 80.5791 126.145C80.8206 125.93 81.126 125.766 81.4951 125.652C81.8643 125.538 82.2972 125.481 82.7939 125.481H83.5527ZM90.2383 128.223V122.604H92.1592V130H90.3545L90.2383 128.223ZM90.457 126.698L90.9902 126.685C90.9902 127.181 90.9424 127.642 90.8467 128.065C90.751 128.485 90.6074 128.849 90.416 129.159C90.2246 129.469 89.9854 129.711 89.6982 129.884C89.4111 130.052 89.0716 130.137 88.6797 130.137C88.3789 130.137 88.1009 130.087 87.8457 129.986C87.5951 129.882 87.3786 129.72 87.1963 129.501C87.014 129.278 86.8704 128.993 86.7656 128.646C86.6654 128.296 86.6152 127.874 86.6152 127.382V122.604H88.5361V127.402C88.5361 127.603 88.5544 127.776 88.5908 127.922C88.6273 128.063 88.6774 128.179 88.7412 128.271C88.805 128.362 88.8802 128.428 88.9668 128.469C89.0534 128.505 89.1514 128.523 89.2607 128.523C89.5615 128.523 89.7985 128.446 89.9717 128.291C90.1494 128.132 90.2747 127.915 90.3477 127.642C90.4206 127.364 90.457 127.049 90.457 126.698ZM96.7803 122.604V124.046H93.0068V122.604H96.7803ZM93.875 120.778H95.7822V127.744C95.7822 127.949 95.8027 128.106 95.8438 128.216C95.8848 128.325 95.9463 128.403 96.0283 128.448C96.1149 128.489 96.2288 128.51 96.3701 128.51C96.4658 128.51 96.5547 128.505 96.6367 128.496C96.7188 128.482 96.7803 128.469 96.8213 128.455V129.952C96.6709 130.011 96.5114 130.057 96.3428 130.089C96.1787 130.121 95.9827 130.137 95.7549 130.137C95.3721 130.137 95.0394 130.064 94.7568 129.918C94.4788 129.772 94.2624 129.54 94.1074 129.221C93.9525 128.897 93.875 128.473 93.875 127.949V120.778ZM97.4229 126.555V126.056C97.4229 125.477 97.4912 124.964 97.6279 124.518C97.7692 124.071 97.9697 123.697 98.2295 123.396C98.4893 123.091 98.8014 122.861 99.166 122.706C99.5352 122.547 99.9476 122.467 100.403 122.467C100.864 122.467 101.276 122.547 101.641 122.706C102.01 122.861 102.324 123.091 102.584 123.396C102.848 123.697 103.051 124.071 103.192 124.518C103.334 124.964 103.404 125.477 103.404 126.056V126.555C103.404 127.129 103.334 127.639 103.192 128.086C103.051 128.533 102.848 128.909 102.584 129.214C102.324 129.519 102.012 129.749 101.647 129.904C101.283 130.059 100.873 130.137 100.417 130.137C99.9613 130.137 99.5488 130.059 99.1797 129.904C98.8151 129.749 98.5007 129.519 98.2363 129.214C97.972 128.909 97.7692 128.533 97.6279 128.086C97.4912 127.639 97.4229 127.129 97.4229 126.555ZM99.3369 126.056V126.555C99.3369 126.896 99.3597 127.193 99.4053 127.443C99.4554 127.694 99.526 127.901 99.6172 128.065C99.7129 128.229 99.8268 128.35 99.959 128.428C100.091 128.505 100.244 128.544 100.417 128.544C100.59 128.544 100.745 128.505 100.882 128.428C101.019 128.35 101.13 128.229 101.217 128.065C101.308 127.901 101.374 127.694 101.415 127.443C101.461 127.193 101.483 126.896 101.483 126.555V126.056C101.483 125.723 101.458 125.431 101.408 125.181C101.358 124.925 101.287 124.718 101.196 124.559C101.105 124.395 100.991 124.271 100.854 124.189C100.722 124.103 100.572 124.06 100.403 124.06C100.235 124.06 100.084 124.103 99.9521 124.189C99.8245 124.271 99.7129 124.395 99.6172 124.559C99.526 124.718 99.4554 124.925 99.4053 125.181C99.3597 125.431 99.3369 125.723 99.3369 126.056ZM99.4395 121.612L100.779 119.5H102.933L101.046 121.612H99.4395ZM106.528 124.025V132.844H104.621V122.604H106.385L106.528 124.025ZM110.37 126.049V126.541C110.37 127.12 110.32 127.632 110.22 128.079C110.119 128.521 109.969 128.897 109.769 129.207C109.573 129.512 109.326 129.745 109.03 129.904C108.734 130.059 108.388 130.137 107.991 130.137C107.622 130.137 107.303 130.05 107.034 129.877C106.77 129.699 106.547 129.455 106.364 129.146C106.182 128.836 106.036 128.473 105.927 128.059C105.817 127.644 105.733 127.2 105.674 126.726V125.96C105.729 125.454 105.808 124.989 105.913 124.565C106.018 124.137 106.161 123.766 106.344 123.451C106.531 123.137 106.756 122.895 107.021 122.727C107.289 122.553 107.608 122.467 107.978 122.467C108.379 122.467 108.727 122.54 109.023 122.686C109.324 122.831 109.573 123.052 109.769 123.349C109.969 123.64 110.119 124.012 110.22 124.463C110.32 124.914 110.37 125.443 110.37 126.049ZM108.456 126.541V126.049C108.456 125.693 108.436 125.39 108.395 125.14C108.358 124.889 108.299 124.684 108.217 124.524C108.135 124.365 108.028 124.249 107.896 124.176C107.763 124.103 107.602 124.066 107.41 124.066C107.223 124.066 107.059 124.103 106.918 124.176C106.781 124.249 106.67 124.356 106.583 124.497C106.496 124.634 106.43 124.802 106.385 125.003C106.339 125.199 106.314 125.422 106.31 125.673V127.013C106.319 127.309 106.357 127.571 106.426 127.799C106.499 128.027 106.615 128.209 106.774 128.346C106.934 128.478 107.15 128.544 107.424 128.544C107.62 128.544 107.782 128.503 107.909 128.421C108.041 128.339 108.148 128.216 108.23 128.052C108.312 127.888 108.369 127.68 108.401 127.43C108.438 127.179 108.456 126.883 108.456 126.541ZM114.807 128.298V124.88C114.807 124.657 114.779 124.479 114.725 124.347C114.674 124.215 114.597 124.119 114.492 124.06C114.392 123.996 114.269 123.964 114.123 123.964C113.959 123.964 113.822 123.998 113.713 124.066C113.604 124.135 113.521 124.233 113.467 124.36C113.417 124.488 113.392 124.641 113.392 124.818H111.471C111.471 124.499 111.532 124.199 111.655 123.916C111.778 123.629 111.958 123.378 112.195 123.164C112.437 122.945 112.724 122.774 113.057 122.651C113.389 122.528 113.763 122.467 114.178 122.467C114.67 122.467 115.107 122.551 115.49 122.72C115.873 122.884 116.176 123.146 116.399 123.506C116.623 123.866 116.734 124.333 116.734 124.907V128.202C116.734 128.617 116.755 128.954 116.796 129.214C116.841 129.474 116.908 129.697 116.994 129.884V130H115.066C114.98 129.795 114.914 129.54 114.868 129.234C114.827 128.924 114.807 128.612 114.807 128.298ZM115.039 125.481L115.046 126.63H114.342C114.16 126.63 114 126.66 113.863 126.719C113.731 126.778 113.619 126.862 113.528 126.972C113.437 127.076 113.369 127.2 113.323 127.341C113.282 127.482 113.262 127.632 113.262 127.792C113.262 127.97 113.287 128.12 113.337 128.243C113.387 128.366 113.462 128.46 113.562 128.523C113.663 128.587 113.781 128.619 113.918 128.619C114.128 128.619 114.31 128.576 114.465 128.489C114.62 128.403 114.734 128.298 114.807 128.175C114.884 128.052 114.909 127.938 114.882 127.833L115.319 128.578C115.265 128.747 115.189 128.922 115.094 129.104C115.003 129.287 114.886 129.455 114.745 129.61C114.604 129.765 114.428 129.893 114.219 129.993C114.014 130.089 113.77 130.137 113.487 130.137C113.091 130.137 112.729 130.046 112.4 129.863C112.072 129.681 111.812 129.426 111.621 129.098C111.434 128.77 111.341 128.38 111.341 127.929C111.341 127.555 111.4 127.218 111.519 126.917C111.642 126.612 111.824 126.354 112.065 126.145C112.307 125.93 112.612 125.766 112.981 125.652C113.351 125.538 113.784 125.481 114.28 125.481H115.039ZM113.166 121.612L114.506 119.5H116.659L114.772 121.612H113.166ZM120.159 119.5V130H118.238V119.5H120.159ZM123.536 129.152L125.081 122.604H127.077L124.644 131.107C124.589 131.294 124.514 131.495 124.418 131.709C124.322 131.928 124.195 132.133 124.035 132.324C123.88 132.52 123.684 132.68 123.447 132.803C123.21 132.926 122.925 132.987 122.593 132.987C122.424 132.987 122.287 132.976 122.183 132.953C122.082 132.935 121.955 132.903 121.8 132.857V131.367C121.841 131.367 121.88 131.367 121.916 131.367C121.957 131.372 121.996 131.374 122.032 131.374C122.246 131.374 122.417 131.344 122.545 131.285C122.673 131.23 122.775 131.144 122.853 131.025C122.935 130.907 123.003 130.759 123.058 130.581L123.536 129.152ZM123.14 122.604L124.288 127.908L124.548 130.068L123.256 130.191L121.089 122.604H123.14ZM131.062 128.298V124.88C131.062 124.657 131.035 124.479 130.98 124.347C130.93 124.215 130.853 124.119 130.748 124.06C130.648 123.996 130.525 123.964 130.379 123.964C130.215 123.964 130.078 123.998 129.969 124.066C129.859 124.135 129.777 124.233 129.723 124.36C129.673 124.488 129.647 124.641 129.647 124.818H127.727C127.727 124.499 127.788 124.199 127.911 123.916C128.034 123.629 128.214 123.378 128.451 123.164C128.693 122.945 128.98 122.774 129.312 122.651C129.645 122.528 130.019 122.467 130.434 122.467C130.926 122.467 131.363 122.551 131.746 122.72C132.129 122.884 132.432 123.146 132.655 123.506C132.879 123.866 132.99 124.333 132.99 124.907V128.202C132.99 128.617 133.011 128.954 133.052 129.214C133.097 129.474 133.163 129.697 133.25 129.884V130H131.322C131.236 129.795 131.17 129.54 131.124 129.234C131.083 128.924 131.062 128.612 131.062 128.298ZM131.295 125.481L131.302 126.63H130.598C130.415 126.63 130.256 126.66 130.119 126.719C129.987 126.778 129.875 126.862 129.784 126.972C129.693 127.076 129.625 127.2 129.579 127.341C129.538 127.482 129.518 127.632 129.518 127.792C129.518 127.97 129.543 128.12 129.593 128.243C129.643 128.366 129.718 128.46 129.818 128.523C129.919 128.587 130.037 128.619 130.174 128.619C130.383 128.619 130.566 128.576 130.721 128.489C130.876 128.403 130.99 128.298 131.062 128.175C131.14 128.052 131.165 127.938 131.138 127.833L131.575 128.578C131.521 128.747 131.445 128.922 131.35 129.104C131.258 129.287 131.142 129.455 131.001 129.61C130.86 129.765 130.684 129.893 130.475 129.993C130.27 130.089 130.026 130.137 129.743 130.137C129.347 130.137 128.984 130.046 128.656 129.863C128.328 129.681 128.068 129.426 127.877 129.098C127.69 128.77 127.597 128.38 127.597 127.929C127.597 127.555 127.656 127.218 127.774 126.917C127.897 126.612 128.08 126.354 128.321 126.145C128.563 125.93 128.868 125.766 129.237 125.652C129.606 125.538 130.039 125.481 130.536 125.481H131.295ZM139.56 124.135V130H137.639V122.604H139.443L139.56 124.135ZM139.286 126.049L138.76 126.062C138.751 125.543 138.796 125.064 138.896 124.627C138.997 124.189 139.147 123.809 139.348 123.485C139.553 123.162 139.81 122.911 140.12 122.733C140.43 122.556 140.792 122.467 141.207 122.467C141.476 122.467 141.724 122.517 141.952 122.617C142.18 122.713 142.378 122.866 142.547 123.075C142.715 123.28 142.845 123.549 142.937 123.882C143.028 124.21 143.073 124.604 143.073 125.064V130H141.159V125.297C141.159 124.969 141.127 124.718 141.063 124.545C141 124.367 140.909 124.244 140.79 124.176C140.672 124.103 140.526 124.066 140.353 124.066C140.17 124.066 140.011 124.117 139.874 124.217C139.737 124.317 139.626 124.458 139.539 124.641C139.457 124.818 139.393 125.028 139.348 125.27C139.307 125.511 139.286 125.771 139.286 126.049ZM142.889 125.857L142.198 125.946C142.189 125.459 142.232 125.005 142.328 124.586C142.424 124.162 142.572 123.793 142.772 123.479C142.973 123.16 143.224 122.911 143.524 122.733C143.83 122.556 144.183 122.467 144.584 122.467C144.885 122.467 145.158 122.517 145.404 122.617C145.65 122.717 145.86 122.879 146.033 123.103C146.211 123.321 146.345 123.611 146.437 123.971C146.532 124.331 146.58 124.768 146.58 125.283V130H144.659V125.29C144.659 124.957 144.627 124.702 144.563 124.524C144.5 124.347 144.409 124.226 144.29 124.162C144.172 124.098 144.03 124.066 143.866 124.066C143.702 124.066 143.559 124.112 143.436 124.203C143.317 124.294 143.217 124.422 143.135 124.586C143.053 124.745 142.991 124.935 142.95 125.153C142.909 125.368 142.889 125.602 142.889 125.857ZM151.283 128.298V124.88C151.283 124.657 151.256 124.479 151.201 124.347C151.151 124.215 151.074 124.119 150.969 124.06C150.868 123.996 150.745 123.964 150.6 123.964C150.436 123.964 150.299 123.998 150.189 124.066C150.08 124.135 149.998 124.233 149.943 124.36C149.893 124.488 149.868 124.641 149.868 124.818H147.947C147.947 124.499 148.009 124.199 148.132 123.916C148.255 123.629 148.435 123.378 148.672 123.164C148.913 122.945 149.201 122.774 149.533 122.651C149.866 122.528 150.24 122.467 150.654 122.467C151.146 122.467 151.584 122.551 151.967 122.72C152.35 122.884 152.653 123.146 152.876 123.506C153.099 123.866 153.211 124.333 153.211 124.907V128.202C153.211 128.617 153.231 128.954 153.272 129.214C153.318 129.474 153.384 129.697 153.471 129.884V130H151.543C151.456 129.795 151.39 129.54 151.345 129.234C151.304 128.924 151.283 128.612 151.283 128.298ZM151.516 125.481L151.522 126.63H150.818C150.636 126.63 150.477 126.66 150.34 126.719C150.208 126.778 150.096 126.862 150.005 126.972C149.914 127.076 149.845 127.2 149.8 127.341C149.759 127.482 149.738 127.632 149.738 127.792C149.738 127.97 149.763 128.12 149.813 128.243C149.864 128.366 149.939 128.46 150.039 128.523C150.139 128.587 150.258 128.619 150.395 128.619C150.604 128.619 150.786 128.576 150.941 128.489C151.096 128.403 151.21 128.298 151.283 128.175C151.361 128.052 151.386 127.938 151.358 127.833L151.796 128.578C151.741 128.747 151.666 128.922 151.57 129.104C151.479 129.287 151.363 129.455 151.222 129.61C151.08 129.765 150.905 129.893 150.695 129.993C150.49 130.089 150.246 130.137 149.964 130.137C149.567 130.137 149.205 130.046 148.877 129.863C148.549 129.681 148.289 129.426 148.098 129.098C147.911 128.77 147.817 128.38 147.817 127.929C147.817 127.555 147.877 127.218 147.995 126.917C148.118 126.612 148.3 126.354 148.542 126.145C148.784 125.93 149.089 125.766 149.458 125.652C149.827 125.538 150.26 125.481 150.757 125.481H151.516ZM157.853 122.604V124.046H154.079V122.604H157.853ZM154.947 120.778H156.854V127.744C156.854 127.949 156.875 128.106 156.916 128.216C156.957 128.325 157.019 128.403 157.101 128.448C157.187 128.489 157.301 128.51 157.442 128.51C157.538 128.51 157.627 128.505 157.709 128.496C157.791 128.482 157.853 128.469 157.894 128.455V129.952C157.743 130.011 157.584 130.057 157.415 130.089C157.251 130.121 157.055 130.137 156.827 130.137C156.444 130.137 156.112 130.064 155.829 129.918C155.551 129.772 155.335 129.54 155.18 129.221C155.025 128.897 154.947 128.473 154.947 127.949V120.778ZM160.833 124.251V130H158.919V122.604H160.724L160.833 124.251ZM162.576 122.549L162.549 124.456C162.462 124.438 162.357 124.424 162.234 124.415C162.116 124.406 162.011 124.401 161.92 124.401C161.706 124.401 161.523 124.436 161.373 124.504C161.223 124.568 161.097 124.666 160.997 124.798C160.901 124.925 160.828 125.085 160.778 125.276C160.728 125.468 160.699 125.684 160.689 125.926L160.327 125.789C160.327 125.306 160.364 124.864 160.437 124.463C160.514 124.057 160.628 123.706 160.778 123.41C160.929 123.109 161.109 122.877 161.318 122.713C161.533 122.549 161.774 122.467 162.043 122.467C162.134 122.467 162.23 122.476 162.33 122.494C162.435 122.508 162.517 122.526 162.576 122.549ZM165.563 122.604V130H163.643V122.604H165.563ZM163.554 120.689C163.554 120.393 163.647 120.149 163.834 119.958C164.025 119.762 164.281 119.664 164.6 119.664C164.923 119.664 165.178 119.762 165.365 119.958C165.552 120.149 165.646 120.393 165.646 120.689C165.646 120.981 165.55 121.225 165.358 121.421C165.172 121.612 164.921 121.708 164.606 121.708C164.283 121.708 164.025 121.612 163.834 121.421C163.647 121.225 163.554 120.981 163.554 120.689ZM169.754 128.544C169.932 128.544 170.084 128.507 170.212 128.435C170.344 128.362 170.444 128.243 170.513 128.079C170.581 127.915 170.618 127.703 170.622 127.443H172.42C172.42 127.999 172.301 128.48 172.064 128.886C171.832 129.287 171.518 129.597 171.121 129.815C170.729 130.03 170.285 130.137 169.788 130.137C169.291 130.137 168.858 130.057 168.489 129.897C168.12 129.738 167.815 129.506 167.573 129.2C167.336 128.895 167.156 128.523 167.033 128.086C166.915 127.644 166.855 127.138 166.855 126.568V126.028C166.855 125.468 166.915 124.966 167.033 124.524C167.156 124.082 167.336 123.709 167.573 123.403C167.815 123.098 168.118 122.866 168.482 122.706C168.852 122.547 169.285 122.467 169.781 122.467C170.314 122.467 170.777 122.578 171.169 122.802C171.561 123.021 171.866 123.344 172.085 123.772C172.308 124.201 172.42 124.729 172.42 125.358H170.622C170.618 125.076 170.583 124.841 170.52 124.654C170.46 124.463 170.367 124.317 170.239 124.217C170.116 124.112 169.952 124.06 169.747 124.06C169.533 124.06 169.36 124.105 169.228 124.196C169.1 124.283 169.002 124.41 168.934 124.579C168.87 124.743 168.826 124.948 168.804 125.194C168.781 125.44 168.77 125.718 168.77 126.028V126.568C168.77 126.901 168.779 127.19 168.797 127.437C168.82 127.678 168.863 127.883 168.927 128.052C168.995 128.216 169.093 128.339 169.221 128.421C169.353 128.503 169.531 128.544 169.754 128.544ZM176.781 128.298V124.88C176.781 124.657 176.754 124.479 176.699 124.347C176.649 124.215 176.572 124.119 176.467 124.06C176.367 123.996 176.243 123.964 176.098 123.964C175.934 123.964 175.797 123.998 175.688 124.066C175.578 124.135 175.496 124.233 175.441 124.36C175.391 124.488 175.366 124.641 175.366 124.818H173.445C173.445 124.499 173.507 124.199 173.63 123.916C173.753 123.629 173.933 123.378 174.17 123.164C174.411 122.945 174.699 122.774 175.031 122.651C175.364 122.528 175.738 122.467 176.152 122.467C176.645 122.467 177.082 122.551 177.465 122.72C177.848 122.884 178.151 123.146 178.374 123.506C178.597 123.866 178.709 124.333 178.709 124.907V128.202C178.709 128.617 178.729 128.954 178.771 129.214C178.816 129.474 178.882 129.697 178.969 129.884V130H177.041C176.954 129.795 176.888 129.54 176.843 129.234C176.802 128.924 176.781 128.612 176.781 128.298ZM177.014 125.481L177.021 126.63H176.316C176.134 126.63 175.975 126.66 175.838 126.719C175.706 126.778 175.594 126.862 175.503 126.972C175.412 127.076 175.343 127.2 175.298 127.341C175.257 127.482 175.236 127.632 175.236 127.792C175.236 127.97 175.261 128.12 175.312 128.243C175.362 128.366 175.437 128.46 175.537 128.523C175.637 128.587 175.756 128.619 175.893 128.619C176.102 128.619 176.285 128.576 176.439 128.489C176.594 128.403 176.708 128.298 176.781 128.175C176.859 128.052 176.884 127.938 176.856 127.833L177.294 128.578C177.239 128.747 177.164 128.922 177.068 129.104C176.977 129.287 176.861 129.455 176.72 129.61C176.578 129.765 176.403 129.893 176.193 129.993C175.988 130.089 175.744 130.137 175.462 130.137C175.065 130.137 174.703 130.046 174.375 129.863C174.047 129.681 173.787 129.426 173.596 129.098C173.409 128.77 173.315 128.38 173.315 127.929C173.315 127.555 173.375 127.218 173.493 126.917C173.616 126.612 173.799 126.354 174.04 126.145C174.282 125.93 174.587 125.766 174.956 125.652C175.325 125.538 175.758 125.481 176.255 125.481H177.014ZM186.331 130.137C185.825 130.137 185.376 130.059 184.984 129.904C184.597 129.749 184.269 129.526 184 129.234C183.731 128.938 183.526 128.58 183.385 128.161C183.243 127.742 183.173 127.263 183.173 126.726V126.117C183.173 125.516 183.241 124.989 183.378 124.538C183.515 124.082 183.708 123.7 183.959 123.39C184.21 123.08 184.517 122.85 184.882 122.699C185.251 122.544 185.668 122.467 186.133 122.467C186.598 122.467 187.006 122.544 187.356 122.699C187.712 122.85 188.006 123.077 188.238 123.383C188.471 123.684 188.646 124.057 188.765 124.504C188.883 124.951 188.942 125.47 188.942 126.062V126.938H183.986V125.591H187.062V125.42C187.062 125.119 187.031 124.868 186.967 124.668C186.903 124.463 186.803 124.31 186.666 124.21C186.529 124.11 186.347 124.06 186.119 124.06C185.928 124.06 185.766 124.098 185.634 124.176C185.502 124.253 185.397 124.374 185.319 124.538C185.242 124.702 185.185 124.916 185.148 125.181C185.112 125.44 185.094 125.753 185.094 126.117V126.726C185.094 127.067 185.123 127.354 185.183 127.587C185.242 127.815 185.328 128.002 185.442 128.147C185.561 128.289 185.704 128.391 185.873 128.455C186.042 128.514 186.238 128.544 186.461 128.544C186.798 128.544 187.101 128.485 187.37 128.366C187.644 128.243 187.876 128.077 188.067 127.867L188.833 129.029C188.701 129.202 188.519 129.376 188.286 129.549C188.054 129.722 187.776 129.863 187.452 129.973C187.129 130.082 186.755 130.137 186.331 130.137ZM184.937 121.605L186.276 119.493H188.43L186.543 121.605H184.937ZM191.964 124.251V130H190.05V122.604H191.854L191.964 124.251ZM193.707 122.549L193.68 124.456C193.593 124.438 193.488 124.424 193.365 124.415C193.247 124.406 193.142 124.401 193.051 124.401C192.837 124.401 192.654 124.436 192.504 124.504C192.354 124.568 192.228 124.666 192.128 124.798C192.032 124.925 191.959 125.085 191.909 125.276C191.859 125.468 191.829 125.684 191.82 125.926L191.458 125.789C191.458 125.306 191.494 124.864 191.567 124.463C191.645 124.057 191.759 123.706 191.909 123.41C192.06 123.109 192.24 122.877 192.449 122.713C192.663 122.549 192.905 122.467 193.174 122.467C193.265 122.467 193.361 122.476 193.461 122.494C193.566 122.508 193.648 122.526 193.707 122.549ZM198.253 122.604V124.046H194.479V122.604H198.253ZM195.348 120.778H197.255V127.744C197.255 127.949 197.275 128.106 197.316 128.216C197.357 128.325 197.419 128.403 197.501 128.448C197.588 128.489 197.701 128.51 197.843 128.51C197.938 128.51 198.027 128.505 198.109 128.496C198.191 128.482 198.253 128.469 198.294 128.455V129.952C198.144 130.011 197.984 130.057 197.815 130.089C197.651 130.121 197.455 130.137 197.228 130.137C196.845 130.137 196.512 130.064 196.229 129.918C195.951 129.772 195.735 129.54 195.58 129.221C195.425 128.897 195.348 128.473 195.348 127.949V120.778ZM202.3 130.137C201.794 130.137 201.345 130.059 200.953 129.904C200.566 129.749 200.238 129.526 199.969 129.234C199.7 128.938 199.495 128.58 199.354 128.161C199.212 127.742 199.142 127.263 199.142 126.726V126.117C199.142 125.516 199.21 124.989 199.347 124.538C199.483 124.082 199.677 123.7 199.928 123.39C200.178 123.08 200.486 122.85 200.851 122.699C201.22 122.544 201.637 122.467 202.102 122.467C202.566 122.467 202.974 122.544 203.325 122.699C203.681 122.85 203.975 123.077 204.207 123.383C204.439 123.684 204.615 124.057 204.733 124.504C204.852 124.951 204.911 125.47 204.911 126.062V126.938H199.955V125.591H203.031V125.42C203.031 125.119 202.999 124.868 202.936 124.668C202.872 124.463 202.771 124.31 202.635 124.21C202.498 124.11 202.316 124.06 202.088 124.06C201.896 124.06 201.735 124.098 201.603 124.176C201.47 124.253 201.366 124.374 201.288 124.538C201.211 124.702 201.154 124.916 201.117 125.181C201.081 125.44 201.062 125.753 201.062 126.117V126.726C201.062 127.067 201.092 127.354 201.151 127.587C201.211 127.815 201.297 128.002 201.411 128.147C201.53 128.289 201.673 128.391 201.842 128.455C202.01 128.514 202.206 128.544 202.43 128.544C202.767 128.544 203.07 128.485 203.339 128.366C203.612 128.243 203.845 128.077 204.036 127.867L204.802 129.029C204.67 129.202 204.487 129.376 204.255 129.549C204.022 129.722 203.744 129.863 203.421 129.973C203.097 130.082 202.724 130.137 202.3 130.137ZM200.905 121.605L202.245 119.493H204.398L202.512 121.605H200.905ZM207.933 119.493V130H206.019V119.493H207.933ZM211.822 122.604L209.218 126.281L207.652 128.038L206.976 126.582L208.179 124.825L209.539 122.604H211.822ZM209.826 130L208.213 126.603L209.532 125.386L212.021 130H209.826ZM215.562 130.137C215.056 130.137 214.607 130.059 214.215 129.904C213.827 129.749 213.499 129.526 213.23 129.234C212.962 128.938 212.757 128.58 212.615 128.161C212.474 127.742 212.403 127.263 212.403 126.726V126.117C212.403 125.516 212.472 124.989 212.608 124.538C212.745 124.082 212.939 123.7 213.189 123.39C213.44 123.08 213.748 122.85 214.112 122.699C214.481 122.544 214.898 122.467 215.363 122.467C215.828 122.467 216.236 122.544 216.587 122.699C216.942 122.85 217.236 123.077 217.469 123.383C217.701 123.684 217.877 124.057 217.995 124.504C218.114 124.951 218.173 125.47 218.173 126.062V126.938H213.217V125.591H216.293V125.42C216.293 125.119 216.261 124.868 216.197 124.668C216.133 124.463 216.033 124.31 215.896 124.21C215.76 124.11 215.577 124.06 215.35 124.06C215.158 124.06 214.996 124.098 214.864 124.176C214.732 124.253 214.627 124.374 214.55 124.538C214.472 124.702 214.415 124.916 214.379 125.181C214.342 125.44 214.324 125.753 214.324 126.117V126.726C214.324 127.067 214.354 127.354 214.413 127.587C214.472 127.815 214.559 128.002 214.673 128.147C214.791 128.289 214.935 128.391 215.104 128.455C215.272 128.514 215.468 128.544 215.691 128.544C216.029 128.544 216.332 128.485 216.601 128.366C216.874 128.243 217.106 128.077 217.298 127.867L218.063 129.029C217.931 129.202 217.749 129.376 217.517 129.549C217.284 129.722 217.006 129.863 216.683 129.973C216.359 130.082 215.985 130.137 215.562 130.137ZM222.562 128.004C222.562 127.876 222.518 127.762 222.432 127.662C222.345 127.562 222.208 127.459 222.021 127.354C221.835 127.245 221.586 127.124 221.276 126.992C220.939 126.855 220.641 126.714 220.381 126.568C220.121 126.423 219.9 126.261 219.718 126.083C219.54 125.905 219.406 125.702 219.314 125.475C219.223 125.247 219.178 124.987 219.178 124.695C219.178 124.381 219.235 124.091 219.349 123.827C219.467 123.558 219.636 123.324 219.854 123.123C220.073 122.918 220.34 122.758 220.654 122.645C220.973 122.526 221.331 122.467 221.728 122.467C222.284 122.467 222.76 122.565 223.156 122.761C223.557 122.952 223.865 123.221 224.079 123.567C224.293 123.914 224.4 124.317 224.4 124.777H222.486C222.486 124.613 222.461 124.467 222.411 124.34C222.361 124.208 222.279 124.105 222.165 124.032C222.056 123.959 221.908 123.923 221.721 123.923C221.584 123.923 221.461 123.952 221.352 124.012C221.247 124.071 221.162 124.151 221.099 124.251C221.039 124.347 221.01 124.461 221.01 124.593C221.01 124.693 221.03 124.782 221.071 124.859C221.117 124.937 221.188 125.012 221.283 125.085C221.379 125.158 221.507 125.235 221.666 125.317C221.83 125.395 222.031 125.481 222.268 125.577C222.76 125.759 223.163 125.955 223.478 126.165C223.797 126.375 224.034 126.621 224.188 126.903C224.343 127.181 224.421 127.525 224.421 127.936C224.421 128.264 224.357 128.562 224.229 128.831C224.106 129.1 223.926 129.332 223.689 129.528C223.452 129.724 223.168 129.875 222.835 129.979C222.507 130.084 222.14 130.137 221.734 130.137C221.137 130.137 220.634 130.018 220.224 129.781C219.813 129.544 219.504 129.241 219.294 128.872C219.084 128.498 218.979 128.111 218.979 127.71H220.798C220.807 127.956 220.853 128.15 220.935 128.291C221.021 128.428 221.137 128.523 221.283 128.578C221.429 128.633 221.591 128.66 221.769 128.66C221.946 128.66 222.092 128.637 222.206 128.592C222.325 128.542 222.413 128.466 222.473 128.366C222.532 128.261 222.562 128.141 222.562 128.004ZM227.702 122.604V130H225.781V122.604H227.702ZM225.815 121.722L227.155 119.609H229.309L227.422 121.722H225.815ZM232.528 122.604V124.046H228.755V122.604H232.528ZM229.623 120.778H231.53V127.744C231.53 127.949 231.551 128.106 231.592 128.216C231.633 128.325 231.694 128.403 231.776 128.448C231.863 128.489 231.977 128.51 232.118 128.51C232.214 128.51 232.303 128.505 232.385 128.496C232.467 128.482 232.528 128.469 232.569 128.455V129.952C232.419 130.011 232.259 130.057 232.091 130.089C231.927 130.121 231.731 130.137 231.503 130.137C231.12 130.137 230.787 130.064 230.505 129.918C230.227 129.772 230.01 129.54 229.855 129.221C229.701 128.897 229.623 128.473 229.623 127.949V120.778ZM233.171 126.555V126.056C233.171 125.477 233.239 124.964 233.376 124.518C233.517 124.071 233.718 123.697 233.978 123.396C234.237 123.091 234.549 122.861 234.914 122.706C235.283 122.547 235.696 122.467 236.151 122.467C236.612 122.467 237.024 122.547 237.389 122.706C237.758 122.861 238.072 123.091 238.332 123.396C238.596 123.697 238.799 124.071 238.94 124.518C239.082 124.964 239.152 125.477 239.152 126.056V126.555C239.152 127.129 239.082 127.639 238.94 128.086C238.799 128.533 238.596 128.909 238.332 129.214C238.072 129.519 237.76 129.749 237.396 129.904C237.031 130.059 236.621 130.137 236.165 130.137C235.709 130.137 235.297 130.059 234.928 129.904C234.563 129.749 234.249 129.519 233.984 129.214C233.72 128.909 233.517 128.533 233.376 128.086C233.239 127.639 233.171 127.129 233.171 126.555ZM235.085 126.056V126.555C235.085 126.896 235.108 127.193 235.153 127.443C235.203 127.694 235.274 127.901 235.365 128.065C235.461 128.229 235.575 128.35 235.707 128.428C235.839 128.505 235.992 128.544 236.165 128.544C236.338 128.544 236.493 128.505 236.63 128.428C236.767 128.35 236.878 128.229 236.965 128.065C237.056 127.901 237.122 127.694 237.163 127.443C237.209 127.193 237.231 126.896 237.231 126.555V126.056C237.231 125.723 237.206 125.431 237.156 125.181C237.106 124.925 237.035 124.718 236.944 124.559C236.853 124.395 236.739 124.271 236.603 124.189C236.47 124.103 236.32 124.06 236.151 124.06C235.983 124.06 235.832 124.103 235.7 124.189C235.573 124.271 235.461 124.395 235.365 124.559C235.274 124.718 235.203 124.925 235.153 125.181C235.108 125.431 235.085 125.723 235.085 126.056ZM236.411 121.564L237.635 119.507H239.31L237.806 121.564H236.411ZM234.244 121.564L235.263 119.507H236.924L235.618 121.564H234.244Z" fill="white"/>
<path d="M158.545 -57.936L259.666 -57.936C262.731 -57.9315 265.741 -57.1289 268.394 -55.6087C271.047 -54.0886 273.251 -51.9043 274.783 -49.2749C276.315 -46.6454 277.122 -43.6633 277.123 -40.6274C277.124 -37.5916 276.32 -34.6088 274.79 -31.9781L224.214 54.7297L173.67 141.374C172.133 143.998 169.927 146.177 167.273 147.691C164.618 149.206 161.609 150.003 158.545 150.003C155.482 150.003 152.473 149.206 149.818 147.691C147.164 146.177 144.958 143.998 143.421 141.374L92.877 54.6657L42.333 -32.0421C40.8033 -34.6728 39.9987 -37.6556 40 -40.6915C40.0013 -43.7273 40.8084 -46.7094 42.3405 -49.3389C43.8725 -51.9683 46.0756 -54.1526 48.7289 -55.6728C51.3821 -57.1929 54.3923 -57.9955 57.4575 -58L158.545 -57.936Z" fill="url(#paint1_linear_1_11)" fill-opacity="0.49"/>
</g>
</g>
<defs>
<filter id="filter0_d_1_11" x="0" y="0" width="329" height="177" filterUnits="userSpaceOnUse" color-interpolation-filters="sRGB">
<feFlood flood-opacity="0" result="BackgroundImageFix"/>
<feColorMatrix in="SourceAlpha" type="matrix" values="0 0 0 0 0 0 0 0 0 0 0 0 0 0 0 0 0 0 127 0" result="hardAlpha"/>
<feOffset dx="5" dy="5"/>
<feGaussianBlur stdDeviation="11"/>
<feComposite in2="hardAlpha" operator="out"/>
<feColorMatrix type="matrix" values="0 0 0 0 0.960784 0 0 0 0 0.490196 0 0 0 0 0.129412 0 0 0 0.2 0"/>
<feBlend mode="normal" in2="BackgroundImageFix" result="effect1_dropShadow_1_11"/>
<feBlend mode="normal" in="SourceGraphic" in2="effect1_dropShadow_1_11" result="shape"/>
</filter>
<linearGradient id="paint0_linear_1_11" x1="159.5" y1="17" x2="159.5" y2="150" gradientUnits="userSpaceOnUse">
<stop stop-color="#F58C1F"/>
<stop offset="1" stop-color="#F57D21"/>
</linearGradient>
<linearGradient id="paint1_linear_1_11" x1="157.868" y1="-72.5602" x2="157.868" y2="90.3753" gradientUnits="userSpaceOnUse">
<stop stop-color="white"/>
<stop offset="1" stop-color="white" stop-opacity="0"/>
</linearGradient>
<clipPath id="clip0_1_11">
<rect x="17" y="17" width="285" height="133" rx="5" fill="white"/>
</clipPath>
</defs>
</svg>
