<svg width="329" height="177" viewBox="0 0 329 177" fill="none" xmlns="http://www.w3.org/2000/svg">
<g filter="url(#filter0_d_26_1102)">
<g clip-path="url(#clip0_26_1102)">
<rect x="17" y="17" width="285" height="133" rx="5" fill="url(#paint0_linear_26_1102)"/>
<path d="M153.5 36C148.26 36 144 40.26 144 45.5C144 50.64 148.02 54.8 153.26 54.98C153.42 54.96 153.58 54.96 153.7 54.98H153.84C156.299 54.898 158.629 53.863 160.338 52.0938C162.048 50.3247 163.002 47.9601 163 45.5C163 40.26 158.74 36 153.5 36ZM163.66 60.298C158.08 56.578 148.98 56.578 143.36 60.298C140.82 61.998 139.42 64.298 139.42 66.758C139.42 69.218 140.82 71.498 143.34 73.178C146.14 75.058 149.82 75.998 153.5 75.998C157.18 75.998 160.86 75.058 163.66 73.178C166.18 71.478 167.58 69.198 167.58 66.718C167.56 64.258 166.18 61.978 163.66 60.298ZM175.48 46.676C175.8 50.556 173.04 53.956 169.22 54.416H169.12C169 54.416 168.88 54.416 168.78 54.456C166.84 54.556 165.06 53.936 163.72 52.796C165.78 50.956 166.96 48.196 166.72 45.196C166.583 43.636 166.053 42.1361 165.18 40.836C166.228 40.3262 167.384 40.0789 168.549 40.1156C169.714 40.1523 170.852 40.4719 171.866 41.0467C172.88 41.6215 173.739 42.4343 174.368 43.4151C174.998 44.3958 175.379 45.5149 175.48 46.676Z" fill="white"/>
<path d="M179.477 65.1808C179.317 67.1208 178.077 68.8008 175.997 69.9408C173.997 71.0408 171.477 71.5608 168.977 71.5008C170.417 70.2008 171.257 68.5808 171.417 66.8608C171.617 64.3808 170.437 62.0008 168.077 60.1008C166.737 59.0408 165.177 58.2008 163.477 57.5808C167.897 56.3008 173.457 57.1608 176.877 59.9208C178.717 61.4008 179.657 63.2608 179.477 65.1808Z" fill="white"/>
<path d="M88.6387 101.722H86.1777V110H84.1611V101.722H81.7412V100.047H88.6387V101.722ZM88.0508 106.062C88.0508 104.941 88.3151 104.062 88.8438 103.424C89.3724 102.786 90.1038 102.467 91.0381 102.467C91.9814 102.467 92.7174 102.786 93.2461 103.424C93.7747 104.062 94.0391 104.946 94.0391 106.076V106.548C94.0391 107.674 93.777 108.553 93.2529 109.187C92.7288 109.82 91.9951 110.137 91.0518 110.137C90.1038 110.137 89.3656 109.82 88.8369 109.187C88.3128 108.549 88.0508 107.664 88.0508 106.534V106.062ZM89.9922 106.548C89.9922 107.869 90.3454 108.53 91.0518 108.53C91.7035 108.53 92.0544 107.979 92.1045 106.876L92.1113 106.062C92.1113 105.388 92.0179 104.889 91.8311 104.565C91.6442 104.237 91.3799 104.073 91.0381 104.073C90.71 104.073 90.4525 104.237 90.2656 104.565C90.0833 104.889 89.9922 105.388 89.9922 106.062V106.548ZM88.3994 100.669C88.3994 100.418 88.4906 100.211 88.6729 100.047C88.8597 99.8783 89.0853 99.7939 89.3496 99.7939C89.6139 99.7939 89.8372 99.8783 90.0195 100.047C90.2064 100.211 90.2998 100.418 90.2998 100.669C90.2998 100.915 90.2064 101.122 90.0195 101.291C89.8372 101.455 89.6139 101.537 89.3496 101.537C89.0853 101.537 88.8597 101.455 88.6729 101.291C88.4906 101.122 88.3994 100.915 88.3994 100.669ZM91.7422 100.669C91.7422 100.423 91.8333 100.218 92.0156 100.054C92.2025 99.8851 92.4281 99.8008 92.6924 99.8008C92.9567 99.8008 93.18 99.8851 93.3623 100.054C93.5492 100.218 93.6426 100.423 93.6426 100.669C93.6426 100.906 93.5537 101.111 93.376 101.284C93.2028 101.453 92.9749 101.537 92.6924 101.537C92.4098 101.537 92.1797 101.453 92.002 101.284C91.8288 101.111 91.7422 100.906 91.7422 100.669ZM101.019 106.541C101.019 107.74 100.827 108.64 100.444 109.241C100.062 109.838 99.46 110.137 98.6396 110.137C97.9971 110.137 97.4821 109.847 97.0947 109.269L97.0332 110H95.249V99.5H97.1836V103.205C97.5482 102.713 98.029 102.467 98.626 102.467C99.4463 102.467 100.048 102.765 100.431 103.362C100.813 103.955 101.009 104.825 101.019 105.974V106.541ZM99.084 106.056C99.084 105.276 99.0088 104.755 98.8584 104.49C98.708 104.221 98.446 104.087 98.0723 104.087C97.6667 104.087 97.3704 104.271 97.1836 104.641V108.011C97.3568 108.357 97.6576 108.53 98.0859 108.53C98.4551 108.53 98.7103 108.41 98.8516 108.168C98.9974 107.926 99.0749 107.457 99.084 106.76V106.056ZM107.95 106.541C107.95 107.74 107.759 108.64 107.376 109.241C106.993 109.838 106.392 110.137 105.571 110.137C104.929 110.137 104.414 109.847 104.026 109.269L103.965 110H102.181V99.5H104.115V103.205C104.48 102.713 104.961 102.467 105.558 102.467C106.378 102.467 106.979 102.765 107.362 103.362C107.745 103.955 107.941 104.825 107.95 105.974V106.541ZM106.016 106.056C106.016 105.276 105.94 104.755 105.79 104.49C105.64 104.221 105.378 104.087 105.004 104.087C104.598 104.087 104.302 104.271 104.115 104.641V108.011C104.288 108.357 104.589 108.53 105.018 108.53C105.387 108.53 105.642 108.41 105.783 108.168C105.929 107.926 106.007 107.457 106.016 106.76V106.056ZM110.883 102.604L110.938 103.335C111.375 102.756 111.947 102.467 112.653 102.467C113.925 102.467 114.579 103.358 114.615 105.14V110H112.674V105.283C112.674 104.864 112.61 104.561 112.482 104.374C112.359 104.183 112.141 104.087 111.826 104.087C111.475 104.087 111.202 104.267 111.006 104.627V110H109.064V102.604H110.883ZM118.375 106.78L119.359 102.604H121.424L118.99 111.107C118.626 112.361 117.94 112.987 116.933 112.987C116.7 112.987 116.436 112.944 116.14 112.857V111.347L116.365 111.354C116.666 111.354 116.892 111.294 117.042 111.176C117.197 111.062 117.313 110.861 117.391 110.574L117.541 110.075L115.408 102.604H117.486L118.375 106.78ZM125.143 110.137C124.149 110.137 123.374 109.84 122.818 109.248C122.262 108.656 121.984 107.808 121.984 106.705V106.117C121.984 104.951 122.24 104.05 122.75 103.417C123.26 102.784 123.992 102.467 124.944 102.467C125.874 102.467 126.574 102.765 127.043 103.362C127.512 103.955 127.752 104.834 127.761 106.001V106.951H123.912C123.939 107.498 124.06 107.899 124.274 108.154C124.489 108.405 124.819 108.53 125.266 108.53C125.913 108.53 126.453 108.309 126.886 107.867L127.645 109.036C127.408 109.364 127.063 109.631 126.612 109.836C126.161 110.036 125.671 110.137 125.143 110.137ZM123.926 105.598H125.86V105.42C125.851 104.978 125.778 104.643 125.642 104.415C125.505 104.187 125.268 104.073 124.931 104.073C124.593 104.073 124.347 104.194 124.192 104.436C124.042 104.677 123.953 105.064 123.926 105.598ZM130.885 110H128.943V99.5H130.885V110ZM134.809 107.266L135.745 102.604H137.762L135.731 110H133.886L131.849 102.604H133.872L134.809 107.266ZM142.308 109.323C141.907 109.866 141.369 110.137 140.694 110.137C140.015 110.137 139.5 109.904 139.149 109.439C138.799 108.97 138.623 108.289 138.623 107.396V102.604H140.558V107.443C140.567 108.163 140.806 108.523 141.275 108.523C141.717 108.523 142.036 108.332 142.232 107.949V102.604H144.181V110H142.362L142.308 109.323ZM142.875 99.5068H144.563L143.06 101.564H141.645L142.875 99.5068ZM140.503 99.5068H142.171L140.865 101.564H139.484L140.503 99.5068ZM152.425 109.323C152.024 109.866 151.486 110.137 150.812 110.137C150.132 110.137 149.618 109.904 149.267 109.439C148.916 108.97 148.74 108.289 148.74 107.396V102.604H150.675V107.443C150.684 108.163 150.923 108.523 151.393 108.523C151.835 108.523 152.154 108.332 152.35 107.949V102.604H154.298V110H152.479L152.425 109.323ZM148.87 100.669C148.87 100.418 148.961 100.211 149.144 100.047C149.33 99.8783 149.556 99.7939 149.82 99.7939C150.085 99.7939 150.308 99.8783 150.49 100.047C150.677 100.211 150.771 100.418 150.771 100.669C150.771 100.915 150.677 101.122 150.49 101.291C150.308 101.455 150.085 101.537 149.82 101.537C149.556 101.537 149.33 101.455 149.144 101.291C148.961 101.122 148.87 100.915 148.87 100.669ZM152.213 100.669C152.213 100.423 152.304 100.218 152.486 100.054C152.673 99.8851 152.899 99.8008 153.163 99.8008C153.427 99.8008 153.651 99.8851 153.833 100.054C154.02 100.218 154.113 100.423 154.113 100.669C154.113 100.906 154.024 101.111 153.847 101.284C153.674 101.453 153.446 101.537 153.163 101.537C152.881 101.537 152.65 101.453 152.473 101.284C152.299 101.111 152.213 100.906 152.213 100.669ZM155.446 106.076C155.446 104.864 155.665 103.959 156.103 103.362C156.54 102.765 157.153 102.467 157.941 102.467C158.611 102.467 159.129 102.731 159.493 103.26L159.568 102.604H161.312V110C161.312 110.943 161.047 111.663 160.519 112.16C159.99 112.661 159.231 112.912 158.242 112.912C157.837 112.912 157.41 112.83 156.964 112.666C156.517 112.507 156.185 112.301 155.966 112.051L156.615 110.711C156.798 110.902 157.035 111.057 157.326 111.176C157.618 111.299 157.894 111.36 158.153 111.36C158.586 111.36 158.896 111.256 159.083 111.046C159.274 110.841 159.372 110.508 159.377 110.048V109.412C159.008 109.895 158.527 110.137 157.935 110.137C157.146 110.137 156.535 109.831 156.103 109.221C155.674 108.605 155.455 107.74 155.446 106.623V106.076ZM157.381 106.562C157.381 107.245 157.47 107.744 157.647 108.059C157.825 108.368 158.108 108.523 158.495 108.523C158.892 108.523 159.186 108.38 159.377 108.093V104.559C159.176 104.244 158.887 104.087 158.509 104.087C158.126 104.087 157.841 104.244 157.654 104.559C157.472 104.873 157.381 105.379 157.381 106.076V106.562ZM165.092 106.78L166.076 102.604H168.141L165.707 111.107C165.342 112.361 164.657 112.987 163.649 112.987C163.417 112.987 163.153 112.944 162.856 112.857V111.347L163.082 111.354C163.383 111.354 163.608 111.294 163.759 111.176C163.914 111.062 164.03 110.861 164.107 110.574L164.258 110.075L162.125 102.604H164.203L165.092 106.78ZM169.508 110V104.06H168.612V102.604H169.508V101.94C169.512 101.125 169.727 100.491 170.15 100.04C170.579 99.5843 171.169 99.3564 171.921 99.3564C172.149 99.3564 172.44 99.402 172.796 99.4932L172.782 101.038C172.65 100.997 172.493 100.977 172.311 100.977C171.736 100.977 171.449 101.318 171.449 102.002V102.604H172.604V104.06H171.449V110H169.508ZM176.48 110.137C175.487 110.137 174.712 109.84 174.156 109.248C173.6 108.656 173.322 107.808 173.322 106.705V106.117C173.322 104.951 173.577 104.05 174.088 103.417C174.598 102.784 175.33 102.467 176.282 102.467C177.212 102.467 177.911 102.765 178.381 103.362C178.85 103.955 179.09 104.834 179.099 106.001V106.951H175.25C175.277 107.498 175.398 107.899 175.612 108.154C175.826 108.405 176.157 108.53 176.604 108.53C177.251 108.53 177.791 108.309 178.224 107.867L178.982 109.036C178.745 109.364 178.401 109.631 177.95 109.836C177.499 110.036 177.009 110.137 176.48 110.137ZM175.264 105.598H177.198V105.42C177.189 104.978 177.116 104.643 176.979 104.415C176.843 104.187 176.606 104.073 176.269 104.073C175.931 104.073 175.685 104.194 175.53 104.436C175.38 104.677 175.291 105.064 175.264 105.598ZM176.412 99.5H178.586L176.686 101.619H175.072L176.412 99.5ZM182.223 110H180.281V99.5H182.223V110ZM186.994 108.018C186.994 107.854 186.914 107.703 186.755 107.566C186.6 107.425 186.251 107.236 185.709 106.999C184.911 106.675 184.362 106.34 184.062 105.994C183.765 105.648 183.617 105.217 183.617 104.702C183.617 104.055 183.85 103.522 184.314 103.103C184.784 102.679 185.404 102.467 186.174 102.467C186.985 102.467 187.634 102.676 188.122 103.096C188.61 103.515 188.854 104.078 188.854 104.784H186.919C186.919 104.183 186.668 103.882 186.167 103.882C185.962 103.882 185.793 103.946 185.661 104.073C185.529 104.201 185.463 104.379 185.463 104.606C185.463 104.771 185.536 104.916 185.682 105.044C185.827 105.167 186.172 105.345 186.714 105.577C187.502 105.869 188.058 106.195 188.382 106.555C188.71 106.91 188.874 107.373 188.874 107.942C188.874 108.603 188.626 109.134 188.129 109.535C187.632 109.936 186.98 110.137 186.174 110.137C185.632 110.137 185.153 110.032 184.738 109.822C184.324 109.608 183.998 109.312 183.761 108.934C183.528 108.555 183.412 108.147 183.412 107.71H185.251C185.26 108.047 185.338 108.3 185.483 108.469C185.634 108.637 185.878 108.722 186.215 108.722C186.734 108.722 186.994 108.487 186.994 108.018ZM192.217 108.394H195.143V110H189.92V108.79L192.777 104.217H189.988V102.604H195.102V103.772L192.217 108.394ZM196.086 106.062C196.086 104.941 196.35 104.062 196.879 103.424C197.408 102.786 198.139 102.467 199.073 102.467C200.017 102.467 200.753 102.786 201.281 103.424C201.81 104.062 202.074 104.946 202.074 106.076V106.548C202.074 107.674 201.812 108.553 201.288 109.187C200.764 109.82 200.03 110.137 199.087 110.137C198.139 110.137 197.401 109.82 196.872 109.187C196.348 108.549 196.086 107.664 196.086 106.534V106.062ZM198.027 106.548C198.027 107.869 198.381 108.53 199.087 108.53C199.739 108.53 200.09 107.979 200.14 106.876L200.146 106.062C200.146 105.388 200.053 104.889 199.866 104.565C199.679 104.237 199.415 104.073 199.073 104.073C198.745 104.073 198.488 104.237 198.301 104.565C198.118 104.889 198.027 105.388 198.027 106.062V106.548ZM205.314 110H203.373V99.5H205.314V110ZM206.579 106.076C206.579 104.864 206.798 103.959 207.235 103.362C207.673 102.765 208.286 102.467 209.074 102.467C209.744 102.467 210.261 102.731 210.626 103.26L210.701 102.604H212.444V110C212.444 110.943 212.18 111.663 211.651 112.16C211.123 112.661 210.364 112.912 209.375 112.912C208.969 112.912 208.543 112.83 208.097 112.666C207.65 112.507 207.317 112.301 207.099 112.051L207.748 110.711C207.93 110.902 208.167 111.057 208.459 111.176C208.751 111.299 209.026 111.36 209.286 111.36C209.719 111.36 210.029 111.256 210.216 111.046C210.407 110.841 210.505 110.508 210.51 110.048V109.412C210.141 109.895 209.66 110.137 209.067 110.137C208.279 110.137 207.668 109.831 207.235 109.221C206.807 108.605 206.588 107.74 206.579 106.623V106.076ZM208.514 106.562C208.514 107.245 208.603 107.744 208.78 108.059C208.958 108.368 209.241 108.523 209.628 108.523C210.024 108.523 210.318 108.38 210.51 108.093V104.559C210.309 104.244 210.02 104.087 209.642 104.087C209.259 104.087 208.974 104.244 208.787 104.559C208.605 104.873 208.514 105.379 208.514 106.076V106.562ZM217.366 110C217.312 109.886 217.257 109.695 217.202 109.426C216.856 109.9 216.386 110.137 215.794 110.137C215.174 110.137 214.659 109.932 214.249 109.521C213.843 109.111 213.641 108.58 213.641 107.929C213.641 107.154 213.887 106.555 214.379 106.131C214.876 105.707 215.589 105.491 216.519 105.481H217.106V104.887C217.106 104.554 217.049 104.319 216.936 104.183C216.822 104.046 216.655 103.978 216.437 103.978C215.953 103.978 215.712 104.26 215.712 104.825H213.777C213.777 104.142 214.033 103.579 214.543 103.137C215.058 102.69 215.707 102.467 216.491 102.467C217.302 102.467 217.929 102.679 218.371 103.103C218.818 103.522 219.041 104.123 219.041 104.907V108.387C219.05 109.025 219.141 109.524 219.314 109.884V110H217.366ZM216.225 108.619C216.439 108.619 216.621 108.576 216.771 108.489C216.922 108.403 217.034 108.3 217.106 108.182V106.644H216.642C216.313 106.644 216.054 106.748 215.862 106.958C215.675 107.168 215.582 107.448 215.582 107.799C215.582 108.346 215.796 108.619 216.225 108.619ZM216.806 99.5H218.979L217.079 101.619H215.466L216.806 99.5ZM222.473 110H220.531V99.5H222.473V110ZM227.483 110C227.429 109.886 227.374 109.695 227.319 109.426C226.973 109.9 226.504 110.137 225.911 110.137C225.291 110.137 224.776 109.932 224.366 109.521C223.961 109.111 223.758 108.58 223.758 107.929C223.758 107.154 224.004 106.555 224.496 106.131C224.993 105.707 225.706 105.491 226.636 105.481H227.224V104.887C227.224 104.554 227.167 104.319 227.053 104.183C226.939 104.046 226.772 103.978 226.554 103.978C226.071 103.978 225.829 104.26 225.829 104.825H223.895C223.895 104.142 224.15 103.579 224.66 103.137C225.175 102.69 225.825 102.467 226.608 102.467C227.42 102.467 228.046 102.679 228.488 103.103C228.935 103.522 229.158 104.123 229.158 104.907V108.387C229.167 109.025 229.258 109.524 229.432 109.884V110H227.483ZM226.342 108.619C226.556 108.619 226.738 108.576 226.889 108.489C227.039 108.403 227.151 108.3 227.224 108.182V106.644H226.759C226.431 106.644 226.171 106.748 225.979 106.958C225.793 107.168 225.699 107.448 225.699 107.799C225.699 108.346 225.913 108.619 226.342 108.619ZM232.809 100.785V102.604H233.8V104.06H232.809V107.73C232.809 108.022 232.847 108.223 232.925 108.332C233.007 108.441 233.162 108.496 233.39 108.496C233.576 108.496 233.729 108.48 233.848 108.448L233.834 109.952C233.506 110.075 233.15 110.137 232.768 110.137C231.519 110.137 230.888 109.421 230.874 107.99V104.06H230.02V102.604H230.874V100.785H232.809ZM235.44 112.509L234.408 111.969L234.668 111.483C234.96 110.946 235.11 110.403 235.119 109.856V108.318H236.801L236.794 109.692C236.789 110.175 236.666 110.677 236.425 111.196C236.183 111.716 235.855 112.153 235.44 112.509ZM118.689 126.076C118.689 124.864 118.908 123.959 119.346 123.362C119.783 122.765 120.396 122.467 121.185 122.467C121.854 122.467 122.372 122.731 122.736 123.26L122.812 122.604H124.555V130C124.555 130.943 124.29 131.663 123.762 132.16C123.233 132.661 122.474 132.912 121.485 132.912C121.08 132.912 120.654 132.83 120.207 132.666C119.76 132.507 119.428 132.301 119.209 132.051L119.858 130.711C120.041 130.902 120.278 131.057 120.569 131.176C120.861 131.299 121.137 131.36 121.396 131.36C121.829 131.36 122.139 131.256 122.326 131.046C122.518 130.841 122.616 130.508 122.62 130.048V129.412C122.251 129.895 121.77 130.137 121.178 130.137C120.389 130.137 119.779 129.831 119.346 129.221C118.917 128.605 118.699 127.74 118.689 126.623V126.076ZM120.624 126.562C120.624 127.245 120.713 127.744 120.891 128.059C121.068 128.368 121.351 128.523 121.738 128.523C122.135 128.523 122.429 128.38 122.62 128.093V124.559C122.42 124.244 122.13 124.087 121.752 124.087C121.369 124.087 121.084 124.244 120.897 124.559C120.715 124.873 120.624 125.379 120.624 126.076V126.562ZM128.335 126.78L129.319 122.604H131.384L128.95 131.107C128.586 132.361 127.9 132.987 126.893 132.987C126.66 132.987 126.396 132.944 126.1 132.857V131.347L126.325 131.354C126.626 131.354 126.852 131.294 127.002 131.176C127.157 131.062 127.273 130.861 127.351 130.574L127.501 130.075L125.368 122.604H127.446L128.335 126.78ZM131.876 126.062C131.876 124.941 132.14 124.062 132.669 123.424C133.198 122.786 133.929 122.467 134.863 122.467C135.807 122.467 136.543 122.786 137.071 123.424C137.6 124.062 137.864 124.946 137.864 126.076V126.548C137.864 127.674 137.602 128.553 137.078 129.187C136.554 129.82 135.82 130.137 134.877 130.137C133.929 130.137 133.191 129.82 132.662 129.187C132.138 128.549 131.876 127.664 131.876 126.534V126.062ZM133.817 126.548C133.817 127.869 134.171 128.53 134.877 128.53C135.529 128.53 135.88 127.979 135.93 126.876L135.937 126.062C135.937 125.388 135.843 124.889 135.656 124.565C135.469 124.237 135.205 124.073 134.863 124.073C134.535 124.073 134.278 124.237 134.091 124.565C133.909 124.889 133.817 125.388 133.817 126.062V126.548ZM142.725 124.47L142.082 124.415C141.553 124.415 141.196 124.647 141.009 125.112V130H139.067V122.604H140.893L140.947 123.403C141.253 122.779 141.674 122.467 142.212 122.467C142.431 122.467 142.608 122.496 142.745 122.556L142.725 124.47ZM146.997 128.018C146.997 127.854 146.917 127.703 146.758 127.566C146.603 127.425 146.254 127.236 145.712 126.999C144.914 126.675 144.365 126.34 144.064 125.994C143.768 125.648 143.62 125.217 143.62 124.702C143.62 124.055 143.853 123.522 144.317 123.103C144.787 122.679 145.407 122.467 146.177 122.467C146.988 122.467 147.637 122.676 148.125 123.096C148.613 123.515 148.856 124.078 148.856 124.784H146.922C146.922 124.183 146.671 123.882 146.17 123.882C145.965 123.882 145.796 123.946 145.664 124.073C145.532 124.201 145.466 124.379 145.466 124.606C145.466 124.771 145.539 124.916 145.685 125.044C145.83 125.167 146.174 125.345 146.717 125.577C147.505 125.869 148.061 126.195 148.385 126.555C148.713 126.91 148.877 127.373 148.877 127.942C148.877 128.603 148.629 129.134 148.132 129.535C147.635 129.936 146.983 130.137 146.177 130.137C145.634 130.137 145.156 130.032 144.741 129.822C144.326 129.608 144.001 129.312 143.764 128.934C143.531 128.555 143.415 128.147 143.415 127.71H145.254C145.263 128.047 145.34 128.3 145.486 128.469C145.637 128.637 145.881 128.722 146.218 128.722C146.737 128.722 146.997 128.487 146.997 128.018ZM156.581 128.018C156.581 127.854 156.501 127.703 156.342 127.566C156.187 127.425 155.838 127.236 155.296 126.999C154.498 126.675 153.949 126.34 153.648 125.994C153.352 125.648 153.204 125.217 153.204 124.702C153.204 124.055 153.437 123.522 153.901 123.103C154.371 122.679 154.991 122.467 155.761 122.467C156.572 122.467 157.221 122.676 157.709 123.096C158.197 123.515 158.44 124.078 158.44 124.784H156.506C156.506 124.183 156.255 123.882 155.754 123.882C155.549 123.882 155.38 123.946 155.248 124.073C155.116 124.201 155.05 124.379 155.05 124.606C155.05 124.771 155.123 124.916 155.269 125.044C155.414 125.167 155.758 125.345 156.301 125.577C157.089 125.869 157.645 126.195 157.969 126.555C158.297 126.91 158.461 127.373 158.461 127.942C158.461 128.603 158.213 129.134 157.716 129.535C157.219 129.936 156.567 130.137 155.761 130.137C155.218 130.137 154.74 130.032 154.325 129.822C153.91 129.608 153.585 129.312 153.348 128.934C153.115 128.555 152.999 128.147 152.999 127.71H154.838C154.847 128.047 154.924 128.3 155.07 128.469C155.221 128.637 155.465 128.722 155.802 128.722C156.321 128.722 156.581 128.487 156.581 128.018ZM162.651 130.137C161.658 130.137 160.883 129.84 160.327 129.248C159.771 128.656 159.493 127.808 159.493 126.705V126.117C159.493 124.951 159.748 124.05 160.259 123.417C160.769 122.784 161.501 122.467 162.453 122.467C163.383 122.467 164.082 122.765 164.552 123.362C165.021 123.955 165.26 124.834 165.27 126.001V126.951H161.421C161.448 127.498 161.569 127.899 161.783 128.154C161.997 128.405 162.328 128.53 162.774 128.53C163.422 128.53 163.962 128.309 164.395 127.867L165.153 129.036C164.916 129.364 164.572 129.631 164.121 129.836C163.67 130.036 163.18 130.137 162.651 130.137ZM161.435 125.598H163.369V125.42C163.36 124.978 163.287 124.643 163.15 124.415C163.014 124.187 162.777 124.073 162.439 124.073C162.102 124.073 161.856 124.194 161.701 124.436C161.551 124.677 161.462 125.064 161.435 125.598ZM166.131 126.076C166.131 124.864 166.35 123.959 166.787 123.362C167.225 122.765 167.838 122.467 168.626 122.467C169.296 122.467 169.813 122.731 170.178 123.26L170.253 122.604H171.996V130C171.996 130.943 171.732 131.663 171.203 132.16C170.674 132.661 169.916 132.912 168.927 132.912C168.521 132.912 168.095 132.83 167.648 132.666C167.202 132.507 166.869 132.301 166.65 132.051L167.3 130.711C167.482 130.902 167.719 131.057 168.011 131.176C168.302 131.299 168.578 131.36 168.838 131.36C169.271 131.36 169.581 131.256 169.768 131.046C169.959 130.841 170.057 130.508 170.062 130.048V129.412C169.692 129.895 169.212 130.137 168.619 130.137C167.831 130.137 167.22 129.831 166.787 129.221C166.359 128.605 166.14 127.74 166.131 126.623V126.076ZM168.065 126.562C168.065 127.245 168.154 127.744 168.332 128.059C168.51 128.368 168.792 128.523 169.18 128.523C169.576 128.523 169.87 128.38 170.062 128.093V124.559C169.861 124.244 169.572 124.087 169.193 124.087C168.811 124.087 168.526 124.244 168.339 124.559C168.157 124.873 168.065 125.379 168.065 126.076V126.562ZM175.482 130H173.548V122.604H175.482V130ZM174.922 119.603H177.096L175.195 121.722H173.582L174.922 119.603ZM179.331 120.785V122.604H180.322V124.06H179.331V127.73C179.331 128.022 179.37 128.223 179.447 128.332C179.529 128.441 179.684 128.496 179.912 128.496C180.099 128.496 180.252 128.48 180.37 128.448L180.356 129.952C180.028 130.075 179.673 130.137 179.29 130.137C178.041 130.137 177.41 129.421 177.396 127.99V124.06H176.542V122.604H177.396V120.785H179.331ZM184.663 128.018C184.663 127.854 184.583 127.703 184.424 127.566C184.269 127.425 183.92 127.236 183.378 126.999C182.58 126.675 182.031 126.34 181.73 125.994C181.434 125.648 181.286 125.217 181.286 124.702C181.286 124.055 181.519 123.522 181.983 123.103C182.453 122.679 183.073 122.467 183.843 122.467C184.654 122.467 185.303 122.676 185.791 123.096C186.279 123.515 186.522 124.078 186.522 124.784H184.588C184.588 124.183 184.337 123.882 183.836 123.882C183.631 123.882 183.462 123.946 183.33 124.073C183.198 124.201 183.132 124.379 183.132 124.606C183.132 124.771 183.205 124.916 183.351 125.044C183.496 125.167 183.84 125.345 184.383 125.577C185.171 125.869 185.727 126.195 186.051 126.555C186.379 126.91 186.543 127.373 186.543 127.942C186.543 128.603 186.295 129.134 185.798 129.535C185.301 129.936 184.649 130.137 183.843 130.137C183.3 130.137 182.822 130.032 182.407 129.822C181.993 129.608 181.667 129.312 181.43 128.934C181.197 128.555 181.081 128.147 181.081 127.71H182.92C182.929 128.047 183.007 128.3 183.152 128.469C183.303 128.637 183.547 128.722 183.884 128.722C184.403 128.722 184.663 128.487 184.663 128.018ZM190.733 130.137C189.74 130.137 188.965 129.84 188.409 129.248C187.853 128.656 187.575 127.808 187.575 126.705V126.117C187.575 124.951 187.83 124.05 188.341 123.417C188.851 122.784 189.583 122.467 190.535 122.467C191.465 122.467 192.164 122.765 192.634 123.362C193.103 123.955 193.342 124.834 193.352 126.001V126.951H189.503C189.53 127.498 189.651 127.899 189.865 128.154C190.079 128.405 190.41 128.53 190.856 128.53C191.504 128.53 192.044 128.309 192.477 127.867L193.235 129.036C192.998 129.364 192.654 129.631 192.203 129.836C191.752 130.036 191.262 130.137 190.733 130.137ZM189.517 125.598H191.451V125.42C191.442 124.978 191.369 124.643 191.232 124.415C191.096 124.187 190.859 124.073 190.521 124.073C190.184 124.073 189.938 124.194 189.783 124.436C189.633 124.677 189.544 125.064 189.517 125.598ZM190.665 119.5H192.839L190.938 121.619H189.325L190.665 119.5ZM194.213 126.076C194.213 124.864 194.432 123.959 194.869 123.362C195.307 122.765 195.92 122.467 196.708 122.467C197.378 122.467 197.895 122.731 198.26 123.26L198.335 122.604H200.078V130C200.078 130.943 199.814 131.663 199.285 132.16C198.757 132.661 197.998 132.912 197.009 132.912C196.603 132.912 196.177 132.83 195.73 132.666C195.284 132.507 194.951 132.301 194.732 132.051L195.382 130.711C195.564 130.902 195.801 131.057 196.093 131.176C196.384 131.299 196.66 131.36 196.92 131.36C197.353 131.36 197.663 131.256 197.85 131.046C198.041 130.841 198.139 130.508 198.144 130.048V129.412C197.774 129.895 197.294 130.137 196.701 130.137C195.913 130.137 195.302 129.831 194.869 129.221C194.441 128.605 194.222 127.74 194.213 126.623V126.076ZM196.147 126.562C196.147 127.245 196.236 127.744 196.414 128.059C196.592 128.368 196.874 128.523 197.262 128.523C197.658 128.523 197.952 128.38 198.144 128.093V124.559C197.943 124.244 197.654 124.087 197.275 124.087C196.893 124.087 196.608 124.244 196.421 124.559C196.239 124.873 196.147 125.379 196.147 126.076V126.562Z" fill="white"/>
<path d="M156.545 -57.936L257.666 -57.936C260.731 -57.9315 263.741 -57.1289 266.394 -55.6087C269.047 -54.0886 271.251 -51.9043 272.783 -49.2749C274.315 -46.6454 275.122 -43.6633 275.123 -40.6274C275.124 -37.5916 274.32 -34.6088 272.79 -31.9781L222.214 54.7297L171.67 141.374C170.133 143.998 167.927 146.177 165.273 147.691C162.618 149.206 159.609 150.003 156.545 150.003C153.482 150.003 150.472 149.206 147.818 147.691C145.164 146.177 142.958 143.998 141.421 141.374L90.8769 54.6657L40.333 -32.0421C38.8032 -34.6728 37.9986 -37.6556 37.9999 -40.6915C38.0012 -43.7273 38.8084 -46.7094 40.3404 -49.3389C41.8725 -51.9683 44.0755 -54.1526 46.7288 -55.6728C49.382 -57.1929 52.3922 -57.9955 55.4574 -58L156.545 -57.936Z" fill="url(#paint1_linear_26_1102)" fill-opacity="0.49"/>
</g>
</g>
<defs>
<filter id="filter0_d_26_1102" x="0" y="0" width="329" height="177" filterUnits="userSpaceOnUse" color-interpolation-filters="sRGB">
<feFlood flood-opacity="0" result="BackgroundImageFix"/>
<feColorMatrix in="SourceAlpha" type="matrix" values="0 0 0 0 0 0 0 0 0 0 0 0 0 0 0 0 0 0 127 0" result="hardAlpha"/>
<feOffset dx="5" dy="5"/>
<feGaussianBlur stdDeviation="11"/>
<feComposite in2="hardAlpha" operator="out"/>
<feColorMatrix type="matrix" values="0 0 0 0 0.960784 0 0 0 0 0.490196 0 0 0 0 0.129412 0 0 0 0.2 0"/>
<feBlend mode="normal" in2="BackgroundImageFix" result="effect1_dropShadow_26_1102"/>
<feBlend mode="normal" in="SourceGraphic" in2="effect1_dropShadow_26_1102" result="shape"/>
</filter>
<linearGradient id="paint0_linear_26_1102" x1="159.5" y1="17" x2="159.5" y2="150" gradientUnits="userSpaceOnUse">
<stop stop-color="#F58C1F"/>
<stop offset="1" stop-color="#F57D21"/>
</linearGradient>
<linearGradient id="paint1_linear_26_1102" x1="155.868" y1="-72.5602" x2="155.868" y2="90.3753" gradientUnits="userSpaceOnUse">
<stop stop-color="white"/>
<stop offset="1" stop-color="white" stop-opacity="0"/>
</linearGradient>
<clipPath id="clip0_26_1102">
<rect x="17" y="17" width="285" height="133" rx="5" fill="white"/>
</clipPath>
</defs>
</svg>
