<svg width="329" height="177" viewBox="0 0 329 177" fill="none" xmlns="http://www.w3.org/2000/svg">
<g filter="url(#filter0_d_26_1100)">
<g clip-path="url(#clip0_26_1100)">
<rect x="17" y="17" width="285" height="133" rx="5" fill="url(#paint0_linear_26_1100)"/>
<path d="M173.5 62.0009C169.08 62.0009 165.5 65.5809 165.5 70.0009C165.5 71.5009 165.92 72.9209 166.66 74.1209C167.365 75.3058 168.367 76.2868 169.566 76.9671C170.765 77.6474 172.121 78.0037 173.5 78.0009C176.42 78.0009 178.96 76.4409 180.34 74.1209C181.08 72.9209 181.5 71.5009 181.5 70.0009C181.5 65.5809 177.92 62.0009 173.5 62.0009ZM177.64 69.1409L173.38 73.0809C173.1 73.3409 172.72 73.4809 172.36 73.4809C171.98 73.4809 171.6 73.3409 171.3 73.0409L169.32 71.0609C169.041 70.7786 168.885 70.3977 168.885 70.0009C168.885 69.604 169.041 69.2231 169.32 68.9409C169.9 68.3609 170.86 68.3609 171.44 68.9409L172.4 69.9009L175.6 66.9409C176.2 66.3809 177.16 66.4209 177.72 67.0209C178.28 67.6209 178.24 68.5609 177.64 69.1409ZM179.5 47.0969V47.9969C179.5 49.0969 178.6 49.9969 177.5 49.9969H141.5C140.4 49.9969 139.5 49.0969 139.5 47.9969V47.0769C139.5 42.4969 143.2 38.7969 147.78 38.7969H171.2C175.78 38.7969 179.5 42.5169 179.5 47.0969Z" fill="white"/>
<path d="M139.5 54.9966V64.9166C139.5 69.4966 143.2 73.1966 147.78 73.1966H160.3C161.46 73.1966 162.46 72.2166 162.36 71.0566C162.08 67.9966 163.06 64.6766 165.78 62.0366C166.9 60.9366 168.28 60.0966 169.78 59.6166C172.28 58.8166 174.7 58.9166 176.84 59.6366C177.141 59.7417 177.462 59.7735 177.778 59.7292C178.094 59.6849 178.394 59.5658 178.654 59.3819C178.915 59.1979 179.127 58.9545 179.274 58.6717C179.421 58.389 179.499 58.0753 179.5 57.7566V54.9766C179.5 53.8766 178.6 52.9766 177.5 52.9766H141.5C140.4 52.9966 139.5 53.8966 139.5 54.9966ZM151.5 66.4966H147.5C146.68 66.4966 146 65.8166 146 64.9966C146 64.1766 146.68 63.4966 147.5 63.4966H151.5C152.32 63.4966 153 64.1766 153 64.9966C153 65.8166 152.32 66.4966 151.5 66.4966Z" fill="white"/>
<path d="M104.525 101.722H102.064V110H100.048V101.722H97.6279V100.047H104.525V101.722ZM103.938 106.062C103.938 104.941 104.202 104.062 104.73 103.424C105.259 102.786 105.991 102.467 106.925 102.467C107.868 102.467 108.604 102.786 109.133 103.424C109.661 104.062 109.926 104.946 109.926 106.076V106.548C109.926 107.674 109.664 108.553 109.14 109.187C108.616 109.82 107.882 110.137 106.938 110.137C105.991 110.137 105.252 109.82 104.724 109.187C104.2 108.549 103.938 107.664 103.938 106.534V106.062ZM105.879 106.548C105.879 107.869 106.232 108.53 106.938 108.53C107.59 108.53 107.941 107.979 107.991 106.876L107.998 106.062C107.998 105.388 107.905 104.889 107.718 104.565C107.531 104.237 107.267 104.073 106.925 104.073C106.597 104.073 106.339 104.237 106.152 104.565C105.97 104.889 105.879 105.388 105.879 106.062V106.548ZM104.286 100.669C104.286 100.418 104.377 100.211 104.56 100.047C104.746 99.8783 104.972 99.7939 105.236 99.7939C105.501 99.7939 105.724 99.8783 105.906 100.047C106.093 100.211 106.187 100.418 106.187 100.669C106.187 100.915 106.093 101.122 105.906 101.291C105.724 101.455 105.501 101.537 105.236 101.537C104.972 101.537 104.746 101.455 104.56 101.291C104.377 101.122 104.286 100.915 104.286 100.669ZM107.629 100.669C107.629 100.423 107.72 100.218 107.902 100.054C108.089 99.8851 108.315 99.8008 108.579 99.8008C108.843 99.8008 109.067 99.8851 109.249 100.054C109.436 100.218 109.529 100.423 109.529 100.669C109.529 100.906 109.44 101.111 109.263 101.284C109.09 101.453 108.862 101.537 108.579 101.537C108.297 101.537 108.066 101.453 107.889 101.284C107.715 101.111 107.629 100.906 107.629 100.669ZM116.905 106.541C116.905 107.74 116.714 108.64 116.331 109.241C115.948 109.838 115.347 110.137 114.526 110.137C113.884 110.137 113.369 109.847 112.981 109.269L112.92 110H111.136V99.5H113.07V103.205C113.435 102.713 113.916 102.467 114.513 102.467C115.333 102.467 115.935 102.765 116.317 103.362C116.7 103.955 116.896 104.825 116.905 105.974V106.541ZM114.971 106.056C114.971 105.276 114.896 104.755 114.745 104.49C114.595 104.221 114.333 104.087 113.959 104.087C113.553 104.087 113.257 104.271 113.07 104.641V108.011C113.243 108.357 113.544 108.53 113.973 108.53C114.342 108.53 114.597 108.41 114.738 108.168C114.884 107.926 114.962 107.457 114.971 106.76V106.056ZM123.837 106.541C123.837 107.74 123.646 108.64 123.263 109.241C122.88 109.838 122.278 110.137 121.458 110.137C120.815 110.137 120.3 109.847 119.913 109.269L119.852 110H118.067V99.5H120.002V103.205C120.367 102.713 120.847 102.467 121.444 102.467C122.265 102.467 122.866 102.765 123.249 103.362C123.632 103.955 123.828 104.825 123.837 105.974V106.541ZM121.902 106.056C121.902 105.276 121.827 104.755 121.677 104.49C121.526 104.221 121.264 104.087 120.891 104.087C120.485 104.087 120.189 104.271 120.002 104.641V108.011C120.175 108.357 120.476 108.53 120.904 108.53C121.273 108.53 121.529 108.41 121.67 108.168C121.816 107.926 121.893 107.457 121.902 106.76V106.056ZM125.443 110V104.06H124.548V102.604H125.443V101.94C125.448 101.125 125.662 100.491 126.086 100.04C126.514 99.5843 127.104 99.3564 127.856 99.3564C128.084 99.3564 128.376 99.402 128.731 99.4932L128.718 101.038C128.586 100.997 128.428 100.977 128.246 100.977C127.672 100.977 127.385 101.318 127.385 102.002V102.604H128.54V104.06H127.385V110H125.443ZM132.416 110.137C131.423 110.137 130.648 109.84 130.092 109.248C129.536 108.656 129.258 107.808 129.258 106.705V106.117C129.258 104.951 129.513 104.05 130.023 103.417C130.534 102.784 131.265 102.467 132.218 102.467C133.147 102.467 133.847 102.765 134.316 103.362C134.786 103.955 135.025 104.834 135.034 106.001V106.951H131.186C131.213 107.498 131.334 107.899 131.548 108.154C131.762 108.405 132.092 108.53 132.539 108.53C133.186 108.53 133.726 108.309 134.159 107.867L134.918 109.036C134.681 109.364 134.337 109.631 133.886 109.836C133.435 110.036 132.945 110.137 132.416 110.137ZM131.199 105.598H133.134V105.42C133.125 104.978 133.052 104.643 132.915 104.415C132.778 104.187 132.541 104.073 132.204 104.073C131.867 104.073 131.621 104.194 131.466 104.436C131.315 104.677 131.227 105.064 131.199 105.598ZM132.348 99.5H134.521L132.621 101.619H131.008L132.348 99.5ZM138.158 110H136.217V99.5H138.158V110ZM142.643 110.137C141.649 110.137 140.874 109.84 140.318 109.248C139.762 108.656 139.484 107.808 139.484 106.705V106.117C139.484 104.951 139.74 104.05 140.25 103.417C140.76 102.784 141.492 102.467 142.444 102.467C143.374 102.467 144.074 102.765 144.543 103.362C145.012 103.955 145.252 104.834 145.261 106.001V106.951H141.412C141.439 107.498 141.56 107.899 141.774 108.154C141.989 108.405 142.319 108.53 142.766 108.53C143.413 108.53 143.953 108.309 144.386 107.867L145.145 109.036C144.908 109.364 144.563 109.631 144.112 109.836C143.661 110.036 143.171 110.137 142.643 110.137ZM141.426 105.598H143.36V105.42C143.351 104.978 143.278 104.643 143.142 104.415C143.005 104.187 142.768 104.073 142.431 104.073C142.093 104.073 141.847 104.194 141.692 104.436C141.542 104.677 141.453 105.064 141.426 105.598ZM149.971 110V104.06H149.075V102.604H149.971V102.269C149.98 101.339 150.233 100.621 150.729 100.115C151.231 99.6094 151.944 99.3564 152.869 99.3564C153.402 99.3564 154.056 99.4909 154.831 99.7598L154.551 101.407C153.995 101.198 153.478 101.093 152.999 101.093C152.284 101.093 151.921 101.487 151.912 102.275V102.604H153.054V104.06H151.912V110H149.971ZM155.713 110H153.771V102.604H155.713V110ZM159.363 108.394H162.289V110H157.066V108.79L159.924 104.217H157.135V102.604H162.248V103.772L159.363 108.394ZM166.445 110.137C165.452 110.137 164.677 109.84 164.121 109.248C163.565 108.656 163.287 107.808 163.287 106.705V106.117C163.287 104.951 163.542 104.05 164.053 103.417C164.563 102.784 165.295 102.467 166.247 102.467C167.177 102.467 167.876 102.765 168.346 103.362C168.815 103.955 169.054 104.834 169.063 106.001V106.951H165.215C165.242 107.498 165.363 107.899 165.577 108.154C165.791 108.405 166.122 108.53 166.568 108.53C167.215 108.53 167.756 108.309 168.188 107.867L168.947 109.036C168.71 109.364 168.366 109.631 167.915 109.836C167.464 110.036 166.974 110.137 166.445 110.137ZM165.229 105.598H167.163V105.42C167.154 104.978 167.081 104.643 166.944 104.415C166.808 104.187 166.571 104.073 166.233 104.073C165.896 104.073 165.65 104.194 165.495 104.436C165.345 104.677 165.256 105.064 165.229 105.598ZM172.406 100.785V102.604H173.397V104.06H172.406V107.73C172.406 108.022 172.445 108.223 172.522 108.332C172.604 108.441 172.759 108.496 172.987 108.496C173.174 108.496 173.327 108.48 173.445 108.448L173.432 109.952C173.104 110.075 172.748 110.137 172.365 110.137C171.117 110.137 170.485 109.421 170.472 107.99V104.06H169.617V102.604H170.472V100.785H172.406ZM177.451 110.137C176.458 110.137 175.683 109.84 175.127 109.248C174.571 108.656 174.293 107.808 174.293 106.705V106.117C174.293 104.951 174.548 104.05 175.059 103.417C175.569 102.784 176.3 102.467 177.253 102.467C178.183 102.467 178.882 102.765 179.352 103.362C179.821 103.955 180.06 104.834 180.069 106.001V106.951H176.221C176.248 107.498 176.369 107.899 176.583 108.154C176.797 108.405 177.128 108.53 177.574 108.53C178.221 108.53 178.761 108.309 179.194 107.867L179.953 109.036C179.716 109.364 179.372 109.631 178.921 109.836C178.47 110.036 177.98 110.137 177.451 110.137ZM176.234 105.598H178.169V105.42C178.16 104.978 178.087 104.643 177.95 104.415C177.813 104.187 177.576 104.073 177.239 104.073C176.902 104.073 176.656 104.194 176.501 104.436C176.351 104.677 176.262 105.064 176.234 105.598ZM177.383 99.5H179.557L177.656 101.619H176.043L177.383 99.5ZM184.438 108.018C184.438 107.854 184.358 107.703 184.198 107.566C184.043 107.425 183.695 107.236 183.152 106.999C182.355 106.675 181.806 106.34 181.505 105.994C181.209 105.648 181.061 105.217 181.061 104.702C181.061 104.055 181.293 103.522 181.758 103.103C182.227 102.679 182.847 102.467 183.617 102.467C184.428 102.467 185.078 102.676 185.565 103.096C186.053 103.515 186.297 104.078 186.297 104.784H184.362C184.362 104.183 184.112 103.882 183.61 103.882C183.405 103.882 183.237 103.946 183.104 104.073C182.972 104.201 182.906 104.379 182.906 104.606C182.906 104.771 182.979 104.916 183.125 105.044C183.271 105.167 183.615 105.345 184.157 105.577C184.946 105.869 185.502 106.195 185.825 106.555C186.153 106.91 186.317 107.373 186.317 107.942C186.317 108.603 186.069 109.134 185.572 109.535C185.076 109.936 184.424 110.137 183.617 110.137C183.075 110.137 182.596 110.032 182.182 109.822C181.767 109.608 181.441 109.312 181.204 108.934C180.972 108.555 180.855 108.147 180.855 107.71H182.694C182.703 108.047 182.781 108.3 182.927 108.469C183.077 108.637 183.321 108.722 183.658 108.722C184.178 108.722 184.438 108.487 184.438 108.018ZM189.551 110H187.609V102.604H189.551V110ZM187.521 100.689C187.521 100.389 187.616 100.143 187.808 99.9512C187.999 99.7598 188.254 99.6641 188.573 99.6641C188.892 99.6641 189.147 99.7598 189.339 99.9512C189.53 100.143 189.626 100.389 189.626 100.689C189.626 100.986 189.53 101.232 189.339 101.428C189.152 101.624 188.897 101.722 188.573 101.722C188.25 101.722 187.992 101.624 187.801 101.428C187.614 101.232 187.521 100.986 187.521 100.689ZM196.093 102.604L196.147 103.287C196.58 102.74 197.152 102.467 197.863 102.467C198.602 102.467 199.123 102.799 199.429 103.465C199.853 102.799 200.456 102.467 201.24 102.467C202.535 102.467 203.198 103.362 203.229 105.153V110H201.295V105.276C201.295 104.848 201.236 104.543 201.117 104.36C200.999 104.178 200.798 104.087 200.516 104.087C200.156 104.087 199.887 104.308 199.709 104.75L199.723 104.982V110H197.788V105.29C197.788 104.866 197.731 104.561 197.617 104.374C197.503 104.183 197.3 104.087 197.009 104.087C196.676 104.087 196.412 104.267 196.216 104.627V110H194.281V102.604H196.093ZM204.439 106.062C204.439 104.941 204.704 104.062 205.232 103.424C205.761 102.786 206.493 102.467 207.427 102.467C208.37 102.467 209.106 102.786 209.635 103.424C210.163 104.062 210.428 104.946 210.428 106.076V106.548C210.428 107.674 210.166 108.553 209.642 109.187C209.118 109.82 208.384 110.137 207.44 110.137C206.493 110.137 205.754 109.82 205.226 109.187C204.701 108.549 204.439 107.664 204.439 106.534V106.062ZM206.381 106.548C206.381 107.869 206.734 108.53 207.44 108.53C208.092 108.53 208.443 107.979 208.493 106.876L208.5 106.062C208.5 105.388 208.407 104.889 208.22 104.565C208.033 104.237 207.769 104.073 207.427 104.073C207.099 104.073 206.841 104.237 206.654 104.565C206.472 104.889 206.381 105.388 206.381 106.062V106.548ZM207.803 99.5H209.977L208.076 101.619H206.463L207.803 99.5ZM211.378 106.076C211.378 104.864 211.583 103.959 211.993 103.362C212.403 102.765 213 102.467 213.784 102.467C214.354 102.467 214.828 102.713 215.206 103.205V99.5H217.154V110H215.397L215.309 109.248C214.912 109.84 214.402 110.137 213.777 110.137C213.003 110.137 212.41 109.84 212 109.248C211.594 108.656 211.387 107.785 211.378 106.637V106.076ZM213.319 106.562C213.319 107.291 213.397 107.801 213.552 108.093C213.707 108.38 213.969 108.523 214.338 108.523C214.721 108.523 215.01 108.353 215.206 108.011V104.634C215.015 104.269 214.728 104.087 214.345 104.087C213.989 104.087 213.729 104.23 213.565 104.518C213.401 104.805 213.319 105.315 213.319 106.049V106.562ZM218.754 109.016C218.754 108.706 218.856 108.451 219.062 108.25C219.271 108.049 219.542 107.949 219.875 107.949C220.199 107.949 220.467 108.049 220.682 108.25C220.896 108.446 221.003 108.701 221.003 109.016C221.003 109.335 220.894 109.592 220.675 109.788C220.461 109.979 220.194 110.075 219.875 110.075C219.551 110.075 219.283 109.977 219.068 109.781C218.859 109.585 218.754 109.33 218.754 109.016ZM218.754 103.424C218.754 103.114 218.856 102.859 219.062 102.658C219.271 102.458 219.542 102.357 219.875 102.357C220.199 102.357 220.467 102.458 220.682 102.658C220.896 102.854 221.003 103.109 221.003 103.424C221.003 103.743 220.894 104 220.675 104.196C220.461 104.388 220.194 104.483 219.875 104.483C219.551 104.483 219.283 104.385 219.068 104.189C218.859 103.993 218.754 103.738 218.754 103.424ZM108.846 126.541C108.846 127.74 108.654 128.64 108.271 129.241C107.889 129.838 107.287 130.137 106.467 130.137C105.824 130.137 105.309 129.847 104.922 129.269L104.86 130H103.076V119.5H105.011V123.205C105.375 122.713 105.856 122.467 106.453 122.467C107.273 122.467 107.875 122.765 108.258 123.362C108.641 123.955 108.837 124.825 108.846 125.974V126.541ZM106.911 126.056C106.911 125.276 106.836 124.755 106.686 124.49C106.535 124.221 106.273 124.087 105.899 124.087C105.494 124.087 105.198 124.271 105.011 124.641V128.011C105.184 128.357 105.485 128.53 105.913 128.53C106.282 128.53 106.537 128.41 106.679 128.168C106.825 127.926 106.902 127.457 106.911 126.76V126.056ZM113.521 130C113.467 129.886 113.412 129.695 113.357 129.426C113.011 129.9 112.542 130.137 111.949 130.137C111.329 130.137 110.814 129.932 110.404 129.521C109.999 129.111 109.796 128.58 109.796 127.929C109.796 127.154 110.042 126.555 110.534 126.131C111.031 125.707 111.744 125.491 112.674 125.481H113.262V124.887C113.262 124.554 113.205 124.319 113.091 124.183C112.977 124.046 112.811 123.978 112.592 123.978C112.109 123.978 111.867 124.26 111.867 124.825H109.933C109.933 124.142 110.188 123.579 110.698 123.137C111.213 122.69 111.863 122.467 112.646 122.467C113.458 122.467 114.084 122.679 114.526 123.103C114.973 123.522 115.196 124.123 115.196 124.907V128.387C115.205 129.025 115.297 129.524 115.47 129.884V130H113.521ZM112.38 128.619C112.594 128.619 112.776 128.576 112.927 128.489C113.077 128.403 113.189 128.3 113.262 128.182V126.644H112.797C112.469 126.644 112.209 126.748 112.018 126.958C111.831 127.168 111.737 127.448 111.737 127.799C111.737 128.346 111.951 128.619 112.38 128.619ZM118.368 122.604L118.423 123.335C118.86 122.756 119.432 122.467 120.139 122.467C121.41 122.467 122.064 123.358 122.101 125.14V130H120.159V125.283C120.159 124.864 120.095 124.561 119.968 124.374C119.845 124.183 119.626 124.087 119.312 124.087C118.961 124.087 118.687 124.267 118.491 124.627V130H116.55V122.604H118.368ZM125.942 127.149L125.423 127.73V130H123.488V119.5H125.423V125.174L125.662 124.818L127.002 122.604H129.306L127.159 125.652L129.511 130H127.296L125.942 127.149ZM132.642 127.149L132.122 127.73V130H130.188V119.5H132.122V125.174L132.361 124.818L133.701 122.604H136.005L133.858 125.652L136.21 130H133.995L132.642 127.149ZM140.4 130C140.346 129.886 140.291 129.695 140.236 129.426C139.89 129.9 139.421 130.137 138.828 130.137C138.208 130.137 137.693 129.932 137.283 129.521C136.878 129.111 136.675 128.58 136.675 127.929C136.675 127.154 136.921 126.555 137.413 126.131C137.91 125.707 138.623 125.491 139.553 125.481H140.141V124.887C140.141 124.554 140.084 124.319 139.97 124.183C139.856 124.046 139.689 123.978 139.471 123.978C138.988 123.978 138.746 124.26 138.746 124.825H136.812C136.812 124.142 137.067 123.579 137.577 123.137C138.092 122.69 138.742 122.467 139.525 122.467C140.337 122.467 140.963 122.679 141.405 123.103C141.852 123.522 142.075 124.123 142.075 124.907V128.387C142.084 129.025 142.175 129.524 142.349 129.884V130H140.4ZM139.259 128.619C139.473 128.619 139.655 128.576 139.806 128.489C139.956 128.403 140.068 128.3 140.141 128.182V126.644H139.676C139.348 126.644 139.088 126.748 138.896 126.958C138.71 127.168 138.616 127.448 138.616 127.799C138.616 128.346 138.83 128.619 139.259 128.619ZM139.84 119.5H142.014L140.113 121.619H138.5L139.84 119.5ZM147.127 124.47L146.484 124.415C145.956 124.415 145.598 124.647 145.411 125.112V130H143.47V122.604H145.295L145.35 123.403C145.655 122.779 146.076 122.467 146.614 122.467C146.833 122.467 147.011 122.496 147.147 122.556L147.127 124.47ZM150.716 120.785V122.604H151.707V124.06H150.716V127.73C150.716 128.022 150.755 128.223 150.832 128.332C150.914 128.441 151.069 128.496 151.297 128.496C151.484 128.496 151.636 128.48 151.755 128.448L151.741 129.952C151.413 130.075 151.058 130.137 150.675 130.137C149.426 130.137 148.795 129.421 148.781 127.99V124.06H147.927V122.604H148.781V120.785H150.716ZM155.146 126.78L156.13 122.604H158.194L155.761 131.107C155.396 132.361 154.71 132.987 153.703 132.987C153.471 132.987 153.206 132.944 152.91 132.857V131.347L153.136 131.354C153.437 131.354 153.662 131.294 153.812 131.176C153.967 131.062 154.084 130.861 154.161 130.574L154.312 130.075L152.179 122.604H154.257L155.146 126.78ZM162.426 130C162.371 129.886 162.316 129.695 162.262 129.426C161.915 129.9 161.446 130.137 160.854 130.137C160.234 130.137 159.719 129.932 159.309 129.521C158.903 129.111 158.7 128.58 158.7 127.929C158.7 127.154 158.946 126.555 159.438 126.131C159.935 125.707 160.648 125.491 161.578 125.481H162.166V124.887C162.166 124.554 162.109 124.319 161.995 124.183C161.881 124.046 161.715 123.978 161.496 123.978C161.013 123.978 160.771 124.26 160.771 124.825H158.837C158.837 124.142 159.092 123.579 159.603 123.137C160.118 122.69 160.767 122.467 161.551 122.467C162.362 122.467 162.989 122.679 163.431 123.103C163.877 123.522 164.101 124.123 164.101 124.907V128.387C164.11 129.025 164.201 129.524 164.374 129.884V130H162.426ZM161.284 128.619C161.498 128.619 161.681 128.576 161.831 128.489C161.981 128.403 162.093 128.3 162.166 128.182V126.644H161.701C161.373 126.644 161.113 126.748 160.922 126.958C160.735 127.168 160.642 127.448 160.642 127.799C160.642 128.346 160.856 128.619 161.284 128.619ZM166.076 132.509L165.044 131.969L165.304 131.483C165.595 130.946 165.746 130.403 165.755 129.856V128.318H167.437L167.43 129.692C167.425 130.175 167.302 130.677 167.061 131.196C166.819 131.716 166.491 132.153 166.076 132.509ZM175.688 130C175.633 129.886 175.578 129.695 175.523 129.426C175.177 129.9 174.708 130.137 174.115 130.137C173.495 130.137 172.98 129.932 172.57 129.521C172.165 129.111 171.962 128.58 171.962 127.929C171.962 127.154 172.208 126.555 172.7 126.131C173.197 125.707 173.91 125.491 174.84 125.481H175.428V124.887C175.428 124.554 175.371 124.319 175.257 124.183C175.143 124.046 174.977 123.978 174.758 123.978C174.275 123.978 174.033 124.26 174.033 124.825H172.099C172.099 124.142 172.354 123.579 172.864 123.137C173.379 122.69 174.029 122.467 174.812 122.467C175.624 122.467 176.25 122.679 176.692 123.103C177.139 123.522 177.362 124.123 177.362 124.907V128.387C177.371 129.025 177.463 129.524 177.636 129.884V130H175.688ZM174.546 128.619C174.76 128.619 174.942 128.576 175.093 128.489C175.243 128.403 175.355 128.3 175.428 128.182V126.644H174.963C174.635 126.644 174.375 126.748 174.184 126.958C173.997 127.168 173.903 127.448 173.903 127.799C173.903 128.346 174.118 128.619 174.546 128.619ZM175.127 119.5H177.301L175.4 121.619H173.787L175.127 119.5ZM181.013 120.785V122.604H182.004V124.06H181.013V127.73C181.013 128.022 181.051 128.223 181.129 128.332C181.211 128.441 181.366 128.496 181.594 128.496C181.781 128.496 181.933 128.48 182.052 128.448L182.038 129.952C181.71 130.075 181.354 130.137 180.972 130.137C179.723 130.137 179.092 129.421 179.078 127.99V124.06H178.224V122.604H179.078V120.785H181.013ZM186.707 129.323C186.306 129.866 185.768 130.137 185.094 130.137C184.415 130.137 183.9 129.904 183.549 129.439C183.198 128.97 183.022 128.289 183.022 127.396V122.604H184.957V127.443C184.966 128.163 185.205 128.523 185.675 128.523C186.117 128.523 186.436 128.332 186.632 127.949V122.604H188.58V130H186.762L186.707 129.323ZM192.21 120.785V122.604H193.201V124.06H192.21V127.73C192.21 128.022 192.249 128.223 192.326 128.332C192.408 128.441 192.563 128.496 192.791 128.496C192.978 128.496 193.131 128.48 193.249 128.448L193.235 129.952C192.907 130.075 192.552 130.137 192.169 130.137C190.92 130.137 190.289 129.421 190.275 127.99V124.06H189.421V122.604H190.275V120.785H192.21ZM197.781 130C197.727 129.886 197.672 129.695 197.617 129.426C197.271 129.9 196.801 130.137 196.209 130.137C195.589 130.137 195.074 129.932 194.664 129.521C194.258 129.111 194.056 128.58 194.056 127.929C194.056 127.154 194.302 126.555 194.794 126.131C195.291 125.707 196.004 125.491 196.934 125.481H197.521V124.887C197.521 124.554 197.465 124.319 197.351 124.183C197.237 124.046 197.07 123.978 196.852 123.978C196.368 123.978 196.127 124.26 196.127 124.825H194.192C194.192 124.142 194.448 123.579 194.958 123.137C195.473 122.69 196.122 122.467 196.906 122.467C197.717 122.467 198.344 122.679 198.786 123.103C199.233 123.522 199.456 124.123 199.456 124.907V128.387C199.465 129.025 199.556 129.524 199.729 129.884V130H197.781ZM196.64 128.619C196.854 128.619 197.036 128.576 197.187 128.489C197.337 128.403 197.449 128.3 197.521 128.182V126.644H197.057C196.729 126.644 196.469 126.748 196.277 126.958C196.09 127.168 195.997 127.448 195.997 127.799C195.997 128.346 196.211 128.619 196.64 128.619ZM202.888 130H200.946V119.5H202.888V130ZM207.898 130C207.844 129.886 207.789 129.695 207.734 129.426C207.388 129.9 206.919 130.137 206.326 130.137C205.706 130.137 205.191 129.932 204.781 129.521C204.376 129.111 204.173 128.58 204.173 127.929C204.173 127.154 204.419 126.555 204.911 126.131C205.408 125.707 206.121 125.491 207.051 125.481H207.639V124.887C207.639 124.554 207.582 124.319 207.468 124.183C207.354 124.046 207.188 123.978 206.969 123.978C206.486 123.978 206.244 124.26 206.244 124.825H204.31C204.31 124.142 204.565 123.579 205.075 123.137C205.59 122.69 206.24 122.467 207.023 122.467C207.835 122.467 208.461 122.679 208.903 123.103C209.35 123.522 209.573 124.123 209.573 124.907V128.387C209.582 129.025 209.674 129.524 209.847 129.884V130H207.898ZM206.757 128.619C206.971 128.619 207.153 128.576 207.304 128.489C207.454 128.403 207.566 128.3 207.639 128.182V126.644H207.174C206.846 126.644 206.586 126.748 206.395 126.958C206.208 127.168 206.114 127.448 206.114 127.799C206.114 128.346 206.328 128.619 206.757 128.619ZM207.338 119.5H209.512L207.611 121.619H205.998L207.338 119.5ZM214.249 128.018C214.249 127.854 214.169 127.703 214.01 127.566C213.855 127.425 213.506 127.236 212.964 126.999C212.166 126.675 211.617 126.34 211.316 125.994C211.02 125.648 210.872 125.217 210.872 124.702C210.872 124.055 211.104 123.522 211.569 123.103C212.039 122.679 212.659 122.467 213.429 122.467C214.24 122.467 214.889 122.676 215.377 123.096C215.865 123.515 216.108 124.078 216.108 124.784H214.174C214.174 124.183 213.923 123.882 213.422 123.882C213.217 123.882 213.048 123.946 212.916 124.073C212.784 124.201 212.718 124.379 212.718 124.606C212.718 124.771 212.791 124.916 212.937 125.044C213.082 125.167 213.426 125.345 213.969 125.577C214.757 125.869 215.313 126.195 215.637 126.555C215.965 126.91 216.129 127.373 216.129 127.942C216.129 128.603 215.881 129.134 215.384 129.535C214.887 129.936 214.235 130.137 213.429 130.137C212.886 130.137 212.408 130.032 211.993 129.822C211.578 129.608 211.253 129.312 211.016 128.934C210.783 128.555 210.667 128.147 210.667 127.71H212.506C212.515 128.047 212.592 128.3 212.738 128.469C212.889 128.637 213.132 128.722 213.47 128.722C213.989 128.722 214.249 128.487 214.249 128.018Z" fill="white"/>
<path d="M158.545 -57.936L259.666 -57.936C262.731 -57.9315 265.741 -57.1289 268.394 -55.6087C271.047 -54.0886 273.251 -51.9043 274.783 -49.2749C276.315 -46.6454 277.122 -43.6633 277.123 -40.6274C277.124 -37.5916 276.32 -34.6088 274.79 -31.9781L224.214 54.7297L173.67 141.374C172.133 143.998 169.927 146.177 167.273 147.691C164.618 149.206 161.609 150.003 158.545 150.003C155.482 150.003 152.472 149.206 149.818 147.691C147.164 146.177 144.958 143.998 143.421 141.374L92.8769 54.6657L42.333 -32.0421C40.8032 -34.6728 39.9986 -37.6556 39.9999 -40.6915C40.0012 -43.7273 40.8084 -46.7094 42.3404 -49.3389C43.8725 -51.9683 46.0755 -54.1526 48.7288 -55.6728C51.382 -57.1929 54.3922 -57.9955 57.4574 -58L158.545 -57.936Z" fill="url(#paint1_linear_26_1100)" fill-opacity="0.49"/>
</g>
</g>
<defs>
<filter id="filter0_d_26_1100" x="0" y="0" width="329" height="177" filterUnits="userSpaceOnUse" color-interpolation-filters="sRGB">
<feFlood flood-opacity="0" result="BackgroundImageFix"/>
<feColorMatrix in="SourceAlpha" type="matrix" values="0 0 0 0 0 0 0 0 0 0 0 0 0 0 0 0 0 0 127 0" result="hardAlpha"/>
<feOffset dx="5" dy="5"/>
<feGaussianBlur stdDeviation="11"/>
<feComposite in2="hardAlpha" operator="out"/>
<feColorMatrix type="matrix" values="0 0 0 0 0.960784 0 0 0 0 0.490196 0 0 0 0 0.129412 0 0 0 0.2 0"/>
<feBlend mode="normal" in2="BackgroundImageFix" result="effect1_dropShadow_26_1100"/>
<feBlend mode="normal" in="SourceGraphic" in2="effect1_dropShadow_26_1100" result="shape"/>
</filter>
<linearGradient id="paint0_linear_26_1100" x1="159.5" y1="17" x2="159.5" y2="150" gradientUnits="userSpaceOnUse">
<stop stop-color="#F58C1F"/>
<stop offset="1" stop-color="#F57D21"/>
</linearGradient>
<linearGradient id="paint1_linear_26_1100" x1="157.868" y1="-72.5602" x2="157.868" y2="90.3753" gradientUnits="userSpaceOnUse">
<stop stop-color="white"/>
<stop offset="1" stop-color="white" stop-opacity="0"/>
</linearGradient>
<clipPath id="clip0_26_1100">
<rect x="17" y="17" width="285" height="133" rx="5" fill="white"/>
</clipPath>
</defs>
</svg>
