<svg width="329" height="177" viewBox="0 0 329 177" fill="none" xmlns="http://www.w3.org/2000/svg">
<g filter="url(#filter0_d_26_1098)">
<g clip-path="url(#clip0_26_1098)">
<rect x="17" y="17" width="285" height="133" rx="5" fill="url(#paint0_linear_26_1098)"/>
<path d="M152 43.5C151.18 43.5 150.5 42.82 150.5 42V36C150.5 35.18 151.18 34.5 152 34.5C152.82 34.5 153.5 35.18 153.5 36V42C153.5 42.82 152.82 43.5 152 43.5ZM167 43.5C166.18 43.5 165.5 42.82 165.5 42V36C165.5 35.18 166.18 34.5 167 34.5C167.82 34.5 168.5 35.18 168.5 36V42C168.5 42.82 167.82 43.5 167 43.5ZM159.5 60.18C160.54 60.18 161.3 59.56 161.3 58.58C161.3 57.58 160.54 57 159.5 57C158.46 57 157.7 57.58 157.7 58.58C157.7 59.56 158.46 60.18 159.5 60.18ZM159.5 66C160.758 66 161.78 65.168 161.78 64.14C161.78 63.114 160.758 62.28 159.5 62.28C158.24 62.28 157.22 63.114 157.22 64.14C157.22 65.168 158.24 66 159.5 66Z" fill="white"/>
<path d="M174.64 41C173.32 40.02 171.42 40.96 171.42 42.62V42.82C171.42 45.16 169.74 47.32 167.4 47.56C164.7 47.84 162.42 45.72 162.42 43.08V41C162.42 39.9 161.52 39 160.42 39H158.58C157.48 39 156.58 39.9 156.58 41V43.08C156.58 44.66 155.76 46.06 154.52 46.84C154.34 46.96 154.14 47.06 153.94 47.16C153.76 47.26 153.56 47.34 153.34 47.4C153.1 47.48 152.84 47.54 152.56 47.56C152.24 47.6 151.92 47.6 151.6 47.56C151.32 47.54 151.06 47.48 150.82 47.4C150.405 47.2619 150.009 47.0738 149.64 46.84C148.38 45.96 147.58 44.44 147.58 42.82V42.62C147.58 41.08 145.94 40.16 144.64 40.82C144.62 40.84 144.6 40.84 144.58 40.86C144.5 40.9 144.44 40.94 144.36 41C144.3 41.06 144.22 41.1 144.16 41.16C143.6 41.6 143.1 42.1 142.68 42.64C142.46 42.88 142.28 43.14 142.12 43.4C141.917 43.6925 141.736 44 141.58 44.32C141.54 44.36 141.52 44.38 141.52 44.42C141.4 44.66 141.28 44.9 141.2 45.16C141.14 45.26 141.12 45.34 141.08 45.44C140.96 45.74 140.88 46.04 140.8 46.34C140.72 46.62 140.66 46.92 140.62 47.22C140.547 47.7236 140.507 48.2313 140.5 48.74V66.26C140.5 68.8432 141.526 71.3206 143.353 73.1472C145.179 74.9738 147.657 76 150.24 76H168.76C170.039 76 171.306 75.7481 172.487 75.2586C173.669 74.7691 174.743 74.0517 175.647 73.1472C176.552 72.2428 177.269 71.1691 177.759 69.9873C178.248 68.8056 178.5 67.5391 178.5 66.26V48.74C178.5 45.56 176.98 42.78 174.64 41ZM159.5 68.5C156.4 68.5 154.5 66.96 154.5 64.48C154.5 63.12 155.2 61.94 156.42 61.24C155.54 60.62 154.96 59.7 154.96 58.44C154.96 55.84 157.04 54.5 159.5 54.5C161.96 54.5 164.02 55.84 164.02 58.44C164.02 59.7 163.46 60.62 162.56 61.24C163.8 61.94 164.5 63.12 164.5 64.48C164.5 66.96 162.58 68.5 159.5 68.5Z" fill="white"/>
<path d="M117.397 101.722H114.937V110H112.92V101.722H110.5V100.047H117.397V101.722ZM116.81 106.062C116.81 104.941 117.074 104.062 117.603 103.424C118.131 102.786 118.863 102.467 119.797 102.467C120.74 102.467 121.476 102.786 122.005 103.424C122.534 104.062 122.798 104.946 122.798 106.076V106.548C122.798 107.674 122.536 108.553 122.012 109.187C121.488 109.82 120.754 110.137 119.811 110.137C118.863 110.137 118.124 109.82 117.596 109.187C117.072 108.549 116.81 107.664 116.81 106.534V106.062ZM118.751 106.548C118.751 107.869 119.104 108.53 119.811 108.53C120.462 108.53 120.813 107.979 120.863 106.876L120.87 106.062C120.87 105.388 120.777 104.889 120.59 104.565C120.403 104.237 120.139 104.073 119.797 104.073C119.469 104.073 119.211 104.237 119.024 104.565C118.842 104.889 118.751 105.388 118.751 106.062V106.548ZM117.158 100.669C117.158 100.418 117.249 100.211 117.432 100.047C117.618 99.8783 117.844 99.7939 118.108 99.7939C118.373 99.7939 118.596 99.8783 118.778 100.047C118.965 100.211 119.059 100.418 119.059 100.669C119.059 100.915 118.965 101.122 118.778 101.291C118.596 101.455 118.373 101.537 118.108 101.537C117.844 101.537 117.618 101.455 117.432 101.291C117.249 101.122 117.158 100.915 117.158 100.669ZM120.501 100.669C120.501 100.423 120.592 100.218 120.774 100.054C120.961 99.8851 121.187 99.8008 121.451 99.8008C121.715 99.8008 121.939 99.8851 122.121 100.054C122.308 100.218 122.401 100.423 122.401 100.669C122.401 100.906 122.312 101.111 122.135 101.284C121.962 101.453 121.734 101.537 121.451 101.537C121.169 101.537 120.938 101.453 120.761 101.284C120.588 101.111 120.501 100.906 120.501 100.669ZM129.777 106.541C129.777 107.74 129.586 108.64 129.203 109.241C128.82 109.838 128.219 110.137 127.398 110.137C126.756 110.137 126.241 109.847 125.854 109.269L125.792 110H124.008V99.5H125.942V103.205C126.307 102.713 126.788 102.467 127.385 102.467C128.205 102.467 128.807 102.765 129.189 103.362C129.572 103.955 129.768 104.825 129.777 105.974V106.541ZM127.843 106.056C127.843 105.276 127.768 104.755 127.617 104.49C127.467 104.221 127.205 104.087 126.831 104.087C126.425 104.087 126.129 104.271 125.942 104.641V108.011C126.116 108.357 126.416 108.53 126.845 108.53C127.214 108.53 127.469 108.41 127.61 108.168C127.756 107.926 127.834 107.457 127.843 106.76V106.056ZM136.709 106.541C136.709 107.74 136.518 108.64 136.135 109.241C135.752 109.838 135.15 110.137 134.33 110.137C133.688 110.137 133.173 109.847 132.785 109.269L132.724 110H130.939V99.5H132.874V103.205C133.239 102.713 133.719 102.467 134.316 102.467C135.137 102.467 135.738 102.765 136.121 103.362C136.504 103.955 136.7 104.825 136.709 105.974V106.541ZM134.774 106.056C134.774 105.276 134.699 104.755 134.549 104.49C134.398 104.221 134.136 104.087 133.763 104.087C133.357 104.087 133.061 104.271 132.874 104.641V108.011C133.047 108.357 133.348 108.53 133.776 108.53C134.146 108.53 134.401 108.41 134.542 108.168C134.688 107.926 134.765 107.457 134.774 106.76V106.056ZM142.916 102.604L142.971 103.287C143.404 102.74 143.976 102.467 144.687 102.467C145.425 102.467 145.947 102.799 146.252 103.465C146.676 102.799 147.28 102.467 148.063 102.467C149.358 102.467 150.021 103.362 150.053 105.153V110H148.118V105.276C148.118 104.848 148.059 104.543 147.94 104.36C147.822 104.178 147.621 104.087 147.339 104.087C146.979 104.087 146.71 104.308 146.532 104.75L146.546 104.982V110H144.611V105.29C144.611 104.866 144.554 104.561 144.44 104.374C144.326 104.183 144.124 104.087 143.832 104.087C143.499 104.087 143.235 104.267 143.039 104.627V110H141.104V102.604H142.916ZM153.519 110H151.577V102.604H153.519V110ZM151.488 100.689C151.488 100.389 151.584 100.143 151.775 99.9512C151.967 99.7598 152.222 99.6641 152.541 99.6641C152.86 99.6641 153.115 99.7598 153.307 99.9512C153.498 100.143 153.594 100.389 153.594 100.689C153.594 100.986 153.498 101.232 153.307 101.428C153.12 101.624 152.865 101.722 152.541 101.722C152.217 101.722 151.96 101.624 151.769 101.428C151.582 101.232 151.488 100.986 151.488 100.689ZM156.786 102.604L156.841 103.335C157.278 102.756 157.85 102.467 158.557 102.467C159.828 102.467 160.482 103.358 160.519 105.14V110H158.577V105.283C158.577 104.864 158.513 104.561 158.386 104.374C158.263 104.183 158.044 104.087 157.729 104.087C157.379 104.087 157.105 104.267 156.909 104.627V110H154.968V102.604H156.786ZM164.155 100.785V102.604H165.146V104.06H164.155V107.73C164.155 108.022 164.194 108.223 164.271 108.332C164.354 108.441 164.508 108.496 164.736 108.496C164.923 108.496 165.076 108.48 165.194 108.448L165.181 109.952C164.853 110.075 164.497 110.137 164.114 110.137C162.866 110.137 162.234 109.421 162.221 107.99V104.06H161.366V102.604H162.221V100.785H164.155ZM175.25 110H169.385V108.633L172.078 105.208C172.42 104.734 172.671 104.319 172.83 103.964C172.994 103.604 173.076 103.26 173.076 102.932C173.076 102.49 172.999 102.143 172.844 101.893C172.693 101.642 172.475 101.517 172.188 101.517C171.873 101.517 171.622 101.662 171.436 101.954C171.253 102.246 171.162 102.656 171.162 103.185H169.221C169.221 102.574 169.346 102.016 169.597 101.51C169.852 101.004 170.207 100.612 170.663 100.334C171.123 100.051 171.643 99.9102 172.222 99.9102C173.11 99.9102 173.799 100.156 174.286 100.648C174.778 101.136 175.024 101.831 175.024 102.733C175.024 103.294 174.888 103.864 174.614 104.442C174.345 105.017 173.855 105.725 173.145 106.568L171.866 108.394H175.25V110ZM176.665 105.105L177.157 100.047H181.977V101.701H178.743L178.565 103.834C178.939 103.583 179.324 103.458 179.721 103.458C180.541 103.458 181.172 103.75 181.614 104.333C182.061 104.916 182.284 105.741 182.284 106.808C182.284 107.806 182.02 108.61 181.491 109.221C180.963 109.831 180.256 110.137 179.372 110.137C178.848 110.137 178.363 110.014 177.916 109.768C177.469 109.517 177.116 109.171 176.856 108.729C176.601 108.286 176.471 107.785 176.467 107.225H178.381C178.413 107.639 178.515 107.961 178.688 108.188C178.862 108.416 179.085 108.53 179.358 108.53C179.677 108.53 179.924 108.378 180.097 108.072C180.27 107.762 180.356 107.302 180.356 106.691C180.356 106.117 180.252 105.684 180.042 105.393C179.837 105.101 179.548 104.955 179.174 104.955C178.809 104.955 178.527 105.08 178.326 105.331L178.203 105.502L176.665 105.105ZM189.817 110.137C188.824 110.137 188.049 109.84 187.493 109.248C186.937 108.656 186.659 107.808 186.659 106.705V106.117C186.659 104.951 186.914 104.05 187.425 103.417C187.935 102.784 188.667 102.467 189.619 102.467C190.549 102.467 191.248 102.765 191.718 103.362C192.187 103.955 192.426 104.834 192.436 106.001V106.951H188.587C188.614 107.498 188.735 107.899 188.949 108.154C189.163 108.405 189.494 108.53 189.94 108.53C190.588 108.53 191.128 108.309 191.561 107.867L192.319 109.036C192.082 109.364 191.738 109.631 191.287 109.836C190.836 110.036 190.346 110.137 189.817 110.137ZM188.601 105.598H190.535V105.42C190.526 104.978 190.453 104.643 190.316 104.415C190.18 104.187 189.943 104.073 189.605 104.073C189.268 104.073 189.022 104.194 188.867 104.436C188.717 104.677 188.628 105.064 188.601 105.598ZM189.749 99.5H191.923L190.022 101.619H188.409L189.749 99.5ZM195.86 107.266L196.797 102.604H198.813L196.783 110H194.938L192.9 102.604H194.924L195.86 107.266ZM202.614 110.137C201.621 110.137 200.846 109.84 200.29 109.248C199.734 108.656 199.456 107.808 199.456 106.705V106.117C199.456 104.951 199.711 104.05 200.222 103.417C200.732 102.784 201.464 102.467 202.416 102.467C203.346 102.467 204.045 102.765 204.515 103.362C204.984 103.955 205.223 104.834 205.232 106.001V106.951H201.384C201.411 107.498 201.532 107.899 201.746 108.154C201.96 108.405 202.291 108.53 202.737 108.53C203.384 108.53 203.924 108.309 204.357 107.867L205.116 109.036C204.879 109.364 204.535 109.631 204.084 109.836C203.633 110.036 203.143 110.137 202.614 110.137ZM201.397 105.598H203.332V105.42C203.323 104.978 203.25 104.643 203.113 104.415C202.977 104.187 202.74 104.073 202.402 104.073C202.065 104.073 201.819 104.194 201.664 104.436C201.514 104.677 201.425 105.064 201.397 105.598ZM140.134 130C140.079 129.886 140.024 129.695 139.97 129.426C139.623 129.9 139.154 130.137 138.562 130.137C137.942 130.137 137.427 129.932 137.017 129.521C136.611 129.111 136.408 128.58 136.408 127.929C136.408 127.154 136.654 126.555 137.146 126.131C137.643 125.707 138.356 125.491 139.286 125.481H139.874V124.887C139.874 124.554 139.817 124.319 139.703 124.183C139.589 124.046 139.423 123.978 139.204 123.978C138.721 123.978 138.479 124.26 138.479 124.825H136.545C136.545 124.142 136.8 123.579 137.311 123.137C137.826 122.69 138.475 122.467 139.259 122.467C140.07 122.467 140.697 122.679 141.139 123.103C141.585 123.522 141.809 124.123 141.809 124.907V128.387C141.818 129.025 141.909 129.524 142.082 129.884V130H140.134ZM138.992 128.619C139.206 128.619 139.389 128.576 139.539 128.489C139.689 128.403 139.801 128.3 139.874 128.182V126.644H139.409C139.081 126.644 138.821 126.748 138.63 126.958C138.443 127.168 138.35 127.448 138.35 127.799C138.35 128.346 138.564 128.619 138.992 128.619ZM152.199 126.534C152.199 127.696 151.999 128.587 151.598 129.207C151.201 129.827 150.609 130.137 149.82 130.137C149.219 130.137 148.736 129.893 148.371 129.405V132.844H146.437V122.604H148.228L148.296 123.28C148.665 122.738 149.169 122.467 149.807 122.467C150.595 122.467 151.188 122.754 151.584 123.328C151.985 123.902 152.19 124.782 152.199 125.967V126.534ZM150.271 126.049C150.271 125.333 150.192 124.827 150.032 124.531C149.877 124.235 149.613 124.087 149.239 124.087C148.843 124.087 148.553 124.253 148.371 124.586V128.052C148.544 128.371 148.838 128.53 149.253 128.53C149.636 128.53 149.9 128.368 150.046 128.045C150.196 127.721 150.271 127.218 150.271 126.534V126.049ZM155.398 130H153.457V122.604H155.398V130ZM153.368 120.689C153.368 120.389 153.464 120.143 153.655 119.951C153.847 119.76 154.102 119.664 154.421 119.664C154.74 119.664 154.995 119.76 155.187 119.951C155.378 120.143 155.474 120.389 155.474 120.689C155.474 120.986 155.378 121.232 155.187 121.428C155 121.624 154.744 121.722 154.421 121.722C154.097 121.722 153.84 121.624 153.648 121.428C153.462 121.232 153.368 120.986 153.368 120.689ZM160.409 130C160.354 129.886 160.3 129.695 160.245 129.426C159.899 129.9 159.429 130.137 158.837 130.137C158.217 130.137 157.702 129.932 157.292 129.521C156.886 129.111 156.684 128.58 156.684 127.929C156.684 127.154 156.93 126.555 157.422 126.131C157.919 125.707 158.632 125.491 159.562 125.481H160.149V124.887C160.149 124.554 160.092 124.319 159.979 124.183C159.865 124.046 159.698 123.978 159.479 123.978C158.996 123.978 158.755 124.26 158.755 124.825H156.82C156.82 124.142 157.076 123.579 157.586 123.137C158.101 122.69 158.75 122.467 159.534 122.467C160.345 122.467 160.972 122.679 161.414 123.103C161.861 123.522 162.084 124.123 162.084 124.907V128.387C162.093 129.025 162.184 129.524 162.357 129.884V130H160.409ZM159.268 128.619C159.482 128.619 159.664 128.576 159.814 128.489C159.965 128.403 160.076 128.3 160.149 128.182V126.644H159.685C159.356 126.644 159.097 126.748 158.905 126.958C158.718 127.168 158.625 127.448 158.625 127.799C158.625 128.346 158.839 128.619 159.268 128.619ZM166.158 128.53C166.719 128.53 167.004 128.166 167.013 127.437H168.831C168.822 128.243 168.574 128.895 168.086 129.392C167.598 129.888 166.969 130.137 166.199 130.137C165.247 130.137 164.52 129.84 164.019 129.248C163.517 128.656 163.262 127.783 163.253 126.63V126.042C163.253 124.88 163.499 123.993 163.991 123.383C164.488 122.772 165.219 122.467 166.186 122.467C167.001 122.467 167.644 122.72 168.113 123.226C168.583 123.727 168.822 124.44 168.831 125.365H167.013C167.008 124.951 166.94 124.632 166.808 124.408C166.675 124.185 166.457 124.073 166.151 124.073C165.814 124.073 165.573 124.194 165.427 124.436C165.281 124.673 165.203 125.135 165.194 125.823V126.575C165.194 127.177 165.224 127.598 165.283 127.84C165.342 128.077 165.44 128.252 165.577 128.366C165.714 128.476 165.908 128.53 166.158 128.53ZM169.699 126.062C169.699 124.941 169.964 124.062 170.492 123.424C171.021 122.786 171.752 122.467 172.687 122.467C173.63 122.467 174.366 122.786 174.895 123.424C175.423 124.062 175.688 124.946 175.688 126.076V126.548C175.688 127.674 175.425 128.553 174.901 129.187C174.377 129.82 173.644 130.137 172.7 130.137C171.752 130.137 171.014 129.82 170.485 129.187C169.961 128.549 169.699 127.664 169.699 126.534V126.062ZM171.641 126.548C171.641 127.869 171.994 128.53 172.7 128.53C173.352 128.53 173.703 127.979 173.753 126.876L173.76 126.062C173.76 125.388 173.666 124.889 173.479 124.565C173.293 124.237 173.028 124.073 172.687 124.073C172.358 124.073 172.101 124.237 171.914 124.565C171.732 124.889 171.641 125.388 171.641 126.062V126.548ZM178.668 122.604L178.723 123.335C179.16 122.756 179.732 122.467 180.438 122.467C181.71 122.467 182.364 123.358 182.4 125.14V130H180.459V125.283C180.459 124.864 180.395 124.561 180.268 124.374C180.145 124.183 179.926 124.087 179.611 124.087C179.26 124.087 178.987 124.267 178.791 124.627V130H176.85V122.604H178.668Z" fill="white"/>
<path d="M158.545 -57.936L259.666 -57.936C262.731 -57.9315 265.741 -57.1289 268.394 -55.6087C271.047 -54.0886 273.251 -51.9043 274.783 -49.2749C276.315 -46.6454 277.122 -43.6633 277.123 -40.6274C277.124 -37.5916 276.32 -34.6088 274.79 -31.9781L224.214 54.7297L173.67 141.374C172.133 143.998 169.927 146.177 167.273 147.691C164.618 149.206 161.609 150.003 158.545 150.003C155.482 150.003 152.472 149.206 149.818 147.691C147.164 146.177 144.958 143.998 143.421 141.374L92.8769 54.6657L42.333 -32.0421C40.8032 -34.6728 39.9986 -37.6556 39.9999 -40.6915C40.0012 -43.7273 40.8084 -46.7094 42.3404 -49.3389C43.8725 -51.9683 46.0755 -54.1526 48.7288 -55.6728C51.382 -57.1929 54.3922 -57.9955 57.4574 -58L158.545 -57.936Z" fill="url(#paint1_linear_26_1098)" fill-opacity="0.49"/>
</g>
</g>
<defs>
<filter id="filter0_d_26_1098" x="0" y="0" width="329" height="177" filterUnits="userSpaceOnUse" color-interpolation-filters="sRGB">
<feFlood flood-opacity="0" result="BackgroundImageFix"/>
<feColorMatrix in="SourceAlpha" type="matrix" values="0 0 0 0 0 0 0 0 0 0 0 0 0 0 0 0 0 0 127 0" result="hardAlpha"/>
<feOffset dx="5" dy="5"/>
<feGaussianBlur stdDeviation="11"/>
<feComposite in2="hardAlpha" operator="out"/>
<feColorMatrix type="matrix" values="0 0 0 0 0.960784 0 0 0 0 0.490196 0 0 0 0 0.129412 0 0 0 0.2 0"/>
<feBlend mode="normal" in2="BackgroundImageFix" result="effect1_dropShadow_26_1098"/>
<feBlend mode="normal" in="SourceGraphic" in2="effect1_dropShadow_26_1098" result="shape"/>
</filter>
<linearGradient id="paint0_linear_26_1098" x1="159.5" y1="17" x2="159.5" y2="150" gradientUnits="userSpaceOnUse">
<stop stop-color="#F58C1F"/>
<stop offset="1" stop-color="#F57D21"/>
</linearGradient>
<linearGradient id="paint1_linear_26_1098" x1="157.868" y1="-72.5602" x2="157.868" y2="90.3753" gradientUnits="userSpaceOnUse">
<stop stop-color="white"/>
<stop offset="1" stop-color="white" stop-opacity="0"/>
</linearGradient>
<clipPath id="clip0_26_1098">
<rect x="17" y="17" width="285" height="133" rx="5" fill="white"/>
</clipPath>
</defs>
</svg>
