<svg width="50" height="50" viewBox="0 0 50 50" fill="none" xmlns="http://www.w3.org/2000/svg">
<path d="M48.8997 21.8554L45.5238 17.8965C44.8987 17.1448 44.3735 15.7417 44.3735 14.7394V10.4798C44.3735 7.82385 42.198 5.64395 39.5473 5.64395H35.2963C34.296 5.64395 32.8707 5.11777 32.1205 4.49136L28.1695 1.10874C26.4441 -0.369581 23.6184 -0.369581 21.8929 1.10874L17.8919 4.49136C17.1418 5.11777 15.7414 5.64395 14.7412 5.64395H10.4151C7.76443 5.64395 5.58889 7.82385 5.58889 10.4798V14.7394C5.58889 15.7166 5.08876 17.1198 4.46361 17.8715L1.08777 21.8554C-0.36259 23.6094 -0.36259 26.4157 1.08777 28.1195L4.46361 32.1035C5.08876 32.8301 5.58889 34.2583 5.58889 35.2355V39.5202C5.58889 42.1761 7.76443 44.3561 10.4151 44.3561H14.7662C15.7414 44.3561 17.1668 44.8822 17.917 45.5086L21.8679 48.8913C23.5934 50.3696 26.4191 50.3696 28.1445 48.8913L32.0955 45.5086C32.8457 44.8822 34.246 44.3561 35.2463 44.3561H39.4973C42.148 44.3561 44.3235 42.1761 44.3235 39.5202V35.2606C44.3235 34.2583 44.8486 32.8552 45.4738 32.1035L48.8496 28.1446C50.375 26.4407 50.375 23.6094 48.8997 21.8554ZM23.1182 15.3157C23.1182 14.2884 23.9685 13.4365 24.9937 13.4365C26.019 13.4365 26.8692 14.2884 26.8692 15.3157V27.4179C26.8692 28.4453 26.019 29.2972 24.9937 29.2972C23.9685 29.2972 23.1182 28.4453 23.1182 27.4179V15.3157ZM24.9937 37.215C23.6184 37.215 22.4931 36.0874 22.4931 34.7093C22.4931 33.3312 23.5934 32.2037 24.9937 32.2037C26.3691 32.2037 27.4943 33.3312 27.4943 34.7093C27.4943 36.0874 26.3941 37.215 24.9937 37.215Z" fill="url(#paint0_linear_514_440)"/>
<defs>
<linearGradient id="paint0_linear_514_440" x1="25" y1="0" x2="25" y2="50" gradientUnits="userSpaceOnUse">
<stop stop-color="#F58C1F"/>
<stop offset="1" stop-color="#F57D21"/>
</linearGradient>
</defs>
</svg>
