<svg width="112" height="118" viewBox="0 0 112 118" fill="none" xmlns="http://www.w3.org/2000/svg">
<path fill-rule="evenodd" clip-rule="evenodd" d="M69.376 95.7169C85.9816 90.0897 97.9328 74.3744 97.9328 55.8677C97.9328 32.6358 79.0996 13.8026 55.8677 13.8026C32.6358 13.8026 13.8026 32.6358 13.8026 55.8677C13.8026 74.1511 25.4672 89.7101 41.7604 95.5088C40.0165 98.1253 39 101.268 39 104.648C39 106.284 39.2378 107.863 39.6808 109.354C16.7191 102.415 0 81.0937 0 55.8677C0 25.0128 25.0128 0 55.8677 0C86.7225 0 111.735 25.0128 111.735 55.8677C111.735 81.3886 94.6231 102.913 71.2467 109.592C71.7362 108.031 72 106.371 72 104.648C72 101.357 71.0364 98.2912 69.376 95.7169Z" fill="url(#paint0_linear_465_845)"/>
<path d="M58.0568 116.426H53.6193V99.0508L49.2912 100.723V97.0352L57.5881 93.6445H58.0568V116.426Z" fill="url(#paint1_linear_465_845)"/>
<g clip-path="url(#clip0_465_845)">
<path d="M39.2479 64.3661H38.6953V66.7247H39.3916C39.4784 66.7315 39.5657 66.7198 39.6477 66.6905C39.7296 66.6612 39.8043 66.6149 39.8668 66.5547C39.9864 66.3832 40.0412 66.1754 40.0216 65.9678V65.2986C40.0492 65.0417 39.9847 64.7833 39.8392 64.5691C39.7605 64.496 39.6672 64.4401 39.5653 64.4051C39.4635 64.3702 39.3553 64.3569 39.2479 64.3661V64.3661Z" fill="url(#paint2_linear_465_845)"/>
<path d="M50.7166 55.8516H32.3451C31.9909 55.853 31.6516 55.9933 31.4011 56.2419C31.1506 56.4906 31.0093 56.8273 31.0078 57.1789V70.6694C31.0085 71.0215 31.1496 71.3589 31.4001 71.6081C31.6507 71.8574 31.9904 71.998 32.3451 71.9995H50.7166C51.0715 71.9988 51.4116 71.8583 51.6624 71.6089C51.9131 71.3596 52.0539 71.0217 52.0539 70.6694V57.1789C52.0531 56.8271 51.912 56.4899 51.6614 56.2411C51.4107 55.9924 51.071 55.8523 50.7166 55.8516V55.8516ZM41.2559 65.9989C41.2844 66.2458 41.2562 66.496 41.1734 66.7306C41.0905 66.9651 40.9552 67.1781 40.7776 67.3533C40.6 67.5285 40.3847 67.6616 40.1479 67.7424C39.911 67.8232 39.6588 67.8497 39.4102 67.8199H37.4982V60.1409H39.3329C39.9601 60.1409 40.416 60.2835 40.7144 60.5742C40.871 60.7573 40.9897 60.9693 41.0636 61.198C41.1376 61.4267 41.1654 61.6677 41.1454 61.907V62.2142C41.159 62.5467 41.0927 62.8776 40.952 63.1796C40.8288 63.4278 40.6186 63.6229 40.3607 63.7281V63.75C40.9667 63.953 41.2688 64.4868 41.267 65.3516L41.2559 65.9989ZM45.4557 66.7229V67.8199H41.9412V66.9972C41.9318 66.5132 42.026 66.0327 42.2175 65.5875C42.4596 65.1049 42.7808 64.6656 43.168 64.2875C43.5318 63.9241 43.8458 63.5147 44.1019 63.0699C44.2725 62.7447 44.3616 62.3834 44.3616 62.0167C44.3855 61.7769 44.3292 61.536 44.2013 61.3311C44.1432 61.2654 44.0706 61.2138 43.9891 61.1805C43.9076 61.1472 43.8195 61.1331 43.7316 61.1391C43.3116 61.1391 43.1016 61.3914 43.1016 61.8961V62.7188H41.9522V61.9729C41.9168 61.4543 42.0829 60.942 42.4164 60.5413C42.7907 60.2192 43.2694 60.0419 43.7648 60.0419C44.2601 60.0419 44.7388 60.2192 45.1131 60.5413C45.4466 60.942 45.6127 61.4543 45.5773 61.9729C45.5743 62.4498 45.4589 62.9194 45.2402 63.3441C44.9269 63.9083 44.5343 64.4254 44.0742 64.8799C43.7914 65.1561 43.5462 65.4677 43.3448 65.8069C43.2203 66.042 43.1558 66.3037 43.1569 66.5693V66.7339L45.4557 66.7229Z" fill="url(#paint3_linear_465_845)"/>
<path d="M39.7293 63.0798C39.8676 62.9018 39.9328 62.6783 39.9117 62.4545V62.0267C39.9301 61.8148 39.8777 61.6027 39.7625 61.4233C39.7048 61.3574 39.6321 61.306 39.5504 61.2736C39.4687 61.2412 39.3804 61.2286 39.2928 61.2368H38.707V63.2663H39.1823C39.2814 63.2737 39.3811 63.261 39.4751 63.229C39.5692 63.1969 39.6557 63.1462 39.7293 63.0798V63.0798Z" fill="url(#paint4_linear_465_845)"/>
<path d="M79.5077 55.8516H56.2761C55.8803 55.8523 55.501 56.0085 55.2209 56.286C54.9408 56.5635 54.7827 56.9397 54.7812 57.3325V70.5158C54.7827 70.9089 54.9407 71.2854 55.2207 71.5633C55.5007 71.8413 55.8801 71.9981 56.2761 71.9995H79.5077C79.9034 71.998 80.2826 71.8412 80.5621 71.5632C80.8417 71.2852 80.999 70.9086 80.9998 70.5158V57.3325C80.9983 56.9402 80.8406 56.5643 80.5611 56.2869C80.2817 56.0095 79.903 55.853 79.5077 55.8516V55.8516ZM64.5873 65.8672C64.6232 66.379 64.4611 66.8851 64.1342 67.2824C63.9541 67.4526 63.7401 67.5836 63.506 67.6667C63.2718 67.7499 63.0227 67.7833 62.7747 67.7651H60.918V60.086H62.7747C63.0228 60.067 63.2721 60.1002 63.5063 60.1834C63.7406 60.2665 63.9545 60.3978 64.1342 60.5687C64.4621 60.9654 64.6243 61.4719 64.5873 61.9838V65.8672ZM68.3229 67.7651H67.1072V61.907H65.8362V61.0514C66.1151 61.0577 66.3938 61.0283 66.6651 60.9636C66.8564 60.9142 67.0303 60.8136 67.168 60.6729C67.3138 60.4991 67.4262 60.3002 67.4995 60.086H68.3285L68.3229 67.7651ZM74.8658 67.7651H73.7164V61.9509H73.6943L72.8101 67.7651H71.7933L70.9091 61.9509H70.887V67.7651H69.826V60.086H71.5612L72.3349 65.571H72.357L73.1306 60.086H74.8658V67.7651Z" fill="url(#paint5_linear_465_845)"/>
<path d="M62.7537 61.1848H62.1348V66.6699H62.7537C62.8384 66.6748 62.9231 66.6617 63.0022 66.6314C63.0813 66.6011 63.153 66.5544 63.2124 66.4943C63.3332 66.3295 63.3901 66.127 63.3726 65.9239V61.9308C63.3903 61.7277 63.3334 61.5251 63.2124 61.3603C63.1533 61.2999 63.0817 61.2528 63.0025 61.2225C62.9233 61.1922 62.8384 61.1793 62.7537 61.1848V61.1848Z" fill="url(#paint6_linear_465_845)"/>
<path d="M32.1771 53.1452H46.0917C46.4035 53.1438 46.702 53.0202 46.9224 52.8014C47.1429 52.5826 47.2673 52.2863 47.2688 51.9769V38.1656C47.2673 37.8564 47.1428 37.5604 46.9223 37.342C46.7018 37.1237 46.4032 37.0007 46.0917 37H32.1771C31.8656 37.0007 31.567 37.1237 31.3465 37.342C31.126 37.5604 31.0015 37.8564 31 38.1656V51.9851C31.0036 52.2931 31.1291 52.5873 31.3493 52.8043C31.5695 53.0214 31.8668 53.1438 32.1771 53.1452V53.1452ZM40.3501 42.1971C40.6291 42.2048 40.9079 42.1753 41.179 42.1093C41.3714 42.0627 41.5461 41.9617 41.6819 41.8186C41.8289 41.6456 41.9414 41.4464 42.0135 41.2317H42.8424V48.9107H41.6266V43.0527H40.3557L40.3501 42.1971ZM35.4319 41.2317H37.2887C37.5367 41.2129 37.786 41.2461 38.0202 41.3293C38.2544 41.4125 38.4683 41.5437 38.6481 41.7144C38.975 42.1117 39.1371 42.6178 39.1012 43.1295V47.0129C39.1382 47.5248 38.976 48.0313 38.6481 48.4281C38.4687 48.5993 38.2549 48.7309 38.0206 48.8141C37.7862 48.8973 37.5368 48.9303 37.2887 48.9107H35.4319V41.2317Z" fill="url(#paint7_linear_465_845)"/>
<path d="M37.8863 47.0682V43.0751C37.9061 42.8718 37.8489 42.6685 37.726 42.5047C37.6666 42.4446 37.595 42.3979 37.5159 42.3676C37.4368 42.3373 37.352 42.3242 37.2674 42.3291H36.6484V47.8142H37.2674C37.3521 47.8196 37.4369 47.8068 37.5161 47.7765C37.5953 47.7462 37.667 47.6991 37.726 47.6386C37.8489 47.4748 37.9061 47.2715 37.8863 47.0682V47.0682Z" fill="url(#paint8_linear_465_845)"/>
<path d="M56.4917 47.1229V43.1298C56.5115 42.9265 56.4544 42.7232 56.3315 42.5593C56.2721 42.4993 56.2004 42.4526 56.1213 42.4223C56.0422 42.392 55.9575 42.3789 55.8728 42.3838H55.2539V47.8689H55.8728C55.9575 47.8743 56.0424 47.8615 56.1216 47.8312C56.2008 47.8009 56.2724 47.7538 56.3315 47.6933C56.4544 47.5295 56.5115 47.3262 56.4917 47.1229V47.1229Z" fill="url(#paint9_linear_465_845)"/>
<path d="M51.1263 53.1452H65.041C65.3527 53.1438 65.6512 53.0202 65.8717 52.8014C66.0921 52.5826 66.2166 52.2863 66.218 51.9769V38.1656C66.2166 37.8564 66.092 37.5604 65.8715 37.342C65.651 37.1237 65.3524 37.0007 65.041 37H51.1263C50.8148 37.0007 50.5162 37.1237 50.2957 37.342C50.0752 37.5604 49.9507 37.8564 49.9492 38.1656V51.9851C49.9528 52.2931 50.0783 52.5873 50.2985 52.8043C50.5187 53.0214 50.816 53.1438 51.1263 53.1452V53.1452ZM58.5036 48.1319C58.4945 47.6479 58.5887 47.1675 58.7799 46.7222C59.0234 46.2405 59.3445 45.8014 59.7304 45.4223C60.0955 45.0599 60.4096 44.6503 60.6643 44.2046C60.8356 43.8796 60.9247 43.5182 60.924 43.1515C60.9479 42.9117 60.8916 42.6707 60.7638 42.4658C60.7053 42.4006 60.6326 42.3494 60.5512 42.3161C60.4698 42.2829 60.3819 42.2684 60.2941 42.2739C59.8741 42.2739 59.6641 42.5262 59.6641 43.0308V43.8536H58.5146V43.1076C58.4804 42.5892 58.6464 42.0773 58.9789 41.676C59.3531 41.3539 59.8319 41.1766 60.3272 41.1766C60.8226 41.1766 61.3013 41.3539 61.6756 41.676C62.0081 42.0773 62.174 42.5892 62.1398 43.1076C62.1375 43.5846 62.022 44.0544 61.8027 44.4788C61.4907 45.0439 61.098 45.5612 60.6367 46.0147C60.3551 46.2918 60.11 46.6033 59.9072 46.9416C59.7836 47.177 59.7191 47.4386 59.7193 47.704V47.8686H62.0292V48.9656H58.5146L58.5036 48.1319ZM54.033 41.2893H55.8898C56.1378 41.2705 56.387 41.3037 56.6213 41.3869C56.8555 41.4701 57.0695 41.6013 57.2492 41.772C57.5762 42.1693 57.7382 42.6754 57.7023 43.1871V47.0705C57.7393 47.5824 57.5772 48.0889 57.2492 48.4857C57.0699 48.6569 56.856 48.7885 56.6216 48.8717C56.3873 48.9549 56.1379 48.9879 55.8898 48.9683H54.033V41.2893Z" fill="url(#paint10_linear_465_845)"/>
<path d="M79.9887 37H69.9644C69.6974 37.0007 69.4414 37.1059 69.2521 37.2928C69.0627 37.4797 68.9553 37.7332 68.9531 37.9983V52.136C68.9539 52.4019 69.0606 52.6568 69.2501 52.8449C69.4396 53.033 69.6964 53.139 69.9644 53.1397H79.9887C80.2567 53.139 80.5135 53.033 80.703 52.8449C80.8925 52.6568 80.9993 52.4019 81 52.136V37.9983C80.9978 37.7332 80.8904 37.4797 80.701 37.2928C80.5117 37.1059 80.2557 37.0007 79.9887 37V37ZM76.7891 47.0486C76.8245 47.5671 76.6584 48.0795 76.3249 48.4802C75.9507 48.8022 75.4719 48.9795 74.9766 48.9795C74.4812 48.9795 74.0025 48.8022 73.6282 48.4802C73.2947 48.0795 73.1286 47.5671 73.164 47.0486V41.1769H74.3797V47.1226C74.36 47.3259 74.4171 47.5293 74.54 47.6931C74.6656 47.8062 74.8291 47.8689 74.9987 47.8689C75.1682 47.8689 75.3318 47.8062 75.4573 47.6931C75.5784 47.5284 75.6353 47.3257 75.6176 47.1226V41.1769H76.7891V47.0486Z" fill="url(#paint11_linear_465_845)"/>
</g>
<defs>
<linearGradient id="paint0_linear_465_845" x1="55.8677" y1="0" x2="55.8677" y2="109.592" gradientUnits="userSpaceOnUse">
<stop stop-color="#F58C1F"/>
<stop offset="1" stop-color="#F57D21"/>
</linearGradient>
<linearGradient id="paint1_linear_465_845" x1="54.9318" y1="90.4258" x2="54.9318" y2="117.736" gradientUnits="userSpaceOnUse">
<stop stop-color="#F58C1F"/>
<stop offset="1" stop-color="#F57D21"/>
</linearGradient>
<linearGradient id="paint2_linear_465_845" x1="39.3616" y1="64.3633" x2="39.3616" y2="66.7266" gradientUnits="userSpaceOnUse">
<stop stop-color="#F58C1F"/>
<stop offset="1" stop-color="#F57D21"/>
</linearGradient>
<linearGradient id="paint3_linear_465_845" x1="41.5308" y1="55.8516" x2="41.5308" y2="71.9995" gradientUnits="userSpaceOnUse">
<stop stop-color="#F58C1F"/>
<stop offset="1" stop-color="#F57D21"/>
</linearGradient>
<linearGradient id="paint4_linear_465_845" x1="39.3113" y1="61.2344" x2="39.3113" y2="63.2684" gradientUnits="userSpaceOnUse">
<stop stop-color="#F58C1F"/>
<stop offset="1" stop-color="#F57D21"/>
</linearGradient>
<linearGradient id="paint5_linear_465_845" x1="67.8905" y1="55.8516" x2="67.8905" y2="71.9995" gradientUnits="userSpaceOnUse">
<stop stop-color="#F58C1F"/>
<stop offset="1" stop-color="#F57D21"/>
</linearGradient>
<linearGradient id="paint6_linear_465_845" x1="62.7553" y1="61.1836" x2="62.7553" y2="66.6709" gradientUnits="userSpaceOnUse">
<stop stop-color="#F58C1F"/>
<stop offset="1" stop-color="#F57D21"/>
</linearGradient>
<linearGradient id="paint7_linear_465_845" x1="39.1344" y1="37" x2="39.1344" y2="53.1452" gradientUnits="userSpaceOnUse">
<stop stop-color="#F58C1F"/>
<stop offset="1" stop-color="#F57D21"/>
</linearGradient>
<linearGradient id="paint8_linear_465_845" x1="37.2693" y1="42.3281" x2="37.2693" y2="47.8154" gradientUnits="userSpaceOnUse">
<stop stop-color="#F58C1F"/>
<stop offset="1" stop-color="#F57D21"/>
</linearGradient>
<linearGradient id="paint9_linear_465_845" x1="55.8747" y1="42.3828" x2="55.8747" y2="47.8701" gradientUnits="userSpaceOnUse">
<stop stop-color="#F58C1F"/>
<stop offset="1" stop-color="#F57D21"/>
</linearGradient>
<linearGradient id="paint10_linear_465_845" x1="58.0836" y1="37" x2="58.0836" y2="53.1452" gradientUnits="userSpaceOnUse">
<stop stop-color="#F58C1F"/>
<stop offset="1" stop-color="#F57D21"/>
</linearGradient>
<linearGradient id="paint11_linear_465_845" x1="74.9766" y1="37" x2="74.9766" y2="53.1397" gradientUnits="userSpaceOnUse">
<stop stop-color="#F58C1F"/>
<stop offset="1" stop-color="#F57D21"/>
</linearGradient>
<clipPath id="clip0_465_845">
<rect width="50" height="35" fill="white" transform="translate(31 37)"/>
</clipPath>
</defs>
</svg>
