<svg width="112" height="118" viewBox="0 0 112 118" fill="none" xmlns="http://www.w3.org/2000/svg">
<path fill-rule="evenodd" clip-rule="evenodd" d="M69.376 95.7169C85.9816 90.0897 97.9328 74.3744 97.9328 55.8677C97.9328 32.6358 79.0996 13.8026 55.8677 13.8026C32.6358 13.8026 13.8026 32.6358 13.8026 55.8677C13.8026 74.1511 25.4672 89.7101 41.7604 95.5088C40.0165 98.1253 39 101.268 39 104.648C39 106.284 39.2378 107.863 39.6808 109.354C16.7191 102.415 0 81.0937 0 55.8677C0 25.0128 25.0128 0 55.8677 0C86.7225 0 111.735 25.0128 111.735 55.8677C111.735 81.3886 94.6231 102.913 71.2467 109.592C71.7362 108.031 72 106.371 72 104.648C72 101.357 71.0364 98.2912 69.376 95.7169Z" fill="url(#paint0_linear_465_846)"/>
<path d="M61.7287 116.426H48.3225V113.301L54.4787 105.473C55.26 104.389 55.8329 103.441 56.1975 102.629C56.5725 101.806 56.76 101.02 56.76 100.27C56.76 99.2591 56.5829 98.4674 56.2287 97.8945C55.885 97.3216 55.385 97.0352 54.7287 97.0352C54.01 97.0352 53.4371 97.3685 53.01 98.0352C52.5933 98.7018 52.385 99.6393 52.385 100.848H47.9475C47.9475 99.4518 48.2339 98.1758 48.8068 97.0195C49.3902 95.8633 50.2027 94.9674 51.2443 94.332C52.2964 93.6862 53.4839 93.3633 54.8068 93.3633C56.8381 93.3633 58.411 93.9258 59.5256 95.0508C60.6506 96.1654 61.2131 97.7539 61.2131 99.8164C61.2131 101.098 60.9006 102.4 60.2756 103.723C59.661 105.035 58.5412 106.655 56.9162 108.582L53.9943 112.754H61.7287V116.426Z" fill="url(#paint1_linear_465_846)"/>
<path d="M65.1042 38.822V35.832C65.1042 35.0462 64.4525 34.3945 63.6667 34.3945C62.8808 34.3945 62.2292 35.0462 62.2292 35.832V38.707H49.7708V35.832C49.7708 35.0462 49.1192 34.3945 48.3333 34.3945C47.5475 34.3945 46.8958 35.0462 46.8958 35.832V38.822C41.7208 39.3012 39.21 42.387 38.8267 46.9679C38.7883 47.5237 39.2483 47.9837 39.785 47.9837H72.215C72.7708 47.9837 73.2308 47.5045 73.1733 46.9679C72.79 42.387 70.2792 39.3012 65.1042 38.822V38.822ZM71.3333 50.8587H40.6667C39.6125 50.8587 38.75 51.7212 38.75 52.7754V64.582C38.75 70.332 41.625 74.1654 48.3333 74.1654H63.6667C70.375 74.1654 73.25 70.332 73.25 64.582V52.7754C73.25 51.7212 72.3875 50.8587 71.3333 50.8587ZM50.6525 66.9012C50.5567 66.9779 50.4608 67.0737 50.365 67.1312C50.25 67.2079 50.135 67.2654 50.02 67.3037C49.905 67.3612 49.79 67.3995 49.675 67.4187C49.5408 67.4379 49.4258 67.457 49.2917 67.457C49.0425 67.457 48.7933 67.3995 48.5633 67.3037C48.3142 67.2079 48.1225 67.0737 47.9308 66.9012C47.5858 66.537 47.375 66.0387 47.375 65.5404C47.375 65.042 47.5858 64.5437 47.9308 64.1795C48.1225 64.007 48.3142 63.8729 48.5633 63.777C48.9083 63.6237 49.2917 63.5854 49.675 63.662C49.79 63.6812 49.905 63.7195 50.02 63.777C50.135 63.8154 50.25 63.8729 50.365 63.9495L50.6525 64.1795C50.9975 64.5437 51.2083 65.042 51.2083 65.5404C51.2083 66.0387 50.9975 66.537 50.6525 66.9012ZM50.6525 60.1929C50.2883 60.5379 49.79 60.7487 49.2917 60.7487C48.7933 60.7487 48.295 60.5379 47.9308 60.1929C47.5858 59.8287 47.375 59.3304 47.375 58.832C47.375 58.3337 47.5858 57.8354 47.9308 57.4712C48.4675 56.9345 49.3108 56.762 50.02 57.0687C50.2692 57.1645 50.48 57.2987 50.6525 57.4712C50.9975 57.8354 51.2083 58.3337 51.2083 58.832C51.2083 59.3304 50.9975 59.8287 50.6525 60.1929ZM57.3608 66.9012C56.9967 67.2462 56.4983 67.457 56 67.457C55.5017 67.457 55.0033 67.2462 54.6392 66.9012C54.2942 66.537 54.0833 66.0387 54.0833 65.5404C54.0833 65.042 54.2942 64.5437 54.6392 64.1795C55.3483 63.4704 56.6517 63.4704 57.3608 64.1795C57.7058 64.5437 57.9167 65.042 57.9167 65.5404C57.9167 66.0387 57.7058 66.537 57.3608 66.9012V66.9012ZM57.3608 60.1929L57.0733 60.4229C56.9583 60.4995 56.8433 60.557 56.7283 60.5954C56.6133 60.6529 56.4983 60.6912 56.3833 60.7104C56.2492 60.7295 56.1342 60.7487 56 60.7487C55.5017 60.7487 55.0033 60.5379 54.6392 60.1929C54.2942 59.8287 54.0833 59.3304 54.0833 58.832C54.0833 58.3337 54.2942 57.8354 54.6392 57.4712C54.8117 57.2987 55.0225 57.1645 55.2717 57.0687C55.9808 56.762 56.8242 56.9345 57.3608 57.4712C57.7058 57.8354 57.9167 58.3337 57.9167 58.832C57.9167 59.3304 57.7058 59.8287 57.3608 60.1929V60.1929ZM64.0692 66.9012C63.705 67.2462 63.2067 67.457 62.7083 67.457C62.21 67.457 61.7117 67.2462 61.3475 66.9012C61.0025 66.537 60.7917 66.0387 60.7917 65.5404C60.7917 65.042 61.0025 64.5437 61.3475 64.1795C62.0567 63.4704 63.36 63.4704 64.0692 64.1795C64.4142 64.5437 64.625 65.042 64.625 65.5404C64.625 66.0387 64.4142 66.537 64.0692 66.9012ZM64.0692 60.1929L63.7817 60.4229C63.6667 60.4995 63.5517 60.557 63.4367 60.5954C63.3217 60.6529 63.2067 60.6912 63.0917 60.7104C62.9575 60.7295 62.8233 60.7487 62.7083 60.7487C62.21 60.7487 61.7117 60.5379 61.3475 60.1929C61.0025 59.8287 60.7917 59.3304 60.7917 58.832C60.7917 58.3337 61.0025 57.8354 61.3475 57.4712C61.5392 57.2987 61.7308 57.1645 61.98 57.0687C62.325 56.9154 62.7083 56.877 63.0917 56.9537C63.2067 56.9729 63.3217 57.0112 63.4367 57.0687C63.5517 57.107 63.6667 57.1645 63.7817 57.2412L64.0692 57.4712C64.4142 57.8354 64.625 58.3337 64.625 58.832C64.625 59.3304 64.4142 59.8287 64.0692 60.1929V60.1929Z" fill="url(#paint2_linear_465_846)"/>
<defs>
<linearGradient id="paint0_linear_465_846" x1="55.8677" y1="0" x2="55.8677" y2="109.592" gradientUnits="userSpaceOnUse">
<stop stop-color="#F58C1F"/>
<stop offset="1" stop-color="#F57D21"/>
</linearGradient>
<linearGradient id="paint1_linear_465_846" x1="54.9318" y1="90.4258" x2="54.9318" y2="117.736" gradientUnits="userSpaceOnUse">
<stop stop-color="#F58C1F"/>
<stop offset="1" stop-color="#F57D21"/>
</linearGradient>
<linearGradient id="paint2_linear_465_846" x1="56" y1="34.3945" x2="56" y2="74.1654" gradientUnits="userSpaceOnUse">
<stop stop-color="#F58C1F"/>
<stop offset="1" stop-color="#F57D21"/>
</linearGradient>
</defs>
</svg>
