<svg width="112" height="118" viewBox="0 0 112 118" fill="none" xmlns="http://www.w3.org/2000/svg">
<path fill-rule="evenodd" clip-rule="evenodd" d="M27 47.9546C27 46.8772 27.6177 46 28.3764 46H36.7629V63.9972H28.3764C27.6177 63.9972 27 63.12 27 62.0412V47.9546ZM34.3303 49.6158L34.037 49.2435L33.9199 49.7032L33.4757 49.8668L33.8762 50.1206L33.896 50.5931L34.2598 50.2913L34.7153 50.4196L34.5404 49.9796L34.8041 49.5848L34.3303 49.6158ZM33.1683 48.6061L32.7269 48.4312L32.8566 48.8867L32.5534 49.2505L33.0273 49.2703L33.2797 49.6708L33.4433 49.2266L33.903 49.1095L33.5307 48.8162L33.5617 48.3424L33.1683 48.6061ZM31.8652 47.8897L31.6551 48.3128L31.1785 48.3818L31.5169 48.7118L31.4379 49.1786L31.861 48.9586L32.2841 49.1786L32.2051 48.7118L32.5436 48.3818L32.0754 48.3128L31.8652 47.8897ZM31.4464 53.3839L31.5254 53.8507L31.1954 54.1807L31.6636 54.2498L31.8737 54.6728L32.0838 54.2498L32.552 54.1807L32.2136 53.8507L32.2925 53.3839L31.8695 53.6039L31.4464 53.3839ZM30.5622 48.6061L30.1688 48.3424L30.1998 48.8162L29.8275 49.1095L30.2872 49.2266L30.4508 49.6708L30.7046 49.2703L31.1771 49.2505L30.8753 48.8867L31.0036 48.4312L30.5622 48.6061ZM29.6935 49.2393L29.4002 49.6116L28.9264 49.5805L29.1901 49.9754L29.0152 50.4154L29.4707 50.2871L29.8345 50.5888L29.8543 50.1164L30.2548 49.8626L29.8106 49.699L29.6935 49.2393ZM28.8953 51.0669L28.4723 51.277L28.8953 51.4956L28.9644 51.9638L29.2944 51.6253L29.7612 51.7043L29.5412 51.2813L29.7612 50.8582L29.2944 50.9372L28.9644 50.5987L28.8953 51.0669ZM29.4002 52.9425L29.6935 53.3148L29.8106 52.8551L30.2548 52.6915L29.8543 52.439L29.8345 51.9652L29.4707 52.2684L29.0152 52.1401L29.1901 52.5801L28.9264 52.9735L29.4002 52.9425ZM30.2943 53.3317L29.8345 53.4488L30.2068 53.7421L30.1758 54.2159L30.5692 53.9522L31.0106 54.1271L30.8823 53.6716L31.1841 53.3077L30.7117 53.288L30.4579 52.8875L30.2943 53.3317ZM32.3898 61.549H33.3601L33.3615 58.1814H32.3898V59.3801H31.3491V58.1814H30.3775V61.549H31.3491V60.3504H32.3898V61.549ZM33.1725 53.9522L33.566 54.2159L33.5349 53.7421L33.9072 53.4488L33.4475 53.3317L33.2839 52.8875L33.0315 53.288L32.5577 53.3077L32.8609 53.6716L32.7311 54.1271L33.1725 53.9522ZM34.0412 53.319L34.3345 52.9467L34.8084 52.9777L34.5447 52.5843L34.7195 52.1443L34.264 52.2726L33.9002 51.9694L33.8805 52.4433L33.4799 52.6957L33.9242 52.8593L34.0412 53.319ZM34.7689 51.9596L34.838 51.4914L35.261 51.2728L34.838 51.0627L34.7689 50.5945L34.4389 50.9329L33.9721 50.854L34.1921 51.277L33.9721 51.7001L34.4389 51.6211L34.7689 51.9596ZM38.2084 46.0028H83.1323L83.3402 46C84.0989 46 84.503 46.8772 84.503 47.9546L84.7151 62.044C84.7151 63.1228 84.0989 64 83.3402 64H38.2084V46.0028ZM46.7459 57.7654L47.0082 59.5987L48.4536 59.5917L46.956 50.3971H44.9986L43.5009 59.5917H44.8407L45.1044 57.7922H46.7459V57.7654ZM52.4318 57.7654L52.6941 59.5987L54.1396 59.5917L52.642 50.3971H50.6846L49.1883 59.5917H50.5281L50.7904 57.7922H52.4318V57.7654ZM57.9317 57.7654L58.194 59.5987L59.6395 59.5917L58.1418 50.3971H56.1844L54.6882 59.5917H56.0279L56.2902 57.7922H57.9317V57.7654ZM61.1921 55.7023H64.2791V54.2921H61.1921V55.7023ZM66.4128 59.5987H67.8568L67.8667 50.3942H66.895C66.8095 50.652 66.676 50.8912 66.5016 51.0993C66.336 51.2742 66.1235 51.3976 65.8895 51.4547C65.5666 51.5334 65.2347 51.569 64.9024 51.5605V52.5843H66.4128V59.5987ZM73.7938 59.6636V58.3507L71.0411 58.345V58.1476C71.0396 57.8296 71.1166 57.5162 71.2653 57.2352C71.5057 56.83 71.7966 56.4571 72.1312 56.1254C72.7874 55.4372 73.2495 54.8261 73.5174 54.2921C73.7778 53.7839 73.915 53.2216 73.9179 52.6506C73.9189 51.905 73.735 51.3334 73.3665 50.9358C72.998 50.5381 72.464 50.3392 71.7645 50.3392C71.0632 50.3383 70.5287 50.5371 70.1611 50.9358C69.7935 51.3344 69.6097 51.906 69.6097 52.6506V53.5461H70.9762V52.5589C70.9762 51.9544 71.2258 51.6521 71.725 51.6521C71.8304 51.6444 71.9361 51.6611 72.034 51.701C72.1319 51.7408 72.2192 51.8028 72.2891 51.882C72.4151 52.0353 72.4781 52.3088 72.4781 52.7028C72.4778 53.1415 72.3724 53.5738 72.1706 53.9635C71.867 54.4966 71.4938 54.987 71.0608 55.4217C70.6015 55.8727 70.2203 56.3969 69.9327 56.9729C69.7091 57.5084 69.6015 58.0851 69.6168 58.6652V59.6636H73.7938ZM78.5547 59.1489C78.9176 58.7568 79.0991 58.1927 79.0991 57.4566L79.1075 56.6556C79.1233 56.2385 79.0377 55.8238 78.8579 55.447C78.683 55.1246 78.3922 54.8806 78.0442 54.7645V54.7377C78.3738 54.6241 78.6496 54.3925 78.8184 54.0876C79.0007 53.7142 79.0865 53.3011 79.068 52.8861V52.5575C79.0699 51.8195 78.8908 51.2554 78.5307 50.8652C78.1707 50.4751 77.6451 50.28 76.9541 50.28C76.2716 50.2819 75.7484 50.4788 75.3845 50.8709C75.0207 51.2629 74.8388 51.827 74.8388 52.5631V53.0483H76.2053V52.4447C76.2053 51.8721 76.4366 51.5901 76.9019 51.5901C77.0006 51.586 77.0988 51.6041 77.1896 51.6429C77.2803 51.6817 77.3613 51.7402 77.4265 51.8143C77.5741 52.0146 77.6442 52.2616 77.624 52.5096V53.1822C77.6249 53.5338 77.5525 53.7835 77.4068 53.9311C77.3195 54.0107 77.2167 54.0716 77.1049 54.11C76.993 54.1483 76.8745 54.1632 76.7567 54.1539H76.2321V55.4682H76.7144C77.0462 55.4682 77.2869 55.558 77.4364 55.7375C77.5859 55.9171 77.6606 56.217 77.6606 56.6373V57.3861C77.6606 57.7715 77.5972 58.0404 77.4703 58.1927C77.4005 58.2721 77.3132 58.3342 77.2153 58.3741C77.1174 58.414 77.0116 58.4306 76.9062 58.4226C76.4069 58.4226 76.1573 58.1208 76.1573 57.5172V56.7021H74.7908V57.451C74.7908 58.1852 74.9727 58.7493 75.3366 59.1432C75.7004 59.5371 76.2368 59.7341 76.9457 59.7341C77.6555 59.736 78.1918 59.5409 78.5547 59.1489ZM45.2727 56.5496H46.5729L45.9284 52.0045H45.9031L45.2727 56.5496ZM50.9578 56.5496H52.258L51.6149 52.0045H51.5882L50.9578 56.5496ZM57.7646 56.5496H56.4644L57.0948 52.0045H57.1201L57.7646 56.5496Z" fill="url(#paint0_linear_465_847)"/>
<path fill-rule="evenodd" clip-rule="evenodd" d="M69.376 95.7169C85.9816 90.0897 97.9328 74.3744 97.9328 55.8677C97.9328 32.6358 79.0996 13.8026 55.8677 13.8026C32.6358 13.8026 13.8026 32.6358 13.8026 55.8677C13.8026 74.1511 25.4672 89.7101 41.7604 95.5088C40.0165 98.1253 39 101.268 39 104.648C39 106.284 39.2378 107.863 39.6808 109.354C16.7191 102.415 0 81.0937 0 55.8677C0 25.0128 25.0128 0 55.8677 0C86.7225 0 111.735 25.0128 111.735 55.8677C111.735 81.3886 94.6231 102.913 71.2467 109.592C71.7362 108.031 72 106.371 72 104.648C72 101.357 71.0364 98.2912 69.376 95.7169Z" fill="url(#paint1_linear_465_847)"/>
<path d="M52.26 103.035H54.4006C55.2131 103.035 55.8068 102.754 56.1818 102.191C56.5673 101.618 56.76 100.858 56.76 99.9102C56.76 99.0039 56.5621 98.3008 56.1662 97.8008C55.7808 97.2904 55.26 97.0352 54.6037 97.0352C53.9891 97.0352 53.4839 97.2747 53.0881 97.7539C52.7027 98.2331 52.51 98.8372 52.51 99.5664H48.0881C48.0881 98.3789 48.3589 97.3164 48.9006 96.3789C49.4527 95.431 50.2183 94.6914 51.1975 94.1602C52.1871 93.6289 53.2808 93.3633 54.4787 93.3633C56.5725 93.3633 58.2131 93.9414 59.4006 95.0977C60.5881 96.2539 61.1818 97.8372 61.1818 99.8477C61.1818 100.879 60.911 101.837 60.3693 102.723C59.8381 103.598 59.135 104.27 58.26 104.738C59.3329 105.197 60.1298 105.884 60.6506 106.801C61.1818 107.717 61.4475 108.801 61.4475 110.051C61.4475 112.072 60.8016 113.691 59.51 114.91C58.2287 116.129 56.5412 116.738 54.4475 116.738C52.4996 116.738 50.9162 116.139 49.6975 114.941C48.4891 113.733 47.885 112.15 47.885 110.191H52.3068C52.3068 111.004 52.5204 111.686 52.9475 112.238C53.3746 112.79 53.9162 113.066 54.5725 113.066C55.3329 113.066 55.9318 112.785 56.3693 112.223C56.8173 111.66 57.0412 110.91 57.0412 109.973C57.0412 107.733 56.1714 106.608 54.4318 106.598H52.26V103.035Z" fill="url(#paint2_linear_465_847)"/>
<defs>
<linearGradient id="paint0_linear_465_847" x1="55.8576" y1="46" x2="55.8576" y2="64" gradientUnits="userSpaceOnUse">
<stop stop-color="#F58C1F"/>
<stop offset="1" stop-color="#F57D21"/>
</linearGradient>
<linearGradient id="paint1_linear_465_847" x1="55.8677" y1="0" x2="55.8677" y2="109.592" gradientUnits="userSpaceOnUse">
<stop stop-color="#F58C1F"/>
<stop offset="1" stop-color="#F57D21"/>
</linearGradient>
<linearGradient id="paint2_linear_465_847" x1="54.9318" y1="90.4258" x2="54.9318" y2="117.736" gradientUnits="userSpaceOnUse">
<stop stop-color="#F58C1F"/>
<stop offset="1" stop-color="#F57D21"/>
</linearGradient>
</defs>
</svg>
