<svg width="25" height="24" viewBox="0 0 25 24" fill="none" xmlns="http://www.w3.org/2000/svg">
<path d="M22.2598 12C22.2598 6.48 17.7798 2 12.2598 2C6.73977 2 2.25977 6.48 2.25977 12C2.25976 17.52 6.73976 22 12.2598 22C17.7798 22 22.2598 17.52 22.2598 12ZM12.2298 15.53C12.0798 15.38 12.0098 15.19 12.0098 15C12.0098 14.81 12.0798 14.62 12.2298 14.47L13.9498 12.75L8.75977 12.75C8.34977 12.75 8.00977 12.41 8.00977 12C8.00977 11.59 8.34977 11.25 8.75977 11.25L13.9498 11.25L12.2298 9.53C11.9398 9.24 11.9398 8.76 12.2298 8.47C12.3709 8.33052 12.5613 8.2523 12.7598 8.2523C12.9582 8.2523 13.1486 8.33052 13.2898 8.47L16.2898 11.47C16.5798 11.76 16.5798 12.24 16.2898 12.53L13.2898 15.53C12.9998 15.82 12.5198 15.82 12.2298 15.53Z" fill="url(#paint0_linear_514_483)"/>
<defs>
<linearGradient id="paint0_linear_514_483" x1="22.2598" y1="12" x2="2.25977" y2="12" gradientUnits="userSpaceOnUse">
<stop stop-color="#F58C1F"/>
<stop offset="1" stop-color="#F57D21"/>
</linearGradient>
</defs>
</svg>
