<svg width="43" height="32" viewBox="0 0 43 32" fill="none" xmlns="http://www.w3.org/2000/svg">
<path fill-rule="evenodd" clip-rule="evenodd" d="M33.9524 5.6588H33.6814H29.9124C29.2915 5.6588 29.1516 5.8949 29.4577 6.44582C30.0388 7.4988 30.6221 8.55395 31.2053 9.60911L31.2058 9.60997C31.7898 10.6664 32.3738 11.7228 32.9556 12.777C33.1042 13.0481 33.3228 13.2142 33.6114 13.3104C34.4355 13.5949 35.2595 13.8819 36.0841 14.169L36.0845 14.1691C37.4648 14.6497 38.8462 15.1308 40.2312 15.6015C40.4673 15.6802 40.5547 15.7939 40.5547 16.0563C40.546 18.3963 40.5547 20.7363 40.5634 23.085V23.0857L40.5634 23.0957C40.5634 23.8653 40.5722 23.874 41.333 23.9352C42.1288 23.9964 42.7059 24.6086 42.7059 25.4131C42.7059 25.4686 42.7064 25.524 42.7069 25.5794V25.5794C42.7093 25.8559 42.7117 26.1302 42.6534 26.3925C42.531 27.0221 42.0326 27.4419 41.3942 27.4768C41.0785 27.4914 40.7629 27.4925 40.4487 27.4936H40.4484C40.197 27.4944 39.9465 27.4953 39.6977 27.5031C39.5228 27.5031 39.5053 27.4069 39.4966 27.2757C39.313 25.107 37.7214 23.2619 35.6139 22.7547C32.6407 22.0376 29.72 24.0139 29.274 27.0396C29.2041 27.5031 29.2041 27.5031 28.7319 27.5031H14.9764C14.7578 27.5031 14.6704 27.4681 14.6441 27.2145C14.3818 24.6523 12.2131 22.6498 9.67714 22.606C7.01875 22.5623 4.80634 24.4337 4.43031 27.0309C4.36036 27.5206 4.36036 27.5206 3.86191 27.5206C3.67388 27.5206 3.48584 27.5211 3.29781 27.5217C2.7338 27.5233 2.16979 27.5249 1.60577 27.5118C0.844984 27.5031 0.294067 27.1358 0.110428 26.4887C-0.0382316 25.999 -0.0294869 25.483 0.092939 24.9933C0.232854 24.3987 0.792516 23.979 1.40465 23.9352C1.5227 23.9265 1.64075 23.9243 1.75881 23.9221C1.87686 23.9199 1.99491 23.9177 2.11297 23.909C2.38405 23.8828 2.4715 23.7953 2.49773 23.5155C2.50648 23.4193 2.50648 23.3144 2.50648 23.2182C2.50648 22.6172 2.50884 22.0162 2.5112 21.4154V21.4154C2.51671 20.0144 2.52221 18.6147 2.49773 17.2193C2.48024 16.0737 2.6289 14.9719 2.93497 13.8613C3.67827 11.168 4.37785 8.46585 5.06868 5.75499C5.14807 5.42948 5.15538 5.08236 5.1626 4.73978L5.16487 4.63567C5.16924 4.10661 5.16924 3.57756 5.16924 3.0485C5.16924 2.51945 5.16924 1.99039 5.17361 1.46134C5.17361 1.31268 5.17361 1.17276 5.1911 1.0241C5.24357 0.438207 5.66332 0.0359503 6.24921 0.00971614C6.38913 0.000971564 6.52904 0.000971565 6.66021 0.000971565H6.66021H32.4659C32.5009 0.000971565 32.5359 0.000728109 32.5709 0.000484936C32.7455 -0.000729266 32.9192 -0.00193642 33.0867 0.027206C33.6551 0.123398 33.9787 0.534399 33.9874 1.19025C33.9962 2.63313 33.9962 4.07601 33.9962 5.51014C33.9649 5.54142 33.9616 5.57271 33.955 5.63527L33.9524 5.6588ZM18.0458 7.53891C18.0082 7.53578 17.9718 7.53152 17.936 7.52735C17.872 7.51988 17.8102 7.51268 17.7485 7.51268C14.2943 7.51268 10.8402 7.51267 7.37728 7.50393C7.04498 7.50393 7.01 7.53016 6.91381 7.86246C6.68645 8.62325 6.45909 9.38623 6.23172 10.1492C6.00436 10.9122 5.777 11.6752 5.54964 12.4359C5.5234 12.5146 5.50591 12.5934 5.48842 12.6721H18.0458V7.53891ZM30.2534 12.6808L30.1572 12.4884C29.8006 11.8894 29.4426 11.2905 29.0843 10.691L29.0838 10.6902C28.5112 9.73209 27.9378 8.7727 27.3677 7.81C27.2365 7.59138 27.0529 7.50393 26.7993 7.50393C25.8374 7.5083 24.8754 7.5083 23.9135 7.5083C22.9516 7.5083 21.9897 7.5083 21.0278 7.51268H20.8092V12.6808H30.2534ZM21.9285 23.8303H28.3209C28.5132 23.8303 28.7931 23.6117 28.8018 23.4455C28.8106 23.2794 28.5307 23.0433 28.3209 23.0433H15.8422C15.8043 23.0433 15.7664 23.0423 15.7285 23.0413C15.6527 23.0394 15.5769 23.0374 15.5011 23.0433C15.2825 23.052 15.0114 23.3406 15.0989 23.498C15.1951 23.6816 15.3262 23.8303 15.5711 23.8303C16.9822 23.8245 18.3972 23.8264 19.8109 23.8284H19.811H19.8119C20.518 23.8293 21.2237 23.8303 21.9285 23.8303ZM9.50906 31.9975C7.06928 31.9975 5.15419 30.0824 5.15419 27.6602C5.15419 25.2991 7.11301 23.3752 9.5178 23.3752C11.9139 23.3752 13.8902 25.3253 13.8814 27.7039C13.8727 30.2136 11.7302 32.0587 9.50906 31.9975ZM9.49157 29.4616C10.4885 29.4703 11.2842 28.7008 11.3017 27.7126C11.3192 26.7332 10.5322 25.9287 9.53529 25.9112C8.54714 25.8937 7.74263 26.6807 7.72514 27.6689C7.71639 28.6483 8.49467 29.4441 9.49157 29.4616ZM29.9979 27.6398C29.9892 30.0796 31.9043 31.9859 34.3616 31.9947C36.5652 32.0559 38.7164 30.2282 38.7252 27.701C38.7427 25.3225 36.7838 23.3724 34.379 23.3636C31.9742 23.3549 30.0067 25.2787 29.9979 27.6398ZM36.1542 27.6835C36.163 28.6629 35.3672 29.4587 34.3703 29.4587C33.3734 29.4587 32.5689 28.6717 32.5689 27.701C32.5689 26.7129 33.3647 25.9171 34.3528 25.9171C35.341 25.9084 36.1455 26.7041 36.1542 27.6835Z" fill="url(#paint0_linear_465_825)"/>
<defs>
<linearGradient id="paint0_linear_465_825" x1="21.3539" y1="0" x2="21.3539" y2="31.999" gradientUnits="userSpaceOnUse">
<stop stop-color="#F58C1F"/>
<stop offset="1" stop-color="#F57D21"/>
</linearGradient>
</defs>
</svg>
