<svg width="35" height="34" viewBox="0 0 35 34" fill="none" xmlns="http://www.w3.org/2000/svg">
<path d="M0 13.5037C0.135136 13.294 0.322824 13.2266 0.570572 13.2266C11.7493 13.2341 22.9355 13.2266 34.1142 13.2341C34.5797 13.2341 34.6998 13.3539 34.7073 13.8108C34.7073 14.4175 34.7073 15.0242 34.7073 15.6384C34.7073 16.0878 34.5797 16.2151 34.1142 16.2151C33.4836 16.2151 32.853 16.2226 32.2148 16.2226C32.1923 16.2226 32.1773 16.2376 32.1247 16.2601C32.1247 17.1439 32.1247 18.0427 32.1247 18.9415C32.1247 19.8628 32.1247 19.8703 31.2088 19.8703C30.7208 19.8703 30.2403 19.8703 29.7523 19.8703C29.2944 19.8703 29.2118 19.8029 29.0992 19.361C28.8364 18.3273 28.5737 17.2937 28.3109 16.2376C21.0136 16.2376 13.7163 16.2376 6.40392 16.2376C6.14116 17.2488 5.8859 18.2599 5.63065 19.2711C5.488 19.8328 5.44296 19.8703 4.87989 19.8703C4.29431 19.8703 3.70872 19.8703 3.11562 19.8703C2.72523 19.8703 2.5901 19.728 2.58259 19.3385C2.57508 18.3123 2.58259 17.2937 2.58259 16.2151C1.89941 16.2151 1.23874 16.2376 0.57808 16.2001C0.382884 16.1926 0.195196 16.0354 0 15.9455C0 15.1291 0 14.3201 0 13.5037Z" fill="url(#paint0_linear_114_224)"/>
<path d="M14.1903 33.0959C10.8644 33.0959 7.58365 33.0959 4.25781 33.0959C4.28784 32.9536 4.30286 32.8188 4.33289 32.6914C5.41397 27.8229 6.49506 22.9543 7.57614 18.0857C7.61368 17.906 7.65872 17.8086 7.86893 17.8086C10.1963 17.8161 12.5236 17.8161 14.8509 17.8161C14.881 17.8161 14.9185 17.8311 15.0011 17.846C14.7383 22.9318 14.4681 28.0026 14.1903 33.0959Z" fill="url(#paint1_linear_114_224)"/>
<path d="M19.6992 17.8239C19.8569 17.8239 19.9695 17.8239 20.0746 17.8239C22.2893 17.8239 24.504 17.8314 26.7188 17.8164C26.974 17.8164 27.0866 17.8688 27.1467 18.146C28.2278 23.0595 29.3239 27.973 30.4125 32.879C30.4275 32.9464 30.4275 33.0138 30.4275 33.0962C27.1317 33.0962 23.8509 33.0962 20.51 33.0962C20.2473 28.0254 19.977 22.9546 19.6992 17.8239Z" fill="url(#paint2_linear_114_224)"/>
<path d="M9.02344 11.6022C9.8868 7.70733 10.7427 3.85741 11.5985 0C13.055 0 14.4889 0 15.9604 0C15.7502 3.87239 15.5475 7.7298 15.3448 11.6022C13.2277 11.6022 11.1406 11.6022 9.02344 11.6022Z" fill="url(#paint3_linear_114_224)"/>
<path d="M25.6906 11.5986C23.5809 11.5986 21.4938 11.5986 19.3692 11.5986C19.159 7.7337 18.9563 3.88379 18.7461 0.00390625C20.2101 0.00390625 21.644 0.00390625 23.108 0.00390625C23.9713 3.85382 24.8272 7.71872 25.6906 11.5986Z" fill="url(#paint4_linear_114_224)"/>
<defs>
<linearGradient id="paint0_linear_114_224" x1="17.3537" y1="19.8703" x2="17.3537" y2="13.2266" gradientUnits="userSpaceOnUse">
<stop stop-color="#5CCC94"/>
<stop offset="1" stop-color="#8CCAAE"/>
</linearGradient>
<linearGradient id="paint1_linear_114_224" x1="9.62945" y1="33.0959" x2="9.62945" y2="17.8086" gradientUnits="userSpaceOnUse">
<stop stop-color="#5CCC94"/>
<stop offset="1" stop-color="#8CCAAE"/>
</linearGradient>
<linearGradient id="paint2_linear_114_224" x1="25.0633" y1="33.0962" x2="25.0633" y2="17.8164" gradientUnits="userSpaceOnUse">
<stop stop-color="#5CCC94"/>
<stop offset="1" stop-color="#8CCAAE"/>
</linearGradient>
<linearGradient id="paint3_linear_114_224" x1="12.4919" y1="11.6022" x2="12.4919" y2="6.13158e-08" gradientUnits="userSpaceOnUse">
<stop stop-color="#5CCC94"/>
<stop offset="1" stop-color="#8CCAAE"/>
</linearGradient>
<linearGradient id="paint4_linear_114_224" x1="22.2183" y1="11.5986" x2="22.2183" y2="0.00390631" gradientUnits="userSpaceOnUse">
<stop stop-color="#5CCC94"/>
<stop offset="1" stop-color="#8CCAAE"/>
</linearGradient>
</defs>
</svg>
