<svg width="329" height="149" viewBox="0 0 329 149" fill="none" xmlns="http://www.w3.org/2000/svg">
<g filter="url(#filter0_d_109_323)">
<rect x="17" y="17" width="285" height="105" rx="5.23244" fill="url(#paint0_linear_109_323)"/>
<path d="M48.7768 88V49.3127H60.7337C64.7725 49.3127 67.837 50.2161 69.9273 52.0229C72.0352 53.812 73.0892 56.4425 73.0892 59.9145C73.0892 61.8807 72.6552 63.5724 71.7872 64.9895C70.9192 66.4067 69.7324 67.4429 68.2267 68.0983C69.9627 68.5943 71.3001 69.5952 72.2389 71.1009C73.1778 72.5888 73.6472 74.4311 73.6472 76.6276C73.6472 80.383 72.6109 83.2172 70.5384 85.1303C68.4836 87.0434 65.4988 88 61.584 88H48.7768ZM56.5886 71.1806V81.5167H61.584C62.9834 81.5167 64.0462 81.0827 64.7725 80.2147C65.4988 79.3467 65.8619 78.1156 65.8619 76.5213C65.8619 73.0494 64.6042 71.2691 62.0888 71.1806H56.5886ZM56.5886 65.4944H60.654C63.7185 65.4944 65.2508 63.909 65.2508 60.7382C65.2508 58.9845 64.8965 57.7268 64.1879 56.9651C63.4794 56.2034 62.328 55.8226 60.7337 55.8226H56.5886V65.4944ZM101.547 88H78.7488V82.6858L89.2178 69.3737C90.5463 67.5315 91.5206 65.9195 92.1406 64.5378C92.7783 63.1384 93.0972 61.801 93.0972 60.5256C93.0972 58.8074 92.796 57.4611 92.1937 56.4868C91.6092 55.5126 90.7589 55.0254 89.6429 55.0254C88.4207 55.0254 87.4464 55.5923 86.7201 56.726C86.0116 57.8597 85.6573 59.4539 85.6573 61.5087H78.1111C78.1111 59.1351 78.5983 56.9651 79.5725 54.9989C80.5645 53.0326 81.9462 51.5092 83.7176 50.4286C85.5067 49.3304 87.5261 48.7812 89.7758 48.7812C93.23 48.7812 95.9048 49.7378 97.8002 51.6509C99.7133 53.5463 100.67 56.2477 100.67 59.7551C100.67 61.9339 100.138 64.1481 99.0756 66.3978C98.0305 68.6298 96.1262 71.3843 93.3629 74.6614L88.3941 81.7558H101.547V88Z" fill="white"/>
<path d="M189.668 74.7656C217.165 74.7656 244.749 74.7656 272.245 74.7656C272.245 74.9397 272.332 75.1137 272.332 75.3747C272.332 75.7228 272.332 76.0709 272.332 76.4189C272.332 81.0307 272.332 85.6425 272.332 90.3414C272.332 90.9505 272.332 91.5596 272.245 92.1687C272.245 92.4297 272.158 92.6038 272.071 92.8648C271.897 93.2999 271.636 93.6479 271.114 93.822C270.679 93.996 270.331 93.996 269.896 93.996C268.243 94.083 266.502 94.083 264.849 93.996C264.762 93.996 264.588 93.996 264.501 93.996C264.501 94.083 264.414 94.17 264.414 94.257C263.196 97.8247 260.759 100.261 257.192 101.479C256.148 101.827 255.103 102.001 253.972 102.001C253.276 102.001 252.58 102.001 251.884 101.914C250.84 101.74 249.796 101.392 248.925 100.87C247.881 100.261 246.924 99.652 246.054 98.7818C244.749 97.4766 243.878 95.9974 243.356 94.257C243.356 94.17 243.356 94.083 243.269 93.996C243.182 93.996 243.095 93.996 243.095 93.996C237.352 93.996 231.522 94.083 225.779 94.083C223.778 94.083 221.777 94.083 219.862 94.083C219.688 94.083 219.427 94.083 219.253 94.17C219.079 94.257 219.079 94.257 218.992 94.4311C218.557 95.6493 217.948 96.7805 217.165 97.8247C216.034 99.3039 214.554 100.348 212.814 101.131C211.335 101.827 211.509 101.653 210.378 101.827C209.333 102.001 208.376 102.001 207.332 101.914C207.071 101.914 206.81 101.914 206.636 101.914C205.853 101.914 205.07 101.74 204.374 101.392C203.416 100.957 202.546 100.522 201.763 99.826C201.241 99.3909 200.806 98.9559 200.458 98.3468C200.371 98.2597 200.371 98.1727 200.284 98.0857C199.327 96.9545 198.631 95.6493 198.195 94.257C198.108 94.083 198.021 93.996 197.847 93.909C197.325 93.822 197.064 93.822 196.716 93.822C195.672 93.909 194.541 93.909 193.497 93.909C192.801 93.909 192.191 93.909 191.495 93.909C191.234 93.909 190.886 93.822 190.625 93.735C190.103 93.4739 189.755 93.0388 189.668 92.4297C189.668 92.2557 189.668 92.0817 189.668 91.9076C189.668 86.2516 189.668 80.6827 189.668 75.0267C189.668 74.9397 189.668 74.8526 189.668 74.7656ZM208.463 84.2503C204.809 84.2503 201.937 87.2088 201.937 90.7764C201.937 94.4311 204.896 97.3026 208.463 97.3896C212.118 97.3896 214.989 94.4311 214.989 90.7764C214.989 87.2088 212.118 84.2503 208.463 84.2503ZM253.885 84.2503C250.231 84.2503 247.359 87.2088 247.359 90.8635C247.359 94.5181 250.318 97.3896 253.885 97.3896C257.453 97.3896 260.411 94.4311 260.411 90.7764C260.411 87.2088 257.54 84.2503 253.885 84.2503Z" fill="white"/>
<path d="M272.332 72.3271C263.283 72.3271 254.233 72.3271 245.184 72.3271C245.184 72.2401 245.184 72.2401 245.184 72.1531V72.0661C245.184 60.9281 245.184 49.7031 245.184 38.5652C245.184 38.3912 245.184 38.3042 245.184 38.1301C245.271 37.521 245.793 37.173 246.402 37.0859H246.489C254.233 37.0859 261.978 37.0859 269.722 37.0859C270.766 37.0859 271.723 37.695 272.071 38.6522C272.158 39.0003 272.245 39.2613 272.245 39.6094C272.245 41.9588 272.245 44.3082 272.245 46.6576C272.245 55.0981 272.245 63.5386 272.245 71.9791C272.332 72.0661 272.332 72.1531 272.332 72.3271Z" fill="white"/>
<path d="M189.668 72.3282C189.668 72.2412 189.668 72.1542 189.668 72.0672C189.668 65.0189 189.668 57.9707 189.668 50.9224C189.668 45.7885 192.626 40.7417 197.673 38.3922C199.153 37.6961 200.632 37.261 202.285 37.087C202.72 37.087 203.155 37 203.677 37C207.854 37 212.031 37 216.208 37C216.382 37 216.556 37 216.73 37.087C217.252 37.261 217.513 37.6961 217.513 38.2182C217.513 38.3052 217.513 38.3922 217.513 38.4793C217.513 49.6172 217.513 60.7552 217.513 71.9801C217.513 72.0672 217.513 72.1542 217.513 72.2412C208.202 72.3282 198.979 72.3282 189.668 72.3282Z" fill="white"/>
<path d="M242.834 72.3271C235.002 72.3271 227.258 72.3271 219.514 72.3271C219.514 72.2401 219.514 72.1531 219.514 72.0661C219.514 66.9322 219.514 61.7983 219.514 56.7514C219.514 50.6603 219.514 44.6563 219.514 38.5652C219.514 38.3912 219.514 38.2171 219.601 38.0431C219.775 37.521 220.21 37.0859 220.819 37.0859H220.906C227.78 37.0859 234.654 37.0859 241.529 37.0859C241.703 37.0859 241.877 37.0859 242.051 37.173C242.573 37.347 242.921 37.7821 242.921 38.3912C242.921 38.4782 242.921 38.5652 242.921 38.5652C242.921 49.7031 242.921 60.9281 242.921 72.0661C242.834 72.0661 242.834 72.1531 242.834 72.3271Z" fill="white"/>
</g>
<defs>
<filter id="filter0_d_109_323" x="0" y="0" width="329" height="149" filterUnits="userSpaceOnUse" color-interpolation-filters="sRGB">
<feFlood flood-opacity="0" result="BackgroundImageFix"/>
<feColorMatrix in="SourceAlpha" type="matrix" values="0 0 0 0 0 0 0 0 0 0 0 0 0 0 0 0 0 0 127 0" result="hardAlpha"/>
<feOffset dx="5" dy="5"/>
<feGaussianBlur stdDeviation="11"/>
<feComposite in2="hardAlpha" operator="out"/>
<feColorMatrix type="matrix" values="0 0 0 0 0.960784 0 0 0 0 0.490196 0 0 0 0 0.129412 0 0 0 0.2 0"/>
<feBlend mode="normal" in2="BackgroundImageFix" result="effect1_dropShadow_109_323"/>
<feBlend mode="normal" in="SourceGraphic" in2="effect1_dropShadow_109_323" result="shape"/>
</filter>
<linearGradient id="paint0_linear_109_323" x1="159.5" y1="17" x2="159.5" y2="122" gradientUnits="userSpaceOnUse">
<stop stop-color="#F58C1F"/>
<stop offset="1" stop-color="#F57D21"/>
</linearGradient>
</defs>
</svg>
