<svg width="84" height="65" viewBox="0 0 84 65" fill="none" xmlns="http://www.w3.org/2000/svg">
<path d="M0.667969 37.7656C28.1648 37.7656 55.7486 37.7656 83.2455 37.7656C83.2455 37.9397 83.3325 38.1137 83.3325 38.3747C83.3325 38.7228 83.3325 39.0709 83.3325 39.4189C83.3325 44.0307 83.3325 48.6425 83.3325 53.3414C83.3325 53.9505 83.3325 54.5596 83.2455 55.1687C83.2455 55.4297 83.1584 55.6038 83.0714 55.8648C82.8974 56.2999 82.6364 56.6479 82.1143 56.822C81.6792 56.996 81.3311 56.996 80.896 56.996C79.2428 57.083 77.5025 57.083 75.8492 56.996C75.7622 56.996 75.5881 56.996 75.5011 56.996C75.5011 57.083 75.4141 57.17 75.4141 57.257C74.1959 60.8247 71.7594 63.2611 68.1918 64.4793C67.1476 64.8274 66.1035 65.0014 64.9723 65.0014C64.2761 65.0014 63.58 65.0014 62.8839 64.9144C61.8397 64.7404 60.7955 64.3923 59.9254 63.8702C58.8812 63.2611 57.924 62.652 57.0539 61.7818C55.7486 60.4766 54.8785 58.9974 54.3564 57.257C54.3564 57.17 54.3564 57.083 54.2694 56.996C54.1824 56.996 54.0953 56.996 54.0953 56.996C48.3523 56.996 42.5223 57.083 36.7793 57.083C34.778 57.083 32.7766 57.083 30.8623 57.083C30.6882 57.083 30.4272 57.083 30.2532 57.17C30.0791 57.257 30.0791 57.257 29.9921 57.4311C29.557 58.6493 28.9479 59.7805 28.1648 60.8247C27.0336 62.3039 25.5543 63.3481 23.814 64.1313C22.3348 64.8274 22.5088 64.6533 21.3776 64.8274C20.3334 65.0014 19.3763 65.0014 18.3321 64.9144C18.071 64.9144 17.81 64.9144 17.6359 64.9144C16.8528 64.9144 16.0697 64.7404 15.3736 64.3923C14.4164 63.9572 13.5462 63.5221 12.7631 62.826C12.241 62.3909 11.8059 61.9559 11.4579 61.3468C11.3708 61.2597 11.3708 61.1727 11.2838 61.0857C10.3267 59.9545 9.63054 58.6493 9.19547 57.257C9.10845 57.083 9.02143 56.996 8.8474 56.909C8.32531 56.822 8.06427 56.822 7.71621 56.822C6.67202 56.909 5.54082 56.909 4.49664 56.909C3.80052 56.909 3.19141 56.909 2.49529 56.909C2.23424 56.909 1.88618 56.822 1.62514 56.735C1.10305 56.4739 0.754984 56.0388 0.667969 55.4297C0.667969 55.2557 0.667969 55.0817 0.667969 54.9076C0.667969 49.2516 0.667969 43.6827 0.667969 38.0267C0.667969 37.9397 0.667969 37.8526 0.667969 37.7656ZM19.4633 47.2503C15.8086 47.2503 12.9371 50.2088 12.9371 53.7764C12.9371 57.4311 15.8956 60.3026 19.4633 60.3896C23.1179 60.3896 25.9894 57.4311 25.9894 53.7764C25.9894 50.2088 23.1179 47.2503 19.4633 47.2503ZM64.8852 47.2503C61.2306 47.2503 58.3591 50.2088 58.3591 53.8635C58.3591 57.5181 61.3176 60.3896 64.8852 60.3896C68.4529 60.3896 71.4114 57.4311 71.4114 53.7764C71.4114 50.2088 68.5399 47.2503 64.8852 47.2503Z" fill="white"/>
<path d="M83.3324 35.3271C74.2828 35.3271 65.2332 35.3271 56.1836 35.3271C56.1836 35.2401 56.1836 35.2401 56.1836 35.1531V35.0661C56.1836 23.9281 56.1836 12.7031 56.1836 1.5652C56.1836 1.39117 56.1836 1.30415 56.1836 1.13012C56.2706 0.521014 56.7927 0.172953 57.4018 0.0859375H57.4888C65.2332 0.0859375 72.9775 0.0859375 80.7219 0.0859375C81.7661 0.0859375 82.7232 0.695044 83.0713 1.65221C83.1583 2.00027 83.2453 2.26132 83.2453 2.60938C83.2453 4.95879 83.2453 7.3082 83.2453 9.65762C83.2453 18.0981 83.2453 26.5386 83.2453 34.9791C83.3324 35.0661 83.3324 35.1531 83.3324 35.3271Z" fill="white"/>
<path d="M0.667969 35.3282C0.667969 35.2412 0.667969 35.1542 0.667969 35.0672C0.667969 28.0189 0.667969 20.9707 0.667969 13.9224C0.667969 8.78854 3.62649 3.74166 8.67337 1.39224C10.1526 0.696122 11.6319 0.261046 13.2852 0.0870156C13.7203 0.0870156 14.1553 0 14.6774 0C18.8542 0 23.0309 0 27.2076 0C27.3817 0 27.5557 3.3064e-07 27.7297 0.0870156C28.2518 0.261046 28.5129 0.696123 28.5129 1.21821C28.5129 1.30523 28.5129 1.39224 28.5129 1.47926C28.5129 12.6172 28.5129 23.7552 28.5129 34.9801C28.5129 35.0672 28.5129 35.1542 28.5129 35.2412C19.2022 35.3282 9.9786 35.3282 0.667969 35.3282Z" fill="white"/>
<path d="M53.8338 35.3271C46.0024 35.3271 38.258 35.3271 30.5137 35.3271C30.5137 35.2401 30.5137 35.1531 30.5137 35.0661C30.5137 29.9322 30.5137 24.7983 30.5137 19.7514C30.5137 13.6603 30.5137 7.65626 30.5137 1.5652C30.5137 1.39117 30.5137 1.21714 30.6007 1.0431C30.7747 0.521013 31.2098 0.0859375 31.8189 0.0859375H31.9059C38.7801 0.0859375 45.6543 0.0859375 52.5285 0.0859375C52.7026 0.0859375 52.8766 0.085937 53.0506 0.172952C53.5727 0.346983 53.9208 0.78206 53.9208 1.39117C53.9208 1.47818 53.9208 1.5652 53.9208 1.5652C53.9208 12.7031 53.9208 23.9281 53.9208 35.0661C53.8338 35.0661 53.8338 35.1531 53.8338 35.3271Z" fill="white"/>
</svg>
