<svg width="41" height="37" viewBox="0 0 41 37" fill="none" xmlns="http://www.w3.org/2000/svg">
<path d="M35.4624 1.63751L36.0224 2.77751C36.3024 3.33751 37.0024 3.85751 37.6224 3.97751L38.3824 4.09751C40.6624 4.47751 41.2024 6.15751 39.5624 7.81751L38.8624 8.51751C38.4024 8.99751 38.1424 9.91751 38.2824 10.5575L38.3824 10.9775C39.0024 13.7375 37.5424 14.7975 35.1424 13.3575L34.6224 13.0575C34.0024 12.6975 33.0024 12.6975 32.3824 13.0575L31.8624 13.3575C29.4424 14.8175 27.9824 13.7375 28.6224 10.9775L28.7224 10.5575C28.8624 9.91751 28.6024 8.99751 28.1424 8.51751L27.4424 7.79751C25.8024 6.13751 26.3424 4.45751 28.6224 4.07751L29.3824 3.95751C29.9824 3.85751 30.7024 3.31751 30.9824 2.75751L31.5424 1.61751C32.6224 -0.542491 34.3824 -0.542491 35.4624 1.63751Z" fill="url(#paint0_linear_0_1)"/>
<path d="M39.64 16.18C38.92 16.7 36.9 17.66 34.02 16.18C33.8595 16.0962 33.6811 16.0525 33.5 16.0525C33.3189 16.0525 33.1405 16.0962 32.98 16.18C31.84 16.76 30.8 17 29.98 17C28.7 17 27.8 16.5 27.36 16.18C26.62 15.64 25.06 14.1 25.6 10.84C25.6286 10.6738 25.6201 10.5034 25.5752 10.3409C25.5302 10.1784 25.4499 10.0278 25.34 9.9C23.96 8.32 23.2 6.2 23.74 4.54C23.94 3.88 23.52 3 22.84 3H10.5C4.5 3 0.5 6 0.5 13V27C0.5 34 4.5 37 10.5 37H30.5C36.5 37 40.5 34 40.5 27V16.54C40.5 16.16 39.96 15.96 39.64 16.18ZM25.18 20.18C23.86 21.24 22.18 21.76 20.5 21.76C18.82 21.76 17.12 21.24 15.82 20.18L9.56 15.18C9.25401 14.926 9.05814 14.5635 9.0134 14.1683C8.96867 13.7731 9.07853 13.376 9.32 13.06C9.84 12.42 10.78 12.3 11.42 12.82L17.68 17.82C19.2 19.04 21.78 19.04 23.3 17.82C23.94 17.3 24.88 17.4 25.4 18.06C25.94 18.7 25.84 19.66 25.18 20.18Z" fill="url(#paint1_linear_0_1)"/>
<defs>
<linearGradient id="paint0_linear_0_1" x1="33.5024" y1="14.009" x2="33.5024" y2="7.40354e-08" gradientUnits="userSpaceOnUse">
<stop stop-color="#5CCC94"/>
<stop offset="1" stop-color="#8CCAAE"/>
</linearGradient>
<linearGradient id="paint1_linear_0_1" x1="20.5" y1="37" x2="20.5" y2="3" gradientUnits="userSpaceOnUse">
<stop stop-color="#5CCC94"/>
<stop offset="1" stop-color="#8CCAAE"/>
</linearGradient>
</defs>
</svg>
