<svg width="49" height="48" viewBox="0 0 49 48" fill="none" xmlns="http://www.w3.org/2000/svg">
<path d="M17 11.5C16.18 11.5 15.5 10.82 15.5 10V4C15.5 3.18 16.18 2.5 17 2.5C17.82 2.5 18.5 3.18 18.5 4V10C18.5 10.82 17.82 11.5 17 11.5ZM32 11.5C31.18 11.5 30.5 10.82 30.5 10V4C30.5 3.18 31.18 2.5 32 2.5C32.82 2.5 33.5 3.18 33.5 4V10C33.5 10.82 32.82 11.5 32 11.5ZM24.5 28.18C25.54 28.18 26.3 27.56 26.3 26.58C26.3 25.58 25.54 25 24.5 25C23.46 25 22.7 25.58 22.7 26.58C22.7 27.56 23.46 28.18 24.5 28.18ZM24.5 34C25.758 34 26.78 33.168 26.78 32.14C26.78 31.114 25.758 30.28 24.5 30.28C23.24 30.28 22.22 31.114 22.22 32.14C22.22 33.168 23.24 34 24.5 34Z" fill="white"/>
<path d="M39.64 9C38.32 8.02 36.42 8.96 36.42 10.62V10.82C36.42 13.16 34.74 15.32 32.4 15.56C29.7 15.84 27.42 13.72 27.42 11.08V9C27.42 7.9 26.52 7 25.42 7H23.58C22.48 7 21.58 7.9 21.58 9V11.08C21.58 12.66 20.76 14.06 19.52 14.84C19.34 14.96 19.14 15.06 18.94 15.16C18.76 15.26 18.56 15.34 18.34 15.4C18.1 15.48 17.84 15.54 17.56 15.56C17.24 15.6 16.92 15.6 16.6 15.56C16.32 15.54 16.06 15.48 15.82 15.4C15.4054 15.2619 15.0092 15.0738 14.64 14.84C13.38 13.96 12.58 12.44 12.58 10.82V10.62C12.58 9.08 10.94 8.16 9.64 8.82C9.62 8.84 9.6 8.84 9.58 8.86C9.5 8.9 9.44 8.94 9.36 9C9.3 9.06 9.22 9.1 9.16 9.16C8.6 9.6 8.1 10.1 7.68 10.64C7.46 10.88 7.28 11.14 7.12 11.4C6.91685 11.6925 6.73632 12 6.58 12.32C6.54 12.36 6.52 12.38 6.52 12.42C6.4 12.66 6.28 12.9 6.2 13.16C6.14 13.26 6.12 13.34 6.08 13.44C5.96 13.74 5.88 14.04 5.8 14.34C5.72 14.62 5.66 14.92 5.62 15.22C5.54728 15.7236 5.5072 16.2313 5.5 16.74V34.26C5.5 36.8432 6.52618 39.3206 8.35278 41.1472C10.1794 42.9738 12.6568 44 15.24 44H33.76C35.0391 44 36.3056 43.7481 37.4873 43.2586C38.669 42.7691 39.7428 42.0517 40.6472 41.1472C41.5517 40.2428 42.2691 39.1691 42.7586 37.9873C43.2481 36.8056 43.5 35.5391 43.5 34.26V16.74C43.5 13.56 41.98 10.78 39.64 9V9ZM24.5 36.5C21.4 36.5 19.5 34.96 19.5 32.48C19.5 31.12 20.2 29.94 21.42 29.24C20.54 28.62 19.96 27.7 19.96 26.44C19.96 23.84 22.04 22.5 24.5 22.5C26.96 22.5 29.02 23.84 29.02 26.44C29.02 27.7 28.46 28.62 27.56 29.24C28.8 29.94 29.5 31.12 29.5 32.48C29.5 34.96 27.58 36.5 24.5 36.5Z" fill="white"/>
</svg>
