<svg width="48" height="48" viewBox="0 0 48 48" fill="none" xmlns="http://www.w3.org/2000/svg">
<path d="M35.24 21.504C34.8316 21.504 34.4399 21.3418 34.1511 21.0529C33.8622 20.7641 33.7 20.3724 33.7 19.964C33.7 19.224 32.96 17.684 31.72 16.344C30.5 15.044 29.16 14.284 28.04 14.284C27.6316 14.284 27.2399 14.1218 26.9511 13.8329C26.6622 13.5441 26.5 13.1524 26.5 12.744C26.5 11.904 27.2 11.204 28.04 11.204C30.04 11.204 32.14 12.284 33.98 14.224C35.7 16.044 36.8 18.304 36.8 19.944C36.8 20.804 36.1 21.504 35.24 21.504V21.504ZM42.46 21.5C42.0516 21.5 41.6599 21.3378 41.3711 21.0489C41.0822 20.7601 40.92 20.3684 40.92 19.96C40.92 12.86 35.14 7.1 28.06 7.1C27.6516 7.1 27.2599 6.93775 26.9711 6.64894C26.6822 6.36014 26.52 5.96843 26.52 5.56C26.52 4.72 27.2 4 28.04 4C36.84 4 44 11.16 44 19.96C44 20.8 43.3 21.5 42.46 21.5ZM22.1 29.9L18.4 33.6C17.62 34.38 16.38 34.38 15.58 33.62C15.36 33.4 15.14 33.2 14.92 32.98C12.8975 30.944 11.0322 28.7578 9.34 26.44C7.7 24.16 6.38 21.88 5.42 19.62C4.48 17.34 4 15.16 4 13.08C4 11.72 4.24 10.42 4.72 9.22C5.2 8 5.96 6.88 7.02 5.88C8.3 4.62 9.7 4 11.18 4C11.74 4 12.3 4.12 12.8 4.36C13.32 4.6 13.78 4.96 14.14 5.48L18.78 12.02C19.14 12.52 19.4 12.98 19.58 13.42C19.76 13.84 19.86 14.26 19.86 14.64C19.86 15.12 19.72 15.6 19.44 16.06C19.18 16.52 18.8 17 18.32 17.48L16.8 19.06C16.58 19.28 16.48 19.54 16.48 19.86C16.48 20.02 16.5 20.16 16.54 20.32C16.6 20.48 16.66 20.6 16.7 20.72C17.06 21.38 17.68 22.24 18.56 23.28C19.46 24.32 20.42 25.38 21.46 26.44C21.66 26.64 21.88 26.84 22.08 27.04C22.88 27.82 22.9 29.1 22.1 29.9V29.9ZM43.94 36.66C43.9374 37.4148 43.7665 38.1595 43.44 38.84C43.1 39.56 42.66 40.24 42.08 40.88C41.1 41.96 40.02 42.74 38.8 43.24C38.78 43.24 38.76 43.26 38.74 43.26C37.56 43.74 36.28 44 34.9 44C32.86 44 30.68 43.52 28.38 42.54C26.08 41.56 23.78 40.24 21.5 38.58C20.72 38 19.94 37.42 19.2 36.8L25.74 30.26C26.3 30.68 26.8 31 27.22 31.22C27.32 31.26 27.44 31.32 27.58 31.38C27.74 31.44 27.9 31.46 28.08 31.46C28.42 31.46 28.68 31.34 28.9 31.12L30.42 29.62C30.92 29.12 31.4 28.74 31.86 28.5C32.32 28.22 32.78 28.08 33.28 28.08C33.66 28.08 34.06 28.16 34.5 28.34C34.94 28.52 35.4 28.78 35.9 29.12L42.52 33.82C43.04 34.18 43.4 34.6 43.62 35.1C43.82 35.6 43.94 36.1 43.94 36.66V36.66Z" fill="url(#paint0_linear_278_1642)"/>
<defs>
<linearGradient id="paint0_linear_278_1642" x1="24" y1="44" x2="24" y2="4" gradientUnits="userSpaceOnUse">
<stop stop-color="#5CCC94"/>
<stop offset="1" stop-color="#8CCAAE"/>
</linearGradient>
</defs>
</svg>
