<svg width="49" height="48" viewBox="0 0 49 48" fill="none" xmlns="http://www.w3.org/2000/svg">
<path d="M38.5 30.0009C34.08 30.0009 30.5 33.5809 30.5 38.0009C30.5 39.5009 30.92 40.9209 31.66 42.1209C32.3651 43.3058 33.3666 44.2868 34.5659 44.9671C35.7653 45.6475 37.1211 46.0037 38.5 46.0009C41.42 46.0009 43.96 44.4409 45.34 42.1209C46.08 40.9209 46.5 39.5009 46.5 38.0009C46.5 33.5809 42.92 30.0009 38.5 30.0009ZM42.64 37.1409L38.38 41.0809C38.1 41.3409 37.72 41.4809 37.36 41.4809C36.98 41.4809 36.6 41.3409 36.3 41.0409L34.32 39.0609C34.041 38.7786 33.8846 38.3977 33.8846 38.0009C33.8846 37.604 34.041 37.2231 34.32 36.9409C34.9 36.3609 35.86 36.3609 36.44 36.9409L37.4 37.9009L40.6 34.9409C41.2 34.3809 42.16 34.4209 42.72 35.0209C43.28 35.6209 43.24 36.5609 42.64 37.1409ZM44.5 15.0969V15.9969C44.5 17.0969 43.6 17.9969 42.5 17.9969H6.5C5.4 17.9969 4.5 17.0969 4.5 15.9969V15.0769C4.5 10.4969 8.2 6.79688 12.78 6.79688H36.2C40.78 6.79688 44.5 10.5169 44.5 15.0969V15.0969Z" fill="white"/>
<path d="M4.5 22.9966V32.9166C4.5 37.4966 8.2 41.1966 12.78 41.1966H25.3C26.46 41.1966 27.46 40.2166 27.36 39.0566C27.08 35.9966 28.06 32.6766 30.78 30.0366C31.9 28.9366 33.28 28.0966 34.78 27.6166C37.28 26.8166 39.7 26.9166 41.84 27.6366C42.1408 27.7417 42.4625 27.7735 42.7781 27.7292C43.0937 27.6849 43.3941 27.5658 43.6543 27.3819C43.9146 27.1979 44.1271 26.9545 44.2742 26.6717C44.4213 26.389 44.4987 26.0753 44.5 25.7566V22.9766C44.5 21.8766 43.6 20.9766 42.5 20.9766H6.5C5.4 20.9966 4.5 21.8966 4.5 22.9966ZM16.5 34.4966H12.5C11.68 34.4966 11 33.8166 11 32.9966C11 32.1766 11.68 31.4966 12.5 31.4966H16.5C17.32 31.4966 18 32.1766 18 32.9966C18 33.8166 17.32 34.4966 16.5 34.4966Z" fill="white"/>
</svg>
