<svg width="329" height="149" viewBox="0 0 329 149" fill="none" xmlns="http://www.w3.org/2000/svg">
<g filter="url(#filter0_d_109_315)">
<rect x="17" y="17" width="285" height="105" rx="5.23244" fill="url(#paint0_linear_109_315)"/>
<path d="M48.1088 88V49.3127H58.3386C62.8557 49.3127 66.4516 50.7475 69.1264 53.6172C71.819 56.4868 73.1918 60.4193 73.2449 65.4147V71.6854C73.2449 76.7693 71.8987 80.7638 69.2062 83.6689C66.5313 86.5563 62.838 88 58.1261 88H48.1088ZM55.9207 55.8226V81.5167H58.2589C60.8629 81.5167 62.6963 80.8347 63.7591 79.4707C64.8219 78.089 65.3799 75.7154 65.4331 72.3497V65.6272C65.4331 62.0136 64.9282 59.4982 63.9185 58.0811C62.9088 56.6463 61.1906 55.8934 58.7638 55.8226H55.9207ZM94.8471 88H87.301V58.4531L79.9408 61.2962V55.0254L94.05 49.2595H94.8471V88Z" fill="white"/>
<path d="M272 62.189C272 61.1601 272 60.1311 272 59.0231C272 58.7065 271.918 58.3899 271.755 58.0733C271.429 57.5193 270.94 57.2027 270.369 57.1236C270.043 57.0444 269.717 57.0444 269.391 57.0444C267.433 57.0444 265.476 57.0444 263.601 57.0444C263.356 57.0444 263.03 57.0444 262.785 56.8861C262.215 56.7278 261.888 56.4112 261.644 55.8572C261.481 55.4615 261.399 55.0657 261.236 54.5908C260.176 51.425 259.034 48.2591 257.974 45.0932C257.567 44.0643 257.24 42.9562 256.833 41.9273C256.343 40.4235 254.386 40.1069 253 39.632C250.798 38.9197 248.515 38.3657 246.232 37.9699C243.867 37.5742 241.421 37.2576 239.056 37.1785C237.67 37.0993 236.365 37.0202 234.979 37.0202C232.043 36.941 229.107 37.0993 226.172 37.4159C225.356 37.4951 224.541 37.5742 223.725 37.7325C220.708 38.1282 217.773 38.6823 214.918 39.7112C214.103 39.9486 213.369 40.2652 212.554 40.5818C212.227 40.6609 211.983 40.8192 211.738 41.0567C211.494 41.2941 211.33 41.6107 211.167 41.9273C210.841 42.9562 210.433 44.0643 210.026 45.0932C208.966 48.2591 207.824 51.425 206.764 54.5908C206.601 54.9866 206.519 55.3823 206.356 55.8572C206.193 56.4112 205.785 56.7278 205.215 56.8861C204.97 56.9653 204.725 57.0444 204.399 57.0444C202.442 57.0444 200.485 57.0444 198.609 57.0444C198.283 57.0444 197.957 57.0444 197.631 57.1236C196.979 57.2027 196.489 57.5193 196.245 58.0733C196.163 58.3899 196.082 58.7065 196.082 59.0231C196.082 60.052 196.082 61.0809 196.082 62.189C196.082 62.5847 196.163 62.9804 196.245 63.3762C196.326 63.6136 196.408 63.8511 196.489 64.0885C196.734 64.9591 197.305 65.5923 198.039 66.0672C198.365 66.2255 198.609 66.3838 198.936 66.4629C199.099 66.5421 199.343 66.5421 199.506 66.7004C199.751 66.8587 200.077 66.9378 200.322 67.0961C200.567 67.1752 200.648 67.3335 200.567 67.571C200.485 67.8084 200.403 67.9667 200.322 68.2042C200.077 68.5999 199.833 68.9956 199.506 69.3914C199.099 69.9454 198.773 70.4994 198.365 71.0535C198.039 71.5283 197.712 72.0032 197.468 72.4781C197.06 73.2696 196.734 74.1402 196.489 74.9317C196.163 76.1189 196 77.3852 196 78.5724C196 86.0123 196 93.373 196 100.813C196 100.892 196 100.971 196 101.05C196 101.288 196.082 101.446 196.163 101.604C196.326 101.763 196.489 101.921 196.734 102C197.142 101.842 197.305 101.842 197.468 101.842C201.137 101.842 204.725 101.842 208.395 101.842C208.476 101.842 208.558 101.842 208.639 101.842C209.047 101.842 209.373 101.604 209.618 101.288C209.781 101.129 209.781 100.892 209.781 100.654C209.781 97.6469 209.781 91.1568 209.781 91.0777H258.219C258.219 91.1568 258.3 97.6469 258.219 100.654C258.219 100.892 258.219 101.129 258.382 101.288C258.627 101.604 258.953 101.763 259.361 101.842C259.442 101.842 259.524 101.842 259.605 101.842C263.275 101.842 266.863 101.842 270.532 101.842C270.695 101.842 270.94 101.842 271.103 101.763C271.348 101.683 271.511 101.604 271.674 101.367C271.837 101.209 271.918 101.05 271.837 100.813C271.837 100.734 271.837 100.655 271.837 100.575C271.837 93.1355 271.837 85.7748 271.837 78.335C271.837 77.0686 271.674 75.8814 271.348 74.6942C271.103 73.8236 270.858 73.0321 270.369 72.2407C270.124 71.7658 269.798 71.2909 269.472 70.816C269.146 70.262 268.738 69.708 268.33 69.1539C268.086 68.7582 267.76 68.3625 267.515 67.9667C267.433 67.8084 267.352 67.571 267.27 67.3335C267.189 67.0961 267.27 66.9378 267.515 66.8587C267.76 66.7795 268.086 66.6212 268.33 66.4629C268.494 66.3838 268.738 66.3046 268.901 66.2255C269.227 66.1463 269.554 65.988 269.798 65.8297C270.614 65.3549 271.103 64.7217 271.348 63.8511C271.429 63.6136 271.511 63.3762 271.592 63.1387C271.918 62.9804 272 62.5847 272 62.189ZM258.137 58.3899C257.73 59.2605 256.425 59.3397 255.528 59.498C254.549 59.7354 253.652 59.8937 252.674 60.052C251.043 60.3686 249.494 60.606 247.863 60.7643C243.867 61.2392 239.871 61.3975 235.876 61.4766C234.734 61.4766 233.511 61.4766 232.369 61.4766C228.373 61.4766 224.296 61.3184 220.3 60.7643C217.773 60.4477 215.245 60.052 212.798 59.498C212.146 59.3397 211.494 59.2605 210.841 59.0231C210.352 58.8648 209.944 58.6273 209.863 58.1525C209.618 55.778 210.678 53.4036 211.412 51.1875C211.983 49.3671 212.635 47.5467 213.369 45.8055C213.614 45.2515 213.858 44.6183 214.103 44.0643C215 42.4813 216.631 41.4524 218.425 40.9775C220.545 40.3444 222.91 40.2652 225.112 40.1069C228.129 39.8695 231.146 39.632 234.245 39.632C235.142 39.632 235.957 39.632 236.854 39.632C239.137 39.7112 241.421 39.8695 243.704 40.0278C245.824 40.1861 248.107 40.3444 250.146 41.0567C251.369 41.4524 252.511 42.1647 253.326 43.1145C253.734 43.6685 254.06 44.3809 254.305 45.0932C254.631 45.9638 254.957 46.8344 255.283 47.705C255.854 49.1297 256.343 50.5543 256.833 52.0581C257.485 53.8785 258.382 55.8572 258.382 57.7567C258.3 57.9942 258.219 58.2316 258.137 58.3899Z" fill="white"/>
</g>
<defs>
<filter id="filter0_d_109_315" x="0" y="0" width="329" height="149" filterUnits="userSpaceOnUse" color-interpolation-filters="sRGB">
<feFlood flood-opacity="0" result="BackgroundImageFix"/>
<feColorMatrix in="SourceAlpha" type="matrix" values="0 0 0 0 0 0 0 0 0 0 0 0 0 0 0 0 0 0 127 0" result="hardAlpha"/>
<feOffset dx="5" dy="5"/>
<feGaussianBlur stdDeviation="11"/>
<feComposite in2="hardAlpha" operator="out"/>
<feColorMatrix type="matrix" values="0 0 0 0 0.960784 0 0 0 0 0.490196 0 0 0 0 0.129412 0 0 0 0.2 0"/>
<feBlend mode="normal" in2="BackgroundImageFix" result="effect1_dropShadow_109_315"/>
<feBlend mode="normal" in="SourceGraphic" in2="effect1_dropShadow_109_315" result="shape"/>
</filter>
<linearGradient id="paint0_linear_109_315" x1="159.5" y1="17" x2="159.5" y2="122" gradientUnits="userSpaceOnUse">
<stop stop-color="#F58C1F"/>
<stop offset="1" stop-color="#F57D21"/>
</linearGradient>
</defs>
</svg>
