<svg width="76" height="65" viewBox="0 0 76 65" fill="none" xmlns="http://www.w3.org/2000/svg">
<path d="M76 25.189C76 24.1601 76 23.1311 76 22.0231C76 21.7065 75.9185 21.3899 75.7554 21.0733C75.4292 20.5193 74.9399 20.2027 74.3691 20.1236C74.0429 20.0444 73.7167 20.0444 73.3906 20.0444C71.4335 20.0444 69.4764 20.0444 67.6009 20.0444C67.3562 20.0444 67.03 20.0444 66.7854 19.8861C66.2146 19.7278 65.8884 19.4112 65.6438 18.8572C65.4807 18.4615 65.3991 18.0657 65.2361 17.5908C64.176 14.425 63.0343 11.2591 61.9743 8.09318C61.5665 7.06427 61.2403 5.95621 60.8326 4.92729C60.3433 3.4235 58.3863 3.10691 57 2.63203C54.7983 1.9197 52.515 1.36567 50.2318 0.969935C47.867 0.574199 45.4206 0.257611 43.0558 0.178464C41.6695 0.0993164 40.3648 0.0201694 38.9785 0.0201694C36.0429 -0.0589778 33.1073 0.0993166 30.1717 0.415905C29.3562 0.495052 28.5408 0.574199 27.7253 0.732494C24.7082 1.12823 21.7725 1.68226 18.9185 2.71117C18.103 2.94861 17.3691 3.2652 16.5536 3.58179C16.2275 3.66094 15.9828 3.81923 15.7382 4.05667C15.4936 4.29412 15.3305 4.61071 15.1674 4.92729C14.8412 5.95621 14.4335 7.06427 14.0258 8.09318C12.9657 11.2591 11.824 14.425 10.7639 17.5908C10.6009 17.9866 10.5193 18.3823 10.3562 18.8572C10.1931 19.4112 9.78541 19.7278 9.21459 19.8861C8.96996 19.9653 8.72532 20.0444 8.39914 20.0444C6.44206 20.0444 4.48498 20.0444 2.60944 20.0444C2.28326 20.0444 1.95708 20.0444 1.6309 20.1236C0.978541 20.2027 0.48927 20.5193 0.244635 21.0733C0.16309 21.3899 0.081545 21.7065 0.081545 22.0231C0.081545 23.052 0.081545 24.0809 0.081545 25.189C0.081545 25.5847 0.16309 25.9804 0.244635 26.3762C0.32618 26.6136 0.407725 26.8511 0.48927 27.0885C0.733906 27.9591 1.30472 28.5923 2.03863 29.0672C2.36481 29.2255 2.60944 29.3838 2.93562 29.4629C3.09871 29.5421 3.34335 29.5421 3.50644 29.7004C3.75107 29.8587 4.07725 29.9378 4.32189 30.0961C4.56652 30.1752 4.64807 30.3335 4.56652 30.571C4.48498 30.8084 4.40343 30.9667 4.32189 31.2042C4.07725 31.5999 3.83262 31.9956 3.50644 32.3914C3.09871 32.9454 2.77253 33.4994 2.36481 34.0535C2.03863 34.5283 1.71245 35.0032 1.46781 35.4781C1.06009 36.2696 0.733906 37.1402 0.48927 37.9317C0.16309 39.1189 0 40.3852 0 41.5724C0 49.0123 0 56.373 0 63.8128C0 63.8919 0 63.9711 0 64.0502C0 64.2877 0.0815449 64.446 0.16309 64.6043C0.32618 64.7626 0.48927 64.9209 0.733905 65C1.14163 64.8417 1.30472 64.8417 1.46781 64.8417C5.13734 64.8417 8.72532 64.8417 12.3949 64.8417C12.4764 64.8417 12.5579 64.8417 12.6395 64.8417C13.0472 64.8417 13.3734 64.6043 13.618 64.2877C13.7811 64.1294 13.7811 63.8919 13.7811 63.6545C13.7811 60.6469 13.7811 54.1568 13.7811 54.0777H62.2189C62.2189 54.1568 62.3004 60.6469 62.2189 63.6545C62.2189 63.8919 62.2189 64.1294 62.382 64.2877C62.6266 64.6043 62.9528 64.7626 63.3605 64.8417C63.4421 64.8417 63.5236 64.8417 63.6052 64.8417C67.2747 64.8417 70.8627 64.8417 74.5322 64.8417C74.6953 64.8417 74.9399 64.8417 75.103 64.7626C75.3476 64.6834 75.5107 64.6043 75.6738 64.3668C75.8369 64.2085 75.9185 64.0502 75.8369 63.8128C75.8369 63.7336 75.8369 63.6545 75.8369 63.5754C75.8369 56.1355 75.8369 48.7748 75.8369 41.335C75.8369 40.0686 75.6738 38.8814 75.3476 37.6942C75.103 36.8236 74.8584 36.0321 74.3691 35.2407C74.1245 34.7658 73.7983 34.2909 73.4721 33.816C73.1459 33.262 72.7382 32.708 72.3305 32.1539C72.0858 31.7582 71.7597 31.3625 71.515 30.9667C71.4335 30.8084 71.3519 30.571 71.2704 30.3335C71.1888 30.0961 71.2704 29.9378 71.515 29.8587C71.7597 29.7795 72.0858 29.6212 72.3305 29.4629C72.4936 29.3838 72.7382 29.3046 72.9013 29.2255C73.2275 29.1463 73.5536 28.988 73.7983 28.8297C74.6137 28.3549 75.103 27.7217 75.3476 26.8511C75.4292 26.6136 75.5107 26.3762 75.5923 26.1387C75.9185 25.9804 76 25.5847 76 25.189ZM62.1373 21.3899C61.7296 22.2605 60.4249 22.3397 59.5279 22.498C58.5494 22.7354 57.6524 22.8937 56.6738 23.052C55.0429 23.3686 53.4936 23.606 51.8627 23.7643C47.867 24.2392 43.8712 24.3975 39.8755 24.4766C38.7339 24.4766 37.5107 24.4766 36.3691 24.4766C32.3734 24.4766 28.2961 24.3184 24.3004 23.7643C21.7725 23.4477 19.2446 23.052 16.7983 22.498C16.1459 22.3397 15.4936 22.2605 14.8412 22.0231C14.3519 21.8648 13.9442 21.6273 13.8627 21.1525C13.618 18.778 14.6781 16.4036 15.412 14.1875C15.9828 12.3671 16.6352 10.5467 17.3691 8.80551C17.6137 8.25148 17.8584 7.6183 18.103 7.06427C19 5.48132 20.6309 4.45241 22.4249 3.97753C24.5451 3.34435 26.9099 3.2652 29.1116 3.10691C32.1288 2.86947 35.1459 2.63203 38.2446 2.63203C39.1416 2.63203 39.9571 2.63203 40.8541 2.63203C43.1373 2.71117 45.4206 2.86947 47.7039 3.02776C49.824 3.18606 52.1073 3.34435 54.1459 4.05667C55.3691 4.45241 56.5107 5.16474 57.3262 6.1145C57.7339 6.66853 58.0601 7.38086 58.3047 8.09318C58.6309 8.9638 58.9571 9.83442 59.2833 10.705C59.8541 12.1297 60.3433 13.5543 60.8326 15.0581C61.485 16.8785 62.382 18.8572 62.382 20.7567C62.3004 20.9942 62.2189 21.2316 62.1373 21.3899Z" fill="white"/>
</svg>
