<svg width="329" height="149" viewBox="0 0 329 149" fill="none" xmlns="http://www.w3.org/2000/svg">
<g filter="url(#filter0_d_109_330)">
<rect x="17" y="17" width="285" height="105" rx="5.23244" fill="url(#paint0_linear_109_330)"/>
<path d="M49.6088 88V49.3127H59.8386C64.3557 49.3127 67.9516 50.7475 70.6264 53.6172C73.319 56.4868 74.6918 60.4193 74.7449 65.4147V71.6854C74.7449 76.7693 73.3987 80.7638 70.7062 83.6689C68.0313 86.5563 64.338 88 59.6261 88H49.6088ZM57.4207 55.8226V81.5167H59.7589C62.3629 81.5167 64.1963 80.8347 65.2591 79.4707C66.3219 78.089 66.8799 75.7154 66.9331 72.3497V65.6272C66.9331 62.0136 66.4282 59.4982 65.4185 58.0811C64.4088 56.6463 62.6906 55.8934 60.2638 55.8226H57.4207ZM96.3471 88H88.801V58.4531L81.4408 61.2962V55.0254L95.55 49.2595H96.3471V88ZM114.601 59.2502L114.814 61.9073C116.497 59.7816 118.72 58.7188 121.483 58.7188C124.353 58.7188 126.381 60.0119 127.568 62.5982C129.215 60.0119 131.563 58.7188 134.609 58.7188C139.64 58.7188 142.218 62.1996 142.341 69.1612V88H134.822V69.6395C134.822 67.9743 134.592 66.7875 134.131 66.0789C133.671 65.3704 132.891 65.0161 131.793 65.0161C130.393 65.0161 129.348 65.8752 128.657 67.5935L128.711 68.4969V88H121.191V69.6926C121.191 68.0452 120.97 66.8584 120.527 66.1321C120.084 65.3881 119.296 65.0161 118.162 65.0161C116.869 65.0161 115.841 65.7158 115.08 67.1152V88H107.56V59.2502H114.601Z" fill="white"/>
<path d="M179.308 71.9438C179.308 71.8321 179.42 71.8321 179.308 71.9438C179.308 71.4969 179.532 71.3852 179.755 71.2734C180.426 71.05 180.984 70.603 181.655 70.1561C181.543 70.0444 181.543 70.0444 181.543 69.9326C181.32 69.5974 180.984 69.2622 180.761 69.0388C180.537 68.8153 180.426 68.5919 180.202 68.4801C179.979 68.2567 179.755 68.1449 179.42 68.1449C178.861 68.0332 178.191 67.8097 177.632 67.698C177.409 67.5863 177.186 67.5863 176.962 67.4745C176.515 67.2511 176.292 66.9159 176.18 66.3572C176.068 65.7985 176.068 65.2399 176.18 64.7929C176.292 63.7873 176.403 62.67 176.515 61.6644C176.962 58.3124 177.632 54.9604 179.085 51.8319C179.867 50.0442 180.873 48.4799 181.99 46.9157C183.554 44.681 185.454 42.5581 187.241 40.5469C187.8 39.9882 188.359 39.4296 189.029 38.9826C189.588 38.6474 190.035 38.2005 190.482 37.7536C190.705 37.5301 190.929 37.4184 191.152 37.1949C191.599 36.8597 192.046 36.9714 192.493 37.4184C192.828 37.7536 193.052 38.2005 193.275 38.7592C193.387 39.0944 193.499 39.5413 193.61 39.8765C193.722 40.2117 193.61 40.4352 193.499 40.7704C193.275 41.2173 193.052 41.5525 192.716 41.8877C191.599 43.005 190.482 44.1223 189.253 45.2397C188.917 45.5749 188.582 45.9101 188.247 46.2453C188.024 46.4687 187.912 46.5805 187.688 46.8039C187.353 47.2509 187.353 47.8095 187.688 48.3682C187.8 48.5917 187.912 48.7034 188.135 48.9269C189.029 49.9325 190.258 50.6028 191.599 50.8263C192.493 51.0498 193.387 51.0498 194.281 51.0498C195.621 51.0498 196.962 51.0498 198.303 50.938C198.415 50.938 198.526 50.938 198.75 50.938C199.532 50.8263 200.091 50.3794 200.314 49.5973C200.538 49.0386 200.761 48.5917 201.208 48.2565C201.432 48.033 201.655 47.9213 201.878 47.8095C204.225 46.6922 206.571 45.6866 209.029 45.0162C210.929 44.4575 212.828 44.2341 214.728 44.2341C216.851 44.2341 218.75 44.681 220.761 45.3514C223.443 46.357 225.901 47.8095 228.024 49.5973C229.253 50.6028 230.259 51.7202 231.376 52.9492C231.823 53.5079 232.27 53.9548 232.605 54.6252C232.717 54.8487 232.94 55.0722 233.052 55.2956C233.275 55.5191 233.499 55.6308 233.722 55.7426C234.728 55.966 235.845 55.966 236.851 55.7426C238.415 55.5191 239.868 55.0722 241.208 54.1783C242.102 53.6196 242.996 52.8375 243.555 51.9436C244.114 51.0498 244.784 50.2677 245.231 49.2621C245.343 49.0386 245.566 48.8151 245.678 48.5917C246.125 48.033 246.683 47.6978 247.466 47.6978C247.577 47.6978 247.801 47.6978 247.912 47.6978C252.605 47.6978 257.298 47.6978 261.879 47.6978C263.555 47.6978 265.231 47.6978 266.907 47.6978C267.242 47.6978 267.689 47.6978 268.024 47.8095C269.03 48.033 269.7 48.8151 269.812 49.8207C269.812 50.4911 269.812 51.1615 269.7 51.8319C269.589 52.8375 269.365 53.8431 269.253 54.8487C269.142 55.4074 269.142 55.966 269.142 56.413C269.03 57.642 268.583 58.7594 267.913 59.8767C267.354 60.8823 266.572 61.8879 265.79 62.7817C265.119 63.4521 264.561 64.2343 263.779 64.7929C263.332 65.2399 262.885 65.6868 262.438 66.1337C261.767 66.9159 261.209 67.698 260.873 68.7036C260.65 69.1505 260.538 69.5974 260.315 69.9326C260.203 70.0444 260.315 70.2678 260.315 70.3796C260.427 70.603 260.65 70.8265 260.985 71.05C261.209 71.1617 261.209 71.1617 261.097 71.3852C261.097 71.4969 260.985 71.6086 260.985 71.8321C261.097 71.8321 261.209 71.9438 261.32 71.9438C266.795 73.5081 270.929 77.8657 272.158 83.4523C273.723 90.8267 269.812 98.2011 262.996 100.883C260.985 101.665 258.862 102 256.739 102C251.6 101.777 246.907 98.9832 244.337 94.5139C244.337 94.4022 244.225 94.4022 244.225 94.2904C244.114 94.4022 244.002 94.5139 243.89 94.6256C243.778 94.8491 243.555 94.8491 243.331 94.8491C237.41 94.8491 231.488 94.8491 225.678 94.8491C216.962 94.8491 208.247 94.8491 199.532 94.8491C199.197 94.8491 198.973 94.7374 198.638 94.5139C198.415 94.2904 198.191 94.1787 197.968 93.9552C197.968 94.067 197.856 94.067 197.856 94.1787C195.621 97.9776 192.381 100.436 188.135 101.441C186.459 101.888 184.783 101.888 183.107 101.777C176.85 101.106 171.711 96.6368 170.035 90.4915C169.588 88.592 169.364 86.8043 169.588 84.9049C170.258 79.2065 173.945 74.402 179.197 72.3908C179.197 71.9438 179.308 71.9438 179.308 71.9438ZM184.56 95.9664C185.677 95.9664 186.795 95.743 187.912 95.4078C192.493 93.7318 195.063 88.9272 193.945 84.1227C192.716 78.6478 187.018 75.4076 181.767 77.0835C177.074 78.5361 174.169 83.4523 175.286 88.3686C176.18 92.7262 180.091 95.9664 184.56 95.9664ZM257.41 95.9664C258.527 95.9664 259.644 95.743 260.762 95.4078C265.343 93.7318 267.913 88.8155 266.795 84.011C265.455 78.5361 259.644 75.2958 254.169 77.307C249.7 78.983 247.13 83.5641 248.136 88.2568C248.918 92.7262 252.829 95.9664 257.41 95.9664Z" fill="white"/>
</g>
<defs>
<filter id="filter0_d_109_330" x="0" y="0" width="329" height="149" filterUnits="userSpaceOnUse" color-interpolation-filters="sRGB">
<feFlood flood-opacity="0" result="BackgroundImageFix"/>
<feColorMatrix in="SourceAlpha" type="matrix" values="0 0 0 0 0 0 0 0 0 0 0 0 0 0 0 0 0 0 127 0" result="hardAlpha"/>
<feOffset dx="5" dy="5"/>
<feGaussianBlur stdDeviation="11"/>
<feComposite in2="hardAlpha" operator="out"/>
<feColorMatrix type="matrix" values="0 0 0 0 0.960784 0 0 0 0 0.490196 0 0 0 0 0.129412 0 0 0 0.2 0"/>
<feBlend mode="normal" in2="BackgroundImageFix" result="effect1_dropShadow_109_330"/>
<feBlend mode="normal" in="SourceGraphic" in2="effect1_dropShadow_109_330" result="shape"/>
</filter>
<linearGradient id="paint0_linear_109_330" x1="159.5" y1="17" x2="159.5" y2="122" gradientUnits="userSpaceOnUse">
<stop stop-color="#F58C1F"/>
<stop offset="1" stop-color="#F57D21"/>
</linearGradient>
</defs>
</svg>
