<svg width="104" height="65" viewBox="0 0 104 65" fill="none" xmlns="http://www.w3.org/2000/svg">
<path d="M10.3084 34.9438C10.3084 34.8321 10.4202 34.8321 10.3084 34.9438C10.3084 34.4969 10.5319 34.3852 10.7554 34.2734C11.4258 34.05 11.9844 33.603 12.6548 33.1561C12.5431 33.0444 12.5431 33.0444 12.5431 32.9326C12.3196 32.5974 11.9844 32.2622 11.761 32.0388C11.5375 31.8153 11.4258 31.5919 11.2023 31.4801C10.9788 31.2567 10.7554 31.1449 10.4202 31.1449C9.8615 31.0332 9.1911 30.8097 8.63244 30.698C8.40897 30.5863 8.18551 30.5863 7.96204 30.4745C7.51511 30.2511 7.29164 29.9159 7.17991 29.3572C7.06818 28.7985 7.06818 28.2399 7.17991 27.7929C7.29164 26.7873 7.40338 25.67 7.51511 24.6644C7.96204 21.3124 8.63244 17.9604 10.085 14.8319C10.8671 13.0442 11.8727 11.4799 12.99 9.91566C14.5543 7.68101 16.4537 5.55808 18.2415 3.54689C18.8001 2.98822 19.3588 2.42956 20.0292 1.98263C20.5879 1.64743 21.0348 1.2005 21.4817 0.753564C21.7052 0.530098 21.9287 0.418365 22.1521 0.194899C22.5991 -0.1403 23.046 -0.0285659 23.4929 0.418366C23.8281 0.753565 24.0516 1.2005 24.275 1.75916C24.3868 2.09436 24.4985 2.54129 24.6102 2.87649C24.722 3.21169 24.6102 3.43515 24.4985 3.77035C24.275 4.21729 24.0516 4.55248 23.7164 4.88768C22.5991 6.00501 21.4817 7.12234 20.2527 8.23967C19.9175 8.57487 19.5823 8.91007 19.2471 9.24527C19.0236 9.46873 18.9119 9.58047 18.6884 9.80393C18.3532 10.2509 18.3532 10.8095 18.6884 11.3682C18.8001 11.5917 18.9119 11.7034 19.1353 11.9269C20.0292 12.9325 21.2583 13.6028 22.5991 13.8263C23.4929 14.0498 24.3868 14.0498 25.2806 14.0498C26.6214 14.0498 27.9622 14.0498 29.303 13.938C29.4148 13.938 29.5265 13.938 29.75 13.938C30.5321 13.8263 31.0908 13.3794 31.3142 12.5973C31.5377 12.0386 31.7612 11.5917 32.2081 11.2565C32.4315 11.033 32.655 10.9213 32.8785 10.8095C35.2249 9.6922 37.5713 8.6866 40.0294 8.0162C41.9288 7.45754 43.8283 7.23408 45.7278 7.23408C47.8507 7.23408 49.7502 7.68101 51.7613 8.3514C54.4429 9.357 56.9011 10.8095 59.024 12.5973C60.253 13.6028 61.2586 14.7202 62.376 15.9492C62.8229 16.5079 63.2698 16.9548 63.605 17.6252C63.7168 17.8487 63.9402 18.0722 64.052 18.2956C64.2754 18.5191 64.4989 18.6308 64.7224 18.7426C65.728 18.966 66.8453 18.966 67.8509 18.7426C69.4151 18.5191 70.8677 18.0722 72.2085 17.1783C73.1023 16.6196 73.9962 15.8375 74.5549 14.9436C75.1135 14.0498 75.7839 13.2677 76.2309 12.2621C76.3426 12.0386 76.5661 11.8151 76.6778 11.5917C77.1247 11.033 77.6834 10.6978 78.4655 10.6978C78.5772 10.6978 78.8007 10.6978 78.9124 10.6978C83.6052 10.6978 88.298 10.6978 92.8791 10.6978C94.5551 10.6978 96.231 10.6978 97.907 10.6978C98.2422 10.6978 98.6892 10.6978 99.0244 10.8095C100.03 11.033 100.7 11.8151 100.812 12.8207C100.812 13.4911 100.812 14.1615 100.7 14.8319C100.589 15.8375 100.365 16.8431 100.253 17.8487C100.142 18.4074 100.142 18.966 100.142 19.413C100.03 20.642 99.583 21.7594 98.9126 22.8767C98.354 23.8823 97.5718 24.8879 96.7897 25.7817C96.1193 26.4521 95.5607 27.2343 94.7785 27.7929C94.3316 28.2399 93.8847 28.6868 93.4377 29.1337C92.7673 29.9159 92.2087 30.698 91.8735 31.7036C91.65 32.1505 91.5383 32.5974 91.3148 32.9326C91.2031 33.0444 91.3148 33.2678 91.3148 33.3796C91.4265 33.603 91.65 33.8265 91.9852 34.05C92.2087 34.1617 92.2087 34.1617 92.0969 34.3852C92.0969 34.4969 91.9852 34.6086 91.9852 34.8321C92.0969 34.8321 92.2087 34.9438 92.3204 34.9438C97.7953 36.5081 101.929 40.8657 103.158 46.4523C104.723 53.8267 100.812 61.2011 93.9964 63.8827C91.9852 64.6648 89.8623 65 87.7393 65C82.5996 64.7765 77.9069 61.9832 75.337 57.5139C75.337 57.4022 75.2253 57.4022 75.2253 57.2904C75.1135 57.4022 75.0018 57.5139 74.8901 57.6256C74.7783 57.8491 74.5549 57.8491 74.3314 57.8491C68.4096 57.8491 62.4877 57.8491 56.6776 57.8491C47.9624 57.8491 39.2473 57.8491 30.5321 57.8491C30.1969 57.8491 29.9734 57.7374 29.6382 57.5139C29.4148 57.2904 29.1913 57.1787 28.9678 56.9552C28.9678 57.067 28.8561 57.067 28.8561 57.1787C26.6214 60.9776 23.3812 63.4357 19.1353 64.4413C17.4593 64.8883 15.7833 64.8883 14.1074 64.7765C7.85031 64.1061 2.71059 59.6368 1.0346 53.4915C0.587667 51.592 0.364201 49.8043 0.587667 47.9049C1.25806 42.2065 4.94525 37.402 10.1967 35.3908C10.1967 34.9438 10.3084 34.9438 10.3084 34.9438ZM15.5599 58.9664C16.6772 58.9664 17.7945 58.743 18.9119 58.4078C23.4929 56.7318 26.0628 51.9272 24.9454 47.1227C23.7164 41.6478 18.018 38.4076 12.7666 40.0835C8.07377 41.5361 5.16872 46.4523 6.28605 51.3686C7.17991 55.7262 11.0906 58.9664 15.5599 58.9664ZM88.4097 58.9664C89.5271 58.9664 90.6444 58.743 91.7617 58.4078C96.3428 56.7318 98.9126 51.8155 97.7953 47.011C96.4545 41.5361 90.6444 38.2958 85.1695 40.307C80.7002 41.983 78.1303 46.5641 79.1359 51.2568C79.918 55.7262 83.8287 58.9664 88.4097 58.9664Z" fill="white"/>
</svg>
