<svg width="76" height="48" viewBox="0 0 76 48" fill="none" xmlns="http://www.w3.org/2000/svg">
<path d="M7.23718 25.8029C7.23718 25.7205 7.31962 25.7205 7.23718 25.8029C7.23718 25.4732 7.40206 25.3907 7.56695 25.3083C8.0616 25.1434 8.47381 24.8136 8.96847 24.4839C8.88603 24.4014 8.88603 24.4014 8.88603 24.319C8.72114 24.0716 8.47381 23.8243 8.30893 23.6594C8.14404 23.4945 8.0616 23.3297 7.89672 23.2472C7.73183 23.0823 7.56695 22.9999 7.31962 22.9999C6.90741 22.9174 6.41275 22.7526 6.00054 22.6701C5.83566 22.5877 5.67077 22.5877 5.50589 22.5052C5.17612 22.3404 5.01123 22.093 4.92879 21.6808C4.84635 21.2686 4.84635 20.8564 4.92879 20.5266C5.01123 19.7846 5.09367 18.9602 5.17612 18.2182C5.50589 15.745 6.00054 13.2717 7.07229 10.9633C7.64939 9.64422 8.39137 8.49002 9.2158 7.33583C10.37 5.68698 11.7715 4.12057 13.0906 2.63661C13.5028 2.2244 13.915 1.81219 14.4097 1.48242C14.8219 1.23509 15.1517 0.90532 15.4814 0.57555C15.6463 0.410665 15.8112 0.328223 15.9761 0.163338C16.3058 -0.0839892 16.6356 -0.00154614 16.9654 0.328224C17.2127 0.575551 17.3776 0.90532 17.5425 1.31753C17.6249 1.56486 17.7074 1.89463 17.7898 2.14196C17.8723 2.38928 17.7898 2.55417 17.7074 2.8015C17.5425 3.13127 17.3776 3.37859 17.1303 3.62592C16.3058 4.45035 15.4814 5.27477 14.5746 6.09919C14.3272 6.34652 14.0799 6.59385 13.8326 6.84118C13.6677 7.00606 13.5852 7.0885 13.4204 7.25339C13.173 7.58316 13.173 7.99537 13.4204 8.40758C13.5028 8.57247 13.5852 8.65491 13.7501 8.81979C14.4097 9.56178 15.3165 10.0564 16.3058 10.2213C16.9654 10.3862 17.6249 10.3862 18.2845 10.3862C19.2738 10.3862 20.2631 10.3862 21.2524 10.3038C21.3348 10.3038 21.4173 10.3038 21.5822 10.3038C22.1593 10.2213 22.5715 9.89155 22.7364 9.31445C22.9012 8.90224 23.0661 8.57247 23.3959 8.32514C23.5608 8.16025 23.7257 8.07781 23.8906 7.99537C25.6218 7.17095 27.3531 6.42896 29.1669 5.93431C30.5684 5.5221 31.9699 5.35721 33.3714 5.35721C34.9378 5.35721 36.3394 5.68698 37.8233 6.18164C39.8019 6.92362 41.6157 7.99537 43.1821 9.31445C44.0889 10.0564 44.8309 10.8809 45.6554 11.7877C45.9851 12.1999 46.3149 12.5297 46.5622 13.0244C46.6447 13.1892 46.8095 13.3541 46.892 13.519C47.0569 13.6839 47.2218 13.7663 47.3866 13.8488C48.1286 14.0137 48.953 14.0137 49.695 13.8488C50.8492 13.6839 51.921 13.3541 52.9103 12.6946C53.5698 12.2824 54.2294 11.7053 54.6416 11.0457C55.0538 10.3862 55.5484 9.8091 55.8782 9.06712C55.9607 8.90224 56.1255 8.73735 56.208 8.57247C56.5378 8.16026 56.95 7.91293 57.5271 7.91293C57.6095 7.91293 57.7744 7.91293 57.8568 7.91293C61.3194 7.91293 64.782 7.91293 68.1621 7.91293C69.3988 7.91293 70.6354 7.91293 71.872 7.91293C72.1194 7.91293 72.4491 7.91293 72.6965 7.99537C73.4385 8.16025 73.9331 8.73735 74.0155 9.47933C74.0155 9.97399 74.0155 10.4686 73.9331 10.9633C73.8507 11.7053 73.6858 12.4473 73.6033 13.1892C73.5209 13.6015 73.5209 14.0137 73.5209 14.3434C73.4385 15.2503 73.1087 16.0747 72.614 16.8992C72.2018 17.6411 71.6247 18.3831 71.0476 19.0427C70.553 19.5373 70.1408 20.1144 69.5637 20.5266C69.2339 20.8564 68.9041 21.1862 68.5743 21.5159C68.0797 22.093 67.6675 22.6701 67.4202 23.4121C67.2553 23.7419 67.1728 24.0716 67.0079 24.319C66.9255 24.4014 67.0079 24.5663 67.0079 24.6487C67.0904 24.8136 67.2553 24.9785 67.5026 25.1434C67.6675 25.2258 67.6675 25.2258 67.585 25.3907C67.585 25.4732 67.5026 25.5556 67.5026 25.7205C67.585 25.7205 67.6675 25.8029 67.7499 25.8029C71.7896 26.9571 74.84 30.1724 75.7468 34.2945C76.901 39.7357 74.0155 45.1769 68.9866 47.1555C67.5026 47.7326 65.9362 47.98 64.3698 47.98C60.5774 47.8151 57.1149 45.754 55.2187 42.4563C55.2187 42.3739 55.1362 42.3739 55.1362 42.2914C55.0538 42.3739 54.9713 42.4563 54.8889 42.5388C54.8065 42.7036 54.6416 42.7036 54.4767 42.7036C50.1072 42.7036 45.7378 42.7036 41.4508 42.7036C35.0203 42.7036 28.5898 42.7036 22.1593 42.7036C21.9119 42.7036 21.747 42.6212 21.4997 42.4563C21.3348 42.2914 21.1699 42.209 21.0051 42.0441C21.0051 42.1265 20.9226 42.1265 20.9226 42.209C19.2738 45.012 16.8829 46.8258 13.7501 47.5677C12.5135 47.8975 11.2769 47.8975 10.0402 47.8151C5.42344 47.3204 1.63109 44.0227 0.394455 39.4884C0.0646852 38.0869 -0.1002 36.7678 0.0646851 35.3663C0.55934 31.1617 3.27994 27.6167 7.15474 26.1327C7.15474 25.8029 7.23718 25.8029 7.23718 25.8029ZM11.112 43.5281C11.9364 43.5281 12.7608 43.3632 13.5852 43.1158C16.9654 41.8792 18.8616 38.3342 18.0371 34.7892C17.1303 30.7495 12.9257 28.3587 9.05091 29.5953C5.58833 30.667 3.44483 34.2945 4.26925 37.922C4.92879 41.1372 7.81427 43.5281 11.112 43.5281ZM64.8644 43.5281C65.6889 43.5281 66.5133 43.3632 67.3377 43.1158C70.7178 41.8792 72.614 38.2517 71.7896 34.7067C70.8003 30.667 66.5133 28.2762 62.4736 29.7602C59.1759 30.9968 57.2797 34.3769 58.0217 37.8395C58.5988 41.1372 61.4843 43.5281 64.8644 43.5281Z" fill="white" fill-opacity="0.5"/>
</svg>
