<svg width="329" height="149" viewBox="0 0 329 149" fill="none" xmlns="http://www.w3.org/2000/svg">
<g filter="url(#filter0_d_109_319)">
<rect x="17" y="17" width="285" height="105" rx="5.23244" fill="url(#paint0_linear_109_319)"/>
<path d="M48.142 88V49.3127H58.3718C62.8889 49.3127 66.4848 50.7475 69.1596 53.6172C71.8522 56.4868 73.225 60.4193 73.2781 65.4147V71.6854C73.2781 76.7693 71.9319 80.7638 69.2394 83.6689C66.5645 86.5563 62.8712 88 58.1593 88H48.142ZM55.9539 55.8226V81.5167H58.2921C60.8961 81.5167 62.7295 80.8347 63.7923 79.4707C64.8551 78.089 65.4131 75.7154 65.4663 72.3497V65.6272C65.4663 62.0136 64.9614 59.4982 63.9517 58.0811C62.942 56.6463 61.2238 55.8934 58.797 55.8226H55.9539ZM101.125 88H78.3266V82.6858L88.7956 69.3737C90.1241 67.5315 91.0984 65.9195 91.7184 64.5378C92.3561 63.1384 92.675 61.801 92.675 60.5256C92.675 58.8074 92.3738 57.4611 91.7715 56.4868C91.187 55.5126 90.3367 55.0254 89.2207 55.0254C87.9985 55.0254 87.0242 55.5923 86.2979 56.726C85.5894 57.8597 85.2351 59.4539 85.2351 61.5087H77.6889C77.6889 59.1351 78.1761 56.9651 79.1503 54.9989C80.1423 53.0326 81.524 51.5092 83.2954 50.4286C85.0845 49.3304 87.1039 48.7812 89.3536 48.7812C92.8078 48.7812 95.4826 49.7378 97.378 51.6509C99.2911 53.5463 100.248 56.2477 100.248 59.7551C100.248 61.9339 99.7163 64.1481 98.6534 66.3978C97.6083 68.6298 95.704 71.3843 92.9407 74.6614L87.9719 81.7558H101.125V88Z" fill="white"/>
<path d="M213.854 51.3662C213.854 51.4601 213.854 51.6479 213.854 51.7418C213.854 57.939 213.854 64.1362 213.854 70.3334C213.854 70.6151 213.854 70.8968 213.854 71.1785C213.854 72.0236 214.513 72.5869 215.266 72.5869C216.206 72.5869 217.147 72.5869 217.994 72.5869C218.84 72.5869 219.405 72.0236 219.405 71.1785C219.405 70.1456 219.405 69.0189 219.405 67.986C219.405 58.1268 219.405 48.3615 219.405 38.5024C219.405 38.3146 219.405 38.2207 219.405 38.0329C219.499 37.3756 220.063 37 220.722 37C220.816 37 220.91 37 221.004 37C238.125 37 255.247 37 272.368 37C272.556 37 272.744 37 272.933 37C273.685 37.1878 273.967 37.8451 273.967 38.4085C273.967 42.3521 273.967 46.2958 273.967 50.3334C273.967 63.385 273.967 76.5306 273.967 89.5823C273.967 90.1457 273.967 90.803 273.779 91.3663V91.4602C273.591 92.4931 272.933 93.1504 271.898 93.2443C271.427 93.3382 271.051 93.3382 270.581 93.3382C268.982 93.3382 267.288 93.3382 265.689 93.3382C265.501 93.3382 265.313 93.3382 265.219 93.3382C265.03 93.3382 265.03 93.3382 265.03 93.526C264.842 94.2771 264.56 94.9344 264.184 95.5917C262.302 98.972 259.574 101.038 255.811 101.789C249.791 102.916 243.958 99.4415 242.077 93.526C242.077 93.4321 241.982 93.3382 241.982 93.3382C233.61 93.3382 225.331 93.3382 216.959 93.3382C216.018 96.3429 214.231 98.7842 211.503 100.38C209.527 101.507 207.363 102.071 205.106 101.977C202.472 101.883 200.12 101.038 198.05 99.4415C195.981 97.8452 194.664 95.7795 193.817 93.2443C193.723 93.2443 193.629 93.2443 193.535 93.2443C191.559 93.2443 189.584 93.2443 187.514 93.2443C187.044 93.2443 186.573 93.2443 186.197 93.0565C184.974 92.587 184.315 91.7419 184.127 90.5213C184.127 90.4274 184.127 90.2396 184.127 90.1457C184.127 86.5776 184.127 83.0095 184.033 79.4414C184.033 76.9062 184.127 74.371 184.221 71.8358C184.221 70.9907 184.315 70.2395 184.409 69.3945C184.786 66.0142 185.727 62.9156 187.702 60.0987C190.148 56.7184 193.252 54.1831 197.109 52.5869C198.144 52.1174 199.179 51.9296 200.308 51.7418C201.813 51.554 203.412 51.4601 204.918 51.3662C207.646 51.2723 210.468 51.2723 213.196 51.3662C213.29 51.3662 213.572 51.3662 213.854 51.3662ZM212.443 90.0518C212.443 86.1081 209.245 82.9156 205.294 82.9156C201.343 82.9156 198.144 86.1081 198.144 90.0518C198.144 93.9955 201.343 97.1879 205.2 97.2818C209.245 97.1879 212.443 93.9955 212.443 90.0518ZM260.609 90.0518C260.609 86.1081 257.41 82.9156 253.459 82.9156C249.508 82.9156 246.31 86.1081 246.31 90.0518C246.31 93.9955 249.508 97.1879 253.459 97.1879C257.41 97.1879 260.609 93.9955 260.609 90.0518Z" fill="white"/>
</g>
<defs>
<filter id="filter0_d_109_319" x="0" y="0" width="329" height="149" filterUnits="userSpaceOnUse" color-interpolation-filters="sRGB">
<feFlood flood-opacity="0" result="BackgroundImageFix"/>
<feColorMatrix in="SourceAlpha" type="matrix" values="0 0 0 0 0 0 0 0 0 0 0 0 0 0 0 0 0 0 127 0" result="hardAlpha"/>
<feOffset dx="5" dy="5"/>
<feGaussianBlur stdDeviation="11"/>
<feComposite in2="hardAlpha" operator="out"/>
<feColorMatrix type="matrix" values="0 0 0 0 0.960784 0 0 0 0 0.490196 0 0 0 0 0.129412 0 0 0 0.2 0"/>
<feBlend mode="normal" in2="BackgroundImageFix" result="effect1_dropShadow_109_319"/>
<feBlend mode="normal" in="SourceGraphic" in2="effect1_dropShadow_109_319" result="shape"/>
</filter>
<linearGradient id="paint0_linear_109_319" x1="159.5" y1="17" x2="159.5" y2="122" gradientUnits="userSpaceOnUse">
<stop stop-color="#F58C1F"/>
<stop offset="1" stop-color="#F57D21"/>
</linearGradient>
</defs>
</svg>
