<svg width="90" height="65" viewBox="0 0 90 65" fill="none" xmlns="http://www.w3.org/2000/svg">
<path d="M29.8545 14.3662C29.8545 14.4601 29.8545 14.6479 29.8545 14.7418C29.8545 20.939 29.8545 27.1362 29.8545 33.3334C29.8545 33.6151 29.8545 33.8968 29.8545 34.1785C29.8545 35.0236 30.513 35.5869 31.2656 35.5869C32.2063 35.5869 33.1471 35.5869 33.9937 35.5869C34.8404 35.5869 35.4048 35.0236 35.4048 34.1785C35.4048 33.1456 35.4048 32.0189 35.4048 30.986C35.4048 21.1268 35.4048 11.3615 35.4048 1.50235C35.4048 1.31456 35.4048 1.22066 35.4048 1.03287C35.4989 0.375588 36.0633 0 36.7218 0C36.8159 0 36.91 0 37.0041 0C54.1254 0 71.2468 0 88.3682 0C88.5563 0 88.7445 0 88.9326 0C89.6852 0.187794 89.9674 0.845073 89.9674 1.40845C89.9674 5.35213 89.9674 9.2958 89.9674 13.3334C89.9674 26.385 89.9674 39.5306 89.9674 52.5823C89.9674 53.1457 89.9674 53.803 89.7793 54.3663V54.4602C89.5911 55.4931 88.9326 56.1504 87.8978 56.2443C87.4274 56.3382 87.0511 56.3382 86.5808 56.3382C84.9815 56.3382 83.2882 56.3382 81.689 56.3382C81.5008 56.3382 81.3127 56.3382 81.2186 56.3382C81.0304 56.3382 81.0304 56.3382 81.0304 56.526C80.8423 57.2771 80.5601 57.9344 80.1838 58.5917C78.3023 61.972 75.5742 64.0377 71.8112 64.7889C65.7906 65.9157 59.958 62.4415 58.0765 56.526C58.0765 56.4321 57.9824 56.3382 57.9824 56.3382C49.6099 56.3382 41.3314 56.3382 32.9589 56.3382C32.0182 59.3429 30.2308 61.7842 27.5026 63.3804C25.5271 64.5072 23.3634 65.0706 21.1057 64.9767C18.4716 64.8828 16.1198 64.0377 14.0501 62.4415C11.9805 60.8452 10.6635 58.7795 9.81684 56.2443C9.72277 56.2443 9.6287 56.2443 9.53462 56.2443C7.55908 56.2443 5.58354 56.2443 3.51392 56.2443C3.04355 56.2443 2.57319 56.2443 2.19689 56.0565C0.973938 55.587 0.315423 54.7419 0.127276 53.5213C0.127276 53.4274 0.127276 53.2396 0.127276 53.1457C0.127276 49.5776 0.127277 46.0095 0.0332031 42.4414C0.0332031 39.9062 0.127277 37.371 0.22135 34.8358C0.22135 33.9907 0.315423 33.2395 0.409497 32.3945C0.785791 29.0142 1.72653 25.9156 3.70207 23.0987C6.14798 19.7184 9.2524 17.1831 13.1094 15.5869C14.1442 15.1174 15.179 14.9296 16.3079 14.7418C17.8131 14.554 19.4123 14.4601 20.9175 14.3662C23.6456 14.2723 26.4678 14.2723 29.196 14.3662C29.29 14.3662 29.5723 14.3662 29.8545 14.3662ZM28.4434 53.0518C28.4434 49.1081 25.2449 45.9156 21.2938 45.9156C17.3427 45.9156 14.1442 49.1081 14.1442 53.0518C14.1442 56.9955 17.3427 60.1879 21.1997 60.2818C25.2449 60.1879 28.4434 56.9955 28.4434 53.0518ZM76.609 53.0518C76.609 49.1081 73.4105 45.9156 69.4594 45.9156C65.5083 45.9156 62.3098 49.1081 62.3098 53.0518C62.3098 56.9955 65.5083 60.1879 69.4594 60.1879C73.4105 60.1879 76.609 56.9955 76.609 53.0518Z" fill="white"/>
</svg>
