<svg width="380" height="50" viewBox="0 0 380 50" fill="none" xmlns="http://www.w3.org/2000/svg">
<path fill-rule="evenodd" clip-rule="evenodd" d="M13.9006 46.4177L1.95064 27.9006V27.8951C1.31735 26.9144 0.980639 25.773 0.980639 24.607C0.980639 23.441 1.31735 22.2996 1.95064 21.3189L13.8933 2.79627C14.4462 1.93864 15.2066 1.23313 16.1048 0.744538C17.0029 0.255944 18.0099 -6.84642e-05 19.0332 1.80768e-05L220.406 0H226.411L360.987 0.00138418C362.01 0.00129755 363.017 0.25731 363.915 0.745904C364.813 1.2345 365.574 1.94001 366.127 2.79763L378.069 21.3203C378.702 22.301 379.039 23.4424 379.039 24.6084C379.039 25.7744 378.702 26.9158 378.069 27.8965V27.9019L366.119 46.4191C365.566 47.2767 364.806 47.9822 363.908 48.4708C363.01 48.9594 362.003 49.2154 360.979 49.2154L226.418 49.214H220.398L19.0405 49.214C18.0172 49.2141 17.0102 48.9581 16.1121 48.4695C15.214 47.9809 14.4535 47.2754 13.9006 46.4177Z" fill="url(#paint0_linear_85_475)"/>
<defs>
<linearGradient id="paint0_linear_85_475" x1="190.01" y1="49.2154" x2="190.01" y2="2.60096e-07" gradientUnits="userSpaceOnUse">
<stop stop-color="#5CCC94"/>
<stop offset="1" stop-color="#8CCAAE"/>
</linearGradient>
</defs>
</svg>
