<svg width="29" height="28" viewBox="0 0 29 28" fill="none" xmlns="http://www.w3.org/2000/svg">
<path d="M28.6657 13.9991C28.6657 6.26692 22.3988 0 14.6678 0C6.93684 0 0.669922 6.26692 0.669922 13.9991C0.669922 20.9846 5.78891 26.7755 12.4805 27.8255V18.0448H8.92704V13.9979H12.4805V10.9146C12.4805 7.40551 14.571 5.4678 17.7674 5.4678C19.2992 5.4678 20.9009 5.74078 20.9009 5.74078V9.18572H19.137C17.3988 9.18572 16.8563 10.2648 16.8563 11.3719V13.9991H20.7387L20.1181 18.046H16.8563V27.8266C23.5479 26.7767 28.6669 20.9858 28.6669 13.9991H28.6657Z" fill="#F5F6F9"/>
</svg>
