<svg width="21" height="21" viewBox="0 0 21 21" fill="none" xmlns="http://www.w3.org/2000/svg">
<path d="M17.7665 15.6987L16.9832 14.9154C17.3915 14.2987 17.6332 13.557 17.6332 12.757C17.6332 10.5904 15.8749 8.83203 13.7082 8.83203C11.5415 8.83203 9.7832 10.5904 9.7832 12.757C9.7832 14.9237 11.5415 16.682 13.7082 16.682C14.5082 16.682 15.2415 16.4404 15.8665 16.032L16.6499 16.8154C16.8082 16.9737 17.0082 17.0487 17.2165 17.0487C17.4249 17.0487 17.6249 16.9737 17.7832 16.8154C18.0749 16.5154 18.0749 16.0154 17.7665 15.6987Z" fill="url(#paint0_linear_117_477)"/>
<path d="M16.8176 3.8513V5.7013C16.8176 6.3763 16.4009 7.21797 15.9842 7.64297L15.8342 7.7763C15.7176 7.88463 15.5426 7.90964 15.3926 7.85964C15.2259 7.8013 15.0592 7.75963 14.8926 7.71797C14.5259 7.6263 14.1342 7.58464 13.7342 7.58464C10.8592 7.58464 8.52591 9.91797 8.52591 12.793C8.52591 13.743 8.78425 14.6763 9.27591 15.4763C9.69258 16.1763 10.2759 16.7596 10.9092 17.1513C11.1009 17.2763 11.1759 17.543 11.0092 17.693C10.9509 17.743 10.8926 17.7846 10.8342 17.8263L9.66758 18.5846C8.58425 19.2596 7.09258 18.5013 7.09258 17.1513V12.693C7.09258 12.1013 6.75924 11.343 6.42591 10.9263L3.26758 7.55964C2.85091 7.13464 2.51758 6.3763 2.51758 5.8763V3.93464C2.51758 2.9263 3.26758 2.16797 4.17591 2.16797H15.1592C16.0676 2.16797 16.8176 2.9263 16.8176 3.8513Z" fill="url(#paint1_linear_117_477)"/>
<defs>
<linearGradient id="paint0_linear_117_477" x1="13.8916" y1="8.83203" x2="13.8916" y2="17.0487" gradientUnits="userSpaceOnUse">
<stop stop-color="#F58C1F"/>
<stop offset="1" stop-color="#F57D21"/>
</linearGradient>
<linearGradient id="paint1_linear_117_477" x1="9.66758" y1="2.16797" x2="9.66758" y2="18.8354" gradientUnits="userSpaceOnUse">
<stop stop-color="#F58C1F"/>
<stop offset="1" stop-color="#F57D21"/>
</linearGradient>
</defs>
</svg>
