<svg width="29" height="28" viewBox="0 0 29 28" fill="none" xmlns="http://www.w3.org/2000/svg">
<path d="M14.0434 0C10.2405 0 9.7657 0.0174981 8.27253 0.0839909C6.78169 0.153983 5.7668 0.388458 4.8744 0.73492C3.954 1.09188 3.17242 1.57133 2.39433 2.34941C1.61625 3.12749 1.13564 3.90791 0.779842 4.82948C0.43338 5.72188 0.197739 6.73677 0.128913 8.22761C0.0589204 9.72078 0.0449219 10.1956 0.0449219 13.9985C0.0449219 17.8014 0.06242 18.2762 0.128913 19.7694C0.198905 21.259 0.43338 22.2751 0.779842 23.1675C1.13131 24.1017 1.68227 24.9481 2.39433 25.6476C3.09341 26.3601 3.93988 26.9111 4.8744 27.262C5.76797 27.6073 6.78286 27.8441 8.27253 27.913C9.7657 27.983 10.2405 27.997 14.0434 27.997C17.8463 27.997 18.3211 27.9795 19.8143 27.913C21.3039 27.843 22.32 27.6073 23.2124 27.262C24.1464 26.9101 24.9927 26.3592 25.6925 25.6476C26.4053 24.9487 26.9563 24.1021 27.307 23.1675C27.6523 22.2751 27.8891 21.259 27.9579 19.7694C28.0279 18.2762 28.0419 17.8014 28.0419 13.9985C28.0419 10.1956 28.0244 9.72078 27.9579 8.22761C27.8879 6.73794 27.6523 5.72071 27.307 4.82948C26.9553 3.89533 26.4044 3.04902 25.6925 2.34941C24.9939 1.63624 24.1473 1.0851 23.2124 0.73492C22.32 0.388458 21.3039 0.152817 19.8143 0.0839909C18.3211 0.0139985 17.8463 0 14.0434 0ZM14.0434 2.51973C17.7798 2.51973 18.2255 2.53839 19.7011 2.60255C21.066 2.66671 21.8067 2.89302 22.299 3.08667C22.9546 3.3398 23.4189 3.64311 23.9112 4.13189C24.3999 4.62183 24.7032 5.08728 24.9564 5.74288C25.1477 6.23516 25.3763 6.97591 25.4382 8.34076C25.5047 9.8176 25.5198 10.2609 25.5198 13.9985C25.5198 17.7361 25.5023 18.1805 25.4335 19.6562C25.3623 21.0211 25.1349 21.7618 24.9424 22.2541C24.7147 22.8616 24.3567 23.4118 23.8937 23.8662C23.4412 24.3297 22.8913 24.6867 22.2838 24.9115C21.7939 25.1028 21.0415 25.3314 19.6766 25.3932C18.1905 25.4597 17.753 25.4749 14.0084 25.4749C10.2626 25.4749 9.82519 25.4574 8.34019 25.3886C6.97417 25.3174 6.22175 25.0899 5.7318 24.8975C5.12393 24.6726 4.57422 24.3142 4.12315 23.8487C3.65488 23.3993 3.29574 22.8486 3.07326 22.2389C2.88078 21.749 2.65447 20.9966 2.58331 19.6317C2.53082 18.1619 2.51215 17.7081 2.51215 13.981C2.51215 10.2527 2.53082 9.79777 2.58331 8.31043C2.65447 6.94558 2.88078 6.19433 3.07326 5.70438C3.31823 5.03945 3.63203 4.5845 4.12315 4.09339C4.61193 3.60461 5.06804 3.28964 5.7318 3.04584C6.22175 2.85219 6.95784 2.62472 8.32269 2.55472C9.81003 2.50223 10.2475 2.48473 13.9909 2.48473L14.0434 2.51973ZM14.0434 6.81026C13.0994 6.81026 12.1647 6.99619 11.2926 7.35743C10.4205 7.71867 9.62805 8.24815 8.96056 8.91564C8.29308 9.58313 7.7636 10.3756 7.40235 11.2477C7.04111 12.1198 6.85518 13.0545 6.85518 13.9985C6.85518 14.9425 7.04111 15.8772 7.40235 16.7493C7.7636 17.6214 8.29308 18.4138 8.96056 19.0813C9.62805 19.7488 10.4205 20.2783 11.2926 20.6395C12.1647 21.0008 13.0994 21.1867 14.0434 21.1867C15.9498 21.1867 17.7782 20.4294 19.1262 19.0813C20.4743 17.7333 21.2316 15.9049 21.2316 13.9985C21.2316 12.092 20.4743 10.2637 19.1262 8.91564C17.7782 7.56759 15.9498 6.81026 14.0434 6.81026ZM14.0434 18.6646C11.4654 18.6646 9.37724 16.5765 9.37724 13.9985C9.37724 11.4204 11.4654 9.33232 14.0434 9.33232C16.6215 9.33232 18.7096 11.4204 18.7096 13.9985C18.7096 16.5765 16.6215 18.6646 14.0434 18.6646ZM23.1961 6.52679C23.1799 6.96147 22.9958 7.37295 22.6825 7.67475C22.3693 7.97655 21.9512 8.14516 21.5163 8.14516C21.0813 8.14516 20.6632 7.97655 20.35 7.67475C20.0367 7.37295 19.8526 6.96147 19.8364 6.52679C19.8364 6.08128 20.0134 5.65401 20.3284 5.33898C20.6435 5.02395 21.0707 4.84697 21.5163 4.84697C21.9618 4.84697 22.389 5.02395 22.7041 5.33898C23.0191 5.65401 23.1961 6.08128 23.1961 6.52679Z" fill="#F5F6F9"/>
</svg>
