<svg width="46" height="48" viewBox="0 0 46 48" fill="none" xmlns="http://www.w3.org/2000/svg">
<path d="M20.8063 3.58683L20.4201 4.1941C20.2972 4.38375 20.1507 4.61822 20.5326 4.86612C21.2429 5.2855 21.9792 5.6594 22.737 5.98555C22.7727 6.01891 22.8359 6.02933 22.8837 6.04971L1.62159 28.7598C0.916302 29.5131 -0.791181 33.0511 2.07594 35.7354L13.0261 45.9874C15.715 48.5049 18.4495 45.9283 19.1547 45.175L40.4351 22.4455C40.4751 22.5196 40.512 22.5906 40.5458 22.6649C40.9216 23.401 41.3442 24.1121 41.811 24.7939C42.0803 25.1557 42.3046 24.994 42.489 24.862L43.0696 24.4367C44.2215 23.5959 42.8756 22.092 42.8756 22.092L41.9162 20.7855C43.7708 18.415 47.5575 12.5523 43.4755 8.73054L36.3903 2.0971C32.6647 -1.39099 26.8309 2.5674 24.4968 4.48902L23.1495 3.63587C23.1495 3.63587 21.5695 2.38202 20.8063 3.58683ZM15.3071 42.7913C13.2698 41.4933 5.74404 34.4473 4.31482 32.4999C3.99618 32.0675 4.01649 31.5199 4.3494 31.3136L7.47194 29.2771L18.3411 39.4533L16.4852 42.6757C16.2951 43.0217 15.7564 43.0841 15.3071 42.7913ZM19.7846 42.0478L20.0136 38.3747L24.6861 33.3839L26.3967 34.9854L19.7846 42.0478ZM27.2205 34.1054L25.51 32.5039L32.9155 24.5941L36.5656 24.1239L27.2205 34.1054ZM42.6804 9.62524C44.2225 11.069 44.1755 12.853 43.4846 14.552C43.2585 14.6571 42.9959 14.7038 42.7682 14.2652C42.2908 13.3016 41.8801 12.3062 41.5388 11.2862C41.2894 10.5591 40.8771 9.75269 41.6079 8.61499L42.6804 9.62524ZM35.605 3.0009L36.6903 4.01699C35.5936 4.81823 34.7649 4.45667 34.0294 4.26168C32.988 3.98717 31.9667 3.64177 30.9727 3.22787C30.5424 3.03821 30.5526 2.76752 30.6394 2.53194C32.277 1.73743 34.0631 1.56342 35.6019 3.00415L35.605 3.0009ZM27.6477 6.40922C30.8303 8.43837 37.5721 14.7503 39.803 17.7895C40.2961 18.4705 40.2568 19.3112 39.7486 19.6397L34.789 22.9176C34.541 23.0707 34.2444 23.1246 33.9588 23.0685C33.6732 23.0124 33.4195 22.8503 33.2487 22.6149C31.6123 20.3822 25.6157 14.7679 23.2802 13.282C23.034 13.127 22.8556 12.8845 22.7808 12.6032C22.706 12.3219 22.7403 12.0224 22.8767 11.7648L25.8213 6.60033C26.0964 6.05971 26.9326 5.96521 27.6447 6.41247L27.6477 6.40922ZM21.5499 10.0717L21.3241 13.7478L13.9186 21.6577L12.2048 20.0532L21.5499 10.0717ZM11.381 20.9331L13.0947 22.5377L8.42218 27.5284L4.76886 27.9955L11.381 20.9331Z" fill="#1B1B1B"/>
</svg>
