<svg width="48" height="48" viewBox="0 0 48 48" fill="none" xmlns="http://www.w3.org/2000/svg">
<path d="M41.2421 16.9C39.1421 7.66 31.0821 3.5 24.0021 3.5H23.9821C16.9221 3.5 8.84214 7.64 6.74214 16.88C4.40214 27.2 10.7221 35.94 16.4421 41.44C18.4696 43.4024 21.1805 44.4997 24.0021 44.5C26.7221 44.5 29.4421 43.48 31.5421 41.44C37.2621 35.94 43.5821 27.22 41.2421 16.9ZM24.0021 26.92C23.1748 26.92 22.3556 26.757 21.5912 26.4404C20.8269 26.1238 20.1324 25.6598 19.5474 25.0748C18.9624 24.4898 18.4983 23.7953 18.1817 23.0309C17.8651 22.2666 17.7021 21.4473 17.7021 20.62C17.7021 19.7927 17.8651 18.9734 18.1817 18.2091C18.4983 17.4447 18.9624 16.7502 19.5474 16.1652C20.1324 15.5802 20.8269 15.1162 21.5912 14.7996C22.3556 14.483 23.1748 14.32 24.0021 14.32C25.673 14.32 27.2754 14.9837 28.4569 16.1652C29.6384 17.3467 30.3021 18.9491 30.3021 20.62C30.3021 22.2909 29.6384 23.8933 28.4569 25.0748C27.2754 26.2563 25.673 26.92 24.0021 26.92Z" fill="url(#paint0_linear_278_1754)"/>
<defs>
<linearGradient id="paint0_linear_278_1754" x1="23.9921" y1="44.5" x2="23.9921" y2="3.5" gradientUnits="userSpaceOnUse">
<stop stop-color="#5CCC94"/>
<stop offset="1" stop-color="#8CCAAE"/>
</linearGradient>
</defs>
</svg>
