<svg width="49" height="48" viewBox="0 0 49 48" fill="none" xmlns="http://www.w3.org/2000/svg">
<path d="M39.4624 5.63751L40.0224 6.77751C40.3024 7.33751 41.0024 7.85751 41.6224 7.97751L42.3824 8.09751C44.6624 8.47751 45.2024 10.1575 43.5624 11.8175L42.8624 12.5175C42.4024 12.9975 42.1424 13.9175 42.2824 14.5575L42.3824 14.9775C43.0024 17.7375 41.5424 18.7975 39.1424 17.3575L38.6224 17.0575C38.0024 16.6975 37.0024 16.6975 36.3824 17.0575L35.8624 17.3575C33.4424 18.8175 31.9824 17.7375 32.6224 14.9775L32.7224 14.5575C32.8624 13.9175 32.6024 12.9975 32.1424 12.5175L31.4424 11.7975C29.8024 10.1375 30.3424 8.45751 32.6224 8.07751L33.3824 7.95751C33.9824 7.85751 34.7024 7.31751 34.9824 6.75751L35.5424 5.61751C36.6224 3.45751 38.3824 3.45751 39.4624 5.63751Z" fill="url(#paint0_linear_278_1639)"/>
<path d="M43.64 20.18C42.92 20.7 40.9 21.66 38.02 20.18C37.8595 20.0962 37.6811 20.0525 37.5 20.0525C37.3189 20.0525 37.1405 20.0962 36.98 20.18C35.84 20.76 34.8 21 33.98 21C32.7 21 31.8 20.5 31.36 20.18C30.62 19.64 29.06 18.1 29.6 14.84C29.6286 14.6738 29.6201 14.5034 29.5752 14.3409C29.5302 14.1784 29.4499 14.0278 29.34 13.9C27.96 12.32 27.2 10.2 27.74 8.54C27.94 7.88 27.52 7 26.84 7H14.5C8.5 7 4.5 10 4.5 17V31C4.5 38 8.5 41 14.5 41H34.5C40.5 41 44.5 38 44.5 31V20.54C44.5 20.16 43.96 19.96 43.64 20.18ZM29.18 24.18C27.86 25.24 26.18 25.76 24.5 25.76C22.82 25.76 21.12 25.24 19.82 24.18L13.56 19.18C13.254 18.926 13.0581 18.5635 13.0134 18.1683C12.9687 17.7731 13.0785 17.376 13.32 17.06C13.84 16.42 14.78 16.3 15.42 16.82L21.68 21.82C23.2 23.04 25.78 23.04 27.3 21.82C27.94 21.3 28.88 21.4 29.4 22.06C29.94 22.7 29.84 23.66 29.18 24.18Z" fill="url(#paint1_linear_278_1639)"/>
<defs>
<linearGradient id="paint0_linear_278_1639" x1="37.5024" y1="18.009" x2="37.5024" y2="4" gradientUnits="userSpaceOnUse">
<stop stop-color="#5CCC94"/>
<stop offset="1" stop-color="#8CCAAE"/>
</linearGradient>
<linearGradient id="paint1_linear_278_1639" x1="24.5" y1="41" x2="24.5" y2="7" gradientUnits="userSpaceOnUse">
<stop stop-color="#5CCC94"/>
<stop offset="1" stop-color="#8CCAAE"/>
</linearGradient>
</defs>
</svg>
