<svg width="49" height="48" viewBox="0 0 49 48" fill="none" xmlns="http://www.w3.org/2000/svg">
<path d="M15.7601 7.1396C16.1161 6.9436 16.5001 7.2436 16.5001 7.6536V34.7656C16.5001 35.2116 16.1941 35.5896 15.8001 35.7976C15.7867 35.8042 15.7734 35.8108 15.7601 35.8176L11.0601 38.4976C7.78008 40.3776 5.08008 38.8176 5.08008 35.0176V15.5596C5.08008 14.2996 5.98008 12.7396 7.10008 12.0996L15.7601 7.1396V7.1396ZM29.9441 12.2056C30.1107 12.2882 30.251 12.4156 30.3493 12.5735C30.4475 12.7314 30.4997 12.9136 30.5001 13.0996V39.4056C30.4999 39.5747 30.4569 39.7411 30.375 39.889C30.293 40.037 30.1749 40.1618 30.0317 40.2517C29.8884 40.3416 29.7247 40.3937 29.5558 40.4031C29.387 40.4126 29.2185 40.379 29.0661 40.3056L20.5661 36.2116C20.3967 36.13 20.2537 36.0022 20.1536 35.8431C20.0535 35.6839 20.0003 35.4997 20.0001 35.3116V8.8936C19.9997 8.72328 20.0429 8.5557 20.1255 8.40674C20.2081 8.25778 20.3274 8.13238 20.472 8.04244C20.6166 7.95249 20.7818 7.90098 20.952 7.89278C21.1221 7.88459 21.2915 7.91998 21.4441 7.9956L29.9441 12.2056ZM44.5001 12.9796V32.4396C44.5001 33.6996 43.6001 35.2596 42.4801 35.8996L35.4981 39.9016C35.346 39.989 35.1736 40.0348 34.9982 40.0344C34.8227 40.0341 34.6505 39.9876 34.4987 39.8997C34.347 39.8117 34.221 39.6854 34.1335 39.5334C34.0459 39.3814 33.9999 39.209 34.0001 39.0336V12.6596C34.0001 12.4833 34.0468 12.3102 34.1353 12.1578C34.2238 12.0054 34.351 11.879 34.5041 11.7916L38.5201 9.4996C41.8001 7.6196 44.5001 9.1796 44.5001 12.9796Z" fill="white"/>
</svg>
