<svg width="112" height="118" viewBox="0 0 112 118" fill="none" xmlns="http://www.w3.org/2000/svg">
<path fill-rule="evenodd" clip-rule="evenodd" d="M69.376 95.7169C85.9816 90.0897 97.9328 74.3744 97.9328 55.8677C97.9328 32.6358 79.0996 13.8026 55.8677 13.8026C32.6358 13.8026 13.8026 32.6358 13.8026 55.8677C13.8026 74.1511 25.4672 89.7101 41.7604 95.5088C40.0165 98.1253 39 101.268 39 104.648C39 106.284 39.2378 107.863 39.6808 109.354C16.7191 102.415 0 81.0937 0 55.8677C0 25.0128 25.0128 0 55.8677 0C86.7225 0 111.735 25.0128 111.735 55.8677C111.735 81.3886 94.6231 102.913 71.2467 109.592C71.7362 108.031 72 106.371 72 104.648C72 101.357 71.0364 98.2912 69.376 95.7169Z" fill="url(#paint0_linear_371_808)"/>
<path fill-rule="evenodd" clip-rule="evenodd" d="M55.8147 36.0627C55.7072 36.0269 55.5997 36.009 55.546 36C55.0981 36.009 54.8562 36.224 54.7308 36.6898C54.1037 38.8218 53.4767 40.9515 52.8496 43.0813C52.2225 45.2111 51.5955 47.3409 50.9684 49.4729C50.1488 52.2453 49.3314 55.0199 48.514 57.7945C47.6966 60.5694 46.8791 63.3444 46.0594 66.1171C45.8892 66.6635 46.0862 67.0397 46.6148 67.201L69.2698 73.9464C69.7983 74.1077 70.1745 73.9016 70.3268 73.3731C71.7734 68.4602 73.2222 63.545 74.671 58.6298C76.1201 53.7135 77.5692 48.7972 79.0161 43.8831C79.1774 43.3098 78.9893 42.9604 78.4159 42.7902C74.6493 41.6705 70.8826 40.5486 67.1159 39.4266C63.3488 38.3046 59.5818 37.1825 55.8147 36.0627ZM50.6369 55.2778C50.6728 55.1613 50.7086 55.0449 50.7534 54.9015C51.3268 55.0592 51.8772 55.2169 52.4277 55.3746C52.5652 55.414 52.7027 55.4534 52.8406 55.4928C55.9799 56.3929 59.117 57.2931 62.2541 58.1932C65.3921 59.0936 68.5302 59.9941 71.6705 60.8945C71.6991 60.904 71.7282 60.9129 71.7575 60.9218C71.8386 60.9465 71.9206 60.9715 71.993 61.011C72.3513 61.1812 72.4588 61.432 72.3424 61.8172C72.3014 61.932 72.2679 62.0393 72.2282 62.1665L72.217 62.2024C72.0366 62.1509 71.8574 62.1005 71.6794 62.0504C71.3622 61.9613 71.0487 61.8732 70.7389 61.7814L51.3357 56.2184C51.2998 56.2064 51.264 56.1955 51.2282 56.1845C51.1565 56.1626 51.0848 56.1407 51.0132 56.1109C50.6369 55.9407 50.5205 55.6719 50.6369 55.2778ZM53.7723 44.6264C53.8171 44.4921 53.8619 44.3578 53.9156 44.1877C54.4889 44.3489 55.0443 44.5102 55.6087 44.6804C56.7764 45.0147 57.9444 45.349 59.1126 45.6834C64.361 47.1857 69.6133 48.6891 74.8596 50.1986C74.994 50.2344 75.1373 50.2881 75.2537 50.3598C75.5314 50.539 75.6121 50.7629 75.5135 51.0764L75.5134 51.077C75.4686 51.2112 75.4239 51.3454 75.3792 51.4885C74.5104 51.2378 73.6596 50.9959 72.8088 50.7541L72.8082 50.754C69.7403 49.8717 66.6724 48.9916 63.6045 48.1115C60.5361 47.2313 57.4677 46.3511 54.3993 45.4687C54.256 45.4239 54.1037 45.3612 53.9783 45.2716C53.7454 45.1014 53.6916 44.8954 53.7723 44.6266L53.7723 44.6264ZM53.0745 47.0204C53.0918 46.9681 53.1095 46.9141 53.1273 46.8572C53.2386 46.8894 53.3495 46.9215 53.4601 46.9536C54.3021 47.1974 55.1256 47.4359 55.9491 47.6813C61.9772 49.4011 67.9963 51.1298 74.0154 52.8585L74.0175 52.8591C74.1967 52.9129 74.3848 52.9935 74.5371 53.101C74.7521 53.2533 74.8238 53.4683 74.7342 53.728C74.7007 53.8118 74.6741 53.8991 74.6459 53.992C74.6288 54.0481 74.6111 54.1063 74.5909 54.167C74.0444 54.0147 73.5159 53.8624 72.9874 53.7101C66.5465 51.8558 60.1056 50.0104 53.6648 48.1651C53.5483 48.1292 53.4319 48.0934 53.3244 48.0397C52.9929 47.8605 52.8944 47.6097 53.0019 47.2513C53.0235 47.1757 53.0484 47.1 53.0745 47.0204ZM70.0401 66.9143C69.9954 67.0487 69.9506 67.1831 69.9058 67.3354C69.7855 67.3012 69.6656 67.2671 69.5459 67.2331C69.0054 67.0793 68.4687 66.9266 67.926 66.78C65.3888 66.0524 62.853 65.3263 60.3182 64.6005C56.7674 63.5838 53.2185 62.5677 49.6695 61.5484L49.6695 61.5484C49.553 61.5126 49.4366 61.4768 49.3291 61.4141C49.0155 61.2439 48.926 61.002 49.0334 60.6616C49.0484 60.6168 49.0633 60.573 49.0782 60.5292C49.1081 60.4416 49.138 60.354 49.1678 60.2585C49.6315 60.3862 50.08 60.5138 50.5286 60.6415C50.678 60.684 50.8274 60.7266 50.9774 60.7691C52.0938 61.0885 53.2106 61.408 54.3276 61.7275C59.3496 63.1641 64.3754 64.6017 69.3952 66.0454C69.5295 66.0902 69.6729 66.1439 69.7893 66.2156C70.067 66.3858 70.1387 66.6008 70.0401 66.9143ZM52.1957 49.9656C52.2405 49.8312 52.2852 49.6969 52.33 49.5446C52.4981 49.5923 52.6649 49.6394 52.8308 49.6862C53.3193 49.8241 53.7991 49.9596 54.2739 50.1C57.078 50.9018 59.8842 51.7036 62.6905 52.5054C65.4965 53.3071 68.3024 54.1088 71.1062 54.9105C71.2495 54.9463 71.3839 55.0001 71.5003 55.0807C71.7691 55.2599 71.8318 55.4659 71.7422 55.7705C71.6974 55.9049 71.6526 56.0392 71.6078 56.1915C71.4467 56.1467 71.3123 56.1109 71.1781 56.0751L71.1778 56.0751C65.0647 54.3297 58.9604 52.5844 52.8562 50.839L52.8406 50.8346C52.7063 50.7898 52.5629 50.736 52.4465 50.6644C52.1688 50.4852 52.0971 50.2792 52.1957 49.9656L52.1957 49.9656ZM69.01 63.6984C68.9652 63.8328 68.9204 63.9671 68.8756 64.1194C67.8234 63.8172 66.7842 63.5216 65.754 63.2285C65.074 63.035 64.3979 62.8426 63.7247 62.6503C61.2453 61.9448 58.7687 61.2364 56.2934 60.5284C54.3686 59.9779 52.4445 59.4275 50.5205 58.8789C50.3861 58.8341 50.2517 58.7894 50.1263 58.7177C49.8307 58.5475 49.7501 58.3146 49.8486 57.9921C49.8694 57.9141 49.8932 57.8391 49.9183 57.7602C49.9364 57.7031 49.9552 57.6439 49.974 57.58C50.1732 57.6364 50.3708 57.6912 50.5675 57.7457C50.8396 57.8212 51.11 57.8962 51.3805 57.9742C52.6354 58.3327 53.8909 58.6913 55.1466 59.05C59.538 60.3042 63.9336 61.5596 68.3292 62.8205C68.4725 62.8653 68.6248 62.919 68.7591 62.9996C69.0368 63.1699 69.0995 63.3848 69.01 63.6984L69.01 63.6984ZM64.4931 45.2506C64.4887 45.2564 64.4834 45.2633 64.4772 45.2716C64.1182 45.1734 63.7608 45.0767 63.4043 44.9803C62.9157 44.8482 62.4289 44.7165 61.942 44.5818C60.8313 44.2773 59.7229 43.9727 58.6144 43.6682C57.5058 43.3636 56.3971 43.059 55.2862 42.7544C54.6322 42.5752 54.4531 42.2527 54.6591 41.6078C54.7487 41.3301 54.8383 41.0524 54.9368 40.7478C55.1924 40.8199 55.4433 40.8872 55.6893 40.9532C55.7795 40.9774 55.8691 41.0014 55.958 41.0255C57.3376 41.4062 58.7149 41.7847 60.0922 42.1632C61.4695 42.5416 62.8468 42.9201 64.2264 43.3008C64.7728 43.4531 64.9699 43.8114 64.7997 44.34C64.7504 44.4878 64.7034 44.6333 64.6563 44.7789C64.6093 44.9245 64.5623 45.0701 64.513 45.2179C64.513 45.2247 64.5077 45.2316 64.4931 45.2506ZM51.8483 41.0208C51.9339 40.7299 52.0196 40.4386 52.1057 40.1463C52.0701 40.1463 52.0392 40.1451 52.0109 40.1441C51.9607 40.1422 51.9186 40.1406 51.8728 40.1463H39.8779C39.2867 40.1463 39 40.433 39 41.0152V71.7683C39 72.3596 39.2777 72.6373 39.8689 72.6373H59.084H59.2811C59.2273 72.5835 59.1557 72.5566 59.093 72.5387C56.7057 71.8266 54.3162 71.1144 51.9267 70.4023C49.5371 69.6901 47.1474 68.9779 44.76 68.2657C44.133 68.0776 43.9538 67.7372 44.1419 67.1101C44.2226 66.8324 44.3032 66.5547 44.3928 66.2502H43.9359H40.9529C40.6841 66.2502 40.4781 66.1606 40.3616 65.9097C40.1825 65.5246 40.4691 65.1125 40.926 65.1125C42.1264 65.1035 43.3357 65.1035 44.5361 65.1125C44.6973 65.1125 44.769 65.0677 44.8048 64.9154C44.8777 64.6459 44.9564 64.3824 45.0363 64.1151C45.0546 64.0537 45.0731 63.992 45.0915 63.93C45.1212 63.8113 45.157 63.6925 45.199 63.5534C45.2077 63.5246 45.2166 63.4949 45.2259 63.4642H44.9571H42.9774H40.9349C40.6752 63.4642 40.4691 63.3657 40.3616 63.1238C40.1825 62.7296 40.4691 62.3176 40.926 62.3176C42.4041 62.3086 43.8732 62.3086 45.3513 62.3176C45.5215 62.3176 45.5842 62.2549 45.629 62.1026C45.7236 61.7603 45.8242 61.424 45.9259 61.084C45.9493 61.0057 45.9728 60.9272 45.9963 60.8484C46.0063 60.8183 46.0107 60.7881 46.0158 60.7531C46.0198 60.7258 46.0242 60.6957 46.0321 60.6603H45.7544H41.0872C40.9887 60.6603 40.8902 60.6603 40.7916 60.6424C40.5766 60.6155 40.4243 60.4901 40.3527 60.2841C40.2093 59.881 40.496 59.5137 40.9529 59.5137H46.1306H46.3904C46.7656 58.2502 47.1343 56.9932 47.5077 55.7204C47.571 55.5042 47.6346 55.2876 47.6983 55.0705H47.3937H41.0783C40.9797 55.0705 40.8812 55.0705 40.7827 55.0526C40.5229 55.0078 40.3348 54.7928 40.3168 54.533C40.2989 54.2911 40.4512 54.0493 40.6931 53.9686C40.8006 53.9328 40.917 53.9238 41.0335 53.9238H47.7789H48.0477C48.1099 53.7129 48.1708 53.5032 48.232 53.2929C48.3292 52.9584 48.4269 52.622 48.5314 52.2756H48.2179H41.0783C41.0066 52.2756 40.926 52.2756 40.8454 52.2666C40.5318 52.2308 40.3168 51.9889 40.3168 51.6933C40.3258 51.3887 40.5587 51.1468 40.8812 51.1289H41.0962H48.5941H48.8628C48.9251 50.918 48.986 50.7083 49.0471 50.498C49.1443 50.1635 49.2421 49.8271 49.3466 49.4806H49.033H41.1051H41.1051C41.0156 49.4806 40.9349 49.4806 40.8454 49.4717C40.5318 49.4448 40.3079 49.2029 40.3079 48.9073C40.3079 48.6027 40.5408 48.3519 40.8633 48.334H41.0783H49.4182C49.4358 48.334 49.4544 48.335 49.4733 48.3359C49.5121 48.3379 49.5523 48.34 49.5884 48.334C49.6243 48.325 49.687 48.2982 49.6959 48.2623C49.8042 47.9137 49.9043 47.569 50.0072 47.2148C50.0576 47.0413 50.1087 46.8654 50.1618 46.6857H49.8572H41.2843C41.2611 46.6857 41.2368 46.6867 41.212 46.6876C41.1603 46.6896 41.1059 46.6918 41.0514 46.6857C40.6214 46.6499 40.3258 46.3453 40.3079 45.9153V45.6107C40.3079 44.9837 40.5856 44.706 41.2126 44.706H49.7049C49.7474 44.706 49.7901 44.7051 49.8329 44.7043C50.1335 44.6984 50.4383 44.6925 50.6813 44.9747C51.0774 43.6398 51.4615 42.335 51.8483 41.0208Z" fill="url(#paint1_linear_371_808)"/>
<path d="M59.9787 107.832H61.9162V111.504H59.9787V116.426H55.5568V111.504H48.0256L47.8225 108.645L55.5412 93.6758H59.9787V107.832ZM52.1193 107.832H55.5568V100.223L55.4631 100.395L52.1193 107.832Z" fill="url(#paint2_linear_371_808)"/>
<defs>
<linearGradient id="paint0_linear_371_808" x1="55.8677" y1="0" x2="55.8677" y2="109.592" gradientUnits="userSpaceOnUse">
<stop stop-color="#F58C1F"/>
<stop offset="1" stop-color="#F57D21"/>
</linearGradient>
<linearGradient id="paint1_linear_371_808" x1="59.0358" y1="36" x2="59.0358" y2="74" gradientUnits="userSpaceOnUse">
<stop stop-color="#F58C1F"/>
<stop offset="1" stop-color="#F57D21"/>
</linearGradient>
<linearGradient id="paint2_linear_371_808" x1="54.9318" y1="90.4258" x2="54.9318" y2="117.736" gradientUnits="userSpaceOnUse">
<stop stop-color="#F58C1F"/>
<stop offset="1" stop-color="#F57D21"/>
</linearGradient>
</defs>
</svg>
