<svg width="1199" height="189" viewBox="0 0 1199 189" fill="none" xmlns="http://www.w3.org/2000/svg">
	<path d="M171.325 5.53249C182.297 7.77686 193.27 11.0187 203.494 15.5075C215.713 20.7443 226.934 27.4775 237.408 35.4575C243.143 39.9462 248.629 44.435 253.866 49.4225C262.095 56.9037 270.075 64.385 278.304 71.8662C285.785 78.8487 293.515 85.5818 301.744 91.8162C307.729 96.5543 313.963 100.794 320.696 104.784C328.177 109.023 335.907 112.764 344.386 115.008C349.373 116.504 354.361 117.502 359.597 118.001C361.842 118.25 364.335 118.25 366.58 118.25C379.547 118.499 392.015 115.756 403.985 110.519C412.463 106.779 420.443 102.041 427.924 96.5543C435.405 91.3174 442.387 85.3324 449.369 79.0981C454.856 74.1106 460.591 68.8737 466.077 63.8862C476.8 53.9112 488.021 44.9337 500.24 36.9537C514.953 27.2281 530.414 19.4975 546.872 13.5125C556.099 10.2706 565.325 7.77687 575.05 6.03124C579.04 5.28312 582.781 4.78437 586.771 4.28562C593.005 3.78687 599.239 3.28812 605.723 3.28812C607.468 3.28812 609.214 3.5375 610.959 3.5375C611.957 3.5375 613.204 3.78687 614.201 3.78687C625.173 4.28562 635.647 6.28061 646.12 9.52249C658.339 13.2631 670.059 18.7494 681.031 25.4825C690.009 30.9687 698.238 36.9537 706.467 43.6868C715.195 50.6693 723.424 58.1506 731.653 65.6318C738.386 71.8662 745.119 78.1006 751.852 84.3349C757.836 89.8212 764.32 95.058 771.053 99.5468C778.035 104.285 785.516 108.275 793.247 111.267C799.98 114.011 806.962 115.756 813.944 117.003C819.43 117.751 824.916 118.25 830.402 117.751C838.382 117.252 846.112 115.507 853.593 113.013C863.319 109.522 872.545 104.784 881.523 99.048C890.001 93.5618 897.731 87.5768 905.462 81.093C914.19 73.8612 922.419 65.8812 930.897 58.3999C937.63 52.1656 944.612 46.1806 951.595 40.1956C958.826 34.2106 966.307 28.7243 974.536 23.7369C988.252 15.2581 1003.21 9.27311 1018.92 5.53249C1024.66 4.28562 1030.39 3.03875 1036.13 2.29062C1039.37 1.79187 1042.61 1.29312 1046.1 1.29312C1047.85 1.29312 1049.35 1.04375 1051.09 1.04375C1055.08 0.794373 1059.32 0.794373 1063.31 1.04375C1064.56 1.04375 1065.8 1.29312 1067.05 1.29312C1086.75 2.29062 1105.45 6.77936 1123.66 14.51C1145.1 23.4875 1164.06 35.9562 1180.76 51.9162C1186 56.9037 1190.99 61.8912 1195.72 67.3774C1196.22 68.1256 1196.97 68.6243 1197.47 69.3724C1198.22 70.3699 1198.22 71.1181 1197.22 71.8662C1195.23 73.6118 1192.98 75.3574 1190.74 77.1031C1185.75 81.0931 1180.76 85.083 1175.53 89.073C1175.28 89.3224 1174.78 89.5718 1174.53 89.8212C1172.28 91.3174 1172.04 91.3174 1170.54 89.3224C1169.79 88.5743 1169.29 87.8262 1168.54 87.078C1168.05 86.5793 1167.55 86.5793 1167.05 86.8287C1166.3 87.3274 1165.8 87.8262 1165.3 88.3249C1164.55 89.073 1164.3 89.8212 1165.05 90.5693C1165.8 91.5668 1166.3 92.3149 1167.05 93.3124C1167.8 94.3099 1167.55 95.058 1166.55 95.8062C1166.3 96.0555 1166.3 96.0555 1166.05 96.3049C1165.8 96.5543 1165.55 96.8037 1165.3 96.8037C1158.57 101.542 1151.59 106.529 1144.85 111.267C1142.36 113.013 1142.11 112.764 1140.37 110.519C1136.13 105.282 1131.39 100.544 1126.4 96.3049C1113.93 85.8312 1099.47 78.8487 1083.51 75.6068C1079.52 74.8587 1075.78 74.1106 1071.79 74.1106C1071.04 74.1106 1070.54 74.1106 1069.79 73.8612C1066.3 73.6118 1063.06 73.3624 1059.57 73.6118C1056.08 73.8612 1052.59 74.1106 1049.1 74.6093C1040.87 75.6068 1033.14 77.6018 1025.41 80.3449C1011.94 85.083 999.722 92.0655 988.501 101.043C981.269 106.779 974.287 112.764 967.554 118.749C958.577 126.479 949.849 134.21 940.872 141.442C931.396 149.172 921.671 156.404 911.447 162.888C900.474 169.621 889.003 175.357 877.034 179.596C869.553 182.09 861.823 184.085 853.843 185.332C849.604 186.08 845.115 186.579 840.626 187.077C834.891 187.576 829.405 187.825 823.669 187.576C821.176 187.576 818.682 187.327 816.438 187.327C813.944 187.077 811.45 186.828 808.957 186.579C791.002 184.085 774.295 178.349 758.335 169.87C746.366 163.636 735.144 156.155 724.421 147.925C714.197 140.195 704.472 131.965 694.747 123.487C688.512 118.001 682.528 112.514 676.543 107.277C668.563 100.046 660.085 93.5618 650.858 88.0756C641.133 82.3399 631.158 77.8512 620.186 75.1081C615.199 73.8612 610.211 72.8637 605.224 72.6143C602.98 72.3649 600.486 72.1156 598.242 72.1156C585.274 72.1156 572.806 74.8587 561.086 80.3449C555.351 83.0881 549.864 86.0805 544.628 89.5718C535.401 95.3074 526.424 101.791 517.696 108.524C507.721 116.255 497.996 124.484 488.271 132.714C479.792 139.696 471.314 146.679 462.337 153.412C453.858 159.646 445.13 165.382 435.904 170.619C425.181 176.354 414.209 181.092 402.488 184.085C397.002 185.581 391.516 186.579 385.781 187.327C381.043 187.825 376.305 188.075 371.567 188.324C369.821 188.324 368.325 188.324 366.58 188.324C363.587 188.075 360.595 188.075 357.602 187.825C355.109 187.576 352.864 187.327 350.371 187.077C344.386 186.08 338.651 185.082 332.915 183.586C320.945 180.344 309.475 175.855 298.253 170.12C285.785 163.885 274.064 156.155 263.092 147.676C255.861 142.19 249.128 136.205 242.395 130.22C235.163 123.736 228.181 117.252 220.949 110.769C213.468 104.036 205.738 97.8012 197.509 91.8162C191.025 87.3274 184.043 83.0881 176.811 79.8462C170.328 76.8537 163.595 74.6093 156.363 73.1131C148.633 71.6168 141.152 71.1181 133.172 71.8662C130.678 72.1156 128.185 72.3649 125.691 72.6143C109.981 74.6093 95.5177 80.0956 82.3012 88.8237C78.3113 91.5668 74.3215 94.5593 70.8303 97.8012C66.3417 101.791 61.8531 105.781 57.1152 109.771C54.1227 112.265 54.3721 112.265 51.3797 110.021C44.1481 104.784 37.1658 99.5468 29.9341 94.3099C28.9367 93.5618 28.1886 92.8137 27.4405 92.0655C27.1911 91.8162 27.1911 91.068 27.4405 90.8187C27.6898 90.5693 27.6898 90.3199 27.9392 90.0705C28.4379 89.5718 28.9367 88.8237 29.4354 88.3249C31.6797 85.8312 31.9291 85.5818 28.9367 83.0881C28.4379 82.5893 27.6898 82.5893 27.1911 83.0881C26.443 83.8362 25.6949 84.5843 24.9468 85.3324C24.4481 86.0805 23.7 86.5793 23.2012 87.3274C22.7025 87.8262 21.9544 87.8262 21.4557 87.5768C20.7076 87.078 19.9595 86.5793 19.2114 86.0805C13.7253 82.0905 8.23922 77.8512 2.75314 73.8612C2.00504 73.3624 1.25694 72.8637 0.758206 72.1156C0.0101044 71.3674 -0.239263 70.1206 0.259471 69.3724C0.758205 68.3749 1.50631 67.6268 2.25441 66.6293C6.74301 61.1431 11.481 56.1556 16.4683 51.1681C31.181 36.7043 47.8886 25.2331 66.3417 16.7544C78.5607 11.2681 91.0291 7.02874 103.996 4.28562C108.734 3.28812 113.223 2.54 117.961 2.04125C121.202 1.5425 130.803 0.672748 137.543 0.884047C153.543 1.38568 161.105 3.48833 171.325 5.53249ZM202.247 61.1431C201.997 61.1431 201.748 61.1431 201.748 61.3924C201.249 61.8912 200.751 62.3899 200.501 62.8887C199.254 64.6343 199.504 65.1331 201.249 66.3799C204.99 69.1231 208.73 71.8662 212.471 74.3599C212.72 74.6093 212.97 74.8587 213.219 74.8587C213.967 75.3574 214.715 75.3574 215.214 74.6093C215.713 73.8612 216.211 73.1131 216.71 72.3649C216.959 71.8662 216.959 71.3674 216.461 70.8687C215.962 70.3699 215.463 69.8712 214.964 69.6218C211.473 67.1281 208.232 64.6343 204.74 62.3899C203.992 61.8912 203.494 61.6418 202.745 61.1431C202.745 61.1431 202.496 61.1431 202.247 61.1431ZM732.9 113.761C733.149 113.761 733.398 113.761 733.648 113.761C734.645 113.262 735.393 112.265 735.892 111.267C736.142 111.018 736.142 110.27 735.892 110.021C735.643 109.771 735.393 109.272 735.144 109.023C731.653 105.781 727.912 102.539 724.421 99.2974C724.172 99.048 723.673 98.7987 723.424 98.5493C723.174 98.2999 722.426 98.2999 722.177 98.5493C721.928 98.7987 721.678 99.048 721.429 99.2974C719.434 101.292 719.434 101.791 721.429 103.786C724.671 106.779 727.912 109.771 731.154 112.764C731.653 113.013 731.902 113.512 732.401 113.761C732.401 113.512 732.65 113.512 732.9 113.761ZM289.276 128.724C289.026 128.724 288.777 128.724 288.528 128.973C288.029 129.472 287.53 129.97 287.281 130.469C286.034 132.215 286.283 132.714 288.029 133.96C292.019 136.704 296.258 138.948 300.497 141.192C300.996 141.442 301.245 141.442 301.744 141.691C301.994 141.94 302.742 141.691 302.991 141.442C303.739 140.694 303.988 139.696 304.487 138.948C304.737 138.449 304.487 137.701 303.988 137.202C303.24 136.704 302.742 136.454 301.994 135.955C298.752 133.96 295.51 132.215 292.268 130.22C291.52 129.721 291.021 129.472 290.273 128.973C290.024 128.973 289.525 128.973 289.276 128.724ZM764.071 133.462C764.071 133.212 763.821 132.963 763.821 132.963C763.572 132.714 763.323 132.464 763.073 132.215C759.083 129.222 755.093 125.981 751.104 122.988C750.854 122.739 750.605 122.489 750.355 122.489C750.106 122.489 749.607 122.489 749.358 122.489C748.361 123.237 747.612 124.235 747.114 125.232C747.114 125.482 747.114 125.98 747.363 126.23C747.612 126.479 747.862 126.978 748.361 127.227C752.101 130.469 756.091 133.462 760.081 136.205C761.577 137.202 762.076 136.953 763.073 135.706C763.572 135.207 763.821 134.709 764.071 133.96C764.071 133.96 764.071 133.711 764.071 133.462ZM335.908 154.659C337.154 154.659 337.653 154.409 337.902 153.412C338.152 152.913 338.152 152.414 338.401 151.915C338.651 150.669 338.152 149.92 337.154 149.671C335.908 149.422 334.91 149.172 333.663 148.674C330.421 147.676 327.18 146.679 323.938 145.681C323.19 145.432 322.442 145.182 321.694 145.182C321.444 145.182 320.945 145.432 320.945 145.681C320.197 146.679 319.699 147.676 319.699 148.923C319.699 149.172 319.948 149.671 320.197 149.671C320.696 149.92 321.444 150.419 321.943 150.419C326.182 151.915 330.172 153.162 334.661 154.16C335.159 154.659 335.658 154.659 335.908 154.659ZM274.064 118.25C274.064 118.001 273.815 117.751 273.815 117.751C273.316 117.252 272.818 116.754 272.319 116.504C268.828 113.761 265.586 111.267 262.095 108.524C261.845 108.275 261.347 108.026 261.097 107.776C260.1 107.028 259.352 107.028 258.604 108.026C258.105 108.524 257.606 109.272 257.108 109.771C256.858 110.021 256.858 110.769 257.108 111.018C257.606 111.517 257.856 111.766 258.354 112.265C262.095 115.257 265.586 118.001 269.326 120.744C271.321 122.24 271.82 122.24 273.316 119.996C273.566 119.746 273.815 119.247 274.064 118.749C274.064 118.749 274.064 118.499 274.064 118.25ZM705.719 89.3224C705.968 89.3224 706.217 89.3224 706.217 89.073C707.215 88.3249 707.714 87.5768 708.462 86.5793C708.711 86.3299 708.711 85.5818 708.462 85.3324C708.212 85.083 707.963 84.5843 707.464 84.3349C703.724 81.3424 699.983 78.1006 696.243 75.1081C695.993 74.8587 695.495 74.6093 695.245 74.3599C694.996 74.1106 694.248 74.3599 693.999 74.6093C693.25 75.3574 692.502 76.1056 692.004 77.1031C691.754 77.3524 692.004 78.1006 692.253 78.3499C692.502 78.5993 692.752 79.0981 693.25 79.3474C696.991 82.3399 700.482 85.3324 704.223 88.3249C704.472 88.5743 704.971 88.8237 705.22 89.073C705.22 89.3224 705.469 89.0731 705.719 89.3224ZM679.286 63.8862C679.286 63.6368 679.286 63.3874 679.036 63.3874C678.538 62.8887 678.039 62.3899 677.54 62.1406C673.55 59.6468 669.561 57.4024 665.571 55.4074C665.072 55.1581 664.573 54.9087 664.074 54.9087C663.825 54.9087 663.077 54.9087 662.828 55.1581C662.329 55.9062 661.83 56.9037 661.331 57.6518C661.082 58.1506 661.331 58.8987 661.83 59.3974C662.08 59.6468 662.329 59.6468 662.578 59.8962C666.818 62.1406 670.807 64.385 674.797 66.8787C675.047 67.1281 675.545 67.3774 676.044 67.3774C676.294 67.6268 677.042 67.3774 677.291 67.1281C677.79 66.3799 678.288 65.3824 678.787 64.6343C679.286 64.1356 679.286 63.8862 679.286 63.8862ZM627.418 45.4325C627.418 45.6818 627.418 45.6818 627.418 45.6818C627.418 46.43 627.667 46.9287 628.415 47.1781C628.914 47.4275 629.163 47.4275 629.662 47.6768C633.901 48.6743 638.14 49.6718 642.38 51.1681C644.873 51.9162 645.123 51.6668 645.871 49.1731C646.12 48.6743 646.12 48.425 646.12 47.9262C646.12 47.6768 645.871 46.9287 645.621 46.9287C644.873 46.6793 644.125 46.1806 643.128 45.9312C638.888 44.6843 634.649 43.4375 630.41 42.6893C628.415 42.1906 627.667 42.6893 627.418 44.6843C627.418 44.6843 627.418 45.1831 627.418 45.4325ZM183.544 55.9062C183.794 55.9062 184.043 55.6568 184.292 55.4074C185.04 54.6593 185.539 53.6618 185.789 52.4149C185.789 52.1656 185.789 51.4174 185.29 51.1681C185.04 50.9187 184.791 50.6693 184.542 50.6693C180.053 48.425 175.315 46.43 170.577 44.9337C170.328 44.9337 169.829 44.6843 169.58 44.6843C168.832 44.6843 168.083 44.9337 167.834 45.4325C167.585 45.9312 167.585 46.1806 167.335 46.6793C166.587 48.6743 166.837 49.1731 168.832 49.9212C173.071 51.4174 177.559 53.1631 181.549 55.1581C181.799 55.4074 182.048 55.4075 182.547 55.6568C183.046 55.6568 183.295 55.6568 183.544 55.9062ZM245.637 95.5568C245.637 95.3074 245.637 95.058 245.387 94.8087C245.138 94.3099 244.639 94.0605 244.39 93.5618C240.899 90.5693 237.408 87.5768 233.667 84.5843C231.672 82.8387 231.173 83.0881 229.677 85.0831C229.428 85.3324 229.178 85.8312 228.929 86.0805C228.68 86.3299 228.68 87.078 228.929 87.3274C229.178 87.5768 229.428 88.0755 229.927 88.3249C233.667 91.5668 237.408 94.5593 241.148 97.8012C241.397 98.0505 241.896 98.2999 242.145 98.5493C242.395 98.7987 243.143 98.5493 243.392 98.2999C244.14 97.5518 244.889 96.8037 245.387 95.8062C245.637 95.8062 245.637 95.5568 245.637 95.5568ZM796.239 149.92C795.99 149.671 795.99 149.422 795.74 149.172C795.242 148.923 794.743 148.674 794.244 148.424C790.005 146.928 786.015 145.432 782.025 143.437C779.781 142.439 779.282 142.439 778.285 144.684C778.035 145.182 778.035 145.432 777.786 145.93C777.786 146.18 777.786 146.928 778.285 147.177C778.534 147.427 778.783 147.676 779.033 147.676C783.771 149.92 788.509 151.915 793.496 153.412C793.745 153.412 794.244 153.661 794.493 153.661C794.743 153.661 795.242 153.412 795.242 153.162C795.74 152.414 795.99 151.167 796.239 149.92ZM141.401 45.4325C142.648 45.4325 143.895 45.4325 145.142 45.6818C146.139 45.6818 147.386 45.9312 148.383 45.9312C149.63 45.9312 150.129 45.4325 150.378 44.1856C150.378 43.4375 150.378 42.6893 150.378 41.9412C150.378 41.4425 150.129 41.1931 149.63 40.9437C148.633 40.445 147.635 40.445 146.638 40.445C142.648 40.445 138.658 40.445 134.668 40.445C134.17 40.445 133.671 40.445 133.172 40.6943C132.673 40.6943 132.424 41.1931 132.175 41.6918C132.175 42.1906 131.925 42.44 131.925 42.9387C131.925 45.1831 132.424 45.6818 134.668 45.6818C135.416 45.6818 135.915 45.6818 136.663 45.6818C138.409 45.4325 139.905 45.4325 141.401 45.4325ZM365.582 158.15C367.328 158.15 370.071 157.9 372.564 157.9C373.313 157.9 374.061 157.152 374.061 156.404C374.061 155.407 374.061 154.659 373.811 153.91C373.811 153.412 373.313 153.162 372.814 152.913C372.564 152.913 372.315 152.913 372.066 152.913C367.328 152.913 362.34 152.913 357.602 152.913C357.353 152.913 356.854 152.913 356.605 153.162C356.356 153.162 356.106 153.412 356.106 153.661C355.607 154.659 355.358 155.905 355.607 157.152C355.857 157.651 356.106 157.9 356.605 158.15C357.104 158.15 357.602 158.399 358.351 158.399C360.595 158.15 362.59 158.15 365.582 158.15ZM600.735 44.6843C602.73 44.6843 604.974 44.6843 606.969 44.6843C609.463 44.6843 609.962 44.435 609.962 41.9412C609.962 41.4425 609.962 40.9437 609.712 40.6943C609.712 40.1956 609.463 39.9462 608.964 39.6968C608.466 39.6968 607.967 39.4475 607.468 39.4475C602.98 39.4475 598.74 39.4475 594.252 39.4475C593.753 39.4475 593.254 39.4475 593.005 39.6968C592.506 39.6968 592.007 40.445 591.758 40.6943C591.509 41.6918 591.509 42.9387 592.007 43.9362C592.007 44.1856 592.506 44.435 592.756 44.435C593.254 44.435 593.504 44.6843 594.002 44.6843C596.496 44.6843 598.74 44.6843 600.735 44.6843ZM920.922 113.761C920.922 113.512 920.922 113.512 920.922 113.262C920.424 112.265 919.676 111.267 918.928 110.769C918.678 110.519 917.93 110.519 917.681 110.519C917.431 110.769 917.182 110.769 916.933 111.018C913.441 113.761 909.95 116.255 906.21 118.998C904.714 119.996 904.714 120.744 905.711 121.991C905.961 122.24 906.21 122.739 906.459 122.988C907.207 123.986 907.706 123.986 908.704 123.487C909.202 123.237 909.701 122.988 910.2 122.489C913.192 120.245 916.185 118.001 919.177 115.756C919.676 115.257 920.174 115.008 920.673 114.509C920.673 114.509 920.673 114.011 920.922 113.761ZM821.674 152.913C819.929 152.913 817.685 152.664 815.191 152.664C813.445 152.664 812.947 153.162 812.947 154.659C812.947 155.157 812.947 155.656 812.947 155.905C812.947 156.903 813.445 157.402 814.692 157.651C814.942 157.651 815.191 157.651 815.44 157.651C820.178 157.9 824.667 157.9 829.405 157.651C829.904 157.651 830.402 157.651 830.652 157.402C830.901 157.152 831.15 156.903 831.15 156.654C831.4 155.656 831.4 154.409 830.901 153.412C830.652 152.913 830.402 152.664 829.904 152.664C829.405 152.664 828.906 152.664 828.158 152.664C826.412 152.913 824.417 152.913 821.674 152.913ZM893.492 133.212C893.492 132.963 893.492 132.963 893.492 132.963C892.993 131.716 892.495 130.719 891.497 129.97C891.248 129.721 890.749 129.721 890.5 129.721C890.001 129.97 889.253 130.22 888.754 130.719C885.512 132.714 882.271 134.459 879.029 136.454C876.535 137.95 876.286 138.2 877.782 140.694C878.031 140.943 878.281 141.192 878.281 141.442C878.53 141.691 879.029 141.94 879.528 141.94C879.777 141.94 880.026 141.94 880.026 141.691C884.266 139.447 888.255 136.953 892.245 134.459C892.495 134.21 892.744 133.96 892.993 133.711C893.492 133.711 893.492 133.462 893.492 133.212ZM422.687 143.686C422.937 143.686 423.186 143.686 423.435 143.686C423.934 143.437 424.682 143.187 425.181 142.938C428.423 140.943 431.914 139.197 435.156 137.202C437.649 135.706 437.649 135.207 435.904 132.714C435.654 132.464 435.405 132.215 435.156 131.965C434.906 131.716 434.408 131.467 433.909 131.716C433.659 131.965 433.161 131.965 432.911 132.215C429.171 134.459 425.181 136.704 421.44 138.948C421.191 139.197 420.692 139.447 420.443 139.696C420.194 139.945 420.194 140.195 420.194 140.195C420.443 141.442 420.942 142.689 421.939 143.686C422.438 143.686 422.687 143.686 422.687 143.686ZM1033.39 45.6818C1033.39 44.435 1033.14 43.4375 1032.64 42.44C1032.39 42.1906 1032.14 41.9412 1031.89 41.9412C1031.64 41.9412 1031.14 41.9412 1030.89 41.9412C1026.4 42.9387 1021.92 44.1856 1017.43 45.6818C1017.18 45.6818 1016.93 45.9312 1016.68 46.1806C1016.43 46.43 1015.93 46.9287 1016.18 47.4275C1016.43 48.4249 1016.68 49.6718 1017.43 50.42C1017.68 50.6693 1017.93 50.9187 1018.18 50.9187C1018.43 50.9187 1018.92 50.9187 1019.17 50.6693C1023.41 49.4225 1027.65 48.1756 1031.89 46.9287C1032.14 46.9287 1032.39 46.6793 1032.89 46.43C1033.14 46.43 1033.39 46.1806 1033.39 45.6818ZM576.048 45.4325C576.048 44.435 576.048 43.6868 575.549 42.9387C575.3 42.1906 574.801 41.9412 574.053 41.9412C573.305 41.9412 572.307 42.1906 571.559 42.44C568.068 43.1881 564.577 44.1856 561.086 45.1831C560.587 45.1831 560.338 45.4325 559.839 45.6818C559.091 45.9312 558.592 46.6793 558.842 47.4275C559.091 48.1756 559.091 48.6743 559.34 49.4225C559.59 50.42 560.338 50.9187 561.335 50.6693C561.834 50.6693 562.083 50.42 562.582 50.42C566.323 49.4225 570.063 48.425 573.804 47.6768C574.302 47.6768 574.552 47.4275 575.05 47.4275C575.549 46.6793 576.048 46.1806 576.048 45.4325ZM515.951 72.3649V72.1156C515.452 70.8687 514.953 69.8712 513.956 69.1231C513.706 68.8737 513.457 68.8737 512.958 69.1231C512.709 69.1231 512.459 69.3724 512.459 69.3724C508.469 72.1156 504.48 75.1081 500.739 78.1006C499.991 78.5993 499.991 79.3474 500.49 80.0956C500.988 80.8437 501.487 81.3424 502.235 82.0906C502.485 82.3399 503.233 82.5893 503.482 82.3399C503.731 82.0906 503.981 82.0906 504.23 81.8412C507.971 79.0981 511.462 76.3549 515.202 73.6118C515.452 73.3624 515.701 73.1131 515.951 72.8637C515.701 72.8637 515.701 72.6143 515.951 72.3649ZM960.572 83.3374C960.821 83.3374 961.071 83.3374 961.32 83.0881C961.819 82.8387 962.318 82.5893 962.816 82.3399C966.058 80.0956 969.3 77.8512 972.542 75.3574C973.04 75.1081 973.29 74.6093 973.788 74.3599C974.038 74.1106 974.287 73.6118 974.038 73.1131C973.539 72.1156 973.04 71.1181 972.292 70.3699C972.043 70.1206 971.295 70.1206 971.045 70.1206C970.547 70.3699 970.297 70.6193 969.798 70.8687C966.307 73.3624 962.816 75.8562 959.325 78.3499C959.076 78.5993 958.577 78.8487 958.328 79.3474C958.078 79.5968 958.078 80.0956 958.078 80.5943C958.577 81.5918 959.076 82.5893 960.073 83.0881C960.073 83.3374 960.322 83.3374 960.572 83.3374ZM848.606 154.659C848.855 154.659 849.354 154.659 849.853 154.409C853.843 153.412 857.833 151.915 861.823 150.419C862.321 150.17 862.82 149.92 863.319 149.671C863.568 149.422 863.817 148.923 863.817 148.424C863.817 147.427 863.319 146.429 862.571 145.432C862.321 145.182 861.823 144.933 861.324 144.933C860.825 144.933 860.576 145.182 860.077 145.182C857.583 145.93 855.339 146.928 852.845 147.676C851.1 148.175 849.604 148.674 847.858 149.172C846.611 149.671 846.362 150.17 846.611 151.417C846.861 152.165 846.86 152.913 847.11 153.661C847.359 154.409 847.858 154.659 848.606 154.659ZM464.082 114.759C464.082 114.509 464.082 114.26 463.833 114.011C463.334 113.013 462.586 112.016 461.588 111.517C461.339 111.267 460.84 111.267 460.591 111.517C460.092 111.766 459.594 112.016 459.095 112.265C457.349 113.761 455.604 115.257 453.609 116.754C452.113 118.001 450.367 119.247 448.871 120.494C448.621 120.744 448.372 121.242 448.123 121.492C448.123 121.741 447.873 121.991 448.123 122.24C448.621 123.487 449.369 124.484 450.367 125.232C450.616 125.232 450.866 125.482 451.115 125.232C451.614 124.983 452.113 124.734 452.611 124.484C456.102 121.741 459.344 118.998 462.586 116.504C462.835 116.255 463.334 116.006 463.583 115.507C464.082 115.257 464.082 115.008 464.082 114.759ZM489.767 93.063C489.767 92.8137 489.767 92.5643 489.518 92.3149C489.019 91.3174 488.271 90.5693 487.523 89.8212C487.273 89.5718 486.525 89.5718 486.276 89.8212C485.777 90.0705 485.278 90.3199 485.029 90.8187C482.037 93.3124 479.044 96.0555 476.052 98.5493C475.553 99.048 475.054 99.5468 474.556 100.046C474.306 100.295 474.306 101.043 474.306 101.292C474.805 102.29 475.553 103.038 476.55 103.786C476.8 104.036 477.548 104.036 477.797 103.786C478.047 103.537 478.545 103.287 478.795 103.038C482.037 100.295 485.278 97.5518 488.52 94.5593C488.769 94.3099 489.019 94.0605 489.518 93.5618C489.518 93.5618 489.518 93.3124 489.767 93.063ZM41.405 76.3549C41.6544 76.3549 41.9038 76.3549 42.1531 76.3549C42.6519 76.1056 43.1506 75.8562 43.6493 75.6068C46.8911 73.3624 50.1329 71.3674 53.1253 69.1231C53.624 68.8737 54.1227 68.3749 54.3721 68.1256C54.6215 67.8762 54.8708 67.3774 54.6215 66.8787C54.3721 65.8812 53.624 64.8837 52.8759 64.1356C52.6265 63.8862 51.8784 63.6368 51.6291 63.8862C51.3797 64.1356 51.1303 64.1356 50.6316 64.3849C46.8911 66.6293 43.1506 69.1231 39.6595 71.8662C39.4101 72.1156 38.9114 72.3649 38.662 72.8637C38.4126 73.1131 38.1633 73.8612 38.4126 74.1106C38.9114 75.1081 39.6595 76.1056 40.4076 76.6043C40.9063 76.1056 41.1557 76.1056 41.405 76.3549ZM1002.47 57.1531V56.9037C1002.22 55.6568 1001.72 54.6593 1000.97 53.6618C1000.72 53.4124 1000.47 53.4124 999.972 53.4124C999.224 53.6618 998.725 53.6618 998.226 54.1606C994.735 55.9062 991.244 57.9012 987.753 59.6468C987.254 59.8962 986.755 60.1456 986.506 60.6443C986.007 60.8937 985.758 61.6418 986.007 62.1406C986.506 63.1381 987.005 64.1356 987.753 64.8837C988.002 65.1331 988.252 65.1331 988.75 65.1331C989.249 65.1331 989.498 64.8837 989.997 64.6343C993.738 62.6393 997.478 60.6443 1001.47 58.6493C1001.97 58.3999 1002.22 58.1506 1002.47 57.9012C1002.22 57.4024 1002.47 57.1531 1002.47 57.1531ZM544.628 55.9062C544.378 54.6593 543.88 53.4124 543.131 52.4149C542.882 52.1656 542.633 52.1656 542.134 52.1656C541.635 52.1656 541.137 52.415 540.638 52.6643C536.648 54.41 532.907 56.4049 529.167 58.6493C528.668 58.8987 528.419 59.1481 528.169 59.3974C527.92 59.6468 527.671 60.1456 527.92 60.6443C528.169 61.6418 528.918 62.6393 529.666 63.3874C529.915 63.6368 530.414 63.8862 530.912 63.6368C531.411 63.3874 531.91 63.1381 532.409 62.8887C535.9 61.1431 539.391 59.1481 542.882 57.4024C543.381 57.1531 543.88 56.9037 544.378 56.6543C544.378 56.4049 544.378 56.1556 544.628 55.9062ZM389.771 152.165C390.02 152.664 390.02 153.412 390.27 154.16C390.519 154.659 391.018 155.157 391.766 155.157C392.015 155.157 392.514 155.157 392.763 155.157C397.252 154.16 401.491 152.913 405.73 151.417C406.977 150.918 407.226 150.419 406.977 149.172C406.728 148.424 406.478 147.676 405.98 146.928C405.73 146.429 405.232 146.429 404.982 146.429C404.483 146.429 403.985 146.429 403.735 146.679C399.745 147.925 396.005 149.172 392.015 150.17C391.516 150.419 391.018 150.419 390.519 150.669C390.27 150.918 390.02 151.167 390.02 151.417C389.771 151.417 389.771 151.666 389.771 152.165ZM934.139 103.537C934.388 103.537 934.638 103.537 934.887 103.537C935.386 103.287 935.635 103.038 935.885 102.789C939.126 100.295 942.368 97.5518 945.859 95.058C946.109 94.8087 946.607 94.5593 946.857 94.0605C947.355 93.5618 947.355 93.063 947.106 92.5643C946.607 91.8162 945.859 91.068 945.361 90.3199C945.111 90.0705 944.363 89.8212 943.864 90.0705C943.366 90.3199 942.867 90.5693 942.617 91.068C939.376 93.5618 936.383 96.0555 933.141 98.2999C932.643 98.5493 932.393 99.048 931.895 99.5468C931.645 99.7962 931.645 100.544 931.645 100.794C932.144 101.791 932.892 102.789 933.64 103.287C933.64 103.537 933.89 103.537 934.139 103.537ZM69.8329 59.6468C70.3316 59.3974 70.8303 59.3974 71.3291 59.1481C75.0696 57.6518 78.8101 56.1556 82.8 54.6593C83.0493 54.6593 83.2987 54.4099 83.7974 54.1606C84.5455 53.9112 85.0443 53.1631 84.7949 52.4149C84.5455 51.6668 84.2962 50.6693 83.7974 49.9212C83.5481 49.6718 83.0493 49.1731 82.8 49.4225C82.3012 49.4225 81.8025 49.4225 81.5531 49.6718C77.5632 50.9187 73.5734 52.4149 69.8329 54.1606C67.5886 55.1581 67.3392 55.6568 68.586 57.9012C68.8354 58.3999 69.0848 58.8987 69.5835 59.1481C69.0848 59.6468 69.3341 59.6468 69.8329 59.6468ZM116.465 44.6843C116.465 44.435 116.465 43.9362 116.215 43.1881C115.966 42.44 115.467 41.6918 114.719 41.6918C114.47 41.6918 113.971 41.6918 113.721 41.6918C109.732 42.1906 105.991 42.9387 102.001 43.6868C101.253 43.9362 100.754 43.9362 100.006 44.1856C99.2582 44.435 99.0088 45.1831 99.0088 45.6818C99.0088 45.9312 99.0088 46.1806 99.0088 46.43C99.5075 49.1731 99.7569 49.4225 102.749 48.9237C102.999 48.9237 103.497 48.9237 103.747 48.6743C106.24 48.1756 108.485 47.9262 110.978 47.4275C112.475 47.1781 113.721 46.9287 115.218 46.6793C115.966 46.43 116.465 45.9312 116.465 45.1831C116.465 45.4325 116.465 45.1831 116.465 44.6843ZM1155.58 75.6068C1155.58 75.3574 1155.58 75.1081 1155.33 75.1081C1154.83 74.6093 1154.58 74.1106 1154.08 73.6118C1151.09 71.1181 1148.35 68.8737 1145.35 66.3799C1143.11 64.6343 1142.61 64.6343 1140.86 67.1281C1140.61 67.3774 1140.61 67.6268 1140.37 68.1256C1140.12 68.6243 1140.37 69.1231 1140.61 69.3724C1141.11 69.8712 1141.61 70.3699 1142.11 70.6193C1144.85 72.8637 1147.85 75.1081 1150.59 77.6018C1152.58 79.3474 1152.83 79.3474 1154.58 77.3524C1154.83 77.1031 1155.08 76.6043 1155.33 76.3549C1155.58 75.8562 1155.58 75.8562 1155.58 75.6068ZM1083.51 40.6943C1082.51 40.6943 1082.01 41.1931 1081.76 41.6918C1081.51 42.6893 1081.27 43.6868 1081.51 44.6843C1081.51 45.1831 1081.76 45.4325 1082.26 45.6818C1082.51 45.9312 1082.76 45.9312 1083.26 45.9312C1087.5 46.6793 1091.49 47.4275 1095.48 48.425C1095.73 48.425 1096.23 48.425 1096.48 48.425C1096.98 48.425 1097.47 48.1756 1097.47 47.9262C1097.97 46.9287 1098.47 45.9312 1098.22 44.6843C1098.22 44.1856 1097.97 43.6868 1097.47 43.6868C1096.73 43.4375 1095.98 43.1881 1095.23 42.9387C1092.24 42.1906 1089.49 41.6918 1086.5 40.9437C1085.75 40.6943 1084.51 40.6943 1083.51 40.6943ZM1126.65 60.1456C1126.9 60.1456 1127.15 59.8962 1127.15 59.8962C1127.9 59.1481 1128.4 58.1506 1128.89 57.1531C1128.89 56.9037 1128.89 56.1556 1128.65 55.9062C1128.15 55.6568 1127.65 55.1581 1126.9 54.9087C1123.66 53.1631 1120.42 51.6668 1116.93 50.1706C1113.93 48.9237 1113.43 48.9237 1112.44 52.1656C1112.44 52.415 1112.44 52.6643 1112.19 52.9137C1112.19 53.1631 1112.44 53.9112 1112.69 54.1606C1112.94 54.4099 1113.18 54.6593 1113.43 54.6593C1117.17 56.4049 1121.16 58.1506 1124.9 59.8962C1125.15 60.1456 1125.4 60.1456 1125.9 60.1456C1126.15 60.1456 1126.4 60.1456 1126.65 60.1456ZM1057.33 43.9362C1059.82 43.9362 1062.31 43.9362 1064.56 43.9362C1065.56 43.9362 1066.05 43.4375 1066.05 42.44C1066.05 41.6918 1066.05 40.6943 1066.05 39.6968C1066.05 39.1981 1065.56 38.9487 1065.31 38.6993C1065.06 38.6993 1064.81 38.6993 1064.56 38.6993C1060.07 38.45 1055.58 38.45 1051.09 38.6993C1050.84 38.6993 1050.34 38.6993 1050.09 38.9487C1049.6 39.1981 1049.35 39.4475 1049.1 39.9462C1048.85 40.9437 1048.85 42.1906 1049.35 43.1881C1049.35 43.4375 1049.85 43.6868 1050.09 43.9362C1050.59 44.1856 1051.09 44.1856 1051.84 44.1856C1053.59 43.9362 1055.58 43.9362 1057.33 43.9362Z" fill="#EEEEF3"/>
	<svg x="19" y="52" width="46" height="48" viewBox="0 0 46 48" fill="none" xmlns="http://www.w3.org/2000/svg">
		<path d="M20.8063 3.58683L20.4201 4.1941C20.2972 4.38375 20.1507 4.61822 20.5326 4.86612C21.2429 5.2855 21.9792 5.6594 22.737 5.98555C22.7727 6.01891 22.8359 6.02933 22.8837 6.04971L1.62159 28.7598C0.916302 29.5131 -0.791181 33.0511 2.07594 35.7354L13.0261 45.9874C15.715 48.5049 18.4495 45.9283 19.1547 45.175L40.4351 22.4455C40.4751 22.5196 40.512 22.5906 40.5458 22.6649C40.9216 23.401 41.3442 24.1121 41.811 24.7939C42.0803 25.1557 42.3046 24.994 42.489 24.862L43.0696 24.4367C44.2215 23.5959 42.8756 22.092 42.8756 22.092L41.9162 20.7855C43.7708 18.415 47.5575 12.5523 43.4755 8.73054L36.3903 2.0971C32.6647 -1.39099 26.8309 2.5674 24.4968 4.48902L23.1495 3.63587C23.1495 3.63587 21.5695 2.38202 20.8063 3.58683ZM15.3071 42.7913C13.2698 41.4933 5.74404 34.4473 4.31482 32.4999C3.99618 32.0675 4.01649 31.5199 4.3494 31.3136L7.47194 29.2771L18.3411 39.4533L16.4852 42.6757C16.2951 43.0217 15.7564 43.0841 15.3071 42.7913ZM19.7846 42.0478L20.0136 38.3747L24.6861 33.3839L26.3967 34.9854L19.7846 42.0478ZM27.2205 34.1054L25.51 32.5039L32.9155 24.5941L36.5656 24.1239L27.2205 34.1054ZM42.6804 9.62524C44.2225 11.069 44.1755 12.853 43.4846 14.552C43.2585 14.6571 42.9959 14.7038 42.7682 14.2652C42.2908 13.3016 41.8801 12.3062 41.5388 11.2862C41.2894 10.5591 40.8771 9.75269 41.6079 8.61499L42.6804 9.62524ZM35.605 3.0009L36.6903 4.01699C35.5936 4.81823 34.7649 4.45667 34.0294 4.26168C32.988 3.98717 31.9667 3.64177 30.9727 3.22787C30.5424 3.03821 30.5526 2.76752 30.6394 2.53194C32.277 1.73743 34.0631 1.56342 35.6019 3.00415L35.605 3.0009ZM27.6477 6.40922C30.8303 8.43837 37.5721 14.7503 39.803 17.7895C40.2961 18.4705 40.2568 19.3112 39.7486 19.6397L34.789 22.9176C34.541 23.0707 34.2444 23.1246 33.9588 23.0685C33.6732 23.0124 33.4195 22.8503 33.2487 22.6149C31.6123 20.3822 25.6157 14.7679 23.2802 13.282C23.034 13.127 22.8556 12.8845 22.7808 12.6032C22.706 12.3219 22.7403 12.0224 22.8767 11.7648L25.8213 6.60033C26.0964 6.05971 26.9326 5.96521 27.6447 6.41247L27.6477 6.40922ZM21.5499 10.0717L21.3241 13.7478L13.9186 21.6577L12.2048 20.0532L21.5499 10.0717ZM11.381 20.9331L13.0947 22.5377L8.42218 27.5284L4.76886 27.9955L11.381 20.9331Z" fill="#1B1B1B"/>
	</svg>
</svg>