<?xml version="1.0" encoding="utf-8"?>
<!-- Generator: Adobe Illustrator 28.0.0, SVG Export Plug-In . SVG Version: 6.00 Build 0)  -->
<svg version="1.1" id="Réteg_1" xmlns="http://www.w3.org/2000/svg" xmlns:xlink="http://www.w3.org/1999/xlink" x="0px" y="0px"
	 viewBox="0 0 114.98 118.67" style="enable-background:new 0 0 114.98 118.67;" xml:space="preserve">
<style type="text/css">
	.st0{fill-rule:evenodd;clip-rule:evenodd;fill:url(#SVGID_1_);}
	.st1{fill:url(#SVGID_00000147222390836322561760000000613231641069578129_);}
	.st2{clip-path:url(#SVGID_00000120560397369724418050000016357711647630829202_);}
	.st3{fill:url(#SVGID_00000170267501479107510570000008174627468729613240_);}
	.st4{fill:url(#SVGID_00000116936583071469000120000007866562514417541529_);}
	.st5{fill:url(#SVGID_00000049904365903005563400000015939637903044811935_);}
	.st6{fill:url(#SVGID_00000126282318423797794760000012427151782867652512_);}
	.st7{fill:url(#SVGID_00000088840658454591727170000000056871713270469541_);}
	.st8{fill:url(#SVGID_00000144320146604150337310000012461883438399886728_);}
	.st9{fill:url(#SVGID_00000016063874958279235440000017079279387171960203_);}
</style>
<linearGradient id="SVGID_1_" gradientUnits="userSpaceOnUse" x1="57.5909" y1="118.4351" x2="57.5909" y2="8.8431" gradientTransform="matrix(1 0 0 -1 0 119.1064)">
	<stop  offset="0" style="stop-color:#F58C1F"/>
	<stop  offset="1" style="stop-color:#F57D21"/>
</linearGradient>
<path class="st0" d="M71.1,96.39c16.61-5.63,28.56-21.34,28.56-39.85c0-23.23-18.83-42.07-42.07-42.07S15.53,33.31,15.53,56.54
	c0,18.28,11.66,33.84,27.96,39.64c-1.74,2.62-2.76,5.76-2.76,9.14c0,1.64,0.24,3.21,0.68,4.71C18.44,103.09,1.72,81.76,1.72,56.54
	c0-30.85,25.01-55.87,55.87-55.87c30.85,0,55.87,25.01,55.87,55.87c0,25.52-17.11,47.05-40.49,53.72c0.49-1.56,0.75-3.22,0.75-4.94
	C73.72,102.03,72.76,98.96,71.1,96.39z"/>
<linearGradient id="SVGID_00000051354256935677486180000015364233394869010846_" gradientUnits="userSpaceOnUse" x1="55.3974" y1="28.0093" x2="55.3974" y2="0.6991" gradientTransform="matrix(1 0 0 -1 0 119.1064)">
	<stop  offset="0" style="stop-color:#F58C1F"/>
	<stop  offset="1" style="stop-color:#F57D21"/>
</linearGradient>
<path style="fill:url(#SVGID_00000051354256935677486180000015364233394869010846_);" d="M59.78,117.1h-4.44V99.72l-4.33,1.67v-3.69
	l8.3-3.39h0.47V117.1z"/>
<g>
	<defs>
		<rect id="SVGID_00000044898176724707421490000015651117623756271799_" x="32.72" y="43.22" width="50" height="35"/>
	</defs>
	<clipPath id="SVGID_00000107584256304684147370000003194341780832555408_">
		<use xlink:href="#SVGID_00000044898176724707421490000015651117623756271799_"  style="overflow:visible;"/>
	</clipPath>
	<g style="clip-path:url(#SVGID_00000107584256304684147370000003194341780832555408_);">
		
			<linearGradient id="SVGID_00000036967726925177172710000001906313691343693234_" gradientUnits="userSpaceOnUse" x1="48.0592" y1="57.7682" x2="48.0592" y2="42.5011" gradientTransform="matrix(1 0 0 -1 0 119.1064)">
			<stop  offset="0" style="stop-color:#F58C1F"/>
			<stop  offset="1" style="stop-color:#F57D21"/>
		</linearGradient>
		<path style="fill:url(#SVGID_00000036967726925177172710000001906313691343693234_);" d="M56.46,61.34H39.66
			c-0.29,0-0.56,0.15-0.76,0.41c-0.2,0.26-0.32,0.62-0.32,0.99V75.2c0,0.37,0.12,0.73,0.32,0.99c0.2,0.26,0.48,0.41,0.76,0.41h16.79
			c0.29,0,0.56-0.15,0.76-0.41c0.2-0.26,0.32-0.62,0.32-0.99V62.74c0-0.37-0.12-0.73-0.32-0.99C57.01,61.49,56.74,61.34,56.46,61.34
			z M44.78,70.81c0.03,0.48-0.12,0.96-0.43,1.34c-0.17,0.16-0.37,0.28-0.59,0.36c-0.22,0.08-0.46,0.11-0.69,0.09h-1.76v-7.26h1.76
			c0.23-0.02,0.47,0.01,0.69,0.09c0.22,0.08,0.42,0.2,0.59,0.36c0.31,0.38,0.46,0.85,0.43,1.34V70.81z M48.31,72.6h-1.15v-5.54h-1.2
			v-0.81c0.26,0.01,0.53-0.02,0.78-0.08c0.18-0.05,0.35-0.14,0.48-0.27c0.14-0.16,0.24-0.35,0.31-0.55h0.78L48.31,72.6z M54.5,72.6
			h-1.09v-5.5h-0.02l-0.84,5.5h-0.96l-0.84-5.5h-0.02v5.5h-1v-7.26h1.64l0.73,5.19h0.02l0.73-5.19h1.64V72.6z"/>
		
			<linearGradient id="SVGID_00000170984961949388599580000008702312545502510248_" gradientUnits="userSpaceOnUse" x1="43.0458" y1="52.7285" x2="43.0458" y2="47.5404" gradientTransform="matrix(1 0 0 -1 0 119.1064)">
			<stop  offset="0" style="stop-color:#F58C1F"/>
			<stop  offset="1" style="stop-color:#F57D21"/>
		</linearGradient>
		<path style="fill:url(#SVGID_00000170984961949388599580000008702312545502510248_);" d="M43.04,66.38h-0.59v5.19h0.59
			c0.08,0,0.16-0.01,0.23-0.04c0.07-0.03,0.14-0.07,0.2-0.13c0.11-0.16,0.17-0.35,0.15-0.54v-3.78c0.02-0.19-0.04-0.38-0.15-0.54
			c-0.06-0.06-0.12-0.1-0.2-0.13S43.12,66.37,43.04,66.38z"/>
		
			<linearGradient id="SVGID_00000001653785468347799680000004420320181741800639_" gradientUnits="userSpaceOnUse" x1="46.2487" y1="75.2308" x2="46.2487" y2="59.9663" gradientTransform="matrix(1 0 0 -1 0 119.1064)">
			<stop  offset="0" style="stop-color:#F58C1F"/>
			<stop  offset="1" style="stop-color:#F57D21"/>
		</linearGradient>
		<path style="fill:url(#SVGID_00000001653785468347799680000004420320181741800639_);" d="M39.67,59.14h13.16
			c0.29,0,0.58-0.12,0.79-0.33c0.21-0.21,0.33-0.49,0.33-0.78V44.98c0-0.29-0.12-0.57-0.33-0.78c-0.21-0.21-0.49-0.32-0.79-0.32
			H39.67c-0.29,0-0.58,0.12-0.79,0.32c-0.21,0.21-0.33,0.49-0.33,0.78v13.07c0,0.29,0.12,0.57,0.33,0.77
			C39.1,59.02,39.38,59.14,39.67,59.14z M47.42,49.09c0.26,0.01,0.53-0.02,0.78-0.08c0.18-0.04,0.35-0.14,0.48-0.27
			c0.14-0.16,0.25-0.35,0.31-0.55h0.78v7.26h-1.15V49.9h-1.2L47.42,49.09z M42.77,48.18h1.76c0.23-0.02,0.47,0.01,0.69,0.09
			s0.42,0.2,0.59,0.36c0.31,0.38,0.46,0.85,0.43,1.34v3.67c0.03,0.48-0.12,0.96-0.43,1.34c-0.17,0.16-0.37,0.29-0.59,0.36
			c-0.22,0.08-0.46,0.11-0.69,0.09h-1.76V48.18z"/>
		
			<linearGradient id="SVGID_00000090977908906779319980000016340315835314318252_" gradientUnits="userSpaceOnUse" x1="44.5118" y1="69.8916" x2="44.5118" y2="64.7036" gradientTransform="matrix(1 0 0 -1 0 119.1064)">
			<stop  offset="0" style="stop-color:#F58C1F"/>
			<stop  offset="1" style="stop-color:#F57D21"/>
		</linearGradient>
		<path style="fill:url(#SVGID_00000090977908906779319980000016340315835314318252_);" d="M45.1,53.7v-3.78
			c0.02-0.19-0.04-0.38-0.15-0.54c-0.06-0.06-0.12-0.1-0.2-0.13s-0.15-0.04-0.23-0.04h-0.59v5.19h0.59
			c0.08,0.01,0.16-0.01,0.24-0.04c0.07-0.03,0.14-0.07,0.2-0.13C45.06,54.08,45.11,53.89,45.1,53.7z"/>
		
			<linearGradient id="SVGID_00000139251691396003285540000014939540469112058296_" gradientUnits="userSpaceOnUse" x1="62.4577" y1="70.1416" x2="62.4577" y2="64.9536" gradientTransform="matrix(1 0 0 -1 0 119.1064)">
			<stop  offset="0" style="stop-color:#F58C1F"/>
			<stop  offset="1" style="stop-color:#F57D21"/>
		</linearGradient>
		<path style="fill:url(#SVGID_00000139251691396003285540000014939540469112058296_);" d="M63.04,53.45v-3.78
			c0.02-0.19-0.04-0.38-0.15-0.54c-0.06-0.06-0.12-0.1-0.2-0.13c-0.07-0.03-0.15-0.04-0.23-0.04h-0.59v5.19h0.59
			c0.08,0.01,0.16-0.01,0.24-0.04c0.07-0.03,0.14-0.07,0.2-0.13C63.01,53.83,63.06,53.64,63.04,53.45z"/>
		
			<linearGradient id="SVGID_00000057864698169425145910000013442779801168225934_" gradientUnits="userSpaceOnUse" x1="64.5461" y1="75.2308" x2="64.5461" y2="59.9663" gradientTransform="matrix(1 0 0 -1 0 119.1064)">
			<stop  offset="0" style="stop-color:#F58C1F"/>
			<stop  offset="1" style="stop-color:#F57D21"/>
		</linearGradient>
		<path style="fill:url(#SVGID_00000057864698169425145910000013442779801168225934_);" d="M57.97,59.14h13.16
			c0.29,0,0.58-0.12,0.79-0.33c0.21-0.21,0.33-0.49,0.33-0.78V44.98c0-0.29-0.12-0.57-0.33-0.78c-0.21-0.21-0.49-0.32-0.79-0.32
			H57.97c-0.29,0-0.58,0.12-0.79,0.32c-0.21,0.21-0.33,0.49-0.33,0.78v13.07c0,0.29,0.12,0.57,0.33,0.77
			C57.39,59.02,57.67,59.14,57.97,59.14z M64.94,54.4c-0.01-0.46,0.08-0.91,0.26-1.33c0.23-0.46,0.53-0.87,0.9-1.23
			c0.35-0.34,0.64-0.73,0.88-1.15c0.16-0.31,0.25-0.65,0.25-1c0.02-0.23-0.03-0.45-0.15-0.65c-0.06-0.06-0.12-0.11-0.2-0.14
			c-0.08-0.03-0.16-0.05-0.24-0.04c-0.4,0-0.6,0.24-0.6,0.72v0.78h-1.09v-0.71c-0.03-0.49,0.12-0.97,0.44-1.35
			c0.35-0.3,0.81-0.47,1.27-0.47c0.47,0,0.92,0.17,1.27,0.47c0.31,0.38,0.47,0.86,0.44,1.35c0,0.45-0.11,0.9-0.32,1.3
			c-0.29,0.53-0.67,1.02-1.1,1.45c-0.27,0.26-0.5,0.56-0.69,0.88c-0.12,0.22-0.18,0.47-0.18,0.72v0.16h2.18v1.04h-3.32L64.94,54.4z
			 M60.72,47.93h1.76c0.23-0.02,0.47,0.01,0.69,0.09c0.22,0.08,0.42,0.2,0.59,0.36c0.31,0.38,0.46,0.85,0.43,1.34v3.67
			c0.03,0.48-0.12,0.96-0.43,1.34c-0.17,0.16-0.37,0.29-0.59,0.36c-0.22,0.08-0.46,0.11-0.69,0.09h-1.76V47.93z"/>
		
			<linearGradient id="SVGID_00000119829746393421999620000018190819904189801390_" gradientUnits="userSpaceOnUse" x1="66.2642" y1="57.7643" x2="66.2642" y2="42.505" gradientTransform="matrix(1 0 0 -1 0 119.1064)">
			<stop  offset="0" style="stop-color:#F58C1F"/>
			<stop  offset="1" style="stop-color:#F57D21"/>
		</linearGradient>
		<path style="fill:url(#SVGID_00000119829746393421999620000018190819904189801390_);" d="M71,61.34h-9.48
			c-0.25,0-0.49,0.1-0.67,0.28c-0.18,0.18-0.28,0.42-0.28,0.67v13.37c0,0.25,0.1,0.49,0.28,0.67s0.42,0.28,0.68,0.28H71
			c0.25,0,0.5-0.1,0.68-0.28c0.18-0.18,0.28-0.42,0.28-0.67V62.29c0-0.25-0.1-0.49-0.28-0.67C71.5,61.44,71.26,61.34,71,61.34z
			 M67.98,70.84c0.03,0.49-0.12,0.97-0.44,1.35c-0.35,0.3-0.81,0.47-1.27,0.47c-0.47,0-0.92-0.17-1.27-0.47
			c-0.32-0.38-0.47-0.86-0.44-1.35v-5.55h1.15v5.62c-0.02,0.19,0.04,0.38,0.15,0.54c0.12,0.11,0.27,0.17,0.43,0.17
			c0.16,0,0.31-0.06,0.43-0.17c0.11-0.16,0.17-0.35,0.15-0.54v-5.62h1.11V70.84z"/>
	</g>
</g>
</svg>
