<svg width="112" height="118" viewBox="0 0 112 118" fill="none" xmlns="http://www.w3.org/2000/svg">
<path fill-rule="evenodd" clip-rule="evenodd" d="M69.376 95.7169C85.9816 90.0897 97.9328 74.3744 97.9328 55.8677C97.9328 32.6358 79.0996 13.8026 55.8677 13.8026C32.6358 13.8026 13.8026 32.6358 13.8026 55.8677C13.8026 74.1511 25.4672 89.7101 41.7604 95.5088C40.0165 98.1253 39 101.268 39 104.648C39 106.284 39.2378 107.863 39.6808 109.354C16.7191 102.415 0 81.0937 0 55.8677C0 25.0128 25.0128 0 55.8677 0C86.7225 0 111.735 25.0128 111.735 55.8677C111.735 81.3886 94.6231 102.913 71.2467 109.592C71.7362 108.031 72 106.371 72 104.648C72 101.357 71.0364 98.2912 69.376 95.7169Z" fill="url(#paint0_linear_371_776)"/>
<path d="M48.7756 105.238L49.9006 93.6758H60.9162V97.457H53.5256L53.1193 102.332C53.9735 101.759 54.8537 101.473 55.76 101.473C57.635 101.473 59.0777 102.139 60.0881 103.473C61.1089 104.806 61.6193 106.691 61.6193 109.129C61.6193 111.41 61.0152 113.249 59.8068 114.645C58.5985 116.04 56.9839 116.738 54.9631 116.738C53.7652 116.738 52.6558 116.457 51.635 115.895C50.6141 115.322 49.8068 114.53 49.2131 113.52C48.6298 112.509 48.3329 111.363 48.3225 110.082H52.6975C52.7704 111.03 53.0048 111.764 53.4006 112.285C53.7964 112.806 54.3068 113.066 54.9318 113.066C55.661 113.066 56.2235 112.717 56.6193 112.02C57.0152 111.311 57.2131 110.259 57.2131 108.863C57.2131 107.551 56.9735 106.561 56.4943 105.895C56.0256 105.228 55.3641 104.895 54.51 104.895C53.6766 104.895 53.0308 105.181 52.5725 105.754L52.2912 106.145L48.7756 105.238Z" fill="url(#paint1_linear_371_776)"/>
<path fill-rule="evenodd" clip-rule="evenodd" d="M68.9524 44.6588H68.6814H64.9124C64.2915 44.6588 64.1516 44.8949 64.4577 45.4458C65.0388 46.4988 65.6221 47.554 66.2053 48.6091L66.2058 48.61C66.7898 49.6664 67.3738 50.7228 67.9556 51.777C68.1042 52.0481 68.3228 52.2142 68.6114 52.3104C69.4355 52.5949 70.2595 52.8819 71.0841 53.169L71.0845 53.1691C72.4648 53.6497 73.8462 54.1308 75.2312 54.6015C75.4673 54.6802 75.5547 54.7939 75.5547 55.0563C75.546 57.3963 75.5547 59.7363 75.5634 62.085V62.0857L75.5634 62.0957C75.5634 62.8653 75.5722 62.874 76.333 62.9352C77.1288 62.9964 77.7059 63.6086 77.7059 64.4131C77.7059 64.4686 77.7064 64.524 77.7069 64.5794V64.5794C77.7093 64.8559 77.7117 65.1302 77.6534 65.3925C77.531 66.0221 77.0326 66.4419 76.3942 66.4768C76.0785 66.4914 75.7629 66.4925 75.4487 66.4936H75.4484C75.197 66.4944 74.9465 66.4953 74.6977 66.5031C74.5228 66.5031 74.5053 66.4069 74.4966 66.2757C74.313 64.107 72.7214 62.2619 70.6139 61.7547C67.6407 61.0376 64.72 63.0139 64.274 66.0396C64.2041 66.5031 64.2041 66.5031 63.7319 66.5031H49.9764C49.7578 66.5031 49.6704 66.4681 49.6441 66.2145C49.3818 63.6523 47.2131 61.6498 44.6771 61.606C42.0187 61.5623 39.8063 63.4337 39.4303 66.0309C39.3604 66.5206 39.3604 66.5206 38.8619 66.5206C38.6739 66.5206 38.4858 66.5211 38.2978 66.5217C37.7338 66.5233 37.1698 66.5249 36.6058 66.5118C35.845 66.5031 35.2941 66.1358 35.1104 65.4887C34.9618 64.999 34.9705 64.483 35.0929 63.9933C35.2329 63.3987 35.7925 62.979 36.4046 62.9352C36.5227 62.9265 36.6408 62.9243 36.7588 62.9221C36.8769 62.9199 36.9949 62.9177 37.113 62.909C37.3841 62.8828 37.4715 62.7953 37.4977 62.5155C37.5065 62.4193 37.5065 62.3144 37.5065 62.2182C37.5065 61.6172 37.5088 61.0162 37.5112 60.4154V60.4154C37.5167 59.0144 37.5222 57.6147 37.4977 56.2193C37.4802 55.0737 37.6289 53.9719 37.935 52.8613C38.6783 50.168 39.3778 47.4658 40.0687 44.755C40.1481 44.4295 40.1554 44.0824 40.1626 43.7398L40.1649 43.6357C40.1692 43.1066 40.1692 42.5776 40.1692 42.0485C40.1692 41.5194 40.1692 40.9904 40.1736 40.4613C40.1736 40.3127 40.1736 40.1728 40.1911 40.0241C40.2436 39.4382 40.6633 39.036 41.2492 39.0097C41.3891 39.001 41.529 39.001 41.6602 39.001H41.6602H67.4659C67.5009 39.001 67.5359 39.0007 67.5709 39.0005C67.7455 38.9993 67.9192 38.9981 68.0867 39.0272C68.6551 39.1234 68.9787 39.5344 68.9874 40.1903C68.9962 41.6331 68.9962 43.076 68.9962 44.5101C68.9649 44.5414 68.9616 44.5727 68.955 44.6353L68.9524 44.6588ZM53.0458 46.5389C53.0082 46.5358 52.9718 46.5315 52.936 46.5273C52.872 46.5199 52.8102 46.5127 52.7485 46.5127C49.2943 46.5127 45.8402 46.5127 42.3773 46.5039C42.045 46.5039 42.01 46.5302 41.9138 46.8625C41.6864 47.6233 41.4591 48.3862 41.2317 49.1492C41.0044 49.9122 40.777 50.6752 40.5496 51.4359C40.5234 51.5146 40.5059 51.5934 40.4884 51.6721H53.0458V46.5389ZM65.2534 51.6808L65.1572 51.4884C64.8006 50.8894 64.4426 50.2905 64.0843 49.691L64.0838 49.6902C63.5112 48.7321 62.9378 47.7727 62.3677 46.81C62.2365 46.5914 62.0529 46.5039 61.7993 46.5039C60.8374 46.5083 59.8754 46.5083 58.9135 46.5083C57.9516 46.5083 56.9897 46.5083 56.0278 46.5127H55.8092V51.6808H65.2534ZM56.9285 62.8303H63.3209C63.5132 62.8303 63.7931 62.6117 63.8018 62.4455C63.8106 62.2794 63.5307 62.0433 63.3209 62.0433H50.8422C50.8043 62.0433 50.7664 62.0423 50.7285 62.0413C50.6527 62.0394 50.5769 62.0374 50.5011 62.0433C50.2825 62.052 50.0114 62.3406 50.0989 62.498C50.1951 62.6816 50.3262 62.8303 50.5711 62.8303C51.9822 62.8245 53.3972 62.8264 54.8109 62.8284H54.811H54.8119C55.518 62.8293 56.2237 62.8303 56.9285 62.8303ZM44.5091 70.9975C42.0693 70.9975 40.1542 69.0824 40.1542 66.6602C40.1542 64.2991 42.113 62.3752 44.5178 62.3752C46.9139 62.3752 48.8902 64.3253 48.8814 66.7039C48.8727 69.2136 46.7302 71.0587 44.5091 70.9975ZM44.4916 68.4616C45.4885 68.4703 46.2842 67.7008 46.3017 66.7126C46.3192 65.7332 45.5322 64.9287 44.5353 64.9112C43.5471 64.8937 42.7426 65.6807 42.7251 66.6689C42.7164 67.6483 43.4947 68.4441 44.4916 68.4616ZM64.9979 66.6398C64.9892 69.0796 66.9043 70.9859 69.3616 70.9947C71.5652 71.0559 73.7164 69.2282 73.7252 66.701C73.7427 64.3225 71.7838 62.3724 69.379 62.3636C66.9742 62.3549 65.0067 64.2787 64.9979 66.6398ZM71.1542 66.6835C71.163 67.6629 70.3672 68.4587 69.3703 68.4587C68.3734 68.4587 67.5689 67.6717 67.5689 66.701C67.5689 65.7129 68.3647 64.9171 69.3528 64.9171C70.341 64.9084 71.1455 65.7041 71.1542 66.6835Z" fill="url(#paint2_linear_371_776)"/>
<defs>
<linearGradient id="paint0_linear_371_776" x1="55.8677" y1="0" x2="55.8677" y2="109.592" gradientUnits="userSpaceOnUse">
<stop stop-color="#F58C1F"/>
<stop offset="1" stop-color="#F57D21"/>
</linearGradient>
<linearGradient id="paint1_linear_371_776" x1="54.9318" y1="90.4258" x2="54.9318" y2="117.736" gradientUnits="userSpaceOnUse">
<stop stop-color="#F58C1F"/>
<stop offset="1" stop-color="#F57D21"/>
</linearGradient>
<linearGradient id="paint2_linear_371_776" x1="56.3539" y1="39" x2="56.3539" y2="70.999" gradientUnits="userSpaceOnUse">
<stop stop-color="#F58C1F"/>
<stop offset="1" stop-color="#F57D21"/>
</linearGradient>
</defs>
</svg>
