<svg width="49" height="48" viewBox="0 0 49 48" fill="none" xmlns="http://www.w3.org/2000/svg">
<path d="M43.0003 36.94L39.7003 37.72C38.9603 37.9 38.3803 38.46 38.2203 39.2L37.5203 42.14C37.1403 43.74 35.1003 44.24 34.0403 42.98L28.0603 36.1C27.949 35.9719 27.8722 35.8175 27.8371 35.6515C27.8021 35.4854 27.8099 35.3132 27.86 35.151C27.91 34.9888 28.0006 34.8421 28.1232 34.7247C28.2457 34.6073 28.3962 34.5231 28.5603 34.48C32.1105 33.6169 35.2877 31.632 37.6203 28.82C38.0003 28.36 38.6803 28.3 39.1003 28.72L43.5403 33.16C45.0603 34.68 44.5203 36.58 43.0003 36.94ZM5.90033 36.94L9.20032 37.72C9.94032 37.9 10.5203 38.46 10.6803 39.2L11.3803 42.14C11.7603 43.74 13.8003 44.24 14.8603 42.98L20.8403 36.1C21.3203 35.54 21.0603 34.66 20.3403 34.48C16.7901 33.6169 13.6129 31.632 11.2803 28.82C11.194 28.71 11.0854 28.6193 10.9618 28.554C10.8381 28.4886 10.7021 28.4499 10.5626 28.4405C10.423 28.4311 10.2831 28.4511 10.1518 28.4992C10.0204 28.5474 9.9007 28.6226 9.80032 28.72L5.36033 33.16C3.84033 34.68 4.38033 36.58 5.90033 36.94V36.94ZM24.5003 4C16.7603 4 10.5003 10.26 10.5003 18C10.5003 20.9 11.3603 23.56 12.8403 25.78C13.9248 27.3975 15.3355 28.7704 16.9819 29.8105C18.6282 30.8507 20.4739 31.5352 22.4003 31.82C23.0803 31.94 23.7803 32 24.5003 32C25.2203 32 25.9203 31.94 26.6003 31.82C30.5803 31.24 34.0003 28.98 36.1603 25.78C37.6957 23.4766 38.5103 20.7682 38.5003 18C38.5003 10.26 32.2403 4 24.5003 4ZM30.6203 17.56L28.9603 19.22C28.6803 19.5 28.5203 20.04 28.6203 20.44L29.1003 22.5C29.4803 24.12 28.6203 24.76 27.1803 23.9L25.1803 22.72C24.9772 22.6116 24.7505 22.5549 24.5203 22.5549C24.2901 22.5549 24.0634 22.6116 23.8603 22.72L21.8603 23.9C20.4203 24.74 19.5603 24.12 19.9403 22.5L20.4203 20.44C20.5003 20.06 20.3603 19.5 20.0803 19.22L18.3803 17.56C17.4003 16.58 17.7203 15.6 19.0803 15.38L21.2203 15.02C21.5803 14.96 22.0003 14.64 22.1603 14.32L23.3403 11.96C23.9803 10.68 25.0203 10.68 25.6603 11.96L26.8403 14.32C27.0003 14.64 27.4203 14.96 27.8003 15.02L29.9403 15.38C31.2803 15.6 31.6003 16.58 30.6203 17.56Z" fill="white"/>
</svg>
