<svg width="199" height="82" viewBox="0 0 199 82" fill="none" xmlns="http://www.w3.org/2000/svg">
<g filter="url(#filter0_d_1105_3559)">
<rect width="199" height="82" rx="5" fill="#F57D21" shape-rendering="crispEdges"/>
<path d="M25.9268 57.6094H19.6523L19.7012 51.7012H25.9268C27.652 51.7012 28.9948 51.3919 29.9551 50.7734C30.9154 50.1549 31.5908 49.1784 31.9814 47.8438C32.3883 46.5091 32.5918 44.7594 32.5918 42.5947V37.0527C32.5918 35.4089 32.486 34.0173 32.2744 32.8779C32.0628 31.7223 31.7048 30.7946 31.2002 30.0947C30.6956 29.3786 30.0202 28.8496 29.1738 28.5078C28.3275 28.166 27.2777 27.9951 26.0244 27.9951H19.5303V22.0625H26.0244C28.0752 22.0625 29.9388 22.3962 31.6152 23.0635C33.2917 23.7308 34.7321 24.7074 35.9365 25.9932C37.141 27.2627 38.0687 28.8333 38.7197 30.7051C39.3708 32.5768 39.6963 34.709 39.6963 37.1016V42.5947C39.6963 45.0036 39.3708 47.1357 38.7197 48.9912C38.0687 50.8467 37.141 52.4173 35.9365 53.7031C34.7484 54.9727 33.3079 55.9411 31.6152 56.6084C29.9225 57.2757 28.0264 57.6094 25.9268 57.6094ZM23.8027 22.0625V57.6094H16.6494V22.0625H23.8027ZM59.5205 21.9893V57.6094H52.6846V30.3877L45.8975 33V27.2871L58.7881 21.9893H59.5205ZM76.7568 36.6621V57.6094H69.8965V31.1934H76.3418L76.7568 36.6621ZM75.7803 43.498L73.9004 43.5469C73.8678 41.6914 74.0306 39.9824 74.3887 38.4199C74.7467 36.8574 75.2839 35.4984 76 34.3428C76.7324 33.1872 77.652 32.292 78.7588 31.6572C79.8656 31.0225 81.1595 30.7051 82.6406 30.7051C83.6009 30.7051 84.488 30.8841 85.3018 31.2422C86.1156 31.584 86.8236 32.1292 87.4258 32.8779C88.028 33.6104 88.4919 34.5706 88.8174 35.7588C89.1429 36.9307 89.3057 38.3385 89.3057 39.9824V57.6094H82.4697V40.8125C82.4697 39.6406 82.3558 38.7454 82.1279 38.127C81.9001 37.4922 81.5745 37.0527 81.1514 36.8086C80.7282 36.5482 80.2074 36.418 79.5889 36.418C78.9378 36.418 78.3682 36.597 77.8799 36.9551C77.3916 37.3132 76.9928 37.8177 76.6836 38.4688C76.3906 39.1035 76.1628 39.8522 76 40.7148C75.8535 41.5775 75.7803 42.5052 75.7803 43.498ZM88.6465 42.8145L86.1807 43.1318C86.1481 41.3903 86.3027 39.7708 86.6445 38.2734C86.9863 36.7598 87.5153 35.4414 88.2314 34.3184C88.9476 33.179 89.8428 32.292 90.917 31.6572C92.0075 31.0225 93.2689 30.7051 94.7012 30.7051C95.7754 30.7051 96.752 30.8841 97.6309 31.2422C98.5098 31.6003 99.2585 32.1781 99.877 32.9756C100.512 33.7568 100.992 34.7904 101.317 36.0762C101.659 37.362 101.83 38.9245 101.83 40.7637V57.6094H94.9697V40.7881C94.9697 39.5999 94.8558 38.6885 94.6279 38.0537C94.4001 37.4189 94.0745 36.9876 93.6514 36.7598C93.2282 36.5319 92.7236 36.418 92.1377 36.418C91.5518 36.418 91.0391 36.5807 90.5996 36.9062C90.1764 37.2318 89.8184 37.6875 89.5254 38.2734C89.2324 38.8431 89.0127 39.5186 88.8662 40.2998C88.7197 41.0648 88.6465 41.903 88.6465 42.8145Z" fill="white"/>
<path d="M123.714 42.4212C123.714 42.3562 123.779 42.3562 123.714 42.4212C123.714 42.1614 123.844 42.0965 123.974 42.0316C124.364 41.9017 124.69 41.642 125.08 41.3822C125.015 41.3173 125.015 41.3173 125.015 41.2524C124.885 41.0576 124.69 40.8628 124.56 40.7329C124.43 40.603 124.364 40.4731 124.234 40.4082C124.104 40.2783 123.974 40.2134 123.779 40.2134C123.453 40.1485 123.063 40.0186 122.737 39.9537C122.607 39.8887 122.477 39.8887 122.347 39.8238C122.086 39.6939 121.956 39.4991 121.891 39.1745C121.826 38.8498 121.826 38.5251 121.891 38.2654C121.956 37.681 122.021 37.0316 122.086 36.4472C122.347 34.4992 122.737 32.5511 123.583 30.733C124.039 29.694 124.625 28.7849 125.276 27.8759C126.187 26.5772 127.293 25.3434 128.335 24.1746C128.66 23.8499 128.986 23.5252 129.376 23.2655C129.701 23.0707 129.962 22.811 130.222 22.5512C130.352 22.4214 130.483 22.3564 130.613 22.2265C130.873 22.0317 131.133 22.0967 131.394 22.3564C131.589 22.5512 131.719 22.811 131.849 23.1356C131.914 23.3304 131.98 23.5902 132.045 23.785C132.11 23.9798 132.045 24.1096 131.98 24.3045C131.849 24.5642 131.719 24.759 131.524 24.9538C130.873 25.6031 130.222 26.2525 129.506 26.9018C129.311 27.0966 129.116 27.2914 128.92 27.4862C128.79 27.6161 128.725 27.681 128.595 27.8109C128.4 28.0707 128.4 28.3953 128.595 28.72C128.66 28.8499 128.725 28.9148 128.855 29.0447C129.376 29.6291 130.092 30.0187 130.873 30.1486C131.394 30.2784 131.914 30.2784 132.435 30.2784C133.216 30.2784 133.997 30.2784 134.778 30.2135C134.843 30.2135 134.908 30.2135 135.039 30.2135C135.494 30.1486 135.82 29.8888 135.95 29.4343C136.08 29.1096 136.21 28.8499 136.47 28.6551C136.601 28.5252 136.731 28.4603 136.861 28.3953C138.228 27.746 139.595 27.1616 141.026 26.772C142.133 26.4473 143.239 26.3174 144.346 26.3174C145.583 26.3174 146.689 26.5772 147.861 26.9668C149.423 27.5512 150.854 28.3953 152.091 29.4343C152.807 30.0187 153.393 30.668 154.044 31.3823C154.304 31.707 154.564 31.9667 154.76 32.3563C154.825 32.4862 154.955 32.6161 155.02 32.7459C155.15 32.8758 155.28 32.9407 155.411 33.0057C155.996 33.1355 156.647 33.1355 157.233 33.0057C158.144 32.8758 158.99 32.6161 159.771 32.0966C160.292 31.7719 160.813 31.3174 161.138 30.7979C161.464 30.2784 161.854 29.8239 162.114 29.2395C162.179 29.1096 162.31 28.9797 162.375 28.8499C162.635 28.5252 162.961 28.3304 163.416 28.3304C163.481 28.3304 163.611 28.3304 163.676 28.3304C166.41 28.3304 169.144 28.3304 171.812 28.3304C172.789 28.3304 173.765 28.3304 174.741 28.3304C174.936 28.3304 175.197 28.3304 175.392 28.3953C175.978 28.5252 176.368 28.9797 176.433 29.5641C176.433 29.9538 176.433 30.3434 176.368 30.733C176.303 31.3174 176.173 31.9018 176.108 32.4862C176.043 32.8109 176.043 33.1355 176.043 33.3953C175.978 34.1096 175.717 34.7589 175.327 35.4083C175.001 35.9927 174.546 36.5771 174.09 37.0965C173.7 37.4862 173.374 37.9407 172.919 38.2654C172.658 38.5251 172.398 38.7848 172.138 39.0446C171.747 39.4991 171.422 39.9537 171.226 40.5381C171.096 40.7978 171.031 41.0576 170.901 41.2524C170.836 41.3173 170.901 41.4472 170.901 41.5121C170.966 41.642 171.096 41.7718 171.292 41.9017C171.422 41.9666 171.422 41.9666 171.357 42.0965C171.357 42.1614 171.292 42.2264 171.292 42.3562C171.357 42.3562 171.422 42.4212 171.487 42.4212C174.676 43.3303 177.084 45.8627 177.8 49.1094C178.711 53.3951 176.433 57.6808 172.463 59.2392C171.292 59.6938 170.055 59.8886 168.818 59.8886C165.824 59.7587 163.091 58.1353 161.594 55.5379C161.594 55.473 161.529 55.473 161.529 55.4081C161.464 55.473 161.398 55.538 161.333 55.6029C161.268 55.7328 161.138 55.7328 161.008 55.7328C157.558 55.7328 154.109 55.7328 150.724 55.7328C145.648 55.7328 140.571 55.7328 135.494 55.7328C135.299 55.7328 135.169 55.6678 134.973 55.5379C134.843 55.4081 134.713 55.3431 134.583 55.2133C134.583 55.2782 134.518 55.2782 134.518 55.3431C133.216 57.5509 131.329 58.9795 128.855 59.5639C127.879 59.8236 126.903 59.8236 125.926 59.7587C122.282 59.3691 119.288 56.7717 118.311 53.2003C118.051 52.0964 117.921 51.0575 118.051 49.9536C118.442 46.6419 120.589 43.8497 123.648 42.6809C123.648 42.4212 123.714 42.4212 123.714 42.4212ZM126.773 56.3821C127.423 56.3821 128.074 56.2522 128.725 56.0574C131.394 55.0834 132.891 52.2912 132.24 49.499C131.524 46.3173 128.205 44.4341 125.145 45.4082C122.412 46.2523 120.72 49.1094 121.37 51.9665C121.891 54.499 124.169 56.3821 126.773 56.3821ZM169.209 56.3821C169.86 56.3821 170.51 56.2522 171.161 56.0574C173.83 55.0834 175.327 52.2263 174.676 49.4341C173.895 46.2523 170.51 44.3692 167.321 45.538C164.718 46.5121 163.221 49.1744 163.807 51.9016C164.262 54.499 166.54 56.3821 169.209 56.3821Z" fill="white"/>
</g>
<defs>
<filter id="filter0_d_1105_3559" x="-17" y="-17" width="243" height="126" filterUnits="userSpaceOnUse" color-interpolation-filters="sRGB">
<feFlood flood-opacity="0" result="BackgroundImageFix"/>
<feColorMatrix in="SourceAlpha" type="matrix" values="0 0 0 0 0 0 0 0 0 0 0 0 0 0 0 0 0 0 127 0" result="hardAlpha"/>
<feOffset dx="5" dy="5"/>
<feGaussianBlur stdDeviation="11"/>
<feComposite in2="hardAlpha" operator="out"/>
<feColorMatrix type="matrix" values="0 0 0 0 0.0392157 0 0 0 0 0.560784 0 0 0 0 0.309804 0 0 0 0.2 0"/>
<feBlend mode="normal" in2="BackgroundImageFix" result="effect1_dropShadow_1105_3559"/>
<feBlend mode="normal" in="SourceGraphic" in2="effect1_dropShadow_1105_3559" result="shape"/>
</filter>
</defs>
</svg>
