<svg width="199" height="82" viewBox="0 0 199 82" fill="none" xmlns="http://www.w3.org/2000/svg">
<g filter="url(#filter0_d_1105_3566)">
<rect width="199" height="82" rx="5" fill="#F57D21" shape-rendering="crispEdges"/>
<path d="M28.7891 42.1064H21.5137L21.4893 36.9307H27.6904C28.667 36.9307 29.4645 36.7679 30.083 36.4424C30.7178 36.1006 31.1816 35.6042 31.4746 34.9531C31.7839 34.2858 31.9385 33.4801 31.9385 32.5361C31.9385 31.4456 31.8001 30.5749 31.5234 29.9238C31.2467 29.2565 30.7992 28.7682 30.1807 28.459C29.5622 28.1497 28.7565 27.9951 27.7637 27.9951H23.9551V57.6094H16.8018V22.0625H27.7637C29.5378 22.0625 31.1247 22.2578 32.5244 22.6484C33.9242 23.0391 35.1123 23.6331 36.0889 24.4307C37.0654 25.2282 37.806 26.2373 38.3105 27.458C38.8314 28.6787 39.0918 30.1191 39.0918 31.7793C39.0918 33.2441 38.7988 34.5951 38.2129 35.832C37.627 37.069 36.7074 38.0781 35.4541 38.8594C34.2171 39.6406 32.5977 40.0801 30.5957 40.1777L28.7891 42.1064ZM28.5449 57.6094H19.4873L22.3438 51.7012H28.5449C29.4889 51.7012 30.2539 51.4977 30.8398 51.0908C31.4258 50.6839 31.849 50.1387 32.1094 49.4551C32.3698 48.7552 32.5 47.9577 32.5 47.0625C32.5 46.0534 32.3779 45.1745 32.1338 44.4258C31.9059 43.6771 31.5234 43.1074 30.9863 42.7168C30.4492 42.3099 29.7249 42.1064 28.8135 42.1064H22.6611L22.71 36.9307H30.1807L31.8652 38.9814C33.7695 38.9163 35.2913 39.2826 36.4307 40.0801C37.57 40.8613 38.3838 41.8867 38.8721 43.1562C39.3766 44.4095 39.6289 45.7441 39.6289 47.1602C39.6289 49.4388 39.1976 51.3594 38.335 52.9219C37.4886 54.4681 36.2435 55.64 34.5996 56.4375C32.9557 57.2188 30.9375 57.6094 28.5449 57.6094ZM65.2637 51.9209V57.6094H44.3164V52.751L53.9355 40.5195C54.8633 39.2337 55.5876 38.1107 56.1084 37.1504C56.6292 36.1738 57.0036 35.3031 57.2314 34.5381C57.4593 33.7568 57.5732 33.0244 57.5732 32.3408C57.5732 31.2829 57.4512 30.3796 57.207 29.6309C56.9629 28.8659 56.5967 28.2799 56.1084 27.873C55.6364 27.4499 55.0505 27.2383 54.3506 27.2383C53.5042 27.2383 52.8044 27.4987 52.251 28.0195C51.6976 28.5404 51.2826 29.2565 51.0059 30.168C50.7454 31.0632 50.6152 32.0804 50.6152 33.2197H43.7549C43.7549 31.0876 44.1862 29.1344 45.0488 27.3604C45.9277 25.5863 47.1566 24.1784 48.7354 23.1367C50.3304 22.0788 52.2428 21.5498 54.4727 21.5498C56.6536 21.5498 58.4766 21.9567 59.9414 22.7705C61.4225 23.5843 62.5374 24.748 63.2861 26.2617C64.0511 27.7591 64.4336 29.5495 64.4336 31.6328C64.4336 32.821 64.279 33.9766 63.9697 35.0996C63.6605 36.2064 63.221 37.3132 62.6514 38.4199C62.0817 39.5104 61.3818 40.6253 60.5518 41.7646C59.7217 42.904 58.7858 44.084 57.7441 45.3047L53.1055 51.9209H65.2637Z" fill="white"/>
<path d="M115 44.8867C135.291 44.8867 155.645 44.8867 175.936 44.8867C175.936 45.0152 176 45.1437 176 45.3365C176 45.5936 176 45.8506 176 46.1076C176 49.5133 176 52.9189 176 56.3888C176 56.8386 176 57.2884 175.936 57.7382C175.936 57.931 175.872 58.0595 175.807 58.2523C175.679 58.5736 175.486 58.8306 175.101 58.9591C174.78 59.0876 174.523 59.0876 174.202 59.0876C172.982 59.1519 171.698 59.1519 170.478 59.0876C170.414 59.0876 170.285 59.0876 170.221 59.0876C170.221 59.1519 170.157 59.2161 170.157 59.2804C169.258 61.9149 167.46 63.7141 164.827 64.6138C164.057 64.8708 163.286 64.9993 162.452 64.9993C161.938 64.9993 161.424 64.9993 160.911 64.935C160.14 64.8065 159.369 64.5495 158.727 64.1639C157.957 63.7141 157.251 63.2643 156.608 62.6218C155.645 61.6579 155.003 60.5655 154.618 59.2804C154.618 59.2161 154.618 59.1519 154.554 59.0876C154.489 59.0876 154.425 59.0876 154.425 59.0876C150.187 59.0876 145.885 59.1519 141.647 59.1519C140.171 59.1519 138.694 59.1519 137.281 59.1519C137.153 59.1519 136.96 59.1519 136.832 59.2161C136.703 59.2804 136.703 59.2804 136.639 59.4089C136.318 60.3085 135.868 61.1438 135.291 61.9149C134.456 63.0073 133.364 63.7784 132.08 64.3567C130.988 64.8708 131.117 64.7423 130.282 64.8708C129.512 64.9993 128.805 64.9993 128.035 64.935C127.842 64.935 127.649 64.935 127.521 64.935C126.943 64.935 126.365 64.8065 125.852 64.5495C125.145 64.2282 124.503 63.9069 123.925 63.3929C123.54 63.0716 123.219 62.7503 122.962 62.3005C122.898 62.2362 122.898 62.172 122.834 62.1077C122.127 61.2724 121.614 60.3085 121.293 59.2804C121.228 59.1519 121.164 59.0876 121.036 59.0234C120.651 58.9591 120.458 58.9591 120.201 58.9591C119.431 59.0234 118.596 59.0234 117.825 59.0234C117.312 59.0234 116.862 59.0234 116.348 59.0234C116.156 59.0234 115.899 58.9591 115.706 58.8948C115.321 58.7021 115.064 58.3808 115 57.931C115 57.8025 115 57.674 115 57.5454C115 53.3687 115 49.2562 115 45.0795C115 45.0152 115 44.951 115 44.8867ZM128.869 51.8908C126.173 51.8908 124.054 54.0755 124.054 56.7101C124.054 59.4089 126.237 61.5294 128.869 61.5937C131.566 61.5937 133.685 59.4089 133.685 56.7101C133.685 54.0755 131.566 51.8908 128.869 51.8908ZM162.387 51.8908C159.691 51.8908 157.572 54.0755 157.572 56.7743C157.572 59.4732 159.755 61.5937 162.387 61.5937C165.02 61.5937 167.203 59.4089 167.203 56.7101C167.203 54.0755 165.084 51.8908 162.387 51.8908Z" fill="white"/>
<path d="M175.999 43.0868C169.321 43.0868 162.643 43.0868 155.965 43.0868C155.965 43.0225 155.965 43.0225 155.965 42.9582V42.894C155.965 34.669 155.965 26.3798 155.965 18.1549C155.965 18.0264 155.965 17.9621 155.965 17.8336C156.029 17.3838 156.414 17.1268 156.864 17.0625H156.928C162.643 17.0625 168.357 17.0625 174.072 17.0625C174.843 17.0625 175.549 17.5123 175.806 18.2191C175.87 18.4762 175.934 18.6689 175.934 18.926C175.934 20.6609 175.934 22.3959 175.934 24.1308C175.934 30.3638 175.934 36.5968 175.934 42.8297C175.999 42.894 175.999 42.9582 175.999 43.0868Z" fill="white"/>
<path d="M115 43.0885C115 43.0243 115 42.96 115 42.8957C115 37.6909 115 32.486 115 27.2812C115 23.49 117.183 19.7631 120.907 18.0281C121.999 17.5141 123.091 17.1928 124.311 17.0643C124.632 17.0643 124.953 17 125.338 17C128.42 17 131.502 17 134.584 17C134.713 17 134.841 17 134.969 17.0643C135.355 17.1928 135.547 17.5141 135.547 17.8996C135.547 17.9639 135.547 18.0281 135.547 18.0924C135.547 26.3173 135.547 34.5423 135.547 42.8315C135.547 42.8957 135.547 42.96 135.547 43.0243C128.677 43.0885 121.871 43.0885 115 43.0885Z" fill="white"/>
<path d="M154.232 43.0868C148.453 43.0868 142.738 43.0868 137.023 43.0868C137.023 43.0225 137.023 42.9582 137.023 42.894C137.023 39.1028 137.023 35.3116 137.023 31.5847C137.023 27.0867 137.023 22.6529 137.023 18.1549C137.023 18.0264 137.023 17.8978 137.088 17.7693C137.216 17.3838 137.537 17.0625 137.987 17.0625H138.051C143.123 17.0625 148.196 17.0625 153.269 17.0625C153.397 17.0625 153.526 17.0625 153.654 17.1268C154.039 17.2553 154.296 17.5766 154.296 18.0264C154.296 18.0906 154.296 18.1549 154.296 18.1549C154.296 26.3798 154.296 34.669 154.296 42.894C154.232 42.894 154.232 42.9582 154.232 43.0868Z" fill="white"/>
</g>
<defs>
<filter id="filter0_d_1105_3566" x="-17" y="-17" width="243" height="126" filterUnits="userSpaceOnUse" color-interpolation-filters="sRGB">
<feFlood flood-opacity="0" result="BackgroundImageFix"/>
<feColorMatrix in="SourceAlpha" type="matrix" values="0 0 0 0 0 0 0 0 0 0 0 0 0 0 0 0 0 0 127 0" result="hardAlpha"/>
<feOffset dx="5" dy="5"/>
<feGaussianBlur stdDeviation="11"/>
<feComposite in2="hardAlpha" operator="out"/>
<feColorMatrix type="matrix" values="0 0 0 0 0.0392157 0 0 0 0 0.560784 0 0 0 0 0.309804 0 0 0 0.2 0"/>
<feBlend mode="normal" in2="BackgroundImageFix" result="effect1_dropShadow_1105_3566"/>
<feBlend mode="normal" in="SourceGraphic" in2="effect1_dropShadow_1105_3566" result="shape"/>
</filter>
</defs>
</svg>
