<svg width="43" height="48" viewBox="0 0 43 48" fill="none" xmlns="http://www.w3.org/2000/svg">
<path d="M0.148438 23.947C0.148438 18.9759 0.148438 13.9412 0.148438 8.97016C0.148438 7.12195 0.339631 5.33748 1.1044 3.61674C1.86918 1.95973 3.20753 0.940034 4.92827 0.493916C5.88424 0.238992 6.8402 0.0477983 7.79617 0.0477983C11.3014 -0.0159328 14.8066 -0.0159328 18.3118 0.0477983C19.9051 0.0477983 21.5621 0.366454 22.9642 1.25869C24.1113 2.02346 24.9398 3.04316 25.386 4.38151C25.8958 5.84733 26.0233 7.44061 26.0233 8.97016C26.0233 19.0397 26.0233 29.0455 26.0233 39.115C26.0233 40.8994 25.8958 42.6202 25.131 44.2772C24.3025 46.0617 22.8367 47.1451 20.9248 47.5275C19.8414 47.7824 18.7579 47.8461 17.6108 47.9099C15.2527 47.9736 12.8309 48.0373 10.4729 47.9736C8.81587 47.9099 7.09513 47.8461 5.50185 47.5912C2.69768 47.1451 0.976942 45.2969 0.467093 42.4927C0.2759 41.2818 0.148438 40.0072 0.148438 38.7963C0.148438 33.8253 0.148438 28.8543 0.148438 23.947ZM13.0859 35.6098C11.1739 35.6098 9.58064 37.203 9.51691 39.115C9.51691 41.0269 11.1739 42.6839 13.0859 42.6839C14.9978 42.6839 16.5911 41.0269 16.5911 39.115C16.5911 37.203 14.9978 35.6098 13.0859 35.6098ZM13.0221 7.44061C14.233 7.44061 15.3802 7.44061 16.5911 7.44061C17.802 7.44061 18.503 6.8033 18.5667 5.84733C18.5667 4.89136 17.802 4.25405 16.5911 4.25405H16.5273C14.233 4.25405 11.9387 4.25405 9.58064 4.25405C9.32572 4.25405 9.00706 4.31778 8.75214 4.38151C8.0511 4.57271 7.60498 5.14629 7.60498 5.7836C7.60498 6.48464 7.98736 7.05822 8.62468 7.31315C8.94333 7.44061 9.26199 7.44061 9.58064 7.44061C10.7278 7.44061 11.875 7.44061 13.0221 7.44061Z" fill="white"/>
<path d="M27.3635 9.47922C28.0645 10.1165 28.8293 10.0528 29.5941 10.0528C31.2511 10.0528 32.8444 10.0528 34.5014 10.0528C34.82 10.0528 35.1387 10.0528 35.4573 9.92534C36.0309 9.79787 36.477 9.22429 36.477 8.65071C36.477 8.0134 36.0309 7.50355 35.3936 7.37609C35.1387 7.31236 34.8837 7.31236 34.6926 7.31236C32.8444 7.31236 30.9962 7.31236 29.0842 7.31236C28.5744 7.31236 28.0008 7.50355 27.3635 7.56728C27.3635 7.50355 27.2997 7.31236 27.236 7.1849C27.0448 6.29266 26.9174 5.3367 26.7262 4.44446C26.5987 3.99834 26.6624 3.74342 27.1723 3.74342C29.5941 3.74342 32.0159 3.67969 34.4376 3.67969C35.7123 3.67969 37.0506 3.74342 38.3252 3.99834C40.747 4.44446 42.1491 6.03774 42.5315 8.45952C42.7227 9.60668 42.8501 10.7538 42.8501 11.901C42.8501 20.1223 42.8501 28.4074 42.8501 36.6287C42.8501 37.7758 42.7227 38.923 42.4678 40.0064C41.9579 42.4282 40.3009 43.7028 37.9428 44.0215C36.732 44.2127 35.4573 44.2127 34.2464 44.2764C32.0796 44.3401 29.9127 44.2764 27.6821 44.2764C27.4909 44.2764 27.3635 44.2764 27.1723 44.2764C26.7262 44.2764 26.535 44.0852 26.7262 43.5754C27.1723 42.1733 27.3635 40.7075 27.3635 39.1779C27.3635 29.5545 27.3635 19.8674 27.3635 10.244C27.3635 10.0528 27.3635 9.79787 27.3635 9.47922ZM34.82 36.7561C34.82 35.1629 33.4817 33.7608 31.8247 33.7608C30.1676 33.7608 28.7656 35.0991 28.8293 36.7561C28.8293 38.4131 30.2314 39.7515 31.8247 39.7515C33.4179 39.8152 34.82 38.3494 34.82 36.7561Z" fill="white"/>
</svg>
