<svg width="40" height="40" viewBox="0 0 40 40" fill="none" xmlns="http://www.w3.org/2000/svg">
<path d="M31.24 17.504C30.8316 17.504 30.4399 17.3418 30.1511 17.0529C29.8622 16.7641 29.7 16.3724 29.7 15.964C29.7 15.224 28.96 13.684 27.72 12.344C26.5 11.044 25.16 10.284 24.04 10.284C23.6316 10.284 23.2399 10.1218 22.9511 9.83294C22.6622 9.54414 22.5 9.15243 22.5 8.744C22.5 7.904 23.2 7.204 24.04 7.204C26.04 7.204 28.14 8.284 29.98 10.224C31.7 12.044 32.8 14.304 32.8 15.944C32.8 16.804 32.1 17.504 31.24 17.504ZM38.46 17.5C38.0516 17.5 37.6599 17.3378 37.3711 17.0489C37.0822 16.7601 36.92 16.3684 36.92 15.96C36.92 8.86 31.14 3.1 24.06 3.1C23.6516 3.1 23.2599 2.93775 22.9711 2.64894C22.6822 2.36014 22.52 1.96843 22.52 1.56C22.52 0.72 23.2 0 24.04 0C32.84 0 40 7.16 40 15.96C40 16.8 39.3 17.5 38.46 17.5ZM18.1 25.9L14.4 29.6C13.62 30.38 12.38 30.38 11.58 29.62C11.36 29.4 11.14 29.2 10.92 28.98C8.89754 26.944 7.0322 24.7578 5.34 22.44C3.7 20.16 2.38 17.88 1.42 15.62C0.48 13.34 0 11.16 0 9.08C0 7.72 0.24 6.42 0.72 5.22C1.2 4 1.96 2.88 3.02 1.88C4.3 0.62 5.7 0 7.18 0C7.74 0 8.3 0.12 8.8 0.36C9.32 0.6 9.78 0.96 10.14 1.48L14.78 8.02C15.14 8.52 15.4 8.98 15.58 9.42C15.76 9.84 15.86 10.26 15.86 10.64C15.86 11.12 15.72 11.6 15.44 12.06C15.18 12.52 14.8 13 14.32 13.48L12.8 15.06C12.58 15.28 12.48 15.54 12.48 15.86C12.48 16.02 12.5 16.16 12.54 16.32C12.6 16.48 12.66 16.6 12.7 16.72C13.06 17.38 13.68 18.24 14.56 19.28C15.46 20.32 16.42 21.38 17.46 22.44C17.66 22.64 17.88 22.84 18.08 23.04C18.88 23.82 18.9 25.1 18.1 25.9ZM39.94 32.66C39.9374 33.4148 39.7665 34.1595 39.44 34.84C39.1 35.56 38.66 36.24 38.08 36.88C37.1 37.96 36.02 38.74 34.8 39.24C34.78 39.24 34.76 39.26 34.74 39.26C33.56 39.74 32.28 40 30.9 40C28.86 40 26.68 39.52 24.38 38.54C22.08 37.56 19.78 36.24 17.5 34.58C16.72 34 15.94 33.42 15.2 32.8L21.74 26.26C22.3 26.68 22.8 27 23.22 27.22C23.32 27.26 23.44 27.32 23.58 27.38C23.74 27.44 23.9 27.46 24.08 27.46C24.42 27.46 24.68 27.34 24.9 27.12L26.42 25.62C26.92 25.12 27.4 24.74 27.86 24.5C28.32 24.22 28.78 24.08 29.28 24.08C29.66 24.08 30.06 24.16 30.5 24.34C30.94 24.52 31.4 24.78 31.9 25.12L38.52 29.82C39.04 30.18 39.4 30.6 39.62 31.1C39.82 31.6 39.94 32.1 39.94 32.66Z" fill="url(#paint0_linear_278_1643)"/>
<defs>
<linearGradient id="paint0_linear_278_1643" x1="20" y1="40" x2="20" y2="2.11394e-07" gradientUnits="userSpaceOnUse">
<stop stop-color="#5CCC94"/>
<stop offset="1" stop-color="#8CCAAE"/>
</linearGradient>
</defs>
</svg>