<svg width="35" height="28" viewBox="0 0 35 28" fill="none" xmlns="http://www.w3.org/2000/svg">
<path d="M1.67363 1.003C1.68175 0.945283 1.68176 0.90921 1.68176 0.873137C1.68176 0.764919 1.68176 0.663917 1.68176 0.555699C1.68988 0.23826 1.99861 0.00739517 2.29921 0.0146097C2.83542 0.0218242 3.37976 0.0218242 3.91597 0.0146097C4.20033 0.0146097 4.4928 0.216616 4.5253 0.497983C4.53343 0.591771 4.53343 0.692775 4.53343 0.786563C4.53343 0.851494 4.53343 0.923639 4.53343 0.98857C4.67967 1.01743 4.80966 1.003 4.94777 1.003C5.08589 1.003 5.21588 1.003 5.35399 1.003C5.49211 1.003 5.6221 1.003 5.76834 1.003C5.77646 0.959712 5.78459 0.930854 5.78459 0.894781C5.78459 0.779349 5.78459 0.663916 5.78459 0.548484C5.79271 0.310405 5.96332 0.108398 6.21518 0.0362532C6.2883 0.0146096 6.36142 0.00739528 6.44267 0.00739528C6.96263 0.00739528 7.47447 0.0146096 7.99443 0.000180597C8.30316 -0.00703392 8.64438 0.202187 8.65251 0.577342C8.65251 0.671131 8.65251 0.772134 8.65251 0.865923C8.65251 0.901995 8.66063 0.938068 8.66063 0.98857C8.79875 1.01021 8.93686 0.995784 9.06685 1.003C9.20497 1.003 9.33496 1.003 9.47307 1.003C9.61119 1.003 9.74118 1.01021 9.88742 0.995784C9.89554 0.959712 9.90367 0.938068 9.90367 0.90921C9.90367 0.793778 9.90367 0.678346 9.90367 0.562913C9.91179 0.339263 10.0337 0.166115 10.2611 0.0651114C10.3424 0.0290388 10.4318 0.0146097 10.5292 0.0146097C11.0655 0.0146097 11.5935 0.0218242 12.1298 0.0146097C12.406 0.00739517 12.7472 0.202187 12.7635 0.562913C12.7716 0.663917 12.7635 0.76492 12.7635 0.865923C12.7635 0.90921 12.7716 0.952497 12.7716 1.003C12.9828 1.02464 13.1941 1.01021 13.3972 1.01021C13.6003 1.01021 13.7953 1.01743 14.0065 1.003C14.0146 0.966926 14.0146 0.938068 14.0146 0.90921C14.0146 0.800992 14.0146 0.699989 14.0146 0.591771C14.0146 0.483554 14.039 0.38255 14.104 0.288761C14.2259 0.115613 14.3965 0.0146097 14.624 0.0146097C15.1683 0.0146097 15.7126 0.0146097 16.257 0.0146097C16.5169 0.0146097 16.85 0.202187 16.8663 0.548484C16.8744 0.642273 16.8663 0.728847 16.8663 0.822636C16.8663 0.873137 16.8663 0.930854 16.8663 0.98857C16.8988 0.995785 16.9232 1.01021 16.9475 1.01021C17.3131 1.01021 17.6787 1.01021 18.0443 1.01021C18.0687 1.01021 18.085 1.003 18.1175 0.995784C18.1175 0.952497 18.1256 0.916425 18.1256 0.880352C18.1256 0.779349 18.1256 0.678345 18.1256 0.577342C18.1337 0.389765 18.215 0.231045 18.3937 0.115613C18.4993 0.0434679 18.6212 0.0146097 18.7593 0.0146097C19.0111 0.0146097 19.2711 0.0146097 19.523 0.0146097C19.7992 0.0146097 20.0754 0.0146097 20.3517 0.0146097C20.6604 0.0146097 20.9041 0.194973 20.9691 0.46191C20.9773 0.512412 20.9773 0.570127 20.9773 0.620629C20.9773 0.743276 20.9773 0.858709 20.9773 0.98857C21.0179 0.995785 21.0504 1.003 21.0747 1.003C21.4322 1.003 21.7816 1.003 22.139 1.003C22.1634 1.003 22.1797 0.995784 22.2122 0.995784C22.2203 0.966926 22.2284 0.945283 22.2365 0.916425C22.2365 0.822636 22.2365 0.721633 22.2365 0.627844C22.2365 0.562913 22.2447 0.505197 22.2528 0.440266C22.3097 0.202187 22.5453 0.0218243 22.8215 0.00739528C22.8459 0.00739528 22.8621 0.00739528 22.8865 0.00739528C23.4065 0.00739528 23.9345 0.00739528 24.4545 0.00739528C24.5195 0.00739528 24.5845 0.0146097 24.6495 0.0290388C24.9013 0.0939694 25.0801 0.295976 25.0963 0.534055C25.1045 0.635058 25.0963 0.736061 25.0963 0.837065C25.0963 0.887566 25.0963 0.930853 25.1045 0.981355C25.1288 0.98857 25.1532 0.995784 25.1695 0.995784C25.5432 0.995784 25.9169 0.995784 26.2987 0.995784C26.3069 0.995784 26.3231 0.98857 26.3394 0.98857C26.3475 0.966926 26.3556 0.938068 26.3637 0.916425C26.3637 0.808207 26.3637 0.707204 26.3637 0.598986C26.3637 0.534055 26.3719 0.46191 26.3962 0.396979C26.4775 0.166115 26.705 0.0146098 26.9812 0.00739528C27.1437 0.00739528 27.3062 0.00739528 27.4687 0.00739528C27.8424 0.00739528 28.208 0.0146098 28.5817 0.00739528C28.9229 0.000180763 29.2317 0.259903 29.2235 0.577342C29.2235 0.671131 29.2235 0.772134 29.2235 0.865923C29.2235 0.901995 29.2317 0.945282 29.2317 0.981355C29.256 0.98857 29.2723 0.995784 29.2967 0.995784C29.6704 0.995784 30.036 0.995784 30.4097 0.995784C30.4341 0.995784 30.4503 0.98857 30.4828 0.981355C30.4828 0.938068 30.4909 0.894781 30.4909 0.851494C30.4909 0.743276 30.4909 0.627844 30.4909 0.519626C30.5072 0.31762 30.6209 0.166115 30.8159 0.0651114C30.9053 0.0218243 30.9947 0.000180597 31.1003 0.000180597C31.6446 0.000180597 32.189 0.000180597 32.7333 0.000180597C33.0258 0.000180597 33.3264 0.223831 33.3426 0.519626C33.3507 0.62063 33.3426 0.721633 33.3426 0.822636C33.3426 0.873137 33.3426 0.916425 33.3507 0.959712C33.3914 1.003 33.4401 0.98857 33.4807 0.98857C33.7651 0.98857 34.0494 0.98857 34.3257 0.98857C34.4069 0.98857 34.4882 0.995784 34.5694 1.01743C34.8213 1.08236 34.9919 1.29158 35 1.52244C35 1.56573 35 1.60902 35 1.65231C35 10.0067 35 18.3683 35 26.7228C35 26.766 35 26.8093 35 26.8526C34.9919 27.1484 34.7238 27.3793 34.3988 27.3937C34.3582 27.3937 34.3094 27.3937 34.2688 27.3937C23.0896 27.3937 11.9104 27.3937 0.731198 27.3937C0.641829 27.3937 0.55246 27.3937 0.471216 27.3721C0.20311 27.3143 0.0162488 27.1051 0 26.8598C0 26.8238 0 26.7805 0 26.7444C0 18.3756 0 9.9995 0 1.63066C0 1.57295 -1.2409e-07 1.51523 0.0081243 1.45751C0.0568708 1.18336 0.308728 0.98857 0.617456 0.98857C0.893686 0.981355 1.16992 0.98857 1.44615 0.98857C1.53552 1.003 1.60051 1.003 1.67363 1.003ZM17.5163 7.99387C22.3097 7.99387 27.1031 7.99387 31.8965 7.99387C31.9696 7.99387 32.0346 7.99387 32.1077 7.99387C32.4083 7.98665 32.6439 7.80629 32.7089 7.54657C32.7252 7.47442 32.7252 7.40228 32.7252 7.33013C32.7252 6.13252 32.7252 4.93491 32.7252 3.7373C32.7252 3.70123 32.7252 3.65794 32.7252 3.62187C32.7008 3.29 32.4083 3.08799 32.1158 3.07357C32.0346 3.07357 31.9533 3.07357 31.8721 3.07357C25.4376 3.07357 18.9949 3.07357 12.5604 3.07357C9.42433 3.07357 6.28018 3.07357 3.14415 3.07357C3.07103 3.07357 3.00604 3.07357 2.93292 3.07357C2.60794 3.08078 2.33983 3.30443 2.31546 3.60744C2.31546 3.64351 2.31546 3.6868 2.31546 3.72287C2.31546 4.9277 2.31546 6.13974 2.31546 7.34456C2.31546 7.40228 2.31546 7.45999 2.33171 7.51771C2.38046 7.78465 2.62419 7.97944 2.92479 7.99387C2.99791 7.99387 3.06291 7.99387 3.13603 7.99387C7.92943 7.99387 12.7228 7.99387 17.5163 7.99387ZM17.5163 25.5107C20.2217 25.5107 22.9352 25.5107 25.6407 25.5107C25.7138 25.5107 25.7788 25.5107 25.8519 25.5107C25.9169 25.5035 25.9819 25.4963 26.0388 25.4746C26.2987 25.3881 26.4694 25.15 26.445 24.9047C26.4125 24.6378 26.2013 24.4285 25.9088 24.3925C25.8194 24.378 25.7219 24.378 25.6325 24.378C20.2298 24.378 14.8271 24.378 9.42433 24.378C9.36746 24.378 9.31871 24.378 9.26184 24.378C9.20497 24.378 9.15622 24.3853 9.09935 24.3925C8.84749 24.4213 8.55501 24.645 8.58751 24.9913C8.61189 25.2654 8.85562 25.4891 9.16435 25.5107C9.23747 25.5179 9.30246 25.5107 9.37558 25.5107C12.0973 25.5107 14.8108 25.5107 17.5163 25.5107ZM30.0685 18.0004C30.7022 18.0004 31.344 18.0004 31.9777 18.0004C32.0265 18.0004 32.0752 18.0004 32.124 18.0004C32.3921 17.986 32.6277 17.8273 32.7008 17.5964C32.7252 17.517 32.7333 17.4377 32.7333 17.3511C32.7333 16.5791 32.7333 15.8072 32.7333 15.028C32.7333 14.992 32.7333 14.9487 32.7333 14.9126C32.7008 14.5807 32.4083 14.4004 32.1646 14.3859C32.1077 14.3859 32.059 14.3787 32.0021 14.3787C30.7266 14.3787 29.4429 14.3787 28.1674 14.3787C28.1024 14.3787 28.0374 14.3787 27.9724 14.3931C27.7124 14.4292 27.5012 14.6024 27.4524 14.8332C27.4362 14.9054 27.428 14.9775 27.428 15.0497C27.428 15.8144 27.428 16.5791 27.428 17.3439C27.428 17.4016 27.428 17.4593 27.4362 17.517C27.4849 17.7695 27.6474 17.9283 27.9236 17.9932C27.9886 18.0076 28.0617 18.0076 28.1349 18.0076C28.7767 18.0004 29.4266 18.0004 30.0685 18.0004ZM4.98027 22.661C5.61397 22.661 6.23955 22.661 6.87326 22.661C6.92201 22.661 6.97075 22.661 7.0195 22.661C7.29573 22.6466 7.53134 22.4806 7.59633 22.2425C7.62071 22.1704 7.62071 22.091 7.62071 22.0117C7.62071 21.2397 7.62071 20.4678 7.62071 19.6886C7.62071 19.6525 7.62071 19.6237 7.62071 19.5876C7.60446 19.3134 7.39322 19.097 7.08449 19.0465C7.0195 19.0393 6.9545 19.0393 6.88951 19.0321C5.61397 19.0321 4.33032 19.0321 3.05478 19.0321C3.01416 19.0321 2.96541 19.0321 2.92479 19.0321C2.54294 19.0609 2.33983 19.3207 2.32358 19.5515C2.32358 19.5948 2.31546 19.6381 2.31546 19.6814C2.31546 20.4533 2.31546 21.2253 2.31546 22.0045C2.31546 22.0622 2.31546 22.1199 2.33171 22.1776C2.38046 22.4085 2.52669 22.56 2.77855 22.6321C2.8598 22.6538 2.94916 22.6538 3.03853 22.6538C3.68036 22.661 4.33032 22.661 4.98027 22.661ZM30.0766 22.661C30.7103 22.661 31.3521 22.661 31.9858 22.661C32.0346 22.661 32.0833 22.661 32.1321 22.661C32.4083 22.6466 32.6439 22.4734 32.7008 22.2353C32.717 22.1632 32.7252 22.0838 32.7252 22.0045C32.7252 21.2325 32.7252 20.4678 32.7252 19.6958C32.7252 19.6597 32.7252 19.6165 32.7252 19.5804C32.7008 19.3062 32.4814 19.0898 32.1727 19.0465C32.1077 19.0393 32.0427 19.0393 31.9777 19.0393C30.7022 19.0393 29.4266 19.0393 28.1592 19.0393C28.1186 19.0393 28.0699 19.0393 28.0292 19.0393C27.7611 19.0537 27.5337 19.2052 27.4524 19.4289C27.428 19.5082 27.4118 19.5876 27.4118 19.6742C27.4118 20.4606 27.4118 21.2469 27.4118 22.0405C27.4118 22.0983 27.4199 22.156 27.428 22.2137C27.4849 22.4373 27.6312 22.5816 27.883 22.6466C27.9561 22.6682 28.0455 22.6682 28.1267 22.6682C28.7848 22.6682 29.4348 22.661 30.0766 22.661ZM4.98027 18.0004C5.61397 18.0004 6.23955 18.0004 6.87326 18.0004C6.92201 18.0004 6.97075 18.0004 7.0195 18.0004C7.2876 17.986 7.51509 17.8273 7.59633 17.5964C7.62071 17.5242 7.62883 17.4449 7.62883 17.3655C7.62883 16.5791 7.62883 15.8 7.62883 15.0136C7.62883 14.9775 7.62883 14.9487 7.62883 14.9126C7.60446 14.6384 7.37697 14.422 7.07637 14.3859C7.0195 14.3787 6.9545 14.3787 6.89763 14.3787C5.6221 14.3787 4.33844 14.3787 3.06291 14.3787C2.99791 14.3787 2.93292 14.3787 2.86792 14.3931C2.59169 14.4292 2.38046 14.6168 2.33983 14.8621C2.33171 14.9198 2.32358 14.9775 2.32358 15.0352C2.32358 15.8072 2.32358 16.5791 2.32358 17.3583C2.32358 17.416 2.32358 17.4737 2.33983 17.5315C2.38046 17.7479 2.52669 17.8994 2.75418 17.9788C2.84355 18.0076 2.93292 18.0076 3.03041 18.0076C3.67224 18.0004 4.33032 18.0004 4.98027 18.0004ZM23.8046 22.661C24.4383 22.661 25.0638 22.661 25.6975 22.661C25.7544 22.661 25.8032 22.661 25.86 22.661C26.1525 22.6393 26.3962 22.4518 26.445 22.192C26.4531 22.1343 26.4612 22.0766 26.4612 22.0189C26.4612 21.2397 26.4612 20.4606 26.4612 19.6814C26.4612 19.6309 26.4612 19.5732 26.445 19.5227C26.4044 19.2846 26.2175 19.1042 25.9494 19.0609C25.8763 19.0465 25.795 19.0465 25.7219 19.0465C24.4464 19.0465 23.1627 19.0465 21.8872 19.0465C21.8466 19.0465 21.7978 19.0465 21.7572 19.0465C21.4403 19.0682 21.2047 19.2629 21.156 19.5299C21.1479 19.5732 21.1479 19.6165 21.1479 19.6597C21.1479 20.4606 21.1479 21.2542 21.1479 22.055C21.1479 22.0766 21.1479 22.1055 21.1479 22.1271C21.1722 22.394 21.3753 22.6033 21.6678 22.6538C21.7328 22.6682 21.7978 22.6682 21.8628 22.6682C22.5128 22.661 23.1546 22.661 23.8046 22.661ZM23.7964 18.0004C24.4301 18.0004 25.072 18.0004 25.7057 18.0004C25.7544 18.0004 25.8032 18.0004 25.8519 18.0004C26.1525 17.986 26.3962 17.7912 26.445 17.5315C26.4531 17.481 26.4612 17.4232 26.4612 17.3727C26.4612 16.5864 26.4612 15.8072 26.4612 15.0208C26.4612 14.9631 26.4531 14.9054 26.445 14.8477C26.3962 14.6096 26.1931 14.4292 25.9169 14.3931C25.8519 14.3859 25.7869 14.3787 25.7219 14.3787C24.4464 14.3787 23.1627 14.3787 21.8872 14.3787C21.8222 14.3787 21.7572 14.3787 21.6922 14.3931C21.4241 14.4364 21.2535 14.5735 21.1804 14.8044C21.156 14.8765 21.156 14.9559 21.156 15.0352C21.156 15.8072 21.156 16.5791 21.156 17.3583C21.156 17.3944 21.156 17.4377 21.156 17.4737C21.1804 17.7263 21.3672 17.9355 21.6435 17.9932C21.7085 18.0076 21.7816 18.0076 21.8547 18.0076C22.4965 18.0004 23.1465 18.0004 23.7964 18.0004ZM11.2442 22.661C11.8779 22.661 12.5197 22.661 13.1534 22.661C13.2022 22.661 13.2509 22.661 13.2997 22.661C13.5678 22.6466 13.7871 22.4951 13.8684 22.2642C13.8928 22.1993 13.9009 22.1343 13.9009 22.0622C13.9009 21.2542 13.9009 20.4461 13.9009 19.6381C13.9009 19.6165 13.9009 19.602 13.9009 19.5804C13.8846 19.3134 13.6815 19.1042 13.389 19.0465C13.324 19.0321 13.2509 19.0321 13.1778 19.0321C11.8942 19.0321 10.6105 19.0321 9.32683 19.0321C9.29434 19.0321 9.26184 19.0321 9.22934 19.0321C8.82312 19.0465 8.58751 19.3423 8.59564 19.602C8.59564 19.6309 8.59564 19.6597 8.59564 19.6886C8.59564 20.4606 8.59564 21.2253 8.59564 21.9972C8.59564 22.0405 8.59564 22.0838 8.59564 22.1271C8.61189 22.3724 8.79062 22.5672 9.05873 22.6321C9.13997 22.6538 9.22122 22.6538 9.30246 22.6538C9.95241 22.6682 10.5942 22.661 11.2442 22.661ZM17.5244 22.661C18.1581 22.661 18.7999 22.661 19.4336 22.661C19.4905 22.661 19.5392 22.661 19.5961 22.661C19.9048 22.6393 20.1486 22.4157 20.1729 22.1415C20.1811 22.091 20.1729 22.0477 20.1729 21.9972C20.1729 21.2397 20.1729 20.4822 20.1729 19.7175C20.1729 19.667 20.1729 19.6237 20.1729 19.5732C20.1567 19.3134 19.9536 19.1114 19.6611 19.0609C19.588 19.0465 19.5067 19.0465 19.4336 19.0465C18.1581 19.0465 16.8907 19.0465 15.6151 19.0465C15.5745 19.0465 15.5258 19.0465 15.4851 19.0465C15.1927 19.0609 14.9571 19.2341 14.8839 19.4866C14.8677 19.5443 14.8677 19.6092 14.8677 19.6742C14.8677 20.4606 14.8677 21.2469 14.8677 22.0405C14.8677 22.0694 14.8677 22.0982 14.8677 22.1271C14.8839 22.3796 15.0708 22.5888 15.347 22.6538C15.4201 22.6682 15.5014 22.6754 15.5745 22.6754C16.2245 22.6682 16.8744 22.661 17.5244 22.661ZM11.2442 18.0004C11.8129 18.0004 12.3735 18.0004 12.9422 18.0004C13.0559 18.0004 13.1697 18.0004 13.2834 18.0004C13.5597 17.9932 13.779 17.8345 13.8684 17.6036C13.9009 17.5242 13.9009 17.4449 13.9009 17.3583C13.9009 16.5791 13.9009 15.8 13.9009 15.0208C13.9009 14.9847 13.9009 14.9559 13.9009 14.9198C13.8846 14.6457 13.6653 14.4292 13.3565 14.3859C13.2997 14.3787 13.2347 14.3787 13.1778 14.3787C11.8942 14.3787 10.6105 14.3787 9.32683 14.3787C9.26184 14.3787 9.19684 14.3787 9.13185 14.3931C8.83937 14.4364 8.62001 14.6457 8.60376 14.9054C8.60376 14.9559 8.60376 14.9992 8.60376 15.0497C8.60376 15.8072 8.60376 16.5647 8.60376 17.3295C8.60376 17.38 8.60376 17.4232 8.60376 17.4737C8.62001 17.7046 8.79062 17.8994 9.03436 17.9715C9.1156 18.0004 9.20497 18.0004 9.29434 18.0004C9.94429 18.0004 10.5942 18.0004 11.2442 18.0004ZM17.5163 18.0004C17.9712 18.0004 18.4343 18.0004 18.8893 18.0004C19.1086 18.0004 19.3361 18.0076 19.5555 18.0004C19.8886 17.9932 20.1486 17.7695 20.1729 17.4665C20.1729 17.4232 20.1729 17.38 20.1729 17.3367C20.1729 16.5719 20.1729 15.8072 20.1729 15.0425C20.1729 15.0064 20.1729 14.9631 20.1729 14.927C20.1729 14.6673 19.9292 14.4076 19.6042 14.3859C19.5474 14.3787 19.4986 14.3787 19.4417 14.3787C18.1662 14.3787 16.8825 14.3787 15.607 14.3787C15.542 14.3787 15.477 14.3787 15.412 14.3931C15.1114 14.4364 14.8921 14.6529 14.8758 14.9198C14.8758 14.9631 14.8758 15.0064 14.8758 15.0497C14.8758 15.8144 14.8758 16.5791 14.8758 17.3439C14.8758 17.3872 14.8758 17.4305 14.8758 17.4737C14.8921 17.7046 15.0708 17.9066 15.3145 17.9788C15.3958 18.0004 15.4851 18.0076 15.5745 18.0076C16.2245 18.0004 16.8663 18.0004 17.5163 18.0004ZM30.0766 10.8941C30.0279 10.858 29.9954 10.822 29.9547 10.7931C29.711 10.5767 29.4754 10.3602 29.2317 10.1438C29.1992 10.1149 29.1748 10.0861 29.1342 10.0644C28.9311 9.91293 28.6467 9.92014 28.468 10.0789C28.2892 10.2376 28.2649 10.4901 28.4273 10.6705C28.4598 10.7065 28.4923 10.7354 28.5248 10.7642C28.7686 10.9807 29.0042 11.1971 29.2479 11.4136C29.2885 11.4496 29.321 11.4857 29.3617 11.5218C29.321 11.5651 29.2885 11.5939 29.2479 11.63C29.0042 11.8464 28.7686 12.0629 28.5248 12.2793C28.4842 12.3154 28.4436 12.3442 28.4111 12.3875C28.2567 12.5679 28.2811 12.8132 28.4598 12.9719C28.6386 13.1306 28.9148 13.1378 29.1179 13.0007C29.1585 12.9719 29.191 12.943 29.2235 12.9142C29.4673 12.6977 29.7029 12.4813 29.9466 12.2649C29.9872 12.2288 30.0279 12.1999 30.0685 12.1639C30.1091 12.1999 30.1497 12.236 30.1903 12.2649C30.4341 12.4813 30.6697 12.6977 30.9134 12.9142C30.9459 12.943 30.9784 12.9791 31.019 13.0007C31.214 13.145 31.4903 13.1306 31.6771 12.9791C31.8559 12.8276 31.8802 12.5751 31.7259 12.3947C31.6934 12.3587 31.6527 12.3226 31.6121 12.2865C31.3684 12.0701 31.1328 11.8536 30.889 11.6372C30.8484 11.6011 30.8159 11.5651 30.7753 11.529C30.8159 11.4929 30.8403 11.4568 30.8809 11.428C31.1328 11.2043 31.3765 10.9807 31.6284 10.757C31.669 10.721 31.7096 10.6921 31.734 10.6488C31.8802 10.4684 31.8477 10.2159 31.6609 10.0716C31.4821 9.92736 31.214 9.92014 31.019 10.0572C30.9784 10.0861 30.9459 10.1149 30.9134 10.1438C30.6697 10.3602 30.4341 10.5767 30.1903 10.7931C30.166 10.822 30.1253 10.858 30.0766 10.8941ZM23.8046 10.8941C23.7558 10.858 23.7152 10.822 23.6827 10.7931C23.4471 10.5839 23.2033 10.3674 22.9677 10.1582C22.9352 10.1294 22.9027 10.0933 22.8621 10.0644C22.6671 9.92015 22.3909 9.92736 22.204 10.0789C22.0172 10.2304 21.9928 10.4901 22.1472 10.6705C22.1797 10.7065 22.2122 10.7354 22.2447 10.7642C22.4965 10.9879 22.7484 11.2188 23.0002 11.4424C23.0327 11.4713 23.0571 11.5001 23.0815 11.529C23.0409 11.5651 23.0084 11.6011 22.9759 11.63C22.7321 11.8464 22.4884 12.0629 22.2528 12.2793C22.2122 12.3154 22.1715 12.3442 22.139 12.3875C21.9847 12.5679 22.0091 12.8276 22.1959 12.9791C22.3828 13.1306 22.659 13.1378 22.854 12.9935C22.8946 12.9647 22.9271 12.9358 22.9596 12.8997C23.1952 12.6905 23.439 12.4741 23.6746 12.2649C23.7152 12.2288 23.7558 12.1999 23.7964 12.1639C23.837 12.1999 23.8777 12.2288 23.9183 12.2649C24.162 12.4813 24.4058 12.6977 24.6414 12.9142C24.6739 12.943 24.7064 12.9791 24.747 13.0007C24.942 13.145 25.2182 13.1306 25.4051 12.9791C25.5838 12.8276 25.6082 12.5751 25.4538 12.3947C25.4213 12.3587 25.3888 12.3298 25.3563 12.3009C25.1126 12.0845 24.8689 11.8608 24.617 11.6444C24.5764 11.6083 24.5439 11.5723 24.5032 11.5362C24.5439 11.4929 24.5764 11.4641 24.617 11.428C24.8607 11.2115 25.1045 10.9879 25.3563 10.7715C25.3969 10.7354 25.4376 10.6921 25.4701 10.6488C25.6082 10.4684 25.5676 10.2232 25.3888 10.0789C25.2101 9.93457 24.942 9.92736 24.747 10.0644C24.7064 10.0933 24.6739 10.1222 24.6414 10.151C24.3976 10.3674 24.1539 10.5839 23.9183 10.8003C23.8858 10.822 23.8452 10.858 23.8046 10.8941ZM16.7201 11.9186C16.6794 11.8464 16.6469 11.7959 16.6144 11.7454C16.5901 11.7021 16.5657 11.6588 16.5332 11.6156C16.4113 11.4641 16.2407 11.3991 16.0376 11.4352C15.8345 11.4713 15.7045 11.5867 15.6558 11.7671C15.6233 11.8825 15.6476 11.9907 15.7126 12.0917C15.8264 12.2865 15.9401 12.4885 16.0539 12.6833C16.062 12.6977 16.0701 12.7122 16.0782 12.7194C16.192 12.8853 16.3788 12.9719 16.5901 12.9358C16.6551 12.9286 16.7282 12.8997 16.7851 12.8709C17.8087 12.4019 18.8405 11.9402 19.8642 11.4713C19.913 11.4496 19.9617 11.428 20.0023 11.3991C20.1973 11.262 20.2461 11.024 20.1242 10.8364C20.0023 10.6488 19.7505 10.5622 19.5149 10.6488C19.458 10.6705 19.4092 10.6921 19.3524 10.721C18.5399 11.0889 17.7356 11.4568 16.9232 11.8248C16.8582 11.8536 16.7932 11.8825 16.7201 11.9186ZM3.77785 11.9186C3.74536 11.8609 3.72098 11.8176 3.69661 11.7815C3.67224 11.7382 3.64786 11.6877 3.61537 11.6444C3.4935 11.4857 3.32289 11.4136 3.11165 11.4496C2.91667 11.4785 2.78668 11.5939 2.72981 11.7671C2.68918 11.8825 2.71356 11.9979 2.77855 12.1061C2.89229 12.3081 3.00604 12.5102 3.1279 12.7122C3.13603 12.7266 3.14415 12.7482 3.1604 12.7627C3.27414 12.9214 3.47725 13.0007 3.68036 12.9575C3.74536 12.943 3.81035 12.9142 3.87535 12.8853C4.8909 12.4236 5.90645 11.9619 6.92201 11.5001C6.97075 11.4785 7.0195 11.4568 7.06012 11.428C7.26323 11.2909 7.31198 11.0528 7.19011 10.858C7.06825 10.6705 6.81639 10.5911 6.58078 10.6705C6.52391 10.6921 6.47516 10.7137 6.41829 10.7426C5.60585 11.1105 4.79341 11.4785 3.98097 11.8536C3.91597 11.8608 3.8591 11.8825 3.77785 11.9186ZM9.86305 11.9041C9.83867 11.8681 9.8143 11.8248 9.78993 11.7815C9.76555 11.7382 9.74118 11.6877 9.70868 11.6444C9.58682 11.4713 9.35121 11.3991 9.13997 11.4568C8.92061 11.5218 8.7825 11.7093 8.79875 11.9186C8.80687 11.9907 8.83125 12.0484 8.86374 12.1134C8.96124 12.2793 9.05873 12.4524 9.1481 12.6184C9.17247 12.6617 9.19684 12.7049 9.22122 12.7482C9.33496 12.9142 9.52182 12.9935 9.73306 12.9575C9.80618 12.943 9.8793 12.9142 9.94429 12.8853C10.9598 12.4236 11.9673 11.9691 12.9828 11.5073C13.0234 11.4857 13.0722 11.4713 13.1128 11.4424C13.324 11.3125 13.389 11.06 13.2672 10.8652C13.1453 10.6705 12.8853 10.5839 12.6497 10.6705C12.5929 10.6921 12.5441 10.7137 12.4872 10.7426C11.6667 11.1178 10.8542 11.4857 10.0337 11.8608C9.97679 11.8681 9.93617 11.9041 9.86305 11.9041Z" fill="url(#paint0_linear_114_213)"/>
<defs>
<linearGradient id="paint0_linear_114_213" x1="17.5" y1="27.3937" x2="17.5" y2="1.44772e-07" gradientUnits="userSpaceOnUse">
<stop stop-color="#5CCC94"/>
<stop offset="1" stop-color="#8CCAAE"/>
</linearGradient>
</defs>
</svg>
