<svg width="26" height="34" viewBox="0 0 26 34" fill="none" xmlns="http://www.w3.org/2000/svg">
<path d="M15.7313 0.484972C14.6837 0.161658 13.6361 0 12.5482 0C11.4602 0 10.4126 0.161658 9.365 0.484972C2.83753 2.42486 -1.07089 9.78027 0.258776 16.3274C1.74962 23.6828 6.10127 28.9367 12.1452 32.9781C12.2661 33.0589 12.387 33.0993 12.5482 33.0993C12.7093 33.0993 12.8705 33.0589 12.9511 32.9781C18.995 28.9367 23.3467 23.6828 24.8375 16.3274C26.1672 9.73986 22.2991 2.42486 15.7313 0.484972ZM12.5079 21.46C7.10859 21.46 2.75694 17.0548 2.75694 11.6797C2.75694 6.30464 7.10859 1.85906 12.5079 1.85906C17.9071 1.85906 22.2588 6.26422 22.2588 11.6393C22.2588 17.0144 17.9071 21.46 12.5079 21.46Z" fill="url(#paint0_linear_114_230)"/>
<path d="M9.16211 4.56641H12.8691C13.8764 4.56641 14.642 4.64723 15.1658 4.80889C15.6896 4.97055 16.0925 5.21304 16.3746 5.49594C16.6566 5.77884 16.8178 6.14257 16.9387 6.58712C17.0193 6.99127 17.0998 7.67831 17.0998 8.56743V9.82027C17.0998 10.7094 17.0193 11.3964 16.8178 11.8006C16.6163 12.2047 16.294 12.528 15.8105 12.7705C15.3269 12.9726 14.642 13.0938 13.8764 13.0938H12.8691V18.7923H9.2024V4.56641H9.16211ZM12.8691 6.99127V10.5881C12.9899 10.5881 13.0705 10.5881 13.1511 10.5881C13.4735 10.5881 13.7152 10.5073 13.8361 10.3457C13.957 10.184 14.0376 9.82027 14.0376 9.29489V8.12287C14.0376 7.6379 13.957 7.31458 13.7958 7.19334C13.6346 7.0721 13.3526 6.99127 12.8691 6.99127Z" fill="url(#paint1_linear_114_230)"/>
<defs>
<linearGradient id="paint0_linear_114_230" x1="12.5491" y1="33.0993" x2="12.5491" y2="1.74925e-07" gradientUnits="userSpaceOnUse">
<stop stop-color="#5CCC94"/>
<stop offset="1" stop-color="#8CCAAE"/>
</linearGradient>
<linearGradient id="paint1_linear_114_230" x1="13.131" y1="18.7923" x2="13.131" y2="4.56641" gradientUnits="userSpaceOnUse">
<stop stop-color="#5CCC94"/>
<stop offset="1" stop-color="#8CCAAE"/>
</linearGradient>
</defs>
</svg>
