<svg width="36" height="42" viewBox="0 0 36 42" fill="none" xmlns="http://www.w3.org/2000/svg">
<path d="M35.2421 13.9C33.1421 4.66 25.0821 0.5 18.0021 0.5H17.9821C10.9221 0.5 2.84214 4.64 0.742144 13.88C-1.59786 24.2 4.72214 32.94 10.4421 38.44C12.4696 40.4024 15.1805 41.4997 18.0021 41.5C20.7221 41.5 23.4421 40.48 25.5421 38.44C31.2621 32.94 37.5821 24.22 35.2421 13.9ZM18.0021 23.92C17.1748 23.92 16.3556 23.757 15.5912 23.4404C14.8269 23.1238 14.1324 22.6598 13.5474 22.0748C12.9624 21.4898 12.4983 20.7953 12.1817 20.0309C11.8651 19.2666 11.7021 18.4473 11.7021 17.62C11.7021 16.7927 11.8651 15.9734 12.1817 15.2091C12.4983 14.4447 12.9624 13.7502 13.5474 13.1652C14.1324 12.5802 14.8269 12.1162 15.5912 11.7996C16.3556 11.483 17.1748 11.32 18.0021 11.32C19.673 11.32 21.2754 11.9837 22.4569 13.1652C23.6384 14.3467 24.3021 15.9491 24.3021 17.62C24.3021 19.2909 23.6384 20.8933 22.4569 22.0748C21.2754 23.2563 19.673 23.92 18.0021 23.92Z" fill="url(#paint0_linear_278_1755)"/>
<defs>
<linearGradient id="paint0_linear_278_1755" x1="17.9921" y1="41.5" x2="17.9921" y2="0.5" gradientUnits="userSpaceOnUse">
<stop stop-color="#5CCC94"/>
<stop offset="1" stop-color="#8CCAAE"/>
</linearGradient>
</defs>
</svg>