<svg width="49" height="48" viewBox="0 0 49 48" fill="none" xmlns="http://www.w3.org/2000/svg">
<path d="M18.4999 4C13.2599 4 8.99992 8.26 8.99992 13.5C8.99992 18.64 13.0199 22.8 18.2599 22.98C18.4199 22.96 18.5799 22.96 18.6999 22.98H18.8399C21.2986 22.898 23.6291 21.863 25.3385 20.0938C27.0479 18.3247 28.0023 15.9601 27.9999 13.5C27.9999 8.26 23.7399 4 18.4999 4ZM28.6599 28.298C23.0799 24.578 13.9799 24.578 8.35992 28.298C5.81992 29.998 4.41992 32.298 4.41992 34.758C4.41992 37.218 5.81992 39.498 8.33992 41.178C11.1399 43.058 14.8199 43.998 18.4999 43.998C22.1799 43.998 25.8599 43.058 28.6599 41.178C31.1799 39.478 32.5799 37.198 32.5799 34.718C32.5599 32.258 31.1799 29.978 28.6599 28.298V28.298ZM40.4799 14.676C40.7999 18.556 38.0399 21.956 34.2199 22.416H34.1199C33.9999 22.416 33.8799 22.416 33.7799 22.456C31.8399 22.556 30.0599 21.936 28.7199 20.796C30.7799 18.956 31.9599 16.196 31.7199 13.196C31.5827 11.636 31.0529 10.1361 30.1799 8.836C31.2279 8.32616 32.3842 8.07893 33.549 8.11564C34.7138 8.15235 35.8523 8.47189 36.8661 9.0467C37.8799 9.62152 38.7386 10.4343 39.3682 11.4151C39.9978 12.3958 40.3793 13.5149 40.4799 14.676V14.676Z" fill="white"/>
<path d="M44.4766 33.1808C44.3166 35.1208 43.0766 36.8008 40.9966 37.9408C38.9966 39.0408 36.4766 39.5608 33.9766 39.5008C35.4166 38.2008 36.2566 36.5808 36.4166 34.8608C36.6166 32.3808 35.4366 30.0008 33.0766 28.1008C31.7366 27.0408 30.1766 26.2008 28.4766 25.5808C32.8966 24.3008 38.4566 25.1608 41.8766 27.9208C43.7166 29.4008 44.6566 31.2608 44.4766 33.1808V33.1808Z" fill="white"/>
</svg>
