<svg width="49" height="48" viewBox="0 0 49 48" fill="none" xmlns="http://www.w3.org/2000/svg">
<path d="M24.4999 4C19.2599 4 14.9999 8.26 14.9999 13.5C14.9999 18.64 19.0199 22.8 24.2599 22.98C24.4199 22.96 24.5799 22.96 24.6999 22.98H24.8399C27.2986 22.898 29.6291 21.863 31.3385 20.0938C33.0479 18.3247 34.0023 15.9601 33.9999 13.5C33.9999 8.26 29.7399 4 24.4999 4ZM34.6599 28.32C29.0799 24.6 19.9799 24.6 14.3599 28.32C11.8199 30 10.4199 32.3 10.4199 34.76C10.4199 37.22 11.8199 39.5 14.3399 41.18C17.1399 43.06 20.8199 44 24.4999 44C28.1799 44 31.8599 43.06 34.6599 41.18C37.1799 39.48 38.5799 37.2 38.5799 34.72C38.5599 32.28 37.1799 29.98 34.6599 28.32ZM29.1599 33.12L24.1199 38.16C24.0041 38.2749 23.8668 38.3659 23.7158 38.4277C23.5648 38.4895 23.4031 38.5208 23.2399 38.52C22.9199 38.52 22.5999 38.38 22.3599 38.16L19.8399 35.64C19.6093 35.4051 19.4801 35.0891 19.4801 34.76C19.4801 34.4308 19.6093 34.1149 19.8399 33.88C20.3199 33.4 21.1199 33.4 21.5999 33.88L23.2399 35.52L27.3999 31.36C27.8799 30.88 28.6799 30.88 29.1599 31.36C29.6599 31.84 29.6599 32.64 29.1599 33.12V33.12Z" fill="white"/>
</svg>
