<svg width="18" height="17" viewBox="0 0 18 17" fill="none" xmlns="http://www.w3.org/2000/svg">
<path d="M12.491 0.167969H5.50768C2.47435 0.167969 0.666016 1.9763 0.666016 5.00964V11.9846C0.666016 15.0263 2.47435 16.8346 5.50768 16.8346H12.4827C15.516 16.8346 17.3243 15.0263 17.3243 11.993V5.00964C17.3327 1.9763 15.5243 0.167969 12.491 0.167969ZM3.37435 8.40964C3.39935 6.94297 3.98268 5.55964 5.01602 4.5263C5.53796 4.00164 6.15874 3.58567 6.84247 3.30245C7.52619 3.01924 8.25929 2.87439 8.99935 2.8763C10.4993 2.8763 11.916 3.45964 12.9743 4.5263C12.9993 4.5513 13.0243 4.58464 13.0493 4.61797V3.9013C13.0493 3.55964 13.3327 3.2763 13.6743 3.2763C14.016 3.2763 14.2993 3.55964 14.2993 3.9013V6.10964C14.2993 6.4513 14.016 6.73464 13.6743 6.73464H11.466C11.1243 6.73464 10.841 6.4513 10.841 6.10964C10.841 5.76797 11.1243 5.48464 11.466 5.48464H12.1577C12.1327 5.45964 12.116 5.43464 12.091 5.40964C11.686 5.00215 11.2042 4.67894 10.6736 4.45867C10.1429 4.2384 9.5739 4.12544 8.99935 4.1263C7.83268 4.1263 6.73268 4.58464 5.90768 5.40964C5.09935 6.21797 4.64935 7.29297 4.63268 8.43464C4.62622 8.59824 4.55665 8.75298 4.43857 8.86639C4.32049 8.97981 4.16308 9.0431 3.99935 9.04297H3.99102C3.64935 9.04297 3.37435 8.7513 3.37435 8.40964ZM12.9743 12.4763C12.4534 12.9999 11.8339 13.4153 11.1517 13.6985C10.4695 13.9817 9.738 14.1271 8.99935 14.1263C7.49935 14.1263 6.08268 13.543 5.02435 12.4763C4.99935 12.4513 4.97435 12.418 4.94935 12.3846V13.093C4.94935 13.4346 4.66602 13.718 4.32435 13.718C3.98268 13.718 3.69935 13.4346 3.69935 13.093V10.8846C3.69935 10.543 3.98268 10.2596 4.32435 10.2596H6.53268C6.87435 10.2596 7.15768 10.543 7.15768 10.8846C7.15768 11.2263 6.87435 11.5096 6.53268 11.5096H5.84102C5.86602 11.5346 5.88268 11.5596 5.90768 11.5846C6.31273 11.9921 6.79448 12.3153 7.32513 12.5356C7.85578 12.7559 8.4248 12.8688 8.99935 12.868C10.166 12.868 11.266 12.4096 12.091 11.5846C12.9077 10.768 13.366 9.6763 13.366 8.50963C13.366 8.16797 13.6493 7.88464 13.991 7.88464C14.3327 7.88464 14.616 8.16797 14.616 8.50963C14.616 10.018 14.0327 11.4263 12.9743 12.4763Z" fill="url(#paint0_linear_117_481)"/>
<defs>
<linearGradient id="paint0_linear_117_481" x1="8.9952" y1="0.167969" x2="8.9952" y2="16.8346" gradientUnits="userSpaceOnUse">
<stop stop-color="#F58C1F"/>
<stop offset="1" stop-color="#F57D21"/>
</linearGradient>
</defs>
</svg>
