<svg width="58" height="18" viewBox="0 0 58 18" fill="none" xmlns="http://www.w3.org/2000/svg">
<path fill-rule="evenodd" clip-rule="evenodd" d="M0 1.95456C0 0.877153 0.617676 0 1.37637 0H9.76293V17.9972H1.37637C0.617676 17.9972 0 17.12 0 16.0412V1.95456ZM7.3303 3.61579L7.03699 3.2435L6.91993 3.70322L6.47572 3.86681L6.87622 4.12065L6.89596 4.59307L7.25979 4.29129L7.71529 4.41961L7.54043 3.97963L7.80414 3.58477L7.3303 3.61579ZM6.16829 2.60608L5.72689 2.43121L5.85663 2.88671L5.55343 3.25055L6.02727 3.27029L6.2797 3.67079L6.44327 3.22657L6.903 3.10953L6.53071 2.8162L6.56174 2.34237L6.16829 2.60608ZM4.86525 1.88969L4.65513 2.31275L4.17847 2.38185L4.51693 2.71184L4.43795 3.17863L4.86101 2.95863L5.28408 3.17863L5.20512 2.71184L5.54355 2.38185L5.07537 2.31275L4.86525 1.88969ZM4.44642 7.38389L4.52538 7.85067L4.1954 8.18066L4.66358 8.24977L4.8737 8.67283L5.08382 8.24977L5.55202 8.18066L5.21357 7.85067L5.29255 7.38389L4.86948 7.60389L4.44642 7.38389ZM3.56221 2.60608L3.16875 2.34237L3.19977 2.8162L2.82747 3.10953L3.28721 3.22657L3.4508 3.67079L3.70464 3.27029L4.17706 3.25055L3.87527 2.88671L4.00361 2.43121L3.56221 2.60608ZM2.69351 3.23926L2.40019 3.61156L1.92636 3.58053L2.19007 3.9754L2.01521 4.41539L2.4707 4.28705L2.83453 4.58884L2.85428 4.11642L3.25477 3.86258L2.81055 3.699L2.69351 3.23926ZM1.89532 5.06691L1.47226 5.27703L1.89532 5.49561L1.96442 5.9638L2.29443 5.62535L2.7612 5.70432L2.54121 5.28125L2.7612 4.85819L2.29443 4.93716L1.96442 4.59871L1.89532 5.06691ZM2.40019 6.94249L2.69351 7.31479L2.81055 6.85506L3.25477 6.69147L2.85428 6.43905L2.83453 5.96522L2.4707 6.26841L2.01521 6.14008L2.19007 6.58007L1.92636 6.97352L2.40019 6.94249ZM3.29426 7.33172L2.83453 7.44876L3.20683 7.74208L3.17581 8.21592L3.56925 7.95221L4.01065 8.12707L3.88233 7.67157L4.18412 7.30774L3.71168 7.288L3.45785 6.88749L3.29426 7.33172ZM5.38984 15.549H6.36007L6.36149 12.1814H5.38984V13.3801H4.3491V12.1814H3.37746V15.549H4.3491V14.3504H5.38984V15.549ZM6.17252 7.95221L6.56596 8.21592L6.53494 7.74208L6.90724 7.44876L6.44751 7.33172L6.28392 6.88749L6.0315 7.288L5.55767 7.30774L5.86085 7.67157L5.73112 8.12707L6.17252 7.95221ZM7.0412 7.31902L7.33454 6.94672L7.80837 6.97775L7.54466 6.5843L7.71953 6.14431L7.26403 6.27264L6.90018 5.96944L6.88045 6.44328L6.47994 6.69571L6.92416 6.85929L7.0412 7.31902ZM7.76888 5.95957L7.83798 5.49138L8.26104 5.27279L7.83798 5.06267L7.76888 4.59448L7.43889 4.93294L6.9721 4.85396L7.19211 5.27703L6.9721 5.70009L7.43889 5.62112L7.76888 5.95957ZM11.2084 0.00281458H56.1323L56.3402 0C57.0989 0 57.503 0.877153 57.503 1.95456L57.7151 16.044C57.7151 17.1228 57.0989 18 56.3402 18H11.2084V0.00281458ZM19.7459 11.7654L20.0082 13.5987L21.4536 13.5917L19.956 4.39706H17.9986L16.5009 13.5917H17.8407L18.1044 11.7922H19.7459V11.7654ZM25.4318 11.7654L25.6941 13.5987L27.1396 13.5917L25.642 4.39706H23.6846L22.1883 13.5917H23.5281L23.7904 11.7922H25.4318V11.7654ZM30.9317 11.7654L31.194 13.5987L32.6395 13.5917L31.1418 4.39706H29.1844L27.6882 13.5917H29.0279L29.2902 11.7922H30.9317V11.7654ZM34.1921 9.70229H37.2791V8.29207H34.1921V9.70229ZM39.4128 13.5987H40.8568L40.8667 4.39423H39.895C39.8095 4.65197 39.676 4.89121 39.5016 5.09934C39.336 5.27418 39.1235 5.39757 38.8895 5.45472C38.5666 5.53344 38.2347 5.569 37.9024 5.56048V6.5843H39.4128V13.5987ZM46.7938 13.6636V12.3507L44.0411 12.345V12.1476C44.0396 11.8296 44.1166 11.5162 44.2653 11.2352C44.5057 10.83 44.7966 10.4571 45.1312 10.1254C45.7874 9.43717 46.2495 8.82607 46.5174 8.29207C46.7778 7.7839 46.915 7.22158 46.9179 6.65058C46.9189 5.90504 46.735 5.33344 46.3665 4.93576C45.998 4.53808 45.464 4.33923 44.7645 4.33923C44.0632 4.33829 43.5287 4.53714 43.1611 4.93576C42.7935 5.33438 42.6097 5.90598 42.6097 6.65058V7.54606H43.9762V6.55891C43.9762 5.9544 44.2258 5.65214 44.725 5.65214C44.8304 5.64438 44.9361 5.6611 45.034 5.70097C45.1319 5.74085 45.2192 5.8028 45.2891 5.88201C45.4151 6.03525 45.4781 6.30884 45.4781 6.70276C45.4778 7.14153 45.3724 7.57385 45.1706 7.96349C44.867 8.4966 44.4938 8.98696 44.0608 9.42166C43.6015 9.87273 43.2203 10.3969 42.9327 10.9729C42.7091 11.5084 42.6015 12.0851 42.6168 12.6652V13.6636H46.7938ZM51.5547 13.1489C51.9176 12.7568 52.0991 12.1927 52.0991 11.4566L52.1075 10.6556C52.1233 10.2385 52.0377 9.82376 51.8579 9.44704C51.683 9.12461 51.3922 8.88064 51.0442 8.76449V8.7377C51.3738 8.62412 51.6496 8.39253 51.8184 8.08759C52.0007 7.71422 52.0865 7.30114 52.068 6.88608V6.55751C52.0699 5.81949 51.8908 5.25541 51.5307 4.86525C51.1707 4.47509 50.6451 4.28 49.9541 4.28C49.2716 4.28188 48.7484 4.47885 48.3845 4.87089C48.0207 5.26293 47.8388 5.82701 47.8388 6.56315V7.04826H49.2053V6.44468C49.2053 5.87214 49.4366 5.59009 49.9019 5.59009C50.0006 5.58605 50.0988 5.60408 50.1896 5.64287C50.2803 5.68167 50.3613 5.74024 50.4265 5.81432C50.5741 6.01465 50.6442 6.26158 50.624 6.50956V7.18223C50.6249 7.53385 50.5525 7.78346 50.4068 7.93106C50.3195 8.01074 50.2167 8.07163 50.1049 8.10996C49.993 8.14829 49.8745 8.16323 49.7567 8.15387H49.2321V9.46819H49.7144C50.0462 9.46819 50.2869 9.55798 50.4364 9.73755C50.5859 9.91711 50.6606 10.217 50.6606 10.6373V11.3861C50.6606 11.7715 50.5972 12.0404 50.4703 12.1927C50.4005 12.2721 50.3132 12.3342 50.2153 12.3741C50.1174 12.414 50.0116 12.4306 49.9062 12.4226C49.4069 12.4226 49.1573 12.1208 49.1573 11.5172V10.7021H47.7908V11.451C47.7908 12.1852 47.9727 12.7493 48.3366 13.1432C48.7004 13.5371 49.2368 13.7341 49.9457 13.7341C50.6555 13.736 51.1918 13.5409 51.5547 13.1489ZM18.2727 10.5496H19.5729L18.9284 6.00448H18.9031L18.2727 10.5496ZM23.9578 10.5496H25.258L24.6149 6.00448H24.5882L23.9578 10.5496ZM30.7646 10.5496H29.4644L30.0948 6.00448H30.1201L30.7646 10.5496Z" fill="url(#paint0_linear_465_882)"/>
<defs>
<linearGradient id="paint0_linear_465_882" x1="28.8576" y1="0" x2="28.8576" y2="18" gradientUnits="userSpaceOnUse">
<stop stop-color="#F58C1F"/>
<stop offset="1" stop-color="#F57D21"/>
</linearGradient>
</defs>
</svg>
