<svg width="41" height="38" viewBox="0 0 41 38" fill="none" xmlns="http://www.w3.org/2000/svg">
<path fill-rule="evenodd" clip-rule="evenodd" d="M16.8147 0.0627063C16.7072 0.026874 16.5997 0.00895808 16.546 0C16.0981 0.00895808 15.8562 0.223952 15.7308 0.689772C15.1037 2.82177 14.4767 4.95154 13.8496 7.0813C13.2225 9.2111 12.5955 11.3409 11.9684 13.4729C11.1488 16.2453 10.3314 19.0199 9.51404 21.7945C8.69656 24.5694 7.87908 27.3444 7.05937 30.1171C6.88916 30.6635 7.08624 31.0397 7.61477 31.201L30.2698 37.9464C30.7983 38.1077 31.1745 37.9016 31.3268 37.3731C32.7734 32.4602 34.2222 27.545 35.671 22.6298C37.1201 17.7135 38.5692 12.7972 40.0161 7.88311C40.1774 7.30979 39.9893 6.96043 39.4159 6.79022C35.6493 5.67052 31.8826 4.54857 28.1159 3.42663C24.3488 2.30457 20.5818 1.18252 16.8147 0.0627063ZM11.6369 19.2778C11.6728 19.1613 11.7086 19.0449 11.7534 18.9015C12.3268 19.0592 12.8772 19.2169 13.4277 19.3746C13.5652 19.414 13.7027 19.4534 13.8406 19.4928C16.9799 20.3929 20.117 21.2931 23.2541 22.1932C26.3921 23.0936 29.5302 23.9941 32.6705 24.8945C32.6991 24.904 32.7282 24.9129 32.7575 24.9218C32.8386 24.9465 32.9206 24.9715 32.993 25.011C33.3513 25.1812 33.4588 25.432 33.3424 25.8172C33.3014 25.932 33.2679 26.0393 33.2282 26.1665L33.217 26.2024C33.0366 26.1509 32.8574 26.1005 32.6794 26.0504C32.3622 25.9613 32.0487 25.8732 31.7389 25.7814L12.3357 20.2184C12.2998 20.2064 12.264 20.1955 12.2282 20.1845C12.1565 20.1626 12.0848 20.1407 12.0132 20.1109C11.6369 19.9407 11.5205 19.6719 11.6369 19.2778ZM14.7723 8.62642C14.8171 8.49212 14.8619 8.3578 14.9156 8.18768C15.4889 8.34893 16.0443 8.51017 16.6087 8.68038C17.7764 9.01471 18.9444 9.34903 20.1126 9.68342C25.361 11.1857 30.6133 12.6891 35.8596 14.1986C35.994 14.2344 36.1373 14.2881 36.2537 14.3598C36.5314 14.539 36.6121 14.7629 36.5135 15.0764L36.5134 15.077C36.4686 15.2112 36.4239 15.3454 36.3792 15.4885C35.5104 15.2378 34.6596 14.9959 33.8088 14.7541L33.8082 14.754C30.7403 13.8717 27.6724 12.9916 24.6045 12.1115C21.5361 11.2313 18.4677 10.3511 15.3993 9.46869C15.256 9.4239 15.1037 9.36119 14.9783 9.27161C14.7454 9.10141 14.6916 8.89537 14.7723 8.62663L14.7723 8.62642ZM14.0745 11.0204C14.0918 10.9681 14.1095 10.9141 14.1273 10.8572C14.2386 10.8894 14.3495 10.9215 14.4601 10.9536C15.3021 11.1974 16.1256 11.4359 16.9491 11.6813C22.9772 13.4011 28.9963 15.1298 35.0154 16.8585L35.0175 16.8591C35.1967 16.9129 35.3848 16.9935 35.5371 17.101C35.7521 17.2533 35.8238 17.4683 35.7342 17.728C35.7007 17.8118 35.6741 17.8991 35.6459 17.992C35.6288 18.0481 35.6111 18.1063 35.5909 18.167C35.0444 18.0147 34.5159 17.8624 33.9874 17.7101C27.5465 15.8558 21.1056 14.0104 14.6648 12.1651C14.5483 12.1292 14.4319 12.0934 14.3244 12.0397C13.9929 11.8605 13.8944 11.6097 14.0019 11.2513C14.0235 11.1757 14.0484 11.1 14.0745 11.0204ZM31.0401 30.9143C30.9954 31.0487 30.9506 31.1831 30.9058 31.3354C30.7855 31.3012 30.6656 31.2671 30.5459 31.2331C30.0054 31.0793 29.4687 30.9266 28.926 30.78C26.3888 30.0524 23.853 29.3263 21.3182 28.6005C17.7674 27.5838 14.2185 26.5677 10.6695 25.5484L10.6695 25.5484C10.553 25.5126 10.4366 25.4768 10.3291 25.4141C10.0155 25.2439 9.92595 25.002 10.0334 24.6616C10.0484 24.6168 10.0633 24.573 10.0782 24.5292C10.1081 24.4416 10.138 24.354 10.1678 24.2585C10.6315 24.3862 11.08 24.5138 11.5286 24.6415C11.678 24.684 11.8274 24.7266 11.9774 24.7691C13.0938 25.0885 14.2106 25.408 15.3276 25.7275C20.3496 27.1641 25.3754 28.6017 30.3952 30.0454C30.5295 30.0902 30.6729 30.1439 30.7893 30.2156C31.067 30.3858 31.1387 30.6008 31.0401 30.9143ZM13.1957 13.9656C13.2405 13.8312 13.2852 13.6969 13.33 13.5446C13.4981 13.5923 13.6649 13.6394 13.8308 13.6862C14.3193 13.8241 14.7991 13.9596 15.2739 14.1C18.078 14.9018 20.8842 15.7036 23.6905 16.5054C26.4965 17.3071 29.3024 18.1088 32.1062 18.9105C32.2495 18.9463 32.3839 19.0001 32.5003 19.0807C32.7691 19.2599 32.8318 19.4659 32.7422 19.7705C32.6974 19.9049 32.6526 20.0392 32.6078 20.1915C32.4467 20.1467 32.3123 20.1109 32.1781 20.0751L32.1778 20.0751C26.0647 18.3297 19.9604 16.5844 13.8562 14.839L13.8406 14.8346C13.7063 14.7898 13.5629 14.736 13.4465 14.6644C13.1688 14.4852 13.0971 14.2792 13.1957 13.9656L13.1957 13.9656ZM30.01 27.6984C29.9652 27.8328 29.9204 27.9671 29.8756 28.1194C28.8234 27.8172 27.7842 27.5216 26.754 27.2285C26.074 27.035 25.3979 26.8426 24.7247 26.6503C22.2453 25.9448 19.7687 25.2364 17.2934 24.5284C15.3686 23.9779 13.4445 23.4275 11.5205 22.8789C11.3861 22.8341 11.2517 22.7894 11.1263 22.7177C10.8307 22.5475 10.7501 22.3146 10.8486 21.9921C10.8694 21.9141 10.8932 21.8391 10.9183 21.7602C10.9364 21.7031 10.9552 21.6439 10.974 21.58C11.1732 21.6364 11.3708 21.6912 11.5675 21.7457C11.8396 21.8212 12.11 21.8962 12.3805 21.9742C13.6354 22.3327 14.8909 22.6913 16.1466 23.05C20.538 24.3042 24.9336 25.5596 29.3292 26.8205C29.4725 26.8653 29.6248 26.919 29.7591 26.9996C30.0368 27.1699 30.0995 27.3848 30.01 27.6984L30.01 27.6984ZM25.4931 9.25065C25.4887 9.25641 25.4834 9.26328 25.4772 9.27161C25.1182 9.17336 24.7608 9.0767 24.4043 8.98028C23.9157 8.84816 23.4289 8.71649 22.942 8.58184C21.8313 8.27729 20.7229 7.97275 19.6144 7.6682C18.5058 7.3636 17.3971 7.059 16.2862 6.75439C15.6322 6.57523 15.4531 6.25274 15.6591 5.60776C15.7487 5.33006 15.8383 5.05236 15.9368 4.74778C16.1924 4.81988 16.4433 4.88718 16.6893 4.95319C16.7795 4.97741 16.8691 5.00144 16.958 5.02548C18.3376 5.4062 19.7149 5.78468 21.0922 6.16316C22.4695 6.54164 23.8468 6.92012 25.2264 7.30083C25.7728 7.45312 25.9699 7.81144 25.7997 8.33997C25.7504 8.48778 25.7034 8.63335 25.6563 8.77892C25.6093 8.92449 25.5623 9.07006 25.513 9.21786C25.513 9.22474 25.5077 9.23162 25.4931 9.25065ZM12.8483 5.0208C12.9339 4.7299 13.0196 4.43855 13.1057 4.14632C13.0701 4.14632 13.0392 4.14515 13.0109 4.14408C12.9607 4.14218 12.9186 4.14059 12.8728 4.14632H0.877892C0.286658 4.14632 0 4.43297 0 5.01525V35.7683C0 36.3596 0.277701 36.6373 0.868934 36.6373H20.084H20.2811C20.2273 36.5835 20.1557 36.5566 20.093 36.5387C17.7057 35.8266 15.3162 35.1144 12.9267 34.4023C10.5371 33.6901 8.14744 32.9779 5.76005 32.2657C5.13298 32.0776 4.95382 31.7372 5.14194 31.1101C5.22256 30.8324 5.30318 30.5547 5.39276 30.2502H4.9359H1.95286C1.68412 30.2502 1.47808 30.1606 1.36163 29.9097C1.18247 29.5246 1.46913 29.1125 1.92599 29.1125C3.12637 29.1035 4.33571 29.1035 5.53609 29.1125C5.69734 29.1125 5.769 29.0677 5.80484 28.9154C5.87767 28.6459 5.95642 28.3824 6.03627 28.1151C6.05464 28.0537 6.07307 27.992 6.09149 27.93C6.12118 27.8113 6.15702 27.6925 6.199 27.5534C6.20769 27.5246 6.21665 27.4949 6.22587 27.4642H5.95712H3.97739H1.93495C1.67516 27.4642 1.46913 27.3657 1.36163 27.1238C1.18247 26.7296 1.46913 26.3176 1.92599 26.3176C3.40407 26.3086 4.87319 26.3086 6.35128 26.3176C6.52148 26.3176 6.58419 26.2549 6.62898 26.1026C6.72363 25.7603 6.82421 25.424 6.92589 25.084C6.94931 25.0057 6.97278 24.9272 6.99626 24.8484C7.00632 24.8183 7.01073 24.7881 7.01584 24.7531C7.01983 24.7258 7.02424 24.6957 7.03209 24.6603H6.75439H2.08723C1.98869 24.6603 1.89015 24.6603 1.79162 24.6424C1.57662 24.6155 1.42433 24.4901 1.35267 24.2841C1.20934 23.881 1.496 23.5137 1.95286 23.5137H7.13063H7.39042C7.76564 22.2502 8.13433 20.9932 8.50765 19.7204C8.57105 19.5042 8.63458 19.2876 8.6983 19.0705H8.39372H2.07827C1.97974 19.0705 1.8812 19.0705 1.78266 19.0526C1.52287 19.0078 1.33475 18.7928 1.31684 18.533C1.29892 18.2911 1.45121 18.0493 1.69308 17.9686C1.80057 17.9328 1.91703 17.9238 2.03348 17.9238H8.77892H9.04766C9.10991 17.7129 9.17083 17.5032 9.23196 17.2929C9.32916 16.9584 9.4269 16.622 9.5314 16.2756H9.21786H2.07827C2.00661 16.2756 1.92599 16.2756 1.84536 16.2666C1.53183 16.2308 1.31684 15.9889 1.31684 15.6933C1.3258 15.3887 1.55871 15.1468 1.8812 15.1289H2.09619H9.5941H9.86284C9.9251 14.918 9.98601 14.7083 10.0471 14.498C10.1443 14.1635 10.2421 13.8271 10.3466 13.4806H10.033H2.10515H2.10512C2.01555 13.4806 1.93494 13.4806 1.84536 13.4717C1.53183 13.4448 1.30788 13.2029 1.30788 12.9073C1.30788 12.6027 1.54079 12.3519 1.86328 12.334H2.07827H10.4182C10.4358 12.334 10.4544 12.335 10.4733 12.3359C10.5121 12.3379 10.5523 12.34 10.5884 12.334C10.6243 12.325 10.687 12.2982 10.6959 12.2623C10.8042 11.9137 10.9043 11.569 11.0072 11.2148C11.0576 11.0413 11.1087 10.8654 11.1618 10.6857H10.8572H2.28431C2.26105 10.6857 2.23685 10.6867 2.21201 10.6876C2.16031 10.6896 2.10586 10.6918 2.0514 10.6857C1.62141 10.6499 1.3258 10.3453 1.30788 9.91532V9.61074C1.30788 8.98368 1.58558 8.70598 2.21265 8.70598H10.7049C10.7474 8.70598 10.7901 8.70514 10.8329 8.7043C11.1335 8.69842 11.4383 8.69246 11.6813 8.97472C12.0774 7.63983 12.4615 6.33497 12.8483 5.0208Z" fill="url(#paint0_linear_465_883)"/>
<defs>
<linearGradient id="paint0_linear_465_883" x1="20.0358" y1="0" x2="20.0358" y2="38" gradientUnits="userSpaceOnUse">
<stop stop-color="#F58C1F"/>
<stop offset="1" stop-color="#F57D21"/>
</linearGradient>
</defs>
</svg>
