<svg width="329" height="149" viewBox="0 0 329 149" fill="none" xmlns="http://www.w3.org/2000/svg">
<g filter="url(#filter0_d_109_334)">
<rect x="17" y="17" width="285" height="105" rx="5.23244" fill="url(#paint0_linear_109_334)"/>
<path d="M75.2715 49.3127V76.0962C75.2361 80.1173 74.129 83.1995 71.9501 85.3429C69.7713 87.4686 66.6448 88.5314 62.5706 88.5314C58.4255 88.5314 55.2547 87.4509 53.0582 85.2898C50.8794 83.1287 49.79 80.0021 49.79 75.9102V49.3127H57.655V75.9368C57.655 78.1333 58.0092 79.701 58.7178 80.6398C59.4264 81.5787 60.7106 82.0481 62.5706 82.0481C64.4306 82.0481 65.706 81.5875 66.3968 80.6664C67.0877 79.7276 67.4419 78.1953 67.4596 76.0696V49.3127H75.2715Z" fill="white"/>
<path d="M234.467 89.219C223.049 89.219 211.631 89.219 200.092 89.3408C199.242 93.2359 197.298 96.5224 194.019 98.9569C191.347 101.026 188.31 102 184.909 102C181.143 102 177.864 100.783 174.949 98.47C172.034 96.0355 170.333 92.9925 169.604 89.3408C169.483 89.3408 169.361 89.3408 169.24 89.3408C167.904 89.3408 166.446 89.3408 165.11 89.3408C164.746 89.3408 164.381 89.3408 164.017 89.219C163.288 88.9756 162.681 88.4887 162.438 87.7584C162.195 87.1498 162.073 86.5411 162.073 85.9325C162.073 84.4719 161.952 82.8895 162.073 81.4288C162.073 81.1853 162.073 80.8202 161.952 80.455C161.83 79.9681 161.466 79.7247 160.98 79.6029C160.737 79.6029 160.494 79.6029 160.373 79.6029C159.765 79.6029 159.28 79.6029 158.672 79.6029C158.186 79.6029 157.579 79.6029 157.093 79.6029C156.364 79.6029 156 79.3595 156 78.5074C156 77.2902 156 76.073 156 74.8558C156 73.1516 156 71.5692 156 69.8651C156 69.6217 156 69.3782 156.121 69.2565C156.243 68.8913 156.486 68.6479 156.972 68.5262C157.215 68.5262 157.579 68.5262 157.822 68.5262C158.794 68.5262 159.765 68.6479 160.616 68.7696C160.859 68.7696 160.98 68.7696 161.223 68.7696C161.709 68.6479 162.073 68.2827 162.195 67.7958C162.195 67.5524 162.195 67.3089 162.195 67.0655C162.195 66.3351 162.195 65.6048 162.195 64.9962C162.195 64.5093 162.195 63.9007 162.195 63.4138C162.195 63.1704 162.195 63.0486 162.195 62.8052C162.316 62.3183 162.559 62.0748 163.045 61.9531C163.288 61.9531 163.531 61.9531 163.774 61.9531C169.726 61.9531 175.799 61.9531 181.751 61.9531C191.104 61.9531 200.457 61.9531 209.688 61.9531C220.863 61.9531 232.038 61.9531 243.213 61.9531C252.687 61.9531 262.04 61.9531 271.514 61.9531C271.636 61.9531 271.757 61.9531 271.879 61.9531C271.879 62.0748 271.879 62.1966 271.879 62.3183C271.879 67.6741 271.879 73.1516 271.879 78.5074C271.879 81.0636 271.879 83.7415 271.879 86.2977C271.879 86.6629 271.879 87.028 271.757 87.3932C271.636 88.367 271.028 88.8539 270.057 89.0973C269.692 89.219 269.328 89.219 268.963 89.219C267.627 89.219 266.413 89.219 265.076 89.219C264.955 89.219 264.955 89.219 264.834 89.219C263.862 93.6011 261.554 97.131 257.667 99.5655C254.873 101.27 251.837 102 248.557 101.757C245.035 101.513 241.998 100.174 239.326 97.8614C236.775 95.6704 235.196 92.749 234.467 89.219ZM249.772 77.0468C244.67 77.0468 240.54 81.1853 240.54 86.2977C240.54 91.4101 244.67 95.5486 249.772 95.5486C254.873 95.5486 259.003 91.4101 259.003 86.2977C258.882 81.1853 254.752 77.0468 249.772 77.0468ZM194.14 86.4194C194.14 81.5505 190.253 77.1685 184.909 77.1685C179.807 77.1685 175.677 81.3071 175.677 86.4194C175.677 91.5318 179.807 95.6704 184.909 95.6704C190.01 95.5486 194.14 91.5318 194.14 86.4194Z" fill="white"/>
<path d="M161.953 59.6405C161.953 59.5187 161.953 59.397 161.953 59.397C161.953 52.5805 161.953 45.764 161.953 38.9476C161.953 38.339 162.196 37.8521 162.56 37.4869C162.925 37.2434 163.289 37 163.654 37C163.775 37 163.775 37 163.897 37C174.343 37 184.789 37 195.235 37C195.478 37 195.721 37 195.964 37.1217C196.692 37.3652 197.178 37.9738 197.3 38.8258C197.3 38.9476 197.3 39.0693 197.3 39.191C197.3 45.8858 197.3 52.5805 197.3 59.2753C197.3 59.397 197.3 59.5187 197.3 59.6405C197.178 59.6405 197.178 59.6405 197.057 59.6405C185.275 59.6405 173.614 59.6405 161.953 59.6405Z" fill="white"/>
<path d="M199.363 59.6405C199.363 59.5187 199.363 59.397 199.363 59.2753C199.363 52.4588 199.363 45.764 199.363 38.9476C199.363 38.7041 199.363 38.4607 199.485 38.2172C199.728 37.4869 200.335 37 201.185 37H201.307C211.753 37 222.199 37 232.645 37C232.888 37 233.131 37 233.374 37.1217C234.103 37.3652 234.588 37.9738 234.588 38.7041C234.588 38.8258 234.588 38.9476 234.588 39.0693C234.588 45.764 234.588 52.4588 234.588 59.2753C234.588 59.397 234.588 59.5187 234.588 59.6405C222.806 59.6405 211.145 59.6405 199.363 59.6405Z" fill="white"/>
<path d="M272.001 59.6437C260.218 59.6437 248.558 59.6437 236.775 59.6437C236.775 59.522 236.775 59.4003 236.775 59.2786C236.775 52.5838 236.775 46.0108 236.775 39.316C236.775 39.1943 236.775 38.9508 236.775 38.8291C236.775 37.8553 237.626 37.125 238.597 37.125H238.719C249.165 37.125 259.611 37.125 270.057 37.125C270.3 37.125 270.543 37.125 270.786 37.2467C271.515 37.4902 272.001 38.0988 272.001 38.8291C272.001 38.9508 272.001 39.0726 272.001 39.1943C272.001 45.889 272.001 52.5838 272.001 59.2786C272.001 59.4003 272.001 59.522 272.001 59.6437Z" fill="white"/>
</g>
<defs>
<filter id="filter0_d_109_334" x="0" y="0" width="329" height="149" filterUnits="userSpaceOnUse" color-interpolation-filters="sRGB">
<feFlood flood-opacity="0" result="BackgroundImageFix"/>
<feColorMatrix in="SourceAlpha" type="matrix" values="0 0 0 0 0 0 0 0 0 0 0 0 0 0 0 0 0 0 127 0" result="hardAlpha"/>
<feOffset dx="5" dy="5"/>
<feGaussianBlur stdDeviation="11"/>
<feComposite in2="hardAlpha" operator="out"/>
<feColorMatrix type="matrix" values="0 0 0 0 0.960784 0 0 0 0 0.490196 0 0 0 0 0.129412 0 0 0 0.2 0"/>
<feBlend mode="normal" in2="BackgroundImageFix" result="effect1_dropShadow_109_334"/>
<feBlend mode="normal" in="SourceGraphic" in2="effect1_dropShadow_109_334" result="shape"/>
</filter>
<linearGradient id="paint0_linear_109_334" x1="159.5" y1="17" x2="159.5" y2="122" gradientUnits="userSpaceOnUse">
<stop stop-color="#F58C1F"/>
<stop offset="1" stop-color="#F57D21"/>
</linearGradient>
</defs>
</svg>
