<svg width="76" height="44" viewBox="0 0 76 44" fill="none" xmlns="http://www.w3.org/2000/svg">
<path d="M51.4094 34.8887C43.9288 34.8887 36.4482 34.8887 28.888 34.9683C28.3309 37.5149 27.0576 39.6635 24.9089 41.2552C23.1581 42.608 21.1686 43.2447 18.9403 43.2447C16.4733 43.2447 14.3246 42.4489 12.4147 40.9368C10.5047 39.3452 9.39058 37.3557 8.91309 34.9683C8.83351 34.9683 8.75393 34.9683 8.67435 34.9683C7.79895 34.9683 6.84398 34.9683 5.96859 34.9683C5.72984 34.9683 5.4911 34.9683 5.25236 34.8887C4.77487 34.7295 4.37696 34.4112 4.2178 33.9337C4.05864 33.5358 3.97906 33.1379 3.97906 32.74C3.97906 31.785 3.89948 30.7505 3.97906 29.7955C3.97906 29.6363 3.97906 29.3976 3.89948 29.1588C3.81989 28.8405 3.58115 28.6813 3.26283 28.6018C3.10367 28.6018 2.9445 28.6018 2.86492 28.6018C2.46702 28.6018 2.14869 28.6018 1.75079 28.6018C1.43246 28.6018 1.03455 28.6018 0.71623 28.6018C0.238743 28.6018 0 28.4426 0 27.8855C0 27.0897 0 26.2939 0 25.4981C0 24.384 0 23.3494 0 22.2353C0 22.0761 -7.70804e-08 21.917 0.0795811 21.8374C0.159162 21.5986 0.318325 21.4395 0.636649 21.3599C0.795811 21.3599 1.03455 21.3599 1.19372 21.3599C1.83037 21.3599 2.46702 21.4395 3.02408 21.519C3.18325 21.519 3.26283 21.519 3.42199 21.519C3.74031 21.4395 3.97906 21.2007 4.05864 20.8824C4.05864 20.7232 4.05864 20.5641 4.05864 20.4049C4.05864 19.9274 4.05864 19.4499 4.05864 19.052C4.05864 18.7337 4.05864 18.3358 4.05864 18.0175C4.05864 17.8583 4.05864 17.7787 4.05864 17.6196C4.13822 17.3012 4.29738 17.1421 4.61571 17.0625C4.77487 17.0625 4.93403 17.0625 5.09319 17.0625C8.99267 17.0625 12.9717 17.0625 16.8712 17.0625C22.999 17.0625 29.1267 17.0625 35.1749 17.0625C42.4963 17.0625 49.8178 17.0625 57.1393 17.0625C63.3466 17.0625 69.4743 17.0625 75.6817 17.0625C75.7613 17.0625 75.8408 17.0625 75.9204 17.0625C75.9204 17.1421 75.9204 17.2217 75.9204 17.3012C75.9204 20.8028 75.9204 24.384 75.9204 27.8855C75.9204 29.5567 75.9204 31.3075 75.9204 32.9787C75.9204 33.2175 75.9204 33.4562 75.8408 33.695C75.7613 34.3316 75.3633 34.6499 74.7267 34.8091C74.488 34.8887 74.2492 34.8887 74.0105 34.8887C73.1351 34.8887 72.3393 34.8887 71.4639 34.8887C71.3843 34.8887 71.3843 34.8887 71.3047 34.8887C70.6681 37.7536 69.156 40.0615 66.6094 41.6531C64.7791 42.7672 62.7895 43.2447 60.6408 43.0855C58.333 42.9264 56.3435 42.051 54.5927 40.5389C52.9215 39.1065 51.8869 37.1965 51.4094 34.8887ZM61.4366 26.9306C58.0942 26.9306 55.3885 29.6363 55.3885 32.9787C55.3885 36.3211 58.0942 39.0269 61.4366 39.0269C64.7791 39.0269 67.4848 36.3211 67.4848 32.9787C67.4052 29.6363 64.6995 26.9306 61.4366 26.9306ZM24.9885 33.0583C24.9885 29.8751 22.4419 27.0101 18.9403 27.0101C15.5979 27.0101 12.8921 29.7159 12.8921 33.0583C12.8921 36.4007 15.5979 39.1065 18.9403 39.1065C22.2827 39.0269 24.9885 36.4007 24.9885 33.0583Z" fill="white" fill-opacity="0.5"/>
<path d="M3.90039 15.5521C3.90039 15.4725 3.90039 15.3929 3.90039 15.3929C3.90039 10.9364 3.90039 6.47984 3.90039 2.0233C3.90039 1.62539 4.05955 1.30707 4.2983 1.06833C4.53704 0.909164 4.77578 0.75 5.01453 0.75C5.09411 0.75 5.09411 0.75 5.17369 0.75C12.0177 0.75 18.8616 0.75 25.7056 0.75C25.8648 0.75 26.024 0.75 26.1831 0.829581C26.6606 0.988744 26.9789 1.38665 27.0585 1.94372C27.0585 2.0233 27.0585 2.10288 27.0585 2.18246C27.0585 6.55942 27.0585 10.9364 27.0585 15.3134C27.0585 15.3929 27.0585 15.4725 27.0585 15.5521C26.9789 15.5521 26.9789 15.5521 26.8993 15.5521C19.18 15.5521 11.5402 15.5521 3.90039 15.5521Z" fill="white" fill-opacity="0.5"/>
<path d="M28.4102 15.5521C28.4102 15.4725 28.4102 15.3929 28.4102 15.3134C28.4102 10.8568 28.4102 6.47984 28.4102 2.0233C28.4102 1.86414 28.4102 1.70497 28.4897 1.54581C28.6489 1.06832 29.0468 0.75 29.6039 0.75H29.6835C36.5274 0.75 43.3714 0.75 50.2154 0.75C50.3746 0.75 50.5337 0.75 50.6929 0.829581C51.1704 0.988744 51.4887 1.38665 51.4887 1.86414C51.4887 1.94372 51.4887 2.0233 51.4887 2.10288C51.4887 6.47984 51.4887 10.8568 51.4887 15.3134C51.4887 15.3929 51.4887 15.4725 51.4887 15.5521C43.7693 15.5521 36.1295 15.5521 28.4102 15.5521Z" fill="white" fill-opacity="0.5"/>
<path d="M76.0004 15.5545C68.281 15.5545 60.6412 15.5545 52.9219 15.5545C52.9219 15.475 52.9219 15.3954 52.9219 15.3158C52.9219 10.9388 52.9219 6.64146 52.9219 2.26449C52.9219 2.18491 52.9219 2.02575 52.9219 1.94617C52.9219 1.30952 53.4789 0.832031 54.1156 0.832031H54.1952C61.0392 0.832031 67.8831 0.832031 74.7271 0.832031C74.8863 0.832031 75.0454 0.832032 75.2046 0.911613C75.6821 1.07078 76.0004 1.46868 76.0004 1.94617C76.0004 2.02575 76.0004 2.10533 76.0004 2.18491C76.0004 6.56187 76.0004 10.9388 76.0004 15.3158C76.0004 15.3954 76.0004 15.475 76.0004 15.5545Z" fill="white" fill-opacity="0.5"/>
</svg>
