<?xml version="1.0" encoding="iso-8859-1"?>
<!-- Generator: Adobe Illustrator 19.0.0, SVG Export Plug-In . SVG Version: 6.00 Build 0)  -->
<svg version="1.1" id="Capa_1" xmlns="http://www.w3.org/2000/svg" xmlns:xlink="http://www.w3.org/1999/xlink" x="0px" y="0px"
	 viewBox="0 0 512 512" style="enable-background:new 0 0 512 512;" xml:space="preserve">
<g>
	<path style="fill:#DDEDE5;" d="M114.525,296.002c-4.09,1.226-8.396-1.092-9.622-5.182l-5.244-17.503l-27.423-91.511l-27.423,91.511
		l-5.244,17.503c-1.01,3.348-4.079,5.511-7.407,5.511c-0.731,0-1.473-0.103-2.215-0.329c-4.09-1.226-6.408-5.532-5.182-9.612
		l3.915-13.073L60.348,167.62l4.481-14.948c0.979-3.266,3.997-5.511,7.407-5.511c3.41,0,6.418,2.246,7.397,5.511l4.481,14.948
		l31.678,105.697l3.915,13.073C120.933,290.47,118.605,294.776,114.525,296.002z"/>
	<path style="fill:#DDEDE5;" d="M482.053,189.254c-0.742,0.216-1.483,0.319-2.215,0.319c-3.327,0-6.397-2.163-7.407-5.512
		l-5.244-17.503l-27.423-91.511L412.34,166.56l-5.244,17.503c-1.226,4.09-5.522,6.408-9.622,5.192
		c-4.08-1.226-6.408-5.532-5.182-9.622l3.915-13.073l31.71-105.79l4.45-14.855c0.979-3.266,3.987-5.501,7.397-5.501
		s6.428,2.235,7.407,5.501l4.45,14.845l31.699,105.8l3.915,13.073C488.46,183.722,486.142,188.029,482.053,189.254z"/>
	<path style="fill:#DDEDE5;" d="M441.917,36.85c-0.639,0.185-12.372,3.595-31.287,9.097c-27.341,7.932-69.692,20.243-115.215,33.47
		c-24.662,7.17-50.263,14.608-74.915,21.778c-45.4,13.186-87.586,25.456-114.803,33.378c-18.451,5.378-30.03,8.757-31.101,9.086
		c-0.783,0.258-1.576,0.371-2.359,0.371c-3.235,0-6.253-2.04-7.335-5.285c-1.35-4.049,0.845-8.417,4.893-9.766
		c0.505-0.165,12.352-3.626,31.554-9.22c27.289-7.953,69.465-20.212,115.112-33.481c24.364-7.088,49.727-14.453,74.348-21.613
		c44.246-12.857,86.092-25.013,115.494-33.553c13.289-3.863,24.034-6.985,31.307-9.096c4.09-1.195,8.386,1.164,9.57,5.264
		C448.376,31.379,446.017,35.665,441.917,36.85z"/>
</g>
<g>
	<path style="fill:#AFC3C3;" d="M79.633,152.673l4.481,14.948c-3.698,1.411-7.696,2.184-11.878,2.184s-8.19-0.773-11.888-2.184
		l4.481-14.948c0.979-3.266,3.997-5.511,7.407-5.511C75.646,147.161,78.654,149.407,79.633,152.673z"/>
	<path style="fill:#AFC3C3;" d="M64.901,138.745c-1.35-4.049,0.845-8.417,4.893-9.766c0.505-0.165,12.352-3.626,31.554-9.22
		c2.524,4.409,4.069,9.447,4.347,14.814c-18.451,5.378-30.03,8.757-31.101,9.086c-0.783,0.258-1.576,0.371-2.359,0.371
		C69.002,144.03,65.983,141.99,64.901,138.745z"/>
</g>
<path style="fill:#FF9900;" d="M72.234,116.195c-11.09,0-20.111,9.021-20.111,20.11s9.021,20.11,20.111,20.11
	c11.089,0,20.11-9.021,20.11-20.11S83.323,116.195,72.234,116.195z"/>
<g>
	<path style="fill:#AFC3C3;" d="M441.917,36.85c-0.639,0.185-12.372,3.595-31.287,9.097c-2.524-4.42-4.059-9.468-4.327-14.835
		c13.289-3.863,24.034-6.985,31.307-9.096c4.09-1.195,8.386,1.164,9.57,5.264C448.376,31.379,446.017,35.665,441.917,36.85z"/>
	<path style="fill:#AFC3C3;" d="M451.621,60.76c-3.688,1.401-7.685,2.174-11.857,2.174c-4.162,0-8.159-0.762-11.847-2.163
		l4.45-14.855c0.979-3.266,3.987-5.501,7.397-5.501s6.428,2.235,7.407,5.501L451.621,60.76z"/>
</g>
<g>
	<path style="fill:#FF9900;" d="M439.766,9.323c-11.089,0-20.11,9.021-20.11,20.11s9.021,20.11,20.11,20.11
		c11.09,0,20.111-9.021,20.111-20.11S450.855,9.323,439.766,9.323z"/>
	<rect x="244.77" y="87.56" style="fill:#FF9900;" width="22.451" height="360.13"/>
</g>
<g>
	<path style="fill:#FF4F19;" d="M267.226,87.558v34.144c-3.559,1.048-7.325,1.608-11.226,1.608c-3.901,0-7.667-0.56-11.226-1.608
		V87.558H267.226z"/>
	<rect x="244.77" y="430.14" style="fill:#FF4F19;" width="22.451" height="17.544"/>
</g>
<path style="fill:#AFC3C3;" d="M295.415,79.416c-24.662,7.17-50.263,14.608-74.915,21.778c-2.266-4.543-3.688-9.591-4.038-14.917
	c24.364-7.088,49.727-14.453,74.348-21.613C293.251,69.135,294.858,74.121,295.415,79.416z"/>
<circle style="fill:#FFDA2C;" cx="256" cy="83.59" r="26.23"/>
<path style="fill:#FFEB99;" d="M282.238,83.584c0,2.448-0.332,4.814-0.965,7.055c-3.071-11.06-13.218-19.183-25.273-19.183
	c-12.056,0-22.202,8.123-25.273,19.183c-0.633-2.241-0.965-4.607-0.965-7.055c0-14.483,11.744-26.228,26.238-26.228
	C270.494,57.356,282.238,69.101,282.238,83.584z"/>
<g>
	<path style="fill:#AFC3C3;" d="M28.68,273.317h16.133l-5.244,17.503c-1.01,3.348-4.079,5.511-7.407,5.511
		c-0.731,0-1.473-0.103-2.215-0.329c-4.09-1.226-6.408-5.532-5.182-9.612L28.68,273.317z"/>
	<path style="fill:#AFC3C3;" d="M114.525,296.002c-4.09,1.226-8.396-1.092-9.622-5.182l-5.244-17.503h16.133l3.915,13.073
		C120.933,290.47,118.605,294.776,114.525,296.002z"/>
</g>
<path style="fill:#006DF0;" d="M128.327,292.895v31.563H16.144v-31.563c0-3.414,2.767-6.181,6.181-6.181h99.821
	C125.56,286.714,128.327,289.481,128.327,292.895z"/>
<rect x="16.14" y="298.22" style="fill:#0052D6;" width="112.18" height="26.24"/>
<path style="fill:#159BFF;" d="M6.246,311.707c-4.198,0-7.234,4.084-5.947,8.079c9.789,30.386,38.293,52.372,71.935,52.372
	s62.146-21.986,71.935-52.372c1.287-3.995-1.749-8.079-5.947-8.079H6.246z"/>
<g>
	<path style="fill:#AFC3C3;" d="M396.208,166.56h16.133l-5.244,17.503c-1.226,4.09-5.522,6.408-9.622,5.192
		c-4.08-1.226-6.408-5.532-5.182-9.622L396.208,166.56z"/>
	<path style="fill:#AFC3C3;" d="M482.053,189.254c-0.742,0.216-1.483,0.319-2.215,0.319c-3.327,0-6.397-2.163-7.407-5.512
		l-5.244-17.503h16.133l3.915,13.073C488.46,183.722,486.142,188.029,482.053,189.254z"/>
</g>
<path style="fill:#006DF0;" d="M495.856,186.137v31.573H383.673v-31.573c0-3.414,2.767-6.181,6.181-6.181h99.821
	C493.089,179.956,495.856,182.724,495.856,186.137z"/>
<rect x="383.67" y="191.46" style="fill:#0052D6;" width="112.18" height="26.25"/>
<path style="fill:#159BFF;" d="M373.778,204.953c-4.198,0-7.234,4.084-5.947,8.079c9.789,30.386,38.293,52.372,71.935,52.372
	s62.146-21.985,71.935-52.372c1.287-3.995-1.749-8.079-5.947-8.079L373.778,204.953L373.778,204.953z"/>
<path style="fill:#FF9900;" d="M107.898,476.783v-26.97c0-3.414,2.767-6.181,6.181-6.181H397.92c3.414,0,6.181,2.767,6.181,6.181
	v26.97H107.898z"/>
<rect x="107.9" y="455.98" style="fill:#FF4F19;" width="296.2" height="20.799"/>
<path style="fill:#FFDA2C;" d="M98.23,469.525h315.54c3.414,0,6.181,2.767,6.181,6.181v26.971H92.049v-26.971
	C92.049,472.292,94.816,469.525,98.23,469.525z"/>
<path style="fill:#FFEB99;" d="M98.23,469.525h315.54c3.414,0,6.181,2.767,6.181,6.181v7.413H92.049v-7.413
	C92.049,472.292,94.816,469.525,98.23,469.525z"/>
<g>
</g>
<g>
</g>
<g>
</g>
<g>
</g>
<g>
</g>
<g>
</g>
<g>
</g>
<g>
</g>
<g>
</g>
<g>
</g>
<g>
</g>
<g>
</g>
<g>
</g>
<g>
</g>
<g>
</g>
</svg>
