<svg height="464pt" viewBox="-31 0 463 464" width="464pt" xmlns="http://www.w3.org/2000/svg"><path d="m400.5 352h-256v-352h192l64 64zm0 0" fill="#4398d1"/><path d="m280.5 296h80v16h-80zm0 0" fill="#2181c2"/><path d="m280.5 248h80v16h-80zm0 0" fill="#2181c2"/><path d="m280.5 152h80v16h-80zm0 0" fill="#2181c2"/><path d="m328.5 200h32v16h-32zm0 0" fill="#2181c2"/><path d="m280.5 200h32v16h-32zm0 0" fill="#2181c2"/><path d="m240.5 104h72v16h-72zm0 0" fill="#2181c2"/><path d="m328.5 104h32v16h-32zm0 0" fill="#2181c2"/><path d="m184.5 56h48v16h-48zm0 0" fill="#2181c2"/><path d="m248.5 56h32v16h-32zm0 0" fill="#2181c2"/><path d="m336.5 0v64h64zm0 0" fill="#87ced9"/><path d="m352.5 64h48v16h-48zm0 0" fill="#368ec9"/><path d="m272.5 352h-128v-224h88l40 40zm0 0" fill="#368ec9"/><path d="m256.5 464h-256v-352h192l64 64zm0 0" fill="#87ced9"/><path d="m192.5 112v64h64zm0 0" fill="#eaeef0"/><g fill="#5eb3d1"><path d="m40.5 360h64v16h-64zm0 0"/><path d="m40.5 408h176v16h-176zm0 0"/><path d="m120.5 360h96v16h-96zm0 0"/><path d="m40.5 264h80v16h-80zm0 0"/><path d="m136.5 264h80v16h-80zm0 0"/><path d="m184.5 312h32v16h-32zm0 0"/><path d="m40.5 312h128v16h-128zm0 0"/><path d="m40.5 216h128v16h-128zm0 0"/><path d="m184.5 216h32v16h-32zm0 0"/><path d="m40.5 168h48v16h-48zm0 0"/><path d="m104.5 168h32v16h-32zm0 0"/></g><path d="m208.5 176h48v16h-48zm0 0" fill="#71c4d1"/></svg>