<svg width="45" height="60" viewBox="0 0 45 60" fill="none" xmlns="http://www.w3.org/2000/svg">
<g filter="url(#filter0_d_1_5305)">
<rect width="45" height="60" rx="5" fill="url(#paint0_linear_1_5305)" shape-rendering="crispEdges"/>
<path d="M16.6504 24H14.1406L14.1602 21.6367H16.6504C17.3405 21.6367 17.8776 21.513 18.2617 21.2656C18.6458 21.0182 18.916 20.6276 19.0723 20.0938C19.235 19.5599 19.3164 18.86 19.3164 17.9941V15.7773C19.3164 15.1198 19.2741 14.5632 19.1895 14.1074C19.1048 13.6452 18.9616 13.2741 18.7598 12.9941C18.5579 12.7077 18.2878 12.4961 17.9492 12.3594C17.6107 12.2227 17.1908 12.1543 16.6895 12.1543H14.0918V9.78125H16.6895C17.5098 9.78125 18.2552 9.91471 18.9258 10.1816C19.5964 10.4486 20.1725 10.8392 20.6543 11.3535C21.1361 11.8613 21.5072 12.4896 21.7676 13.2383C22.028 13.987 22.1582 14.8398 22.1582 15.7969V17.9941C22.1582 18.9577 22.028 19.8105 21.7676 20.5527C21.5072 21.2949 21.1361 21.9232 20.6543 22.4375C20.179 22.9453 19.6029 23.3327 18.9258 23.5996C18.2487 23.8665 17.4902 24 16.6504 24ZM15.8008 9.78125V24H12.9395V9.78125H15.8008ZM30.0879 9.75195V24H27.3535V13.1113L24.6387 14.1562V11.8711L29.7949 9.75195H30.0879Z" fill="white"/>
</g>
<path d="M37 40.3005C37 39.9206 37 39.5407 37 39.1316C37 39.0147 36.97 38.8978 36.9099 38.7809C36.7897 38.5764 36.6094 38.4595 36.3991 38.4302C36.279 38.401 36.1588 38.401 36.0386 38.401C35.3176 38.401 34.5966 38.401 33.9056 38.401C33.8155 38.401 33.6953 38.401 33.6052 38.3426C33.3948 38.2841 33.2747 38.1672 33.1845 37.9627C33.1245 37.8165 33.0944 37.6704 33.0343 37.4951C32.6438 36.3261 32.2232 35.1572 31.8326 33.9883C31.6824 33.6083 31.5622 33.1992 31.412 32.8193C31.2318 32.2641 30.5107 32.1472 30 31.9718C29.1888 31.7088 28.3476 31.5042 27.5064 31.3581C26.6352 31.212 25.7339 31.0951 24.8627 31.0659C24.3519 31.0367 23.8712 31.0074 23.3605 31.0074C22.279 30.9782 21.1974 31.0367 20.1159 31.1536C19.8155 31.1828 19.515 31.212 19.2146 31.2705C18.103 31.4166 17.0215 31.6211 15.97 32.001C15.6695 32.0887 15.3991 32.2056 15.0987 32.3225C14.9785 32.3517 14.8884 32.4102 14.7983 32.4978C14.7082 32.5855 14.6481 32.7024 14.588 32.8193C14.4678 33.1992 14.3176 33.6083 14.1674 33.9883C13.7768 35.1572 13.3562 36.3261 12.9657 37.4951C12.9056 37.6412 12.8755 37.7873 12.8155 37.9627C12.7554 38.1672 12.6051 38.2841 12.3948 38.3426C12.3047 38.3718 12.2146 38.401 12.0944 38.401C11.3734 38.401 10.6524 38.401 9.96137 38.401C9.8412 38.401 9.72103 38.401 9.60086 38.4302C9.36052 38.4595 9.18026 38.5764 9.09013 38.7809C9.06009 38.8978 9.03004 39.0147 9.03004 39.1316C9.03004 39.5115 9.03004 39.8914 9.03004 40.3005C9.03004 40.4467 9.06009 40.5928 9.09013 40.7389C9.12017 40.8266 9.15021 40.9142 9.18026 41.0019C9.27039 41.3234 9.48069 41.5572 9.75107 41.7325C9.87124 41.7909 9.96137 41.8494 10.0815 41.8786C10.1416 41.9078 10.2318 41.9078 10.2918 41.9663C10.382 42.0247 10.5021 42.054 10.5923 42.1124C10.6824 42.1416 10.7124 42.2001 10.6824 42.2877C10.6524 42.3754 10.6223 42.4339 10.5923 42.5215C10.5021 42.6677 10.412 42.8138 10.2918 42.9599C10.1416 43.1645 10.0215 43.369 9.87124 43.5736C9.75107 43.7489 9.6309 43.9243 9.54077 44.0996C9.39056 44.3918 9.27039 44.7133 9.18026 45.0055C9.06009 45.4439 9 45.9115 9 46.3498C9 49.0968 9 51.8146 9 54.5616C9 54.5909 9 54.6201 9 54.6493C9 54.737 9.03004 54.7954 9.06009 54.8539C9.12017 54.9123 9.18026 54.9708 9.27039 55C9.4206 54.9416 9.48069 54.9416 9.54077 54.9416C10.8927 54.9416 12.2146 54.9416 13.5665 54.9416C13.5966 54.9416 13.6266 54.9416 13.6567 54.9416C13.8069 54.9416 13.927 54.8539 14.0172 54.737C14.0773 54.6785 14.0773 54.5909 14.0773 54.5032C14.0773 53.3927 14.0773 50.9964 14.0773 50.9671H31.9227C31.9227 50.9964 31.9528 53.3927 31.9227 54.5032C31.9227 54.5909 31.9227 54.6785 31.9828 54.737C32.073 54.8539 32.1931 54.9123 32.3433 54.9416C32.3734 54.9416 32.4034 54.9416 32.4335 54.9416C33.7854 54.9416 35.1073 54.9416 36.4592 54.9416C36.5193 54.9416 36.6094 54.9416 36.6695 54.9123C36.7597 54.8831 36.8197 54.8539 36.8798 54.7662C36.9399 54.7078 36.97 54.6493 36.9399 54.5616C36.9399 54.5324 36.9399 54.5032 36.9399 54.474C36.9399 51.727 36.9399 49.0092 36.9399 46.2622C36.9399 45.7946 36.8798 45.3562 36.7597 44.9179C36.6695 44.5964 36.5794 44.3042 36.3991 44.0119C36.309 43.8366 36.1888 43.6613 36.0687 43.4859C35.9485 43.2813 35.7983 43.0768 35.6481 42.8722C35.5579 42.7261 35.4378 42.58 35.3476 42.4339C35.3176 42.3754 35.2876 42.2877 35.2575 42.2001C35.2275 42.1124 35.2575 42.054 35.3476 42.0247C35.4378 41.9955 35.5579 41.9371 35.6481 41.8786C35.7082 41.8494 35.7983 41.8202 35.8584 41.7909C35.9785 41.7617 36.0987 41.7033 36.1888 41.6448C36.4893 41.4695 36.6695 41.2357 36.7597 40.9142C36.7897 40.8266 36.8197 40.7389 36.8498 40.6512C36.97 40.5928 37 40.4467 37 40.3005ZM31.8927 38.8978C31.7425 39.2193 31.2618 39.2485 30.9313 39.3069C30.5708 39.3946 30.2403 39.4531 29.8798 39.5115C29.279 39.6284 28.7082 39.7161 28.1073 39.7745C26.6352 39.9499 25.1631 40.0083 23.691 40.0375C23.2704 40.0375 22.8197 40.0375 22.3991 40.0375C20.927 40.0375 19.4249 39.9791 17.9528 39.7745C17.0215 39.6576 16.0901 39.5115 15.1888 39.3069C14.9485 39.2485 14.7082 39.2193 14.4678 39.1316C14.2876 39.0732 14.1373 38.9855 14.1073 38.8101C14.0172 37.9334 14.4077 37.0567 14.6781 36.2385C14.8884 35.5663 15.1288 34.8942 15.3991 34.2513C15.4893 34.0467 15.5794 33.8129 15.6695 33.6083C16 33.0239 16.6009 32.644 17.2618 32.4686C18.0429 32.2348 18.9142 32.2056 19.7253 32.1472C20.8369 32.0595 21.9485 31.9718 23.0901 31.9718C23.4206 31.9718 23.721 31.9718 24.0515 31.9718C24.8927 32.001 25.7339 32.0595 26.5751 32.1179C27.3562 32.1764 28.1974 32.2348 28.9485 32.4978C29.3991 32.644 29.8197 32.907 30.1202 33.2577C30.2704 33.4622 30.3906 33.7252 30.4807 33.9883C30.6009 34.3097 30.721 34.6312 30.8412 34.9526C31.0515 35.4787 31.2318 36.0047 31.412 36.5599C31.6524 37.2321 31.9828 37.9627 31.9828 38.664C31.9528 38.7517 31.9227 38.8394 31.8927 38.8978Z" fill="white" fill-opacity="0.5"/>
<defs>
<filter id="filter0_d_1_5305" x="-17" y="-17" width="89" height="104" filterUnits="userSpaceOnUse" color-interpolation-filters="sRGB">
<feFlood flood-opacity="0" result="BackgroundImageFix"/>
<feColorMatrix in="SourceAlpha" type="matrix" values="0 0 0 0 0 0 0 0 0 0 0 0 0 0 0 0 0 0 127 0" result="hardAlpha"/>
<feOffset dx="5" dy="5"/>
<feGaussianBlur stdDeviation="11"/>
<feComposite in2="hardAlpha" operator="out"/>
<feColorMatrix type="matrix" values="0 0 0 0 0.0392157 0 0 0 0 0.560784 0 0 0 0 0.309804 0 0 0 0.2 0"/>
<feBlend mode="normal" in2="BackgroundImageFix" result="effect1_dropShadow_1_5305"/>
<feBlend mode="normal" in="SourceGraphic" in2="effect1_dropShadow_1_5305" result="shape"/>
</filter>
<linearGradient id="paint0_linear_1_5305" x1="22.5" y1="60" x2="22.5" y2="3.17091e-07" gradientUnits="userSpaceOnUse">
<stop stop-color="#5CCC94"/>
<stop offset="1" stop-color="#8CCAAE"/>
</linearGradient>
</defs>
</svg>
