<svg width="45" height="60" viewBox="0 0 45 60" fill="none" xmlns="http://www.w3.org/2000/svg">
<g filter="url(#filter0_d_1_5319)">
<rect width="45" height="60" rx="5" fill="url(#paint0_linear_1_5319)" shape-rendering="crispEdges"/>
<path d="M9.5625 24H7.05273L7.07227 21.6367H9.5625C10.2526 21.6367 10.7897 21.513 11.1738 21.2656C11.5579 21.0182 11.8281 20.6276 11.9844 20.0938C12.1471 19.5599 12.2285 18.86 12.2285 17.9941V15.7773C12.2285 15.1198 12.1862 14.5632 12.1016 14.1074C12.0169 13.6452 11.8737 13.2741 11.6719 12.9941C11.4701 12.7077 11.1999 12.4961 10.8613 12.3594C10.5228 12.2227 10.1029 12.1543 9.60156 12.1543H7.00391V9.78125H9.60156C10.4219 9.78125 11.1673 9.91471 11.8379 10.1816C12.5085 10.4486 13.0846 10.8392 13.5664 11.3535C14.0482 11.8613 14.4193 12.4896 14.6797 13.2383C14.9401 13.987 15.0703 14.8398 15.0703 15.7969V17.9941C15.0703 18.9577 14.9401 19.8105 14.6797 20.5527C14.4193 21.2949 14.0482 21.9232 13.5664 22.4375C13.0911 22.9453 12.515 23.3327 11.8379 23.5996C11.1608 23.8665 10.4023 24 9.5625 24ZM8.71289 9.78125V24H5.85156V9.78125H8.71289ZM23 9.75195V24H20.2656V13.1113L17.5508 14.1562V11.8711L22.707 9.75195H23ZM28.293 9.78125H30.8027L33.7031 19.5078L36.5938 9.78125H38.8105L34.7676 24H32.6289L28.293 9.78125ZM27.2773 9.78125H29.6699L30.041 19.1562V24H27.2773V9.78125ZM37.7168 9.78125H40.1191V24H37.3652V19.1562L37.7168 9.78125Z" fill="white"/>
</g>
<path d="M9.95201 43.752C9.95201 43.7176 9.98563 43.7176 9.95201 43.752C9.95201 43.6144 10.0193 43.5801 10.0865 43.5457C10.2883 43.4769 10.4564 43.3394 10.6582 43.2019C10.6246 43.1675 10.6246 43.1675 10.6246 43.1331C10.5573 43.03 10.4564 42.9268 10.3892 42.8581C10.3219 42.7893 10.2883 42.7206 10.221 42.6862C10.1538 42.6174 10.0865 42.5831 9.98563 42.5831C9.8175 42.5487 9.61573 42.4799 9.44759 42.4455C9.38033 42.4112 9.31308 42.4112 9.24582 42.3768C9.11131 42.308 9.04405 42.2049 9.01043 42.033C8.9768 41.8611 8.9768 41.6892 9.01043 41.5517C9.04405 41.2423 9.07768 40.8985 9.11131 40.589C9.24582 39.5577 9.44759 38.5263 9.88475 37.5637C10.1201 37.0136 10.4228 36.5323 10.7591 36.051C11.2299 35.3634 11.8015 34.7102 12.3396 34.0913C12.5077 33.9195 12.6759 33.7476 12.8776 33.61C13.0458 33.5069 13.1803 33.3694 13.3148 33.2319C13.382 33.1631 13.4493 33.1287 13.5166 33.06C13.6511 32.9568 13.7856 32.9912 13.9201 33.1287C14.021 33.2319 14.0882 33.3694 14.1555 33.5413C14.1891 33.6444 14.2227 33.7819 14.2564 33.8851C14.29 33.9882 14.2564 34.057 14.2227 34.1601C14.1555 34.2976 14.0882 34.4008 13.9873 34.5039C13.6511 34.8477 13.3148 35.1915 12.9449 35.5353C12.844 35.6384 12.7431 35.7416 12.6422 35.8447C12.575 35.9135 12.5414 35.9478 12.4741 36.0166C12.3732 36.1541 12.3732 36.326 12.4741 36.4979C12.5077 36.5667 12.5414 36.601 12.6086 36.6698C12.8776 36.9792 13.2475 37.1855 13.6511 37.2543C13.9201 37.323 14.1891 37.323 14.4581 37.323C14.8617 37.323 15.2652 37.323 15.6687 37.2886C15.7024 37.2886 15.736 37.2886 15.8033 37.2886C16.0386 37.2543 16.2068 37.1167 16.274 36.8761C16.3413 36.7042 16.4086 36.5667 16.5431 36.4635C16.6103 36.3948 16.6776 36.3604 16.7448 36.326C17.451 35.9822 18.1572 35.6728 18.897 35.4665C19.4687 35.2946 20.0404 35.2259 20.612 35.2259C21.251 35.2259 21.8226 35.3634 22.4279 35.5697C23.235 35.8791 23.9748 36.326 24.6137 36.8761C24.9837 37.1855 25.2863 37.5293 25.6226 37.9075C25.7571 38.0794 25.8916 38.2169 25.9925 38.4231C26.0261 38.4919 26.0934 38.5607 26.127 38.6294C26.1943 38.6982 26.2615 38.7326 26.3288 38.7669C26.6314 38.8357 26.9677 38.8357 27.2703 38.7669C27.7411 38.6982 28.1783 38.5607 28.5818 38.2856C28.8509 38.1137 29.1199 37.8731 29.288 37.598C29.4562 37.323 29.6579 37.0824 29.7924 36.7729C29.8261 36.7042 29.8933 36.6354 29.9269 36.5667C30.0615 36.3948 30.2296 36.2916 30.465 36.2916C30.4986 36.2916 30.5659 36.2916 30.5995 36.2916C32.0119 36.2916 33.4242 36.2916 34.803 36.2916C35.3074 36.2916 35.8118 36.2916 36.3162 36.2916C36.4171 36.2916 36.5516 36.2916 36.6525 36.326C36.9552 36.3948 37.1569 36.6354 37.1906 36.9448C37.1906 37.1511 37.1906 37.3574 37.1569 37.5637C37.1233 37.8731 37.056 38.1825 37.0224 38.4919C36.9888 38.6638 36.9888 38.8357 36.9888 38.9732C36.9552 39.3514 36.8206 39.6952 36.6189 40.039C36.4507 40.3484 36.2153 40.6578 35.98 40.9328C35.7782 41.1391 35.61 41.3798 35.3747 41.5517C35.2401 41.6892 35.1056 41.8267 34.9711 41.9642C34.7694 42.2049 34.6012 42.4455 34.5003 42.7549C34.4331 42.8925 34.3994 43.03 34.3322 43.1331C34.2986 43.1675 34.3322 43.2363 34.3322 43.2706C34.3658 43.3394 34.4331 43.4082 34.534 43.4769C34.6012 43.5113 34.6012 43.5113 34.5676 43.5801C34.5676 43.6144 34.534 43.6488 34.534 43.7176C34.5676 43.7176 34.6012 43.752 34.6348 43.752C36.2826 44.2333 37.5268 45.5741 37.8967 47.293C38.3675 49.5621 37.1906 51.8311 35.1393 52.6562C34.534 52.8969 33.895 53 33.2561 53C31.7092 52.9312 30.2968 52.0718 29.5234 50.6966C29.5234 50.6622 29.4898 50.6622 29.4898 50.6278C29.4562 50.6622 29.4225 50.6966 29.3889 50.731C29.3553 50.7997 29.288 50.7997 29.2208 50.7997C27.4385 50.7997 25.6562 50.7997 23.9076 50.7997C21.2846 50.7997 18.6616 50.7997 16.0386 50.7997C15.9378 50.7997 15.8705 50.7653 15.7696 50.6966C15.7024 50.6278 15.6351 50.5934 15.5679 50.5247C15.5679 50.5591 15.5342 50.5591 15.5342 50.5934C14.8617 51.7623 13.8865 52.5187 12.6086 52.8281C12.1042 52.9656 11.5998 52.9656 11.0954 52.9312C9.21219 52.725 7.66531 51.3498 7.1609 49.4589C7.02638 48.8745 6.95913 48.3244 7.02638 47.74C7.22815 45.9866 8.33787 44.5083 9.91838 43.8895C9.91838 43.752 9.95201 43.752 9.95201 43.752ZM11.5325 51.1435C11.8688 51.1435 12.2051 51.0748 12.5413 50.9716C13.9201 50.4559 14.6935 48.9776 14.3573 47.4993C13.9873 45.8147 12.2723 44.8177 10.6918 45.3334C9.27945 45.7803 8.40513 47.293 8.7414 48.8057C9.01043 50.1465 10.1874 51.1435 11.5325 51.1435ZM33.4579 51.1435C33.7941 51.1435 34.1304 51.0748 34.4667 50.9716C35.8454 50.4559 36.6189 48.9432 36.2826 47.4649C35.8791 45.7803 34.1304 44.7833 32.4827 45.4022C31.1375 45.9179 30.3641 47.3274 30.6668 48.7713C30.9022 50.1465 32.0791 51.1435 33.4579 51.1435Z" fill="white" fill-opacity="0.5"/>
<defs>
<filter id="filter0_d_1_5319" x="-17" y="-17" width="89" height="104" filterUnits="userSpaceOnUse" color-interpolation-filters="sRGB">
<feFlood flood-opacity="0" result="BackgroundImageFix"/>
<feColorMatrix in="SourceAlpha" type="matrix" values="0 0 0 0 0 0 0 0 0 0 0 0 0 0 0 0 0 0 127 0" result="hardAlpha"/>
<feOffset dx="5" dy="5"/>
<feGaussianBlur stdDeviation="11"/>
<feComposite in2="hardAlpha" operator="out"/>
<feColorMatrix type="matrix" values="0 0 0 0 0.0392157 0 0 0 0 0.560784 0 0 0 0 0.309804 0 0 0 0.2 0"/>
<feBlend mode="normal" in2="BackgroundImageFix" result="effect1_dropShadow_1_5319"/>
<feBlend mode="normal" in="SourceGraphic" in2="effect1_dropShadow_1_5319" result="shape"/>
</filter>
<linearGradient id="paint0_linear_1_5319" x1="22.5" y1="60" x2="22.5" y2="3.17091e-07" gradientUnits="userSpaceOnUse">
<stop stop-color="#5CCC94"/>
<stop offset="1" stop-color="#8CCAAE"/>
</linearGradient>
</defs>
</svg>
