<svg width="45" height="60" viewBox="0 0 45 60" fill="none" xmlns="http://www.w3.org/2000/svg">
<g filter="url(#filter0_d_1_5331)">
<rect width="45" height="60" rx="5" fill="url(#paint0_linear_1_5331)" shape-rendering="crispEdges"/>
<path d="M16.6504 24H14.1406L14.1602 21.6367H16.6504C17.3405 21.6367 17.8776 21.513 18.2617 21.2656C18.6458 21.0182 18.916 20.6276 19.0723 20.0938C19.235 19.5599 19.3164 18.86 19.3164 17.9941V15.7773C19.3164 15.1198 19.2741 14.5632 19.1895 14.1074C19.1048 13.6452 18.9616 13.2741 18.7598 12.9941C18.5579 12.7077 18.2878 12.4961 17.9492 12.3594C17.6107 12.2227 17.1908 12.1543 16.6895 12.1543H14.0918V9.78125H16.6895C17.5098 9.78125 18.2552 9.91471 18.9258 10.1816C19.5964 10.4486 20.1725 10.8392 20.6543 11.3535C21.1361 11.8613 21.5072 12.4896 21.7676 13.2383C22.028 13.987 22.1582 14.8398 22.1582 15.7969V17.9941C22.1582 18.9577 22.028 19.8105 21.7676 20.5527C21.5072 21.2949 21.1361 21.9232 20.6543 22.4375C20.179 22.9453 19.6029 23.3327 18.9258 23.5996C18.2487 23.8665 17.4902 24 16.6504 24ZM15.8008 9.78125V24H12.9395V9.78125H15.8008ZM32.4023 21.7246V24H24.0234V22.0566L27.8711 17.1641C28.2422 16.6497 28.5319 16.2005 28.7402 15.8164C28.9486 15.4258 29.0983 15.0775 29.1895 14.7715C29.2806 14.459 29.3262 14.166 29.3262 13.8926C29.3262 13.4694 29.2773 13.1081 29.1797 12.8086C29.082 12.5026 28.9355 12.2682 28.7402 12.1055C28.5514 11.9362 28.3171 11.8516 28.0371 11.8516C27.6986 11.8516 27.4186 11.9557 27.1973 12.1641C26.9759 12.3724 26.8099 12.6589 26.6992 13.0234C26.5951 13.3815 26.543 13.7884 26.543 14.2441H23.7988C23.7988 13.3913 23.9714 12.61 24.3164 11.9004C24.668 11.1908 25.1595 10.6276 25.791 10.2109C26.429 9.78776 27.194 9.57617 28.0859 9.57617C28.9583 9.57617 29.6875 9.73893 30.2734 10.0645C30.8659 10.39 31.3118 10.8555 31.6113 11.4609C31.9173 12.0599 32.0703 12.776 32.0703 13.6094C32.0703 14.0846 32.0085 14.5469 31.8848 14.9961C31.7611 15.4388 31.5853 15.8815 31.3574 16.3242C31.1296 16.7604 30.8496 17.2064 30.5176 17.6621C30.1855 18.1178 29.8112 18.5898 29.3945 19.0781L27.5391 21.7246H32.4023Z" fill="white"/>
</g>
<path d="M16.2688 35.7465C16.2688 35.7841 16.2688 35.8592 16.2688 35.8967C16.2688 38.3756 16.2688 40.8545 16.2688 43.3334C16.2688 43.446 16.2688 43.5587 16.2688 43.6714C16.2688 44.0094 16.5397 44.2348 16.8494 44.2348C17.2364 44.2348 17.6234 44.2348 17.9718 44.2348C18.3201 44.2348 18.5523 44.0094 18.5523 43.6714C18.5523 43.2583 18.5523 42.8075 18.5523 42.3944C18.5523 38.4507 18.5523 34.5446 18.5523 30.6009C18.5523 30.5258 18.5523 30.4883 18.5523 30.4131C18.591 30.1502 18.8232 30 19.0941 30C19.1328 30 19.1715 30 19.2102 30C26.2542 30 33.2981 30 40.342 30C40.4195 30 40.4969 30 40.5743 30C40.8839 30.0751 41 30.338 41 30.5634C41 32.1409 41 33.7183 41 35.3333C41 40.554 41 45.8122 41 51.0329C41 51.2583 41 51.5212 40.9226 51.7465V51.7841C40.8452 52.1972 40.5743 52.4602 40.1485 52.4977C39.955 52.5353 39.8002 52.5353 39.6067 52.5353C38.9487 52.5353 38.2521 52.5353 37.5941 52.5353C37.5167 52.5353 37.4393 52.5353 37.4006 52.5353C37.3232 52.5353 37.3232 52.5353 37.3232 52.6104C37.2458 52.9109 37.1297 53.1738 36.9749 53.4367C36.2008 54.7888 35.0785 55.6151 33.5303 55.9156C31.0533 56.3663 28.6538 54.9766 27.8797 52.6104C27.8797 52.5728 27.841 52.5353 27.841 52.5353C24.3964 52.5353 20.9906 52.5353 17.546 52.5353C17.159 53.7371 16.4236 54.7137 15.3013 55.3522C14.4885 55.8029 13.5983 56.0282 12.6695 55.9907C11.5858 55.9531 10.6182 55.6151 9.76674 54.9766C8.91527 54.3381 8.37343 53.5118 8.0251 52.4977C7.9864 52.4977 7.9477 52.4977 7.909 52.4977C7.09623 52.4977 6.28347 52.4977 5.43201 52.4977C5.23849 52.4977 5.04498 52.4977 4.89017 52.4226C4.38703 52.2348 4.11611 51.8968 4.0387 51.4085C4.0387 51.3709 4.0387 51.2958 4.0387 51.2583C4.0387 49.831 4.0387 48.4038 4 46.9766C4 45.9625 4.0387 44.9484 4.07741 43.9343C4.07741 43.5963 4.11611 43.2958 4.15481 42.9578C4.30962 41.6057 4.69665 40.3662 5.50941 39.2395C6.51569 37.8873 7.79289 36.8733 9.37971 36.2348C9.80544 36.047 10.2312 35.9718 10.6956 35.8967C11.3149 35.8216 11.9728 35.7841 12.592 35.7465C13.7144 35.7089 14.8755 35.7089 15.9979 35.7465C16.0366 35.7465 16.1527 35.7465 16.2688 35.7465ZM15.6883 51.2207C15.6883 49.6432 14.3724 48.3662 12.7469 48.3662C11.1213 48.3662 9.80544 49.6432 9.80544 51.2207C9.80544 52.7982 11.1213 54.0752 12.7082 54.1127C14.3724 54.0752 15.6883 52.7982 15.6883 51.2207ZM35.5042 51.2207C35.5042 49.6432 34.1883 48.3662 32.5628 48.3662C30.9372 48.3662 29.6213 49.6432 29.6213 51.2207C29.6213 52.7982 30.9372 54.0752 32.5628 54.0752C34.1883 54.0752 35.5042 52.7982 35.5042 51.2207Z" fill="white" fill-opacity="0.5"/>
<defs>
<filter id="filter0_d_1_5331" x="-17" y="-17" width="89" height="104" filterUnits="userSpaceOnUse" color-interpolation-filters="sRGB">
<feFlood flood-opacity="0" result="BackgroundImageFix"/>
<feColorMatrix in="SourceAlpha" type="matrix" values="0 0 0 0 0 0 0 0 0 0 0 0 0 0 0 0 0 0 127 0" result="hardAlpha"/>
<feOffset dx="5" dy="5"/>
<feGaussianBlur stdDeviation="11"/>
<feComposite in2="hardAlpha" operator="out"/>
<feColorMatrix type="matrix" values="0 0 0 0 0.0392157 0 0 0 0 0.560784 0 0 0 0 0.309804 0 0 0 0.2 0"/>
<feBlend mode="normal" in2="BackgroundImageFix" result="effect1_dropShadow_1_5331"/>
<feBlend mode="normal" in="SourceGraphic" in2="effect1_dropShadow_1_5331" result="shape"/>
</filter>
<linearGradient id="paint0_linear_1_5331" x1="22.5" y1="60" x2="22.5" y2="3.17091e-07" gradientUnits="userSpaceOnUse">
<stop stop-color="#5CCC94"/>
<stop offset="1" stop-color="#8CCAAE"/>
</linearGradient>
</defs>
</svg>
