<svg  viewBox="0 0 28 28" fill="none" xmlns="http://www.w3.org/2000/svg">
<path d="M7.05251 2.13867L8.37898 3.02143L9.85491 2.43292L9.42521 3.9649L10.4434 5.19328L8.85072 5.254L8.00066 6.59915L7.44952 5.10921L5.9082 4.7122L7.15527 3.7267L7.05251 2.13867Z" fill="#F9CA0A"/>
<path d="M2.20898 7.12283L3.79701 7.22558L4.78719 5.97852L5.17952 7.51983L6.66946 8.07097L5.32431 8.92103L5.26359 10.5137L4.03521 9.49552L2.50324 9.92522L3.09641 8.44929L2.20898 7.12283Z" fill="#F9CA0A"/>
<path d="M0.507812 13.8574L1.93236 13.1568L2.16122 11.5781L3.27284 12.7178L4.84218 12.4515L4.10422 13.8574L4.84218 15.2679L3.27284 15.0017L2.16122 16.1414L1.93236 14.5627L0.507812 13.8574Z" fill="#F9CA0A"/>
<path d="M2.40039 20.5452L3.28314 19.2187L2.69464 17.7428L4.22662 18.1725L5.455 17.1543L5.51572 18.747L6.86087 19.5971L5.37093 20.1482L4.97392 21.6895L3.98841 20.4424L2.40039 20.5452Z" fill="#F9CA0A"/>
<path d="M7.38455 25.3882L7.4873 23.8002L6.24023 22.81L7.78155 22.4177L8.33269 20.9277L9.18275 22.2729L10.7754 22.3336L9.75724 23.562L10.1869 25.094L8.71101 24.5055L7.38455 25.3882Z" fill="#F9CA0A"/>
<path d="M14.1191 27.0902L13.4139 25.6657L11.8398 25.4368L12.9795 24.3252L12.7133 22.7559L14.1191 23.4938L15.5297 22.7559L15.2634 24.3252L16.4031 25.4368L14.8244 25.6657L14.1191 27.0902Z" fill="#F9CA0A"/>
<path d="M20.8069 25.1968L19.4804 24.314L18.0045 24.9026L18.4342 23.3706L17.416 22.1422L19.0087 22.0815L19.8588 20.7363L20.4099 22.2263L21.9512 22.6233L20.7042 23.6088L20.8069 25.1968Z" fill="#F9CA0A"/>
<path d="M25.6499 20.2132L24.0572 20.1104L23.0717 21.3575L22.6794 19.8162L21.1895 19.265L22.5346 18.415L22.5953 16.8223L23.8237 17.8405L25.3557 17.4108L24.7625 18.8867L25.6499 20.2132Z" fill="#F9CA0A"/>
<path d="M27.35 13.4793L25.9254 14.1845L25.6919 15.7585L24.585 14.6189L23.0156 14.8851L23.7536 13.4793L23.0156 12.0687L24.585 12.335L25.6919 11.1953L25.9254 12.774L27.35 13.4793Z" fill="#F9CA0A"/>
<path d="M25.4585 6.7908L24.5758 8.11726L25.1643 9.59319L23.6323 9.16349L22.4039 10.1817L22.3432 8.589L20.998 7.73894L22.488 7.1878L22.8803 5.64648L23.8705 6.89355L25.4585 6.7908Z" fill="#F9CA0A"/>
<path d="M20.4768 1.94727L20.3741 3.53529L21.6211 4.52547L20.0798 4.9178L19.5287 6.40774L18.6786 5.06259L17.0859 5.00187L18.1041 3.77349L17.6744 2.24152L19.1504 2.83469L20.4768 1.94727Z" fill="#F9CA0A"/>
<path d="M13.741 0.246094L14.4416 1.67064L16.0203 1.89951L14.8806 3.01112L15.1468 4.58513L13.741 3.8425L12.3304 4.58513L12.5967 3.01112L11.457 1.89951L13.0357 1.67064L13.741 0.246094Z" fill="#F9CA0A"/>
</svg>
