<svg width="45" height="60" viewBox="0 0 45 60" fill="none" xmlns="http://www.w3.org/2000/svg">
<g filter="url(#filter0_d_1_5310)">
<rect width="45" height="60" rx="5" fill="url(#paint0_linear_1_5310)" shape-rendering="crispEdges"/>
<path d="M24.3262 9.78125H27.1777V19.5469C27.1777 20.6406 26.9759 21.5326 26.5723 22.2227C26.1751 22.9062 25.625 23.4076 24.9219 23.7266C24.2188 24.0391 23.4147 24.1953 22.5098 24.1953C21.5983 24.1953 20.7878 24.0391 20.0781 23.7266C19.3685 23.4076 18.8151 22.9062 18.418 22.2227C18.0273 21.5326 17.832 20.6406 17.832 19.5469V9.78125H20.6836V19.5469C20.6836 20.1654 20.752 20.6406 20.8887 20.9727C21.0319 21.3047 21.237 21.5326 21.5039 21.6562C21.7773 21.7734 22.1126 21.832 22.5098 21.832C22.9134 21.832 23.2454 21.7734 23.5059 21.6562C23.7728 21.5326 23.9746 21.3047 24.1113 20.9727C24.2546 20.6406 24.3262 20.1654 24.3262 19.5469V9.78125Z" fill="white"/>
<path d="M28.7047 48.8705C24.9644 48.8705 21.2241 48.8705 17.444 48.9098C17.1654 50.1683 16.5288 51.2301 15.4544 52.0166C14.5791 52.6851 13.5843 52.9997 12.4702 52.9997C11.2366 52.9997 10.1623 52.6065 9.20733 51.8593C8.25236 51.0728 7.69529 50.0896 7.45654 48.9098C7.41675 48.9098 7.37696 48.9098 7.33717 48.9098C6.89948 48.9098 6.42199 48.9098 5.98429 48.9098C5.86492 48.9098 5.74555 48.9098 5.62618 48.8705C5.38743 48.7919 5.18848 48.6346 5.1089 48.3986C5.02932 48.202 4.98953 48.0053 4.98953 47.8087C4.98953 47.3368 4.94974 46.8256 4.98953 46.3537C4.98953 46.275 4.98953 46.157 4.94974 46.0391C4.90995 45.8817 4.79058 45.8031 4.63141 45.7638C4.55183 45.7638 4.47225 45.7638 4.43246 45.7638C4.23351 45.7638 4.07435 45.7638 3.87539 45.7638C3.71623 45.7638 3.51728 45.7638 3.35812 45.7638C3.11937 45.7638 3 45.6851 3 45.4098C3 45.0166 3 44.6233 3 44.2301C3 43.6795 3 43.1683 3 42.6177C3 42.5391 3 42.4604 3.03979 42.4211C3.07958 42.3031 3.15916 42.2244 3.31832 42.1851C3.39791 42.1851 3.51728 42.1851 3.59686 42.1851C3.91518 42.1851 4.23351 42.2244 4.51204 42.2638C4.59162 42.2638 4.63141 42.2638 4.71099 42.2638C4.87016 42.2244 4.98953 42.1065 5.02932 41.9492C5.02932 41.8705 5.02932 41.7919 5.02932 41.7132C5.02932 41.4773 5.02932 41.2413 5.02932 41.0447C5.02932 40.8874 5.02932 40.6907 5.02932 40.5334C5.02932 40.4548 5.02932 40.4155 5.02932 40.3368C5.06911 40.1795 5.14869 40.1008 5.30785 40.0615C5.38743 40.0615 5.46702 40.0615 5.5466 40.0615C7.49634 40.0615 9.48586 40.0615 11.4356 40.0615C14.4995 40.0615 17.5634 40.0615 20.5874 40.0615C24.2482 40.0615 27.9089 40.0615 31.5696 40.0615C34.6733 40.0615 37.7372 40.0615 40.8408 40.0615C40.8806 40.0615 40.9204 40.0615 40.9602 40.0615C40.9602 40.1008 40.9602 40.1402 40.9602 40.1795C40.9602 41.9098 40.9602 43.6795 40.9602 45.4098C40.9602 46.2357 40.9602 47.1008 40.9602 47.9267C40.9602 48.0447 40.9602 48.1626 40.9204 48.2806C40.8806 48.5952 40.6817 48.7525 40.3633 48.8312C40.244 48.8705 40.1246 48.8705 40.0052 48.8705C39.5675 48.8705 39.1696 48.8705 38.7319 48.8705C38.6921 48.8705 38.6921 48.8705 38.6524 48.8705C38.334 50.2862 37.578 51.4267 36.3047 52.2132C35.3895 52.7638 34.3948 52.9997 33.3204 52.9211C32.1665 52.8424 31.1717 52.4098 30.2963 51.6626C29.4607 50.9548 28.9435 50.011 28.7047 48.8705ZM33.7183 44.9379C32.0471 44.9379 30.6942 46.275 30.6942 47.9267C30.6942 49.5784 32.0471 50.9155 33.7183 50.9155C35.3895 50.9155 36.7424 49.5784 36.7424 47.9267C36.7026 46.275 35.3497 44.9379 33.7183 44.9379ZM15.4942 47.966C15.4942 46.393 14.2209 44.9773 12.4702 44.9773C10.799 44.9773 9.44607 46.3143 9.44607 47.966C9.44607 49.6177 10.799 50.9548 12.4702 50.9548C14.1414 50.9155 15.4942 49.6177 15.4942 47.966Z" fill="white" fill-opacity="0.5"/>
<path d="M4.94922 39.3146C4.94922 39.2753 4.94922 39.236 4.94922 39.236C4.94922 37.0337 4.94922 34.8315 4.94922 32.6292C4.94922 32.4326 5.0288 32.2753 5.14817 32.1573C5.26754 32.0787 5.38692 32 5.50629 32C5.54608 32 5.54608 32 5.58587 32C9.00786 32 12.4298 32 15.8518 32C15.9314 32 16.011 32 16.0906 32.0393C16.3293 32.118 16.4885 32.3146 16.5283 32.5899C16.5283 32.6292 16.5283 32.6685 16.5283 32.7079C16.5283 34.8708 16.5283 37.0337 16.5283 39.1966C16.5283 39.236 16.5283 39.2753 16.5283 39.3146C16.4885 39.3146 16.4885 39.3146 16.4487 39.3146C12.589 39.3146 8.76911 39.3146 4.94922 39.3146Z" fill="white" fill-opacity="0.5"/>
<path d="M17.2051 39.3146C17.2051 39.2753 17.2051 39.236 17.2051 39.1966C17.2051 36.9944 17.2051 34.8315 17.2051 32.6292C17.2051 32.5506 17.2051 32.4719 17.2449 32.3933C17.3244 32.1573 17.5234 32 17.8019 32H17.8417C21.2637 32 24.6857 32 28.1077 32C28.1873 32 28.2669 32 28.3464 32.0393C28.5852 32.118 28.7443 32.3146 28.7443 32.5506C28.7443 32.5899 28.7443 32.6292 28.7443 32.6685C28.7443 34.8315 28.7443 36.9944 28.7443 39.1966C28.7443 39.236 28.7443 39.2753 28.7443 39.3146C24.8847 39.3146 21.0648 39.3146 17.2051 39.3146Z" fill="white" fill-opacity="0.5"/>
<path d="M41.0002 39.3153C37.1405 39.3153 33.3206 39.3153 29.4609 39.3153C29.4609 39.276 29.4609 39.2367 29.4609 39.1973C29.4609 37.0344 29.4609 34.9108 29.4609 32.7479C29.4609 32.7086 29.4609 32.6299 29.4609 32.5906C29.4609 32.276 29.7395 32.04 30.0578 32.04H30.0976C33.5196 32.04 36.9416 32.04 40.3636 32.04C40.4431 32.04 40.5227 32.04 40.6023 32.0794C40.841 32.158 41.0002 32.3546 41.0002 32.5906C41.0002 32.6299 41.0002 32.6693 41.0002 32.7086C41.0002 34.8715 41.0002 37.0344 41.0002 39.1973C41.0002 39.2367 41.0002 39.276 41.0002 39.3153Z" fill="white" fill-opacity="0.5"/>
</g>
<defs>
<filter id="filter0_d_1_5310" x="-17" y="-17" width="98.0156" height="104" filterUnits="userSpaceOnUse" color-interpolation-filters="sRGB">
<feFlood flood-opacity="0" result="BackgroundImageFix"/>
<feColorMatrix in="SourceAlpha" type="matrix" values="0 0 0 0 0 0 0 0 0 0 0 0 0 0 0 0 0 0 127 0" result="hardAlpha"/>
<feOffset dx="5" dy="5"/>
<feGaussianBlur stdDeviation="11"/>
<feComposite in2="hardAlpha" operator="out"/>
<feColorMatrix type="matrix" values="0 0 0 0 0.0392157 0 0 0 0 0.560784 0 0 0 0 0.309804 0 0 0 0.2 0"/>
<feBlend mode="normal" in2="BackgroundImageFix" result="effect1_dropShadow_1_5310"/>
<feBlend mode="normal" in="SourceGraphic" in2="effect1_dropShadow_1_5310" result="shape"/>
</filter>
<linearGradient id="paint0_linear_1_5310" x1="22.5" y1="60" x2="22.5" y2="3.17091e-07" gradientUnits="userSpaceOnUse">
<stop stop-color="#5CCC94"/>
<stop offset="1" stop-color="#8CCAAE"/>
</linearGradient>
</defs>
</svg>
