<svg width="1013" height="86" viewBox="0 0 1013 86" fill="none" xmlns="http://www.w3.org/2000/svg">
<path d="M14.0625 59.0469L15.9424 66.2451L17.8154 59.0469H20.4404V69H18.4238V66.3066L18.6084 62.1572L16.6191 69H15.252L13.2627 62.1572L13.4473 66.3066V69H11.4375V59.0469H14.0625ZM25.4785 69C25.4238 68.8861 25.3691 68.6947 25.3145 68.4258C24.9681 68.8997 24.4987 69.1367 23.9062 69.1367C23.2865 69.1367 22.7715 68.9316 22.3613 68.5215C21.9557 68.1113 21.7529 67.5804 21.7529 66.9287C21.7529 66.154 21.999 65.5547 22.4912 65.1309C22.988 64.707 23.7012 64.4906 24.6309 64.4814H25.2188V63.8867C25.2188 63.554 25.1618 63.3193 25.0479 63.1826C24.9339 63.0459 24.7676 62.9775 24.5488 62.9775C24.0658 62.9775 23.8242 63.2601 23.8242 63.8252H21.8896C21.8896 63.1416 22.1449 62.5788 22.6553 62.1367C23.1702 61.6901 23.8197 61.4668 24.6035 61.4668C25.4147 61.4668 26.0413 61.6787 26.4834 62.1025C26.93 62.5218 27.1533 63.1234 27.1533 63.9072V67.3867C27.1624 68.0247 27.2536 68.5238 27.4268 68.8838V69H25.4785ZM24.3369 67.6191C24.5511 67.6191 24.7334 67.5758 24.8838 67.4893C25.0342 67.4027 25.1458 67.3001 25.2188 67.1816V65.6436H24.7539C24.4258 65.6436 24.166 65.7484 23.9746 65.958C23.7878 66.1676 23.6943 66.4479 23.6943 66.7988C23.6943 67.3457 23.9085 67.6191 24.3369 67.6191ZM30.8037 59.7852V61.6035H31.7949V63.0596H30.8037V66.7305C30.8037 67.0221 30.8424 67.2227 30.9199 67.332C31.002 67.4414 31.1569 67.4961 31.3848 67.4961C31.5716 67.4961 31.7243 67.4801 31.8428 67.4482L31.8291 68.9521C31.501 69.0752 31.1455 69.1367 30.7627 69.1367C29.514 69.1367 28.8828 68.4212 28.8691 66.9902V63.0596H28.0146V61.6035H28.8691V59.7852H30.8037ZM36.5117 63.4697L35.8691 63.415C35.3405 63.415 34.9827 63.6475 34.7959 64.1123V69H32.8545V61.6035H34.6797L34.7344 62.4033C35.0397 61.779 35.4613 61.4668 35.999 61.4668C36.2178 61.4668 36.3955 61.4964 36.5322 61.5557L36.5117 63.4697ZM39.54 69H37.5986V61.6035H39.54V69ZM37.5098 59.6895C37.5098 59.3887 37.6055 59.1426 37.7969 58.9512C37.9883 58.7598 38.2435 58.6641 38.5625 58.6641C38.8815 58.6641 39.1367 58.7598 39.3281 58.9512C39.5195 59.1426 39.6152 59.3887 39.6152 59.6895C39.6152 59.9857 39.5195 60.2318 39.3281 60.4277C39.1413 60.6237 38.8861 60.7217 38.5625 60.7217C38.2389 60.7217 37.9814 60.6237 37.79 60.4277C37.6032 60.2318 37.5098 59.9857 37.5098 59.6895ZM43.71 67.5303C44.2705 67.5303 44.5553 67.1657 44.5645 66.4365H46.3828C46.3737 67.2432 46.1253 67.8949 45.6377 68.3916C45.1501 68.8883 44.5212 69.1367 43.751 69.1367C42.7985 69.1367 42.0716 68.8405 41.5703 68.248C41.069 67.6556 40.8138 66.7829 40.8047 65.6299V65.042C40.8047 63.8799 41.0508 62.9935 41.543 62.3828C42.0397 61.7721 42.7712 61.4668 43.7373 61.4668C44.5531 61.4668 45.1956 61.7197 45.665 62.2256C46.1344 62.7269 46.3737 63.4401 46.3828 64.3652H44.5645C44.5599 63.9505 44.4915 63.6315 44.3594 63.4082C44.2272 63.1849 44.0085 63.0732 43.7031 63.0732C43.3659 63.0732 43.1243 63.194 42.9785 63.4355C42.8327 63.6725 42.7552 64.1351 42.7461 64.8232V65.5752C42.7461 66.1768 42.7757 66.5983 42.835 66.8398C42.8942 67.0768 42.9922 67.2523 43.1289 67.3662C43.2656 67.4756 43.4593 67.5303 43.71 67.5303ZM50.9902 69C50.9355 68.8861 50.8809 68.6947 50.8262 68.4258C50.4798 68.8997 50.0104 69.1367 49.418 69.1367C48.7982 69.1367 48.2832 68.9316 47.873 68.5215C47.4674 68.1113 47.2646 67.5804 47.2646 66.9287C47.2646 66.154 47.5107 65.5547 48.0029 65.1309C48.4997 64.707 49.2129 64.4906 50.1426 64.4814H50.7305V63.8867C50.7305 63.554 50.6735 63.3193 50.5596 63.1826C50.4456 63.0459 50.2793 62.9775 50.0605 62.9775C49.5775 62.9775 49.3359 63.2601 49.3359 63.8252H47.4014C47.4014 63.1416 47.6566 62.5788 48.167 62.1367C48.682 61.6901 49.3314 61.4668 50.1152 61.4668C50.9264 61.4668 51.5531 61.6787 51.9951 62.1025C52.4417 62.5218 52.665 63.1234 52.665 63.9072V67.3867C52.6742 68.0247 52.7653 68.5238 52.9385 68.8838V69H50.9902ZM49.8486 67.6191C50.0628 67.6191 50.2451 67.5758 50.3955 67.4893C50.5459 67.4027 50.6576 67.3001 50.7305 67.1816V65.6436H50.2656C49.9375 65.6436 49.6777 65.7484 49.4863 65.958C49.2995 66.1676 49.2061 66.4479 49.2061 66.7988C49.2061 67.3457 49.4202 67.6191 49.8486 67.6191ZM17.5762 73.7852V75.6035H18.5674V77.0596H17.5762V80.7305C17.5762 81.0221 17.6149 81.2227 17.6924 81.332C17.7744 81.4414 17.9294 81.4961 18.1572 81.4961C18.3441 81.4961 18.4967 81.4801 18.6152 81.4482L18.6016 82.9521C18.2734 83.0752 17.918 83.1367 17.5352 83.1367C16.2865 83.1367 15.6553 82.4212 15.6416 80.9902V77.0596H14.7871V75.6035H15.6416V73.7852H17.5762ZM21.7119 83H19.7773V75.6035H21.7119V83ZM21.1514 72.6025H23.3252L21.4248 74.7217H19.8115L21.1514 72.6025ZM29.0742 79.5342C29.0742 80.6963 28.8737 81.5872 28.4727 82.207C28.0762 82.8268 27.4837 83.1367 26.6953 83.1367C26.0938 83.1367 25.6107 82.8929 25.2461 82.4053V85.8438H23.3115V75.6035H25.1025L25.1709 76.2803C25.54 75.738 26.0436 75.4668 26.6816 75.4668C27.4701 75.4668 28.0625 75.7539 28.459 76.3281C28.86 76.9023 29.0651 77.7819 29.0742 78.9668V79.5342ZM27.1465 79.0488C27.1465 78.3333 27.0667 77.8275 26.9072 77.5312C26.7523 77.235 26.488 77.0869 26.1143 77.0869C25.7178 77.0869 25.4284 77.2533 25.2461 77.5859V81.0518C25.4193 81.3708 25.7132 81.5303 26.1279 81.5303C26.5107 81.5303 26.7751 81.3685 26.9209 81.0449C27.0713 80.7214 27.1465 80.2178 27.1465 79.5342V79.0488ZM33.8799 82.3232C33.4788 82.8656 32.9411 83.1367 32.2666 83.1367C31.5876 83.1367 31.0726 82.9043 30.7217 82.4395C30.3708 81.9701 30.1953 81.2887 30.1953 80.3955V75.6035H32.1299V80.4434C32.139 81.1634 32.3783 81.5234 32.8477 81.5234C33.2897 81.5234 33.6087 81.332 33.8047 80.9492V75.6035H35.7529V83H33.9346L33.8799 82.3232ZM40.4082 81.0176C40.4082 80.8535 40.3285 80.7031 40.1689 80.5664C40.014 80.4251 39.6654 80.236 39.123 79.999C38.3255 79.6755 37.7764 79.3405 37.4756 78.9941C37.1794 78.6478 37.0312 78.2171 37.0312 77.7021C37.0312 77.055 37.2637 76.5218 37.7285 76.1025C38.1979 75.6787 38.8177 75.4668 39.5879 75.4668C40.3991 75.4668 41.0485 75.6764 41.5361 76.0957C42.0238 76.515 42.2676 77.0778 42.2676 77.7842H40.333C40.333 77.1826 40.0824 76.8818 39.5811 76.8818C39.376 76.8818 39.2074 76.9456 39.0752 77.0732C38.943 77.2008 38.877 77.3786 38.877 77.6064C38.877 77.7705 38.9499 77.9163 39.0957 78.0439C39.2415 78.167 39.5856 78.3447 40.1279 78.5771C40.9163 78.8688 41.4723 79.1947 41.7959 79.5547C42.124 79.9102 42.2881 80.3727 42.2881 80.9424C42.2881 81.6032 42.0397 82.1341 41.543 82.5352C41.0462 82.9362 40.3945 83.1367 39.5879 83.1367C39.0456 83.1367 38.5671 83.0319 38.1523 82.8223C37.7376 82.6081 37.4118 82.3118 37.1748 81.9336C36.9424 81.5553 36.8262 81.1475 36.8262 80.71H38.665C38.6742 81.0472 38.7516 81.3001 38.8975 81.4688C39.0479 81.6374 39.2917 81.7217 39.6289 81.7217C40.1484 81.7217 40.4082 81.487 40.4082 81.0176ZM47.0049 83C46.9502 82.8861 46.8955 82.6947 46.8408 82.4258C46.4945 82.8997 46.0251 83.1367 45.4326 83.1367C44.8128 83.1367 44.2979 82.9316 43.8877 82.5215C43.4821 82.1113 43.2793 81.5804 43.2793 80.9287C43.2793 80.154 43.5254 79.5547 44.0176 79.1309C44.5143 78.707 45.2275 78.4906 46.1572 78.4814H46.7451V77.8867C46.7451 77.554 46.6882 77.3193 46.5742 77.1826C46.4603 77.0459 46.2939 76.9775 46.0752 76.9775C45.5921 76.9775 45.3506 77.2601 45.3506 77.8252H43.416C43.416 77.1416 43.6712 76.5788 44.1816 76.1367C44.6966 75.6901 45.346 75.4668 46.1299 75.4668C46.9411 75.4668 47.5677 75.6787 48.0098 76.1025C48.4564 76.5218 48.6797 77.1234 48.6797 77.9072V81.3867C48.6888 82.0247 48.7799 82.5238 48.9531 82.8838V83H47.0049ZM45.8633 81.6191C46.0775 81.6191 46.2598 81.5758 46.4102 81.4893C46.5605 81.4027 46.6722 81.3001 46.7451 81.1816V79.6436H46.2803C45.9521 79.6436 45.6924 79.7484 45.501 79.958C45.3141 80.1676 45.2207 80.4479 45.2207 80.7988C45.2207 81.3457 45.4349 81.6191 45.8633 81.6191Z" fill="url(#paint0_linear_1251_3730)"/>
<path d="M320.829 62.0469H324.021C324.687 62.0469 325.254 62.1608 325.724 62.3887C326.193 62.6165 326.553 62.9538 326.804 63.4004C327.054 63.847 327.18 64.3984 327.18 65.0547C327.18 65.5924 327.107 66.0527 326.961 66.4355C326.815 66.8138 326.608 67.1305 326.339 67.3857C326.07 67.6364 325.749 67.8369 325.375 67.9873L324.767 68.3496H322.176L322.169 66.6885H323.967C324.24 66.6885 324.466 66.6292 324.644 66.5107C324.826 66.3877 324.96 66.2168 325.047 65.998C325.138 65.7747 325.184 65.515 325.184 65.2188C325.184 64.9043 325.143 64.6354 325.061 64.4121C324.983 64.1842 324.858 64.0111 324.685 63.8926C324.516 63.7695 324.295 63.708 324.021 63.708H322.832V72H320.829V62.0469ZM325.348 72L323.522 67.5635L325.621 67.5566L327.487 71.9043V72H325.348ZM331.459 72.1367C330.953 72.1367 330.504 72.0592 330.112 71.9043C329.725 71.7493 329.397 71.526 329.128 71.2344C328.859 70.9382 328.654 70.5804 328.513 70.1611C328.371 69.7419 328.301 69.2633 328.301 68.7256V68.1172C328.301 67.5156 328.369 66.9893 328.506 66.5381C328.643 66.0824 328.836 65.6995 329.087 65.3896C329.338 65.0798 329.645 64.8496 330.01 64.6992C330.379 64.5443 330.796 64.4668 331.261 64.4668C331.726 64.4668 332.133 64.5443 332.484 64.6992C332.84 64.8496 333.134 65.0775 333.366 65.3828C333.599 65.6836 333.774 66.0573 333.893 66.5039C334.011 66.9505 334.07 67.4701 334.07 68.0625V68.9375H329.114V67.5908H332.19V67.4199C332.19 67.1191 332.159 66.8685 332.095 66.668C332.031 66.4629 331.931 66.3102 331.794 66.21C331.657 66.1097 331.475 66.0596 331.247 66.0596C331.056 66.0596 330.894 66.0983 330.762 66.1758C330.63 66.2533 330.525 66.374 330.447 66.5381C330.37 66.7021 330.313 66.9163 330.276 67.1807C330.24 67.4404 330.222 67.7526 330.222 68.1172V68.7256C330.222 69.0674 330.251 69.3545 330.311 69.5869C330.37 69.8148 330.456 70.0016 330.57 70.1475C330.689 70.2887 330.832 70.3913 331.001 70.4551C331.17 70.5143 331.366 70.5439 331.589 70.5439C331.926 70.5439 332.229 70.4847 332.498 70.3662C332.771 70.2432 333.004 70.0768 333.195 69.8672L333.961 71.0293C333.829 71.2025 333.646 71.3757 333.414 71.5488C333.182 71.722 332.904 71.8633 332.58 71.9727C332.257 72.082 331.883 72.1367 331.459 72.1367ZM337.058 66.1826V72H335.137V64.6035H336.935L337.058 66.1826ZM336.771 68.0488L336.258 68.0625C336.249 67.5065 336.301 67.0075 336.415 66.5654C336.534 66.1234 336.7 65.7474 336.914 65.4375C337.133 65.123 337.393 64.8838 337.693 64.7197C337.999 64.5511 338.338 64.4668 338.712 64.4668C338.999 64.4668 339.261 64.5169 339.498 64.6172C339.74 64.7174 339.947 64.877 340.12 65.0957C340.293 65.3145 340.428 65.6061 340.523 65.9707C340.619 66.3307 340.667 66.7728 340.667 67.2969V72H338.746V67.2832C338.746 66.9642 338.714 66.7181 338.65 66.5449C338.587 66.3672 338.491 66.2441 338.363 66.1758C338.236 66.1029 338.076 66.0664 337.885 66.0664C337.702 66.0664 337.541 66.1188 337.399 66.2236C337.258 66.3239 337.14 66.4629 337.044 66.6406C336.953 66.8184 336.882 67.028 336.832 67.2695C336.786 67.5111 336.766 67.7708 336.771 68.0488ZM345.65 70.3662V61.5H347.571V72L345.835 72.0068L345.65 70.3662ZM341.815 68.5615V68.0693C341.815 67.4678 341.866 66.9414 341.966 66.4902C342.071 66.0391 342.226 65.6631 342.431 65.3623C342.636 65.0615 342.886 64.8382 343.183 64.6924C343.483 64.542 343.827 64.4668 344.215 64.4668C344.566 64.4668 344.873 64.5557 345.138 64.7334C345.407 64.9066 345.634 65.1504 345.821 65.4648C346.008 65.7793 346.159 66.1507 346.272 66.5791C346.386 67.0075 346.466 67.4769 346.512 67.9873V68.6982C346.457 69.1813 346.373 69.6325 346.259 70.0518C346.149 70.471 345.999 70.8356 345.808 71.1455C345.621 71.4554 345.395 71.6992 345.131 71.877C344.867 72.0501 344.559 72.1367 344.208 72.1367C343.821 72.1367 343.477 72.0592 343.176 71.9043C342.88 71.7493 342.629 71.5215 342.424 71.2207C342.223 70.9154 342.071 70.5417 341.966 70.0996C341.866 69.653 341.815 69.1403 341.815 68.5615ZM343.729 68.0693V68.5615C343.729 68.9079 343.745 69.2064 343.777 69.457C343.814 69.7031 343.871 69.9059 343.948 70.0654C344.03 70.2204 344.137 70.3366 344.27 70.4141C344.402 70.487 344.566 70.5234 344.762 70.5234C345.017 70.5234 345.224 70.4596 345.384 70.332C345.543 70.1999 345.662 70.0199 345.739 69.792C345.821 69.5596 345.867 69.293 345.876 68.9922V67.7002C345.867 67.4495 345.837 67.224 345.787 67.0234C345.737 66.8229 345.666 66.652 345.575 66.5107C345.484 66.3695 345.37 66.2601 345.233 66.1826C345.101 66.1051 344.946 66.0664 344.769 66.0664C344.577 66.0664 344.413 66.1051 344.276 66.1826C344.144 66.2601 344.039 66.3809 343.962 66.5449C343.884 66.7044 343.825 66.9118 343.784 67.167C343.748 67.4176 343.729 67.7184 343.729 68.0693ZM352.295 70.0039C352.295 69.8763 352.252 69.7624 352.165 69.6621C352.078 69.5618 351.942 69.4593 351.755 69.3545C351.568 69.2451 351.32 69.1243 351.01 68.9922C350.673 68.8555 350.374 68.7142 350.114 68.5684C349.854 68.4225 349.633 68.2607 349.451 68.083C349.273 67.9053 349.139 67.7025 349.048 67.4746C348.957 67.2467 348.911 66.987 348.911 66.6953C348.911 66.3809 348.968 66.0915 349.082 65.8271C349.201 65.5583 349.369 65.3236 349.588 65.123C349.807 64.918 350.073 64.7585 350.388 64.6445C350.707 64.526 351.064 64.4668 351.461 64.4668C352.017 64.4668 352.493 64.5648 352.89 64.7607C353.291 64.9521 353.598 65.221 353.812 65.5674C354.027 65.9137 354.134 66.3171 354.134 66.7773H352.22C352.22 66.6133 352.195 66.4674 352.145 66.3398C352.094 66.2077 352.012 66.1051 351.898 66.0322C351.789 65.9593 351.641 65.9229 351.454 65.9229C351.317 65.9229 351.194 65.9525 351.085 66.0117C350.98 66.071 350.896 66.1507 350.832 66.251C350.773 66.3467 350.743 66.4606 350.743 66.5928C350.743 66.693 350.764 66.7819 350.805 66.8594C350.85 66.9368 350.921 67.012 351.017 67.085C351.112 67.1579 351.24 67.2354 351.399 67.3174C351.563 67.3949 351.764 67.4814 352.001 67.5771C352.493 67.7594 352.896 67.9554 353.211 68.165C353.53 68.3747 353.767 68.6208 353.922 68.9033C354.077 69.1813 354.154 69.5254 354.154 69.9355C354.154 70.2637 354.09 70.5622 353.963 70.8311C353.84 71.0999 353.66 71.3324 353.423 71.5283C353.186 71.7243 352.901 71.8747 352.568 71.9795C352.24 72.0843 351.873 72.1367 351.468 72.1367C350.871 72.1367 350.367 72.0182 349.957 71.7812C349.547 71.5443 349.237 71.2412 349.027 70.8721C348.818 70.4984 348.713 70.111 348.713 69.71H350.531C350.54 69.9561 350.586 70.1497 350.668 70.291C350.755 70.4277 350.871 70.5234 351.017 70.5781C351.162 70.6328 351.324 70.6602 351.502 70.6602C351.68 70.6602 351.826 70.6374 351.939 70.5918C352.058 70.5417 352.147 70.4665 352.206 70.3662C352.265 70.2614 352.295 70.1406 352.295 70.0039ZM360.43 70.4072V72H355.733V70.4072H360.43ZM360.382 65.7656L356.485 72H355.207V70.7969L359.083 64.6035H360.382V65.7656ZM359.712 64.6035V66.1963H355.282V64.6035H359.712ZM364.962 70.2979V66.8799C364.962 66.6566 364.935 66.4788 364.88 66.3467C364.83 66.2145 364.752 66.1188 364.647 66.0596C364.547 65.9958 364.424 65.9639 364.278 65.9639C364.114 65.9639 363.978 65.998 363.868 66.0664C363.759 66.1348 363.677 66.2327 363.622 66.3604C363.572 66.488 363.547 66.6406 363.547 66.8184H361.626C361.626 66.4993 361.688 66.1986 361.811 65.916C361.934 65.6289 362.114 65.3783 362.351 65.1641C362.592 64.9453 362.879 64.7744 363.212 64.6514C363.545 64.5283 363.918 64.4668 364.333 64.4668C364.825 64.4668 365.263 64.5511 365.646 64.7197C366.028 64.8838 366.331 65.1458 366.555 65.5059C366.778 65.8659 366.89 66.333 366.89 66.9072V70.2021C366.89 70.6169 366.91 70.9541 366.951 71.2139C366.997 71.4736 367.063 71.6969 367.149 71.8838V72H365.222C365.135 71.7949 365.069 71.5397 365.023 71.2344C364.982 70.9245 364.962 70.6123 364.962 70.2979ZM365.194 67.4814L365.201 68.6299H364.497C364.315 68.6299 364.155 68.6595 364.019 68.7188C363.886 68.778 363.775 68.8623 363.684 68.9717C363.592 69.0765 363.524 69.1995 363.479 69.3408C363.438 69.4821 363.417 69.6325 363.417 69.792C363.417 69.9697 363.442 70.1201 363.492 70.2432C363.542 70.3662 363.618 70.4596 363.718 70.5234C363.818 70.5872 363.937 70.6191 364.073 70.6191C364.283 70.6191 364.465 70.5758 364.62 70.4893C364.775 70.4027 364.889 70.2979 364.962 70.1748C365.039 70.0518 365.064 69.9378 365.037 69.833L365.475 70.5781C365.42 70.7467 365.345 70.9222 365.249 71.1045C365.158 71.2868 365.042 71.4554 364.9 71.6104C364.759 71.7653 364.584 71.8929 364.374 71.9932C364.169 72.0889 363.925 72.1367 363.643 72.1367C363.246 72.1367 362.884 72.0456 362.556 71.8633C362.228 71.681 361.968 71.4258 361.776 71.0977C361.59 70.7695 361.496 70.3799 361.496 69.9287C361.496 69.555 361.555 69.2178 361.674 68.917C361.797 68.6117 361.979 68.3542 362.221 68.1445C362.462 67.9303 362.768 67.7663 363.137 67.6523C363.506 67.5384 363.939 67.4814 364.436 67.4814H365.194ZM363.321 63.6123L364.661 61.5H366.814L364.928 63.6123H363.321ZM370.232 66.1348V72H368.312V64.6035H370.116L370.232 66.1348ZM369.959 68.0488L369.433 68.0625C369.424 67.543 369.469 67.0645 369.569 66.627C369.67 66.1895 369.82 65.8089 370.021 65.4854C370.226 65.1618 370.483 64.9111 370.793 64.7334C371.103 64.5557 371.465 64.4668 371.88 64.4668C372.149 64.4668 372.397 64.5169 372.625 64.6172C372.853 64.7129 373.051 64.8656 373.22 65.0752C373.388 65.2803 373.518 65.5492 373.609 65.8818C373.701 66.21 373.746 66.6042 373.746 67.0645V72H371.832V67.2969C371.832 66.9688 371.8 66.7181 371.736 66.5449C371.673 66.3672 371.581 66.2441 371.463 66.1758C371.344 66.1029 371.199 66.0664 371.025 66.0664C370.843 66.0664 370.684 66.1165 370.547 66.2168C370.41 66.3171 370.299 66.4583 370.212 66.6406C370.13 66.8184 370.066 67.028 370.021 67.2695C369.979 67.5111 369.959 67.7708 369.959 68.0488ZM373.562 67.8574L372.871 67.9463C372.862 67.4587 372.905 67.0052 373.001 66.5859C373.097 66.1621 373.245 65.793 373.445 65.4785C373.646 65.1595 373.896 64.9111 374.197 64.7334C374.503 64.5557 374.856 64.4668 375.257 64.4668C375.558 64.4668 375.831 64.5169 376.077 64.6172C376.323 64.7174 376.533 64.8792 376.706 65.1025C376.884 65.3213 377.018 65.6107 377.109 65.9707C377.205 66.3307 377.253 66.7682 377.253 67.2832V72H375.332V67.29C375.332 66.9574 375.3 66.7021 375.236 66.5244C375.173 66.3467 375.081 66.2259 374.963 66.1621C374.844 66.0983 374.703 66.0664 374.539 66.0664C374.375 66.0664 374.231 66.112 374.108 66.2031C373.99 66.2943 373.89 66.4219 373.808 66.5859C373.726 66.7454 373.664 66.9346 373.623 67.1533C373.582 67.3675 373.562 67.6022 373.562 67.8574Z" fill="#E0E0E9"/>
<path d="M645.357 69.3887C645.357 68.9831 645.253 68.6777 645.043 68.4727C644.838 68.263 644.462 68.0465 643.915 67.8232C642.917 67.445 642.199 67.0029 641.762 66.4971C641.324 65.9867 641.105 65.3851 641.105 64.6924C641.105 63.8538 641.402 63.1816 641.994 62.6758C642.591 62.1654 643.348 61.9102 644.264 61.9102C644.874 61.9102 645.419 62.04 645.897 62.2998C646.376 62.555 646.743 62.9173 646.998 63.3867C647.258 63.8561 647.388 64.3893 647.388 64.9863H645.385C645.385 64.5215 645.285 64.1683 645.084 63.9268C644.888 63.6807 644.603 63.5576 644.229 63.5576C643.879 63.5576 643.605 63.6624 643.409 63.8721C643.213 64.0771 643.115 64.3551 643.115 64.7061C643.115 64.9795 643.225 65.2279 643.443 65.4512C643.662 65.6699 644.049 65.8978 644.605 66.1348C645.576 66.4857 646.28 66.9163 646.718 67.4268C647.16 67.9372 647.381 68.5866 647.381 69.375C647.381 70.2409 647.105 70.9176 646.554 71.4053C646.002 71.8929 645.253 72.1367 644.305 72.1367C643.662 72.1367 643.076 72.0046 642.548 71.7402C642.019 71.4759 641.604 71.0977 641.304 70.6055C641.007 70.1133 640.859 69.5322 640.859 68.8623H642.876C642.876 69.4365 642.988 69.8535 643.211 70.1133C643.434 70.373 643.799 70.5029 644.305 70.5029C645.007 70.5029 645.357 70.1315 645.357 69.3887ZM650.758 70.3936H653.684V72H648.461V70.79L651.318 66.2168H648.529V64.6035H653.643V65.7725L650.758 70.3936ZM658.476 72C658.421 71.8861 658.366 71.6947 658.312 71.4258C657.965 71.8997 657.496 72.1367 656.903 72.1367C656.284 72.1367 655.769 71.9316 655.358 71.5215C654.953 71.1113 654.75 70.5804 654.75 69.9287C654.75 69.154 654.996 68.5547 655.488 68.1309C655.985 67.707 656.698 67.4906 657.628 67.4814H658.216V66.8867C658.216 66.554 658.159 66.3193 658.045 66.1826C657.931 66.0459 657.765 65.9775 657.546 65.9775C657.063 65.9775 656.821 66.2601 656.821 66.8252H654.887C654.887 66.1416 655.142 65.5788 655.652 65.1367C656.167 64.6901 656.817 64.4668 657.601 64.4668C658.412 64.4668 659.038 64.6787 659.48 65.1025C659.927 65.5218 660.15 66.1234 660.15 66.9072V70.3867C660.16 71.0247 660.251 71.5238 660.424 71.8838V72H658.476ZM657.334 70.6191C657.548 70.6191 657.73 70.5758 657.881 70.4893C658.031 70.4027 658.143 70.3001 658.216 70.1816V68.6436H657.751C657.423 68.6436 657.163 68.7484 656.972 68.958C656.785 69.1676 656.691 69.4479 656.691 69.7988C656.691 70.3457 656.906 70.6191 657.334 70.6191ZM657.915 61.5H660.089L658.188 63.6191H656.575L657.915 61.5ZM663.37 64.6035L663.425 65.2871C663.858 64.7402 664.43 64.4668 665.141 64.4668C665.879 64.4668 666.401 64.7995 666.706 65.4648C667.13 64.7995 667.734 64.4668 668.518 64.4668C669.812 64.4668 670.475 65.3623 670.507 67.1533V72H668.572V67.2764C668.572 66.848 668.513 66.5426 668.395 66.3604C668.276 66.1781 668.076 66.0869 667.793 66.0869C667.433 66.0869 667.164 66.3079 666.986 66.75L667 66.9824V72H665.065V67.29C665.065 66.8662 665.008 66.5609 664.895 66.374C664.781 66.1826 664.578 66.0869 664.286 66.0869C663.953 66.0869 663.689 66.2669 663.493 66.627V72H661.559V64.6035H663.37ZM673.973 72H672.031V61.5H673.973V72ZM678.983 72C678.929 71.8861 678.874 71.6947 678.819 71.4258C678.473 71.8997 678.004 72.1367 677.411 72.1367C676.791 72.1367 676.276 71.9316 675.866 71.5215C675.461 71.1113 675.258 70.5804 675.258 69.9287C675.258 69.154 675.504 68.5547 675.996 68.1309C676.493 67.707 677.206 67.4906 678.136 67.4814H678.724V66.8867C678.724 66.554 678.667 66.3193 678.553 66.1826C678.439 66.0459 678.272 65.9775 678.054 65.9775C677.571 65.9775 677.329 66.2601 677.329 66.8252H675.395C675.395 66.1416 675.65 65.5788 676.16 65.1367C676.675 64.6901 677.325 64.4668 678.108 64.4668C678.92 64.4668 679.546 64.6787 679.988 65.1025C680.435 65.5218 680.658 66.1234 680.658 66.9072V70.3867C680.667 71.0247 680.758 71.5238 680.932 71.8838V72H678.983ZM677.842 70.6191C678.056 70.6191 678.238 70.5758 678.389 70.4893C678.539 70.4027 678.651 70.3001 678.724 70.1816V68.6436H678.259C677.931 68.6436 677.671 68.7484 677.479 68.958C677.293 69.1676 677.199 69.4479 677.199 69.7988C677.199 70.3457 677.413 70.6191 677.842 70.6191ZM678.423 61.5H680.597L678.696 63.6191H677.083L678.423 61.5ZM684.199 70.3936H687.125V72H681.902V70.79L684.76 66.2168H681.971V64.6035H687.084V65.7725L684.199 70.3936ZM691.917 72C691.862 71.8861 691.808 71.6947 691.753 71.4258C691.407 71.8997 690.937 72.1367 690.345 72.1367C689.725 72.1367 689.21 71.9316 688.8 71.5215C688.394 71.1113 688.191 70.5804 688.191 69.9287C688.191 69.154 688.438 68.5547 688.93 68.1309C689.426 67.707 690.14 67.4906 691.069 67.4814H691.657V66.8867C691.657 66.554 691.6 66.3193 691.486 66.1826C691.372 66.0459 691.206 65.9775 690.987 65.9775C690.504 65.9775 690.263 66.2601 690.263 66.8252H688.328C688.328 66.1416 688.583 65.5788 689.094 65.1367C689.609 64.6901 690.258 64.4668 691.042 64.4668C691.853 64.4668 692.48 64.6787 692.922 65.1025C693.368 65.5218 693.592 66.1234 693.592 66.9072V70.3867C693.601 71.0247 693.692 71.5238 693.865 71.8838V72H691.917ZM690.775 70.6191C690.99 70.6191 691.172 70.5758 691.322 70.4893C691.473 70.4027 691.584 70.3001 691.657 70.1816V68.6436H691.192C690.864 68.6436 690.604 68.7484 690.413 68.958C690.226 69.1676 690.133 69.4479 690.133 69.7988C690.133 70.3457 690.347 70.6191 690.775 70.6191ZM691.356 61.5H693.53L691.63 63.6191H690.017L691.356 61.5ZM698.268 70.0176C698.268 69.8535 698.188 69.7031 698.028 69.5664C697.873 69.4251 697.525 69.236 696.982 68.999C696.185 68.6755 695.636 68.3405 695.335 67.9941C695.039 67.6478 694.891 67.2171 694.891 66.7021C694.891 66.055 695.123 65.5218 695.588 65.1025C696.057 64.6787 696.677 64.4668 697.447 64.4668C698.258 64.4668 698.908 64.6764 699.396 65.0957C699.883 65.515 700.127 66.0778 700.127 66.7842H698.192C698.192 66.1826 697.942 65.8818 697.44 65.8818C697.235 65.8818 697.067 65.9456 696.935 66.0732C696.802 66.2008 696.736 66.3786 696.736 66.6064C696.736 66.7705 696.809 66.9163 696.955 67.0439C697.101 67.167 697.445 67.3447 697.987 67.5771C698.776 67.8688 699.332 68.1947 699.655 68.5547C699.983 68.9102 700.147 69.3727 700.147 69.9424C700.147 70.6032 699.899 71.1341 699.402 71.5352C698.906 71.9362 698.254 72.1367 697.447 72.1367C696.905 72.1367 696.426 72.0319 696.012 71.8223C695.597 71.6081 695.271 71.3118 695.034 70.9336C694.802 70.5553 694.686 70.1475 694.686 69.71H696.524C696.534 70.0472 696.611 70.3001 696.757 70.4688C696.907 70.6374 697.151 70.7217 697.488 70.7217C698.008 70.7217 698.268 70.487 698.268 70.0176Z" fill="#E0E0E9"/>
<path d="M954.312 67.3457V69H949.984V67.3457H954.312ZM950.606 59.0469V69H948.604V59.0469H950.606ZM953.73 63.0801V64.6865H949.984V63.0801H953.73ZM954.298 59.0469V60.708H949.984V59.0469H954.298ZM957.395 58.5V69H955.474V58.5H957.395ZM960.922 58.5V69H959.001V58.5H960.922ZM965.42 69.1367C964.914 69.1367 964.465 69.0592 964.073 68.9043C963.686 68.7493 963.358 68.526 963.089 68.2344C962.82 67.9382 962.615 67.5804 962.474 67.1611C962.332 66.7419 962.262 66.2633 962.262 65.7256V65.1172C962.262 64.5156 962.33 63.9893 962.467 63.5381C962.604 63.0824 962.797 62.6995 963.048 62.3896C963.299 62.0798 963.606 61.8496 963.971 61.6992C964.34 61.5443 964.757 61.4668 965.222 61.4668C965.687 61.4668 966.094 61.5443 966.445 61.6992C966.801 61.8496 967.095 62.0775 967.327 62.3828C967.56 62.6836 967.735 63.0573 967.854 63.5039C967.972 63.9505 968.031 64.4701 968.031 65.0625V65.9375H963.075V64.5908H966.151V64.4199C966.151 64.1191 966.119 63.8685 966.056 63.668C965.992 63.4629 965.892 63.3102 965.755 63.21C965.618 63.1097 965.436 63.0596 965.208 63.0596C965.017 63.0596 964.855 63.0983 964.723 63.1758C964.59 63.2533 964.486 63.374 964.408 63.5381C964.331 63.7021 964.274 63.9163 964.237 64.1807C964.201 64.4404 964.183 64.7526 964.183 65.1172V65.7256C964.183 66.0674 964.212 66.3545 964.271 66.5869C964.331 66.8148 964.417 67.0016 964.531 67.1475C964.65 67.2887 964.793 67.3913 964.962 67.4551C965.131 67.5143 965.326 67.5439 965.55 67.5439C965.887 67.5439 966.19 67.4847 966.459 67.3662C966.732 67.2432 966.965 67.0768 967.156 66.8672L967.922 68.0293C967.79 68.2025 967.607 68.3757 967.375 68.5488C967.143 68.722 966.865 68.8633 966.541 68.9727C966.217 69.082 965.844 69.1367 965.42 69.1367ZM971.019 63.1826V69H969.098V61.6035H970.896L971.019 63.1826ZM970.731 65.0488L970.219 65.0625C970.21 64.5065 970.262 64.0075 970.376 63.5654C970.494 63.1234 970.661 62.7474 970.875 62.4375C971.094 62.123 971.354 61.8838 971.654 61.7197C971.96 61.5511 972.299 61.4668 972.673 61.4668C972.96 61.4668 973.222 61.5169 973.459 61.6172C973.701 61.7174 973.908 61.877 974.081 62.0957C974.254 62.3145 974.389 62.6061 974.484 62.9707C974.58 63.3307 974.628 63.7728 974.628 64.2969V69H972.707V64.2832C972.707 63.9642 972.675 63.7181 972.611 63.5449C972.548 63.3672 972.452 63.2441 972.324 63.1758C972.197 63.1029 972.037 63.0664 971.846 63.0664C971.663 63.0664 971.502 63.1188 971.36 63.2236C971.219 63.3239 971.101 63.4629 971.005 63.6406C970.914 63.8184 970.843 64.028 970.793 64.2695C970.747 64.5111 970.727 64.7708 970.731 65.0488ZM975.811 65.5547V65.0557C975.811 64.4769 975.879 63.9642 976.016 63.5176C976.157 63.071 976.357 62.6973 976.617 62.3965C976.877 62.0911 977.189 61.861 977.554 61.7061C977.923 61.5465 978.335 61.4668 978.791 61.4668C979.251 61.4668 979.664 61.5465 980.028 61.7061C980.397 61.861 980.712 62.0911 980.972 62.3965C981.236 62.6973 981.439 63.071 981.58 63.5176C981.721 63.9642 981.792 64.4769 981.792 65.0557V65.5547C981.792 66.1289 981.721 66.6393 981.58 67.0859C981.439 67.5326 981.236 67.9085 980.972 68.2139C980.712 68.5192 980.4 68.7493 980.035 68.9043C979.671 69.0592 979.26 69.1367 978.805 69.1367C978.349 69.1367 977.937 69.0592 977.567 68.9043C977.203 68.7493 976.888 68.5192 976.624 68.2139C976.36 67.9085 976.157 67.5326 976.016 67.0859C975.879 66.6393 975.811 66.1289 975.811 65.5547ZM977.725 65.0557V65.5547C977.725 65.8965 977.747 66.1927 977.793 66.4434C977.843 66.694 977.914 66.9014 978.005 67.0654C978.101 67.2295 978.215 67.3503 978.347 67.4277C978.479 67.5052 978.632 67.5439 978.805 67.5439C978.978 67.5439 979.133 67.5052 979.27 67.4277C979.406 67.3503 979.518 67.2295 979.604 67.0654C979.696 66.9014 979.762 66.694 979.803 66.4434C979.848 66.1927 979.871 65.8965 979.871 65.5547V65.0557C979.871 64.723 979.846 64.4313 979.796 64.1807C979.746 63.9255 979.675 63.7181 979.584 63.5586C979.493 63.3945 979.379 63.2715 979.242 63.1895C979.11 63.1029 978.96 63.0596 978.791 63.0596C978.622 63.0596 978.472 63.1029 978.34 63.1895C978.212 63.2715 978.101 63.3945 978.005 63.5586C977.914 63.7181 977.843 63.9255 977.793 64.1807C977.747 64.4313 977.725 64.723 977.725 65.0557ZM979.051 60.5645L980.274 58.5068H981.949L980.445 60.5645H979.051ZM976.884 60.5645L977.902 58.5068H979.563L978.258 60.5645H976.884ZM984.916 63.251V69H983.002V61.6035H984.807L984.916 63.251ZM986.659 61.5488L986.632 63.4561C986.545 63.4378 986.44 63.4242 986.317 63.415C986.199 63.4059 986.094 63.4014 986.003 63.4014C985.789 63.4014 985.606 63.4355 985.456 63.5039C985.306 63.5677 985.18 63.6657 985.08 63.7979C984.984 63.9255 984.911 64.085 984.861 64.2764C984.811 64.4678 984.782 64.6842 984.772 64.9258L984.41 64.7891C984.41 64.306 984.447 63.8639 984.52 63.4629C984.597 63.0573 984.711 62.7064 984.861 62.4102C985.012 62.1094 985.192 61.877 985.401 61.7129C985.616 61.5488 985.857 61.4668 986.126 61.4668C986.217 61.4668 986.313 61.4759 986.413 61.4941C986.518 61.5078 986.6 61.526 986.659 61.5488ZM992.695 67.4072V69H987.999V67.4072H992.695ZM992.647 62.7656L988.751 69H987.473V67.7969L991.349 61.6035H992.647V62.7656ZM991.978 61.6035V63.1963H987.548V61.6035H991.978ZM996.838 69.1367C996.332 69.1367 995.883 69.0592 995.491 68.9043C995.104 68.7493 994.776 68.526 994.507 68.2344C994.238 67.9382 994.033 67.5804 993.892 67.1611C993.75 66.7419 993.68 66.2633 993.68 65.7256V65.1172C993.68 64.5156 993.748 63.9893 993.885 63.5381C994.021 63.0824 994.215 62.6995 994.466 62.3896C994.716 62.0798 995.024 61.8496 995.389 61.6992C995.758 61.5443 996.175 61.4668 996.64 61.4668C997.104 61.4668 997.512 61.5443 997.863 61.6992C998.219 61.8496 998.513 62.0775 998.745 62.3828C998.978 62.6836 999.153 63.0573 999.271 63.5039C999.39 63.9505 999.449 64.4701 999.449 65.0625V65.9375H994.493V64.5908H997.569V64.4199C997.569 64.1191 997.537 63.8685 997.474 63.668C997.41 63.4629 997.31 63.3102 997.173 63.21C997.036 63.1097 996.854 63.0596 996.626 63.0596C996.435 63.0596 996.273 63.0983 996.141 63.1758C996.008 63.2533 995.904 63.374 995.826 63.5381C995.749 63.7021 995.692 63.9163 995.655 64.1807C995.619 64.4404 995.601 64.7526 995.601 65.1172V65.7256C995.601 66.0674 995.63 66.3545 995.689 66.5869C995.749 66.8148 995.835 67.0016 995.949 67.1475C996.068 67.2887 996.211 67.3913 996.38 67.4551C996.549 67.5143 996.744 67.5439 996.968 67.5439C997.305 67.5439 997.608 67.4847 997.877 67.3662C998.15 67.2432 998.383 67.0768 998.574 66.8672L999.34 68.0293C999.208 68.2025 999.025 68.3757 998.793 68.5488C998.561 68.722 998.283 68.8633 997.959 68.9727C997.635 69.082 997.262 69.1367 996.838 69.1367ZM995.443 60.6055L996.783 58.4932H998.937L997.05 60.6055H995.443ZM1003.84 67.0039C1003.84 66.8763 1003.79 66.7624 1003.71 66.6621C1003.62 66.5618 1003.48 66.4593 1003.3 66.3545C1003.11 66.2451 1002.86 66.1243 1002.55 65.9922C1002.22 65.8555 1001.92 65.7142 1001.66 65.5684C1001.4 65.4225 1001.18 65.2607 1000.99 65.083C1000.82 64.9053 1000.68 64.7025 1000.59 64.4746C1000.5 64.2467 1000.45 63.987 1000.45 63.6953C1000.45 63.3809 1000.51 63.0915 1000.62 62.8271C1000.74 62.5583 1000.91 62.3236 1001.13 62.123C1001.35 61.918 1001.62 61.7585 1001.93 61.6445C1002.25 61.526 1002.61 61.4668 1003 61.4668C1003.56 61.4668 1004.04 61.5648 1004.43 61.7607C1004.83 61.9521 1005.14 62.221 1005.36 62.5674C1005.57 62.9137 1005.68 63.3171 1005.68 63.7773H1003.76C1003.76 63.6133 1003.74 63.4674 1003.69 63.3398C1003.64 63.2077 1003.56 63.1051 1003.44 63.0322C1003.33 62.9593 1003.18 62.9229 1003 62.9229C1002.86 62.9229 1002.74 62.9525 1002.63 63.0117C1002.52 63.071 1002.44 63.1507 1002.38 63.251C1002.32 63.3467 1002.29 63.4606 1002.29 63.5928C1002.29 63.693 1002.31 63.7819 1002.35 63.8594C1002.39 63.9368 1002.46 64.012 1002.56 64.085C1002.66 64.1579 1002.78 64.2354 1002.94 64.3174C1003.11 64.3949 1003.31 64.4814 1003.54 64.5771C1004.04 64.7594 1004.44 64.9554 1004.75 65.165C1005.07 65.3747 1005.31 65.6208 1005.46 65.9033C1005.62 66.1813 1005.7 66.5254 1005.7 66.9355C1005.7 67.2637 1005.63 67.5622 1005.51 67.8311C1005.38 68.0999 1005.2 68.3324 1004.97 68.5283C1004.73 68.7243 1004.44 68.8747 1004.11 68.9795C1003.78 69.0843 1003.42 69.1367 1003.01 69.1367C1002.41 69.1367 1001.91 69.0182 1001.5 68.7812C1001.09 68.5443 1000.78 68.2412 1000.57 67.8721C1000.36 67.4984 1000.26 67.111 1000.26 66.71H1002.07C1002.08 66.9561 1002.13 67.1497 1002.21 67.291C1002.3 67.4277 1002.41 67.5234 1002.56 67.5781C1002.71 67.6328 1002.87 67.6602 1003.04 67.6602C1003.22 67.6602 1003.37 67.6374 1003.48 67.5918C1003.6 67.5417 1003.69 67.4665 1003.75 67.3662C1003.81 67.2614 1003.84 67.1406 1003.84 67.0039ZM953.601 83.1367C953.095 83.1367 952.646 83.0592 952.254 82.9043C951.867 82.7493 951.538 82.526 951.27 82.2344C951.001 81.9382 950.796 81.5804 950.654 81.1611C950.513 80.7419 950.442 80.2633 950.442 79.7256V79.1172C950.442 78.5156 950.511 77.9893 950.647 77.5381C950.784 77.0824 950.978 76.6995 951.229 76.3896C951.479 76.0798 951.787 75.8496 952.151 75.6992C952.521 75.5443 952.938 75.4668 953.402 75.4668C953.867 75.4668 954.275 75.5443 954.626 75.6992C954.981 75.8496 955.275 76.0775 955.508 76.3828C955.74 76.6836 955.916 77.0573 956.034 77.5039C956.153 77.9505 956.212 78.4701 956.212 79.0625V79.9375H951.256V78.5908H954.332V78.4199C954.332 78.1191 954.3 77.8685 954.236 77.668C954.173 77.4629 954.072 77.3102 953.936 77.21C953.799 77.1097 953.617 77.0596 953.389 77.0596C953.197 77.0596 953.035 77.0983 952.903 77.1758C952.771 77.2533 952.666 77.374 952.589 77.5381C952.511 77.7021 952.454 77.9163 952.418 78.1807C952.382 78.4404 952.363 78.7526 952.363 79.1172V79.7256C952.363 80.0674 952.393 80.3545 952.452 80.5869C952.511 80.8148 952.598 81.0016 952.712 81.1475C952.83 81.2887 952.974 81.3913 953.143 81.4551C953.311 81.5143 953.507 81.5439 953.73 81.5439C954.068 81.5439 954.371 81.4847 954.64 81.3662C954.913 81.2432 955.146 81.0768 955.337 80.8672L956.103 82.0293C955.97 82.2025 955.788 82.3757 955.556 82.5488C955.323 82.722 955.045 82.8633 954.722 82.9727C954.398 83.082 954.024 83.1367 953.601 83.1367ZM952.206 74.6055L953.546 72.4932H955.699L953.812 74.6055H952.206ZM960.601 81.0039C960.601 80.8763 960.557 80.7624 960.471 80.6621C960.384 80.5618 960.247 80.4593 960.061 80.3545C959.874 80.2451 959.625 80.1243 959.315 79.9922C958.978 79.8555 958.68 79.7142 958.42 79.5684C958.16 79.4225 957.939 79.2607 957.757 79.083C957.579 78.9053 957.445 78.7025 957.354 78.4746C957.262 78.2467 957.217 77.987 957.217 77.6953C957.217 77.3809 957.274 77.0915 957.388 76.8271C957.506 76.5583 957.675 76.3236 957.894 76.123C958.112 75.918 958.379 75.7585 958.693 75.6445C959.012 75.526 959.37 75.4668 959.767 75.4668C960.323 75.4668 960.799 75.5648 961.195 75.7607C961.596 75.9521 961.904 76.221 962.118 76.5674C962.332 76.9137 962.439 77.3171 962.439 77.7773H960.525C960.525 77.6133 960.5 77.4674 960.45 77.3398C960.4 77.2077 960.318 77.1051 960.204 77.0322C960.095 76.9593 959.947 76.9229 959.76 76.9229C959.623 76.9229 959.5 76.9525 959.391 77.0117C959.286 77.071 959.201 77.1507 959.138 77.251C959.078 77.3467 959.049 77.4606 959.049 77.5928C959.049 77.693 959.069 77.7819 959.11 77.8594C959.156 77.9368 959.227 78.012 959.322 78.085C959.418 78.1579 959.546 78.2354 959.705 78.3174C959.869 78.3949 960.07 78.4814 960.307 78.5771C960.799 78.7594 961.202 78.9554 961.517 79.165C961.836 79.3747 962.073 79.6208 962.228 79.9033C962.382 80.1813 962.46 80.5254 962.46 80.9355C962.46 81.2637 962.396 81.5622 962.269 81.8311C962.146 82.0999 961.965 82.3324 961.729 82.5283C961.492 82.7243 961.207 82.8747 960.874 82.9795C960.546 83.0843 960.179 83.1367 959.773 83.1367C959.176 83.1367 958.673 83.0182 958.263 82.7812C957.853 82.5443 957.543 82.2412 957.333 81.8721C957.123 81.4984 957.019 81.111 957.019 80.71H958.837C958.846 80.9561 958.892 81.1497 958.974 81.291C959.06 81.4277 959.176 81.5234 959.322 81.5781C959.468 81.6328 959.63 81.6602 959.808 81.6602C959.985 81.6602 960.131 81.6374 960.245 81.5918C960.364 81.5417 960.452 81.4665 960.512 81.3662C960.571 81.2614 960.601 81.1406 960.601 81.0039ZM969.214 83H967.3V75.2959C967.3 74.6579 967.411 74.1224 967.635 73.6895C967.863 73.252 968.191 72.9215 968.619 72.6982C969.052 72.4704 969.569 72.3564 970.171 72.3564C970.517 72.3564 970.845 72.3952 971.155 72.4727C971.47 72.5456 971.793 72.6413 972.126 72.7598L971.853 74.3867C971.652 74.3138 971.426 74.2454 971.176 74.1816C970.93 74.1133 970.638 74.0791 970.301 74.0791C969.932 74.0791 969.658 74.1816 969.48 74.3867C969.303 74.5918 969.214 74.8949 969.214 75.2959V83ZM970.355 75.6035V77.0459H966.397V75.6035H970.355ZM973.008 75.6035V83H971.087V75.6035H973.008ZM979.591 81.4072V83H974.895V81.4072H979.591ZM979.543 76.7656L975.646 83H974.368V81.7969L978.244 75.6035H979.543V76.7656ZM978.873 75.6035V77.1963H974.443V75.6035H978.873ZM983.733 83.1367C983.228 83.1367 982.779 83.0592 982.387 82.9043C981.999 82.7493 981.671 82.526 981.402 82.2344C981.133 81.9382 980.928 81.5804 980.787 81.1611C980.646 80.7419 980.575 80.2633 980.575 79.7256V79.1172C980.575 78.5156 980.644 77.9893 980.78 77.5381C980.917 77.0824 981.111 76.6995 981.361 76.3896C981.612 76.0798 981.92 75.8496 982.284 75.6992C982.653 75.5443 983.07 75.4668 983.535 75.4668C984 75.4668 984.408 75.5443 984.759 75.6992C985.114 75.8496 985.408 76.0775 985.641 76.3828C985.873 76.6836 986.049 77.0573 986.167 77.5039C986.285 77.9505 986.345 78.4701 986.345 79.0625V79.9375H981.389V78.5908H984.465V78.4199C984.465 78.1191 984.433 77.8685 984.369 77.668C984.305 77.4629 984.205 77.3102 984.068 77.21C983.932 77.1097 983.749 77.0596 983.521 77.0596C983.33 77.0596 983.168 77.0983 983.036 77.1758C982.904 77.2533 982.799 77.374 982.722 77.5381C982.644 77.7021 982.587 77.9163 982.551 78.1807C982.514 78.4404 982.496 78.7526 982.496 79.1172V79.7256C982.496 80.0674 982.526 80.3545 982.585 80.5869C982.644 80.8148 982.731 81.0016 982.845 81.1475C982.963 81.2887 983.107 81.3913 983.275 81.4551C983.444 81.5143 983.64 81.5439 983.863 81.5439C984.201 81.5439 984.504 81.4847 984.772 81.3662C985.046 81.2432 985.278 81.0768 985.47 80.8672L986.235 82.0293C986.103 82.2025 985.921 82.3757 985.688 82.5488C985.456 82.722 985.178 82.8633 984.854 82.9727C984.531 83.082 984.157 83.1367 983.733 83.1367ZM990.679 75.6035V77.0459H986.905V75.6035H990.679ZM987.773 73.7783H989.681V80.7441C989.681 80.9492 989.701 81.1064 989.742 81.2158C989.783 81.3252 989.845 81.4027 989.927 81.4482C990.013 81.4893 990.127 81.5098 990.269 81.5098C990.364 81.5098 990.453 81.5052 990.535 81.4961C990.617 81.4824 990.679 81.4688 990.72 81.4551V82.9521C990.569 83.0114 990.41 83.057 990.241 83.0889C990.077 83.1208 989.881 83.1367 989.653 83.1367C989.271 83.1367 988.938 83.0638 988.655 82.918C988.377 82.7721 988.161 82.5397 988.006 82.2207C987.851 81.8971 987.773 81.4733 987.773 80.9492V73.7783ZM994.726 83.1367C994.22 83.1367 993.771 83.0592 993.379 82.9043C992.992 82.7493 992.663 82.526 992.395 82.2344C992.126 81.9382 991.921 81.5804 991.779 81.1611C991.638 80.7419 991.567 80.2633 991.567 79.7256V79.1172C991.567 78.5156 991.636 77.9893 991.772 77.5381C991.909 77.0824 992.103 76.6995 992.354 76.3896C992.604 76.0798 992.912 75.8496 993.276 75.6992C993.646 75.5443 994.062 75.4668 994.527 75.4668C994.992 75.4668 995.4 75.5443 995.751 75.6992C996.106 75.8496 996.4 76.0775 996.633 76.3828C996.865 76.6836 997.041 77.0573 997.159 77.5039C997.278 77.9505 997.337 78.4701 997.337 79.0625V79.9375H992.381V78.5908H995.457V78.4199C995.457 78.1191 995.425 77.8685 995.361 77.668C995.298 77.4629 995.197 77.3102 995.061 77.21C994.924 77.1097 994.742 77.0596 994.514 77.0596C994.322 77.0596 994.16 77.0983 994.028 77.1758C993.896 77.2533 993.791 77.374 993.714 77.5381C993.636 77.7021 993.579 77.9163 993.543 78.1807C993.507 78.4404 993.488 78.7526 993.488 79.1172V79.7256C993.488 80.0674 993.518 80.3545 993.577 80.5869C993.636 80.8148 993.723 81.0016 993.837 81.1475C993.955 81.2887 994.099 81.3913 994.268 81.4551C994.436 81.5143 994.632 81.5439 994.855 81.5439C995.193 81.5439 995.496 81.4847 995.765 81.3662C996.038 81.2432 996.271 81.0768 996.462 80.8672L997.228 82.0293C997.095 82.2025 996.913 82.3757 996.681 82.5488C996.448 82.722 996.17 82.8633 995.847 82.9727C995.523 83.082 995.149 83.1367 994.726 83.1367ZM993.331 74.6055L994.671 72.4932H996.824L994.938 74.6055H993.331ZM1001.73 81.0039C1001.73 80.8763 1001.68 80.7624 1001.6 80.6621C1001.51 80.5618 1001.37 80.4593 1001.19 80.3545C1001 80.2451 1000.75 80.1243 1000.44 79.9922C1000.1 79.8555 999.805 79.7142 999.545 79.5684C999.285 79.4225 999.064 79.2607 998.882 79.083C998.704 78.9053 998.57 78.7025 998.479 78.4746C998.387 78.2467 998.342 77.987 998.342 77.6953C998.342 77.3809 998.399 77.0915 998.513 76.8271C998.631 76.5583 998.8 76.3236 999.019 76.123C999.237 75.918 999.504 75.7585 999.818 75.6445C1000.14 75.526 1000.5 75.4668 1000.89 75.4668C1001.45 75.4668 1001.92 75.5648 1002.32 75.7607C1002.72 75.9521 1003.03 76.221 1003.24 76.5674C1003.46 76.9137 1003.56 77.3171 1003.56 77.7773H1001.65C1001.65 77.6133 1001.63 77.4674 1001.58 77.3398C1001.53 77.2077 1001.44 77.1051 1001.33 77.0322C1001.22 76.9593 1001.07 76.9229 1000.88 76.9229C1000.75 76.9229 1000.62 76.9525 1000.52 77.0117C1000.41 77.071 1000.33 77.1507 1000.26 77.251C1000.2 77.3467 1000.17 77.4606 1000.17 77.5928C1000.17 77.693 1000.19 77.7819 1000.24 77.8594C1000.28 77.9368 1000.35 78.012 1000.45 78.085C1000.54 78.1579 1000.67 78.2354 1000.83 78.3174C1000.99 78.3949 1001.19 78.4814 1001.43 78.5771C1001.92 78.7594 1002.33 78.9554 1002.64 79.165C1002.96 79.3747 1003.2 79.6208 1003.35 79.9033C1003.51 80.1813 1003.58 80.5254 1003.58 80.9355C1003.58 81.2637 1003.52 81.5622 1003.39 81.8311C1003.27 82.0999 1003.09 82.3324 1002.85 82.5283C1002.62 82.7243 1002.33 82.8747 1002 82.9795C1001.67 83.0843 1001.3 83.1367 1000.9 83.1367C1000.3 83.1367 999.798 83.0182 999.388 82.7812C998.978 82.5443 998.668 82.2412 998.458 81.8721C998.248 81.4984 998.144 81.111 998.144 80.71H999.962C999.971 80.9561 1000.02 81.1497 1000.1 81.291C1000.19 81.4277 1000.3 81.5234 1000.45 81.5781C1000.59 81.6328 1000.75 81.6602 1000.93 81.6602C1001.11 81.6602 1001.26 81.6374 1001.37 81.5918C1001.49 81.5417 1001.58 81.4665 1001.64 81.3662C1001.7 81.2614 1001.73 81.1406 1001.73 81.0039Z" fill="#E0E0E9"/>
<path fill-rule="evenodd" clip-rule="evenodd" d="M984 33H359V31H984V33Z" fill="#D0CFD7"/>
<path fill-rule="evenodd" clip-rule="evenodd" d="M339 33H42V31H339V33Z" fill="#D0CFD7"/>
<g filter="url(#filter0_d_1251_3730)">
<path d="M32 17C23.7125 17 17 23.7125 17 32C17 34.8125 17.7875 37.475 19.175 39.725C20.497 41.9468 22.3748 43.7861 24.6236 45.0617C26.8724 46.3373 29.4146 47.0053 32 47C37.475 47 42.2375 44.075 44.825 39.725C46.2125 37.475 47 34.8125 47 32C47 23.7125 40.2875 17 32 17ZM39.3875 30.7625L31.4 38.15C30.875 38.6375 30.1625 38.9 29.4875 38.9C28.775 38.9 28.0625 38.6375 27.5 38.075L23.7875 34.3625C23.2644 33.8332 22.9711 33.1191 22.9711 32.375C22.9711 31.6309 23.2644 30.9168 23.7875 30.3875C24.875 29.3 26.675 29.3 27.7625 30.3875L29.5625 32.1875L35.5625 26.6375C36.6875 25.5875 38.4875 25.6625 39.5375 26.7875C40.5875 27.9125 40.5125 29.7125 39.3875 30.7625Z" fill="url(#paint1_linear_1251_3730)"/>
</g>
<circle cx="670.5" cy="32.5" r="14.5" fill="#D0CFD7"/>
<circle cx="348.5" cy="32.5" r="14.5" fill="#D0CFD7"/>
<circle cx="976.5" cy="32.5" r="14.5" fill="#D0CFD7"/>
<defs>
<filter id="filter0_d_1251_3730" x="0" y="0" width="74" height="74" filterUnits="userSpaceOnUse" color-interpolation-filters="sRGB">
<feFlood flood-opacity="0" result="BackgroundImageFix"/>
<feColorMatrix in="SourceAlpha" type="matrix" values="0 0 0 0 0 0 0 0 0 0 0 0 0 0 0 0 0 0 127 0" result="hardAlpha"/>
<feOffset dx="5" dy="5"/>
<feGaussianBlur stdDeviation="11"/>
<feComposite in2="hardAlpha" operator="out"/>
<feColorMatrix type="matrix" values="0 0 0 0 0.0392157 0 0 0 0 0.560784 0 0 0 0 0.309804 0 0 0 0.2 0"/>
<feBlend mode="normal" in2="BackgroundImageFix" result="effect1_dropShadow_1251_3730"/>
<feBlend mode="normal" in="SourceGraphic" in2="effect1_dropShadow_1251_3730" result="shape"/>
</filter>
<linearGradient id="paint0_linear_1251_3730" x1="32" y1="85" x2="32" y2="57" gradientUnits="userSpaceOnUse">
<stop stop-color="#5CCC94"/>
<stop offset="1" stop-color="#8CCAAE"/>
</linearGradient>
<linearGradient id="paint1_linear_1251_3730" x1="32" y1="47" x2="32" y2="17" gradientUnits="userSpaceOnUse">
<stop stop-color="#5CCC94"/>
<stop offset="1" stop-color="#8CCAAE"/>
</linearGradient>
</defs>
</svg>
