<svg width="1019" height="95" viewBox="0 0 1019 95" fill="none" xmlns="http://www.w3.org/2000/svg">
<path d="M14.0625 59.0469L15.9424 66.2451L17.8154 59.0469H20.4404V69H18.4238V66.3066L18.6084 62.1572L16.6191 69H15.252L13.2627 62.1572L13.4473 66.3066V69H11.4375V59.0469H14.0625ZM25.4785 69C25.4238 68.8861 25.3691 68.6947 25.3145 68.4258C24.9681 68.8997 24.4987 69.1367 23.9062 69.1367C23.2865 69.1367 22.7715 68.9316 22.3613 68.5215C21.9557 68.1113 21.7529 67.5804 21.7529 66.9287C21.7529 66.154 21.999 65.5547 22.4912 65.1309C22.988 64.707 23.7012 64.4906 24.6309 64.4814H25.2188V63.8867C25.2188 63.554 25.1618 63.3193 25.0479 63.1826C24.9339 63.0459 24.7676 62.9775 24.5488 62.9775C24.0658 62.9775 23.8242 63.2601 23.8242 63.8252H21.8896C21.8896 63.1416 22.1449 62.5788 22.6553 62.1367C23.1702 61.6901 23.8197 61.4668 24.6035 61.4668C25.4147 61.4668 26.0413 61.6787 26.4834 62.1025C26.93 62.5218 27.1533 63.1234 27.1533 63.9072V67.3867C27.1624 68.0247 27.2536 68.5238 27.4268 68.8838V69H25.4785ZM24.3369 67.6191C24.5511 67.6191 24.7334 67.5758 24.8838 67.4893C25.0342 67.4027 25.1458 67.3001 25.2188 67.1816V65.6436H24.7539C24.4258 65.6436 24.166 65.7484 23.9746 65.958C23.7878 66.1676 23.6943 66.4479 23.6943 66.7988C23.6943 67.3457 23.9085 67.6191 24.3369 67.6191ZM30.8037 59.7852V61.6035H31.7949V63.0596H30.8037V66.7305C30.8037 67.0221 30.8424 67.2227 30.9199 67.332C31.002 67.4414 31.1569 67.4961 31.3848 67.4961C31.5716 67.4961 31.7243 67.4801 31.8428 67.4482L31.8291 68.9521C31.501 69.0752 31.1455 69.1367 30.7627 69.1367C29.514 69.1367 28.8828 68.4212 28.8691 66.9902V63.0596H28.0146V61.6035H28.8691V59.7852H30.8037ZM36.5117 63.4697L35.8691 63.415C35.3405 63.415 34.9827 63.6475 34.7959 64.1123V69H32.8545V61.6035H34.6797L34.7344 62.4033C35.0397 61.779 35.4613 61.4668 35.999 61.4668C36.2178 61.4668 36.3955 61.4964 36.5322 61.5557L36.5117 63.4697ZM39.54 69H37.5986V61.6035H39.54V69ZM37.5098 59.6895C37.5098 59.3887 37.6055 59.1426 37.7969 58.9512C37.9883 58.7598 38.2435 58.6641 38.5625 58.6641C38.8815 58.6641 39.1367 58.7598 39.3281 58.9512C39.5195 59.1426 39.6152 59.3887 39.6152 59.6895C39.6152 59.9857 39.5195 60.2318 39.3281 60.4277C39.1413 60.6237 38.8861 60.7217 38.5625 60.7217C38.2389 60.7217 37.9814 60.6237 37.79 60.4277C37.6032 60.2318 37.5098 59.9857 37.5098 59.6895ZM43.71 67.5303C44.2705 67.5303 44.5553 67.1657 44.5645 66.4365H46.3828C46.3737 67.2432 46.1253 67.8949 45.6377 68.3916C45.1501 68.8883 44.5212 69.1367 43.751 69.1367C42.7985 69.1367 42.0716 68.8405 41.5703 68.248C41.069 67.6556 40.8138 66.7829 40.8047 65.6299V65.042C40.8047 63.8799 41.0508 62.9935 41.543 62.3828C42.0397 61.7721 42.7712 61.4668 43.7373 61.4668C44.5531 61.4668 45.1956 61.7197 45.665 62.2256C46.1344 62.7269 46.3737 63.4401 46.3828 64.3652H44.5645C44.5599 63.9505 44.4915 63.6315 44.3594 63.4082C44.2272 63.1849 44.0085 63.0732 43.7031 63.0732C43.3659 63.0732 43.1243 63.194 42.9785 63.4355C42.8327 63.6725 42.7552 64.1351 42.7461 64.8232V65.5752C42.7461 66.1768 42.7757 66.5983 42.835 66.8398C42.8942 67.0768 42.9922 67.2523 43.1289 67.3662C43.2656 67.4756 43.4593 67.5303 43.71 67.5303ZM50.9902 69C50.9355 68.8861 50.8809 68.6947 50.8262 68.4258C50.4798 68.8997 50.0104 69.1367 49.418 69.1367C48.7982 69.1367 48.2832 68.9316 47.873 68.5215C47.4674 68.1113 47.2646 67.5804 47.2646 66.9287C47.2646 66.154 47.5107 65.5547 48.0029 65.1309C48.4997 64.707 49.2129 64.4906 50.1426 64.4814H50.7305V63.8867C50.7305 63.554 50.6735 63.3193 50.5596 63.1826C50.4456 63.0459 50.2793 62.9775 50.0605 62.9775C49.5775 62.9775 49.3359 63.2601 49.3359 63.8252H47.4014C47.4014 63.1416 47.6566 62.5788 48.167 62.1367C48.682 61.6901 49.3314 61.4668 50.1152 61.4668C50.9264 61.4668 51.5531 61.6787 51.9951 62.1025C52.4417 62.5218 52.665 63.1234 52.665 63.9072V67.3867C52.6742 68.0247 52.7653 68.5238 52.9385 68.8838V69H50.9902ZM49.8486 67.6191C50.0628 67.6191 50.2451 67.5758 50.3955 67.4893C50.5459 67.4027 50.6576 67.3001 50.7305 67.1816V65.6436H50.2656C49.9375 65.6436 49.6777 65.7484 49.4863 65.958C49.2995 66.1676 49.2061 66.4479 49.2061 66.7988C49.2061 67.3457 49.4202 67.6191 49.8486 67.6191ZM17.5762 73.7852V75.6035H18.5674V77.0596H17.5762V80.7305C17.5762 81.0221 17.6149 81.2227 17.6924 81.332C17.7744 81.4414 17.9294 81.4961 18.1572 81.4961C18.3441 81.4961 18.4967 81.4801 18.6152 81.4482L18.6016 82.9521C18.2734 83.0752 17.918 83.1367 17.5352 83.1367C16.2865 83.1367 15.6553 82.4212 15.6416 80.9902V77.0596H14.7871V75.6035H15.6416V73.7852H17.5762ZM21.7119 83H19.7773V75.6035H21.7119V83ZM21.1514 72.6025H23.3252L21.4248 74.7217H19.8115L21.1514 72.6025ZM29.0742 79.5342C29.0742 80.6963 28.8737 81.5872 28.4727 82.207C28.0762 82.8268 27.4837 83.1367 26.6953 83.1367C26.0938 83.1367 25.6107 82.8929 25.2461 82.4053V85.8438H23.3115V75.6035H25.1025L25.1709 76.2803C25.54 75.738 26.0436 75.4668 26.6816 75.4668C27.4701 75.4668 28.0625 75.7539 28.459 76.3281C28.86 76.9023 29.0651 77.7819 29.0742 78.9668V79.5342ZM27.1465 79.0488C27.1465 78.3333 27.0667 77.8275 26.9072 77.5312C26.7523 77.235 26.488 77.0869 26.1143 77.0869C25.7178 77.0869 25.4284 77.2533 25.2461 77.5859V81.0518C25.4193 81.3708 25.7132 81.5303 26.1279 81.5303C26.5107 81.5303 26.7751 81.3685 26.9209 81.0449C27.0713 80.7214 27.1465 80.2178 27.1465 79.5342V79.0488ZM33.8799 82.3232C33.4788 82.8656 32.9411 83.1367 32.2666 83.1367C31.5876 83.1367 31.0726 82.9043 30.7217 82.4395C30.3708 81.9701 30.1953 81.2887 30.1953 80.3955V75.6035H32.1299V80.4434C32.139 81.1634 32.3783 81.5234 32.8477 81.5234C33.2897 81.5234 33.6087 81.332 33.8047 80.9492V75.6035H35.7529V83H33.9346L33.8799 82.3232ZM40.4082 81.0176C40.4082 80.8535 40.3285 80.7031 40.1689 80.5664C40.014 80.4251 39.6654 80.236 39.123 79.999C38.3255 79.6755 37.7764 79.3405 37.4756 78.9941C37.1794 78.6478 37.0312 78.2171 37.0312 77.7021C37.0312 77.055 37.2637 76.5218 37.7285 76.1025C38.1979 75.6787 38.8177 75.4668 39.5879 75.4668C40.3991 75.4668 41.0485 75.6764 41.5361 76.0957C42.0238 76.515 42.2676 77.0778 42.2676 77.7842H40.333C40.333 77.1826 40.0824 76.8818 39.5811 76.8818C39.376 76.8818 39.2074 76.9456 39.0752 77.0732C38.943 77.2008 38.877 77.3786 38.877 77.6064C38.877 77.7705 38.9499 77.9163 39.0957 78.0439C39.2415 78.167 39.5856 78.3447 40.1279 78.5771C40.9163 78.8688 41.4723 79.1947 41.7959 79.5547C42.124 79.9102 42.2881 80.3727 42.2881 80.9424C42.2881 81.6032 42.0397 82.1341 41.543 82.5352C41.0462 82.9362 40.3945 83.1367 39.5879 83.1367C39.0456 83.1367 38.5671 83.0319 38.1523 82.8223C37.7376 82.6081 37.4118 82.3118 37.1748 81.9336C36.9424 81.5553 36.8262 81.1475 36.8262 80.71H38.665C38.6742 81.0472 38.7516 81.3001 38.8975 81.4688C39.0479 81.6374 39.2917 81.7217 39.6289 81.7217C40.1484 81.7217 40.4082 81.487 40.4082 81.0176ZM47.0049 83C46.9502 82.8861 46.8955 82.6947 46.8408 82.4258C46.4945 82.8997 46.0251 83.1367 45.4326 83.1367C44.8128 83.1367 44.2979 82.9316 43.8877 82.5215C43.4821 82.1113 43.2793 81.5804 43.2793 80.9287C43.2793 80.154 43.5254 79.5547 44.0176 79.1309C44.5143 78.707 45.2275 78.4906 46.1572 78.4814H46.7451V77.8867C46.7451 77.554 46.6882 77.3193 46.5742 77.1826C46.4603 77.0459 46.2939 76.9775 46.0752 76.9775C45.5921 76.9775 45.3506 77.2601 45.3506 77.8252H43.416C43.416 77.1416 43.6712 76.5788 44.1816 76.1367C44.6966 75.6901 45.346 75.4668 46.1299 75.4668C46.9411 75.4668 47.5677 75.6787 48.0098 76.1025C48.4564 76.5218 48.6797 77.1234 48.6797 77.9072V81.3867C48.6888 82.0247 48.7799 82.5238 48.9531 82.8838V83H47.0049ZM45.8633 81.6191C46.0775 81.6191 46.2598 81.5758 46.4102 81.4893C46.5605 81.4027 46.6722 81.3001 46.7451 81.1816V79.6436H46.2803C45.9521 79.6436 45.6924 79.7484 45.501 79.958C45.3141 80.1676 45.2207 80.4479 45.2207 80.7988C45.2207 81.3457 45.4349 81.6191 45.8633 81.6191Z" fill="url(#paint0_linear_1252_3882)"/>
<path d="M323.83 68.3633H322.832V72H320.822V62.0469H324.028C325.035 62.0469 325.812 62.3089 326.359 62.833C326.911 63.3525 327.187 64.0931 327.187 65.0547C327.187 66.3763 326.706 67.3014 325.744 67.8301L327.487 71.9043V72H325.327L323.83 68.3633ZM322.832 66.6885H323.974C324.375 66.6885 324.675 66.5563 324.876 66.292C325.076 66.0231 325.177 65.6654 325.177 65.2188C325.177 64.2207 324.787 63.7217 324.008 63.7217H322.832V66.6885ZM331.459 72.1367C330.465 72.1367 329.691 71.8405 329.135 71.248C328.579 70.6556 328.301 69.8079 328.301 68.7051V68.1172C328.301 66.9505 328.556 66.0505 329.066 65.417C329.577 64.7835 330.308 64.4668 331.261 64.4668C332.19 64.4668 332.89 64.7653 333.359 65.3623C333.829 65.9548 334.068 66.8343 334.077 68.001V68.9512H330.229C330.256 69.498 330.377 69.8991 330.591 70.1543C330.805 70.4049 331.135 70.5303 331.582 70.5303C332.229 70.5303 332.769 70.3092 333.202 69.8672L333.961 71.0361C333.724 71.3643 333.38 71.6309 332.929 71.8359C332.478 72.0365 331.988 72.1367 331.459 72.1367ZM330.242 67.5977H332.177V67.4199C332.168 66.9779 332.095 66.6429 331.958 66.415C331.821 66.1872 331.584 66.0732 331.247 66.0732C330.91 66.0732 330.664 66.194 330.509 66.4355C330.358 66.6771 330.27 67.0645 330.242 67.5977ZM336.941 64.6035L336.996 65.335C337.434 64.7562 338.006 64.4668 338.712 64.4668C339.983 64.4668 340.637 65.3577 340.674 67.1396V72H338.732V67.2832C338.732 66.8639 338.669 66.5609 338.541 66.374C338.418 66.1826 338.199 66.0869 337.885 66.0869C337.534 66.0869 337.26 66.2669 337.064 66.627V72H335.123V64.6035H336.941ZM341.802 68.0762C341.802 66.8639 342.007 65.9593 342.417 65.3623C342.827 64.7653 343.424 64.4668 344.208 64.4668C344.778 64.4668 345.252 64.7129 345.63 65.2051V61.5H347.578V72H345.821L345.732 71.248C345.336 71.8405 344.826 72.1367 344.201 72.1367C343.426 72.1367 342.834 71.8405 342.424 71.248C342.018 70.6556 341.811 69.7852 341.802 68.6367V68.0762ZM343.743 68.5615C343.743 69.2907 343.821 69.8011 343.976 70.0928C344.131 70.3799 344.393 70.5234 344.762 70.5234C345.145 70.5234 345.434 70.3525 345.63 70.0107V66.6338C345.438 66.2692 345.151 66.0869 344.769 66.0869C344.413 66.0869 344.153 66.2305 343.989 66.5176C343.825 66.8047 343.743 67.3151 343.743 68.0488V68.5615ZM352.281 70.0176C352.281 69.8535 352.201 69.7031 352.042 69.5664C351.887 69.4251 351.538 69.236 350.996 68.999C350.199 68.6755 349.649 68.3405 349.349 67.9941C349.052 67.6478 348.904 67.2171 348.904 66.7021C348.904 66.055 349.137 65.5218 349.602 65.1025C350.071 64.6787 350.691 64.4668 351.461 64.4668C352.272 64.4668 352.922 64.6764 353.409 65.0957C353.897 65.515 354.141 66.0778 354.141 66.7842H352.206C352.206 66.1826 351.955 65.8818 351.454 65.8818C351.249 65.8818 351.08 65.9456 350.948 66.0732C350.816 66.2008 350.75 66.3786 350.75 66.6064C350.75 66.7705 350.823 66.9163 350.969 67.0439C351.115 67.167 351.459 67.3447 352.001 67.5771C352.789 67.8688 353.345 68.1947 353.669 68.5547C353.997 68.9102 354.161 69.3727 354.161 69.9424C354.161 70.6032 353.913 71.1341 353.416 71.5352C352.919 71.9362 352.268 72.1367 351.461 72.1367C350.919 72.1367 350.44 72.0319 350.025 71.8223C349.611 71.6081 349.285 71.3118 349.048 70.9336C348.815 70.5553 348.699 70.1475 348.699 69.71H350.538C350.547 70.0472 350.625 70.3001 350.771 70.4688C350.921 70.6374 351.165 70.7217 351.502 70.7217C352.021 70.7217 352.281 70.487 352.281 70.0176ZM357.504 70.3936H360.43V72H355.207V70.79L358.064 66.2168H355.275V64.6035H360.389V65.7725L357.504 70.3936ZM365.222 72C365.167 71.8861 365.112 71.6947 365.058 71.4258C364.711 71.8997 364.242 72.1367 363.649 72.1367C363.03 72.1367 362.515 71.9316 362.104 71.5215C361.699 71.1113 361.496 70.5804 361.496 69.9287C361.496 69.154 361.742 68.5547 362.234 68.1309C362.731 67.707 363.444 67.4906 364.374 67.4814H364.962V66.8867C364.962 66.554 364.905 66.3193 364.791 66.1826C364.677 66.0459 364.511 65.9775 364.292 65.9775C363.809 65.9775 363.567 66.2601 363.567 66.8252H361.633C361.633 66.1416 361.888 65.5788 362.398 65.1367C362.913 64.6901 363.563 64.4668 364.347 64.4668C365.158 64.4668 365.785 64.6787 366.227 65.1025C366.673 65.5218 366.896 66.1234 366.896 66.9072V70.3867C366.906 71.0247 366.997 71.5238 367.17 71.8838V72H365.222ZM364.08 70.6191C364.294 70.6191 364.477 70.5758 364.627 70.4893C364.777 70.4027 364.889 70.3001 364.962 70.1816V68.6436H364.497C364.169 68.6436 363.909 68.7484 363.718 68.958C363.531 69.1676 363.438 69.4479 363.438 69.7988C363.438 70.3457 363.652 70.6191 364.08 70.6191ZM364.661 61.5H366.835L364.935 63.6191H363.321L364.661 61.5ZM370.116 64.6035L370.171 65.2871C370.604 64.7402 371.176 64.4668 371.887 64.4668C372.625 64.4668 373.147 64.7995 373.452 65.4648C373.876 64.7995 374.48 64.4668 375.264 64.4668C376.558 64.4668 377.221 65.3623 377.253 67.1533V72H375.318V67.2764C375.318 66.848 375.259 66.5426 375.141 66.3604C375.022 66.1781 374.822 66.0869 374.539 66.0869C374.179 66.0869 373.91 66.3079 373.732 66.75L373.746 66.9824V72H371.812V67.29C371.812 66.8662 371.755 66.5609 371.641 66.374C371.527 66.1826 371.324 66.0869 371.032 66.0869C370.7 66.0869 370.435 66.2669 370.239 66.627V72H368.305V64.6035H370.116Z" fill="url(#paint1_linear_1252_3882)"/>
<path d="M647.364 69.3818C647.364 69.2041 647.348 69.0423 647.316 68.8965C647.285 68.7507 647.216 68.6162 647.111 68.4932C647.011 68.3701 646.863 68.2471 646.667 68.124C646.476 68.001 646.225 67.8734 645.915 67.7412C645.546 67.5863 645.188 67.4222 644.842 67.249C644.495 67.0713 644.183 66.8662 643.905 66.6338C643.627 66.4014 643.406 66.1279 643.242 65.8135C643.083 65.4945 643.003 65.1208 643.003 64.6924C643.003 64.2731 643.078 63.8926 643.229 63.5508C643.383 63.209 643.602 62.9173 643.885 62.6758C644.167 62.4297 644.498 62.2406 644.876 62.1084C645.259 61.9762 645.685 61.9102 646.154 61.9102C646.792 61.9102 647.344 62.0423 647.809 62.3066C648.278 62.571 648.64 62.9333 648.896 63.3936C649.155 63.8538 649.285 64.3825 649.285 64.9795H647.289C647.289 64.6969 647.248 64.4486 647.166 64.2344C647.089 64.0156 646.963 63.8447 646.79 63.7217C646.617 63.5986 646.394 63.5371 646.12 63.5371C645.865 63.5371 645.653 63.5895 645.484 63.6943C645.32 63.7946 645.197 63.9336 645.115 64.1113C645.038 64.2845 644.999 64.4805 644.999 64.6992C644.999 64.8633 645.038 65.0114 645.115 65.1436C645.197 65.2712 645.309 65.3874 645.45 65.4922C645.591 65.5924 645.758 65.6904 645.949 65.7861C646.145 65.8818 646.359 65.9753 646.592 66.0664C647.043 66.2441 647.442 66.4401 647.788 66.6543C648.134 66.8639 648.424 67.1009 648.656 67.3652C648.889 67.625 649.064 67.9189 649.183 68.2471C649.301 68.5752 649.36 68.9489 649.36 69.3682C649.36 69.7829 649.287 70.1611 649.142 70.5029C649 70.8402 648.793 71.1318 648.52 71.3779C648.246 71.6195 647.916 71.8063 647.528 71.9385C647.146 72.0706 646.717 72.1367 646.243 72.1367C645.783 72.1367 645.348 72.0729 644.938 71.9453C644.527 71.8132 644.165 71.6149 643.851 71.3506C643.541 71.0817 643.297 70.7422 643.119 70.332C642.941 69.9173 642.853 69.4274 642.853 68.8623H644.855C644.855 69.1631 644.885 69.4206 644.944 69.6348C645.004 69.8444 645.095 70.013 645.218 70.1406C645.341 70.2637 645.491 70.3571 645.669 70.4209C645.851 70.4801 646.059 70.5098 646.291 70.5098C646.555 70.5098 646.765 70.4596 646.92 70.3594C647.079 70.2591 647.193 70.1247 647.262 69.9561C647.33 69.7874 647.364 69.596 647.364 69.3818ZM655.677 70.4072V72H650.98V70.4072H655.677ZM655.629 65.7656L651.732 72H650.454V70.7969L654.33 64.6035H655.629V65.7656ZM654.959 64.6035V66.1963H650.529V64.6035H654.959ZM660.209 70.2979V66.8799C660.209 66.6566 660.182 66.4788 660.127 66.3467C660.077 66.2145 659.999 66.1188 659.895 66.0596C659.794 65.9958 659.671 65.9639 659.525 65.9639C659.361 65.9639 659.225 65.998 659.115 66.0664C659.006 66.1348 658.924 66.2327 658.869 66.3604C658.819 66.488 658.794 66.6406 658.794 66.8184H656.873C656.873 66.4993 656.935 66.1986 657.058 65.916C657.181 65.6289 657.361 65.3783 657.598 65.1641C657.839 64.9453 658.126 64.7744 658.459 64.6514C658.792 64.5283 659.165 64.4668 659.58 64.4668C660.072 64.4668 660.51 64.5511 660.893 64.7197C661.275 64.8838 661.578 65.1458 661.802 65.5059C662.025 65.8659 662.137 66.333 662.137 66.9072V70.2021C662.137 70.6169 662.157 70.9541 662.198 71.2139C662.244 71.4736 662.31 71.6969 662.396 71.8838V72H660.469C660.382 71.7949 660.316 71.5397 660.271 71.2344C660.229 70.9245 660.209 70.6123 660.209 70.2979ZM660.441 67.4814L660.448 68.6299H659.744C659.562 68.6299 659.402 68.6595 659.266 68.7188C659.133 68.778 659.022 68.8623 658.931 68.9717C658.84 69.0765 658.771 69.1995 658.726 69.3408C658.685 69.4821 658.664 69.6325 658.664 69.792C658.664 69.9697 658.689 70.1201 658.739 70.2432C658.789 70.3662 658.865 70.4596 658.965 70.5234C659.065 70.5872 659.184 70.6191 659.32 70.6191C659.53 70.6191 659.712 70.5758 659.867 70.4893C660.022 70.4027 660.136 70.2979 660.209 70.1748C660.286 70.0518 660.312 69.9378 660.284 69.833L660.722 70.5781C660.667 70.7467 660.592 70.9222 660.496 71.1045C660.405 71.2868 660.289 71.4554 660.147 71.6104C660.006 71.7653 659.831 71.8929 659.621 71.9932C659.416 72.0889 659.172 72.1367 658.89 72.1367C658.493 72.1367 658.131 72.0456 657.803 71.8633C657.475 71.681 657.215 71.4258 657.023 71.0977C656.837 70.7695 656.743 70.3799 656.743 69.9287C656.743 69.555 656.802 69.2178 656.921 68.917C657.044 68.6117 657.226 68.3542 657.468 68.1445C657.709 67.9303 658.015 67.7663 658.384 67.6523C658.753 67.5384 659.186 67.4814 659.683 67.4814H660.441ZM658.568 63.6123L659.908 61.5H662.062L660.175 63.6123H658.568ZM665.479 66.1348V72H663.559V64.6035H665.363L665.479 66.1348ZM665.206 68.0488L664.68 68.0625C664.671 67.543 664.716 67.0645 664.816 66.627C664.917 66.1895 665.067 65.8089 665.268 65.4854C665.473 65.1618 665.73 64.9111 666.04 64.7334C666.35 64.5557 666.712 64.4668 667.127 64.4668C667.396 64.4668 667.644 64.5169 667.872 64.6172C668.1 64.7129 668.298 64.8656 668.467 65.0752C668.635 65.2803 668.765 65.5492 668.856 65.8818C668.948 66.21 668.993 66.6042 668.993 67.0645V72H667.079V67.2969C667.079 66.9688 667.047 66.7181 666.983 66.5449C666.92 66.3672 666.828 66.2441 666.71 66.1758C666.591 66.1029 666.446 66.0664 666.272 66.0664C666.09 66.0664 665.931 66.1165 665.794 66.2168C665.657 66.3171 665.546 66.4583 665.459 66.6406C665.377 66.8184 665.313 67.028 665.268 67.2695C665.227 67.5111 665.206 67.7708 665.206 68.0488ZM668.809 67.8574L668.118 67.9463C668.109 67.4587 668.152 67.0052 668.248 66.5859C668.344 66.1621 668.492 65.793 668.692 65.4785C668.893 65.1595 669.144 64.9111 669.444 64.7334C669.75 64.5557 670.103 64.4668 670.504 64.4668C670.805 64.4668 671.078 64.5169 671.324 64.6172C671.57 64.7174 671.78 64.8792 671.953 65.1025C672.131 65.3213 672.265 65.6107 672.356 65.9707C672.452 66.3307 672.5 66.7682 672.5 67.2832V72H670.579V67.29C670.579 66.9574 670.547 66.7021 670.483 66.5244C670.42 66.3467 670.328 66.2259 670.21 66.1621C670.091 66.0983 669.95 66.0664 669.786 66.0664C669.622 66.0664 669.479 66.112 669.355 66.2031C669.237 66.2943 669.137 66.4219 669.055 66.5859C668.973 66.7454 668.911 66.9346 668.87 67.1533C668.829 67.3675 668.809 67.6022 668.809 67.8574ZM675.952 61.5V72H674.031V61.5H675.952ZM680.73 70.2979V66.8799C680.73 66.6566 680.703 66.4788 680.648 66.3467C680.598 66.2145 680.521 66.1188 680.416 66.0596C680.316 65.9958 680.193 65.9639 680.047 65.9639C679.883 65.9639 679.746 65.998 679.637 66.0664C679.527 66.1348 679.445 66.2327 679.391 66.3604C679.34 66.488 679.315 66.6406 679.315 66.8184H677.395C677.395 66.4993 677.456 66.1986 677.579 65.916C677.702 65.6289 677.882 65.3783 678.119 65.1641C678.361 64.9453 678.648 64.7744 678.98 64.6514C679.313 64.5283 679.687 64.4668 680.102 64.4668C680.594 64.4668 681.031 64.5511 681.414 64.7197C681.797 64.8838 682.1 65.1458 682.323 65.5059C682.547 65.8659 682.658 66.333 682.658 66.9072V70.2021C682.658 70.6169 682.679 70.9541 682.72 71.2139C682.765 71.4736 682.831 71.6969 682.918 71.8838V72H680.99C680.904 71.7949 680.838 71.5397 680.792 71.2344C680.751 70.9245 680.73 70.6123 680.73 70.2979ZM680.963 67.4814L680.97 68.6299H680.266C680.083 68.6299 679.924 68.6595 679.787 68.7188C679.655 68.778 679.543 68.8623 679.452 68.9717C679.361 69.0765 679.293 69.1995 679.247 69.3408C679.206 69.4821 679.186 69.6325 679.186 69.792C679.186 69.9697 679.211 70.1201 679.261 70.2432C679.311 70.3662 679.386 70.4596 679.486 70.5234C679.587 70.5872 679.705 70.6191 679.842 70.6191C680.051 70.6191 680.234 70.5758 680.389 70.4893C680.544 70.4027 680.658 70.2979 680.73 70.1748C680.808 70.0518 680.833 69.9378 680.806 69.833L681.243 70.5781C681.188 70.7467 681.113 70.9222 681.018 71.1045C680.926 71.2868 680.81 71.4554 680.669 71.6104C680.528 71.7653 680.352 71.8929 680.143 71.9932C679.938 72.0889 679.694 72.1367 679.411 72.1367C679.015 72.1367 678.652 72.0456 678.324 71.8633C677.996 71.681 677.736 71.4258 677.545 71.0977C677.358 70.7695 677.265 70.3799 677.265 69.9287C677.265 69.555 677.324 69.2178 677.442 68.917C677.565 68.6117 677.748 68.3542 677.989 68.1445C678.231 67.9303 678.536 67.7663 678.905 67.6523C679.274 67.5384 679.707 67.4814 680.204 67.4814H680.963ZM679.09 63.6123L680.43 61.5H682.583L680.696 63.6123H679.09ZM689.132 70.4072V72H684.436V70.4072H689.132ZM689.084 65.7656L685.188 72H683.909V70.7969L687.785 64.6035H689.084V65.7656ZM688.414 64.6035V66.1963H683.984V64.6035H688.414ZM693.664 70.2979V66.8799C693.664 66.6566 693.637 66.4788 693.582 66.3467C693.532 66.2145 693.454 66.1188 693.35 66.0596C693.249 65.9958 693.126 65.9639 692.98 65.9639C692.816 65.9639 692.68 65.998 692.57 66.0664C692.461 66.1348 692.379 66.2327 692.324 66.3604C692.274 66.488 692.249 66.6406 692.249 66.8184H690.328C690.328 66.4993 690.39 66.1986 690.513 65.916C690.636 65.6289 690.816 65.3783 691.053 65.1641C691.294 64.9453 691.581 64.7744 691.914 64.6514C692.247 64.5283 692.62 64.4668 693.035 64.4668C693.527 64.4668 693.965 64.5511 694.348 64.7197C694.73 64.8838 695.034 65.1458 695.257 65.5059C695.48 65.8659 695.592 66.333 695.592 66.9072V70.2021C695.592 70.6169 695.612 70.9541 695.653 71.2139C695.699 71.4736 695.765 71.6969 695.852 71.8838V72H693.924C693.837 71.7949 693.771 71.5397 693.726 71.2344C693.685 70.9245 693.664 70.6123 693.664 70.2979ZM693.896 67.4814L693.903 68.6299H693.199C693.017 68.6299 692.857 68.6595 692.721 68.7188C692.589 68.778 692.477 68.8623 692.386 68.9717C692.295 69.0765 692.226 69.1995 692.181 69.3408C692.14 69.4821 692.119 69.6325 692.119 69.792C692.119 69.9697 692.144 70.1201 692.194 70.2432C692.244 70.3662 692.32 70.4596 692.42 70.5234C692.52 70.5872 692.639 70.6191 692.775 70.6191C692.985 70.6191 693.167 70.5758 693.322 70.4893C693.477 70.4027 693.591 70.2979 693.664 70.1748C693.742 70.0518 693.767 69.9378 693.739 69.833L694.177 70.5781C694.122 70.7467 694.047 70.9222 693.951 71.1045C693.86 71.2868 693.744 71.4554 693.603 71.6104C693.461 71.7653 693.286 71.8929 693.076 71.9932C692.871 72.0889 692.627 72.1367 692.345 72.1367C691.948 72.1367 691.586 72.0456 691.258 71.8633C690.93 71.681 690.67 71.4258 690.479 71.0977C690.292 70.7695 690.198 70.3799 690.198 69.9287C690.198 69.555 690.257 69.2178 690.376 68.917C690.499 68.6117 690.681 68.3542 690.923 68.1445C691.164 67.9303 691.47 67.7663 691.839 67.6523C692.208 67.5384 692.641 67.4814 693.138 67.4814H693.896ZM692.023 63.6123L693.363 61.5H695.517L693.63 63.6123H692.023ZM700.288 70.0039C700.288 69.8763 700.245 69.7624 700.158 69.6621C700.072 69.5618 699.935 69.4593 699.748 69.3545C699.561 69.2451 699.313 69.1243 699.003 68.9922C698.666 68.8555 698.367 68.7142 698.107 68.5684C697.848 68.4225 697.627 68.2607 697.444 68.083C697.267 67.9053 697.132 67.7025 697.041 67.4746C696.95 67.2467 696.904 66.987 696.904 66.6953C696.904 66.3809 696.961 66.0915 697.075 65.8271C697.194 65.5583 697.362 65.3236 697.581 65.123C697.8 64.918 698.066 64.7585 698.381 64.6445C698.7 64.526 699.058 64.4668 699.454 64.4668C700.01 64.4668 700.486 64.5648 700.883 64.7607C701.284 64.9521 701.591 65.221 701.806 65.5674C702.02 65.9137 702.127 66.3171 702.127 66.7773H700.213C700.213 66.6133 700.188 66.4674 700.138 66.3398C700.088 66.2077 700.006 66.1051 699.892 66.0322C699.782 65.9593 699.634 65.9229 699.447 65.9229C699.311 65.9229 699.188 65.9525 699.078 66.0117C698.973 66.071 698.889 66.1507 698.825 66.251C698.766 66.3467 698.736 66.4606 698.736 66.5928C698.736 66.693 698.757 66.7819 698.798 66.8594C698.843 66.9368 698.914 67.012 699.01 67.085C699.105 67.1579 699.233 67.2354 699.393 67.3174C699.557 67.3949 699.757 67.4814 699.994 67.5771C700.486 67.7594 700.89 67.9554 701.204 68.165C701.523 68.3747 701.76 68.6208 701.915 68.9033C702.07 69.1813 702.147 69.5254 702.147 69.9355C702.147 70.2637 702.084 70.5622 701.956 70.8311C701.833 71.0999 701.653 71.3324 701.416 71.5283C701.179 71.7243 700.894 71.8747 700.562 71.9795C700.233 72.0843 699.867 72.1367 699.461 72.1367C698.864 72.1367 698.36 72.0182 697.95 71.7812C697.54 71.5443 697.23 71.2412 697.021 70.8721C696.811 70.4984 696.706 70.111 696.706 69.71H698.524C698.534 69.9561 698.579 70.1497 698.661 70.291C698.748 70.4277 698.864 70.5234 699.01 70.5781C699.156 70.6328 699.317 70.6602 699.495 70.6602C699.673 70.6602 699.819 70.6374 699.933 70.5918C700.051 70.5417 700.14 70.4665 700.199 70.3662C700.258 70.2614 700.288 70.1406 700.288 70.0039Z" fill="url(#paint2_linear_1252_3882)"/>
<path d="M953.812 68.3457V70H949.484V68.3457H953.812ZM950.106 60.0469V70H948.104V60.0469H950.106ZM953.23 64.0801V65.6865H949.484V64.0801H953.23ZM953.798 60.0469V61.708H949.484V60.0469H953.798ZM956.895 59.5V70H954.974V59.5H956.895ZM960.422 59.5V70H958.501V59.5H960.422ZM964.92 70.1367C964.414 70.1367 963.965 70.0592 963.573 69.9043C963.186 69.7493 962.858 69.526 962.589 69.2344C962.32 68.9382 962.115 68.5804 961.974 68.1611C961.832 67.7419 961.762 67.2633 961.762 66.7256V66.1172C961.762 65.5156 961.83 64.9893 961.967 64.5381C962.104 64.0824 962.297 63.6995 962.548 63.3896C962.799 63.0798 963.106 62.8496 963.471 62.6992C963.84 62.5443 964.257 62.4668 964.722 62.4668C965.187 62.4668 965.594 62.5443 965.945 62.6992C966.301 62.8496 966.595 63.0775 966.827 63.3828C967.06 63.6836 967.235 64.0573 967.354 64.5039C967.472 64.9505 967.531 65.4701 967.531 66.0625V66.9375H962.575V65.5908H965.651V65.4199C965.651 65.1191 965.619 64.8685 965.556 64.668C965.492 64.4629 965.392 64.3102 965.255 64.21C965.118 64.1097 964.936 64.0596 964.708 64.0596C964.517 64.0596 964.355 64.0983 964.223 64.1758C964.09 64.2533 963.986 64.374 963.908 64.5381C963.831 64.7021 963.774 64.9163 963.737 65.1807C963.701 65.4404 963.683 65.7526 963.683 66.1172V66.7256C963.683 67.0674 963.712 67.3545 963.771 67.5869C963.831 67.8148 963.917 68.0016 964.031 68.1475C964.15 68.2887 964.293 68.3913 964.462 68.4551C964.631 68.5143 964.826 68.5439 965.05 68.5439C965.387 68.5439 965.69 68.4847 965.959 68.3662C966.232 68.2432 966.465 68.0768 966.656 67.8672L967.422 69.0293C967.29 69.2025 967.107 69.3757 966.875 69.5488C966.643 69.722 966.365 69.8633 966.041 69.9727C965.717 70.082 965.344 70.1367 964.92 70.1367ZM970.519 64.1826V70H968.598V62.6035H970.396L970.519 64.1826ZM970.231 66.0488L969.719 66.0625C969.71 65.5065 969.762 65.0075 969.876 64.5654C969.994 64.1234 970.161 63.7474 970.375 63.4375C970.594 63.123 970.854 62.8838 971.154 62.7197C971.46 62.5511 971.799 62.4668 972.173 62.4668C972.46 62.4668 972.722 62.5169 972.959 62.6172C973.201 62.7174 973.408 62.877 973.581 63.0957C973.754 63.3145 973.889 63.6061 973.984 63.9707C974.08 64.3307 974.128 64.7728 974.128 65.2969V70H972.207V65.2832C972.207 64.9642 972.175 64.7181 972.111 64.5449C972.048 64.3672 971.952 64.2441 971.824 64.1758C971.697 64.1029 971.537 64.0664 971.346 64.0664C971.163 64.0664 971.002 64.1188 970.86 64.2236C970.719 64.3239 970.601 64.4629 970.505 64.6406C970.414 64.8184 970.343 65.028 970.293 65.2695C970.247 65.5111 970.227 65.7708 970.231 66.0488ZM975.311 66.5547V66.0557C975.311 65.4769 975.379 64.9642 975.516 64.5176C975.657 64.071 975.857 63.6973 976.117 63.3965C976.377 63.0911 976.689 62.861 977.054 62.7061C977.423 62.5465 977.835 62.4668 978.291 62.4668C978.751 62.4668 979.164 62.5465 979.528 62.7061C979.897 62.861 980.212 63.0911 980.472 63.3965C980.736 63.6973 980.939 64.071 981.08 64.5176C981.221 64.9642 981.292 65.4769 981.292 66.0557V66.5547C981.292 67.1289 981.221 67.6393 981.08 68.0859C980.939 68.5326 980.736 68.9085 980.472 69.2139C980.212 69.5192 979.9 69.7493 979.535 69.9043C979.171 70.0592 978.76 70.1367 978.305 70.1367C977.849 70.1367 977.437 70.0592 977.067 69.9043C976.703 69.7493 976.388 69.5192 976.124 69.2139C975.86 68.9085 975.657 68.5326 975.516 68.0859C975.379 67.6393 975.311 67.1289 975.311 66.5547ZM977.225 66.0557V66.5547C977.225 66.8965 977.247 67.1927 977.293 67.4434C977.343 67.694 977.414 67.9014 977.505 68.0654C977.601 68.2295 977.715 68.3503 977.847 68.4277C977.979 68.5052 978.132 68.5439 978.305 68.5439C978.478 68.5439 978.633 68.5052 978.77 68.4277C978.906 68.3503 979.018 68.2295 979.104 68.0654C979.196 67.9014 979.262 67.694 979.303 67.4434C979.348 67.1927 979.371 66.8965 979.371 66.5547V66.0557C979.371 65.723 979.346 65.4313 979.296 65.1807C979.246 64.9255 979.175 64.7181 979.084 64.5586C978.993 64.3945 978.879 64.2715 978.742 64.1895C978.61 64.1029 978.46 64.0596 978.291 64.0596C978.122 64.0596 977.972 64.1029 977.84 64.1895C977.712 64.2715 977.601 64.3945 977.505 64.5586C977.414 64.7181 977.343 64.9255 977.293 65.1807C977.247 65.4313 977.225 65.723 977.225 66.0557ZM978.551 61.5645L979.774 59.5068H981.449L979.945 61.5645H978.551ZM976.384 61.5645L977.402 59.5068H979.063L977.758 61.5645H976.384ZM984.416 64.251V70H982.502V62.6035H984.307L984.416 64.251ZM986.159 62.5488L986.132 64.4561C986.045 64.4378 985.94 64.4242 985.817 64.415C985.699 64.4059 985.594 64.4014 985.503 64.4014C985.289 64.4014 985.106 64.4355 984.956 64.5039C984.806 64.5677 984.68 64.6657 984.58 64.7979C984.484 64.9255 984.411 65.085 984.361 65.2764C984.311 65.4678 984.282 65.6842 984.272 65.9258L983.91 65.7891C983.91 65.306 983.947 64.8639 984.02 64.4629C984.097 64.0573 984.211 63.7064 984.361 63.4102C984.512 63.1094 984.692 62.877 984.901 62.7129C985.116 62.5488 985.357 62.4668 985.626 62.4668C985.717 62.4668 985.813 62.4759 985.913 62.4941C986.018 62.5078 986.1 62.526 986.159 62.5488ZM992.195 68.4072V70H987.499V68.4072H992.195ZM992.147 63.7656L988.251 70H986.973V68.7969L990.849 62.6035H992.147V63.7656ZM991.478 62.6035V64.1963H987.048V62.6035H991.478ZM996.338 70.1367C995.832 70.1367 995.383 70.0592 994.991 69.9043C994.604 69.7493 994.276 69.526 994.007 69.2344C993.738 68.9382 993.533 68.5804 993.392 68.1611C993.25 67.7419 993.18 67.2633 993.18 66.7256V66.1172C993.18 65.5156 993.248 64.9893 993.385 64.5381C993.521 64.0824 993.715 63.6995 993.966 63.3896C994.216 63.0798 994.524 62.8496 994.889 62.6992C995.258 62.5443 995.675 62.4668 996.14 62.4668C996.604 62.4668 997.012 62.5443 997.363 62.6992C997.719 62.8496 998.013 63.0775 998.245 63.3828C998.478 63.6836 998.653 64.0573 998.771 64.5039C998.89 64.9505 998.949 65.4701 998.949 66.0625V66.9375H993.993V65.5908H997.069V65.4199C997.069 65.1191 997.037 64.8685 996.974 64.668C996.91 64.4629 996.81 64.3102 996.673 64.21C996.536 64.1097 996.354 64.0596 996.126 64.0596C995.935 64.0596 995.773 64.0983 995.641 64.1758C995.508 64.2533 995.404 64.374 995.326 64.5381C995.249 64.7021 995.192 64.9163 995.155 65.1807C995.119 65.4404 995.101 65.7526 995.101 66.1172V66.7256C995.101 67.0674 995.13 67.3545 995.189 67.5869C995.249 67.8148 995.335 68.0016 995.449 68.1475C995.568 68.2887 995.711 68.3913 995.88 68.4551C996.049 68.5143 996.244 68.5439 996.468 68.5439C996.805 68.5439 997.108 68.4847 997.377 68.3662C997.65 68.2432 997.883 68.0768 998.074 67.8672L998.84 69.0293C998.708 69.2025 998.525 69.3757 998.293 69.5488C998.061 69.722 997.783 69.8633 997.459 69.9727C997.135 70.082 996.762 70.1367 996.338 70.1367ZM994.943 61.6055L996.283 59.4932H998.437L996.55 61.6055H994.943ZM1003.34 68.0039C1003.34 67.8763 1003.29 67.7624 1003.21 67.6621C1003.12 67.5618 1002.98 67.4593 1002.8 67.3545C1002.61 67.2451 1002.36 67.1243 1002.05 66.9922C1001.72 66.8555 1001.42 66.7142 1001.16 66.5684C1000.9 66.4225 1000.68 66.2607 1000.49 66.083C1000.32 65.9053 1000.18 65.7025 1000.09 65.4746C1000 65.2467 999.954 64.987 999.954 64.6953C999.954 64.3809 1000.01 64.0915 1000.12 63.8271C1000.24 63.5583 1000.41 63.3236 1000.63 63.123C1000.85 62.918 1001.12 62.7585 1001.43 62.6445C1001.75 62.526 1002.11 62.4668 1002.5 62.4668C1003.06 62.4668 1003.54 62.5648 1003.93 62.7607C1004.33 62.9521 1004.64 63.221 1004.86 63.5674C1005.07 63.9137 1005.18 64.3171 1005.18 64.7773H1003.26C1003.26 64.6133 1003.24 64.4674 1003.19 64.3398C1003.14 64.2077 1003.06 64.1051 1002.94 64.0322C1002.83 63.9593 1002.68 63.9229 1002.5 63.9229C1002.36 63.9229 1002.24 63.9525 1002.13 64.0117C1002.02 64.071 1001.94 64.1507 1001.88 64.251C1001.82 64.3467 1001.79 64.4606 1001.79 64.5928C1001.79 64.693 1001.81 64.7819 1001.85 64.8594C1001.89 64.9368 1001.96 65.012 1002.06 65.085C1002.16 65.1579 1002.28 65.2354 1002.44 65.3174C1002.61 65.3949 1002.81 65.4814 1003.04 65.5771C1003.54 65.7594 1003.94 65.9554 1004.25 66.165C1004.57 66.3747 1004.81 66.6208 1004.96 66.9033C1005.12 67.1813 1005.2 67.5254 1005.2 67.9355C1005.2 68.2637 1005.13 68.5622 1005.01 68.8311C1004.88 69.0999 1004.7 69.3324 1004.47 69.5283C1004.23 69.7243 1003.94 69.8747 1003.61 69.9795C1003.28 70.0843 1002.92 70.1367 1002.51 70.1367C1001.91 70.1367 1001.41 70.0182 1001 69.7812C1000.59 69.5443 1000.28 69.2412 1000.07 68.8721C999.861 68.4984 999.756 68.111 999.756 67.71H1001.57C1001.58 67.9561 1001.63 68.1497 1001.71 68.291C1001.8 68.4277 1001.91 68.5234 1002.06 68.5781C1002.21 68.6328 1002.37 68.6602 1002.54 68.6602C1002.72 68.6602 1002.87 68.6374 1002.98 68.5918C1003.1 68.5417 1003.19 68.4665 1003.25 68.3662C1003.31 68.2614 1003.34 68.1406 1003.34 68.0039ZM953.101 90.1367C952.595 90.1367 952.146 90.0592 951.754 89.9043C951.367 89.7493 951.038 89.526 950.77 89.2344C950.501 88.9382 950.296 88.5804 950.154 88.1611C950.013 87.7419 949.942 87.2633 949.942 86.7256V86.1172C949.942 85.5156 950.011 84.9893 950.147 84.5381C950.284 84.0824 950.478 83.6995 950.729 83.3896C950.979 83.0798 951.287 82.8496 951.651 82.6992C952.021 82.5443 952.438 82.4668 952.902 82.4668C953.367 82.4668 953.775 82.5443 954.126 82.6992C954.481 82.8496 954.775 83.0775 955.008 83.3828C955.24 83.6836 955.416 84.0573 955.534 84.5039C955.653 84.9505 955.712 85.4701 955.712 86.0625V86.9375H950.756V85.5908H953.832V85.4199C953.832 85.1191 953.8 84.8685 953.736 84.668C953.673 84.4629 953.572 84.3102 953.436 84.21C953.299 84.1097 953.117 84.0596 952.889 84.0596C952.697 84.0596 952.535 84.0983 952.403 84.1758C952.271 84.2533 952.166 84.374 952.089 84.5381C952.011 84.7021 951.954 84.9163 951.918 85.1807C951.882 85.4404 951.863 85.7526 951.863 86.1172V86.7256C951.863 87.0674 951.893 87.3545 951.952 87.5869C952.011 87.8148 952.098 88.0016 952.212 88.1475C952.33 88.2887 952.474 88.3913 952.643 88.4551C952.811 88.5143 953.007 88.5439 953.23 88.5439C953.568 88.5439 953.871 88.4847 954.14 88.3662C954.413 88.2432 954.646 88.0768 954.837 87.8672L955.603 89.0293C955.47 89.2025 955.288 89.3757 955.056 89.5488C954.823 89.722 954.545 89.8633 954.222 89.9727C953.898 90.082 953.524 90.1367 953.101 90.1367ZM951.706 81.6055L953.046 79.4932H955.199L953.312 81.6055H951.706ZM960.101 88.0039C960.101 87.8763 960.057 87.7624 959.971 87.6621C959.884 87.5618 959.747 87.4593 959.561 87.3545C959.374 87.2451 959.125 87.1243 958.815 86.9922C958.478 86.8555 958.18 86.7142 957.92 86.5684C957.66 86.4225 957.439 86.2607 957.257 86.083C957.079 85.9053 956.945 85.7025 956.854 85.4746C956.762 85.2467 956.717 84.987 956.717 84.6953C956.717 84.3809 956.774 84.0915 956.888 83.8271C957.006 83.5583 957.175 83.3236 957.394 83.123C957.612 82.918 957.879 82.7585 958.193 82.6445C958.512 82.526 958.87 82.4668 959.267 82.4668C959.823 82.4668 960.299 82.5648 960.695 82.7607C961.096 82.9521 961.404 83.221 961.618 83.5674C961.832 83.9137 961.939 84.3171 961.939 84.7773H960.025C960.025 84.6133 960 84.4674 959.95 84.3398C959.9 84.2077 959.818 84.1051 959.704 84.0322C959.595 83.9593 959.447 83.9229 959.26 83.9229C959.123 83.9229 959 83.9525 958.891 84.0117C958.786 84.071 958.701 84.1507 958.638 84.251C958.578 84.3467 958.549 84.4606 958.549 84.5928C958.549 84.693 958.569 84.7819 958.61 84.8594C958.656 84.9368 958.727 85.012 958.822 85.085C958.918 85.1579 959.046 85.2354 959.205 85.3174C959.369 85.3949 959.57 85.4814 959.807 85.5771C960.299 85.7594 960.702 85.9554 961.017 86.165C961.336 86.3747 961.573 86.6208 961.728 86.9033C961.882 87.1813 961.96 87.5254 961.96 87.9355C961.96 88.2637 961.896 88.5622 961.769 88.8311C961.646 89.0999 961.465 89.3324 961.229 89.5283C960.992 89.7243 960.707 89.8747 960.374 89.9795C960.046 90.0843 959.679 90.1367 959.273 90.1367C958.676 90.1367 958.173 90.0182 957.763 89.7812C957.353 89.5443 957.043 89.2412 956.833 88.8721C956.623 88.4984 956.519 88.111 956.519 87.71H958.337C958.346 87.9561 958.392 88.1497 958.474 88.291C958.56 88.4277 958.676 88.5234 958.822 88.5781C958.968 88.6328 959.13 88.6602 959.308 88.6602C959.485 88.6602 959.631 88.6374 959.745 88.5918C959.864 88.5417 959.952 88.4665 960.012 88.3662C960.071 88.2614 960.101 88.1406 960.101 88.0039ZM968.714 90H966.8V82.2959C966.8 81.6579 966.911 81.1224 967.135 80.6895C967.363 80.252 967.691 79.9215 968.119 79.6982C968.552 79.4704 969.069 79.3564 969.671 79.3564C970.017 79.3564 970.345 79.3952 970.655 79.4727C970.97 79.5456 971.293 79.6413 971.626 79.7598L971.353 81.3867C971.152 81.3138 970.926 81.2454 970.676 81.1816C970.43 81.1133 970.138 81.0791 969.801 81.0791C969.432 81.0791 969.158 81.1816 968.98 81.3867C968.803 81.5918 968.714 81.8949 968.714 82.2959V90ZM969.855 82.6035V84.0459H965.897V82.6035H969.855ZM972.508 82.6035V90H970.587V82.6035H972.508ZM979.091 88.4072V90H974.395V88.4072H979.091ZM979.043 83.7656L975.146 90H973.868V88.7969L977.744 82.6035H979.043V83.7656ZM978.373 82.6035V84.1963H973.943V82.6035H978.373ZM983.233 90.1367C982.728 90.1367 982.279 90.0592 981.887 89.9043C981.499 89.7493 981.171 89.526 980.902 89.2344C980.633 88.9382 980.428 88.5804 980.287 88.1611C980.146 87.7419 980.075 87.2633 980.075 86.7256V86.1172C980.075 85.5156 980.144 84.9893 980.28 84.5381C980.417 84.0824 980.611 83.6995 980.861 83.3896C981.112 83.0798 981.42 82.8496 981.784 82.6992C982.153 82.5443 982.57 82.4668 983.035 82.4668C983.5 82.4668 983.908 82.5443 984.259 82.6992C984.614 82.8496 984.908 83.0775 985.141 83.3828C985.373 83.6836 985.549 84.0573 985.667 84.5039C985.785 84.9505 985.845 85.4701 985.845 86.0625V86.9375H980.889V85.5908H983.965V85.4199C983.965 85.1191 983.933 84.8685 983.869 84.668C983.805 84.4629 983.705 84.3102 983.568 84.21C983.432 84.1097 983.249 84.0596 983.021 84.0596C982.83 84.0596 982.668 84.0983 982.536 84.1758C982.404 84.2533 982.299 84.374 982.222 84.5381C982.144 84.7021 982.087 84.9163 982.051 85.1807C982.014 85.4404 981.996 85.7526 981.996 86.1172V86.7256C981.996 87.0674 982.026 87.3545 982.085 87.5869C982.144 87.8148 982.231 88.0016 982.345 88.1475C982.463 88.2887 982.607 88.3913 982.775 88.4551C982.944 88.5143 983.14 88.5439 983.363 88.5439C983.701 88.5439 984.004 88.4847 984.272 88.3662C984.546 88.2432 984.778 88.0768 984.97 87.8672L985.735 89.0293C985.603 89.2025 985.421 89.3757 985.188 89.5488C984.956 89.722 984.678 89.8633 984.354 89.9727C984.031 90.082 983.657 90.1367 983.233 90.1367ZM990.179 82.6035V84.0459H986.405V82.6035H990.179ZM987.273 80.7783H989.181V87.7441C989.181 87.9492 989.201 88.1064 989.242 88.2158C989.283 88.3252 989.345 88.4027 989.427 88.4482C989.513 88.4893 989.627 88.5098 989.769 88.5098C989.864 88.5098 989.953 88.5052 990.035 88.4961C990.117 88.4824 990.179 88.4688 990.22 88.4551V89.9521C990.069 90.0114 989.91 90.057 989.741 90.0889C989.577 90.1208 989.381 90.1367 989.153 90.1367C988.771 90.1367 988.438 90.0638 988.155 89.918C987.877 89.7721 987.661 89.5397 987.506 89.2207C987.351 88.8971 987.273 88.4733 987.273 87.9492V80.7783ZM994.226 90.1367C993.72 90.1367 993.271 90.0592 992.879 89.9043C992.492 89.7493 992.163 89.526 991.895 89.2344C991.626 88.9382 991.421 88.5804 991.279 88.1611C991.138 87.7419 991.067 87.2633 991.067 86.7256V86.1172C991.067 85.5156 991.136 84.9893 991.272 84.5381C991.409 84.0824 991.603 83.6995 991.854 83.3896C992.104 83.0798 992.412 82.8496 992.776 82.6992C993.146 82.5443 993.562 82.4668 994.027 82.4668C994.492 82.4668 994.9 82.5443 995.251 82.6992C995.606 82.8496 995.9 83.0775 996.133 83.3828C996.365 83.6836 996.541 84.0573 996.659 84.5039C996.778 84.9505 996.837 85.4701 996.837 86.0625V86.9375H991.881V85.5908H994.957V85.4199C994.957 85.1191 994.925 84.8685 994.861 84.668C994.798 84.4629 994.697 84.3102 994.561 84.21C994.424 84.1097 994.242 84.0596 994.014 84.0596C993.822 84.0596 993.66 84.0983 993.528 84.1758C993.396 84.2533 993.291 84.374 993.214 84.5381C993.136 84.7021 993.079 84.9163 993.043 85.1807C993.007 85.4404 992.988 85.7526 992.988 86.1172V86.7256C992.988 87.0674 993.018 87.3545 993.077 87.5869C993.136 87.8148 993.223 88.0016 993.337 88.1475C993.455 88.2887 993.599 88.3913 993.768 88.4551C993.936 88.5143 994.132 88.5439 994.355 88.5439C994.693 88.5439 994.996 88.4847 995.265 88.3662C995.538 88.2432 995.771 88.0768 995.962 87.8672L996.728 89.0293C996.595 89.2025 996.413 89.3757 996.181 89.5488C995.948 89.722 995.67 89.8633 995.347 89.9727C995.023 90.082 994.649 90.1367 994.226 90.1367ZM992.831 81.6055L994.171 79.4932H996.324L994.438 81.6055H992.831ZM1001.23 88.0039C1001.23 87.8763 1001.18 87.7624 1001.1 87.6621C1001.01 87.5618 1000.87 87.4593 1000.69 87.3545C1000.5 87.2451 1000.25 87.1243 999.94 86.9922C999.603 86.8555 999.305 86.7142 999.045 86.5684C998.785 86.4225 998.564 86.2607 998.382 86.083C998.204 85.9053 998.07 85.7025 997.979 85.4746C997.887 85.2467 997.842 84.987 997.842 84.6953C997.842 84.3809 997.899 84.0915 998.013 83.8271C998.131 83.5583 998.3 83.3236 998.519 83.123C998.737 82.918 999.004 82.7585 999.318 82.6445C999.637 82.526 999.995 82.4668 1000.39 82.4668C1000.95 82.4668 1001.42 82.5648 1001.82 82.7607C1002.22 82.9521 1002.53 83.221 1002.74 83.5674C1002.96 83.9137 1003.06 84.3171 1003.06 84.7773H1001.15C1001.15 84.6133 1001.13 84.4674 1001.08 84.3398C1001.03 84.2077 1000.94 84.1051 1000.83 84.0322C1000.72 83.9593 1000.57 83.9229 1000.38 83.9229C1000.25 83.9229 1000.12 83.9525 1000.02 84.0117C999.911 84.071 999.826 84.1507 999.763 84.251C999.703 84.3467 999.674 84.4606 999.674 84.5928C999.674 84.693 999.694 84.7819 999.735 84.8594C999.781 84.9368 999.852 85.012 999.947 85.085C1000.04 85.1579 1000.17 85.2354 1000.33 85.3174C1000.49 85.3949 1000.69 85.4814 1000.93 85.5771C1001.42 85.7594 1001.83 85.9554 1002.14 86.165C1002.46 86.3747 1002.7 86.6208 1002.85 86.9033C1003.01 87.1813 1003.08 87.5254 1003.08 87.9355C1003.08 88.2637 1003.02 88.5622 1002.89 88.8311C1002.77 89.0999 1002.59 89.3324 1002.35 89.5283C1002.12 89.7243 1001.83 89.8747 1001.5 89.9795C1001.17 90.0843 1000.8 90.1367 1000.4 90.1367C999.801 90.1367 999.298 90.0182 998.888 89.7812C998.478 89.5443 998.168 89.2412 997.958 88.8721C997.748 88.4984 997.644 88.111 997.644 87.71H999.462C999.471 87.9561 999.517 88.1497 999.599 88.291C999.685 88.4277 999.801 88.5234 999.947 88.5781C1000.09 88.6328 1000.25 88.6602 1000.43 88.6602C1000.61 88.6602 1000.76 88.6374 1000.87 88.5918C1000.99 88.5417 1001.08 88.4665 1001.14 88.3662C1001.2 88.2614 1001.23 88.1406 1001.23 88.0039Z" fill="url(#paint3_linear_1252_3882)"/>
<path fill-rule="evenodd" clip-rule="evenodd" d="M338 33H45V31H338V33Z" fill="url(#paint4_linear_1252_3882)"/>
<path fill-rule="evenodd" clip-rule="evenodd" d="M656 33H363V31H656V33Z" fill="url(#paint5_linear_1252_3882)"/>
<path fill-rule="evenodd" clip-rule="evenodd" d="M965 33H684V31H965V33Z" fill="url(#paint6_linear_1252_3882)"/>
<g filter="url(#filter0_d_1252_3882)">
<path d="M32 17C23.7125 17 17 23.7125 17 32C17 34.8125 17.7875 37.475 19.175 39.725C20.497 41.9468 22.3748 43.7861 24.6236 45.0617C26.8724 46.3373 29.4146 47.0053 32 47C37.475 47 42.2375 44.075 44.825 39.725C46.2125 37.475 47 34.8125 47 32C47 23.7125 40.2875 17 32 17ZM39.3875 30.7625L31.4 38.15C30.875 38.6375 30.1625 38.9 29.4875 38.9C28.775 38.9 28.0625 38.6375 27.5 38.075L23.7875 34.3625C23.2644 33.8332 22.9711 33.1191 22.9711 32.375C22.9711 31.6309 23.2644 30.9168 23.7875 30.3875C24.875 29.3 26.675 29.3 27.7625 30.3875L29.5625 32.1875L35.5625 26.6375C36.6875 25.5875 38.4875 25.6625 39.5375 26.7875C40.5875 27.9125 40.5125 29.7125 39.3875 30.7625Z" fill="url(#paint7_linear_1252_3882)"/>
</g>
<g filter="url(#filter1_d_1252_3882)">
<path d="M349 17C340.712 17 334 23.7125 334 32C334 34.8125 334.788 37.475 336.175 39.725C337.497 41.9468 339.375 43.7861 341.624 45.0617C343.872 46.3373 346.415 47.0053 349 47C354.475 47 359.238 44.075 361.825 39.725C363.212 37.475 364 34.8125 364 32C364 23.7125 357.288 17 349 17ZM356.387 30.7625L348.4 38.15C347.875 38.6375 347.162 38.9 346.487 38.9C345.775 38.9 345.062 38.6375 344.5 38.075L340.787 34.3625C340.264 33.8332 339.971 33.1191 339.971 32.375C339.971 31.6309 340.264 30.9168 340.787 30.3875C341.875 29.3 343.675 29.3 344.762 30.3875L346.562 32.1875L352.562 26.6375C353.688 25.5875 355.488 25.6625 356.538 26.7875C357.588 27.9125 357.512 29.7125 356.387 30.7625Z" fill="url(#paint8_linear_1252_3882)"/>
</g>
<g filter="url(#filter2_d_1252_3882)">
<path d="M670 17C661.712 17 655 23.7125 655 32C655 34.8125 655.788 37.475 657.175 39.725C658.497 41.9468 660.375 43.7861 662.624 45.0617C664.872 46.3373 667.415 47.0053 670 47C675.475 47 680.238 44.075 682.825 39.725C684.212 37.475 685 34.8125 685 32C685 23.7125 678.288 17 670 17ZM677.387 30.7625L669.4 38.15C668.875 38.6375 668.162 38.9 667.487 38.9C666.775 38.9 666.062 38.6375 665.5 38.075L661.787 34.3625C661.264 33.8332 660.971 33.1191 660.971 32.375C660.971 31.6309 661.264 30.9168 661.787 30.3875C662.875 29.3 664.675 29.3 665.762 30.3875L667.562 32.1875L673.562 26.6375C674.688 25.5875 676.488 25.6625 677.538 26.7875C678.588 27.9125 678.512 29.7125 677.387 30.7625Z" fill="url(#paint9_linear_1252_3882)"/>
</g>
<g filter="url(#filter3_d_1252_3882)">
<path d="M977 17C968.712 17 962 23.7125 962 32C962 34.8125 962.788 37.475 964.175 39.725C965.497 41.9468 967.375 43.7861 969.624 45.0617C971.872 46.3373 974.415 47.0053 977 47C982.475 47 987.238 44.075 989.825 39.725C991.212 37.475 992 34.8125 992 32C992 23.7125 985.288 17 977 17ZM984.387 30.7625L976.4 38.15C975.875 38.6375 975.162 38.9 974.487 38.9C973.775 38.9 973.062 38.6375 972.5 38.075L968.787 34.3625C968.264 33.8332 967.971 33.1191 967.971 32.375C967.971 31.6309 968.264 30.9168 968.787 30.3875C969.875 29.3 971.675 29.3 972.762 30.3875L974.562 32.1875L980.562 26.6375C981.688 25.5875 983.488 25.6625 984.538 26.7875C985.588 27.9125 985.512 29.7125 984.387 30.7625Z" fill="url(#paint10_linear_1252_3882)"/>
</g>
<defs>
<filter id="filter0_d_1252_3882" x="0" y="0" width="74" height="74" filterUnits="userSpaceOnUse" color-interpolation-filters="sRGB">
<feFlood flood-opacity="0" result="BackgroundImageFix"/>
<feColorMatrix in="SourceAlpha" type="matrix" values="0 0 0 0 0 0 0 0 0 0 0 0 0 0 0 0 0 0 127 0" result="hardAlpha"/>
<feOffset dx="5" dy="5"/>
<feGaussianBlur stdDeviation="11"/>
<feComposite in2="hardAlpha" operator="out"/>
<feColorMatrix type="matrix" values="0 0 0 0 0.0392157 0 0 0 0 0.560784 0 0 0 0 0.309804 0 0 0 0.2 0"/>
<feBlend mode="normal" in2="BackgroundImageFix" result="effect1_dropShadow_1252_3882"/>
<feBlend mode="normal" in="SourceGraphic" in2="effect1_dropShadow_1252_3882" result="shape"/>
</filter>
<filter id="filter1_d_1252_3882" x="317" y="0" width="74" height="74" filterUnits="userSpaceOnUse" color-interpolation-filters="sRGB">
<feFlood flood-opacity="0" result="BackgroundImageFix"/>
<feColorMatrix in="SourceAlpha" type="matrix" values="0 0 0 0 0 0 0 0 0 0 0 0 0 0 0 0 0 0 127 0" result="hardAlpha"/>
<feOffset dx="5" dy="5"/>
<feGaussianBlur stdDeviation="11"/>
<feComposite in2="hardAlpha" operator="out"/>
<feColorMatrix type="matrix" values="0 0 0 0 0.0392157 0 0 0 0 0.560784 0 0 0 0 0.309804 0 0 0 0.2 0"/>
<feBlend mode="normal" in2="BackgroundImageFix" result="effect1_dropShadow_1252_3882"/>
<feBlend mode="normal" in="SourceGraphic" in2="effect1_dropShadow_1252_3882" result="shape"/>
</filter>
<filter id="filter2_d_1252_3882" x="638" y="0" width="74" height="74" filterUnits="userSpaceOnUse" color-interpolation-filters="sRGB">
<feFlood flood-opacity="0" result="BackgroundImageFix"/>
<feColorMatrix in="SourceAlpha" type="matrix" values="0 0 0 0 0 0 0 0 0 0 0 0 0 0 0 0 0 0 127 0" result="hardAlpha"/>
<feOffset dx="5" dy="5"/>
<feGaussianBlur stdDeviation="11"/>
<feComposite in2="hardAlpha" operator="out"/>
<feColorMatrix type="matrix" values="0 0 0 0 0.0392157 0 0 0 0 0.560784 0 0 0 0 0.309804 0 0 0 0.2 0"/>
<feBlend mode="normal" in2="BackgroundImageFix" result="effect1_dropShadow_1252_3882"/>
<feBlend mode="normal" in="SourceGraphic" in2="effect1_dropShadow_1252_3882" result="shape"/>
</filter>
<filter id="filter3_d_1252_3882" x="945" y="0" width="74" height="74" filterUnits="userSpaceOnUse" color-interpolation-filters="sRGB">
<feFlood flood-opacity="0" result="BackgroundImageFix"/>
<feColorMatrix in="SourceAlpha" type="matrix" values="0 0 0 0 0 0 0 0 0 0 0 0 0 0 0 0 0 0 127 0" result="hardAlpha"/>
<feOffset dx="5" dy="5"/>
<feGaussianBlur stdDeviation="11"/>
<feComposite in2="hardAlpha" operator="out"/>
<feColorMatrix type="matrix" values="0 0 0 0 0.0392157 0 0 0 0 0.560784 0 0 0 0 0.309804 0 0 0 0.2 0"/>
<feBlend mode="normal" in2="BackgroundImageFix" result="effect1_dropShadow_1252_3882"/>
<feBlend mode="normal" in="SourceGraphic" in2="effect1_dropShadow_1252_3882" result="shape"/>
</filter>
<linearGradient id="paint0_linear_1252_3882" x1="32" y1="85" x2="32" y2="57" gradientUnits="userSpaceOnUse">
<stop stop-color="#5CCC94"/>
<stop offset="1" stop-color="#8CCAAE"/>
</linearGradient>
<linearGradient id="paint1_linear_1252_3882" x1="349" y1="77" x2="349" y2="57" gradientUnits="userSpaceOnUse">
<stop stop-color="#5CCC94"/>
<stop offset="1" stop-color="#8CCAAE"/>
</linearGradient>
<linearGradient id="paint2_linear_1252_3882" x1="672.5" y1="77" x2="672.5" y2="57" gradientUnits="userSpaceOnUse">
<stop stop-color="#5CCC94"/>
<stop offset="1" stop-color="#8CCAAE"/>
</linearGradient>
<linearGradient id="paint3_linear_1252_3882" x1="976.5" y1="95" x2="976.5" y2="55" gradientUnits="userSpaceOnUse">
<stop stop-color="#5CCC94"/>
<stop offset="1" stop-color="#8CCAAE"/>
</linearGradient>
<linearGradient id="paint4_linear_1252_3882" x1="191.5" y1="33" x2="191.5" y2="31" gradientUnits="userSpaceOnUse">
<stop stop-color="#5CCC94"/>
<stop offset="1" stop-color="#8CCAAE"/>
</linearGradient>
<linearGradient id="paint5_linear_1252_3882" x1="509.5" y1="33" x2="509.5" y2="31" gradientUnits="userSpaceOnUse">
<stop stop-color="#5CCC94"/>
<stop offset="1" stop-color="#8CCAAE"/>
</linearGradient>
<linearGradient id="paint6_linear_1252_3882" x1="824.5" y1="33" x2="824.5" y2="31" gradientUnits="userSpaceOnUse">
<stop stop-color="#5CCC94"/>
<stop offset="1" stop-color="#8CCAAE"/>
</linearGradient>
<linearGradient id="paint7_linear_1252_3882" x1="32" y1="47" x2="32" y2="17" gradientUnits="userSpaceOnUse">
<stop stop-color="#5CCC94"/>
<stop offset="1" stop-color="#8CCAAE"/>
</linearGradient>
<linearGradient id="paint8_linear_1252_3882" x1="349" y1="47" x2="349" y2="17" gradientUnits="userSpaceOnUse">
<stop stop-color="#5CCC94"/>
<stop offset="1" stop-color="#8CCAAE"/>
</linearGradient>
<linearGradient id="paint9_linear_1252_3882" x1="670" y1="47" x2="670" y2="17" gradientUnits="userSpaceOnUse">
<stop stop-color="#5CCC94"/>
<stop offset="1" stop-color="#8CCAAE"/>
</linearGradient>
<linearGradient id="paint10_linear_1252_3882" x1="977" y1="47" x2="977" y2="17" gradientUnits="userSpaceOnUse">
<stop stop-color="#5CCC94"/>
<stop offset="1" stop-color="#8CCAAE"/>
</linearGradient>
</defs>
</svg>
