<svg width="512" height="179" viewBox="0 0 512 179" fill="none" xmlns="http://www.w3.org/2000/svg">
<path fill-rule="evenodd" clip-rule="evenodd" d="M145.9 105.418L133.95 86.9006V86.8951C133.317 85.9144 132.98 84.773 132.98 83.607C132.98 82.441 133.317 81.2996 133.95 80.3189L145.893 61.7963C146.446 60.9386 147.206 60.2331 148.105 59.7445C149.003 59.2559 150.01 58.9999 151.033 59L352.406 59H358.41L492.986 59.0014C494.01 59.0013 495.017 59.2573 495.915 59.7459C496.813 60.2345 497.573 60.94 498.126 61.7976L510.069 80.3203C510.702 81.301 511.039 82.4424 511.039 83.6084C511.039 84.7744 510.702 85.9158 510.069 86.8965V86.9019L498.119 105.419C497.566 106.277 496.806 106.982 495.908 107.471C495.009 107.959 494.002 108.215 492.979 108.215L358.418 108.214H352.398L151.04 108.214C150.017 108.214 149.01 107.958 148.112 107.469C147.214 106.981 146.453 106.275 145.9 105.418Z" fill="url(#paint0_linear_109_183)"/>
<g filter="url(#filter0_d_109_183)">
<path d="M60.4968 17L126.15 17C128.024 16.9992 129.865 17.4917 131.488 18.428C133.111 19.3643 134.458 20.7114 135.395 22.3336L139.234 28.9754L144.268 37.6939L153.792 54.1612L155.142 56.5216L167.041 77.1515L168.203 79.1641C169.141 80.7854 169.634 82.625 169.634 84.4977C169.634 86.3704 169.141 88.21 168.203 89.8313L167.041 91.8485L153.769 114.811L144.268 131.306L139.321 139.864L135.395 146.662C134.458 148.285 133.111 149.632 131.488 150.569C129.866 151.506 128.024 152 126.15 152L60.4968 152C58.6234 151.999 56.7833 151.505 55.1614 150.568C53.5394 149.631 52.1928 148.284 51.257 146.662L26.8875 104.473L19.5972 91.8485L18.4348 89.8313C17.4949 88.2107 17 86.3708 17 84.4977C17 82.6246 17.4949 80.7847 18.4348 79.1641L19.5972 77.1469L26.9195 64.4853L31.5188 56.5216L51.257 22.3336C52.1935 20.7114 53.5409 19.3643 55.1638 18.428C56.7866 17.4917 58.6276 16.9992 60.5014 17" fill="url(#paint1_linear_109_183)"/>
</g>
<defs>
<filter id="filter0_d_109_183" x="0" y="0" width="196.635" height="179" filterUnits="userSpaceOnUse" color-interpolation-filters="sRGB">
<feFlood flood-opacity="0" result="BackgroundImageFix"/>
<feColorMatrix in="SourceAlpha" type="matrix" values="0 0 0 0 0 0 0 0 0 0 0 0 0 0 0 0 0 0 127 0" result="hardAlpha"/>
<feOffset dx="5" dy="5"/>
<feGaussianBlur stdDeviation="11"/>
<feComposite in2="hardAlpha" operator="out"/>
<feColorMatrix type="matrix" values="0 0 0 0 0.960784 0 0 0 0 0.490196 0 0 0 0 0.129412 0 0 0 0.2 0"/>
<feBlend mode="normal" in2="BackgroundImageFix" result="effect1_dropShadow_109_183"/>
<feBlend mode="normal" in="SourceGraphic" in2="effect1_dropShadow_109_183" result="shape"/>
</filter>
<linearGradient id="paint0_linear_109_183" x1="322.01" y1="108.215" x2="322.01" y2="59" gradientUnits="userSpaceOnUse">
<stop stop-color="#5CCC94"/>
<stop offset="1" stop-color="#8CCAAE"/>
</linearGradient>
<linearGradient id="paint1_linear_109_183" x1="17" y1="84.5" x2="169.634" y2="84.5" gradientUnits="userSpaceOnUse">
<stop stop-color="#F58C1F"/>
<stop offset="1" stop-color="#F57D21"/>
</linearGradient>
</defs>
</svg>
