<svg width="323" height="130" viewBox="0 0 323 130" fill="none" xmlns="http://www.w3.org/2000/svg">
<path fill-rule="evenodd" clip-rule="evenodd" d="M46.7739 94.7935L37.7338 66.9512V66.9429C37.2547 65.4684 37 63.7522 37 61.999C37 60.2458 37.2547 58.5296 37.7338 57.055L46.7683 29.2044C47.1866 27.9149 47.7619 26.8541 48.4413 26.1195C49.1207 25.3848 49.8825 24.9999 50.6567 25L202.995 25H207.536L309.344 25.0021C310.118 25.002 310.88 25.3869 311.559 26.1215C312.239 26.8562 312.814 27.917 313.232 29.2065L322.267 57.0571C322.746 58.5317 323 60.2479 323 62.001C323 63.7542 322.746 65.4704 322.267 66.945V66.9532L313.227 94.7956C312.808 96.0851 312.233 97.1459 311.554 97.8805C310.874 98.6152 310.112 99.0001 309.338 99L207.542 98.9979H202.99L50.6622 98.9979C49.888 98.9981 49.1262 98.6131 48.4468 97.8785C47.7674 97.1438 47.1922 96.083 46.7739 94.7935Z" fill="url(#paint0_linear_515_951)"/>
<g filter="url(#filter0_d_515_951)">
<path d="M44.3471 12.9997L91.662 12.9997C93.0124 12.9991 94.3392 13.3541 95.5087 14.0288C96.6783 14.7036 97.6494 15.6744 98.3243 16.8435L101.091 21.6301L104.719 27.9133L111.583 39.7809L112.556 41.482L121.131 56.3494L121.969 57.7999C122.644 58.9684 123 60.2941 123 61.6437C123 62.9933 122.644 64.3191 121.969 65.4875L121.131 66.9413L111.566 83.49L104.719 95.3774L101.154 101.545L98.3243 106.444C97.6495 107.613 96.6785 108.585 95.509 109.26C94.3395 109.935 93.0127 110.291 91.662 110.291L44.3471 110.291C42.997 110.29 41.6709 109.934 40.502 109.259C39.3331 108.584 38.3627 107.613 37.6882 106.444L20.1257 76.0398L14.8717 66.9413L14.034 65.4875C13.3567 64.3196 13 62.9936 13 61.6437C13 60.2938 13.3567 58.9678 14.034 57.7999L14.8717 56.3461L20.1487 47.2213L23.4634 41.482L37.6882 16.8435C38.3631 15.6744 39.3342 14.7036 40.5037 14.0288C41.6733 13.3541 43 12.9991 44.3504 12.9997" fill="url(#paint1_linear_515_951)"/>
</g>
<defs>
<filter id="filter0_d_515_951" x="0.659259" y="0.659259" width="141.941" height="129.232" filterUnits="userSpaceOnUse" color-interpolation-filters="sRGB">
<feFlood flood-opacity="0" result="BackgroundImageFix"/>
<feColorMatrix in="SourceAlpha" type="matrix" values="0 0 0 0 0 0 0 0 0 0 0 0 0 0 0 0 0 0 127 0" result="hardAlpha"/>
<feOffset dx="3.62963" dy="3.62963"/>
<feGaussianBlur stdDeviation="7.98519"/>
<feComposite in2="hardAlpha" operator="out"/>
<feColorMatrix type="matrix" values="0 0 0 0 0.960784 0 0 0 0 0.490196 0 0 0 0 0.129412 0 0 0 0.2 0"/>
<feBlend mode="normal" in2="BackgroundImageFix" result="effect1_dropShadow_515_951"/>
<feBlend mode="normal" in="SourceGraphic" in2="effect1_dropShadow_515_951" result="shape"/>
</filter>
<linearGradient id="paint0_linear_515_951" x1="180" y1="99" x2="180" y2="25" gradientUnits="userSpaceOnUse">
<stop stop-color="#5CCC94"/>
<stop offset="1" stop-color="#8CCAAE"/>
</linearGradient>
<linearGradient id="paint1_linear_515_951" x1="13" y1="61.6454" x2="123" y2="61.6454" gradientUnits="userSpaceOnUse">
<stop stop-color="#F58C1F"/>
<stop offset="1" stop-color="#F57D21"/>
</linearGradient>
</defs>
</svg>
