<?xml version="1.0"?>
<svg xmlns="http://www.w3.org/2000/svg" enable-background="new 0 0 100 100" height="512px" viewBox="0 0 100 100" width="512px" class=""><g><path d="m48.9759827 11.77742h-37.2602263c-3.709033 0-6.7157564 3.0067778-6.7157564 6.7157574v62.8401794c0 3.7090302 3.0067234 6.7157516 6.7157564 6.7157516h47.9695778c3.709034 0 6.7157593-3.0067215 6.7157593-6.7157516v-52.1308288z" fill="#ebf0f3" data-original="#EBF0F3" class="" style="fill:#EBF0F3"/><g fill="#d5d6db"><path d="m48.9759827 22.4867725c0 3.7089787 3.0067215 6.7157555 6.7157555 6.7157555h10.7093544l-17.4251099-17.425108z" data-original="#000000" class=""/><path d="m13.947466 39.471417h43.506157v3.072449h-43.506157z" data-original="#000000" class=""/><path d="m13.947466 49.756676h43.506157v3.072449h-43.506157z" data-original="#000000" class=""/><path d="m13.947466 60.041931h43.506157v3.072449h-43.506157z" data-original="#000000" class=""/><path d="m13.947466 70.327187h43.506157v3.072449h-43.506157z" data-original="#000000" class=""/></g><path d="m40.1941643 28.7794228c-.3840027-.5048695-.9331779-.86199-1.6475182-1.0714645.5532036-.273941.9667778-.6338005 1.2406654-1.0795803.273941-.4457798.4108849-.9210796.4108849-1.4259987 0-.5424538-.1544189-1.0621071-.4632034-1.5589123-.3088341-.4968052-.7358475-.8646793-1.2809906-1.1037235-.4129257-.1809998-.9292908-.2928543-1.5471115-.3367615v-1.4709969h-1.5505981v1.4492435h-.7841378v-1.4492435h-1.5505486v1.4492435h-.6566963v-.0036335h-1.7340393v1.3898087h1.2209053v9.0307941h-1.2209053v1.3897591h1.2209053v.0039825h1.1698303v1.4517555h1.5505486v-1.4517555h.7841377v1.4517555h1.5505981v-1.464798c.5159683-.0249901.9675255-.086319 1.3537674-.1843338.518261-.1316185.9493065-.3263092 1.2930374-.5841179.3437309-.2578125.6324043-.6243935.8660736-1.0996933.2336159-.4752998.3504486-.9895763.3504486-1.5427818.0000001-.6874618-.1920012-1.283678-.5760535-1.7885474zm-6.7794419-5.2044526h2.3605194c.8485985 0 1.4474525.0550556 1.796608.1651707.3490601.1101131.6176224.3142109.8055916.6122932.1880188.2980824.2820053.643158.2820053 1.0352764 0 .4135227-.1007042.7573032-.3021164 1.0311928-.2014084.2738895-.5008354.4699726-.8983307.5881519-.3007698.0912952-.7975235.1369438-1.4904137.1369438h-2.5538635zm5.502533 7.9879532c-.1557617.2873306-.3544807.5062141-.5962143.6565971-.2416801.1503868-.5424538.2578125-.9022636.3222275-.2041473.0376358-.5586319.0564499-1.0634499.0564499h-.9990349-.7841377-1.1574326v-4.0604572h2.7311287c.7519302 0 1.3279343.0658092 1.7281151.1973782.4001312.1315689.7129517.3598595.9385529.6847744.2255554.3249645.338356.7076721.338356 1.148077 0 .3759384-.077858.7076225-.2336197.9949531z" fill="#44c4a1" data-original="#44C4A1" class="active-path" style="fill:#EBF0F3" data-old_color="#44C4A1"/><path d="m65.5899506 75.6381378h-35.6389332c-1.8375072 0-3.327076 1.4895706-3.327076 3.3269882v6.4673462h42.2929993v-6.4673462c-.0000019-1.8374176-1.489481-3.3269882-3.3269901-3.3269882z" fill="#fcd462" data-original="#FCD462" class=""/><path d="m71.4075165 84.5564423h-47.2741509c-1.0123806 0-1.8331566.8206024-1.8331566 1.8330688 0 1.0123825.820776 1.8330688 1.8331566 1.8330688h47.2741508c1.0124664 0 1.8331528-.8206863 1.8331528-1.8330688.0000001-1.0124664-.8206863-1.8330688-1.8331527-1.8330688z" fill="#f7be56" data-original="#F7BE56" class=""/><path d="m93.4579926 73.0907059-31.7919922-20.8626633-3.7477341 5.7110634 31.7919922 20.8626595c1.5770493 1.0348969 3.6944427.5954742 4.7293396-.981575l.000061-.0000916c1.0349579-1.5771332.5953827-3.6945038-.9816665-4.729393z" fill="#f0a67a" data-original="#F0A67A" class=""/><path d="m46.546986 39.742405h19.482126v26.083508h-19.482126z" fill="#e69871" transform="matrix(.836 .549 -.549 .836 38.188 -22.228)" data-original="#E69871" class="" style="fill:#E69871"/><g fill="#f0a67a"><path d="m73.1500092 47.7772141-18.9794579-12.454773c-1.0226402-.6710815-2.3957176-.3860779-3.0667992.6365662-.6710815 1.0226402-.3860779 2.3957138.6365662 3.0667953l18.979454 12.4547729c1.022644.6710815 2.3957214.3860779 3.066803-.6365662.6710816-1.0226401.3860779-2.3957137-.6365661-3.0667952z" data-original="#000000" class=""/><path d="m60.7559814 66.6641083-18.9794578-12.4547692c-1.022644-.6710815-2.3957176-.3860779-3.0667992.6365623-.6710815 1.022644-.3860779 2.3957176.6365623 3.0667992l18.9794617 12.4547691c1.0226402.6710815 2.3957176.3860779 3.0667992-.6365662.6710816-1.0226363.3860741-2.3957137-.6365662-3.0667952z" data-original="#000000" class=""/></g></g> </svg>
