<?xml version="1.0"?>
<svg xmlns="http://www.w3.org/2000/svg" xmlns:xlink="http://www.w3.org/1999/xlink" version="1.1" id="Layer_1" x="0px" y="0px" viewBox="0 0 512 512" style="enable-background:new 0 0 512 512;" xml:space="preserve" width="512px" height="512px" class=""><g><circle style="fill:#2776CA" cx="256" cy="256" r="256" data-original="#FF5419" class="" data-old_color="#FF5419"/><path style="fill:#1063AE" d="M502.577,325.015L369.776,192.215l-152.04,133.553l-75.516,72.454L255.998,512l0,0  C373.47,512,472.452,432.874,502.577,325.015z" data-original="#C92F00" class="active-path" data-old_color="#C92F00"/><polygon style="fill:#FFFFFF;" points="291.34,113.778 142.22,113.778 142.22,398.222 369.776,398.222 369.776,192.215 " data-original="#FFFFFF" class=""/><polygon style="fill:#D0D1D3;" points="369.776,192.215 291.34,113.778 255.426,113.778 255.426,398.222 369.776,398.222 " data-original="#D0D1D3" class=""/><polygon style="fill:#A6A8AA;" points="291.34,192.215 369.776,192.215 291.34,113.778 " data-original="#A6A8AA"/><circle style="fill:#EAA22F;" cx="307.148" cy="335.593" r="22.699" data-original="#EAA22F"/><path style="fill:#E09112;" d="M307.143,312.889c12.536,0,22.699,10.162,22.699,22.699c0,12.536-10.162,22.699-22.699,22.699  L307.143,312.889L307.143,312.889z" data-original="#E09112" class=""/><g>
	<path style="fill:#808183;" d="M327.111,259.448H184.889c-1.903,0-3.448-1.545-3.448-3.448s1.545-3.448,3.448-3.448h142.222   c1.903,0,3.448,1.545,3.448,3.448S329.014,259.448,327.111,259.448z" data-original="#808183"/>
	<path style="fill:#808183;" d="M327.111,231.003H184.889c-1.903,0-3.448-1.545-3.448-3.448s1.545-3.448,3.448-3.448h142.222   c1.903,0,3.448,1.545,3.448,3.448S329.014,231.003,327.111,231.003z" data-original="#808183"/>
	<path style="fill:#808183;" d="M227.556,202.559h-42.667c-1.903,0-3.448-1.545-3.448-3.448c0-1.903,1.545-3.448,3.448-3.448h42.667   c1.903,0,3.448,1.545,3.448,3.448C231.003,201.014,229.459,202.559,227.556,202.559z" data-original="#808183"/>
	<path style="fill:#808183;" d="M327.111,287.892H184.889c-1.903,0-3.448-1.545-3.448-3.448s1.545-3.448,3.448-3.448h142.222   c1.903,0,3.448,1.545,3.448,3.448S329.014,287.892,327.111,287.892z" data-original="#808183"/>
</g><g>
	<path style="fill:#59595B;" d="M327.111,252.552h-71.685v6.896h71.685c1.903,0,3.448-1.545,3.448-3.448   S329.014,252.552,327.111,252.552z" data-original="#59595B"/>
	<path style="fill:#59595B;" d="M327.111,224.108h-71.685v6.896h71.685c1.903,0,3.448-1.545,3.448-3.448   S329.014,224.108,327.111,224.108z" data-original="#59595B"/>
	<path style="fill:#59595B;" d="M327.111,280.997h-71.685v6.896h71.685c1.903,0,3.448-1.545,3.448-3.448   S329.014,280.997,327.111,280.997z" data-original="#59595B"/>
</g><g>
	<path style="fill:#808183;" d="M227.556,344.781h-42.667c-1.903,0-3.448-1.545-3.448-3.448s1.545-3.448,3.448-3.448h42.667   c1.903,0,3.448,1.545,3.448,3.448S229.459,344.781,227.556,344.781z" data-original="#808183"/>
	<path style="fill:#808183;" d="M227.556,331.852h-42.667c-1.903,0-3.448-1.545-3.448-3.448s1.545-3.448,3.448-3.448h42.667   c1.903,0,3.448,1.545,3.448,3.448S229.459,331.852,227.556,331.852z" data-original="#808183"/>
</g></g> </svg>
