<?xml version="1.0"?>
<svg xmlns="http://www.w3.org/2000/svg" xmlns:xlink="http://www.w3.org/1999/xlink" version="1.1" id="Capa_1" x="0px" y="0px" viewBox="0 0 512 512" style="enable-background:new 0 0 512 512;" xml:space="preserve" width="512px" height="512px" class=""><g><path style="fill:#16C169" d="M254.532,89.468c-4.203,0-7.611-3.407-7.611-7.611v-36.95c0-4.204,3.408-7.611,7.611-7.611  s7.611,3.407,7.611,7.611v36.95C262.143,86.061,258.735,89.468,254.532,89.468z" data-original="#70B5E8" class="active-path" data-old_color="#18D473"/><path style="fill:#E5E1DA;" d="M381.465,146.901v353.08c66.413-16.314,68.929-16.572,70.764-17.893h-0.001  c5.801-3.182,8.996-9.952,7.344-16.684C450.787,429.577,390.117,182.183,381.465,146.901z" data-original="#E5E1DA"/><path style="fill:#DBD7D1;" d="M412.925,275.185c-14.578-59.448-31.46-128.285-31.46-128.285v353.08  c12.667-3.111,23.004-5.637,31.46-7.699V275.185z" data-original="#DBD7D1" class=""/><path style="fill:#F9F6ED;" d="M367.503,82.314c-10.007,0-293.413,0-300.531,0c-8.271,0-14.977,6.706-14.977,14.977  c0,83.219,0,316.475,0,399.683c0,11.61,11.005,14.385,11.106,14.454c2.958,0.706,1.726,0.495,20.773,0.524  c305.771,0,283.88,0.281,287.501-0.524h-0.001c6.393-1.709,11.107-7.523,11.107-14.454V320.234c0-0.007,0-0.013,0-0.02  c0-27.122,0-203.753,0-222.923C382.48,89.02,375.774,82.314,367.503,82.314z" data-original="#F9F6ED"/><path style="fill:#EFECE4;" d="M81.678,498.161c0-83.703,0-318.343,0-402.055c0-6.166,3.709-11.46,9.014-13.791  c-13.804,0-22.543,0-23.72,0c-8.271,0-14.977,6.705-14.977,14.977c0,83.219,0,316.475,0,399.684  c0,11.61,11.005,14.385,11.106,14.454c2.958,0.706,1.726,0.495,20.773,0.524c2.349,0,4.678,0,6.989,0  C87.651,510.522,81.678,506.742,81.678,498.161z" data-original="#EFECE4"/><g>
	<path style="fill:#E2D9C7;" d="M329.736,288.548H158.397c-4.203,0-7.611-3.407-7.611-7.611c0-4.204,3.408-7.611,7.611-7.611   h171.338c4.203,0,7.611,3.407,7.611,7.611C337.347,285.141,333.939,288.548,329.736,288.548z" data-original="#E2D9C7"/>
	<path style="fill:#E2D9C7;" d="M329.736,257.046H158.397c-4.203,0-7.611-3.407-7.611-7.611c0-4.204,3.408-7.611,7.611-7.611   h171.338c4.203,0,7.611,3.407,7.611,7.611C337.347,253.639,333.939,257.046,329.736,257.046z" data-original="#E2D9C7"/>
	<path style="fill:#E2D9C7;" d="M329.736,320.05H158.397c-4.203,0-7.611-3.407-7.611-7.611c0-4.204,3.408-7.611,7.611-7.611h171.338   c4.203,0,7.611,3.407,7.611,7.611C337.347,316.643,333.939,320.05,329.736,320.05z" data-original="#E2D9C7"/>
	<path style="fill:#E2D9C7;" d="M329.736,351.552H158.397c-4.203,0-7.611-3.407-7.611-7.611s3.408-7.611,7.611-7.611h171.338   c4.203,0,7.611,3.407,7.611,7.611S333.939,351.552,329.736,351.552z" data-original="#E2D9C7"/>
	<path style="fill:#E2D9C7;" d="M329.736,414.556H158.397c-4.203,0-7.611-3.407-7.611-7.611s3.408-7.611,7.611-7.611h171.338   c4.203,0,7.611,3.407,7.611,7.611C337.347,411.149,333.939,414.556,329.736,414.556z" data-original="#E2D9C7"/>
	<path style="fill:#E2D9C7;" d="M329.736,383.055H158.397c-4.203,0-7.611-3.407-7.611-7.611s3.408-7.611,7.611-7.611h171.338   c4.203,0,7.611,3.407,7.611,7.611C337.347,379.648,333.939,383.055,329.736,383.055z" data-original="#E2D9C7"/>
</g><path style="fill:#666666;" d="M120.003,280.937h-7.146c-6.698,0-12.178-5.48-12.178-12.178v-7.146  c0-6.698,5.48-12.178,12.178-12.178h7.146c6.698,0,12.178,5.48,12.178,12.178v7.146  C132.181,275.457,126.701,280.937,120.003,280.937z" data-original="#666666" class=""/><path style="fill:#595A5B" d="M116.431,268.758v-7.146c0-5.183,3.287-9.624,7.875-11.373c-1.341-0.511-2.788-0.804-4.302-0.804  h-7.146c-6.698,0-12.178,5.48-12.178,12.178v7.146c0,6.697,5.48,12.178,12.178,12.178h7.146c1.515,0,2.962-0.293,4.302-0.804  C119.718,278.383,116.431,273.942,116.431,268.758z" data-original="#595A5B" class=""/><path style="fill:#16C169" d="M204.805,164.627c-17.907,0-32.475-14.568-32.475-32.475V44.906C172.331,20.145,192.475,0,217.237,0  s44.906,20.145,44.906,44.906c0,4.204-3.408,7.611-7.611,7.611c-4.203,0-7.611-3.407-7.611-7.611  c0-16.369-13.316-29.684-29.684-29.684s-29.684,13.315-29.684,29.684v87.246c0,9.513,7.739,17.253,17.253,17.253  c9.513,0,17.253-7.739,17.253-17.253V45.378c0-2.658-2.162-4.82-4.82-4.82c-2.658,0-4.82,2.162-4.82,4.82v87.088  c0,4.204-3.408,7.611-7.611,7.611c-4.203,0-7.611-3.407-7.611-7.611V45.378c0-11.052,8.991-20.043,20.043-20.043  c11.051,0,20.043,8.99,20.043,20.043v86.775C237.28,150.059,222.712,164.627,204.805,164.627z" data-original="#70B5E8" class="active-path" data-old_color="#18D473"/><g>
	<path style="fill:#EAE4D6" d="M158.651,212.419h-0.254c-4.203,0-7.611-3.407-7.611-7.611c0-4.204,3.408-7.611,7.611-7.611h0.254   c4.203,0,7.611,3.407,7.611,7.611C166.262,209.012,162.854,212.419,158.651,212.419z" data-original="#EAE4D6" class=""/>
	<path style="fill:#EAE4D6" d="M235.322,212.419h-0.54c-4.203,0-7.611-3.407-7.611-7.611c0-4.204,3.408-7.611,7.611-7.611h0.54   c4.203,0,7.611,3.407,7.611,7.611C242.933,209.012,239.525,212.419,235.322,212.419z M196.986,212.419h-0.54   c-4.203,0-7.611-3.407-7.611-7.611c0-4.204,3.408-7.611,7.611-7.611h0.54c4.203,0,7.611,3.407,7.611,7.611   C204.598,209.012,201.189,212.419,196.986,212.419z" data-original="#EAE4D6" class=""/>
	<path style="fill:#EAE4D6" d="M273.371,212.419h-0.254c-4.203,0-7.611-3.407-7.611-7.611c0-4.204,3.408-7.611,7.611-7.611h0.254   c4.203,0,7.611,3.407,7.611,7.611C280.982,209.012,277.574,212.419,273.371,212.419z" data-original="#EAE4D6" class=""/>
</g><path style="fill:#666666;" d="M120.003,343.941h-7.146c-6.698,0-12.178-5.48-12.178-12.178v-7.146  c0-6.698,5.48-12.178,12.178-12.178h7.146c6.698,0,12.178,5.48,12.178,12.178v7.146  C132.181,338.461,126.701,343.941,120.003,343.941z" data-original="#666666" class=""/><path style="fill:#595A5B" d="M116.431,331.763v-7.146c0-5.183,3.287-9.624,7.875-11.373c-1.341-0.511-2.788-0.804-4.302-0.804  h-7.146c-6.698,0-12.178,5.48-12.178,12.178v7.146c0,6.698,5.48,12.178,12.178,12.178h7.146c1.515,0,2.962-0.293,4.302-0.804  C119.718,341.388,116.431,336.947,116.431,331.763z" data-original="#595A5B" class=""/><path style="fill:#666666;" d="M120.003,406.946h-7.146c-6.698,0-12.178-5.48-12.178-12.178v-7.146  c0-6.698,5.48-12.178,12.178-12.178h7.146c6.698,0,12.178,5.48,12.178,12.178v7.146  C132.181,401.466,126.701,406.946,120.003,406.946z" data-original="#666666" class=""/><path style="fill:#595A5B" d="M116.431,394.767v-7.146c0-5.183,3.287-9.624,7.875-11.373c-1.341-0.511-2.788-0.804-4.302-0.804  h-7.146c-6.698,0-12.178,5.48-12.178,12.178v7.146c0,6.698,5.48,12.178,12.178,12.178h7.146c1.515,0,2.962-0.293,4.302-0.804  C119.718,404.392,116.431,399.95,116.431,394.767z" data-original="#595A5B" class=""/></g> </svg>
