<?xml version="1.0"?>
<svg xmlns="http://www.w3.org/2000/svg" xmlns:xlink="http://www.w3.org/1999/xlink" version="1.1" id="Capa_1" x="0px" y="0px" viewBox="0 0 51.012 51.012" style="enable-background:new 0 0 51.012 51.012;" xml:space="preserve" width="512px" height="512px" class=""><g><path style="fill:#A13009" d="M35,36.463L20.452,51.012c-3.585-9.003,0.535-18.15,0.535-18.15L7.527,17.039  c0,0-4.386,0.704-7.522-1.785L15.26,0c0,0,2.508,3.117,1.768,7.607l15.785,13.43c0,0,8.493-4.385,18.15-0.537L35,36.463z" data-original="#EFCE4A" class="active-path" data-old_color="#A03009"/><path style="fill:#BD3001" d="M20.987,32.861c0,0-0.036,0.084-0.086,0.205L33.037,20.93c-0.133,0.062-0.225,0.107-0.225,0.107  L17.079,7.651l-9.476,9.476L20.987,32.861z" data-original="#EBBA16" class="" data-old_color="#BD3102"/></g> </svg>
