<svg width="199" height="82" viewBox="0 0 199 82" fill="none" xmlns="http://www.w3.org/2000/svg">
<g filter="url(#filter0_d_631_880)">
<rect width="199" height="82" rx="5" fill="url(#paint0_linear_631_880)" shape-rendering="crispEdges"/>
<path d="M25.9814 57.6094H19.707L19.7559 51.7012H25.9814C27.7067 51.7012 29.0495 51.3919 30.0098 50.7734C30.9701 50.1549 31.6455 49.1784 32.0361 47.8438C32.443 46.5091 32.6465 44.7594 32.6465 42.5947V37.0527C32.6465 35.4089 32.5407 34.0173 32.3291 32.8779C32.1175 31.7223 31.7594 30.7946 31.2549 30.0947C30.7503 29.3786 30.0749 28.8496 29.2285 28.5078C28.3822 28.166 27.3324 27.9951 26.0791 27.9951H19.585V22.0625H26.0791C28.1299 22.0625 29.9935 22.3962 31.6699 23.0635C33.3464 23.7308 34.7868 24.7074 35.9912 25.9932C37.1956 27.2627 38.1234 28.8333 38.7744 30.7051C39.4255 32.5768 39.751 34.709 39.751 37.1016V42.5947C39.751 45.0036 39.4255 47.1357 38.7744 48.9912C38.1234 50.8467 37.1956 52.4173 35.9912 53.7031C34.8031 54.9727 33.3626 55.9411 31.6699 56.6084C29.9772 57.2757 28.0811 57.6094 25.9814 57.6094ZM23.8574 22.0625V57.6094H16.7041V22.0625H23.8574ZM59.5752 21.9893V57.6094H52.7393V30.3877L45.9521 33V27.2871L58.8428 21.9893H59.5752Z" fill="white"/>
<path d="M171 35.6011C171 34.8413 171 34.0815 171 33.2632C171 33.0294 170.94 32.7956 170.82 32.5618C170.58 32.1527 170.219 31.9189 169.798 31.8605C169.558 31.802 169.318 31.802 169.077 31.802C167.635 31.802 166.193 31.802 164.811 31.802C164.631 31.802 164.391 31.802 164.21 31.6851C163.79 31.5682 163.55 31.3344 163.369 30.9253C163.249 30.6331 163.189 30.3408 163.069 29.9902C162.288 27.6523 161.447 25.3144 160.665 22.9765C160.365 22.2167 160.125 21.3984 159.824 20.6386C159.464 19.5281 158.022 19.2943 157 18.9436C155.378 18.4176 153.695 18.0085 152.013 17.7163C150.271 17.424 148.468 17.1902 146.725 17.1318C145.704 17.0733 144.743 17.0149 143.721 17.0149C141.558 16.9564 139.395 17.0733 137.232 17.3071C136.631 17.3656 136.03 17.424 135.429 17.5409C133.206 17.8332 131.043 18.2423 128.94 19.0021C128.339 19.1774 127.798 19.4112 127.198 19.645C126.957 19.7035 126.777 19.8204 126.597 19.9957C126.416 20.171 126.296 20.4048 126.176 20.6386C125.936 21.3984 125.635 22.2167 125.335 22.9765C124.554 25.3144 123.713 27.6523 122.931 29.9902C122.811 30.2824 122.751 30.5746 122.631 30.9253C122.511 31.3344 122.21 31.5682 121.79 31.6851C121.61 31.7436 121.429 31.802 121.189 31.802C119.747 31.802 118.305 31.802 116.923 31.802C116.683 31.802 116.442 31.802 116.202 31.8605C115.721 31.9189 115.361 32.1527 115.18 32.5618C115.12 32.7956 115.06 33.0294 115.06 33.2632C115.06 34.023 115.06 34.7828 115.06 35.6011C115.06 35.8933 115.12 36.1856 115.18 36.4778C115.241 36.6531 115.301 36.8285 115.361 37.0038C115.541 37.6467 115.962 38.1143 116.502 38.465C116.743 38.5819 116.923 38.6988 117.163 38.7572C117.283 38.8157 117.464 38.8157 117.584 38.9326C117.764 39.0495 118.004 39.1079 118.185 39.2248C118.365 39.2833 118.425 39.4002 118.365 39.5755C118.305 39.7508 118.245 39.8677 118.185 40.0431C118.004 40.3353 117.824 40.6275 117.584 40.9198C117.283 41.3289 117.043 41.738 116.743 42.1472C116.502 42.4978 116.262 42.8485 116.082 43.1992C115.781 43.7837 115.541 44.4266 115.361 45.0111C115.12 45.8878 115 46.8229 115 47.6996C115 53.1937 115 58.6293 115 64.1233C115 64.1817 115 64.2402 115 64.2986C115 64.474 115.06 64.5909 115.12 64.7078C115.241 64.8247 115.361 64.9416 115.541 65C115.841 64.8831 115.962 64.8831 116.082 64.8831C118.786 64.8831 121.429 64.8831 124.133 64.8831C124.193 64.8831 124.253 64.8831 124.313 64.8831C124.614 64.8831 124.854 64.7078 125.034 64.474C125.155 64.3571 125.155 64.1817 125.155 64.0064C125.155 61.7854 125.155 56.9927 125.155 56.9343H160.846C160.846 56.9927 160.906 61.7854 160.846 64.0064C160.846 64.1817 160.846 64.3571 160.966 64.474C161.146 64.7078 161.386 64.8247 161.687 64.8831C161.747 64.8831 161.807 64.8831 161.867 64.8831C164.571 64.8831 167.215 64.8831 169.919 64.8831C170.039 64.8831 170.219 64.8831 170.339 64.8247C170.519 64.7662 170.64 64.7078 170.76 64.5324C170.88 64.4155 170.94 64.2986 170.88 64.1233C170.88 64.0648 170.88 64.0064 170.88 63.948C170.88 58.4539 170.88 53.0183 170.88 47.5243C170.88 46.5892 170.76 45.7124 170.519 44.8357C170.339 44.1928 170.159 43.6083 169.798 43.0239C169.618 42.6732 169.378 42.3225 169.138 41.9718C168.897 41.5627 168.597 41.1536 168.296 40.7444C168.116 40.4522 167.876 40.16 167.695 39.8677C167.635 39.7508 167.575 39.5755 167.515 39.4002C167.455 39.2248 167.515 39.1079 167.695 39.0495C167.876 38.991 168.116 38.8741 168.296 38.7572C168.416 38.6988 168.597 38.6403 168.717 38.5819C168.957 38.5234 169.198 38.4066 169.378 38.2897C169.979 37.939 170.339 37.4714 170.519 36.8285C170.58 36.6531 170.64 36.4778 170.7 36.3025C170.94 36.1856 171 35.8933 171 35.6011ZM160.786 32.7956C160.485 33.4385 159.524 33.497 158.863 33.6139C158.142 33.7892 157.481 33.9061 156.76 34.023C155.558 34.2568 154.416 34.4321 153.215 34.549C150.271 34.8997 147.326 35.0166 144.382 35.0751C143.541 35.0751 142.64 35.0751 141.798 35.0751C138.854 35.0751 135.85 34.9582 132.906 34.549C131.043 34.3152 129.18 34.023 127.378 33.6139C126.897 33.497 126.416 33.4385 125.936 33.2632C125.575 33.1463 125.275 32.971 125.215 32.6203C125.034 30.8669 125.816 29.1135 126.356 27.4769C126.777 26.1326 127.258 24.7884 127.798 23.5025C127.979 23.0934 128.159 22.6258 128.339 22.2167C129 21.0477 130.202 20.2879 131.524 19.9373C133.086 19.4697 134.828 19.4112 136.451 19.2943C138.674 19.119 140.897 18.9436 143.18 18.9436C143.841 18.9436 144.442 18.9436 145.103 18.9436C146.786 19.0021 148.468 19.119 150.15 19.2359C151.713 19.3528 153.395 19.4697 154.897 19.9957C155.798 20.2879 156.64 20.814 157.241 21.5153C157.541 21.9245 157.781 22.4505 157.962 22.9765C158.202 23.6194 158.442 24.2623 158.683 24.9053C159.103 25.9573 159.464 27.0094 159.824 28.1199C160.305 29.4641 160.966 30.9253 160.966 32.328C160.906 32.5034 160.846 32.6787 160.786 32.7956Z" fill="white" fill-opacity="0.5"/>
</g>
<defs>
<filter id="filter0_d_631_880" x="-17" y="-17" width="243" height="126" filterUnits="userSpaceOnUse" color-interpolation-filters="sRGB">
<feFlood flood-opacity="0" result="BackgroundImageFix"/>
<feColorMatrix in="SourceAlpha" type="matrix" values="0 0 0 0 0 0 0 0 0 0 0 0 0 0 0 0 0 0 127 0" result="hardAlpha"/>
<feOffset dx="5" dy="5"/>
<feGaussianBlur stdDeviation="11"/>
<feComposite in2="hardAlpha" operator="out"/>
<feColorMatrix type="matrix" values="0 0 0 0 0.0392157 0 0 0 0 0.560784 0 0 0 0 0.309804 0 0 0 0.2 0"/>
<feBlend mode="normal" in2="BackgroundImageFix" result="effect1_dropShadow_631_880"/>
<feBlend mode="normal" in="SourceGraphic" in2="effect1_dropShadow_631_880" result="shape"/>
</filter>
<linearGradient id="paint0_linear_631_880" x1="99.5" y1="82" x2="99.5" y2="4.33358e-07" gradientUnits="userSpaceOnUse">
<stop stop-color="#5CCC94"/>
<stop offset="1" stop-color="#8CCAAE"/>
</linearGradient>
</defs>
</svg>
