<svg width="199" height="82" viewBox="0 0 199 82" fill="none" xmlns="http://www.w3.org/2000/svg">
<g filter="url(#filter0_d_631_903)">
<rect width="199" height="82" rx="5" fill="url(#paint0_linear_631_903)" shape-rendering="crispEdges"/>
<path d="M25.9814 57.6094H19.707L19.7559 51.7012H25.9814C27.7067 51.7012 29.0495 51.3919 30.0098 50.7734C30.9701 50.1549 31.6455 49.1784 32.0361 47.8438C32.443 46.5091 32.6465 44.7594 32.6465 42.5947V37.0527C32.6465 35.4089 32.5407 34.0173 32.3291 32.8779C32.1175 31.7223 31.7594 30.7946 31.2549 30.0947C30.7503 29.3786 30.0749 28.8496 29.2285 28.5078C28.3822 28.166 27.3324 27.9951 26.0791 27.9951H19.585V22.0625H26.0791C28.1299 22.0625 29.9935 22.3962 31.6699 23.0635C33.3464 23.7308 34.7868 24.7074 35.9912 25.9932C37.1956 27.2627 38.1234 28.8333 38.7744 30.7051C39.4255 32.5768 39.751 34.709 39.751 37.1016V42.5947C39.751 45.0036 39.4255 47.1357 38.7744 48.9912C38.1234 50.8467 37.1956 52.4173 35.9912 53.7031C34.8031 54.9727 33.3626 55.9411 31.6699 56.6084C29.9772 57.2757 28.0811 57.6094 25.9814 57.6094ZM23.8574 22.0625V57.6094H16.7041V22.0625H23.8574ZM65.3613 51.9209V57.6094H44.4141V52.751L54.0332 40.5195C54.9609 39.2337 55.6852 38.1107 56.2061 37.1504C56.7269 36.1738 57.1012 35.3031 57.3291 34.5381C57.557 33.7568 57.6709 33.0244 57.6709 32.3408C57.6709 31.2829 57.5488 30.3796 57.3047 29.6309C57.0605 28.8659 56.6943 28.2799 56.2061 27.873C55.734 27.4499 55.1481 27.2383 54.4482 27.2383C53.6019 27.2383 52.902 27.4987 52.3486 28.0195C51.7952 28.5404 51.3802 29.2565 51.1035 30.168C50.8431 31.0632 50.7129 32.0804 50.7129 33.2197H43.8525C43.8525 31.0876 44.2839 29.1344 45.1465 27.3604C46.0254 25.5863 47.2542 24.1784 48.833 23.1367C50.4281 22.0788 52.3405 21.5498 54.5703 21.5498C56.7513 21.5498 58.5742 21.9567 60.0391 22.7705C61.5202 23.5843 62.6351 24.748 63.3838 26.2617C64.1488 27.7591 64.5312 29.5495 64.5312 31.6328C64.5312 32.821 64.3766 33.9766 64.0674 35.0996C63.7581 36.2064 63.3187 37.3132 62.749 38.4199C62.1794 39.5104 61.4795 40.6253 60.6494 41.7646C59.8193 42.904 58.8835 44.084 57.8418 45.3047L53.2031 51.9209H65.3613Z" fill="white"/>
<path d="M129.222 26.1669C129.222 26.2333 129.222 26.3662 129.222 26.4327C129.222 30.8184 129.222 35.2041 129.222 39.5898C129.222 39.7892 129.222 39.9885 129.222 40.1879C129.222 40.7859 129.69 41.1846 130.226 41.1846C130.895 41.1846 131.565 41.1846 132.167 41.1846C132.77 41.1846 133.172 40.7859 133.172 40.1879C133.172 39.4569 133.172 38.6595 133.172 37.9286C133.172 30.9513 133.172 24.0405 133.172 17.0632C133.172 16.9303 133.172 16.8639 133.172 16.731C133.238 16.2658 133.64 16 134.109 16C134.176 16 134.243 16 134.31 16C146.494 16 158.678 16 170.862 16C170.996 16 171.13 16 171.264 16C171.799 16.1329 172 16.5981 172 16.9968C172 19.7877 172 22.5786 172 25.4359C172 34.6725 172 43.9755 172 53.2121C172 53.6108 172 54.0759 171.866 54.4746V54.5411C171.732 55.272 171.264 55.7372 170.527 55.8036C170.192 55.8701 169.925 55.8701 169.59 55.8701C168.452 55.8701 167.247 55.8701 166.109 55.8701C165.975 55.8701 165.841 55.8701 165.774 55.8701C165.64 55.8701 165.64 55.8701 165.64 56.003C165.506 56.5346 165.305 56.9997 165.038 57.4649C163.699 59.8571 161.757 61.319 159.079 61.8506C154.795 62.648 150.644 60.1893 149.305 56.003C149.305 55.9365 149.238 55.8701 149.238 55.8701C143.28 55.8701 137.389 55.8701 131.431 55.8701C130.762 57.9965 129.49 59.7242 127.548 60.8539C126.142 61.6513 124.603 62.05 122.996 61.9835C121.121 61.9171 119.448 61.319 117.975 60.1893C116.502 59.0597 115.565 57.5978 114.962 55.8036C114.895 55.8036 114.828 55.8036 114.762 55.8036C113.356 55.8036 111.95 55.8036 110.477 55.8036C110.142 55.8036 109.808 55.8036 109.54 55.6707C108.669 55.3385 108.201 54.7404 108.067 53.8766C108.067 53.8101 108.067 53.6772 108.067 53.6108C108.067 51.0857 108.067 48.5606 108 46.0355C108 44.2413 108.067 42.4472 108.134 40.653C108.134 40.055 108.201 39.5234 108.268 38.9253C108.536 36.5331 109.205 34.3402 110.611 32.3467C112.351 29.9545 114.561 28.1604 117.305 27.0307C118.042 26.6985 118.778 26.5656 119.582 26.4327C120.653 26.2998 121.791 26.2333 122.862 26.1669C124.803 26.1004 126.812 26.1004 128.753 26.1669C128.82 26.1669 129.021 26.1669 129.222 26.1669ZM128.218 53.5443C128.218 50.7534 125.941 48.4941 123.13 48.4941C120.318 48.4941 118.042 50.7534 118.042 53.5443C118.042 56.3352 120.318 58.5945 123.063 58.661C125.941 58.5945 128.218 56.3352 128.218 53.5443ZM162.494 53.5443C162.494 50.7534 160.218 48.4941 157.406 48.4941C154.594 48.4941 152.318 50.7534 152.318 53.5443C152.318 56.3352 154.594 58.5945 157.406 58.5945C160.218 58.5945 162.494 56.3352 162.494 53.5443Z" fill="white" fill-opacity="0.5"/>
</g>
<defs>
<filter id="filter0_d_631_903" x="-17" y="-17" width="243" height="126" filterUnits="userSpaceOnUse" color-interpolation-filters="sRGB">
<feFlood flood-opacity="0" result="BackgroundImageFix"/>
<feColorMatrix in="SourceAlpha" type="matrix" values="0 0 0 0 0 0 0 0 0 0 0 0 0 0 0 0 0 0 127 0" result="hardAlpha"/>
<feOffset dx="5" dy="5"/>
<feGaussianBlur stdDeviation="11"/>
<feComposite in2="hardAlpha" operator="out"/>
<feColorMatrix type="matrix" values="0 0 0 0 0.0392157 0 0 0 0 0.560784 0 0 0 0 0.309804 0 0 0 0.2 0"/>
<feBlend mode="normal" in2="BackgroundImageFix" result="effect1_dropShadow_631_903"/>
<feBlend mode="normal" in="SourceGraphic" in2="effect1_dropShadow_631_903" result="shape"/>
</filter>
<linearGradient id="paint0_linear_631_903" x1="99.5" y1="82" x2="99.5" y2="4.33358e-07" gradientUnits="userSpaceOnUse">
<stop stop-color="#5CCC94"/>
<stop offset="1" stop-color="#8CCAAE"/>
</linearGradient>
</defs>
</svg>
