<svg width="1058" height="617" viewBox="0 0 1058 617" fill="none" xmlns="http://www.w3.org/2000/svg">
<path d="M5.38283 -42.9822L202.184 -725.77C207.792 -745.26 218.436 -762.928 233.044 -776.997C247.651 -791.066 265.708 -801.04 285.396 -805.914L366.02 -825.924L471.835 -852.128L671.741 -901.781L700.35 -908.742L950.692 -970.611L975.12 -976.663C994.802 -981.551 1015.42 -981.167 1034.91 -975.551C1054.4 -969.934 1072.06 -959.283 1086.12 -944.669L1103.63 -926.53L1302.8 -719.633L1445.96 -571.354L1520.19 -494.235L1579.16 -433.011C1593.24 -418.407 1603.22 -400.353 1608.11 -380.666C1612.99 -360.978 1612.61 -340.351 1606.99 -320.86L1410.19 361.928C1404.57 381.408 1393.91 399.064 1379.3 413.122C1364.69 427.179 1346.63 437.142 1326.95 442.01L814.886 568.913L661.658 606.864L637.182 612.903C617.501 617.816 596.871 617.445 577.38 611.827C557.888 606.209 540.225 595.543 526.179 580.908L508.672 562.769L398.865 448.642L329.781 376.923L33.1871 69.108C19.1136 54.503 9.13544 36.4492 4.25678 16.7636C-0.621779 -2.92201 -0.228733 -23.5449 5.39654 -43.0297" fill="url(#paint0_linear_532_1392)" fill-opacity="0.35"/>
<defs>
<linearGradient id="paint0_linear_532_1392" x1="577.403" y1="611.834" x2="1034.94" y2="-975.544" gradientUnits="userSpaceOnUse">
<stop stop-color="#EEEEF3"/>
<stop offset="1" stop-color="#EEEEF3" stop-opacity="0"/>
</linearGradient>
</defs>
</svg>
