<svg width="1054" height="460" viewBox="0 0 1054 460" fill="none" xmlns="http://www.w3.org/2000/svg">
<path d="M0.00145168 59.6595L0.00150441 -543.507C-0.00594038 -560.721 4.52165 -577.635 13.1283 -592.544C21.7352 -607.453 34.1175 -619.832 49.0293 -628.436L110.083 -663.711L190.226 -709.96L341.599 -797.454L363.295 -809.857L552.931 -919.172L571.432 -929.851C586.336 -938.465 603.246 -943 620.46 -943C637.674 -943 654.585 -938.465 669.488 -929.851L688.031 -919.172L899.112 -797.243L1050.74 -709.96L1129.41 -664.51L1191.89 -628.436C1206.81 -619.834 1219.2 -607.456 1227.81 -592.548C1236.42 -577.639 1240.96 -560.725 1240.96 -543.507L1240.96 59.6596C1240.95 76.8705 1236.41 93.776 1227.8 108.677C1219.19 123.578 1206.8 135.949 1191.89 144.547L804.083 368.432L688.031 435.409L669.488 446.088C654.591 454.722 637.679 459.269 620.46 459.269C603.242 459.269 586.329 454.722 571.432 446.088L552.889 435.409L436.501 368.138L363.295 325.884L49.0293 144.547C34.1174 135.943 21.7351 123.564 13.1283 108.655C4.52159 93.7453 -0.00599611 76.8323 0.00145168 59.6175" fill="url(#paint0_linear_532_820)" fill-opacity="0.35"/>
<defs>
<linearGradient id="paint0_linear_532_820" x1="620.481" y1="459.269" x2="620.481" y2="-943" gradientUnits="userSpaceOnUse">
<stop stop-color="#EEEEF3"/>
<stop offset="1" stop-color="#EEEEF3" stop-opacity="0"/>
</linearGradient>
</defs>
</svg>
