<svg width="958" height="530" viewBox="0 0 958 530" fill="none" xmlns="http://www.w3.org/2000/svg">
<path d="M-0.000115842 59.2233L-5.37208e-05 -651.361C-0.00884101 -671.642 5.32514 -691.567 15.4649 -709.131C25.6048 -726.695 40.1927 -741.28 57.7607 -751.415L129.689 -792.973L224.107 -847.458L402.442 -950.534L428.004 -965.146L651.418 -1093.93L673.214 -1106.51C690.773 -1116.66 710.695 -1122 730.975 -1122C751.255 -1122 771.178 -1116.66 788.736 -1106.51L810.582 -1093.93L1059.26 -950.286L1237.89 -847.458L1330.58 -793.914L1404.19 -751.415C1421.76 -741.282 1436.36 -726.7 1446.51 -709.136C1456.66 -691.572 1462 -671.645 1462 -651.361L1462 59.2234C1461.99 79.4994 1456.64 99.4156 1446.49 116.97C1436.35 134.525 1421.76 149.099 1404.19 159.228L947.305 422.986L810.582 501.89L788.736 514.471C771.186 524.643 751.26 530 730.975 530C710.69 530 690.764 524.643 673.214 514.471L651.368 501.89L514.249 422.639L428.004 372.859L57.7606 159.228C40.1926 149.092 25.6047 134.508 15.4648 116.944C5.32508 99.3794 -0.00890667 79.4544 -0.000115838 59.1738" fill="url(#paint0_linear_532_1017)" fill-opacity="0.35"/>
<defs>
<linearGradient id="paint0_linear_532_1017" x1="731" y1="530" x2="731" y2="-1122" gradientUnits="userSpaceOnUse">
<stop stop-color="#EEEEF3"/>
<stop offset="1" stop-color="#EEEEF3" stop-opacity="0"/>
</linearGradient>
</defs>
</svg>
