<svg width="882" height="330" viewBox="0 0 882 330" fill="none" xmlns="http://www.w3.org/2000/svg">
<path d="M0.00145168 -70.3405L0.00150441 -673.507C-0.00594038 -690.721 4.52165 -707.635 13.1283 -722.544C21.7352 -737.453 34.1175 -749.832 49.0293 -758.436L110.083 -793.711L190.226 -839.96L341.599 -927.454L363.295 -939.857L552.931 -1049.17L571.432 -1059.85C586.336 -1068.46 603.246 -1073 620.46 -1073C637.674 -1073 654.585 -1068.46 669.488 -1059.85L688.031 -1049.17L899.112 -927.243L1050.74 -839.96L1129.41 -794.51L1191.89 -758.436C1206.81 -749.834 1219.2 -737.456 1227.81 -722.548C1236.42 -707.639 1240.96 -690.725 1240.96 -673.507L1240.96 -70.3404C1240.95 -53.1295 1236.41 -36.224 1227.8 -21.3231C1219.19 -6.42231 1206.8 5.94884 1191.89 14.5469L804.083 238.432L688.031 305.409L669.488 316.088C654.591 324.722 637.679 329.269 620.46 329.269C603.242 329.269 586.329 324.722 571.432 316.088L552.889 305.409L436.501 238.138L363.295 195.884L49.0293 14.5468C34.1174 5.94312 21.7351 -6.43624 13.1283 -21.3455C4.52159 -36.2547 -0.00599611 -53.1677 0.00145168 -70.3825" fill="url(#paint0_linear_532_3443)" fill-opacity="0.35"/>
<defs>
<linearGradient id="paint0_linear_532_3443" x1="620.481" y1="329.269" x2="620.481" y2="-1073" gradientUnits="userSpaceOnUse">
<stop stop-color="#EEEEF3"/>
<stop offset="1" stop-color="#EEEEF3" stop-opacity="0"/>
</linearGradient>
</defs>
</svg>
