<svg width="1015" height="434" viewBox="0 0 1015 434" fill="none" xmlns="http://www.w3.org/2000/svg">
<path d="M-0.000115842 -36.7767L-5.37208e-05 -747.361C-0.00884101 -767.642 5.32514 -787.567 15.4649 -805.131C25.6048 -822.695 40.1927 -837.28 57.7607 -847.415L129.689 -888.973L224.107 -943.458L402.442 -1046.53L428.004 -1061.15L651.418 -1189.93L673.214 -1202.51C690.773 -1212.66 710.695 -1218 730.975 -1218C751.255 -1218 771.178 -1212.66 788.736 -1202.51L810.582 -1189.93L1059.26 -1046.29L1237.89 -943.458L1330.58 -889.914L1404.19 -847.415C1421.76 -837.282 1436.36 -822.7 1446.51 -805.136C1456.66 -787.572 1462 -767.645 1462 -747.361L1462 -36.7766C1461.99 -16.5006 1456.64 3.41564 1446.49 20.9701C1436.35 38.5247 1421.76 53.099 1404.19 63.2283L947.305 326.986L810.582 405.89L788.736 418.471C771.186 428.643 751.26 434 730.975 434C710.69 434 690.764 428.643 673.214 418.471L651.368 405.89L514.249 326.639L428.004 276.859L57.7606 63.2282C40.1926 53.0923 25.6047 38.5083 15.4648 20.9438C5.32508 3.37945 -0.00890667 -16.5456 -0.000115838 -36.8262" fill="url(#paint0_linear_532_1220)" fill-opacity="0.35"/>
<defs>
<linearGradient id="paint0_linear_532_1220" x1="731" y1="434" x2="731" y2="-1218" gradientUnits="userSpaceOnUse">
<stop stop-color="#EEEEF3"/>
<stop offset="1" stop-color="#EEEEF3" stop-opacity="0"/>
</linearGradient>
</defs>
</svg>
