<svg width="49" height="48" viewBox="0 0 49 48" fill="none" xmlns="http://www.w3.org/2000/svg">
<path d="M42.9984 36.94L39.6984 37.72C38.9584 37.9 38.3784 38.46 38.2184 39.2L37.5184 42.14C37.1384 43.74 35.0984 44.24 34.0384 42.98L28.0584 36.1C27.947 35.9719 27.8702 35.8175 27.8352 35.6515C27.8001 35.4854 27.808 35.3132 27.858 35.151C27.9081 34.9888 27.9987 34.8421 28.1212 34.7247C28.2437 34.6073 28.3942 34.5231 28.5584 34.48C32.1085 33.6169 35.2858 31.632 37.6184 28.82C37.9984 28.36 38.6784 28.3 39.0984 28.72L43.5384 33.16C45.0584 34.68 44.5184 36.58 42.9984 36.94ZM5.89837 36.94L9.19837 37.72C9.93837 37.9 10.5184 38.46 10.6784 39.2L11.3784 42.14C11.7584 43.74 13.7984 44.24 14.8584 42.98L20.8384 36.1C21.3184 35.54 21.0584 34.66 20.3384 34.48C16.7882 33.6169 13.611 31.632 11.2784 28.82C11.192 28.71 11.0835 28.6193 10.9598 28.554C10.8362 28.4886 10.7002 28.4499 10.5606 28.4405C10.4211 28.4311 10.2811 28.4511 10.1498 28.4992C10.0185 28.5474 9.89875 28.6226 9.79837 28.72L5.35837 33.16C3.83837 34.68 4.37837 36.58 5.89837 36.94V36.94ZM24.4984 4C16.7584 4 10.4984 10.26 10.4984 18C10.4984 20.9 11.3584 23.56 12.8384 25.78C13.9229 27.3975 15.3336 28.7704 16.9799 29.8105C18.6263 30.8507 20.4719 31.5352 22.3984 31.82C23.0784 31.94 23.7784 32 24.4984 32C25.2184 32 25.9184 31.94 26.5984 31.82C30.5784 31.24 33.9984 28.98 36.1584 25.78C37.6938 23.4766 38.5084 20.7682 38.4984 18C38.4984 10.26 32.2384 4 24.4984 4ZM30.6184 17.56L28.9584 19.22C28.6784 19.5 28.5184 20.04 28.6184 20.44L29.0984 22.5C29.4784 24.12 28.6184 24.76 27.1784 23.9L25.1784 22.72C24.9753 22.6116 24.7486 22.5549 24.5184 22.5549C24.2882 22.5549 24.0615 22.6116 23.8584 22.72L21.8584 23.9C20.4184 24.74 19.5584 24.12 19.9384 22.5L20.4184 20.44C20.4984 20.06 20.3584 19.5 20.0784 19.22L18.3784 17.56C17.3984 16.58 17.7184 15.6 19.0784 15.38L21.2184 15.02C21.5784 14.96 21.9984 14.64 22.1584 14.32L23.3384 11.96C23.9784 10.68 25.0184 10.68 25.6584 11.96L26.8384 14.32C26.9984 14.64 27.4184 14.96 27.7984 15.02L29.9384 15.38C31.2784 15.6 31.5984 16.58 30.6184 17.56Z" fill="white"/>
</svg>
