<svg width="285" height="133" viewBox="0 0 285 133" fill="none" xmlns="http://www.w3.org/2000/svg">
<g clip-path="url(#clip0_515_1077)">
<rect width="285" height="133" rx="5" fill="url(#paint0_linear_515_1077)"/>
<path d="M141.545 -74.936L242.666 -74.936C245.731 -74.9315 248.741 -74.1289 251.394 -72.6087C254.047 -71.0886 256.251 -68.9043 257.783 -66.2749C259.315 -63.6454 260.122 -60.6633 260.123 -57.6274C260.124 -54.5916 259.32 -51.6088 257.79 -48.9781L207.214 37.7297L156.67 124.374C155.133 126.998 152.927 129.177 150.273 130.691C147.618 132.206 144.609 133.003 141.545 133.003C138.482 133.003 135.472 132.206 132.818 130.691C130.164 129.177 127.958 126.998 126.421 124.374L75.8769 37.6657L25.333 -49.0421C23.8032 -51.6728 22.9986 -54.6556 22.9999 -57.6915C23.0012 -60.7273 23.8084 -63.7094 25.3404 -66.3389C26.8725 -68.9683 29.0756 -71.1526 31.7288 -72.6728C34.382 -74.1929 37.3922 -74.9955 40.4574 -75L141.545 -74.936Z" fill="url(#paint1_linear_515_1077)" fill-opacity="0.49"/>
</g>
<defs>
<linearGradient id="paint0_linear_515_1077" x1="142.5" y1="0" x2="142.5" y2="133" gradientUnits="userSpaceOnUse">
<stop stop-color="#F58C1F"/>
<stop offset="1" stop-color="#F57D21"/>
</linearGradient>
<linearGradient id="paint1_linear_515_1077" x1="140.868" y1="-89.5602" x2="140.868" y2="73.3753" gradientUnits="userSpaceOnUse">
<stop stop-color="white"/>
<stop offset="1" stop-color="white" stop-opacity="0"/>
</linearGradient>
<clipPath id="clip0_515_1077">
<rect width="285" height="133" rx="5" fill="white"/>
</clipPath>
</defs>
</svg>
