<svg width="49" height="48" viewBox="0 0 49 48" fill="none" xmlns="http://www.w3.org/2000/svg">
<path d="M18.5019 4C13.2619 4 9.00187 8.26 9.00187 13.5C9.00187 18.64 13.0219 22.8 18.2619 22.98C18.4219 22.96 18.5819 22.96 18.7019 22.98H18.8419C21.3006 22.898 23.631 21.863 25.3404 20.0938C27.0499 18.3247 28.0043 15.9601 28.0019 13.5C28.0019 8.26 23.7419 4 18.5019 4ZM28.6619 28.298C23.0819 24.578 13.9819 24.578 8.36187 28.298C5.82187 29.998 4.42188 32.298 4.42188 34.758C4.42188 37.218 5.82187 39.498 8.34187 41.178C11.1419 43.058 14.8219 43.998 18.5019 43.998C22.1819 43.998 25.8619 43.058 28.6619 41.178C31.1819 39.478 32.5819 37.198 32.5819 34.718C32.5619 32.258 31.1819 29.978 28.6619 28.298ZM40.4819 14.676C40.8019 18.556 38.0419 21.956 34.2219 22.416H34.1219C34.0019 22.416 33.8819 22.416 33.7819 22.456C31.8419 22.556 30.0619 21.936 28.7219 20.796C30.7819 18.956 31.9619 16.196 31.7219 13.196C31.5846 11.636 31.0549 10.1361 30.1819 8.836C31.2298 8.32616 32.3861 8.07893 33.551 8.11564C34.7158 8.15235 35.8542 8.47189 36.868 9.0467C37.8818 9.62152 38.7405 10.4343 39.3701 11.4151C39.9997 12.3958 40.3813 13.5149 40.4819 14.676Z" fill="white"/>
<path d="M44.4766 33.1798C44.3166 35.1198 43.0766 36.7998 40.9966 37.9398C38.9966 39.0398 36.4766 39.5598 33.9766 39.4998C35.4166 38.1998 36.2566 36.5798 36.4166 34.8598C36.6166 32.3798 35.4366 29.9998 33.0766 28.0998C31.7366 27.0398 30.1766 26.1998 28.4766 25.5798C32.8966 24.2998 38.4566 25.1598 41.8766 27.9198C43.7166 29.3998 44.6566 31.2598 44.4766 33.1798Z" fill="white"/>
</svg>
