<svg width="49" height="48" viewBox="0 0 49 48" fill="none" xmlns="http://www.w3.org/2000/svg">
<path d="M43.5 31C44.06 31 44.5 31.44 44.5 32V34C44.5 37.32 41.82 40 38.5 40C38.5 36.7 35.8 34 32.5 34C29.2 34 26.5 36.7 26.5 40H22.5C22.5 36.7 19.8 34 16.5 34C13.2 34 10.5 36.7 10.5 40C7.18 40 4.5 37.32 4.5 34V30C4.5 28.9 5.4 28 6.5 28H25.5C26.8261 28 28.0979 27.4732 29.0355 26.5355C29.9732 25.5979 30.5 24.3261 30.5 23V12C30.5 10.9 31.4 10 32.5 10H34.18C35.62 10 36.94 10.78 37.66 12.02L38.94 14.26C39.12 14.58 38.88 15 38.5 15C37.1739 15 35.9021 15.5268 34.9645 16.4645C34.0268 17.4021 33.5 18.6739 33.5 20V26C33.5 27.3261 34.0268 28.5979 34.9645 29.5355C35.9021 30.4732 37.1739 31 38.5 31H43.5Z" fill="white"/>
<path d="M16.5 44C17.5609 44 18.5783 43.5786 19.3284 42.8284C20.0786 42.0783 20.5 41.0609 20.5 40C20.5 38.9391 20.0786 37.9217 19.3284 37.1716C18.5783 36.4214 17.5609 36 16.5 36C15.4391 36 14.4217 36.4214 13.6716 37.1716C12.9214 37.9217 12.5 38.9391 12.5 40C12.5 41.0609 12.9214 42.0783 13.6716 42.8284C14.4217 43.5786 15.4391 44 16.5 44ZM32.5 44C33.5609 44 34.5783 43.5786 35.3284 42.8284C36.0786 42.0783 36.5 41.0609 36.5 40C36.5 38.9391 36.0786 37.9217 35.3284 37.1716C34.5783 36.4214 33.5609 36 32.5 36C31.4391 36 30.4217 36.4214 29.6716 37.1716C28.9214 37.9217 28.5 38.9391 28.5 40C28.5 41.0609 28.9214 42.0783 29.6716 42.8284C30.4217 43.5786 31.4391 44 32.5 44ZM44.5 25.06V28H38.5C37.4 28 36.5 27.1 36.5 26V20C36.5 18.9 37.4 18 38.5 18H41.08L43.98 23.08C44.32 23.68 44.5 24.36 44.5 25.06ZM26.66 4H11.88C10.1695 4.00049 8.51228 4.59512 7.19168 5.68225C5.87109 6.76937 4.96912 8.28146 4.64 9.96H13.38C14.14 9.96 14.74 10.58 14.74 11.34C14.74 12.1 14.14 12.7 13.38 12.7H4.5V15.46H9.7C10.46 15.46 11.08 16.08 11.08 16.84C11.08 17.6 10.46 18.2 9.7 18.2H4.5V20.96H6.04C6.8 20.96 7.42 21.58 7.42 22.34C7.42 23.1 6.8 23.7 6.04 23.7H4.5V24.16C4.5 25.26 5.4 26.16 6.5 26.16H24.8C26.84 26.16 28.5 24.5 28.5 22.46V5.84C28.5 4.82 27.68 4 26.66 4ZM4.64 9.96H2.38C1.62 9.96 1 10.58 1 11.34C1 12.1 1.62 12.7 2.38 12.7H4.5V11.38C4.5 10.9 4.56 10.42 4.64 9.96ZM4.2 15.46H2.38C1.62 15.46 1 16.08 1 16.84C1 17.6 1.62 18.2 2.38 18.2H4.5V15.46H4.2ZM4.2 20.96H2.38C1.62 20.96 1 21.58 1 22.34C1 23.1 1.62 23.7 2.38 23.7H4.5V20.96H4.2Z" fill="white"/>
</svg>
