<svg width="153" height="135" viewBox="0 0 153 135" fill="none" xmlns="http://www.w3.org/2000/svg">
<path d="M43.4968 -2.19827e-06L109.15 -5.06808e-06C111.024 -0.0008135 112.865 0.491723 114.488 1.42803C116.111 2.36433 117.458 3.71136 118.395 5.33358L122.234 11.9754L127.268 20.6939L136.792 37.1612L138.142 39.5216L150.041 60.1515L151.203 62.1641C152.141 63.7854 152.634 65.625 152.634 67.4977C152.634 69.3704 152.141 71.21 151.203 72.8313L150.041 74.8485L136.769 97.8113L127.268 114.306L122.321 122.864L118.395 129.662C117.458 131.285 116.111 132.632 114.488 133.569C112.866 134.506 111.024 135 109.15 135L43.4968 135C41.6234 134.999 39.7833 134.505 38.1614 133.568C36.5394 132.631 35.1928 131.284 34.257 129.662L9.88745 87.4735L2.5972 74.8485L1.43478 72.8313C0.49495 71.2107 -2.86874e-06 69.3708 -2.95062e-06 67.4977C-3.0325e-06 65.6246 0.494949 63.7847 1.43478 62.1641L2.59719 60.1469L9.91949 47.4853L14.5188 39.5216L34.257 5.33358C35.1935 3.71137 36.5409 2.36433 38.1638 1.42803C39.7866 0.491726 41.6276 -0.000810467 43.5014 -2.19847e-06" fill="url(#paint0_linear_1253_3918)"/>
<defs>
<linearGradient id="paint0_linear_1253_3918" x1="-2.95052e-06" y1="67.5" x2="152.634" y2="67.5" gradientUnits="userSpaceOnUse">
<stop stop-color="#F58C1F"/>
<stop offset="1" stop-color="#F57D21"/>
</linearGradient>
</defs>
</svg>
