<svg width="42" height="83" viewBox="0 0 42 83" fill="none" xmlns="http://www.w3.org/2000/svg">
<path d="M5.29738 0.00465727H42V83H5.08475C3.73619 83 2.44286 82.4603 1.48929 81.4995C0.535713 80.5388 0 79.2358 0 77.8771V5.35574C0 3.93531 0.560063 2.57306 1.55698 1.56866C2.5539 0.564264 3.90601 0 5.31587 0L5.29738 0.00465727Z" fill="#2B3A97"/>
<path d="M14.5447 13.8926L15.8712 14.7753L17.3471 14.1868L16.9174 15.7188L17.9356 16.9472L16.3429 17.0079L15.4928 18.3531L14.9417 16.8631L13.4004 16.4661L14.6475 15.4806L14.5447 13.8926Z" fill="#F9CA0A"/>
<path d="M9.70117 18.8767L11.2892 18.9795L12.2794 17.7324L12.6717 19.2737L14.1616 19.8249L12.8165 20.6749L12.7558 22.2676L11.5274 21.2494L9.99542 21.6791L10.5886 20.2032L9.70117 18.8767Z" fill="#F9CA0A"/>
<path d="M8 25.6113L9.42455 24.9107L9.65341 23.332L10.765 24.4717L12.3344 24.2054L11.5964 25.6113L12.3344 27.0218L10.765 26.7556L9.65341 27.8953L9.42455 26.3166L8 25.6113Z" fill="#F9CA0A"/>
<path d="M9.89258 32.2991L10.7753 30.9726L10.1868 29.4967L11.7188 29.9264L12.9472 28.9082L13.0079 30.5009L14.3531 31.351L12.8631 31.9021L12.4661 33.4434L11.4806 32.1963L9.89258 32.2991Z" fill="#F9CA0A"/>
<path d="M14.8767 37.1421L14.9795 35.5541L13.7324 34.5639L15.2737 34.1716L15.8249 32.6816L16.6749 34.0268L18.2676 34.0875L17.2494 35.3159L17.6791 36.8479L16.2032 36.2594L14.8767 37.1421Z" fill="#F9CA0A"/>
<path d="M21.6113 38.8441L20.906 37.4196L19.332 37.1907L20.4717 36.0791L20.2054 34.5098L21.6113 35.2477L23.0218 34.5098L22.7556 36.0791L23.8953 37.1907L22.3166 37.4196L21.6113 38.8441Z" fill="#F9CA0A"/>
<path d="M28.2991 36.9507L26.9726 36.068L25.4967 36.6565L25.9264 35.1245L24.9082 33.8961L26.5009 33.8354L27.351 32.4902L27.9021 33.9802L29.4434 34.3772L28.1963 35.3627L28.2991 36.9507Z" fill="#F9CA0A"/>
<path d="M33.1421 31.9671L31.5494 31.8643L30.5639 33.1114L30.1716 31.5701L28.6816 31.0189L30.0268 30.1689L30.0875 28.5762L31.3159 29.5944L32.8479 29.1647L32.2547 30.6406L33.1421 31.9671Z" fill="#F9CA0A"/>
<path d="M34.8422 25.2332L33.4176 25.9384L33.1841 27.5124L32.0772 26.3728L30.5078 26.639L31.2458 25.2332L30.5078 23.8226L32.0772 24.0889L33.1841 22.9492L33.4176 24.5279L34.8422 25.2332Z" fill="#F9CA0A"/>
<path d="M32.9507 18.5447L32.068 19.8712L32.6565 21.3471L31.1245 20.9174L29.8961 21.9356L29.8354 20.3429L28.4902 19.4928L29.9802 18.9417L30.3725 17.4004L31.3627 18.6475L32.9507 18.5447Z" fill="#F9CA0A"/>
<path d="M27.969 13.7012L27.8663 15.2892L29.1133 16.2794L27.572 16.6717L27.0209 18.1616L26.1708 16.8165L24.5781 16.7558L25.5963 15.5274L25.1666 13.9954L26.6426 14.5886L27.969 13.7012Z" fill="#F9CA0A"/>
<path d="M21.2332 12L21.9338 13.4245L23.5124 13.6534L22.3728 14.765L22.639 16.339L21.2332 15.5964L19.8226 16.339L20.0889 14.765L18.9492 13.6534L20.5279 13.4245L21.2332 12Z" fill="#F9CA0A"/>
</svg>
