<svg width="49" height="48" viewBox="0 0 49 48" fill="none" xmlns="http://www.w3.org/2000/svg">
<path d="M38.5 29.9999C34.08 29.9999 30.5 33.5799 30.5 37.9999C30.5 39.4999 30.92 40.9199 31.66 42.1199C32.3651 43.3049 33.3666 44.2858 34.5659 44.9661C35.7653 45.6465 37.1211 46.0027 38.5 45.9999C41.42 45.9999 43.96 44.4399 45.34 42.1199C46.08 40.9199 46.5 39.4999 46.5 37.9999C46.5 33.5799 42.92 29.9999 38.5 29.9999ZM42.64 37.1399L38.38 41.0799C38.1 41.3399 37.72 41.4799 37.36 41.4799C36.98 41.4799 36.6 41.3399 36.3 41.0399L34.32 39.0599C34.041 38.7776 33.8846 38.3967 33.8846 37.9999C33.8846 37.603 34.041 37.2222 34.32 36.9399C34.9 36.3599 35.86 36.3599 36.44 36.9399L37.4 37.8999L40.6 34.9399C41.2 34.3799 42.16 34.4199 42.72 35.0199C43.28 35.6199 43.24 36.5599 42.64 37.1399ZM44.5 15.0959V15.9959C44.5 17.0959 43.6 17.9959 42.5 17.9959H6.5C5.4 17.9959 4.5 17.0959 4.5 15.9959V15.0759C4.5 10.4959 8.2 6.7959 12.78 6.7959H36.2C40.78 6.7959 44.5 10.5159 44.5 15.0959Z" fill="white"/>
<path d="M4.5 22.9956V32.9156C4.5 37.4956 8.2 41.1956 12.78 41.1956H25.3C26.46 41.1956 27.46 40.2156 27.36 39.0556C27.08 35.9956 28.06 32.6756 30.78 30.0356C31.9 28.9356 33.28 28.0956 34.78 27.6156C37.28 26.8156 39.7 26.9156 41.84 27.6356C42.1408 27.7408 42.4625 27.7725 42.7781 27.7282C43.0937 27.6839 43.3941 27.5648 43.6543 27.3809C43.9146 27.1969 44.1271 26.9535 44.2742 26.6708C44.4213 26.388 44.4987 26.0743 44.5 25.7556V22.9756C44.5 21.8756 43.6 20.9756 42.5 20.9756H6.5C5.4 20.9956 4.5 21.8956 4.5 22.9956ZM16.5 34.4956H12.5C11.68 34.4956 11 33.8156 11 32.9956C11 32.1756 11.68 31.4956 12.5 31.4956H16.5C17.32 31.4956 18 32.1756 18 32.9956C18 33.8156 17.32 34.4956 16.5 34.4956Z" fill="white"/>
</svg>
