<svg width="49" height="48" viewBox="0 0 49 48" fill="none" xmlns="http://www.w3.org/2000/svg">
<path d="M24.5019 4C19.2619 4 15.0019 8.26 15.0019 13.5C15.0019 18.64 19.0219 22.8 24.2619 22.98C24.4219 22.96 24.5819 22.96 24.7019 22.98H24.8419C27.3006 22.898 29.631 21.863 31.3404 20.0938C33.0499 18.3247 34.0043 15.9601 34.0019 13.5C34.0019 8.26 29.7419 4 24.5019 4ZM34.6619 28.32C29.0819 24.6 19.9819 24.6 14.3619 28.32C11.8219 30 10.4219 32.3 10.4219 34.76C10.4219 37.22 11.8219 39.5 14.3419 41.18C17.1419 43.06 20.8219 44 24.5019 44C28.1819 44 31.8619 43.06 34.6619 41.18C37.1819 39.48 38.5819 37.2 38.5819 34.72C38.5619 32.28 37.1819 29.98 34.6619 28.32ZM29.1619 33.12L24.1219 38.16C24.0061 38.2749 23.8688 38.3659 23.7177 38.4277C23.5667 38.4895 23.405 38.5208 23.2419 38.52C22.9219 38.52 22.6019 38.38 22.3619 38.16L19.8419 35.64C19.6113 35.4051 19.4821 35.0891 19.4821 34.76C19.4821 34.4308 19.6113 34.1149 19.8419 33.88C20.3219 33.4 21.1219 33.4 21.6019 33.88L23.2419 35.52L27.4019 31.36C27.8819 30.88 28.6819 30.88 29.1619 31.36C29.6619 31.84 29.6619 32.64 29.1619 33.12Z" fill="white"/>
</svg>
