<svg width="49" height="48" viewBox="0 0 49 48" fill="none" xmlns="http://www.w3.org/2000/svg">
<path d="M15.7581 7.1396C16.1141 6.9436 16.4981 7.2436 16.4981 7.6536V34.7656C16.4981 35.2116 16.1921 35.5896 15.7981 35.7976C15.7847 35.8042 15.7714 35.8108 15.7581 35.8176L11.0581 38.4976C7.77813 40.3776 5.07812 38.8176 5.07812 35.0176V15.5596C5.07812 14.2996 5.97813 12.7396 7.09813 12.0996L15.7581 7.1396ZM29.9421 12.2056C30.1088 12.2882 30.2491 12.4156 30.3473 12.5735C30.4455 12.7314 30.4978 12.9136 30.4981 13.0996V39.4056C30.498 39.5747 30.4549 39.7411 30.373 39.889C30.2911 40.037 30.173 40.1618 30.0297 40.2517C29.8865 40.3416 29.7228 40.3937 29.5539 40.4031C29.385 40.4126 29.2165 40.379 29.0641 40.3056L20.5641 36.2116C20.3947 36.13 20.2517 36.0022 20.1516 35.8431C20.0515 35.6839 19.9983 35.4997 19.9981 35.3116V8.8936C19.9978 8.72328 20.041 8.5557 20.1236 8.40674C20.2061 8.25778 20.3254 8.13238 20.47 8.04244C20.6147 7.95249 20.7799 7.90098 20.95 7.89278C21.1201 7.88459 21.2895 7.91998 21.4421 7.9956L29.9421 12.2056ZM44.4981 12.9796V32.4396C44.4981 33.6996 43.5981 35.2596 42.4781 35.8996L35.4961 39.9016C35.344 39.989 35.1716 40.0348 34.9962 40.0344C34.8208 40.0341 34.6486 39.9876 34.4968 39.8997C34.345 39.8117 34.219 39.6854 34.1315 39.5334C34.044 39.3814 33.998 39.209 33.9981 39.0336V12.6596C33.9982 12.4833 34.0448 12.3102 34.1334 12.1578C34.2219 12.0054 34.3491 11.879 34.5021 11.7916L38.5181 9.4996C41.7981 7.6196 44.4981 9.1796 44.4981 12.9796Z" fill="white"/>
</svg>
