<svg width="199" height="82" viewBox="0 0 199 82" fill="none" xmlns="http://www.w3.org/2000/svg">
<g filter="url(#filter0_d_631_888)">
<rect width="199" height="82" rx="5" fill="url(#paint0_linear_631_888)" shape-rendering="crispEdges"/>
<path d="M32.6709 22.0625H39.7998V46.4766C39.7998 49.2109 39.2952 51.4408 38.2861 53.166C37.2933 54.875 35.918 56.1283 34.1602 56.9258C32.4023 57.707 30.3923 58.0977 28.1299 58.0977C25.8512 58.0977 23.8249 57.707 22.0508 56.9258C20.2767 56.1283 18.8932 54.875 17.9004 53.166C16.9238 51.4408 16.4355 49.2109 16.4355 46.4766V22.0625H23.5645V46.4766C23.5645 48.0228 23.7354 49.2109 24.0771 50.041C24.4352 50.8711 24.9479 51.4408 25.6152 51.75C26.2988 52.043 27.137 52.1895 28.1299 52.1895C29.139 52.1895 29.9691 52.043 30.6201 51.75C31.2874 51.4408 31.792 50.8711 32.1338 50.041C32.4919 49.2109 32.6709 48.0228 32.6709 46.4766V22.0625Z" fill="white"/>
<path d="M155.468 54.9541C147.397 54.9541 139.326 54.9541 131.169 55.0402C130.568 57.7968 129.194 60.1226 126.875 61.8455C124.986 63.3099 122.84 63.999 120.436 63.999C117.774 63.999 115.455 63.1376 113.395 61.5009C111.334 59.7781 110.132 57.6245 109.617 55.0402C109.531 55.0402 109.445 55.0402 109.359 55.0402C108.415 55.0402 107.384 55.0402 106.44 55.0402C106.182 55.0402 105.925 55.0402 105.667 54.9541C105.152 54.7818 104.723 54.4372 104.551 53.9204C104.379 53.4897 104.293 53.059 104.293 52.6282C104.293 51.5945 104.207 50.4747 104.293 49.441C104.293 49.2687 104.293 49.0103 104.207 48.7518C104.121 48.4073 103.864 48.235 103.52 48.1488C103.349 48.1488 103.177 48.1488 103.091 48.1488C102.662 48.1488 102.318 48.1488 101.889 48.1488C101.546 48.1488 101.116 48.1488 100.773 48.1488C100.258 48.1488 100 47.9766 100 47.3736C100 46.5121 100 45.6507 100 44.7893C100 43.5833 100 42.4634 100 41.2575C100 41.0852 100 40.9129 100.086 40.8267C100.172 40.5683 100.343 40.396 100.687 40.3099C100.859 40.3099 101.116 40.3099 101.288 40.3099C101.975 40.3099 102.662 40.396 103.263 40.4822C103.435 40.4822 103.52 40.4822 103.692 40.4822C104.036 40.396 104.293 40.1376 104.379 39.793C104.379 39.6207 104.379 39.4485 104.379 39.2762C104.379 38.7593 104.379 38.2425 104.379 37.8118C104.379 37.4672 104.379 37.0365 104.379 36.6919C104.379 36.5196 104.379 36.4335 104.379 36.2612C104.465 35.9166 104.637 35.7443 104.98 35.6582C105.152 35.6582 105.324 35.6582 105.495 35.6582C109.703 35.6582 113.996 35.6582 118.203 35.6582C124.815 35.6582 131.426 35.6582 137.952 35.6582C145.851 35.6582 153.751 35.6582 161.65 35.6582C168.348 35.6582 174.959 35.6582 181.657 35.6582C181.742 35.6582 181.828 35.6582 181.914 35.6582C181.914 35.7443 181.914 35.8305 181.914 35.9166C181.914 39.7069 181.914 43.5833 181.914 47.3736C181.914 49.1826 181.914 51.0777 181.914 52.8867C181.914 53.1451 181.914 53.4035 181.828 53.6619C181.742 54.3511 181.313 54.6957 180.626 54.8679C180.369 54.9541 180.111 54.9541 179.853 54.9541C178.909 54.9541 178.05 54.9541 177.106 54.9541C177.02 54.9541 177.02 54.9541 176.934 54.9541C176.247 58.0552 174.616 60.5533 171.868 62.2762C169.893 63.4822 167.747 63.999 165.428 63.8267C162.938 63.6545 160.792 62.7069 158.903 61.0702C157.099 59.5196 155.983 57.4522 155.468 54.9541ZM166.287 46.3399C162.681 46.3399 159.761 49.2687 159.761 52.8867C159.761 56.5046 162.681 59.4335 166.287 59.4335C169.893 59.4335 172.813 56.5046 172.813 52.8867C172.727 49.2687 169.807 46.3399 166.287 46.3399ZM126.961 52.9728C126.961 49.5271 124.214 46.426 120.436 46.426C116.829 46.426 113.91 49.3548 113.91 52.9728C113.91 56.5908 116.829 59.5196 120.436 59.5196C124.042 59.4335 126.961 56.5908 126.961 52.9728Z" fill="white" fill-opacity="0.5"/>
<path d="M104.207 34.0225C104.207 33.9363 104.207 33.8502 104.207 33.8502C104.207 29.0262 104.207 24.2022 104.207 19.3783C104.207 18.9476 104.379 18.603 104.636 18.3446C104.894 18.1723 105.152 18 105.409 18C105.495 18 105.495 18 105.581 18C112.965 18 120.349 18 127.734 18C127.905 18 128.077 18 128.249 18.0861C128.764 18.2584 129.108 18.6891 129.193 19.2921C129.193 19.3783 129.193 19.4644 129.193 19.5506C129.193 24.2884 129.193 29.0262 129.193 33.764C129.193 33.8502 129.193 33.9363 129.193 34.0225C129.108 34.0225 129.108 34.0225 129.022 34.0225C120.693 34.0225 112.45 34.0225 104.207 34.0225Z" fill="white" fill-opacity="0.5"/>
<path d="M130.652 34.0225C130.652 33.9363 130.652 33.8502 130.652 33.764C130.652 28.9401 130.652 24.2022 130.652 19.3783C130.652 19.206 130.652 19.0337 130.738 18.8614C130.91 18.3446 131.339 18 131.94 18H132.026C139.41 18 146.795 18 154.179 18C154.351 18 154.522 18 154.694 18.0861C155.209 18.2584 155.553 18.6891 155.553 19.206C155.553 19.2921 155.553 19.3783 155.553 19.4644C155.553 24.2022 155.553 28.9401 155.553 33.764C155.553 33.8502 155.553 33.9363 155.553 34.0225C147.224 34.0225 138.981 34.0225 130.652 34.0225Z" fill="white" fill-opacity="0.5"/>
<path d="M181.998 34.0242C173.669 34.0242 165.426 34.0242 157.098 34.0242C157.098 33.9381 157.098 33.8519 157.098 33.7658C157.098 29.028 157.098 24.3763 157.098 19.6385C157.098 19.5523 157.098 19.38 157.098 19.2939C157.098 18.6047 157.699 18.0879 158.386 18.0879H158.471C165.856 18.0879 173.24 18.0879 180.624 18.0879C180.796 18.0879 180.968 18.0879 181.14 18.174C181.655 18.3463 181.998 18.777 181.998 19.2939C181.998 19.38 181.998 19.4662 181.998 19.5523C181.998 24.2901 181.998 29.028 181.998 33.7658C181.998 33.8519 181.998 33.9381 181.998 34.0242Z" fill="white" fill-opacity="0.5"/>
</g>
<defs>
<filter id="filter0_d_631_888" x="-17" y="-17" width="243" height="126" filterUnits="userSpaceOnUse" color-interpolation-filters="sRGB">
<feFlood flood-opacity="0" result="BackgroundImageFix"/>
<feColorMatrix in="SourceAlpha" type="matrix" values="0 0 0 0 0 0 0 0 0 0 0 0 0 0 0 0 0 0 127 0" result="hardAlpha"/>
<feOffset dx="5" dy="5"/>
<feGaussianBlur stdDeviation="11"/>
<feComposite in2="hardAlpha" operator="out"/>
<feColorMatrix type="matrix" values="0 0 0 0 0.0392157 0 0 0 0 0.560784 0 0 0 0 0.309804 0 0 0 0.2 0"/>
<feBlend mode="normal" in2="BackgroundImageFix" result="effect1_dropShadow_631_888"/>
<feBlend mode="normal" in="SourceGraphic" in2="effect1_dropShadow_631_888" result="shape"/>
</filter>
<linearGradient id="paint0_linear_631_888" x1="99.5" y1="82" x2="99.5" y2="4.33358e-07" gradientUnits="userSpaceOnUse">
<stop stop-color="#5CCC94"/>
<stop offset="1" stop-color="#8CCAAE"/>
</linearGradient>
</defs>
</svg>
