<svg width="739" height="84" viewBox="0 0 739 84" fill="none" xmlns="http://www.w3.org/2000/svg">
<path d="M15.4189 62.0469H18.6113C19.2767 62.0469 19.8441 62.1608 20.3135 62.3887C20.7829 62.6165 21.1429 62.9538 21.3936 63.4004C21.6442 63.847 21.7695 64.3984 21.7695 65.0547C21.7695 65.5924 21.6966 66.0527 21.5508 66.4355C21.4049 66.8138 21.1976 67.1305 20.9287 67.3857C20.6598 67.6364 20.3385 67.8369 19.9648 67.9873L19.3564 68.3496H16.7656L16.7588 66.6885H18.5566C18.8301 66.6885 19.0557 66.6292 19.2334 66.5107C19.4157 66.3877 19.5501 66.2168 19.6367 65.998C19.7279 65.7747 19.7734 65.515 19.7734 65.2188C19.7734 64.9043 19.7324 64.6354 19.6504 64.4121C19.5729 64.1842 19.4476 64.0111 19.2744 63.8926C19.1058 63.7695 18.8848 63.708 18.6113 63.708H17.4219V72H15.4189V62.0469ZM19.9375 72L18.1123 67.5635L20.2109 67.5566L22.0771 71.9043V72H19.9375ZM26.0488 72.1367C25.543 72.1367 25.0941 72.0592 24.7021 71.9043C24.3148 71.7493 23.9867 71.526 23.7178 71.2344C23.4489 70.9382 23.2438 70.5804 23.1025 70.1611C22.9613 69.7419 22.8906 69.2633 22.8906 68.7256V68.1172C22.8906 67.5156 22.959 66.9893 23.0957 66.5381C23.2324 66.0824 23.4261 65.6995 23.6768 65.3896C23.9274 65.0798 24.235 64.8496 24.5996 64.6992C24.9688 64.5443 25.3857 64.4668 25.8506 64.4668C26.3154 64.4668 26.7233 64.5443 27.0742 64.6992C27.4297 64.8496 27.7236 65.0775 27.9561 65.3828C28.1885 65.6836 28.3639 66.0573 28.4824 66.5039C28.6009 66.9505 28.6602 67.4701 28.6602 68.0625V68.9375H23.7041V67.5908H26.7803V67.4199C26.7803 67.1191 26.7484 66.8685 26.6846 66.668C26.6208 66.4629 26.5205 66.3102 26.3838 66.21C26.2471 66.1097 26.0648 66.0596 25.8369 66.0596C25.6455 66.0596 25.4837 66.0983 25.3516 66.1758C25.2194 66.2533 25.1146 66.374 25.0371 66.5381C24.9596 66.7021 24.9027 66.9163 24.8662 67.1807C24.8298 67.4404 24.8115 67.7526 24.8115 68.1172V68.7256C24.8115 69.0674 24.8411 69.3545 24.9004 69.5869C24.9596 69.8148 25.0462 70.0016 25.1602 70.1475C25.2786 70.2887 25.4222 70.3913 25.5908 70.4551C25.7594 70.5143 25.9554 70.5439 26.1787 70.5439C26.516 70.5439 26.819 70.4847 27.0879 70.3662C27.3613 70.2432 27.5938 70.0768 27.7852 69.8672L28.5508 71.0293C28.4186 71.2025 28.2363 71.3757 28.0039 71.5488C27.7715 71.722 27.4935 71.8633 27.1699 71.9727C26.8464 72.082 26.4727 72.1367 26.0488 72.1367ZM33.6572 64.6035H35.3936V72C35.3936 72.6745 35.2637 73.2259 35.0039 73.6543C34.7487 74.0872 34.391 74.404 33.9307 74.6045C33.4749 74.8096 32.9417 74.9121 32.3311 74.9121C32.0986 74.9121 31.8366 74.8802 31.5449 74.8164C31.2578 74.7526 30.9798 74.6546 30.7109 74.5225C30.4421 74.3949 30.221 74.2399 30.0479 74.0576L30.6973 72.7314C30.875 72.9092 31.1074 73.0596 31.3945 73.1826C31.6816 73.3102 31.9642 73.374 32.2422 73.374C32.5111 73.374 32.7344 73.3307 32.9121 73.2441C33.0944 73.1621 33.2311 73.0208 33.3223 72.8203C33.418 72.6198 33.4658 72.3509 33.4658 72.0137V66.3193L33.6572 64.6035ZM29.5283 68.5615V68.0693C29.5283 67.4678 29.5853 66.9414 29.6992 66.4902C29.8132 66.0391 29.9772 65.6631 30.1914 65.3623C30.4056 65.0615 30.6676 64.8382 30.9775 64.6924C31.292 64.542 31.6429 64.4668 32.0303 64.4668C32.4359 64.4668 32.7754 64.5557 33.0488 64.7334C33.3223 64.9066 33.5433 65.1504 33.7119 65.4648C33.8851 65.7793 34.0173 66.1507 34.1084 66.5791C34.2041 67.0075 34.277 67.4769 34.3271 67.9873V68.6982C34.277 69.1813 34.195 69.6325 34.0811 70.0518C33.9717 70.471 33.8258 70.8356 33.6436 71.1455C33.4613 71.4554 33.238 71.6992 32.9736 71.877C32.7093 72.0501 32.3903 72.1367 32.0166 72.1367C31.6338 72.1367 31.2874 72.0592 30.9775 71.9043C30.6722 71.7493 30.4102 71.5215 30.1914 71.2207C29.9772 70.9154 29.8132 70.5417 29.6992 70.0996C29.5853 69.653 29.5283 69.1403 29.5283 68.5615ZM31.4492 68.0693V68.5615C31.4492 68.9079 31.4697 69.2064 31.5107 69.457C31.5563 69.7031 31.6247 69.9059 31.7158 70.0654C31.807 70.2204 31.9232 70.3366 32.0645 70.4141C32.2103 70.487 32.3812 70.5234 32.5771 70.5234C32.8551 70.5234 33.0762 70.4596 33.2402 70.332C33.4089 70.1999 33.5319 70.0199 33.6094 69.792C33.6914 69.5596 33.737 69.293 33.7461 68.9922V67.7002C33.7415 67.4495 33.7119 67.224 33.6572 67.0234C33.6071 66.8229 33.5365 66.652 33.4453 66.5107C33.3542 66.3695 33.2357 66.2601 33.0898 66.1826C32.9486 66.1051 32.7822 66.0664 32.5908 66.0664C32.3949 66.0664 32.2262 66.1051 32.085 66.1826C31.9437 66.2601 31.8252 66.3809 31.7295 66.5449C31.6383 66.7044 31.5677 66.9118 31.5176 67.167C31.472 67.4176 31.4492 67.7184 31.4492 68.0693ZM38.832 64.6035V72H36.9111V64.6035H38.832ZM36.8223 62.6895C36.8223 62.3932 36.9157 62.1494 37.1025 61.958C37.2939 61.762 37.5492 61.6641 37.8682 61.6641C38.1917 61.6641 38.4469 61.762 38.6338 61.958C38.8206 62.1494 38.9141 62.3932 38.9141 62.6895C38.9141 62.9811 38.8184 63.2249 38.627 63.4209C38.4401 63.6123 38.1895 63.708 37.875 63.708C37.5514 63.708 37.2939 63.6123 37.1025 63.4209C36.9157 63.2249 36.8223 62.9811 36.8223 62.6895ZM43.6309 70.0039C43.6309 69.8763 43.5876 69.7624 43.501 69.6621C43.4144 69.5618 43.2777 69.4593 43.0908 69.3545C42.904 69.2451 42.6556 69.1243 42.3457 68.9922C42.0085 68.8555 41.71 68.7142 41.4502 68.5684C41.1904 68.4225 40.9694 68.2607 40.7871 68.083C40.6094 67.9053 40.4749 67.7025 40.3838 67.4746C40.2926 67.2467 40.2471 66.987 40.2471 66.6953C40.2471 66.3809 40.304 66.0915 40.418 65.8271C40.5365 65.5583 40.7051 65.3236 40.9238 65.123C41.1426 64.918 41.4092 64.7585 41.7236 64.6445C42.0426 64.526 42.4004 64.4668 42.7969 64.4668C43.3529 64.4668 43.8291 64.5648 44.2256 64.7607C44.6266 64.9521 44.9342 65.221 45.1484 65.5674C45.3626 65.9137 45.4697 66.3171 45.4697 66.7773H43.5557C43.5557 66.6133 43.5306 66.4674 43.4805 66.3398C43.4303 66.2077 43.3483 66.1051 43.2344 66.0322C43.125 65.9593 42.9769 65.9229 42.79 65.9229C42.6533 65.9229 42.5303 65.9525 42.4209 66.0117C42.3161 66.071 42.2318 66.1507 42.168 66.251C42.1087 66.3467 42.0791 66.4606 42.0791 66.5928C42.0791 66.693 42.0996 66.7819 42.1406 66.8594C42.1862 66.9368 42.2568 67.012 42.3525 67.085C42.4482 67.1579 42.5758 67.2354 42.7354 67.3174C42.8994 67.3949 43.0999 67.4814 43.3369 67.5771C43.8291 67.7594 44.2324 67.9554 44.5469 68.165C44.8659 68.3747 45.1029 68.6208 45.2578 68.9033C45.4128 69.1813 45.4902 69.5254 45.4902 69.9355C45.4902 70.2637 45.4264 70.5622 45.2988 70.8311C45.1758 71.0999 44.9958 71.3324 44.7588 71.5283C44.5218 71.7243 44.237 71.8747 43.9043 71.9795C43.5762 72.0843 43.2093 72.1367 42.8037 72.1367C42.2067 72.1367 41.7031 72.0182 41.293 71.7812C40.8828 71.5443 40.5729 71.2412 40.3633 70.8721C40.1536 70.4984 40.0488 70.111 40.0488 69.71H41.8672C41.8763 69.9561 41.9219 70.1497 42.0039 70.291C42.0905 70.4277 42.2067 70.5234 42.3525 70.5781C42.4984 70.6328 42.6602 70.6602 42.8379 70.6602C43.0156 70.6602 43.1615 70.6374 43.2754 70.5918C43.3939 70.5417 43.4827 70.4665 43.542 70.3662C43.6012 70.2614 43.6309 70.1406 43.6309 70.0039ZM49.9336 64.6035V66.0459H46.1602V64.6035H49.9336ZM47.0283 62.7783H48.9355V69.7441C48.9355 69.9492 48.9561 70.1064 48.9971 70.2158C49.0381 70.3252 49.0996 70.4027 49.1816 70.4482C49.2682 70.4893 49.3822 70.5098 49.5234 70.5098C49.6191 70.5098 49.708 70.5052 49.79 70.4961C49.8721 70.4824 49.9336 70.4688 49.9746 70.4551V71.9521C49.8242 72.0114 49.6647 72.057 49.4961 72.0889C49.332 72.1208 49.1361 72.1367 48.9082 72.1367C48.5254 72.1367 48.1927 72.0638 47.9102 71.918C47.6322 71.7721 47.4157 71.5397 47.2607 71.2207C47.1058 70.8971 47.0283 70.4733 47.0283 69.9492V62.7783ZM54.2607 70.2979V66.8799C54.2607 66.6566 54.2334 66.4788 54.1787 66.3467C54.1286 66.2145 54.0511 66.1188 53.9463 66.0596C53.846 65.9958 53.723 65.9639 53.5771 65.9639C53.4131 65.9639 53.2764 65.998 53.167 66.0664C53.0576 66.1348 52.9756 66.2327 52.9209 66.3604C52.8708 66.488 52.8457 66.6406 52.8457 66.8184H50.9248C50.9248 66.4993 50.9863 66.1986 51.1094 65.916C51.2324 65.6289 51.4124 65.3783 51.6494 65.1641C51.891 64.9453 52.1781 64.7744 52.5107 64.6514C52.8434 64.5283 53.2171 64.4668 53.6318 64.4668C54.124 64.4668 54.5615 64.5511 54.9443 64.7197C55.3271 64.8838 55.6302 65.1458 55.8535 65.5059C56.0768 65.8659 56.1885 66.333 56.1885 66.9072V70.2021C56.1885 70.6169 56.209 70.9541 56.25 71.2139C56.2956 71.4736 56.3617 71.6969 56.4482 71.8838V72H54.5205C54.4339 71.7949 54.3678 71.5397 54.3223 71.2344C54.2812 70.9245 54.2607 70.6123 54.2607 70.2979ZM54.4932 67.4814L54.5 68.6299H53.7959C53.6136 68.6299 53.4541 68.6595 53.3174 68.7188C53.1852 68.778 53.0736 68.8623 52.9824 68.9717C52.8913 69.0765 52.8229 69.1995 52.7773 69.3408C52.7363 69.4821 52.7158 69.6325 52.7158 69.792C52.7158 69.9697 52.7409 70.1201 52.791 70.2432C52.8411 70.3662 52.9163 70.4596 53.0166 70.5234C53.1169 70.5872 53.2354 70.6191 53.3721 70.6191C53.5817 70.6191 53.764 70.5758 53.9189 70.4893C54.0739 70.4027 54.1878 70.2979 54.2607 70.1748C54.3382 70.0518 54.3633 69.9378 54.3359 69.833L54.7734 70.5781C54.7188 70.7467 54.6436 70.9222 54.5479 71.1045C54.4567 71.2868 54.3405 71.4554 54.1992 71.6104C54.0579 71.7653 53.8825 71.8929 53.6729 71.9932C53.4678 72.0889 53.224 72.1367 52.9414 72.1367C52.5449 72.1367 52.1826 72.0456 51.8545 71.8633C51.5264 71.681 51.2666 71.4258 51.0752 71.0977C50.8883 70.7695 50.7949 70.3799 50.7949 69.9287C50.7949 69.555 50.8542 69.2178 50.9727 68.917C51.0957 68.6117 51.278 68.3542 51.5195 68.1445C51.7611 67.9303 52.0664 67.7663 52.4355 67.6523C52.8047 67.5384 53.2376 67.4814 53.7344 67.4814H54.4932ZM59.5176 66.251V72H57.6035V64.6035H59.4082L59.5176 66.251ZM61.2607 64.5488L61.2334 66.4561C61.1468 66.4378 61.042 66.4242 60.9189 66.415C60.8005 66.4059 60.6956 66.4014 60.6045 66.4014C60.3903 66.4014 60.208 66.4355 60.0576 66.5039C59.9072 66.5677 59.7819 66.6657 59.6816 66.7979C59.5859 66.9255 59.513 67.085 59.4629 67.2764C59.4128 67.4678 59.3831 67.6842 59.374 67.9258L59.0117 67.7891C59.0117 67.306 59.0482 66.8639 59.1211 66.4629C59.1986 66.0573 59.3125 65.7064 59.4629 65.4102C59.6133 65.1094 59.7933 64.877 60.0029 64.7129C60.2171 64.5488 60.4587 64.4668 60.7275 64.4668C60.8187 64.4668 60.9144 64.4759 61.0146 64.4941C61.1195 64.5078 61.2015 64.526 61.2607 64.5488ZM65.5195 70.0039C65.5195 69.8763 65.4762 69.7624 65.3896 69.6621C65.3031 69.5618 65.1663 69.4593 64.9795 69.3545C64.7926 69.2451 64.5443 69.1243 64.2344 68.9922C63.8971 68.8555 63.5986 68.7142 63.3389 68.5684C63.0791 68.4225 62.8581 68.2607 62.6758 68.083C62.498 67.9053 62.3636 67.7025 62.2725 67.4746C62.1813 67.2467 62.1357 66.987 62.1357 66.6953C62.1357 66.3809 62.1927 66.0915 62.3066 65.8271C62.4251 65.5583 62.5938 65.3236 62.8125 65.123C63.0312 64.918 63.2979 64.7585 63.6123 64.6445C63.9313 64.526 64.2891 64.4668 64.6855 64.4668C65.2415 64.4668 65.7178 64.5648 66.1143 64.7607C66.5153 64.9521 66.8229 65.221 67.0371 65.5674C67.2513 65.9137 67.3584 66.3171 67.3584 66.7773H65.4443C65.4443 66.6133 65.4193 66.4674 65.3691 66.3398C65.319 66.2077 65.237 66.1051 65.123 66.0322C65.0137 65.9593 64.8656 65.9229 64.6787 65.9229C64.542 65.9229 64.4189 65.9525 64.3096 66.0117C64.2048 66.071 64.1204 66.1507 64.0566 66.251C63.9974 66.3467 63.9678 66.4606 63.9678 66.5928C63.9678 66.693 63.9883 66.7819 64.0293 66.8594C64.0749 66.9368 64.1455 67.012 64.2412 67.085C64.3369 67.1579 64.4645 67.2354 64.624 67.3174C64.7881 67.3949 64.9886 67.4814 65.2256 67.5771C65.7178 67.7594 66.1211 67.9554 66.4355 68.165C66.7546 68.3747 66.9915 68.6208 67.1465 68.9033C67.3014 69.1813 67.3789 69.5254 67.3789 69.9355C67.3789 70.2637 67.3151 70.5622 67.1875 70.8311C67.0645 71.0999 66.8844 71.3324 66.6475 71.5283C66.4105 71.7243 66.1257 71.8747 65.793 71.9795C65.4648 72.0843 65.098 72.1367 64.6924 72.1367C64.0954 72.1367 63.5918 72.0182 63.1816 71.7812C62.7715 71.5443 62.4616 71.2412 62.252 70.8721C62.0423 70.4984 61.9375 70.111 61.9375 69.71H63.7559C63.765 69.9561 63.8105 70.1497 63.8926 70.291C63.9792 70.4277 64.0954 70.5234 64.2412 70.5781C64.387 70.6328 64.5488 70.6602 64.7266 70.6602C64.9043 70.6602 65.0501 70.6374 65.1641 70.5918C65.2826 70.5417 65.3714 70.4665 65.4307 70.3662C65.4899 70.2614 65.5195 70.1406 65.5195 70.0039ZM70.5098 61.4932V72H68.5957V61.4932H70.5098ZM74.3994 64.6035L71.7949 68.2812L70.2295 70.0381L69.5527 68.582L70.7559 66.8252L72.1162 64.6035H74.3994ZM72.4033 72L70.79 68.6025L72.1094 67.3857L74.5977 72H72.4033ZM78.1387 72.1367C77.6328 72.1367 77.1839 72.0592 76.792 71.9043C76.4046 71.7493 76.0765 71.526 75.8076 71.2344C75.5387 70.9382 75.3337 70.5804 75.1924 70.1611C75.0511 69.7419 74.9805 69.2633 74.9805 68.7256V68.1172C74.9805 67.5156 75.0488 66.9893 75.1855 66.5381C75.3223 66.0824 75.516 65.6995 75.7666 65.3896C76.0173 65.0798 76.3249 64.8496 76.6895 64.6992C77.0586 64.5443 77.4756 64.4668 77.9404 64.4668C78.4053 64.4668 78.8132 64.5443 79.1641 64.6992C79.5195 64.8496 79.8135 65.0775 80.0459 65.3828C80.2783 65.6836 80.4538 66.0573 80.5723 66.5039C80.6908 66.9505 80.75 67.4701 80.75 68.0625V68.9375H75.7939V67.5908H78.8701V67.4199C78.8701 67.1191 78.8382 66.8685 78.7744 66.668C78.7106 66.4629 78.6104 66.3102 78.4736 66.21C78.3369 66.1097 78.1546 66.0596 77.9268 66.0596C77.7354 66.0596 77.5736 66.0983 77.4414 66.1758C77.3092 66.2533 77.2044 66.374 77.127 66.5381C77.0495 66.7021 76.9925 66.9163 76.9561 67.1807C76.9196 67.4404 76.9014 67.7526 76.9014 68.1172V68.7256C76.9014 69.0674 76.931 69.3545 76.9902 69.5869C77.0495 69.8148 77.1361 70.0016 77.25 70.1475C77.3685 70.2887 77.512 70.3913 77.6807 70.4551C77.8493 70.5143 78.0452 70.5439 78.2686 70.5439C78.6058 70.5439 78.9089 70.4847 79.1777 70.3662C79.4512 70.2432 79.6836 70.0768 79.875 69.8672L80.6406 71.0293C80.5085 71.2025 80.3262 71.3757 80.0938 71.5488C79.8613 71.722 79.5833 71.8633 79.2598 71.9727C78.9362 72.082 78.5625 72.1367 78.1387 72.1367ZM88.3105 64.6035V66.0459H84.5371V64.6035H88.3105ZM85.4053 62.7783H87.3125V69.7441C87.3125 69.9492 87.333 70.1064 87.374 70.2158C87.415 70.3252 87.4766 70.4027 87.5586 70.4482C87.6452 70.4893 87.7591 70.5098 87.9004 70.5098C87.9961 70.5098 88.085 70.5052 88.167 70.4961C88.249 70.4824 88.3105 70.4688 88.3516 70.4551V71.9521C88.2012 72.0114 88.0417 72.057 87.873 72.0889C87.709 72.1208 87.513 72.1367 87.2852 72.1367C86.9023 72.1367 86.5697 72.0638 86.2871 71.918C86.0091 71.7721 85.7926 71.5397 85.6377 71.2207C85.4827 70.8971 85.4053 70.4733 85.4053 69.9492V62.7783ZM92.6377 70.2979V66.8799C92.6377 66.6566 92.6104 66.4788 92.5557 66.3467C92.5055 66.2145 92.4281 66.1188 92.3232 66.0596C92.223 65.9958 92.0999 65.9639 91.9541 65.9639C91.79 65.9639 91.6533 65.998 91.5439 66.0664C91.4346 66.1348 91.3525 66.2327 91.2979 66.3604C91.2477 66.488 91.2227 66.6406 91.2227 66.8184H89.3018C89.3018 66.4993 89.3633 66.1986 89.4863 65.916C89.6094 65.6289 89.7894 65.3783 90.0264 65.1641C90.2679 64.9453 90.555 64.7744 90.8877 64.6514C91.2204 64.5283 91.5941 64.4668 92.0088 64.4668C92.501 64.4668 92.9385 64.5511 93.3213 64.7197C93.7041 64.8838 94.0072 65.1458 94.2305 65.5059C94.4538 65.8659 94.5654 66.333 94.5654 66.9072V70.2021C94.5654 70.6169 94.5859 70.9541 94.627 71.2139C94.6725 71.4736 94.7386 71.6969 94.8252 71.8838V72H92.8975C92.8109 71.7949 92.7448 71.5397 92.6992 71.2344C92.6582 70.9245 92.6377 70.6123 92.6377 70.2979ZM92.8701 67.4814L92.877 68.6299H92.1729C91.9906 68.6299 91.8311 68.6595 91.6943 68.7188C91.5622 68.778 91.4505 68.8623 91.3594 68.9717C91.2682 69.0765 91.1999 69.1995 91.1543 69.3408C91.1133 69.4821 91.0928 69.6325 91.0928 69.792C91.0928 69.9697 91.1178 70.1201 91.168 70.2432C91.2181 70.3662 91.2933 70.4596 91.3936 70.5234C91.4938 70.5872 91.6123 70.6191 91.749 70.6191C91.9587 70.6191 92.141 70.5758 92.2959 70.4893C92.4508 70.4027 92.5648 70.2979 92.6377 70.1748C92.7152 70.0518 92.7402 69.9378 92.7129 69.833L93.1504 70.5781C93.0957 70.7467 93.0205 70.9222 92.9248 71.1045C92.8337 71.2868 92.7174 71.4554 92.5762 71.6104C92.4349 71.7653 92.2594 71.8929 92.0498 71.9932C91.8447 72.0889 91.6009 72.1367 91.3184 72.1367C90.9219 72.1367 90.5596 72.0456 90.2314 71.8633C89.9033 71.681 89.6436 71.4258 89.4521 71.0977C89.2653 70.7695 89.1719 70.3799 89.1719 69.9287C89.1719 69.555 89.2311 69.2178 89.3496 68.917C89.4727 68.6117 89.6549 68.3542 89.8965 68.1445C90.138 67.9303 90.4434 67.7663 90.8125 67.6523C91.1816 67.5384 91.6146 67.4814 92.1113 67.4814H92.8701ZM95.9873 61.5H97.8945V70.2842L97.7578 72H95.9873V61.5ZM101.736 68.0557V68.541C101.736 69.1426 101.688 69.6667 101.593 70.1133C101.502 70.5599 101.358 70.9336 101.162 71.2344C100.971 71.5352 100.725 71.7607 100.424 71.9111C100.123 72.0615 99.7676 72.1367 99.3574 72.1367C98.9883 72.1367 98.6715 72.0501 98.4072 71.877C98.1429 71.6992 97.9196 71.4554 97.7373 71.1455C97.5596 70.8311 97.4137 70.4642 97.2998 70.0449C97.1904 69.6211 97.1107 69.1585 97.0605 68.6572V67.9395C97.1061 67.4473 97.1836 66.9893 97.293 66.5654C97.4069 66.1416 97.5527 65.7747 97.7305 65.4648C97.9082 65.1504 98.1292 64.9066 98.3936 64.7334C98.6624 64.5557 98.9792 64.4668 99.3438 64.4668C99.763 64.4668 100.123 64.5443 100.424 64.6992C100.725 64.8496 100.971 65.0752 101.162 65.376C101.358 65.6768 101.502 66.0527 101.593 66.5039C101.688 66.9505 101.736 67.4678 101.736 68.0557ZM99.8291 68.541V68.0557C99.8291 67.7139 99.8154 67.4199 99.7881 67.1738C99.7607 66.9277 99.7106 66.7227 99.6377 66.5586C99.5648 66.3945 99.46 66.2715 99.3232 66.1895C99.1911 66.1074 99.0156 66.0664 98.7969 66.0664C98.6009 66.0664 98.4368 66.1051 98.3047 66.1826C98.1725 66.2555 98.0586 66.3649 97.9629 66.5107C97.8717 66.652 97.8034 66.8206 97.7578 67.0166C97.7168 67.208 97.694 67.4199 97.6895 67.6523V68.9443C97.694 69.2588 97.7327 69.5368 97.8057 69.7783C97.8786 70.0199 97.9948 70.2067 98.1543 70.3389C98.3184 70.471 98.5371 70.5371 98.8105 70.5371C99.0247 70.5371 99.1979 70.5007 99.3301 70.4277C99.4622 70.3548 99.5648 70.2386 99.6377 70.0791C99.7152 69.9196 99.7653 69.7145 99.7881 69.4639C99.8154 69.2087 99.8291 68.901 99.8291 68.541ZM104.922 61.5V72H103.001V61.5H104.922ZM108.449 64.6035V72H106.528V64.6035H108.449ZM106.439 62.6895C106.439 62.3932 106.533 62.1494 106.72 61.958C106.911 61.762 107.166 61.6641 107.485 61.6641C107.809 61.6641 108.064 61.762 108.251 61.958C108.438 62.1494 108.531 62.3932 108.531 62.6895C108.531 62.9811 108.436 63.2249 108.244 63.4209C108.057 63.6123 107.807 63.708 107.492 63.708C107.169 63.708 106.911 63.6123 106.72 63.4209C106.533 63.2249 106.439 62.9811 106.439 62.6895ZM112.64 70.5439C112.817 70.5439 112.97 70.5075 113.098 70.4346C113.23 70.3617 113.33 70.2432 113.398 70.0791C113.467 69.915 113.503 69.7031 113.508 69.4434H115.306C115.306 69.9993 115.187 70.4801 114.95 70.8857C114.718 71.2868 114.403 71.5967 114.007 71.8154C113.615 72.0296 113.171 72.1367 112.674 72.1367C112.177 72.1367 111.744 72.057 111.375 71.8975C111.006 71.738 110.701 71.5055 110.459 71.2002C110.222 70.8949 110.042 70.5234 109.919 70.0859C109.8 69.6439 109.741 69.138 109.741 68.5684V68.0283C109.741 67.4678 109.8 66.9665 109.919 66.5244C110.042 66.0824 110.222 65.7087 110.459 65.4033C110.701 65.098 111.004 64.8656 111.368 64.7061C111.737 64.5465 112.17 64.4668 112.667 64.4668C113.2 64.4668 113.663 64.5785 114.055 64.8018C114.447 65.0205 114.752 65.3441 114.971 65.7725C115.194 66.2008 115.306 66.7295 115.306 67.3584H113.508C113.503 67.0758 113.469 66.8411 113.405 66.6543C113.346 66.4629 113.253 66.3171 113.125 66.2168C113.002 66.112 112.838 66.0596 112.633 66.0596C112.419 66.0596 112.245 66.1051 112.113 66.1963C111.986 66.2829 111.888 66.4105 111.819 66.5791C111.756 66.7432 111.712 66.9482 111.689 67.1943C111.667 67.4404 111.655 67.7184 111.655 68.0283V68.5684C111.655 68.901 111.664 69.1904 111.683 69.4365C111.705 69.6781 111.749 69.8831 111.812 70.0518C111.881 70.2158 111.979 70.3389 112.106 70.4209C112.239 70.5029 112.416 70.5439 112.64 70.5439ZM119.387 72.1367C118.881 72.1367 118.432 72.0592 118.04 71.9043C117.653 71.7493 117.325 71.526 117.056 71.2344C116.787 70.9382 116.582 70.5804 116.44 70.1611C116.299 69.7419 116.229 69.2633 116.229 68.7256V68.1172C116.229 67.5156 116.297 66.9893 116.434 66.5381C116.57 66.0824 116.764 65.6995 117.015 65.3896C117.265 65.0798 117.573 64.8496 117.938 64.6992C118.307 64.5443 118.724 64.4668 119.188 64.4668C119.653 64.4668 120.061 64.5443 120.412 64.6992C120.768 64.8496 121.062 65.0775 121.294 65.3828C121.526 65.6836 121.702 66.0573 121.82 66.5039C121.939 66.9505 121.998 67.4701 121.998 68.0625V68.9375H117.042V67.5908H120.118V67.4199C120.118 67.1191 120.086 66.8685 120.022 66.668C119.959 66.4629 119.858 66.3102 119.722 66.21C119.585 66.1097 119.403 66.0596 119.175 66.0596C118.983 66.0596 118.822 66.0983 118.689 66.1758C118.557 66.2533 118.452 66.374 118.375 66.5381C118.298 66.7021 118.241 66.9163 118.204 67.1807C118.168 67.4404 118.149 67.7526 118.149 68.1172V68.7256C118.149 69.0674 118.179 69.3545 118.238 69.5869C118.298 69.8148 118.384 70.0016 118.498 70.1475C118.617 70.2887 118.76 70.3913 118.929 70.4551C119.097 70.5143 119.293 70.5439 119.517 70.5439C119.854 70.5439 120.157 70.4847 120.426 70.3662C120.699 70.2432 120.932 70.0768 121.123 69.8672L121.889 71.0293C121.757 71.2025 121.574 71.3757 121.342 71.5488C121.109 71.722 120.831 71.8633 120.508 71.9727C120.184 72.082 119.811 72.1367 119.387 72.1367Z" fill="url(#paint0_linear_363_3159)"/>
<path d="M378.15 62.0469V72H376.216L373.092 65.7725V72H371.191V62.0469H373.099L376.25 68.3428V62.0469H378.15ZM382.929 70.2979V66.8799C382.929 66.6566 382.901 66.4788 382.847 66.3467C382.797 66.2145 382.719 66.1188 382.614 66.0596C382.514 65.9958 382.391 65.9639 382.245 65.9639C382.081 65.9639 381.944 65.998 381.835 66.0664C381.726 66.1348 381.644 66.2327 381.589 66.3604C381.539 66.488 381.514 66.6406 381.514 66.8184H379.593C379.593 66.4993 379.654 66.1986 379.777 65.916C379.9 65.6289 380.08 65.3783 380.317 65.1641C380.559 64.9453 380.846 64.7744 381.179 64.6514C381.511 64.5283 381.885 64.4668 382.3 64.4668C382.792 64.4668 383.229 64.5511 383.612 64.7197C383.995 64.8838 384.298 65.1458 384.521 65.5059C384.745 65.8659 384.856 66.333 384.856 66.9072V70.2021C384.856 70.6169 384.877 70.9541 384.918 71.2139C384.964 71.4736 385.03 71.6969 385.116 71.8838V72H383.188C383.102 71.7949 383.036 71.5397 382.99 71.2344C382.949 70.9245 382.929 70.6123 382.929 70.2979ZM383.161 67.4814L383.168 68.6299H382.464C382.282 68.6299 382.122 68.6595 381.985 68.7188C381.853 68.778 381.742 68.8623 381.65 68.9717C381.559 69.0765 381.491 69.1995 381.445 69.3408C381.404 69.4821 381.384 69.6325 381.384 69.792C381.384 69.9697 381.409 70.1201 381.459 70.2432C381.509 70.3662 381.584 70.4596 381.685 70.5234C381.785 70.5872 381.903 70.6191 382.04 70.6191C382.25 70.6191 382.432 70.5758 382.587 70.4893C382.742 70.4027 382.856 70.2979 382.929 70.1748C383.006 70.0518 383.031 69.9378 383.004 69.833L383.441 70.5781C383.387 70.7467 383.312 70.9222 383.216 71.1045C383.125 71.2868 383.008 71.4554 382.867 71.6104C382.726 71.7653 382.55 71.8929 382.341 71.9932C382.136 72.0889 381.892 72.1367 381.609 72.1367C381.213 72.1367 380.851 72.0456 380.522 71.8633C380.194 71.681 379.935 71.4258 379.743 71.0977C379.556 70.7695 379.463 70.3799 379.463 69.9287C379.463 69.555 379.522 69.2178 379.641 68.917C379.764 68.6117 379.946 68.3542 380.188 68.1445C380.429 67.9303 380.734 67.7663 381.104 67.6523C381.473 67.5384 381.906 67.4814 382.402 67.4814H383.161ZM388.186 66.0254V74.8438H386.278V64.6035H388.042L388.186 66.0254ZM392.027 68.0488V68.541C392.027 69.1198 391.977 69.6325 391.877 70.0791C391.777 70.5212 391.626 70.8971 391.426 71.207C391.23 71.5124 390.984 71.7448 390.688 71.9043C390.391 72.0592 390.045 72.1367 389.648 72.1367C389.279 72.1367 388.96 72.0501 388.691 71.877C388.427 71.6992 388.204 71.4554 388.021 71.1455C387.839 70.8356 387.693 70.4733 387.584 70.0586C387.475 69.6439 387.39 69.1995 387.331 68.7256V67.96C387.386 67.4541 387.465 66.9893 387.57 66.5654C387.675 66.137 387.819 65.7656 388.001 65.4512C388.188 65.1367 388.413 64.8952 388.678 64.7266C388.947 64.5534 389.266 64.4668 389.635 64.4668C390.036 64.4668 390.384 64.5397 390.681 64.6855C390.981 64.8314 391.23 65.0524 391.426 65.3486C391.626 65.6403 391.777 66.0117 391.877 66.4629C391.977 66.9141 392.027 67.4427 392.027 68.0488ZM390.113 68.541V68.0488C390.113 67.6934 390.093 67.3903 390.052 67.1396C390.015 66.889 389.956 66.6839 389.874 66.5244C389.792 66.3649 389.685 66.2487 389.553 66.1758C389.421 66.1029 389.259 66.0664 389.067 66.0664C388.881 66.0664 388.716 66.1029 388.575 66.1758C388.438 66.2487 388.327 66.3558 388.24 66.4971C388.154 66.6338 388.088 66.8024 388.042 67.0029C387.996 67.1989 387.971 67.4222 387.967 67.6729V69.0127C387.976 69.3089 388.015 69.571 388.083 69.7988C388.156 70.0267 388.272 70.209 388.432 70.3457C388.591 70.4779 388.808 70.5439 389.081 70.5439C389.277 70.5439 389.439 70.5029 389.566 70.4209C389.699 70.3389 389.806 70.2158 389.888 70.0518C389.97 69.8877 390.027 69.6803 390.059 69.4297C390.095 69.179 390.113 68.8828 390.113 68.541ZM395.213 61.5V72H393.292V61.5H395.213ZM399.991 70.2979V66.8799C399.991 66.6566 399.964 66.4788 399.909 66.3467C399.859 66.2145 399.782 66.1188 399.677 66.0596C399.576 65.9958 399.453 65.9639 399.308 65.9639C399.144 65.9639 399.007 65.998 398.897 66.0664C398.788 66.1348 398.706 66.2327 398.651 66.3604C398.601 66.488 398.576 66.6406 398.576 66.8184H396.655C396.655 66.4993 396.717 66.1986 396.84 65.916C396.963 65.6289 397.143 65.3783 397.38 65.1641C397.621 64.9453 397.909 64.7744 398.241 64.6514C398.574 64.5283 398.948 64.4668 399.362 64.4668C399.854 64.4668 400.292 64.5511 400.675 64.7197C401.058 64.8838 401.361 65.1458 401.584 65.5059C401.807 65.8659 401.919 66.333 401.919 66.9072V70.2021C401.919 70.6169 401.939 70.9541 401.98 71.2139C402.026 71.4736 402.092 71.6969 402.179 71.8838V72H400.251C400.164 71.7949 400.098 71.5397 400.053 71.2344C400.012 70.9245 399.991 70.6123 399.991 70.2979ZM400.224 67.4814L400.23 68.6299H399.526C399.344 68.6299 399.185 68.6595 399.048 68.7188C398.916 68.778 398.804 68.8623 398.713 68.9717C398.622 69.0765 398.553 69.1995 398.508 69.3408C398.467 69.4821 398.446 69.6325 398.446 69.792C398.446 69.9697 398.471 70.1201 398.521 70.2432C398.572 70.3662 398.647 70.4596 398.747 70.5234C398.847 70.5872 398.966 70.6191 399.103 70.6191C399.312 70.6191 399.494 70.5758 399.649 70.4893C399.804 70.4027 399.918 70.2979 399.991 70.1748C400.069 70.0518 400.094 69.9378 400.066 69.833L400.504 70.5781C400.449 70.7467 400.374 70.9222 400.278 71.1045C400.187 71.2868 400.071 71.4554 399.93 71.6104C399.788 71.7653 399.613 71.8929 399.403 71.9932C399.198 72.0889 398.954 72.1367 398.672 72.1367C398.275 72.1367 397.913 72.0456 397.585 71.8633C397.257 71.681 396.997 71.4258 396.806 71.0977C396.619 70.7695 396.525 70.3799 396.525 69.9287C396.525 69.555 396.585 69.2178 396.703 68.917C396.826 68.6117 397.008 68.3542 397.25 68.1445C397.492 67.9303 397.797 67.7663 398.166 67.6523C398.535 67.5384 398.968 67.4814 399.465 67.4814H400.224ZM406.561 64.6035V66.0459H402.787V64.6035H406.561ZM403.655 62.7783H405.562V69.7441C405.562 69.9492 405.583 70.1064 405.624 70.2158C405.665 70.3252 405.727 70.4027 405.809 70.4482C405.895 70.4893 406.009 70.5098 406.15 70.5098C406.246 70.5098 406.335 70.5052 406.417 70.4961C406.499 70.4824 406.561 70.4688 406.602 70.4551V71.9521C406.451 72.0114 406.292 72.057 406.123 72.0889C405.959 72.1208 405.763 72.1367 405.535 72.1367C405.152 72.1367 404.82 72.0638 404.537 71.918C404.259 71.7721 404.043 71.5397 403.888 71.2207C403.733 70.8971 403.655 70.4733 403.655 69.9492V62.7783ZM410.607 72.1367C410.102 72.1367 409.653 72.0592 409.261 71.9043C408.873 71.7493 408.545 71.526 408.276 71.2344C408.007 70.9382 407.802 70.5804 407.661 70.1611C407.52 69.7419 407.449 69.2633 407.449 68.7256V68.1172C407.449 67.5156 407.518 66.9893 407.654 66.5381C407.791 66.0824 407.985 65.6995 408.235 65.3896C408.486 65.0798 408.794 64.8496 409.158 64.6992C409.527 64.5443 409.944 64.4668 410.409 64.4668C410.874 64.4668 411.282 64.5443 411.633 64.6992C411.988 64.8496 412.282 65.0775 412.515 65.3828C412.747 65.6836 412.923 66.0573 413.041 66.5039C413.16 66.9505 413.219 67.4701 413.219 68.0625V68.9375H408.263V67.5908H411.339V67.4199C411.339 67.1191 411.307 66.8685 411.243 66.668C411.179 66.4629 411.079 66.3102 410.942 66.21C410.806 66.1097 410.623 66.0596 410.396 66.0596C410.204 66.0596 410.042 66.0983 409.91 66.1758C409.778 66.2533 409.673 66.374 409.596 66.5381C409.518 66.7021 409.461 66.9163 409.425 67.1807C409.388 67.4404 409.37 67.7526 409.37 68.1172V68.7256C409.37 69.0674 409.4 69.3545 409.459 69.5869C409.518 69.8148 409.605 70.0016 409.719 70.1475C409.837 70.2887 409.981 70.3913 410.149 70.4551C410.318 70.5143 410.514 70.5439 410.737 70.5439C411.075 70.5439 411.378 70.4847 411.646 70.3662C411.92 70.2432 412.152 70.0768 412.344 69.8672L413.109 71.0293C412.977 71.2025 412.795 71.3757 412.562 71.5488C412.33 71.722 412.052 71.8633 411.729 71.9727C411.405 72.082 411.031 72.1367 410.607 72.1367Z" fill="url(#paint1_linear_363_3159)"/>
<path d="M667.732 64.874L669.619 57.0469H671.779L668.895 67H667.438L667.732 64.874ZM666.119 57.0469L667.999 64.874L668.307 67H666.844L663.979 57.0469H666.119ZM675.313 67.1367C674.808 67.1367 674.359 67.0592 673.967 66.9043C673.579 66.7493 673.251 66.526 672.982 66.2344C672.714 65.9382 672.508 65.5804 672.367 65.1611C672.226 64.7419 672.155 64.2633 672.155 63.7256V63.1172C672.155 62.5156 672.224 61.9893 672.36 61.5381C672.497 61.0824 672.691 60.6995 672.941 60.3896C673.192 60.0798 673.5 59.8496 673.864 59.6992C674.233 59.5443 674.65 59.4668 675.115 59.4668C675.58 59.4668 675.988 59.5443 676.339 59.6992C676.694 59.8496 676.988 60.0775 677.221 60.3828C677.453 60.6836 677.629 61.0573 677.747 61.5039C677.866 61.9505 677.925 62.4701 677.925 63.0625V63.9375H672.969V62.5908H676.045V62.4199C676.045 62.1191 676.013 61.8685 675.949 61.668C675.885 61.4629 675.785 61.3102 675.648 61.21C675.512 61.1097 675.329 61.0596 675.102 61.0596C674.91 61.0596 674.748 61.0983 674.616 61.1758C674.484 61.2533 674.379 61.374 674.302 61.5381C674.224 61.7021 674.167 61.9163 674.131 62.1807C674.094 62.4404 674.076 62.7526 674.076 63.1172V63.7256C674.076 64.0674 674.106 64.3545 674.165 64.5869C674.224 64.8148 674.311 65.0016 674.425 65.1475C674.543 65.2887 674.687 65.3913 674.855 65.4551C675.024 65.5143 675.22 65.5439 675.443 65.5439C675.781 65.5439 676.084 65.4847 676.353 65.3662C676.626 65.2432 676.858 65.0768 677.05 64.8672L677.815 66.0293C677.683 66.2025 677.501 66.3757 677.269 66.5488C677.036 66.722 676.758 66.8633 676.435 66.9727C676.111 67.082 675.737 67.1367 675.313 67.1367ZM680.946 61.251V67H679.032V59.6035H680.837L680.946 61.251ZM682.689 59.5488L682.662 61.4561C682.576 61.4378 682.471 61.4242 682.348 61.415C682.229 61.4059 682.124 61.4014 682.033 61.4014C681.819 61.4014 681.637 61.4355 681.486 61.5039C681.336 61.5677 681.211 61.6657 681.11 61.7979C681.015 61.9255 680.942 62.085 680.892 62.2764C680.841 62.4678 680.812 62.6842 680.803 62.9258L680.44 62.7891C680.44 62.306 680.477 61.8639 680.55 61.4629C680.627 61.0573 680.741 60.7064 680.892 60.4102C681.042 60.1094 681.222 59.877 681.432 59.7129C681.646 59.5488 681.887 59.4668 682.156 59.4668C682.247 59.4668 682.343 59.4759 682.443 59.4941C682.548 59.5078 682.63 59.526 682.689 59.5488ZM685.677 59.6035V67H683.756V59.6035H685.677ZM683.667 57.6895C683.667 57.3932 683.76 57.1494 683.947 56.958C684.139 56.762 684.394 56.6641 684.713 56.6641C685.036 56.6641 685.292 56.762 685.479 56.958C685.665 57.1494 685.759 57.3932 685.759 57.6895C685.759 57.9811 685.663 58.2249 685.472 58.4209C685.285 58.6123 685.034 58.708 684.72 58.708C684.396 58.708 684.139 58.6123 683.947 58.4209C683.76 58.2249 683.667 57.9811 683.667 57.6895ZM689.505 67H687.591V59.2959C687.591 58.6579 687.702 58.1224 687.926 57.6895C688.154 57.252 688.482 56.9215 688.91 56.6982C689.343 56.4704 689.86 56.3564 690.462 56.3564C690.808 56.3564 691.136 56.3952 691.446 56.4727C691.761 56.5456 692.084 56.6413 692.417 56.7598L692.144 58.3867C691.943 58.3138 691.717 58.2454 691.467 58.1816C691.221 58.1133 690.929 58.0791 690.592 58.0791C690.223 58.0791 689.949 58.1816 689.771 58.3867C689.594 58.5918 689.505 58.8949 689.505 59.2959V67ZM690.646 59.6035V61.0459H686.688V59.6035H690.646ZM693.299 59.6035V67H691.378V59.6035H693.299ZM696.737 56.4932V67H694.823V56.4932H696.737ZM700.627 59.6035L698.022 63.2812L696.457 65.0381L695.78 63.582L696.983 61.8252L698.344 59.6035H700.627ZM698.631 67L697.018 63.6025L698.337 62.3857L700.825 67H698.631ZM704.783 65.2979V61.8799C704.783 61.6566 704.756 61.4788 704.701 61.3467C704.651 61.2145 704.574 61.1188 704.469 61.0596C704.368 60.9958 704.245 60.9639 704.1 60.9639C703.936 60.9639 703.799 60.998 703.689 61.0664C703.58 61.1348 703.498 61.2327 703.443 61.3604C703.393 61.488 703.368 61.6406 703.368 61.8184H701.447C701.447 61.4993 701.509 61.1986 701.632 60.916C701.755 60.6289 701.935 60.3783 702.172 60.1641C702.413 59.9453 702.701 59.7744 703.033 59.6514C703.366 59.5283 703.74 59.4668 704.154 59.4668C704.646 59.4668 705.084 59.5511 705.467 59.7197C705.85 59.8838 706.153 60.1458 706.376 60.5059C706.599 60.8659 706.711 61.333 706.711 61.9072V65.2021C706.711 65.6169 706.731 65.9541 706.772 66.2139C706.818 66.4736 706.884 66.6969 706.971 66.8838V67H705.043C704.956 66.7949 704.89 66.5397 704.845 66.2344C704.804 65.9245 704.783 65.6123 704.783 65.2979ZM705.016 62.4814L705.022 63.6299H704.318C704.136 63.6299 703.977 63.6595 703.84 63.7188C703.708 63.778 703.596 63.8623 703.505 63.9717C703.414 64.0765 703.345 64.1995 703.3 64.3408C703.259 64.4821 703.238 64.6325 703.238 64.792C703.238 64.9697 703.263 65.1201 703.313 65.2432C703.364 65.3662 703.439 65.4596 703.539 65.5234C703.639 65.5872 703.758 65.6191 703.895 65.6191C704.104 65.6191 704.286 65.5758 704.441 65.4893C704.596 65.4027 704.71 65.2979 704.783 65.1748C704.861 65.0518 704.886 64.9378 704.858 64.833L705.296 65.5781C705.241 65.7467 705.166 65.9222 705.07 66.1045C704.979 66.2868 704.863 66.4554 704.722 66.6104C704.58 66.7653 704.405 66.8929 704.195 66.9932C703.99 67.0889 703.746 67.1367 703.464 67.1367C703.067 67.1367 702.705 67.0456 702.377 66.8633C702.049 66.681 701.789 66.4258 701.598 66.0977C701.411 65.7695 701.317 65.3799 701.317 64.9287C701.317 64.555 701.377 64.2178 701.495 63.917C701.618 63.6117 701.8 63.3542 702.042 63.1445C702.284 62.9303 702.589 62.7663 702.958 62.6523C703.327 62.5384 703.76 62.4814 704.257 62.4814H705.016ZM710.799 65.5439C710.977 65.5439 711.129 65.5075 711.257 65.4346C711.389 65.3617 711.489 65.2432 711.558 65.0791C711.626 64.915 711.662 64.7031 711.667 64.4434H713.465C713.465 64.9993 713.346 65.4801 713.109 65.8857C712.877 66.2868 712.562 66.5967 712.166 66.8154C711.774 67.0296 711.33 67.1367 710.833 67.1367C710.336 67.1367 709.903 67.057 709.534 66.8975C709.165 66.738 708.86 66.5055 708.618 66.2002C708.381 65.8949 708.201 65.5234 708.078 65.0859C707.96 64.6439 707.9 64.138 707.9 63.5684V63.0283C707.9 62.4678 707.96 61.9665 708.078 61.5244C708.201 61.0824 708.381 60.7087 708.618 60.4033C708.86 60.098 709.163 59.8656 709.527 59.7061C709.896 59.5465 710.329 59.4668 710.826 59.4668C711.359 59.4668 711.822 59.5785 712.214 59.8018C712.606 60.0205 712.911 60.3441 713.13 60.7725C713.353 61.2008 713.465 61.7295 713.465 62.3584H711.667C711.662 62.0758 711.628 61.8411 711.564 61.6543C711.505 61.4629 711.412 61.3171 711.284 61.2168C711.161 61.112 710.997 61.0596 710.792 61.0596C710.578 61.0596 710.405 61.1051 710.272 61.1963C710.145 61.2829 710.047 61.4105 709.979 61.5791C709.915 61.7432 709.871 61.9482 709.849 62.1943C709.826 62.4404 709.814 62.7184 709.814 63.0283V63.5684C709.814 63.901 709.824 64.1904 709.842 64.4365C709.865 64.6781 709.908 64.8831 709.972 65.0518C710.04 65.2158 710.138 65.3389 710.266 65.4209C710.398 65.5029 710.576 65.5439 710.799 65.5439ZM716.575 59.6035V67H714.654V59.6035H716.575ZM714.565 57.6895C714.565 57.3932 714.659 57.1494 714.846 56.958C715.037 56.762 715.292 56.6641 715.611 56.6641C715.935 56.6641 716.19 56.762 716.377 56.958C716.564 57.1494 716.657 57.3932 716.657 57.6895C716.657 57.9811 716.562 58.2249 716.37 58.4209C716.183 58.6123 715.933 58.708 715.618 58.708C715.295 58.708 715.037 58.6123 714.846 58.4209C714.659 58.2249 714.565 57.9811 714.565 57.6895ZM718.182 59.6035H720.109V67.4102C720.109 67.9661 720.021 68.4355 719.843 68.8184C719.67 69.2012 719.419 69.4906 719.091 69.6865C718.763 69.887 718.366 69.9873 717.901 69.9873C717.751 69.9873 717.603 69.9782 717.457 69.96C717.311 69.9417 717.163 69.9121 717.013 69.8711L717.02 68.3125C717.111 68.3307 717.2 68.3444 717.286 68.3535C717.368 68.3626 717.45 68.3672 717.532 68.3672C717.678 68.3672 717.799 68.333 717.895 68.2646C717.99 68.2008 718.061 68.0983 718.106 67.957C718.157 67.8158 718.182 67.6335 718.182 67.4102V59.6035ZM718.052 57.6895C718.052 57.3932 718.147 57.1494 718.339 56.958C718.53 56.762 718.783 56.6641 719.098 56.6641C719.417 56.6641 719.672 56.762 719.863 56.958C720.055 57.1494 720.15 57.3932 720.15 57.6895C720.15 57.9811 720.055 58.2249 719.863 58.4209C719.672 58.6123 719.417 58.708 719.098 58.708C718.783 58.708 718.53 58.6123 718.339 58.4209C718.147 58.2249 718.052 57.9811 718.052 57.6895ZM724.785 65.2979V61.8799C724.785 61.6566 724.758 61.4788 724.703 61.3467C724.653 61.2145 724.576 61.1188 724.471 61.0596C724.37 60.9958 724.247 60.9639 724.102 60.9639C723.938 60.9639 723.801 60.998 723.691 61.0664C723.582 61.1348 723.5 61.2327 723.445 61.3604C723.395 61.488 723.37 61.6406 723.37 61.8184H721.449C721.449 61.4993 721.511 61.1986 721.634 60.916C721.757 60.6289 721.937 60.3783 722.174 60.1641C722.415 59.9453 722.702 59.7744 723.035 59.6514C723.368 59.5283 723.742 59.4668 724.156 59.4668C724.648 59.4668 725.086 59.5511 725.469 59.7197C725.852 59.8838 726.155 60.1458 726.378 60.5059C726.601 60.8659 726.713 61.333 726.713 61.9072V65.2021C726.713 65.6169 726.733 65.9541 726.774 66.2139C726.82 66.4736 726.886 66.6969 726.973 66.8838V67H725.045C724.958 66.7949 724.892 66.5397 724.847 66.2344C724.806 65.9245 724.785 65.6123 724.785 65.2979ZM725.018 62.4814L725.024 63.6299H724.32C724.138 63.6299 723.979 63.6595 723.842 63.7188C723.71 63.778 723.598 63.8623 723.507 63.9717C723.416 64.0765 723.347 64.1995 723.302 64.3408C723.261 64.4821 723.24 64.6325 723.24 64.792C723.24 64.9697 723.265 65.1201 723.315 65.2432C723.366 65.3662 723.441 65.4596 723.541 65.5234C723.641 65.5872 723.76 65.6191 723.896 65.6191C724.106 65.6191 724.288 65.5758 724.443 65.4893C724.598 65.4027 724.712 65.2979 724.785 65.1748C724.863 65.0518 724.888 64.9378 724.86 64.833L725.298 65.5781C725.243 65.7467 725.168 65.9222 725.072 66.1045C724.981 66.2868 724.865 66.4554 724.724 66.6104C724.582 66.7653 724.407 66.8929 724.197 66.9932C723.992 67.0889 723.748 67.1367 723.466 67.1367C723.069 67.1367 722.707 67.0456 722.379 66.8633C722.051 66.681 721.791 66.4258 721.6 66.0977C721.413 65.7695 721.319 65.3799 721.319 64.9287C721.319 64.555 721.379 64.2178 721.497 63.917C721.62 63.6117 721.802 63.3542 722.044 63.1445C722.285 62.9303 722.591 62.7663 722.96 62.6523C723.329 62.5384 723.762 62.4814 724.259 62.4814H725.018ZM733.364 59.6035V67H731.443V59.6035H733.364ZM731.354 57.6895C731.354 57.3932 731.448 57.1494 731.635 56.958C731.826 56.762 732.081 56.6641 732.4 56.6641C732.724 56.6641 732.979 56.762 733.166 56.958C733.353 57.1494 733.446 57.3932 733.446 57.6895C733.446 57.9811 733.351 58.2249 733.159 58.4209C732.972 58.6123 732.722 58.708 732.407 58.708C732.084 58.708 731.826 58.6123 731.635 58.4209C731.448 58.2249 731.354 57.9811 731.354 57.6895ZM678.062 75.0254V83.8438H676.154V73.6035H677.918L678.062 75.0254ZM681.903 77.0488V77.541C681.903 78.1198 681.853 78.6325 681.753 79.0791C681.653 79.5212 681.502 79.8971 681.302 80.207C681.106 80.5124 680.86 80.7448 680.563 80.9043C680.267 81.0592 679.921 81.1367 679.524 81.1367C679.155 81.1367 678.836 81.0501 678.567 80.877C678.303 80.6992 678.08 80.4554 677.897 80.1455C677.715 79.8356 677.569 79.4733 677.46 79.0586C677.351 78.6439 677.266 78.1995 677.207 77.7256V76.96C677.262 76.4541 677.341 75.9893 677.446 75.5654C677.551 75.137 677.695 74.7656 677.877 74.4512C678.064 74.1367 678.289 73.8952 678.554 73.7266C678.823 73.5534 679.142 73.4668 679.511 73.4668C679.912 73.4668 680.26 73.5397 680.557 73.6855C680.857 73.8314 681.106 74.0524 681.302 74.3486C681.502 74.6403 681.653 75.0117 681.753 75.4629C681.853 75.9141 681.903 76.4427 681.903 77.0488ZM679.989 77.541V77.0488C679.989 76.6934 679.969 76.3903 679.928 76.1396C679.891 75.889 679.832 75.6839 679.75 75.5244C679.668 75.3649 679.561 75.2487 679.429 75.1758C679.297 75.1029 679.135 75.0664 678.943 75.0664C678.757 75.0664 678.592 75.1029 678.451 75.1758C678.314 75.2487 678.203 75.3558 678.116 75.4971C678.03 75.6338 677.964 75.8024 677.918 76.0029C677.872 76.1989 677.847 76.4222 677.843 76.6729V78.0127C677.852 78.3089 677.891 78.571 677.959 78.7988C678.032 79.0267 678.148 79.209 678.308 79.3457C678.467 79.4779 678.684 79.5439 678.957 79.5439C679.153 79.5439 679.315 79.5029 679.442 79.4209C679.575 79.3389 679.682 79.2158 679.764 79.0518C679.846 78.8877 679.903 78.6803 679.935 78.4297C679.971 78.179 679.989 77.8828 679.989 77.541ZM685.089 70.5V81H683.168V70.5H685.089ZM689.867 79.2979V75.8799C689.867 75.6566 689.84 75.4788 689.785 75.3467C689.735 75.2145 689.658 75.1188 689.553 75.0596C689.452 74.9958 689.329 74.9639 689.184 74.9639C689.02 74.9639 688.883 74.998 688.773 75.0664C688.664 75.1348 688.582 75.2327 688.527 75.3604C688.477 75.488 688.452 75.6406 688.452 75.8184H686.531C686.531 75.4993 686.593 75.1986 686.716 74.916C686.839 74.6289 687.019 74.3783 687.256 74.1641C687.497 73.9453 687.785 73.7744 688.117 73.6514C688.45 73.5283 688.824 73.4668 689.238 73.4668C689.73 73.4668 690.168 73.5511 690.551 73.7197C690.934 73.8838 691.237 74.1458 691.46 74.5059C691.683 74.8659 691.795 75.333 691.795 75.9072V79.2021C691.795 79.6169 691.815 79.9541 691.856 80.2139C691.902 80.4736 691.968 80.6969 692.055 80.8838V81H690.127C690.04 80.7949 689.974 80.5397 689.929 80.2344C689.888 79.9245 689.867 79.6123 689.867 79.2979ZM690.1 76.4814L690.106 77.6299H689.402C689.22 77.6299 689.061 77.6595 688.924 77.7188C688.792 77.778 688.68 77.8623 688.589 77.9717C688.498 78.0765 688.429 78.1995 688.384 78.3408C688.343 78.4821 688.322 78.6325 688.322 78.792C688.322 78.9697 688.347 79.1201 688.397 79.2432C688.448 79.3662 688.523 79.4596 688.623 79.5234C688.723 79.5872 688.842 79.6191 688.979 79.6191C689.188 79.6191 689.37 79.5758 689.525 79.4893C689.68 79.4027 689.794 79.2979 689.867 79.1748C689.945 79.0518 689.97 78.9378 689.942 78.833L690.38 79.5781C690.325 79.7467 690.25 79.9222 690.154 80.1045C690.063 80.2868 689.947 80.4554 689.806 80.6104C689.664 80.7653 689.489 80.8929 689.279 80.9932C689.074 81.0889 688.83 81.1367 688.548 81.1367C688.151 81.1367 687.789 81.0456 687.461 80.8633C687.133 80.681 686.873 80.4258 686.682 80.0977C686.495 79.7695 686.401 79.3799 686.401 78.9287C686.401 78.555 686.461 78.2178 686.579 77.917C686.702 77.6117 686.884 77.3542 687.126 77.1445C687.368 76.9303 687.673 76.7663 688.042 76.6523C688.411 76.5384 688.844 76.4814 689.341 76.4814H690.1ZM695.883 79.5439C696.061 79.5439 696.213 79.5075 696.341 79.4346C696.473 79.3617 696.573 79.2432 696.642 79.0791C696.71 78.915 696.746 78.7031 696.751 78.4434H698.549C698.549 78.9993 698.43 79.4801 698.193 79.8857C697.961 80.2868 697.646 80.5967 697.25 80.8154C696.858 81.0296 696.414 81.1367 695.917 81.1367C695.42 81.1367 694.987 81.057 694.618 80.8975C694.249 80.738 693.944 80.5055 693.702 80.2002C693.465 79.8949 693.285 79.5234 693.162 79.0859C693.044 78.6439 692.984 78.138 692.984 77.5684V77.0283C692.984 76.4678 693.044 75.9665 693.162 75.5244C693.285 75.0824 693.465 74.7087 693.702 74.4033C693.944 74.098 694.247 73.8656 694.611 73.7061C694.98 73.5465 695.413 73.4668 695.91 73.4668C696.443 73.4668 696.906 73.5785 697.298 73.8018C697.69 74.0205 697.995 74.3441 698.214 74.7725C698.437 75.2008 698.549 75.7295 698.549 76.3584H696.751C696.746 76.0758 696.712 75.8411 696.648 75.6543C696.589 75.4629 696.496 75.3171 696.368 75.2168C696.245 75.112 696.081 75.0596 695.876 75.0596C695.662 75.0596 695.489 75.1051 695.356 75.1963C695.229 75.2829 695.131 75.4105 695.062 75.5791C694.999 75.7432 694.955 75.9482 694.933 76.1943C694.91 76.4404 694.898 76.7184 694.898 77.0283V77.5684C694.898 77.901 694.908 78.1904 694.926 78.4365C694.949 78.6781 694.992 78.8831 695.056 79.0518C695.124 79.2158 695.222 79.3389 695.35 79.4209C695.482 79.5029 695.66 79.5439 695.883 79.5439ZM694.748 72.6123L696.088 70.5H698.241L696.354 72.6123H694.748ZM702.91 79.2979V75.8799C702.91 75.6566 702.883 75.4788 702.828 75.3467C702.778 75.2145 702.701 75.1188 702.596 75.0596C702.495 74.9958 702.372 74.9639 702.227 74.9639C702.062 74.9639 701.926 74.998 701.816 75.0664C701.707 75.1348 701.625 75.2327 701.57 75.3604C701.52 75.488 701.495 75.6406 701.495 75.8184H699.574C699.574 75.4993 699.636 75.1986 699.759 74.916C699.882 74.6289 700.062 74.3783 700.299 74.1641C700.54 73.9453 700.827 73.7744 701.16 73.6514C701.493 73.5283 701.867 73.4668 702.281 73.4668C702.773 73.4668 703.211 73.5511 703.594 73.7197C703.977 73.8838 704.28 74.1458 704.503 74.5059C704.726 74.8659 704.838 75.333 704.838 75.9072V79.2021C704.838 79.6169 704.858 79.9541 704.899 80.2139C704.945 80.4736 705.011 80.6969 705.098 80.8838V81H703.17C703.083 80.7949 703.017 80.5397 702.972 80.2344C702.931 79.9245 702.91 79.6123 702.91 79.2979ZM703.143 76.4814L703.149 77.6299H702.445C702.263 77.6299 702.104 77.6595 701.967 77.7188C701.835 77.778 701.723 77.8623 701.632 77.9717C701.541 78.0765 701.472 78.1995 701.427 78.3408C701.386 78.4821 701.365 78.6325 701.365 78.792C701.365 78.9697 701.39 79.1201 701.44 79.2432C701.491 79.3662 701.566 79.4596 701.666 79.5234C701.766 79.5872 701.885 79.6191 702.021 79.6191C702.231 79.6191 702.413 79.5758 702.568 79.4893C702.723 79.4027 702.837 79.2979 702.91 79.1748C702.988 79.0518 703.013 78.9378 702.985 78.833L703.423 79.5781C703.368 79.7467 703.293 79.9222 703.197 80.1045C703.106 80.2868 702.99 80.4554 702.849 80.6104C702.707 80.7653 702.532 80.8929 702.322 80.9932C702.117 81.0889 701.873 81.1367 701.591 81.1367C701.194 81.1367 700.832 81.0456 700.504 80.8633C700.176 80.681 699.916 80.4258 699.725 80.0977C699.538 79.7695 699.444 79.3799 699.444 78.9287C699.444 78.555 699.504 78.2178 699.622 77.917C699.745 77.6117 699.927 77.3542 700.169 77.1445C700.41 76.9303 700.716 76.7663 701.085 76.6523C701.454 76.5384 701.887 76.4814 702.384 76.4814H703.143ZM708.133 75.1826V81H706.212V73.6035H708.01L708.133 75.1826ZM707.846 77.0488L707.333 77.0625C707.324 76.5065 707.376 76.0075 707.49 75.5654C707.609 75.1234 707.775 74.7474 707.989 74.4375C708.208 74.123 708.468 73.8838 708.769 73.7197C709.074 73.5511 709.413 73.4668 709.787 73.4668C710.074 73.4668 710.336 73.5169 710.573 73.6172C710.815 73.7174 711.022 73.877 711.195 74.0957C711.368 74.3145 711.503 74.6061 711.599 74.9707C711.694 75.3307 711.742 75.7728 711.742 76.2969V81H709.821V76.2832C709.821 75.9642 709.789 75.7181 709.726 75.5449C709.662 75.3672 709.566 75.2441 709.438 75.1758C709.311 75.1029 709.151 75.0664 708.96 75.0664C708.778 75.0664 708.616 75.1188 708.475 75.2236C708.333 75.3239 708.215 75.4629 708.119 75.6406C708.028 75.8184 707.957 76.028 707.907 76.2695C707.862 76.5111 707.841 76.7708 707.846 77.0488ZM713.232 73.6035H715.16V81.4102C715.16 81.9661 715.071 82.4355 714.894 82.8184C714.72 83.2012 714.47 83.4906 714.142 83.6865C713.813 83.887 713.417 83.9873 712.952 83.9873C712.802 83.9873 712.654 83.9782 712.508 83.96C712.362 83.9417 712.214 83.9121 712.063 83.8711L712.07 82.3125C712.161 82.3307 712.25 82.3444 712.337 82.3535C712.419 82.3626 712.501 82.3672 712.583 82.3672C712.729 82.3672 712.85 82.333 712.945 82.2646C713.041 82.2008 713.112 82.0983 713.157 81.957C713.207 81.8158 713.232 81.6335 713.232 81.4102V73.6035ZM713.103 71.6895C713.103 71.3932 713.198 71.1494 713.39 70.958C713.581 70.762 713.834 70.6641 714.148 70.6641C714.467 70.6641 714.723 70.762 714.914 70.958C715.105 71.1494 715.201 71.3932 715.201 71.6895C715.201 71.9811 715.105 72.2249 714.914 72.4209C714.723 72.6123 714.467 72.708 714.148 72.708C713.834 72.708 713.581 72.6123 713.39 72.4209C713.198 72.2249 713.103 71.9811 713.103 71.6895ZM719.556 81.1367C719.05 81.1367 718.601 81.0592 718.209 80.9043C717.822 80.7493 717.493 80.526 717.225 80.2344C716.956 79.9382 716.751 79.5804 716.609 79.1611C716.468 78.7419 716.397 78.2633 716.397 77.7256V77.1172C716.397 76.5156 716.466 75.9893 716.603 75.5381C716.739 75.0824 716.933 74.6995 717.184 74.3896C717.434 74.0798 717.742 73.8496 718.106 73.6992C718.476 73.5443 718.893 73.4668 719.357 73.4668C719.822 73.4668 720.23 73.5443 720.581 73.6992C720.937 73.8496 721.23 74.0775 721.463 74.3828C721.695 74.6836 721.871 75.0573 721.989 75.5039C722.108 75.9505 722.167 76.4701 722.167 77.0625V77.9375H717.211V76.5908H720.287V76.4199C720.287 76.1191 720.255 75.8685 720.191 75.668C720.128 75.4629 720.027 75.3102 719.891 75.21C719.754 75.1097 719.572 75.0596 719.344 75.0596C719.152 75.0596 718.991 75.0983 718.858 75.1758C718.726 75.2533 718.621 75.374 718.544 75.5381C718.466 75.7021 718.41 75.9163 718.373 76.1807C718.337 76.4404 718.318 76.7526 718.318 77.1172V77.7256C718.318 78.0674 718.348 78.3545 718.407 78.5869C718.466 78.8148 718.553 79.0016 718.667 79.1475C718.785 79.2887 718.929 79.3913 719.098 79.4551C719.266 79.5143 719.462 79.5439 719.686 79.5439C720.023 79.5439 720.326 79.4847 720.595 79.3662C720.868 79.2432 721.101 79.0768 721.292 78.8672L722.058 80.0293C721.925 80.2025 721.743 80.3757 721.511 80.5488C721.278 80.722 721 80.8633 720.677 80.9727C720.353 81.082 719.979 81.1367 719.556 81.1367Z" fill="url(#paint2_linear_363_3159)"/>
<path fill-rule="evenodd" clip-rule="evenodd" d="M376 33H83V31H376V33Z" fill="url(#paint3_linear_363_3159)"/>
<path fill-rule="evenodd" clip-rule="evenodd" d="M685 33H404V31H685V33Z" fill="url(#paint4_linear_363_3159)"/>
<g filter="url(#filter0_d_363_3159)">
<path d="M69 17C60.7125 17 54 23.7125 54 32C54 34.8125 54.7875 37.475 56.175 39.725C57.497 41.9468 59.3748 43.7861 61.6236 45.0617C63.8724 46.3373 66.4146 47.0053 69 47C74.475 47 79.2375 44.075 81.825 39.725C83.2125 37.475 84 34.8125 84 32C84 23.7125 77.2875 17 69 17ZM76.3875 30.7625L68.4 38.15C67.875 38.6375 67.1625 38.9 66.4875 38.9C65.775 38.9 65.0625 38.6375 64.5 38.075L60.7875 34.3625C60.2644 33.8332 59.9711 33.1191 59.9711 32.375C59.9711 31.6309 60.2644 30.9168 60.7875 30.3875C61.875 29.3 63.675 29.3 64.7625 30.3875L66.5625 32.1875L72.5625 26.6375C73.6875 25.5875 75.4875 25.6625 76.5375 26.7875C77.5875 27.9125 77.5125 29.7125 76.3875 30.7625Z" fill="url(#paint5_linear_363_3159)"/>
</g>
<g filter="url(#filter1_d_363_3159)">
<path d="M390 17C381.712 17 375 23.7125 375 32C375 34.8125 375.788 37.475 377.175 39.725C378.497 41.9468 380.375 43.7861 382.624 45.0617C384.872 46.3373 387.415 47.0053 390 47C395.475 47 400.238 44.075 402.825 39.725C404.213 37.475 405 34.8125 405 32C405 23.7125 398.288 17 390 17ZM397.387 30.7625L389.4 38.15C388.875 38.6375 388.162 38.9 387.487 38.9C386.775 38.9 386.062 38.6375 385.5 38.075L381.787 34.3625C381.264 33.8332 380.971 33.1191 380.971 32.375C380.971 31.6309 381.264 30.9168 381.787 30.3875C382.875 29.3 384.675 29.3 385.762 30.3875L387.562 32.1875L393.562 26.6375C394.687 25.5875 396.488 25.6625 397.538 26.7875C398.588 27.9125 398.512 29.7125 397.387 30.7625Z" fill="url(#paint6_linear_363_3159)"/>
</g>
<g filter="url(#filter2_d_363_3159)">
<path d="M697 17C688.712 17 682 23.7125 682 32C682 34.8125 682.788 37.475 684.175 39.725C685.497 41.9468 687.375 43.7861 689.624 45.0617C691.872 46.3373 694.415 47.0053 697 47C702.475 47 707.238 44.075 709.825 39.725C711.213 37.475 712 34.8125 712 32C712 23.7125 705.288 17 697 17ZM704.387 30.7625L696.4 38.15C695.875 38.6375 695.162 38.9 694.487 38.9C693.775 38.9 693.062 38.6375 692.5 38.075L688.787 34.3625C688.264 33.8332 687.971 33.1191 687.971 32.375C687.971 31.6309 688.264 30.9168 688.787 30.3875C689.875 29.3 691.675 29.3 692.762 30.3875L694.562 32.1875L700.562 26.6375C701.687 25.5875 703.488 25.6625 704.538 26.7875C705.588 27.9125 705.512 29.7125 704.387 30.7625Z" fill="url(#paint7_linear_363_3159)"/>
</g>
<defs>
<filter id="filter0_d_363_3159" x="37" y="0" width="74" height="74" filterUnits="userSpaceOnUse" color-interpolation-filters="sRGB">
<feFlood flood-opacity="0" result="BackgroundImageFix"/>
<feColorMatrix in="SourceAlpha" type="matrix" values="0 0 0 0 0 0 0 0 0 0 0 0 0 0 0 0 0 0 127 0" result="hardAlpha"/>
<feOffset dx="5" dy="5"/>
<feGaussianBlur stdDeviation="11"/>
<feComposite in2="hardAlpha" operator="out"/>
<feColorMatrix type="matrix" values="0 0 0 0 0.0392157 0 0 0 0 0.560784 0 0 0 0 0.309804 0 0 0 0.2 0"/>
<feBlend mode="normal" in2="BackgroundImageFix" result="effect1_dropShadow_363_3159"/>
<feBlend mode="normal" in="SourceGraphic" in2="effect1_dropShadow_363_3159" result="shape"/>
</filter>
<filter id="filter1_d_363_3159" x="358" y="0" width="74" height="74" filterUnits="userSpaceOnUse" color-interpolation-filters="sRGB">
<feFlood flood-opacity="0" result="BackgroundImageFix"/>
<feColorMatrix in="SourceAlpha" type="matrix" values="0 0 0 0 0 0 0 0 0 0 0 0 0 0 0 0 0 0 127 0" result="hardAlpha"/>
<feOffset dx="5" dy="5"/>
<feGaussianBlur stdDeviation="11"/>
<feComposite in2="hardAlpha" operator="out"/>
<feColorMatrix type="matrix" values="0 0 0 0 0.0392157 0 0 0 0 0.560784 0 0 0 0 0.309804 0 0 0 0.2 0"/>
<feBlend mode="normal" in2="BackgroundImageFix" result="effect1_dropShadow_363_3159"/>
<feBlend mode="normal" in="SourceGraphic" in2="effect1_dropShadow_363_3159" result="shape"/>
</filter>
<filter id="filter2_d_363_3159" x="665" y="0" width="74" height="74" filterUnits="userSpaceOnUse" color-interpolation-filters="sRGB">
<feFlood flood-opacity="0" result="BackgroundImageFix"/>
<feColorMatrix in="SourceAlpha" type="matrix" values="0 0 0 0 0 0 0 0 0 0 0 0 0 0 0 0 0 0 127 0" result="hardAlpha"/>
<feOffset dx="5" dy="5"/>
<feGaussianBlur stdDeviation="11"/>
<feComposite in2="hardAlpha" operator="out"/>
<feColorMatrix type="matrix" values="0 0 0 0 0.0392157 0 0 0 0 0.560784 0 0 0 0 0.309804 0 0 0 0.2 0"/>
<feBlend mode="normal" in2="BackgroundImageFix" result="effect1_dropShadow_363_3159"/>
<feBlend mode="normal" in="SourceGraphic" in2="effect1_dropShadow_363_3159" result="shape"/>
</filter>
<linearGradient id="paint0_linear_363_3159" x1="68.5" y1="77" x2="68.5" y2="57" gradientUnits="userSpaceOnUse">
<stop stop-color="#5CCC94"/>
<stop offset="1" stop-color="#8CCAAE"/>
</linearGradient>
<linearGradient id="paint1_linear_363_3159" x1="392" y1="77" x2="392" y2="57" gradientUnits="userSpaceOnUse">
<stop stop-color="#5CCC94"/>
<stop offset="1" stop-color="#8CCAAE"/>
</linearGradient>
<linearGradient id="paint2_linear_363_3159" x1="699" y1="83" x2="699" y2="55" gradientUnits="userSpaceOnUse">
<stop stop-color="#5CCC94"/>
<stop offset="1" stop-color="#8CCAAE"/>
</linearGradient>
<linearGradient id="paint3_linear_363_3159" x1="229.5" y1="33" x2="229.5" y2="31" gradientUnits="userSpaceOnUse">
<stop stop-color="#5CCC94"/>
<stop offset="1" stop-color="#8CCAAE"/>
</linearGradient>
<linearGradient id="paint4_linear_363_3159" x1="544.5" y1="33" x2="544.5" y2="31" gradientUnits="userSpaceOnUse">
<stop stop-color="#5CCC94"/>
<stop offset="1" stop-color="#8CCAAE"/>
</linearGradient>
<linearGradient id="paint5_linear_363_3159" x1="69" y1="47" x2="69" y2="17" gradientUnits="userSpaceOnUse">
<stop stop-color="#5CCC94"/>
<stop offset="1" stop-color="#8CCAAE"/>
</linearGradient>
<linearGradient id="paint6_linear_363_3159" x1="390" y1="47" x2="390" y2="17" gradientUnits="userSpaceOnUse">
<stop stop-color="#5CCC94"/>
<stop offset="1" stop-color="#8CCAAE"/>
</linearGradient>
<linearGradient id="paint7_linear_363_3159" x1="697" y1="47" x2="697" y2="17" gradientUnits="userSpaceOnUse">
<stop stop-color="#5CCC94"/>
<stop offset="1" stop-color="#8CCAAE"/>
</linearGradient>
</defs>
</svg>
