<svg width="1015" height="100" viewBox="0 0 1015 100" fill="none" xmlns="http://www.w3.org/2000/svg">
<path d="M16.5537 60.0469V70H14.5645V60.0469H16.5537ZM19.0283 60.0469V61.708H12.1377V60.0469H19.0283ZM21.3936 69.1523L22.9385 62.6035H24.9346L22.501 71.1074C22.4463 71.2943 22.3711 71.4948 22.2754 71.709C22.1797 71.9277 22.0521 72.1328 21.8926 72.3242C21.7376 72.5202 21.5417 72.6797 21.3047 72.8027C21.0677 72.9258 20.7829 72.9873 20.4502 72.9873C20.2816 72.9873 20.1449 72.9759 20.04 72.9531C19.9398 72.9349 19.8122 72.903 19.6572 72.8574V71.3672C19.6982 71.3672 19.737 71.3672 19.7734 71.3672C19.8145 71.3717 19.8532 71.374 19.8896 71.374C20.1038 71.374 20.2747 71.3444 20.4023 71.2852C20.5299 71.2305 20.6325 71.1439 20.71 71.0254C20.792 70.9069 20.8604 70.7588 20.915 70.5811L21.3936 69.1523ZM20.9971 62.6035L22.1455 67.9082L22.4053 70.0684L21.1133 70.1914L18.9463 62.6035H20.9971ZM27.6826 64.0254V72.8438H25.7754V62.6035H27.5391L27.6826 64.0254ZM31.5244 66.0488V66.541C31.5244 67.1198 31.4743 67.6325 31.374 68.0791C31.2738 68.5212 31.1234 68.8971 30.9229 69.207C30.7269 69.5124 30.4808 69.7448 30.1846 69.9043C29.8883 70.0592 29.542 70.1367 29.1455 70.1367C28.7764 70.1367 28.4574 70.0501 28.1885 69.877C27.9242 69.6992 27.7008 69.4554 27.5186 69.1455C27.3363 68.8356 27.1904 68.4733 27.0811 68.0586C26.9717 67.6439 26.8874 67.1995 26.8281 66.7256V65.96C26.8828 65.4541 26.9626 64.9893 27.0674 64.5654C27.1722 64.137 27.3158 63.7656 27.498 63.4512C27.6849 63.1367 27.9105 62.8952 28.1748 62.7266C28.4437 62.5534 28.7627 62.4668 29.1318 62.4668C29.5329 62.4668 29.8815 62.5397 30.1777 62.6855C30.4785 62.8314 30.7269 63.0524 30.9229 63.3486C31.1234 63.6403 31.2738 64.0117 31.374 64.4629C31.4743 64.9141 31.5244 65.4427 31.5244 66.0488ZM29.6104 66.541V66.0488C29.6104 65.6934 29.5898 65.3903 29.5488 65.1396C29.5124 64.889 29.4531 64.6839 29.3711 64.5244C29.2891 64.3649 29.182 64.2487 29.0498 64.1758C28.9176 64.1029 28.7559 64.0664 28.5645 64.0664C28.3776 64.0664 28.2135 64.1029 28.0723 64.1758C27.9355 64.2487 27.8239 64.3558 27.7373 64.4971C27.6507 64.6338 27.5846 64.8024 27.5391 65.0029C27.4935 65.1989 27.4684 65.4222 27.4639 65.6729V67.0127C27.473 67.3089 27.5117 67.571 27.5801 67.7988C27.653 68.0267 27.7692 68.209 27.9287 68.3457C28.0882 68.4779 28.3047 68.5439 28.5781 68.5439C28.7741 68.5439 28.9359 68.5029 29.0635 68.4209C29.1956 68.3389 29.3027 68.2158 29.3848 68.0518C29.4668 67.8877 29.5238 67.6803 29.5557 67.4297C29.5921 67.179 29.6104 66.8828 29.6104 66.541ZM39.5088 68.3662V59.5H41.4297V70L39.6934 70.0068L39.5088 68.3662ZM35.6738 66.5615V66.0693C35.6738 65.4678 35.724 64.9414 35.8242 64.4902C35.929 64.0391 36.084 63.6631 36.2891 63.3623C36.4941 63.0615 36.7448 62.8382 37.041 62.6924C37.3418 62.542 37.6859 62.4668 38.0732 62.4668C38.4242 62.4668 38.7318 62.5557 38.9961 62.7334C39.265 62.9066 39.4928 63.1504 39.6797 63.4648C39.8665 63.7793 40.0169 64.1507 40.1309 64.5791C40.2448 65.0075 40.3245 65.4769 40.3701 65.9873V66.6982C40.3154 67.1813 40.2311 67.6325 40.1172 68.0518C40.0078 68.471 39.8574 68.8356 39.666 69.1455C39.4792 69.4554 39.2536 69.6992 38.9893 69.877C38.7249 70.0501 38.4173 70.1367 38.0664 70.1367C37.679 70.1367 37.335 70.0592 37.0342 69.9043C36.738 69.7493 36.4873 69.5215 36.2822 69.2207C36.0817 68.9154 35.929 68.5417 35.8242 68.0996C35.724 67.653 35.6738 67.1403 35.6738 66.5615ZM37.5879 66.0693V66.5615C37.5879 66.9079 37.6038 67.2064 37.6357 67.457C37.6722 67.7031 37.7292 67.9059 37.8066 68.0654C37.8887 68.2204 37.9958 68.3366 38.1279 68.4141C38.2601 68.487 38.4242 68.5234 38.6201 68.5234C38.8753 68.5234 39.0827 68.4596 39.2422 68.332C39.4017 68.1999 39.5202 68.0199 39.5977 67.792C39.6797 67.5596 39.7253 67.293 39.7344 66.9922V65.7002C39.7253 65.4495 39.6956 65.224 39.6455 65.0234C39.5954 64.8229 39.5247 64.652 39.4336 64.5107C39.3424 64.3695 39.2285 64.2601 39.0918 64.1826C38.9596 64.1051 38.8047 64.0664 38.627 64.0664C38.4355 64.0664 38.2715 64.1051 38.1348 64.1826C38.0026 64.2601 37.8978 64.3809 37.8203 64.5449C37.7428 64.7044 37.6836 64.9118 37.6426 65.167C37.6061 65.4176 37.5879 65.7184 37.5879 66.0693ZM45.8525 70.1367C45.3467 70.1367 44.8978 70.0592 44.5059 69.9043C44.1185 69.7493 43.7904 69.526 43.5215 69.2344C43.2526 68.9382 43.0475 68.5804 42.9062 68.1611C42.765 67.7419 42.6943 67.2633 42.6943 66.7256V66.1172C42.6943 65.5156 42.7627 64.9893 42.8994 64.5381C43.0361 64.0824 43.2298 63.6995 43.4805 63.3896C43.7311 63.0798 44.0387 62.8496 44.4033 62.6992C44.7725 62.5443 45.1895 62.4668 45.6543 62.4668C46.1191 62.4668 46.527 62.5443 46.8779 62.6992C47.2334 62.8496 47.5273 63.0775 47.7598 63.3828C47.9922 63.6836 48.1676 64.0573 48.2861 64.5039C48.4046 64.9505 48.4639 65.4701 48.4639 66.0625V66.9375H43.5078V65.5908H46.584V65.4199C46.584 65.1191 46.5521 64.8685 46.4883 64.668C46.4245 64.4629 46.3242 64.3102 46.1875 64.21C46.0508 64.1097 45.8685 64.0596 45.6406 64.0596C45.4492 64.0596 45.2874 64.0983 45.1553 64.1758C45.0231 64.2533 44.9183 64.374 44.8408 64.5381C44.7633 64.7021 44.7064 64.9163 44.6699 65.1807C44.6335 65.4404 44.6152 65.7526 44.6152 66.1172V66.7256C44.6152 67.0674 44.6449 67.3545 44.7041 67.5869C44.7633 67.8148 44.8499 68.0016 44.9639 68.1475C45.0824 68.2887 45.2259 68.3913 45.3945 68.4551C45.5632 68.5143 45.7591 68.5439 45.9824 68.5439C46.3197 68.5439 46.6227 68.4847 46.8916 68.3662C47.165 68.2432 47.3975 68.0768 47.5889 67.8672L48.3545 69.0293C48.2223 69.2025 48.04 69.3757 47.8076 69.5488C47.5752 69.722 47.2972 69.8633 46.9736 69.9727C46.6501 70.082 46.2764 70.1367 45.8525 70.1367ZM52.8525 68.0039C52.8525 67.8763 52.8092 67.7624 52.7227 67.6621C52.6361 67.5618 52.4993 67.4593 52.3125 67.3545C52.1257 67.2451 51.8773 67.1243 51.5674 66.9922C51.2301 66.8555 50.9316 66.7142 50.6719 66.5684C50.4121 66.4225 50.1911 66.2607 50.0088 66.083C49.8311 65.9053 49.6966 65.7025 49.6055 65.4746C49.5143 65.2467 49.4688 64.987 49.4688 64.6953C49.4688 64.3809 49.5257 64.0915 49.6396 63.8271C49.7581 63.5583 49.9268 63.3236 50.1455 63.123C50.3643 62.918 50.6309 62.7585 50.9453 62.6445C51.2643 62.526 51.6221 62.4668 52.0186 62.4668C52.5745 62.4668 53.0508 62.5648 53.4473 62.7607C53.8483 62.9521 54.1559 63.221 54.3701 63.5674C54.5843 63.9137 54.6914 64.3171 54.6914 64.7773H52.7773C52.7773 64.6133 52.7523 64.4674 52.7021 64.3398C52.652 64.2077 52.57 64.1051 52.4561 64.0322C52.3467 63.9593 52.1986 63.9229 52.0117 63.9229C51.875 63.9229 51.752 63.9525 51.6426 64.0117C51.5378 64.071 51.4535 64.1507 51.3896 64.251C51.3304 64.3467 51.3008 64.4606 51.3008 64.5928C51.3008 64.693 51.3213 64.7819 51.3623 64.8594C51.4079 64.9368 51.4785 65.012 51.5742 65.085C51.6699 65.1579 51.7975 65.2354 51.957 65.3174C52.1211 65.3949 52.3216 65.4814 52.5586 65.5771C53.0508 65.7594 53.4541 65.9554 53.7686 66.165C54.0876 66.3747 54.3245 66.6208 54.4795 66.9033C54.6344 67.1813 54.7119 67.5254 54.7119 67.9355C54.7119 68.2637 54.6481 68.5622 54.5205 68.8311C54.3975 69.0999 54.2174 69.3324 53.9805 69.5283C53.7435 69.7243 53.4587 69.8747 53.126 69.9795C52.7979 70.0843 52.431 70.1367 52.0254 70.1367C51.4284 70.1367 50.9248 70.0182 50.5146 69.7812C50.1045 69.5443 49.7946 69.2412 49.585 68.8721C49.3753 68.4984 49.2705 68.111 49.2705 67.71H51.0889C51.098 67.9561 51.1436 68.1497 51.2256 68.291C51.3122 68.4277 51.4284 68.5234 51.5742 68.5781C51.7201 68.6328 51.8818 68.6602 52.0596 68.6602C52.2373 68.6602 52.3831 68.6374 52.4971 68.5918C52.6156 68.5417 52.7044 68.4665 52.7637 68.3662C52.8229 68.2614 52.8525 68.1406 52.8525 68.0039ZM7.25 75.8242L5.11035 84H2.99805L6.1084 74.0469H7.42773L7.25 75.8242ZM8.93848 84L6.78516 75.8242L6.58691 74.0469H7.92676L11.0645 84H8.93848ZM9.01367 80.2881V81.9492H4.52246V80.2881H9.01367ZM15.4121 82.2227V76.6035H17.333V84H15.5283L15.4121 82.2227ZM15.6309 80.6982L16.1641 80.6846C16.1641 81.1813 16.1162 81.6416 16.0205 82.0654C15.9248 82.4847 15.7812 82.8493 15.5898 83.1592C15.3984 83.4691 15.1592 83.7106 14.8721 83.8838C14.585 84.0524 14.2454 84.1367 13.8535 84.1367C13.5527 84.1367 13.2747 84.0866 13.0195 83.9863C12.7689 83.8815 12.5524 83.7197 12.3701 83.501C12.1878 83.2777 12.0443 82.9928 11.9395 82.6465C11.8392 82.2956 11.7891 81.874 11.7891 81.3818V76.6035H13.71V81.4023C13.71 81.6029 13.7282 81.776 13.7646 81.9219C13.8011 82.0632 13.8512 82.1794 13.915 82.2705C13.9788 82.3617 14.054 82.4277 14.1406 82.4688C14.2272 82.5052 14.3252 82.5234 14.4346 82.5234C14.7354 82.5234 14.9723 82.446 15.1455 82.291C15.3232 82.1315 15.4486 81.915 15.5215 81.6416C15.5944 81.3636 15.6309 81.0492 15.6309 80.6982ZM21.0996 84H19.1787V75.9609C19.1787 75.3913 19.2767 74.915 19.4727 74.5322C19.6686 74.1494 19.9443 73.8577 20.2998 73.6572C20.6598 73.4567 21.0859 73.3564 21.5781 73.3564C21.7376 73.3564 21.888 73.3701 22.0293 73.3975C22.1751 73.4202 22.3164 73.4521 22.4531 73.4932L22.4326 75.0176C22.3734 74.9993 22.3027 74.9857 22.2207 74.9766C22.1387 74.9674 22.0521 74.9629 21.9609 74.9629C21.7786 74.9629 21.6214 75.0016 21.4893 75.0791C21.3617 75.1566 21.2637 75.2682 21.1953 75.4141C21.1315 75.5599 21.0996 75.7422 21.0996 75.9609V84ZM22.2549 76.6035V78.0459H18.2764V76.6035H22.2549ZM25.2354 73.4932V84H23.3213V73.4932H25.2354ZM29.125 76.6035L26.5205 80.2812L24.9551 82.0381L24.2783 80.582L25.4814 78.8252L26.8418 76.6035H29.125ZM27.1289 84L25.5156 80.6025L26.835 79.3857L29.3232 84H27.1289ZM32.0303 73.5V84H30.1094V73.5H32.0303ZM36.5283 84.1367C36.0225 84.1367 35.5736 84.0592 35.1816 83.9043C34.7943 83.7493 34.4661 83.526 34.1973 83.2344C33.9284 82.9382 33.7233 82.5804 33.582 82.1611C33.4408 81.7419 33.3701 81.2633 33.3701 80.7256V80.1172C33.3701 79.5156 33.4385 78.9893 33.5752 78.5381C33.7119 78.0824 33.9056 77.6995 34.1562 77.3896C34.4069 77.0798 34.7145 76.8496 35.0791 76.6992C35.4482 76.5443 35.8652 76.4668 36.3301 76.4668C36.7949 76.4668 37.2028 76.5443 37.5537 76.6992C37.9092 76.8496 38.2031 77.0775 38.4355 77.3828C38.668 77.6836 38.8434 78.0573 38.9619 78.5039C39.0804 78.9505 39.1396 79.4701 39.1396 80.0625V80.9375H34.1836V79.5908H37.2598V79.4199C37.2598 79.1191 37.2279 78.8685 37.1641 78.668C37.1003 78.4629 37 78.3102 36.8633 78.21C36.7266 78.1097 36.5443 78.0596 36.3164 78.0596C36.125 78.0596 35.9632 78.0983 35.8311 78.1758C35.6989 78.2533 35.5941 78.374 35.5166 78.5381C35.4391 78.7021 35.3822 78.9163 35.3457 79.1807C35.3092 79.4404 35.291 79.7526 35.291 80.1172V80.7256C35.291 81.0674 35.3206 81.3545 35.3799 81.5869C35.4391 81.8148 35.5257 82.0016 35.6396 82.1475C35.7581 82.2887 35.9017 82.3913 36.0703 82.4551C36.2389 82.5143 36.4349 82.5439 36.6582 82.5439C36.9954 82.5439 37.2985 82.4847 37.5674 82.3662C37.8408 82.2432 38.0732 82.0768 38.2646 81.8672L39.0303 83.0293C38.8981 83.2025 38.7158 83.3757 38.4834 83.5488C38.251 83.722 37.973 83.8633 37.6494 83.9727C37.3258 84.082 36.9521 84.1367 36.5283 84.1367ZM40.2539 73.5H42.1611V82.2842L42.0244 84H40.2539V73.5ZM46.0029 80.0557V80.541C46.0029 81.1426 45.9551 81.6667 45.8594 82.1133C45.7682 82.5599 45.6247 82.9336 45.4287 83.2344C45.2373 83.5352 44.9912 83.7607 44.6904 83.9111C44.3896 84.0615 44.0342 84.1367 43.624 84.1367C43.2549 84.1367 42.9382 84.0501 42.6738 83.877C42.4095 83.6992 42.1862 83.4554 42.0039 83.1455C41.8262 82.8311 41.6803 82.4642 41.5664 82.0449C41.457 81.6211 41.3773 81.1585 41.3271 80.6572V79.9395C41.3727 79.4473 41.4502 78.9893 41.5596 78.5654C41.6735 78.1416 41.8193 77.7747 41.9971 77.4648C42.1748 77.1504 42.3958 76.9066 42.6602 76.7334C42.929 76.5557 43.2458 76.4668 43.6104 76.4668C44.0296 76.4668 44.3896 76.5443 44.6904 76.6992C44.9912 76.8496 45.2373 77.0752 45.4287 77.376C45.6247 77.6768 45.7682 78.0527 45.8594 78.5039C45.9551 78.9505 46.0029 79.4678 46.0029 80.0557ZM44.0957 80.541V80.0557C44.0957 79.7139 44.082 79.4199 44.0547 79.1738C44.0273 78.9277 43.9772 78.7227 43.9043 78.5586C43.8314 78.3945 43.7266 78.2715 43.5898 78.1895C43.4577 78.1074 43.2822 78.0664 43.0635 78.0664C42.8675 78.0664 42.7035 78.1051 42.5713 78.1826C42.4391 78.2555 42.3252 78.3649 42.2295 78.5107C42.1383 78.652 42.07 78.8206 42.0244 79.0166C41.9834 79.208 41.9606 79.4199 41.9561 79.6523V80.9443C41.9606 81.2588 41.9993 81.5368 42.0723 81.7783C42.1452 82.0199 42.2614 82.2067 42.4209 82.3389C42.585 82.471 42.8037 82.5371 43.0771 82.5371C43.2913 82.5371 43.4645 82.5007 43.5967 82.4277C43.7288 82.3548 43.8314 82.2386 43.9043 82.0791C43.9818 81.9196 44.0319 81.7145 44.0547 81.4639C44.082 81.2087 44.0957 80.901 44.0957 80.541ZM50.1592 84.1367C49.6533 84.1367 49.2044 84.0592 48.8125 83.9043C48.4251 83.7493 48.097 83.526 47.8281 83.2344C47.5592 82.9382 47.3542 82.5804 47.2129 82.1611C47.0716 81.7419 47.001 81.2633 47.001 80.7256V80.1172C47.001 79.5156 47.0693 78.9893 47.2061 78.5381C47.3428 78.0824 47.5365 77.6995 47.7871 77.3896C48.0378 77.0798 48.3454 76.8496 48.71 76.6992C49.0791 76.5443 49.4961 76.4668 49.9609 76.4668C50.4258 76.4668 50.8337 76.5443 51.1846 76.6992C51.54 76.8496 51.834 77.0775 52.0664 77.3828C52.2988 77.6836 52.4743 78.0573 52.5928 78.5039C52.7113 78.9505 52.7705 79.4701 52.7705 80.0625V80.9375H47.8145V79.5908H50.8906V79.4199C50.8906 79.1191 50.8587 78.8685 50.7949 78.668C50.7311 78.4629 50.6309 78.3102 50.4941 78.21C50.3574 78.1097 50.1751 78.0596 49.9473 78.0596C49.7559 78.0596 49.5941 78.0983 49.4619 78.1758C49.3298 78.2533 49.2249 78.374 49.1475 78.5381C49.07 78.7021 49.013 78.9163 48.9766 79.1807C48.9401 79.4404 48.9219 79.7526 48.9219 80.1172V80.7256C48.9219 81.0674 48.9515 81.3545 49.0107 81.5869C49.07 81.8148 49.1566 82.0016 49.2705 82.1475C49.389 82.2887 49.5326 82.3913 49.7012 82.4551C49.8698 82.5143 50.0658 82.5439 50.2891 82.5439C50.6263 82.5439 50.9294 82.4847 51.1982 82.3662C51.4717 82.2432 51.7041 82.0768 51.8955 81.8672L52.6611 83.0293C52.529 83.2025 52.3467 83.3757 52.1143 83.5488C51.8818 83.722 51.6038 83.8633 51.2803 83.9727C50.9567 84.082 50.583 84.1367 50.1592 84.1367ZM55.792 78.251V84H53.8779V76.6035H55.6826L55.792 78.251ZM57.5352 76.5488L57.5078 78.4561C57.4212 78.4378 57.3164 78.4242 57.1934 78.415C57.0749 78.4059 56.9701 78.4014 56.8789 78.4014C56.6647 78.4014 56.4824 78.4355 56.332 78.5039C56.1816 78.5677 56.0563 78.6657 55.9561 78.7979C55.8604 78.9255 55.7874 79.085 55.7373 79.2764C55.6872 79.4678 55.6576 79.6842 55.6484 79.9258L55.2861 79.7891C55.2861 79.306 55.3226 78.8639 55.3955 78.4629C55.473 78.0573 55.5869 77.7064 55.7373 77.4102C55.8877 77.1094 56.0677 76.877 56.2773 76.7129C56.4915 76.5488 56.7331 76.4668 57.002 76.4668C57.0931 76.4668 57.1888 76.4759 57.2891 76.4941C57.3939 76.5078 57.4759 76.526 57.5352 76.5488ZM61.7939 82.0039C61.7939 81.8763 61.7507 81.7624 61.6641 81.6621C61.5775 81.5618 61.4408 81.4593 61.2539 81.3545C61.0671 81.2451 60.8187 81.1243 60.5088 80.9922C60.1715 80.8555 59.873 80.7142 59.6133 80.5684C59.3535 80.4225 59.1325 80.2607 58.9502 80.083C58.7725 79.9053 58.638 79.7025 58.5469 79.4746C58.4557 79.2467 58.4102 78.987 58.4102 78.6953C58.4102 78.3809 58.4671 78.0915 58.5811 77.8271C58.6995 77.5583 58.8682 77.3236 59.0869 77.123C59.3057 76.918 59.5723 76.7585 59.8867 76.6445C60.2057 76.526 60.5635 76.4668 60.96 76.4668C61.516 76.4668 61.9922 76.5648 62.3887 76.7607C62.7897 76.9521 63.0973 77.221 63.3115 77.5674C63.5257 77.9137 63.6328 78.3171 63.6328 78.7773H61.7188C61.7188 78.6133 61.6937 78.4674 61.6436 78.3398C61.5934 78.2077 61.5114 78.1051 61.3975 78.0322C61.2881 77.9593 61.14 77.9229 60.9531 77.9229C60.8164 77.9229 60.6934 77.9525 60.584 78.0117C60.4792 78.071 60.3949 78.1507 60.3311 78.251C60.2718 78.3467 60.2422 78.4606 60.2422 78.5928C60.2422 78.693 60.2627 78.7819 60.3037 78.8594C60.3493 78.9368 60.4199 79.012 60.5156 79.085C60.6113 79.1579 60.7389 79.2354 60.8984 79.3174C61.0625 79.3949 61.263 79.4814 61.5 79.5771C61.9922 79.7594 62.3955 79.9554 62.71 80.165C63.029 80.3747 63.266 80.6208 63.4209 80.9033C63.5758 81.1813 63.6533 81.5254 63.6533 81.9355C63.6533 82.2637 63.5895 82.5622 63.4619 82.8311C63.3389 83.0999 63.1589 83.3324 62.9219 83.5283C62.6849 83.7243 62.4001 83.8747 62.0674 83.9795C61.7393 84.0843 61.3724 84.1367 60.9668 84.1367C60.3698 84.1367 59.8662 84.0182 59.4561 83.7812C59.0459 83.5443 58.736 83.2412 58.5264 82.8721C58.3167 82.4984 58.2119 82.111 58.2119 81.71H60.0303C60.0394 81.9561 60.085 82.1497 60.167 82.291C60.2536 82.4277 60.3698 82.5234 60.5156 82.5781C60.6615 82.6328 60.8232 82.6602 61.001 82.6602C61.1787 82.6602 61.3245 82.6374 61.4385 82.5918C61.557 82.5417 61.6458 82.4665 61.7051 82.3662C61.7643 82.2614 61.7939 82.1406 61.7939 82.0039Z" fill="url(#paint0_linear_1405_1335)"/>
<path d="M319.843 63.8242L317.703 72H315.591L318.701 62.0469H320.021L319.843 63.8242ZM321.531 72L319.378 63.8242L319.18 62.0469H320.52L323.657 72H321.531ZM321.606 68.2881V69.9492H317.115V68.2881H321.606ZM328.005 70.2227V64.6035H329.926V72H328.121L328.005 70.2227ZM328.224 68.6982L328.757 68.6846C328.757 69.1813 328.709 69.6416 328.613 70.0654C328.518 70.4847 328.374 70.8493 328.183 71.1592C327.991 71.4691 327.752 71.7106 327.465 71.8838C327.178 72.0524 326.838 72.1367 326.446 72.1367C326.146 72.1367 325.868 72.0866 325.612 71.9863C325.362 71.8815 325.145 71.7197 324.963 71.501C324.781 71.2777 324.637 70.9928 324.532 70.6465C324.432 70.2956 324.382 69.874 324.382 69.3818V64.6035H326.303V69.4023C326.303 69.6029 326.321 69.776 326.357 69.9219C326.394 70.0632 326.444 70.1794 326.508 70.2705C326.572 70.3617 326.647 70.4277 326.733 70.4688C326.82 70.5052 326.918 70.5234 327.027 70.5234C327.328 70.5234 327.565 70.446 327.738 70.291C327.916 70.1315 328.041 69.915 328.114 69.6416C328.187 69.3636 328.224 69.0492 328.224 68.6982ZM334.547 64.6035V66.0459H330.773V64.6035H334.547ZM331.642 62.7783H333.549V69.7441C333.549 69.9492 333.569 70.1064 333.61 70.2158C333.651 70.3252 333.713 70.4027 333.795 70.4482C333.882 70.4893 333.995 70.5098 334.137 70.5098C334.232 70.5098 334.321 70.5052 334.403 70.4961C334.485 70.4824 334.547 70.4688 334.588 70.4551V71.9521C334.438 72.0114 334.278 72.057 334.109 72.0889C333.945 72.1208 333.749 72.1367 333.521 72.1367C333.139 72.1367 332.806 72.0638 332.523 71.918C332.245 71.7721 332.029 71.5397 331.874 71.2207C331.719 70.8971 331.642 70.4733 331.642 69.9492V62.7783ZM335.189 68.5547V68.0557C335.189 67.4769 335.258 66.9642 335.395 66.5176C335.536 66.071 335.736 65.6973 335.996 65.3965C336.256 65.0911 336.568 64.861 336.933 64.7061C337.302 64.5465 337.714 64.4668 338.17 64.4668C338.63 64.4668 339.043 64.5465 339.407 64.7061C339.776 64.861 340.091 65.0911 340.351 65.3965C340.615 65.6973 340.818 66.071 340.959 66.5176C341.1 66.9642 341.171 67.4769 341.171 68.0557V68.5547C341.171 69.1289 341.1 69.6393 340.959 70.0859C340.818 70.5326 340.615 70.9085 340.351 71.2139C340.091 71.5192 339.779 71.7493 339.414 71.9043C339.049 72.0592 338.639 72.1367 338.184 72.1367C337.728 72.1367 337.315 72.0592 336.946 71.9043C336.582 71.7493 336.267 71.5192 336.003 71.2139C335.739 70.9085 335.536 70.5326 335.395 70.0859C335.258 69.6393 335.189 69.1289 335.189 68.5547ZM337.104 68.0557V68.5547C337.104 68.8965 337.126 69.1927 337.172 69.4434C337.222 69.694 337.293 69.9014 337.384 70.0654C337.479 70.2295 337.593 70.3503 337.726 70.4277C337.858 70.5052 338.01 70.5439 338.184 70.5439C338.357 70.5439 338.512 70.5052 338.648 70.4277C338.785 70.3503 338.897 70.2295 338.983 70.0654C339.075 69.9014 339.141 69.694 339.182 69.4434C339.227 69.1927 339.25 68.8965 339.25 68.5547V68.0557C339.25 67.723 339.225 67.4313 339.175 67.1807C339.125 66.9255 339.054 66.7181 338.963 66.5586C338.872 66.3945 338.758 66.2715 338.621 66.1895C338.489 66.1029 338.339 66.0596 338.17 66.0596C338.001 66.0596 337.851 66.1029 337.719 66.1895C337.591 66.2715 337.479 66.3945 337.384 66.5586C337.293 66.7181 337.222 66.9255 337.172 67.1807C337.126 67.4313 337.104 67.723 337.104 68.0557ZM344.261 66.1826V72H342.34V64.6035H344.138L344.261 66.1826ZM343.974 68.0488L343.461 68.0625C343.452 67.5065 343.504 67.0075 343.618 66.5654C343.737 66.1234 343.903 65.7474 344.117 65.4375C344.336 65.123 344.596 64.8838 344.896 64.7197C345.202 64.5511 345.541 64.4668 345.915 64.4668C346.202 64.4668 346.464 64.5169 346.701 64.6172C346.943 64.7174 347.15 64.877 347.323 65.0957C347.496 65.3145 347.631 65.6061 347.727 65.9707C347.822 66.3307 347.87 66.7728 347.87 67.2969V72H345.949V67.2832C345.949 66.9642 345.917 66.7181 345.854 66.5449C345.79 66.3672 345.694 66.2441 345.566 66.1758C345.439 66.1029 345.279 66.0664 345.088 66.0664C344.906 66.0664 344.744 66.1188 344.603 66.2236C344.461 66.3239 344.343 66.4629 344.247 66.6406C344.156 66.8184 344.085 67.028 344.035 67.2695C343.99 67.5111 343.969 67.7708 343.974 68.0488ZM352.847 70.2227V64.6035H354.768V72H352.963L352.847 70.2227ZM353.065 68.6982L353.599 68.6846C353.599 69.1813 353.551 69.6416 353.455 70.0654C353.359 70.4847 353.216 70.8493 353.024 71.1592C352.833 71.4691 352.594 71.7106 352.307 71.8838C352.02 72.0524 351.68 72.1367 351.288 72.1367C350.987 72.1367 350.709 72.0866 350.454 71.9863C350.203 71.8815 349.987 71.7197 349.805 71.501C349.622 71.2777 349.479 70.9928 349.374 70.6465C349.274 70.2956 349.224 69.874 349.224 69.3818V64.6035H351.145V69.4023C351.145 69.6029 351.163 69.776 351.199 69.9219C351.236 70.0632 351.286 70.1794 351.35 70.2705C351.413 70.3617 351.489 70.4277 351.575 70.4688C351.662 70.5052 351.76 70.5234 351.869 70.5234C352.17 70.5234 352.407 70.446 352.58 70.291C352.758 70.1315 352.883 69.915 352.956 69.6416C353.029 69.3636 353.065 69.0492 353.065 68.6982ZM358.09 66.1348V72H356.169V64.6035H357.974L358.09 66.1348ZM357.816 68.0488L357.29 68.0625C357.281 67.543 357.326 67.0645 357.427 66.627C357.527 66.1895 357.677 65.8089 357.878 65.4854C358.083 65.1618 358.34 64.9111 358.65 64.7334C358.96 64.5557 359.323 64.4668 359.737 64.4668C360.006 64.4668 360.255 64.5169 360.482 64.6172C360.71 64.7129 360.909 64.8656 361.077 65.0752C361.246 65.2803 361.376 65.5492 361.467 65.8818C361.558 66.21 361.604 66.6042 361.604 67.0645V72H359.689V67.2969C359.689 66.9688 359.658 66.7181 359.594 66.5449C359.53 66.3672 359.439 66.2441 359.32 66.1758C359.202 66.1029 359.056 66.0664 358.883 66.0664C358.701 66.0664 358.541 66.1165 358.404 66.2168C358.268 66.3171 358.156 66.4583 358.069 66.6406C357.987 66.8184 357.924 67.028 357.878 67.2695C357.837 67.5111 357.816 67.7708 357.816 68.0488ZM361.419 67.8574L360.729 67.9463C360.719 67.4587 360.763 67.0052 360.858 66.5859C360.954 66.1621 361.102 65.793 361.303 65.4785C361.503 65.1595 361.754 64.9111 362.055 64.7334C362.36 64.5557 362.713 64.4668 363.114 64.4668C363.415 64.4668 363.688 64.5169 363.935 64.6172C364.181 64.7174 364.39 64.8792 364.563 65.1025C364.741 65.3213 364.876 65.6107 364.967 65.9707C365.062 66.3307 365.11 66.7682 365.11 67.2832V72H363.189V67.29C363.189 66.9574 363.158 66.7021 363.094 66.5244C363.03 66.3467 362.939 66.2259 362.82 66.1621C362.702 66.0983 362.561 66.0664 362.396 66.0664C362.232 66.0664 362.089 66.112 361.966 66.2031C361.847 66.2943 361.747 66.4219 361.665 66.5859C361.583 66.7454 361.521 66.9346 361.48 67.1533C361.439 67.3675 361.419 67.6022 361.419 67.8574ZM368.48 66.1348V72H366.56V64.6035H368.364L368.48 66.1348ZM368.207 68.0488L367.681 68.0625C367.672 67.543 367.717 67.0645 367.817 66.627C367.918 66.1895 368.068 65.8089 368.269 65.4854C368.474 65.1618 368.731 64.9111 369.041 64.7334C369.351 64.5557 369.713 64.4668 370.128 64.4668C370.397 64.4668 370.645 64.5169 370.873 64.6172C371.101 64.7129 371.299 64.8656 371.468 65.0752C371.636 65.2803 371.766 65.5492 371.857 65.8818C371.949 66.21 371.994 66.6042 371.994 67.0645V72H370.08V67.2969C370.08 66.9688 370.048 66.7181 369.984 66.5449C369.921 66.3672 369.829 66.2441 369.711 66.1758C369.592 66.1029 369.447 66.0664 369.273 66.0664C369.091 66.0664 368.932 66.1165 368.795 66.2168C368.658 66.3171 368.547 66.4583 368.46 66.6406C368.378 66.8184 368.314 67.028 368.269 67.2695C368.228 67.5111 368.207 67.7708 368.207 68.0488ZM371.81 67.8574L371.119 67.9463C371.11 67.4587 371.153 67.0052 371.249 66.5859C371.345 66.1621 371.493 65.793 371.693 65.4785C371.894 65.1595 372.145 64.9111 372.445 64.7334C372.751 64.5557 373.104 64.4668 373.505 64.4668C373.806 64.4668 374.079 64.5169 374.325 64.6172C374.571 64.7174 374.781 64.8792 374.954 65.1025C375.132 65.3213 375.266 65.6107 375.357 65.9707C375.453 66.3307 375.501 66.7682 375.501 67.2832V72H373.58V67.29C373.58 66.9574 373.548 66.7021 373.484 66.5244C373.421 66.3467 373.329 66.2259 373.211 66.1621C373.092 66.0983 372.951 66.0664 372.787 66.0664C372.623 66.0664 372.479 66.112 372.356 66.2031C372.238 66.2943 372.138 66.4219 372.056 66.5859C371.974 66.7454 371.912 66.9346 371.871 67.1533C371.83 67.3675 371.81 67.6022 371.81 67.8574ZM379.924 72.1367C379.418 72.1367 378.969 72.0592 378.577 71.9043C378.19 71.7493 377.862 71.526 377.593 71.2344C377.324 70.9382 377.119 70.5804 376.978 70.1611C376.836 69.7419 376.766 69.2633 376.766 68.7256V68.1172C376.766 67.5156 376.834 66.9893 376.971 66.5381C377.107 66.0824 377.301 65.6995 377.552 65.3896C377.802 65.0798 378.11 64.8496 378.475 64.6992C378.844 64.5443 379.261 64.4668 379.726 64.4668C380.19 64.4668 380.598 64.5443 380.949 64.6992C381.305 64.8496 381.599 65.0775 381.831 65.3828C382.063 65.6836 382.239 66.0573 382.357 66.5039C382.476 66.9505 382.535 67.4701 382.535 68.0625V68.9375H377.579V67.5908H380.655V67.4199C380.655 67.1191 380.623 66.8685 380.56 66.668C380.496 66.4629 380.396 66.3102 380.259 66.21C380.122 66.1097 379.94 66.0596 379.712 66.0596C379.521 66.0596 379.359 66.0983 379.227 66.1758C379.094 66.2533 378.99 66.374 378.912 66.5381C378.835 66.7021 378.778 66.9163 378.741 67.1807C378.705 67.4404 378.687 67.7526 378.687 68.1172V68.7256C378.687 69.0674 378.716 69.3545 378.775 69.5869C378.835 69.8148 378.921 70.0016 379.035 70.1475C379.154 70.2887 379.297 70.3913 379.466 70.4551C379.634 70.5143 379.83 70.5439 380.054 70.5439C380.391 70.5439 380.694 70.4847 380.963 70.3662C381.236 70.2432 381.469 70.0768 381.66 69.8672L382.426 71.0293C382.294 71.2025 382.111 71.3757 381.879 71.5488C381.646 71.722 381.368 71.8633 381.045 71.9727C380.721 72.082 380.348 72.1367 379.924 72.1367ZM385.557 66.251V72H383.643V64.6035H385.447L385.557 66.251ZM387.3 64.5488L387.272 66.4561C387.186 66.4378 387.081 66.4242 386.958 66.415C386.84 66.4059 386.735 66.4014 386.644 66.4014C386.429 66.4014 386.247 66.4355 386.097 66.5039C385.946 66.5677 385.821 66.6657 385.721 66.7979C385.625 66.9255 385.552 67.085 385.502 67.2764C385.452 67.4678 385.422 67.6842 385.413 67.9258L385.051 67.7891C385.051 67.306 385.087 66.8639 385.16 66.4629C385.238 66.0573 385.352 65.7064 385.502 65.4102C385.652 65.1094 385.832 64.877 386.042 64.7129C386.256 64.5488 386.498 64.4668 386.767 64.4668C386.858 64.4668 386.953 64.4759 387.054 64.4941C387.159 64.5078 387.241 64.526 387.3 64.5488Z" fill="#E0E0E9"/>
<path d="M619.261 62.0469H622.453C623.118 62.0469 623.686 62.1608 624.155 62.3887C624.625 62.6165 624.985 62.9538 625.235 63.4004C625.486 63.847 625.611 64.3984 625.611 65.0547C625.611 65.5924 625.538 66.0527 625.393 66.4355C625.247 66.8138 625.039 67.1305 624.771 67.3857C624.502 67.6364 624.18 67.8369 623.807 67.9873L623.198 68.3496H620.607L620.601 66.6885H622.398C622.672 66.6885 622.897 66.6292 623.075 66.5107C623.257 66.3877 623.392 66.2168 623.479 65.998C623.57 65.7747 623.615 65.515 623.615 65.2188C623.615 64.9043 623.574 64.6354 623.492 64.4121C623.415 64.1842 623.289 64.0111 623.116 63.8926C622.948 63.7695 622.727 63.708 622.453 63.708H621.264V72H619.261V62.0469ZM623.779 72L621.954 67.5635L624.053 67.5566L625.919 71.9043V72H623.779ZM629.891 72.1367C629.385 72.1367 628.936 72.0592 628.544 71.9043C628.157 71.7493 627.828 71.526 627.56 71.2344C627.291 70.9382 627.086 70.5804 626.944 70.1611C626.803 69.7419 626.732 69.2633 626.732 68.7256V68.1172C626.732 67.5156 626.801 66.9893 626.938 66.5381C627.074 66.0824 627.268 65.6995 627.519 65.3896C627.769 65.0798 628.077 64.8496 628.441 64.6992C628.811 64.5443 629.228 64.4668 629.692 64.4668C630.157 64.4668 630.565 64.5443 630.916 64.6992C631.271 64.8496 631.565 65.0775 631.798 65.3828C632.03 65.6836 632.206 66.0573 632.324 66.5039C632.443 66.9505 632.502 67.4701 632.502 68.0625V68.9375H627.546V67.5908H630.622V67.4199C630.622 67.1191 630.59 66.8685 630.526 66.668C630.463 66.4629 630.362 66.3102 630.226 66.21C630.089 66.1097 629.907 66.0596 629.679 66.0596C629.487 66.0596 629.326 66.0983 629.193 66.1758C629.061 66.2533 628.956 66.374 628.879 66.5381C628.801 66.7021 628.744 66.9163 628.708 67.1807C628.672 67.4404 628.653 67.7526 628.653 68.1172V68.7256C628.653 69.0674 628.683 69.3545 628.742 69.5869C628.801 69.8148 628.888 70.0016 629.002 70.1475C629.12 70.2887 629.264 70.3913 629.433 70.4551C629.601 70.5143 629.797 70.5439 630.021 70.5439C630.358 70.5439 630.661 70.4847 630.93 70.3662C631.203 70.2432 631.436 70.0768 631.627 69.8672L632.393 71.0293C632.26 71.2025 632.078 71.3757 631.846 71.5488C631.613 71.722 631.335 71.8633 631.012 71.9727C630.688 72.082 630.314 72.1367 629.891 72.1367ZM636.282 70.5439C636.46 70.5439 636.613 70.5075 636.74 70.4346C636.872 70.3617 636.973 70.2432 637.041 70.0791C637.109 69.915 637.146 69.7031 637.15 69.4434H638.948C638.948 69.9993 638.83 70.4801 638.593 70.8857C638.36 71.2868 638.046 71.5967 637.649 71.8154C637.257 72.0296 636.813 72.1367 636.316 72.1367C635.82 72.1367 635.387 72.057 635.018 71.8975C634.648 71.738 634.343 71.5055 634.102 71.2002C633.865 70.8949 633.685 70.5234 633.562 70.0859C633.443 69.6439 633.384 69.138 633.384 68.5684V68.0283C633.384 67.4678 633.443 66.9665 633.562 66.5244C633.685 66.0824 633.865 65.7087 634.102 65.4033C634.343 65.098 634.646 64.8656 635.011 64.7061C635.38 64.5465 635.813 64.4668 636.31 64.4668C636.843 64.4668 637.305 64.5785 637.697 64.8018C638.089 65.0205 638.395 65.3441 638.613 65.7725C638.837 66.2008 638.948 66.7295 638.948 67.3584H637.15C637.146 67.0758 637.112 66.8411 637.048 66.6543C636.989 66.4629 636.895 66.3171 636.768 66.2168C636.645 66.112 636.48 66.0596 636.275 66.0596C636.061 66.0596 635.888 66.1051 635.756 66.1963C635.628 66.2829 635.53 66.4105 635.462 66.5791C635.398 66.7432 635.355 66.9482 635.332 67.1943C635.309 67.4404 635.298 67.7184 635.298 68.0283V68.5684C635.298 68.901 635.307 69.1904 635.325 69.4365C635.348 69.6781 635.391 69.8831 635.455 70.0518C635.523 70.2158 635.621 70.3389 635.749 70.4209C635.881 70.5029 636.059 70.5439 636.282 70.5439ZM641.915 61.5V72H640.001V61.5H641.915ZM641.642 68.0488L641.122 68.0625C641.122 67.543 641.174 67.0645 641.279 66.627C641.389 66.1895 641.546 65.8089 641.751 65.4854C641.956 65.1618 642.204 64.9111 642.496 64.7334C642.792 64.5557 643.118 64.4668 643.474 64.4668C643.779 64.4668 644.057 64.5192 644.308 64.624C644.558 64.7288 644.775 64.8929 644.957 65.1162C645.144 65.3395 645.287 65.6335 645.388 65.998C645.488 66.3626 645.538 66.807 645.538 67.3311V72H643.617V67.3174C643.617 66.9984 643.585 66.7477 643.521 66.5654C643.458 66.3831 643.362 66.2555 643.234 66.1826C643.107 66.1051 642.947 66.0664 642.756 66.0664C642.551 66.0664 642.375 66.1188 642.229 66.2236C642.088 66.3239 641.974 66.4629 641.888 66.6406C641.801 66.8184 641.737 67.028 641.696 67.2695C641.66 67.5111 641.642 67.7708 641.642 68.0488ZM648.819 66.1826V72H646.898V64.6035H648.696L648.819 66.1826ZM648.532 68.0488L648.02 68.0625C648.01 67.5065 648.063 67.0075 648.177 66.5654C648.295 66.1234 648.462 65.7474 648.676 65.4375C648.895 65.123 649.154 64.8838 649.455 64.7197C649.76 64.5511 650.1 64.4668 650.474 64.4668C650.761 64.4668 651.023 64.5169 651.26 64.6172C651.501 64.7174 651.709 64.877 651.882 65.0957C652.055 65.3145 652.189 65.6061 652.285 65.9707C652.381 66.3307 652.429 66.7728 652.429 67.2969V72H650.508V67.2832C650.508 66.9642 650.476 66.7181 650.412 66.5449C650.348 66.3672 650.253 66.2441 650.125 66.1758C649.997 66.1029 649.838 66.0664 649.646 66.0664C649.464 66.0664 649.302 66.1188 649.161 66.2236C649.02 66.3239 648.901 66.4629 648.806 66.6406C648.715 66.8184 648.644 67.028 648.594 67.2695C648.548 67.5111 648.528 67.7708 648.532 68.0488ZM657.405 70.2227V64.6035H659.326V72H657.521L657.405 70.2227ZM657.624 68.6982L658.157 68.6846C658.157 69.1813 658.109 69.6416 658.014 70.0654C657.918 70.4847 657.774 70.8493 657.583 71.1592C657.392 71.4691 657.152 71.7106 656.865 71.8838C656.578 72.0524 656.239 72.1367 655.847 72.1367C655.546 72.1367 655.268 72.0866 655.013 71.9863C654.762 71.8815 654.546 71.7197 654.363 71.501C654.181 71.2777 654.037 70.9928 653.933 70.6465C653.832 70.2956 653.782 69.874 653.782 69.3818V64.6035H655.703V69.4023C655.703 69.6029 655.721 69.776 655.758 69.9219C655.794 70.0632 655.844 70.1794 655.908 70.2705C655.972 70.3617 656.047 70.4277 656.134 70.4688C656.22 70.5052 656.318 70.5234 656.428 70.5234C656.729 70.5234 656.965 70.446 657.139 70.291C657.316 70.1315 657.442 69.915 657.515 69.6416C657.588 69.3636 657.624 69.0492 657.624 68.6982ZM662.601 66.1826V72H660.68V64.6035H662.478L662.601 66.1826ZM662.313 68.0488L661.801 68.0625C661.792 67.5065 661.844 67.0075 661.958 66.5654C662.076 66.1234 662.243 65.7474 662.457 65.4375C662.676 65.123 662.936 64.8838 663.236 64.7197C663.542 64.5511 663.881 64.4668 664.255 64.4668C664.542 64.4668 664.804 64.5169 665.041 64.6172C665.283 64.7174 665.49 64.877 665.663 65.0957C665.836 65.3145 665.971 65.6061 666.066 65.9707C666.162 66.3307 666.21 66.7728 666.21 67.2969V72H664.289V67.2832C664.289 66.9642 664.257 66.7181 664.193 66.5449C664.13 66.3672 664.034 66.2441 663.906 66.1758C663.779 66.1029 663.619 66.0664 663.428 66.0664C663.245 66.0664 663.084 66.1188 662.942 66.2236C662.801 66.3239 662.683 66.4629 662.587 66.6406C662.496 66.8184 662.425 67.028 662.375 67.2695C662.329 67.5111 662.309 67.7708 662.313 68.0488ZM671.501 64.6035H673.237V72C673.237 72.6745 673.107 73.2259 672.848 73.6543C672.592 74.0872 672.235 74.404 671.774 74.6045C671.319 74.8096 670.785 74.9121 670.175 74.9121C669.942 74.9121 669.68 74.8802 669.389 74.8164C669.102 74.7526 668.824 74.6546 668.555 74.5225C668.286 74.3949 668.065 74.2399 667.892 74.0576L668.541 72.7314C668.719 72.9092 668.951 73.0596 669.238 73.1826C669.525 73.3102 669.808 73.374 670.086 73.374C670.355 73.374 670.578 73.3307 670.756 73.2441C670.938 73.1621 671.075 73.0208 671.166 72.8203C671.262 72.6198 671.31 72.3509 671.31 72.0137V66.3193L671.501 64.6035ZM667.372 68.5615V68.0693C667.372 67.4678 667.429 66.9414 667.543 66.4902C667.657 66.0391 667.821 65.6631 668.035 65.3623C668.249 65.0615 668.511 64.8382 668.821 64.6924C669.136 64.542 669.487 64.4668 669.874 64.4668C670.28 64.4668 670.619 64.5557 670.893 64.7334C671.166 64.9066 671.387 65.1504 671.556 65.4648C671.729 65.7793 671.861 66.1507 671.952 66.5791C672.048 67.0075 672.121 67.4769 672.171 67.9873V68.6982C672.121 69.1813 672.039 69.6325 671.925 70.0518C671.815 70.471 671.67 70.8356 671.487 71.1455C671.305 71.4554 671.082 71.6992 670.817 71.877C670.553 72.0501 670.234 72.1367 669.86 72.1367C669.478 72.1367 669.131 72.0592 668.821 71.9043C668.516 71.7493 668.254 71.5215 668.035 71.2207C667.821 70.9154 667.657 70.5417 667.543 70.0996C667.429 69.653 667.372 69.1403 667.372 68.5615ZM669.293 68.0693V68.5615C669.293 68.9079 669.313 69.2064 669.354 69.457C669.4 69.7031 669.468 69.9059 669.56 70.0654C669.651 70.2204 669.767 70.3366 669.908 70.4141C670.054 70.487 670.225 70.5234 670.421 70.5234C670.699 70.5234 670.92 70.4596 671.084 70.332C671.253 70.1999 671.376 70.0199 671.453 69.792C671.535 69.5596 671.581 69.293 671.59 68.9922V67.7002C671.585 67.4495 671.556 67.224 671.501 67.0234C671.451 66.8229 671.38 66.652 671.289 66.5107C671.198 66.3695 671.079 66.2601 670.934 66.1826C670.792 66.1051 670.626 66.0664 670.435 66.0664C670.239 66.0664 670.07 66.1051 669.929 66.1826C669.787 66.2601 669.669 66.3809 669.573 66.5449C669.482 66.7044 669.411 66.9118 669.361 67.167C669.316 67.4176 669.293 67.7184 669.293 68.0693ZM677.947 70.0039C677.947 69.8763 677.904 69.7624 677.817 69.6621C677.731 69.5618 677.594 69.4593 677.407 69.3545C677.22 69.2451 676.972 69.1243 676.662 68.9922C676.325 68.8555 676.026 68.7142 675.767 68.5684C675.507 68.4225 675.286 68.2607 675.104 68.083C674.926 67.9053 674.791 67.7025 674.7 67.4746C674.609 67.2467 674.563 66.987 674.563 66.6953C674.563 66.3809 674.62 66.0915 674.734 65.8271C674.853 65.5583 675.021 65.3236 675.24 65.123C675.459 64.918 675.726 64.7585 676.04 64.6445C676.359 64.526 676.717 64.4668 677.113 64.4668C677.669 64.4668 678.146 64.5648 678.542 64.7607C678.943 64.9521 679.251 65.221 679.465 65.5674C679.679 65.9137 679.786 66.3171 679.786 66.7773H677.872C677.872 66.6133 677.847 66.4674 677.797 66.3398C677.747 66.2077 677.665 66.1051 677.551 66.0322C677.441 65.9593 677.293 65.9229 677.106 65.9229C676.97 65.9229 676.847 65.9525 676.737 66.0117C676.632 66.071 676.548 66.1507 676.484 66.251C676.425 66.3467 676.396 66.4606 676.396 66.5928C676.396 66.693 676.416 66.7819 676.457 66.8594C676.503 66.9368 676.573 67.012 676.669 67.085C676.765 67.1579 676.892 67.2354 677.052 67.3174C677.216 67.3949 677.416 67.4814 677.653 67.5771C678.146 67.7594 678.549 67.9554 678.863 68.165C679.182 68.3747 679.419 68.6208 679.574 68.9033C679.729 69.1813 679.807 69.5254 679.807 69.9355C679.807 70.2637 679.743 70.5622 679.615 70.8311C679.492 71.0999 679.312 71.3324 679.075 71.5283C678.838 71.7243 678.553 71.8747 678.221 71.9795C677.893 72.0843 677.526 72.1367 677.12 72.1367C676.523 72.1367 676.02 72.0182 675.609 71.7812C675.199 71.5443 674.889 71.2412 674.68 70.8721C674.47 70.4984 674.365 70.111 674.365 69.71H676.184C676.193 69.9561 676.238 70.1497 676.32 70.291C676.407 70.4277 676.523 70.5234 676.669 70.5781C676.815 70.6328 676.977 70.6602 677.154 70.6602C677.332 70.6602 677.478 70.6374 677.592 70.5918C677.71 70.5417 677.799 70.4665 677.858 70.3662C677.918 70.2614 677.947 70.1406 677.947 70.0039ZM684.305 70.0039C684.305 69.8763 684.261 69.7624 684.175 69.6621C684.088 69.5618 683.951 69.4593 683.765 69.3545C683.578 69.2451 683.329 69.1243 683.02 68.9922C682.682 68.8555 682.384 68.7142 682.124 68.5684C681.864 68.4225 681.643 68.2607 681.461 68.083C681.283 67.9053 681.149 67.7025 681.058 67.4746C680.966 67.2467 680.921 66.987 680.921 66.6953C680.921 66.3809 680.978 66.0915 681.092 65.8271C681.21 65.5583 681.379 65.3236 681.598 65.123C681.816 64.918 682.083 64.7585 682.397 64.6445C682.716 64.526 683.074 64.4668 683.471 64.4668C684.027 64.4668 684.503 64.5648 684.899 64.7607C685.3 64.9521 685.608 65.221 685.822 65.5674C686.036 65.9137 686.144 66.3171 686.144 66.7773H684.229C684.229 66.6133 684.204 66.4674 684.154 66.3398C684.104 66.2077 684.022 66.1051 683.908 66.0322C683.799 65.9593 683.651 65.9229 683.464 65.9229C683.327 65.9229 683.204 65.9525 683.095 66.0117C682.99 66.071 682.906 66.1507 682.842 66.251C682.783 66.3467 682.753 66.4606 682.753 66.5928C682.753 66.693 682.773 66.7819 682.814 66.8594C682.86 66.9368 682.931 67.012 683.026 67.085C683.122 67.1579 683.25 67.2354 683.409 67.3174C683.573 67.3949 683.774 67.4814 684.011 67.5771C684.503 67.7594 684.906 67.9554 685.221 68.165C685.54 68.3747 685.777 68.6208 685.932 68.9033C686.087 69.1813 686.164 69.5254 686.164 69.9355C686.164 70.2637 686.1 70.5622 685.973 70.8311C685.85 71.0999 685.67 71.3324 685.433 71.5283C685.196 71.7243 684.911 71.8747 684.578 71.9795C684.25 72.0843 683.883 72.1367 683.478 72.1367C682.881 72.1367 682.377 72.0182 681.967 71.7812C681.557 71.5443 681.247 71.2412 681.037 70.8721C680.827 70.4984 680.723 70.111 680.723 69.71H682.541C682.55 69.9561 682.596 70.1497 682.678 70.291C682.764 70.4277 682.881 70.5234 683.026 70.5781C683.172 70.6328 683.334 70.6602 683.512 70.6602C683.689 70.6602 683.835 70.6374 683.949 70.5918C684.068 70.5417 684.157 70.4665 684.216 70.3662C684.275 70.2614 684.305 70.1406 684.305 70.0039ZM690.607 64.6035V66.0459H686.834V64.6035H690.607ZM687.702 62.7783H689.609V69.7441C689.609 69.9492 689.63 70.1064 689.671 70.2158C689.712 70.3252 689.773 70.4027 689.855 70.4482C689.942 70.4893 690.056 70.5098 690.197 70.5098C690.293 70.5098 690.382 70.5052 690.464 70.4961C690.546 70.4824 690.607 70.4688 690.648 70.4551V71.9521C690.498 72.0114 690.339 72.057 690.17 72.0889C690.006 72.1208 689.81 72.1367 689.582 72.1367C689.199 72.1367 688.867 72.0638 688.584 71.918C688.306 71.7721 688.09 71.5397 687.935 71.2207C687.78 70.8971 687.702 70.4733 687.702 69.9492V62.7783ZM694.654 72.1367C694.148 72.1367 693.7 72.0592 693.308 71.9043C692.92 71.7493 692.592 71.526 692.323 71.2344C692.054 70.9382 691.849 70.5804 691.708 70.1611C691.567 69.7419 691.496 69.2633 691.496 68.7256V68.1172C691.496 67.5156 691.564 66.9893 691.701 66.5381C691.838 66.0824 692.032 65.6995 692.282 65.3896C692.533 65.0798 692.84 64.8496 693.205 64.6992C693.574 64.5443 693.991 64.4668 694.456 64.4668C694.921 64.4668 695.329 64.5443 695.68 64.6992C696.035 64.8496 696.329 65.0775 696.562 65.3828C696.794 65.6836 696.969 66.0573 697.088 66.5039C697.206 66.9505 697.266 67.4701 697.266 68.0625V68.9375H692.31V67.5908H695.386V67.4199C695.386 67.1191 695.354 66.8685 695.29 66.668C695.226 66.4629 695.126 66.3102 694.989 66.21C694.853 66.1097 694.67 66.0596 694.442 66.0596C694.251 66.0596 694.089 66.0983 693.957 66.1758C693.825 66.2533 693.72 66.374 693.643 66.5381C693.565 66.7021 693.508 66.9163 693.472 67.1807C693.435 67.4404 693.417 67.7526 693.417 68.1172V68.7256C693.417 69.0674 693.447 69.3545 693.506 69.5869C693.565 69.8148 693.652 70.0016 693.766 70.1475C693.884 70.2887 694.028 70.3913 694.196 70.4551C694.365 70.5143 694.561 70.5439 694.784 70.5439C695.121 70.5439 695.424 70.4847 695.693 70.3662C695.967 70.2432 696.199 70.0768 696.391 69.8672L697.156 71.0293C697.024 71.2025 696.842 71.3757 696.609 71.5488C696.377 71.722 696.099 71.8633 695.775 71.9727C695.452 72.082 695.078 72.1367 694.654 72.1367ZM700.383 61.5V72H698.462V61.5H700.383ZM703.91 61.5V72H701.989V61.5H703.91ZM709.003 70.2227V64.6035H710.924V72H709.119L709.003 70.2227ZM709.222 68.6982L709.755 68.6846C709.755 69.1813 709.707 69.6416 709.611 70.0654C709.516 70.4847 709.372 70.8493 709.181 71.1592C708.989 71.4691 708.75 71.7106 708.463 71.8838C708.176 72.0524 707.836 72.1367 707.444 72.1367C707.144 72.1367 706.866 72.0866 706.61 71.9863C706.36 71.8815 706.143 71.7197 705.961 71.501C705.779 71.2777 705.635 70.9928 705.53 70.6465C705.43 70.2956 705.38 69.874 705.38 69.3818V64.6035H707.301V69.4023C707.301 69.6029 707.319 69.776 707.355 69.9219C707.392 70.0632 707.442 70.1794 707.506 70.2705C707.57 70.3617 707.645 70.4277 707.731 70.4688C707.818 70.5052 707.916 70.5234 708.025 70.5234C708.326 70.5234 708.563 70.446 708.736 70.291C708.914 70.1315 709.039 69.915 709.112 69.6416C709.185 69.3636 709.222 69.0492 709.222 68.6982ZM714.198 66.1826V72H712.277V64.6035H714.075L714.198 66.1826ZM713.911 68.0488L713.398 68.0625C713.389 67.5065 713.442 67.0075 713.556 66.5654C713.674 66.1234 713.84 65.7474 714.055 65.4375C714.273 65.123 714.533 64.8838 714.834 64.7197C715.139 64.5511 715.479 64.4668 715.853 64.4668C716.14 64.4668 716.402 64.5169 716.639 64.6172C716.88 64.7174 717.088 64.877 717.261 65.0957C717.434 65.3145 717.568 65.6061 717.664 65.9707C717.76 66.3307 717.808 66.7728 717.808 67.2969V72H715.887V67.2832C715.887 66.9642 715.855 66.7181 715.791 66.5449C715.727 66.3672 715.632 66.2441 715.504 66.1758C715.376 66.1029 715.217 66.0664 715.025 66.0664C714.843 66.0664 714.681 66.1188 714.54 66.2236C714.399 66.3239 714.28 66.4629 714.185 66.6406C714.093 66.8184 714.023 67.028 713.973 67.2695C713.927 67.5111 713.907 67.7708 713.911 68.0488ZM723.099 64.6035H724.835V72C724.835 72.6745 724.705 73.2259 724.445 73.6543C724.19 74.0872 723.832 74.404 723.372 74.6045C722.916 74.8096 722.383 74.9121 721.772 74.9121C721.54 74.9121 721.278 74.8802 720.986 74.8164C720.699 74.7526 720.421 74.6546 720.152 74.5225C719.883 74.3949 719.662 74.2399 719.489 74.0576L720.139 72.7314C720.316 72.9092 720.549 73.0596 720.836 73.1826C721.123 73.3102 721.406 73.374 721.684 73.374C721.952 73.374 722.176 73.3307 722.354 73.2441C722.536 73.1621 722.673 73.0208 722.764 72.8203C722.859 72.6198 722.907 72.3509 722.907 72.0137V66.3193L723.099 64.6035ZM718.97 68.5615V68.0693C718.97 67.4678 719.027 66.9414 719.141 66.4902C719.255 66.0391 719.419 65.6631 719.633 65.3623C719.847 65.0615 720.109 64.8382 720.419 64.6924C720.733 64.542 721.084 64.4668 721.472 64.4668C721.877 64.4668 722.217 64.5557 722.49 64.7334C722.764 64.9066 722.985 65.1504 723.153 65.4648C723.326 65.7793 723.459 66.1507 723.55 66.5791C723.646 67.0075 723.718 67.4769 723.769 67.9873V68.6982C723.718 69.1813 723.636 69.6325 723.522 70.0518C723.413 70.471 723.267 70.8356 723.085 71.1455C722.903 71.4554 722.679 71.6992 722.415 71.877C722.151 72.0501 721.832 72.1367 721.458 72.1367C721.075 72.1367 720.729 72.0592 720.419 71.9043C720.114 71.7493 719.852 71.5215 719.633 71.2207C719.419 70.9154 719.255 70.5417 719.141 70.0996C719.027 69.653 718.97 69.1403 718.97 68.5615ZM720.891 68.0693V68.5615C720.891 68.9079 720.911 69.2064 720.952 69.457C720.998 69.7031 721.066 69.9059 721.157 70.0654C721.248 70.2204 721.365 70.3366 721.506 70.4141C721.652 70.487 721.823 70.5234 722.019 70.5234C722.297 70.5234 722.518 70.4596 722.682 70.332C722.85 70.1999 722.973 70.0199 723.051 69.792C723.133 69.5596 723.178 69.293 723.188 68.9922V67.7002C723.183 67.4495 723.153 67.224 723.099 67.0234C723.049 66.8229 722.978 66.652 722.887 66.5107C722.796 66.3695 722.677 66.2601 722.531 66.1826C722.39 66.1051 722.224 66.0664 722.032 66.0664C721.836 66.0664 721.668 66.1051 721.526 66.1826C721.385 66.2601 721.267 66.3809 721.171 66.5449C721.08 66.7044 721.009 66.9118 720.959 67.167C720.913 67.4176 720.891 67.7184 720.891 68.0693Z" fill="#E0E0E9"/>
<path d="M956.394 59.0469V69H954.391V59.0469H956.394ZM961.336 59.0469L958.109 63.9893L956.134 66.4502L955.751 64.4473L957.029 62.3145L958.902 59.0469H961.336ZM959.025 69L956.852 64.4268L958.321 63.1279L961.384 69H959.025ZM961.637 65.5547V65.0557C961.637 64.4769 961.705 63.9642 961.842 63.5176C961.983 63.071 962.184 62.6973 962.443 62.3965C962.703 62.0911 963.015 61.861 963.38 61.7061C963.749 61.5465 964.161 61.4668 964.617 61.4668C965.077 61.4668 965.49 61.5465 965.854 61.7061C966.224 61.861 966.538 62.0911 966.798 62.3965C967.062 62.6973 967.265 63.071 967.406 63.5176C967.548 63.9642 967.618 64.4769 967.618 65.0557V65.5547C967.618 66.1289 967.548 66.6393 967.406 67.0859C967.265 67.5326 967.062 67.9085 966.798 68.2139C966.538 68.5192 966.226 68.7493 965.861 68.9043C965.497 69.0592 965.087 69.1367 964.631 69.1367C964.175 69.1367 963.763 69.0592 963.394 68.9043C963.029 68.7493 962.715 68.5192 962.45 68.2139C962.186 67.9085 961.983 67.5326 961.842 67.0859C961.705 66.6393 961.637 66.1289 961.637 65.5547ZM963.551 65.0557V65.5547C963.551 65.8965 963.574 66.1927 963.619 66.4434C963.669 66.694 963.74 66.9014 963.831 67.0654C963.927 67.2295 964.041 67.3503 964.173 67.4277C964.305 67.5052 964.458 67.5439 964.631 67.5439C964.804 67.5439 964.959 67.5052 965.096 67.4277C965.232 67.3503 965.344 67.2295 965.431 67.0654C965.522 66.9014 965.588 66.694 965.629 66.4434C965.674 66.1927 965.697 65.8965 965.697 65.5547V65.0557C965.697 64.723 965.672 64.4313 965.622 64.1807C965.572 63.9255 965.501 63.7181 965.41 63.5586C965.319 63.3945 965.205 63.2715 965.068 63.1895C964.936 63.1029 964.786 63.0596 964.617 63.0596C964.449 63.0596 964.298 63.1029 964.166 63.1895C964.038 63.2715 963.927 63.3945 963.831 63.5586C963.74 63.7181 963.669 63.9255 963.619 64.1807C963.574 64.4313 963.551 64.723 963.551 65.0557ZM970.708 63.1826V69H968.787V61.6035H970.585L970.708 63.1826ZM970.421 65.0488L969.908 65.0625C969.899 64.5065 969.951 64.0075 970.065 63.5654C970.184 63.1234 970.35 62.7474 970.564 62.4375C970.783 62.123 971.043 61.8838 971.344 61.7197C971.649 61.5511 971.989 61.4668 972.362 61.4668C972.649 61.4668 972.911 61.5169 973.148 61.6172C973.39 61.7174 973.597 61.877 973.771 62.0957C973.944 62.3145 974.078 62.6061 974.174 62.9707C974.27 63.3307 974.317 63.7728 974.317 64.2969V69H972.396V64.2832C972.396 63.9642 972.365 63.7181 972.301 63.5449C972.237 63.3672 972.141 63.2441 972.014 63.1758C971.886 63.1029 971.727 63.0664 971.535 63.0664C971.353 63.0664 971.191 63.1188 971.05 63.2236C970.909 63.3239 970.79 63.4629 970.694 63.6406C970.603 63.8184 970.533 64.028 970.482 64.2695C970.437 64.5111 970.416 64.7708 970.421 65.0488ZM978.945 61.6035V63.0459H975.172V61.6035H978.945ZM976.04 59.7783H977.947V66.7441C977.947 66.9492 977.968 67.1064 978.009 67.2158C978.05 67.3252 978.111 67.4027 978.193 67.4482C978.28 67.4893 978.394 67.5098 978.535 67.5098C978.631 67.5098 978.72 67.5052 978.802 67.4961C978.884 67.4824 978.945 67.4688 978.986 67.4551V68.9521C978.836 69.0114 978.676 69.057 978.508 69.0889C978.344 69.1208 978.148 69.1367 977.92 69.1367C977.537 69.1367 977.204 69.0638 976.922 68.918C976.644 68.7721 976.427 68.5397 976.272 68.2207C976.118 67.8971 976.04 67.4733 976.04 66.9492V59.7783ZM981.926 63.251V69H980.012V61.6035H981.816L981.926 63.251ZM983.669 61.5488L983.642 63.4561C983.555 63.4378 983.45 63.4242 983.327 63.415C983.209 63.4059 983.104 63.4014 983.013 63.4014C982.799 63.4014 982.616 63.4355 982.466 63.5039C982.315 63.5677 982.19 63.6657 982.09 63.7979C981.994 63.9255 981.921 64.085 981.871 64.2764C981.821 64.4678 981.791 64.6842 981.782 64.9258L981.42 64.7891C981.42 64.306 981.456 63.8639 981.529 63.4629C981.607 63.0573 981.721 62.7064 981.871 62.4102C982.021 62.1094 982.201 61.877 982.411 61.7129C982.625 61.5488 982.867 61.4668 983.136 61.4668C983.227 61.4668 983.323 61.4759 983.423 61.4941C983.528 61.5078 983.61 61.526 983.669 61.5488ZM984.182 65.5547V65.0557C984.182 64.4769 984.25 63.9642 984.387 63.5176C984.528 63.071 984.729 62.6973 984.988 62.3965C985.248 62.0911 985.56 61.861 985.925 61.7061C986.294 61.5465 986.706 61.4668 987.162 61.4668C987.622 61.4668 988.035 61.5465 988.399 61.7061C988.769 61.861 989.083 62.0911 989.343 62.3965C989.607 62.6973 989.81 63.071 989.951 63.5176C990.092 63.9642 990.163 64.4769 990.163 65.0557V65.5547C990.163 66.1289 990.092 66.6393 989.951 67.0859C989.81 67.5326 989.607 67.9085 989.343 68.2139C989.083 68.5192 988.771 68.7493 988.406 68.9043C988.042 69.0592 987.632 69.1367 987.176 69.1367C986.72 69.1367 986.308 69.0592 985.938 68.9043C985.574 68.7493 985.259 68.5192 984.995 68.2139C984.731 67.9085 984.528 67.5326 984.387 67.0859C984.25 66.6393 984.182 66.1289 984.182 65.5547ZM986.096 65.0557V65.5547C986.096 65.8965 986.118 66.1927 986.164 66.4434C986.214 66.694 986.285 66.9014 986.376 67.0654C986.472 67.2295 986.586 67.3503 986.718 67.4277C986.85 67.5052 987.003 67.5439 987.176 67.5439C987.349 67.5439 987.504 67.5052 987.641 67.4277C987.777 67.3503 987.889 67.2295 987.976 67.0654C988.067 66.9014 988.133 66.694 988.174 66.4434C988.219 66.1927 988.242 65.8965 988.242 65.5547V65.0557C988.242 64.723 988.217 64.4313 988.167 64.1807C988.117 63.9255 988.046 63.7181 987.955 63.5586C987.864 63.3945 987.75 63.2715 987.613 63.1895C987.481 63.1029 987.331 63.0596 987.162 63.0596C986.993 63.0596 986.843 63.1029 986.711 63.1895C986.583 63.2715 986.472 63.3945 986.376 63.5586C986.285 63.7181 986.214 63.9255 986.164 64.1807C986.118 64.4313 986.096 64.723 986.096 65.0557ZM993.383 58.5V69H991.462V58.5H993.383ZM996.91 58.5V69H994.989V58.5H996.91ZM1001.41 69.1367C1000.9 69.1367 1000.45 69.0592 1000.06 68.9043C999.674 68.7493 999.346 68.526 999.077 68.2344C998.808 67.9382 998.603 67.5804 998.462 67.1611C998.321 66.7419 998.25 66.2633 998.25 65.7256V65.1172C998.25 64.5156 998.318 63.9893 998.455 63.5381C998.592 63.0824 998.785 62.6995 999.036 62.3896C999.287 62.0798 999.594 61.8496 999.959 61.6992C1000.33 61.5443 1000.75 61.4668 1001.21 61.4668C1001.67 61.4668 1002.08 61.5443 1002.43 61.6992C1002.79 61.8496 1003.08 62.0775 1003.32 62.3828C1003.55 62.6836 1003.72 63.0573 1003.84 63.5039C1003.96 63.9505 1004.02 64.4701 1004.02 65.0625V65.9375H999.063V64.5908H1002.14V64.4199C1002.14 64.1191 1002.11 63.8685 1002.04 63.668C1001.98 63.4629 1001.88 63.3102 1001.74 63.21C1001.61 63.1097 1001.42 63.0596 1001.2 63.0596C1001 63.0596 1000.84 63.0983 1000.71 63.1758C1000.58 63.2533 1000.47 63.374 1000.4 63.5381C1000.32 63.7021 1000.26 63.9163 1000.23 64.1807C1000.19 64.4404 1000.17 64.7526 1000.17 65.1172V65.7256C1000.17 66.0674 1000.2 66.3545 1000.26 66.5869C1000.32 66.8148 1000.41 67.0016 1000.52 67.1475C1000.64 67.2887 1000.78 67.3913 1000.95 67.4551C1001.12 67.5143 1001.31 67.5439 1001.54 67.5439C1001.88 67.5439 1002.18 67.4847 1002.45 67.3662C1002.72 67.2432 1002.95 67.0768 1003.14 66.8672L1003.91 68.0293C1003.78 68.2025 1003.6 68.3757 1003.36 68.5488C1003.13 68.722 1002.85 68.8633 1002.53 68.9727C1002.21 69.082 1001.83 69.1367 1001.41 69.1367ZM972.923 81.2227V75.6035H974.844V83H973.039L972.923 81.2227ZM973.142 79.6982L973.675 79.6846C973.675 80.1813 973.627 80.6416 973.531 81.0654C973.436 81.4847 973.292 81.8493 973.101 82.1592C972.909 82.4691 972.67 82.7106 972.383 82.8838C972.096 83.0524 971.756 83.1367 971.364 83.1367C971.063 83.1367 970.785 83.0866 970.53 82.9863C970.28 82.8815 970.063 82.7197 969.881 82.501C969.699 82.2777 969.555 81.9928 969.45 81.6465C969.35 81.2956 969.3 80.874 969.3 80.3818V75.6035H971.221V80.4023C971.221 80.6029 971.239 80.776 971.275 80.9219C971.312 81.0632 971.362 81.1794 971.426 81.2705C971.49 81.3617 971.565 81.4277 971.651 81.4688C971.738 81.5052 971.836 81.5234 971.945 81.5234C972.246 81.5234 972.483 81.446 972.656 81.291C972.834 81.1315 972.959 80.915 973.032 80.6416C973.105 80.3636 973.142 80.0492 973.142 79.6982ZM978.118 77.1826V83H976.197V75.6035H977.995L978.118 77.1826ZM977.831 79.0488L977.318 79.0625C977.309 78.5065 977.362 78.0075 977.476 77.5654C977.594 77.1234 977.76 76.7474 977.975 76.4375C978.193 76.123 978.453 75.8838 978.754 75.7197C979.059 75.5511 979.399 75.4668 979.772 75.4668C980.06 75.4668 980.322 75.5169 980.559 75.6172C980.8 75.7174 981.007 75.877 981.181 76.0957C981.354 76.3145 981.488 76.6061 981.584 76.9707C981.68 77.3307 981.728 77.7728 981.728 78.2969V83H979.807V78.2832C979.807 77.9642 979.775 77.7181 979.711 77.5449C979.647 77.3672 979.551 77.2441 979.424 77.1758C979.296 77.1029 979.137 77.0664 978.945 77.0664C978.763 77.0664 978.601 77.1188 978.46 77.2236C978.319 77.3239 978.2 77.4629 978.104 77.6406C978.013 77.8184 977.943 78.028 977.893 78.2695C977.847 78.5111 977.826 78.7708 977.831 79.0488ZM986.711 81.3662V72.5H988.632V83L986.896 83.0068L986.711 81.3662ZM982.876 79.5615V79.0693C982.876 78.4678 982.926 77.9414 983.026 77.4902C983.131 77.0391 983.286 76.6631 983.491 76.3623C983.696 76.0615 983.947 75.8382 984.243 75.6924C984.544 75.542 984.888 75.4668 985.275 75.4668C985.626 75.4668 985.934 75.5557 986.198 75.7334C986.467 75.9066 986.695 76.1504 986.882 76.4648C987.069 76.7793 987.219 77.1507 987.333 77.5791C987.447 78.0075 987.527 78.4769 987.572 78.9873V79.6982C987.518 80.1813 987.433 80.6325 987.319 81.0518C987.21 81.471 987.06 81.8356 986.868 82.1455C986.681 82.4554 986.456 82.6992 986.191 82.877C985.927 83.0501 985.619 83.1367 985.269 83.1367C984.881 83.1367 984.537 83.0592 984.236 82.9043C983.94 82.7493 983.689 82.5215 983.484 82.2207C983.284 81.9154 983.131 81.5417 983.026 81.0996C982.926 80.653 982.876 80.1403 982.876 79.5615ZM984.79 79.0693V79.5615C984.79 79.9079 984.806 80.2064 984.838 80.457C984.874 80.7031 984.931 80.9059 985.009 81.0654C985.091 81.2204 985.198 81.3366 985.33 81.4141C985.462 81.487 985.626 81.5234 985.822 81.5234C986.077 81.5234 986.285 81.4596 986.444 81.332C986.604 81.1999 986.722 81.0199 986.8 80.792C986.882 80.5596 986.927 80.293 986.937 79.9922V78.7002C986.927 78.4495 986.898 78.224 986.848 78.0234C986.798 77.8229 986.727 77.652 986.636 77.5107C986.545 77.3695 986.431 77.2601 986.294 77.1826C986.162 77.1051 986.007 77.0664 985.829 77.0664C985.638 77.0664 985.474 77.1051 985.337 77.1826C985.205 77.2601 985.1 77.3809 985.022 77.5449C984.945 77.7044 984.886 77.9118 984.845 78.167C984.808 78.4176 984.79 78.7184 984.79 79.0693ZM953.789 92.6592H951.752L951.745 91.21H953.481C953.755 91.21 953.978 91.1644 954.151 91.0732C954.329 90.9775 954.459 90.8385 954.541 90.6562C954.628 90.4694 954.671 90.2438 954.671 89.9795C954.671 89.6742 954.632 89.4303 954.555 89.248C954.477 89.0612 954.352 88.9245 954.179 88.8379C954.006 88.7513 953.78 88.708 953.502 88.708H952.436V97H950.433V87.0469H953.502C953.999 87.0469 954.443 87.1016 954.835 87.2109C955.227 87.3203 955.56 87.4867 955.833 87.71C956.106 87.9333 956.314 88.2158 956.455 88.5576C956.601 88.8994 956.674 89.3027 956.674 89.7676C956.674 90.1777 956.592 90.556 956.428 90.9023C956.264 91.2487 956.006 91.5312 955.655 91.75C955.309 91.9688 954.855 92.0918 954.295 92.1191L953.789 92.6592ZM953.721 97H951.185L951.984 95.3457H953.721C953.985 95.3457 954.199 95.2887 954.363 95.1748C954.527 95.0609 954.646 94.9082 954.719 94.7168C954.792 94.5208 954.828 94.2975 954.828 94.0469C954.828 93.7643 954.794 93.5182 954.726 93.3086C954.662 93.099 954.555 92.9395 954.404 92.8301C954.254 92.7161 954.051 92.6592 953.796 92.6592H952.073L952.087 91.21H954.179L954.65 91.7842C955.184 91.766 955.61 91.8685 955.929 92.0918C956.248 92.3105 956.476 92.5977 956.612 92.9531C956.754 93.304 956.824 93.6777 956.824 94.0742C956.824 94.7122 956.703 95.25 956.462 95.6875C956.225 96.1204 955.876 96.4486 955.416 96.6719C954.956 96.8906 954.391 97 953.721 97ZM961.179 97.1367C960.673 97.1367 960.224 97.0592 959.832 96.9043C959.445 96.7493 959.117 96.526 958.848 96.2344C958.579 95.9382 958.374 95.5804 958.232 95.1611C958.091 94.7419 958.021 94.2633 958.021 93.7256V93.1172C958.021 92.5156 958.089 91.9893 958.226 91.5381C958.362 91.0824 958.556 90.6995 958.807 90.3896C959.057 90.0798 959.365 89.8496 959.729 89.6992C960.099 89.5443 960.516 89.4668 960.98 89.4668C961.445 89.4668 961.853 89.5443 962.204 89.6992C962.56 89.8496 962.854 90.0775 963.086 90.3828C963.318 90.6836 963.494 91.0573 963.612 91.5039C963.731 91.9505 963.79 92.4701 963.79 93.0625V93.9375H958.834V92.5908H961.91V92.4199C961.91 92.1191 961.878 91.8685 961.814 91.668C961.751 91.4629 961.65 91.3102 961.514 91.21C961.377 91.1097 961.195 91.0596 960.967 91.0596C960.775 91.0596 960.614 91.0983 960.481 91.1758C960.349 91.2533 960.244 91.374 960.167 91.5381C960.09 91.7021 960.033 91.9163 959.996 92.1807C959.96 92.4404 959.941 92.7526 959.941 93.1172V93.7256C959.941 94.0674 959.971 94.3545 960.03 94.5869C960.09 94.8148 960.176 95.0016 960.29 95.1475C960.409 95.2887 960.552 95.3913 960.721 95.4551C960.889 95.5143 961.085 95.5439 961.309 95.5439C961.646 95.5439 961.949 95.4847 962.218 95.3662C962.491 95.2432 962.724 95.0768 962.915 94.8672L963.681 96.0293C963.549 96.2025 963.366 96.3757 963.134 96.5488C962.901 96.722 962.623 96.8633 962.3 96.9727C961.976 97.082 961.603 97.1367 961.179 97.1367ZM969.956 95.4072V97H965.26V95.4072H969.956ZM969.908 90.7656L966.012 97H964.733V95.7969L968.609 89.6035H969.908V90.7656ZM969.238 89.6035V91.1963H964.809V89.6035H969.238ZM974.488 95.2979V91.8799C974.488 91.6566 974.461 91.4788 974.406 91.3467C974.356 91.2145 974.279 91.1188 974.174 91.0596C974.074 90.9958 973.951 90.9639 973.805 90.9639C973.641 90.9639 973.504 90.998 973.395 91.0664C973.285 91.1348 973.203 91.2327 973.148 91.3604C973.098 91.488 973.073 91.6406 973.073 91.8184H971.152C971.152 91.4993 971.214 91.1986 971.337 90.916C971.46 90.6289 971.64 90.3783 971.877 90.1641C972.118 89.9453 972.406 89.7744 972.738 89.6514C973.071 89.5283 973.445 89.4668 973.859 89.4668C974.352 89.4668 974.789 89.5511 975.172 89.7197C975.555 89.8838 975.858 90.1458 976.081 90.5059C976.304 90.8659 976.416 91.333 976.416 91.9072V95.2021C976.416 95.6169 976.437 95.9541 976.478 96.2139C976.523 96.4736 976.589 96.6969 976.676 96.8838V97H974.748C974.661 96.7949 974.595 96.5397 974.55 96.2344C974.509 95.9245 974.488 95.6123 974.488 95.2979ZM974.721 92.4814L974.728 93.6299H974.023C973.841 93.6299 973.682 93.6595 973.545 93.7188C973.413 93.778 973.301 93.8623 973.21 93.9717C973.119 94.0765 973.05 94.1995 973.005 94.3408C972.964 94.4821 972.943 94.6325 972.943 94.792C972.943 94.9697 972.968 95.1201 973.019 95.2432C973.069 95.3662 973.144 95.4596 973.244 95.5234C973.344 95.5872 973.463 95.6191 973.6 95.6191C973.809 95.6191 973.992 95.5758 974.146 95.4893C974.301 95.4027 974.415 95.2979 974.488 95.1748C974.566 95.0518 974.591 94.9378 974.563 94.833L975.001 95.5781C974.946 95.7467 974.871 95.9222 974.775 96.1045C974.684 96.2868 974.568 96.4554 974.427 96.6104C974.285 96.7653 974.11 96.8929 973.9 96.9932C973.695 97.0889 973.451 97.1367 973.169 97.1367C972.772 97.1367 972.41 97.0456 972.082 96.8633C971.754 96.681 971.494 96.4258 971.303 96.0977C971.116 95.7695 971.022 95.3799 971.022 94.9287C971.022 94.555 971.082 94.2178 971.2 93.917C971.323 93.6117 971.506 93.3542 971.747 93.1445C971.989 92.9303 972.294 92.7663 972.663 92.6523C973.032 92.5384 973.465 92.4814 973.962 92.4814H974.721ZM979.697 86.5V97H977.783V86.5H979.697ZM979.424 93.0488L978.904 93.0625C978.904 92.543 978.957 92.0645 979.062 91.627C979.171 91.1895 979.328 90.8089 979.533 90.4854C979.738 90.1618 979.987 89.9111 980.278 89.7334C980.575 89.5557 980.9 89.4668 981.256 89.4668C981.561 89.4668 981.839 89.5192 982.09 89.624C982.34 89.7288 982.557 89.8929 982.739 90.1162C982.926 90.3395 983.07 90.6335 983.17 90.998C983.27 91.3626 983.32 91.807 983.32 92.3311V97H981.399V92.3174C981.399 91.9984 981.368 91.7477 981.304 91.5654C981.24 91.3831 981.144 91.2555 981.017 91.1826C980.889 91.1051 980.729 91.0664 980.538 91.0664C980.333 91.0664 980.158 91.1188 980.012 91.2236C979.87 91.3239 979.757 91.4629 979.67 91.6406C979.583 91.8184 979.52 92.028 979.479 92.2695C979.442 92.5111 979.424 92.7708 979.424 93.0488ZM986.731 86.5V97H984.811V86.5H986.731ZM991.824 95.2227V89.6035H993.745V97H991.94L991.824 95.2227ZM992.043 93.6982L992.576 93.6846C992.576 94.1813 992.528 94.6416 992.433 95.0654C992.337 95.4847 992.193 95.8493 992.002 96.1592C991.811 96.4691 991.571 96.7106 991.284 96.8838C990.997 97.0524 990.658 97.1367 990.266 97.1367C989.965 97.1367 989.687 97.0866 989.432 96.9863C989.181 96.8815 988.965 96.7197 988.782 96.501C988.6 96.2777 988.456 95.9928 988.352 95.6465C988.251 95.2956 988.201 94.874 988.201 94.3818V89.6035H990.122V94.4023C990.122 94.6029 990.14 94.776 990.177 94.9219C990.213 95.0632 990.263 95.1794 990.327 95.2705C990.391 95.3617 990.466 95.4277 990.553 95.4688C990.639 95.5052 990.737 95.5234 990.847 95.5234C991.147 95.5234 991.384 95.446 991.558 95.291C991.735 95.1315 991.861 94.915 991.934 94.6416C992.007 94.3636 992.043 94.0492 992.043 93.6982ZM997.02 91.1826V97H995.099V89.6035H996.896L997.02 91.1826ZM996.732 93.0488L996.22 93.0625C996.211 92.5065 996.263 92.0075 996.377 91.5654C996.495 91.1234 996.662 90.7474 996.876 90.4375C997.095 90.123 997.354 89.8838 997.655 89.7197C997.961 89.5511 998.3 89.4668 998.674 89.4668C998.961 89.4668 999.223 89.5169 999.46 89.6172C999.701 89.7174 999.909 89.877 1000.08 90.0957C1000.26 90.3145 1000.39 90.6061 1000.49 90.9707C1000.58 91.3307 1000.63 91.7728 1000.63 92.2969V97H998.708V92.2832C998.708 91.9642 998.676 91.7181 998.612 91.5449C998.549 91.3672 998.453 91.2441 998.325 91.1758C998.198 91.1029 998.038 91.0664 997.847 91.0664C997.664 91.0664 997.503 91.1188 997.361 91.2236C997.22 91.3239 997.102 91.4629 997.006 91.6406C996.915 91.8184 996.844 92.028 996.794 92.2695C996.748 92.5111 996.728 92.7708 996.732 93.0488ZM1005.92 89.6035H1007.66V97C1007.66 97.6745 1007.53 98.2259 1007.27 98.6543C1007.01 99.0872 1006.65 99.404 1006.19 99.6045C1005.74 99.8096 1005.2 99.9121 1004.59 99.9121C1004.36 99.9121 1004.1 99.8802 1003.81 99.8164C1003.52 99.7526 1003.24 99.6546 1002.97 99.5225C1002.7 99.3949 1002.48 99.2399 1002.31 99.0576L1002.96 97.7314C1003.14 97.9092 1003.37 98.0596 1003.66 98.1826C1003.94 98.3102 1004.23 98.374 1004.5 98.374C1004.77 98.374 1005 98.3307 1005.17 98.2441C1005.36 98.1621 1005.49 98.0208 1005.58 97.8203C1005.68 97.6198 1005.73 97.3509 1005.73 97.0137V91.3193L1005.92 89.6035ZM1001.79 93.5615V93.0693C1001.79 92.4678 1001.85 91.9414 1001.96 91.4902C1002.08 91.0391 1002.24 90.6631 1002.45 90.3623C1002.67 90.0615 1002.93 89.8382 1003.24 89.6924C1003.55 89.542 1003.91 89.4668 1004.29 89.4668C1004.7 89.4668 1005.04 89.5557 1005.31 89.7334C1005.58 89.9066 1005.81 90.1504 1005.97 90.4648C1006.15 90.7793 1006.28 91.1507 1006.37 91.5791C1006.47 92.0075 1006.54 92.4769 1006.59 92.9873V93.6982C1006.54 94.1813 1006.46 94.6325 1006.34 95.0518C1006.23 95.471 1006.09 95.8356 1005.91 96.1455C1005.72 96.4554 1005.5 96.6992 1005.24 96.877C1004.97 97.0501 1004.65 97.1367 1004.28 97.1367C1003.9 97.1367 1003.55 97.0592 1003.24 96.9043C1002.93 96.7493 1002.67 96.5215 1002.45 96.2207C1002.24 95.9154 1002.08 95.5417 1001.96 95.0996C1001.85 94.653 1001.79 94.1403 1001.79 93.5615ZM1003.71 93.0693V93.5615C1003.71 93.9079 1003.73 94.2064 1003.77 94.457C1003.82 94.7031 1003.89 94.9059 1003.98 95.0654C1004.07 95.2204 1004.19 95.3366 1004.33 95.4141C1004.47 95.487 1004.64 95.5234 1004.84 95.5234C1005.12 95.5234 1005.34 95.4596 1005.5 95.332C1005.67 95.1999 1005.79 95.0199 1005.87 94.792C1005.95 94.5596 1006 94.293 1006.01 93.9922V92.7002C1006 92.4495 1005.97 92.224 1005.92 92.0234C1005.87 91.8229 1005.8 91.652 1005.71 91.5107C1005.62 91.3695 1005.5 91.2601 1005.35 91.1826C1005.21 91.1051 1005.04 91.0664 1004.85 91.0664C1004.66 91.0664 1004.49 91.1051 1004.35 91.1826C1004.21 91.2601 1004.09 91.3809 1003.99 91.5449C1003.9 91.7044 1003.83 91.9118 1003.78 92.167C1003.73 92.4176 1003.71 92.7184 1003.71 93.0693Z" fill="#E0E0E9"/>
<path fill-rule="evenodd" clip-rule="evenodd" d="M986 33H361V31H986V33Z" fill="#D0CFD7"/>
<path fill-rule="evenodd" clip-rule="evenodd" d="M341 33H44V31H341V33Z" fill="#D0CFD7"/>
<g filter="url(#filter0_d_1405_1335)">
<path d="M34 17C25.7125 17 19 23.7125 19 32C19 34.8125 19.7875 37.475 21.175 39.725C22.497 41.9468 24.3748 43.7861 26.6236 45.0617C28.8724 46.3373 31.4146 47.0053 34 47C39.475 47 44.2375 44.075 46.825 39.725C48.2125 37.475 49 34.8125 49 32C49 23.7125 42.2875 17 34 17ZM41.3875 30.7625L33.4 38.15C32.875 38.6375 32.1625 38.9 31.4875 38.9C30.775 38.9 30.0625 38.6375 29.5 38.075L25.7875 34.3625C25.2644 33.8332 24.9711 33.1191 24.9711 32.375C24.9711 31.6309 25.2644 30.9168 25.7875 30.3875C26.875 29.3 28.675 29.3 29.7625 30.3875L31.5625 32.1875L37.5625 26.6375C38.6875 25.5875 40.4875 25.6625 41.5375 26.7875C42.5875 27.9125 42.5125 29.7125 41.3875 30.7625Z" fill="url(#paint1_linear_1405_1335)"/>
</g>
<circle cx="672.5" cy="32.5" r="14.5" fill="#D0CFD7"/>
<circle cx="350.5" cy="32.5" r="14.5" fill="#D0CFD7"/>
<circle cx="978.5" cy="32.5" r="14.5" fill="#D0CFD7"/>
<defs>
<filter id="filter0_d_1405_1335" x="2" y="0" width="74" height="74" filterUnits="userSpaceOnUse" color-interpolation-filters="sRGB">
<feFlood flood-opacity="0" result="BackgroundImageFix"/>
<feColorMatrix in="SourceAlpha" type="matrix" values="0 0 0 0 0 0 0 0 0 0 0 0 0 0 0 0 0 0 127 0" result="hardAlpha"/>
<feOffset dx="5" dy="5"/>
<feGaussianBlur stdDeviation="11"/>
<feComposite in2="hardAlpha" operator="out"/>
<feColorMatrix type="matrix" values="0 0 0 0 0.0392157 0 0 0 0 0.560784 0 0 0 0 0.309804 0 0 0 0.2 0"/>
<feBlend mode="normal" in2="BackgroundImageFix" result="effect1_dropShadow_1405_1335"/>
<feBlend mode="normal" in="SourceGraphic" in2="effect1_dropShadow_1405_1335" result="shape"/>
</filter>
<linearGradient id="paint0_linear_1405_1335" x1="33.5" y1="86" x2="33.5" y2="58" gradientUnits="userSpaceOnUse">
<stop stop-color="#5CCC94"/>
<stop offset="1" stop-color="#8CCAAE"/>
</linearGradient>
<linearGradient id="paint1_linear_1405_1335" x1="34" y1="47" x2="34" y2="17" gradientUnits="userSpaceOnUse">
<stop stop-color="#5CCC94"/>
<stop offset="1" stop-color="#8CCAAE"/>
</linearGradient>
</defs>
</svg>
