<svg width="739" height="95" viewBox="0 0 739 95" fill="none" xmlns="http://www.w3.org/2000/svg">
<path d="M40.3291 62.0469H43.5215C44.1868 62.0469 44.7542 62.1608 45.2236 62.3887C45.693 62.6165 46.0531 62.9538 46.3037 63.4004C46.5544 63.847 46.6797 64.3984 46.6797 65.0547C46.6797 65.5924 46.6068 66.0527 46.4609 66.4355C46.3151 66.8138 46.1077 67.1305 45.8389 67.3857C45.57 67.6364 45.2487 67.8369 44.875 67.9873L44.2666 68.3496H41.6758L41.6689 66.6885H43.4668C43.7402 66.6885 43.9658 66.6292 44.1436 66.5107C44.3258 66.3877 44.4603 66.2168 44.5469 65.998C44.638 65.7747 44.6836 65.515 44.6836 65.2188C44.6836 64.9043 44.6426 64.6354 44.5605 64.4121C44.4831 64.1842 44.3577 64.0111 44.1846 63.8926C44.016 63.7695 43.7949 63.708 43.5215 63.708H42.332V72H40.3291V62.0469ZM44.8477 72L43.0225 67.5635L45.1211 67.5566L46.9873 71.9043V72H44.8477ZM50.959 72.1367C50.4531 72.1367 50.0042 72.0592 49.6123 71.9043C49.2249 71.7493 48.8968 71.526 48.6279 71.2344C48.359 70.9382 48.154 70.5804 48.0127 70.1611C47.8714 69.7419 47.8008 69.2633 47.8008 68.7256V68.1172C47.8008 67.5156 47.8691 66.9893 48.0059 66.5381C48.1426 66.0824 48.3363 65.6995 48.5869 65.3896C48.8376 65.0798 49.1452 64.8496 49.5098 64.6992C49.8789 64.5443 50.2959 64.4668 50.7607 64.4668C51.2256 64.4668 51.6335 64.5443 51.9844 64.6992C52.3398 64.8496 52.6338 65.0775 52.8662 65.3828C53.0986 65.6836 53.2741 66.0573 53.3926 66.5039C53.5111 66.9505 53.5703 67.4701 53.5703 68.0625V68.9375H48.6143V67.5908H51.6904V67.4199C51.6904 67.1191 51.6585 66.8685 51.5947 66.668C51.5309 66.4629 51.4307 66.3102 51.2939 66.21C51.1572 66.1097 50.9749 66.0596 50.7471 66.0596C50.5557 66.0596 50.3939 66.0983 50.2617 66.1758C50.1296 66.2533 50.0247 66.374 49.9473 66.5381C49.8698 66.7021 49.8128 66.9163 49.7764 67.1807C49.7399 67.4404 49.7217 67.7526 49.7217 68.1172V68.7256C49.7217 69.0674 49.7513 69.3545 49.8105 69.5869C49.8698 69.8148 49.9564 70.0016 50.0703 70.1475C50.1888 70.2887 50.3324 70.3913 50.501 70.4551C50.6696 70.5143 50.8656 70.5439 51.0889 70.5439C51.4261 70.5439 51.7292 70.4847 51.998 70.3662C52.2715 70.2432 52.5039 70.0768 52.6953 69.8672L53.4609 71.0293C53.3288 71.2025 53.1465 71.3757 52.9141 71.5488C52.6816 71.722 52.4036 71.8633 52.0801 71.9727C51.7565 72.082 51.3828 72.1367 50.959 72.1367ZM56.5576 66.1826V72H54.6367V64.6035H56.4346L56.5576 66.1826ZM56.2705 68.0488L55.7578 68.0625C55.7487 67.5065 55.8011 67.0075 55.915 66.5654C56.0335 66.1234 56.1999 65.7474 56.4141 65.4375C56.6328 65.123 56.8926 64.8838 57.1934 64.7197C57.4987 64.5511 57.8382 64.4668 58.2119 64.4668C58.499 64.4668 58.7611 64.5169 58.998 64.6172C59.2396 64.7174 59.4469 64.877 59.6201 65.0957C59.7933 65.3145 59.9277 65.6061 60.0234 65.9707C60.1191 66.3307 60.167 66.7728 60.167 67.2969V72H58.2461V67.2832C58.2461 66.9642 58.2142 66.7181 58.1504 66.5449C58.0866 66.3672 57.9909 66.2441 57.8633 66.1758C57.7357 66.1029 57.5762 66.0664 57.3848 66.0664C57.2025 66.0664 57.0407 66.1188 56.8994 66.2236C56.7581 66.3239 56.6396 66.4629 56.5439 66.6406C56.4528 66.8184 56.3822 67.028 56.332 67.2695C56.2865 67.5111 56.266 67.7708 56.2705 68.0488ZM65.1504 70.3662V61.5H67.0713V72L65.335 72.0068L65.1504 70.3662ZM61.3154 68.5615V68.0693C61.3154 67.4678 61.3656 66.9414 61.4658 66.4902C61.5706 66.0391 61.7256 65.6631 61.9307 65.3623C62.1357 65.0615 62.3864 64.8382 62.6826 64.6924C62.9834 64.542 63.3275 64.4668 63.7148 64.4668C64.0658 64.4668 64.3734 64.5557 64.6377 64.7334C64.9066 64.9066 65.1344 65.1504 65.3213 65.4648C65.5081 65.7793 65.6585 66.1507 65.7725 66.5791C65.8864 67.0075 65.9661 67.4769 66.0117 67.9873V68.6982C65.957 69.1813 65.8727 69.6325 65.7588 70.0518C65.6494 70.471 65.499 70.8356 65.3076 71.1455C65.1208 71.4554 64.8952 71.6992 64.6309 71.877C64.3665 72.0501 64.0589 72.1367 63.708 72.1367C63.3206 72.1367 62.9766 72.0592 62.6758 71.9043C62.3796 71.7493 62.1289 71.5215 61.9238 71.2207C61.7233 70.9154 61.5706 70.5417 61.4658 70.0996C61.3656 69.653 61.3154 69.1403 61.3154 68.5615ZM63.2295 68.0693V68.5615C63.2295 68.9079 63.2454 69.2064 63.2773 69.457C63.3138 69.7031 63.3708 69.9059 63.4482 70.0654C63.5303 70.2204 63.6374 70.3366 63.7695 70.4141C63.9017 70.487 64.0658 70.5234 64.2617 70.5234C64.5169 70.5234 64.7243 70.4596 64.8838 70.332C65.0433 70.1999 65.1618 70.0199 65.2393 69.792C65.3213 69.5596 65.3669 69.293 65.376 68.9922V67.7002C65.3669 67.4495 65.3372 67.224 65.2871 67.0234C65.237 66.8229 65.1663 66.652 65.0752 66.5107C64.984 66.3695 64.8701 66.2601 64.7334 66.1826C64.6012 66.1051 64.4463 66.0664 64.2686 66.0664C64.0771 66.0664 63.9131 66.1051 63.7764 66.1826C63.6442 66.2601 63.5394 66.3809 63.4619 66.5449C63.3844 66.7044 63.3252 66.9118 63.2842 67.167C63.2477 67.4176 63.2295 67.7184 63.2295 68.0693ZM71.7949 70.0039C71.7949 69.8763 71.7516 69.7624 71.665 69.6621C71.5785 69.5618 71.4417 69.4593 71.2549 69.3545C71.068 69.2451 70.8197 69.1243 70.5098 68.9922C70.1725 68.8555 69.874 68.7142 69.6143 68.5684C69.3545 68.4225 69.1335 68.2607 68.9512 68.083C68.7734 67.9053 68.639 67.7025 68.5479 67.4746C68.4567 67.2467 68.4111 66.987 68.4111 66.6953C68.4111 66.3809 68.4681 66.0915 68.582 65.8271C68.7005 65.5583 68.8691 65.3236 69.0879 65.123C69.3066 64.918 69.5732 64.7585 69.8877 64.6445C70.2067 64.526 70.5645 64.4668 70.9609 64.4668C71.5169 64.4668 71.9932 64.5648 72.3896 64.7607C72.7907 64.9521 73.0983 65.221 73.3125 65.5674C73.5267 65.9137 73.6338 66.3171 73.6338 66.7773H71.7197C71.7197 66.6133 71.6947 66.4674 71.6445 66.3398C71.5944 66.2077 71.5124 66.1051 71.3984 66.0322C71.2891 65.9593 71.141 65.9229 70.9541 65.9229C70.8174 65.9229 70.6943 65.9525 70.585 66.0117C70.4801 66.071 70.3958 66.1507 70.332 66.251C70.2728 66.3467 70.2432 66.4606 70.2432 66.5928C70.2432 66.693 70.2637 66.7819 70.3047 66.8594C70.3503 66.9368 70.4209 67.012 70.5166 67.085C70.6123 67.1579 70.7399 67.2354 70.8994 67.3174C71.0635 67.3949 71.264 67.4814 71.501 67.5771C71.9932 67.7594 72.3965 67.9554 72.7109 68.165C73.0299 68.3747 73.2669 68.6208 73.4219 68.9033C73.5768 69.1813 73.6543 69.5254 73.6543 69.9355C73.6543 70.2637 73.5905 70.5622 73.4629 70.8311C73.3398 71.0999 73.1598 71.3324 72.9229 71.5283C72.6859 71.7243 72.401 71.8747 72.0684 71.9795C71.7402 72.0843 71.3734 72.1367 70.9678 72.1367C70.3708 72.1367 69.8672 72.0182 69.457 71.7812C69.0469 71.5443 68.737 71.2412 68.5273 70.8721C68.3177 70.4984 68.2129 70.111 68.2129 69.71H70.0312C70.0404 69.9561 70.0859 70.1497 70.168 70.291C70.2546 70.4277 70.3708 70.5234 70.5166 70.5781C70.6624 70.6328 70.8242 70.6602 71.002 70.6602C71.1797 70.6602 71.3255 70.6374 71.4395 70.5918C71.5579 70.5417 71.6468 70.4665 71.7061 70.3662C71.7653 70.2614 71.7949 70.1406 71.7949 70.0039ZM79.9297 70.4072V72H75.2334V70.4072H79.9297ZM79.8818 65.7656L75.9854 72H74.707V70.7969L78.583 64.6035H79.8818V65.7656ZM79.2119 64.6035V66.1963H74.7822V64.6035H79.2119ZM84.4619 70.2979V66.8799C84.4619 66.6566 84.4346 66.4788 84.3799 66.3467C84.3298 66.2145 84.2523 66.1188 84.1475 66.0596C84.0472 65.9958 83.9242 65.9639 83.7783 65.9639C83.6143 65.9639 83.4775 65.998 83.3682 66.0664C83.2588 66.1348 83.1768 66.2327 83.1221 66.3604C83.0719 66.488 83.0469 66.6406 83.0469 66.8184H81.126C81.126 66.4993 81.1875 66.1986 81.3105 65.916C81.4336 65.6289 81.6136 65.3783 81.8506 65.1641C82.0921 64.9453 82.3792 64.7744 82.7119 64.6514C83.0446 64.5283 83.4183 64.4668 83.833 64.4668C84.3252 64.4668 84.7627 64.5511 85.1455 64.7197C85.5283 64.8838 85.8314 65.1458 86.0547 65.5059C86.278 65.8659 86.3896 66.333 86.3896 66.9072V70.2021C86.3896 70.6169 86.4102 70.9541 86.4512 71.2139C86.4967 71.4736 86.5628 71.6969 86.6494 71.8838V72H84.7217C84.6351 71.7949 84.569 71.5397 84.5234 71.2344C84.4824 70.9245 84.4619 70.6123 84.4619 70.2979ZM84.6943 67.4814L84.7012 68.6299H83.9971C83.8148 68.6299 83.6553 68.6595 83.5186 68.7188C83.3864 68.778 83.2747 68.8623 83.1836 68.9717C83.0924 69.0765 83.0241 69.1995 82.9785 69.3408C82.9375 69.4821 82.917 69.6325 82.917 69.792C82.917 69.9697 82.9421 70.1201 82.9922 70.2432C83.0423 70.3662 83.1175 70.4596 83.2178 70.5234C83.318 70.5872 83.4365 70.6191 83.5732 70.6191C83.7829 70.6191 83.9652 70.5758 84.1201 70.4893C84.2751 70.4027 84.389 70.2979 84.4619 70.1748C84.5394 70.0518 84.5645 69.9378 84.5371 69.833L84.9746 70.5781C84.9199 70.7467 84.8447 70.9222 84.749 71.1045C84.6579 71.2868 84.5417 71.4554 84.4004 71.6104C84.2591 71.7653 84.0837 71.8929 83.874 71.9932C83.6689 72.0889 83.4251 72.1367 83.1426 72.1367C82.7461 72.1367 82.3838 72.0456 82.0557 71.8633C81.7275 71.681 81.4678 71.4258 81.2764 71.0977C81.0895 70.7695 80.9961 70.3799 80.9961 69.9287C80.9961 69.555 81.0553 69.2178 81.1738 68.917C81.2969 68.6117 81.4792 68.3542 81.7207 68.1445C81.9622 67.9303 82.2676 67.7663 82.6367 67.6523C83.0059 67.5384 83.4388 67.4814 83.9355 67.4814H84.6943ZM82.8213 63.6123L84.1611 61.5H86.3145L84.4277 63.6123H82.8213ZM89.7324 66.1348V72H87.8115V64.6035H89.6162L89.7324 66.1348ZM89.459 68.0488L88.9326 68.0625C88.9235 67.543 88.9691 67.0645 89.0693 66.627C89.1696 66.1895 89.32 65.8089 89.5205 65.4854C89.7256 65.1618 89.9831 64.9111 90.293 64.7334C90.6029 64.5557 90.9652 64.4668 91.3799 64.4668C91.6488 64.4668 91.8971 64.5169 92.125 64.6172C92.3529 64.7129 92.5511 64.8656 92.7197 65.0752C92.8883 65.2803 93.0182 65.5492 93.1094 65.8818C93.2005 66.21 93.2461 66.6042 93.2461 67.0645V72H91.332V67.2969C91.332 66.9688 91.3001 66.7181 91.2363 66.5449C91.1725 66.3672 91.0814 66.2441 90.9629 66.1758C90.8444 66.1029 90.6986 66.0664 90.5254 66.0664C90.3431 66.0664 90.1836 66.1165 90.0469 66.2168C89.9102 66.3171 89.7985 66.4583 89.7119 66.6406C89.6299 66.8184 89.5661 67.028 89.5205 67.2695C89.4795 67.5111 89.459 67.7708 89.459 68.0488ZM93.0615 67.8574L92.3711 67.9463C92.362 67.4587 92.4053 67.0052 92.501 66.5859C92.5967 66.1621 92.7448 65.793 92.9453 65.4785C93.1458 65.1595 93.3965 64.9111 93.6973 64.7334C94.0026 64.5557 94.3558 64.4668 94.7568 64.4668C95.0576 64.4668 95.3311 64.5169 95.5771 64.6172C95.8232 64.7174 96.0329 64.8792 96.2061 65.1025C96.3838 65.3213 96.5182 65.6107 96.6094 65.9707C96.7051 66.3307 96.7529 66.7682 96.7529 67.2832V72H94.832V67.29C94.832 66.9574 94.8001 66.7021 94.7363 66.5244C94.6725 66.3467 94.5814 66.2259 94.4629 66.1621C94.3444 66.0983 94.2031 66.0664 94.0391 66.0664C93.875 66.0664 93.7314 66.112 93.6084 66.2031C93.4899 66.2943 93.3896 66.4219 93.3076 66.5859C93.2256 66.7454 93.1641 66.9346 93.123 67.1533C93.082 67.3675 93.0615 67.6022 93.0615 67.8574Z" fill="url(#paint0_linear_366_1443)"/>
<path d="M367.364 69.3818C367.364 69.2041 367.348 69.0423 367.316 68.8965C367.285 68.7507 367.216 68.6162 367.111 68.4932C367.011 68.3701 366.863 68.2471 366.667 68.124C366.476 68.001 366.225 67.8734 365.915 67.7412C365.546 67.5863 365.188 67.4222 364.842 67.249C364.495 67.0713 364.183 66.8662 363.905 66.6338C363.627 66.4014 363.406 66.1279 363.242 65.8135C363.083 65.4945 363.003 65.1208 363.003 64.6924C363.003 64.2731 363.078 63.8926 363.229 63.5508C363.383 63.209 363.602 62.9173 363.885 62.6758C364.167 62.4297 364.498 62.2406 364.876 62.1084C365.259 61.9762 365.685 61.9102 366.154 61.9102C366.792 61.9102 367.344 62.0423 367.809 62.3066C368.278 62.571 368.64 62.9333 368.896 63.3936C369.155 63.8538 369.285 64.3825 369.285 64.9795H367.289C367.289 64.6969 367.248 64.4486 367.166 64.2344C367.089 64.0156 366.963 63.8447 366.79 63.7217C366.617 63.5986 366.394 63.5371 366.12 63.5371C365.865 63.5371 365.653 63.5895 365.484 63.6943C365.32 63.7946 365.197 63.9336 365.115 64.1113C365.038 64.2845 364.999 64.4805 364.999 64.6992C364.999 64.8633 365.038 65.0114 365.115 65.1436C365.197 65.2712 365.309 65.3874 365.45 65.4922C365.591 65.5924 365.758 65.6904 365.949 65.7861C366.145 65.8818 366.359 65.9753 366.592 66.0664C367.043 66.2441 367.442 66.4401 367.788 66.6543C368.134 66.8639 368.424 67.1009 368.656 67.3652C368.889 67.625 369.064 67.9189 369.183 68.2471C369.301 68.5752 369.36 68.9489 369.36 69.3682C369.36 69.7829 369.287 70.1611 369.142 70.5029C369 70.8402 368.793 71.1318 368.52 71.3779C368.246 71.6195 367.916 71.8063 367.528 71.9385C367.146 72.0706 366.717 72.1367 366.243 72.1367C365.783 72.1367 365.348 72.0729 364.938 71.9453C364.527 71.8132 364.165 71.6149 363.851 71.3506C363.541 71.0817 363.297 70.7422 363.119 70.332C362.941 69.9173 362.853 69.4274 362.853 68.8623H364.855C364.855 69.1631 364.885 69.4206 364.944 69.6348C365.004 69.8444 365.095 70.013 365.218 70.1406C365.341 70.2637 365.491 70.3571 365.669 70.4209C365.851 70.4801 366.059 70.5098 366.291 70.5098C366.555 70.5098 366.765 70.4596 366.92 70.3594C367.079 70.2591 367.193 70.1247 367.262 69.9561C367.33 69.7874 367.364 69.596 367.364 69.3818ZM375.677 70.4072V72H370.98V70.4072H375.677ZM375.629 65.7656L371.732 72H370.454V70.7969L374.33 64.6035H375.629V65.7656ZM374.959 64.6035V66.1963H370.529V64.6035H374.959ZM380.209 70.2979V66.8799C380.209 66.6566 380.182 66.4788 380.127 66.3467C380.077 66.2145 379.999 66.1188 379.895 66.0596C379.794 65.9958 379.671 65.9639 379.525 65.9639C379.361 65.9639 379.225 65.998 379.115 66.0664C379.006 66.1348 378.924 66.2327 378.869 66.3604C378.819 66.488 378.794 66.6406 378.794 66.8184H376.873C376.873 66.4993 376.935 66.1986 377.058 65.916C377.181 65.6289 377.361 65.3783 377.598 65.1641C377.839 64.9453 378.126 64.7744 378.459 64.6514C378.792 64.5283 379.165 64.4668 379.58 64.4668C380.072 64.4668 380.51 64.5511 380.893 64.7197C381.275 64.8838 381.578 65.1458 381.802 65.5059C382.025 65.8659 382.137 66.333 382.137 66.9072V70.2021C382.137 70.6169 382.157 70.9541 382.198 71.2139C382.244 71.4736 382.31 71.6969 382.396 71.8838V72H380.469C380.382 71.7949 380.316 71.5397 380.271 71.2344C380.229 70.9245 380.209 70.6123 380.209 70.2979ZM380.441 67.4814L380.448 68.6299H379.744C379.562 68.6299 379.402 68.6595 379.266 68.7188C379.133 68.778 379.022 68.8623 378.931 68.9717C378.84 69.0765 378.771 69.1995 378.726 69.3408C378.685 69.4821 378.664 69.6325 378.664 69.792C378.664 69.9697 378.689 70.1201 378.739 70.2432C378.789 70.3662 378.865 70.4596 378.965 70.5234C379.065 70.5872 379.184 70.6191 379.32 70.6191C379.53 70.6191 379.712 70.5758 379.867 70.4893C380.022 70.4027 380.136 70.2979 380.209 70.1748C380.286 70.0518 380.312 69.9378 380.284 69.833L380.722 70.5781C380.667 70.7467 380.592 70.9222 380.496 71.1045C380.405 71.2868 380.289 71.4554 380.147 71.6104C380.006 71.7653 379.831 71.8929 379.621 71.9932C379.416 72.0889 379.172 72.1367 378.89 72.1367C378.493 72.1367 378.131 72.0456 377.803 71.8633C377.475 71.681 377.215 71.4258 377.023 71.0977C376.837 70.7695 376.743 70.3799 376.743 69.9287C376.743 69.555 376.802 69.2178 376.921 68.917C377.044 68.6117 377.226 68.3542 377.468 68.1445C377.709 67.9303 378.015 67.7663 378.384 67.6523C378.753 67.5384 379.186 67.4814 379.683 67.4814H380.441ZM378.568 63.6123L379.908 61.5H382.062L380.175 63.6123H378.568ZM385.479 66.1348V72H383.559V64.6035H385.363L385.479 66.1348ZM385.206 68.0488L384.68 68.0625C384.671 67.543 384.716 67.0645 384.816 66.627C384.917 66.1895 385.067 65.8089 385.268 65.4854C385.473 65.1618 385.73 64.9111 386.04 64.7334C386.35 64.5557 386.712 64.4668 387.127 64.4668C387.396 64.4668 387.644 64.5169 387.872 64.6172C388.1 64.7129 388.298 64.8656 388.467 65.0752C388.635 65.2803 388.765 65.5492 388.856 65.8818C388.948 66.21 388.993 66.6042 388.993 67.0645V72H387.079V67.2969C387.079 66.9688 387.047 66.7181 386.983 66.5449C386.92 66.3672 386.828 66.2441 386.71 66.1758C386.591 66.1029 386.446 66.0664 386.272 66.0664C386.09 66.0664 385.931 66.1165 385.794 66.2168C385.657 66.3171 385.546 66.4583 385.459 66.6406C385.377 66.8184 385.313 67.028 385.268 67.2695C385.227 67.5111 385.206 67.7708 385.206 68.0488ZM388.809 67.8574L388.118 67.9463C388.109 67.4587 388.152 67.0052 388.248 66.5859C388.344 66.1621 388.492 65.793 388.692 65.4785C388.893 65.1595 389.144 64.9111 389.444 64.7334C389.75 64.5557 390.103 64.4668 390.504 64.4668C390.805 64.4668 391.078 64.5169 391.324 64.6172C391.57 64.7174 391.78 64.8792 391.953 65.1025C392.131 65.3213 392.265 65.6107 392.356 65.9707C392.452 66.3307 392.5 66.7682 392.5 67.2832V72H390.579V67.29C390.579 66.9574 390.547 66.7021 390.483 66.5244C390.42 66.3467 390.328 66.2259 390.21 66.1621C390.091 66.0983 389.95 66.0664 389.786 66.0664C389.622 66.0664 389.479 66.112 389.355 66.2031C389.237 66.2943 389.137 66.4219 389.055 66.5859C388.973 66.7454 388.911 66.9346 388.87 67.1533C388.829 67.3675 388.809 67.6022 388.809 67.8574ZM395.952 61.5V72H394.031V61.5H395.952ZM400.73 70.2979V66.8799C400.73 66.6566 400.703 66.4788 400.648 66.3467C400.598 66.2145 400.521 66.1188 400.416 66.0596C400.316 65.9958 400.193 65.9639 400.047 65.9639C399.883 65.9639 399.746 65.998 399.637 66.0664C399.527 66.1348 399.445 66.2327 399.391 66.3604C399.34 66.488 399.315 66.6406 399.315 66.8184H397.395C397.395 66.4993 397.456 66.1986 397.579 65.916C397.702 65.6289 397.882 65.3783 398.119 65.1641C398.361 64.9453 398.648 64.7744 398.98 64.6514C399.313 64.5283 399.687 64.4668 400.102 64.4668C400.594 64.4668 401.031 64.5511 401.414 64.7197C401.797 64.8838 402.1 65.1458 402.323 65.5059C402.547 65.8659 402.658 66.333 402.658 66.9072V70.2021C402.658 70.6169 402.679 70.9541 402.72 71.2139C402.765 71.4736 402.831 71.6969 402.918 71.8838V72H400.99C400.904 71.7949 400.838 71.5397 400.792 71.2344C400.751 70.9245 400.73 70.6123 400.73 70.2979ZM400.963 67.4814L400.97 68.6299H400.266C400.083 68.6299 399.924 68.6595 399.787 68.7188C399.655 68.778 399.543 68.8623 399.452 68.9717C399.361 69.0765 399.293 69.1995 399.247 69.3408C399.206 69.4821 399.186 69.6325 399.186 69.792C399.186 69.9697 399.211 70.1201 399.261 70.2432C399.311 70.3662 399.386 70.4596 399.486 70.5234C399.587 70.5872 399.705 70.6191 399.842 70.6191C400.051 70.6191 400.234 70.5758 400.389 70.4893C400.544 70.4027 400.658 70.2979 400.73 70.1748C400.808 70.0518 400.833 69.9378 400.806 69.833L401.243 70.5781C401.188 70.7467 401.113 70.9222 401.018 71.1045C400.926 71.2868 400.81 71.4554 400.669 71.6104C400.528 71.7653 400.352 71.8929 400.143 71.9932C399.938 72.0889 399.694 72.1367 399.411 72.1367C399.015 72.1367 398.652 72.0456 398.324 71.8633C397.996 71.681 397.736 71.4258 397.545 71.0977C397.358 70.7695 397.265 70.3799 397.265 69.9287C397.265 69.555 397.324 69.2178 397.442 68.917C397.565 68.6117 397.748 68.3542 397.989 68.1445C398.231 67.9303 398.536 67.7663 398.905 67.6523C399.274 67.5384 399.707 67.4814 400.204 67.4814H400.963ZM399.09 63.6123L400.43 61.5H402.583L400.696 63.6123H399.09ZM409.132 70.4072V72H404.436V70.4072H409.132ZM409.084 65.7656L405.188 72H403.909V70.7969L407.785 64.6035H409.084V65.7656ZM408.414 64.6035V66.1963H403.984V64.6035H408.414ZM413.664 70.2979V66.8799C413.664 66.6566 413.637 66.4788 413.582 66.3467C413.532 66.2145 413.454 66.1188 413.35 66.0596C413.249 65.9958 413.126 65.9639 412.98 65.9639C412.816 65.9639 412.68 65.998 412.57 66.0664C412.461 66.1348 412.379 66.2327 412.324 66.3604C412.274 66.488 412.249 66.6406 412.249 66.8184H410.328C410.328 66.4993 410.39 66.1986 410.513 65.916C410.636 65.6289 410.816 65.3783 411.053 65.1641C411.294 64.9453 411.581 64.7744 411.914 64.6514C412.247 64.5283 412.62 64.4668 413.035 64.4668C413.527 64.4668 413.965 64.5511 414.348 64.7197C414.73 64.8838 415.034 65.1458 415.257 65.5059C415.48 65.8659 415.592 66.333 415.592 66.9072V70.2021C415.592 70.6169 415.612 70.9541 415.653 71.2139C415.699 71.4736 415.765 71.6969 415.852 71.8838V72H413.924C413.837 71.7949 413.771 71.5397 413.726 71.2344C413.685 70.9245 413.664 70.6123 413.664 70.2979ZM413.896 67.4814L413.903 68.6299H413.199C413.017 68.6299 412.857 68.6595 412.721 68.7188C412.589 68.778 412.477 68.8623 412.386 68.9717C412.295 69.0765 412.226 69.1995 412.181 69.3408C412.14 69.4821 412.119 69.6325 412.119 69.792C412.119 69.9697 412.144 70.1201 412.194 70.2432C412.244 70.3662 412.32 70.4596 412.42 70.5234C412.52 70.5872 412.639 70.6191 412.775 70.6191C412.985 70.6191 413.167 70.5758 413.322 70.4893C413.477 70.4027 413.591 70.2979 413.664 70.1748C413.742 70.0518 413.767 69.9378 413.739 69.833L414.177 70.5781C414.122 70.7467 414.047 70.9222 413.951 71.1045C413.86 71.2868 413.744 71.4554 413.603 71.6104C413.461 71.7653 413.286 71.8929 413.076 71.9932C412.871 72.0889 412.627 72.1367 412.345 72.1367C411.948 72.1367 411.586 72.0456 411.258 71.8633C410.93 71.681 410.67 71.4258 410.479 71.0977C410.292 70.7695 410.198 70.3799 410.198 69.9287C410.198 69.555 410.257 69.2178 410.376 68.917C410.499 68.6117 410.681 68.3542 410.923 68.1445C411.164 67.9303 411.47 67.7663 411.839 67.6523C412.208 67.5384 412.641 67.4814 413.138 67.4814H413.896ZM412.023 63.6123L413.363 61.5H415.517L413.63 63.6123H412.023ZM420.288 70.0039C420.288 69.8763 420.245 69.7624 420.158 69.6621C420.072 69.5618 419.935 69.4593 419.748 69.3545C419.561 69.2451 419.313 69.1243 419.003 68.9922C418.666 68.8555 418.367 68.7142 418.107 68.5684C417.848 68.4225 417.627 68.2607 417.444 68.083C417.267 67.9053 417.132 67.7025 417.041 67.4746C416.95 67.2467 416.904 66.987 416.904 66.6953C416.904 66.3809 416.961 66.0915 417.075 65.8271C417.194 65.5583 417.362 65.3236 417.581 65.123C417.8 64.918 418.066 64.7585 418.381 64.6445C418.7 64.526 419.058 64.4668 419.454 64.4668C420.01 64.4668 420.486 64.5648 420.883 64.7607C421.284 64.9521 421.591 65.221 421.806 65.5674C422.02 65.9137 422.127 66.3171 422.127 66.7773H420.213C420.213 66.6133 420.188 66.4674 420.138 66.3398C420.088 66.2077 420.006 66.1051 419.892 66.0322C419.782 65.9593 419.634 65.9229 419.447 65.9229C419.311 65.9229 419.188 65.9525 419.078 66.0117C418.973 66.071 418.889 66.1507 418.825 66.251C418.766 66.3467 418.736 66.4606 418.736 66.5928C418.736 66.693 418.757 66.7819 418.798 66.8594C418.843 66.9368 418.914 67.012 419.01 67.085C419.105 67.1579 419.233 67.2354 419.393 67.3174C419.557 67.3949 419.757 67.4814 419.994 67.5771C420.486 67.7594 420.89 67.9554 421.204 68.165C421.523 68.3747 421.76 68.6208 421.915 68.9033C422.07 69.1813 422.147 69.5254 422.147 69.9355C422.147 70.2637 422.084 70.5622 421.956 70.8311C421.833 71.0999 421.653 71.3324 421.416 71.5283C421.179 71.7243 420.894 71.8747 420.562 71.9795C420.233 72.0843 419.867 72.1367 419.461 72.1367C418.864 72.1367 418.36 72.0182 417.95 71.7812C417.54 71.5443 417.23 71.2412 417.021 70.8721C416.811 70.4984 416.706 70.111 416.706 69.71H418.524C418.534 69.9561 418.579 70.1497 418.661 70.291C418.748 70.4277 418.864 70.5234 419.01 70.5781C419.156 70.6328 419.317 70.6602 419.495 70.6602C419.673 70.6602 419.819 70.6374 419.933 70.5918C420.051 70.5417 420.14 70.4665 420.199 70.3662C420.258 70.2614 420.288 70.1406 420.288 70.0039Z" fill="url(#paint1_linear_366_1443)"/>
<path d="M676.312 68.3457V70H671.984V68.3457H676.312ZM672.606 60.0469V70H670.604V60.0469H672.606ZM675.73 64.0801V65.6865H671.984V64.0801H675.73ZM676.298 60.0469V61.708H671.984V60.0469H676.298ZM679.395 59.5V70H677.474V59.5H679.395ZM682.922 59.5V70H681.001V59.5H682.922ZM687.42 70.1367C686.914 70.1367 686.465 70.0592 686.073 69.9043C685.686 69.7493 685.358 69.526 685.089 69.2344C684.82 68.9382 684.615 68.5804 684.474 68.1611C684.332 67.7419 684.262 67.2633 684.262 66.7256V66.1172C684.262 65.5156 684.33 64.9893 684.467 64.5381C684.604 64.0824 684.797 63.6995 685.048 63.3896C685.299 63.0798 685.606 62.8496 685.971 62.6992C686.34 62.5443 686.757 62.4668 687.222 62.4668C687.687 62.4668 688.094 62.5443 688.445 62.6992C688.801 62.8496 689.095 63.0775 689.327 63.3828C689.56 63.6836 689.735 64.0573 689.854 64.5039C689.972 64.9505 690.031 65.4701 690.031 66.0625V66.9375H685.075V65.5908H688.151V65.4199C688.151 65.1191 688.119 64.8685 688.056 64.668C687.992 64.4629 687.892 64.3102 687.755 64.21C687.618 64.1097 687.436 64.0596 687.208 64.0596C687.017 64.0596 686.855 64.0983 686.723 64.1758C686.59 64.2533 686.486 64.374 686.408 64.5381C686.331 64.7021 686.274 64.9163 686.237 65.1807C686.201 65.4404 686.183 65.7526 686.183 66.1172V66.7256C686.183 67.0674 686.212 67.3545 686.271 67.5869C686.331 67.8148 686.417 68.0016 686.531 68.1475C686.65 68.2887 686.793 68.3913 686.962 68.4551C687.131 68.5143 687.326 68.5439 687.55 68.5439C687.887 68.5439 688.19 68.4847 688.459 68.3662C688.732 68.2432 688.965 68.0768 689.156 67.8672L689.922 69.0293C689.79 69.2025 689.607 69.3757 689.375 69.5488C689.143 69.722 688.865 69.8633 688.541 69.9727C688.217 70.082 687.844 70.1367 687.42 70.1367ZM693.019 64.1826V70H691.098V62.6035H692.896L693.019 64.1826ZM692.731 66.0488L692.219 66.0625C692.21 65.5065 692.262 65.0075 692.376 64.5654C692.494 64.1234 692.661 63.7474 692.875 63.4375C693.094 63.123 693.354 62.8838 693.654 62.7197C693.96 62.5511 694.299 62.4668 694.673 62.4668C694.96 62.4668 695.222 62.5169 695.459 62.6172C695.701 62.7174 695.908 62.877 696.081 63.0957C696.254 63.3145 696.389 63.6061 696.484 63.9707C696.58 64.3307 696.628 64.7728 696.628 65.2969V70H694.707V65.2832C694.707 64.9642 694.675 64.7181 694.611 64.5449C694.548 64.3672 694.452 64.2441 694.324 64.1758C694.197 64.1029 694.037 64.0664 693.846 64.0664C693.663 64.0664 693.502 64.1188 693.36 64.2236C693.219 64.3239 693.101 64.4629 693.005 64.6406C692.914 64.8184 692.843 65.028 692.793 65.2695C692.747 65.5111 692.727 65.7708 692.731 66.0488ZM697.811 66.5547V66.0557C697.811 65.4769 697.879 64.9642 698.016 64.5176C698.157 64.071 698.357 63.6973 698.617 63.3965C698.877 63.0911 699.189 62.861 699.554 62.7061C699.923 62.5465 700.335 62.4668 700.791 62.4668C701.251 62.4668 701.664 62.5465 702.028 62.7061C702.397 62.861 702.712 63.0911 702.972 63.3965C703.236 63.6973 703.439 64.071 703.58 64.5176C703.721 64.9642 703.792 65.4769 703.792 66.0557V66.5547C703.792 67.1289 703.721 67.6393 703.58 68.0859C703.439 68.5326 703.236 68.9085 702.972 69.2139C702.712 69.5192 702.4 69.7493 702.035 69.9043C701.671 70.0592 701.26 70.1367 700.805 70.1367C700.349 70.1367 699.937 70.0592 699.567 69.9043C699.203 69.7493 698.888 69.5192 698.624 69.2139C698.36 68.9085 698.157 68.5326 698.016 68.0859C697.879 67.6393 697.811 67.1289 697.811 66.5547ZM699.725 66.0557V66.5547C699.725 66.8965 699.747 67.1927 699.793 67.4434C699.843 67.694 699.914 67.9014 700.005 68.0654C700.101 68.2295 700.215 68.3503 700.347 68.4277C700.479 68.5052 700.632 68.5439 700.805 68.5439C700.978 68.5439 701.133 68.5052 701.27 68.4277C701.406 68.3503 701.518 68.2295 701.604 68.0654C701.696 67.9014 701.762 67.694 701.803 67.4434C701.848 67.1927 701.871 66.8965 701.871 66.5547V66.0557C701.871 65.723 701.846 65.4313 701.796 65.1807C701.746 64.9255 701.675 64.7181 701.584 64.5586C701.493 64.3945 701.379 64.2715 701.242 64.1895C701.11 64.1029 700.96 64.0596 700.791 64.0596C700.622 64.0596 700.472 64.1029 700.34 64.1895C700.212 64.2715 700.101 64.3945 700.005 64.5586C699.914 64.7181 699.843 64.9255 699.793 65.1807C699.747 65.4313 699.725 65.723 699.725 66.0557ZM701.051 61.5645L702.274 59.5068H703.949L702.445 61.5645H701.051ZM698.884 61.5645L699.902 59.5068H701.563L700.258 61.5645H698.884ZM706.916 64.251V70H705.002V62.6035H706.807L706.916 64.251ZM708.659 62.5488L708.632 64.4561C708.545 64.4378 708.44 64.4242 708.317 64.415C708.199 64.4059 708.094 64.4014 708.003 64.4014C707.789 64.4014 707.606 64.4355 707.456 64.5039C707.306 64.5677 707.18 64.6657 707.08 64.7979C706.984 64.9255 706.911 65.085 706.861 65.2764C706.811 65.4678 706.782 65.6842 706.772 65.9258L706.41 65.7891C706.41 65.306 706.447 64.8639 706.52 64.4629C706.597 64.0573 706.711 63.7064 706.861 63.4102C707.012 63.1094 707.192 62.877 707.401 62.7129C707.616 62.5488 707.857 62.4668 708.126 62.4668C708.217 62.4668 708.313 62.4759 708.413 62.4941C708.518 62.5078 708.6 62.526 708.659 62.5488ZM714.695 68.4072V70H709.999V68.4072H714.695ZM714.647 63.7656L710.751 70H709.473V68.7969L713.349 62.6035H714.647V63.7656ZM713.978 62.6035V64.1963H709.548V62.6035H713.978ZM718.838 70.1367C718.332 70.1367 717.883 70.0592 717.491 69.9043C717.104 69.7493 716.776 69.526 716.507 69.2344C716.238 68.9382 716.033 68.5804 715.892 68.1611C715.75 67.7419 715.68 67.2633 715.68 66.7256V66.1172C715.68 65.5156 715.748 64.9893 715.885 64.5381C716.021 64.0824 716.215 63.6995 716.466 63.3896C716.716 63.0798 717.024 62.8496 717.389 62.6992C717.758 62.5443 718.175 62.4668 718.64 62.4668C719.104 62.4668 719.512 62.5443 719.863 62.6992C720.219 62.8496 720.513 63.0775 720.745 63.3828C720.978 63.6836 721.153 64.0573 721.271 64.5039C721.39 64.9505 721.449 65.4701 721.449 66.0625V66.9375H716.493V65.5908H719.569V65.4199C719.569 65.1191 719.537 64.8685 719.474 64.668C719.41 64.4629 719.31 64.3102 719.173 64.21C719.036 64.1097 718.854 64.0596 718.626 64.0596C718.435 64.0596 718.273 64.0983 718.141 64.1758C718.008 64.2533 717.904 64.374 717.826 64.5381C717.749 64.7021 717.692 64.9163 717.655 65.1807C717.619 65.4404 717.601 65.7526 717.601 66.1172V66.7256C717.601 67.0674 717.63 67.3545 717.689 67.5869C717.749 67.8148 717.835 68.0016 717.949 68.1475C718.068 68.2887 718.211 68.3913 718.38 68.4551C718.549 68.5143 718.744 68.5439 718.968 68.5439C719.305 68.5439 719.608 68.4847 719.877 68.3662C720.15 68.2432 720.383 68.0768 720.574 67.8672L721.34 69.0293C721.208 69.2025 721.025 69.3757 720.793 69.5488C720.561 69.722 720.283 69.8633 719.959 69.9727C719.635 70.082 719.262 70.1367 718.838 70.1367ZM717.443 61.6055L718.783 59.4932H720.937L719.05 61.6055H717.443ZM725.838 68.0039C725.838 67.8763 725.795 67.7624 725.708 67.6621C725.621 67.5618 725.485 67.4593 725.298 67.3545C725.111 67.2451 724.863 67.1243 724.553 66.9922C724.215 66.8555 723.917 66.7142 723.657 66.5684C723.397 66.4225 723.176 66.2607 722.994 66.083C722.816 65.9053 722.682 65.7025 722.591 65.4746C722.5 65.2467 722.454 64.987 722.454 64.6953C722.454 64.3809 722.511 64.0915 722.625 63.8271C722.743 63.5583 722.912 63.3236 723.131 63.123C723.35 62.918 723.616 62.7585 723.931 62.6445C724.25 62.526 724.607 62.4668 725.004 62.4668C725.56 62.4668 726.036 62.5648 726.433 62.7607C726.834 62.9521 727.141 63.221 727.355 63.5674C727.57 63.9137 727.677 64.3171 727.677 64.7773H725.763C725.763 64.6133 725.738 64.4674 725.688 64.3398C725.637 64.2077 725.555 64.1051 725.441 64.0322C725.332 63.9593 725.184 63.9229 724.997 63.9229C724.86 63.9229 724.737 63.9525 724.628 64.0117C724.523 64.071 724.439 64.1507 724.375 64.251C724.316 64.3467 724.286 64.4606 724.286 64.5928C724.286 64.693 724.307 64.7819 724.348 64.8594C724.393 64.9368 724.464 65.012 724.56 65.085C724.655 65.1579 724.783 65.2354 724.942 65.3174C725.106 65.3949 725.307 65.4814 725.544 65.5771C726.036 65.7594 726.439 65.9554 726.754 66.165C727.073 66.3747 727.31 66.6208 727.465 66.9033C727.62 67.1813 727.697 67.5254 727.697 67.9355C727.697 68.2637 727.633 68.5622 727.506 68.8311C727.383 69.0999 727.203 69.3324 726.966 69.5283C726.729 69.7243 726.444 69.8747 726.111 69.9795C725.783 70.0843 725.416 70.1367 725.011 70.1367C724.414 70.1367 723.91 70.0182 723.5 69.7812C723.09 69.5443 722.78 69.2412 722.57 68.8721C722.361 68.4984 722.256 68.111 722.256 67.71H724.074C724.083 67.9561 724.129 68.1497 724.211 68.291C724.298 68.4277 724.414 68.5234 724.56 68.5781C724.705 68.6328 724.867 68.6602 725.045 68.6602C725.223 68.6602 725.368 68.6374 725.482 68.5918C725.601 68.5417 725.69 68.4665 725.749 68.3662C725.808 68.2614 725.838 68.1406 725.838 68.0039ZM675.601 90.1367C675.095 90.1367 674.646 90.0592 674.254 89.9043C673.867 89.7493 673.538 89.526 673.27 89.2344C673.001 88.9382 672.796 88.5804 672.654 88.1611C672.513 87.7419 672.442 87.2633 672.442 86.7256V86.1172C672.442 85.5156 672.511 84.9893 672.647 84.5381C672.784 84.0824 672.978 83.6995 673.229 83.3896C673.479 83.0798 673.787 82.8496 674.151 82.6992C674.521 82.5443 674.938 82.4668 675.402 82.4668C675.867 82.4668 676.275 82.5443 676.626 82.6992C676.981 82.8496 677.275 83.0775 677.508 83.3828C677.74 83.6836 677.916 84.0573 678.034 84.5039C678.153 84.9505 678.212 85.4701 678.212 86.0625V86.9375H673.256V85.5908H676.332V85.4199C676.332 85.1191 676.3 84.8685 676.236 84.668C676.173 84.4629 676.072 84.3102 675.936 84.21C675.799 84.1097 675.617 84.0596 675.389 84.0596C675.197 84.0596 675.035 84.0983 674.903 84.1758C674.771 84.2533 674.666 84.374 674.589 84.5381C674.511 84.7021 674.454 84.9163 674.418 85.1807C674.382 85.4404 674.363 85.7526 674.363 86.1172V86.7256C674.363 87.0674 674.393 87.3545 674.452 87.5869C674.511 87.8148 674.598 88.0016 674.712 88.1475C674.83 88.2887 674.974 88.3913 675.143 88.4551C675.311 88.5143 675.507 88.5439 675.73 88.5439C676.068 88.5439 676.371 88.4847 676.64 88.3662C676.913 88.2432 677.146 88.0768 677.337 87.8672L678.103 89.0293C677.97 89.2025 677.788 89.3757 677.556 89.5488C677.323 89.722 677.045 89.8633 676.722 89.9727C676.398 90.082 676.024 90.1367 675.601 90.1367ZM674.206 81.6055L675.546 79.4932H677.699L675.812 81.6055H674.206ZM682.601 88.0039C682.601 87.8763 682.557 87.7624 682.471 87.6621C682.384 87.5618 682.247 87.4593 682.061 87.3545C681.874 87.2451 681.625 87.1243 681.315 86.9922C680.978 86.8555 680.68 86.7142 680.42 86.5684C680.16 86.4225 679.939 86.2607 679.757 86.083C679.579 85.9053 679.445 85.7025 679.354 85.4746C679.262 85.2467 679.217 84.987 679.217 84.6953C679.217 84.3809 679.274 84.0915 679.388 83.8271C679.506 83.5583 679.675 83.3236 679.894 83.123C680.112 82.918 680.379 82.7585 680.693 82.6445C681.012 82.526 681.37 82.4668 681.767 82.4668C682.323 82.4668 682.799 82.5648 683.195 82.7607C683.596 82.9521 683.904 83.221 684.118 83.5674C684.332 83.9137 684.439 84.3171 684.439 84.7773H682.525C682.525 84.6133 682.5 84.4674 682.45 84.3398C682.4 84.2077 682.318 84.1051 682.204 84.0322C682.095 83.9593 681.947 83.9229 681.76 83.9229C681.623 83.9229 681.5 83.9525 681.391 84.0117C681.286 84.071 681.201 84.1507 681.138 84.251C681.078 84.3467 681.049 84.4606 681.049 84.5928C681.049 84.693 681.069 84.7819 681.11 84.8594C681.156 84.9368 681.227 85.012 681.322 85.085C681.418 85.1579 681.546 85.2354 681.705 85.3174C681.869 85.3949 682.07 85.4814 682.307 85.5771C682.799 85.7594 683.202 85.9554 683.517 86.165C683.836 86.3747 684.073 86.6208 684.228 86.9033C684.382 87.1813 684.46 87.5254 684.46 87.9355C684.46 88.2637 684.396 88.5622 684.269 88.8311C684.146 89.0999 683.965 89.3324 683.729 89.5283C683.492 89.7243 683.207 89.8747 682.874 89.9795C682.546 90.0843 682.179 90.1367 681.773 90.1367C681.176 90.1367 680.673 90.0182 680.263 89.7812C679.853 89.5443 679.543 89.2412 679.333 88.8721C679.123 88.4984 679.019 88.111 679.019 87.71H680.837C680.846 87.9561 680.892 88.1497 680.974 88.291C681.06 88.4277 681.176 88.5234 681.322 88.5781C681.468 88.6328 681.63 88.6602 681.808 88.6602C681.985 88.6602 682.131 88.6374 682.245 88.5918C682.364 88.5417 682.452 88.4665 682.512 88.3662C682.571 88.2614 682.601 88.1406 682.601 88.0039ZM691.214 90H689.3V82.2959C689.3 81.6579 689.411 81.1224 689.635 80.6895C689.863 80.252 690.191 79.9215 690.619 79.6982C691.052 79.4704 691.569 79.3564 692.171 79.3564C692.517 79.3564 692.845 79.3952 693.155 79.4727C693.47 79.5456 693.793 79.6413 694.126 79.7598L693.853 81.3867C693.652 81.3138 693.426 81.2454 693.176 81.1816C692.93 81.1133 692.638 81.0791 692.301 81.0791C691.932 81.0791 691.658 81.1816 691.48 81.3867C691.303 81.5918 691.214 81.8949 691.214 82.2959V90ZM692.355 82.6035V84.0459H688.397V82.6035H692.355ZM695.008 82.6035V90H693.087V82.6035H695.008ZM701.591 88.4072V90H696.895V88.4072H701.591ZM701.543 83.7656L697.646 90H696.368V88.7969L700.244 82.6035H701.543V83.7656ZM700.873 82.6035V84.1963H696.443V82.6035H700.873ZM705.733 90.1367C705.228 90.1367 704.779 90.0592 704.387 89.9043C703.999 89.7493 703.671 89.526 703.402 89.2344C703.133 88.9382 702.928 88.5804 702.787 88.1611C702.646 87.7419 702.575 87.2633 702.575 86.7256V86.1172C702.575 85.5156 702.644 84.9893 702.78 84.5381C702.917 84.0824 703.111 83.6995 703.361 83.3896C703.612 83.0798 703.92 82.8496 704.284 82.6992C704.653 82.5443 705.07 82.4668 705.535 82.4668C706 82.4668 706.408 82.5443 706.759 82.6992C707.114 82.8496 707.408 83.0775 707.641 83.3828C707.873 83.6836 708.049 84.0573 708.167 84.5039C708.285 84.9505 708.345 85.4701 708.345 86.0625V86.9375H703.389V85.5908H706.465V85.4199C706.465 85.1191 706.433 84.8685 706.369 84.668C706.305 84.4629 706.205 84.3102 706.068 84.21C705.932 84.1097 705.749 84.0596 705.521 84.0596C705.33 84.0596 705.168 84.0983 705.036 84.1758C704.904 84.2533 704.799 84.374 704.722 84.5381C704.644 84.7021 704.587 84.9163 704.551 85.1807C704.514 85.4404 704.496 85.7526 704.496 86.1172V86.7256C704.496 87.0674 704.526 87.3545 704.585 87.5869C704.644 87.8148 704.731 88.0016 704.845 88.1475C704.963 88.2887 705.107 88.3913 705.275 88.4551C705.444 88.5143 705.64 88.5439 705.863 88.5439C706.201 88.5439 706.504 88.4847 706.772 88.3662C707.046 88.2432 707.278 88.0768 707.47 87.8672L708.235 89.0293C708.103 89.2025 707.921 89.3757 707.688 89.5488C707.456 89.722 707.178 89.8633 706.854 89.9727C706.531 90.082 706.157 90.1367 705.733 90.1367ZM712.679 82.6035V84.0459H708.905V82.6035H712.679ZM709.773 80.7783H711.681V87.7441C711.681 87.9492 711.701 88.1064 711.742 88.2158C711.783 88.3252 711.845 88.4027 711.927 88.4482C712.013 88.4893 712.127 88.5098 712.269 88.5098C712.364 88.5098 712.453 88.5052 712.535 88.4961C712.617 88.4824 712.679 88.4688 712.72 88.4551V89.9521C712.569 90.0114 712.41 90.057 712.241 90.0889C712.077 90.1208 711.881 90.1367 711.653 90.1367C711.271 90.1367 710.938 90.0638 710.655 89.918C710.377 89.7721 710.161 89.5397 710.006 89.2207C709.851 88.8971 709.773 88.4733 709.773 87.9492V80.7783ZM716.726 90.1367C716.22 90.1367 715.771 90.0592 715.379 89.9043C714.992 89.7493 714.663 89.526 714.395 89.2344C714.126 88.9382 713.921 88.5804 713.779 88.1611C713.638 87.7419 713.567 87.2633 713.567 86.7256V86.1172C713.567 85.5156 713.636 84.9893 713.772 84.5381C713.909 84.0824 714.103 83.6995 714.354 83.3896C714.604 83.0798 714.912 82.8496 715.276 82.6992C715.646 82.5443 716.062 82.4668 716.527 82.4668C716.992 82.4668 717.4 82.5443 717.751 82.6992C718.106 82.8496 718.4 83.0775 718.633 83.3828C718.865 83.6836 719.041 84.0573 719.159 84.5039C719.278 84.9505 719.337 85.4701 719.337 86.0625V86.9375H714.381V85.5908H717.457V85.4199C717.457 85.1191 717.425 84.8685 717.361 84.668C717.298 84.4629 717.197 84.3102 717.061 84.21C716.924 84.1097 716.742 84.0596 716.514 84.0596C716.322 84.0596 716.16 84.0983 716.028 84.1758C715.896 84.2533 715.791 84.374 715.714 84.5381C715.636 84.7021 715.579 84.9163 715.543 85.1807C715.507 85.4404 715.488 85.7526 715.488 86.1172V86.7256C715.488 87.0674 715.518 87.3545 715.577 87.5869C715.636 87.8148 715.723 88.0016 715.837 88.1475C715.955 88.2887 716.099 88.3913 716.268 88.4551C716.436 88.5143 716.632 88.5439 716.855 88.5439C717.193 88.5439 717.496 88.4847 717.765 88.3662C718.038 88.2432 718.271 88.0768 718.462 87.8672L719.228 89.0293C719.095 89.2025 718.913 89.3757 718.681 89.5488C718.448 89.722 718.17 89.8633 717.847 89.9727C717.523 90.082 717.149 90.1367 716.726 90.1367ZM715.331 81.6055L716.671 79.4932H718.824L716.938 81.6055H715.331ZM723.726 88.0039C723.726 87.8763 723.682 87.7624 723.596 87.6621C723.509 87.5618 723.372 87.4593 723.186 87.3545C722.999 87.2451 722.75 87.1243 722.44 86.9922C722.103 86.8555 721.805 86.7142 721.545 86.5684C721.285 86.4225 721.064 86.2607 720.882 86.083C720.704 85.9053 720.57 85.7025 720.479 85.4746C720.387 85.2467 720.342 84.987 720.342 84.6953C720.342 84.3809 720.399 84.0915 720.513 83.8271C720.631 83.5583 720.8 83.3236 721.019 83.123C721.237 82.918 721.504 82.7585 721.818 82.6445C722.137 82.526 722.495 82.4668 722.892 82.4668C723.448 82.4668 723.924 82.5648 724.32 82.7607C724.721 82.9521 725.029 83.221 725.243 83.5674C725.457 83.9137 725.564 84.3171 725.564 84.7773H723.65C723.65 84.6133 723.625 84.4674 723.575 84.3398C723.525 84.2077 723.443 84.1051 723.329 84.0322C723.22 83.9593 723.072 83.9229 722.885 83.9229C722.748 83.9229 722.625 83.9525 722.516 84.0117C722.411 84.071 722.326 84.1507 722.263 84.251C722.203 84.3467 722.174 84.4606 722.174 84.5928C722.174 84.693 722.194 84.7819 722.235 84.8594C722.281 84.9368 722.352 85.012 722.447 85.085C722.543 85.1579 722.671 85.2354 722.83 85.3174C722.994 85.3949 723.195 85.4814 723.432 85.5771C723.924 85.7594 724.327 85.9554 724.642 86.165C724.961 86.3747 725.198 86.6208 725.353 86.9033C725.507 87.1813 725.585 87.5254 725.585 87.9355C725.585 88.2637 725.521 88.5622 725.394 88.8311C725.271 89.0999 725.09 89.3324 724.854 89.5283C724.617 89.7243 724.332 89.8747 723.999 89.9795C723.671 90.0843 723.304 90.1367 722.898 90.1367C722.301 90.1367 721.798 90.0182 721.388 89.7812C720.978 89.5443 720.668 89.2412 720.458 88.8721C720.248 88.4984 720.144 88.111 720.144 87.71H721.962C721.971 87.9561 722.017 88.1497 722.099 88.291C722.185 88.4277 722.301 88.5234 722.447 88.5781C722.593 88.6328 722.755 88.6602 722.933 88.6602C723.11 88.6602 723.256 88.6374 723.37 88.5918C723.489 88.5417 723.577 88.4665 723.637 88.3662C723.696 88.2614 723.726 88.1406 723.726 88.0039Z" fill="url(#paint2_linear_366_1443)"/>
<path fill-rule="evenodd" clip-rule="evenodd" d="M376 33H83V31H376V33Z" fill="url(#paint3_linear_366_1443)"/>
<path fill-rule="evenodd" clip-rule="evenodd" d="M685 33H404V31H685V33Z" fill="url(#paint4_linear_366_1443)"/>
<g filter="url(#filter0_d_366_1443)">
<path d="M69 17C60.7125 17 54 23.7125 54 32C54 34.8125 54.7875 37.475 56.175 39.725C57.497 41.9468 59.3748 43.7861 61.6236 45.0617C63.8724 46.3373 66.4146 47.0053 69 47C74.475 47 79.2375 44.075 81.825 39.725C83.2125 37.475 84 34.8125 84 32C84 23.7125 77.2875 17 69 17ZM76.3875 30.7625L68.4 38.15C67.875 38.6375 67.1625 38.9 66.4875 38.9C65.775 38.9 65.0625 38.6375 64.5 38.075L60.7875 34.3625C60.2644 33.8332 59.9711 33.1191 59.9711 32.375C59.9711 31.6309 60.2644 30.9168 60.7875 30.3875C61.875 29.3 63.675 29.3 64.7625 30.3875L66.5625 32.1875L72.5625 26.6375C73.6875 25.5875 75.4875 25.6625 76.5375 26.7875C77.5875 27.9125 77.5125 29.7125 76.3875 30.7625Z" fill="url(#paint5_linear_366_1443)"/>
</g>
<g filter="url(#filter1_d_366_1443)">
<path d="M390 17C381.712 17 375 23.7125 375 32C375 34.8125 375.788 37.475 377.175 39.725C378.497 41.9468 380.375 43.7861 382.624 45.0617C384.872 46.3373 387.415 47.0053 390 47C395.475 47 400.238 44.075 402.825 39.725C404.213 37.475 405 34.8125 405 32C405 23.7125 398.288 17 390 17ZM397.387 30.7625L389.4 38.15C388.875 38.6375 388.162 38.9 387.487 38.9C386.775 38.9 386.062 38.6375 385.5 38.075L381.787 34.3625C381.264 33.8332 380.971 33.1191 380.971 32.375C380.971 31.6309 381.264 30.9168 381.787 30.3875C382.875 29.3 384.675 29.3 385.762 30.3875L387.562 32.1875L393.562 26.6375C394.687 25.5875 396.488 25.6625 397.538 26.7875C398.588 27.9125 398.512 29.7125 397.387 30.7625Z" fill="url(#paint6_linear_366_1443)"/>
</g>
<g filter="url(#filter2_d_366_1443)">
<path d="M697 17C688.712 17 682 23.7125 682 32C682 34.8125 682.788 37.475 684.175 39.725C685.497 41.9468 687.375 43.7861 689.624 45.0617C691.872 46.3373 694.415 47.0053 697 47C702.475 47 707.238 44.075 709.825 39.725C711.213 37.475 712 34.8125 712 32C712 23.7125 705.288 17 697 17ZM704.387 30.7625L696.4 38.15C695.875 38.6375 695.162 38.9 694.487 38.9C693.775 38.9 693.062 38.6375 692.5 38.075L688.787 34.3625C688.264 33.8332 687.971 33.1191 687.971 32.375C687.971 31.6309 688.264 30.9168 688.787 30.3875C689.875 29.3 691.675 29.3 692.762 30.3875L694.562 32.1875L700.562 26.6375C701.687 25.5875 703.488 25.6625 704.538 26.7875C705.588 27.9125 705.512 29.7125 704.387 30.7625Z" fill="url(#paint7_linear_366_1443)"/>
</g>
<defs>
<filter id="filter0_d_366_1443" x="37" y="0" width="74" height="74" filterUnits="userSpaceOnUse" color-interpolation-filters="sRGB">
<feFlood flood-opacity="0" result="BackgroundImageFix"/>
<feColorMatrix in="SourceAlpha" type="matrix" values="0 0 0 0 0 0 0 0 0 0 0 0 0 0 0 0 0 0 127 0" result="hardAlpha"/>
<feOffset dx="5" dy="5"/>
<feGaussianBlur stdDeviation="11"/>
<feComposite in2="hardAlpha" operator="out"/>
<feColorMatrix type="matrix" values="0 0 0 0 0.0392157 0 0 0 0 0.560784 0 0 0 0 0.309804 0 0 0 0.2 0"/>
<feBlend mode="normal" in2="BackgroundImageFix" result="effect1_dropShadow_366_1443"/>
<feBlend mode="normal" in="SourceGraphic" in2="effect1_dropShadow_366_1443" result="shape"/>
</filter>
<filter id="filter1_d_366_1443" x="358" y="0" width="74" height="74" filterUnits="userSpaceOnUse" color-interpolation-filters="sRGB">
<feFlood flood-opacity="0" result="BackgroundImageFix"/>
<feColorMatrix in="SourceAlpha" type="matrix" values="0 0 0 0 0 0 0 0 0 0 0 0 0 0 0 0 0 0 127 0" result="hardAlpha"/>
<feOffset dx="5" dy="5"/>
<feGaussianBlur stdDeviation="11"/>
<feComposite in2="hardAlpha" operator="out"/>
<feColorMatrix type="matrix" values="0 0 0 0 0.0392157 0 0 0 0 0.560784 0 0 0 0 0.309804 0 0 0 0.2 0"/>
<feBlend mode="normal" in2="BackgroundImageFix" result="effect1_dropShadow_366_1443"/>
<feBlend mode="normal" in="SourceGraphic" in2="effect1_dropShadow_366_1443" result="shape"/>
</filter>
<filter id="filter2_d_366_1443" x="665" y="0" width="74" height="74" filterUnits="userSpaceOnUse" color-interpolation-filters="sRGB">
<feFlood flood-opacity="0" result="BackgroundImageFix"/>
<feColorMatrix in="SourceAlpha" type="matrix" values="0 0 0 0 0 0 0 0 0 0 0 0 0 0 0 0 0 0 127 0" result="hardAlpha"/>
<feOffset dx="5" dy="5"/>
<feGaussianBlur stdDeviation="11"/>
<feComposite in2="hardAlpha" operator="out"/>
<feColorMatrix type="matrix" values="0 0 0 0 0.0392157 0 0 0 0 0.560784 0 0 0 0 0.309804 0 0 0 0.2 0"/>
<feBlend mode="normal" in2="BackgroundImageFix" result="effect1_dropShadow_366_1443"/>
<feBlend mode="normal" in="SourceGraphic" in2="effect1_dropShadow_366_1443" result="shape"/>
</filter>
<linearGradient id="paint0_linear_366_1443" x1="68.5" y1="77" x2="68.5" y2="57" gradientUnits="userSpaceOnUse">
<stop stop-color="#5CCC94"/>
<stop offset="1" stop-color="#8CCAAE"/>
</linearGradient>
<linearGradient id="paint1_linear_366_1443" x1="392.5" y1="77" x2="392.5" y2="57" gradientUnits="userSpaceOnUse">
<stop stop-color="#5CCC94"/>
<stop offset="1" stop-color="#8CCAAE"/>
</linearGradient>
<linearGradient id="paint2_linear_366_1443" x1="699" y1="95" x2="699" y2="55" gradientUnits="userSpaceOnUse">
<stop stop-color="#5CCC94"/>
<stop offset="1" stop-color="#8CCAAE"/>
</linearGradient>
<linearGradient id="paint3_linear_366_1443" x1="229.5" y1="33" x2="229.5" y2="31" gradientUnits="userSpaceOnUse">
<stop stop-color="#5CCC94"/>
<stop offset="1" stop-color="#8CCAAE"/>
</linearGradient>
<linearGradient id="paint4_linear_366_1443" x1="544.5" y1="33" x2="544.5" y2="31" gradientUnits="userSpaceOnUse">
<stop stop-color="#5CCC94"/>
<stop offset="1" stop-color="#8CCAAE"/>
</linearGradient>
<linearGradient id="paint5_linear_366_1443" x1="69" y1="47" x2="69" y2="17" gradientUnits="userSpaceOnUse">
<stop stop-color="#5CCC94"/>
<stop offset="1" stop-color="#8CCAAE"/>
</linearGradient>
<linearGradient id="paint6_linear_366_1443" x1="390" y1="47" x2="390" y2="17" gradientUnits="userSpaceOnUse">
<stop stop-color="#5CCC94"/>
<stop offset="1" stop-color="#8CCAAE"/>
</linearGradient>
<linearGradient id="paint7_linear_366_1443" x1="697" y1="47" x2="697" y2="17" gradientUnits="userSpaceOnUse">
<stop stop-color="#5CCC94"/>
<stop offset="1" stop-color="#8CCAAE"/>
</linearGradient>
</defs>
</svg>
