<svg width="1013" height="86" viewBox="0 0 1013 86" fill="none" xmlns="http://www.w3.org/2000/svg">
<path d="M14.0625 59.0469L15.9424 66.2451L17.8154 59.0469H20.4404V69H18.4238V66.3066L18.6084 62.1572L16.6191 69H15.252L13.2627 62.1572L13.4473 66.3066V69H11.4375V59.0469H14.0625ZM25.4785 69C25.4238 68.8861 25.3691 68.6947 25.3145 68.4258C24.9681 68.8997 24.4987 69.1367 23.9062 69.1367C23.2865 69.1367 22.7715 68.9316 22.3613 68.5215C21.9557 68.1113 21.7529 67.5804 21.7529 66.9287C21.7529 66.154 21.999 65.5547 22.4912 65.1309C22.988 64.707 23.7012 64.4906 24.6309 64.4814H25.2188V63.8867C25.2188 63.554 25.1618 63.3193 25.0479 63.1826C24.9339 63.0459 24.7676 62.9775 24.5488 62.9775C24.0658 62.9775 23.8242 63.2601 23.8242 63.8252H21.8896C21.8896 63.1416 22.1449 62.5788 22.6553 62.1367C23.1702 61.6901 23.8197 61.4668 24.6035 61.4668C25.4147 61.4668 26.0413 61.6787 26.4834 62.1025C26.93 62.5218 27.1533 63.1234 27.1533 63.9072V67.3867C27.1624 68.0247 27.2536 68.5238 27.4268 68.8838V69H25.4785ZM24.3369 67.6191C24.5511 67.6191 24.7334 67.5758 24.8838 67.4893C25.0342 67.4027 25.1458 67.3001 25.2188 67.1816V65.6436H24.7539C24.4258 65.6436 24.166 65.7484 23.9746 65.958C23.7878 66.1676 23.6943 66.4479 23.6943 66.7988C23.6943 67.3457 23.9085 67.6191 24.3369 67.6191ZM30.8037 59.7852V61.6035H31.7949V63.0596H30.8037V66.7305C30.8037 67.0221 30.8424 67.2227 30.9199 67.332C31.002 67.4414 31.1569 67.4961 31.3848 67.4961C31.5716 67.4961 31.7243 67.4801 31.8428 67.4482L31.8291 68.9521C31.501 69.0752 31.1455 69.1367 30.7627 69.1367C29.514 69.1367 28.8828 68.4212 28.8691 66.9902V63.0596H28.0146V61.6035H28.8691V59.7852H30.8037ZM36.5117 63.4697L35.8691 63.415C35.3405 63.415 34.9827 63.6475 34.7959 64.1123V69H32.8545V61.6035H34.6797L34.7344 62.4033C35.0397 61.779 35.4613 61.4668 35.999 61.4668C36.2178 61.4668 36.3955 61.4964 36.5322 61.5557L36.5117 63.4697ZM39.54 69H37.5986V61.6035H39.54V69ZM37.5098 59.6895C37.5098 59.3887 37.6055 59.1426 37.7969 58.9512C37.9883 58.7598 38.2435 58.6641 38.5625 58.6641C38.8815 58.6641 39.1367 58.7598 39.3281 58.9512C39.5195 59.1426 39.6152 59.3887 39.6152 59.6895C39.6152 59.9857 39.5195 60.2318 39.3281 60.4277C39.1413 60.6237 38.8861 60.7217 38.5625 60.7217C38.2389 60.7217 37.9814 60.6237 37.79 60.4277C37.6032 60.2318 37.5098 59.9857 37.5098 59.6895ZM43.71 67.5303C44.2705 67.5303 44.5553 67.1657 44.5645 66.4365H46.3828C46.3737 67.2432 46.1253 67.8949 45.6377 68.3916C45.1501 68.8883 44.5212 69.1367 43.751 69.1367C42.7985 69.1367 42.0716 68.8405 41.5703 68.248C41.069 67.6556 40.8138 66.7829 40.8047 65.6299V65.042C40.8047 63.8799 41.0508 62.9935 41.543 62.3828C42.0397 61.7721 42.7712 61.4668 43.7373 61.4668C44.5531 61.4668 45.1956 61.7197 45.665 62.2256C46.1344 62.7269 46.3737 63.4401 46.3828 64.3652H44.5645C44.5599 63.9505 44.4915 63.6315 44.3594 63.4082C44.2272 63.1849 44.0085 63.0732 43.7031 63.0732C43.3659 63.0732 43.1243 63.194 42.9785 63.4355C42.8327 63.6725 42.7552 64.1351 42.7461 64.8232V65.5752C42.7461 66.1768 42.7757 66.5983 42.835 66.8398C42.8942 67.0768 42.9922 67.2523 43.1289 67.3662C43.2656 67.4756 43.4593 67.5303 43.71 67.5303ZM50.9902 69C50.9355 68.8861 50.8809 68.6947 50.8262 68.4258C50.4798 68.8997 50.0104 69.1367 49.418 69.1367C48.7982 69.1367 48.2832 68.9316 47.873 68.5215C47.4674 68.1113 47.2646 67.5804 47.2646 66.9287C47.2646 66.154 47.5107 65.5547 48.0029 65.1309C48.4997 64.707 49.2129 64.4906 50.1426 64.4814H50.7305V63.8867C50.7305 63.554 50.6735 63.3193 50.5596 63.1826C50.4456 63.0459 50.2793 62.9775 50.0605 62.9775C49.5775 62.9775 49.3359 63.2601 49.3359 63.8252H47.4014C47.4014 63.1416 47.6566 62.5788 48.167 62.1367C48.682 61.6901 49.3314 61.4668 50.1152 61.4668C50.9264 61.4668 51.5531 61.6787 51.9951 62.1025C52.4417 62.5218 52.665 63.1234 52.665 63.9072V67.3867C52.6742 68.0247 52.7653 68.5238 52.9385 68.8838V69H50.9902ZM49.8486 67.6191C50.0628 67.6191 50.2451 67.5758 50.3955 67.4893C50.5459 67.4027 50.6576 67.3001 50.7305 67.1816V65.6436H50.2656C49.9375 65.6436 49.6777 65.7484 49.4863 65.958C49.2995 66.1676 49.2061 66.4479 49.2061 66.7988C49.2061 67.3457 49.4202 67.6191 49.8486 67.6191ZM17.5762 73.7852V75.6035H18.5674V77.0596H17.5762V80.7305C17.5762 81.0221 17.6149 81.2227 17.6924 81.332C17.7744 81.4414 17.9294 81.4961 18.1572 81.4961C18.3441 81.4961 18.4967 81.4801 18.6152 81.4482L18.6016 82.9521C18.2734 83.0752 17.918 83.1367 17.5352 83.1367C16.2865 83.1367 15.6553 82.4212 15.6416 80.9902V77.0596H14.7871V75.6035H15.6416V73.7852H17.5762ZM21.7119 83H19.7773V75.6035H21.7119V83ZM21.1514 72.6025H23.3252L21.4248 74.7217H19.8115L21.1514 72.6025ZM29.0742 79.5342C29.0742 80.6963 28.8737 81.5872 28.4727 82.207C28.0762 82.8268 27.4837 83.1367 26.6953 83.1367C26.0938 83.1367 25.6107 82.8929 25.2461 82.4053V85.8438H23.3115V75.6035H25.1025L25.1709 76.2803C25.54 75.738 26.0436 75.4668 26.6816 75.4668C27.4701 75.4668 28.0625 75.7539 28.459 76.3281C28.86 76.9023 29.0651 77.7819 29.0742 78.9668V79.5342ZM27.1465 79.0488C27.1465 78.3333 27.0667 77.8275 26.9072 77.5312C26.7523 77.235 26.488 77.0869 26.1143 77.0869C25.7178 77.0869 25.4284 77.2533 25.2461 77.5859V81.0518C25.4193 81.3708 25.7132 81.5303 26.1279 81.5303C26.5107 81.5303 26.7751 81.3685 26.9209 81.0449C27.0713 80.7214 27.1465 80.2178 27.1465 79.5342V79.0488ZM33.8799 82.3232C33.4788 82.8656 32.9411 83.1367 32.2666 83.1367C31.5876 83.1367 31.0726 82.9043 30.7217 82.4395C30.3708 81.9701 30.1953 81.2887 30.1953 80.3955V75.6035H32.1299V80.4434C32.139 81.1634 32.3783 81.5234 32.8477 81.5234C33.2897 81.5234 33.6087 81.332 33.8047 80.9492V75.6035H35.7529V83H33.9346L33.8799 82.3232ZM40.4082 81.0176C40.4082 80.8535 40.3285 80.7031 40.1689 80.5664C40.014 80.4251 39.6654 80.236 39.123 79.999C38.3255 79.6755 37.7764 79.3405 37.4756 78.9941C37.1794 78.6478 37.0312 78.2171 37.0312 77.7021C37.0312 77.055 37.2637 76.5218 37.7285 76.1025C38.1979 75.6787 38.8177 75.4668 39.5879 75.4668C40.3991 75.4668 41.0485 75.6764 41.5361 76.0957C42.0238 76.515 42.2676 77.0778 42.2676 77.7842H40.333C40.333 77.1826 40.0824 76.8818 39.5811 76.8818C39.376 76.8818 39.2074 76.9456 39.0752 77.0732C38.943 77.2008 38.877 77.3786 38.877 77.6064C38.877 77.7705 38.9499 77.9163 39.0957 78.0439C39.2415 78.167 39.5856 78.3447 40.1279 78.5771C40.9163 78.8688 41.4723 79.1947 41.7959 79.5547C42.124 79.9102 42.2881 80.3727 42.2881 80.9424C42.2881 81.6032 42.0397 82.1341 41.543 82.5352C41.0462 82.9362 40.3945 83.1367 39.5879 83.1367C39.0456 83.1367 38.5671 83.0319 38.1523 82.8223C37.7376 82.6081 37.4118 82.3118 37.1748 81.9336C36.9424 81.5553 36.8262 81.1475 36.8262 80.71H38.665C38.6742 81.0472 38.7516 81.3001 38.8975 81.4688C39.0479 81.6374 39.2917 81.7217 39.6289 81.7217C40.1484 81.7217 40.4082 81.487 40.4082 81.0176ZM47.0049 83C46.9502 82.8861 46.8955 82.6947 46.8408 82.4258C46.4945 82.8997 46.0251 83.1367 45.4326 83.1367C44.8128 83.1367 44.2979 82.9316 43.8877 82.5215C43.4821 82.1113 43.2793 81.5804 43.2793 80.9287C43.2793 80.154 43.5254 79.5547 44.0176 79.1309C44.5143 78.707 45.2275 78.4906 46.1572 78.4814H46.7451V77.8867C46.7451 77.554 46.6882 77.3193 46.5742 77.1826C46.4603 77.0459 46.2939 76.9775 46.0752 76.9775C45.5921 76.9775 45.3506 77.2601 45.3506 77.8252H43.416C43.416 77.1416 43.6712 76.5788 44.1816 76.1367C44.6966 75.6901 45.346 75.4668 46.1299 75.4668C46.9411 75.4668 47.5677 75.6787 48.0098 76.1025C48.4564 76.5218 48.6797 77.1234 48.6797 77.9072V81.3867C48.6888 82.0247 48.7799 82.5238 48.9531 82.8838V83H47.0049ZM45.8633 81.6191C46.0775 81.6191 46.2598 81.5758 46.4102 81.4893C46.5605 81.4027 46.6722 81.3001 46.7451 81.1816V79.6436H46.2803C45.9521 79.6436 45.6924 79.7484 45.501 79.958C45.3141 80.1676 45.2207 80.4479 45.2207 80.7988C45.2207 81.3457 45.4349 81.6191 45.8633 81.6191Z" fill="url(#paint0_linear_1252_3844)"/>
<path d="M323.83 68.3633H322.832V72H320.822V62.0469H324.028C325.035 62.0469 325.812 62.3089 326.359 62.833C326.911 63.3525 327.187 64.0931 327.187 65.0547C327.187 66.3763 326.706 67.3014 325.744 67.8301L327.487 71.9043V72H325.327L323.83 68.3633ZM322.832 66.6885H323.974C324.375 66.6885 324.675 66.5563 324.876 66.292C325.076 66.0231 325.177 65.6654 325.177 65.2188C325.177 64.2207 324.787 63.7217 324.008 63.7217H322.832V66.6885ZM331.459 72.1367C330.465 72.1367 329.691 71.8405 329.135 71.248C328.579 70.6556 328.301 69.8079 328.301 68.7051V68.1172C328.301 66.9505 328.556 66.0505 329.066 65.417C329.577 64.7835 330.308 64.4668 331.261 64.4668C332.19 64.4668 332.89 64.7653 333.359 65.3623C333.829 65.9548 334.068 66.8343 334.077 68.001V68.9512H330.229C330.256 69.498 330.377 69.8991 330.591 70.1543C330.805 70.4049 331.135 70.5303 331.582 70.5303C332.229 70.5303 332.769 70.3092 333.202 69.8672L333.961 71.0361C333.724 71.3643 333.38 71.6309 332.929 71.8359C332.478 72.0365 331.988 72.1367 331.459 72.1367ZM330.242 67.5977H332.177V67.4199C332.168 66.9779 332.095 66.6429 331.958 66.415C331.821 66.1872 331.584 66.0732 331.247 66.0732C330.91 66.0732 330.664 66.194 330.509 66.4355C330.358 66.6771 330.27 67.0645 330.242 67.5977ZM336.941 64.6035L336.996 65.335C337.434 64.7562 338.006 64.4668 338.712 64.4668C339.983 64.4668 340.637 65.3577 340.674 67.1396V72H338.732V67.2832C338.732 66.8639 338.669 66.5609 338.541 66.374C338.418 66.1826 338.199 66.0869 337.885 66.0869C337.534 66.0869 337.26 66.2669 337.064 66.627V72H335.123V64.6035H336.941ZM341.802 68.0762C341.802 66.8639 342.007 65.9593 342.417 65.3623C342.827 64.7653 343.424 64.4668 344.208 64.4668C344.778 64.4668 345.252 64.7129 345.63 65.2051V61.5H347.578V72H345.821L345.732 71.248C345.336 71.8405 344.826 72.1367 344.201 72.1367C343.426 72.1367 342.834 71.8405 342.424 71.248C342.018 70.6556 341.811 69.7852 341.802 68.6367V68.0762ZM343.743 68.5615C343.743 69.2907 343.821 69.8011 343.976 70.0928C344.131 70.3799 344.393 70.5234 344.762 70.5234C345.145 70.5234 345.434 70.3525 345.63 70.0107V66.6338C345.438 66.2692 345.151 66.0869 344.769 66.0869C344.413 66.0869 344.153 66.2305 343.989 66.5176C343.825 66.8047 343.743 67.3151 343.743 68.0488V68.5615ZM352.281 70.0176C352.281 69.8535 352.201 69.7031 352.042 69.5664C351.887 69.4251 351.538 69.236 350.996 68.999C350.199 68.6755 349.649 68.3405 349.349 67.9941C349.052 67.6478 348.904 67.2171 348.904 66.7021C348.904 66.055 349.137 65.5218 349.602 65.1025C350.071 64.6787 350.691 64.4668 351.461 64.4668C352.272 64.4668 352.922 64.6764 353.409 65.0957C353.897 65.515 354.141 66.0778 354.141 66.7842H352.206C352.206 66.1826 351.955 65.8818 351.454 65.8818C351.249 65.8818 351.08 65.9456 350.948 66.0732C350.816 66.2008 350.75 66.3786 350.75 66.6064C350.75 66.7705 350.823 66.9163 350.969 67.0439C351.115 67.167 351.459 67.3447 352.001 67.5771C352.789 67.8688 353.345 68.1947 353.669 68.5547C353.997 68.9102 354.161 69.3727 354.161 69.9424C354.161 70.6032 353.913 71.1341 353.416 71.5352C352.919 71.9362 352.268 72.1367 351.461 72.1367C350.919 72.1367 350.44 72.0319 350.025 71.8223C349.611 71.6081 349.285 71.3118 349.048 70.9336C348.815 70.5553 348.699 70.1475 348.699 69.71H350.538C350.547 70.0472 350.625 70.3001 350.771 70.4688C350.921 70.6374 351.165 70.7217 351.502 70.7217C352.021 70.7217 352.281 70.487 352.281 70.0176ZM357.504 70.3936H360.43V72H355.207V70.79L358.064 66.2168H355.275V64.6035H360.389V65.7725L357.504 70.3936ZM365.222 72C365.167 71.8861 365.112 71.6947 365.058 71.4258C364.711 71.8997 364.242 72.1367 363.649 72.1367C363.03 72.1367 362.515 71.9316 362.104 71.5215C361.699 71.1113 361.496 70.5804 361.496 69.9287C361.496 69.154 361.742 68.5547 362.234 68.1309C362.731 67.707 363.444 67.4906 364.374 67.4814H364.962V66.8867C364.962 66.554 364.905 66.3193 364.791 66.1826C364.677 66.0459 364.511 65.9775 364.292 65.9775C363.809 65.9775 363.567 66.2601 363.567 66.8252H361.633C361.633 66.1416 361.888 65.5788 362.398 65.1367C362.913 64.6901 363.563 64.4668 364.347 64.4668C365.158 64.4668 365.785 64.6787 366.227 65.1025C366.673 65.5218 366.896 66.1234 366.896 66.9072V70.3867C366.906 71.0247 366.997 71.5238 367.17 71.8838V72H365.222ZM364.08 70.6191C364.294 70.6191 364.477 70.5758 364.627 70.4893C364.777 70.4027 364.889 70.3001 364.962 70.1816V68.6436H364.497C364.169 68.6436 363.909 68.7484 363.718 68.958C363.531 69.1676 363.438 69.4479 363.438 69.7988C363.438 70.3457 363.652 70.6191 364.08 70.6191ZM364.661 61.5H366.835L364.935 63.6191H363.321L364.661 61.5ZM370.116 64.6035L370.171 65.2871C370.604 64.7402 371.176 64.4668 371.887 64.4668C372.625 64.4668 373.147 64.7995 373.452 65.4648C373.876 64.7995 374.48 64.4668 375.264 64.4668C376.558 64.4668 377.221 65.3623 377.253 67.1533V72H375.318V67.2764C375.318 66.848 375.259 66.5426 375.141 66.3604C375.022 66.1781 374.822 66.0869 374.539 66.0869C374.179 66.0869 373.91 66.3079 373.732 66.75L373.746 66.9824V72H371.812V67.29C371.812 66.8662 371.755 66.5609 371.641 66.374C371.527 66.1826 371.324 66.0869 371.032 66.0869C370.7 66.0869 370.435 66.2669 370.239 66.627V72H368.305V64.6035H370.116Z" fill="url(#paint1_linear_1252_3844)"/>
<path d="M645.357 69.3887C645.357 68.9831 645.253 68.6777 645.043 68.4727C644.838 68.263 644.462 68.0465 643.915 67.8232C642.917 67.445 642.199 67.0029 641.762 66.4971C641.324 65.9867 641.105 65.3851 641.105 64.6924C641.105 63.8538 641.402 63.1816 641.994 62.6758C642.591 62.1654 643.348 61.9102 644.264 61.9102C644.874 61.9102 645.419 62.04 645.897 62.2998C646.376 62.555 646.743 62.9173 646.998 63.3867C647.258 63.8561 647.388 64.3893 647.388 64.9863H645.385C645.385 64.5215 645.285 64.1683 645.084 63.9268C644.888 63.6807 644.603 63.5576 644.229 63.5576C643.879 63.5576 643.605 63.6624 643.409 63.8721C643.213 64.0771 643.115 64.3551 643.115 64.7061C643.115 64.9795 643.225 65.2279 643.443 65.4512C643.662 65.6699 644.049 65.8978 644.605 66.1348C645.576 66.4857 646.28 66.9163 646.718 67.4268C647.16 67.9372 647.381 68.5866 647.381 69.375C647.381 70.2409 647.105 70.9176 646.554 71.4053C646.002 71.8929 645.253 72.1367 644.305 72.1367C643.662 72.1367 643.076 72.0046 642.548 71.7402C642.019 71.4759 641.604 71.0977 641.304 70.6055C641.007 70.1133 640.859 69.5322 640.859 68.8623H642.876C642.876 69.4365 642.988 69.8535 643.211 70.1133C643.434 70.373 643.799 70.5029 644.305 70.5029C645.007 70.5029 645.357 70.1315 645.357 69.3887ZM650.758 70.3936H653.684V72H648.461V70.79L651.318 66.2168H648.529V64.6035H653.643V65.7725L650.758 70.3936ZM658.476 72C658.421 71.8861 658.366 71.6947 658.312 71.4258C657.965 71.8997 657.496 72.1367 656.903 72.1367C656.284 72.1367 655.769 71.9316 655.358 71.5215C654.953 71.1113 654.75 70.5804 654.75 69.9287C654.75 69.154 654.996 68.5547 655.488 68.1309C655.985 67.707 656.698 67.4906 657.628 67.4814H658.216V66.8867C658.216 66.554 658.159 66.3193 658.045 66.1826C657.931 66.0459 657.765 65.9775 657.546 65.9775C657.063 65.9775 656.821 66.2601 656.821 66.8252H654.887C654.887 66.1416 655.142 65.5788 655.652 65.1367C656.167 64.6901 656.817 64.4668 657.601 64.4668C658.412 64.4668 659.038 64.6787 659.48 65.1025C659.927 65.5218 660.15 66.1234 660.15 66.9072V70.3867C660.16 71.0247 660.251 71.5238 660.424 71.8838V72H658.476ZM657.334 70.6191C657.548 70.6191 657.73 70.5758 657.881 70.4893C658.031 70.4027 658.143 70.3001 658.216 70.1816V68.6436H657.751C657.423 68.6436 657.163 68.7484 656.972 68.958C656.785 69.1676 656.691 69.4479 656.691 69.7988C656.691 70.3457 656.906 70.6191 657.334 70.6191ZM657.915 61.5H660.089L658.188 63.6191H656.575L657.915 61.5ZM663.37 64.6035L663.425 65.2871C663.858 64.7402 664.43 64.4668 665.141 64.4668C665.879 64.4668 666.401 64.7995 666.706 65.4648C667.13 64.7995 667.734 64.4668 668.518 64.4668C669.812 64.4668 670.475 65.3623 670.507 67.1533V72H668.572V67.2764C668.572 66.848 668.513 66.5426 668.395 66.3604C668.276 66.1781 668.076 66.0869 667.793 66.0869C667.433 66.0869 667.164 66.3079 666.986 66.75L667 66.9824V72H665.065V67.29C665.065 66.8662 665.008 66.5609 664.895 66.374C664.781 66.1826 664.578 66.0869 664.286 66.0869C663.953 66.0869 663.689 66.2669 663.493 66.627V72H661.559V64.6035H663.37ZM673.973 72H672.031V61.5H673.973V72ZM678.983 72C678.929 71.8861 678.874 71.6947 678.819 71.4258C678.473 71.8997 678.004 72.1367 677.411 72.1367C676.791 72.1367 676.276 71.9316 675.866 71.5215C675.461 71.1113 675.258 70.5804 675.258 69.9287C675.258 69.154 675.504 68.5547 675.996 68.1309C676.493 67.707 677.206 67.4906 678.136 67.4814H678.724V66.8867C678.724 66.554 678.667 66.3193 678.553 66.1826C678.439 66.0459 678.272 65.9775 678.054 65.9775C677.571 65.9775 677.329 66.2601 677.329 66.8252H675.395C675.395 66.1416 675.65 65.5788 676.16 65.1367C676.675 64.6901 677.325 64.4668 678.108 64.4668C678.92 64.4668 679.546 64.6787 679.988 65.1025C680.435 65.5218 680.658 66.1234 680.658 66.9072V70.3867C680.667 71.0247 680.758 71.5238 680.932 71.8838V72H678.983ZM677.842 70.6191C678.056 70.6191 678.238 70.5758 678.389 70.4893C678.539 70.4027 678.651 70.3001 678.724 70.1816V68.6436H678.259C677.931 68.6436 677.671 68.7484 677.479 68.958C677.293 69.1676 677.199 69.4479 677.199 69.7988C677.199 70.3457 677.413 70.6191 677.842 70.6191ZM678.423 61.5H680.597L678.696 63.6191H677.083L678.423 61.5ZM684.199 70.3936H687.125V72H681.902V70.79L684.76 66.2168H681.971V64.6035H687.084V65.7725L684.199 70.3936ZM691.917 72C691.862 71.8861 691.808 71.6947 691.753 71.4258C691.407 71.8997 690.937 72.1367 690.345 72.1367C689.725 72.1367 689.21 71.9316 688.8 71.5215C688.394 71.1113 688.191 70.5804 688.191 69.9287C688.191 69.154 688.438 68.5547 688.93 68.1309C689.426 67.707 690.14 67.4906 691.069 67.4814H691.657V66.8867C691.657 66.554 691.6 66.3193 691.486 66.1826C691.372 66.0459 691.206 65.9775 690.987 65.9775C690.504 65.9775 690.263 66.2601 690.263 66.8252H688.328C688.328 66.1416 688.583 65.5788 689.094 65.1367C689.609 64.6901 690.258 64.4668 691.042 64.4668C691.853 64.4668 692.48 64.6787 692.922 65.1025C693.368 65.5218 693.592 66.1234 693.592 66.9072V70.3867C693.601 71.0247 693.692 71.5238 693.865 71.8838V72H691.917ZM690.775 70.6191C690.99 70.6191 691.172 70.5758 691.322 70.4893C691.473 70.4027 691.584 70.3001 691.657 70.1816V68.6436H691.192C690.864 68.6436 690.604 68.7484 690.413 68.958C690.226 69.1676 690.133 69.4479 690.133 69.7988C690.133 70.3457 690.347 70.6191 690.775 70.6191ZM691.356 61.5H693.53L691.63 63.6191H690.017L691.356 61.5ZM698.268 70.0176C698.268 69.8535 698.188 69.7031 698.028 69.5664C697.873 69.4251 697.525 69.236 696.982 68.999C696.185 68.6755 695.636 68.3405 695.335 67.9941C695.039 67.6478 694.891 67.2171 694.891 66.7021C694.891 66.055 695.123 65.5218 695.588 65.1025C696.057 64.6787 696.677 64.4668 697.447 64.4668C698.258 64.4668 698.908 64.6764 699.396 65.0957C699.883 65.515 700.127 66.0778 700.127 66.7842H698.192C698.192 66.1826 697.942 65.8818 697.44 65.8818C697.235 65.8818 697.067 65.9456 696.935 66.0732C696.802 66.2008 696.736 66.3786 696.736 66.6064C696.736 66.7705 696.809 66.9163 696.955 67.0439C697.101 67.167 697.445 67.3447 697.987 67.5771C698.776 67.8688 699.332 68.1947 699.655 68.5547C699.983 68.9102 700.147 69.3727 700.147 69.9424C700.147 70.6032 699.899 71.1341 699.402 71.5352C698.906 71.9362 698.254 72.1367 697.447 72.1367C696.905 72.1367 696.426 72.0319 696.012 71.8223C695.597 71.6081 695.271 71.3118 695.034 70.9336C694.802 70.5553 694.686 70.1475 694.686 69.71H696.524C696.534 70.0472 696.611 70.3001 696.757 70.4688C696.907 70.6374 697.151 70.7217 697.488 70.7217C698.008 70.7217 698.268 70.487 698.268 70.0176Z" fill="#E0E0E9"/>
<path d="M953.724 64.6934H950.593V67.332H954.298V69H948.583V59.0469H954.284V60.7217H950.593V63.0732H953.724V64.6934ZM957.395 69H955.453V58.5H957.395V69ZM960.922 69H958.98V58.5H960.922V69ZM965.406 69.1367C964.413 69.1367 963.638 68.8405 963.082 68.248C962.526 67.6556 962.248 66.8079 962.248 65.7051V65.1172C962.248 63.9505 962.503 63.0505 963.014 62.417C963.524 61.7835 964.256 61.4668 965.208 61.4668C966.138 61.4668 966.837 61.7653 967.307 62.3623C967.776 62.9548 968.015 63.8343 968.024 65.001V65.9512H964.176C964.203 66.498 964.324 66.8991 964.538 67.1543C964.752 67.4049 965.083 67.5303 965.529 67.5303C966.176 67.5303 966.716 67.3092 967.149 66.8672L967.908 68.0361C967.671 68.3643 967.327 68.6309 966.876 68.8359C966.425 69.0365 965.935 69.1367 965.406 69.1367ZM964.189 64.5977H966.124V64.4199C966.115 63.9779 966.042 63.6429 965.905 63.415C965.769 63.1872 965.532 63.0732 965.194 63.0732C964.857 63.0732 964.611 63.194 964.456 63.4355C964.306 63.6771 964.217 64.0645 964.189 64.5977ZM970.889 61.6035L970.943 62.335C971.381 61.7562 971.953 61.4668 972.659 61.4668C973.931 61.4668 974.585 62.3577 974.621 64.1396V69H972.68V64.2832C972.68 63.8639 972.616 63.5609 972.488 63.374C972.365 63.1826 972.146 63.0869 971.832 63.0869C971.481 63.0869 971.208 63.2669 971.012 63.627V69H969.07V61.6035H970.889ZM975.783 65.0625C975.783 63.9414 976.048 63.0618 976.576 62.4238C977.105 61.7858 977.836 61.4668 978.771 61.4668C979.714 61.4668 980.45 61.7858 980.979 62.4238C981.507 63.0618 981.771 63.946 981.771 65.0762V65.5479C981.771 66.6735 981.509 67.5531 980.985 68.1865C980.461 68.82 979.728 69.1367 978.784 69.1367C977.836 69.1367 977.098 68.82 976.569 68.1865C976.045 67.5485 975.783 66.6644 975.783 65.5342V65.0625ZM977.725 65.5479C977.725 66.8695 978.078 67.5303 978.784 67.5303C979.436 67.5303 979.787 66.9788 979.837 65.876L979.844 65.0625C979.844 64.388 979.75 63.889 979.563 63.5654C979.377 63.2373 979.112 63.0732 978.771 63.0732C978.442 63.0732 978.185 63.2373 977.998 63.5654C977.816 63.889 977.725 64.388 977.725 65.0625V65.5479ZM980.254 58.5068H981.942L980.438 60.5645H979.023L980.254 58.5068ZM977.882 58.5068H979.55L978.244 60.5645H976.863L977.882 58.5068ZM986.632 63.4697L985.989 63.415C985.461 63.415 985.103 63.6475 984.916 64.1123V69H982.975V61.6035H984.8L984.854 62.4033C985.16 61.779 985.581 61.4668 986.119 61.4668C986.338 61.4668 986.516 61.4964 986.652 61.5557L986.632 63.4697ZM989.77 67.3936H992.695V69H987.473V67.79L990.33 63.2168H987.541V61.6035H992.654V62.7725L989.77 67.3936ZM996.852 69.1367C995.858 69.1367 995.083 68.8405 994.527 68.248C993.971 67.6556 993.693 66.8079 993.693 65.7051V65.1172C993.693 63.9505 993.949 63.0505 994.459 62.417C994.969 61.7835 995.701 61.4668 996.653 61.4668C997.583 61.4668 998.283 61.7653 998.752 62.3623C999.221 62.9548 999.461 63.8343 999.47 65.001V65.9512H995.621C995.648 66.498 995.769 66.8991 995.983 67.1543C996.198 67.4049 996.528 67.5303 996.975 67.5303C997.622 67.5303 998.162 67.3092 998.595 66.8672L999.354 68.0361C999.117 68.3643 998.772 68.6309 998.321 68.8359C997.87 69.0365 997.38 69.1367 996.852 69.1367ZM995.635 64.5977H997.569V64.4199C997.56 63.9779 997.487 63.6429 997.351 63.415C997.214 63.1872 996.977 63.0732 996.64 63.0732C996.302 63.0732 996.056 63.194 995.901 63.4355C995.751 63.6771 995.662 64.0645 995.635 64.5977ZM996.783 58.5H998.957L997.057 60.6191H995.443L996.783 58.5ZM1003.84 67.0176C1003.84 66.8535 1003.76 66.7031 1003.6 66.5664C1003.44 66.4251 1003.1 66.236 1002.55 65.999C1001.76 65.6755 1001.21 65.3405 1000.91 64.9941C1000.61 64.6478 1000.46 64.2171 1000.46 63.7021C1000.46 63.055 1000.69 62.5218 1001.16 62.1025C1001.63 61.6787 1002.25 61.4668 1003.02 61.4668C1003.83 61.4668 1004.48 61.6764 1004.97 62.0957C1005.45 62.515 1005.7 63.0778 1005.7 63.7842H1003.76C1003.76 63.1826 1003.51 62.8818 1003.01 62.8818C1002.81 62.8818 1002.64 62.9456 1002.5 63.0732C1002.37 63.2008 1002.31 63.3786 1002.31 63.6064C1002.31 63.7705 1002.38 63.9163 1002.53 64.0439C1002.67 64.167 1003.02 64.3447 1003.56 64.5771C1004.35 64.8688 1004.9 65.1947 1005.23 65.5547C1005.55 65.9102 1005.72 66.3727 1005.72 66.9424C1005.72 67.6032 1005.47 68.1341 1004.97 68.5352C1004.48 68.9362 1003.82 69.1367 1003.02 69.1367C1002.48 69.1367 1002 69.0319 1001.58 68.8223C1001.17 68.6081 1000.84 68.3118 1000.6 67.9336C1000.37 67.5553 1000.26 67.1475 1000.26 66.71H1002.09C1002.1 67.0472 1002.18 67.3001 1002.33 67.4688C1002.48 67.6374 1002.72 67.7217 1003.06 67.7217C1003.58 67.7217 1003.84 67.487 1003.84 67.0176ZM953.58 83.1367C952.587 83.1367 951.812 82.8405 951.256 82.248C950.7 81.6556 950.422 80.8079 950.422 79.7051V79.1172C950.422 77.9505 950.677 77.0505 951.188 76.417C951.698 75.7835 952.429 75.4668 953.382 75.4668C954.312 75.4668 955.011 75.7653 955.48 76.3623C955.95 76.9548 956.189 77.8343 956.198 79.001V79.9512H952.35C952.377 80.498 952.498 80.8991 952.712 81.1543C952.926 81.4049 953.257 81.5303 953.703 81.5303C954.35 81.5303 954.89 81.3092 955.323 80.8672L956.082 82.0361C955.845 82.3643 955.501 82.6309 955.05 82.8359C954.599 83.0365 954.109 83.1367 953.58 83.1367ZM952.363 78.5977H954.298V78.4199C954.289 77.9779 954.216 77.6429 954.079 77.415C953.942 77.1872 953.705 77.0732 953.368 77.0732C953.031 77.0732 952.785 77.194 952.63 77.4355C952.479 77.6771 952.391 78.0645 952.363 78.5977ZM953.512 72.5H955.686L953.785 74.6191H952.172L953.512 72.5ZM960.566 81.0176C960.566 80.8535 960.487 80.7031 960.327 80.5664C960.172 80.4251 959.824 80.236 959.281 79.999C958.484 79.6755 957.935 79.3405 957.634 78.9941C957.338 78.6478 957.189 78.2171 957.189 77.7021C957.189 77.055 957.422 76.5218 957.887 76.1025C958.356 75.6787 958.976 75.4668 959.746 75.4668C960.557 75.4668 961.207 75.6764 961.694 76.0957C962.182 76.515 962.426 77.0778 962.426 77.7842H960.491C960.491 77.1826 960.241 76.8818 959.739 76.8818C959.534 76.8818 959.366 76.9456 959.233 77.0732C959.101 77.2008 959.035 77.3786 959.035 77.6064C959.035 77.7705 959.108 77.9163 959.254 78.0439C959.4 78.167 959.744 78.3447 960.286 78.5771C961.075 78.8688 961.631 79.1947 961.954 79.5547C962.282 79.9102 962.446 80.3727 962.446 80.9424C962.446 81.6032 962.198 82.1341 961.701 82.5352C961.204 82.9362 960.553 83.1367 959.746 83.1367C959.204 83.1367 958.725 83.0319 958.311 82.8223C957.896 82.6081 957.57 82.3118 957.333 81.9336C957.101 81.5553 956.984 81.1475 956.984 80.71H958.823C958.832 81.0472 958.91 81.3001 959.056 81.4688C959.206 81.6374 959.45 81.7217 959.787 81.7217C960.307 81.7217 960.566 81.487 960.566 81.0176ZM967.266 83V77.0596H966.37V75.6035H967.266V75.2686C967.275 74.3389 967.528 73.6211 968.024 73.1152C968.526 72.6094 969.239 72.3564 970.164 72.3564C970.697 72.3564 971.351 72.4909 972.126 72.7598L971.846 74.4072C971.29 74.1976 970.772 74.0928 970.294 74.0928C969.578 74.0928 969.216 74.487 969.207 75.2754V75.6035H970.349V77.0596H969.207V83H967.266ZM973.008 83H971.066V75.6035H973.008V83ZM976.658 81.3936H979.584V83H974.361V81.79L977.219 77.2168H974.43V75.6035H979.543V76.7725L976.658 81.3936ZM983.74 83.1367C982.747 83.1367 981.972 82.8405 981.416 82.248C980.86 81.6556 980.582 80.8079 980.582 79.7051V79.1172C980.582 77.9505 980.837 77.0505 981.348 76.417C981.858 75.7835 982.59 75.4668 983.542 75.4668C984.472 75.4668 985.171 75.7653 985.641 76.3623C986.11 76.9548 986.349 77.8343 986.358 79.001V79.9512H982.51C982.537 80.498 982.658 80.8991 982.872 81.1543C983.086 81.4049 983.417 81.5303 983.863 81.5303C984.51 81.5303 985.05 81.3092 985.483 80.8672L986.242 82.0361C986.005 82.3643 985.661 82.6309 985.21 82.8359C984.759 83.0365 984.269 83.1367 983.74 83.1367ZM982.523 78.5977H984.458V78.4199C984.449 77.9779 984.376 77.6429 984.239 77.415C984.103 77.1872 983.866 77.0732 983.528 77.0732C983.191 77.0732 982.945 77.194 982.79 77.4355C982.64 77.6771 982.551 78.0645 982.523 78.5977ZM989.701 73.7852V75.6035H990.692V77.0596H989.701V80.7305C989.701 81.0221 989.74 81.2227 989.817 81.332C989.899 81.4414 990.054 81.4961 990.282 81.4961C990.469 81.4961 990.622 81.4801 990.74 81.4482L990.727 82.9521C990.398 83.0752 990.043 83.1367 989.66 83.1367C988.411 83.1367 987.78 82.4212 987.767 80.9902V77.0596H986.912V75.6035H987.767V73.7852H989.701ZM994.746 83.1367C993.753 83.1367 992.978 82.8405 992.422 82.248C991.866 81.6556 991.588 80.8079 991.588 79.7051V79.1172C991.588 77.9505 991.843 77.0505 992.354 76.417C992.864 75.7835 993.595 75.4668 994.548 75.4668C995.478 75.4668 996.177 75.7653 996.646 76.3623C997.116 76.9548 997.355 77.8343 997.364 79.001V79.9512H993.516C993.543 80.498 993.664 80.8991 993.878 81.1543C994.092 81.4049 994.423 81.5303 994.869 81.5303C995.516 81.5303 996.056 81.3092 996.489 80.8672L997.248 82.0361C997.011 82.3643 996.667 82.6309 996.216 82.8359C995.765 83.0365 995.275 83.1367 994.746 83.1367ZM993.529 78.5977H995.464V78.4199C995.455 77.9779 995.382 77.6429 995.245 77.415C995.108 77.1872 994.871 77.0732 994.534 77.0732C994.197 77.0732 993.951 77.194 993.796 77.4355C993.646 77.6771 993.557 78.0645 993.529 78.5977ZM994.678 72.5H996.852L994.951 74.6191H993.338L994.678 72.5ZM1001.73 81.0176C1001.73 80.8535 1001.65 80.7031 1001.49 80.5664C1001.34 80.4251 1000.99 80.236 1000.45 79.999C999.65 79.6755 999.101 79.3405 998.8 78.9941C998.504 78.6478 998.355 78.2171 998.355 77.7021C998.355 77.055 998.588 76.5218 999.053 76.1025C999.522 75.6787 1000.14 75.4668 1000.91 75.4668C1001.72 75.4668 1002.37 75.6764 1002.86 76.0957C1003.35 76.515 1003.59 77.0778 1003.59 77.7842H1001.66C1001.66 77.1826 1001.41 76.8818 1000.91 76.8818C1000.7 76.8818 1000.53 76.9456 1000.4 77.0732C1000.27 77.2008 1000.2 77.3786 1000.2 77.6064C1000.2 77.7705 1000.27 77.9163 1000.42 78.0439C1000.57 78.167 1000.91 78.3447 1001.45 78.5771C1002.24 78.8688 1002.8 79.1947 1003.12 79.5547C1003.45 79.9102 1003.61 80.3727 1003.61 80.9424C1003.61 81.6032 1003.36 82.1341 1002.87 82.5352C1002.37 82.9362 1001.72 83.1367 1000.91 83.1367C1000.37 83.1367 999.891 83.0319 999.477 82.8223C999.062 82.6081 998.736 82.3118 998.499 81.9336C998.267 81.5553 998.15 81.1475 998.15 80.71H999.989C999.998 81.0472 1000.08 81.3001 1000.22 81.4688C1000.37 81.6374 1000.62 81.7217 1000.95 81.7217C1001.47 81.7217 1001.73 81.487 1001.73 81.0176Z" fill="#E0E0E9"/>
<path fill-rule="evenodd" clip-rule="evenodd" d="M984 33H359V31H984V33Z" fill="#D0CFD7"/>
<path fill-rule="evenodd" clip-rule="evenodd" d="M339 33H45V31H339V33Z" fill="url(#paint2_linear_1252_3844)"/>
<g filter="url(#filter0_d_1252_3844)">
<path d="M32 17C23.7125 17 17 23.7125 17 32C17 34.8125 17.7875 37.475 19.175 39.725C20.497 41.9468 22.3748 43.7861 24.6236 45.0617C26.8724 46.3373 29.4146 47.0053 32 47C37.475 47 42.2375 44.075 44.825 39.725C46.2125 37.475 47 34.8125 47 32C47 23.7125 40.2875 17 32 17ZM39.3875 30.7625L31.4 38.15C30.875 38.6375 30.1625 38.9 29.4875 38.9C28.775 38.9 28.0625 38.6375 27.5 38.075L23.7875 34.3625C23.2644 33.8332 22.9711 33.1191 22.9711 32.375C22.9711 31.6309 23.2644 30.9168 23.7875 30.3875C24.875 29.3 26.675 29.3 27.7625 30.3875L29.5625 32.1875L35.5625 26.6375C36.6875 25.5875 38.4875 25.6625 39.5375 26.7875C40.5875 27.9125 40.5125 29.7125 39.3875 30.7625Z" fill="url(#paint3_linear_1252_3844)"/>
</g>
<g filter="url(#filter1_d_1252_3844)">
<path d="M349 17C340.712 17 334 23.7125 334 32C334 34.8125 334.788 37.475 336.175 39.725C337.497 41.9468 339.375 43.7861 341.624 45.0617C343.872 46.3373 346.415 47.0053 349 47C354.475 47 359.238 44.075 361.825 39.725C363.212 37.475 364 34.8125 364 32C364 23.7125 357.288 17 349 17ZM356.387 30.7625L348.4 38.15C347.875 38.6375 347.162 38.9 346.487 38.9C345.775 38.9 345.062 38.6375 344.5 38.075L340.787 34.3625C340.264 33.8332 339.971 33.1191 339.971 32.375C339.971 31.6309 340.264 30.9168 340.787 30.3875C341.875 29.3 343.675 29.3 344.762 30.3875L346.562 32.1875L352.562 26.6375C353.688 25.5875 355.488 25.6625 356.538 26.7875C357.588 27.9125 357.512 29.7125 356.387 30.7625Z" fill="url(#paint4_linear_1252_3844)"/>
</g>
<circle cx="670.5" cy="32.5" r="14.5" fill="#D0CFD7"/>
<circle cx="976.5" cy="32.5" r="14.5" fill="#D0CFD7"/>
<defs>
<filter id="filter0_d_1252_3844" x="0" y="0" width="74" height="74" filterUnits="userSpaceOnUse" color-interpolation-filters="sRGB">
<feFlood flood-opacity="0" result="BackgroundImageFix"/>
<feColorMatrix in="SourceAlpha" type="matrix" values="0 0 0 0 0 0 0 0 0 0 0 0 0 0 0 0 0 0 127 0" result="hardAlpha"/>
<feOffset dx="5" dy="5"/>
<feGaussianBlur stdDeviation="11"/>
<feComposite in2="hardAlpha" operator="out"/>
<feColorMatrix type="matrix" values="0 0 0 0 0.0392157 0 0 0 0 0.560784 0 0 0 0 0.309804 0 0 0 0.2 0"/>
<feBlend mode="normal" in2="BackgroundImageFix" result="effect1_dropShadow_1252_3844"/>
<feBlend mode="normal" in="SourceGraphic" in2="effect1_dropShadow_1252_3844" result="shape"/>
</filter>
<filter id="filter1_d_1252_3844" x="317" y="0" width="74" height="74" filterUnits="userSpaceOnUse" color-interpolation-filters="sRGB">
<feFlood flood-opacity="0" result="BackgroundImageFix"/>
<feColorMatrix in="SourceAlpha" type="matrix" values="0 0 0 0 0 0 0 0 0 0 0 0 0 0 0 0 0 0 127 0" result="hardAlpha"/>
<feOffset dx="5" dy="5"/>
<feGaussianBlur stdDeviation="11"/>
<feComposite in2="hardAlpha" operator="out"/>
<feColorMatrix type="matrix" values="0 0 0 0 0.0392157 0 0 0 0 0.560784 0 0 0 0 0.309804 0 0 0 0.2 0"/>
<feBlend mode="normal" in2="BackgroundImageFix" result="effect1_dropShadow_1252_3844"/>
<feBlend mode="normal" in="SourceGraphic" in2="effect1_dropShadow_1252_3844" result="shape"/>
</filter>
<linearGradient id="paint0_linear_1252_3844" x1="32" y1="85" x2="32" y2="57" gradientUnits="userSpaceOnUse">
<stop stop-color="#5CCC94"/>
<stop offset="1" stop-color="#8CCAAE"/>
</linearGradient>
<linearGradient id="paint1_linear_1252_3844" x1="349" y1="77" x2="349" y2="57" gradientUnits="userSpaceOnUse">
<stop stop-color="#5CCC94"/>
<stop offset="1" stop-color="#8CCAAE"/>
</linearGradient>
<linearGradient id="paint2_linear_1252_3844" x1="192" y1="33" x2="192" y2="31" gradientUnits="userSpaceOnUse">
<stop stop-color="#5CCC94"/>
<stop offset="1" stop-color="#8CCAAE"/>
</linearGradient>
<linearGradient id="paint3_linear_1252_3844" x1="32" y1="47" x2="32" y2="17" gradientUnits="userSpaceOnUse">
<stop stop-color="#5CCC94"/>
<stop offset="1" stop-color="#8CCAAE"/>
</linearGradient>
<linearGradient id="paint4_linear_1252_3844" x1="349" y1="47" x2="349" y2="17" gradientUnits="userSpaceOnUse">
<stop stop-color="#5CCC94"/>
<stop offset="1" stop-color="#8CCAAE"/>
</linearGradient>
</defs>
</svg>
