<svg width="739" height="84" viewBox="0 0 739 84" fill="none" xmlns="http://www.w3.org/2000/svg">
<path d="M25.2148 62.0469V72H23.2803L20.1562 65.7725V72H18.2559V62.0469H20.1631L23.3145 68.3428V62.0469H25.2148ZM30.3076 70.2227V64.6035H32.2285V72H30.4238L30.3076 70.2227ZM30.5264 68.6982L31.0596 68.6846C31.0596 69.1813 31.0117 69.6416 30.916 70.0654C30.8203 70.4847 30.6768 70.8493 30.4854 71.1592C30.2939 71.4691 30.0547 71.7106 29.7676 71.8838C29.4805 72.0524 29.141 72.1367 28.749 72.1367C28.4482 72.1367 28.1702 72.0866 27.915 71.9863C27.6644 71.8815 27.4479 71.7197 27.2656 71.501C27.0833 71.2777 26.9398 70.9928 26.835 70.6465C26.7347 70.2956 26.6846 69.874 26.6846 69.3818V64.6035H28.6055V69.4023C28.6055 69.6029 28.6237 69.776 28.6602 69.9219C28.6966 70.0632 28.7467 70.1794 28.8105 70.2705C28.8743 70.3617 28.9495 70.4277 29.0361 70.4688C29.1227 70.5052 29.2207 70.5234 29.3301 70.5234C29.6309 70.5234 29.8678 70.446 30.041 70.291C30.2188 70.1315 30.3441 69.915 30.417 69.6416C30.4899 69.3636 30.5264 69.0492 30.5264 68.6982ZM35.5508 66.1348V72H33.6299V64.6035H35.4346L35.5508 66.1348ZM35.2773 68.0488L34.751 68.0625C34.7419 67.543 34.7874 67.0645 34.8877 66.627C34.988 66.1895 35.1383 65.8089 35.3389 65.4854C35.5439 65.1618 35.8014 64.9111 36.1113 64.7334C36.4212 64.5557 36.7835 64.4668 37.1982 64.4668C37.4671 64.4668 37.7155 64.5169 37.9434 64.6172C38.1712 64.7129 38.3695 64.8656 38.5381 65.0752C38.7067 65.2803 38.8366 65.5492 38.9277 65.8818C39.0189 66.21 39.0645 66.6042 39.0645 67.0645V72H37.1504V67.2969C37.1504 66.9688 37.1185 66.7181 37.0547 66.5449C36.9909 66.3672 36.8997 66.2441 36.7812 66.1758C36.6628 66.1029 36.5169 66.0664 36.3438 66.0664C36.1615 66.0664 36.002 66.1165 35.8652 66.2168C35.7285 66.3171 35.6169 66.4583 35.5303 66.6406C35.4482 66.8184 35.3844 67.028 35.3389 67.2695C35.2979 67.5111 35.2773 67.7708 35.2773 68.0488ZM38.8799 67.8574L38.1895 67.9463C38.1803 67.4587 38.2236 67.0052 38.3193 66.5859C38.415 66.1621 38.5632 65.793 38.7637 65.4785C38.9642 65.1595 39.2148 64.9111 39.5156 64.7334C39.821 64.5557 40.1742 64.4668 40.5752 64.4668C40.876 64.4668 41.1494 64.5169 41.3955 64.6172C41.6416 64.7174 41.8512 64.8792 42.0244 65.1025C42.2021 65.3213 42.3366 65.6107 42.4277 65.9707C42.5234 66.3307 42.5713 66.7682 42.5713 67.2832V72H40.6504V67.29C40.6504 66.9574 40.6185 66.7021 40.5547 66.5244C40.4909 66.3467 40.3997 66.2259 40.2812 66.1621C40.1628 66.0983 40.0215 66.0664 39.8574 66.0664C39.6934 66.0664 39.5498 66.112 39.4268 66.2031C39.3083 66.2943 39.208 66.4219 39.126 66.5859C39.0439 66.7454 38.9824 66.9346 38.9414 67.1533C38.9004 67.3675 38.8799 67.6022 38.8799 67.8574ZM45.9414 66.1348V72H44.0205V64.6035H45.8252L45.9414 66.1348ZM45.668 68.0488L45.1416 68.0625C45.1325 67.543 45.1781 67.0645 45.2783 66.627C45.3786 66.1895 45.529 65.8089 45.7295 65.4854C45.9346 65.1618 46.1921 64.9111 46.502 64.7334C46.8118 64.5557 47.1742 64.4668 47.5889 64.4668C47.8577 64.4668 48.1061 64.5169 48.334 64.6172C48.5618 64.7129 48.7601 64.8656 48.9287 65.0752C49.0973 65.2803 49.2272 65.5492 49.3184 65.8818C49.4095 66.21 49.4551 66.6042 49.4551 67.0645V72H47.541V67.2969C47.541 66.9688 47.5091 66.7181 47.4453 66.5449C47.3815 66.3672 47.2904 66.2441 47.1719 66.1758C47.0534 66.1029 46.9076 66.0664 46.7344 66.0664C46.5521 66.0664 46.3926 66.1165 46.2559 66.2168C46.1191 66.3171 46.0075 66.4583 45.9209 66.6406C45.8389 66.8184 45.7751 67.028 45.7295 67.2695C45.6885 67.5111 45.668 67.7708 45.668 68.0488ZM49.2705 67.8574L48.5801 67.9463C48.571 67.4587 48.6143 67.0052 48.71 66.5859C48.8057 66.1621 48.9538 65.793 49.1543 65.4785C49.3548 65.1595 49.6055 64.9111 49.9062 64.7334C50.2116 64.5557 50.5648 64.4668 50.9658 64.4668C51.2666 64.4668 51.54 64.5169 51.7861 64.6172C52.0322 64.7174 52.2419 64.8792 52.415 65.1025C52.5928 65.3213 52.7272 65.6107 52.8184 65.9707C52.9141 66.3307 52.9619 66.7682 52.9619 67.2832V72H51.041V67.29C51.041 66.9574 51.0091 66.7021 50.9453 66.5244C50.8815 66.3467 50.7904 66.2259 50.6719 66.1621C50.5534 66.0983 50.4121 66.0664 50.248 66.0664C50.084 66.0664 49.9404 66.112 49.8174 66.2031C49.6989 66.2943 49.5986 66.4219 49.5166 66.5859C49.4346 66.7454 49.373 66.9346 49.332 67.1533C49.291 67.3675 49.2705 67.6022 49.2705 67.8574ZM57.3848 72.1367C56.8789 72.1367 56.43 72.0592 56.0381 71.9043C55.6507 71.7493 55.3226 71.526 55.0537 71.2344C54.7848 70.9382 54.5798 70.5804 54.4385 70.1611C54.2972 69.7419 54.2266 69.2633 54.2266 68.7256V68.1172C54.2266 67.5156 54.2949 66.9893 54.4316 66.5381C54.5684 66.0824 54.762 65.6995 55.0127 65.3896C55.2633 65.0798 55.571 64.8496 55.9355 64.6992C56.3047 64.5443 56.7217 64.4668 57.1865 64.4668C57.6514 64.4668 58.0592 64.5443 58.4102 64.6992C58.7656 64.8496 59.0596 65.0775 59.292 65.3828C59.5244 65.6836 59.6999 66.0573 59.8184 66.5039C59.9368 66.9505 59.9961 67.4701 59.9961 68.0625V68.9375H55.04V67.5908H58.1162V67.4199C58.1162 67.1191 58.0843 66.8685 58.0205 66.668C57.9567 66.4629 57.8564 66.3102 57.7197 66.21C57.583 66.1097 57.4007 66.0596 57.1729 66.0596C56.9814 66.0596 56.8197 66.0983 56.6875 66.1758C56.5553 66.2533 56.4505 66.374 56.373 66.5381C56.2956 66.7021 56.2386 66.9163 56.2021 67.1807C56.1657 67.4404 56.1475 67.7526 56.1475 68.1172V68.7256C56.1475 69.0674 56.1771 69.3545 56.2363 69.5869C56.2956 69.8148 56.3822 70.0016 56.4961 70.1475C56.6146 70.2887 56.7581 70.3913 56.9268 70.4551C57.0954 70.5143 57.2913 70.5439 57.5146 70.5439C57.8519 70.5439 58.1549 70.4847 58.4238 70.3662C58.6973 70.2432 58.9297 70.0768 59.1211 69.8672L59.8867 71.0293C59.7546 71.2025 59.5723 71.3757 59.3398 71.5488C59.1074 71.722 58.8294 71.8633 58.5059 71.9727C58.1823 72.082 57.8086 72.1367 57.3848 72.1367ZM63.0176 66.251V72H61.1035V64.6035H62.9082L63.0176 66.251ZM64.7607 64.5488L64.7334 66.4561C64.6468 66.4378 64.542 66.4242 64.4189 66.415C64.3005 66.4059 64.1956 66.4014 64.1045 66.4014C63.8903 66.4014 63.708 66.4355 63.5576 66.5039C63.4072 66.5677 63.2819 66.6657 63.1816 66.7979C63.0859 66.9255 63.013 67.085 62.9629 67.2764C62.9128 67.4678 62.8831 67.6842 62.874 67.9258L62.5117 67.7891C62.5117 67.306 62.5482 66.8639 62.6211 66.4629C62.6986 66.0573 62.8125 65.7064 62.9629 65.4102C63.1133 65.1094 63.2933 64.877 63.5029 64.7129C63.7171 64.5488 63.9587 64.4668 64.2275 64.4668C64.3187 64.4668 64.4144 64.4759 64.5146 64.4941C64.6195 64.5078 64.7015 64.526 64.7607 64.5488ZM70.8789 61.4932V72H68.9648V61.4932H70.8789ZM74.7686 64.6035L72.1641 68.2812L70.5986 70.0381L69.9219 68.582L71.125 66.8252L72.4854 64.6035H74.7686ZM72.7725 72L71.1592 68.6025L72.4785 67.3857L74.9668 72H72.7725ZM78.5078 72.1367C78.002 72.1367 77.5531 72.0592 77.1611 71.9043C76.7738 71.7493 76.4456 71.526 76.1768 71.2344C75.9079 70.9382 75.7028 70.5804 75.5615 70.1611C75.4202 69.7419 75.3496 69.2633 75.3496 68.7256V68.1172C75.3496 67.5156 75.418 66.9893 75.5547 66.5381C75.6914 66.0824 75.8851 65.6995 76.1357 65.3896C76.3864 65.0798 76.694 64.8496 77.0586 64.6992C77.4277 64.5443 77.8447 64.4668 78.3096 64.4668C78.7744 64.4668 79.1823 64.5443 79.5332 64.6992C79.8887 64.8496 80.1826 65.0775 80.415 65.3828C80.6475 65.6836 80.8229 66.0573 80.9414 66.5039C81.0599 66.9505 81.1191 67.4701 81.1191 68.0625V68.9375H76.1631V67.5908H79.2393V67.4199C79.2393 67.1191 79.2074 66.8685 79.1436 66.668C79.0798 66.4629 78.9795 66.3102 78.8428 66.21C78.7061 66.1097 78.5238 66.0596 78.2959 66.0596C78.1045 66.0596 77.9427 66.0983 77.8105 66.1758C77.6784 66.2533 77.5736 66.374 77.4961 66.5381C77.4186 66.7021 77.3617 66.9163 77.3252 67.1807C77.2887 67.4404 77.2705 67.7526 77.2705 68.1172V68.7256C77.2705 69.0674 77.3001 69.3545 77.3594 69.5869C77.4186 69.8148 77.5052 70.0016 77.6191 70.1475C77.7376 70.2887 77.8812 70.3913 78.0498 70.4551C78.2184 70.5143 78.4144 70.5439 78.6377 70.5439C78.9749 70.5439 79.278 70.4847 79.5469 70.3662C79.8203 70.2432 80.0527 70.0768 80.2441 69.8672L81.0098 71.0293C80.8776 71.2025 80.6953 71.3757 80.4629 71.5488C80.2305 71.722 79.9525 71.8633 79.6289 71.9727C79.3053 72.082 78.9316 72.1367 78.5078 72.1367ZM84.1064 66.1826V72H82.1855V64.6035H83.9834L84.1064 66.1826ZM83.8193 68.0488L83.3066 68.0625C83.2975 67.5065 83.3499 67.0075 83.4639 66.5654C83.5824 66.1234 83.7487 65.7474 83.9629 65.4375C84.1816 65.123 84.4414 64.8838 84.7422 64.7197C85.0475 64.5511 85.387 64.4668 85.7607 64.4668C86.0479 64.4668 86.3099 64.5169 86.5469 64.6172C86.7884 64.7174 86.9958 64.877 87.1689 65.0957C87.3421 65.3145 87.4766 65.6061 87.5723 65.9707C87.668 66.3307 87.7158 66.7728 87.7158 67.2969V72H85.7949V67.2832C85.7949 66.9642 85.763 66.7181 85.6992 66.5449C85.6354 66.3672 85.5397 66.2441 85.4121 66.1758C85.2845 66.1029 85.125 66.0664 84.9336 66.0664C84.7513 66.0664 84.5895 66.1188 84.4482 66.2236C84.307 66.3239 84.1885 66.4629 84.0928 66.6406C84.0016 66.8184 83.931 67.028 83.8809 67.2695C83.8353 67.5111 83.8148 67.7708 83.8193 68.0488ZM92.3438 64.6035V66.0459H88.5703V64.6035H92.3438ZM89.4385 62.7783H91.3457V69.7441C91.3457 69.9492 91.3662 70.1064 91.4072 70.2158C91.4482 70.3252 91.5098 70.4027 91.5918 70.4482C91.6784 70.4893 91.7923 70.5098 91.9336 70.5098C92.0293 70.5098 92.1182 70.5052 92.2002 70.4961C92.2822 70.4824 92.3438 70.4688 92.3848 70.4551V71.9521C92.2344 72.0114 92.0749 72.057 91.9062 72.0889C91.7422 72.1208 91.5462 72.1367 91.3184 72.1367C90.9355 72.1367 90.6029 72.0638 90.3203 71.918C90.0423 71.7721 89.8258 71.5397 89.6709 71.2207C89.516 70.8971 89.4385 70.4733 89.4385 69.9492V62.7783ZM96.3906 72.1367C95.8848 72.1367 95.4359 72.0592 95.0439 71.9043C94.6566 71.7493 94.3285 71.526 94.0596 71.2344C93.7907 70.9382 93.5856 70.5804 93.4443 70.1611C93.3031 69.7419 93.2324 69.2633 93.2324 68.7256V68.1172C93.2324 67.5156 93.3008 66.9893 93.4375 66.5381C93.5742 66.0824 93.7679 65.6995 94.0186 65.3896C94.2692 65.0798 94.5768 64.8496 94.9414 64.6992C95.3105 64.5443 95.7275 64.4668 96.1924 64.4668C96.6572 64.4668 97.0651 64.5443 97.416 64.6992C97.7715 64.8496 98.0654 65.0775 98.2979 65.3828C98.5303 65.6836 98.7057 66.0573 98.8242 66.5039C98.9427 66.9505 99.002 67.4701 99.002 68.0625V68.9375H94.0459V67.5908H97.1221V67.4199C97.1221 67.1191 97.0902 66.8685 97.0264 66.668C96.9626 66.4629 96.8623 66.3102 96.7256 66.21C96.5889 66.1097 96.4066 66.0596 96.1787 66.0596C95.9873 66.0596 95.8255 66.0983 95.6934 66.1758C95.5612 66.2533 95.4564 66.374 95.3789 66.5381C95.3014 66.7021 95.2445 66.9163 95.208 67.1807C95.1715 67.4404 95.1533 67.7526 95.1533 68.1172V68.7256C95.1533 69.0674 95.1829 69.3545 95.2422 69.5869C95.3014 69.8148 95.388 70.0016 95.502 70.1475C95.6204 70.2887 95.764 70.3913 95.9326 70.4551C96.1012 70.5143 96.2972 70.5439 96.5205 70.5439C96.8577 70.5439 97.1608 70.4847 97.4297 70.3662C97.7031 70.2432 97.9355 70.0768 98.127 69.8672L98.8926 71.0293C98.7604 71.2025 98.5781 71.3757 98.3457 71.5488C98.1133 71.722 97.8353 71.8633 97.5117 71.9727C97.1882 72.082 96.8145 72.1367 96.3906 72.1367ZM102.023 61.4932V72H100.109V61.4932H102.023ZM105.913 64.6035L103.309 68.2812L101.743 70.0381L101.066 68.582L102.27 66.8252L103.63 64.6035H105.913ZM103.917 72L102.304 68.6025L103.623 67.3857L106.111 72H103.917ZM109.652 72.1367C109.146 72.1367 108.698 72.0592 108.306 71.9043C107.918 71.7493 107.59 71.526 107.321 71.2344C107.052 70.9382 106.847 70.5804 106.706 70.1611C106.565 69.7419 106.494 69.2633 106.494 68.7256V68.1172C106.494 67.5156 106.562 66.9893 106.699 66.5381C106.836 66.0824 107.03 65.6995 107.28 65.3896C107.531 65.0798 107.839 64.8496 108.203 64.6992C108.572 64.5443 108.989 64.4668 109.454 64.4668C109.919 64.4668 110.327 64.5443 110.678 64.6992C111.033 64.8496 111.327 65.0775 111.56 65.3828C111.792 65.6836 111.967 66.0573 112.086 66.5039C112.204 66.9505 112.264 67.4701 112.264 68.0625V68.9375H107.308V67.5908H110.384V67.4199C110.384 67.1191 110.352 66.8685 110.288 66.668C110.224 66.4629 110.124 66.3102 109.987 66.21C109.851 66.1097 109.668 66.0596 109.44 66.0596C109.249 66.0596 109.087 66.0983 108.955 66.1758C108.823 66.2533 108.718 66.374 108.641 66.5381C108.563 66.7021 108.506 66.9163 108.47 67.1807C108.433 67.4404 108.415 67.7526 108.415 68.1172V68.7256C108.415 69.0674 108.445 69.3545 108.504 69.5869C108.563 69.8148 108.65 70.0016 108.764 70.1475C108.882 70.2887 109.026 70.3913 109.194 70.4551C109.363 70.5143 109.559 70.5439 109.782 70.5439C110.119 70.5439 110.423 70.4847 110.691 70.3662C110.965 70.2432 111.197 70.0768 111.389 69.8672L112.154 71.0293C112.022 71.2025 111.84 71.3757 111.607 71.5488C111.375 71.722 111.097 71.8633 110.773 71.9727C110.45 72.082 110.076 72.1367 109.652 72.1367ZM115.251 66.1826V72H113.33V64.6035H115.128L115.251 66.1826ZM114.964 68.0488L114.451 68.0625C114.442 67.5065 114.494 67.0075 114.608 66.5654C114.727 66.1234 114.893 65.7474 115.107 65.4375C115.326 65.123 115.586 64.8838 115.887 64.7197C116.192 64.5511 116.532 64.4668 116.905 64.4668C117.192 64.4668 117.454 64.5169 117.691 64.6172C117.933 64.7174 118.14 64.877 118.313 65.0957C118.487 65.3145 118.621 65.6061 118.717 65.9707C118.812 66.3307 118.86 66.7728 118.86 67.2969V72H116.939V67.2832C116.939 66.9642 116.908 66.7181 116.844 66.5449C116.78 66.3672 116.684 66.2441 116.557 66.1758C116.429 66.1029 116.27 66.0664 116.078 66.0664C115.896 66.0664 115.734 66.1188 115.593 66.2236C115.451 66.3239 115.333 66.4629 115.237 66.6406C115.146 66.8184 115.076 67.028 115.025 67.2695C114.98 67.5111 114.959 67.7708 114.964 68.0488Z" fill="url(#paint0_linear_363_3013)"/>
<path d="M362.824 62.0469V72H360.821V62.0469H362.824ZM365.941 66.2783V67.9326H362.318V66.2783H365.941ZM366.324 62.0469V63.708H362.318V62.0469H366.324ZM370.426 70.2979V66.8799C370.426 66.6566 370.398 66.4788 370.344 66.3467C370.294 66.2145 370.216 66.1188 370.111 66.0596C370.011 65.9958 369.888 65.9639 369.742 65.9639C369.578 65.9639 369.441 65.998 369.332 66.0664C369.223 66.1348 369.141 66.2327 369.086 66.3604C369.036 66.488 369.011 66.6406 369.011 66.8184H367.09C367.09 66.4993 367.151 66.1986 367.274 65.916C367.397 65.6289 367.577 65.3783 367.814 65.1641C368.056 64.9453 368.343 64.7744 368.676 64.6514C369.008 64.5283 369.382 64.4668 369.797 64.4668C370.289 64.4668 370.727 64.5511 371.109 64.7197C371.492 64.8838 371.795 65.1458 372.019 65.5059C372.242 65.8659 372.354 66.333 372.354 66.9072V70.2021C372.354 70.6169 372.374 70.9541 372.415 71.2139C372.461 71.4736 372.527 71.6969 372.613 71.8838V72H370.686C370.599 71.7949 370.533 71.5397 370.487 71.2344C370.446 70.9245 370.426 70.6123 370.426 70.2979ZM370.658 67.4814L370.665 68.6299H369.961C369.779 68.6299 369.619 68.6595 369.482 68.7188C369.35 68.778 369.239 68.8623 369.147 68.9717C369.056 69.0765 368.988 69.1995 368.942 69.3408C368.901 69.4821 368.881 69.6325 368.881 69.792C368.881 69.9697 368.906 70.1201 368.956 70.2432C369.006 70.3662 369.081 70.4596 369.182 70.5234C369.282 70.5872 369.4 70.6191 369.537 70.6191C369.747 70.6191 369.929 70.5758 370.084 70.4893C370.239 70.4027 370.353 70.2979 370.426 70.1748C370.503 70.0518 370.528 69.9378 370.501 69.833L370.938 70.5781C370.884 70.7467 370.809 70.9222 370.713 71.1045C370.622 71.2868 370.506 71.4554 370.364 71.6104C370.223 71.7653 370.048 71.8929 369.838 71.9932C369.633 72.0889 369.389 72.1367 369.106 72.1367C368.71 72.1367 368.348 72.0456 368.02 71.8633C367.691 71.681 367.432 71.4258 367.24 71.0977C367.053 70.7695 366.96 70.3799 366.96 69.9287C366.96 69.555 367.019 69.2178 367.138 68.917C367.261 68.6117 367.443 68.3542 367.685 68.1445C367.926 67.9303 368.231 67.7663 368.601 67.6523C368.97 67.5384 369.403 67.4814 369.899 67.4814H370.658ZM376.441 70.5439C376.619 70.5439 376.772 70.5075 376.899 70.4346C377.032 70.3617 377.132 70.2432 377.2 70.0791C377.269 69.915 377.305 69.7031 377.31 69.4434H379.107C379.107 69.9993 378.989 70.4801 378.752 70.8857C378.52 71.2868 378.205 71.5967 377.809 71.8154C377.417 72.0296 376.972 72.1367 376.476 72.1367C375.979 72.1367 375.546 72.057 375.177 71.8975C374.808 71.738 374.502 71.5055 374.261 71.2002C374.024 70.8949 373.844 70.5234 373.721 70.0859C373.602 69.6439 373.543 69.138 373.543 68.5684V68.0283C373.543 67.4678 373.602 66.9665 373.721 66.5244C373.844 66.0824 374.024 65.7087 374.261 65.4033C374.502 65.098 374.805 64.8656 375.17 64.7061C375.539 64.5465 375.972 64.4668 376.469 64.4668C377.002 64.4668 377.465 64.5785 377.856 64.8018C378.248 65.0205 378.554 65.3441 378.772 65.7725C378.996 66.2008 379.107 66.7295 379.107 67.3584H377.31C377.305 67.0758 377.271 66.8411 377.207 66.6543C377.148 66.4629 377.054 66.3171 376.927 66.2168C376.804 66.112 376.64 66.0596 376.435 66.0596C376.22 66.0596 376.047 66.1051 375.915 66.1963C375.787 66.2829 375.689 66.4105 375.621 66.5791C375.557 66.7432 375.514 66.9482 375.491 67.1943C375.468 67.4404 375.457 67.7184 375.457 68.0283V68.5684C375.457 68.901 375.466 69.1904 375.484 69.4365C375.507 69.6781 375.55 69.8831 375.614 70.0518C375.683 70.2158 375.781 70.3389 375.908 70.4209C376.04 70.5029 376.218 70.5439 376.441 70.5439ZM383.435 64.6035V66.0459H379.661V64.6035H383.435ZM380.529 62.7783H382.437V69.7441C382.437 69.9492 382.457 70.1064 382.498 70.2158C382.539 70.3252 382.601 70.4027 382.683 70.4482C382.769 70.4893 382.883 70.5098 383.024 70.5098C383.12 70.5098 383.209 70.5052 383.291 70.4961C383.373 70.4824 383.435 70.4688 383.476 70.4551V71.9521C383.325 72.0114 383.166 72.057 382.997 72.0889C382.833 72.1208 382.637 72.1367 382.409 72.1367C382.026 72.1367 381.694 72.0638 381.411 71.918C381.133 71.7721 380.917 71.5397 380.762 71.2207C380.607 70.8971 380.529 70.4733 380.529 69.9492V62.7783ZM388.076 70.2227V64.6035H389.997V72H388.192L388.076 70.2227ZM388.295 68.6982L388.828 68.6846C388.828 69.1813 388.78 69.6416 388.685 70.0654C388.589 70.4847 388.445 70.8493 388.254 71.1592C388.062 71.4691 387.823 71.7106 387.536 71.8838C387.249 72.0524 386.91 72.1367 386.518 72.1367C386.217 72.1367 385.939 72.0866 385.684 71.9863C385.433 71.8815 385.216 71.7197 385.034 71.501C384.852 71.2777 384.708 70.9928 384.604 70.6465C384.503 70.2956 384.453 69.874 384.453 69.3818V64.6035H386.374V69.4023C386.374 69.6029 386.392 69.776 386.429 69.9219C386.465 70.0632 386.515 70.1794 386.579 70.2705C386.643 70.3617 386.718 70.4277 386.805 70.4688C386.891 70.5052 386.989 70.5234 387.099 70.5234C387.399 70.5234 387.636 70.446 387.81 70.291C387.987 70.1315 388.113 69.915 388.186 69.6416C388.258 69.3636 388.295 69.0492 388.295 68.6982ZM393.306 66.251V72H391.392V64.6035H393.196L393.306 66.251ZM395.049 64.5488L395.021 66.4561C394.935 66.4378 394.83 66.4242 394.707 66.415C394.589 66.4059 394.484 66.4014 394.393 66.4014C394.178 66.4014 393.996 66.4355 393.846 66.5039C393.695 66.5677 393.57 66.6657 393.47 66.7979C393.374 66.9255 393.301 67.085 393.251 67.2764C393.201 67.4678 393.171 67.6842 393.162 67.9258L392.8 67.7891C392.8 67.306 392.836 66.8639 392.909 66.4629C392.987 66.0573 393.101 65.7064 393.251 65.4102C393.401 65.1094 393.581 64.877 393.791 64.7129C394.005 64.5488 394.247 64.4668 394.516 64.4668C394.607 64.4668 394.702 64.4759 394.803 64.4941C394.908 64.5078 394.99 64.526 395.049 64.5488ZM398.87 72.1367C398.364 72.1367 397.915 72.0592 397.523 71.9043C397.136 71.7493 396.808 71.526 396.539 71.2344C396.27 70.9382 396.065 70.5804 395.924 70.1611C395.783 69.7419 395.712 69.2633 395.712 68.7256V68.1172C395.712 67.5156 395.78 66.9893 395.917 66.5381C396.054 66.0824 396.247 65.6995 396.498 65.3896C396.749 65.0798 397.056 64.8496 397.421 64.6992C397.79 64.5443 398.207 64.4668 398.672 64.4668C399.137 64.4668 399.545 64.5443 399.896 64.6992C400.251 64.8496 400.545 65.0775 400.777 65.3828C401.01 65.6836 401.185 66.0573 401.304 66.5039C401.422 66.9505 401.481 67.4701 401.481 68.0625V68.9375H396.525V67.5908H399.602V67.4199C399.602 67.1191 399.57 66.8685 399.506 66.668C399.442 66.4629 399.342 66.3102 399.205 66.21C399.068 66.1097 398.886 66.0596 398.658 66.0596C398.467 66.0596 398.305 66.0983 398.173 66.1758C398.041 66.2533 397.936 66.374 397.858 66.5381C397.781 66.7021 397.724 66.9163 397.688 67.1807C397.651 67.4404 397.633 67.7526 397.633 68.1172V68.7256C397.633 69.0674 397.662 69.3545 397.722 69.5869C397.781 69.8148 397.868 70.0016 397.981 70.1475C398.1 70.2887 398.243 70.3913 398.412 70.4551C398.581 70.5143 398.777 70.5439 399 70.5439C399.337 70.5439 399.64 70.4847 399.909 70.3662C400.183 70.2432 400.415 70.0768 400.606 69.8672L401.372 71.0293C401.24 71.2025 401.058 71.3757 400.825 71.5488C400.593 71.722 400.315 71.8633 399.991 71.9727C399.668 72.082 399.294 72.1367 398.87 72.1367ZM404.503 66.251V72H402.589V64.6035H404.394L404.503 66.251ZM406.246 64.5488L406.219 66.4561C406.132 66.4378 406.027 66.4242 405.904 66.415C405.786 66.4059 405.681 66.4014 405.59 66.4014C405.376 66.4014 405.193 66.4355 405.043 66.5039C404.893 66.5677 404.767 66.6657 404.667 66.7979C404.571 66.9255 404.498 67.085 404.448 67.2764C404.398 67.4678 404.368 67.6842 404.359 67.9258L403.997 67.7891C403.997 67.306 404.034 66.8639 404.106 66.4629C404.184 66.0573 404.298 65.7064 404.448 65.4102C404.599 65.1094 404.779 64.877 404.988 64.7129C405.202 64.5488 405.444 64.4668 405.713 64.4668C405.804 64.4668 405.9 64.4759 406 64.4941C406.105 64.5078 406.187 64.526 406.246 64.5488ZM409.233 64.6035V72H407.312V64.6035H409.233ZM407.224 62.6895C407.224 62.3932 407.317 62.1494 407.504 61.958C407.695 61.762 407.951 61.6641 408.27 61.6641C408.593 61.6641 408.848 61.762 409.035 61.958C409.222 62.1494 409.315 62.3932 409.315 62.6895C409.315 62.9811 409.22 63.2249 409.028 63.4209C408.841 63.6123 408.591 63.708 408.276 63.708C407.953 63.708 407.695 63.6123 407.504 63.4209C407.317 63.2249 407.224 62.9811 407.224 62.6895ZM412.631 66.1826V72H410.71V64.6035H412.508L412.631 66.1826ZM412.344 68.0488L411.831 68.0625C411.822 67.5065 411.874 67.0075 411.988 66.5654C412.107 66.1234 412.273 65.7474 412.487 65.4375C412.706 65.123 412.966 64.8838 413.267 64.7197C413.572 64.5511 413.911 64.4668 414.285 64.4668C414.572 64.4668 414.834 64.5169 415.071 64.6172C415.313 64.7174 415.52 64.877 415.693 65.0957C415.867 65.3145 416.001 65.6061 416.097 65.9707C416.192 66.3307 416.24 66.7728 416.24 67.2969V72H414.319V67.2832C414.319 66.9642 414.287 66.7181 414.224 66.5449C414.16 66.3672 414.064 66.2441 413.937 66.1758C413.809 66.1029 413.649 66.0664 413.458 66.0664C413.276 66.0664 413.114 66.1188 412.973 66.2236C412.831 66.3239 412.713 66.4629 412.617 66.6406C412.526 66.8184 412.455 67.028 412.405 67.2695C412.36 67.5111 412.339 67.7708 412.344 68.0488ZM421.531 64.6035H423.268V72C423.268 72.6745 423.138 73.2259 422.878 73.6543C422.623 74.0872 422.265 74.404 421.805 74.6045C421.349 74.8096 420.816 74.9121 420.205 74.9121C419.973 74.9121 419.711 74.8802 419.419 74.8164C419.132 74.7526 418.854 74.6546 418.585 74.5225C418.316 74.3949 418.095 74.2399 417.922 74.0576L418.571 72.7314C418.749 72.9092 418.981 73.0596 419.269 73.1826C419.556 73.3102 419.838 73.374 420.116 73.374C420.385 73.374 420.608 73.3307 420.786 73.2441C420.968 73.1621 421.105 73.0208 421.196 72.8203C421.292 72.6198 421.34 72.3509 421.34 72.0137V66.3193L421.531 64.6035ZM417.402 68.5615V68.0693C417.402 67.4678 417.459 66.9414 417.573 66.4902C417.687 66.0391 417.851 65.6631 418.065 65.3623C418.28 65.0615 418.542 64.8382 418.852 64.6924C419.166 64.542 419.517 64.4668 419.904 64.4668C420.31 64.4668 420.649 64.5557 420.923 64.7334C421.196 64.9066 421.417 65.1504 421.586 65.4648C421.759 65.7793 421.891 66.1507 421.982 66.5791C422.078 67.0075 422.151 67.4769 422.201 67.9873V68.6982C422.151 69.1813 422.069 69.6325 421.955 70.0518C421.846 70.471 421.7 70.8356 421.518 71.1455C421.335 71.4554 421.112 71.6992 420.848 71.877C420.583 72.0501 420.264 72.1367 419.891 72.1367C419.508 72.1367 419.161 72.0592 418.852 71.9043C418.546 71.7493 418.284 71.5215 418.065 71.2207C417.851 70.9154 417.687 70.5417 417.573 70.0996C417.459 69.653 417.402 69.1403 417.402 68.5615ZM419.323 68.0693V68.5615C419.323 68.9079 419.344 69.2064 419.385 69.457C419.43 69.7031 419.499 69.9059 419.59 70.0654C419.681 70.2204 419.797 70.3366 419.938 70.4141C420.084 70.487 420.255 70.5234 420.451 70.5234C420.729 70.5234 420.95 70.4596 421.114 70.332C421.283 70.1999 421.406 70.0199 421.483 69.792C421.565 69.5596 421.611 69.293 421.62 68.9922V67.7002C421.616 67.4495 421.586 67.224 421.531 67.0234C421.481 66.8229 421.41 66.652 421.319 66.5107C421.228 66.3695 421.11 66.2601 420.964 66.1826C420.823 66.1051 420.656 66.0664 420.465 66.0664C420.269 66.0664 420.1 66.1051 419.959 66.1826C419.818 66.2601 419.699 66.3809 419.604 66.5449C419.512 66.7044 419.442 66.9118 419.392 67.167C419.346 67.4176 419.323 67.7184 419.323 68.0693Z" fill="url(#paint1_linear_363_3013)"/>
<path d="M668.313 64.874L670.2 57.0469H672.36L669.476 67H668.02L668.313 64.874ZM666.7 57.0469L668.58 64.874L668.888 67H667.425L664.561 57.0469H666.7ZM675.895 67.1367C675.389 67.1367 674.94 67.0592 674.548 66.9043C674.16 66.7493 673.832 66.526 673.563 66.2344C673.295 65.9382 673.09 65.5804 672.948 65.1611C672.807 64.7419 672.736 64.2633 672.736 63.7256V63.1172C672.736 62.5156 672.805 61.9893 672.941 61.5381C673.078 61.0824 673.272 60.6995 673.522 60.3896C673.773 60.0798 674.081 59.8496 674.445 59.6992C674.814 59.5443 675.231 59.4668 675.696 59.4668C676.161 59.4668 676.569 59.5443 676.92 59.6992C677.275 59.8496 677.569 60.0775 677.802 60.3828C678.034 60.6836 678.21 61.0573 678.328 61.5039C678.447 61.9505 678.506 62.4701 678.506 63.0625V63.9375H673.55V62.5908H676.626V62.4199C676.626 62.1191 676.594 61.8685 676.53 61.668C676.466 61.4629 676.366 61.3102 676.229 61.21C676.093 61.1097 675.91 61.0596 675.683 61.0596C675.491 61.0596 675.329 61.0983 675.197 61.1758C675.065 61.2533 674.96 61.374 674.883 61.5381C674.805 61.7021 674.748 61.9163 674.712 62.1807C674.675 62.4404 674.657 62.7526 674.657 63.1172V63.7256C674.657 64.0674 674.687 64.3545 674.746 64.5869C674.805 64.8148 674.892 65.0016 675.006 65.1475C675.124 65.2887 675.268 65.3913 675.437 65.4551C675.605 65.5143 675.801 65.5439 676.024 65.5439C676.362 65.5439 676.665 65.4847 676.934 65.3662C677.207 65.2432 677.439 65.0768 677.631 64.8672L678.396 66.0293C678.264 66.2025 678.082 66.3757 677.85 66.5488C677.617 66.722 677.339 66.8633 677.016 66.9727C676.692 67.082 676.318 67.1367 675.895 67.1367ZM681.527 61.251V67H679.613V59.6035H681.418L681.527 61.251ZM683.271 59.5488L683.243 61.4561C683.157 61.4378 683.052 61.4242 682.929 61.415C682.81 61.4059 682.705 61.4014 682.614 61.4014C682.4 61.4014 682.218 61.4355 682.067 61.5039C681.917 61.5677 681.792 61.6657 681.691 61.7979C681.596 61.9255 681.523 62.085 681.473 62.2764C681.423 62.4678 681.393 62.6842 681.384 62.9258L681.021 62.7891C681.021 62.306 681.058 61.8639 681.131 61.4629C681.208 61.0573 681.322 60.7064 681.473 60.4102C681.623 60.1094 681.803 59.877 682.013 59.7129C682.227 59.5488 682.468 59.4668 682.737 59.4668C682.828 59.4668 682.924 59.4759 683.024 59.4941C683.129 59.5078 683.211 59.526 683.271 59.5488ZM686.258 59.6035V67H684.337V59.6035H686.258ZM684.248 57.6895C684.248 57.3932 684.341 57.1494 684.528 56.958C684.72 56.762 684.975 56.6641 685.294 56.6641C685.618 56.6641 685.873 56.762 686.06 56.958C686.246 57.1494 686.34 57.3932 686.34 57.6895C686.34 57.9811 686.244 58.2249 686.053 58.4209C685.866 58.6123 685.615 58.708 685.301 58.708C684.977 58.708 684.72 58.6123 684.528 58.4209C684.341 58.2249 684.248 57.9811 684.248 57.6895ZM690.086 67H688.172V59.2959C688.172 58.6579 688.284 58.1224 688.507 57.6895C688.735 57.252 689.063 56.9215 689.491 56.6982C689.924 56.4704 690.441 56.3564 691.043 56.3564C691.389 56.3564 691.717 56.3952 692.027 56.4727C692.342 56.5456 692.665 56.6413 692.998 56.7598L692.725 58.3867C692.524 58.3138 692.299 58.2454 692.048 58.1816C691.802 58.1133 691.51 58.0791 691.173 58.0791C690.804 58.0791 690.53 58.1816 690.353 58.3867C690.175 58.5918 690.086 58.8949 690.086 59.2959V67ZM691.228 59.6035V61.0459H687.27V59.6035H691.228ZM693.88 59.6035V67H691.959V59.6035H693.88ZM698.077 65.5439C698.255 65.5439 698.408 65.5075 698.535 65.4346C698.667 65.3617 698.768 65.2432 698.836 65.0791C698.904 64.915 698.941 64.7031 698.945 64.4434H700.743C700.743 64.9993 700.625 65.4801 700.388 65.8857C700.155 66.2868 699.841 66.5967 699.444 66.8154C699.052 67.0296 698.608 67.1367 698.111 67.1367C697.615 67.1367 697.182 67.057 696.812 66.8975C696.443 66.738 696.138 66.5055 695.896 66.2002C695.66 65.8949 695.479 65.5234 695.356 65.0859C695.238 64.6439 695.179 64.138 695.179 63.5684V63.0283C695.179 62.4678 695.238 61.9665 695.356 61.5244C695.479 61.0824 695.66 60.7087 695.896 60.4033C696.138 60.098 696.441 59.8656 696.806 59.7061C697.175 59.5465 697.608 59.4668 698.104 59.4668C698.638 59.4668 699.1 59.5785 699.492 59.8018C699.884 60.0205 700.189 60.3441 700.408 60.7725C700.632 61.2008 700.743 61.7295 700.743 62.3584H698.945C698.941 62.0758 698.907 61.8411 698.843 61.6543C698.784 61.4629 698.69 61.3171 698.562 61.2168C698.439 61.112 698.275 61.0596 698.07 61.0596C697.856 61.0596 697.683 61.1051 697.551 61.1963C697.423 61.2829 697.325 61.4105 697.257 61.5791C697.193 61.7432 697.15 61.9482 697.127 62.1943C697.104 62.4404 697.093 62.7184 697.093 63.0283V63.5684C697.093 63.901 697.102 64.1904 697.12 64.4365C697.143 64.6781 697.186 64.8831 697.25 65.0518C697.318 65.2158 697.416 65.3389 697.544 65.4209C697.676 65.5029 697.854 65.5439 698.077 65.5439ZM705.104 65.2979V61.8799C705.104 61.6566 705.077 61.4788 705.022 61.3467C704.972 61.2145 704.895 61.1188 704.79 61.0596C704.69 60.9958 704.567 60.9639 704.421 60.9639C704.257 60.9639 704.12 60.998 704.011 61.0664C703.901 61.1348 703.819 61.2327 703.765 61.3604C703.715 61.488 703.689 61.6406 703.689 61.8184H701.769C701.769 61.4993 701.83 61.1986 701.953 60.916C702.076 60.6289 702.256 60.3783 702.493 60.1641C702.735 59.9453 703.022 59.7744 703.354 59.6514C703.687 59.5283 704.061 59.4668 704.476 59.4668C704.968 59.4668 705.405 59.5511 705.788 59.7197C706.171 59.8838 706.474 60.1458 706.697 60.5059C706.921 60.8659 707.032 61.333 707.032 61.9072V65.2021C707.032 65.6169 707.053 65.9541 707.094 66.2139C707.139 66.4736 707.205 66.6969 707.292 66.8838V67H705.364C705.278 66.7949 705.212 66.5397 705.166 66.2344C705.125 65.9245 705.104 65.6123 705.104 65.2979ZM705.337 62.4814L705.344 63.6299H704.64C704.457 63.6299 704.298 63.6595 704.161 63.7188C704.029 63.778 703.917 63.8623 703.826 63.9717C703.735 64.0765 703.667 64.1995 703.621 64.3408C703.58 64.4821 703.56 64.6325 703.56 64.792C703.56 64.9697 703.585 65.1201 703.635 65.2432C703.685 65.3662 703.76 65.4596 703.86 65.5234C703.961 65.5872 704.079 65.6191 704.216 65.6191C704.425 65.6191 704.608 65.5758 704.763 65.4893C704.918 65.4027 705.032 65.2979 705.104 65.1748C705.182 65.0518 705.207 64.9378 705.18 64.833L705.617 65.5781C705.562 65.7467 705.487 65.9222 705.392 66.1045C705.3 66.2868 705.184 66.4554 705.043 66.6104C704.902 66.7653 704.726 66.8929 704.517 66.9932C704.312 67.0889 704.068 67.1367 703.785 67.1367C703.389 67.1367 703.026 67.0456 702.698 66.8633C702.37 66.681 702.11 66.4258 701.919 66.0977C701.732 65.7695 701.639 65.3799 701.639 64.9287C701.639 64.555 701.698 64.2178 701.816 63.917C701.939 63.6117 702.122 63.3542 702.363 63.1445C702.605 62.9303 702.91 62.7663 703.279 62.6523C703.648 62.5384 704.081 62.4814 704.578 62.4814H705.337ZM711.674 59.6035V61.0459H707.9V59.6035H711.674ZM708.769 57.7783H710.676V64.7441C710.676 64.9492 710.696 65.1064 710.737 65.2158C710.778 65.3252 710.84 65.4027 710.922 65.4482C711.008 65.4893 711.122 65.5098 711.264 65.5098C711.359 65.5098 711.448 65.5052 711.53 65.4961C711.612 65.4824 711.674 65.4688 711.715 65.4551V66.9521C711.564 67.0114 711.405 67.057 711.236 67.0889C711.072 67.1208 710.876 67.1367 710.648 67.1367C710.266 67.1367 709.933 67.0638 709.65 66.918C709.372 66.7721 709.156 66.5397 709.001 66.2207C708.846 65.8971 708.769 65.4733 708.769 64.9492V57.7783ZM714.75 59.6035V67H712.829V59.6035H714.75ZM712.74 57.6895C712.74 57.3932 712.834 57.1494 713.021 56.958C713.212 56.762 713.467 56.6641 713.786 56.6641C714.11 56.6641 714.365 56.762 714.552 56.958C714.739 57.1494 714.832 57.3932 714.832 57.6895C714.832 57.9811 714.736 58.2249 714.545 58.4209C714.358 58.6123 714.107 58.708 713.793 58.708C713.469 58.708 713.212 58.6123 713.021 58.4209C712.834 58.2249 712.74 57.9811 712.74 57.6895ZM719.248 67.1367C718.742 67.1367 718.293 67.0592 717.901 66.9043C717.514 66.7493 717.186 66.526 716.917 66.2344C716.648 65.9382 716.443 65.5804 716.302 65.1611C716.16 64.7419 716.09 64.2633 716.09 63.7256V63.1172C716.09 62.5156 716.158 61.9893 716.295 61.5381C716.432 61.0824 716.625 60.6995 716.876 60.3896C717.127 60.0798 717.434 59.8496 717.799 59.6992C718.168 59.5443 718.585 59.4668 719.05 59.4668C719.515 59.4668 719.923 59.5443 720.273 59.6992C720.629 59.8496 720.923 60.0775 721.155 60.3828C721.388 60.6836 721.563 61.0573 721.682 61.5039C721.8 61.9505 721.859 62.4701 721.859 63.0625V63.9375H716.903V62.5908H719.979V62.4199C719.979 62.1191 719.948 61.8685 719.884 61.668C719.82 61.4629 719.72 61.3102 719.583 61.21C719.446 61.1097 719.264 61.0596 719.036 61.0596C718.845 61.0596 718.683 61.0983 718.551 61.1758C718.419 61.2533 718.314 61.374 718.236 61.5381C718.159 61.7021 718.102 61.9163 718.065 62.1807C718.029 62.4404 718.011 62.7526 718.011 63.1172V63.7256C718.011 64.0674 718.04 64.3545 718.1 64.5869C718.159 64.8148 718.245 65.0016 718.359 65.1475C718.478 65.2887 718.621 65.3913 718.79 65.4551C718.959 65.5143 719.155 65.5439 719.378 65.5439C719.715 65.5439 720.018 65.4847 720.287 65.3662C720.561 65.2432 720.793 65.0768 720.984 64.8672L721.75 66.0293C721.618 66.2025 721.436 66.3757 721.203 66.5488C720.971 66.722 720.693 66.8633 720.369 66.9727C720.046 67.082 719.672 67.1367 719.248 67.1367ZM727.574 61.6816L729.188 60.4443C729.424 60.2529 729.573 60.0729 729.632 59.9043C729.691 59.7311 729.721 59.5443 729.721 59.3438C729.721 59.1387 729.661 58.9473 729.543 58.7695C729.424 58.5872 729.263 58.4961 729.058 58.4961C728.907 58.4961 728.782 58.5417 728.682 58.6328C728.586 58.724 728.513 58.8447 728.463 58.9951C728.417 59.1455 728.395 59.3141 728.395 59.501C728.395 59.7015 728.442 59.9066 728.538 60.1162C728.634 60.3258 728.761 60.5492 728.921 60.7861C729.08 61.0186 729.256 61.2715 729.447 61.5449L733.344 67H731.17L728.06 62.5908C727.791 62.1898 727.551 61.8229 727.342 61.4902C727.137 61.153 726.975 60.8249 726.856 60.5059C726.743 60.1868 726.686 59.8587 726.686 59.5215C726.686 59.002 726.784 58.5462 726.979 58.1543C727.18 57.7578 727.458 57.4502 727.813 57.2314C728.169 57.0127 728.586 56.9033 729.064 56.9033C729.511 56.9033 729.903 57.0104 730.24 57.2246C730.577 57.4388 730.837 57.7214 731.02 58.0723C731.206 58.4186 731.3 58.8014 731.3 59.2207C731.3 59.5352 731.254 59.8223 731.163 60.082C731.072 60.3418 730.942 60.5833 730.773 60.8066C730.609 61.0299 730.409 61.235 730.172 61.4219L728.258 62.9805C728.162 63.1263 728.089 63.2721 728.039 63.418C727.989 63.5592 727.952 63.696 727.93 63.8281C727.911 63.9557 727.902 64.0811 727.902 64.2041C727.902 64.4593 727.946 64.6917 728.032 64.9014C728.119 65.1064 728.233 65.266 728.374 65.3799C728.52 65.4938 728.682 65.5508 728.859 65.5508C729.156 65.5508 729.44 65.4688 729.714 65.3047C729.992 65.1406 730.243 64.9059 730.466 64.6006C730.689 64.2952 730.865 63.9329 730.992 63.5137C731.124 63.0898 731.19 62.625 731.19 62.1191H732.811C732.811 62.6341 732.767 63.124 732.681 63.5889C732.594 64.0537 732.451 64.4821 732.25 64.874C732.049 65.266 731.781 65.6146 731.443 65.9199C731.421 65.9382 731.384 65.9701 731.334 66.0156C731.288 66.0612 731.252 66.0954 731.225 66.1182C730.855 66.4645 730.47 66.722 730.069 66.8906C729.673 67.0592 729.238 67.1436 728.764 67.1436C728.189 67.1436 727.695 67.0228 727.28 66.7812C726.866 66.5397 726.544 66.207 726.316 65.7832C726.093 65.3548 725.981 64.8672 725.981 64.3203C725.981 63.9193 726.048 63.5706 726.18 63.2744C726.316 62.9736 726.503 62.6979 726.74 62.4473C726.982 62.1966 727.26 61.9414 727.574 61.6816ZM676.954 70.5H678.861V79.2842L678.725 81H676.954V70.5ZM682.703 77.0557V77.541C682.703 78.1426 682.655 78.6667 682.56 79.1133C682.468 79.5599 682.325 79.9336 682.129 80.2344C681.938 80.5352 681.691 80.7607 681.391 80.9111C681.09 81.0615 680.734 81.1367 680.324 81.1367C679.955 81.1367 679.638 81.0501 679.374 80.877C679.11 80.6992 678.886 80.4554 678.704 80.1455C678.526 79.8311 678.381 79.4642 678.267 79.0449C678.157 78.6211 678.077 78.1585 678.027 77.6572V76.9395C678.073 76.4473 678.15 75.9893 678.26 75.5654C678.374 75.1416 678.52 74.7747 678.697 74.4648C678.875 74.1504 679.096 73.9066 679.36 73.7334C679.629 73.5557 679.946 73.4668 680.311 73.4668C680.73 73.4668 681.09 73.5443 681.391 73.6992C681.691 73.8496 681.938 74.0752 682.129 74.376C682.325 74.6768 682.468 75.0527 682.56 75.5039C682.655 75.9505 682.703 76.4678 682.703 77.0557ZM680.796 77.541V77.0557C680.796 76.7139 680.782 76.4199 680.755 76.1738C680.728 75.9277 680.677 75.7227 680.604 75.5586C680.532 75.3945 680.427 75.2715 680.29 75.1895C680.158 75.1074 679.982 75.0664 679.764 75.0664C679.568 75.0664 679.404 75.1051 679.271 75.1826C679.139 75.2555 679.025 75.3649 678.93 75.5107C678.839 75.652 678.77 75.8206 678.725 76.0166C678.684 76.208 678.661 76.4199 678.656 76.6523V77.9443C678.661 78.2588 678.7 78.5368 678.772 78.7783C678.845 79.0199 678.962 79.2067 679.121 79.3389C679.285 79.471 679.504 79.5371 679.777 79.5371C679.992 79.5371 680.165 79.5007 680.297 79.4277C680.429 79.3548 680.532 79.2386 680.604 79.0791C680.682 78.9196 680.732 78.7145 680.755 78.4639C680.782 78.2087 680.796 77.901 680.796 77.541ZM686.859 81.1367C686.354 81.1367 685.905 81.0592 685.513 80.9043C685.125 80.7493 684.797 80.526 684.528 80.2344C684.259 79.9382 684.054 79.5804 683.913 79.1611C683.772 78.7419 683.701 78.2633 683.701 77.7256V77.1172C683.701 76.5156 683.77 75.9893 683.906 75.5381C684.043 75.0824 684.237 74.6995 684.487 74.3896C684.738 74.0798 685.046 73.8496 685.41 73.6992C685.779 73.5443 686.196 73.4668 686.661 73.4668C687.126 73.4668 687.534 73.5443 687.885 73.6992C688.24 73.8496 688.534 74.0775 688.767 74.3828C688.999 74.6836 689.174 75.0573 689.293 75.5039C689.411 75.9505 689.471 76.4701 689.471 77.0625V77.9375H684.515V76.5908H687.591V76.4199C687.591 76.1191 687.559 75.8685 687.495 75.668C687.431 75.4629 687.331 75.3102 687.194 75.21C687.058 75.1097 686.875 75.0596 686.647 75.0596C686.456 75.0596 686.294 75.0983 686.162 75.1758C686.03 75.2533 685.925 75.374 685.848 75.5381C685.77 75.7021 685.713 75.9163 685.677 76.1807C685.64 76.4404 685.622 76.7526 685.622 77.1172V77.7256C685.622 78.0674 685.652 78.3545 685.711 78.5869C685.77 78.8148 685.857 79.0016 685.971 79.1475C686.089 79.2887 686.233 79.3913 686.401 79.4551C686.57 79.5143 686.766 79.5439 686.989 79.5439C687.326 79.5439 687.63 79.4847 687.898 79.3662C688.172 79.2432 688.404 79.0768 688.596 78.8672L689.361 80.0293C689.229 80.2025 689.047 80.3757 688.814 80.5488C688.582 80.722 688.304 80.8633 687.98 80.9727C687.657 81.082 687.283 81.1367 686.859 81.1367ZM693.805 73.6035V75.0459H690.031V73.6035H693.805ZM690.899 71.7783H692.807V78.7441C692.807 78.9492 692.827 79.1064 692.868 79.2158C692.909 79.3252 692.971 79.4027 693.053 79.4482C693.139 79.4893 693.253 79.5098 693.395 79.5098C693.49 79.5098 693.579 79.5052 693.661 79.4961C693.743 79.4824 693.805 79.4688 693.846 79.4551V80.9521C693.695 81.0114 693.536 81.057 693.367 81.0889C693.203 81.1208 693.007 81.1367 692.779 81.1367C692.396 81.1367 692.064 81.0638 691.781 80.918C691.503 80.7721 691.287 80.5397 691.132 80.2207C690.977 79.8971 690.899 79.4733 690.899 78.9492V71.7783ZM698.132 79.2979V75.8799C698.132 75.6566 698.104 75.4788 698.05 75.3467C698 75.2145 697.922 75.1188 697.817 75.0596C697.717 74.9958 697.594 74.9639 697.448 74.9639C697.284 74.9639 697.147 74.998 697.038 75.0664C696.929 75.1348 696.847 75.2327 696.792 75.3604C696.742 75.488 696.717 75.6406 696.717 75.8184H694.796C694.796 75.4993 694.857 75.1986 694.98 74.916C695.104 74.6289 695.284 74.3783 695.521 74.1641C695.762 73.9453 696.049 73.7744 696.382 73.6514C696.715 73.5283 697.088 73.4668 697.503 73.4668C697.995 73.4668 698.433 73.5511 698.815 73.7197C699.198 73.8838 699.501 74.1458 699.725 74.5059C699.948 74.8659 700.06 75.333 700.06 75.9072V79.2021C700.06 79.6169 700.08 79.9541 700.121 80.2139C700.167 80.4736 700.233 80.6969 700.319 80.8838V81H698.392C698.305 80.7949 698.239 80.5397 698.193 80.2344C698.152 79.9245 698.132 79.6123 698.132 79.2979ZM698.364 76.4814L698.371 77.6299H697.667C697.485 77.6299 697.325 77.6595 697.188 77.7188C697.056 77.778 696.945 77.8623 696.854 77.9717C696.762 78.0765 696.694 78.1995 696.648 78.3408C696.607 78.4821 696.587 78.6325 696.587 78.792C696.587 78.9697 696.612 79.1201 696.662 79.2432C696.712 79.3662 696.787 79.4596 696.888 79.5234C696.988 79.5872 697.106 79.6191 697.243 79.6191C697.453 79.6191 697.635 79.5758 697.79 79.4893C697.945 79.4027 698.059 79.2979 698.132 79.1748C698.209 79.0518 698.234 78.9378 698.207 78.833L698.645 79.5781C698.59 79.7467 698.515 79.9222 698.419 80.1045C698.328 80.2868 698.212 80.4554 698.07 80.6104C697.929 80.7653 697.754 80.8929 697.544 80.9932C697.339 81.0889 697.095 81.1367 696.812 81.1367C696.416 81.1367 696.054 81.0456 695.726 80.8633C695.397 80.681 695.138 80.4258 694.946 80.0977C694.759 79.7695 694.666 79.3799 694.666 78.9287C694.666 78.555 694.725 78.2178 694.844 77.917C694.967 77.6117 695.149 77.3542 695.391 77.1445C695.632 76.9303 695.938 76.7663 696.307 76.6523C696.676 76.5384 697.109 76.4814 697.605 76.4814H698.364ZM703.484 70.5V81H701.563V70.5H703.484ZM707.012 73.6035V81H705.091V73.6035H707.012ZM705.002 71.6895C705.002 71.3932 705.095 71.1494 705.282 70.958C705.474 70.762 705.729 70.6641 706.048 70.6641C706.371 70.6641 706.627 70.762 706.813 70.958C707 71.1494 707.094 71.3932 707.094 71.6895C707.094 71.9811 706.998 72.2249 706.807 72.4209C706.62 72.6123 706.369 72.708 706.055 72.708C705.731 72.708 705.474 72.6123 705.282 72.4209C705.095 72.2249 705.002 71.9811 705.002 71.6895ZM710.409 75.1826V81H708.488V73.6035H710.286L710.409 75.1826ZM710.122 77.0488L709.609 77.0625C709.6 76.5065 709.653 76.0075 709.767 75.5654C709.885 75.1234 710.051 74.7474 710.266 74.4375C710.484 74.123 710.744 73.8838 711.045 73.7197C711.35 73.5511 711.69 73.4668 712.063 73.4668C712.351 73.4668 712.613 73.5169 712.85 73.6172C713.091 73.7174 713.299 73.877 713.472 74.0957C713.645 74.3145 713.779 74.6061 713.875 74.9707C713.971 75.3307 714.019 75.7728 714.019 76.2969V81H712.098V76.2832C712.098 75.9642 712.066 75.7181 712.002 75.5449C711.938 75.3672 711.842 75.2441 711.715 75.1758C711.587 75.1029 711.428 75.0664 711.236 75.0664C711.054 75.0664 710.892 75.1188 710.751 75.2236C710.61 75.3239 710.491 75.4629 710.396 75.6406C710.304 75.8184 710.234 76.028 710.184 76.2695C710.138 76.5111 710.118 76.7708 710.122 77.0488ZM719.31 73.6035H721.046V81C721.046 81.6745 720.916 82.2259 720.656 82.6543C720.401 83.0872 720.043 83.404 719.583 83.6045C719.127 83.8096 718.594 83.9121 717.983 83.9121C717.751 83.9121 717.489 83.8802 717.197 83.8164C716.91 83.7526 716.632 83.6546 716.363 83.5225C716.094 83.3949 715.873 83.2399 715.7 83.0576L716.35 81.7314C716.527 81.9092 716.76 82.0596 717.047 82.1826C717.334 82.3102 717.617 82.374 717.895 82.374C718.163 82.374 718.387 82.3307 718.564 82.2441C718.747 82.1621 718.883 82.0208 718.975 81.8203C719.07 81.6198 719.118 81.3509 719.118 81.0137V75.3193L719.31 73.6035ZM715.181 77.5615V77.0693C715.181 76.4678 715.238 75.9414 715.352 75.4902C715.465 75.0391 715.63 74.6631 715.844 74.3623C716.058 74.0615 716.32 73.8382 716.63 73.6924C716.944 73.542 717.295 73.4668 717.683 73.4668C718.088 73.4668 718.428 73.5557 718.701 73.7334C718.975 73.9066 719.196 74.1504 719.364 74.4648C719.537 74.7793 719.67 75.1507 719.761 75.5791C719.856 76.0075 719.929 76.4769 719.979 76.9873V77.6982C719.929 78.1813 719.847 78.6325 719.733 79.0518C719.624 79.471 719.478 79.8356 719.296 80.1455C719.114 80.4554 718.89 80.6992 718.626 80.877C718.362 81.0501 718.043 81.1367 717.669 81.1367C717.286 81.1367 716.94 81.0592 716.63 80.9043C716.325 80.7493 716.062 80.5215 715.844 80.2207C715.63 79.9154 715.465 79.5417 715.352 79.0996C715.238 78.653 715.181 78.1403 715.181 77.5615ZM717.102 77.0693V77.5615C717.102 77.9079 717.122 78.2064 717.163 78.457C717.209 78.7031 717.277 78.9059 717.368 79.0654C717.459 79.2204 717.576 79.3366 717.717 79.4141C717.863 79.487 718.034 79.5234 718.229 79.5234C718.507 79.5234 718.729 79.4596 718.893 79.332C719.061 79.1999 719.184 79.0199 719.262 78.792C719.344 78.5596 719.389 78.293 719.398 77.9922V76.7002C719.394 76.4495 719.364 76.224 719.31 76.0234C719.259 75.8229 719.189 75.652 719.098 75.5107C719.007 75.3695 718.888 75.2601 718.742 75.1826C718.601 75.1051 718.435 75.0664 718.243 75.0664C718.047 75.0664 717.879 75.1051 717.737 75.1826C717.596 75.2601 717.478 75.3809 717.382 75.5449C717.291 75.7044 717.22 75.9118 717.17 76.167C717.124 76.4176 717.102 76.7184 717.102 77.0693Z" fill="url(#paint2_linear_363_3013)"/>
<path fill-rule="evenodd" clip-rule="evenodd" d="M376 33H83V31H376V33Z" fill="url(#paint3_linear_363_3013)"/>
<path fill-rule="evenodd" clip-rule="evenodd" d="M685 33H404V31H685V33Z" fill="url(#paint4_linear_363_3013)"/>
<g filter="url(#filter0_d_363_3013)">
<path d="M69 17C60.7125 17 54 23.7125 54 32C54 34.8125 54.7875 37.475 56.175 39.725C57.497 41.9468 59.3748 43.7861 61.6236 45.0617C63.8724 46.3373 66.4146 47.0053 69 47C74.475 47 79.2375 44.075 81.825 39.725C83.2125 37.475 84 34.8125 84 32C84 23.7125 77.2875 17 69 17ZM76.3875 30.7625L68.4 38.15C67.875 38.6375 67.1625 38.9 66.4875 38.9C65.775 38.9 65.0625 38.6375 64.5 38.075L60.7875 34.3625C60.2644 33.8332 59.9711 33.1191 59.9711 32.375C59.9711 31.6309 60.2644 30.9168 60.7875 30.3875C61.875 29.3 63.675 29.3 64.7625 30.3875L66.5625 32.1875L72.5625 26.6375C73.6875 25.5875 75.4875 25.6625 76.5375 26.7875C77.5875 27.9125 77.5125 29.7125 76.3875 30.7625Z" fill="url(#paint5_linear_363_3013)"/>
</g>
<g filter="url(#filter1_d_363_3013)">
<path d="M390 17C381.712 17 375 23.7125 375 32C375 34.8125 375.788 37.475 377.175 39.725C378.497 41.9468 380.375 43.7861 382.624 45.0617C384.872 46.3373 387.415 47.0053 390 47C395.475 47 400.238 44.075 402.825 39.725C404.213 37.475 405 34.8125 405 32C405 23.7125 398.288 17 390 17ZM397.387 30.7625L389.4 38.15C388.875 38.6375 388.162 38.9 387.487 38.9C386.775 38.9 386.062 38.6375 385.5 38.075L381.787 34.3625C381.264 33.8332 380.971 33.1191 380.971 32.375C380.971 31.6309 381.264 30.9168 381.787 30.3875C382.875 29.3 384.675 29.3 385.762 30.3875L387.562 32.1875L393.562 26.6375C394.687 25.5875 396.488 25.6625 397.538 26.7875C398.588 27.9125 398.512 29.7125 397.387 30.7625Z" fill="url(#paint6_linear_363_3013)"/>
</g>
<g filter="url(#filter2_d_363_3013)">
<path d="M697 17C688.712 17 682 23.7125 682 32C682 34.8125 682.788 37.475 684.175 39.725C685.497 41.9468 687.375 43.7861 689.624 45.0617C691.872 46.3373 694.415 47.0053 697 47C702.475 47 707.238 44.075 709.825 39.725C711.213 37.475 712 34.8125 712 32C712 23.7125 705.288 17 697 17ZM704.387 30.7625L696.4 38.15C695.875 38.6375 695.162 38.9 694.487 38.9C693.775 38.9 693.062 38.6375 692.5 38.075L688.787 34.3625C688.264 33.8332 687.971 33.1191 687.971 32.375C687.971 31.6309 688.264 30.9168 688.787 30.3875C689.875 29.3 691.675 29.3 692.762 30.3875L694.562 32.1875L700.562 26.6375C701.687 25.5875 703.488 25.6625 704.538 26.7875C705.588 27.9125 705.512 29.7125 704.387 30.7625Z" fill="url(#paint7_linear_363_3013)"/>
</g>
<defs>
<filter id="filter0_d_363_3013" x="37" y="0" width="74" height="74" filterUnits="userSpaceOnUse" color-interpolation-filters="sRGB">
<feFlood flood-opacity="0" result="BackgroundImageFix"/>
<feColorMatrix in="SourceAlpha" type="matrix" values="0 0 0 0 0 0 0 0 0 0 0 0 0 0 0 0 0 0 127 0" result="hardAlpha"/>
<feOffset dx="5" dy="5"/>
<feGaussianBlur stdDeviation="11"/>
<feComposite in2="hardAlpha" operator="out"/>
<feColorMatrix type="matrix" values="0 0 0 0 0.0392157 0 0 0 0 0.560784 0 0 0 0 0.309804 0 0 0 0.2 0"/>
<feBlend mode="normal" in2="BackgroundImageFix" result="effect1_dropShadow_363_3013"/>
<feBlend mode="normal" in="SourceGraphic" in2="effect1_dropShadow_363_3013" result="shape"/>
</filter>
<filter id="filter1_d_363_3013" x="358" y="0" width="74" height="74" filterUnits="userSpaceOnUse" color-interpolation-filters="sRGB">
<feFlood flood-opacity="0" result="BackgroundImageFix"/>
<feColorMatrix in="SourceAlpha" type="matrix" values="0 0 0 0 0 0 0 0 0 0 0 0 0 0 0 0 0 0 127 0" result="hardAlpha"/>
<feOffset dx="5" dy="5"/>
<feGaussianBlur stdDeviation="11"/>
<feComposite in2="hardAlpha" operator="out"/>
<feColorMatrix type="matrix" values="0 0 0 0 0.0392157 0 0 0 0 0.560784 0 0 0 0 0.309804 0 0 0 0.2 0"/>
<feBlend mode="normal" in2="BackgroundImageFix" result="effect1_dropShadow_363_3013"/>
<feBlend mode="normal" in="SourceGraphic" in2="effect1_dropShadow_363_3013" result="shape"/>
</filter>
<filter id="filter2_d_363_3013" x="665" y="0" width="74" height="74" filterUnits="userSpaceOnUse" color-interpolation-filters="sRGB">
<feFlood flood-opacity="0" result="BackgroundImageFix"/>
<feColorMatrix in="SourceAlpha" type="matrix" values="0 0 0 0 0 0 0 0 0 0 0 0 0 0 0 0 0 0 127 0" result="hardAlpha"/>
<feOffset dx="5" dy="5"/>
<feGaussianBlur stdDeviation="11"/>
<feComposite in2="hardAlpha" operator="out"/>
<feColorMatrix type="matrix" values="0 0 0 0 0.0392157 0 0 0 0 0.560784 0 0 0 0 0.309804 0 0 0 0.2 0"/>
<feBlend mode="normal" in2="BackgroundImageFix" result="effect1_dropShadow_363_3013"/>
<feBlend mode="normal" in="SourceGraphic" in2="effect1_dropShadow_363_3013" result="shape"/>
</filter>
<linearGradient id="paint0_linear_363_3013" x1="68.5" y1="77" x2="68.5" y2="57" gradientUnits="userSpaceOnUse">
<stop stop-color="#5CCC94"/>
<stop offset="1" stop-color="#8CCAAE"/>
</linearGradient>
<linearGradient id="paint1_linear_363_3013" x1="392" y1="77" x2="392" y2="57" gradientUnits="userSpaceOnUse">
<stop stop-color="#5CCC94"/>
<stop offset="1" stop-color="#8CCAAE"/>
</linearGradient>
<linearGradient id="paint2_linear_363_3013" x1="699" y1="83" x2="699" y2="55" gradientUnits="userSpaceOnUse">
<stop stop-color="#5CCC94"/>
<stop offset="1" stop-color="#8CCAAE"/>
</linearGradient>
<linearGradient id="paint3_linear_363_3013" x1="229.5" y1="33" x2="229.5" y2="31" gradientUnits="userSpaceOnUse">
<stop stop-color="#5CCC94"/>
<stop offset="1" stop-color="#8CCAAE"/>
</linearGradient>
<linearGradient id="paint4_linear_363_3013" x1="544.5" y1="33" x2="544.5" y2="31" gradientUnits="userSpaceOnUse">
<stop stop-color="#5CCC94"/>
<stop offset="1" stop-color="#8CCAAE"/>
</linearGradient>
<linearGradient id="paint5_linear_363_3013" x1="69" y1="47" x2="69" y2="17" gradientUnits="userSpaceOnUse">
<stop stop-color="#5CCC94"/>
<stop offset="1" stop-color="#8CCAAE"/>
</linearGradient>
<linearGradient id="paint6_linear_363_3013" x1="390" y1="47" x2="390" y2="17" gradientUnits="userSpaceOnUse">
<stop stop-color="#5CCC94"/>
<stop offset="1" stop-color="#8CCAAE"/>
</linearGradient>
<linearGradient id="paint7_linear_363_3013" x1="697" y1="47" x2="697" y2="17" gradientUnits="userSpaceOnUse">
<stop stop-color="#5CCC94"/>
<stop offset="1" stop-color="#8CCAAE"/>
</linearGradient>
</defs>
</svg>
