<svg width="733" height="86" viewBox="0 0 733 86" fill="none" xmlns="http://www.w3.org/2000/svg">
<path d="M25.2148 62.0469V72H23.2803L20.1562 65.7725V72H18.2559V62.0469H20.1631L23.3145 68.3428V62.0469H25.2148ZM30.3076 70.2227V64.6035H32.2285V72H30.4238L30.3076 70.2227ZM30.5264 68.6982L31.0596 68.6846C31.0596 69.1813 31.0117 69.6416 30.916 70.0654C30.8203 70.4847 30.6768 70.8493 30.4854 71.1592C30.2939 71.4691 30.0547 71.7106 29.7676 71.8838C29.4805 72.0524 29.141 72.1367 28.749 72.1367C28.4482 72.1367 28.1702 72.0866 27.915 71.9863C27.6644 71.8815 27.4479 71.7197 27.2656 71.501C27.0833 71.2777 26.9398 70.9928 26.835 70.6465C26.7347 70.2956 26.6846 69.874 26.6846 69.3818V64.6035H28.6055V69.4023C28.6055 69.6029 28.6237 69.776 28.6602 69.9219C28.6966 70.0632 28.7467 70.1794 28.8105 70.2705C28.8743 70.3617 28.9495 70.4277 29.0361 70.4688C29.1227 70.5052 29.2207 70.5234 29.3301 70.5234C29.6309 70.5234 29.8678 70.446 30.041 70.291C30.2188 70.1315 30.3441 69.915 30.417 69.6416C30.4899 69.3636 30.5264 69.0492 30.5264 68.6982ZM35.5508 66.1348V72H33.6299V64.6035H35.4346L35.5508 66.1348ZM35.2773 68.0488L34.751 68.0625C34.7419 67.543 34.7874 67.0645 34.8877 66.627C34.988 66.1895 35.1383 65.8089 35.3389 65.4854C35.5439 65.1618 35.8014 64.9111 36.1113 64.7334C36.4212 64.5557 36.7835 64.4668 37.1982 64.4668C37.4671 64.4668 37.7155 64.5169 37.9434 64.6172C38.1712 64.7129 38.3695 64.8656 38.5381 65.0752C38.7067 65.2803 38.8366 65.5492 38.9277 65.8818C39.0189 66.21 39.0645 66.6042 39.0645 67.0645V72H37.1504V67.2969C37.1504 66.9688 37.1185 66.7181 37.0547 66.5449C36.9909 66.3672 36.8997 66.2441 36.7812 66.1758C36.6628 66.1029 36.5169 66.0664 36.3438 66.0664C36.1615 66.0664 36.002 66.1165 35.8652 66.2168C35.7285 66.3171 35.6169 66.4583 35.5303 66.6406C35.4482 66.8184 35.3844 67.028 35.3389 67.2695C35.2979 67.5111 35.2773 67.7708 35.2773 68.0488ZM38.8799 67.8574L38.1895 67.9463C38.1803 67.4587 38.2236 67.0052 38.3193 66.5859C38.415 66.1621 38.5632 65.793 38.7637 65.4785C38.9642 65.1595 39.2148 64.9111 39.5156 64.7334C39.821 64.5557 40.1742 64.4668 40.5752 64.4668C40.876 64.4668 41.1494 64.5169 41.3955 64.6172C41.6416 64.7174 41.8512 64.8792 42.0244 65.1025C42.2021 65.3213 42.3366 65.6107 42.4277 65.9707C42.5234 66.3307 42.5713 66.7682 42.5713 67.2832V72H40.6504V67.29C40.6504 66.9574 40.6185 66.7021 40.5547 66.5244C40.4909 66.3467 40.3997 66.2259 40.2812 66.1621C40.1628 66.0983 40.0215 66.0664 39.8574 66.0664C39.6934 66.0664 39.5498 66.112 39.4268 66.2031C39.3083 66.2943 39.208 66.4219 39.126 66.5859C39.0439 66.7454 38.9824 66.9346 38.9414 67.1533C38.9004 67.3675 38.8799 67.6022 38.8799 67.8574ZM45.9414 66.1348V72H44.0205V64.6035H45.8252L45.9414 66.1348ZM45.668 68.0488L45.1416 68.0625C45.1325 67.543 45.1781 67.0645 45.2783 66.627C45.3786 66.1895 45.529 65.8089 45.7295 65.4854C45.9346 65.1618 46.1921 64.9111 46.502 64.7334C46.8118 64.5557 47.1742 64.4668 47.5889 64.4668C47.8577 64.4668 48.1061 64.5169 48.334 64.6172C48.5618 64.7129 48.7601 64.8656 48.9287 65.0752C49.0973 65.2803 49.2272 65.5492 49.3184 65.8818C49.4095 66.21 49.4551 66.6042 49.4551 67.0645V72H47.541V67.2969C47.541 66.9688 47.5091 66.7181 47.4453 66.5449C47.3815 66.3672 47.2904 66.2441 47.1719 66.1758C47.0534 66.1029 46.9076 66.0664 46.7344 66.0664C46.5521 66.0664 46.3926 66.1165 46.2559 66.2168C46.1191 66.3171 46.0075 66.4583 45.9209 66.6406C45.8389 66.8184 45.7751 67.028 45.7295 67.2695C45.6885 67.5111 45.668 67.7708 45.668 68.0488ZM49.2705 67.8574L48.5801 67.9463C48.571 67.4587 48.6143 67.0052 48.71 66.5859C48.8057 66.1621 48.9538 65.793 49.1543 65.4785C49.3548 65.1595 49.6055 64.9111 49.9062 64.7334C50.2116 64.5557 50.5648 64.4668 50.9658 64.4668C51.2666 64.4668 51.54 64.5169 51.7861 64.6172C52.0322 64.7174 52.2419 64.8792 52.415 65.1025C52.5928 65.3213 52.7272 65.6107 52.8184 65.9707C52.9141 66.3307 52.9619 66.7682 52.9619 67.2832V72H51.041V67.29C51.041 66.9574 51.0091 66.7021 50.9453 66.5244C50.8815 66.3467 50.7904 66.2259 50.6719 66.1621C50.5534 66.0983 50.4121 66.0664 50.248 66.0664C50.084 66.0664 49.9404 66.112 49.8174 66.2031C49.6989 66.2943 49.5986 66.4219 49.5166 66.5859C49.4346 66.7454 49.373 66.9346 49.332 67.1533C49.291 67.3675 49.2705 67.6022 49.2705 67.8574ZM57.3848 72.1367C56.8789 72.1367 56.43 72.0592 56.0381 71.9043C55.6507 71.7493 55.3226 71.526 55.0537 71.2344C54.7848 70.9382 54.5798 70.5804 54.4385 70.1611C54.2972 69.7419 54.2266 69.2633 54.2266 68.7256V68.1172C54.2266 67.5156 54.2949 66.9893 54.4316 66.5381C54.5684 66.0824 54.762 65.6995 55.0127 65.3896C55.2633 65.0798 55.571 64.8496 55.9355 64.6992C56.3047 64.5443 56.7217 64.4668 57.1865 64.4668C57.6514 64.4668 58.0592 64.5443 58.4102 64.6992C58.7656 64.8496 59.0596 65.0775 59.292 65.3828C59.5244 65.6836 59.6999 66.0573 59.8184 66.5039C59.9368 66.9505 59.9961 67.4701 59.9961 68.0625V68.9375H55.04V67.5908H58.1162V67.4199C58.1162 67.1191 58.0843 66.8685 58.0205 66.668C57.9567 66.4629 57.8564 66.3102 57.7197 66.21C57.583 66.1097 57.4007 66.0596 57.1729 66.0596C56.9814 66.0596 56.8197 66.0983 56.6875 66.1758C56.5553 66.2533 56.4505 66.374 56.373 66.5381C56.2956 66.7021 56.2386 66.9163 56.2021 67.1807C56.1657 67.4404 56.1475 67.7526 56.1475 68.1172V68.7256C56.1475 69.0674 56.1771 69.3545 56.2363 69.5869C56.2956 69.8148 56.3822 70.0016 56.4961 70.1475C56.6146 70.2887 56.7581 70.3913 56.9268 70.4551C57.0954 70.5143 57.2913 70.5439 57.5146 70.5439C57.8519 70.5439 58.1549 70.4847 58.4238 70.3662C58.6973 70.2432 58.9297 70.0768 59.1211 69.8672L59.8867 71.0293C59.7546 71.2025 59.5723 71.3757 59.3398 71.5488C59.1074 71.722 58.8294 71.8633 58.5059 71.9727C58.1823 72.082 57.8086 72.1367 57.3848 72.1367ZM63.0176 66.251V72H61.1035V64.6035H62.9082L63.0176 66.251ZM64.7607 64.5488L64.7334 66.4561C64.6468 66.4378 64.542 66.4242 64.4189 66.415C64.3005 66.4059 64.1956 66.4014 64.1045 66.4014C63.8903 66.4014 63.708 66.4355 63.5576 66.5039C63.4072 66.5677 63.2819 66.6657 63.1816 66.7979C63.0859 66.9255 63.013 67.085 62.9629 67.2764C62.9128 67.4678 62.8831 67.6842 62.874 67.9258L62.5117 67.7891C62.5117 67.306 62.5482 66.8639 62.6211 66.4629C62.6986 66.0573 62.8125 65.7064 62.9629 65.4102C63.1133 65.1094 63.2933 64.877 63.5029 64.7129C63.7171 64.5488 63.9587 64.4668 64.2275 64.4668C64.3187 64.4668 64.4144 64.4759 64.5146 64.4941C64.6195 64.5078 64.7015 64.526 64.7607 64.5488ZM70.8789 61.4932V72H68.9648V61.4932H70.8789ZM74.7686 64.6035L72.1641 68.2812L70.5986 70.0381L69.9219 68.582L71.125 66.8252L72.4854 64.6035H74.7686ZM72.7725 72L71.1592 68.6025L72.4785 67.3857L74.9668 72H72.7725ZM78.5078 72.1367C78.002 72.1367 77.5531 72.0592 77.1611 71.9043C76.7738 71.7493 76.4456 71.526 76.1768 71.2344C75.9079 70.9382 75.7028 70.5804 75.5615 70.1611C75.4202 69.7419 75.3496 69.2633 75.3496 68.7256V68.1172C75.3496 67.5156 75.418 66.9893 75.5547 66.5381C75.6914 66.0824 75.8851 65.6995 76.1357 65.3896C76.3864 65.0798 76.694 64.8496 77.0586 64.6992C77.4277 64.5443 77.8447 64.4668 78.3096 64.4668C78.7744 64.4668 79.1823 64.5443 79.5332 64.6992C79.8887 64.8496 80.1826 65.0775 80.415 65.3828C80.6475 65.6836 80.8229 66.0573 80.9414 66.5039C81.0599 66.9505 81.1191 67.4701 81.1191 68.0625V68.9375H76.1631V67.5908H79.2393V67.4199C79.2393 67.1191 79.2074 66.8685 79.1436 66.668C79.0798 66.4629 78.9795 66.3102 78.8428 66.21C78.7061 66.1097 78.5238 66.0596 78.2959 66.0596C78.1045 66.0596 77.9427 66.0983 77.8105 66.1758C77.6784 66.2533 77.5736 66.374 77.4961 66.5381C77.4186 66.7021 77.3617 66.9163 77.3252 67.1807C77.2887 67.4404 77.2705 67.7526 77.2705 68.1172V68.7256C77.2705 69.0674 77.3001 69.3545 77.3594 69.5869C77.4186 69.8148 77.5052 70.0016 77.6191 70.1475C77.7376 70.2887 77.8812 70.3913 78.0498 70.4551C78.2184 70.5143 78.4144 70.5439 78.6377 70.5439C78.9749 70.5439 79.278 70.4847 79.5469 70.3662C79.8203 70.2432 80.0527 70.0768 80.2441 69.8672L81.0098 71.0293C80.8776 71.2025 80.6953 71.3757 80.4629 71.5488C80.2305 71.722 79.9525 71.8633 79.6289 71.9727C79.3053 72.082 78.9316 72.1367 78.5078 72.1367ZM84.1064 66.1826V72H82.1855V64.6035H83.9834L84.1064 66.1826ZM83.8193 68.0488L83.3066 68.0625C83.2975 67.5065 83.3499 67.0075 83.4639 66.5654C83.5824 66.1234 83.7487 65.7474 83.9629 65.4375C84.1816 65.123 84.4414 64.8838 84.7422 64.7197C85.0475 64.5511 85.387 64.4668 85.7607 64.4668C86.0479 64.4668 86.3099 64.5169 86.5469 64.6172C86.7884 64.7174 86.9958 64.877 87.1689 65.0957C87.3421 65.3145 87.4766 65.6061 87.5723 65.9707C87.668 66.3307 87.7158 66.7728 87.7158 67.2969V72H85.7949V67.2832C85.7949 66.9642 85.763 66.7181 85.6992 66.5449C85.6354 66.3672 85.5397 66.2441 85.4121 66.1758C85.2845 66.1029 85.125 66.0664 84.9336 66.0664C84.7513 66.0664 84.5895 66.1188 84.4482 66.2236C84.307 66.3239 84.1885 66.4629 84.0928 66.6406C84.0016 66.8184 83.931 67.028 83.8809 67.2695C83.8353 67.5111 83.8148 67.7708 83.8193 68.0488ZM92.3438 64.6035V66.0459H88.5703V64.6035H92.3438ZM89.4385 62.7783H91.3457V69.7441C91.3457 69.9492 91.3662 70.1064 91.4072 70.2158C91.4482 70.3252 91.5098 70.4027 91.5918 70.4482C91.6784 70.4893 91.7923 70.5098 91.9336 70.5098C92.0293 70.5098 92.1182 70.5052 92.2002 70.4961C92.2822 70.4824 92.3438 70.4688 92.3848 70.4551V71.9521C92.2344 72.0114 92.0749 72.057 91.9062 72.0889C91.7422 72.1208 91.5462 72.1367 91.3184 72.1367C90.9355 72.1367 90.6029 72.0638 90.3203 71.918C90.0423 71.7721 89.8258 71.5397 89.6709 71.2207C89.516 70.8971 89.4385 70.4733 89.4385 69.9492V62.7783ZM96.3906 72.1367C95.8848 72.1367 95.4359 72.0592 95.0439 71.9043C94.6566 71.7493 94.3285 71.526 94.0596 71.2344C93.7907 70.9382 93.5856 70.5804 93.4443 70.1611C93.3031 69.7419 93.2324 69.2633 93.2324 68.7256V68.1172C93.2324 67.5156 93.3008 66.9893 93.4375 66.5381C93.5742 66.0824 93.7679 65.6995 94.0186 65.3896C94.2692 65.0798 94.5768 64.8496 94.9414 64.6992C95.3105 64.5443 95.7275 64.4668 96.1924 64.4668C96.6572 64.4668 97.0651 64.5443 97.416 64.6992C97.7715 64.8496 98.0654 65.0775 98.2979 65.3828C98.5303 65.6836 98.7057 66.0573 98.8242 66.5039C98.9427 66.9505 99.002 67.4701 99.002 68.0625V68.9375H94.0459V67.5908H97.1221V67.4199C97.1221 67.1191 97.0902 66.8685 97.0264 66.668C96.9626 66.4629 96.8623 66.3102 96.7256 66.21C96.5889 66.1097 96.4066 66.0596 96.1787 66.0596C95.9873 66.0596 95.8255 66.0983 95.6934 66.1758C95.5612 66.2533 95.4564 66.374 95.3789 66.5381C95.3014 66.7021 95.2445 66.9163 95.208 67.1807C95.1715 67.4404 95.1533 67.7526 95.1533 68.1172V68.7256C95.1533 69.0674 95.1829 69.3545 95.2422 69.5869C95.3014 69.8148 95.388 70.0016 95.502 70.1475C95.6204 70.2887 95.764 70.3913 95.9326 70.4551C96.1012 70.5143 96.2972 70.5439 96.5205 70.5439C96.8577 70.5439 97.1608 70.4847 97.4297 70.3662C97.7031 70.2432 97.9355 70.0768 98.127 69.8672L98.8926 71.0293C98.7604 71.2025 98.5781 71.3757 98.3457 71.5488C98.1133 71.722 97.8353 71.8633 97.5117 71.9727C97.1882 72.082 96.8145 72.1367 96.3906 72.1367ZM102.023 61.4932V72H100.109V61.4932H102.023ZM105.913 64.6035L103.309 68.2812L101.743 70.0381L101.066 68.582L102.27 66.8252L103.63 64.6035H105.913ZM103.917 72L102.304 68.6025L103.623 67.3857L106.111 72H103.917ZM109.652 72.1367C109.146 72.1367 108.698 72.0592 108.306 71.9043C107.918 71.7493 107.59 71.526 107.321 71.2344C107.052 70.9382 106.847 70.5804 106.706 70.1611C106.565 69.7419 106.494 69.2633 106.494 68.7256V68.1172C106.494 67.5156 106.562 66.9893 106.699 66.5381C106.836 66.0824 107.03 65.6995 107.28 65.3896C107.531 65.0798 107.839 64.8496 108.203 64.6992C108.572 64.5443 108.989 64.4668 109.454 64.4668C109.919 64.4668 110.327 64.5443 110.678 64.6992C111.033 64.8496 111.327 65.0775 111.56 65.3828C111.792 65.6836 111.967 66.0573 112.086 66.5039C112.204 66.9505 112.264 67.4701 112.264 68.0625V68.9375H107.308V67.5908H110.384V67.4199C110.384 67.1191 110.352 66.8685 110.288 66.668C110.224 66.4629 110.124 66.3102 109.987 66.21C109.851 66.1097 109.668 66.0596 109.44 66.0596C109.249 66.0596 109.087 66.0983 108.955 66.1758C108.823 66.2533 108.718 66.374 108.641 66.5381C108.563 66.7021 108.506 66.9163 108.47 67.1807C108.433 67.4404 108.415 67.7526 108.415 68.1172V68.7256C108.415 69.0674 108.445 69.3545 108.504 69.5869C108.563 69.8148 108.65 70.0016 108.764 70.1475C108.882 70.2887 109.026 70.3913 109.194 70.4551C109.363 70.5143 109.559 70.5439 109.782 70.5439C110.119 70.5439 110.423 70.4847 110.691 70.3662C110.965 70.2432 111.197 70.0768 111.389 69.8672L112.154 71.0293C112.022 71.2025 111.84 71.3757 111.607 71.5488C111.375 71.722 111.097 71.8633 110.773 71.9727C110.45 72.082 110.076 72.1367 109.652 72.1367ZM115.251 66.1826V72H113.33V64.6035H115.128L115.251 66.1826ZM114.964 68.0488L114.451 68.0625C114.442 67.5065 114.494 67.0075 114.608 66.5654C114.727 66.1234 114.893 65.7474 115.107 65.4375C115.326 65.123 115.586 64.8838 115.887 64.7197C116.192 64.5511 116.532 64.4668 116.905 64.4668C117.192 64.4668 117.454 64.5169 117.691 64.6172C117.933 64.7174 118.14 64.877 118.313 65.0957C118.487 65.3145 118.621 65.6061 118.717 65.9707C118.812 66.3307 118.86 66.7728 118.86 67.2969V72H116.939V67.2832C116.939 66.9642 116.908 66.7181 116.844 66.5449C116.78 66.3672 116.684 66.2441 116.557 66.1758C116.429 66.1029 116.27 66.0664 116.078 66.0664C115.896 66.0664 115.734 66.1188 115.593 66.2236C115.451 66.3239 115.333 66.4629 115.237 66.6406C115.146 66.8184 115.076 67.028 115.025 67.2695C114.98 67.5111 114.959 67.7708 114.964 68.0488Z" fill="url(#paint0_linear_363_3004)"/>
<path d="M362.824 62.0469V72H360.821V62.0469H362.824ZM365.941 66.2783V67.9326H362.318V66.2783H365.941ZM366.324 62.0469V63.708H362.318V62.0469H366.324ZM370.426 70.2979V66.8799C370.426 66.6566 370.398 66.4788 370.344 66.3467C370.294 66.2145 370.216 66.1188 370.111 66.0596C370.011 65.9958 369.888 65.9639 369.742 65.9639C369.578 65.9639 369.441 65.998 369.332 66.0664C369.223 66.1348 369.141 66.2327 369.086 66.3604C369.036 66.488 369.011 66.6406 369.011 66.8184H367.09C367.09 66.4993 367.151 66.1986 367.274 65.916C367.397 65.6289 367.577 65.3783 367.814 65.1641C368.056 64.9453 368.343 64.7744 368.676 64.6514C369.008 64.5283 369.382 64.4668 369.797 64.4668C370.289 64.4668 370.727 64.5511 371.109 64.7197C371.492 64.8838 371.795 65.1458 372.019 65.5059C372.242 65.8659 372.354 66.333 372.354 66.9072V70.2021C372.354 70.6169 372.374 70.9541 372.415 71.2139C372.461 71.4736 372.527 71.6969 372.613 71.8838V72H370.686C370.599 71.7949 370.533 71.5397 370.487 71.2344C370.446 70.9245 370.426 70.6123 370.426 70.2979ZM370.658 67.4814L370.665 68.6299H369.961C369.779 68.6299 369.619 68.6595 369.482 68.7188C369.35 68.778 369.239 68.8623 369.147 68.9717C369.056 69.0765 368.988 69.1995 368.942 69.3408C368.901 69.4821 368.881 69.6325 368.881 69.792C368.881 69.9697 368.906 70.1201 368.956 70.2432C369.006 70.3662 369.081 70.4596 369.182 70.5234C369.282 70.5872 369.4 70.6191 369.537 70.6191C369.747 70.6191 369.929 70.5758 370.084 70.4893C370.239 70.4027 370.353 70.2979 370.426 70.1748C370.503 70.0518 370.528 69.9378 370.501 69.833L370.938 70.5781C370.884 70.7467 370.809 70.9222 370.713 71.1045C370.622 71.2868 370.506 71.4554 370.364 71.6104C370.223 71.7653 370.048 71.8929 369.838 71.9932C369.633 72.0889 369.389 72.1367 369.106 72.1367C368.71 72.1367 368.348 72.0456 368.02 71.8633C367.691 71.681 367.432 71.4258 367.24 71.0977C367.053 70.7695 366.96 70.3799 366.96 69.9287C366.96 69.555 367.019 69.2178 367.138 68.917C367.261 68.6117 367.443 68.3542 367.685 68.1445C367.926 67.9303 368.231 67.7663 368.601 67.6523C368.97 67.5384 369.403 67.4814 369.899 67.4814H370.658ZM376.441 70.5439C376.619 70.5439 376.772 70.5075 376.899 70.4346C377.032 70.3617 377.132 70.2432 377.2 70.0791C377.269 69.915 377.305 69.7031 377.31 69.4434H379.107C379.107 69.9993 378.989 70.4801 378.752 70.8857C378.52 71.2868 378.205 71.5967 377.809 71.8154C377.417 72.0296 376.972 72.1367 376.476 72.1367C375.979 72.1367 375.546 72.057 375.177 71.8975C374.808 71.738 374.502 71.5055 374.261 71.2002C374.024 70.8949 373.844 70.5234 373.721 70.0859C373.602 69.6439 373.543 69.138 373.543 68.5684V68.0283C373.543 67.4678 373.602 66.9665 373.721 66.5244C373.844 66.0824 374.024 65.7087 374.261 65.4033C374.502 65.098 374.805 64.8656 375.17 64.7061C375.539 64.5465 375.972 64.4668 376.469 64.4668C377.002 64.4668 377.465 64.5785 377.856 64.8018C378.248 65.0205 378.554 65.3441 378.772 65.7725C378.996 66.2008 379.107 66.7295 379.107 67.3584H377.31C377.305 67.0758 377.271 66.8411 377.207 66.6543C377.148 66.4629 377.054 66.3171 376.927 66.2168C376.804 66.112 376.64 66.0596 376.435 66.0596C376.22 66.0596 376.047 66.1051 375.915 66.1963C375.787 66.2829 375.689 66.4105 375.621 66.5791C375.557 66.7432 375.514 66.9482 375.491 67.1943C375.468 67.4404 375.457 67.7184 375.457 68.0283V68.5684C375.457 68.901 375.466 69.1904 375.484 69.4365C375.507 69.6781 375.55 69.8831 375.614 70.0518C375.683 70.2158 375.781 70.3389 375.908 70.4209C376.04 70.5029 376.218 70.5439 376.441 70.5439ZM383.435 64.6035V66.0459H379.661V64.6035H383.435ZM380.529 62.7783H382.437V69.7441C382.437 69.9492 382.457 70.1064 382.498 70.2158C382.539 70.3252 382.601 70.4027 382.683 70.4482C382.769 70.4893 382.883 70.5098 383.024 70.5098C383.12 70.5098 383.209 70.5052 383.291 70.4961C383.373 70.4824 383.435 70.4688 383.476 70.4551V71.9521C383.325 72.0114 383.166 72.057 382.997 72.0889C382.833 72.1208 382.637 72.1367 382.409 72.1367C382.026 72.1367 381.694 72.0638 381.411 71.918C381.133 71.7721 380.917 71.5397 380.762 71.2207C380.607 70.8971 380.529 70.4733 380.529 69.9492V62.7783ZM388.076 70.2227V64.6035H389.997V72H388.192L388.076 70.2227ZM388.295 68.6982L388.828 68.6846C388.828 69.1813 388.78 69.6416 388.685 70.0654C388.589 70.4847 388.445 70.8493 388.254 71.1592C388.062 71.4691 387.823 71.7106 387.536 71.8838C387.249 72.0524 386.91 72.1367 386.518 72.1367C386.217 72.1367 385.939 72.0866 385.684 71.9863C385.433 71.8815 385.216 71.7197 385.034 71.501C384.852 71.2777 384.708 70.9928 384.604 70.6465C384.503 70.2956 384.453 69.874 384.453 69.3818V64.6035H386.374V69.4023C386.374 69.6029 386.392 69.776 386.429 69.9219C386.465 70.0632 386.515 70.1794 386.579 70.2705C386.643 70.3617 386.718 70.4277 386.805 70.4688C386.891 70.5052 386.989 70.5234 387.099 70.5234C387.399 70.5234 387.636 70.446 387.81 70.291C387.987 70.1315 388.113 69.915 388.186 69.6416C388.258 69.3636 388.295 69.0492 388.295 68.6982ZM393.306 66.251V72H391.392V64.6035H393.196L393.306 66.251ZM395.049 64.5488L395.021 66.4561C394.935 66.4378 394.83 66.4242 394.707 66.415C394.589 66.4059 394.484 66.4014 394.393 66.4014C394.178 66.4014 393.996 66.4355 393.846 66.5039C393.695 66.5677 393.57 66.6657 393.47 66.7979C393.374 66.9255 393.301 67.085 393.251 67.2764C393.201 67.4678 393.171 67.6842 393.162 67.9258L392.8 67.7891C392.8 67.306 392.836 66.8639 392.909 66.4629C392.987 66.0573 393.101 65.7064 393.251 65.4102C393.401 65.1094 393.581 64.877 393.791 64.7129C394.005 64.5488 394.247 64.4668 394.516 64.4668C394.607 64.4668 394.702 64.4759 394.803 64.4941C394.908 64.5078 394.99 64.526 395.049 64.5488ZM398.87 72.1367C398.364 72.1367 397.915 72.0592 397.523 71.9043C397.136 71.7493 396.808 71.526 396.539 71.2344C396.27 70.9382 396.065 70.5804 395.924 70.1611C395.783 69.7419 395.712 69.2633 395.712 68.7256V68.1172C395.712 67.5156 395.78 66.9893 395.917 66.5381C396.054 66.0824 396.247 65.6995 396.498 65.3896C396.749 65.0798 397.056 64.8496 397.421 64.6992C397.79 64.5443 398.207 64.4668 398.672 64.4668C399.137 64.4668 399.545 64.5443 399.896 64.6992C400.251 64.8496 400.545 65.0775 400.777 65.3828C401.01 65.6836 401.185 66.0573 401.304 66.5039C401.422 66.9505 401.481 67.4701 401.481 68.0625V68.9375H396.525V67.5908H399.602V67.4199C399.602 67.1191 399.57 66.8685 399.506 66.668C399.442 66.4629 399.342 66.3102 399.205 66.21C399.068 66.1097 398.886 66.0596 398.658 66.0596C398.467 66.0596 398.305 66.0983 398.173 66.1758C398.041 66.2533 397.936 66.374 397.858 66.5381C397.781 66.7021 397.724 66.9163 397.688 67.1807C397.651 67.4404 397.633 67.7526 397.633 68.1172V68.7256C397.633 69.0674 397.662 69.3545 397.722 69.5869C397.781 69.8148 397.868 70.0016 397.981 70.1475C398.1 70.2887 398.243 70.3913 398.412 70.4551C398.581 70.5143 398.777 70.5439 399 70.5439C399.337 70.5439 399.64 70.4847 399.909 70.3662C400.183 70.2432 400.415 70.0768 400.606 69.8672L401.372 71.0293C401.24 71.2025 401.058 71.3757 400.825 71.5488C400.593 71.722 400.315 71.8633 399.991 71.9727C399.668 72.082 399.294 72.1367 398.87 72.1367ZM404.503 66.251V72H402.589V64.6035H404.394L404.503 66.251ZM406.246 64.5488L406.219 66.4561C406.132 66.4378 406.027 66.4242 405.904 66.415C405.786 66.4059 405.681 66.4014 405.59 66.4014C405.376 66.4014 405.193 66.4355 405.043 66.5039C404.893 66.5677 404.767 66.6657 404.667 66.7979C404.571 66.9255 404.498 67.085 404.448 67.2764C404.398 67.4678 404.368 67.6842 404.359 67.9258L403.997 67.7891C403.997 67.306 404.034 66.8639 404.106 66.4629C404.184 66.0573 404.298 65.7064 404.448 65.4102C404.599 65.1094 404.779 64.877 404.988 64.7129C405.202 64.5488 405.444 64.4668 405.713 64.4668C405.804 64.4668 405.9 64.4759 406 64.4941C406.105 64.5078 406.187 64.526 406.246 64.5488ZM409.233 64.6035V72H407.312V64.6035H409.233ZM407.224 62.6895C407.224 62.3932 407.317 62.1494 407.504 61.958C407.695 61.762 407.951 61.6641 408.27 61.6641C408.593 61.6641 408.848 61.762 409.035 61.958C409.222 62.1494 409.315 62.3932 409.315 62.6895C409.315 62.9811 409.22 63.2249 409.028 63.4209C408.841 63.6123 408.591 63.708 408.276 63.708C407.953 63.708 407.695 63.6123 407.504 63.4209C407.317 63.2249 407.224 62.9811 407.224 62.6895ZM412.631 66.1826V72H410.71V64.6035H412.508L412.631 66.1826ZM412.344 68.0488L411.831 68.0625C411.822 67.5065 411.874 67.0075 411.988 66.5654C412.107 66.1234 412.273 65.7474 412.487 65.4375C412.706 65.123 412.966 64.8838 413.267 64.7197C413.572 64.5511 413.911 64.4668 414.285 64.4668C414.572 64.4668 414.834 64.5169 415.071 64.6172C415.313 64.7174 415.52 64.877 415.693 65.0957C415.867 65.3145 416.001 65.6061 416.097 65.9707C416.192 66.3307 416.24 66.7728 416.24 67.2969V72H414.319V67.2832C414.319 66.9642 414.287 66.7181 414.224 66.5449C414.16 66.3672 414.064 66.2441 413.937 66.1758C413.809 66.1029 413.649 66.0664 413.458 66.0664C413.276 66.0664 413.114 66.1188 412.973 66.2236C412.831 66.3239 412.713 66.4629 412.617 66.6406C412.526 66.8184 412.455 67.028 412.405 67.2695C412.36 67.5111 412.339 67.7708 412.344 68.0488ZM421.531 64.6035H423.268V72C423.268 72.6745 423.138 73.2259 422.878 73.6543C422.623 74.0872 422.265 74.404 421.805 74.6045C421.349 74.8096 420.816 74.9121 420.205 74.9121C419.973 74.9121 419.711 74.8802 419.419 74.8164C419.132 74.7526 418.854 74.6546 418.585 74.5225C418.316 74.3949 418.095 74.2399 417.922 74.0576L418.571 72.7314C418.749 72.9092 418.981 73.0596 419.269 73.1826C419.556 73.3102 419.838 73.374 420.116 73.374C420.385 73.374 420.608 73.3307 420.786 73.2441C420.968 73.1621 421.105 73.0208 421.196 72.8203C421.292 72.6198 421.34 72.3509 421.34 72.0137V66.3193L421.531 64.6035ZM417.402 68.5615V68.0693C417.402 67.4678 417.459 66.9414 417.573 66.4902C417.687 66.0391 417.851 65.6631 418.065 65.3623C418.28 65.0615 418.542 64.8382 418.852 64.6924C419.166 64.542 419.517 64.4668 419.904 64.4668C420.31 64.4668 420.649 64.5557 420.923 64.7334C421.196 64.9066 421.417 65.1504 421.586 65.4648C421.759 65.7793 421.891 66.1507 421.982 66.5791C422.078 67.0075 422.151 67.4769 422.201 67.9873V68.6982C422.151 69.1813 422.069 69.6325 421.955 70.0518C421.846 70.471 421.7 70.8356 421.518 71.1455C421.335 71.4554 421.112 71.6992 420.848 71.877C420.583 72.0501 420.264 72.1367 419.891 72.1367C419.508 72.1367 419.161 72.0592 418.852 71.9043C418.546 71.7493 418.284 71.5215 418.065 71.2207C417.851 70.9154 417.687 70.5417 417.573 70.0996C417.459 69.653 417.402 69.1403 417.402 68.5615ZM419.323 68.0693V68.5615C419.323 68.9079 419.344 69.2064 419.385 69.457C419.43 69.7031 419.499 69.9059 419.59 70.0654C419.681 70.2204 419.797 70.3366 419.938 70.4141C420.084 70.487 420.255 70.5234 420.451 70.5234C420.729 70.5234 420.95 70.4596 421.114 70.332C421.283 70.1999 421.406 70.0199 421.483 69.792C421.565 69.5596 421.611 69.293 421.62 68.9922V67.7002C421.616 67.4495 421.586 67.224 421.531 67.0234C421.481 66.8229 421.41 66.652 421.319 66.5107C421.228 66.3695 421.11 66.2601 420.964 66.1826C420.823 66.1051 420.656 66.0664 420.465 66.0664C420.269 66.0664 420.1 66.1051 419.959 66.1826C419.818 66.2601 419.699 66.3809 419.604 66.5449C419.512 66.7044 419.442 66.9118 419.392 67.167C419.346 67.4176 419.323 67.7184 419.323 68.0693Z" fill="url(#paint1_linear_363_3004)"/>
<path d="M666.313 66.874L668.2 59.0469H670.36L667.476 69H666.02L666.313 66.874ZM664.7 59.0469L666.58 66.874L666.888 69H665.425L662.561 59.0469H664.7ZM673.895 69.1367C673.389 69.1367 672.94 69.0592 672.548 68.9043C672.16 68.7493 671.832 68.526 671.563 68.2344C671.295 67.9382 671.09 67.5804 670.948 67.1611C670.807 66.7419 670.736 66.2633 670.736 65.7256V65.1172C670.736 64.5156 670.805 63.9893 670.941 63.5381C671.078 63.0824 671.272 62.6995 671.522 62.3896C671.773 62.0798 672.081 61.8496 672.445 61.6992C672.814 61.5443 673.231 61.4668 673.696 61.4668C674.161 61.4668 674.569 61.5443 674.92 61.6992C675.275 61.8496 675.569 62.0775 675.802 62.3828C676.034 62.6836 676.21 63.0573 676.328 63.5039C676.447 63.9505 676.506 64.4701 676.506 65.0625V65.9375H671.55V64.5908H674.626V64.4199C674.626 64.1191 674.594 63.8685 674.53 63.668C674.466 63.4629 674.366 63.3102 674.229 63.21C674.093 63.1097 673.91 63.0596 673.683 63.0596C673.491 63.0596 673.329 63.0983 673.197 63.1758C673.065 63.2533 672.96 63.374 672.883 63.5381C672.805 63.7021 672.748 63.9163 672.712 64.1807C672.675 64.4404 672.657 64.7526 672.657 65.1172V65.7256C672.657 66.0674 672.687 66.3545 672.746 66.5869C672.805 66.8148 672.892 67.0016 673.006 67.1475C673.124 67.2887 673.268 67.3913 673.437 67.4551C673.605 67.5143 673.801 67.5439 674.024 67.5439C674.362 67.5439 674.665 67.4847 674.934 67.3662C675.207 67.2432 675.439 67.0768 675.631 66.8672L676.396 68.0293C676.264 68.2025 676.082 68.3757 675.85 68.5488C675.617 68.722 675.339 68.8633 675.016 68.9727C674.692 69.082 674.318 69.1367 673.895 69.1367ZM679.527 63.251V69H677.613V61.6035H679.418L679.527 63.251ZM681.271 61.5488L681.243 63.4561C681.157 63.4378 681.052 63.4242 680.929 63.415C680.81 63.4059 680.705 63.4014 680.614 63.4014C680.4 63.4014 680.218 63.4355 680.067 63.5039C679.917 63.5677 679.792 63.6657 679.691 63.7979C679.596 63.9255 679.523 64.085 679.473 64.2764C679.423 64.4678 679.393 64.6842 679.384 64.9258L679.021 64.7891C679.021 64.306 679.058 63.8639 679.131 63.4629C679.208 63.0573 679.322 62.7064 679.473 62.4102C679.623 62.1094 679.803 61.877 680.013 61.7129C680.227 61.5488 680.468 61.4668 680.737 61.4668C680.828 61.4668 680.924 61.4759 681.024 61.4941C681.129 61.5078 681.211 61.526 681.271 61.5488ZM684.258 61.6035V69H682.337V61.6035H684.258ZM682.248 59.6895C682.248 59.3932 682.341 59.1494 682.528 58.958C682.72 58.762 682.975 58.6641 683.294 58.6641C683.618 58.6641 683.873 58.762 684.06 58.958C684.246 59.1494 684.34 59.3932 684.34 59.6895C684.34 59.9811 684.244 60.2249 684.053 60.4209C683.866 60.6123 683.615 60.708 683.301 60.708C682.977 60.708 682.72 60.6123 682.528 60.4209C682.341 60.2249 682.248 59.9811 682.248 59.6895ZM688.086 69H686.172V61.2959C686.172 60.6579 686.284 60.1224 686.507 59.6895C686.735 59.252 687.063 58.9215 687.491 58.6982C687.924 58.4704 688.441 58.3564 689.043 58.3564C689.389 58.3564 689.717 58.3952 690.027 58.4727C690.342 58.5456 690.665 58.6413 690.998 58.7598L690.725 60.3867C690.524 60.3138 690.299 60.2454 690.048 60.1816C689.802 60.1133 689.51 60.0791 689.173 60.0791C688.804 60.0791 688.53 60.1816 688.353 60.3867C688.175 60.5918 688.086 60.8949 688.086 61.2959V69ZM689.228 61.6035V63.0459H685.27V61.6035H689.228ZM691.88 61.6035V69H689.959V61.6035H691.88ZM696.077 67.5439C696.255 67.5439 696.408 67.5075 696.535 67.4346C696.667 67.3617 696.768 67.2432 696.836 67.0791C696.904 66.915 696.941 66.7031 696.945 66.4434H698.743C698.743 66.9993 698.625 67.4801 698.388 67.8857C698.155 68.2868 697.841 68.5967 697.444 68.8154C697.052 69.0296 696.608 69.1367 696.111 69.1367C695.615 69.1367 695.182 69.057 694.812 68.8975C694.443 68.738 694.138 68.5055 693.896 68.2002C693.66 67.8949 693.479 67.5234 693.356 67.0859C693.238 66.6439 693.179 66.138 693.179 65.5684V65.0283C693.179 64.4678 693.238 63.9665 693.356 63.5244C693.479 63.0824 693.66 62.7087 693.896 62.4033C694.138 62.098 694.441 61.8656 694.806 61.7061C695.175 61.5465 695.608 61.4668 696.104 61.4668C696.638 61.4668 697.1 61.5785 697.492 61.8018C697.884 62.0205 698.189 62.3441 698.408 62.7725C698.632 63.2008 698.743 63.7295 698.743 64.3584H696.945C696.941 64.0758 696.907 63.8411 696.843 63.6543C696.784 63.4629 696.69 63.3171 696.562 63.2168C696.439 63.112 696.275 63.0596 696.07 63.0596C695.856 63.0596 695.683 63.1051 695.551 63.1963C695.423 63.2829 695.325 63.4105 695.257 63.5791C695.193 63.7432 695.15 63.9482 695.127 64.1943C695.104 64.4404 695.093 64.7184 695.093 65.0283V65.5684C695.093 65.901 695.102 66.1904 695.12 66.4365C695.143 66.6781 695.186 66.8831 695.25 67.0518C695.318 67.2158 695.416 67.3389 695.544 67.4209C695.676 67.5029 695.854 67.5439 696.077 67.5439ZM703.104 67.2979V63.8799C703.104 63.6566 703.077 63.4788 703.022 63.3467C702.972 63.2145 702.895 63.1188 702.79 63.0596C702.69 62.9958 702.567 62.9639 702.421 62.9639C702.257 62.9639 702.12 62.998 702.011 63.0664C701.901 63.1348 701.819 63.2327 701.765 63.3604C701.715 63.488 701.689 63.6406 701.689 63.8184H699.769C699.769 63.4993 699.83 63.1986 699.953 62.916C700.076 62.6289 700.256 62.3783 700.493 62.1641C700.735 61.9453 701.022 61.7744 701.354 61.6514C701.687 61.5283 702.061 61.4668 702.476 61.4668C702.968 61.4668 703.405 61.5511 703.788 61.7197C704.171 61.8838 704.474 62.1458 704.697 62.5059C704.921 62.8659 705.032 63.333 705.032 63.9072V67.2021C705.032 67.6169 705.053 67.9541 705.094 68.2139C705.139 68.4736 705.205 68.6969 705.292 68.8838V69H703.364C703.278 68.7949 703.212 68.5397 703.166 68.2344C703.125 67.9245 703.104 67.6123 703.104 67.2979ZM703.337 64.4814L703.344 65.6299H702.64C702.457 65.6299 702.298 65.6595 702.161 65.7188C702.029 65.778 701.917 65.8623 701.826 65.9717C701.735 66.0765 701.667 66.1995 701.621 66.3408C701.58 66.4821 701.56 66.6325 701.56 66.792C701.56 66.9697 701.585 67.1201 701.635 67.2432C701.685 67.3662 701.76 67.4596 701.86 67.5234C701.961 67.5872 702.079 67.6191 702.216 67.6191C702.425 67.6191 702.608 67.5758 702.763 67.4893C702.918 67.4027 703.032 67.2979 703.104 67.1748C703.182 67.0518 703.207 66.9378 703.18 66.833L703.617 67.5781C703.562 67.7467 703.487 67.9222 703.392 68.1045C703.3 68.2868 703.184 68.4554 703.043 68.6104C702.902 68.7653 702.726 68.8929 702.517 68.9932C702.312 69.0889 702.068 69.1367 701.785 69.1367C701.389 69.1367 701.026 69.0456 700.698 68.8633C700.37 68.681 700.11 68.4258 699.919 68.0977C699.732 67.7695 699.639 67.3799 699.639 66.9287C699.639 66.555 699.698 66.2178 699.816 65.917C699.939 65.6117 700.122 65.3542 700.363 65.1445C700.605 64.9303 700.91 64.7663 701.279 64.6523C701.648 64.5384 702.081 64.4814 702.578 64.4814H703.337ZM709.674 61.6035V63.0459H705.9V61.6035H709.674ZM706.769 59.7783H708.676V66.7441C708.676 66.9492 708.696 67.1064 708.737 67.2158C708.778 67.3252 708.84 67.4027 708.922 67.4482C709.008 67.4893 709.122 67.5098 709.264 67.5098C709.359 67.5098 709.448 67.5052 709.53 67.4961C709.612 67.4824 709.674 67.4688 709.715 67.4551V68.9521C709.564 69.0114 709.405 69.057 709.236 69.0889C709.072 69.1208 708.876 69.1367 708.648 69.1367C708.266 69.1367 707.933 69.0638 707.65 68.918C707.372 68.7721 707.156 68.5397 707.001 68.2207C706.846 67.8971 706.769 67.4733 706.769 66.9492V59.7783ZM712.75 61.6035V69H710.829V61.6035H712.75ZM710.74 59.6895C710.74 59.3932 710.834 59.1494 711.021 58.958C711.212 58.762 711.467 58.6641 711.786 58.6641C712.11 58.6641 712.365 58.762 712.552 58.958C712.739 59.1494 712.832 59.3932 712.832 59.6895C712.832 59.9811 712.736 60.2249 712.545 60.4209C712.358 60.6123 712.107 60.708 711.793 60.708C711.469 60.708 711.212 60.6123 711.021 60.4209C710.834 60.2249 710.74 59.9811 710.74 59.6895ZM717.248 69.1367C716.742 69.1367 716.293 69.0592 715.901 68.9043C715.514 68.7493 715.186 68.526 714.917 68.2344C714.648 67.9382 714.443 67.5804 714.302 67.1611C714.16 66.7419 714.09 66.2633 714.09 65.7256V65.1172C714.09 64.5156 714.158 63.9893 714.295 63.5381C714.432 63.0824 714.625 62.6995 714.876 62.3896C715.127 62.0798 715.434 61.8496 715.799 61.6992C716.168 61.5443 716.585 61.4668 717.05 61.4668C717.515 61.4668 717.923 61.5443 718.273 61.6992C718.629 61.8496 718.923 62.0775 719.155 62.3828C719.388 62.6836 719.563 63.0573 719.682 63.5039C719.8 63.9505 719.859 64.4701 719.859 65.0625V65.9375H714.903V64.5908H717.979V64.4199C717.979 64.1191 717.948 63.8685 717.884 63.668C717.82 63.4629 717.72 63.3102 717.583 63.21C717.446 63.1097 717.264 63.0596 717.036 63.0596C716.845 63.0596 716.683 63.0983 716.551 63.1758C716.419 63.2533 716.314 63.374 716.236 63.5381C716.159 63.7021 716.102 63.9163 716.065 64.1807C716.029 64.4404 716.011 64.7526 716.011 65.1172V65.7256C716.011 66.0674 716.04 66.3545 716.1 66.5869C716.159 66.8148 716.245 67.0016 716.359 67.1475C716.478 67.2887 716.621 67.3913 716.79 67.4551C716.959 67.5143 717.155 67.5439 717.378 67.5439C717.715 67.5439 718.018 67.4847 718.287 67.3662C718.561 67.2432 718.793 67.0768 718.984 66.8672L719.75 68.0293C719.618 68.2025 719.436 68.3757 719.203 68.5488C718.971 68.722 718.693 68.8633 718.369 68.9727C718.046 69.082 717.672 69.1367 717.248 69.1367ZM725.574 63.6816L727.188 62.4443C727.424 62.2529 727.573 62.0729 727.632 61.9043C727.691 61.7311 727.721 61.5443 727.721 61.3438C727.721 61.1387 727.661 60.9473 727.543 60.7695C727.424 60.5872 727.263 60.4961 727.058 60.4961C726.907 60.4961 726.782 60.5417 726.682 60.6328C726.586 60.724 726.513 60.8447 726.463 60.9951C726.417 61.1455 726.395 61.3141 726.395 61.501C726.395 61.7015 726.442 61.9066 726.538 62.1162C726.634 62.3258 726.761 62.5492 726.921 62.7861C727.08 63.0186 727.256 63.2715 727.447 63.5449L731.344 69H729.17L726.06 64.5908C725.791 64.1898 725.551 63.8229 725.342 63.4902C725.137 63.153 724.975 62.8249 724.856 62.5059C724.743 62.1868 724.686 61.8587 724.686 61.5215C724.686 61.002 724.784 60.5462 724.979 60.1543C725.18 59.7578 725.458 59.4502 725.813 59.2314C726.169 59.0127 726.586 58.9033 727.064 58.9033C727.511 58.9033 727.903 59.0104 728.24 59.2246C728.577 59.4388 728.837 59.7214 729.02 60.0723C729.206 60.4186 729.3 60.8014 729.3 61.2207C729.3 61.5352 729.254 61.8223 729.163 62.082C729.072 62.3418 728.942 62.5833 728.773 62.8066C728.609 63.0299 728.409 63.235 728.172 63.4219L726.258 64.9805C726.162 65.1263 726.089 65.2721 726.039 65.418C725.989 65.5592 725.952 65.696 725.93 65.8281C725.911 65.9557 725.902 66.0811 725.902 66.2041C725.902 66.4593 725.946 66.6917 726.032 66.9014C726.119 67.1064 726.233 67.266 726.374 67.3799C726.52 67.4938 726.682 67.5508 726.859 67.5508C727.156 67.5508 727.44 67.4688 727.714 67.3047C727.992 67.1406 728.243 66.9059 728.466 66.6006C728.689 66.2952 728.865 65.9329 728.992 65.5137C729.124 65.0898 729.19 64.625 729.19 64.1191H730.811C730.811 64.6341 730.767 65.124 730.681 65.5889C730.594 66.0537 730.451 66.4821 730.25 66.874C730.049 67.266 729.781 67.6146 729.443 67.9199C729.421 67.9382 729.384 67.9701 729.334 68.0156C729.288 68.0612 729.252 68.0954 729.225 68.1182C728.855 68.4645 728.47 68.722 728.069 68.8906C727.673 69.0592 727.238 69.1436 726.764 69.1436C726.189 69.1436 725.695 69.0228 725.28 68.7812C724.866 68.5397 724.544 68.207 724.316 67.7832C724.093 67.3548 723.981 66.8672 723.981 66.3203C723.981 65.9193 724.048 65.5706 724.18 65.2744C724.316 64.9736 724.503 64.6979 724.74 64.4473C724.982 64.1966 725.26 63.9414 725.574 63.6816ZM674.954 72.5H676.861V81.2842L676.725 83H674.954V72.5ZM680.703 79.0557V79.541C680.703 80.1426 680.655 80.6667 680.56 81.1133C680.468 81.5599 680.325 81.9336 680.129 82.2344C679.938 82.5352 679.691 82.7607 679.391 82.9111C679.09 83.0615 678.734 83.1367 678.324 83.1367C677.955 83.1367 677.638 83.0501 677.374 82.877C677.11 82.6992 676.886 82.4554 676.704 82.1455C676.526 81.8311 676.381 81.4642 676.267 81.0449C676.157 80.6211 676.077 80.1585 676.027 79.6572V78.9395C676.073 78.4473 676.15 77.9893 676.26 77.5654C676.374 77.1416 676.52 76.7747 676.697 76.4648C676.875 76.1504 677.096 75.9066 677.36 75.7334C677.629 75.5557 677.946 75.4668 678.311 75.4668C678.73 75.4668 679.09 75.5443 679.391 75.6992C679.691 75.8496 679.938 76.0752 680.129 76.376C680.325 76.6768 680.468 77.0527 680.56 77.5039C680.655 77.9505 680.703 78.4678 680.703 79.0557ZM678.796 79.541V79.0557C678.796 78.7139 678.782 78.4199 678.755 78.1738C678.728 77.9277 678.677 77.7227 678.604 77.5586C678.532 77.3945 678.427 77.2715 678.29 77.1895C678.158 77.1074 677.982 77.0664 677.764 77.0664C677.568 77.0664 677.404 77.1051 677.271 77.1826C677.139 77.2555 677.025 77.3649 676.93 77.5107C676.839 77.652 676.77 77.8206 676.725 78.0166C676.684 78.208 676.661 78.4199 676.656 78.6523V79.9443C676.661 80.2588 676.7 80.5368 676.772 80.7783C676.845 81.0199 676.962 81.2067 677.121 81.3389C677.285 81.471 677.504 81.5371 677.777 81.5371C677.992 81.5371 678.165 81.5007 678.297 81.4277C678.429 81.3548 678.532 81.2386 678.604 81.0791C678.682 80.9196 678.732 80.7145 678.755 80.4639C678.782 80.2087 678.796 79.901 678.796 79.541ZM684.859 83.1367C684.354 83.1367 683.905 83.0592 683.513 82.9043C683.125 82.7493 682.797 82.526 682.528 82.2344C682.259 81.9382 682.054 81.5804 681.913 81.1611C681.772 80.7419 681.701 80.2633 681.701 79.7256V79.1172C681.701 78.5156 681.77 77.9893 681.906 77.5381C682.043 77.0824 682.237 76.6995 682.487 76.3896C682.738 76.0798 683.046 75.8496 683.41 75.6992C683.779 75.5443 684.196 75.4668 684.661 75.4668C685.126 75.4668 685.534 75.5443 685.885 75.6992C686.24 75.8496 686.534 76.0775 686.767 76.3828C686.999 76.6836 687.174 77.0573 687.293 77.5039C687.411 77.9505 687.471 78.4701 687.471 79.0625V79.9375H682.515V78.5908H685.591V78.4199C685.591 78.1191 685.559 77.8685 685.495 77.668C685.431 77.4629 685.331 77.3102 685.194 77.21C685.058 77.1097 684.875 77.0596 684.647 77.0596C684.456 77.0596 684.294 77.0983 684.162 77.1758C684.03 77.2533 683.925 77.374 683.848 77.5381C683.77 77.7021 683.713 77.9163 683.677 78.1807C683.64 78.4404 683.622 78.7526 683.622 79.1172V79.7256C683.622 80.0674 683.652 80.3545 683.711 80.5869C683.77 80.8148 683.857 81.0016 683.971 81.1475C684.089 81.2887 684.233 81.3913 684.401 81.4551C684.57 81.5143 684.766 81.5439 684.989 81.5439C685.326 81.5439 685.63 81.4847 685.898 81.3662C686.172 81.2432 686.404 81.0768 686.596 80.8672L687.361 82.0293C687.229 82.2025 687.047 82.3757 686.814 82.5488C686.582 82.722 686.304 82.8633 685.98 82.9727C685.657 83.082 685.283 83.1367 684.859 83.1367ZM691.805 75.6035V77.0459H688.031V75.6035H691.805ZM688.899 73.7783H690.807V80.7441C690.807 80.9492 690.827 81.1064 690.868 81.2158C690.909 81.3252 690.971 81.4027 691.053 81.4482C691.139 81.4893 691.253 81.5098 691.395 81.5098C691.49 81.5098 691.579 81.5052 691.661 81.4961C691.743 81.4824 691.805 81.4688 691.846 81.4551V82.9521C691.695 83.0114 691.536 83.057 691.367 83.0889C691.203 83.1208 691.007 83.1367 690.779 83.1367C690.396 83.1367 690.064 83.0638 689.781 82.918C689.503 82.7721 689.287 82.5397 689.132 82.2207C688.977 81.8971 688.899 81.4733 688.899 80.9492V73.7783ZM696.132 81.2979V77.8799C696.132 77.6566 696.104 77.4788 696.05 77.3467C696 77.2145 695.922 77.1188 695.817 77.0596C695.717 76.9958 695.594 76.9639 695.448 76.9639C695.284 76.9639 695.147 76.998 695.038 77.0664C694.929 77.1348 694.847 77.2327 694.792 77.3604C694.742 77.488 694.717 77.6406 694.717 77.8184H692.796C692.796 77.4993 692.857 77.1986 692.98 76.916C693.104 76.6289 693.284 76.3783 693.521 76.1641C693.762 75.9453 694.049 75.7744 694.382 75.6514C694.715 75.5283 695.088 75.4668 695.503 75.4668C695.995 75.4668 696.433 75.5511 696.815 75.7197C697.198 75.8838 697.501 76.1458 697.725 76.5059C697.948 76.8659 698.06 77.333 698.06 77.9072V81.2021C698.06 81.6169 698.08 81.9541 698.121 82.2139C698.167 82.4736 698.233 82.6969 698.319 82.8838V83H696.392C696.305 82.7949 696.239 82.5397 696.193 82.2344C696.152 81.9245 696.132 81.6123 696.132 81.2979ZM696.364 78.4814L696.371 79.6299H695.667C695.485 79.6299 695.325 79.6595 695.188 79.7188C695.056 79.778 694.945 79.8623 694.854 79.9717C694.762 80.0765 694.694 80.1995 694.648 80.3408C694.607 80.4821 694.587 80.6325 694.587 80.792C694.587 80.9697 694.612 81.1201 694.662 81.2432C694.712 81.3662 694.787 81.4596 694.888 81.5234C694.988 81.5872 695.106 81.6191 695.243 81.6191C695.453 81.6191 695.635 81.5758 695.79 81.4893C695.945 81.4027 696.059 81.2979 696.132 81.1748C696.209 81.0518 696.234 80.9378 696.207 80.833L696.645 81.5781C696.59 81.7467 696.515 81.9222 696.419 82.1045C696.328 82.2868 696.212 82.4554 696.07 82.6104C695.929 82.7653 695.754 82.8929 695.544 82.9932C695.339 83.0889 695.095 83.1367 694.812 83.1367C694.416 83.1367 694.054 83.0456 693.726 82.8633C693.397 82.681 693.138 82.4258 692.946 82.0977C692.759 81.7695 692.666 81.3799 692.666 80.9287C692.666 80.555 692.725 80.2178 692.844 79.917C692.967 79.6117 693.149 79.3542 693.391 79.1445C693.632 78.9303 693.938 78.7663 694.307 78.6523C694.676 78.5384 695.109 78.4814 695.605 78.4814H696.364ZM701.484 72.5V83H699.563V72.5H701.484ZM705.012 75.6035V83H703.091V75.6035H705.012ZM703.002 73.6895C703.002 73.3932 703.095 73.1494 703.282 72.958C703.474 72.762 703.729 72.6641 704.048 72.6641C704.371 72.6641 704.627 72.762 704.813 72.958C705 73.1494 705.094 73.3932 705.094 73.6895C705.094 73.9811 704.998 74.2249 704.807 74.4209C704.62 74.6123 704.369 74.708 704.055 74.708C703.731 74.708 703.474 74.6123 703.282 74.4209C703.095 74.2249 703.002 73.9811 703.002 73.6895ZM708.409 77.1826V83H706.488V75.6035H708.286L708.409 77.1826ZM708.122 79.0488L707.609 79.0625C707.6 78.5065 707.653 78.0075 707.767 77.5654C707.885 77.1234 708.051 76.7474 708.266 76.4375C708.484 76.123 708.744 75.8838 709.045 75.7197C709.35 75.5511 709.69 75.4668 710.063 75.4668C710.351 75.4668 710.613 75.5169 710.85 75.6172C711.091 75.7174 711.299 75.877 711.472 76.0957C711.645 76.3145 711.779 76.6061 711.875 76.9707C711.971 77.3307 712.019 77.7728 712.019 78.2969V83H710.098V78.2832C710.098 77.9642 710.066 77.7181 710.002 77.5449C709.938 77.3672 709.842 77.2441 709.715 77.1758C709.587 77.1029 709.428 77.0664 709.236 77.0664C709.054 77.0664 708.892 77.1188 708.751 77.2236C708.61 77.3239 708.491 77.4629 708.396 77.6406C708.304 77.8184 708.234 78.028 708.184 78.2695C708.138 78.5111 708.118 78.7708 708.122 79.0488ZM717.31 75.6035H719.046V83C719.046 83.6745 718.916 84.2259 718.656 84.6543C718.401 85.0872 718.043 85.404 717.583 85.6045C717.127 85.8096 716.594 85.9121 715.983 85.9121C715.751 85.9121 715.489 85.8802 715.197 85.8164C714.91 85.7526 714.632 85.6546 714.363 85.5225C714.094 85.3949 713.873 85.2399 713.7 85.0576L714.35 83.7314C714.527 83.9092 714.76 84.0596 715.047 84.1826C715.334 84.3102 715.617 84.374 715.895 84.374C716.163 84.374 716.387 84.3307 716.564 84.2441C716.747 84.1621 716.883 84.0208 716.975 83.8203C717.07 83.6198 717.118 83.3509 717.118 83.0137V77.3193L717.31 75.6035ZM713.181 79.5615V79.0693C713.181 78.4678 713.238 77.9414 713.352 77.4902C713.465 77.0391 713.63 76.6631 713.844 76.3623C714.058 76.0615 714.32 75.8382 714.63 75.6924C714.944 75.542 715.295 75.4668 715.683 75.4668C716.088 75.4668 716.428 75.5557 716.701 75.7334C716.975 75.9066 717.196 76.1504 717.364 76.4648C717.537 76.7793 717.67 77.1507 717.761 77.5791C717.856 78.0075 717.929 78.4769 717.979 78.9873V79.6982C717.929 80.1813 717.847 80.6325 717.733 81.0518C717.624 81.471 717.478 81.8356 717.296 82.1455C717.114 82.4554 716.89 82.6992 716.626 82.877C716.362 83.0501 716.043 83.1367 715.669 83.1367C715.286 83.1367 714.94 83.0592 714.63 82.9043C714.325 82.7493 714.062 82.5215 713.844 82.2207C713.63 81.9154 713.465 81.5417 713.352 81.0996C713.238 80.653 713.181 80.1403 713.181 79.5615ZM715.102 79.0693V79.5615C715.102 79.9079 715.122 80.2064 715.163 80.457C715.209 80.7031 715.277 80.9059 715.368 81.0654C715.459 81.2204 715.576 81.3366 715.717 81.4141C715.863 81.487 716.034 81.5234 716.229 81.5234C716.507 81.5234 716.729 81.4596 716.893 81.332C717.061 81.1999 717.184 81.0199 717.262 80.792C717.344 80.5596 717.389 80.293 717.398 79.9922V78.7002C717.394 78.4495 717.364 78.224 717.31 78.0234C717.259 77.8229 717.189 77.652 717.098 77.5107C717.007 77.3695 716.888 77.2601 716.742 77.1826C716.601 77.1051 716.435 77.0664 716.243 77.0664C716.047 77.0664 715.879 77.1051 715.737 77.1826C715.596 77.2601 715.478 77.3809 715.382 77.5449C715.291 77.7044 715.22 77.9118 715.17 78.167C715.124 78.4176 715.102 78.7184 715.102 79.0693Z" fill="#E0E0E9"/>
<path fill-rule="evenodd" clip-rule="evenodd" d="M690 33H400V31H690V33Z" fill="#D0CFD7"/>
<path fill-rule="evenodd" clip-rule="evenodd" d="M376 33H83V31H376V33Z" fill="url(#paint2_linear_363_3004)"/>
<g filter="url(#filter0_d_363_3004)">
<path d="M69 17C60.7125 17 54 23.7125 54 32C54 34.8125 54.7875 37.475 56.175 39.725C57.497 41.9468 59.3748 43.7861 61.6236 45.0617C63.8724 46.3373 66.4146 47.0053 69 47C74.475 47 79.2375 44.075 81.825 39.725C83.2125 37.475 84 34.8125 84 32C84 23.7125 77.2875 17 69 17ZM76.3875 30.7625L68.4 38.15C67.875 38.6375 67.1625 38.9 66.4875 38.9C65.775 38.9 65.0625 38.6375 64.5 38.075L60.7875 34.3625C60.2644 33.8332 59.9711 33.1191 59.9711 32.375C59.9711 31.6309 60.2644 30.9168 60.7875 30.3875C61.875 29.3 63.675 29.3 64.7625 30.3875L66.5625 32.1875L72.5625 26.6375C73.6875 25.5875 75.4875 25.6625 76.5375 26.7875C77.5875 27.9125 77.5125 29.7125 76.3875 30.7625Z" fill="url(#paint3_linear_363_3004)"/>
</g>
<g filter="url(#filter1_d_363_3004)">
<path d="M390 17C381.712 17 375 23.7125 375 32C375 34.8125 375.788 37.475 377.175 39.725C378.497 41.9468 380.375 43.7861 382.624 45.0617C384.872 46.3373 387.415 47.0053 390 47C395.475 47 400.238 44.075 402.825 39.725C404.213 37.475 405 34.8125 405 32C405 23.7125 398.288 17 390 17ZM397.387 30.7625L389.4 38.15C388.875 38.6375 388.162 38.9 387.487 38.9C386.775 38.9 386.062 38.6375 385.5 38.075L381.787 34.3625C381.264 33.8332 380.971 33.1191 380.971 32.375C380.971 31.6309 381.264 30.9168 381.787 30.3875C382.875 29.3 384.675 29.3 385.762 30.3875L387.562 32.1875L393.562 26.6375C394.687 25.5875 396.488 25.6625 397.538 26.7875C398.588 27.9125 398.512 29.7125 397.387 30.7625Z" fill="url(#paint4_linear_363_3004)"/>
</g>
<circle cx="696.5" cy="32.5" r="14.5" fill="#D0CFD7"/>
<defs>
<filter id="filter0_d_363_3004" x="37" y="0" width="74" height="74" filterUnits="userSpaceOnUse" color-interpolation-filters="sRGB">
<feFlood flood-opacity="0" result="BackgroundImageFix"/>
<feColorMatrix in="SourceAlpha" type="matrix" values="0 0 0 0 0 0 0 0 0 0 0 0 0 0 0 0 0 0 127 0" result="hardAlpha"/>
<feOffset dx="5" dy="5"/>
<feGaussianBlur stdDeviation="11"/>
<feComposite in2="hardAlpha" operator="out"/>
<feColorMatrix type="matrix" values="0 0 0 0 0.0392157 0 0 0 0 0.560784 0 0 0 0 0.309804 0 0 0 0.2 0"/>
<feBlend mode="normal" in2="BackgroundImageFix" result="effect1_dropShadow_363_3004"/>
<feBlend mode="normal" in="SourceGraphic" in2="effect1_dropShadow_363_3004" result="shape"/>
</filter>
<filter id="filter1_d_363_3004" x="358" y="0" width="74" height="74" filterUnits="userSpaceOnUse" color-interpolation-filters="sRGB">
<feFlood flood-opacity="0" result="BackgroundImageFix"/>
<feColorMatrix in="SourceAlpha" type="matrix" values="0 0 0 0 0 0 0 0 0 0 0 0 0 0 0 0 0 0 127 0" result="hardAlpha"/>
<feOffset dx="5" dy="5"/>
<feGaussianBlur stdDeviation="11"/>
<feComposite in2="hardAlpha" operator="out"/>
<feColorMatrix type="matrix" values="0 0 0 0 0.0392157 0 0 0 0 0.560784 0 0 0 0 0.309804 0 0 0 0.2 0"/>
<feBlend mode="normal" in2="BackgroundImageFix" result="effect1_dropShadow_363_3004"/>
<feBlend mode="normal" in="SourceGraphic" in2="effect1_dropShadow_363_3004" result="shape"/>
</filter>
<linearGradient id="paint0_linear_363_3004" x1="68.5" y1="77" x2="68.5" y2="57" gradientUnits="userSpaceOnUse">
<stop stop-color="#5CCC94"/>
<stop offset="1" stop-color="#8CCAAE"/>
</linearGradient>
<linearGradient id="paint1_linear_363_3004" x1="392" y1="77" x2="392" y2="57" gradientUnits="userSpaceOnUse">
<stop stop-color="#5CCC94"/>
<stop offset="1" stop-color="#8CCAAE"/>
</linearGradient>
<linearGradient id="paint2_linear_363_3004" x1="229.5" y1="33" x2="229.5" y2="31" gradientUnits="userSpaceOnUse">
<stop stop-color="#5CCC94"/>
<stop offset="1" stop-color="#8CCAAE"/>
</linearGradient>
<linearGradient id="paint3_linear_363_3004" x1="69" y1="47" x2="69" y2="17" gradientUnits="userSpaceOnUse">
<stop stop-color="#5CCC94"/>
<stop offset="1" stop-color="#8CCAAE"/>
</linearGradient>
<linearGradient id="paint4_linear_363_3004" x1="390" y1="47" x2="390" y2="17" gradientUnits="userSpaceOnUse">
<stop stop-color="#5CCC94"/>
<stop offset="1" stop-color="#8CCAAE"/>
</linearGradient>
</defs>
</svg>
