<svg width="739" height="84" viewBox="0 0 739 84" fill="none" xmlns="http://www.w3.org/2000/svg">
<path d="M46.8369 68.6846H48.8262C48.7988 69.432 48.6484 70.0632 48.375 70.5781C48.1016 71.0885 47.7119 71.4759 47.2061 71.7402C46.7048 72.0046 46.0986 72.1367 45.3877 72.1367C44.8363 72.1367 44.3464 72.0456 43.918 71.8633C43.4896 71.6764 43.125 71.403 42.8242 71.043C42.5234 70.6829 42.2956 70.2386 42.1406 69.71C41.9902 69.1768 41.915 68.5638 41.915 67.8711V66.1826C41.915 65.4899 41.9948 64.877 42.1543 64.3438C42.3184 63.8105 42.5508 63.3639 42.8516 63.0039C43.1569 62.6393 43.5238 62.3659 43.9521 62.1836C44.3851 61.9967 44.8727 61.9033 45.415 61.9033C46.1396 61.9033 46.7458 62.04 47.2334 62.3135C47.721 62.5869 48.097 62.9857 48.3613 63.5098C48.6302 64.0293 48.792 64.665 48.8467 65.417H46.8506C46.8369 64.943 46.7822 64.5716 46.6865 64.3027C46.5954 64.0293 46.4495 63.8379 46.249 63.7285C46.0485 63.6146 45.7705 63.5576 45.415 63.5576C45.1507 63.5576 44.9229 63.6055 44.7314 63.7012C44.54 63.7923 44.3828 63.9404 44.2598 64.1455C44.1367 64.3506 44.0456 64.6195 43.9863 64.9521C43.9316 65.2848 43.9043 65.6904 43.9043 66.1689V67.8711C43.9043 68.3405 43.9294 68.7415 43.9795 69.0742C44.0296 69.4023 44.1094 69.6712 44.2188 69.8809C44.3281 70.0905 44.4762 70.2432 44.6631 70.3389C44.8545 70.4346 45.096 70.4824 45.3877 70.4824C45.7249 70.4824 45.9961 70.4323 46.2012 70.332C46.4108 70.2318 46.5658 70.0518 46.666 69.792C46.7663 69.5322 46.8232 69.1631 46.8369 68.6846ZM44.6016 59.3125L45.3877 60.2832L46.1807 59.3125H47.8076V59.3809L45.9893 61.3018H44.8066L42.9746 59.374V59.3125H44.6016ZM52.0459 64.6035V72H50.125V64.6035H52.0459ZM50.1592 63.7217L51.499 61.6094H53.6523L51.7656 63.7217H50.1592ZM56.9268 70.0039C56.9268 69.8763 56.8835 69.7624 56.7969 69.6621C56.7103 69.5618 56.5736 69.4593 56.3867 69.3545C56.1999 69.2451 55.9515 69.1243 55.6416 68.9922C55.3044 68.8555 55.0059 68.7142 54.7461 68.5684C54.4863 68.4225 54.2653 68.2607 54.083 68.083C53.9053 67.9053 53.7708 67.7025 53.6797 67.4746C53.5885 67.2467 53.543 66.987 53.543 66.6953C53.543 66.3809 53.5999 66.0915 53.7139 65.8271C53.8324 65.5583 54.001 65.3236 54.2197 65.123C54.4385 64.918 54.7051 64.7585 55.0195 64.6445C55.3385 64.526 55.6963 64.4668 56.0928 64.4668C56.6488 64.4668 57.125 64.5648 57.5215 64.7607C57.9225 64.9521 58.2301 65.221 58.4443 65.5674C58.6585 65.9137 58.7656 66.3171 58.7656 66.7773H56.8516C56.8516 66.6133 56.8265 66.4674 56.7764 66.3398C56.7262 66.2077 56.6442 66.1051 56.5303 66.0322C56.4209 65.9593 56.2728 65.9229 56.0859 65.9229C55.9492 65.9229 55.8262 65.9525 55.7168 66.0117C55.612 66.071 55.5277 66.1507 55.4639 66.251C55.4046 66.3467 55.375 66.4606 55.375 66.5928C55.375 66.693 55.3955 66.7819 55.4365 66.8594C55.4821 66.9368 55.5527 67.012 55.6484 67.085C55.7441 67.1579 55.8717 67.2354 56.0312 67.3174C56.1953 67.3949 56.3958 67.4814 56.6328 67.5771C57.125 67.7594 57.5283 67.9554 57.8428 68.165C58.1618 68.3747 58.3988 68.6208 58.5537 68.9033C58.7087 69.1813 58.7861 69.5254 58.7861 69.9355C58.7861 70.2637 58.7223 70.5622 58.5947 70.8311C58.4717 71.0999 58.2917 71.3324 58.0547 71.5283C57.8177 71.7243 57.5329 71.8747 57.2002 71.9795C56.8721 72.0843 56.5052 72.1367 56.0996 72.1367C55.5026 72.1367 54.999 72.0182 54.5889 71.7812C54.1787 71.5443 53.8688 71.2412 53.6592 70.8721C53.4495 70.4984 53.3447 70.111 53.3447 69.71H55.1631C55.1722 69.9561 55.2178 70.1497 55.2998 70.291C55.3864 70.4277 55.5026 70.5234 55.6484 70.5781C55.7943 70.6328 55.9561 70.6602 56.1338 70.6602C56.3115 70.6602 56.4574 70.6374 56.5713 70.5918C56.6898 70.5417 56.7786 70.4665 56.8379 70.3662C56.8971 70.2614 56.9268 70.1406 56.9268 70.0039ZM62.0127 61.5V72H60.0918V61.5H62.0127ZM63.3115 68.5547V68.0557C63.3115 67.4769 63.3799 66.9642 63.5166 66.5176C63.6579 66.071 63.8584 65.6973 64.1182 65.3965C64.3779 65.0911 64.6901 64.861 65.0547 64.7061C65.4238 64.5465 65.8363 64.4668 66.292 64.4668C66.7523 64.4668 67.1647 64.5465 67.5293 64.7061C67.8984 64.861 68.2129 65.0911 68.4727 65.3965C68.737 65.6973 68.9398 66.071 69.0811 66.5176C69.2223 66.9642 69.293 67.4769 69.293 68.0557V68.5547C69.293 69.1289 69.2223 69.6393 69.0811 70.0859C68.9398 70.5326 68.737 70.9085 68.4727 71.2139C68.2129 71.5192 67.9007 71.7493 67.5361 71.9043C67.1715 72.0592 66.7614 72.1367 66.3057 72.1367C65.8499 72.1367 65.4375 72.0592 65.0684 71.9043C64.7038 71.7493 64.3893 71.5192 64.125 71.2139C63.8607 70.9085 63.6579 70.5326 63.5166 70.0859C63.3799 69.6393 63.3115 69.1289 63.3115 68.5547ZM65.2256 68.0557V68.5547C65.2256 68.8965 65.2484 69.1927 65.2939 69.4434C65.3441 69.694 65.4147 69.9014 65.5059 70.0654C65.6016 70.2295 65.7155 70.3503 65.8477 70.4277C65.9798 70.5052 66.1325 70.5439 66.3057 70.5439C66.4788 70.5439 66.6338 70.5052 66.7705 70.4277C66.9072 70.3503 67.0189 70.2295 67.1055 70.0654C67.1966 69.9014 67.2627 69.694 67.3037 69.4434C67.3493 69.1927 67.3721 68.8965 67.3721 68.5547V68.0557C67.3721 67.723 67.347 67.4313 67.2969 67.1807C67.2467 66.9255 67.1761 66.7181 67.085 66.5586C66.9938 66.3945 66.8799 66.2715 66.7432 66.1895C66.611 66.1029 66.4606 66.0596 66.292 66.0596C66.1234 66.0596 65.973 66.1029 65.8408 66.1895C65.7132 66.2715 65.6016 66.3945 65.5059 66.5586C65.4147 66.7181 65.3441 66.9255 65.2939 67.1807C65.2484 67.4313 65.2256 67.723 65.2256 68.0557ZM78.0361 69.3818C78.0361 69.2041 78.0202 69.0423 77.9883 68.8965C77.9564 68.7507 77.888 68.6162 77.7832 68.4932C77.6829 68.3701 77.5348 68.2471 77.3389 68.124C77.1475 68.001 76.8968 67.8734 76.5869 67.7412C76.2178 67.5863 75.86 67.4222 75.5137 67.249C75.1673 67.0713 74.8551 66.8662 74.5771 66.6338C74.2992 66.4014 74.0781 66.1279 73.9141 65.8135C73.7546 65.4945 73.6748 65.1208 73.6748 64.6924C73.6748 64.2731 73.75 63.8926 73.9004 63.5508C74.0553 63.209 74.2741 62.9173 74.5566 62.6758C74.8392 62.4297 75.1696 62.2406 75.5479 62.1084C75.9307 61.9762 76.3568 61.9102 76.8262 61.9102C77.4642 61.9102 78.0156 62.0423 78.4805 62.3066C78.9499 62.571 79.3122 62.9333 79.5674 63.3936C79.8271 63.8538 79.957 64.3825 79.957 64.9795H77.9609C77.9609 64.6969 77.9199 64.4486 77.8379 64.2344C77.7604 64.0156 77.6351 63.8447 77.4619 63.7217C77.2887 63.5986 77.0654 63.5371 76.792 63.5371C76.5368 63.5371 76.3249 63.5895 76.1562 63.6943C75.9922 63.7946 75.8691 63.9336 75.7871 64.1113C75.7096 64.2845 75.6709 64.4805 75.6709 64.6992C75.6709 64.8633 75.7096 65.0114 75.7871 65.1436C75.8691 65.2712 75.9808 65.3874 76.1221 65.4922C76.2633 65.5924 76.4297 65.6904 76.6211 65.7861C76.8171 65.8818 77.0312 65.9753 77.2637 66.0664C77.7148 66.2441 78.1136 66.4401 78.46 66.6543C78.8063 66.8639 79.0957 67.1009 79.3281 67.3652C79.5605 67.625 79.736 67.9189 79.8545 68.2471C79.973 68.5752 80.0322 68.9489 80.0322 69.3682C80.0322 69.7829 79.9593 70.1611 79.8135 70.5029C79.6722 70.8402 79.4648 71.1318 79.1914 71.3779C78.918 71.6195 78.5876 71.8063 78.2002 71.9385C77.8174 72.0706 77.389 72.1367 76.915 72.1367C76.4548 72.1367 76.0195 72.0729 75.6094 71.9453C75.1992 71.8132 74.8369 71.6149 74.5225 71.3506C74.2126 71.0817 73.9688 70.7422 73.791 70.332C73.6133 69.9173 73.5244 69.4274 73.5244 68.8623H75.5273C75.5273 69.1631 75.557 69.4206 75.6162 69.6348C75.6755 69.8444 75.7666 70.013 75.8896 70.1406C76.0127 70.2637 76.1631 70.3571 76.3408 70.4209C76.5231 70.4801 76.7305 70.5098 76.9629 70.5098C77.2272 70.5098 77.4368 70.4596 77.5918 70.3594C77.7513 70.2591 77.8652 70.1247 77.9336 69.9561C78.002 69.7874 78.0361 69.596 78.0361 69.3818ZM84.7764 68.4932H82.7393V66.832H84.7764C85.0589 66.832 85.2891 66.7682 85.4668 66.6406C85.6491 66.513 85.7812 66.3376 85.8633 66.1143C85.9453 65.8864 85.9863 65.6312 85.9863 65.3486C85.9863 65.0615 85.943 64.7949 85.8564 64.5488C85.7744 64.2982 85.6445 64.0954 85.4668 63.9404C85.2936 63.7855 85.0635 63.708 84.7764 63.708H83.3818V72H81.3857V62.0469H84.7764C85.4463 62.0469 86.0228 62.1882 86.5059 62.4707C86.9889 62.7533 87.3581 63.1429 87.6133 63.6396C87.873 64.1318 88.0029 64.6969 88.0029 65.335C88.0029 65.9775 87.873 66.5358 87.6133 67.0098C87.3581 67.4792 86.9889 67.8438 86.5059 68.1035C86.0228 68.3633 85.4463 68.4932 84.7764 68.4932ZM95.2695 70.3457V72H89.3496V70.3457H95.2695ZM95.1943 63.2158L90.2246 72H88.8232V70.79L93.8545 62.0469H95.1943V63.2158ZM94.5176 62.0469V63.708H88.7822V62.0469H94.5176Z" fill="url(#paint0_linear_363_3380)"/>
<path d="M367.261 62.0469V72H365.258V62.0469H367.261ZM370.378 66.2783V67.9326H366.755V66.2783H370.378ZM370.761 62.0469V63.708H366.755V62.0469H370.761ZM374.862 70.2979V66.8799C374.862 66.6566 374.835 66.4788 374.78 66.3467C374.73 66.2145 374.653 66.1188 374.548 66.0596C374.448 65.9958 374.325 65.9639 374.179 65.9639C374.015 65.9639 373.878 65.998 373.769 66.0664C373.659 66.1348 373.577 66.2327 373.522 66.3604C373.472 66.488 373.447 66.6406 373.447 66.8184H371.526C371.526 66.4993 371.588 66.1986 371.711 65.916C371.834 65.6289 372.014 65.3783 372.251 65.1641C372.493 64.9453 372.78 64.7744 373.112 64.6514C373.445 64.5283 373.819 64.4668 374.233 64.4668C374.726 64.4668 375.163 64.5511 375.546 64.7197C375.929 64.8838 376.232 65.1458 376.455 65.5059C376.678 65.8659 376.79 66.333 376.79 66.9072V70.2021C376.79 70.6169 376.811 70.9541 376.852 71.2139C376.897 71.4736 376.963 71.6969 377.05 71.8838V72H375.122C375.035 71.7949 374.969 71.5397 374.924 71.2344C374.883 70.9245 374.862 70.6123 374.862 70.2979ZM375.095 67.4814L375.102 68.6299H374.397C374.215 68.6299 374.056 68.6595 373.919 68.7188C373.787 68.778 373.675 68.8623 373.584 68.9717C373.493 69.0765 373.424 69.1995 373.379 69.3408C373.338 69.4821 373.317 69.6325 373.317 69.792C373.317 69.9697 373.342 70.1201 373.393 70.2432C373.443 70.3662 373.518 70.4596 373.618 70.5234C373.718 70.5872 373.837 70.6191 373.974 70.6191C374.183 70.6191 374.366 70.5758 374.521 70.4893C374.675 70.4027 374.789 70.2979 374.862 70.1748C374.94 70.0518 374.965 69.9378 374.938 69.833L375.375 70.5781C375.32 70.7467 375.245 70.9222 375.149 71.1045C375.058 71.2868 374.942 71.4554 374.801 71.6104C374.66 71.7653 374.484 71.8929 374.274 71.9932C374.069 72.0889 373.826 72.1367 373.543 72.1367C373.146 72.1367 372.784 72.0456 372.456 71.8633C372.128 71.681 371.868 71.4258 371.677 71.0977C371.49 70.7695 371.396 70.3799 371.396 69.9287C371.396 69.555 371.456 69.2178 371.574 68.917C371.697 68.6117 371.88 68.3542 372.121 68.1445C372.363 67.9303 372.668 67.7663 373.037 67.6523C373.406 67.5384 373.839 67.4814 374.336 67.4814H375.095ZM380.119 61.4932V72H378.205V61.4932H380.119ZM384.009 64.6035L381.404 68.2812L379.839 70.0381L379.162 68.582L380.365 66.8252L381.726 64.6035H384.009ZM382.013 72L380.399 68.6025L381.719 67.3857L384.207 72H382.013ZM388.131 64.6035V66.0459H384.357V64.6035H388.131ZM385.226 62.7783H387.133V69.7441C387.133 69.9492 387.153 70.1064 387.194 70.2158C387.235 70.3252 387.297 70.4027 387.379 70.4482C387.465 70.4893 387.579 70.5098 387.721 70.5098C387.816 70.5098 387.905 70.5052 387.987 70.4961C388.069 70.4824 388.131 70.4688 388.172 70.4551V71.9521C388.021 72.0114 387.862 72.057 387.693 72.0889C387.529 72.1208 387.333 72.1367 387.105 72.1367C386.723 72.1367 386.39 72.0638 386.107 71.918C385.829 71.7721 385.613 71.5397 385.458 71.2207C385.303 70.8971 385.226 70.4733 385.226 69.9492V62.7783ZM392.772 70.2227V64.6035H394.693V72H392.889L392.772 70.2227ZM392.991 68.6982L393.524 68.6846C393.524 69.1813 393.477 69.6416 393.381 70.0654C393.285 70.4847 393.142 70.8493 392.95 71.1592C392.759 71.4691 392.52 71.7106 392.232 71.8838C391.945 72.0524 391.606 72.1367 391.214 72.1367C390.913 72.1367 390.635 72.0866 390.38 71.9863C390.129 71.8815 389.913 71.7197 389.73 71.501C389.548 71.2777 389.405 70.9928 389.3 70.6465C389.2 70.2956 389.149 69.874 389.149 69.3818V64.6035H391.07V69.4023C391.07 69.6029 391.089 69.776 391.125 69.9219C391.161 70.0632 391.212 70.1794 391.275 70.2705C391.339 70.3617 391.414 70.4277 391.501 70.4688C391.588 70.5052 391.686 70.5234 391.795 70.5234C392.096 70.5234 392.333 70.446 392.506 70.291C392.684 70.1315 392.809 69.915 392.882 69.6416C392.955 69.3636 392.991 69.0492 392.991 68.6982ZM398.002 66.251V72H396.088V64.6035H397.893L398.002 66.251ZM399.745 64.5488L399.718 66.4561C399.631 66.4378 399.526 66.4242 399.403 66.415C399.285 66.4059 399.18 66.4014 399.089 66.4014C398.875 66.4014 398.692 66.4355 398.542 66.5039C398.392 66.5677 398.266 66.6657 398.166 66.7979C398.07 66.9255 397.997 67.085 397.947 67.2764C397.897 67.4678 397.868 67.6842 397.858 67.9258L397.496 67.7891C397.496 67.306 397.533 66.8639 397.605 66.4629C397.683 66.0573 397.797 65.7064 397.947 65.4102C398.098 65.1094 398.278 64.877 398.487 64.7129C398.701 64.5488 398.943 64.4668 399.212 64.4668C399.303 64.4668 399.399 64.4759 399.499 64.4941C399.604 64.5078 399.686 64.526 399.745 64.5488ZM403.778 70.2979V66.8799C403.778 66.6566 403.751 66.4788 403.696 66.3467C403.646 66.2145 403.569 66.1188 403.464 66.0596C403.364 65.9958 403.241 65.9639 403.095 65.9639C402.931 65.9639 402.794 65.998 402.685 66.0664C402.575 66.1348 402.493 66.2327 402.438 66.3604C402.388 66.488 402.363 66.6406 402.363 66.8184H400.442C400.442 66.4993 400.504 66.1986 400.627 65.916C400.75 65.6289 400.93 65.3783 401.167 65.1641C401.409 64.9453 401.696 64.7744 402.028 64.6514C402.361 64.5283 402.735 64.4668 403.149 64.4668C403.642 64.4668 404.079 64.5511 404.462 64.7197C404.845 64.8838 405.148 65.1458 405.371 65.5059C405.594 65.8659 405.706 66.333 405.706 66.9072V70.2021C405.706 70.6169 405.727 70.9541 405.768 71.2139C405.813 71.4736 405.879 71.6969 405.966 71.8838V72H404.038C403.951 71.7949 403.885 71.5397 403.84 71.2344C403.799 70.9245 403.778 70.6123 403.778 70.2979ZM404.011 67.4814L404.018 68.6299H403.313C403.131 68.6299 402.972 68.6595 402.835 68.7188C402.703 68.778 402.591 68.8623 402.5 68.9717C402.409 69.0765 402.34 69.1995 402.295 69.3408C402.254 69.4821 402.233 69.6325 402.233 69.792C402.233 69.9697 402.258 70.1201 402.309 70.2432C402.359 70.3662 402.434 70.4596 402.534 70.5234C402.634 70.5872 402.753 70.6191 402.89 70.6191C403.099 70.6191 403.282 70.5758 403.437 70.4893C403.591 70.4027 403.705 70.2979 403.778 70.1748C403.856 70.0518 403.881 69.9378 403.854 69.833L404.291 70.5781C404.236 70.7467 404.161 70.9222 404.065 71.1045C403.974 71.2868 403.858 71.4554 403.717 71.6104C403.576 71.7653 403.4 71.8929 403.19 71.9932C402.985 72.0889 402.742 72.1367 402.459 72.1367C402.062 72.1367 401.7 72.0456 401.372 71.8633C401.044 71.681 400.784 71.4258 400.593 71.0977C400.406 70.7695 400.312 70.3799 400.312 69.9287C400.312 69.555 400.372 69.2178 400.49 68.917C400.613 68.6117 400.796 68.3542 401.037 68.1445C401.279 67.9303 401.584 67.7663 401.953 67.6523C402.322 67.5384 402.755 67.4814 403.252 67.4814H404.011ZM409.794 70.5439C409.972 70.5439 410.124 70.5075 410.252 70.4346C410.384 70.3617 410.484 70.2432 410.553 70.0791C410.621 69.915 410.658 69.7031 410.662 69.4434H412.46C412.46 69.9993 412.341 70.4801 412.104 70.8857C411.872 71.2868 411.558 71.5967 411.161 71.8154C410.769 72.0296 410.325 72.1367 409.828 72.1367C409.331 72.1367 408.898 72.057 408.529 71.8975C408.16 71.738 407.855 71.5055 407.613 71.2002C407.376 70.8949 407.196 70.5234 407.073 70.0859C406.955 69.6439 406.896 69.138 406.896 68.5684V68.0283C406.896 67.4678 406.955 66.9665 407.073 66.5244C407.196 66.0824 407.376 65.7087 407.613 65.4033C407.855 65.098 408.158 64.8656 408.522 64.7061C408.892 64.5465 409.325 64.4668 409.821 64.4668C410.354 64.4668 410.817 64.5785 411.209 64.8018C411.601 65.0205 411.906 65.3441 412.125 65.7725C412.348 66.2008 412.46 66.7295 412.46 67.3584H410.662C410.658 67.0758 410.623 66.8411 410.56 66.6543C410.5 66.4629 410.407 66.3171 410.279 66.2168C410.156 66.112 409.992 66.0596 409.787 66.0596C409.573 66.0596 409.4 66.1051 409.268 66.1963C409.14 66.2829 409.042 66.4105 408.974 66.5791C408.91 66.7432 408.867 66.9482 408.844 67.1943C408.821 67.4404 408.81 67.7184 408.81 68.0283V68.5684C408.81 68.901 408.819 69.1904 408.837 69.4365C408.86 69.6781 408.903 69.8831 408.967 70.0518C409.035 70.2158 409.133 70.3389 409.261 70.4209C409.393 70.5029 409.571 70.5439 409.794 70.5439ZM416.541 72.1367C416.035 72.1367 415.586 72.0592 415.194 71.9043C414.807 71.7493 414.479 71.526 414.21 71.2344C413.941 70.9382 413.736 70.5804 413.595 70.1611C413.453 69.7419 413.383 69.2633 413.383 68.7256V68.1172C413.383 67.5156 413.451 66.9893 413.588 66.5381C413.725 66.0824 413.918 65.6995 414.169 65.3896C414.42 65.0798 414.727 64.8496 415.092 64.6992C415.461 64.5443 415.878 64.4668 416.343 64.4668C416.808 64.4668 417.215 64.5443 417.566 64.6992C417.922 64.8496 418.216 65.0775 418.448 65.3828C418.681 65.6836 418.856 66.0573 418.975 66.5039C419.093 66.9505 419.152 67.4701 419.152 68.0625V68.9375H414.196V67.5908H417.272V67.4199C417.272 67.1191 417.241 66.8685 417.177 66.668C417.113 66.4629 417.013 66.3102 416.876 66.21C416.739 66.1097 416.557 66.0596 416.329 66.0596C416.138 66.0596 415.976 66.0983 415.844 66.1758C415.712 66.2533 415.607 66.374 415.529 66.5381C415.452 66.7021 415.395 66.9163 415.358 67.1807C415.322 67.4404 415.304 67.7526 415.304 68.1172V68.7256C415.304 69.0674 415.333 69.3545 415.393 69.5869C415.452 69.8148 415.538 70.0016 415.652 70.1475C415.771 70.2887 415.914 70.3913 416.083 70.4551C416.252 70.5143 416.448 70.5439 416.671 70.5439C417.008 70.5439 417.311 70.4847 417.58 70.3662C417.854 70.2432 418.086 70.0768 418.277 69.8672L419.043 71.0293C418.911 71.2025 418.729 71.3757 418.496 71.5488C418.264 71.722 417.986 71.8633 417.662 71.9727C417.339 72.082 416.965 72.1367 416.541 72.1367Z" fill="url(#paint1_linear_363_3380)"/>
<path d="M680.338 61.251V62.9121C680.338 63.6139 680.251 64.2292 680.078 64.7578C679.91 65.2819 679.668 65.7217 679.354 66.0771C679.044 66.4281 678.668 66.6924 678.226 66.8701C677.788 67.0479 677.303 67.1367 676.77 67.1367C676.236 67.1367 675.749 67.0479 675.307 66.8701C674.869 66.6924 674.491 66.4281 674.172 66.0771C673.857 65.7217 673.614 65.2819 673.44 64.7578C673.267 64.2292 673.181 63.6139 673.181 62.9121V61.251C673.181 60.5309 673.265 59.902 673.434 59.3643C673.602 58.8219 673.846 58.3708 674.165 58.0107C674.484 57.6462 674.862 57.3727 675.3 57.1904C675.737 57.0036 676.223 56.9102 676.756 56.9102C677.289 56.9102 677.774 57.0036 678.212 57.1904C678.649 57.3727 679.028 57.6462 679.347 58.0107C679.666 58.3708 679.91 58.8219 680.078 59.3643C680.251 59.902 680.338 60.5309 680.338 61.251ZM678.349 62.9121V61.2373C678.349 60.7633 678.314 60.36 678.246 60.0273C678.178 59.6901 678.075 59.4144 677.938 59.2002C677.802 58.986 677.635 58.8288 677.439 58.7285C677.243 58.6283 677.016 58.5781 676.756 58.5781C676.496 58.5781 676.266 58.6283 676.065 58.7285C675.869 58.8288 675.703 58.986 675.566 59.2002C675.434 59.4144 675.334 59.6901 675.266 60.0273C675.202 60.36 675.17 60.7633 675.17 61.2373V62.9121C675.17 63.3678 675.204 63.7575 675.272 64.0811C675.341 64.4046 675.443 64.6689 675.58 64.874C675.717 65.0791 675.883 65.2318 676.079 65.332C676.28 65.4277 676.51 65.4756 676.77 65.4756C677.025 65.4756 677.25 65.4277 677.446 65.332C677.647 65.2318 677.813 65.0791 677.945 64.874C678.077 64.6689 678.178 64.4046 678.246 64.0811C678.314 63.7575 678.349 63.3678 678.349 62.9121ZM683.879 65.5234L685.068 59.6035H687.064L685.034 67H683.838L683.879 65.5234ZM683.175 59.6035L684.385 65.5303L684.405 67H683.202L681.172 59.6035H683.175ZM690.872 67.1367C690.366 67.1367 689.917 67.0592 689.525 66.9043C689.138 66.7493 688.81 66.526 688.541 66.2344C688.272 65.9382 688.067 65.5804 687.926 65.1611C687.785 64.7419 687.714 64.2633 687.714 63.7256V63.1172C687.714 62.5156 687.782 61.9893 687.919 61.5381C688.056 61.0824 688.249 60.6995 688.5 60.3896C688.751 60.0798 689.058 59.8496 689.423 59.6992C689.792 59.5443 690.209 59.4668 690.674 59.4668C691.139 59.4668 691.547 59.5443 691.897 59.6992C692.253 59.8496 692.547 60.0775 692.779 60.3828C693.012 60.6836 693.187 61.0573 693.306 61.5039C693.424 61.9505 693.483 62.4701 693.483 63.0625V63.9375H688.527V62.5908H691.604V62.4199C691.604 62.1191 691.572 61.8685 691.508 61.668C691.444 61.4629 691.344 61.3102 691.207 61.21C691.07 61.1097 690.888 61.0596 690.66 61.0596C690.469 61.0596 690.307 61.0983 690.175 61.1758C690.043 61.2533 689.938 61.374 689.86 61.5381C689.783 61.7021 689.726 61.9163 689.689 62.1807C689.653 62.4404 689.635 62.7526 689.635 63.1172V63.7256C689.635 64.0674 689.664 64.3545 689.724 64.5869C689.783 64.8148 689.869 65.0016 689.983 65.1475C690.102 65.2887 690.245 65.3913 690.414 65.4551C690.583 65.5143 690.779 65.5439 691.002 65.5439C691.339 65.5439 691.642 65.4847 691.911 65.3662C692.185 65.2432 692.417 65.0768 692.608 64.8672L693.374 66.0293C693.242 66.2025 693.06 66.3757 692.827 66.5488C692.595 66.722 692.317 66.8633 691.993 66.9727C691.67 67.082 691.296 67.1367 690.872 67.1367ZM689.635 56.4863L690.421 57.457L691.214 56.4863H692.841V56.5547L691.022 58.4756H689.84L688.008 56.5479V56.4863H689.635ZM696.505 61.251V67H694.591V59.6035H696.396L696.505 61.251ZM698.248 59.5488L698.221 61.4561C698.134 61.4378 698.029 61.4242 697.906 61.415C697.788 61.4059 697.683 61.4014 697.592 61.4014C697.378 61.4014 697.195 61.4355 697.045 61.5039C696.895 61.5677 696.769 61.6657 696.669 61.7979C696.573 61.9255 696.5 62.085 696.45 62.2764C696.4 62.4678 696.37 62.6842 696.361 62.9258L695.999 62.7891C695.999 62.306 696.035 61.8639 696.108 61.4629C696.186 61.0573 696.3 60.7064 696.45 60.4102C696.601 60.1094 696.781 59.877 696.99 59.7129C697.204 59.5488 697.446 59.4668 697.715 59.4668C697.806 59.4668 697.902 59.4759 698.002 59.4941C698.107 59.5078 698.189 59.526 698.248 59.5488ZM695.589 56.4932L696.375 57.4639L697.168 56.4932H698.795V56.5615L696.977 58.4824H695.794L693.962 56.5547V56.4932H695.589ZM702.069 67.1367C701.563 67.1367 701.115 67.0592 700.723 66.9043C700.335 66.7493 700.007 66.526 699.738 66.2344C699.469 65.9382 699.264 65.5804 699.123 65.1611C698.982 64.7419 698.911 64.2633 698.911 63.7256V63.1172C698.911 62.5156 698.979 61.9893 699.116 61.5381C699.253 61.0824 699.447 60.6995 699.697 60.3896C699.948 60.0798 700.256 59.8496 700.62 59.6992C700.989 59.5443 701.406 59.4668 701.871 59.4668C702.336 59.4668 702.744 59.5443 703.095 59.6992C703.45 59.8496 703.744 60.0775 703.977 60.3828C704.209 60.6836 704.384 61.0573 704.503 61.5039C704.621 61.9505 704.681 62.4701 704.681 63.0625V63.9375H699.725V62.5908H702.801V62.4199C702.801 62.1191 702.769 61.8685 702.705 61.668C702.641 61.4629 702.541 61.3102 702.404 61.21C702.268 61.1097 702.085 61.0596 701.857 61.0596C701.666 61.0596 701.504 61.0983 701.372 61.1758C701.24 61.2533 701.135 61.374 701.058 61.5381C700.98 61.7021 700.923 61.9163 700.887 62.1807C700.85 62.4404 700.832 62.7526 700.832 63.1172V63.7256C700.832 64.0674 700.862 64.3545 700.921 64.5869C700.98 64.8148 701.067 65.0016 701.181 65.1475C701.299 65.2887 701.443 65.3913 701.611 65.4551C701.78 65.5143 701.976 65.5439 702.199 65.5439C702.536 65.5439 702.84 65.4847 703.108 65.3662C703.382 65.2432 703.614 65.0768 703.806 64.8672L704.571 66.0293C704.439 66.2025 704.257 66.3757 704.024 66.5488C703.792 66.722 703.514 66.8633 703.19 66.9727C702.867 67.082 702.493 67.1367 702.069 67.1367ZM707.668 61.1826V67H705.747V59.6035H707.545L707.668 61.1826ZM707.381 63.0488L706.868 63.0625C706.859 62.5065 706.911 62.0075 707.025 61.5654C707.144 61.1234 707.31 60.7474 707.524 60.4375C707.743 60.123 708.003 59.8838 708.304 59.7197C708.609 59.5511 708.949 59.4668 709.322 59.4668C709.609 59.4668 709.871 59.5169 710.108 59.6172C710.35 59.7174 710.557 59.877 710.73 60.0957C710.904 60.3145 711.038 60.6061 711.134 60.9707C711.229 61.3307 711.277 61.7728 711.277 62.2969V67H709.356V62.2832C709.356 61.9642 709.325 61.7181 709.261 61.5449C709.197 61.3672 709.101 61.2441 708.974 61.1758C708.846 61.1029 708.687 61.0664 708.495 61.0664C708.313 61.0664 708.151 61.1188 708.01 61.2236C707.868 61.3239 707.75 61.4629 707.654 61.6406C707.563 61.8184 707.493 62.028 707.442 62.2695C707.397 62.5111 707.376 62.7708 707.381 63.0488ZM714.743 59.6035V67H712.822V59.6035H714.743ZM712.856 58.7217L714.196 56.6094H716.35L714.463 58.7217H712.856ZM722.83 65.2979V61.8799C722.83 61.6566 722.803 61.4788 722.748 61.3467C722.698 61.2145 722.62 61.1188 722.516 61.0596C722.415 60.9958 722.292 60.9639 722.146 60.9639C721.982 60.9639 721.846 60.998 721.736 61.0664C721.627 61.1348 721.545 61.2327 721.49 61.3604C721.44 61.488 721.415 61.6406 721.415 61.8184H719.494C719.494 61.4993 719.556 61.1986 719.679 60.916C719.802 60.6289 719.982 60.3783 720.219 60.1641C720.46 59.9453 720.747 59.7744 721.08 59.6514C721.413 59.5283 721.786 59.4668 722.201 59.4668C722.693 59.4668 723.131 59.5511 723.514 59.7197C723.896 59.8838 724.2 60.1458 724.423 60.5059C724.646 60.8659 724.758 61.333 724.758 61.9072V65.2021C724.758 65.6169 724.778 65.9541 724.819 66.2139C724.865 66.4736 724.931 66.6969 725.018 66.8838V67H723.09C723.003 66.7949 722.937 66.5397 722.892 66.2344C722.851 65.9245 722.83 65.6123 722.83 65.2979ZM723.062 62.4814L723.069 63.6299H722.365C722.183 63.6299 722.023 63.6595 721.887 63.7188C721.755 63.778 721.643 63.8623 721.552 63.9717C721.461 64.0765 721.392 64.1995 721.347 64.3408C721.306 64.4821 721.285 64.6325 721.285 64.792C721.285 64.9697 721.31 65.1201 721.36 65.2432C721.41 65.3662 721.486 65.4596 721.586 65.5234C721.686 65.5872 721.805 65.6191 721.941 65.6191C722.151 65.6191 722.333 65.5758 722.488 65.4893C722.643 65.4027 722.757 65.2979 722.83 65.1748C722.908 65.0518 722.933 64.9378 722.905 64.833L723.343 65.5781C723.288 65.7467 723.213 65.9222 723.117 66.1045C723.026 66.2868 722.91 66.4554 722.769 66.6104C722.627 66.7653 722.452 66.8929 722.242 66.9932C722.037 67.0889 721.793 67.1367 721.511 67.1367C721.114 67.1367 720.752 67.0456 720.424 66.8633C720.096 66.681 719.836 66.4258 719.645 66.0977C719.458 65.7695 719.364 65.3799 719.364 64.9287C719.364 64.555 719.424 64.2178 719.542 63.917C719.665 63.6117 719.847 63.3542 720.089 63.1445C720.33 62.9303 720.636 62.7663 721.005 62.6523C721.374 62.5384 721.807 62.4814 722.304 62.4814H723.062ZM684.18 75.0254V83.8438H682.272V73.6035H684.036L684.18 75.0254ZM688.021 77.0488V77.541C688.021 78.1198 687.971 78.6325 687.871 79.0791C687.771 79.5212 687.62 79.8971 687.42 80.207C687.224 80.5124 686.978 80.7448 686.682 80.9043C686.385 81.0592 686.039 81.1367 685.643 81.1367C685.273 81.1367 684.954 81.0501 684.686 80.877C684.421 80.6992 684.198 80.4554 684.016 80.1455C683.833 79.8356 683.688 79.4733 683.578 79.0586C683.469 78.6439 683.384 78.1995 683.325 77.7256V76.96C683.38 76.4541 683.46 75.9893 683.564 75.5654C683.669 75.137 683.813 74.7656 683.995 74.4512C684.182 74.1367 684.408 73.8952 684.672 73.7266C684.941 73.5534 685.26 73.4668 685.629 73.4668C686.03 73.4668 686.379 73.5397 686.675 73.6855C686.976 73.8314 687.224 74.0524 687.42 74.3486C687.62 74.6403 687.771 75.0117 687.871 75.4629C687.971 75.9141 688.021 76.4427 688.021 77.0488ZM686.107 77.541V77.0488C686.107 76.6934 686.087 76.3903 686.046 76.1396C686.009 75.889 685.95 75.6839 685.868 75.5244C685.786 75.3649 685.679 75.2487 685.547 75.1758C685.415 75.1029 685.253 75.0664 685.062 75.0664C684.875 75.0664 684.711 75.1029 684.569 75.1758C684.433 75.2487 684.321 75.3558 684.234 75.4971C684.148 75.6338 684.082 75.8024 684.036 76.0029C683.991 76.1989 683.965 76.4222 683.961 76.6729V78.0127C683.97 78.3089 684.009 78.571 684.077 78.7988C684.15 79.0267 684.266 79.209 684.426 79.3457C684.585 79.4779 684.802 79.5439 685.075 79.5439C685.271 79.5439 685.433 79.5029 685.561 79.4209C685.693 79.3389 685.8 79.2158 685.882 79.0518C685.964 78.8877 686.021 78.6803 686.053 78.4297C686.089 78.179 686.107 77.8828 686.107 77.541ZM691.207 70.5V81H689.286V70.5H691.207ZM695.985 79.2979V75.8799C695.985 75.6566 695.958 75.4788 695.903 75.3467C695.853 75.2145 695.776 75.1188 695.671 75.0596C695.571 74.9958 695.448 74.9639 695.302 74.9639C695.138 74.9639 695.001 74.998 694.892 75.0664C694.782 75.1348 694.7 75.2327 694.646 75.3604C694.595 75.488 694.57 75.6406 694.57 75.8184H692.649C692.649 75.4993 692.711 75.1986 692.834 74.916C692.957 74.6289 693.137 74.3783 693.374 74.1641C693.616 73.9453 693.903 73.7744 694.235 73.6514C694.568 73.5283 694.942 73.4668 695.356 73.4668C695.849 73.4668 696.286 73.5511 696.669 73.7197C697.052 73.8838 697.355 74.1458 697.578 74.5059C697.801 74.8659 697.913 75.333 697.913 75.9072V79.2021C697.913 79.6169 697.934 79.9541 697.975 80.2139C698.02 80.4736 698.086 80.6969 698.173 80.8838V81H696.245C696.159 80.7949 696.092 80.5397 696.047 80.2344C696.006 79.9245 695.985 79.6123 695.985 79.2979ZM696.218 76.4814L696.225 77.6299H695.521C695.338 77.6299 695.179 77.6595 695.042 77.7188C694.91 77.778 694.798 77.8623 694.707 77.9717C694.616 78.0765 694.548 78.1995 694.502 78.3408C694.461 78.4821 694.44 78.6325 694.44 78.792C694.44 78.9697 694.465 79.1201 694.516 79.2432C694.566 79.3662 694.641 79.4596 694.741 79.5234C694.841 79.5872 694.96 79.6191 695.097 79.6191C695.306 79.6191 695.489 79.5758 695.644 79.4893C695.799 79.4027 695.912 79.2979 695.985 79.1748C696.063 79.0518 696.088 78.9378 696.061 78.833L696.498 79.5781C696.443 79.7467 696.368 79.9222 696.272 80.1045C696.181 80.2868 696.065 80.4554 695.924 80.6104C695.783 80.7653 695.607 80.8929 695.397 80.9932C695.192 81.0889 694.949 81.1367 694.666 81.1367C694.27 81.1367 693.907 81.0456 693.579 80.8633C693.251 80.681 692.991 80.4258 692.8 80.0977C692.613 79.7695 692.52 79.3799 692.52 78.9287C692.52 78.555 692.579 78.2178 692.697 77.917C692.82 77.6117 693.003 77.3542 693.244 77.1445C693.486 76.9303 693.791 76.7663 694.16 76.6523C694.529 76.5384 694.962 76.4814 695.459 76.4814H696.218ZM702.555 73.6035V75.0459H698.781V73.6035H702.555ZM699.649 71.7783H701.557V78.7441C701.557 78.9492 701.577 79.1064 701.618 79.2158C701.659 79.3252 701.721 79.4027 701.803 79.4482C701.889 79.4893 702.003 79.5098 702.145 79.5098C702.24 79.5098 702.329 79.5052 702.411 79.4961C702.493 79.4824 702.555 79.4688 702.596 79.4551V80.9521C702.445 81.0114 702.286 81.057 702.117 81.0889C701.953 81.1208 701.757 81.1367 701.529 81.1367C701.146 81.1367 700.814 81.0638 700.531 80.918C700.253 80.7721 700.037 80.5397 699.882 80.2207C699.727 79.8971 699.649 79.4733 699.649 78.9492V71.7783ZM703.628 70.5H705.535V79.2842L705.398 81H703.628V70.5ZM709.377 77.0557V77.541C709.377 78.1426 709.329 78.6667 709.233 79.1133C709.142 79.5599 708.999 79.9336 708.803 80.2344C708.611 80.5352 708.365 80.7607 708.064 80.9111C707.764 81.0615 707.408 81.1367 706.998 81.1367C706.629 81.1367 706.312 81.0501 706.048 80.877C705.784 80.6992 705.56 80.4554 705.378 80.1455C705.2 79.8311 705.054 79.4642 704.94 79.0449C704.831 78.6211 704.751 78.1585 704.701 77.6572V76.9395C704.747 76.4473 704.824 75.9893 704.934 75.5654C705.048 75.1416 705.193 74.7747 705.371 74.4648C705.549 74.1504 705.77 73.9066 706.034 73.7334C706.303 73.5557 706.62 73.4668 706.984 73.4668C707.404 73.4668 707.764 73.5443 708.064 73.6992C708.365 73.8496 708.611 74.0752 708.803 74.376C708.999 74.6768 709.142 75.0527 709.233 75.5039C709.329 75.9505 709.377 76.4678 709.377 77.0557ZM707.47 77.541V77.0557C707.47 76.7139 707.456 76.4199 707.429 76.1738C707.401 75.9277 707.351 75.7227 707.278 75.5586C707.205 75.3945 707.101 75.2715 706.964 75.1895C706.832 75.1074 706.656 75.0664 706.438 75.0664C706.242 75.0664 706.077 75.1051 705.945 75.1826C705.813 75.2555 705.699 75.3649 705.604 75.5107C705.512 75.652 705.444 75.8206 705.398 76.0166C705.357 76.208 705.335 76.4199 705.33 76.6523V77.9443C705.335 78.2588 705.373 78.5368 705.446 78.7783C705.519 79.0199 705.635 79.2067 705.795 79.3389C705.959 79.471 706.178 79.5371 706.451 79.5371C706.665 79.5371 706.839 79.5007 706.971 79.4277C707.103 79.3548 707.205 79.2386 707.278 79.0791C707.356 78.9196 707.406 78.7145 707.429 78.4639C707.456 78.2087 707.47 77.901 707.47 77.541ZM713.813 79.2979V75.8799C713.813 75.6566 713.786 75.4788 713.731 75.3467C713.681 75.2145 713.604 75.1188 713.499 75.0596C713.399 74.9958 713.276 74.9639 713.13 74.9639C712.966 74.9639 712.829 74.998 712.72 75.0664C712.61 75.1348 712.528 75.2327 712.474 75.3604C712.424 75.488 712.398 75.6406 712.398 75.8184H710.478C710.478 75.4993 710.539 75.1986 710.662 74.916C710.785 74.6289 710.965 74.3783 711.202 74.1641C711.444 73.9453 711.731 73.7744 712.063 73.6514C712.396 73.5283 712.77 73.4668 713.185 73.4668C713.677 73.4668 714.114 73.5511 714.497 73.7197C714.88 73.8838 715.183 74.1458 715.406 74.5059C715.63 74.8659 715.741 75.333 715.741 75.9072V79.2021C715.741 79.6169 715.762 79.9541 715.803 80.2139C715.848 80.4736 715.914 80.6969 716.001 80.8838V81H714.073C713.987 80.7949 713.921 80.5397 713.875 80.2344C713.834 79.9245 713.813 79.6123 713.813 79.2979ZM714.046 76.4814L714.053 77.6299H713.349C713.166 77.6299 713.007 77.6595 712.87 77.7188C712.738 77.778 712.626 77.8623 712.535 77.9717C712.444 78.0765 712.376 78.1995 712.33 78.3408C712.289 78.4821 712.269 78.6325 712.269 78.792C712.269 78.9697 712.294 79.1201 712.344 79.2432C712.394 79.3662 712.469 79.4596 712.569 79.5234C712.67 79.5872 712.788 79.6191 712.925 79.6191C713.134 79.6191 713.317 79.5758 713.472 79.4893C713.627 79.4027 713.741 79.2979 713.813 79.1748C713.891 79.0518 713.916 78.9378 713.889 78.833L714.326 79.5781C714.271 79.7467 714.196 79.9222 714.101 80.1045C714.009 80.2868 713.893 80.4554 713.752 80.6104C713.611 80.7653 713.435 80.8929 713.226 80.9932C713.021 81.0889 712.777 81.1367 712.494 81.1367C712.098 81.1367 711.735 81.0456 711.407 80.8633C711.079 80.681 710.819 80.4258 710.628 80.0977C710.441 79.7695 710.348 79.3799 710.348 78.9287C710.348 78.555 710.407 78.2178 710.525 77.917C710.648 77.6117 710.831 77.3542 711.072 77.1445C711.314 76.9303 711.619 76.7663 711.988 76.6523C712.357 76.5384 712.79 76.4814 713.287 76.4814H714.046Z" fill="url(#paint2_linear_363_3380)"/>
<path fill-rule="evenodd" clip-rule="evenodd" d="M376 33H83V31H376V33Z" fill="url(#paint3_linear_363_3380)"/>
<path fill-rule="evenodd" clip-rule="evenodd" d="M685 33H404V31H685V33Z" fill="url(#paint4_linear_363_3380)"/>
<g filter="url(#filter0_d_363_3380)">
<path d="M69 17C60.7125 17 54 23.7125 54 32C54 34.8125 54.7875 37.475 56.175 39.725C57.497 41.9468 59.3748 43.7861 61.6236 45.0617C63.8724 46.3373 66.4146 47.0053 69 47C74.475 47 79.2375 44.075 81.825 39.725C83.2125 37.475 84 34.8125 84 32C84 23.7125 77.2875 17 69 17ZM76.3875 30.7625L68.4 38.15C67.875 38.6375 67.1625 38.9 66.4875 38.9C65.775 38.9 65.0625 38.6375 64.5 38.075L60.7875 34.3625C60.2644 33.8332 59.9711 33.1191 59.9711 32.375C59.9711 31.6309 60.2644 30.9168 60.7875 30.3875C61.875 29.3 63.675 29.3 64.7625 30.3875L66.5625 32.1875L72.5625 26.6375C73.6875 25.5875 75.4875 25.6625 76.5375 26.7875C77.5875 27.9125 77.5125 29.7125 76.3875 30.7625Z" fill="url(#paint5_linear_363_3380)"/>
</g>
<g filter="url(#filter1_d_363_3380)">
<path d="M390 17C381.712 17 375 23.7125 375 32C375 34.8125 375.788 37.475 377.175 39.725C378.497 41.9468 380.375 43.7861 382.624 45.0617C384.872 46.3373 387.415 47.0053 390 47C395.475 47 400.238 44.075 402.825 39.725C404.213 37.475 405 34.8125 405 32C405 23.7125 398.288 17 390 17ZM397.387 30.7625L389.4 38.15C388.875 38.6375 388.162 38.9 387.487 38.9C386.775 38.9 386.062 38.6375 385.5 38.075L381.787 34.3625C381.264 33.8332 380.971 33.1191 380.971 32.375C380.971 31.6309 381.264 30.9168 381.787 30.3875C382.875 29.3 384.675 29.3 385.762 30.3875L387.562 32.1875L393.562 26.6375C394.687 25.5875 396.488 25.6625 397.538 26.7875C398.588 27.9125 398.512 29.7125 397.387 30.7625Z" fill="url(#paint6_linear_363_3380)"/>
</g>
<g filter="url(#filter2_d_363_3380)">
<path d="M697 17C688.712 17 682 23.7125 682 32C682 34.8125 682.788 37.475 684.175 39.725C685.497 41.9468 687.375 43.7861 689.624 45.0617C691.872 46.3373 694.415 47.0053 697 47C702.475 47 707.238 44.075 709.825 39.725C711.213 37.475 712 34.8125 712 32C712 23.7125 705.288 17 697 17ZM704.387 30.7625L696.4 38.15C695.875 38.6375 695.162 38.9 694.487 38.9C693.775 38.9 693.062 38.6375 692.5 38.075L688.787 34.3625C688.264 33.8332 687.971 33.1191 687.971 32.375C687.971 31.6309 688.264 30.9168 688.787 30.3875C689.875 29.3 691.675 29.3 692.762 30.3875L694.562 32.1875L700.562 26.6375C701.687 25.5875 703.488 25.6625 704.538 26.7875C705.588 27.9125 705.512 29.7125 704.387 30.7625Z" fill="url(#paint7_linear_363_3380)"/>
</g>
<defs>
<filter id="filter0_d_363_3380" x="37" y="0" width="74" height="74" filterUnits="userSpaceOnUse" color-interpolation-filters="sRGB">
<feFlood flood-opacity="0" result="BackgroundImageFix"/>
<feColorMatrix in="SourceAlpha" type="matrix" values="0 0 0 0 0 0 0 0 0 0 0 0 0 0 0 0 0 0 127 0" result="hardAlpha"/>
<feOffset dx="5" dy="5"/>
<feGaussianBlur stdDeviation="11"/>
<feComposite in2="hardAlpha" operator="out"/>
<feColorMatrix type="matrix" values="0 0 0 0 0.0392157 0 0 0 0 0.560784 0 0 0 0 0.309804 0 0 0 0.2 0"/>
<feBlend mode="normal" in2="BackgroundImageFix" result="effect1_dropShadow_363_3380"/>
<feBlend mode="normal" in="SourceGraphic" in2="effect1_dropShadow_363_3380" result="shape"/>
</filter>
<filter id="filter1_d_363_3380" x="358" y="0" width="74" height="74" filterUnits="userSpaceOnUse" color-interpolation-filters="sRGB">
<feFlood flood-opacity="0" result="BackgroundImageFix"/>
<feColorMatrix in="SourceAlpha" type="matrix" values="0 0 0 0 0 0 0 0 0 0 0 0 0 0 0 0 0 0 127 0" result="hardAlpha"/>
<feOffset dx="5" dy="5"/>
<feGaussianBlur stdDeviation="11"/>
<feComposite in2="hardAlpha" operator="out"/>
<feColorMatrix type="matrix" values="0 0 0 0 0.0392157 0 0 0 0 0.560784 0 0 0 0 0.309804 0 0 0 0.2 0"/>
<feBlend mode="normal" in2="BackgroundImageFix" result="effect1_dropShadow_363_3380"/>
<feBlend mode="normal" in="SourceGraphic" in2="effect1_dropShadow_363_3380" result="shape"/>
</filter>
<filter id="filter2_d_363_3380" x="665" y="0" width="74" height="74" filterUnits="userSpaceOnUse" color-interpolation-filters="sRGB">
<feFlood flood-opacity="0" result="BackgroundImageFix"/>
<feColorMatrix in="SourceAlpha" type="matrix" values="0 0 0 0 0 0 0 0 0 0 0 0 0 0 0 0 0 0 127 0" result="hardAlpha"/>
<feOffset dx="5" dy="5"/>
<feGaussianBlur stdDeviation="11"/>
<feComposite in2="hardAlpha" operator="out"/>
<feColorMatrix type="matrix" values="0 0 0 0 0.0392157 0 0 0 0 0.560784 0 0 0 0 0.309804 0 0 0 0.2 0"/>
<feBlend mode="normal" in2="BackgroundImageFix" result="effect1_dropShadow_363_3380"/>
<feBlend mode="normal" in="SourceGraphic" in2="effect1_dropShadow_363_3380" result="shape"/>
</filter>
<linearGradient id="paint0_linear_363_3380" x1="68.5" y1="77" x2="68.5" y2="57" gradientUnits="userSpaceOnUse">
<stop stop-color="#5CCC94"/>
<stop offset="1" stop-color="#8CCAAE"/>
</linearGradient>
<linearGradient id="paint1_linear_363_3380" x1="392" y1="77" x2="392" y2="57" gradientUnits="userSpaceOnUse">
<stop stop-color="#5CCC94"/>
<stop offset="1" stop-color="#8CCAAE"/>
</linearGradient>
<linearGradient id="paint2_linear_363_3380" x1="699" y1="83" x2="699" y2="55" gradientUnits="userSpaceOnUse">
<stop stop-color="#5CCC94"/>
<stop offset="1" stop-color="#8CCAAE"/>
</linearGradient>
<linearGradient id="paint3_linear_363_3380" x1="229.5" y1="33" x2="229.5" y2="31" gradientUnits="userSpaceOnUse">
<stop stop-color="#5CCC94"/>
<stop offset="1" stop-color="#8CCAAE"/>
</linearGradient>
<linearGradient id="paint4_linear_363_3380" x1="544.5" y1="33" x2="544.5" y2="31" gradientUnits="userSpaceOnUse">
<stop stop-color="#5CCC94"/>
<stop offset="1" stop-color="#8CCAAE"/>
</linearGradient>
<linearGradient id="paint5_linear_363_3380" x1="69" y1="47" x2="69" y2="17" gradientUnits="userSpaceOnUse">
<stop stop-color="#5CCC94"/>
<stop offset="1" stop-color="#8CCAAE"/>
</linearGradient>
<linearGradient id="paint6_linear_363_3380" x1="390" y1="47" x2="390" y2="17" gradientUnits="userSpaceOnUse">
<stop stop-color="#5CCC94"/>
<stop offset="1" stop-color="#8CCAAE"/>
</linearGradient>
<linearGradient id="paint7_linear_363_3380" x1="697" y1="47" x2="697" y2="17" gradientUnits="userSpaceOnUse">
<stop stop-color="#5CCC94"/>
<stop offset="1" stop-color="#8CCAAE"/>
</linearGradient>
</defs>
</svg>
