<svg width="733" height="86" viewBox="0 0 733 86" fill="none" xmlns="http://www.w3.org/2000/svg">
<path d="M31.3193 62.0469V72H29.3848L26.2607 65.7725V72H24.3604V62.0469H26.2676L29.4189 68.3428V62.0469H31.3193ZM36.4121 70.2227V64.6035H38.333V72H36.5283L36.4121 70.2227ZM36.6309 68.6982L37.1641 68.6846C37.1641 69.1813 37.1162 69.6416 37.0205 70.0654C36.9248 70.4847 36.7812 70.8493 36.5898 71.1592C36.3984 71.4691 36.1592 71.7106 35.8721 71.8838C35.585 72.0524 35.2454 72.1367 34.8535 72.1367C34.5527 72.1367 34.2747 72.0866 34.0195 71.9863C33.7689 71.8815 33.5524 71.7197 33.3701 71.501C33.1878 71.2777 33.0443 70.9928 32.9395 70.6465C32.8392 70.2956 32.7891 69.874 32.7891 69.3818V64.6035H34.71V69.4023C34.71 69.6029 34.7282 69.776 34.7646 69.9219C34.8011 70.0632 34.8512 70.1794 34.915 70.2705C34.9788 70.3617 35.054 70.4277 35.1406 70.4688C35.2272 70.5052 35.3252 70.5234 35.4346 70.5234C35.7354 70.5234 35.9723 70.446 36.1455 70.291C36.3232 70.1315 36.4486 69.915 36.5215 69.6416C36.5944 69.3636 36.6309 69.0492 36.6309 68.6982ZM41.6553 66.1348V72H39.7344V64.6035H41.5391L41.6553 66.1348ZM41.3818 68.0488L40.8555 68.0625C40.8464 67.543 40.8919 67.0645 40.9922 66.627C41.0924 66.1895 41.2428 65.8089 41.4434 65.4854C41.6484 65.1618 41.9059 64.9111 42.2158 64.7334C42.5257 64.5557 42.888 64.4668 43.3027 64.4668C43.5716 64.4668 43.82 64.5169 44.0479 64.6172C44.2757 64.7129 44.474 64.8656 44.6426 65.0752C44.8112 65.2803 44.9411 65.5492 45.0322 65.8818C45.1234 66.21 45.1689 66.6042 45.1689 67.0645V72H43.2549V67.2969C43.2549 66.9688 43.223 66.7181 43.1592 66.5449C43.0954 66.3672 43.0042 66.2441 42.8857 66.1758C42.7673 66.1029 42.6214 66.0664 42.4482 66.0664C42.266 66.0664 42.1064 66.1165 41.9697 66.2168C41.833 66.3171 41.7214 66.4583 41.6348 66.6406C41.5527 66.8184 41.4889 67.028 41.4434 67.2695C41.4023 67.5111 41.3818 67.7708 41.3818 68.0488ZM44.9844 67.8574L44.2939 67.9463C44.2848 67.4587 44.3281 67.0052 44.4238 66.5859C44.5195 66.1621 44.6676 65.793 44.8682 65.4785C45.0687 65.1595 45.3193 64.9111 45.6201 64.7334C45.9255 64.5557 46.2786 64.4668 46.6797 64.4668C46.9805 64.4668 47.2539 64.5169 47.5 64.6172C47.7461 64.7174 47.9557 64.8792 48.1289 65.1025C48.3066 65.3213 48.4411 65.6107 48.5322 65.9707C48.6279 66.3307 48.6758 66.7682 48.6758 67.2832V72H46.7549V67.29C46.7549 66.9574 46.723 66.7021 46.6592 66.5244C46.5954 66.3467 46.5042 66.2259 46.3857 66.1621C46.2673 66.0983 46.126 66.0664 45.9619 66.0664C45.7979 66.0664 45.6543 66.112 45.5312 66.2031C45.4128 66.2943 45.3125 66.4219 45.2305 66.5859C45.1484 66.7454 45.0869 66.9346 45.0459 67.1533C45.0049 67.3675 44.9844 67.6022 44.9844 67.8574ZM53.0986 72.1367C52.5928 72.1367 52.1439 72.0592 51.752 71.9043C51.3646 71.7493 51.0365 71.526 50.7676 71.2344C50.4987 70.9382 50.2936 70.5804 50.1523 70.1611C50.0111 69.7419 49.9404 69.2633 49.9404 68.7256V68.1172C49.9404 67.5156 50.0088 66.9893 50.1455 66.5381C50.2822 66.0824 50.4759 65.6995 50.7266 65.3896C50.9772 65.0798 51.2848 64.8496 51.6494 64.6992C52.0186 64.5443 52.4355 64.4668 52.9004 64.4668C53.3652 64.4668 53.7731 64.5443 54.124 64.6992C54.4795 64.8496 54.7734 65.0775 55.0059 65.3828C55.2383 65.6836 55.4137 66.0573 55.5322 66.5039C55.6507 66.9505 55.71 67.4701 55.71 68.0625V68.9375H50.7539V67.5908H53.8301V67.4199C53.8301 67.1191 53.7982 66.8685 53.7344 66.668C53.6706 66.4629 53.5703 66.3102 53.4336 66.21C53.2969 66.1097 53.1146 66.0596 52.8867 66.0596C52.6953 66.0596 52.5335 66.0983 52.4014 66.1758C52.2692 66.2533 52.1644 66.374 52.0869 66.5381C52.0094 66.7021 51.9525 66.9163 51.916 67.1807C51.8796 67.4404 51.8613 67.7526 51.8613 68.1172V68.7256C51.8613 69.0674 51.891 69.3545 51.9502 69.5869C52.0094 69.8148 52.096 70.0016 52.21 70.1475C52.3285 70.2887 52.472 70.3913 52.6406 70.4551C52.8092 70.5143 53.0052 70.5439 53.2285 70.5439C53.5658 70.5439 53.8688 70.4847 54.1377 70.3662C54.4111 70.2432 54.6436 70.0768 54.835 69.8672L55.6006 71.0293C55.4684 71.2025 55.2861 71.3757 55.0537 71.5488C54.8213 71.722 54.5433 71.8633 54.2197 71.9727C53.8962 72.082 53.5225 72.1367 53.0986 72.1367ZM58.7314 66.251V72H56.8174V64.6035H58.6221L58.7314 66.251ZM60.4746 64.5488L60.4473 66.4561C60.3607 66.4378 60.2559 66.4242 60.1328 66.415C60.0143 66.4059 59.9095 66.4014 59.8184 66.4014C59.6042 66.4014 59.4219 66.4355 59.2715 66.5039C59.1211 66.5677 58.9958 66.6657 58.8955 66.7979C58.7998 66.9255 58.7269 67.085 58.6768 67.2764C58.6266 67.4678 58.597 67.6842 58.5879 67.9258L58.2256 67.7891C58.2256 67.306 58.262 66.8639 58.335 66.4629C58.4124 66.0573 58.5264 65.7064 58.6768 65.4102C58.8271 65.1094 59.0072 64.877 59.2168 64.7129C59.431 64.5488 59.6725 64.4668 59.9414 64.4668C60.0326 64.4668 60.1283 64.4759 60.2285 64.4941C60.3333 64.5078 60.4154 64.526 60.4746 64.5488ZM60.9873 68.5547V68.0557C60.9873 67.4769 61.0557 66.9642 61.1924 66.5176C61.3337 66.071 61.5342 65.6973 61.7939 65.3965C62.0537 65.0911 62.3659 64.861 62.7305 64.7061C63.0996 64.5465 63.512 64.4668 63.9678 64.4668C64.4281 64.4668 64.8405 64.5465 65.2051 64.7061C65.5742 64.861 65.8887 65.0911 66.1484 65.3965C66.4128 65.6973 66.6156 66.071 66.7568 66.5176C66.8981 66.9642 66.9688 67.4769 66.9688 68.0557V68.5547C66.9688 69.1289 66.8981 69.6393 66.7568 70.0859C66.6156 70.5326 66.4128 70.9085 66.1484 71.2139C65.8887 71.5192 65.5765 71.7493 65.2119 71.9043C64.8473 72.0592 64.4372 72.1367 63.9814 72.1367C63.5257 72.1367 63.1133 72.0592 62.7441 71.9043C62.3796 71.7493 62.0651 71.5192 61.8008 71.2139C61.5365 70.9085 61.3337 70.5326 61.1924 70.0859C61.0557 69.6393 60.9873 69.1289 60.9873 68.5547ZM62.9014 68.0557V68.5547C62.9014 68.8965 62.9242 69.1927 62.9697 69.4434C63.0199 69.694 63.0905 69.9014 63.1816 70.0654C63.2773 70.2295 63.3913 70.3503 63.5234 70.4277C63.6556 70.5052 63.8083 70.5439 63.9814 70.5439C64.1546 70.5439 64.3096 70.5052 64.4463 70.4277C64.583 70.3503 64.6947 70.2295 64.7812 70.0654C64.8724 69.9014 64.9385 69.694 64.9795 69.4434C65.0251 69.1927 65.0479 68.8965 65.0479 68.5547V68.0557C65.0479 67.723 65.0228 67.4313 64.9727 67.1807C64.9225 66.9255 64.8519 66.7181 64.7607 66.5586C64.6696 66.3945 64.5557 66.2715 64.4189 66.1895C64.2868 66.1029 64.1364 66.0596 63.9678 66.0596C63.7992 66.0596 63.6488 66.1029 63.5166 66.1895C63.389 66.2715 63.2773 66.3945 63.1816 66.5586C63.0905 66.7181 63.0199 66.9255 62.9697 67.1807C62.9242 67.4313 62.9014 67.723 62.9014 68.0557ZM74.9873 70.3662V61.5H76.9082V72L75.1719 72.0068L74.9873 70.3662ZM71.1523 68.5615V68.0693C71.1523 67.4678 71.2025 66.9414 71.3027 66.4902C71.4076 66.0391 71.5625 65.6631 71.7676 65.3623C71.9727 65.0615 72.2233 64.8382 72.5195 64.6924C72.8203 64.542 73.1644 64.4668 73.5518 64.4668C73.9027 64.4668 74.2103 64.5557 74.4746 64.7334C74.7435 64.9066 74.9714 65.1504 75.1582 65.4648C75.3451 65.7793 75.4954 66.1507 75.6094 66.5791C75.7233 67.0075 75.8031 67.4769 75.8486 67.9873V68.6982C75.7939 69.1813 75.7096 69.6325 75.5957 70.0518C75.4863 70.471 75.3359 70.8356 75.1445 71.1455C74.9577 71.4554 74.7321 71.6992 74.4678 71.877C74.2035 72.0501 73.8958 72.1367 73.5449 72.1367C73.1576 72.1367 72.8135 72.0592 72.5127 71.9043C72.2165 71.7493 71.9658 71.5215 71.7607 71.2207C71.5602 70.9154 71.4076 70.5417 71.3027 70.0996C71.2025 69.653 71.1523 69.1403 71.1523 68.5615ZM73.0664 68.0693V68.5615C73.0664 68.9079 73.0824 69.2064 73.1143 69.457C73.1507 69.7031 73.2077 69.9059 73.2852 70.0654C73.3672 70.2204 73.4743 70.3366 73.6064 70.4141C73.7386 70.487 73.9027 70.5234 74.0986 70.5234C74.3538 70.5234 74.5612 70.4596 74.7207 70.332C74.8802 70.1999 74.9987 70.0199 75.0762 69.792C75.1582 69.5596 75.2038 69.293 75.2129 68.9922V67.7002C75.2038 67.4495 75.1742 67.224 75.124 67.0234C75.0739 66.8229 75.0033 66.652 74.9121 66.5107C74.821 66.3695 74.707 66.2601 74.5703 66.1826C74.4382 66.1051 74.2832 66.0664 74.1055 66.0664C73.9141 66.0664 73.75 66.1051 73.6133 66.1826C73.4811 66.2601 73.3763 66.3809 73.2988 66.5449C73.2214 66.7044 73.1621 66.9118 73.1211 67.167C73.0846 67.4176 73.0664 67.7184 73.0664 68.0693ZM80.3604 64.6035V72H78.4395V64.6035H80.3604ZM78.3506 62.6895C78.3506 62.3932 78.444 62.1494 78.6309 61.958C78.8223 61.762 79.0775 61.6641 79.3965 61.6641C79.7201 61.6641 79.9753 61.762 80.1621 61.958C80.349 62.1494 80.4424 62.3932 80.4424 62.6895C80.4424 62.9811 80.3467 63.2249 80.1553 63.4209C79.9684 63.6123 79.7178 63.708 79.4033 63.708C79.0798 63.708 78.8223 63.6123 78.6309 63.4209C78.444 63.2249 78.3506 62.9811 78.3506 62.6895ZM88.3311 64.6035V66.0459H84.5576V64.6035H88.3311ZM85.4258 62.7783H87.333V69.7441C87.333 69.9492 87.3535 70.1064 87.3945 70.2158C87.4355 70.3252 87.4971 70.4027 87.5791 70.4482C87.6657 70.4893 87.7796 70.5098 87.9209 70.5098C88.0166 70.5098 88.1055 70.5052 88.1875 70.4961C88.2695 70.4824 88.3311 70.4688 88.3721 70.4551V71.9521C88.2217 72.0114 88.0622 72.057 87.8936 72.0889C87.7295 72.1208 87.5335 72.1367 87.3057 72.1367C86.9229 72.1367 86.5902 72.0638 86.3076 71.918C86.0296 71.7721 85.8132 71.5397 85.6582 71.2207C85.5033 70.8971 85.4258 70.4733 85.4258 69.9492V62.7783ZM92.6582 70.2979V66.8799C92.6582 66.6566 92.6309 66.4788 92.5762 66.3467C92.526 66.2145 92.4486 66.1188 92.3438 66.0596C92.2435 65.9958 92.1204 65.9639 91.9746 65.9639C91.8105 65.9639 91.6738 65.998 91.5645 66.0664C91.4551 66.1348 91.373 66.2327 91.3184 66.3604C91.2682 66.488 91.2432 66.6406 91.2432 66.8184H89.3223C89.3223 66.4993 89.3838 66.1986 89.5068 65.916C89.6299 65.6289 89.8099 65.3783 90.0469 65.1641C90.2884 64.9453 90.5755 64.7744 90.9082 64.6514C91.2409 64.5283 91.6146 64.4668 92.0293 64.4668C92.5215 64.4668 92.959 64.5511 93.3418 64.7197C93.7246 64.8838 94.0277 65.1458 94.251 65.5059C94.4743 65.8659 94.5859 66.333 94.5859 66.9072V70.2021C94.5859 70.6169 94.6064 70.9541 94.6475 71.2139C94.693 71.4736 94.7591 71.6969 94.8457 71.8838V72H92.918C92.8314 71.7949 92.7653 71.5397 92.7197 71.2344C92.6787 70.9245 92.6582 70.6123 92.6582 70.2979ZM92.8906 67.4814L92.8975 68.6299H92.1934C92.0111 68.6299 91.8516 68.6595 91.7148 68.7188C91.5827 68.778 91.471 68.8623 91.3799 68.9717C91.2887 69.0765 91.2204 69.1995 91.1748 69.3408C91.1338 69.4821 91.1133 69.6325 91.1133 69.792C91.1133 69.9697 91.1383 70.1201 91.1885 70.2432C91.2386 70.3662 91.3138 70.4596 91.4141 70.5234C91.5143 70.5872 91.6328 70.6191 91.7695 70.6191C91.9792 70.6191 92.1615 70.5758 92.3164 70.4893C92.4714 70.4027 92.5853 70.2979 92.6582 70.1748C92.7357 70.0518 92.7607 69.9378 92.7334 69.833L93.1709 70.5781C93.1162 70.7467 93.041 70.9222 92.9453 71.1045C92.8542 71.2868 92.738 71.4554 92.5967 71.6104C92.4554 71.7653 92.2799 71.8929 92.0703 71.9932C91.8652 72.0889 91.6214 72.1367 91.3389 72.1367C90.9424 72.1367 90.5801 72.0456 90.252 71.8633C89.9238 71.681 89.6641 71.4258 89.4727 71.0977C89.2858 70.7695 89.1924 70.3799 89.1924 69.9287C89.1924 69.555 89.2516 69.2178 89.3701 68.917C89.4932 68.6117 89.6755 68.3542 89.917 68.1445C90.1585 67.9303 90.4639 67.7663 90.833 67.6523C91.2021 67.5384 91.6351 67.4814 92.1318 67.4814H92.8906ZM97.915 66.251V72H96.001V64.6035H97.8057L97.915 66.251ZM99.6582 64.5488L99.6309 66.4561C99.5443 66.4378 99.4395 66.4242 99.3164 66.415C99.1979 66.4059 99.0931 66.4014 99.002 66.4014C98.7878 66.4014 98.6055 66.4355 98.4551 66.5039C98.3047 66.5677 98.1794 66.6657 98.0791 66.7979C97.9834 66.9255 97.9105 67.085 97.8604 67.2764C97.8102 67.4678 97.7806 67.6842 97.7715 67.9258L97.4092 67.7891C97.4092 67.306 97.4456 66.8639 97.5186 66.4629C97.596 66.0573 97.71 65.7064 97.8604 65.4102C98.0107 65.1094 98.1908 64.877 98.4004 64.7129C98.6146 64.5488 98.8561 64.4668 99.125 64.4668C99.2161 64.4668 99.3118 64.4759 99.4121 64.4941C99.5169 64.5078 99.599 64.526 99.6582 64.5488ZM104.389 64.6035H106.125V72C106.125 72.6745 105.995 73.2259 105.735 73.6543C105.48 74.0872 105.122 74.404 104.662 74.6045C104.206 74.8096 103.673 74.9121 103.062 74.9121C102.83 74.9121 102.568 74.8802 102.276 74.8164C101.989 74.7526 101.711 74.6546 101.442 74.5225C101.174 74.3949 100.952 74.2399 100.779 74.0576L101.429 72.7314C101.606 72.9092 101.839 73.0596 102.126 73.1826C102.413 73.3102 102.696 73.374 102.974 73.374C103.243 73.374 103.466 73.3307 103.644 73.2441C103.826 73.1621 103.963 73.0208 104.054 72.8203C104.149 72.6198 104.197 72.3509 104.197 72.0137V66.3193L104.389 64.6035ZM100.26 68.5615V68.0693C100.26 67.4678 100.317 66.9414 100.431 66.4902C100.545 66.0391 100.709 65.6631 100.923 65.3623C101.137 65.0615 101.399 64.8382 101.709 64.6924C102.023 64.542 102.374 64.4668 102.762 64.4668C103.167 64.4668 103.507 64.5557 103.78 64.7334C104.054 64.9066 104.275 65.1504 104.443 65.4648C104.617 65.7793 104.749 66.1507 104.84 66.5791C104.936 67.0075 105.008 67.4769 105.059 67.9873V68.6982C105.008 69.1813 104.926 69.6325 104.812 70.0518C104.703 70.471 104.557 70.8356 104.375 71.1455C104.193 71.4554 103.969 71.6992 103.705 71.877C103.441 72.0501 103.122 72.1367 102.748 72.1367C102.365 72.1367 102.019 72.0592 101.709 71.9043C101.404 71.7493 101.142 71.5215 100.923 71.2207C100.709 70.9154 100.545 70.5417 100.431 70.0996C100.317 69.653 100.26 69.1403 100.26 68.5615ZM102.181 68.0693V68.5615C102.181 68.9079 102.201 69.2064 102.242 69.457C102.288 69.7031 102.356 69.9059 102.447 70.0654C102.538 70.2204 102.655 70.3366 102.796 70.4141C102.942 70.487 103.113 70.5234 103.309 70.5234C103.587 70.5234 103.808 70.4596 103.972 70.332C104.14 70.1999 104.263 70.0199 104.341 69.792C104.423 69.5596 104.468 69.293 104.478 68.9922V67.7002C104.473 67.4495 104.443 67.224 104.389 67.0234C104.339 66.8229 104.268 66.652 104.177 66.5107C104.086 66.3695 103.967 66.2601 103.821 66.1826C103.68 66.1051 103.514 66.0664 103.322 66.0664C103.126 66.0664 102.958 66.1051 102.816 66.1826C102.675 66.2601 102.557 66.3809 102.461 66.5449C102.37 66.7044 102.299 66.9118 102.249 67.167C102.203 67.4176 102.181 67.7184 102.181 68.0693ZM110.814 70.2979V66.8799C110.814 66.6566 110.787 66.4788 110.732 66.3467C110.682 66.2145 110.605 66.1188 110.5 66.0596C110.4 65.9958 110.277 65.9639 110.131 65.9639C109.967 65.9639 109.83 65.998 109.721 66.0664C109.611 66.1348 109.529 66.2327 109.475 66.3604C109.424 66.488 109.399 66.6406 109.399 66.8184H107.479C107.479 66.4993 107.54 66.1986 107.663 65.916C107.786 65.6289 107.966 65.3783 108.203 65.1641C108.445 64.9453 108.732 64.7744 109.064 64.6514C109.397 64.5283 109.771 64.4668 110.186 64.4668C110.678 64.4668 111.115 64.5511 111.498 64.7197C111.881 64.8838 112.184 65.1458 112.407 65.5059C112.631 65.8659 112.742 66.333 112.742 66.9072V70.2021C112.742 70.6169 112.763 70.9541 112.804 71.2139C112.849 71.4736 112.915 71.6969 113.002 71.8838V72H111.074C110.988 71.7949 110.922 71.5397 110.876 71.2344C110.835 70.9245 110.814 70.6123 110.814 70.2979ZM111.047 67.4814L111.054 68.6299H110.35C110.167 68.6299 110.008 68.6595 109.871 68.7188C109.739 68.778 109.627 68.8623 109.536 68.9717C109.445 69.0765 109.377 69.1995 109.331 69.3408C109.29 69.4821 109.27 69.6325 109.27 69.792C109.27 69.9697 109.295 70.1201 109.345 70.2432C109.395 70.3662 109.47 70.4596 109.57 70.5234C109.671 70.5872 109.789 70.6191 109.926 70.6191C110.135 70.6191 110.318 70.5758 110.473 70.4893C110.628 70.4027 110.742 70.2979 110.814 70.1748C110.892 70.0518 110.917 69.9378 110.89 69.833L111.327 70.5781C111.272 70.7467 111.197 70.9222 111.102 71.1045C111.01 71.2868 110.894 71.4554 110.753 71.6104C110.612 71.7653 110.436 71.8929 110.227 71.9932C110.021 72.0889 109.778 72.1367 109.495 72.1367C109.099 72.1367 108.736 72.0456 108.408 71.8633C108.08 71.681 107.82 71.4258 107.629 71.0977C107.442 70.7695 107.349 70.3799 107.349 69.9287C107.349 69.555 107.408 69.2178 107.526 68.917C107.649 68.6117 107.832 68.3542 108.073 68.1445C108.315 67.9303 108.62 67.7663 108.989 67.6523C109.358 67.5384 109.791 67.4814 110.288 67.4814H111.047Z" fill="url(#paint0_linear_363_3444)"/>
<path d="M359.823 62.0469V72H357.82V62.0469H359.823ZM362.94 66.2783V67.9326H359.317V66.2783H362.94ZM363.323 62.0469V63.708H359.317V62.0469H363.323ZM367.425 70.2979V66.8799C367.425 66.6566 367.397 66.4788 367.343 66.3467C367.293 66.2145 367.215 66.1188 367.11 66.0596C367.01 65.9958 366.887 65.9639 366.741 65.9639C366.577 65.9639 366.44 65.998 366.331 66.0664C366.222 66.1348 366.14 66.2327 366.085 66.3604C366.035 66.488 366.01 66.6406 366.01 66.8184H364.089C364.089 66.4993 364.15 66.1986 364.273 65.916C364.396 65.6289 364.576 65.3783 364.813 65.1641C365.055 64.9453 365.342 64.7744 365.675 64.6514C366.007 64.5283 366.381 64.4668 366.796 64.4668C367.288 64.4668 367.726 64.5511 368.108 64.7197C368.491 64.8838 368.794 65.1458 369.018 65.5059C369.241 65.8659 369.353 66.333 369.353 66.9072V70.2021C369.353 70.6169 369.373 70.9541 369.414 71.2139C369.46 71.4736 369.526 71.6969 369.612 71.8838V72H367.685C367.598 71.7949 367.532 71.5397 367.486 71.2344C367.445 70.9245 367.425 70.6123 367.425 70.2979ZM367.657 67.4814L367.664 68.6299H366.96C366.778 68.6299 366.618 68.6595 366.481 68.7188C366.349 68.778 366.238 68.8623 366.146 68.9717C366.055 69.0765 365.987 69.1995 365.941 69.3408C365.9 69.4821 365.88 69.6325 365.88 69.792C365.88 69.9697 365.905 70.1201 365.955 70.2432C366.005 70.3662 366.08 70.4596 366.181 70.5234C366.281 70.5872 366.399 70.6191 366.536 70.6191C366.746 70.6191 366.928 70.5758 367.083 70.4893C367.238 70.4027 367.352 70.2979 367.425 70.1748C367.502 70.0518 367.527 69.9378 367.5 69.833L367.938 70.5781C367.883 70.7467 367.808 70.9222 367.712 71.1045C367.621 71.2868 367.505 71.4554 367.363 71.6104C367.222 71.7653 367.047 71.8929 366.837 71.9932C366.632 72.0889 366.388 72.1367 366.105 72.1367C365.709 72.1367 365.347 72.0456 365.019 71.8633C364.69 71.681 364.431 71.4258 364.239 71.0977C364.052 70.7695 363.959 70.3799 363.959 69.9287C363.959 69.555 364.018 69.2178 364.137 68.917C364.26 68.6117 364.442 68.3542 364.684 68.1445C364.925 67.9303 365.23 67.7663 365.6 67.6523C365.969 67.5384 366.402 67.4814 366.898 67.4814H367.657ZM373.994 64.6035V66.0459H370.221V64.6035H373.994ZM371.089 62.7783H372.996V69.7441C372.996 69.9492 373.017 70.1064 373.058 70.2158C373.099 70.3252 373.16 70.4027 373.242 70.4482C373.329 70.4893 373.443 70.5098 373.584 70.5098C373.68 70.5098 373.769 70.5052 373.851 70.4961C373.933 70.4824 373.994 70.4688 374.035 70.4551V71.9521C373.885 72.0114 373.725 72.057 373.557 72.0889C373.393 72.1208 373.197 72.1367 372.969 72.1367C372.586 72.1367 372.253 72.0638 371.971 71.918C371.693 71.7721 371.476 71.5397 371.321 71.2207C371.166 70.8971 371.089 70.4733 371.089 69.9492V62.7783ZM378.287 64.6035V66.0459H374.514V64.6035H378.287ZM375.382 62.7783H377.289V69.7441C377.289 69.9492 377.31 70.1064 377.351 70.2158C377.392 70.3252 377.453 70.4027 377.535 70.4482C377.622 70.4893 377.736 70.5098 377.877 70.5098C377.973 70.5098 378.062 70.5052 378.144 70.4961C378.226 70.4824 378.287 70.4688 378.328 70.4551V71.9521C378.178 72.0114 378.018 72.057 377.85 72.0889C377.686 72.1208 377.49 72.1367 377.262 72.1367C376.879 72.1367 376.546 72.0638 376.264 71.918C375.986 71.7721 375.769 71.5397 375.614 71.2207C375.459 70.8971 375.382 70.4733 375.382 69.9492V62.7783ZM382.929 70.2227V64.6035H384.85V72H383.045L382.929 70.2227ZM383.147 68.6982L383.681 68.6846C383.681 69.1813 383.633 69.6416 383.537 70.0654C383.441 70.4847 383.298 70.8493 383.106 71.1592C382.915 71.4691 382.676 71.7106 382.389 71.8838C382.102 72.0524 381.762 72.1367 381.37 72.1367C381.069 72.1367 380.791 72.0866 380.536 71.9863C380.285 71.8815 380.069 71.7197 379.887 71.501C379.704 71.2777 379.561 70.9928 379.456 70.6465C379.356 70.2956 379.306 69.874 379.306 69.3818V64.6035H381.227V69.4023C381.227 69.6029 381.245 69.776 381.281 69.9219C381.318 70.0632 381.368 70.1794 381.432 70.2705C381.495 70.3617 381.571 70.4277 381.657 70.4688C381.744 70.5052 381.842 70.5234 381.951 70.5234C382.252 70.5234 382.489 70.446 382.662 70.291C382.84 70.1315 382.965 69.915 383.038 69.6416C383.111 69.3636 383.147 69.0492 383.147 68.6982ZM388.158 66.251V72H386.244V64.6035H388.049L388.158 66.251ZM389.901 64.5488L389.874 66.4561C389.787 66.4378 389.683 66.4242 389.56 66.415C389.441 66.4059 389.336 66.4014 389.245 66.4014C389.031 66.4014 388.849 66.4355 388.698 66.5039C388.548 66.5677 388.423 66.6657 388.322 66.7979C388.227 66.9255 388.154 67.085 388.104 67.2764C388.053 67.4678 388.024 67.6842 388.015 67.9258L387.652 67.7891C387.652 67.306 387.689 66.8639 387.762 66.4629C387.839 66.0573 387.953 65.7064 388.104 65.4102C388.254 65.1094 388.434 64.877 388.644 64.7129C388.858 64.5488 389.099 64.4668 389.368 64.4668C389.459 64.4668 389.555 64.4759 389.655 64.4941C389.76 64.5078 389.842 64.526 389.901 64.5488ZM393.935 70.2979V66.8799C393.935 66.6566 393.907 66.4788 393.853 66.3467C393.802 66.2145 393.725 66.1188 393.62 66.0596C393.52 65.9958 393.397 65.9639 393.251 65.9639C393.087 65.9639 392.95 65.998 392.841 66.0664C392.731 66.1348 392.649 66.2327 392.595 66.3604C392.545 66.488 392.52 66.6406 392.52 66.8184H390.599C390.599 66.4993 390.66 66.1986 390.783 65.916C390.906 65.6289 391.086 65.3783 391.323 65.1641C391.565 64.9453 391.852 64.7744 392.185 64.6514C392.517 64.5283 392.891 64.4668 393.306 64.4668C393.798 64.4668 394.235 64.5511 394.618 64.7197C395.001 64.8838 395.304 65.1458 395.527 65.5059C395.751 65.8659 395.862 66.333 395.862 66.9072V70.2021C395.862 70.6169 395.883 70.9541 395.924 71.2139C395.969 71.4736 396.035 71.6969 396.122 71.8838V72H394.194C394.108 71.7949 394.042 71.5397 393.996 71.2344C393.955 70.9245 393.935 70.6123 393.935 70.2979ZM394.167 67.4814L394.174 68.6299H393.47C393.287 68.6299 393.128 68.6595 392.991 68.7188C392.859 68.778 392.747 68.8623 392.656 68.9717C392.565 69.0765 392.497 69.1995 392.451 69.3408C392.41 69.4821 392.39 69.6325 392.39 69.792C392.39 69.9697 392.415 70.1201 392.465 70.2432C392.515 70.3662 392.59 70.4596 392.69 70.5234C392.791 70.5872 392.909 70.6191 393.046 70.6191C393.256 70.6191 393.438 70.5758 393.593 70.4893C393.748 70.4027 393.862 70.2979 393.935 70.1748C394.012 70.0518 394.037 69.9378 394.01 69.833L394.447 70.5781C394.393 70.7467 394.317 70.9222 394.222 71.1045C394.131 71.2868 394.014 71.4554 393.873 71.6104C393.732 71.7653 393.556 71.8929 393.347 71.9932C393.142 72.0889 392.898 72.1367 392.615 72.1367C392.219 72.1367 391.856 72.0456 391.528 71.8633C391.2 71.681 390.94 71.4258 390.749 71.0977C390.562 70.7695 390.469 70.3799 390.469 69.9287C390.469 69.555 390.528 69.2178 390.646 68.917C390.77 68.6117 390.952 68.3542 391.193 68.1445C391.435 67.9303 391.74 67.7663 392.109 67.6523C392.479 67.5384 392.911 67.4814 393.408 67.4814H394.167ZM402.336 70.4072V72H397.64V70.4072H402.336ZM402.288 65.7656L398.392 72H397.113V70.7969L400.989 64.6035H402.288V65.7656ZM401.618 64.6035V66.1963H397.188V64.6035H401.618ZM405.617 64.6035V72H403.696V64.6035H405.617ZM403.607 62.6895C403.607 62.3932 403.701 62.1494 403.888 61.958C404.079 61.762 404.334 61.6641 404.653 61.6641C404.977 61.6641 405.232 61.762 405.419 61.958C405.606 62.1494 405.699 62.3932 405.699 62.6895C405.699 62.9811 405.604 63.2249 405.412 63.4209C405.225 63.6123 404.975 63.708 404.66 63.708C404.337 63.708 404.079 63.6123 403.888 63.4209C403.701 63.2249 403.607 62.9811 403.607 62.6895ZM406.916 68.5547V68.0557C406.916 67.4769 406.984 66.9642 407.121 66.5176C407.262 66.071 407.463 65.6973 407.723 65.3965C407.982 65.0911 408.295 64.861 408.659 64.7061C409.028 64.5465 409.441 64.4668 409.896 64.4668C410.357 64.4668 410.769 64.5465 411.134 64.7061C411.503 64.861 411.817 65.0911 412.077 65.3965C412.341 65.6973 412.544 66.071 412.686 66.5176C412.827 66.9642 412.897 67.4769 412.897 68.0557V68.5547C412.897 69.1289 412.827 69.6393 412.686 70.0859C412.544 70.5326 412.341 70.9085 412.077 71.2139C411.817 71.5192 411.505 71.7493 411.141 71.9043C410.776 72.0592 410.366 72.1367 409.91 72.1367C409.454 72.1367 409.042 72.0592 408.673 71.9043C408.308 71.7493 407.994 71.5192 407.729 71.2139C407.465 70.9085 407.262 70.5326 407.121 70.0859C406.984 69.6393 406.916 69.1289 406.916 68.5547ZM408.83 68.0557V68.5547C408.83 68.8965 408.853 69.1927 408.898 69.4434C408.949 69.694 409.019 69.9014 409.11 70.0654C409.206 70.2295 409.32 70.3503 409.452 70.4277C409.584 70.5052 409.737 70.5439 409.91 70.5439C410.083 70.5439 410.238 70.5052 410.375 70.4277C410.512 70.3503 410.623 70.2295 410.71 70.0654C410.801 69.9014 410.867 69.694 410.908 69.4434C410.954 69.1927 410.977 68.8965 410.977 68.5547V68.0557C410.977 67.723 410.951 67.4313 410.901 67.1807C410.851 66.9255 410.781 66.7181 410.689 66.5586C410.598 66.3945 410.484 66.2715 410.348 66.1895C410.215 66.1029 410.065 66.0596 409.896 66.0596C409.728 66.0596 409.577 66.1029 409.445 66.1895C409.318 66.2715 409.206 66.3945 409.11 66.5586C409.019 66.7181 408.949 66.9255 408.898 67.1807C408.853 67.4313 408.83 67.723 408.83 68.0557ZM415.987 66.1826V72H414.066V64.6035H415.864L415.987 66.1826ZM415.7 68.0488L415.188 68.0625C415.178 67.5065 415.231 67.0075 415.345 66.5654C415.463 66.1234 415.63 65.7474 415.844 65.4375C416.062 65.123 416.322 64.8838 416.623 64.7197C416.928 64.5511 417.268 64.4668 417.642 64.4668C417.929 64.4668 418.191 64.5169 418.428 64.6172C418.669 64.7174 418.877 64.877 419.05 65.0957C419.223 65.3145 419.357 65.6061 419.453 65.9707C419.549 66.3307 419.597 66.7728 419.597 67.2969V72H417.676V67.2832C417.676 66.9642 417.644 66.7181 417.58 66.5449C417.516 66.3672 417.421 66.2441 417.293 66.1758C417.165 66.1029 417.006 66.0664 416.814 66.0664C416.632 66.0664 416.47 66.1188 416.329 66.2236C416.188 66.3239 416.069 66.4629 415.974 66.6406C415.882 66.8184 415.812 67.028 415.762 67.2695C415.716 67.5111 415.696 67.7708 415.7 68.0488ZM423.979 72.1367C423.473 72.1367 423.024 72.0592 422.632 71.9043C422.244 71.7493 421.916 71.526 421.647 71.2344C421.379 70.9382 421.174 70.5804 421.032 70.1611C420.891 69.7419 420.82 69.2633 420.82 68.7256V68.1172C420.82 67.5156 420.889 66.9893 421.025 66.5381C421.162 66.0824 421.356 65.6995 421.606 65.3896C421.857 65.0798 422.165 64.8496 422.529 64.6992C422.898 64.5443 423.315 64.4668 423.78 64.4668C424.245 64.4668 424.653 64.5443 425.004 64.6992C425.359 64.8496 425.653 65.0775 425.886 65.3828C426.118 65.6836 426.294 66.0573 426.412 66.5039C426.531 66.9505 426.59 67.4701 426.59 68.0625V68.9375H421.634V67.5908H424.71V67.4199C424.71 67.1191 424.678 66.8685 424.614 66.668C424.55 66.4629 424.45 66.3102 424.313 66.21C424.177 66.1097 423.994 66.0596 423.767 66.0596C423.575 66.0596 423.413 66.0983 423.281 66.1758C423.149 66.2533 423.044 66.374 422.967 66.5381C422.889 66.7021 422.832 66.9163 422.796 67.1807C422.759 67.4404 422.741 67.7526 422.741 68.1172V68.7256C422.741 69.0674 422.771 69.3545 422.83 69.5869C422.889 69.8148 422.976 70.0016 423.09 70.1475C423.208 70.2887 423.352 70.3913 423.521 70.4551C423.689 70.5143 423.885 70.5439 424.108 70.5439C424.446 70.5439 424.749 70.4847 425.018 70.3662C425.291 70.2432 425.523 70.0768 425.715 69.8672L426.48 71.0293C426.348 71.2025 426.166 71.3757 425.934 71.5488C425.701 71.722 425.423 71.8633 425.1 71.9727C424.776 72.082 424.402 72.1367 423.979 72.1367Z" fill="url(#paint1_linear_363_3444)"/>
<path d="M674.277 66.874L676.164 59.0469H678.324L675.439 69H673.983L674.277 66.874ZM672.664 59.0469L674.544 66.874L674.852 69H673.389L670.524 59.0469H672.664ZM681.858 69.1367C681.353 69.1367 680.904 69.0592 680.512 68.9043C680.124 68.7493 679.796 68.526 679.527 68.2344C679.258 67.9382 679.053 67.5804 678.912 67.1611C678.771 66.7419 678.7 66.2633 678.7 65.7256V65.1172C678.7 64.5156 678.769 63.9893 678.905 63.5381C679.042 63.0824 679.236 62.6995 679.486 62.3896C679.737 62.0798 680.045 61.8496 680.409 61.6992C680.778 61.5443 681.195 61.4668 681.66 61.4668C682.125 61.4668 682.533 61.5443 682.884 61.6992C683.239 61.8496 683.533 62.0775 683.766 62.3828C683.998 62.6836 684.174 63.0573 684.292 63.5039C684.41 63.9505 684.47 64.4701 684.47 65.0625V65.9375H679.514V64.5908H682.59V64.4199C682.59 64.1191 682.558 63.8685 682.494 63.668C682.43 63.4629 682.33 63.3102 682.193 63.21C682.057 63.1097 681.874 63.0596 681.646 63.0596C681.455 63.0596 681.293 63.0983 681.161 63.1758C681.029 63.2533 680.924 63.374 680.847 63.5381C680.769 63.7021 680.712 63.9163 680.676 64.1807C680.639 64.4404 680.621 64.7526 680.621 65.1172V65.7256C680.621 66.0674 680.651 66.3545 680.71 66.5869C680.769 66.8148 680.856 67.0016 680.97 67.1475C681.088 67.2887 681.232 67.3913 681.4 67.4551C681.569 67.5143 681.765 67.5439 681.988 67.5439C682.326 67.5439 682.629 67.4847 682.897 67.3662C683.171 67.2432 683.403 67.0768 683.595 66.8672L684.36 68.0293C684.228 68.2025 684.046 68.3757 683.813 68.5488C683.581 68.722 683.303 68.8633 682.979 68.9727C682.656 69.082 682.282 69.1367 681.858 69.1367ZM687.491 63.251V69H685.577V61.6035H687.382L687.491 63.251ZM689.234 61.5488L689.207 63.4561C689.12 63.4378 689.016 63.4242 688.893 63.415C688.774 63.4059 688.669 63.4014 688.578 63.4014C688.364 63.4014 688.182 63.4355 688.031 63.5039C687.881 63.5677 687.756 63.6657 687.655 63.7979C687.56 63.9255 687.487 64.085 687.437 64.2764C687.386 64.4678 687.357 64.6842 687.348 64.9258L686.985 64.7891C686.985 64.306 687.022 63.8639 687.095 63.4629C687.172 63.0573 687.286 62.7064 687.437 62.4102C687.587 62.1094 687.767 61.877 687.977 61.7129C688.191 61.5488 688.432 61.4668 688.701 61.4668C688.792 61.4668 688.888 61.4759 688.988 61.4941C689.093 61.5078 689.175 61.526 689.234 61.5488ZM692.222 61.6035V69H690.301V61.6035H692.222ZM690.212 59.6895C690.212 59.3932 690.305 59.1494 690.492 58.958C690.684 58.762 690.939 58.6641 691.258 58.6641C691.581 58.6641 691.837 58.762 692.023 58.958C692.21 59.1494 692.304 59.3932 692.304 59.6895C692.304 59.9811 692.208 60.2249 692.017 60.4209C691.83 60.6123 691.579 60.708 691.265 60.708C690.941 60.708 690.684 60.6123 690.492 60.4209C690.305 60.2249 690.212 59.9811 690.212 59.6895ZM696.05 69H694.136V61.2959C694.136 60.6579 694.247 60.1224 694.471 59.6895C694.699 59.252 695.027 58.9215 695.455 58.6982C695.888 58.4704 696.405 58.3564 697.007 58.3564C697.353 58.3564 697.681 58.3952 697.991 58.4727C698.306 58.5456 698.629 58.6413 698.962 58.7598L698.688 60.3867C698.488 60.3138 698.262 60.2454 698.012 60.1816C697.766 60.1133 697.474 60.0791 697.137 60.0791C696.768 60.0791 696.494 60.1816 696.316 60.3867C696.139 60.5918 696.05 60.8949 696.05 61.2959V69ZM697.191 61.6035V63.0459H693.233V61.6035H697.191ZM699.844 61.6035V69H697.923V61.6035H699.844ZM704.041 67.5439C704.219 67.5439 704.371 67.5075 704.499 67.4346C704.631 67.3617 704.731 67.2432 704.8 67.0791C704.868 66.915 704.905 66.7031 704.909 66.4434H706.707C706.707 66.9993 706.589 67.4801 706.352 67.8857C706.119 68.2868 705.805 68.5967 705.408 68.8154C705.016 69.0296 704.572 69.1367 704.075 69.1367C703.578 69.1367 703.146 69.057 702.776 68.8975C702.407 68.738 702.102 68.5055 701.86 68.2002C701.623 67.8949 701.443 67.5234 701.32 67.0859C701.202 66.6439 701.143 66.138 701.143 65.5684V65.0283C701.143 64.4678 701.202 63.9665 701.32 63.5244C701.443 63.0824 701.623 62.7087 701.86 62.4033C702.102 62.098 702.405 61.8656 702.77 61.7061C703.139 61.5465 703.572 61.4668 704.068 61.4668C704.602 61.4668 705.064 61.5785 705.456 61.8018C705.848 62.0205 706.153 62.3441 706.372 62.7725C706.595 63.2008 706.707 63.7295 706.707 64.3584H704.909C704.905 64.0758 704.87 63.8411 704.807 63.6543C704.747 63.4629 704.654 63.3171 704.526 63.2168C704.403 63.112 704.239 63.0596 704.034 63.0596C703.82 63.0596 703.647 63.1051 703.515 63.1963C703.387 63.2829 703.289 63.4105 703.221 63.5791C703.157 63.7432 703.114 63.9482 703.091 64.1943C703.068 64.4404 703.057 64.7184 703.057 65.0283V65.5684C703.057 65.901 703.066 66.1904 703.084 66.4365C703.107 66.6781 703.15 66.8831 703.214 67.0518C703.282 67.2158 703.38 67.3389 703.508 67.4209C703.64 67.5029 703.818 67.5439 704.041 67.5439ZM711.068 67.2979V63.8799C711.068 63.6566 711.041 63.4788 710.986 63.3467C710.936 63.2145 710.859 63.1188 710.754 63.0596C710.654 62.9958 710.531 62.9639 710.385 62.9639C710.221 62.9639 710.084 62.998 709.975 63.0664C709.865 63.1348 709.783 63.2327 709.729 63.3604C709.678 63.488 709.653 63.6406 709.653 63.8184H707.732C707.732 63.4993 707.794 63.1986 707.917 62.916C708.04 62.6289 708.22 62.3783 708.457 62.1641C708.699 61.9453 708.986 61.7744 709.318 61.6514C709.651 61.5283 710.025 61.4668 710.439 61.4668C710.932 61.4668 711.369 61.5511 711.752 61.7197C712.135 61.8838 712.438 62.1458 712.661 62.5059C712.884 62.8659 712.996 63.333 712.996 63.9072V67.2021C712.996 67.6169 713.017 67.9541 713.058 68.2139C713.103 68.4736 713.169 68.6969 713.256 68.8838V69H711.328C711.242 68.7949 711.175 68.5397 711.13 68.2344C711.089 67.9245 711.068 67.6123 711.068 67.2979ZM711.301 64.4814L711.308 65.6299H710.604C710.421 65.6299 710.262 65.6595 710.125 65.7188C709.993 65.778 709.881 65.8623 709.79 65.9717C709.699 66.0765 709.631 66.1995 709.585 66.3408C709.544 66.4821 709.523 66.6325 709.523 66.792C709.523 66.9697 709.549 67.1201 709.599 67.2432C709.649 67.3662 709.724 67.4596 709.824 67.5234C709.924 67.5872 710.043 67.6191 710.18 67.6191C710.389 67.6191 710.572 67.5758 710.727 67.4893C710.882 67.4027 710.995 67.2979 711.068 67.1748C711.146 67.0518 711.171 66.9378 711.144 66.833L711.581 67.5781C711.526 67.7467 711.451 67.9222 711.355 68.1045C711.264 68.2868 711.148 68.4554 711.007 68.6104C710.866 68.7653 710.69 68.8929 710.48 68.9932C710.275 69.0889 710.032 69.1367 709.749 69.1367C709.353 69.1367 708.99 69.0456 708.662 68.8633C708.334 68.681 708.074 68.4258 707.883 68.0977C707.696 67.7695 707.603 67.3799 707.603 66.9287C707.603 66.555 707.662 66.2178 707.78 65.917C707.903 65.6117 708.086 65.3542 708.327 65.1445C708.569 64.9303 708.874 64.7663 709.243 64.6523C709.612 64.5384 710.045 64.4814 710.542 64.4814H711.301ZM720.618 69.1367C720.112 69.1367 719.663 69.0592 719.271 68.9043C718.884 68.7493 718.556 68.526 718.287 68.2344C718.018 67.9382 717.813 67.5804 717.672 67.1611C717.531 66.7419 717.46 66.2633 717.46 65.7256V65.1172C717.46 64.5156 717.528 63.9893 717.665 63.5381C717.802 63.0824 717.995 62.6995 718.246 62.3896C718.497 62.0798 718.804 61.8496 719.169 61.6992C719.538 61.5443 719.955 61.4668 720.42 61.4668C720.885 61.4668 721.293 61.5443 721.644 61.6992C721.999 61.8496 722.293 62.0775 722.525 62.3828C722.758 62.6836 722.933 63.0573 723.052 63.5039C723.17 63.9505 723.229 64.4701 723.229 65.0625V65.9375H718.273V64.5908H721.35V64.4199C721.35 64.1191 721.318 63.8685 721.254 63.668C721.19 63.4629 721.09 63.3102 720.953 63.21C720.816 63.1097 720.634 63.0596 720.406 63.0596C720.215 63.0596 720.053 63.0983 719.921 63.1758C719.789 63.2533 719.684 63.374 719.606 63.5381C719.529 63.7021 719.472 63.9163 719.436 64.1807C719.399 64.4404 719.381 64.7526 719.381 65.1172V65.7256C719.381 66.0674 719.41 66.3545 719.47 66.5869C719.529 66.8148 719.616 67.0016 719.729 67.1475C719.848 67.2887 719.992 67.3913 720.16 67.4551C720.329 67.5143 720.525 67.5439 720.748 67.5439C721.085 67.5439 721.388 67.4847 721.657 67.3662C721.931 67.2432 722.163 67.0768 722.354 66.8672L723.12 68.0293C722.988 68.2025 722.806 68.3757 722.573 68.5488C722.341 68.722 722.063 68.8633 721.739 68.9727C721.416 69.082 721.042 69.1367 720.618 69.1367ZM668.508 77.0254V85.8438H666.601V75.6035H668.364L668.508 77.0254ZM672.35 79.0488V79.541C672.35 80.1198 672.299 80.6325 672.199 81.0791C672.099 81.5212 671.949 81.8971 671.748 82.207C671.552 82.5124 671.306 82.7448 671.01 82.9043C670.714 83.0592 670.367 83.1367 669.971 83.1367C669.602 83.1367 669.283 83.0501 669.014 82.877C668.749 82.6992 668.526 82.4554 668.344 82.1455C668.161 81.8356 668.016 81.4733 667.906 81.0586C667.797 80.6439 667.713 80.1995 667.653 79.7256V78.96C667.708 78.4541 667.788 77.9893 667.893 77.5654C667.997 77.137 668.141 76.7656 668.323 76.4512C668.51 76.1367 668.736 75.8952 669 75.7266C669.269 75.5534 669.588 75.4668 669.957 75.4668C670.358 75.4668 670.707 75.5397 671.003 75.6855C671.304 75.8314 671.552 76.0524 671.748 76.3486C671.949 76.6403 672.099 77.0117 672.199 77.4629C672.299 77.9141 672.35 78.4427 672.35 79.0488ZM670.436 79.541V79.0488C670.436 78.6934 670.415 78.3903 670.374 78.1396C670.338 77.889 670.278 77.6839 670.196 77.5244C670.114 77.3649 670.007 77.2487 669.875 77.1758C669.743 77.1029 669.581 77.0664 669.39 77.0664C669.203 77.0664 669.039 77.1029 668.897 77.1758C668.761 77.2487 668.649 77.3558 668.562 77.4971C668.476 77.6338 668.41 77.8024 668.364 78.0029C668.319 78.1989 668.294 78.4222 668.289 78.6729V80.0127C668.298 80.3089 668.337 80.571 668.405 80.7988C668.478 81.0267 668.594 81.209 668.754 81.3457C668.913 81.4779 669.13 81.5439 669.403 81.5439C669.599 81.5439 669.761 81.5029 669.889 81.4209C670.021 81.3389 670.128 81.2158 670.21 81.0518C670.292 80.8877 670.349 80.6803 670.381 80.4297C670.417 80.179 670.436 79.8828 670.436 79.541ZM676.786 81.2979V77.8799C676.786 77.6566 676.759 77.4788 676.704 77.3467C676.654 77.2145 676.576 77.1188 676.472 77.0596C676.371 76.9958 676.248 76.9639 676.103 76.9639C675.938 76.9639 675.802 76.998 675.692 77.0664C675.583 77.1348 675.501 77.2327 675.446 77.3604C675.396 77.488 675.371 77.6406 675.371 77.8184H673.45C673.45 77.4993 673.512 77.1986 673.635 76.916C673.758 76.6289 673.938 76.3783 674.175 76.1641C674.416 75.9453 674.703 75.7744 675.036 75.6514C675.369 75.5283 675.743 75.4668 676.157 75.4668C676.649 75.4668 677.087 75.5511 677.47 75.7197C677.853 75.8838 678.156 76.1458 678.379 76.5059C678.602 76.8659 678.714 77.333 678.714 77.9072V81.2021C678.714 81.6169 678.734 81.9541 678.775 82.2139C678.821 82.4736 678.887 82.6969 678.974 82.8838V83H677.046C676.959 82.7949 676.893 82.5397 676.848 82.2344C676.807 81.9245 676.786 81.6123 676.786 81.2979ZM677.019 78.4814L677.025 79.6299H676.321C676.139 79.6299 675.979 79.6595 675.843 79.7188C675.711 79.778 675.599 79.8623 675.508 79.9717C675.417 80.0765 675.348 80.1995 675.303 80.3408C675.262 80.4821 675.241 80.6325 675.241 80.792C675.241 80.9697 675.266 81.1201 675.316 81.2432C675.367 81.3662 675.442 81.4596 675.542 81.5234C675.642 81.5872 675.761 81.6191 675.897 81.6191C676.107 81.6191 676.289 81.5758 676.444 81.4893C676.599 81.4027 676.713 81.2979 676.786 81.1748C676.864 81.0518 676.889 80.9378 676.861 80.833L677.299 81.5781C677.244 81.7467 677.169 81.9222 677.073 82.1045C676.982 82.2868 676.866 82.4554 676.725 82.6104C676.583 82.7653 676.408 82.8929 676.198 82.9932C675.993 83.0889 675.749 83.1367 675.467 83.1367C675.07 83.1367 674.708 83.0456 674.38 82.8633C674.052 82.681 673.792 82.4258 673.601 82.0977C673.414 81.7695 673.32 81.3799 673.32 80.9287C673.32 80.555 673.38 80.2178 673.498 79.917C673.621 79.6117 673.803 79.3542 674.045 79.1445C674.286 78.9303 674.592 78.7663 674.961 78.6523C675.33 78.5384 675.763 78.4814 676.26 78.4814H677.019ZM684.019 75.6035H685.755V83C685.755 83.6745 685.625 84.2259 685.365 84.6543C685.11 85.0872 684.752 85.404 684.292 85.6045C683.836 85.8096 683.303 85.9121 682.692 85.9121C682.46 85.9121 682.198 85.8802 681.906 85.8164C681.619 85.7526 681.341 85.6546 681.072 85.5225C680.803 85.3949 680.582 85.2399 680.409 85.0576L681.059 83.7314C681.236 83.9092 681.469 84.0596 681.756 84.1826C682.043 84.3102 682.326 84.374 682.604 84.374C682.872 84.374 683.096 84.3307 683.273 84.2441C683.456 84.1621 683.592 84.0208 683.684 83.8203C683.779 83.6198 683.827 83.3509 683.827 83.0137V77.3193L684.019 75.6035ZM679.89 79.5615V79.0693C679.89 78.4678 679.947 77.9414 680.061 77.4902C680.174 77.0391 680.339 76.6631 680.553 76.3623C680.767 76.0615 681.029 75.8382 681.339 75.6924C681.653 75.542 682.004 75.4668 682.392 75.4668C682.797 75.4668 683.137 75.5557 683.41 75.7334C683.684 75.9066 683.905 76.1504 684.073 76.4648C684.246 76.7793 684.379 77.1507 684.47 77.5791C684.565 78.0075 684.638 78.4769 684.688 78.9873V79.6982C684.638 80.1813 684.556 80.6325 684.442 81.0518C684.333 81.471 684.187 81.8356 684.005 82.1455C683.823 82.4554 683.599 82.6992 683.335 82.877C683.071 83.0501 682.752 83.1367 682.378 83.1367C681.995 83.1367 681.649 83.0592 681.339 82.9043C681.034 82.7493 680.771 82.5215 680.553 82.2207C680.339 81.9154 680.174 81.5417 680.061 81.0996C679.947 80.653 679.89 80.1403 679.89 79.5615ZM681.811 79.0693V79.5615C681.811 79.9079 681.831 80.2064 681.872 80.457C681.918 80.7031 681.986 80.9059 682.077 81.0654C682.168 81.2204 682.285 81.3366 682.426 81.4141C682.572 81.487 682.743 81.5234 682.938 81.5234C683.216 81.5234 683.438 81.4596 683.602 81.332C683.77 81.1999 683.893 81.0199 683.971 80.792C684.053 80.5596 684.098 80.293 684.107 79.9922V78.7002C684.103 78.4495 684.073 78.224 684.019 78.0234C683.968 77.8229 683.898 77.652 683.807 77.5107C683.715 77.3695 683.597 77.2601 683.451 77.1826C683.31 77.1051 683.144 77.0664 682.952 77.0664C682.756 77.0664 682.588 77.1051 682.446 77.1826C682.305 77.2601 682.187 77.3809 682.091 77.5449C682 77.7044 681.929 77.9118 681.879 78.167C681.833 78.4176 681.811 78.7184 681.811 79.0693ZM690.444 81.2979V77.8799C690.444 77.6566 690.417 77.4788 690.362 77.3467C690.312 77.2145 690.235 77.1188 690.13 77.0596C690.03 76.9958 689.907 76.9639 689.761 76.9639C689.597 76.9639 689.46 76.998 689.351 77.0664C689.241 77.1348 689.159 77.2327 689.104 77.3604C689.054 77.488 689.029 77.6406 689.029 77.8184H687.108C687.108 77.4993 687.17 77.1986 687.293 76.916C687.416 76.6289 687.596 76.3783 687.833 76.1641C688.075 75.9453 688.362 75.7744 688.694 75.6514C689.027 75.5283 689.401 75.4668 689.815 75.4668C690.308 75.4668 690.745 75.5511 691.128 75.7197C691.511 75.8838 691.814 76.1458 692.037 76.5059C692.26 76.8659 692.372 77.333 692.372 77.9072V81.2021C692.372 81.6169 692.393 81.9541 692.434 82.2139C692.479 82.4736 692.545 82.6969 692.632 82.8838V83H690.704C690.618 82.7949 690.551 82.5397 690.506 82.2344C690.465 81.9245 690.444 81.6123 690.444 81.2979ZM690.677 78.4814L690.684 79.6299H689.979C689.797 79.6299 689.638 79.6595 689.501 79.7188C689.369 79.778 689.257 79.8623 689.166 79.9717C689.075 80.0765 689.007 80.1995 688.961 80.3408C688.92 80.4821 688.899 80.6325 688.899 80.792C688.899 80.9697 688.924 81.1201 688.975 81.2432C689.025 81.3662 689.1 81.4596 689.2 81.5234C689.3 81.5872 689.419 81.6191 689.556 81.6191C689.765 81.6191 689.948 81.5758 690.103 81.4893C690.257 81.4027 690.371 81.2979 690.444 81.1748C690.522 81.0518 690.547 80.9378 690.52 80.833L690.957 81.5781C690.902 81.7467 690.827 81.9222 690.731 82.1045C690.64 82.2868 690.524 82.4554 690.383 82.6104C690.242 82.7653 690.066 82.8929 689.856 82.9932C689.651 83.0889 689.408 83.1367 689.125 83.1367C688.729 83.1367 688.366 83.0456 688.038 82.8633C687.71 82.681 687.45 82.4258 687.259 82.0977C687.072 81.7695 686.979 81.3799 686.979 80.9287C686.979 80.555 687.038 80.2178 687.156 79.917C687.279 79.6117 687.462 79.3542 687.703 79.1445C687.945 78.9303 688.25 78.7663 688.619 78.6523C688.988 78.5384 689.421 78.4814 689.918 78.4814H690.677ZM695.715 77.1348V83H693.794V75.6035H695.599L695.715 77.1348ZM695.441 79.0488L694.915 79.0625C694.906 78.543 694.951 78.0645 695.052 77.627C695.152 77.1895 695.302 76.8089 695.503 76.4854C695.708 76.1618 695.965 75.9111 696.275 75.7334C696.585 75.5557 696.948 75.4668 697.362 75.4668C697.631 75.4668 697.88 75.5169 698.107 75.6172C698.335 75.7129 698.534 75.8656 698.702 76.0752C698.871 76.2803 699.001 76.5492 699.092 76.8818C699.183 77.21 699.229 77.6042 699.229 78.0645V83H697.314V78.2969C697.314 77.9688 697.283 77.7181 697.219 77.5449C697.155 77.3672 697.064 77.2441 696.945 77.1758C696.827 77.1029 696.681 77.0664 696.508 77.0664C696.326 77.0664 696.166 77.1165 696.029 77.2168C695.893 77.3171 695.781 77.4583 695.694 77.6406C695.612 77.8184 695.549 78.028 695.503 78.2695C695.462 78.5111 695.441 78.7708 695.441 79.0488ZM699.044 78.8574L698.354 78.9463C698.344 78.4587 698.388 78.0052 698.483 77.5859C698.579 77.1621 698.727 76.793 698.928 76.4785C699.128 76.1595 699.379 75.9111 699.68 75.7334C699.985 75.5557 700.338 75.4668 700.739 75.4668C701.04 75.4668 701.313 75.5169 701.56 75.6172C701.806 75.7174 702.015 75.8792 702.188 76.1025C702.366 76.3213 702.501 76.6107 702.592 76.9707C702.688 77.3307 702.735 77.7682 702.735 78.2832V83H700.814V78.29C700.814 77.9574 700.783 77.7021 700.719 77.5244C700.655 77.3467 700.564 77.2259 700.445 77.1621C700.327 77.0983 700.186 77.0664 700.021 77.0664C699.857 77.0664 699.714 77.112 699.591 77.2031C699.472 77.2943 699.372 77.4219 699.29 77.5859C699.208 77.7454 699.146 77.9346 699.105 78.1533C699.064 78.3675 699.044 78.6022 699.044 78.8574ZM707.158 83.1367C706.652 83.1367 706.203 83.0592 705.812 82.9043C705.424 82.7493 705.096 82.526 704.827 82.2344C704.558 81.9382 704.353 81.5804 704.212 81.1611C704.071 80.7419 704 80.2633 704 79.7256V79.1172C704 78.5156 704.068 77.9893 704.205 77.5381C704.342 77.0824 704.535 76.6995 704.786 76.3896C705.037 76.0798 705.344 75.8496 705.709 75.6992C706.078 75.5443 706.495 75.4668 706.96 75.4668C707.425 75.4668 707.833 75.5443 708.184 75.6992C708.539 75.8496 708.833 76.0775 709.065 76.3828C709.298 76.6836 709.473 77.0573 709.592 77.5039C709.71 77.9505 709.77 78.4701 709.77 79.0625V79.9375H704.813V78.5908H707.89V78.4199C707.89 78.1191 707.858 77.8685 707.794 77.668C707.73 77.4629 707.63 77.3102 707.493 77.21C707.356 77.1097 707.174 77.0596 706.946 77.0596C706.755 77.0596 706.593 77.0983 706.461 77.1758C706.329 77.2533 706.224 77.374 706.146 77.5381C706.069 77.7021 706.012 77.9163 705.976 78.1807C705.939 78.4404 705.921 78.7526 705.921 79.1172V79.7256C705.921 80.0674 705.951 80.3545 706.01 80.5869C706.069 80.8148 706.156 81.0016 706.27 81.1475C706.388 81.2887 706.532 81.3913 706.7 81.4551C706.869 81.5143 707.065 81.5439 707.288 81.5439C707.625 81.5439 707.928 81.4847 708.197 81.3662C708.471 81.2432 708.703 81.0768 708.895 80.8672L709.66 82.0293C709.528 82.2025 709.346 82.3757 709.113 82.5488C708.881 82.722 708.603 82.8633 708.279 82.9727C707.956 83.082 707.582 83.1367 707.158 83.1367ZM712.757 77.1826V83H710.836V75.6035H712.634L712.757 77.1826ZM712.47 79.0488L711.957 79.0625C711.948 78.5065 712 78.0075 712.114 77.5654C712.233 77.1234 712.399 76.7474 712.613 76.4375C712.832 76.123 713.092 75.8838 713.393 75.7197C713.698 75.5511 714.037 75.4668 714.411 75.4668C714.698 75.4668 714.96 75.5169 715.197 75.6172C715.439 75.7174 715.646 75.877 715.819 76.0957C715.993 76.3145 716.127 76.6061 716.223 76.9707C716.318 77.3307 716.366 77.7728 716.366 78.2969V83H714.445V78.2832C714.445 77.9642 714.413 77.7181 714.35 77.5449C714.286 77.3672 714.19 77.2441 714.062 77.1758C713.935 77.1029 713.775 77.0664 713.584 77.0664C713.402 77.0664 713.24 77.1188 713.099 77.2236C712.957 77.3239 712.839 77.4629 712.743 77.6406C712.652 77.8184 712.581 78.028 712.531 78.2695C712.486 78.5111 712.465 78.7708 712.47 79.0488ZM720.994 75.6035V77.0459H717.221V75.6035H720.994ZM718.089 73.7783H719.996V80.7441C719.996 80.9492 720.017 81.1064 720.058 81.2158C720.099 81.3252 720.16 81.4027 720.242 81.4482C720.329 81.4893 720.443 81.5098 720.584 81.5098C720.68 81.5098 720.769 81.5052 720.851 81.4961C720.933 81.4824 720.994 81.4688 721.035 81.4551V82.9521C720.885 83.0114 720.725 83.057 720.557 83.0889C720.393 83.1208 720.197 83.1367 719.969 83.1367C719.586 83.1367 719.253 83.0638 718.971 82.918C718.693 82.7721 718.476 82.5397 718.321 82.2207C718.166 81.8971 718.089 81.4733 718.089 80.9492V73.7783ZM721.637 79.5547V79.0557C721.637 78.4769 721.705 77.9642 721.842 77.5176C721.983 77.071 722.184 76.6973 722.443 76.3965C722.703 76.0911 723.015 75.861 723.38 75.7061C723.749 75.5465 724.161 75.4668 724.617 75.4668C725.077 75.4668 725.49 75.5465 725.854 75.7061C726.224 75.861 726.538 76.0911 726.798 76.3965C727.062 76.6973 727.265 77.071 727.406 77.5176C727.548 77.9642 727.618 78.4769 727.618 79.0557V79.5547C727.618 80.1289 727.548 80.6393 727.406 81.0859C727.265 81.5326 727.062 81.9085 726.798 82.2139C726.538 82.5192 726.226 82.7493 725.861 82.9043C725.497 83.0592 725.087 83.1367 724.631 83.1367C724.175 83.1367 723.763 83.0592 723.394 82.9043C723.029 82.7493 722.715 82.5192 722.45 82.2139C722.186 81.9085 721.983 81.5326 721.842 81.0859C721.705 80.6393 721.637 80.1289 721.637 79.5547ZM723.551 79.0557V79.5547C723.551 79.8965 723.574 80.1927 723.619 80.4434C723.669 80.694 723.74 80.9014 723.831 81.0654C723.927 81.2295 724.041 81.3503 724.173 81.4277C724.305 81.5052 724.458 81.5439 724.631 81.5439C724.804 81.5439 724.959 81.5052 725.096 81.4277C725.232 81.3503 725.344 81.2295 725.431 81.0654C725.522 80.9014 725.588 80.694 725.629 80.4434C725.674 80.1927 725.697 79.8965 725.697 79.5547V79.0557C725.697 78.723 725.672 78.4313 725.622 78.1807C725.572 77.9255 725.501 77.7181 725.41 77.5586C725.319 77.3945 725.205 77.2715 725.068 77.1895C724.936 77.1029 724.786 77.0596 724.617 77.0596C724.449 77.0596 724.298 77.1029 724.166 77.1895C724.038 77.2715 723.927 77.3945 723.831 77.5586C723.74 77.7181 723.669 77.9255 723.619 78.1807C723.574 78.4313 723.551 78.723 723.551 79.0557Z" fill="#E0E0E9"/>
<path fill-rule="evenodd" clip-rule="evenodd" d="M690 33H400V31H690V33Z" fill="#D0CFD7"/>
<path fill-rule="evenodd" clip-rule="evenodd" d="M376 33H83V31H376V33Z" fill="url(#paint2_linear_363_3444)"/>
<g filter="url(#filter0_d_363_3444)">
<path d="M69 17C60.7125 17 54 23.7125 54 32C54 34.8125 54.7875 37.475 56.175 39.725C57.497 41.9468 59.3748 43.7861 61.6236 45.0617C63.8724 46.3373 66.4146 47.0053 69 47C74.475 47 79.2375 44.075 81.825 39.725C83.2125 37.475 84 34.8125 84 32C84 23.7125 77.2875 17 69 17ZM76.3875 30.7625L68.4 38.15C67.875 38.6375 67.1625 38.9 66.4875 38.9C65.775 38.9 65.0625 38.6375 64.5 38.075L60.7875 34.3625C60.2644 33.8332 59.9711 33.1191 59.9711 32.375C59.9711 31.6309 60.2644 30.9168 60.7875 30.3875C61.875 29.3 63.675 29.3 64.7625 30.3875L66.5625 32.1875L72.5625 26.6375C73.6875 25.5875 75.4875 25.6625 76.5375 26.7875C77.5875 27.9125 77.5125 29.7125 76.3875 30.7625Z" fill="url(#paint3_linear_363_3444)"/>
</g>
<g filter="url(#filter1_d_363_3444)">
<path d="M390 17C381.712 17 375 23.7125 375 32C375 34.8125 375.788 37.475 377.175 39.725C378.497 41.9468 380.375 43.7861 382.624 45.0617C384.872 46.3373 387.415 47.0053 390 47C395.475 47 400.238 44.075 402.825 39.725C404.213 37.475 405 34.8125 405 32C405 23.7125 398.288 17 390 17ZM397.387 30.7625L389.4 38.15C388.875 38.6375 388.162 38.9 387.487 38.9C386.775 38.9 386.062 38.6375 385.5 38.075L381.787 34.3625C381.264 33.8332 380.971 33.1191 380.971 32.375C380.971 31.6309 381.264 30.9168 381.787 30.3875C382.875 29.3 384.675 29.3 385.762 30.3875L387.562 32.1875L393.562 26.6375C394.687 25.5875 396.488 25.6625 397.538 26.7875C398.588 27.9125 398.512 29.7125 397.387 30.7625Z" fill="url(#paint4_linear_363_3444)"/>
</g>
<circle cx="696.5" cy="32.5" r="14.5" fill="#D0CFD7"/>
<defs>
<filter id="filter0_d_363_3444" x="37" y="0" width="74" height="74" filterUnits="userSpaceOnUse" color-interpolation-filters="sRGB">
<feFlood flood-opacity="0" result="BackgroundImageFix"/>
<feColorMatrix in="SourceAlpha" type="matrix" values="0 0 0 0 0 0 0 0 0 0 0 0 0 0 0 0 0 0 127 0" result="hardAlpha"/>
<feOffset dx="5" dy="5"/>
<feGaussianBlur stdDeviation="11"/>
<feComposite in2="hardAlpha" operator="out"/>
<feColorMatrix type="matrix" values="0 0 0 0 0.0392157 0 0 0 0 0.560784 0 0 0 0 0.309804 0 0 0 0.2 0"/>
<feBlend mode="normal" in2="BackgroundImageFix" result="effect1_dropShadow_363_3444"/>
<feBlend mode="normal" in="SourceGraphic" in2="effect1_dropShadow_363_3444" result="shape"/>
</filter>
<filter id="filter1_d_363_3444" x="358" y="0" width="74" height="74" filterUnits="userSpaceOnUse" color-interpolation-filters="sRGB">
<feFlood flood-opacity="0" result="BackgroundImageFix"/>
<feColorMatrix in="SourceAlpha" type="matrix" values="0 0 0 0 0 0 0 0 0 0 0 0 0 0 0 0 0 0 127 0" result="hardAlpha"/>
<feOffset dx="5" dy="5"/>
<feGaussianBlur stdDeviation="11"/>
<feComposite in2="hardAlpha" operator="out"/>
<feColorMatrix type="matrix" values="0 0 0 0 0.0392157 0 0 0 0 0.560784 0 0 0 0 0.309804 0 0 0 0.2 0"/>
<feBlend mode="normal" in2="BackgroundImageFix" result="effect1_dropShadow_363_3444"/>
<feBlend mode="normal" in="SourceGraphic" in2="effect1_dropShadow_363_3444" result="shape"/>
</filter>
<linearGradient id="paint0_linear_363_3444" x1="68.5" y1="77" x2="68.5" y2="57" gradientUnits="userSpaceOnUse">
<stop stop-color="#5CCC94"/>
<stop offset="1" stop-color="#8CCAAE"/>
</linearGradient>
<linearGradient id="paint1_linear_363_3444" x1="392" y1="77" x2="392" y2="57" gradientUnits="userSpaceOnUse">
<stop stop-color="#5CCC94"/>
<stop offset="1" stop-color="#8CCAAE"/>
</linearGradient>
<linearGradient id="paint2_linear_363_3444" x1="229.5" y1="33" x2="229.5" y2="31" gradientUnits="userSpaceOnUse">
<stop stop-color="#5CCC94"/>
<stop offset="1" stop-color="#8CCAAE"/>
</linearGradient>
<linearGradient id="paint3_linear_363_3444" x1="69" y1="47" x2="69" y2="17" gradientUnits="userSpaceOnUse">
<stop stop-color="#5CCC94"/>
<stop offset="1" stop-color="#8CCAAE"/>
</linearGradient>
<linearGradient id="paint4_linear_363_3444" x1="390" y1="47" x2="390" y2="17" gradientUnits="userSpaceOnUse">
<stop stop-color="#5CCC94"/>
<stop offset="1" stop-color="#8CCAAE"/>
</linearGradient>
</defs>
</svg>
