<svg width="706" height="98" viewBox="0 0 706 98" fill="none" xmlns="http://www.w3.org/2000/svg">
<path d="M3.09863 62.0469V72H1.0957V62.0469H3.09863ZM8.04102 62.0469L4.81445 66.9893L2.83887 69.4502L2.45605 67.4473L3.73438 65.3145L5.60742 62.0469H8.04102ZM5.73047 72L3.55664 67.4268L5.02637 66.1279L8.08887 72H5.73047ZM11.5547 72.1367C11.0488 72.1367 10.5999 72.0592 10.208 71.9043C9.82064 71.7493 9.49251 71.526 9.22363 71.2344C8.95475 70.9382 8.74967 70.5804 8.6084 70.1611C8.46712 69.7419 8.39648 69.2633 8.39648 68.7256V68.1172C8.39648 67.5156 8.46484 66.9893 8.60156 66.5381C8.73828 66.0824 8.93197 65.6995 9.18262 65.3896C9.43327 65.0798 9.74089 64.8496 10.1055 64.6992C10.4746 64.5443 10.8916 64.4668 11.3564 64.4668C11.8213 64.4668 12.2292 64.5443 12.5801 64.6992C12.9355 64.8496 13.2295 65.0775 13.4619 65.3828C13.6943 65.6836 13.8698 66.0573 13.9883 66.5039C14.1068 66.9505 14.166 67.4701 14.166 68.0625V68.9375H9.20996V67.5908H12.2861V67.4199C12.2861 67.1191 12.2542 66.8685 12.1904 66.668C12.1266 66.4629 12.0264 66.3102 11.8896 66.21C11.7529 66.1097 11.5706 66.0596 11.3428 66.0596C11.1514 66.0596 10.9896 66.0983 10.8574 66.1758C10.7253 66.2533 10.6204 66.374 10.543 66.5381C10.4655 66.7021 10.4085 66.9163 10.3721 67.1807C10.3356 67.4404 10.3174 67.7526 10.3174 68.1172V68.7256C10.3174 69.0674 10.347 69.3545 10.4062 69.5869C10.4655 69.8148 10.5521 70.0016 10.666 70.1475C10.7845 70.2887 10.9281 70.3913 11.0967 70.4551C11.2653 70.5143 11.4613 70.5439 11.6846 70.5439C12.0218 70.5439 12.3249 70.4847 12.5938 70.3662C12.8672 70.2432 13.0996 70.0768 13.291 69.8672L14.0566 71.0293C13.9245 71.2025 13.7422 71.3757 13.5098 71.5488C13.2773 71.722 12.9993 71.8633 12.6758 71.9727C12.3522 72.082 11.9785 72.1367 11.5547 72.1367ZM17.1533 66.1826V72H15.2324V64.6035H17.0303L17.1533 66.1826ZM16.8662 68.0488L16.3535 68.0625C16.3444 67.5065 16.3968 67.0075 16.5107 66.5654C16.6292 66.1234 16.7956 65.7474 17.0098 65.4375C17.2285 65.123 17.4883 64.8838 17.7891 64.7197C18.0944 64.5511 18.4339 64.4668 18.8076 64.4668C19.0947 64.4668 19.3568 64.5169 19.5938 64.6172C19.8353 64.7174 20.0426 64.877 20.2158 65.0957C20.389 65.3145 20.5234 65.6061 20.6191 65.9707C20.7148 66.3307 20.7627 66.7728 20.7627 67.2969V72H18.8418V67.2832C18.8418 66.9642 18.8099 66.7181 18.7461 66.5449C18.6823 66.3672 18.5866 66.2441 18.459 66.1758C18.3314 66.1029 18.1719 66.0664 17.9805 66.0664C17.7982 66.0664 17.6364 66.1188 17.4951 66.2236C17.3538 66.3239 17.2354 66.4629 17.1396 66.6406C17.0485 66.8184 16.9779 67.028 16.9277 67.2695C16.8822 67.5111 16.8617 67.7708 16.8662 68.0488ZM24.0439 66.1826V72H22.123V64.6035H23.9209L24.0439 66.1826ZM23.7568 68.0488L23.2441 68.0625C23.235 67.5065 23.2874 67.0075 23.4014 66.5654C23.5199 66.1234 23.6862 65.7474 23.9004 65.4375C24.1191 65.123 24.3789 64.8838 24.6797 64.7197C24.985 64.5511 25.3245 64.4668 25.6982 64.4668C25.9854 64.4668 26.2474 64.5169 26.4844 64.6172C26.7259 64.7174 26.9333 64.877 27.1064 65.0957C27.2796 65.3145 27.4141 65.6061 27.5098 65.9707C27.6055 66.3307 27.6533 66.7728 27.6533 67.2969V72H25.7324V67.2832C25.7324 66.9642 25.7005 66.7181 25.6367 66.5449C25.5729 66.3672 25.4772 66.2441 25.3496 66.1758C25.222 66.1029 25.0625 66.0664 24.8711 66.0664C24.6888 66.0664 24.527 66.1188 24.3857 66.2236C24.2445 66.3239 24.126 66.4629 24.0303 66.6406C23.9391 66.8184 23.8685 67.028 23.8184 67.2695C23.7728 67.5111 23.7523 67.7708 23.7568 68.0488ZM34.1133 70.4072V72H29.417V70.4072H34.1133ZM34.0654 65.7656L30.1689 72H28.8906V70.7969L32.7666 64.6035H34.0654V65.7656ZM33.3955 64.6035V66.1963H28.9658V64.6035H33.3955ZM38.2559 72.1367C37.75 72.1367 37.3011 72.0592 36.9092 71.9043C36.5218 71.7493 36.1937 71.526 35.9248 71.2344C35.6559 70.9382 35.4508 70.5804 35.3096 70.1611C35.1683 69.7419 35.0977 69.2633 35.0977 68.7256V68.1172C35.0977 67.5156 35.166 66.9893 35.3027 66.5381C35.4395 66.0824 35.6331 65.6995 35.8838 65.3896C36.1344 65.0798 36.4421 64.8496 36.8066 64.6992C37.1758 64.5443 37.5928 64.4668 38.0576 64.4668C38.5225 64.4668 38.9303 64.5443 39.2812 64.6992C39.6367 64.8496 39.9307 65.0775 40.1631 65.3828C40.3955 65.6836 40.571 66.0573 40.6895 66.5039C40.8079 66.9505 40.8672 67.4701 40.8672 68.0625V68.9375H35.9111V67.5908H38.9873V67.4199C38.9873 67.1191 38.9554 66.8685 38.8916 66.668C38.8278 66.4629 38.7275 66.3102 38.5908 66.21C38.4541 66.1097 38.2718 66.0596 38.0439 66.0596C37.8525 66.0596 37.6908 66.0983 37.5586 66.1758C37.4264 66.2533 37.3216 66.374 37.2441 66.5381C37.1667 66.7021 37.1097 66.9163 37.0732 67.1807C37.0368 67.4404 37.0186 67.7526 37.0186 68.1172V68.7256C37.0186 69.0674 37.0482 69.3545 37.1074 69.5869C37.1667 69.8148 37.2533 70.0016 37.3672 70.1475C37.4857 70.2887 37.6292 70.3913 37.7979 70.4551C37.9665 70.5143 38.1624 70.5439 38.3857 70.5439C38.723 70.5439 39.026 70.4847 39.2949 70.3662C39.5684 70.2432 39.8008 70.0768 39.9922 69.8672L40.7578 71.0293C40.6257 71.2025 40.4434 71.3757 40.2109 71.5488C39.9785 71.722 39.7005 71.8633 39.377 71.9727C39.0534 72.082 38.6797 72.1367 38.2559 72.1367ZM43.9844 64.6035V72H42.0635V64.6035H43.9844ZM41.9746 62.6895C41.9746 62.3932 42.068 62.1494 42.2549 61.958C42.4463 61.762 42.7015 61.6641 43.0205 61.6641C43.3441 61.6641 43.5993 61.762 43.7861 61.958C43.973 62.1494 44.0664 62.3932 44.0664 62.6895C44.0664 62.9811 43.9707 63.2249 43.7793 63.4209C43.5924 63.6123 43.3418 63.708 43.0273 63.708C42.7038 63.708 42.4463 63.6123 42.2549 63.4209C42.068 63.2249 41.9746 62.9811 41.9746 62.6895ZM48.1748 70.5439C48.3525 70.5439 48.5052 70.5075 48.6328 70.4346C48.765 70.3617 48.8652 70.2432 48.9336 70.0791C49.002 69.915 49.0384 69.7031 49.043 69.4434H50.8408C50.8408 69.9993 50.7223 70.4801 50.4854 70.8857C50.2529 71.2868 49.9385 71.5967 49.542 71.8154C49.1501 72.0296 48.7057 72.1367 48.209 72.1367C47.7122 72.1367 47.2793 72.057 46.9102 71.8975C46.541 71.738 46.2357 71.5055 45.9941 71.2002C45.7572 70.8949 45.5771 70.5234 45.4541 70.0859C45.3356 69.6439 45.2764 69.138 45.2764 68.5684V68.0283C45.2764 67.4678 45.3356 66.9665 45.4541 66.5244C45.5771 66.0824 45.7572 65.7087 45.9941 65.4033C46.2357 65.098 46.5387 64.8656 46.9033 64.7061C47.2725 64.5465 47.7054 64.4668 48.2021 64.4668C48.7354 64.4668 49.1979 64.5785 49.5898 64.8018C49.9818 65.0205 50.2871 65.3441 50.5059 65.7725C50.7292 66.2008 50.8408 66.7295 50.8408 67.3584H49.043C49.0384 67.0758 49.0042 66.8411 48.9404 66.6543C48.8812 66.4629 48.7878 66.3171 48.6602 66.2168C48.5371 66.112 48.373 66.0596 48.168 66.0596C47.9538 66.0596 47.7806 66.1051 47.6484 66.1963C47.5208 66.2829 47.4229 66.4105 47.3545 66.5791C47.2907 66.7432 47.2474 66.9482 47.2246 67.1943C47.2018 67.4404 47.1904 67.7184 47.1904 68.0283V68.5684C47.1904 68.901 47.1995 69.1904 47.2178 69.4365C47.2406 69.6781 47.2839 69.8831 47.3477 70.0518C47.416 70.2158 47.514 70.3389 47.6416 70.4209C47.7738 70.5029 47.9515 70.5439 48.1748 70.5439ZM53.8076 61.5V72H51.8936V61.5H53.8076ZM53.5342 68.0488L53.0146 68.0625C53.0146 67.543 53.0671 67.0645 53.1719 66.627C53.2812 66.1895 53.4385 65.8089 53.6436 65.4854C53.8486 65.1618 54.097 64.9111 54.3887 64.7334C54.6849 64.5557 55.0107 64.4668 55.3662 64.4668C55.6715 64.4668 55.9495 64.5192 56.2002 64.624C56.4508 64.7288 56.6673 64.8929 56.8496 65.1162C57.0365 65.3395 57.18 65.6335 57.2803 65.998C57.3805 66.3626 57.4307 66.807 57.4307 67.3311V72H55.5098V67.3174C55.5098 66.9984 55.4779 66.7477 55.4141 66.5654C55.3503 66.3831 55.2546 66.2555 55.127 66.1826C54.9993 66.1051 54.8398 66.0664 54.6484 66.0664C54.4434 66.0664 54.2679 66.1188 54.1221 66.2236C53.9808 66.3239 53.8669 66.4629 53.7803 66.6406C53.6937 66.8184 53.6299 67.028 53.5889 67.2695C53.5524 67.5111 53.5342 67.7708 53.5342 68.0488ZM61.8125 72.1367C61.3066 72.1367 60.8577 72.0592 60.4658 71.9043C60.0785 71.7493 59.7503 71.526 59.4814 71.2344C59.2126 70.9382 59.0075 70.5804 58.8662 70.1611C58.7249 69.7419 58.6543 69.2633 58.6543 68.7256V68.1172C58.6543 67.5156 58.7227 66.9893 58.8594 66.5381C58.9961 66.0824 59.1898 65.6995 59.4404 65.3896C59.6911 65.0798 59.9987 64.8496 60.3633 64.6992C60.7324 64.5443 61.1494 64.4668 61.6143 64.4668C62.0791 64.4668 62.487 64.5443 62.8379 64.6992C63.1934 64.8496 63.4873 65.0775 63.7197 65.3828C63.9521 65.6836 64.1276 66.0573 64.2461 66.5039C64.3646 66.9505 64.4238 67.4701 64.4238 68.0625V68.9375H59.4678V67.5908H62.5439V67.4199C62.5439 67.1191 62.512 66.8685 62.4482 66.668C62.3844 66.4629 62.2842 66.3102 62.1475 66.21C62.0107 66.1097 61.8285 66.0596 61.6006 66.0596C61.4092 66.0596 61.2474 66.0983 61.1152 66.1758C60.9831 66.2533 60.8783 66.374 60.8008 66.5381C60.7233 66.7021 60.6663 66.9163 60.6299 67.1807C60.5934 67.4404 60.5752 67.7526 60.5752 68.1172V68.7256C60.5752 69.0674 60.6048 69.3545 60.6641 69.5869C60.7233 69.8148 60.8099 70.0016 60.9238 70.1475C61.0423 70.2887 61.1859 70.3913 61.3545 70.4551C61.5231 70.5143 61.7191 70.5439 61.9424 70.5439C62.2796 70.5439 62.5827 70.4847 62.8516 70.3662C63.125 70.2432 63.3574 70.0768 63.5488 69.8672L64.3145 71.0293C64.1823 71.2025 64 71.3757 63.7676 71.5488C63.5352 71.722 63.2572 71.8633 62.9336 71.9727C62.61 72.082 62.2363 72.1367 61.8125 72.1367ZM67.4111 66.1826V72H65.4902V64.6035H67.2881L67.4111 66.1826ZM67.124 68.0488L66.6113 68.0625C66.6022 67.5065 66.6546 67.0075 66.7686 66.5654C66.887 66.1234 67.0534 65.7474 67.2676 65.4375C67.4863 65.123 67.7461 64.8838 68.0469 64.7197C68.3522 64.5511 68.6917 64.4668 69.0654 64.4668C69.3525 64.4668 69.6146 64.5169 69.8516 64.6172C70.0931 64.7174 70.3005 64.877 70.4736 65.0957C70.6468 65.3145 70.7812 65.6061 70.877 65.9707C70.9727 66.3307 71.0205 66.7728 71.0205 67.2969V72H69.0996V67.2832C69.0996 66.9642 69.0677 66.7181 69.0039 66.5449C68.9401 66.3672 68.8444 66.2441 68.7168 66.1758C68.5892 66.1029 68.4297 66.0664 68.2383 66.0664C68.056 66.0664 67.8942 66.1188 67.7529 66.2236C67.6117 66.3239 67.4932 66.4629 67.3975 66.6406C67.3063 66.8184 67.2357 67.028 67.1855 67.2695C67.14 67.5111 67.1195 67.7708 67.124 68.0488Z" fill="url(#paint0_linear_363_2793)"/>
<path d="M306.261 62.0469H309.453C310.118 62.0469 310.686 62.1608 311.155 62.3887C311.625 62.6165 311.985 62.9538 312.235 63.4004C312.486 63.847 312.611 64.3984 312.611 65.0547C312.611 65.5924 312.538 66.0527 312.393 66.4355C312.247 66.8138 312.039 67.1305 311.771 67.3857C311.502 67.6364 311.18 67.8369 310.807 67.9873L310.198 68.3496H307.607L307.601 66.6885H309.398C309.672 66.6885 309.897 66.6292 310.075 66.5107C310.257 66.3877 310.392 66.2168 310.479 65.998C310.57 65.7747 310.615 65.515 310.615 65.2188C310.615 64.9043 310.574 64.6354 310.492 64.4121C310.415 64.1842 310.289 64.0111 310.116 63.8926C309.948 63.7695 309.727 63.708 309.453 63.708H308.264V72H306.261V62.0469ZM310.779 72L308.954 67.5635L311.053 67.5566L312.919 71.9043V72H310.779ZM316.891 72.1367C316.385 72.1367 315.936 72.0592 315.544 71.9043C315.157 71.7493 314.828 71.526 314.56 71.2344C314.291 70.9382 314.086 70.5804 313.944 70.1611C313.803 69.7419 313.732 69.2633 313.732 68.7256V68.1172C313.732 67.5156 313.801 66.9893 313.938 66.5381C314.074 66.0824 314.268 65.6995 314.519 65.3896C314.769 65.0798 315.077 64.8496 315.441 64.6992C315.811 64.5443 316.228 64.4668 316.692 64.4668C317.157 64.4668 317.565 64.5443 317.916 64.6992C318.271 64.8496 318.565 65.0775 318.798 65.3828C319.03 65.6836 319.206 66.0573 319.324 66.5039C319.443 66.9505 319.502 67.4701 319.502 68.0625V68.9375H314.546V67.5908H317.622V67.4199C317.622 67.1191 317.59 66.8685 317.526 66.668C317.463 66.4629 317.362 66.3102 317.226 66.21C317.089 66.1097 316.907 66.0596 316.679 66.0596C316.487 66.0596 316.326 66.0983 316.193 66.1758C316.061 66.2533 315.956 66.374 315.879 66.5381C315.801 66.7021 315.744 66.9163 315.708 67.1807C315.672 67.4404 315.653 67.7526 315.653 68.1172V68.7256C315.653 69.0674 315.683 69.3545 315.742 69.5869C315.801 69.8148 315.888 70.0016 316.002 70.1475C316.12 70.2887 316.264 70.3913 316.433 70.4551C316.601 70.5143 316.797 70.5439 317.021 70.5439C317.358 70.5439 317.661 70.4847 317.93 70.3662C318.203 70.2432 318.436 70.0768 318.627 69.8672L319.393 71.0293C319.26 71.2025 319.078 71.3757 318.846 71.5488C318.613 71.722 318.335 71.8633 318.012 71.9727C317.688 72.082 317.314 72.1367 316.891 72.1367ZM323.282 70.5439C323.46 70.5439 323.613 70.5075 323.74 70.4346C323.872 70.3617 323.973 70.2432 324.041 70.0791C324.109 69.915 324.146 69.7031 324.15 69.4434H325.948C325.948 69.9993 325.83 70.4801 325.593 70.8857C325.36 71.2868 325.046 71.5967 324.649 71.8154C324.257 72.0296 323.813 72.1367 323.316 72.1367C322.82 72.1367 322.387 72.057 322.018 71.8975C321.648 71.738 321.343 71.5055 321.102 71.2002C320.865 70.8949 320.685 70.5234 320.562 70.0859C320.443 69.6439 320.384 69.138 320.384 68.5684V68.0283C320.384 67.4678 320.443 66.9665 320.562 66.5244C320.685 66.0824 320.865 65.7087 321.102 65.4033C321.343 65.098 321.646 64.8656 322.011 64.7061C322.38 64.5465 322.813 64.4668 323.31 64.4668C323.843 64.4668 324.305 64.5785 324.697 64.8018C325.089 65.0205 325.395 65.3441 325.613 65.7725C325.837 66.2008 325.948 66.7295 325.948 67.3584H324.15C324.146 67.0758 324.112 66.8411 324.048 66.6543C323.989 66.4629 323.895 66.3171 323.768 66.2168C323.645 66.112 323.48 66.0596 323.275 66.0596C323.061 66.0596 322.888 66.1051 322.756 66.1963C322.628 66.2829 322.53 66.4105 322.462 66.5791C322.398 66.7432 322.355 66.9482 322.332 67.1943C322.309 67.4404 322.298 67.7184 322.298 68.0283V68.5684C322.298 68.901 322.307 69.1904 322.325 69.4365C322.348 69.6781 322.391 69.8831 322.455 70.0518C322.523 70.2158 322.621 70.3389 322.749 70.4209C322.881 70.5029 323.059 70.5439 323.282 70.5439ZM328.915 61.5V72H327.001V61.5H328.915ZM328.642 68.0488L328.122 68.0625C328.122 67.543 328.174 67.0645 328.279 66.627C328.389 66.1895 328.546 65.8089 328.751 65.4854C328.956 65.1618 329.204 64.9111 329.496 64.7334C329.792 64.5557 330.118 64.4668 330.474 64.4668C330.779 64.4668 331.057 64.5192 331.308 64.624C331.558 64.7288 331.775 64.8929 331.957 65.1162C332.144 65.3395 332.287 65.6335 332.388 65.998C332.488 66.3626 332.538 66.807 332.538 67.3311V72H330.617V67.3174C330.617 66.9984 330.585 66.7477 330.521 66.5654C330.458 66.3831 330.362 66.2555 330.234 66.1826C330.107 66.1051 329.947 66.0664 329.756 66.0664C329.551 66.0664 329.375 66.1188 329.229 66.2236C329.088 66.3239 328.974 66.4629 328.888 66.6406C328.801 66.8184 328.737 67.028 328.696 67.2695C328.66 67.5111 328.642 67.7708 328.642 68.0488ZM335.819 66.1826V72H333.898V64.6035H335.696L335.819 66.1826ZM335.532 68.0488L335.02 68.0625C335.01 67.5065 335.063 67.0075 335.177 66.5654C335.295 66.1234 335.462 65.7474 335.676 65.4375C335.895 65.123 336.154 64.8838 336.455 64.7197C336.76 64.5511 337.1 64.4668 337.474 64.4668C337.761 64.4668 338.023 64.5169 338.26 64.6172C338.501 64.7174 338.709 64.877 338.882 65.0957C339.055 65.3145 339.189 65.6061 339.285 65.9707C339.381 66.3307 339.429 66.7728 339.429 67.2969V72H337.508V67.2832C337.508 66.9642 337.476 66.7181 337.412 66.5449C337.348 66.3672 337.253 66.2441 337.125 66.1758C336.997 66.1029 336.838 66.0664 336.646 66.0664C336.464 66.0664 336.302 66.1188 336.161 66.2236C336.02 66.3239 335.901 66.4629 335.806 66.6406C335.715 66.8184 335.644 67.028 335.594 67.2695C335.548 67.5111 335.528 67.7708 335.532 68.0488ZM344.405 70.2227V64.6035H346.326V72H344.521L344.405 70.2227ZM344.624 68.6982L345.157 68.6846C345.157 69.1813 345.109 69.6416 345.014 70.0654C344.918 70.4847 344.774 70.8493 344.583 71.1592C344.392 71.4691 344.152 71.7106 343.865 71.8838C343.578 72.0524 343.239 72.1367 342.847 72.1367C342.546 72.1367 342.268 72.0866 342.013 71.9863C341.762 71.8815 341.546 71.7197 341.363 71.501C341.181 71.2777 341.037 70.9928 340.933 70.6465C340.832 70.2956 340.782 69.874 340.782 69.3818V64.6035H342.703V69.4023C342.703 69.6029 342.721 69.776 342.758 69.9219C342.794 70.0632 342.844 70.1794 342.908 70.2705C342.972 70.3617 343.047 70.4277 343.134 70.4688C343.22 70.5052 343.318 70.5234 343.428 70.5234C343.729 70.5234 343.965 70.446 344.139 70.291C344.316 70.1315 344.442 69.915 344.515 69.6416C344.588 69.3636 344.624 69.0492 344.624 68.6982ZM349.601 66.1826V72H347.68V64.6035H349.478L349.601 66.1826ZM349.313 68.0488L348.801 68.0625C348.792 67.5065 348.844 67.0075 348.958 66.5654C349.076 66.1234 349.243 65.7474 349.457 65.4375C349.676 65.123 349.936 64.8838 350.236 64.7197C350.542 64.5511 350.881 64.4668 351.255 64.4668C351.542 64.4668 351.804 64.5169 352.041 64.6172C352.283 64.7174 352.49 64.877 352.663 65.0957C352.836 65.3145 352.971 65.6061 353.066 65.9707C353.162 66.3307 353.21 66.7728 353.21 67.2969V72H351.289V67.2832C351.289 66.9642 351.257 66.7181 351.193 66.5449C351.13 66.3672 351.034 66.2441 350.906 66.1758C350.779 66.1029 350.619 66.0664 350.428 66.0664C350.245 66.0664 350.084 66.1188 349.942 66.2236C349.801 66.3239 349.683 66.4629 349.587 66.6406C349.496 66.8184 349.425 67.028 349.375 67.2695C349.329 67.5111 349.309 67.7708 349.313 68.0488ZM358.501 64.6035H360.237V72C360.237 72.6745 360.107 73.2259 359.848 73.6543C359.592 74.0872 359.235 74.404 358.774 74.6045C358.319 74.8096 357.785 74.9121 357.175 74.9121C356.942 74.9121 356.68 74.8802 356.389 74.8164C356.102 74.7526 355.824 74.6546 355.555 74.5225C355.286 74.3949 355.065 74.2399 354.892 74.0576L355.541 72.7314C355.719 72.9092 355.951 73.0596 356.238 73.1826C356.525 73.3102 356.808 73.374 357.086 73.374C357.355 73.374 357.578 73.3307 357.756 73.2441C357.938 73.1621 358.075 73.0208 358.166 72.8203C358.262 72.6198 358.31 72.3509 358.31 72.0137V66.3193L358.501 64.6035ZM354.372 68.5615V68.0693C354.372 67.4678 354.429 66.9414 354.543 66.4902C354.657 66.0391 354.821 65.6631 355.035 65.3623C355.249 65.0615 355.511 64.8382 355.821 64.6924C356.136 64.542 356.487 64.4668 356.874 64.4668C357.28 64.4668 357.619 64.5557 357.893 64.7334C358.166 64.9066 358.387 65.1504 358.556 65.4648C358.729 65.7793 358.861 66.1507 358.952 66.5791C359.048 67.0075 359.121 67.4769 359.171 67.9873V68.6982C359.121 69.1813 359.039 69.6325 358.925 70.0518C358.815 70.471 358.67 70.8356 358.487 71.1455C358.305 71.4554 358.082 71.6992 357.817 71.877C357.553 72.0501 357.234 72.1367 356.86 72.1367C356.478 72.1367 356.131 72.0592 355.821 71.9043C355.516 71.7493 355.254 71.5215 355.035 71.2207C354.821 70.9154 354.657 70.5417 354.543 70.0996C354.429 69.653 354.372 69.1403 354.372 68.5615ZM356.293 68.0693V68.5615C356.293 68.9079 356.313 69.2064 356.354 69.457C356.4 69.7031 356.468 69.9059 356.56 70.0654C356.651 70.2204 356.767 70.3366 356.908 70.4141C357.054 70.487 357.225 70.5234 357.421 70.5234C357.699 70.5234 357.92 70.4596 358.084 70.332C358.253 70.1999 358.376 70.0199 358.453 69.792C358.535 69.5596 358.581 69.293 358.59 68.9922V67.7002C358.585 67.4495 358.556 67.224 358.501 67.0234C358.451 66.8229 358.38 66.652 358.289 66.5107C358.198 66.3695 358.079 66.2601 357.934 66.1826C357.792 66.1051 357.626 66.0664 357.435 66.0664C357.239 66.0664 357.07 66.1051 356.929 66.1826C356.787 66.2601 356.669 66.3809 356.573 66.5449C356.482 66.7044 356.411 66.9118 356.361 67.167C356.316 67.4176 356.293 67.7184 356.293 68.0693ZM364.947 70.0039C364.947 69.8763 364.904 69.7624 364.817 69.6621C364.731 69.5618 364.594 69.4593 364.407 69.3545C364.22 69.2451 363.972 69.1243 363.662 68.9922C363.325 68.8555 363.026 68.7142 362.767 68.5684C362.507 68.4225 362.286 68.2607 362.104 68.083C361.926 67.9053 361.791 67.7025 361.7 67.4746C361.609 67.2467 361.563 66.987 361.563 66.6953C361.563 66.3809 361.62 66.0915 361.734 65.8271C361.853 65.5583 362.021 65.3236 362.24 65.123C362.459 64.918 362.726 64.7585 363.04 64.6445C363.359 64.526 363.717 64.4668 364.113 64.4668C364.669 64.4668 365.146 64.5648 365.542 64.7607C365.943 64.9521 366.251 65.221 366.465 65.5674C366.679 65.9137 366.786 66.3171 366.786 66.7773H364.872C364.872 66.6133 364.847 66.4674 364.797 66.3398C364.747 66.2077 364.665 66.1051 364.551 66.0322C364.441 65.9593 364.293 65.9229 364.106 65.9229C363.97 65.9229 363.847 65.9525 363.737 66.0117C363.632 66.071 363.548 66.1507 363.484 66.251C363.425 66.3467 363.396 66.4606 363.396 66.5928C363.396 66.693 363.416 66.7819 363.457 66.8594C363.503 66.9368 363.573 67.012 363.669 67.085C363.765 67.1579 363.892 67.2354 364.052 67.3174C364.216 67.3949 364.416 67.4814 364.653 67.5771C365.146 67.7594 365.549 67.9554 365.863 68.165C366.182 68.3747 366.419 68.6208 366.574 68.9033C366.729 69.1813 366.807 69.5254 366.807 69.9355C366.807 70.2637 366.743 70.5622 366.615 70.8311C366.492 71.0999 366.312 71.3324 366.075 71.5283C365.838 71.7243 365.553 71.8747 365.221 71.9795C364.893 72.0843 364.526 72.1367 364.12 72.1367C363.523 72.1367 363.02 72.0182 362.609 71.7812C362.199 71.5443 361.889 71.2412 361.68 70.8721C361.47 70.4984 361.365 70.111 361.365 69.71H363.184C363.193 69.9561 363.238 70.1497 363.32 70.291C363.407 70.4277 363.523 70.5234 363.669 70.5781C363.815 70.6328 363.977 70.6602 364.154 70.6602C364.332 70.6602 364.478 70.6374 364.592 70.5918C364.71 70.5417 364.799 70.4665 364.858 70.3662C364.918 70.2614 364.947 70.1406 364.947 70.0039ZM371.305 70.0039C371.305 69.8763 371.261 69.7624 371.175 69.6621C371.088 69.5618 370.951 69.4593 370.765 69.3545C370.578 69.2451 370.329 69.1243 370.02 68.9922C369.682 68.8555 369.384 68.7142 369.124 68.5684C368.864 68.4225 368.643 68.2607 368.461 68.083C368.283 67.9053 368.149 67.7025 368.058 67.4746C367.966 67.2467 367.921 66.987 367.921 66.6953C367.921 66.3809 367.978 66.0915 368.092 65.8271C368.21 65.5583 368.379 65.3236 368.598 65.123C368.816 64.918 369.083 64.7585 369.397 64.6445C369.716 64.526 370.074 64.4668 370.471 64.4668C371.027 64.4668 371.503 64.5648 371.899 64.7607C372.3 64.9521 372.608 65.221 372.822 65.5674C373.036 65.9137 373.144 66.3171 373.144 66.7773H371.229C371.229 66.6133 371.204 66.4674 371.154 66.3398C371.104 66.2077 371.022 66.1051 370.908 66.0322C370.799 65.9593 370.651 65.9229 370.464 65.9229C370.327 65.9229 370.204 65.9525 370.095 66.0117C369.99 66.071 369.906 66.1507 369.842 66.251C369.783 66.3467 369.753 66.4606 369.753 66.5928C369.753 66.693 369.773 66.7819 369.814 66.8594C369.86 66.9368 369.931 67.012 370.026 67.085C370.122 67.1579 370.25 67.2354 370.409 67.3174C370.573 67.3949 370.774 67.4814 371.011 67.5771C371.503 67.7594 371.906 67.9554 372.221 68.165C372.54 68.3747 372.777 68.6208 372.932 68.9033C373.087 69.1813 373.164 69.5254 373.164 69.9355C373.164 70.2637 373.1 70.5622 372.973 70.8311C372.85 71.0999 372.67 71.3324 372.433 71.5283C372.196 71.7243 371.911 71.8747 371.578 71.9795C371.25 72.0843 370.883 72.1367 370.478 72.1367C369.881 72.1367 369.377 72.0182 368.967 71.7812C368.557 71.5443 368.247 71.2412 368.037 70.8721C367.827 70.4984 367.723 70.111 367.723 69.71H369.541C369.55 69.9561 369.596 70.1497 369.678 70.291C369.764 70.4277 369.881 70.5234 370.026 70.5781C370.172 70.6328 370.334 70.6602 370.512 70.6602C370.689 70.6602 370.835 70.6374 370.949 70.5918C371.068 70.5417 371.157 70.4665 371.216 70.3662C371.275 70.2614 371.305 70.1406 371.305 70.0039ZM377.607 64.6035V66.0459H373.834V64.6035H377.607ZM374.702 62.7783H376.609V69.7441C376.609 69.9492 376.63 70.1064 376.671 70.2158C376.712 70.3252 376.773 70.4027 376.855 70.4482C376.942 70.4893 377.056 70.5098 377.197 70.5098C377.293 70.5098 377.382 70.5052 377.464 70.4961C377.546 70.4824 377.607 70.4688 377.648 70.4551V71.9521C377.498 72.0114 377.339 72.057 377.17 72.0889C377.006 72.1208 376.81 72.1367 376.582 72.1367C376.199 72.1367 375.867 72.0638 375.584 71.918C375.306 71.7721 375.09 71.5397 374.935 71.2207C374.78 70.8971 374.702 70.4733 374.702 69.9492V62.7783ZM381.654 72.1367C381.148 72.1367 380.7 72.0592 380.308 71.9043C379.92 71.7493 379.592 71.526 379.323 71.2344C379.054 70.9382 378.849 70.5804 378.708 70.1611C378.567 69.7419 378.496 69.2633 378.496 68.7256V68.1172C378.496 67.5156 378.564 66.9893 378.701 66.5381C378.838 66.0824 379.032 65.6995 379.282 65.3896C379.533 65.0798 379.84 64.8496 380.205 64.6992C380.574 64.5443 380.991 64.4668 381.456 64.4668C381.921 64.4668 382.329 64.5443 382.68 64.6992C383.035 64.8496 383.329 65.0775 383.562 65.3828C383.794 65.6836 383.969 66.0573 384.088 66.5039C384.206 66.9505 384.266 67.4701 384.266 68.0625V68.9375H379.31V67.5908H382.386V67.4199C382.386 67.1191 382.354 66.8685 382.29 66.668C382.226 66.4629 382.126 66.3102 381.989 66.21C381.853 66.1097 381.67 66.0596 381.442 66.0596C381.251 66.0596 381.089 66.0983 380.957 66.1758C380.825 66.2533 380.72 66.374 380.643 66.5381C380.565 66.7021 380.508 66.9163 380.472 67.1807C380.435 67.4404 380.417 67.7526 380.417 68.1172V68.7256C380.417 69.0674 380.447 69.3545 380.506 69.5869C380.565 69.8148 380.652 70.0016 380.766 70.1475C380.884 70.2887 381.028 70.3913 381.196 70.4551C381.365 70.5143 381.561 70.5439 381.784 70.5439C382.121 70.5439 382.424 70.4847 382.693 70.3662C382.967 70.2432 383.199 70.0768 383.391 69.8672L384.156 71.0293C384.024 71.2025 383.842 71.3757 383.609 71.5488C383.377 71.722 383.099 71.8633 382.775 71.9727C382.452 72.082 382.078 72.1367 381.654 72.1367ZM387.383 61.5V72H385.462V61.5H387.383ZM390.91 61.5V72H388.989V61.5H390.91ZM396.003 70.2227V64.6035H397.924V72H396.119L396.003 70.2227ZM396.222 68.6982L396.755 68.6846C396.755 69.1813 396.707 69.6416 396.611 70.0654C396.516 70.4847 396.372 70.8493 396.181 71.1592C395.989 71.4691 395.75 71.7106 395.463 71.8838C395.176 72.0524 394.836 72.1367 394.444 72.1367C394.144 72.1367 393.866 72.0866 393.61 71.9863C393.36 71.8815 393.143 71.7197 392.961 71.501C392.779 71.2777 392.635 70.9928 392.53 70.6465C392.43 70.2956 392.38 69.874 392.38 69.3818V64.6035H394.301V69.4023C394.301 69.6029 394.319 69.776 394.355 69.9219C394.392 70.0632 394.442 70.1794 394.506 70.2705C394.57 70.3617 394.645 70.4277 394.731 70.4688C394.818 70.5052 394.916 70.5234 395.025 70.5234C395.326 70.5234 395.563 70.446 395.736 70.291C395.914 70.1315 396.039 69.915 396.112 69.6416C396.185 69.3636 396.222 69.0492 396.222 68.6982ZM401.198 66.1826V72H399.277V64.6035H401.075L401.198 66.1826ZM400.911 68.0488L400.398 68.0625C400.389 67.5065 400.442 67.0075 400.556 66.5654C400.674 66.1234 400.84 65.7474 401.055 65.4375C401.273 65.123 401.533 64.8838 401.834 64.7197C402.139 64.5511 402.479 64.4668 402.853 64.4668C403.14 64.4668 403.402 64.5169 403.639 64.6172C403.88 64.7174 404.088 64.877 404.261 65.0957C404.434 65.3145 404.568 65.6061 404.664 65.9707C404.76 66.3307 404.808 66.7728 404.808 67.2969V72H402.887V67.2832C402.887 66.9642 402.855 66.7181 402.791 66.5449C402.727 66.3672 402.632 66.2441 402.504 66.1758C402.376 66.1029 402.217 66.0664 402.025 66.0664C401.843 66.0664 401.681 66.1188 401.54 66.2236C401.399 66.3239 401.28 66.4629 401.185 66.6406C401.093 66.8184 401.023 67.028 400.973 67.2695C400.927 67.5111 400.907 67.7708 400.911 68.0488ZM410.099 64.6035H411.835V72C411.835 72.6745 411.705 73.2259 411.445 73.6543C411.19 74.0872 410.832 74.404 410.372 74.6045C409.916 74.8096 409.383 74.9121 408.772 74.9121C408.54 74.9121 408.278 74.8802 407.986 74.8164C407.699 74.7526 407.421 74.6546 407.152 74.5225C406.883 74.3949 406.662 74.2399 406.489 74.0576L407.139 72.7314C407.316 72.9092 407.549 73.0596 407.836 73.1826C408.123 73.3102 408.406 73.374 408.684 73.374C408.952 73.374 409.176 73.3307 409.354 73.2441C409.536 73.1621 409.673 73.0208 409.764 72.8203C409.859 72.6198 409.907 72.3509 409.907 72.0137V66.3193L410.099 64.6035ZM405.97 68.5615V68.0693C405.97 67.4678 406.027 66.9414 406.141 66.4902C406.255 66.0391 406.419 65.6631 406.633 65.3623C406.847 65.0615 407.109 64.8382 407.419 64.6924C407.733 64.542 408.084 64.4668 408.472 64.4668C408.877 64.4668 409.217 64.5557 409.49 64.7334C409.764 64.9066 409.985 65.1504 410.153 65.4648C410.326 65.7793 410.459 66.1507 410.55 66.5791C410.646 67.0075 410.718 67.4769 410.769 67.9873V68.6982C410.718 69.1813 410.636 69.6325 410.522 70.0518C410.413 70.471 410.267 70.8356 410.085 71.1455C409.903 71.4554 409.679 71.6992 409.415 71.877C409.151 72.0501 408.832 72.1367 408.458 72.1367C408.075 72.1367 407.729 72.0592 407.419 71.9043C407.114 71.7493 406.852 71.5215 406.633 71.2207C406.419 70.9154 406.255 70.5417 406.141 70.0996C406.027 69.653 405.97 69.1403 405.97 68.5615ZM407.891 68.0693V68.5615C407.891 68.9079 407.911 69.2064 407.952 69.457C407.998 69.7031 408.066 69.9059 408.157 70.0654C408.248 70.2204 408.365 70.3366 408.506 70.4141C408.652 70.487 408.823 70.5234 409.019 70.5234C409.297 70.5234 409.518 70.4596 409.682 70.332C409.85 70.1999 409.973 70.0199 410.051 69.792C410.133 69.5596 410.178 69.293 410.188 68.9922V67.7002C410.183 67.4495 410.153 67.224 410.099 67.0234C410.049 66.8229 409.978 66.652 409.887 66.5107C409.796 66.3695 409.677 66.2601 409.531 66.1826C409.39 66.1051 409.224 66.0664 409.032 66.0664C408.836 66.0664 408.668 66.1051 408.526 66.1826C408.385 66.2601 408.267 66.3809 408.171 66.5449C408.08 66.7044 408.009 66.9118 407.959 67.167C407.913 67.4176 407.891 67.7184 407.891 68.0693Z" fill="url(#paint1_linear_363_2793)"/>
<path d="M636.202 57.0469H638.198V63.8828C638.198 64.6484 638.057 65.2728 637.774 65.7559C637.496 66.2344 637.111 66.5853 636.619 66.8086C636.127 67.0273 635.564 67.1367 634.931 67.1367C634.293 67.1367 633.725 67.0273 633.229 66.8086C632.732 66.5853 632.344 66.2344 632.066 65.7559C631.793 65.2728 631.656 64.6484 631.656 63.8828V57.0469H633.652V63.8828C633.652 64.3158 633.7 64.6484 633.796 64.8809C633.896 65.1133 634.04 65.2728 634.227 65.3594C634.418 65.4414 634.653 65.4824 634.931 65.4824C635.213 65.4824 635.446 65.4414 635.628 65.3594C635.815 65.2728 635.956 65.1133 636.052 64.8809C636.152 64.6484 636.202 64.3158 636.202 63.8828V57.0469ZM632.265 55.543C632.265 55.3014 632.354 55.0964 632.531 54.9277C632.709 54.7591 632.935 54.6748 633.208 54.6748C633.481 54.6748 633.707 54.7591 633.885 54.9277C634.067 55.0964 634.158 55.3014 634.158 55.543C634.158 55.7891 634.067 55.9964 633.885 56.165C633.707 56.3291 633.481 56.4111 633.208 56.4111C632.935 56.4111 632.709 56.3291 632.531 56.165C632.354 55.9964 632.265 55.7891 632.265 55.543ZM635.601 55.5498C635.601 55.3037 635.687 55.0964 635.86 54.9277C636.038 54.7591 636.266 54.6748 636.544 54.6748C636.817 54.6748 637.043 54.7591 637.221 54.9277C637.403 55.0964 637.494 55.3037 637.494 55.5498C637.494 55.7913 637.403 55.9964 637.221 56.165C637.043 56.3291 636.817 56.4111 636.544 56.4111C636.266 56.4111 636.038 56.3291 635.86 56.165C635.687 55.9964 635.601 55.7913 635.601 55.5498ZM639.641 56.5H641.548V65.2842L641.411 67H639.641V56.5ZM645.39 63.0557V63.541C645.39 64.1426 645.342 64.6667 645.246 65.1133C645.155 65.5599 645.011 65.9336 644.815 66.2344C644.624 66.5352 644.378 66.7607 644.077 66.9111C643.776 67.0615 643.421 67.1367 643.011 67.1367C642.642 67.1367 642.325 67.0501 642.061 66.877C641.796 66.6992 641.573 66.4554 641.391 66.1455C641.213 65.8311 641.067 65.4642 640.953 65.0449C640.844 64.6211 640.764 64.1585 640.714 63.6572V62.9395C640.759 62.4473 640.837 61.9893 640.946 61.5654C641.06 61.1416 641.206 60.7747 641.384 60.4648C641.562 60.1504 641.783 59.9066 642.047 59.7334C642.316 59.5557 642.632 59.4668 642.997 59.4668C643.416 59.4668 643.776 59.5443 644.077 59.6992C644.378 59.8496 644.624 60.0752 644.815 60.376C645.011 60.6768 645.155 61.0527 645.246 61.5039C645.342 61.9505 645.39 62.4678 645.39 63.0557ZM643.482 63.541V63.0557C643.482 62.7139 643.469 62.4199 643.441 62.1738C643.414 61.9277 643.364 61.7227 643.291 61.5586C643.218 61.3945 643.113 61.2715 642.977 61.1895C642.844 61.1074 642.669 61.0664 642.45 61.0664C642.254 61.0664 642.09 61.1051 641.958 61.1826C641.826 61.2555 641.712 61.3649 641.616 61.5107C641.525 61.652 641.457 61.8206 641.411 62.0166C641.37 62.208 641.347 62.4199 641.343 62.6523V63.9443C641.347 64.2588 641.386 64.5368 641.459 64.7783C641.532 65.0199 641.648 65.2067 641.808 65.3389C641.972 65.471 642.19 65.5371 642.464 65.5371C642.678 65.5371 642.851 65.5007 642.983 65.4277C643.116 65.3548 643.218 65.2386 643.291 65.0791C643.368 64.9196 643.419 64.7145 643.441 64.4639C643.469 64.2087 643.482 63.901 643.482 63.541ZM649.546 67.1367C649.04 67.1367 648.591 67.0592 648.199 66.9043C647.812 66.7493 647.484 66.526 647.215 66.2344C646.946 65.9382 646.741 65.5804 646.6 65.1611C646.458 64.7419 646.388 64.2633 646.388 63.7256V63.1172C646.388 62.5156 646.456 61.9893 646.593 61.5381C646.729 61.0824 646.923 60.6995 647.174 60.3896C647.424 60.0798 647.732 59.8496 648.097 59.6992C648.466 59.5443 648.883 59.4668 649.348 59.4668C649.812 59.4668 650.22 59.5443 650.571 59.6992C650.927 59.8496 651.221 60.0775 651.453 60.3828C651.686 60.6836 651.861 61.0573 651.979 61.5039C652.098 61.9505 652.157 62.4701 652.157 63.0625V63.9375H647.201V62.5908H650.277V62.4199C650.277 62.1191 650.245 61.8685 650.182 61.668C650.118 61.4629 650.018 61.3102 649.881 61.21C649.744 61.1097 649.562 61.0596 649.334 61.0596C649.143 61.0596 648.981 61.0983 648.849 61.1758C648.716 61.2533 648.612 61.374 648.534 61.5381C648.457 61.7021 648.4 61.9163 648.363 62.1807C648.327 62.4404 648.309 62.7526 648.309 63.1172V63.7256C648.309 64.0674 648.338 64.3545 648.397 64.5869C648.457 64.8148 648.543 65.0016 648.657 65.1475C648.776 65.2887 648.919 65.3913 649.088 65.4551C649.257 65.5143 649.452 65.5439 649.676 65.5439C650.013 65.5439 650.316 65.4847 650.585 65.3662C650.858 65.2432 651.091 65.0768 651.282 64.8672L652.048 66.0293C651.916 66.2025 651.733 66.3757 651.501 66.5488C651.269 66.722 650.991 66.8633 650.667 66.9727C650.343 67.082 649.97 67.1367 649.546 67.1367ZM655.179 61.251V67H653.265V59.6035H655.069L655.179 61.251ZM656.922 59.5488L656.895 61.4561C656.808 61.4378 656.703 61.4242 656.58 61.415C656.462 61.4059 656.357 61.4014 656.266 61.4014C656.051 61.4014 655.869 61.4355 655.719 61.5039C655.568 61.5677 655.443 61.6657 655.343 61.7979C655.247 61.9255 655.174 62.085 655.124 62.2764C655.074 62.4678 655.044 62.6842 655.035 62.9258L654.673 62.7891C654.673 62.306 654.709 61.8639 654.782 61.4629C654.86 61.0573 654.974 60.7064 655.124 60.4102C655.274 60.1094 655.454 59.877 655.664 59.7129C655.878 59.5488 656.12 59.4668 656.389 59.4668C656.48 59.4668 656.576 59.4759 656.676 59.4941C656.781 59.5078 656.863 59.526 656.922 59.5488ZM659.813 61.0254V69.8438H657.906V59.6035H659.67L659.813 61.0254ZM663.655 63.0488V63.541C663.655 64.1198 663.605 64.6325 663.505 65.0791C663.405 65.5212 663.254 65.8971 663.054 66.207C662.858 66.5124 662.612 66.7448 662.315 66.9043C662.019 67.0592 661.673 67.1367 661.276 67.1367C660.907 67.1367 660.588 67.0501 660.319 66.877C660.055 66.6992 659.832 66.4554 659.649 66.1455C659.467 65.8356 659.321 65.4733 659.212 65.0586C659.103 64.6439 659.018 64.1995 658.959 63.7256V62.96C659.014 62.4541 659.093 61.9893 659.198 61.5654C659.303 61.137 659.447 60.7656 659.629 60.4512C659.816 60.1367 660.041 59.8952 660.306 59.7266C660.575 59.5534 660.894 59.4668 661.263 59.4668C661.664 59.4668 662.012 59.5397 662.309 59.6855C662.609 59.8314 662.858 60.0524 663.054 60.3486C663.254 60.6403 663.405 61.0117 663.505 61.4629C663.605 61.9141 663.655 62.4427 663.655 63.0488ZM661.741 63.541V63.0488C661.741 62.6934 661.721 62.3903 661.68 62.1396C661.643 61.889 661.584 61.6839 661.502 61.5244C661.42 61.3649 661.313 61.2487 661.181 61.1758C661.049 61.1029 660.887 61.0664 660.695 61.0664C660.508 61.0664 660.344 61.1029 660.203 61.1758C660.066 61.2487 659.955 61.3558 659.868 61.4971C659.782 61.6338 659.715 61.8024 659.67 62.0029C659.624 62.1989 659.599 62.4222 659.595 62.6729V64.0127C659.604 64.3089 659.643 64.571 659.711 64.7988C659.784 65.0267 659.9 65.209 660.06 65.3457C660.219 65.4779 660.436 65.5439 660.709 65.5439C660.905 65.5439 661.067 65.5029 661.194 65.4209C661.326 65.3389 661.434 65.2158 661.516 65.0518C661.598 64.8877 661.655 64.6803 661.687 64.4297C661.723 64.179 661.741 63.8828 661.741 63.541ZM666.745 61.251V67H664.831V59.6035H666.636L666.745 61.251ZM668.488 59.5488L668.461 61.4561C668.374 61.4378 668.27 61.4242 668.146 61.415C668.028 61.4059 667.923 61.4014 667.832 61.4014C667.618 61.4014 667.436 61.4355 667.285 61.5039C667.135 61.5677 667.009 61.6657 666.909 61.7979C666.813 61.9255 666.741 62.085 666.69 62.2764C666.64 62.4678 666.611 62.6842 666.602 62.9258L666.239 62.7891C666.239 62.306 666.276 61.8639 666.349 61.4629C666.426 61.0573 666.54 60.7064 666.69 60.4102C666.841 60.1094 667.021 59.877 667.23 59.7129C667.445 59.5488 667.686 59.4668 667.955 59.4668C668.046 59.4668 668.142 59.4759 668.242 59.4941C668.347 59.5078 668.429 59.526 668.488 59.5488ZM673.041 65.2227V59.6035H674.962V67H673.157L673.041 65.2227ZM673.26 63.6982L673.793 63.6846C673.793 64.1813 673.745 64.6416 673.649 65.0654C673.554 65.4847 673.41 65.8493 673.219 66.1592C673.027 66.4691 672.788 66.7106 672.501 66.8838C672.214 67.0524 671.874 67.1367 671.482 67.1367C671.182 67.1367 670.904 67.0866 670.648 66.9863C670.398 66.8815 670.181 66.7197 669.999 66.501C669.817 66.2777 669.673 65.9928 669.568 65.6465C669.468 65.2956 669.418 64.874 669.418 64.3818V59.6035H671.339V64.4023C671.339 64.6029 671.357 64.776 671.394 64.9219C671.43 65.0632 671.48 65.1794 671.544 65.2705C671.608 65.3617 671.683 65.4277 671.77 65.4688C671.856 65.5052 671.954 65.5234 672.063 65.5234C672.364 65.5234 672.601 65.446 672.774 65.291C672.952 65.1315 673.077 64.915 673.15 64.6416C673.223 64.3636 673.26 64.0492 673.26 63.6982ZM669.555 57.6621C669.555 57.4206 669.644 57.2155 669.821 57.0469C669.999 56.8783 670.225 56.7939 670.498 56.7939C670.771 56.7939 670.997 56.8783 671.175 57.0469C671.357 57.2155 671.448 57.4206 671.448 57.6621C671.448 57.9082 671.357 58.1156 671.175 58.2842C670.997 58.4482 670.771 58.5303 670.498 58.5303C670.225 58.5303 669.999 58.4482 669.821 58.2842C669.644 58.1156 669.555 57.9082 669.555 57.6621ZM672.891 57.6689C672.891 57.4229 672.977 57.2155 673.15 57.0469C673.328 56.8783 673.556 56.7939 673.834 56.7939C674.107 56.7939 674.333 56.8783 674.511 57.0469C674.693 57.2155 674.784 57.4229 674.784 57.6689C674.784 57.9105 674.693 58.1156 674.511 58.2842C674.333 58.4482 674.107 58.5303 673.834 58.5303C673.556 58.5303 673.328 58.4482 673.15 58.2842C672.977 58.1156 672.891 57.9105 672.891 57.6689ZM678.729 67H676.808V58.9609C676.808 58.3913 676.906 57.915 677.102 57.5322C677.298 57.1494 677.573 56.8577 677.929 56.6572C678.289 56.4567 678.715 56.3564 679.207 56.3564C679.367 56.3564 679.517 56.3701 679.658 56.3975C679.804 56.4202 679.945 56.4521 680.082 56.4932L680.062 58.0176C680.002 57.9993 679.932 57.9857 679.85 57.9766C679.768 57.9674 679.681 57.9629 679.59 57.9629C679.408 57.9629 679.25 58.0016 679.118 58.0791C678.991 58.1566 678.893 58.2682 678.824 58.4141C678.76 58.5599 678.729 58.7422 678.729 58.9609V67ZM679.884 59.6035V61.0459H675.905V59.6035H679.884ZM684.525 65.2227V59.6035H686.446V67H684.642L684.525 65.2227ZM684.744 63.6982L685.277 63.6846C685.277 64.1813 685.229 64.6416 685.134 65.0654C685.038 65.4847 684.895 65.8493 684.703 66.1592C684.512 66.4691 684.272 66.7106 683.985 66.8838C683.698 67.0524 683.359 67.1367 682.967 67.1367C682.666 67.1367 682.388 67.0866 682.133 66.9863C681.882 66.8815 681.666 66.7197 681.483 66.501C681.301 66.2777 681.158 65.9928 681.053 65.6465C680.952 65.2956 680.902 64.874 680.902 64.3818V59.6035H682.823V64.4023C682.823 64.6029 682.841 64.776 682.878 64.9219C682.914 65.0632 682.965 65.1794 683.028 65.2705C683.092 65.3617 683.167 65.4277 683.254 65.4688C683.34 65.5052 683.438 65.5234 683.548 65.5234C683.849 65.5234 684.086 65.446 684.259 65.291C684.437 65.1315 684.562 64.915 684.635 64.6416C684.708 64.3636 684.744 64.0492 684.744 63.6982ZM689.721 61.1826V67H687.8V59.6035H689.598L689.721 61.1826ZM689.434 63.0488L688.921 63.0625C688.912 62.5065 688.964 62.0075 689.078 61.5654C689.197 61.1234 689.363 60.7474 689.577 60.4375C689.796 60.123 690.056 59.8838 690.356 59.7197C690.662 59.5511 691.001 59.4668 691.375 59.4668C691.662 59.4668 691.924 59.5169 692.161 59.6172C692.403 59.7174 692.61 59.877 692.783 60.0957C692.956 60.3145 693.091 60.6061 693.187 60.9707C693.282 61.3307 693.33 61.7728 693.33 62.2969V67H691.409V62.2832C691.409 61.9642 691.377 61.7181 691.313 61.5449C691.25 61.3672 691.154 61.2441 691.026 61.1758C690.899 61.1029 690.739 61.0664 690.548 61.0664C690.366 61.0664 690.204 61.1188 690.062 61.2236C689.921 61.3239 689.803 61.4629 689.707 61.6406C689.616 61.8184 689.545 62.028 689.495 62.2695C689.45 62.5111 689.429 62.7708 689.434 63.0488ZM698.621 59.6035H700.357V67C700.357 67.6745 700.228 68.2259 699.968 68.6543C699.713 69.0872 699.355 69.404 698.895 69.6045C698.439 69.8096 697.906 69.9121 697.295 69.9121C697.062 69.9121 696.8 69.8802 696.509 69.8164C696.222 69.7526 695.944 69.6546 695.675 69.5225C695.406 69.3949 695.185 69.2399 695.012 69.0576L695.661 67.7314C695.839 67.9092 696.071 68.0596 696.358 68.1826C696.646 68.3102 696.928 68.374 697.206 68.374C697.475 68.374 697.698 68.3307 697.876 68.2441C698.058 68.1621 698.195 68.0208 698.286 67.8203C698.382 67.6198 698.43 67.3509 698.43 67.0137V61.3193L698.621 59.6035ZM694.492 63.5615V63.0693C694.492 62.4678 694.549 61.9414 694.663 61.4902C694.777 61.0391 694.941 60.6631 695.155 60.3623C695.369 60.0615 695.632 59.8382 695.941 59.6924C696.256 59.542 696.607 59.4668 696.994 59.4668C697.4 59.4668 697.739 59.5557 698.013 59.7334C698.286 59.9066 698.507 60.1504 698.676 60.4648C698.849 60.7793 698.981 61.1507 699.072 61.5791C699.168 62.0075 699.241 62.4769 699.291 62.9873V63.6982C699.241 64.1813 699.159 64.6325 699.045 65.0518C698.936 65.471 698.79 65.8356 698.607 66.1455C698.425 66.4554 698.202 66.6992 697.938 66.877C697.673 67.0501 697.354 67.1367 696.98 67.1367C696.598 67.1367 696.251 67.0592 695.941 66.9043C695.636 66.7493 695.374 66.5215 695.155 66.2207C694.941 65.9154 694.777 65.5417 694.663 65.0996C694.549 64.653 694.492 64.1403 694.492 63.5615ZM696.413 63.0693V63.5615C696.413 63.9079 696.434 64.2064 696.475 64.457C696.52 64.7031 696.589 64.9059 696.68 65.0654C696.771 65.2204 696.887 65.3366 697.028 65.4141C697.174 65.487 697.345 65.5234 697.541 65.5234C697.819 65.5234 698.04 65.4596 698.204 65.332C698.373 65.1999 698.496 65.0199 698.573 64.792C698.655 64.5596 698.701 64.293 698.71 63.9922V62.7002C698.705 62.4495 698.676 62.224 698.621 62.0234C698.571 61.8229 698.5 61.652 698.409 61.5107C698.318 61.3695 698.2 61.2601 698.054 61.1826C697.912 61.1051 697.746 61.0664 697.555 61.0664C697.359 61.0664 697.19 61.1051 697.049 61.1826C696.908 61.2601 696.789 61.3809 696.693 61.5449C696.602 61.7044 696.532 61.9118 696.481 62.167C696.436 62.4176 696.413 62.7184 696.413 63.0693ZM659.923 79.2227V73.6035H661.844V81H660.039L659.923 79.2227ZM660.142 77.6982L660.675 77.6846C660.675 78.1813 660.627 78.6416 660.531 79.0654C660.436 79.4847 660.292 79.8493 660.101 80.1592C659.909 80.4691 659.67 80.7106 659.383 80.8838C659.096 81.0524 658.756 81.1367 658.364 81.1367C658.063 81.1367 657.785 81.0866 657.53 80.9863C657.28 80.8815 657.063 80.7197 656.881 80.501C656.699 80.2777 656.555 79.9928 656.45 79.6465C656.35 79.2956 656.3 78.874 656.3 78.3818V73.6035H658.221V78.4023C658.221 78.6029 658.239 78.776 658.275 78.9219C658.312 79.0632 658.362 79.1794 658.426 79.2705C658.49 79.3617 658.565 79.4277 658.651 79.4688C658.738 79.5052 658.836 79.5234 658.945 79.5234C659.246 79.5234 659.483 79.446 659.656 79.291C659.834 79.1315 659.959 78.915 660.032 78.6416C660.105 78.3636 660.142 78.0492 660.142 77.6982ZM665.118 75.1826V81H663.197V73.6035H664.995L665.118 75.1826ZM664.831 77.0488L664.318 77.0625C664.309 76.5065 664.362 76.0075 664.476 75.5654C664.594 75.1234 664.76 74.7474 664.975 74.4375C665.193 74.123 665.453 73.8838 665.754 73.7197C666.059 73.5511 666.399 73.4668 666.772 73.4668C667.06 73.4668 667.322 73.5169 667.559 73.6172C667.8 73.7174 668.007 73.877 668.181 74.0957C668.354 74.3145 668.488 74.6061 668.584 74.9707C668.68 75.3307 668.728 75.7728 668.728 76.2969V81H666.807V76.2832C666.807 75.9642 666.775 75.7181 666.711 75.5449C666.647 75.3672 666.551 75.2441 666.424 75.1758C666.296 75.1029 666.137 75.0664 665.945 75.0664C665.763 75.0664 665.601 75.1188 665.46 75.2236C665.319 75.3239 665.2 75.4629 665.104 75.6406C665.013 75.8184 664.943 76.028 664.893 76.2695C664.847 76.5111 664.826 76.7708 664.831 77.0488ZM673.711 79.3662V70.5H675.632V81L673.896 81.0068L673.711 79.3662ZM669.876 77.5615V77.0693C669.876 76.4678 669.926 75.9414 670.026 75.4902C670.131 75.0391 670.286 74.6631 670.491 74.3623C670.696 74.0615 670.947 73.8382 671.243 73.6924C671.544 73.542 671.888 73.4668 672.275 73.4668C672.626 73.4668 672.934 73.5557 673.198 73.7334C673.467 73.9066 673.695 74.1504 673.882 74.4648C674.069 74.7793 674.219 75.1507 674.333 75.5791C674.447 76.0075 674.527 76.4769 674.572 76.9873V77.6982C674.518 78.1813 674.433 78.6325 674.319 79.0518C674.21 79.471 674.06 79.8356 673.868 80.1455C673.681 80.4554 673.456 80.6992 673.191 80.877C672.927 81.0501 672.619 81.1367 672.269 81.1367C671.881 81.1367 671.537 81.0592 671.236 80.9043C670.94 80.7493 670.689 80.5215 670.484 80.2207C670.284 79.9154 670.131 79.5417 670.026 79.0996C669.926 78.653 669.876 78.1403 669.876 77.5615ZM671.79 77.0693V77.5615C671.79 77.9079 671.806 78.2064 671.838 78.457C671.874 78.7031 671.931 78.9059 672.009 79.0654C672.091 79.2204 672.198 79.3366 672.33 79.4141C672.462 79.487 672.626 79.5234 672.822 79.5234C673.077 79.5234 673.285 79.4596 673.444 79.332C673.604 79.1999 673.722 79.0199 673.8 78.792C673.882 78.5596 673.927 78.293 673.937 77.9922V76.7002C673.927 76.4495 673.898 76.224 673.848 76.0234C673.798 75.8229 673.727 75.652 673.636 75.5107C673.545 75.3695 673.431 75.2601 673.294 75.1826C673.162 75.1051 673.007 75.0664 672.829 75.0664C672.638 75.0664 672.474 75.1051 672.337 75.1826C672.205 75.2601 672.1 75.3809 672.022 75.5449C671.945 75.7044 671.886 75.9118 671.845 76.167C671.808 76.4176 671.79 76.7184 671.79 77.0693ZM640.789 90.6592H638.752L638.745 89.21H640.481C640.755 89.21 640.978 89.1644 641.151 89.0732C641.329 88.9775 641.459 88.8385 641.541 88.6562C641.628 88.4694 641.671 88.2438 641.671 87.9795C641.671 87.6742 641.632 87.4303 641.555 87.248C641.477 87.0612 641.352 86.9245 641.179 86.8379C641.006 86.7513 640.78 86.708 640.502 86.708H639.436V95H637.433V85.0469H640.502C640.999 85.0469 641.443 85.1016 641.835 85.2109C642.227 85.3203 642.56 85.4867 642.833 85.71C643.106 85.9333 643.314 86.2158 643.455 86.5576C643.601 86.8994 643.674 87.3027 643.674 87.7676C643.674 88.1777 643.592 88.556 643.428 88.9023C643.264 89.2487 643.006 89.5312 642.655 89.75C642.309 89.9688 641.855 90.0918 641.295 90.1191L640.789 90.6592ZM640.721 95H638.185L638.984 93.3457H640.721C640.985 93.3457 641.199 93.2887 641.363 93.1748C641.527 93.0609 641.646 92.9082 641.719 92.7168C641.792 92.5208 641.828 92.2975 641.828 92.0469C641.828 91.7643 641.794 91.5182 641.726 91.3086C641.662 91.099 641.555 90.9395 641.404 90.8301C641.254 90.7161 641.051 90.6592 640.796 90.6592H639.073L639.087 89.21H641.179L641.65 89.7842C642.184 89.766 642.61 89.8685 642.929 90.0918C643.248 90.3105 643.476 90.5977 643.612 90.9531C643.754 91.304 643.824 91.6777 643.824 92.0742C643.824 92.7122 643.703 93.25 643.462 93.6875C643.225 94.1204 642.876 94.4486 642.416 94.6719C641.956 94.8906 641.391 95 640.721 95ZM648.179 95.1367C647.673 95.1367 647.224 95.0592 646.832 94.9043C646.445 94.7493 646.117 94.526 645.848 94.2344C645.579 93.9382 645.374 93.5804 645.232 93.1611C645.091 92.7419 645.021 92.2633 645.021 91.7256V91.1172C645.021 90.5156 645.089 89.9893 645.226 89.5381C645.362 89.0824 645.556 88.6995 645.807 88.3896C646.057 88.0798 646.365 87.8496 646.729 87.6992C647.099 87.5443 647.516 87.4668 647.98 87.4668C648.445 87.4668 648.853 87.5443 649.204 87.6992C649.56 87.8496 649.854 88.0775 650.086 88.3828C650.318 88.6836 650.494 89.0573 650.612 89.5039C650.731 89.9505 650.79 90.4701 650.79 91.0625V91.9375H645.834V90.5908H648.91V90.4199C648.91 90.1191 648.878 89.8685 648.814 89.668C648.751 89.4629 648.65 89.3102 648.514 89.21C648.377 89.1097 648.195 89.0596 647.967 89.0596C647.775 89.0596 647.614 89.0983 647.481 89.1758C647.349 89.2533 647.244 89.374 647.167 89.5381C647.09 89.7021 647.033 89.9163 646.996 90.1807C646.96 90.4404 646.941 90.7526 646.941 91.1172V91.7256C646.941 92.0674 646.971 92.3545 647.03 92.5869C647.09 92.8148 647.176 93.0016 647.29 93.1475C647.409 93.2887 647.552 93.3913 647.721 93.4551C647.889 93.5143 648.085 93.5439 648.309 93.5439C648.646 93.5439 648.949 93.4847 649.218 93.3662C649.491 93.2432 649.724 93.0768 649.915 92.8672L650.681 94.0293C650.549 94.2025 650.366 94.3757 650.134 94.5488C649.901 94.722 649.623 94.8633 649.3 94.9727C648.976 95.082 648.603 95.1367 648.179 95.1367ZM656.956 93.4072V95H652.26V93.4072H656.956ZM656.908 88.7656L653.012 95H651.733V93.7969L655.609 87.6035H656.908V88.7656ZM656.238 87.6035V89.1963H651.809V87.6035H656.238ZM661.488 93.2979V89.8799C661.488 89.6566 661.461 89.4788 661.406 89.3467C661.356 89.2145 661.279 89.1188 661.174 89.0596C661.074 88.9958 660.951 88.9639 660.805 88.9639C660.641 88.9639 660.504 88.998 660.395 89.0664C660.285 89.1348 660.203 89.2327 660.148 89.3604C660.098 89.488 660.073 89.6406 660.073 89.8184H658.152C658.152 89.4993 658.214 89.1986 658.337 88.916C658.46 88.6289 658.64 88.3783 658.877 88.1641C659.118 87.9453 659.406 87.7744 659.738 87.6514C660.071 87.5283 660.445 87.4668 660.859 87.4668C661.352 87.4668 661.789 87.5511 662.172 87.7197C662.555 87.8838 662.858 88.1458 663.081 88.5059C663.304 88.8659 663.416 89.333 663.416 89.9072V93.2021C663.416 93.6169 663.437 93.9541 663.478 94.2139C663.523 94.4736 663.589 94.6969 663.676 94.8838V95H661.748C661.661 94.7949 661.595 94.5397 661.55 94.2344C661.509 93.9245 661.488 93.6123 661.488 93.2979ZM661.721 90.4814L661.728 91.6299H661.023C660.841 91.6299 660.682 91.6595 660.545 91.7188C660.413 91.778 660.301 91.8623 660.21 91.9717C660.119 92.0765 660.05 92.1995 660.005 92.3408C659.964 92.4821 659.943 92.6325 659.943 92.792C659.943 92.9697 659.968 93.1201 660.019 93.2432C660.069 93.3662 660.144 93.4596 660.244 93.5234C660.344 93.5872 660.463 93.6191 660.6 93.6191C660.809 93.6191 660.992 93.5758 661.146 93.4893C661.301 93.4027 661.415 93.2979 661.488 93.1748C661.566 93.0518 661.591 92.9378 661.563 92.833L662.001 93.5781C661.946 93.7467 661.871 93.9222 661.775 94.1045C661.684 94.2868 661.568 94.4554 661.427 94.6104C661.285 94.7653 661.11 94.8929 660.9 94.9932C660.695 95.0889 660.451 95.1367 660.169 95.1367C659.772 95.1367 659.41 95.0456 659.082 94.8633C658.754 94.681 658.494 94.4258 658.303 94.0977C658.116 93.7695 658.022 93.3799 658.022 92.9287C658.022 92.555 658.082 92.2178 658.2 91.917C658.323 91.6117 658.506 91.3542 658.747 91.1445C658.989 90.9303 659.294 90.7663 659.663 90.6523C660.032 90.5384 660.465 90.4814 660.962 90.4814H661.721ZM666.697 84.5V95H664.783V84.5H666.697ZM666.424 91.0488L665.904 91.0625C665.904 90.543 665.957 90.0645 666.062 89.627C666.171 89.1895 666.328 88.8089 666.533 88.4854C666.738 88.1618 666.987 87.9111 667.278 87.7334C667.575 87.5557 667.9 87.4668 668.256 87.4668C668.561 87.4668 668.839 87.5192 669.09 87.624C669.34 87.7288 669.557 87.8929 669.739 88.1162C669.926 88.3395 670.07 88.6335 670.17 88.998C670.27 89.3626 670.32 89.807 670.32 90.3311V95H668.399V90.3174C668.399 89.9984 668.368 89.7477 668.304 89.5654C668.24 89.3831 668.144 89.2555 668.017 89.1826C667.889 89.1051 667.729 89.0664 667.538 89.0664C667.333 89.0664 667.158 89.1188 667.012 89.2236C666.87 89.3239 666.757 89.4629 666.67 89.6406C666.583 89.8184 666.52 90.028 666.479 90.2695C666.442 90.5111 666.424 90.7708 666.424 91.0488ZM673.731 84.5V95H671.811V84.5H673.731ZM678.824 93.2227V87.6035H680.745V95H678.94L678.824 93.2227ZM679.043 91.6982L679.576 91.6846C679.576 92.1813 679.528 92.6416 679.433 93.0654C679.337 93.4847 679.193 93.8493 679.002 94.1592C678.811 94.4691 678.571 94.7106 678.284 94.8838C677.997 95.0524 677.658 95.1367 677.266 95.1367C676.965 95.1367 676.687 95.0866 676.432 94.9863C676.181 94.8815 675.965 94.7197 675.782 94.501C675.6 94.2777 675.456 93.9928 675.352 93.6465C675.251 93.2956 675.201 92.874 675.201 92.3818V87.6035H677.122V92.4023C677.122 92.6029 677.14 92.776 677.177 92.9219C677.213 93.0632 677.263 93.1794 677.327 93.2705C677.391 93.3617 677.466 93.4277 677.553 93.4688C677.639 93.5052 677.737 93.5234 677.847 93.5234C678.147 93.5234 678.384 93.446 678.558 93.291C678.735 93.1315 678.861 92.915 678.934 92.6416C679.007 92.3636 679.043 92.0492 679.043 91.6982ZM684.02 89.1826V95H682.099V87.6035H683.896L684.02 89.1826ZM683.732 91.0488L683.22 91.0625C683.211 90.5065 683.263 90.0075 683.377 89.5654C683.495 89.1234 683.662 88.7474 683.876 88.4375C684.095 88.123 684.354 87.8838 684.655 87.7197C684.961 87.5511 685.3 87.4668 685.674 87.4668C685.961 87.4668 686.223 87.5169 686.46 87.6172C686.701 87.7174 686.909 87.877 687.082 88.0957C687.255 88.3145 687.39 88.6061 687.485 88.9707C687.581 89.3307 687.629 89.7728 687.629 90.2969V95H685.708V90.2832C685.708 89.9642 685.676 89.7181 685.612 89.5449C685.549 89.3672 685.453 89.2441 685.325 89.1758C685.198 89.1029 685.038 89.0664 684.847 89.0664C684.664 89.0664 684.503 89.1188 684.361 89.2236C684.22 89.3239 684.102 89.4629 684.006 89.6406C683.915 89.8184 683.844 90.028 683.794 90.2695C683.748 90.5111 683.728 90.7708 683.732 91.0488ZM692.92 87.6035H694.656V95C694.656 95.6745 694.526 96.2259 694.267 96.6543C694.011 97.0872 693.654 97.404 693.193 97.6045C692.738 97.8096 692.204 97.9121 691.594 97.9121C691.361 97.9121 691.099 97.8802 690.808 97.8164C690.521 97.7526 690.243 97.6546 689.974 97.5225C689.705 97.3949 689.484 97.2399 689.311 97.0576L689.96 95.7314C690.138 95.9092 690.37 96.0596 690.657 96.1826C690.944 96.3102 691.227 96.374 691.505 96.374C691.774 96.374 691.997 96.3307 692.175 96.2441C692.357 96.1621 692.494 96.0208 692.585 95.8203C692.681 95.6198 692.729 95.3509 692.729 95.0137V89.3193L692.92 87.6035ZM688.791 91.5615V91.0693C688.791 90.4678 688.848 89.9414 688.962 89.4902C689.076 89.0391 689.24 88.6631 689.454 88.3623C689.668 88.0615 689.93 87.8382 690.24 87.6924C690.555 87.542 690.906 87.4668 691.293 87.4668C691.699 87.4668 692.038 87.5557 692.312 87.7334C692.585 87.9066 692.806 88.1504 692.975 88.4648C693.148 88.7793 693.28 89.1507 693.371 89.5791C693.467 90.0075 693.54 90.4769 693.59 90.9873V91.6982C693.54 92.1813 693.458 92.6325 693.344 93.0518C693.234 93.471 693.089 93.8356 692.906 94.1455C692.724 94.4554 692.501 94.6992 692.236 94.877C691.972 95.0501 691.653 95.1367 691.279 95.1367C690.896 95.1367 690.55 95.0592 690.24 94.9043C689.935 94.7493 689.673 94.5215 689.454 94.2207C689.24 93.9154 689.076 93.5417 688.962 93.0996C688.848 92.653 688.791 92.1403 688.791 91.5615ZM690.712 91.0693V91.5615C690.712 91.9079 690.732 92.2064 690.773 92.457C690.819 92.7031 690.887 92.9059 690.979 93.0654C691.07 93.2204 691.186 93.3366 691.327 93.4141C691.473 93.487 691.644 93.5234 691.84 93.5234C692.118 93.5234 692.339 93.4596 692.503 93.332C692.672 93.1999 692.795 93.0199 692.872 92.792C692.954 92.5596 693 92.293 693.009 91.9922V90.7002C693.004 90.4495 692.975 90.224 692.92 90.0234C692.87 89.8229 692.799 89.652 692.708 89.5107C692.617 89.3695 692.498 89.2601 692.353 89.1826C692.211 89.1051 692.045 89.0664 691.854 89.0664C691.658 89.0664 691.489 89.1051 691.348 89.1826C691.206 89.2601 691.088 89.3809 690.992 89.5449C690.901 89.7044 690.83 89.9118 690.78 90.167C690.735 90.4176 690.712 90.7184 690.712 91.0693Z" fill="url(#paint2_linear_363_2793)"/>
<path fill-rule="evenodd" clip-rule="evenodd" d="M343 33H50V31H343V33Z" fill="url(#paint3_linear_363_2793)"/>
<path fill-rule="evenodd" clip-rule="evenodd" d="M652 33H371V31H652V33Z" fill="url(#paint4_linear_363_2793)"/>
<g filter="url(#filter0_d_363_2793)">
<path d="M36 17C27.7125 17 21 23.7125 21 32C21 34.8125 21.7875 37.475 23.175 39.725C24.497 41.9468 26.3748 43.7861 28.6236 45.0617C30.8724 46.3373 33.4146 47.0053 36 47C41.475 47 46.2375 44.075 48.825 39.725C50.2125 37.475 51 34.8125 51 32C51 23.7125 44.2875 17 36 17ZM43.3875 30.7625L35.4 38.15C34.875 38.6375 34.1625 38.9 33.4875 38.9C32.775 38.9 32.0625 38.6375 31.5 38.075L27.7875 34.3625C27.2644 33.8332 26.9711 33.1191 26.9711 32.375C26.9711 31.6309 27.2644 30.9168 27.7875 30.3875C28.875 29.3 30.675 29.3 31.7625 30.3875L33.5625 32.1875L39.5625 26.6375C40.6875 25.5875 42.4875 25.6625 43.5375 26.7875C44.5875 27.9125 44.5125 29.7125 43.3875 30.7625Z" fill="url(#paint5_linear_363_2793)"/>
</g>
<g filter="url(#filter1_d_363_2793)">
<path d="M357 17C348.712 17 342 23.7125 342 32C342 34.8125 342.788 37.475 344.175 39.725C345.497 41.9468 347.375 43.7861 349.624 45.0617C351.872 46.3373 354.415 47.0053 357 47C362.475 47 367.238 44.075 369.825 39.725C371.213 37.475 372 34.8125 372 32C372 23.7125 365.288 17 357 17ZM364.387 30.7625L356.4 38.15C355.875 38.6375 355.162 38.9 354.487 38.9C353.775 38.9 353.062 38.6375 352.5 38.075L348.787 34.3625C348.264 33.8332 347.971 33.1191 347.971 32.375C347.971 31.6309 348.264 30.9168 348.787 30.3875C349.875 29.3 351.675 29.3 352.762 30.3875L354.562 32.1875L360.562 26.6375C361.687 25.5875 363.488 25.6625 364.538 26.7875C365.588 27.9125 365.512 29.7125 364.387 30.7625Z" fill="url(#paint6_linear_363_2793)"/>
</g>
<g filter="url(#filter2_d_363_2793)">
<path d="M664 17C655.712 17 649 23.7125 649 32C649 34.8125 649.788 37.475 651.175 39.725C652.497 41.9468 654.375 43.7861 656.624 45.0617C658.872 46.3373 661.415 47.0053 664 47C669.475 47 674.238 44.075 676.825 39.725C678.213 37.475 679 34.8125 679 32C679 23.7125 672.288 17 664 17ZM671.387 30.7625L663.4 38.15C662.875 38.6375 662.162 38.9 661.487 38.9C660.775 38.9 660.062 38.6375 659.5 38.075L655.787 34.3625C655.264 33.8332 654.971 33.1191 654.971 32.375C654.971 31.6309 655.264 30.9168 655.787 30.3875C656.875 29.3 658.675 29.3 659.762 30.3875L661.562 32.1875L667.562 26.6375C668.687 25.5875 670.488 25.6625 671.538 26.7875C672.588 27.9125 672.512 29.7125 671.387 30.7625Z" fill="url(#paint7_linear_363_2793)"/>
</g>
<defs>
<filter id="filter0_d_363_2793" x="4" y="0" width="74" height="74" filterUnits="userSpaceOnUse" color-interpolation-filters="sRGB">
<feFlood flood-opacity="0" result="BackgroundImageFix"/>
<feColorMatrix in="SourceAlpha" type="matrix" values="0 0 0 0 0 0 0 0 0 0 0 0 0 0 0 0 0 0 127 0" result="hardAlpha"/>
<feOffset dx="5" dy="5"/>
<feGaussianBlur stdDeviation="11"/>
<feComposite in2="hardAlpha" operator="out"/>
<feColorMatrix type="matrix" values="0 0 0 0 0.0392157 0 0 0 0 0.560784 0 0 0 0 0.309804 0 0 0 0.2 0"/>
<feBlend mode="normal" in2="BackgroundImageFix" result="effect1_dropShadow_363_2793"/>
<feBlend mode="normal" in="SourceGraphic" in2="effect1_dropShadow_363_2793" result="shape"/>
</filter>
<filter id="filter1_d_363_2793" x="325" y="0" width="74" height="74" filterUnits="userSpaceOnUse" color-interpolation-filters="sRGB">
<feFlood flood-opacity="0" result="BackgroundImageFix"/>
<feColorMatrix in="SourceAlpha" type="matrix" values="0 0 0 0 0 0 0 0 0 0 0 0 0 0 0 0 0 0 127 0" result="hardAlpha"/>
<feOffset dx="5" dy="5"/>
<feGaussianBlur stdDeviation="11"/>
<feComposite in2="hardAlpha" operator="out"/>
<feColorMatrix type="matrix" values="0 0 0 0 0.0392157 0 0 0 0 0.560784 0 0 0 0 0.309804 0 0 0 0.2 0"/>
<feBlend mode="normal" in2="BackgroundImageFix" result="effect1_dropShadow_363_2793"/>
<feBlend mode="normal" in="SourceGraphic" in2="effect1_dropShadow_363_2793" result="shape"/>
</filter>
<filter id="filter2_d_363_2793" x="632" y="0" width="74" height="74" filterUnits="userSpaceOnUse" color-interpolation-filters="sRGB">
<feFlood flood-opacity="0" result="BackgroundImageFix"/>
<feColorMatrix in="SourceAlpha" type="matrix" values="0 0 0 0 0 0 0 0 0 0 0 0 0 0 0 0 0 0 127 0" result="hardAlpha"/>
<feOffset dx="5" dy="5"/>
<feGaussianBlur stdDeviation="11"/>
<feComposite in2="hardAlpha" operator="out"/>
<feColorMatrix type="matrix" values="0 0 0 0 0.0392157 0 0 0 0 0.560784 0 0 0 0 0.309804 0 0 0 0.2 0"/>
<feBlend mode="normal" in2="BackgroundImageFix" result="effect1_dropShadow_363_2793"/>
<feBlend mode="normal" in="SourceGraphic" in2="effect1_dropShadow_363_2793" result="shape"/>
</filter>
<linearGradient id="paint0_linear_363_2793" x1="36" y1="77" x2="36" y2="57" gradientUnits="userSpaceOnUse">
<stop stop-color="#5CCC94"/>
<stop offset="1" stop-color="#8CCAAE"/>
</linearGradient>
<linearGradient id="paint1_linear_363_2793" x1="359" y1="77" x2="359" y2="57" gradientUnits="userSpaceOnUse">
<stop stop-color="#5CCC94"/>
<stop offset="1" stop-color="#8CCAAE"/>
</linearGradient>
<linearGradient id="paint2_linear_363_2793" x1="666" y1="97" x2="666" y2="55" gradientUnits="userSpaceOnUse">
<stop stop-color="#5CCC94"/>
<stop offset="1" stop-color="#8CCAAE"/>
</linearGradient>
<linearGradient id="paint3_linear_363_2793" x1="196.5" y1="33" x2="196.5" y2="31" gradientUnits="userSpaceOnUse">
<stop stop-color="#5CCC94"/>
<stop offset="1" stop-color="#8CCAAE"/>
</linearGradient>
<linearGradient id="paint4_linear_363_2793" x1="511.5" y1="33" x2="511.5" y2="31" gradientUnits="userSpaceOnUse">
<stop stop-color="#5CCC94"/>
<stop offset="1" stop-color="#8CCAAE"/>
</linearGradient>
<linearGradient id="paint5_linear_363_2793" x1="36" y1="47" x2="36" y2="17" gradientUnits="userSpaceOnUse">
<stop stop-color="#5CCC94"/>
<stop offset="1" stop-color="#8CCAAE"/>
</linearGradient>
<linearGradient id="paint6_linear_363_2793" x1="357" y1="47" x2="357" y2="17" gradientUnits="userSpaceOnUse">
<stop stop-color="#5CCC94"/>
<stop offset="1" stop-color="#8CCAAE"/>
</linearGradient>
<linearGradient id="paint7_linear_363_2793" x1="664" y1="47" x2="664" y2="17" gradientUnits="userSpaceOnUse">
<stop stop-color="#5CCC94"/>
<stop offset="1" stop-color="#8CCAAE"/>
</linearGradient>
</defs>
</svg>
