<svg width="1013" height="86" viewBox="0 0 1013 86" fill="none" xmlns="http://www.w3.org/2000/svg">
<path d="M17.1592 66.3818C17.1592 66.2041 17.1432 66.0423 17.1113 65.8965C17.0794 65.7507 17.0111 65.6162 16.9062 65.4932C16.806 65.3701 16.6579 65.2471 16.4619 65.124C16.2705 65.001 16.0199 64.8734 15.71 64.7412C15.3408 64.5863 14.9831 64.4222 14.6367 64.249C14.2904 64.0713 13.9782 63.8662 13.7002 63.6338C13.4222 63.4014 13.2012 63.1279 13.0371 62.8135C12.8776 62.4945 12.7979 62.1208 12.7979 61.6924C12.7979 61.2731 12.873 60.8926 13.0234 60.5508C13.1784 60.209 13.3971 59.9173 13.6797 59.6758C13.9622 59.4297 14.2926 59.2406 14.6709 59.1084C15.0537 58.9762 15.4798 58.9102 15.9492 58.9102C16.5872 58.9102 17.1387 59.0423 17.6035 59.3066C18.0729 59.571 18.4352 59.9333 18.6904 60.3936C18.9502 60.8538 19.0801 61.3825 19.0801 61.9795H17.084C17.084 61.6969 17.043 61.4486 16.9609 61.2344C16.8835 61.0156 16.7581 60.8447 16.585 60.7217C16.4118 60.5986 16.1885 60.5371 15.915 60.5371C15.6598 60.5371 15.4479 60.5895 15.2793 60.6943C15.1152 60.7946 14.9922 60.9336 14.9102 61.1113C14.8327 61.2845 14.7939 61.4805 14.7939 61.6992C14.7939 61.8633 14.8327 62.0114 14.9102 62.1436C14.9922 62.2712 15.1038 62.3874 15.2451 62.4922C15.3864 62.5924 15.5527 62.6904 15.7441 62.7861C15.9401 62.8818 16.1543 62.9753 16.3867 63.0664C16.8379 63.2441 17.2367 63.4401 17.583 63.6543C17.9294 63.8639 18.2188 64.1009 18.4512 64.3652C18.6836 64.625 18.859 64.9189 18.9775 65.2471C19.096 65.5752 19.1553 65.9489 19.1553 66.3682C19.1553 66.7829 19.0824 67.1611 18.9365 67.5029C18.7952 67.8402 18.5879 68.1318 18.3145 68.3779C18.041 68.6195 17.7106 68.8063 17.3232 68.9385C16.9404 69.0706 16.512 69.1367 16.0381 69.1367C15.5778 69.1367 15.1426 69.0729 14.7324 68.9453C14.3223 68.8132 13.96 68.6149 13.6455 68.3506C13.3356 68.0817 13.0918 67.7422 12.9141 67.332C12.7363 66.9173 12.6475 66.4274 12.6475 65.8623H14.6504C14.6504 66.1631 14.68 66.4206 14.7393 66.6348C14.7985 66.8444 14.8896 67.013 15.0127 67.1406C15.1357 67.2637 15.2861 67.3571 15.4639 67.4209C15.6462 67.4801 15.8535 67.5098 16.0859 67.5098C16.3503 67.5098 16.5599 67.4596 16.7148 67.3594C16.8743 67.2591 16.9883 67.1247 17.0566 66.9561C17.125 66.7874 17.1592 66.596 17.1592 66.3818ZM23.6396 61.6035V63.0459H19.8662V61.6035H23.6396ZM20.7344 59.7783H22.6416V66.7441C22.6416 66.9492 22.6621 67.1064 22.7031 67.2158C22.7441 67.3252 22.8057 67.4027 22.8877 67.4482C22.9743 67.4893 23.0882 67.5098 23.2295 67.5098C23.3252 67.5098 23.4141 67.5052 23.4961 67.4961C23.5781 67.4824 23.6396 67.4688 23.6807 67.4551V68.9521C23.5303 69.0114 23.3708 69.057 23.2021 69.0889C23.0381 69.1208 22.8421 69.1367 22.6143 69.1367C22.2314 69.1367 21.8988 69.0638 21.6162 68.918C21.3382 68.7721 21.1217 68.5397 20.9668 68.2207C20.8118 67.8971 20.7344 67.4733 20.7344 66.9492V59.7783ZM26.7158 61.6035V69H24.7949V61.6035H26.7158ZM24.7061 59.6895C24.7061 59.3932 24.7995 59.1494 24.9863 58.958C25.1777 58.762 25.4329 58.6641 25.752 58.6641C26.0755 58.6641 26.3307 58.762 26.5176 58.958C26.7044 59.1494 26.7979 59.3932 26.7979 59.6895C26.7979 59.9811 26.7021 60.2249 26.5107 60.4209C26.3239 60.6123 26.0732 60.708 25.7588 60.708C25.4352 60.708 25.1777 60.6123 24.9863 60.4209C24.7995 60.2249 24.7061 59.9811 24.7061 59.6895ZM30.9062 67.5439C31.084 67.5439 31.2367 67.5075 31.3643 67.4346C31.4964 67.3617 31.5967 67.2432 31.665 67.0791C31.7334 66.915 31.7699 66.7031 31.7744 66.4434H33.5723C33.5723 66.9993 33.4538 67.4801 33.2168 67.8857C32.9844 68.2868 32.6699 68.5967 32.2734 68.8154C31.8815 69.0296 31.4372 69.1367 30.9404 69.1367C30.4437 69.1367 30.0107 69.057 29.6416 68.8975C29.2725 68.738 28.9671 68.5055 28.7256 68.2002C28.4886 67.8949 28.3086 67.5234 28.1855 67.0859C28.0671 66.6439 28.0078 66.138 28.0078 65.5684V65.0283C28.0078 64.4678 28.0671 63.9665 28.1855 63.5244C28.3086 63.0824 28.4886 62.7087 28.7256 62.4033C28.9671 62.098 29.2702 61.8656 29.6348 61.7061C30.0039 61.5465 30.4368 61.4668 30.9336 61.4668C31.4668 61.4668 31.9294 61.5785 32.3213 61.8018C32.7132 62.0205 33.0186 62.3441 33.2373 62.7725C33.4606 63.2008 33.5723 63.7295 33.5723 64.3584H31.7744C31.7699 64.0758 31.7357 63.8411 31.6719 63.6543C31.6126 63.4629 31.5192 63.3171 31.3916 63.2168C31.2686 63.112 31.1045 63.0596 30.8994 63.0596C30.6852 63.0596 30.512 63.1051 30.3799 63.1963C30.2523 63.2829 30.1543 63.4105 30.0859 63.5791C30.0221 63.7432 29.9788 63.9482 29.9561 64.1943C29.9333 64.4404 29.9219 64.7184 29.9219 65.0283V65.5684C29.9219 65.901 29.931 66.1904 29.9492 66.4365C29.972 66.6781 30.0153 66.8831 30.0791 67.0518C30.1475 67.2158 30.2454 67.3389 30.373 67.4209C30.5052 67.5029 30.6829 67.5439 30.9062 67.5439ZM36.5869 58.4932V69H34.6729V58.4932H36.5869ZM40.4766 61.6035L37.8721 65.2812L36.3066 67.0381L35.6299 65.582L36.833 63.8252L38.1934 61.6035H40.4766ZM38.4805 69L36.8672 65.6025L38.1865 64.3857L40.6748 69H38.4805ZM44.2158 69.1367C43.71 69.1367 43.2611 69.0592 42.8691 68.9043C42.4818 68.7493 42.1536 68.526 41.8848 68.2344C41.6159 67.9382 41.4108 67.5804 41.2695 67.1611C41.1283 66.7419 41.0576 66.2633 41.0576 65.7256V65.1172C41.0576 64.5156 41.126 63.9893 41.2627 63.5381C41.3994 63.0824 41.5931 62.6995 41.8438 62.3896C42.0944 62.0798 42.402 61.8496 42.7666 61.6992C43.1357 61.5443 43.5527 61.4668 44.0176 61.4668C44.4824 61.4668 44.8903 61.5443 45.2412 61.6992C45.5967 61.8496 45.8906 62.0775 46.123 62.3828C46.3555 62.6836 46.5309 63.0573 46.6494 63.5039C46.7679 63.9505 46.8271 64.4701 46.8271 65.0625V65.9375H41.8711V64.5908H44.9473V64.4199C44.9473 64.1191 44.9154 63.8685 44.8516 63.668C44.7878 63.4629 44.6875 63.3102 44.5508 63.21C44.4141 63.1097 44.2318 63.0596 44.0039 63.0596C43.8125 63.0596 43.6507 63.0983 43.5186 63.1758C43.3864 63.2533 43.2816 63.374 43.2041 63.5381C43.1266 63.7021 43.0697 63.9163 43.0332 64.1807C42.9967 64.4404 42.9785 64.7526 42.9785 65.1172V65.7256C42.9785 66.0674 43.0081 66.3545 43.0674 66.5869C43.1266 66.8148 43.2132 67.0016 43.3271 67.1475C43.4456 67.2887 43.5892 67.3913 43.7578 67.4551C43.9264 67.5143 44.1224 67.5439 44.3457 67.5439C44.6829 67.5439 44.986 67.4847 45.2549 67.3662C45.5283 67.2432 45.7607 67.0768 45.9521 66.8672L46.7178 68.0293C46.5856 68.2025 46.4033 68.3757 46.1709 68.5488C45.9385 68.722 45.6605 68.8633 45.3369 68.9727C45.0133 69.082 44.6396 69.1367 44.2158 69.1367ZM49.8486 63.251V69H47.9346V61.6035H49.7393L49.8486 63.251ZM51.5918 61.5488L51.5645 63.4561C51.4779 63.4378 51.373 63.4242 51.25 63.415C51.1315 63.4059 51.0267 63.4014 50.9355 63.4014C50.7214 63.4014 50.5391 63.4355 50.3887 63.5039C50.2383 63.5677 50.113 63.6657 50.0127 63.7979C49.917 63.9255 49.8441 64.085 49.7939 64.2764C49.7438 64.4678 49.7142 64.6842 49.7051 64.9258L49.3428 64.7891C49.3428 64.306 49.3792 63.8639 49.4521 63.4629C49.5296 63.0573 49.6436 62.7064 49.7939 62.4102C49.9443 62.1094 50.1243 61.877 50.334 61.7129C50.5482 61.5488 50.7897 61.4668 51.0586 61.4668C51.1497 61.4668 51.2454 61.4759 51.3457 61.4941C51.4505 61.5078 51.5326 61.526 51.5918 61.5488ZM23.8584 75.6035V77.0459H20.085V75.6035H23.8584ZM20.9531 73.7783H22.8604V80.7441C22.8604 80.9492 22.8809 81.1064 22.9219 81.2158C22.9629 81.3252 23.0244 81.4027 23.1064 81.4482C23.193 81.4893 23.307 81.5098 23.4482 81.5098C23.5439 81.5098 23.6328 81.5052 23.7148 81.4961C23.7969 81.4824 23.8584 81.4688 23.8994 81.4551V82.9521C23.749 83.0114 23.5895 83.057 23.4209 83.0889C23.2568 83.1208 23.0609 83.1367 22.833 83.1367C22.4502 83.1367 22.1175 83.0638 21.835 82.918C21.557 82.7721 21.3405 82.5397 21.1855 82.2207C21.0306 81.8971 20.9531 81.4733 20.9531 80.9492V73.7783ZM26.7842 82.1523L28.3291 75.6035H30.3252L27.8916 84.1074C27.8369 84.2943 27.7617 84.4948 27.666 84.709C27.5703 84.9277 27.4427 85.1328 27.2832 85.3242C27.1283 85.5202 26.9323 85.6797 26.6953 85.8027C26.4583 85.9258 26.1735 85.9873 25.8408 85.9873C25.6722 85.9873 25.5355 85.9759 25.4307 85.9531C25.3304 85.9349 25.2028 85.903 25.0479 85.8574V84.3672C25.0889 84.3672 25.1276 84.3672 25.1641 84.3672C25.2051 84.3717 25.2438 84.374 25.2803 84.374C25.4945 84.374 25.6654 84.3444 25.793 84.2852C25.9206 84.2305 26.0231 84.1439 26.1006 84.0254C26.1826 83.9069 26.251 83.7588 26.3057 83.5811L26.7842 82.1523ZM26.3877 75.6035L27.5361 80.9082L27.7959 83.0684L26.5039 83.1914L24.3369 75.6035H26.3877ZM33.0732 77.0254V85.8438H31.166V75.6035H32.9297L33.0732 77.0254ZM36.915 79.0488V79.541C36.915 80.1198 36.8649 80.6325 36.7646 81.0791C36.6644 81.5212 36.514 81.8971 36.3135 82.207C36.1175 82.5124 35.8714 82.7448 35.5752 82.9043C35.279 83.0592 34.9326 83.1367 34.5361 83.1367C34.167 83.1367 33.848 83.0501 33.5791 82.877C33.3148 82.6992 33.0915 82.4554 32.9092 82.1455C32.7269 81.8356 32.5811 81.4733 32.4717 81.0586C32.3623 80.6439 32.278 80.1995 32.2188 79.7256V78.96C32.2734 78.4541 32.3532 77.9893 32.458 77.5654C32.5628 77.137 32.7064 76.7656 32.8887 76.4512C33.0755 76.1367 33.3011 75.8952 33.5654 75.7266C33.8343 75.5534 34.1533 75.4668 34.5225 75.4668C34.9235 75.4668 35.2721 75.5397 35.5684 75.6855C35.8691 75.8314 36.1175 76.0524 36.3135 76.3486C36.514 76.6403 36.6644 77.0117 36.7646 77.4629C36.8649 77.9141 36.915 78.4427 36.915 79.0488ZM35.001 79.541V79.0488C35.001 78.6934 34.9805 78.3903 34.9395 78.1396C34.903 77.889 34.8438 77.6839 34.7617 77.5244C34.6797 77.3649 34.5726 77.2487 34.4404 77.1758C34.3083 77.1029 34.1465 77.0664 33.9551 77.0664C33.7682 77.0664 33.6042 77.1029 33.4629 77.1758C33.3262 77.2487 33.2145 77.3558 33.1279 77.4971C33.0413 77.6338 32.9753 77.8024 32.9297 78.0029C32.8841 78.1989 32.859 78.4222 32.8545 78.6729V80.0127C32.8636 80.3089 32.9023 80.571 32.9707 80.7988C33.0436 81.0267 33.1598 81.209 33.3193 81.3457C33.4788 81.4779 33.6953 81.5439 33.9688 81.5439C34.1647 81.5439 34.3265 81.5029 34.4541 81.4209C34.5863 81.3389 34.6934 81.2158 34.7754 81.0518C34.8574 80.8877 34.9144 80.6803 34.9463 80.4297C34.9827 80.179 35.001 79.8828 35.001 79.541ZM41.0713 83.1367C40.5654 83.1367 40.1165 83.0592 39.7246 82.9043C39.3372 82.7493 39.0091 82.526 38.7402 82.2344C38.4714 81.9382 38.2663 81.5804 38.125 81.1611C37.9837 80.7419 37.9131 80.2633 37.9131 79.7256V79.1172C37.9131 78.5156 37.9814 77.9893 38.1182 77.5381C38.2549 77.0824 38.4486 76.6995 38.6992 76.3896C38.9499 76.0798 39.2575 75.8496 39.6221 75.6992C39.9912 75.5443 40.4082 75.4668 40.873 75.4668C41.3379 75.4668 41.7458 75.5443 42.0967 75.6992C42.4521 75.8496 42.7461 76.0775 42.9785 76.3828C43.2109 76.6836 43.3864 77.0573 43.5049 77.5039C43.6234 77.9505 43.6826 78.4701 43.6826 79.0625V79.9375H38.7266V78.5908H41.8027V78.4199C41.8027 78.1191 41.7708 77.8685 41.707 77.668C41.6432 77.4629 41.543 77.3102 41.4062 77.21C41.2695 77.1097 41.0872 77.0596 40.8594 77.0596C40.668 77.0596 40.5062 77.0983 40.374 77.1758C40.2419 77.2533 40.137 77.374 40.0596 77.5381C39.9821 77.7021 39.9251 77.9163 39.8887 78.1807C39.8522 78.4404 39.834 78.7526 39.834 79.1172V79.7256C39.834 80.0674 39.8636 80.3545 39.9229 80.5869C39.9821 80.8148 40.0687 81.0016 40.1826 81.1475C40.3011 81.2887 40.4447 81.3913 40.6133 81.4551C40.7819 81.5143 40.9779 81.5439 41.2012 81.5439C41.5384 81.5439 41.8415 81.4847 42.1104 81.3662C42.3838 81.2432 42.6162 81.0768 42.8076 80.8672L43.5732 82.0293C43.4411 82.2025 43.2588 82.3757 43.0264 82.5488C42.7939 82.722 42.516 82.8633 42.1924 82.9727C41.8688 83.082 41.4951 83.1367 41.0713 83.1367Z" fill="url(#paint0_linear_1405_1311)"/>
<path d="M295.701 70.3457V72H291.565V70.3457H295.701ZM292.181 62.0469V72H290.178V62.0469H292.181ZM298.791 64.6035V72H296.87V64.6035H298.791ZM296.781 62.6895C296.781 62.3932 296.875 62.1494 297.062 61.958C297.253 61.762 297.508 61.6641 297.827 61.6641C298.151 61.6641 298.406 61.762 298.593 61.958C298.78 62.1494 298.873 62.3932 298.873 62.6895C298.873 62.9811 298.777 63.2249 298.586 63.4209C298.399 63.6123 298.148 63.708 297.834 63.708C297.51 63.708 297.253 63.6123 297.062 63.4209C296.875 63.2249 296.781 62.9811 296.781 62.6895ZM302.981 70.5439C303.159 70.5439 303.312 70.5075 303.439 70.4346C303.572 70.3617 303.672 70.2432 303.74 70.0791C303.809 69.915 303.845 69.7031 303.85 69.4434H305.647C305.647 69.9993 305.529 70.4801 305.292 70.8857C305.06 71.2868 304.745 71.5967 304.349 71.8154C303.957 72.0296 303.512 72.1367 303.016 72.1367C302.519 72.1367 302.086 72.057 301.717 71.8975C301.348 71.738 301.042 71.5055 300.801 71.2002C300.564 70.8949 300.384 70.5234 300.261 70.0859C300.142 69.6439 300.083 69.138 300.083 68.5684V68.0283C300.083 67.4678 300.142 66.9665 300.261 66.5244C300.384 66.0824 300.564 65.7087 300.801 65.4033C301.042 65.098 301.345 64.8656 301.71 64.7061C302.079 64.5465 302.512 64.4668 303.009 64.4668C303.542 64.4668 304.005 64.5785 304.396 64.8018C304.788 65.0205 305.094 65.3441 305.312 65.7725C305.536 66.2008 305.647 66.7295 305.647 67.3584H303.85C303.845 67.0758 303.811 66.8411 303.747 66.6543C303.688 66.4629 303.594 66.3171 303.467 66.2168C303.344 66.112 303.18 66.0596 302.975 66.0596C302.76 66.0596 302.587 66.1051 302.455 66.1963C302.327 66.2829 302.229 66.4105 302.161 66.5791C302.097 66.7432 302.054 66.9482 302.031 67.1943C302.008 67.4404 301.997 67.7184 301.997 68.0283V68.5684C301.997 68.901 302.006 69.1904 302.024 69.4365C302.047 69.6781 302.09 69.8831 302.154 70.0518C302.223 70.2158 302.321 70.3389 302.448 70.4209C302.58 70.5029 302.758 70.5439 302.981 70.5439ZM309.729 72.1367C309.223 72.1367 308.774 72.0592 308.382 71.9043C307.994 71.7493 307.666 71.526 307.397 71.2344C307.129 70.9382 306.924 70.5804 306.782 70.1611C306.641 69.7419 306.57 69.2633 306.57 68.7256V68.1172C306.57 67.5156 306.639 66.9893 306.775 66.5381C306.912 66.0824 307.106 65.6995 307.356 65.3896C307.607 65.0798 307.915 64.8496 308.279 64.6992C308.648 64.5443 309.065 64.4668 309.53 64.4668C309.995 64.4668 310.403 64.5443 310.754 64.6992C311.109 64.8496 311.403 65.0775 311.636 65.3828C311.868 65.6836 312.044 66.0573 312.162 66.5039C312.281 66.9505 312.34 67.4701 312.34 68.0625V68.9375H307.384V67.5908H310.46V67.4199C310.46 67.1191 310.428 66.8685 310.364 66.668C310.3 66.4629 310.2 66.3102 310.063 66.21C309.927 66.1097 309.744 66.0596 309.517 66.0596C309.325 66.0596 309.163 66.0983 309.031 66.1758C308.899 66.2533 308.794 66.374 308.717 66.5381C308.639 66.7021 308.582 66.9163 308.546 67.1807C308.509 67.4404 308.491 67.7526 308.491 68.1172V68.7256C308.491 69.0674 308.521 69.3545 308.58 69.5869C308.639 69.8148 308.726 70.0016 308.84 70.1475C308.958 70.2887 309.102 70.3913 309.271 70.4551C309.439 70.5143 309.635 70.5439 309.858 70.5439C310.196 70.5439 310.499 70.4847 310.768 70.3662C311.041 70.2432 311.273 70.0768 311.465 69.8672L312.23 71.0293C312.098 71.2025 311.916 71.3757 311.684 71.5488C311.451 71.722 311.173 71.8633 310.85 71.9727C310.526 72.082 310.152 72.1367 309.729 72.1367ZM315.327 66.1826V72H313.406V64.6035H315.204L315.327 66.1826ZM315.04 68.0488L314.527 68.0625C314.518 67.5065 314.571 67.0075 314.685 66.5654C314.803 66.1234 314.969 65.7474 315.184 65.4375C315.402 65.123 315.662 64.8838 315.963 64.7197C316.268 64.5511 316.608 64.4668 316.981 64.4668C317.269 64.4668 317.531 64.5169 317.768 64.6172C318.009 64.7174 318.216 64.877 318.39 65.0957C318.563 65.3145 318.697 65.6061 318.793 65.9707C318.889 66.3307 318.937 66.7728 318.937 67.2969V72H317.016V67.2832C317.016 66.9642 316.984 66.7181 316.92 66.5449C316.856 66.3672 316.76 66.2441 316.633 66.1758C316.505 66.1029 316.346 66.0664 316.154 66.0664C315.972 66.0664 315.81 66.1188 315.669 66.2236C315.528 66.3239 315.409 66.4629 315.313 66.6406C315.222 66.8184 315.152 67.028 315.102 67.2695C315.056 67.5111 315.035 67.7708 315.04 68.0488ZM323.619 70.0039C323.619 69.8763 323.576 69.7624 323.489 69.6621C323.403 69.5618 323.266 69.4593 323.079 69.3545C322.892 69.2451 322.644 69.1243 322.334 68.9922C321.997 68.8555 321.698 68.7142 321.438 68.5684C321.179 68.4225 320.958 68.2607 320.775 68.083C320.598 67.9053 320.463 67.7025 320.372 67.4746C320.281 67.2467 320.235 66.987 320.235 66.6953C320.235 66.3809 320.292 66.0915 320.406 65.8271C320.525 65.5583 320.693 65.3236 320.912 65.123C321.131 64.918 321.397 64.7585 321.712 64.6445C322.031 64.526 322.389 64.4668 322.785 64.4668C323.341 64.4668 323.817 64.5648 324.214 64.7607C324.615 64.9521 324.923 65.221 325.137 65.5674C325.351 65.9137 325.458 66.3171 325.458 66.7773H323.544C323.544 66.6133 323.519 66.4674 323.469 66.3398C323.419 66.2077 323.337 66.1051 323.223 66.0322C323.113 65.9593 322.965 65.9229 322.778 65.9229C322.642 65.9229 322.519 65.9525 322.409 66.0117C322.304 66.071 322.22 66.1507 322.156 66.251C322.097 66.3467 322.067 66.4606 322.067 66.5928C322.067 66.693 322.088 66.7819 322.129 66.8594C322.174 66.9368 322.245 67.012 322.341 67.085C322.437 67.1579 322.564 67.2354 322.724 67.3174C322.888 67.3949 323.088 67.4814 323.325 67.5771C323.817 67.7594 324.221 67.9554 324.535 68.165C324.854 68.3747 325.091 68.6208 325.246 68.9033C325.401 69.1813 325.479 69.5254 325.479 69.9355C325.479 70.2637 325.415 70.5622 325.287 70.8311C325.164 71.0999 324.984 71.3324 324.747 71.5283C324.51 71.7243 324.225 71.8747 323.893 71.9795C323.564 72.0843 323.198 72.1367 322.792 72.1367C322.195 72.1367 321.691 72.0182 321.281 71.7812C320.871 71.5443 320.561 71.2412 320.352 70.8721C320.142 70.4984 320.037 70.111 320.037 69.71H321.855C321.865 69.9561 321.91 70.1497 321.992 70.291C322.079 70.4277 322.195 70.5234 322.341 70.5781C322.487 70.6328 322.648 70.6602 322.826 70.6602C323.004 70.6602 323.15 70.6374 323.264 70.5918C323.382 70.5417 323.471 70.4665 323.53 70.3662C323.59 70.2614 323.619 70.1406 323.619 70.0039ZM329.676 72.1367C329.17 72.1367 328.721 72.0592 328.329 71.9043C327.942 71.7493 327.614 71.526 327.345 71.2344C327.076 70.9382 326.871 70.5804 326.729 70.1611C326.588 69.7419 326.518 69.2633 326.518 68.7256V68.1172C326.518 67.5156 326.586 66.9893 326.723 66.5381C326.859 66.0824 327.053 65.6995 327.304 65.3896C327.554 65.0798 327.862 64.8496 328.227 64.6992C328.596 64.5443 329.013 64.4668 329.478 64.4668C329.942 64.4668 330.35 64.5443 330.701 64.6992C331.057 64.8496 331.351 65.0775 331.583 65.3828C331.815 65.6836 331.991 66.0573 332.109 66.5039C332.228 66.9505 332.287 67.4701 332.287 68.0625V68.9375H327.331V67.5908H330.407V67.4199C330.407 67.1191 330.375 66.8685 330.312 66.668C330.248 66.4629 330.147 66.3102 330.011 66.21C329.874 66.1097 329.692 66.0596 329.464 66.0596C329.272 66.0596 329.111 66.0983 328.979 66.1758C328.846 66.2533 328.742 66.374 328.664 66.5381C328.587 66.7021 328.53 66.9163 328.493 67.1807C328.457 67.4404 328.438 67.7526 328.438 68.1172V68.7256C328.438 69.0674 328.468 69.3545 328.527 69.5869C328.587 69.8148 328.673 70.0016 328.787 70.1475C328.906 70.2887 329.049 70.3913 329.218 70.4551C329.386 70.5143 329.582 70.5439 329.806 70.5439C330.143 70.5439 330.446 70.4847 330.715 70.3662C330.988 70.2432 331.221 70.0768 331.412 69.8672L332.178 71.0293C332.046 71.2025 331.863 71.3757 331.631 71.5488C331.398 71.722 331.12 71.8633 330.797 71.9727C330.473 72.082 330.1 72.1367 329.676 72.1367ZM338.535 66.0254V74.8438H336.628V64.6035H338.392L338.535 66.0254ZM342.377 68.0488V68.541C342.377 69.1198 342.327 69.6325 342.227 70.0791C342.126 70.5212 341.976 70.8971 341.775 71.207C341.579 71.5124 341.333 71.7448 341.037 71.9043C340.741 72.0592 340.395 72.1367 339.998 72.1367C339.629 72.1367 339.31 72.0501 339.041 71.877C338.777 71.6992 338.553 71.4554 338.371 71.1455C338.189 70.8356 338.043 70.4733 337.934 70.0586C337.824 69.6439 337.74 69.1995 337.681 68.7256V67.96C337.735 67.4541 337.815 66.9893 337.92 66.5654C338.025 66.137 338.168 65.7656 338.351 65.4512C338.537 65.1367 338.763 64.8952 339.027 64.7266C339.296 64.5534 339.615 64.4668 339.984 64.4668C340.385 64.4668 340.734 64.5397 341.03 64.6855C341.331 64.8314 341.579 65.0524 341.775 65.3486C341.976 65.6403 342.126 66.0117 342.227 66.4629C342.327 66.9141 342.377 67.4427 342.377 68.0488ZM340.463 68.541V68.0488C340.463 67.6934 340.442 67.3903 340.401 67.1396C340.365 66.889 340.306 66.6839 340.224 66.5244C340.142 66.3649 340.035 66.2487 339.902 66.1758C339.77 66.1029 339.608 66.0664 339.417 66.0664C339.23 66.0664 339.066 66.1029 338.925 66.1758C338.788 66.2487 338.676 66.3558 338.59 66.4971C338.503 66.6338 338.437 66.8024 338.392 67.0029C338.346 67.1989 338.321 67.4222 338.316 67.6729V69.0127C338.326 69.3089 338.364 69.571 338.433 69.7988C338.506 70.0267 338.622 70.209 338.781 70.3457C338.941 70.4779 339.157 70.5439 339.431 70.5439C339.627 70.5439 339.788 70.5029 339.916 70.4209C340.048 70.3389 340.155 70.2158 340.237 70.0518C340.319 69.8877 340.376 69.6803 340.408 69.4297C340.445 69.179 340.463 68.8828 340.463 68.541ZM345.562 61.5V72H343.642V61.5H345.562ZM350.341 70.2979V66.8799C350.341 66.6566 350.313 66.4788 350.259 66.3467C350.209 66.2145 350.131 66.1188 350.026 66.0596C349.926 65.9958 349.803 65.9639 349.657 65.9639C349.493 65.9639 349.356 65.998 349.247 66.0664C349.138 66.1348 349.056 66.2327 349.001 66.3604C348.951 66.488 348.926 66.6406 348.926 66.8184H347.005C347.005 66.4993 347.066 66.1986 347.189 65.916C347.312 65.6289 347.493 65.3783 347.729 65.1641C347.971 64.9453 348.258 64.7744 348.591 64.6514C348.924 64.5283 349.297 64.4668 349.712 64.4668C350.204 64.4668 350.642 64.5511 351.024 64.7197C351.407 64.8838 351.71 65.1458 351.934 65.5059C352.157 65.8659 352.269 66.333 352.269 66.9072V70.2021C352.269 70.6169 352.289 70.9541 352.33 71.2139C352.376 71.4736 352.442 71.6969 352.528 71.8838V72H350.601C350.514 71.7949 350.448 71.5397 350.402 71.2344C350.361 70.9245 350.341 70.6123 350.341 70.2979ZM350.573 67.4814L350.58 68.6299H349.876C349.694 68.6299 349.534 68.6595 349.397 68.7188C349.265 68.778 349.154 68.8623 349.062 68.9717C348.971 69.0765 348.903 69.1995 348.857 69.3408C348.816 69.4821 348.796 69.6325 348.796 69.792C348.796 69.9697 348.821 70.1201 348.871 70.2432C348.921 70.3662 348.996 70.4596 349.097 70.5234C349.197 70.5872 349.315 70.6191 349.452 70.6191C349.662 70.6191 349.844 70.5758 349.999 70.4893C350.154 70.4027 350.268 70.2979 350.341 70.1748C350.418 70.0518 350.443 69.9378 350.416 69.833L350.854 70.5781C350.799 70.7467 350.724 70.9222 350.628 71.1045C350.537 71.2868 350.421 71.4554 350.279 71.6104C350.138 71.7653 349.963 71.8929 349.753 71.9932C349.548 72.0889 349.304 72.1367 349.021 72.1367C348.625 72.1367 348.263 72.0456 347.935 71.8633C347.606 71.681 347.347 71.4258 347.155 71.0977C346.968 70.7695 346.875 70.3799 346.875 69.9287C346.875 69.555 346.934 69.2178 347.053 68.917C347.176 68.6117 347.358 68.3542 347.6 68.1445C347.841 67.9303 348.146 67.7663 348.516 67.6523C348.885 67.5384 349.318 67.4814 349.814 67.4814H350.573ZM356.91 64.6035V66.0459H353.137V64.6035H356.91ZM354.005 62.7783H355.912V69.7441C355.912 69.9492 355.933 70.1064 355.974 70.2158C356.015 70.3252 356.076 70.4027 356.158 70.4482C356.245 70.4893 356.359 70.5098 356.5 70.5098C356.596 70.5098 356.685 70.5052 356.767 70.4961C356.849 70.4824 356.91 70.4688 356.951 70.4551V71.9521C356.801 72.0114 356.641 72.057 356.473 72.0889C356.309 72.1208 356.113 72.1367 355.885 72.1367C355.502 72.1367 355.169 72.0638 354.887 71.918C354.609 71.7721 354.392 71.5397 354.237 71.2207C354.082 70.8971 354.005 70.4733 354.005 69.9492V62.7783ZM360.957 72.1367C360.451 72.1367 360.002 72.0592 359.61 71.9043C359.223 71.7493 358.895 71.526 358.626 71.2344C358.357 70.9382 358.152 70.5804 358.011 70.1611C357.869 69.7419 357.799 69.2633 357.799 68.7256V68.1172C357.799 67.5156 357.867 66.9893 358.004 66.5381C358.141 66.0824 358.334 65.6995 358.585 65.3896C358.836 65.0798 359.143 64.8496 359.508 64.6992C359.877 64.5443 360.294 64.4668 360.759 64.4668C361.224 64.4668 361.632 64.5443 361.982 64.6992C362.338 64.8496 362.632 65.0775 362.864 65.3828C363.097 65.6836 363.272 66.0573 363.391 66.5039C363.509 66.9505 363.568 67.4701 363.568 68.0625V68.9375H358.612V67.5908H361.688V67.4199C361.688 67.1191 361.657 66.8685 361.593 66.668C361.529 66.4629 361.429 66.3102 361.292 66.21C361.155 66.1097 360.973 66.0596 360.745 66.0596C360.554 66.0596 360.392 66.0983 360.26 66.1758C360.128 66.2533 360.023 66.374 359.945 66.5381C359.868 66.7021 359.811 66.9163 359.774 67.1807C359.738 67.4404 359.72 67.7526 359.72 68.1172V68.7256C359.72 69.0674 359.749 69.3545 359.809 69.5869C359.868 69.8148 359.954 70.0016 360.068 70.1475C360.187 70.2887 360.33 70.3913 360.499 70.4551C360.668 70.5143 360.864 70.5439 361.087 70.5439C361.424 70.5439 361.727 70.4847 361.996 70.3662C362.27 70.2432 362.502 70.0768 362.693 69.8672L363.459 71.0293C363.327 71.2025 363.145 71.3757 362.912 71.5488C362.68 71.722 362.402 71.8633 362.078 71.9727C361.755 72.082 361.381 72.1367 360.957 72.1367ZM369.782 66.1826V72H367.861V64.6035H369.659L369.782 66.1826ZM369.495 68.0488L368.982 68.0625C368.973 67.5065 369.026 67.0075 369.14 66.5654C369.258 66.1234 369.424 65.7474 369.639 65.4375C369.857 65.123 370.117 64.8838 370.418 64.7197C370.723 64.5511 371.063 64.4668 371.437 64.4668C371.724 64.4668 371.986 64.5169 372.223 64.6172C372.464 64.7174 372.672 64.877 372.845 65.0957C373.018 65.3145 373.152 65.6061 373.248 65.9707C373.344 66.3307 373.392 66.7728 373.392 67.2969V72H371.471V67.2832C371.471 66.9642 371.439 66.7181 371.375 66.5449C371.311 66.3672 371.215 66.2441 371.088 66.1758C370.96 66.1029 370.801 66.0664 370.609 66.0664C370.427 66.0664 370.265 66.1188 370.124 66.2236C369.983 66.3239 369.864 66.4629 369.769 66.6406C369.677 66.8184 369.607 67.028 369.557 67.2695C369.511 67.5111 369.491 67.7708 369.495 68.0488ZM378.368 70.2227V64.6035H380.289V72H378.484L378.368 70.2227ZM378.587 68.6982L379.12 68.6846C379.12 69.1813 379.072 69.6416 378.977 70.0654C378.881 70.4847 378.737 70.8493 378.546 71.1592C378.354 71.4691 378.115 71.7106 377.828 71.8838C377.541 72.0524 377.201 72.1367 376.81 72.1367C376.509 72.1367 376.231 72.0866 375.976 71.9863C375.725 71.8815 375.508 71.7197 375.326 71.501C375.144 71.2777 375 70.9928 374.896 70.6465C374.795 70.2956 374.745 69.874 374.745 69.3818V64.6035H376.666V69.4023C376.666 69.6029 376.684 69.776 376.721 69.9219C376.757 70.0632 376.807 70.1794 376.871 70.2705C376.935 70.3617 377.01 70.4277 377.097 70.4688C377.183 70.5052 377.281 70.5234 377.391 70.5234C377.691 70.5234 377.928 70.446 378.102 70.291C378.279 70.1315 378.405 69.915 378.478 69.6416C378.55 69.3636 378.587 69.0492 378.587 68.6982ZM383.611 66.1348V72H381.69V64.6035H383.495L383.611 66.1348ZM383.338 68.0488L382.812 68.0625C382.802 67.543 382.848 67.0645 382.948 66.627C383.049 66.1895 383.199 65.8089 383.399 65.4854C383.604 65.1618 383.862 64.9111 384.172 64.7334C384.482 64.5557 384.844 64.4668 385.259 64.4668C385.528 64.4668 385.776 64.5169 386.004 64.6172C386.232 64.7129 386.43 64.8656 386.599 65.0752C386.767 65.2803 386.897 65.5492 386.988 65.8818C387.079 66.21 387.125 66.6042 387.125 67.0645V72H385.211V67.2969C385.211 66.9688 385.179 66.7181 385.115 66.5449C385.051 66.3672 384.96 66.2441 384.842 66.1758C384.723 66.1029 384.577 66.0664 384.404 66.0664C384.222 66.0664 384.062 66.1165 383.926 66.2168C383.789 66.3171 383.677 66.4583 383.591 66.6406C383.509 66.8184 383.445 67.028 383.399 67.2695C383.358 67.5111 383.338 67.7708 383.338 68.0488ZM386.94 67.8574L386.25 67.9463C386.241 67.4587 386.284 67.0052 386.38 66.5859C386.476 66.1621 386.624 65.793 386.824 65.4785C387.025 65.1595 387.275 64.9111 387.576 64.7334C387.882 64.5557 388.235 64.4668 388.636 64.4668C388.937 64.4668 389.21 64.5169 389.456 64.6172C389.702 64.7174 389.912 64.8792 390.085 65.1025C390.263 65.3213 390.397 65.6107 390.488 65.9707C390.584 66.3307 390.632 66.7682 390.632 67.2832V72H388.711V67.29C388.711 66.9574 388.679 66.7021 388.615 66.5244C388.551 66.3467 388.46 66.2259 388.342 66.1621C388.223 66.0983 388.082 66.0664 387.918 66.0664C387.754 66.0664 387.61 66.112 387.487 66.2031C387.369 66.2943 387.269 66.4219 387.187 66.5859C387.104 66.7454 387.043 66.9346 387.002 67.1533C386.961 67.3675 386.94 67.6022 386.94 67.8574ZM392.081 61.5H393.988V70.2842L393.852 72H392.081V61.5ZM397.83 68.0557V68.541C397.83 69.1426 397.782 69.6667 397.687 70.1133C397.595 70.5599 397.452 70.9336 397.256 71.2344C397.064 71.5352 396.818 71.7607 396.518 71.9111C396.217 72.0615 395.861 72.1367 395.451 72.1367C395.082 72.1367 394.765 72.0501 394.501 71.877C394.237 71.6992 394.013 71.4554 393.831 71.1455C393.653 70.8311 393.507 70.4642 393.394 70.0449C393.284 69.6211 393.204 69.1585 393.154 68.6572V67.9395C393.2 67.4473 393.277 66.9893 393.387 66.5654C393.501 66.1416 393.646 65.7747 393.824 65.4648C394.002 65.1504 394.223 64.9066 394.487 64.7334C394.756 64.5557 395.073 64.4668 395.438 64.4668C395.857 64.4668 396.217 64.5443 396.518 64.6992C396.818 64.8496 397.064 65.0752 397.256 65.376C397.452 65.6768 397.595 66.0527 397.687 66.5039C397.782 66.9505 397.83 67.4678 397.83 68.0557ZM395.923 68.541V68.0557C395.923 67.7139 395.909 67.4199 395.882 67.1738C395.854 66.9277 395.804 66.7227 395.731 66.5586C395.659 66.3945 395.554 66.2715 395.417 66.1895C395.285 66.1074 395.109 66.0664 394.891 66.0664C394.695 66.0664 394.531 66.1051 394.398 66.1826C394.266 66.2555 394.152 66.3649 394.057 66.5107C393.965 66.652 393.897 66.8206 393.852 67.0166C393.811 67.208 393.788 67.4199 393.783 67.6523V68.9443C393.788 69.2588 393.826 69.5368 393.899 69.7783C393.972 70.0199 394.089 70.2067 394.248 70.3389C394.412 70.471 394.631 70.5371 394.904 70.5371C395.118 70.5371 395.292 70.5007 395.424 70.4277C395.556 70.3548 395.659 70.2386 395.731 70.0791C395.809 69.9196 395.859 69.7145 395.882 69.4639C395.909 69.2087 395.923 68.901 395.923 68.541ZM401.986 72.1367C401.48 72.1367 401.032 72.0592 400.64 71.9043C400.252 71.7493 399.924 71.526 399.655 71.2344C399.386 70.9382 399.181 70.5804 399.04 70.1611C398.899 69.7419 398.828 69.2633 398.828 68.7256V68.1172C398.828 67.5156 398.896 66.9893 399.033 66.5381C399.17 66.0824 399.364 65.6995 399.614 65.3896C399.865 65.0798 400.173 64.8496 400.537 64.6992C400.906 64.5443 401.323 64.4668 401.788 64.4668C402.253 64.4668 402.661 64.5443 403.012 64.6992C403.367 64.8496 403.661 65.0775 403.894 65.3828C404.126 65.6836 404.301 66.0573 404.42 66.5039C404.538 66.9505 404.598 67.4701 404.598 68.0625V68.9375H399.642V67.5908H402.718V67.4199C402.718 67.1191 402.686 66.8685 402.622 66.668C402.558 66.4629 402.458 66.3102 402.321 66.21C402.185 66.1097 402.002 66.0596 401.774 66.0596C401.583 66.0596 401.421 66.0983 401.289 66.1758C401.157 66.2533 401.052 66.374 400.975 66.5381C400.897 66.7021 400.84 66.9163 400.804 67.1807C400.767 67.4404 400.749 67.7526 400.749 68.1172V68.7256C400.749 69.0674 400.779 69.3545 400.838 69.5869C400.897 69.8148 400.984 70.0016 401.098 70.1475C401.216 70.2887 401.36 70.3913 401.528 70.4551C401.697 70.5143 401.893 70.5439 402.116 70.5439C402.453 70.5439 402.757 70.4847 403.025 70.3662C403.299 70.2432 403.531 70.0768 403.723 69.8672L404.488 71.0293C404.356 71.2025 404.174 71.3757 403.941 71.5488C403.709 71.722 403.431 71.8633 403.107 71.9727C402.784 72.082 402.41 72.1367 401.986 72.1367ZM407.619 66.251V72H405.705V64.6035H407.51L407.619 66.251ZM409.362 64.5488L409.335 66.4561C409.248 66.4378 409.144 66.4242 409.021 66.415C408.902 66.4059 408.797 66.4014 408.706 66.4014C408.492 66.4014 408.31 66.4355 408.159 66.5039C408.009 66.5677 407.883 66.6657 407.783 66.7979C407.688 66.9255 407.615 67.085 407.564 67.2764C407.514 67.4678 407.485 67.6842 407.476 67.9258L407.113 67.7891C407.113 67.306 407.15 66.8639 407.223 66.4629C407.3 66.0573 407.414 65.7064 407.564 65.4102C407.715 65.1094 407.895 64.877 408.104 64.7129C408.319 64.5488 408.56 64.4668 408.829 64.4668C408.92 64.4668 409.016 64.4759 409.116 64.4941C409.221 64.5078 409.303 64.526 409.362 64.5488Z" fill="url(#paint1_linear_1405_1311)"/>
<path d="M658.205 67.6592H656.168L656.161 66.21H657.897C658.171 66.21 658.394 66.1644 658.567 66.0732C658.745 65.9775 658.875 65.8385 658.957 65.6562C659.044 65.4694 659.087 65.2438 659.087 64.9795C659.087 64.6742 659.048 64.4303 658.971 64.248C658.893 64.0612 658.768 63.9245 658.595 63.8379C658.422 63.7513 658.196 63.708 657.918 63.708H656.852V72H654.849V62.0469H657.918C658.415 62.0469 658.859 62.1016 659.251 62.2109C659.643 62.3203 659.976 62.4867 660.249 62.71C660.522 62.9333 660.73 63.2158 660.871 63.5576C661.017 63.8994 661.09 64.3027 661.09 64.7676C661.09 65.1777 661.008 65.556 660.844 65.9023C660.68 66.2487 660.422 66.5312 660.071 66.75C659.725 66.9688 659.271 67.0918 658.711 67.1191L658.205 67.6592ZM658.137 72H655.601L656.4 70.3457H658.137C658.401 70.3457 658.615 70.2887 658.779 70.1748C658.943 70.0609 659.062 69.9082 659.135 69.7168C659.208 69.5208 659.244 69.2975 659.244 69.0469C659.244 68.7643 659.21 68.5182 659.142 68.3086C659.078 68.099 658.971 67.9395 658.82 67.8301C658.67 67.7161 658.467 67.6592 658.212 67.6592H656.489L656.503 66.21H658.595L659.066 66.7842C659.6 66.766 660.026 66.8685 660.345 67.0918C660.664 67.3105 660.892 67.5977 661.028 67.9531C661.17 68.304 661.24 68.6777 661.24 69.0742C661.24 69.7122 661.119 70.25 660.878 70.6875C660.641 71.1204 660.292 71.4486 659.832 71.6719C659.372 71.8906 658.807 72 658.137 72ZM664.624 64.6035V72H662.703V64.6035H664.624ZM662.614 62.6895C662.614 62.3932 662.708 62.1494 662.895 61.958C663.086 61.762 663.341 61.6641 663.66 61.6641C663.984 61.6641 664.239 61.762 664.426 61.958C664.613 62.1494 664.706 62.3932 664.706 62.6895C664.706 62.9811 664.61 63.2249 664.419 63.4209C664.232 63.6123 663.981 63.708 663.667 63.708C663.343 63.708 663.086 63.6123 662.895 63.4209C662.708 63.2249 662.614 62.9811 662.614 62.6895ZM668.151 61.5V72H666.23V61.5H668.151ZM671.679 61.5V72H669.758V61.5H671.679ZM675.206 64.6035V72H673.285V64.6035H675.206ZM673.196 62.6895C673.196 62.3932 673.29 62.1494 673.477 61.958C673.668 61.762 673.923 61.6641 674.242 61.6641C674.566 61.6641 674.821 61.762 675.008 61.958C675.195 62.1494 675.288 62.3932 675.288 62.6895C675.288 62.9811 675.192 63.2249 675.001 63.4209C674.814 63.6123 674.563 63.708 674.249 63.708C673.925 63.708 673.668 63.6123 673.477 63.4209C673.29 63.2249 673.196 62.9811 673.196 62.6895ZM678.604 66.1826V72H676.683V64.6035H678.48L678.604 66.1826ZM678.316 68.0488L677.804 68.0625C677.795 67.5065 677.847 67.0075 677.961 66.5654C678.079 66.1234 678.246 65.7474 678.46 65.4375C678.679 65.123 678.938 64.8838 679.239 64.7197C679.545 64.5511 679.884 64.4668 680.258 64.4668C680.545 64.4668 680.807 64.5169 681.044 64.6172C681.285 64.7174 681.493 64.877 681.666 65.0957C681.839 65.3145 681.974 65.6061 682.069 65.9707C682.165 66.3307 682.213 66.7728 682.213 67.2969V72H680.292V67.2832C680.292 66.9642 680.26 66.7181 680.196 66.5449C680.132 66.3672 680.037 66.2441 679.909 66.1758C679.782 66.1029 679.622 66.0664 679.431 66.0664C679.248 66.0664 679.087 66.1188 678.945 66.2236C678.804 66.3239 678.686 66.4629 678.59 66.6406C678.499 66.8184 678.428 67.028 678.378 67.2695C678.332 67.5111 678.312 67.7708 678.316 68.0488ZM687.504 64.6035H689.24V72C689.24 72.6745 689.11 73.2259 688.851 73.6543C688.595 74.0872 688.238 74.404 687.777 74.6045C687.322 74.8096 686.788 74.9121 686.178 74.9121C685.945 74.9121 685.683 74.8802 685.392 74.8164C685.104 74.7526 684.826 74.6546 684.558 74.5225C684.289 74.3949 684.068 74.2399 683.895 74.0576L684.544 72.7314C684.722 72.9092 684.954 73.0596 685.241 73.1826C685.528 73.3102 685.811 73.374 686.089 73.374C686.358 73.374 686.581 73.3307 686.759 73.2441C686.941 73.1621 687.078 73.0208 687.169 72.8203C687.265 72.6198 687.312 72.3509 687.312 72.0137V66.3193L687.504 64.6035ZM683.375 68.5615V68.0693C683.375 67.4678 683.432 66.9414 683.546 66.4902C683.66 66.0391 683.824 65.6631 684.038 65.3623C684.252 65.0615 684.514 64.8382 684.824 64.6924C685.139 64.542 685.49 64.4668 685.877 64.4668C686.283 64.4668 686.622 64.5557 686.896 64.7334C687.169 64.9066 687.39 65.1504 687.559 65.4648C687.732 65.7793 687.864 66.1507 687.955 66.5791C688.051 67.0075 688.124 67.4769 688.174 67.9873V68.6982C688.124 69.1813 688.042 69.6325 687.928 70.0518C687.818 70.471 687.673 70.8356 687.49 71.1455C687.308 71.4554 687.085 71.6992 686.82 71.877C686.556 72.0501 686.237 72.1367 685.863 72.1367C685.48 72.1367 685.134 72.0592 684.824 71.9043C684.519 71.7493 684.257 71.5215 684.038 71.2207C683.824 70.9154 683.66 70.5417 683.546 70.0996C683.432 69.653 683.375 69.1403 683.375 68.5615ZM685.296 68.0693V68.5615C685.296 68.9079 685.316 69.2064 685.357 69.457C685.403 69.7031 685.471 69.9059 685.562 70.0654C685.654 70.2204 685.77 70.3366 685.911 70.4141C686.057 70.487 686.228 70.5234 686.424 70.5234C686.702 70.5234 686.923 70.4596 687.087 70.332C687.256 70.1999 687.379 70.0199 687.456 69.792C687.538 69.5596 687.584 69.293 687.593 68.9922V67.7002C687.588 67.4495 687.559 67.224 687.504 67.0234C687.454 66.8229 687.383 66.652 687.292 66.5107C687.201 66.3695 687.082 66.2601 686.937 66.1826C686.795 66.1051 686.629 66.0664 686.438 66.0664C686.242 66.0664 686.073 66.1051 685.932 66.1826C685.79 66.2601 685.672 66.3809 685.576 66.5449C685.485 66.7044 685.414 66.9118 685.364 67.167C685.319 67.4176 685.296 67.7184 685.296 68.0693Z" fill="url(#paint2_linear_1405_1311)"/>
<path d="M948.398 66.874L950.285 59.0469H952.445L949.561 69H948.104L948.398 66.874ZM946.785 59.0469L948.665 66.874L948.973 69H947.51L944.646 59.0469H946.785ZM955.979 69.1367C955.474 69.1367 955.025 69.0592 954.633 68.9043C954.245 68.7493 953.917 68.526 953.648 68.2344C953.38 67.9382 953.174 67.5804 953.033 67.1611C952.892 66.7419 952.821 66.2633 952.821 65.7256V65.1172C952.821 64.5156 952.89 63.9893 953.026 63.5381C953.163 63.0824 953.357 62.6995 953.607 62.3896C953.858 62.0798 954.166 61.8496 954.53 61.6992C954.899 61.5443 955.316 61.4668 955.781 61.4668C956.246 61.4668 956.654 61.5443 957.005 61.6992C957.36 61.8496 957.654 62.0775 957.887 62.3828C958.119 62.6836 958.295 63.0573 958.413 63.5039C958.532 63.9505 958.591 64.4701 958.591 65.0625V65.9375H953.635V64.5908H956.711V64.4199C956.711 64.1191 956.679 63.8685 956.615 63.668C956.551 63.4629 956.451 63.3102 956.314 63.21C956.178 63.1097 955.995 63.0596 955.768 63.0596C955.576 63.0596 955.414 63.0983 955.282 63.1758C955.15 63.2533 955.045 63.374 954.968 63.5381C954.89 63.7021 954.833 63.9163 954.797 64.1807C954.76 64.4404 954.742 64.7526 954.742 65.1172V65.7256C954.742 66.0674 954.772 66.3545 954.831 66.5869C954.89 66.8148 954.977 67.0016 955.091 67.1475C955.209 67.2887 955.353 67.3913 955.521 67.4551C955.69 67.5143 955.886 67.5439 956.109 67.5439C956.447 67.5439 956.75 67.4847 957.019 67.3662C957.292 67.2432 957.524 67.0768 957.716 66.8672L958.481 68.0293C958.349 68.2025 958.167 68.3757 957.935 68.5488C957.702 68.722 957.424 68.8633 957.101 68.9727C956.777 69.082 956.403 69.1367 955.979 69.1367ZM961.612 63.251V69H959.698V61.6035H961.503L961.612 63.251ZM963.355 61.5488L963.328 63.4561C963.242 63.4378 963.137 63.4242 963.014 63.415C962.895 63.4059 962.79 63.4014 962.699 63.4014C962.485 63.4014 962.303 63.4355 962.152 63.5039C962.002 63.5677 961.877 63.6657 961.776 63.7979C961.681 63.9255 961.608 64.085 961.558 64.2764C961.507 64.4678 961.478 64.6842 961.469 64.9258L961.106 64.7891C961.106 64.306 961.143 63.8639 961.216 63.4629C961.293 63.0573 961.407 62.7064 961.558 62.4102C961.708 62.1094 961.888 61.877 962.098 61.7129C962.312 61.5488 962.553 61.4668 962.822 61.4668C962.913 61.4668 963.009 61.4759 963.109 61.4941C963.214 61.5078 963.296 61.526 963.355 61.5488ZM966.343 61.6035V69H964.422V61.6035H966.343ZM964.333 59.6895C964.333 59.3932 964.426 59.1494 964.613 58.958C964.805 58.762 965.06 58.6641 965.379 58.6641C965.702 58.6641 965.958 58.762 966.145 58.958C966.331 59.1494 966.425 59.3932 966.425 59.6895C966.425 59.9811 966.329 60.2249 966.138 60.4209C965.951 60.6123 965.7 60.708 965.386 60.708C965.062 60.708 964.805 60.6123 964.613 60.4209C964.426 60.2249 964.333 59.9811 964.333 59.6895ZM970.171 69H968.257V61.2959C968.257 60.6579 968.368 60.1224 968.592 59.6895C968.82 59.252 969.148 58.9215 969.576 58.6982C970.009 58.4704 970.526 58.3564 971.128 58.3564C971.474 58.3564 971.802 58.3952 972.112 58.4727C972.427 58.5456 972.75 58.6413 973.083 58.7598L972.81 60.3867C972.609 60.3138 972.383 60.2454 972.133 60.1816C971.887 60.1133 971.595 60.0791 971.258 60.0791C970.889 60.0791 970.615 60.1816 970.438 60.3867C970.26 60.5918 970.171 60.8949 970.171 61.2959V69ZM971.312 61.6035V63.0459H967.354V61.6035H971.312ZM973.965 61.6035V69H972.044V61.6035H973.965ZM978.162 67.5439C978.34 67.5439 978.493 67.5075 978.62 67.4346C978.752 67.3617 978.853 67.2432 978.921 67.0791C978.989 66.915 979.026 66.7031 979.03 66.4434H980.828C980.828 66.9993 980.71 67.4801 980.473 67.8857C980.24 68.2868 979.926 68.5967 979.529 68.8154C979.137 69.0296 978.693 69.1367 978.196 69.1367C977.7 69.1367 977.267 69.057 976.897 68.8975C976.528 68.738 976.223 68.5055 975.981 68.2002C975.744 67.8949 975.564 67.5234 975.441 67.0859C975.323 66.6439 975.264 66.138 975.264 65.5684V65.0283C975.264 64.4678 975.323 63.9665 975.441 63.5244C975.564 63.0824 975.744 62.7087 975.981 62.4033C976.223 62.098 976.526 61.8656 976.891 61.7061C977.26 61.5465 977.693 61.4668 978.189 61.4668C978.723 61.4668 979.185 61.5785 979.577 61.8018C979.969 62.0205 980.274 62.3441 980.493 62.7725C980.716 63.2008 980.828 63.7295 980.828 64.3584H979.03C979.026 64.0758 978.992 63.8411 978.928 63.6543C978.868 63.4629 978.775 63.3171 978.647 63.2168C978.524 63.112 978.36 63.0596 978.155 63.0596C977.941 63.0596 977.768 63.1051 977.636 63.1963C977.508 63.2829 977.41 63.4105 977.342 63.5791C977.278 63.7432 977.235 63.9482 977.212 64.1943C977.189 64.4404 977.178 64.7184 977.178 65.0283V65.5684C977.178 65.901 977.187 66.1904 977.205 66.4365C977.228 66.6781 977.271 66.8831 977.335 67.0518C977.403 67.2158 977.501 67.3389 977.629 67.4209C977.761 67.5029 977.939 67.5439 978.162 67.5439ZM985.189 67.2979V63.8799C985.189 63.6566 985.162 63.4788 985.107 63.3467C985.057 63.2145 984.98 63.1188 984.875 63.0596C984.775 62.9958 984.652 62.9639 984.506 62.9639C984.342 62.9639 984.205 62.998 984.096 63.0664C983.986 63.1348 983.904 63.2327 983.85 63.3604C983.799 63.488 983.774 63.6406 983.774 63.8184H981.854C981.854 63.4993 981.915 63.1986 982.038 62.916C982.161 62.6289 982.341 62.3783 982.578 62.1641C982.82 61.9453 983.107 61.7744 983.439 61.6514C983.772 61.5283 984.146 61.4668 984.561 61.4668C985.053 61.4668 985.49 61.5511 985.873 61.7197C986.256 61.8838 986.559 62.1458 986.782 62.5059C987.006 62.8659 987.117 63.333 987.117 63.9072V67.2021C987.117 67.6169 987.138 67.9541 987.179 68.2139C987.224 68.4736 987.29 68.6969 987.377 68.8838V69H985.449C985.363 68.7949 985.297 68.5397 985.251 68.2344C985.21 67.9245 985.189 67.6123 985.189 67.2979ZM985.422 64.4814L985.429 65.6299H984.725C984.542 65.6299 984.383 65.6595 984.246 65.7188C984.114 65.778 984.002 65.8623 983.911 65.9717C983.82 66.0765 983.752 66.1995 983.706 66.3408C983.665 66.4821 983.645 66.6325 983.645 66.792C983.645 66.9697 983.67 67.1201 983.72 67.2432C983.77 67.3662 983.845 67.4596 983.945 67.5234C984.046 67.5872 984.164 67.6191 984.301 67.6191C984.51 67.6191 984.693 67.5758 984.848 67.4893C985.003 67.4027 985.117 67.2979 985.189 67.1748C985.267 67.0518 985.292 66.9378 985.265 66.833L985.702 67.5781C985.647 67.7467 985.572 67.9222 985.477 68.1045C985.385 68.2868 985.269 68.4554 985.128 68.6104C984.987 68.7653 984.811 68.8929 984.602 68.9932C984.396 69.0889 984.153 69.1367 983.87 69.1367C983.474 69.1367 983.111 69.0456 982.783 68.8633C982.455 68.681 982.195 68.4258 982.004 68.0977C981.817 67.7695 981.724 67.3799 981.724 66.9287C981.724 66.555 981.783 66.2178 981.901 65.917C982.024 65.6117 982.207 65.3542 982.448 65.1445C982.69 64.9303 982.995 64.7663 983.364 64.6523C983.733 64.5384 984.166 64.4814 984.663 64.4814H985.422ZM991.759 61.6035V63.0459H987.985V61.6035H991.759ZM988.854 59.7783H990.761V66.7441C990.761 66.9492 990.781 67.1064 990.822 67.2158C990.863 67.3252 990.925 67.4027 991.007 67.4482C991.093 67.4893 991.207 67.5098 991.349 67.5098C991.444 67.5098 991.533 67.5052 991.615 67.4961C991.697 67.4824 991.759 67.4688 991.8 67.4551V68.9521C991.649 69.0114 991.49 69.057 991.321 69.0889C991.157 69.1208 990.961 69.1367 990.733 69.1367C990.351 69.1367 990.018 69.0638 989.735 68.918C989.457 68.7721 989.241 68.5397 989.086 68.2207C988.931 67.8971 988.854 67.4733 988.854 66.9492V59.7783ZM994.835 61.6035V69H992.914V61.6035H994.835ZM992.825 59.6895C992.825 59.3932 992.919 59.1494 993.105 58.958C993.297 58.762 993.552 58.6641 993.871 58.6641C994.195 58.6641 994.45 58.762 994.637 58.958C994.824 59.1494 994.917 59.3932 994.917 59.6895C994.917 59.9811 994.821 60.2249 994.63 60.4209C994.443 60.6123 994.192 60.708 993.878 60.708C993.554 60.708 993.297 60.6123 993.105 60.4209C992.919 60.2249 992.825 59.9811 992.825 59.6895ZM996.134 65.5547V65.0557C996.134 64.4769 996.202 63.9642 996.339 63.5176C996.48 63.071 996.681 62.6973 996.94 62.3965C997.2 62.0911 997.512 61.861 997.877 61.7061C998.246 61.5465 998.659 61.4668 999.114 61.4668C999.575 61.4668 999.987 61.5465 1000.35 61.7061C1000.72 61.861 1001.04 62.0911 1001.29 62.3965C1001.56 62.6973 1001.76 63.071 1001.9 63.5176C1002.04 63.9642 1002.12 64.4769 1002.12 65.0557V65.5547C1002.12 66.1289 1002.04 66.6393 1001.9 67.0859C1001.76 67.5326 1001.56 67.9085 1001.29 68.2139C1001.04 68.5192 1000.72 68.7493 1000.36 68.9043C999.994 69.0592 999.584 69.1367 999.128 69.1367C998.672 69.1367 998.26 69.0592 997.891 68.9043C997.526 68.7493 997.212 68.5192 996.947 68.2139C996.683 67.9085 996.48 67.5326 996.339 67.0859C996.202 66.6393 996.134 66.1289 996.134 65.5547ZM998.048 65.0557V65.5547C998.048 65.8965 998.071 66.1927 998.116 66.4434C998.166 66.694 998.237 66.9014 998.328 67.0654C998.424 67.2295 998.538 67.3503 998.67 67.4277C998.802 67.5052 998.955 67.5439 999.128 67.5439C999.301 67.5439 999.456 67.5052 999.593 67.4277C999.729 67.3503 999.841 67.2295 999.928 67.0654C1000.02 66.9014 1000.08 66.694 1000.13 66.4434C1000.17 66.1927 1000.19 65.8965 1000.19 65.5547V65.0557C1000.19 64.723 1000.17 64.4313 1000.12 64.1807C1000.07 63.9255 999.998 63.7181 999.907 63.5586C999.816 63.3945 999.702 63.2715 999.565 63.1895C999.433 63.1029 999.283 63.0596 999.114 63.0596C998.946 63.0596 998.795 63.1029 998.663 63.1895C998.535 63.2715 998.424 63.3945 998.328 63.5586C998.237 63.7181 998.166 63.9255 998.116 64.1807C998.071 64.4313 998.048 64.723 998.048 65.0557ZM1005.21 63.1826V69H1003.28V61.6035H1005.08L1005.21 63.1826ZM1004.92 65.0488L1004.41 65.0625C1004.4 64.5065 1004.45 64.0075 1004.56 63.5654C1004.68 63.1234 1004.85 62.7474 1005.06 62.4375C1005.28 62.123 1005.54 61.8838 1005.84 61.7197C1006.15 61.5511 1006.49 61.4668 1006.86 61.4668C1007.15 61.4668 1007.41 61.5169 1007.65 61.6172C1007.89 61.7174 1008.09 61.877 1008.27 62.0957C1008.44 62.3145 1008.58 62.6061 1008.67 62.9707C1008.77 63.3307 1008.81 63.7728 1008.81 64.2969V69H1006.89V64.2832C1006.89 63.9642 1006.86 63.7181 1006.8 63.5449C1006.73 63.3672 1006.64 63.2441 1006.51 63.1758C1006.38 63.1029 1006.22 63.0664 1006.03 63.0664C1005.85 63.0664 1005.69 63.1188 1005.55 63.2236C1005.41 63.3239 1005.29 63.4629 1005.19 63.6406C1005.1 63.8184 1005.03 64.028 1004.98 64.2695C1004.93 64.5111 1004.91 64.7708 1004.92 65.0488ZM945.172 81.2979V77.8799C945.172 77.6566 945.145 77.4788 945.09 77.3467C945.04 77.2145 944.962 77.1188 944.857 77.0596C944.757 76.9958 944.634 76.9639 944.488 76.9639C944.324 76.9639 944.188 76.998 944.078 77.0664C943.969 77.1348 943.887 77.2327 943.832 77.3604C943.782 77.488 943.757 77.6406 943.757 77.8184H941.836C941.836 77.4993 941.897 77.1986 942.021 76.916C942.144 76.6289 942.324 76.3783 942.561 76.1641C942.802 75.9453 943.089 75.7744 943.422 75.6514C943.755 75.5283 944.128 75.4668 944.543 75.4668C945.035 75.4668 945.473 75.5511 945.855 75.7197C946.238 75.8838 946.541 76.1458 946.765 76.5059C946.988 76.8659 947.1 77.333 947.1 77.9072V81.2021C947.1 81.6169 947.12 81.9541 947.161 82.2139C947.207 82.4736 947.273 82.6969 947.359 82.8838V83H945.432C945.345 82.7949 945.279 82.5397 945.233 82.2344C945.192 81.9245 945.172 81.6123 945.172 81.2979ZM945.404 78.4814L945.411 79.6299H944.707C944.525 79.6299 944.365 79.6595 944.229 79.7188C944.096 79.778 943.985 79.8623 943.894 79.9717C943.802 80.0765 943.734 80.1995 943.688 80.3408C943.647 80.4821 943.627 80.6325 943.627 80.792C943.627 80.9697 943.652 81.1201 943.702 81.2432C943.752 81.3662 943.827 81.4596 943.928 81.5234C944.028 81.5872 944.146 81.6191 944.283 81.6191C944.493 81.6191 944.675 81.5758 944.83 81.4893C944.985 81.4027 945.099 81.2979 945.172 81.1748C945.249 81.0518 945.274 80.9378 945.247 80.833L945.685 81.5781C945.63 81.7467 945.555 81.9222 945.459 82.1045C945.368 82.2868 945.252 82.4554 945.11 82.6104C944.969 82.7653 944.794 82.8929 944.584 82.9932C944.379 83.0889 944.135 83.1367 943.853 83.1367C943.456 83.1367 943.094 83.0456 942.766 82.8633C942.438 82.681 942.178 82.4258 941.986 82.0977C941.799 81.7695 941.706 81.3799 941.706 80.9287C941.706 80.555 941.765 80.2178 941.884 79.917C942.007 79.6117 942.189 79.3542 942.431 79.1445C942.672 78.9303 942.978 78.7663 943.347 78.6523C943.716 78.5384 944.149 78.4814 944.646 78.4814H945.404ZM950.395 77.1826V83H948.474V75.6035H950.271L950.395 77.1826ZM950.107 79.0488L949.595 79.0625C949.586 78.5065 949.638 78.0075 949.752 77.5654C949.87 77.1234 950.037 76.7474 950.251 76.4375C950.47 76.123 950.729 75.8838 951.03 75.7197C951.336 75.5511 951.675 75.4668 952.049 75.4668C952.336 75.4668 952.598 75.5169 952.835 75.6172C953.076 75.7174 953.284 75.877 953.457 76.0957C953.63 76.3145 953.765 76.6061 953.86 76.9707C953.956 77.3307 954.004 77.7728 954.004 78.2969V83H952.083V78.2832C952.083 77.9642 952.051 77.7181 951.987 77.5449C951.924 77.3672 951.828 77.2441 951.7 77.1758C951.573 77.1029 951.413 77.0664 951.222 77.0664C951.039 77.0664 950.878 77.1188 950.736 77.2236C950.595 77.3239 950.477 77.4629 950.381 77.6406C950.29 77.8184 950.219 78.028 950.169 78.2695C950.123 78.5111 950.103 78.7708 950.107 79.0488ZM958.987 81.3662V72.5H960.908V83L959.172 83.0068L958.987 81.3662ZM955.152 79.5615V79.0693C955.152 78.4678 955.202 77.9414 955.303 77.4902C955.408 77.0391 955.562 76.6631 955.768 76.3623C955.973 76.0615 956.223 75.8382 956.52 75.6924C956.82 75.542 957.164 75.4668 957.552 75.4668C957.903 75.4668 958.21 75.5557 958.475 75.7334C958.743 75.9066 958.971 76.1504 959.158 76.4648C959.345 76.7793 959.495 77.1507 959.609 77.5791C959.723 78.0075 959.803 78.4769 959.849 78.9873V79.6982C959.794 80.1813 959.71 80.6325 959.596 81.0518C959.486 81.471 959.336 81.8356 959.145 82.1455C958.958 82.4554 958.732 82.6992 958.468 82.877C958.203 83.0501 957.896 83.1367 957.545 83.1367C957.158 83.1367 956.813 83.0592 956.513 82.9043C956.216 82.7493 955.966 82.5215 955.761 82.2207C955.56 81.9154 955.408 81.5417 955.303 81.0996C955.202 80.653 955.152 80.1403 955.152 79.5615ZM957.066 79.0693V79.5615C957.066 79.9079 957.082 80.2064 957.114 80.457C957.151 80.7031 957.208 80.9059 957.285 81.0654C957.367 81.2204 957.474 81.3366 957.606 81.4141C957.739 81.487 957.903 81.5234 958.099 81.5234C958.354 81.5234 958.561 81.4596 958.721 81.332C958.88 81.1999 958.999 81.0199 959.076 80.792C959.158 80.5596 959.204 80.293 959.213 79.9922V78.7002C959.204 78.4495 959.174 78.224 959.124 78.0234C959.074 77.8229 959.003 77.652 958.912 77.5107C958.821 77.3695 958.707 77.2601 958.57 77.1826C958.438 77.1051 958.283 77.0664 958.105 77.0664C957.914 77.0664 957.75 77.1051 957.613 77.1826C957.481 77.2601 957.376 77.3809 957.299 77.5449C957.221 77.7044 957.162 77.9118 957.121 78.167C957.085 78.4176 957.066 78.7184 957.066 79.0693ZM967.491 77.0254V85.8438H965.584V75.6035H967.348L967.491 77.0254ZM971.333 79.0488V79.541C971.333 80.1198 971.283 80.6325 971.183 81.0791C971.082 81.5212 970.932 81.8971 970.731 82.207C970.535 82.5124 970.289 82.7448 969.993 82.9043C969.697 83.0592 969.351 83.1367 968.954 83.1367C968.585 83.1367 968.266 83.0501 967.997 82.877C967.733 82.6992 967.509 82.4554 967.327 82.1455C967.145 81.8356 966.999 81.4733 966.89 81.0586C966.78 80.6439 966.696 80.1995 966.637 79.7256V78.96C966.691 78.4541 966.771 77.9893 966.876 77.5654C966.981 77.137 967.124 76.7656 967.307 76.4512C967.493 76.1367 967.719 75.8952 967.983 75.7266C968.252 75.5534 968.571 75.4668 968.94 75.4668C969.341 75.4668 969.69 75.5397 969.986 75.6855C970.287 75.8314 970.535 76.0524 970.731 76.3486C970.932 76.6403 971.082 77.0117 971.183 77.4629C971.283 77.9141 971.333 78.4427 971.333 79.0488ZM969.419 79.541V79.0488C969.419 78.6934 969.398 78.3903 969.357 78.1396C969.321 77.889 969.262 77.6839 969.18 77.5244C969.098 77.3649 968.991 77.2487 968.858 77.1758C968.726 77.1029 968.564 77.0664 968.373 77.0664C968.186 77.0664 968.022 77.1029 967.881 77.1758C967.744 77.2487 967.632 77.3558 967.546 77.4971C967.459 77.6338 967.393 77.8024 967.348 78.0029C967.302 78.1989 967.277 78.4222 967.272 78.6729V80.0127C967.282 80.3089 967.32 80.571 967.389 80.7988C967.462 81.0267 967.578 81.209 967.737 81.3457C967.897 81.4779 968.113 81.5439 968.387 81.5439C968.583 81.5439 968.744 81.5029 968.872 81.4209C969.004 81.3389 969.111 81.2158 969.193 81.0518C969.275 80.8877 969.332 80.6803 969.364 80.4297C969.401 80.179 969.419 79.8828 969.419 79.541ZM975.77 81.2979V77.8799C975.77 77.6566 975.742 77.4788 975.688 77.3467C975.637 77.2145 975.56 77.1188 975.455 77.0596C975.355 76.9958 975.232 76.9639 975.086 76.9639C974.922 76.9639 974.785 76.998 974.676 77.0664C974.566 77.1348 974.484 77.2327 974.43 77.3604C974.38 77.488 974.354 77.6406 974.354 77.8184H972.434C972.434 77.4993 972.495 77.1986 972.618 76.916C972.741 76.6289 972.921 76.3783 973.158 76.1641C973.4 75.9453 973.687 75.7744 974.02 75.6514C974.352 75.5283 974.726 75.4668 975.141 75.4668C975.633 75.4668 976.07 75.5511 976.453 75.7197C976.836 75.8838 977.139 76.1458 977.362 76.5059C977.586 76.8659 977.697 77.333 977.697 77.9072V81.2021C977.697 81.6169 977.718 81.9541 977.759 82.2139C977.804 82.4736 977.87 82.6969 977.957 82.8838V83H976.029C975.943 82.7949 975.877 82.5397 975.831 82.2344C975.79 81.9245 975.77 81.6123 975.77 81.2979ZM976.002 78.4814L976.009 79.6299H975.305C975.122 79.6299 974.963 79.6595 974.826 79.7188C974.694 79.778 974.582 79.8623 974.491 79.9717C974.4 80.0765 974.332 80.1995 974.286 80.3408C974.245 80.4821 974.225 80.6325 974.225 80.792C974.225 80.9697 974.25 81.1201 974.3 81.2432C974.35 81.3662 974.425 81.4596 974.525 81.5234C974.626 81.5872 974.744 81.6191 974.881 81.6191C975.09 81.6191 975.273 81.5758 975.428 81.4893C975.583 81.4027 975.697 81.2979 975.77 81.1748C975.847 81.0518 975.872 80.9378 975.845 80.833L976.282 81.5781C976.228 81.7467 976.152 81.9222 976.057 82.1045C975.965 82.2868 975.849 82.4554 975.708 82.6104C975.567 82.7653 975.391 82.8929 975.182 82.9932C974.977 83.0889 974.733 83.1367 974.45 83.1367C974.054 83.1367 973.691 83.0456 973.363 82.8633C973.035 82.681 972.775 82.4258 972.584 82.0977C972.397 81.7695 972.304 81.3799 972.304 80.9287C972.304 80.555 972.363 80.2178 972.481 79.917C972.604 79.6117 972.787 79.3542 973.028 79.1445C973.27 78.9303 973.575 78.7663 973.944 78.6523C974.313 78.5384 974.746 78.4814 975.243 78.4814H976.002ZM980.862 82.1523L982.407 75.6035H984.403L981.97 84.1074C981.915 84.2943 981.84 84.4948 981.744 84.709C981.648 84.9277 981.521 85.1328 981.361 85.3242C981.206 85.5202 981.01 85.6797 980.773 85.8027C980.536 85.9258 980.252 85.9873 979.919 85.9873C979.75 85.9873 979.614 85.9759 979.509 85.9531C979.409 85.9349 979.281 85.903 979.126 85.8574V84.3672C979.167 84.3672 979.206 84.3672 979.242 84.3672C979.283 84.3717 979.322 84.374 979.358 84.374C979.573 84.374 979.743 84.3444 979.871 84.2852C979.999 84.2305 980.101 84.1439 980.179 84.0254C980.261 83.9069 980.329 83.7588 980.384 83.5811L980.862 82.1523ZM980.466 75.6035L981.614 80.9082L981.874 83.0684L980.582 83.1914L978.415 75.6035H980.466ZM987.165 77.1348V83H985.244V75.6035H987.049L987.165 77.1348ZM986.892 79.0488L986.365 79.0625C986.356 78.543 986.402 78.0645 986.502 77.627C986.602 77.1895 986.753 76.8089 986.953 76.4854C987.158 76.1618 987.416 75.9111 987.726 75.7334C988.035 75.5557 988.398 75.4668 988.812 75.4668C989.081 75.4668 989.33 75.5169 989.558 75.6172C989.785 75.7129 989.984 75.8656 990.152 76.0752C990.321 76.2803 990.451 76.5492 990.542 76.8818C990.633 77.21 990.679 77.6042 990.679 78.0645V83H988.765V78.2969C988.765 77.9688 988.733 77.7181 988.669 77.5449C988.605 77.3672 988.514 77.2441 988.396 77.1758C988.277 77.1029 988.131 77.0664 987.958 77.0664C987.776 77.0664 987.616 77.1165 987.479 77.2168C987.343 77.3171 987.231 77.4583 987.145 77.6406C987.062 77.8184 986.999 78.028 986.953 78.2695C986.912 78.5111 986.892 78.7708 986.892 79.0488ZM990.494 78.8574L989.804 78.9463C989.795 78.4587 989.838 78.0052 989.934 77.5859C990.029 77.1621 990.177 76.793 990.378 76.4785C990.578 76.1595 990.829 75.9111 991.13 75.7334C991.435 75.5557 991.788 75.4668 992.189 75.4668C992.49 75.4668 992.764 75.5169 993.01 75.6172C993.256 75.7174 993.465 75.8792 993.639 76.1025C993.816 76.3213 993.951 76.6107 994.042 76.9707C994.138 77.3307 994.186 77.7682 994.186 78.2832V83H992.265V78.29C992.265 77.9574 992.233 77.7021 992.169 77.5244C992.105 77.3467 992.014 77.2259 991.896 77.1621C991.777 77.0983 991.636 77.0664 991.472 77.0664C991.308 77.0664 991.164 77.112 991.041 77.2031C990.923 77.2943 990.822 77.4219 990.74 77.5859C990.658 77.7454 990.597 77.9346 990.556 78.1533C990.515 78.3675 990.494 78.6022 990.494 78.8574ZM998.608 83.1367C998.103 83.1367 997.654 83.0592 997.262 82.9043C996.874 82.7493 996.546 82.526 996.277 82.2344C996.008 81.9382 995.803 81.5804 995.662 81.1611C995.521 80.7419 995.45 80.2633 995.45 79.7256V79.1172C995.45 78.5156 995.519 77.9893 995.655 77.5381C995.792 77.0824 995.986 76.6995 996.236 76.3896C996.487 76.0798 996.795 75.8496 997.159 75.6992C997.528 75.5443 997.945 75.4668 998.41 75.4668C998.875 75.4668 999.283 75.5443 999.634 75.6992C999.989 75.8496 1000.28 76.0775 1000.52 76.3828C1000.75 76.6836 1000.92 77.0573 1001.04 77.5039C1001.16 77.9505 1001.22 78.4701 1001.22 79.0625V79.9375H996.264V78.5908H999.34V78.4199C999.34 78.1191 999.308 77.8685 999.244 77.668C999.18 77.4629 999.08 77.3102 998.943 77.21C998.807 77.1097 998.624 77.0596 998.396 77.0596C998.205 77.0596 998.043 77.0983 997.911 77.1758C997.779 77.2533 997.674 77.374 997.597 77.5381C997.519 77.7021 997.462 77.9163 997.426 78.1807C997.389 78.4404 997.371 78.7526 997.371 79.1172V79.7256C997.371 80.0674 997.401 80.3545 997.46 80.5869C997.519 80.8148 997.606 81.0016 997.72 81.1475C997.838 81.2887 997.982 81.3913 998.15 81.4551C998.319 81.5143 998.515 81.5439 998.738 81.5439C999.076 81.5439 999.379 81.4847 999.647 81.3662C999.921 81.2432 1000.15 81.0768 1000.34 80.8672L1001.11 82.0293C1000.98 82.2025 1000.8 82.3757 1000.56 82.5488C1000.33 82.722 1000.05 82.8633 999.729 82.9727C999.406 83.082 999.032 83.1367 998.608 83.1367ZM1004.21 77.1826V83H1002.29V75.6035H1004.08L1004.21 77.1826ZM1003.92 79.0488L1003.41 79.0625C1003.4 78.5065 1003.45 78.0075 1003.56 77.5654C1003.68 77.1234 1003.85 76.7474 1004.06 76.4375C1004.28 76.123 1004.54 75.8838 1004.84 75.7197C1005.15 75.5511 1005.49 75.4668 1005.86 75.4668C1006.15 75.4668 1006.41 75.5169 1006.65 75.6172C1006.89 75.7174 1007.1 75.877 1007.27 76.0957C1007.44 76.3145 1007.58 76.6061 1007.67 76.9707C1007.77 77.3307 1007.82 77.7728 1007.82 78.2969V83H1005.9V78.2832C1005.9 77.9642 1005.86 77.7181 1005.8 77.5449C1005.74 77.3672 1005.64 77.2441 1005.51 77.1758C1005.39 77.1029 1005.23 77.0664 1005.03 77.0664C1004.85 77.0664 1004.69 77.1188 1004.55 77.2236C1004.41 77.3239 1004.29 77.4629 1004.19 77.6406C1004.1 77.8184 1004.03 78.028 1003.98 78.2695C1003.94 78.5111 1003.92 78.7708 1003.92 79.0488ZM1012.44 75.6035V77.0459H1008.67V75.6035H1012.44ZM1009.54 73.7783H1011.45V80.7441C1011.45 80.9492 1011.47 81.1064 1011.51 81.2158C1011.55 81.3252 1011.61 81.4027 1011.69 81.4482C1011.78 81.4893 1011.89 81.5098 1012.03 81.5098C1012.13 81.5098 1012.22 81.5052 1012.3 81.4961C1012.38 81.4824 1012.44 81.4688 1012.49 81.4551V82.9521C1012.33 83.0114 1012.18 83.057 1012.01 83.0889C1011.84 83.1208 1011.65 83.1367 1011.42 83.1367C1011.04 83.1367 1010.7 83.0638 1010.42 82.918C1010.14 82.7721 1009.93 82.5397 1009.77 82.2207C1009.62 81.8971 1009.54 81.4733 1009.54 80.9492V73.7783Z" fill="#E0E0E9"/>
<path fill-rule="evenodd" clip-rule="evenodd" d="M970 33H680V31H970V33Z" fill="#D0CFD7"/>
<path fill-rule="evenodd" clip-rule="evenodd" d="M338 33H45V31H338V33Z" fill="url(#paint3_linear_1405_1311)"/>
<path fill-rule="evenodd" clip-rule="evenodd" d="M656 33H363V31H656V33Z" fill="url(#paint4_linear_1405_1311)"/>
<g filter="url(#filter0_d_1405_1311)">
<path d="M32 17C23.7125 17 17 23.7125 17 32C17 34.8125 17.7875 37.475 19.175 39.725C20.497 41.9468 22.3748 43.7861 24.6236 45.0617C26.8724 46.3373 29.4146 47.0053 32 47C37.475 47 42.2375 44.075 44.825 39.725C46.2125 37.475 47 34.8125 47 32C47 23.7125 40.2875 17 32 17ZM39.3875 30.7625L31.4 38.15C30.875 38.6375 30.1625 38.9 29.4875 38.9C28.775 38.9 28.0625 38.6375 27.5 38.075L23.7875 34.3625C23.2644 33.8332 22.9711 33.1191 22.9711 32.375C22.9711 31.6309 23.2644 30.9168 23.7875 30.3875C24.875 29.3 26.675 29.3 27.7625 30.3875L29.5625 32.1875L35.5625 26.6375C36.6875 25.5875 38.4875 25.6625 39.5375 26.7875C40.5875 27.9125 40.5125 29.7125 39.3875 30.7625Z" fill="url(#paint5_linear_1405_1311)"/>
</g>
<g filter="url(#filter1_d_1405_1311)">
<path d="M349 17C340.712 17 334 23.7125 334 32C334 34.8125 334.788 37.475 336.175 39.725C337.497 41.9468 339.375 43.7861 341.624 45.0617C343.872 46.3373 346.415 47.0053 349 47C354.475 47 359.238 44.075 361.825 39.725C363.213 37.475 364 34.8125 364 32C364 23.7125 357.288 17 349 17ZM356.387 30.7625L348.4 38.15C347.875 38.6375 347.162 38.9 346.487 38.9C345.775 38.9 345.062 38.6375 344.5 38.075L340.787 34.3625C340.264 33.8332 339.971 33.1191 339.971 32.375C339.971 31.6309 340.264 30.9168 340.787 30.3875C341.875 29.3 343.675 29.3 344.762 30.3875L346.562 32.1875L352.562 26.6375C353.687 25.5875 355.488 25.6625 356.538 26.7875C357.588 27.9125 357.512 29.7125 356.387 30.7625Z" fill="url(#paint6_linear_1405_1311)"/>
</g>
<g filter="url(#filter2_d_1405_1311)">
<path d="M670 17C661.712 17 655 23.7125 655 32C655 34.8125 655.788 37.475 657.175 39.725C658.497 41.9468 660.375 43.7861 662.624 45.0617C664.872 46.3373 667.415 47.0053 670 47C675.475 47 680.238 44.075 682.825 39.725C684.213 37.475 685 34.8125 685 32C685 23.7125 678.288 17 670 17ZM677.387 30.7625L669.4 38.15C668.875 38.6375 668.162 38.9 667.487 38.9C666.775 38.9 666.062 38.6375 665.5 38.075L661.787 34.3625C661.264 33.8332 660.971 33.1191 660.971 32.375C660.971 31.6309 661.264 30.9168 661.787 30.3875C662.875 29.3 664.675 29.3 665.762 30.3875L667.562 32.1875L673.562 26.6375C674.687 25.5875 676.488 25.6625 677.538 26.7875C678.588 27.9125 678.512 29.7125 677.387 30.7625Z" fill="url(#paint7_linear_1405_1311)"/>
</g>
<circle cx="976.5" cy="32.5" r="14.5" fill="#D0CFD7"/>
<defs>
<filter id="filter0_d_1405_1311" x="0" y="0" width="74" height="74" filterUnits="userSpaceOnUse" color-interpolation-filters="sRGB">
<feFlood flood-opacity="0" result="BackgroundImageFix"/>
<feColorMatrix in="SourceAlpha" type="matrix" values="0 0 0 0 0 0 0 0 0 0 0 0 0 0 0 0 0 0 127 0" result="hardAlpha"/>
<feOffset dx="5" dy="5"/>
<feGaussianBlur stdDeviation="11"/>
<feComposite in2="hardAlpha" operator="out"/>
<feColorMatrix type="matrix" values="0 0 0 0 0.0392157 0 0 0 0 0.560784 0 0 0 0 0.309804 0 0 0 0.2 0"/>
<feBlend mode="normal" in2="BackgroundImageFix" result="effect1_dropShadow_1405_1311"/>
<feBlend mode="normal" in="SourceGraphic" in2="effect1_dropShadow_1405_1311" result="shape"/>
</filter>
<filter id="filter1_d_1405_1311" x="317" y="0" width="74" height="74" filterUnits="userSpaceOnUse" color-interpolation-filters="sRGB">
<feFlood flood-opacity="0" result="BackgroundImageFix"/>
<feColorMatrix in="SourceAlpha" type="matrix" values="0 0 0 0 0 0 0 0 0 0 0 0 0 0 0 0 0 0 127 0" result="hardAlpha"/>
<feOffset dx="5" dy="5"/>
<feGaussianBlur stdDeviation="11"/>
<feComposite in2="hardAlpha" operator="out"/>
<feColorMatrix type="matrix" values="0 0 0 0 0.0392157 0 0 0 0 0.560784 0 0 0 0 0.309804 0 0 0 0.2 0"/>
<feBlend mode="normal" in2="BackgroundImageFix" result="effect1_dropShadow_1405_1311"/>
<feBlend mode="normal" in="SourceGraphic" in2="effect1_dropShadow_1405_1311" result="shape"/>
</filter>
<filter id="filter2_d_1405_1311" x="638" y="0" width="74" height="74" filterUnits="userSpaceOnUse" color-interpolation-filters="sRGB">
<feFlood flood-opacity="0" result="BackgroundImageFix"/>
<feColorMatrix in="SourceAlpha" type="matrix" values="0 0 0 0 0 0 0 0 0 0 0 0 0 0 0 0 0 0 127 0" result="hardAlpha"/>
<feOffset dx="5" dy="5"/>
<feGaussianBlur stdDeviation="11"/>
<feComposite in2="hardAlpha" operator="out"/>
<feColorMatrix type="matrix" values="0 0 0 0 0.0392157 0 0 0 0 0.560784 0 0 0 0 0.309804 0 0 0 0.2 0"/>
<feBlend mode="normal" in2="BackgroundImageFix" result="effect1_dropShadow_1405_1311"/>
<feBlend mode="normal" in="SourceGraphic" in2="effect1_dropShadow_1405_1311" result="shape"/>
</filter>
<linearGradient id="paint0_linear_1405_1311" x1="32" y1="85" x2="32" y2="57" gradientUnits="userSpaceOnUse">
<stop stop-color="#5CCC94"/>
<stop offset="1" stop-color="#8CCAAE"/>
</linearGradient>
<linearGradient id="paint1_linear_1405_1311" x1="349.5" y1="77" x2="349.5" y2="57" gradientUnits="userSpaceOnUse">
<stop stop-color="#5CCC94"/>
<stop offset="1" stop-color="#8CCAAE"/>
</linearGradient>
<linearGradient id="paint2_linear_1405_1311" x1="672" y1="77" x2="672" y2="57" gradientUnits="userSpaceOnUse">
<stop stop-color="#5CCC94"/>
<stop offset="1" stop-color="#8CCAAE"/>
</linearGradient>
<linearGradient id="paint3_linear_1405_1311" x1="191.5" y1="33" x2="191.5" y2="31" gradientUnits="userSpaceOnUse">
<stop stop-color="#5CCC94"/>
<stop offset="1" stop-color="#8CCAAE"/>
</linearGradient>
<linearGradient id="paint4_linear_1405_1311" x1="509.5" y1="33" x2="509.5" y2="31" gradientUnits="userSpaceOnUse">
<stop stop-color="#5CCC94"/>
<stop offset="1" stop-color="#8CCAAE"/>
</linearGradient>
<linearGradient id="paint5_linear_1405_1311" x1="32" y1="47" x2="32" y2="17" gradientUnits="userSpaceOnUse">
<stop stop-color="#5CCC94"/>
<stop offset="1" stop-color="#8CCAAE"/>
</linearGradient>
<linearGradient id="paint6_linear_1405_1311" x1="349" y1="47" x2="349" y2="17" gradientUnits="userSpaceOnUse">
<stop stop-color="#5CCC94"/>
<stop offset="1" stop-color="#8CCAAE"/>
</linearGradient>
<linearGradient id="paint7_linear_1405_1311" x1="670" y1="47" x2="670" y2="17" gradientUnits="userSpaceOnUse">
<stop stop-color="#5CCC94"/>
<stop offset="1" stop-color="#8CCAAE"/>
</linearGradient>
</defs>
</svg>
