<svg width="733" height="85" viewBox="0 0 733 85" fill="none" xmlns="http://www.w3.org/2000/svg">
<path d="M40.3291 62.0469H43.5215C44.1868 62.0469 44.7542 62.1608 45.2236 62.3887C45.693 62.6165 46.0531 62.9538 46.3037 63.4004C46.5544 63.847 46.6797 64.3984 46.6797 65.0547C46.6797 65.5924 46.6068 66.0527 46.4609 66.4355C46.3151 66.8138 46.1077 67.1305 45.8389 67.3857C45.57 67.6364 45.2487 67.8369 44.875 67.9873L44.2666 68.3496H41.6758L41.6689 66.6885H43.4668C43.7402 66.6885 43.9658 66.6292 44.1436 66.5107C44.3258 66.3877 44.4603 66.2168 44.5469 65.998C44.638 65.7747 44.6836 65.515 44.6836 65.2188C44.6836 64.9043 44.6426 64.6354 44.5605 64.4121C44.4831 64.1842 44.3577 64.0111 44.1846 63.8926C44.016 63.7695 43.7949 63.708 43.5215 63.708H42.332V72H40.3291V62.0469ZM44.8477 72L43.0225 67.5635L45.1211 67.5566L46.9873 71.9043V72H44.8477ZM50.959 72.1367C50.4531 72.1367 50.0042 72.0592 49.6123 71.9043C49.2249 71.7493 48.8968 71.526 48.6279 71.2344C48.359 70.9382 48.154 70.5804 48.0127 70.1611C47.8714 69.7419 47.8008 69.2633 47.8008 68.7256V68.1172C47.8008 67.5156 47.8691 66.9893 48.0059 66.5381C48.1426 66.0824 48.3363 65.6995 48.5869 65.3896C48.8376 65.0798 49.1452 64.8496 49.5098 64.6992C49.8789 64.5443 50.2959 64.4668 50.7607 64.4668C51.2256 64.4668 51.6335 64.5443 51.9844 64.6992C52.3398 64.8496 52.6338 65.0775 52.8662 65.3828C53.0986 65.6836 53.2741 66.0573 53.3926 66.5039C53.5111 66.9505 53.5703 67.4701 53.5703 68.0625V68.9375H48.6143V67.5908H51.6904V67.4199C51.6904 67.1191 51.6585 66.8685 51.5947 66.668C51.5309 66.4629 51.4307 66.3102 51.2939 66.21C51.1572 66.1097 50.9749 66.0596 50.7471 66.0596C50.5557 66.0596 50.3939 66.0983 50.2617 66.1758C50.1296 66.2533 50.0247 66.374 49.9473 66.5381C49.8698 66.7021 49.8128 66.9163 49.7764 67.1807C49.7399 67.4404 49.7217 67.7526 49.7217 68.1172V68.7256C49.7217 69.0674 49.7513 69.3545 49.8105 69.5869C49.8698 69.8148 49.9564 70.0016 50.0703 70.1475C50.1888 70.2887 50.3324 70.3913 50.501 70.4551C50.6696 70.5143 50.8656 70.5439 51.0889 70.5439C51.4261 70.5439 51.7292 70.4847 51.998 70.3662C52.2715 70.2432 52.5039 70.0768 52.6953 69.8672L53.4609 71.0293C53.3288 71.2025 53.1465 71.3757 52.9141 71.5488C52.6816 71.722 52.4036 71.8633 52.0801 71.9727C51.7565 72.082 51.3828 72.1367 50.959 72.1367ZM56.5576 66.1826V72H54.6367V64.6035H56.4346L56.5576 66.1826ZM56.2705 68.0488L55.7578 68.0625C55.7487 67.5065 55.8011 67.0075 55.915 66.5654C56.0335 66.1234 56.1999 65.7474 56.4141 65.4375C56.6328 65.123 56.8926 64.8838 57.1934 64.7197C57.4987 64.5511 57.8382 64.4668 58.2119 64.4668C58.499 64.4668 58.7611 64.5169 58.998 64.6172C59.2396 64.7174 59.4469 64.877 59.6201 65.0957C59.7933 65.3145 59.9277 65.6061 60.0234 65.9707C60.1191 66.3307 60.167 66.7728 60.167 67.2969V72H58.2461V67.2832C58.2461 66.9642 58.2142 66.7181 58.1504 66.5449C58.0866 66.3672 57.9909 66.2441 57.8633 66.1758C57.7357 66.1029 57.5762 66.0664 57.3848 66.0664C57.2025 66.0664 57.0407 66.1188 56.8994 66.2236C56.7581 66.3239 56.6396 66.4629 56.5439 66.6406C56.4528 66.8184 56.3822 67.028 56.332 67.2695C56.2865 67.5111 56.266 67.7708 56.2705 68.0488ZM65.1504 70.3662V61.5H67.0713V72L65.335 72.0068L65.1504 70.3662ZM61.3154 68.5615V68.0693C61.3154 67.4678 61.3656 66.9414 61.4658 66.4902C61.5706 66.0391 61.7256 65.6631 61.9307 65.3623C62.1357 65.0615 62.3864 64.8382 62.6826 64.6924C62.9834 64.542 63.3275 64.4668 63.7148 64.4668C64.0658 64.4668 64.3734 64.5557 64.6377 64.7334C64.9066 64.9066 65.1344 65.1504 65.3213 65.4648C65.5081 65.7793 65.6585 66.1507 65.7725 66.5791C65.8864 67.0075 65.9661 67.4769 66.0117 67.9873V68.6982C65.957 69.1813 65.8727 69.6325 65.7588 70.0518C65.6494 70.471 65.499 70.8356 65.3076 71.1455C65.1208 71.4554 64.8952 71.6992 64.6309 71.877C64.3665 72.0501 64.0589 72.1367 63.708 72.1367C63.3206 72.1367 62.9766 72.0592 62.6758 71.9043C62.3796 71.7493 62.1289 71.5215 61.9238 71.2207C61.7233 70.9154 61.5706 70.5417 61.4658 70.0996C61.3656 69.653 61.3154 69.1403 61.3154 68.5615ZM63.2295 68.0693V68.5615C63.2295 68.9079 63.2454 69.2064 63.2773 69.457C63.3138 69.7031 63.3708 69.9059 63.4482 70.0654C63.5303 70.2204 63.6374 70.3366 63.7695 70.4141C63.9017 70.487 64.0658 70.5234 64.2617 70.5234C64.5169 70.5234 64.7243 70.4596 64.8838 70.332C65.0433 70.1999 65.1618 70.0199 65.2393 69.792C65.3213 69.5596 65.3669 69.293 65.376 68.9922V67.7002C65.3669 67.4495 65.3372 67.224 65.2871 67.0234C65.237 66.8229 65.1663 66.652 65.0752 66.5107C64.984 66.3695 64.8701 66.2601 64.7334 66.1826C64.6012 66.1051 64.4463 66.0664 64.2686 66.0664C64.0771 66.0664 63.9131 66.1051 63.7764 66.1826C63.6442 66.2601 63.5394 66.3809 63.4619 66.5449C63.3844 66.7044 63.3252 66.9118 63.2842 67.167C63.2477 67.4176 63.2295 67.7184 63.2295 68.0693ZM71.7949 70.0039C71.7949 69.8763 71.7516 69.7624 71.665 69.6621C71.5785 69.5618 71.4417 69.4593 71.2549 69.3545C71.068 69.2451 70.8197 69.1243 70.5098 68.9922C70.1725 68.8555 69.874 68.7142 69.6143 68.5684C69.3545 68.4225 69.1335 68.2607 68.9512 68.083C68.7734 67.9053 68.639 67.7025 68.5479 67.4746C68.4567 67.2467 68.4111 66.987 68.4111 66.6953C68.4111 66.3809 68.4681 66.0915 68.582 65.8271C68.7005 65.5583 68.8691 65.3236 69.0879 65.123C69.3066 64.918 69.5732 64.7585 69.8877 64.6445C70.2067 64.526 70.5645 64.4668 70.9609 64.4668C71.5169 64.4668 71.9932 64.5648 72.3896 64.7607C72.7907 64.9521 73.0983 65.221 73.3125 65.5674C73.5267 65.9137 73.6338 66.3171 73.6338 66.7773H71.7197C71.7197 66.6133 71.6947 66.4674 71.6445 66.3398C71.5944 66.2077 71.5124 66.1051 71.3984 66.0322C71.2891 65.9593 71.141 65.9229 70.9541 65.9229C70.8174 65.9229 70.6943 65.9525 70.585 66.0117C70.4801 66.071 70.3958 66.1507 70.332 66.251C70.2728 66.3467 70.2432 66.4606 70.2432 66.5928C70.2432 66.693 70.2637 66.7819 70.3047 66.8594C70.3503 66.9368 70.4209 67.012 70.5166 67.085C70.6123 67.1579 70.7399 67.2354 70.8994 67.3174C71.0635 67.3949 71.264 67.4814 71.501 67.5771C71.9932 67.7594 72.3965 67.9554 72.7109 68.165C73.0299 68.3747 73.2669 68.6208 73.4219 68.9033C73.5768 69.1813 73.6543 69.5254 73.6543 69.9355C73.6543 70.2637 73.5905 70.5622 73.4629 70.8311C73.3398 71.0999 73.1598 71.3324 72.9229 71.5283C72.6859 71.7243 72.401 71.8747 72.0684 71.9795C71.7402 72.0843 71.3734 72.1367 70.9678 72.1367C70.3708 72.1367 69.8672 72.0182 69.457 71.7812C69.0469 71.5443 68.737 71.2412 68.5273 70.8721C68.3177 70.4984 68.2129 70.111 68.2129 69.71H70.0312C70.0404 69.9561 70.0859 70.1497 70.168 70.291C70.2546 70.4277 70.3708 70.5234 70.5166 70.5781C70.6624 70.6328 70.8242 70.6602 71.002 70.6602C71.1797 70.6602 71.3255 70.6374 71.4395 70.5918C71.5579 70.5417 71.6468 70.4665 71.7061 70.3662C71.7653 70.2614 71.7949 70.1406 71.7949 70.0039ZM79.9297 70.4072V72H75.2334V70.4072H79.9297ZM79.8818 65.7656L75.9854 72H74.707V70.7969L78.583 64.6035H79.8818V65.7656ZM79.2119 64.6035V66.1963H74.7822V64.6035H79.2119ZM84.4619 70.2979V66.8799C84.4619 66.6566 84.4346 66.4788 84.3799 66.3467C84.3298 66.2145 84.2523 66.1188 84.1475 66.0596C84.0472 65.9958 83.9242 65.9639 83.7783 65.9639C83.6143 65.9639 83.4775 65.998 83.3682 66.0664C83.2588 66.1348 83.1768 66.2327 83.1221 66.3604C83.0719 66.488 83.0469 66.6406 83.0469 66.8184H81.126C81.126 66.4993 81.1875 66.1986 81.3105 65.916C81.4336 65.6289 81.6136 65.3783 81.8506 65.1641C82.0921 64.9453 82.3792 64.7744 82.7119 64.6514C83.0446 64.5283 83.4183 64.4668 83.833 64.4668C84.3252 64.4668 84.7627 64.5511 85.1455 64.7197C85.5283 64.8838 85.8314 65.1458 86.0547 65.5059C86.278 65.8659 86.3896 66.333 86.3896 66.9072V70.2021C86.3896 70.6169 86.4102 70.9541 86.4512 71.2139C86.4967 71.4736 86.5628 71.6969 86.6494 71.8838V72H84.7217C84.6351 71.7949 84.569 71.5397 84.5234 71.2344C84.4824 70.9245 84.4619 70.6123 84.4619 70.2979ZM84.6943 67.4814L84.7012 68.6299H83.9971C83.8148 68.6299 83.6553 68.6595 83.5186 68.7188C83.3864 68.778 83.2747 68.8623 83.1836 68.9717C83.0924 69.0765 83.0241 69.1995 82.9785 69.3408C82.9375 69.4821 82.917 69.6325 82.917 69.792C82.917 69.9697 82.9421 70.1201 82.9922 70.2432C83.0423 70.3662 83.1175 70.4596 83.2178 70.5234C83.318 70.5872 83.4365 70.6191 83.5732 70.6191C83.7829 70.6191 83.9652 70.5758 84.1201 70.4893C84.2751 70.4027 84.389 70.2979 84.4619 70.1748C84.5394 70.0518 84.5645 69.9378 84.5371 69.833L84.9746 70.5781C84.9199 70.7467 84.8447 70.9222 84.749 71.1045C84.6579 71.2868 84.5417 71.4554 84.4004 71.6104C84.2591 71.7653 84.0837 71.8929 83.874 71.9932C83.6689 72.0889 83.4251 72.1367 83.1426 72.1367C82.7461 72.1367 82.3838 72.0456 82.0557 71.8633C81.7275 71.681 81.4678 71.4258 81.2764 71.0977C81.0895 70.7695 80.9961 70.3799 80.9961 69.9287C80.9961 69.555 81.0553 69.2178 81.1738 68.917C81.2969 68.6117 81.4792 68.3542 81.7207 68.1445C81.9622 67.9303 82.2676 67.7663 82.6367 67.6523C83.0059 67.5384 83.4388 67.4814 83.9355 67.4814H84.6943ZM82.8213 63.6123L84.1611 61.5H86.3145L84.4277 63.6123H82.8213ZM89.7324 66.1348V72H87.8115V64.6035H89.6162L89.7324 66.1348ZM89.459 68.0488L88.9326 68.0625C88.9235 67.543 88.9691 67.0645 89.0693 66.627C89.1696 66.1895 89.32 65.8089 89.5205 65.4854C89.7256 65.1618 89.9831 64.9111 90.293 64.7334C90.6029 64.5557 90.9652 64.4668 91.3799 64.4668C91.6488 64.4668 91.8971 64.5169 92.125 64.6172C92.3529 64.7129 92.5511 64.8656 92.7197 65.0752C92.8883 65.2803 93.0182 65.5492 93.1094 65.8818C93.2005 66.21 93.2461 66.6042 93.2461 67.0645V72H91.332V67.2969C91.332 66.9688 91.3001 66.7181 91.2363 66.5449C91.1725 66.3672 91.0814 66.2441 90.9629 66.1758C90.8444 66.1029 90.6986 66.0664 90.5254 66.0664C90.3431 66.0664 90.1836 66.1165 90.0469 66.2168C89.9102 66.3171 89.7985 66.4583 89.7119 66.6406C89.6299 66.8184 89.5661 67.028 89.5205 67.2695C89.4795 67.5111 89.459 67.7708 89.459 68.0488ZM93.0615 67.8574L92.3711 67.9463C92.362 67.4587 92.4053 67.0052 92.501 66.5859C92.5967 66.1621 92.7448 65.793 92.9453 65.4785C93.1458 65.1595 93.3965 64.9111 93.6973 64.7334C94.0026 64.5557 94.3558 64.4668 94.7568 64.4668C95.0576 64.4668 95.3311 64.5169 95.5771 64.6172C95.8232 64.7174 96.0329 64.8792 96.2061 65.1025C96.3838 65.3213 96.5182 65.6107 96.6094 65.9707C96.7051 66.3307 96.7529 66.7682 96.7529 67.2832V72H94.832V67.29C94.832 66.9574 94.8001 66.7021 94.7363 66.5244C94.6725 66.3467 94.5814 66.2259 94.4629 66.1621C94.3444 66.0983 94.2031 66.0664 94.0391 66.0664C93.875 66.0664 93.7314 66.112 93.6084 66.2031C93.4899 66.2943 93.3896 66.4219 93.3076 66.5859C93.2256 66.7454 93.1641 66.9346 93.123 67.1533C93.082 67.3675 93.0615 67.6022 93.0615 67.8574Z" fill="url(#paint0_linear_366_1426)"/>
<path d="M365.364 69.3818C365.364 69.2041 365.348 69.0423 365.316 68.8965C365.285 68.7507 365.216 68.6162 365.111 68.4932C365.011 68.3701 364.863 68.2471 364.667 68.124C364.476 68.001 364.225 67.8734 363.915 67.7412C363.546 67.5863 363.188 67.4222 362.842 67.249C362.495 67.0713 362.183 66.8662 361.905 66.6338C361.627 66.4014 361.406 66.1279 361.242 65.8135C361.083 65.4945 361.003 65.1208 361.003 64.6924C361.003 64.2731 361.078 63.8926 361.229 63.5508C361.383 63.209 361.602 62.9173 361.885 62.6758C362.167 62.4297 362.498 62.2406 362.876 62.1084C363.259 61.9762 363.685 61.9102 364.154 61.9102C364.792 61.9102 365.344 62.0423 365.809 62.3066C366.278 62.571 366.64 62.9333 366.896 63.3936C367.155 63.8538 367.285 64.3825 367.285 64.9795H365.289C365.289 64.6969 365.248 64.4486 365.166 64.2344C365.089 64.0156 364.963 63.8447 364.79 63.7217C364.617 63.5986 364.394 63.5371 364.12 63.5371C363.865 63.5371 363.653 63.5895 363.484 63.6943C363.32 63.7946 363.197 63.9336 363.115 64.1113C363.038 64.2845 362.999 64.4805 362.999 64.6992C362.999 64.8633 363.038 65.0114 363.115 65.1436C363.197 65.2712 363.309 65.3874 363.45 65.4922C363.591 65.5924 363.758 65.6904 363.949 65.7861C364.145 65.8818 364.359 65.9753 364.592 66.0664C365.043 66.2441 365.442 66.4401 365.788 66.6543C366.134 66.8639 366.424 67.1009 366.656 67.3652C366.889 67.625 367.064 67.9189 367.183 68.2471C367.301 68.5752 367.36 68.9489 367.36 69.3682C367.36 69.7829 367.287 70.1611 367.142 70.5029C367 70.8402 366.793 71.1318 366.52 71.3779C366.246 71.6195 365.916 71.8063 365.528 71.9385C365.146 72.0706 364.717 72.1367 364.243 72.1367C363.783 72.1367 363.348 72.0729 362.938 71.9453C362.527 71.8132 362.165 71.6149 361.851 71.3506C361.541 71.0817 361.297 70.7422 361.119 70.332C360.941 69.9173 360.853 69.4274 360.853 68.8623H362.855C362.855 69.1631 362.885 69.4206 362.944 69.6348C363.004 69.8444 363.095 70.013 363.218 70.1406C363.341 70.2637 363.491 70.3571 363.669 70.4209C363.851 70.4801 364.059 70.5098 364.291 70.5098C364.555 70.5098 364.765 70.4596 364.92 70.3594C365.079 70.2591 365.193 70.1247 365.262 69.9561C365.33 69.7874 365.364 69.596 365.364 69.3818ZM373.677 70.4072V72H368.98V70.4072H373.677ZM373.629 65.7656L369.732 72H368.454V70.7969L372.33 64.6035H373.629V65.7656ZM372.959 64.6035V66.1963H368.529V64.6035H372.959ZM378.209 70.2979V66.8799C378.209 66.6566 378.182 66.4788 378.127 66.3467C378.077 66.2145 377.999 66.1188 377.895 66.0596C377.794 65.9958 377.671 65.9639 377.525 65.9639C377.361 65.9639 377.225 65.998 377.115 66.0664C377.006 66.1348 376.924 66.2327 376.869 66.3604C376.819 66.488 376.794 66.6406 376.794 66.8184H374.873C374.873 66.4993 374.935 66.1986 375.058 65.916C375.181 65.6289 375.361 65.3783 375.598 65.1641C375.839 64.9453 376.126 64.7744 376.459 64.6514C376.792 64.5283 377.165 64.4668 377.58 64.4668C378.072 64.4668 378.51 64.5511 378.893 64.7197C379.275 64.8838 379.578 65.1458 379.802 65.5059C380.025 65.8659 380.137 66.333 380.137 66.9072V70.2021C380.137 70.6169 380.157 70.9541 380.198 71.2139C380.244 71.4736 380.31 71.6969 380.396 71.8838V72H378.469C378.382 71.7949 378.316 71.5397 378.271 71.2344C378.229 70.9245 378.209 70.6123 378.209 70.2979ZM378.441 67.4814L378.448 68.6299H377.744C377.562 68.6299 377.402 68.6595 377.266 68.7188C377.133 68.778 377.022 68.8623 376.931 68.9717C376.84 69.0765 376.771 69.1995 376.726 69.3408C376.685 69.4821 376.664 69.6325 376.664 69.792C376.664 69.9697 376.689 70.1201 376.739 70.2432C376.789 70.3662 376.865 70.4596 376.965 70.5234C377.065 70.5872 377.184 70.6191 377.32 70.6191C377.53 70.6191 377.712 70.5758 377.867 70.4893C378.022 70.4027 378.136 70.2979 378.209 70.1748C378.286 70.0518 378.312 69.9378 378.284 69.833L378.722 70.5781C378.667 70.7467 378.592 70.9222 378.496 71.1045C378.405 71.2868 378.289 71.4554 378.147 71.6104C378.006 71.7653 377.831 71.8929 377.621 71.9932C377.416 72.0889 377.172 72.1367 376.89 72.1367C376.493 72.1367 376.131 72.0456 375.803 71.8633C375.475 71.681 375.215 71.4258 375.023 71.0977C374.837 70.7695 374.743 70.3799 374.743 69.9287C374.743 69.555 374.802 69.2178 374.921 68.917C375.044 68.6117 375.226 68.3542 375.468 68.1445C375.709 67.9303 376.015 67.7663 376.384 67.6523C376.753 67.5384 377.186 67.4814 377.683 67.4814H378.441ZM376.568 63.6123L377.908 61.5H380.062L378.175 63.6123H376.568ZM383.479 66.1348V72H381.559V64.6035H383.363L383.479 66.1348ZM383.206 68.0488L382.68 68.0625C382.671 67.543 382.716 67.0645 382.816 66.627C382.917 66.1895 383.067 65.8089 383.268 65.4854C383.473 65.1618 383.73 64.9111 384.04 64.7334C384.35 64.5557 384.712 64.4668 385.127 64.4668C385.396 64.4668 385.644 64.5169 385.872 64.6172C386.1 64.7129 386.298 64.8656 386.467 65.0752C386.635 65.2803 386.765 65.5492 386.856 65.8818C386.948 66.21 386.993 66.6042 386.993 67.0645V72H385.079V67.2969C385.079 66.9688 385.047 66.7181 384.983 66.5449C384.92 66.3672 384.828 66.2441 384.71 66.1758C384.591 66.1029 384.446 66.0664 384.272 66.0664C384.09 66.0664 383.931 66.1165 383.794 66.2168C383.657 66.3171 383.546 66.4583 383.459 66.6406C383.377 66.8184 383.313 67.028 383.268 67.2695C383.227 67.5111 383.206 67.7708 383.206 68.0488ZM386.809 67.8574L386.118 67.9463C386.109 67.4587 386.152 67.0052 386.248 66.5859C386.344 66.1621 386.492 65.793 386.692 65.4785C386.893 65.1595 387.144 64.9111 387.444 64.7334C387.75 64.5557 388.103 64.4668 388.504 64.4668C388.805 64.4668 389.078 64.5169 389.324 64.6172C389.57 64.7174 389.78 64.8792 389.953 65.1025C390.131 65.3213 390.265 65.6107 390.356 65.9707C390.452 66.3307 390.5 66.7682 390.5 67.2832V72H388.579V67.29C388.579 66.9574 388.547 66.7021 388.483 66.5244C388.42 66.3467 388.328 66.2259 388.21 66.1621C388.091 66.0983 387.95 66.0664 387.786 66.0664C387.622 66.0664 387.479 66.112 387.355 66.2031C387.237 66.2943 387.137 66.4219 387.055 66.5859C386.973 66.7454 386.911 66.9346 386.87 67.1533C386.829 67.3675 386.809 67.6022 386.809 67.8574ZM393.952 61.5V72H392.031V61.5H393.952ZM398.73 70.2979V66.8799C398.73 66.6566 398.703 66.4788 398.648 66.3467C398.598 66.2145 398.521 66.1188 398.416 66.0596C398.316 65.9958 398.193 65.9639 398.047 65.9639C397.883 65.9639 397.746 65.998 397.637 66.0664C397.527 66.1348 397.445 66.2327 397.391 66.3604C397.34 66.488 397.315 66.6406 397.315 66.8184H395.395C395.395 66.4993 395.456 66.1986 395.579 65.916C395.702 65.6289 395.882 65.3783 396.119 65.1641C396.361 64.9453 396.648 64.7744 396.98 64.6514C397.313 64.5283 397.687 64.4668 398.102 64.4668C398.594 64.4668 399.031 64.5511 399.414 64.7197C399.797 64.8838 400.1 65.1458 400.323 65.5059C400.547 65.8659 400.658 66.333 400.658 66.9072V70.2021C400.658 70.6169 400.679 70.9541 400.72 71.2139C400.765 71.4736 400.831 71.6969 400.918 71.8838V72H398.99C398.904 71.7949 398.838 71.5397 398.792 71.2344C398.751 70.9245 398.73 70.6123 398.73 70.2979ZM398.963 67.4814L398.97 68.6299H398.266C398.083 68.6299 397.924 68.6595 397.787 68.7188C397.655 68.778 397.543 68.8623 397.452 68.9717C397.361 69.0765 397.293 69.1995 397.247 69.3408C397.206 69.4821 397.186 69.6325 397.186 69.792C397.186 69.9697 397.211 70.1201 397.261 70.2432C397.311 70.3662 397.386 70.4596 397.486 70.5234C397.587 70.5872 397.705 70.6191 397.842 70.6191C398.051 70.6191 398.234 70.5758 398.389 70.4893C398.544 70.4027 398.658 70.2979 398.73 70.1748C398.808 70.0518 398.833 69.9378 398.806 69.833L399.243 70.5781C399.188 70.7467 399.113 70.9222 399.018 71.1045C398.926 71.2868 398.81 71.4554 398.669 71.6104C398.528 71.7653 398.352 71.8929 398.143 71.9932C397.938 72.0889 397.694 72.1367 397.411 72.1367C397.015 72.1367 396.652 72.0456 396.324 71.8633C395.996 71.681 395.736 71.4258 395.545 71.0977C395.358 70.7695 395.265 70.3799 395.265 69.9287C395.265 69.555 395.324 69.2178 395.442 68.917C395.565 68.6117 395.748 68.3542 395.989 68.1445C396.231 67.9303 396.536 67.7663 396.905 67.6523C397.274 67.5384 397.707 67.4814 398.204 67.4814H398.963ZM397.09 63.6123L398.43 61.5H400.583L398.696 63.6123H397.09ZM407.132 70.4072V72H402.436V70.4072H407.132ZM407.084 65.7656L403.188 72H401.909V70.7969L405.785 64.6035H407.084V65.7656ZM406.414 64.6035V66.1963H401.984V64.6035H406.414ZM411.664 70.2979V66.8799C411.664 66.6566 411.637 66.4788 411.582 66.3467C411.532 66.2145 411.454 66.1188 411.35 66.0596C411.249 65.9958 411.126 65.9639 410.98 65.9639C410.816 65.9639 410.68 65.998 410.57 66.0664C410.461 66.1348 410.379 66.2327 410.324 66.3604C410.274 66.488 410.249 66.6406 410.249 66.8184H408.328C408.328 66.4993 408.39 66.1986 408.513 65.916C408.636 65.6289 408.816 65.3783 409.053 65.1641C409.294 64.9453 409.581 64.7744 409.914 64.6514C410.247 64.5283 410.62 64.4668 411.035 64.4668C411.527 64.4668 411.965 64.5511 412.348 64.7197C412.73 64.8838 413.034 65.1458 413.257 65.5059C413.48 65.8659 413.592 66.333 413.592 66.9072V70.2021C413.592 70.6169 413.612 70.9541 413.653 71.2139C413.699 71.4736 413.765 71.6969 413.852 71.8838V72H411.924C411.837 71.7949 411.771 71.5397 411.726 71.2344C411.685 70.9245 411.664 70.6123 411.664 70.2979ZM411.896 67.4814L411.903 68.6299H411.199C411.017 68.6299 410.857 68.6595 410.721 68.7188C410.589 68.778 410.477 68.8623 410.386 68.9717C410.295 69.0765 410.226 69.1995 410.181 69.3408C410.14 69.4821 410.119 69.6325 410.119 69.792C410.119 69.9697 410.144 70.1201 410.194 70.2432C410.244 70.3662 410.32 70.4596 410.42 70.5234C410.52 70.5872 410.639 70.6191 410.775 70.6191C410.985 70.6191 411.167 70.5758 411.322 70.4893C411.477 70.4027 411.591 70.2979 411.664 70.1748C411.742 70.0518 411.767 69.9378 411.739 69.833L412.177 70.5781C412.122 70.7467 412.047 70.9222 411.951 71.1045C411.86 71.2868 411.744 71.4554 411.603 71.6104C411.461 71.7653 411.286 71.8929 411.076 71.9932C410.871 72.0889 410.627 72.1367 410.345 72.1367C409.948 72.1367 409.586 72.0456 409.258 71.8633C408.93 71.681 408.67 71.4258 408.479 71.0977C408.292 70.7695 408.198 70.3799 408.198 69.9287C408.198 69.555 408.257 69.2178 408.376 68.917C408.499 68.6117 408.681 68.3542 408.923 68.1445C409.164 67.9303 409.47 67.7663 409.839 67.6523C410.208 67.5384 410.641 67.4814 411.138 67.4814H411.896ZM410.023 63.6123L411.363 61.5H413.517L411.63 63.6123H410.023ZM418.288 70.0039C418.288 69.8763 418.245 69.7624 418.158 69.6621C418.072 69.5618 417.935 69.4593 417.748 69.3545C417.561 69.2451 417.313 69.1243 417.003 68.9922C416.666 68.8555 416.367 68.7142 416.107 68.5684C415.848 68.4225 415.627 68.2607 415.444 68.083C415.267 67.9053 415.132 67.7025 415.041 67.4746C414.95 67.2467 414.904 66.987 414.904 66.6953C414.904 66.3809 414.961 66.0915 415.075 65.8271C415.194 65.5583 415.362 65.3236 415.581 65.123C415.8 64.918 416.066 64.7585 416.381 64.6445C416.7 64.526 417.058 64.4668 417.454 64.4668C418.01 64.4668 418.486 64.5648 418.883 64.7607C419.284 64.9521 419.591 65.221 419.806 65.5674C420.02 65.9137 420.127 66.3171 420.127 66.7773H418.213C418.213 66.6133 418.188 66.4674 418.138 66.3398C418.088 66.2077 418.006 66.1051 417.892 66.0322C417.782 65.9593 417.634 65.9229 417.447 65.9229C417.311 65.9229 417.188 65.9525 417.078 66.0117C416.973 66.071 416.889 66.1507 416.825 66.251C416.766 66.3467 416.736 66.4606 416.736 66.5928C416.736 66.693 416.757 66.7819 416.798 66.8594C416.843 66.9368 416.914 67.012 417.01 67.085C417.105 67.1579 417.233 67.2354 417.393 67.3174C417.557 67.3949 417.757 67.4814 417.994 67.5771C418.486 67.7594 418.89 67.9554 419.204 68.165C419.523 68.3747 419.76 68.6208 419.915 68.9033C420.07 69.1813 420.147 69.5254 420.147 69.9355C420.147 70.2637 420.084 70.5622 419.956 70.8311C419.833 71.0999 419.653 71.3324 419.416 71.5283C419.179 71.7243 418.894 71.8747 418.562 71.9795C418.233 72.0843 417.867 72.1367 417.461 72.1367C416.864 72.1367 416.36 72.0182 415.95 71.7812C415.54 71.5443 415.23 71.2412 415.021 70.8721C414.811 70.4984 414.706 70.111 414.706 69.71H416.524C416.534 69.9561 416.579 70.1497 416.661 70.291C416.748 70.4277 416.864 70.5234 417.01 70.5781C417.156 70.6328 417.317 70.6602 417.495 70.6602C417.673 70.6602 417.819 70.6374 417.933 70.5918C418.051 70.5417 418.14 70.4665 418.199 70.3662C418.258 70.2614 418.288 70.1406 418.288 70.0039Z" fill="#E0E0E9"/>
<path d="M674.312 67.3457V69H669.984V67.3457H674.312ZM670.606 59.0469V69H668.604V59.0469H670.606ZM673.73 63.0801V64.6865H669.984V63.0801H673.73ZM674.298 59.0469V60.708H669.984V59.0469H674.298ZM677.395 58.5V69H675.474V58.5H677.395ZM680.922 58.5V69H679.001V58.5H680.922ZM685.42 69.1367C684.914 69.1367 684.465 69.0592 684.073 68.9043C683.686 68.7493 683.358 68.526 683.089 68.2344C682.82 67.9382 682.615 67.5804 682.474 67.1611C682.332 66.7419 682.262 66.2633 682.262 65.7256V65.1172C682.262 64.5156 682.33 63.9893 682.467 63.5381C682.604 63.0824 682.797 62.6995 683.048 62.3896C683.299 62.0798 683.606 61.8496 683.971 61.6992C684.34 61.5443 684.757 61.4668 685.222 61.4668C685.687 61.4668 686.094 61.5443 686.445 61.6992C686.801 61.8496 687.095 62.0775 687.327 62.3828C687.56 62.6836 687.735 63.0573 687.854 63.5039C687.972 63.9505 688.031 64.4701 688.031 65.0625V65.9375H683.075V64.5908H686.151V64.4199C686.151 64.1191 686.119 63.8685 686.056 63.668C685.992 63.4629 685.892 63.3102 685.755 63.21C685.618 63.1097 685.436 63.0596 685.208 63.0596C685.017 63.0596 684.855 63.0983 684.723 63.1758C684.59 63.2533 684.486 63.374 684.408 63.5381C684.331 63.7021 684.274 63.9163 684.237 64.1807C684.201 64.4404 684.183 64.7526 684.183 65.1172V65.7256C684.183 66.0674 684.212 66.3545 684.271 66.5869C684.331 66.8148 684.417 67.0016 684.531 67.1475C684.65 67.2887 684.793 67.3913 684.962 67.4551C685.131 67.5143 685.326 67.5439 685.55 67.5439C685.887 67.5439 686.19 67.4847 686.459 67.3662C686.732 67.2432 686.965 67.0768 687.156 66.8672L687.922 68.0293C687.79 68.2025 687.607 68.3757 687.375 68.5488C687.143 68.722 686.865 68.8633 686.541 68.9727C686.217 69.082 685.844 69.1367 685.42 69.1367ZM691.019 63.1826V69H689.098V61.6035H690.896L691.019 63.1826ZM690.731 65.0488L690.219 65.0625C690.21 64.5065 690.262 64.0075 690.376 63.5654C690.494 63.1234 690.661 62.7474 690.875 62.4375C691.094 62.123 691.354 61.8838 691.654 61.7197C691.96 61.5511 692.299 61.4668 692.673 61.4668C692.96 61.4668 693.222 61.5169 693.459 61.6172C693.701 61.7174 693.908 61.877 694.081 62.0957C694.254 62.3145 694.389 62.6061 694.484 62.9707C694.58 63.3307 694.628 63.7728 694.628 64.2969V69H692.707V64.2832C692.707 63.9642 692.675 63.7181 692.611 63.5449C692.548 63.3672 692.452 63.2441 692.324 63.1758C692.197 63.1029 692.037 63.0664 691.846 63.0664C691.663 63.0664 691.502 63.1188 691.36 63.2236C691.219 63.3239 691.101 63.4629 691.005 63.6406C690.914 63.8184 690.843 64.028 690.793 64.2695C690.747 64.5111 690.727 64.7708 690.731 65.0488ZM695.811 65.5547V65.0557C695.811 64.4769 695.879 63.9642 696.016 63.5176C696.157 63.071 696.357 62.6973 696.617 62.3965C696.877 62.0911 697.189 61.861 697.554 61.7061C697.923 61.5465 698.335 61.4668 698.791 61.4668C699.251 61.4668 699.664 61.5465 700.028 61.7061C700.397 61.861 700.712 62.0911 700.972 62.3965C701.236 62.6973 701.439 63.071 701.58 63.5176C701.721 63.9642 701.792 64.4769 701.792 65.0557V65.5547C701.792 66.1289 701.721 66.6393 701.58 67.0859C701.439 67.5326 701.236 67.9085 700.972 68.2139C700.712 68.5192 700.4 68.7493 700.035 68.9043C699.671 69.0592 699.26 69.1367 698.805 69.1367C698.349 69.1367 697.937 69.0592 697.567 68.9043C697.203 68.7493 696.888 68.5192 696.624 68.2139C696.36 67.9085 696.157 67.5326 696.016 67.0859C695.879 66.6393 695.811 66.1289 695.811 65.5547ZM697.725 65.0557V65.5547C697.725 65.8965 697.747 66.1927 697.793 66.4434C697.843 66.694 697.914 66.9014 698.005 67.0654C698.101 67.2295 698.215 67.3503 698.347 67.4277C698.479 67.5052 698.632 67.5439 698.805 67.5439C698.978 67.5439 699.133 67.5052 699.27 67.4277C699.406 67.3503 699.518 67.2295 699.604 67.0654C699.696 66.9014 699.762 66.694 699.803 66.4434C699.848 66.1927 699.871 65.8965 699.871 65.5547V65.0557C699.871 64.723 699.846 64.4313 699.796 64.1807C699.746 63.9255 699.675 63.7181 699.584 63.5586C699.493 63.3945 699.379 63.2715 699.242 63.1895C699.11 63.1029 698.96 63.0596 698.791 63.0596C698.622 63.0596 698.472 63.1029 698.34 63.1895C698.212 63.2715 698.101 63.3945 698.005 63.5586C697.914 63.7181 697.843 63.9255 697.793 64.1807C697.747 64.4313 697.725 64.723 697.725 65.0557ZM699.051 60.5645L700.274 58.5068H701.949L700.445 60.5645H699.051ZM696.884 60.5645L697.902 58.5068H699.563L698.258 60.5645H696.884ZM704.916 63.251V69H703.002V61.6035H704.807L704.916 63.251ZM706.659 61.5488L706.632 63.4561C706.545 63.4378 706.44 63.4242 706.317 63.415C706.199 63.4059 706.094 63.4014 706.003 63.4014C705.789 63.4014 705.606 63.4355 705.456 63.5039C705.306 63.5677 705.18 63.6657 705.08 63.7979C704.984 63.9255 704.911 64.085 704.861 64.2764C704.811 64.4678 704.782 64.6842 704.772 64.9258L704.41 64.7891C704.41 64.306 704.447 63.8639 704.52 63.4629C704.597 63.0573 704.711 62.7064 704.861 62.4102C705.012 62.1094 705.192 61.877 705.401 61.7129C705.616 61.5488 705.857 61.4668 706.126 61.4668C706.217 61.4668 706.313 61.4759 706.413 61.4941C706.518 61.5078 706.6 61.526 706.659 61.5488ZM712.695 67.4072V69H707.999V67.4072H712.695ZM712.647 62.7656L708.751 69H707.473V67.7969L711.349 61.6035H712.647V62.7656ZM711.978 61.6035V63.1963H707.548V61.6035H711.978ZM716.838 69.1367C716.332 69.1367 715.883 69.0592 715.491 68.9043C715.104 68.7493 714.776 68.526 714.507 68.2344C714.238 67.9382 714.033 67.5804 713.892 67.1611C713.75 66.7419 713.68 66.2633 713.68 65.7256V65.1172C713.68 64.5156 713.748 63.9893 713.885 63.5381C714.021 63.0824 714.215 62.6995 714.466 62.3896C714.716 62.0798 715.024 61.8496 715.389 61.6992C715.758 61.5443 716.175 61.4668 716.64 61.4668C717.104 61.4668 717.512 61.5443 717.863 61.6992C718.219 61.8496 718.513 62.0775 718.745 62.3828C718.978 62.6836 719.153 63.0573 719.271 63.5039C719.39 63.9505 719.449 64.4701 719.449 65.0625V65.9375H714.493V64.5908H717.569V64.4199C717.569 64.1191 717.537 63.8685 717.474 63.668C717.41 63.4629 717.31 63.3102 717.173 63.21C717.036 63.1097 716.854 63.0596 716.626 63.0596C716.435 63.0596 716.273 63.0983 716.141 63.1758C716.008 63.2533 715.904 63.374 715.826 63.5381C715.749 63.7021 715.692 63.9163 715.655 64.1807C715.619 64.4404 715.601 64.7526 715.601 65.1172V65.7256C715.601 66.0674 715.63 66.3545 715.689 66.5869C715.749 66.8148 715.835 67.0016 715.949 67.1475C716.068 67.2887 716.211 67.3913 716.38 67.4551C716.549 67.5143 716.744 67.5439 716.968 67.5439C717.305 67.5439 717.608 67.4847 717.877 67.3662C718.15 67.2432 718.383 67.0768 718.574 66.8672L719.34 68.0293C719.208 68.2025 719.025 68.3757 718.793 68.5488C718.561 68.722 718.283 68.8633 717.959 68.9727C717.635 69.082 717.262 69.1367 716.838 69.1367ZM715.443 60.6055L716.783 58.4932H718.937L717.05 60.6055H715.443ZM723.838 67.0039C723.838 66.8763 723.795 66.7624 723.708 66.6621C723.621 66.5618 723.485 66.4593 723.298 66.3545C723.111 66.2451 722.863 66.1243 722.553 65.9922C722.215 65.8555 721.917 65.7142 721.657 65.5684C721.397 65.4225 721.176 65.2607 720.994 65.083C720.816 64.9053 720.682 64.7025 720.591 64.4746C720.5 64.2467 720.454 63.987 720.454 63.6953C720.454 63.3809 720.511 63.0915 720.625 62.8271C720.743 62.5583 720.912 62.3236 721.131 62.123C721.35 61.918 721.616 61.7585 721.931 61.6445C722.25 61.526 722.607 61.4668 723.004 61.4668C723.56 61.4668 724.036 61.5648 724.433 61.7607C724.834 61.9521 725.141 62.221 725.355 62.5674C725.57 62.9137 725.677 63.3171 725.677 63.7773H723.763C723.763 63.6133 723.738 63.4674 723.688 63.3398C723.637 63.2077 723.555 63.1051 723.441 63.0322C723.332 62.9593 723.184 62.9229 722.997 62.9229C722.86 62.9229 722.737 62.9525 722.628 63.0117C722.523 63.071 722.439 63.1507 722.375 63.251C722.316 63.3467 722.286 63.4606 722.286 63.5928C722.286 63.693 722.307 63.7819 722.348 63.8594C722.393 63.9368 722.464 64.012 722.56 64.085C722.655 64.1579 722.783 64.2354 722.942 64.3174C723.106 64.3949 723.307 64.4814 723.544 64.5771C724.036 64.7594 724.439 64.9554 724.754 65.165C725.073 65.3747 725.31 65.6208 725.465 65.9033C725.62 66.1813 725.697 66.5254 725.697 66.9355C725.697 67.2637 725.633 67.5622 725.506 67.8311C725.383 68.0999 725.203 68.3324 724.966 68.5283C724.729 68.7243 724.444 68.8747 724.111 68.9795C723.783 69.0843 723.416 69.1367 723.011 69.1367C722.414 69.1367 721.91 69.0182 721.5 68.7812C721.09 68.5443 720.78 68.2412 720.57 67.8721C720.361 67.4984 720.256 67.111 720.256 66.71H722.074C722.083 66.9561 722.129 67.1497 722.211 67.291C722.298 67.4277 722.414 67.5234 722.56 67.5781C722.705 67.6328 722.867 67.6602 723.045 67.6602C723.223 67.6602 723.368 67.6374 723.482 67.5918C723.601 67.5417 723.69 67.4665 723.749 67.3662C723.808 67.2614 723.838 67.1406 723.838 67.0039ZM673.601 83.1367C673.095 83.1367 672.646 83.0592 672.254 82.9043C671.867 82.7493 671.538 82.526 671.27 82.2344C671.001 81.9382 670.796 81.5804 670.654 81.1611C670.513 80.7419 670.442 80.2633 670.442 79.7256V79.1172C670.442 78.5156 670.511 77.9893 670.647 77.5381C670.784 77.0824 670.978 76.6995 671.229 76.3896C671.479 76.0798 671.787 75.8496 672.151 75.6992C672.521 75.5443 672.938 75.4668 673.402 75.4668C673.867 75.4668 674.275 75.5443 674.626 75.6992C674.981 75.8496 675.275 76.0775 675.508 76.3828C675.74 76.6836 675.916 77.0573 676.034 77.5039C676.153 77.9505 676.212 78.4701 676.212 79.0625V79.9375H671.256V78.5908H674.332V78.4199C674.332 78.1191 674.3 77.8685 674.236 77.668C674.173 77.4629 674.072 77.3102 673.936 77.21C673.799 77.1097 673.617 77.0596 673.389 77.0596C673.197 77.0596 673.035 77.0983 672.903 77.1758C672.771 77.2533 672.666 77.374 672.589 77.5381C672.511 77.7021 672.454 77.9163 672.418 78.1807C672.382 78.4404 672.363 78.7526 672.363 79.1172V79.7256C672.363 80.0674 672.393 80.3545 672.452 80.5869C672.511 80.8148 672.598 81.0016 672.712 81.1475C672.83 81.2887 672.974 81.3913 673.143 81.4551C673.311 81.5143 673.507 81.5439 673.73 81.5439C674.068 81.5439 674.371 81.4847 674.64 81.3662C674.913 81.2432 675.146 81.0768 675.337 80.8672L676.103 82.0293C675.97 82.2025 675.788 82.3757 675.556 82.5488C675.323 82.722 675.045 82.8633 674.722 82.9727C674.398 83.082 674.024 83.1367 673.601 83.1367ZM672.206 74.6055L673.546 72.4932H675.699L673.812 74.6055H672.206ZM680.601 81.0039C680.601 80.8763 680.557 80.7624 680.471 80.6621C680.384 80.5618 680.247 80.4593 680.061 80.3545C679.874 80.2451 679.625 80.1243 679.315 79.9922C678.978 79.8555 678.68 79.7142 678.42 79.5684C678.16 79.4225 677.939 79.2607 677.757 79.083C677.579 78.9053 677.445 78.7025 677.354 78.4746C677.262 78.2467 677.217 77.987 677.217 77.6953C677.217 77.3809 677.274 77.0915 677.388 76.8271C677.506 76.5583 677.675 76.3236 677.894 76.123C678.112 75.918 678.379 75.7585 678.693 75.6445C679.012 75.526 679.37 75.4668 679.767 75.4668C680.323 75.4668 680.799 75.5648 681.195 75.7607C681.596 75.9521 681.904 76.221 682.118 76.5674C682.332 76.9137 682.439 77.3171 682.439 77.7773H680.525C680.525 77.6133 680.5 77.4674 680.45 77.3398C680.4 77.2077 680.318 77.1051 680.204 77.0322C680.095 76.9593 679.947 76.9229 679.76 76.9229C679.623 76.9229 679.5 76.9525 679.391 77.0117C679.286 77.071 679.201 77.1507 679.138 77.251C679.078 77.3467 679.049 77.4606 679.049 77.5928C679.049 77.693 679.069 77.7819 679.11 77.8594C679.156 77.9368 679.227 78.012 679.322 78.085C679.418 78.1579 679.546 78.2354 679.705 78.3174C679.869 78.3949 680.07 78.4814 680.307 78.5771C680.799 78.7594 681.202 78.9554 681.517 79.165C681.836 79.3747 682.073 79.6208 682.228 79.9033C682.382 80.1813 682.46 80.5254 682.46 80.9355C682.46 81.2637 682.396 81.5622 682.269 81.8311C682.146 82.0999 681.965 82.3324 681.729 82.5283C681.492 82.7243 681.207 82.8747 680.874 82.9795C680.546 83.0843 680.179 83.1367 679.773 83.1367C679.176 83.1367 678.673 83.0182 678.263 82.7812C677.853 82.5443 677.543 82.2412 677.333 81.8721C677.123 81.4984 677.019 81.111 677.019 80.71H678.837C678.846 80.9561 678.892 81.1497 678.974 81.291C679.06 81.4277 679.176 81.5234 679.322 81.5781C679.468 81.6328 679.63 81.6602 679.808 81.6602C679.985 81.6602 680.131 81.6374 680.245 81.5918C680.364 81.5417 680.452 81.4665 680.512 81.3662C680.571 81.2614 680.601 81.1406 680.601 81.0039ZM689.214 83H687.3V75.2959C687.3 74.6579 687.411 74.1224 687.635 73.6895C687.863 73.252 688.191 72.9215 688.619 72.6982C689.052 72.4704 689.569 72.3564 690.171 72.3564C690.517 72.3564 690.845 72.3952 691.155 72.4727C691.47 72.5456 691.793 72.6413 692.126 72.7598L691.853 74.3867C691.652 74.3138 691.426 74.2454 691.176 74.1816C690.93 74.1133 690.638 74.0791 690.301 74.0791C689.932 74.0791 689.658 74.1816 689.48 74.3867C689.303 74.5918 689.214 74.8949 689.214 75.2959V83ZM690.355 75.6035V77.0459H686.397V75.6035H690.355ZM693.008 75.6035V83H691.087V75.6035H693.008ZM699.591 81.4072V83H694.895V81.4072H699.591ZM699.543 76.7656L695.646 83H694.368V81.7969L698.244 75.6035H699.543V76.7656ZM698.873 75.6035V77.1963H694.443V75.6035H698.873ZM703.733 83.1367C703.228 83.1367 702.779 83.0592 702.387 82.9043C701.999 82.7493 701.671 82.526 701.402 82.2344C701.133 81.9382 700.928 81.5804 700.787 81.1611C700.646 80.7419 700.575 80.2633 700.575 79.7256V79.1172C700.575 78.5156 700.644 77.9893 700.78 77.5381C700.917 77.0824 701.111 76.6995 701.361 76.3896C701.612 76.0798 701.92 75.8496 702.284 75.6992C702.653 75.5443 703.07 75.4668 703.535 75.4668C704 75.4668 704.408 75.5443 704.759 75.6992C705.114 75.8496 705.408 76.0775 705.641 76.3828C705.873 76.6836 706.049 77.0573 706.167 77.5039C706.285 77.9505 706.345 78.4701 706.345 79.0625V79.9375H701.389V78.5908H704.465V78.4199C704.465 78.1191 704.433 77.8685 704.369 77.668C704.305 77.4629 704.205 77.3102 704.068 77.21C703.932 77.1097 703.749 77.0596 703.521 77.0596C703.33 77.0596 703.168 77.0983 703.036 77.1758C702.904 77.2533 702.799 77.374 702.722 77.5381C702.644 77.7021 702.587 77.9163 702.551 78.1807C702.514 78.4404 702.496 78.7526 702.496 79.1172V79.7256C702.496 80.0674 702.526 80.3545 702.585 80.5869C702.644 80.8148 702.731 81.0016 702.845 81.1475C702.963 81.2887 703.107 81.3913 703.275 81.4551C703.444 81.5143 703.64 81.5439 703.863 81.5439C704.201 81.5439 704.504 81.4847 704.772 81.3662C705.046 81.2432 705.278 81.0768 705.47 80.8672L706.235 82.0293C706.103 82.2025 705.921 82.3757 705.688 82.5488C705.456 82.722 705.178 82.8633 704.854 82.9727C704.531 83.082 704.157 83.1367 703.733 83.1367ZM710.679 75.6035V77.0459H706.905V75.6035H710.679ZM707.773 73.7783H709.681V80.7441C709.681 80.9492 709.701 81.1064 709.742 81.2158C709.783 81.3252 709.845 81.4027 709.927 81.4482C710.013 81.4893 710.127 81.5098 710.269 81.5098C710.364 81.5098 710.453 81.5052 710.535 81.4961C710.617 81.4824 710.679 81.4688 710.72 81.4551V82.9521C710.569 83.0114 710.41 83.057 710.241 83.0889C710.077 83.1208 709.881 83.1367 709.653 83.1367C709.271 83.1367 708.938 83.0638 708.655 82.918C708.377 82.7721 708.161 82.5397 708.006 82.2207C707.851 81.8971 707.773 81.4733 707.773 80.9492V73.7783ZM714.726 83.1367C714.22 83.1367 713.771 83.0592 713.379 82.9043C712.992 82.7493 712.663 82.526 712.395 82.2344C712.126 81.9382 711.921 81.5804 711.779 81.1611C711.638 80.7419 711.567 80.2633 711.567 79.7256V79.1172C711.567 78.5156 711.636 77.9893 711.772 77.5381C711.909 77.0824 712.103 76.6995 712.354 76.3896C712.604 76.0798 712.912 75.8496 713.276 75.6992C713.646 75.5443 714.062 75.4668 714.527 75.4668C714.992 75.4668 715.4 75.5443 715.751 75.6992C716.106 75.8496 716.4 76.0775 716.633 76.3828C716.865 76.6836 717.041 77.0573 717.159 77.5039C717.278 77.9505 717.337 78.4701 717.337 79.0625V79.9375H712.381V78.5908H715.457V78.4199C715.457 78.1191 715.425 77.8685 715.361 77.668C715.298 77.4629 715.197 77.3102 715.061 77.21C714.924 77.1097 714.742 77.0596 714.514 77.0596C714.322 77.0596 714.16 77.0983 714.028 77.1758C713.896 77.2533 713.791 77.374 713.714 77.5381C713.636 77.7021 713.579 77.9163 713.543 78.1807C713.507 78.4404 713.488 78.7526 713.488 79.1172V79.7256C713.488 80.0674 713.518 80.3545 713.577 80.5869C713.636 80.8148 713.723 81.0016 713.837 81.1475C713.955 81.2887 714.099 81.3913 714.268 81.4551C714.436 81.5143 714.632 81.5439 714.855 81.5439C715.193 81.5439 715.496 81.4847 715.765 81.3662C716.038 81.2432 716.271 81.0768 716.462 80.8672L717.228 82.0293C717.095 82.2025 716.913 82.3757 716.681 82.5488C716.448 82.722 716.17 82.8633 715.847 82.9727C715.523 83.082 715.149 83.1367 714.726 83.1367ZM713.331 74.6055L714.671 72.4932H716.824L714.938 74.6055H713.331ZM721.726 81.0039C721.726 80.8763 721.682 80.7624 721.596 80.6621C721.509 80.5618 721.372 80.4593 721.186 80.3545C720.999 80.2451 720.75 80.1243 720.44 79.9922C720.103 79.8555 719.805 79.7142 719.545 79.5684C719.285 79.4225 719.064 79.2607 718.882 79.083C718.704 78.9053 718.57 78.7025 718.479 78.4746C718.387 78.2467 718.342 77.987 718.342 77.6953C718.342 77.3809 718.399 77.0915 718.513 76.8271C718.631 76.5583 718.8 76.3236 719.019 76.123C719.237 75.918 719.504 75.7585 719.818 75.6445C720.137 75.526 720.495 75.4668 720.892 75.4668C721.448 75.4668 721.924 75.5648 722.32 75.7607C722.721 75.9521 723.029 76.221 723.243 76.5674C723.457 76.9137 723.564 77.3171 723.564 77.7773H721.65C721.65 77.6133 721.625 77.4674 721.575 77.3398C721.525 77.2077 721.443 77.1051 721.329 77.0322C721.22 76.9593 721.072 76.9229 720.885 76.9229C720.748 76.9229 720.625 76.9525 720.516 77.0117C720.411 77.071 720.326 77.1507 720.263 77.251C720.203 77.3467 720.174 77.4606 720.174 77.5928C720.174 77.693 720.194 77.7819 720.235 77.8594C720.281 77.9368 720.352 78.012 720.447 78.085C720.543 78.1579 720.671 78.2354 720.83 78.3174C720.994 78.3949 721.195 78.4814 721.432 78.5771C721.924 78.7594 722.327 78.9554 722.642 79.165C722.961 79.3747 723.198 79.6208 723.353 79.9033C723.507 80.1813 723.585 80.5254 723.585 80.9355C723.585 81.2637 723.521 81.5622 723.394 81.8311C723.271 82.0999 723.09 82.3324 722.854 82.5283C722.617 82.7243 722.332 82.8747 721.999 82.9795C721.671 83.0843 721.304 83.1367 720.898 83.1367C720.301 83.1367 719.798 83.0182 719.388 82.7812C718.978 82.5443 718.668 82.2412 718.458 81.8721C718.248 81.4984 718.144 81.111 718.144 80.71H719.962C719.971 80.9561 720.017 81.1497 720.099 81.291C720.185 81.4277 720.301 81.5234 720.447 81.5781C720.593 81.6328 720.755 81.6602 720.933 81.6602C721.11 81.6602 721.256 81.6374 721.37 81.5918C721.489 81.5417 721.577 81.4665 721.637 81.3662C721.696 81.2614 721.726 81.1406 721.726 81.0039Z" fill="#E0E0E9"/>
<path fill-rule="evenodd" clip-rule="evenodd" d="M704 33H79V31H704V33Z" fill="#D0CFD7"/>
<g filter="url(#filter0_d_366_1426)">
<path d="M69 17C60.7125 17 54 23.7125 54 32C54 34.8125 54.7875 37.475 56.175 39.725C57.497 41.9468 59.3748 43.7861 61.6236 45.0617C63.8724 46.3373 66.4146 47.0053 69 47C74.475 47 79.2375 44.075 81.825 39.725C83.2125 37.475 84 34.8125 84 32C84 23.7125 77.2875 17 69 17ZM76.3875 30.7625L68.4 38.15C67.875 38.6375 67.1625 38.9 66.4875 38.9C65.775 38.9 65.0625 38.6375 64.5 38.075L60.7875 34.3625C60.2644 33.8332 59.9711 33.1191 59.9711 32.375C59.9711 31.6309 60.2644 30.9168 60.7875 30.3875C61.875 29.3 63.675 29.3 64.7625 30.3875L66.5625 32.1875L72.5625 26.6375C73.6875 25.5875 75.4875 25.6625 76.5375 26.7875C77.5875 27.9125 77.5125 29.7125 76.3875 30.7625Z" fill="url(#paint1_linear_366_1426)"/>
</g>
<circle cx="390.5" cy="32.5" r="14.5" fill="#D0CFD7"/>
<circle cx="696.5" cy="32.5" r="14.5" fill="#D0CFD7"/>
<defs>
<filter id="filter0_d_366_1426" x="37" y="0" width="74" height="74" filterUnits="userSpaceOnUse" color-interpolation-filters="sRGB">
<feFlood flood-opacity="0" result="BackgroundImageFix"/>
<feColorMatrix in="SourceAlpha" type="matrix" values="0 0 0 0 0 0 0 0 0 0 0 0 0 0 0 0 0 0 127 0" result="hardAlpha"/>
<feOffset dx="5" dy="5"/>
<feGaussianBlur stdDeviation="11"/>
<feComposite in2="hardAlpha" operator="out"/>
<feColorMatrix type="matrix" values="0 0 0 0 0.0392157 0 0 0 0 0.560784 0 0 0 0 0.309804 0 0 0 0.2 0"/>
<feBlend mode="normal" in2="BackgroundImageFix" result="effect1_dropShadow_366_1426"/>
<feBlend mode="normal" in="SourceGraphic" in2="effect1_dropShadow_366_1426" result="shape"/>
</filter>
<linearGradient id="paint0_linear_366_1426" x1="68.5" y1="77" x2="68.5" y2="57" gradientUnits="userSpaceOnUse">
<stop stop-color="#5CCC94"/>
<stop offset="1" stop-color="#8CCAAE"/>
</linearGradient>
<linearGradient id="paint1_linear_366_1426" x1="69" y1="47" x2="69" y2="17" gradientUnits="userSpaceOnUse">
<stop stop-color="#5CCC94"/>
<stop offset="1" stop-color="#8CCAAE"/>
</linearGradient>
</defs>
</svg>
