<svg width="733" height="97" viewBox="0 0 733 97" fill="none" xmlns="http://www.w3.org/2000/svg">
<path d="M44.0752 62.0469V72H42.1406L39.0166 65.7725V72H37.1162V62.0469H39.0234L42.1748 68.3428V62.0469H44.0752ZM49.168 70.2227V64.6035H51.0889V72H49.2842L49.168 70.2227ZM49.3867 68.6982L49.9199 68.6846C49.9199 69.1813 49.8721 69.6416 49.7764 70.0654C49.6807 70.4847 49.5371 70.8493 49.3457 71.1592C49.1543 71.4691 48.915 71.7106 48.6279 71.8838C48.3408 72.0524 48.0013 72.1367 47.6094 72.1367C47.3086 72.1367 47.0306 72.0866 46.7754 71.9863C46.5247 71.8815 46.3083 71.7197 46.126 71.501C45.9437 71.2777 45.8001 70.9928 45.6953 70.6465C45.5951 70.2956 45.5449 69.874 45.5449 69.3818V64.6035H47.4658V69.4023C47.4658 69.6029 47.484 69.776 47.5205 69.9219C47.557 70.0632 47.6071 70.1794 47.6709 70.2705C47.7347 70.3617 47.8099 70.4277 47.8965 70.4688C47.9831 70.5052 48.0811 70.5234 48.1904 70.5234C48.4912 70.5234 48.7282 70.446 48.9014 70.291C49.0791 70.1315 49.2044 69.915 49.2773 69.6416C49.3503 69.3636 49.3867 69.0492 49.3867 68.6982ZM54.4111 66.1348V72H52.4902V64.6035H54.2949L54.4111 66.1348ZM54.1377 68.0488L53.6113 68.0625C53.6022 67.543 53.6478 67.0645 53.748 66.627C53.8483 66.1895 53.9987 65.8089 54.1992 65.4854C54.4043 65.1618 54.6618 64.9111 54.9717 64.7334C55.2816 64.5557 55.6439 64.4668 56.0586 64.4668C56.3275 64.4668 56.5758 64.5169 56.8037 64.6172C57.0316 64.7129 57.2298 64.8656 57.3984 65.0752C57.5671 65.2803 57.6969 65.5492 57.7881 65.8818C57.8792 66.21 57.9248 66.6042 57.9248 67.0645V72H56.0107V67.2969C56.0107 66.9688 55.9788 66.7181 55.915 66.5449C55.8512 66.3672 55.7601 66.2441 55.6416 66.1758C55.5231 66.1029 55.3773 66.0664 55.2041 66.0664C55.0218 66.0664 54.8623 66.1165 54.7256 66.2168C54.5889 66.3171 54.4772 66.4583 54.3906 66.6406C54.3086 66.8184 54.2448 67.028 54.1992 67.2695C54.1582 67.5111 54.1377 67.7708 54.1377 68.0488ZM57.7402 67.8574L57.0498 67.9463C57.0407 67.4587 57.084 67.0052 57.1797 66.5859C57.2754 66.1621 57.4235 65.793 57.624 65.4785C57.8245 65.1595 58.0752 64.9111 58.376 64.7334C58.6813 64.5557 59.0345 64.4668 59.4355 64.4668C59.7363 64.4668 60.0098 64.5169 60.2559 64.6172C60.502 64.7174 60.7116 64.8792 60.8848 65.1025C61.0625 65.3213 61.1969 65.6107 61.2881 65.9707C61.3838 66.3307 61.4316 66.7682 61.4316 67.2832V72H59.5107V67.29C59.5107 66.9574 59.4788 66.7021 59.415 66.5244C59.3512 66.3467 59.2601 66.2259 59.1416 66.1621C59.0231 66.0983 58.8818 66.0664 58.7178 66.0664C58.5537 66.0664 58.4102 66.112 58.2871 66.2031C58.1686 66.2943 58.0684 66.4219 57.9863 66.5859C57.9043 66.7454 57.8428 66.9346 57.8018 67.1533C57.7607 67.3675 57.7402 67.6022 57.7402 67.8574ZM66.1348 70.2979V66.8799C66.1348 66.6566 66.1074 66.4788 66.0527 66.3467C66.0026 66.2145 65.9251 66.1188 65.8203 66.0596C65.7201 65.9958 65.597 65.9639 65.4512 65.9639C65.2871 65.9639 65.1504 65.998 65.041 66.0664C64.9316 66.1348 64.8496 66.2327 64.7949 66.3604C64.7448 66.488 64.7197 66.6406 64.7197 66.8184H62.7988C62.7988 66.4993 62.8604 66.1986 62.9834 65.916C63.1064 65.6289 63.2865 65.3783 63.5234 65.1641C63.765 64.9453 64.0521 64.7744 64.3848 64.6514C64.7174 64.5283 65.0911 64.4668 65.5059 64.4668C65.998 64.4668 66.4355 64.5511 66.8184 64.7197C67.2012 64.8838 67.5042 65.1458 67.7275 65.5059C67.9508 65.8659 68.0625 66.333 68.0625 66.9072V70.2021C68.0625 70.6169 68.083 70.9541 68.124 71.2139C68.1696 71.4736 68.2357 71.6969 68.3223 71.8838V72H66.3945C66.3079 71.7949 66.2419 71.5397 66.1963 71.2344C66.1553 70.9245 66.1348 70.6123 66.1348 70.2979ZM66.3672 67.4814L66.374 68.6299H65.6699C65.4876 68.6299 65.3281 68.6595 65.1914 68.7188C65.0592 68.778 64.9476 68.8623 64.8564 68.9717C64.7653 69.0765 64.6969 69.1995 64.6514 69.3408C64.6104 69.4821 64.5898 69.6325 64.5898 69.792C64.5898 69.9697 64.6149 70.1201 64.665 70.2432C64.7152 70.3662 64.7904 70.4596 64.8906 70.5234C64.9909 70.5872 65.1094 70.6191 65.2461 70.6191C65.4557 70.6191 65.638 70.5758 65.793 70.4893C65.9479 70.4027 66.0618 70.2979 66.1348 70.1748C66.2122 70.0518 66.2373 69.9378 66.21 69.833L66.6475 70.5781C66.5928 70.7467 66.5176 70.9222 66.4219 71.1045C66.3307 71.2868 66.2145 71.4554 66.0732 71.6104C65.932 71.7653 65.7565 71.8929 65.5469 71.9932C65.3418 72.0889 65.098 72.1367 64.8154 72.1367C64.4189 72.1367 64.0566 72.0456 63.7285 71.8633C63.4004 71.681 63.1406 71.4258 62.9492 71.0977C62.7624 70.7695 62.6689 70.3799 62.6689 69.9287C62.6689 69.555 62.7282 69.2178 62.8467 68.917C62.9697 68.6117 63.152 68.3542 63.3936 68.1445C63.6351 67.9303 63.9404 67.7663 64.3096 67.6523C64.6787 67.5384 65.1117 67.4814 65.6084 67.4814H66.3672ZM66.4014 61.5615H67.8096C67.8096 61.9626 67.7116 62.3158 67.5156 62.6211C67.3242 62.9219 67.0508 63.1589 66.6953 63.332C66.3444 63.5052 65.9274 63.5918 65.4443 63.5918C64.7152 63.5918 64.1387 63.4027 63.7148 63.0244C63.291 62.6462 63.0791 62.1585 63.0791 61.5615H64.4736C64.4736 61.7985 64.5465 62.0081 64.6924 62.1904C64.8382 62.3727 65.0889 62.4639 65.4443 62.4639C65.7952 62.4639 66.0413 62.3727 66.1826 62.1904C66.3285 62.0081 66.4014 61.7985 66.4014 61.5615ZM71.3916 66.251V72H69.4775V64.6035H71.2822L71.3916 66.251ZM73.1348 64.5488L73.1074 66.4561C73.0208 66.4378 72.916 66.4242 72.793 66.415C72.6745 66.4059 72.5697 66.4014 72.4785 66.4014C72.2643 66.4014 72.082 66.4355 71.9316 66.5039C71.7812 66.5677 71.6559 66.6657 71.5557 66.7979C71.46 66.9255 71.387 67.085 71.3369 67.2764C71.2868 67.4678 71.2572 67.6842 71.248 67.9258L70.8857 67.7891C70.8857 67.306 70.9222 66.8639 70.9951 66.4629C71.0726 66.0573 71.1865 65.7064 71.3369 65.4102C71.4873 65.1094 71.6673 64.877 71.877 64.7129C72.0911 64.5488 72.3327 64.4668 72.6016 64.4668C72.6927 64.4668 72.7884 64.4759 72.8887 64.4941C72.9935 64.5078 73.0755 64.526 73.1348 64.5488ZM77.6875 70.2227V64.6035H79.6084V72H77.8037L77.6875 70.2227ZM77.9062 68.6982L78.4395 68.6846C78.4395 69.1813 78.3916 69.6416 78.2959 70.0654C78.2002 70.4847 78.0566 70.8493 77.8652 71.1592C77.6738 71.4691 77.4346 71.7106 77.1475 71.8838C76.8604 72.0524 76.5208 72.1367 76.1289 72.1367C75.8281 72.1367 75.5501 72.0866 75.2949 71.9863C75.0443 71.8815 74.8278 71.7197 74.6455 71.501C74.4632 71.2777 74.3197 70.9928 74.2148 70.6465C74.1146 70.2956 74.0645 69.874 74.0645 69.3818V64.6035H75.9854V69.4023C75.9854 69.6029 76.0036 69.776 76.04 69.9219C76.0765 70.0632 76.1266 70.1794 76.1904 70.2705C76.2542 70.3617 76.3294 70.4277 76.416 70.4688C76.5026 70.5052 76.6006 70.5234 76.71 70.5234C77.0107 70.5234 77.2477 70.446 77.4209 70.291C77.5986 70.1315 77.724 69.915 77.7969 69.6416C77.8698 69.3636 77.9062 69.0492 77.9062 68.6982ZM83.0127 61.5V72H81.0918V61.5H83.0127ZM91.3389 70.3662V61.5H93.2598V72L91.5234 72.0068L91.3389 70.3662ZM87.5039 68.5615V68.0693C87.5039 67.4678 87.554 66.9414 87.6543 66.4902C87.7591 66.0391 87.9141 65.6631 88.1191 65.3623C88.3242 65.0615 88.5749 64.8382 88.8711 64.6924C89.1719 64.542 89.516 64.4668 89.9033 64.4668C90.2542 64.4668 90.5618 64.5557 90.8262 64.7334C91.0951 64.9066 91.3229 65.1504 91.5098 65.4648C91.6966 65.7793 91.847 66.1507 91.9609 66.5791C92.0749 67.0075 92.1546 67.4769 92.2002 67.9873V68.6982C92.1455 69.1813 92.0612 69.6325 91.9473 70.0518C91.8379 70.471 91.6875 70.8356 91.4961 71.1455C91.3092 71.4554 91.0837 71.6992 90.8193 71.877C90.555 72.0501 90.2474 72.1367 89.8965 72.1367C89.5091 72.1367 89.165 72.0592 88.8643 71.9043C88.568 71.7493 88.3174 71.5215 88.1123 71.2207C87.9118 70.9154 87.7591 70.5417 87.6543 70.0996C87.554 69.653 87.5039 69.1403 87.5039 68.5615ZM89.418 68.0693V68.5615C89.418 68.9079 89.4339 69.2064 89.4658 69.457C89.5023 69.7031 89.5592 69.9059 89.6367 70.0654C89.7188 70.2204 89.8258 70.3366 89.958 70.4141C90.0902 70.487 90.2542 70.5234 90.4502 70.5234C90.7054 70.5234 90.9128 70.4596 91.0723 70.332C91.2318 70.1999 91.3503 70.0199 91.4277 69.792C91.5098 69.5596 91.5553 69.293 91.5645 68.9922V67.7002C91.5553 67.4495 91.5257 67.224 91.4756 67.0234C91.4255 66.8229 91.3548 66.652 91.2637 66.5107C91.1725 66.3695 91.0586 66.2601 90.9219 66.1826C90.7897 66.1051 90.6348 66.0664 90.457 66.0664C90.2656 66.0664 90.1016 66.1051 89.9648 66.1826C89.8327 66.2601 89.7279 66.3809 89.6504 66.5449C89.5729 66.7044 89.5137 66.9118 89.4727 67.167C89.4362 67.4176 89.418 67.7184 89.418 68.0693ZM97.6826 72.1367C97.1768 72.1367 96.7279 72.0592 96.3359 71.9043C95.9486 71.7493 95.6204 71.526 95.3516 71.2344C95.0827 70.9382 94.8776 70.5804 94.7363 70.1611C94.5951 69.7419 94.5244 69.2633 94.5244 68.7256V68.1172C94.5244 67.5156 94.5928 66.9893 94.7295 66.5381C94.8662 66.0824 95.0599 65.6995 95.3105 65.3896C95.5612 65.0798 95.8688 64.8496 96.2334 64.6992C96.6025 64.5443 97.0195 64.4668 97.4844 64.4668C97.9492 64.4668 98.3571 64.5443 98.708 64.6992C99.0635 64.8496 99.3574 65.0775 99.5898 65.3828C99.8223 65.6836 99.9977 66.0573 100.116 66.5039C100.235 66.9505 100.294 67.4701 100.294 68.0625V68.9375H95.3379V67.5908H98.4141V67.4199C98.4141 67.1191 98.3822 66.8685 98.3184 66.668C98.2546 66.4629 98.1543 66.3102 98.0176 66.21C97.8809 66.1097 97.6986 66.0596 97.4707 66.0596C97.2793 66.0596 97.1175 66.0983 96.9854 66.1758C96.8532 66.2533 96.7484 66.374 96.6709 66.5381C96.5934 66.7021 96.5365 66.9163 96.5 67.1807C96.4635 67.4404 96.4453 67.7526 96.4453 68.1172V68.7256C96.4453 69.0674 96.4749 69.3545 96.5342 69.5869C96.5934 69.8148 96.68 70.0016 96.7939 70.1475C96.9124 70.2887 97.056 70.3913 97.2246 70.4551C97.3932 70.5143 97.5892 70.5439 97.8125 70.5439C98.1497 70.5439 98.4528 70.4847 98.7217 70.3662C98.9951 70.2432 99.2275 70.0768 99.4189 69.8672L100.185 71.0293C100.052 71.2025 99.8701 71.3757 99.6377 71.5488C99.4053 71.722 99.1273 71.8633 98.8037 71.9727C98.4801 72.082 98.1064 72.1367 97.6826 72.1367ZM33.9443 84.6035V92H32.0234V84.6035H33.9443ZM33.5479 81.6025L35.3457 83.5098V83.5918H33.8555L33.001 82.6143L32.1465 83.5986H30.6768V83.4961L32.4541 81.6025H33.5479ZM37.4238 86.1826V92H35.5029V84.6035H37.3008L37.4238 86.1826ZM37.1367 88.0488L36.624 88.0625C36.6149 87.5065 36.6673 87.0075 36.7812 86.5654C36.8997 86.1234 37.0661 85.7474 37.2803 85.4375C37.499 85.123 37.7588 84.8838 38.0596 84.7197C38.3649 84.5511 38.7044 84.4668 39.0781 84.4668C39.3652 84.4668 39.6273 84.5169 39.8643 84.6172C40.1058 84.7174 40.3132 84.877 40.4863 85.0957C40.6595 85.3145 40.7939 85.6061 40.8896 85.9707C40.9854 86.3307 41.0332 86.7728 41.0332 87.2969V92H39.1123V87.2832C39.1123 86.9642 39.0804 86.7181 39.0166 86.5449C38.9528 86.3672 38.8571 86.2441 38.7295 86.1758C38.6019 86.1029 38.4424 86.0664 38.251 86.0664C38.0687 86.0664 37.9069 86.1188 37.7656 86.2236C37.6243 86.3239 37.5059 86.4629 37.4102 86.6406C37.319 86.8184 37.2484 87.028 37.1982 87.2695C37.1527 87.5111 37.1322 87.7708 37.1367 88.0488ZM44.3623 86.1348V92H42.4414V84.6035H44.2461L44.3623 86.1348ZM44.0889 88.0488L43.5625 88.0625C43.5534 87.543 43.599 87.0645 43.6992 86.627C43.7995 86.1895 43.9499 85.8089 44.1504 85.4854C44.3555 85.1618 44.613 84.9111 44.9229 84.7334C45.2327 84.5557 45.5951 84.4668 46.0098 84.4668C46.2786 84.4668 46.527 84.5169 46.7549 84.6172C46.9827 84.7129 47.181 84.8656 47.3496 85.0752C47.5182 85.2803 47.6481 85.5492 47.7393 85.8818C47.8304 86.21 47.876 86.6042 47.876 87.0645V92H45.9619V87.2969C45.9619 86.9688 45.93 86.7181 45.8662 86.5449C45.8024 86.3672 45.7113 86.2441 45.5928 86.1758C45.4743 86.1029 45.3285 86.0664 45.1553 86.0664C44.973 86.0664 44.8135 86.1165 44.6768 86.2168C44.54 86.3171 44.4284 86.4583 44.3418 86.6406C44.2598 86.8184 44.196 87.028 44.1504 87.2695C44.1094 87.5111 44.0889 87.7708 44.0889 88.0488ZM47.6914 87.8574L47.001 87.9463C46.9919 87.4587 47.0352 87.0052 47.1309 86.5859C47.2266 86.1621 47.3747 85.793 47.5752 85.4785C47.7757 85.1595 48.0264 84.9111 48.3271 84.7334C48.6325 84.5557 48.9857 84.4668 49.3867 84.4668C49.6875 84.4668 49.9609 84.5169 50.207 84.6172C50.4531 84.7174 50.6628 84.8792 50.8359 85.1025C51.0137 85.3213 51.1481 85.6107 51.2393 85.9707C51.335 86.3307 51.3828 86.7682 51.3828 87.2832V92H49.4619V87.29C49.4619 86.9574 49.43 86.7021 49.3662 86.5244C49.3024 86.3467 49.2113 86.2259 49.0928 86.1621C48.9743 86.0983 48.833 86.0664 48.6689 86.0664C48.5049 86.0664 48.3613 86.112 48.2383 86.2031C48.1198 86.2943 48.0195 86.4219 47.9375 86.5859C47.8555 86.7454 47.7939 86.9346 47.7529 87.1533C47.7119 87.3675 47.6914 87.6022 47.6914 87.8574ZM56.0859 90.2979V86.8799C56.0859 86.6566 56.0586 86.4788 56.0039 86.3467C55.9538 86.2145 55.8763 86.1188 55.7715 86.0596C55.6712 85.9958 55.5482 85.9639 55.4023 85.9639C55.2383 85.9639 55.1016 85.998 54.9922 86.0664C54.8828 86.1348 54.8008 86.2327 54.7461 86.3604C54.696 86.488 54.6709 86.6406 54.6709 86.8184H52.75C52.75 86.4993 52.8115 86.1986 52.9346 85.916C53.0576 85.6289 53.2376 85.3783 53.4746 85.1641C53.7161 84.9453 54.0033 84.7744 54.3359 84.6514C54.6686 84.5283 55.0423 84.4668 55.457 84.4668C55.9492 84.4668 56.3867 84.5511 56.7695 84.7197C57.1523 84.8838 57.4554 85.1458 57.6787 85.5059C57.902 85.8659 58.0137 86.333 58.0137 86.9072V90.2021C58.0137 90.6169 58.0342 90.9541 58.0752 91.2139C58.1208 91.4736 58.1868 91.6969 58.2734 91.8838V92H56.3457C56.2591 91.7949 56.193 91.5397 56.1475 91.2344C56.1064 90.9245 56.0859 90.6123 56.0859 90.2979ZM56.3184 87.4814L56.3252 88.6299H55.6211C55.4388 88.6299 55.2793 88.6595 55.1426 88.7188C55.0104 88.778 54.8988 88.8623 54.8076 88.9717C54.7165 89.0765 54.6481 89.1995 54.6025 89.3408C54.5615 89.4821 54.541 89.6325 54.541 89.792C54.541 89.9697 54.5661 90.1201 54.6162 90.2432C54.6663 90.3662 54.7415 90.4596 54.8418 90.5234C54.9421 90.5872 55.0605 90.6191 55.1973 90.6191C55.4069 90.6191 55.5892 90.5758 55.7441 90.4893C55.8991 90.4027 56.013 90.2979 56.0859 90.1748C56.1634 90.0518 56.1885 89.9378 56.1611 89.833L56.5986 90.5781C56.5439 90.7467 56.4688 90.9222 56.373 91.1045C56.2819 91.2868 56.1657 91.4554 56.0244 91.6104C55.8831 91.7653 55.7077 91.8929 55.498 91.9932C55.293 92.0889 55.0492 92.1367 54.7666 92.1367C54.3701 92.1367 54.0078 92.0456 53.6797 91.8633C53.3516 91.681 53.0918 91.4258 52.9004 91.0977C52.7135 90.7695 52.6201 90.3799 52.6201 89.9287C52.6201 89.555 52.6794 89.2178 52.7979 88.917C52.9209 88.6117 53.1032 88.3542 53.3447 88.1445C53.5863 87.9303 53.8916 87.7663 54.2607 87.6523C54.6299 87.5384 55.0628 87.4814 55.5596 87.4814H56.3184ZM62.6553 84.6035V86.0459H58.8818V84.6035H62.6553ZM59.75 82.7783H61.6572V89.7441C61.6572 89.9492 61.6777 90.1064 61.7188 90.2158C61.7598 90.3252 61.8213 90.4027 61.9033 90.4482C61.9899 90.4893 62.1038 90.5098 62.2451 90.5098C62.3408 90.5098 62.4297 90.5052 62.5117 90.4961C62.5938 90.4824 62.6553 90.4688 62.6963 90.4551V91.9521C62.5459 92.0114 62.3864 92.057 62.2178 92.0889C62.0537 92.1208 61.8577 92.1367 61.6299 92.1367C61.2471 92.1367 60.9144 92.0638 60.6318 91.918C60.3538 91.7721 60.1374 91.5397 59.9824 91.2207C59.8275 90.8971 59.75 90.4733 59.75 89.9492V82.7783ZM65.6357 86.251V92H63.7217V84.6035H65.5264L65.6357 86.251ZM67.3789 84.5488L67.3516 86.4561C67.265 86.4378 67.1602 86.4242 67.0371 86.415C66.9186 86.4059 66.8138 86.4014 66.7227 86.4014C66.5085 86.4014 66.3262 86.4355 66.1758 86.5039C66.0254 86.5677 65.9001 86.6657 65.7998 86.7979C65.7041 86.9255 65.6312 87.085 65.5811 87.2764C65.5309 87.4678 65.5013 87.6842 65.4922 87.9258L65.1299 87.7891C65.1299 87.306 65.1663 86.8639 65.2393 86.4629C65.3167 86.0573 65.4307 85.7064 65.5811 85.4102C65.7314 85.1094 65.9115 84.877 66.1211 84.7129C66.3353 84.5488 66.5768 84.4668 66.8457 84.4668C66.9368 84.4668 67.0326 84.4759 67.1328 84.4941C67.2376 84.5078 67.3197 84.526 67.3789 84.5488ZM70.3662 84.6035V92H68.4453V84.6035H70.3662ZM68.3564 82.6895C68.3564 82.3932 68.4499 82.1494 68.6367 81.958C68.8281 81.762 69.0833 81.6641 69.4023 81.6641C69.7259 81.6641 69.9811 81.762 70.168 81.958C70.3548 82.1494 70.4482 82.3932 70.4482 82.6895C70.4482 82.9811 70.3525 83.2249 70.1611 83.4209C69.9743 83.6123 69.7236 83.708 69.4092 83.708C69.0856 83.708 68.8281 83.6123 68.6367 83.4209C68.4499 83.2249 68.3564 82.9811 68.3564 82.6895ZM74.5566 90.5439C74.7344 90.5439 74.887 90.5075 75.0146 90.4346C75.1468 90.3617 75.2471 90.2432 75.3154 90.0791C75.3838 89.915 75.4202 89.7031 75.4248 89.4434H77.2227C77.2227 89.9993 77.1042 90.4801 76.8672 90.8857C76.6348 91.2868 76.3203 91.5967 75.9238 91.8154C75.5319 92.0296 75.0876 92.1367 74.5908 92.1367C74.0941 92.1367 73.6611 92.057 73.292 91.8975C72.9229 91.738 72.6175 91.5055 72.376 91.2002C72.139 90.8949 71.959 90.5234 71.8359 90.0859C71.7174 89.6439 71.6582 89.138 71.6582 88.5684V88.0283C71.6582 87.4678 71.7174 86.9665 71.8359 86.5244C71.959 86.0824 72.139 85.7087 72.376 85.4033C72.6175 85.098 72.9206 84.8656 73.2852 84.7061C73.6543 84.5465 74.0872 84.4668 74.584 84.4668C75.1172 84.4668 75.5798 84.5785 75.9717 84.8018C76.3636 85.0205 76.6689 85.3441 76.8877 85.7725C77.111 86.2008 77.2227 86.7295 77.2227 87.3584H75.4248C75.4202 87.0758 75.3861 86.8411 75.3223 86.6543C75.263 86.4629 75.1696 86.3171 75.042 86.2168C74.9189 86.112 74.7549 86.0596 74.5498 86.0596C74.3356 86.0596 74.1624 86.1051 74.0303 86.1963C73.9027 86.2829 73.8047 86.4105 73.7363 86.5791C73.6725 86.7432 73.6292 86.9482 73.6064 87.1943C73.5837 87.4404 73.5723 87.7184 73.5723 88.0283V88.5684C73.5723 88.901 73.5814 89.1904 73.5996 89.4365C73.6224 89.6781 73.6657 89.8831 73.7295 90.0518C73.7979 90.2158 73.8958 90.3389 74.0234 90.4209C74.1556 90.5029 74.3333 90.5439 74.5566 90.5439ZM81.8984 90.2227V84.6035H83.8193V92H82.0146L81.8984 90.2227ZM82.1172 88.6982L82.6504 88.6846C82.6504 89.1813 82.6025 89.6416 82.5068 90.0654C82.4111 90.4847 82.2676 90.8493 82.0762 91.1592C81.8848 91.4691 81.6455 91.7106 81.3584 91.8838C81.0713 92.0524 80.7318 92.1367 80.3398 92.1367C80.0391 92.1367 79.7611 92.0866 79.5059 91.9863C79.2552 91.8815 79.0387 91.7197 78.8564 91.501C78.6742 91.2777 78.5306 90.9928 78.4258 90.6465C78.3255 90.2956 78.2754 89.874 78.2754 89.3818V84.6035H80.1963V89.4023C80.1963 89.6029 80.2145 89.776 80.251 89.9219C80.2874 90.0632 80.3376 90.1794 80.4014 90.2705C80.4652 90.3617 80.5404 90.4277 80.627 90.4688C80.7135 90.5052 80.8115 90.5234 80.9209 90.5234C81.2217 90.5234 81.4587 90.446 81.6318 90.291C81.8096 90.1315 81.9349 89.915 82.0078 89.6416C82.0807 89.3636 82.1172 89.0492 82.1172 88.6982ZM87.2236 81.5V92H85.3027V81.5H87.2236ZM92.002 90.2979V86.8799C92.002 86.6566 91.9746 86.4788 91.9199 86.3467C91.8698 86.2145 91.7923 86.1188 91.6875 86.0596C91.5872 85.9958 91.4642 85.9639 91.3184 85.9639C91.1543 85.9639 91.0176 85.998 90.9082 86.0664C90.7988 86.1348 90.7168 86.2327 90.6621 86.3604C90.612 86.488 90.5869 86.6406 90.5869 86.8184H88.666C88.666 86.4993 88.7275 86.1986 88.8506 85.916C88.9736 85.6289 89.1536 85.3783 89.3906 85.1641C89.6322 84.9453 89.9193 84.7744 90.252 84.6514C90.5846 84.5283 90.9583 84.4668 91.373 84.4668C91.8652 84.4668 92.3027 84.5511 92.6855 84.7197C93.0684 84.8838 93.3714 85.1458 93.5947 85.5059C93.818 85.8659 93.9297 86.333 93.9297 86.9072V90.2021C93.9297 90.6169 93.9502 90.9541 93.9912 91.2139C94.0368 91.4736 94.1029 91.6969 94.1895 91.8838V92H92.2617C92.1751 91.7949 92.109 91.5397 92.0635 91.2344C92.0225 90.9245 92.002 90.6123 92.002 90.2979ZM92.2344 87.4814L92.2412 88.6299H91.5371C91.3548 88.6299 91.1953 88.6595 91.0586 88.7188C90.9264 88.778 90.8148 88.8623 90.7236 88.9717C90.6325 89.0765 90.5641 89.1995 90.5186 89.3408C90.4775 89.4821 90.457 89.6325 90.457 89.792C90.457 89.9697 90.4821 90.1201 90.5322 90.2432C90.5824 90.3662 90.6576 90.4596 90.7578 90.5234C90.8581 90.5872 90.9766 90.6191 91.1133 90.6191C91.3229 90.6191 91.5052 90.5758 91.6602 90.4893C91.8151 90.4027 91.929 90.2979 92.002 90.1748C92.0794 90.0518 92.1045 89.9378 92.0771 89.833L92.5146 90.5781C92.46 90.7467 92.3848 90.9222 92.2891 91.1045C92.1979 91.2868 92.0817 91.4554 91.9404 91.6104C91.7992 91.7653 91.6237 91.8929 91.4141 91.9932C91.209 92.0889 90.9652 92.1367 90.6826 92.1367C90.2861 92.1367 89.9238 92.0456 89.5957 91.8633C89.2676 91.681 89.0078 91.4258 88.8164 91.0977C88.6296 90.7695 88.5361 90.3799 88.5361 89.9287C88.5361 89.555 88.5954 89.2178 88.7139 88.917C88.8369 88.6117 89.0192 88.3542 89.2607 88.1445C89.5023 87.9303 89.8076 87.7663 90.1768 87.6523C90.5459 87.5384 90.9788 87.4814 91.4756 87.4814H92.2344ZM97.2588 86.251V92H95.3447V84.6035H97.1494L97.2588 86.251ZM99.002 84.5488L98.9746 86.4561C98.888 86.4378 98.7832 86.4242 98.6602 86.415C98.5417 86.4059 98.4368 86.4014 98.3457 86.4014C98.1315 86.4014 97.9492 86.4355 97.7988 86.5039C97.6484 86.5677 97.5231 86.6657 97.4229 86.7979C97.3271 86.9255 97.2542 87.085 97.2041 87.2764C97.154 87.4678 97.1243 87.6842 97.1152 87.9258L96.7529 87.7891C96.7529 87.306 96.7894 86.8639 96.8623 86.4629C96.9398 86.0573 97.0537 85.7064 97.2041 85.4102C97.3545 85.1094 97.5345 84.877 97.7441 84.7129C97.9583 84.5488 98.1999 84.4668 98.4688 84.4668C98.5599 84.4668 98.6556 84.4759 98.7559 84.4941C98.8607 84.5078 98.9427 84.526 99.002 84.5488ZM102.823 92.1367C102.317 92.1367 101.868 92.0592 101.477 91.9043C101.089 91.7493 100.761 91.526 100.492 91.2344C100.223 90.9382 100.018 90.5804 99.877 90.1611C99.7357 89.7419 99.665 89.2633 99.665 88.7256V88.1172C99.665 87.5156 99.7334 86.9893 99.8701 86.5381C100.007 86.0824 100.201 85.6995 100.451 85.3896C100.702 85.0798 101.009 84.8496 101.374 84.6992C101.743 84.5443 102.16 84.4668 102.625 84.4668C103.09 84.4668 103.498 84.5443 103.849 84.6992C104.204 84.8496 104.498 85.0775 104.73 85.3828C104.963 85.6836 105.138 86.0573 105.257 86.5039C105.375 86.9505 105.435 87.4701 105.435 88.0625V88.9375H100.479V87.5908H103.555V87.4199C103.555 87.1191 103.523 86.8685 103.459 86.668C103.395 86.4629 103.295 86.3102 103.158 86.21C103.021 86.1097 102.839 86.0596 102.611 86.0596C102.42 86.0596 102.258 86.0983 102.126 86.1758C101.994 86.2533 101.889 86.374 101.812 86.5381C101.734 86.7021 101.677 86.9163 101.641 87.1807C101.604 87.4404 101.586 87.7526 101.586 88.1172V88.7256C101.586 89.0674 101.616 89.3545 101.675 89.5869C101.734 89.8148 101.821 90.0016 101.935 90.1475C102.053 90.2887 102.197 90.3913 102.365 90.4551C102.534 90.5143 102.73 90.5439 102.953 90.5439C103.29 90.5439 103.593 90.4847 103.862 90.3662C104.136 90.2432 104.368 90.0768 104.56 89.8672L105.325 91.0293C105.193 91.2025 105.011 91.3757 104.778 91.5488C104.546 91.722 104.268 91.8633 103.944 91.9727C103.621 92.082 103.247 92.1367 102.823 92.1367Z" fill="url(#paint0_linear_363_2856)"/>
<path d="M368.861 62.0469V72H366.858V62.0469H368.861ZM371.979 66.2783V67.9326H368.355V66.2783H371.979ZM372.361 62.0469V63.708H368.355V62.0469H372.361ZM376.463 70.2979V66.8799C376.463 66.6566 376.436 66.4788 376.381 66.3467C376.331 66.2145 376.253 66.1188 376.148 66.0596C376.048 65.9958 375.925 65.9639 375.779 65.9639C375.615 65.9639 375.479 65.998 375.369 66.0664C375.26 66.1348 375.178 66.2327 375.123 66.3604C375.073 66.488 375.048 66.6406 375.048 66.8184H373.127C373.127 66.4993 373.188 66.1986 373.312 65.916C373.435 65.6289 373.615 65.3783 373.852 65.1641C374.093 64.9453 374.38 64.7744 374.713 64.6514C375.046 64.5283 375.419 64.4668 375.834 64.4668C376.326 64.4668 376.764 64.5511 377.146 64.7197C377.529 64.8838 377.832 65.1458 378.056 65.5059C378.279 65.8659 378.391 66.333 378.391 66.9072V70.2021C378.391 70.6169 378.411 70.9541 378.452 71.2139C378.498 71.4736 378.564 71.6969 378.65 71.8838V72H376.723C376.636 71.7949 376.57 71.5397 376.524 71.2344C376.483 70.9245 376.463 70.6123 376.463 70.2979ZM376.695 67.4814L376.702 68.6299H375.998C375.816 68.6299 375.656 68.6595 375.52 68.7188C375.387 68.778 375.276 68.8623 375.185 68.9717C375.093 69.0765 375.025 69.1995 374.979 69.3408C374.938 69.4821 374.918 69.6325 374.918 69.792C374.918 69.9697 374.943 70.1201 374.993 70.2432C375.043 70.3662 375.118 70.4596 375.219 70.5234C375.319 70.5872 375.438 70.6191 375.574 70.6191C375.784 70.6191 375.966 70.5758 376.121 70.4893C376.276 70.4027 376.39 70.2979 376.463 70.1748C376.54 70.0518 376.565 69.9378 376.538 69.833L376.976 70.5781C376.921 70.7467 376.846 70.9222 376.75 71.1045C376.659 71.2868 376.543 71.4554 376.401 71.6104C376.26 71.7653 376.085 71.8929 375.875 71.9932C375.67 72.0889 375.426 72.1367 375.144 72.1367C374.747 72.1367 374.385 72.0456 374.057 71.8633C373.729 71.681 373.469 71.4258 373.277 71.0977C373.09 70.7695 372.997 70.3799 372.997 69.9287C372.997 69.555 373.056 69.2178 373.175 68.917C373.298 68.6117 373.48 68.3542 373.722 68.1445C373.963 67.9303 374.269 67.7663 374.638 67.6523C375.007 67.5384 375.44 67.4814 375.937 67.4814H376.695ZM382.479 70.5439C382.656 70.5439 382.809 70.5075 382.937 70.4346C383.069 70.3617 383.169 70.2432 383.237 70.0791C383.306 69.915 383.342 69.7031 383.347 69.4434H385.145C385.145 69.9993 385.026 70.4801 384.789 70.8857C384.557 71.2868 384.242 71.5967 383.846 71.8154C383.454 72.0296 383.009 72.1367 382.513 72.1367C382.016 72.1367 381.583 72.057 381.214 71.8975C380.845 71.738 380.539 71.5055 380.298 71.2002C380.061 70.8949 379.881 70.5234 379.758 70.0859C379.639 69.6439 379.58 69.138 379.58 68.5684V68.0283C379.58 67.4678 379.639 66.9665 379.758 66.5244C379.881 66.0824 380.061 65.7087 380.298 65.4033C380.539 65.098 380.842 64.8656 381.207 64.7061C381.576 64.5465 382.009 64.4668 382.506 64.4668C383.039 64.4668 383.502 64.5785 383.894 64.8018C384.285 65.0205 384.591 65.3441 384.81 65.7725C385.033 66.2008 385.145 66.7295 385.145 67.3584H383.347C383.342 67.0758 383.308 66.8411 383.244 66.6543C383.185 66.4629 383.091 66.3171 382.964 66.2168C382.841 66.112 382.677 66.0596 382.472 66.0596C382.257 66.0596 382.084 66.1051 381.952 66.1963C381.825 66.2829 381.727 66.4105 381.658 66.5791C381.594 66.7432 381.551 66.9482 381.528 67.1943C381.506 67.4404 381.494 67.7184 381.494 68.0283V68.5684C381.494 68.901 381.503 69.1904 381.521 69.4365C381.544 69.6781 381.588 69.8831 381.651 70.0518C381.72 70.2158 381.818 70.3389 381.945 70.4209C382.077 70.5029 382.255 70.5439 382.479 70.5439ZM389.472 64.6035V66.0459H385.698V64.6035H389.472ZM386.566 62.7783H388.474V69.7441C388.474 69.9492 388.494 70.1064 388.535 70.2158C388.576 70.3252 388.638 70.4027 388.72 70.4482C388.806 70.4893 388.92 70.5098 389.062 70.5098C389.157 70.5098 389.246 70.5052 389.328 70.4961C389.41 70.4824 389.472 70.4688 389.513 70.4551V71.9521C389.362 72.0114 389.203 72.057 389.034 72.0889C388.87 72.1208 388.674 72.1367 388.446 72.1367C388.063 72.1367 387.731 72.0638 387.448 71.918C387.17 71.7721 386.954 71.5397 386.799 71.2207C386.644 70.8971 386.566 70.4733 386.566 69.9492V62.7783ZM394.113 70.2227V64.6035H396.034V72H394.229L394.113 70.2227ZM394.332 68.6982L394.865 68.6846C394.865 69.1813 394.817 69.6416 394.722 70.0654C394.626 70.4847 394.482 70.8493 394.291 71.1592C394.1 71.4691 393.86 71.7106 393.573 71.8838C393.286 72.0524 392.947 72.1367 392.555 72.1367C392.254 72.1367 391.976 72.0866 391.721 71.9863C391.47 71.8815 391.254 71.7197 391.071 71.501C390.889 71.2777 390.745 70.9928 390.641 70.6465C390.54 70.2956 390.49 69.874 390.49 69.3818V64.6035H392.411V69.4023C392.411 69.6029 392.429 69.776 392.466 69.9219C392.502 70.0632 392.552 70.1794 392.616 70.2705C392.68 70.3617 392.755 70.4277 392.842 70.4688C392.928 70.5052 393.026 70.5234 393.136 70.5234C393.437 70.5234 393.674 70.446 393.847 70.291C394.024 70.1315 394.15 69.915 394.223 69.6416C394.296 69.3636 394.332 69.0492 394.332 68.6982ZM399.343 66.251V72H397.429V64.6035H399.233L399.343 66.251ZM401.086 64.5488L401.059 66.4561C400.972 66.4378 400.867 66.4242 400.744 66.415C400.626 66.4059 400.521 66.4014 400.43 66.4014C400.215 66.4014 400.033 66.4355 399.883 66.5039C399.732 66.5677 399.607 66.6657 399.507 66.7979C399.411 66.9255 399.338 67.085 399.288 67.2764C399.238 67.4678 399.208 67.6842 399.199 67.9258L398.837 67.7891C398.837 67.306 398.873 66.8639 398.946 66.4629C399.024 66.0573 399.138 65.7064 399.288 65.4102C399.438 65.1094 399.618 64.877 399.828 64.7129C400.042 64.5488 400.284 64.4668 400.553 64.4668C400.644 64.4668 400.74 64.4759 400.84 64.4941C400.945 64.5078 401.027 64.526 401.086 64.5488ZM405.119 70.2979V66.8799C405.119 66.6566 405.092 66.4788 405.037 66.3467C404.987 66.2145 404.91 66.1188 404.805 66.0596C404.704 65.9958 404.581 65.9639 404.436 65.9639C404.271 65.9639 404.135 65.998 404.025 66.0664C403.916 66.1348 403.834 66.2327 403.779 66.3604C403.729 66.488 403.704 66.6406 403.704 66.8184H401.783C401.783 66.4993 401.845 66.1986 401.968 65.916C402.091 65.6289 402.271 65.3783 402.508 65.1641C402.749 64.9453 403.036 64.7744 403.369 64.6514C403.702 64.5283 404.076 64.4668 404.49 64.4668C404.982 64.4668 405.42 64.5511 405.803 64.7197C406.186 64.8838 406.489 65.1458 406.712 65.5059C406.935 65.8659 407.047 66.333 407.047 66.9072V70.2021C407.047 70.6169 407.067 70.9541 407.108 71.2139C407.154 71.4736 407.22 71.6969 407.307 71.8838V72H405.379C405.292 71.7949 405.226 71.5397 405.181 71.2344C405.14 70.9245 405.119 70.6123 405.119 70.2979ZM405.352 67.4814L405.358 68.6299H404.654C404.472 68.6299 404.312 68.6595 404.176 68.7188C404.044 68.778 403.932 68.8623 403.841 68.9717C403.75 69.0765 403.681 69.1995 403.636 69.3408C403.595 69.4821 403.574 69.6325 403.574 69.792C403.574 69.9697 403.599 70.1201 403.649 70.2432C403.7 70.3662 403.775 70.4596 403.875 70.5234C403.975 70.5872 404.094 70.6191 404.23 70.6191C404.44 70.6191 404.622 70.5758 404.777 70.4893C404.932 70.4027 405.046 70.2979 405.119 70.1748C405.197 70.0518 405.222 69.9378 405.194 69.833L405.632 70.5781C405.577 70.7467 405.502 70.9222 405.406 71.1045C405.315 71.2868 405.199 71.4554 405.058 71.6104C404.916 71.7653 404.741 71.8929 404.531 71.9932C404.326 72.0889 404.082 72.1367 403.8 72.1367C403.403 72.1367 403.041 72.0456 402.713 71.8633C402.385 71.681 402.125 71.4258 401.934 71.0977C401.747 70.7695 401.653 70.3799 401.653 69.9287C401.653 69.555 401.713 69.2178 401.831 68.917C401.954 68.6117 402.136 68.3542 402.378 68.1445C402.619 67.9303 402.925 67.7663 403.294 67.6523C403.663 67.5384 404.096 67.4814 404.593 67.4814H405.352ZM410.376 66.251V72H408.462V64.6035H410.267L410.376 66.251ZM412.119 64.5488L412.092 66.4561C412.005 66.4378 411.9 66.4242 411.777 66.415C411.659 66.4059 411.554 66.4014 411.463 66.4014C411.249 66.4014 411.066 66.4355 410.916 66.5039C410.766 66.5677 410.64 66.6657 410.54 66.7979C410.444 66.9255 410.371 67.085 410.321 67.2764C410.271 67.4678 410.242 67.6842 410.232 67.9258L409.87 67.7891C409.87 67.306 409.907 66.8639 409.979 66.4629C410.057 66.0573 410.171 65.7064 410.321 65.4102C410.472 65.1094 410.652 64.877 410.861 64.7129C411.076 64.5488 411.317 64.4668 411.586 64.4668C411.677 64.4668 411.773 64.4759 411.873 64.4941C411.978 64.5078 412.06 64.526 412.119 64.5488ZM415.94 72.1367C415.435 72.1367 414.986 72.0592 414.594 71.9043C414.206 71.7493 413.878 71.526 413.609 71.2344C413.34 70.9382 413.135 70.5804 412.994 70.1611C412.853 69.7419 412.782 69.2633 412.782 68.7256V68.1172C412.782 67.5156 412.851 66.9893 412.987 66.5381C413.124 66.0824 413.318 65.6995 413.568 65.3896C413.819 65.0798 414.127 64.8496 414.491 64.6992C414.86 64.5443 415.277 64.4668 415.742 64.4668C416.207 64.4668 416.615 64.5443 416.966 64.6992C417.321 64.8496 417.615 65.0775 417.848 65.3828C418.08 65.6836 418.256 66.0573 418.374 66.5039C418.493 66.9505 418.552 67.4701 418.552 68.0625V68.9375H413.596V67.5908H416.672V67.4199C416.672 67.1191 416.64 66.8685 416.576 66.668C416.512 66.4629 416.412 66.3102 416.275 66.21C416.139 66.1097 415.956 66.0596 415.729 66.0596C415.537 66.0596 415.375 66.0983 415.243 66.1758C415.111 66.2533 415.006 66.374 414.929 66.5381C414.851 66.7021 414.794 66.9163 414.758 67.1807C414.721 67.4404 414.703 67.7526 414.703 68.1172V68.7256C414.703 69.0674 414.733 69.3545 414.792 69.5869C414.851 69.8148 414.938 70.0016 415.052 70.1475C415.17 70.2887 415.314 70.3913 415.482 70.4551C415.651 70.5143 415.847 70.5439 416.07 70.5439C416.408 70.5439 416.711 70.4847 416.979 70.3662C417.253 70.2432 417.485 70.0768 417.677 69.8672L418.442 71.0293C418.31 71.2025 418.128 71.3757 417.896 71.5488C417.663 71.722 417.385 71.8633 417.062 71.9727C416.738 72.082 416.364 72.1367 415.94 72.1367Z" fill="url(#paint1_linear_363_2856)"/>
<path d="M667.086 66.874L668.973 59.0469H671.133L668.248 69H666.792L667.086 66.874ZM665.473 59.0469L667.353 66.874L667.66 69H666.197L663.333 59.0469H665.473ZM674.667 69.1367C674.161 69.1367 673.712 69.0592 673.32 68.9043C672.933 68.7493 672.605 68.526 672.336 68.2344C672.067 67.9382 671.862 67.5804 671.721 67.1611C671.579 66.7419 671.509 66.2633 671.509 65.7256V65.1172C671.509 64.5156 671.577 63.9893 671.714 63.5381C671.851 63.0824 672.044 62.6995 672.295 62.3896C672.546 62.0798 672.853 61.8496 673.218 61.6992C673.587 61.5443 674.004 61.4668 674.469 61.4668C674.934 61.4668 675.341 61.5443 675.692 61.6992C676.048 61.8496 676.342 62.0775 676.574 62.3828C676.807 62.6836 676.982 63.0573 677.101 63.5039C677.219 63.9505 677.278 64.4701 677.278 65.0625V65.9375H672.322V64.5908H675.398V64.4199C675.398 64.1191 675.367 63.8685 675.303 63.668C675.239 63.4629 675.139 63.3102 675.002 63.21C674.865 63.1097 674.683 63.0596 674.455 63.0596C674.264 63.0596 674.102 63.0983 673.97 63.1758C673.838 63.2533 673.733 63.374 673.655 63.5381C673.578 63.7021 673.521 63.9163 673.484 64.1807C673.448 64.4404 673.43 64.7526 673.43 65.1172V65.7256C673.43 66.0674 673.459 66.3545 673.519 66.5869C673.578 66.8148 673.664 67.0016 673.778 67.1475C673.897 67.2887 674.04 67.3913 674.209 67.4551C674.378 67.5143 674.574 67.5439 674.797 67.5439C675.134 67.5439 675.437 67.4847 675.706 67.3662C675.979 67.2432 676.212 67.0768 676.403 66.8672L677.169 68.0293C677.037 68.2025 676.854 68.3757 676.622 68.5488C676.39 68.722 676.112 68.8633 675.788 68.9727C675.465 69.082 675.091 69.1367 674.667 69.1367ZM680.3 63.251V69H678.386V61.6035H680.19L680.3 63.251ZM682.043 61.5488L682.016 63.4561C681.929 63.4378 681.824 63.4242 681.701 63.415C681.583 63.4059 681.478 63.4014 681.387 63.4014C681.173 63.4014 680.99 63.4355 680.84 63.5039C680.689 63.5677 680.564 63.6657 680.464 63.7979C680.368 63.9255 680.295 64.085 680.245 64.2764C680.195 64.4678 680.165 64.6842 680.156 64.9258L679.794 64.7891C679.794 64.306 679.83 63.8639 679.903 63.4629C679.981 63.0573 680.095 62.7064 680.245 62.4102C680.396 62.1094 680.576 61.877 680.785 61.7129C680.999 61.5488 681.241 61.4668 681.51 61.4668C681.601 61.4668 681.697 61.4759 681.797 61.4941C681.902 61.5078 681.984 61.526 682.043 61.5488ZM685.03 61.6035V69H683.109V61.6035H685.03ZM683.021 59.6895C683.021 59.3932 683.114 59.1494 683.301 58.958C683.492 58.762 683.747 58.6641 684.066 58.6641C684.39 58.6641 684.645 58.762 684.832 58.958C685.019 59.1494 685.112 59.3932 685.112 59.6895C685.112 59.9811 685.017 60.2249 684.825 60.4209C684.638 60.6123 684.388 60.708 684.073 60.708C683.75 60.708 683.492 60.6123 683.301 60.4209C683.114 60.2249 683.021 59.9811 683.021 59.6895ZM688.858 69H686.944V61.2959C686.944 60.6579 687.056 60.1224 687.279 59.6895C687.507 59.252 687.835 58.9215 688.264 58.6982C688.697 58.4704 689.214 58.3564 689.815 58.3564C690.162 58.3564 690.49 58.3952 690.8 58.4727C691.114 58.5456 691.438 58.6413 691.771 58.7598L691.497 60.3867C691.297 60.3138 691.071 60.2454 690.82 60.1816C690.574 60.1133 690.283 60.0791 689.945 60.0791C689.576 60.0791 689.303 60.1816 689.125 60.3867C688.947 60.5918 688.858 60.8949 688.858 61.2959V69ZM690 61.6035V63.0459H686.042V61.6035H690ZM692.652 61.6035V69H690.731V61.6035H692.652ZM696.85 67.5439C697.027 67.5439 697.18 67.5075 697.308 67.4346C697.44 67.3617 697.54 67.2432 697.608 67.0791C697.677 66.915 697.713 66.7031 697.718 66.4434H699.516C699.516 66.9993 699.397 67.4801 699.16 67.8857C698.928 68.2868 698.613 68.5967 698.217 68.8154C697.825 69.0296 697.381 69.1367 696.884 69.1367C696.387 69.1367 695.954 69.057 695.585 68.8975C695.216 68.738 694.91 68.5055 694.669 68.2002C694.432 67.8949 694.252 67.5234 694.129 67.0859C694.01 66.6439 693.951 66.138 693.951 65.5684V65.0283C693.951 64.4678 694.01 63.9665 694.129 63.5244C694.252 63.0824 694.432 62.7087 694.669 62.4033C694.91 62.098 695.214 61.8656 695.578 61.7061C695.947 61.5465 696.38 61.4668 696.877 61.4668C697.41 61.4668 697.873 61.5785 698.265 61.8018C698.657 62.0205 698.962 62.3441 699.181 62.7725C699.404 63.2008 699.516 63.7295 699.516 64.3584H697.718C697.713 64.0758 697.679 63.8411 697.615 63.6543C697.556 63.4629 697.463 63.3171 697.335 63.2168C697.212 63.112 697.048 63.0596 696.843 63.0596C696.629 63.0596 696.455 63.1051 696.323 63.1963C696.196 63.2829 696.098 63.4105 696.029 63.5791C695.965 63.7432 695.922 63.9482 695.899 64.1943C695.877 64.4404 695.865 64.7184 695.865 65.0283V65.5684C695.865 65.901 695.874 66.1904 695.893 66.4365C695.915 66.6781 695.959 66.8831 696.022 67.0518C696.091 67.2158 696.189 67.3389 696.316 67.4209C696.449 67.5029 696.626 67.5439 696.85 67.5439ZM703.877 67.2979V63.8799C703.877 63.6566 703.85 63.4788 703.795 63.3467C703.745 63.2145 703.667 63.1188 703.562 63.0596C703.462 62.9958 703.339 62.9639 703.193 62.9639C703.029 62.9639 702.893 62.998 702.783 63.0664C702.674 63.1348 702.592 63.2327 702.537 63.3604C702.487 63.488 702.462 63.6406 702.462 63.8184H700.541C700.541 63.4993 700.603 63.1986 700.726 62.916C700.849 62.6289 701.029 62.3783 701.266 62.1641C701.507 61.9453 701.794 61.7744 702.127 61.6514C702.46 61.5283 702.833 61.4668 703.248 61.4668C703.74 61.4668 704.178 61.5511 704.561 61.7197C704.943 61.8838 705.246 62.1458 705.47 62.5059C705.693 62.8659 705.805 63.333 705.805 63.9072V67.2021C705.805 67.6169 705.825 67.9541 705.866 68.2139C705.912 68.4736 705.978 68.6969 706.064 68.8838V69H704.137C704.05 68.7949 703.984 68.5397 703.938 68.2344C703.897 67.9245 703.877 67.6123 703.877 67.2979ZM704.109 64.4814L704.116 65.6299H703.412C703.23 65.6299 703.07 65.6595 702.934 65.7188C702.801 65.778 702.69 65.8623 702.599 65.9717C702.507 66.0765 702.439 66.1995 702.394 66.3408C702.353 66.4821 702.332 66.6325 702.332 66.792C702.332 66.9697 702.357 67.1201 702.407 67.2432C702.457 67.3662 702.533 67.4596 702.633 67.5234C702.733 67.5872 702.852 67.6191 702.988 67.6191C703.198 67.6191 703.38 67.5758 703.535 67.4893C703.69 67.4027 703.804 67.2979 703.877 67.1748C703.954 67.0518 703.979 66.9378 703.952 66.833L704.39 67.5781C704.335 67.7467 704.26 67.9222 704.164 68.1045C704.073 68.2868 703.957 68.4554 703.815 68.6104C703.674 68.7653 703.499 68.8929 703.289 68.9932C703.084 69.0889 702.84 69.1367 702.558 69.1367C702.161 69.1367 701.799 69.0456 701.471 68.8633C701.143 68.681 700.883 68.4258 700.691 68.0977C700.505 67.7695 700.411 67.3799 700.411 66.9287C700.411 66.555 700.47 66.2178 700.589 65.917C700.712 65.6117 700.894 65.3542 701.136 65.1445C701.377 64.9303 701.683 64.7663 702.052 64.6523C702.421 64.5384 702.854 64.4814 703.351 64.4814H704.109ZM709.134 63.251V69H707.22V61.6035H709.024L709.134 63.251ZM710.877 61.5488L710.85 63.4561C710.763 63.4378 710.658 63.4242 710.535 63.415C710.417 63.4059 710.312 63.4014 710.221 63.4014C710.007 63.4014 709.824 63.4355 709.674 63.5039C709.523 63.5677 709.398 63.6657 709.298 63.7979C709.202 63.9255 709.129 64.085 709.079 64.2764C709.029 64.4678 708.999 64.6842 708.99 64.9258L708.628 64.7891C708.628 64.306 708.664 63.8639 708.737 63.4629C708.815 63.0573 708.929 62.7064 709.079 62.4102C709.229 62.1094 709.41 61.877 709.619 61.7129C709.833 61.5488 710.075 61.4668 710.344 61.4668C710.435 61.4668 710.531 61.4759 710.631 61.4941C710.736 61.5078 710.818 61.526 710.877 61.5488ZM714.698 69.1367C714.192 69.1367 713.743 69.0592 713.352 68.9043C712.964 68.7493 712.636 68.526 712.367 68.2344C712.098 67.9382 711.893 67.5804 711.752 67.1611C711.611 66.7419 711.54 66.2633 711.54 65.7256V65.1172C711.54 64.5156 711.608 63.9893 711.745 63.5381C711.882 63.0824 712.076 62.6995 712.326 62.3896C712.577 62.0798 712.884 61.8496 713.249 61.6992C713.618 61.5443 714.035 61.4668 714.5 61.4668C714.965 61.4668 715.373 61.5443 715.724 61.6992C716.079 61.8496 716.373 62.0775 716.605 62.3828C716.838 62.6836 717.013 63.0573 717.132 63.5039C717.25 63.9505 717.31 64.4701 717.31 65.0625V65.9375H712.354V64.5908H715.43V64.4199C715.43 64.1191 715.398 63.8685 715.334 63.668C715.27 63.4629 715.17 63.3102 715.033 63.21C714.896 63.1097 714.714 63.0596 714.486 63.0596C714.295 63.0596 714.133 63.0983 714.001 63.1758C713.869 63.2533 713.764 63.374 713.687 63.5381C713.609 63.7021 713.552 63.9163 713.516 64.1807C713.479 64.4404 713.461 64.7526 713.461 65.1172V65.7256C713.461 66.0674 713.491 66.3545 713.55 66.5869C713.609 66.8148 713.696 67.0016 713.81 67.1475C713.928 67.2887 714.072 67.3913 714.24 67.4551C714.409 67.5143 714.605 67.5439 714.828 67.5439C715.165 67.5439 715.468 67.4847 715.737 67.3662C716.011 67.2432 716.243 67.0768 716.435 66.8672L717.2 68.0293C717.068 68.2025 716.886 68.3757 716.653 68.5488C716.421 68.722 716.143 68.8633 715.819 68.9727C715.496 69.082 715.122 69.1367 714.698 69.1367ZM724.925 67.0039C724.925 66.8763 724.882 66.7624 724.795 66.6621C724.708 66.5618 724.572 66.4593 724.385 66.3545C724.198 66.2451 723.95 66.1243 723.64 65.9922C723.302 65.8555 723.004 65.7142 722.744 65.5684C722.484 65.4225 722.263 65.2607 722.081 65.083C721.903 64.9053 721.769 64.7025 721.678 64.4746C721.587 64.2467 721.541 63.987 721.541 63.6953C721.541 63.3809 721.598 63.0915 721.712 62.8271C721.83 62.5583 721.999 62.3236 722.218 62.123C722.437 61.918 722.703 61.7585 723.018 61.6445C723.337 61.526 723.694 61.4668 724.091 61.4668C724.647 61.4668 725.123 61.5648 725.52 61.7607C725.921 61.9521 726.228 62.221 726.442 62.5674C726.657 62.9137 726.764 63.3171 726.764 63.7773H724.85C724.85 63.6133 724.825 63.4674 724.774 63.3398C724.724 63.2077 724.642 63.1051 724.528 63.0322C724.419 62.9593 724.271 62.9229 724.084 62.9229C723.947 62.9229 723.824 62.9525 723.715 63.0117C723.61 63.071 723.526 63.1507 723.462 63.251C723.403 63.3467 723.373 63.4606 723.373 63.5928C723.373 63.693 723.394 63.7819 723.435 63.8594C723.48 63.9368 723.551 64.012 723.646 64.085C723.742 64.1579 723.87 64.2354 724.029 64.3174C724.193 64.3949 724.394 64.4814 724.631 64.5771C725.123 64.7594 725.526 64.9554 725.841 65.165C726.16 65.3747 726.397 65.6208 726.552 65.9033C726.707 66.1813 726.784 66.5254 726.784 66.9355C726.784 67.2637 726.72 67.5622 726.593 67.8311C726.47 68.0999 726.29 68.3324 726.053 68.5283C725.816 68.7243 725.531 68.8747 725.198 68.9795C724.87 69.0843 724.503 69.1367 724.098 69.1367C723.501 69.1367 722.997 69.0182 722.587 68.7812C722.177 68.5443 721.867 68.2412 721.657 67.8721C721.448 67.4984 721.343 67.111 721.343 66.71H723.161C723.17 66.9561 723.216 67.1497 723.298 67.291C723.384 67.4277 723.501 67.5234 723.646 67.5781C723.792 67.6328 723.954 67.6602 724.132 67.6602C724.31 67.6602 724.455 67.6374 724.569 67.5918C724.688 67.5417 724.777 67.4665 724.836 67.3662C724.895 67.2614 724.925 67.1406 724.925 67.0039ZM724.829 69.7109V70.1963C724.829 70.6247 724.743 71.0622 724.569 71.5088C724.401 71.9554 724.187 72.3223 723.927 72.6094L722.99 72.0693C723.122 71.8187 723.229 71.5566 723.312 71.2832C723.394 71.0098 723.435 70.6816 723.435 70.2988V69.7109H724.829ZM730.011 61.6035V69H728.09V61.6035H730.011ZM728.001 59.6895C728.001 59.3932 728.094 59.1494 728.281 58.958C728.473 58.762 728.728 58.6641 729.047 58.6641C729.37 58.6641 729.626 58.762 729.812 58.958C729.999 59.1494 730.093 59.3932 730.093 59.6895C730.093 59.9811 729.997 60.2249 729.806 60.4209C729.619 60.6123 729.368 60.708 729.054 60.708C728.73 60.708 728.473 60.6123 728.281 60.4209C728.094 60.2249 728.001 59.9811 728.001 59.6895ZM685.646 77.0254V85.8438H683.738V75.6035H685.502L685.646 77.0254ZM689.487 79.0488V79.541C689.487 80.1198 689.437 80.6325 689.337 81.0791C689.237 81.5212 689.086 81.8971 688.886 82.207C688.69 82.5124 688.444 82.7448 688.147 82.9043C687.851 83.0592 687.505 83.1367 687.108 83.1367C686.739 83.1367 686.42 83.0501 686.151 82.877C685.887 82.6992 685.664 82.4554 685.481 82.1455C685.299 81.8356 685.153 81.4733 685.044 81.0586C684.935 80.6439 684.85 80.1995 684.791 79.7256V78.96C684.846 78.4541 684.925 77.9893 685.03 77.5654C685.135 77.137 685.279 76.7656 685.461 76.4512C685.648 76.1367 685.873 75.8952 686.138 75.7266C686.407 75.5534 686.726 75.4668 687.095 75.4668C687.496 75.4668 687.844 75.5397 688.141 75.6855C688.441 75.8314 688.69 76.0524 688.886 76.3486C689.086 76.6403 689.237 77.0117 689.337 77.4629C689.437 77.9141 689.487 78.4427 689.487 79.0488ZM687.573 79.541V79.0488C687.573 78.6934 687.553 78.3903 687.512 78.1396C687.475 77.889 687.416 77.6839 687.334 77.5244C687.252 77.3649 687.145 77.2487 687.013 77.1758C686.881 77.1029 686.719 77.0664 686.527 77.0664C686.34 77.0664 686.176 77.1029 686.035 77.1758C685.898 77.2487 685.787 77.3558 685.7 77.4971C685.614 77.6338 685.548 77.8024 685.502 78.0029C685.456 78.1989 685.431 78.4222 685.427 78.6729V80.0127C685.436 80.3089 685.475 80.571 685.543 80.7988C685.616 81.0267 685.732 81.209 685.892 81.3457C686.051 81.4779 686.268 81.5439 686.541 81.5439C686.737 81.5439 686.899 81.5029 687.026 81.4209C687.159 81.3389 687.266 81.2158 687.348 81.0518C687.43 80.8877 687.487 80.6803 687.519 80.4297C687.555 80.179 687.573 79.8828 687.573 79.541ZM692.673 72.5V83H690.752V72.5H692.673ZM697.451 81.2979V77.8799C697.451 77.6566 697.424 77.4788 697.369 77.3467C697.319 77.2145 697.242 77.1188 697.137 77.0596C697.036 76.9958 696.913 76.9639 696.768 76.9639C696.604 76.9639 696.467 76.998 696.357 77.0664C696.248 77.1348 696.166 77.2327 696.111 77.3604C696.061 77.488 696.036 77.6406 696.036 77.8184H694.115C694.115 77.4993 694.177 77.1986 694.3 76.916C694.423 76.6289 694.603 76.3783 694.84 76.1641C695.081 75.9453 695.368 75.7744 695.701 75.6514C696.034 75.5283 696.408 75.4668 696.822 75.4668C697.314 75.4668 697.752 75.5511 698.135 75.7197C698.518 75.8838 698.821 76.1458 699.044 76.5059C699.267 76.8659 699.379 77.333 699.379 77.9072V81.2021C699.379 81.6169 699.399 81.9541 699.44 82.2139C699.486 82.4736 699.552 82.6969 699.639 82.8838V83H697.711C697.624 82.7949 697.558 82.5397 697.513 82.2344C697.472 81.9245 697.451 81.6123 697.451 81.2979ZM697.684 78.4814L697.69 79.6299H696.986C696.804 79.6299 696.645 79.6595 696.508 79.7188C696.376 79.778 696.264 79.8623 696.173 79.9717C696.082 80.0765 696.013 80.1995 695.968 80.3408C695.927 80.4821 695.906 80.6325 695.906 80.792C695.906 80.9697 695.931 81.1201 695.981 81.2432C696.032 81.3662 696.107 81.4596 696.207 81.5234C696.307 81.5872 696.426 81.6191 696.562 81.6191C696.772 81.6191 696.954 81.5758 697.109 81.4893C697.264 81.4027 697.378 81.2979 697.451 81.1748C697.529 81.0518 697.554 80.9378 697.526 80.833L697.964 81.5781C697.909 81.7467 697.834 81.9222 697.738 82.1045C697.647 82.2868 697.531 82.4554 697.39 82.6104C697.248 82.7653 697.073 82.8929 696.863 82.9932C696.658 83.0889 696.414 83.1367 696.132 83.1367C695.735 83.1367 695.373 83.0456 695.045 82.8633C694.717 82.681 694.457 82.4258 694.266 82.0977C694.079 81.7695 693.985 81.3799 693.985 80.9287C693.985 80.555 694.045 80.2178 694.163 79.917C694.286 79.6117 694.468 79.3542 694.71 79.1445C694.951 78.9303 695.257 78.7663 695.626 78.6523C695.995 78.5384 696.428 78.4814 696.925 78.4814H697.684ZM704.021 75.6035V77.0459H700.247V75.6035H704.021ZM701.115 73.7783H703.022V80.7441C703.022 80.9492 703.043 81.1064 703.084 81.2158C703.125 81.3252 703.187 81.4027 703.269 81.4482C703.355 81.4893 703.469 81.5098 703.61 81.5098C703.706 81.5098 703.795 81.5052 703.877 81.4961C703.959 81.4824 704.021 81.4688 704.062 81.4551V82.9521C703.911 83.0114 703.752 83.057 703.583 83.0889C703.419 83.1208 703.223 83.1367 702.995 83.1367C702.612 83.1367 702.28 83.0638 701.997 82.918C701.719 82.7721 701.503 82.5397 701.348 82.2207C701.193 81.8971 701.115 81.4733 701.115 80.9492V73.7783ZM708.348 81.2979V77.8799C708.348 77.6566 708.32 77.4788 708.266 77.3467C708.215 77.2145 708.138 77.1188 708.033 77.0596C707.933 76.9958 707.81 76.9639 707.664 76.9639C707.5 76.9639 707.363 76.998 707.254 77.0664C707.145 77.1348 707.062 77.2327 707.008 77.3604C706.958 77.488 706.933 77.6406 706.933 77.8184H705.012C705.012 77.4993 705.073 77.1986 705.196 76.916C705.319 76.6289 705.499 76.3783 705.736 76.1641C705.978 75.9453 706.265 75.7744 706.598 75.6514C706.93 75.5283 707.304 75.4668 707.719 75.4668C708.211 75.4668 708.648 75.5511 709.031 75.7197C709.414 75.8838 709.717 76.1458 709.94 76.5059C710.164 76.8659 710.275 77.333 710.275 77.9072V81.2021C710.275 81.6169 710.296 81.9541 710.337 82.2139C710.382 82.4736 710.449 82.6969 710.535 82.8838V83H708.607C708.521 82.7949 708.455 82.5397 708.409 82.2344C708.368 81.9245 708.348 81.6123 708.348 81.2979ZM708.58 78.4814L708.587 79.6299H707.883C707.701 79.6299 707.541 79.6595 707.404 79.7188C707.272 79.778 707.16 79.8623 707.069 79.9717C706.978 80.0765 706.91 80.1995 706.864 80.3408C706.823 80.4821 706.803 80.6325 706.803 80.792C706.803 80.9697 706.828 81.1201 706.878 81.2432C706.928 81.3662 707.003 81.4596 707.104 81.5234C707.204 81.5872 707.322 81.6191 707.459 81.6191C707.669 81.6191 707.851 81.5758 708.006 81.4893C708.161 81.4027 708.275 81.2979 708.348 81.1748C708.425 81.0518 708.45 80.9378 708.423 80.833L708.86 81.5781C708.806 81.7467 708.73 81.9222 708.635 82.1045C708.544 82.2868 708.427 82.4554 708.286 82.6104C708.145 82.7653 707.969 82.8929 707.76 82.9932C707.555 83.0889 707.311 83.1367 707.028 83.1367C706.632 83.1367 706.27 83.0456 705.941 82.8633C705.613 82.681 705.354 82.4258 705.162 82.0977C704.975 81.7695 704.882 81.3799 704.882 80.9287C704.882 80.555 704.941 80.2178 705.06 79.917C705.183 79.6117 705.365 79.3542 705.606 79.1445C705.848 78.9303 706.153 78.7663 706.522 78.6523C706.892 78.5384 707.325 78.4814 707.821 78.4814H708.58ZM708.614 72.5615H710.022C710.022 72.9626 709.924 73.3158 709.729 73.6211C709.537 73.9219 709.264 74.1589 708.908 74.332C708.557 74.5052 708.14 74.5918 707.657 74.5918C706.928 74.5918 706.352 74.4027 705.928 74.0244C705.504 73.6462 705.292 73.1585 705.292 72.5615H706.687C706.687 72.7985 706.759 73.0081 706.905 73.1904C707.051 73.3727 707.302 73.4639 707.657 73.4639C708.008 73.4639 708.254 73.3727 708.396 73.1904C708.541 73.0081 708.614 72.7985 708.614 72.5615Z" fill="#E0E0E9"/>
<path fill-rule="evenodd" clip-rule="evenodd" d="M690 33H400V31H690V33Z" fill="#D0CFD7"/>
<path fill-rule="evenodd" clip-rule="evenodd" d="M376 33H83V31H376V33Z" fill="url(#paint2_linear_363_2856)"/>
<g filter="url(#filter0_d_363_2856)">
<path d="M69 17C60.7125 17 54 23.7125 54 32C54 34.8125 54.7875 37.475 56.175 39.725C57.497 41.9468 59.3748 43.7861 61.6236 45.0617C63.8724 46.3373 66.4146 47.0053 69 47C74.475 47 79.2375 44.075 81.825 39.725C83.2125 37.475 84 34.8125 84 32C84 23.7125 77.2875 17 69 17ZM76.3875 30.7625L68.4 38.15C67.875 38.6375 67.1625 38.9 66.4875 38.9C65.775 38.9 65.0625 38.6375 64.5 38.075L60.7875 34.3625C60.2644 33.8332 59.9711 33.1191 59.9711 32.375C59.9711 31.6309 60.2644 30.9168 60.7875 30.3875C61.875 29.3 63.675 29.3 64.7625 30.3875L66.5625 32.1875L72.5625 26.6375C73.6875 25.5875 75.4875 25.6625 76.5375 26.7875C77.5875 27.9125 77.5125 29.7125 76.3875 30.7625Z" fill="url(#paint3_linear_363_2856)"/>
</g>
<g filter="url(#filter1_d_363_2856)">
<path d="M390 17C381.712 17 375 23.7125 375 32C375 34.8125 375.788 37.475 377.175 39.725C378.497 41.9468 380.375 43.7861 382.624 45.0617C384.872 46.3373 387.415 47.0053 390 47C395.475 47 400.238 44.075 402.825 39.725C404.213 37.475 405 34.8125 405 32C405 23.7125 398.288 17 390 17ZM397.387 30.7625L389.4 38.15C388.875 38.6375 388.162 38.9 387.487 38.9C386.775 38.9 386.062 38.6375 385.5 38.075L381.787 34.3625C381.264 33.8332 380.971 33.1191 380.971 32.375C380.971 31.6309 381.264 30.9168 381.787 30.3875C382.875 29.3 384.675 29.3 385.762 30.3875L387.562 32.1875L393.562 26.6375C394.687 25.5875 396.488 25.6625 397.538 26.7875C398.588 27.9125 398.512 29.7125 397.387 30.7625Z" fill="url(#paint4_linear_363_2856)"/>
</g>
<circle cx="696.5" cy="32.5" r="14.5" fill="#D0CFD7"/>
<defs>
<filter id="filter0_d_363_2856" x="37" y="0" width="74" height="74" filterUnits="userSpaceOnUse" color-interpolation-filters="sRGB">
<feFlood flood-opacity="0" result="BackgroundImageFix"/>
<feColorMatrix in="SourceAlpha" type="matrix" values="0 0 0 0 0 0 0 0 0 0 0 0 0 0 0 0 0 0 127 0" result="hardAlpha"/>
<feOffset dx="5" dy="5"/>
<feGaussianBlur stdDeviation="11"/>
<feComposite in2="hardAlpha" operator="out"/>
<feColorMatrix type="matrix" values="0 0 0 0 0.0392157 0 0 0 0 0.560784 0 0 0 0 0.309804 0 0 0 0.2 0"/>
<feBlend mode="normal" in2="BackgroundImageFix" result="effect1_dropShadow_363_2856"/>
<feBlend mode="normal" in="SourceGraphic" in2="effect1_dropShadow_363_2856" result="shape"/>
</filter>
<filter id="filter1_d_363_2856" x="358" y="0" width="74" height="74" filterUnits="userSpaceOnUse" color-interpolation-filters="sRGB">
<feFlood flood-opacity="0" result="BackgroundImageFix"/>
<feColorMatrix in="SourceAlpha" type="matrix" values="0 0 0 0 0 0 0 0 0 0 0 0 0 0 0 0 0 0 127 0" result="hardAlpha"/>
<feOffset dx="5" dy="5"/>
<feGaussianBlur stdDeviation="11"/>
<feComposite in2="hardAlpha" operator="out"/>
<feColorMatrix type="matrix" values="0 0 0 0 0.0392157 0 0 0 0 0.560784 0 0 0 0 0.309804 0 0 0 0.2 0"/>
<feBlend mode="normal" in2="BackgroundImageFix" result="effect1_dropShadow_363_2856"/>
<feBlend mode="normal" in="SourceGraphic" in2="effect1_dropShadow_363_2856" result="shape"/>
</filter>
<linearGradient id="paint0_linear_363_2856" x1="68.5" y1="97" x2="68.5" y2="57" gradientUnits="userSpaceOnUse">
<stop stop-color="#5CCC94"/>
<stop offset="1" stop-color="#8CCAAE"/>
</linearGradient>
<linearGradient id="paint1_linear_363_2856" x1="392.5" y1="77" x2="392.5" y2="57" gradientUnits="userSpaceOnUse">
<stop stop-color="#5CCC94"/>
<stop offset="1" stop-color="#8CCAAE"/>
</linearGradient>
<linearGradient id="paint2_linear_363_2856" x1="229.5" y1="33" x2="229.5" y2="31" gradientUnits="userSpaceOnUse">
<stop stop-color="#5CCC94"/>
<stop offset="1" stop-color="#8CCAAE"/>
</linearGradient>
<linearGradient id="paint3_linear_363_2856" x1="69" y1="47" x2="69" y2="17" gradientUnits="userSpaceOnUse">
<stop stop-color="#5CCC94"/>
<stop offset="1" stop-color="#8CCAAE"/>
</linearGradient>
<linearGradient id="paint4_linear_363_2856" x1="390" y1="47" x2="390" y2="17" gradientUnits="userSpaceOnUse">
<stop stop-color="#5CCC94"/>
<stop offset="1" stop-color="#8CCAAE"/>
</linearGradient>
</defs>
</svg>
