<svg width="739" height="84" viewBox="0 0 739 84" fill="none" xmlns="http://www.w3.org/2000/svg">
<path d="M31.3193 62.0469V72H29.3848L26.2607 65.7725V72H24.3604V62.0469H26.2676L29.4189 68.3428V62.0469H31.3193ZM36.4121 70.2227V64.6035H38.333V72H36.5283L36.4121 70.2227ZM36.6309 68.6982L37.1641 68.6846C37.1641 69.1813 37.1162 69.6416 37.0205 70.0654C36.9248 70.4847 36.7812 70.8493 36.5898 71.1592C36.3984 71.4691 36.1592 71.7106 35.8721 71.8838C35.585 72.0524 35.2454 72.1367 34.8535 72.1367C34.5527 72.1367 34.2747 72.0866 34.0195 71.9863C33.7689 71.8815 33.5524 71.7197 33.3701 71.501C33.1878 71.2777 33.0443 70.9928 32.9395 70.6465C32.8392 70.2956 32.7891 69.874 32.7891 69.3818V64.6035H34.71V69.4023C34.71 69.6029 34.7282 69.776 34.7646 69.9219C34.8011 70.0632 34.8512 70.1794 34.915 70.2705C34.9788 70.3617 35.054 70.4277 35.1406 70.4688C35.2272 70.5052 35.3252 70.5234 35.4346 70.5234C35.7354 70.5234 35.9723 70.446 36.1455 70.291C36.3232 70.1315 36.4486 69.915 36.5215 69.6416C36.5944 69.3636 36.6309 69.0492 36.6309 68.6982ZM41.6553 66.1348V72H39.7344V64.6035H41.5391L41.6553 66.1348ZM41.3818 68.0488L40.8555 68.0625C40.8464 67.543 40.8919 67.0645 40.9922 66.627C41.0924 66.1895 41.2428 65.8089 41.4434 65.4854C41.6484 65.1618 41.9059 64.9111 42.2158 64.7334C42.5257 64.5557 42.888 64.4668 43.3027 64.4668C43.5716 64.4668 43.82 64.5169 44.0479 64.6172C44.2757 64.7129 44.474 64.8656 44.6426 65.0752C44.8112 65.2803 44.9411 65.5492 45.0322 65.8818C45.1234 66.21 45.1689 66.6042 45.1689 67.0645V72H43.2549V67.2969C43.2549 66.9688 43.223 66.7181 43.1592 66.5449C43.0954 66.3672 43.0042 66.2441 42.8857 66.1758C42.7673 66.1029 42.6214 66.0664 42.4482 66.0664C42.266 66.0664 42.1064 66.1165 41.9697 66.2168C41.833 66.3171 41.7214 66.4583 41.6348 66.6406C41.5527 66.8184 41.4889 67.028 41.4434 67.2695C41.4023 67.5111 41.3818 67.7708 41.3818 68.0488ZM44.9844 67.8574L44.2939 67.9463C44.2848 67.4587 44.3281 67.0052 44.4238 66.5859C44.5195 66.1621 44.6676 65.793 44.8682 65.4785C45.0687 65.1595 45.3193 64.9111 45.6201 64.7334C45.9255 64.5557 46.2786 64.4668 46.6797 64.4668C46.9805 64.4668 47.2539 64.5169 47.5 64.6172C47.7461 64.7174 47.9557 64.8792 48.1289 65.1025C48.3066 65.3213 48.4411 65.6107 48.5322 65.9707C48.6279 66.3307 48.6758 66.7682 48.6758 67.2832V72H46.7549V67.29C46.7549 66.9574 46.723 66.7021 46.6592 66.5244C46.5954 66.3467 46.5042 66.2259 46.3857 66.1621C46.2673 66.0983 46.126 66.0664 45.9619 66.0664C45.7979 66.0664 45.6543 66.112 45.5312 66.2031C45.4128 66.2943 45.3125 66.4219 45.2305 66.5859C45.1484 66.7454 45.0869 66.9346 45.0459 67.1533C45.0049 67.3675 44.9844 67.6022 44.9844 67.8574ZM53.0986 72.1367C52.5928 72.1367 52.1439 72.0592 51.752 71.9043C51.3646 71.7493 51.0365 71.526 50.7676 71.2344C50.4987 70.9382 50.2936 70.5804 50.1523 70.1611C50.0111 69.7419 49.9404 69.2633 49.9404 68.7256V68.1172C49.9404 67.5156 50.0088 66.9893 50.1455 66.5381C50.2822 66.0824 50.4759 65.6995 50.7266 65.3896C50.9772 65.0798 51.2848 64.8496 51.6494 64.6992C52.0186 64.5443 52.4355 64.4668 52.9004 64.4668C53.3652 64.4668 53.7731 64.5443 54.124 64.6992C54.4795 64.8496 54.7734 65.0775 55.0059 65.3828C55.2383 65.6836 55.4137 66.0573 55.5322 66.5039C55.6507 66.9505 55.71 67.4701 55.71 68.0625V68.9375H50.7539V67.5908H53.8301V67.4199C53.8301 67.1191 53.7982 66.8685 53.7344 66.668C53.6706 66.4629 53.5703 66.3102 53.4336 66.21C53.2969 66.1097 53.1146 66.0596 52.8867 66.0596C52.6953 66.0596 52.5335 66.0983 52.4014 66.1758C52.2692 66.2533 52.1644 66.374 52.0869 66.5381C52.0094 66.7021 51.9525 66.9163 51.916 67.1807C51.8796 67.4404 51.8613 67.7526 51.8613 68.1172V68.7256C51.8613 69.0674 51.891 69.3545 51.9502 69.5869C52.0094 69.8148 52.096 70.0016 52.21 70.1475C52.3285 70.2887 52.472 70.3913 52.6406 70.4551C52.8092 70.5143 53.0052 70.5439 53.2285 70.5439C53.5658 70.5439 53.8688 70.4847 54.1377 70.3662C54.4111 70.2432 54.6436 70.0768 54.835 69.8672L55.6006 71.0293C55.4684 71.2025 55.2861 71.3757 55.0537 71.5488C54.8213 71.722 54.5433 71.8633 54.2197 71.9727C53.8962 72.082 53.5225 72.1367 53.0986 72.1367ZM58.7314 66.251V72H56.8174V64.6035H58.6221L58.7314 66.251ZM60.4746 64.5488L60.4473 66.4561C60.3607 66.4378 60.2559 66.4242 60.1328 66.415C60.0143 66.4059 59.9095 66.4014 59.8184 66.4014C59.6042 66.4014 59.4219 66.4355 59.2715 66.5039C59.1211 66.5677 58.9958 66.6657 58.8955 66.7979C58.7998 66.9255 58.7269 67.085 58.6768 67.2764C58.6266 67.4678 58.597 67.6842 58.5879 67.9258L58.2256 67.7891C58.2256 67.306 58.262 66.8639 58.335 66.4629C58.4124 66.0573 58.5264 65.7064 58.6768 65.4102C58.8271 65.1094 59.0072 64.877 59.2168 64.7129C59.431 64.5488 59.6725 64.4668 59.9414 64.4668C60.0326 64.4668 60.1283 64.4759 60.2285 64.4941C60.3333 64.5078 60.4154 64.526 60.4746 64.5488ZM60.9873 68.5547V68.0557C60.9873 67.4769 61.0557 66.9642 61.1924 66.5176C61.3337 66.071 61.5342 65.6973 61.7939 65.3965C62.0537 65.0911 62.3659 64.861 62.7305 64.7061C63.0996 64.5465 63.512 64.4668 63.9678 64.4668C64.4281 64.4668 64.8405 64.5465 65.2051 64.7061C65.5742 64.861 65.8887 65.0911 66.1484 65.3965C66.4128 65.6973 66.6156 66.071 66.7568 66.5176C66.8981 66.9642 66.9688 67.4769 66.9688 68.0557V68.5547C66.9688 69.1289 66.8981 69.6393 66.7568 70.0859C66.6156 70.5326 66.4128 70.9085 66.1484 71.2139C65.8887 71.5192 65.5765 71.7493 65.2119 71.9043C64.8473 72.0592 64.4372 72.1367 63.9814 72.1367C63.5257 72.1367 63.1133 72.0592 62.7441 71.9043C62.3796 71.7493 62.0651 71.5192 61.8008 71.2139C61.5365 70.9085 61.3337 70.5326 61.1924 70.0859C61.0557 69.6393 60.9873 69.1289 60.9873 68.5547ZM62.9014 68.0557V68.5547C62.9014 68.8965 62.9242 69.1927 62.9697 69.4434C63.0199 69.694 63.0905 69.9014 63.1816 70.0654C63.2773 70.2295 63.3913 70.3503 63.5234 70.4277C63.6556 70.5052 63.8083 70.5439 63.9814 70.5439C64.1546 70.5439 64.3096 70.5052 64.4463 70.4277C64.583 70.3503 64.6947 70.2295 64.7812 70.0654C64.8724 69.9014 64.9385 69.694 64.9795 69.4434C65.0251 69.1927 65.0479 68.8965 65.0479 68.5547V68.0557C65.0479 67.723 65.0228 67.4313 64.9727 67.1807C64.9225 66.9255 64.8519 66.7181 64.7607 66.5586C64.6696 66.3945 64.5557 66.2715 64.4189 66.1895C64.2868 66.1029 64.1364 66.0596 63.9678 66.0596C63.7992 66.0596 63.6488 66.1029 63.5166 66.1895C63.389 66.2715 63.2773 66.3945 63.1816 66.5586C63.0905 66.7181 63.0199 66.9255 62.9697 67.1807C62.9242 67.4313 62.9014 67.723 62.9014 68.0557ZM74.9873 70.3662V61.5H76.9082V72L75.1719 72.0068L74.9873 70.3662ZM71.1523 68.5615V68.0693C71.1523 67.4678 71.2025 66.9414 71.3027 66.4902C71.4076 66.0391 71.5625 65.6631 71.7676 65.3623C71.9727 65.0615 72.2233 64.8382 72.5195 64.6924C72.8203 64.542 73.1644 64.4668 73.5518 64.4668C73.9027 64.4668 74.2103 64.5557 74.4746 64.7334C74.7435 64.9066 74.9714 65.1504 75.1582 65.4648C75.3451 65.7793 75.4954 66.1507 75.6094 66.5791C75.7233 67.0075 75.8031 67.4769 75.8486 67.9873V68.6982C75.7939 69.1813 75.7096 69.6325 75.5957 70.0518C75.4863 70.471 75.3359 70.8356 75.1445 71.1455C74.9577 71.4554 74.7321 71.6992 74.4678 71.877C74.2035 72.0501 73.8958 72.1367 73.5449 72.1367C73.1576 72.1367 72.8135 72.0592 72.5127 71.9043C72.2165 71.7493 71.9658 71.5215 71.7607 71.2207C71.5602 70.9154 71.4076 70.5417 71.3027 70.0996C71.2025 69.653 71.1523 69.1403 71.1523 68.5615ZM73.0664 68.0693V68.5615C73.0664 68.9079 73.0824 69.2064 73.1143 69.457C73.1507 69.7031 73.2077 69.9059 73.2852 70.0654C73.3672 70.2204 73.4743 70.3366 73.6064 70.4141C73.7386 70.487 73.9027 70.5234 74.0986 70.5234C74.3538 70.5234 74.5612 70.4596 74.7207 70.332C74.8802 70.1999 74.9987 70.0199 75.0762 69.792C75.1582 69.5596 75.2038 69.293 75.2129 68.9922V67.7002C75.2038 67.4495 75.1742 67.224 75.124 67.0234C75.0739 66.8229 75.0033 66.652 74.9121 66.5107C74.821 66.3695 74.707 66.2601 74.5703 66.1826C74.4382 66.1051 74.2832 66.0664 74.1055 66.0664C73.9141 66.0664 73.75 66.1051 73.6133 66.1826C73.4811 66.2601 73.3763 66.3809 73.2988 66.5449C73.2214 66.7044 73.1621 66.9118 73.1211 67.167C73.0846 67.4176 73.0664 67.7184 73.0664 68.0693ZM80.3604 64.6035V72H78.4395V64.6035H80.3604ZM78.3506 62.6895C78.3506 62.3932 78.444 62.1494 78.6309 61.958C78.8223 61.762 79.0775 61.6641 79.3965 61.6641C79.7201 61.6641 79.9753 61.762 80.1621 61.958C80.349 62.1494 80.4424 62.3932 80.4424 62.6895C80.4424 62.9811 80.3467 63.2249 80.1553 63.4209C79.9684 63.6123 79.7178 63.708 79.4033 63.708C79.0798 63.708 78.8223 63.6123 78.6309 63.4209C78.444 63.2249 78.3506 62.9811 78.3506 62.6895ZM88.3311 64.6035V66.0459H84.5576V64.6035H88.3311ZM85.4258 62.7783H87.333V69.7441C87.333 69.9492 87.3535 70.1064 87.3945 70.2158C87.4355 70.3252 87.4971 70.4027 87.5791 70.4482C87.6657 70.4893 87.7796 70.5098 87.9209 70.5098C88.0166 70.5098 88.1055 70.5052 88.1875 70.4961C88.2695 70.4824 88.3311 70.4688 88.3721 70.4551V71.9521C88.2217 72.0114 88.0622 72.057 87.8936 72.0889C87.7295 72.1208 87.5335 72.1367 87.3057 72.1367C86.9229 72.1367 86.5902 72.0638 86.3076 71.918C86.0296 71.7721 85.8132 71.5397 85.6582 71.2207C85.5033 70.8971 85.4258 70.4733 85.4258 69.9492V62.7783ZM92.6582 70.2979V66.8799C92.6582 66.6566 92.6309 66.4788 92.5762 66.3467C92.526 66.2145 92.4486 66.1188 92.3438 66.0596C92.2435 65.9958 92.1204 65.9639 91.9746 65.9639C91.8105 65.9639 91.6738 65.998 91.5645 66.0664C91.4551 66.1348 91.373 66.2327 91.3184 66.3604C91.2682 66.488 91.2432 66.6406 91.2432 66.8184H89.3223C89.3223 66.4993 89.3838 66.1986 89.5068 65.916C89.6299 65.6289 89.8099 65.3783 90.0469 65.1641C90.2884 64.9453 90.5755 64.7744 90.9082 64.6514C91.2409 64.5283 91.6146 64.4668 92.0293 64.4668C92.5215 64.4668 92.959 64.5511 93.3418 64.7197C93.7246 64.8838 94.0277 65.1458 94.251 65.5059C94.4743 65.8659 94.5859 66.333 94.5859 66.9072V70.2021C94.5859 70.6169 94.6064 70.9541 94.6475 71.2139C94.693 71.4736 94.7591 71.6969 94.8457 71.8838V72H92.918C92.8314 71.7949 92.7653 71.5397 92.7197 71.2344C92.6787 70.9245 92.6582 70.6123 92.6582 70.2979ZM92.8906 67.4814L92.8975 68.6299H92.1934C92.0111 68.6299 91.8516 68.6595 91.7148 68.7188C91.5827 68.778 91.471 68.8623 91.3799 68.9717C91.2887 69.0765 91.2204 69.1995 91.1748 69.3408C91.1338 69.4821 91.1133 69.6325 91.1133 69.792C91.1133 69.9697 91.1383 70.1201 91.1885 70.2432C91.2386 70.3662 91.3138 70.4596 91.4141 70.5234C91.5143 70.5872 91.6328 70.6191 91.7695 70.6191C91.9792 70.6191 92.1615 70.5758 92.3164 70.4893C92.4714 70.4027 92.5853 70.2979 92.6582 70.1748C92.7357 70.0518 92.7607 69.9378 92.7334 69.833L93.1709 70.5781C93.1162 70.7467 93.041 70.9222 92.9453 71.1045C92.8542 71.2868 92.738 71.4554 92.5967 71.6104C92.4554 71.7653 92.2799 71.8929 92.0703 71.9932C91.8652 72.0889 91.6214 72.1367 91.3389 72.1367C90.9424 72.1367 90.5801 72.0456 90.252 71.8633C89.9238 71.681 89.6641 71.4258 89.4727 71.0977C89.2858 70.7695 89.1924 70.3799 89.1924 69.9287C89.1924 69.555 89.2516 69.2178 89.3701 68.917C89.4932 68.6117 89.6755 68.3542 89.917 68.1445C90.1585 67.9303 90.4639 67.7663 90.833 67.6523C91.2021 67.5384 91.6351 67.4814 92.1318 67.4814H92.8906ZM97.915 66.251V72H96.001V64.6035H97.8057L97.915 66.251ZM99.6582 64.5488L99.6309 66.4561C99.5443 66.4378 99.4395 66.4242 99.3164 66.415C99.1979 66.4059 99.0931 66.4014 99.002 66.4014C98.7878 66.4014 98.6055 66.4355 98.4551 66.5039C98.3047 66.5677 98.1794 66.6657 98.0791 66.7979C97.9834 66.9255 97.9105 67.085 97.8604 67.2764C97.8102 67.4678 97.7806 67.6842 97.7715 67.9258L97.4092 67.7891C97.4092 67.306 97.4456 66.8639 97.5186 66.4629C97.596 66.0573 97.71 65.7064 97.8604 65.4102C98.0107 65.1094 98.1908 64.877 98.4004 64.7129C98.6146 64.5488 98.8561 64.4668 99.125 64.4668C99.2161 64.4668 99.3118 64.4759 99.4121 64.4941C99.5169 64.5078 99.599 64.526 99.6582 64.5488ZM104.389 64.6035H106.125V72C106.125 72.6745 105.995 73.2259 105.735 73.6543C105.48 74.0872 105.122 74.404 104.662 74.6045C104.206 74.8096 103.673 74.9121 103.062 74.9121C102.83 74.9121 102.568 74.8802 102.276 74.8164C101.989 74.7526 101.711 74.6546 101.442 74.5225C101.174 74.3949 100.952 74.2399 100.779 74.0576L101.429 72.7314C101.606 72.9092 101.839 73.0596 102.126 73.1826C102.413 73.3102 102.696 73.374 102.974 73.374C103.243 73.374 103.466 73.3307 103.644 73.2441C103.826 73.1621 103.963 73.0208 104.054 72.8203C104.149 72.6198 104.197 72.3509 104.197 72.0137V66.3193L104.389 64.6035ZM100.26 68.5615V68.0693C100.26 67.4678 100.317 66.9414 100.431 66.4902C100.545 66.0391 100.709 65.6631 100.923 65.3623C101.137 65.0615 101.399 64.8382 101.709 64.6924C102.023 64.542 102.374 64.4668 102.762 64.4668C103.167 64.4668 103.507 64.5557 103.78 64.7334C104.054 64.9066 104.275 65.1504 104.443 65.4648C104.617 65.7793 104.749 66.1507 104.84 66.5791C104.936 67.0075 105.008 67.4769 105.059 67.9873V68.6982C105.008 69.1813 104.926 69.6325 104.812 70.0518C104.703 70.471 104.557 70.8356 104.375 71.1455C104.193 71.4554 103.969 71.6992 103.705 71.877C103.441 72.0501 103.122 72.1367 102.748 72.1367C102.365 72.1367 102.019 72.0592 101.709 71.9043C101.404 71.7493 101.142 71.5215 100.923 71.2207C100.709 70.9154 100.545 70.5417 100.431 70.0996C100.317 69.653 100.26 69.1403 100.26 68.5615ZM102.181 68.0693V68.5615C102.181 68.9079 102.201 69.2064 102.242 69.457C102.288 69.7031 102.356 69.9059 102.447 70.0654C102.538 70.2204 102.655 70.3366 102.796 70.4141C102.942 70.487 103.113 70.5234 103.309 70.5234C103.587 70.5234 103.808 70.4596 103.972 70.332C104.14 70.1999 104.263 70.0199 104.341 69.792C104.423 69.5596 104.468 69.293 104.478 68.9922V67.7002C104.473 67.4495 104.443 67.224 104.389 67.0234C104.339 66.8229 104.268 66.652 104.177 66.5107C104.086 66.3695 103.967 66.2601 103.821 66.1826C103.68 66.1051 103.514 66.0664 103.322 66.0664C103.126 66.0664 102.958 66.1051 102.816 66.1826C102.675 66.2601 102.557 66.3809 102.461 66.5449C102.37 66.7044 102.299 66.9118 102.249 67.167C102.203 67.4176 102.181 67.7184 102.181 68.0693ZM110.814 70.2979V66.8799C110.814 66.6566 110.787 66.4788 110.732 66.3467C110.682 66.2145 110.605 66.1188 110.5 66.0596C110.4 65.9958 110.277 65.9639 110.131 65.9639C109.967 65.9639 109.83 65.998 109.721 66.0664C109.611 66.1348 109.529 66.2327 109.475 66.3604C109.424 66.488 109.399 66.6406 109.399 66.8184H107.479C107.479 66.4993 107.54 66.1986 107.663 65.916C107.786 65.6289 107.966 65.3783 108.203 65.1641C108.445 64.9453 108.732 64.7744 109.064 64.6514C109.397 64.5283 109.771 64.4668 110.186 64.4668C110.678 64.4668 111.115 64.5511 111.498 64.7197C111.881 64.8838 112.184 65.1458 112.407 65.5059C112.631 65.8659 112.742 66.333 112.742 66.9072V70.2021C112.742 70.6169 112.763 70.9541 112.804 71.2139C112.849 71.4736 112.915 71.6969 113.002 71.8838V72H111.074C110.988 71.7949 110.922 71.5397 110.876 71.2344C110.835 70.9245 110.814 70.6123 110.814 70.2979ZM111.047 67.4814L111.054 68.6299H110.35C110.167 68.6299 110.008 68.6595 109.871 68.7188C109.739 68.778 109.627 68.8623 109.536 68.9717C109.445 69.0765 109.377 69.1995 109.331 69.3408C109.29 69.4821 109.27 69.6325 109.27 69.792C109.27 69.9697 109.295 70.1201 109.345 70.2432C109.395 70.3662 109.47 70.4596 109.57 70.5234C109.671 70.5872 109.789 70.6191 109.926 70.6191C110.135 70.6191 110.318 70.5758 110.473 70.4893C110.628 70.4027 110.742 70.2979 110.814 70.1748C110.892 70.0518 110.917 69.9378 110.89 69.833L111.327 70.5781C111.272 70.7467 111.197 70.9222 111.102 71.1045C111.01 71.2868 110.894 71.4554 110.753 71.6104C110.612 71.7653 110.436 71.8929 110.227 71.9932C110.021 72.0889 109.778 72.1367 109.495 72.1367C109.099 72.1367 108.736 72.0456 108.408 71.8633C108.08 71.681 107.82 71.4258 107.629 71.0977C107.442 70.7695 107.349 70.3799 107.349 69.9287C107.349 69.555 107.408 69.2178 107.526 68.917C107.649 68.6117 107.832 68.3542 108.073 68.1445C108.315 67.9303 108.62 67.7663 108.989 67.6523C109.358 67.5384 109.791 67.4814 110.288 67.4814H111.047Z" fill="url(#paint0_linear_363_3453)"/>
<path d="M359.823 62.0469V72H357.82V62.0469H359.823ZM362.94 66.2783V67.9326H359.317V66.2783H362.94ZM363.323 62.0469V63.708H359.317V62.0469H363.323ZM367.425 70.2979V66.8799C367.425 66.6566 367.397 66.4788 367.343 66.3467C367.293 66.2145 367.215 66.1188 367.11 66.0596C367.01 65.9958 366.887 65.9639 366.741 65.9639C366.577 65.9639 366.44 65.998 366.331 66.0664C366.222 66.1348 366.14 66.2327 366.085 66.3604C366.035 66.488 366.01 66.6406 366.01 66.8184H364.089C364.089 66.4993 364.15 66.1986 364.273 65.916C364.396 65.6289 364.576 65.3783 364.813 65.1641C365.055 64.9453 365.342 64.7744 365.675 64.6514C366.007 64.5283 366.381 64.4668 366.796 64.4668C367.288 64.4668 367.726 64.5511 368.108 64.7197C368.491 64.8838 368.794 65.1458 369.018 65.5059C369.241 65.8659 369.353 66.333 369.353 66.9072V70.2021C369.353 70.6169 369.373 70.9541 369.414 71.2139C369.46 71.4736 369.526 71.6969 369.612 71.8838V72H367.685C367.598 71.7949 367.532 71.5397 367.486 71.2344C367.445 70.9245 367.425 70.6123 367.425 70.2979ZM367.657 67.4814L367.664 68.6299H366.96C366.778 68.6299 366.618 68.6595 366.481 68.7188C366.349 68.778 366.238 68.8623 366.146 68.9717C366.055 69.0765 365.987 69.1995 365.941 69.3408C365.9 69.4821 365.88 69.6325 365.88 69.792C365.88 69.9697 365.905 70.1201 365.955 70.2432C366.005 70.3662 366.08 70.4596 366.181 70.5234C366.281 70.5872 366.399 70.6191 366.536 70.6191C366.746 70.6191 366.928 70.5758 367.083 70.4893C367.238 70.4027 367.352 70.2979 367.425 70.1748C367.502 70.0518 367.527 69.9378 367.5 69.833L367.938 70.5781C367.883 70.7467 367.808 70.9222 367.712 71.1045C367.621 71.2868 367.505 71.4554 367.363 71.6104C367.222 71.7653 367.047 71.8929 366.837 71.9932C366.632 72.0889 366.388 72.1367 366.105 72.1367C365.709 72.1367 365.347 72.0456 365.019 71.8633C364.69 71.681 364.431 71.4258 364.239 71.0977C364.052 70.7695 363.959 70.3799 363.959 69.9287C363.959 69.555 364.018 69.2178 364.137 68.917C364.26 68.6117 364.442 68.3542 364.684 68.1445C364.925 67.9303 365.23 67.7663 365.6 67.6523C365.969 67.5384 366.402 67.4814 366.898 67.4814H367.657ZM373.994 64.6035V66.0459H370.221V64.6035H373.994ZM371.089 62.7783H372.996V69.7441C372.996 69.9492 373.017 70.1064 373.058 70.2158C373.099 70.3252 373.16 70.4027 373.242 70.4482C373.329 70.4893 373.443 70.5098 373.584 70.5098C373.68 70.5098 373.769 70.5052 373.851 70.4961C373.933 70.4824 373.994 70.4688 374.035 70.4551V71.9521C373.885 72.0114 373.725 72.057 373.557 72.0889C373.393 72.1208 373.197 72.1367 372.969 72.1367C372.586 72.1367 372.253 72.0638 371.971 71.918C371.693 71.7721 371.476 71.5397 371.321 71.2207C371.166 70.8971 371.089 70.4733 371.089 69.9492V62.7783ZM378.287 64.6035V66.0459H374.514V64.6035H378.287ZM375.382 62.7783H377.289V69.7441C377.289 69.9492 377.31 70.1064 377.351 70.2158C377.392 70.3252 377.453 70.4027 377.535 70.4482C377.622 70.4893 377.736 70.5098 377.877 70.5098C377.973 70.5098 378.062 70.5052 378.144 70.4961C378.226 70.4824 378.287 70.4688 378.328 70.4551V71.9521C378.178 72.0114 378.018 72.057 377.85 72.0889C377.686 72.1208 377.49 72.1367 377.262 72.1367C376.879 72.1367 376.546 72.0638 376.264 71.918C375.986 71.7721 375.769 71.5397 375.614 71.2207C375.459 70.8971 375.382 70.4733 375.382 69.9492V62.7783ZM382.929 70.2227V64.6035H384.85V72H383.045L382.929 70.2227ZM383.147 68.6982L383.681 68.6846C383.681 69.1813 383.633 69.6416 383.537 70.0654C383.441 70.4847 383.298 70.8493 383.106 71.1592C382.915 71.4691 382.676 71.7106 382.389 71.8838C382.102 72.0524 381.762 72.1367 381.37 72.1367C381.069 72.1367 380.791 72.0866 380.536 71.9863C380.285 71.8815 380.069 71.7197 379.887 71.501C379.704 71.2777 379.561 70.9928 379.456 70.6465C379.356 70.2956 379.306 69.874 379.306 69.3818V64.6035H381.227V69.4023C381.227 69.6029 381.245 69.776 381.281 69.9219C381.318 70.0632 381.368 70.1794 381.432 70.2705C381.495 70.3617 381.571 70.4277 381.657 70.4688C381.744 70.5052 381.842 70.5234 381.951 70.5234C382.252 70.5234 382.489 70.446 382.662 70.291C382.84 70.1315 382.965 69.915 383.038 69.6416C383.111 69.3636 383.147 69.0492 383.147 68.6982ZM388.158 66.251V72H386.244V64.6035H388.049L388.158 66.251ZM389.901 64.5488L389.874 66.4561C389.787 66.4378 389.683 66.4242 389.56 66.415C389.441 66.4059 389.336 66.4014 389.245 66.4014C389.031 66.4014 388.849 66.4355 388.698 66.5039C388.548 66.5677 388.423 66.6657 388.322 66.7979C388.227 66.9255 388.154 67.085 388.104 67.2764C388.053 67.4678 388.024 67.6842 388.015 67.9258L387.652 67.7891C387.652 67.306 387.689 66.8639 387.762 66.4629C387.839 66.0573 387.953 65.7064 388.104 65.4102C388.254 65.1094 388.434 64.877 388.644 64.7129C388.858 64.5488 389.099 64.4668 389.368 64.4668C389.459 64.4668 389.555 64.4759 389.655 64.4941C389.76 64.5078 389.842 64.526 389.901 64.5488ZM393.935 70.2979V66.8799C393.935 66.6566 393.907 66.4788 393.853 66.3467C393.802 66.2145 393.725 66.1188 393.62 66.0596C393.52 65.9958 393.397 65.9639 393.251 65.9639C393.087 65.9639 392.95 65.998 392.841 66.0664C392.731 66.1348 392.649 66.2327 392.595 66.3604C392.545 66.488 392.52 66.6406 392.52 66.8184H390.599C390.599 66.4993 390.66 66.1986 390.783 65.916C390.906 65.6289 391.086 65.3783 391.323 65.1641C391.565 64.9453 391.852 64.7744 392.185 64.6514C392.517 64.5283 392.891 64.4668 393.306 64.4668C393.798 64.4668 394.235 64.5511 394.618 64.7197C395.001 64.8838 395.304 65.1458 395.527 65.5059C395.751 65.8659 395.862 66.333 395.862 66.9072V70.2021C395.862 70.6169 395.883 70.9541 395.924 71.2139C395.969 71.4736 396.035 71.6969 396.122 71.8838V72H394.194C394.108 71.7949 394.042 71.5397 393.996 71.2344C393.955 70.9245 393.935 70.6123 393.935 70.2979ZM394.167 67.4814L394.174 68.6299H393.47C393.287 68.6299 393.128 68.6595 392.991 68.7188C392.859 68.778 392.747 68.8623 392.656 68.9717C392.565 69.0765 392.497 69.1995 392.451 69.3408C392.41 69.4821 392.39 69.6325 392.39 69.792C392.39 69.9697 392.415 70.1201 392.465 70.2432C392.515 70.3662 392.59 70.4596 392.69 70.5234C392.791 70.5872 392.909 70.6191 393.046 70.6191C393.256 70.6191 393.438 70.5758 393.593 70.4893C393.748 70.4027 393.862 70.2979 393.935 70.1748C394.012 70.0518 394.037 69.9378 394.01 69.833L394.447 70.5781C394.393 70.7467 394.317 70.9222 394.222 71.1045C394.131 71.2868 394.014 71.4554 393.873 71.6104C393.732 71.7653 393.556 71.8929 393.347 71.9932C393.142 72.0889 392.898 72.1367 392.615 72.1367C392.219 72.1367 391.856 72.0456 391.528 71.8633C391.2 71.681 390.94 71.4258 390.749 71.0977C390.562 70.7695 390.469 70.3799 390.469 69.9287C390.469 69.555 390.528 69.2178 390.646 68.917C390.77 68.6117 390.952 68.3542 391.193 68.1445C391.435 67.9303 391.74 67.7663 392.109 67.6523C392.479 67.5384 392.911 67.4814 393.408 67.4814H394.167ZM402.336 70.4072V72H397.64V70.4072H402.336ZM402.288 65.7656L398.392 72H397.113V70.7969L400.989 64.6035H402.288V65.7656ZM401.618 64.6035V66.1963H397.188V64.6035H401.618ZM405.617 64.6035V72H403.696V64.6035H405.617ZM403.607 62.6895C403.607 62.3932 403.701 62.1494 403.888 61.958C404.079 61.762 404.334 61.6641 404.653 61.6641C404.977 61.6641 405.232 61.762 405.419 61.958C405.606 62.1494 405.699 62.3932 405.699 62.6895C405.699 62.9811 405.604 63.2249 405.412 63.4209C405.225 63.6123 404.975 63.708 404.66 63.708C404.337 63.708 404.079 63.6123 403.888 63.4209C403.701 63.2249 403.607 62.9811 403.607 62.6895ZM406.916 68.5547V68.0557C406.916 67.4769 406.984 66.9642 407.121 66.5176C407.262 66.071 407.463 65.6973 407.723 65.3965C407.982 65.0911 408.295 64.861 408.659 64.7061C409.028 64.5465 409.441 64.4668 409.896 64.4668C410.357 64.4668 410.769 64.5465 411.134 64.7061C411.503 64.861 411.817 65.0911 412.077 65.3965C412.341 65.6973 412.544 66.071 412.686 66.5176C412.827 66.9642 412.897 67.4769 412.897 68.0557V68.5547C412.897 69.1289 412.827 69.6393 412.686 70.0859C412.544 70.5326 412.341 70.9085 412.077 71.2139C411.817 71.5192 411.505 71.7493 411.141 71.9043C410.776 72.0592 410.366 72.1367 409.91 72.1367C409.454 72.1367 409.042 72.0592 408.673 71.9043C408.308 71.7493 407.994 71.5192 407.729 71.2139C407.465 70.9085 407.262 70.5326 407.121 70.0859C406.984 69.6393 406.916 69.1289 406.916 68.5547ZM408.83 68.0557V68.5547C408.83 68.8965 408.853 69.1927 408.898 69.4434C408.949 69.694 409.019 69.9014 409.11 70.0654C409.206 70.2295 409.32 70.3503 409.452 70.4277C409.584 70.5052 409.737 70.5439 409.91 70.5439C410.083 70.5439 410.238 70.5052 410.375 70.4277C410.512 70.3503 410.623 70.2295 410.71 70.0654C410.801 69.9014 410.867 69.694 410.908 69.4434C410.954 69.1927 410.977 68.8965 410.977 68.5547V68.0557C410.977 67.723 410.951 67.4313 410.901 67.1807C410.851 66.9255 410.781 66.7181 410.689 66.5586C410.598 66.3945 410.484 66.2715 410.348 66.1895C410.215 66.1029 410.065 66.0596 409.896 66.0596C409.728 66.0596 409.577 66.1029 409.445 66.1895C409.318 66.2715 409.206 66.3945 409.11 66.5586C409.019 66.7181 408.949 66.9255 408.898 67.1807C408.853 67.4313 408.83 67.723 408.83 68.0557ZM415.987 66.1826V72H414.066V64.6035H415.864L415.987 66.1826ZM415.7 68.0488L415.188 68.0625C415.178 67.5065 415.231 67.0075 415.345 66.5654C415.463 66.1234 415.63 65.7474 415.844 65.4375C416.062 65.123 416.322 64.8838 416.623 64.7197C416.928 64.5511 417.268 64.4668 417.642 64.4668C417.929 64.4668 418.191 64.5169 418.428 64.6172C418.669 64.7174 418.877 64.877 419.05 65.0957C419.223 65.3145 419.357 65.6061 419.453 65.9707C419.549 66.3307 419.597 66.7728 419.597 67.2969V72H417.676V67.2832C417.676 66.9642 417.644 66.7181 417.58 66.5449C417.516 66.3672 417.421 66.2441 417.293 66.1758C417.165 66.1029 417.006 66.0664 416.814 66.0664C416.632 66.0664 416.47 66.1188 416.329 66.2236C416.188 66.3239 416.069 66.4629 415.974 66.6406C415.882 66.8184 415.812 67.028 415.762 67.2695C415.716 67.5111 415.696 67.7708 415.7 68.0488ZM423.979 72.1367C423.473 72.1367 423.024 72.0592 422.632 71.9043C422.244 71.7493 421.916 71.526 421.647 71.2344C421.379 70.9382 421.174 70.5804 421.032 70.1611C420.891 69.7419 420.82 69.2633 420.82 68.7256V68.1172C420.82 67.5156 420.889 66.9893 421.025 66.5381C421.162 66.0824 421.356 65.6995 421.606 65.3896C421.857 65.0798 422.165 64.8496 422.529 64.6992C422.898 64.5443 423.315 64.4668 423.78 64.4668C424.245 64.4668 424.653 64.5443 425.004 64.6992C425.359 64.8496 425.653 65.0775 425.886 65.3828C426.118 65.6836 426.294 66.0573 426.412 66.5039C426.531 66.9505 426.59 67.4701 426.59 68.0625V68.9375H421.634V67.5908H424.71V67.4199C424.71 67.1191 424.678 66.8685 424.614 66.668C424.55 66.4629 424.45 66.3102 424.313 66.21C424.177 66.1097 423.994 66.0596 423.767 66.0596C423.575 66.0596 423.413 66.0983 423.281 66.1758C423.149 66.2533 423.044 66.374 422.967 66.5381C422.889 66.7021 422.832 66.9163 422.796 67.1807C422.759 67.4404 422.741 67.7526 422.741 68.1172V68.7256C422.741 69.0674 422.771 69.3545 422.83 69.5869C422.889 69.8148 422.976 70.0016 423.09 70.1475C423.208 70.2887 423.352 70.3913 423.521 70.4551C423.689 70.5143 423.885 70.5439 424.108 70.5439C424.446 70.5439 424.749 70.4847 425.018 70.3662C425.291 70.2432 425.523 70.0768 425.715 69.8672L426.48 71.0293C426.348 71.2025 426.166 71.3757 425.934 71.5488C425.701 71.722 425.423 71.8633 425.1 71.9727C424.776 72.082 424.402 72.1367 423.979 72.1367Z" fill="url(#paint1_linear_363_3453)"/>
<path d="M676.277 64.874L678.164 57.0469H680.324L677.439 67H675.983L676.277 64.874ZM674.664 57.0469L676.544 64.874L676.852 67H675.389L672.524 57.0469H674.664ZM683.858 67.1367C683.353 67.1367 682.904 67.0592 682.512 66.9043C682.124 66.7493 681.796 66.526 681.527 66.2344C681.258 65.9382 681.053 65.5804 680.912 65.1611C680.771 64.7419 680.7 64.2633 680.7 63.7256V63.1172C680.7 62.5156 680.769 61.9893 680.905 61.5381C681.042 61.0824 681.236 60.6995 681.486 60.3896C681.737 60.0798 682.045 59.8496 682.409 59.6992C682.778 59.5443 683.195 59.4668 683.66 59.4668C684.125 59.4668 684.533 59.5443 684.884 59.6992C685.239 59.8496 685.533 60.0775 685.766 60.3828C685.998 60.6836 686.174 61.0573 686.292 61.5039C686.41 61.9505 686.47 62.4701 686.47 63.0625V63.9375H681.514V62.5908H684.59V62.4199C684.59 62.1191 684.558 61.8685 684.494 61.668C684.43 61.4629 684.33 61.3102 684.193 61.21C684.057 61.1097 683.874 61.0596 683.646 61.0596C683.455 61.0596 683.293 61.0983 683.161 61.1758C683.029 61.2533 682.924 61.374 682.847 61.5381C682.769 61.7021 682.712 61.9163 682.676 62.1807C682.639 62.4404 682.621 62.7526 682.621 63.1172V63.7256C682.621 64.0674 682.651 64.3545 682.71 64.5869C682.769 64.8148 682.856 65.0016 682.97 65.1475C683.088 65.2887 683.232 65.3913 683.4 65.4551C683.569 65.5143 683.765 65.5439 683.988 65.5439C684.326 65.5439 684.629 65.4847 684.897 65.3662C685.171 65.2432 685.403 65.0768 685.595 64.8672L686.36 66.0293C686.228 66.2025 686.046 66.3757 685.813 66.5488C685.581 66.722 685.303 66.8633 684.979 66.9727C684.656 67.082 684.282 67.1367 683.858 67.1367ZM689.491 61.251V67H687.577V59.6035H689.382L689.491 61.251ZM691.234 59.5488L691.207 61.4561C691.12 61.4378 691.016 61.4242 690.893 61.415C690.774 61.4059 690.669 61.4014 690.578 61.4014C690.364 61.4014 690.182 61.4355 690.031 61.5039C689.881 61.5677 689.756 61.6657 689.655 61.7979C689.56 61.9255 689.487 62.085 689.437 62.2764C689.386 62.4678 689.357 62.6842 689.348 62.9258L688.985 62.7891C688.985 62.306 689.022 61.8639 689.095 61.4629C689.172 61.0573 689.286 60.7064 689.437 60.4102C689.587 60.1094 689.767 59.877 689.977 59.7129C690.191 59.5488 690.432 59.4668 690.701 59.4668C690.792 59.4668 690.888 59.4759 690.988 59.4941C691.093 59.5078 691.175 59.526 691.234 59.5488ZM694.222 59.6035V67H692.301V59.6035H694.222ZM692.212 57.6895C692.212 57.3932 692.305 57.1494 692.492 56.958C692.684 56.762 692.939 56.6641 693.258 56.6641C693.581 56.6641 693.837 56.762 694.023 56.958C694.21 57.1494 694.304 57.3932 694.304 57.6895C694.304 57.9811 694.208 58.2249 694.017 58.4209C693.83 58.6123 693.579 58.708 693.265 58.708C692.941 58.708 692.684 58.6123 692.492 58.4209C692.305 58.2249 692.212 57.9811 692.212 57.6895ZM698.05 67H696.136V59.2959C696.136 58.6579 696.247 58.1224 696.471 57.6895C696.699 57.252 697.027 56.9215 697.455 56.6982C697.888 56.4704 698.405 56.3564 699.007 56.3564C699.353 56.3564 699.681 56.3952 699.991 56.4727C700.306 56.5456 700.629 56.6413 700.962 56.7598L700.688 58.3867C700.488 58.3138 700.262 58.2454 700.012 58.1816C699.766 58.1133 699.474 58.0791 699.137 58.0791C698.768 58.0791 698.494 58.1816 698.316 58.3867C698.139 58.5918 698.05 58.8949 698.05 59.2959V67ZM699.191 59.6035V61.0459H695.233V59.6035H699.191ZM701.844 59.6035V67H699.923V59.6035H701.844ZM706.041 65.5439C706.219 65.5439 706.371 65.5075 706.499 65.4346C706.631 65.3617 706.731 65.2432 706.8 65.0791C706.868 64.915 706.905 64.7031 706.909 64.4434H708.707C708.707 64.9993 708.589 65.4801 708.352 65.8857C708.119 66.2868 707.805 66.5967 707.408 66.8154C707.016 67.0296 706.572 67.1367 706.075 67.1367C705.578 67.1367 705.146 67.057 704.776 66.8975C704.407 66.738 704.102 66.5055 703.86 66.2002C703.623 65.8949 703.443 65.5234 703.32 65.0859C703.202 64.6439 703.143 64.138 703.143 63.5684V63.0283C703.143 62.4678 703.202 61.9665 703.32 61.5244C703.443 61.0824 703.623 60.7087 703.86 60.4033C704.102 60.098 704.405 59.8656 704.77 59.7061C705.139 59.5465 705.572 59.4668 706.068 59.4668C706.602 59.4668 707.064 59.5785 707.456 59.8018C707.848 60.0205 708.153 60.3441 708.372 60.7725C708.595 61.2008 708.707 61.7295 708.707 62.3584H706.909C706.905 62.0758 706.87 61.8411 706.807 61.6543C706.747 61.4629 706.654 61.3171 706.526 61.2168C706.403 61.112 706.239 61.0596 706.034 61.0596C705.82 61.0596 705.647 61.1051 705.515 61.1963C705.387 61.2829 705.289 61.4105 705.221 61.5791C705.157 61.7432 705.114 61.9482 705.091 62.1943C705.068 62.4404 705.057 62.7184 705.057 63.0283V63.5684C705.057 63.901 705.066 64.1904 705.084 64.4365C705.107 64.6781 705.15 64.8831 705.214 65.0518C705.282 65.2158 705.38 65.3389 705.508 65.4209C705.64 65.5029 705.818 65.5439 706.041 65.5439ZM713.068 65.2979V61.8799C713.068 61.6566 713.041 61.4788 712.986 61.3467C712.936 61.2145 712.859 61.1188 712.754 61.0596C712.654 60.9958 712.531 60.9639 712.385 60.9639C712.221 60.9639 712.084 60.998 711.975 61.0664C711.865 61.1348 711.783 61.2327 711.729 61.3604C711.678 61.488 711.653 61.6406 711.653 61.8184H709.732C709.732 61.4993 709.794 61.1986 709.917 60.916C710.04 60.6289 710.22 60.3783 710.457 60.1641C710.699 59.9453 710.986 59.7744 711.318 59.6514C711.651 59.5283 712.025 59.4668 712.439 59.4668C712.932 59.4668 713.369 59.5511 713.752 59.7197C714.135 59.8838 714.438 60.1458 714.661 60.5059C714.884 60.8659 714.996 61.333 714.996 61.9072V65.2021C714.996 65.6169 715.017 65.9541 715.058 66.2139C715.103 66.4736 715.169 66.6969 715.256 66.8838V67H713.328C713.242 66.7949 713.175 66.5397 713.13 66.2344C713.089 65.9245 713.068 65.6123 713.068 65.2979ZM713.301 62.4814L713.308 63.6299H712.604C712.421 63.6299 712.262 63.6595 712.125 63.7188C711.993 63.778 711.881 63.8623 711.79 63.9717C711.699 64.0765 711.631 64.1995 711.585 64.3408C711.544 64.4821 711.523 64.6325 711.523 64.792C711.523 64.9697 711.549 65.1201 711.599 65.2432C711.649 65.3662 711.724 65.4596 711.824 65.5234C711.924 65.5872 712.043 65.6191 712.18 65.6191C712.389 65.6191 712.572 65.5758 712.727 65.4893C712.882 65.4027 712.995 65.2979 713.068 65.1748C713.146 65.0518 713.171 64.9378 713.144 64.833L713.581 65.5781C713.526 65.7467 713.451 65.9222 713.355 66.1045C713.264 66.2868 713.148 66.4554 713.007 66.6104C712.866 66.7653 712.69 66.8929 712.48 66.9932C712.275 67.0889 712.032 67.1367 711.749 67.1367C711.353 67.1367 710.99 67.0456 710.662 66.8633C710.334 66.681 710.074 66.4258 709.883 66.0977C709.696 65.7695 709.603 65.3799 709.603 64.9287C709.603 64.555 709.662 64.2178 709.78 63.917C709.903 63.6117 710.086 63.3542 710.327 63.1445C710.569 62.9303 710.874 62.7663 711.243 62.6523C711.612 62.5384 712.045 62.4814 712.542 62.4814H713.301ZM722.618 67.1367C722.112 67.1367 721.663 67.0592 721.271 66.9043C720.884 66.7493 720.556 66.526 720.287 66.2344C720.018 65.9382 719.813 65.5804 719.672 65.1611C719.531 64.7419 719.46 64.2633 719.46 63.7256V63.1172C719.46 62.5156 719.528 61.9893 719.665 61.5381C719.802 61.0824 719.995 60.6995 720.246 60.3896C720.497 60.0798 720.804 59.8496 721.169 59.6992C721.538 59.5443 721.955 59.4668 722.42 59.4668C722.885 59.4668 723.293 59.5443 723.644 59.6992C723.999 59.8496 724.293 60.0775 724.525 60.3828C724.758 60.6836 724.933 61.0573 725.052 61.5039C725.17 61.9505 725.229 62.4701 725.229 63.0625V63.9375H720.273V62.5908H723.35V62.4199C723.35 62.1191 723.318 61.8685 723.254 61.668C723.19 61.4629 723.09 61.3102 722.953 61.21C722.816 61.1097 722.634 61.0596 722.406 61.0596C722.215 61.0596 722.053 61.0983 721.921 61.1758C721.789 61.2533 721.684 61.374 721.606 61.5381C721.529 61.7021 721.472 61.9163 721.436 62.1807C721.399 62.4404 721.381 62.7526 721.381 63.1172V63.7256C721.381 64.0674 721.41 64.3545 721.47 64.5869C721.529 64.8148 721.616 65.0016 721.729 65.1475C721.848 65.2887 721.992 65.3913 722.16 65.4551C722.329 65.5143 722.525 65.5439 722.748 65.5439C723.085 65.5439 723.388 65.4847 723.657 65.3662C723.931 65.2432 724.163 65.0768 724.354 64.8672L725.12 66.0293C724.988 66.2025 724.806 66.3757 724.573 66.5488C724.341 66.722 724.063 66.8633 723.739 66.9727C723.416 67.082 723.042 67.1367 722.618 67.1367ZM670.508 75.0254V83.8438H668.601V73.6035H670.364L670.508 75.0254ZM674.35 77.0488V77.541C674.35 78.1198 674.299 78.6325 674.199 79.0791C674.099 79.5212 673.949 79.8971 673.748 80.207C673.552 80.5124 673.306 80.7448 673.01 80.9043C672.714 81.0592 672.367 81.1367 671.971 81.1367C671.602 81.1367 671.283 81.0501 671.014 80.877C670.749 80.6992 670.526 80.4554 670.344 80.1455C670.161 79.8356 670.016 79.4733 669.906 79.0586C669.797 78.6439 669.713 78.1995 669.653 77.7256V76.96C669.708 76.4541 669.788 75.9893 669.893 75.5654C669.997 75.137 670.141 74.7656 670.323 74.4512C670.51 74.1367 670.736 73.8952 671 73.7266C671.269 73.5534 671.588 73.4668 671.957 73.4668C672.358 73.4668 672.707 73.5397 673.003 73.6855C673.304 73.8314 673.552 74.0524 673.748 74.3486C673.949 74.6403 674.099 75.0117 674.199 75.4629C674.299 75.9141 674.35 76.4427 674.35 77.0488ZM672.436 77.541V77.0488C672.436 76.6934 672.415 76.3903 672.374 76.1396C672.338 75.889 672.278 75.6839 672.196 75.5244C672.114 75.3649 672.007 75.2487 671.875 75.1758C671.743 75.1029 671.581 75.0664 671.39 75.0664C671.203 75.0664 671.039 75.1029 670.897 75.1758C670.761 75.2487 670.649 75.3558 670.562 75.4971C670.476 75.6338 670.41 75.8024 670.364 76.0029C670.319 76.1989 670.294 76.4222 670.289 76.6729V78.0127C670.298 78.3089 670.337 78.571 670.405 78.7988C670.478 79.0267 670.594 79.209 670.754 79.3457C670.913 79.4779 671.13 79.5439 671.403 79.5439C671.599 79.5439 671.761 79.5029 671.889 79.4209C672.021 79.3389 672.128 79.2158 672.21 79.0518C672.292 78.8877 672.349 78.6803 672.381 78.4297C672.417 78.179 672.436 77.8828 672.436 77.541ZM678.786 79.2979V75.8799C678.786 75.6566 678.759 75.4788 678.704 75.3467C678.654 75.2145 678.576 75.1188 678.472 75.0596C678.371 74.9958 678.248 74.9639 678.103 74.9639C677.938 74.9639 677.802 74.998 677.692 75.0664C677.583 75.1348 677.501 75.2327 677.446 75.3604C677.396 75.488 677.371 75.6406 677.371 75.8184H675.45C675.45 75.4993 675.512 75.1986 675.635 74.916C675.758 74.6289 675.938 74.3783 676.175 74.1641C676.416 73.9453 676.703 73.7744 677.036 73.6514C677.369 73.5283 677.743 73.4668 678.157 73.4668C678.649 73.4668 679.087 73.5511 679.47 73.7197C679.853 73.8838 680.156 74.1458 680.379 74.5059C680.602 74.8659 680.714 75.333 680.714 75.9072V79.2021C680.714 79.6169 680.734 79.9541 680.775 80.2139C680.821 80.4736 680.887 80.6969 680.974 80.8838V81H679.046C678.959 80.7949 678.893 80.5397 678.848 80.2344C678.807 79.9245 678.786 79.6123 678.786 79.2979ZM679.019 76.4814L679.025 77.6299H678.321C678.139 77.6299 677.979 77.6595 677.843 77.7188C677.711 77.778 677.599 77.8623 677.508 77.9717C677.417 78.0765 677.348 78.1995 677.303 78.3408C677.262 78.4821 677.241 78.6325 677.241 78.792C677.241 78.9697 677.266 79.1201 677.316 79.2432C677.367 79.3662 677.442 79.4596 677.542 79.5234C677.642 79.5872 677.761 79.6191 677.897 79.6191C678.107 79.6191 678.289 79.5758 678.444 79.4893C678.599 79.4027 678.713 79.2979 678.786 79.1748C678.864 79.0518 678.889 78.9378 678.861 78.833L679.299 79.5781C679.244 79.7467 679.169 79.9222 679.073 80.1045C678.982 80.2868 678.866 80.4554 678.725 80.6104C678.583 80.7653 678.408 80.8929 678.198 80.9932C677.993 81.0889 677.749 81.1367 677.467 81.1367C677.07 81.1367 676.708 81.0456 676.38 80.8633C676.052 80.681 675.792 80.4258 675.601 80.0977C675.414 79.7695 675.32 79.3799 675.32 78.9287C675.32 78.555 675.38 78.2178 675.498 77.917C675.621 77.6117 675.803 77.3542 676.045 77.1445C676.286 76.9303 676.592 76.7663 676.961 76.6523C677.33 76.5384 677.763 76.4814 678.26 76.4814H679.019ZM686.019 73.6035H687.755V81C687.755 81.6745 687.625 82.2259 687.365 82.6543C687.11 83.0872 686.752 83.404 686.292 83.6045C685.836 83.8096 685.303 83.9121 684.692 83.9121C684.46 83.9121 684.198 83.8802 683.906 83.8164C683.619 83.7526 683.341 83.6546 683.072 83.5225C682.803 83.3949 682.582 83.2399 682.409 83.0576L683.059 81.7314C683.236 81.9092 683.469 82.0596 683.756 82.1826C684.043 82.3102 684.326 82.374 684.604 82.374C684.872 82.374 685.096 82.3307 685.273 82.2441C685.456 82.1621 685.592 82.0208 685.684 81.8203C685.779 81.6198 685.827 81.3509 685.827 81.0137V75.3193L686.019 73.6035ZM681.89 77.5615V77.0693C681.89 76.4678 681.947 75.9414 682.061 75.4902C682.174 75.0391 682.339 74.6631 682.553 74.3623C682.767 74.0615 683.029 73.8382 683.339 73.6924C683.653 73.542 684.004 73.4668 684.392 73.4668C684.797 73.4668 685.137 73.5557 685.41 73.7334C685.684 73.9066 685.905 74.1504 686.073 74.4648C686.246 74.7793 686.379 75.1507 686.47 75.5791C686.565 76.0075 686.638 76.4769 686.688 76.9873V77.6982C686.638 78.1813 686.556 78.6325 686.442 79.0518C686.333 79.471 686.187 79.8356 686.005 80.1455C685.823 80.4554 685.599 80.6992 685.335 80.877C685.071 81.0501 684.752 81.1367 684.378 81.1367C683.995 81.1367 683.649 81.0592 683.339 80.9043C683.034 80.7493 682.771 80.5215 682.553 80.2207C682.339 79.9154 682.174 79.5417 682.061 79.0996C681.947 78.653 681.89 78.1403 681.89 77.5615ZM683.811 77.0693V77.5615C683.811 77.9079 683.831 78.2064 683.872 78.457C683.918 78.7031 683.986 78.9059 684.077 79.0654C684.168 79.2204 684.285 79.3366 684.426 79.4141C684.572 79.487 684.743 79.5234 684.938 79.5234C685.216 79.5234 685.438 79.4596 685.602 79.332C685.77 79.1999 685.893 79.0199 685.971 78.792C686.053 78.5596 686.098 78.293 686.107 77.9922V76.7002C686.103 76.4495 686.073 76.224 686.019 76.0234C685.968 75.8229 685.898 75.652 685.807 75.5107C685.715 75.3695 685.597 75.2601 685.451 75.1826C685.31 75.1051 685.144 75.0664 684.952 75.0664C684.756 75.0664 684.588 75.1051 684.446 75.1826C684.305 75.2601 684.187 75.3809 684.091 75.5449C684 75.7044 683.929 75.9118 683.879 76.167C683.833 76.4176 683.811 76.7184 683.811 77.0693ZM692.444 79.2979V75.8799C692.444 75.6566 692.417 75.4788 692.362 75.3467C692.312 75.2145 692.235 75.1188 692.13 75.0596C692.03 74.9958 691.907 74.9639 691.761 74.9639C691.597 74.9639 691.46 74.998 691.351 75.0664C691.241 75.1348 691.159 75.2327 691.104 75.3604C691.054 75.488 691.029 75.6406 691.029 75.8184H689.108C689.108 75.4993 689.17 75.1986 689.293 74.916C689.416 74.6289 689.596 74.3783 689.833 74.1641C690.075 73.9453 690.362 73.7744 690.694 73.6514C691.027 73.5283 691.401 73.4668 691.815 73.4668C692.308 73.4668 692.745 73.5511 693.128 73.7197C693.511 73.8838 693.814 74.1458 694.037 74.5059C694.26 74.8659 694.372 75.333 694.372 75.9072V79.2021C694.372 79.6169 694.393 79.9541 694.434 80.2139C694.479 80.4736 694.545 80.6969 694.632 80.8838V81H692.704C692.618 80.7949 692.551 80.5397 692.506 80.2344C692.465 79.9245 692.444 79.6123 692.444 79.2979ZM692.677 76.4814L692.684 77.6299H691.979C691.797 77.6299 691.638 77.6595 691.501 77.7188C691.369 77.778 691.257 77.8623 691.166 77.9717C691.075 78.0765 691.007 78.1995 690.961 78.3408C690.92 78.4821 690.899 78.6325 690.899 78.792C690.899 78.9697 690.924 79.1201 690.975 79.2432C691.025 79.3662 691.1 79.4596 691.2 79.5234C691.3 79.5872 691.419 79.6191 691.556 79.6191C691.765 79.6191 691.948 79.5758 692.103 79.4893C692.257 79.4027 692.371 79.2979 692.444 79.1748C692.522 79.0518 692.547 78.9378 692.52 78.833L692.957 79.5781C692.902 79.7467 692.827 79.9222 692.731 80.1045C692.64 80.2868 692.524 80.4554 692.383 80.6104C692.242 80.7653 692.066 80.8929 691.856 80.9932C691.651 81.0889 691.408 81.1367 691.125 81.1367C690.729 81.1367 690.366 81.0456 690.038 80.8633C689.71 80.681 689.45 80.4258 689.259 80.0977C689.072 79.7695 688.979 79.3799 688.979 78.9287C688.979 78.555 689.038 78.2178 689.156 77.917C689.279 77.6117 689.462 77.3542 689.703 77.1445C689.945 76.9303 690.25 76.7663 690.619 76.6523C690.988 76.5384 691.421 76.4814 691.918 76.4814H692.677ZM697.715 75.1348V81H695.794V73.6035H697.599L697.715 75.1348ZM697.441 77.0488L696.915 77.0625C696.906 76.543 696.951 76.0645 697.052 75.627C697.152 75.1895 697.302 74.8089 697.503 74.4854C697.708 74.1618 697.965 73.9111 698.275 73.7334C698.585 73.5557 698.948 73.4668 699.362 73.4668C699.631 73.4668 699.88 73.5169 700.107 73.6172C700.335 73.7129 700.534 73.8656 700.702 74.0752C700.871 74.2803 701.001 74.5492 701.092 74.8818C701.183 75.21 701.229 75.6042 701.229 76.0645V81H699.314V76.2969C699.314 75.9688 699.283 75.7181 699.219 75.5449C699.155 75.3672 699.064 75.2441 698.945 75.1758C698.827 75.1029 698.681 75.0664 698.508 75.0664C698.326 75.0664 698.166 75.1165 698.029 75.2168C697.893 75.3171 697.781 75.4583 697.694 75.6406C697.612 75.8184 697.549 76.028 697.503 76.2695C697.462 76.5111 697.441 76.7708 697.441 77.0488ZM701.044 76.8574L700.354 76.9463C700.344 76.4587 700.388 76.0052 700.483 75.5859C700.579 75.1621 700.727 74.793 700.928 74.4785C701.128 74.1595 701.379 73.9111 701.68 73.7334C701.985 73.5557 702.338 73.4668 702.739 73.4668C703.04 73.4668 703.313 73.5169 703.56 73.6172C703.806 73.7174 704.015 73.8792 704.188 74.1025C704.366 74.3213 704.501 74.6107 704.592 74.9707C704.688 75.3307 704.735 75.7682 704.735 76.2832V81H702.814V76.29C702.814 75.9574 702.783 75.7021 702.719 75.5244C702.655 75.3467 702.564 75.2259 702.445 75.1621C702.327 75.0983 702.186 75.0664 702.021 75.0664C701.857 75.0664 701.714 75.112 701.591 75.2031C701.472 75.2943 701.372 75.4219 701.29 75.5859C701.208 75.7454 701.146 75.9346 701.105 76.1533C701.064 76.3675 701.044 76.6022 701.044 76.8574ZM709.158 81.1367C708.652 81.1367 708.203 81.0592 707.812 80.9043C707.424 80.7493 707.096 80.526 706.827 80.2344C706.558 79.9382 706.353 79.5804 706.212 79.1611C706.071 78.7419 706 78.2633 706 77.7256V77.1172C706 76.5156 706.068 75.9893 706.205 75.5381C706.342 75.0824 706.535 74.6995 706.786 74.3896C707.037 74.0798 707.344 73.8496 707.709 73.6992C708.078 73.5443 708.495 73.4668 708.96 73.4668C709.425 73.4668 709.833 73.5443 710.184 73.6992C710.539 73.8496 710.833 74.0775 711.065 74.3828C711.298 74.6836 711.473 75.0573 711.592 75.5039C711.71 75.9505 711.77 76.4701 711.77 77.0625V77.9375H706.813V76.5908H709.89V76.4199C709.89 76.1191 709.858 75.8685 709.794 75.668C709.73 75.4629 709.63 75.3102 709.493 75.21C709.356 75.1097 709.174 75.0596 708.946 75.0596C708.755 75.0596 708.593 75.0983 708.461 75.1758C708.329 75.2533 708.224 75.374 708.146 75.5381C708.069 75.7021 708.012 75.9163 707.976 76.1807C707.939 76.4404 707.921 76.7526 707.921 77.1172V77.7256C707.921 78.0674 707.951 78.3545 708.01 78.5869C708.069 78.8148 708.156 79.0016 708.27 79.1475C708.388 79.2887 708.532 79.3913 708.7 79.4551C708.869 79.5143 709.065 79.5439 709.288 79.5439C709.625 79.5439 709.928 79.4847 710.197 79.3662C710.471 79.2432 710.703 79.0768 710.895 78.8672L711.66 80.0293C711.528 80.2025 711.346 80.3757 711.113 80.5488C710.881 80.722 710.603 80.8633 710.279 80.9727C709.956 81.082 709.582 81.1367 709.158 81.1367ZM714.757 75.1826V81H712.836V73.6035H714.634L714.757 75.1826ZM714.47 77.0488L713.957 77.0625C713.948 76.5065 714 76.0075 714.114 75.5654C714.233 75.1234 714.399 74.7474 714.613 74.4375C714.832 74.123 715.092 73.8838 715.393 73.7197C715.698 73.5511 716.037 73.4668 716.411 73.4668C716.698 73.4668 716.96 73.5169 717.197 73.6172C717.439 73.7174 717.646 73.877 717.819 74.0957C717.993 74.3145 718.127 74.6061 718.223 74.9707C718.318 75.3307 718.366 75.7728 718.366 76.2969V81H716.445V76.2832C716.445 75.9642 716.413 75.7181 716.35 75.5449C716.286 75.3672 716.19 75.2441 716.062 75.1758C715.935 75.1029 715.775 75.0664 715.584 75.0664C715.402 75.0664 715.24 75.1188 715.099 75.2236C714.957 75.3239 714.839 75.4629 714.743 75.6406C714.652 75.8184 714.581 76.028 714.531 76.2695C714.486 76.5111 714.465 76.7708 714.47 77.0488ZM722.994 73.6035V75.0459H719.221V73.6035H722.994ZM720.089 71.7783H721.996V78.7441C721.996 78.9492 722.017 79.1064 722.058 79.2158C722.099 79.3252 722.16 79.4027 722.242 79.4482C722.329 79.4893 722.443 79.5098 722.584 79.5098C722.68 79.5098 722.769 79.5052 722.851 79.4961C722.933 79.4824 722.994 79.4688 723.035 79.4551V80.9521C722.885 81.0114 722.725 81.057 722.557 81.0889C722.393 81.1208 722.197 81.1367 721.969 81.1367C721.586 81.1367 721.253 81.0638 720.971 80.918C720.693 80.7721 720.476 80.5397 720.321 80.2207C720.166 79.8971 720.089 79.4733 720.089 78.9492V71.7783ZM723.637 77.5547V77.0557C723.637 76.4769 723.705 75.9642 723.842 75.5176C723.983 75.071 724.184 74.6973 724.443 74.3965C724.703 74.0911 725.015 73.861 725.38 73.7061C725.749 73.5465 726.161 73.4668 726.617 73.4668C727.077 73.4668 727.49 73.5465 727.854 73.7061C728.224 73.861 728.538 74.0911 728.798 74.3965C729.062 74.6973 729.265 75.071 729.406 75.5176C729.548 75.9642 729.618 76.4769 729.618 77.0557V77.5547C729.618 78.1289 729.548 78.6393 729.406 79.0859C729.265 79.5326 729.062 79.9085 728.798 80.2139C728.538 80.5192 728.226 80.7493 727.861 80.9043C727.497 81.0592 727.087 81.1367 726.631 81.1367C726.175 81.1367 725.763 81.0592 725.394 80.9043C725.029 80.7493 724.715 80.5192 724.45 80.2139C724.186 79.9085 723.983 79.5326 723.842 79.0859C723.705 78.6393 723.637 78.1289 723.637 77.5547ZM725.551 77.0557V77.5547C725.551 77.8965 725.574 78.1927 725.619 78.4434C725.669 78.694 725.74 78.9014 725.831 79.0654C725.927 79.2295 726.041 79.3503 726.173 79.4277C726.305 79.5052 726.458 79.5439 726.631 79.5439C726.804 79.5439 726.959 79.5052 727.096 79.4277C727.232 79.3503 727.344 79.2295 727.431 79.0654C727.522 78.9014 727.588 78.694 727.629 78.4434C727.674 78.1927 727.697 77.8965 727.697 77.5547V77.0557C727.697 76.723 727.672 76.4313 727.622 76.1807C727.572 75.9255 727.501 75.7181 727.41 75.5586C727.319 75.3945 727.205 75.2715 727.068 75.1895C726.936 75.1029 726.786 75.0596 726.617 75.0596C726.449 75.0596 726.298 75.1029 726.166 75.1895C726.038 75.2715 725.927 75.3945 725.831 75.5586C725.74 75.7181 725.669 75.9255 725.619 76.1807C725.574 76.4313 725.551 76.723 725.551 77.0557Z" fill="url(#paint2_linear_363_3453)"/>
<path fill-rule="evenodd" clip-rule="evenodd" d="M376 33H83V31H376V33Z" fill="url(#paint3_linear_363_3453)"/>
<path fill-rule="evenodd" clip-rule="evenodd" d="M685 33H404V31H685V33Z" fill="url(#paint4_linear_363_3453)"/>
<g filter="url(#filter0_d_363_3453)">
<path d="M69 17C60.7125 17 54 23.7125 54 32C54 34.8125 54.7875 37.475 56.175 39.725C57.497 41.9468 59.3748 43.7861 61.6236 45.0617C63.8724 46.3373 66.4146 47.0053 69 47C74.475 47 79.2375 44.075 81.825 39.725C83.2125 37.475 84 34.8125 84 32C84 23.7125 77.2875 17 69 17ZM76.3875 30.7625L68.4 38.15C67.875 38.6375 67.1625 38.9 66.4875 38.9C65.775 38.9 65.0625 38.6375 64.5 38.075L60.7875 34.3625C60.2644 33.8332 59.9711 33.1191 59.9711 32.375C59.9711 31.6309 60.2644 30.9168 60.7875 30.3875C61.875 29.3 63.675 29.3 64.7625 30.3875L66.5625 32.1875L72.5625 26.6375C73.6875 25.5875 75.4875 25.6625 76.5375 26.7875C77.5875 27.9125 77.5125 29.7125 76.3875 30.7625Z" fill="url(#paint5_linear_363_3453)"/>
</g>
<g filter="url(#filter1_d_363_3453)">
<path d="M390 17C381.712 17 375 23.7125 375 32C375 34.8125 375.788 37.475 377.175 39.725C378.497 41.9468 380.375 43.7861 382.624 45.0617C384.872 46.3373 387.415 47.0053 390 47C395.475 47 400.238 44.075 402.825 39.725C404.213 37.475 405 34.8125 405 32C405 23.7125 398.288 17 390 17ZM397.387 30.7625L389.4 38.15C388.875 38.6375 388.162 38.9 387.487 38.9C386.775 38.9 386.062 38.6375 385.5 38.075L381.787 34.3625C381.264 33.8332 380.971 33.1191 380.971 32.375C380.971 31.6309 381.264 30.9168 381.787 30.3875C382.875 29.3 384.675 29.3 385.762 30.3875L387.562 32.1875L393.562 26.6375C394.687 25.5875 396.488 25.6625 397.538 26.7875C398.588 27.9125 398.512 29.7125 397.387 30.7625Z" fill="url(#paint6_linear_363_3453)"/>
</g>
<g filter="url(#filter2_d_363_3453)">
<path d="M697 17C688.712 17 682 23.7125 682 32C682 34.8125 682.788 37.475 684.175 39.725C685.497 41.9468 687.375 43.7861 689.624 45.0617C691.872 46.3373 694.415 47.0053 697 47C702.475 47 707.238 44.075 709.825 39.725C711.213 37.475 712 34.8125 712 32C712 23.7125 705.288 17 697 17ZM704.387 30.7625L696.4 38.15C695.875 38.6375 695.162 38.9 694.487 38.9C693.775 38.9 693.062 38.6375 692.5 38.075L688.787 34.3625C688.264 33.8332 687.971 33.1191 687.971 32.375C687.971 31.6309 688.264 30.9168 688.787 30.3875C689.875 29.3 691.675 29.3 692.762 30.3875L694.562 32.1875L700.562 26.6375C701.687 25.5875 703.488 25.6625 704.538 26.7875C705.588 27.9125 705.512 29.7125 704.387 30.7625Z" fill="url(#paint7_linear_363_3453)"/>
</g>
<defs>
<filter id="filter0_d_363_3453" x="37" y="0" width="74" height="74" filterUnits="userSpaceOnUse" color-interpolation-filters="sRGB">
<feFlood flood-opacity="0" result="BackgroundImageFix"/>
<feColorMatrix in="SourceAlpha" type="matrix" values="0 0 0 0 0 0 0 0 0 0 0 0 0 0 0 0 0 0 127 0" result="hardAlpha"/>
<feOffset dx="5" dy="5"/>
<feGaussianBlur stdDeviation="11"/>
<feComposite in2="hardAlpha" operator="out"/>
<feColorMatrix type="matrix" values="0 0 0 0 0.0392157 0 0 0 0 0.560784 0 0 0 0 0.309804 0 0 0 0.2 0"/>
<feBlend mode="normal" in2="BackgroundImageFix" result="effect1_dropShadow_363_3453"/>
<feBlend mode="normal" in="SourceGraphic" in2="effect1_dropShadow_363_3453" result="shape"/>
</filter>
<filter id="filter1_d_363_3453" x="358" y="0" width="74" height="74" filterUnits="userSpaceOnUse" color-interpolation-filters="sRGB">
<feFlood flood-opacity="0" result="BackgroundImageFix"/>
<feColorMatrix in="SourceAlpha" type="matrix" values="0 0 0 0 0 0 0 0 0 0 0 0 0 0 0 0 0 0 127 0" result="hardAlpha"/>
<feOffset dx="5" dy="5"/>
<feGaussianBlur stdDeviation="11"/>
<feComposite in2="hardAlpha" operator="out"/>
<feColorMatrix type="matrix" values="0 0 0 0 0.0392157 0 0 0 0 0.560784 0 0 0 0 0.309804 0 0 0 0.2 0"/>
<feBlend mode="normal" in2="BackgroundImageFix" result="effect1_dropShadow_363_3453"/>
<feBlend mode="normal" in="SourceGraphic" in2="effect1_dropShadow_363_3453" result="shape"/>
</filter>
<filter id="filter2_d_363_3453" x="665" y="0" width="74" height="74" filterUnits="userSpaceOnUse" color-interpolation-filters="sRGB">
<feFlood flood-opacity="0" result="BackgroundImageFix"/>
<feColorMatrix in="SourceAlpha" type="matrix" values="0 0 0 0 0 0 0 0 0 0 0 0 0 0 0 0 0 0 127 0" result="hardAlpha"/>
<feOffset dx="5" dy="5"/>
<feGaussianBlur stdDeviation="11"/>
<feComposite in2="hardAlpha" operator="out"/>
<feColorMatrix type="matrix" values="0 0 0 0 0.0392157 0 0 0 0 0.560784 0 0 0 0 0.309804 0 0 0 0.2 0"/>
<feBlend mode="normal" in2="BackgroundImageFix" result="effect1_dropShadow_363_3453"/>
<feBlend mode="normal" in="SourceGraphic" in2="effect1_dropShadow_363_3453" result="shape"/>
</filter>
<linearGradient id="paint0_linear_363_3453" x1="68.5" y1="77" x2="68.5" y2="57" gradientUnits="userSpaceOnUse">
<stop stop-color="#5CCC94"/>
<stop offset="1" stop-color="#8CCAAE"/>
</linearGradient>
<linearGradient id="paint1_linear_363_3453" x1="392" y1="77" x2="392" y2="57" gradientUnits="userSpaceOnUse">
<stop stop-color="#5CCC94"/>
<stop offset="1" stop-color="#8CCAAE"/>
</linearGradient>
<linearGradient id="paint2_linear_363_3453" x1="699" y1="83" x2="699" y2="55" gradientUnits="userSpaceOnUse">
<stop stop-color="#5CCC94"/>
<stop offset="1" stop-color="#8CCAAE"/>
</linearGradient>
<linearGradient id="paint3_linear_363_3453" x1="229.5" y1="33" x2="229.5" y2="31" gradientUnits="userSpaceOnUse">
<stop stop-color="#5CCC94"/>
<stop offset="1" stop-color="#8CCAAE"/>
</linearGradient>
<linearGradient id="paint4_linear_363_3453" x1="544.5" y1="33" x2="544.5" y2="31" gradientUnits="userSpaceOnUse">
<stop stop-color="#5CCC94"/>
<stop offset="1" stop-color="#8CCAAE"/>
</linearGradient>
<linearGradient id="paint5_linear_363_3453" x1="69" y1="47" x2="69" y2="17" gradientUnits="userSpaceOnUse">
<stop stop-color="#5CCC94"/>
<stop offset="1" stop-color="#8CCAAE"/>
</linearGradient>
<linearGradient id="paint6_linear_363_3453" x1="390" y1="47" x2="390" y2="17" gradientUnits="userSpaceOnUse">
<stop stop-color="#5CCC94"/>
<stop offset="1" stop-color="#8CCAAE"/>
</linearGradient>
<linearGradient id="paint7_linear_363_3453" x1="697" y1="47" x2="697" y2="17" gradientUnits="userSpaceOnUse">
<stop stop-color="#5CCC94"/>
<stop offset="1" stop-color="#8CCAAE"/>
</linearGradient>
</defs>
</svg>
