<svg width="733" height="97" viewBox="0 0 733 97" fill="none" xmlns="http://www.w3.org/2000/svg">
<path d="M10.8252 66.0801V67.7344H6.74414V66.0801H10.8252ZM7.31152 62.0469V72H5.30859V62.0469H7.31152ZM12.2744 62.0469V72H10.292V62.0469H12.2744ZM13.5938 68.5547V68.0557C13.5938 67.4769 13.6621 66.9642 13.7988 66.5176C13.9401 66.071 14.1406 65.6973 14.4004 65.3965C14.6602 65.0911 14.9723 64.861 15.3369 64.7061C15.7061 64.5465 16.1185 64.4668 16.5742 64.4668C17.0345 64.4668 17.4469 64.5465 17.8115 64.7061C18.1807 64.861 18.4951 65.0911 18.7549 65.3965C19.0192 65.6973 19.222 66.071 19.3633 66.5176C19.5046 66.9642 19.5752 67.4769 19.5752 68.0557V68.5547C19.5752 69.1289 19.5046 69.6393 19.3633 70.0859C19.222 70.5326 19.0192 70.9085 18.7549 71.2139C18.4951 71.5192 18.1829 71.7493 17.8184 71.9043C17.4538 72.0592 17.0436 72.1367 16.5879 72.1367C16.1322 72.1367 15.7197 72.0592 15.3506 71.9043C14.986 71.7493 14.6715 71.5192 14.4072 71.2139C14.1429 70.9085 13.9401 70.5326 13.7988 70.0859C13.6621 69.6393 13.5938 69.1289 13.5938 68.5547ZM15.5078 68.0557V68.5547C15.5078 68.8965 15.5306 69.1927 15.5762 69.4434C15.6263 69.694 15.6969 69.9014 15.7881 70.0654C15.8838 70.2295 15.9977 70.3503 16.1299 70.4277C16.262 70.5052 16.4147 70.5439 16.5879 70.5439C16.7611 70.5439 16.916 70.5052 17.0527 70.4277C17.1895 70.3503 17.3011 70.2295 17.3877 70.0654C17.4788 69.9014 17.5449 69.694 17.5859 69.4434C17.6315 69.1927 17.6543 68.8965 17.6543 68.5547V68.0557C17.6543 67.723 17.6292 67.4313 17.5791 67.1807C17.529 66.9255 17.4583 66.7181 17.3672 66.5586C17.276 66.3945 17.1621 66.2715 17.0254 66.1895C16.8932 66.1029 16.7428 66.0596 16.5742 66.0596C16.4056 66.0596 16.2552 66.1029 16.123 66.1895C15.9954 66.2715 15.8838 66.3945 15.7881 66.5586C15.6969 66.7181 15.6263 66.9255 15.5762 67.1807C15.5306 67.4313 15.5078 67.723 15.5078 68.0557ZM24.6611 69.3477L26.0488 64.6035H27.6279L25.3584 72H23.9502L21.667 64.6035H23.2803L24.6611 69.3477ZM22.7607 64.6035V72H20.9082V64.6035H22.7607ZM26.6025 72V64.6035H28.4619V72H26.6025ZM33.0625 72.1367C32.5566 72.1367 32.1077 72.0592 31.7158 71.9043C31.3285 71.7493 31.0003 71.526 30.7314 71.2344C30.4626 70.9382 30.2575 70.5804 30.1162 70.1611C29.9749 69.7419 29.9043 69.2633 29.9043 68.7256V68.1172C29.9043 67.5156 29.9727 66.9893 30.1094 66.5381C30.2461 66.0824 30.4398 65.6995 30.6904 65.3896C30.9411 65.0798 31.2487 64.8496 31.6133 64.6992C31.9824 64.5443 32.3994 64.4668 32.8643 64.4668C33.3291 64.4668 33.737 64.5443 34.0879 64.6992C34.4434 64.8496 34.7373 65.0775 34.9697 65.3828C35.2021 65.6836 35.3776 66.0573 35.4961 66.5039C35.6146 66.9505 35.6738 67.4701 35.6738 68.0625V68.9375H30.7178V67.5908H33.7939V67.4199C33.7939 67.1191 33.762 66.8685 33.6982 66.668C33.6344 66.4629 33.5342 66.3102 33.3975 66.21C33.2607 66.1097 33.0785 66.0596 32.8506 66.0596C32.6592 66.0596 32.4974 66.0983 32.3652 66.1758C32.2331 66.2533 32.1283 66.374 32.0508 66.5381C31.9733 66.7021 31.9163 66.9163 31.8799 67.1807C31.8434 67.4404 31.8252 67.7526 31.8252 68.1172V68.7256C31.8252 69.0674 31.8548 69.3545 31.9141 69.5869C31.9733 69.8148 32.0599 70.0016 32.1738 70.1475C32.2923 70.2887 32.4359 70.3913 32.6045 70.4551C32.7731 70.5143 32.9691 70.5439 33.1924 70.5439C33.5296 70.5439 33.8327 70.4847 34.1016 70.3662C34.375 70.2432 34.6074 70.0768 34.7988 69.8672L35.5645 71.0293C35.4323 71.2025 35.25 71.3757 35.0176 71.5488C34.7852 71.722 34.5072 71.8633 34.1836 71.9727C33.86 72.082 33.4863 72.1367 33.0625 72.1367ZM38.6953 66.0254V74.8438H36.7881V64.6035H38.5518L38.6953 66.0254ZM42.5371 68.0488V68.541C42.5371 69.1198 42.487 69.6325 42.3867 70.0791C42.2865 70.5212 42.1361 70.8971 41.9355 71.207C41.7396 71.5124 41.4935 71.7448 41.1973 71.9043C40.901 72.0592 40.5547 72.1367 40.1582 72.1367C39.7891 72.1367 39.4701 72.0501 39.2012 71.877C38.9368 71.6992 38.7135 71.4554 38.5312 71.1455C38.349 70.8356 38.2031 70.4733 38.0938 70.0586C37.9844 69.6439 37.9001 69.1995 37.8408 68.7256V67.96C37.8955 67.4541 37.9753 66.9893 38.0801 66.5654C38.1849 66.137 38.3285 65.7656 38.5107 65.4512C38.6976 65.1367 38.9232 64.8952 39.1875 64.7266C39.4564 64.5534 39.7754 64.4668 40.1445 64.4668C40.5456 64.4668 40.8942 64.5397 41.1904 64.6855C41.4912 64.8314 41.7396 65.0524 41.9355 65.3486C42.1361 65.6403 42.2865 66.0117 42.3867 66.4629C42.487 66.9141 42.5371 67.4427 42.5371 68.0488ZM40.623 68.541V68.0488C40.623 67.6934 40.6025 67.3903 40.5615 67.1396C40.5251 66.889 40.4658 66.6839 40.3838 66.5244C40.3018 66.3649 40.1947 66.2487 40.0625 66.1758C39.9303 66.1029 39.7686 66.0664 39.5771 66.0664C39.3903 66.0664 39.2262 66.1029 39.085 66.1758C38.9482 66.2487 38.8366 66.3558 38.75 66.4971C38.6634 66.6338 38.5973 66.8024 38.5518 67.0029C38.5062 67.1989 38.4811 67.4222 38.4766 67.6729V69.0127C38.4857 69.3089 38.5244 69.571 38.5928 69.7988C38.6657 70.0267 38.7819 70.209 38.9414 70.3457C39.1009 70.4779 39.3174 70.5439 39.5908 70.5439C39.7868 70.5439 39.9486 70.5029 40.0762 70.4209C40.2083 70.3389 40.3154 70.2158 40.3975 70.0518C40.4795 69.8877 40.5365 69.6803 40.5684 69.4297C40.6048 69.179 40.623 68.8828 40.623 68.541ZM50.3506 64.6035V72H48.4297V64.6035H50.3506ZM52.251 64.6035V66.1826H46.5361V64.6035H52.251ZM55.2109 66.0254V74.8438H53.3037V64.6035H55.0674L55.2109 66.0254ZM59.0527 68.0488V68.541C59.0527 69.1198 59.0026 69.6325 58.9023 70.0791C58.8021 70.5212 58.6517 70.8971 58.4512 71.207C58.2552 71.5124 58.0091 71.7448 57.7129 71.9043C57.4167 72.0592 57.0703 72.1367 56.6738 72.1367C56.3047 72.1367 55.9857 72.0501 55.7168 71.877C55.4525 71.6992 55.2292 71.4554 55.0469 71.1455C54.8646 70.8356 54.7188 70.4733 54.6094 70.0586C54.5 69.6439 54.4157 69.1995 54.3564 68.7256V67.96C54.4111 67.4541 54.4909 66.9893 54.5957 66.5654C54.7005 66.137 54.8441 65.7656 55.0264 65.4512C55.2132 65.1367 55.4388 64.8952 55.7031 64.7266C55.972 64.5534 56.291 64.4668 56.6602 64.4668C57.0612 64.4668 57.4098 64.5397 57.7061 64.6855C58.0068 64.8314 58.2552 65.0524 58.4512 65.3486C58.6517 65.6403 58.8021 66.0117 58.9023 66.4629C59.0026 66.9141 59.0527 67.4427 59.0527 68.0488ZM57.1387 68.541V68.0488C57.1387 67.6934 57.1182 67.3903 57.0771 67.1396C57.0407 66.889 56.9814 66.6839 56.8994 66.5244C56.8174 66.3649 56.7103 66.2487 56.5781 66.1758C56.446 66.1029 56.2842 66.0664 56.0928 66.0664C55.9059 66.0664 55.7419 66.1029 55.6006 66.1758C55.4639 66.2487 55.3522 66.3558 55.2656 66.4971C55.179 66.6338 55.113 66.8024 55.0674 67.0029C55.0218 67.1989 54.9967 67.4222 54.9922 67.6729V69.0127C55.0013 69.3089 55.04 69.571 55.1084 69.7988C55.1813 70.0267 55.2975 70.209 55.457 70.3457C55.6165 70.4779 55.833 70.5439 56.1064 70.5439C56.3024 70.5439 56.4642 70.5029 56.5918 70.4209C56.724 70.3389 56.8311 70.2158 56.9131 70.0518C56.9951 69.8877 57.0521 69.6803 57.084 69.4297C57.1204 69.179 57.1387 68.8828 57.1387 68.541ZM63.4893 70.2979V66.8799C63.4893 66.6566 63.4619 66.4788 63.4072 66.3467C63.3571 66.2145 63.2796 66.1188 63.1748 66.0596C63.0745 65.9958 62.9515 65.9639 62.8057 65.9639C62.6416 65.9639 62.5049 65.998 62.3955 66.0664C62.2861 66.1348 62.2041 66.2327 62.1494 66.3604C62.0993 66.488 62.0742 66.6406 62.0742 66.8184H60.1533C60.1533 66.4993 60.2148 66.1986 60.3379 65.916C60.4609 65.6289 60.641 65.3783 60.8779 65.1641C61.1195 64.9453 61.4066 64.7744 61.7393 64.6514C62.0719 64.5283 62.4456 64.4668 62.8604 64.4668C63.3525 64.4668 63.79 64.5511 64.1729 64.7197C64.5557 64.8838 64.8587 65.1458 65.082 65.5059C65.3053 65.8659 65.417 66.333 65.417 66.9072V70.2021C65.417 70.6169 65.4375 70.9541 65.4785 71.2139C65.5241 71.4736 65.5902 71.6969 65.6768 71.8838V72H63.749C63.6624 71.7949 63.5964 71.5397 63.5508 71.2344C63.5098 70.9245 63.4893 70.6123 63.4893 70.2979ZM63.7217 67.4814L63.7285 68.6299H63.0244C62.8421 68.6299 62.6826 68.6595 62.5459 68.7188C62.4137 68.778 62.3021 68.8623 62.2109 68.9717C62.1198 69.0765 62.0514 69.1995 62.0059 69.3408C61.9648 69.4821 61.9443 69.6325 61.9443 69.792C61.9443 69.9697 61.9694 70.1201 62.0195 70.2432C62.0697 70.3662 62.1449 70.4596 62.2451 70.5234C62.3454 70.5872 62.4639 70.6191 62.6006 70.6191C62.8102 70.6191 62.9925 70.5758 63.1475 70.4893C63.3024 70.4027 63.4163 70.2979 63.4893 70.1748C63.5667 70.0518 63.5918 69.9378 63.5645 69.833L64.002 70.5781C63.9473 70.7467 63.8721 70.9222 63.7764 71.1045C63.6852 71.2868 63.569 71.4554 63.4277 71.6104C63.2865 71.7653 63.111 71.8929 62.9014 71.9932C62.6963 72.0889 62.4525 72.1367 62.1699 72.1367C61.7734 72.1367 61.4111 72.0456 61.083 71.8633C60.7549 71.681 60.4951 71.4258 60.3037 71.0977C60.1169 70.7695 60.0234 70.3799 60.0234 69.9287C60.0234 69.555 60.0827 69.2178 60.2012 68.917C60.3242 68.6117 60.5065 68.3542 60.748 68.1445C60.9896 67.9303 61.2949 67.7663 61.6641 67.6523C62.0332 67.5384 62.4661 67.4814 62.9629 67.4814H63.7217ZM71.084 67.5703V69.1562H68.1309V67.5703H71.084ZM68.7529 64.6035V72H66.832V64.6035H68.7529ZM72.3896 64.6035V72H70.4756V64.6035H72.3896ZM76.4912 70.5439C76.6689 70.5439 76.8216 70.5075 76.9492 70.4346C77.0814 70.3617 77.1816 70.2432 77.25 70.0791C77.3184 69.915 77.3548 69.7031 77.3594 69.4434H79.1572C79.1572 69.9993 79.0387 70.4801 78.8018 70.8857C78.5693 71.2868 78.2549 71.5967 77.8584 71.8154C77.4665 72.0296 77.0221 72.1367 76.5254 72.1367C76.0286 72.1367 75.5957 72.057 75.2266 71.8975C74.8574 71.738 74.5521 71.5055 74.3105 71.2002C74.0736 70.8949 73.8936 70.5234 73.7705 70.0859C73.652 69.6439 73.5928 69.138 73.5928 68.5684V68.0283C73.5928 67.4678 73.652 66.9665 73.7705 66.5244C73.8936 66.0824 74.0736 65.7087 74.3105 65.4033C74.5521 65.098 74.8551 64.8656 75.2197 64.7061C75.5889 64.5465 76.0218 64.4668 76.5186 64.4668C77.0518 64.4668 77.5143 64.5785 77.9062 64.8018C78.2982 65.0205 78.6035 65.3441 78.8223 65.7725C79.0456 66.2008 79.1572 66.7295 79.1572 67.3584H77.3594C77.3548 67.0758 77.3206 66.8411 77.2568 66.6543C77.1976 66.4629 77.1042 66.3171 76.9766 66.2168C76.8535 66.112 76.6895 66.0596 76.4844 66.0596C76.2702 66.0596 76.097 66.1051 75.9648 66.1963C75.8372 66.2829 75.7393 66.4105 75.6709 66.5791C75.6071 66.7432 75.5638 66.9482 75.541 67.1943C75.5182 67.4404 75.5068 67.7184 75.5068 68.0283V68.5684C75.5068 68.901 75.516 69.1904 75.5342 69.4365C75.557 69.6781 75.6003 69.8831 75.6641 70.0518C75.7324 70.2158 75.8304 70.3389 75.958 70.4209C76.0902 70.5029 76.2679 70.5439 76.4912 70.5439ZM84.4141 64.6035V66.1963H81.6592V64.6035H84.4141ZM82.1787 64.6035V72H80.2578V64.6035H82.1787ZM85.8359 64.6035V72H83.9082V64.6035H85.8359ZM87.0391 68.5547V68.0557C87.0391 67.4769 87.1074 66.9642 87.2441 66.5176C87.3854 66.071 87.5859 65.6973 87.8457 65.3965C88.1055 65.0911 88.4176 64.861 88.7822 64.7061C89.1514 64.5465 89.5638 64.4668 90.0195 64.4668C90.4798 64.4668 90.8923 64.5465 91.2568 64.7061C91.626 64.861 91.9404 65.0911 92.2002 65.3965C92.4645 65.6973 92.6673 66.071 92.8086 66.5176C92.9499 66.9642 93.0205 67.4769 93.0205 68.0557V68.5547C93.0205 69.1289 92.9499 69.6393 92.8086 70.0859C92.6673 70.5326 92.4645 70.9085 92.2002 71.2139C91.9404 71.5192 91.6283 71.7493 91.2637 71.9043C90.8991 72.0592 90.4889 72.1367 90.0332 72.1367C89.5775 72.1367 89.165 72.0592 88.7959 71.9043C88.4313 71.7493 88.1169 71.5192 87.8525 71.2139C87.5882 70.9085 87.3854 70.5326 87.2441 70.0859C87.1074 69.6393 87.0391 69.1289 87.0391 68.5547ZM88.9531 68.0557V68.5547C88.9531 68.8965 88.9759 69.1927 89.0215 69.4434C89.0716 69.694 89.1423 69.9014 89.2334 70.0654C89.3291 70.2295 89.443 70.3503 89.5752 70.4277C89.7074 70.5052 89.86 70.5439 90.0332 70.5439C90.2064 70.5439 90.3613 70.5052 90.498 70.4277C90.6348 70.3503 90.7464 70.2295 90.833 70.0654C90.9242 69.9014 90.9902 69.694 91.0312 69.4434C91.0768 69.1927 91.0996 68.8965 91.0996 68.5547V68.0557C91.0996 67.723 91.0745 67.4313 91.0244 67.1807C90.9743 66.9255 90.9036 66.7181 90.8125 66.5586C90.7214 66.3945 90.6074 66.2715 90.4707 66.1895C90.3385 66.1029 90.1882 66.0596 90.0195 66.0596C89.8509 66.0596 89.7005 66.1029 89.5684 66.1895C89.4408 66.2715 89.3291 66.3945 89.2334 66.5586C89.1423 66.7181 89.0716 66.9255 89.0215 67.1807C88.9759 67.4313 88.9531 67.723 88.9531 68.0557ZM96.1445 66.0254V74.8438H94.2373V64.6035H96.001L96.1445 66.0254ZM99.9863 68.0488V68.541C99.9863 69.1198 99.9362 69.6325 99.8359 70.0791C99.7357 70.5212 99.5853 70.8971 99.3848 71.207C99.1888 71.5124 98.9427 71.7448 98.6465 71.9043C98.3503 72.0592 98.0039 72.1367 97.6074 72.1367C97.2383 72.1367 96.9193 72.0501 96.6504 71.877C96.3861 71.6992 96.1628 71.4554 95.9805 71.1455C95.7982 70.8356 95.6523 70.4733 95.543 70.0586C95.4336 69.6439 95.3493 69.1995 95.29 68.7256V67.96C95.3447 67.4541 95.4245 66.9893 95.5293 66.5654C95.6341 66.137 95.7777 65.7656 95.96 65.4512C96.1468 65.1367 96.3724 64.8952 96.6367 64.7266C96.9056 64.5534 97.2246 64.4668 97.5938 64.4668C97.9948 64.4668 98.3434 64.5397 98.6396 64.6855C98.9404 64.8314 99.1888 65.0524 99.3848 65.3486C99.5853 65.6403 99.7357 66.0117 99.8359 66.4629C99.9362 66.9141 99.9863 67.4427 99.9863 68.0488ZM98.0723 68.541V68.0488C98.0723 67.6934 98.0518 67.3903 98.0107 67.1396C97.9743 66.889 97.915 66.6839 97.833 66.5244C97.751 66.3649 97.6439 66.2487 97.5117 66.1758C97.3796 66.1029 97.2178 66.0664 97.0264 66.0664C96.8395 66.0664 96.6755 66.1029 96.5342 66.1758C96.3975 66.2487 96.2858 66.3558 96.1992 66.4971C96.1126 66.6338 96.0465 66.8024 96.001 67.0029C95.9554 67.1989 95.9303 67.4222 95.9258 67.6729V69.0127C95.9349 69.3089 95.9736 69.571 96.042 69.7988C96.1149 70.0267 96.2311 70.209 96.3906 70.3457C96.5501 70.4779 96.7666 70.5439 97.04 70.5439C97.236 70.5439 97.3978 70.5029 97.5254 70.4209C97.6576 70.3389 97.7646 70.2158 97.8467 70.0518C97.9287 69.8877 97.9857 69.6803 98.0176 69.4297C98.054 69.179 98.0723 68.8828 98.0723 68.541ZM104.272 64.6035V72H102.352V64.6035H104.272ZM106.173 64.6035V66.1826H100.458V64.6035H106.173ZM111.471 67.5703V69.1562H108.518V67.5703H111.471ZM109.14 64.6035V72H107.219V64.6035H109.14ZM112.776 64.6035V72H110.862V64.6035H112.776ZM113.986 68.5547V68.0557C113.986 67.4769 114.055 66.9642 114.191 66.5176C114.333 66.071 114.533 65.6973 114.793 65.3965C115.053 65.0911 115.365 64.861 115.729 64.7061C116.099 64.5465 116.511 64.4668 116.967 64.4668C117.427 64.4668 117.84 64.5465 118.204 64.7061C118.573 64.861 118.888 65.0911 119.147 65.3965C119.412 65.6973 119.615 66.071 119.756 66.5176C119.897 66.9642 119.968 67.4769 119.968 68.0557V68.5547C119.968 69.1289 119.897 69.6393 119.756 70.0859C119.615 70.5326 119.412 70.9085 119.147 71.2139C118.888 71.5192 118.576 71.7493 118.211 71.9043C117.846 72.0592 117.436 72.1367 116.98 72.1367C116.525 72.1367 116.112 72.0592 115.743 71.9043C115.379 71.7493 115.064 71.5192 114.8 71.2139C114.535 70.9085 114.333 70.5326 114.191 70.0859C114.055 69.6393 113.986 69.1289 113.986 68.5547ZM115.9 68.0557V68.5547C115.9 68.8965 115.923 69.1927 115.969 69.4434C116.019 69.694 116.09 69.9014 116.181 70.0654C116.276 70.2295 116.39 70.3503 116.522 70.4277C116.655 70.5052 116.807 70.5439 116.98 70.5439C117.154 70.5439 117.309 70.5052 117.445 70.4277C117.582 70.3503 117.694 70.2295 117.78 70.0654C117.871 69.9014 117.938 69.694 117.979 69.4434C118.024 69.1927 118.047 68.8965 118.047 68.5547V68.0557C118.047 67.723 118.022 67.4313 117.972 67.1807C117.922 66.9255 117.851 66.7181 117.76 66.5586C117.669 66.3945 117.555 66.2715 117.418 66.1895C117.286 66.1029 117.135 66.0596 116.967 66.0596C116.798 66.0596 116.648 66.1029 116.516 66.1895C116.388 66.2715 116.276 66.3945 116.181 66.5586C116.09 66.7181 116.019 66.9255 115.969 67.1807C115.923 67.4313 115.9 67.723 115.9 68.0557ZM125.505 64.6035V66.1963H123.092V72H121.178V64.6035H125.505ZM126.018 68.5547V68.0557C126.018 67.4769 126.086 66.9642 126.223 66.5176C126.364 66.071 126.564 65.6973 126.824 65.3965C127.084 65.0911 127.396 64.861 127.761 64.7061C128.13 64.5465 128.542 64.4668 128.998 64.4668C129.458 64.4668 129.871 64.5465 130.235 64.7061C130.604 64.861 130.919 65.0911 131.179 65.3965C131.443 65.6973 131.646 66.071 131.787 66.5176C131.928 66.9642 131.999 67.4769 131.999 68.0557V68.5547C131.999 69.1289 131.928 69.6393 131.787 70.0859C131.646 70.5326 131.443 70.9085 131.179 71.2139C130.919 71.5192 130.607 71.7493 130.242 71.9043C129.878 72.0592 129.467 72.1367 129.012 72.1367C128.556 72.1367 128.144 72.0592 127.774 71.9043C127.41 71.7493 127.095 71.5192 126.831 71.2139C126.567 70.9085 126.364 70.5326 126.223 70.0859C126.086 69.6393 126.018 69.1289 126.018 68.5547ZM127.932 68.0557V68.5547C127.932 68.8965 127.954 69.1927 128 69.4434C128.05 69.694 128.121 69.9014 128.212 70.0654C128.308 70.2295 128.422 70.3503 128.554 70.4277C128.686 70.5052 128.839 70.5439 129.012 70.5439C129.185 70.5439 129.34 70.5052 129.477 70.4277C129.613 70.3503 129.725 70.2295 129.812 70.0654C129.903 69.9014 129.969 69.694 130.01 69.4434C130.055 69.1927 130.078 68.8965 130.078 68.5547V68.0557C130.078 67.723 130.053 67.4313 130.003 67.1807C129.953 66.9255 129.882 66.7181 129.791 66.5586C129.7 66.3945 129.586 66.2715 129.449 66.1895C129.317 66.1029 129.167 66.0596 128.998 66.0596C128.829 66.0596 128.679 66.1029 128.547 66.1895C128.419 66.2715 128.308 66.3945 128.212 66.5586C128.121 66.7181 128.05 66.9255 128 67.1807C127.954 67.4313 127.932 67.723 127.932 68.0557ZM52.3125 88.4727H51V87.5771H51.916C52.071 87.5771 52.194 87.5452 52.2852 87.4814C52.3763 87.4131 52.4424 87.3197 52.4834 87.2012C52.529 87.0781 52.5518 86.9391 52.5518 86.7842C52.5518 86.6475 52.5335 86.5176 52.4971 86.3945C52.4606 86.2669 52.3968 86.1644 52.3057 86.0869C52.2191 86.0049 52.0915 85.9639 51.9229 85.9639C51.7725 85.9639 51.6403 85.9935 51.5264 86.0527C51.417 86.112 51.3327 86.1986 51.2734 86.3125C51.2188 86.4264 51.1914 86.5654 51.1914 86.7295H49.2705C49.2705 86.2555 49.3844 85.8522 49.6123 85.5195C49.8447 85.1823 50.1546 84.9248 50.542 84.7471C50.9294 84.5648 51.3555 84.4736 51.8203 84.4736C52.2214 84.4736 52.5837 84.5215 52.9072 84.6172C53.2354 84.7083 53.5133 84.8451 53.7412 85.0273C53.9736 85.2096 54.1514 85.4352 54.2744 85.7041C54.3975 85.9684 54.459 86.276 54.459 86.627C54.459 86.8776 54.4089 87.1146 54.3086 87.3379C54.2083 87.5612 54.0648 87.7594 53.8779 87.9326C53.6911 88.1012 53.4655 88.2334 53.2012 88.3291C52.9368 88.4248 52.6406 88.4727 52.3125 88.4727ZM51 87.9805H52.3125C52.6771 87.9805 52.9984 88.0238 53.2764 88.1104C53.5589 88.1924 53.7959 88.3154 53.9873 88.4795C54.1787 88.6436 54.3245 88.8464 54.4248 89.0879C54.5251 89.3249 54.5752 89.5983 54.5752 89.9082C54.5752 90.2591 54.5068 90.5736 54.3701 90.8516C54.238 91.125 54.0488 91.3574 53.8027 91.5488C53.5566 91.7402 53.265 91.8861 52.9277 91.9863C52.5905 92.0866 52.2214 92.1367 51.8203 92.1367C51.3828 92.1367 50.9613 92.0547 50.5557 91.8906C50.1546 91.7266 49.8242 91.4736 49.5645 91.1318C49.3047 90.7855 49.1748 90.3434 49.1748 89.8057H51.0889C51.0889 89.9515 51.1185 90.0905 51.1777 90.2227C51.237 90.3503 51.3281 90.4551 51.4512 90.5371C51.5742 90.6146 51.7314 90.6533 51.9229 90.6533C52.1097 90.6533 52.2555 90.61 52.3604 90.5234C52.4652 90.4323 52.5404 90.3184 52.5859 90.1816C52.6315 90.0449 52.6543 89.9014 52.6543 89.751C52.6543 89.5459 52.627 89.3773 52.5723 89.2451C52.5176 89.113 52.4355 89.015 52.3262 88.9512C52.2168 88.8874 52.0801 88.8555 51.916 88.8555H51V87.9805ZM59.0049 90.2979V86.8799C59.0049 86.6566 58.9775 86.4788 58.9229 86.3467C58.8727 86.2145 58.7952 86.1188 58.6904 86.0596C58.5902 85.9958 58.4671 85.9639 58.3213 85.9639C58.1572 85.9639 58.0205 85.998 57.9111 86.0664C57.8018 86.1348 57.7197 86.2327 57.665 86.3604C57.6149 86.488 57.5898 86.6406 57.5898 86.8184H55.6689C55.6689 86.4993 55.7305 86.1986 55.8535 85.916C55.9766 85.6289 56.1566 85.3783 56.3936 85.1641C56.6351 84.9453 56.9222 84.7744 57.2549 84.6514C57.5876 84.5283 57.9613 84.4668 58.376 84.4668C58.8682 84.4668 59.3057 84.5511 59.6885 84.7197C60.0713 84.8838 60.3743 85.1458 60.5977 85.5059C60.821 85.8659 60.9326 86.333 60.9326 86.9072V90.2021C60.9326 90.6169 60.9531 90.9541 60.9941 91.2139C61.0397 91.4736 61.1058 91.6969 61.1924 91.8838V92H59.2646C59.1781 91.7949 59.112 91.5397 59.0664 91.2344C59.0254 90.9245 59.0049 90.6123 59.0049 90.2979ZM59.2373 87.4814L59.2441 88.6299H58.54C58.3577 88.6299 58.1982 88.6595 58.0615 88.7188C57.9294 88.778 57.8177 88.8623 57.7266 88.9717C57.6354 89.0765 57.5671 89.1995 57.5215 89.3408C57.4805 89.4821 57.46 89.6325 57.46 89.792C57.46 89.9697 57.485 90.1201 57.5352 90.2432C57.5853 90.3662 57.6605 90.4596 57.7607 90.5234C57.861 90.5872 57.9795 90.6191 58.1162 90.6191C58.3258 90.6191 58.5081 90.5758 58.6631 90.4893C58.818 90.4027 58.932 90.2979 59.0049 90.1748C59.0824 90.0518 59.1074 89.9378 59.0801 89.833L59.5176 90.5781C59.4629 90.7467 59.3877 90.9222 59.292 91.1045C59.2008 91.2868 59.0846 91.4554 58.9434 91.6104C58.8021 91.7653 58.6266 91.8929 58.417 91.9932C58.2119 92.0889 57.9681 92.1367 57.6855 92.1367C57.2891 92.1367 56.9268 92.0456 56.5986 91.8633C56.2705 91.681 56.0107 91.4258 55.8193 91.0977C55.6325 90.7695 55.5391 90.3799 55.5391 89.9287C55.5391 89.555 55.5983 89.2178 55.7168 88.917C55.8398 88.6117 56.0221 88.3542 56.2637 88.1445C56.5052 87.9303 56.8105 87.7663 57.1797 87.6523C57.5488 87.5384 57.9818 87.4814 58.4785 87.4814H59.2373ZM65.0205 90.5439C65.1982 90.5439 65.3509 90.5075 65.4785 90.4346C65.6107 90.3617 65.7109 90.2432 65.7793 90.0791C65.8477 89.915 65.8841 89.7031 65.8887 89.4434H67.6865C67.6865 89.9993 67.568 90.4801 67.3311 90.8857C67.0986 91.2868 66.7842 91.5967 66.3877 91.8154C65.9958 92.0296 65.5514 92.1367 65.0547 92.1367C64.5579 92.1367 64.125 92.057 63.7559 91.8975C63.3867 91.738 63.0814 91.5055 62.8398 91.2002C62.6029 90.8949 62.4229 90.5234 62.2998 90.0859C62.1813 89.6439 62.1221 89.138 62.1221 88.5684V88.0283C62.1221 87.4678 62.1813 86.9665 62.2998 86.5244C62.4229 86.0824 62.6029 85.7087 62.8398 85.4033C63.0814 85.098 63.3844 84.8656 63.749 84.7061C64.1182 84.5465 64.5511 84.4668 65.0479 84.4668C65.5811 84.4668 66.0436 84.5785 66.4355 84.8018C66.8275 85.0205 67.1328 85.3441 67.3516 85.7725C67.5749 86.2008 67.6865 86.7295 67.6865 87.3584H65.8887C65.8841 87.0758 65.8499 86.8411 65.7861 86.6543C65.7269 86.4629 65.6335 86.3171 65.5059 86.2168C65.3828 86.112 65.2188 86.0596 65.0137 86.0596C64.7995 86.0596 64.6263 86.1051 64.4941 86.1963C64.3665 86.2829 64.2686 86.4105 64.2002 86.5791C64.1364 86.7432 64.0931 86.9482 64.0703 87.1943C64.0475 87.4404 64.0361 87.7184 64.0361 88.0283V88.5684C64.0361 88.901 64.0452 89.1904 64.0635 89.4365C64.0863 89.6781 64.1296 89.8831 64.1934 90.0518C64.2617 90.2158 64.3597 90.3389 64.4873 90.4209C64.6195 90.5029 64.7972 90.5439 65.0205 90.5439ZM68.5684 88.5547V88.0557C68.5684 87.4769 68.6367 86.9642 68.7734 86.5176C68.9147 86.071 69.1152 85.6973 69.375 85.3965C69.6348 85.0911 69.9469 84.861 70.3115 84.7061C70.6807 84.5465 71.0931 84.4668 71.5488 84.4668C72.0091 84.4668 72.4215 84.5465 72.7861 84.7061C73.1553 84.861 73.4697 85.0911 73.7295 85.3965C73.9938 85.6973 74.1966 86.071 74.3379 86.5176C74.4792 86.9642 74.5498 87.4769 74.5498 88.0557V88.5547C74.5498 89.1289 74.4792 89.6393 74.3379 90.0859C74.1966 90.5326 73.9938 90.9085 73.7295 91.2139C73.4697 91.5192 73.1576 91.7493 72.793 91.9043C72.4284 92.0592 72.0182 92.1367 71.5625 92.1367C71.1068 92.1367 70.6943 92.0592 70.3252 91.9043C69.9606 91.7493 69.6462 91.5192 69.3818 91.2139C69.1175 90.9085 68.9147 90.5326 68.7734 90.0859C68.6367 89.6393 68.5684 89.1289 68.5684 88.5547ZM70.4824 88.0557V88.5547C70.4824 88.8965 70.5052 89.1927 70.5508 89.4434C70.6009 89.694 70.6715 89.9014 70.7627 90.0654C70.8584 90.2295 70.9723 90.3503 71.1045 90.4277C71.2367 90.5052 71.3893 90.5439 71.5625 90.5439C71.7357 90.5439 71.8906 90.5052 72.0273 90.4277C72.1641 90.3503 72.2757 90.2295 72.3623 90.0654C72.4535 89.9014 72.5195 89.694 72.5605 89.4434C72.6061 89.1927 72.6289 88.8965 72.6289 88.5547V88.0557C72.6289 87.723 72.6038 87.4313 72.5537 87.1807C72.5036 86.9255 72.4329 86.7181 72.3418 86.5586C72.2507 86.3945 72.1367 86.2715 72 86.1895C71.8678 86.1029 71.7174 86.0596 71.5488 86.0596C71.3802 86.0596 71.2298 86.1029 71.0977 86.1895C70.9701 86.2715 70.8584 86.3945 70.7627 86.5586C70.6715 86.7181 70.6009 86.9255 70.5508 87.1807C70.5052 87.4313 70.4824 87.723 70.4824 88.0557ZM79.5195 81.3496H81.0576C81.0576 81.7142 81.0189 82.0286 80.9414 82.293C80.8639 82.5573 80.7386 82.7829 80.5654 82.9697C80.3968 83.1566 80.1689 83.3161 79.8818 83.4482C79.5947 83.5804 79.2347 83.6943 78.8018 83.79C78.501 83.863 78.2389 83.9906 78.0156 84.1729C77.7923 84.3506 77.61 84.5921 77.4688 84.8975C77.3275 85.1982 77.2295 85.5811 77.1748 86.0459C77.1201 86.5062 77.1064 87.0599 77.1338 87.707V88.0146L75.6572 88.2402V87.9395C75.6572 87.0417 75.7233 86.2601 75.8555 85.5947C75.9922 84.9294 76.1836 84.3688 76.4297 83.9131C76.6758 83.4574 76.972 83.0951 77.3184 82.8262C77.6647 82.5527 78.0475 82.3613 78.4668 82.252C78.7083 82.179 78.9066 82.1084 79.0615 82.04C79.2165 81.9717 79.3304 81.8828 79.4033 81.7734C79.4808 81.6641 79.5195 81.5228 79.5195 81.3496ZM78.9932 85.0137C79.417 85.0137 79.7907 85.1003 80.1143 85.2734C80.4378 85.4421 80.709 85.6836 80.9277 85.998C81.1465 86.3079 81.3105 86.6748 81.4199 87.0986C81.5339 87.5179 81.5908 87.9759 81.5908 88.4727V88.6162C81.5908 89.1221 81.527 89.5915 81.3994 90.0244C81.2718 90.4528 81.0827 90.8265 80.832 91.1455C80.5859 91.46 80.276 91.7061 79.9023 91.8838C79.5332 92.057 79.1071 92.1436 78.624 92.1436C78.1455 92.1436 77.7217 92.0479 77.3525 91.8564C76.9834 91.665 76.6712 91.3984 76.416 91.0566C76.1654 90.7103 75.9762 90.3047 75.8486 89.8398C75.721 89.375 75.6572 88.8669 75.6572 88.3154V88.165C75.6572 88.0921 75.6891 88.0215 75.7529 87.9531C75.8213 87.8802 75.9033 87.7959 75.999 87.7002C76.0947 87.6045 76.1745 87.4837 76.2383 87.3379C76.4889 86.8275 76.751 86.3991 77.0244 86.0527C77.3024 85.7064 77.6032 85.4466 77.9268 85.2734C78.2549 85.1003 78.6104 85.0137 78.9932 85.0137ZM78.624 86.6064C78.3506 86.6064 78.1364 86.693 77.9814 86.8662C77.8311 87.0348 77.724 87.2604 77.6602 87.543C77.6009 87.8255 77.5713 88.1331 77.5713 88.4658V88.6094C77.5713 88.8783 77.5872 89.1312 77.6191 89.3682C77.651 89.6006 77.7057 89.8079 77.7832 89.9902C77.8652 90.168 77.9746 90.307 78.1113 90.4072C78.2526 90.5029 78.4258 90.5508 78.6309 90.5508C78.8314 90.5508 79 90.5029 79.1367 90.4072C79.2734 90.307 79.3805 90.168 79.458 89.9902C79.54 89.8079 79.597 89.6006 79.6289 89.3682C79.6608 89.1312 79.6768 88.8783 79.6768 88.6094V88.4727C79.6768 88.2174 79.6585 87.9782 79.6221 87.7549C79.5902 87.5316 79.5355 87.3356 79.458 87.167C79.3805 86.9938 79.2734 86.8571 79.1367 86.7568C79 86.6566 78.8291 86.6064 78.624 86.6064ZM84.6465 91.1523L86.1914 84.6035H88.1875L85.7539 93.1074C85.6992 93.2943 85.624 93.4948 85.5283 93.709C85.4326 93.9277 85.305 94.1328 85.1455 94.3242C84.9906 94.5202 84.7946 94.6797 84.5576 94.8027C84.3206 94.9258 84.0358 94.9873 83.7031 94.9873C83.5345 94.9873 83.3978 94.9759 83.293 94.9531C83.1927 94.9349 83.0651 94.903 82.9102 94.8574V93.3672C82.9512 93.3672 82.9899 93.3672 83.0264 93.3672C83.0674 93.3717 83.1061 93.374 83.1426 93.374C83.3568 93.374 83.5277 93.3444 83.6553 93.2852C83.7829 93.2305 83.8854 93.1439 83.9629 93.0254C84.0449 92.9069 84.1133 92.7588 84.168 92.5811L84.6465 91.1523ZM84.25 84.6035L85.3984 89.9082L85.6582 92.0684L84.3662 92.1914L82.1992 84.6035H84.25Z" fill="url(#paint0_linear_363_3214)"/>
<path d="M379.425 62.0469V63.708H375.85V72H373.854V62.0469H379.425ZM375.2 65.6289H377.094C377.759 65.6289 378.336 65.7588 378.823 66.0186C379.311 66.2783 379.687 66.6452 379.951 67.1191C380.22 67.5931 380.354 68.1468 380.354 68.7803C380.354 69.2588 380.277 69.694 380.122 70.0859C379.972 70.4779 379.753 70.8174 379.466 71.1045C379.183 71.3916 378.841 71.6126 378.44 71.7676C378.044 71.9225 377.595 72 377.094 72H373.854V62.0469H375.856V70.3457H377.094C377.372 70.3457 377.604 70.2728 377.791 70.127C377.978 69.9811 378.119 69.7897 378.215 69.5527C378.311 69.3158 378.358 69.0537 378.358 68.7666C378.358 68.4886 378.311 68.238 378.215 68.0146C378.119 67.7913 377.978 67.6159 377.791 67.4883C377.604 67.3561 377.372 67.29 377.094 67.29H375.2V65.6289ZM383.417 64.6035V72H381.496V64.6035H383.417ZM381.407 62.6895C381.407 62.3932 381.501 62.1494 381.688 61.958C381.879 61.762 382.134 61.6641 382.453 61.6641C382.777 61.6641 383.032 61.762 383.219 61.958C383.406 62.1494 383.499 62.3932 383.499 62.6895C383.499 62.9811 383.403 63.2249 383.212 63.4209C383.025 63.6123 382.774 63.708 382.46 63.708C382.136 63.708 381.879 63.6123 381.688 63.4209C381.501 63.2249 381.407 62.9811 381.407 62.6895ZM389.091 64.6035V66.1963H386.097V64.6035H389.091ZM390.52 64.6035V72H388.605V64.6035H390.52ZM385.632 64.6035H387.512L387.327 68.3564C387.304 68.8896 387.254 69.3568 387.177 69.7578C387.099 70.1589 386.997 70.5029 386.869 70.79C386.742 71.0771 386.587 71.3096 386.404 71.4873C386.227 71.665 386.024 71.7949 385.796 71.877C385.573 71.959 385.322 72 385.044 72H384.477L384.456 70.3936L384.675 70.3662C384.789 70.3525 384.889 70.3115 384.976 70.2432C385.067 70.1748 385.144 70.0745 385.208 69.9424C385.272 69.8102 385.322 69.6416 385.358 69.4365C385.399 69.2314 385.431 68.9899 385.454 68.7119C385.477 68.4339 385.495 68.1149 385.509 67.7549L385.632 64.6035ZM393.958 64.6035V72H392.037V64.6035H393.958ZM391.948 62.6895C391.948 62.3932 392.042 62.1494 392.229 61.958C392.42 61.762 392.675 61.6641 392.994 61.6641C393.318 61.6641 393.573 61.762 393.76 61.958C393.947 62.1494 394.04 62.3932 394.04 62.6895C394.04 62.9811 393.944 63.2249 393.753 63.4209C393.566 63.6123 393.315 63.708 393.001 63.708C392.677 63.708 392.42 63.6123 392.229 63.4209C392.042 63.2249 391.948 62.9811 391.948 62.6895ZM399.728 67.5703V69.1562H396.774V67.5703H399.728ZM397.396 64.6035V72H395.476V64.6035H397.396ZM401.033 64.6035V72H399.119V64.6035H401.033ZM406.789 64.6035V66.1963H404.376V72H402.462V64.6035H406.789Z" fill="#E0E0E9"/>
<path d="M674.763 59.0469V69H672.773V60.708H669.807V69H667.804V59.0469H674.763ZM679.288 69.1367C678.782 69.1367 678.333 69.0592 677.941 68.9043C677.554 68.7493 677.226 68.526 676.957 68.2344C676.688 67.9382 676.483 67.5804 676.342 67.1611C676.201 66.7419 676.13 66.2633 676.13 65.7256V65.1172C676.13 64.5156 676.198 63.9893 676.335 63.5381C676.472 63.0824 676.665 62.6995 676.916 62.3896C677.167 62.0798 677.474 61.8496 677.839 61.6992C678.208 61.5443 678.625 61.4668 679.09 61.4668C679.555 61.4668 679.963 61.5443 680.313 61.6992C680.669 61.8496 680.963 62.0775 681.195 62.3828C681.428 62.6836 681.603 63.0573 681.722 63.5039C681.84 63.9505 681.899 64.4701 681.899 65.0625V65.9375H676.943V64.5908H680.02V64.4199C680.02 64.1191 679.988 63.8685 679.924 63.668C679.86 63.4629 679.76 63.3102 679.623 63.21C679.486 63.1097 679.304 63.0596 679.076 63.0596C678.885 63.0596 678.723 63.0983 678.591 63.1758C678.459 63.2533 678.354 63.374 678.276 63.5381C678.199 63.7021 678.142 63.9163 678.105 64.1807C678.069 64.4404 678.051 64.7526 678.051 65.1172V65.7256C678.051 66.0674 678.08 66.3545 678.14 66.5869C678.199 66.8148 678.285 67.0016 678.399 67.1475C678.518 67.2887 678.661 67.3913 678.83 67.4551C678.999 67.5143 679.195 67.5439 679.418 67.5439C679.755 67.5439 680.058 67.4847 680.327 67.3662C680.601 67.2432 680.833 67.0768 681.024 66.8672L681.79 68.0293C681.658 68.2025 681.476 68.3757 681.243 68.5488C681.011 68.722 680.733 68.8633 680.409 68.9727C680.086 69.082 679.712 69.1367 679.288 69.1367ZM684.921 63.0254V71.8438H683.014V61.6035H684.777L684.921 63.0254ZM688.763 65.0488V65.541C688.763 66.1198 688.713 66.6325 688.612 67.0791C688.512 67.5212 688.362 67.8971 688.161 68.207C687.965 68.5124 687.719 68.7448 687.423 68.9043C687.127 69.0592 686.78 69.1367 686.384 69.1367C686.015 69.1367 685.696 69.0501 685.427 68.877C685.162 68.6992 684.939 68.4554 684.757 68.1455C684.575 67.8356 684.429 67.4733 684.319 67.0586C684.21 66.6439 684.126 66.1995 684.066 65.7256V64.96C684.121 64.4541 684.201 63.9893 684.306 63.5654C684.41 63.137 684.554 62.7656 684.736 62.4512C684.923 62.1367 685.149 61.8952 685.413 61.7266C685.682 61.5534 686.001 61.4668 686.37 61.4668C686.771 61.4668 687.12 61.5397 687.416 61.6855C687.717 61.8314 687.965 62.0524 688.161 62.3486C688.362 62.6403 688.512 63.0117 688.612 63.4629C688.713 63.9141 688.763 64.4427 688.763 65.0488ZM686.849 65.541V65.0488C686.849 64.6934 686.828 64.3903 686.787 64.1396C686.751 63.889 686.691 63.6839 686.609 63.5244C686.527 63.3649 686.42 63.2487 686.288 63.1758C686.156 63.1029 685.994 63.0664 685.803 63.0664C685.616 63.0664 685.452 63.1029 685.311 63.1758C685.174 63.2487 685.062 63.3558 684.976 63.4971C684.889 63.6338 684.823 63.8024 684.777 64.0029C684.732 64.1989 684.707 64.4222 684.702 64.6729V66.0127C684.711 66.3089 684.75 66.571 684.818 66.7988C684.891 67.0267 685.007 67.209 685.167 67.3457C685.326 67.4779 685.543 67.5439 685.816 67.5439C686.012 67.5439 686.174 67.5029 686.302 67.4209C686.434 67.3389 686.541 67.2158 686.623 67.0518C686.705 66.8877 686.762 66.6803 686.794 66.4297C686.83 66.179 686.849 65.8828 686.849 65.541ZM692.919 69.1367C692.413 69.1367 691.964 69.0592 691.572 68.9043C691.185 68.7493 690.857 68.526 690.588 68.2344C690.319 67.9382 690.114 67.5804 689.973 67.1611C689.831 66.7419 689.761 66.2633 689.761 65.7256V65.1172C689.761 64.5156 689.829 63.9893 689.966 63.5381C690.103 63.0824 690.296 62.6995 690.547 62.3896C690.798 62.0798 691.105 61.8496 691.47 61.6992C691.839 61.5443 692.256 61.4668 692.721 61.4668C693.186 61.4668 693.593 61.5443 693.944 61.6992C694.3 61.8496 694.594 62.0775 694.826 62.3828C695.059 62.6836 695.234 63.0573 695.353 63.5039C695.471 63.9505 695.53 64.4701 695.53 65.0625V65.9375H690.574V64.5908H693.65V64.4199C693.65 64.1191 693.618 63.8685 693.555 63.668C693.491 63.4629 693.391 63.3102 693.254 63.21C693.117 63.1097 692.935 63.0596 692.707 63.0596C692.516 63.0596 692.354 63.0983 692.222 63.1758C692.09 63.2533 691.985 63.374 691.907 63.5381C691.83 63.7021 691.773 63.9163 691.736 64.1807C691.7 64.4404 691.682 64.7526 691.682 65.1172V65.7256C691.682 66.0674 691.711 66.3545 691.771 66.5869C691.83 66.8148 691.916 67.0016 692.03 67.1475C692.149 67.2887 692.292 67.3913 692.461 67.4551C692.63 67.5143 692.826 67.5439 693.049 67.5439C693.386 67.5439 693.689 67.4847 693.958 67.3662C694.231 67.2432 694.464 67.0768 694.655 66.8672L695.421 68.0293C695.289 68.2025 695.106 68.3757 694.874 68.5488C694.642 68.722 694.364 68.8633 694.04 68.9727C693.716 69.082 693.343 69.1367 692.919 69.1367ZM699.837 65.9307H697.971L697.964 64.5977H699.475C699.652 64.5977 699.794 64.5726 699.898 64.5225C700.003 64.4723 700.078 64.3994 700.124 64.3037C700.174 64.2035 700.199 64.0804 700.199 63.9346C700.199 63.7979 700.183 63.6839 700.151 63.5928C700.119 63.4971 700.072 63.4196 700.008 63.3604C699.944 63.2965 699.864 63.251 699.769 63.2236C699.673 63.1963 699.563 63.1826 699.44 63.1826H698.675V69H696.761V61.6035H699.44C699.851 61.6035 700.22 61.6468 700.548 61.7334C700.876 61.8154 701.159 61.9408 701.396 62.1094C701.632 62.278 701.812 62.4922 701.936 62.752C702.059 63.0117 702.12 63.3171 702.12 63.668C702.12 63.8958 702.075 64.11 701.983 64.3105C701.892 64.5065 701.758 64.682 701.58 64.8369C701.407 64.9919 701.19 65.1195 700.931 65.2197C700.671 65.3154 700.375 65.3747 700.042 65.3975L699.837 65.9307ZM699.837 69H697.485L698.176 67.4209H699.837C700.006 67.4209 700.14 67.3936 700.24 67.3389C700.34 67.2842 700.413 67.2021 700.459 67.0928C700.505 66.9834 700.527 66.849 700.527 66.6895C700.527 66.5391 700.507 66.4069 700.466 66.293C700.429 66.1745 700.361 66.0856 700.261 66.0264C700.16 65.9626 700.019 65.9307 699.837 65.9307H698.292L698.306 64.5977H700.015L700.459 65.1377C700.924 65.1696 701.302 65.2676 701.594 65.4316C701.885 65.5957 702.1 65.8053 702.236 66.0605C702.373 66.3112 702.441 66.5869 702.441 66.8877C702.441 67.2386 702.384 67.5462 702.271 67.8105C702.157 68.0749 701.99 68.2959 701.771 68.4736C701.557 68.6468 701.286 68.779 700.958 68.8701C700.634 68.9567 700.261 69 699.837 69ZM705.62 61.6035V69H703.699V61.6035H705.62ZM703.61 59.6895C703.61 59.3932 703.704 59.1494 703.891 58.958C704.082 58.762 704.337 58.6641 704.656 58.6641C704.98 58.6641 705.235 58.762 705.422 58.958C705.609 59.1494 705.702 59.3932 705.702 59.6895C705.702 59.9811 705.606 60.2249 705.415 60.4209C705.228 60.6123 704.978 60.708 704.663 60.708C704.34 60.708 704.082 60.6123 703.891 60.4209C703.704 60.2249 703.61 59.9811 703.61 59.6895ZM709.052 63.0254V71.8438H707.145V61.6035H708.908L709.052 63.0254ZM712.894 65.0488V65.541C712.894 66.1198 712.843 66.6325 712.743 67.0791C712.643 67.5212 712.493 67.8971 712.292 68.207C712.096 68.5124 711.85 68.7448 711.554 68.9043C711.257 69.0592 710.911 69.1367 710.515 69.1367C710.146 69.1367 709.826 69.0501 709.558 68.877C709.293 68.6992 709.07 68.4554 708.888 68.1455C708.705 67.8356 708.56 67.4733 708.45 67.0586C708.341 66.6439 708.257 66.1995 708.197 65.7256V64.96C708.252 64.4541 708.332 63.9893 708.437 63.5654C708.541 63.137 708.685 62.7656 708.867 62.4512C709.054 62.1367 709.28 61.8952 709.544 61.7266C709.813 61.5534 710.132 61.4668 710.501 61.4668C710.902 61.4668 711.251 61.5397 711.547 61.6855C711.848 61.8314 712.096 62.0524 712.292 62.3486C712.493 62.6403 712.643 63.0117 712.743 63.4629C712.843 63.9141 712.894 64.4427 712.894 65.0488ZM710.979 65.541V65.0488C710.979 64.6934 710.959 64.3903 710.918 64.1396C710.882 63.889 710.822 63.6839 710.74 63.5244C710.658 63.3649 710.551 63.2487 710.419 63.1758C710.287 63.1029 710.125 63.0664 709.934 63.0664C709.747 63.0664 709.583 63.1029 709.441 63.1758C709.305 63.2487 709.193 63.3558 709.106 63.4971C709.02 63.6338 708.954 63.8024 708.908 64.0029C708.863 64.1989 708.838 64.4222 708.833 64.6729V66.0127C708.842 66.3089 708.881 66.571 708.949 66.7988C709.022 67.0267 709.138 67.209 709.298 67.3457C709.457 67.4779 709.674 67.5439 709.947 67.5439C710.143 67.5439 710.305 67.5029 710.433 67.4209C710.565 67.3389 710.672 67.2158 710.754 67.0518C710.836 66.8877 710.893 66.6803 710.925 66.4297C710.961 66.179 710.979 65.8828 710.979 65.541ZM716.127 61.6035V69H714.206V61.6035H716.127ZM720.146 61.6035L717.467 66.2725H715.778L715.532 64.3789H716.592L717.733 61.6035H720.146ZM717.761 69L716.476 65.9033L718.144 64.9395L720.304 69H717.761ZM724.385 67.2979V63.8799C724.385 63.6566 724.357 63.4788 724.303 63.3467C724.253 63.2145 724.175 63.1188 724.07 63.0596C723.97 62.9958 723.847 62.9639 723.701 62.9639C723.537 62.9639 723.4 62.998 723.291 63.0664C723.182 63.1348 723.1 63.2327 723.045 63.3604C722.995 63.488 722.97 63.6406 722.97 63.8184H721.049C721.049 63.4993 721.11 63.1986 721.233 62.916C721.356 62.6289 721.536 62.3783 721.773 62.1641C722.015 61.9453 722.302 61.7744 722.635 61.6514C722.967 61.5283 723.341 61.4668 723.756 61.4668C724.248 61.4668 724.686 61.5511 725.068 61.7197C725.451 61.8838 725.754 62.1458 725.978 62.5059C726.201 62.8659 726.312 63.333 726.312 63.9072V67.2021C726.312 67.6169 726.333 67.9541 726.374 68.2139C726.42 68.4736 726.486 68.6969 726.572 68.8838V69H724.645C724.558 68.7949 724.492 68.5397 724.446 68.2344C724.405 67.9245 724.385 67.6123 724.385 67.2979ZM724.617 64.4814L724.624 65.6299H723.92C723.738 65.6299 723.578 65.6595 723.441 65.7188C723.309 65.778 723.198 65.8623 723.106 65.9717C723.015 66.0765 722.947 66.1995 722.901 66.3408C722.86 66.4821 722.84 66.6325 722.84 66.792C722.84 66.9697 722.865 67.1201 722.915 67.2432C722.965 67.3662 723.04 67.4596 723.141 67.5234C723.241 67.5872 723.359 67.6191 723.496 67.6191C723.706 67.6191 723.888 67.5758 724.043 67.4893C724.198 67.4027 724.312 67.2979 724.385 67.1748C724.462 67.0518 724.487 66.9378 724.46 66.833L724.897 67.5781C724.843 67.7467 724.768 67.9222 724.672 68.1045C724.581 68.2868 724.465 68.4554 724.323 68.6104C724.182 68.7653 724.007 68.8929 723.797 68.9932C723.592 69.0889 723.348 69.1367 723.065 69.1367C722.669 69.1367 722.307 69.0456 721.979 68.8633C721.65 68.681 721.391 68.4258 721.199 68.0977C721.012 67.7695 720.919 67.3799 720.919 66.9287C720.919 66.555 720.978 66.2178 721.097 65.917C721.22 65.6117 721.402 65.3542 721.644 65.1445C721.885 64.9303 722.19 64.7663 722.56 64.6523C722.929 64.5384 723.362 64.4814 723.858 64.4814H724.617ZM672.917 75.6035V83H670.996V75.6035H672.917ZM674.817 75.6035V77.1826H669.103V75.6035H674.817ZM679.015 81.2979V77.8799C679.015 77.6566 678.987 77.4788 678.933 77.3467C678.882 77.2145 678.805 77.1188 678.7 77.0596C678.6 76.9958 678.477 76.9639 678.331 76.9639C678.167 76.9639 678.03 76.998 677.921 77.0664C677.812 77.1348 677.729 77.2327 677.675 77.3604C677.625 77.488 677.6 77.6406 677.6 77.8184H675.679C675.679 77.4993 675.74 77.1986 675.863 76.916C675.986 76.6289 676.166 76.3783 676.403 76.1641C676.645 75.9453 676.932 75.7744 677.265 75.6514C677.597 75.5283 677.971 75.4668 678.386 75.4668C678.878 75.4668 679.315 75.5511 679.698 75.7197C680.081 75.8838 680.384 76.1458 680.607 76.5059C680.831 76.8659 680.942 77.333 680.942 77.9072V81.2021C680.942 81.6169 680.963 81.9541 681.004 82.2139C681.049 82.4736 681.116 82.6969 681.202 82.8838V83H679.274C679.188 82.7949 679.122 82.5397 679.076 82.2344C679.035 81.9245 679.015 81.6123 679.015 81.2979ZM679.247 78.4814L679.254 79.6299H678.55C678.368 79.6299 678.208 79.6595 678.071 79.7188C677.939 79.778 677.827 79.8623 677.736 79.9717C677.645 80.0765 677.577 80.1995 677.531 80.3408C677.49 80.4821 677.47 80.6325 677.47 80.792C677.47 80.9697 677.495 81.1201 677.545 81.2432C677.595 81.3662 677.67 81.4596 677.771 81.5234C677.871 81.5872 677.989 81.6191 678.126 81.6191C678.336 81.6191 678.518 81.5758 678.673 81.4893C678.828 81.4027 678.942 81.2979 679.015 81.1748C679.092 81.0518 679.117 80.9378 679.09 80.833L679.527 81.5781C679.473 81.7467 679.397 81.9222 679.302 82.1045C679.211 82.2868 679.094 82.4554 678.953 82.6104C678.812 82.7653 678.636 82.8929 678.427 82.9932C678.222 83.0889 677.978 83.1367 677.695 83.1367C677.299 83.1367 676.937 83.0456 676.608 82.8633C676.28 82.681 676.021 82.4258 675.829 82.0977C675.642 81.7695 675.549 81.3799 675.549 80.9287C675.549 80.555 675.608 80.2178 675.727 79.917C675.85 79.6117 676.032 79.3542 676.273 79.1445C676.515 78.9303 676.82 78.7663 677.189 78.6523C677.559 78.5384 677.992 78.4814 678.488 78.4814H679.247ZM685.365 79.5547V79.0557C685.365 78.4769 685.434 77.9642 685.57 77.5176C685.712 77.071 685.912 76.6973 686.172 76.3965C686.432 76.0911 686.744 75.861 687.108 75.7061C687.478 75.5465 687.89 75.4668 688.346 75.4668C688.806 75.4668 689.218 75.5465 689.583 75.7061C689.952 75.861 690.267 76.0911 690.526 76.3965C690.791 76.6973 690.993 77.071 691.135 77.5176C691.276 77.9642 691.347 78.4769 691.347 79.0557V79.5547C691.347 80.1289 691.276 80.6393 691.135 81.0859C690.993 81.5326 690.791 81.9085 690.526 82.2139C690.267 82.5192 689.954 82.7493 689.59 82.9043C689.225 83.0592 688.815 83.1367 688.359 83.1367C687.904 83.1367 687.491 83.0592 687.122 82.9043C686.757 82.7493 686.443 82.5192 686.179 82.2139C685.914 81.9085 685.712 81.5326 685.57 81.0859C685.434 80.6393 685.365 80.1289 685.365 79.5547ZM687.279 79.0557V79.5547C687.279 79.8965 687.302 80.1927 687.348 80.4434C687.398 80.694 687.468 80.9014 687.56 81.0654C687.655 81.2295 687.769 81.3503 687.901 81.4277C688.034 81.5052 688.186 81.5439 688.359 81.5439C688.533 81.5439 688.688 81.5052 688.824 81.4277C688.961 81.3503 689.073 81.2295 689.159 81.0654C689.25 80.9014 689.316 80.694 689.357 80.4434C689.403 80.1927 689.426 79.8965 689.426 79.5547V79.0557C689.426 78.723 689.401 78.4313 689.351 78.1807C689.3 77.9255 689.23 77.7181 689.139 77.5586C689.048 77.3945 688.934 77.2715 688.797 77.1895C688.665 77.1029 688.514 77.0596 688.346 77.0596C688.177 77.0596 688.027 77.1029 687.895 77.1895C687.767 77.2715 687.655 77.3945 687.56 77.5586C687.468 77.7181 687.398 77.9255 687.348 78.1807C687.302 78.4313 687.279 78.723 687.279 79.0557ZM696.713 75.6035V77.1963H693.958V75.6035H696.713ZM694.478 75.6035V83H692.557V75.6035H694.478ZM698.135 75.6035V83H696.207V75.6035H698.135ZM703.713 75.6035V77.1963H700.719V75.6035H703.713ZM705.142 75.6035V83H703.228V75.6035H705.142ZM700.254 75.6035H702.134L701.949 79.3564C701.926 79.8896 701.876 80.3568 701.799 80.7578C701.721 81.1589 701.619 81.5029 701.491 81.79C701.364 82.0771 701.209 82.3096 701.026 82.4873C700.849 82.665 700.646 82.7949 700.418 82.877C700.195 82.959 699.944 83 699.666 83H699.099L699.078 81.3936L699.297 81.3662C699.411 81.3525 699.511 81.3115 699.598 81.2432C699.689 81.1748 699.766 81.0745 699.83 80.9424C699.894 80.8102 699.944 80.6416 699.98 80.4365C700.021 80.2314 700.053 79.9899 700.076 79.7119C700.099 79.4339 700.117 79.1149 700.131 78.7549L700.254 75.6035ZM709.831 81.2979V77.8799C709.831 77.6566 709.804 77.4788 709.749 77.3467C709.699 77.2145 709.621 77.1188 709.517 77.0596C709.416 76.9958 709.293 76.9639 709.147 76.9639C708.983 76.9639 708.847 76.998 708.737 77.0664C708.628 77.1348 708.546 77.2327 708.491 77.3604C708.441 77.488 708.416 77.6406 708.416 77.8184H706.495C706.495 77.4993 706.557 77.1986 706.68 76.916C706.803 76.6289 706.983 76.3783 707.22 76.1641C707.461 75.9453 707.748 75.7744 708.081 75.6514C708.414 75.5283 708.787 75.4668 709.202 75.4668C709.694 75.4668 710.132 75.5511 710.515 75.7197C710.897 75.8838 711.201 76.1458 711.424 76.5059C711.647 76.8659 711.759 77.333 711.759 77.9072V81.2021C711.759 81.6169 711.779 81.9541 711.82 82.2139C711.866 82.4736 711.932 82.6969 712.019 82.8838V83H710.091C710.004 82.7949 709.938 82.5397 709.893 82.2344C709.852 81.9245 709.831 81.6123 709.831 81.2979ZM710.063 78.4814L710.07 79.6299H709.366C709.184 79.6299 709.024 79.6595 708.888 79.7188C708.756 79.778 708.644 79.8623 708.553 79.9717C708.462 80.0765 708.393 80.1995 708.348 80.3408C708.307 80.4821 708.286 80.6325 708.286 80.792C708.286 80.9697 708.311 81.1201 708.361 81.2432C708.411 81.3662 708.487 81.4596 708.587 81.5234C708.687 81.5872 708.806 81.6191 708.942 81.6191C709.152 81.6191 709.334 81.5758 709.489 81.4893C709.644 81.4027 709.758 81.2979 709.831 81.1748C709.909 81.0518 709.934 80.9378 709.906 80.833L710.344 81.5781C710.289 81.7467 710.214 81.9222 710.118 82.1045C710.027 82.2868 709.911 82.4554 709.77 82.6104C709.628 82.7653 709.453 82.8929 709.243 82.9932C709.038 83.0889 708.794 83.1367 708.512 83.1367C708.115 83.1367 707.753 83.0456 707.425 82.8633C707.097 82.681 706.837 82.4258 706.646 82.0977C706.459 81.7695 706.365 81.3799 706.365 80.9287C706.365 80.555 706.424 80.2178 706.543 79.917C706.666 79.6117 706.848 79.3542 707.09 79.1445C707.331 78.9303 707.637 78.7663 708.006 78.6523C708.375 78.5384 708.808 78.4814 709.305 78.4814H710.063ZM716.476 75.6035V83H714.555V75.6035H716.476ZM718.376 75.6035V77.1826H712.661V75.6035H718.376ZM722.573 81.2979V77.8799C722.573 77.6566 722.546 77.4788 722.491 77.3467C722.441 77.2145 722.364 77.1188 722.259 77.0596C722.159 76.9958 722.035 76.9639 721.89 76.9639C721.726 76.9639 721.589 76.998 721.479 77.0664C721.37 77.1348 721.288 77.2327 721.233 77.3604C721.183 77.488 721.158 77.6406 721.158 77.8184H719.237C719.237 77.4993 719.299 77.1986 719.422 76.916C719.545 76.6289 719.725 76.3783 719.962 76.1641C720.203 75.9453 720.491 75.7744 720.823 75.6514C721.156 75.5283 721.53 75.4668 721.944 75.4668C722.437 75.4668 722.874 75.5511 723.257 75.7197C723.64 75.8838 723.943 76.1458 724.166 76.5059C724.389 76.8659 724.501 77.333 724.501 77.9072V81.2021C724.501 81.6169 724.521 81.9541 724.562 82.2139C724.608 82.4736 724.674 82.6969 724.761 82.8838V83H722.833C722.746 82.7949 722.68 82.5397 722.635 82.2344C722.594 81.9245 722.573 81.6123 722.573 81.2979ZM722.806 78.4814L722.812 79.6299H722.108C721.926 79.6299 721.767 79.6595 721.63 79.7188C721.498 79.778 721.386 79.8623 721.295 79.9717C721.204 80.0765 721.135 80.1995 721.09 80.3408C721.049 80.4821 721.028 80.6325 721.028 80.792C721.028 80.9697 721.053 81.1201 721.104 81.2432C721.154 81.3662 721.229 81.4596 721.329 81.5234C721.429 81.5872 721.548 81.6191 721.685 81.6191C721.894 81.6191 722.076 81.5758 722.231 81.4893C722.386 81.4027 722.5 81.2979 722.573 81.1748C722.651 81.0518 722.676 80.9378 722.648 80.833L723.086 81.5781C723.031 81.7467 722.956 81.9222 722.86 82.1045C722.769 82.2868 722.653 82.4554 722.512 82.6104C722.37 82.7653 722.195 82.8929 721.985 82.9932C721.78 83.0889 721.536 83.1367 721.254 83.1367C720.857 83.1367 720.495 83.0456 720.167 82.8633C719.839 82.681 719.579 82.4258 719.388 82.0977C719.201 81.7695 719.107 81.3799 719.107 80.9287C719.107 80.555 719.167 80.2178 719.285 79.917C719.408 79.6117 719.59 79.3542 719.832 79.1445C720.074 78.9303 720.379 78.7663 720.748 78.6523C721.117 78.5384 721.55 78.4814 722.047 78.4814H722.806Z" fill="#E0E0E9"/>
<path fill-rule="evenodd" clip-rule="evenodd" d="M704 33H79V31H704V33Z" fill="#D0CFD7"/>
<g filter="url(#filter0_d_363_3214)">
<path d="M69 17C60.7125 17 54 23.7125 54 32C54 34.8125 54.7875 37.475 56.175 39.725C57.497 41.9468 59.3748 43.7861 61.6236 45.0617C63.8724 46.3373 66.4146 47.0053 69 47C74.475 47 79.2375 44.075 81.825 39.725C83.2125 37.475 84 34.8125 84 32C84 23.7125 77.2875 17 69 17ZM76.3875 30.7625L68.4 38.15C67.875 38.6375 67.1625 38.9 66.4875 38.9C65.775 38.9 65.0625 38.6375 64.5 38.075L60.7875 34.3625C60.2644 33.8332 59.9711 33.1191 59.9711 32.375C59.9711 31.6309 60.2644 30.9168 60.7875 30.3875C61.875 29.3 63.675 29.3 64.7625 30.3875L66.5625 32.1875L72.5625 26.6375C73.6875 25.5875 75.4875 25.6625 76.5375 26.7875C77.5875 27.9125 77.5125 29.7125 76.3875 30.7625Z" fill="url(#paint1_linear_363_3214)"/>
</g>
<circle cx="390.5" cy="32.5" r="14.5" fill="#D0CFD7"/>
<circle cx="696.5" cy="32.5" r="14.5" fill="#D0CFD7"/>
<defs>
<filter id="filter0_d_363_3214" x="37" y="0" width="74" height="74" filterUnits="userSpaceOnUse" color-interpolation-filters="sRGB">
<feFlood flood-opacity="0" result="BackgroundImageFix"/>
<feColorMatrix in="SourceAlpha" type="matrix" values="0 0 0 0 0 0 0 0 0 0 0 0 0 0 0 0 0 0 127 0" result="hardAlpha"/>
<feOffset dx="5" dy="5"/>
<feGaussianBlur stdDeviation="11"/>
<feComposite in2="hardAlpha" operator="out"/>
<feColorMatrix type="matrix" values="0 0 0 0 0.0392157 0 0 0 0 0.560784 0 0 0 0 0.309804 0 0 0 0.2 0"/>
<feBlend mode="normal" in2="BackgroundImageFix" result="effect1_dropShadow_363_3214"/>
<feBlend mode="normal" in="SourceGraphic" in2="effect1_dropShadow_363_3214" result="shape"/>
</filter>
<linearGradient id="paint0_linear_363_3214" x1="68.5" y1="97" x2="68.5" y2="57" gradientUnits="userSpaceOnUse">
<stop stop-color="#5CCC94"/>
<stop offset="1" stop-color="#8CCAAE"/>
</linearGradient>
<linearGradient id="paint1_linear_363_3214" x1="69" y1="47" x2="69" y2="17" gradientUnits="userSpaceOnUse">
<stop stop-color="#5CCC94"/>
<stop offset="1" stop-color="#8CCAAE"/>
</linearGradient>
</defs>
</svg>
