<svg width="733" height="86" viewBox="0 0 733 86" fill="none" xmlns="http://www.w3.org/2000/svg">
<path d="M15.4189 62.0469H18.6113C19.2767 62.0469 19.8441 62.1608 20.3135 62.3887C20.7829 62.6165 21.1429 62.9538 21.3936 63.4004C21.6442 63.847 21.7695 64.3984 21.7695 65.0547C21.7695 65.5924 21.6966 66.0527 21.5508 66.4355C21.4049 66.8138 21.1976 67.1305 20.9287 67.3857C20.6598 67.6364 20.3385 67.8369 19.9648 67.9873L19.3564 68.3496H16.7656L16.7588 66.6885H18.5566C18.8301 66.6885 19.0557 66.6292 19.2334 66.5107C19.4157 66.3877 19.5501 66.2168 19.6367 65.998C19.7279 65.7747 19.7734 65.515 19.7734 65.2188C19.7734 64.9043 19.7324 64.6354 19.6504 64.4121C19.5729 64.1842 19.4476 64.0111 19.2744 63.8926C19.1058 63.7695 18.8848 63.708 18.6113 63.708H17.4219V72H15.4189V62.0469ZM19.9375 72L18.1123 67.5635L20.2109 67.5566L22.0771 71.9043V72H19.9375ZM26.0488 72.1367C25.543 72.1367 25.0941 72.0592 24.7021 71.9043C24.3148 71.7493 23.9867 71.526 23.7178 71.2344C23.4489 70.9382 23.2438 70.5804 23.1025 70.1611C22.9613 69.7419 22.8906 69.2633 22.8906 68.7256V68.1172C22.8906 67.5156 22.959 66.9893 23.0957 66.5381C23.2324 66.0824 23.4261 65.6995 23.6768 65.3896C23.9274 65.0798 24.235 64.8496 24.5996 64.6992C24.9688 64.5443 25.3857 64.4668 25.8506 64.4668C26.3154 64.4668 26.7233 64.5443 27.0742 64.6992C27.4297 64.8496 27.7236 65.0775 27.9561 65.3828C28.1885 65.6836 28.3639 66.0573 28.4824 66.5039C28.6009 66.9505 28.6602 67.4701 28.6602 68.0625V68.9375H23.7041V67.5908H26.7803V67.4199C26.7803 67.1191 26.7484 66.8685 26.6846 66.668C26.6208 66.4629 26.5205 66.3102 26.3838 66.21C26.2471 66.1097 26.0648 66.0596 25.8369 66.0596C25.6455 66.0596 25.4837 66.0983 25.3516 66.1758C25.2194 66.2533 25.1146 66.374 25.0371 66.5381C24.9596 66.7021 24.9027 66.9163 24.8662 67.1807C24.8298 67.4404 24.8115 67.7526 24.8115 68.1172V68.7256C24.8115 69.0674 24.8411 69.3545 24.9004 69.5869C24.9596 69.8148 25.0462 70.0016 25.1602 70.1475C25.2786 70.2887 25.4222 70.3913 25.5908 70.4551C25.7594 70.5143 25.9554 70.5439 26.1787 70.5439C26.516 70.5439 26.819 70.4847 27.0879 70.3662C27.3613 70.2432 27.5938 70.0768 27.7852 69.8672L28.5508 71.0293C28.4186 71.2025 28.2363 71.3757 28.0039 71.5488C27.7715 71.722 27.4935 71.8633 27.1699 71.9727C26.8464 72.082 26.4727 72.1367 26.0488 72.1367ZM33.6572 64.6035H35.3936V72C35.3936 72.6745 35.2637 73.2259 35.0039 73.6543C34.7487 74.0872 34.391 74.404 33.9307 74.6045C33.4749 74.8096 32.9417 74.9121 32.3311 74.9121C32.0986 74.9121 31.8366 74.8802 31.5449 74.8164C31.2578 74.7526 30.9798 74.6546 30.7109 74.5225C30.4421 74.3949 30.221 74.2399 30.0479 74.0576L30.6973 72.7314C30.875 72.9092 31.1074 73.0596 31.3945 73.1826C31.6816 73.3102 31.9642 73.374 32.2422 73.374C32.5111 73.374 32.7344 73.3307 32.9121 73.2441C33.0944 73.1621 33.2311 73.0208 33.3223 72.8203C33.418 72.6198 33.4658 72.3509 33.4658 72.0137V66.3193L33.6572 64.6035ZM29.5283 68.5615V68.0693C29.5283 67.4678 29.5853 66.9414 29.6992 66.4902C29.8132 66.0391 29.9772 65.6631 30.1914 65.3623C30.4056 65.0615 30.6676 64.8382 30.9775 64.6924C31.292 64.542 31.6429 64.4668 32.0303 64.4668C32.4359 64.4668 32.7754 64.5557 33.0488 64.7334C33.3223 64.9066 33.5433 65.1504 33.7119 65.4648C33.8851 65.7793 34.0173 66.1507 34.1084 66.5791C34.2041 67.0075 34.277 67.4769 34.3271 67.9873V68.6982C34.277 69.1813 34.195 69.6325 34.0811 70.0518C33.9717 70.471 33.8258 70.8356 33.6436 71.1455C33.4613 71.4554 33.238 71.6992 32.9736 71.877C32.7093 72.0501 32.3903 72.1367 32.0166 72.1367C31.6338 72.1367 31.2874 72.0592 30.9775 71.9043C30.6722 71.7493 30.4102 71.5215 30.1914 71.2207C29.9772 70.9154 29.8132 70.5417 29.6992 70.0996C29.5853 69.653 29.5283 69.1403 29.5283 68.5615ZM31.4492 68.0693V68.5615C31.4492 68.9079 31.4697 69.2064 31.5107 69.457C31.5563 69.7031 31.6247 69.9059 31.7158 70.0654C31.807 70.2204 31.9232 70.3366 32.0645 70.4141C32.2103 70.487 32.3812 70.5234 32.5771 70.5234C32.8551 70.5234 33.0762 70.4596 33.2402 70.332C33.4089 70.1999 33.5319 70.0199 33.6094 69.792C33.6914 69.5596 33.737 69.293 33.7461 68.9922V67.7002C33.7415 67.4495 33.7119 67.224 33.6572 67.0234C33.6071 66.8229 33.5365 66.652 33.4453 66.5107C33.3542 66.3695 33.2357 66.2601 33.0898 66.1826C32.9486 66.1051 32.7822 66.0664 32.5908 66.0664C32.3949 66.0664 32.2262 66.1051 32.085 66.1826C31.9437 66.2601 31.8252 66.3809 31.7295 66.5449C31.6383 66.7044 31.5677 66.9118 31.5176 67.167C31.472 67.4176 31.4492 67.7184 31.4492 68.0693ZM38.832 64.6035V72H36.9111V64.6035H38.832ZM36.8223 62.6895C36.8223 62.3932 36.9157 62.1494 37.1025 61.958C37.2939 61.762 37.5492 61.6641 37.8682 61.6641C38.1917 61.6641 38.4469 61.762 38.6338 61.958C38.8206 62.1494 38.9141 62.3932 38.9141 62.6895C38.9141 62.9811 38.8184 63.2249 38.627 63.4209C38.4401 63.6123 38.1895 63.708 37.875 63.708C37.5514 63.708 37.2939 63.6123 37.1025 63.4209C36.9157 63.2249 36.8223 62.9811 36.8223 62.6895ZM43.6309 70.0039C43.6309 69.8763 43.5876 69.7624 43.501 69.6621C43.4144 69.5618 43.2777 69.4593 43.0908 69.3545C42.904 69.2451 42.6556 69.1243 42.3457 68.9922C42.0085 68.8555 41.71 68.7142 41.4502 68.5684C41.1904 68.4225 40.9694 68.2607 40.7871 68.083C40.6094 67.9053 40.4749 67.7025 40.3838 67.4746C40.2926 67.2467 40.2471 66.987 40.2471 66.6953C40.2471 66.3809 40.304 66.0915 40.418 65.8271C40.5365 65.5583 40.7051 65.3236 40.9238 65.123C41.1426 64.918 41.4092 64.7585 41.7236 64.6445C42.0426 64.526 42.4004 64.4668 42.7969 64.4668C43.3529 64.4668 43.8291 64.5648 44.2256 64.7607C44.6266 64.9521 44.9342 65.221 45.1484 65.5674C45.3626 65.9137 45.4697 66.3171 45.4697 66.7773H43.5557C43.5557 66.6133 43.5306 66.4674 43.4805 66.3398C43.4303 66.2077 43.3483 66.1051 43.2344 66.0322C43.125 65.9593 42.9769 65.9229 42.79 65.9229C42.6533 65.9229 42.5303 65.9525 42.4209 66.0117C42.3161 66.071 42.2318 66.1507 42.168 66.251C42.1087 66.3467 42.0791 66.4606 42.0791 66.5928C42.0791 66.693 42.0996 66.7819 42.1406 66.8594C42.1862 66.9368 42.2568 67.012 42.3525 67.085C42.4482 67.1579 42.5758 67.2354 42.7354 67.3174C42.8994 67.3949 43.0999 67.4814 43.3369 67.5771C43.8291 67.7594 44.2324 67.9554 44.5469 68.165C44.8659 68.3747 45.1029 68.6208 45.2578 68.9033C45.4128 69.1813 45.4902 69.5254 45.4902 69.9355C45.4902 70.2637 45.4264 70.5622 45.2988 70.8311C45.1758 71.0999 44.9958 71.3324 44.7588 71.5283C44.5218 71.7243 44.237 71.8747 43.9043 71.9795C43.5762 72.0843 43.2093 72.1367 42.8037 72.1367C42.2067 72.1367 41.7031 72.0182 41.293 71.7812C40.8828 71.5443 40.5729 71.2412 40.3633 70.8721C40.1536 70.4984 40.0488 70.111 40.0488 69.71H41.8672C41.8763 69.9561 41.9219 70.1497 42.0039 70.291C42.0905 70.4277 42.2067 70.5234 42.3525 70.5781C42.4984 70.6328 42.6602 70.6602 42.8379 70.6602C43.0156 70.6602 43.1615 70.6374 43.2754 70.5918C43.3939 70.5417 43.4827 70.4665 43.542 70.3662C43.6012 70.2614 43.6309 70.1406 43.6309 70.0039ZM49.9336 64.6035V66.0459H46.1602V64.6035H49.9336ZM47.0283 62.7783H48.9355V69.7441C48.9355 69.9492 48.9561 70.1064 48.9971 70.2158C49.0381 70.3252 49.0996 70.4027 49.1816 70.4482C49.2682 70.4893 49.3822 70.5098 49.5234 70.5098C49.6191 70.5098 49.708 70.5052 49.79 70.4961C49.8721 70.4824 49.9336 70.4688 49.9746 70.4551V71.9521C49.8242 72.0114 49.6647 72.057 49.4961 72.0889C49.332 72.1208 49.1361 72.1367 48.9082 72.1367C48.5254 72.1367 48.1927 72.0638 47.9102 71.918C47.6322 71.7721 47.4157 71.5397 47.2607 71.2207C47.1058 70.8971 47.0283 70.4733 47.0283 69.9492V62.7783ZM54.2607 70.2979V66.8799C54.2607 66.6566 54.2334 66.4788 54.1787 66.3467C54.1286 66.2145 54.0511 66.1188 53.9463 66.0596C53.846 65.9958 53.723 65.9639 53.5771 65.9639C53.4131 65.9639 53.2764 65.998 53.167 66.0664C53.0576 66.1348 52.9756 66.2327 52.9209 66.3604C52.8708 66.488 52.8457 66.6406 52.8457 66.8184H50.9248C50.9248 66.4993 50.9863 66.1986 51.1094 65.916C51.2324 65.6289 51.4124 65.3783 51.6494 65.1641C51.891 64.9453 52.1781 64.7744 52.5107 64.6514C52.8434 64.5283 53.2171 64.4668 53.6318 64.4668C54.124 64.4668 54.5615 64.5511 54.9443 64.7197C55.3271 64.8838 55.6302 65.1458 55.8535 65.5059C56.0768 65.8659 56.1885 66.333 56.1885 66.9072V70.2021C56.1885 70.6169 56.209 70.9541 56.25 71.2139C56.2956 71.4736 56.3617 71.6969 56.4482 71.8838V72H54.5205C54.4339 71.7949 54.3678 71.5397 54.3223 71.2344C54.2812 70.9245 54.2607 70.6123 54.2607 70.2979ZM54.4932 67.4814L54.5 68.6299H53.7959C53.6136 68.6299 53.4541 68.6595 53.3174 68.7188C53.1852 68.778 53.0736 68.8623 52.9824 68.9717C52.8913 69.0765 52.8229 69.1995 52.7773 69.3408C52.7363 69.4821 52.7158 69.6325 52.7158 69.792C52.7158 69.9697 52.7409 70.1201 52.791 70.2432C52.8411 70.3662 52.9163 70.4596 53.0166 70.5234C53.1169 70.5872 53.2354 70.6191 53.3721 70.6191C53.5817 70.6191 53.764 70.5758 53.9189 70.4893C54.0739 70.4027 54.1878 70.2979 54.2607 70.1748C54.3382 70.0518 54.3633 69.9378 54.3359 69.833L54.7734 70.5781C54.7188 70.7467 54.6436 70.9222 54.5479 71.1045C54.4567 71.2868 54.3405 71.4554 54.1992 71.6104C54.0579 71.7653 53.8825 71.8929 53.6729 71.9932C53.4678 72.0889 53.224 72.1367 52.9414 72.1367C52.5449 72.1367 52.1826 72.0456 51.8545 71.8633C51.5264 71.681 51.2666 71.4258 51.0752 71.0977C50.8883 70.7695 50.7949 70.3799 50.7949 69.9287C50.7949 69.555 50.8542 69.2178 50.9727 68.917C51.0957 68.6117 51.278 68.3542 51.5195 68.1445C51.7611 67.9303 52.0664 67.7663 52.4355 67.6523C52.8047 67.5384 53.2376 67.4814 53.7344 67.4814H54.4932ZM59.5176 66.251V72H57.6035V64.6035H59.4082L59.5176 66.251ZM61.2607 64.5488L61.2334 66.4561C61.1468 66.4378 61.042 66.4242 60.9189 66.415C60.8005 66.4059 60.6956 66.4014 60.6045 66.4014C60.3903 66.4014 60.208 66.4355 60.0576 66.5039C59.9072 66.5677 59.7819 66.6657 59.6816 66.7979C59.5859 66.9255 59.513 67.085 59.4629 67.2764C59.4128 67.4678 59.3831 67.6842 59.374 67.9258L59.0117 67.7891C59.0117 67.306 59.0482 66.8639 59.1211 66.4629C59.1986 66.0573 59.3125 65.7064 59.4629 65.4102C59.6133 65.1094 59.7933 64.877 60.0029 64.7129C60.2171 64.5488 60.4587 64.4668 60.7275 64.4668C60.8187 64.4668 60.9144 64.4759 61.0146 64.4941C61.1195 64.5078 61.2015 64.526 61.2607 64.5488ZM65.5195 70.0039C65.5195 69.8763 65.4762 69.7624 65.3896 69.6621C65.3031 69.5618 65.1663 69.4593 64.9795 69.3545C64.7926 69.2451 64.5443 69.1243 64.2344 68.9922C63.8971 68.8555 63.5986 68.7142 63.3389 68.5684C63.0791 68.4225 62.8581 68.2607 62.6758 68.083C62.498 67.9053 62.3636 67.7025 62.2725 67.4746C62.1813 67.2467 62.1357 66.987 62.1357 66.6953C62.1357 66.3809 62.1927 66.0915 62.3066 65.8271C62.4251 65.5583 62.5938 65.3236 62.8125 65.123C63.0312 64.918 63.2979 64.7585 63.6123 64.6445C63.9313 64.526 64.2891 64.4668 64.6855 64.4668C65.2415 64.4668 65.7178 64.5648 66.1143 64.7607C66.5153 64.9521 66.8229 65.221 67.0371 65.5674C67.2513 65.9137 67.3584 66.3171 67.3584 66.7773H65.4443C65.4443 66.6133 65.4193 66.4674 65.3691 66.3398C65.319 66.2077 65.237 66.1051 65.123 66.0322C65.0137 65.9593 64.8656 65.9229 64.6787 65.9229C64.542 65.9229 64.4189 65.9525 64.3096 66.0117C64.2048 66.071 64.1204 66.1507 64.0566 66.251C63.9974 66.3467 63.9678 66.4606 63.9678 66.5928C63.9678 66.693 63.9883 66.7819 64.0293 66.8594C64.0749 66.9368 64.1455 67.012 64.2412 67.085C64.3369 67.1579 64.4645 67.2354 64.624 67.3174C64.7881 67.3949 64.9886 67.4814 65.2256 67.5771C65.7178 67.7594 66.1211 67.9554 66.4355 68.165C66.7546 68.3747 66.9915 68.6208 67.1465 68.9033C67.3014 69.1813 67.3789 69.5254 67.3789 69.9355C67.3789 70.2637 67.3151 70.5622 67.1875 70.8311C67.0645 71.0999 66.8844 71.3324 66.6475 71.5283C66.4105 71.7243 66.1257 71.8747 65.793 71.9795C65.4648 72.0843 65.098 72.1367 64.6924 72.1367C64.0954 72.1367 63.5918 72.0182 63.1816 71.7812C62.7715 71.5443 62.4616 71.2412 62.252 70.8721C62.0423 70.4984 61.9375 70.111 61.9375 69.71H63.7559C63.765 69.9561 63.8105 70.1497 63.8926 70.291C63.9792 70.4277 64.0954 70.5234 64.2412 70.5781C64.387 70.6328 64.5488 70.6602 64.7266 70.6602C64.9043 70.6602 65.0501 70.6374 65.1641 70.5918C65.2826 70.5417 65.3714 70.4665 65.4307 70.3662C65.4899 70.2614 65.5195 70.1406 65.5195 70.0039ZM70.5098 61.4932V72H68.5957V61.4932H70.5098ZM74.3994 64.6035L71.7949 68.2812L70.2295 70.0381L69.5527 68.582L70.7559 66.8252L72.1162 64.6035H74.3994ZM72.4033 72L70.79 68.6025L72.1094 67.3857L74.5977 72H72.4033ZM78.1387 72.1367C77.6328 72.1367 77.1839 72.0592 76.792 71.9043C76.4046 71.7493 76.0765 71.526 75.8076 71.2344C75.5387 70.9382 75.3337 70.5804 75.1924 70.1611C75.0511 69.7419 74.9805 69.2633 74.9805 68.7256V68.1172C74.9805 67.5156 75.0488 66.9893 75.1855 66.5381C75.3223 66.0824 75.516 65.6995 75.7666 65.3896C76.0173 65.0798 76.3249 64.8496 76.6895 64.6992C77.0586 64.5443 77.4756 64.4668 77.9404 64.4668C78.4053 64.4668 78.8132 64.5443 79.1641 64.6992C79.5195 64.8496 79.8135 65.0775 80.0459 65.3828C80.2783 65.6836 80.4538 66.0573 80.5723 66.5039C80.6908 66.9505 80.75 67.4701 80.75 68.0625V68.9375H75.7939V67.5908H78.8701V67.4199C78.8701 67.1191 78.8382 66.8685 78.7744 66.668C78.7106 66.4629 78.6104 66.3102 78.4736 66.21C78.3369 66.1097 78.1546 66.0596 77.9268 66.0596C77.7354 66.0596 77.5736 66.0983 77.4414 66.1758C77.3092 66.2533 77.2044 66.374 77.127 66.5381C77.0495 66.7021 76.9925 66.9163 76.9561 67.1807C76.9196 67.4404 76.9014 67.7526 76.9014 68.1172V68.7256C76.9014 69.0674 76.931 69.3545 76.9902 69.5869C77.0495 69.8148 77.1361 70.0016 77.25 70.1475C77.3685 70.2887 77.512 70.3913 77.6807 70.4551C77.8493 70.5143 78.0452 70.5439 78.2686 70.5439C78.6058 70.5439 78.9089 70.4847 79.1777 70.3662C79.4512 70.2432 79.6836 70.0768 79.875 69.8672L80.6406 71.0293C80.5085 71.2025 80.3262 71.3757 80.0938 71.5488C79.8613 71.722 79.5833 71.8633 79.2598 71.9727C78.9362 72.082 78.5625 72.1367 78.1387 72.1367ZM88.3105 64.6035V66.0459H84.5371V64.6035H88.3105ZM85.4053 62.7783H87.3125V69.7441C87.3125 69.9492 87.333 70.1064 87.374 70.2158C87.415 70.3252 87.4766 70.4027 87.5586 70.4482C87.6452 70.4893 87.7591 70.5098 87.9004 70.5098C87.9961 70.5098 88.085 70.5052 88.167 70.4961C88.249 70.4824 88.3105 70.4688 88.3516 70.4551V71.9521C88.2012 72.0114 88.0417 72.057 87.873 72.0889C87.709 72.1208 87.513 72.1367 87.2852 72.1367C86.9023 72.1367 86.5697 72.0638 86.2871 71.918C86.0091 71.7721 85.7926 71.5397 85.6377 71.2207C85.4827 70.8971 85.4053 70.4733 85.4053 69.9492V62.7783ZM92.6377 70.2979V66.8799C92.6377 66.6566 92.6104 66.4788 92.5557 66.3467C92.5055 66.2145 92.4281 66.1188 92.3232 66.0596C92.223 65.9958 92.0999 65.9639 91.9541 65.9639C91.79 65.9639 91.6533 65.998 91.5439 66.0664C91.4346 66.1348 91.3525 66.2327 91.2979 66.3604C91.2477 66.488 91.2227 66.6406 91.2227 66.8184H89.3018C89.3018 66.4993 89.3633 66.1986 89.4863 65.916C89.6094 65.6289 89.7894 65.3783 90.0264 65.1641C90.2679 64.9453 90.555 64.7744 90.8877 64.6514C91.2204 64.5283 91.5941 64.4668 92.0088 64.4668C92.501 64.4668 92.9385 64.5511 93.3213 64.7197C93.7041 64.8838 94.0072 65.1458 94.2305 65.5059C94.4538 65.8659 94.5654 66.333 94.5654 66.9072V70.2021C94.5654 70.6169 94.5859 70.9541 94.627 71.2139C94.6725 71.4736 94.7386 71.6969 94.8252 71.8838V72H92.8975C92.8109 71.7949 92.7448 71.5397 92.6992 71.2344C92.6582 70.9245 92.6377 70.6123 92.6377 70.2979ZM92.8701 67.4814L92.877 68.6299H92.1729C91.9906 68.6299 91.8311 68.6595 91.6943 68.7188C91.5622 68.778 91.4505 68.8623 91.3594 68.9717C91.2682 69.0765 91.1999 69.1995 91.1543 69.3408C91.1133 69.4821 91.0928 69.6325 91.0928 69.792C91.0928 69.9697 91.1178 70.1201 91.168 70.2432C91.2181 70.3662 91.2933 70.4596 91.3936 70.5234C91.4938 70.5872 91.6123 70.6191 91.749 70.6191C91.9587 70.6191 92.141 70.5758 92.2959 70.4893C92.4508 70.4027 92.5648 70.2979 92.6377 70.1748C92.7152 70.0518 92.7402 69.9378 92.7129 69.833L93.1504 70.5781C93.0957 70.7467 93.0205 70.9222 92.9248 71.1045C92.8337 71.2868 92.7174 71.4554 92.5762 71.6104C92.4349 71.7653 92.2594 71.8929 92.0498 71.9932C91.8447 72.0889 91.6009 72.1367 91.3184 72.1367C90.9219 72.1367 90.5596 72.0456 90.2314 71.8633C89.9033 71.681 89.6436 71.4258 89.4521 71.0977C89.2653 70.7695 89.1719 70.3799 89.1719 69.9287C89.1719 69.555 89.2311 69.2178 89.3496 68.917C89.4727 68.6117 89.6549 68.3542 89.8965 68.1445C90.138 67.9303 90.4434 67.7663 90.8125 67.6523C91.1816 67.5384 91.6146 67.4814 92.1113 67.4814H92.8701ZM95.9873 61.5H97.8945V70.2842L97.7578 72H95.9873V61.5ZM101.736 68.0557V68.541C101.736 69.1426 101.688 69.6667 101.593 70.1133C101.502 70.5599 101.358 70.9336 101.162 71.2344C100.971 71.5352 100.725 71.7607 100.424 71.9111C100.123 72.0615 99.7676 72.1367 99.3574 72.1367C98.9883 72.1367 98.6715 72.0501 98.4072 71.877C98.1429 71.6992 97.9196 71.4554 97.7373 71.1455C97.5596 70.8311 97.4137 70.4642 97.2998 70.0449C97.1904 69.6211 97.1107 69.1585 97.0605 68.6572V67.9395C97.1061 67.4473 97.1836 66.9893 97.293 66.5654C97.4069 66.1416 97.5527 65.7747 97.7305 65.4648C97.9082 65.1504 98.1292 64.9066 98.3936 64.7334C98.6624 64.5557 98.9792 64.4668 99.3438 64.4668C99.763 64.4668 100.123 64.5443 100.424 64.6992C100.725 64.8496 100.971 65.0752 101.162 65.376C101.358 65.6768 101.502 66.0527 101.593 66.5039C101.688 66.9505 101.736 67.4678 101.736 68.0557ZM99.8291 68.541V68.0557C99.8291 67.7139 99.8154 67.4199 99.7881 67.1738C99.7607 66.9277 99.7106 66.7227 99.6377 66.5586C99.5648 66.3945 99.46 66.2715 99.3232 66.1895C99.1911 66.1074 99.0156 66.0664 98.7969 66.0664C98.6009 66.0664 98.4368 66.1051 98.3047 66.1826C98.1725 66.2555 98.0586 66.3649 97.9629 66.5107C97.8717 66.652 97.8034 66.8206 97.7578 67.0166C97.7168 67.208 97.694 67.4199 97.6895 67.6523V68.9443C97.694 69.2588 97.7327 69.5368 97.8057 69.7783C97.8786 70.0199 97.9948 70.2067 98.1543 70.3389C98.3184 70.471 98.5371 70.5371 98.8105 70.5371C99.0247 70.5371 99.1979 70.5007 99.3301 70.4277C99.4622 70.3548 99.5648 70.2386 99.6377 70.0791C99.7152 69.9196 99.7653 69.7145 99.7881 69.4639C99.8154 69.2087 99.8291 68.901 99.8291 68.541ZM104.922 61.5V72H103.001V61.5H104.922ZM108.449 64.6035V72H106.528V64.6035H108.449ZM106.439 62.6895C106.439 62.3932 106.533 62.1494 106.72 61.958C106.911 61.762 107.166 61.6641 107.485 61.6641C107.809 61.6641 108.064 61.762 108.251 61.958C108.438 62.1494 108.531 62.3932 108.531 62.6895C108.531 62.9811 108.436 63.2249 108.244 63.4209C108.057 63.6123 107.807 63.708 107.492 63.708C107.169 63.708 106.911 63.6123 106.72 63.4209C106.533 63.2249 106.439 62.9811 106.439 62.6895ZM112.64 70.5439C112.817 70.5439 112.97 70.5075 113.098 70.4346C113.23 70.3617 113.33 70.2432 113.398 70.0791C113.467 69.915 113.503 69.7031 113.508 69.4434H115.306C115.306 69.9993 115.187 70.4801 114.95 70.8857C114.718 71.2868 114.403 71.5967 114.007 71.8154C113.615 72.0296 113.171 72.1367 112.674 72.1367C112.177 72.1367 111.744 72.057 111.375 71.8975C111.006 71.738 110.701 71.5055 110.459 71.2002C110.222 70.8949 110.042 70.5234 109.919 70.0859C109.8 69.6439 109.741 69.138 109.741 68.5684V68.0283C109.741 67.4678 109.8 66.9665 109.919 66.5244C110.042 66.0824 110.222 65.7087 110.459 65.4033C110.701 65.098 111.004 64.8656 111.368 64.7061C111.737 64.5465 112.17 64.4668 112.667 64.4668C113.2 64.4668 113.663 64.5785 114.055 64.8018C114.447 65.0205 114.752 65.3441 114.971 65.7725C115.194 66.2008 115.306 66.7295 115.306 67.3584H113.508C113.503 67.0758 113.469 66.8411 113.405 66.6543C113.346 66.4629 113.253 66.3171 113.125 66.2168C113.002 66.112 112.838 66.0596 112.633 66.0596C112.419 66.0596 112.245 66.1051 112.113 66.1963C111.986 66.2829 111.888 66.4105 111.819 66.5791C111.756 66.7432 111.712 66.9482 111.689 67.1943C111.667 67.4404 111.655 67.7184 111.655 68.0283V68.5684C111.655 68.901 111.664 69.1904 111.683 69.4365C111.705 69.6781 111.749 69.8831 111.812 70.0518C111.881 70.2158 111.979 70.3389 112.106 70.4209C112.239 70.5029 112.416 70.5439 112.64 70.5439ZM119.387 72.1367C118.881 72.1367 118.432 72.0592 118.04 71.9043C117.653 71.7493 117.325 71.526 117.056 71.2344C116.787 70.9382 116.582 70.5804 116.44 70.1611C116.299 69.7419 116.229 69.2633 116.229 68.7256V68.1172C116.229 67.5156 116.297 66.9893 116.434 66.5381C116.57 66.0824 116.764 65.6995 117.015 65.3896C117.265 65.0798 117.573 64.8496 117.938 64.6992C118.307 64.5443 118.724 64.4668 119.188 64.4668C119.653 64.4668 120.061 64.5443 120.412 64.6992C120.768 64.8496 121.062 65.0775 121.294 65.3828C121.526 65.6836 121.702 66.0573 121.82 66.5039C121.939 66.9505 121.998 67.4701 121.998 68.0625V68.9375H117.042V67.5908H120.118V67.4199C120.118 67.1191 120.086 66.8685 120.022 66.668C119.959 66.4629 119.858 66.3102 119.722 66.21C119.585 66.1097 119.403 66.0596 119.175 66.0596C118.983 66.0596 118.822 66.0983 118.689 66.1758C118.557 66.2533 118.452 66.374 118.375 66.5381C118.298 66.7021 118.241 66.9163 118.204 67.1807C118.168 67.4404 118.149 67.7526 118.149 68.1172V68.7256C118.149 69.0674 118.179 69.3545 118.238 69.5869C118.298 69.8148 118.384 70.0016 118.498 70.1475C118.617 70.2887 118.76 70.3913 118.929 70.4551C119.097 70.5143 119.293 70.5439 119.517 70.5439C119.854 70.5439 120.157 70.4847 120.426 70.3662C120.699 70.2432 120.932 70.0768 121.123 69.8672L121.889 71.0293C121.757 71.2025 121.574 71.3757 121.342 71.5488C121.109 71.722 120.831 71.8633 120.508 71.9727C120.184 72.082 119.811 72.1367 119.387 72.1367Z" fill="url(#paint0_linear_363_3150)"/>
<path d="M378.15 62.0469V72H376.216L373.092 65.7725V72H371.191V62.0469H373.099L376.25 68.3428V62.0469H378.15ZM382.929 70.2979V66.8799C382.929 66.6566 382.901 66.4788 382.847 66.3467C382.797 66.2145 382.719 66.1188 382.614 66.0596C382.514 65.9958 382.391 65.9639 382.245 65.9639C382.081 65.9639 381.944 65.998 381.835 66.0664C381.726 66.1348 381.644 66.2327 381.589 66.3604C381.539 66.488 381.514 66.6406 381.514 66.8184H379.593C379.593 66.4993 379.654 66.1986 379.777 65.916C379.9 65.6289 380.08 65.3783 380.317 65.1641C380.559 64.9453 380.846 64.7744 381.179 64.6514C381.511 64.5283 381.885 64.4668 382.3 64.4668C382.792 64.4668 383.229 64.5511 383.612 64.7197C383.995 64.8838 384.298 65.1458 384.521 65.5059C384.745 65.8659 384.856 66.333 384.856 66.9072V70.2021C384.856 70.6169 384.877 70.9541 384.918 71.2139C384.964 71.4736 385.03 71.6969 385.116 71.8838V72H383.188C383.102 71.7949 383.036 71.5397 382.99 71.2344C382.949 70.9245 382.929 70.6123 382.929 70.2979ZM383.161 67.4814L383.168 68.6299H382.464C382.282 68.6299 382.122 68.6595 381.985 68.7188C381.853 68.778 381.742 68.8623 381.65 68.9717C381.559 69.0765 381.491 69.1995 381.445 69.3408C381.404 69.4821 381.384 69.6325 381.384 69.792C381.384 69.9697 381.409 70.1201 381.459 70.2432C381.509 70.3662 381.584 70.4596 381.685 70.5234C381.785 70.5872 381.903 70.6191 382.04 70.6191C382.25 70.6191 382.432 70.5758 382.587 70.4893C382.742 70.4027 382.856 70.2979 382.929 70.1748C383.006 70.0518 383.031 69.9378 383.004 69.833L383.441 70.5781C383.387 70.7467 383.312 70.9222 383.216 71.1045C383.125 71.2868 383.008 71.4554 382.867 71.6104C382.726 71.7653 382.55 71.8929 382.341 71.9932C382.136 72.0889 381.892 72.1367 381.609 72.1367C381.213 72.1367 380.851 72.0456 380.522 71.8633C380.194 71.681 379.935 71.4258 379.743 71.0977C379.556 70.7695 379.463 70.3799 379.463 69.9287C379.463 69.555 379.522 69.2178 379.641 68.917C379.764 68.6117 379.946 68.3542 380.188 68.1445C380.429 67.9303 380.734 67.7663 381.104 67.6523C381.473 67.5384 381.906 67.4814 382.402 67.4814H383.161ZM388.186 66.0254V74.8438H386.278V64.6035H388.042L388.186 66.0254ZM392.027 68.0488V68.541C392.027 69.1198 391.977 69.6325 391.877 70.0791C391.777 70.5212 391.626 70.8971 391.426 71.207C391.23 71.5124 390.984 71.7448 390.688 71.9043C390.391 72.0592 390.045 72.1367 389.648 72.1367C389.279 72.1367 388.96 72.0501 388.691 71.877C388.427 71.6992 388.204 71.4554 388.021 71.1455C387.839 70.8356 387.693 70.4733 387.584 70.0586C387.475 69.6439 387.39 69.1995 387.331 68.7256V67.96C387.386 67.4541 387.465 66.9893 387.57 66.5654C387.675 66.137 387.819 65.7656 388.001 65.4512C388.188 65.1367 388.413 64.8952 388.678 64.7266C388.947 64.5534 389.266 64.4668 389.635 64.4668C390.036 64.4668 390.384 64.5397 390.681 64.6855C390.981 64.8314 391.23 65.0524 391.426 65.3486C391.626 65.6403 391.777 66.0117 391.877 66.4629C391.977 66.9141 392.027 67.4427 392.027 68.0488ZM390.113 68.541V68.0488C390.113 67.6934 390.093 67.3903 390.052 67.1396C390.015 66.889 389.956 66.6839 389.874 66.5244C389.792 66.3649 389.685 66.2487 389.553 66.1758C389.421 66.1029 389.259 66.0664 389.067 66.0664C388.881 66.0664 388.716 66.1029 388.575 66.1758C388.438 66.2487 388.327 66.3558 388.24 66.4971C388.154 66.6338 388.088 66.8024 388.042 67.0029C387.996 67.1989 387.971 67.4222 387.967 67.6729V69.0127C387.976 69.3089 388.015 69.571 388.083 69.7988C388.156 70.0267 388.272 70.209 388.432 70.3457C388.591 70.4779 388.808 70.5439 389.081 70.5439C389.277 70.5439 389.439 70.5029 389.566 70.4209C389.699 70.3389 389.806 70.2158 389.888 70.0518C389.97 69.8877 390.027 69.6803 390.059 69.4297C390.095 69.179 390.113 68.8828 390.113 68.541ZM395.213 61.5V72H393.292V61.5H395.213ZM399.991 70.2979V66.8799C399.991 66.6566 399.964 66.4788 399.909 66.3467C399.859 66.2145 399.782 66.1188 399.677 66.0596C399.576 65.9958 399.453 65.9639 399.308 65.9639C399.144 65.9639 399.007 65.998 398.897 66.0664C398.788 66.1348 398.706 66.2327 398.651 66.3604C398.601 66.488 398.576 66.6406 398.576 66.8184H396.655C396.655 66.4993 396.717 66.1986 396.84 65.916C396.963 65.6289 397.143 65.3783 397.38 65.1641C397.621 64.9453 397.909 64.7744 398.241 64.6514C398.574 64.5283 398.948 64.4668 399.362 64.4668C399.854 64.4668 400.292 64.5511 400.675 64.7197C401.058 64.8838 401.361 65.1458 401.584 65.5059C401.807 65.8659 401.919 66.333 401.919 66.9072V70.2021C401.919 70.6169 401.939 70.9541 401.98 71.2139C402.026 71.4736 402.092 71.6969 402.179 71.8838V72H400.251C400.164 71.7949 400.098 71.5397 400.053 71.2344C400.012 70.9245 399.991 70.6123 399.991 70.2979ZM400.224 67.4814L400.23 68.6299H399.526C399.344 68.6299 399.185 68.6595 399.048 68.7188C398.916 68.778 398.804 68.8623 398.713 68.9717C398.622 69.0765 398.553 69.1995 398.508 69.3408C398.467 69.4821 398.446 69.6325 398.446 69.792C398.446 69.9697 398.471 70.1201 398.521 70.2432C398.572 70.3662 398.647 70.4596 398.747 70.5234C398.847 70.5872 398.966 70.6191 399.103 70.6191C399.312 70.6191 399.494 70.5758 399.649 70.4893C399.804 70.4027 399.918 70.2979 399.991 70.1748C400.069 70.0518 400.094 69.9378 400.066 69.833L400.504 70.5781C400.449 70.7467 400.374 70.9222 400.278 71.1045C400.187 71.2868 400.071 71.4554 399.93 71.6104C399.788 71.7653 399.613 71.8929 399.403 71.9932C399.198 72.0889 398.954 72.1367 398.672 72.1367C398.275 72.1367 397.913 72.0456 397.585 71.8633C397.257 71.681 396.997 71.4258 396.806 71.0977C396.619 70.7695 396.525 70.3799 396.525 69.9287C396.525 69.555 396.585 69.2178 396.703 68.917C396.826 68.6117 397.008 68.3542 397.25 68.1445C397.492 67.9303 397.797 67.7663 398.166 67.6523C398.535 67.5384 398.968 67.4814 399.465 67.4814H400.224ZM406.561 64.6035V66.0459H402.787V64.6035H406.561ZM403.655 62.7783H405.562V69.7441C405.562 69.9492 405.583 70.1064 405.624 70.2158C405.665 70.3252 405.727 70.4027 405.809 70.4482C405.895 70.4893 406.009 70.5098 406.15 70.5098C406.246 70.5098 406.335 70.5052 406.417 70.4961C406.499 70.4824 406.561 70.4688 406.602 70.4551V71.9521C406.451 72.0114 406.292 72.057 406.123 72.0889C405.959 72.1208 405.763 72.1367 405.535 72.1367C405.152 72.1367 404.82 72.0638 404.537 71.918C404.259 71.7721 404.043 71.5397 403.888 71.2207C403.733 70.8971 403.655 70.4733 403.655 69.9492V62.7783ZM410.607 72.1367C410.102 72.1367 409.653 72.0592 409.261 71.9043C408.873 71.7493 408.545 71.526 408.276 71.2344C408.007 70.9382 407.802 70.5804 407.661 70.1611C407.52 69.7419 407.449 69.2633 407.449 68.7256V68.1172C407.449 67.5156 407.518 66.9893 407.654 66.5381C407.791 66.0824 407.985 65.6995 408.235 65.3896C408.486 65.0798 408.794 64.8496 409.158 64.6992C409.527 64.5443 409.944 64.4668 410.409 64.4668C410.874 64.4668 411.282 64.5443 411.633 64.6992C411.988 64.8496 412.282 65.0775 412.515 65.3828C412.747 65.6836 412.923 66.0573 413.041 66.5039C413.16 66.9505 413.219 67.4701 413.219 68.0625V68.9375H408.263V67.5908H411.339V67.4199C411.339 67.1191 411.307 66.8685 411.243 66.668C411.179 66.4629 411.079 66.3102 410.942 66.21C410.806 66.1097 410.623 66.0596 410.396 66.0596C410.204 66.0596 410.042 66.0983 409.91 66.1758C409.778 66.2533 409.673 66.374 409.596 66.5381C409.518 66.7021 409.461 66.9163 409.425 67.1807C409.388 67.4404 409.37 67.7526 409.37 68.1172V68.7256C409.37 69.0674 409.4 69.3545 409.459 69.5869C409.518 69.8148 409.605 70.0016 409.719 70.1475C409.837 70.2887 409.981 70.3913 410.149 70.4551C410.318 70.5143 410.514 70.5439 410.737 70.5439C411.075 70.5439 411.378 70.4847 411.646 70.3662C411.92 70.2432 412.152 70.0768 412.344 69.8672L413.109 71.0293C412.977 71.2025 412.795 71.3757 412.562 71.5488C412.33 71.722 412.052 71.8633 411.729 71.9727C411.405 72.082 411.031 72.1367 410.607 72.1367Z" fill="url(#paint1_linear_363_3150)"/>
<path d="M665.732 66.874L667.619 59.0469H669.779L666.895 69H665.438L665.732 66.874ZM664.119 59.0469L665.999 66.874L666.307 69H664.844L661.979 59.0469H664.119ZM673.313 69.1367C672.808 69.1367 672.359 69.0592 671.967 68.9043C671.579 68.7493 671.251 68.526 670.982 68.2344C670.714 67.9382 670.508 67.5804 670.367 67.1611C670.226 66.7419 670.155 66.2633 670.155 65.7256V65.1172C670.155 64.5156 670.224 63.9893 670.36 63.5381C670.497 63.0824 670.691 62.6995 670.941 62.3896C671.192 62.0798 671.5 61.8496 671.864 61.6992C672.233 61.5443 672.65 61.4668 673.115 61.4668C673.58 61.4668 673.988 61.5443 674.339 61.6992C674.694 61.8496 674.988 62.0775 675.221 62.3828C675.453 62.6836 675.629 63.0573 675.747 63.5039C675.866 63.9505 675.925 64.4701 675.925 65.0625V65.9375H670.969V64.5908H674.045V64.4199C674.045 64.1191 674.013 63.8685 673.949 63.668C673.885 63.4629 673.785 63.3102 673.648 63.21C673.512 63.1097 673.329 63.0596 673.102 63.0596C672.91 63.0596 672.748 63.0983 672.616 63.1758C672.484 63.2533 672.379 63.374 672.302 63.5381C672.224 63.7021 672.167 63.9163 672.131 64.1807C672.094 64.4404 672.076 64.7526 672.076 65.1172V65.7256C672.076 66.0674 672.106 66.3545 672.165 66.5869C672.224 66.8148 672.311 67.0016 672.425 67.1475C672.543 67.2887 672.687 67.3913 672.855 67.4551C673.024 67.5143 673.22 67.5439 673.443 67.5439C673.781 67.5439 674.084 67.4847 674.353 67.3662C674.626 67.2432 674.858 67.0768 675.05 66.8672L675.815 68.0293C675.683 68.2025 675.501 68.3757 675.269 68.5488C675.036 68.722 674.758 68.8633 674.435 68.9727C674.111 69.082 673.737 69.1367 673.313 69.1367ZM678.946 63.251V69H677.032V61.6035H678.837L678.946 63.251ZM680.689 61.5488L680.662 63.4561C680.576 63.4378 680.471 63.4242 680.348 63.415C680.229 63.4059 680.124 63.4014 680.033 63.4014C679.819 63.4014 679.637 63.4355 679.486 63.5039C679.336 63.5677 679.211 63.6657 679.11 63.7979C679.015 63.9255 678.942 64.085 678.892 64.2764C678.841 64.4678 678.812 64.6842 678.803 64.9258L678.44 64.7891C678.44 64.306 678.477 63.8639 678.55 63.4629C678.627 63.0573 678.741 62.7064 678.892 62.4102C679.042 62.1094 679.222 61.877 679.432 61.7129C679.646 61.5488 679.887 61.4668 680.156 61.4668C680.247 61.4668 680.343 61.4759 680.443 61.4941C680.548 61.5078 680.63 61.526 680.689 61.5488ZM683.677 61.6035V69H681.756V61.6035H683.677ZM681.667 59.6895C681.667 59.3932 681.76 59.1494 681.947 58.958C682.139 58.762 682.394 58.6641 682.713 58.6641C683.036 58.6641 683.292 58.762 683.479 58.958C683.665 59.1494 683.759 59.3932 683.759 59.6895C683.759 59.9811 683.663 60.2249 683.472 60.4209C683.285 60.6123 683.034 60.708 682.72 60.708C682.396 60.708 682.139 60.6123 681.947 60.4209C681.76 60.2249 681.667 59.9811 681.667 59.6895ZM687.505 69H685.591V61.2959C685.591 60.6579 685.702 60.1224 685.926 59.6895C686.154 59.252 686.482 58.9215 686.91 58.6982C687.343 58.4704 687.86 58.3564 688.462 58.3564C688.808 58.3564 689.136 58.3952 689.446 58.4727C689.761 58.5456 690.084 58.6413 690.417 58.7598L690.144 60.3867C689.943 60.3138 689.717 60.2454 689.467 60.1816C689.221 60.1133 688.929 60.0791 688.592 60.0791C688.223 60.0791 687.949 60.1816 687.771 60.3867C687.594 60.5918 687.505 60.8949 687.505 61.2959V69ZM688.646 61.6035V63.0459H684.688V61.6035H688.646ZM691.299 61.6035V69H689.378V61.6035H691.299ZM694.737 58.4932V69H692.823V58.4932H694.737ZM698.627 61.6035L696.022 65.2812L694.457 67.0381L693.78 65.582L694.983 63.8252L696.344 61.6035H698.627ZM696.631 69L695.018 65.6025L696.337 64.3857L698.825 69H696.631ZM702.783 67.2979V63.8799C702.783 63.6566 702.756 63.4788 702.701 63.3467C702.651 63.2145 702.574 63.1188 702.469 63.0596C702.368 62.9958 702.245 62.9639 702.1 62.9639C701.936 62.9639 701.799 62.998 701.689 63.0664C701.58 63.1348 701.498 63.2327 701.443 63.3604C701.393 63.488 701.368 63.6406 701.368 63.8184H699.447C699.447 63.4993 699.509 63.1986 699.632 62.916C699.755 62.6289 699.935 62.3783 700.172 62.1641C700.413 61.9453 700.701 61.7744 701.033 61.6514C701.366 61.5283 701.74 61.4668 702.154 61.4668C702.646 61.4668 703.084 61.5511 703.467 61.7197C703.85 61.8838 704.153 62.1458 704.376 62.5059C704.599 62.8659 704.711 63.333 704.711 63.9072V67.2021C704.711 67.6169 704.731 67.9541 704.772 68.2139C704.818 68.4736 704.884 68.6969 704.971 68.8838V69H703.043C702.956 68.7949 702.89 68.5397 702.845 68.2344C702.804 67.9245 702.783 67.6123 702.783 67.2979ZM703.016 64.4814L703.022 65.6299H702.318C702.136 65.6299 701.977 65.6595 701.84 65.7188C701.708 65.778 701.596 65.8623 701.505 65.9717C701.414 66.0765 701.345 66.1995 701.3 66.3408C701.259 66.4821 701.238 66.6325 701.238 66.792C701.238 66.9697 701.263 67.1201 701.313 67.2432C701.364 67.3662 701.439 67.4596 701.539 67.5234C701.639 67.5872 701.758 67.6191 701.895 67.6191C702.104 67.6191 702.286 67.5758 702.441 67.4893C702.596 67.4027 702.71 67.2979 702.783 67.1748C702.861 67.0518 702.886 66.9378 702.858 66.833L703.296 67.5781C703.241 67.7467 703.166 67.9222 703.07 68.1045C702.979 68.2868 702.863 68.4554 702.722 68.6104C702.58 68.7653 702.405 68.8929 702.195 68.9932C701.99 69.0889 701.746 69.1367 701.464 69.1367C701.067 69.1367 700.705 69.0456 700.377 68.8633C700.049 68.681 699.789 68.4258 699.598 68.0977C699.411 67.7695 699.317 67.3799 699.317 66.9287C699.317 66.555 699.377 66.2178 699.495 65.917C699.618 65.6117 699.8 65.3542 700.042 65.1445C700.284 64.9303 700.589 64.7663 700.958 64.6523C701.327 64.5384 701.76 64.4814 702.257 64.4814H703.016ZM708.799 67.5439C708.977 67.5439 709.129 67.5075 709.257 67.4346C709.389 67.3617 709.489 67.2432 709.558 67.0791C709.626 66.915 709.662 66.7031 709.667 66.4434H711.465C711.465 66.9993 711.346 67.4801 711.109 67.8857C710.877 68.2868 710.562 68.5967 710.166 68.8154C709.774 69.0296 709.33 69.1367 708.833 69.1367C708.336 69.1367 707.903 69.057 707.534 68.8975C707.165 68.738 706.86 68.5055 706.618 68.2002C706.381 67.8949 706.201 67.5234 706.078 67.0859C705.96 66.6439 705.9 66.138 705.9 65.5684V65.0283C705.9 64.4678 705.96 63.9665 706.078 63.5244C706.201 63.0824 706.381 62.7087 706.618 62.4033C706.86 62.098 707.163 61.8656 707.527 61.7061C707.896 61.5465 708.329 61.4668 708.826 61.4668C709.359 61.4668 709.822 61.5785 710.214 61.8018C710.606 62.0205 710.911 62.3441 711.13 62.7725C711.353 63.2008 711.465 63.7295 711.465 64.3584H709.667C709.662 64.0758 709.628 63.8411 709.564 63.6543C709.505 63.4629 709.412 63.3171 709.284 63.2168C709.161 63.112 708.997 63.0596 708.792 63.0596C708.578 63.0596 708.405 63.1051 708.272 63.1963C708.145 63.2829 708.047 63.4105 707.979 63.5791C707.915 63.7432 707.871 63.9482 707.849 64.1943C707.826 64.4404 707.814 64.7184 707.814 65.0283V65.5684C707.814 65.901 707.824 66.1904 707.842 66.4365C707.865 66.6781 707.908 66.8831 707.972 67.0518C708.04 67.2158 708.138 67.3389 708.266 67.4209C708.398 67.5029 708.576 67.5439 708.799 67.5439ZM714.575 61.6035V69H712.654V61.6035H714.575ZM712.565 59.6895C712.565 59.3932 712.659 59.1494 712.846 58.958C713.037 58.762 713.292 58.6641 713.611 58.6641C713.935 58.6641 714.19 58.762 714.377 58.958C714.564 59.1494 714.657 59.3932 714.657 59.6895C714.657 59.9811 714.562 60.2249 714.37 60.4209C714.183 60.6123 713.933 60.708 713.618 60.708C713.295 60.708 713.037 60.6123 712.846 60.4209C712.659 60.2249 712.565 59.9811 712.565 59.6895ZM716.182 61.6035H718.109V69.4102C718.109 69.9661 718.021 70.4355 717.843 70.8184C717.67 71.2012 717.419 71.4906 717.091 71.6865C716.763 71.887 716.366 71.9873 715.901 71.9873C715.751 71.9873 715.603 71.9782 715.457 71.96C715.311 71.9417 715.163 71.9121 715.013 71.8711L715.02 70.3125C715.111 70.3307 715.2 70.3444 715.286 70.3535C715.368 70.3626 715.45 70.3672 715.532 70.3672C715.678 70.3672 715.799 70.333 715.895 70.2646C715.99 70.2008 716.061 70.0983 716.106 69.957C716.157 69.8158 716.182 69.6335 716.182 69.4102V61.6035ZM716.052 59.6895C716.052 59.3932 716.147 59.1494 716.339 58.958C716.53 58.762 716.783 58.6641 717.098 58.6641C717.417 58.6641 717.672 58.762 717.863 58.958C718.055 59.1494 718.15 59.3932 718.15 59.6895C718.15 59.9811 718.055 60.2249 717.863 60.4209C717.672 60.6123 717.417 60.708 717.098 60.708C716.783 60.708 716.53 60.6123 716.339 60.4209C716.147 60.2249 716.052 59.9811 716.052 59.6895ZM722.785 67.2979V63.8799C722.785 63.6566 722.758 63.4788 722.703 63.3467C722.653 63.2145 722.576 63.1188 722.471 63.0596C722.37 62.9958 722.247 62.9639 722.102 62.9639C721.938 62.9639 721.801 62.998 721.691 63.0664C721.582 63.1348 721.5 63.2327 721.445 63.3604C721.395 63.488 721.37 63.6406 721.37 63.8184H719.449C719.449 63.4993 719.511 63.1986 719.634 62.916C719.757 62.6289 719.937 62.3783 720.174 62.1641C720.415 61.9453 720.702 61.7744 721.035 61.6514C721.368 61.5283 721.742 61.4668 722.156 61.4668C722.648 61.4668 723.086 61.5511 723.469 61.7197C723.852 61.8838 724.155 62.1458 724.378 62.5059C724.601 62.8659 724.713 63.333 724.713 63.9072V67.2021C724.713 67.6169 724.733 67.9541 724.774 68.2139C724.82 68.4736 724.886 68.6969 724.973 68.8838V69H723.045C722.958 68.7949 722.892 68.5397 722.847 68.2344C722.806 67.9245 722.785 67.6123 722.785 67.2979ZM723.018 64.4814L723.024 65.6299H722.32C722.138 65.6299 721.979 65.6595 721.842 65.7188C721.71 65.778 721.598 65.8623 721.507 65.9717C721.416 66.0765 721.347 66.1995 721.302 66.3408C721.261 66.4821 721.24 66.6325 721.24 66.792C721.24 66.9697 721.265 67.1201 721.315 67.2432C721.366 67.3662 721.441 67.4596 721.541 67.5234C721.641 67.5872 721.76 67.6191 721.896 67.6191C722.106 67.6191 722.288 67.5758 722.443 67.4893C722.598 67.4027 722.712 67.2979 722.785 67.1748C722.863 67.0518 722.888 66.9378 722.86 66.833L723.298 67.5781C723.243 67.7467 723.168 67.9222 723.072 68.1045C722.981 68.2868 722.865 68.4554 722.724 68.6104C722.582 68.7653 722.407 68.8929 722.197 68.9932C721.992 69.0889 721.748 69.1367 721.466 69.1367C721.069 69.1367 720.707 69.0456 720.379 68.8633C720.051 68.681 719.791 68.4258 719.6 68.0977C719.413 67.7695 719.319 67.3799 719.319 66.9287C719.319 66.555 719.379 66.2178 719.497 65.917C719.62 65.6117 719.802 65.3542 720.044 65.1445C720.285 64.9303 720.591 64.7663 720.96 64.6523C721.329 64.5384 721.762 64.4814 722.259 64.4814H723.018ZM731.364 61.6035V69H729.443V61.6035H731.364ZM729.354 59.6895C729.354 59.3932 729.448 59.1494 729.635 58.958C729.826 58.762 730.081 58.6641 730.4 58.6641C730.724 58.6641 730.979 58.762 731.166 58.958C731.353 59.1494 731.446 59.3932 731.446 59.6895C731.446 59.9811 731.351 60.2249 731.159 60.4209C730.972 60.6123 730.722 60.708 730.407 60.708C730.084 60.708 729.826 60.6123 729.635 60.4209C729.448 60.2249 729.354 59.9811 729.354 59.6895ZM676.062 77.0254V85.8438H674.154V75.6035H675.918L676.062 77.0254ZM679.903 79.0488V79.541C679.903 80.1198 679.853 80.6325 679.753 81.0791C679.653 81.5212 679.502 81.8971 679.302 82.207C679.106 82.5124 678.86 82.7448 678.563 82.9043C678.267 83.0592 677.921 83.1367 677.524 83.1367C677.155 83.1367 676.836 83.0501 676.567 82.877C676.303 82.6992 676.08 82.4554 675.897 82.1455C675.715 81.8356 675.569 81.4733 675.46 81.0586C675.351 80.6439 675.266 80.1995 675.207 79.7256V78.96C675.262 78.4541 675.341 77.9893 675.446 77.5654C675.551 77.137 675.695 76.7656 675.877 76.4512C676.064 76.1367 676.289 75.8952 676.554 75.7266C676.823 75.5534 677.142 75.4668 677.511 75.4668C677.912 75.4668 678.26 75.5397 678.557 75.6855C678.857 75.8314 679.106 76.0524 679.302 76.3486C679.502 76.6403 679.653 77.0117 679.753 77.4629C679.853 77.9141 679.903 78.4427 679.903 79.0488ZM677.989 79.541V79.0488C677.989 78.6934 677.969 78.3903 677.928 78.1396C677.891 77.889 677.832 77.6839 677.75 77.5244C677.668 77.3649 677.561 77.2487 677.429 77.1758C677.297 77.1029 677.135 77.0664 676.943 77.0664C676.757 77.0664 676.592 77.1029 676.451 77.1758C676.314 77.2487 676.203 77.3558 676.116 77.4971C676.03 77.6338 675.964 77.8024 675.918 78.0029C675.872 78.1989 675.847 78.4222 675.843 78.6729V80.0127C675.852 80.3089 675.891 80.571 675.959 80.7988C676.032 81.0267 676.148 81.209 676.308 81.3457C676.467 81.4779 676.684 81.5439 676.957 81.5439C677.153 81.5439 677.315 81.5029 677.442 81.4209C677.575 81.3389 677.682 81.2158 677.764 81.0518C677.846 80.8877 677.903 80.6803 677.935 80.4297C677.971 80.179 677.989 79.8828 677.989 79.541ZM683.089 72.5V83H681.168V72.5H683.089ZM687.867 81.2979V77.8799C687.867 77.6566 687.84 77.4788 687.785 77.3467C687.735 77.2145 687.658 77.1188 687.553 77.0596C687.452 76.9958 687.329 76.9639 687.184 76.9639C687.02 76.9639 686.883 76.998 686.773 77.0664C686.664 77.1348 686.582 77.2327 686.527 77.3604C686.477 77.488 686.452 77.6406 686.452 77.8184H684.531C684.531 77.4993 684.593 77.1986 684.716 76.916C684.839 76.6289 685.019 76.3783 685.256 76.1641C685.497 75.9453 685.785 75.7744 686.117 75.6514C686.45 75.5283 686.824 75.4668 687.238 75.4668C687.73 75.4668 688.168 75.5511 688.551 75.7197C688.934 75.8838 689.237 76.1458 689.46 76.5059C689.683 76.8659 689.795 77.333 689.795 77.9072V81.2021C689.795 81.6169 689.815 81.9541 689.856 82.2139C689.902 82.4736 689.968 82.6969 690.055 82.8838V83H688.127C688.04 82.7949 687.974 82.5397 687.929 82.2344C687.888 81.9245 687.867 81.6123 687.867 81.2979ZM688.1 78.4814L688.106 79.6299H687.402C687.22 79.6299 687.061 79.6595 686.924 79.7188C686.792 79.778 686.68 79.8623 686.589 79.9717C686.498 80.0765 686.429 80.1995 686.384 80.3408C686.343 80.4821 686.322 80.6325 686.322 80.792C686.322 80.9697 686.347 81.1201 686.397 81.2432C686.448 81.3662 686.523 81.4596 686.623 81.5234C686.723 81.5872 686.842 81.6191 686.979 81.6191C687.188 81.6191 687.37 81.5758 687.525 81.4893C687.68 81.4027 687.794 81.2979 687.867 81.1748C687.945 81.0518 687.97 80.9378 687.942 80.833L688.38 81.5781C688.325 81.7467 688.25 81.9222 688.154 82.1045C688.063 82.2868 687.947 82.4554 687.806 82.6104C687.664 82.7653 687.489 82.8929 687.279 82.9932C687.074 83.0889 686.83 83.1367 686.548 83.1367C686.151 83.1367 685.789 83.0456 685.461 82.8633C685.133 82.681 684.873 82.4258 684.682 82.0977C684.495 81.7695 684.401 81.3799 684.401 80.9287C684.401 80.555 684.461 80.2178 684.579 79.917C684.702 79.6117 684.884 79.3542 685.126 79.1445C685.368 78.9303 685.673 78.7663 686.042 78.6523C686.411 78.5384 686.844 78.4814 687.341 78.4814H688.1ZM693.883 81.5439C694.061 81.5439 694.213 81.5075 694.341 81.4346C694.473 81.3617 694.573 81.2432 694.642 81.0791C694.71 80.915 694.746 80.7031 694.751 80.4434H696.549C696.549 80.9993 696.43 81.4801 696.193 81.8857C695.961 82.2868 695.646 82.5967 695.25 82.8154C694.858 83.0296 694.414 83.1367 693.917 83.1367C693.42 83.1367 692.987 83.057 692.618 82.8975C692.249 82.738 691.944 82.5055 691.702 82.2002C691.465 81.8949 691.285 81.5234 691.162 81.0859C691.044 80.6439 690.984 80.138 690.984 79.5684V79.0283C690.984 78.4678 691.044 77.9665 691.162 77.5244C691.285 77.0824 691.465 76.7087 691.702 76.4033C691.944 76.098 692.247 75.8656 692.611 75.7061C692.98 75.5465 693.413 75.4668 693.91 75.4668C694.443 75.4668 694.906 75.5785 695.298 75.8018C695.69 76.0205 695.995 76.3441 696.214 76.7725C696.437 77.2008 696.549 77.7295 696.549 78.3584H694.751C694.746 78.0758 694.712 77.8411 694.648 77.6543C694.589 77.4629 694.496 77.3171 694.368 77.2168C694.245 77.112 694.081 77.0596 693.876 77.0596C693.662 77.0596 693.489 77.1051 693.356 77.1963C693.229 77.2829 693.131 77.4105 693.062 77.5791C692.999 77.7432 692.955 77.9482 692.933 78.1943C692.91 78.4404 692.898 78.7184 692.898 79.0283V79.5684C692.898 79.901 692.908 80.1904 692.926 80.4365C692.949 80.6781 692.992 80.8831 693.056 81.0518C693.124 81.2158 693.222 81.3389 693.35 81.4209C693.482 81.5029 693.66 81.5439 693.883 81.5439ZM692.748 74.6123L694.088 72.5H696.241L694.354 74.6123H692.748ZM700.91 81.2979V77.8799C700.91 77.6566 700.883 77.4788 700.828 77.3467C700.778 77.2145 700.701 77.1188 700.596 77.0596C700.495 76.9958 700.372 76.9639 700.227 76.9639C700.062 76.9639 699.926 76.998 699.816 77.0664C699.707 77.1348 699.625 77.2327 699.57 77.3604C699.52 77.488 699.495 77.6406 699.495 77.8184H697.574C697.574 77.4993 697.636 77.1986 697.759 76.916C697.882 76.6289 698.062 76.3783 698.299 76.1641C698.54 75.9453 698.827 75.7744 699.16 75.6514C699.493 75.5283 699.867 75.4668 700.281 75.4668C700.773 75.4668 701.211 75.5511 701.594 75.7197C701.977 75.8838 702.28 76.1458 702.503 76.5059C702.726 76.8659 702.838 77.333 702.838 77.9072V81.2021C702.838 81.6169 702.858 81.9541 702.899 82.2139C702.945 82.4736 703.011 82.6969 703.098 82.8838V83H701.17C701.083 82.7949 701.017 82.5397 700.972 82.2344C700.931 81.9245 700.91 81.6123 700.91 81.2979ZM701.143 78.4814L701.149 79.6299H700.445C700.263 79.6299 700.104 79.6595 699.967 79.7188C699.835 79.778 699.723 79.8623 699.632 79.9717C699.541 80.0765 699.472 80.1995 699.427 80.3408C699.386 80.4821 699.365 80.6325 699.365 80.792C699.365 80.9697 699.39 81.1201 699.44 81.2432C699.491 81.3662 699.566 81.4596 699.666 81.5234C699.766 81.5872 699.885 81.6191 700.021 81.6191C700.231 81.6191 700.413 81.5758 700.568 81.4893C700.723 81.4027 700.837 81.2979 700.91 81.1748C700.988 81.0518 701.013 80.9378 700.985 80.833L701.423 81.5781C701.368 81.7467 701.293 81.9222 701.197 82.1045C701.106 82.2868 700.99 82.4554 700.849 82.6104C700.707 82.7653 700.532 82.8929 700.322 82.9932C700.117 83.0889 699.873 83.1367 699.591 83.1367C699.194 83.1367 698.832 83.0456 698.504 82.8633C698.176 82.681 697.916 82.4258 697.725 82.0977C697.538 81.7695 697.444 81.3799 697.444 80.9287C697.444 80.555 697.504 80.2178 697.622 79.917C697.745 79.6117 697.927 79.3542 698.169 79.1445C698.41 78.9303 698.716 78.7663 699.085 78.6523C699.454 78.5384 699.887 78.4814 700.384 78.4814H701.143ZM706.133 77.1826V83H704.212V75.6035H706.01L706.133 77.1826ZM705.846 79.0488L705.333 79.0625C705.324 78.5065 705.376 78.0075 705.49 77.5654C705.609 77.1234 705.775 76.7474 705.989 76.4375C706.208 76.123 706.468 75.8838 706.769 75.7197C707.074 75.5511 707.413 75.4668 707.787 75.4668C708.074 75.4668 708.336 75.5169 708.573 75.6172C708.815 75.7174 709.022 75.877 709.195 76.0957C709.368 76.3145 709.503 76.6061 709.599 76.9707C709.694 77.3307 709.742 77.7728 709.742 78.2969V83H707.821V78.2832C707.821 77.9642 707.789 77.7181 707.726 77.5449C707.662 77.3672 707.566 77.2441 707.438 77.1758C707.311 77.1029 707.151 77.0664 706.96 77.0664C706.778 77.0664 706.616 77.1188 706.475 77.2236C706.333 77.3239 706.215 77.4629 706.119 77.6406C706.028 77.8184 705.957 78.028 705.907 78.2695C705.862 78.5111 705.841 78.7708 705.846 79.0488ZM711.232 75.6035H713.16V83.4102C713.16 83.9661 713.071 84.4355 712.894 84.8184C712.72 85.2012 712.47 85.4906 712.142 85.6865C711.813 85.887 711.417 85.9873 710.952 85.9873C710.802 85.9873 710.654 85.9782 710.508 85.96C710.362 85.9417 710.214 85.9121 710.063 85.8711L710.07 84.3125C710.161 84.3307 710.25 84.3444 710.337 84.3535C710.419 84.3626 710.501 84.3672 710.583 84.3672C710.729 84.3672 710.85 84.333 710.945 84.2646C711.041 84.2008 711.112 84.0983 711.157 83.957C711.207 83.8158 711.232 83.6335 711.232 83.4102V75.6035ZM711.103 73.6895C711.103 73.3932 711.198 73.1494 711.39 72.958C711.581 72.762 711.834 72.6641 712.148 72.6641C712.467 72.6641 712.723 72.762 712.914 72.958C713.105 73.1494 713.201 73.3932 713.201 73.6895C713.201 73.9811 713.105 74.2249 712.914 74.4209C712.723 74.6123 712.467 74.708 712.148 74.708C711.834 74.708 711.581 74.6123 711.39 74.4209C711.198 74.2249 711.103 73.9811 711.103 73.6895ZM717.556 83.1367C717.05 83.1367 716.601 83.0592 716.209 82.9043C715.822 82.7493 715.493 82.526 715.225 82.2344C714.956 81.9382 714.751 81.5804 714.609 81.1611C714.468 80.7419 714.397 80.2633 714.397 79.7256V79.1172C714.397 78.5156 714.466 77.9893 714.603 77.5381C714.739 77.0824 714.933 76.6995 715.184 76.3896C715.434 76.0798 715.742 75.8496 716.106 75.6992C716.476 75.5443 716.893 75.4668 717.357 75.4668C717.822 75.4668 718.23 75.5443 718.581 75.6992C718.937 75.8496 719.23 76.0775 719.463 76.3828C719.695 76.6836 719.871 77.0573 719.989 77.5039C720.108 77.9505 720.167 78.4701 720.167 79.0625V79.9375H715.211V78.5908H718.287V78.4199C718.287 78.1191 718.255 77.8685 718.191 77.668C718.128 77.4629 718.027 77.3102 717.891 77.21C717.754 77.1097 717.572 77.0596 717.344 77.0596C717.152 77.0596 716.991 77.0983 716.858 77.1758C716.726 77.2533 716.621 77.374 716.544 77.5381C716.466 77.7021 716.41 77.9163 716.373 78.1807C716.337 78.4404 716.318 78.7526 716.318 79.1172V79.7256C716.318 80.0674 716.348 80.3545 716.407 80.5869C716.466 80.8148 716.553 81.0016 716.667 81.1475C716.785 81.2887 716.929 81.3913 717.098 81.4551C717.266 81.5143 717.462 81.5439 717.686 81.5439C718.023 81.5439 718.326 81.4847 718.595 81.3662C718.868 81.2432 719.101 81.0768 719.292 80.8672L720.058 82.0293C719.925 82.2025 719.743 82.3757 719.511 82.5488C719.278 82.722 719 82.8633 718.677 82.9727C718.353 83.082 717.979 83.1367 717.556 83.1367Z" fill="#E0E0E9"/>
<path fill-rule="evenodd" clip-rule="evenodd" d="M690 33H400V31H690V33Z" fill="#D0CFD7"/>
<path fill-rule="evenodd" clip-rule="evenodd" d="M376 33H83V31H376V33Z" fill="url(#paint2_linear_363_3150)"/>
<g filter="url(#filter0_d_363_3150)">
<path d="M69 17C60.7125 17 54 23.7125 54 32C54 34.8125 54.7875 37.475 56.175 39.725C57.497 41.9468 59.3748 43.7861 61.6236 45.0617C63.8724 46.3373 66.4146 47.0053 69 47C74.475 47 79.2375 44.075 81.825 39.725C83.2125 37.475 84 34.8125 84 32C84 23.7125 77.2875 17 69 17ZM76.3875 30.7625L68.4 38.15C67.875 38.6375 67.1625 38.9 66.4875 38.9C65.775 38.9 65.0625 38.6375 64.5 38.075L60.7875 34.3625C60.2644 33.8332 59.9711 33.1191 59.9711 32.375C59.9711 31.6309 60.2644 30.9168 60.7875 30.3875C61.875 29.3 63.675 29.3 64.7625 30.3875L66.5625 32.1875L72.5625 26.6375C73.6875 25.5875 75.4875 25.6625 76.5375 26.7875C77.5875 27.9125 77.5125 29.7125 76.3875 30.7625Z" fill="url(#paint3_linear_363_3150)"/>
</g>
<g filter="url(#filter1_d_363_3150)">
<path d="M390 17C381.712 17 375 23.7125 375 32C375 34.8125 375.788 37.475 377.175 39.725C378.497 41.9468 380.375 43.7861 382.624 45.0617C384.872 46.3373 387.415 47.0053 390 47C395.475 47 400.238 44.075 402.825 39.725C404.213 37.475 405 34.8125 405 32C405 23.7125 398.288 17 390 17ZM397.387 30.7625L389.4 38.15C388.875 38.6375 388.162 38.9 387.487 38.9C386.775 38.9 386.062 38.6375 385.5 38.075L381.787 34.3625C381.264 33.8332 380.971 33.1191 380.971 32.375C380.971 31.6309 381.264 30.9168 381.787 30.3875C382.875 29.3 384.675 29.3 385.762 30.3875L387.562 32.1875L393.562 26.6375C394.687 25.5875 396.488 25.6625 397.538 26.7875C398.588 27.9125 398.512 29.7125 397.387 30.7625Z" fill="url(#paint4_linear_363_3150)"/>
</g>
<circle cx="696.5" cy="32.5" r="14.5" fill="#D0CFD7"/>
<defs>
<filter id="filter0_d_363_3150" x="37" y="0" width="74" height="74" filterUnits="userSpaceOnUse" color-interpolation-filters="sRGB">
<feFlood flood-opacity="0" result="BackgroundImageFix"/>
<feColorMatrix in="SourceAlpha" type="matrix" values="0 0 0 0 0 0 0 0 0 0 0 0 0 0 0 0 0 0 127 0" result="hardAlpha"/>
<feOffset dx="5" dy="5"/>
<feGaussianBlur stdDeviation="11"/>
<feComposite in2="hardAlpha" operator="out"/>
<feColorMatrix type="matrix" values="0 0 0 0 0.0392157 0 0 0 0 0.560784 0 0 0 0 0.309804 0 0 0 0.2 0"/>
<feBlend mode="normal" in2="BackgroundImageFix" result="effect1_dropShadow_363_3150"/>
<feBlend mode="normal" in="SourceGraphic" in2="effect1_dropShadow_363_3150" result="shape"/>
</filter>
<filter id="filter1_d_363_3150" x="358" y="0" width="74" height="74" filterUnits="userSpaceOnUse" color-interpolation-filters="sRGB">
<feFlood flood-opacity="0" result="BackgroundImageFix"/>
<feColorMatrix in="SourceAlpha" type="matrix" values="0 0 0 0 0 0 0 0 0 0 0 0 0 0 0 0 0 0 127 0" result="hardAlpha"/>
<feOffset dx="5" dy="5"/>
<feGaussianBlur stdDeviation="11"/>
<feComposite in2="hardAlpha" operator="out"/>
<feColorMatrix type="matrix" values="0 0 0 0 0.0392157 0 0 0 0 0.560784 0 0 0 0 0.309804 0 0 0 0.2 0"/>
<feBlend mode="normal" in2="BackgroundImageFix" result="effect1_dropShadow_363_3150"/>
<feBlend mode="normal" in="SourceGraphic" in2="effect1_dropShadow_363_3150" result="shape"/>
</filter>
<linearGradient id="paint0_linear_363_3150" x1="68.5" y1="77" x2="68.5" y2="57" gradientUnits="userSpaceOnUse">
<stop stop-color="#5CCC94"/>
<stop offset="1" stop-color="#8CCAAE"/>
</linearGradient>
<linearGradient id="paint1_linear_363_3150" x1="392" y1="77" x2="392" y2="57" gradientUnits="userSpaceOnUse">
<stop stop-color="#5CCC94"/>
<stop offset="1" stop-color="#8CCAAE"/>
</linearGradient>
<linearGradient id="paint2_linear_363_3150" x1="229.5" y1="33" x2="229.5" y2="31" gradientUnits="userSpaceOnUse">
<stop stop-color="#5CCC94"/>
<stop offset="1" stop-color="#8CCAAE"/>
</linearGradient>
<linearGradient id="paint3_linear_363_3150" x1="69" y1="47" x2="69" y2="17" gradientUnits="userSpaceOnUse">
<stop stop-color="#5CCC94"/>
<stop offset="1" stop-color="#8CCAAE"/>
</linearGradient>
<linearGradient id="paint4_linear_363_3150" x1="390" y1="47" x2="390" y2="17" gradientUnits="userSpaceOnUse">
<stop stop-color="#5CCC94"/>
<stop offset="1" stop-color="#8CCAAE"/>
</linearGradient>
</defs>
</svg>
