<svg width="1019" height="95" viewBox="0 0 1019 95" fill="none" xmlns="http://www.w3.org/2000/svg">
<path d="M22.5322 59.0469V69H20.543V59.0469H22.5322ZM25.0068 59.0469V60.708H18.1162V59.0469H25.0068ZM28.083 61.6035V69H26.1621V61.6035H28.083ZM26.0732 59.6895C26.0732 59.3932 26.1667 59.1494 26.3535 58.958C26.5449 58.762 26.8001 58.6641 27.1191 58.6641C27.4427 58.6641 27.6979 58.762 27.8848 58.958C28.0716 59.1494 28.165 59.3932 28.165 59.6895C28.165 59.9811 28.0693 60.2249 27.8779 60.4209C27.6911 60.6123 27.4404 60.708 27.126 60.708C26.8024 60.708 26.5449 60.6123 26.3535 60.4209C26.1667 60.2249 26.0732 59.9811 26.0732 59.6895ZM31.5146 63.0254V71.8438H29.6074V61.6035H31.3711L31.5146 63.0254ZM35.3564 65.0488V65.541C35.3564 66.1198 35.3063 66.6325 35.2061 67.0791C35.1058 67.5212 34.9554 67.8971 34.7549 68.207C34.5589 68.5124 34.3128 68.7448 34.0166 68.9043C33.7204 69.0592 33.374 69.1367 32.9775 69.1367C32.6084 69.1367 32.2894 69.0501 32.0205 68.877C31.7562 68.6992 31.5329 68.4554 31.3506 68.1455C31.1683 67.8356 31.0225 67.4733 30.9131 67.0586C30.8037 66.6439 30.7194 66.1995 30.6602 65.7256V64.96C30.7148 64.4541 30.7946 63.9893 30.8994 63.5654C31.0042 63.137 31.1478 62.7656 31.3301 62.4512C31.5169 62.1367 31.7425 61.8952 32.0068 61.7266C32.2757 61.5534 32.5947 61.4668 32.9639 61.4668C33.3649 61.4668 33.7135 61.5397 34.0098 61.6855C34.3105 61.8314 34.5589 62.0524 34.7549 62.3486C34.9554 62.6403 35.1058 63.0117 35.2061 63.4629C35.3063 63.9141 35.3564 64.4427 35.3564 65.0488ZM33.4424 65.541V65.0488C33.4424 64.6934 33.4219 64.3903 33.3809 64.1396C33.3444 63.889 33.2852 63.6839 33.2031 63.5244C33.1211 63.3649 33.014 63.2487 32.8818 63.1758C32.7497 63.1029 32.5879 63.0664 32.3965 63.0664C32.2096 63.0664 32.0456 63.1029 31.9043 63.1758C31.7676 63.2487 31.6559 63.3558 31.5693 63.4971C31.4827 63.6338 31.4167 63.8024 31.3711 64.0029C31.3255 64.1989 31.3005 64.4222 31.2959 64.6729V66.0127C31.305 66.3089 31.3438 66.571 31.4121 66.7988C31.485 67.0267 31.6012 67.209 31.7607 67.3457C31.9202 67.4779 32.1367 67.5439 32.4102 67.5439C32.6061 67.5439 32.7679 67.5029 32.8955 67.4209C33.0277 67.3389 33.1348 67.2158 33.2168 67.0518C33.2988 66.8877 33.3558 66.6803 33.3877 66.4297C33.4242 66.179 33.4424 65.8828 33.4424 65.541ZM40.1074 67.2227V61.6035H42.0283V69H40.2236L40.1074 67.2227ZM40.3262 65.6982L40.8594 65.6846C40.8594 66.1813 40.8115 66.6416 40.7158 67.0654C40.6201 67.4847 40.4766 67.8493 40.2852 68.1592C40.0938 68.4691 39.8545 68.7106 39.5674 68.8838C39.2803 69.0524 38.9408 69.1367 38.5488 69.1367C38.248 69.1367 37.9701 69.0866 37.7148 68.9863C37.4642 68.8815 37.2477 68.7197 37.0654 68.501C36.8831 68.2777 36.7396 67.9928 36.6348 67.6465C36.5345 67.2956 36.4844 66.874 36.4844 66.3818V61.6035H38.4053V66.4023C38.4053 66.6029 38.4235 66.776 38.46 66.9219C38.4964 67.0632 38.5465 67.1794 38.6104 67.2705C38.6742 67.3617 38.7493 67.4277 38.8359 67.4688C38.9225 67.5052 39.0205 67.5234 39.1299 67.5234C39.4307 67.5234 39.6676 67.446 39.8408 67.291C40.0186 67.1315 40.1439 66.915 40.2168 66.6416C40.2897 66.3636 40.3262 66.0492 40.3262 65.6982ZM45.4326 58.5V69H43.5117V58.5H45.4326ZM14.165 81.5234L15.3545 75.6035H17.3506L15.3203 83H14.124L14.165 81.5234ZM13.4609 75.6035L14.6709 81.5303L14.6914 83H13.4883L11.458 75.6035H13.4609ZM20.2832 75.6035V83H18.3623V75.6035H20.2832ZM18.2734 73.6895C18.2734 73.3932 18.3669 73.1494 18.5537 72.958C18.7451 72.762 19.0003 72.6641 19.3193 72.6641C19.6429 72.6641 19.8981 72.762 20.085 72.958C20.2718 73.1494 20.3652 73.3932 20.3652 73.6895C20.3652 73.9811 20.2695 74.2249 20.0781 74.4209C19.8913 74.6123 19.6406 74.708 19.3262 74.708C19.0026 74.708 18.7451 74.6123 18.5537 74.4209C18.3669 74.2249 18.2734 73.9811 18.2734 73.6895ZM23.6807 77.1826V83H21.7598V75.6035H23.5576L23.6807 77.1826ZM23.3936 79.0488L22.8809 79.0625C22.8717 78.5065 22.9242 78.0075 23.0381 77.5654C23.1566 77.1234 23.3229 76.7474 23.5371 76.4375C23.7559 76.123 24.0156 75.8838 24.3164 75.7197C24.6217 75.5511 24.9613 75.4668 25.335 75.4668C25.6221 75.4668 25.8841 75.5169 26.1211 75.6172C26.3626 75.7174 26.57 75.877 26.7432 76.0957C26.9163 76.3145 27.0508 76.6061 27.1465 76.9707C27.2422 77.3307 27.29 77.7728 27.29 78.2969V83H25.3691V78.2832C25.3691 77.9642 25.3372 77.7181 25.2734 77.5449C25.2096 77.3672 25.1139 77.2441 24.9863 77.1758C24.8587 77.1029 24.6992 77.0664 24.5078 77.0664C24.3255 77.0664 24.1637 77.1188 24.0225 77.2236C23.8812 77.3239 23.7627 77.4629 23.667 77.6406C23.5758 77.8184 23.5052 78.028 23.4551 78.2695C23.4095 78.5111 23.389 78.7708 23.3936 79.0488ZM30.7012 75.6035V83H28.7803V75.6035H30.7012ZM28.6914 73.6895C28.6914 73.3932 28.7848 73.1494 28.9717 72.958C29.1631 72.762 29.4183 72.6641 29.7373 72.6641C30.0609 72.6641 30.3161 72.762 30.5029 72.958C30.6898 73.1494 30.7832 73.3932 30.7832 73.6895C30.7832 73.9811 30.6875 74.2249 30.4961 74.4209C30.3092 74.6123 30.0586 74.708 29.7441 74.708C29.4206 74.708 29.1631 74.6123 28.9717 74.4209C28.7848 74.2249 28.6914 73.9811 28.6914 73.6895ZM35.1992 83.1367C34.6934 83.1367 34.2445 83.0592 33.8525 82.9043C33.4652 82.7493 33.137 82.526 32.8682 82.2344C32.5993 81.9382 32.3942 81.5804 32.2529 81.1611C32.1117 80.7419 32.041 80.2633 32.041 79.7256V79.1172C32.041 78.5156 32.1094 77.9893 32.2461 77.5381C32.3828 77.0824 32.5765 76.6995 32.8271 76.3896C33.0778 76.0798 33.3854 75.8496 33.75 75.6992C34.1191 75.5443 34.5361 75.4668 35.001 75.4668C35.4658 75.4668 35.8737 75.5443 36.2246 75.6992C36.5801 75.8496 36.874 76.0775 37.1064 76.3828C37.3389 76.6836 37.5143 77.0573 37.6328 77.5039C37.7513 77.9505 37.8105 78.4701 37.8105 79.0625V79.9375H32.8545V78.5908H35.9307V78.4199C35.9307 78.1191 35.8988 77.8685 35.835 77.668C35.7712 77.4629 35.6709 77.3102 35.5342 77.21C35.3975 77.1097 35.2152 77.0596 34.9873 77.0596C34.7959 77.0596 34.6341 77.0983 34.502 77.1758C34.3698 77.2533 34.265 77.374 34.1875 77.5381C34.11 77.7021 34.0531 77.9163 34.0166 78.1807C33.9801 78.4404 33.9619 78.7526 33.9619 79.1172V79.7256C33.9619 80.0674 33.9915 80.3545 34.0508 80.5869C34.11 80.8148 34.1966 81.0016 34.3105 81.1475C34.429 81.2887 34.5726 81.3913 34.7412 81.4551C34.9098 81.5143 35.1058 81.5439 35.3291 81.5439C35.6663 81.5439 35.9694 81.4847 36.2383 81.3662C36.5117 81.2432 36.7441 81.0768 36.9355 80.8672L37.7012 82.0293C37.569 82.2025 37.3867 82.3757 37.1543 82.5488C36.9219 82.722 36.6439 82.8633 36.3203 82.9727C35.9967 83.082 35.623 83.1367 35.1992 83.1367ZM42.1445 75.6035V77.0459H38.3711V75.6035H42.1445ZM39.2393 73.7783H41.1465V80.7441C41.1465 80.9492 41.167 81.1064 41.208 81.2158C41.249 81.3252 41.3105 81.4027 41.3926 81.4482C41.4792 81.4893 41.5931 81.5098 41.7344 81.5098C41.8301 81.5098 41.9189 81.5052 42.001 81.4961C42.083 81.4824 42.1445 81.4688 42.1855 81.4551V82.9521C42.0352 83.0114 41.8757 83.057 41.707 83.0889C41.543 83.1208 41.347 83.1367 41.1191 83.1367C40.7363 83.1367 40.4036 83.0638 40.1211 82.918C39.8431 82.7721 39.6266 82.5397 39.4717 82.2207C39.3167 81.8971 39.2393 81.4733 39.2393 80.9492V73.7783ZM46.1914 83.1367C45.6855 83.1367 45.2367 83.0592 44.8447 82.9043C44.4574 82.7493 44.1292 82.526 43.8604 82.2344C43.5915 81.9382 43.3864 81.5804 43.2451 81.1611C43.1038 80.7419 43.0332 80.2633 43.0332 79.7256V79.1172C43.0332 78.5156 43.1016 77.9893 43.2383 77.5381C43.375 77.0824 43.5687 76.6995 43.8193 76.3896C44.07 76.0798 44.3776 75.8496 44.7422 75.6992C45.1113 75.5443 45.5283 75.4668 45.9932 75.4668C46.458 75.4668 46.8659 75.5443 47.2168 75.6992C47.5723 75.8496 47.8662 76.0775 48.0986 76.3828C48.3311 76.6836 48.5065 77.0573 48.625 77.5039C48.7435 77.9505 48.8027 78.4701 48.8027 79.0625V79.9375H43.8467V78.5908H46.9229V78.4199C46.9229 78.1191 46.891 77.8685 46.8271 77.668C46.7633 77.4629 46.6631 77.3102 46.5264 77.21C46.3896 77.1097 46.2074 77.0596 45.9795 77.0596C45.7881 77.0596 45.6263 77.0983 45.4941 77.1758C45.362 77.2533 45.2572 77.374 45.1797 77.5381C45.1022 77.7021 45.0452 77.9163 45.0088 78.1807C44.9723 78.4404 44.9541 78.7526 44.9541 79.1172V79.7256C44.9541 80.0674 44.9837 80.3545 45.043 80.5869C45.1022 80.8148 45.1888 81.0016 45.3027 81.1475C45.4212 81.2887 45.5648 81.3913 45.7334 81.4551C45.902 81.5143 46.098 81.5439 46.3213 81.5439C46.6585 81.5439 46.9616 81.4847 47.2305 81.3662C47.5039 81.2432 47.7363 81.0768 47.9277 80.8672L48.6934 82.0293C48.5612 82.2025 48.3789 82.3757 48.1465 82.5488C47.9141 82.722 47.6361 82.8633 47.3125 82.9727C46.9889 83.082 46.6152 83.1367 46.1914 83.1367ZM51.9199 75.6035V83H49.999V75.6035H51.9199ZM49.9102 73.6895C49.9102 73.3932 50.0036 73.1494 50.1904 72.958C50.3818 72.762 50.637 72.6641 50.9561 72.6641C51.2796 72.6641 51.5348 72.762 51.7217 72.958C51.9085 73.1494 52.002 73.3932 52.002 73.6895C52.002 73.9811 51.9062 74.2249 51.7148 74.4209C51.528 74.6123 51.2773 74.708 50.9629 74.708C50.6393 74.708 50.3818 74.6123 50.1904 74.4209C50.0036 74.2249 49.9102 73.9811 49.9102 73.6895Z" fill="url(#paint0_linear_1405_1461)"/>
<path d="M290.84 62.0469V72H288.905L285.781 65.7725V72H283.881V62.0469H285.788L288.939 68.3428V62.0469H290.84ZM295.933 70.2227V64.6035H297.854V72H296.049L295.933 70.2227ZM296.151 68.6982L296.685 68.6846C296.685 69.1813 296.637 69.6416 296.541 70.0654C296.445 70.4847 296.302 70.8493 296.11 71.1592C295.919 71.4691 295.68 71.7106 295.393 71.8838C295.105 72.0524 294.766 72.1367 294.374 72.1367C294.073 72.1367 293.795 72.0866 293.54 71.9863C293.289 71.8815 293.073 71.7197 292.891 71.501C292.708 71.2777 292.565 70.9928 292.46 70.6465C292.36 70.2956 292.31 69.874 292.31 69.3818V64.6035H294.23V69.4023C294.23 69.6029 294.249 69.776 294.285 69.9219C294.322 70.0632 294.372 70.1794 294.436 70.2705C294.499 70.3617 294.575 70.4277 294.661 70.4688C294.748 70.5052 294.846 70.5234 294.955 70.5234C295.256 70.5234 295.493 70.446 295.666 70.291C295.844 70.1315 295.969 69.915 296.042 69.6416C296.115 69.3636 296.151 69.0492 296.151 68.6982ZM301.176 66.1348V72H299.255V64.6035H301.06L301.176 66.1348ZM300.902 68.0488L300.376 68.0625C300.367 67.543 300.412 67.0645 300.513 66.627C300.613 66.1895 300.763 65.8089 300.964 65.4854C301.169 65.1618 301.426 64.9111 301.736 64.7334C302.046 64.5557 302.409 64.4668 302.823 64.4668C303.092 64.4668 303.34 64.5169 303.568 64.6172C303.796 64.7129 303.994 64.8656 304.163 65.0752C304.332 65.2803 304.462 65.5492 304.553 65.8818C304.644 66.21 304.689 66.6042 304.689 67.0645V72H302.775V67.2969C302.775 66.9688 302.743 66.7181 302.68 66.5449C302.616 66.3672 302.525 66.2441 302.406 66.1758C302.288 66.1029 302.142 66.0664 301.969 66.0664C301.786 66.0664 301.627 66.1165 301.49 66.2168C301.354 66.3171 301.242 66.4583 301.155 66.6406C301.073 66.8184 301.009 67.028 300.964 67.2695C300.923 67.5111 300.902 67.7708 300.902 68.0488ZM304.505 67.8574L303.814 67.9463C303.805 67.4587 303.849 67.0052 303.944 66.5859C304.04 66.1621 304.188 65.793 304.389 65.4785C304.589 65.1595 304.84 64.9111 305.141 64.7334C305.446 64.5557 305.799 64.4668 306.2 64.4668C306.501 64.4668 306.774 64.5169 307.021 64.6172C307.267 64.7174 307.476 64.8792 307.649 65.1025C307.827 65.3213 307.962 65.6107 308.053 65.9707C308.148 66.3307 308.196 66.7682 308.196 67.2832V72H306.275V67.29C306.275 66.9574 306.243 66.7021 306.18 66.5244C306.116 66.3467 306.025 66.2259 305.906 66.1621C305.788 66.0983 305.646 66.0664 305.482 66.0664C305.318 66.0664 305.175 66.112 305.052 66.2031C304.933 66.2943 304.833 66.4219 304.751 66.5859C304.669 66.7454 304.607 66.9346 304.566 67.1533C304.525 67.3675 304.505 67.6022 304.505 67.8574ZM312.899 70.2979V66.8799C312.899 66.6566 312.872 66.4788 312.817 66.3467C312.767 66.2145 312.69 66.1188 312.585 66.0596C312.485 65.9958 312.362 65.9639 312.216 65.9639C312.052 65.9639 311.915 65.998 311.806 66.0664C311.696 66.1348 311.614 66.2327 311.56 66.3604C311.509 66.488 311.484 66.6406 311.484 66.8184H309.563C309.563 66.4993 309.625 66.1986 309.748 65.916C309.871 65.6289 310.051 65.3783 310.288 65.1641C310.53 64.9453 310.817 64.7744 311.149 64.6514C311.482 64.5283 311.856 64.4668 312.271 64.4668C312.763 64.4668 313.2 64.5511 313.583 64.7197C313.966 64.8838 314.269 65.1458 314.492 65.5059C314.715 65.8659 314.827 66.333 314.827 66.9072V70.2021C314.827 70.6169 314.848 70.9541 314.889 71.2139C314.934 71.4736 315 71.6969 315.087 71.8838V72H313.159C313.073 71.7949 313.007 71.5397 312.961 71.2344C312.92 70.9245 312.899 70.6123 312.899 70.2979ZM313.132 67.4814L313.139 68.6299H312.435C312.252 68.6299 312.093 68.6595 311.956 68.7188C311.824 68.778 311.712 68.8623 311.621 68.9717C311.53 69.0765 311.462 69.1995 311.416 69.3408C311.375 69.4821 311.354 69.6325 311.354 69.792C311.354 69.9697 311.38 70.1201 311.43 70.2432C311.48 70.3662 311.555 70.4596 311.655 70.5234C311.756 70.5872 311.874 70.6191 312.011 70.6191C312.22 70.6191 312.403 70.5758 312.558 70.4893C312.713 70.4027 312.826 70.2979 312.899 70.1748C312.977 70.0518 313.002 69.9378 312.975 69.833L313.412 70.5781C313.357 70.7467 313.282 70.9222 313.187 71.1045C313.095 71.2868 312.979 71.4554 312.838 71.6104C312.697 71.7653 312.521 71.8929 312.312 71.9932C312.106 72.0889 311.863 72.1367 311.58 72.1367C311.184 72.1367 310.821 72.0456 310.493 71.8633C310.165 71.681 309.905 71.4258 309.714 71.0977C309.527 70.7695 309.434 70.3799 309.434 69.9287C309.434 69.555 309.493 69.2178 309.611 68.917C309.734 68.6117 309.917 68.3542 310.158 68.1445C310.4 67.9303 310.705 67.7663 311.074 67.6523C311.443 67.5384 311.876 67.4814 312.373 67.4814H313.132ZM313.166 61.5615H314.574C314.574 61.9626 314.476 62.3158 314.28 62.6211C314.089 62.9219 313.815 63.1589 313.46 63.332C313.109 63.5052 312.692 63.5918 312.209 63.5918C311.48 63.5918 310.903 63.4027 310.479 63.0244C310.056 62.6462 309.844 62.1585 309.844 61.5615H311.238C311.238 61.7985 311.311 62.0081 311.457 62.1904C311.603 62.3727 311.854 62.4639 312.209 62.4639C312.56 62.4639 312.806 62.3727 312.947 62.1904C313.093 62.0081 313.166 61.7985 313.166 61.5615ZM318.156 66.251V72H316.242V64.6035H318.047L318.156 66.251ZM319.899 64.5488L319.872 66.4561C319.785 66.4378 319.681 66.4242 319.558 66.415C319.439 66.4059 319.334 66.4014 319.243 66.4014C319.029 66.4014 318.847 66.4355 318.696 66.5039C318.546 66.5677 318.421 66.6657 318.32 66.7979C318.225 66.9255 318.152 67.085 318.102 67.2764C318.051 67.4678 318.022 67.6842 318.013 67.9258L317.65 67.7891C317.65 67.306 317.687 66.8639 317.76 66.4629C317.837 66.0573 317.951 65.7064 318.102 65.4102C318.252 65.1094 318.432 64.877 318.642 64.7129C318.856 64.5488 319.097 64.4668 319.366 64.4668C319.457 64.4668 319.553 64.4759 319.653 64.4941C319.758 64.5078 319.84 64.526 319.899 64.5488ZM327.686 70.3662V61.5H329.606V72L327.87 72.0068L327.686 70.3662ZM323.851 68.5615V68.0693C323.851 67.4678 323.901 66.9414 324.001 66.4902C324.106 66.0391 324.261 65.6631 324.466 65.3623C324.671 65.0615 324.922 64.8382 325.218 64.6924C325.519 64.542 325.863 64.4668 326.25 64.4668C326.601 64.4668 326.909 64.5557 327.173 64.7334C327.442 64.9066 327.67 65.1504 327.856 65.4648C328.043 65.7793 328.194 66.1507 328.308 66.5791C328.422 67.0075 328.501 67.4769 328.547 67.9873V68.6982C328.492 69.1813 328.408 69.6325 328.294 70.0518C328.185 70.471 328.034 70.8356 327.843 71.1455C327.656 71.4554 327.43 71.6992 327.166 71.877C326.902 72.0501 326.594 72.1367 326.243 72.1367C325.856 72.1367 325.512 72.0592 325.211 71.9043C324.915 71.7493 324.664 71.5215 324.459 71.2207C324.258 70.9154 324.106 70.5417 324.001 70.0996C323.901 69.653 323.851 69.1403 323.851 68.5615ZM325.765 68.0693V68.5615C325.765 68.9079 325.781 69.2064 325.812 69.457C325.849 69.7031 325.906 69.9059 325.983 70.0654C326.065 70.2204 326.173 70.3366 326.305 70.4141C326.437 70.487 326.601 70.5234 326.797 70.5234C327.052 70.5234 327.259 70.4596 327.419 70.332C327.578 70.1999 327.697 70.0199 327.774 69.792C327.856 69.5596 327.902 69.293 327.911 68.9922V67.7002C327.902 67.4495 327.872 67.224 327.822 67.0234C327.772 66.8229 327.701 66.652 327.61 66.5107C327.519 66.3695 327.405 66.2601 327.269 66.1826C327.136 66.1051 326.981 66.0664 326.804 66.0664C326.612 66.0664 326.448 66.1051 326.312 66.1826C326.179 66.2601 326.075 66.3809 325.997 66.5449C325.92 66.7044 325.86 66.9118 325.819 67.167C325.783 67.4176 325.765 67.7184 325.765 68.0693ZM334.029 72.1367C333.523 72.1367 333.075 72.0592 332.683 71.9043C332.295 71.7493 331.967 71.526 331.698 71.2344C331.429 70.9382 331.224 70.5804 331.083 70.1611C330.942 69.7419 330.871 69.2633 330.871 68.7256V68.1172C330.871 67.5156 330.939 66.9893 331.076 66.5381C331.213 66.0824 331.407 65.6995 331.657 65.3896C331.908 65.0798 332.215 64.8496 332.58 64.6992C332.949 64.5443 333.366 64.4668 333.831 64.4668C334.296 64.4668 334.704 64.5443 335.055 64.6992C335.41 64.8496 335.704 65.0775 335.937 65.3828C336.169 65.6836 336.344 66.0573 336.463 66.5039C336.581 66.9505 336.641 67.4701 336.641 68.0625V68.9375H331.685V67.5908H334.761V67.4199C334.761 67.1191 334.729 66.8685 334.665 66.668C334.601 66.4629 334.501 66.3102 334.364 66.21C334.228 66.1097 334.045 66.0596 333.817 66.0596C333.626 66.0596 333.464 66.0983 333.332 66.1758C333.2 66.2533 333.095 66.374 333.018 66.5381C332.94 66.7021 332.883 66.9163 332.847 67.1807C332.81 67.4404 332.792 67.7526 332.792 68.1172V68.7256C332.792 69.0674 332.822 69.3545 332.881 69.5869C332.94 69.8148 333.027 70.0016 333.141 70.1475C333.259 70.2887 333.403 70.3913 333.571 70.4551C333.74 70.5143 333.936 70.5439 334.159 70.5439C334.496 70.5439 334.799 70.4847 335.068 70.3662C335.342 70.2432 335.574 70.0768 335.766 69.8672L336.531 71.0293C336.399 71.2025 336.217 71.3757 335.984 71.5488C335.752 71.722 335.474 71.8633 335.15 71.9727C334.827 72.082 334.453 72.1367 334.029 72.1367ZM343.039 64.6035V72H341.118V64.6035H343.039ZM342.643 61.6025L344.44 63.5098V63.5918H342.95L342.096 62.6143L341.241 63.5986H339.771V63.4961L341.549 61.6025H342.643ZM346.519 66.1826V72H344.598V64.6035H346.396L346.519 66.1826ZM346.231 68.0488L345.719 68.0625C345.71 67.5065 345.762 67.0075 345.876 66.5654C345.994 66.1234 346.161 65.7474 346.375 65.4375C346.594 65.123 346.854 64.8838 347.154 64.7197C347.46 64.5511 347.799 64.4668 348.173 64.4668C348.46 64.4668 348.722 64.5169 348.959 64.6172C349.201 64.7174 349.408 64.877 349.581 65.0957C349.754 65.3145 349.889 65.6061 349.984 65.9707C350.08 66.3307 350.128 66.7728 350.128 67.2969V72H348.207V67.2832C348.207 66.9642 348.175 66.7181 348.111 66.5449C348.048 66.3672 347.952 66.2441 347.824 66.1758C347.697 66.1029 347.537 66.0664 347.346 66.0664C347.163 66.0664 347.002 66.1188 346.86 66.2236C346.719 66.3239 346.601 66.4629 346.505 66.6406C346.414 66.8184 346.343 67.028 346.293 67.2695C346.247 67.5111 346.227 67.7708 346.231 68.0488ZM353.457 66.1348V72H351.536V64.6035H353.341L353.457 66.1348ZM353.184 68.0488L352.657 68.0625C352.648 67.543 352.694 67.0645 352.794 66.627C352.894 66.1895 353.045 65.8089 353.245 65.4854C353.45 65.1618 353.708 64.9111 354.018 64.7334C354.327 64.5557 354.69 64.4668 355.104 64.4668C355.373 64.4668 355.622 64.5169 355.85 64.6172C356.077 64.7129 356.276 64.8656 356.444 65.0752C356.613 65.2803 356.743 65.5492 356.834 65.8818C356.925 66.21 356.971 66.6042 356.971 67.0645V72H355.057V67.2969C355.057 66.9688 355.025 66.7181 354.961 66.5449C354.897 66.3672 354.806 66.2441 354.688 66.1758C354.569 66.1029 354.423 66.0664 354.25 66.0664C354.068 66.0664 353.908 66.1165 353.771 66.2168C353.635 66.3171 353.523 66.4583 353.437 66.6406C353.354 66.8184 353.291 67.028 353.245 67.2695C353.204 67.5111 353.184 67.7708 353.184 68.0488ZM356.786 67.8574L356.096 67.9463C356.087 67.4587 356.13 67.0052 356.226 66.5859C356.321 66.1621 356.469 65.793 356.67 65.4785C356.87 65.1595 357.121 64.9111 357.422 64.7334C357.727 64.5557 358.08 64.4668 358.481 64.4668C358.782 64.4668 359.056 64.5169 359.302 64.6172C359.548 64.7174 359.757 64.8792 359.931 65.1025C360.108 65.3213 360.243 65.6107 360.334 65.9707C360.43 66.3307 360.478 66.7682 360.478 67.2832V72H358.557V67.29C358.557 66.9574 358.525 66.7021 358.461 66.5244C358.397 66.3467 358.306 66.2259 358.188 66.1621C358.069 66.0983 357.928 66.0664 357.764 66.0664C357.6 66.0664 357.456 66.112 357.333 66.2031C357.215 66.2943 357.114 66.4219 357.032 66.5859C356.95 66.7454 356.889 66.9346 356.848 67.1533C356.807 67.3675 356.786 67.6022 356.786 67.8574ZM365.181 70.2979V66.8799C365.181 66.6566 365.153 66.4788 365.099 66.3467C365.049 66.2145 364.971 66.1188 364.866 66.0596C364.766 65.9958 364.643 65.9639 364.497 65.9639C364.333 65.9639 364.196 65.998 364.087 66.0664C363.978 66.1348 363.896 66.2327 363.841 66.3604C363.791 66.488 363.766 66.6406 363.766 66.8184H361.845C361.845 66.4993 361.906 66.1986 362.029 65.916C362.152 65.6289 362.332 65.3783 362.569 65.1641C362.811 64.9453 363.098 64.7744 363.431 64.6514C363.763 64.5283 364.137 64.4668 364.552 64.4668C365.044 64.4668 365.481 64.5511 365.864 64.7197C366.247 64.8838 366.55 65.1458 366.773 65.5059C366.997 65.8659 367.108 66.333 367.108 66.9072V70.2021C367.108 70.6169 367.129 70.9541 367.17 71.2139C367.215 71.4736 367.282 71.6969 367.368 71.8838V72H365.44C365.354 71.7949 365.288 71.5397 365.242 71.2344C365.201 70.9245 365.181 70.6123 365.181 70.2979ZM365.413 67.4814L365.42 68.6299H364.716C364.534 68.6299 364.374 68.6595 364.237 68.7188C364.105 68.778 363.993 68.8623 363.902 68.9717C363.811 69.0765 363.743 69.1995 363.697 69.3408C363.656 69.4821 363.636 69.6325 363.636 69.792C363.636 69.9697 363.661 70.1201 363.711 70.2432C363.761 70.3662 363.836 70.4596 363.937 70.5234C364.037 70.5872 364.155 70.6191 364.292 70.6191C364.502 70.6191 364.684 70.5758 364.839 70.4893C364.994 70.4027 365.108 70.2979 365.181 70.1748C365.258 70.0518 365.283 69.9378 365.256 69.833L365.693 70.5781C365.639 70.7467 365.563 70.9222 365.468 71.1045C365.377 71.2868 365.26 71.4554 365.119 71.6104C364.978 71.7653 364.802 71.8929 364.593 71.9932C364.388 72.0889 364.144 72.1367 363.861 72.1367C363.465 72.1367 363.103 72.0456 362.774 71.8633C362.446 71.681 362.187 71.4258 361.995 71.0977C361.808 70.7695 361.715 70.3799 361.715 69.9287C361.715 69.555 361.774 69.2178 361.893 68.917C362.016 68.6117 362.198 68.3542 362.439 68.1445C362.681 67.9303 362.986 67.7663 363.355 67.6523C363.725 67.5384 364.158 67.4814 364.654 67.4814H365.413ZM371.75 64.6035V66.0459H367.977V64.6035H371.75ZM368.845 62.7783H370.752V69.7441C370.752 69.9492 370.772 70.1064 370.813 70.2158C370.854 70.3252 370.916 70.4027 370.998 70.4482C371.085 70.4893 371.199 70.5098 371.34 70.5098C371.436 70.5098 371.524 70.5052 371.606 70.4961C371.688 70.4824 371.75 70.4688 371.791 70.4551V71.9521C371.641 72.0114 371.481 72.057 371.312 72.0889C371.148 72.1208 370.952 72.1367 370.725 72.1367C370.342 72.1367 370.009 72.0638 369.727 71.918C369.449 71.7721 369.232 71.5397 369.077 71.2207C368.922 70.8971 368.845 70.4733 368.845 69.9492V62.7783ZM374.73 66.251V72H372.816V64.6035H374.621L374.73 66.251ZM376.474 64.5488L376.446 66.4561C376.36 66.4378 376.255 66.4242 376.132 66.415C376.013 66.4059 375.909 66.4014 375.817 66.4014C375.603 66.4014 375.421 66.4355 375.271 66.5039C375.12 66.5677 374.995 66.6657 374.895 66.7979C374.799 66.9255 374.726 67.085 374.676 67.2764C374.626 67.4678 374.596 67.6842 374.587 67.9258L374.225 67.7891C374.225 67.306 374.261 66.8639 374.334 66.4629C374.411 66.0573 374.525 65.7064 374.676 65.4102C374.826 65.1094 375.006 64.877 375.216 64.7129C375.43 64.5488 375.672 64.4668 375.94 64.4668C376.032 64.4668 376.127 64.4759 376.228 64.4941C376.332 64.5078 376.414 64.526 376.474 64.5488ZM379.461 64.6035V72H377.54V64.6035H379.461ZM377.451 62.6895C377.451 62.3932 377.545 62.1494 377.731 61.958C377.923 61.762 378.178 61.6641 378.497 61.6641C378.821 61.6641 379.076 61.762 379.263 61.958C379.45 62.1494 379.543 62.3932 379.543 62.6895C379.543 62.9811 379.447 63.2249 379.256 63.4209C379.069 63.6123 378.818 63.708 378.504 63.708C378.18 63.708 377.923 63.6123 377.731 63.4209C377.545 63.2249 377.451 62.9811 377.451 62.6895ZM383.651 70.5439C383.829 70.5439 383.982 70.5075 384.109 70.4346C384.242 70.3617 384.342 70.2432 384.41 70.0791C384.479 69.915 384.515 69.7031 384.52 69.4434H386.317C386.317 69.9993 386.199 70.4801 385.962 70.8857C385.729 71.2868 385.415 71.5967 385.019 71.8154C384.627 72.0296 384.182 72.1367 383.686 72.1367C383.189 72.1367 382.756 72.057 382.387 71.8975C382.018 71.738 381.712 71.5055 381.471 71.2002C381.234 70.8949 381.054 70.5234 380.931 70.0859C380.812 69.6439 380.753 69.138 380.753 68.5684V68.0283C380.753 67.4678 380.812 66.9665 380.931 66.5244C381.054 66.0824 381.234 65.7087 381.471 65.4033C381.712 65.098 382.015 64.8656 382.38 64.7061C382.749 64.5465 383.182 64.4668 383.679 64.4668C384.212 64.4668 384.674 64.5785 385.066 64.8018C385.458 65.0205 385.764 65.3441 385.982 65.7725C386.206 66.2008 386.317 66.7295 386.317 67.3584H384.52C384.515 67.0758 384.481 66.8411 384.417 66.6543C384.358 66.4629 384.264 66.3171 384.137 66.2168C384.014 66.112 383.85 66.0596 383.645 66.0596C383.43 66.0596 383.257 66.1051 383.125 66.1963C382.997 66.2829 382.899 66.4105 382.831 66.5791C382.767 66.7432 382.724 66.9482 382.701 67.1943C382.678 67.4404 382.667 67.7184 382.667 68.0283V68.5684C382.667 68.901 382.676 69.1904 382.694 69.4365C382.717 69.6781 382.76 69.8831 382.824 70.0518C382.893 70.2158 382.991 70.3389 383.118 70.4209C383.25 70.5029 383.428 70.5439 383.651 70.5439ZM390.993 70.2227V64.6035H392.914V72H391.109L390.993 70.2227ZM391.212 68.6982L391.745 68.6846C391.745 69.1813 391.697 69.6416 391.602 70.0654C391.506 70.4847 391.362 70.8493 391.171 71.1592C390.979 71.4691 390.74 71.7106 390.453 71.8838C390.166 72.0524 389.826 72.1367 389.435 72.1367C389.134 72.1367 388.856 72.0866 388.601 71.9863C388.35 71.8815 388.133 71.7197 387.951 71.501C387.769 71.2777 387.625 70.9928 387.521 70.6465C387.42 70.2956 387.37 69.874 387.37 69.3818V64.6035H389.291V69.4023C389.291 69.6029 389.309 69.776 389.346 69.9219C389.382 70.0632 389.432 70.1794 389.496 70.2705C389.56 70.3617 389.635 70.4277 389.722 70.4688C389.808 70.5052 389.906 70.5234 390.016 70.5234C390.316 70.5234 390.553 70.446 390.727 70.291C390.904 70.1315 391.03 69.915 391.103 69.6416C391.175 69.3636 391.212 69.0492 391.212 68.6982ZM396.318 61.5V72H394.397V61.5H396.318ZM401.097 70.2979V66.8799C401.097 66.6566 401.069 66.4788 401.015 66.3467C400.965 66.2145 400.887 66.1188 400.782 66.0596C400.682 65.9958 400.559 65.9639 400.413 65.9639C400.249 65.9639 400.112 65.998 400.003 66.0664C399.894 66.1348 399.812 66.2327 399.757 66.3604C399.707 66.488 399.682 66.6406 399.682 66.8184H397.761C397.761 66.4993 397.822 66.1986 397.945 65.916C398.068 65.6289 398.248 65.3783 398.485 65.1641C398.727 64.9453 399.014 64.7744 399.347 64.6514C399.679 64.5283 400.053 64.4668 400.468 64.4668C400.96 64.4668 401.397 64.5511 401.78 64.7197C402.163 64.8838 402.466 65.1458 402.689 65.5059C402.913 65.8659 403.024 66.333 403.024 66.9072V70.2021C403.024 70.6169 403.045 70.9541 403.086 71.2139C403.132 71.4736 403.198 71.6969 403.284 71.8838V72H401.356C401.27 71.7949 401.204 71.5397 401.158 71.2344C401.117 70.9245 401.097 70.6123 401.097 70.2979ZM401.329 67.4814L401.336 68.6299H400.632C400.45 68.6299 400.29 68.6595 400.153 68.7188C400.021 68.778 399.91 68.8623 399.818 68.9717C399.727 69.0765 399.659 69.1995 399.613 69.3408C399.572 69.4821 399.552 69.6325 399.552 69.792C399.552 69.9697 399.577 70.1201 399.627 70.2432C399.677 70.3662 399.752 70.4596 399.853 70.5234C399.953 70.5872 400.071 70.6191 400.208 70.6191C400.418 70.6191 400.6 70.5758 400.755 70.4893C400.91 70.4027 401.024 70.2979 401.097 70.1748C401.174 70.0518 401.199 69.9378 401.172 69.833L401.609 70.5781C401.555 70.7467 401.479 70.9222 401.384 71.1045C401.293 71.2868 401.176 71.4554 401.035 71.6104C400.894 71.7653 400.718 71.8929 400.509 71.9932C400.304 72.0889 400.06 72.1367 399.777 72.1367C399.381 72.1367 399.019 72.0456 398.69 71.8633C398.362 71.681 398.103 71.4258 397.911 71.0977C397.724 70.7695 397.631 70.3799 397.631 69.9287C397.631 69.555 397.69 69.2178 397.809 68.917C397.932 68.6117 398.114 68.3542 398.355 68.1445C398.597 67.9303 398.902 67.7663 399.271 67.6523C399.641 67.5384 400.074 67.4814 400.57 67.4814H401.329ZM406.354 66.251V72H404.439V64.6035H406.244L406.354 66.251ZM408.097 64.5488L408.069 66.4561C407.983 66.4378 407.878 66.4242 407.755 66.415C407.636 66.4059 407.532 66.4014 407.44 66.4014C407.226 66.4014 407.044 66.4355 406.894 66.5039C406.743 66.5677 406.618 66.6657 406.518 66.7979C406.422 66.9255 406.349 67.085 406.299 67.2764C406.249 67.4678 406.219 67.6842 406.21 67.9258L405.848 67.7891C405.848 67.306 405.884 66.8639 405.957 66.4629C406.035 66.0573 406.148 65.7064 406.299 65.4102C406.449 65.1094 406.629 64.877 406.839 64.7129C407.053 64.5488 407.295 64.4668 407.563 64.4668C407.655 64.4668 407.75 64.4759 407.851 64.4941C407.955 64.5078 408.037 64.526 408.097 64.5488ZM411.918 72.1367C411.412 72.1367 410.963 72.0592 410.571 71.9043C410.184 71.7493 409.856 71.526 409.587 71.2344C409.318 70.9382 409.113 70.5804 408.972 70.1611C408.83 69.7419 408.76 69.2633 408.76 68.7256V68.1172C408.76 67.5156 408.828 66.9893 408.965 66.5381C409.102 66.0824 409.295 65.6995 409.546 65.3896C409.797 65.0798 410.104 64.8496 410.469 64.6992C410.838 64.5443 411.255 64.4668 411.72 64.4668C412.185 64.4668 412.592 64.5443 412.943 64.6992C413.299 64.8496 413.593 65.0775 413.825 65.3828C414.058 65.6836 414.233 66.0573 414.352 66.5039C414.47 66.9505 414.529 67.4701 414.529 68.0625V68.9375H409.573V67.5908H412.649V67.4199C412.649 67.1191 412.618 66.8685 412.554 66.668C412.49 66.4629 412.39 66.3102 412.253 66.21C412.116 66.1097 411.934 66.0596 411.706 66.0596C411.515 66.0596 411.353 66.0983 411.221 66.1758C411.089 66.2533 410.984 66.374 410.906 66.5381C410.829 66.7021 410.772 66.9163 410.735 67.1807C410.699 67.4404 410.681 67.7526 410.681 68.1172V68.7256C410.681 69.0674 410.71 69.3545 410.77 69.5869C410.829 69.8148 410.915 70.0016 411.029 70.1475C411.148 70.2887 411.291 70.3913 411.46 70.4551C411.629 70.5143 411.825 70.5439 412.048 70.5439C412.385 70.5439 412.688 70.4847 412.957 70.3662C413.23 70.2432 413.463 70.0768 413.654 69.8672L414.42 71.0293C414.288 71.2025 414.105 71.3757 413.873 71.5488C413.641 71.722 413.363 71.8633 413.039 71.9727C412.715 72.082 412.342 72.1367 411.918 72.1367Z" fill="url(#paint1_linear_1405_1461)"/>
<path d="M648.861 62.0469V72H646.858V62.0469H648.861ZM651.979 66.2783V67.9326H648.355V66.2783H651.979ZM652.361 62.0469V63.708H648.355V62.0469H652.361ZM656.463 70.2979V66.8799C656.463 66.6566 656.436 66.4788 656.381 66.3467C656.331 66.2145 656.253 66.1188 656.148 66.0596C656.048 65.9958 655.925 65.9639 655.779 65.9639C655.615 65.9639 655.479 65.998 655.369 66.0664C655.26 66.1348 655.178 66.2327 655.123 66.3604C655.073 66.488 655.048 66.6406 655.048 66.8184H653.127C653.127 66.4993 653.188 66.1986 653.312 65.916C653.435 65.6289 653.615 65.3783 653.852 65.1641C654.093 64.9453 654.38 64.7744 654.713 64.6514C655.046 64.5283 655.419 64.4668 655.834 64.4668C656.326 64.4668 656.764 64.5511 657.146 64.7197C657.529 64.8838 657.832 65.1458 658.056 65.5059C658.279 65.8659 658.391 66.333 658.391 66.9072V70.2021C658.391 70.6169 658.411 70.9541 658.452 71.2139C658.498 71.4736 658.564 71.6969 658.65 71.8838V72H656.723C656.636 71.7949 656.57 71.5397 656.524 71.2344C656.483 70.9245 656.463 70.6123 656.463 70.2979ZM656.695 67.4814L656.702 68.6299H655.998C655.816 68.6299 655.656 68.6595 655.52 68.7188C655.387 68.778 655.276 68.8623 655.185 68.9717C655.093 69.0765 655.025 69.1995 654.979 69.3408C654.938 69.4821 654.918 69.6325 654.918 69.792C654.918 69.9697 654.943 70.1201 654.993 70.2432C655.043 70.3662 655.118 70.4596 655.219 70.5234C655.319 70.5872 655.438 70.6191 655.574 70.6191C655.784 70.6191 655.966 70.5758 656.121 70.4893C656.276 70.4027 656.39 70.2979 656.463 70.1748C656.54 70.0518 656.565 69.9378 656.538 69.833L656.976 70.5781C656.921 70.7467 656.846 70.9222 656.75 71.1045C656.659 71.2868 656.543 71.4554 656.401 71.6104C656.26 71.7653 656.085 71.8929 655.875 71.9932C655.67 72.0889 655.426 72.1367 655.144 72.1367C654.747 72.1367 654.385 72.0456 654.057 71.8633C653.729 71.681 653.469 71.4258 653.277 71.0977C653.09 70.7695 652.997 70.3799 652.997 69.9287C652.997 69.555 653.056 69.2178 653.175 68.917C653.298 68.6117 653.48 68.3542 653.722 68.1445C653.963 67.9303 654.269 67.7663 654.638 67.6523C655.007 67.5384 655.44 67.4814 655.937 67.4814H656.695ZM662.479 70.5439C662.656 70.5439 662.809 70.5075 662.937 70.4346C663.069 70.3617 663.169 70.2432 663.237 70.0791C663.306 69.915 663.342 69.7031 663.347 69.4434H665.145C665.145 69.9993 665.026 70.4801 664.789 70.8857C664.557 71.2868 664.242 71.5967 663.846 71.8154C663.454 72.0296 663.009 72.1367 662.513 72.1367C662.016 72.1367 661.583 72.057 661.214 71.8975C660.845 71.738 660.539 71.5055 660.298 71.2002C660.061 70.8949 659.881 70.5234 659.758 70.0859C659.639 69.6439 659.58 69.138 659.58 68.5684V68.0283C659.58 67.4678 659.639 66.9665 659.758 66.5244C659.881 66.0824 660.061 65.7087 660.298 65.4033C660.539 65.098 660.842 64.8656 661.207 64.7061C661.576 64.5465 662.009 64.4668 662.506 64.4668C663.039 64.4668 663.502 64.5785 663.894 64.8018C664.285 65.0205 664.591 65.3441 664.81 65.7725C665.033 66.2008 665.145 66.7295 665.145 67.3584H663.347C663.342 67.0758 663.308 66.8411 663.244 66.6543C663.185 66.4629 663.091 66.3171 662.964 66.2168C662.841 66.112 662.677 66.0596 662.472 66.0596C662.257 66.0596 662.084 66.1051 661.952 66.1963C661.825 66.2829 661.727 66.4105 661.658 66.5791C661.594 66.7432 661.551 66.9482 661.528 67.1943C661.506 67.4404 661.494 67.7184 661.494 68.0283V68.5684C661.494 68.901 661.503 69.1904 661.521 69.4365C661.544 69.6781 661.588 69.8831 661.651 70.0518C661.72 70.2158 661.818 70.3389 661.945 70.4209C662.077 70.5029 662.255 70.5439 662.479 70.5439ZM669.472 64.6035V66.0459H665.698V64.6035H669.472ZM666.566 62.7783H668.474V69.7441C668.474 69.9492 668.494 70.1064 668.535 70.2158C668.576 70.3252 668.638 70.4027 668.72 70.4482C668.806 70.4893 668.92 70.5098 669.062 70.5098C669.157 70.5098 669.246 70.5052 669.328 70.4961C669.41 70.4824 669.472 70.4688 669.513 70.4551V71.9521C669.362 72.0114 669.203 72.057 669.034 72.0889C668.87 72.1208 668.674 72.1367 668.446 72.1367C668.063 72.1367 667.731 72.0638 667.448 71.918C667.17 71.7721 666.954 71.5397 666.799 71.2207C666.644 70.8971 666.566 70.4733 666.566 69.9492V62.7783ZM674.113 70.2227V64.6035H676.034V72H674.229L674.113 70.2227ZM674.332 68.6982L674.865 68.6846C674.865 69.1813 674.817 69.6416 674.722 70.0654C674.626 70.4847 674.482 70.8493 674.291 71.1592C674.1 71.4691 673.86 71.7106 673.573 71.8838C673.286 72.0524 672.947 72.1367 672.555 72.1367C672.254 72.1367 671.976 72.0866 671.721 71.9863C671.47 71.8815 671.254 71.7197 671.071 71.501C670.889 71.2777 670.745 70.9928 670.641 70.6465C670.54 70.2956 670.49 69.874 670.49 69.3818V64.6035H672.411V69.4023C672.411 69.6029 672.429 69.776 672.466 69.9219C672.502 70.0632 672.552 70.1794 672.616 70.2705C672.68 70.3617 672.755 70.4277 672.842 70.4688C672.928 70.5052 673.026 70.5234 673.136 70.5234C673.437 70.5234 673.674 70.446 673.847 70.291C674.024 70.1315 674.15 69.915 674.223 69.6416C674.296 69.3636 674.332 69.0492 674.332 68.6982ZM679.343 66.251V72H677.429V64.6035H679.233L679.343 66.251ZM681.086 64.5488L681.059 66.4561C680.972 66.4378 680.867 66.4242 680.744 66.415C680.626 66.4059 680.521 66.4014 680.43 66.4014C680.215 66.4014 680.033 66.4355 679.883 66.5039C679.732 66.5677 679.607 66.6657 679.507 66.7979C679.411 66.9255 679.338 67.085 679.288 67.2764C679.238 67.4678 679.208 67.6842 679.199 67.9258L678.837 67.7891C678.837 67.306 678.873 66.8639 678.946 66.4629C679.024 66.0573 679.138 65.7064 679.288 65.4102C679.438 65.1094 679.618 64.877 679.828 64.7129C680.042 64.5488 680.284 64.4668 680.553 64.4668C680.644 64.4668 680.74 64.4759 680.84 64.4941C680.945 64.5078 681.027 64.526 681.086 64.5488ZM685.119 70.2979V66.8799C685.119 66.6566 685.092 66.4788 685.037 66.3467C684.987 66.2145 684.91 66.1188 684.805 66.0596C684.704 65.9958 684.581 65.9639 684.436 65.9639C684.271 65.9639 684.135 65.998 684.025 66.0664C683.916 66.1348 683.834 66.2327 683.779 66.3604C683.729 66.488 683.704 66.6406 683.704 66.8184H681.783C681.783 66.4993 681.845 66.1986 681.968 65.916C682.091 65.6289 682.271 65.3783 682.508 65.1641C682.749 64.9453 683.036 64.7744 683.369 64.6514C683.702 64.5283 684.076 64.4668 684.49 64.4668C684.982 64.4668 685.42 64.5511 685.803 64.7197C686.186 64.8838 686.489 65.1458 686.712 65.5059C686.935 65.8659 687.047 66.333 687.047 66.9072V70.2021C687.047 70.6169 687.067 70.9541 687.108 71.2139C687.154 71.4736 687.22 71.6969 687.307 71.8838V72H685.379C685.292 71.7949 685.226 71.5397 685.181 71.2344C685.14 70.9245 685.119 70.6123 685.119 70.2979ZM685.352 67.4814L685.358 68.6299H684.654C684.472 68.6299 684.312 68.6595 684.176 68.7188C684.044 68.778 683.932 68.8623 683.841 68.9717C683.75 69.0765 683.681 69.1995 683.636 69.3408C683.595 69.4821 683.574 69.6325 683.574 69.792C683.574 69.9697 683.599 70.1201 683.649 70.2432C683.7 70.3662 683.775 70.4596 683.875 70.5234C683.975 70.5872 684.094 70.6191 684.23 70.6191C684.44 70.6191 684.622 70.5758 684.777 70.4893C684.932 70.4027 685.046 70.2979 685.119 70.1748C685.197 70.0518 685.222 69.9378 685.194 69.833L685.632 70.5781C685.577 70.7467 685.502 70.9222 685.406 71.1045C685.315 71.2868 685.199 71.4554 685.058 71.6104C684.916 71.7653 684.741 71.8929 684.531 71.9932C684.326 72.0889 684.082 72.1367 683.8 72.1367C683.403 72.1367 683.041 72.0456 682.713 71.8633C682.385 71.681 682.125 71.4258 681.934 71.0977C681.747 70.7695 681.653 70.3799 681.653 69.9287C681.653 69.555 681.713 69.2178 681.831 68.917C681.954 68.6117 682.136 68.3542 682.378 68.1445C682.619 67.9303 682.925 67.7663 683.294 67.6523C683.663 67.5384 684.096 67.4814 684.593 67.4814H685.352ZM690.376 66.251V72H688.462V64.6035H690.267L690.376 66.251ZM692.119 64.5488L692.092 66.4561C692.005 66.4378 691.9 66.4242 691.777 66.415C691.659 66.4059 691.554 66.4014 691.463 66.4014C691.249 66.4014 691.066 66.4355 690.916 66.5039C690.766 66.5677 690.64 66.6657 690.54 66.7979C690.444 66.9255 690.371 67.085 690.321 67.2764C690.271 67.4678 690.242 67.6842 690.232 67.9258L689.87 67.7891C689.87 67.306 689.907 66.8639 689.979 66.4629C690.057 66.0573 690.171 65.7064 690.321 65.4102C690.472 65.1094 690.652 64.877 690.861 64.7129C691.076 64.5488 691.317 64.4668 691.586 64.4668C691.677 64.4668 691.773 64.4759 691.873 64.4941C691.978 64.5078 692.06 64.526 692.119 64.5488ZM695.94 72.1367C695.435 72.1367 694.986 72.0592 694.594 71.9043C694.206 71.7493 693.878 71.526 693.609 71.2344C693.34 70.9382 693.135 70.5804 692.994 70.1611C692.853 69.7419 692.782 69.2633 692.782 68.7256V68.1172C692.782 67.5156 692.851 66.9893 692.987 66.5381C693.124 66.0824 693.318 65.6995 693.568 65.3896C693.819 65.0798 694.127 64.8496 694.491 64.6992C694.86 64.5443 695.277 64.4668 695.742 64.4668C696.207 64.4668 696.615 64.5443 696.966 64.6992C697.321 64.8496 697.615 65.0775 697.848 65.3828C698.08 65.6836 698.256 66.0573 698.374 66.5039C698.493 66.9505 698.552 67.4701 698.552 68.0625V68.9375H693.596V67.5908H696.672V67.4199C696.672 67.1191 696.64 66.8685 696.576 66.668C696.512 66.4629 696.412 66.3102 696.275 66.21C696.139 66.1097 695.956 66.0596 695.729 66.0596C695.537 66.0596 695.375 66.0983 695.243 66.1758C695.111 66.2533 695.006 66.374 694.929 66.5381C694.851 66.7021 694.794 66.9163 694.758 67.1807C694.721 67.4404 694.703 67.7526 694.703 68.1172V68.7256C694.703 69.0674 694.733 69.3545 694.792 69.5869C694.851 69.8148 694.938 70.0016 695.052 70.1475C695.17 70.2887 695.314 70.3913 695.482 70.4551C695.651 70.5143 695.847 70.5439 696.07 70.5439C696.408 70.5439 696.711 70.4847 696.979 70.3662C697.253 70.2432 697.485 70.0768 697.677 69.8672L698.442 71.0293C698.31 71.2025 698.128 71.3757 697.896 71.5488C697.663 71.722 697.385 71.8633 697.062 71.9727C696.738 72.082 696.364 72.1367 695.94 72.1367Z" fill="url(#paint2_linear_1405_1461)"/>
<path d="M946.586 67.874L948.473 60.0469H950.633L947.748 70H946.292L946.586 67.874ZM944.973 60.0469L946.853 67.874L947.16 70H945.697L942.833 60.0469H944.973ZM954.167 70.1367C953.661 70.1367 953.212 70.0592 952.82 69.9043C952.433 69.7493 952.105 69.526 951.836 69.2344C951.567 68.9382 951.362 68.5804 951.221 68.1611C951.079 67.7419 951.009 67.2633 951.009 66.7256V66.1172C951.009 65.5156 951.077 64.9893 951.214 64.5381C951.351 64.0824 951.544 63.6995 951.795 63.3896C952.046 63.0798 952.353 62.8496 952.718 62.6992C953.087 62.5443 953.504 62.4668 953.969 62.4668C954.434 62.4668 954.841 62.5443 955.192 62.6992C955.548 62.8496 955.842 63.0775 956.074 63.3828C956.307 63.6836 956.482 64.0573 956.601 64.5039C956.719 64.9505 956.778 65.4701 956.778 66.0625V66.9375H951.822V65.5908H954.898V65.4199C954.898 65.1191 954.867 64.8685 954.803 64.668C954.739 64.4629 954.639 64.3102 954.502 64.21C954.365 64.1097 954.183 64.0596 953.955 64.0596C953.764 64.0596 953.602 64.0983 953.47 64.1758C953.338 64.2533 953.233 64.374 953.155 64.5381C953.078 64.7021 953.021 64.9163 952.984 65.1807C952.948 65.4404 952.93 65.7526 952.93 66.1172V66.7256C952.93 67.0674 952.959 67.3545 953.019 67.5869C953.078 67.8148 953.164 68.0016 953.278 68.1475C953.397 68.2887 953.54 68.3913 953.709 68.4551C953.878 68.5143 954.074 68.5439 954.297 68.5439C954.634 68.5439 954.937 68.4847 955.206 68.3662C955.479 68.2432 955.712 68.0768 955.903 67.8672L956.669 69.0293C956.537 69.2025 956.354 69.3757 956.122 69.5488C955.89 69.722 955.612 69.8633 955.288 69.9727C954.965 70.082 954.591 70.1367 954.167 70.1367ZM959.8 64.251V70H957.886V62.6035H959.69L959.8 64.251ZM961.543 62.5488L961.516 64.4561C961.429 64.4378 961.324 64.4242 961.201 64.415C961.083 64.4059 960.978 64.4014 960.887 64.4014C960.673 64.4014 960.49 64.4355 960.34 64.5039C960.189 64.5677 960.064 64.6657 959.964 64.7979C959.868 64.9255 959.795 65.085 959.745 65.2764C959.695 65.4678 959.665 65.6842 959.656 65.9258L959.294 65.7891C959.294 65.306 959.33 64.8639 959.403 64.4629C959.481 64.0573 959.595 63.7064 959.745 63.4102C959.896 63.1094 960.076 62.877 960.285 62.7129C960.499 62.5488 960.741 62.4668 961.01 62.4668C961.101 62.4668 961.197 62.4759 961.297 62.4941C961.402 62.5078 961.484 62.526 961.543 62.5488ZM964.53 62.6035V70H962.609V62.6035H964.53ZM962.521 60.6895C962.521 60.3932 962.614 60.1494 962.801 59.958C962.992 59.762 963.247 59.6641 963.566 59.6641C963.89 59.6641 964.145 59.762 964.332 59.958C964.519 60.1494 964.612 60.3932 964.612 60.6895C964.612 60.9811 964.517 61.2249 964.325 61.4209C964.138 61.6123 963.888 61.708 963.573 61.708C963.25 61.708 962.992 61.6123 962.801 61.4209C962.614 61.2249 962.521 60.9811 962.521 60.6895ZM968.358 70H966.444V62.2959C966.444 61.6579 966.556 61.1224 966.779 60.6895C967.007 60.252 967.335 59.9215 967.764 59.6982C968.197 59.4704 968.714 59.3564 969.315 59.3564C969.662 59.3564 969.99 59.3952 970.3 59.4727C970.614 59.5456 970.938 59.6413 971.271 59.7598L970.997 61.3867C970.797 61.3138 970.571 61.2454 970.32 61.1816C970.074 61.1133 969.783 61.0791 969.445 61.0791C969.076 61.0791 968.803 61.1816 968.625 61.3867C968.447 61.5918 968.358 61.8949 968.358 62.2959V70ZM969.5 62.6035V64.0459H965.542V62.6035H969.5ZM972.152 62.6035V70H970.231V62.6035H972.152ZM976.35 68.5439C976.527 68.5439 976.68 68.5075 976.808 68.4346C976.94 68.3617 977.04 68.2432 977.108 68.0791C977.177 67.915 977.213 67.7031 977.218 67.4434H979.016C979.016 67.9993 978.897 68.4801 978.66 68.8857C978.428 69.2868 978.113 69.5967 977.717 69.8154C977.325 70.0296 976.881 70.1367 976.384 70.1367C975.887 70.1367 975.454 70.057 975.085 69.8975C974.716 69.738 974.41 69.5055 974.169 69.2002C973.932 68.8949 973.752 68.5234 973.629 68.0859C973.51 67.6439 973.451 67.138 973.451 66.5684V66.0283C973.451 65.4678 973.51 64.9665 973.629 64.5244C973.752 64.0824 973.932 63.7087 974.169 63.4033C974.41 63.098 974.714 62.8656 975.078 62.7061C975.447 62.5465 975.88 62.4668 976.377 62.4668C976.91 62.4668 977.373 62.5785 977.765 62.8018C978.157 63.0205 978.462 63.3441 978.681 63.7725C978.904 64.2008 979.016 64.7295 979.016 65.3584H977.218C977.213 65.0758 977.179 64.8411 977.115 64.6543C977.056 64.4629 976.963 64.3171 976.835 64.2168C976.712 64.112 976.548 64.0596 976.343 64.0596C976.129 64.0596 975.955 64.1051 975.823 64.1963C975.696 64.2829 975.598 64.4105 975.529 64.5791C975.465 64.7432 975.422 64.9482 975.399 65.1943C975.377 65.4404 975.365 65.7184 975.365 66.0283V66.5684C975.365 66.901 975.374 67.1904 975.393 67.4365C975.415 67.6781 975.459 67.8831 975.522 68.0518C975.591 68.2158 975.689 68.3389 975.816 68.4209C975.949 68.5029 976.126 68.5439 976.35 68.5439ZM983.377 68.2979V64.8799C983.377 64.6566 983.35 64.4788 983.295 64.3467C983.245 64.2145 983.167 64.1188 983.062 64.0596C982.962 63.9958 982.839 63.9639 982.693 63.9639C982.529 63.9639 982.393 63.998 982.283 64.0664C982.174 64.1348 982.092 64.2327 982.037 64.3604C981.987 64.488 981.962 64.6406 981.962 64.8184H980.041C980.041 64.4993 980.103 64.1986 980.226 63.916C980.349 63.6289 980.529 63.3783 980.766 63.1641C981.007 62.9453 981.294 62.7744 981.627 62.6514C981.96 62.5283 982.333 62.4668 982.748 62.4668C983.24 62.4668 983.678 62.5511 984.061 62.7197C984.443 62.8838 984.746 63.1458 984.97 63.5059C985.193 63.8659 985.305 64.333 985.305 64.9072V68.2021C985.305 68.6169 985.325 68.9541 985.366 69.2139C985.412 69.4736 985.478 69.6969 985.564 69.8838V70H983.637C983.55 69.7949 983.484 69.5397 983.438 69.2344C983.397 68.9245 983.377 68.6123 983.377 68.2979ZM983.609 65.4814L983.616 66.6299H982.912C982.73 66.6299 982.57 66.6595 982.434 66.7188C982.301 66.778 982.19 66.8623 982.099 66.9717C982.007 67.0765 981.939 67.1995 981.894 67.3408C981.853 67.4821 981.832 67.6325 981.832 67.792C981.832 67.9697 981.857 68.1201 981.907 68.2432C981.957 68.3662 982.033 68.4596 982.133 68.5234C982.233 68.5872 982.352 68.6191 982.488 68.6191C982.698 68.6191 982.88 68.5758 983.035 68.4893C983.19 68.4027 983.304 68.2979 983.377 68.1748C983.454 68.0518 983.479 67.9378 983.452 67.833L983.89 68.5781C983.835 68.7467 983.76 68.9222 983.664 69.1045C983.573 69.2868 983.457 69.4554 983.315 69.6104C983.174 69.7653 982.999 69.8929 982.789 69.9932C982.584 70.0889 982.34 70.1367 982.058 70.1367C981.661 70.1367 981.299 70.0456 980.971 69.8633C980.643 69.681 980.383 69.4258 980.191 69.0977C980.005 68.7695 979.911 68.3799 979.911 67.9287C979.911 67.555 979.97 67.2178 980.089 66.917C980.212 66.6117 980.394 66.3542 980.636 66.1445C980.877 65.9303 981.183 65.7663 981.552 65.6523C981.921 65.5384 982.354 65.4814 982.851 65.4814H983.609ZM988.634 64.251V70H986.72V62.6035H988.524L988.634 64.251ZM990.377 62.5488L990.35 64.4561C990.263 64.4378 990.158 64.4242 990.035 64.415C989.917 64.4059 989.812 64.4014 989.721 64.4014C989.507 64.4014 989.324 64.4355 989.174 64.5039C989.023 64.5677 988.898 64.6657 988.798 64.7979C988.702 64.9255 988.629 65.085 988.579 65.2764C988.529 65.4678 988.499 65.6842 988.49 65.9258L988.128 65.7891C988.128 65.306 988.164 64.8639 988.237 64.4629C988.315 64.0573 988.429 63.7064 988.579 63.4102C988.729 63.1094 988.91 62.877 989.119 62.7129C989.333 62.5488 989.575 62.4668 989.844 62.4668C989.935 62.4668 990.031 62.4759 990.131 62.4941C990.236 62.5078 990.318 62.526 990.377 62.5488ZM994.198 70.1367C993.692 70.1367 993.243 70.0592 992.852 69.9043C992.464 69.7493 992.136 69.526 991.867 69.2344C991.598 68.9382 991.393 68.5804 991.252 68.1611C991.111 67.7419 991.04 67.2633 991.04 66.7256V66.1172C991.04 65.5156 991.108 64.9893 991.245 64.5381C991.382 64.0824 991.576 63.6995 991.826 63.3896C992.077 63.0798 992.384 62.8496 992.749 62.6992C993.118 62.5443 993.535 62.4668 994 62.4668C994.465 62.4668 994.873 62.5443 995.224 62.6992C995.579 62.8496 995.873 63.0775 996.105 63.3828C996.338 63.6836 996.513 64.0573 996.632 64.5039C996.75 64.9505 996.81 65.4701 996.81 66.0625V66.9375H991.854V65.5908H994.93V65.4199C994.93 65.1191 994.898 64.8685 994.834 64.668C994.77 64.4629 994.67 64.3102 994.533 64.21C994.396 64.1097 994.214 64.0596 993.986 64.0596C993.795 64.0596 993.633 64.0983 993.501 64.1758C993.369 64.2533 993.264 64.374 993.187 64.5381C993.109 64.7021 993.052 64.9163 993.016 65.1807C992.979 65.4404 992.961 65.7526 992.961 66.1172V66.7256C992.961 67.0674 992.991 67.3545 993.05 67.5869C993.109 67.8148 993.196 68.0016 993.31 68.1475C993.428 68.2887 993.572 68.3913 993.74 68.4551C993.909 68.5143 994.105 68.5439 994.328 68.5439C994.665 68.5439 994.968 68.4847 995.237 68.3662C995.511 68.2432 995.743 68.0768 995.935 67.8672L996.7 69.0293C996.568 69.2025 996.386 69.3757 996.153 69.5488C995.921 69.722 995.643 69.8633 995.319 69.9727C994.996 70.082 994.622 70.1367 994.198 70.1367ZM1004.42 68.0039C1004.42 67.8763 1004.38 67.7624 1004.29 67.6621C1004.21 67.5618 1004.07 67.4593 1003.88 67.3545C1003.7 67.2451 1003.45 67.1243 1003.14 66.9922C1002.8 66.8555 1002.5 66.7142 1002.24 66.5684C1001.98 66.4225 1001.76 66.2607 1001.58 66.083C1001.4 65.9053 1001.27 65.7025 1001.18 65.4746C1001.09 65.2467 1001.04 64.987 1001.04 64.6953C1001.04 64.3809 1001.1 64.0915 1001.21 63.8271C1001.33 63.5583 1001.5 63.3236 1001.72 63.123C1001.94 62.918 1002.2 62.7585 1002.52 62.6445C1002.84 62.526 1003.19 62.4668 1003.59 62.4668C1004.15 62.4668 1004.62 62.5648 1005.02 62.7607C1005.42 62.9521 1005.73 63.221 1005.94 63.5674C1006.16 63.9137 1006.26 64.3171 1006.26 64.7773H1004.35C1004.35 64.6133 1004.32 64.4674 1004.27 64.3398C1004.22 64.2077 1004.14 64.1051 1004.03 64.0322C1003.92 63.9593 1003.77 63.9229 1003.58 63.9229C1003.45 63.9229 1003.32 63.9525 1003.21 64.0117C1003.11 64.071 1003.03 64.1507 1002.96 64.251C1002.9 64.3467 1002.87 64.4606 1002.87 64.5928C1002.87 64.693 1002.89 64.7819 1002.93 64.8594C1002.98 64.9368 1003.05 65.012 1003.15 65.085C1003.24 65.1579 1003.37 65.2354 1003.53 65.3174C1003.69 65.3949 1003.89 65.4814 1004.13 65.5771C1004.62 65.7594 1005.03 65.9554 1005.34 66.165C1005.66 66.3747 1005.9 66.6208 1006.05 66.9033C1006.21 67.1813 1006.28 67.5254 1006.28 67.9355C1006.28 68.2637 1006.22 68.5622 1006.09 68.8311C1005.97 69.0999 1005.79 69.3324 1005.55 69.5283C1005.32 69.7243 1005.03 69.8747 1004.7 69.9795C1004.37 70.0843 1004 70.1367 1003.6 70.1367C1003 70.1367 1002.5 70.0182 1002.09 69.7812C1001.68 69.5443 1001.37 69.2412 1001.16 68.8721C1000.95 68.4984 1000.84 68.111 1000.84 67.71H1002.66C1002.67 67.9561 1002.72 68.1497 1002.8 68.291C1002.88 68.4277 1003 68.5234 1003.15 68.5781C1003.29 68.6328 1003.45 68.6602 1003.63 68.6602C1003.81 68.6602 1003.96 68.6374 1004.07 68.5918C1004.19 68.5417 1004.28 68.4665 1004.34 68.3662C1004.4 68.2614 1004.42 68.1406 1004.42 68.0039ZM1004.33 70.7109V71.1963C1004.33 71.6247 1004.24 72.0622 1004.07 72.5088C1003.9 72.9554 1003.69 73.3223 1003.43 73.6094L1002.49 73.0693C1002.62 72.8187 1002.73 72.5566 1002.81 72.2832C1002.89 72.0098 1002.93 71.6816 1002.93 71.2988V70.7109H1004.33ZM1009.51 62.6035V70H1007.59V62.6035H1009.51ZM1007.5 60.6895C1007.5 60.3932 1007.59 60.1494 1007.78 59.958C1007.97 59.762 1008.23 59.6641 1008.55 59.6641C1008.87 59.6641 1009.13 59.762 1009.31 59.958C1009.5 60.1494 1009.59 60.3932 1009.59 60.6895C1009.59 60.9811 1009.5 61.2249 1009.31 61.4209C1009.12 61.6123 1008.87 61.708 1008.55 61.708C1008.23 61.708 1007.97 61.6123 1007.78 61.4209C1007.59 61.2249 1007.5 60.9811 1007.5 60.6895ZM965.146 84.0254V92.8438H963.238V82.6035H965.002L965.146 84.0254ZM968.987 86.0488V86.541C968.987 87.1198 968.937 87.6325 968.837 88.0791C968.737 88.5212 968.586 88.8971 968.386 89.207C968.19 89.5124 967.944 89.7448 967.647 89.9043C967.351 90.0592 967.005 90.1367 966.608 90.1367C966.239 90.1367 965.92 90.0501 965.651 89.877C965.387 89.6992 965.164 89.4554 964.981 89.1455C964.799 88.8356 964.653 88.4733 964.544 88.0586C964.435 87.6439 964.35 87.1995 964.291 86.7256V85.96C964.346 85.4541 964.425 84.9893 964.53 84.5654C964.635 84.137 964.779 83.7656 964.961 83.4512C965.148 83.1367 965.373 82.8952 965.638 82.7266C965.907 82.5534 966.226 82.4668 966.595 82.4668C966.996 82.4668 967.344 82.5397 967.641 82.6855C967.941 82.8314 968.19 83.0524 968.386 83.3486C968.586 83.6403 968.737 84.0117 968.837 84.4629C968.937 84.9141 968.987 85.4427 968.987 86.0488ZM967.073 86.541V86.0488C967.073 85.6934 967.053 85.3903 967.012 85.1396C966.975 84.889 966.916 84.6839 966.834 84.5244C966.752 84.3649 966.645 84.2487 966.513 84.1758C966.381 84.1029 966.219 84.0664 966.027 84.0664C965.84 84.0664 965.676 84.1029 965.535 84.1758C965.398 84.2487 965.287 84.3558 965.2 84.4971C965.114 84.6338 965.048 84.8024 965.002 85.0029C964.956 85.1989 964.931 85.4222 964.927 85.6729V87.0127C964.936 87.3089 964.975 87.571 965.043 87.7988C965.116 88.0267 965.232 88.209 965.392 88.3457C965.551 88.4779 965.768 88.5439 966.041 88.5439C966.237 88.5439 966.399 88.5029 966.526 88.4209C966.659 88.3389 966.766 88.2158 966.848 88.0518C966.93 87.8877 966.987 87.6803 967.019 87.4297C967.055 87.179 967.073 86.8828 967.073 86.541ZM972.173 79.5V90H970.252V79.5H972.173ZM976.951 88.2979V84.8799C976.951 84.6566 976.924 84.4788 976.869 84.3467C976.819 84.2145 976.742 84.1188 976.637 84.0596C976.536 83.9958 976.413 83.9639 976.268 83.9639C976.104 83.9639 975.967 83.998 975.857 84.0664C975.748 84.1348 975.666 84.2327 975.611 84.3604C975.561 84.488 975.536 84.6406 975.536 84.8184H973.615C973.615 84.4993 973.677 84.1986 973.8 83.916C973.923 83.6289 974.103 83.3783 974.34 83.1641C974.581 82.9453 974.868 82.7744 975.201 82.6514C975.534 82.5283 975.908 82.4668 976.322 82.4668C976.814 82.4668 977.252 82.5511 977.635 82.7197C978.018 82.8838 978.321 83.1458 978.544 83.5059C978.767 83.8659 978.879 84.333 978.879 84.9072V88.2021C978.879 88.6169 978.899 88.9541 978.94 89.2139C978.986 89.4736 979.052 89.6969 979.139 89.8838V90H977.211C977.124 89.7949 977.058 89.5397 977.013 89.2344C976.972 88.9245 976.951 88.6123 976.951 88.2979ZM977.184 85.4814L977.19 86.6299H976.486C976.304 86.6299 976.145 86.6595 976.008 86.7188C975.876 86.778 975.764 86.8623 975.673 86.9717C975.582 87.0765 975.513 87.1995 975.468 87.3408C975.427 87.4821 975.406 87.6325 975.406 87.792C975.406 87.9697 975.431 88.1201 975.481 88.2432C975.532 88.3662 975.607 88.4596 975.707 88.5234C975.807 88.5872 975.926 88.6191 976.062 88.6191C976.272 88.6191 976.454 88.5758 976.609 88.4893C976.764 88.4027 976.878 88.2979 976.951 88.1748C977.029 88.0518 977.054 87.9378 977.026 87.833L977.464 88.5781C977.409 88.7467 977.334 88.9222 977.238 89.1045C977.147 89.2868 977.031 89.4554 976.89 89.6104C976.748 89.7653 976.573 89.8929 976.363 89.9932C976.158 90.0889 975.914 90.1367 975.632 90.1367C975.235 90.1367 974.873 90.0456 974.545 89.8633C974.217 89.681 973.957 89.4258 973.766 89.0977C973.579 88.7695 973.485 88.3799 973.485 87.9287C973.485 87.555 973.545 87.2178 973.663 86.917C973.786 86.6117 973.968 86.3542 974.21 86.1445C974.451 85.9303 974.757 85.7663 975.126 85.6523C975.495 85.5384 975.928 85.4814 976.425 85.4814H977.184ZM983.521 82.6035V84.0459H979.747V82.6035H983.521ZM980.615 80.7783H982.522V87.7441C982.522 87.9492 982.543 88.1064 982.584 88.2158C982.625 88.3252 982.687 88.4027 982.769 88.4482C982.855 88.4893 982.969 88.5098 983.11 88.5098C983.206 88.5098 983.295 88.5052 983.377 88.4961C983.459 88.4824 983.521 88.4688 983.562 88.4551V89.9521C983.411 90.0114 983.252 90.057 983.083 90.0889C982.919 90.1208 982.723 90.1367 982.495 90.1367C982.112 90.1367 981.78 90.0638 981.497 89.918C981.219 89.7721 981.003 89.5397 980.848 89.2207C980.693 88.8971 980.615 88.4733 980.615 87.9492V80.7783ZM987.848 88.2979V84.8799C987.848 84.6566 987.82 84.4788 987.766 84.3467C987.715 84.2145 987.638 84.1188 987.533 84.0596C987.433 83.9958 987.31 83.9639 987.164 83.9639C987 83.9639 986.863 83.998 986.754 84.0664C986.645 84.1348 986.562 84.2327 986.508 84.3604C986.458 84.488 986.433 84.6406 986.433 84.8184H984.512C984.512 84.4993 984.573 84.1986 984.696 83.916C984.819 83.6289 984.999 83.3783 985.236 83.1641C985.478 82.9453 985.765 82.7744 986.098 82.6514C986.43 82.5283 986.804 82.4668 987.219 82.4668C987.711 82.4668 988.148 82.5511 988.531 82.7197C988.914 82.8838 989.217 83.1458 989.44 83.5059C989.664 83.8659 989.775 84.333 989.775 84.9072V88.2021C989.775 88.6169 989.796 88.9541 989.837 89.2139C989.882 89.4736 989.949 89.6969 990.035 89.8838V90H988.107C988.021 89.7949 987.955 89.5397 987.909 89.2344C987.868 88.9245 987.848 88.6123 987.848 88.2979ZM988.08 85.4814L988.087 86.6299H987.383C987.201 86.6299 987.041 86.6595 986.904 86.7188C986.772 86.778 986.66 86.8623 986.569 86.9717C986.478 87.0765 986.41 87.1995 986.364 87.3408C986.323 87.4821 986.303 87.6325 986.303 87.792C986.303 87.9697 986.328 88.1201 986.378 88.2432C986.428 88.3662 986.503 88.4596 986.604 88.5234C986.704 88.5872 986.822 88.6191 986.959 88.6191C987.169 88.6191 987.351 88.5758 987.506 88.4893C987.661 88.4027 987.775 88.2979 987.848 88.1748C987.925 88.0518 987.95 87.9378 987.923 87.833L988.36 88.5781C988.306 88.7467 988.23 88.9222 988.135 89.1045C988.044 89.2868 987.927 89.4554 987.786 89.6104C987.645 89.7653 987.469 89.8929 987.26 89.9932C987.055 90.0889 986.811 90.1367 986.528 90.1367C986.132 90.1367 985.77 90.0456 985.441 89.8633C985.113 89.681 984.854 89.4258 984.662 89.0977C984.475 88.7695 984.382 88.3799 984.382 87.9287C984.382 87.555 984.441 87.2178 984.56 86.917C984.683 86.6117 984.865 86.3542 985.106 86.1445C985.348 85.9303 985.653 85.7663 986.022 85.6523C986.392 85.5384 986.825 85.4814 987.321 85.4814H988.08ZM988.114 79.5615H989.522C989.522 79.9626 989.424 80.3158 989.229 80.6211C989.037 80.9219 988.764 81.1589 988.408 81.332C988.057 81.5052 987.64 81.5918 987.157 81.5918C986.428 81.5918 985.852 81.4027 985.428 81.0244C985.004 80.6462 984.792 80.1585 984.792 79.5615H986.187C986.187 79.7985 986.259 80.0081 986.405 80.1904C986.551 80.3727 986.802 80.4639 987.157 80.4639C987.508 80.4639 987.754 80.3727 987.896 80.1904C988.041 80.0081 988.114 79.7985 988.114 79.5615Z" fill="url(#paint3_linear_1405_1461)"/>
<path fill-rule="evenodd" clip-rule="evenodd" d="M338 33H45V31H338V33Z" fill="url(#paint4_linear_1405_1461)"/>
<path fill-rule="evenodd" clip-rule="evenodd" d="M656 33H363V31H656V33Z" fill="url(#paint5_linear_1405_1461)"/>
<path fill-rule="evenodd" clip-rule="evenodd" d="M965 33H684V31H965V33Z" fill="url(#paint6_linear_1405_1461)"/>
<g filter="url(#filter0_d_1405_1461)">
<path d="M32 17C23.7125 17 17 23.7125 17 32C17 34.8125 17.7875 37.475 19.175 39.725C20.497 41.9468 22.3748 43.7861 24.6236 45.0617C26.8724 46.3373 29.4146 47.0053 32 47C37.475 47 42.2375 44.075 44.825 39.725C46.2125 37.475 47 34.8125 47 32C47 23.7125 40.2875 17 32 17ZM39.3875 30.7625L31.4 38.15C30.875 38.6375 30.1625 38.9 29.4875 38.9C28.775 38.9 28.0625 38.6375 27.5 38.075L23.7875 34.3625C23.2644 33.8332 22.9711 33.1191 22.9711 32.375C22.9711 31.6309 23.2644 30.9168 23.7875 30.3875C24.875 29.3 26.675 29.3 27.7625 30.3875L29.5625 32.1875L35.5625 26.6375C36.6875 25.5875 38.4875 25.6625 39.5375 26.7875C40.5875 27.9125 40.5125 29.7125 39.3875 30.7625Z" fill="url(#paint7_linear_1405_1461)"/>
</g>
<g filter="url(#filter1_d_1405_1461)">
<path d="M349 17C340.712 17 334 23.7125 334 32C334 34.8125 334.788 37.475 336.175 39.725C337.497 41.9468 339.375 43.7861 341.624 45.0617C343.872 46.3373 346.415 47.0053 349 47C354.475 47 359.238 44.075 361.825 39.725C363.213 37.475 364 34.8125 364 32C364 23.7125 357.288 17 349 17ZM356.387 30.7625L348.4 38.15C347.875 38.6375 347.162 38.9 346.487 38.9C345.775 38.9 345.062 38.6375 344.5 38.075L340.787 34.3625C340.264 33.8332 339.971 33.1191 339.971 32.375C339.971 31.6309 340.264 30.9168 340.787 30.3875C341.875 29.3 343.675 29.3 344.762 30.3875L346.562 32.1875L352.562 26.6375C353.687 25.5875 355.488 25.6625 356.538 26.7875C357.588 27.9125 357.512 29.7125 356.387 30.7625Z" fill="url(#paint8_linear_1405_1461)"/>
</g>
<g filter="url(#filter2_d_1405_1461)">
<path d="M670 17C661.712 17 655 23.7125 655 32C655 34.8125 655.788 37.475 657.175 39.725C658.497 41.9468 660.375 43.7861 662.624 45.0617C664.872 46.3373 667.415 47.0053 670 47C675.475 47 680.238 44.075 682.825 39.725C684.213 37.475 685 34.8125 685 32C685 23.7125 678.288 17 670 17ZM677.387 30.7625L669.4 38.15C668.875 38.6375 668.162 38.9 667.487 38.9C666.775 38.9 666.062 38.6375 665.5 38.075L661.787 34.3625C661.264 33.8332 660.971 33.1191 660.971 32.375C660.971 31.6309 661.264 30.9168 661.787 30.3875C662.875 29.3 664.675 29.3 665.762 30.3875L667.562 32.1875L673.562 26.6375C674.687 25.5875 676.488 25.6625 677.538 26.7875C678.588 27.9125 678.512 29.7125 677.387 30.7625Z" fill="url(#paint9_linear_1405_1461)"/>
</g>
<g filter="url(#filter3_d_1405_1461)">
<path d="M977 17C968.712 17 962 23.7125 962 32C962 34.8125 962.788 37.475 964.175 39.725C965.497 41.9468 967.375 43.7861 969.624 45.0617C971.872 46.3373 974.415 47.0053 977 47C982.475 47 987.238 44.075 989.825 39.725C991.213 37.475 992 34.8125 992 32C992 23.7125 985.288 17 977 17ZM984.387 30.7625L976.4 38.15C975.875 38.6375 975.162 38.9 974.487 38.9C973.775 38.9 973.062 38.6375 972.5 38.075L968.787 34.3625C968.264 33.8332 967.971 33.1191 967.971 32.375C967.971 31.6309 968.264 30.9168 968.787 30.3875C969.875 29.3 971.675 29.3 972.762 30.3875L974.562 32.1875L980.562 26.6375C981.687 25.5875 983.488 25.6625 984.538 26.7875C985.588 27.9125 985.512 29.7125 984.387 30.7625Z" fill="url(#paint10_linear_1405_1461)"/>
</g>
<defs>
<filter id="filter0_d_1405_1461" x="0" y="0" width="74" height="74" filterUnits="userSpaceOnUse" color-interpolation-filters="sRGB">
<feFlood flood-opacity="0" result="BackgroundImageFix"/>
<feColorMatrix in="SourceAlpha" type="matrix" values="0 0 0 0 0 0 0 0 0 0 0 0 0 0 0 0 0 0 127 0" result="hardAlpha"/>
<feOffset dx="5" dy="5"/>
<feGaussianBlur stdDeviation="11"/>
<feComposite in2="hardAlpha" operator="out"/>
<feColorMatrix type="matrix" values="0 0 0 0 0.0392157 0 0 0 0 0.560784 0 0 0 0 0.309804 0 0 0 0.2 0"/>
<feBlend mode="normal" in2="BackgroundImageFix" result="effect1_dropShadow_1405_1461"/>
<feBlend mode="normal" in="SourceGraphic" in2="effect1_dropShadow_1405_1461" result="shape"/>
</filter>
<filter id="filter1_d_1405_1461" x="317" y="0" width="74" height="74" filterUnits="userSpaceOnUse" color-interpolation-filters="sRGB">
<feFlood flood-opacity="0" result="BackgroundImageFix"/>
<feColorMatrix in="SourceAlpha" type="matrix" values="0 0 0 0 0 0 0 0 0 0 0 0 0 0 0 0 0 0 127 0" result="hardAlpha"/>
<feOffset dx="5" dy="5"/>
<feGaussianBlur stdDeviation="11"/>
<feComposite in2="hardAlpha" operator="out"/>
<feColorMatrix type="matrix" values="0 0 0 0 0.0392157 0 0 0 0 0.560784 0 0 0 0 0.309804 0 0 0 0.2 0"/>
<feBlend mode="normal" in2="BackgroundImageFix" result="effect1_dropShadow_1405_1461"/>
<feBlend mode="normal" in="SourceGraphic" in2="effect1_dropShadow_1405_1461" result="shape"/>
</filter>
<filter id="filter2_d_1405_1461" x="638" y="0" width="74" height="74" filterUnits="userSpaceOnUse" color-interpolation-filters="sRGB">
<feFlood flood-opacity="0" result="BackgroundImageFix"/>
<feColorMatrix in="SourceAlpha" type="matrix" values="0 0 0 0 0 0 0 0 0 0 0 0 0 0 0 0 0 0 127 0" result="hardAlpha"/>
<feOffset dx="5" dy="5"/>
<feGaussianBlur stdDeviation="11"/>
<feComposite in2="hardAlpha" operator="out"/>
<feColorMatrix type="matrix" values="0 0 0 0 0.0392157 0 0 0 0 0.560784 0 0 0 0 0.309804 0 0 0 0.2 0"/>
<feBlend mode="normal" in2="BackgroundImageFix" result="effect1_dropShadow_1405_1461"/>
<feBlend mode="normal" in="SourceGraphic" in2="effect1_dropShadow_1405_1461" result="shape"/>
</filter>
<filter id="filter3_d_1405_1461" x="945" y="0" width="74" height="74" filterUnits="userSpaceOnUse" color-interpolation-filters="sRGB">
<feFlood flood-opacity="0" result="BackgroundImageFix"/>
<feColorMatrix in="SourceAlpha" type="matrix" values="0 0 0 0 0 0 0 0 0 0 0 0 0 0 0 0 0 0 127 0" result="hardAlpha"/>
<feOffset dx="5" dy="5"/>
<feGaussianBlur stdDeviation="11"/>
<feComposite in2="hardAlpha" operator="out"/>
<feColorMatrix type="matrix" values="0 0 0 0 0.0392157 0 0 0 0 0.560784 0 0 0 0 0.309804 0 0 0 0.2 0"/>
<feBlend mode="normal" in2="BackgroundImageFix" result="effect1_dropShadow_1405_1461"/>
<feBlend mode="normal" in="SourceGraphic" in2="effect1_dropShadow_1405_1461" result="shape"/>
</filter>
<linearGradient id="paint0_linear_1405_1461" x1="32" y1="85" x2="32" y2="57" gradientUnits="userSpaceOnUse">
<stop stop-color="#5CCC94"/>
<stop offset="1" stop-color="#8CCAAE"/>
</linearGradient>
<linearGradient id="paint1_linear_1405_1461" x1="349" y1="77" x2="349" y2="57" gradientUnits="userSpaceOnUse">
<stop stop-color="#5CCC94"/>
<stop offset="1" stop-color="#8CCAAE"/>
</linearGradient>
<linearGradient id="paint2_linear_1405_1461" x1="672.5" y1="77" x2="672.5" y2="57" gradientUnits="userSpaceOnUse">
<stop stop-color="#5CCC94"/>
<stop offset="1" stop-color="#8CCAAE"/>
</linearGradient>
<linearGradient id="paint3_linear_1405_1461" x1="976.5" y1="95" x2="976.5" y2="55" gradientUnits="userSpaceOnUse">
<stop stop-color="#5CCC94"/>
<stop offset="1" stop-color="#8CCAAE"/>
</linearGradient>
<linearGradient id="paint4_linear_1405_1461" x1="191.5" y1="33" x2="191.5" y2="31" gradientUnits="userSpaceOnUse">
<stop stop-color="#5CCC94"/>
<stop offset="1" stop-color="#8CCAAE"/>
</linearGradient>
<linearGradient id="paint5_linear_1405_1461" x1="509.5" y1="33" x2="509.5" y2="31" gradientUnits="userSpaceOnUse">
<stop stop-color="#5CCC94"/>
<stop offset="1" stop-color="#8CCAAE"/>
</linearGradient>
<linearGradient id="paint6_linear_1405_1461" x1="824.5" y1="33" x2="824.5" y2="31" gradientUnits="userSpaceOnUse">
<stop stop-color="#5CCC94"/>
<stop offset="1" stop-color="#8CCAAE"/>
</linearGradient>
<linearGradient id="paint7_linear_1405_1461" x1="32" y1="47" x2="32" y2="17" gradientUnits="userSpaceOnUse">
<stop stop-color="#5CCC94"/>
<stop offset="1" stop-color="#8CCAAE"/>
</linearGradient>
<linearGradient id="paint8_linear_1405_1461" x1="349" y1="47" x2="349" y2="17" gradientUnits="userSpaceOnUse">
<stop stop-color="#5CCC94"/>
<stop offset="1" stop-color="#8CCAAE"/>
</linearGradient>
<linearGradient id="paint9_linear_1405_1461" x1="670" y1="47" x2="670" y2="17" gradientUnits="userSpaceOnUse">
<stop stop-color="#5CCC94"/>
<stop offset="1" stop-color="#8CCAAE"/>
</linearGradient>
<linearGradient id="paint10_linear_1405_1461" x1="977" y1="47" x2="977" y2="17" gradientUnits="userSpaceOnUse">
<stop stop-color="#5CCC94"/>
<stop offset="1" stop-color="#8CCAAE"/>
</linearGradient>
</defs>
</svg>
