<svg width="733" height="86" viewBox="0 0 733 86" fill="none" xmlns="http://www.w3.org/2000/svg">
<path d="M46.8369 68.6846H48.8262C48.7988 69.432 48.6484 70.0632 48.375 70.5781C48.1016 71.0885 47.7119 71.4759 47.2061 71.7402C46.7048 72.0046 46.0986 72.1367 45.3877 72.1367C44.8363 72.1367 44.3464 72.0456 43.918 71.8633C43.4896 71.6764 43.125 71.403 42.8242 71.043C42.5234 70.6829 42.2956 70.2386 42.1406 69.71C41.9902 69.1768 41.915 68.5638 41.915 67.8711V66.1826C41.915 65.4899 41.9948 64.877 42.1543 64.3438C42.3184 63.8105 42.5508 63.3639 42.8516 63.0039C43.1569 62.6393 43.5238 62.3659 43.9521 62.1836C44.3851 61.9967 44.8727 61.9033 45.415 61.9033C46.1396 61.9033 46.7458 62.04 47.2334 62.3135C47.721 62.5869 48.097 62.9857 48.3613 63.5098C48.6302 64.0293 48.792 64.665 48.8467 65.417H46.8506C46.8369 64.943 46.7822 64.5716 46.6865 64.3027C46.5954 64.0293 46.4495 63.8379 46.249 63.7285C46.0485 63.6146 45.7705 63.5576 45.415 63.5576C45.1507 63.5576 44.9229 63.6055 44.7314 63.7012C44.54 63.7923 44.3828 63.9404 44.2598 64.1455C44.1367 64.3506 44.0456 64.6195 43.9863 64.9521C43.9316 65.2848 43.9043 65.6904 43.9043 66.1689V67.8711C43.9043 68.3405 43.9294 68.7415 43.9795 69.0742C44.0296 69.4023 44.1094 69.6712 44.2188 69.8809C44.3281 70.0905 44.4762 70.2432 44.6631 70.3389C44.8545 70.4346 45.096 70.4824 45.3877 70.4824C45.7249 70.4824 45.9961 70.4323 46.2012 70.332C46.4108 70.2318 46.5658 70.0518 46.666 69.792C46.7663 69.5322 46.8232 69.1631 46.8369 68.6846ZM44.6016 59.3125L45.3877 60.2832L46.1807 59.3125H47.8076V59.3809L45.9893 61.3018H44.8066L42.9746 59.374V59.3125H44.6016ZM52.0459 64.6035V72H50.125V64.6035H52.0459ZM50.1592 63.7217L51.499 61.6094H53.6523L51.7656 63.7217H50.1592ZM56.9268 70.0039C56.9268 69.8763 56.8835 69.7624 56.7969 69.6621C56.7103 69.5618 56.5736 69.4593 56.3867 69.3545C56.1999 69.2451 55.9515 69.1243 55.6416 68.9922C55.3044 68.8555 55.0059 68.7142 54.7461 68.5684C54.4863 68.4225 54.2653 68.2607 54.083 68.083C53.9053 67.9053 53.7708 67.7025 53.6797 67.4746C53.5885 67.2467 53.543 66.987 53.543 66.6953C53.543 66.3809 53.5999 66.0915 53.7139 65.8271C53.8324 65.5583 54.001 65.3236 54.2197 65.123C54.4385 64.918 54.7051 64.7585 55.0195 64.6445C55.3385 64.526 55.6963 64.4668 56.0928 64.4668C56.6488 64.4668 57.125 64.5648 57.5215 64.7607C57.9225 64.9521 58.2301 65.221 58.4443 65.5674C58.6585 65.9137 58.7656 66.3171 58.7656 66.7773H56.8516C56.8516 66.6133 56.8265 66.4674 56.7764 66.3398C56.7262 66.2077 56.6442 66.1051 56.5303 66.0322C56.4209 65.9593 56.2728 65.9229 56.0859 65.9229C55.9492 65.9229 55.8262 65.9525 55.7168 66.0117C55.612 66.071 55.5277 66.1507 55.4639 66.251C55.4046 66.3467 55.375 66.4606 55.375 66.5928C55.375 66.693 55.3955 66.7819 55.4365 66.8594C55.4821 66.9368 55.5527 67.012 55.6484 67.085C55.7441 67.1579 55.8717 67.2354 56.0312 67.3174C56.1953 67.3949 56.3958 67.4814 56.6328 67.5771C57.125 67.7594 57.5283 67.9554 57.8428 68.165C58.1618 68.3747 58.3988 68.6208 58.5537 68.9033C58.7087 69.1813 58.7861 69.5254 58.7861 69.9355C58.7861 70.2637 58.7223 70.5622 58.5947 70.8311C58.4717 71.0999 58.2917 71.3324 58.0547 71.5283C57.8177 71.7243 57.5329 71.8747 57.2002 71.9795C56.8721 72.0843 56.5052 72.1367 56.0996 72.1367C55.5026 72.1367 54.999 72.0182 54.5889 71.7812C54.1787 71.5443 53.8688 71.2412 53.6592 70.8721C53.4495 70.4984 53.3447 70.111 53.3447 69.71H55.1631C55.1722 69.9561 55.2178 70.1497 55.2998 70.291C55.3864 70.4277 55.5026 70.5234 55.6484 70.5781C55.7943 70.6328 55.9561 70.6602 56.1338 70.6602C56.3115 70.6602 56.4574 70.6374 56.5713 70.5918C56.6898 70.5417 56.7786 70.4665 56.8379 70.3662C56.8971 70.2614 56.9268 70.1406 56.9268 70.0039ZM62.0127 61.5V72H60.0918V61.5H62.0127ZM63.3115 68.5547V68.0557C63.3115 67.4769 63.3799 66.9642 63.5166 66.5176C63.6579 66.071 63.8584 65.6973 64.1182 65.3965C64.3779 65.0911 64.6901 64.861 65.0547 64.7061C65.4238 64.5465 65.8363 64.4668 66.292 64.4668C66.7523 64.4668 67.1647 64.5465 67.5293 64.7061C67.8984 64.861 68.2129 65.0911 68.4727 65.3965C68.737 65.6973 68.9398 66.071 69.0811 66.5176C69.2223 66.9642 69.293 67.4769 69.293 68.0557V68.5547C69.293 69.1289 69.2223 69.6393 69.0811 70.0859C68.9398 70.5326 68.737 70.9085 68.4727 71.2139C68.2129 71.5192 67.9007 71.7493 67.5361 71.9043C67.1715 72.0592 66.7614 72.1367 66.3057 72.1367C65.8499 72.1367 65.4375 72.0592 65.0684 71.9043C64.7038 71.7493 64.3893 71.5192 64.125 71.2139C63.8607 70.9085 63.6579 70.5326 63.5166 70.0859C63.3799 69.6393 63.3115 69.1289 63.3115 68.5547ZM65.2256 68.0557V68.5547C65.2256 68.8965 65.2484 69.1927 65.2939 69.4434C65.3441 69.694 65.4147 69.9014 65.5059 70.0654C65.6016 70.2295 65.7155 70.3503 65.8477 70.4277C65.9798 70.5052 66.1325 70.5439 66.3057 70.5439C66.4788 70.5439 66.6338 70.5052 66.7705 70.4277C66.9072 70.3503 67.0189 70.2295 67.1055 70.0654C67.1966 69.9014 67.2627 69.694 67.3037 69.4434C67.3493 69.1927 67.3721 68.8965 67.3721 68.5547V68.0557C67.3721 67.723 67.347 67.4313 67.2969 67.1807C67.2467 66.9255 67.1761 66.7181 67.085 66.5586C66.9938 66.3945 66.8799 66.2715 66.7432 66.1895C66.611 66.1029 66.4606 66.0596 66.292 66.0596C66.1234 66.0596 65.973 66.1029 65.8408 66.1895C65.7132 66.2715 65.6016 66.3945 65.5059 66.5586C65.4147 66.7181 65.3441 66.9255 65.2939 67.1807C65.2484 67.4313 65.2256 67.723 65.2256 68.0557ZM78.0361 69.3818C78.0361 69.2041 78.0202 69.0423 77.9883 68.8965C77.9564 68.7507 77.888 68.6162 77.7832 68.4932C77.6829 68.3701 77.5348 68.2471 77.3389 68.124C77.1475 68.001 76.8968 67.8734 76.5869 67.7412C76.2178 67.5863 75.86 67.4222 75.5137 67.249C75.1673 67.0713 74.8551 66.8662 74.5771 66.6338C74.2992 66.4014 74.0781 66.1279 73.9141 65.8135C73.7546 65.4945 73.6748 65.1208 73.6748 64.6924C73.6748 64.2731 73.75 63.8926 73.9004 63.5508C74.0553 63.209 74.2741 62.9173 74.5566 62.6758C74.8392 62.4297 75.1696 62.2406 75.5479 62.1084C75.9307 61.9762 76.3568 61.9102 76.8262 61.9102C77.4642 61.9102 78.0156 62.0423 78.4805 62.3066C78.9499 62.571 79.3122 62.9333 79.5674 63.3936C79.8271 63.8538 79.957 64.3825 79.957 64.9795H77.9609C77.9609 64.6969 77.9199 64.4486 77.8379 64.2344C77.7604 64.0156 77.6351 63.8447 77.4619 63.7217C77.2887 63.5986 77.0654 63.5371 76.792 63.5371C76.5368 63.5371 76.3249 63.5895 76.1562 63.6943C75.9922 63.7946 75.8691 63.9336 75.7871 64.1113C75.7096 64.2845 75.6709 64.4805 75.6709 64.6992C75.6709 64.8633 75.7096 65.0114 75.7871 65.1436C75.8691 65.2712 75.9808 65.3874 76.1221 65.4922C76.2633 65.5924 76.4297 65.6904 76.6211 65.7861C76.8171 65.8818 77.0312 65.9753 77.2637 66.0664C77.7148 66.2441 78.1136 66.4401 78.46 66.6543C78.8063 66.8639 79.0957 67.1009 79.3281 67.3652C79.5605 67.625 79.736 67.9189 79.8545 68.2471C79.973 68.5752 80.0322 68.9489 80.0322 69.3682C80.0322 69.7829 79.9593 70.1611 79.8135 70.5029C79.6722 70.8402 79.4648 71.1318 79.1914 71.3779C78.918 71.6195 78.5876 71.8063 78.2002 71.9385C77.8174 72.0706 77.389 72.1367 76.915 72.1367C76.4548 72.1367 76.0195 72.0729 75.6094 71.9453C75.1992 71.8132 74.8369 71.6149 74.5225 71.3506C74.2126 71.0817 73.9688 70.7422 73.791 70.332C73.6133 69.9173 73.5244 69.4274 73.5244 68.8623H75.5273C75.5273 69.1631 75.557 69.4206 75.6162 69.6348C75.6755 69.8444 75.7666 70.013 75.8896 70.1406C76.0127 70.2637 76.1631 70.3571 76.3408 70.4209C76.5231 70.4801 76.7305 70.5098 76.9629 70.5098C77.2272 70.5098 77.4368 70.4596 77.5918 70.3594C77.7513 70.2591 77.8652 70.1247 77.9336 69.9561C78.002 69.7874 78.0361 69.596 78.0361 69.3818ZM84.7764 68.4932H82.7393V66.832H84.7764C85.0589 66.832 85.2891 66.7682 85.4668 66.6406C85.6491 66.513 85.7812 66.3376 85.8633 66.1143C85.9453 65.8864 85.9863 65.6312 85.9863 65.3486C85.9863 65.0615 85.943 64.7949 85.8564 64.5488C85.7744 64.2982 85.6445 64.0954 85.4668 63.9404C85.2936 63.7855 85.0635 63.708 84.7764 63.708H83.3818V72H81.3857V62.0469H84.7764C85.4463 62.0469 86.0228 62.1882 86.5059 62.4707C86.9889 62.7533 87.3581 63.1429 87.6133 63.6396C87.873 64.1318 88.0029 64.6969 88.0029 65.335C88.0029 65.9775 87.873 66.5358 87.6133 67.0098C87.3581 67.4792 86.9889 67.8438 86.5059 68.1035C86.0228 68.3633 85.4463 68.4932 84.7764 68.4932ZM95.2695 70.3457V72H89.3496V70.3457H95.2695ZM95.1943 63.2158L90.2246 72H88.8232V70.79L93.8545 62.0469H95.1943V63.2158ZM94.5176 62.0469V63.708H88.7822V62.0469H94.5176Z" fill="url(#paint0_linear_363_3371)"/>
<path d="M367.261 62.0469V72H365.258V62.0469H367.261ZM370.378 66.2783V67.9326H366.755V66.2783H370.378ZM370.761 62.0469V63.708H366.755V62.0469H370.761ZM374.862 70.2979V66.8799C374.862 66.6566 374.835 66.4788 374.78 66.3467C374.73 66.2145 374.653 66.1188 374.548 66.0596C374.448 65.9958 374.325 65.9639 374.179 65.9639C374.015 65.9639 373.878 65.998 373.769 66.0664C373.659 66.1348 373.577 66.2327 373.522 66.3604C373.472 66.488 373.447 66.6406 373.447 66.8184H371.526C371.526 66.4993 371.588 66.1986 371.711 65.916C371.834 65.6289 372.014 65.3783 372.251 65.1641C372.493 64.9453 372.78 64.7744 373.112 64.6514C373.445 64.5283 373.819 64.4668 374.233 64.4668C374.726 64.4668 375.163 64.5511 375.546 64.7197C375.929 64.8838 376.232 65.1458 376.455 65.5059C376.678 65.8659 376.79 66.333 376.79 66.9072V70.2021C376.79 70.6169 376.811 70.9541 376.852 71.2139C376.897 71.4736 376.963 71.6969 377.05 71.8838V72H375.122C375.035 71.7949 374.969 71.5397 374.924 71.2344C374.883 70.9245 374.862 70.6123 374.862 70.2979ZM375.095 67.4814L375.102 68.6299H374.397C374.215 68.6299 374.056 68.6595 373.919 68.7188C373.787 68.778 373.675 68.8623 373.584 68.9717C373.493 69.0765 373.424 69.1995 373.379 69.3408C373.338 69.4821 373.317 69.6325 373.317 69.792C373.317 69.9697 373.342 70.1201 373.393 70.2432C373.443 70.3662 373.518 70.4596 373.618 70.5234C373.718 70.5872 373.837 70.6191 373.974 70.6191C374.183 70.6191 374.366 70.5758 374.521 70.4893C374.675 70.4027 374.789 70.2979 374.862 70.1748C374.94 70.0518 374.965 69.9378 374.938 69.833L375.375 70.5781C375.32 70.7467 375.245 70.9222 375.149 71.1045C375.058 71.2868 374.942 71.4554 374.801 71.6104C374.66 71.7653 374.484 71.8929 374.274 71.9932C374.069 72.0889 373.826 72.1367 373.543 72.1367C373.146 72.1367 372.784 72.0456 372.456 71.8633C372.128 71.681 371.868 71.4258 371.677 71.0977C371.49 70.7695 371.396 70.3799 371.396 69.9287C371.396 69.555 371.456 69.2178 371.574 68.917C371.697 68.6117 371.88 68.3542 372.121 68.1445C372.363 67.9303 372.668 67.7663 373.037 67.6523C373.406 67.5384 373.839 67.4814 374.336 67.4814H375.095ZM380.119 61.4932V72H378.205V61.4932H380.119ZM384.009 64.6035L381.404 68.2812L379.839 70.0381L379.162 68.582L380.365 66.8252L381.726 64.6035H384.009ZM382.013 72L380.399 68.6025L381.719 67.3857L384.207 72H382.013ZM388.131 64.6035V66.0459H384.357V64.6035H388.131ZM385.226 62.7783H387.133V69.7441C387.133 69.9492 387.153 70.1064 387.194 70.2158C387.235 70.3252 387.297 70.4027 387.379 70.4482C387.465 70.4893 387.579 70.5098 387.721 70.5098C387.816 70.5098 387.905 70.5052 387.987 70.4961C388.069 70.4824 388.131 70.4688 388.172 70.4551V71.9521C388.021 72.0114 387.862 72.057 387.693 72.0889C387.529 72.1208 387.333 72.1367 387.105 72.1367C386.723 72.1367 386.39 72.0638 386.107 71.918C385.829 71.7721 385.613 71.5397 385.458 71.2207C385.303 70.8971 385.226 70.4733 385.226 69.9492V62.7783ZM392.772 70.2227V64.6035H394.693V72H392.889L392.772 70.2227ZM392.991 68.6982L393.524 68.6846C393.524 69.1813 393.477 69.6416 393.381 70.0654C393.285 70.4847 393.142 70.8493 392.95 71.1592C392.759 71.4691 392.52 71.7106 392.232 71.8838C391.945 72.0524 391.606 72.1367 391.214 72.1367C390.913 72.1367 390.635 72.0866 390.38 71.9863C390.129 71.8815 389.913 71.7197 389.73 71.501C389.548 71.2777 389.405 70.9928 389.3 70.6465C389.2 70.2956 389.149 69.874 389.149 69.3818V64.6035H391.07V69.4023C391.07 69.6029 391.089 69.776 391.125 69.9219C391.161 70.0632 391.212 70.1794 391.275 70.2705C391.339 70.3617 391.414 70.4277 391.501 70.4688C391.588 70.5052 391.686 70.5234 391.795 70.5234C392.096 70.5234 392.333 70.446 392.506 70.291C392.684 70.1315 392.809 69.915 392.882 69.6416C392.955 69.3636 392.991 69.0492 392.991 68.6982ZM398.002 66.251V72H396.088V64.6035H397.893L398.002 66.251ZM399.745 64.5488L399.718 66.4561C399.631 66.4378 399.526 66.4242 399.403 66.415C399.285 66.4059 399.18 66.4014 399.089 66.4014C398.875 66.4014 398.692 66.4355 398.542 66.5039C398.392 66.5677 398.266 66.6657 398.166 66.7979C398.07 66.9255 397.997 67.085 397.947 67.2764C397.897 67.4678 397.868 67.6842 397.858 67.9258L397.496 67.7891C397.496 67.306 397.533 66.8639 397.605 66.4629C397.683 66.0573 397.797 65.7064 397.947 65.4102C398.098 65.1094 398.278 64.877 398.487 64.7129C398.701 64.5488 398.943 64.4668 399.212 64.4668C399.303 64.4668 399.399 64.4759 399.499 64.4941C399.604 64.5078 399.686 64.526 399.745 64.5488ZM403.778 70.2979V66.8799C403.778 66.6566 403.751 66.4788 403.696 66.3467C403.646 66.2145 403.569 66.1188 403.464 66.0596C403.364 65.9958 403.241 65.9639 403.095 65.9639C402.931 65.9639 402.794 65.998 402.685 66.0664C402.575 66.1348 402.493 66.2327 402.438 66.3604C402.388 66.488 402.363 66.6406 402.363 66.8184H400.442C400.442 66.4993 400.504 66.1986 400.627 65.916C400.75 65.6289 400.93 65.3783 401.167 65.1641C401.409 64.9453 401.696 64.7744 402.028 64.6514C402.361 64.5283 402.735 64.4668 403.149 64.4668C403.642 64.4668 404.079 64.5511 404.462 64.7197C404.845 64.8838 405.148 65.1458 405.371 65.5059C405.594 65.8659 405.706 66.333 405.706 66.9072V70.2021C405.706 70.6169 405.727 70.9541 405.768 71.2139C405.813 71.4736 405.879 71.6969 405.966 71.8838V72H404.038C403.951 71.7949 403.885 71.5397 403.84 71.2344C403.799 70.9245 403.778 70.6123 403.778 70.2979ZM404.011 67.4814L404.018 68.6299H403.313C403.131 68.6299 402.972 68.6595 402.835 68.7188C402.703 68.778 402.591 68.8623 402.5 68.9717C402.409 69.0765 402.34 69.1995 402.295 69.3408C402.254 69.4821 402.233 69.6325 402.233 69.792C402.233 69.9697 402.258 70.1201 402.309 70.2432C402.359 70.3662 402.434 70.4596 402.534 70.5234C402.634 70.5872 402.753 70.6191 402.89 70.6191C403.099 70.6191 403.282 70.5758 403.437 70.4893C403.591 70.4027 403.705 70.2979 403.778 70.1748C403.856 70.0518 403.881 69.9378 403.854 69.833L404.291 70.5781C404.236 70.7467 404.161 70.9222 404.065 71.1045C403.974 71.2868 403.858 71.4554 403.717 71.6104C403.576 71.7653 403.4 71.8929 403.19 71.9932C402.985 72.0889 402.742 72.1367 402.459 72.1367C402.062 72.1367 401.7 72.0456 401.372 71.8633C401.044 71.681 400.784 71.4258 400.593 71.0977C400.406 70.7695 400.312 70.3799 400.312 69.9287C400.312 69.555 400.372 69.2178 400.49 68.917C400.613 68.6117 400.796 68.3542 401.037 68.1445C401.279 67.9303 401.584 67.7663 401.953 67.6523C402.322 67.5384 402.755 67.4814 403.252 67.4814H404.011ZM409.794 70.5439C409.972 70.5439 410.124 70.5075 410.252 70.4346C410.384 70.3617 410.484 70.2432 410.553 70.0791C410.621 69.915 410.658 69.7031 410.662 69.4434H412.46C412.46 69.9993 412.341 70.4801 412.104 70.8857C411.872 71.2868 411.558 71.5967 411.161 71.8154C410.769 72.0296 410.325 72.1367 409.828 72.1367C409.331 72.1367 408.898 72.057 408.529 71.8975C408.16 71.738 407.855 71.5055 407.613 71.2002C407.376 70.8949 407.196 70.5234 407.073 70.0859C406.955 69.6439 406.896 69.138 406.896 68.5684V68.0283C406.896 67.4678 406.955 66.9665 407.073 66.5244C407.196 66.0824 407.376 65.7087 407.613 65.4033C407.855 65.098 408.158 64.8656 408.522 64.7061C408.892 64.5465 409.325 64.4668 409.821 64.4668C410.354 64.4668 410.817 64.5785 411.209 64.8018C411.601 65.0205 411.906 65.3441 412.125 65.7725C412.348 66.2008 412.46 66.7295 412.46 67.3584H410.662C410.658 67.0758 410.623 66.8411 410.56 66.6543C410.5 66.4629 410.407 66.3171 410.279 66.2168C410.156 66.112 409.992 66.0596 409.787 66.0596C409.573 66.0596 409.4 66.1051 409.268 66.1963C409.14 66.2829 409.042 66.4105 408.974 66.5791C408.91 66.7432 408.867 66.9482 408.844 67.1943C408.821 67.4404 408.81 67.7184 408.81 68.0283V68.5684C408.81 68.901 408.819 69.1904 408.837 69.4365C408.86 69.6781 408.903 69.8831 408.967 70.0518C409.035 70.2158 409.133 70.3389 409.261 70.4209C409.393 70.5029 409.571 70.5439 409.794 70.5439ZM416.541 72.1367C416.035 72.1367 415.586 72.0592 415.194 71.9043C414.807 71.7493 414.479 71.526 414.21 71.2344C413.941 70.9382 413.736 70.5804 413.595 70.1611C413.453 69.7419 413.383 69.2633 413.383 68.7256V68.1172C413.383 67.5156 413.451 66.9893 413.588 66.5381C413.725 66.0824 413.918 65.6995 414.169 65.3896C414.42 65.0798 414.727 64.8496 415.092 64.6992C415.461 64.5443 415.878 64.4668 416.343 64.4668C416.808 64.4668 417.215 64.5443 417.566 64.6992C417.922 64.8496 418.216 65.0775 418.448 65.3828C418.681 65.6836 418.856 66.0573 418.975 66.5039C419.093 66.9505 419.152 67.4701 419.152 68.0625V68.9375H414.196V67.5908H417.272V67.4199C417.272 67.1191 417.241 66.8685 417.177 66.668C417.113 66.4629 417.013 66.3102 416.876 66.21C416.739 66.1097 416.557 66.0596 416.329 66.0596C416.138 66.0596 415.976 66.0983 415.844 66.1758C415.712 66.2533 415.607 66.374 415.529 66.5381C415.452 66.7021 415.395 66.9163 415.358 67.1807C415.322 67.4404 415.304 67.7526 415.304 68.1172V68.7256C415.304 69.0674 415.333 69.3545 415.393 69.5869C415.452 69.8148 415.538 70.0016 415.652 70.1475C415.771 70.2887 415.914 70.3913 416.083 70.4551C416.252 70.5143 416.448 70.5439 416.671 70.5439C417.008 70.5439 417.311 70.4847 417.58 70.3662C417.854 70.2432 418.086 70.0768 418.277 69.8672L419.043 71.0293C418.911 71.2025 418.729 71.3757 418.496 71.5488C418.264 71.722 417.986 71.8633 417.662 71.9727C417.339 72.082 416.965 72.1367 416.541 72.1367Z" fill="url(#paint1_linear_363_3371)"/>
<path d="M678.338 63.251V64.9121C678.338 65.6139 678.251 66.2292 678.078 66.7578C677.91 67.2819 677.668 67.7217 677.354 68.0771C677.044 68.4281 676.668 68.6924 676.226 68.8701C675.788 69.0479 675.303 69.1367 674.77 69.1367C674.236 69.1367 673.749 69.0479 673.307 68.8701C672.869 68.6924 672.491 68.4281 672.172 68.0771C671.857 67.7217 671.614 67.2819 671.44 66.7578C671.267 66.2292 671.181 65.6139 671.181 64.9121V63.251C671.181 62.5309 671.265 61.902 671.434 61.3643C671.602 60.8219 671.846 60.3708 672.165 60.0107C672.484 59.6462 672.862 59.3727 673.3 59.1904C673.737 59.0036 674.223 58.9102 674.756 58.9102C675.289 58.9102 675.774 59.0036 676.212 59.1904C676.649 59.3727 677.028 59.6462 677.347 60.0107C677.666 60.3708 677.91 60.8219 678.078 61.3643C678.251 61.902 678.338 62.5309 678.338 63.251ZM676.349 64.9121V63.2373C676.349 62.7633 676.314 62.36 676.246 62.0273C676.178 61.6901 676.075 61.4144 675.938 61.2002C675.802 60.986 675.635 60.8288 675.439 60.7285C675.243 60.6283 675.016 60.5781 674.756 60.5781C674.496 60.5781 674.266 60.6283 674.065 60.7285C673.869 60.8288 673.703 60.986 673.566 61.2002C673.434 61.4144 673.334 61.6901 673.266 62.0273C673.202 62.36 673.17 62.7633 673.17 63.2373V64.9121C673.17 65.3678 673.204 65.7575 673.272 66.0811C673.341 66.4046 673.443 66.6689 673.58 66.874C673.717 67.0791 673.883 67.2318 674.079 67.332C674.28 67.4277 674.51 67.4756 674.77 67.4756C675.025 67.4756 675.25 67.4277 675.446 67.332C675.647 67.2318 675.813 67.0791 675.945 66.874C676.077 66.6689 676.178 66.4046 676.246 66.0811C676.314 65.7575 676.349 65.3678 676.349 64.9121ZM681.879 67.5234L683.068 61.6035H685.064L683.034 69H681.838L681.879 67.5234ZM681.175 61.6035L682.385 67.5303L682.405 69H681.202L679.172 61.6035H681.175ZM688.872 69.1367C688.366 69.1367 687.917 69.0592 687.525 68.9043C687.138 68.7493 686.81 68.526 686.541 68.2344C686.272 67.9382 686.067 67.5804 685.926 67.1611C685.785 66.7419 685.714 66.2633 685.714 65.7256V65.1172C685.714 64.5156 685.782 63.9893 685.919 63.5381C686.056 63.0824 686.249 62.6995 686.5 62.3896C686.751 62.0798 687.058 61.8496 687.423 61.6992C687.792 61.5443 688.209 61.4668 688.674 61.4668C689.139 61.4668 689.547 61.5443 689.897 61.6992C690.253 61.8496 690.547 62.0775 690.779 62.3828C691.012 62.6836 691.187 63.0573 691.306 63.5039C691.424 63.9505 691.483 64.4701 691.483 65.0625V65.9375H686.527V64.5908H689.604V64.4199C689.604 64.1191 689.572 63.8685 689.508 63.668C689.444 63.4629 689.344 63.3102 689.207 63.21C689.07 63.1097 688.888 63.0596 688.66 63.0596C688.469 63.0596 688.307 63.0983 688.175 63.1758C688.043 63.2533 687.938 63.374 687.86 63.5381C687.783 63.7021 687.726 63.9163 687.689 64.1807C687.653 64.4404 687.635 64.7526 687.635 65.1172V65.7256C687.635 66.0674 687.664 66.3545 687.724 66.5869C687.783 66.8148 687.869 67.0016 687.983 67.1475C688.102 67.2887 688.245 67.3913 688.414 67.4551C688.583 67.5143 688.779 67.5439 689.002 67.5439C689.339 67.5439 689.642 67.4847 689.911 67.3662C690.185 67.2432 690.417 67.0768 690.608 66.8672L691.374 68.0293C691.242 68.2025 691.06 68.3757 690.827 68.5488C690.595 68.722 690.317 68.8633 689.993 68.9727C689.67 69.082 689.296 69.1367 688.872 69.1367ZM687.635 58.4863L688.421 59.457L689.214 58.4863H690.841V58.5547L689.022 60.4756H687.84L686.008 58.5479V58.4863H687.635ZM694.505 63.251V69H692.591V61.6035H694.396L694.505 63.251ZM696.248 61.5488L696.221 63.4561C696.134 63.4378 696.029 63.4242 695.906 63.415C695.788 63.4059 695.683 63.4014 695.592 63.4014C695.378 63.4014 695.195 63.4355 695.045 63.5039C694.895 63.5677 694.769 63.6657 694.669 63.7979C694.573 63.9255 694.5 64.085 694.45 64.2764C694.4 64.4678 694.37 64.6842 694.361 64.9258L693.999 64.7891C693.999 64.306 694.035 63.8639 694.108 63.4629C694.186 63.0573 694.3 62.7064 694.45 62.4102C694.601 62.1094 694.781 61.877 694.99 61.7129C695.204 61.5488 695.446 61.4668 695.715 61.4668C695.806 61.4668 695.902 61.4759 696.002 61.4941C696.107 61.5078 696.189 61.526 696.248 61.5488ZM693.589 58.4932L694.375 59.4639L695.168 58.4932H696.795V58.5615L694.977 60.4824H693.794L691.962 58.5547V58.4932H693.589ZM700.069 69.1367C699.563 69.1367 699.115 69.0592 698.723 68.9043C698.335 68.7493 698.007 68.526 697.738 68.2344C697.469 67.9382 697.264 67.5804 697.123 67.1611C696.982 66.7419 696.911 66.2633 696.911 65.7256V65.1172C696.911 64.5156 696.979 63.9893 697.116 63.5381C697.253 63.0824 697.447 62.6995 697.697 62.3896C697.948 62.0798 698.256 61.8496 698.62 61.6992C698.989 61.5443 699.406 61.4668 699.871 61.4668C700.336 61.4668 700.744 61.5443 701.095 61.6992C701.45 61.8496 701.744 62.0775 701.977 62.3828C702.209 62.6836 702.384 63.0573 702.503 63.5039C702.621 63.9505 702.681 64.4701 702.681 65.0625V65.9375H697.725V64.5908H700.801V64.4199C700.801 64.1191 700.769 63.8685 700.705 63.668C700.641 63.4629 700.541 63.3102 700.404 63.21C700.268 63.1097 700.085 63.0596 699.857 63.0596C699.666 63.0596 699.504 63.0983 699.372 63.1758C699.24 63.2533 699.135 63.374 699.058 63.5381C698.98 63.7021 698.923 63.9163 698.887 64.1807C698.85 64.4404 698.832 64.7526 698.832 65.1172V65.7256C698.832 66.0674 698.862 66.3545 698.921 66.5869C698.98 66.8148 699.067 67.0016 699.181 67.1475C699.299 67.2887 699.443 67.3913 699.611 67.4551C699.78 67.5143 699.976 67.5439 700.199 67.5439C700.536 67.5439 700.84 67.4847 701.108 67.3662C701.382 67.2432 701.614 67.0768 701.806 66.8672L702.571 68.0293C702.439 68.2025 702.257 68.3757 702.024 68.5488C701.792 68.722 701.514 68.8633 701.19 68.9727C700.867 69.082 700.493 69.1367 700.069 69.1367ZM705.668 63.1826V69H703.747V61.6035H705.545L705.668 63.1826ZM705.381 65.0488L704.868 65.0625C704.859 64.5065 704.911 64.0075 705.025 63.5654C705.144 63.1234 705.31 62.7474 705.524 62.4375C705.743 62.123 706.003 61.8838 706.304 61.7197C706.609 61.5511 706.949 61.4668 707.322 61.4668C707.609 61.4668 707.871 61.5169 708.108 61.6172C708.35 61.7174 708.557 61.877 708.73 62.0957C708.904 62.3145 709.038 62.6061 709.134 62.9707C709.229 63.3307 709.277 63.7728 709.277 64.2969V69H707.356V64.2832C707.356 63.9642 707.325 63.7181 707.261 63.5449C707.197 63.3672 707.101 63.2441 706.974 63.1758C706.846 63.1029 706.687 63.0664 706.495 63.0664C706.313 63.0664 706.151 63.1188 706.01 63.2236C705.868 63.3239 705.75 63.4629 705.654 63.6406C705.563 63.8184 705.493 64.028 705.442 64.2695C705.397 64.5111 705.376 64.7708 705.381 65.0488ZM712.743 61.6035V69H710.822V61.6035H712.743ZM710.856 60.7217L712.196 58.6094H714.35L712.463 60.7217H710.856ZM720.83 67.2979V63.8799C720.83 63.6566 720.803 63.4788 720.748 63.3467C720.698 63.2145 720.62 63.1188 720.516 63.0596C720.415 62.9958 720.292 62.9639 720.146 62.9639C719.982 62.9639 719.846 62.998 719.736 63.0664C719.627 63.1348 719.545 63.2327 719.49 63.3604C719.44 63.488 719.415 63.6406 719.415 63.8184H717.494C717.494 63.4993 717.556 63.1986 717.679 62.916C717.802 62.6289 717.982 62.3783 718.219 62.1641C718.46 61.9453 718.747 61.7744 719.08 61.6514C719.413 61.5283 719.786 61.4668 720.201 61.4668C720.693 61.4668 721.131 61.5511 721.514 61.7197C721.896 61.8838 722.2 62.1458 722.423 62.5059C722.646 62.8659 722.758 63.333 722.758 63.9072V67.2021C722.758 67.6169 722.778 67.9541 722.819 68.2139C722.865 68.4736 722.931 68.6969 723.018 68.8838V69H721.09C721.003 68.7949 720.937 68.5397 720.892 68.2344C720.851 67.9245 720.83 67.6123 720.83 67.2979ZM721.062 64.4814L721.069 65.6299H720.365C720.183 65.6299 720.023 65.6595 719.887 65.7188C719.755 65.778 719.643 65.8623 719.552 65.9717C719.461 66.0765 719.392 66.1995 719.347 66.3408C719.306 66.4821 719.285 66.6325 719.285 66.792C719.285 66.9697 719.31 67.1201 719.36 67.2432C719.41 67.3662 719.486 67.4596 719.586 67.5234C719.686 67.5872 719.805 67.6191 719.941 67.6191C720.151 67.6191 720.333 67.5758 720.488 67.4893C720.643 67.4027 720.757 67.2979 720.83 67.1748C720.908 67.0518 720.933 66.9378 720.905 66.833L721.343 67.5781C721.288 67.7467 721.213 67.9222 721.117 68.1045C721.026 68.2868 720.91 68.4554 720.769 68.6104C720.627 68.7653 720.452 68.8929 720.242 68.9932C720.037 69.0889 719.793 69.1367 719.511 69.1367C719.114 69.1367 718.752 69.0456 718.424 68.8633C718.096 68.681 717.836 68.4258 717.645 68.0977C717.458 67.7695 717.364 67.3799 717.364 66.9287C717.364 66.555 717.424 66.2178 717.542 65.917C717.665 65.6117 717.847 65.3542 718.089 65.1445C718.33 64.9303 718.636 64.7663 719.005 64.6523C719.374 64.5384 719.807 64.4814 720.304 64.4814H721.062ZM682.18 77.0254V85.8438H680.272V75.6035H682.036L682.18 77.0254ZM686.021 79.0488V79.541C686.021 80.1198 685.971 80.6325 685.871 81.0791C685.771 81.5212 685.62 81.8971 685.42 82.207C685.224 82.5124 684.978 82.7448 684.682 82.9043C684.385 83.0592 684.039 83.1367 683.643 83.1367C683.273 83.1367 682.954 83.0501 682.686 82.877C682.421 82.6992 682.198 82.4554 682.016 82.1455C681.833 81.8356 681.688 81.4733 681.578 81.0586C681.469 80.6439 681.384 80.1995 681.325 79.7256V78.96C681.38 78.4541 681.46 77.9893 681.564 77.5654C681.669 77.137 681.813 76.7656 681.995 76.4512C682.182 76.1367 682.408 75.8952 682.672 75.7266C682.941 75.5534 683.26 75.4668 683.629 75.4668C684.03 75.4668 684.379 75.5397 684.675 75.6855C684.976 75.8314 685.224 76.0524 685.42 76.3486C685.62 76.6403 685.771 77.0117 685.871 77.4629C685.971 77.9141 686.021 78.4427 686.021 79.0488ZM684.107 79.541V79.0488C684.107 78.6934 684.087 78.3903 684.046 78.1396C684.009 77.889 683.95 77.6839 683.868 77.5244C683.786 77.3649 683.679 77.2487 683.547 77.1758C683.415 77.1029 683.253 77.0664 683.062 77.0664C682.875 77.0664 682.711 77.1029 682.569 77.1758C682.433 77.2487 682.321 77.3558 682.234 77.4971C682.148 77.6338 682.082 77.8024 682.036 78.0029C681.991 78.1989 681.965 78.4222 681.961 78.6729V80.0127C681.97 80.3089 682.009 80.571 682.077 80.7988C682.15 81.0267 682.266 81.209 682.426 81.3457C682.585 81.4779 682.802 81.5439 683.075 81.5439C683.271 81.5439 683.433 81.5029 683.561 81.4209C683.693 81.3389 683.8 81.2158 683.882 81.0518C683.964 80.8877 684.021 80.6803 684.053 80.4297C684.089 80.179 684.107 79.8828 684.107 79.541ZM689.207 72.5V83H687.286V72.5H689.207ZM693.985 81.2979V77.8799C693.985 77.6566 693.958 77.4788 693.903 77.3467C693.853 77.2145 693.776 77.1188 693.671 77.0596C693.571 76.9958 693.448 76.9639 693.302 76.9639C693.138 76.9639 693.001 76.998 692.892 77.0664C692.782 77.1348 692.7 77.2327 692.646 77.3604C692.595 77.488 692.57 77.6406 692.57 77.8184H690.649C690.649 77.4993 690.711 77.1986 690.834 76.916C690.957 76.6289 691.137 76.3783 691.374 76.1641C691.616 75.9453 691.903 75.7744 692.235 75.6514C692.568 75.5283 692.942 75.4668 693.356 75.4668C693.849 75.4668 694.286 75.5511 694.669 75.7197C695.052 75.8838 695.355 76.1458 695.578 76.5059C695.801 76.8659 695.913 77.333 695.913 77.9072V81.2021C695.913 81.6169 695.934 81.9541 695.975 82.2139C696.02 82.4736 696.086 82.6969 696.173 82.8838V83H694.245C694.159 82.7949 694.092 82.5397 694.047 82.2344C694.006 81.9245 693.985 81.6123 693.985 81.2979ZM694.218 78.4814L694.225 79.6299H693.521C693.338 79.6299 693.179 79.6595 693.042 79.7188C692.91 79.778 692.798 79.8623 692.707 79.9717C692.616 80.0765 692.548 80.1995 692.502 80.3408C692.461 80.4821 692.44 80.6325 692.44 80.792C692.44 80.9697 692.465 81.1201 692.516 81.2432C692.566 81.3662 692.641 81.4596 692.741 81.5234C692.841 81.5872 692.96 81.6191 693.097 81.6191C693.306 81.6191 693.489 81.5758 693.644 81.4893C693.799 81.4027 693.912 81.2979 693.985 81.1748C694.063 81.0518 694.088 80.9378 694.061 80.833L694.498 81.5781C694.443 81.7467 694.368 81.9222 694.272 82.1045C694.181 82.2868 694.065 82.4554 693.924 82.6104C693.783 82.7653 693.607 82.8929 693.397 82.9932C693.192 83.0889 692.949 83.1367 692.666 83.1367C692.27 83.1367 691.907 83.0456 691.579 82.8633C691.251 82.681 690.991 82.4258 690.8 82.0977C690.613 81.7695 690.52 81.3799 690.52 80.9287C690.52 80.555 690.579 80.2178 690.697 79.917C690.82 79.6117 691.003 79.3542 691.244 79.1445C691.486 78.9303 691.791 78.7663 692.16 78.6523C692.529 78.5384 692.962 78.4814 693.459 78.4814H694.218ZM700.555 75.6035V77.0459H696.781V75.6035H700.555ZM697.649 73.7783H699.557V80.7441C699.557 80.9492 699.577 81.1064 699.618 81.2158C699.659 81.3252 699.721 81.4027 699.803 81.4482C699.889 81.4893 700.003 81.5098 700.145 81.5098C700.24 81.5098 700.329 81.5052 700.411 81.4961C700.493 81.4824 700.555 81.4688 700.596 81.4551V82.9521C700.445 83.0114 700.286 83.057 700.117 83.0889C699.953 83.1208 699.757 83.1367 699.529 83.1367C699.146 83.1367 698.814 83.0638 698.531 82.918C698.253 82.7721 698.037 82.5397 697.882 82.2207C697.727 81.8971 697.649 81.4733 697.649 80.9492V73.7783ZM701.628 72.5H703.535V81.2842L703.398 83H701.628V72.5ZM707.377 79.0557V79.541C707.377 80.1426 707.329 80.6667 707.233 81.1133C707.142 81.5599 706.999 81.9336 706.803 82.2344C706.611 82.5352 706.365 82.7607 706.064 82.9111C705.764 83.0615 705.408 83.1367 704.998 83.1367C704.629 83.1367 704.312 83.0501 704.048 82.877C703.784 82.6992 703.56 82.4554 703.378 82.1455C703.2 81.8311 703.054 81.4642 702.94 81.0449C702.831 80.6211 702.751 80.1585 702.701 79.6572V78.9395C702.747 78.4473 702.824 77.9893 702.934 77.5654C703.048 77.1416 703.193 76.7747 703.371 76.4648C703.549 76.1504 703.77 75.9066 704.034 75.7334C704.303 75.5557 704.62 75.4668 704.984 75.4668C705.404 75.4668 705.764 75.5443 706.064 75.6992C706.365 75.8496 706.611 76.0752 706.803 76.376C706.999 76.6768 707.142 77.0527 707.233 77.5039C707.329 77.9505 707.377 78.4678 707.377 79.0557ZM705.47 79.541V79.0557C705.47 78.7139 705.456 78.4199 705.429 78.1738C705.401 77.9277 705.351 77.7227 705.278 77.5586C705.205 77.3945 705.101 77.2715 704.964 77.1895C704.832 77.1074 704.656 77.0664 704.438 77.0664C704.242 77.0664 704.077 77.1051 703.945 77.1826C703.813 77.2555 703.699 77.3649 703.604 77.5107C703.512 77.652 703.444 77.8206 703.398 78.0166C703.357 78.208 703.335 78.4199 703.33 78.6523V79.9443C703.335 80.2588 703.373 80.5368 703.446 80.7783C703.519 81.0199 703.635 81.2067 703.795 81.3389C703.959 81.471 704.178 81.5371 704.451 81.5371C704.665 81.5371 704.839 81.5007 704.971 81.4277C705.103 81.3548 705.205 81.2386 705.278 81.0791C705.356 80.9196 705.406 80.7145 705.429 80.4639C705.456 80.2087 705.47 79.901 705.47 79.541ZM711.813 81.2979V77.8799C711.813 77.6566 711.786 77.4788 711.731 77.3467C711.681 77.2145 711.604 77.1188 711.499 77.0596C711.399 76.9958 711.276 76.9639 711.13 76.9639C710.966 76.9639 710.829 76.998 710.72 77.0664C710.61 77.1348 710.528 77.2327 710.474 77.3604C710.424 77.488 710.398 77.6406 710.398 77.8184H708.478C708.478 77.4993 708.539 77.1986 708.662 76.916C708.785 76.6289 708.965 76.3783 709.202 76.1641C709.444 75.9453 709.731 75.7744 710.063 75.6514C710.396 75.5283 710.77 75.4668 711.185 75.4668C711.677 75.4668 712.114 75.5511 712.497 75.7197C712.88 75.8838 713.183 76.1458 713.406 76.5059C713.63 76.8659 713.741 77.333 713.741 77.9072V81.2021C713.741 81.6169 713.762 81.9541 713.803 82.2139C713.848 82.4736 713.914 82.6969 714.001 82.8838V83H712.073C711.987 82.7949 711.921 82.5397 711.875 82.2344C711.834 81.9245 711.813 81.6123 711.813 81.2979ZM712.046 78.4814L712.053 79.6299H711.349C711.166 79.6299 711.007 79.6595 710.87 79.7188C710.738 79.778 710.626 79.8623 710.535 79.9717C710.444 80.0765 710.376 80.1995 710.33 80.3408C710.289 80.4821 710.269 80.6325 710.269 80.792C710.269 80.9697 710.294 81.1201 710.344 81.2432C710.394 81.3662 710.469 81.4596 710.569 81.5234C710.67 81.5872 710.788 81.6191 710.925 81.6191C711.134 81.6191 711.317 81.5758 711.472 81.4893C711.627 81.4027 711.741 81.2979 711.813 81.1748C711.891 81.0518 711.916 80.9378 711.889 80.833L712.326 81.5781C712.271 81.7467 712.196 81.9222 712.101 82.1045C712.009 82.2868 711.893 82.4554 711.752 82.6104C711.611 82.7653 711.435 82.8929 711.226 82.9932C711.021 83.0889 710.777 83.1367 710.494 83.1367C710.098 83.1367 709.735 83.0456 709.407 82.8633C709.079 82.681 708.819 82.4258 708.628 82.0977C708.441 81.7695 708.348 81.3799 708.348 80.9287C708.348 80.555 708.407 80.2178 708.525 79.917C708.648 79.6117 708.831 79.3542 709.072 79.1445C709.314 78.9303 709.619 78.7663 709.988 78.6523C710.357 78.5384 710.79 78.4814 711.287 78.4814H712.046Z" fill="#E0E0E9"/>
<path fill-rule="evenodd" clip-rule="evenodd" d="M690 33H400V31H690V33Z" fill="#D0CFD7"/>
<path fill-rule="evenodd" clip-rule="evenodd" d="M376 33H83V31H376V33Z" fill="url(#paint2_linear_363_3371)"/>
<g filter="url(#filter0_d_363_3371)">
<path d="M69 17C60.7125 17 54 23.7125 54 32C54 34.8125 54.7875 37.475 56.175 39.725C57.497 41.9468 59.3748 43.7861 61.6236 45.0617C63.8724 46.3373 66.4146 47.0053 69 47C74.475 47 79.2375 44.075 81.825 39.725C83.2125 37.475 84 34.8125 84 32C84 23.7125 77.2875 17 69 17ZM76.3875 30.7625L68.4 38.15C67.875 38.6375 67.1625 38.9 66.4875 38.9C65.775 38.9 65.0625 38.6375 64.5 38.075L60.7875 34.3625C60.2644 33.8332 59.9711 33.1191 59.9711 32.375C59.9711 31.6309 60.2644 30.9168 60.7875 30.3875C61.875 29.3 63.675 29.3 64.7625 30.3875L66.5625 32.1875L72.5625 26.6375C73.6875 25.5875 75.4875 25.6625 76.5375 26.7875C77.5875 27.9125 77.5125 29.7125 76.3875 30.7625Z" fill="url(#paint3_linear_363_3371)"/>
</g>
<g filter="url(#filter1_d_363_3371)">
<path d="M390 17C381.712 17 375 23.7125 375 32C375 34.8125 375.788 37.475 377.175 39.725C378.497 41.9468 380.375 43.7861 382.624 45.0617C384.872 46.3373 387.415 47.0053 390 47C395.475 47 400.238 44.075 402.825 39.725C404.213 37.475 405 34.8125 405 32C405 23.7125 398.288 17 390 17ZM397.387 30.7625L389.4 38.15C388.875 38.6375 388.162 38.9 387.487 38.9C386.775 38.9 386.062 38.6375 385.5 38.075L381.787 34.3625C381.264 33.8332 380.971 33.1191 380.971 32.375C380.971 31.6309 381.264 30.9168 381.787 30.3875C382.875 29.3 384.675 29.3 385.762 30.3875L387.562 32.1875L393.562 26.6375C394.687 25.5875 396.488 25.6625 397.538 26.7875C398.588 27.9125 398.512 29.7125 397.387 30.7625Z" fill="url(#paint4_linear_363_3371)"/>
</g>
<circle cx="696.5" cy="32.5" r="14.5" fill="#D0CFD7"/>
<defs>
<filter id="filter0_d_363_3371" x="37" y="0" width="74" height="74" filterUnits="userSpaceOnUse" color-interpolation-filters="sRGB">
<feFlood flood-opacity="0" result="BackgroundImageFix"/>
<feColorMatrix in="SourceAlpha" type="matrix" values="0 0 0 0 0 0 0 0 0 0 0 0 0 0 0 0 0 0 127 0" result="hardAlpha"/>
<feOffset dx="5" dy="5"/>
<feGaussianBlur stdDeviation="11"/>
<feComposite in2="hardAlpha" operator="out"/>
<feColorMatrix type="matrix" values="0 0 0 0 0.0392157 0 0 0 0 0.560784 0 0 0 0 0.309804 0 0 0 0.2 0"/>
<feBlend mode="normal" in2="BackgroundImageFix" result="effect1_dropShadow_363_3371"/>
<feBlend mode="normal" in="SourceGraphic" in2="effect1_dropShadow_363_3371" result="shape"/>
</filter>
<filter id="filter1_d_363_3371" x="358" y="0" width="74" height="74" filterUnits="userSpaceOnUse" color-interpolation-filters="sRGB">
<feFlood flood-opacity="0" result="BackgroundImageFix"/>
<feColorMatrix in="SourceAlpha" type="matrix" values="0 0 0 0 0 0 0 0 0 0 0 0 0 0 0 0 0 0 127 0" result="hardAlpha"/>
<feOffset dx="5" dy="5"/>
<feGaussianBlur stdDeviation="11"/>
<feComposite in2="hardAlpha" operator="out"/>
<feColorMatrix type="matrix" values="0 0 0 0 0.0392157 0 0 0 0 0.560784 0 0 0 0 0.309804 0 0 0 0.2 0"/>
<feBlend mode="normal" in2="BackgroundImageFix" result="effect1_dropShadow_363_3371"/>
<feBlend mode="normal" in="SourceGraphic" in2="effect1_dropShadow_363_3371" result="shape"/>
</filter>
<linearGradient id="paint0_linear_363_3371" x1="68.5" y1="77" x2="68.5" y2="57" gradientUnits="userSpaceOnUse">
<stop stop-color="#5CCC94"/>
<stop offset="1" stop-color="#8CCAAE"/>
</linearGradient>
<linearGradient id="paint1_linear_363_3371" x1="392" y1="77" x2="392" y2="57" gradientUnits="userSpaceOnUse">
<stop stop-color="#5CCC94"/>
<stop offset="1" stop-color="#8CCAAE"/>
</linearGradient>
<linearGradient id="paint2_linear_363_3371" x1="229.5" y1="33" x2="229.5" y2="31" gradientUnits="userSpaceOnUse">
<stop stop-color="#5CCC94"/>
<stop offset="1" stop-color="#8CCAAE"/>
</linearGradient>
<linearGradient id="paint3_linear_363_3371" x1="69" y1="47" x2="69" y2="17" gradientUnits="userSpaceOnUse">
<stop stop-color="#5CCC94"/>
<stop offset="1" stop-color="#8CCAAE"/>
</linearGradient>
<linearGradient id="paint4_linear_363_3371" x1="390" y1="47" x2="390" y2="17" gradientUnits="userSpaceOnUse">
<stop stop-color="#5CCC94"/>
<stop offset="1" stop-color="#8CCAAE"/>
</linearGradient>
</defs>
</svg>
