<svg width="1013" height="86" viewBox="0 0 1013 86" fill="none" xmlns="http://www.w3.org/2000/svg">
<path d="M26.668 59.0469V69H24.6787V59.0469H26.668ZM29.1426 59.0469V60.708H22.252V59.0469H29.1426ZM31.5078 68.1523L33.0527 61.6035H35.0488L32.6152 70.1074C32.5605 70.2943 32.4854 70.4948 32.3896 70.709C32.2939 70.9277 32.1663 71.1328 32.0068 71.3242C31.8519 71.5202 31.6559 71.6797 31.4189 71.8027C31.182 71.9258 30.8971 71.9873 30.5645 71.9873C30.3958 71.9873 30.2591 71.9759 30.1543 71.9531C30.054 71.9349 29.9264 71.903 29.7715 71.8574V70.3672C29.8125 70.3672 29.8512 70.3672 29.8877 70.3672C29.9287 70.3717 29.9674 70.374 30.0039 70.374C30.2181 70.374 30.389 70.3444 30.5166 70.2852C30.6442 70.2305 30.7467 70.1439 30.8242 70.0254C30.9062 69.9069 30.9746 69.7588 31.0293 69.5811L31.5078 68.1523ZM31.1113 61.6035L32.2598 66.9082L32.5195 69.0684L31.2275 69.1914L29.0605 61.6035H31.1113ZM37.7969 63.0254V71.8438H35.8896V61.6035H37.6533L37.7969 63.0254ZM41.6387 65.0488V65.541C41.6387 66.1198 41.5885 66.6325 41.4883 67.0791C41.388 67.5212 41.2376 67.8971 41.0371 68.207C40.8411 68.5124 40.5951 68.7448 40.2988 68.9043C40.0026 69.0592 39.6562 69.1367 39.2598 69.1367C38.8906 69.1367 38.5716 69.0501 38.3027 68.877C38.0384 68.6992 37.8151 68.4554 37.6328 68.1455C37.4505 67.8356 37.3047 67.4733 37.1953 67.0586C37.0859 66.6439 37.0016 66.1995 36.9424 65.7256V64.96C36.9971 64.4541 37.0768 63.9893 37.1816 63.5654C37.2865 63.137 37.43 62.7656 37.6123 62.4512C37.7992 62.1367 38.0247 61.8952 38.2891 61.7266C38.5579 61.5534 38.877 61.4668 39.2461 61.4668C39.6471 61.4668 39.9958 61.5397 40.292 61.6855C40.5928 61.8314 40.8411 62.0524 41.0371 62.3486C41.2376 62.6403 41.388 63.0117 41.4883 63.4629C41.5885 63.9141 41.6387 64.4427 41.6387 65.0488ZM39.7246 65.541V65.0488C39.7246 64.6934 39.7041 64.3903 39.6631 64.1396C39.6266 63.889 39.5674 63.6839 39.4854 63.5244C39.4033 63.3649 39.2962 63.2487 39.1641 63.1758C39.0319 63.1029 38.8701 63.0664 38.6787 63.0664C38.4919 63.0664 38.3278 63.1029 38.1865 63.1758C38.0498 63.2487 37.9382 63.3558 37.8516 63.4971C37.765 63.6338 37.6989 63.8024 37.6533 64.0029C37.6077 64.1989 37.5827 64.4222 37.5781 64.6729V66.0127C37.5872 66.3089 37.626 66.571 37.6943 66.7988C37.7673 67.0267 37.8835 67.209 38.043 67.3457C38.2025 67.4779 38.4189 67.5439 38.6924 67.5439C38.8883 67.5439 39.0501 67.5029 39.1777 67.4209C39.3099 67.3389 39.417 67.2158 39.499 67.0518C39.5811 66.8877 39.638 66.6803 39.6699 66.4297C39.7064 66.179 39.7246 65.8828 39.7246 65.541ZM12.7979 77.1826V83H10.877V75.6035H12.6748L12.7979 77.1826ZM12.5107 79.0488L11.998 79.0625C11.9889 78.5065 12.0413 78.0075 12.1553 77.5654C12.2738 77.1234 12.4401 76.7474 12.6543 76.4375C12.873 76.123 13.1328 75.8838 13.4336 75.7197C13.7389 75.5511 14.0785 75.4668 14.4521 75.4668C14.7393 75.4668 15.0013 75.5169 15.2383 75.6172C15.4798 75.7174 15.6872 75.877 15.8604 76.0957C16.0335 76.3145 16.168 76.6061 16.2637 76.9707C16.3594 77.3307 16.4072 77.7728 16.4072 78.2969V83H14.4863V78.2832C14.4863 77.9642 14.4544 77.7181 14.3906 77.5449C14.3268 77.3672 14.2311 77.2441 14.1035 77.1758C13.9759 77.1029 13.8164 77.0664 13.625 77.0664C13.4427 77.0664 13.2809 77.1188 13.1396 77.2236C12.9984 77.3239 12.8799 77.4629 12.7842 77.6406C12.693 77.8184 12.6224 78.028 12.5723 78.2695C12.5267 78.5111 12.5062 78.7708 12.5107 79.0488ZM21.0693 81.2979V77.8799C21.0693 77.6566 21.042 77.4788 20.9873 77.3467C20.9372 77.2145 20.8597 77.1188 20.7549 77.0596C20.6546 76.9958 20.5316 76.9639 20.3857 76.9639C20.2217 76.9639 20.085 76.998 19.9756 77.0664C19.8662 77.1348 19.7842 77.2327 19.7295 77.3604C19.6794 77.488 19.6543 77.6406 19.6543 77.8184H17.7334C17.7334 77.4993 17.7949 77.1986 17.918 76.916C18.041 76.6289 18.221 76.3783 18.458 76.1641C18.6995 75.9453 18.9867 75.7744 19.3193 75.6514C19.652 75.5283 20.0257 75.4668 20.4404 75.4668C20.9326 75.4668 21.3701 75.5511 21.7529 75.7197C22.1357 75.8838 22.4388 76.1458 22.6621 76.5059C22.8854 76.8659 22.9971 77.333 22.9971 77.9072V81.2021C22.9971 81.6169 23.0176 81.9541 23.0586 82.2139C23.1042 82.4736 23.1702 82.6969 23.2568 82.8838V83H21.3291C21.2425 82.7949 21.1764 82.5397 21.1309 82.2344C21.0898 81.9245 21.0693 81.6123 21.0693 81.2979ZM21.3018 78.4814L21.3086 79.6299H20.6045C20.4222 79.6299 20.2627 79.6595 20.126 79.7188C19.9938 79.778 19.8822 79.8623 19.791 79.9717C19.6999 80.0765 19.6315 80.1995 19.5859 80.3408C19.5449 80.4821 19.5244 80.6325 19.5244 80.792C19.5244 80.9697 19.5495 81.1201 19.5996 81.2432C19.6497 81.3662 19.7249 81.4596 19.8252 81.5234C19.9255 81.5872 20.0439 81.6191 20.1807 81.6191C20.3903 81.6191 20.5726 81.5758 20.7275 81.4893C20.8825 81.4027 20.9964 81.2979 21.0693 81.1748C21.1468 81.0518 21.1719 80.9378 21.1445 80.833L21.582 81.5781C21.5273 81.7467 21.4521 81.9222 21.3564 82.1045C21.2653 82.2868 21.1491 82.4554 21.0078 82.6104C20.8665 82.7653 20.6911 82.8929 20.4814 82.9932C20.2764 83.0889 20.0326 83.1367 19.75 83.1367C19.3535 83.1367 18.9912 83.0456 18.6631 82.8633C18.335 82.681 18.0752 82.4258 17.8838 82.0977C17.6969 81.7695 17.6035 81.3799 17.6035 80.9287C17.6035 80.555 17.6628 80.2178 17.7812 79.917C17.9043 79.6117 18.0866 79.3542 18.3281 79.1445C18.5697 78.9303 18.875 78.7663 19.2441 78.6523C19.6133 78.5384 20.0462 78.4814 20.543 78.4814H21.3018ZM19.4287 74.6123L20.7686 72.5H22.9219L21.0352 74.6123H19.4287ZM26.4219 72.5V83H24.501V72.5H26.4219ZM30.9199 83.1367C30.4141 83.1367 29.9652 83.0592 29.5732 82.9043C29.1859 82.7493 28.8577 82.526 28.5889 82.2344C28.32 81.9382 28.1149 81.5804 27.9736 81.1611C27.8324 80.7419 27.7617 80.2633 27.7617 79.7256V79.1172C27.7617 78.5156 27.8301 77.9893 27.9668 77.5381C28.1035 77.0824 28.2972 76.6995 28.5479 76.3896C28.7985 76.0798 29.1061 75.8496 29.4707 75.6992C29.8398 75.5443 30.2568 75.4668 30.7217 75.4668C31.1865 75.4668 31.5944 75.5443 31.9453 75.6992C32.3008 75.8496 32.5947 76.0775 32.8271 76.3828C33.0596 76.6836 33.235 77.0573 33.3535 77.5039C33.472 77.9505 33.5312 78.4701 33.5312 79.0625V79.9375H28.5752V78.5908H31.6514V78.4199C31.6514 78.1191 31.6195 77.8685 31.5557 77.668C31.4919 77.4629 31.3916 77.3102 31.2549 77.21C31.1182 77.1097 30.9359 77.0596 30.708 77.0596C30.5166 77.0596 30.3548 77.0983 30.2227 77.1758C30.0905 77.2533 29.9857 77.374 29.9082 77.5381C29.8307 77.7021 29.7738 77.9163 29.7373 78.1807C29.7008 78.4404 29.6826 78.7526 29.6826 79.1172V79.7256C29.6826 80.0674 29.7122 80.3545 29.7715 80.5869C29.8307 80.8148 29.9173 81.0016 30.0312 81.1475C30.1497 81.2887 30.2933 81.3913 30.4619 81.4551C30.6305 81.5143 30.8265 81.5439 31.0498 81.5439C31.387 81.5439 31.6901 81.4847 31.959 81.3662C32.2324 81.2432 32.4648 81.0768 32.6562 80.8672L33.4219 82.0293C33.2897 82.2025 33.1074 82.3757 32.875 82.5488C32.6426 82.722 32.3646 82.8633 32.041 82.9727C31.7174 83.082 31.3438 83.1367 30.9199 83.1367ZM36.5527 77.0254V85.8438H34.6455V75.6035H36.4092L36.5527 77.0254ZM40.3945 79.0488V79.541C40.3945 80.1198 40.3444 80.6325 40.2441 81.0791C40.1439 81.5212 39.9935 81.8971 39.793 82.207C39.597 82.5124 39.3509 82.7448 39.0547 82.9043C38.7585 83.0592 38.4121 83.1367 38.0156 83.1367C37.6465 83.1367 37.3275 83.0501 37.0586 82.877C36.7943 82.6992 36.571 82.4554 36.3887 82.1455C36.2064 81.8356 36.0605 81.4733 35.9512 81.0586C35.8418 80.6439 35.7575 80.1995 35.6982 79.7256V78.96C35.7529 78.4541 35.8327 77.9893 35.9375 77.5654C36.0423 77.137 36.1859 76.7656 36.3682 76.4512C36.555 76.1367 36.7806 75.8952 37.0449 75.7266C37.3138 75.5534 37.6328 75.4668 38.002 75.4668C38.403 75.4668 38.7516 75.5397 39.0479 75.6855C39.3486 75.8314 39.597 76.0524 39.793 76.3486C39.9935 76.6403 40.1439 77.0117 40.2441 77.4629C40.3444 77.9141 40.3945 78.4427 40.3945 79.0488ZM38.4805 79.541V79.0488C38.4805 78.6934 38.46 78.3903 38.4189 78.1396C38.3825 77.889 38.3232 77.6839 38.2412 77.5244C38.1592 77.3649 38.0521 77.2487 37.9199 77.1758C37.7878 77.1029 37.626 77.0664 37.4346 77.0664C37.2477 77.0664 37.0837 77.1029 36.9424 77.1758C36.8057 77.2487 36.694 77.3558 36.6074 77.4971C36.5208 77.6338 36.4548 77.8024 36.4092 78.0029C36.3636 78.1989 36.3385 78.4222 36.334 78.6729V80.0127C36.3431 80.3089 36.3818 80.571 36.4502 80.7988C36.5231 81.0267 36.6393 81.209 36.7988 81.3457C36.9583 81.4779 37.1748 81.5439 37.4482 81.5439C37.6442 81.5439 37.806 81.5029 37.9336 81.4209C38.0658 81.3389 38.1729 81.2158 38.2549 81.0518C38.3369 80.8877 38.3939 80.6803 38.4258 80.4297C38.4622 80.179 38.4805 79.8828 38.4805 79.541ZM43.4844 72.4932V83H41.5703V72.4932H43.4844ZM47.374 75.6035L44.7695 79.2812L43.2041 81.0381L42.5273 79.582L43.7305 77.8252L45.0908 75.6035H47.374ZM45.3779 83L43.7646 79.6025L45.084 78.3857L47.5723 83H45.3779ZM50.1289 82.1523L51.6738 75.6035H53.6699L51.2363 84.1074C51.1816 84.2943 51.1064 84.4948 51.0107 84.709C50.915 84.9277 50.7874 85.1328 50.6279 85.3242C50.473 85.5202 50.277 85.6797 50.04 85.8027C49.8031 85.9258 49.5182 85.9873 49.1855 85.9873C49.0169 85.9873 48.8802 85.9759 48.7754 85.9531C48.6751 85.9349 48.5475 85.903 48.3926 85.8574V84.3672C48.4336 84.3672 48.4723 84.3672 48.5088 84.3672C48.5498 84.3717 48.5885 84.374 48.625 84.374C48.8392 84.374 49.0101 84.3444 49.1377 84.2852C49.2653 84.2305 49.3678 84.1439 49.4453 84.0254C49.5273 83.9069 49.5957 83.7588 49.6504 83.5811L50.1289 82.1523ZM49.7324 75.6035L50.8809 80.9082L51.1406 83.0684L49.8486 83.1914L47.6816 75.6035H49.7324Z" fill="url(#paint0_linear_1405_1392)"/>
<path d="M311.881 70.3457V72H307.554V70.3457H311.881ZM308.176 62.0469V72H306.173V62.0469H308.176ZM311.3 66.0801V67.6865H307.554V66.0801H311.3ZM311.867 62.0469V63.708H307.554V62.0469H311.867ZM314.957 70.5234L316.146 64.6035H318.143L316.112 72H314.916L314.957 70.5234ZM314.253 64.6035L315.463 70.5303L315.483 72H314.28L312.25 64.6035H314.253ZM321.075 64.6035V72H319.154V64.6035H321.075ZM319.065 62.6895C319.065 62.3932 319.159 62.1494 319.346 61.958C319.537 61.762 319.792 61.6641 320.111 61.6641C320.435 61.6641 320.69 61.762 320.877 61.958C321.064 62.1494 321.157 62.3932 321.157 62.6895C321.157 62.9811 321.062 63.2249 320.87 63.4209C320.683 63.6123 320.433 63.708 320.118 63.708C319.795 63.708 319.537 63.6123 319.346 63.4209C319.159 63.2249 319.065 62.9811 319.065 62.6895ZM326.175 70.3662V61.5H328.096V72L326.359 72.0068L326.175 70.3662ZM322.34 68.5615V68.0693C322.34 67.4678 322.39 66.9414 322.49 66.4902C322.595 66.0391 322.75 65.6631 322.955 65.3623C323.16 65.0615 323.411 64.8382 323.707 64.6924C324.008 64.542 324.352 64.4668 324.739 64.4668C325.09 64.4668 325.398 64.5557 325.662 64.7334C325.931 64.9066 326.159 65.1504 326.346 65.4648C326.533 65.7793 326.683 66.1507 326.797 66.5791C326.911 67.0075 326.991 67.4769 327.036 67.9873V68.6982C326.981 69.1813 326.897 69.6325 326.783 70.0518C326.674 70.471 326.523 70.8356 326.332 71.1455C326.145 71.4554 325.92 71.6992 325.655 71.877C325.391 72.0501 325.083 72.1367 324.732 72.1367C324.345 72.1367 324.001 72.0592 323.7 71.9043C323.404 71.7493 323.153 71.5215 322.948 71.2207C322.748 70.9154 322.595 70.5417 322.49 70.0996C322.39 69.653 322.34 69.1403 322.34 68.5615ZM324.254 68.0693V68.5615C324.254 68.9079 324.27 69.2064 324.302 69.457C324.338 69.7031 324.395 69.9059 324.473 70.0654C324.555 70.2204 324.662 70.3366 324.794 70.4141C324.926 70.487 325.09 70.5234 325.286 70.5234C325.541 70.5234 325.749 70.4596 325.908 70.332C326.068 70.1999 326.186 70.0199 326.264 69.792C326.346 69.5596 326.391 69.293 326.4 68.9922V67.7002C326.391 67.4495 326.362 67.224 326.312 67.0234C326.261 66.8229 326.191 66.652 326.1 66.5107C326.008 66.3695 325.895 66.2601 325.758 66.1826C325.626 66.1051 325.471 66.0664 325.293 66.0664C325.102 66.0664 324.938 66.1051 324.801 66.1826C324.669 66.2601 324.564 66.3809 324.486 66.5449C324.409 66.7044 324.35 66.9118 324.309 67.167C324.272 67.4176 324.254 67.7184 324.254 68.0693ZM332.519 72.1367C332.013 72.1367 331.564 72.0592 331.172 71.9043C330.785 71.7493 330.456 71.526 330.188 71.2344C329.919 70.9382 329.714 70.5804 329.572 70.1611C329.431 69.7419 329.36 69.2633 329.36 68.7256V68.1172C329.36 67.5156 329.429 66.9893 329.565 66.5381C329.702 66.0824 329.896 65.6995 330.146 65.3896C330.397 65.0798 330.705 64.8496 331.069 64.6992C331.438 64.5443 331.855 64.4668 332.32 64.4668C332.785 64.4668 333.193 64.5443 333.544 64.6992C333.899 64.8496 334.193 65.0775 334.426 65.3828C334.658 65.6836 334.834 66.0573 334.952 66.5039C335.071 66.9505 335.13 67.4701 335.13 68.0625V68.9375H330.174V67.5908H333.25V67.4199C333.25 67.1191 333.218 66.8685 333.154 66.668C333.09 66.4629 332.99 66.3102 332.854 66.21C332.717 66.1097 332.535 66.0596 332.307 66.0596C332.115 66.0596 331.953 66.0983 331.821 66.1758C331.689 66.2533 331.584 66.374 331.507 66.5381C331.429 66.7021 331.372 66.9163 331.336 67.1807C331.299 67.4404 331.281 67.7526 331.281 68.1172V68.7256C331.281 69.0674 331.311 69.3545 331.37 69.5869C331.429 69.8148 331.516 70.0016 331.63 70.1475C331.748 70.2887 331.892 70.3913 332.061 70.4551C332.229 70.5143 332.425 70.5439 332.648 70.5439C332.986 70.5439 333.289 70.4847 333.558 70.3662C333.831 70.2432 334.063 70.0768 334.255 69.8672L335.021 71.0293C334.888 71.2025 334.706 71.3757 334.474 71.5488C334.241 71.722 333.963 71.8633 333.64 71.9727C333.316 72.082 332.942 72.1367 332.519 72.1367ZM338.117 66.1826V72H336.196V64.6035H337.994L338.117 66.1826ZM337.83 68.0488L337.317 68.0625C337.308 67.5065 337.361 67.0075 337.475 66.5654C337.593 66.1234 337.759 65.7474 337.974 65.4375C338.192 65.123 338.452 64.8838 338.753 64.7197C339.058 64.5511 339.398 64.4668 339.771 64.4668C340.059 64.4668 340.321 64.5169 340.558 64.6172C340.799 64.7174 341.007 64.877 341.18 65.0957C341.353 65.3145 341.487 65.6061 341.583 65.9707C341.679 66.3307 341.727 66.7728 341.727 67.2969V72H339.806V67.2832C339.806 66.9642 339.774 66.7181 339.71 66.5449C339.646 66.3672 339.55 66.2441 339.423 66.1758C339.295 66.1029 339.136 66.0664 338.944 66.0664C338.762 66.0664 338.6 66.1188 338.459 66.2236C338.318 66.3239 338.199 66.4629 338.104 66.6406C338.012 66.8184 337.942 67.028 337.892 67.2695C337.846 67.5111 337.826 67.7708 337.83 68.0488ZM345.801 70.5439C345.979 70.5439 346.131 70.5075 346.259 70.4346C346.391 70.3617 346.491 70.2432 346.56 70.0791C346.628 69.915 346.664 69.7031 346.669 69.4434H348.467C348.467 69.9993 348.348 70.4801 348.111 70.8857C347.879 71.2868 347.564 71.5967 347.168 71.8154C346.776 72.0296 346.332 72.1367 345.835 72.1367C345.338 72.1367 344.905 72.057 344.536 71.8975C344.167 71.738 343.862 71.5055 343.62 71.2002C343.383 70.8949 343.203 70.5234 343.08 70.0859C342.962 69.6439 342.902 69.138 342.902 68.5684V68.0283C342.902 67.4678 342.962 66.9665 343.08 66.5244C343.203 66.0824 343.383 65.7087 343.62 65.4033C343.862 65.098 344.165 64.8656 344.529 64.7061C344.898 64.5465 345.331 64.4668 345.828 64.4668C346.361 64.4668 346.824 64.5785 347.216 64.8018C347.608 65.0205 347.913 65.3441 348.132 65.7725C348.355 66.2008 348.467 66.7295 348.467 67.3584H346.669C346.664 67.0758 346.63 66.8411 346.566 66.6543C346.507 66.4629 346.414 66.3171 346.286 66.2168C346.163 66.112 345.999 66.0596 345.794 66.0596C345.58 66.0596 345.407 66.1051 345.274 66.1963C345.147 66.2829 345.049 66.4105 344.98 66.5791C344.917 66.7432 344.873 66.9482 344.851 67.1943C344.828 67.4404 344.816 67.7184 344.816 68.0283V68.5684C344.816 68.901 344.826 69.1904 344.844 69.4365C344.867 69.6781 344.91 69.8831 344.974 70.0518C345.042 70.2158 345.14 70.3389 345.268 70.4209C345.4 70.5029 345.577 70.5439 345.801 70.5439ZM344.816 61.4932L345.603 62.4639L346.396 61.4932H348.022V61.5615L346.204 63.4824H345.021L343.189 61.5547V61.4932H344.816ZM351.447 66.1826V72H349.526V64.6035H351.324L351.447 66.1826ZM351.16 68.0488L350.647 68.0625C350.638 67.5065 350.691 67.0075 350.805 66.5654C350.923 66.1234 351.09 65.7474 351.304 65.4375C351.522 65.123 351.782 64.8838 352.083 64.7197C352.388 64.5511 352.728 64.4668 353.102 64.4668C353.389 64.4668 353.651 64.5169 353.888 64.6172C354.129 64.7174 354.337 64.877 354.51 65.0957C354.683 65.3145 354.817 65.6061 354.913 65.9707C355.009 66.3307 355.057 66.7728 355.057 67.2969V72H353.136V67.2832C353.136 66.9642 353.104 66.7181 353.04 66.5449C352.976 66.3672 352.881 66.2441 352.753 66.1758C352.625 66.1029 352.466 66.0664 352.274 66.0664C352.092 66.0664 351.93 66.1188 351.789 66.2236C351.648 66.3239 351.529 66.4629 351.434 66.6406C351.342 66.8184 351.272 67.028 351.222 67.2695C351.176 67.5111 351.156 67.7708 351.16 68.0488ZM359.438 72.1367C358.933 72.1367 358.484 72.0592 358.092 71.9043C357.704 71.7493 357.376 71.526 357.107 71.2344C356.839 70.9382 356.633 70.5804 356.492 70.1611C356.351 69.7419 356.28 69.2633 356.28 68.7256V68.1172C356.28 67.5156 356.349 66.9893 356.485 66.5381C356.622 66.0824 356.816 65.6995 357.066 65.3896C357.317 65.0798 357.625 64.8496 357.989 64.6992C358.358 64.5443 358.775 64.4668 359.24 64.4668C359.705 64.4668 360.113 64.5443 360.464 64.6992C360.819 64.8496 361.113 65.0775 361.346 65.3828C361.578 65.6836 361.754 66.0573 361.872 66.5039C361.991 66.9505 362.05 67.4701 362.05 68.0625V68.9375H357.094V67.5908H360.17V67.4199C360.17 67.1191 360.138 66.8685 360.074 66.668C360.01 66.4629 359.91 66.3102 359.773 66.21C359.637 66.1097 359.454 66.0596 359.227 66.0596C359.035 66.0596 358.873 66.0983 358.741 66.1758C358.609 66.2533 358.504 66.374 358.427 66.5381C358.349 66.7021 358.292 66.9163 358.256 67.1807C358.219 67.4404 358.201 67.7526 358.201 68.1172V68.7256C358.201 69.0674 358.231 69.3545 358.29 69.5869C358.349 69.8148 358.436 70.0016 358.55 70.1475C358.668 70.2887 358.812 70.3913 358.98 70.4551C359.149 70.5143 359.345 70.5439 359.568 70.5439C359.906 70.5439 360.209 70.4847 360.478 70.3662C360.751 70.2432 360.983 70.0768 361.175 69.8672L361.94 71.0293C361.808 71.2025 361.626 71.3757 361.394 71.5488C361.161 71.722 360.883 71.8633 360.56 71.9727C360.236 72.082 359.862 72.1367 359.438 72.1367ZM358.044 63.6055L359.384 61.4932H361.537L359.65 63.6055H358.044ZM369.057 70.5439C369.234 70.5439 369.387 70.5075 369.515 70.4346C369.647 70.3617 369.747 70.2432 369.815 70.0791C369.884 69.915 369.92 69.7031 369.925 69.4434H371.723C371.723 69.9993 371.604 70.4801 371.367 70.8857C371.135 71.2868 370.82 71.5967 370.424 71.8154C370.032 72.0296 369.588 72.1367 369.091 72.1367C368.594 72.1367 368.161 72.057 367.792 71.8975C367.423 71.738 367.118 71.5055 366.876 71.2002C366.639 70.8949 366.459 70.5234 366.336 70.0859C366.217 69.6439 366.158 69.138 366.158 68.5684V68.0283C366.158 67.4678 366.217 66.9665 366.336 66.5244C366.459 66.0824 366.639 65.7087 366.876 65.4033C367.118 65.098 367.421 64.8656 367.785 64.7061C368.154 64.5465 368.587 64.4668 369.084 64.4668C369.617 64.4668 370.08 64.5785 370.472 64.8018C370.864 65.0205 371.169 65.3441 371.388 65.7725C371.611 66.2008 371.723 66.7295 371.723 67.3584H369.925C369.92 67.0758 369.886 66.8411 369.822 66.6543C369.763 66.4629 369.67 66.3171 369.542 66.2168C369.419 66.112 369.255 66.0596 369.05 66.0596C368.836 66.0596 368.662 66.1051 368.53 66.1963C368.403 66.2829 368.305 66.4105 368.236 66.5791C368.173 66.7432 368.129 66.9482 368.106 67.1943C368.084 67.4404 368.072 67.7184 368.072 68.0283V68.5684C368.072 68.901 368.081 69.1904 368.1 69.4365C368.122 69.6781 368.166 69.8831 368.229 70.0518C368.298 70.2158 368.396 70.3389 368.523 70.4209C368.656 70.5029 368.833 70.5439 369.057 70.5439ZM368.072 61.4932L368.858 62.4639L369.651 61.4932H371.278V61.5615L369.46 63.4824H368.277L366.445 61.5547V61.4932H368.072ZM374.888 64.6035V72H372.967V64.6035H374.888ZM373.001 63.7217L374.341 61.6094H376.494L374.607 63.7217H373.001ZM379.769 70.0039C379.769 69.8763 379.725 69.7624 379.639 69.6621C379.552 69.5618 379.415 69.4593 379.229 69.3545C379.042 69.2451 378.793 69.1243 378.483 68.9922C378.146 68.8555 377.848 68.7142 377.588 68.5684C377.328 68.4225 377.107 68.2607 376.925 68.083C376.747 67.9053 376.613 67.7025 376.521 67.4746C376.43 67.2467 376.385 66.987 376.385 66.6953C376.385 66.3809 376.442 66.0915 376.556 65.8271C376.674 65.5583 376.843 65.3236 377.062 65.123C377.28 64.918 377.547 64.7585 377.861 64.6445C378.18 64.526 378.538 64.4668 378.935 64.4668C379.491 64.4668 379.967 64.5648 380.363 64.7607C380.764 64.9521 381.072 65.221 381.286 65.5674C381.5 65.9137 381.607 66.3171 381.607 66.7773H379.693C379.693 66.6133 379.668 66.4674 379.618 66.3398C379.568 66.2077 379.486 66.1051 379.372 66.0322C379.263 65.9593 379.115 65.9229 378.928 65.9229C378.791 65.9229 378.668 65.9525 378.559 66.0117C378.454 66.071 378.369 66.1507 378.306 66.251C378.246 66.3467 378.217 66.4606 378.217 66.5928C378.217 66.693 378.237 66.7819 378.278 66.8594C378.324 66.9368 378.395 67.012 378.49 67.085C378.586 67.1579 378.714 67.2354 378.873 67.3174C379.037 67.3949 379.238 67.4814 379.475 67.5771C379.967 67.7594 380.37 67.9554 380.685 68.165C381.004 68.3747 381.241 68.6208 381.396 68.9033C381.55 69.1813 381.628 69.5254 381.628 69.9355C381.628 70.2637 381.564 70.5622 381.437 70.8311C381.313 71.0999 381.133 71.3324 380.896 71.5283C380.66 71.7243 380.375 71.8747 380.042 71.9795C379.714 72.0843 379.347 72.1367 378.941 72.1367C378.344 72.1367 377.841 72.0182 377.431 71.7812C377.021 71.5443 376.711 71.2412 376.501 70.8721C376.291 70.4984 376.187 70.111 376.187 69.71H378.005C378.014 69.9561 378.06 70.1497 378.142 70.291C378.228 70.4277 378.344 70.5234 378.49 70.5781C378.636 70.6328 378.798 70.6602 378.976 70.6602C379.153 70.6602 379.299 70.6374 379.413 70.5918C379.532 70.5417 379.62 70.4665 379.68 70.3662C379.739 70.2614 379.769 70.1406 379.769 70.0039ZM384.854 61.5V72H382.934V61.5H384.854ZM386.153 68.5547V68.0557C386.153 67.4769 386.222 66.9642 386.358 66.5176C386.5 66.071 386.7 65.6973 386.96 65.3965C387.22 65.0911 387.532 64.861 387.896 64.7061C388.266 64.5465 388.678 64.4668 389.134 64.4668C389.594 64.4668 390.007 64.5465 390.371 64.7061C390.74 64.861 391.055 65.0911 391.314 65.3965C391.579 65.6973 391.782 66.071 391.923 66.5176C392.064 66.9642 392.135 67.4769 392.135 68.0557V68.5547C392.135 69.1289 392.064 69.6393 391.923 70.0859C391.782 70.5326 391.579 70.9085 391.314 71.2139C391.055 71.5192 390.743 71.7493 390.378 71.9043C390.013 72.0592 389.603 72.1367 389.147 72.1367C388.692 72.1367 388.279 72.0592 387.91 71.9043C387.546 71.7493 387.231 71.5192 386.967 71.2139C386.702 70.9085 386.5 70.5326 386.358 70.0859C386.222 69.6393 386.153 69.1289 386.153 68.5547ZM388.067 68.0557V68.5547C388.067 68.8965 388.09 69.1927 388.136 69.4434C388.186 69.694 388.257 69.9014 388.348 70.0654C388.443 70.2295 388.557 70.3503 388.689 70.4277C388.822 70.5052 388.974 70.5439 389.147 70.5439C389.321 70.5439 389.476 70.5052 389.612 70.4277C389.749 70.3503 389.861 70.2295 389.947 70.0654C390.038 69.9014 390.104 69.694 390.146 69.4434C390.191 69.1927 390.214 68.8965 390.214 68.5547V68.0557C390.214 67.723 390.189 67.4313 390.139 67.1807C390.089 66.9255 390.018 66.7181 389.927 66.5586C389.836 66.3945 389.722 66.2715 389.585 66.1895C389.453 66.1029 389.302 66.0596 389.134 66.0596C388.965 66.0596 388.815 66.1029 388.683 66.1895C388.555 66.2715 388.443 66.3945 388.348 66.5586C388.257 66.7181 388.186 66.9255 388.136 67.1807C388.09 67.4313 388.067 67.723 388.067 68.0557Z" fill="url(#paint1_linear_1405_1392)"/>
<path d="M644.045 62.0469V72H642.042V62.0469H644.045ZM647.162 66.2783V67.9326H643.539V66.2783H647.162ZM647.545 62.0469V63.708H643.539V62.0469H647.545ZM651.646 70.2979V66.8799C651.646 66.6566 651.619 66.4788 651.564 66.3467C651.514 66.2145 651.437 66.1188 651.332 66.0596C651.232 65.9958 651.109 65.9639 650.963 65.9639C650.799 65.9639 650.662 65.998 650.553 66.0664C650.443 66.1348 650.361 66.2327 650.307 66.3604C650.257 66.488 650.231 66.6406 650.231 66.8184H648.311C648.311 66.4993 648.372 66.1986 648.495 65.916C648.618 65.6289 648.798 65.3783 649.035 65.1641C649.277 64.9453 649.564 64.7744 649.896 64.6514C650.229 64.5283 650.603 64.4668 651.018 64.4668C651.51 64.4668 651.947 64.5511 652.33 64.7197C652.713 64.8838 653.016 65.1458 653.239 65.5059C653.463 65.8659 653.574 66.333 653.574 66.9072V70.2021C653.574 70.6169 653.595 70.9541 653.636 71.2139C653.681 71.4736 653.747 71.6969 653.834 71.8838V72H651.906C651.82 71.7949 651.754 71.5397 651.708 71.2344C651.667 70.9245 651.646 70.6123 651.646 70.2979ZM651.879 67.4814L651.886 68.6299H651.182C650.999 68.6299 650.84 68.6595 650.703 68.7188C650.571 68.778 650.459 68.8623 650.368 68.9717C650.277 69.0765 650.209 69.1995 650.163 69.3408C650.122 69.4821 650.102 69.6325 650.102 69.792C650.102 69.9697 650.127 70.1201 650.177 70.2432C650.227 70.3662 650.302 70.4596 650.402 70.5234C650.503 70.5872 650.621 70.6191 650.758 70.6191C650.967 70.6191 651.15 70.5758 651.305 70.4893C651.46 70.4027 651.574 70.2979 651.646 70.1748C651.724 70.0518 651.749 69.9378 651.722 69.833L652.159 70.5781C652.104 70.7467 652.029 70.9222 651.934 71.1045C651.842 71.2868 651.726 71.4554 651.585 71.6104C651.444 71.7653 651.268 71.8929 651.059 71.9932C650.854 72.0889 650.61 72.1367 650.327 72.1367C649.931 72.1367 649.568 72.0456 649.24 71.8633C648.912 71.681 648.652 71.4258 648.461 71.0977C648.274 70.7695 648.181 70.3799 648.181 69.9287C648.181 69.555 648.24 69.2178 648.358 68.917C648.481 68.6117 648.664 68.3542 648.905 68.1445C649.147 67.9303 649.452 67.7663 649.821 67.6523C650.19 67.5384 650.623 67.4814 651.12 67.4814H651.879ZM656.903 61.4932V72H654.989V61.4932H656.903ZM660.793 64.6035L658.188 68.2812L656.623 70.0381L655.946 68.582L657.149 66.8252L658.51 64.6035H660.793ZM658.797 72L657.184 68.6025L658.503 67.3857L660.991 72H658.797ZM664.915 64.6035V66.0459H661.142V64.6035H664.915ZM662.01 62.7783H663.917V69.7441C663.917 69.9492 663.938 70.1064 663.979 70.2158C664.02 70.3252 664.081 70.4027 664.163 70.4482C664.25 70.4893 664.364 70.5098 664.505 70.5098C664.601 70.5098 664.689 70.5052 664.771 70.4961C664.854 70.4824 664.915 70.4688 664.956 70.4551V71.9521C664.806 72.0114 664.646 72.057 664.478 72.0889C664.313 72.1208 664.118 72.1367 663.89 72.1367C663.507 72.1367 663.174 72.0638 662.892 71.918C662.614 71.7721 662.397 71.5397 662.242 71.2207C662.087 70.8971 662.01 70.4733 662.01 69.9492V62.7783ZM669.557 70.2227V64.6035H671.478V72H669.673L669.557 70.2227ZM669.775 68.6982L670.309 68.6846C670.309 69.1813 670.261 69.6416 670.165 70.0654C670.069 70.4847 669.926 70.8493 669.734 71.1592C669.543 71.4691 669.304 71.7106 669.017 71.8838C668.729 72.0524 668.39 72.1367 667.998 72.1367C667.697 72.1367 667.419 72.0866 667.164 71.9863C666.913 71.8815 666.697 71.7197 666.515 71.501C666.332 71.2777 666.189 70.9928 666.084 70.6465C665.984 70.2956 665.934 69.874 665.934 69.3818V64.6035H667.854V69.4023C667.854 69.6029 667.873 69.776 667.909 69.9219C667.946 70.0632 667.996 70.1794 668.06 70.2705C668.123 70.3617 668.199 70.4277 668.285 70.4688C668.372 70.5052 668.47 70.5234 668.579 70.5234C668.88 70.5234 669.117 70.446 669.29 70.291C669.468 70.1315 669.593 69.915 669.666 69.6416C669.739 69.3636 669.775 69.0492 669.775 68.6982ZM674.786 66.251V72H672.872V64.6035H674.677L674.786 66.251ZM676.529 64.5488L676.502 66.4561C676.415 66.4378 676.311 66.4242 676.188 66.415C676.069 66.4059 675.964 66.4014 675.873 66.4014C675.659 66.4014 675.477 66.4355 675.326 66.5039C675.176 66.5677 675.05 66.6657 674.95 66.7979C674.854 66.9255 674.782 67.085 674.731 67.2764C674.681 67.4678 674.652 67.6842 674.643 67.9258L674.28 67.7891C674.28 67.306 674.317 66.8639 674.39 66.4629C674.467 66.0573 674.581 65.7064 674.731 65.4102C674.882 65.1094 675.062 64.877 675.271 64.7129C675.486 64.5488 675.727 64.4668 675.996 64.4668C676.087 64.4668 676.183 64.4759 676.283 64.4941C676.388 64.5078 676.47 64.526 676.529 64.5488ZM680.562 70.2979V66.8799C680.562 66.6566 680.535 66.4788 680.48 66.3467C680.43 66.2145 680.353 66.1188 680.248 66.0596C680.148 65.9958 680.025 65.9639 679.879 65.9639C679.715 65.9639 679.578 65.998 679.469 66.0664C679.359 66.1348 679.277 66.2327 679.223 66.3604C679.173 66.488 679.147 66.6406 679.147 66.8184H677.227C677.227 66.4993 677.288 66.1986 677.411 65.916C677.534 65.6289 677.714 65.3783 677.951 65.1641C678.193 64.9453 678.48 64.7744 678.812 64.6514C679.145 64.5283 679.519 64.4668 679.934 64.4668C680.426 64.4668 680.863 64.5511 681.246 64.7197C681.629 64.8838 681.932 65.1458 682.155 65.5059C682.379 65.8659 682.49 66.333 682.49 66.9072V70.2021C682.49 70.6169 682.511 70.9541 682.552 71.2139C682.597 71.4736 682.663 71.6969 682.75 71.8838V72H680.822C680.736 71.7949 680.67 71.5397 680.624 71.2344C680.583 70.9245 680.562 70.6123 680.562 70.2979ZM680.795 67.4814L680.802 68.6299H680.098C679.915 68.6299 679.756 68.6595 679.619 68.7188C679.487 68.778 679.375 68.8623 679.284 68.9717C679.193 69.0765 679.125 69.1995 679.079 69.3408C679.038 69.4821 679.018 69.6325 679.018 69.792C679.018 69.9697 679.043 70.1201 679.093 70.2432C679.143 70.3662 679.218 70.4596 679.318 70.5234C679.419 70.5872 679.537 70.6191 679.674 70.6191C679.883 70.6191 680.066 70.5758 680.221 70.4893C680.376 70.4027 680.49 70.2979 680.562 70.1748C680.64 70.0518 680.665 69.9378 680.638 69.833L681.075 70.5781C681.021 70.7467 680.945 70.9222 680.85 71.1045C680.758 71.2868 680.642 71.4554 680.501 71.6104C680.36 71.7653 680.184 71.8929 679.975 71.9932C679.77 72.0889 679.526 72.1367 679.243 72.1367C678.847 72.1367 678.484 72.0456 678.156 71.8633C677.828 71.681 677.568 71.4258 677.377 71.0977C677.19 70.7695 677.097 70.3799 677.097 69.9287C677.097 69.555 677.156 69.2178 677.274 68.917C677.397 68.6117 677.58 68.3542 677.821 68.1445C678.063 67.9303 678.368 67.7663 678.737 67.6523C679.106 67.5384 679.539 67.4814 680.036 67.4814H680.795ZM678.922 63.6123L680.262 61.5H682.415L680.528 63.6123H678.922ZM686.578 70.5439C686.756 70.5439 686.909 70.5075 687.036 70.4346C687.168 70.3617 687.269 70.2432 687.337 70.0791C687.405 69.915 687.442 69.7031 687.446 69.4434H689.244C689.244 69.9993 689.126 70.4801 688.889 70.8857C688.656 71.2868 688.342 71.5967 687.945 71.8154C687.553 72.0296 687.109 72.1367 686.612 72.1367C686.116 72.1367 685.683 72.057 685.313 71.8975C684.944 71.738 684.639 71.5055 684.397 71.2002C684.16 70.8949 683.98 70.5234 683.857 70.0859C683.739 69.6439 683.68 69.138 683.68 68.5684V68.0283C683.68 67.4678 683.739 66.9665 683.857 66.5244C683.98 66.0824 684.16 65.7087 684.397 65.4033C684.639 65.098 684.942 64.8656 685.307 64.7061C685.676 64.5465 686.109 64.4668 686.605 64.4668C687.139 64.4668 687.601 64.5785 687.993 64.8018C688.385 65.0205 688.69 65.3441 688.909 65.7725C689.132 66.2008 689.244 66.7295 689.244 67.3584H687.446C687.442 67.0758 687.408 66.8411 687.344 66.6543C687.285 66.4629 687.191 66.3171 687.063 66.2168C686.94 66.112 686.776 66.0596 686.571 66.0596C686.357 66.0596 686.184 66.1051 686.052 66.1963C685.924 66.2829 685.826 66.4105 685.758 66.5791C685.694 66.7432 685.651 66.9482 685.628 67.1943C685.605 67.4404 685.594 67.7184 685.594 68.0283V68.5684C685.594 68.901 685.603 69.1904 685.621 69.4365C685.644 69.6781 685.687 69.8831 685.751 70.0518C685.819 70.2158 685.917 70.3389 686.045 70.4209C686.177 70.5029 686.355 70.5439 686.578 70.5439ZM692.354 64.6035V72H690.434V64.6035H692.354ZM690.345 62.6895C690.345 62.3932 690.438 62.1494 690.625 61.958C690.816 61.762 691.072 61.6641 691.391 61.6641C691.714 61.6641 691.969 61.762 692.156 61.958C692.343 62.1494 692.437 62.3932 692.437 62.6895C692.437 62.9811 692.341 63.2249 692.149 63.4209C691.963 63.6123 691.712 63.708 691.397 63.708C691.074 63.708 690.816 63.6123 690.625 63.4209C690.438 63.2249 690.345 62.9811 690.345 62.6895ZM697.133 70.2979V66.8799C697.133 66.6566 697.105 66.4788 697.051 66.3467C697.001 66.2145 696.923 66.1188 696.818 66.0596C696.718 65.9958 696.595 65.9639 696.449 65.9639C696.285 65.9639 696.148 65.998 696.039 66.0664C695.93 66.1348 695.848 66.2327 695.793 66.3604C695.743 66.488 695.718 66.6406 695.718 66.8184H693.797C693.797 66.4993 693.858 66.1986 693.981 65.916C694.104 65.6289 694.285 65.3783 694.521 65.1641C694.763 64.9453 695.05 64.7744 695.383 64.6514C695.715 64.5283 696.089 64.4668 696.504 64.4668C696.996 64.4668 697.434 64.5511 697.816 64.7197C698.199 64.8838 698.502 65.1458 698.726 65.5059C698.949 65.8659 699.061 66.333 699.061 66.9072V70.2021C699.061 70.6169 699.081 70.9541 699.122 71.2139C699.168 71.4736 699.234 71.6969 699.32 71.8838V72H697.393C697.306 71.7949 697.24 71.5397 697.194 71.2344C697.153 70.9245 697.133 70.6123 697.133 70.2979ZM697.365 67.4814L697.372 68.6299H696.668C696.486 68.6299 696.326 68.6595 696.189 68.7188C696.057 68.778 695.946 68.8623 695.854 68.9717C695.763 69.0765 695.695 69.1995 695.649 69.3408C695.608 69.4821 695.588 69.6325 695.588 69.792C695.588 69.9697 695.613 70.1201 695.663 70.2432C695.713 70.3662 695.788 70.4596 695.889 70.5234C695.989 70.5872 696.107 70.6191 696.244 70.6191C696.454 70.6191 696.636 70.5758 696.791 70.4893C696.946 70.4027 697.06 70.2979 697.133 70.1748C697.21 70.0518 697.235 69.9378 697.208 69.833L697.646 70.5781C697.591 70.7467 697.516 70.9222 697.42 71.1045C697.329 71.2868 697.213 71.4554 697.071 71.6104C696.93 71.7653 696.755 71.8929 696.545 71.9932C696.34 72.0889 696.096 72.1367 695.813 72.1367C695.417 72.1367 695.055 72.0456 694.727 71.8633C694.398 71.681 694.139 71.4258 693.947 71.0977C693.76 70.7695 693.667 70.3799 693.667 69.9287C693.667 69.555 693.726 69.2178 693.845 68.917C693.968 68.6117 694.15 68.3542 694.392 68.1445C694.633 67.9303 694.938 67.7663 695.308 67.6523C695.677 67.5384 696.11 67.4814 696.606 67.4814H697.365Z" fill="#E0E0E9"/>
<path d="M951.29 59.0469V69H949.287V59.0469H951.29ZM956.232 59.0469L953.006 63.9893L951.03 66.4502L950.647 64.4473L951.926 62.3145L953.799 59.0469H956.232ZM953.922 69L951.748 64.4268L953.218 63.1279L956.28 69H953.922ZM956.533 65.5547V65.0557C956.533 64.4769 956.602 63.9642 956.738 63.5176C956.88 63.071 957.08 62.6973 957.34 62.3965C957.6 62.0911 957.912 61.861 958.276 61.7061C958.646 61.5465 959.058 61.4668 959.514 61.4668C959.974 61.4668 960.386 61.5465 960.751 61.7061C961.12 61.861 961.435 62.0911 961.694 62.3965C961.959 62.6973 962.161 63.071 962.303 63.5176C962.444 63.9642 962.515 64.4769 962.515 65.0557V65.5547C962.515 66.1289 962.444 66.6393 962.303 67.0859C962.161 67.5326 961.959 67.9085 961.694 68.2139C961.435 68.5192 961.122 68.7493 960.758 68.9043C960.393 69.0592 959.983 69.1367 959.527 69.1367C959.072 69.1367 958.659 69.0592 958.29 68.9043C957.925 68.7493 957.611 68.5192 957.347 68.2139C957.082 67.9085 956.88 67.5326 956.738 67.0859C956.602 66.6393 956.533 66.1289 956.533 65.5547ZM958.447 65.0557V65.5547C958.447 65.8965 958.47 66.1927 958.516 66.4434C958.566 66.694 958.636 66.9014 958.728 67.0654C958.823 67.2295 958.937 67.3503 959.069 67.4277C959.201 67.5052 959.354 67.5439 959.527 67.5439C959.701 67.5439 959.855 67.5052 959.992 67.4277C960.129 67.3503 960.241 67.2295 960.327 67.0654C960.418 66.9014 960.484 66.694 960.525 66.4434C960.571 66.1927 960.594 65.8965 960.594 65.5547V65.0557C960.594 64.723 960.569 64.4313 960.519 64.1807C960.468 63.9255 960.398 63.7181 960.307 63.5586C960.215 63.3945 960.102 63.2715 959.965 63.1895C959.833 63.1029 959.682 63.0596 959.514 63.0596C959.345 63.0596 959.195 63.1029 959.062 63.1895C958.935 63.2715 958.823 63.3945 958.728 63.5586C958.636 63.7181 958.566 63.9255 958.516 64.1807C958.47 64.4313 958.447 64.723 958.447 65.0557ZM965.604 63.1826V69H963.684V61.6035H965.481L965.604 63.1826ZM965.317 65.0488L964.805 65.0625C964.796 64.5065 964.848 64.0075 964.962 63.5654C965.08 63.1234 965.247 62.7474 965.461 62.4375C965.68 62.123 965.939 61.8838 966.24 61.7197C966.546 61.5511 966.885 61.4668 967.259 61.4668C967.546 61.4668 967.808 61.5169 968.045 61.6172C968.286 61.7174 968.494 61.877 968.667 62.0957C968.84 62.3145 968.975 62.6061 969.07 62.9707C969.166 63.3307 969.214 63.7728 969.214 64.2969V69H967.293V64.2832C967.293 63.9642 967.261 63.7181 967.197 63.5449C967.133 63.3672 967.038 63.2441 966.91 63.1758C966.783 63.1029 966.623 63.0664 966.432 63.0664C966.249 63.0664 966.088 63.1188 965.946 63.2236C965.805 63.3239 965.687 63.4629 965.591 63.6406C965.5 63.8184 965.429 64.028 965.379 64.2695C965.333 64.5111 965.313 64.7708 965.317 65.0488ZM973.842 61.6035V63.0459H970.068V61.6035H973.842ZM970.937 59.7783H972.844V66.7441C972.844 66.9492 972.864 67.1064 972.905 67.2158C972.946 67.3252 973.008 67.4027 973.09 67.4482C973.176 67.4893 973.29 67.5098 973.432 67.5098C973.527 67.5098 973.616 67.5052 973.698 67.4961C973.78 67.4824 973.842 67.4688 973.883 67.4551V68.9521C973.732 69.0114 973.573 69.057 973.404 69.0889C973.24 69.1208 973.044 69.1367 972.816 69.1367C972.434 69.1367 972.101 69.0638 971.818 68.918C971.54 68.7721 971.324 68.5397 971.169 68.2207C971.014 67.8971 970.937 67.4733 970.937 66.9492V59.7783ZM976.822 63.251V69H974.908V61.6035H976.713L976.822 63.251ZM978.565 61.5488L978.538 63.4561C978.451 63.4378 978.347 63.4242 978.224 63.415C978.105 63.4059 978 63.4014 977.909 63.4014C977.695 63.4014 977.513 63.4355 977.362 63.5039C977.212 63.5677 977.087 63.6657 976.986 63.7979C976.891 63.9255 976.818 64.085 976.768 64.2764C976.717 64.4678 976.688 64.6842 976.679 64.9258L976.316 64.7891C976.316 64.306 976.353 63.8639 976.426 63.4629C976.503 63.0573 976.617 62.7064 976.768 62.4102C976.918 62.1094 977.098 61.877 977.308 61.7129C977.522 61.5488 977.763 61.4668 978.032 61.4668C978.123 61.4668 978.219 61.4759 978.319 61.4941C978.424 61.5078 978.506 61.526 978.565 61.5488ZM979.078 65.5547V65.0557C979.078 64.4769 979.146 63.9642 979.283 63.5176C979.424 63.071 979.625 62.6973 979.885 62.3965C980.145 62.0911 980.457 61.861 980.821 61.7061C981.19 61.5465 981.603 61.4668 982.059 61.4668C982.519 61.4668 982.931 61.5465 983.296 61.7061C983.665 61.861 983.979 62.0911 984.239 62.3965C984.504 62.6973 984.706 63.071 984.848 63.5176C984.989 63.9642 985.06 64.4769 985.06 65.0557V65.5547C985.06 66.1289 984.989 66.6393 984.848 67.0859C984.706 67.5326 984.504 67.9085 984.239 68.2139C983.979 68.5192 983.667 68.7493 983.303 68.9043C982.938 69.0592 982.528 69.1367 982.072 69.1367C981.617 69.1367 981.204 69.0592 980.835 68.9043C980.47 68.7493 980.156 68.5192 979.892 68.2139C979.627 67.9085 979.424 67.5326 979.283 67.0859C979.146 66.6393 979.078 66.1289 979.078 65.5547ZM980.992 65.0557V65.5547C980.992 65.8965 981.015 66.1927 981.061 66.4434C981.111 66.694 981.181 66.9014 981.272 67.0654C981.368 67.2295 981.482 67.3503 981.614 67.4277C981.746 67.5052 981.899 67.5439 982.072 67.5439C982.245 67.5439 982.4 67.5052 982.537 67.4277C982.674 67.3503 982.785 67.2295 982.872 67.0654C982.963 66.9014 983.029 66.694 983.07 66.4434C983.116 66.1927 983.139 65.8965 983.139 65.5547V65.0557C983.139 64.723 983.114 64.4313 983.063 64.1807C983.013 63.9255 982.943 63.7181 982.852 63.5586C982.76 63.3945 982.646 63.2715 982.51 63.1895C982.378 63.1029 982.227 63.0596 982.059 63.0596C981.89 63.0596 981.74 63.1029 981.607 63.1895C981.48 63.2715 981.368 63.3945 981.272 63.5586C981.181 63.7181 981.111 63.9255 981.061 64.1807C981.015 64.4313 980.992 64.723 980.992 65.0557ZM988.279 58.5V69H986.358V58.5H988.279ZM993.058 67.2979V63.8799C993.058 63.6566 993.03 63.4788 992.976 63.3467C992.925 63.2145 992.848 63.1188 992.743 63.0596C992.643 62.9958 992.52 62.9639 992.374 62.9639C992.21 62.9639 992.073 62.998 991.964 63.0664C991.854 63.1348 991.772 63.2327 991.718 63.3604C991.668 63.488 991.643 63.6406 991.643 63.8184H989.722C989.722 63.4993 989.783 63.1986 989.906 62.916C990.029 62.6289 990.209 62.3783 990.446 62.1641C990.688 61.9453 990.975 61.7744 991.308 61.6514C991.64 61.5283 992.014 61.4668 992.429 61.4668C992.921 61.4668 993.358 61.5511 993.741 61.7197C994.124 61.8838 994.427 62.1458 994.65 62.5059C994.874 62.8659 994.985 63.333 994.985 63.9072V67.2021C994.985 67.6169 995.006 67.9541 995.047 68.2139C995.092 68.4736 995.159 68.6969 995.245 68.8838V69H993.317C993.231 68.7949 993.165 68.5397 993.119 68.2344C993.078 67.9245 993.058 67.6123 993.058 67.2979ZM993.29 64.4814L993.297 65.6299H992.593C992.41 65.6299 992.251 65.6595 992.114 65.7188C991.982 65.778 991.87 65.8623 991.779 65.9717C991.688 66.0765 991.62 66.1995 991.574 66.3408C991.533 66.4821 991.513 66.6325 991.513 66.792C991.513 66.9697 991.538 67.1201 991.588 67.2432C991.638 67.3662 991.713 67.4596 991.813 67.5234C991.914 67.5872 992.032 67.6191 992.169 67.6191C992.379 67.6191 992.561 67.5758 992.716 67.4893C992.871 67.4027 992.985 67.2979 993.058 67.1748C993.135 67.0518 993.16 66.9378 993.133 66.833L993.57 67.5781C993.516 67.7467 993.44 67.9222 993.345 68.1045C993.254 68.2868 993.137 68.4554 992.996 68.6104C992.855 68.7653 992.679 68.8929 992.47 68.9932C992.265 69.0889 992.021 69.1367 991.738 69.1367C991.342 69.1367 990.979 69.0456 990.651 68.8633C990.323 68.681 990.063 68.4258 989.872 68.0977C989.685 67.7695 989.592 67.3799 989.592 66.9287C989.592 66.555 989.651 66.2178 989.77 65.917C989.893 65.6117 990.075 65.3542 990.316 65.1445C990.558 64.9303 990.863 64.7663 991.232 64.6523C991.602 64.5384 992.035 64.4814 992.531 64.4814H993.29ZM1002.89 67.2979V63.8799C1002.89 63.6566 1002.86 63.4788 1002.81 63.3467C1002.76 63.2145 1002.68 63.1188 1002.57 63.0596C1002.47 62.9958 1002.35 62.9639 1002.2 62.9639C1002.04 62.9639 1001.9 62.998 1001.79 63.0664C1001.68 63.1348 1001.6 63.2327 1001.55 63.3604C1001.5 63.488 1001.47 63.6406 1001.47 63.8184H999.552C999.552 63.4993 999.613 63.1986 999.736 62.916C999.859 62.6289 1000.04 62.3783 1000.28 62.1641C1000.52 61.9453 1000.81 61.7744 1001.14 61.6514C1001.47 61.5283 1001.84 61.4668 1002.26 61.4668C1002.75 61.4668 1003.19 61.5511 1003.57 61.7197C1003.95 61.8838 1004.26 62.1458 1004.48 62.5059C1004.7 62.8659 1004.82 63.333 1004.82 63.9072V67.2021C1004.82 67.6169 1004.84 67.9541 1004.88 68.2139C1004.92 68.4736 1004.99 68.6969 1005.08 68.8838V69H1003.15C1003.06 68.7949 1002.99 68.5397 1002.95 68.2344C1002.91 67.9245 1002.89 67.6123 1002.89 67.2979ZM1003.12 64.4814L1003.13 65.6299H1002.42C1002.24 65.6299 1002.08 65.6595 1001.94 65.7188C1001.81 65.778 1001.7 65.8623 1001.61 65.9717C1001.52 66.0765 1001.45 66.1995 1001.4 66.3408C1001.36 66.4821 1001.34 66.6325 1001.34 66.792C1001.34 66.9697 1001.37 67.1201 1001.42 67.2432C1001.47 67.3662 1001.54 67.4596 1001.64 67.5234C1001.74 67.5872 1001.86 67.6191 1002 67.6191C1002.21 67.6191 1002.39 67.5758 1002.55 67.4893C1002.7 67.4027 1002.81 67.2979 1002.89 67.1748C1002.97 67.0518 1002.99 66.9378 1002.96 66.833L1003.4 67.5781C1003.35 67.7467 1003.27 67.9222 1003.17 68.1045C1003.08 68.2868 1002.97 68.4554 1002.83 68.6104C1002.68 68.7653 1002.51 68.8929 1002.3 68.9932C1002.09 69.0889 1001.85 69.1367 1001.57 69.1367C1001.17 69.1367 1000.81 69.0456 1000.48 68.8633C1000.15 68.681 999.894 68.4258 999.702 68.0977C999.515 67.7695 999.422 67.3799 999.422 66.9287C999.422 66.555 999.481 66.2178 999.6 65.917C999.723 65.6117 999.905 65.3542 1000.15 65.1445C1000.39 64.9303 1000.69 64.7663 1001.06 64.6523C1001.43 64.5384 1001.86 64.4814 1002.36 64.4814H1003.12ZM962.18 77.0254V85.8438H960.272V75.6035H962.036L962.18 77.0254ZM966.021 79.0488V79.541C966.021 80.1198 965.971 80.6325 965.871 81.0791C965.771 81.5212 965.62 81.8971 965.42 82.207C965.224 82.5124 964.978 82.7448 964.682 82.9043C964.385 83.0592 964.039 83.1367 963.643 83.1367C963.273 83.1367 962.954 83.0501 962.686 82.877C962.421 82.6992 962.198 82.4554 962.016 82.1455C961.833 81.8356 961.688 81.4733 961.578 81.0586C961.469 80.6439 961.384 80.1995 961.325 79.7256V78.96C961.38 78.4541 961.46 77.9893 961.564 77.5654C961.669 77.137 961.813 76.7656 961.995 76.4512C962.182 76.1367 962.408 75.8952 962.672 75.7266C962.941 75.5534 963.26 75.4668 963.629 75.4668C964.03 75.4668 964.379 75.5397 964.675 75.6855C964.976 75.8314 965.224 76.0524 965.42 76.3486C965.62 76.6403 965.771 77.0117 965.871 77.4629C965.971 77.9141 966.021 78.4427 966.021 79.0488ZM964.107 79.541V79.0488C964.107 78.6934 964.087 78.3903 964.046 78.1396C964.009 77.889 963.95 77.6839 963.868 77.5244C963.786 77.3649 963.679 77.2487 963.547 77.1758C963.415 77.1029 963.253 77.0664 963.062 77.0664C962.875 77.0664 962.711 77.1029 962.569 77.1758C962.433 77.2487 962.321 77.3558 962.234 77.4971C962.148 77.6338 962.082 77.8024 962.036 78.0029C961.991 78.1989 961.965 78.4222 961.961 78.6729V80.0127C961.97 80.3089 962.009 80.571 962.077 80.7988C962.15 81.0267 962.266 81.209 962.426 81.3457C962.585 81.4779 962.802 81.5439 963.075 81.5439C963.271 81.5439 963.433 81.5029 963.561 81.4209C963.693 81.3389 963.8 81.2158 963.882 81.0518C963.964 80.8877 964.021 80.6803 964.053 80.4297C964.089 80.179 964.107 79.8828 964.107 79.541ZM969.207 72.5V83H967.286V72.5H969.207ZM973.985 81.2979V77.8799C973.985 77.6566 973.958 77.4788 973.903 77.3467C973.853 77.2145 973.776 77.1188 973.671 77.0596C973.571 76.9958 973.448 76.9639 973.302 76.9639C973.138 76.9639 973.001 76.998 972.892 77.0664C972.782 77.1348 972.7 77.2327 972.646 77.3604C972.595 77.488 972.57 77.6406 972.57 77.8184H970.649C970.649 77.4993 970.711 77.1986 970.834 76.916C970.957 76.6289 971.137 76.3783 971.374 76.1641C971.616 75.9453 971.903 75.7744 972.235 75.6514C972.568 75.5283 972.942 75.4668 973.356 75.4668C973.849 75.4668 974.286 75.5511 974.669 75.7197C975.052 75.8838 975.355 76.1458 975.578 76.5059C975.801 76.8659 975.913 77.333 975.913 77.9072V81.2021C975.913 81.6169 975.934 81.9541 975.975 82.2139C976.02 82.4736 976.086 82.6969 976.173 82.8838V83H974.245C974.159 82.7949 974.092 82.5397 974.047 82.2344C974.006 81.9245 973.985 81.6123 973.985 81.2979ZM974.218 78.4814L974.225 79.6299H973.521C973.338 79.6299 973.179 79.6595 973.042 79.7188C972.91 79.778 972.798 79.8623 972.707 79.9717C972.616 80.0765 972.548 80.1995 972.502 80.3408C972.461 80.4821 972.44 80.6325 972.44 80.792C972.44 80.9697 972.465 81.1201 972.516 81.2432C972.566 81.3662 972.641 81.4596 972.741 81.5234C972.841 81.5872 972.96 81.6191 973.097 81.6191C973.306 81.6191 973.489 81.5758 973.644 81.4893C973.799 81.4027 973.912 81.2979 973.985 81.1748C974.063 81.0518 974.088 80.9378 974.061 80.833L974.498 81.5781C974.443 81.7467 974.368 81.9222 974.272 82.1045C974.181 82.2868 974.065 82.4554 973.924 82.6104C973.783 82.7653 973.607 82.8929 973.397 82.9932C973.192 83.0889 972.949 83.1367 972.666 83.1367C972.27 83.1367 971.907 83.0456 971.579 82.8633C971.251 82.681 970.991 82.4258 970.8 82.0977C970.613 81.7695 970.52 81.3799 970.52 80.9287C970.52 80.555 970.579 80.2178 970.697 79.917C970.82 79.6117 971.003 79.3542 971.244 79.1445C971.486 78.9303 971.791 78.7663 972.16 78.6523C972.529 78.5384 972.962 78.4814 973.459 78.4814H974.218ZM980.555 75.6035V77.0459H976.781V75.6035H980.555ZM977.649 73.7783H979.557V80.7441C979.557 80.9492 979.577 81.1064 979.618 81.2158C979.659 81.3252 979.721 81.4027 979.803 81.4482C979.889 81.4893 980.003 81.5098 980.145 81.5098C980.24 81.5098 980.329 81.5052 980.411 81.4961C980.493 81.4824 980.555 81.4688 980.596 81.4551V82.9521C980.445 83.0114 980.286 83.057 980.117 83.0889C979.953 83.1208 979.757 83.1367 979.529 83.1367C979.146 83.1367 978.814 83.0638 978.531 82.918C978.253 82.7721 978.037 82.5397 977.882 82.2207C977.727 81.8971 977.649 81.4733 977.649 80.9492V73.7783ZM981.628 72.5H983.535V81.2842L983.398 83H981.628V72.5ZM987.377 79.0557V79.541C987.377 80.1426 987.329 80.6667 987.233 81.1133C987.142 81.5599 986.999 81.9336 986.803 82.2344C986.611 82.5352 986.365 82.7607 986.064 82.9111C985.764 83.0615 985.408 83.1367 984.998 83.1367C984.629 83.1367 984.312 83.0501 984.048 82.877C983.784 82.6992 983.56 82.4554 983.378 82.1455C983.2 81.8311 983.054 81.4642 982.94 81.0449C982.831 80.6211 982.751 80.1585 982.701 79.6572V78.9395C982.747 78.4473 982.824 77.9893 982.934 77.5654C983.048 77.1416 983.193 76.7747 983.371 76.4648C983.549 76.1504 983.77 75.9066 984.034 75.7334C984.303 75.5557 984.62 75.4668 984.984 75.4668C985.404 75.4668 985.764 75.5443 986.064 75.6992C986.365 75.8496 986.611 76.0752 986.803 76.376C986.999 76.6768 987.142 77.0527 987.233 77.5039C987.329 77.9505 987.377 78.4678 987.377 79.0557ZM985.47 79.541V79.0557C985.47 78.7139 985.456 78.4199 985.429 78.1738C985.401 77.9277 985.351 77.7227 985.278 77.5586C985.205 77.3945 985.101 77.2715 984.964 77.1895C984.832 77.1074 984.656 77.0664 984.438 77.0664C984.242 77.0664 984.077 77.1051 983.945 77.1826C983.813 77.2555 983.699 77.3649 983.604 77.5107C983.512 77.652 983.444 77.8206 983.398 78.0166C983.357 78.208 983.335 78.4199 983.33 78.6523V79.9443C983.335 80.2588 983.373 80.5368 983.446 80.7783C983.519 81.0199 983.635 81.2067 983.795 81.3389C983.959 81.471 984.178 81.5371 984.451 81.5371C984.665 81.5371 984.839 81.5007 984.971 81.4277C985.103 81.3548 985.205 81.2386 985.278 81.0791C985.356 80.9196 985.406 80.7145 985.429 80.4639C985.456 80.2087 985.47 79.901 985.47 79.541ZM991.813 81.2979V77.8799C991.813 77.6566 991.786 77.4788 991.731 77.3467C991.681 77.2145 991.604 77.1188 991.499 77.0596C991.399 76.9958 991.276 76.9639 991.13 76.9639C990.966 76.9639 990.829 76.998 990.72 77.0664C990.61 77.1348 990.528 77.2327 990.474 77.3604C990.424 77.488 990.398 77.6406 990.398 77.8184H988.478C988.478 77.4993 988.539 77.1986 988.662 76.916C988.785 76.6289 988.965 76.3783 989.202 76.1641C989.444 75.9453 989.731 75.7744 990.063 75.6514C990.396 75.5283 990.77 75.4668 991.185 75.4668C991.677 75.4668 992.114 75.5511 992.497 75.7197C992.88 75.8838 993.183 76.1458 993.406 76.5059C993.63 76.8659 993.741 77.333 993.741 77.9072V81.2021C993.741 81.6169 993.762 81.9541 993.803 82.2139C993.848 82.4736 993.914 82.6969 994.001 82.8838V83H992.073C991.987 82.7949 991.921 82.5397 991.875 82.2344C991.834 81.9245 991.813 81.6123 991.813 81.2979ZM992.046 78.4814L992.053 79.6299H991.349C991.166 79.6299 991.007 79.6595 990.87 79.7188C990.738 79.778 990.626 79.8623 990.535 79.9717C990.444 80.0765 990.376 80.1995 990.33 80.3408C990.289 80.4821 990.269 80.6325 990.269 80.792C990.269 80.9697 990.294 81.1201 990.344 81.2432C990.394 81.3662 990.469 81.4596 990.569 81.5234C990.67 81.5872 990.788 81.6191 990.925 81.6191C991.134 81.6191 991.317 81.5758 991.472 81.4893C991.627 81.4027 991.741 81.2979 991.813 81.1748C991.891 81.0518 991.916 80.9378 991.889 80.833L992.326 81.5781C992.271 81.7467 992.196 81.9222 992.101 82.1045C992.009 82.2868 991.893 82.4554 991.752 82.6104C991.611 82.7653 991.435 82.8929 991.226 82.9932C991.021 83.0889 990.777 83.1367 990.494 83.1367C990.098 83.1367 989.735 83.0456 989.407 82.8633C989.079 82.681 988.819 82.4258 988.628 82.0977C988.441 81.7695 988.348 81.3799 988.348 80.9287C988.348 80.555 988.407 80.2178 988.525 79.917C988.648 79.6117 988.831 79.3542 989.072 79.1445C989.314 78.9303 989.619 78.7663 989.988 78.6523C990.357 78.5384 990.79 78.4814 991.287 78.4814H992.046Z" fill="#E0E0E9"/>
<path fill-rule="evenodd" clip-rule="evenodd" d="M984 33H359V31H984V33Z" fill="#D0CFD7"/>
<path fill-rule="evenodd" clip-rule="evenodd" d="M339 33H45V31H339V33Z" fill="url(#paint2_linear_1405_1392)"/>
<g filter="url(#filter0_d_1405_1392)">
<path d="M32 17C23.7125 17 17 23.7125 17 32C17 34.8125 17.7875 37.475 19.175 39.725C20.497 41.9468 22.3748 43.7861 24.6236 45.0617C26.8724 46.3373 29.4146 47.0053 32 47C37.475 47 42.2375 44.075 44.825 39.725C46.2125 37.475 47 34.8125 47 32C47 23.7125 40.2875 17 32 17ZM39.3875 30.7625L31.4 38.15C30.875 38.6375 30.1625 38.9 29.4875 38.9C28.775 38.9 28.0625 38.6375 27.5 38.075L23.7875 34.3625C23.2644 33.8332 22.9711 33.1191 22.9711 32.375C22.9711 31.6309 23.2644 30.9168 23.7875 30.3875C24.875 29.3 26.675 29.3 27.7625 30.3875L29.5625 32.1875L35.5625 26.6375C36.6875 25.5875 38.4875 25.6625 39.5375 26.7875C40.5875 27.9125 40.5125 29.7125 39.3875 30.7625Z" fill="url(#paint3_linear_1405_1392)"/>
</g>
<g filter="url(#filter1_d_1405_1392)">
<path d="M349 17C340.712 17 334 23.7125 334 32C334 34.8125 334.788 37.475 336.175 39.725C337.497 41.9468 339.375 43.7861 341.624 45.0617C343.872 46.3373 346.415 47.0053 349 47C354.475 47 359.238 44.075 361.825 39.725C363.213 37.475 364 34.8125 364 32C364 23.7125 357.288 17 349 17ZM356.387 30.7625L348.4 38.15C347.875 38.6375 347.162 38.9 346.487 38.9C345.775 38.9 345.062 38.6375 344.5 38.075L340.787 34.3625C340.264 33.8332 339.971 33.1191 339.971 32.375C339.971 31.6309 340.264 30.9168 340.787 30.3875C341.875 29.3 343.675 29.3 344.762 30.3875L346.562 32.1875L352.562 26.6375C353.687 25.5875 355.488 25.6625 356.538 26.7875C357.588 27.9125 357.512 29.7125 356.387 30.7625Z" fill="url(#paint4_linear_1405_1392)"/>
</g>
<circle cx="670.5" cy="32.5" r="14.5" fill="#D0CFD7"/>
<circle cx="976.5" cy="32.5" r="14.5" fill="#D0CFD7"/>
<defs>
<filter id="filter0_d_1405_1392" x="0" y="0" width="74" height="74" filterUnits="userSpaceOnUse" color-interpolation-filters="sRGB">
<feFlood flood-opacity="0" result="BackgroundImageFix"/>
<feColorMatrix in="SourceAlpha" type="matrix" values="0 0 0 0 0 0 0 0 0 0 0 0 0 0 0 0 0 0 127 0" result="hardAlpha"/>
<feOffset dx="5" dy="5"/>
<feGaussianBlur stdDeviation="11"/>
<feComposite in2="hardAlpha" operator="out"/>
<feColorMatrix type="matrix" values="0 0 0 0 0.0392157 0 0 0 0 0.560784 0 0 0 0 0.309804 0 0 0 0.2 0"/>
<feBlend mode="normal" in2="BackgroundImageFix" result="effect1_dropShadow_1405_1392"/>
<feBlend mode="normal" in="SourceGraphic" in2="effect1_dropShadow_1405_1392" result="shape"/>
</filter>
<filter id="filter1_d_1405_1392" x="317" y="0" width="74" height="74" filterUnits="userSpaceOnUse" color-interpolation-filters="sRGB">
<feFlood flood-opacity="0" result="BackgroundImageFix"/>
<feColorMatrix in="SourceAlpha" type="matrix" values="0 0 0 0 0 0 0 0 0 0 0 0 0 0 0 0 0 0 127 0" result="hardAlpha"/>
<feOffset dx="5" dy="5"/>
<feGaussianBlur stdDeviation="11"/>
<feComposite in2="hardAlpha" operator="out"/>
<feColorMatrix type="matrix" values="0 0 0 0 0.0392157 0 0 0 0 0.560784 0 0 0 0 0.309804 0 0 0 0.2 0"/>
<feBlend mode="normal" in2="BackgroundImageFix" result="effect1_dropShadow_1405_1392"/>
<feBlend mode="normal" in="SourceGraphic" in2="effect1_dropShadow_1405_1392" result="shape"/>
</filter>
<linearGradient id="paint0_linear_1405_1392" x1="32" y1="85" x2="32" y2="57" gradientUnits="userSpaceOnUse">
<stop stop-color="#5CCC94"/>
<stop offset="1" stop-color="#8CCAAE"/>
</linearGradient>
<linearGradient id="paint1_linear_1405_1392" x1="349" y1="77" x2="349" y2="57" gradientUnits="userSpaceOnUse">
<stop stop-color="#5CCC94"/>
<stop offset="1" stop-color="#8CCAAE"/>
</linearGradient>
<linearGradient id="paint2_linear_1405_1392" x1="192" y1="33" x2="192" y2="31" gradientUnits="userSpaceOnUse">
<stop stop-color="#5CCC94"/>
<stop offset="1" stop-color="#8CCAAE"/>
</linearGradient>
<linearGradient id="paint3_linear_1405_1392" x1="32" y1="47" x2="32" y2="17" gradientUnits="userSpaceOnUse">
<stop stop-color="#5CCC94"/>
<stop offset="1" stop-color="#8CCAAE"/>
</linearGradient>
<linearGradient id="paint4_linear_1405_1392" x1="349" y1="47" x2="349" y2="17" gradientUnits="userSpaceOnUse">
<stop stop-color="#5CCC94"/>
<stop offset="1" stop-color="#8CCAAE"/>
</linearGradient>
</defs>
</svg>
