<svg width="739" height="97" viewBox="0 0 739 97" fill="none" xmlns="http://www.w3.org/2000/svg">
<path d="M10.8252 66.0801V67.7344H6.74414V66.0801H10.8252ZM7.31152 62.0469V72H5.30859V62.0469H7.31152ZM12.2744 62.0469V72H10.292V62.0469H12.2744ZM13.5938 68.5547V68.0557C13.5938 67.4769 13.6621 66.9642 13.7988 66.5176C13.9401 66.071 14.1406 65.6973 14.4004 65.3965C14.6602 65.0911 14.9723 64.861 15.3369 64.7061C15.7061 64.5465 16.1185 64.4668 16.5742 64.4668C17.0345 64.4668 17.4469 64.5465 17.8115 64.7061C18.1807 64.861 18.4951 65.0911 18.7549 65.3965C19.0192 65.6973 19.222 66.071 19.3633 66.5176C19.5046 66.9642 19.5752 67.4769 19.5752 68.0557V68.5547C19.5752 69.1289 19.5046 69.6393 19.3633 70.0859C19.222 70.5326 19.0192 70.9085 18.7549 71.2139C18.4951 71.5192 18.1829 71.7493 17.8184 71.9043C17.4538 72.0592 17.0436 72.1367 16.5879 72.1367C16.1322 72.1367 15.7197 72.0592 15.3506 71.9043C14.986 71.7493 14.6715 71.5192 14.4072 71.2139C14.1429 70.9085 13.9401 70.5326 13.7988 70.0859C13.6621 69.6393 13.5938 69.1289 13.5938 68.5547ZM15.5078 68.0557V68.5547C15.5078 68.8965 15.5306 69.1927 15.5762 69.4434C15.6263 69.694 15.6969 69.9014 15.7881 70.0654C15.8838 70.2295 15.9977 70.3503 16.1299 70.4277C16.262 70.5052 16.4147 70.5439 16.5879 70.5439C16.7611 70.5439 16.916 70.5052 17.0527 70.4277C17.1895 70.3503 17.3011 70.2295 17.3877 70.0654C17.4788 69.9014 17.5449 69.694 17.5859 69.4434C17.6315 69.1927 17.6543 68.8965 17.6543 68.5547V68.0557C17.6543 67.723 17.6292 67.4313 17.5791 67.1807C17.529 66.9255 17.4583 66.7181 17.3672 66.5586C17.276 66.3945 17.1621 66.2715 17.0254 66.1895C16.8932 66.1029 16.7428 66.0596 16.5742 66.0596C16.4056 66.0596 16.2552 66.1029 16.123 66.1895C15.9954 66.2715 15.8838 66.3945 15.7881 66.5586C15.6969 66.7181 15.6263 66.9255 15.5762 67.1807C15.5306 67.4313 15.5078 67.723 15.5078 68.0557ZM24.6611 69.3477L26.0488 64.6035H27.6279L25.3584 72H23.9502L21.667 64.6035H23.2803L24.6611 69.3477ZM22.7607 64.6035V72H20.9082V64.6035H22.7607ZM26.6025 72V64.6035H28.4619V72H26.6025ZM33.0625 72.1367C32.5566 72.1367 32.1077 72.0592 31.7158 71.9043C31.3285 71.7493 31.0003 71.526 30.7314 71.2344C30.4626 70.9382 30.2575 70.5804 30.1162 70.1611C29.9749 69.7419 29.9043 69.2633 29.9043 68.7256V68.1172C29.9043 67.5156 29.9727 66.9893 30.1094 66.5381C30.2461 66.0824 30.4398 65.6995 30.6904 65.3896C30.9411 65.0798 31.2487 64.8496 31.6133 64.6992C31.9824 64.5443 32.3994 64.4668 32.8643 64.4668C33.3291 64.4668 33.737 64.5443 34.0879 64.6992C34.4434 64.8496 34.7373 65.0775 34.9697 65.3828C35.2021 65.6836 35.3776 66.0573 35.4961 66.5039C35.6146 66.9505 35.6738 67.4701 35.6738 68.0625V68.9375H30.7178V67.5908H33.7939V67.4199C33.7939 67.1191 33.762 66.8685 33.6982 66.668C33.6344 66.4629 33.5342 66.3102 33.3975 66.21C33.2607 66.1097 33.0785 66.0596 32.8506 66.0596C32.6592 66.0596 32.4974 66.0983 32.3652 66.1758C32.2331 66.2533 32.1283 66.374 32.0508 66.5381C31.9733 66.7021 31.9163 66.9163 31.8799 67.1807C31.8434 67.4404 31.8252 67.7526 31.8252 68.1172V68.7256C31.8252 69.0674 31.8548 69.3545 31.9141 69.5869C31.9733 69.8148 32.0599 70.0016 32.1738 70.1475C32.2923 70.2887 32.4359 70.3913 32.6045 70.4551C32.7731 70.5143 32.9691 70.5439 33.1924 70.5439C33.5296 70.5439 33.8327 70.4847 34.1016 70.3662C34.375 70.2432 34.6074 70.0768 34.7988 69.8672L35.5645 71.0293C35.4323 71.2025 35.25 71.3757 35.0176 71.5488C34.7852 71.722 34.5072 71.8633 34.1836 71.9727C33.86 72.082 33.4863 72.1367 33.0625 72.1367ZM38.6953 66.0254V74.8438H36.7881V64.6035H38.5518L38.6953 66.0254ZM42.5371 68.0488V68.541C42.5371 69.1198 42.487 69.6325 42.3867 70.0791C42.2865 70.5212 42.1361 70.8971 41.9355 71.207C41.7396 71.5124 41.4935 71.7448 41.1973 71.9043C40.901 72.0592 40.5547 72.1367 40.1582 72.1367C39.7891 72.1367 39.4701 72.0501 39.2012 71.877C38.9368 71.6992 38.7135 71.4554 38.5312 71.1455C38.349 70.8356 38.2031 70.4733 38.0938 70.0586C37.9844 69.6439 37.9001 69.1995 37.8408 68.7256V67.96C37.8955 67.4541 37.9753 66.9893 38.0801 66.5654C38.1849 66.137 38.3285 65.7656 38.5107 65.4512C38.6976 65.1367 38.9232 64.8952 39.1875 64.7266C39.4564 64.5534 39.7754 64.4668 40.1445 64.4668C40.5456 64.4668 40.8942 64.5397 41.1904 64.6855C41.4912 64.8314 41.7396 65.0524 41.9355 65.3486C42.1361 65.6403 42.2865 66.0117 42.3867 66.4629C42.487 66.9141 42.5371 67.4427 42.5371 68.0488ZM40.623 68.541V68.0488C40.623 67.6934 40.6025 67.3903 40.5615 67.1396C40.5251 66.889 40.4658 66.6839 40.3838 66.5244C40.3018 66.3649 40.1947 66.2487 40.0625 66.1758C39.9303 66.1029 39.7686 66.0664 39.5771 66.0664C39.3903 66.0664 39.2262 66.1029 39.085 66.1758C38.9482 66.2487 38.8366 66.3558 38.75 66.4971C38.6634 66.6338 38.5973 66.8024 38.5518 67.0029C38.5062 67.1989 38.4811 67.4222 38.4766 67.6729V69.0127C38.4857 69.3089 38.5244 69.571 38.5928 69.7988C38.6657 70.0267 38.7819 70.209 38.9414 70.3457C39.1009 70.4779 39.3174 70.5439 39.5908 70.5439C39.7868 70.5439 39.9486 70.5029 40.0762 70.4209C40.2083 70.3389 40.3154 70.2158 40.3975 70.0518C40.4795 69.8877 40.5365 69.6803 40.5684 69.4297C40.6048 69.179 40.623 68.8828 40.623 68.541ZM50.3506 64.6035V72H48.4297V64.6035H50.3506ZM52.251 64.6035V66.1826H46.5361V64.6035H52.251ZM55.2109 66.0254V74.8438H53.3037V64.6035H55.0674L55.2109 66.0254ZM59.0527 68.0488V68.541C59.0527 69.1198 59.0026 69.6325 58.9023 70.0791C58.8021 70.5212 58.6517 70.8971 58.4512 71.207C58.2552 71.5124 58.0091 71.7448 57.7129 71.9043C57.4167 72.0592 57.0703 72.1367 56.6738 72.1367C56.3047 72.1367 55.9857 72.0501 55.7168 71.877C55.4525 71.6992 55.2292 71.4554 55.0469 71.1455C54.8646 70.8356 54.7188 70.4733 54.6094 70.0586C54.5 69.6439 54.4157 69.1995 54.3564 68.7256V67.96C54.4111 67.4541 54.4909 66.9893 54.5957 66.5654C54.7005 66.137 54.8441 65.7656 55.0264 65.4512C55.2132 65.1367 55.4388 64.8952 55.7031 64.7266C55.972 64.5534 56.291 64.4668 56.6602 64.4668C57.0612 64.4668 57.4098 64.5397 57.7061 64.6855C58.0068 64.8314 58.2552 65.0524 58.4512 65.3486C58.6517 65.6403 58.8021 66.0117 58.9023 66.4629C59.0026 66.9141 59.0527 67.4427 59.0527 68.0488ZM57.1387 68.541V68.0488C57.1387 67.6934 57.1182 67.3903 57.0771 67.1396C57.0407 66.889 56.9814 66.6839 56.8994 66.5244C56.8174 66.3649 56.7103 66.2487 56.5781 66.1758C56.446 66.1029 56.2842 66.0664 56.0928 66.0664C55.9059 66.0664 55.7419 66.1029 55.6006 66.1758C55.4639 66.2487 55.3522 66.3558 55.2656 66.4971C55.179 66.6338 55.113 66.8024 55.0674 67.0029C55.0218 67.1989 54.9967 67.4222 54.9922 67.6729V69.0127C55.0013 69.3089 55.04 69.571 55.1084 69.7988C55.1813 70.0267 55.2975 70.209 55.457 70.3457C55.6165 70.4779 55.833 70.5439 56.1064 70.5439C56.3024 70.5439 56.4642 70.5029 56.5918 70.4209C56.724 70.3389 56.8311 70.2158 56.9131 70.0518C56.9951 69.8877 57.0521 69.6803 57.084 69.4297C57.1204 69.179 57.1387 68.8828 57.1387 68.541ZM63.4893 70.2979V66.8799C63.4893 66.6566 63.4619 66.4788 63.4072 66.3467C63.3571 66.2145 63.2796 66.1188 63.1748 66.0596C63.0745 65.9958 62.9515 65.9639 62.8057 65.9639C62.6416 65.9639 62.5049 65.998 62.3955 66.0664C62.2861 66.1348 62.2041 66.2327 62.1494 66.3604C62.0993 66.488 62.0742 66.6406 62.0742 66.8184H60.1533C60.1533 66.4993 60.2148 66.1986 60.3379 65.916C60.4609 65.6289 60.641 65.3783 60.8779 65.1641C61.1195 64.9453 61.4066 64.7744 61.7393 64.6514C62.0719 64.5283 62.4456 64.4668 62.8604 64.4668C63.3525 64.4668 63.79 64.5511 64.1729 64.7197C64.5557 64.8838 64.8587 65.1458 65.082 65.5059C65.3053 65.8659 65.417 66.333 65.417 66.9072V70.2021C65.417 70.6169 65.4375 70.9541 65.4785 71.2139C65.5241 71.4736 65.5902 71.6969 65.6768 71.8838V72H63.749C63.6624 71.7949 63.5964 71.5397 63.5508 71.2344C63.5098 70.9245 63.4893 70.6123 63.4893 70.2979ZM63.7217 67.4814L63.7285 68.6299H63.0244C62.8421 68.6299 62.6826 68.6595 62.5459 68.7188C62.4137 68.778 62.3021 68.8623 62.2109 68.9717C62.1198 69.0765 62.0514 69.1995 62.0059 69.3408C61.9648 69.4821 61.9443 69.6325 61.9443 69.792C61.9443 69.9697 61.9694 70.1201 62.0195 70.2432C62.0697 70.3662 62.1449 70.4596 62.2451 70.5234C62.3454 70.5872 62.4639 70.6191 62.6006 70.6191C62.8102 70.6191 62.9925 70.5758 63.1475 70.4893C63.3024 70.4027 63.4163 70.2979 63.4893 70.1748C63.5667 70.0518 63.5918 69.9378 63.5645 69.833L64.002 70.5781C63.9473 70.7467 63.8721 70.9222 63.7764 71.1045C63.6852 71.2868 63.569 71.4554 63.4277 71.6104C63.2865 71.7653 63.111 71.8929 62.9014 71.9932C62.6963 72.0889 62.4525 72.1367 62.1699 72.1367C61.7734 72.1367 61.4111 72.0456 61.083 71.8633C60.7549 71.681 60.4951 71.4258 60.3037 71.0977C60.1169 70.7695 60.0234 70.3799 60.0234 69.9287C60.0234 69.555 60.0827 69.2178 60.2012 68.917C60.3242 68.6117 60.5065 68.3542 60.748 68.1445C60.9896 67.9303 61.2949 67.7663 61.6641 67.6523C62.0332 67.5384 62.4661 67.4814 62.9629 67.4814H63.7217ZM71.084 67.5703V69.1562H68.1309V67.5703H71.084ZM68.7529 64.6035V72H66.832V64.6035H68.7529ZM72.3896 64.6035V72H70.4756V64.6035H72.3896ZM76.4912 70.5439C76.6689 70.5439 76.8216 70.5075 76.9492 70.4346C77.0814 70.3617 77.1816 70.2432 77.25 70.0791C77.3184 69.915 77.3548 69.7031 77.3594 69.4434H79.1572C79.1572 69.9993 79.0387 70.4801 78.8018 70.8857C78.5693 71.2868 78.2549 71.5967 77.8584 71.8154C77.4665 72.0296 77.0221 72.1367 76.5254 72.1367C76.0286 72.1367 75.5957 72.057 75.2266 71.8975C74.8574 71.738 74.5521 71.5055 74.3105 71.2002C74.0736 70.8949 73.8936 70.5234 73.7705 70.0859C73.652 69.6439 73.5928 69.138 73.5928 68.5684V68.0283C73.5928 67.4678 73.652 66.9665 73.7705 66.5244C73.8936 66.0824 74.0736 65.7087 74.3105 65.4033C74.5521 65.098 74.8551 64.8656 75.2197 64.7061C75.5889 64.5465 76.0218 64.4668 76.5186 64.4668C77.0518 64.4668 77.5143 64.5785 77.9062 64.8018C78.2982 65.0205 78.6035 65.3441 78.8223 65.7725C79.0456 66.2008 79.1572 66.7295 79.1572 67.3584H77.3594C77.3548 67.0758 77.3206 66.8411 77.2568 66.6543C77.1976 66.4629 77.1042 66.3171 76.9766 66.2168C76.8535 66.112 76.6895 66.0596 76.4844 66.0596C76.2702 66.0596 76.097 66.1051 75.9648 66.1963C75.8372 66.2829 75.7393 66.4105 75.6709 66.5791C75.6071 66.7432 75.5638 66.9482 75.541 67.1943C75.5182 67.4404 75.5068 67.7184 75.5068 68.0283V68.5684C75.5068 68.901 75.516 69.1904 75.5342 69.4365C75.557 69.6781 75.6003 69.8831 75.6641 70.0518C75.7324 70.2158 75.8304 70.3389 75.958 70.4209C76.0902 70.5029 76.2679 70.5439 76.4912 70.5439ZM84.4141 64.6035V66.1963H81.6592V64.6035H84.4141ZM82.1787 64.6035V72H80.2578V64.6035H82.1787ZM85.8359 64.6035V72H83.9082V64.6035H85.8359ZM87.0391 68.5547V68.0557C87.0391 67.4769 87.1074 66.9642 87.2441 66.5176C87.3854 66.071 87.5859 65.6973 87.8457 65.3965C88.1055 65.0911 88.4176 64.861 88.7822 64.7061C89.1514 64.5465 89.5638 64.4668 90.0195 64.4668C90.4798 64.4668 90.8923 64.5465 91.2568 64.7061C91.626 64.861 91.9404 65.0911 92.2002 65.3965C92.4645 65.6973 92.6673 66.071 92.8086 66.5176C92.9499 66.9642 93.0205 67.4769 93.0205 68.0557V68.5547C93.0205 69.1289 92.9499 69.6393 92.8086 70.0859C92.6673 70.5326 92.4645 70.9085 92.2002 71.2139C91.9404 71.5192 91.6283 71.7493 91.2637 71.9043C90.8991 72.0592 90.4889 72.1367 90.0332 72.1367C89.5775 72.1367 89.165 72.0592 88.7959 71.9043C88.4313 71.7493 88.1169 71.5192 87.8525 71.2139C87.5882 70.9085 87.3854 70.5326 87.2441 70.0859C87.1074 69.6393 87.0391 69.1289 87.0391 68.5547ZM88.9531 68.0557V68.5547C88.9531 68.8965 88.9759 69.1927 89.0215 69.4434C89.0716 69.694 89.1423 69.9014 89.2334 70.0654C89.3291 70.2295 89.443 70.3503 89.5752 70.4277C89.7074 70.5052 89.86 70.5439 90.0332 70.5439C90.2064 70.5439 90.3613 70.5052 90.498 70.4277C90.6348 70.3503 90.7464 70.2295 90.833 70.0654C90.9242 69.9014 90.9902 69.694 91.0312 69.4434C91.0768 69.1927 91.0996 68.8965 91.0996 68.5547V68.0557C91.0996 67.723 91.0745 67.4313 91.0244 67.1807C90.9743 66.9255 90.9036 66.7181 90.8125 66.5586C90.7214 66.3945 90.6074 66.2715 90.4707 66.1895C90.3385 66.1029 90.1882 66.0596 90.0195 66.0596C89.8509 66.0596 89.7005 66.1029 89.5684 66.1895C89.4408 66.2715 89.3291 66.3945 89.2334 66.5586C89.1423 66.7181 89.0716 66.9255 89.0215 67.1807C88.9759 67.4313 88.9531 67.723 88.9531 68.0557ZM96.1445 66.0254V74.8438H94.2373V64.6035H96.001L96.1445 66.0254ZM99.9863 68.0488V68.541C99.9863 69.1198 99.9362 69.6325 99.8359 70.0791C99.7357 70.5212 99.5853 70.8971 99.3848 71.207C99.1888 71.5124 98.9427 71.7448 98.6465 71.9043C98.3503 72.0592 98.0039 72.1367 97.6074 72.1367C97.2383 72.1367 96.9193 72.0501 96.6504 71.877C96.3861 71.6992 96.1628 71.4554 95.9805 71.1455C95.7982 70.8356 95.6523 70.4733 95.543 70.0586C95.4336 69.6439 95.3493 69.1995 95.29 68.7256V67.96C95.3447 67.4541 95.4245 66.9893 95.5293 66.5654C95.6341 66.137 95.7777 65.7656 95.96 65.4512C96.1468 65.1367 96.3724 64.8952 96.6367 64.7266C96.9056 64.5534 97.2246 64.4668 97.5938 64.4668C97.9948 64.4668 98.3434 64.5397 98.6396 64.6855C98.9404 64.8314 99.1888 65.0524 99.3848 65.3486C99.5853 65.6403 99.7357 66.0117 99.8359 66.4629C99.9362 66.9141 99.9863 67.4427 99.9863 68.0488ZM98.0723 68.541V68.0488C98.0723 67.6934 98.0518 67.3903 98.0107 67.1396C97.9743 66.889 97.915 66.6839 97.833 66.5244C97.751 66.3649 97.6439 66.2487 97.5117 66.1758C97.3796 66.1029 97.2178 66.0664 97.0264 66.0664C96.8395 66.0664 96.6755 66.1029 96.5342 66.1758C96.3975 66.2487 96.2858 66.3558 96.1992 66.4971C96.1126 66.6338 96.0465 66.8024 96.001 67.0029C95.9554 67.1989 95.9303 67.4222 95.9258 67.6729V69.0127C95.9349 69.3089 95.9736 69.571 96.042 69.7988C96.1149 70.0267 96.2311 70.209 96.3906 70.3457C96.5501 70.4779 96.7666 70.5439 97.04 70.5439C97.236 70.5439 97.3978 70.5029 97.5254 70.4209C97.6576 70.3389 97.7646 70.2158 97.8467 70.0518C97.9287 69.8877 97.9857 69.6803 98.0176 69.4297C98.054 69.179 98.0723 68.8828 98.0723 68.541ZM104.272 64.6035V72H102.352V64.6035H104.272ZM106.173 64.6035V66.1826H100.458V64.6035H106.173ZM111.471 67.5703V69.1562H108.518V67.5703H111.471ZM109.14 64.6035V72H107.219V64.6035H109.14ZM112.776 64.6035V72H110.862V64.6035H112.776ZM113.986 68.5547V68.0557C113.986 67.4769 114.055 66.9642 114.191 66.5176C114.333 66.071 114.533 65.6973 114.793 65.3965C115.053 65.0911 115.365 64.861 115.729 64.7061C116.099 64.5465 116.511 64.4668 116.967 64.4668C117.427 64.4668 117.84 64.5465 118.204 64.7061C118.573 64.861 118.888 65.0911 119.147 65.3965C119.412 65.6973 119.615 66.071 119.756 66.5176C119.897 66.9642 119.968 67.4769 119.968 68.0557V68.5547C119.968 69.1289 119.897 69.6393 119.756 70.0859C119.615 70.5326 119.412 70.9085 119.147 71.2139C118.888 71.5192 118.576 71.7493 118.211 71.9043C117.846 72.0592 117.436 72.1367 116.98 72.1367C116.525 72.1367 116.112 72.0592 115.743 71.9043C115.379 71.7493 115.064 71.5192 114.8 71.2139C114.535 70.9085 114.333 70.5326 114.191 70.0859C114.055 69.6393 113.986 69.1289 113.986 68.5547ZM115.9 68.0557V68.5547C115.9 68.8965 115.923 69.1927 115.969 69.4434C116.019 69.694 116.09 69.9014 116.181 70.0654C116.276 70.2295 116.39 70.3503 116.522 70.4277C116.655 70.5052 116.807 70.5439 116.98 70.5439C117.154 70.5439 117.309 70.5052 117.445 70.4277C117.582 70.3503 117.694 70.2295 117.78 70.0654C117.871 69.9014 117.938 69.694 117.979 69.4434C118.024 69.1927 118.047 68.8965 118.047 68.5547V68.0557C118.047 67.723 118.022 67.4313 117.972 67.1807C117.922 66.9255 117.851 66.7181 117.76 66.5586C117.669 66.3945 117.555 66.2715 117.418 66.1895C117.286 66.1029 117.135 66.0596 116.967 66.0596C116.798 66.0596 116.648 66.1029 116.516 66.1895C116.388 66.2715 116.276 66.3945 116.181 66.5586C116.09 66.7181 116.019 66.9255 115.969 67.1807C115.923 67.4313 115.9 67.723 115.9 68.0557ZM125.505 64.6035V66.1963H123.092V72H121.178V64.6035H125.505ZM126.018 68.5547V68.0557C126.018 67.4769 126.086 66.9642 126.223 66.5176C126.364 66.071 126.564 65.6973 126.824 65.3965C127.084 65.0911 127.396 64.861 127.761 64.7061C128.13 64.5465 128.542 64.4668 128.998 64.4668C129.458 64.4668 129.871 64.5465 130.235 64.7061C130.604 64.861 130.919 65.0911 131.179 65.3965C131.443 65.6973 131.646 66.071 131.787 66.5176C131.928 66.9642 131.999 67.4769 131.999 68.0557V68.5547C131.999 69.1289 131.928 69.6393 131.787 70.0859C131.646 70.5326 131.443 70.9085 131.179 71.2139C130.919 71.5192 130.607 71.7493 130.242 71.9043C129.878 72.0592 129.467 72.1367 129.012 72.1367C128.556 72.1367 128.144 72.0592 127.774 71.9043C127.41 71.7493 127.095 71.5192 126.831 71.2139C126.567 70.9085 126.364 70.5326 126.223 70.0859C126.086 69.6393 126.018 69.1289 126.018 68.5547ZM127.932 68.0557V68.5547C127.932 68.8965 127.954 69.1927 128 69.4434C128.05 69.694 128.121 69.9014 128.212 70.0654C128.308 70.2295 128.422 70.3503 128.554 70.4277C128.686 70.5052 128.839 70.5439 129.012 70.5439C129.185 70.5439 129.34 70.5052 129.477 70.4277C129.613 70.3503 129.725 70.2295 129.812 70.0654C129.903 69.9014 129.969 69.694 130.01 69.4434C130.055 69.1927 130.078 68.8965 130.078 68.5547V68.0557C130.078 67.723 130.053 67.4313 130.003 67.1807C129.953 66.9255 129.882 66.7181 129.791 66.5586C129.7 66.3945 129.586 66.2715 129.449 66.1895C129.317 66.1029 129.167 66.0596 128.998 66.0596C128.829 66.0596 128.679 66.1029 128.547 66.1895C128.419 66.2715 128.308 66.3945 128.212 66.5586C128.121 66.7181 128.05 66.9255 128 67.1807C127.954 67.4313 127.932 67.723 127.932 68.0557ZM52.3125 88.4727H51V87.5771H51.916C52.071 87.5771 52.194 87.5452 52.2852 87.4814C52.3763 87.4131 52.4424 87.3197 52.4834 87.2012C52.529 87.0781 52.5518 86.9391 52.5518 86.7842C52.5518 86.6475 52.5335 86.5176 52.4971 86.3945C52.4606 86.2669 52.3968 86.1644 52.3057 86.0869C52.2191 86.0049 52.0915 85.9639 51.9229 85.9639C51.7725 85.9639 51.6403 85.9935 51.5264 86.0527C51.417 86.112 51.3327 86.1986 51.2734 86.3125C51.2188 86.4264 51.1914 86.5654 51.1914 86.7295H49.2705C49.2705 86.2555 49.3844 85.8522 49.6123 85.5195C49.8447 85.1823 50.1546 84.9248 50.542 84.7471C50.9294 84.5648 51.3555 84.4736 51.8203 84.4736C52.2214 84.4736 52.5837 84.5215 52.9072 84.6172C53.2354 84.7083 53.5133 84.8451 53.7412 85.0273C53.9736 85.2096 54.1514 85.4352 54.2744 85.7041C54.3975 85.9684 54.459 86.276 54.459 86.627C54.459 86.8776 54.4089 87.1146 54.3086 87.3379C54.2083 87.5612 54.0648 87.7594 53.8779 87.9326C53.6911 88.1012 53.4655 88.2334 53.2012 88.3291C52.9368 88.4248 52.6406 88.4727 52.3125 88.4727ZM51 87.9805H52.3125C52.6771 87.9805 52.9984 88.0238 53.2764 88.1104C53.5589 88.1924 53.7959 88.3154 53.9873 88.4795C54.1787 88.6436 54.3245 88.8464 54.4248 89.0879C54.5251 89.3249 54.5752 89.5983 54.5752 89.9082C54.5752 90.2591 54.5068 90.5736 54.3701 90.8516C54.238 91.125 54.0488 91.3574 53.8027 91.5488C53.5566 91.7402 53.265 91.8861 52.9277 91.9863C52.5905 92.0866 52.2214 92.1367 51.8203 92.1367C51.3828 92.1367 50.9613 92.0547 50.5557 91.8906C50.1546 91.7266 49.8242 91.4736 49.5645 91.1318C49.3047 90.7855 49.1748 90.3434 49.1748 89.8057H51.0889C51.0889 89.9515 51.1185 90.0905 51.1777 90.2227C51.237 90.3503 51.3281 90.4551 51.4512 90.5371C51.5742 90.6146 51.7314 90.6533 51.9229 90.6533C52.1097 90.6533 52.2555 90.61 52.3604 90.5234C52.4652 90.4323 52.5404 90.3184 52.5859 90.1816C52.6315 90.0449 52.6543 89.9014 52.6543 89.751C52.6543 89.5459 52.627 89.3773 52.5723 89.2451C52.5176 89.113 52.4355 89.015 52.3262 88.9512C52.2168 88.8874 52.0801 88.8555 51.916 88.8555H51V87.9805ZM59.0049 90.2979V86.8799C59.0049 86.6566 58.9775 86.4788 58.9229 86.3467C58.8727 86.2145 58.7952 86.1188 58.6904 86.0596C58.5902 85.9958 58.4671 85.9639 58.3213 85.9639C58.1572 85.9639 58.0205 85.998 57.9111 86.0664C57.8018 86.1348 57.7197 86.2327 57.665 86.3604C57.6149 86.488 57.5898 86.6406 57.5898 86.8184H55.6689C55.6689 86.4993 55.7305 86.1986 55.8535 85.916C55.9766 85.6289 56.1566 85.3783 56.3936 85.1641C56.6351 84.9453 56.9222 84.7744 57.2549 84.6514C57.5876 84.5283 57.9613 84.4668 58.376 84.4668C58.8682 84.4668 59.3057 84.5511 59.6885 84.7197C60.0713 84.8838 60.3743 85.1458 60.5977 85.5059C60.821 85.8659 60.9326 86.333 60.9326 86.9072V90.2021C60.9326 90.6169 60.9531 90.9541 60.9941 91.2139C61.0397 91.4736 61.1058 91.6969 61.1924 91.8838V92H59.2646C59.1781 91.7949 59.112 91.5397 59.0664 91.2344C59.0254 90.9245 59.0049 90.6123 59.0049 90.2979ZM59.2373 87.4814L59.2441 88.6299H58.54C58.3577 88.6299 58.1982 88.6595 58.0615 88.7188C57.9294 88.778 57.8177 88.8623 57.7266 88.9717C57.6354 89.0765 57.5671 89.1995 57.5215 89.3408C57.4805 89.4821 57.46 89.6325 57.46 89.792C57.46 89.9697 57.485 90.1201 57.5352 90.2432C57.5853 90.3662 57.6605 90.4596 57.7607 90.5234C57.861 90.5872 57.9795 90.6191 58.1162 90.6191C58.3258 90.6191 58.5081 90.5758 58.6631 90.4893C58.818 90.4027 58.932 90.2979 59.0049 90.1748C59.0824 90.0518 59.1074 89.9378 59.0801 89.833L59.5176 90.5781C59.4629 90.7467 59.3877 90.9222 59.292 91.1045C59.2008 91.2868 59.0846 91.4554 58.9434 91.6104C58.8021 91.7653 58.6266 91.8929 58.417 91.9932C58.2119 92.0889 57.9681 92.1367 57.6855 92.1367C57.2891 92.1367 56.9268 92.0456 56.5986 91.8633C56.2705 91.681 56.0107 91.4258 55.8193 91.0977C55.6325 90.7695 55.5391 90.3799 55.5391 89.9287C55.5391 89.555 55.5983 89.2178 55.7168 88.917C55.8398 88.6117 56.0221 88.3542 56.2637 88.1445C56.5052 87.9303 56.8105 87.7663 57.1797 87.6523C57.5488 87.5384 57.9818 87.4814 58.4785 87.4814H59.2373ZM65.0205 90.5439C65.1982 90.5439 65.3509 90.5075 65.4785 90.4346C65.6107 90.3617 65.7109 90.2432 65.7793 90.0791C65.8477 89.915 65.8841 89.7031 65.8887 89.4434H67.6865C67.6865 89.9993 67.568 90.4801 67.3311 90.8857C67.0986 91.2868 66.7842 91.5967 66.3877 91.8154C65.9958 92.0296 65.5514 92.1367 65.0547 92.1367C64.5579 92.1367 64.125 92.057 63.7559 91.8975C63.3867 91.738 63.0814 91.5055 62.8398 91.2002C62.6029 90.8949 62.4229 90.5234 62.2998 90.0859C62.1813 89.6439 62.1221 89.138 62.1221 88.5684V88.0283C62.1221 87.4678 62.1813 86.9665 62.2998 86.5244C62.4229 86.0824 62.6029 85.7087 62.8398 85.4033C63.0814 85.098 63.3844 84.8656 63.749 84.7061C64.1182 84.5465 64.5511 84.4668 65.0479 84.4668C65.5811 84.4668 66.0436 84.5785 66.4355 84.8018C66.8275 85.0205 67.1328 85.3441 67.3516 85.7725C67.5749 86.2008 67.6865 86.7295 67.6865 87.3584H65.8887C65.8841 87.0758 65.8499 86.8411 65.7861 86.6543C65.7269 86.4629 65.6335 86.3171 65.5059 86.2168C65.3828 86.112 65.2188 86.0596 65.0137 86.0596C64.7995 86.0596 64.6263 86.1051 64.4941 86.1963C64.3665 86.2829 64.2686 86.4105 64.2002 86.5791C64.1364 86.7432 64.0931 86.9482 64.0703 87.1943C64.0475 87.4404 64.0361 87.7184 64.0361 88.0283V88.5684C64.0361 88.901 64.0452 89.1904 64.0635 89.4365C64.0863 89.6781 64.1296 89.8831 64.1934 90.0518C64.2617 90.2158 64.3597 90.3389 64.4873 90.4209C64.6195 90.5029 64.7972 90.5439 65.0205 90.5439ZM68.5684 88.5547V88.0557C68.5684 87.4769 68.6367 86.9642 68.7734 86.5176C68.9147 86.071 69.1152 85.6973 69.375 85.3965C69.6348 85.0911 69.9469 84.861 70.3115 84.7061C70.6807 84.5465 71.0931 84.4668 71.5488 84.4668C72.0091 84.4668 72.4215 84.5465 72.7861 84.7061C73.1553 84.861 73.4697 85.0911 73.7295 85.3965C73.9938 85.6973 74.1966 86.071 74.3379 86.5176C74.4792 86.9642 74.5498 87.4769 74.5498 88.0557V88.5547C74.5498 89.1289 74.4792 89.6393 74.3379 90.0859C74.1966 90.5326 73.9938 90.9085 73.7295 91.2139C73.4697 91.5192 73.1576 91.7493 72.793 91.9043C72.4284 92.0592 72.0182 92.1367 71.5625 92.1367C71.1068 92.1367 70.6943 92.0592 70.3252 91.9043C69.9606 91.7493 69.6462 91.5192 69.3818 91.2139C69.1175 90.9085 68.9147 90.5326 68.7734 90.0859C68.6367 89.6393 68.5684 89.1289 68.5684 88.5547ZM70.4824 88.0557V88.5547C70.4824 88.8965 70.5052 89.1927 70.5508 89.4434C70.6009 89.694 70.6715 89.9014 70.7627 90.0654C70.8584 90.2295 70.9723 90.3503 71.1045 90.4277C71.2367 90.5052 71.3893 90.5439 71.5625 90.5439C71.7357 90.5439 71.8906 90.5052 72.0273 90.4277C72.1641 90.3503 72.2757 90.2295 72.3623 90.0654C72.4535 89.9014 72.5195 89.694 72.5605 89.4434C72.6061 89.1927 72.6289 88.8965 72.6289 88.5547V88.0557C72.6289 87.723 72.6038 87.4313 72.5537 87.1807C72.5036 86.9255 72.4329 86.7181 72.3418 86.5586C72.2507 86.3945 72.1367 86.2715 72 86.1895C71.8678 86.1029 71.7174 86.0596 71.5488 86.0596C71.3802 86.0596 71.2298 86.1029 71.0977 86.1895C70.9701 86.2715 70.8584 86.3945 70.7627 86.5586C70.6715 86.7181 70.6009 86.9255 70.5508 87.1807C70.5052 87.4313 70.4824 87.723 70.4824 88.0557ZM79.5195 81.3496H81.0576C81.0576 81.7142 81.0189 82.0286 80.9414 82.293C80.8639 82.5573 80.7386 82.7829 80.5654 82.9697C80.3968 83.1566 80.1689 83.3161 79.8818 83.4482C79.5947 83.5804 79.2347 83.6943 78.8018 83.79C78.501 83.863 78.2389 83.9906 78.0156 84.1729C77.7923 84.3506 77.61 84.5921 77.4688 84.8975C77.3275 85.1982 77.2295 85.5811 77.1748 86.0459C77.1201 86.5062 77.1064 87.0599 77.1338 87.707V88.0146L75.6572 88.2402V87.9395C75.6572 87.0417 75.7233 86.2601 75.8555 85.5947C75.9922 84.9294 76.1836 84.3688 76.4297 83.9131C76.6758 83.4574 76.972 83.0951 77.3184 82.8262C77.6647 82.5527 78.0475 82.3613 78.4668 82.252C78.7083 82.179 78.9066 82.1084 79.0615 82.04C79.2165 81.9717 79.3304 81.8828 79.4033 81.7734C79.4808 81.6641 79.5195 81.5228 79.5195 81.3496ZM78.9932 85.0137C79.417 85.0137 79.7907 85.1003 80.1143 85.2734C80.4378 85.4421 80.709 85.6836 80.9277 85.998C81.1465 86.3079 81.3105 86.6748 81.4199 87.0986C81.5339 87.5179 81.5908 87.9759 81.5908 88.4727V88.6162C81.5908 89.1221 81.527 89.5915 81.3994 90.0244C81.2718 90.4528 81.0827 90.8265 80.832 91.1455C80.5859 91.46 80.276 91.7061 79.9023 91.8838C79.5332 92.057 79.1071 92.1436 78.624 92.1436C78.1455 92.1436 77.7217 92.0479 77.3525 91.8564C76.9834 91.665 76.6712 91.3984 76.416 91.0566C76.1654 90.7103 75.9762 90.3047 75.8486 89.8398C75.721 89.375 75.6572 88.8669 75.6572 88.3154V88.165C75.6572 88.0921 75.6891 88.0215 75.7529 87.9531C75.8213 87.8802 75.9033 87.7959 75.999 87.7002C76.0947 87.6045 76.1745 87.4837 76.2383 87.3379C76.4889 86.8275 76.751 86.3991 77.0244 86.0527C77.3024 85.7064 77.6032 85.4466 77.9268 85.2734C78.2549 85.1003 78.6104 85.0137 78.9932 85.0137ZM78.624 86.6064C78.3506 86.6064 78.1364 86.693 77.9814 86.8662C77.8311 87.0348 77.724 87.2604 77.6602 87.543C77.6009 87.8255 77.5713 88.1331 77.5713 88.4658V88.6094C77.5713 88.8783 77.5872 89.1312 77.6191 89.3682C77.651 89.6006 77.7057 89.8079 77.7832 89.9902C77.8652 90.168 77.9746 90.307 78.1113 90.4072C78.2526 90.5029 78.4258 90.5508 78.6309 90.5508C78.8314 90.5508 79 90.5029 79.1367 90.4072C79.2734 90.307 79.3805 90.168 79.458 89.9902C79.54 89.8079 79.597 89.6006 79.6289 89.3682C79.6608 89.1312 79.6768 88.8783 79.6768 88.6094V88.4727C79.6768 88.2174 79.6585 87.9782 79.6221 87.7549C79.5902 87.5316 79.5355 87.3356 79.458 87.167C79.3805 86.9938 79.2734 86.8571 79.1367 86.7568C79 86.6566 78.8291 86.6064 78.624 86.6064ZM84.6465 91.1523L86.1914 84.6035H88.1875L85.7539 93.1074C85.6992 93.2943 85.624 93.4948 85.5283 93.709C85.4326 93.9277 85.305 94.1328 85.1455 94.3242C84.9906 94.5202 84.7946 94.6797 84.5576 94.8027C84.3206 94.9258 84.0358 94.9873 83.7031 94.9873C83.5345 94.9873 83.3978 94.9759 83.293 94.9531C83.1927 94.9349 83.0651 94.903 82.9102 94.8574V93.3672C82.9512 93.3672 82.9899 93.3672 83.0264 93.3672C83.0674 93.3717 83.1061 93.374 83.1426 93.374C83.3568 93.374 83.5277 93.3444 83.6553 93.2852C83.7829 93.2305 83.8854 93.1439 83.9629 93.0254C84.0449 92.9069 84.1133 92.7588 84.168 92.5811L84.6465 91.1523ZM84.25 84.6035L85.3984 89.9082L85.6582 92.0684L84.3662 92.1914L82.1992 84.6035H84.25Z" fill="url(#paint0_linear_363_3231)"/>
<path d="M381.425 62.0469V63.708H377.85V72H375.854V62.0469H381.425ZM377.2 65.6289H379.094C379.759 65.6289 380.336 65.7588 380.823 66.0186C381.311 66.2783 381.687 66.6452 381.951 67.1191C382.22 67.5931 382.354 68.1468 382.354 68.7803C382.354 69.2588 382.277 69.694 382.122 70.0859C381.972 70.4779 381.753 70.8174 381.466 71.1045C381.183 71.3916 380.841 71.6126 380.44 71.7676C380.044 71.9225 379.595 72 379.094 72H375.854V62.0469H377.856V70.3457H379.094C379.372 70.3457 379.604 70.2728 379.791 70.127C379.978 69.9811 380.119 69.7897 380.215 69.5527C380.311 69.3158 380.358 69.0537 380.358 68.7666C380.358 68.4886 380.311 68.238 380.215 68.0146C380.119 67.7913 379.978 67.6159 379.791 67.4883C379.604 67.3561 379.372 67.29 379.094 67.29H377.2V65.6289ZM385.417 64.6035V72H383.496V64.6035H385.417ZM383.407 62.6895C383.407 62.3932 383.501 62.1494 383.688 61.958C383.879 61.762 384.134 61.6641 384.453 61.6641C384.777 61.6641 385.032 61.762 385.219 61.958C385.406 62.1494 385.499 62.3932 385.499 62.6895C385.499 62.9811 385.403 63.2249 385.212 63.4209C385.025 63.6123 384.774 63.708 384.46 63.708C384.136 63.708 383.879 63.6123 383.688 63.4209C383.501 63.2249 383.407 62.9811 383.407 62.6895ZM391.091 64.6035V66.1963H388.097V64.6035H391.091ZM392.52 64.6035V72H390.605V64.6035H392.52ZM387.632 64.6035H389.512L389.327 68.3564C389.304 68.8896 389.254 69.3568 389.177 69.7578C389.099 70.1589 388.997 70.5029 388.869 70.79C388.742 71.0771 388.587 71.3096 388.404 71.4873C388.227 71.665 388.024 71.7949 387.796 71.877C387.573 71.959 387.322 72 387.044 72H386.477L386.456 70.3936L386.675 70.3662C386.789 70.3525 386.889 70.3115 386.976 70.2432C387.067 70.1748 387.144 70.0745 387.208 69.9424C387.272 69.8102 387.322 69.6416 387.358 69.4365C387.399 69.2314 387.431 68.9899 387.454 68.7119C387.477 68.4339 387.495 68.1149 387.509 67.7549L387.632 64.6035ZM395.958 64.6035V72H394.037V64.6035H395.958ZM393.948 62.6895C393.948 62.3932 394.042 62.1494 394.229 61.958C394.42 61.762 394.675 61.6641 394.994 61.6641C395.318 61.6641 395.573 61.762 395.76 61.958C395.947 62.1494 396.04 62.3932 396.04 62.6895C396.04 62.9811 395.944 63.2249 395.753 63.4209C395.566 63.6123 395.315 63.708 395.001 63.708C394.677 63.708 394.42 63.6123 394.229 63.4209C394.042 63.2249 393.948 62.9811 393.948 62.6895ZM401.728 67.5703V69.1562H398.774V67.5703H401.728ZM399.396 64.6035V72H397.476V64.6035H399.396ZM403.033 64.6035V72H401.119V64.6035H403.033ZM408.789 64.6035V66.1963H406.376V72H404.462V64.6035H408.789Z" fill="url(#paint1_linear_363_3231)"/>
<path d="M676.763 57.0469V67H674.773V58.708H671.807V67H669.804V57.0469H676.763ZM681.288 67.1367C680.782 67.1367 680.333 67.0592 679.941 66.9043C679.554 66.7493 679.226 66.526 678.957 66.2344C678.688 65.9382 678.483 65.5804 678.342 65.1611C678.201 64.7419 678.13 64.2633 678.13 63.7256V63.1172C678.13 62.5156 678.198 61.9893 678.335 61.5381C678.472 61.0824 678.665 60.6995 678.916 60.3896C679.167 60.0798 679.474 59.8496 679.839 59.6992C680.208 59.5443 680.625 59.4668 681.09 59.4668C681.555 59.4668 681.963 59.5443 682.313 59.6992C682.669 59.8496 682.963 60.0775 683.195 60.3828C683.428 60.6836 683.603 61.0573 683.722 61.5039C683.84 61.9505 683.899 62.4701 683.899 63.0625V63.9375H678.943V62.5908H682.02V62.4199C682.02 62.1191 681.988 61.8685 681.924 61.668C681.86 61.4629 681.76 61.3102 681.623 61.21C681.486 61.1097 681.304 61.0596 681.076 61.0596C680.885 61.0596 680.723 61.0983 680.591 61.1758C680.459 61.2533 680.354 61.374 680.276 61.5381C680.199 61.7021 680.142 61.9163 680.105 62.1807C680.069 62.4404 680.051 62.7526 680.051 63.1172V63.7256C680.051 64.0674 680.08 64.3545 680.14 64.5869C680.199 64.8148 680.285 65.0016 680.399 65.1475C680.518 65.2887 680.661 65.3913 680.83 65.4551C680.999 65.5143 681.195 65.5439 681.418 65.5439C681.755 65.5439 682.058 65.4847 682.327 65.3662C682.601 65.2432 682.833 65.0768 683.024 64.8672L683.79 66.0293C683.658 66.2025 683.476 66.3757 683.243 66.5488C683.011 66.722 682.733 66.8633 682.409 66.9727C682.086 67.082 681.712 67.1367 681.288 67.1367ZM686.921 61.0254V69.8438H685.014V59.6035H686.777L686.921 61.0254ZM690.763 63.0488V63.541C690.763 64.1198 690.713 64.6325 690.612 65.0791C690.512 65.5212 690.362 65.8971 690.161 66.207C689.965 66.5124 689.719 66.7448 689.423 66.9043C689.127 67.0592 688.78 67.1367 688.384 67.1367C688.015 67.1367 687.696 67.0501 687.427 66.877C687.162 66.6992 686.939 66.4554 686.757 66.1455C686.575 65.8356 686.429 65.4733 686.319 65.0586C686.21 64.6439 686.126 64.1995 686.066 63.7256V62.96C686.121 62.4541 686.201 61.9893 686.306 61.5654C686.41 61.137 686.554 60.7656 686.736 60.4512C686.923 60.1367 687.149 59.8952 687.413 59.7266C687.682 59.5534 688.001 59.4668 688.37 59.4668C688.771 59.4668 689.12 59.5397 689.416 59.6855C689.717 59.8314 689.965 60.0524 690.161 60.3486C690.362 60.6403 690.512 61.0117 690.612 61.4629C690.713 61.9141 690.763 62.4427 690.763 63.0488ZM688.849 63.541V63.0488C688.849 62.6934 688.828 62.3903 688.787 62.1396C688.751 61.889 688.691 61.6839 688.609 61.5244C688.527 61.3649 688.42 61.2487 688.288 61.1758C688.156 61.1029 687.994 61.0664 687.803 61.0664C687.616 61.0664 687.452 61.1029 687.311 61.1758C687.174 61.2487 687.062 61.3558 686.976 61.4971C686.889 61.6338 686.823 61.8024 686.777 62.0029C686.732 62.1989 686.707 62.4222 686.702 62.6729V64.0127C686.711 64.3089 686.75 64.571 686.818 64.7988C686.891 65.0267 687.007 65.209 687.167 65.3457C687.326 65.4779 687.543 65.5439 687.816 65.5439C688.012 65.5439 688.174 65.5029 688.302 65.4209C688.434 65.3389 688.541 65.2158 688.623 65.0518C688.705 64.8877 688.762 64.6803 688.794 64.4297C688.83 64.179 688.849 63.8828 688.849 63.541ZM694.919 67.1367C694.413 67.1367 693.964 67.0592 693.572 66.9043C693.185 66.7493 692.857 66.526 692.588 66.2344C692.319 65.9382 692.114 65.5804 691.973 65.1611C691.831 64.7419 691.761 64.2633 691.761 63.7256V63.1172C691.761 62.5156 691.829 61.9893 691.966 61.5381C692.103 61.0824 692.296 60.6995 692.547 60.3896C692.798 60.0798 693.105 59.8496 693.47 59.6992C693.839 59.5443 694.256 59.4668 694.721 59.4668C695.186 59.4668 695.593 59.5443 695.944 59.6992C696.3 59.8496 696.594 60.0775 696.826 60.3828C697.059 60.6836 697.234 61.0573 697.353 61.5039C697.471 61.9505 697.53 62.4701 697.53 63.0625V63.9375H692.574V62.5908H695.65V62.4199C695.65 62.1191 695.618 61.8685 695.555 61.668C695.491 61.4629 695.391 61.3102 695.254 61.21C695.117 61.1097 694.935 61.0596 694.707 61.0596C694.516 61.0596 694.354 61.0983 694.222 61.1758C694.09 61.2533 693.985 61.374 693.907 61.5381C693.83 61.7021 693.773 61.9163 693.736 62.1807C693.7 62.4404 693.682 62.7526 693.682 63.1172V63.7256C693.682 64.0674 693.711 64.3545 693.771 64.5869C693.83 64.8148 693.916 65.0016 694.03 65.1475C694.149 65.2887 694.292 65.3913 694.461 65.4551C694.63 65.5143 694.826 65.5439 695.049 65.5439C695.386 65.5439 695.689 65.4847 695.958 65.3662C696.231 65.2432 696.464 65.0768 696.655 64.8672L697.421 66.0293C697.289 66.2025 697.106 66.3757 696.874 66.5488C696.642 66.722 696.364 66.8633 696.04 66.9727C695.716 67.082 695.343 67.1367 694.919 67.1367ZM701.837 63.9307H699.971L699.964 62.5977H701.475C701.652 62.5977 701.794 62.5726 701.898 62.5225C702.003 62.4723 702.078 62.3994 702.124 62.3037C702.174 62.2035 702.199 62.0804 702.199 61.9346C702.199 61.7979 702.183 61.6839 702.151 61.5928C702.119 61.4971 702.072 61.4196 702.008 61.3604C701.944 61.2965 701.864 61.251 701.769 61.2236C701.673 61.1963 701.563 61.1826 701.44 61.1826H700.675V67H698.761V59.6035H701.44C701.851 59.6035 702.22 59.6468 702.548 59.7334C702.876 59.8154 703.159 59.9408 703.396 60.1094C703.632 60.278 703.812 60.4922 703.936 60.752C704.059 61.0117 704.12 61.3171 704.12 61.668C704.12 61.8958 704.075 62.11 703.983 62.3105C703.892 62.5065 703.758 62.682 703.58 62.8369C703.407 62.9919 703.19 63.1195 702.931 63.2197C702.671 63.3154 702.375 63.3747 702.042 63.3975L701.837 63.9307ZM701.837 67H699.485L700.176 65.4209H701.837C702.006 65.4209 702.14 65.3936 702.24 65.3389C702.34 65.2842 702.413 65.2021 702.459 65.0928C702.505 64.9834 702.527 64.849 702.527 64.6895C702.527 64.5391 702.507 64.4069 702.466 64.293C702.429 64.1745 702.361 64.0856 702.261 64.0264C702.16 63.9626 702.019 63.9307 701.837 63.9307H700.292L700.306 62.5977H702.015L702.459 63.1377C702.924 63.1696 703.302 63.2676 703.594 63.4316C703.885 63.5957 704.1 63.8053 704.236 64.0605C704.373 64.3112 704.441 64.5869 704.441 64.8877C704.441 65.2386 704.384 65.5462 704.271 65.8105C704.157 66.0749 703.99 66.2959 703.771 66.4736C703.557 66.6468 703.286 66.779 702.958 66.8701C702.634 66.9567 702.261 67 701.837 67ZM707.62 59.6035V67H705.699V59.6035H707.62ZM705.61 57.6895C705.61 57.3932 705.704 57.1494 705.891 56.958C706.082 56.762 706.337 56.6641 706.656 56.6641C706.98 56.6641 707.235 56.762 707.422 56.958C707.609 57.1494 707.702 57.3932 707.702 57.6895C707.702 57.9811 707.606 58.2249 707.415 58.4209C707.228 58.6123 706.978 58.708 706.663 58.708C706.34 58.708 706.082 58.6123 705.891 58.4209C705.704 58.2249 705.61 57.9811 705.61 57.6895ZM711.052 61.0254V69.8438H709.145V59.6035H710.908L711.052 61.0254ZM714.894 63.0488V63.541C714.894 64.1198 714.843 64.6325 714.743 65.0791C714.643 65.5212 714.493 65.8971 714.292 66.207C714.096 66.5124 713.85 66.7448 713.554 66.9043C713.257 67.0592 712.911 67.1367 712.515 67.1367C712.146 67.1367 711.826 67.0501 711.558 66.877C711.293 66.6992 711.07 66.4554 710.888 66.1455C710.705 65.8356 710.56 65.4733 710.45 65.0586C710.341 64.6439 710.257 64.1995 710.197 63.7256V62.96C710.252 62.4541 710.332 61.9893 710.437 61.5654C710.541 61.137 710.685 60.7656 710.867 60.4512C711.054 60.1367 711.28 59.8952 711.544 59.7266C711.813 59.5534 712.132 59.4668 712.501 59.4668C712.902 59.4668 713.251 59.5397 713.547 59.6855C713.848 59.8314 714.096 60.0524 714.292 60.3486C714.493 60.6403 714.643 61.0117 714.743 61.4629C714.843 61.9141 714.894 62.4427 714.894 63.0488ZM712.979 63.541V63.0488C712.979 62.6934 712.959 62.3903 712.918 62.1396C712.882 61.889 712.822 61.6839 712.74 61.5244C712.658 61.3649 712.551 61.2487 712.419 61.1758C712.287 61.1029 712.125 61.0664 711.934 61.0664C711.747 61.0664 711.583 61.1029 711.441 61.1758C711.305 61.2487 711.193 61.3558 711.106 61.4971C711.02 61.6338 710.954 61.8024 710.908 62.0029C710.863 62.1989 710.838 62.4222 710.833 62.6729V64.0127C710.842 64.3089 710.881 64.571 710.949 64.7988C711.022 65.0267 711.138 65.209 711.298 65.3457C711.457 65.4779 711.674 65.5439 711.947 65.5439C712.143 65.5439 712.305 65.5029 712.433 65.4209C712.565 65.3389 712.672 65.2158 712.754 65.0518C712.836 64.8877 712.893 64.6803 712.925 64.4297C712.961 64.179 712.979 63.8828 712.979 63.541ZM718.127 59.6035V67H716.206V59.6035H718.127ZM722.146 59.6035L719.467 64.2725H717.778L717.532 62.3789H718.592L719.733 59.6035H722.146ZM719.761 67L718.476 63.9033L720.144 62.9395L722.304 67H719.761ZM726.385 65.2979V61.8799C726.385 61.6566 726.357 61.4788 726.303 61.3467C726.253 61.2145 726.175 61.1188 726.07 61.0596C725.97 60.9958 725.847 60.9639 725.701 60.9639C725.537 60.9639 725.4 60.998 725.291 61.0664C725.182 61.1348 725.1 61.2327 725.045 61.3604C724.995 61.488 724.97 61.6406 724.97 61.8184H723.049C723.049 61.4993 723.11 61.1986 723.233 60.916C723.356 60.6289 723.536 60.3783 723.773 60.1641C724.015 59.9453 724.302 59.7744 724.635 59.6514C724.967 59.5283 725.341 59.4668 725.756 59.4668C726.248 59.4668 726.686 59.5511 727.068 59.7197C727.451 59.8838 727.754 60.1458 727.978 60.5059C728.201 60.8659 728.312 61.333 728.312 61.9072V65.2021C728.312 65.6169 728.333 65.9541 728.374 66.2139C728.42 66.4736 728.486 66.6969 728.572 66.8838V67H726.645C726.558 66.7949 726.492 66.5397 726.446 66.2344C726.405 65.9245 726.385 65.6123 726.385 65.2979ZM726.617 62.4814L726.624 63.6299H725.92C725.738 63.6299 725.578 63.6595 725.441 63.7188C725.309 63.778 725.198 63.8623 725.106 63.9717C725.015 64.0765 724.947 64.1995 724.901 64.3408C724.86 64.4821 724.84 64.6325 724.84 64.792C724.84 64.9697 724.865 65.1201 724.915 65.2432C724.965 65.3662 725.04 65.4596 725.141 65.5234C725.241 65.5872 725.359 65.6191 725.496 65.6191C725.706 65.6191 725.888 65.5758 726.043 65.4893C726.198 65.4027 726.312 65.2979 726.385 65.1748C726.462 65.0518 726.487 64.9378 726.46 64.833L726.897 65.5781C726.843 65.7467 726.768 65.9222 726.672 66.1045C726.581 66.2868 726.465 66.4554 726.323 66.6104C726.182 66.7653 726.007 66.8929 725.797 66.9932C725.592 67.0889 725.348 67.1367 725.065 67.1367C724.669 67.1367 724.307 67.0456 723.979 66.8633C723.65 66.681 723.391 66.4258 723.199 66.0977C723.012 65.7695 722.919 65.3799 722.919 64.9287C722.919 64.555 722.978 64.2178 723.097 63.917C723.22 63.6117 723.402 63.3542 723.644 63.1445C723.885 62.9303 724.19 62.7663 724.56 62.6523C724.929 62.5384 725.362 62.4814 725.858 62.4814H726.617ZM674.917 73.6035V81H672.996V73.6035H674.917ZM676.817 73.6035V75.1826H671.103V73.6035H676.817ZM681.015 79.2979V75.8799C681.015 75.6566 680.987 75.4788 680.933 75.3467C680.882 75.2145 680.805 75.1188 680.7 75.0596C680.6 74.9958 680.477 74.9639 680.331 74.9639C680.167 74.9639 680.03 74.998 679.921 75.0664C679.812 75.1348 679.729 75.2327 679.675 75.3604C679.625 75.488 679.6 75.6406 679.6 75.8184H677.679C677.679 75.4993 677.74 75.1986 677.863 74.916C677.986 74.6289 678.166 74.3783 678.403 74.1641C678.645 73.9453 678.932 73.7744 679.265 73.6514C679.597 73.5283 679.971 73.4668 680.386 73.4668C680.878 73.4668 681.315 73.5511 681.698 73.7197C682.081 73.8838 682.384 74.1458 682.607 74.5059C682.831 74.8659 682.942 75.333 682.942 75.9072V79.2021C682.942 79.6169 682.963 79.9541 683.004 80.2139C683.049 80.4736 683.116 80.6969 683.202 80.8838V81H681.274C681.188 80.7949 681.122 80.5397 681.076 80.2344C681.035 79.9245 681.015 79.6123 681.015 79.2979ZM681.247 76.4814L681.254 77.6299H680.55C680.368 77.6299 680.208 77.6595 680.071 77.7188C679.939 77.778 679.827 77.8623 679.736 77.9717C679.645 78.0765 679.577 78.1995 679.531 78.3408C679.49 78.4821 679.47 78.6325 679.47 78.792C679.47 78.9697 679.495 79.1201 679.545 79.2432C679.595 79.3662 679.67 79.4596 679.771 79.5234C679.871 79.5872 679.989 79.6191 680.126 79.6191C680.336 79.6191 680.518 79.5758 680.673 79.4893C680.828 79.4027 680.942 79.2979 681.015 79.1748C681.092 79.0518 681.117 78.9378 681.09 78.833L681.527 79.5781C681.473 79.7467 681.397 79.9222 681.302 80.1045C681.211 80.2868 681.094 80.4554 680.953 80.6104C680.812 80.7653 680.636 80.8929 680.427 80.9932C680.222 81.0889 679.978 81.1367 679.695 81.1367C679.299 81.1367 678.937 81.0456 678.608 80.8633C678.28 80.681 678.021 80.4258 677.829 80.0977C677.642 79.7695 677.549 79.3799 677.549 78.9287C677.549 78.555 677.608 78.2178 677.727 77.917C677.85 77.6117 678.032 77.3542 678.273 77.1445C678.515 76.9303 678.82 76.7663 679.189 76.6523C679.559 76.5384 679.992 76.4814 680.488 76.4814H681.247ZM687.365 77.5547V77.0557C687.365 76.4769 687.434 75.9642 687.57 75.5176C687.712 75.071 687.912 74.6973 688.172 74.3965C688.432 74.0911 688.744 73.861 689.108 73.7061C689.478 73.5465 689.89 73.4668 690.346 73.4668C690.806 73.4668 691.218 73.5465 691.583 73.7061C691.952 73.861 692.267 74.0911 692.526 74.3965C692.791 74.6973 692.993 75.071 693.135 75.5176C693.276 75.9642 693.347 76.4769 693.347 77.0557V77.5547C693.347 78.1289 693.276 78.6393 693.135 79.0859C692.993 79.5326 692.791 79.9085 692.526 80.2139C692.267 80.5192 691.954 80.7493 691.59 80.9043C691.225 81.0592 690.815 81.1367 690.359 81.1367C689.904 81.1367 689.491 81.0592 689.122 80.9043C688.757 80.7493 688.443 80.5192 688.179 80.2139C687.914 79.9085 687.712 79.5326 687.57 79.0859C687.434 78.6393 687.365 78.1289 687.365 77.5547ZM689.279 77.0557V77.5547C689.279 77.8965 689.302 78.1927 689.348 78.4434C689.398 78.694 689.468 78.9014 689.56 79.0654C689.655 79.2295 689.769 79.3503 689.901 79.4277C690.034 79.5052 690.186 79.5439 690.359 79.5439C690.533 79.5439 690.688 79.5052 690.824 79.4277C690.961 79.3503 691.073 79.2295 691.159 79.0654C691.25 78.9014 691.316 78.694 691.357 78.4434C691.403 78.1927 691.426 77.8965 691.426 77.5547V77.0557C691.426 76.723 691.401 76.4313 691.351 76.1807C691.3 75.9255 691.23 75.7181 691.139 75.5586C691.048 75.3945 690.934 75.2715 690.797 75.1895C690.665 75.1029 690.514 75.0596 690.346 75.0596C690.177 75.0596 690.027 75.1029 689.895 75.1895C689.767 75.2715 689.655 75.3945 689.56 75.5586C689.468 75.7181 689.398 75.9255 689.348 76.1807C689.302 76.4313 689.279 76.723 689.279 77.0557ZM698.713 73.6035V75.1963H695.958V73.6035H698.713ZM696.478 73.6035V81H694.557V73.6035H696.478ZM700.135 73.6035V81H698.207V73.6035H700.135ZM705.713 73.6035V75.1963H702.719V73.6035H705.713ZM707.142 73.6035V81H705.228V73.6035H707.142ZM702.254 73.6035H704.134L703.949 77.3564C703.926 77.8896 703.876 78.3568 703.799 78.7578C703.721 79.1589 703.619 79.5029 703.491 79.79C703.364 80.0771 703.209 80.3096 703.026 80.4873C702.849 80.665 702.646 80.7949 702.418 80.877C702.195 80.959 701.944 81 701.666 81H701.099L701.078 79.3936L701.297 79.3662C701.411 79.3525 701.511 79.3115 701.598 79.2432C701.689 79.1748 701.766 79.0745 701.83 78.9424C701.894 78.8102 701.944 78.6416 701.98 78.4365C702.021 78.2314 702.053 77.9899 702.076 77.7119C702.099 77.4339 702.117 77.1149 702.131 76.7549L702.254 73.6035ZM711.831 79.2979V75.8799C711.831 75.6566 711.804 75.4788 711.749 75.3467C711.699 75.2145 711.621 75.1188 711.517 75.0596C711.416 74.9958 711.293 74.9639 711.147 74.9639C710.983 74.9639 710.847 74.998 710.737 75.0664C710.628 75.1348 710.546 75.2327 710.491 75.3604C710.441 75.488 710.416 75.6406 710.416 75.8184H708.495C708.495 75.4993 708.557 75.1986 708.68 74.916C708.803 74.6289 708.983 74.3783 709.22 74.1641C709.461 73.9453 709.748 73.7744 710.081 73.6514C710.414 73.5283 710.787 73.4668 711.202 73.4668C711.694 73.4668 712.132 73.5511 712.515 73.7197C712.897 73.8838 713.201 74.1458 713.424 74.5059C713.647 74.8659 713.759 75.333 713.759 75.9072V79.2021C713.759 79.6169 713.779 79.9541 713.82 80.2139C713.866 80.4736 713.932 80.6969 714.019 80.8838V81H712.091C712.004 80.7949 711.938 80.5397 711.893 80.2344C711.852 79.9245 711.831 79.6123 711.831 79.2979ZM712.063 76.4814L712.07 77.6299H711.366C711.184 77.6299 711.024 77.6595 710.888 77.7188C710.756 77.778 710.644 77.8623 710.553 77.9717C710.462 78.0765 710.393 78.1995 710.348 78.3408C710.307 78.4821 710.286 78.6325 710.286 78.792C710.286 78.9697 710.311 79.1201 710.361 79.2432C710.411 79.3662 710.487 79.4596 710.587 79.5234C710.687 79.5872 710.806 79.6191 710.942 79.6191C711.152 79.6191 711.334 79.5758 711.489 79.4893C711.644 79.4027 711.758 79.2979 711.831 79.1748C711.909 79.0518 711.934 78.9378 711.906 78.833L712.344 79.5781C712.289 79.7467 712.214 79.9222 712.118 80.1045C712.027 80.2868 711.911 80.4554 711.77 80.6104C711.628 80.7653 711.453 80.8929 711.243 80.9932C711.038 81.0889 710.794 81.1367 710.512 81.1367C710.115 81.1367 709.753 81.0456 709.425 80.8633C709.097 80.681 708.837 80.4258 708.646 80.0977C708.459 79.7695 708.365 79.3799 708.365 78.9287C708.365 78.555 708.424 78.2178 708.543 77.917C708.666 77.6117 708.848 77.3542 709.09 77.1445C709.331 76.9303 709.637 76.7663 710.006 76.6523C710.375 76.5384 710.808 76.4814 711.305 76.4814H712.063ZM718.476 73.6035V81H716.555V73.6035H718.476ZM720.376 73.6035V75.1826H714.661V73.6035H720.376ZM724.573 79.2979V75.8799C724.573 75.6566 724.546 75.4788 724.491 75.3467C724.441 75.2145 724.364 75.1188 724.259 75.0596C724.159 74.9958 724.035 74.9639 723.89 74.9639C723.726 74.9639 723.589 74.998 723.479 75.0664C723.37 75.1348 723.288 75.2327 723.233 75.3604C723.183 75.488 723.158 75.6406 723.158 75.8184H721.237C721.237 75.4993 721.299 75.1986 721.422 74.916C721.545 74.6289 721.725 74.3783 721.962 74.1641C722.203 73.9453 722.491 73.7744 722.823 73.6514C723.156 73.5283 723.53 73.4668 723.944 73.4668C724.437 73.4668 724.874 73.5511 725.257 73.7197C725.64 73.8838 725.943 74.1458 726.166 74.5059C726.389 74.8659 726.501 75.333 726.501 75.9072V79.2021C726.501 79.6169 726.521 79.9541 726.562 80.2139C726.608 80.4736 726.674 80.6969 726.761 80.8838V81H724.833C724.746 80.7949 724.68 80.5397 724.635 80.2344C724.594 79.9245 724.573 79.6123 724.573 79.2979ZM724.806 76.4814L724.812 77.6299H724.108C723.926 77.6299 723.767 77.6595 723.63 77.7188C723.498 77.778 723.386 77.8623 723.295 77.9717C723.204 78.0765 723.135 78.1995 723.09 78.3408C723.049 78.4821 723.028 78.6325 723.028 78.792C723.028 78.9697 723.053 79.1201 723.104 79.2432C723.154 79.3662 723.229 79.4596 723.329 79.5234C723.429 79.5872 723.548 79.6191 723.685 79.6191C723.894 79.6191 724.076 79.5758 724.231 79.4893C724.386 79.4027 724.5 79.2979 724.573 79.1748C724.651 79.0518 724.676 78.9378 724.648 78.833L725.086 79.5781C725.031 79.7467 724.956 79.9222 724.86 80.1045C724.769 80.2868 724.653 80.4554 724.512 80.6104C724.37 80.7653 724.195 80.8929 723.985 80.9932C723.78 81.0889 723.536 81.1367 723.254 81.1367C722.857 81.1367 722.495 81.0456 722.167 80.8633C721.839 80.681 721.579 80.4258 721.388 80.0977C721.201 79.7695 721.107 79.3799 721.107 78.9287C721.107 78.555 721.167 78.2178 721.285 77.917C721.408 77.6117 721.59 77.3542 721.832 77.1445C722.074 76.9303 722.379 76.7663 722.748 76.6523C723.117 76.5384 723.55 76.4814 724.047 76.4814H724.806Z" fill="url(#paint2_linear_363_3231)"/>
<path fill-rule="evenodd" clip-rule="evenodd" d="M376 33H83V31H376V33Z" fill="url(#paint3_linear_363_3231)"/>
<path fill-rule="evenodd" clip-rule="evenodd" d="M685 33H404V31H685V33Z" fill="url(#paint4_linear_363_3231)"/>
<g filter="url(#filter0_d_363_3231)">
<path d="M69 17C60.7125 17 54 23.7125 54 32C54 34.8125 54.7875 37.475 56.175 39.725C57.497 41.9468 59.3748 43.7861 61.6236 45.0617C63.8724 46.3373 66.4146 47.0053 69 47C74.475 47 79.2375 44.075 81.825 39.725C83.2125 37.475 84 34.8125 84 32C84 23.7125 77.2875 17 69 17ZM76.3875 30.7625L68.4 38.15C67.875 38.6375 67.1625 38.9 66.4875 38.9C65.775 38.9 65.0625 38.6375 64.5 38.075L60.7875 34.3625C60.2644 33.8332 59.9711 33.1191 59.9711 32.375C59.9711 31.6309 60.2644 30.9168 60.7875 30.3875C61.875 29.3 63.675 29.3 64.7625 30.3875L66.5625 32.1875L72.5625 26.6375C73.6875 25.5875 75.4875 25.6625 76.5375 26.7875C77.5875 27.9125 77.5125 29.7125 76.3875 30.7625Z" fill="url(#paint5_linear_363_3231)"/>
</g>
<g filter="url(#filter1_d_363_3231)">
<path d="M390 17C381.712 17 375 23.7125 375 32C375 34.8125 375.788 37.475 377.175 39.725C378.497 41.9468 380.375 43.7861 382.624 45.0617C384.872 46.3373 387.415 47.0053 390 47C395.475 47 400.238 44.075 402.825 39.725C404.213 37.475 405 34.8125 405 32C405 23.7125 398.288 17 390 17ZM397.387 30.7625L389.4 38.15C388.875 38.6375 388.162 38.9 387.487 38.9C386.775 38.9 386.062 38.6375 385.5 38.075L381.787 34.3625C381.264 33.8332 380.971 33.1191 380.971 32.375C380.971 31.6309 381.264 30.9168 381.787 30.3875C382.875 29.3 384.675 29.3 385.762 30.3875L387.562 32.1875L393.562 26.6375C394.687 25.5875 396.488 25.6625 397.538 26.7875C398.588 27.9125 398.512 29.7125 397.387 30.7625Z" fill="url(#paint6_linear_363_3231)"/>
</g>
<g filter="url(#filter2_d_363_3231)">
<path d="M697 17C688.712 17 682 23.7125 682 32C682 34.8125 682.788 37.475 684.175 39.725C685.497 41.9468 687.375 43.7861 689.624 45.0617C691.872 46.3373 694.415 47.0053 697 47C702.475 47 707.238 44.075 709.825 39.725C711.213 37.475 712 34.8125 712 32C712 23.7125 705.288 17 697 17ZM704.387 30.7625L696.4 38.15C695.875 38.6375 695.162 38.9 694.487 38.9C693.775 38.9 693.062 38.6375 692.5 38.075L688.787 34.3625C688.264 33.8332 687.971 33.1191 687.971 32.375C687.971 31.6309 688.264 30.9168 688.787 30.3875C689.875 29.3 691.675 29.3 692.762 30.3875L694.562 32.1875L700.562 26.6375C701.687 25.5875 703.488 25.6625 704.538 26.7875C705.588 27.9125 705.512 29.7125 704.387 30.7625Z" fill="url(#paint7_linear_363_3231)"/>
</g>
<defs>
<filter id="filter0_d_363_3231" x="37" y="0" width="74" height="74" filterUnits="userSpaceOnUse" color-interpolation-filters="sRGB">
<feFlood flood-opacity="0" result="BackgroundImageFix"/>
<feColorMatrix in="SourceAlpha" type="matrix" values="0 0 0 0 0 0 0 0 0 0 0 0 0 0 0 0 0 0 127 0" result="hardAlpha"/>
<feOffset dx="5" dy="5"/>
<feGaussianBlur stdDeviation="11"/>
<feComposite in2="hardAlpha" operator="out"/>
<feColorMatrix type="matrix" values="0 0 0 0 0.0392157 0 0 0 0 0.560784 0 0 0 0 0.309804 0 0 0 0.2 0"/>
<feBlend mode="normal" in2="BackgroundImageFix" result="effect1_dropShadow_363_3231"/>
<feBlend mode="normal" in="SourceGraphic" in2="effect1_dropShadow_363_3231" result="shape"/>
</filter>
<filter id="filter1_d_363_3231" x="358" y="0" width="74" height="74" filterUnits="userSpaceOnUse" color-interpolation-filters="sRGB">
<feFlood flood-opacity="0" result="BackgroundImageFix"/>
<feColorMatrix in="SourceAlpha" type="matrix" values="0 0 0 0 0 0 0 0 0 0 0 0 0 0 0 0 0 0 127 0" result="hardAlpha"/>
<feOffset dx="5" dy="5"/>
<feGaussianBlur stdDeviation="11"/>
<feComposite in2="hardAlpha" operator="out"/>
<feColorMatrix type="matrix" values="0 0 0 0 0.0392157 0 0 0 0 0.560784 0 0 0 0 0.309804 0 0 0 0.2 0"/>
<feBlend mode="normal" in2="BackgroundImageFix" result="effect1_dropShadow_363_3231"/>
<feBlend mode="normal" in="SourceGraphic" in2="effect1_dropShadow_363_3231" result="shape"/>
</filter>
<filter id="filter2_d_363_3231" x="665" y="0" width="74" height="74" filterUnits="userSpaceOnUse" color-interpolation-filters="sRGB">
<feFlood flood-opacity="0" result="BackgroundImageFix"/>
<feColorMatrix in="SourceAlpha" type="matrix" values="0 0 0 0 0 0 0 0 0 0 0 0 0 0 0 0 0 0 127 0" result="hardAlpha"/>
<feOffset dx="5" dy="5"/>
<feGaussianBlur stdDeviation="11"/>
<feComposite in2="hardAlpha" operator="out"/>
<feColorMatrix type="matrix" values="0 0 0 0 0.0392157 0 0 0 0 0.560784 0 0 0 0 0.309804 0 0 0 0.2 0"/>
<feBlend mode="normal" in2="BackgroundImageFix" result="effect1_dropShadow_363_3231"/>
<feBlend mode="normal" in="SourceGraphic" in2="effect1_dropShadow_363_3231" result="shape"/>
</filter>
<linearGradient id="paint0_linear_363_3231" x1="68.5" y1="97" x2="68.5" y2="57" gradientUnits="userSpaceOnUse">
<stop stop-color="#5CCC94"/>
<stop offset="1" stop-color="#8CCAAE"/>
</linearGradient>
<linearGradient id="paint1_linear_363_3231" x1="392" y1="77" x2="392" y2="57" gradientUnits="userSpaceOnUse">
<stop stop-color="#5CCC94"/>
<stop offset="1" stop-color="#8CCAAE"/>
</linearGradient>
<linearGradient id="paint2_linear_363_3231" x1="699" y1="83" x2="699" y2="55" gradientUnits="userSpaceOnUse">
<stop stop-color="#5CCC94"/>
<stop offset="1" stop-color="#8CCAAE"/>
</linearGradient>
<linearGradient id="paint3_linear_363_3231" x1="229.5" y1="33" x2="229.5" y2="31" gradientUnits="userSpaceOnUse">
<stop stop-color="#5CCC94"/>
<stop offset="1" stop-color="#8CCAAE"/>
</linearGradient>
<linearGradient id="paint4_linear_363_3231" x1="544.5" y1="33" x2="544.5" y2="31" gradientUnits="userSpaceOnUse">
<stop stop-color="#5CCC94"/>
<stop offset="1" stop-color="#8CCAAE"/>
</linearGradient>
<linearGradient id="paint5_linear_363_3231" x1="69" y1="47" x2="69" y2="17" gradientUnits="userSpaceOnUse">
<stop stop-color="#5CCC94"/>
<stop offset="1" stop-color="#8CCAAE"/>
</linearGradient>
<linearGradient id="paint6_linear_363_3231" x1="390" y1="47" x2="390" y2="17" gradientUnits="userSpaceOnUse">
<stop stop-color="#5CCC94"/>
<stop offset="1" stop-color="#8CCAAE"/>
</linearGradient>
<linearGradient id="paint7_linear_363_3231" x1="697" y1="47" x2="697" y2="17" gradientUnits="userSpaceOnUse">
<stop stop-color="#5CCC94"/>
<stop offset="1" stop-color="#8CCAAE"/>
</linearGradient>
</defs>
</svg>
