<svg width="739" height="84" viewBox="0 0 739 84" fill="none" xmlns="http://www.w3.org/2000/svg">
<path d="M6.19727 67.6592H4.16016L4.15332 66.21H5.88965C6.16309 66.21 6.38639 66.1644 6.55957 66.0732C6.7373 65.9775 6.86719 65.8385 6.94922 65.6562C7.03581 65.4694 7.0791 65.2438 7.0791 64.9795C7.0791 64.6742 7.04036 64.4303 6.96289 64.248C6.88542 64.0612 6.76009 63.9245 6.58691 63.8379C6.41374 63.7513 6.18815 63.708 5.91016 63.708H4.84375V72H2.84082V62.0469H5.91016C6.4069 62.0469 6.85124 62.1016 7.24316 62.2109C7.63509 62.3203 7.96777 62.4867 8.24121 62.71C8.51465 62.9333 8.72201 63.2158 8.86328 63.5576C9.00911 63.8994 9.08203 64.3027 9.08203 64.7676C9.08203 65.1777 9 65.556 8.83594 65.9023C8.67188 66.2487 8.41439 66.5312 8.06348 66.75C7.71712 66.9688 7.26367 67.0918 6.70312 67.1191L6.19727 67.6592ZM6.12891 72H3.59277L4.39258 70.3457H6.12891C6.39323 70.3457 6.60742 70.2887 6.77148 70.1748C6.93555 70.0609 7.05404 69.9082 7.12695 69.7168C7.19987 69.5208 7.23633 69.2975 7.23633 69.0469C7.23633 68.7643 7.20215 68.5182 7.13379 68.3086C7.06999 68.099 6.96289 67.9395 6.8125 67.8301C6.66211 67.7161 6.45931 67.6592 6.2041 67.6592H4.48145L4.49512 66.21H6.58691L7.05859 66.7842C7.5918 66.766 8.0179 66.8685 8.33691 67.0918C8.65592 67.3105 8.88379 67.5977 9.02051 67.9531C9.16178 68.304 9.23242 68.6777 9.23242 69.0742C9.23242 69.7122 9.11165 70.25 8.87012 70.6875C8.63314 71.1204 8.28451 71.4486 7.82422 71.6719C7.36393 71.8906 6.79883 72 6.12891 72ZM12.5205 66.251V72H10.6064V64.6035H12.4111L12.5205 66.251ZM14.2637 64.5488L14.2363 66.4561C14.1497 66.4378 14.0449 66.4242 13.9219 66.415C13.8034 66.4059 13.6986 66.4014 13.6074 66.4014C13.3932 66.4014 13.2109 66.4355 13.0605 66.5039C12.9102 66.5677 12.7848 66.6657 12.6846 66.7979C12.5889 66.9255 12.516 67.085 12.4658 67.2764C12.4157 67.4678 12.3861 67.6842 12.377 67.9258L12.0146 67.7891C12.0146 67.306 12.0511 66.8639 12.124 66.4629C12.2015 66.0573 12.3154 65.7064 12.4658 65.4102C12.6162 65.1094 12.7962 64.877 13.0059 64.7129C13.2201 64.5488 13.4616 64.4668 13.7305 64.4668C13.8216 64.4668 13.9173 64.4759 14.0176 64.4941C14.1224 64.5078 14.2044 64.526 14.2637 64.5488ZM14.7764 68.5547V68.0557C14.7764 67.4769 14.8447 66.9642 14.9814 66.5176C15.1227 66.071 15.3232 65.6973 15.583 65.3965C15.8428 65.0911 16.1549 64.861 16.5195 64.7061C16.8887 64.5465 17.3011 64.4668 17.7568 64.4668C18.2171 64.4668 18.6296 64.5465 18.9941 64.7061C19.3633 64.861 19.6777 65.0911 19.9375 65.3965C20.2018 65.6973 20.4046 66.071 20.5459 66.5176C20.6872 66.9642 20.7578 67.4769 20.7578 68.0557V68.5547C20.7578 69.1289 20.6872 69.6393 20.5459 70.0859C20.4046 70.5326 20.2018 70.9085 19.9375 71.2139C19.6777 71.5192 19.3656 71.7493 19.001 71.9043C18.6364 72.0592 18.2262 72.1367 17.7705 72.1367C17.3148 72.1367 16.9023 72.0592 16.5332 71.9043C16.1686 71.7493 15.8542 71.5192 15.5898 71.2139C15.3255 70.9085 15.1227 70.5326 14.9814 70.0859C14.8447 69.6393 14.7764 69.1289 14.7764 68.5547ZM16.6904 68.0557V68.5547C16.6904 68.8965 16.7132 69.1927 16.7588 69.4434C16.8089 69.694 16.8796 69.9014 16.9707 70.0654C17.0664 70.2295 17.1803 70.3503 17.3125 70.4277C17.4447 70.5052 17.5973 70.5439 17.7705 70.5439C17.9437 70.5439 18.0986 70.5052 18.2354 70.4277C18.3721 70.3503 18.4837 70.2295 18.5703 70.0654C18.6615 69.9014 18.7275 69.694 18.7686 69.4434C18.8141 69.1927 18.8369 68.8965 18.8369 68.5547V68.0557C18.8369 67.723 18.8118 67.4313 18.7617 67.1807C18.7116 66.9255 18.641 66.7181 18.5498 66.5586C18.4587 66.3945 18.3447 66.2715 18.208 66.1895C18.0758 66.1029 17.9255 66.0596 17.7568 66.0596C17.5882 66.0596 17.4378 66.1029 17.3057 66.1895C17.1781 66.2715 17.0664 66.3945 16.9707 66.5586C16.8796 66.7181 16.8089 66.9255 16.7588 67.1807C16.7132 67.4313 16.6904 67.723 16.6904 68.0557ZM22.0566 64.6035H23.9844V72.4102C23.9844 72.9661 23.8955 73.4355 23.7178 73.8184C23.5446 74.2012 23.2939 74.4906 22.9658 74.6865C22.6377 74.887 22.2412 74.9873 21.7764 74.9873C21.626 74.9873 21.4779 74.9782 21.332 74.96C21.1862 74.9417 21.0381 74.9121 20.8877 74.8711L20.8945 73.3125C20.9857 73.3307 21.0745 73.3444 21.1611 73.3535C21.2432 73.3626 21.3252 73.3672 21.4072 73.3672C21.5531 73.3672 21.6738 73.333 21.7695 73.2646C21.8652 73.2008 21.9359 73.0983 21.9814 72.957C22.0316 72.8158 22.0566 72.6335 22.0566 72.4102V64.6035ZM21.9268 62.6895C21.9268 62.3932 22.0225 62.1494 22.2139 61.958C22.4053 61.762 22.6582 61.6641 22.9727 61.6641C23.2917 61.6641 23.5469 61.762 23.7383 61.958C23.9297 62.1494 24.0254 62.3932 24.0254 62.6895C24.0254 62.9811 23.9297 63.2249 23.7383 63.4209C23.5469 63.6123 23.2917 63.708 22.9727 63.708C22.6582 63.708 22.4053 63.6123 22.2139 63.4209C22.0225 63.2249 21.9268 62.9811 21.9268 62.6895ZM30.54 66.251V72H28.626V64.6035H30.4307L30.54 66.251ZM32.2832 64.5488L32.2559 66.4561C32.1693 66.4378 32.0645 66.4242 31.9414 66.415C31.8229 66.4059 31.7181 66.4014 31.627 66.4014C31.4128 66.4014 31.2305 66.4355 31.0801 66.5039C30.9297 66.5677 30.8044 66.6657 30.7041 66.7979C30.6084 66.9255 30.5355 67.085 30.4854 67.2764C30.4352 67.4678 30.4056 67.6842 30.3965 67.9258L30.0342 67.7891C30.0342 67.306 30.0706 66.8639 30.1436 66.4629C30.221 66.0573 30.335 65.7064 30.4854 65.4102C30.6357 65.1094 30.8158 64.877 31.0254 64.7129C31.2396 64.5488 31.4811 64.4668 31.75 64.4668C31.8411 64.4668 31.9368 64.4759 32.0371 64.4941C32.1419 64.5078 32.224 64.526 32.2832 64.5488ZM36.1045 72.1367C35.5986 72.1367 35.1497 72.0592 34.7578 71.9043C34.3704 71.7493 34.0423 71.526 33.7734 71.2344C33.5046 70.9382 33.2995 70.5804 33.1582 70.1611C33.0169 69.7419 32.9463 69.2633 32.9463 68.7256V68.1172C32.9463 67.5156 33.0146 66.9893 33.1514 66.5381C33.2881 66.0824 33.4818 65.6995 33.7324 65.3896C33.9831 65.0798 34.2907 64.8496 34.6553 64.6992C35.0244 64.5443 35.4414 64.4668 35.9062 64.4668C36.3711 64.4668 36.779 64.5443 37.1299 64.6992C37.4854 64.8496 37.7793 65.0775 38.0117 65.3828C38.2441 65.6836 38.4196 66.0573 38.5381 66.5039C38.6566 66.9505 38.7158 67.4701 38.7158 68.0625V68.9375H33.7598V67.5908H36.8359V67.4199C36.8359 67.1191 36.804 66.8685 36.7402 66.668C36.6764 66.4629 36.5762 66.3102 36.4395 66.21C36.3027 66.1097 36.1204 66.0596 35.8926 66.0596C35.7012 66.0596 35.5394 66.0983 35.4072 66.1758C35.2751 66.2533 35.1702 66.374 35.0928 66.5381C35.0153 66.7021 34.9583 66.9163 34.9219 67.1807C34.8854 67.4404 34.8672 67.7526 34.8672 68.1172V68.7256C34.8672 69.0674 34.8968 69.3545 34.9561 69.5869C35.0153 69.8148 35.1019 70.0016 35.2158 70.1475C35.3343 70.2887 35.4779 70.3913 35.6465 70.4551C35.8151 70.5143 36.0111 70.5439 36.2344 70.5439C36.5716 70.5439 36.8747 70.4847 37.1436 70.3662C37.417 70.2432 37.6494 70.0768 37.8408 69.8672L38.6064 71.0293C38.4743 71.2025 38.292 71.3757 38.0596 71.5488C37.8271 71.722 37.5492 71.8633 37.2256 71.9727C36.902 72.082 36.5283 72.1367 36.1045 72.1367ZM43.7129 64.6035H45.4492V72C45.4492 72.6745 45.3193 73.2259 45.0596 73.6543C44.8044 74.0872 44.4466 74.404 43.9863 74.6045C43.5306 74.8096 42.9974 74.9121 42.3867 74.9121C42.1543 74.9121 41.8923 74.8802 41.6006 74.8164C41.3135 74.7526 41.0355 74.6546 40.7666 74.5225C40.4977 74.3949 40.2767 74.2399 40.1035 74.0576L40.7529 72.7314C40.9307 72.9092 41.1631 73.0596 41.4502 73.1826C41.7373 73.3102 42.0199 73.374 42.2979 73.374C42.5667 73.374 42.79 73.3307 42.9678 73.2441C43.1501 73.1621 43.2868 73.0208 43.3779 72.8203C43.4736 72.6198 43.5215 72.3509 43.5215 72.0137V66.3193L43.7129 64.6035ZM39.584 68.5615V68.0693C39.584 67.4678 39.641 66.9414 39.7549 66.4902C39.8688 66.0391 40.0329 65.6631 40.2471 65.3623C40.4613 65.0615 40.7233 64.8382 41.0332 64.6924C41.3477 64.542 41.6986 64.4668 42.0859 64.4668C42.4915 64.4668 42.8311 64.5557 43.1045 64.7334C43.3779 64.9066 43.599 65.1504 43.7676 65.4648C43.9408 65.7793 44.0729 66.1507 44.1641 66.5791C44.2598 67.0075 44.3327 67.4769 44.3828 67.9873V68.6982C44.3327 69.1813 44.2507 69.6325 44.1367 70.0518C44.0273 70.471 43.8815 70.8356 43.6992 71.1455C43.5169 71.4554 43.2936 71.6992 43.0293 71.877C42.765 72.0501 42.446 72.1367 42.0723 72.1367C41.6895 72.1367 41.3431 72.0592 41.0332 71.9043C40.7279 71.7493 40.4658 71.5215 40.2471 71.2207C40.0329 70.9154 39.8688 70.5417 39.7549 70.0996C39.641 69.653 39.584 69.1403 39.584 68.5615ZM41.5049 68.0693V68.5615C41.5049 68.9079 41.5254 69.2064 41.5664 69.457C41.612 69.7031 41.6803 69.9059 41.7715 70.0654C41.8626 70.2204 41.9788 70.3366 42.1201 70.4141C42.266 70.487 42.4368 70.5234 42.6328 70.5234C42.9108 70.5234 43.1318 70.4596 43.2959 70.332C43.4645 70.1999 43.5876 70.0199 43.665 69.792C43.7471 69.5596 43.7926 69.293 43.8018 68.9922V67.7002C43.7972 67.4495 43.7676 67.224 43.7129 67.0234C43.6628 66.8229 43.5921 66.652 43.501 66.5107C43.4098 66.3695 43.2913 66.2601 43.1455 66.1826C43.0042 66.1051 42.8379 66.0664 42.6465 66.0664C42.4505 66.0664 42.2819 66.1051 42.1406 66.1826C41.9993 66.2601 41.8809 66.3809 41.7852 66.5449C41.694 66.7044 41.6234 66.9118 41.5732 67.167C41.5277 67.4176 41.5049 67.7184 41.5049 68.0693ZM48.8877 64.6035V72H46.9668V64.6035H48.8877ZM46.8779 62.6895C46.8779 62.3932 46.9714 62.1494 47.1582 61.958C47.3496 61.762 47.6048 61.6641 47.9238 61.6641C48.2474 61.6641 48.5026 61.762 48.6895 61.958C48.8763 62.1494 48.9697 62.3932 48.9697 62.6895C48.9697 62.9811 48.874 63.2249 48.6826 63.4209C48.4958 63.6123 48.2451 63.708 47.9307 63.708C47.6071 63.708 47.3496 63.6123 47.1582 63.4209C46.9714 63.2249 46.8779 62.9811 46.8779 62.6895ZM53.6865 70.0039C53.6865 69.8763 53.6432 69.7624 53.5566 69.6621C53.4701 69.5618 53.3333 69.4593 53.1465 69.3545C52.9596 69.2451 52.7113 69.1243 52.4014 68.9922C52.0641 68.8555 51.7656 68.7142 51.5059 68.5684C51.2461 68.4225 51.0251 68.2607 50.8428 68.083C50.665 67.9053 50.5306 67.7025 50.4395 67.4746C50.3483 67.2467 50.3027 66.987 50.3027 66.6953C50.3027 66.3809 50.3597 66.0915 50.4736 65.8271C50.5921 65.5583 50.7607 65.3236 50.9795 65.123C51.1982 64.918 51.4648 64.7585 51.7793 64.6445C52.0983 64.526 52.4561 64.4668 52.8525 64.4668C53.4085 64.4668 53.8848 64.5648 54.2812 64.7607C54.6823 64.9521 54.9899 65.221 55.2041 65.5674C55.4183 65.9137 55.5254 66.3171 55.5254 66.7773H53.6113C53.6113 66.6133 53.5863 66.4674 53.5361 66.3398C53.486 66.2077 53.404 66.1051 53.29 66.0322C53.1807 65.9593 53.0326 65.9229 52.8457 65.9229C52.709 65.9229 52.5859 65.9525 52.4766 66.0117C52.3717 66.071 52.2874 66.1507 52.2236 66.251C52.1644 66.3467 52.1348 66.4606 52.1348 66.5928C52.1348 66.693 52.1553 66.7819 52.1963 66.8594C52.2419 66.9368 52.3125 67.012 52.4082 67.085C52.5039 67.1579 52.6315 67.2354 52.791 67.3174C52.9551 67.3949 53.1556 67.4814 53.3926 67.5771C53.8848 67.7594 54.2881 67.9554 54.6025 68.165C54.9215 68.3747 55.1585 68.6208 55.3135 68.9033C55.4684 69.1813 55.5459 69.5254 55.5459 69.9355C55.5459 70.2637 55.4821 70.5622 55.3545 70.8311C55.2314 71.0999 55.0514 71.3324 54.8145 71.5283C54.5775 71.7243 54.2926 71.8747 53.96 71.9795C53.6318 72.0843 53.265 72.1367 52.8594 72.1367C52.2624 72.1367 51.7588 72.0182 51.3486 71.7812C50.9385 71.5443 50.6286 71.2412 50.4189 70.8721C50.2093 70.4984 50.1045 70.111 50.1045 69.71H51.9229C51.932 69.9561 51.9775 70.1497 52.0596 70.291C52.1462 70.4277 52.2624 70.5234 52.4082 70.5781C52.554 70.6328 52.7158 70.6602 52.8936 70.6602C53.0713 70.6602 53.2171 70.6374 53.3311 70.5918C53.4495 70.5417 53.5384 70.4665 53.5977 70.3662C53.6569 70.2614 53.6865 70.1406 53.6865 70.0039ZM59.9893 64.6035V66.0459H56.2158V64.6035H59.9893ZM57.084 62.7783H58.9912V69.7441C58.9912 69.9492 59.0117 70.1064 59.0527 70.2158C59.0938 70.3252 59.1553 70.4027 59.2373 70.4482C59.3239 70.4893 59.4378 70.5098 59.5791 70.5098C59.6748 70.5098 59.7637 70.5052 59.8457 70.4961C59.9277 70.4824 59.9893 70.4688 60.0303 70.4551V71.9521C59.8799 72.0114 59.7204 72.057 59.5518 72.0889C59.3877 72.1208 59.1917 72.1367 58.9639 72.1367C58.5811 72.1367 58.2484 72.0638 57.9658 71.918C57.6878 71.7721 57.4714 71.5397 57.3164 71.2207C57.1615 70.8971 57.084 70.4733 57.084 69.9492V62.7783ZM64.3164 70.2979V66.8799C64.3164 66.6566 64.2891 66.4788 64.2344 66.3467C64.1842 66.2145 64.1068 66.1188 64.002 66.0596C63.9017 65.9958 63.7786 65.9639 63.6328 65.9639C63.4688 65.9639 63.332 65.998 63.2227 66.0664C63.1133 66.1348 63.0312 66.2327 62.9766 66.3604C62.9264 66.488 62.9014 66.6406 62.9014 66.8184H60.9805C60.9805 66.4993 61.042 66.1986 61.165 65.916C61.2881 65.6289 61.4681 65.3783 61.7051 65.1641C61.9466 64.9453 62.2337 64.7744 62.5664 64.6514C62.8991 64.5283 63.2728 64.4668 63.6875 64.4668C64.1797 64.4668 64.6172 64.5511 65 64.7197C65.3828 64.8838 65.6859 65.1458 65.9092 65.5059C66.1325 65.8659 66.2441 66.333 66.2441 66.9072V70.2021C66.2441 70.6169 66.2646 70.9541 66.3057 71.2139C66.3512 71.4736 66.4173 71.6969 66.5039 71.8838V72H64.5762C64.4896 71.7949 64.4235 71.5397 64.3779 71.2344C64.3369 70.9245 64.3164 70.6123 64.3164 70.2979ZM64.5488 67.4814L64.5557 68.6299H63.8516C63.6693 68.6299 63.5098 68.6595 63.373 68.7188C63.2409 68.778 63.1292 68.8623 63.0381 68.9717C62.9469 69.0765 62.8786 69.1995 62.833 69.3408C62.792 69.4821 62.7715 69.6325 62.7715 69.792C62.7715 69.9697 62.7965 70.1201 62.8467 70.2432C62.8968 70.3662 62.972 70.4596 63.0723 70.5234C63.1725 70.5872 63.291 70.6191 63.4277 70.6191C63.6374 70.6191 63.8197 70.5758 63.9746 70.4893C64.1296 70.4027 64.2435 70.2979 64.3164 70.1748C64.3939 70.0518 64.4189 69.9378 64.3916 69.833L64.8291 70.5781C64.7744 70.7467 64.6992 70.9222 64.6035 71.1045C64.5124 71.2868 64.3962 71.4554 64.2549 71.6104C64.1136 71.7653 63.9382 71.8929 63.7285 71.9932C63.5234 72.0889 63.2796 72.1367 62.9971 72.1367C62.6006 72.1367 62.2383 72.0456 61.9102 71.8633C61.582 71.681 61.3223 71.4258 61.1309 71.0977C60.944 70.7695 60.8506 70.3799 60.8506 69.9287C60.8506 69.555 60.9098 69.2178 61.0283 68.917C61.1514 68.6117 61.3337 68.3542 61.5752 68.1445C61.8167 67.9303 62.1221 67.7663 62.4912 67.6523C62.8604 67.5384 63.2933 67.4814 63.79 67.4814H64.5488ZM69.5732 66.251V72H67.6592V64.6035H69.4639L69.5732 66.251ZM71.3164 64.5488L71.2891 66.4561C71.2025 66.4378 71.0977 66.4242 70.9746 66.415C70.8561 66.4059 70.7513 66.4014 70.6602 66.4014C70.446 66.4014 70.2637 66.4355 70.1133 66.5039C69.9629 66.5677 69.8376 66.6657 69.7373 66.7979C69.6416 66.9255 69.5687 67.085 69.5186 67.2764C69.4684 67.4678 69.4388 67.6842 69.4297 67.9258L69.0674 67.7891C69.0674 67.306 69.1038 66.8639 69.1768 66.4629C69.2542 66.0573 69.3682 65.7064 69.5186 65.4102C69.6689 65.1094 69.849 64.877 70.0586 64.7129C70.2728 64.5488 70.5143 64.4668 70.7832 64.4668C70.8743 64.4668 70.9701 64.4759 71.0703 64.4941C71.1751 64.5078 71.2572 64.526 71.3164 64.5488ZM75.5752 70.0039C75.5752 69.8763 75.5319 69.7624 75.4453 69.6621C75.3587 69.5618 75.222 69.4593 75.0352 69.3545C74.8483 69.2451 74.5999 69.1243 74.29 68.9922C73.9528 68.8555 73.6543 68.7142 73.3945 68.5684C73.1348 68.4225 72.9137 68.2607 72.7314 68.083C72.5537 67.9053 72.4193 67.7025 72.3281 67.4746C72.237 67.2467 72.1914 66.987 72.1914 66.6953C72.1914 66.3809 72.2484 66.0915 72.3623 65.8271C72.4808 65.5583 72.6494 65.3236 72.8682 65.123C73.0869 64.918 73.3535 64.7585 73.668 64.6445C73.987 64.526 74.3447 64.4668 74.7412 64.4668C75.2972 64.4668 75.7734 64.5648 76.1699 64.7607C76.571 64.9521 76.8786 65.221 77.0928 65.5674C77.307 65.9137 77.4141 66.3171 77.4141 66.7773H75.5C75.5 66.6133 75.4749 66.4674 75.4248 66.3398C75.3747 66.2077 75.2926 66.1051 75.1787 66.0322C75.0693 65.9593 74.9212 65.9229 74.7344 65.9229C74.5977 65.9229 74.4746 65.9525 74.3652 66.0117C74.2604 66.071 74.1761 66.1507 74.1123 66.251C74.0531 66.3467 74.0234 66.4606 74.0234 66.5928C74.0234 66.693 74.0439 66.7819 74.085 66.8594C74.1305 66.9368 74.2012 67.012 74.2969 67.085C74.3926 67.1579 74.5202 67.2354 74.6797 67.3174C74.8438 67.3949 75.0443 67.4814 75.2812 67.5771C75.7734 67.7594 76.1768 67.9554 76.4912 68.165C76.8102 68.3747 77.0472 68.6208 77.2021 68.9033C77.3571 69.1813 77.4346 69.5254 77.4346 69.9355C77.4346 70.2637 77.3708 70.5622 77.2432 70.8311C77.1201 71.0999 76.9401 71.3324 76.7031 71.5283C76.4661 71.7243 76.1813 71.8747 75.8486 71.9795C75.5205 72.0843 75.1536 72.1367 74.748 72.1367C74.151 72.1367 73.6475 72.0182 73.2373 71.7812C72.8271 71.5443 72.5173 71.2412 72.3076 70.8721C72.098 70.4984 71.9932 70.111 71.9932 69.71H73.8115C73.8206 69.9561 73.8662 70.1497 73.9482 70.291C74.0348 70.4277 74.151 70.5234 74.2969 70.5781C74.4427 70.6328 74.6045 70.6602 74.7822 70.6602C74.96 70.6602 75.1058 70.6374 75.2197 70.5918C75.3382 70.5417 75.4271 70.4665 75.4863 70.3662C75.5456 70.2614 75.5752 70.1406 75.5752 70.0039ZM80.5654 61.4932V72H78.6514V61.4932H80.5654ZM84.4551 64.6035L81.8506 68.2812L80.2852 70.0381L79.6084 68.582L80.8115 66.8252L82.1719 64.6035H84.4551ZM82.459 72L80.8457 68.6025L82.165 67.3857L84.6533 72H82.459ZM88.1943 72.1367C87.6885 72.1367 87.2396 72.0592 86.8477 71.9043C86.4603 71.7493 86.1322 71.526 85.8633 71.2344C85.5944 70.9382 85.3893 70.5804 85.248 70.1611C85.1068 69.7419 85.0361 69.2633 85.0361 68.7256V68.1172C85.0361 67.5156 85.1045 66.9893 85.2412 66.5381C85.3779 66.0824 85.5716 65.6995 85.8223 65.3896C86.0729 65.0798 86.3805 64.8496 86.7451 64.6992C87.1143 64.5443 87.5312 64.4668 87.9961 64.4668C88.4609 64.4668 88.8688 64.5443 89.2197 64.6992C89.5752 64.8496 89.8691 65.0775 90.1016 65.3828C90.334 65.6836 90.5094 66.0573 90.6279 66.5039C90.7464 66.9505 90.8057 67.4701 90.8057 68.0625V68.9375H85.8496V67.5908H88.9258V67.4199C88.9258 67.1191 88.8939 66.8685 88.8301 66.668C88.7663 66.4629 88.666 66.3102 88.5293 66.21C88.3926 66.1097 88.2103 66.0596 87.9824 66.0596C87.791 66.0596 87.6292 66.0983 87.4971 66.1758C87.3649 66.2533 87.2601 66.374 87.1826 66.5381C87.1051 66.7021 87.0482 66.9163 87.0117 67.1807C86.9753 67.4404 86.957 67.7526 86.957 68.1172V68.7256C86.957 69.0674 86.9867 69.3545 87.0459 69.5869C87.1051 69.8148 87.1917 70.0016 87.3057 70.1475C87.4242 70.2887 87.5677 70.3913 87.7363 70.4551C87.9049 70.5143 88.1009 70.5439 88.3242 70.5439C88.6615 70.5439 88.9645 70.4847 89.2334 70.3662C89.5068 70.2432 89.7393 70.0768 89.9307 69.8672L90.6963 71.0293C90.5641 71.2025 90.3818 71.3757 90.1494 71.5488C89.917 71.722 89.639 71.8633 89.3154 71.9727C88.9919 72.082 88.6182 72.1367 88.1943 72.1367ZM97.0537 66.0254V74.8438H95.1465V64.6035H96.9102L97.0537 66.0254ZM100.896 68.0488V68.541C100.896 69.1198 100.845 69.6325 100.745 70.0791C100.645 70.5212 100.494 70.8971 100.294 71.207C100.098 71.5124 99.8519 71.7448 99.5557 71.9043C99.2594 72.0592 98.9131 72.1367 98.5166 72.1367C98.1475 72.1367 97.8285 72.0501 97.5596 71.877C97.2952 71.6992 97.0719 71.4554 96.8896 71.1455C96.7074 70.8356 96.5615 70.4733 96.4521 70.0586C96.3428 69.6439 96.2585 69.1995 96.1992 68.7256V67.96C96.2539 67.4541 96.3337 66.9893 96.4385 66.5654C96.5433 66.137 96.6868 65.7656 96.8691 65.4512C97.056 65.1367 97.2816 64.8952 97.5459 64.7266C97.8148 64.5534 98.1338 64.4668 98.5029 64.4668C98.904 64.4668 99.2526 64.5397 99.5488 64.6855C99.8496 64.8314 100.098 65.0524 100.294 65.3486C100.494 65.6403 100.645 66.0117 100.745 66.4629C100.845 66.9141 100.896 67.4427 100.896 68.0488ZM98.9814 68.541V68.0488C98.9814 67.6934 98.9609 67.3903 98.9199 67.1396C98.8835 66.889 98.8242 66.6839 98.7422 66.5244C98.6602 66.3649 98.5531 66.2487 98.4209 66.1758C98.2887 66.1029 98.127 66.0664 97.9355 66.0664C97.7487 66.0664 97.5846 66.1029 97.4434 66.1758C97.3066 66.2487 97.195 66.3558 97.1084 66.4971C97.0218 66.6338 96.9557 66.8024 96.9102 67.0029C96.8646 67.1989 96.8395 67.4222 96.835 67.6729V69.0127C96.8441 69.3089 96.8828 69.571 96.9512 69.7988C97.0241 70.0267 97.1403 70.209 97.2998 70.3457C97.4593 70.4779 97.6758 70.5439 97.9492 70.5439C98.1452 70.5439 98.307 70.5029 98.4346 70.4209C98.5667 70.3389 98.6738 70.2158 98.7559 70.0518C98.8379 69.8877 98.8949 69.6803 98.9268 69.4297C98.9632 69.179 98.9814 68.8828 98.9814 68.541ZM104.081 61.5V72H102.16V61.5H104.081ZM105.38 68.5547V68.0557C105.38 67.4769 105.448 66.9642 105.585 66.5176C105.726 66.071 105.927 65.6973 106.187 65.3965C106.446 65.0911 106.758 64.861 107.123 64.7061C107.492 64.5465 107.905 64.4668 108.36 64.4668C108.821 64.4668 109.233 64.5465 109.598 64.7061C109.967 64.861 110.281 65.0911 110.541 65.3965C110.805 65.6973 111.008 66.071 111.149 66.5176C111.291 66.9642 111.361 67.4769 111.361 68.0557V68.5547C111.361 69.1289 111.291 69.6393 111.149 70.0859C111.008 70.5326 110.805 70.9085 110.541 71.2139C110.281 71.5192 109.969 71.7493 109.604 71.9043C109.24 72.0592 108.83 72.1367 108.374 72.1367C107.918 72.1367 107.506 72.0592 107.137 71.9043C106.772 71.7493 106.458 71.5192 106.193 71.2139C105.929 70.9085 105.726 70.5326 105.585 70.0859C105.448 69.6393 105.38 69.1289 105.38 68.5547ZM107.294 68.0557V68.5547C107.294 68.8965 107.317 69.1927 107.362 69.4434C107.412 69.694 107.483 69.9014 107.574 70.0654C107.67 70.2295 107.784 70.3503 107.916 70.4277C108.048 70.5052 108.201 70.5439 108.374 70.5439C108.547 70.5439 108.702 70.5052 108.839 70.4277C108.976 70.3503 109.087 70.2295 109.174 70.0654C109.265 69.9014 109.331 69.694 109.372 69.4434C109.418 69.1927 109.44 68.8965 109.44 68.5547V68.0557C109.44 67.723 109.415 67.4313 109.365 67.1807C109.315 66.9255 109.244 66.7181 109.153 66.5586C109.062 66.3945 108.948 66.2715 108.812 66.1895C108.679 66.1029 108.529 66.0596 108.36 66.0596C108.192 66.0596 108.041 66.1029 107.909 66.1895C107.782 66.2715 107.67 66.3945 107.574 66.5586C107.483 66.7181 107.412 66.9255 107.362 67.1807C107.317 67.4313 107.294 67.723 107.294 68.0557ZM115.244 70.5439C115.422 70.5439 115.575 70.5075 115.702 70.4346C115.834 70.3617 115.935 70.2432 116.003 70.0791C116.071 69.915 116.108 69.7031 116.112 69.4434H117.91C117.91 69.9993 117.792 70.4801 117.555 70.8857C117.322 71.2868 117.008 71.5967 116.611 71.8154C116.219 72.0296 115.775 72.1367 115.278 72.1367C114.782 72.1367 114.349 72.057 113.979 71.8975C113.61 71.738 113.305 71.5055 113.063 71.2002C112.826 70.8949 112.646 70.5234 112.523 70.0859C112.405 69.6439 112.346 69.138 112.346 68.5684V68.0283C112.346 67.4678 112.405 66.9665 112.523 66.5244C112.646 66.0824 112.826 65.7087 113.063 65.4033C113.305 65.098 113.608 64.8656 113.973 64.7061C114.342 64.5465 114.775 64.4668 115.271 64.4668C115.805 64.4668 116.267 64.5785 116.659 64.8018C117.051 65.0205 117.356 65.3441 117.575 65.7725C117.799 66.2008 117.91 66.7295 117.91 67.3584H116.112C116.108 67.0758 116.074 66.8411 116.01 66.6543C115.951 66.4629 115.857 66.3171 115.729 66.2168C115.606 66.112 115.442 66.0596 115.237 66.0596C115.023 66.0596 114.85 66.1051 114.718 66.1963C114.59 66.2829 114.492 66.4105 114.424 66.5791C114.36 66.7432 114.317 66.9482 114.294 67.1943C114.271 67.4404 114.26 67.7184 114.26 68.0283V68.5684C114.26 68.901 114.269 69.1904 114.287 69.4365C114.31 69.6781 114.353 69.8831 114.417 70.0518C114.485 70.2158 114.583 70.3389 114.711 70.4209C114.843 70.5029 115.021 70.5439 115.244 70.5439ZM114.26 61.4932L115.046 62.4639L115.839 61.4932H117.466V61.5615L115.647 63.4824H114.465L112.633 61.5547V61.4932H114.26ZM121.021 64.6035V72H119.1V64.6035H121.021ZM119.011 62.6895C119.011 62.3932 119.104 62.1494 119.291 61.958C119.482 61.762 119.738 61.6641 120.057 61.6641C120.38 61.6641 120.635 61.762 120.822 61.958C121.009 62.1494 121.103 62.3932 121.103 62.6895C121.103 62.9811 121.007 63.2249 120.815 63.4209C120.629 63.6123 120.378 63.708 120.063 63.708C119.74 63.708 119.482 63.6123 119.291 63.4209C119.104 63.2249 119.011 62.9811 119.011 62.6895ZM125.211 70.5439C125.389 70.5439 125.541 70.5075 125.669 70.4346C125.801 70.3617 125.901 70.2432 125.97 70.0791C126.038 69.915 126.075 69.7031 126.079 69.4434H127.877C127.877 69.9993 127.758 70.4801 127.521 70.8857C127.289 71.2868 126.975 71.5967 126.578 71.8154C126.186 72.0296 125.742 72.1367 125.245 72.1367C124.748 72.1367 124.315 72.057 123.946 71.8975C123.577 71.738 123.272 71.5055 123.03 71.2002C122.793 70.8949 122.613 70.5234 122.49 70.0859C122.372 69.6439 122.312 69.138 122.312 68.5684V68.0283C122.312 67.4678 122.372 66.9665 122.49 66.5244C122.613 66.0824 122.793 65.7087 123.03 65.4033C123.272 65.098 123.575 64.8656 123.939 64.7061C124.309 64.5465 124.742 64.4668 125.238 64.4668C125.771 64.4668 126.234 64.5785 126.626 64.8018C127.018 65.0205 127.323 65.3441 127.542 65.7725C127.765 66.2008 127.877 66.7295 127.877 67.3584H126.079C126.075 67.0758 126.04 66.8411 125.977 66.6543C125.917 66.4629 125.824 66.3171 125.696 66.2168C125.573 66.112 125.409 66.0596 125.204 66.0596C124.99 66.0596 124.817 66.1051 124.685 66.1963C124.557 66.2829 124.459 66.4105 124.391 66.5791C124.327 66.7432 124.284 66.9482 124.261 67.1943C124.238 67.4404 124.227 67.7184 124.227 68.0283V68.5684C124.227 68.901 124.236 69.1904 124.254 69.4365C124.277 69.6781 124.32 69.8831 124.384 70.0518C124.452 70.2158 124.55 70.3389 124.678 70.4209C124.81 70.5029 124.988 70.5439 125.211 70.5439ZM131.958 72.1367C131.452 72.1367 131.003 72.0592 130.611 71.9043C130.224 71.7493 129.896 71.526 129.627 71.2344C129.358 70.9382 129.153 70.5804 129.012 70.1611C128.87 69.7419 128.8 69.2633 128.8 68.7256V68.1172C128.8 67.5156 128.868 66.9893 129.005 66.5381C129.142 66.0824 129.335 65.6995 129.586 65.3896C129.837 65.0798 130.144 64.8496 130.509 64.6992C130.878 64.5443 131.295 64.4668 131.76 64.4668C132.225 64.4668 132.632 64.5443 132.983 64.6992C133.339 64.8496 133.633 65.0775 133.865 65.3828C134.098 65.6836 134.273 66.0573 134.392 66.5039C134.51 66.9505 134.569 67.4701 134.569 68.0625V68.9375H129.613V67.5908H132.689V67.4199C132.689 67.1191 132.658 66.8685 132.594 66.668C132.53 66.4629 132.43 66.3102 132.293 66.21C132.156 66.1097 131.974 66.0596 131.746 66.0596C131.555 66.0596 131.393 66.0983 131.261 66.1758C131.129 66.2533 131.024 66.374 130.946 66.5381C130.869 66.7021 130.812 66.9163 130.775 67.1807C130.739 67.4404 130.721 67.7526 130.721 68.1172V68.7256C130.721 69.0674 130.75 69.3545 130.81 69.5869C130.869 69.8148 130.955 70.0016 131.069 70.1475C131.188 70.2887 131.331 70.3913 131.5 70.4551C131.669 70.5143 131.865 70.5439 132.088 70.5439C132.425 70.5439 132.728 70.4847 132.997 70.3662C133.271 70.2432 133.503 70.0768 133.694 69.8672L134.46 71.0293C134.328 71.2025 134.146 71.3757 133.913 71.5488C133.681 71.722 133.403 71.8633 133.079 71.9727C132.756 72.082 132.382 72.1367 131.958 72.1367Z" fill="url(#paint0_linear_363_3306)"/>
<path d="M378.198 62.0469V72H376.264L373.14 65.7725V72H371.239V62.0469H373.146L376.298 68.3428V62.0469H378.198ZM382.977 70.2979V66.8799C382.977 66.6566 382.949 66.4788 382.895 66.3467C382.844 66.2145 382.767 66.1188 382.662 66.0596C382.562 65.9958 382.439 65.9639 382.293 65.9639C382.129 65.9639 381.992 65.998 381.883 66.0664C381.773 66.1348 381.691 66.2327 381.637 66.3604C381.587 66.488 381.562 66.6406 381.562 66.8184H379.641C379.641 66.4993 379.702 66.1986 379.825 65.916C379.948 65.6289 380.128 65.3783 380.365 65.1641C380.607 64.9453 380.894 64.7744 381.227 64.6514C381.559 64.5283 381.933 64.4668 382.348 64.4668C382.84 64.4668 383.277 64.5511 383.66 64.7197C384.043 64.8838 384.346 65.1458 384.569 65.5059C384.793 65.8659 384.904 66.333 384.904 66.9072V70.2021C384.904 70.6169 384.925 70.9541 384.966 71.2139C385.011 71.4736 385.077 71.6969 385.164 71.8838V72H383.236C383.15 71.7949 383.084 71.5397 383.038 71.2344C382.997 70.9245 382.977 70.6123 382.977 70.2979ZM383.209 67.4814L383.216 68.6299H382.512C382.329 68.6299 382.17 68.6595 382.033 68.7188C381.901 68.778 381.789 68.8623 381.698 68.9717C381.607 69.0765 381.539 69.1995 381.493 69.3408C381.452 69.4821 381.432 69.6325 381.432 69.792C381.432 69.9697 381.457 70.1201 381.507 70.2432C381.557 70.3662 381.632 70.4596 381.732 70.5234C381.833 70.5872 381.951 70.6191 382.088 70.6191C382.298 70.6191 382.48 70.5758 382.635 70.4893C382.79 70.4027 382.904 70.2979 382.977 70.1748C383.054 70.0518 383.079 69.9378 383.052 69.833L383.489 70.5781C383.435 70.7467 383.359 70.9222 383.264 71.1045C383.173 71.2868 383.056 71.4554 382.915 71.6104C382.774 71.7653 382.598 71.8929 382.389 71.9932C382.184 72.0889 381.94 72.1367 381.657 72.1367C381.261 72.1367 380.898 72.0456 380.57 71.8633C380.242 71.681 379.982 71.4258 379.791 71.0977C379.604 70.7695 379.511 70.3799 379.511 69.9287C379.511 69.555 379.57 69.2178 379.688 68.917C379.812 68.6117 379.994 68.3542 380.235 68.1445C380.477 67.9303 380.782 67.7663 381.151 67.6523C381.521 67.5384 381.953 67.4814 382.45 67.4814H383.209ZM388.233 66.0254V74.8438H386.326V64.6035H388.09L388.233 66.0254ZM392.075 68.0488V68.541C392.075 69.1198 392.025 69.6325 391.925 70.0791C391.825 70.5212 391.674 70.8971 391.474 71.207C391.278 71.5124 391.032 71.7448 390.735 71.9043C390.439 72.0592 390.093 72.1367 389.696 72.1367C389.327 72.1367 389.008 72.0501 388.739 71.877C388.475 71.6992 388.252 71.4554 388.069 71.1455C387.887 70.8356 387.741 70.4733 387.632 70.0586C387.522 69.6439 387.438 69.1995 387.379 68.7256V67.96C387.434 67.4541 387.513 66.9893 387.618 66.5654C387.723 66.137 387.867 65.7656 388.049 65.4512C388.236 65.1367 388.461 64.8952 388.726 64.7266C388.994 64.5534 389.313 64.4668 389.683 64.4668C390.084 64.4668 390.432 64.5397 390.729 64.6855C391.029 64.8314 391.278 65.0524 391.474 65.3486C391.674 65.6403 391.825 66.0117 391.925 66.4629C392.025 66.9141 392.075 67.4427 392.075 68.0488ZM390.161 68.541V68.0488C390.161 67.6934 390.141 67.3903 390.1 67.1396C390.063 66.889 390.004 66.6839 389.922 66.5244C389.84 66.3649 389.733 66.2487 389.601 66.1758C389.468 66.1029 389.307 66.0664 389.115 66.0664C388.928 66.0664 388.764 66.1029 388.623 66.1758C388.486 66.2487 388.375 66.3558 388.288 66.4971C388.201 66.6338 388.135 66.8024 388.09 67.0029C388.044 67.1989 388.019 67.4222 388.015 67.6729V69.0127C388.024 69.3089 388.062 69.571 388.131 69.7988C388.204 70.0267 388.32 70.209 388.479 70.3457C388.639 70.4779 388.855 70.5439 389.129 70.5439C389.325 70.5439 389.487 70.5029 389.614 70.4209C389.746 70.3389 389.854 70.2158 389.936 70.0518C390.018 69.8877 390.075 69.6803 390.106 69.4297C390.143 69.179 390.161 68.8828 390.161 68.541ZM395.261 61.5V72H393.34V61.5H395.261ZM400.039 70.2979V66.8799C400.039 66.6566 400.012 66.4788 399.957 66.3467C399.907 66.2145 399.829 66.1188 399.725 66.0596C399.624 65.9958 399.501 65.9639 399.355 65.9639C399.191 65.9639 399.055 65.998 398.945 66.0664C398.836 66.1348 398.754 66.2327 398.699 66.3604C398.649 66.488 398.624 66.6406 398.624 66.8184H396.703C396.703 66.4993 396.765 66.1986 396.888 65.916C397.011 65.6289 397.191 65.3783 397.428 65.1641C397.669 64.9453 397.956 64.7744 398.289 64.6514C398.622 64.5283 398.995 64.4668 399.41 64.4668C399.902 64.4668 400.34 64.5511 400.723 64.7197C401.105 64.8838 401.409 65.1458 401.632 65.5059C401.855 65.8659 401.967 66.333 401.967 66.9072V70.2021C401.967 70.6169 401.987 70.9541 402.028 71.2139C402.074 71.4736 402.14 71.6969 402.227 71.8838V72H400.299C400.212 71.7949 400.146 71.5397 400.101 71.2344C400.06 70.9245 400.039 70.6123 400.039 70.2979ZM400.271 67.4814L400.278 68.6299H399.574C399.392 68.6299 399.232 68.6595 399.096 68.7188C398.964 68.778 398.852 68.8623 398.761 68.9717C398.67 69.0765 398.601 69.1995 398.556 69.3408C398.515 69.4821 398.494 69.6325 398.494 69.792C398.494 69.9697 398.519 70.1201 398.569 70.2432C398.619 70.3662 398.695 70.4596 398.795 70.5234C398.895 70.5872 399.014 70.6191 399.15 70.6191C399.36 70.6191 399.542 70.5758 399.697 70.4893C399.852 70.4027 399.966 70.2979 400.039 70.1748C400.117 70.0518 400.142 69.9378 400.114 69.833L400.552 70.5781C400.497 70.7467 400.422 70.9222 400.326 71.1045C400.235 71.2868 400.119 71.4554 399.978 71.6104C399.836 71.7653 399.661 71.8929 399.451 71.9932C399.246 72.0889 399.002 72.1367 398.72 72.1367C398.323 72.1367 397.961 72.0456 397.633 71.8633C397.305 71.681 397.045 71.4258 396.854 71.0977C396.667 70.7695 396.573 70.3799 396.573 69.9287C396.573 69.555 396.632 69.2178 396.751 68.917C396.874 68.6117 397.056 68.3542 397.298 68.1445C397.539 67.9303 397.845 67.7663 398.214 67.6523C398.583 67.5384 399.016 67.4814 399.513 67.4814H400.271ZM406.608 64.6035V66.0459H402.835V64.6035H406.608ZM403.703 62.7783H405.61V69.7441C405.61 69.9492 405.631 70.1064 405.672 70.2158C405.713 70.3252 405.774 70.4027 405.856 70.4482C405.943 70.4893 406.057 70.5098 406.198 70.5098C406.294 70.5098 406.383 70.5052 406.465 70.4961C406.547 70.4824 406.608 70.4688 406.649 70.4551V71.9521C406.499 72.0114 406.34 72.057 406.171 72.0889C406.007 72.1208 405.811 72.1367 405.583 72.1367C405.2 72.1367 404.868 72.0638 404.585 71.918C404.307 71.7721 404.09 71.5397 403.936 71.2207C403.781 70.8971 403.703 70.4733 403.703 69.9492V62.7783ZM410.936 70.2979V66.8799C410.936 66.6566 410.908 66.4788 410.854 66.3467C410.803 66.2145 410.726 66.1188 410.621 66.0596C410.521 65.9958 410.398 65.9639 410.252 65.9639C410.088 65.9639 409.951 65.998 409.842 66.0664C409.732 66.1348 409.65 66.2327 409.596 66.3604C409.546 66.488 409.521 66.6406 409.521 66.8184H407.6C407.6 66.4993 407.661 66.1986 407.784 65.916C407.907 65.6289 408.087 65.3783 408.324 65.1641C408.566 64.9453 408.853 64.7744 409.186 64.6514C409.518 64.5283 409.892 64.4668 410.307 64.4668C410.799 64.4668 411.236 64.5511 411.619 64.7197C412.002 64.8838 412.305 65.1458 412.528 65.5059C412.752 65.8659 412.863 66.333 412.863 66.9072V70.2021C412.863 70.6169 412.884 70.9541 412.925 71.2139C412.97 71.4736 413.036 71.6969 413.123 71.8838V72H411.195C411.109 71.7949 411.043 71.5397 410.997 71.2344C410.956 70.9245 410.936 70.6123 410.936 70.2979ZM411.168 67.4814L411.175 68.6299H410.471C410.288 68.6299 410.129 68.6595 409.992 68.7188C409.86 68.778 409.748 68.8623 409.657 68.9717C409.566 69.0765 409.498 69.1995 409.452 69.3408C409.411 69.4821 409.391 69.6325 409.391 69.792C409.391 69.9697 409.416 70.1201 409.466 70.2432C409.516 70.3662 409.591 70.4596 409.691 70.5234C409.792 70.5872 409.91 70.6191 410.047 70.6191C410.257 70.6191 410.439 70.5758 410.594 70.4893C410.749 70.4027 410.863 70.2979 410.936 70.1748C411.013 70.0518 411.038 69.9378 411.011 69.833L411.448 70.5781C411.394 70.7467 411.318 70.9222 411.223 71.1045C411.132 71.2868 411.015 71.4554 410.874 71.6104C410.733 71.7653 410.557 71.8929 410.348 71.9932C410.143 72.0889 409.899 72.1367 409.616 72.1367C409.22 72.1367 408.857 72.0456 408.529 71.8633C408.201 71.681 407.941 71.4258 407.75 71.0977C407.563 70.7695 407.47 70.3799 407.47 69.9287C407.47 69.555 407.529 69.2178 407.647 68.917C407.771 68.6117 407.953 68.3542 408.194 68.1445C408.436 67.9303 408.741 67.7663 409.11 67.6523C409.479 67.5384 409.912 67.4814 410.409 67.4814H411.168Z" fill="url(#paint1_linear_363_3306)"/>
<path d="M676.489 63.4932H674.452V61.832H676.489C676.772 61.832 677.002 61.7682 677.18 61.6406C677.362 61.513 677.494 61.3376 677.576 61.1143C677.658 60.8864 677.699 60.6312 677.699 60.3486C677.699 60.0615 677.656 59.7949 677.569 59.5488C677.487 59.2982 677.357 59.0954 677.18 58.9404C677.007 58.7855 676.776 58.708 676.489 58.708H675.095V67H673.099V57.0469H676.489C677.159 57.0469 677.736 57.1882 678.219 57.4707C678.702 57.7533 679.071 58.1429 679.326 58.6396C679.586 59.1318 679.716 59.6969 679.716 60.335C679.716 60.9775 679.586 61.5358 679.326 62.0098C679.071 62.4792 678.702 62.8438 678.219 63.1035C677.736 63.3633 677.159 63.4932 676.489 63.4932ZM682.874 61.251V67H680.96V59.6035H682.765L682.874 61.251ZM684.617 59.5488L684.59 61.4561C684.503 61.4378 684.398 61.4242 684.275 61.415C684.157 61.4059 684.052 61.4014 683.961 61.4014C683.747 61.4014 683.564 61.4355 683.414 61.5039C683.264 61.5677 683.138 61.6657 683.038 61.7979C682.942 61.9255 682.869 62.085 682.819 62.2764C682.769 62.4678 682.74 62.6842 682.73 62.9258L682.368 62.7891C682.368 62.306 682.405 61.8639 682.478 61.4629C682.555 61.0573 682.669 60.7064 682.819 60.4102C682.97 60.1094 683.15 59.877 683.359 59.7129C683.574 59.5488 683.815 59.4668 684.084 59.4668C684.175 59.4668 684.271 59.4759 684.371 59.4941C684.476 59.5078 684.558 59.526 684.617 59.5488ZM685.13 63.5547V63.0557C685.13 62.4769 685.198 61.9642 685.335 61.5176C685.476 61.071 685.677 60.6973 685.937 60.3965C686.196 60.0911 686.508 59.861 686.873 59.7061C687.242 59.5465 687.655 59.4668 688.11 59.4668C688.571 59.4668 688.983 59.5465 689.348 59.7061C689.717 59.861 690.031 60.0911 690.291 60.3965C690.555 60.6973 690.758 61.071 690.899 61.5176C691.041 61.9642 691.111 62.4769 691.111 63.0557V63.5547C691.111 64.1289 691.041 64.6393 690.899 65.0859C690.758 65.5326 690.555 65.9085 690.291 66.2139C690.031 66.5192 689.719 66.7493 689.354 66.9043C688.99 67.0592 688.58 67.1367 688.124 67.1367C687.668 67.1367 687.256 67.0592 686.887 66.9043C686.522 66.7493 686.208 66.5192 685.943 66.2139C685.679 65.9085 685.476 65.5326 685.335 65.0859C685.198 64.6393 685.13 64.1289 685.13 63.5547ZM687.044 63.0557V63.5547C687.044 63.8965 687.067 64.1927 687.112 64.4434C687.162 64.694 687.233 64.9014 687.324 65.0654C687.42 65.2295 687.534 65.3503 687.666 65.4277C687.798 65.5052 687.951 65.5439 688.124 65.5439C688.297 65.5439 688.452 65.5052 688.589 65.4277C688.726 65.3503 688.837 65.2295 688.924 65.0654C689.015 64.9014 689.081 64.694 689.122 64.4434C689.168 64.1927 689.19 63.8965 689.19 63.5547V63.0557C689.19 62.723 689.165 62.4313 689.115 62.1807C689.065 61.9255 688.994 61.7181 688.903 61.5586C688.812 61.3945 688.698 61.2715 688.562 61.1895C688.429 61.1029 688.279 61.0596 688.11 61.0596C687.942 61.0596 687.791 61.1029 687.659 61.1895C687.532 61.2715 687.42 61.3945 687.324 61.5586C687.233 61.7181 687.162 61.9255 687.112 62.1807C687.067 62.4313 687.044 62.723 687.044 63.0557ZM694.393 65.5234L695.582 59.6035H697.578L695.548 67H694.352L694.393 65.5234ZM693.688 59.6035L694.898 65.5303L694.919 67H693.716L691.686 59.6035H693.688ZM698.59 59.6035H700.518V67.4102C700.518 67.9661 700.429 68.4355 700.251 68.8184C700.078 69.2012 699.827 69.4906 699.499 69.6865C699.171 69.887 698.774 69.9873 698.31 69.9873C698.159 69.9873 698.011 69.9782 697.865 69.96C697.719 69.9417 697.571 69.9121 697.421 69.8711L697.428 68.3125C697.519 68.3307 697.608 68.3444 697.694 68.3535C697.776 68.3626 697.858 68.3672 697.94 68.3672C698.086 68.3672 698.207 68.333 698.303 68.2646C698.398 68.2008 698.469 68.0983 698.515 67.957C698.565 67.8158 698.59 67.6335 698.59 67.4102V59.6035ZM698.46 57.6895C698.46 57.3932 698.556 57.1494 698.747 56.958C698.938 56.762 699.191 56.6641 699.506 56.6641C699.825 56.6641 700.08 56.762 700.271 56.958C700.463 57.1494 700.559 57.3932 700.559 57.6895C700.559 57.9811 700.463 58.2249 700.271 58.4209C700.08 58.6123 699.825 58.708 699.506 58.708C699.191 58.708 698.938 58.6123 698.747 58.4209C698.556 58.2249 698.46 57.9811 698.46 57.6895ZM704.913 67.1367C704.407 67.1367 703.958 67.0592 703.566 66.9043C703.179 66.7493 702.851 66.526 702.582 66.2344C702.313 65.9382 702.108 65.5804 701.967 65.1611C701.826 64.7419 701.755 64.2633 701.755 63.7256V63.1172C701.755 62.5156 701.823 61.9893 701.96 61.5381C702.097 61.0824 702.29 60.6995 702.541 60.3896C702.792 60.0798 703.099 59.8496 703.464 59.6992C703.833 59.5443 704.25 59.4668 704.715 59.4668C705.18 59.4668 705.588 59.5443 705.938 59.6992C706.294 59.8496 706.588 60.0775 706.82 60.3828C707.053 60.6836 707.228 61.0573 707.347 61.5039C707.465 61.9505 707.524 62.4701 707.524 63.0625V63.9375H702.568V62.5908H705.645V62.4199C705.645 62.1191 705.613 61.8685 705.549 61.668C705.485 61.4629 705.385 61.3102 705.248 61.21C705.111 61.1097 704.929 61.0596 704.701 61.0596C704.51 61.0596 704.348 61.0983 704.216 61.1758C704.084 61.2533 703.979 61.374 703.901 61.5381C703.824 61.7021 703.767 61.9163 703.73 62.1807C703.694 62.4404 703.676 62.7526 703.676 63.1172V63.7256C703.676 64.0674 703.705 64.3545 703.765 64.5869C703.824 64.8148 703.91 65.0016 704.024 65.1475C704.143 65.2887 704.286 65.3913 704.455 65.4551C704.624 65.5143 704.82 65.5439 705.043 65.5439C705.38 65.5439 705.683 65.4847 705.952 65.3662C706.226 65.2432 706.458 65.0768 706.649 64.8672L707.415 66.0293C707.283 66.2025 707.101 66.3757 706.868 66.5488C706.636 66.722 706.358 66.8633 706.034 66.9727C705.711 67.082 705.337 67.1367 704.913 67.1367ZM710.546 61.251V67H708.632V59.6035H710.437L710.546 61.251ZM712.289 59.5488L712.262 61.4561C712.175 61.4378 712.07 61.4242 711.947 61.415C711.829 61.4059 711.724 61.4014 711.633 61.4014C711.419 61.4014 711.236 61.4355 711.086 61.5039C710.936 61.5677 710.81 61.6657 710.71 61.7979C710.614 61.9255 710.541 62.085 710.491 62.2764C710.441 62.4678 710.411 62.6842 710.402 62.9258L710.04 62.7891C710.04 62.306 710.076 61.8639 710.149 61.4629C710.227 61.0573 710.341 60.7064 710.491 60.4102C710.642 60.1094 710.822 59.877 711.031 59.7129C711.245 59.5488 711.487 59.4668 711.756 59.4668C711.847 59.4668 711.943 59.4759 712.043 59.4941C712.148 59.5078 712.23 59.526 712.289 59.5488ZM716.322 65.2979V61.8799C716.322 61.6566 716.295 61.4788 716.24 61.3467C716.19 61.2145 716.113 61.1188 716.008 61.0596C715.908 60.9958 715.785 60.9639 715.639 60.9639C715.475 60.9639 715.338 60.998 715.229 61.0664C715.119 61.1348 715.037 61.2327 714.982 61.3604C714.932 61.488 714.907 61.6406 714.907 61.8184H712.986C712.986 61.4993 713.048 61.1986 713.171 60.916C713.294 60.6289 713.474 60.3783 713.711 60.1641C713.952 59.9453 714.24 59.7744 714.572 59.6514C714.905 59.5283 715.279 59.4668 715.693 59.4668C716.186 59.4668 716.623 59.5511 717.006 59.7197C717.389 59.8838 717.692 60.1458 717.915 60.5059C718.138 60.8659 718.25 61.333 718.25 61.9072V65.2021C718.25 65.6169 718.271 65.9541 718.312 66.2139C718.357 66.4736 718.423 66.6969 718.51 66.8838V67H716.582C716.495 66.7949 716.429 66.5397 716.384 66.2344C716.343 65.9245 716.322 65.6123 716.322 65.2979ZM716.555 62.4814L716.562 63.6299H715.857C715.675 63.6299 715.516 63.6595 715.379 63.7188C715.247 63.778 715.135 63.8623 715.044 63.9717C714.953 64.0765 714.884 64.1995 714.839 64.3408C714.798 64.4821 714.777 64.6325 714.777 64.792C714.777 64.9697 714.802 65.1201 714.853 65.2432C714.903 65.3662 714.978 65.4596 715.078 65.5234C715.178 65.5872 715.297 65.6191 715.434 65.6191C715.643 65.6191 715.826 65.5758 715.98 65.4893C716.135 65.4027 716.249 65.2979 716.322 65.1748C716.4 65.0518 716.425 64.9378 716.397 64.833L716.835 65.5781C716.78 65.7467 716.705 65.9222 716.609 66.1045C716.518 66.2868 716.402 66.4554 716.261 66.6104C716.119 66.7653 715.944 66.8929 715.734 66.9932C715.529 67.0889 715.285 67.1367 715.003 67.1367C714.606 67.1367 714.244 67.0456 713.916 66.8633C713.588 66.681 713.328 66.4258 713.137 66.0977C712.95 65.7695 712.856 65.3799 712.856 64.9287C712.856 64.555 712.916 64.2178 713.034 63.917C713.157 63.6117 713.34 63.3542 713.581 63.1445C713.823 62.9303 714.128 62.7663 714.497 62.6523C714.866 62.5384 715.299 62.4814 715.796 62.4814H716.555ZM724.901 59.6035V67H722.98V59.6035H724.901ZM722.892 57.6895C722.892 57.3932 722.985 57.1494 723.172 56.958C723.363 56.762 723.618 56.6641 723.938 56.6641C724.261 56.6641 724.516 56.762 724.703 56.958C724.89 57.1494 724.983 57.3932 724.983 57.6895C724.983 57.9811 724.888 58.2249 724.696 58.4209C724.509 58.6123 724.259 58.708 723.944 58.708C723.621 58.708 723.363 58.6123 723.172 58.4209C722.985 58.2249 722.892 57.9811 722.892 57.6895ZM678.062 75.0254V83.8438H676.154V73.6035H677.918L678.062 75.0254ZM681.903 77.0488V77.541C681.903 78.1198 681.853 78.6325 681.753 79.0791C681.653 79.5212 681.502 79.8971 681.302 80.207C681.106 80.5124 680.86 80.7448 680.563 80.9043C680.267 81.0592 679.921 81.1367 679.524 81.1367C679.155 81.1367 678.836 81.0501 678.567 80.877C678.303 80.6992 678.08 80.4554 677.897 80.1455C677.715 79.8356 677.569 79.4733 677.46 79.0586C677.351 78.6439 677.266 78.1995 677.207 77.7256V76.96C677.262 76.4541 677.341 75.9893 677.446 75.5654C677.551 75.137 677.695 74.7656 677.877 74.4512C678.064 74.1367 678.289 73.8952 678.554 73.7266C678.823 73.5534 679.142 73.4668 679.511 73.4668C679.912 73.4668 680.26 73.5397 680.557 73.6855C680.857 73.8314 681.106 74.0524 681.302 74.3486C681.502 74.6403 681.653 75.0117 681.753 75.4629C681.853 75.9141 681.903 76.4427 681.903 77.0488ZM679.989 77.541V77.0488C679.989 76.6934 679.969 76.3903 679.928 76.1396C679.891 75.889 679.832 75.6839 679.75 75.5244C679.668 75.3649 679.561 75.2487 679.429 75.1758C679.297 75.1029 679.135 75.0664 678.943 75.0664C678.757 75.0664 678.592 75.1029 678.451 75.1758C678.314 75.2487 678.203 75.3558 678.116 75.4971C678.03 75.6338 677.964 75.8024 677.918 76.0029C677.872 76.1989 677.847 76.4222 677.843 76.6729V78.0127C677.852 78.3089 677.891 78.571 677.959 78.7988C678.032 79.0267 678.148 79.209 678.308 79.3457C678.467 79.4779 678.684 79.5439 678.957 79.5439C679.153 79.5439 679.315 79.5029 679.442 79.4209C679.575 79.3389 679.682 79.2158 679.764 79.0518C679.846 78.8877 679.903 78.6803 679.935 78.4297C679.971 78.179 679.989 77.8828 679.989 77.541ZM685.089 70.5V81H683.168V70.5H685.089ZM689.867 79.2979V75.8799C689.867 75.6566 689.84 75.4788 689.785 75.3467C689.735 75.2145 689.658 75.1188 689.553 75.0596C689.452 74.9958 689.329 74.9639 689.184 74.9639C689.02 74.9639 688.883 74.998 688.773 75.0664C688.664 75.1348 688.582 75.2327 688.527 75.3604C688.477 75.488 688.452 75.6406 688.452 75.8184H686.531C686.531 75.4993 686.593 75.1986 686.716 74.916C686.839 74.6289 687.019 74.3783 687.256 74.1641C687.497 73.9453 687.785 73.7744 688.117 73.6514C688.45 73.5283 688.824 73.4668 689.238 73.4668C689.73 73.4668 690.168 73.5511 690.551 73.7197C690.934 73.8838 691.237 74.1458 691.46 74.5059C691.683 74.8659 691.795 75.333 691.795 75.9072V79.2021C691.795 79.6169 691.815 79.9541 691.856 80.2139C691.902 80.4736 691.968 80.6969 692.055 80.8838V81H690.127C690.04 80.7949 689.974 80.5397 689.929 80.2344C689.888 79.9245 689.867 79.6123 689.867 79.2979ZM690.1 76.4814L690.106 77.6299H689.402C689.22 77.6299 689.061 77.6595 688.924 77.7188C688.792 77.778 688.68 77.8623 688.589 77.9717C688.498 78.0765 688.429 78.1995 688.384 78.3408C688.343 78.4821 688.322 78.6325 688.322 78.792C688.322 78.9697 688.347 79.1201 688.397 79.2432C688.448 79.3662 688.523 79.4596 688.623 79.5234C688.723 79.5872 688.842 79.6191 688.979 79.6191C689.188 79.6191 689.37 79.5758 689.525 79.4893C689.68 79.4027 689.794 79.2979 689.867 79.1748C689.945 79.0518 689.97 78.9378 689.942 78.833L690.38 79.5781C690.325 79.7467 690.25 79.9222 690.154 80.1045C690.063 80.2868 689.947 80.4554 689.806 80.6104C689.664 80.7653 689.489 80.8929 689.279 80.9932C689.074 81.0889 688.83 81.1367 688.548 81.1367C688.151 81.1367 687.789 81.0456 687.461 80.8633C687.133 80.681 686.873 80.4258 686.682 80.0977C686.495 79.7695 686.401 79.3799 686.401 78.9287C686.401 78.555 686.461 78.2178 686.579 77.917C686.702 77.6117 686.884 77.3542 687.126 77.1445C687.368 76.9303 687.673 76.7663 688.042 76.6523C688.411 76.5384 688.844 76.4814 689.341 76.4814H690.1ZM695.883 79.5439C696.061 79.5439 696.213 79.5075 696.341 79.4346C696.473 79.3617 696.573 79.2432 696.642 79.0791C696.71 78.915 696.746 78.7031 696.751 78.4434H698.549C698.549 78.9993 698.43 79.4801 698.193 79.8857C697.961 80.2868 697.646 80.5967 697.25 80.8154C696.858 81.0296 696.414 81.1367 695.917 81.1367C695.42 81.1367 694.987 81.057 694.618 80.8975C694.249 80.738 693.944 80.5055 693.702 80.2002C693.465 79.8949 693.285 79.5234 693.162 79.0859C693.044 78.6439 692.984 78.138 692.984 77.5684V77.0283C692.984 76.4678 693.044 75.9665 693.162 75.5244C693.285 75.0824 693.465 74.7087 693.702 74.4033C693.944 74.098 694.247 73.8656 694.611 73.7061C694.98 73.5465 695.413 73.4668 695.91 73.4668C696.443 73.4668 696.906 73.5785 697.298 73.8018C697.69 74.0205 697.995 74.3441 698.214 74.7725C698.437 75.2008 698.549 75.7295 698.549 76.3584H696.751C696.746 76.0758 696.712 75.8411 696.648 75.6543C696.589 75.4629 696.496 75.3171 696.368 75.2168C696.245 75.112 696.081 75.0596 695.876 75.0596C695.662 75.0596 695.489 75.1051 695.356 75.1963C695.229 75.2829 695.131 75.4105 695.062 75.5791C694.999 75.7432 694.955 75.9482 694.933 76.1943C694.91 76.4404 694.898 76.7184 694.898 77.0283V77.5684C694.898 77.901 694.908 78.1904 694.926 78.4365C694.949 78.6781 694.992 78.8831 695.056 79.0518C695.124 79.2158 695.222 79.3389 695.35 79.4209C695.482 79.5029 695.66 79.5439 695.883 79.5439ZM694.748 72.6123L696.088 70.5H698.241L696.354 72.6123H694.748ZM702.91 79.2979V75.8799C702.91 75.6566 702.883 75.4788 702.828 75.3467C702.778 75.2145 702.701 75.1188 702.596 75.0596C702.495 74.9958 702.372 74.9639 702.227 74.9639C702.062 74.9639 701.926 74.998 701.816 75.0664C701.707 75.1348 701.625 75.2327 701.57 75.3604C701.52 75.488 701.495 75.6406 701.495 75.8184H699.574C699.574 75.4993 699.636 75.1986 699.759 74.916C699.882 74.6289 700.062 74.3783 700.299 74.1641C700.54 73.9453 700.827 73.7744 701.16 73.6514C701.493 73.5283 701.867 73.4668 702.281 73.4668C702.773 73.4668 703.211 73.5511 703.594 73.7197C703.977 73.8838 704.28 74.1458 704.503 74.5059C704.726 74.8659 704.838 75.333 704.838 75.9072V79.2021C704.838 79.6169 704.858 79.9541 704.899 80.2139C704.945 80.4736 705.011 80.6969 705.098 80.8838V81H703.17C703.083 80.7949 703.017 80.5397 702.972 80.2344C702.931 79.9245 702.91 79.6123 702.91 79.2979ZM703.143 76.4814L703.149 77.6299H702.445C702.263 77.6299 702.104 77.6595 701.967 77.7188C701.835 77.778 701.723 77.8623 701.632 77.9717C701.541 78.0765 701.472 78.1995 701.427 78.3408C701.386 78.4821 701.365 78.6325 701.365 78.792C701.365 78.9697 701.39 79.1201 701.44 79.2432C701.491 79.3662 701.566 79.4596 701.666 79.5234C701.766 79.5872 701.885 79.6191 702.021 79.6191C702.231 79.6191 702.413 79.5758 702.568 79.4893C702.723 79.4027 702.837 79.2979 702.91 79.1748C702.988 79.0518 703.013 78.9378 702.985 78.833L703.423 79.5781C703.368 79.7467 703.293 79.9222 703.197 80.1045C703.106 80.2868 702.99 80.4554 702.849 80.6104C702.707 80.7653 702.532 80.8929 702.322 80.9932C702.117 81.0889 701.873 81.1367 701.591 81.1367C701.194 81.1367 700.832 81.0456 700.504 80.8633C700.176 80.681 699.916 80.4258 699.725 80.0977C699.538 79.7695 699.444 79.3799 699.444 78.9287C699.444 78.555 699.504 78.2178 699.622 77.917C699.745 77.6117 699.927 77.3542 700.169 77.1445C700.41 76.9303 700.716 76.7663 701.085 76.6523C701.454 76.5384 701.887 76.4814 702.384 76.4814H703.143ZM708.133 75.1826V81H706.212V73.6035H708.01L708.133 75.1826ZM707.846 77.0488L707.333 77.0625C707.324 76.5065 707.376 76.0075 707.49 75.5654C707.609 75.1234 707.775 74.7474 707.989 74.4375C708.208 74.123 708.468 73.8838 708.769 73.7197C709.074 73.5511 709.413 73.4668 709.787 73.4668C710.074 73.4668 710.336 73.5169 710.573 73.6172C710.815 73.7174 711.022 73.877 711.195 74.0957C711.368 74.3145 711.503 74.6061 711.599 74.9707C711.694 75.3307 711.742 75.7728 711.742 76.2969V81H709.821V76.2832C709.821 75.9642 709.789 75.7181 709.726 75.5449C709.662 75.3672 709.566 75.2441 709.438 75.1758C709.311 75.1029 709.151 75.0664 708.96 75.0664C708.778 75.0664 708.616 75.1188 708.475 75.2236C708.333 75.3239 708.215 75.4629 708.119 75.6406C708.028 75.8184 707.957 76.028 707.907 76.2695C707.862 76.5111 707.841 76.7708 707.846 77.0488ZM713.232 73.6035H715.16V81.4102C715.16 81.9661 715.071 82.4355 714.894 82.8184C714.72 83.2012 714.47 83.4906 714.142 83.6865C713.813 83.887 713.417 83.9873 712.952 83.9873C712.802 83.9873 712.654 83.9782 712.508 83.96C712.362 83.9417 712.214 83.9121 712.063 83.8711L712.07 82.3125C712.161 82.3307 712.25 82.3444 712.337 82.3535C712.419 82.3626 712.501 82.3672 712.583 82.3672C712.729 82.3672 712.85 82.333 712.945 82.2646C713.041 82.2008 713.112 82.0983 713.157 81.957C713.207 81.8158 713.232 81.6335 713.232 81.4102V73.6035ZM713.103 71.6895C713.103 71.3932 713.198 71.1494 713.39 70.958C713.581 70.762 713.834 70.6641 714.148 70.6641C714.467 70.6641 714.723 70.762 714.914 70.958C715.105 71.1494 715.201 71.3932 715.201 71.6895C715.201 71.9811 715.105 72.2249 714.914 72.4209C714.723 72.6123 714.467 72.708 714.148 72.708C713.834 72.708 713.581 72.6123 713.39 72.4209C713.198 72.2249 713.103 71.9811 713.103 71.6895ZM719.556 81.1367C719.05 81.1367 718.601 81.0592 718.209 80.9043C717.822 80.7493 717.493 80.526 717.225 80.2344C716.956 79.9382 716.751 79.5804 716.609 79.1611C716.468 78.7419 716.397 78.2633 716.397 77.7256V77.1172C716.397 76.5156 716.466 75.9893 716.603 75.5381C716.739 75.0824 716.933 74.6995 717.184 74.3896C717.434 74.0798 717.742 73.8496 718.106 73.6992C718.476 73.5443 718.893 73.4668 719.357 73.4668C719.822 73.4668 720.23 73.5443 720.581 73.6992C720.937 73.8496 721.23 74.0775 721.463 74.3828C721.695 74.6836 721.871 75.0573 721.989 75.5039C722.108 75.9505 722.167 76.4701 722.167 77.0625V77.9375H717.211V76.5908H720.287V76.4199C720.287 76.1191 720.255 75.8685 720.191 75.668C720.128 75.4629 720.027 75.3102 719.891 75.21C719.754 75.1097 719.572 75.0596 719.344 75.0596C719.152 75.0596 718.991 75.0983 718.858 75.1758C718.726 75.2533 718.621 75.374 718.544 75.5381C718.466 75.7021 718.41 75.9163 718.373 76.1807C718.337 76.4404 718.318 76.7526 718.318 77.1172V77.7256C718.318 78.0674 718.348 78.3545 718.407 78.5869C718.466 78.8148 718.553 79.0016 718.667 79.1475C718.785 79.2887 718.929 79.3913 719.098 79.4551C719.266 79.5143 719.462 79.5439 719.686 79.5439C720.023 79.5439 720.326 79.4847 720.595 79.3662C720.868 79.2432 721.101 79.0768 721.292 78.8672L722.058 80.0293C721.925 80.2025 721.743 80.3757 721.511 80.5488C721.278 80.722 721 80.8633 720.677 80.9727C720.353 81.082 719.979 81.1367 719.556 81.1367Z" fill="url(#paint2_linear_363_3306)"/>
<path fill-rule="evenodd" clip-rule="evenodd" d="M376 33H83V31H376V33Z" fill="url(#paint3_linear_363_3306)"/>
<path fill-rule="evenodd" clip-rule="evenodd" d="M685 33H404V31H685V33Z" fill="url(#paint4_linear_363_3306)"/>
<g filter="url(#filter0_d_363_3306)">
<path d="M69 17C60.7125 17 54 23.7125 54 32C54 34.8125 54.7875 37.475 56.175 39.725C57.497 41.9468 59.3748 43.7861 61.6236 45.0617C63.8724 46.3373 66.4146 47.0053 69 47C74.475 47 79.2375 44.075 81.825 39.725C83.2125 37.475 84 34.8125 84 32C84 23.7125 77.2875 17 69 17ZM76.3875 30.7625L68.4 38.15C67.875 38.6375 67.1625 38.9 66.4875 38.9C65.775 38.9 65.0625 38.6375 64.5 38.075L60.7875 34.3625C60.2644 33.8332 59.9711 33.1191 59.9711 32.375C59.9711 31.6309 60.2644 30.9168 60.7875 30.3875C61.875 29.3 63.675 29.3 64.7625 30.3875L66.5625 32.1875L72.5625 26.6375C73.6875 25.5875 75.4875 25.6625 76.5375 26.7875C77.5875 27.9125 77.5125 29.7125 76.3875 30.7625Z" fill="url(#paint5_linear_363_3306)"/>
</g>
<g filter="url(#filter1_d_363_3306)">
<path d="M390 17C381.712 17 375 23.7125 375 32C375 34.8125 375.788 37.475 377.175 39.725C378.497 41.9468 380.375 43.7861 382.624 45.0617C384.872 46.3373 387.415 47.0053 390 47C395.475 47 400.238 44.075 402.825 39.725C404.213 37.475 405 34.8125 405 32C405 23.7125 398.288 17 390 17ZM397.387 30.7625L389.4 38.15C388.875 38.6375 388.162 38.9 387.487 38.9C386.775 38.9 386.062 38.6375 385.5 38.075L381.787 34.3625C381.264 33.8332 380.971 33.1191 380.971 32.375C380.971 31.6309 381.264 30.9168 381.787 30.3875C382.875 29.3 384.675 29.3 385.762 30.3875L387.562 32.1875L393.562 26.6375C394.687 25.5875 396.488 25.6625 397.538 26.7875C398.588 27.9125 398.512 29.7125 397.387 30.7625Z" fill="url(#paint6_linear_363_3306)"/>
</g>
<g filter="url(#filter2_d_363_3306)">
<path d="M697 17C688.712 17 682 23.7125 682 32C682 34.8125 682.788 37.475 684.175 39.725C685.497 41.9468 687.375 43.7861 689.624 45.0617C691.872 46.3373 694.415 47.0053 697 47C702.475 47 707.238 44.075 709.825 39.725C711.213 37.475 712 34.8125 712 32C712 23.7125 705.288 17 697 17ZM704.387 30.7625L696.4 38.15C695.875 38.6375 695.162 38.9 694.487 38.9C693.775 38.9 693.062 38.6375 692.5 38.075L688.787 34.3625C688.264 33.8332 687.971 33.1191 687.971 32.375C687.971 31.6309 688.264 30.9168 688.787 30.3875C689.875 29.3 691.675 29.3 692.762 30.3875L694.562 32.1875L700.562 26.6375C701.687 25.5875 703.488 25.6625 704.538 26.7875C705.588 27.9125 705.512 29.7125 704.387 30.7625Z" fill="url(#paint7_linear_363_3306)"/>
</g>
<defs>
<filter id="filter0_d_363_3306" x="37" y="0" width="74" height="74" filterUnits="userSpaceOnUse" color-interpolation-filters="sRGB">
<feFlood flood-opacity="0" result="BackgroundImageFix"/>
<feColorMatrix in="SourceAlpha" type="matrix" values="0 0 0 0 0 0 0 0 0 0 0 0 0 0 0 0 0 0 127 0" result="hardAlpha"/>
<feOffset dx="5" dy="5"/>
<feGaussianBlur stdDeviation="11"/>
<feComposite in2="hardAlpha" operator="out"/>
<feColorMatrix type="matrix" values="0 0 0 0 0.0392157 0 0 0 0 0.560784 0 0 0 0 0.309804 0 0 0 0.2 0"/>
<feBlend mode="normal" in2="BackgroundImageFix" result="effect1_dropShadow_363_3306"/>
<feBlend mode="normal" in="SourceGraphic" in2="effect1_dropShadow_363_3306" result="shape"/>
</filter>
<filter id="filter1_d_363_3306" x="358" y="0" width="74" height="74" filterUnits="userSpaceOnUse" color-interpolation-filters="sRGB">
<feFlood flood-opacity="0" result="BackgroundImageFix"/>
<feColorMatrix in="SourceAlpha" type="matrix" values="0 0 0 0 0 0 0 0 0 0 0 0 0 0 0 0 0 0 127 0" result="hardAlpha"/>
<feOffset dx="5" dy="5"/>
<feGaussianBlur stdDeviation="11"/>
<feComposite in2="hardAlpha" operator="out"/>
<feColorMatrix type="matrix" values="0 0 0 0 0.0392157 0 0 0 0 0.560784 0 0 0 0 0.309804 0 0 0 0.2 0"/>
<feBlend mode="normal" in2="BackgroundImageFix" result="effect1_dropShadow_363_3306"/>
<feBlend mode="normal" in="SourceGraphic" in2="effect1_dropShadow_363_3306" result="shape"/>
</filter>
<filter id="filter2_d_363_3306" x="665" y="0" width="74" height="74" filterUnits="userSpaceOnUse" color-interpolation-filters="sRGB">
<feFlood flood-opacity="0" result="BackgroundImageFix"/>
<feColorMatrix in="SourceAlpha" type="matrix" values="0 0 0 0 0 0 0 0 0 0 0 0 0 0 0 0 0 0 127 0" result="hardAlpha"/>
<feOffset dx="5" dy="5"/>
<feGaussianBlur stdDeviation="11"/>
<feComposite in2="hardAlpha" operator="out"/>
<feColorMatrix type="matrix" values="0 0 0 0 0.0392157 0 0 0 0 0.560784 0 0 0 0 0.309804 0 0 0 0.2 0"/>
<feBlend mode="normal" in2="BackgroundImageFix" result="effect1_dropShadow_363_3306"/>
<feBlend mode="normal" in="SourceGraphic" in2="effect1_dropShadow_363_3306" result="shape"/>
</filter>
<linearGradient id="paint0_linear_363_3306" x1="68.5" y1="77" x2="68.5" y2="57" gradientUnits="userSpaceOnUse">
<stop stop-color="#5CCC94"/>
<stop offset="1" stop-color="#8CCAAE"/>
</linearGradient>
<linearGradient id="paint1_linear_363_3306" x1="392" y1="77" x2="392" y2="57" gradientUnits="userSpaceOnUse">
<stop stop-color="#5CCC94"/>
<stop offset="1" stop-color="#8CCAAE"/>
</linearGradient>
<linearGradient id="paint2_linear_363_3306" x1="699" y1="83" x2="699" y2="55" gradientUnits="userSpaceOnUse">
<stop stop-color="#5CCC94"/>
<stop offset="1" stop-color="#8CCAAE"/>
</linearGradient>
<linearGradient id="paint3_linear_363_3306" x1="229.5" y1="33" x2="229.5" y2="31" gradientUnits="userSpaceOnUse">
<stop stop-color="#5CCC94"/>
<stop offset="1" stop-color="#8CCAAE"/>
</linearGradient>
<linearGradient id="paint4_linear_363_3306" x1="544.5" y1="33" x2="544.5" y2="31" gradientUnits="userSpaceOnUse">
<stop stop-color="#5CCC94"/>
<stop offset="1" stop-color="#8CCAAE"/>
</linearGradient>
<linearGradient id="paint5_linear_363_3306" x1="69" y1="47" x2="69" y2="17" gradientUnits="userSpaceOnUse">
<stop stop-color="#5CCC94"/>
<stop offset="1" stop-color="#8CCAAE"/>
</linearGradient>
<linearGradient id="paint6_linear_363_3306" x1="390" y1="47" x2="390" y2="17" gradientUnits="userSpaceOnUse">
<stop stop-color="#5CCC94"/>
<stop offset="1" stop-color="#8CCAAE"/>
</linearGradient>
<linearGradient id="paint7_linear_363_3306" x1="697" y1="47" x2="697" y2="17" gradientUnits="userSpaceOnUse">
<stop stop-color="#5CCC94"/>
<stop offset="1" stop-color="#8CCAAE"/>
</linearGradient>
</defs>
</svg>
