<svg width="733" height="97" viewBox="0 0 733 97" fill="none" xmlns="http://www.w3.org/2000/svg">
<path d="M37.2803 62.0469V72H35.3457L32.2217 65.7725V72H30.3213V62.0469H32.2285L35.3799 68.3428V62.0469H37.2803ZM42.373 70.2227V64.6035H44.2939V72H42.4893L42.373 70.2227ZM42.5918 68.6982L43.125 68.6846C43.125 69.1813 43.0771 69.6416 42.9814 70.0654C42.8857 70.4847 42.7422 70.8493 42.5508 71.1592C42.3594 71.4691 42.1201 71.7106 41.833 71.8838C41.5459 72.0524 41.2064 72.1367 40.8145 72.1367C40.5137 72.1367 40.2357 72.0866 39.9805 71.9863C39.7298 71.8815 39.5133 71.7197 39.3311 71.501C39.1488 71.2777 39.0052 70.9928 38.9004 70.6465C38.8001 70.2956 38.75 69.874 38.75 69.3818V64.6035H40.6709V69.4023C40.6709 69.6029 40.6891 69.776 40.7256 69.9219C40.762 70.0632 40.8122 70.1794 40.876 70.2705C40.9398 70.3617 41.015 70.4277 41.1016 70.4688C41.1882 70.5052 41.2861 70.5234 41.3955 70.5234C41.6963 70.5234 41.9333 70.446 42.1064 70.291C42.2842 70.1315 42.4095 69.915 42.4824 69.6416C42.5553 69.3636 42.5918 69.0492 42.5918 68.6982ZM47.6162 66.1348V72H45.6953V64.6035H47.5L47.6162 66.1348ZM47.3428 68.0488L46.8164 68.0625C46.8073 67.543 46.8529 67.0645 46.9531 66.627C47.0534 66.1895 47.2038 65.8089 47.4043 65.4854C47.6094 65.1618 47.8669 64.9111 48.1768 64.7334C48.4867 64.5557 48.849 64.4668 49.2637 64.4668C49.5326 64.4668 49.7809 64.5169 50.0088 64.6172C50.2367 64.7129 50.4349 64.8656 50.6035 65.0752C50.7721 65.2803 50.902 65.5492 50.9932 65.8818C51.0843 66.21 51.1299 66.6042 51.1299 67.0645V72H49.2158V67.2969C49.2158 66.9688 49.1839 66.7181 49.1201 66.5449C49.0563 66.3672 48.9652 66.2441 48.8467 66.1758C48.7282 66.1029 48.5824 66.0664 48.4092 66.0664C48.2269 66.0664 48.0674 66.1165 47.9307 66.2168C47.7939 66.3171 47.6823 66.4583 47.5957 66.6406C47.5137 66.8184 47.4499 67.028 47.4043 67.2695C47.3633 67.5111 47.3428 67.7708 47.3428 68.0488ZM50.9453 67.8574L50.2549 67.9463C50.2458 67.4587 50.2891 67.0052 50.3848 66.5859C50.4805 66.1621 50.6286 65.793 50.8291 65.4785C51.0296 65.1595 51.2803 64.9111 51.5811 64.7334C51.8864 64.5557 52.2396 64.4668 52.6406 64.4668C52.9414 64.4668 53.2148 64.5169 53.4609 64.6172C53.707 64.7174 53.9167 64.8792 54.0898 65.1025C54.2676 65.3213 54.402 65.6107 54.4932 65.9707C54.5889 66.3307 54.6367 66.7682 54.6367 67.2832V72H52.7158V67.29C52.7158 66.9574 52.6839 66.7021 52.6201 66.5244C52.5563 66.3467 52.4652 66.2259 52.3467 66.1621C52.2282 66.0983 52.0869 66.0664 51.9229 66.0664C51.7588 66.0664 51.6152 66.112 51.4922 66.2031C51.3737 66.2943 51.2734 66.4219 51.1914 66.5859C51.1094 66.7454 51.0479 66.9346 51.0068 67.1533C50.9658 67.3675 50.9453 67.6022 50.9453 67.8574ZM59.0596 72.1367C58.5537 72.1367 58.1048 72.0592 57.7129 71.9043C57.3255 71.7493 56.9974 71.526 56.7285 71.2344C56.4596 70.9382 56.2546 70.5804 56.1133 70.1611C55.972 69.7419 55.9014 69.2633 55.9014 68.7256V68.1172C55.9014 67.5156 55.9697 66.9893 56.1064 66.5381C56.2432 66.0824 56.4368 65.6995 56.6875 65.3896C56.9382 65.0798 57.2458 64.8496 57.6104 64.6992C57.9795 64.5443 58.3965 64.4668 58.8613 64.4668C59.3262 64.4668 59.734 64.5443 60.085 64.6992C60.4404 64.8496 60.7344 65.0775 60.9668 65.3828C61.1992 65.6836 61.3747 66.0573 61.4932 66.5039C61.6117 66.9505 61.6709 67.4701 61.6709 68.0625V68.9375H56.7148V67.5908H59.791V67.4199C59.791 67.1191 59.7591 66.8685 59.6953 66.668C59.6315 66.4629 59.5312 66.3102 59.3945 66.21C59.2578 66.1097 59.0755 66.0596 58.8477 66.0596C58.6562 66.0596 58.4945 66.0983 58.3623 66.1758C58.2301 66.2533 58.1253 66.374 58.0479 66.5381C57.9704 66.7021 57.9134 66.9163 57.877 67.1807C57.8405 67.4404 57.8223 67.7526 57.8223 68.1172V68.7256C57.8223 69.0674 57.8519 69.3545 57.9111 69.5869C57.9704 69.8148 58.057 70.0016 58.1709 70.1475C58.2894 70.2887 58.4329 70.3913 58.6016 70.4551C58.7702 70.5143 58.9661 70.5439 59.1895 70.5439C59.5267 70.5439 59.8298 70.4847 60.0986 70.3662C60.3721 70.2432 60.6045 70.0768 60.7959 69.8672L61.5615 71.0293C61.4294 71.2025 61.2471 71.3757 61.0146 71.5488C60.7822 71.722 60.5042 71.8633 60.1807 71.9727C59.8571 72.082 59.4834 72.1367 59.0596 72.1367ZM64.6924 66.251V72H62.7783V64.6035H64.583L64.6924 66.251ZM66.4355 64.5488L66.4082 66.4561C66.3216 66.4378 66.2168 66.4242 66.0938 66.415C65.9753 66.4059 65.8704 66.4014 65.7793 66.4014C65.5651 66.4014 65.3828 66.4355 65.2324 66.5039C65.082 66.5677 64.9567 66.6657 64.8564 66.7979C64.7607 66.9255 64.6878 67.085 64.6377 67.2764C64.5876 67.4678 64.5579 67.6842 64.5488 67.9258L64.1865 67.7891C64.1865 67.306 64.223 66.8639 64.2959 66.4629C64.3734 66.0573 64.4873 65.7064 64.6377 65.4102C64.7881 65.1094 64.9681 64.877 65.1777 64.7129C65.3919 64.5488 65.6335 64.4668 65.9023 64.4668C65.9935 64.4668 66.0892 64.4759 66.1895 64.4941C66.2943 64.5078 66.3763 64.526 66.4355 64.5488ZM73.8662 64.6035V66.0459H70.0928V64.6035H73.8662ZM70.9609 62.7783H72.8682V69.7441C72.8682 69.9492 72.8887 70.1064 72.9297 70.2158C72.9707 70.3252 73.0322 70.4027 73.1143 70.4482C73.2008 70.4893 73.3148 70.5098 73.4561 70.5098C73.5518 70.5098 73.6406 70.5052 73.7227 70.4961C73.8047 70.4824 73.8662 70.4688 73.9072 70.4551V71.9521C73.7568 72.0114 73.5973 72.057 73.4287 72.0889C73.2646 72.1208 73.0687 72.1367 72.8408 72.1367C72.458 72.1367 72.1253 72.0638 71.8428 71.918C71.5648 71.7721 71.3483 71.5397 71.1934 71.2207C71.0384 70.8971 70.9609 70.4733 70.9609 69.9492V62.7783ZM78.1934 70.2979V66.8799C78.1934 66.6566 78.166 66.4788 78.1113 66.3467C78.0612 66.2145 77.9837 66.1188 77.8789 66.0596C77.7786 65.9958 77.6556 65.9639 77.5098 65.9639C77.3457 65.9639 77.209 65.998 77.0996 66.0664C76.9902 66.1348 76.9082 66.2327 76.8535 66.3604C76.8034 66.488 76.7783 66.6406 76.7783 66.8184H74.8574C74.8574 66.4993 74.9189 66.1986 75.042 65.916C75.165 65.6289 75.3451 65.3783 75.582 65.1641C75.8236 64.9453 76.1107 64.7744 76.4434 64.6514C76.776 64.5283 77.1497 64.4668 77.5645 64.4668C78.0566 64.4668 78.4941 64.5511 78.877 64.7197C79.2598 64.8838 79.5628 65.1458 79.7861 65.5059C80.0094 65.8659 80.1211 66.333 80.1211 66.9072V70.2021C80.1211 70.6169 80.1416 70.9541 80.1826 71.2139C80.2282 71.4736 80.2943 71.6969 80.3809 71.8838V72H78.4531C78.3665 71.7949 78.3005 71.5397 78.2549 71.2344C78.2139 70.9245 78.1934 70.6123 78.1934 70.2979ZM78.4258 67.4814L78.4326 68.6299H77.7285C77.5462 68.6299 77.3867 68.6595 77.25 68.7188C77.1178 68.778 77.0062 68.8623 76.915 68.9717C76.8239 69.0765 76.7555 69.1995 76.71 69.3408C76.6689 69.4821 76.6484 69.6325 76.6484 69.792C76.6484 69.9697 76.6735 70.1201 76.7236 70.2432C76.7738 70.3662 76.849 70.4596 76.9492 70.5234C77.0495 70.5872 77.168 70.6191 77.3047 70.6191C77.5143 70.6191 77.6966 70.5758 77.8516 70.4893C78.0065 70.4027 78.1204 70.2979 78.1934 70.1748C78.2708 70.0518 78.2959 69.9378 78.2686 69.833L78.7061 70.5781C78.6514 70.7467 78.5762 70.9222 78.4805 71.1045C78.3893 71.2868 78.2731 71.4554 78.1318 71.6104C77.9906 71.7653 77.8151 71.8929 77.6055 71.9932C77.4004 72.0889 77.1566 72.1367 76.874 72.1367C76.4775 72.1367 76.1152 72.0456 75.7871 71.8633C75.459 71.681 75.1992 71.4258 75.0078 71.0977C74.821 70.7695 74.7275 70.3799 74.7275 69.9287C74.7275 69.555 74.7868 69.2178 74.9053 68.917C75.0283 68.6117 75.2106 68.3542 75.4521 68.1445C75.6937 67.9303 75.999 67.7663 76.3682 67.6523C76.7373 67.5384 77.1702 67.4814 77.667 67.4814H78.4258ZM81.543 61.5H83.4502V70.2842L83.3135 72H81.543V61.5ZM87.292 68.0557V68.541C87.292 69.1426 87.2441 69.6667 87.1484 70.1133C87.0573 70.5599 86.9137 70.9336 86.7178 71.2344C86.5264 71.5352 86.2803 71.7607 85.9795 71.9111C85.6787 72.0615 85.3232 72.1367 84.9131 72.1367C84.5439 72.1367 84.2272 72.0501 83.9629 71.877C83.6986 71.6992 83.4753 71.4554 83.293 71.1455C83.1152 70.8311 82.9694 70.4642 82.8555 70.0449C82.7461 69.6211 82.6663 69.1585 82.6162 68.6572V67.9395C82.6618 67.4473 82.7393 66.9893 82.8486 66.5654C82.9626 66.1416 83.1084 65.7747 83.2861 65.4648C83.4639 65.1504 83.6849 64.9066 83.9492 64.7334C84.2181 64.5557 84.5348 64.4668 84.8994 64.4668C85.3187 64.4668 85.6787 64.5443 85.9795 64.6992C86.2803 64.8496 86.5264 65.0752 86.7178 65.376C86.9137 65.6768 87.0573 66.0527 87.1484 66.5039C87.2441 66.9505 87.292 67.4678 87.292 68.0557ZM85.3848 68.541V68.0557C85.3848 67.7139 85.3711 67.4199 85.3438 67.1738C85.3164 66.9277 85.2663 66.7227 85.1934 66.5586C85.1204 66.3945 85.0156 66.2715 84.8789 66.1895C84.7467 66.1074 84.5713 66.0664 84.3525 66.0664C84.1566 66.0664 83.9925 66.1051 83.8604 66.1826C83.7282 66.2555 83.6143 66.3649 83.5186 66.5107C83.4274 66.652 83.359 66.8206 83.3135 67.0166C83.2725 67.208 83.2497 67.4199 83.2451 67.6523V68.9443C83.2497 69.2588 83.2884 69.5368 83.3613 69.7783C83.4342 70.0199 83.5505 70.2067 83.71 70.3389C83.874 70.471 84.0928 70.5371 84.3662 70.5371C84.5804 70.5371 84.7536 70.5007 84.8857 70.4277C85.0179 70.3548 85.1204 70.2386 85.1934 70.0791C85.2708 69.9196 85.321 69.7145 85.3438 69.4639C85.3711 69.2087 85.3848 68.901 85.3848 68.541ZM90.4775 61.5V72H88.5566V61.5H90.4775ZM94.0049 64.6035V72H92.084V64.6035H94.0049ZM91.9951 62.6895C91.9951 62.3932 92.0885 62.1494 92.2754 61.958C92.4668 61.762 92.722 61.6641 93.041 61.6641C93.3646 61.6641 93.6198 61.762 93.8066 61.958C93.9935 62.1494 94.0869 62.3932 94.0869 62.6895C94.0869 62.9811 93.9912 63.2249 93.7998 63.4209C93.613 63.6123 93.3623 63.708 93.0479 63.708C92.7243 63.708 92.4668 63.6123 92.2754 63.4209C92.0885 63.2249 91.9951 62.9811 91.9951 62.6895ZM98.1953 70.5439C98.373 70.5439 98.5257 70.5075 98.6533 70.4346C98.7855 70.3617 98.8857 70.2432 98.9541 70.0791C99.0225 69.915 99.0589 69.7031 99.0635 69.4434H100.861C100.861 69.9993 100.743 70.4801 100.506 70.8857C100.273 71.2868 99.959 71.5967 99.5625 71.8154C99.1706 72.0296 98.7262 72.1367 98.2295 72.1367C97.7327 72.1367 97.2998 72.057 96.9307 71.8975C96.5615 71.738 96.2562 71.5055 96.0146 71.2002C95.7777 70.8949 95.5977 70.5234 95.4746 70.0859C95.3561 69.6439 95.2969 69.138 95.2969 68.5684V68.0283C95.2969 67.4678 95.3561 66.9665 95.4746 66.5244C95.5977 66.0824 95.7777 65.7087 96.0146 65.4033C96.2562 65.098 96.5592 64.8656 96.9238 64.7061C97.293 64.5465 97.7259 64.4668 98.2227 64.4668C98.7559 64.4668 99.2184 64.5785 99.6104 64.8018C100.002 65.0205 100.308 65.3441 100.526 65.7725C100.75 66.2008 100.861 66.7295 100.861 67.3584H99.0635C99.0589 67.0758 99.0247 66.8411 98.9609 66.6543C98.9017 66.4629 98.8083 66.3171 98.6807 66.2168C98.5576 66.112 98.3936 66.0596 98.1885 66.0596C97.9743 66.0596 97.8011 66.1051 97.6689 66.1963C97.5413 66.2829 97.4434 66.4105 97.375 66.5791C97.3112 66.7432 97.2679 66.9482 97.2451 67.1943C97.2223 67.4404 97.2109 67.7184 97.2109 68.0283V68.5684C97.2109 68.901 97.2201 69.1904 97.2383 69.4365C97.2611 69.6781 97.3044 69.8831 97.3682 70.0518C97.4365 70.2158 97.5345 70.3389 97.6621 70.4209C97.7943 70.5029 97.972 70.5439 98.1953 70.5439ZM103.821 71.1523L105.366 64.6035H107.362L104.929 73.1074C104.874 73.2943 104.799 73.4948 104.703 73.709C104.607 73.9277 104.48 74.1328 104.32 74.3242C104.165 74.5202 103.969 74.6797 103.732 74.8027C103.495 74.9258 103.211 74.9873 102.878 74.9873C102.709 74.9873 102.573 74.9759 102.468 74.9531C102.368 74.9349 102.24 74.903 102.085 74.8574V73.3672C102.126 73.3672 102.165 73.3672 102.201 73.3672C102.242 73.3717 102.281 73.374 102.317 73.374C102.532 73.374 102.702 73.3444 102.83 73.2852C102.958 73.2305 103.06 73.1439 103.138 73.0254C103.22 72.9069 103.288 72.7588 103.343 72.5811L103.821 71.1523ZM103.425 64.6035L104.573 69.9082L104.833 72.0684L103.541 72.1914L101.374 64.6035H103.425ZM33.0557 86.251V92H31.1416V84.6035H32.9463L33.0557 86.251ZM34.7988 84.5488L34.7715 86.4561C34.6849 86.4378 34.5801 86.4242 34.457 86.415C34.3385 86.4059 34.2337 86.4014 34.1426 86.4014C33.9284 86.4014 33.7461 86.4355 33.5957 86.5039C33.4453 86.5677 33.32 86.6657 33.2197 86.7979C33.124 86.9255 33.0511 87.085 33.001 87.2764C32.9508 87.4678 32.9212 87.6842 32.9121 87.9258L32.5498 87.7891C32.5498 87.306 32.5863 86.8639 32.6592 86.4629C32.7367 86.0573 32.8506 85.7064 33.001 85.4102C33.1514 85.1094 33.3314 84.877 33.541 84.7129C33.7552 84.5488 33.9967 84.4668 34.2656 84.4668C34.3568 84.4668 34.4525 84.4759 34.5527 84.4941C34.6576 84.5078 34.7396 84.526 34.7988 84.5488ZM38.6201 92.1367C38.1143 92.1367 37.6654 92.0592 37.2734 91.9043C36.8861 91.7493 36.5579 91.526 36.2891 91.2344C36.0202 90.9382 35.8151 90.5804 35.6738 90.1611C35.5326 89.7419 35.4619 89.2633 35.4619 88.7256V88.1172C35.4619 87.5156 35.5303 86.9893 35.667 86.5381C35.8037 86.0824 35.9974 85.6995 36.248 85.3896C36.4987 85.0798 36.8063 84.8496 37.1709 84.6992C37.54 84.5443 37.957 84.4668 38.4219 84.4668C38.8867 84.4668 39.2946 84.5443 39.6455 84.6992C40.001 84.8496 40.2949 85.0775 40.5273 85.3828C40.7598 85.6836 40.9352 86.0573 41.0537 86.5039C41.1722 86.9505 41.2314 87.4701 41.2314 88.0625V88.9375H36.2754V87.5908H39.3516V87.4199C39.3516 87.1191 39.3197 86.8685 39.2559 86.668C39.1921 86.4629 39.0918 86.3102 38.9551 86.21C38.8184 86.1097 38.6361 86.0596 38.4082 86.0596C38.2168 86.0596 38.055 86.0983 37.9229 86.1758C37.7907 86.2533 37.6859 86.374 37.6084 86.5381C37.5309 86.7021 37.474 86.9163 37.4375 87.1807C37.401 87.4404 37.3828 87.7526 37.3828 88.1172V88.7256C37.3828 89.0674 37.4124 89.3545 37.4717 89.5869C37.5309 89.8148 37.6175 90.0016 37.7314 90.1475C37.8499 90.2887 37.9935 90.3913 38.1621 90.4551C38.3307 90.5143 38.5267 90.5439 38.75 90.5439C39.0872 90.5439 39.3903 90.4847 39.6592 90.3662C39.9326 90.2432 40.165 90.0768 40.3564 89.8672L41.1221 91.0293C40.9899 91.2025 40.8076 91.3757 40.5752 91.5488C40.3428 91.722 40.0648 91.8633 39.7412 91.9727C39.4176 92.082 39.0439 92.1367 38.6201 92.1367ZM42.4277 84.6035H44.3555V92.4102C44.3555 92.9661 44.2666 93.4355 44.0889 93.8184C43.9157 94.2012 43.665 94.4906 43.3369 94.6865C43.0088 94.887 42.6123 94.9873 42.1475 94.9873C41.9971 94.9873 41.849 94.9782 41.7031 94.96C41.5573 94.9417 41.4092 94.9121 41.2588 94.8711L41.2656 93.3125C41.3568 93.3307 41.4456 93.3444 41.5322 93.3535C41.6143 93.3626 41.6963 93.3672 41.7783 93.3672C41.9242 93.3672 42.0449 93.333 42.1406 93.2646C42.2363 93.2008 42.307 93.0983 42.3525 92.957C42.4027 92.8158 42.4277 92.6335 42.4277 92.4102V84.6035ZM42.2979 82.6895C42.2979 82.3932 42.3936 82.1494 42.585 81.958C42.7764 81.762 43.0293 81.6641 43.3438 81.6641C43.6628 81.6641 43.918 81.762 44.1094 81.958C44.3008 82.1494 44.3965 82.3932 44.3965 82.6895C44.3965 82.9811 44.3008 83.2249 44.1094 83.4209C43.918 83.6123 43.6628 83.708 43.3438 83.708C43.0293 83.708 42.7764 83.6123 42.585 83.4209C42.3936 83.2249 42.2979 82.9811 42.2979 82.6895ZM48.751 92.1367C48.2451 92.1367 47.7962 92.0592 47.4043 91.9043C47.0169 91.7493 46.6888 91.526 46.4199 91.2344C46.151 90.9382 45.946 90.5804 45.8047 90.1611C45.6634 89.7419 45.5928 89.2633 45.5928 88.7256V88.1172C45.5928 87.5156 45.6611 86.9893 45.7979 86.5381C45.9346 86.0824 46.1283 85.6995 46.3789 85.3896C46.6296 85.0798 46.9372 84.8496 47.3018 84.6992C47.6709 84.5443 48.0879 84.4668 48.5527 84.4668C49.0176 84.4668 49.4255 84.5443 49.7764 84.6992C50.1318 84.8496 50.4258 85.0775 50.6582 85.3828C50.8906 85.6836 51.0661 86.0573 51.1846 86.5039C51.3031 86.9505 51.3623 87.4701 51.3623 88.0625V88.9375H46.4062V87.5908H49.4824V87.4199C49.4824 87.1191 49.4505 86.8685 49.3867 86.668C49.3229 86.4629 49.2227 86.3102 49.0859 86.21C48.9492 86.1097 48.7669 86.0596 48.5391 86.0596C48.3477 86.0596 48.1859 86.0983 48.0537 86.1758C47.9215 86.2533 47.8167 86.374 47.7393 86.5381C47.6618 86.7021 47.6048 86.9163 47.5684 87.1807C47.5319 87.4404 47.5137 87.7526 47.5137 88.1172V88.7256C47.5137 89.0674 47.5433 89.3545 47.6025 89.5869C47.6618 89.8148 47.7484 90.0016 47.8623 90.1475C47.9808 90.2887 48.1243 90.3913 48.293 90.4551C48.4616 90.5143 48.6576 90.5439 48.8809 90.5439C49.2181 90.5439 49.5212 90.4847 49.79 90.3662C50.0635 90.2432 50.2959 90.0768 50.4873 89.8672L51.2529 91.0293C51.1208 91.2025 50.9385 91.3757 50.7061 91.5488C50.4736 91.722 50.1956 91.8633 49.8721 91.9727C49.5485 92.082 49.1748 92.1367 48.751 92.1367ZM55.751 90.0039C55.751 89.8763 55.7077 89.7624 55.6211 89.6621C55.5345 89.5618 55.3978 89.4593 55.2109 89.3545C55.0241 89.2451 54.7757 89.1243 54.4658 88.9922C54.1286 88.8555 53.8301 88.7142 53.5703 88.5684C53.3105 88.4225 53.0895 88.2607 52.9072 88.083C52.7295 87.9053 52.5951 87.7025 52.5039 87.4746C52.4128 87.2467 52.3672 86.987 52.3672 86.6953C52.3672 86.3809 52.4242 86.0915 52.5381 85.8271C52.6566 85.5583 52.8252 85.3236 53.0439 85.123C53.2627 84.918 53.5293 84.7585 53.8438 84.6445C54.1628 84.526 54.5205 84.4668 54.917 84.4668C55.473 84.4668 55.9492 84.5648 56.3457 84.7607C56.7467 84.9521 57.0544 85.221 57.2686 85.5674C57.4827 85.9137 57.5898 86.3171 57.5898 86.7773H55.6758C55.6758 86.6133 55.6507 86.4674 55.6006 86.3398C55.5505 86.2077 55.4684 86.1051 55.3545 86.0322C55.2451 85.9593 55.097 85.9229 54.9102 85.9229C54.7734 85.9229 54.6504 85.9525 54.541 86.0117C54.4362 86.071 54.3519 86.1507 54.2881 86.251C54.2288 86.3467 54.1992 86.4606 54.1992 86.5928C54.1992 86.693 54.2197 86.7819 54.2607 86.8594C54.3063 86.9368 54.377 87.012 54.4727 87.085C54.5684 87.1579 54.696 87.2354 54.8555 87.3174C55.0195 87.3949 55.2201 87.4814 55.457 87.5771C55.9492 87.7594 56.3525 87.9554 56.667 88.165C56.986 88.3747 57.223 88.6208 57.3779 88.9033C57.5329 89.1813 57.6104 89.5254 57.6104 89.9355C57.6104 90.2637 57.5465 90.5622 57.4189 90.8311C57.2959 91.0999 57.1159 91.3324 56.8789 91.5283C56.6419 91.7243 56.3571 91.8747 56.0244 91.9795C55.6963 92.0843 55.3294 92.1367 54.9238 92.1367C54.3268 92.1367 53.8232 92.0182 53.4131 91.7812C53.0029 91.5443 52.693 91.2412 52.4834 90.8721C52.2738 90.4984 52.1689 90.111 52.1689 89.71H53.9873C53.9964 89.9561 54.042 90.1497 54.124 90.291C54.2106 90.4277 54.3268 90.5234 54.4727 90.5781C54.6185 90.6328 54.7803 90.6602 54.958 90.6602C55.1357 90.6602 55.2816 90.6374 55.3955 90.5918C55.514 90.5417 55.6029 90.4665 55.6621 90.3662C55.7214 90.2614 55.751 90.1406 55.751 90.0039ZM62.0537 84.6035V86.0459H58.2803V84.6035H62.0537ZM59.1484 82.7783H61.0557V89.7441C61.0557 89.9492 61.0762 90.1064 61.1172 90.2158C61.1582 90.3252 61.2197 90.4027 61.3018 90.4482C61.3883 90.4893 61.5023 90.5098 61.6436 90.5098C61.7393 90.5098 61.8281 90.5052 61.9102 90.4961C61.9922 90.4824 62.0537 90.4688 62.0947 90.4551V91.9521C61.9443 92.0114 61.7848 92.057 61.6162 92.0889C61.4521 92.1208 61.2562 92.1367 61.0283 92.1367C60.6455 92.1367 60.3128 92.0638 60.0303 91.918C59.7523 91.7721 59.5358 91.5397 59.3809 91.2207C59.2259 90.8971 59.1484 90.4733 59.1484 89.9492V82.7783ZM65.0342 86.251V92H63.1201V84.6035H64.9248L65.0342 86.251ZM66.7773 84.5488L66.75 86.4561C66.6634 86.4378 66.5586 86.4242 66.4355 86.415C66.3171 86.4059 66.2122 86.4014 66.1211 86.4014C65.9069 86.4014 65.7246 86.4355 65.5742 86.5039C65.4238 86.5677 65.2985 86.6657 65.1982 86.7979C65.1025 86.9255 65.0296 87.085 64.9795 87.2764C64.9294 87.4678 64.8997 87.6842 64.8906 87.9258L64.5283 87.7891C64.5283 87.306 64.5648 86.8639 64.6377 86.4629C64.7152 86.0573 64.8291 85.7064 64.9795 85.4102C65.1299 85.1094 65.3099 84.877 65.5195 84.7129C65.7337 84.5488 65.9753 84.4668 66.2441 84.4668C66.3353 84.4668 66.431 84.4759 66.5312 84.4941C66.6361 84.5078 66.7181 84.526 66.7773 84.5488ZM70.8105 90.2979V86.8799C70.8105 86.6566 70.7832 86.4788 70.7285 86.3467C70.6784 86.2145 70.6009 86.1188 70.4961 86.0596C70.3958 85.9958 70.2728 85.9639 70.127 85.9639C69.9629 85.9639 69.8262 85.998 69.7168 86.0664C69.6074 86.1348 69.5254 86.2327 69.4707 86.3604C69.4206 86.488 69.3955 86.6406 69.3955 86.8184H67.4746C67.4746 86.4993 67.5361 86.1986 67.6592 85.916C67.7822 85.6289 67.9622 85.3783 68.1992 85.1641C68.4408 84.9453 68.7279 84.7744 69.0605 84.6514C69.3932 84.5283 69.7669 84.4668 70.1816 84.4668C70.6738 84.4668 71.1113 84.5511 71.4941 84.7197C71.877 84.8838 72.18 85.1458 72.4033 85.5059C72.6266 85.8659 72.7383 86.333 72.7383 86.9072V90.2021C72.7383 90.6169 72.7588 90.9541 72.7998 91.2139C72.8454 91.4736 72.9115 91.6969 72.998 91.8838V92H71.0703C70.9837 91.7949 70.9176 91.5397 70.8721 91.2344C70.8311 90.9245 70.8105 90.6123 70.8105 90.2979ZM71.043 87.4814L71.0498 88.6299H70.3457C70.1634 88.6299 70.0039 88.6595 69.8672 88.7188C69.735 88.778 69.6234 88.8623 69.5322 88.9717C69.4411 89.0765 69.3727 89.1995 69.3271 89.3408C69.2861 89.4821 69.2656 89.6325 69.2656 89.792C69.2656 89.9697 69.2907 90.1201 69.3408 90.2432C69.391 90.3662 69.4661 90.4596 69.5664 90.5234C69.6667 90.5872 69.7852 90.6191 69.9219 90.6191C70.1315 90.6191 70.3138 90.5758 70.4688 90.4893C70.6237 90.4027 70.7376 90.2979 70.8105 90.1748C70.888 90.0518 70.9131 89.9378 70.8857 89.833L71.3232 90.5781C71.2686 90.7467 71.1934 90.9222 71.0977 91.1045C71.0065 91.2868 70.8903 91.4554 70.749 91.6104C70.6077 91.7653 70.4323 91.8929 70.2227 91.9932C70.0176 92.0889 69.7738 92.1367 69.4912 92.1367C69.0947 92.1367 68.7324 92.0456 68.4043 91.8633C68.0762 91.681 67.8164 91.4258 67.625 91.0977C67.4382 90.7695 67.3447 90.3799 67.3447 89.9287C67.3447 89.555 67.404 89.2178 67.5225 88.917C67.6455 88.6117 67.8278 88.3542 68.0693 88.1445C68.3109 87.9303 68.6162 87.7663 68.9854 87.6523C69.3545 87.5384 69.7874 87.4814 70.2842 87.4814H71.043ZM76.8262 90.5439C77.0039 90.5439 77.1566 90.5075 77.2842 90.4346C77.4163 90.3617 77.5166 90.2432 77.585 90.0791C77.6533 89.915 77.6898 89.7031 77.6943 89.4434H79.4922C79.4922 89.9993 79.3737 90.4801 79.1367 90.8857C78.9043 91.2868 78.5898 91.5967 78.1934 91.8154C77.8014 92.0296 77.3571 92.1367 76.8604 92.1367C76.3636 92.1367 75.9307 92.057 75.5615 91.8975C75.1924 91.738 74.887 91.5055 74.6455 91.2002C74.4085 90.8949 74.2285 90.5234 74.1055 90.0859C73.987 89.6439 73.9277 89.138 73.9277 88.5684V88.0283C73.9277 87.4678 73.987 86.9665 74.1055 86.5244C74.2285 86.0824 74.4085 85.7087 74.6455 85.4033C74.887 85.098 75.1901 84.8656 75.5547 84.7061C75.9238 84.5465 76.3568 84.4668 76.8535 84.4668C77.3867 84.4668 77.8493 84.5785 78.2412 84.8018C78.6331 85.0205 78.9385 85.3441 79.1572 85.7725C79.3805 86.2008 79.4922 86.7295 79.4922 87.3584H77.6943C77.6898 87.0758 77.6556 86.8411 77.5918 86.6543C77.5326 86.4629 77.4391 86.3171 77.3115 86.2168C77.1885 86.112 77.0244 86.0596 76.8193 86.0596C76.6051 86.0596 76.432 86.1051 76.2998 86.1963C76.1722 86.2829 76.0742 86.4105 76.0059 86.5791C75.9421 86.7432 75.8988 86.9482 75.876 87.1943C75.8532 87.4404 75.8418 87.7184 75.8418 88.0283V88.5684C75.8418 88.901 75.8509 89.1904 75.8691 89.4365C75.8919 89.6781 75.9352 89.8831 75.999 90.0518C76.0674 90.2158 76.1654 90.3389 76.293 90.4209C76.4251 90.5029 76.6029 90.5439 76.8262 90.5439ZM82.4521 91.1523L83.9971 84.6035H85.9932L83.5596 93.1074C83.5049 93.2943 83.4297 93.4948 83.334 93.709C83.2383 93.9277 83.1107 94.1328 82.9512 94.3242C82.7962 94.5202 82.6003 94.6797 82.3633 94.8027C82.1263 94.9258 81.8415 94.9873 81.5088 94.9873C81.3402 94.9873 81.2035 94.9759 81.0986 94.9531C80.9984 94.9349 80.8708 94.903 80.7158 94.8574V93.3672C80.7568 93.3672 80.7956 93.3672 80.832 93.3672C80.873 93.3717 80.9118 93.374 80.9482 93.374C81.1624 93.374 81.3333 93.3444 81.4609 93.2852C81.5885 93.2305 81.6911 93.1439 81.7686 93.0254C81.8506 92.9069 81.9189 92.7588 81.9736 92.5811L82.4521 91.1523ZM82.0557 84.6035L83.2041 89.9082L83.4639 92.0684L82.1719 92.1914L80.0049 84.6035H82.0557ZM86.916 84.6035H88.8438V92.4102C88.8438 92.9661 88.7549 93.4355 88.5771 93.8184C88.404 94.2012 88.1533 94.4906 87.8252 94.6865C87.4971 94.887 87.1006 94.9873 86.6357 94.9873C86.4854 94.9873 86.3372 94.9782 86.1914 94.96C86.0456 94.9417 85.8975 94.9121 85.7471 94.8711L85.7539 93.3125C85.8451 93.3307 85.9339 93.3444 86.0205 93.3535C86.1025 93.3626 86.1846 93.3672 86.2666 93.3672C86.4124 93.3672 86.5332 93.333 86.6289 93.2646C86.7246 93.2008 86.7952 93.0983 86.8408 92.957C86.891 92.8158 86.916 92.6335 86.916 92.4102V84.6035ZM86.7861 82.6895C86.7861 82.3932 86.8818 82.1494 87.0732 81.958C87.2646 81.762 87.5176 81.6641 87.832 81.6641C88.151 81.6641 88.4062 81.762 88.5977 81.958C88.7891 82.1494 88.8848 82.3932 88.8848 82.6895C88.8848 82.9811 88.7891 83.2249 88.5977 83.4209C88.4062 83.6123 88.151 83.708 87.832 83.708C87.5176 83.708 87.2646 83.6123 87.0732 83.4209C86.8818 83.2249 86.7861 82.9811 86.7861 82.6895ZM92.1387 86.1826V92H90.2178V84.6035H92.0156L92.1387 86.1826ZM91.8516 88.0488L91.3389 88.0625C91.3298 87.5065 91.3822 87.0075 91.4961 86.5654C91.6146 86.1234 91.7809 85.7474 91.9951 85.4375C92.2139 85.123 92.4736 84.8838 92.7744 84.7197C93.0798 84.5511 93.4193 84.4668 93.793 84.4668C94.0801 84.4668 94.3421 84.5169 94.5791 84.6172C94.8206 84.7174 95.028 84.877 95.2012 85.0957C95.3743 85.3145 95.5088 85.6061 95.6045 85.9707C95.7002 86.3307 95.748 86.7728 95.748 87.2969V92H93.8271V87.2832C93.8271 86.9642 93.7952 86.7181 93.7314 86.5449C93.6676 86.3672 93.5719 86.2441 93.4443 86.1758C93.3167 86.1029 93.1572 86.0664 92.9658 86.0664C92.7835 86.0664 92.6217 86.1188 92.4805 86.2236C92.3392 86.3239 92.2207 86.4629 92.125 86.6406C92.0339 86.8184 91.9632 87.028 91.9131 87.2695C91.8675 87.5111 91.847 87.7708 91.8516 88.0488ZM100.13 92.1367C99.624 92.1367 99.1751 92.0592 98.7832 91.9043C98.3958 91.7493 98.0677 91.526 97.7988 91.2344C97.5299 90.9382 97.3249 90.5804 97.1836 90.1611C97.0423 89.7419 96.9717 89.2633 96.9717 88.7256V88.1172C96.9717 87.5156 97.04 86.9893 97.1768 86.5381C97.3135 86.0824 97.5072 85.6995 97.7578 85.3896C98.0085 85.0798 98.3161 84.8496 98.6807 84.6992C99.0498 84.5443 99.4668 84.4668 99.9316 84.4668C100.396 84.4668 100.804 84.5443 101.155 84.6992C101.511 84.8496 101.805 85.0775 102.037 85.3828C102.27 85.6836 102.445 86.0573 102.563 86.5039C102.682 86.9505 102.741 87.4701 102.741 88.0625V88.9375H97.7852V87.5908H100.861V87.4199C100.861 87.1191 100.829 86.8685 100.766 86.668C100.702 86.4629 100.602 86.3102 100.465 86.21C100.328 86.1097 100.146 86.0596 99.918 86.0596C99.7266 86.0596 99.5648 86.0983 99.4326 86.1758C99.3005 86.2533 99.1956 86.374 99.1182 86.5381C99.0407 86.7021 98.9837 86.9163 98.9473 87.1807C98.9108 87.4404 98.8926 87.7526 98.8926 88.1172V88.7256C98.8926 89.0674 98.9222 89.3545 98.9814 89.5869C99.0407 89.8148 99.1273 90.0016 99.2412 90.1475C99.3597 90.2887 99.5033 90.3913 99.6719 90.4551C99.8405 90.5143 100.036 90.5439 100.26 90.5439C100.597 90.5439 100.9 90.4847 101.169 90.3662C101.442 90.2432 101.675 90.0768 101.866 89.8672L102.632 91.0293C102.5 91.2025 102.317 91.3757 102.085 91.5488C101.853 91.722 101.575 91.8633 101.251 91.9727C100.927 92.082 100.554 92.1367 100.13 92.1367ZM103.938 84.6035H105.865V92.4102C105.865 92.9661 105.776 93.4355 105.599 93.8184C105.425 94.2012 105.175 94.4906 104.847 94.6865C104.519 94.887 104.122 94.9873 103.657 94.9873C103.507 94.9873 103.359 94.9782 103.213 94.96C103.067 94.9417 102.919 94.9121 102.769 94.8711L102.775 93.3125C102.867 93.3307 102.955 93.3444 103.042 93.3535C103.124 93.3626 103.206 93.3672 103.288 93.3672C103.434 93.3672 103.555 93.333 103.65 93.2646C103.746 93.2008 103.817 93.0983 103.862 92.957C103.912 92.8158 103.938 92.6335 103.938 92.4102V84.6035ZM103.808 82.6895C103.808 82.3932 103.903 82.1494 104.095 81.958C104.286 81.762 104.539 81.6641 104.854 81.6641C105.173 81.6641 105.428 81.762 105.619 81.958C105.811 82.1494 105.906 82.3932 105.906 82.6895C105.906 82.9811 105.811 83.2249 105.619 83.4209C105.428 83.6123 105.173 83.708 104.854 83.708C104.539 83.708 104.286 83.6123 104.095 83.4209C103.903 83.2249 103.808 82.9811 103.808 82.6895Z" fill="url(#paint0_linear_363_3077)"/>
<path d="M361.075 62.0469H364.268C364.933 62.0469 365.5 62.1608 365.97 62.3887C366.439 62.6165 366.799 62.9538 367.05 63.4004C367.3 63.847 367.426 64.3984 367.426 65.0547C367.426 65.5924 367.353 66.0527 367.207 66.4355C367.061 66.8138 366.854 67.1305 366.585 67.3857C366.316 67.6364 365.995 67.8369 365.621 67.9873L365.013 68.3496H362.422L362.415 66.6885H364.213C364.486 66.6885 364.712 66.6292 364.89 66.5107C365.072 66.3877 365.206 66.2168 365.293 65.998C365.384 65.7747 365.43 65.515 365.43 65.2188C365.43 64.9043 365.389 64.6354 365.307 64.4121C365.229 64.1842 365.104 64.0111 364.931 63.8926C364.762 63.7695 364.541 63.708 364.268 63.708H363.078V72H361.075V62.0469ZM365.594 72L363.769 67.5635L365.867 67.5566L367.733 71.9043V72H365.594ZM368.506 68.5547V68.0557C368.506 67.4769 368.574 66.9642 368.711 66.5176C368.852 66.071 369.053 65.6973 369.312 65.3965C369.572 65.0911 369.884 64.861 370.249 64.7061C370.618 64.5465 371.031 64.4668 371.486 64.4668C371.947 64.4668 372.359 64.5465 372.724 64.7061C373.093 64.861 373.407 65.0911 373.667 65.3965C373.931 65.6973 374.134 66.071 374.275 66.5176C374.417 66.9642 374.487 67.4769 374.487 68.0557V68.5547C374.487 69.1289 374.417 69.6393 374.275 70.0859C374.134 70.5326 373.931 70.9085 373.667 71.2139C373.407 71.5192 373.095 71.7493 372.73 71.9043C372.366 72.0592 371.956 72.1367 371.5 72.1367C371.044 72.1367 370.632 72.0592 370.263 71.9043C369.898 71.7493 369.584 71.5192 369.319 71.2139C369.055 70.9085 368.852 70.5326 368.711 70.0859C368.574 69.6393 368.506 69.1289 368.506 68.5547ZM370.42 68.0557V68.5547C370.42 68.8965 370.443 69.1927 370.488 69.4434C370.538 69.694 370.609 69.9014 370.7 70.0654C370.796 70.2295 370.91 70.3503 371.042 70.4277C371.174 70.5052 371.327 70.5439 371.5 70.5439C371.673 70.5439 371.828 70.5052 371.965 70.4277C372.102 70.3503 372.213 70.2295 372.3 70.0654C372.391 69.9014 372.457 69.694 372.498 69.4434C372.544 69.1927 372.566 68.8965 372.566 68.5547V68.0557C372.566 67.723 372.541 67.4313 372.491 67.1807C372.441 66.9255 372.37 66.7181 372.279 66.5586C372.188 66.3945 372.074 66.2715 371.938 66.1895C371.805 66.1029 371.655 66.0596 371.486 66.0596C371.318 66.0596 371.167 66.1029 371.035 66.1895C370.908 66.2715 370.796 66.3945 370.7 66.5586C370.609 66.7181 370.538 66.9255 370.488 67.1807C370.443 67.4313 370.42 67.723 370.42 68.0557ZM380.646 70.4072V72H375.95V70.4072H380.646ZM380.599 65.7656L376.702 72H375.424V70.7969L379.3 64.6035H380.599V65.7656ZM379.929 64.6035V66.1963H375.499V64.6035H379.929ZM383.928 61.5V72H382.007V61.5H383.928ZM387.455 64.6035V72H385.534V64.6035H387.455ZM385.445 62.6895C385.445 62.3932 385.539 62.1494 385.726 61.958C385.917 61.762 386.172 61.6641 386.491 61.6641C386.815 61.6641 387.07 61.762 387.257 61.958C387.444 62.1494 387.537 62.3932 387.537 62.6895C387.537 62.9811 387.441 63.2249 387.25 63.4209C387.063 63.6123 386.812 63.708 386.498 63.708C386.174 63.708 385.917 63.6123 385.726 63.4209C385.539 63.2249 385.445 62.9811 385.445 62.6895ZM391.646 70.5439C391.823 70.5439 391.976 70.5075 392.104 70.4346C392.236 70.3617 392.336 70.2432 392.404 70.0791C392.473 69.915 392.509 69.7031 392.514 69.4434H394.312C394.312 69.9993 394.193 70.4801 393.956 70.8857C393.724 71.2868 393.409 71.5967 393.013 71.8154C392.621 72.0296 392.176 72.1367 391.68 72.1367C391.183 72.1367 390.75 72.057 390.381 71.8975C390.012 71.738 389.706 71.5055 389.465 71.2002C389.228 70.8949 389.048 70.5234 388.925 70.0859C388.806 69.6439 388.747 69.138 388.747 68.5684V68.0283C388.747 67.4678 388.806 66.9665 388.925 66.5244C389.048 66.0824 389.228 65.7087 389.465 65.4033C389.706 65.098 390.009 64.8656 390.374 64.7061C390.743 64.5465 391.176 64.4668 391.673 64.4668C392.206 64.4668 392.669 64.5785 393.061 64.8018C393.452 65.0205 393.758 65.3441 393.977 65.7725C394.2 66.2008 394.312 66.7295 394.312 67.3584H392.514C392.509 67.0758 392.475 66.8411 392.411 66.6543C392.352 66.4629 392.258 66.3171 392.131 66.2168C392.008 66.112 391.844 66.0596 391.639 66.0596C391.424 66.0596 391.251 66.1051 391.119 66.1963C390.992 66.2829 390.894 66.4105 390.825 66.5791C390.761 66.7432 390.718 66.9482 390.695 67.1943C390.673 67.4404 390.661 67.7184 390.661 68.0283V68.5684C390.661 68.901 390.67 69.1904 390.688 69.4365C390.711 69.6781 390.755 69.8831 390.818 70.0518C390.887 70.2158 390.985 70.3389 391.112 70.4209C391.244 70.5029 391.422 70.5439 391.646 70.5439ZM400.471 70.4072V72H395.774V70.4072H400.471ZM400.423 65.7656L396.526 72H395.248V70.7969L399.124 64.6035H400.423V65.7656ZM399.753 64.6035V66.1963H395.323V64.6035H399.753ZM404.613 72.1367C404.107 72.1367 403.659 72.0592 403.267 71.9043C402.879 71.7493 402.551 71.526 402.282 71.2344C402.013 70.9382 401.808 70.5804 401.667 70.1611C401.526 69.7419 401.455 69.2633 401.455 68.7256V68.1172C401.455 67.5156 401.523 66.9893 401.66 66.5381C401.797 66.0824 401.991 65.6995 402.241 65.3896C402.492 65.0798 402.799 64.8496 403.164 64.6992C403.533 64.5443 403.95 64.4668 404.415 64.4668C404.88 64.4668 405.288 64.5443 405.639 64.6992C405.994 64.8496 406.288 65.0775 406.521 65.3828C406.753 65.6836 406.928 66.0573 407.047 66.5039C407.165 66.9505 407.225 67.4701 407.225 68.0625V68.9375H402.269V67.5908H405.345V67.4199C405.345 67.1191 405.313 66.8685 405.249 66.668C405.185 66.4629 405.085 66.3102 404.948 66.21C404.812 66.1097 404.629 66.0596 404.401 66.0596C404.21 66.0596 404.048 66.0983 403.916 66.1758C403.784 66.2533 403.679 66.374 403.602 66.5381C403.524 66.7021 403.467 66.9163 403.431 67.1807C403.394 67.4404 403.376 67.7526 403.376 68.1172V68.7256C403.376 69.0674 403.406 69.3545 403.465 69.5869C403.524 69.8148 403.611 70.0016 403.725 70.1475C403.843 70.2887 403.987 70.3913 404.155 70.4551C404.324 70.5143 404.52 70.5439 404.743 70.5439C405.08 70.5439 405.383 70.4847 405.652 70.3662C405.926 70.2432 406.158 70.0768 406.35 69.8672L407.115 71.0293C406.983 71.2025 406.801 71.3757 406.568 71.5488C406.336 71.722 406.058 71.8633 405.734 71.9727C405.411 72.082 405.037 72.1367 404.613 72.1367ZM410.212 66.1826V72H408.291V64.6035H410.089L410.212 66.1826ZM409.925 68.0488L409.412 68.0625C409.403 67.5065 409.455 67.0075 409.569 66.5654C409.688 66.1234 409.854 65.7474 410.068 65.4375C410.287 65.123 410.547 64.8838 410.848 64.7197C411.153 64.5511 411.493 64.4668 411.866 64.4668C412.153 64.4668 412.415 64.5169 412.652 64.6172C412.894 64.7174 413.101 64.877 413.274 65.0957C413.448 65.3145 413.582 65.6061 413.678 65.9707C413.773 66.3307 413.821 66.7728 413.821 67.2969V72H411.9V67.2832C411.9 66.9642 411.868 66.7181 411.805 66.5449C411.741 66.3672 411.645 66.2441 411.518 66.1758C411.39 66.1029 411.23 66.0664 411.039 66.0664C410.857 66.0664 410.695 66.1188 410.554 66.2236C410.412 66.3239 410.294 66.4629 410.198 66.6406C410.107 66.8184 410.036 67.028 409.986 67.2695C409.941 67.5111 409.92 67.7708 409.925 68.0488ZM417.232 64.6035V72H415.312V64.6035H417.232ZM415.223 62.6895C415.223 62.3932 415.316 62.1494 415.503 61.958C415.694 61.762 415.95 61.6641 416.269 61.6641C416.592 61.6641 416.847 61.762 417.034 61.958C417.221 62.1494 417.314 62.3932 417.314 62.6895C417.314 62.9811 417.219 63.2249 417.027 63.4209C416.84 63.6123 416.59 63.708 416.275 63.708C415.952 63.708 415.694 63.6123 415.503 63.4209C415.316 63.2249 415.223 62.9811 415.223 62.6895ZM421.73 72.1367C421.225 72.1367 420.776 72.0592 420.384 71.9043C419.996 71.7493 419.668 71.526 419.399 71.2344C419.131 70.9382 418.925 70.5804 418.784 70.1611C418.643 69.7419 418.572 69.2633 418.572 68.7256V68.1172C418.572 67.5156 418.641 66.9893 418.777 66.5381C418.914 66.0824 419.108 65.6995 419.358 65.3896C419.609 65.0798 419.917 64.8496 420.281 64.6992C420.65 64.5443 421.067 64.4668 421.532 64.4668C421.997 64.4668 422.405 64.5443 422.756 64.6992C423.111 64.8496 423.405 65.0775 423.638 65.3828C423.87 65.6836 424.046 66.0573 424.164 66.5039C424.283 66.9505 424.342 67.4701 424.342 68.0625V68.9375H419.386V67.5908H422.462V67.4199C422.462 67.1191 422.43 66.8685 422.366 66.668C422.302 66.4629 422.202 66.3102 422.065 66.21C421.929 66.1097 421.746 66.0596 421.519 66.0596C421.327 66.0596 421.165 66.0983 421.033 66.1758C420.901 66.2533 420.796 66.374 420.719 66.5381C420.641 66.7021 420.584 66.9163 420.548 67.1807C420.511 67.4404 420.493 67.7526 420.493 68.1172V68.7256C420.493 69.0674 420.523 69.3545 420.582 69.5869C420.641 69.8148 420.728 70.0016 420.842 70.1475C420.96 70.2887 421.104 70.3913 421.272 70.4551C421.441 70.5143 421.637 70.5439 421.86 70.5439C422.198 70.5439 422.501 70.4847 422.77 70.3662C423.043 70.2432 423.275 70.0768 423.467 69.8672L424.232 71.0293C424.1 71.2025 423.918 71.3757 423.686 71.5488C423.453 71.722 423.175 71.8633 422.852 71.9727C422.528 72.082 422.154 72.1367 421.73 72.1367Z" fill="url(#paint1_linear_363_3077)"/>
<path d="M667.147 67.5098L668.74 59.0469H669.793L670.107 60.3594L668.398 69H667.257L667.147 67.5098ZM666.601 59.0469L667.886 67.5303L667.667 69H666.409L664.625 59.0469H666.601ZM671.263 67.4961L672.541 59.0469H674.51L672.739 69H671.475L671.263 67.4961ZM670.401 59.0469L672.008 67.5576L671.878 69H670.736L669.034 60.3457L669.355 59.0469H670.401ZM678.283 69.1367C677.777 69.1367 677.328 69.0592 676.937 68.9043C676.549 68.7493 676.221 68.526 675.952 68.2344C675.683 67.9382 675.478 67.5804 675.337 67.1611C675.196 66.7419 675.125 66.2633 675.125 65.7256V65.1172C675.125 64.5156 675.193 63.9893 675.33 63.5381C675.467 63.0824 675.66 62.6995 675.911 62.3896C676.162 62.0798 676.469 61.8496 676.834 61.6992C677.203 61.5443 677.62 61.4668 678.085 61.4668C678.55 61.4668 678.958 61.5443 679.309 61.6992C679.664 61.8496 679.958 62.0775 680.19 62.3828C680.423 62.6836 680.598 63.0573 680.717 63.5039C680.835 63.9505 680.895 64.4701 680.895 65.0625V65.9375H675.938V64.5908H679.015V64.4199C679.015 64.1191 678.983 63.8685 678.919 63.668C678.855 63.4629 678.755 63.3102 678.618 63.21C678.481 63.1097 678.299 63.0596 678.071 63.0596C677.88 63.0596 677.718 63.0983 677.586 63.1758C677.454 63.2533 677.349 63.374 677.271 63.5381C677.194 63.7021 677.137 63.9163 677.101 64.1807C677.064 64.4404 677.046 64.7526 677.046 65.1172V65.7256C677.046 66.0674 677.076 66.3545 677.135 66.5869C677.194 66.8148 677.281 67.0016 677.395 67.1475C677.513 67.2887 677.657 67.3913 677.825 67.4551C677.994 67.5143 678.19 67.5439 678.413 67.5439C678.75 67.5439 679.053 67.4847 679.322 67.3662C679.596 67.2432 679.828 67.0768 680.02 66.8672L680.785 68.0293C680.653 68.2025 680.471 68.3757 680.238 68.5488C680.006 68.722 679.728 68.8633 679.404 68.9727C679.081 69.082 678.707 69.1367 678.283 69.1367ZM683.916 63.251V69H682.002V61.6035H683.807L683.916 63.251ZM685.659 61.5488L685.632 63.4561C685.545 63.4378 685.44 63.4242 685.317 63.415C685.199 63.4059 685.094 63.4014 685.003 63.4014C684.789 63.4014 684.606 63.4355 684.456 63.5039C684.306 63.5677 684.18 63.6657 684.08 63.7979C683.984 63.9255 683.911 64.085 683.861 64.2764C683.811 64.4678 683.782 64.6842 683.772 64.9258L683.41 64.7891C683.41 64.306 683.447 63.8639 683.52 63.4629C683.597 63.0573 683.711 62.7064 683.861 62.4102C684.012 62.1094 684.192 61.877 684.401 61.7129C684.616 61.5488 684.857 61.4668 685.126 61.4668C685.217 61.4668 685.313 61.4759 685.413 61.4941C685.518 61.5078 685.6 61.526 685.659 61.5488ZM688.619 68.1523L690.164 61.6035H692.16L689.727 70.1074C689.672 70.2943 689.597 70.4948 689.501 70.709C689.405 70.9277 689.278 71.1328 689.118 71.3242C688.963 71.5202 688.767 71.6797 688.53 71.8027C688.293 71.9258 688.008 71.9873 687.676 71.9873C687.507 71.9873 687.37 71.9759 687.266 71.9531C687.165 71.9349 687.038 71.903 686.883 71.8574V70.3672C686.924 70.3672 686.963 70.3672 686.999 70.3672C687.04 70.3717 687.079 70.374 687.115 70.374C687.329 70.374 687.5 70.3444 687.628 70.2852C687.756 70.2305 687.858 70.1439 687.936 70.0254C688.018 69.9069 688.086 69.7588 688.141 69.5811L688.619 68.1523ZM688.223 61.6035L689.371 66.9082L689.631 69.0684L688.339 69.1914L686.172 61.6035H688.223ZM695.305 69H693.391V61.2959C693.391 60.6579 693.502 60.1224 693.726 59.6895C693.953 59.252 694.282 58.9215 694.71 58.6982C695.143 58.4704 695.66 58.3564 696.262 58.3564C696.608 58.3564 696.936 58.3952 697.246 58.4727C697.561 58.5456 697.884 58.6413 698.217 58.7598L697.943 60.3867C697.743 60.3138 697.517 60.2454 697.267 60.1816C697.021 60.1133 696.729 60.0791 696.392 60.0791C696.022 60.0791 695.749 60.1816 695.571 60.3867C695.394 60.5918 695.305 60.8949 695.305 61.2959V69ZM696.446 61.6035V63.0459H692.488V61.6035H696.446ZM699.099 61.6035V69H697.178V61.6035H699.099ZM702.537 58.4932V69H700.623V58.4932H702.537ZM706.427 61.6035L703.822 65.2812L702.257 67.0381L701.58 65.582L702.783 63.8252L704.144 61.6035H706.427ZM704.431 69L702.817 65.6025L704.137 64.3857L706.625 69H704.431ZM710.583 67.2979V63.8799C710.583 63.6566 710.556 63.4788 710.501 63.3467C710.451 63.2145 710.373 63.1188 710.269 63.0596C710.168 62.9958 710.045 62.9639 709.899 62.9639C709.735 62.9639 709.599 62.998 709.489 63.0664C709.38 63.1348 709.298 63.2327 709.243 63.3604C709.193 63.488 709.168 63.6406 709.168 63.8184H707.247C707.247 63.4993 707.309 63.1986 707.432 62.916C707.555 62.6289 707.735 62.3783 707.972 62.1641C708.213 61.9453 708.5 61.7744 708.833 61.6514C709.166 61.5283 709.539 61.4668 709.954 61.4668C710.446 61.4668 710.884 61.5511 711.267 61.7197C711.649 61.8838 711.952 62.1458 712.176 62.5059C712.399 62.8659 712.511 63.333 712.511 63.9072V67.2021C712.511 67.6169 712.531 67.9541 712.572 68.2139C712.618 68.4736 712.684 68.6969 712.771 68.8838V69H710.843C710.756 68.7949 710.69 68.5397 710.645 68.2344C710.604 67.9245 710.583 67.6123 710.583 67.2979ZM710.815 64.4814L710.822 65.6299H710.118C709.936 65.6299 709.776 65.6595 709.64 65.7188C709.507 65.778 709.396 65.8623 709.305 65.9717C709.214 66.0765 709.145 66.1995 709.1 66.3408C709.059 66.4821 709.038 66.6325 709.038 66.792C709.038 66.9697 709.063 67.1201 709.113 67.2432C709.163 67.3662 709.239 67.4596 709.339 67.5234C709.439 67.5872 709.558 67.6191 709.694 67.6191C709.904 67.6191 710.086 67.5758 710.241 67.4893C710.396 67.4027 710.51 67.2979 710.583 67.1748C710.66 67.0518 710.686 66.9378 710.658 66.833L711.096 67.5781C711.041 67.7467 710.966 67.9222 710.87 68.1045C710.779 68.2868 710.663 68.4554 710.521 68.6104C710.38 68.7653 710.205 68.8929 709.995 68.9932C709.79 69.0889 709.546 69.1367 709.264 69.1367C708.867 69.1367 708.505 69.0456 708.177 68.8633C707.849 68.681 707.589 68.4258 707.397 68.0977C707.211 67.7695 707.117 67.3799 707.117 66.9287C707.117 66.555 707.176 66.2178 707.295 65.917C707.418 65.6117 707.6 65.3542 707.842 65.1445C708.083 64.9303 708.389 64.7663 708.758 64.6523C709.127 64.5384 709.56 64.4814 710.057 64.4814H710.815ZM716.599 67.5439C716.776 67.5439 716.929 67.5075 717.057 67.4346C717.189 67.3617 717.289 67.2432 717.357 67.0791C717.426 66.915 717.462 66.7031 717.467 66.4434H719.265C719.265 66.9993 719.146 67.4801 718.909 67.8857C718.677 68.2868 718.362 68.5967 717.966 68.8154C717.574 69.0296 717.13 69.1367 716.633 69.1367C716.136 69.1367 715.703 69.057 715.334 68.8975C714.965 68.738 714.66 68.5055 714.418 68.2002C714.181 67.8949 714.001 67.5234 713.878 67.0859C713.759 66.6439 713.7 66.138 713.7 65.5684V65.0283C713.7 64.4678 713.759 63.9665 713.878 63.5244C714.001 63.0824 714.181 62.7087 714.418 62.4033C714.66 62.098 714.963 61.8656 715.327 61.7061C715.696 61.5465 716.129 61.4668 716.626 61.4668C717.159 61.4668 717.622 61.5785 718.014 61.8018C718.406 62.0205 718.711 62.3441 718.93 62.7725C719.153 63.2008 719.265 63.7295 719.265 64.3584H717.467C717.462 64.0758 717.428 63.8411 717.364 63.6543C717.305 63.4629 717.212 63.3171 717.084 63.2168C716.961 63.112 716.797 63.0596 716.592 63.0596C716.378 63.0596 716.204 63.1051 716.072 63.1963C715.945 63.2829 715.847 63.4105 715.778 63.5791C715.715 63.7432 715.671 63.9482 715.648 64.1943C715.626 64.4404 715.614 64.7184 715.614 65.0283V65.5684C715.614 65.901 715.623 66.1904 715.642 66.4365C715.664 66.6781 715.708 66.8831 715.771 67.0518C715.84 67.2158 715.938 67.3389 716.065 67.4209C716.198 67.5029 716.375 67.5439 716.599 67.5439ZM720.454 61.6035H722.382V69.4102C722.382 69.9661 722.293 70.4355 722.115 70.8184C721.942 71.2012 721.691 71.4906 721.363 71.6865C721.035 71.887 720.639 71.9873 720.174 71.9873C720.023 71.9873 719.875 71.9782 719.729 71.96C719.584 71.9417 719.436 71.9121 719.285 71.8711L719.292 70.3125C719.383 70.3307 719.472 70.3444 719.559 70.3535C719.641 70.3626 719.723 70.3672 719.805 70.3672C719.951 70.3672 720.071 70.333 720.167 70.2646C720.263 70.2008 720.333 70.0983 720.379 69.957C720.429 69.8158 720.454 69.6335 720.454 69.4102V61.6035ZM720.324 59.6895C720.324 59.3932 720.42 59.1494 720.611 58.958C720.803 58.762 721.056 58.6641 721.37 58.6641C721.689 58.6641 721.944 58.762 722.136 58.958C722.327 59.1494 722.423 59.3932 722.423 59.6895C722.423 59.9811 722.327 60.2249 722.136 60.4209C721.944 60.6123 721.689 60.708 721.37 60.708C721.056 60.708 720.803 60.6123 720.611 60.4209C720.42 60.2249 720.324 59.9811 720.324 59.6895ZM727.058 67.2979V63.8799C727.058 63.6566 727.03 63.4788 726.976 63.3467C726.925 63.2145 726.848 63.1188 726.743 63.0596C726.643 62.9958 726.52 62.9639 726.374 62.9639C726.21 62.9639 726.073 62.998 725.964 63.0664C725.854 63.1348 725.772 63.2327 725.718 63.3604C725.668 63.488 725.643 63.6406 725.643 63.8184H723.722C723.722 63.4993 723.783 63.1986 723.906 62.916C724.029 62.6289 724.209 62.3783 724.446 62.1641C724.688 61.9453 724.975 61.7744 725.308 61.6514C725.64 61.5283 726.014 61.4668 726.429 61.4668C726.921 61.4668 727.358 61.5511 727.741 61.7197C728.124 61.8838 728.427 62.1458 728.65 62.5059C728.874 62.8659 728.985 63.333 728.985 63.9072V67.2021C728.985 67.6169 729.006 67.9541 729.047 68.2139C729.092 68.4736 729.159 68.6969 729.245 68.8838V69H727.317C727.231 68.7949 727.165 68.5397 727.119 68.2344C727.078 67.9245 727.058 67.6123 727.058 67.2979ZM727.29 64.4814L727.297 65.6299H726.593C726.41 65.6299 726.251 65.6595 726.114 65.7188C725.982 65.778 725.87 65.8623 725.779 65.9717C725.688 66.0765 725.62 66.1995 725.574 66.3408C725.533 66.4821 725.513 66.6325 725.513 66.792C725.513 66.9697 725.538 67.1201 725.588 67.2432C725.638 67.3662 725.713 67.4596 725.813 67.5234C725.914 67.5872 726.032 67.6191 726.169 67.6191C726.379 67.6191 726.561 67.5758 726.716 67.4893C726.871 67.4027 726.985 67.2979 727.058 67.1748C727.135 67.0518 727.16 66.9378 727.133 66.833L727.57 67.5781C727.516 67.7467 727.44 67.9222 727.345 68.1045C727.254 68.2868 727.137 68.4554 726.996 68.6104C726.855 68.7653 726.679 68.8929 726.47 68.9932C726.265 69.0889 726.021 69.1367 725.738 69.1367C725.342 69.1367 724.979 69.0456 724.651 68.8633C724.323 68.681 724.063 68.4258 723.872 68.0977C723.685 67.7695 723.592 67.3799 723.592 66.9287C723.592 66.555 723.651 66.2178 723.77 65.917C723.893 65.6117 724.075 65.3542 724.316 65.1445C724.558 64.9303 724.863 64.7663 725.232 64.6523C725.602 64.5384 726.035 64.4814 726.531 64.4814H727.29ZM672.097 75.6035V83H670.176V75.6035H672.097ZM670.087 73.6895C670.087 73.3932 670.18 73.1494 670.367 72.958C670.559 72.762 670.814 72.6641 671.133 72.6641C671.456 72.6641 671.712 72.762 671.898 72.958C672.085 73.1494 672.179 73.3932 672.179 73.6895C672.179 73.9811 672.083 74.2249 671.892 74.4209C671.705 74.6123 671.454 74.708 671.14 74.708C670.816 74.708 670.559 74.6123 670.367 74.4209C670.18 74.2249 670.087 73.9811 670.087 73.6895ZM678.755 77.0254V85.8438H676.848V75.6035H678.611L678.755 77.0254ZM682.597 79.0488V79.541C682.597 80.1198 682.547 80.6325 682.446 81.0791C682.346 81.5212 682.196 81.8971 681.995 82.207C681.799 82.5124 681.553 82.7448 681.257 82.9043C680.961 83.0592 680.614 83.1367 680.218 83.1367C679.849 83.1367 679.53 83.0501 679.261 82.877C678.996 82.6992 678.773 82.4554 678.591 82.1455C678.409 81.8356 678.263 81.4733 678.153 81.0586C678.044 80.6439 677.96 80.1995 677.9 79.7256V78.96C677.955 78.4541 678.035 77.9893 678.14 77.5654C678.244 77.137 678.388 76.7656 678.57 76.4512C678.757 76.1367 678.983 75.8952 679.247 75.7266C679.516 75.5534 679.835 75.4668 680.204 75.4668C680.605 75.4668 680.954 75.5397 681.25 75.6855C681.551 75.8314 681.799 76.0524 681.995 76.3486C682.196 76.6403 682.346 77.0117 682.446 77.4629C682.547 77.9141 682.597 78.4427 682.597 79.0488ZM680.683 79.541V79.0488C680.683 78.6934 680.662 78.3903 680.621 78.1396C680.585 77.889 680.525 77.6839 680.443 77.5244C680.361 77.3649 680.254 77.2487 680.122 77.1758C679.99 77.1029 679.828 77.0664 679.637 77.0664C679.45 77.0664 679.286 77.1029 679.145 77.1758C679.008 77.2487 678.896 77.3558 678.81 77.4971C678.723 77.6338 678.657 77.8024 678.611 78.0029C678.566 78.1989 678.541 78.4222 678.536 78.6729V80.0127C678.545 80.3089 678.584 80.571 678.652 80.7988C678.725 81.0267 678.841 81.209 679.001 81.3457C679.16 81.4779 679.377 81.5439 679.65 81.5439C679.846 81.5439 680.008 81.5029 680.136 81.4209C680.268 81.3389 680.375 81.2158 680.457 81.0518C680.539 80.8877 680.596 80.6803 680.628 80.4297C680.664 80.179 680.683 79.8828 680.683 79.541ZM686.719 76.458V77.5859L683.396 78.8643V77.7363L686.719 76.458ZM685.974 72.5V83H684.053V72.5H685.974ZM691.039 81.2979V77.8799C691.039 77.6566 691.012 77.4788 690.957 77.3467C690.907 77.2145 690.829 77.1188 690.725 77.0596C690.624 76.9958 690.501 76.9639 690.355 76.9639C690.191 76.9639 690.055 76.998 689.945 77.0664C689.836 77.1348 689.754 77.2327 689.699 77.3604C689.649 77.488 689.624 77.6406 689.624 77.8184H687.703C687.703 77.4993 687.765 77.1986 687.888 76.916C688.011 76.6289 688.191 76.3783 688.428 76.1641C688.669 75.9453 688.956 75.7744 689.289 75.6514C689.622 75.5283 689.995 75.4668 690.41 75.4668C690.902 75.4668 691.34 75.5511 691.723 75.7197C692.105 75.8838 692.409 76.1458 692.632 76.5059C692.855 76.8659 692.967 77.333 692.967 77.9072V81.2021C692.967 81.6169 692.987 81.9541 693.028 82.2139C693.074 82.4736 693.14 82.6969 693.227 82.8838V83H691.299C691.212 82.7949 691.146 82.5397 691.101 82.2344C691.06 81.9245 691.039 81.6123 691.039 81.2979ZM691.271 78.4814L691.278 79.6299H690.574C690.392 79.6299 690.232 79.6595 690.096 79.7188C689.964 79.778 689.852 79.8623 689.761 79.9717C689.67 80.0765 689.601 80.1995 689.556 80.3408C689.515 80.4821 689.494 80.6325 689.494 80.792C689.494 80.9697 689.519 81.1201 689.569 81.2432C689.619 81.3662 689.695 81.4596 689.795 81.5234C689.895 81.5872 690.014 81.6191 690.15 81.6191C690.36 81.6191 690.542 81.5758 690.697 81.4893C690.852 81.4027 690.966 81.2979 691.039 81.1748C691.117 81.0518 691.142 80.9378 691.114 80.833L691.552 81.5781C691.497 81.7467 691.422 81.9222 691.326 82.1045C691.235 82.2868 691.119 82.4554 690.978 82.6104C690.836 82.7653 690.661 82.8929 690.451 82.9932C690.246 83.0889 690.002 83.1367 689.72 83.1367C689.323 83.1367 688.961 83.0456 688.633 82.8633C688.305 82.681 688.045 82.4258 687.854 82.0977C687.667 81.7695 687.573 81.3799 687.573 80.9287C687.573 80.555 687.632 80.2178 687.751 79.917C687.874 79.6117 688.056 79.3542 688.298 79.1445C688.539 78.9303 688.845 78.7663 689.214 78.6523C689.583 78.5384 690.016 78.4814 690.513 78.4814H691.271ZM697.608 75.6035V77.0459H693.835V75.6035H697.608ZM694.703 73.7783H696.61V80.7441C696.61 80.9492 696.631 81.1064 696.672 81.2158C696.713 81.3252 696.774 81.4027 696.856 81.4482C696.943 81.4893 697.057 81.5098 697.198 81.5098C697.294 81.5098 697.383 81.5052 697.465 81.4961C697.547 81.4824 697.608 81.4688 697.649 81.4551V82.9521C697.499 83.0114 697.34 83.057 697.171 83.0889C697.007 83.1208 696.811 83.1367 696.583 83.1367C696.2 83.1367 695.868 83.0638 695.585 82.918C695.307 82.7721 695.09 82.5397 694.936 82.2207C694.781 81.8971 694.703 81.4733 694.703 80.9492V73.7783ZM700.555 77.1826V83H698.634V75.6035H700.432L700.555 77.1826ZM700.268 79.0488L699.755 79.0625C699.746 78.5065 699.798 78.0075 699.912 77.5654C700.031 77.1234 700.197 76.7474 700.411 76.4375C700.63 76.123 700.89 75.8838 701.19 75.7197C701.496 75.5511 701.835 75.4668 702.209 75.4668C702.496 75.4668 702.758 75.5169 702.995 75.6172C703.237 75.7174 703.444 75.877 703.617 76.0957C703.79 76.3145 703.925 76.6061 704.021 76.9707C704.116 77.3307 704.164 77.7728 704.164 78.2969V83H702.243V78.2832C702.243 77.9642 702.211 77.7181 702.147 77.5449C702.084 77.3672 701.988 77.2441 701.86 77.1758C701.733 77.1029 701.573 77.0664 701.382 77.0664C701.2 77.0664 701.038 77.1188 700.896 77.2236C700.755 77.3239 700.637 77.4629 700.541 77.6406C700.45 77.8184 700.379 78.028 700.329 78.2695C700.284 78.5111 700.263 78.7708 700.268 79.0488ZM705.347 79.5547V79.0557C705.347 78.4769 705.415 77.9642 705.552 77.5176C705.693 77.071 705.894 76.6973 706.153 76.3965C706.413 76.0911 706.725 75.861 707.09 75.7061C707.459 75.5465 707.871 75.4668 708.327 75.4668C708.787 75.4668 709.2 75.5465 709.564 75.7061C709.934 75.861 710.248 76.0911 710.508 76.3965C710.772 76.6973 710.975 77.071 711.116 77.5176C711.257 77.9642 711.328 78.4769 711.328 79.0557V79.5547C711.328 80.1289 711.257 80.6393 711.116 81.0859C710.975 81.5326 710.772 81.9085 710.508 82.2139C710.248 82.5192 709.936 82.7493 709.571 82.9043C709.207 83.0592 708.797 83.1367 708.341 83.1367C707.885 83.1367 707.473 83.0592 707.104 82.9043C706.739 82.7493 706.424 82.5192 706.16 82.2139C705.896 81.9085 705.693 81.5326 705.552 81.0859C705.415 80.6393 705.347 80.1289 705.347 79.5547ZM707.261 79.0557V79.5547C707.261 79.8965 707.284 80.1927 707.329 80.4434C707.379 80.694 707.45 80.9014 707.541 81.0654C707.637 81.2295 707.751 81.3503 707.883 81.4277C708.015 81.5052 708.168 81.5439 708.341 81.5439C708.514 81.5439 708.669 81.5052 708.806 81.4277C708.942 81.3503 709.054 81.2295 709.141 81.0654C709.232 80.9014 709.298 80.694 709.339 80.4434C709.384 80.1927 709.407 79.8965 709.407 79.5547V79.0557C709.407 78.723 709.382 78.4313 709.332 78.1807C709.282 77.9255 709.211 77.7181 709.12 77.5586C709.029 77.3945 708.915 77.2715 708.778 77.1895C708.646 77.1029 708.496 77.0596 708.327 77.0596C708.159 77.0596 708.008 77.1029 707.876 77.1895C707.748 77.2715 707.637 77.3945 707.541 77.5586C707.45 77.7181 707.379 77.9255 707.329 78.1807C707.284 78.4313 707.261 78.723 707.261 79.0557ZM715.819 81.0039C715.819 80.8763 715.776 80.7624 715.689 80.6621C715.603 80.5618 715.466 80.4593 715.279 80.3545C715.092 80.2451 714.844 80.1243 714.534 79.9922C714.197 79.8555 713.898 79.7142 713.639 79.5684C713.379 79.4225 713.158 79.2607 712.976 79.083C712.798 78.9053 712.663 78.7025 712.572 78.4746C712.481 78.2467 712.436 77.987 712.436 77.6953C712.436 77.3809 712.493 77.0915 712.606 76.8271C712.725 76.5583 712.894 76.3236 713.112 76.123C713.331 75.918 713.598 75.7585 713.912 75.6445C714.231 75.526 714.589 75.4668 714.985 75.4668C715.541 75.4668 716.018 75.5648 716.414 75.7607C716.815 75.9521 717.123 76.221 717.337 76.5674C717.551 76.9137 717.658 77.3171 717.658 77.7773H715.744C715.744 77.6133 715.719 77.4674 715.669 77.3398C715.619 77.2077 715.537 77.1051 715.423 77.0322C715.313 76.9593 715.165 76.9229 714.979 76.9229C714.842 76.9229 714.719 76.9525 714.609 77.0117C714.505 77.071 714.42 77.1507 714.356 77.251C714.297 77.3467 714.268 77.4606 714.268 77.5928C714.268 77.693 714.288 77.7819 714.329 77.8594C714.375 77.9368 714.445 78.012 714.541 78.085C714.637 78.1579 714.764 78.2354 714.924 78.3174C715.088 78.3949 715.288 78.4814 715.525 78.5771C716.018 78.7594 716.421 78.9554 716.735 79.165C717.054 79.3747 717.291 79.6208 717.446 79.9033C717.601 80.1813 717.679 80.5254 717.679 80.9355C717.679 81.2637 717.615 81.5622 717.487 81.8311C717.364 82.0999 717.184 82.3324 716.947 82.5283C716.71 82.7243 716.425 82.8747 716.093 82.9795C715.765 83.0843 715.398 83.1367 714.992 83.1367C714.395 83.1367 713.892 83.0182 713.481 82.7812C713.071 82.5443 712.761 82.2412 712.552 81.8721C712.342 81.4984 712.237 81.111 712.237 80.71H714.056C714.065 80.9561 714.11 81.1497 714.192 81.291C714.279 81.4277 714.395 81.5234 714.541 81.5781C714.687 81.6328 714.849 81.6602 715.026 81.6602C715.204 81.6602 715.35 81.6374 715.464 81.5918C715.582 81.5417 715.671 81.4665 715.73 81.3662C715.79 81.2614 715.819 81.1406 715.819 81.0039ZM714.076 74.6123L715.416 72.5H717.569L715.683 74.6123H714.076ZM721.568 81.5439C721.746 81.5439 721.899 81.5075 722.026 81.4346C722.159 81.3617 722.259 81.2432 722.327 81.0791C722.396 80.915 722.432 80.7031 722.437 80.4434H724.234C724.234 80.9993 724.116 81.4801 723.879 81.8857C723.646 82.2868 723.332 82.5967 722.936 82.8154C722.544 83.0296 722.099 83.1367 721.603 83.1367C721.106 83.1367 720.673 83.057 720.304 82.8975C719.935 82.738 719.629 82.5055 719.388 82.2002C719.151 81.8949 718.971 81.5234 718.848 81.0859C718.729 80.6439 718.67 80.138 718.67 79.5684V79.0283C718.67 78.4678 718.729 77.9665 718.848 77.5244C718.971 77.0824 719.151 76.7087 719.388 76.4033C719.629 76.098 719.932 75.8656 720.297 75.7061C720.666 75.5465 721.099 75.4668 721.596 75.4668C722.129 75.4668 722.591 75.5785 722.983 75.8018C723.375 76.0205 723.681 76.3441 723.899 76.7725C724.123 77.2008 724.234 77.7295 724.234 78.3584H722.437C722.432 78.0758 722.398 77.8411 722.334 77.6543C722.275 77.4629 722.181 77.3171 722.054 77.2168C721.931 77.112 721.767 77.0596 721.562 77.0596C721.347 77.0596 721.174 77.1051 721.042 77.1963C720.914 77.2829 720.816 77.4105 720.748 77.5791C720.684 77.7432 720.641 77.9482 720.618 78.1943C720.595 78.4404 720.584 78.7184 720.584 79.0283V79.5684C720.584 79.901 720.593 80.1904 720.611 80.4365C720.634 80.6781 720.677 80.8831 720.741 81.0518C720.81 81.2158 720.908 81.3389 721.035 81.4209C721.167 81.5029 721.345 81.5439 721.568 81.5439ZM720.434 74.6123L721.773 72.5H723.927L722.04 74.6123H720.434Z" fill="#E0E0E9"/>
<path fill-rule="evenodd" clip-rule="evenodd" d="M690 33H400V31H690V33Z" fill="#D0CFD7"/>
<path fill-rule="evenodd" clip-rule="evenodd" d="M376 33H83V31H376V33Z" fill="url(#paint2_linear_363_3077)"/>
<g filter="url(#filter0_d_363_3077)">
<path d="M69 17C60.7125 17 54 23.7125 54 32C54 34.8125 54.7875 37.475 56.175 39.725C57.497 41.9468 59.3748 43.7861 61.6236 45.0617C63.8724 46.3373 66.4146 47.0053 69 47C74.475 47 79.2375 44.075 81.825 39.725C83.2125 37.475 84 34.8125 84 32C84 23.7125 77.2875 17 69 17ZM76.3875 30.7625L68.4 38.15C67.875 38.6375 67.1625 38.9 66.4875 38.9C65.775 38.9 65.0625 38.6375 64.5 38.075L60.7875 34.3625C60.2644 33.8332 59.9711 33.1191 59.9711 32.375C59.9711 31.6309 60.2644 30.9168 60.7875 30.3875C61.875 29.3 63.675 29.3 64.7625 30.3875L66.5625 32.1875L72.5625 26.6375C73.6875 25.5875 75.4875 25.6625 76.5375 26.7875C77.5875 27.9125 77.5125 29.7125 76.3875 30.7625Z" fill="url(#paint3_linear_363_3077)"/>
</g>
<g filter="url(#filter1_d_363_3077)">
<path d="M390 17C381.712 17 375 23.7125 375 32C375 34.8125 375.788 37.475 377.175 39.725C378.497 41.9468 380.375 43.7861 382.624 45.0617C384.872 46.3373 387.415 47.0053 390 47C395.475 47 400.238 44.075 402.825 39.725C404.213 37.475 405 34.8125 405 32C405 23.7125 398.288 17 390 17ZM397.387 30.7625L389.4 38.15C388.875 38.6375 388.162 38.9 387.487 38.9C386.775 38.9 386.062 38.6375 385.5 38.075L381.787 34.3625C381.264 33.8332 380.971 33.1191 380.971 32.375C380.971 31.6309 381.264 30.9168 381.787 30.3875C382.875 29.3 384.675 29.3 385.762 30.3875L387.562 32.1875L393.562 26.6375C394.687 25.5875 396.488 25.6625 397.538 26.7875C398.588 27.9125 398.512 29.7125 397.387 30.7625Z" fill="url(#paint4_linear_363_3077)"/>
</g>
<circle cx="696.5" cy="32.5" r="14.5" fill="#D0CFD7"/>
<defs>
<filter id="filter0_d_363_3077" x="37" y="0" width="74" height="74" filterUnits="userSpaceOnUse" color-interpolation-filters="sRGB">
<feFlood flood-opacity="0" result="BackgroundImageFix"/>
<feColorMatrix in="SourceAlpha" type="matrix" values="0 0 0 0 0 0 0 0 0 0 0 0 0 0 0 0 0 0 127 0" result="hardAlpha"/>
<feOffset dx="5" dy="5"/>
<feGaussianBlur stdDeviation="11"/>
<feComposite in2="hardAlpha" operator="out"/>
<feColorMatrix type="matrix" values="0 0 0 0 0.0392157 0 0 0 0 0.560784 0 0 0 0 0.309804 0 0 0 0.2 0"/>
<feBlend mode="normal" in2="BackgroundImageFix" result="effect1_dropShadow_363_3077"/>
<feBlend mode="normal" in="SourceGraphic" in2="effect1_dropShadow_363_3077" result="shape"/>
</filter>
<filter id="filter1_d_363_3077" x="358" y="0" width="74" height="74" filterUnits="userSpaceOnUse" color-interpolation-filters="sRGB">
<feFlood flood-opacity="0" result="BackgroundImageFix"/>
<feColorMatrix in="SourceAlpha" type="matrix" values="0 0 0 0 0 0 0 0 0 0 0 0 0 0 0 0 0 0 127 0" result="hardAlpha"/>
<feOffset dx="5" dy="5"/>
<feGaussianBlur stdDeviation="11"/>
<feComposite in2="hardAlpha" operator="out"/>
<feColorMatrix type="matrix" values="0 0 0 0 0.0392157 0 0 0 0 0.560784 0 0 0 0 0.309804 0 0 0 0.2 0"/>
<feBlend mode="normal" in2="BackgroundImageFix" result="effect1_dropShadow_363_3077"/>
<feBlend mode="normal" in="SourceGraphic" in2="effect1_dropShadow_363_3077" result="shape"/>
</filter>
<linearGradient id="paint0_linear_363_3077" x1="68.5" y1="97" x2="68.5" y2="57" gradientUnits="userSpaceOnUse">
<stop stop-color="#5CCC94"/>
<stop offset="1" stop-color="#8CCAAE"/>
</linearGradient>
<linearGradient id="paint1_linear_363_3077" x1="392.5" y1="77" x2="392.5" y2="57" gradientUnits="userSpaceOnUse">
<stop stop-color="#5CCC94"/>
<stop offset="1" stop-color="#8CCAAE"/>
</linearGradient>
<linearGradient id="paint2_linear_363_3077" x1="229.5" y1="33" x2="229.5" y2="31" gradientUnits="userSpaceOnUse">
<stop stop-color="#5CCC94"/>
<stop offset="1" stop-color="#8CCAAE"/>
</linearGradient>
<linearGradient id="paint3_linear_363_3077" x1="69" y1="47" x2="69" y2="17" gradientUnits="userSpaceOnUse">
<stop stop-color="#5CCC94"/>
<stop offset="1" stop-color="#8CCAAE"/>
</linearGradient>
<linearGradient id="paint4_linear_363_3077" x1="390" y1="47" x2="390" y2="17" gradientUnits="userSpaceOnUse">
<stop stop-color="#5CCC94"/>
<stop offset="1" stop-color="#8CCAAE"/>
</linearGradient>
</defs>
</svg>
