<svg width="739" height="97" viewBox="0 0 739 97" fill="none" xmlns="http://www.w3.org/2000/svg">
<path d="M37.2803 62.0469V72H35.3457L32.2217 65.7725V72H30.3213V62.0469H32.2285L35.3799 68.3428V62.0469H37.2803ZM42.373 70.2227V64.6035H44.2939V72H42.4893L42.373 70.2227ZM42.5918 68.6982L43.125 68.6846C43.125 69.1813 43.0771 69.6416 42.9814 70.0654C42.8857 70.4847 42.7422 70.8493 42.5508 71.1592C42.3594 71.4691 42.1201 71.7106 41.833 71.8838C41.5459 72.0524 41.2064 72.1367 40.8145 72.1367C40.5137 72.1367 40.2357 72.0866 39.9805 71.9863C39.7298 71.8815 39.5133 71.7197 39.3311 71.501C39.1488 71.2777 39.0052 70.9928 38.9004 70.6465C38.8001 70.2956 38.75 69.874 38.75 69.3818V64.6035H40.6709V69.4023C40.6709 69.6029 40.6891 69.776 40.7256 69.9219C40.762 70.0632 40.8122 70.1794 40.876 70.2705C40.9398 70.3617 41.015 70.4277 41.1016 70.4688C41.1882 70.5052 41.2861 70.5234 41.3955 70.5234C41.6963 70.5234 41.9333 70.446 42.1064 70.291C42.2842 70.1315 42.4095 69.915 42.4824 69.6416C42.5553 69.3636 42.5918 69.0492 42.5918 68.6982ZM47.6162 66.1348V72H45.6953V64.6035H47.5L47.6162 66.1348ZM47.3428 68.0488L46.8164 68.0625C46.8073 67.543 46.8529 67.0645 46.9531 66.627C47.0534 66.1895 47.2038 65.8089 47.4043 65.4854C47.6094 65.1618 47.8669 64.9111 48.1768 64.7334C48.4867 64.5557 48.849 64.4668 49.2637 64.4668C49.5326 64.4668 49.7809 64.5169 50.0088 64.6172C50.2367 64.7129 50.4349 64.8656 50.6035 65.0752C50.7721 65.2803 50.902 65.5492 50.9932 65.8818C51.0843 66.21 51.1299 66.6042 51.1299 67.0645V72H49.2158V67.2969C49.2158 66.9688 49.1839 66.7181 49.1201 66.5449C49.0563 66.3672 48.9652 66.2441 48.8467 66.1758C48.7282 66.1029 48.5824 66.0664 48.4092 66.0664C48.2269 66.0664 48.0674 66.1165 47.9307 66.2168C47.7939 66.3171 47.6823 66.4583 47.5957 66.6406C47.5137 66.8184 47.4499 67.028 47.4043 67.2695C47.3633 67.5111 47.3428 67.7708 47.3428 68.0488ZM50.9453 67.8574L50.2549 67.9463C50.2458 67.4587 50.2891 67.0052 50.3848 66.5859C50.4805 66.1621 50.6286 65.793 50.8291 65.4785C51.0296 65.1595 51.2803 64.9111 51.5811 64.7334C51.8864 64.5557 52.2396 64.4668 52.6406 64.4668C52.9414 64.4668 53.2148 64.5169 53.4609 64.6172C53.707 64.7174 53.9167 64.8792 54.0898 65.1025C54.2676 65.3213 54.402 65.6107 54.4932 65.9707C54.5889 66.3307 54.6367 66.7682 54.6367 67.2832V72H52.7158V67.29C52.7158 66.9574 52.6839 66.7021 52.6201 66.5244C52.5563 66.3467 52.4652 66.2259 52.3467 66.1621C52.2282 66.0983 52.0869 66.0664 51.9229 66.0664C51.7588 66.0664 51.6152 66.112 51.4922 66.2031C51.3737 66.2943 51.2734 66.4219 51.1914 66.5859C51.1094 66.7454 51.0479 66.9346 51.0068 67.1533C50.9658 67.3675 50.9453 67.6022 50.9453 67.8574ZM59.0596 72.1367C58.5537 72.1367 58.1048 72.0592 57.7129 71.9043C57.3255 71.7493 56.9974 71.526 56.7285 71.2344C56.4596 70.9382 56.2546 70.5804 56.1133 70.1611C55.972 69.7419 55.9014 69.2633 55.9014 68.7256V68.1172C55.9014 67.5156 55.9697 66.9893 56.1064 66.5381C56.2432 66.0824 56.4368 65.6995 56.6875 65.3896C56.9382 65.0798 57.2458 64.8496 57.6104 64.6992C57.9795 64.5443 58.3965 64.4668 58.8613 64.4668C59.3262 64.4668 59.734 64.5443 60.085 64.6992C60.4404 64.8496 60.7344 65.0775 60.9668 65.3828C61.1992 65.6836 61.3747 66.0573 61.4932 66.5039C61.6117 66.9505 61.6709 67.4701 61.6709 68.0625V68.9375H56.7148V67.5908H59.791V67.4199C59.791 67.1191 59.7591 66.8685 59.6953 66.668C59.6315 66.4629 59.5312 66.3102 59.3945 66.21C59.2578 66.1097 59.0755 66.0596 58.8477 66.0596C58.6562 66.0596 58.4945 66.0983 58.3623 66.1758C58.2301 66.2533 58.1253 66.374 58.0479 66.5381C57.9704 66.7021 57.9134 66.9163 57.877 67.1807C57.8405 67.4404 57.8223 67.7526 57.8223 68.1172V68.7256C57.8223 69.0674 57.8519 69.3545 57.9111 69.5869C57.9704 69.8148 58.057 70.0016 58.1709 70.1475C58.2894 70.2887 58.4329 70.3913 58.6016 70.4551C58.7702 70.5143 58.9661 70.5439 59.1895 70.5439C59.5267 70.5439 59.8298 70.4847 60.0986 70.3662C60.3721 70.2432 60.6045 70.0768 60.7959 69.8672L61.5615 71.0293C61.4294 71.2025 61.2471 71.3757 61.0146 71.5488C60.7822 71.722 60.5042 71.8633 60.1807 71.9727C59.8571 72.082 59.4834 72.1367 59.0596 72.1367ZM64.6924 66.251V72H62.7783V64.6035H64.583L64.6924 66.251ZM66.4355 64.5488L66.4082 66.4561C66.3216 66.4378 66.2168 66.4242 66.0938 66.415C65.9753 66.4059 65.8704 66.4014 65.7793 66.4014C65.5651 66.4014 65.3828 66.4355 65.2324 66.5039C65.082 66.5677 64.9567 66.6657 64.8564 66.7979C64.7607 66.9255 64.6878 67.085 64.6377 67.2764C64.5876 67.4678 64.5579 67.6842 64.5488 67.9258L64.1865 67.7891C64.1865 67.306 64.223 66.8639 64.2959 66.4629C64.3734 66.0573 64.4873 65.7064 64.6377 65.4102C64.7881 65.1094 64.9681 64.877 65.1777 64.7129C65.3919 64.5488 65.6335 64.4668 65.9023 64.4668C65.9935 64.4668 66.0892 64.4759 66.1895 64.4941C66.2943 64.5078 66.3763 64.526 66.4355 64.5488ZM73.8662 64.6035V66.0459H70.0928V64.6035H73.8662ZM70.9609 62.7783H72.8682V69.7441C72.8682 69.9492 72.8887 70.1064 72.9297 70.2158C72.9707 70.3252 73.0322 70.4027 73.1143 70.4482C73.2008 70.4893 73.3148 70.5098 73.4561 70.5098C73.5518 70.5098 73.6406 70.5052 73.7227 70.4961C73.8047 70.4824 73.8662 70.4688 73.9072 70.4551V71.9521C73.7568 72.0114 73.5973 72.057 73.4287 72.0889C73.2646 72.1208 73.0687 72.1367 72.8408 72.1367C72.458 72.1367 72.1253 72.0638 71.8428 71.918C71.5648 71.7721 71.3483 71.5397 71.1934 71.2207C71.0384 70.8971 70.9609 70.4733 70.9609 69.9492V62.7783ZM78.1934 70.2979V66.8799C78.1934 66.6566 78.166 66.4788 78.1113 66.3467C78.0612 66.2145 77.9837 66.1188 77.8789 66.0596C77.7786 65.9958 77.6556 65.9639 77.5098 65.9639C77.3457 65.9639 77.209 65.998 77.0996 66.0664C76.9902 66.1348 76.9082 66.2327 76.8535 66.3604C76.8034 66.488 76.7783 66.6406 76.7783 66.8184H74.8574C74.8574 66.4993 74.9189 66.1986 75.042 65.916C75.165 65.6289 75.3451 65.3783 75.582 65.1641C75.8236 64.9453 76.1107 64.7744 76.4434 64.6514C76.776 64.5283 77.1497 64.4668 77.5645 64.4668C78.0566 64.4668 78.4941 64.5511 78.877 64.7197C79.2598 64.8838 79.5628 65.1458 79.7861 65.5059C80.0094 65.8659 80.1211 66.333 80.1211 66.9072V70.2021C80.1211 70.6169 80.1416 70.9541 80.1826 71.2139C80.2282 71.4736 80.2943 71.6969 80.3809 71.8838V72H78.4531C78.3665 71.7949 78.3005 71.5397 78.2549 71.2344C78.2139 70.9245 78.1934 70.6123 78.1934 70.2979ZM78.4258 67.4814L78.4326 68.6299H77.7285C77.5462 68.6299 77.3867 68.6595 77.25 68.7188C77.1178 68.778 77.0062 68.8623 76.915 68.9717C76.8239 69.0765 76.7555 69.1995 76.71 69.3408C76.6689 69.4821 76.6484 69.6325 76.6484 69.792C76.6484 69.9697 76.6735 70.1201 76.7236 70.2432C76.7738 70.3662 76.849 70.4596 76.9492 70.5234C77.0495 70.5872 77.168 70.6191 77.3047 70.6191C77.5143 70.6191 77.6966 70.5758 77.8516 70.4893C78.0065 70.4027 78.1204 70.2979 78.1934 70.1748C78.2708 70.0518 78.2959 69.9378 78.2686 69.833L78.7061 70.5781C78.6514 70.7467 78.5762 70.9222 78.4805 71.1045C78.3893 71.2868 78.2731 71.4554 78.1318 71.6104C77.9906 71.7653 77.8151 71.8929 77.6055 71.9932C77.4004 72.0889 77.1566 72.1367 76.874 72.1367C76.4775 72.1367 76.1152 72.0456 75.7871 71.8633C75.459 71.681 75.1992 71.4258 75.0078 71.0977C74.821 70.7695 74.7275 70.3799 74.7275 69.9287C74.7275 69.555 74.7868 69.2178 74.9053 68.917C75.0283 68.6117 75.2106 68.3542 75.4521 68.1445C75.6937 67.9303 75.999 67.7663 76.3682 67.6523C76.7373 67.5384 77.1702 67.4814 77.667 67.4814H78.4258ZM81.543 61.5H83.4502V70.2842L83.3135 72H81.543V61.5ZM87.292 68.0557V68.541C87.292 69.1426 87.2441 69.6667 87.1484 70.1133C87.0573 70.5599 86.9137 70.9336 86.7178 71.2344C86.5264 71.5352 86.2803 71.7607 85.9795 71.9111C85.6787 72.0615 85.3232 72.1367 84.9131 72.1367C84.5439 72.1367 84.2272 72.0501 83.9629 71.877C83.6986 71.6992 83.4753 71.4554 83.293 71.1455C83.1152 70.8311 82.9694 70.4642 82.8555 70.0449C82.7461 69.6211 82.6663 69.1585 82.6162 68.6572V67.9395C82.6618 67.4473 82.7393 66.9893 82.8486 66.5654C82.9626 66.1416 83.1084 65.7747 83.2861 65.4648C83.4639 65.1504 83.6849 64.9066 83.9492 64.7334C84.2181 64.5557 84.5348 64.4668 84.8994 64.4668C85.3187 64.4668 85.6787 64.5443 85.9795 64.6992C86.2803 64.8496 86.5264 65.0752 86.7178 65.376C86.9137 65.6768 87.0573 66.0527 87.1484 66.5039C87.2441 66.9505 87.292 67.4678 87.292 68.0557ZM85.3848 68.541V68.0557C85.3848 67.7139 85.3711 67.4199 85.3438 67.1738C85.3164 66.9277 85.2663 66.7227 85.1934 66.5586C85.1204 66.3945 85.0156 66.2715 84.8789 66.1895C84.7467 66.1074 84.5713 66.0664 84.3525 66.0664C84.1566 66.0664 83.9925 66.1051 83.8604 66.1826C83.7282 66.2555 83.6143 66.3649 83.5186 66.5107C83.4274 66.652 83.359 66.8206 83.3135 67.0166C83.2725 67.208 83.2497 67.4199 83.2451 67.6523V68.9443C83.2497 69.2588 83.2884 69.5368 83.3613 69.7783C83.4342 70.0199 83.5505 70.2067 83.71 70.3389C83.874 70.471 84.0928 70.5371 84.3662 70.5371C84.5804 70.5371 84.7536 70.5007 84.8857 70.4277C85.0179 70.3548 85.1204 70.2386 85.1934 70.0791C85.2708 69.9196 85.321 69.7145 85.3438 69.4639C85.3711 69.2087 85.3848 68.901 85.3848 68.541ZM90.4775 61.5V72H88.5566V61.5H90.4775ZM94.0049 64.6035V72H92.084V64.6035H94.0049ZM91.9951 62.6895C91.9951 62.3932 92.0885 62.1494 92.2754 61.958C92.4668 61.762 92.722 61.6641 93.041 61.6641C93.3646 61.6641 93.6198 61.762 93.8066 61.958C93.9935 62.1494 94.0869 62.3932 94.0869 62.6895C94.0869 62.9811 93.9912 63.2249 93.7998 63.4209C93.613 63.6123 93.3623 63.708 93.0479 63.708C92.7243 63.708 92.4668 63.6123 92.2754 63.4209C92.0885 63.2249 91.9951 62.9811 91.9951 62.6895ZM98.1953 70.5439C98.373 70.5439 98.5257 70.5075 98.6533 70.4346C98.7855 70.3617 98.8857 70.2432 98.9541 70.0791C99.0225 69.915 99.0589 69.7031 99.0635 69.4434H100.861C100.861 69.9993 100.743 70.4801 100.506 70.8857C100.273 71.2868 99.959 71.5967 99.5625 71.8154C99.1706 72.0296 98.7262 72.1367 98.2295 72.1367C97.7327 72.1367 97.2998 72.057 96.9307 71.8975C96.5615 71.738 96.2562 71.5055 96.0146 71.2002C95.7777 70.8949 95.5977 70.5234 95.4746 70.0859C95.3561 69.6439 95.2969 69.138 95.2969 68.5684V68.0283C95.2969 67.4678 95.3561 66.9665 95.4746 66.5244C95.5977 66.0824 95.7777 65.7087 96.0146 65.4033C96.2562 65.098 96.5592 64.8656 96.9238 64.7061C97.293 64.5465 97.7259 64.4668 98.2227 64.4668C98.7559 64.4668 99.2184 64.5785 99.6104 64.8018C100.002 65.0205 100.308 65.3441 100.526 65.7725C100.75 66.2008 100.861 66.7295 100.861 67.3584H99.0635C99.0589 67.0758 99.0247 66.8411 98.9609 66.6543C98.9017 66.4629 98.8083 66.3171 98.6807 66.2168C98.5576 66.112 98.3936 66.0596 98.1885 66.0596C97.9743 66.0596 97.8011 66.1051 97.6689 66.1963C97.5413 66.2829 97.4434 66.4105 97.375 66.5791C97.3112 66.7432 97.2679 66.9482 97.2451 67.1943C97.2223 67.4404 97.2109 67.7184 97.2109 68.0283V68.5684C97.2109 68.901 97.2201 69.1904 97.2383 69.4365C97.2611 69.6781 97.3044 69.8831 97.3682 70.0518C97.4365 70.2158 97.5345 70.3389 97.6621 70.4209C97.7943 70.5029 97.972 70.5439 98.1953 70.5439ZM103.821 71.1523L105.366 64.6035H107.362L104.929 73.1074C104.874 73.2943 104.799 73.4948 104.703 73.709C104.607 73.9277 104.48 74.1328 104.32 74.3242C104.165 74.5202 103.969 74.6797 103.732 74.8027C103.495 74.9258 103.211 74.9873 102.878 74.9873C102.709 74.9873 102.573 74.9759 102.468 74.9531C102.368 74.9349 102.24 74.903 102.085 74.8574V73.3672C102.126 73.3672 102.165 73.3672 102.201 73.3672C102.242 73.3717 102.281 73.374 102.317 73.374C102.532 73.374 102.702 73.3444 102.83 73.2852C102.958 73.2305 103.06 73.1439 103.138 73.0254C103.22 72.9069 103.288 72.7588 103.343 72.5811L103.821 71.1523ZM103.425 64.6035L104.573 69.9082L104.833 72.0684L103.541 72.1914L101.374 64.6035H103.425ZM33.0557 86.251V92H31.1416V84.6035H32.9463L33.0557 86.251ZM34.7988 84.5488L34.7715 86.4561C34.6849 86.4378 34.5801 86.4242 34.457 86.415C34.3385 86.4059 34.2337 86.4014 34.1426 86.4014C33.9284 86.4014 33.7461 86.4355 33.5957 86.5039C33.4453 86.5677 33.32 86.6657 33.2197 86.7979C33.124 86.9255 33.0511 87.085 33.001 87.2764C32.9508 87.4678 32.9212 87.6842 32.9121 87.9258L32.5498 87.7891C32.5498 87.306 32.5863 86.8639 32.6592 86.4629C32.7367 86.0573 32.8506 85.7064 33.001 85.4102C33.1514 85.1094 33.3314 84.877 33.541 84.7129C33.7552 84.5488 33.9967 84.4668 34.2656 84.4668C34.3568 84.4668 34.4525 84.4759 34.5527 84.4941C34.6576 84.5078 34.7396 84.526 34.7988 84.5488ZM38.6201 92.1367C38.1143 92.1367 37.6654 92.0592 37.2734 91.9043C36.8861 91.7493 36.5579 91.526 36.2891 91.2344C36.0202 90.9382 35.8151 90.5804 35.6738 90.1611C35.5326 89.7419 35.4619 89.2633 35.4619 88.7256V88.1172C35.4619 87.5156 35.5303 86.9893 35.667 86.5381C35.8037 86.0824 35.9974 85.6995 36.248 85.3896C36.4987 85.0798 36.8063 84.8496 37.1709 84.6992C37.54 84.5443 37.957 84.4668 38.4219 84.4668C38.8867 84.4668 39.2946 84.5443 39.6455 84.6992C40.001 84.8496 40.2949 85.0775 40.5273 85.3828C40.7598 85.6836 40.9352 86.0573 41.0537 86.5039C41.1722 86.9505 41.2314 87.4701 41.2314 88.0625V88.9375H36.2754V87.5908H39.3516V87.4199C39.3516 87.1191 39.3197 86.8685 39.2559 86.668C39.1921 86.4629 39.0918 86.3102 38.9551 86.21C38.8184 86.1097 38.6361 86.0596 38.4082 86.0596C38.2168 86.0596 38.055 86.0983 37.9229 86.1758C37.7907 86.2533 37.6859 86.374 37.6084 86.5381C37.5309 86.7021 37.474 86.9163 37.4375 87.1807C37.401 87.4404 37.3828 87.7526 37.3828 88.1172V88.7256C37.3828 89.0674 37.4124 89.3545 37.4717 89.5869C37.5309 89.8148 37.6175 90.0016 37.7314 90.1475C37.8499 90.2887 37.9935 90.3913 38.1621 90.4551C38.3307 90.5143 38.5267 90.5439 38.75 90.5439C39.0872 90.5439 39.3903 90.4847 39.6592 90.3662C39.9326 90.2432 40.165 90.0768 40.3564 89.8672L41.1221 91.0293C40.9899 91.2025 40.8076 91.3757 40.5752 91.5488C40.3428 91.722 40.0648 91.8633 39.7412 91.9727C39.4176 92.082 39.0439 92.1367 38.6201 92.1367ZM42.4277 84.6035H44.3555V92.4102C44.3555 92.9661 44.2666 93.4355 44.0889 93.8184C43.9157 94.2012 43.665 94.4906 43.3369 94.6865C43.0088 94.887 42.6123 94.9873 42.1475 94.9873C41.9971 94.9873 41.849 94.9782 41.7031 94.96C41.5573 94.9417 41.4092 94.9121 41.2588 94.8711L41.2656 93.3125C41.3568 93.3307 41.4456 93.3444 41.5322 93.3535C41.6143 93.3626 41.6963 93.3672 41.7783 93.3672C41.9242 93.3672 42.0449 93.333 42.1406 93.2646C42.2363 93.2008 42.307 93.0983 42.3525 92.957C42.4027 92.8158 42.4277 92.6335 42.4277 92.4102V84.6035ZM42.2979 82.6895C42.2979 82.3932 42.3936 82.1494 42.585 81.958C42.7764 81.762 43.0293 81.6641 43.3438 81.6641C43.6628 81.6641 43.918 81.762 44.1094 81.958C44.3008 82.1494 44.3965 82.3932 44.3965 82.6895C44.3965 82.9811 44.3008 83.2249 44.1094 83.4209C43.918 83.6123 43.6628 83.708 43.3438 83.708C43.0293 83.708 42.7764 83.6123 42.585 83.4209C42.3936 83.2249 42.2979 82.9811 42.2979 82.6895ZM48.751 92.1367C48.2451 92.1367 47.7962 92.0592 47.4043 91.9043C47.0169 91.7493 46.6888 91.526 46.4199 91.2344C46.151 90.9382 45.946 90.5804 45.8047 90.1611C45.6634 89.7419 45.5928 89.2633 45.5928 88.7256V88.1172C45.5928 87.5156 45.6611 86.9893 45.7979 86.5381C45.9346 86.0824 46.1283 85.6995 46.3789 85.3896C46.6296 85.0798 46.9372 84.8496 47.3018 84.6992C47.6709 84.5443 48.0879 84.4668 48.5527 84.4668C49.0176 84.4668 49.4255 84.5443 49.7764 84.6992C50.1318 84.8496 50.4258 85.0775 50.6582 85.3828C50.8906 85.6836 51.0661 86.0573 51.1846 86.5039C51.3031 86.9505 51.3623 87.4701 51.3623 88.0625V88.9375H46.4062V87.5908H49.4824V87.4199C49.4824 87.1191 49.4505 86.8685 49.3867 86.668C49.3229 86.4629 49.2227 86.3102 49.0859 86.21C48.9492 86.1097 48.7669 86.0596 48.5391 86.0596C48.3477 86.0596 48.1859 86.0983 48.0537 86.1758C47.9215 86.2533 47.8167 86.374 47.7393 86.5381C47.6618 86.7021 47.6048 86.9163 47.5684 87.1807C47.5319 87.4404 47.5137 87.7526 47.5137 88.1172V88.7256C47.5137 89.0674 47.5433 89.3545 47.6025 89.5869C47.6618 89.8148 47.7484 90.0016 47.8623 90.1475C47.9808 90.2887 48.1243 90.3913 48.293 90.4551C48.4616 90.5143 48.6576 90.5439 48.8809 90.5439C49.2181 90.5439 49.5212 90.4847 49.79 90.3662C50.0635 90.2432 50.2959 90.0768 50.4873 89.8672L51.2529 91.0293C51.1208 91.2025 50.9385 91.3757 50.7061 91.5488C50.4736 91.722 50.1956 91.8633 49.8721 91.9727C49.5485 92.082 49.1748 92.1367 48.751 92.1367ZM55.751 90.0039C55.751 89.8763 55.7077 89.7624 55.6211 89.6621C55.5345 89.5618 55.3978 89.4593 55.2109 89.3545C55.0241 89.2451 54.7757 89.1243 54.4658 88.9922C54.1286 88.8555 53.8301 88.7142 53.5703 88.5684C53.3105 88.4225 53.0895 88.2607 52.9072 88.083C52.7295 87.9053 52.5951 87.7025 52.5039 87.4746C52.4128 87.2467 52.3672 86.987 52.3672 86.6953C52.3672 86.3809 52.4242 86.0915 52.5381 85.8271C52.6566 85.5583 52.8252 85.3236 53.0439 85.123C53.2627 84.918 53.5293 84.7585 53.8438 84.6445C54.1628 84.526 54.5205 84.4668 54.917 84.4668C55.473 84.4668 55.9492 84.5648 56.3457 84.7607C56.7467 84.9521 57.0544 85.221 57.2686 85.5674C57.4827 85.9137 57.5898 86.3171 57.5898 86.7773H55.6758C55.6758 86.6133 55.6507 86.4674 55.6006 86.3398C55.5505 86.2077 55.4684 86.1051 55.3545 86.0322C55.2451 85.9593 55.097 85.9229 54.9102 85.9229C54.7734 85.9229 54.6504 85.9525 54.541 86.0117C54.4362 86.071 54.3519 86.1507 54.2881 86.251C54.2288 86.3467 54.1992 86.4606 54.1992 86.5928C54.1992 86.693 54.2197 86.7819 54.2607 86.8594C54.3063 86.9368 54.377 87.012 54.4727 87.085C54.5684 87.1579 54.696 87.2354 54.8555 87.3174C55.0195 87.3949 55.2201 87.4814 55.457 87.5771C55.9492 87.7594 56.3525 87.9554 56.667 88.165C56.986 88.3747 57.223 88.6208 57.3779 88.9033C57.5329 89.1813 57.6104 89.5254 57.6104 89.9355C57.6104 90.2637 57.5465 90.5622 57.4189 90.8311C57.2959 91.0999 57.1159 91.3324 56.8789 91.5283C56.6419 91.7243 56.3571 91.8747 56.0244 91.9795C55.6963 92.0843 55.3294 92.1367 54.9238 92.1367C54.3268 92.1367 53.8232 92.0182 53.4131 91.7812C53.0029 91.5443 52.693 91.2412 52.4834 90.8721C52.2738 90.4984 52.1689 90.111 52.1689 89.71H53.9873C53.9964 89.9561 54.042 90.1497 54.124 90.291C54.2106 90.4277 54.3268 90.5234 54.4727 90.5781C54.6185 90.6328 54.7803 90.6602 54.958 90.6602C55.1357 90.6602 55.2816 90.6374 55.3955 90.5918C55.514 90.5417 55.6029 90.4665 55.6621 90.3662C55.7214 90.2614 55.751 90.1406 55.751 90.0039ZM62.0537 84.6035V86.0459H58.2803V84.6035H62.0537ZM59.1484 82.7783H61.0557V89.7441C61.0557 89.9492 61.0762 90.1064 61.1172 90.2158C61.1582 90.3252 61.2197 90.4027 61.3018 90.4482C61.3883 90.4893 61.5023 90.5098 61.6436 90.5098C61.7393 90.5098 61.8281 90.5052 61.9102 90.4961C61.9922 90.4824 62.0537 90.4688 62.0947 90.4551V91.9521C61.9443 92.0114 61.7848 92.057 61.6162 92.0889C61.4521 92.1208 61.2562 92.1367 61.0283 92.1367C60.6455 92.1367 60.3128 92.0638 60.0303 91.918C59.7523 91.7721 59.5358 91.5397 59.3809 91.2207C59.2259 90.8971 59.1484 90.4733 59.1484 89.9492V82.7783ZM65.0342 86.251V92H63.1201V84.6035H64.9248L65.0342 86.251ZM66.7773 84.5488L66.75 86.4561C66.6634 86.4378 66.5586 86.4242 66.4355 86.415C66.3171 86.4059 66.2122 86.4014 66.1211 86.4014C65.9069 86.4014 65.7246 86.4355 65.5742 86.5039C65.4238 86.5677 65.2985 86.6657 65.1982 86.7979C65.1025 86.9255 65.0296 87.085 64.9795 87.2764C64.9294 87.4678 64.8997 87.6842 64.8906 87.9258L64.5283 87.7891C64.5283 87.306 64.5648 86.8639 64.6377 86.4629C64.7152 86.0573 64.8291 85.7064 64.9795 85.4102C65.1299 85.1094 65.3099 84.877 65.5195 84.7129C65.7337 84.5488 65.9753 84.4668 66.2441 84.4668C66.3353 84.4668 66.431 84.4759 66.5312 84.4941C66.6361 84.5078 66.7181 84.526 66.7773 84.5488ZM70.8105 90.2979V86.8799C70.8105 86.6566 70.7832 86.4788 70.7285 86.3467C70.6784 86.2145 70.6009 86.1188 70.4961 86.0596C70.3958 85.9958 70.2728 85.9639 70.127 85.9639C69.9629 85.9639 69.8262 85.998 69.7168 86.0664C69.6074 86.1348 69.5254 86.2327 69.4707 86.3604C69.4206 86.488 69.3955 86.6406 69.3955 86.8184H67.4746C67.4746 86.4993 67.5361 86.1986 67.6592 85.916C67.7822 85.6289 67.9622 85.3783 68.1992 85.1641C68.4408 84.9453 68.7279 84.7744 69.0605 84.6514C69.3932 84.5283 69.7669 84.4668 70.1816 84.4668C70.6738 84.4668 71.1113 84.5511 71.4941 84.7197C71.877 84.8838 72.18 85.1458 72.4033 85.5059C72.6266 85.8659 72.7383 86.333 72.7383 86.9072V90.2021C72.7383 90.6169 72.7588 90.9541 72.7998 91.2139C72.8454 91.4736 72.9115 91.6969 72.998 91.8838V92H71.0703C70.9837 91.7949 70.9176 91.5397 70.8721 91.2344C70.8311 90.9245 70.8105 90.6123 70.8105 90.2979ZM71.043 87.4814L71.0498 88.6299H70.3457C70.1634 88.6299 70.0039 88.6595 69.8672 88.7188C69.735 88.778 69.6234 88.8623 69.5322 88.9717C69.4411 89.0765 69.3727 89.1995 69.3271 89.3408C69.2861 89.4821 69.2656 89.6325 69.2656 89.792C69.2656 89.9697 69.2907 90.1201 69.3408 90.2432C69.391 90.3662 69.4661 90.4596 69.5664 90.5234C69.6667 90.5872 69.7852 90.6191 69.9219 90.6191C70.1315 90.6191 70.3138 90.5758 70.4688 90.4893C70.6237 90.4027 70.7376 90.2979 70.8105 90.1748C70.888 90.0518 70.9131 89.9378 70.8857 89.833L71.3232 90.5781C71.2686 90.7467 71.1934 90.9222 71.0977 91.1045C71.0065 91.2868 70.8903 91.4554 70.749 91.6104C70.6077 91.7653 70.4323 91.8929 70.2227 91.9932C70.0176 92.0889 69.7738 92.1367 69.4912 92.1367C69.0947 92.1367 68.7324 92.0456 68.4043 91.8633C68.0762 91.681 67.8164 91.4258 67.625 91.0977C67.4382 90.7695 67.3447 90.3799 67.3447 89.9287C67.3447 89.555 67.404 89.2178 67.5225 88.917C67.6455 88.6117 67.8278 88.3542 68.0693 88.1445C68.3109 87.9303 68.6162 87.7663 68.9854 87.6523C69.3545 87.5384 69.7874 87.4814 70.2842 87.4814H71.043ZM76.8262 90.5439C77.0039 90.5439 77.1566 90.5075 77.2842 90.4346C77.4163 90.3617 77.5166 90.2432 77.585 90.0791C77.6533 89.915 77.6898 89.7031 77.6943 89.4434H79.4922C79.4922 89.9993 79.3737 90.4801 79.1367 90.8857C78.9043 91.2868 78.5898 91.5967 78.1934 91.8154C77.8014 92.0296 77.3571 92.1367 76.8604 92.1367C76.3636 92.1367 75.9307 92.057 75.5615 91.8975C75.1924 91.738 74.887 91.5055 74.6455 91.2002C74.4085 90.8949 74.2285 90.5234 74.1055 90.0859C73.987 89.6439 73.9277 89.138 73.9277 88.5684V88.0283C73.9277 87.4678 73.987 86.9665 74.1055 86.5244C74.2285 86.0824 74.4085 85.7087 74.6455 85.4033C74.887 85.098 75.1901 84.8656 75.5547 84.7061C75.9238 84.5465 76.3568 84.4668 76.8535 84.4668C77.3867 84.4668 77.8493 84.5785 78.2412 84.8018C78.6331 85.0205 78.9385 85.3441 79.1572 85.7725C79.3805 86.2008 79.4922 86.7295 79.4922 87.3584H77.6943C77.6898 87.0758 77.6556 86.8411 77.5918 86.6543C77.5326 86.4629 77.4391 86.3171 77.3115 86.2168C77.1885 86.112 77.0244 86.0596 76.8193 86.0596C76.6051 86.0596 76.432 86.1051 76.2998 86.1963C76.1722 86.2829 76.0742 86.4105 76.0059 86.5791C75.9421 86.7432 75.8988 86.9482 75.876 87.1943C75.8532 87.4404 75.8418 87.7184 75.8418 88.0283V88.5684C75.8418 88.901 75.8509 89.1904 75.8691 89.4365C75.8919 89.6781 75.9352 89.8831 75.999 90.0518C76.0674 90.2158 76.1654 90.3389 76.293 90.4209C76.4251 90.5029 76.6029 90.5439 76.8262 90.5439ZM82.4521 91.1523L83.9971 84.6035H85.9932L83.5596 93.1074C83.5049 93.2943 83.4297 93.4948 83.334 93.709C83.2383 93.9277 83.1107 94.1328 82.9512 94.3242C82.7962 94.5202 82.6003 94.6797 82.3633 94.8027C82.1263 94.9258 81.8415 94.9873 81.5088 94.9873C81.3402 94.9873 81.2035 94.9759 81.0986 94.9531C80.9984 94.9349 80.8708 94.903 80.7158 94.8574V93.3672C80.7568 93.3672 80.7956 93.3672 80.832 93.3672C80.873 93.3717 80.9118 93.374 80.9482 93.374C81.1624 93.374 81.3333 93.3444 81.4609 93.2852C81.5885 93.2305 81.6911 93.1439 81.7686 93.0254C81.8506 92.9069 81.9189 92.7588 81.9736 92.5811L82.4521 91.1523ZM82.0557 84.6035L83.2041 89.9082L83.4639 92.0684L82.1719 92.1914L80.0049 84.6035H82.0557ZM86.916 84.6035H88.8438V92.4102C88.8438 92.9661 88.7549 93.4355 88.5771 93.8184C88.404 94.2012 88.1533 94.4906 87.8252 94.6865C87.4971 94.887 87.1006 94.9873 86.6357 94.9873C86.4854 94.9873 86.3372 94.9782 86.1914 94.96C86.0456 94.9417 85.8975 94.9121 85.7471 94.8711L85.7539 93.3125C85.8451 93.3307 85.9339 93.3444 86.0205 93.3535C86.1025 93.3626 86.1846 93.3672 86.2666 93.3672C86.4124 93.3672 86.5332 93.333 86.6289 93.2646C86.7246 93.2008 86.7952 93.0983 86.8408 92.957C86.891 92.8158 86.916 92.6335 86.916 92.4102V84.6035ZM86.7861 82.6895C86.7861 82.3932 86.8818 82.1494 87.0732 81.958C87.2646 81.762 87.5176 81.6641 87.832 81.6641C88.151 81.6641 88.4062 81.762 88.5977 81.958C88.7891 82.1494 88.8848 82.3932 88.8848 82.6895C88.8848 82.9811 88.7891 83.2249 88.5977 83.4209C88.4062 83.6123 88.151 83.708 87.832 83.708C87.5176 83.708 87.2646 83.6123 87.0732 83.4209C86.8818 83.2249 86.7861 82.9811 86.7861 82.6895ZM92.1387 86.1826V92H90.2178V84.6035H92.0156L92.1387 86.1826ZM91.8516 88.0488L91.3389 88.0625C91.3298 87.5065 91.3822 87.0075 91.4961 86.5654C91.6146 86.1234 91.7809 85.7474 91.9951 85.4375C92.2139 85.123 92.4736 84.8838 92.7744 84.7197C93.0798 84.5511 93.4193 84.4668 93.793 84.4668C94.0801 84.4668 94.3421 84.5169 94.5791 84.6172C94.8206 84.7174 95.028 84.877 95.2012 85.0957C95.3743 85.3145 95.5088 85.6061 95.6045 85.9707C95.7002 86.3307 95.748 86.7728 95.748 87.2969V92H93.8271V87.2832C93.8271 86.9642 93.7952 86.7181 93.7314 86.5449C93.6676 86.3672 93.5719 86.2441 93.4443 86.1758C93.3167 86.1029 93.1572 86.0664 92.9658 86.0664C92.7835 86.0664 92.6217 86.1188 92.4805 86.2236C92.3392 86.3239 92.2207 86.4629 92.125 86.6406C92.0339 86.8184 91.9632 87.028 91.9131 87.2695C91.8675 87.5111 91.847 87.7708 91.8516 88.0488ZM100.13 92.1367C99.624 92.1367 99.1751 92.0592 98.7832 91.9043C98.3958 91.7493 98.0677 91.526 97.7988 91.2344C97.5299 90.9382 97.3249 90.5804 97.1836 90.1611C97.0423 89.7419 96.9717 89.2633 96.9717 88.7256V88.1172C96.9717 87.5156 97.04 86.9893 97.1768 86.5381C97.3135 86.0824 97.5072 85.6995 97.7578 85.3896C98.0085 85.0798 98.3161 84.8496 98.6807 84.6992C99.0498 84.5443 99.4668 84.4668 99.9316 84.4668C100.396 84.4668 100.804 84.5443 101.155 84.6992C101.511 84.8496 101.805 85.0775 102.037 85.3828C102.27 85.6836 102.445 86.0573 102.563 86.5039C102.682 86.9505 102.741 87.4701 102.741 88.0625V88.9375H97.7852V87.5908H100.861V87.4199C100.861 87.1191 100.829 86.8685 100.766 86.668C100.702 86.4629 100.602 86.3102 100.465 86.21C100.328 86.1097 100.146 86.0596 99.918 86.0596C99.7266 86.0596 99.5648 86.0983 99.4326 86.1758C99.3005 86.2533 99.1956 86.374 99.1182 86.5381C99.0407 86.7021 98.9837 86.9163 98.9473 87.1807C98.9108 87.4404 98.8926 87.7526 98.8926 88.1172V88.7256C98.8926 89.0674 98.9222 89.3545 98.9814 89.5869C99.0407 89.8148 99.1273 90.0016 99.2412 90.1475C99.3597 90.2887 99.5033 90.3913 99.6719 90.4551C99.8405 90.5143 100.036 90.5439 100.26 90.5439C100.597 90.5439 100.9 90.4847 101.169 90.3662C101.442 90.2432 101.675 90.0768 101.866 89.8672L102.632 91.0293C102.5 91.2025 102.317 91.3757 102.085 91.5488C101.853 91.722 101.575 91.8633 101.251 91.9727C100.927 92.082 100.554 92.1367 100.13 92.1367ZM103.938 84.6035H105.865V92.4102C105.865 92.9661 105.776 93.4355 105.599 93.8184C105.425 94.2012 105.175 94.4906 104.847 94.6865C104.519 94.887 104.122 94.9873 103.657 94.9873C103.507 94.9873 103.359 94.9782 103.213 94.96C103.067 94.9417 102.919 94.9121 102.769 94.8711L102.775 93.3125C102.867 93.3307 102.955 93.3444 103.042 93.3535C103.124 93.3626 103.206 93.3672 103.288 93.3672C103.434 93.3672 103.555 93.333 103.65 93.2646C103.746 93.2008 103.817 93.0983 103.862 92.957C103.912 92.8158 103.938 92.6335 103.938 92.4102V84.6035ZM103.808 82.6895C103.808 82.3932 103.903 82.1494 104.095 81.958C104.286 81.762 104.539 81.6641 104.854 81.6641C105.173 81.6641 105.428 81.762 105.619 81.958C105.811 82.1494 105.906 82.3932 105.906 82.6895C105.906 82.9811 105.811 83.2249 105.619 83.4209C105.428 83.6123 105.173 83.708 104.854 83.708C104.539 83.708 104.286 83.6123 104.095 83.4209C103.903 83.2249 103.808 82.9811 103.808 82.6895Z" fill="url(#paint0_linear_363_3086)"/>
<path d="M361.075 62.0469H364.268C364.933 62.0469 365.5 62.1608 365.97 62.3887C366.439 62.6165 366.799 62.9538 367.05 63.4004C367.3 63.847 367.426 64.3984 367.426 65.0547C367.426 65.5924 367.353 66.0527 367.207 66.4355C367.061 66.8138 366.854 67.1305 366.585 67.3857C366.316 67.6364 365.995 67.8369 365.621 67.9873L365.013 68.3496H362.422L362.415 66.6885H364.213C364.486 66.6885 364.712 66.6292 364.89 66.5107C365.072 66.3877 365.206 66.2168 365.293 65.998C365.384 65.7747 365.43 65.515 365.43 65.2188C365.43 64.9043 365.389 64.6354 365.307 64.4121C365.229 64.1842 365.104 64.0111 364.931 63.8926C364.762 63.7695 364.541 63.708 364.268 63.708H363.078V72H361.075V62.0469ZM365.594 72L363.769 67.5635L365.867 67.5566L367.733 71.9043V72H365.594ZM368.506 68.5547V68.0557C368.506 67.4769 368.574 66.9642 368.711 66.5176C368.852 66.071 369.053 65.6973 369.312 65.3965C369.572 65.0911 369.884 64.861 370.249 64.7061C370.618 64.5465 371.031 64.4668 371.486 64.4668C371.947 64.4668 372.359 64.5465 372.724 64.7061C373.093 64.861 373.407 65.0911 373.667 65.3965C373.931 65.6973 374.134 66.071 374.275 66.5176C374.417 66.9642 374.487 67.4769 374.487 68.0557V68.5547C374.487 69.1289 374.417 69.6393 374.275 70.0859C374.134 70.5326 373.931 70.9085 373.667 71.2139C373.407 71.5192 373.095 71.7493 372.73 71.9043C372.366 72.0592 371.956 72.1367 371.5 72.1367C371.044 72.1367 370.632 72.0592 370.263 71.9043C369.898 71.7493 369.584 71.5192 369.319 71.2139C369.055 70.9085 368.852 70.5326 368.711 70.0859C368.574 69.6393 368.506 69.1289 368.506 68.5547ZM370.42 68.0557V68.5547C370.42 68.8965 370.443 69.1927 370.488 69.4434C370.538 69.694 370.609 69.9014 370.7 70.0654C370.796 70.2295 370.91 70.3503 371.042 70.4277C371.174 70.5052 371.327 70.5439 371.5 70.5439C371.673 70.5439 371.828 70.5052 371.965 70.4277C372.102 70.3503 372.213 70.2295 372.3 70.0654C372.391 69.9014 372.457 69.694 372.498 69.4434C372.544 69.1927 372.566 68.8965 372.566 68.5547V68.0557C372.566 67.723 372.541 67.4313 372.491 67.1807C372.441 66.9255 372.37 66.7181 372.279 66.5586C372.188 66.3945 372.074 66.2715 371.938 66.1895C371.805 66.1029 371.655 66.0596 371.486 66.0596C371.318 66.0596 371.167 66.1029 371.035 66.1895C370.908 66.2715 370.796 66.3945 370.7 66.5586C370.609 66.7181 370.538 66.9255 370.488 67.1807C370.443 67.4313 370.42 67.723 370.42 68.0557ZM380.646 70.4072V72H375.95V70.4072H380.646ZM380.599 65.7656L376.702 72H375.424V70.7969L379.3 64.6035H380.599V65.7656ZM379.929 64.6035V66.1963H375.499V64.6035H379.929ZM383.928 61.5V72H382.007V61.5H383.928ZM387.455 64.6035V72H385.534V64.6035H387.455ZM385.445 62.6895C385.445 62.3932 385.539 62.1494 385.726 61.958C385.917 61.762 386.172 61.6641 386.491 61.6641C386.815 61.6641 387.07 61.762 387.257 61.958C387.444 62.1494 387.537 62.3932 387.537 62.6895C387.537 62.9811 387.441 63.2249 387.25 63.4209C387.063 63.6123 386.812 63.708 386.498 63.708C386.174 63.708 385.917 63.6123 385.726 63.4209C385.539 63.2249 385.445 62.9811 385.445 62.6895ZM391.646 70.5439C391.823 70.5439 391.976 70.5075 392.104 70.4346C392.236 70.3617 392.336 70.2432 392.404 70.0791C392.473 69.915 392.509 69.7031 392.514 69.4434H394.312C394.312 69.9993 394.193 70.4801 393.956 70.8857C393.724 71.2868 393.409 71.5967 393.013 71.8154C392.621 72.0296 392.176 72.1367 391.68 72.1367C391.183 72.1367 390.75 72.057 390.381 71.8975C390.012 71.738 389.706 71.5055 389.465 71.2002C389.228 70.8949 389.048 70.5234 388.925 70.0859C388.806 69.6439 388.747 69.138 388.747 68.5684V68.0283C388.747 67.4678 388.806 66.9665 388.925 66.5244C389.048 66.0824 389.228 65.7087 389.465 65.4033C389.706 65.098 390.009 64.8656 390.374 64.7061C390.743 64.5465 391.176 64.4668 391.673 64.4668C392.206 64.4668 392.669 64.5785 393.061 64.8018C393.452 65.0205 393.758 65.3441 393.977 65.7725C394.2 66.2008 394.312 66.7295 394.312 67.3584H392.514C392.509 67.0758 392.475 66.8411 392.411 66.6543C392.352 66.4629 392.258 66.3171 392.131 66.2168C392.008 66.112 391.844 66.0596 391.639 66.0596C391.424 66.0596 391.251 66.1051 391.119 66.1963C390.992 66.2829 390.894 66.4105 390.825 66.5791C390.761 66.7432 390.718 66.9482 390.695 67.1943C390.673 67.4404 390.661 67.7184 390.661 68.0283V68.5684C390.661 68.901 390.67 69.1904 390.688 69.4365C390.711 69.6781 390.755 69.8831 390.818 70.0518C390.887 70.2158 390.985 70.3389 391.112 70.4209C391.244 70.5029 391.422 70.5439 391.646 70.5439ZM400.471 70.4072V72H395.774V70.4072H400.471ZM400.423 65.7656L396.526 72H395.248V70.7969L399.124 64.6035H400.423V65.7656ZM399.753 64.6035V66.1963H395.323V64.6035H399.753ZM404.613 72.1367C404.107 72.1367 403.659 72.0592 403.267 71.9043C402.879 71.7493 402.551 71.526 402.282 71.2344C402.013 70.9382 401.808 70.5804 401.667 70.1611C401.526 69.7419 401.455 69.2633 401.455 68.7256V68.1172C401.455 67.5156 401.523 66.9893 401.66 66.5381C401.797 66.0824 401.991 65.6995 402.241 65.3896C402.492 65.0798 402.799 64.8496 403.164 64.6992C403.533 64.5443 403.95 64.4668 404.415 64.4668C404.88 64.4668 405.288 64.5443 405.639 64.6992C405.994 64.8496 406.288 65.0775 406.521 65.3828C406.753 65.6836 406.928 66.0573 407.047 66.5039C407.165 66.9505 407.225 67.4701 407.225 68.0625V68.9375H402.269V67.5908H405.345V67.4199C405.345 67.1191 405.313 66.8685 405.249 66.668C405.185 66.4629 405.085 66.3102 404.948 66.21C404.812 66.1097 404.629 66.0596 404.401 66.0596C404.21 66.0596 404.048 66.0983 403.916 66.1758C403.784 66.2533 403.679 66.374 403.602 66.5381C403.524 66.7021 403.467 66.9163 403.431 67.1807C403.394 67.4404 403.376 67.7526 403.376 68.1172V68.7256C403.376 69.0674 403.406 69.3545 403.465 69.5869C403.524 69.8148 403.611 70.0016 403.725 70.1475C403.843 70.2887 403.987 70.3913 404.155 70.4551C404.324 70.5143 404.52 70.5439 404.743 70.5439C405.08 70.5439 405.383 70.4847 405.652 70.3662C405.926 70.2432 406.158 70.0768 406.35 69.8672L407.115 71.0293C406.983 71.2025 406.801 71.3757 406.568 71.5488C406.336 71.722 406.058 71.8633 405.734 71.9727C405.411 72.082 405.037 72.1367 404.613 72.1367ZM410.212 66.1826V72H408.291V64.6035H410.089L410.212 66.1826ZM409.925 68.0488L409.412 68.0625C409.403 67.5065 409.455 67.0075 409.569 66.5654C409.688 66.1234 409.854 65.7474 410.068 65.4375C410.287 65.123 410.547 64.8838 410.848 64.7197C411.153 64.5511 411.493 64.4668 411.866 64.4668C412.153 64.4668 412.415 64.5169 412.652 64.6172C412.894 64.7174 413.101 64.877 413.274 65.0957C413.448 65.3145 413.582 65.6061 413.678 65.9707C413.773 66.3307 413.821 66.7728 413.821 67.2969V72H411.9V67.2832C411.9 66.9642 411.868 66.7181 411.805 66.5449C411.741 66.3672 411.645 66.2441 411.518 66.1758C411.39 66.1029 411.23 66.0664 411.039 66.0664C410.857 66.0664 410.695 66.1188 410.554 66.2236C410.412 66.3239 410.294 66.4629 410.198 66.6406C410.107 66.8184 410.036 67.028 409.986 67.2695C409.941 67.5111 409.92 67.7708 409.925 68.0488ZM417.232 64.6035V72H415.312V64.6035H417.232ZM415.223 62.6895C415.223 62.3932 415.316 62.1494 415.503 61.958C415.694 61.762 415.95 61.6641 416.269 61.6641C416.592 61.6641 416.847 61.762 417.034 61.958C417.221 62.1494 417.314 62.3932 417.314 62.6895C417.314 62.9811 417.219 63.2249 417.027 63.4209C416.84 63.6123 416.59 63.708 416.275 63.708C415.952 63.708 415.694 63.6123 415.503 63.4209C415.316 63.2249 415.223 62.9811 415.223 62.6895ZM421.73 72.1367C421.225 72.1367 420.776 72.0592 420.384 71.9043C419.996 71.7493 419.668 71.526 419.399 71.2344C419.131 70.9382 418.925 70.5804 418.784 70.1611C418.643 69.7419 418.572 69.2633 418.572 68.7256V68.1172C418.572 67.5156 418.641 66.9893 418.777 66.5381C418.914 66.0824 419.108 65.6995 419.358 65.3896C419.609 65.0798 419.917 64.8496 420.281 64.6992C420.65 64.5443 421.067 64.4668 421.532 64.4668C421.997 64.4668 422.405 64.5443 422.756 64.6992C423.111 64.8496 423.405 65.0775 423.638 65.3828C423.87 65.6836 424.046 66.0573 424.164 66.5039C424.283 66.9505 424.342 67.4701 424.342 68.0625V68.9375H419.386V67.5908H422.462V67.4199C422.462 67.1191 422.43 66.8685 422.366 66.668C422.302 66.4629 422.202 66.3102 422.065 66.21C421.929 66.1097 421.746 66.0596 421.519 66.0596C421.327 66.0596 421.165 66.0983 421.033 66.1758C420.901 66.2533 420.796 66.374 420.719 66.5381C420.641 66.7021 420.584 66.9163 420.548 67.1807C420.511 67.4404 420.493 67.7526 420.493 68.1172V68.7256C420.493 69.0674 420.523 69.3545 420.582 69.5869C420.641 69.8148 420.728 70.0016 420.842 70.1475C420.96 70.2887 421.104 70.3913 421.272 70.4551C421.441 70.5143 421.637 70.5439 421.86 70.5439C422.198 70.5439 422.501 70.4847 422.77 70.3662C423.043 70.2432 423.275 70.0768 423.467 69.8672L424.232 71.0293C424.1 71.2025 423.918 71.3757 423.686 71.5488C423.453 71.722 423.175 71.8633 422.852 71.9727C422.528 72.082 422.154 72.1367 421.73 72.1367Z" fill="url(#paint1_linear_363_3086)"/>
<path d="M669.147 65.5098L670.74 57.0469H671.793L672.107 58.3594L670.398 67H669.257L669.147 65.5098ZM668.601 57.0469L669.886 65.5303L669.667 67H668.409L666.625 57.0469H668.601ZM673.263 65.4961L674.541 57.0469H676.51L674.739 67H673.475L673.263 65.4961ZM672.401 57.0469L674.008 65.5576L673.878 67H672.736L671.034 58.3457L671.355 57.0469H672.401ZM680.283 67.1367C679.777 67.1367 679.328 67.0592 678.937 66.9043C678.549 66.7493 678.221 66.526 677.952 66.2344C677.683 65.9382 677.478 65.5804 677.337 65.1611C677.196 64.7419 677.125 64.2633 677.125 63.7256V63.1172C677.125 62.5156 677.193 61.9893 677.33 61.5381C677.467 61.0824 677.66 60.6995 677.911 60.3896C678.162 60.0798 678.469 59.8496 678.834 59.6992C679.203 59.5443 679.62 59.4668 680.085 59.4668C680.55 59.4668 680.958 59.5443 681.309 59.6992C681.664 59.8496 681.958 60.0775 682.19 60.3828C682.423 60.6836 682.598 61.0573 682.717 61.5039C682.835 61.9505 682.895 62.4701 682.895 63.0625V63.9375H677.938V62.5908H681.015V62.4199C681.015 62.1191 680.983 61.8685 680.919 61.668C680.855 61.4629 680.755 61.3102 680.618 61.21C680.481 61.1097 680.299 61.0596 680.071 61.0596C679.88 61.0596 679.718 61.0983 679.586 61.1758C679.454 61.2533 679.349 61.374 679.271 61.5381C679.194 61.7021 679.137 61.9163 679.101 62.1807C679.064 62.4404 679.046 62.7526 679.046 63.1172V63.7256C679.046 64.0674 679.076 64.3545 679.135 64.5869C679.194 64.8148 679.281 65.0016 679.395 65.1475C679.513 65.2887 679.657 65.3913 679.825 65.4551C679.994 65.5143 680.19 65.5439 680.413 65.5439C680.75 65.5439 681.053 65.4847 681.322 65.3662C681.596 65.2432 681.828 65.0768 682.02 64.8672L682.785 66.0293C682.653 66.2025 682.471 66.3757 682.238 66.5488C682.006 66.722 681.728 66.8633 681.404 66.9727C681.081 67.082 680.707 67.1367 680.283 67.1367ZM685.916 61.251V67H684.002V59.6035H685.807L685.916 61.251ZM687.659 59.5488L687.632 61.4561C687.545 61.4378 687.44 61.4242 687.317 61.415C687.199 61.4059 687.094 61.4014 687.003 61.4014C686.789 61.4014 686.606 61.4355 686.456 61.5039C686.306 61.5677 686.18 61.6657 686.08 61.7979C685.984 61.9255 685.911 62.085 685.861 62.2764C685.811 62.4678 685.782 62.6842 685.772 62.9258L685.41 62.7891C685.41 62.306 685.447 61.8639 685.52 61.4629C685.597 61.0573 685.711 60.7064 685.861 60.4102C686.012 60.1094 686.192 59.877 686.401 59.7129C686.616 59.5488 686.857 59.4668 687.126 59.4668C687.217 59.4668 687.313 59.4759 687.413 59.4941C687.518 59.5078 687.6 59.526 687.659 59.5488ZM690.619 66.1523L692.164 59.6035H694.16L691.727 68.1074C691.672 68.2943 691.597 68.4948 691.501 68.709C691.405 68.9277 691.278 69.1328 691.118 69.3242C690.963 69.5202 690.767 69.6797 690.53 69.8027C690.293 69.9258 690.008 69.9873 689.676 69.9873C689.507 69.9873 689.37 69.9759 689.266 69.9531C689.165 69.9349 689.038 69.903 688.883 69.8574V68.3672C688.924 68.3672 688.963 68.3672 688.999 68.3672C689.04 68.3717 689.079 68.374 689.115 68.374C689.329 68.374 689.5 68.3444 689.628 68.2852C689.756 68.2305 689.858 68.1439 689.936 68.0254C690.018 67.9069 690.086 67.7588 690.141 67.5811L690.619 66.1523ZM690.223 59.6035L691.371 64.9082L691.631 67.0684L690.339 67.1914L688.172 59.6035H690.223ZM697.305 67H695.391V59.2959C695.391 58.6579 695.502 58.1224 695.726 57.6895C695.953 57.252 696.282 56.9215 696.71 56.6982C697.143 56.4704 697.66 56.3564 698.262 56.3564C698.608 56.3564 698.936 56.3952 699.246 56.4727C699.561 56.5456 699.884 56.6413 700.217 56.7598L699.943 58.3867C699.743 58.3138 699.517 58.2454 699.267 58.1816C699.021 58.1133 698.729 58.0791 698.392 58.0791C698.022 58.0791 697.749 58.1816 697.571 58.3867C697.394 58.5918 697.305 58.8949 697.305 59.2959V67ZM698.446 59.6035V61.0459H694.488V59.6035H698.446ZM701.099 59.6035V67H699.178V59.6035H701.099ZM704.537 56.4932V67H702.623V56.4932H704.537ZM708.427 59.6035L705.822 63.2812L704.257 65.0381L703.58 63.582L704.783 61.8252L706.144 59.6035H708.427ZM706.431 67L704.817 63.6025L706.137 62.3857L708.625 67H706.431ZM712.583 65.2979V61.8799C712.583 61.6566 712.556 61.4788 712.501 61.3467C712.451 61.2145 712.373 61.1188 712.269 61.0596C712.168 60.9958 712.045 60.9639 711.899 60.9639C711.735 60.9639 711.599 60.998 711.489 61.0664C711.38 61.1348 711.298 61.2327 711.243 61.3604C711.193 61.488 711.168 61.6406 711.168 61.8184H709.247C709.247 61.4993 709.309 61.1986 709.432 60.916C709.555 60.6289 709.735 60.3783 709.972 60.1641C710.213 59.9453 710.5 59.7744 710.833 59.6514C711.166 59.5283 711.539 59.4668 711.954 59.4668C712.446 59.4668 712.884 59.5511 713.267 59.7197C713.649 59.8838 713.952 60.1458 714.176 60.5059C714.399 60.8659 714.511 61.333 714.511 61.9072V65.2021C714.511 65.6169 714.531 65.9541 714.572 66.2139C714.618 66.4736 714.684 66.6969 714.771 66.8838V67H712.843C712.756 66.7949 712.69 66.5397 712.645 66.2344C712.604 65.9245 712.583 65.6123 712.583 65.2979ZM712.815 62.4814L712.822 63.6299H712.118C711.936 63.6299 711.776 63.6595 711.64 63.7188C711.507 63.778 711.396 63.8623 711.305 63.9717C711.214 64.0765 711.145 64.1995 711.1 64.3408C711.059 64.4821 711.038 64.6325 711.038 64.792C711.038 64.9697 711.063 65.1201 711.113 65.2432C711.163 65.3662 711.239 65.4596 711.339 65.5234C711.439 65.5872 711.558 65.6191 711.694 65.6191C711.904 65.6191 712.086 65.5758 712.241 65.4893C712.396 65.4027 712.51 65.2979 712.583 65.1748C712.66 65.0518 712.686 64.9378 712.658 64.833L713.096 65.5781C713.041 65.7467 712.966 65.9222 712.87 66.1045C712.779 66.2868 712.663 66.4554 712.521 66.6104C712.38 66.7653 712.205 66.8929 711.995 66.9932C711.79 67.0889 711.546 67.1367 711.264 67.1367C710.867 67.1367 710.505 67.0456 710.177 66.8633C709.849 66.681 709.589 66.4258 709.397 66.0977C709.211 65.7695 709.117 65.3799 709.117 64.9287C709.117 64.555 709.176 64.2178 709.295 63.917C709.418 63.6117 709.6 63.3542 709.842 63.1445C710.083 62.9303 710.389 62.7663 710.758 62.6523C711.127 62.5384 711.56 62.4814 712.057 62.4814H712.815ZM718.599 65.5439C718.776 65.5439 718.929 65.5075 719.057 65.4346C719.189 65.3617 719.289 65.2432 719.357 65.0791C719.426 64.915 719.462 64.7031 719.467 64.4434H721.265C721.265 64.9993 721.146 65.4801 720.909 65.8857C720.677 66.2868 720.362 66.5967 719.966 66.8154C719.574 67.0296 719.13 67.1367 718.633 67.1367C718.136 67.1367 717.703 67.057 717.334 66.8975C716.965 66.738 716.66 66.5055 716.418 66.2002C716.181 65.8949 716.001 65.5234 715.878 65.0859C715.759 64.6439 715.7 64.138 715.7 63.5684V63.0283C715.7 62.4678 715.759 61.9665 715.878 61.5244C716.001 61.0824 716.181 60.7087 716.418 60.4033C716.66 60.098 716.963 59.8656 717.327 59.7061C717.696 59.5465 718.129 59.4668 718.626 59.4668C719.159 59.4668 719.622 59.5785 720.014 59.8018C720.406 60.0205 720.711 60.3441 720.93 60.7725C721.153 61.2008 721.265 61.7295 721.265 62.3584H719.467C719.462 62.0758 719.428 61.8411 719.364 61.6543C719.305 61.4629 719.212 61.3171 719.084 61.2168C718.961 61.112 718.797 61.0596 718.592 61.0596C718.378 61.0596 718.204 61.1051 718.072 61.1963C717.945 61.2829 717.847 61.4105 717.778 61.5791C717.715 61.7432 717.671 61.9482 717.648 62.1943C717.626 62.4404 717.614 62.7184 717.614 63.0283V63.5684C717.614 63.901 717.623 64.1904 717.642 64.4365C717.664 64.6781 717.708 64.8831 717.771 65.0518C717.84 65.2158 717.938 65.3389 718.065 65.4209C718.198 65.5029 718.375 65.5439 718.599 65.5439ZM722.454 59.6035H724.382V67.4102C724.382 67.9661 724.293 68.4355 724.115 68.8184C723.942 69.2012 723.691 69.4906 723.363 69.6865C723.035 69.887 722.639 69.9873 722.174 69.9873C722.023 69.9873 721.875 69.9782 721.729 69.96C721.584 69.9417 721.436 69.9121 721.285 69.8711L721.292 68.3125C721.383 68.3307 721.472 68.3444 721.559 68.3535C721.641 68.3626 721.723 68.3672 721.805 68.3672C721.951 68.3672 722.071 68.333 722.167 68.2646C722.263 68.2008 722.333 68.0983 722.379 67.957C722.429 67.8158 722.454 67.6335 722.454 67.4102V59.6035ZM722.324 57.6895C722.324 57.3932 722.42 57.1494 722.611 56.958C722.803 56.762 723.056 56.6641 723.37 56.6641C723.689 56.6641 723.944 56.762 724.136 56.958C724.327 57.1494 724.423 57.3932 724.423 57.6895C724.423 57.9811 724.327 58.2249 724.136 58.4209C723.944 58.6123 723.689 58.708 723.37 58.708C723.056 58.708 722.803 58.6123 722.611 58.4209C722.42 58.2249 722.324 57.9811 722.324 57.6895ZM729.058 65.2979V61.8799C729.058 61.6566 729.03 61.4788 728.976 61.3467C728.925 61.2145 728.848 61.1188 728.743 61.0596C728.643 60.9958 728.52 60.9639 728.374 60.9639C728.21 60.9639 728.073 60.998 727.964 61.0664C727.854 61.1348 727.772 61.2327 727.718 61.3604C727.668 61.488 727.643 61.6406 727.643 61.8184H725.722C725.722 61.4993 725.783 61.1986 725.906 60.916C726.029 60.6289 726.209 60.3783 726.446 60.1641C726.688 59.9453 726.975 59.7744 727.308 59.6514C727.64 59.5283 728.014 59.4668 728.429 59.4668C728.921 59.4668 729.358 59.5511 729.741 59.7197C730.124 59.8838 730.427 60.1458 730.65 60.5059C730.874 60.8659 730.985 61.333 730.985 61.9072V65.2021C730.985 65.6169 731.006 65.9541 731.047 66.2139C731.092 66.4736 731.159 66.6969 731.245 66.8838V67H729.317C729.231 66.7949 729.165 66.5397 729.119 66.2344C729.078 65.9245 729.058 65.6123 729.058 65.2979ZM729.29 62.4814L729.297 63.6299H728.593C728.41 63.6299 728.251 63.6595 728.114 63.7188C727.982 63.778 727.87 63.8623 727.779 63.9717C727.688 64.0765 727.62 64.1995 727.574 64.3408C727.533 64.4821 727.513 64.6325 727.513 64.792C727.513 64.9697 727.538 65.1201 727.588 65.2432C727.638 65.3662 727.713 65.4596 727.813 65.5234C727.914 65.5872 728.032 65.6191 728.169 65.6191C728.379 65.6191 728.561 65.5758 728.716 65.4893C728.871 65.4027 728.985 65.2979 729.058 65.1748C729.135 65.0518 729.16 64.9378 729.133 64.833L729.57 65.5781C729.516 65.7467 729.44 65.9222 729.345 66.1045C729.254 66.2868 729.137 66.4554 728.996 66.6104C728.855 66.7653 728.679 66.8929 728.47 66.9932C728.265 67.0889 728.021 67.1367 727.738 67.1367C727.342 67.1367 726.979 67.0456 726.651 66.8633C726.323 66.681 726.063 66.4258 725.872 66.0977C725.685 65.7695 725.592 65.3799 725.592 64.9287C725.592 64.555 725.651 64.2178 725.77 63.917C725.893 63.6117 726.075 63.3542 726.316 63.1445C726.558 62.9303 726.863 62.7663 727.232 62.6523C727.602 62.5384 728.035 62.4814 728.531 62.4814H729.29ZM674.097 73.6035V81H672.176V73.6035H674.097ZM672.087 71.6895C672.087 71.3932 672.18 71.1494 672.367 70.958C672.559 70.762 672.814 70.6641 673.133 70.6641C673.456 70.6641 673.712 70.762 673.898 70.958C674.085 71.1494 674.179 71.3932 674.179 71.6895C674.179 71.9811 674.083 72.2249 673.892 72.4209C673.705 72.6123 673.454 72.708 673.14 72.708C672.816 72.708 672.559 72.6123 672.367 72.4209C672.18 72.2249 672.087 71.9811 672.087 71.6895ZM680.755 75.0254V83.8438H678.848V73.6035H680.611L680.755 75.0254ZM684.597 77.0488V77.541C684.597 78.1198 684.547 78.6325 684.446 79.0791C684.346 79.5212 684.196 79.8971 683.995 80.207C683.799 80.5124 683.553 80.7448 683.257 80.9043C682.961 81.0592 682.614 81.1367 682.218 81.1367C681.849 81.1367 681.53 81.0501 681.261 80.877C680.996 80.6992 680.773 80.4554 680.591 80.1455C680.409 79.8356 680.263 79.4733 680.153 79.0586C680.044 78.6439 679.96 78.1995 679.9 77.7256V76.96C679.955 76.4541 680.035 75.9893 680.14 75.5654C680.244 75.137 680.388 74.7656 680.57 74.4512C680.757 74.1367 680.983 73.8952 681.247 73.7266C681.516 73.5534 681.835 73.4668 682.204 73.4668C682.605 73.4668 682.954 73.5397 683.25 73.6855C683.551 73.8314 683.799 74.0524 683.995 74.3486C684.196 74.6403 684.346 75.0117 684.446 75.4629C684.547 75.9141 684.597 76.4427 684.597 77.0488ZM682.683 77.541V77.0488C682.683 76.6934 682.662 76.3903 682.621 76.1396C682.585 75.889 682.525 75.6839 682.443 75.5244C682.361 75.3649 682.254 75.2487 682.122 75.1758C681.99 75.1029 681.828 75.0664 681.637 75.0664C681.45 75.0664 681.286 75.1029 681.145 75.1758C681.008 75.2487 680.896 75.3558 680.81 75.4971C680.723 75.6338 680.657 75.8024 680.611 76.0029C680.566 76.1989 680.541 76.4222 680.536 76.6729V78.0127C680.545 78.3089 680.584 78.571 680.652 78.7988C680.725 79.0267 680.841 79.209 681.001 79.3457C681.16 79.4779 681.377 79.5439 681.65 79.5439C681.846 79.5439 682.008 79.5029 682.136 79.4209C682.268 79.3389 682.375 79.2158 682.457 79.0518C682.539 78.8877 682.596 78.6803 682.628 78.4297C682.664 78.179 682.683 77.8828 682.683 77.541ZM688.719 74.458V75.5859L685.396 76.8643V75.7363L688.719 74.458ZM687.974 70.5V81H686.053V70.5H687.974ZM693.039 79.2979V75.8799C693.039 75.6566 693.012 75.4788 692.957 75.3467C692.907 75.2145 692.829 75.1188 692.725 75.0596C692.624 74.9958 692.501 74.9639 692.355 74.9639C692.191 74.9639 692.055 74.998 691.945 75.0664C691.836 75.1348 691.754 75.2327 691.699 75.3604C691.649 75.488 691.624 75.6406 691.624 75.8184H689.703C689.703 75.4993 689.765 75.1986 689.888 74.916C690.011 74.6289 690.191 74.3783 690.428 74.1641C690.669 73.9453 690.956 73.7744 691.289 73.6514C691.622 73.5283 691.995 73.4668 692.41 73.4668C692.902 73.4668 693.34 73.5511 693.723 73.7197C694.105 73.8838 694.409 74.1458 694.632 74.5059C694.855 74.8659 694.967 75.333 694.967 75.9072V79.2021C694.967 79.6169 694.987 79.9541 695.028 80.2139C695.074 80.4736 695.14 80.6969 695.227 80.8838V81H693.299C693.212 80.7949 693.146 80.5397 693.101 80.2344C693.06 79.9245 693.039 79.6123 693.039 79.2979ZM693.271 76.4814L693.278 77.6299H692.574C692.392 77.6299 692.232 77.6595 692.096 77.7188C691.964 77.778 691.852 77.8623 691.761 77.9717C691.67 78.0765 691.601 78.1995 691.556 78.3408C691.515 78.4821 691.494 78.6325 691.494 78.792C691.494 78.9697 691.519 79.1201 691.569 79.2432C691.619 79.3662 691.695 79.4596 691.795 79.5234C691.895 79.5872 692.014 79.6191 692.15 79.6191C692.36 79.6191 692.542 79.5758 692.697 79.4893C692.852 79.4027 692.966 79.2979 693.039 79.1748C693.117 79.0518 693.142 78.9378 693.114 78.833L693.552 79.5781C693.497 79.7467 693.422 79.9222 693.326 80.1045C693.235 80.2868 693.119 80.4554 692.978 80.6104C692.836 80.7653 692.661 80.8929 692.451 80.9932C692.246 81.0889 692.002 81.1367 691.72 81.1367C691.323 81.1367 690.961 81.0456 690.633 80.8633C690.305 80.681 690.045 80.4258 689.854 80.0977C689.667 79.7695 689.573 79.3799 689.573 78.9287C689.573 78.555 689.632 78.2178 689.751 77.917C689.874 77.6117 690.056 77.3542 690.298 77.1445C690.539 76.9303 690.845 76.7663 691.214 76.6523C691.583 76.5384 692.016 76.4814 692.513 76.4814H693.271ZM699.608 73.6035V75.0459H695.835V73.6035H699.608ZM696.703 71.7783H698.61V78.7441C698.61 78.9492 698.631 79.1064 698.672 79.2158C698.713 79.3252 698.774 79.4027 698.856 79.4482C698.943 79.4893 699.057 79.5098 699.198 79.5098C699.294 79.5098 699.383 79.5052 699.465 79.4961C699.547 79.4824 699.608 79.4688 699.649 79.4551V80.9521C699.499 81.0114 699.34 81.057 699.171 81.0889C699.007 81.1208 698.811 81.1367 698.583 81.1367C698.2 81.1367 697.868 81.0638 697.585 80.918C697.307 80.7721 697.09 80.5397 696.936 80.2207C696.781 79.8971 696.703 79.4733 696.703 78.9492V71.7783ZM702.555 75.1826V81H700.634V73.6035H702.432L702.555 75.1826ZM702.268 77.0488L701.755 77.0625C701.746 76.5065 701.798 76.0075 701.912 75.5654C702.031 75.1234 702.197 74.7474 702.411 74.4375C702.63 74.123 702.89 73.8838 703.19 73.7197C703.496 73.5511 703.835 73.4668 704.209 73.4668C704.496 73.4668 704.758 73.5169 704.995 73.6172C705.237 73.7174 705.444 73.877 705.617 74.0957C705.79 74.3145 705.925 74.6061 706.021 74.9707C706.116 75.3307 706.164 75.7728 706.164 76.2969V81H704.243V76.2832C704.243 75.9642 704.211 75.7181 704.147 75.5449C704.084 75.3672 703.988 75.2441 703.86 75.1758C703.733 75.1029 703.573 75.0664 703.382 75.0664C703.2 75.0664 703.038 75.1188 702.896 75.2236C702.755 75.3239 702.637 75.4629 702.541 75.6406C702.45 75.8184 702.379 76.028 702.329 76.2695C702.284 76.5111 702.263 76.7708 702.268 77.0488ZM707.347 77.5547V77.0557C707.347 76.4769 707.415 75.9642 707.552 75.5176C707.693 75.071 707.894 74.6973 708.153 74.3965C708.413 74.0911 708.725 73.861 709.09 73.7061C709.459 73.5465 709.871 73.4668 710.327 73.4668C710.787 73.4668 711.2 73.5465 711.564 73.7061C711.934 73.861 712.248 74.0911 712.508 74.3965C712.772 74.6973 712.975 75.071 713.116 75.5176C713.257 75.9642 713.328 76.4769 713.328 77.0557V77.5547C713.328 78.1289 713.257 78.6393 713.116 79.0859C712.975 79.5326 712.772 79.9085 712.508 80.2139C712.248 80.5192 711.936 80.7493 711.571 80.9043C711.207 81.0592 710.797 81.1367 710.341 81.1367C709.885 81.1367 709.473 81.0592 709.104 80.9043C708.739 80.7493 708.424 80.5192 708.16 80.2139C707.896 79.9085 707.693 79.5326 707.552 79.0859C707.415 78.6393 707.347 78.1289 707.347 77.5547ZM709.261 77.0557V77.5547C709.261 77.8965 709.284 78.1927 709.329 78.4434C709.379 78.694 709.45 78.9014 709.541 79.0654C709.637 79.2295 709.751 79.3503 709.883 79.4277C710.015 79.5052 710.168 79.5439 710.341 79.5439C710.514 79.5439 710.669 79.5052 710.806 79.4277C710.942 79.3503 711.054 79.2295 711.141 79.0654C711.232 78.9014 711.298 78.694 711.339 78.4434C711.384 78.1927 711.407 77.8965 711.407 77.5547V77.0557C711.407 76.723 711.382 76.4313 711.332 76.1807C711.282 75.9255 711.211 75.7181 711.12 75.5586C711.029 75.3945 710.915 75.2715 710.778 75.1895C710.646 75.1029 710.496 75.0596 710.327 75.0596C710.159 75.0596 710.008 75.1029 709.876 75.1895C709.748 75.2715 709.637 75.3945 709.541 75.5586C709.45 75.7181 709.379 75.9255 709.329 76.1807C709.284 76.4313 709.261 76.723 709.261 77.0557ZM717.819 79.0039C717.819 78.8763 717.776 78.7624 717.689 78.6621C717.603 78.5618 717.466 78.4593 717.279 78.3545C717.092 78.2451 716.844 78.1243 716.534 77.9922C716.197 77.8555 715.898 77.7142 715.639 77.5684C715.379 77.4225 715.158 77.2607 714.976 77.083C714.798 76.9053 714.663 76.7025 714.572 76.4746C714.481 76.2467 714.436 75.987 714.436 75.6953C714.436 75.3809 714.493 75.0915 714.606 74.8271C714.725 74.5583 714.894 74.3236 715.112 74.123C715.331 73.918 715.598 73.7585 715.912 73.6445C716.231 73.526 716.589 73.4668 716.985 73.4668C717.541 73.4668 718.018 73.5648 718.414 73.7607C718.815 73.9521 719.123 74.221 719.337 74.5674C719.551 74.9137 719.658 75.3171 719.658 75.7773H717.744C717.744 75.6133 717.719 75.4674 717.669 75.3398C717.619 75.2077 717.537 75.1051 717.423 75.0322C717.313 74.9593 717.165 74.9229 716.979 74.9229C716.842 74.9229 716.719 74.9525 716.609 75.0117C716.505 75.071 716.42 75.1507 716.356 75.251C716.297 75.3467 716.268 75.4606 716.268 75.5928C716.268 75.693 716.288 75.7819 716.329 75.8594C716.375 75.9368 716.445 76.012 716.541 76.085C716.637 76.1579 716.764 76.2354 716.924 76.3174C717.088 76.3949 717.288 76.4814 717.525 76.5771C718.018 76.7594 718.421 76.9554 718.735 77.165C719.054 77.3747 719.291 77.6208 719.446 77.9033C719.601 78.1813 719.679 78.5254 719.679 78.9355C719.679 79.2637 719.615 79.5622 719.487 79.8311C719.364 80.0999 719.184 80.3324 718.947 80.5283C718.71 80.7243 718.425 80.8747 718.093 80.9795C717.765 81.0843 717.398 81.1367 716.992 81.1367C716.395 81.1367 715.892 81.0182 715.481 80.7812C715.071 80.5443 714.761 80.2412 714.552 79.8721C714.342 79.4984 714.237 79.111 714.237 78.71H716.056C716.065 78.9561 716.11 79.1497 716.192 79.291C716.279 79.4277 716.395 79.5234 716.541 79.5781C716.687 79.6328 716.849 79.6602 717.026 79.6602C717.204 79.6602 717.35 79.6374 717.464 79.5918C717.582 79.5417 717.671 79.4665 717.73 79.3662C717.79 79.2614 717.819 79.1406 717.819 79.0039ZM716.076 72.6123L717.416 70.5H719.569L717.683 72.6123H716.076ZM723.568 79.5439C723.746 79.5439 723.899 79.5075 724.026 79.4346C724.159 79.3617 724.259 79.2432 724.327 79.0791C724.396 78.915 724.432 78.7031 724.437 78.4434H726.234C726.234 78.9993 726.116 79.4801 725.879 79.8857C725.646 80.2868 725.332 80.5967 724.936 80.8154C724.544 81.0296 724.099 81.1367 723.603 81.1367C723.106 81.1367 722.673 81.057 722.304 80.8975C721.935 80.738 721.629 80.5055 721.388 80.2002C721.151 79.8949 720.971 79.5234 720.848 79.0859C720.729 78.6439 720.67 78.138 720.67 77.5684V77.0283C720.67 76.4678 720.729 75.9665 720.848 75.5244C720.971 75.0824 721.151 74.7087 721.388 74.4033C721.629 74.098 721.932 73.8656 722.297 73.7061C722.666 73.5465 723.099 73.4668 723.596 73.4668C724.129 73.4668 724.591 73.5785 724.983 73.8018C725.375 74.0205 725.681 74.3441 725.899 74.7725C726.123 75.2008 726.234 75.7295 726.234 76.3584H724.437C724.432 76.0758 724.398 75.8411 724.334 75.6543C724.275 75.4629 724.181 75.3171 724.054 75.2168C723.931 75.112 723.767 75.0596 723.562 75.0596C723.347 75.0596 723.174 75.1051 723.042 75.1963C722.914 75.2829 722.816 75.4105 722.748 75.5791C722.684 75.7432 722.641 75.9482 722.618 76.1943C722.595 76.4404 722.584 76.7184 722.584 77.0283V77.5684C722.584 77.901 722.593 78.1904 722.611 78.4365C722.634 78.6781 722.677 78.8831 722.741 79.0518C722.81 79.2158 722.908 79.3389 723.035 79.4209C723.167 79.5029 723.345 79.5439 723.568 79.5439ZM722.434 72.6123L723.773 70.5H725.927L724.04 72.6123H722.434Z" fill="url(#paint2_linear_363_3086)"/>
<path fill-rule="evenodd" clip-rule="evenodd" d="M376 33H83V31H376V33Z" fill="url(#paint3_linear_363_3086)"/>
<path fill-rule="evenodd" clip-rule="evenodd" d="M685 33H404V31H685V33Z" fill="url(#paint4_linear_363_3086)"/>
<g filter="url(#filter0_d_363_3086)">
<path d="M69 17C60.7125 17 54 23.7125 54 32C54 34.8125 54.7875 37.475 56.175 39.725C57.497 41.9468 59.3748 43.7861 61.6236 45.0617C63.8724 46.3373 66.4146 47.0053 69 47C74.475 47 79.2375 44.075 81.825 39.725C83.2125 37.475 84 34.8125 84 32C84 23.7125 77.2875 17 69 17ZM76.3875 30.7625L68.4 38.15C67.875 38.6375 67.1625 38.9 66.4875 38.9C65.775 38.9 65.0625 38.6375 64.5 38.075L60.7875 34.3625C60.2644 33.8332 59.9711 33.1191 59.9711 32.375C59.9711 31.6309 60.2644 30.9168 60.7875 30.3875C61.875 29.3 63.675 29.3 64.7625 30.3875L66.5625 32.1875L72.5625 26.6375C73.6875 25.5875 75.4875 25.6625 76.5375 26.7875C77.5875 27.9125 77.5125 29.7125 76.3875 30.7625Z" fill="url(#paint5_linear_363_3086)"/>
</g>
<g filter="url(#filter1_d_363_3086)">
<path d="M390 17C381.712 17 375 23.7125 375 32C375 34.8125 375.788 37.475 377.175 39.725C378.497 41.9468 380.375 43.7861 382.624 45.0617C384.872 46.3373 387.415 47.0053 390 47C395.475 47 400.238 44.075 402.825 39.725C404.213 37.475 405 34.8125 405 32C405 23.7125 398.288 17 390 17ZM397.387 30.7625L389.4 38.15C388.875 38.6375 388.162 38.9 387.487 38.9C386.775 38.9 386.062 38.6375 385.5 38.075L381.787 34.3625C381.264 33.8332 380.971 33.1191 380.971 32.375C380.971 31.6309 381.264 30.9168 381.787 30.3875C382.875 29.3 384.675 29.3 385.762 30.3875L387.562 32.1875L393.562 26.6375C394.687 25.5875 396.488 25.6625 397.538 26.7875C398.588 27.9125 398.512 29.7125 397.387 30.7625Z" fill="url(#paint6_linear_363_3086)"/>
</g>
<g filter="url(#filter2_d_363_3086)">
<path d="M697 17C688.712 17 682 23.7125 682 32C682 34.8125 682.788 37.475 684.175 39.725C685.497 41.9468 687.375 43.7861 689.624 45.0617C691.872 46.3373 694.415 47.0053 697 47C702.475 47 707.238 44.075 709.825 39.725C711.213 37.475 712 34.8125 712 32C712 23.7125 705.288 17 697 17ZM704.387 30.7625L696.4 38.15C695.875 38.6375 695.162 38.9 694.487 38.9C693.775 38.9 693.062 38.6375 692.5 38.075L688.787 34.3625C688.264 33.8332 687.971 33.1191 687.971 32.375C687.971 31.6309 688.264 30.9168 688.787 30.3875C689.875 29.3 691.675 29.3 692.762 30.3875L694.562 32.1875L700.562 26.6375C701.687 25.5875 703.488 25.6625 704.538 26.7875C705.588 27.9125 705.512 29.7125 704.387 30.7625Z" fill="url(#paint7_linear_363_3086)"/>
</g>
<defs>
<filter id="filter0_d_363_3086" x="37" y="0" width="74" height="74" filterUnits="userSpaceOnUse" color-interpolation-filters="sRGB">
<feFlood flood-opacity="0" result="BackgroundImageFix"/>
<feColorMatrix in="SourceAlpha" type="matrix" values="0 0 0 0 0 0 0 0 0 0 0 0 0 0 0 0 0 0 127 0" result="hardAlpha"/>
<feOffset dx="5" dy="5"/>
<feGaussianBlur stdDeviation="11"/>
<feComposite in2="hardAlpha" operator="out"/>
<feColorMatrix type="matrix" values="0 0 0 0 0.0392157 0 0 0 0 0.560784 0 0 0 0 0.309804 0 0 0 0.2 0"/>
<feBlend mode="normal" in2="BackgroundImageFix" result="effect1_dropShadow_363_3086"/>
<feBlend mode="normal" in="SourceGraphic" in2="effect1_dropShadow_363_3086" result="shape"/>
</filter>
<filter id="filter1_d_363_3086" x="358" y="0" width="74" height="74" filterUnits="userSpaceOnUse" color-interpolation-filters="sRGB">
<feFlood flood-opacity="0" result="BackgroundImageFix"/>
<feColorMatrix in="SourceAlpha" type="matrix" values="0 0 0 0 0 0 0 0 0 0 0 0 0 0 0 0 0 0 127 0" result="hardAlpha"/>
<feOffset dx="5" dy="5"/>
<feGaussianBlur stdDeviation="11"/>
<feComposite in2="hardAlpha" operator="out"/>
<feColorMatrix type="matrix" values="0 0 0 0 0.0392157 0 0 0 0 0.560784 0 0 0 0 0.309804 0 0 0 0.2 0"/>
<feBlend mode="normal" in2="BackgroundImageFix" result="effect1_dropShadow_363_3086"/>
<feBlend mode="normal" in="SourceGraphic" in2="effect1_dropShadow_363_3086" result="shape"/>
</filter>
<filter id="filter2_d_363_3086" x="665" y="0" width="74" height="74" filterUnits="userSpaceOnUse" color-interpolation-filters="sRGB">
<feFlood flood-opacity="0" result="BackgroundImageFix"/>
<feColorMatrix in="SourceAlpha" type="matrix" values="0 0 0 0 0 0 0 0 0 0 0 0 0 0 0 0 0 0 127 0" result="hardAlpha"/>
<feOffset dx="5" dy="5"/>
<feGaussianBlur stdDeviation="11"/>
<feComposite in2="hardAlpha" operator="out"/>
<feColorMatrix type="matrix" values="0 0 0 0 0.0392157 0 0 0 0 0.560784 0 0 0 0 0.309804 0 0 0 0.2 0"/>
<feBlend mode="normal" in2="BackgroundImageFix" result="effect1_dropShadow_363_3086"/>
<feBlend mode="normal" in="SourceGraphic" in2="effect1_dropShadow_363_3086" result="shape"/>
</filter>
<linearGradient id="paint0_linear_363_3086" x1="68.5" y1="97" x2="68.5" y2="57" gradientUnits="userSpaceOnUse">
<stop stop-color="#5CCC94"/>
<stop offset="1" stop-color="#8CCAAE"/>
</linearGradient>
<linearGradient id="paint1_linear_363_3086" x1="392.5" y1="77" x2="392.5" y2="57" gradientUnits="userSpaceOnUse">
<stop stop-color="#5CCC94"/>
<stop offset="1" stop-color="#8CCAAE"/>
</linearGradient>
<linearGradient id="paint2_linear_363_3086" x1="699" y1="83" x2="699" y2="55" gradientUnits="userSpaceOnUse">
<stop stop-color="#5CCC94"/>
<stop offset="1" stop-color="#8CCAAE"/>
</linearGradient>
<linearGradient id="paint3_linear_363_3086" x1="229.5" y1="33" x2="229.5" y2="31" gradientUnits="userSpaceOnUse">
<stop stop-color="#5CCC94"/>
<stop offset="1" stop-color="#8CCAAE"/>
</linearGradient>
<linearGradient id="paint4_linear_363_3086" x1="544.5" y1="33" x2="544.5" y2="31" gradientUnits="userSpaceOnUse">
<stop stop-color="#5CCC94"/>
<stop offset="1" stop-color="#8CCAAE"/>
</linearGradient>
<linearGradient id="paint5_linear_363_3086" x1="69" y1="47" x2="69" y2="17" gradientUnits="userSpaceOnUse">
<stop stop-color="#5CCC94"/>
<stop offset="1" stop-color="#8CCAAE"/>
</linearGradient>
<linearGradient id="paint6_linear_363_3086" x1="390" y1="47" x2="390" y2="17" gradientUnits="userSpaceOnUse">
<stop stop-color="#5CCC94"/>
<stop offset="1" stop-color="#8CCAAE"/>
</linearGradient>
<linearGradient id="paint7_linear_363_3086" x1="697" y1="47" x2="697" y2="17" gradientUnits="userSpaceOnUse">
<stop stop-color="#5CCC94"/>
<stop offset="1" stop-color="#8CCAAE"/>
</linearGradient>
</defs>
</svg>
