<svg width="739" height="97" viewBox="0 0 739 97" fill="none" xmlns="http://www.w3.org/2000/svg">
<path d="M26.7529 68.6846H28.7422C28.7148 69.432 28.5645 70.0632 28.291 70.5781C28.0176 71.0885 27.6279 71.4759 27.1221 71.7402C26.6208 72.0046 26.0146 72.1367 25.3037 72.1367C24.7523 72.1367 24.2624 72.0456 23.834 71.8633C23.4056 71.6764 23.041 71.403 22.7402 71.043C22.4395 70.6829 22.2116 70.2386 22.0566 69.71C21.9062 69.1768 21.8311 68.5638 21.8311 67.8711V66.1826C21.8311 65.4899 21.9108 64.877 22.0703 64.3438C22.2344 63.8105 22.4668 63.3639 22.7676 63.0039C23.0729 62.6393 23.4398 62.3659 23.8682 62.1836C24.3011 61.9967 24.7887 61.9033 25.3311 61.9033C26.0557 61.9033 26.6618 62.04 27.1494 62.3135C27.637 62.5869 28.013 62.9857 28.2773 63.5098C28.5462 64.0293 28.708 64.665 28.7627 65.417H26.7666C26.7529 64.943 26.6982 64.5716 26.6025 64.3027C26.5114 64.0293 26.3656 63.8379 26.165 63.7285C25.9645 63.6146 25.6865 63.5576 25.3311 63.5576C25.0667 63.5576 24.8389 63.6055 24.6475 63.7012C24.4561 63.7923 24.2988 63.9404 24.1758 64.1455C24.0527 64.3506 23.9616 64.6195 23.9023 64.9521C23.8477 65.2848 23.8203 65.6904 23.8203 66.1689V67.8711C23.8203 68.3405 23.8454 68.7415 23.8955 69.0742C23.9456 69.4023 24.0254 69.6712 24.1348 69.8809C24.2441 70.0905 24.3923 70.2432 24.5791 70.3389C24.7705 70.4346 25.012 70.4824 25.3037 70.4824C25.641 70.4824 25.9121 70.4323 26.1172 70.332C26.3268 70.2318 26.4818 70.0518 26.582 69.792C26.6823 69.5322 26.7393 69.1631 26.7529 68.6846ZM24.5176 59.3125L25.3037 60.2832L26.0967 59.3125H27.7236V59.3809L25.9053 61.3018H24.7227L22.8906 59.374V59.3125H24.5176ZM31.9619 64.6035V72H30.041V64.6035H31.9619ZM30.0752 63.7217L31.415 61.6094H33.5684L31.6816 63.7217H30.0752ZM36.8428 70.0039C36.8428 69.8763 36.7995 69.7624 36.7129 69.6621C36.6263 69.5618 36.4896 69.4593 36.3027 69.3545C36.1159 69.2451 35.8675 69.1243 35.5576 68.9922C35.2204 68.8555 34.9219 68.7142 34.6621 68.5684C34.4023 68.4225 34.1813 68.2607 33.999 68.083C33.8213 67.9053 33.6868 67.7025 33.5957 67.4746C33.5046 67.2467 33.459 66.987 33.459 66.6953C33.459 66.3809 33.516 66.0915 33.6299 65.8271C33.7484 65.5583 33.917 65.3236 34.1357 65.123C34.3545 64.918 34.6211 64.7585 34.9355 64.6445C35.2546 64.526 35.6123 64.4668 36.0088 64.4668C36.5648 64.4668 37.041 64.5648 37.4375 64.7607C37.8385 64.9521 38.1462 65.221 38.3604 65.5674C38.5745 65.9137 38.6816 66.3171 38.6816 66.7773H36.7676C36.7676 66.6133 36.7425 66.4674 36.6924 66.3398C36.6423 66.2077 36.5602 66.1051 36.4463 66.0322C36.3369 65.9593 36.1888 65.9229 36.002 65.9229C35.8652 65.9229 35.7422 65.9525 35.6328 66.0117C35.528 66.071 35.4437 66.1507 35.3799 66.251C35.3206 66.3467 35.291 66.4606 35.291 66.5928C35.291 66.693 35.3115 66.7819 35.3525 66.8594C35.3981 66.9368 35.4688 67.012 35.5645 67.085C35.6602 67.1579 35.7878 67.2354 35.9473 67.3174C36.1113 67.3949 36.3118 67.4814 36.5488 67.5771C37.041 67.7594 37.4443 67.9554 37.7588 68.165C38.0778 68.3747 38.3148 68.6208 38.4697 68.9033C38.6247 69.1813 38.7021 69.5254 38.7021 69.9355C38.7021 70.2637 38.6383 70.5622 38.5107 70.8311C38.3877 71.0999 38.2077 71.3324 37.9707 71.5283C37.7337 71.7243 37.4489 71.8747 37.1162 71.9795C36.7881 72.0843 36.4212 72.1367 36.0156 72.1367C35.4186 72.1367 34.915 72.0182 34.5049 71.7812C34.0947 71.5443 33.7848 71.2412 33.5752 70.8721C33.3656 70.4984 33.2607 70.111 33.2607 69.71H35.0791C35.0882 69.9561 35.1338 70.1497 35.2158 70.291C35.3024 70.4277 35.4186 70.5234 35.5645 70.5781C35.7103 70.6328 35.8721 70.6602 36.0498 70.6602C36.2275 70.6602 36.3734 70.6374 36.4873 70.5918C36.6058 70.5417 36.6947 70.4665 36.7539 70.3662C36.8132 70.2614 36.8428 70.1406 36.8428 70.0039ZM41.9287 61.5V72H40.0078V61.5H41.9287ZM43.2275 68.5547V68.0557C43.2275 67.4769 43.2959 66.9642 43.4326 66.5176C43.5739 66.071 43.7744 65.6973 44.0342 65.3965C44.2939 65.0911 44.6061 64.861 44.9707 64.7061C45.3398 64.5465 45.7523 64.4668 46.208 64.4668C46.6683 64.4668 47.0807 64.5465 47.4453 64.7061C47.8145 64.861 48.1289 65.0911 48.3887 65.3965C48.653 65.6973 48.8558 66.071 48.9971 66.5176C49.1383 66.9642 49.209 67.4769 49.209 68.0557V68.5547C49.209 69.1289 49.1383 69.6393 48.9971 70.0859C48.8558 70.5326 48.653 70.9085 48.3887 71.2139C48.1289 71.5192 47.8167 71.7493 47.4521 71.9043C47.0876 72.0592 46.6774 72.1367 46.2217 72.1367C45.766 72.1367 45.3535 72.0592 44.9844 71.9043C44.6198 71.7493 44.3053 71.5192 44.041 71.2139C43.7767 70.9085 43.5739 70.5326 43.4326 70.0859C43.2959 69.6393 43.2275 69.1289 43.2275 68.5547ZM45.1416 68.0557V68.5547C45.1416 68.8965 45.1644 69.1927 45.21 69.4434C45.2601 69.694 45.3307 69.9014 45.4219 70.0654C45.5176 70.2295 45.6315 70.3503 45.7637 70.4277C45.8958 70.5052 46.0485 70.5439 46.2217 70.5439C46.3949 70.5439 46.5498 70.5052 46.6865 70.4277C46.8232 70.3503 46.9349 70.2295 47.0215 70.0654C47.1126 69.9014 47.1787 69.694 47.2197 69.4434C47.2653 69.1927 47.2881 68.8965 47.2881 68.5547V68.0557C47.2881 67.723 47.263 67.4313 47.2129 67.1807C47.1628 66.9255 47.0921 66.7181 47.001 66.5586C46.9098 66.3945 46.7959 66.2715 46.6592 66.1895C46.527 66.1029 46.3766 66.0596 46.208 66.0596C46.0394 66.0596 45.889 66.1029 45.7568 66.1895C45.6292 66.2715 45.5176 66.3945 45.4219 66.5586C45.3307 66.7181 45.2601 66.9255 45.21 67.1807C45.1644 67.4313 45.1416 67.723 45.1416 68.0557ZM55.5596 66.0254V74.8438H53.6523V64.6035H55.416L55.5596 66.0254ZM59.4014 68.0488V68.541C59.4014 69.1198 59.3512 69.6325 59.251 70.0791C59.1507 70.5212 59.0003 70.8971 58.7998 71.207C58.6038 71.5124 58.3577 71.7448 58.0615 71.9043C57.7653 72.0592 57.4189 72.1367 57.0225 72.1367C56.6533 72.1367 56.3343 72.0501 56.0654 71.877C55.8011 71.6992 55.5778 71.4554 55.3955 71.1455C55.2132 70.8356 55.0674 70.4733 54.958 70.0586C54.8486 69.6439 54.7643 69.1995 54.7051 68.7256V67.96C54.7598 67.4541 54.8395 66.9893 54.9443 66.5654C55.0492 66.137 55.1927 65.7656 55.375 65.4512C55.5618 65.1367 55.7874 64.8952 56.0518 64.7266C56.3206 64.5534 56.6396 64.4668 57.0088 64.4668C57.4098 64.4668 57.7585 64.5397 58.0547 64.6855C58.3555 64.8314 58.6038 65.0524 58.7998 65.3486C59.0003 65.6403 59.1507 66.0117 59.251 66.4629C59.3512 66.9141 59.4014 67.4427 59.4014 68.0488ZM57.4873 68.541V68.0488C57.4873 67.6934 57.4668 67.3903 57.4258 67.1396C57.3893 66.889 57.3301 66.6839 57.248 66.5244C57.166 66.3649 57.0589 66.2487 56.9268 66.1758C56.7946 66.1029 56.6328 66.0664 56.4414 66.0664C56.2546 66.0664 56.0905 66.1029 55.9492 66.1758C55.8125 66.2487 55.7008 66.3558 55.6143 66.4971C55.5277 66.6338 55.4616 66.8024 55.416 67.0029C55.3704 67.1989 55.3454 67.4222 55.3408 67.6729V69.0127C55.3499 69.3089 55.3887 69.571 55.457 69.7988C55.5299 70.0267 55.6462 70.209 55.8057 70.3457C55.9652 70.4779 56.1816 70.5439 56.4551 70.5439C56.651 70.5439 56.8128 70.5029 56.9404 70.4209C57.0726 70.3389 57.1797 70.2158 57.2617 70.0518C57.3438 69.8877 57.4007 69.6803 57.4326 69.4297C57.4691 69.179 57.4873 68.8828 57.4873 68.541ZM60.3584 68.5547V68.0557C60.3584 67.4769 60.4268 66.9642 60.5635 66.5176C60.7048 66.071 60.9053 65.6973 61.165 65.3965C61.4248 65.0911 61.737 64.861 62.1016 64.7061C62.4707 64.5465 62.8831 64.4668 63.3389 64.4668C63.7992 64.4668 64.2116 64.5465 64.5762 64.7061C64.9453 64.861 65.2598 65.0911 65.5195 65.3965C65.7839 65.6973 65.9867 66.071 66.1279 66.5176C66.2692 66.9642 66.3398 67.4769 66.3398 68.0557V68.5547C66.3398 69.1289 66.2692 69.6393 66.1279 70.0859C65.9867 70.5326 65.7839 70.9085 65.5195 71.2139C65.2598 71.5192 64.9476 71.7493 64.583 71.9043C64.2184 72.0592 63.8083 72.1367 63.3525 72.1367C62.8968 72.1367 62.4844 72.0592 62.1152 71.9043C61.7507 71.7493 61.4362 71.5192 61.1719 71.2139C60.9076 70.9085 60.7048 70.5326 60.5635 70.0859C60.4268 69.6393 60.3584 69.1289 60.3584 68.5547ZM62.2725 68.0557V68.5547C62.2725 68.8965 62.2952 69.1927 62.3408 69.4434C62.391 69.694 62.4616 69.9014 62.5527 70.0654C62.6484 70.2295 62.7624 70.3503 62.8945 70.4277C63.0267 70.5052 63.1794 70.5439 63.3525 70.5439C63.5257 70.5439 63.6807 70.5052 63.8174 70.4277C63.9541 70.3503 64.0658 70.2295 64.1523 70.0654C64.2435 69.9014 64.3096 69.694 64.3506 69.4434C64.3962 69.1927 64.4189 68.8965 64.4189 68.5547V68.0557C64.4189 67.723 64.3939 67.4313 64.3438 67.1807C64.2936 66.9255 64.223 66.7181 64.1318 66.5586C64.0407 66.3945 63.9268 66.2715 63.79 66.1895C63.6579 66.1029 63.5075 66.0596 63.3389 66.0596C63.1702 66.0596 63.0199 66.1029 62.8877 66.1895C62.7601 66.2715 62.6484 66.3945 62.5527 66.5586C62.4616 66.7181 62.391 66.9255 62.3408 67.1807C62.2952 67.4313 62.2725 67.723 62.2725 68.0557ZM72.499 70.4072V72H67.8027V70.4072H72.499ZM72.4512 65.7656L68.5547 72H67.2764V70.7969L71.1523 64.6035H72.4512V65.7656ZM71.7812 64.6035V66.1963H67.3516V64.6035H71.7812ZM75.6504 66.1826V72H73.7295V64.6035H75.5273L75.6504 66.1826ZM75.3633 68.0488L74.8506 68.0625C74.8415 67.5065 74.8939 67.0075 75.0078 66.5654C75.1263 66.1234 75.2926 65.7474 75.5068 65.4375C75.7256 65.123 75.9854 64.8838 76.2861 64.7197C76.5915 64.5511 76.931 64.4668 77.3047 64.4668C77.5918 64.4668 77.8538 64.5169 78.0908 64.6172C78.3324 64.7174 78.5397 64.877 78.7129 65.0957C78.8861 65.3145 79.0205 65.6061 79.1162 65.9707C79.2119 66.3307 79.2598 66.7728 79.2598 67.2969V72H77.3389V67.2832C77.3389 66.9642 77.307 66.7181 77.2432 66.5449C77.1794 66.3672 77.0837 66.2441 76.9561 66.1758C76.8285 66.1029 76.6689 66.0664 76.4775 66.0664C76.2952 66.0664 76.1335 66.1188 75.9922 66.2236C75.8509 66.3239 75.7324 66.4629 75.6367 66.6406C75.5456 66.8184 75.4749 67.028 75.4248 67.2695C75.3792 67.5111 75.3587 67.7708 75.3633 68.0488ZM83.9219 70.2979V66.8799C83.9219 66.6566 83.8945 66.4788 83.8398 66.3467C83.7897 66.2145 83.7122 66.1188 83.6074 66.0596C83.5072 65.9958 83.3841 65.9639 83.2383 65.9639C83.0742 65.9639 82.9375 65.998 82.8281 66.0664C82.7188 66.1348 82.6367 66.2327 82.582 66.3604C82.5319 66.488 82.5068 66.6406 82.5068 66.8184H80.5859C80.5859 66.4993 80.6475 66.1986 80.7705 65.916C80.8936 65.6289 81.0736 65.3783 81.3105 65.1641C81.5521 64.9453 81.8392 64.7744 82.1719 64.6514C82.5046 64.5283 82.8783 64.4668 83.293 64.4668C83.7852 64.4668 84.2227 64.5511 84.6055 64.7197C84.9883 64.8838 85.2913 65.1458 85.5146 65.5059C85.738 65.8659 85.8496 66.333 85.8496 66.9072V70.2021C85.8496 70.6169 85.8701 70.9541 85.9111 71.2139C85.9567 71.4736 86.0228 71.6969 86.1094 71.8838V72H84.1816C84.0951 71.7949 84.029 71.5397 83.9834 71.2344C83.9424 70.9245 83.9219 70.6123 83.9219 70.2979ZM84.1543 67.4814L84.1611 68.6299H83.457C83.2747 68.6299 83.1152 68.6595 82.9785 68.7188C82.8464 68.778 82.7347 68.8623 82.6436 68.9717C82.5524 69.0765 82.484 69.1995 82.4385 69.3408C82.3975 69.4821 82.377 69.6325 82.377 69.792C82.377 69.9697 82.402 70.1201 82.4521 70.2432C82.5023 70.3662 82.5775 70.4596 82.6777 70.5234C82.778 70.5872 82.8965 70.6191 83.0332 70.6191C83.2428 70.6191 83.4251 70.5758 83.5801 70.4893C83.735 70.4027 83.849 70.2979 83.9219 70.1748C83.9993 70.0518 84.0244 69.9378 83.9971 69.833L84.4346 70.5781C84.3799 70.7467 84.3047 70.9222 84.209 71.1045C84.1178 71.2868 84.0016 71.4554 83.8604 71.6104C83.7191 71.7653 83.5436 71.8929 83.334 71.9932C83.1289 72.0889 82.8851 72.1367 82.6025 72.1367C82.2061 72.1367 81.8438 72.0456 81.5156 71.8633C81.1875 71.681 80.9277 71.4258 80.7363 71.0977C80.5495 70.7695 80.4561 70.3799 80.4561 69.9287C80.4561 69.555 80.5153 69.2178 80.6338 68.917C80.7568 68.6117 80.9391 68.3542 81.1807 68.1445C81.4222 67.9303 81.7275 67.7663 82.0967 67.6523C82.4658 67.5384 82.8988 67.4814 83.3955 67.4814H84.1543ZM82.2812 63.6123L83.6211 61.5H85.7744L83.8877 63.6123H82.2812ZM89.3359 70.5234L90.5254 64.6035H92.5215L90.4912 72H89.2949L89.3359 70.5234ZM88.6318 64.6035L89.8418 70.5303L89.8623 72H88.6592L86.6289 64.6035H88.6318ZM96.5957 70.2979V66.8799C96.5957 66.6566 96.5684 66.4788 96.5137 66.3467C96.4635 66.2145 96.3861 66.1188 96.2812 66.0596C96.181 65.9958 96.0579 65.9639 95.9121 65.9639C95.748 65.9639 95.6113 65.998 95.502 66.0664C95.3926 66.1348 95.3105 66.2327 95.2559 66.3604C95.2057 66.488 95.1807 66.6406 95.1807 66.8184H93.2598C93.2598 66.4993 93.3213 66.1986 93.4443 65.916C93.5674 65.6289 93.7474 65.3783 93.9844 65.1641C94.2259 64.9453 94.513 64.7744 94.8457 64.6514C95.1784 64.5283 95.5521 64.4668 95.9668 64.4668C96.459 64.4668 96.8965 64.5511 97.2793 64.7197C97.6621 64.8838 97.9652 65.1458 98.1885 65.5059C98.4118 65.8659 98.5234 66.333 98.5234 66.9072V70.2021C98.5234 70.6169 98.5439 70.9541 98.585 71.2139C98.6305 71.4736 98.6966 71.6969 98.7832 71.8838V72H96.8555C96.7689 71.7949 96.7028 71.5397 96.6572 71.2344C96.6162 70.9245 96.5957 70.6123 96.5957 70.2979ZM96.8281 67.4814L96.835 68.6299H96.1309C95.9486 68.6299 95.7891 68.6595 95.6523 68.7188C95.5202 68.778 95.4085 68.8623 95.3174 68.9717C95.2262 69.0765 95.1579 69.1995 95.1123 69.3408C95.0713 69.4821 95.0508 69.6325 95.0508 69.792C95.0508 69.9697 95.0758 70.1201 95.126 70.2432C95.1761 70.3662 95.2513 70.4596 95.3516 70.5234C95.4518 70.5872 95.5703 70.6191 95.707 70.6191C95.9167 70.6191 96.099 70.5758 96.2539 70.4893C96.4089 70.4027 96.5228 70.2979 96.5957 70.1748C96.6732 70.0518 96.6982 69.9378 96.6709 69.833L97.1084 70.5781C97.0537 70.7467 96.9785 70.9222 96.8828 71.1045C96.7917 71.2868 96.6755 71.4554 96.5342 71.6104C96.3929 71.7653 96.2174 71.8929 96.0078 71.9932C95.8027 72.0889 95.5589 72.1367 95.2764 72.1367C94.8799 72.1367 94.5176 72.0456 94.1895 71.8633C93.8613 71.681 93.6016 71.4258 93.4102 71.0977C93.2233 70.7695 93.1299 70.3799 93.1299 69.9287C93.1299 69.555 93.1891 69.2178 93.3076 68.917C93.4307 68.6117 93.613 68.3542 93.8545 68.1445C94.096 67.9303 94.4014 67.7663 94.7705 67.6523C95.1396 67.5384 95.5726 67.4814 96.0693 67.4814H96.8281ZM102.611 70.5439C102.789 70.5439 102.942 70.5075 103.069 70.4346C103.201 70.3617 103.302 70.2432 103.37 70.0791C103.438 69.915 103.475 69.7031 103.479 69.4434H105.277C105.277 69.9993 105.159 70.4801 104.922 70.8857C104.689 71.2868 104.375 71.5967 103.979 71.8154C103.587 72.0296 103.142 72.1367 102.646 72.1367C102.149 72.1367 101.716 72.057 101.347 71.8975C100.978 71.738 100.672 71.5055 100.431 71.2002C100.194 70.8949 100.014 70.5234 99.8906 70.0859C99.7721 69.6439 99.7129 69.138 99.7129 68.5684V68.0283C99.7129 67.4678 99.7721 66.9665 99.8906 66.5244C100.014 66.0824 100.194 65.7087 100.431 65.4033C100.672 65.098 100.975 64.8656 101.34 64.7061C101.709 64.5465 102.142 64.4668 102.639 64.4668C103.172 64.4668 103.634 64.5785 104.026 64.8018C104.418 65.0205 104.724 65.3441 104.942 65.7725C105.166 66.2008 105.277 66.7295 105.277 67.3584H103.479C103.475 67.0758 103.441 66.8411 103.377 66.6543C103.318 66.4629 103.224 66.3171 103.097 66.2168C102.974 66.112 102.81 66.0596 102.604 66.0596C102.39 66.0596 102.217 66.1051 102.085 66.1963C101.957 66.2829 101.859 66.4105 101.791 66.5791C101.727 66.7432 101.684 66.9482 101.661 67.1943C101.638 67.4404 101.627 67.7184 101.627 68.0283V68.5684C101.627 68.901 101.636 69.1904 101.654 69.4365C101.677 69.6781 101.72 69.8831 101.784 70.0518C101.853 70.2158 101.951 70.3389 102.078 70.4209C102.21 70.5029 102.388 70.5439 102.611 70.5439ZM109.358 72.1367C108.853 72.1367 108.404 72.0592 108.012 71.9043C107.624 71.7493 107.296 71.526 107.027 71.2344C106.758 70.9382 106.553 70.5804 106.412 70.1611C106.271 69.7419 106.2 69.2633 106.2 68.7256V68.1172C106.2 67.5156 106.269 66.9893 106.405 66.5381C106.542 66.0824 106.736 65.6995 106.986 65.3896C107.237 65.0798 107.545 64.8496 107.909 64.6992C108.278 64.5443 108.695 64.4668 109.16 64.4668C109.625 64.4668 110.033 64.5443 110.384 64.6992C110.739 64.8496 111.033 65.0775 111.266 65.3828C111.498 65.6836 111.674 66.0573 111.792 66.5039C111.91 66.9505 111.97 67.4701 111.97 68.0625V68.9375H107.014V67.5908H110.09V67.4199C110.09 67.1191 110.058 66.8685 109.994 66.668C109.93 66.4629 109.83 66.3102 109.693 66.21C109.557 66.1097 109.374 66.0596 109.146 66.0596C108.955 66.0596 108.793 66.0983 108.661 66.1758C108.529 66.2533 108.424 66.374 108.347 66.5381C108.269 66.7021 108.212 66.9163 108.176 67.1807C108.139 67.4404 108.121 67.7526 108.121 68.1172V68.7256C108.121 69.0674 108.151 69.3545 108.21 69.5869C108.269 69.8148 108.356 70.0016 108.47 70.1475C108.588 70.2887 108.732 70.3913 108.9 70.4551C109.069 70.5143 109.265 70.5439 109.488 70.5439C109.826 70.5439 110.129 70.4847 110.397 70.3662C110.671 70.2432 110.903 70.0768 111.095 69.8672L111.86 71.0293C111.728 71.2025 111.546 71.3757 111.313 71.5488C111.081 71.722 110.803 71.8633 110.479 71.9727C110.156 72.082 109.782 72.1367 109.358 72.1367ZM113.166 64.6035H115.094V72.4102C115.094 72.9661 115.005 73.4355 114.827 73.8184C114.654 74.2012 114.403 74.4906 114.075 74.6865C113.747 74.887 113.351 74.9873 112.886 74.9873C112.735 74.9873 112.587 74.9782 112.441 74.96C112.296 74.9417 112.147 74.9121 111.997 74.8711L112.004 73.3125C112.095 73.3307 112.184 73.3444 112.271 73.3535C112.353 73.3626 112.435 73.3672 112.517 73.3672C112.662 73.3672 112.783 73.333 112.879 73.2646C112.975 73.2008 113.045 73.0983 113.091 72.957C113.141 72.8158 113.166 72.6335 113.166 72.4102V64.6035ZM113.036 62.6895C113.036 62.3932 113.132 62.1494 113.323 61.958C113.515 61.762 113.768 61.6641 114.082 61.6641C114.401 61.6641 114.656 61.762 114.848 61.958C115.039 62.1494 115.135 62.3932 115.135 62.6895C115.135 62.9811 115.039 63.2249 114.848 63.4209C114.656 63.6123 114.401 63.708 114.082 63.708C113.768 63.708 113.515 63.6123 113.323 63.4209C113.132 63.2249 113.036 62.9811 113.036 62.6895ZM54.6709 90.4072V92H49.9746V90.4072H54.6709ZM54.623 85.7656L50.7266 92H49.4482V90.7969L53.3242 84.6035H54.623V85.7656ZM53.9531 84.6035V86.1963H49.5234V84.6035H53.9531ZM57.8223 86.1826V92H55.9014V84.6035H57.6992L57.8223 86.1826ZM57.5352 88.0488L57.0225 88.0625C57.0133 87.5065 57.0658 87.0075 57.1797 86.5654C57.2982 86.1234 57.4645 85.7474 57.6787 85.4375C57.8975 85.123 58.1572 84.8838 58.458 84.7197C58.7633 84.5511 59.1029 84.4668 59.4766 84.4668C59.7637 84.4668 60.0257 84.5169 60.2627 84.6172C60.5042 84.7174 60.7116 84.877 60.8848 85.0957C61.0579 85.3145 61.1924 85.6061 61.2881 85.9707C61.3838 86.3307 61.4316 86.7728 61.4316 87.2969V92H59.5107V87.2832C59.5107 86.9642 59.4788 86.7181 59.415 86.5449C59.3512 86.3672 59.2555 86.2441 59.1279 86.1758C59.0003 86.1029 58.8408 86.0664 58.6494 86.0664C58.4671 86.0664 58.3053 86.1188 58.1641 86.2236C58.0228 86.3239 57.9043 86.4629 57.8086 86.6406C57.7174 86.8184 57.6468 87.028 57.5967 87.2695C57.5511 87.5111 57.5306 87.7708 57.5352 88.0488ZM66.0938 90.2979V86.8799C66.0938 86.6566 66.0664 86.4788 66.0117 86.3467C65.9616 86.2145 65.8841 86.1188 65.7793 86.0596C65.679 85.9958 65.556 85.9639 65.4102 85.9639C65.2461 85.9639 65.1094 85.998 65 86.0664C64.8906 86.1348 64.8086 86.2327 64.7539 86.3604C64.7038 86.488 64.6787 86.6406 64.6787 86.8184H62.7578C62.7578 86.4993 62.8193 86.1986 62.9424 85.916C63.0654 85.6289 63.2454 85.3783 63.4824 85.1641C63.724 84.9453 64.0111 84.7744 64.3438 84.6514C64.6764 84.5283 65.0501 84.4668 65.4648 84.4668C65.957 84.4668 66.3945 84.5511 66.7773 84.7197C67.1602 84.8838 67.4632 85.1458 67.6865 85.5059C67.9098 85.8659 68.0215 86.333 68.0215 86.9072V90.2021C68.0215 90.6169 68.042 90.9541 68.083 91.2139C68.1286 91.4736 68.1947 91.6969 68.2812 91.8838V92H66.3535C66.2669 91.7949 66.2008 91.5397 66.1553 91.2344C66.1143 90.9245 66.0938 90.6123 66.0938 90.2979ZM66.3262 87.4814L66.333 88.6299H65.6289C65.4466 88.6299 65.2871 88.6595 65.1504 88.7188C65.0182 88.778 64.9066 88.8623 64.8154 88.9717C64.7243 89.0765 64.6559 89.1995 64.6104 89.3408C64.5693 89.4821 64.5488 89.6325 64.5488 89.792C64.5488 89.9697 64.5739 90.1201 64.624 90.2432C64.6742 90.3662 64.7493 90.4596 64.8496 90.5234C64.9499 90.5872 65.0684 90.6191 65.2051 90.6191C65.4147 90.6191 65.597 90.5758 65.752 90.4893C65.9069 90.4027 66.0208 90.2979 66.0938 90.1748C66.1712 90.0518 66.1963 89.9378 66.1689 89.833L66.6064 90.5781C66.5518 90.7467 66.4766 90.9222 66.3809 91.1045C66.2897 91.2868 66.1735 91.4554 66.0322 91.6104C65.891 91.7653 65.7155 91.8929 65.5059 91.9932C65.3008 92.0889 65.057 92.1367 64.7744 92.1367C64.3779 92.1367 64.0156 92.0456 63.6875 91.8633C63.3594 91.681 63.0996 91.4258 62.9082 91.0977C62.7214 90.7695 62.6279 90.3799 62.6279 89.9287C62.6279 89.555 62.6872 89.2178 62.8057 88.917C62.9287 88.6117 63.111 88.3542 63.3525 88.1445C63.5941 87.9303 63.8994 87.7663 64.2686 87.6523C64.6377 87.5384 65.0706 87.4814 65.5674 87.4814H66.3262ZM72.1094 90.5439C72.2871 90.5439 72.4398 90.5075 72.5674 90.4346C72.6995 90.3617 72.7998 90.2432 72.8682 90.0791C72.9365 89.915 72.973 89.7031 72.9775 89.4434H74.7754C74.7754 89.9993 74.6569 90.4801 74.4199 90.8857C74.1875 91.2868 73.873 91.5967 73.4766 91.8154C73.0846 92.0296 72.6403 92.1367 72.1436 92.1367C71.6468 92.1367 71.2139 92.057 70.8447 91.8975C70.4756 91.738 70.1702 91.5055 69.9287 91.2002C69.6917 90.8949 69.5117 90.5234 69.3887 90.0859C69.2702 89.6439 69.2109 89.138 69.2109 88.5684V88.0283C69.2109 87.4678 69.2702 86.9665 69.3887 86.5244C69.5117 86.0824 69.6917 85.7087 69.9287 85.4033C70.1702 85.098 70.4733 84.8656 70.8379 84.7061C71.207 84.5465 71.64 84.4668 72.1367 84.4668C72.6699 84.4668 73.1325 84.5785 73.5244 84.8018C73.9163 85.0205 74.2217 85.3441 74.4404 85.7725C74.6637 86.2008 74.7754 86.7295 74.7754 87.3584H72.9775C72.973 87.0758 72.9388 86.8411 72.875 86.6543C72.8158 86.4629 72.7223 86.3171 72.5947 86.2168C72.4717 86.112 72.3076 86.0596 72.1025 86.0596C71.8883 86.0596 71.7152 86.1051 71.583 86.1963C71.4554 86.2829 71.3574 86.4105 71.2891 86.5791C71.2253 86.7432 71.182 86.9482 71.1592 87.1943C71.1364 87.4404 71.125 87.7184 71.125 88.0283V88.5684C71.125 88.901 71.1341 89.1904 71.1523 89.4365C71.1751 89.6781 71.2184 89.8831 71.2822 90.0518C71.3506 90.2158 71.4486 90.3389 71.5762 90.4209C71.7083 90.5029 71.8861 90.5439 72.1094 90.5439ZM71.125 81.4932L71.9111 82.4639L72.7041 81.4932H74.3311V81.5615L72.5127 83.4824H71.3301L69.498 81.5547V81.4932H71.125ZM77.79 81.4932V92H75.876V81.4932H77.79ZM81.6797 84.6035L79.0752 88.2812L77.5098 90.0381L76.833 88.582L78.0361 86.8252L79.3965 84.6035H81.6797ZM79.6836 92L78.0703 88.6025L79.3896 87.3857L81.8779 92H79.6836ZM84.4346 91.1523L85.9795 84.6035H87.9756L85.542 93.1074C85.4873 93.2943 85.4121 93.4948 85.3164 93.709C85.2207 93.9277 85.0931 94.1328 84.9336 94.3242C84.7786 94.5202 84.5827 94.6797 84.3457 94.8027C84.1087 94.9258 83.8239 94.9873 83.4912 94.9873C83.3226 94.9873 83.1859 94.9759 83.0811 94.9531C82.9808 94.9349 82.8532 94.903 82.6982 94.8574V93.3672C82.7393 93.3672 82.778 93.3672 82.8145 93.3672C82.8555 93.3717 82.8942 93.374 82.9307 93.374C83.1449 93.374 83.3158 93.3444 83.4434 93.2852C83.571 93.2305 83.6735 93.1439 83.751 93.0254C83.833 92.9069 83.9014 92.7588 83.9561 92.5811L84.4346 91.1523ZM84.0381 84.6035L85.1865 89.9082L85.4463 92.0684L84.1543 92.1914L81.9873 84.6035H84.0381Z" fill="url(#paint0_linear_363_2940)"/>
<path d="M366.045 62.0469V72H364.042V62.0469H366.045ZM369.162 66.2783V67.9326H365.539V66.2783H369.162ZM369.545 62.0469V63.708H365.539V62.0469H369.545ZM373.646 70.2979V66.8799C373.646 66.6566 373.619 66.4788 373.564 66.3467C373.514 66.2145 373.437 66.1188 373.332 66.0596C373.232 65.9958 373.109 65.9639 372.963 65.9639C372.799 65.9639 372.662 65.998 372.553 66.0664C372.443 66.1348 372.361 66.2327 372.307 66.3604C372.257 66.488 372.231 66.6406 372.231 66.8184H370.311C370.311 66.4993 370.372 66.1986 370.495 65.916C370.618 65.6289 370.798 65.3783 371.035 65.1641C371.277 64.9453 371.564 64.7744 371.896 64.6514C372.229 64.5283 372.603 64.4668 373.018 64.4668C373.51 64.4668 373.947 64.5511 374.33 64.7197C374.713 64.8838 375.016 65.1458 375.239 65.5059C375.463 65.8659 375.574 66.333 375.574 66.9072V70.2021C375.574 70.6169 375.595 70.9541 375.636 71.2139C375.681 71.4736 375.747 71.6969 375.834 71.8838V72H373.906C373.82 71.7949 373.754 71.5397 373.708 71.2344C373.667 70.9245 373.646 70.6123 373.646 70.2979ZM373.879 67.4814L373.886 68.6299H373.182C372.999 68.6299 372.84 68.6595 372.703 68.7188C372.571 68.778 372.459 68.8623 372.368 68.9717C372.277 69.0765 372.209 69.1995 372.163 69.3408C372.122 69.4821 372.102 69.6325 372.102 69.792C372.102 69.9697 372.127 70.1201 372.177 70.2432C372.227 70.3662 372.302 70.4596 372.402 70.5234C372.503 70.5872 372.621 70.6191 372.758 70.6191C372.967 70.6191 373.15 70.5758 373.305 70.4893C373.46 70.4027 373.574 70.2979 373.646 70.1748C373.724 70.0518 373.749 69.9378 373.722 69.833L374.159 70.5781C374.104 70.7467 374.029 70.9222 373.934 71.1045C373.842 71.2868 373.726 71.4554 373.585 71.6104C373.444 71.7653 373.268 71.8929 373.059 71.9932C372.854 72.0889 372.61 72.1367 372.327 72.1367C371.931 72.1367 371.568 72.0456 371.24 71.8633C370.912 71.681 370.652 71.4258 370.461 71.0977C370.274 70.7695 370.181 70.3799 370.181 69.9287C370.181 69.555 370.24 69.2178 370.358 68.917C370.481 68.6117 370.664 68.3542 370.905 68.1445C371.147 67.9303 371.452 67.7663 371.821 67.6523C372.19 67.5384 372.623 67.4814 373.12 67.4814H373.879ZM378.903 61.4932V72H376.989V61.4932H378.903ZM382.793 64.6035L380.188 68.2812L378.623 70.0381L377.946 68.582L379.149 66.8252L380.51 64.6035H382.793ZM380.797 72L379.184 68.6025L380.503 67.3857L382.991 72H380.797ZM386.915 64.6035V66.0459H383.142V64.6035H386.915ZM384.01 62.7783H385.917V69.7441C385.917 69.9492 385.938 70.1064 385.979 70.2158C386.02 70.3252 386.081 70.4027 386.163 70.4482C386.25 70.4893 386.364 70.5098 386.505 70.5098C386.601 70.5098 386.689 70.5052 386.771 70.4961C386.854 70.4824 386.915 70.4688 386.956 70.4551V71.9521C386.806 72.0114 386.646 72.057 386.478 72.0889C386.313 72.1208 386.118 72.1367 385.89 72.1367C385.507 72.1367 385.174 72.0638 384.892 71.918C384.614 71.7721 384.397 71.5397 384.242 71.2207C384.087 70.8971 384.01 70.4733 384.01 69.9492V62.7783ZM391.557 70.2227V64.6035H393.478V72H391.673L391.557 70.2227ZM391.775 68.6982L392.309 68.6846C392.309 69.1813 392.261 69.6416 392.165 70.0654C392.069 70.4847 391.926 70.8493 391.734 71.1592C391.543 71.4691 391.304 71.7106 391.017 71.8838C390.729 72.0524 390.39 72.1367 389.998 72.1367C389.697 72.1367 389.419 72.0866 389.164 71.9863C388.913 71.8815 388.697 71.7197 388.515 71.501C388.332 71.2777 388.189 70.9928 388.084 70.6465C387.984 70.2956 387.934 69.874 387.934 69.3818V64.6035H389.854V69.4023C389.854 69.6029 389.873 69.776 389.909 69.9219C389.946 70.0632 389.996 70.1794 390.06 70.2705C390.123 70.3617 390.199 70.4277 390.285 70.4688C390.372 70.5052 390.47 70.5234 390.579 70.5234C390.88 70.5234 391.117 70.446 391.29 70.291C391.468 70.1315 391.593 69.915 391.666 69.6416C391.739 69.3636 391.775 69.0492 391.775 68.6982ZM396.786 66.251V72H394.872V64.6035H396.677L396.786 66.251ZM398.529 64.5488L398.502 66.4561C398.415 66.4378 398.311 66.4242 398.188 66.415C398.069 66.4059 397.964 66.4014 397.873 66.4014C397.659 66.4014 397.477 66.4355 397.326 66.5039C397.176 66.5677 397.05 66.6657 396.95 66.7979C396.854 66.9255 396.782 67.085 396.731 67.2764C396.681 67.4678 396.652 67.6842 396.643 67.9258L396.28 67.7891C396.28 67.306 396.317 66.8639 396.39 66.4629C396.467 66.0573 396.581 65.7064 396.731 65.4102C396.882 65.1094 397.062 64.877 397.271 64.7129C397.486 64.5488 397.727 64.4668 397.996 64.4668C398.087 64.4668 398.183 64.4759 398.283 64.4941C398.388 64.5078 398.47 64.526 398.529 64.5488ZM402.562 70.2979V66.8799C402.562 66.6566 402.535 66.4788 402.48 66.3467C402.43 66.2145 402.353 66.1188 402.248 66.0596C402.148 65.9958 402.025 65.9639 401.879 65.9639C401.715 65.9639 401.578 65.998 401.469 66.0664C401.359 66.1348 401.277 66.2327 401.223 66.3604C401.173 66.488 401.147 66.6406 401.147 66.8184H399.227C399.227 66.4993 399.288 66.1986 399.411 65.916C399.534 65.6289 399.714 65.3783 399.951 65.1641C400.193 64.9453 400.48 64.7744 400.812 64.6514C401.145 64.5283 401.519 64.4668 401.934 64.4668C402.426 64.4668 402.863 64.5511 403.246 64.7197C403.629 64.8838 403.932 65.1458 404.155 65.5059C404.379 65.8659 404.49 66.333 404.49 66.9072V70.2021C404.49 70.6169 404.511 70.9541 404.552 71.2139C404.597 71.4736 404.663 71.6969 404.75 71.8838V72H402.822C402.736 71.7949 402.67 71.5397 402.624 71.2344C402.583 70.9245 402.562 70.6123 402.562 70.2979ZM402.795 67.4814L402.802 68.6299H402.098C401.915 68.6299 401.756 68.6595 401.619 68.7188C401.487 68.778 401.375 68.8623 401.284 68.9717C401.193 69.0765 401.125 69.1995 401.079 69.3408C401.038 69.4821 401.018 69.6325 401.018 69.792C401.018 69.9697 401.043 70.1201 401.093 70.2432C401.143 70.3662 401.218 70.4596 401.318 70.5234C401.419 70.5872 401.537 70.6191 401.674 70.6191C401.883 70.6191 402.066 70.5758 402.221 70.4893C402.376 70.4027 402.49 70.2979 402.562 70.1748C402.64 70.0518 402.665 69.9378 402.638 69.833L403.075 70.5781C403.021 70.7467 402.945 70.9222 402.85 71.1045C402.758 71.2868 402.642 71.4554 402.501 71.6104C402.36 71.7653 402.184 71.8929 401.975 71.9932C401.77 72.0889 401.526 72.1367 401.243 72.1367C400.847 72.1367 400.484 72.0456 400.156 71.8633C399.828 71.681 399.568 71.4258 399.377 71.0977C399.19 70.7695 399.097 70.3799 399.097 69.9287C399.097 69.555 399.156 69.2178 399.274 68.917C399.397 68.6117 399.58 68.3542 399.821 68.1445C400.063 67.9303 400.368 67.7663 400.737 67.6523C401.106 67.5384 401.539 67.4814 402.036 67.4814H402.795ZM400.922 63.6123L402.262 61.5H404.415L402.528 63.6123H400.922ZM408.578 70.5439C408.756 70.5439 408.909 70.5075 409.036 70.4346C409.168 70.3617 409.269 70.2432 409.337 70.0791C409.405 69.915 409.442 69.7031 409.446 69.4434H411.244C411.244 69.9993 411.126 70.4801 410.889 70.8857C410.656 71.2868 410.342 71.5967 409.945 71.8154C409.553 72.0296 409.109 72.1367 408.612 72.1367C408.116 72.1367 407.683 72.057 407.313 71.8975C406.944 71.738 406.639 71.5055 406.397 71.2002C406.16 70.8949 405.98 70.5234 405.857 70.0859C405.739 69.6439 405.68 69.138 405.68 68.5684V68.0283C405.68 67.4678 405.739 66.9665 405.857 66.5244C405.98 66.0824 406.16 65.7087 406.397 65.4033C406.639 65.098 406.942 64.8656 407.307 64.7061C407.676 64.5465 408.109 64.4668 408.605 64.4668C409.139 64.4668 409.601 64.5785 409.993 64.8018C410.385 65.0205 410.69 65.3441 410.909 65.7725C411.132 66.2008 411.244 66.7295 411.244 67.3584H409.446C409.442 67.0758 409.408 66.8411 409.344 66.6543C409.285 66.4629 409.191 66.3171 409.063 66.2168C408.94 66.112 408.776 66.0596 408.571 66.0596C408.357 66.0596 408.184 66.1051 408.052 66.1963C407.924 66.2829 407.826 66.4105 407.758 66.5791C407.694 66.7432 407.651 66.9482 407.628 67.1943C407.605 67.4404 407.594 67.7184 407.594 68.0283V68.5684C407.594 68.901 407.603 69.1904 407.621 69.4365C407.644 69.6781 407.687 69.8831 407.751 70.0518C407.819 70.2158 407.917 70.3389 408.045 70.4209C408.177 70.5029 408.355 70.5439 408.578 70.5439ZM414.354 64.6035V72H412.434V64.6035H414.354ZM412.345 62.6895C412.345 62.3932 412.438 62.1494 412.625 61.958C412.816 61.762 413.072 61.6641 413.391 61.6641C413.714 61.6641 413.969 61.762 414.156 61.958C414.343 62.1494 414.437 62.3932 414.437 62.6895C414.437 62.9811 414.341 63.2249 414.149 63.4209C413.963 63.6123 413.712 63.708 413.397 63.708C413.074 63.708 412.816 63.6123 412.625 63.4209C412.438 63.2249 412.345 62.9811 412.345 62.6895ZM419.133 70.2979V66.8799C419.133 66.6566 419.105 66.4788 419.051 66.3467C419.001 66.2145 418.923 66.1188 418.818 66.0596C418.718 65.9958 418.595 65.9639 418.449 65.9639C418.285 65.9639 418.148 65.998 418.039 66.0664C417.93 66.1348 417.848 66.2327 417.793 66.3604C417.743 66.488 417.718 66.6406 417.718 66.8184H415.797C415.797 66.4993 415.858 66.1986 415.981 65.916C416.104 65.6289 416.285 65.3783 416.521 65.1641C416.763 64.9453 417.05 64.7744 417.383 64.6514C417.715 64.5283 418.089 64.4668 418.504 64.4668C418.996 64.4668 419.434 64.5511 419.816 64.7197C420.199 64.8838 420.502 65.1458 420.726 65.5059C420.949 65.8659 421.061 66.333 421.061 66.9072V70.2021C421.061 70.6169 421.081 70.9541 421.122 71.2139C421.168 71.4736 421.234 71.6969 421.32 71.8838V72H419.393C419.306 71.7949 419.24 71.5397 419.194 71.2344C419.153 70.9245 419.133 70.6123 419.133 70.2979ZM419.365 67.4814L419.372 68.6299H418.668C418.486 68.6299 418.326 68.6595 418.189 68.7188C418.057 68.778 417.946 68.8623 417.854 68.9717C417.763 69.0765 417.695 69.1995 417.649 69.3408C417.608 69.4821 417.588 69.6325 417.588 69.792C417.588 69.9697 417.613 70.1201 417.663 70.2432C417.713 70.3662 417.788 70.4596 417.889 70.5234C417.989 70.5872 418.107 70.6191 418.244 70.6191C418.454 70.6191 418.636 70.5758 418.791 70.4893C418.946 70.4027 419.06 70.2979 419.133 70.1748C419.21 70.0518 419.235 69.9378 419.208 69.833L419.646 70.5781C419.591 70.7467 419.516 70.9222 419.42 71.1045C419.329 71.2868 419.213 71.4554 419.071 71.6104C418.93 71.7653 418.755 71.8929 418.545 71.9932C418.34 72.0889 418.096 72.1367 417.813 72.1367C417.417 72.1367 417.055 72.0456 416.727 71.8633C416.398 71.681 416.139 71.4258 415.947 71.0977C415.76 70.7695 415.667 70.3799 415.667 69.9287C415.667 69.555 415.726 69.2178 415.845 68.917C415.968 68.6117 416.15 68.3542 416.392 68.1445C416.633 67.9303 416.938 67.7663 417.308 67.6523C417.677 67.5384 418.11 67.4814 418.606 67.4814H419.365Z" fill="url(#paint1_linear_363_2940)"/>
<path d="M677.057 61.251V62.9121C677.057 63.6139 676.97 64.2292 676.797 64.7578C676.628 65.2819 676.387 65.7217 676.072 66.0771C675.762 66.4281 675.386 66.6924 674.944 66.8701C674.507 67.0479 674.021 67.1367 673.488 67.1367C672.955 67.1367 672.467 67.0479 672.025 66.8701C671.588 66.6924 671.21 66.4281 670.891 66.0771C670.576 65.7217 670.332 65.2819 670.159 64.7578C669.986 64.2292 669.899 63.6139 669.899 62.9121V61.251C669.899 60.5309 669.984 59.902 670.152 59.3643C670.321 58.8219 670.565 58.3708 670.884 58.0107C671.203 57.6462 671.581 57.3727 672.019 57.1904C672.456 57.0036 672.941 56.9102 673.475 56.9102C674.008 56.9102 674.493 57.0036 674.931 57.1904C675.368 57.3727 675.746 57.6462 676.065 58.0107C676.384 58.3708 676.628 58.8219 676.797 59.3643C676.97 59.902 677.057 60.5309 677.057 61.251ZM675.067 62.9121V61.2373C675.067 60.7633 675.033 60.36 674.965 60.0273C674.896 59.6901 674.794 59.4144 674.657 59.2002C674.521 58.986 674.354 58.8288 674.158 58.7285C673.962 58.6283 673.734 58.5781 673.475 58.5781C673.215 58.5781 672.985 58.6283 672.784 58.7285C672.588 58.8288 672.422 58.986 672.285 59.2002C672.153 59.4144 672.053 59.6901 671.984 60.0273C671.921 60.36 671.889 60.7633 671.889 61.2373V62.9121C671.889 63.3678 671.923 63.7575 671.991 64.0811C672.06 64.4046 672.162 64.6689 672.299 64.874C672.436 65.0791 672.602 65.2318 672.798 65.332C672.998 65.4277 673.229 65.4756 673.488 65.4756C673.743 65.4756 673.969 65.4277 674.165 65.332C674.366 65.2318 674.532 65.0791 674.664 64.874C674.796 64.6689 674.896 64.4046 674.965 64.0811C675.033 63.7575 675.067 63.3678 675.067 62.9121ZM680.598 65.5234L681.787 59.6035H683.783L681.753 67H680.557L680.598 65.5234ZM679.894 59.6035L681.104 65.5303L681.124 67H679.921L677.891 59.6035H679.894ZM687.591 67.1367C687.085 67.1367 686.636 67.0592 686.244 66.9043C685.857 66.7493 685.529 66.526 685.26 66.2344C684.991 65.9382 684.786 65.5804 684.645 65.1611C684.503 64.7419 684.433 64.2633 684.433 63.7256V63.1172C684.433 62.5156 684.501 61.9893 684.638 61.5381C684.774 61.0824 684.968 60.6995 685.219 60.3896C685.469 60.0798 685.777 59.8496 686.142 59.6992C686.511 59.5443 686.928 59.4668 687.393 59.4668C687.857 59.4668 688.265 59.5443 688.616 59.6992C688.972 59.8496 689.266 60.0775 689.498 60.3828C689.73 60.6836 689.906 61.0573 690.024 61.5039C690.143 61.9505 690.202 62.4701 690.202 63.0625V63.9375H685.246V62.5908H688.322V62.4199C688.322 62.1191 688.29 61.8685 688.227 61.668C688.163 61.4629 688.062 61.3102 687.926 61.21C687.789 61.1097 687.607 61.0596 687.379 61.0596C687.188 61.0596 687.026 61.0983 686.894 61.1758C686.761 61.2533 686.657 61.374 686.579 61.5381C686.502 61.7021 686.445 61.9163 686.408 62.1807C686.372 62.4404 686.354 62.7526 686.354 63.1172V63.7256C686.354 64.0674 686.383 64.3545 686.442 64.5869C686.502 64.8148 686.588 65.0016 686.702 65.1475C686.821 65.2887 686.964 65.3913 687.133 65.4551C687.301 65.5143 687.497 65.5439 687.721 65.5439C688.058 65.5439 688.361 65.4847 688.63 65.3662C688.903 65.2432 689.136 65.0768 689.327 64.8672L690.093 66.0293C689.961 66.2025 689.778 66.3757 689.546 66.5488C689.313 66.722 689.035 66.8633 688.712 66.9727C688.388 67.082 688.015 67.1367 687.591 67.1367ZM693.224 61.251V67H691.31V59.6035H693.114L693.224 61.251ZM694.967 59.5488L694.939 61.4561C694.853 61.4378 694.748 61.4242 694.625 61.415C694.507 61.4059 694.402 61.4014 694.311 61.4014C694.096 61.4014 693.914 61.4355 693.764 61.5039C693.613 61.5677 693.488 61.6657 693.388 61.7979C693.292 61.9255 693.219 62.085 693.169 62.2764C693.119 62.4678 693.089 62.6842 693.08 62.9258L692.718 62.7891C692.718 62.306 692.754 61.8639 692.827 61.4629C692.905 61.0573 693.019 60.7064 693.169 60.4102C693.319 60.1094 693.499 59.877 693.709 59.7129C693.923 59.5488 694.165 59.4668 694.434 59.4668C694.525 59.4668 694.62 59.4759 694.721 59.4941C694.826 59.5078 694.908 59.526 694.967 59.5488ZM698.788 67.1367C698.282 67.1367 697.833 67.0592 697.441 66.9043C697.054 66.7493 696.726 66.526 696.457 66.2344C696.188 65.9382 695.983 65.5804 695.842 65.1611C695.701 64.7419 695.63 64.2633 695.63 63.7256V63.1172C695.63 62.5156 695.698 61.9893 695.835 61.5381C695.972 61.0824 696.165 60.6995 696.416 60.3896C696.667 60.0798 696.974 59.8496 697.339 59.6992C697.708 59.5443 698.125 59.4668 698.59 59.4668C699.055 59.4668 699.463 59.5443 699.813 59.6992C700.169 59.8496 700.463 60.0775 700.695 60.3828C700.928 60.6836 701.103 61.0573 701.222 61.5039C701.34 61.9505 701.399 62.4701 701.399 63.0625V63.9375H696.443V62.5908H699.52V62.4199C699.52 62.1191 699.488 61.8685 699.424 61.668C699.36 61.4629 699.26 61.3102 699.123 61.21C698.986 61.1097 698.804 61.0596 698.576 61.0596C698.385 61.0596 698.223 61.0983 698.091 61.1758C697.959 61.2533 697.854 61.374 697.776 61.5381C697.699 61.7021 697.642 61.9163 697.605 62.1807C697.569 62.4404 697.551 62.7526 697.551 63.1172V63.7256C697.551 64.0674 697.58 64.3545 697.64 64.5869C697.699 64.8148 697.785 65.0016 697.899 65.1475C698.018 65.2887 698.161 65.3913 698.33 65.4551C698.499 65.5143 698.695 65.5439 698.918 65.5439C699.255 65.5439 699.558 65.4847 699.827 65.3662C700.101 65.2432 700.333 65.0768 700.524 64.8672L701.29 66.0293C701.158 66.2025 700.976 66.3757 700.743 66.5488C700.511 66.722 700.233 66.8633 699.909 66.9727C699.586 67.082 699.212 67.1367 698.788 67.1367ZM704.387 61.1826V67H702.466V59.6035H704.264L704.387 61.1826ZM704.1 63.0488L703.587 63.0625C703.578 62.5065 703.63 62.0075 703.744 61.5654C703.863 61.1234 704.029 60.7474 704.243 60.4375C704.462 60.123 704.722 59.8838 705.022 59.7197C705.328 59.5511 705.667 59.4668 706.041 59.4668C706.328 59.4668 706.59 59.5169 706.827 59.6172C707.069 59.7174 707.276 59.877 707.449 60.0957C707.622 60.3145 707.757 60.6061 707.853 60.9707C707.948 61.3307 707.996 61.7728 707.996 62.2969V67H706.075V62.2832C706.075 61.9642 706.043 61.7181 705.979 61.5449C705.916 61.3672 705.82 61.2441 705.692 61.1758C705.565 61.1029 705.405 61.0664 705.214 61.0664C705.032 61.0664 704.87 61.1188 704.729 61.2236C704.587 61.3239 704.469 61.4629 704.373 61.6406C704.282 61.8184 704.211 62.028 704.161 62.2695C704.116 62.5111 704.095 62.7708 704.1 63.0488ZM711.407 59.6035V67H709.486V59.6035H711.407ZM709.397 57.6895C709.397 57.3932 709.491 57.1494 709.678 56.958C709.869 56.762 710.124 56.6641 710.443 56.6641C710.767 56.6641 711.022 56.762 711.209 56.958C711.396 57.1494 711.489 57.3932 711.489 57.6895C711.489 57.9811 711.394 58.2249 711.202 58.4209C711.015 58.6123 710.765 58.708 710.45 58.708C710.127 58.708 709.869 58.6123 709.678 58.4209C709.491 58.2249 709.397 57.9811 709.397 57.6895ZM715.905 67.1367C715.399 67.1367 714.951 67.0592 714.559 66.9043C714.171 66.7493 713.843 66.526 713.574 66.2344C713.305 65.9382 713.1 65.5804 712.959 65.1611C712.818 64.7419 712.747 64.2633 712.747 63.7256V63.1172C712.747 62.5156 712.815 61.9893 712.952 61.5381C713.089 61.0824 713.283 60.6995 713.533 60.3896C713.784 60.0798 714.091 59.8496 714.456 59.6992C714.825 59.5443 715.242 59.4668 715.707 59.4668C716.172 59.4668 716.58 59.5443 716.931 59.6992C717.286 59.8496 717.58 60.0775 717.812 60.3828C718.045 60.6836 718.22 61.0573 718.339 61.5039C718.457 61.9505 718.517 62.4701 718.517 63.0625V63.9375H713.561V62.5908H716.637V62.4199C716.637 62.1191 716.605 61.8685 716.541 61.668C716.477 61.4629 716.377 61.3102 716.24 61.21C716.104 61.1097 715.921 61.0596 715.693 61.0596C715.502 61.0596 715.34 61.0983 715.208 61.1758C715.076 61.2533 714.971 61.374 714.894 61.5381C714.816 61.7021 714.759 61.9163 714.723 62.1807C714.686 62.4404 714.668 62.7526 714.668 63.1172V63.7256C714.668 64.0674 714.698 64.3545 714.757 64.5869C714.816 64.8148 714.903 65.0016 715.017 65.1475C715.135 65.2887 715.279 65.3913 715.447 65.4551C715.616 65.5143 715.812 65.5439 716.035 65.5439C716.372 65.5439 716.675 65.4847 716.944 65.3662C717.218 65.2432 717.45 65.0768 717.642 64.8672L718.407 66.0293C718.275 66.2025 718.093 66.3757 717.86 66.5488C717.628 66.722 717.35 66.8633 717.026 66.9727C716.703 67.082 716.329 67.1367 715.905 67.1367ZM726.111 65.2979V61.8799C726.111 61.6566 726.084 61.4788 726.029 61.3467C725.979 61.2145 725.902 61.1188 725.797 61.0596C725.697 60.9958 725.574 60.9639 725.428 60.9639C725.264 60.9639 725.127 60.998 725.018 61.0664C724.908 61.1348 724.826 61.2327 724.771 61.3604C724.721 61.488 724.696 61.6406 724.696 61.8184H722.775C722.775 61.4993 722.837 61.1986 722.96 60.916C723.083 60.6289 723.263 60.3783 723.5 60.1641C723.742 59.9453 724.029 59.7744 724.361 59.6514C724.694 59.5283 725.068 59.4668 725.482 59.4668C725.975 59.4668 726.412 59.5511 726.795 59.7197C727.178 59.8838 727.481 60.1458 727.704 60.5059C727.927 60.8659 728.039 61.333 728.039 61.9072V65.2021C728.039 65.6169 728.06 65.9541 728.101 66.2139C728.146 66.4736 728.212 66.6969 728.299 66.8838V67H726.371C726.285 66.7949 726.218 66.5397 726.173 66.2344C726.132 65.9245 726.111 65.6123 726.111 65.2979ZM726.344 62.4814L726.351 63.6299H725.646C725.464 63.6299 725.305 63.6595 725.168 63.7188C725.036 63.778 724.924 63.8623 724.833 63.9717C724.742 64.0765 724.674 64.1995 724.628 64.3408C724.587 64.4821 724.566 64.6325 724.566 64.792C724.566 64.9697 724.591 65.1201 724.642 65.2432C724.692 65.3662 724.767 65.4596 724.867 65.5234C724.967 65.5872 725.086 65.6191 725.223 65.6191C725.432 65.6191 725.615 65.5758 725.77 65.4893C725.924 65.4027 726.038 65.2979 726.111 65.1748C726.189 65.0518 726.214 64.9378 726.187 64.833L726.624 65.5781C726.569 65.7467 726.494 65.9222 726.398 66.1045C726.307 66.2868 726.191 66.4554 726.05 66.6104C725.909 66.7653 725.733 66.8929 725.523 66.9932C725.318 67.0889 725.075 67.1367 724.792 67.1367C724.396 67.1367 724.033 67.0456 723.705 66.8633C723.377 66.681 723.117 66.4258 722.926 66.0977C722.739 65.7695 722.646 65.3799 722.646 64.9287C722.646 64.555 722.705 64.2178 722.823 63.917C722.946 63.6117 723.129 63.3542 723.37 63.1445C723.612 62.9303 723.917 62.7663 724.286 62.6523C724.655 62.5384 725.088 62.4814 725.585 62.4814H726.344ZM684.18 75.0254V83.8438H682.272V73.6035H684.036L684.18 75.0254ZM688.021 77.0488V77.541C688.021 78.1198 687.971 78.6325 687.871 79.0791C687.771 79.5212 687.62 79.8971 687.42 80.207C687.224 80.5124 686.978 80.7448 686.682 80.9043C686.385 81.0592 686.039 81.1367 685.643 81.1367C685.273 81.1367 684.954 81.0501 684.686 80.877C684.421 80.6992 684.198 80.4554 684.016 80.1455C683.833 79.8356 683.688 79.4733 683.578 79.0586C683.469 78.6439 683.384 78.1995 683.325 77.7256V76.96C683.38 76.4541 683.46 75.9893 683.564 75.5654C683.669 75.137 683.813 74.7656 683.995 74.4512C684.182 74.1367 684.408 73.8952 684.672 73.7266C684.941 73.5534 685.26 73.4668 685.629 73.4668C686.03 73.4668 686.379 73.5397 686.675 73.6855C686.976 73.8314 687.224 74.0524 687.42 74.3486C687.62 74.6403 687.771 75.0117 687.871 75.4629C687.971 75.9141 688.021 76.4427 688.021 77.0488ZM686.107 77.541V77.0488C686.107 76.6934 686.087 76.3903 686.046 76.1396C686.009 75.889 685.95 75.6839 685.868 75.5244C685.786 75.3649 685.679 75.2487 685.547 75.1758C685.415 75.1029 685.253 75.0664 685.062 75.0664C684.875 75.0664 684.711 75.1029 684.569 75.1758C684.433 75.2487 684.321 75.3558 684.234 75.4971C684.148 75.6338 684.082 75.8024 684.036 76.0029C683.991 76.1989 683.965 76.4222 683.961 76.6729V78.0127C683.97 78.3089 684.009 78.571 684.077 78.7988C684.15 79.0267 684.266 79.209 684.426 79.3457C684.585 79.4779 684.802 79.5439 685.075 79.5439C685.271 79.5439 685.433 79.5029 685.561 79.4209C685.693 79.3389 685.8 79.2158 685.882 79.0518C685.964 78.8877 686.021 78.6803 686.053 78.4297C686.089 78.179 686.107 77.8828 686.107 77.541ZM691.207 70.5V81H689.286V70.5H691.207ZM695.985 79.2979V75.8799C695.985 75.6566 695.958 75.4788 695.903 75.3467C695.853 75.2145 695.776 75.1188 695.671 75.0596C695.571 74.9958 695.448 74.9639 695.302 74.9639C695.138 74.9639 695.001 74.998 694.892 75.0664C694.782 75.1348 694.7 75.2327 694.646 75.3604C694.595 75.488 694.57 75.6406 694.57 75.8184H692.649C692.649 75.4993 692.711 75.1986 692.834 74.916C692.957 74.6289 693.137 74.3783 693.374 74.1641C693.616 73.9453 693.903 73.7744 694.235 73.6514C694.568 73.5283 694.942 73.4668 695.356 73.4668C695.849 73.4668 696.286 73.5511 696.669 73.7197C697.052 73.8838 697.355 74.1458 697.578 74.5059C697.801 74.8659 697.913 75.333 697.913 75.9072V79.2021C697.913 79.6169 697.934 79.9541 697.975 80.2139C698.02 80.4736 698.086 80.6969 698.173 80.8838V81H696.245C696.159 80.7949 696.092 80.5397 696.047 80.2344C696.006 79.9245 695.985 79.6123 695.985 79.2979ZM696.218 76.4814L696.225 77.6299H695.521C695.338 77.6299 695.179 77.6595 695.042 77.7188C694.91 77.778 694.798 77.8623 694.707 77.9717C694.616 78.0765 694.548 78.1995 694.502 78.3408C694.461 78.4821 694.44 78.6325 694.44 78.792C694.44 78.9697 694.465 79.1201 694.516 79.2432C694.566 79.3662 694.641 79.4596 694.741 79.5234C694.841 79.5872 694.96 79.6191 695.097 79.6191C695.306 79.6191 695.489 79.5758 695.644 79.4893C695.799 79.4027 695.912 79.2979 695.985 79.1748C696.063 79.0518 696.088 78.9378 696.061 78.833L696.498 79.5781C696.443 79.7467 696.368 79.9222 696.272 80.1045C696.181 80.2868 696.065 80.4554 695.924 80.6104C695.783 80.7653 695.607 80.8929 695.397 80.9932C695.192 81.0889 694.949 81.1367 694.666 81.1367C694.27 81.1367 693.907 81.0456 693.579 80.8633C693.251 80.681 692.991 80.4258 692.8 80.0977C692.613 79.7695 692.52 79.3799 692.52 78.9287C692.52 78.555 692.579 78.2178 692.697 77.917C692.82 77.6117 693.003 77.3542 693.244 77.1445C693.486 76.9303 693.791 76.7663 694.16 76.6523C694.529 76.5384 694.962 76.4814 695.459 76.4814H696.218ZM702.555 73.6035V75.0459H698.781V73.6035H702.555ZM699.649 71.7783H701.557V78.7441C701.557 78.9492 701.577 79.1064 701.618 79.2158C701.659 79.3252 701.721 79.4027 701.803 79.4482C701.889 79.4893 702.003 79.5098 702.145 79.5098C702.24 79.5098 702.329 79.5052 702.411 79.4961C702.493 79.4824 702.555 79.4688 702.596 79.4551V80.9521C702.445 81.0114 702.286 81.057 702.117 81.0889C701.953 81.1208 701.757 81.1367 701.529 81.1367C701.146 81.1367 700.814 81.0638 700.531 80.918C700.253 80.7721 700.037 80.5397 699.882 80.2207C699.727 79.8971 699.649 79.4733 699.649 78.9492V71.7783ZM703.628 70.5H705.535V79.2842L705.398 81H703.628V70.5ZM709.377 77.0557V77.541C709.377 78.1426 709.329 78.6667 709.233 79.1133C709.142 79.5599 708.999 79.9336 708.803 80.2344C708.611 80.5352 708.365 80.7607 708.064 80.9111C707.764 81.0615 707.408 81.1367 706.998 81.1367C706.629 81.1367 706.312 81.0501 706.048 80.877C705.784 80.6992 705.56 80.4554 705.378 80.1455C705.2 79.8311 705.054 79.4642 704.94 79.0449C704.831 78.6211 704.751 78.1585 704.701 77.6572V76.9395C704.747 76.4473 704.824 75.9893 704.934 75.5654C705.048 75.1416 705.193 74.7747 705.371 74.4648C705.549 74.1504 705.77 73.9066 706.034 73.7334C706.303 73.5557 706.62 73.4668 706.984 73.4668C707.404 73.4668 707.764 73.5443 708.064 73.6992C708.365 73.8496 708.611 74.0752 708.803 74.376C708.999 74.6768 709.142 75.0527 709.233 75.5039C709.329 75.9505 709.377 76.4678 709.377 77.0557ZM707.47 77.541V77.0557C707.47 76.7139 707.456 76.4199 707.429 76.1738C707.401 75.9277 707.351 75.7227 707.278 75.5586C707.205 75.3945 707.101 75.2715 706.964 75.1895C706.832 75.1074 706.656 75.0664 706.438 75.0664C706.242 75.0664 706.077 75.1051 705.945 75.1826C705.813 75.2555 705.699 75.3649 705.604 75.5107C705.512 75.652 705.444 75.8206 705.398 76.0166C705.357 76.208 705.335 76.4199 705.33 76.6523V77.9443C705.335 78.2588 705.373 78.5368 705.446 78.7783C705.519 79.0199 705.635 79.2067 705.795 79.3389C705.959 79.471 706.178 79.5371 706.451 79.5371C706.665 79.5371 706.839 79.5007 706.971 79.4277C707.103 79.3548 707.205 79.2386 707.278 79.0791C707.356 78.9196 707.406 78.7145 707.429 78.4639C707.456 78.2087 707.47 77.901 707.47 77.541ZM713.813 79.2979V75.8799C713.813 75.6566 713.786 75.4788 713.731 75.3467C713.681 75.2145 713.604 75.1188 713.499 75.0596C713.399 74.9958 713.276 74.9639 713.13 74.9639C712.966 74.9639 712.829 74.998 712.72 75.0664C712.61 75.1348 712.528 75.2327 712.474 75.3604C712.424 75.488 712.398 75.6406 712.398 75.8184H710.478C710.478 75.4993 710.539 75.1986 710.662 74.916C710.785 74.6289 710.965 74.3783 711.202 74.1641C711.444 73.9453 711.731 73.7744 712.063 73.6514C712.396 73.5283 712.77 73.4668 713.185 73.4668C713.677 73.4668 714.114 73.5511 714.497 73.7197C714.88 73.8838 715.183 74.1458 715.406 74.5059C715.63 74.8659 715.741 75.333 715.741 75.9072V79.2021C715.741 79.6169 715.762 79.9541 715.803 80.2139C715.848 80.4736 715.914 80.6969 716.001 80.8838V81H714.073C713.987 80.7949 713.921 80.5397 713.875 80.2344C713.834 79.9245 713.813 79.6123 713.813 79.2979ZM714.046 76.4814L714.053 77.6299H713.349C713.166 77.6299 713.007 77.6595 712.87 77.7188C712.738 77.778 712.626 77.8623 712.535 77.9717C712.444 78.0765 712.376 78.1995 712.33 78.3408C712.289 78.4821 712.269 78.6325 712.269 78.792C712.269 78.9697 712.294 79.1201 712.344 79.2432C712.394 79.3662 712.469 79.4596 712.569 79.5234C712.67 79.5872 712.788 79.6191 712.925 79.6191C713.134 79.6191 713.317 79.5758 713.472 79.4893C713.627 79.4027 713.741 79.2979 713.813 79.1748C713.891 79.0518 713.916 78.9378 713.889 78.833L714.326 79.5781C714.271 79.7467 714.196 79.9222 714.101 80.1045C714.009 80.2868 713.893 80.4554 713.752 80.6104C713.611 80.7653 713.435 80.8929 713.226 80.9932C713.021 81.0889 712.777 81.1367 712.494 81.1367C712.098 81.1367 711.735 81.0456 711.407 80.8633C711.079 80.681 710.819 80.4258 710.628 80.0977C710.441 79.7695 710.348 79.3799 710.348 78.9287C710.348 78.555 710.407 78.2178 710.525 77.917C710.648 77.6117 710.831 77.3542 711.072 77.1445C711.314 76.9303 711.619 76.7663 711.988 76.6523C712.357 76.5384 712.79 76.4814 713.287 76.4814H714.046Z" fill="url(#paint2_linear_363_2940)"/>
<path fill-rule="evenodd" clip-rule="evenodd" d="M376 33H83V31H376V33Z" fill="url(#paint3_linear_363_2940)"/>
<path fill-rule="evenodd" clip-rule="evenodd" d="M685 33H404V31H685V33Z" fill="url(#paint4_linear_363_2940)"/>
<g filter="url(#filter0_d_363_2940)">
<path d="M69 17C60.7125 17 54 23.7125 54 32C54 34.8125 54.7875 37.475 56.175 39.725C57.497 41.9468 59.3748 43.7861 61.6236 45.0617C63.8724 46.3373 66.4146 47.0053 69 47C74.475 47 79.2375 44.075 81.825 39.725C83.2125 37.475 84 34.8125 84 32C84 23.7125 77.2875 17 69 17ZM76.3875 30.7625L68.4 38.15C67.875 38.6375 67.1625 38.9 66.4875 38.9C65.775 38.9 65.0625 38.6375 64.5 38.075L60.7875 34.3625C60.2644 33.8332 59.9711 33.1191 59.9711 32.375C59.9711 31.6309 60.2644 30.9168 60.7875 30.3875C61.875 29.3 63.675 29.3 64.7625 30.3875L66.5625 32.1875L72.5625 26.6375C73.6875 25.5875 75.4875 25.6625 76.5375 26.7875C77.5875 27.9125 77.5125 29.7125 76.3875 30.7625Z" fill="url(#paint5_linear_363_2940)"/>
</g>
<g filter="url(#filter1_d_363_2940)">
<path d="M390 17C381.712 17 375 23.7125 375 32C375 34.8125 375.788 37.475 377.175 39.725C378.497 41.9468 380.375 43.7861 382.624 45.0617C384.872 46.3373 387.415 47.0053 390 47C395.475 47 400.238 44.075 402.825 39.725C404.213 37.475 405 34.8125 405 32C405 23.7125 398.288 17 390 17ZM397.387 30.7625L389.4 38.15C388.875 38.6375 388.162 38.9 387.487 38.9C386.775 38.9 386.062 38.6375 385.5 38.075L381.787 34.3625C381.264 33.8332 380.971 33.1191 380.971 32.375C380.971 31.6309 381.264 30.9168 381.787 30.3875C382.875 29.3 384.675 29.3 385.762 30.3875L387.562 32.1875L393.562 26.6375C394.687 25.5875 396.488 25.6625 397.538 26.7875C398.588 27.9125 398.512 29.7125 397.387 30.7625Z" fill="url(#paint6_linear_363_2940)"/>
</g>
<g filter="url(#filter2_d_363_2940)">
<path d="M697 17C688.712 17 682 23.7125 682 32C682 34.8125 682.788 37.475 684.175 39.725C685.497 41.9468 687.375 43.7861 689.624 45.0617C691.872 46.3373 694.415 47.0053 697 47C702.475 47 707.238 44.075 709.825 39.725C711.213 37.475 712 34.8125 712 32C712 23.7125 705.288 17 697 17ZM704.387 30.7625L696.4 38.15C695.875 38.6375 695.162 38.9 694.487 38.9C693.775 38.9 693.062 38.6375 692.5 38.075L688.787 34.3625C688.264 33.8332 687.971 33.1191 687.971 32.375C687.971 31.6309 688.264 30.9168 688.787 30.3875C689.875 29.3 691.675 29.3 692.762 30.3875L694.562 32.1875L700.562 26.6375C701.687 25.5875 703.488 25.6625 704.538 26.7875C705.588 27.9125 705.512 29.7125 704.387 30.7625Z" fill="url(#paint7_linear_363_2940)"/>
</g>
<defs>
<filter id="filter0_d_363_2940" x="37" y="0" width="74" height="74" filterUnits="userSpaceOnUse" color-interpolation-filters="sRGB">
<feFlood flood-opacity="0" result="BackgroundImageFix"/>
<feColorMatrix in="SourceAlpha" type="matrix" values="0 0 0 0 0 0 0 0 0 0 0 0 0 0 0 0 0 0 127 0" result="hardAlpha"/>
<feOffset dx="5" dy="5"/>
<feGaussianBlur stdDeviation="11"/>
<feComposite in2="hardAlpha" operator="out"/>
<feColorMatrix type="matrix" values="0 0 0 0 0.0392157 0 0 0 0 0.560784 0 0 0 0 0.309804 0 0 0 0.2 0"/>
<feBlend mode="normal" in2="BackgroundImageFix" result="effect1_dropShadow_363_2940"/>
<feBlend mode="normal" in="SourceGraphic" in2="effect1_dropShadow_363_2940" result="shape"/>
</filter>
<filter id="filter1_d_363_2940" x="358" y="0" width="74" height="74" filterUnits="userSpaceOnUse" color-interpolation-filters="sRGB">
<feFlood flood-opacity="0" result="BackgroundImageFix"/>
<feColorMatrix in="SourceAlpha" type="matrix" values="0 0 0 0 0 0 0 0 0 0 0 0 0 0 0 0 0 0 127 0" result="hardAlpha"/>
<feOffset dx="5" dy="5"/>
<feGaussianBlur stdDeviation="11"/>
<feComposite in2="hardAlpha" operator="out"/>
<feColorMatrix type="matrix" values="0 0 0 0 0.0392157 0 0 0 0 0.560784 0 0 0 0 0.309804 0 0 0 0.2 0"/>
<feBlend mode="normal" in2="BackgroundImageFix" result="effect1_dropShadow_363_2940"/>
<feBlend mode="normal" in="SourceGraphic" in2="effect1_dropShadow_363_2940" result="shape"/>
</filter>
<filter id="filter2_d_363_2940" x="665" y="0" width="74" height="74" filterUnits="userSpaceOnUse" color-interpolation-filters="sRGB">
<feFlood flood-opacity="0" result="BackgroundImageFix"/>
<feColorMatrix in="SourceAlpha" type="matrix" values="0 0 0 0 0 0 0 0 0 0 0 0 0 0 0 0 0 0 127 0" result="hardAlpha"/>
<feOffset dx="5" dy="5"/>
<feGaussianBlur stdDeviation="11"/>
<feComposite in2="hardAlpha" operator="out"/>
<feColorMatrix type="matrix" values="0 0 0 0 0.0392157 0 0 0 0 0.560784 0 0 0 0 0.309804 0 0 0 0.2 0"/>
<feBlend mode="normal" in2="BackgroundImageFix" result="effect1_dropShadow_363_2940"/>
<feBlend mode="normal" in="SourceGraphic" in2="effect1_dropShadow_363_2940" result="shape"/>
</filter>
<linearGradient id="paint0_linear_363_2940" x1="68.5" y1="97" x2="68.5" y2="57" gradientUnits="userSpaceOnUse">
<stop stop-color="#5CCC94"/>
<stop offset="1" stop-color="#8CCAAE"/>
</linearGradient>
<linearGradient id="paint1_linear_363_2940" x1="392.5" y1="77" x2="392.5" y2="57" gradientUnits="userSpaceOnUse">
<stop stop-color="#5CCC94"/>
<stop offset="1" stop-color="#8CCAAE"/>
</linearGradient>
<linearGradient id="paint2_linear_363_2940" x1="699" y1="83" x2="699" y2="55" gradientUnits="userSpaceOnUse">
<stop stop-color="#5CCC94"/>
<stop offset="1" stop-color="#8CCAAE"/>
</linearGradient>
<linearGradient id="paint3_linear_363_2940" x1="229.5" y1="33" x2="229.5" y2="31" gradientUnits="userSpaceOnUse">
<stop stop-color="#5CCC94"/>
<stop offset="1" stop-color="#8CCAAE"/>
</linearGradient>
<linearGradient id="paint4_linear_363_2940" x1="544.5" y1="33" x2="544.5" y2="31" gradientUnits="userSpaceOnUse">
<stop stop-color="#5CCC94"/>
<stop offset="1" stop-color="#8CCAAE"/>
</linearGradient>
<linearGradient id="paint5_linear_363_2940" x1="69" y1="47" x2="69" y2="17" gradientUnits="userSpaceOnUse">
<stop stop-color="#5CCC94"/>
<stop offset="1" stop-color="#8CCAAE"/>
</linearGradient>
<linearGradient id="paint6_linear_363_2940" x1="390" y1="47" x2="390" y2="17" gradientUnits="userSpaceOnUse">
<stop stop-color="#5CCC94"/>
<stop offset="1" stop-color="#8CCAAE"/>
</linearGradient>
<linearGradient id="paint7_linear_363_2940" x1="697" y1="47" x2="697" y2="17" gradientUnits="userSpaceOnUse">
<stop stop-color="#5CCC94"/>
<stop offset="1" stop-color="#8CCAAE"/>
</linearGradient>
</defs>
</svg>
