<svg width="698" height="86" viewBox="0 0 698 86" fill="none" xmlns="http://www.w3.org/2000/svg">
<path d="M5.4668 69.3818C5.4668 69.2041 5.45085 69.0423 5.41895 68.8965C5.38704 68.7507 5.31868 68.6162 5.21387 68.4932C5.11361 68.3701 4.96549 68.2471 4.76953 68.124C4.57812 68.001 4.32747 67.8734 4.01758 67.7412C3.64844 67.5863 3.29069 67.4222 2.94434 67.249C2.59798 67.0713 2.28581 66.8662 2.00781 66.6338C1.72982 66.4014 1.50879 66.1279 1.34473 65.8135C1.18522 65.4945 1.10547 65.1208 1.10547 64.6924C1.10547 64.2731 1.18066 63.8926 1.33105 63.5508C1.486 63.209 1.70475 62.9173 1.9873 62.6758C2.26986 62.4297 2.60026 62.2406 2.97852 62.1084C3.36133 61.9762 3.78743 61.9102 4.25684 61.9102C4.89486 61.9102 5.44629 62.0423 5.91113 62.3066C6.38053 62.571 6.74284 62.9333 6.99805 63.3936C7.25781 63.8538 7.3877 64.3825 7.3877 64.9795H5.3916C5.3916 64.6969 5.35059 64.4486 5.26855 64.2344C5.19108 64.0156 5.06576 63.8447 4.89258 63.7217C4.7194 63.5986 4.49609 63.5371 4.22266 63.5371C3.96745 63.5371 3.75553 63.5895 3.58691 63.6943C3.42285 63.7946 3.2998 63.9336 3.21777 64.1113C3.1403 64.2845 3.10156 64.4805 3.10156 64.6992C3.10156 64.8633 3.1403 65.0114 3.21777 65.1436C3.2998 65.2712 3.41146 65.3874 3.55273 65.4922C3.69401 65.5924 3.86035 65.6904 4.05176 65.7861C4.24772 65.8818 4.46191 65.9753 4.69434 66.0664C5.14551 66.2441 5.54427 66.4401 5.89062 66.6543C6.23698 66.8639 6.52637 67.1009 6.75879 67.3652C6.99121 67.625 7.16667 67.9189 7.28516 68.2471C7.40365 68.5752 7.46289 68.9489 7.46289 69.3682C7.46289 69.7829 7.38997 70.1611 7.24414 70.5029C7.10286 70.8402 6.89551 71.1318 6.62207 71.3779C6.34863 71.6195 6.01823 71.8063 5.63086 71.9385C5.24805 72.0706 4.81966 72.1367 4.3457 72.1367C3.88542 72.1367 3.4502 72.0729 3.04004 71.9453C2.62988 71.8132 2.26758 71.6149 1.95312 71.3506C1.64323 71.0817 1.39941 70.7422 1.22168 70.332C1.04395 69.9173 0.955078 69.4274 0.955078 68.8623H2.95801C2.95801 69.1631 2.98763 69.4206 3.04688 69.6348C3.10612 69.8444 3.19727 70.013 3.32031 70.1406C3.44336 70.2637 3.59375 70.3571 3.77148 70.4209C3.95378 70.4801 4.16113 70.5098 4.39355 70.5098C4.65788 70.5098 4.86751 70.4596 5.02246 70.3594C5.18197 70.2591 5.2959 70.1247 5.36426 69.9561C5.43262 69.7874 5.4668 69.596 5.4668 69.3818ZM11.9473 64.6035V66.0459H8.17383V64.6035H11.9473ZM9.04199 62.7783H10.9492V69.7441C10.9492 69.9492 10.9697 70.1064 11.0107 70.2158C11.0518 70.3252 11.1133 70.4027 11.1953 70.4482C11.2819 70.4893 11.3958 70.5098 11.5371 70.5098C11.6328 70.5098 11.7217 70.5052 11.8037 70.4961C11.8857 70.4824 11.9473 70.4688 11.9883 70.4551V71.9521C11.8379 72.0114 11.6784 72.057 11.5098 72.0889C11.3457 72.1208 11.1497 72.1367 10.9219 72.1367C10.5391 72.1367 10.2064 72.0638 9.92383 71.918C9.64583 71.7721 9.42936 71.5397 9.27441 71.2207C9.11947 70.8971 9.04199 70.4733 9.04199 69.9492V62.7783ZM15.0234 64.6035V72H13.1025V64.6035H15.0234ZM13.0137 62.6895C13.0137 62.3932 13.1071 62.1494 13.2939 61.958C13.4854 61.762 13.7406 61.6641 14.0596 61.6641C14.3831 61.6641 14.6383 61.762 14.8252 61.958C15.012 62.1494 15.1055 62.3932 15.1055 62.6895C15.1055 62.9811 15.0098 63.2249 14.8184 63.4209C14.6315 63.6123 14.3809 63.708 14.0664 63.708C13.7428 63.708 13.4854 63.6123 13.2939 63.4209C13.1071 63.2249 13.0137 62.9811 13.0137 62.6895ZM19.2139 70.5439C19.3916 70.5439 19.5443 70.5075 19.6719 70.4346C19.804 70.3617 19.9043 70.2432 19.9727 70.0791C20.041 69.915 20.0775 69.7031 20.082 69.4434H21.8799C21.8799 69.9993 21.7614 70.4801 21.5244 70.8857C21.292 71.2868 20.9775 71.5967 20.5811 71.8154C20.1891 72.0296 19.7448 72.1367 19.248 72.1367C18.7513 72.1367 18.3184 72.057 17.9492 71.8975C17.5801 71.738 17.2747 71.5055 17.0332 71.2002C16.7962 70.8949 16.6162 70.5234 16.4932 70.0859C16.3747 69.6439 16.3154 69.138 16.3154 68.5684V68.0283C16.3154 67.4678 16.3747 66.9665 16.4932 66.5244C16.6162 66.0824 16.7962 65.7087 17.0332 65.4033C17.2747 65.098 17.5778 64.8656 17.9424 64.7061C18.3115 64.5465 18.7445 64.4668 19.2412 64.4668C19.7744 64.4668 20.237 64.5785 20.6289 64.8018C21.0208 65.0205 21.3262 65.3441 21.5449 65.7725C21.7682 66.2008 21.8799 66.7295 21.8799 67.3584H20.082C20.0775 67.0758 20.0433 66.8411 19.9795 66.6543C19.9202 66.4629 19.8268 66.3171 19.6992 66.2168C19.5762 66.112 19.4121 66.0596 19.207 66.0596C18.9928 66.0596 18.8197 66.1051 18.6875 66.1963C18.5599 66.2829 18.4619 66.4105 18.3936 66.5791C18.3298 66.7432 18.2865 66.9482 18.2637 67.1943C18.2409 67.4404 18.2295 67.7184 18.2295 68.0283V68.5684C18.2295 68.901 18.2386 69.1904 18.2568 69.4365C18.2796 69.6781 18.3229 69.8831 18.3867 70.0518C18.4551 70.2158 18.5531 70.3389 18.6807 70.4209C18.8128 70.5029 18.9906 70.5439 19.2139 70.5439ZM24.8945 61.4932V72H22.9805V61.4932H24.8945ZM28.7842 64.6035L26.1797 68.2812L24.6143 70.0381L23.9375 68.582L25.1406 66.8252L26.501 64.6035H28.7842ZM26.7881 72L25.1748 68.6025L26.4941 67.3857L28.9824 72H26.7881ZM32.5234 72.1367C32.0176 72.1367 31.5687 72.0592 31.1768 71.9043C30.7894 71.7493 30.4613 71.526 30.1924 71.2344C29.9235 70.9382 29.7184 70.5804 29.5771 70.1611C29.4359 69.7419 29.3652 69.2633 29.3652 68.7256V68.1172C29.3652 67.5156 29.4336 66.9893 29.5703 66.5381C29.707 66.0824 29.9007 65.6995 30.1514 65.3896C30.402 65.0798 30.7096 64.8496 31.0742 64.6992C31.4434 64.5443 31.8604 64.4668 32.3252 64.4668C32.79 64.4668 33.1979 64.5443 33.5488 64.6992C33.9043 64.8496 34.1982 65.0775 34.4307 65.3828C34.6631 65.6836 34.8385 66.0573 34.957 66.5039C35.0755 66.9505 35.1348 67.4701 35.1348 68.0625V68.9375H30.1787V67.5908H33.2549V67.4199C33.2549 67.1191 33.223 66.8685 33.1592 66.668C33.0954 66.4629 32.9951 66.3102 32.8584 66.21C32.7217 66.1097 32.5394 66.0596 32.3115 66.0596C32.1201 66.0596 31.9583 66.0983 31.8262 66.1758C31.694 66.2533 31.5892 66.374 31.5117 66.5381C31.4342 66.7021 31.3773 66.9163 31.3408 67.1807C31.3044 67.4404 31.2861 67.7526 31.2861 68.1172V68.7256C31.2861 69.0674 31.3158 69.3545 31.375 69.5869C31.4342 69.8148 31.5208 70.0016 31.6348 70.1475C31.7533 70.2887 31.8968 70.3913 32.0654 70.4551C32.234 70.5143 32.43 70.5439 32.6533 70.5439C32.9906 70.5439 33.2936 70.4847 33.5625 70.3662C33.8359 70.2432 34.0684 70.0768 34.2598 69.8672L35.0254 71.0293C34.8932 71.2025 34.7109 71.3757 34.4785 71.5488C34.2461 71.722 33.9681 71.8633 33.6445 71.9727C33.321 72.082 32.9473 72.1367 32.5234 72.1367ZM38.1562 66.251V72H36.2422V64.6035H38.0469L38.1562 66.251ZM39.8994 64.5488L39.8721 66.4561C39.7855 66.4378 39.6807 66.4242 39.5576 66.415C39.4391 66.4059 39.3343 66.4014 39.2432 66.4014C39.029 66.4014 38.8467 66.4355 38.6963 66.5039C38.5459 66.5677 38.4206 66.6657 38.3203 66.7979C38.2246 66.9255 38.1517 67.085 38.1016 67.2764C38.0514 67.4678 38.0218 67.6842 38.0127 67.9258L37.6504 67.7891C37.6504 67.306 37.6868 66.8639 37.7598 66.4629C37.8372 66.0573 37.9512 65.7064 38.1016 65.4102C38.252 65.1094 38.432 64.877 38.6416 64.7129C38.8558 64.5488 39.0973 64.4668 39.3662 64.4668C39.4574 64.4668 39.5531 64.4759 39.6533 64.4941C39.7581 64.5078 39.8402 64.526 39.8994 64.5488ZM47.3301 64.6035V66.0459H43.5566V64.6035H47.3301ZM44.4248 62.7783H46.332V69.7441C46.332 69.9492 46.3525 70.1064 46.3936 70.2158C46.4346 70.3252 46.4961 70.4027 46.5781 70.4482C46.6647 70.4893 46.7786 70.5098 46.9199 70.5098C47.0156 70.5098 47.1045 70.5052 47.1865 70.4961C47.2686 70.4824 47.3301 70.4688 47.3711 70.4551V71.9521C47.2207 72.0114 47.0612 72.057 46.8926 72.0889C46.7285 72.1208 46.5326 72.1367 46.3047 72.1367C45.9219 72.1367 45.5892 72.0638 45.3066 71.918C45.0286 71.7721 44.8122 71.5397 44.6572 71.2207C44.5023 70.8971 44.4248 70.4733 44.4248 69.9492V62.7783ZM50.2559 71.1523L51.8008 64.6035H53.7969L51.3633 73.1074C51.3086 73.2943 51.2334 73.4948 51.1377 73.709C51.042 73.9277 50.9144 74.1328 50.7549 74.3242C50.5999 74.5202 50.404 74.6797 50.167 74.8027C49.93 74.9258 49.6452 74.9873 49.3125 74.9873C49.1439 74.9873 49.0072 74.9759 48.9023 74.9531C48.8021 74.9349 48.6745 74.903 48.5195 74.8574V73.3672C48.5605 73.3672 48.5993 73.3672 48.6357 73.3672C48.6768 73.3717 48.7155 73.374 48.752 73.374C48.9661 73.374 49.137 73.3444 49.2646 73.2852C49.3923 73.2305 49.4948 73.1439 49.5723 73.0254C49.6543 72.9069 49.7227 72.7588 49.7773 72.5811L50.2559 71.1523ZM49.8594 64.6035L51.0078 69.9082L51.2676 72.0684L49.9756 72.1914L47.8086 64.6035H49.8594ZM56.5449 66.0254V74.8438H54.6377V64.6035H56.4014L56.5449 66.0254ZM60.3867 68.0488V68.541C60.3867 69.1198 60.3366 69.6325 60.2363 70.0791C60.1361 70.5212 59.9857 70.8971 59.7852 71.207C59.5892 71.5124 59.3431 71.7448 59.0469 71.9043C58.7507 72.0592 58.4043 72.1367 58.0078 72.1367C57.6387 72.1367 57.3197 72.0501 57.0508 71.877C56.7865 71.6992 56.5632 71.4554 56.3809 71.1455C56.1986 70.8356 56.0527 70.4733 55.9434 70.0586C55.834 69.6439 55.7497 69.1995 55.6904 68.7256V67.96C55.7451 67.4541 55.8249 66.9893 55.9297 66.5654C56.0345 66.137 56.1781 65.7656 56.3604 65.4512C56.5472 65.1367 56.7728 64.8952 57.0371 64.7266C57.306 64.5534 57.625 64.4668 57.9941 64.4668C58.3952 64.4668 58.7438 64.5397 59.04 64.6855C59.3408 64.8314 59.5892 65.0524 59.7852 65.3486C59.9857 65.6403 60.1361 66.0117 60.2363 66.4629C60.3366 66.9141 60.3867 67.4427 60.3867 68.0488ZM58.4727 68.541V68.0488C58.4727 67.6934 58.4521 67.3903 58.4111 67.1396C58.3747 66.889 58.3154 66.6839 58.2334 66.5244C58.1514 66.3649 58.0443 66.2487 57.9121 66.1758C57.7799 66.1029 57.6182 66.0664 57.4268 66.0664C57.2399 66.0664 57.0758 66.1029 56.9346 66.1758C56.7979 66.2487 56.6862 66.3558 56.5996 66.4971C56.513 66.6338 56.4469 66.8024 56.4014 67.0029C56.3558 67.1989 56.3307 67.4222 56.3262 67.6729V69.0127C56.3353 69.3089 56.374 69.571 56.4424 69.7988C56.5153 70.0267 56.6315 70.209 56.791 70.3457C56.9505 70.4779 57.167 70.5439 57.4404 70.5439C57.6364 70.5439 57.7982 70.5029 57.9258 70.4209C58.0579 70.3389 58.165 70.2158 58.2471 70.0518C58.3291 69.8877 58.3861 69.6803 58.418 69.4297C58.4544 69.179 58.4727 68.8828 58.4727 68.541ZM64.543 72.1367C64.0371 72.1367 63.5882 72.0592 63.1963 71.9043C62.8089 71.7493 62.4808 71.526 62.2119 71.2344C61.943 70.9382 61.738 70.5804 61.5967 70.1611C61.4554 69.7419 61.3848 69.2633 61.3848 68.7256V68.1172C61.3848 67.5156 61.4531 66.9893 61.5898 66.5381C61.7266 66.0824 61.9202 65.6995 62.1709 65.3896C62.4215 65.0798 62.7292 64.8496 63.0938 64.6992C63.4629 64.5443 63.8799 64.4668 64.3447 64.4668C64.8096 64.4668 65.2174 64.5443 65.5684 64.6992C65.9238 64.8496 66.2178 65.0775 66.4502 65.3828C66.6826 65.6836 66.8581 66.0573 66.9766 66.5039C67.0951 66.9505 67.1543 67.4701 67.1543 68.0625V68.9375H62.1982V67.5908H65.2744V67.4199C65.2744 67.1191 65.2425 66.8685 65.1787 66.668C65.1149 66.4629 65.0146 66.3102 64.8779 66.21C64.7412 66.1097 64.5589 66.0596 64.3311 66.0596C64.1396 66.0596 63.9779 66.0983 63.8457 66.1758C63.7135 66.2533 63.6087 66.374 63.5312 66.5381C63.4538 66.7021 63.3968 66.9163 63.3604 67.1807C63.3239 67.4404 63.3057 67.7526 63.3057 68.1172V68.7256C63.3057 69.0674 63.3353 69.3545 63.3945 69.5869C63.4538 69.8148 63.5404 70.0016 63.6543 70.1475C63.7728 70.2887 63.9163 70.3913 64.085 70.4551C64.2536 70.5143 64.4495 70.5439 64.6729 70.5439C65.0101 70.5439 65.3132 70.4847 65.582 70.3662C65.8555 70.2432 66.0879 70.0768 66.2793 69.8672L67.0449 71.0293C66.9128 71.2025 66.7305 71.3757 66.498 71.5488C66.2656 71.722 65.9876 71.8633 65.6641 71.9727C65.3405 72.082 64.9668 72.1367 64.543 72.1367Z" fill="url(#paint0_linear_363_1448)"/>
<path d="M343.205 67.6592H341.168L341.161 66.21H342.897C343.171 66.21 343.394 66.1644 343.567 66.0732C343.745 65.9775 343.875 65.8385 343.957 65.6562C344.044 65.4694 344.087 65.2438 344.087 64.9795C344.087 64.6742 344.048 64.4303 343.971 64.248C343.893 64.0612 343.768 63.9245 343.595 63.8379C343.422 63.7513 343.196 63.708 342.918 63.708H341.852V72H339.849V62.0469H342.918C343.415 62.0469 343.859 62.1016 344.251 62.2109C344.643 62.3203 344.976 62.4867 345.249 62.71C345.522 62.9333 345.73 63.2158 345.871 63.5576C346.017 63.8994 346.09 64.3027 346.09 64.7676C346.09 65.1777 346.008 65.556 345.844 65.9023C345.68 66.2487 345.422 66.5312 345.071 66.75C344.725 66.9688 344.271 67.0918 343.711 67.1191L343.205 67.6592ZM343.137 72H340.601L341.4 70.3457H343.137C343.401 70.3457 343.615 70.2887 343.779 70.1748C343.943 70.0609 344.062 69.9082 344.135 69.7168C344.208 69.5208 344.244 69.2975 344.244 69.0469C344.244 68.7643 344.21 68.5182 344.142 68.3086C344.078 68.099 343.971 67.9395 343.82 67.8301C343.67 67.7161 343.467 67.6592 343.212 67.6592H341.489L341.503 66.21H343.595L344.066 66.7842C344.6 66.766 345.026 66.8685 345.345 67.0918C345.664 67.3105 345.892 67.5977 346.028 67.9531C346.17 68.304 346.24 68.6777 346.24 69.0742C346.24 69.7122 346.119 70.25 345.878 70.6875C345.641 71.1204 345.292 71.4486 344.832 71.6719C344.372 71.8906 343.807 72 343.137 72ZM349.624 64.6035V72H347.703V64.6035H349.624ZM347.614 62.6895C347.614 62.3932 347.708 62.1494 347.895 61.958C348.086 61.762 348.341 61.6641 348.66 61.6641C348.984 61.6641 349.239 61.762 349.426 61.958C349.613 62.1494 349.706 62.3932 349.706 62.6895C349.706 62.9811 349.61 63.2249 349.419 63.4209C349.232 63.6123 348.981 63.708 348.667 63.708C348.343 63.708 348.086 63.6123 347.895 63.4209C347.708 63.2249 347.614 62.9811 347.614 62.6895ZM353.151 61.5V72H351.23V61.5H353.151ZM356.679 61.5V72H354.758V61.5H356.679ZM360.206 64.6035V72H358.285V64.6035H360.206ZM358.196 62.6895C358.196 62.3932 358.29 62.1494 358.477 61.958C358.668 61.762 358.923 61.6641 359.242 61.6641C359.566 61.6641 359.821 61.762 360.008 61.958C360.195 62.1494 360.288 62.3932 360.288 62.6895C360.288 62.9811 360.192 63.2249 360.001 63.4209C359.814 63.6123 359.563 63.708 359.249 63.708C358.925 63.708 358.668 63.6123 358.477 63.4209C358.29 63.2249 358.196 62.9811 358.196 62.6895ZM363.604 66.1826V72H361.683V64.6035H363.48L363.604 66.1826ZM363.316 68.0488L362.804 68.0625C362.795 67.5065 362.847 67.0075 362.961 66.5654C363.079 66.1234 363.246 65.7474 363.46 65.4375C363.679 65.123 363.938 64.8838 364.239 64.7197C364.545 64.5511 364.884 64.4668 365.258 64.4668C365.545 64.4668 365.807 64.5169 366.044 64.6172C366.285 64.7174 366.493 64.877 366.666 65.0957C366.839 65.3145 366.974 65.6061 367.069 65.9707C367.165 66.3307 367.213 66.7728 367.213 67.2969V72H365.292V67.2832C365.292 66.9642 365.26 66.7181 365.196 66.5449C365.132 66.3672 365.037 66.2441 364.909 66.1758C364.782 66.1029 364.622 66.0664 364.431 66.0664C364.248 66.0664 364.087 66.1188 363.945 66.2236C363.804 66.3239 363.686 66.4629 363.59 66.6406C363.499 66.8184 363.428 67.028 363.378 67.2695C363.332 67.5111 363.312 67.7708 363.316 68.0488ZM372.504 64.6035H374.24V72C374.24 72.6745 374.11 73.2259 373.851 73.6543C373.595 74.0872 373.238 74.404 372.777 74.6045C372.322 74.8096 371.788 74.9121 371.178 74.9121C370.945 74.9121 370.683 74.8802 370.392 74.8164C370.104 74.7526 369.826 74.6546 369.558 74.5225C369.289 74.3949 369.068 74.2399 368.895 74.0576L369.544 72.7314C369.722 72.9092 369.954 73.0596 370.241 73.1826C370.528 73.3102 370.811 73.374 371.089 73.374C371.358 73.374 371.581 73.3307 371.759 73.2441C371.941 73.1621 372.078 73.0208 372.169 72.8203C372.265 72.6198 372.312 72.3509 372.312 72.0137V66.3193L372.504 64.6035ZM368.375 68.5615V68.0693C368.375 67.4678 368.432 66.9414 368.546 66.4902C368.66 66.0391 368.824 65.6631 369.038 65.3623C369.252 65.0615 369.514 64.8382 369.824 64.6924C370.139 64.542 370.49 64.4668 370.877 64.4668C371.283 64.4668 371.622 64.5557 371.896 64.7334C372.169 64.9066 372.39 65.1504 372.559 65.4648C372.732 65.7793 372.864 66.1507 372.955 66.5791C373.051 67.0075 373.124 67.4769 373.174 67.9873V68.6982C373.124 69.1813 373.042 69.6325 372.928 70.0518C372.818 70.471 372.673 70.8356 372.49 71.1455C372.308 71.4554 372.085 71.6992 371.82 71.877C371.556 72.0501 371.237 72.1367 370.863 72.1367C370.48 72.1367 370.134 72.0592 369.824 71.9043C369.519 71.7493 369.257 71.5215 369.038 71.2207C368.824 70.9154 368.66 70.5417 368.546 70.0996C368.432 69.653 368.375 69.1403 368.375 68.5615ZM370.296 68.0693V68.5615C370.296 68.9079 370.316 69.2064 370.357 69.457C370.403 69.7031 370.471 69.9059 370.562 70.0654C370.654 70.2204 370.77 70.3366 370.911 70.4141C371.057 70.487 371.228 70.5234 371.424 70.5234C371.702 70.5234 371.923 70.4596 372.087 70.332C372.256 70.1999 372.379 70.0199 372.456 69.792C372.538 69.5596 372.584 69.293 372.593 68.9922V67.7002C372.588 67.4495 372.559 67.224 372.504 67.0234C372.454 66.8229 372.383 66.652 372.292 66.5107C372.201 66.3695 372.082 66.2601 371.937 66.1826C371.795 66.1051 371.629 66.0664 371.438 66.0664C371.242 66.0664 371.073 66.1051 370.932 66.1826C370.79 66.2601 370.672 66.3809 370.576 66.5449C370.485 66.7044 370.414 66.9118 370.364 67.167C370.319 67.4176 370.296 67.7184 370.296 68.0693Z" fill="url(#paint1_linear_363_1448)"/>
<path d="M633.398 66.874L635.285 59.0469H637.445L634.561 69H633.104L633.398 66.874ZM631.785 59.0469L633.665 66.874L633.973 69H632.51L629.646 59.0469H631.785ZM640.979 69.1367C640.474 69.1367 640.025 69.0592 639.633 68.9043C639.245 68.7493 638.917 68.526 638.648 68.2344C638.38 67.9382 638.174 67.5804 638.033 67.1611C637.892 66.7419 637.821 66.2633 637.821 65.7256V65.1172C637.821 64.5156 637.89 63.9893 638.026 63.5381C638.163 63.0824 638.357 62.6995 638.607 62.3896C638.858 62.0798 639.166 61.8496 639.53 61.6992C639.899 61.5443 640.316 61.4668 640.781 61.4668C641.246 61.4668 641.654 61.5443 642.005 61.6992C642.36 61.8496 642.654 62.0775 642.887 62.3828C643.119 62.6836 643.295 63.0573 643.413 63.5039C643.532 63.9505 643.591 64.4701 643.591 65.0625V65.9375H638.635V64.5908H641.711V64.4199C641.711 64.1191 641.679 63.8685 641.615 63.668C641.551 63.4629 641.451 63.3102 641.314 63.21C641.178 63.1097 640.995 63.0596 640.768 63.0596C640.576 63.0596 640.414 63.0983 640.282 63.1758C640.15 63.2533 640.045 63.374 639.968 63.5381C639.89 63.7021 639.833 63.9163 639.797 64.1807C639.76 64.4404 639.742 64.7526 639.742 65.1172V65.7256C639.742 66.0674 639.772 66.3545 639.831 66.5869C639.89 66.8148 639.977 67.0016 640.091 67.1475C640.209 67.2887 640.353 67.3913 640.521 67.4551C640.69 67.5143 640.886 67.5439 641.109 67.5439C641.447 67.5439 641.75 67.4847 642.019 67.3662C642.292 67.2432 642.524 67.0768 642.716 66.8672L643.481 68.0293C643.349 68.2025 643.167 68.3757 642.935 68.5488C642.702 68.722 642.424 68.8633 642.101 68.9727C641.777 69.082 641.403 69.1367 640.979 69.1367ZM646.612 63.251V69H644.698V61.6035H646.503L646.612 63.251ZM648.355 61.5488L648.328 63.4561C648.242 63.4378 648.137 63.4242 648.014 63.415C647.895 63.4059 647.79 63.4014 647.699 63.4014C647.485 63.4014 647.303 63.4355 647.152 63.5039C647.002 63.5677 646.877 63.6657 646.776 63.7979C646.681 63.9255 646.608 64.085 646.558 64.2764C646.507 64.4678 646.478 64.6842 646.469 64.9258L646.106 64.7891C646.106 64.306 646.143 63.8639 646.216 63.4629C646.293 63.0573 646.407 62.7064 646.558 62.4102C646.708 62.1094 646.888 61.877 647.098 61.7129C647.312 61.5488 647.553 61.4668 647.822 61.4668C647.913 61.4668 648.009 61.4759 648.109 61.4941C648.214 61.5078 648.296 61.526 648.355 61.5488ZM651.343 61.6035V69H649.422V61.6035H651.343ZM649.333 59.6895C649.333 59.3932 649.426 59.1494 649.613 58.958C649.805 58.762 650.06 58.6641 650.379 58.6641C650.702 58.6641 650.958 58.762 651.145 58.958C651.331 59.1494 651.425 59.3932 651.425 59.6895C651.425 59.9811 651.329 60.2249 651.138 60.4209C650.951 60.6123 650.7 60.708 650.386 60.708C650.062 60.708 649.805 60.6123 649.613 60.4209C649.426 60.2249 649.333 59.9811 649.333 59.6895ZM655.171 69H653.257V61.2959C653.257 60.6579 653.368 60.1224 653.592 59.6895C653.82 59.252 654.148 58.9215 654.576 58.6982C655.009 58.4704 655.526 58.3564 656.128 58.3564C656.474 58.3564 656.802 58.3952 657.112 58.4727C657.427 58.5456 657.75 58.6413 658.083 58.7598L657.81 60.3867C657.609 60.3138 657.383 60.2454 657.133 60.1816C656.887 60.1133 656.595 60.0791 656.258 60.0791C655.889 60.0791 655.615 60.1816 655.438 60.3867C655.26 60.5918 655.171 60.8949 655.171 61.2959V69ZM656.312 61.6035V63.0459H652.354V61.6035H656.312ZM658.965 61.6035V69H657.044V61.6035H658.965ZM663.162 67.5439C663.34 67.5439 663.493 67.5075 663.62 67.4346C663.752 67.3617 663.853 67.2432 663.921 67.0791C663.989 66.915 664.026 66.7031 664.03 66.4434H665.828C665.828 66.9993 665.71 67.4801 665.473 67.8857C665.24 68.2868 664.926 68.5967 664.529 68.8154C664.137 69.0296 663.693 69.1367 663.196 69.1367C662.7 69.1367 662.267 69.057 661.897 68.8975C661.528 68.738 661.223 68.5055 660.981 68.2002C660.744 67.8949 660.564 67.5234 660.441 67.0859C660.323 66.6439 660.264 66.138 660.264 65.5684V65.0283C660.264 64.4678 660.323 63.9665 660.441 63.5244C660.564 63.0824 660.744 62.7087 660.981 62.4033C661.223 62.098 661.526 61.8656 661.891 61.7061C662.26 61.5465 662.693 61.4668 663.189 61.4668C663.723 61.4668 664.185 61.5785 664.577 61.8018C664.969 62.0205 665.274 62.3441 665.493 62.7725C665.716 63.2008 665.828 63.7295 665.828 64.3584H664.03C664.026 64.0758 663.992 63.8411 663.928 63.6543C663.868 63.4629 663.775 63.3171 663.647 63.2168C663.524 63.112 663.36 63.0596 663.155 63.0596C662.941 63.0596 662.768 63.1051 662.636 63.1963C662.508 63.2829 662.41 63.4105 662.342 63.5791C662.278 63.7432 662.235 63.9482 662.212 64.1943C662.189 64.4404 662.178 64.7184 662.178 65.0283V65.5684C662.178 65.901 662.187 66.1904 662.205 66.4365C662.228 66.6781 662.271 66.8831 662.335 67.0518C662.403 67.2158 662.501 67.3389 662.629 67.4209C662.761 67.5029 662.939 67.5439 663.162 67.5439ZM670.189 67.2979V63.8799C670.189 63.6566 670.162 63.4788 670.107 63.3467C670.057 63.2145 669.98 63.1188 669.875 63.0596C669.775 62.9958 669.652 62.9639 669.506 62.9639C669.342 62.9639 669.205 62.998 669.096 63.0664C668.986 63.1348 668.904 63.2327 668.85 63.3604C668.799 63.488 668.774 63.6406 668.774 63.8184H666.854C666.854 63.4993 666.915 63.1986 667.038 62.916C667.161 62.6289 667.341 62.3783 667.578 62.1641C667.82 61.9453 668.107 61.7744 668.439 61.6514C668.772 61.5283 669.146 61.4668 669.561 61.4668C670.053 61.4668 670.49 61.5511 670.873 61.7197C671.256 61.8838 671.559 62.1458 671.782 62.5059C672.006 62.8659 672.117 63.333 672.117 63.9072V67.2021C672.117 67.6169 672.138 67.9541 672.179 68.2139C672.224 68.4736 672.29 68.6969 672.377 68.8838V69H670.449C670.363 68.7949 670.297 68.5397 670.251 68.2344C670.21 67.9245 670.189 67.6123 670.189 67.2979ZM670.422 64.4814L670.429 65.6299H669.725C669.542 65.6299 669.383 65.6595 669.246 65.7188C669.114 65.778 669.002 65.8623 668.911 65.9717C668.82 66.0765 668.752 66.1995 668.706 66.3408C668.665 66.4821 668.645 66.6325 668.645 66.792C668.645 66.9697 668.67 67.1201 668.72 67.2432C668.77 67.3662 668.845 67.4596 668.945 67.5234C669.046 67.5872 669.164 67.6191 669.301 67.6191C669.51 67.6191 669.693 67.5758 669.848 67.4893C670.003 67.4027 670.117 67.2979 670.189 67.1748C670.267 67.0518 670.292 66.9378 670.265 66.833L670.702 67.5781C670.647 67.7467 670.572 67.9222 670.477 68.1045C670.385 68.2868 670.269 68.4554 670.128 68.6104C669.987 68.7653 669.811 68.8929 669.602 68.9932C669.396 69.0889 669.153 69.1367 668.87 69.1367C668.474 69.1367 668.111 69.0456 667.783 68.8633C667.455 68.681 667.195 68.4258 667.004 68.0977C666.817 67.7695 666.724 67.3799 666.724 66.9287C666.724 66.555 666.783 66.2178 666.901 65.917C667.024 65.6117 667.207 65.3542 667.448 65.1445C667.69 64.9303 667.995 64.7663 668.364 64.6523C668.733 64.5384 669.166 64.4814 669.663 64.4814H670.422ZM676.759 61.6035V63.0459H672.985V61.6035H676.759ZM673.854 59.7783H675.761V66.7441C675.761 66.9492 675.781 67.1064 675.822 67.2158C675.863 67.3252 675.925 67.4027 676.007 67.4482C676.093 67.4893 676.207 67.5098 676.349 67.5098C676.444 67.5098 676.533 67.5052 676.615 67.4961C676.697 67.4824 676.759 67.4688 676.8 67.4551V68.9521C676.649 69.0114 676.49 69.057 676.321 69.0889C676.157 69.1208 675.961 69.1367 675.733 69.1367C675.351 69.1367 675.018 69.0638 674.735 68.918C674.457 68.7721 674.241 68.5397 674.086 68.2207C673.931 67.8971 673.854 67.4733 673.854 66.9492V59.7783ZM679.835 61.6035V69H677.914V61.6035H679.835ZM677.825 59.6895C677.825 59.3932 677.919 59.1494 678.105 58.958C678.297 58.762 678.552 58.6641 678.871 58.6641C679.195 58.6641 679.45 58.762 679.637 58.958C679.824 59.1494 679.917 59.3932 679.917 59.6895C679.917 59.9811 679.821 60.2249 679.63 60.4209C679.443 60.6123 679.192 60.708 678.878 60.708C678.554 60.708 678.297 60.6123 678.105 60.4209C677.919 60.2249 677.825 59.9811 677.825 59.6895ZM681.134 65.5547V65.0557C681.134 64.4769 681.202 63.9642 681.339 63.5176C681.48 63.071 681.681 62.6973 681.94 62.3965C682.2 62.0911 682.512 61.861 682.877 61.7061C683.246 61.5465 683.659 61.4668 684.114 61.4668C684.575 61.4668 684.987 61.5465 685.352 61.7061C685.721 61.861 686.035 62.0911 686.295 62.3965C686.559 62.6973 686.762 63.071 686.903 63.5176C687.045 63.9642 687.115 64.4769 687.115 65.0557V65.5547C687.115 66.1289 687.045 66.6393 686.903 67.0859C686.762 67.5326 686.559 67.9085 686.295 68.2139C686.035 68.5192 685.723 68.7493 685.358 68.9043C684.994 69.0592 684.584 69.1367 684.128 69.1367C683.672 69.1367 683.26 69.0592 682.891 68.9043C682.526 68.7493 682.212 68.5192 681.947 68.2139C681.683 67.9085 681.48 67.5326 681.339 67.0859C681.202 66.6393 681.134 66.1289 681.134 65.5547ZM683.048 65.0557V65.5547C683.048 65.8965 683.071 66.1927 683.116 66.4434C683.166 66.694 683.237 66.9014 683.328 67.0654C683.424 67.2295 683.538 67.3503 683.67 67.4277C683.802 67.5052 683.955 67.5439 684.128 67.5439C684.301 67.5439 684.456 67.5052 684.593 67.4277C684.729 67.3503 684.841 67.2295 684.928 67.0654C685.019 66.9014 685.085 66.694 685.126 66.4434C685.172 66.1927 685.194 65.8965 685.194 65.5547V65.0557C685.194 64.723 685.169 64.4313 685.119 64.1807C685.069 63.9255 684.998 63.7181 684.907 63.5586C684.816 63.3945 684.702 63.2715 684.565 63.1895C684.433 63.1029 684.283 63.0596 684.114 63.0596C683.946 63.0596 683.795 63.1029 683.663 63.1895C683.535 63.2715 683.424 63.3945 683.328 63.5586C683.237 63.7181 683.166 63.9255 683.116 64.1807C683.071 64.4313 683.048 64.723 683.048 65.0557ZM690.205 63.1826V69H688.284V61.6035H690.082L690.205 63.1826ZM689.918 65.0488L689.405 65.0625C689.396 64.5065 689.449 64.0075 689.562 63.5654C689.681 63.1234 689.847 62.7474 690.062 62.4375C690.28 62.123 690.54 61.8838 690.841 61.7197C691.146 61.5511 691.486 61.4668 691.859 61.4668C692.146 61.4668 692.409 61.5169 692.646 61.6172C692.887 61.7174 693.094 61.877 693.268 62.0957C693.441 62.3145 693.575 62.6061 693.671 62.9707C693.767 63.3307 693.814 63.7728 693.814 64.2969V69H691.894V64.2832C691.894 63.9642 691.862 63.7181 691.798 63.5449C691.734 63.3672 691.638 63.2441 691.511 63.1758C691.383 63.1029 691.224 63.0664 691.032 63.0664C690.85 63.0664 690.688 63.1188 690.547 63.2236C690.406 63.3239 690.287 63.4629 690.191 63.6406C690.1 63.8184 690.03 64.028 689.979 64.2695C689.934 64.5111 689.913 64.7708 689.918 65.0488ZM633.986 77.6816L635.6 76.4443C635.837 76.2529 635.985 76.0729 636.044 75.9043C636.103 75.7311 636.133 75.5443 636.133 75.3438C636.133 75.1387 636.074 74.9473 635.955 74.7695C635.837 74.5872 635.675 74.4961 635.47 74.4961C635.319 74.4961 635.194 74.5417 635.094 74.6328C634.998 74.724 634.925 74.8447 634.875 74.9951C634.829 75.1455 634.807 75.3141 634.807 75.501C634.807 75.7015 634.854 75.9066 634.95 76.1162C635.046 76.3258 635.174 76.5492 635.333 76.7861C635.493 77.0186 635.668 77.2715 635.859 77.5449L639.756 83H637.582L634.472 78.5908C634.203 78.1898 633.964 77.8229 633.754 77.4902C633.549 77.153 633.387 76.8249 633.269 76.5059C633.155 76.1868 633.098 75.8587 633.098 75.5215C633.098 75.002 633.196 74.5462 633.392 74.1543C633.592 73.7578 633.87 73.4502 634.226 73.2314C634.581 73.0127 634.998 72.9033 635.477 72.9033C635.923 72.9033 636.315 73.0104 636.652 73.2246C636.99 73.4388 637.249 73.7214 637.432 74.0723C637.618 74.4186 637.712 74.8014 637.712 75.2207C637.712 75.5352 637.666 75.8223 637.575 76.082C637.484 76.3418 637.354 76.5833 637.186 76.8066C637.021 77.0299 636.821 77.235 636.584 77.4219L634.67 78.9805C634.574 79.1263 634.501 79.2721 634.451 79.418C634.401 79.5592 634.365 79.696 634.342 79.8281C634.324 79.9557 634.314 80.0811 634.314 80.2041C634.314 80.4593 634.358 80.6917 634.444 80.9014C634.531 81.1064 634.645 81.266 634.786 81.3799C634.932 81.4938 635.094 81.5508 635.271 81.5508C635.568 81.5508 635.853 81.4688 636.126 81.3047C636.404 81.1406 636.655 80.9059 636.878 80.6006C637.101 80.2952 637.277 79.9329 637.404 79.5137C637.536 79.0898 637.603 78.625 637.603 78.1191H639.223C639.223 78.6341 639.179 79.124 639.093 79.5889C639.006 80.0537 638.863 80.4821 638.662 80.874C638.462 81.266 638.193 81.6146 637.855 81.9199C637.833 81.9382 637.796 81.9701 637.746 82.0156C637.701 82.0612 637.664 82.0954 637.637 82.1182C637.268 82.4645 636.882 82.722 636.481 82.8906C636.085 83.0592 635.65 83.1436 635.176 83.1436C634.602 83.1436 634.107 83.0228 633.692 82.7812C633.278 82.5397 632.956 82.207 632.729 81.7832C632.505 81.3548 632.394 80.8672 632.394 80.3203C632.394 79.9193 632.46 79.5706 632.592 79.2744C632.729 78.9736 632.915 78.6979 633.152 78.4473C633.394 78.1966 633.672 77.9414 633.986 77.6816ZM647.426 79.4932H645.389V77.832H647.426C647.708 77.832 647.938 77.7682 648.116 77.6406C648.299 77.513 648.431 77.3376 648.513 77.1143C648.595 76.8864 648.636 76.6312 648.636 76.3486C648.636 76.0615 648.592 75.7949 648.506 75.5488C648.424 75.2982 648.294 75.0954 648.116 74.9404C647.943 74.7855 647.713 74.708 647.426 74.708H646.031V83H644.035V73.0469H647.426C648.096 73.0469 648.672 73.1882 649.155 73.4707C649.638 73.7533 650.007 74.1429 650.263 74.6396C650.522 75.1318 650.652 75.6969 650.652 76.335C650.652 76.9775 650.522 77.5358 650.263 78.0098C650.007 78.4792 649.638 78.8438 649.155 79.1035C648.672 79.3633 648.096 79.4932 647.426 79.4932ZM655.075 81.2979V77.8799C655.075 77.6566 655.048 77.4788 654.993 77.3467C654.943 77.2145 654.866 77.1188 654.761 77.0596C654.66 76.9958 654.537 76.9639 654.392 76.9639C654.228 76.9639 654.091 76.998 653.981 77.0664C653.872 77.1348 653.79 77.2327 653.735 77.3604C653.685 77.488 653.66 77.6406 653.66 77.8184H651.739C651.739 77.4993 651.801 77.1986 651.924 76.916C652.047 76.6289 652.227 76.3783 652.464 76.1641C652.705 75.9453 652.993 75.7744 653.325 75.6514C653.658 75.5283 654.032 75.4668 654.446 75.4668C654.938 75.4668 655.376 75.5511 655.759 75.7197C656.142 75.8838 656.445 76.1458 656.668 76.5059C656.891 76.8659 657.003 77.333 657.003 77.9072V81.2021C657.003 81.6169 657.023 81.9541 657.064 82.2139C657.11 82.4736 657.176 82.6969 657.263 82.8838V83H655.335C655.248 82.7949 655.182 82.5397 655.137 82.2344C655.096 81.9245 655.075 81.6123 655.075 81.2979ZM655.308 78.4814L655.314 79.6299H654.61C654.428 79.6299 654.269 79.6595 654.132 79.7188C654 79.778 653.888 79.8623 653.797 79.9717C653.706 80.0765 653.637 80.1995 653.592 80.3408C653.551 80.4821 653.53 80.6325 653.53 80.792C653.53 80.9697 653.555 81.1201 653.605 81.2432C653.656 81.3662 653.731 81.4596 653.831 81.5234C653.931 81.5872 654.05 81.6191 654.187 81.6191C654.396 81.6191 654.578 81.5758 654.733 81.4893C654.888 81.4027 655.002 81.2979 655.075 81.1748C655.153 81.0518 655.178 80.9378 655.15 80.833L655.588 81.5781C655.533 81.7467 655.458 81.9222 655.362 82.1045C655.271 82.2868 655.155 82.4554 655.014 82.6104C654.872 82.7653 654.697 82.8929 654.487 82.9932C654.282 83.0889 654.038 83.1367 653.756 83.1367C653.359 83.1367 652.997 83.0456 652.669 82.8633C652.341 82.681 652.081 82.4258 651.89 82.0977C651.703 81.7695 651.609 81.3799 651.609 80.9287C651.609 80.555 651.669 80.2178 651.787 79.917C651.91 79.6117 652.092 79.3542 652.334 79.1445C652.576 78.9303 652.881 78.7663 653.25 78.6523C653.619 78.5384 654.052 78.4814 654.549 78.4814H655.308ZM660.168 82.1523L661.713 75.6035H663.709L661.275 84.1074C661.221 84.2943 661.146 84.4948 661.05 84.709C660.954 84.9277 660.826 85.1328 660.667 85.3242C660.512 85.5202 660.316 85.6797 660.079 85.8027C659.842 85.9258 659.557 85.9873 659.225 85.9873C659.056 85.9873 658.919 85.9759 658.814 85.9531C658.714 85.9349 658.587 85.903 658.432 85.8574V84.3672C658.473 84.3672 658.511 84.3672 658.548 84.3672C658.589 84.3717 658.628 84.374 658.664 84.374C658.878 84.374 659.049 84.3444 659.177 84.2852C659.304 84.2305 659.407 84.1439 659.484 84.0254C659.566 83.9069 659.635 83.7588 659.689 83.5811L660.168 82.1523ZM659.771 75.6035L660.92 80.9082L661.18 83.0684L659.888 83.1914L657.721 75.6035H659.771ZM666.471 77.1348V83H664.55V75.6035H666.354L666.471 77.1348ZM666.197 79.0488L665.671 79.0625C665.662 78.543 665.707 78.0645 665.808 77.627C665.908 77.1895 666.058 76.8089 666.259 76.4854C666.464 76.1618 666.721 75.9111 667.031 75.7334C667.341 75.5557 667.703 75.4668 668.118 75.4668C668.387 75.4668 668.635 75.5169 668.863 75.6172C669.091 75.7129 669.289 75.8656 669.458 76.0752C669.627 76.2803 669.757 76.5492 669.848 76.8818C669.939 77.21 669.984 77.6042 669.984 78.0645V83H668.07V78.2969C668.07 77.9688 668.038 77.7181 667.975 77.5449C667.911 77.3672 667.82 77.2441 667.701 77.1758C667.583 77.1029 667.437 77.0664 667.264 77.0664C667.081 77.0664 666.922 77.1165 666.785 77.2168C666.648 77.3171 666.537 77.4583 666.45 77.6406C666.368 77.8184 666.304 78.028 666.259 78.2695C666.218 78.5111 666.197 78.7708 666.197 79.0488ZM669.8 78.8574L669.109 78.9463C669.1 78.4587 669.144 78.0052 669.239 77.5859C669.335 77.1621 669.483 76.793 669.684 76.4785C669.884 76.1595 670.135 75.9111 670.436 75.7334C670.741 75.5557 671.094 75.4668 671.495 75.4668C671.796 75.4668 672.069 75.5169 672.315 75.6172C672.562 75.7174 672.771 75.8792 672.944 76.1025C673.122 76.3213 673.257 76.6107 673.348 76.9707C673.443 77.3307 673.491 77.7682 673.491 78.2832V83H671.57V78.29C671.57 77.9574 671.538 77.7021 671.475 77.5244C671.411 77.3467 671.32 77.2259 671.201 77.1621C671.083 77.0983 670.941 77.0664 670.777 77.0664C670.613 77.0664 670.47 77.112 670.347 77.2031C670.228 77.2943 670.128 77.4219 670.046 77.5859C669.964 77.7454 669.902 77.9346 669.861 78.1533C669.82 78.3675 669.8 78.6022 669.8 78.8574ZM677.914 83.1367C677.408 83.1367 676.959 83.0592 676.567 82.9043C676.18 82.7493 675.852 82.526 675.583 82.2344C675.314 81.9382 675.109 81.5804 674.968 81.1611C674.826 80.7419 674.756 80.2633 674.756 79.7256V79.1172C674.756 78.5156 674.824 77.9893 674.961 77.5381C675.098 77.0824 675.291 76.6995 675.542 76.3896C675.793 76.0798 676.1 75.8496 676.465 75.6992C676.834 75.5443 677.251 75.4668 677.716 75.4668C678.181 75.4668 678.589 75.5443 678.939 75.6992C679.295 75.8496 679.589 76.0775 679.821 76.3828C680.054 76.6836 680.229 77.0573 680.348 77.5039C680.466 77.9505 680.525 78.4701 680.525 79.0625V79.9375H675.569V78.5908H678.646V78.4199C678.646 78.1191 678.614 77.8685 678.55 77.668C678.486 77.4629 678.386 77.3102 678.249 77.21C678.112 77.1097 677.93 77.0596 677.702 77.0596C677.511 77.0596 677.349 77.0983 677.217 77.1758C677.085 77.2533 676.98 77.374 676.902 77.5381C676.825 77.7021 676.768 77.9163 676.731 78.1807C676.695 78.4404 676.677 78.7526 676.677 79.1172V79.7256C676.677 80.0674 676.706 80.3545 676.766 80.5869C676.825 80.8148 676.911 81.0016 677.025 81.1475C677.144 81.2887 677.287 81.3913 677.456 81.4551C677.625 81.5143 677.821 81.5439 678.044 81.5439C678.381 81.5439 678.684 81.4847 678.953 81.3662C679.227 81.2432 679.459 81.0768 679.65 80.8672L680.416 82.0293C680.284 82.2025 680.102 82.3757 679.869 82.5488C679.637 82.722 679.359 82.8633 679.035 82.9727C678.712 83.082 678.338 83.1367 677.914 83.1367ZM683.513 77.1826V83H681.592V75.6035H683.39L683.513 77.1826ZM683.226 79.0488L682.713 79.0625C682.704 78.5065 682.756 78.0075 682.87 77.5654C682.989 77.1234 683.155 76.7474 683.369 76.4375C683.588 76.123 683.848 75.8838 684.148 75.7197C684.454 75.5511 684.793 75.4668 685.167 75.4668C685.454 75.4668 685.716 75.5169 685.953 75.6172C686.195 75.7174 686.402 75.877 686.575 76.0957C686.748 76.3145 686.883 76.6061 686.979 76.9707C687.074 77.3307 687.122 77.7728 687.122 78.2969V83H685.201V78.2832C685.201 77.9642 685.169 77.7181 685.105 77.5449C685.042 77.3672 684.946 77.2441 684.818 77.1758C684.691 77.1029 684.531 77.0664 684.34 77.0664C684.158 77.0664 683.996 77.1188 683.854 77.2236C683.713 77.3239 683.595 77.4629 683.499 77.6406C683.408 77.8184 683.337 78.028 683.287 78.2695C683.242 78.5111 683.221 78.7708 683.226 79.0488ZM691.75 75.6035V77.0459H687.977V75.6035H691.75ZM688.845 73.7783H690.752V80.7441C690.752 80.9492 690.772 81.1064 690.813 81.2158C690.854 81.3252 690.916 81.4027 690.998 81.4482C691.085 81.4893 691.199 81.5098 691.34 81.5098C691.436 81.5098 691.524 81.5052 691.606 81.4961C691.688 81.4824 691.75 81.4688 691.791 81.4551V82.9521C691.641 83.0114 691.481 83.057 691.312 83.0889C691.148 83.1208 690.952 83.1367 690.725 83.1367C690.342 83.1367 690.009 83.0638 689.727 82.918C689.449 82.7721 689.232 82.5397 689.077 82.2207C688.922 81.8971 688.845 81.4733 688.845 80.9492V73.7783Z" fill="#E0E0E9"/>
<path fill-rule="evenodd" clip-rule="evenodd" d="M655 33H365V31H655V33Z" fill="#D0CFD7"/>
<path fill-rule="evenodd" clip-rule="evenodd" d="M341 33H48V31H341V33Z" fill="url(#paint2_linear_363_1448)"/>
<g filter="url(#filter0_d_363_1448)">
<path d="M34 17C25.7125 17 19 23.7125 19 32C19 34.8125 19.7875 37.475 21.175 39.725C22.497 41.9468 24.3748 43.7861 26.6236 45.0617C28.8724 46.3373 31.4146 47.0053 34 47C39.475 47 44.2375 44.075 46.825 39.725C48.2125 37.475 49 34.8125 49 32C49 23.7125 42.2875 17 34 17ZM41.3875 30.7625L33.4 38.15C32.875 38.6375 32.1625 38.9 31.4875 38.9C30.775 38.9 30.0625 38.6375 29.5 38.075L25.7875 34.3625C25.2644 33.8332 24.9711 33.1191 24.9711 32.375C24.9711 31.6309 25.2644 30.9168 25.7875 30.3875C26.875 29.3 28.675 29.3 29.7625 30.3875L31.5625 32.1875L37.5625 26.6375C38.6875 25.5875 40.4875 25.6625 41.5375 26.7875C42.5875 27.9125 42.5125 29.7125 41.3875 30.7625Z" fill="url(#paint3_linear_363_1448)"/>
</g>
<g filter="url(#filter1_d_363_1448)">
<path d="M355 17C346.712 17 340 23.7125 340 32C340 34.8125 340.788 37.475 342.175 39.725C343.497 41.9468 345.375 43.7861 347.624 45.0617C349.872 46.3373 352.415 47.0053 355 47C360.475 47 365.238 44.075 367.825 39.725C369.213 37.475 370 34.8125 370 32C370 23.7125 363.288 17 355 17ZM362.387 30.7625L354.4 38.15C353.875 38.6375 353.162 38.9 352.487 38.9C351.775 38.9 351.062 38.6375 350.5 38.075L346.787 34.3625C346.264 33.8332 345.971 33.1191 345.971 32.375C345.971 31.6309 346.264 30.9168 346.787 30.3875C347.875 29.3 349.675 29.3 350.762 30.3875L352.562 32.1875L358.562 26.6375C359.687 25.5875 361.488 25.6625 362.538 26.7875C363.588 27.9125 363.512 29.7125 362.387 30.7625Z" fill="url(#paint4_linear_363_1448)"/>
</g>
<circle cx="661.5" cy="32.5" r="14.5" fill="#D0CFD7"/>
<defs>
<filter id="filter0_d_363_1448" x="2" y="0" width="74" height="74" filterUnits="userSpaceOnUse" color-interpolation-filters="sRGB">
<feFlood flood-opacity="0" result="BackgroundImageFix"/>
<feColorMatrix in="SourceAlpha" type="matrix" values="0 0 0 0 0 0 0 0 0 0 0 0 0 0 0 0 0 0 127 0" result="hardAlpha"/>
<feOffset dx="5" dy="5"/>
<feGaussianBlur stdDeviation="11"/>
<feComposite in2="hardAlpha" operator="out"/>
<feColorMatrix type="matrix" values="0 0 0 0 0.0392157 0 0 0 0 0.560784 0 0 0 0 0.309804 0 0 0 0.2 0"/>
<feBlend mode="normal" in2="BackgroundImageFix" result="effect1_dropShadow_363_1448"/>
<feBlend mode="normal" in="SourceGraphic" in2="effect1_dropShadow_363_1448" result="shape"/>
</filter>
<filter id="filter1_d_363_1448" x="323" y="0" width="74" height="74" filterUnits="userSpaceOnUse" color-interpolation-filters="sRGB">
<feFlood flood-opacity="0" result="BackgroundImageFix"/>
<feColorMatrix in="SourceAlpha" type="matrix" values="0 0 0 0 0 0 0 0 0 0 0 0 0 0 0 0 0 0 127 0" result="hardAlpha"/>
<feOffset dx="5" dy="5"/>
<feGaussianBlur stdDeviation="11"/>
<feComposite in2="hardAlpha" operator="out"/>
<feColorMatrix type="matrix" values="0 0 0 0 0.0392157 0 0 0 0 0.560784 0 0 0 0 0.309804 0 0 0 0.2 0"/>
<feBlend mode="normal" in2="BackgroundImageFix" result="effect1_dropShadow_363_1448"/>
<feBlend mode="normal" in="SourceGraphic" in2="effect1_dropShadow_363_1448" result="shape"/>
</filter>
<linearGradient id="paint0_linear_363_1448" x1="34" y1="77" x2="34" y2="57" gradientUnits="userSpaceOnUse">
<stop stop-color="#5CCC94"/>
<stop offset="1" stop-color="#8CCAAE"/>
</linearGradient>
<linearGradient id="paint1_linear_363_1448" x1="357" y1="77" x2="357" y2="57" gradientUnits="userSpaceOnUse">
<stop stop-color="#5CCC94"/>
<stop offset="1" stop-color="#8CCAAE"/>
</linearGradient>
<linearGradient id="paint2_linear_363_1448" x1="194.5" y1="33" x2="194.5" y2="31" gradientUnits="userSpaceOnUse">
<stop stop-color="#5CCC94"/>
<stop offset="1" stop-color="#8CCAAE"/>
</linearGradient>
<linearGradient id="paint3_linear_363_1448" x1="34" y1="47" x2="34" y2="17" gradientUnits="userSpaceOnUse">
<stop stop-color="#5CCC94"/>
<stop offset="1" stop-color="#8CCAAE"/>
</linearGradient>
<linearGradient id="paint4_linear_363_1448" x1="355" y1="47" x2="355" y2="17" gradientUnits="userSpaceOnUse">
<stop stop-color="#5CCC94"/>
<stop offset="1" stop-color="#8CCAAE"/>
</linearGradient>
</defs>
</svg>
