<svg width="1023" height="114" viewBox="0 0 1023 114" fill="none" xmlns="http://www.w3.org/2000/svg">
<path d="M15.5537 58.0469V68H13.5645V58.0469H15.5537ZM18.0283 58.0469V59.708H11.1377V58.0469H18.0283ZM20.3936 67.1523L21.9385 60.6035H23.9346L21.501 69.1074C21.4463 69.2943 21.3711 69.4948 21.2754 69.709C21.1797 69.9277 21.0521 70.1328 20.8926 70.3242C20.7376 70.5202 20.5417 70.6797 20.3047 70.8027C20.0677 70.9258 19.7829 70.9873 19.4502 70.9873C19.2816 70.9873 19.1449 70.9759 19.04 70.9531C18.9398 70.9349 18.8122 70.903 18.6572 70.8574V69.3672C18.6982 69.3672 18.737 69.3672 18.7734 69.3672C18.8145 69.3717 18.8532 69.374 18.8896 69.374C19.1038 69.374 19.2747 69.3444 19.4023 69.2852C19.5299 69.2305 19.6325 69.1439 19.71 69.0254C19.792 68.9069 19.8604 68.7588 19.915 68.5811L20.3936 67.1523ZM19.9971 60.6035L21.1455 65.9082L21.4053 68.0684L20.1133 68.1914L17.9463 60.6035H19.9971ZM26.6826 62.0254V70.8438H24.7754V60.6035H26.5391L26.6826 62.0254ZM30.5244 64.0488V64.541C30.5244 65.1198 30.4743 65.6325 30.374 66.0791C30.2738 66.5212 30.1234 66.8971 29.9229 67.207C29.7269 67.5124 29.4808 67.7448 29.1846 67.9043C28.8883 68.0592 28.542 68.1367 28.1455 68.1367C27.7764 68.1367 27.4574 68.0501 27.1885 67.877C26.9242 67.6992 26.7008 67.4554 26.5186 67.1455C26.3363 66.8356 26.1904 66.4733 26.0811 66.0586C25.9717 65.6439 25.8874 65.1995 25.8281 64.7256V63.96C25.8828 63.4541 25.9626 62.9893 26.0674 62.5654C26.1722 62.137 26.3158 61.7656 26.498 61.4512C26.6849 61.1367 26.9105 60.8952 27.1748 60.7266C27.4437 60.5534 27.7627 60.4668 28.1318 60.4668C28.5329 60.4668 28.8815 60.5397 29.1777 60.6855C29.4785 60.8314 29.7269 61.0524 29.9229 61.3486C30.1234 61.6403 30.2738 62.0117 30.374 62.4629C30.4743 62.9141 30.5244 63.4427 30.5244 64.0488ZM28.6104 64.541V64.0488C28.6104 63.6934 28.5898 63.3903 28.5488 63.1396C28.5124 62.889 28.4531 62.6839 28.3711 62.5244C28.2891 62.3649 28.182 62.2487 28.0498 62.1758C27.9176 62.1029 27.7559 62.0664 27.5645 62.0664C27.3776 62.0664 27.2135 62.1029 27.0723 62.1758C26.9355 62.2487 26.8239 62.3558 26.7373 62.4971C26.6507 62.6338 26.5846 62.8024 26.5391 63.0029C26.4935 63.1989 26.4684 63.4222 26.4639 63.6729V65.0127C26.473 65.3089 26.5117 65.571 26.5801 65.7988C26.653 66.0267 26.7692 66.209 26.9287 66.3457C27.0882 66.4779 27.3047 66.5439 27.5781 66.5439C27.7741 66.5439 27.9359 66.5029 28.0635 66.4209C28.1956 66.3389 28.3027 66.2158 28.3848 66.0518C28.4668 65.8877 28.5238 65.6803 28.5557 65.4297C28.5921 65.179 28.6104 64.8828 28.6104 64.541ZM38.5088 66.3662V57.5H40.4297V68L38.6934 68.0068L38.5088 66.3662ZM34.6738 64.5615V64.0693C34.6738 63.4678 34.724 62.9414 34.8242 62.4902C34.929 62.0391 35.084 61.6631 35.2891 61.3623C35.4941 61.0615 35.7448 60.8382 36.041 60.6924C36.3418 60.542 36.6859 60.4668 37.0732 60.4668C37.4242 60.4668 37.7318 60.5557 37.9961 60.7334C38.265 60.9066 38.4928 61.1504 38.6797 61.4648C38.8665 61.7793 39.0169 62.1507 39.1309 62.5791C39.2448 63.0075 39.3245 63.4769 39.3701 63.9873V64.6982C39.3154 65.1813 39.2311 65.6325 39.1172 66.0518C39.0078 66.471 38.8574 66.8356 38.666 67.1455C38.4792 67.4554 38.2536 67.6992 37.9893 67.877C37.7249 68.0501 37.4173 68.1367 37.0664 68.1367C36.679 68.1367 36.335 68.0592 36.0342 67.9043C35.738 67.7493 35.4873 67.5215 35.2822 67.2207C35.0817 66.9154 34.929 66.5417 34.8242 66.0996C34.724 65.653 34.6738 65.1403 34.6738 64.5615ZM36.5879 64.0693V64.5615C36.5879 64.9079 36.6038 65.2064 36.6357 65.457C36.6722 65.7031 36.7292 65.9059 36.8066 66.0654C36.8887 66.2204 36.9958 66.3366 37.1279 66.4141C37.2601 66.487 37.4242 66.5234 37.6201 66.5234C37.8753 66.5234 38.0827 66.4596 38.2422 66.332C38.4017 66.1999 38.5202 66.0199 38.5977 65.792C38.6797 65.5596 38.7253 65.293 38.7344 64.9922V63.7002C38.7253 63.4495 38.6956 63.224 38.6455 63.0234C38.5954 62.8229 38.5247 62.652 38.4336 62.5107C38.3424 62.3695 38.2285 62.2601 38.0918 62.1826C37.9596 62.1051 37.8047 62.0664 37.627 62.0664C37.4355 62.0664 37.2715 62.1051 37.1348 62.1826C37.0026 62.2601 36.8978 62.3809 36.8203 62.5449C36.7428 62.7044 36.6836 62.9118 36.6426 63.167C36.6061 63.4176 36.5879 63.7184 36.5879 64.0693ZM44.8525 68.1367C44.3467 68.1367 43.8978 68.0592 43.5059 67.9043C43.1185 67.7493 42.7904 67.526 42.5215 67.2344C42.2526 66.9382 42.0475 66.5804 41.9062 66.1611C41.765 65.7419 41.6943 65.2633 41.6943 64.7256V64.1172C41.6943 63.5156 41.7627 62.9893 41.8994 62.5381C42.0361 62.0824 42.2298 61.6995 42.4805 61.3896C42.7311 61.0798 43.0387 60.8496 43.4033 60.6992C43.7725 60.5443 44.1895 60.4668 44.6543 60.4668C45.1191 60.4668 45.527 60.5443 45.8779 60.6992C46.2334 60.8496 46.5273 61.0775 46.7598 61.3828C46.9922 61.6836 47.1676 62.0573 47.2861 62.5039C47.4046 62.9505 47.4639 63.4701 47.4639 64.0625V64.9375H42.5078V63.5908H45.584V63.4199C45.584 63.1191 45.5521 62.8685 45.4883 62.668C45.4245 62.4629 45.3242 62.3102 45.1875 62.21C45.0508 62.1097 44.8685 62.0596 44.6406 62.0596C44.4492 62.0596 44.2874 62.0983 44.1553 62.1758C44.0231 62.2533 43.9183 62.374 43.8408 62.5381C43.7633 62.7021 43.7064 62.9163 43.6699 63.1807C43.6335 63.4404 43.6152 63.7526 43.6152 64.1172V64.7256C43.6152 65.0674 43.6449 65.3545 43.7041 65.5869C43.7633 65.8148 43.8499 66.0016 43.9639 66.1475C44.0824 66.2887 44.2259 66.3913 44.3945 66.4551C44.5632 66.5143 44.7591 66.5439 44.9824 66.5439C45.3197 66.5439 45.6227 66.4847 45.8916 66.3662C46.165 66.2432 46.3975 66.0768 46.5889 65.8672L47.3545 67.0293C47.2223 67.2025 47.04 67.3757 46.8076 67.5488C46.5752 67.722 46.2972 67.8633 45.9736 67.9727C45.6501 68.082 45.2764 68.1367 44.8525 68.1367ZM51.8525 66.0039C51.8525 65.8763 51.8092 65.7624 51.7227 65.6621C51.6361 65.5618 51.4993 65.4593 51.3125 65.3545C51.1257 65.2451 50.8773 65.1243 50.5674 64.9922C50.2301 64.8555 49.9316 64.7142 49.6719 64.5684C49.4121 64.4225 49.1911 64.2607 49.0088 64.083C48.8311 63.9053 48.6966 63.7025 48.6055 63.4746C48.5143 63.2467 48.4688 62.987 48.4688 62.6953C48.4688 62.3809 48.5257 62.0915 48.6396 61.8271C48.7581 61.5583 48.9268 61.3236 49.1455 61.123C49.3643 60.918 49.6309 60.7585 49.9453 60.6445C50.2643 60.526 50.6221 60.4668 51.0186 60.4668C51.5745 60.4668 52.0508 60.5648 52.4473 60.7607C52.8483 60.9521 53.1559 61.221 53.3701 61.5674C53.5843 61.9137 53.6914 62.3171 53.6914 62.7773H51.7773C51.7773 62.6133 51.7523 62.4674 51.7021 62.3398C51.652 62.2077 51.57 62.1051 51.4561 62.0322C51.3467 61.9593 51.1986 61.9229 51.0117 61.9229C50.875 61.9229 50.752 61.9525 50.6426 62.0117C50.5378 62.071 50.4535 62.1507 50.3896 62.251C50.3304 62.3467 50.3008 62.4606 50.3008 62.5928C50.3008 62.693 50.3213 62.7819 50.3623 62.8594C50.4079 62.9368 50.4785 63.012 50.5742 63.085C50.6699 63.1579 50.7975 63.2354 50.957 63.3174C51.1211 63.3949 51.3216 63.4814 51.5586 63.5771C52.0508 63.7594 52.4541 63.9554 52.7686 64.165C53.0876 64.3747 53.3245 64.6208 53.4795 64.9033C53.6344 65.1813 53.7119 65.5254 53.7119 65.9355C53.7119 66.2637 53.6481 66.5622 53.5205 66.8311C53.3975 67.0999 53.2174 67.3324 52.9805 67.5283C52.7435 67.7243 52.4587 67.8747 52.126 67.9795C51.7979 68.0843 51.431 68.1367 51.0254 68.1367C50.4284 68.1367 49.9248 68.0182 49.5146 67.7812C49.1045 67.5443 48.7946 67.2412 48.585 66.8721C48.3753 66.4984 48.2705 66.111 48.2705 65.71H50.0889C50.098 65.9561 50.1436 66.1497 50.2256 66.291C50.3122 66.4277 50.4284 66.5234 50.5742 66.5781C50.7201 66.6328 50.8818 66.6602 51.0596 66.6602C51.2373 66.6602 51.3831 66.6374 51.4971 66.5918C51.6156 66.5417 51.7044 66.4665 51.7637 66.3662C51.8229 66.2614 51.8525 66.1406 51.8525 66.0039ZM6.25 73.8242L4.11035 82H1.99805L5.1084 72.0469H6.42773L6.25 73.8242ZM7.93848 82L5.78516 73.8242L5.58691 72.0469H6.92676L10.0645 82H7.93848ZM8.01367 78.2881V79.9492H3.52246V78.2881H8.01367ZM14.4121 80.2227V74.6035H16.333V82H14.5283L14.4121 80.2227ZM14.6309 78.6982L15.1641 78.6846C15.1641 79.1813 15.1162 79.6416 15.0205 80.0654C14.9248 80.4847 14.7812 80.8493 14.5898 81.1592C14.3984 81.4691 14.1592 81.7106 13.8721 81.8838C13.585 82.0524 13.2454 82.1367 12.8535 82.1367C12.5527 82.1367 12.2747 82.0866 12.0195 81.9863C11.7689 81.8815 11.5524 81.7197 11.3701 81.501C11.1878 81.2777 11.0443 80.9928 10.9395 80.6465C10.8392 80.2956 10.7891 79.874 10.7891 79.3818V74.6035H12.71V79.4023C12.71 79.6029 12.7282 79.776 12.7646 79.9219C12.8011 80.0632 12.8512 80.1794 12.915 80.2705C12.9788 80.3617 13.054 80.4277 13.1406 80.4688C13.2272 80.5052 13.3252 80.5234 13.4346 80.5234C13.7354 80.5234 13.9723 80.446 14.1455 80.291C14.3232 80.1315 14.4486 79.915 14.5215 79.6416C14.5944 79.3636 14.6309 79.0492 14.6309 78.6982ZM20.0996 82H18.1787V73.9609C18.1787 73.3913 18.2767 72.915 18.4727 72.5322C18.6686 72.1494 18.9443 71.8577 19.2998 71.6572C19.6598 71.4567 20.0859 71.3564 20.5781 71.3564C20.7376 71.3564 20.888 71.3701 21.0293 71.3975C21.1751 71.4202 21.3164 71.4521 21.4531 71.4932L21.4326 73.0176C21.3734 72.9993 21.3027 72.9857 21.2207 72.9766C21.1387 72.9674 21.0521 72.9629 20.9609 72.9629C20.7786 72.9629 20.6214 73.0016 20.4893 73.0791C20.3617 73.1566 20.2637 73.2682 20.1953 73.4141C20.1315 73.5599 20.0996 73.7422 20.0996 73.9609V82ZM21.2549 74.6035V76.0459H17.2764V74.6035H21.2549ZM24.2354 71.4932V82H22.3213V71.4932H24.2354ZM28.125 74.6035L25.5205 78.2812L23.9551 80.0381L23.2783 78.582L24.4814 76.8252L25.8418 74.6035H28.125ZM26.1289 82L24.5156 78.6025L25.835 77.3857L28.3232 82H26.1289ZM31.0303 71.5V82H29.1094V71.5H31.0303ZM35.5283 82.1367C35.0225 82.1367 34.5736 82.0592 34.1816 81.9043C33.7943 81.7493 33.4661 81.526 33.1973 81.2344C32.9284 80.9382 32.7233 80.5804 32.582 80.1611C32.4408 79.7419 32.3701 79.2633 32.3701 78.7256V78.1172C32.3701 77.5156 32.4385 76.9893 32.5752 76.5381C32.7119 76.0824 32.9056 75.6995 33.1562 75.3896C33.4069 75.0798 33.7145 74.8496 34.0791 74.6992C34.4482 74.5443 34.8652 74.4668 35.3301 74.4668C35.7949 74.4668 36.2028 74.5443 36.5537 74.6992C36.9092 74.8496 37.2031 75.0775 37.4355 75.3828C37.668 75.6836 37.8434 76.0573 37.9619 76.5039C38.0804 76.9505 38.1396 77.4701 38.1396 78.0625V78.9375H33.1836V77.5908H36.2598V77.4199C36.2598 77.1191 36.2279 76.8685 36.1641 76.668C36.1003 76.4629 36 76.3102 35.8633 76.21C35.7266 76.1097 35.5443 76.0596 35.3164 76.0596C35.125 76.0596 34.9632 76.0983 34.8311 76.1758C34.6989 76.2533 34.5941 76.374 34.5166 76.5381C34.4391 76.7021 34.3822 76.9163 34.3457 77.1807C34.3092 77.4404 34.291 77.7526 34.291 78.1172V78.7256C34.291 79.0674 34.3206 79.3545 34.3799 79.5869C34.4391 79.8148 34.5257 80.0016 34.6396 80.1475C34.7581 80.2887 34.9017 80.3913 35.0703 80.4551C35.2389 80.5143 35.4349 80.5439 35.6582 80.5439C35.9954 80.5439 36.2985 80.4847 36.5674 80.3662C36.8408 80.2432 37.0732 80.0768 37.2646 79.8672L38.0303 81.0293C37.8981 81.2025 37.7158 81.3757 37.4834 81.5488C37.251 81.722 36.973 81.8633 36.6494 81.9727C36.3258 82.082 35.9521 82.1367 35.5283 82.1367ZM39.2539 71.5H41.1611V80.2842L41.0244 82H39.2539V71.5ZM45.0029 78.0557V78.541C45.0029 79.1426 44.9551 79.6667 44.8594 80.1133C44.7682 80.5599 44.6247 80.9336 44.4287 81.2344C44.2373 81.5352 43.9912 81.7607 43.6904 81.9111C43.3896 82.0615 43.0342 82.1367 42.624 82.1367C42.2549 82.1367 41.9382 82.0501 41.6738 81.877C41.4095 81.6992 41.1862 81.4554 41.0039 81.1455C40.8262 80.8311 40.6803 80.4642 40.5664 80.0449C40.457 79.6211 40.3773 79.1585 40.3271 78.6572V77.9395C40.3727 77.4473 40.4502 76.9893 40.5596 76.5654C40.6735 76.1416 40.8193 75.7747 40.9971 75.4648C41.1748 75.1504 41.3958 74.9066 41.6602 74.7334C41.929 74.5557 42.2458 74.4668 42.6104 74.4668C43.0296 74.4668 43.3896 74.5443 43.6904 74.6992C43.9912 74.8496 44.2373 75.0752 44.4287 75.376C44.6247 75.6768 44.7682 76.0527 44.8594 76.5039C44.9551 76.9505 45.0029 77.4678 45.0029 78.0557ZM43.0957 78.541V78.0557C43.0957 77.7139 43.082 77.4199 43.0547 77.1738C43.0273 76.9277 42.9772 76.7227 42.9043 76.5586C42.8314 76.3945 42.7266 76.2715 42.5898 76.1895C42.4577 76.1074 42.2822 76.0664 42.0635 76.0664C41.8675 76.0664 41.7035 76.1051 41.5713 76.1826C41.4391 76.2555 41.3252 76.3649 41.2295 76.5107C41.1383 76.652 41.07 76.8206 41.0244 77.0166C40.9834 77.208 40.9606 77.4199 40.9561 77.6523V78.9443C40.9606 79.2588 40.9993 79.5368 41.0723 79.7783C41.1452 80.0199 41.2614 80.2067 41.4209 80.3389C41.585 80.471 41.8037 80.5371 42.0771 80.5371C42.2913 80.5371 42.4645 80.5007 42.5967 80.4277C42.7288 80.3548 42.8314 80.2386 42.9043 80.0791C42.9818 79.9196 43.0319 79.7145 43.0547 79.4639C43.082 79.2087 43.0957 78.901 43.0957 78.541ZM49.1592 82.1367C48.6533 82.1367 48.2044 82.0592 47.8125 81.9043C47.4251 81.7493 47.097 81.526 46.8281 81.2344C46.5592 80.9382 46.3542 80.5804 46.2129 80.1611C46.0716 79.7419 46.001 79.2633 46.001 78.7256V78.1172C46.001 77.5156 46.0693 76.9893 46.2061 76.5381C46.3428 76.0824 46.5365 75.6995 46.7871 75.3896C47.0378 75.0798 47.3454 74.8496 47.71 74.6992C48.0791 74.5443 48.4961 74.4668 48.9609 74.4668C49.4258 74.4668 49.8337 74.5443 50.1846 74.6992C50.54 74.8496 50.834 75.0775 51.0664 75.3828C51.2988 75.6836 51.4743 76.0573 51.5928 76.5039C51.7113 76.9505 51.7705 77.4701 51.7705 78.0625V78.9375H46.8145V77.5908H49.8906V77.4199C49.8906 77.1191 49.8587 76.8685 49.7949 76.668C49.7311 76.4629 49.6309 76.3102 49.4941 76.21C49.3574 76.1097 49.1751 76.0596 48.9473 76.0596C48.7559 76.0596 48.5941 76.0983 48.4619 76.1758C48.3298 76.2533 48.2249 76.374 48.1475 76.5381C48.07 76.7021 48.013 76.9163 47.9766 77.1807C47.9401 77.4404 47.9219 77.7526 47.9219 78.1172V78.7256C47.9219 79.0674 47.9515 79.3545 48.0107 79.5869C48.07 79.8148 48.1566 80.0016 48.2705 80.1475C48.389 80.2887 48.5326 80.3913 48.7012 80.4551C48.8698 80.5143 49.0658 80.5439 49.2891 80.5439C49.6263 80.5439 49.9294 80.4847 50.1982 80.3662C50.4717 80.2432 50.7041 80.0768 50.8955 79.8672L51.6611 81.0293C51.529 81.2025 51.3467 81.3757 51.1143 81.5488C50.8818 81.722 50.6038 81.8633 50.2803 81.9727C49.9567 82.082 49.583 82.1367 49.1592 82.1367ZM54.792 76.251V82H52.8779V74.6035H54.6826L54.792 76.251ZM56.5352 74.5488L56.5078 76.4561C56.4212 76.4378 56.3164 76.4242 56.1934 76.415C56.0749 76.4059 55.9701 76.4014 55.8789 76.4014C55.6647 76.4014 55.4824 76.4355 55.332 76.5039C55.1816 76.5677 55.0563 76.6657 54.9561 76.7979C54.8604 76.9255 54.7874 77.085 54.7373 77.2764C54.6872 77.4678 54.6576 77.6842 54.6484 77.9258L54.2861 77.7891C54.2861 77.306 54.3226 76.8639 54.3955 76.4629C54.473 76.0573 54.5869 75.7064 54.7373 75.4102C54.8877 75.1094 55.0677 74.877 55.2773 74.7129C55.4915 74.5488 55.7331 74.4668 56.002 74.4668C56.0931 74.4668 56.1888 74.4759 56.2891 74.4941C56.3939 74.5078 56.4759 74.526 56.5352 74.5488ZM60.7939 80.0039C60.7939 79.8763 60.7507 79.7624 60.6641 79.6621C60.5775 79.5618 60.4408 79.4593 60.2539 79.3545C60.0671 79.2451 59.8187 79.1243 59.5088 78.9922C59.1715 78.8555 58.873 78.7142 58.6133 78.5684C58.3535 78.4225 58.1325 78.2607 57.9502 78.083C57.7725 77.9053 57.638 77.7025 57.5469 77.4746C57.4557 77.2467 57.4102 76.987 57.4102 76.6953C57.4102 76.3809 57.4671 76.0915 57.5811 75.8271C57.6995 75.5583 57.8682 75.3236 58.0869 75.123C58.3057 74.918 58.5723 74.7585 58.8867 74.6445C59.2057 74.526 59.5635 74.4668 59.96 74.4668C60.516 74.4668 60.9922 74.5648 61.3887 74.7607C61.7897 74.9521 62.0973 75.221 62.3115 75.5674C62.5257 75.9137 62.6328 76.3171 62.6328 76.7773H60.7188C60.7188 76.6133 60.6937 76.4674 60.6436 76.3398C60.5934 76.2077 60.5114 76.1051 60.3975 76.0322C60.2881 75.9593 60.14 75.9229 59.9531 75.9229C59.8164 75.9229 59.6934 75.9525 59.584 76.0117C59.4792 76.071 59.3949 76.1507 59.3311 76.251C59.2718 76.3467 59.2422 76.4606 59.2422 76.5928C59.2422 76.693 59.2627 76.7819 59.3037 76.8594C59.3493 76.9368 59.4199 77.012 59.5156 77.085C59.6113 77.1579 59.7389 77.2354 59.8984 77.3174C60.0625 77.3949 60.263 77.4814 60.5 77.5771C60.9922 77.7594 61.3955 77.9554 61.71 78.165C62.029 78.3747 62.266 78.6208 62.4209 78.9033C62.5758 79.1813 62.6533 79.5254 62.6533 79.9355C62.6533 80.2637 62.5895 80.5622 62.4619 80.8311C62.3389 81.0999 62.1589 81.3324 61.9219 81.5283C61.6849 81.7243 61.4001 81.8747 61.0674 81.9795C60.7393 82.0843 60.3724 82.1367 59.9668 82.1367C59.3698 82.1367 58.8662 82.0182 58.4561 81.7812C58.0459 81.5443 57.736 81.2412 57.5264 80.8721C57.3167 80.4984 57.2119 80.111 57.2119 79.71H59.0303C59.0394 79.9561 59.085 80.1497 59.167 80.291C59.2536 80.4277 59.3698 80.5234 59.5156 80.5781C59.6615 80.6328 59.8232 80.6602 60.001 80.6602C60.1787 80.6602 60.3245 80.6374 60.4385 80.5918C60.557 80.5417 60.6458 80.4665 60.7051 80.3662C60.7643 80.2614 60.7939 80.1406 60.7939 80.0039Z" fill="url(#paint0_linear_1405_1369)"/>
<path d="M321.843 63.8242L319.703 72H317.591L320.701 62.0469H322.021L321.843 63.8242ZM323.531 72L321.378 63.8242L321.18 62.0469H322.52L325.657 72H323.531ZM323.606 68.2881V69.9492H319.115V68.2881H323.606ZM330.005 70.2227V64.6035H331.926V72H330.121L330.005 70.2227ZM330.224 68.6982L330.757 68.6846C330.757 69.1813 330.709 69.6416 330.613 70.0654C330.518 70.4847 330.374 70.8493 330.183 71.1592C329.991 71.4691 329.752 71.7106 329.465 71.8838C329.178 72.0524 328.838 72.1367 328.446 72.1367C328.146 72.1367 327.868 72.0866 327.612 71.9863C327.362 71.8815 327.145 71.7197 326.963 71.501C326.781 71.2777 326.637 70.9928 326.532 70.6465C326.432 70.2956 326.382 69.874 326.382 69.3818V64.6035H328.303V69.4023C328.303 69.6029 328.321 69.776 328.357 69.9219C328.394 70.0632 328.444 70.1794 328.508 70.2705C328.572 70.3617 328.647 70.4277 328.733 70.4688C328.82 70.5052 328.918 70.5234 329.027 70.5234C329.328 70.5234 329.565 70.446 329.738 70.291C329.916 70.1315 330.041 69.915 330.114 69.6416C330.187 69.3636 330.224 69.0492 330.224 68.6982ZM336.547 64.6035V66.0459H332.773V64.6035H336.547ZM333.642 62.7783H335.549V69.7441C335.549 69.9492 335.569 70.1064 335.61 70.2158C335.651 70.3252 335.713 70.4027 335.795 70.4482C335.882 70.4893 335.995 70.5098 336.137 70.5098C336.232 70.5098 336.321 70.5052 336.403 70.4961C336.485 70.4824 336.547 70.4688 336.588 70.4551V71.9521C336.438 72.0114 336.278 72.057 336.109 72.0889C335.945 72.1208 335.749 72.1367 335.521 72.1367C335.139 72.1367 334.806 72.0638 334.523 71.918C334.245 71.7721 334.029 71.5397 333.874 71.2207C333.719 70.8971 333.642 70.4733 333.642 69.9492V62.7783ZM337.189 68.5547V68.0557C337.189 67.4769 337.258 66.9642 337.395 66.5176C337.536 66.071 337.736 65.6973 337.996 65.3965C338.256 65.0911 338.568 64.861 338.933 64.7061C339.302 64.5465 339.714 64.4668 340.17 64.4668C340.63 64.4668 341.043 64.5465 341.407 64.7061C341.776 64.861 342.091 65.0911 342.351 65.3965C342.615 65.6973 342.818 66.071 342.959 66.5176C343.1 66.9642 343.171 67.4769 343.171 68.0557V68.5547C343.171 69.1289 343.1 69.6393 342.959 70.0859C342.818 70.5326 342.615 70.9085 342.351 71.2139C342.091 71.5192 341.779 71.7493 341.414 71.9043C341.049 72.0592 340.639 72.1367 340.184 72.1367C339.728 72.1367 339.315 72.0592 338.946 71.9043C338.582 71.7493 338.267 71.5192 338.003 71.2139C337.739 70.9085 337.536 70.5326 337.395 70.0859C337.258 69.6393 337.189 69.1289 337.189 68.5547ZM339.104 68.0557V68.5547C339.104 68.8965 339.126 69.1927 339.172 69.4434C339.222 69.694 339.293 69.9014 339.384 70.0654C339.479 70.2295 339.593 70.3503 339.726 70.4277C339.858 70.5052 340.01 70.5439 340.184 70.5439C340.357 70.5439 340.512 70.5052 340.648 70.4277C340.785 70.3503 340.897 70.2295 340.983 70.0654C341.075 69.9014 341.141 69.694 341.182 69.4434C341.227 69.1927 341.25 68.8965 341.25 68.5547V68.0557C341.25 67.723 341.225 67.4313 341.175 67.1807C341.125 66.9255 341.054 66.7181 340.963 66.5586C340.872 66.3945 340.758 66.2715 340.621 66.1895C340.489 66.1029 340.339 66.0596 340.17 66.0596C340.001 66.0596 339.851 66.1029 339.719 66.1895C339.591 66.2715 339.479 66.3945 339.384 66.5586C339.293 66.7181 339.222 66.9255 339.172 67.1807C339.126 67.4313 339.104 67.723 339.104 68.0557ZM346.261 66.1826V72H344.34V64.6035H346.138L346.261 66.1826ZM345.974 68.0488L345.461 68.0625C345.452 67.5065 345.504 67.0075 345.618 66.5654C345.737 66.1234 345.903 65.7474 346.117 65.4375C346.336 65.123 346.596 64.8838 346.896 64.7197C347.202 64.5511 347.541 64.4668 347.915 64.4668C348.202 64.4668 348.464 64.5169 348.701 64.6172C348.943 64.7174 349.15 64.877 349.323 65.0957C349.496 65.3145 349.631 65.6061 349.727 65.9707C349.822 66.3307 349.87 66.7728 349.87 67.2969V72H347.949V67.2832C347.949 66.9642 347.917 66.7181 347.854 66.5449C347.79 66.3672 347.694 66.2441 347.566 66.1758C347.439 66.1029 347.279 66.0664 347.088 66.0664C346.906 66.0664 346.744 66.1188 346.603 66.2236C346.461 66.3239 346.343 66.4629 346.247 66.6406C346.156 66.8184 346.085 67.028 346.035 67.2695C345.99 67.5111 345.969 67.7708 345.974 68.0488ZM354.847 70.2227V64.6035H356.768V72H354.963L354.847 70.2227ZM355.065 68.6982L355.599 68.6846C355.599 69.1813 355.551 69.6416 355.455 70.0654C355.359 70.4847 355.216 70.8493 355.024 71.1592C354.833 71.4691 354.594 71.7106 354.307 71.8838C354.02 72.0524 353.68 72.1367 353.288 72.1367C352.987 72.1367 352.709 72.0866 352.454 71.9863C352.203 71.8815 351.987 71.7197 351.805 71.501C351.622 71.2777 351.479 70.9928 351.374 70.6465C351.274 70.2956 351.224 69.874 351.224 69.3818V64.6035H353.145V69.4023C353.145 69.6029 353.163 69.776 353.199 69.9219C353.236 70.0632 353.286 70.1794 353.35 70.2705C353.413 70.3617 353.489 70.4277 353.575 70.4688C353.662 70.5052 353.76 70.5234 353.869 70.5234C354.17 70.5234 354.407 70.446 354.58 70.291C354.758 70.1315 354.883 69.915 354.956 69.6416C355.029 69.3636 355.065 69.0492 355.065 68.6982ZM360.09 66.1348V72H358.169V64.6035H359.974L360.09 66.1348ZM359.816 68.0488L359.29 68.0625C359.281 67.543 359.326 67.0645 359.427 66.627C359.527 66.1895 359.677 65.8089 359.878 65.4854C360.083 65.1618 360.34 64.9111 360.65 64.7334C360.96 64.5557 361.323 64.4668 361.737 64.4668C362.006 64.4668 362.255 64.5169 362.482 64.6172C362.71 64.7129 362.909 64.8656 363.077 65.0752C363.246 65.2803 363.376 65.5492 363.467 65.8818C363.558 66.21 363.604 66.6042 363.604 67.0645V72H361.689V67.2969C361.689 66.9688 361.658 66.7181 361.594 66.5449C361.53 66.3672 361.439 66.2441 361.32 66.1758C361.202 66.1029 361.056 66.0664 360.883 66.0664C360.701 66.0664 360.541 66.1165 360.404 66.2168C360.268 66.3171 360.156 66.4583 360.069 66.6406C359.987 66.8184 359.924 67.028 359.878 67.2695C359.837 67.5111 359.816 67.7708 359.816 68.0488ZM363.419 67.8574L362.729 67.9463C362.719 67.4587 362.763 67.0052 362.858 66.5859C362.954 66.1621 363.102 65.793 363.303 65.4785C363.503 65.1595 363.754 64.9111 364.055 64.7334C364.36 64.5557 364.713 64.4668 365.114 64.4668C365.415 64.4668 365.688 64.5169 365.935 64.6172C366.181 64.7174 366.39 64.8792 366.563 65.1025C366.741 65.3213 366.876 65.6107 366.967 65.9707C367.062 66.3307 367.11 66.7682 367.11 67.2832V72H365.189V67.29C365.189 66.9574 365.158 66.7021 365.094 66.5244C365.03 66.3467 364.939 66.2259 364.82 66.1621C364.702 66.0983 364.561 66.0664 364.396 66.0664C364.232 66.0664 364.089 66.112 363.966 66.2031C363.847 66.2943 363.747 66.4219 363.665 66.5859C363.583 66.7454 363.521 66.9346 363.48 67.1533C363.439 67.3675 363.419 67.6022 363.419 67.8574ZM370.48 66.1348V72H368.56V64.6035H370.364L370.48 66.1348ZM370.207 68.0488L369.681 68.0625C369.672 67.543 369.717 67.0645 369.817 66.627C369.918 66.1895 370.068 65.8089 370.269 65.4854C370.474 65.1618 370.731 64.9111 371.041 64.7334C371.351 64.5557 371.713 64.4668 372.128 64.4668C372.397 64.4668 372.645 64.5169 372.873 64.6172C373.101 64.7129 373.299 64.8656 373.468 65.0752C373.636 65.2803 373.766 65.5492 373.857 65.8818C373.949 66.21 373.994 66.6042 373.994 67.0645V72H372.08V67.2969C372.08 66.9688 372.048 66.7181 371.984 66.5449C371.921 66.3672 371.829 66.2441 371.711 66.1758C371.592 66.1029 371.447 66.0664 371.273 66.0664C371.091 66.0664 370.932 66.1165 370.795 66.2168C370.658 66.3171 370.547 66.4583 370.46 66.6406C370.378 66.8184 370.314 67.028 370.269 67.2695C370.228 67.5111 370.207 67.7708 370.207 68.0488ZM373.81 67.8574L373.119 67.9463C373.11 67.4587 373.153 67.0052 373.249 66.5859C373.345 66.1621 373.493 65.793 373.693 65.4785C373.894 65.1595 374.145 64.9111 374.445 64.7334C374.751 64.5557 375.104 64.4668 375.505 64.4668C375.806 64.4668 376.079 64.5169 376.325 64.6172C376.571 64.7174 376.781 64.8792 376.954 65.1025C377.132 65.3213 377.266 65.6107 377.357 65.9707C377.453 66.3307 377.501 66.7682 377.501 67.2832V72H375.58V67.29C375.58 66.9574 375.548 66.7021 375.484 66.5244C375.421 66.3467 375.329 66.2259 375.211 66.1621C375.092 66.0983 374.951 66.0664 374.787 66.0664C374.623 66.0664 374.479 66.112 374.356 66.2031C374.238 66.2943 374.138 66.4219 374.056 66.5859C373.974 66.7454 373.912 66.9346 373.871 67.1533C373.83 67.3675 373.81 67.6022 373.81 67.8574ZM381.924 72.1367C381.418 72.1367 380.969 72.0592 380.577 71.9043C380.19 71.7493 379.862 71.526 379.593 71.2344C379.324 70.9382 379.119 70.5804 378.978 70.1611C378.836 69.7419 378.766 69.2633 378.766 68.7256V68.1172C378.766 67.5156 378.834 66.9893 378.971 66.5381C379.107 66.0824 379.301 65.6995 379.552 65.3896C379.802 65.0798 380.11 64.8496 380.475 64.6992C380.844 64.5443 381.261 64.4668 381.726 64.4668C382.19 64.4668 382.598 64.5443 382.949 64.6992C383.305 64.8496 383.599 65.0775 383.831 65.3828C384.063 65.6836 384.239 66.0573 384.357 66.5039C384.476 66.9505 384.535 67.4701 384.535 68.0625V68.9375H379.579V67.5908H382.655V67.4199C382.655 67.1191 382.623 66.8685 382.56 66.668C382.496 66.4629 382.396 66.3102 382.259 66.21C382.122 66.1097 381.94 66.0596 381.712 66.0596C381.521 66.0596 381.359 66.0983 381.227 66.1758C381.094 66.2533 380.99 66.374 380.912 66.5381C380.835 66.7021 380.778 66.9163 380.741 67.1807C380.705 67.4404 380.687 67.7526 380.687 68.1172V68.7256C380.687 69.0674 380.716 69.3545 380.775 69.5869C380.835 69.8148 380.921 70.0016 381.035 70.1475C381.154 70.2887 381.297 70.3913 381.466 70.4551C381.634 70.5143 381.83 70.5439 382.054 70.5439C382.391 70.5439 382.694 70.4847 382.963 70.3662C383.236 70.2432 383.469 70.0768 383.66 69.8672L384.426 71.0293C384.294 71.2025 384.111 71.3757 383.879 71.5488C383.646 71.722 383.368 71.8633 383.045 71.9727C382.721 72.082 382.348 72.1367 381.924 72.1367ZM387.557 66.251V72H385.643V64.6035H387.447L387.557 66.251ZM389.3 64.5488L389.272 66.4561C389.186 66.4378 389.081 66.4242 388.958 66.415C388.84 66.4059 388.735 66.4014 388.644 66.4014C388.429 66.4014 388.247 66.4355 388.097 66.5039C387.946 66.5677 387.821 66.6657 387.721 66.7979C387.625 66.9255 387.552 67.085 387.502 67.2764C387.452 67.4678 387.422 67.6842 387.413 67.9258L387.051 67.7891C387.051 67.306 387.087 66.8639 387.16 66.4629C387.238 66.0573 387.352 65.7064 387.502 65.4102C387.652 65.1094 387.832 64.877 388.042 64.7129C388.256 64.5488 388.498 64.4668 388.767 64.4668C388.858 64.4668 388.953 64.4759 389.054 64.4941C389.159 64.5078 389.241 64.526 389.3 64.5488Z" fill="url(#paint1_linear_1405_1369)"/>
<path d="M623.261 62.0469H626.453C627.118 62.0469 627.686 62.1608 628.155 62.3887C628.625 62.6165 628.985 62.9538 629.235 63.4004C629.486 63.847 629.611 64.3984 629.611 65.0547C629.611 65.5924 629.538 66.0527 629.393 66.4355C629.247 66.8138 629.039 67.1305 628.771 67.3857C628.502 67.6364 628.18 67.8369 627.807 67.9873L627.198 68.3496H624.607L624.601 66.6885H626.398C626.672 66.6885 626.897 66.6292 627.075 66.5107C627.257 66.3877 627.392 66.2168 627.479 65.998C627.57 65.7747 627.615 65.515 627.615 65.2188C627.615 64.9043 627.574 64.6354 627.492 64.4121C627.415 64.1842 627.289 64.0111 627.116 63.8926C626.948 63.7695 626.727 63.708 626.453 63.708H625.264V72H623.261V62.0469ZM627.779 72L625.954 67.5635L628.053 67.5566L629.919 71.9043V72H627.779ZM633.891 72.1367C633.385 72.1367 632.936 72.0592 632.544 71.9043C632.157 71.7493 631.828 71.526 631.56 71.2344C631.291 70.9382 631.086 70.5804 630.944 70.1611C630.803 69.7419 630.732 69.2633 630.732 68.7256V68.1172C630.732 67.5156 630.801 66.9893 630.938 66.5381C631.074 66.0824 631.268 65.6995 631.519 65.3896C631.769 65.0798 632.077 64.8496 632.441 64.6992C632.811 64.5443 633.228 64.4668 633.692 64.4668C634.157 64.4668 634.565 64.5443 634.916 64.6992C635.271 64.8496 635.565 65.0775 635.798 65.3828C636.03 65.6836 636.206 66.0573 636.324 66.5039C636.443 66.9505 636.502 67.4701 636.502 68.0625V68.9375H631.546V67.5908H634.622V67.4199C634.622 67.1191 634.59 66.8685 634.526 66.668C634.463 66.4629 634.362 66.3102 634.226 66.21C634.089 66.1097 633.907 66.0596 633.679 66.0596C633.487 66.0596 633.326 66.0983 633.193 66.1758C633.061 66.2533 632.956 66.374 632.879 66.5381C632.801 66.7021 632.744 66.9163 632.708 67.1807C632.672 67.4404 632.653 67.7526 632.653 68.1172V68.7256C632.653 69.0674 632.683 69.3545 632.742 69.5869C632.801 69.8148 632.888 70.0016 633.002 70.1475C633.12 70.2887 633.264 70.3913 633.433 70.4551C633.601 70.5143 633.797 70.5439 634.021 70.5439C634.358 70.5439 634.661 70.4847 634.93 70.3662C635.203 70.2432 635.436 70.0768 635.627 69.8672L636.393 71.0293C636.26 71.2025 636.078 71.3757 635.846 71.5488C635.613 71.722 635.335 71.8633 635.012 71.9727C634.688 72.082 634.314 72.1367 633.891 72.1367ZM640.282 70.5439C640.46 70.5439 640.613 70.5075 640.74 70.4346C640.872 70.3617 640.973 70.2432 641.041 70.0791C641.109 69.915 641.146 69.7031 641.15 69.4434H642.948C642.948 69.9993 642.83 70.4801 642.593 70.8857C642.36 71.2868 642.046 71.5967 641.649 71.8154C641.257 72.0296 640.813 72.1367 640.316 72.1367C639.82 72.1367 639.387 72.057 639.018 71.8975C638.648 71.738 638.343 71.5055 638.102 71.2002C637.865 70.8949 637.685 70.5234 637.562 70.0859C637.443 69.6439 637.384 69.138 637.384 68.5684V68.0283C637.384 67.4678 637.443 66.9665 637.562 66.5244C637.685 66.0824 637.865 65.7087 638.102 65.4033C638.343 65.098 638.646 64.8656 639.011 64.7061C639.38 64.5465 639.813 64.4668 640.31 64.4668C640.843 64.4668 641.305 64.5785 641.697 64.8018C642.089 65.0205 642.395 65.3441 642.613 65.7725C642.837 66.2008 642.948 66.7295 642.948 67.3584H641.15C641.146 67.0758 641.112 66.8411 641.048 66.6543C640.989 66.4629 640.895 66.3171 640.768 66.2168C640.645 66.112 640.48 66.0596 640.275 66.0596C640.061 66.0596 639.888 66.1051 639.756 66.1963C639.628 66.2829 639.53 66.4105 639.462 66.5791C639.398 66.7432 639.355 66.9482 639.332 67.1943C639.309 67.4404 639.298 67.7184 639.298 68.0283V68.5684C639.298 68.901 639.307 69.1904 639.325 69.4365C639.348 69.6781 639.391 69.8831 639.455 70.0518C639.523 70.2158 639.621 70.3389 639.749 70.4209C639.881 70.5029 640.059 70.5439 640.282 70.5439ZM645.915 61.5V72H644.001V61.5H645.915ZM645.642 68.0488L645.122 68.0625C645.122 67.543 645.174 67.0645 645.279 66.627C645.389 66.1895 645.546 65.8089 645.751 65.4854C645.956 65.1618 646.204 64.9111 646.496 64.7334C646.792 64.5557 647.118 64.4668 647.474 64.4668C647.779 64.4668 648.057 64.5192 648.308 64.624C648.558 64.7288 648.775 64.8929 648.957 65.1162C649.144 65.3395 649.287 65.6335 649.388 65.998C649.488 66.3626 649.538 66.807 649.538 67.3311V72H647.617V67.3174C647.617 66.9984 647.585 66.7477 647.521 66.5654C647.458 66.3831 647.362 66.2555 647.234 66.1826C647.107 66.1051 646.947 66.0664 646.756 66.0664C646.551 66.0664 646.375 66.1188 646.229 66.2236C646.088 66.3239 645.974 66.4629 645.888 66.6406C645.801 66.8184 645.737 67.028 645.696 67.2695C645.66 67.5111 645.642 67.7708 645.642 68.0488ZM652.819 66.1826V72H650.898V64.6035H652.696L652.819 66.1826ZM652.532 68.0488L652.02 68.0625C652.01 67.5065 652.063 67.0075 652.177 66.5654C652.295 66.1234 652.462 65.7474 652.676 65.4375C652.895 65.123 653.154 64.8838 653.455 64.7197C653.76 64.5511 654.1 64.4668 654.474 64.4668C654.761 64.4668 655.023 64.5169 655.26 64.6172C655.501 64.7174 655.709 64.877 655.882 65.0957C656.055 65.3145 656.189 65.6061 656.285 65.9707C656.381 66.3307 656.429 66.7728 656.429 67.2969V72H654.508V67.2832C654.508 66.9642 654.476 66.7181 654.412 66.5449C654.348 66.3672 654.253 66.2441 654.125 66.1758C653.997 66.1029 653.838 66.0664 653.646 66.0664C653.464 66.0664 653.302 66.1188 653.161 66.2236C653.02 66.3239 652.901 66.4629 652.806 66.6406C652.715 66.8184 652.644 67.028 652.594 67.2695C652.548 67.5111 652.528 67.7708 652.532 68.0488ZM661.405 70.2227V64.6035H663.326V72H661.521L661.405 70.2227ZM661.624 68.6982L662.157 68.6846C662.157 69.1813 662.109 69.6416 662.014 70.0654C661.918 70.4847 661.774 70.8493 661.583 71.1592C661.392 71.4691 661.152 71.7106 660.865 71.8838C660.578 72.0524 660.239 72.1367 659.847 72.1367C659.546 72.1367 659.268 72.0866 659.013 71.9863C658.762 71.8815 658.546 71.7197 658.363 71.501C658.181 71.2777 658.037 70.9928 657.933 70.6465C657.832 70.2956 657.782 69.874 657.782 69.3818V64.6035H659.703V69.4023C659.703 69.6029 659.721 69.776 659.758 69.9219C659.794 70.0632 659.844 70.1794 659.908 70.2705C659.972 70.3617 660.047 70.4277 660.134 70.4688C660.22 70.5052 660.318 70.5234 660.428 70.5234C660.729 70.5234 660.965 70.446 661.139 70.291C661.316 70.1315 661.442 69.915 661.515 69.6416C661.588 69.3636 661.624 69.0492 661.624 68.6982ZM666.601 66.1826V72H664.68V64.6035H666.478L666.601 66.1826ZM666.313 68.0488L665.801 68.0625C665.792 67.5065 665.844 67.0075 665.958 66.5654C666.076 66.1234 666.243 65.7474 666.457 65.4375C666.676 65.123 666.936 64.8838 667.236 64.7197C667.542 64.5511 667.881 64.4668 668.255 64.4668C668.542 64.4668 668.804 64.5169 669.041 64.6172C669.283 64.7174 669.49 64.877 669.663 65.0957C669.836 65.3145 669.971 65.6061 670.066 65.9707C670.162 66.3307 670.21 66.7728 670.21 67.2969V72H668.289V67.2832C668.289 66.9642 668.257 66.7181 668.193 66.5449C668.13 66.3672 668.034 66.2441 667.906 66.1758C667.779 66.1029 667.619 66.0664 667.428 66.0664C667.245 66.0664 667.084 66.1188 666.942 66.2236C666.801 66.3239 666.683 66.4629 666.587 66.6406C666.496 66.8184 666.425 67.028 666.375 67.2695C666.329 67.5111 666.309 67.7708 666.313 68.0488ZM675.501 64.6035H677.237V72C677.237 72.6745 677.107 73.2259 676.848 73.6543C676.592 74.0872 676.235 74.404 675.774 74.6045C675.319 74.8096 674.785 74.9121 674.175 74.9121C673.942 74.9121 673.68 74.8802 673.389 74.8164C673.102 74.7526 672.824 74.6546 672.555 74.5225C672.286 74.3949 672.065 74.2399 671.892 74.0576L672.541 72.7314C672.719 72.9092 672.951 73.0596 673.238 73.1826C673.525 73.3102 673.808 73.374 674.086 73.374C674.355 73.374 674.578 73.3307 674.756 73.2441C674.938 73.1621 675.075 73.0208 675.166 72.8203C675.262 72.6198 675.31 72.3509 675.31 72.0137V66.3193L675.501 64.6035ZM671.372 68.5615V68.0693C671.372 67.4678 671.429 66.9414 671.543 66.4902C671.657 66.0391 671.821 65.6631 672.035 65.3623C672.249 65.0615 672.511 64.8382 672.821 64.6924C673.136 64.542 673.487 64.4668 673.874 64.4668C674.28 64.4668 674.619 64.5557 674.893 64.7334C675.166 64.9066 675.387 65.1504 675.556 65.4648C675.729 65.7793 675.861 66.1507 675.952 66.5791C676.048 67.0075 676.121 67.4769 676.171 67.9873V68.6982C676.121 69.1813 676.039 69.6325 675.925 70.0518C675.815 70.471 675.67 70.8356 675.487 71.1455C675.305 71.4554 675.082 71.6992 674.817 71.877C674.553 72.0501 674.234 72.1367 673.86 72.1367C673.478 72.1367 673.131 72.0592 672.821 71.9043C672.516 71.7493 672.254 71.5215 672.035 71.2207C671.821 70.9154 671.657 70.5417 671.543 70.0996C671.429 69.653 671.372 69.1403 671.372 68.5615ZM673.293 68.0693V68.5615C673.293 68.9079 673.313 69.2064 673.354 69.457C673.4 69.7031 673.468 69.9059 673.56 70.0654C673.651 70.2204 673.767 70.3366 673.908 70.4141C674.054 70.487 674.225 70.5234 674.421 70.5234C674.699 70.5234 674.92 70.4596 675.084 70.332C675.253 70.1999 675.376 70.0199 675.453 69.792C675.535 69.5596 675.581 69.293 675.59 68.9922V67.7002C675.585 67.4495 675.556 67.224 675.501 67.0234C675.451 66.8229 675.38 66.652 675.289 66.5107C675.198 66.3695 675.079 66.2601 674.934 66.1826C674.792 66.1051 674.626 66.0664 674.435 66.0664C674.239 66.0664 674.07 66.1051 673.929 66.1826C673.787 66.2601 673.669 66.3809 673.573 66.5449C673.482 66.7044 673.411 66.9118 673.361 67.167C673.316 67.4176 673.293 67.7184 673.293 68.0693ZM681.947 70.0039C681.947 69.8763 681.904 69.7624 681.817 69.6621C681.731 69.5618 681.594 69.4593 681.407 69.3545C681.22 69.2451 680.972 69.1243 680.662 68.9922C680.325 68.8555 680.026 68.7142 679.767 68.5684C679.507 68.4225 679.286 68.2607 679.104 68.083C678.926 67.9053 678.791 67.7025 678.7 67.4746C678.609 67.2467 678.563 66.987 678.563 66.6953C678.563 66.3809 678.62 66.0915 678.734 65.8271C678.853 65.5583 679.021 65.3236 679.24 65.123C679.459 64.918 679.726 64.7585 680.04 64.6445C680.359 64.526 680.717 64.4668 681.113 64.4668C681.669 64.4668 682.146 64.5648 682.542 64.7607C682.943 64.9521 683.251 65.221 683.465 65.5674C683.679 65.9137 683.786 66.3171 683.786 66.7773H681.872C681.872 66.6133 681.847 66.4674 681.797 66.3398C681.747 66.2077 681.665 66.1051 681.551 66.0322C681.441 65.9593 681.293 65.9229 681.106 65.9229C680.97 65.9229 680.847 65.9525 680.737 66.0117C680.632 66.071 680.548 66.1507 680.484 66.251C680.425 66.3467 680.396 66.4606 680.396 66.5928C680.396 66.693 680.416 66.7819 680.457 66.8594C680.503 66.9368 680.573 67.012 680.669 67.085C680.765 67.1579 680.892 67.2354 681.052 67.3174C681.216 67.3949 681.416 67.4814 681.653 67.5771C682.146 67.7594 682.549 67.9554 682.863 68.165C683.182 68.3747 683.419 68.6208 683.574 68.9033C683.729 69.1813 683.807 69.5254 683.807 69.9355C683.807 70.2637 683.743 70.5622 683.615 70.8311C683.492 71.0999 683.312 71.3324 683.075 71.5283C682.838 71.7243 682.553 71.8747 682.221 71.9795C681.893 72.0843 681.526 72.1367 681.12 72.1367C680.523 72.1367 680.02 72.0182 679.609 71.7812C679.199 71.5443 678.889 71.2412 678.68 70.8721C678.47 70.4984 678.365 70.111 678.365 69.71H680.184C680.193 69.9561 680.238 70.1497 680.32 70.291C680.407 70.4277 680.523 70.5234 680.669 70.5781C680.815 70.6328 680.977 70.6602 681.154 70.6602C681.332 70.6602 681.478 70.6374 681.592 70.5918C681.71 70.5417 681.799 70.4665 681.858 70.3662C681.918 70.2614 681.947 70.1406 681.947 70.0039ZM688.305 70.0039C688.305 69.8763 688.261 69.7624 688.175 69.6621C688.088 69.5618 687.951 69.4593 687.765 69.3545C687.578 69.2451 687.329 69.1243 687.02 68.9922C686.682 68.8555 686.384 68.7142 686.124 68.5684C685.864 68.4225 685.643 68.2607 685.461 68.083C685.283 67.9053 685.149 67.7025 685.058 67.4746C684.966 67.2467 684.921 66.987 684.921 66.6953C684.921 66.3809 684.978 66.0915 685.092 65.8271C685.21 65.5583 685.379 65.3236 685.598 65.123C685.816 64.918 686.083 64.7585 686.397 64.6445C686.716 64.526 687.074 64.4668 687.471 64.4668C688.027 64.4668 688.503 64.5648 688.899 64.7607C689.3 64.9521 689.608 65.221 689.822 65.5674C690.036 65.9137 690.144 66.3171 690.144 66.7773H688.229C688.229 66.6133 688.204 66.4674 688.154 66.3398C688.104 66.2077 688.022 66.1051 687.908 66.0322C687.799 65.9593 687.651 65.9229 687.464 65.9229C687.327 65.9229 687.204 65.9525 687.095 66.0117C686.99 66.071 686.906 66.1507 686.842 66.251C686.783 66.3467 686.753 66.4606 686.753 66.5928C686.753 66.693 686.773 66.7819 686.814 66.8594C686.86 66.9368 686.931 67.012 687.026 67.085C687.122 67.1579 687.25 67.2354 687.409 67.3174C687.573 67.3949 687.774 67.4814 688.011 67.5771C688.503 67.7594 688.906 67.9554 689.221 68.165C689.54 68.3747 689.777 68.6208 689.932 68.9033C690.087 69.1813 690.164 69.5254 690.164 69.9355C690.164 70.2637 690.1 70.5622 689.973 70.8311C689.85 71.0999 689.67 71.3324 689.433 71.5283C689.196 71.7243 688.911 71.8747 688.578 71.9795C688.25 72.0843 687.883 72.1367 687.478 72.1367C686.881 72.1367 686.377 72.0182 685.967 71.7812C685.557 71.5443 685.247 71.2412 685.037 70.8721C684.827 70.4984 684.723 70.111 684.723 69.71H686.541C686.55 69.9561 686.596 70.1497 686.678 70.291C686.764 70.4277 686.881 70.5234 687.026 70.5781C687.172 70.6328 687.334 70.6602 687.512 70.6602C687.689 70.6602 687.835 70.6374 687.949 70.5918C688.068 70.5417 688.157 70.4665 688.216 70.3662C688.275 70.2614 688.305 70.1406 688.305 70.0039ZM694.607 64.6035V66.0459H690.834V64.6035H694.607ZM691.702 62.7783H693.609V69.7441C693.609 69.9492 693.63 70.1064 693.671 70.2158C693.712 70.3252 693.773 70.4027 693.855 70.4482C693.942 70.4893 694.056 70.5098 694.197 70.5098C694.293 70.5098 694.382 70.5052 694.464 70.4961C694.546 70.4824 694.607 70.4688 694.648 70.4551V71.9521C694.498 72.0114 694.339 72.057 694.17 72.0889C694.006 72.1208 693.81 72.1367 693.582 72.1367C693.199 72.1367 692.867 72.0638 692.584 71.918C692.306 71.7721 692.09 71.5397 691.935 71.2207C691.78 70.8971 691.702 70.4733 691.702 69.9492V62.7783ZM698.654 72.1367C698.148 72.1367 697.7 72.0592 697.308 71.9043C696.92 71.7493 696.592 71.526 696.323 71.2344C696.054 70.9382 695.849 70.5804 695.708 70.1611C695.567 69.7419 695.496 69.2633 695.496 68.7256V68.1172C695.496 67.5156 695.564 66.9893 695.701 66.5381C695.838 66.0824 696.032 65.6995 696.282 65.3896C696.533 65.0798 696.84 64.8496 697.205 64.6992C697.574 64.5443 697.991 64.4668 698.456 64.4668C698.921 64.4668 699.329 64.5443 699.68 64.6992C700.035 64.8496 700.329 65.0775 700.562 65.3828C700.794 65.6836 700.969 66.0573 701.088 66.5039C701.206 66.9505 701.266 67.4701 701.266 68.0625V68.9375H696.31V67.5908H699.386V67.4199C699.386 67.1191 699.354 66.8685 699.29 66.668C699.226 66.4629 699.126 66.3102 698.989 66.21C698.853 66.1097 698.67 66.0596 698.442 66.0596C698.251 66.0596 698.089 66.0983 697.957 66.1758C697.825 66.2533 697.72 66.374 697.643 66.5381C697.565 66.7021 697.508 66.9163 697.472 67.1807C697.435 67.4404 697.417 67.7526 697.417 68.1172V68.7256C697.417 69.0674 697.447 69.3545 697.506 69.5869C697.565 69.8148 697.652 70.0016 697.766 70.1475C697.884 70.2887 698.028 70.3913 698.196 70.4551C698.365 70.5143 698.561 70.5439 698.784 70.5439C699.121 70.5439 699.424 70.4847 699.693 70.3662C699.967 70.2432 700.199 70.0768 700.391 69.8672L701.156 71.0293C701.024 71.2025 700.842 71.3757 700.609 71.5488C700.377 71.722 700.099 71.8633 699.775 71.9727C699.452 72.082 699.078 72.1367 698.654 72.1367ZM704.383 61.5V72H702.462V61.5H704.383ZM707.91 61.5V72H705.989V61.5H707.91ZM713.003 70.2227V64.6035H714.924V72H713.119L713.003 70.2227ZM713.222 68.6982L713.755 68.6846C713.755 69.1813 713.707 69.6416 713.611 70.0654C713.516 70.4847 713.372 70.8493 713.181 71.1592C712.989 71.4691 712.75 71.7106 712.463 71.8838C712.176 72.0524 711.836 72.1367 711.444 72.1367C711.144 72.1367 710.866 72.0866 710.61 71.9863C710.36 71.8815 710.143 71.7197 709.961 71.501C709.779 71.2777 709.635 70.9928 709.53 70.6465C709.43 70.2956 709.38 69.874 709.38 69.3818V64.6035H711.301V69.4023C711.301 69.6029 711.319 69.776 711.355 69.9219C711.392 70.0632 711.442 70.1794 711.506 70.2705C711.57 70.3617 711.645 70.4277 711.731 70.4688C711.818 70.5052 711.916 70.5234 712.025 70.5234C712.326 70.5234 712.563 70.446 712.736 70.291C712.914 70.1315 713.039 69.915 713.112 69.6416C713.185 69.3636 713.222 69.0492 713.222 68.6982ZM718.198 66.1826V72H716.277V64.6035H718.075L718.198 66.1826ZM717.911 68.0488L717.398 68.0625C717.389 67.5065 717.442 67.0075 717.556 66.5654C717.674 66.1234 717.84 65.7474 718.055 65.4375C718.273 65.123 718.533 64.8838 718.834 64.7197C719.139 64.5511 719.479 64.4668 719.853 64.4668C720.14 64.4668 720.402 64.5169 720.639 64.6172C720.88 64.7174 721.088 64.877 721.261 65.0957C721.434 65.3145 721.568 65.6061 721.664 65.9707C721.76 66.3307 721.808 66.7728 721.808 67.2969V72H719.887V67.2832C719.887 66.9642 719.855 66.7181 719.791 66.5449C719.727 66.3672 719.632 66.2441 719.504 66.1758C719.376 66.1029 719.217 66.0664 719.025 66.0664C718.843 66.0664 718.681 66.1188 718.54 66.2236C718.399 66.3239 718.28 66.4629 718.185 66.6406C718.093 66.8184 718.023 67.028 717.973 67.2695C717.927 67.5111 717.907 67.7708 717.911 68.0488ZM727.099 64.6035H728.835V72C728.835 72.6745 728.705 73.2259 728.445 73.6543C728.19 74.0872 727.832 74.404 727.372 74.6045C726.916 74.8096 726.383 74.9121 725.772 74.9121C725.54 74.9121 725.278 74.8802 724.986 74.8164C724.699 74.7526 724.421 74.6546 724.152 74.5225C723.883 74.3949 723.662 74.2399 723.489 74.0576L724.139 72.7314C724.316 72.9092 724.549 73.0596 724.836 73.1826C725.123 73.3102 725.406 73.374 725.684 73.374C725.952 73.374 726.176 73.3307 726.354 73.2441C726.536 73.1621 726.673 73.0208 726.764 72.8203C726.859 72.6198 726.907 72.3509 726.907 72.0137V66.3193L727.099 64.6035ZM722.97 68.5615V68.0693C722.97 67.4678 723.027 66.9414 723.141 66.4902C723.255 66.0391 723.419 65.6631 723.633 65.3623C723.847 65.0615 724.109 64.8382 724.419 64.6924C724.733 64.542 725.084 64.4668 725.472 64.4668C725.877 64.4668 726.217 64.5557 726.49 64.7334C726.764 64.9066 726.985 65.1504 727.153 65.4648C727.326 65.7793 727.459 66.1507 727.55 66.5791C727.646 67.0075 727.718 67.4769 727.769 67.9873V68.6982C727.718 69.1813 727.636 69.6325 727.522 70.0518C727.413 70.471 727.267 70.8356 727.085 71.1455C726.903 71.4554 726.679 71.6992 726.415 71.877C726.151 72.0501 725.832 72.1367 725.458 72.1367C725.075 72.1367 724.729 72.0592 724.419 71.9043C724.114 71.7493 723.852 71.5215 723.633 71.2207C723.419 70.9154 723.255 70.5417 723.141 70.0996C723.027 69.653 722.97 69.1403 722.97 68.5615ZM724.891 68.0693V68.5615C724.891 68.9079 724.911 69.2064 724.952 69.457C724.998 69.7031 725.066 69.9059 725.157 70.0654C725.248 70.2204 725.365 70.3366 725.506 70.4141C725.652 70.487 725.823 70.5234 726.019 70.5234C726.297 70.5234 726.518 70.4596 726.682 70.332C726.85 70.1999 726.973 70.0199 727.051 69.792C727.133 69.5596 727.178 69.293 727.188 68.9922V67.7002C727.183 67.4495 727.153 67.224 727.099 67.0234C727.049 66.8229 726.978 66.652 726.887 66.5107C726.796 66.3695 726.677 66.2601 726.531 66.1826C726.39 66.1051 726.224 66.0664 726.032 66.0664C725.836 66.0664 725.668 66.1051 725.526 66.1826C725.385 66.2601 725.267 66.3809 725.171 66.5449C725.08 66.7044 725.009 66.9118 724.959 67.167C724.913 67.4176 724.891 67.7184 724.891 68.0693Z" fill="url(#paint2_linear_1405_1369)"/>
<path d="M958.394 59.0469V69H956.391V59.0469H958.394ZM963.336 59.0469L960.109 63.9893L958.134 66.4502L957.751 64.4473L959.029 62.3145L960.902 59.0469H963.336ZM961.025 69L958.852 64.4268L960.321 63.1279L963.384 69H961.025ZM963.637 65.5547V65.0557C963.637 64.4769 963.705 63.9642 963.842 63.5176C963.983 63.071 964.184 62.6973 964.443 62.3965C964.703 62.0911 965.015 61.861 965.38 61.7061C965.749 61.5465 966.161 61.4668 966.617 61.4668C967.077 61.4668 967.49 61.5465 967.854 61.7061C968.224 61.861 968.538 62.0911 968.798 62.3965C969.062 62.6973 969.265 63.071 969.406 63.5176C969.548 63.9642 969.618 64.4769 969.618 65.0557V65.5547C969.618 66.1289 969.548 66.6393 969.406 67.0859C969.265 67.5326 969.062 67.9085 968.798 68.2139C968.538 68.5192 968.226 68.7493 967.861 68.9043C967.497 69.0592 967.087 69.1367 966.631 69.1367C966.175 69.1367 965.763 69.0592 965.394 68.9043C965.029 68.7493 964.715 68.5192 964.45 68.2139C964.186 67.9085 963.983 67.5326 963.842 67.0859C963.705 66.6393 963.637 66.1289 963.637 65.5547ZM965.551 65.0557V65.5547C965.551 65.8965 965.574 66.1927 965.619 66.4434C965.669 66.694 965.74 66.9014 965.831 67.0654C965.927 67.2295 966.041 67.3503 966.173 67.4277C966.305 67.5052 966.458 67.5439 966.631 67.5439C966.804 67.5439 966.959 67.5052 967.096 67.4277C967.232 67.3503 967.344 67.2295 967.431 67.0654C967.522 66.9014 967.588 66.694 967.629 66.4434C967.674 66.1927 967.697 65.8965 967.697 65.5547V65.0557C967.697 64.723 967.672 64.4313 967.622 64.1807C967.572 63.9255 967.501 63.7181 967.41 63.5586C967.319 63.3945 967.205 63.2715 967.068 63.1895C966.936 63.1029 966.786 63.0596 966.617 63.0596C966.449 63.0596 966.298 63.1029 966.166 63.1895C966.038 63.2715 965.927 63.3945 965.831 63.5586C965.74 63.7181 965.669 63.9255 965.619 64.1807C965.574 64.4313 965.551 64.723 965.551 65.0557ZM972.708 63.1826V69H970.787V61.6035H972.585L972.708 63.1826ZM972.421 65.0488L971.908 65.0625C971.899 64.5065 971.951 64.0075 972.065 63.5654C972.184 63.1234 972.35 62.7474 972.564 62.4375C972.783 62.123 973.043 61.8838 973.344 61.7197C973.649 61.5511 973.989 61.4668 974.362 61.4668C974.649 61.4668 974.911 61.5169 975.148 61.6172C975.39 61.7174 975.597 61.877 975.771 62.0957C975.944 62.3145 976.078 62.6061 976.174 62.9707C976.27 63.3307 976.317 63.7728 976.317 64.2969V69H974.396V64.2832C974.396 63.9642 974.365 63.7181 974.301 63.5449C974.237 63.3672 974.141 63.2441 974.014 63.1758C973.886 63.1029 973.727 63.0664 973.535 63.0664C973.353 63.0664 973.191 63.1188 973.05 63.2236C972.909 63.3239 972.79 63.4629 972.694 63.6406C972.603 63.8184 972.533 64.028 972.482 64.2695C972.437 64.5111 972.416 64.7708 972.421 65.0488ZM980.945 61.6035V63.0459H977.172V61.6035H980.945ZM978.04 59.7783H979.947V66.7441C979.947 66.9492 979.968 67.1064 980.009 67.2158C980.05 67.3252 980.111 67.4027 980.193 67.4482C980.28 67.4893 980.394 67.5098 980.535 67.5098C980.631 67.5098 980.72 67.5052 980.802 67.4961C980.884 67.4824 980.945 67.4688 980.986 67.4551V68.9521C980.836 69.0114 980.676 69.057 980.508 69.0889C980.344 69.1208 980.148 69.1367 979.92 69.1367C979.537 69.1367 979.204 69.0638 978.922 68.918C978.644 68.7721 978.427 68.5397 978.272 68.2207C978.118 67.8971 978.04 67.4733 978.04 66.9492V59.7783ZM983.926 63.251V69H982.012V61.6035H983.816L983.926 63.251ZM985.669 61.5488L985.642 63.4561C985.555 63.4378 985.45 63.4242 985.327 63.415C985.209 63.4059 985.104 63.4014 985.013 63.4014C984.799 63.4014 984.616 63.4355 984.466 63.5039C984.315 63.5677 984.19 63.6657 984.09 63.7979C983.994 63.9255 983.921 64.085 983.871 64.2764C983.821 64.4678 983.791 64.6842 983.782 64.9258L983.42 64.7891C983.42 64.306 983.456 63.8639 983.529 63.4629C983.607 63.0573 983.721 62.7064 983.871 62.4102C984.021 62.1094 984.201 61.877 984.411 61.7129C984.625 61.5488 984.867 61.4668 985.136 61.4668C985.227 61.4668 985.323 61.4759 985.423 61.4941C985.528 61.5078 985.61 61.526 985.669 61.5488ZM986.182 65.5547V65.0557C986.182 64.4769 986.25 63.9642 986.387 63.5176C986.528 63.071 986.729 62.6973 986.988 62.3965C987.248 62.0911 987.56 61.861 987.925 61.7061C988.294 61.5465 988.706 61.4668 989.162 61.4668C989.622 61.4668 990.035 61.5465 990.399 61.7061C990.769 61.861 991.083 62.0911 991.343 62.3965C991.607 62.6973 991.81 63.071 991.951 63.5176C992.092 63.9642 992.163 64.4769 992.163 65.0557V65.5547C992.163 66.1289 992.092 66.6393 991.951 67.0859C991.81 67.5326 991.607 67.9085 991.343 68.2139C991.083 68.5192 990.771 68.7493 990.406 68.9043C990.042 69.0592 989.632 69.1367 989.176 69.1367C988.72 69.1367 988.308 69.0592 987.938 68.9043C987.574 68.7493 987.259 68.5192 986.995 68.2139C986.731 67.9085 986.528 67.5326 986.387 67.0859C986.25 66.6393 986.182 66.1289 986.182 65.5547ZM988.096 65.0557V65.5547C988.096 65.8965 988.118 66.1927 988.164 66.4434C988.214 66.694 988.285 66.9014 988.376 67.0654C988.472 67.2295 988.586 67.3503 988.718 67.4277C988.85 67.5052 989.003 67.5439 989.176 67.5439C989.349 67.5439 989.504 67.5052 989.641 67.4277C989.777 67.3503 989.889 67.2295 989.976 67.0654C990.067 66.9014 990.133 66.694 990.174 66.4434C990.219 66.1927 990.242 65.8965 990.242 65.5547V65.0557C990.242 64.723 990.217 64.4313 990.167 64.1807C990.117 63.9255 990.046 63.7181 989.955 63.5586C989.864 63.3945 989.75 63.2715 989.613 63.1895C989.481 63.1029 989.331 63.0596 989.162 63.0596C988.993 63.0596 988.843 63.1029 988.711 63.1895C988.583 63.2715 988.472 63.3945 988.376 63.5586C988.285 63.7181 988.214 63.9255 988.164 64.1807C988.118 64.4313 988.096 64.723 988.096 65.0557ZM995.383 58.5V69H993.462V58.5H995.383ZM998.91 58.5V69H996.989V58.5H998.91ZM1003.41 69.1367C1002.9 69.1367 1002.45 69.0592 1002.06 68.9043C1001.67 68.7493 1001.35 68.526 1001.08 68.2344C1000.81 67.9382 1000.6 67.5804 1000.46 67.1611C1000.32 66.7419 1000.25 66.2633 1000.25 65.7256V65.1172C1000.25 64.5156 1000.32 63.9893 1000.46 63.5381C1000.59 63.0824 1000.79 62.6995 1001.04 62.3896C1001.29 62.0798 1001.59 61.8496 1001.96 61.6992C1002.33 61.5443 1002.75 61.4668 1003.21 61.4668C1003.67 61.4668 1004.08 61.5443 1004.43 61.6992C1004.79 61.8496 1005.08 62.0775 1005.32 62.3828C1005.55 62.6836 1005.72 63.0573 1005.84 63.5039C1005.96 63.9505 1006.02 64.4701 1006.02 65.0625V65.9375H1001.06V64.5908H1004.14V64.4199C1004.14 64.1191 1004.11 63.8685 1004.04 63.668C1003.98 63.4629 1003.88 63.3102 1003.74 63.21C1003.61 63.1097 1003.42 63.0596 1003.2 63.0596C1003 63.0596 1002.84 63.0983 1002.71 63.1758C1002.58 63.2533 1002.47 63.374 1002.4 63.5381C1002.32 63.7021 1002.26 63.9163 1002.23 64.1807C1002.19 64.4404 1002.17 64.7526 1002.17 65.1172V65.7256C1002.17 66.0674 1002.2 66.3545 1002.26 66.5869C1002.32 66.8148 1002.41 67.0016 1002.52 67.1475C1002.64 67.2887 1002.78 67.3913 1002.95 67.4551C1003.12 67.5143 1003.31 67.5439 1003.54 67.5439C1003.88 67.5439 1004.18 67.4847 1004.45 67.3662C1004.72 67.2432 1004.95 67.0768 1005.14 66.8672L1005.91 68.0293C1005.78 68.2025 1005.6 68.3757 1005.36 68.5488C1005.13 68.722 1004.85 68.8633 1004.53 68.9727C1004.21 69.082 1003.83 69.1367 1003.41 69.1367ZM974.923 87.2227V81.6035H976.844V89H975.039L974.923 87.2227ZM975.142 85.6982L975.675 85.6846C975.675 86.1813 975.627 86.6416 975.531 87.0654C975.436 87.4847 975.292 87.8493 975.101 88.1592C974.909 88.4691 974.67 88.7106 974.383 88.8838C974.096 89.0524 973.756 89.1367 973.364 89.1367C973.063 89.1367 972.785 89.0866 972.53 88.9863C972.28 88.8815 972.063 88.7197 971.881 88.501C971.699 88.2777 971.555 87.9928 971.45 87.6465C971.35 87.2956 971.3 86.874 971.3 86.3818V81.6035H973.221V86.4023C973.221 86.6029 973.239 86.776 973.275 86.9219C973.312 87.0632 973.362 87.1794 973.426 87.2705C973.49 87.3617 973.565 87.4277 973.651 87.4688C973.738 87.5052 973.836 87.5234 973.945 87.5234C974.246 87.5234 974.483 87.446 974.656 87.291C974.834 87.1315 974.959 86.915 975.032 86.6416C975.105 86.3636 975.142 86.0492 975.142 85.6982ZM980.118 83.1826V89H978.197V81.6035H979.995L980.118 83.1826ZM979.831 85.0488L979.318 85.0625C979.309 84.5065 979.362 84.0075 979.476 83.5654C979.594 83.1234 979.76 82.7474 979.975 82.4375C980.193 82.123 980.453 81.8838 980.754 81.7197C981.059 81.5511 981.399 81.4668 981.772 81.4668C982.06 81.4668 982.322 81.5169 982.559 81.6172C982.8 81.7174 983.007 81.877 983.181 82.0957C983.354 82.3145 983.488 82.6061 983.584 82.9707C983.68 83.3307 983.728 83.7728 983.728 84.2969V89H981.807V84.2832C981.807 83.9642 981.775 83.7181 981.711 83.5449C981.647 83.3672 981.551 83.2441 981.424 83.1758C981.296 83.1029 981.137 83.0664 980.945 83.0664C980.763 83.0664 980.601 83.1188 980.46 83.2236C980.319 83.3239 980.2 83.4629 980.104 83.6406C980.013 83.8184 979.943 84.028 979.893 84.2695C979.847 84.5111 979.826 84.7708 979.831 85.0488ZM988.711 87.3662V78.5H990.632V89L988.896 89.0068L988.711 87.3662ZM984.876 85.5615V85.0693C984.876 84.4678 984.926 83.9414 985.026 83.4902C985.131 83.0391 985.286 82.6631 985.491 82.3623C985.696 82.0615 985.947 81.8382 986.243 81.6924C986.544 81.542 986.888 81.4668 987.275 81.4668C987.626 81.4668 987.934 81.5557 988.198 81.7334C988.467 81.9066 988.695 82.1504 988.882 82.4648C989.069 82.7793 989.219 83.1507 989.333 83.5791C989.447 84.0075 989.527 84.4769 989.572 84.9873V85.6982C989.518 86.1813 989.433 86.6325 989.319 87.0518C989.21 87.471 989.06 87.8356 988.868 88.1455C988.681 88.4554 988.456 88.6992 988.191 88.877C987.927 89.0501 987.619 89.1367 987.269 89.1367C986.881 89.1367 986.537 89.0592 986.236 88.9043C985.94 88.7493 985.689 88.5215 985.484 88.2207C985.284 87.9154 985.131 87.5417 985.026 87.0996C984.926 86.653 984.876 86.1403 984.876 85.5615ZM986.79 85.0693V85.5615C986.79 85.9079 986.806 86.2064 986.838 86.457C986.874 86.7031 986.931 86.9059 987.009 87.0654C987.091 87.2204 987.198 87.3366 987.33 87.4141C987.462 87.487 987.626 87.5234 987.822 87.5234C988.077 87.5234 988.285 87.4596 988.444 87.332C988.604 87.1999 988.722 87.0199 988.8 86.792C988.882 86.5596 988.927 86.293 988.937 85.9922V84.7002C988.927 84.4495 988.898 84.224 988.848 84.0234C988.798 83.8229 988.727 83.652 988.636 83.5107C988.545 83.3695 988.431 83.2601 988.294 83.1826C988.162 83.1051 988.007 83.0664 987.829 83.0664C987.638 83.0664 987.474 83.1051 987.337 83.1826C987.205 83.2601 987.1 83.3809 987.022 83.5449C986.945 83.7044 986.886 83.9118 986.845 84.167C986.808 84.4176 986.79 84.7184 986.79 85.0693ZM955.789 104.659H953.752L953.745 103.21H955.481C955.755 103.21 955.978 103.164 956.151 103.073C956.329 102.978 956.459 102.839 956.541 102.656C956.628 102.469 956.671 102.244 956.671 101.979C956.671 101.674 956.632 101.43 956.555 101.248C956.477 101.061 956.352 100.924 956.179 100.838C956.006 100.751 955.78 100.708 955.502 100.708H954.436V109H952.433V99.0469H955.502C955.999 99.0469 956.443 99.1016 956.835 99.2109C957.227 99.3203 957.56 99.4867 957.833 99.71C958.106 99.9333 958.314 100.216 958.455 100.558C958.601 100.899 958.674 101.303 958.674 101.768C958.674 102.178 958.592 102.556 958.428 102.902C958.264 103.249 958.006 103.531 957.655 103.75C957.309 103.969 956.855 104.092 956.295 104.119L955.789 104.659ZM955.721 109H953.185L953.984 107.346H955.721C955.985 107.346 956.199 107.289 956.363 107.175C956.527 107.061 956.646 106.908 956.719 106.717C956.792 106.521 956.828 106.298 956.828 106.047C956.828 105.764 956.794 105.518 956.726 105.309C956.662 105.099 956.555 104.939 956.404 104.83C956.254 104.716 956.051 104.659 955.796 104.659H954.073L954.087 103.21H956.179L956.65 103.784C957.184 103.766 957.61 103.868 957.929 104.092C958.248 104.311 958.476 104.598 958.612 104.953C958.754 105.304 958.824 105.678 958.824 106.074C958.824 106.712 958.703 107.25 958.462 107.688C958.225 108.12 957.876 108.449 957.416 108.672C956.956 108.891 956.391 109 955.721 109ZM963.179 109.137C962.673 109.137 962.224 109.059 961.832 108.904C961.445 108.749 961.117 108.526 960.848 108.234C960.579 107.938 960.374 107.58 960.232 107.161C960.091 106.742 960.021 106.263 960.021 105.726V105.117C960.021 104.516 960.089 103.989 960.226 103.538C960.362 103.082 960.556 102.7 960.807 102.39C961.057 102.08 961.365 101.85 961.729 101.699C962.099 101.544 962.516 101.467 962.98 101.467C963.445 101.467 963.853 101.544 964.204 101.699C964.56 101.85 964.854 102.077 965.086 102.383C965.318 102.684 965.494 103.057 965.612 103.504C965.731 103.951 965.79 104.47 965.79 105.062V105.938H960.834V104.591H963.91V104.42C963.91 104.119 963.878 103.868 963.814 103.668C963.751 103.463 963.65 103.31 963.514 103.21C963.377 103.11 963.195 103.06 962.967 103.06C962.775 103.06 962.614 103.098 962.481 103.176C962.349 103.253 962.244 103.374 962.167 103.538C962.09 103.702 962.033 103.916 961.996 104.181C961.96 104.44 961.941 104.753 961.941 105.117V105.726C961.941 106.067 961.971 106.354 962.03 106.587C962.09 106.815 962.176 107.002 962.29 107.147C962.409 107.289 962.552 107.391 962.721 107.455C962.889 107.514 963.085 107.544 963.309 107.544C963.646 107.544 963.949 107.485 964.218 107.366C964.491 107.243 964.724 107.077 964.915 106.867L965.681 108.029C965.549 108.202 965.366 108.376 965.134 108.549C964.901 108.722 964.623 108.863 964.3 108.973C963.976 109.082 963.603 109.137 963.179 109.137ZM971.956 107.407V109H967.26V107.407H971.956ZM971.908 102.766L968.012 109H966.733V107.797L970.609 101.604H971.908V102.766ZM971.238 101.604V103.196H966.809V101.604H971.238ZM976.488 107.298V103.88C976.488 103.657 976.461 103.479 976.406 103.347C976.356 103.215 976.279 103.119 976.174 103.06C976.074 102.996 975.951 102.964 975.805 102.964C975.641 102.964 975.504 102.998 975.395 103.066C975.285 103.135 975.203 103.233 975.148 103.36C975.098 103.488 975.073 103.641 975.073 103.818H973.152C973.152 103.499 973.214 103.199 973.337 102.916C973.46 102.629 973.64 102.378 973.877 102.164C974.118 101.945 974.406 101.774 974.738 101.651C975.071 101.528 975.445 101.467 975.859 101.467C976.352 101.467 976.789 101.551 977.172 101.72C977.555 101.884 977.858 102.146 978.081 102.506C978.304 102.866 978.416 103.333 978.416 103.907V107.202C978.416 107.617 978.437 107.954 978.478 108.214C978.523 108.474 978.589 108.697 978.676 108.884V109H976.748C976.661 108.795 976.595 108.54 976.55 108.234C976.509 107.924 976.488 107.612 976.488 107.298ZM976.721 104.481L976.728 105.63H976.023C975.841 105.63 975.682 105.66 975.545 105.719C975.413 105.778 975.301 105.862 975.21 105.972C975.119 106.076 975.05 106.2 975.005 106.341C974.964 106.482 974.943 106.632 974.943 106.792C974.943 106.97 974.968 107.12 975.019 107.243C975.069 107.366 975.144 107.46 975.244 107.523C975.344 107.587 975.463 107.619 975.6 107.619C975.809 107.619 975.992 107.576 976.146 107.489C976.301 107.403 976.415 107.298 976.488 107.175C976.566 107.052 976.591 106.938 976.563 106.833L977.001 107.578C976.946 107.747 976.871 107.922 976.775 108.104C976.684 108.287 976.568 108.455 976.427 108.61C976.285 108.765 976.11 108.893 975.9 108.993C975.695 109.089 975.451 109.137 975.169 109.137C974.772 109.137 974.41 109.046 974.082 108.863C973.754 108.681 973.494 108.426 973.303 108.098C973.116 107.77 973.022 107.38 973.022 106.929C973.022 106.555 973.082 106.218 973.2 105.917C973.323 105.612 973.506 105.354 973.747 105.145C973.989 104.93 974.294 104.766 974.663 104.652C975.032 104.538 975.465 104.481 975.962 104.481H976.721ZM981.697 98.5V109H979.783V98.5H981.697ZM981.424 105.049L980.904 105.062C980.904 104.543 980.957 104.064 981.062 103.627C981.171 103.189 981.328 102.809 981.533 102.485C981.738 102.162 981.987 101.911 982.278 101.733C982.575 101.556 982.9 101.467 983.256 101.467C983.561 101.467 983.839 101.519 984.09 101.624C984.34 101.729 984.557 101.893 984.739 102.116C984.926 102.34 985.07 102.633 985.17 102.998C985.27 103.363 985.32 103.807 985.32 104.331V109H983.399V104.317C983.399 103.998 983.368 103.748 983.304 103.565C983.24 103.383 983.144 103.256 983.017 103.183C982.889 103.105 982.729 103.066 982.538 103.066C982.333 103.066 982.158 103.119 982.012 103.224C981.87 103.324 981.757 103.463 981.67 103.641C981.583 103.818 981.52 104.028 981.479 104.27C981.442 104.511 981.424 104.771 981.424 105.049ZM988.731 98.5V109H986.811V98.5H988.731ZM993.824 107.223V101.604H995.745V109H993.94L993.824 107.223ZM994.043 105.698L994.576 105.685C994.576 106.181 994.528 106.642 994.433 107.065C994.337 107.485 994.193 107.849 994.002 108.159C993.811 108.469 993.571 108.711 993.284 108.884C992.997 109.052 992.658 109.137 992.266 109.137C991.965 109.137 991.687 109.087 991.432 108.986C991.181 108.882 990.965 108.72 990.782 108.501C990.6 108.278 990.456 107.993 990.352 107.646C990.251 107.296 990.201 106.874 990.201 106.382V101.604H992.122V106.402C992.122 106.603 992.14 106.776 992.177 106.922C992.213 107.063 992.263 107.179 992.327 107.271C992.391 107.362 992.466 107.428 992.553 107.469C992.639 107.505 992.737 107.523 992.847 107.523C993.147 107.523 993.384 107.446 993.558 107.291C993.735 107.132 993.861 106.915 993.934 106.642C994.007 106.364 994.043 106.049 994.043 105.698ZM999.02 103.183V109H997.099V101.604H998.896L999.02 103.183ZM998.732 105.049L998.22 105.062C998.211 104.507 998.263 104.007 998.377 103.565C998.495 103.123 998.662 102.747 998.876 102.438C999.095 102.123 999.354 101.884 999.655 101.72C999.961 101.551 1000.3 101.467 1000.67 101.467C1000.96 101.467 1001.22 101.517 1001.46 101.617C1001.7 101.717 1001.91 101.877 1002.08 102.096C1002.26 102.314 1002.39 102.606 1002.49 102.971C1002.58 103.331 1002.63 103.773 1002.63 104.297V109H1000.71V104.283C1000.71 103.964 1000.68 103.718 1000.61 103.545C1000.55 103.367 1000.45 103.244 1000.33 103.176C1000.2 103.103 1000.04 103.066 999.847 103.066C999.664 103.066 999.503 103.119 999.361 103.224C999.22 103.324 999.102 103.463 999.006 103.641C998.915 103.818 998.844 104.028 998.794 104.27C998.748 104.511 998.728 104.771 998.732 105.049ZM1007.92 101.604H1009.66V109C1009.66 109.674 1009.53 110.226 1009.27 110.654C1009.01 111.087 1008.65 111.404 1008.19 111.604C1007.74 111.81 1007.2 111.912 1006.59 111.912C1006.36 111.912 1006.1 111.88 1005.81 111.816C1005.52 111.753 1005.24 111.655 1004.97 111.522C1004.7 111.395 1004.48 111.24 1004.31 111.058L1004.96 109.731C1005.14 109.909 1005.37 110.06 1005.66 110.183C1005.94 110.31 1006.23 110.374 1006.5 110.374C1006.77 110.374 1007 110.331 1007.17 110.244C1007.36 110.162 1007.49 110.021 1007.58 109.82C1007.68 109.62 1007.73 109.351 1007.73 109.014V103.319L1007.92 101.604ZM1003.79 105.562V105.069C1003.79 104.468 1003.85 103.941 1003.96 103.49C1004.08 103.039 1004.24 102.663 1004.45 102.362C1004.67 102.062 1004.93 101.838 1005.24 101.692C1005.55 101.542 1005.91 101.467 1006.29 101.467C1006.7 101.467 1007.04 101.556 1007.31 101.733C1007.58 101.907 1007.81 102.15 1007.97 102.465C1008.15 102.779 1008.28 103.151 1008.37 103.579C1008.47 104.007 1008.54 104.477 1008.59 104.987V105.698C1008.54 106.181 1008.46 106.632 1008.34 107.052C1008.23 107.471 1008.09 107.836 1007.91 108.146C1007.72 108.455 1007.5 108.699 1007.24 108.877C1006.97 109.05 1006.65 109.137 1006.28 109.137C1005.9 109.137 1005.55 109.059 1005.24 108.904C1004.93 108.749 1004.67 108.521 1004.45 108.221C1004.24 107.915 1004.08 107.542 1003.96 107.1C1003.85 106.653 1003.79 106.14 1003.79 105.562ZM1005.71 105.069V105.562C1005.71 105.908 1005.73 106.206 1005.77 106.457C1005.82 106.703 1005.89 106.906 1005.98 107.065C1006.07 107.22 1006.19 107.337 1006.33 107.414C1006.47 107.487 1006.64 107.523 1006.84 107.523C1007.12 107.523 1007.34 107.46 1007.5 107.332C1007.67 107.2 1007.79 107.02 1007.87 106.792C1007.95 106.56 1008 106.293 1008.01 105.992V104.7C1008 104.45 1007.97 104.224 1007.92 104.023C1007.87 103.823 1007.8 103.652 1007.71 103.511C1007.62 103.369 1007.5 103.26 1007.35 103.183C1007.21 103.105 1007.04 103.066 1006.85 103.066C1006.66 103.066 1006.49 103.105 1006.35 103.183C1006.21 103.26 1006.09 103.381 1005.99 103.545C1005.9 103.704 1005.83 103.912 1005.78 104.167C1005.73 104.418 1005.71 104.718 1005.71 105.069Z" fill="url(#paint3_linear_1405_1369)"/>
<path fill-rule="evenodd" clip-rule="evenodd" d="M342 33H49V31H342V33Z" fill="url(#paint4_linear_1405_1369)"/>
<path fill-rule="evenodd" clip-rule="evenodd" d="M660 33H367V31H660V33Z" fill="url(#paint5_linear_1405_1369)"/>
<path fill-rule="evenodd" clip-rule="evenodd" d="M969 33H688V31H969V33Z" fill="url(#paint6_linear_1405_1369)"/>
<g filter="url(#filter0_d_1405_1369)">
<path d="M36 17C27.7125 17 21 23.7125 21 32C21 34.8125 21.7875 37.475 23.175 39.725C24.497 41.9468 26.3748 43.7861 28.6236 45.0617C30.8724 46.3373 33.4146 47.0053 36 47C41.475 47 46.2375 44.075 48.825 39.725C50.2125 37.475 51 34.8125 51 32C51 23.7125 44.2875 17 36 17ZM43.3875 30.7625L35.4 38.15C34.875 38.6375 34.1625 38.9 33.4875 38.9C32.775 38.9 32.0625 38.6375 31.5 38.075L27.7875 34.3625C27.2644 33.8332 26.9711 33.1191 26.9711 32.375C26.9711 31.6309 27.2644 30.9168 27.7875 30.3875C28.875 29.3 30.675 29.3 31.7625 30.3875L33.5625 32.1875L39.5625 26.6375C40.6875 25.5875 42.4875 25.6625 43.5375 26.7875C44.5875 27.9125 44.5125 29.7125 43.3875 30.7625Z" fill="url(#paint7_linear_1405_1369)"/>
</g>
<g filter="url(#filter1_d_1405_1369)">
<path d="M353 17C344.712 17 338 23.7125 338 32C338 34.8125 338.788 37.475 340.175 39.725C341.497 41.9468 343.375 43.7861 345.624 45.0617C347.872 46.3373 350.415 47.0053 353 47C358.475 47 363.238 44.075 365.825 39.725C367.213 37.475 368 34.8125 368 32C368 23.7125 361.288 17 353 17ZM360.387 30.7625L352.4 38.15C351.875 38.6375 351.162 38.9 350.487 38.9C349.775 38.9 349.062 38.6375 348.5 38.075L344.787 34.3625C344.264 33.8332 343.971 33.1191 343.971 32.375C343.971 31.6309 344.264 30.9168 344.787 30.3875C345.875 29.3 347.675 29.3 348.762 30.3875L350.562 32.1875L356.562 26.6375C357.687 25.5875 359.488 25.6625 360.538 26.7875C361.588 27.9125 361.512 29.7125 360.387 30.7625Z" fill="url(#paint8_linear_1405_1369)"/>
</g>
<g filter="url(#filter2_d_1405_1369)">
<path d="M674 17C665.712 17 659 23.7125 659 32C659 34.8125 659.788 37.475 661.175 39.725C662.497 41.9468 664.375 43.7861 666.624 45.0617C668.872 46.3373 671.415 47.0053 674 47C679.475 47 684.238 44.075 686.825 39.725C688.213 37.475 689 34.8125 689 32C689 23.7125 682.288 17 674 17ZM681.387 30.7625L673.4 38.15C672.875 38.6375 672.162 38.9 671.487 38.9C670.775 38.9 670.062 38.6375 669.5 38.075L665.787 34.3625C665.264 33.8332 664.971 33.1191 664.971 32.375C664.971 31.6309 665.264 30.9168 665.787 30.3875C666.875 29.3 668.675 29.3 669.762 30.3875L671.562 32.1875L677.562 26.6375C678.687 25.5875 680.488 25.6625 681.538 26.7875C682.588 27.9125 682.512 29.7125 681.387 30.7625Z" fill="url(#paint9_linear_1405_1369)"/>
</g>
<g filter="url(#filter3_d_1405_1369)">
<path d="M981 17C972.712 17 966 23.7125 966 32C966 34.8125 966.788 37.475 968.175 39.725C969.497 41.9468 971.375 43.7861 973.624 45.0617C975.872 46.3373 978.415 47.0053 981 47C986.475 47 991.238 44.075 993.825 39.725C995.213 37.475 996 34.8125 996 32C996 23.7125 989.288 17 981 17ZM988.387 30.7625L980.4 38.15C979.875 38.6375 979.162 38.9 978.487 38.9C977.775 38.9 977.062 38.6375 976.5 38.075L972.787 34.3625C972.264 33.8332 971.971 33.1191 971.971 32.375C971.971 31.6309 972.264 30.9168 972.787 30.3875C973.875 29.3 975.675 29.3 976.762 30.3875L978.562 32.1875L984.562 26.6375C985.687 25.5875 987.488 25.6625 988.538 26.7875C989.588 27.9125 989.512 29.7125 988.387 30.7625Z" fill="url(#paint10_linear_1405_1369)"/>
</g>
<defs>
<filter id="filter0_d_1405_1369" x="4" y="0" width="74" height="74" filterUnits="userSpaceOnUse" color-interpolation-filters="sRGB">
<feFlood flood-opacity="0" result="BackgroundImageFix"/>
<feColorMatrix in="SourceAlpha" type="matrix" values="0 0 0 0 0 0 0 0 0 0 0 0 0 0 0 0 0 0 127 0" result="hardAlpha"/>
<feOffset dx="5" dy="5"/>
<feGaussianBlur stdDeviation="11"/>
<feComposite in2="hardAlpha" operator="out"/>
<feColorMatrix type="matrix" values="0 0 0 0 0.0392157 0 0 0 0 0.560784 0 0 0 0 0.309804 0 0 0 0.2 0"/>
<feBlend mode="normal" in2="BackgroundImageFix" result="effect1_dropShadow_1405_1369"/>
<feBlend mode="normal" in="SourceGraphic" in2="effect1_dropShadow_1405_1369" result="shape"/>
</filter>
<filter id="filter1_d_1405_1369" x="321" y="0" width="74" height="74" filterUnits="userSpaceOnUse" color-interpolation-filters="sRGB">
<feFlood flood-opacity="0" result="BackgroundImageFix"/>
<feColorMatrix in="SourceAlpha" type="matrix" values="0 0 0 0 0 0 0 0 0 0 0 0 0 0 0 0 0 0 127 0" result="hardAlpha"/>
<feOffset dx="5" dy="5"/>
<feGaussianBlur stdDeviation="11"/>
<feComposite in2="hardAlpha" operator="out"/>
<feColorMatrix type="matrix" values="0 0 0 0 0.0392157 0 0 0 0 0.560784 0 0 0 0 0.309804 0 0 0 0.2 0"/>
<feBlend mode="normal" in2="BackgroundImageFix" result="effect1_dropShadow_1405_1369"/>
<feBlend mode="normal" in="SourceGraphic" in2="effect1_dropShadow_1405_1369" result="shape"/>
</filter>
<filter id="filter2_d_1405_1369" x="642" y="0" width="74" height="74" filterUnits="userSpaceOnUse" color-interpolation-filters="sRGB">
<feFlood flood-opacity="0" result="BackgroundImageFix"/>
<feColorMatrix in="SourceAlpha" type="matrix" values="0 0 0 0 0 0 0 0 0 0 0 0 0 0 0 0 0 0 127 0" result="hardAlpha"/>
<feOffset dx="5" dy="5"/>
<feGaussianBlur stdDeviation="11"/>
<feComposite in2="hardAlpha" operator="out"/>
<feColorMatrix type="matrix" values="0 0 0 0 0.0392157 0 0 0 0 0.560784 0 0 0 0 0.309804 0 0 0 0.2 0"/>
<feBlend mode="normal" in2="BackgroundImageFix" result="effect1_dropShadow_1405_1369"/>
<feBlend mode="normal" in="SourceGraphic" in2="effect1_dropShadow_1405_1369" result="shape"/>
</filter>
<filter id="filter3_d_1405_1369" x="949" y="0" width="74" height="74" filterUnits="userSpaceOnUse" color-interpolation-filters="sRGB">
<feFlood flood-opacity="0" result="BackgroundImageFix"/>
<feColorMatrix in="SourceAlpha" type="matrix" values="0 0 0 0 0 0 0 0 0 0 0 0 0 0 0 0 0 0 127 0" result="hardAlpha"/>
<feOffset dx="5" dy="5"/>
<feGaussianBlur stdDeviation="11"/>
<feComposite in2="hardAlpha" operator="out"/>
<feColorMatrix type="matrix" values="0 0 0 0 0.0392157 0 0 0 0 0.560784 0 0 0 0 0.309804 0 0 0 0.2 0"/>
<feBlend mode="normal" in2="BackgroundImageFix" result="effect1_dropShadow_1405_1369"/>
<feBlend mode="normal" in="SourceGraphic" in2="effect1_dropShadow_1405_1369" result="shape"/>
</filter>
<linearGradient id="paint0_linear_1405_1369" x1="32.5" y1="84" x2="32.5" y2="56" gradientUnits="userSpaceOnUse">
<stop stop-color="#5CCC94"/>
<stop offset="1" stop-color="#8CCAAE"/>
</linearGradient>
<linearGradient id="paint1_linear_1405_1369" x1="353.5" y1="77" x2="353.5" y2="57" gradientUnits="userSpaceOnUse">
<stop stop-color="#5CCC94"/>
<stop offset="1" stop-color="#8CCAAE"/>
</linearGradient>
<linearGradient id="paint2_linear_1405_1369" x1="676" y1="77" x2="676" y2="57" gradientUnits="userSpaceOnUse">
<stop stop-color="#5CCC94"/>
<stop offset="1" stop-color="#8CCAAE"/>
</linearGradient>
<linearGradient id="paint3_linear_1405_1369" x1="981" y1="114" x2="981" y2="54" gradientUnits="userSpaceOnUse">
<stop stop-color="#5CCC94"/>
<stop offset="1" stop-color="#8CCAAE"/>
</linearGradient>
<linearGradient id="paint4_linear_1405_1369" x1="195.5" y1="33" x2="195.5" y2="31" gradientUnits="userSpaceOnUse">
<stop stop-color="#5CCC94"/>
<stop offset="1" stop-color="#8CCAAE"/>
</linearGradient>
<linearGradient id="paint5_linear_1405_1369" x1="513.5" y1="33" x2="513.5" y2="31" gradientUnits="userSpaceOnUse">
<stop stop-color="#5CCC94"/>
<stop offset="1" stop-color="#8CCAAE"/>
</linearGradient>
<linearGradient id="paint6_linear_1405_1369" x1="828.5" y1="33" x2="828.5" y2="31" gradientUnits="userSpaceOnUse">
<stop stop-color="#5CCC94"/>
<stop offset="1" stop-color="#8CCAAE"/>
</linearGradient>
<linearGradient id="paint7_linear_1405_1369" x1="36" y1="47" x2="36" y2="17" gradientUnits="userSpaceOnUse">
<stop stop-color="#5CCC94"/>
<stop offset="1" stop-color="#8CCAAE"/>
</linearGradient>
<linearGradient id="paint8_linear_1405_1369" x1="353" y1="47" x2="353" y2="17" gradientUnits="userSpaceOnUse">
<stop stop-color="#5CCC94"/>
<stop offset="1" stop-color="#8CCAAE"/>
</linearGradient>
<linearGradient id="paint9_linear_1405_1369" x1="674" y1="47" x2="674" y2="17" gradientUnits="userSpaceOnUse">
<stop stop-color="#5CCC94"/>
<stop offset="1" stop-color="#8CCAAE"/>
</linearGradient>
<linearGradient id="paint10_linear_1405_1369" x1="981" y1="47" x2="981" y2="17" gradientUnits="userSpaceOnUse">
<stop stop-color="#5CCC94"/>
<stop offset="1" stop-color="#8CCAAE"/>
</linearGradient>
</defs>
</svg>
