<svg width="700" height="100" viewBox="0 0 700 100" fill="none" xmlns="http://www.w3.org/2000/svg">
<path d="M3.09863 62.0469V72H1.0957V62.0469H3.09863ZM8.04102 62.0469L4.81445 66.9893L2.83887 69.4502L2.45605 67.4473L3.73438 65.3145L5.60742 62.0469H8.04102ZM5.73047 72L3.55664 67.4268L5.02637 66.1279L8.08887 72H5.73047ZM11.5547 72.1367C11.0488 72.1367 10.5999 72.0592 10.208 71.9043C9.82064 71.7493 9.49251 71.526 9.22363 71.2344C8.95475 70.9382 8.74967 70.5804 8.6084 70.1611C8.46712 69.7419 8.39648 69.2633 8.39648 68.7256V68.1172C8.39648 67.5156 8.46484 66.9893 8.60156 66.5381C8.73828 66.0824 8.93197 65.6995 9.18262 65.3896C9.43327 65.0798 9.74089 64.8496 10.1055 64.6992C10.4746 64.5443 10.8916 64.4668 11.3564 64.4668C11.8213 64.4668 12.2292 64.5443 12.5801 64.6992C12.9355 64.8496 13.2295 65.0775 13.4619 65.3828C13.6943 65.6836 13.8698 66.0573 13.9883 66.5039C14.1068 66.9505 14.166 67.4701 14.166 68.0625V68.9375H9.20996V67.5908H12.2861V67.4199C12.2861 67.1191 12.2542 66.8685 12.1904 66.668C12.1266 66.4629 12.0264 66.3102 11.8896 66.21C11.7529 66.1097 11.5706 66.0596 11.3428 66.0596C11.1514 66.0596 10.9896 66.0983 10.8574 66.1758C10.7253 66.2533 10.6204 66.374 10.543 66.5381C10.4655 66.7021 10.4085 66.9163 10.3721 67.1807C10.3356 67.4404 10.3174 67.7526 10.3174 68.1172V68.7256C10.3174 69.0674 10.347 69.3545 10.4062 69.5869C10.4655 69.8148 10.5521 70.0016 10.666 70.1475C10.7845 70.2887 10.9281 70.3913 11.0967 70.4551C11.2653 70.5143 11.4613 70.5439 11.6846 70.5439C12.0218 70.5439 12.3249 70.4847 12.5938 70.3662C12.8672 70.2432 13.0996 70.0768 13.291 69.8672L14.0566 71.0293C13.9245 71.2025 13.7422 71.3757 13.5098 71.5488C13.2773 71.722 12.9993 71.8633 12.6758 71.9727C12.3522 72.082 11.9785 72.1367 11.5547 72.1367ZM17.1533 66.1826V72H15.2324V64.6035H17.0303L17.1533 66.1826ZM16.8662 68.0488L16.3535 68.0625C16.3444 67.5065 16.3968 67.0075 16.5107 66.5654C16.6292 66.1234 16.7956 65.7474 17.0098 65.4375C17.2285 65.123 17.4883 64.8838 17.7891 64.7197C18.0944 64.5511 18.4339 64.4668 18.8076 64.4668C19.0947 64.4668 19.3568 64.5169 19.5938 64.6172C19.8353 64.7174 20.0426 64.877 20.2158 65.0957C20.389 65.3145 20.5234 65.6061 20.6191 65.9707C20.7148 66.3307 20.7627 66.7728 20.7627 67.2969V72H18.8418V67.2832C18.8418 66.9642 18.8099 66.7181 18.7461 66.5449C18.6823 66.3672 18.5866 66.2441 18.459 66.1758C18.3314 66.1029 18.1719 66.0664 17.9805 66.0664C17.7982 66.0664 17.6364 66.1188 17.4951 66.2236C17.3538 66.3239 17.2354 66.4629 17.1396 66.6406C17.0485 66.8184 16.9779 67.028 16.9277 67.2695C16.8822 67.5111 16.8617 67.7708 16.8662 68.0488ZM24.0439 66.1826V72H22.123V64.6035H23.9209L24.0439 66.1826ZM23.7568 68.0488L23.2441 68.0625C23.235 67.5065 23.2874 67.0075 23.4014 66.5654C23.5199 66.1234 23.6862 65.7474 23.9004 65.4375C24.1191 65.123 24.3789 64.8838 24.6797 64.7197C24.985 64.5511 25.3245 64.4668 25.6982 64.4668C25.9854 64.4668 26.2474 64.5169 26.4844 64.6172C26.7259 64.7174 26.9333 64.877 27.1064 65.0957C27.2796 65.3145 27.4141 65.6061 27.5098 65.9707C27.6055 66.3307 27.6533 66.7728 27.6533 67.2969V72H25.7324V67.2832C25.7324 66.9642 25.7005 66.7181 25.6367 66.5449C25.5729 66.3672 25.4772 66.2441 25.3496 66.1758C25.222 66.1029 25.0625 66.0664 24.8711 66.0664C24.6888 66.0664 24.527 66.1188 24.3857 66.2236C24.2445 66.3239 24.126 66.4629 24.0303 66.6406C23.9391 66.8184 23.8685 67.028 23.8184 67.2695C23.7728 67.5111 23.7523 67.7708 23.7568 68.0488ZM34.1133 70.4072V72H29.417V70.4072H34.1133ZM34.0654 65.7656L30.1689 72H28.8906V70.7969L32.7666 64.6035H34.0654V65.7656ZM33.3955 64.6035V66.1963H28.9658V64.6035H33.3955ZM38.2559 72.1367C37.75 72.1367 37.3011 72.0592 36.9092 71.9043C36.5218 71.7493 36.1937 71.526 35.9248 71.2344C35.6559 70.9382 35.4508 70.5804 35.3096 70.1611C35.1683 69.7419 35.0977 69.2633 35.0977 68.7256V68.1172C35.0977 67.5156 35.166 66.9893 35.3027 66.5381C35.4395 66.0824 35.6331 65.6995 35.8838 65.3896C36.1344 65.0798 36.4421 64.8496 36.8066 64.6992C37.1758 64.5443 37.5928 64.4668 38.0576 64.4668C38.5225 64.4668 38.9303 64.5443 39.2812 64.6992C39.6367 64.8496 39.9307 65.0775 40.1631 65.3828C40.3955 65.6836 40.571 66.0573 40.6895 66.5039C40.8079 66.9505 40.8672 67.4701 40.8672 68.0625V68.9375H35.9111V67.5908H38.9873V67.4199C38.9873 67.1191 38.9554 66.8685 38.8916 66.668C38.8278 66.4629 38.7275 66.3102 38.5908 66.21C38.4541 66.1097 38.2718 66.0596 38.0439 66.0596C37.8525 66.0596 37.6908 66.0983 37.5586 66.1758C37.4264 66.2533 37.3216 66.374 37.2441 66.5381C37.1667 66.7021 37.1097 66.9163 37.0732 67.1807C37.0368 67.4404 37.0186 67.7526 37.0186 68.1172V68.7256C37.0186 69.0674 37.0482 69.3545 37.1074 69.5869C37.1667 69.8148 37.2533 70.0016 37.3672 70.1475C37.4857 70.2887 37.6292 70.3913 37.7979 70.4551C37.9665 70.5143 38.1624 70.5439 38.3857 70.5439C38.723 70.5439 39.026 70.4847 39.2949 70.3662C39.5684 70.2432 39.8008 70.0768 39.9922 69.8672L40.7578 71.0293C40.6257 71.2025 40.4434 71.3757 40.2109 71.5488C39.9785 71.722 39.7005 71.8633 39.377 71.9727C39.0534 72.082 38.6797 72.1367 38.2559 72.1367ZM43.9844 64.6035V72H42.0635V64.6035H43.9844ZM41.9746 62.6895C41.9746 62.3932 42.068 62.1494 42.2549 61.958C42.4463 61.762 42.7015 61.6641 43.0205 61.6641C43.3441 61.6641 43.5993 61.762 43.7861 61.958C43.973 62.1494 44.0664 62.3932 44.0664 62.6895C44.0664 62.9811 43.9707 63.2249 43.7793 63.4209C43.5924 63.6123 43.3418 63.708 43.0273 63.708C42.7038 63.708 42.4463 63.6123 42.2549 63.4209C42.068 63.2249 41.9746 62.9811 41.9746 62.6895ZM48.1748 70.5439C48.3525 70.5439 48.5052 70.5075 48.6328 70.4346C48.765 70.3617 48.8652 70.2432 48.9336 70.0791C49.002 69.915 49.0384 69.7031 49.043 69.4434H50.8408C50.8408 69.9993 50.7223 70.4801 50.4854 70.8857C50.2529 71.2868 49.9385 71.5967 49.542 71.8154C49.1501 72.0296 48.7057 72.1367 48.209 72.1367C47.7122 72.1367 47.2793 72.057 46.9102 71.8975C46.541 71.738 46.2357 71.5055 45.9941 71.2002C45.7572 70.8949 45.5771 70.5234 45.4541 70.0859C45.3356 69.6439 45.2764 69.138 45.2764 68.5684V68.0283C45.2764 67.4678 45.3356 66.9665 45.4541 66.5244C45.5771 66.0824 45.7572 65.7087 45.9941 65.4033C46.2357 65.098 46.5387 64.8656 46.9033 64.7061C47.2725 64.5465 47.7054 64.4668 48.2021 64.4668C48.7354 64.4668 49.1979 64.5785 49.5898 64.8018C49.9818 65.0205 50.2871 65.3441 50.5059 65.7725C50.7292 66.2008 50.8408 66.7295 50.8408 67.3584H49.043C49.0384 67.0758 49.0042 66.8411 48.9404 66.6543C48.8812 66.4629 48.7878 66.3171 48.6602 66.2168C48.5371 66.112 48.373 66.0596 48.168 66.0596C47.9538 66.0596 47.7806 66.1051 47.6484 66.1963C47.5208 66.2829 47.4229 66.4105 47.3545 66.5791C47.2907 66.7432 47.2474 66.9482 47.2246 67.1943C47.2018 67.4404 47.1904 67.7184 47.1904 68.0283V68.5684C47.1904 68.901 47.1995 69.1904 47.2178 69.4365C47.2406 69.6781 47.2839 69.8831 47.3477 70.0518C47.416 70.2158 47.514 70.3389 47.6416 70.4209C47.7738 70.5029 47.9515 70.5439 48.1748 70.5439ZM53.8076 61.5V72H51.8936V61.5H53.8076ZM53.5342 68.0488L53.0146 68.0625C53.0146 67.543 53.0671 67.0645 53.1719 66.627C53.2812 66.1895 53.4385 65.8089 53.6436 65.4854C53.8486 65.1618 54.097 64.9111 54.3887 64.7334C54.6849 64.5557 55.0107 64.4668 55.3662 64.4668C55.6715 64.4668 55.9495 64.5192 56.2002 64.624C56.4508 64.7288 56.6673 64.8929 56.8496 65.1162C57.0365 65.3395 57.18 65.6335 57.2803 65.998C57.3805 66.3626 57.4307 66.807 57.4307 67.3311V72H55.5098V67.3174C55.5098 66.9984 55.4779 66.7477 55.4141 66.5654C55.3503 66.3831 55.2546 66.2555 55.127 66.1826C54.9993 66.1051 54.8398 66.0664 54.6484 66.0664C54.4434 66.0664 54.2679 66.1188 54.1221 66.2236C53.9808 66.3239 53.8669 66.4629 53.7803 66.6406C53.6937 66.8184 53.6299 67.028 53.5889 67.2695C53.5524 67.5111 53.5342 67.7708 53.5342 68.0488ZM61.8125 72.1367C61.3066 72.1367 60.8577 72.0592 60.4658 71.9043C60.0785 71.7493 59.7503 71.526 59.4814 71.2344C59.2126 70.9382 59.0075 70.5804 58.8662 70.1611C58.7249 69.7419 58.6543 69.2633 58.6543 68.7256V68.1172C58.6543 67.5156 58.7227 66.9893 58.8594 66.5381C58.9961 66.0824 59.1898 65.6995 59.4404 65.3896C59.6911 65.0798 59.9987 64.8496 60.3633 64.6992C60.7324 64.5443 61.1494 64.4668 61.6143 64.4668C62.0791 64.4668 62.487 64.5443 62.8379 64.6992C63.1934 64.8496 63.4873 65.0775 63.7197 65.3828C63.9521 65.6836 64.1276 66.0573 64.2461 66.5039C64.3646 66.9505 64.4238 67.4701 64.4238 68.0625V68.9375H59.4678V67.5908H62.5439V67.4199C62.5439 67.1191 62.512 66.8685 62.4482 66.668C62.3844 66.4629 62.2842 66.3102 62.1475 66.21C62.0107 66.1097 61.8285 66.0596 61.6006 66.0596C61.4092 66.0596 61.2474 66.0983 61.1152 66.1758C60.9831 66.2533 60.8783 66.374 60.8008 66.5381C60.7233 66.7021 60.6663 66.9163 60.6299 67.1807C60.5934 67.4404 60.5752 67.7526 60.5752 68.1172V68.7256C60.5752 69.0674 60.6048 69.3545 60.6641 69.5869C60.7233 69.8148 60.8099 70.0016 60.9238 70.1475C61.0423 70.2887 61.1859 70.3913 61.3545 70.4551C61.5231 70.5143 61.7191 70.5439 61.9424 70.5439C62.2796 70.5439 62.5827 70.4847 62.8516 70.3662C63.125 70.2432 63.3574 70.0768 63.5488 69.8672L64.3145 71.0293C64.1823 71.2025 64 71.3757 63.7676 71.5488C63.5352 71.722 63.2572 71.8633 62.9336 71.9727C62.61 72.082 62.2363 72.1367 61.8125 72.1367ZM67.4111 66.1826V72H65.4902V64.6035H67.2881L67.4111 66.1826ZM67.124 68.0488L66.6113 68.0625C66.6022 67.5065 66.6546 67.0075 66.7686 66.5654C66.887 66.1234 67.0534 65.7474 67.2676 65.4375C67.4863 65.123 67.7461 64.8838 68.0469 64.7197C68.3522 64.5511 68.6917 64.4668 69.0654 64.4668C69.3525 64.4668 69.6146 64.5169 69.8516 64.6172C70.0931 64.7174 70.3005 64.877 70.4736 65.0957C70.6468 65.3145 70.7812 65.6061 70.877 65.9707C70.9727 66.3307 71.0205 66.7728 71.0205 67.2969V72H69.0996V67.2832C69.0996 66.9642 69.0677 66.7181 69.0039 66.5449C68.9401 66.3672 68.8444 66.2441 68.7168 66.1758C68.5892 66.1029 68.4297 66.0664 68.2383 66.0664C68.056 66.0664 67.8942 66.1188 67.7529 66.2236C67.6117 66.3239 67.4932 66.4629 67.3975 66.6406C67.3063 66.8184 67.2357 67.028 67.1855 67.2695C67.14 67.5111 67.1195 67.7708 67.124 68.0488Z" fill="url(#paint0_linear_363_2776)"/>
<path d="M304.261 62.0469H307.453C308.118 62.0469 308.686 62.1608 309.155 62.3887C309.625 62.6165 309.985 62.9538 310.235 63.4004C310.486 63.847 310.611 64.3984 310.611 65.0547C310.611 65.5924 310.538 66.0527 310.393 66.4355C310.247 66.8138 310.039 67.1305 309.771 67.3857C309.502 67.6364 309.18 67.8369 308.807 67.9873L308.198 68.3496H305.607L305.601 66.6885H307.398C307.672 66.6885 307.897 66.6292 308.075 66.5107C308.257 66.3877 308.392 66.2168 308.479 65.998C308.57 65.7747 308.615 65.515 308.615 65.2188C308.615 64.9043 308.574 64.6354 308.492 64.4121C308.415 64.1842 308.289 64.0111 308.116 63.8926C307.948 63.7695 307.727 63.708 307.453 63.708H306.264V72H304.261V62.0469ZM308.779 72L306.954 67.5635L309.053 67.5566L310.919 71.9043V72H308.779ZM314.891 72.1367C314.385 72.1367 313.936 72.0592 313.544 71.9043C313.157 71.7493 312.828 71.526 312.56 71.2344C312.291 70.9382 312.086 70.5804 311.944 70.1611C311.803 69.7419 311.732 69.2633 311.732 68.7256V68.1172C311.732 67.5156 311.801 66.9893 311.938 66.5381C312.074 66.0824 312.268 65.6995 312.519 65.3896C312.769 65.0798 313.077 64.8496 313.441 64.6992C313.811 64.5443 314.228 64.4668 314.692 64.4668C315.157 64.4668 315.565 64.5443 315.916 64.6992C316.271 64.8496 316.565 65.0775 316.798 65.3828C317.03 65.6836 317.206 66.0573 317.324 66.5039C317.443 66.9505 317.502 67.4701 317.502 68.0625V68.9375H312.546V67.5908H315.622V67.4199C315.622 67.1191 315.59 66.8685 315.526 66.668C315.463 66.4629 315.362 66.3102 315.226 66.21C315.089 66.1097 314.907 66.0596 314.679 66.0596C314.487 66.0596 314.326 66.0983 314.193 66.1758C314.061 66.2533 313.956 66.374 313.879 66.5381C313.801 66.7021 313.744 66.9163 313.708 67.1807C313.672 67.4404 313.653 67.7526 313.653 68.1172V68.7256C313.653 69.0674 313.683 69.3545 313.742 69.5869C313.801 69.8148 313.888 70.0016 314.002 70.1475C314.12 70.2887 314.264 70.3913 314.433 70.4551C314.601 70.5143 314.797 70.5439 315.021 70.5439C315.358 70.5439 315.661 70.4847 315.93 70.3662C316.203 70.2432 316.436 70.0768 316.627 69.8672L317.393 71.0293C317.26 71.2025 317.078 71.3757 316.846 71.5488C316.613 71.722 316.335 71.8633 316.012 71.9727C315.688 72.082 315.314 72.1367 314.891 72.1367ZM321.282 70.5439C321.46 70.5439 321.613 70.5075 321.74 70.4346C321.872 70.3617 321.973 70.2432 322.041 70.0791C322.109 69.915 322.146 69.7031 322.15 69.4434H323.948C323.948 69.9993 323.83 70.4801 323.593 70.8857C323.36 71.2868 323.046 71.5967 322.649 71.8154C322.257 72.0296 321.813 72.1367 321.316 72.1367C320.82 72.1367 320.387 72.057 320.018 71.8975C319.648 71.738 319.343 71.5055 319.102 71.2002C318.865 70.8949 318.685 70.5234 318.562 70.0859C318.443 69.6439 318.384 69.138 318.384 68.5684V68.0283C318.384 67.4678 318.443 66.9665 318.562 66.5244C318.685 66.0824 318.865 65.7087 319.102 65.4033C319.343 65.098 319.646 64.8656 320.011 64.7061C320.38 64.5465 320.813 64.4668 321.31 64.4668C321.843 64.4668 322.305 64.5785 322.697 64.8018C323.089 65.0205 323.395 65.3441 323.613 65.7725C323.837 66.2008 323.948 66.7295 323.948 67.3584H322.15C322.146 67.0758 322.112 66.8411 322.048 66.6543C321.989 66.4629 321.895 66.3171 321.768 66.2168C321.645 66.112 321.48 66.0596 321.275 66.0596C321.061 66.0596 320.888 66.1051 320.756 66.1963C320.628 66.2829 320.53 66.4105 320.462 66.5791C320.398 66.7432 320.355 66.9482 320.332 67.1943C320.309 67.4404 320.298 67.7184 320.298 68.0283V68.5684C320.298 68.901 320.307 69.1904 320.325 69.4365C320.348 69.6781 320.391 69.8831 320.455 70.0518C320.523 70.2158 320.621 70.3389 320.749 70.4209C320.881 70.5029 321.059 70.5439 321.282 70.5439ZM326.915 61.5V72H325.001V61.5H326.915ZM326.642 68.0488L326.122 68.0625C326.122 67.543 326.174 67.0645 326.279 66.627C326.389 66.1895 326.546 65.8089 326.751 65.4854C326.956 65.1618 327.204 64.9111 327.496 64.7334C327.792 64.5557 328.118 64.4668 328.474 64.4668C328.779 64.4668 329.057 64.5192 329.308 64.624C329.558 64.7288 329.775 64.8929 329.957 65.1162C330.144 65.3395 330.287 65.6335 330.388 65.998C330.488 66.3626 330.538 66.807 330.538 67.3311V72H328.617V67.3174C328.617 66.9984 328.585 66.7477 328.521 66.5654C328.458 66.3831 328.362 66.2555 328.234 66.1826C328.107 66.1051 327.947 66.0664 327.756 66.0664C327.551 66.0664 327.375 66.1188 327.229 66.2236C327.088 66.3239 326.974 66.4629 326.888 66.6406C326.801 66.8184 326.737 67.028 326.696 67.2695C326.66 67.5111 326.642 67.7708 326.642 68.0488ZM333.819 66.1826V72H331.898V64.6035H333.696L333.819 66.1826ZM333.532 68.0488L333.02 68.0625C333.01 67.5065 333.063 67.0075 333.177 66.5654C333.295 66.1234 333.462 65.7474 333.676 65.4375C333.895 65.123 334.154 64.8838 334.455 64.7197C334.76 64.5511 335.1 64.4668 335.474 64.4668C335.761 64.4668 336.023 64.5169 336.26 64.6172C336.501 64.7174 336.709 64.877 336.882 65.0957C337.055 65.3145 337.189 65.6061 337.285 65.9707C337.381 66.3307 337.429 66.7728 337.429 67.2969V72H335.508V67.2832C335.508 66.9642 335.476 66.7181 335.412 66.5449C335.348 66.3672 335.253 66.2441 335.125 66.1758C334.997 66.1029 334.838 66.0664 334.646 66.0664C334.464 66.0664 334.302 66.1188 334.161 66.2236C334.02 66.3239 333.901 66.4629 333.806 66.6406C333.715 66.8184 333.644 67.028 333.594 67.2695C333.548 67.5111 333.528 67.7708 333.532 68.0488ZM342.405 70.2227V64.6035H344.326V72H342.521L342.405 70.2227ZM342.624 68.6982L343.157 68.6846C343.157 69.1813 343.109 69.6416 343.014 70.0654C342.918 70.4847 342.774 70.8493 342.583 71.1592C342.392 71.4691 342.152 71.7106 341.865 71.8838C341.578 72.0524 341.239 72.1367 340.847 72.1367C340.546 72.1367 340.268 72.0866 340.013 71.9863C339.762 71.8815 339.546 71.7197 339.363 71.501C339.181 71.2777 339.037 70.9928 338.933 70.6465C338.832 70.2956 338.782 69.874 338.782 69.3818V64.6035H340.703V69.4023C340.703 69.6029 340.721 69.776 340.758 69.9219C340.794 70.0632 340.844 70.1794 340.908 70.2705C340.972 70.3617 341.047 70.4277 341.134 70.4688C341.22 70.5052 341.318 70.5234 341.428 70.5234C341.729 70.5234 341.965 70.446 342.139 70.291C342.316 70.1315 342.442 69.915 342.515 69.6416C342.588 69.3636 342.624 69.0492 342.624 68.6982ZM347.601 66.1826V72H345.68V64.6035H347.478L347.601 66.1826ZM347.313 68.0488L346.801 68.0625C346.792 67.5065 346.844 67.0075 346.958 66.5654C347.076 66.1234 347.243 65.7474 347.457 65.4375C347.676 65.123 347.936 64.8838 348.236 64.7197C348.542 64.5511 348.881 64.4668 349.255 64.4668C349.542 64.4668 349.804 64.5169 350.041 64.6172C350.283 64.7174 350.49 64.877 350.663 65.0957C350.836 65.3145 350.971 65.6061 351.066 65.9707C351.162 66.3307 351.21 66.7728 351.21 67.2969V72H349.289V67.2832C349.289 66.9642 349.257 66.7181 349.193 66.5449C349.13 66.3672 349.034 66.2441 348.906 66.1758C348.779 66.1029 348.619 66.0664 348.428 66.0664C348.245 66.0664 348.084 66.1188 347.942 66.2236C347.801 66.3239 347.683 66.4629 347.587 66.6406C347.496 66.8184 347.425 67.028 347.375 67.2695C347.329 67.5111 347.309 67.7708 347.313 68.0488ZM356.501 64.6035H358.237V72C358.237 72.6745 358.107 73.2259 357.848 73.6543C357.592 74.0872 357.235 74.404 356.774 74.6045C356.319 74.8096 355.785 74.9121 355.175 74.9121C354.942 74.9121 354.68 74.8802 354.389 74.8164C354.102 74.7526 353.824 74.6546 353.555 74.5225C353.286 74.3949 353.065 74.2399 352.892 74.0576L353.541 72.7314C353.719 72.9092 353.951 73.0596 354.238 73.1826C354.525 73.3102 354.808 73.374 355.086 73.374C355.355 73.374 355.578 73.3307 355.756 73.2441C355.938 73.1621 356.075 73.0208 356.166 72.8203C356.262 72.6198 356.31 72.3509 356.31 72.0137V66.3193L356.501 64.6035ZM352.372 68.5615V68.0693C352.372 67.4678 352.429 66.9414 352.543 66.4902C352.657 66.0391 352.821 65.6631 353.035 65.3623C353.249 65.0615 353.511 64.8382 353.821 64.6924C354.136 64.542 354.487 64.4668 354.874 64.4668C355.28 64.4668 355.619 64.5557 355.893 64.7334C356.166 64.9066 356.387 65.1504 356.556 65.4648C356.729 65.7793 356.861 66.1507 356.952 66.5791C357.048 67.0075 357.121 67.4769 357.171 67.9873V68.6982C357.121 69.1813 357.039 69.6325 356.925 70.0518C356.815 70.471 356.67 70.8356 356.487 71.1455C356.305 71.4554 356.082 71.6992 355.817 71.877C355.553 72.0501 355.234 72.1367 354.86 72.1367C354.478 72.1367 354.131 72.0592 353.821 71.9043C353.516 71.7493 353.254 71.5215 353.035 71.2207C352.821 70.9154 352.657 70.5417 352.543 70.0996C352.429 69.653 352.372 69.1403 352.372 68.5615ZM354.293 68.0693V68.5615C354.293 68.9079 354.313 69.2064 354.354 69.457C354.4 69.7031 354.468 69.9059 354.56 70.0654C354.651 70.2204 354.767 70.3366 354.908 70.4141C355.054 70.487 355.225 70.5234 355.421 70.5234C355.699 70.5234 355.92 70.4596 356.084 70.332C356.253 70.1999 356.376 70.0199 356.453 69.792C356.535 69.5596 356.581 69.293 356.59 68.9922V67.7002C356.585 67.4495 356.556 67.224 356.501 67.0234C356.451 66.8229 356.38 66.652 356.289 66.5107C356.198 66.3695 356.079 66.2601 355.934 66.1826C355.792 66.1051 355.626 66.0664 355.435 66.0664C355.239 66.0664 355.07 66.1051 354.929 66.1826C354.787 66.2601 354.669 66.3809 354.573 66.5449C354.482 66.7044 354.411 66.9118 354.361 67.167C354.316 67.4176 354.293 67.7184 354.293 68.0693ZM362.947 70.0039C362.947 69.8763 362.904 69.7624 362.817 69.6621C362.731 69.5618 362.594 69.4593 362.407 69.3545C362.22 69.2451 361.972 69.1243 361.662 68.9922C361.325 68.8555 361.026 68.7142 360.767 68.5684C360.507 68.4225 360.286 68.2607 360.104 68.083C359.926 67.9053 359.791 67.7025 359.7 67.4746C359.609 67.2467 359.563 66.987 359.563 66.6953C359.563 66.3809 359.62 66.0915 359.734 65.8271C359.853 65.5583 360.021 65.3236 360.24 65.123C360.459 64.918 360.726 64.7585 361.04 64.6445C361.359 64.526 361.717 64.4668 362.113 64.4668C362.669 64.4668 363.146 64.5648 363.542 64.7607C363.943 64.9521 364.251 65.221 364.465 65.5674C364.679 65.9137 364.786 66.3171 364.786 66.7773H362.872C362.872 66.6133 362.847 66.4674 362.797 66.3398C362.747 66.2077 362.665 66.1051 362.551 66.0322C362.441 65.9593 362.293 65.9229 362.106 65.9229C361.97 65.9229 361.847 65.9525 361.737 66.0117C361.632 66.071 361.548 66.1507 361.484 66.251C361.425 66.3467 361.396 66.4606 361.396 66.5928C361.396 66.693 361.416 66.7819 361.457 66.8594C361.503 66.9368 361.573 67.012 361.669 67.085C361.765 67.1579 361.892 67.2354 362.052 67.3174C362.216 67.3949 362.416 67.4814 362.653 67.5771C363.146 67.7594 363.549 67.9554 363.863 68.165C364.182 68.3747 364.419 68.6208 364.574 68.9033C364.729 69.1813 364.807 69.5254 364.807 69.9355C364.807 70.2637 364.743 70.5622 364.615 70.8311C364.492 71.0999 364.312 71.3324 364.075 71.5283C363.838 71.7243 363.553 71.8747 363.221 71.9795C362.893 72.0843 362.526 72.1367 362.12 72.1367C361.523 72.1367 361.02 72.0182 360.609 71.7812C360.199 71.5443 359.889 71.2412 359.68 70.8721C359.47 70.4984 359.365 70.111 359.365 69.71H361.184C361.193 69.9561 361.238 70.1497 361.32 70.291C361.407 70.4277 361.523 70.5234 361.669 70.5781C361.815 70.6328 361.977 70.6602 362.154 70.6602C362.332 70.6602 362.478 70.6374 362.592 70.5918C362.71 70.5417 362.799 70.4665 362.858 70.3662C362.918 70.2614 362.947 70.1406 362.947 70.0039ZM369.305 70.0039C369.305 69.8763 369.261 69.7624 369.175 69.6621C369.088 69.5618 368.951 69.4593 368.765 69.3545C368.578 69.2451 368.329 69.1243 368.02 68.9922C367.682 68.8555 367.384 68.7142 367.124 68.5684C366.864 68.4225 366.643 68.2607 366.461 68.083C366.283 67.9053 366.149 67.7025 366.058 67.4746C365.966 67.2467 365.921 66.987 365.921 66.6953C365.921 66.3809 365.978 66.0915 366.092 65.8271C366.21 65.5583 366.379 65.3236 366.598 65.123C366.816 64.918 367.083 64.7585 367.397 64.6445C367.716 64.526 368.074 64.4668 368.471 64.4668C369.027 64.4668 369.503 64.5648 369.899 64.7607C370.3 64.9521 370.608 65.221 370.822 65.5674C371.036 65.9137 371.144 66.3171 371.144 66.7773H369.229C369.229 66.6133 369.204 66.4674 369.154 66.3398C369.104 66.2077 369.022 66.1051 368.908 66.0322C368.799 65.9593 368.651 65.9229 368.464 65.9229C368.327 65.9229 368.204 65.9525 368.095 66.0117C367.99 66.071 367.906 66.1507 367.842 66.251C367.783 66.3467 367.753 66.4606 367.753 66.5928C367.753 66.693 367.773 66.7819 367.814 66.8594C367.86 66.9368 367.931 67.012 368.026 67.085C368.122 67.1579 368.25 67.2354 368.409 67.3174C368.573 67.3949 368.774 67.4814 369.011 67.5771C369.503 67.7594 369.906 67.9554 370.221 68.165C370.54 68.3747 370.777 68.6208 370.932 68.9033C371.087 69.1813 371.164 69.5254 371.164 69.9355C371.164 70.2637 371.1 70.5622 370.973 70.8311C370.85 71.0999 370.67 71.3324 370.433 71.5283C370.196 71.7243 369.911 71.8747 369.578 71.9795C369.25 72.0843 368.883 72.1367 368.478 72.1367C367.881 72.1367 367.377 72.0182 366.967 71.7812C366.557 71.5443 366.247 71.2412 366.037 70.8721C365.827 70.4984 365.723 70.111 365.723 69.71H367.541C367.55 69.9561 367.596 70.1497 367.678 70.291C367.764 70.4277 367.881 70.5234 368.026 70.5781C368.172 70.6328 368.334 70.6602 368.512 70.6602C368.689 70.6602 368.835 70.6374 368.949 70.5918C369.068 70.5417 369.157 70.4665 369.216 70.3662C369.275 70.2614 369.305 70.1406 369.305 70.0039ZM375.607 64.6035V66.0459H371.834V64.6035H375.607ZM372.702 62.7783H374.609V69.7441C374.609 69.9492 374.63 70.1064 374.671 70.2158C374.712 70.3252 374.773 70.4027 374.855 70.4482C374.942 70.4893 375.056 70.5098 375.197 70.5098C375.293 70.5098 375.382 70.5052 375.464 70.4961C375.546 70.4824 375.607 70.4688 375.648 70.4551V71.9521C375.498 72.0114 375.339 72.057 375.17 72.0889C375.006 72.1208 374.81 72.1367 374.582 72.1367C374.199 72.1367 373.867 72.0638 373.584 71.918C373.306 71.7721 373.09 71.5397 372.935 71.2207C372.78 70.8971 372.702 70.4733 372.702 69.9492V62.7783ZM379.654 72.1367C379.148 72.1367 378.7 72.0592 378.308 71.9043C377.92 71.7493 377.592 71.526 377.323 71.2344C377.054 70.9382 376.849 70.5804 376.708 70.1611C376.567 69.7419 376.496 69.2633 376.496 68.7256V68.1172C376.496 67.5156 376.564 66.9893 376.701 66.5381C376.838 66.0824 377.032 65.6995 377.282 65.3896C377.533 65.0798 377.84 64.8496 378.205 64.6992C378.574 64.5443 378.991 64.4668 379.456 64.4668C379.921 64.4668 380.329 64.5443 380.68 64.6992C381.035 64.8496 381.329 65.0775 381.562 65.3828C381.794 65.6836 381.969 66.0573 382.088 66.5039C382.206 66.9505 382.266 67.4701 382.266 68.0625V68.9375H377.31V67.5908H380.386V67.4199C380.386 67.1191 380.354 66.8685 380.29 66.668C380.226 66.4629 380.126 66.3102 379.989 66.21C379.853 66.1097 379.67 66.0596 379.442 66.0596C379.251 66.0596 379.089 66.0983 378.957 66.1758C378.825 66.2533 378.72 66.374 378.643 66.5381C378.565 66.7021 378.508 66.9163 378.472 67.1807C378.435 67.4404 378.417 67.7526 378.417 68.1172V68.7256C378.417 69.0674 378.447 69.3545 378.506 69.5869C378.565 69.8148 378.652 70.0016 378.766 70.1475C378.884 70.2887 379.028 70.3913 379.196 70.4551C379.365 70.5143 379.561 70.5439 379.784 70.5439C380.121 70.5439 380.424 70.4847 380.693 70.3662C380.967 70.2432 381.199 70.0768 381.391 69.8672L382.156 71.0293C382.024 71.2025 381.842 71.3757 381.609 71.5488C381.377 71.722 381.099 71.8633 380.775 71.9727C380.452 72.082 380.078 72.1367 379.654 72.1367ZM385.383 61.5V72H383.462V61.5H385.383ZM388.91 61.5V72H386.989V61.5H388.91ZM394.003 70.2227V64.6035H395.924V72H394.119L394.003 70.2227ZM394.222 68.6982L394.755 68.6846C394.755 69.1813 394.707 69.6416 394.611 70.0654C394.516 70.4847 394.372 70.8493 394.181 71.1592C393.989 71.4691 393.75 71.7106 393.463 71.8838C393.176 72.0524 392.836 72.1367 392.444 72.1367C392.144 72.1367 391.866 72.0866 391.61 71.9863C391.36 71.8815 391.143 71.7197 390.961 71.501C390.779 71.2777 390.635 70.9928 390.53 70.6465C390.43 70.2956 390.38 69.874 390.38 69.3818V64.6035H392.301V69.4023C392.301 69.6029 392.319 69.776 392.355 69.9219C392.392 70.0632 392.442 70.1794 392.506 70.2705C392.57 70.3617 392.645 70.4277 392.731 70.4688C392.818 70.5052 392.916 70.5234 393.025 70.5234C393.326 70.5234 393.563 70.446 393.736 70.291C393.914 70.1315 394.039 69.915 394.112 69.6416C394.185 69.3636 394.222 69.0492 394.222 68.6982ZM399.198 66.1826V72H397.277V64.6035H399.075L399.198 66.1826ZM398.911 68.0488L398.398 68.0625C398.389 67.5065 398.442 67.0075 398.556 66.5654C398.674 66.1234 398.84 65.7474 399.055 65.4375C399.273 65.123 399.533 64.8838 399.834 64.7197C400.139 64.5511 400.479 64.4668 400.853 64.4668C401.14 64.4668 401.402 64.5169 401.639 64.6172C401.88 64.7174 402.088 64.877 402.261 65.0957C402.434 65.3145 402.568 65.6061 402.664 65.9707C402.76 66.3307 402.808 66.7728 402.808 67.2969V72H400.887V67.2832C400.887 66.9642 400.855 66.7181 400.791 66.5449C400.727 66.3672 400.632 66.2441 400.504 66.1758C400.376 66.1029 400.217 66.0664 400.025 66.0664C399.843 66.0664 399.681 66.1188 399.54 66.2236C399.399 66.3239 399.28 66.4629 399.185 66.6406C399.093 66.8184 399.023 67.028 398.973 67.2695C398.927 67.5111 398.907 67.7708 398.911 68.0488ZM408.099 64.6035H409.835V72C409.835 72.6745 409.705 73.2259 409.445 73.6543C409.19 74.0872 408.832 74.404 408.372 74.6045C407.916 74.8096 407.383 74.9121 406.772 74.9121C406.54 74.9121 406.278 74.8802 405.986 74.8164C405.699 74.7526 405.421 74.6546 405.152 74.5225C404.883 74.3949 404.662 74.2399 404.489 74.0576L405.139 72.7314C405.316 72.9092 405.549 73.0596 405.836 73.1826C406.123 73.3102 406.406 73.374 406.684 73.374C406.952 73.374 407.176 73.3307 407.354 73.2441C407.536 73.1621 407.673 73.0208 407.764 72.8203C407.859 72.6198 407.907 72.3509 407.907 72.0137V66.3193L408.099 64.6035ZM403.97 68.5615V68.0693C403.97 67.4678 404.027 66.9414 404.141 66.4902C404.255 66.0391 404.419 65.6631 404.633 65.3623C404.847 65.0615 405.109 64.8382 405.419 64.6924C405.733 64.542 406.084 64.4668 406.472 64.4668C406.877 64.4668 407.217 64.5557 407.49 64.7334C407.764 64.9066 407.985 65.1504 408.153 65.4648C408.326 65.7793 408.459 66.1507 408.55 66.5791C408.646 67.0075 408.718 67.4769 408.769 67.9873V68.6982C408.718 69.1813 408.636 69.6325 408.522 70.0518C408.413 70.471 408.267 70.8356 408.085 71.1455C407.903 71.4554 407.679 71.6992 407.415 71.877C407.151 72.0501 406.832 72.1367 406.458 72.1367C406.075 72.1367 405.729 72.0592 405.419 71.9043C405.114 71.7493 404.852 71.5215 404.633 71.2207C404.419 70.9154 404.255 70.5417 404.141 70.0996C404.027 69.653 403.97 69.1403 403.97 68.5615ZM405.891 68.0693V68.5615C405.891 68.9079 405.911 69.2064 405.952 69.457C405.998 69.7031 406.066 69.9059 406.157 70.0654C406.248 70.2204 406.365 70.3366 406.506 70.4141C406.652 70.487 406.823 70.5234 407.019 70.5234C407.297 70.5234 407.518 70.4596 407.682 70.332C407.85 70.1999 407.973 70.0199 408.051 69.792C408.133 69.5596 408.178 69.293 408.188 68.9922V67.7002C408.183 67.4495 408.153 67.224 408.099 67.0234C408.049 66.8229 407.978 66.652 407.887 66.5107C407.796 66.3695 407.677 66.2601 407.531 66.1826C407.39 66.1051 407.224 66.0664 407.032 66.0664C406.836 66.0664 406.668 66.1051 406.526 66.1826C406.385 66.2601 406.267 66.3809 406.171 66.5449C406.08 66.7044 406.009 66.9118 405.959 67.167C405.913 67.4176 405.891 67.7184 405.891 68.0693Z" fill="#E0E0E9"/>
<path d="M634.202 59.0469H636.198V65.8828C636.198 66.6484 636.057 67.2728 635.774 67.7559C635.496 68.2344 635.111 68.5853 634.619 68.8086C634.127 69.0273 633.564 69.1367 632.931 69.1367C632.293 69.1367 631.725 69.0273 631.229 68.8086C630.732 68.5853 630.344 68.2344 630.066 67.7559C629.793 67.2728 629.656 66.6484 629.656 65.8828V59.0469H631.652V65.8828C631.652 66.3158 631.7 66.6484 631.796 66.8809C631.896 67.1133 632.04 67.2728 632.227 67.3594C632.418 67.4414 632.653 67.4824 632.931 67.4824C633.213 67.4824 633.446 67.4414 633.628 67.3594C633.815 67.2728 633.956 67.1133 634.052 66.8809C634.152 66.6484 634.202 66.3158 634.202 65.8828V59.0469ZM630.265 57.543C630.265 57.3014 630.354 57.0964 630.531 56.9277C630.709 56.7591 630.935 56.6748 631.208 56.6748C631.481 56.6748 631.707 56.7591 631.885 56.9277C632.067 57.0964 632.158 57.3014 632.158 57.543C632.158 57.7891 632.067 57.9964 631.885 58.165C631.707 58.3291 631.481 58.4111 631.208 58.4111C630.935 58.4111 630.709 58.3291 630.531 58.165C630.354 57.9964 630.265 57.7891 630.265 57.543ZM633.601 57.5498C633.601 57.3037 633.687 57.0964 633.86 56.9277C634.038 56.7591 634.266 56.6748 634.544 56.6748C634.817 56.6748 635.043 56.7591 635.221 56.9277C635.403 57.0964 635.494 57.3037 635.494 57.5498C635.494 57.7913 635.403 57.9964 635.221 58.165C635.043 58.3291 634.817 58.4111 634.544 58.4111C634.266 58.4111 634.038 58.3291 633.86 58.165C633.687 57.9964 633.601 57.7913 633.601 57.5498ZM637.641 58.5H639.548V67.2842L639.411 69H637.641V58.5ZM643.39 65.0557V65.541C643.39 66.1426 643.342 66.6667 643.246 67.1133C643.155 67.5599 643.011 67.9336 642.815 68.2344C642.624 68.5352 642.378 68.7607 642.077 68.9111C641.776 69.0615 641.421 69.1367 641.011 69.1367C640.642 69.1367 640.325 69.0501 640.061 68.877C639.796 68.6992 639.573 68.4554 639.391 68.1455C639.213 67.8311 639.067 67.4642 638.953 67.0449C638.844 66.6211 638.764 66.1585 638.714 65.6572V64.9395C638.759 64.4473 638.837 63.9893 638.946 63.5654C639.06 63.1416 639.206 62.7747 639.384 62.4648C639.562 62.1504 639.783 61.9066 640.047 61.7334C640.316 61.5557 640.632 61.4668 640.997 61.4668C641.416 61.4668 641.776 61.5443 642.077 61.6992C642.378 61.8496 642.624 62.0752 642.815 62.376C643.011 62.6768 643.155 63.0527 643.246 63.5039C643.342 63.9505 643.39 64.4678 643.39 65.0557ZM641.482 65.541V65.0557C641.482 64.7139 641.469 64.4199 641.441 64.1738C641.414 63.9277 641.364 63.7227 641.291 63.5586C641.218 63.3945 641.113 63.2715 640.977 63.1895C640.844 63.1074 640.669 63.0664 640.45 63.0664C640.254 63.0664 640.09 63.1051 639.958 63.1826C639.826 63.2555 639.712 63.3649 639.616 63.5107C639.525 63.652 639.457 63.8206 639.411 64.0166C639.37 64.208 639.347 64.4199 639.343 64.6523V65.9443C639.347 66.2588 639.386 66.5368 639.459 66.7783C639.532 67.0199 639.648 67.2067 639.808 67.3389C639.972 67.471 640.19 67.5371 640.464 67.5371C640.678 67.5371 640.851 67.5007 640.983 67.4277C641.116 67.3548 641.218 67.2386 641.291 67.0791C641.368 66.9196 641.419 66.7145 641.441 66.4639C641.469 66.2087 641.482 65.901 641.482 65.541ZM647.546 69.1367C647.04 69.1367 646.591 69.0592 646.199 68.9043C645.812 68.7493 645.484 68.526 645.215 68.2344C644.946 67.9382 644.741 67.5804 644.6 67.1611C644.458 66.7419 644.388 66.2633 644.388 65.7256V65.1172C644.388 64.5156 644.456 63.9893 644.593 63.5381C644.729 63.0824 644.923 62.6995 645.174 62.3896C645.424 62.0798 645.732 61.8496 646.097 61.6992C646.466 61.5443 646.883 61.4668 647.348 61.4668C647.812 61.4668 648.22 61.5443 648.571 61.6992C648.927 61.8496 649.221 62.0775 649.453 62.3828C649.686 62.6836 649.861 63.0573 649.979 63.5039C650.098 63.9505 650.157 64.4701 650.157 65.0625V65.9375H645.201V64.5908H648.277V64.4199C648.277 64.1191 648.245 63.8685 648.182 63.668C648.118 63.4629 648.018 63.3102 647.881 63.21C647.744 63.1097 647.562 63.0596 647.334 63.0596C647.143 63.0596 646.981 63.0983 646.849 63.1758C646.716 63.2533 646.612 63.374 646.534 63.5381C646.457 63.7021 646.4 63.9163 646.363 64.1807C646.327 64.4404 646.309 64.7526 646.309 65.1172V65.7256C646.309 66.0674 646.338 66.3545 646.397 66.5869C646.457 66.8148 646.543 67.0016 646.657 67.1475C646.776 67.2887 646.919 67.3913 647.088 67.4551C647.257 67.5143 647.452 67.5439 647.676 67.5439C648.013 67.5439 648.316 67.4847 648.585 67.3662C648.858 67.2432 649.091 67.0768 649.282 66.8672L650.048 68.0293C649.916 68.2025 649.733 68.3757 649.501 68.5488C649.269 68.722 648.991 68.8633 648.667 68.9727C648.343 69.082 647.97 69.1367 647.546 69.1367ZM653.179 63.251V69H651.265V61.6035H653.069L653.179 63.251ZM654.922 61.5488L654.895 63.4561C654.808 63.4378 654.703 63.4242 654.58 63.415C654.462 63.4059 654.357 63.4014 654.266 63.4014C654.051 63.4014 653.869 63.4355 653.719 63.5039C653.568 63.5677 653.443 63.6657 653.343 63.7979C653.247 63.9255 653.174 64.085 653.124 64.2764C653.074 64.4678 653.044 64.6842 653.035 64.9258L652.673 64.7891C652.673 64.306 652.709 63.8639 652.782 63.4629C652.86 63.0573 652.974 62.7064 653.124 62.4102C653.274 62.1094 653.454 61.877 653.664 61.7129C653.878 61.5488 654.12 61.4668 654.389 61.4668C654.48 61.4668 654.576 61.4759 654.676 61.4941C654.781 61.5078 654.863 61.526 654.922 61.5488ZM657.813 63.0254V71.8438H655.906V61.6035H657.67L657.813 63.0254ZM661.655 65.0488V65.541C661.655 66.1198 661.605 66.6325 661.505 67.0791C661.405 67.5212 661.254 67.8971 661.054 68.207C660.858 68.5124 660.612 68.7448 660.315 68.9043C660.019 69.0592 659.673 69.1367 659.276 69.1367C658.907 69.1367 658.588 69.0501 658.319 68.877C658.055 68.6992 657.832 68.4554 657.649 68.1455C657.467 67.8356 657.321 67.4733 657.212 67.0586C657.103 66.6439 657.018 66.1995 656.959 65.7256V64.96C657.014 64.4541 657.093 63.9893 657.198 63.5654C657.303 63.137 657.447 62.7656 657.629 62.4512C657.816 62.1367 658.041 61.8952 658.306 61.7266C658.575 61.5534 658.894 61.4668 659.263 61.4668C659.664 61.4668 660.012 61.5397 660.309 61.6855C660.609 61.8314 660.858 62.0524 661.054 62.3486C661.254 62.6403 661.405 63.0117 661.505 63.4629C661.605 63.9141 661.655 64.4427 661.655 65.0488ZM659.741 65.541V65.0488C659.741 64.6934 659.721 64.3903 659.68 64.1396C659.643 63.889 659.584 63.6839 659.502 63.5244C659.42 63.3649 659.313 63.2487 659.181 63.1758C659.049 63.1029 658.887 63.0664 658.695 63.0664C658.508 63.0664 658.344 63.1029 658.203 63.1758C658.066 63.2487 657.955 63.3558 657.868 63.4971C657.782 63.6338 657.715 63.8024 657.67 64.0029C657.624 64.1989 657.599 64.4222 657.595 64.6729V66.0127C657.604 66.3089 657.643 66.571 657.711 66.7988C657.784 67.0267 657.9 67.209 658.06 67.3457C658.219 67.4779 658.436 67.5439 658.709 67.5439C658.905 67.5439 659.067 67.5029 659.194 67.4209C659.326 67.3389 659.434 67.2158 659.516 67.0518C659.598 66.8877 659.655 66.6803 659.687 66.4297C659.723 66.179 659.741 65.8828 659.741 65.541ZM664.745 63.251V69H662.831V61.6035H664.636L664.745 63.251ZM666.488 61.5488L666.461 63.4561C666.374 63.4378 666.27 63.4242 666.146 63.415C666.028 63.4059 665.923 63.4014 665.832 63.4014C665.618 63.4014 665.436 63.4355 665.285 63.5039C665.135 63.5677 665.009 63.6657 664.909 63.7979C664.813 63.9255 664.741 64.085 664.69 64.2764C664.64 64.4678 664.611 64.6842 664.602 64.9258L664.239 64.7891C664.239 64.306 664.276 63.8639 664.349 63.4629C664.426 63.0573 664.54 62.7064 664.69 62.4102C664.841 62.1094 665.021 61.877 665.23 61.7129C665.445 61.5488 665.686 61.4668 665.955 61.4668C666.046 61.4668 666.142 61.4759 666.242 61.4941C666.347 61.5078 666.429 61.526 666.488 61.5488ZM671.041 67.2227V61.6035H672.962V69H671.157L671.041 67.2227ZM671.26 65.6982L671.793 65.6846C671.793 66.1813 671.745 66.6416 671.649 67.0654C671.554 67.4847 671.41 67.8493 671.219 68.1592C671.027 68.4691 670.788 68.7106 670.501 68.8838C670.214 69.0524 669.874 69.1367 669.482 69.1367C669.182 69.1367 668.904 69.0866 668.648 68.9863C668.398 68.8815 668.181 68.7197 667.999 68.501C667.817 68.2777 667.673 67.9928 667.568 67.6465C667.468 67.2956 667.418 66.874 667.418 66.3818V61.6035H669.339V66.4023C669.339 66.6029 669.357 66.776 669.394 66.9219C669.43 67.0632 669.48 67.1794 669.544 67.2705C669.608 67.3617 669.683 67.4277 669.77 67.4688C669.856 67.5052 669.954 67.5234 670.063 67.5234C670.364 67.5234 670.601 67.446 670.774 67.291C670.952 67.1315 671.077 66.915 671.15 66.6416C671.223 66.3636 671.26 66.0492 671.26 65.6982ZM667.555 59.6621C667.555 59.4206 667.644 59.2155 667.821 59.0469C667.999 58.8783 668.225 58.7939 668.498 58.7939C668.771 58.7939 668.997 58.8783 669.175 59.0469C669.357 59.2155 669.448 59.4206 669.448 59.6621C669.448 59.9082 669.357 60.1156 669.175 60.2842C668.997 60.4482 668.771 60.5303 668.498 60.5303C668.225 60.5303 667.999 60.4482 667.821 60.2842C667.644 60.1156 667.555 59.9082 667.555 59.6621ZM670.891 59.6689C670.891 59.4229 670.977 59.2155 671.15 59.0469C671.328 58.8783 671.556 58.7939 671.834 58.7939C672.107 58.7939 672.333 58.8783 672.511 59.0469C672.693 59.2155 672.784 59.4229 672.784 59.6689C672.784 59.9105 672.693 60.1156 672.511 60.2842C672.333 60.4482 672.107 60.5303 671.834 60.5303C671.556 60.5303 671.328 60.4482 671.15 60.2842C670.977 60.1156 670.891 59.9105 670.891 59.6689ZM676.729 69H674.808V60.9609C674.808 60.3913 674.906 59.915 675.102 59.5322C675.298 59.1494 675.573 58.8577 675.929 58.6572C676.289 58.4567 676.715 58.3564 677.207 58.3564C677.367 58.3564 677.517 58.3701 677.658 58.3975C677.804 58.4202 677.945 58.4521 678.082 58.4932L678.062 60.0176C678.002 59.9993 677.932 59.9857 677.85 59.9766C677.768 59.9674 677.681 59.9629 677.59 59.9629C677.408 59.9629 677.25 60.0016 677.118 60.0791C676.991 60.1566 676.893 60.2682 676.824 60.4141C676.76 60.5599 676.729 60.7422 676.729 60.9609V69ZM677.884 61.6035V63.0459H673.905V61.6035H677.884ZM682.525 67.2227V61.6035H684.446V69H682.642L682.525 67.2227ZM682.744 65.6982L683.277 65.6846C683.277 66.1813 683.229 66.6416 683.134 67.0654C683.038 67.4847 682.895 67.8493 682.703 68.1592C682.512 68.4691 682.272 68.7106 681.985 68.8838C681.698 69.0524 681.359 69.1367 680.967 69.1367C680.666 69.1367 680.388 69.0866 680.133 68.9863C679.882 68.8815 679.666 68.7197 679.483 68.501C679.301 68.2777 679.158 67.9928 679.053 67.6465C678.952 67.2956 678.902 66.874 678.902 66.3818V61.6035H680.823V66.4023C680.823 66.6029 680.841 66.776 680.878 66.9219C680.914 67.0632 680.965 67.1794 681.028 67.2705C681.092 67.3617 681.167 67.4277 681.254 67.4688C681.34 67.5052 681.438 67.5234 681.548 67.5234C681.849 67.5234 682.086 67.446 682.259 67.291C682.437 67.1315 682.562 66.915 682.635 66.6416C682.708 66.3636 682.744 66.0492 682.744 65.6982ZM687.721 63.1826V69H685.8V61.6035H687.598L687.721 63.1826ZM687.434 65.0488L686.921 65.0625C686.912 64.5065 686.964 64.0075 687.078 63.5654C687.197 63.1234 687.363 62.7474 687.577 62.4375C687.796 62.123 688.056 61.8838 688.356 61.7197C688.662 61.5511 689.001 61.4668 689.375 61.4668C689.662 61.4668 689.924 61.5169 690.161 61.6172C690.403 61.7174 690.61 61.877 690.783 62.0957C690.956 62.3145 691.091 62.6061 691.187 62.9707C691.282 63.3307 691.33 63.7728 691.33 64.2969V69H689.409V64.2832C689.409 63.9642 689.377 63.7181 689.313 63.5449C689.25 63.3672 689.154 63.2441 689.026 63.1758C688.899 63.1029 688.739 63.0664 688.548 63.0664C688.366 63.0664 688.204 63.1188 688.062 63.2236C687.921 63.3239 687.803 63.4629 687.707 63.6406C687.616 63.8184 687.545 64.028 687.495 64.2695C687.45 64.5111 687.429 64.7708 687.434 65.0488ZM696.621 61.6035H698.357V69C698.357 69.6745 698.228 70.2259 697.968 70.6543C697.713 71.0872 697.355 71.404 696.895 71.6045C696.439 71.8096 695.906 71.9121 695.295 71.9121C695.062 71.9121 694.8 71.8802 694.509 71.8164C694.222 71.7526 693.944 71.6546 693.675 71.5225C693.406 71.3949 693.185 71.2399 693.012 71.0576L693.661 69.7314C693.839 69.9092 694.071 70.0596 694.358 70.1826C694.646 70.3102 694.928 70.374 695.206 70.374C695.475 70.374 695.698 70.3307 695.876 70.2441C696.058 70.1621 696.195 70.0208 696.286 69.8203C696.382 69.6198 696.43 69.3509 696.43 69.0137V63.3193L696.621 61.6035ZM692.492 65.5615V65.0693C692.492 64.4678 692.549 63.9414 692.663 63.4902C692.777 63.0391 692.941 62.6631 693.155 62.3623C693.369 62.0615 693.632 61.8382 693.941 61.6924C694.256 61.542 694.607 61.4668 694.994 61.4668C695.4 61.4668 695.739 61.5557 696.013 61.7334C696.286 61.9066 696.507 62.1504 696.676 62.4648C696.849 62.7793 696.981 63.1507 697.072 63.5791C697.168 64.0075 697.241 64.4769 697.291 64.9873V65.6982C697.241 66.1813 697.159 66.6325 697.045 67.0518C696.936 67.471 696.79 67.8356 696.607 68.1455C696.425 68.4554 696.202 68.6992 695.938 68.877C695.673 69.0501 695.354 69.1367 694.98 69.1367C694.598 69.1367 694.251 69.0592 693.941 68.9043C693.636 68.7493 693.374 68.5215 693.155 68.2207C692.941 67.9154 692.777 67.5417 692.663 67.0996C692.549 66.653 692.492 66.1403 692.492 65.5615ZM694.413 65.0693V65.5615C694.413 65.9079 694.434 66.2064 694.475 66.457C694.52 66.7031 694.589 66.9059 694.68 67.0654C694.771 67.2204 694.887 67.3366 695.028 67.4141C695.174 67.487 695.345 67.5234 695.541 67.5234C695.819 67.5234 696.04 67.4596 696.204 67.332C696.373 67.1999 696.496 67.0199 696.573 66.792C696.655 66.5596 696.701 66.293 696.71 65.9922V64.7002C696.705 64.4495 696.676 64.224 696.621 64.0234C696.571 63.8229 696.5 63.652 696.409 63.5107C696.318 63.3695 696.2 63.2601 696.054 63.1826C695.912 63.1051 695.746 63.0664 695.555 63.0664C695.359 63.0664 695.19 63.1051 695.049 63.1826C694.908 63.2601 694.789 63.3809 694.693 63.5449C694.602 63.7044 694.532 63.9118 694.481 64.167C694.436 64.4176 694.413 64.7184 694.413 65.0693ZM657.923 81.2227V75.6035H659.844V83H658.039L657.923 81.2227ZM658.142 79.6982L658.675 79.6846C658.675 80.1813 658.627 80.6416 658.531 81.0654C658.436 81.4847 658.292 81.8493 658.101 82.1592C657.909 82.4691 657.67 82.7106 657.383 82.8838C657.096 83.0524 656.756 83.1367 656.364 83.1367C656.063 83.1367 655.785 83.0866 655.53 82.9863C655.28 82.8815 655.063 82.7197 654.881 82.501C654.699 82.2777 654.555 81.9928 654.45 81.6465C654.35 81.2956 654.3 80.874 654.3 80.3818V75.6035H656.221V80.4023C656.221 80.6029 656.239 80.776 656.275 80.9219C656.312 81.0632 656.362 81.1794 656.426 81.2705C656.49 81.3617 656.565 81.4277 656.651 81.4688C656.738 81.5052 656.836 81.5234 656.945 81.5234C657.246 81.5234 657.483 81.446 657.656 81.291C657.834 81.1315 657.959 80.915 658.032 80.6416C658.105 80.3636 658.142 80.0492 658.142 79.6982ZM663.118 77.1826V83H661.197V75.6035H662.995L663.118 77.1826ZM662.831 79.0488L662.318 79.0625C662.309 78.5065 662.362 78.0075 662.476 77.5654C662.594 77.1234 662.76 76.7474 662.975 76.4375C663.193 76.123 663.453 75.8838 663.754 75.7197C664.059 75.5511 664.399 75.4668 664.772 75.4668C665.06 75.4668 665.322 75.5169 665.559 75.6172C665.8 75.7174 666.007 75.877 666.181 76.0957C666.354 76.3145 666.488 76.6061 666.584 76.9707C666.68 77.3307 666.728 77.7728 666.728 78.2969V83H664.807V78.2832C664.807 77.9642 664.775 77.7181 664.711 77.5449C664.647 77.3672 664.551 77.2441 664.424 77.1758C664.296 77.1029 664.137 77.0664 663.945 77.0664C663.763 77.0664 663.601 77.1188 663.46 77.2236C663.319 77.3239 663.2 77.4629 663.104 77.6406C663.013 77.8184 662.943 78.028 662.893 78.2695C662.847 78.5111 662.826 78.7708 662.831 79.0488ZM671.711 81.3662V72.5H673.632V83L671.896 83.0068L671.711 81.3662ZM667.876 79.5615V79.0693C667.876 78.4678 667.926 77.9414 668.026 77.4902C668.131 77.0391 668.286 76.6631 668.491 76.3623C668.696 76.0615 668.947 75.8382 669.243 75.6924C669.544 75.542 669.888 75.4668 670.275 75.4668C670.626 75.4668 670.934 75.5557 671.198 75.7334C671.467 75.9066 671.695 76.1504 671.882 76.4648C672.069 76.7793 672.219 77.1507 672.333 77.5791C672.447 78.0075 672.527 78.4769 672.572 78.9873V79.6982C672.518 80.1813 672.433 80.6325 672.319 81.0518C672.21 81.471 672.06 81.8356 671.868 82.1455C671.681 82.4554 671.456 82.6992 671.191 82.877C670.927 83.0501 670.619 83.1367 670.269 83.1367C669.881 83.1367 669.537 83.0592 669.236 82.9043C668.94 82.7493 668.689 82.5215 668.484 82.2207C668.284 81.9154 668.131 81.5417 668.026 81.0996C667.926 80.653 667.876 80.1403 667.876 79.5615ZM669.79 79.0693V79.5615C669.79 79.9079 669.806 80.2064 669.838 80.457C669.874 80.7031 669.931 80.9059 670.009 81.0654C670.091 81.2204 670.198 81.3366 670.33 81.4141C670.462 81.487 670.626 81.5234 670.822 81.5234C671.077 81.5234 671.285 81.4596 671.444 81.332C671.604 81.1999 671.722 81.0199 671.8 80.792C671.882 80.5596 671.927 80.293 671.937 79.9922V78.7002C671.927 78.4495 671.898 78.224 671.848 78.0234C671.798 77.8229 671.727 77.652 671.636 77.5107C671.545 77.3695 671.431 77.2601 671.294 77.1826C671.162 77.1051 671.007 77.0664 670.829 77.0664C670.638 77.0664 670.474 77.1051 670.337 77.1826C670.205 77.2601 670.1 77.3809 670.022 77.5449C669.945 77.7044 669.886 77.9118 669.845 78.167C669.808 78.4176 669.79 78.7184 669.79 79.0693ZM638.789 92.6592H636.752L636.745 91.21H638.481C638.755 91.21 638.978 91.1644 639.151 91.0732C639.329 90.9775 639.459 90.8385 639.541 90.6562C639.628 90.4694 639.671 90.2438 639.671 89.9795C639.671 89.6742 639.632 89.4303 639.555 89.248C639.477 89.0612 639.352 88.9245 639.179 88.8379C639.006 88.7513 638.78 88.708 638.502 88.708H637.436V97H635.433V87.0469H638.502C638.999 87.0469 639.443 87.1016 639.835 87.2109C640.227 87.3203 640.56 87.4867 640.833 87.71C641.106 87.9333 641.314 88.2158 641.455 88.5576C641.601 88.8994 641.674 89.3027 641.674 89.7676C641.674 90.1777 641.592 90.556 641.428 90.9023C641.264 91.2487 641.006 91.5312 640.655 91.75C640.309 91.9688 639.855 92.0918 639.295 92.1191L638.789 92.6592ZM638.721 97H636.185L636.984 95.3457H638.721C638.985 95.3457 639.199 95.2887 639.363 95.1748C639.527 95.0609 639.646 94.9082 639.719 94.7168C639.792 94.5208 639.828 94.2975 639.828 94.0469C639.828 93.7643 639.794 93.5182 639.726 93.3086C639.662 93.099 639.555 92.9395 639.404 92.8301C639.254 92.7161 639.051 92.6592 638.796 92.6592H637.073L637.087 91.21H639.179L639.65 91.7842C640.184 91.766 640.61 91.8685 640.929 92.0918C641.248 92.3105 641.476 92.5977 641.612 92.9531C641.754 93.304 641.824 93.6777 641.824 94.0742C641.824 94.7122 641.703 95.25 641.462 95.6875C641.225 96.1204 640.876 96.4486 640.416 96.6719C639.956 96.8906 639.391 97 638.721 97ZM646.179 97.1367C645.673 97.1367 645.224 97.0592 644.832 96.9043C644.445 96.7493 644.117 96.526 643.848 96.2344C643.579 95.9382 643.374 95.5804 643.232 95.1611C643.091 94.7419 643.021 94.2633 643.021 93.7256V93.1172C643.021 92.5156 643.089 91.9893 643.226 91.5381C643.362 91.0824 643.556 90.6995 643.807 90.3896C644.057 90.0798 644.365 89.8496 644.729 89.6992C645.099 89.5443 645.516 89.4668 645.98 89.4668C646.445 89.4668 646.853 89.5443 647.204 89.6992C647.56 89.8496 647.854 90.0775 648.086 90.3828C648.318 90.6836 648.494 91.0573 648.612 91.5039C648.731 91.9505 648.79 92.4701 648.79 93.0625V93.9375H643.834V92.5908H646.91V92.4199C646.91 92.1191 646.878 91.8685 646.814 91.668C646.751 91.4629 646.65 91.3102 646.514 91.21C646.377 91.1097 646.195 91.0596 645.967 91.0596C645.775 91.0596 645.614 91.0983 645.481 91.1758C645.349 91.2533 645.244 91.374 645.167 91.5381C645.09 91.7021 645.033 91.9163 644.996 92.1807C644.96 92.4404 644.941 92.7526 644.941 93.1172V93.7256C644.941 94.0674 644.971 94.3545 645.03 94.5869C645.09 94.8148 645.176 95.0016 645.29 95.1475C645.409 95.2887 645.552 95.3913 645.721 95.4551C645.889 95.5143 646.085 95.5439 646.309 95.5439C646.646 95.5439 646.949 95.4847 647.218 95.3662C647.491 95.2432 647.724 95.0768 647.915 94.8672L648.681 96.0293C648.549 96.2025 648.366 96.3757 648.134 96.5488C647.901 96.722 647.623 96.8633 647.3 96.9727C646.976 97.082 646.603 97.1367 646.179 97.1367ZM654.956 95.4072V97H650.26V95.4072H654.956ZM654.908 90.7656L651.012 97H649.733V95.7969L653.609 89.6035H654.908V90.7656ZM654.238 89.6035V91.1963H649.809V89.6035H654.238ZM659.488 95.2979V91.8799C659.488 91.6566 659.461 91.4788 659.406 91.3467C659.356 91.2145 659.279 91.1188 659.174 91.0596C659.074 90.9958 658.951 90.9639 658.805 90.9639C658.641 90.9639 658.504 90.998 658.395 91.0664C658.285 91.1348 658.203 91.2327 658.148 91.3604C658.098 91.488 658.073 91.6406 658.073 91.8184H656.152C656.152 91.4993 656.214 91.1986 656.337 90.916C656.46 90.6289 656.64 90.3783 656.877 90.1641C657.118 89.9453 657.406 89.7744 657.738 89.6514C658.071 89.5283 658.445 89.4668 658.859 89.4668C659.352 89.4668 659.789 89.5511 660.172 89.7197C660.555 89.8838 660.858 90.1458 661.081 90.5059C661.304 90.8659 661.416 91.333 661.416 91.9072V95.2021C661.416 95.6169 661.437 95.9541 661.478 96.2139C661.523 96.4736 661.589 96.6969 661.676 96.8838V97H659.748C659.661 96.7949 659.595 96.5397 659.55 96.2344C659.509 95.9245 659.488 95.6123 659.488 95.2979ZM659.721 92.4814L659.728 93.6299H659.023C658.841 93.6299 658.682 93.6595 658.545 93.7188C658.413 93.778 658.301 93.8623 658.21 93.9717C658.119 94.0765 658.05 94.1995 658.005 94.3408C657.964 94.4821 657.943 94.6325 657.943 94.792C657.943 94.9697 657.968 95.1201 658.019 95.2432C658.069 95.3662 658.144 95.4596 658.244 95.5234C658.344 95.5872 658.463 95.6191 658.6 95.6191C658.809 95.6191 658.992 95.5758 659.146 95.4893C659.301 95.4027 659.415 95.2979 659.488 95.1748C659.566 95.0518 659.591 94.9378 659.563 94.833L660.001 95.5781C659.946 95.7467 659.871 95.9222 659.775 96.1045C659.684 96.2868 659.568 96.4554 659.427 96.6104C659.285 96.7653 659.11 96.8929 658.9 96.9932C658.695 97.0889 658.451 97.1367 658.169 97.1367C657.772 97.1367 657.41 97.0456 657.082 96.8633C656.754 96.681 656.494 96.4258 656.303 96.0977C656.116 95.7695 656.022 95.3799 656.022 94.9287C656.022 94.555 656.082 94.2178 656.2 93.917C656.323 93.6117 656.506 93.3542 656.747 93.1445C656.989 92.9303 657.294 92.7663 657.663 92.6523C658.032 92.5384 658.465 92.4814 658.962 92.4814H659.721ZM664.697 86.5V97H662.783V86.5H664.697ZM664.424 93.0488L663.904 93.0625C663.904 92.543 663.957 92.0645 664.062 91.627C664.171 91.1895 664.328 90.8089 664.533 90.4854C664.738 90.1618 664.987 89.9111 665.278 89.7334C665.575 89.5557 665.9 89.4668 666.256 89.4668C666.561 89.4668 666.839 89.5192 667.09 89.624C667.34 89.7288 667.557 89.8929 667.739 90.1162C667.926 90.3395 668.07 90.6335 668.17 90.998C668.27 91.3626 668.32 91.807 668.32 92.3311V97H666.399V92.3174C666.399 91.9984 666.368 91.7477 666.304 91.5654C666.24 91.3831 666.144 91.2555 666.017 91.1826C665.889 91.1051 665.729 91.0664 665.538 91.0664C665.333 91.0664 665.158 91.1188 665.012 91.2236C664.87 91.3239 664.757 91.4629 664.67 91.6406C664.583 91.8184 664.52 92.028 664.479 92.2695C664.442 92.5111 664.424 92.7708 664.424 93.0488ZM671.731 86.5V97H669.811V86.5H671.731ZM676.824 95.2227V89.6035H678.745V97H676.94L676.824 95.2227ZM677.043 93.6982L677.576 93.6846C677.576 94.1813 677.528 94.6416 677.433 95.0654C677.337 95.4847 677.193 95.8493 677.002 96.1592C676.811 96.4691 676.571 96.7106 676.284 96.8838C675.997 97.0524 675.658 97.1367 675.266 97.1367C674.965 97.1367 674.687 97.0866 674.432 96.9863C674.181 96.8815 673.965 96.7197 673.782 96.501C673.6 96.2777 673.456 95.9928 673.352 95.6465C673.251 95.2956 673.201 94.874 673.201 94.3818V89.6035H675.122V94.4023C675.122 94.6029 675.14 94.776 675.177 94.9219C675.213 95.0632 675.263 95.1794 675.327 95.2705C675.391 95.3617 675.466 95.4277 675.553 95.4688C675.639 95.5052 675.737 95.5234 675.847 95.5234C676.147 95.5234 676.384 95.446 676.558 95.291C676.735 95.1315 676.861 94.915 676.934 94.6416C677.007 94.3636 677.043 94.0492 677.043 93.6982ZM682.02 91.1826V97H680.099V89.6035H681.896L682.02 91.1826ZM681.732 93.0488L681.22 93.0625C681.211 92.5065 681.263 92.0075 681.377 91.5654C681.495 91.1234 681.662 90.7474 681.876 90.4375C682.095 90.123 682.354 89.8838 682.655 89.7197C682.961 89.5511 683.3 89.4668 683.674 89.4668C683.961 89.4668 684.223 89.5169 684.46 89.6172C684.701 89.7174 684.909 89.877 685.082 90.0957C685.255 90.3145 685.39 90.6061 685.485 90.9707C685.581 91.3307 685.629 91.7728 685.629 92.2969V97H683.708V92.2832C683.708 91.9642 683.676 91.7181 683.612 91.5449C683.549 91.3672 683.453 91.2441 683.325 91.1758C683.198 91.1029 683.038 91.0664 682.847 91.0664C682.664 91.0664 682.503 91.1188 682.361 91.2236C682.22 91.3239 682.102 91.4629 682.006 91.6406C681.915 91.8184 681.844 92.028 681.794 92.2695C681.748 92.5111 681.728 92.7708 681.732 93.0488ZM690.92 89.6035H692.656V97C692.656 97.6745 692.526 98.2259 692.267 98.6543C692.011 99.0872 691.654 99.404 691.193 99.6045C690.738 99.8096 690.204 99.9121 689.594 99.9121C689.361 99.9121 689.099 99.8802 688.808 99.8164C688.521 99.7526 688.243 99.6546 687.974 99.5225C687.705 99.3949 687.484 99.2399 687.311 99.0576L687.96 97.7314C688.138 97.9092 688.37 98.0596 688.657 98.1826C688.944 98.3102 689.227 98.374 689.505 98.374C689.774 98.374 689.997 98.3307 690.175 98.2441C690.357 98.1621 690.494 98.0208 690.585 97.8203C690.681 97.6198 690.729 97.3509 690.729 97.0137V91.3193L690.92 89.6035ZM686.791 93.5615V93.0693C686.791 92.4678 686.848 91.9414 686.962 91.4902C687.076 91.0391 687.24 90.6631 687.454 90.3623C687.668 90.0615 687.93 89.8382 688.24 89.6924C688.555 89.542 688.906 89.4668 689.293 89.4668C689.699 89.4668 690.038 89.5557 690.312 89.7334C690.585 89.9066 690.806 90.1504 690.975 90.4648C691.148 90.7793 691.28 91.1507 691.371 91.5791C691.467 92.0075 691.54 92.4769 691.59 92.9873V93.6982C691.54 94.1813 691.458 94.6325 691.344 95.0518C691.234 95.471 691.089 95.8356 690.906 96.1455C690.724 96.4554 690.501 96.6992 690.236 96.877C689.972 97.0501 689.653 97.1367 689.279 97.1367C688.896 97.1367 688.55 97.0592 688.24 96.9043C687.935 96.7493 687.673 96.5215 687.454 96.2207C687.24 95.9154 687.076 95.5417 686.962 95.0996C686.848 94.653 686.791 94.1403 686.791 93.5615ZM688.712 93.0693V93.5615C688.712 93.9079 688.732 94.2064 688.773 94.457C688.819 94.7031 688.887 94.9059 688.979 95.0654C689.07 95.2204 689.186 95.3366 689.327 95.4141C689.473 95.487 689.644 95.5234 689.84 95.5234C690.118 95.5234 690.339 95.4596 690.503 95.332C690.672 95.1999 690.795 95.0199 690.872 94.792C690.954 94.5596 691 94.293 691.009 93.9922V92.7002C691.004 92.4495 690.975 92.224 690.92 92.0234C690.87 91.8229 690.799 91.652 690.708 91.5107C690.617 91.3695 690.498 91.2601 690.353 91.1826C690.211 91.1051 690.045 91.0664 689.854 91.0664C689.658 91.0664 689.489 91.1051 689.348 91.1826C689.206 91.2601 689.088 91.3809 688.992 91.5449C688.901 91.7044 688.83 91.9118 688.78 92.167C688.735 92.4176 688.712 92.7184 688.712 93.0693Z" fill="#E0E0E9"/>
<path fill-rule="evenodd" clip-rule="evenodd" d="M671 33H46V31H671V33Z" fill="#D0CFD7"/>
<g filter="url(#filter0_d_363_2776)">
<path d="M36 17C27.7125 17 21 23.7125 21 32C21 34.8125 21.7875 37.475 23.175 39.725C24.497 41.9468 26.3748 43.7861 28.6236 45.0617C30.8724 46.3373 33.4146 47.0053 36 47C41.475 47 46.2375 44.075 48.825 39.725C50.2125 37.475 51 34.8125 51 32C51 23.7125 44.2875 17 36 17ZM43.3875 30.7625L35.4 38.15C34.875 38.6375 34.1625 38.9 33.4875 38.9C32.775 38.9 32.0625 38.6375 31.5 38.075L27.7875 34.3625C27.2644 33.8332 26.9711 33.1191 26.9711 32.375C26.9711 31.6309 27.2644 30.9168 27.7875 30.3875C28.875 29.3 30.675 29.3 31.7625 30.3875L33.5625 32.1875L39.5625 26.6375C40.6875 25.5875 42.4875 25.6625 43.5375 26.7875C44.5875 27.9125 44.5125 29.7125 43.3875 30.7625Z" fill="url(#paint1_linear_363_2776)"/>
</g>
<circle cx="357.5" cy="32.5" r="14.5" fill="#D0CFD7"/>
<circle cx="663.5" cy="32.5" r="14.5" fill="#D0CFD7"/>
<defs>
<filter id="filter0_d_363_2776" x="4" y="0" width="74" height="74" filterUnits="userSpaceOnUse" color-interpolation-filters="sRGB">
<feFlood flood-opacity="0" result="BackgroundImageFix"/>
<feColorMatrix in="SourceAlpha" type="matrix" values="0 0 0 0 0 0 0 0 0 0 0 0 0 0 0 0 0 0 127 0" result="hardAlpha"/>
<feOffset dx="5" dy="5"/>
<feGaussianBlur stdDeviation="11"/>
<feComposite in2="hardAlpha" operator="out"/>
<feColorMatrix type="matrix" values="0 0 0 0 0.0392157 0 0 0 0 0.560784 0 0 0 0 0.309804 0 0 0 0.2 0"/>
<feBlend mode="normal" in2="BackgroundImageFix" result="effect1_dropShadow_363_2776"/>
<feBlend mode="normal" in="SourceGraphic" in2="effect1_dropShadow_363_2776" result="shape"/>
</filter>
<linearGradient id="paint0_linear_363_2776" x1="36" y1="77" x2="36" y2="57" gradientUnits="userSpaceOnUse">
<stop stop-color="#5CCC94"/>
<stop offset="1" stop-color="#8CCAAE"/>
</linearGradient>
<linearGradient id="paint1_linear_363_2776" x1="36" y1="47" x2="36" y2="17" gradientUnits="userSpaceOnUse">
<stop stop-color="#5CCC94"/>
<stop offset="1" stop-color="#8CCAAE"/>
</linearGradient>
</defs>
</svg>
