<svg width="1013" height="86" viewBox="0 0 1013 86" fill="none" xmlns="http://www.w3.org/2000/svg">
<path d="M14.0625 59.0469L15.9424 66.2451L17.8154 59.0469H20.4404V69H18.4238V66.3066L18.6084 62.1572L16.6191 69H15.252L13.2627 62.1572L13.4473 66.3066V69H11.4375V59.0469H14.0625ZM25.4785 69C25.4238 68.8861 25.3691 68.6947 25.3145 68.4258C24.9681 68.8997 24.4987 69.1367 23.9062 69.1367C23.2865 69.1367 22.7715 68.9316 22.3613 68.5215C21.9557 68.1113 21.7529 67.5804 21.7529 66.9287C21.7529 66.154 21.999 65.5547 22.4912 65.1309C22.988 64.707 23.7012 64.4906 24.6309 64.4814H25.2188V63.8867C25.2188 63.554 25.1618 63.3193 25.0479 63.1826C24.9339 63.0459 24.7676 62.9775 24.5488 62.9775C24.0658 62.9775 23.8242 63.2601 23.8242 63.8252H21.8896C21.8896 63.1416 22.1449 62.5788 22.6553 62.1367C23.1702 61.6901 23.8197 61.4668 24.6035 61.4668C25.4147 61.4668 26.0413 61.6787 26.4834 62.1025C26.93 62.5218 27.1533 63.1234 27.1533 63.9072V67.3867C27.1624 68.0247 27.2536 68.5238 27.4268 68.8838V69H25.4785ZM24.3369 67.6191C24.5511 67.6191 24.7334 67.5758 24.8838 67.4893C25.0342 67.4027 25.1458 67.3001 25.2188 67.1816V65.6436H24.7539C24.4258 65.6436 24.166 65.7484 23.9746 65.958C23.7878 66.1676 23.6943 66.4479 23.6943 66.7988C23.6943 67.3457 23.9085 67.6191 24.3369 67.6191ZM30.8037 59.7852V61.6035H31.7949V63.0596H30.8037V66.7305C30.8037 67.0221 30.8424 67.2227 30.9199 67.332C31.002 67.4414 31.1569 67.4961 31.3848 67.4961C31.5716 67.4961 31.7243 67.4801 31.8428 67.4482L31.8291 68.9521C31.501 69.0752 31.1455 69.1367 30.7627 69.1367C29.514 69.1367 28.8828 68.4212 28.8691 66.9902V63.0596H28.0146V61.6035H28.8691V59.7852H30.8037ZM36.5117 63.4697L35.8691 63.415C35.3405 63.415 34.9827 63.6475 34.7959 64.1123V69H32.8545V61.6035H34.6797L34.7344 62.4033C35.0397 61.779 35.4613 61.4668 35.999 61.4668C36.2178 61.4668 36.3955 61.4964 36.5322 61.5557L36.5117 63.4697ZM39.54 69H37.5986V61.6035H39.54V69ZM37.5098 59.6895C37.5098 59.3887 37.6055 59.1426 37.7969 58.9512C37.9883 58.7598 38.2435 58.6641 38.5625 58.6641C38.8815 58.6641 39.1367 58.7598 39.3281 58.9512C39.5195 59.1426 39.6152 59.3887 39.6152 59.6895C39.6152 59.9857 39.5195 60.2318 39.3281 60.4277C39.1413 60.6237 38.8861 60.7217 38.5625 60.7217C38.2389 60.7217 37.9814 60.6237 37.79 60.4277C37.6032 60.2318 37.5098 59.9857 37.5098 59.6895ZM43.71 67.5303C44.2705 67.5303 44.5553 67.1657 44.5645 66.4365H46.3828C46.3737 67.2432 46.1253 67.8949 45.6377 68.3916C45.1501 68.8883 44.5212 69.1367 43.751 69.1367C42.7985 69.1367 42.0716 68.8405 41.5703 68.248C41.069 67.6556 40.8138 66.7829 40.8047 65.6299V65.042C40.8047 63.8799 41.0508 62.9935 41.543 62.3828C42.0397 61.7721 42.7712 61.4668 43.7373 61.4668C44.5531 61.4668 45.1956 61.7197 45.665 62.2256C46.1344 62.7269 46.3737 63.4401 46.3828 64.3652H44.5645C44.5599 63.9505 44.4915 63.6315 44.3594 63.4082C44.2272 63.1849 44.0085 63.0732 43.7031 63.0732C43.3659 63.0732 43.1243 63.194 42.9785 63.4355C42.8327 63.6725 42.7552 64.1351 42.7461 64.8232V65.5752C42.7461 66.1768 42.7757 66.5983 42.835 66.8398C42.8942 67.0768 42.9922 67.2523 43.1289 67.3662C43.2656 67.4756 43.4593 67.5303 43.71 67.5303ZM50.9902 69C50.9355 68.8861 50.8809 68.6947 50.8262 68.4258C50.4798 68.8997 50.0104 69.1367 49.418 69.1367C48.7982 69.1367 48.2832 68.9316 47.873 68.5215C47.4674 68.1113 47.2646 67.5804 47.2646 66.9287C47.2646 66.154 47.5107 65.5547 48.0029 65.1309C48.4997 64.707 49.2129 64.4906 50.1426 64.4814H50.7305V63.8867C50.7305 63.554 50.6735 63.3193 50.5596 63.1826C50.4456 63.0459 50.2793 62.9775 50.0605 62.9775C49.5775 62.9775 49.3359 63.2601 49.3359 63.8252H47.4014C47.4014 63.1416 47.6566 62.5788 48.167 62.1367C48.682 61.6901 49.3314 61.4668 50.1152 61.4668C50.9264 61.4668 51.5531 61.6787 51.9951 62.1025C52.4417 62.5218 52.665 63.1234 52.665 63.9072V67.3867C52.6742 68.0247 52.7653 68.5238 52.9385 68.8838V69H50.9902ZM49.8486 67.6191C50.0628 67.6191 50.2451 67.5758 50.3955 67.4893C50.5459 67.4027 50.6576 67.3001 50.7305 67.1816V65.6436H50.2656C49.9375 65.6436 49.6777 65.7484 49.4863 65.958C49.2995 66.1676 49.2061 66.4479 49.2061 66.7988C49.2061 67.3457 49.4202 67.6191 49.8486 67.6191ZM17.5762 73.7852V75.6035H18.5674V77.0596H17.5762V80.7305C17.5762 81.0221 17.6149 81.2227 17.6924 81.332C17.7744 81.4414 17.9294 81.4961 18.1572 81.4961C18.3441 81.4961 18.4967 81.4801 18.6152 81.4482L18.6016 82.9521C18.2734 83.0752 17.918 83.1367 17.5352 83.1367C16.2865 83.1367 15.6553 82.4212 15.6416 80.9902V77.0596H14.7871V75.6035H15.6416V73.7852H17.5762ZM21.7119 83H19.7773V75.6035H21.7119V83ZM21.1514 72.6025H23.3252L21.4248 74.7217H19.8115L21.1514 72.6025ZM29.0742 79.5342C29.0742 80.6963 28.8737 81.5872 28.4727 82.207C28.0762 82.8268 27.4837 83.1367 26.6953 83.1367C26.0938 83.1367 25.6107 82.8929 25.2461 82.4053V85.8438H23.3115V75.6035H25.1025L25.1709 76.2803C25.54 75.738 26.0436 75.4668 26.6816 75.4668C27.4701 75.4668 28.0625 75.7539 28.459 76.3281C28.86 76.9023 29.0651 77.7819 29.0742 78.9668V79.5342ZM27.1465 79.0488C27.1465 78.3333 27.0667 77.8275 26.9072 77.5312C26.7523 77.235 26.488 77.0869 26.1143 77.0869C25.7178 77.0869 25.4284 77.2533 25.2461 77.5859V81.0518C25.4193 81.3708 25.7132 81.5303 26.1279 81.5303C26.5107 81.5303 26.7751 81.3685 26.9209 81.0449C27.0713 80.7214 27.1465 80.2178 27.1465 79.5342V79.0488ZM33.8799 82.3232C33.4788 82.8656 32.9411 83.1367 32.2666 83.1367C31.5876 83.1367 31.0726 82.9043 30.7217 82.4395C30.3708 81.9701 30.1953 81.2887 30.1953 80.3955V75.6035H32.1299V80.4434C32.139 81.1634 32.3783 81.5234 32.8477 81.5234C33.2897 81.5234 33.6087 81.332 33.8047 80.9492V75.6035H35.7529V83H33.9346L33.8799 82.3232ZM40.4082 81.0176C40.4082 80.8535 40.3285 80.7031 40.1689 80.5664C40.014 80.4251 39.6654 80.236 39.123 79.999C38.3255 79.6755 37.7764 79.3405 37.4756 78.9941C37.1794 78.6478 37.0312 78.2171 37.0312 77.7021C37.0312 77.055 37.2637 76.5218 37.7285 76.1025C38.1979 75.6787 38.8177 75.4668 39.5879 75.4668C40.3991 75.4668 41.0485 75.6764 41.5361 76.0957C42.0238 76.515 42.2676 77.0778 42.2676 77.7842H40.333C40.333 77.1826 40.0824 76.8818 39.5811 76.8818C39.376 76.8818 39.2074 76.9456 39.0752 77.0732C38.943 77.2008 38.877 77.3786 38.877 77.6064C38.877 77.7705 38.9499 77.9163 39.0957 78.0439C39.2415 78.167 39.5856 78.3447 40.1279 78.5771C40.9163 78.8688 41.4723 79.1947 41.7959 79.5547C42.124 79.9102 42.2881 80.3727 42.2881 80.9424C42.2881 81.6032 42.0397 82.1341 41.543 82.5352C41.0462 82.9362 40.3945 83.1367 39.5879 83.1367C39.0456 83.1367 38.5671 83.0319 38.1523 82.8223C37.7376 82.6081 37.4118 82.3118 37.1748 81.9336C36.9424 81.5553 36.8262 81.1475 36.8262 80.71H38.665C38.6742 81.0472 38.7516 81.3001 38.8975 81.4688C39.0479 81.6374 39.2917 81.7217 39.6289 81.7217C40.1484 81.7217 40.4082 81.487 40.4082 81.0176ZM47.0049 83C46.9502 82.8861 46.8955 82.6947 46.8408 82.4258C46.4945 82.8997 46.0251 83.1367 45.4326 83.1367C44.8128 83.1367 44.2979 82.9316 43.8877 82.5215C43.4821 82.1113 43.2793 81.5804 43.2793 80.9287C43.2793 80.154 43.5254 79.5547 44.0176 79.1309C44.5143 78.707 45.2275 78.4906 46.1572 78.4814H46.7451V77.8867C46.7451 77.554 46.6882 77.3193 46.5742 77.1826C46.4603 77.0459 46.2939 76.9775 46.0752 76.9775C45.5921 76.9775 45.3506 77.2601 45.3506 77.8252H43.416C43.416 77.1416 43.6712 76.5788 44.1816 76.1367C44.6966 75.6901 45.346 75.4668 46.1299 75.4668C46.9411 75.4668 47.5677 75.6787 48.0098 76.1025C48.4564 76.5218 48.6797 77.1234 48.6797 77.9072V81.3867C48.6888 82.0247 48.7799 82.5238 48.9531 82.8838V83H47.0049ZM45.8633 81.6191C46.0775 81.6191 46.2598 81.5758 46.4102 81.4893C46.5605 81.4027 46.6722 81.3001 46.7451 81.1816V79.6436H46.2803C45.9521 79.6436 45.6924 79.7484 45.501 79.958C45.3141 80.1676 45.2207 80.4479 45.2207 80.7988C45.2207 81.3457 45.4349 81.6191 45.8633 81.6191Z" fill="url(#paint0_linear_1252_3855)"/>
<path d="M323.83 68.3633H322.832V72H320.822V62.0469H324.028C325.035 62.0469 325.812 62.3089 326.359 62.833C326.911 63.3525 327.187 64.0931 327.187 65.0547C327.187 66.3763 326.706 67.3014 325.744 67.8301L327.487 71.9043V72H325.327L323.83 68.3633ZM322.832 66.6885H323.974C324.375 66.6885 324.675 66.5563 324.876 66.292C325.076 66.0231 325.177 65.6654 325.177 65.2188C325.177 64.2207 324.787 63.7217 324.008 63.7217H322.832V66.6885ZM331.459 72.1367C330.465 72.1367 329.691 71.8405 329.135 71.248C328.579 70.6556 328.301 69.8079 328.301 68.7051V68.1172C328.301 66.9505 328.556 66.0505 329.066 65.417C329.577 64.7835 330.308 64.4668 331.261 64.4668C332.19 64.4668 332.89 64.7653 333.359 65.3623C333.829 65.9548 334.068 66.8343 334.077 68.001V68.9512H330.229C330.256 69.498 330.377 69.8991 330.591 70.1543C330.805 70.4049 331.135 70.5303 331.582 70.5303C332.229 70.5303 332.769 70.3092 333.202 69.8672L333.961 71.0361C333.724 71.3643 333.38 71.6309 332.929 71.8359C332.478 72.0365 331.988 72.1367 331.459 72.1367ZM330.242 67.5977H332.177V67.4199C332.168 66.9779 332.095 66.6429 331.958 66.415C331.821 66.1872 331.584 66.0732 331.247 66.0732C330.91 66.0732 330.664 66.194 330.509 66.4355C330.358 66.6771 330.27 67.0645 330.242 67.5977ZM336.941 64.6035L336.996 65.335C337.434 64.7562 338.006 64.4668 338.712 64.4668C339.983 64.4668 340.637 65.3577 340.674 67.1396V72H338.732V67.2832C338.732 66.8639 338.669 66.5609 338.541 66.374C338.418 66.1826 338.199 66.0869 337.885 66.0869C337.534 66.0869 337.26 66.2669 337.064 66.627V72H335.123V64.6035H336.941ZM341.802 68.0762C341.802 66.8639 342.007 65.9593 342.417 65.3623C342.827 64.7653 343.424 64.4668 344.208 64.4668C344.778 64.4668 345.252 64.7129 345.63 65.2051V61.5H347.578V72H345.821L345.732 71.248C345.336 71.8405 344.826 72.1367 344.201 72.1367C343.426 72.1367 342.834 71.8405 342.424 71.248C342.018 70.6556 341.811 69.7852 341.802 68.6367V68.0762ZM343.743 68.5615C343.743 69.2907 343.821 69.8011 343.976 70.0928C344.131 70.3799 344.393 70.5234 344.762 70.5234C345.145 70.5234 345.434 70.3525 345.63 70.0107V66.6338C345.438 66.2692 345.151 66.0869 344.769 66.0869C344.413 66.0869 344.153 66.2305 343.989 66.5176C343.825 66.8047 343.743 67.3151 343.743 68.0488V68.5615ZM352.281 70.0176C352.281 69.8535 352.201 69.7031 352.042 69.5664C351.887 69.4251 351.538 69.236 350.996 68.999C350.199 68.6755 349.649 68.3405 349.349 67.9941C349.052 67.6478 348.904 67.2171 348.904 66.7021C348.904 66.055 349.137 65.5218 349.602 65.1025C350.071 64.6787 350.691 64.4668 351.461 64.4668C352.272 64.4668 352.922 64.6764 353.409 65.0957C353.897 65.515 354.141 66.0778 354.141 66.7842H352.206C352.206 66.1826 351.955 65.8818 351.454 65.8818C351.249 65.8818 351.08 65.9456 350.948 66.0732C350.816 66.2008 350.75 66.3786 350.75 66.6064C350.75 66.7705 350.823 66.9163 350.969 67.0439C351.115 67.167 351.459 67.3447 352.001 67.5771C352.789 67.8688 353.345 68.1947 353.669 68.5547C353.997 68.9102 354.161 69.3727 354.161 69.9424C354.161 70.6032 353.913 71.1341 353.416 71.5352C352.919 71.9362 352.268 72.1367 351.461 72.1367C350.919 72.1367 350.44 72.0319 350.025 71.8223C349.611 71.6081 349.285 71.3118 349.048 70.9336C348.815 70.5553 348.699 70.1475 348.699 69.71H350.538C350.547 70.0472 350.625 70.3001 350.771 70.4688C350.921 70.6374 351.165 70.7217 351.502 70.7217C352.021 70.7217 352.281 70.487 352.281 70.0176ZM357.504 70.3936H360.43V72H355.207V70.79L358.064 66.2168H355.275V64.6035H360.389V65.7725L357.504 70.3936ZM365.222 72C365.167 71.8861 365.112 71.6947 365.058 71.4258C364.711 71.8997 364.242 72.1367 363.649 72.1367C363.03 72.1367 362.515 71.9316 362.104 71.5215C361.699 71.1113 361.496 70.5804 361.496 69.9287C361.496 69.154 361.742 68.5547 362.234 68.1309C362.731 67.707 363.444 67.4906 364.374 67.4814H364.962V66.8867C364.962 66.554 364.905 66.3193 364.791 66.1826C364.677 66.0459 364.511 65.9775 364.292 65.9775C363.809 65.9775 363.567 66.2601 363.567 66.8252H361.633C361.633 66.1416 361.888 65.5788 362.398 65.1367C362.913 64.6901 363.563 64.4668 364.347 64.4668C365.158 64.4668 365.785 64.6787 366.227 65.1025C366.673 65.5218 366.896 66.1234 366.896 66.9072V70.3867C366.906 71.0247 366.997 71.5238 367.17 71.8838V72H365.222ZM364.08 70.6191C364.294 70.6191 364.477 70.5758 364.627 70.4893C364.777 70.4027 364.889 70.3001 364.962 70.1816V68.6436H364.497C364.169 68.6436 363.909 68.7484 363.718 68.958C363.531 69.1676 363.438 69.4479 363.438 69.7988C363.438 70.3457 363.652 70.6191 364.08 70.6191ZM364.661 61.5H366.835L364.935 63.6191H363.321L364.661 61.5ZM370.116 64.6035L370.171 65.2871C370.604 64.7402 371.176 64.4668 371.887 64.4668C372.625 64.4668 373.147 64.7995 373.452 65.4648C373.876 64.7995 374.48 64.4668 375.264 64.4668C376.558 64.4668 377.221 65.3623 377.253 67.1533V72H375.318V67.2764C375.318 66.848 375.259 66.5426 375.141 66.3604C375.022 66.1781 374.822 66.0869 374.539 66.0869C374.179 66.0869 373.91 66.3079 373.732 66.75L373.746 66.9824V72H371.812V67.29C371.812 66.8662 371.755 66.5609 371.641 66.374C371.527 66.1826 371.324 66.0869 371.032 66.0869C370.7 66.0869 370.435 66.2669 370.239 66.627V72H368.305V64.6035H370.116Z" fill="url(#paint1_linear_1252_3855)"/>
<path d="M647.364 69.3818C647.364 69.2041 647.348 69.0423 647.316 68.8965C647.285 68.7507 647.216 68.6162 647.111 68.4932C647.011 68.3701 646.863 68.2471 646.667 68.124C646.476 68.001 646.225 67.8734 645.915 67.7412C645.546 67.5863 645.188 67.4222 644.842 67.249C644.495 67.0713 644.183 66.8662 643.905 66.6338C643.627 66.4014 643.406 66.1279 643.242 65.8135C643.083 65.4945 643.003 65.1208 643.003 64.6924C643.003 64.2731 643.078 63.8926 643.229 63.5508C643.383 63.209 643.602 62.9173 643.885 62.6758C644.167 62.4297 644.498 62.2406 644.876 62.1084C645.259 61.9762 645.685 61.9102 646.154 61.9102C646.792 61.9102 647.344 62.0423 647.809 62.3066C648.278 62.571 648.64 62.9333 648.896 63.3936C649.155 63.8538 649.285 64.3825 649.285 64.9795H647.289C647.289 64.6969 647.248 64.4486 647.166 64.2344C647.089 64.0156 646.963 63.8447 646.79 63.7217C646.617 63.5986 646.394 63.5371 646.12 63.5371C645.865 63.5371 645.653 63.5895 645.484 63.6943C645.32 63.7946 645.197 63.9336 645.115 64.1113C645.038 64.2845 644.999 64.4805 644.999 64.6992C644.999 64.8633 645.038 65.0114 645.115 65.1436C645.197 65.2712 645.309 65.3874 645.45 65.4922C645.591 65.5924 645.758 65.6904 645.949 65.7861C646.145 65.8818 646.359 65.9753 646.592 66.0664C647.043 66.2441 647.442 66.4401 647.788 66.6543C648.134 66.8639 648.424 67.1009 648.656 67.3652C648.889 67.625 649.064 67.9189 649.183 68.2471C649.301 68.5752 649.36 68.9489 649.36 69.3682C649.36 69.7829 649.287 70.1611 649.142 70.5029C649 70.8402 648.793 71.1318 648.52 71.3779C648.246 71.6195 647.916 71.8063 647.528 71.9385C647.146 72.0706 646.717 72.1367 646.243 72.1367C645.783 72.1367 645.348 72.0729 644.938 71.9453C644.527 71.8132 644.165 71.6149 643.851 71.3506C643.541 71.0817 643.297 70.7422 643.119 70.332C642.941 69.9173 642.853 69.4274 642.853 68.8623H644.855C644.855 69.1631 644.885 69.4206 644.944 69.6348C645.004 69.8444 645.095 70.013 645.218 70.1406C645.341 70.2637 645.491 70.3571 645.669 70.4209C645.851 70.4801 646.059 70.5098 646.291 70.5098C646.555 70.5098 646.765 70.4596 646.92 70.3594C647.079 70.2591 647.193 70.1247 647.262 69.9561C647.33 69.7874 647.364 69.596 647.364 69.3818ZM655.677 70.4072V72H650.98V70.4072H655.677ZM655.629 65.7656L651.732 72H650.454V70.7969L654.33 64.6035H655.629V65.7656ZM654.959 64.6035V66.1963H650.529V64.6035H654.959ZM660.209 70.2979V66.8799C660.209 66.6566 660.182 66.4788 660.127 66.3467C660.077 66.2145 659.999 66.1188 659.895 66.0596C659.794 65.9958 659.671 65.9639 659.525 65.9639C659.361 65.9639 659.225 65.998 659.115 66.0664C659.006 66.1348 658.924 66.2327 658.869 66.3604C658.819 66.488 658.794 66.6406 658.794 66.8184H656.873C656.873 66.4993 656.935 66.1986 657.058 65.916C657.181 65.6289 657.361 65.3783 657.598 65.1641C657.839 64.9453 658.126 64.7744 658.459 64.6514C658.792 64.5283 659.165 64.4668 659.58 64.4668C660.072 64.4668 660.51 64.5511 660.893 64.7197C661.275 64.8838 661.578 65.1458 661.802 65.5059C662.025 65.8659 662.137 66.333 662.137 66.9072V70.2021C662.137 70.6169 662.157 70.9541 662.198 71.2139C662.244 71.4736 662.31 71.6969 662.396 71.8838V72H660.469C660.382 71.7949 660.316 71.5397 660.271 71.2344C660.229 70.9245 660.209 70.6123 660.209 70.2979ZM660.441 67.4814L660.448 68.6299H659.744C659.562 68.6299 659.402 68.6595 659.266 68.7188C659.133 68.778 659.022 68.8623 658.931 68.9717C658.84 69.0765 658.771 69.1995 658.726 69.3408C658.685 69.4821 658.664 69.6325 658.664 69.792C658.664 69.9697 658.689 70.1201 658.739 70.2432C658.789 70.3662 658.865 70.4596 658.965 70.5234C659.065 70.5872 659.184 70.6191 659.32 70.6191C659.53 70.6191 659.712 70.5758 659.867 70.4893C660.022 70.4027 660.136 70.2979 660.209 70.1748C660.286 70.0518 660.312 69.9378 660.284 69.833L660.722 70.5781C660.667 70.7467 660.592 70.9222 660.496 71.1045C660.405 71.2868 660.289 71.4554 660.147 71.6104C660.006 71.7653 659.831 71.8929 659.621 71.9932C659.416 72.0889 659.172 72.1367 658.89 72.1367C658.493 72.1367 658.131 72.0456 657.803 71.8633C657.475 71.681 657.215 71.4258 657.023 71.0977C656.837 70.7695 656.743 70.3799 656.743 69.9287C656.743 69.555 656.802 69.2178 656.921 68.917C657.044 68.6117 657.226 68.3542 657.468 68.1445C657.709 67.9303 658.015 67.7663 658.384 67.6523C658.753 67.5384 659.186 67.4814 659.683 67.4814H660.441ZM658.568 63.6123L659.908 61.5H662.062L660.175 63.6123H658.568ZM665.479 66.1348V72H663.559V64.6035H665.363L665.479 66.1348ZM665.206 68.0488L664.68 68.0625C664.671 67.543 664.716 67.0645 664.816 66.627C664.917 66.1895 665.067 65.8089 665.268 65.4854C665.473 65.1618 665.73 64.9111 666.04 64.7334C666.35 64.5557 666.712 64.4668 667.127 64.4668C667.396 64.4668 667.644 64.5169 667.872 64.6172C668.1 64.7129 668.298 64.8656 668.467 65.0752C668.635 65.2803 668.765 65.5492 668.856 65.8818C668.948 66.21 668.993 66.6042 668.993 67.0645V72H667.079V67.2969C667.079 66.9688 667.047 66.7181 666.983 66.5449C666.92 66.3672 666.828 66.2441 666.71 66.1758C666.591 66.1029 666.446 66.0664 666.272 66.0664C666.09 66.0664 665.931 66.1165 665.794 66.2168C665.657 66.3171 665.546 66.4583 665.459 66.6406C665.377 66.8184 665.313 67.028 665.268 67.2695C665.227 67.5111 665.206 67.7708 665.206 68.0488ZM668.809 67.8574L668.118 67.9463C668.109 67.4587 668.152 67.0052 668.248 66.5859C668.344 66.1621 668.492 65.793 668.692 65.4785C668.893 65.1595 669.144 64.9111 669.444 64.7334C669.75 64.5557 670.103 64.4668 670.504 64.4668C670.805 64.4668 671.078 64.5169 671.324 64.6172C671.57 64.7174 671.78 64.8792 671.953 65.1025C672.131 65.3213 672.265 65.6107 672.356 65.9707C672.452 66.3307 672.5 66.7682 672.5 67.2832V72H670.579V67.29C670.579 66.9574 670.547 66.7021 670.483 66.5244C670.42 66.3467 670.328 66.2259 670.21 66.1621C670.091 66.0983 669.95 66.0664 669.786 66.0664C669.622 66.0664 669.479 66.112 669.355 66.2031C669.237 66.2943 669.137 66.4219 669.055 66.5859C668.973 66.7454 668.911 66.9346 668.87 67.1533C668.829 67.3675 668.809 67.6022 668.809 67.8574ZM675.952 61.5V72H674.031V61.5H675.952ZM680.73 70.2979V66.8799C680.73 66.6566 680.703 66.4788 680.648 66.3467C680.598 66.2145 680.521 66.1188 680.416 66.0596C680.316 65.9958 680.193 65.9639 680.047 65.9639C679.883 65.9639 679.746 65.998 679.637 66.0664C679.527 66.1348 679.445 66.2327 679.391 66.3604C679.34 66.488 679.315 66.6406 679.315 66.8184H677.395C677.395 66.4993 677.456 66.1986 677.579 65.916C677.702 65.6289 677.882 65.3783 678.119 65.1641C678.361 64.9453 678.648 64.7744 678.98 64.6514C679.313 64.5283 679.687 64.4668 680.102 64.4668C680.594 64.4668 681.031 64.5511 681.414 64.7197C681.797 64.8838 682.1 65.1458 682.323 65.5059C682.547 65.8659 682.658 66.333 682.658 66.9072V70.2021C682.658 70.6169 682.679 70.9541 682.72 71.2139C682.765 71.4736 682.831 71.6969 682.918 71.8838V72H680.99C680.904 71.7949 680.838 71.5397 680.792 71.2344C680.751 70.9245 680.73 70.6123 680.73 70.2979ZM680.963 67.4814L680.97 68.6299H680.266C680.083 68.6299 679.924 68.6595 679.787 68.7188C679.655 68.778 679.543 68.8623 679.452 68.9717C679.361 69.0765 679.293 69.1995 679.247 69.3408C679.206 69.4821 679.186 69.6325 679.186 69.792C679.186 69.9697 679.211 70.1201 679.261 70.2432C679.311 70.3662 679.386 70.4596 679.486 70.5234C679.587 70.5872 679.705 70.6191 679.842 70.6191C680.051 70.6191 680.234 70.5758 680.389 70.4893C680.544 70.4027 680.658 70.2979 680.73 70.1748C680.808 70.0518 680.833 69.9378 680.806 69.833L681.243 70.5781C681.188 70.7467 681.113 70.9222 681.018 71.1045C680.926 71.2868 680.81 71.4554 680.669 71.6104C680.528 71.7653 680.352 71.8929 680.143 71.9932C679.938 72.0889 679.694 72.1367 679.411 72.1367C679.015 72.1367 678.652 72.0456 678.324 71.8633C677.996 71.681 677.736 71.4258 677.545 71.0977C677.358 70.7695 677.265 70.3799 677.265 69.9287C677.265 69.555 677.324 69.2178 677.442 68.917C677.565 68.6117 677.748 68.3542 677.989 68.1445C678.231 67.9303 678.536 67.7663 678.905 67.6523C679.274 67.5384 679.707 67.4814 680.204 67.4814H680.963ZM679.09 63.6123L680.43 61.5H682.583L680.696 63.6123H679.09ZM689.132 70.4072V72H684.436V70.4072H689.132ZM689.084 65.7656L685.188 72H683.909V70.7969L687.785 64.6035H689.084V65.7656ZM688.414 64.6035V66.1963H683.984V64.6035H688.414ZM693.664 70.2979V66.8799C693.664 66.6566 693.637 66.4788 693.582 66.3467C693.532 66.2145 693.454 66.1188 693.35 66.0596C693.249 65.9958 693.126 65.9639 692.98 65.9639C692.816 65.9639 692.68 65.998 692.57 66.0664C692.461 66.1348 692.379 66.2327 692.324 66.3604C692.274 66.488 692.249 66.6406 692.249 66.8184H690.328C690.328 66.4993 690.39 66.1986 690.513 65.916C690.636 65.6289 690.816 65.3783 691.053 65.1641C691.294 64.9453 691.581 64.7744 691.914 64.6514C692.247 64.5283 692.62 64.4668 693.035 64.4668C693.527 64.4668 693.965 64.5511 694.348 64.7197C694.73 64.8838 695.034 65.1458 695.257 65.5059C695.48 65.8659 695.592 66.333 695.592 66.9072V70.2021C695.592 70.6169 695.612 70.9541 695.653 71.2139C695.699 71.4736 695.765 71.6969 695.852 71.8838V72H693.924C693.837 71.7949 693.771 71.5397 693.726 71.2344C693.685 70.9245 693.664 70.6123 693.664 70.2979ZM693.896 67.4814L693.903 68.6299H693.199C693.017 68.6299 692.857 68.6595 692.721 68.7188C692.589 68.778 692.477 68.8623 692.386 68.9717C692.295 69.0765 692.226 69.1995 692.181 69.3408C692.14 69.4821 692.119 69.6325 692.119 69.792C692.119 69.9697 692.144 70.1201 692.194 70.2432C692.244 70.3662 692.32 70.4596 692.42 70.5234C692.52 70.5872 692.639 70.6191 692.775 70.6191C692.985 70.6191 693.167 70.5758 693.322 70.4893C693.477 70.4027 693.591 70.2979 693.664 70.1748C693.742 70.0518 693.767 69.9378 693.739 69.833L694.177 70.5781C694.122 70.7467 694.047 70.9222 693.951 71.1045C693.86 71.2868 693.744 71.4554 693.603 71.6104C693.461 71.7653 693.286 71.8929 693.076 71.9932C692.871 72.0889 692.627 72.1367 692.345 72.1367C691.948 72.1367 691.586 72.0456 691.258 71.8633C690.93 71.681 690.67 71.4258 690.479 71.0977C690.292 70.7695 690.198 70.3799 690.198 69.9287C690.198 69.555 690.257 69.2178 690.376 68.917C690.499 68.6117 690.681 68.3542 690.923 68.1445C691.164 67.9303 691.47 67.7663 691.839 67.6523C692.208 67.5384 692.641 67.4814 693.138 67.4814H693.896ZM692.023 63.6123L693.363 61.5H695.517L693.63 63.6123H692.023ZM700.288 70.0039C700.288 69.8763 700.245 69.7624 700.158 69.6621C700.072 69.5618 699.935 69.4593 699.748 69.3545C699.561 69.2451 699.313 69.1243 699.003 68.9922C698.666 68.8555 698.367 68.7142 698.107 68.5684C697.848 68.4225 697.627 68.2607 697.444 68.083C697.267 67.9053 697.132 67.7025 697.041 67.4746C696.95 67.2467 696.904 66.987 696.904 66.6953C696.904 66.3809 696.961 66.0915 697.075 65.8271C697.194 65.5583 697.362 65.3236 697.581 65.123C697.8 64.918 698.066 64.7585 698.381 64.6445C698.7 64.526 699.058 64.4668 699.454 64.4668C700.01 64.4668 700.486 64.5648 700.883 64.7607C701.284 64.9521 701.591 65.221 701.806 65.5674C702.02 65.9137 702.127 66.3171 702.127 66.7773H700.213C700.213 66.6133 700.188 66.4674 700.138 66.3398C700.088 66.2077 700.006 66.1051 699.892 66.0322C699.782 65.9593 699.634 65.9229 699.447 65.9229C699.311 65.9229 699.188 65.9525 699.078 66.0117C698.973 66.071 698.889 66.1507 698.825 66.251C698.766 66.3467 698.736 66.4606 698.736 66.5928C698.736 66.693 698.757 66.7819 698.798 66.8594C698.843 66.9368 698.914 67.012 699.01 67.085C699.105 67.1579 699.233 67.2354 699.393 67.3174C699.557 67.3949 699.757 67.4814 699.994 67.5771C700.486 67.7594 700.89 67.9554 701.204 68.165C701.523 68.3747 701.76 68.6208 701.915 68.9033C702.07 69.1813 702.147 69.5254 702.147 69.9355C702.147 70.2637 702.084 70.5622 701.956 70.8311C701.833 71.0999 701.653 71.3324 701.416 71.5283C701.179 71.7243 700.894 71.8747 700.562 71.9795C700.233 72.0843 699.867 72.1367 699.461 72.1367C698.864 72.1367 698.36 72.0182 697.95 71.7812C697.54 71.5443 697.23 71.2412 697.021 70.8721C696.811 70.4984 696.706 70.111 696.706 69.71H698.524C698.534 69.9561 698.579 70.1497 698.661 70.291C698.748 70.4277 698.864 70.5234 699.01 70.5781C699.156 70.6328 699.317 70.6602 699.495 70.6602C699.673 70.6602 699.819 70.6374 699.933 70.5918C700.051 70.5417 700.14 70.4665 700.199 70.3662C700.258 70.2614 700.288 70.1406 700.288 70.0039Z" fill="url(#paint2_linear_1252_3855)"/>
<path d="M953.724 64.6934H950.593V67.332H954.298V69H948.583V59.0469H954.284V60.7217H950.593V63.0732H953.724V64.6934ZM957.395 69H955.453V58.5H957.395V69ZM960.922 69H958.98V58.5H960.922V69ZM965.406 69.1367C964.413 69.1367 963.638 68.8405 963.082 68.248C962.526 67.6556 962.248 66.8079 962.248 65.7051V65.1172C962.248 63.9505 962.503 63.0505 963.014 62.417C963.524 61.7835 964.256 61.4668 965.208 61.4668C966.138 61.4668 966.837 61.7653 967.307 62.3623C967.776 62.9548 968.015 63.8343 968.024 65.001V65.9512H964.176C964.203 66.498 964.324 66.8991 964.538 67.1543C964.752 67.4049 965.083 67.5303 965.529 67.5303C966.176 67.5303 966.716 67.3092 967.149 66.8672L967.908 68.0361C967.671 68.3643 967.327 68.6309 966.876 68.8359C966.425 69.0365 965.935 69.1367 965.406 69.1367ZM964.189 64.5977H966.124V64.4199C966.115 63.9779 966.042 63.6429 965.905 63.415C965.769 63.1872 965.532 63.0732 965.194 63.0732C964.857 63.0732 964.611 63.194 964.456 63.4355C964.306 63.6771 964.217 64.0645 964.189 64.5977ZM970.889 61.6035L970.943 62.335C971.381 61.7562 971.953 61.4668 972.659 61.4668C973.931 61.4668 974.585 62.3577 974.621 64.1396V69H972.68V64.2832C972.68 63.8639 972.616 63.5609 972.488 63.374C972.365 63.1826 972.146 63.0869 971.832 63.0869C971.481 63.0869 971.208 63.2669 971.012 63.627V69H969.07V61.6035H970.889ZM975.783 65.0625C975.783 63.9414 976.048 63.0618 976.576 62.4238C977.105 61.7858 977.836 61.4668 978.771 61.4668C979.714 61.4668 980.45 61.7858 980.979 62.4238C981.507 63.0618 981.771 63.946 981.771 65.0762V65.5479C981.771 66.6735 981.509 67.5531 980.985 68.1865C980.461 68.82 979.728 69.1367 978.784 69.1367C977.836 69.1367 977.098 68.82 976.569 68.1865C976.045 67.5485 975.783 66.6644 975.783 65.5342V65.0625ZM977.725 65.5479C977.725 66.8695 978.078 67.5303 978.784 67.5303C979.436 67.5303 979.787 66.9788 979.837 65.876L979.844 65.0625C979.844 64.388 979.75 63.889 979.563 63.5654C979.377 63.2373 979.112 63.0732 978.771 63.0732C978.442 63.0732 978.185 63.2373 977.998 63.5654C977.816 63.889 977.725 64.388 977.725 65.0625V65.5479ZM980.254 58.5068H981.942L980.438 60.5645H979.023L980.254 58.5068ZM977.882 58.5068H979.55L978.244 60.5645H976.863L977.882 58.5068ZM986.632 63.4697L985.989 63.415C985.461 63.415 985.103 63.6475 984.916 64.1123V69H982.975V61.6035H984.8L984.854 62.4033C985.16 61.779 985.581 61.4668 986.119 61.4668C986.338 61.4668 986.516 61.4964 986.652 61.5557L986.632 63.4697ZM989.77 67.3936H992.695V69H987.473V67.79L990.33 63.2168H987.541V61.6035H992.654V62.7725L989.77 67.3936ZM996.852 69.1367C995.858 69.1367 995.083 68.8405 994.527 68.248C993.971 67.6556 993.693 66.8079 993.693 65.7051V65.1172C993.693 63.9505 993.949 63.0505 994.459 62.417C994.969 61.7835 995.701 61.4668 996.653 61.4668C997.583 61.4668 998.283 61.7653 998.752 62.3623C999.221 62.9548 999.461 63.8343 999.47 65.001V65.9512H995.621C995.648 66.498 995.769 66.8991 995.983 67.1543C996.198 67.4049 996.528 67.5303 996.975 67.5303C997.622 67.5303 998.162 67.3092 998.595 66.8672L999.354 68.0361C999.117 68.3643 998.772 68.6309 998.321 68.8359C997.87 69.0365 997.38 69.1367 996.852 69.1367ZM995.635 64.5977H997.569V64.4199C997.56 63.9779 997.487 63.6429 997.351 63.415C997.214 63.1872 996.977 63.0732 996.64 63.0732C996.302 63.0732 996.056 63.194 995.901 63.4355C995.751 63.6771 995.662 64.0645 995.635 64.5977ZM996.783 58.5H998.957L997.057 60.6191H995.443L996.783 58.5ZM1003.84 67.0176C1003.84 66.8535 1003.76 66.7031 1003.6 66.5664C1003.44 66.4251 1003.1 66.236 1002.55 65.999C1001.76 65.6755 1001.21 65.3405 1000.91 64.9941C1000.61 64.6478 1000.46 64.2171 1000.46 63.7021C1000.46 63.055 1000.69 62.5218 1001.16 62.1025C1001.63 61.6787 1002.25 61.4668 1003.02 61.4668C1003.83 61.4668 1004.48 61.6764 1004.97 62.0957C1005.45 62.515 1005.7 63.0778 1005.7 63.7842H1003.76C1003.76 63.1826 1003.51 62.8818 1003.01 62.8818C1002.81 62.8818 1002.64 62.9456 1002.5 63.0732C1002.37 63.2008 1002.31 63.3786 1002.31 63.6064C1002.31 63.7705 1002.38 63.9163 1002.53 64.0439C1002.67 64.167 1003.02 64.3447 1003.56 64.5771C1004.35 64.8688 1004.9 65.1947 1005.23 65.5547C1005.55 65.9102 1005.72 66.3727 1005.72 66.9424C1005.72 67.6032 1005.47 68.1341 1004.97 68.5352C1004.48 68.9362 1003.82 69.1367 1003.02 69.1367C1002.48 69.1367 1002 69.0319 1001.58 68.8223C1001.17 68.6081 1000.84 68.3118 1000.6 67.9336C1000.37 67.5553 1000.26 67.1475 1000.26 66.71H1002.09C1002.1 67.0472 1002.18 67.3001 1002.33 67.4688C1002.48 67.6374 1002.72 67.7217 1003.06 67.7217C1003.58 67.7217 1003.84 67.487 1003.84 67.0176ZM953.58 83.1367C952.587 83.1367 951.812 82.8405 951.256 82.248C950.7 81.6556 950.422 80.8079 950.422 79.7051V79.1172C950.422 77.9505 950.677 77.0505 951.188 76.417C951.698 75.7835 952.429 75.4668 953.382 75.4668C954.312 75.4668 955.011 75.7653 955.48 76.3623C955.95 76.9548 956.189 77.8343 956.198 79.001V79.9512H952.35C952.377 80.498 952.498 80.8991 952.712 81.1543C952.926 81.4049 953.257 81.5303 953.703 81.5303C954.35 81.5303 954.89 81.3092 955.323 80.8672L956.082 82.0361C955.845 82.3643 955.501 82.6309 955.05 82.8359C954.599 83.0365 954.109 83.1367 953.58 83.1367ZM952.363 78.5977H954.298V78.4199C954.289 77.9779 954.216 77.6429 954.079 77.415C953.942 77.1872 953.705 77.0732 953.368 77.0732C953.031 77.0732 952.785 77.194 952.63 77.4355C952.479 77.6771 952.391 78.0645 952.363 78.5977ZM953.512 72.5H955.686L953.785 74.6191H952.172L953.512 72.5ZM960.566 81.0176C960.566 80.8535 960.487 80.7031 960.327 80.5664C960.172 80.4251 959.824 80.236 959.281 79.999C958.484 79.6755 957.935 79.3405 957.634 78.9941C957.338 78.6478 957.189 78.2171 957.189 77.7021C957.189 77.055 957.422 76.5218 957.887 76.1025C958.356 75.6787 958.976 75.4668 959.746 75.4668C960.557 75.4668 961.207 75.6764 961.694 76.0957C962.182 76.515 962.426 77.0778 962.426 77.7842H960.491C960.491 77.1826 960.241 76.8818 959.739 76.8818C959.534 76.8818 959.366 76.9456 959.233 77.0732C959.101 77.2008 959.035 77.3786 959.035 77.6064C959.035 77.7705 959.108 77.9163 959.254 78.0439C959.4 78.167 959.744 78.3447 960.286 78.5771C961.075 78.8688 961.631 79.1947 961.954 79.5547C962.282 79.9102 962.446 80.3727 962.446 80.9424C962.446 81.6032 962.198 82.1341 961.701 82.5352C961.204 82.9362 960.553 83.1367 959.746 83.1367C959.204 83.1367 958.725 83.0319 958.311 82.8223C957.896 82.6081 957.57 82.3118 957.333 81.9336C957.101 81.5553 956.984 81.1475 956.984 80.71H958.823C958.832 81.0472 958.91 81.3001 959.056 81.4688C959.206 81.6374 959.45 81.7217 959.787 81.7217C960.307 81.7217 960.566 81.487 960.566 81.0176ZM967.266 83V77.0596H966.37V75.6035H967.266V75.2686C967.275 74.3389 967.528 73.6211 968.024 73.1152C968.526 72.6094 969.239 72.3564 970.164 72.3564C970.697 72.3564 971.351 72.4909 972.126 72.7598L971.846 74.4072C971.29 74.1976 970.772 74.0928 970.294 74.0928C969.578 74.0928 969.216 74.487 969.207 75.2754V75.6035H970.349V77.0596H969.207V83H967.266ZM973.008 83H971.066V75.6035H973.008V83ZM976.658 81.3936H979.584V83H974.361V81.79L977.219 77.2168H974.43V75.6035H979.543V76.7725L976.658 81.3936ZM983.74 83.1367C982.747 83.1367 981.972 82.8405 981.416 82.248C980.86 81.6556 980.582 80.8079 980.582 79.7051V79.1172C980.582 77.9505 980.837 77.0505 981.348 76.417C981.858 75.7835 982.59 75.4668 983.542 75.4668C984.472 75.4668 985.171 75.7653 985.641 76.3623C986.11 76.9548 986.349 77.8343 986.358 79.001V79.9512H982.51C982.537 80.498 982.658 80.8991 982.872 81.1543C983.086 81.4049 983.417 81.5303 983.863 81.5303C984.51 81.5303 985.05 81.3092 985.483 80.8672L986.242 82.0361C986.005 82.3643 985.661 82.6309 985.21 82.8359C984.759 83.0365 984.269 83.1367 983.74 83.1367ZM982.523 78.5977H984.458V78.4199C984.449 77.9779 984.376 77.6429 984.239 77.415C984.103 77.1872 983.866 77.0732 983.528 77.0732C983.191 77.0732 982.945 77.194 982.79 77.4355C982.64 77.6771 982.551 78.0645 982.523 78.5977ZM989.701 73.7852V75.6035H990.692V77.0596H989.701V80.7305C989.701 81.0221 989.74 81.2227 989.817 81.332C989.899 81.4414 990.054 81.4961 990.282 81.4961C990.469 81.4961 990.622 81.4801 990.74 81.4482L990.727 82.9521C990.398 83.0752 990.043 83.1367 989.66 83.1367C988.411 83.1367 987.78 82.4212 987.767 80.9902V77.0596H986.912V75.6035H987.767V73.7852H989.701ZM994.746 83.1367C993.753 83.1367 992.978 82.8405 992.422 82.248C991.866 81.6556 991.588 80.8079 991.588 79.7051V79.1172C991.588 77.9505 991.843 77.0505 992.354 76.417C992.864 75.7835 993.595 75.4668 994.548 75.4668C995.478 75.4668 996.177 75.7653 996.646 76.3623C997.116 76.9548 997.355 77.8343 997.364 79.001V79.9512H993.516C993.543 80.498 993.664 80.8991 993.878 81.1543C994.092 81.4049 994.423 81.5303 994.869 81.5303C995.516 81.5303 996.056 81.3092 996.489 80.8672L997.248 82.0361C997.011 82.3643 996.667 82.6309 996.216 82.8359C995.765 83.0365 995.275 83.1367 994.746 83.1367ZM993.529 78.5977H995.464V78.4199C995.455 77.9779 995.382 77.6429 995.245 77.415C995.108 77.1872 994.871 77.0732 994.534 77.0732C994.197 77.0732 993.951 77.194 993.796 77.4355C993.646 77.6771 993.557 78.0645 993.529 78.5977ZM994.678 72.5H996.852L994.951 74.6191H993.338L994.678 72.5ZM1001.73 81.0176C1001.73 80.8535 1001.65 80.7031 1001.49 80.5664C1001.34 80.4251 1000.99 80.236 1000.45 79.999C999.65 79.6755 999.101 79.3405 998.8 78.9941C998.504 78.6478 998.355 78.2171 998.355 77.7021C998.355 77.055 998.588 76.5218 999.053 76.1025C999.522 75.6787 1000.14 75.4668 1000.91 75.4668C1001.72 75.4668 1002.37 75.6764 1002.86 76.0957C1003.35 76.515 1003.59 77.0778 1003.59 77.7842H1001.66C1001.66 77.1826 1001.41 76.8818 1000.91 76.8818C1000.7 76.8818 1000.53 76.9456 1000.4 77.0732C1000.27 77.2008 1000.2 77.3786 1000.2 77.6064C1000.2 77.7705 1000.27 77.9163 1000.42 78.0439C1000.57 78.167 1000.91 78.3447 1001.45 78.5771C1002.24 78.8688 1002.8 79.1947 1003.12 79.5547C1003.45 79.9102 1003.61 80.3727 1003.61 80.9424C1003.61 81.6032 1003.36 82.1341 1002.87 82.5352C1002.37 82.9362 1001.72 83.1367 1000.91 83.1367C1000.37 83.1367 999.891 83.0319 999.477 82.8223C999.062 82.6081 998.736 82.3118 998.499 81.9336C998.267 81.5553 998.15 81.1475 998.15 80.71H999.989C999.998 81.0472 1000.08 81.3001 1000.22 81.4688C1000.37 81.6374 1000.62 81.7217 1000.95 81.7217C1001.47 81.7217 1001.73 81.487 1001.73 81.0176Z" fill="#E0E0E9"/>
<path fill-rule="evenodd" clip-rule="evenodd" d="M970 33H680V31H970V33Z" fill="#D0CFD7"/>
<path fill-rule="evenodd" clip-rule="evenodd" d="M338 33H45V31H338V33Z" fill="url(#paint3_linear_1252_3855)"/>
<path fill-rule="evenodd" clip-rule="evenodd" d="M656 33H363V31H656V33Z" fill="url(#paint4_linear_1252_3855)"/>
<g filter="url(#filter0_d_1252_3855)">
<path d="M32 17C23.7125 17 17 23.7125 17 32C17 34.8125 17.7875 37.475 19.175 39.725C20.497 41.9468 22.3748 43.7861 24.6236 45.0617C26.8724 46.3373 29.4146 47.0053 32 47C37.475 47 42.2375 44.075 44.825 39.725C46.2125 37.475 47 34.8125 47 32C47 23.7125 40.2875 17 32 17ZM39.3875 30.7625L31.4 38.15C30.875 38.6375 30.1625 38.9 29.4875 38.9C28.775 38.9 28.0625 38.6375 27.5 38.075L23.7875 34.3625C23.2644 33.8332 22.9711 33.1191 22.9711 32.375C22.9711 31.6309 23.2644 30.9168 23.7875 30.3875C24.875 29.3 26.675 29.3 27.7625 30.3875L29.5625 32.1875L35.5625 26.6375C36.6875 25.5875 38.4875 25.6625 39.5375 26.7875C40.5875 27.9125 40.5125 29.7125 39.3875 30.7625Z" fill="url(#paint5_linear_1252_3855)"/>
</g>
<g filter="url(#filter1_d_1252_3855)">
<path d="M349 17C340.712 17 334 23.7125 334 32C334 34.8125 334.788 37.475 336.175 39.725C337.497 41.9468 339.375 43.7861 341.624 45.0617C343.872 46.3373 346.415 47.0053 349 47C354.475 47 359.238 44.075 361.825 39.725C363.212 37.475 364 34.8125 364 32C364 23.7125 357.288 17 349 17ZM356.387 30.7625L348.4 38.15C347.875 38.6375 347.162 38.9 346.487 38.9C345.775 38.9 345.062 38.6375 344.5 38.075L340.787 34.3625C340.264 33.8332 339.971 33.1191 339.971 32.375C339.971 31.6309 340.264 30.9168 340.787 30.3875C341.875 29.3 343.675 29.3 344.762 30.3875L346.562 32.1875L352.562 26.6375C353.688 25.5875 355.488 25.6625 356.538 26.7875C357.588 27.9125 357.512 29.7125 356.387 30.7625Z" fill="url(#paint6_linear_1252_3855)"/>
</g>
<g filter="url(#filter2_d_1252_3855)">
<path d="M670 17C661.712 17 655 23.7125 655 32C655 34.8125 655.788 37.475 657.175 39.725C658.497 41.9468 660.375 43.7861 662.624 45.0617C664.872 46.3373 667.415 47.0053 670 47C675.475 47 680.238 44.075 682.825 39.725C684.212 37.475 685 34.8125 685 32C685 23.7125 678.288 17 670 17ZM677.387 30.7625L669.4 38.15C668.875 38.6375 668.162 38.9 667.487 38.9C666.775 38.9 666.062 38.6375 665.5 38.075L661.787 34.3625C661.264 33.8332 660.971 33.1191 660.971 32.375C660.971 31.6309 661.264 30.9168 661.787 30.3875C662.875 29.3 664.675 29.3 665.762 30.3875L667.562 32.1875L673.562 26.6375C674.688 25.5875 676.488 25.6625 677.538 26.7875C678.588 27.9125 678.512 29.7125 677.387 30.7625Z" fill="url(#paint7_linear_1252_3855)"/>
</g>
<circle cx="976.5" cy="32.5" r="14.5" fill="#D0CFD7"/>
<defs>
<filter id="filter0_d_1252_3855" x="0" y="0" width="74" height="74" filterUnits="userSpaceOnUse" color-interpolation-filters="sRGB">
<feFlood flood-opacity="0" result="BackgroundImageFix"/>
<feColorMatrix in="SourceAlpha" type="matrix" values="0 0 0 0 0 0 0 0 0 0 0 0 0 0 0 0 0 0 127 0" result="hardAlpha"/>
<feOffset dx="5" dy="5"/>
<feGaussianBlur stdDeviation="11"/>
<feComposite in2="hardAlpha" operator="out"/>
<feColorMatrix type="matrix" values="0 0 0 0 0.0392157 0 0 0 0 0.560784 0 0 0 0 0.309804 0 0 0 0.2 0"/>
<feBlend mode="normal" in2="BackgroundImageFix" result="effect1_dropShadow_1252_3855"/>
<feBlend mode="normal" in="SourceGraphic" in2="effect1_dropShadow_1252_3855" result="shape"/>
</filter>
<filter id="filter1_d_1252_3855" x="317" y="0" width="74" height="74" filterUnits="userSpaceOnUse" color-interpolation-filters="sRGB">
<feFlood flood-opacity="0" result="BackgroundImageFix"/>
<feColorMatrix in="SourceAlpha" type="matrix" values="0 0 0 0 0 0 0 0 0 0 0 0 0 0 0 0 0 0 127 0" result="hardAlpha"/>
<feOffset dx="5" dy="5"/>
<feGaussianBlur stdDeviation="11"/>
<feComposite in2="hardAlpha" operator="out"/>
<feColorMatrix type="matrix" values="0 0 0 0 0.0392157 0 0 0 0 0.560784 0 0 0 0 0.309804 0 0 0 0.2 0"/>
<feBlend mode="normal" in2="BackgroundImageFix" result="effect1_dropShadow_1252_3855"/>
<feBlend mode="normal" in="SourceGraphic" in2="effect1_dropShadow_1252_3855" result="shape"/>
</filter>
<filter id="filter2_d_1252_3855" x="638" y="0" width="74" height="74" filterUnits="userSpaceOnUse" color-interpolation-filters="sRGB">
<feFlood flood-opacity="0" result="BackgroundImageFix"/>
<feColorMatrix in="SourceAlpha" type="matrix" values="0 0 0 0 0 0 0 0 0 0 0 0 0 0 0 0 0 0 127 0" result="hardAlpha"/>
<feOffset dx="5" dy="5"/>
<feGaussianBlur stdDeviation="11"/>
<feComposite in2="hardAlpha" operator="out"/>
<feColorMatrix type="matrix" values="0 0 0 0 0.0392157 0 0 0 0 0.560784 0 0 0 0 0.309804 0 0 0 0.2 0"/>
<feBlend mode="normal" in2="BackgroundImageFix" result="effect1_dropShadow_1252_3855"/>
<feBlend mode="normal" in="SourceGraphic" in2="effect1_dropShadow_1252_3855" result="shape"/>
</filter>
<linearGradient id="paint0_linear_1252_3855" x1="32" y1="85" x2="32" y2="57" gradientUnits="userSpaceOnUse">
<stop stop-color="#5CCC94"/>
<stop offset="1" stop-color="#8CCAAE"/>
</linearGradient>
<linearGradient id="paint1_linear_1252_3855" x1="349" y1="77" x2="349" y2="57" gradientUnits="userSpaceOnUse">
<stop stop-color="#5CCC94"/>
<stop offset="1" stop-color="#8CCAAE"/>
</linearGradient>
<linearGradient id="paint2_linear_1252_3855" x1="672.5" y1="77" x2="672.5" y2="57" gradientUnits="userSpaceOnUse">
<stop stop-color="#5CCC94"/>
<stop offset="1" stop-color="#8CCAAE"/>
</linearGradient>
<linearGradient id="paint3_linear_1252_3855" x1="191.5" y1="33" x2="191.5" y2="31" gradientUnits="userSpaceOnUse">
<stop stop-color="#5CCC94"/>
<stop offset="1" stop-color="#8CCAAE"/>
</linearGradient>
<linearGradient id="paint4_linear_1252_3855" x1="509.5" y1="33" x2="509.5" y2="31" gradientUnits="userSpaceOnUse">
<stop stop-color="#5CCC94"/>
<stop offset="1" stop-color="#8CCAAE"/>
</linearGradient>
<linearGradient id="paint5_linear_1252_3855" x1="32" y1="47" x2="32" y2="17" gradientUnits="userSpaceOnUse">
<stop stop-color="#5CCC94"/>
<stop offset="1" stop-color="#8CCAAE"/>
</linearGradient>
<linearGradient id="paint6_linear_1252_3855" x1="349" y1="47" x2="349" y2="17" gradientUnits="userSpaceOnUse">
<stop stop-color="#5CCC94"/>
<stop offset="1" stop-color="#8CCAAE"/>
</linearGradient>
<linearGradient id="paint7_linear_1252_3855" x1="670" y1="47" x2="670" y2="17" gradientUnits="userSpaceOnUse">
<stop stop-color="#5CCC94"/>
<stop offset="1" stop-color="#8CCAAE"/>
</linearGradient>
</defs>
</svg>
