<svg width="1024" height="95" viewBox="0 0 1024 95" fill="none" xmlns="http://www.w3.org/2000/svg">
<path d="M26.668 59.0469V69H24.6787V59.0469H26.668ZM29.1426 59.0469V60.708H22.252V59.0469H29.1426ZM31.5078 68.1523L33.0527 61.6035H35.0488L32.6152 70.1074C32.5605 70.2943 32.4854 70.4948 32.3896 70.709C32.2939 70.9277 32.1663 71.1328 32.0068 71.3242C31.8519 71.5202 31.6559 71.6797 31.4189 71.8027C31.182 71.9258 30.8971 71.9873 30.5645 71.9873C30.3958 71.9873 30.2591 71.9759 30.1543 71.9531C30.054 71.9349 29.9264 71.903 29.7715 71.8574V70.3672C29.8125 70.3672 29.8512 70.3672 29.8877 70.3672C29.9287 70.3717 29.9674 70.374 30.0039 70.374C30.2181 70.374 30.389 70.3444 30.5166 70.2852C30.6442 70.2305 30.7467 70.1439 30.8242 70.0254C30.9062 69.9069 30.9746 69.7588 31.0293 69.5811L31.5078 68.1523ZM31.1113 61.6035L32.2598 66.9082L32.5195 69.0684L31.2275 69.1914L29.0605 61.6035H31.1113ZM37.7969 63.0254V71.8438H35.8896V61.6035H37.6533L37.7969 63.0254ZM41.6387 65.0488V65.541C41.6387 66.1198 41.5885 66.6325 41.4883 67.0791C41.388 67.5212 41.2376 67.8971 41.0371 68.207C40.8411 68.5124 40.5951 68.7448 40.2988 68.9043C40.0026 69.0592 39.6562 69.1367 39.2598 69.1367C38.8906 69.1367 38.5716 69.0501 38.3027 68.877C38.0384 68.6992 37.8151 68.4554 37.6328 68.1455C37.4505 67.8356 37.3047 67.4733 37.1953 67.0586C37.0859 66.6439 37.0016 66.1995 36.9424 65.7256V64.96C36.9971 64.4541 37.0768 63.9893 37.1816 63.5654C37.2865 63.137 37.43 62.7656 37.6123 62.4512C37.7992 62.1367 38.0247 61.8952 38.2891 61.7266C38.5579 61.5534 38.877 61.4668 39.2461 61.4668C39.6471 61.4668 39.9958 61.5397 40.292 61.6855C40.5928 61.8314 40.8411 62.0524 41.0371 62.3486C41.2376 62.6403 41.388 63.0117 41.4883 63.4629C41.5885 63.9141 41.6387 64.4427 41.6387 65.0488ZM39.7246 65.541V65.0488C39.7246 64.6934 39.7041 64.3903 39.6631 64.1396C39.6266 63.889 39.5674 63.6839 39.4854 63.5244C39.4033 63.3649 39.2962 63.2487 39.1641 63.1758C39.0319 63.1029 38.8701 63.0664 38.6787 63.0664C38.4919 63.0664 38.3278 63.1029 38.1865 63.1758C38.0498 63.2487 37.9382 63.3558 37.8516 63.4971C37.765 63.6338 37.6989 63.8024 37.6533 64.0029C37.6077 64.1989 37.5827 64.4222 37.5781 64.6729V66.0127C37.5872 66.3089 37.626 66.571 37.6943 66.7988C37.7673 67.0267 37.8835 67.209 38.043 67.3457C38.2025 67.4779 38.4189 67.5439 38.6924 67.5439C38.8883 67.5439 39.0501 67.5029 39.1777 67.4209C39.3099 67.3389 39.417 67.2158 39.499 67.0518C39.5811 66.8877 39.638 66.6803 39.6699 66.4297C39.7064 66.179 39.7246 65.8828 39.7246 65.541ZM12.7979 77.1826V83H10.877V75.6035H12.6748L12.7979 77.1826ZM12.5107 79.0488L11.998 79.0625C11.9889 78.5065 12.0413 78.0075 12.1553 77.5654C12.2738 77.1234 12.4401 76.7474 12.6543 76.4375C12.873 76.123 13.1328 75.8838 13.4336 75.7197C13.7389 75.5511 14.0785 75.4668 14.4521 75.4668C14.7393 75.4668 15.0013 75.5169 15.2383 75.6172C15.4798 75.7174 15.6872 75.877 15.8604 76.0957C16.0335 76.3145 16.168 76.6061 16.2637 76.9707C16.3594 77.3307 16.4072 77.7728 16.4072 78.2969V83H14.4863V78.2832C14.4863 77.9642 14.4544 77.7181 14.3906 77.5449C14.3268 77.3672 14.2311 77.2441 14.1035 77.1758C13.9759 77.1029 13.8164 77.0664 13.625 77.0664C13.4427 77.0664 13.2809 77.1188 13.1396 77.2236C12.9984 77.3239 12.8799 77.4629 12.7842 77.6406C12.693 77.8184 12.6224 78.028 12.5723 78.2695C12.5267 78.5111 12.5062 78.7708 12.5107 79.0488ZM21.0693 81.2979V77.8799C21.0693 77.6566 21.042 77.4788 20.9873 77.3467C20.9372 77.2145 20.8597 77.1188 20.7549 77.0596C20.6546 76.9958 20.5316 76.9639 20.3857 76.9639C20.2217 76.9639 20.085 76.998 19.9756 77.0664C19.8662 77.1348 19.7842 77.2327 19.7295 77.3604C19.6794 77.488 19.6543 77.6406 19.6543 77.8184H17.7334C17.7334 77.4993 17.7949 77.1986 17.918 76.916C18.041 76.6289 18.221 76.3783 18.458 76.1641C18.6995 75.9453 18.9867 75.7744 19.3193 75.6514C19.652 75.5283 20.0257 75.4668 20.4404 75.4668C20.9326 75.4668 21.3701 75.5511 21.7529 75.7197C22.1357 75.8838 22.4388 76.1458 22.6621 76.5059C22.8854 76.8659 22.9971 77.333 22.9971 77.9072V81.2021C22.9971 81.6169 23.0176 81.9541 23.0586 82.2139C23.1042 82.4736 23.1702 82.6969 23.2568 82.8838V83H21.3291C21.2425 82.7949 21.1764 82.5397 21.1309 82.2344C21.0898 81.9245 21.0693 81.6123 21.0693 81.2979ZM21.3018 78.4814L21.3086 79.6299H20.6045C20.4222 79.6299 20.2627 79.6595 20.126 79.7188C19.9938 79.778 19.8822 79.8623 19.791 79.9717C19.6999 80.0765 19.6315 80.1995 19.5859 80.3408C19.5449 80.4821 19.5244 80.6325 19.5244 80.792C19.5244 80.9697 19.5495 81.1201 19.5996 81.2432C19.6497 81.3662 19.7249 81.4596 19.8252 81.5234C19.9255 81.5872 20.0439 81.6191 20.1807 81.6191C20.3903 81.6191 20.5726 81.5758 20.7275 81.4893C20.8825 81.4027 20.9964 81.2979 21.0693 81.1748C21.1468 81.0518 21.1719 80.9378 21.1445 80.833L21.582 81.5781C21.5273 81.7467 21.4521 81.9222 21.3564 82.1045C21.2653 82.2868 21.1491 82.4554 21.0078 82.6104C20.8665 82.7653 20.6911 82.8929 20.4814 82.9932C20.2764 83.0889 20.0326 83.1367 19.75 83.1367C19.3535 83.1367 18.9912 83.0456 18.6631 82.8633C18.335 82.681 18.0752 82.4258 17.8838 82.0977C17.6969 81.7695 17.6035 81.3799 17.6035 80.9287C17.6035 80.555 17.6628 80.2178 17.7812 79.917C17.9043 79.6117 18.0866 79.3542 18.3281 79.1445C18.5697 78.9303 18.875 78.7663 19.2441 78.6523C19.6133 78.5384 20.0462 78.4814 20.543 78.4814H21.3018ZM19.4287 74.6123L20.7686 72.5H22.9219L21.0352 74.6123H19.4287ZM26.4219 72.5V83H24.501V72.5H26.4219ZM30.9199 83.1367C30.4141 83.1367 29.9652 83.0592 29.5732 82.9043C29.1859 82.7493 28.8577 82.526 28.5889 82.2344C28.32 81.9382 28.1149 81.5804 27.9736 81.1611C27.8324 80.7419 27.7617 80.2633 27.7617 79.7256V79.1172C27.7617 78.5156 27.8301 77.9893 27.9668 77.5381C28.1035 77.0824 28.2972 76.6995 28.5479 76.3896C28.7985 76.0798 29.1061 75.8496 29.4707 75.6992C29.8398 75.5443 30.2568 75.4668 30.7217 75.4668C31.1865 75.4668 31.5944 75.5443 31.9453 75.6992C32.3008 75.8496 32.5947 76.0775 32.8271 76.3828C33.0596 76.6836 33.235 77.0573 33.3535 77.5039C33.472 77.9505 33.5312 78.4701 33.5312 79.0625V79.9375H28.5752V78.5908H31.6514V78.4199C31.6514 78.1191 31.6195 77.8685 31.5557 77.668C31.4919 77.4629 31.3916 77.3102 31.2549 77.21C31.1182 77.1097 30.9359 77.0596 30.708 77.0596C30.5166 77.0596 30.3548 77.0983 30.2227 77.1758C30.0905 77.2533 29.9857 77.374 29.9082 77.5381C29.8307 77.7021 29.7738 77.9163 29.7373 78.1807C29.7008 78.4404 29.6826 78.7526 29.6826 79.1172V79.7256C29.6826 80.0674 29.7122 80.3545 29.7715 80.5869C29.8307 80.8148 29.9173 81.0016 30.0312 81.1475C30.1497 81.2887 30.2933 81.3913 30.4619 81.4551C30.6305 81.5143 30.8265 81.5439 31.0498 81.5439C31.387 81.5439 31.6901 81.4847 31.959 81.3662C32.2324 81.2432 32.4648 81.0768 32.6562 80.8672L33.4219 82.0293C33.2897 82.2025 33.1074 82.3757 32.875 82.5488C32.6426 82.722 32.3646 82.8633 32.041 82.9727C31.7174 83.082 31.3438 83.1367 30.9199 83.1367ZM36.5527 77.0254V85.8438H34.6455V75.6035H36.4092L36.5527 77.0254ZM40.3945 79.0488V79.541C40.3945 80.1198 40.3444 80.6325 40.2441 81.0791C40.1439 81.5212 39.9935 81.8971 39.793 82.207C39.597 82.5124 39.3509 82.7448 39.0547 82.9043C38.7585 83.0592 38.4121 83.1367 38.0156 83.1367C37.6465 83.1367 37.3275 83.0501 37.0586 82.877C36.7943 82.6992 36.571 82.4554 36.3887 82.1455C36.2064 81.8356 36.0605 81.4733 35.9512 81.0586C35.8418 80.6439 35.7575 80.1995 35.6982 79.7256V78.96C35.7529 78.4541 35.8327 77.9893 35.9375 77.5654C36.0423 77.137 36.1859 76.7656 36.3682 76.4512C36.555 76.1367 36.7806 75.8952 37.0449 75.7266C37.3138 75.5534 37.6328 75.4668 38.002 75.4668C38.403 75.4668 38.7516 75.5397 39.0479 75.6855C39.3486 75.8314 39.597 76.0524 39.793 76.3486C39.9935 76.6403 40.1439 77.0117 40.2441 77.4629C40.3444 77.9141 40.3945 78.4427 40.3945 79.0488ZM38.4805 79.541V79.0488C38.4805 78.6934 38.46 78.3903 38.4189 78.1396C38.3825 77.889 38.3232 77.6839 38.2412 77.5244C38.1592 77.3649 38.0521 77.2487 37.9199 77.1758C37.7878 77.1029 37.626 77.0664 37.4346 77.0664C37.2477 77.0664 37.0837 77.1029 36.9424 77.1758C36.8057 77.2487 36.694 77.3558 36.6074 77.4971C36.5208 77.6338 36.4548 77.8024 36.4092 78.0029C36.3636 78.1989 36.3385 78.4222 36.334 78.6729V80.0127C36.3431 80.3089 36.3818 80.571 36.4502 80.7988C36.5231 81.0267 36.6393 81.209 36.7988 81.3457C36.9583 81.4779 37.1748 81.5439 37.4482 81.5439C37.6442 81.5439 37.806 81.5029 37.9336 81.4209C38.0658 81.3389 38.1729 81.2158 38.2549 81.0518C38.3369 80.8877 38.3939 80.6803 38.4258 80.4297C38.4622 80.179 38.4805 79.8828 38.4805 79.541ZM43.4844 72.4932V83H41.5703V72.4932H43.4844ZM47.374 75.6035L44.7695 79.2812L43.2041 81.0381L42.5273 79.582L43.7305 77.8252L45.0908 75.6035H47.374ZM45.3779 83L43.7646 79.6025L45.084 78.3857L47.5723 83H45.3779ZM50.1289 82.1523L51.6738 75.6035H53.6699L51.2363 84.1074C51.1816 84.2943 51.1064 84.4948 51.0107 84.709C50.915 84.9277 50.7874 85.1328 50.6279 85.3242C50.473 85.5202 50.277 85.6797 50.04 85.8027C49.8031 85.9258 49.5182 85.9873 49.1855 85.9873C49.0169 85.9873 48.8802 85.9759 48.7754 85.9531C48.6751 85.9349 48.5475 85.903 48.3926 85.8574V84.3672C48.4336 84.3672 48.4723 84.3672 48.5088 84.3672C48.5498 84.3717 48.5885 84.374 48.625 84.374C48.8392 84.374 49.0101 84.3444 49.1377 84.2852C49.2653 84.2305 49.3678 84.1439 49.4453 84.0254C49.5273 83.9069 49.5957 83.7588 49.6504 83.5811L50.1289 82.1523ZM49.7324 75.6035L50.8809 80.9082L51.1406 83.0684L49.8486 83.1914L47.6816 75.6035H49.7324Z" fill="url(#paint0_linear_1405_1415)"/>
<path d="M311.881 70.3457V72H307.554V70.3457H311.881ZM308.176 62.0469V72H306.173V62.0469H308.176ZM311.3 66.0801V67.6865H307.554V66.0801H311.3ZM311.867 62.0469V63.708H307.554V62.0469H311.867ZM314.957 70.5234L316.146 64.6035H318.143L316.112 72H314.916L314.957 70.5234ZM314.253 64.6035L315.463 70.5303L315.483 72H314.28L312.25 64.6035H314.253ZM321.075 64.6035V72H319.154V64.6035H321.075ZM319.065 62.6895C319.065 62.3932 319.159 62.1494 319.346 61.958C319.537 61.762 319.792 61.6641 320.111 61.6641C320.435 61.6641 320.69 61.762 320.877 61.958C321.064 62.1494 321.157 62.3932 321.157 62.6895C321.157 62.9811 321.062 63.2249 320.87 63.4209C320.683 63.6123 320.433 63.708 320.118 63.708C319.795 63.708 319.537 63.6123 319.346 63.4209C319.159 63.2249 319.065 62.9811 319.065 62.6895ZM326.175 70.3662V61.5H328.096V72L326.359 72.0068L326.175 70.3662ZM322.34 68.5615V68.0693C322.34 67.4678 322.39 66.9414 322.49 66.4902C322.595 66.0391 322.75 65.6631 322.955 65.3623C323.16 65.0615 323.411 64.8382 323.707 64.6924C324.008 64.542 324.352 64.4668 324.739 64.4668C325.09 64.4668 325.398 64.5557 325.662 64.7334C325.931 64.9066 326.159 65.1504 326.346 65.4648C326.533 65.7793 326.683 66.1507 326.797 66.5791C326.911 67.0075 326.991 67.4769 327.036 67.9873V68.6982C326.981 69.1813 326.897 69.6325 326.783 70.0518C326.674 70.471 326.523 70.8356 326.332 71.1455C326.145 71.4554 325.92 71.6992 325.655 71.877C325.391 72.0501 325.083 72.1367 324.732 72.1367C324.345 72.1367 324.001 72.0592 323.7 71.9043C323.404 71.7493 323.153 71.5215 322.948 71.2207C322.748 70.9154 322.595 70.5417 322.49 70.0996C322.39 69.653 322.34 69.1403 322.34 68.5615ZM324.254 68.0693V68.5615C324.254 68.9079 324.27 69.2064 324.302 69.457C324.338 69.7031 324.395 69.9059 324.473 70.0654C324.555 70.2204 324.662 70.3366 324.794 70.4141C324.926 70.487 325.09 70.5234 325.286 70.5234C325.541 70.5234 325.749 70.4596 325.908 70.332C326.068 70.1999 326.186 70.0199 326.264 69.792C326.346 69.5596 326.391 69.293 326.4 68.9922V67.7002C326.391 67.4495 326.362 67.224 326.312 67.0234C326.261 66.8229 326.191 66.652 326.1 66.5107C326.008 66.3695 325.895 66.2601 325.758 66.1826C325.626 66.1051 325.471 66.0664 325.293 66.0664C325.102 66.0664 324.938 66.1051 324.801 66.1826C324.669 66.2601 324.564 66.3809 324.486 66.5449C324.409 66.7044 324.35 66.9118 324.309 67.167C324.272 67.4176 324.254 67.7184 324.254 68.0693ZM332.519 72.1367C332.013 72.1367 331.564 72.0592 331.172 71.9043C330.785 71.7493 330.456 71.526 330.188 71.2344C329.919 70.9382 329.714 70.5804 329.572 70.1611C329.431 69.7419 329.36 69.2633 329.36 68.7256V68.1172C329.36 67.5156 329.429 66.9893 329.565 66.5381C329.702 66.0824 329.896 65.6995 330.146 65.3896C330.397 65.0798 330.705 64.8496 331.069 64.6992C331.438 64.5443 331.855 64.4668 332.32 64.4668C332.785 64.4668 333.193 64.5443 333.544 64.6992C333.899 64.8496 334.193 65.0775 334.426 65.3828C334.658 65.6836 334.834 66.0573 334.952 66.5039C335.071 66.9505 335.13 67.4701 335.13 68.0625V68.9375H330.174V67.5908H333.25V67.4199C333.25 67.1191 333.218 66.8685 333.154 66.668C333.09 66.4629 332.99 66.3102 332.854 66.21C332.717 66.1097 332.535 66.0596 332.307 66.0596C332.115 66.0596 331.953 66.0983 331.821 66.1758C331.689 66.2533 331.584 66.374 331.507 66.5381C331.429 66.7021 331.372 66.9163 331.336 67.1807C331.299 67.4404 331.281 67.7526 331.281 68.1172V68.7256C331.281 69.0674 331.311 69.3545 331.37 69.5869C331.429 69.8148 331.516 70.0016 331.63 70.1475C331.748 70.2887 331.892 70.3913 332.061 70.4551C332.229 70.5143 332.425 70.5439 332.648 70.5439C332.986 70.5439 333.289 70.4847 333.558 70.3662C333.831 70.2432 334.063 70.0768 334.255 69.8672L335.021 71.0293C334.888 71.2025 334.706 71.3757 334.474 71.5488C334.241 71.722 333.963 71.8633 333.64 71.9727C333.316 72.082 332.942 72.1367 332.519 72.1367ZM338.117 66.1826V72H336.196V64.6035H337.994L338.117 66.1826ZM337.83 68.0488L337.317 68.0625C337.308 67.5065 337.361 67.0075 337.475 66.5654C337.593 66.1234 337.759 65.7474 337.974 65.4375C338.192 65.123 338.452 64.8838 338.753 64.7197C339.058 64.5511 339.398 64.4668 339.771 64.4668C340.059 64.4668 340.321 64.5169 340.558 64.6172C340.799 64.7174 341.007 64.877 341.18 65.0957C341.353 65.3145 341.487 65.6061 341.583 65.9707C341.679 66.3307 341.727 66.7728 341.727 67.2969V72H339.806V67.2832C339.806 66.9642 339.774 66.7181 339.71 66.5449C339.646 66.3672 339.55 66.2441 339.423 66.1758C339.295 66.1029 339.136 66.0664 338.944 66.0664C338.762 66.0664 338.6 66.1188 338.459 66.2236C338.318 66.3239 338.199 66.4629 338.104 66.6406C338.012 66.8184 337.942 67.028 337.892 67.2695C337.846 67.5111 337.826 67.7708 337.83 68.0488ZM345.801 70.5439C345.979 70.5439 346.131 70.5075 346.259 70.4346C346.391 70.3617 346.491 70.2432 346.56 70.0791C346.628 69.915 346.664 69.7031 346.669 69.4434H348.467C348.467 69.9993 348.348 70.4801 348.111 70.8857C347.879 71.2868 347.564 71.5967 347.168 71.8154C346.776 72.0296 346.332 72.1367 345.835 72.1367C345.338 72.1367 344.905 72.057 344.536 71.8975C344.167 71.738 343.862 71.5055 343.62 71.2002C343.383 70.8949 343.203 70.5234 343.08 70.0859C342.962 69.6439 342.902 69.138 342.902 68.5684V68.0283C342.902 67.4678 342.962 66.9665 343.08 66.5244C343.203 66.0824 343.383 65.7087 343.62 65.4033C343.862 65.098 344.165 64.8656 344.529 64.7061C344.898 64.5465 345.331 64.4668 345.828 64.4668C346.361 64.4668 346.824 64.5785 347.216 64.8018C347.608 65.0205 347.913 65.3441 348.132 65.7725C348.355 66.2008 348.467 66.7295 348.467 67.3584H346.669C346.664 67.0758 346.63 66.8411 346.566 66.6543C346.507 66.4629 346.414 66.3171 346.286 66.2168C346.163 66.112 345.999 66.0596 345.794 66.0596C345.58 66.0596 345.407 66.1051 345.274 66.1963C345.147 66.2829 345.049 66.4105 344.98 66.5791C344.917 66.7432 344.873 66.9482 344.851 67.1943C344.828 67.4404 344.816 67.7184 344.816 68.0283V68.5684C344.816 68.901 344.826 69.1904 344.844 69.4365C344.867 69.6781 344.91 69.8831 344.974 70.0518C345.042 70.2158 345.14 70.3389 345.268 70.4209C345.4 70.5029 345.577 70.5439 345.801 70.5439ZM344.816 61.4932L345.603 62.4639L346.396 61.4932H348.022V61.5615L346.204 63.4824H345.021L343.189 61.5547V61.4932H344.816ZM351.447 66.1826V72H349.526V64.6035H351.324L351.447 66.1826ZM351.16 68.0488L350.647 68.0625C350.638 67.5065 350.691 67.0075 350.805 66.5654C350.923 66.1234 351.09 65.7474 351.304 65.4375C351.522 65.123 351.782 64.8838 352.083 64.7197C352.388 64.5511 352.728 64.4668 353.102 64.4668C353.389 64.4668 353.651 64.5169 353.888 64.6172C354.129 64.7174 354.337 64.877 354.51 65.0957C354.683 65.3145 354.817 65.6061 354.913 65.9707C355.009 66.3307 355.057 66.7728 355.057 67.2969V72H353.136V67.2832C353.136 66.9642 353.104 66.7181 353.04 66.5449C352.976 66.3672 352.881 66.2441 352.753 66.1758C352.625 66.1029 352.466 66.0664 352.274 66.0664C352.092 66.0664 351.93 66.1188 351.789 66.2236C351.648 66.3239 351.529 66.4629 351.434 66.6406C351.342 66.8184 351.272 67.028 351.222 67.2695C351.176 67.5111 351.156 67.7708 351.16 68.0488ZM359.438 72.1367C358.933 72.1367 358.484 72.0592 358.092 71.9043C357.704 71.7493 357.376 71.526 357.107 71.2344C356.839 70.9382 356.633 70.5804 356.492 70.1611C356.351 69.7419 356.28 69.2633 356.28 68.7256V68.1172C356.28 67.5156 356.349 66.9893 356.485 66.5381C356.622 66.0824 356.816 65.6995 357.066 65.3896C357.317 65.0798 357.625 64.8496 357.989 64.6992C358.358 64.5443 358.775 64.4668 359.24 64.4668C359.705 64.4668 360.113 64.5443 360.464 64.6992C360.819 64.8496 361.113 65.0775 361.346 65.3828C361.578 65.6836 361.754 66.0573 361.872 66.5039C361.991 66.9505 362.05 67.4701 362.05 68.0625V68.9375H357.094V67.5908H360.17V67.4199C360.17 67.1191 360.138 66.8685 360.074 66.668C360.01 66.4629 359.91 66.3102 359.773 66.21C359.637 66.1097 359.454 66.0596 359.227 66.0596C359.035 66.0596 358.873 66.0983 358.741 66.1758C358.609 66.2533 358.504 66.374 358.427 66.5381C358.349 66.7021 358.292 66.9163 358.256 67.1807C358.219 67.4404 358.201 67.7526 358.201 68.1172V68.7256C358.201 69.0674 358.231 69.3545 358.29 69.5869C358.349 69.8148 358.436 70.0016 358.55 70.1475C358.668 70.2887 358.812 70.3913 358.98 70.4551C359.149 70.5143 359.345 70.5439 359.568 70.5439C359.906 70.5439 360.209 70.4847 360.478 70.3662C360.751 70.2432 360.983 70.0768 361.175 69.8672L361.94 71.0293C361.808 71.2025 361.626 71.3757 361.394 71.5488C361.161 71.722 360.883 71.8633 360.56 71.9727C360.236 72.082 359.862 72.1367 359.438 72.1367ZM358.044 63.6055L359.384 61.4932H361.537L359.65 63.6055H358.044ZM369.057 70.5439C369.234 70.5439 369.387 70.5075 369.515 70.4346C369.647 70.3617 369.747 70.2432 369.815 70.0791C369.884 69.915 369.92 69.7031 369.925 69.4434H371.723C371.723 69.9993 371.604 70.4801 371.367 70.8857C371.135 71.2868 370.82 71.5967 370.424 71.8154C370.032 72.0296 369.588 72.1367 369.091 72.1367C368.594 72.1367 368.161 72.057 367.792 71.8975C367.423 71.738 367.118 71.5055 366.876 71.2002C366.639 70.8949 366.459 70.5234 366.336 70.0859C366.217 69.6439 366.158 69.138 366.158 68.5684V68.0283C366.158 67.4678 366.217 66.9665 366.336 66.5244C366.459 66.0824 366.639 65.7087 366.876 65.4033C367.118 65.098 367.421 64.8656 367.785 64.7061C368.154 64.5465 368.587 64.4668 369.084 64.4668C369.617 64.4668 370.08 64.5785 370.472 64.8018C370.864 65.0205 371.169 65.3441 371.388 65.7725C371.611 66.2008 371.723 66.7295 371.723 67.3584H369.925C369.92 67.0758 369.886 66.8411 369.822 66.6543C369.763 66.4629 369.67 66.3171 369.542 66.2168C369.419 66.112 369.255 66.0596 369.05 66.0596C368.836 66.0596 368.662 66.1051 368.53 66.1963C368.403 66.2829 368.305 66.4105 368.236 66.5791C368.173 66.7432 368.129 66.9482 368.106 67.1943C368.084 67.4404 368.072 67.7184 368.072 68.0283V68.5684C368.072 68.901 368.081 69.1904 368.1 69.4365C368.122 69.6781 368.166 69.8831 368.229 70.0518C368.298 70.2158 368.396 70.3389 368.523 70.4209C368.656 70.5029 368.833 70.5439 369.057 70.5439ZM368.072 61.4932L368.858 62.4639L369.651 61.4932H371.278V61.5615L369.46 63.4824H368.277L366.445 61.5547V61.4932H368.072ZM374.888 64.6035V72H372.967V64.6035H374.888ZM373.001 63.7217L374.341 61.6094H376.494L374.607 63.7217H373.001ZM379.769 70.0039C379.769 69.8763 379.725 69.7624 379.639 69.6621C379.552 69.5618 379.415 69.4593 379.229 69.3545C379.042 69.2451 378.793 69.1243 378.483 68.9922C378.146 68.8555 377.848 68.7142 377.588 68.5684C377.328 68.4225 377.107 68.2607 376.925 68.083C376.747 67.9053 376.613 67.7025 376.521 67.4746C376.43 67.2467 376.385 66.987 376.385 66.6953C376.385 66.3809 376.442 66.0915 376.556 65.8271C376.674 65.5583 376.843 65.3236 377.062 65.123C377.28 64.918 377.547 64.7585 377.861 64.6445C378.18 64.526 378.538 64.4668 378.935 64.4668C379.491 64.4668 379.967 64.5648 380.363 64.7607C380.764 64.9521 381.072 65.221 381.286 65.5674C381.5 65.9137 381.607 66.3171 381.607 66.7773H379.693C379.693 66.6133 379.668 66.4674 379.618 66.3398C379.568 66.2077 379.486 66.1051 379.372 66.0322C379.263 65.9593 379.115 65.9229 378.928 65.9229C378.791 65.9229 378.668 65.9525 378.559 66.0117C378.454 66.071 378.369 66.1507 378.306 66.251C378.246 66.3467 378.217 66.4606 378.217 66.5928C378.217 66.693 378.237 66.7819 378.278 66.8594C378.324 66.9368 378.395 67.012 378.49 67.085C378.586 67.1579 378.714 67.2354 378.873 67.3174C379.037 67.3949 379.238 67.4814 379.475 67.5771C379.967 67.7594 380.37 67.9554 380.685 68.165C381.004 68.3747 381.241 68.6208 381.396 68.9033C381.55 69.1813 381.628 69.5254 381.628 69.9355C381.628 70.2637 381.564 70.5622 381.437 70.8311C381.313 71.0999 381.133 71.3324 380.896 71.5283C380.66 71.7243 380.375 71.8747 380.042 71.9795C379.714 72.0843 379.347 72.1367 378.941 72.1367C378.344 72.1367 377.841 72.0182 377.431 71.7812C377.021 71.5443 376.711 71.2412 376.501 70.8721C376.291 70.4984 376.187 70.111 376.187 69.71H378.005C378.014 69.9561 378.06 70.1497 378.142 70.291C378.228 70.4277 378.344 70.5234 378.49 70.5781C378.636 70.6328 378.798 70.6602 378.976 70.6602C379.153 70.6602 379.299 70.6374 379.413 70.5918C379.532 70.5417 379.62 70.4665 379.68 70.3662C379.739 70.2614 379.769 70.1406 379.769 70.0039ZM384.854 61.5V72H382.934V61.5H384.854ZM386.153 68.5547V68.0557C386.153 67.4769 386.222 66.9642 386.358 66.5176C386.5 66.071 386.7 65.6973 386.96 65.3965C387.22 65.0911 387.532 64.861 387.896 64.7061C388.266 64.5465 388.678 64.4668 389.134 64.4668C389.594 64.4668 390.007 64.5465 390.371 64.7061C390.74 64.861 391.055 65.0911 391.314 65.3965C391.579 65.6973 391.782 66.071 391.923 66.5176C392.064 66.9642 392.135 67.4769 392.135 68.0557V68.5547C392.135 69.1289 392.064 69.6393 391.923 70.0859C391.782 70.5326 391.579 70.9085 391.314 71.2139C391.055 71.5192 390.743 71.7493 390.378 71.9043C390.013 72.0592 389.603 72.1367 389.147 72.1367C388.692 72.1367 388.279 72.0592 387.91 71.9043C387.546 71.7493 387.231 71.5192 386.967 71.2139C386.702 70.9085 386.5 70.5326 386.358 70.0859C386.222 69.6393 386.153 69.1289 386.153 68.5547ZM388.067 68.0557V68.5547C388.067 68.8965 388.09 69.1927 388.136 69.4434C388.186 69.694 388.257 69.9014 388.348 70.0654C388.443 70.2295 388.557 70.3503 388.689 70.4277C388.822 70.5052 388.974 70.5439 389.147 70.5439C389.321 70.5439 389.476 70.5052 389.612 70.4277C389.749 70.3503 389.861 70.2295 389.947 70.0654C390.038 69.9014 390.104 69.694 390.146 69.4434C390.191 69.1927 390.214 68.8965 390.214 68.5547V68.0557C390.214 67.723 390.189 67.4313 390.139 67.1807C390.089 66.9255 390.018 66.7181 389.927 66.5586C389.836 66.3945 389.722 66.2715 389.585 66.1895C389.453 66.1029 389.302 66.0596 389.134 66.0596C388.965 66.0596 388.815 66.1029 388.683 66.1895C388.555 66.2715 388.443 66.3945 388.348 66.5586C388.257 66.7181 388.186 66.9255 388.136 67.1807C388.09 67.4313 388.067 67.723 388.067 68.0557Z" fill="url(#paint1_linear_1405_1415)"/>
<path d="M646.045 62.0469V72H644.042V62.0469H646.045ZM649.162 66.2783V67.9326H645.539V66.2783H649.162ZM649.545 62.0469V63.708H645.539V62.0469H649.545ZM653.646 70.2979V66.8799C653.646 66.6566 653.619 66.4788 653.564 66.3467C653.514 66.2145 653.437 66.1188 653.332 66.0596C653.232 65.9958 653.109 65.9639 652.963 65.9639C652.799 65.9639 652.662 65.998 652.553 66.0664C652.443 66.1348 652.361 66.2327 652.307 66.3604C652.257 66.488 652.231 66.6406 652.231 66.8184H650.311C650.311 66.4993 650.372 66.1986 650.495 65.916C650.618 65.6289 650.798 65.3783 651.035 65.1641C651.277 64.9453 651.564 64.7744 651.896 64.6514C652.229 64.5283 652.603 64.4668 653.018 64.4668C653.51 64.4668 653.947 64.5511 654.33 64.7197C654.713 64.8838 655.016 65.1458 655.239 65.5059C655.463 65.8659 655.574 66.333 655.574 66.9072V70.2021C655.574 70.6169 655.595 70.9541 655.636 71.2139C655.681 71.4736 655.747 71.6969 655.834 71.8838V72H653.906C653.82 71.7949 653.754 71.5397 653.708 71.2344C653.667 70.9245 653.646 70.6123 653.646 70.2979ZM653.879 67.4814L653.886 68.6299H653.182C652.999 68.6299 652.84 68.6595 652.703 68.7188C652.571 68.778 652.459 68.8623 652.368 68.9717C652.277 69.0765 652.209 69.1995 652.163 69.3408C652.122 69.4821 652.102 69.6325 652.102 69.792C652.102 69.9697 652.127 70.1201 652.177 70.2432C652.227 70.3662 652.302 70.4596 652.402 70.5234C652.503 70.5872 652.621 70.6191 652.758 70.6191C652.967 70.6191 653.15 70.5758 653.305 70.4893C653.46 70.4027 653.574 70.2979 653.646 70.1748C653.724 70.0518 653.749 69.9378 653.722 69.833L654.159 70.5781C654.104 70.7467 654.029 70.9222 653.934 71.1045C653.842 71.2868 653.726 71.4554 653.585 71.6104C653.444 71.7653 653.268 71.8929 653.059 71.9932C652.854 72.0889 652.61 72.1367 652.327 72.1367C651.931 72.1367 651.568 72.0456 651.24 71.8633C650.912 71.681 650.652 71.4258 650.461 71.0977C650.274 70.7695 650.181 70.3799 650.181 69.9287C650.181 69.555 650.24 69.2178 650.358 68.917C650.481 68.6117 650.664 68.3542 650.905 68.1445C651.147 67.9303 651.452 67.7663 651.821 67.6523C652.19 67.5384 652.623 67.4814 653.12 67.4814H653.879ZM658.903 61.4932V72H656.989V61.4932H658.903ZM662.793 64.6035L660.188 68.2812L658.623 70.0381L657.946 68.582L659.149 66.8252L660.51 64.6035H662.793ZM660.797 72L659.184 68.6025L660.503 67.3857L662.991 72H660.797ZM666.915 64.6035V66.0459H663.142V64.6035H666.915ZM664.01 62.7783H665.917V69.7441C665.917 69.9492 665.938 70.1064 665.979 70.2158C666.02 70.3252 666.081 70.4027 666.163 70.4482C666.25 70.4893 666.364 70.5098 666.505 70.5098C666.601 70.5098 666.689 70.5052 666.771 70.4961C666.854 70.4824 666.915 70.4688 666.956 70.4551V71.9521C666.806 72.0114 666.646 72.057 666.478 72.0889C666.313 72.1208 666.118 72.1367 665.89 72.1367C665.507 72.1367 665.174 72.0638 664.892 71.918C664.614 71.7721 664.397 71.5397 664.242 71.2207C664.087 70.8971 664.01 70.4733 664.01 69.9492V62.7783ZM671.557 70.2227V64.6035H673.478V72H671.673L671.557 70.2227ZM671.775 68.6982L672.309 68.6846C672.309 69.1813 672.261 69.6416 672.165 70.0654C672.069 70.4847 671.926 70.8493 671.734 71.1592C671.543 71.4691 671.304 71.7106 671.017 71.8838C670.729 72.0524 670.39 72.1367 669.998 72.1367C669.697 72.1367 669.419 72.0866 669.164 71.9863C668.913 71.8815 668.697 71.7197 668.515 71.501C668.332 71.2777 668.189 70.9928 668.084 70.6465C667.984 70.2956 667.934 69.874 667.934 69.3818V64.6035H669.854V69.4023C669.854 69.6029 669.873 69.776 669.909 69.9219C669.946 70.0632 669.996 70.1794 670.06 70.2705C670.123 70.3617 670.199 70.4277 670.285 70.4688C670.372 70.5052 670.47 70.5234 670.579 70.5234C670.88 70.5234 671.117 70.446 671.29 70.291C671.468 70.1315 671.593 69.915 671.666 69.6416C671.739 69.3636 671.775 69.0492 671.775 68.6982ZM676.786 66.251V72H674.872V64.6035H676.677L676.786 66.251ZM678.529 64.5488L678.502 66.4561C678.415 66.4378 678.311 66.4242 678.188 66.415C678.069 66.4059 677.964 66.4014 677.873 66.4014C677.659 66.4014 677.477 66.4355 677.326 66.5039C677.176 66.5677 677.05 66.6657 676.95 66.7979C676.854 66.9255 676.782 67.085 676.731 67.2764C676.681 67.4678 676.652 67.6842 676.643 67.9258L676.28 67.7891C676.28 67.306 676.317 66.8639 676.39 66.4629C676.467 66.0573 676.581 65.7064 676.731 65.4102C676.882 65.1094 677.062 64.877 677.271 64.7129C677.486 64.5488 677.727 64.4668 677.996 64.4668C678.087 64.4668 678.183 64.4759 678.283 64.4941C678.388 64.5078 678.47 64.526 678.529 64.5488ZM682.562 70.2979V66.8799C682.562 66.6566 682.535 66.4788 682.48 66.3467C682.43 66.2145 682.353 66.1188 682.248 66.0596C682.148 65.9958 682.025 65.9639 681.879 65.9639C681.715 65.9639 681.578 65.998 681.469 66.0664C681.359 66.1348 681.277 66.2327 681.223 66.3604C681.173 66.488 681.147 66.6406 681.147 66.8184H679.227C679.227 66.4993 679.288 66.1986 679.411 65.916C679.534 65.6289 679.714 65.3783 679.951 65.1641C680.193 64.9453 680.48 64.7744 680.812 64.6514C681.145 64.5283 681.519 64.4668 681.934 64.4668C682.426 64.4668 682.863 64.5511 683.246 64.7197C683.629 64.8838 683.932 65.1458 684.155 65.5059C684.379 65.8659 684.49 66.333 684.49 66.9072V70.2021C684.49 70.6169 684.511 70.9541 684.552 71.2139C684.597 71.4736 684.663 71.6969 684.75 71.8838V72H682.822C682.736 71.7949 682.67 71.5397 682.624 71.2344C682.583 70.9245 682.562 70.6123 682.562 70.2979ZM682.795 67.4814L682.802 68.6299H682.098C681.915 68.6299 681.756 68.6595 681.619 68.7188C681.487 68.778 681.375 68.8623 681.284 68.9717C681.193 69.0765 681.125 69.1995 681.079 69.3408C681.038 69.4821 681.018 69.6325 681.018 69.792C681.018 69.9697 681.043 70.1201 681.093 70.2432C681.143 70.3662 681.218 70.4596 681.318 70.5234C681.419 70.5872 681.537 70.6191 681.674 70.6191C681.883 70.6191 682.066 70.5758 682.221 70.4893C682.376 70.4027 682.49 70.2979 682.562 70.1748C682.64 70.0518 682.665 69.9378 682.638 69.833L683.075 70.5781C683.021 70.7467 682.945 70.9222 682.85 71.1045C682.758 71.2868 682.642 71.4554 682.501 71.6104C682.36 71.7653 682.184 71.8929 681.975 71.9932C681.77 72.0889 681.526 72.1367 681.243 72.1367C680.847 72.1367 680.484 72.0456 680.156 71.8633C679.828 71.681 679.568 71.4258 679.377 71.0977C679.19 70.7695 679.097 70.3799 679.097 69.9287C679.097 69.555 679.156 69.2178 679.274 68.917C679.397 68.6117 679.58 68.3542 679.821 68.1445C680.063 67.9303 680.368 67.7663 680.737 67.6523C681.106 67.5384 681.539 67.4814 682.036 67.4814H682.795ZM680.922 63.6123L682.262 61.5H684.415L682.528 63.6123H680.922ZM688.578 70.5439C688.756 70.5439 688.909 70.5075 689.036 70.4346C689.168 70.3617 689.269 70.2432 689.337 70.0791C689.405 69.915 689.442 69.7031 689.446 69.4434H691.244C691.244 69.9993 691.126 70.4801 690.889 70.8857C690.656 71.2868 690.342 71.5967 689.945 71.8154C689.553 72.0296 689.109 72.1367 688.612 72.1367C688.116 72.1367 687.683 72.057 687.313 71.8975C686.944 71.738 686.639 71.5055 686.397 71.2002C686.16 70.8949 685.98 70.5234 685.857 70.0859C685.739 69.6439 685.68 69.138 685.68 68.5684V68.0283C685.68 67.4678 685.739 66.9665 685.857 66.5244C685.98 66.0824 686.16 65.7087 686.397 65.4033C686.639 65.098 686.942 64.8656 687.307 64.7061C687.676 64.5465 688.109 64.4668 688.605 64.4668C689.139 64.4668 689.601 64.5785 689.993 64.8018C690.385 65.0205 690.69 65.3441 690.909 65.7725C691.132 66.2008 691.244 66.7295 691.244 67.3584H689.446C689.442 67.0758 689.408 66.8411 689.344 66.6543C689.285 66.4629 689.191 66.3171 689.063 66.2168C688.94 66.112 688.776 66.0596 688.571 66.0596C688.357 66.0596 688.184 66.1051 688.052 66.1963C687.924 66.2829 687.826 66.4105 687.758 66.5791C687.694 66.7432 687.651 66.9482 687.628 67.1943C687.605 67.4404 687.594 67.7184 687.594 68.0283V68.5684C687.594 68.901 687.603 69.1904 687.621 69.4365C687.644 69.6781 687.687 69.8831 687.751 70.0518C687.819 70.2158 687.917 70.3389 688.045 70.4209C688.177 70.5029 688.355 70.5439 688.578 70.5439ZM694.354 64.6035V72H692.434V64.6035H694.354ZM692.345 62.6895C692.345 62.3932 692.438 62.1494 692.625 61.958C692.816 61.762 693.072 61.6641 693.391 61.6641C693.714 61.6641 693.969 61.762 694.156 61.958C694.343 62.1494 694.437 62.3932 694.437 62.6895C694.437 62.9811 694.341 63.2249 694.149 63.4209C693.963 63.6123 693.712 63.708 693.397 63.708C693.074 63.708 692.816 63.6123 692.625 63.4209C692.438 63.2249 692.345 62.9811 692.345 62.6895ZM699.133 70.2979V66.8799C699.133 66.6566 699.105 66.4788 699.051 66.3467C699.001 66.2145 698.923 66.1188 698.818 66.0596C698.718 65.9958 698.595 65.9639 698.449 65.9639C698.285 65.9639 698.148 65.998 698.039 66.0664C697.93 66.1348 697.848 66.2327 697.793 66.3604C697.743 66.488 697.718 66.6406 697.718 66.8184H695.797C695.797 66.4993 695.858 66.1986 695.981 65.916C696.104 65.6289 696.285 65.3783 696.521 65.1641C696.763 64.9453 697.05 64.7744 697.383 64.6514C697.715 64.5283 698.089 64.4668 698.504 64.4668C698.996 64.4668 699.434 64.5511 699.816 64.7197C700.199 64.8838 700.502 65.1458 700.726 65.5059C700.949 65.8659 701.061 66.333 701.061 66.9072V70.2021C701.061 70.6169 701.081 70.9541 701.122 71.2139C701.168 71.4736 701.234 71.6969 701.32 71.8838V72H699.393C699.306 71.7949 699.24 71.5397 699.194 71.2344C699.153 70.9245 699.133 70.6123 699.133 70.2979ZM699.365 67.4814L699.372 68.6299H698.668C698.486 68.6299 698.326 68.6595 698.189 68.7188C698.057 68.778 697.946 68.8623 697.854 68.9717C697.763 69.0765 697.695 69.1995 697.649 69.3408C697.608 69.4821 697.588 69.6325 697.588 69.792C697.588 69.9697 697.613 70.1201 697.663 70.2432C697.713 70.3662 697.788 70.4596 697.889 70.5234C697.989 70.5872 698.107 70.6191 698.244 70.6191C698.454 70.6191 698.636 70.5758 698.791 70.4893C698.946 70.4027 699.06 70.2979 699.133 70.1748C699.21 70.0518 699.235 69.9378 699.208 69.833L699.646 70.5781C699.591 70.7467 699.516 70.9222 699.42 71.1045C699.329 71.2868 699.213 71.4554 699.071 71.6104C698.93 71.7653 698.755 71.8929 698.545 71.9932C698.34 72.0889 698.096 72.1367 697.813 72.1367C697.417 72.1367 697.055 72.0456 696.727 71.8633C696.398 71.681 696.139 71.4258 695.947 71.0977C695.76 70.7695 695.667 70.3799 695.667 69.9287C695.667 69.555 695.726 69.2178 695.845 68.917C695.968 68.6117 696.15 68.3542 696.392 68.1445C696.633 67.9303 696.938 67.7663 697.308 67.6523C697.677 67.5384 698.11 67.4814 698.606 67.4814H699.365Z" fill="url(#paint2_linear_1405_1415)"/>
<path d="M953.79 60.0469V70H951.787V60.0469H953.79ZM958.732 60.0469L955.506 64.9893L953.53 67.4502L953.147 65.4473L954.426 63.3145L956.299 60.0469H958.732ZM956.422 70L954.248 65.4268L955.718 64.1279L958.78 70H956.422ZM959.033 66.5547V66.0557C959.033 65.4769 959.102 64.9642 959.238 64.5176C959.38 64.071 959.58 63.6973 959.84 63.3965C960.1 63.0911 960.412 62.861 960.776 62.7061C961.146 62.5465 961.558 62.4668 962.014 62.4668C962.474 62.4668 962.886 62.5465 963.251 62.7061C963.62 62.861 963.935 63.0911 964.194 63.3965C964.459 63.6973 964.661 64.071 964.803 64.5176C964.944 64.9642 965.015 65.4769 965.015 66.0557V66.5547C965.015 67.1289 964.944 67.6393 964.803 68.0859C964.661 68.5326 964.459 68.9085 964.194 69.2139C963.935 69.5192 963.622 69.7493 963.258 69.9043C962.893 70.0592 962.483 70.1367 962.027 70.1367C961.572 70.1367 961.159 70.0592 960.79 69.9043C960.425 69.7493 960.111 69.5192 959.847 69.2139C959.582 68.9085 959.38 68.5326 959.238 68.0859C959.102 67.6393 959.033 67.1289 959.033 66.5547ZM960.947 66.0557V66.5547C960.947 66.8965 960.97 67.1927 961.016 67.4434C961.066 67.694 961.136 67.9014 961.228 68.0654C961.323 68.2295 961.437 68.3503 961.569 68.4277C961.701 68.5052 961.854 68.5439 962.027 68.5439C962.201 68.5439 962.355 68.5052 962.492 68.4277C962.629 68.3503 962.741 68.2295 962.827 68.0654C962.918 67.9014 962.984 67.694 963.025 67.4434C963.071 67.1927 963.094 66.8965 963.094 66.5547V66.0557C963.094 65.723 963.069 65.4313 963.019 65.1807C962.968 64.9255 962.898 64.7181 962.807 64.5586C962.715 64.3945 962.602 64.2715 962.465 64.1895C962.333 64.1029 962.182 64.0596 962.014 64.0596C961.845 64.0596 961.695 64.1029 961.562 64.1895C961.435 64.2715 961.323 64.3945 961.228 64.5586C961.136 64.7181 961.066 64.9255 961.016 65.1807C960.97 65.4313 960.947 65.723 960.947 66.0557ZM968.104 64.1826V70H966.184V62.6035H967.981L968.104 64.1826ZM967.817 66.0488L967.305 66.0625C967.296 65.5065 967.348 65.0075 967.462 64.5654C967.58 64.1234 967.747 63.7474 967.961 63.4375C968.18 63.123 968.439 62.8838 968.74 62.7197C969.046 62.5511 969.385 62.4668 969.759 62.4668C970.046 62.4668 970.308 62.5169 970.545 62.6172C970.786 62.7174 970.994 62.877 971.167 63.0957C971.34 63.3145 971.475 63.6061 971.57 63.9707C971.666 64.3307 971.714 64.7728 971.714 65.2969V70H969.793V65.2832C969.793 64.9642 969.761 64.7181 969.697 64.5449C969.633 64.3672 969.538 64.2441 969.41 64.1758C969.283 64.1029 969.123 64.0664 968.932 64.0664C968.749 64.0664 968.588 64.1188 968.446 64.2236C968.305 64.3239 968.187 64.4629 968.091 64.6406C968 64.8184 967.929 65.028 967.879 65.2695C967.833 65.5111 967.813 65.7708 967.817 66.0488ZM976.342 62.6035V64.0459H972.568V62.6035H976.342ZM973.437 60.7783H975.344V67.7441C975.344 67.9492 975.364 68.1064 975.405 68.2158C975.446 68.3252 975.508 68.4027 975.59 68.4482C975.676 68.4893 975.79 68.5098 975.932 68.5098C976.027 68.5098 976.116 68.5052 976.198 68.4961C976.28 68.4824 976.342 68.4688 976.383 68.4551V69.9521C976.232 70.0114 976.073 70.057 975.904 70.0889C975.74 70.1208 975.544 70.1367 975.316 70.1367C974.934 70.1367 974.601 70.0638 974.318 69.918C974.04 69.7721 973.824 69.5397 973.669 69.2207C973.514 68.8971 973.437 68.4733 973.437 67.9492V60.7783ZM979.322 64.251V70H977.408V62.6035H979.213L979.322 64.251ZM981.065 62.5488L981.038 64.4561C980.951 64.4378 980.847 64.4242 980.724 64.415C980.605 64.4059 980.5 64.4014 980.409 64.4014C980.195 64.4014 980.013 64.4355 979.862 64.5039C979.712 64.5677 979.587 64.6657 979.486 64.7979C979.391 64.9255 979.318 65.085 979.268 65.2764C979.217 65.4678 979.188 65.6842 979.179 65.9258L978.816 65.7891C978.816 65.306 978.853 64.8639 978.926 64.4629C979.003 64.0573 979.117 63.7064 979.268 63.4102C979.418 63.1094 979.598 62.877 979.808 62.7129C980.022 62.5488 980.263 62.4668 980.532 62.4668C980.623 62.4668 980.719 62.4759 980.819 62.4941C980.924 62.5078 981.006 62.526 981.065 62.5488ZM981.578 66.5547V66.0557C981.578 65.4769 981.646 64.9642 981.783 64.5176C981.924 64.071 982.125 63.6973 982.385 63.3965C982.645 63.0911 982.957 62.861 983.321 62.7061C983.69 62.5465 984.103 62.4668 984.559 62.4668C985.019 62.4668 985.431 62.5465 985.796 62.7061C986.165 62.861 986.479 63.0911 986.739 63.3965C987.004 63.6973 987.206 64.071 987.348 64.5176C987.489 64.9642 987.56 65.4769 987.56 66.0557V66.5547C987.56 67.1289 987.489 67.6393 987.348 68.0859C987.206 68.5326 987.004 68.9085 986.739 69.2139C986.479 69.5192 986.167 69.7493 985.803 69.9043C985.438 70.0592 985.028 70.1367 984.572 70.1367C984.117 70.1367 983.704 70.0592 983.335 69.9043C982.97 69.7493 982.656 69.5192 982.392 69.2139C982.127 68.9085 981.924 68.5326 981.783 68.0859C981.646 67.6393 981.578 67.1289 981.578 66.5547ZM983.492 66.0557V66.5547C983.492 66.8965 983.515 67.1927 983.561 67.4434C983.611 67.694 983.681 67.9014 983.772 68.0654C983.868 68.2295 983.982 68.3503 984.114 68.4277C984.246 68.5052 984.399 68.5439 984.572 68.5439C984.745 68.5439 984.9 68.5052 985.037 68.4277C985.174 68.3503 985.285 68.2295 985.372 68.0654C985.463 67.9014 985.529 67.694 985.57 67.4434C985.616 67.1927 985.639 66.8965 985.639 66.5547V66.0557C985.639 65.723 985.614 65.4313 985.563 65.1807C985.513 64.9255 985.443 64.7181 985.352 64.5586C985.26 64.3945 985.146 64.2715 985.01 64.1895C984.878 64.1029 984.727 64.0596 984.559 64.0596C984.39 64.0596 984.24 64.1029 984.107 64.1895C983.98 64.2715 983.868 64.3945 983.772 64.5586C983.681 64.7181 983.611 64.9255 983.561 65.1807C983.515 65.4313 983.492 65.723 983.492 66.0557ZM990.779 59.5V70H988.858V59.5H990.779ZM995.558 68.2979V64.8799C995.558 64.6566 995.53 64.4788 995.476 64.3467C995.425 64.2145 995.348 64.1188 995.243 64.0596C995.143 63.9958 995.02 63.9639 994.874 63.9639C994.71 63.9639 994.573 63.998 994.464 64.0664C994.354 64.1348 994.272 64.2327 994.218 64.3604C994.168 64.488 994.143 64.6406 994.143 64.8184H992.222C992.222 64.4993 992.283 64.1986 992.406 63.916C992.529 63.6289 992.709 63.3783 992.946 63.1641C993.188 62.9453 993.475 62.7744 993.808 62.6514C994.14 62.5283 994.514 62.4668 994.929 62.4668C995.421 62.4668 995.858 62.5511 996.241 62.7197C996.624 62.8838 996.927 63.1458 997.15 63.5059C997.374 63.8659 997.485 64.333 997.485 64.9072V68.2021C997.485 68.6169 997.506 68.9541 997.547 69.2139C997.592 69.4736 997.659 69.6969 997.745 69.8838V70H995.817C995.731 69.7949 995.665 69.5397 995.619 69.2344C995.578 68.9245 995.558 68.6123 995.558 68.2979ZM995.79 65.4814L995.797 66.6299H995.093C994.91 66.6299 994.751 66.6595 994.614 66.7188C994.482 66.778 994.37 66.8623 994.279 66.9717C994.188 67.0765 994.12 67.1995 994.074 67.3408C994.033 67.4821 994.013 67.6325 994.013 67.792C994.013 67.9697 994.038 68.1201 994.088 68.2432C994.138 68.3662 994.213 68.4596 994.313 68.5234C994.414 68.5872 994.532 68.6191 994.669 68.6191C994.879 68.6191 995.061 68.5758 995.216 68.4893C995.371 68.4027 995.485 68.2979 995.558 68.1748C995.635 68.0518 995.66 67.9378 995.633 67.833L996.07 68.5781C996.016 68.7467 995.94 68.9222 995.845 69.1045C995.754 69.2868 995.637 69.4554 995.496 69.6104C995.355 69.7653 995.179 69.8929 994.97 69.9932C994.765 70.0889 994.521 70.1367 994.238 70.1367C993.842 70.1367 993.479 70.0456 993.151 69.8633C992.823 69.681 992.563 69.4258 992.372 69.0977C992.185 68.7695 992.092 68.3799 992.092 67.9287C992.092 67.555 992.151 67.2178 992.27 66.917C992.393 66.6117 992.575 66.3542 992.816 66.1445C993.058 65.9303 993.363 65.7663 993.732 65.6523C994.102 65.5384 994.535 65.4814 995.031 65.4814H995.79ZM1005.39 68.2979V64.8799C1005.39 64.6566 1005.36 64.4788 1005.31 64.3467C1005.26 64.2145 1005.18 64.1188 1005.07 64.0596C1004.97 63.9958 1004.85 63.9639 1004.7 63.9639C1004.54 63.9639 1004.4 63.998 1004.29 64.0664C1004.18 64.1348 1004.1 64.2327 1004.05 64.3604C1004 64.488 1003.97 64.6406 1003.97 64.8184H1002.05C1002.05 64.4993 1002.11 64.1986 1002.24 63.916C1002.36 63.6289 1002.54 63.3783 1002.78 63.1641C1003.02 62.9453 1003.31 62.7744 1003.64 62.6514C1003.97 62.5283 1004.34 62.4668 1004.76 62.4668C1005.25 62.4668 1005.69 62.5511 1006.07 62.7197C1006.45 62.8838 1006.76 63.1458 1006.98 63.5059C1007.2 63.8659 1007.32 64.333 1007.32 64.9072V68.2021C1007.32 68.6169 1007.34 68.9541 1007.38 69.2139C1007.42 69.4736 1007.49 69.6969 1007.58 69.8838V70H1005.65C1005.56 69.7949 1005.49 69.5397 1005.45 69.2344C1005.41 68.9245 1005.39 68.6123 1005.39 68.2979ZM1005.62 65.4814L1005.63 66.6299H1004.92C1004.74 66.6299 1004.58 66.6595 1004.44 66.7188C1004.31 66.778 1004.2 66.8623 1004.11 66.9717C1004.02 67.0765 1003.95 67.1995 1003.9 67.3408C1003.86 67.4821 1003.84 67.6325 1003.84 67.792C1003.84 67.9697 1003.87 68.1201 1003.92 68.2432C1003.97 68.3662 1004.04 68.4596 1004.14 68.5234C1004.24 68.5872 1004.36 68.6191 1004.5 68.6191C1004.71 68.6191 1004.89 68.5758 1005.05 68.4893C1005.2 68.4027 1005.31 68.2979 1005.39 68.1748C1005.47 68.0518 1005.49 67.9378 1005.46 67.833L1005.9 68.5781C1005.85 68.7467 1005.77 68.9222 1005.67 69.1045C1005.58 69.2868 1005.47 69.4554 1005.33 69.6104C1005.18 69.7653 1005.01 69.8929 1004.8 69.9932C1004.59 70.0889 1004.35 70.1367 1004.07 70.1367C1003.67 70.1367 1003.31 70.0456 1002.98 69.8633C1002.65 69.681 1002.39 69.4258 1002.2 69.0977C1002.02 68.7695 1001.92 68.3799 1001.92 67.9287C1001.92 67.555 1001.98 67.2178 1002.1 66.917C1002.22 66.6117 1002.4 66.3542 1002.65 66.1445C1002.89 65.9303 1003.19 65.7663 1003.56 65.6523C1003.93 65.5384 1004.36 65.4814 1004.86 65.4814H1005.62ZM964.68 84.0254V92.8438H962.772V82.6035H964.536L964.68 84.0254ZM968.521 86.0488V86.541C968.521 87.1198 968.471 87.6325 968.371 88.0791C968.271 88.5212 968.12 88.8971 967.92 89.207C967.724 89.5124 967.478 89.7448 967.182 89.9043C966.885 90.0592 966.539 90.1367 966.143 90.1367C965.773 90.1367 965.454 90.0501 965.186 89.877C964.921 89.6992 964.698 89.4554 964.516 89.1455C964.333 88.8356 964.188 88.4733 964.078 88.0586C963.969 87.6439 963.884 87.1995 963.825 86.7256V85.96C963.88 85.4541 963.96 84.9893 964.064 84.5654C964.169 84.137 964.313 83.7656 964.495 83.4512C964.682 83.1367 964.908 82.8952 965.172 82.7266C965.441 82.5534 965.76 82.4668 966.129 82.4668C966.53 82.4668 966.879 82.5397 967.175 82.6855C967.476 82.8314 967.724 83.0524 967.92 83.3486C968.12 83.6403 968.271 84.0117 968.371 84.4629C968.471 84.9141 968.521 85.4427 968.521 86.0488ZM966.607 86.541V86.0488C966.607 85.6934 966.587 85.3903 966.546 85.1396C966.509 84.889 966.45 84.6839 966.368 84.5244C966.286 84.3649 966.179 84.2487 966.047 84.1758C965.915 84.1029 965.753 84.0664 965.562 84.0664C965.375 84.0664 965.211 84.1029 965.069 84.1758C964.933 84.2487 964.821 84.3558 964.734 84.4971C964.648 84.6338 964.582 84.8024 964.536 85.0029C964.491 85.1989 964.465 85.4222 964.461 85.6729V87.0127C964.47 87.3089 964.509 87.571 964.577 87.7988C964.65 88.0267 964.766 88.209 964.926 88.3457C965.085 88.4779 965.302 88.5439 965.575 88.5439C965.771 88.5439 965.933 88.5029 966.061 88.4209C966.193 88.3389 966.3 88.2158 966.382 88.0518C966.464 87.8877 966.521 87.6803 966.553 87.4297C966.589 87.179 966.607 86.8828 966.607 86.541ZM971.707 79.5V90H969.786V79.5H971.707ZM976.485 88.2979V84.8799C976.485 84.6566 976.458 84.4788 976.403 84.3467C976.353 84.2145 976.276 84.1188 976.171 84.0596C976.071 83.9958 975.948 83.9639 975.802 83.9639C975.638 83.9639 975.501 83.998 975.392 84.0664C975.282 84.1348 975.2 84.2327 975.146 84.3604C975.095 84.488 975.07 84.6406 975.07 84.8184H973.149C973.149 84.4993 973.211 84.1986 973.334 83.916C973.457 83.6289 973.637 83.3783 973.874 83.1641C974.116 82.9453 974.403 82.7744 974.735 82.6514C975.068 82.5283 975.442 82.4668 975.856 82.4668C976.349 82.4668 976.786 82.5511 977.169 82.7197C977.552 82.8838 977.855 83.1458 978.078 83.5059C978.301 83.8659 978.413 84.333 978.413 84.9072V88.2021C978.413 88.6169 978.434 88.9541 978.475 89.2139C978.52 89.4736 978.586 89.6969 978.673 89.8838V90H976.745C976.659 89.7949 976.592 89.5397 976.547 89.2344C976.506 88.9245 976.485 88.6123 976.485 88.2979ZM976.718 85.4814L976.725 86.6299H976.021C975.838 86.6299 975.679 86.6595 975.542 86.7188C975.41 86.778 975.298 86.8623 975.207 86.9717C975.116 87.0765 975.048 87.1995 975.002 87.3408C974.961 87.4821 974.94 87.6325 974.94 87.792C974.94 87.9697 974.965 88.1201 975.016 88.2432C975.066 88.3662 975.141 88.4596 975.241 88.5234C975.341 88.5872 975.46 88.6191 975.597 88.6191C975.806 88.6191 975.989 88.5758 976.144 88.4893C976.299 88.4027 976.412 88.2979 976.485 88.1748C976.563 88.0518 976.588 87.9378 976.561 87.833L976.998 88.5781C976.943 88.7467 976.868 88.9222 976.772 89.1045C976.681 89.2868 976.565 89.4554 976.424 89.6104C976.283 89.7653 976.107 89.8929 975.897 89.9932C975.692 90.0889 975.449 90.1367 975.166 90.1367C974.77 90.1367 974.407 90.0456 974.079 89.8633C973.751 89.681 973.491 89.4258 973.3 89.0977C973.113 88.7695 973.02 88.3799 973.02 87.9287C973.02 87.555 973.079 87.2178 973.197 86.917C973.32 86.6117 973.503 86.3542 973.744 86.1445C973.986 85.9303 974.291 85.7663 974.66 85.6523C975.029 85.5384 975.462 85.4814 975.959 85.4814H976.718ZM983.055 82.6035V84.0459H979.281V82.6035H983.055ZM980.149 80.7783H982.057V87.7441C982.057 87.9492 982.077 88.1064 982.118 88.2158C982.159 88.3252 982.221 88.4027 982.303 88.4482C982.389 88.4893 982.503 88.5098 982.645 88.5098C982.74 88.5098 982.829 88.5052 982.911 88.4961C982.993 88.4824 983.055 88.4688 983.096 88.4551V89.9521C982.945 90.0114 982.786 90.057 982.617 90.0889C982.453 90.1208 982.257 90.1367 982.029 90.1367C981.646 90.1367 981.314 90.0638 981.031 89.918C980.753 89.7721 980.537 89.5397 980.382 89.2207C980.227 88.8971 980.149 88.4733 980.149 87.9492V80.7783ZM984.128 79.5H986.035V88.2842L985.898 90H984.128V79.5ZM989.877 86.0557V86.541C989.877 87.1426 989.829 87.6667 989.733 88.1133C989.642 88.5599 989.499 88.9336 989.303 89.2344C989.111 89.5352 988.865 89.7607 988.564 89.9111C988.264 90.0615 987.908 90.1367 987.498 90.1367C987.129 90.1367 986.812 90.0501 986.548 89.877C986.284 89.6992 986.06 89.4554 985.878 89.1455C985.7 88.8311 985.554 88.4642 985.44 88.0449C985.331 87.6211 985.251 87.1585 985.201 86.6572V85.9395C985.247 85.4473 985.324 84.9893 985.434 84.5654C985.548 84.1416 985.693 83.7747 985.871 83.4648C986.049 83.1504 986.27 82.9066 986.534 82.7334C986.803 82.5557 987.12 82.4668 987.484 82.4668C987.904 82.4668 988.264 82.5443 988.564 82.6992C988.865 82.8496 989.111 83.0752 989.303 83.376C989.499 83.6768 989.642 84.0527 989.733 84.5039C989.829 84.9505 989.877 85.4678 989.877 86.0557ZM987.97 86.541V86.0557C987.97 85.7139 987.956 85.4199 987.929 85.1738C987.901 84.9277 987.851 84.7227 987.778 84.5586C987.705 84.3945 987.601 84.2715 987.464 84.1895C987.332 84.1074 987.156 84.0664 986.938 84.0664C986.742 84.0664 986.577 84.1051 986.445 84.1826C986.313 84.2555 986.199 84.3649 986.104 84.5107C986.012 84.652 985.944 84.8206 985.898 85.0166C985.857 85.208 985.835 85.4199 985.83 85.6523V86.9443C985.835 87.2588 985.873 87.5368 985.946 87.7783C986.019 88.0199 986.135 88.2067 986.295 88.3389C986.459 88.471 986.678 88.5371 986.951 88.5371C987.165 88.5371 987.339 88.5007 987.471 88.4277C987.603 88.3548 987.705 88.2386 987.778 88.0791C987.856 87.9196 987.906 87.7145 987.929 87.4639C987.956 87.2087 987.97 86.901 987.97 86.541ZM994.313 88.2979V84.8799C994.313 84.6566 994.286 84.4788 994.231 84.3467C994.181 84.2145 994.104 84.1188 993.999 84.0596C993.899 83.9958 993.776 83.9639 993.63 83.9639C993.466 83.9639 993.329 83.998 993.22 84.0664C993.11 84.1348 993.028 84.2327 992.974 84.3604C992.924 84.488 992.898 84.6406 992.898 84.8184H990.978C990.978 84.4993 991.039 84.1986 991.162 83.916C991.285 83.6289 991.465 83.3783 991.702 83.1641C991.944 82.9453 992.231 82.7744 992.563 82.6514C992.896 82.5283 993.27 82.4668 993.685 82.4668C994.177 82.4668 994.614 82.5511 994.997 82.7197C995.38 82.8838 995.683 83.1458 995.906 83.5059C996.13 83.8659 996.241 84.333 996.241 84.9072V88.2021C996.241 88.6169 996.262 88.9541 996.303 89.2139C996.348 89.4736 996.414 89.6969 996.501 89.8838V90H994.573C994.487 89.7949 994.421 89.5397 994.375 89.2344C994.334 88.9245 994.313 88.6123 994.313 88.2979ZM994.546 85.4814L994.553 86.6299H993.849C993.666 86.6299 993.507 86.6595 993.37 86.7188C993.238 86.778 993.126 86.8623 993.035 86.9717C992.944 87.0765 992.876 87.1995 992.83 87.3408C992.789 87.4821 992.769 87.6325 992.769 87.792C992.769 87.9697 992.794 88.1201 992.844 88.2432C992.894 88.3662 992.969 88.4596 993.069 88.5234C993.17 88.5872 993.288 88.6191 993.425 88.6191C993.634 88.6191 993.817 88.5758 993.972 88.4893C994.127 88.4027 994.241 88.2979 994.313 88.1748C994.391 88.0518 994.416 87.9378 994.389 87.833L994.826 88.5781C994.771 88.7467 994.696 88.9222 994.601 89.1045C994.509 89.2868 994.393 89.4554 994.252 89.6104C994.111 89.7653 993.935 89.8929 993.726 89.9932C993.521 90.0889 993.277 90.1367 992.994 90.1367C992.598 90.1367 992.235 90.0456 991.907 89.8633C991.579 89.681 991.319 89.4258 991.128 89.0977C990.941 88.7695 990.848 88.3799 990.848 87.9287C990.848 87.555 990.907 87.2178 991.025 86.917C991.148 86.6117 991.331 86.3542 991.572 86.1445C991.814 85.9303 992.119 85.7663 992.488 85.6523C992.857 85.5384 993.29 85.4814 993.787 85.4814H994.546Z" fill="url(#paint3_linear_1405_1415)"/>
<path fill-rule="evenodd" clip-rule="evenodd" d="M338 33H45V31H338V33Z" fill="url(#paint4_linear_1405_1415)"/>
<path fill-rule="evenodd" clip-rule="evenodd" d="M656 33H363V31H656V33Z" fill="url(#paint5_linear_1405_1415)"/>
<path fill-rule="evenodd" clip-rule="evenodd" d="M965 33H684V31H965V33Z" fill="url(#paint6_linear_1405_1415)"/>
<g filter="url(#filter0_d_1405_1415)">
<path d="M32 17C23.7125 17 17 23.7125 17 32C17 34.8125 17.7875 37.475 19.175 39.725C20.497 41.9468 22.3748 43.7861 24.6236 45.0617C26.8724 46.3373 29.4146 47.0053 32 47C37.475 47 42.2375 44.075 44.825 39.725C46.2125 37.475 47 34.8125 47 32C47 23.7125 40.2875 17 32 17ZM39.3875 30.7625L31.4 38.15C30.875 38.6375 30.1625 38.9 29.4875 38.9C28.775 38.9 28.0625 38.6375 27.5 38.075L23.7875 34.3625C23.2644 33.8332 22.9711 33.1191 22.9711 32.375C22.9711 31.6309 23.2644 30.9168 23.7875 30.3875C24.875 29.3 26.675 29.3 27.7625 30.3875L29.5625 32.1875L35.5625 26.6375C36.6875 25.5875 38.4875 25.6625 39.5375 26.7875C40.5875 27.9125 40.5125 29.7125 39.3875 30.7625Z" fill="url(#paint7_linear_1405_1415)"/>
</g>
<g filter="url(#filter1_d_1405_1415)">
<path d="M349 17C340.712 17 334 23.7125 334 32C334 34.8125 334.788 37.475 336.175 39.725C337.497 41.9468 339.375 43.7861 341.624 45.0617C343.872 46.3373 346.415 47.0053 349 47C354.475 47 359.238 44.075 361.825 39.725C363.213 37.475 364 34.8125 364 32C364 23.7125 357.288 17 349 17ZM356.387 30.7625L348.4 38.15C347.875 38.6375 347.162 38.9 346.487 38.9C345.775 38.9 345.062 38.6375 344.5 38.075L340.787 34.3625C340.264 33.8332 339.971 33.1191 339.971 32.375C339.971 31.6309 340.264 30.9168 340.787 30.3875C341.875 29.3 343.675 29.3 344.762 30.3875L346.562 32.1875L352.562 26.6375C353.687 25.5875 355.488 25.6625 356.538 26.7875C357.588 27.9125 357.512 29.7125 356.387 30.7625Z" fill="url(#paint8_linear_1405_1415)"/>
</g>
<g filter="url(#filter2_d_1405_1415)">
<path d="M670 17C661.712 17 655 23.7125 655 32C655 34.8125 655.788 37.475 657.175 39.725C658.497 41.9468 660.375 43.7861 662.624 45.0617C664.872 46.3373 667.415 47.0053 670 47C675.475 47 680.238 44.075 682.825 39.725C684.213 37.475 685 34.8125 685 32C685 23.7125 678.288 17 670 17ZM677.387 30.7625L669.4 38.15C668.875 38.6375 668.162 38.9 667.487 38.9C666.775 38.9 666.062 38.6375 665.5 38.075L661.787 34.3625C661.264 33.8332 660.971 33.1191 660.971 32.375C660.971 31.6309 661.264 30.9168 661.787 30.3875C662.875 29.3 664.675 29.3 665.762 30.3875L667.562 32.1875L673.562 26.6375C674.687 25.5875 676.488 25.6625 677.538 26.7875C678.588 27.9125 678.512 29.7125 677.387 30.7625Z" fill="url(#paint9_linear_1405_1415)"/>
</g>
<g filter="url(#filter3_d_1405_1415)">
<path d="M977 17C968.712 17 962 23.7125 962 32C962 34.8125 962.788 37.475 964.175 39.725C965.497 41.9468 967.375 43.7861 969.624 45.0617C971.872 46.3373 974.415 47.0053 977 47C982.475 47 987.238 44.075 989.825 39.725C991.213 37.475 992 34.8125 992 32C992 23.7125 985.288 17 977 17ZM984.387 30.7625L976.4 38.15C975.875 38.6375 975.162 38.9 974.487 38.9C973.775 38.9 973.062 38.6375 972.5 38.075L968.787 34.3625C968.264 33.8332 967.971 33.1191 967.971 32.375C967.971 31.6309 968.264 30.9168 968.787 30.3875C969.875 29.3 971.675 29.3 972.762 30.3875L974.562 32.1875L980.562 26.6375C981.687 25.5875 983.488 25.6625 984.538 26.7875C985.588 27.9125 985.512 29.7125 984.387 30.7625Z" fill="url(#paint10_linear_1405_1415)"/>
</g>
<defs>
<filter id="filter0_d_1405_1415" x="0" y="0" width="74" height="74" filterUnits="userSpaceOnUse" color-interpolation-filters="sRGB">
<feFlood flood-opacity="0" result="BackgroundImageFix"/>
<feColorMatrix in="SourceAlpha" type="matrix" values="0 0 0 0 0 0 0 0 0 0 0 0 0 0 0 0 0 0 127 0" result="hardAlpha"/>
<feOffset dx="5" dy="5"/>
<feGaussianBlur stdDeviation="11"/>
<feComposite in2="hardAlpha" operator="out"/>
<feColorMatrix type="matrix" values="0 0 0 0 0.0392157 0 0 0 0 0.560784 0 0 0 0 0.309804 0 0 0 0.2 0"/>
<feBlend mode="normal" in2="BackgroundImageFix" result="effect1_dropShadow_1405_1415"/>
<feBlend mode="normal" in="SourceGraphic" in2="effect1_dropShadow_1405_1415" result="shape"/>
</filter>
<filter id="filter1_d_1405_1415" x="317" y="0" width="74" height="74" filterUnits="userSpaceOnUse" color-interpolation-filters="sRGB">
<feFlood flood-opacity="0" result="BackgroundImageFix"/>
<feColorMatrix in="SourceAlpha" type="matrix" values="0 0 0 0 0 0 0 0 0 0 0 0 0 0 0 0 0 0 127 0" result="hardAlpha"/>
<feOffset dx="5" dy="5"/>
<feGaussianBlur stdDeviation="11"/>
<feComposite in2="hardAlpha" operator="out"/>
<feColorMatrix type="matrix" values="0 0 0 0 0.0392157 0 0 0 0 0.560784 0 0 0 0 0.309804 0 0 0 0.2 0"/>
<feBlend mode="normal" in2="BackgroundImageFix" result="effect1_dropShadow_1405_1415"/>
<feBlend mode="normal" in="SourceGraphic" in2="effect1_dropShadow_1405_1415" result="shape"/>
</filter>
<filter id="filter2_d_1405_1415" x="638" y="0" width="74" height="74" filterUnits="userSpaceOnUse" color-interpolation-filters="sRGB">
<feFlood flood-opacity="0" result="BackgroundImageFix"/>
<feColorMatrix in="SourceAlpha" type="matrix" values="0 0 0 0 0 0 0 0 0 0 0 0 0 0 0 0 0 0 127 0" result="hardAlpha"/>
<feOffset dx="5" dy="5"/>
<feGaussianBlur stdDeviation="11"/>
<feComposite in2="hardAlpha" operator="out"/>
<feColorMatrix type="matrix" values="0 0 0 0 0.0392157 0 0 0 0 0.560784 0 0 0 0 0.309804 0 0 0 0.2 0"/>
<feBlend mode="normal" in2="BackgroundImageFix" result="effect1_dropShadow_1405_1415"/>
<feBlend mode="normal" in="SourceGraphic" in2="effect1_dropShadow_1405_1415" result="shape"/>
</filter>
<filter id="filter3_d_1405_1415" x="945" y="0" width="74" height="74" filterUnits="userSpaceOnUse" color-interpolation-filters="sRGB">
<feFlood flood-opacity="0" result="BackgroundImageFix"/>
<feColorMatrix in="SourceAlpha" type="matrix" values="0 0 0 0 0 0 0 0 0 0 0 0 0 0 0 0 0 0 127 0" result="hardAlpha"/>
<feOffset dx="5" dy="5"/>
<feGaussianBlur stdDeviation="11"/>
<feComposite in2="hardAlpha" operator="out"/>
<feColorMatrix type="matrix" values="0 0 0 0 0.0392157 0 0 0 0 0.560784 0 0 0 0 0.309804 0 0 0 0.2 0"/>
<feBlend mode="normal" in2="BackgroundImageFix" result="effect1_dropShadow_1405_1415"/>
<feBlend mode="normal" in="SourceGraphic" in2="effect1_dropShadow_1405_1415" result="shape"/>
</filter>
<linearGradient id="paint0_linear_1405_1415" x1="32" y1="85" x2="32" y2="57" gradientUnits="userSpaceOnUse">
<stop stop-color="#5CCC94"/>
<stop offset="1" stop-color="#8CCAAE"/>
</linearGradient>
<linearGradient id="paint1_linear_1405_1415" x1="349" y1="77" x2="349" y2="57" gradientUnits="userSpaceOnUse">
<stop stop-color="#5CCC94"/>
<stop offset="1" stop-color="#8CCAAE"/>
</linearGradient>
<linearGradient id="paint2_linear_1405_1415" x1="672.5" y1="77" x2="672.5" y2="57" gradientUnits="userSpaceOnUse">
<stop stop-color="#5CCC94"/>
<stop offset="1" stop-color="#8CCAAE"/>
</linearGradient>
<linearGradient id="paint3_linear_1405_1415" x1="979.5" y1="95" x2="979.5" y2="55" gradientUnits="userSpaceOnUse">
<stop stop-color="#5CCC94"/>
<stop offset="1" stop-color="#8CCAAE"/>
</linearGradient>
<linearGradient id="paint4_linear_1405_1415" x1="191.5" y1="33" x2="191.5" y2="31" gradientUnits="userSpaceOnUse">
<stop stop-color="#5CCC94"/>
<stop offset="1" stop-color="#8CCAAE"/>
</linearGradient>
<linearGradient id="paint5_linear_1405_1415" x1="509.5" y1="33" x2="509.5" y2="31" gradientUnits="userSpaceOnUse">
<stop stop-color="#5CCC94"/>
<stop offset="1" stop-color="#8CCAAE"/>
</linearGradient>
<linearGradient id="paint6_linear_1405_1415" x1="824.5" y1="33" x2="824.5" y2="31" gradientUnits="userSpaceOnUse">
<stop stop-color="#5CCC94"/>
<stop offset="1" stop-color="#8CCAAE"/>
</linearGradient>
<linearGradient id="paint7_linear_1405_1415" x1="32" y1="47" x2="32" y2="17" gradientUnits="userSpaceOnUse">
<stop stop-color="#5CCC94"/>
<stop offset="1" stop-color="#8CCAAE"/>
</linearGradient>
<linearGradient id="paint8_linear_1405_1415" x1="349" y1="47" x2="349" y2="17" gradientUnits="userSpaceOnUse">
<stop stop-color="#5CCC94"/>
<stop offset="1" stop-color="#8CCAAE"/>
</linearGradient>
<linearGradient id="paint9_linear_1405_1415" x1="670" y1="47" x2="670" y2="17" gradientUnits="userSpaceOnUse">
<stop stop-color="#5CCC94"/>
<stop offset="1" stop-color="#8CCAAE"/>
</linearGradient>
<linearGradient id="paint10_linear_1405_1415" x1="977" y1="47" x2="977" y2="17" gradientUnits="userSpaceOnUse">
<stop stop-color="#5CCC94"/>
<stop offset="1" stop-color="#8CCAAE"/>
</linearGradient>
</defs>
</svg>
