<svg width="1019" height="97" viewBox="0 0 1019 97" fill="none" xmlns="http://www.w3.org/2000/svg">
<path d="M17.1592 66.3818C17.1592 66.2041 17.1432 66.0423 17.1113 65.8965C17.0794 65.7507 17.0111 65.6162 16.9062 65.4932C16.806 65.3701 16.6579 65.2471 16.4619 65.124C16.2705 65.001 16.0199 64.8734 15.71 64.7412C15.3408 64.5863 14.9831 64.4222 14.6367 64.249C14.2904 64.0713 13.9782 63.8662 13.7002 63.6338C13.4222 63.4014 13.2012 63.1279 13.0371 62.8135C12.8776 62.4945 12.7979 62.1208 12.7979 61.6924C12.7979 61.2731 12.873 60.8926 13.0234 60.5508C13.1784 60.209 13.3971 59.9173 13.6797 59.6758C13.9622 59.4297 14.2926 59.2406 14.6709 59.1084C15.0537 58.9762 15.4798 58.9102 15.9492 58.9102C16.5872 58.9102 17.1387 59.0423 17.6035 59.3066C18.0729 59.571 18.4352 59.9333 18.6904 60.3936C18.9502 60.8538 19.0801 61.3825 19.0801 61.9795H17.084C17.084 61.6969 17.043 61.4486 16.9609 61.2344C16.8835 61.0156 16.7581 60.8447 16.585 60.7217C16.4118 60.5986 16.1885 60.5371 15.915 60.5371C15.6598 60.5371 15.4479 60.5895 15.2793 60.6943C15.1152 60.7946 14.9922 60.9336 14.9102 61.1113C14.8327 61.2845 14.7939 61.4805 14.7939 61.6992C14.7939 61.8633 14.8327 62.0114 14.9102 62.1436C14.9922 62.2712 15.1038 62.3874 15.2451 62.4922C15.3864 62.5924 15.5527 62.6904 15.7441 62.7861C15.9401 62.8818 16.1543 62.9753 16.3867 63.0664C16.8379 63.2441 17.2367 63.4401 17.583 63.6543C17.9294 63.8639 18.2188 64.1009 18.4512 64.3652C18.6836 64.625 18.859 64.9189 18.9775 65.2471C19.096 65.5752 19.1553 65.9489 19.1553 66.3682C19.1553 66.7829 19.0824 67.1611 18.9365 67.5029C18.7952 67.8402 18.5879 68.1318 18.3145 68.3779C18.041 68.6195 17.7106 68.8063 17.3232 68.9385C16.9404 69.0706 16.512 69.1367 16.0381 69.1367C15.5778 69.1367 15.1426 69.0729 14.7324 68.9453C14.3223 68.8132 13.96 68.6149 13.6455 68.3506C13.3356 68.0817 13.0918 67.7422 12.9141 67.332C12.7363 66.9173 12.6475 66.4274 12.6475 65.8623H14.6504C14.6504 66.1631 14.68 66.4206 14.7393 66.6348C14.7985 66.8444 14.8896 67.013 15.0127 67.1406C15.1357 67.2637 15.2861 67.3571 15.4639 67.4209C15.6462 67.4801 15.8535 67.5098 16.0859 67.5098C16.3503 67.5098 16.5599 67.4596 16.7148 67.3594C16.8743 67.2591 16.9883 67.1247 17.0566 66.9561C17.125 66.7874 17.1592 66.596 17.1592 66.3818ZM23.6396 61.6035V63.0459H19.8662V61.6035H23.6396ZM20.7344 59.7783H22.6416V66.7441C22.6416 66.9492 22.6621 67.1064 22.7031 67.2158C22.7441 67.3252 22.8057 67.4027 22.8877 67.4482C22.9743 67.4893 23.0882 67.5098 23.2295 67.5098C23.3252 67.5098 23.4141 67.5052 23.4961 67.4961C23.5781 67.4824 23.6396 67.4688 23.6807 67.4551V68.9521C23.5303 69.0114 23.3708 69.057 23.2021 69.0889C23.0381 69.1208 22.8421 69.1367 22.6143 69.1367C22.2314 69.1367 21.8988 69.0638 21.6162 68.918C21.3382 68.7721 21.1217 68.5397 20.9668 68.2207C20.8118 67.8971 20.7344 67.4733 20.7344 66.9492V59.7783ZM26.7158 61.6035V69H24.7949V61.6035H26.7158ZM24.7061 59.6895C24.7061 59.3932 24.7995 59.1494 24.9863 58.958C25.1777 58.762 25.4329 58.6641 25.752 58.6641C26.0755 58.6641 26.3307 58.762 26.5176 58.958C26.7044 59.1494 26.7979 59.3932 26.7979 59.6895C26.7979 59.9811 26.7021 60.2249 26.5107 60.4209C26.3239 60.6123 26.0732 60.708 25.7588 60.708C25.4352 60.708 25.1777 60.6123 24.9863 60.4209C24.7995 60.2249 24.7061 59.9811 24.7061 59.6895ZM30.9062 67.5439C31.084 67.5439 31.2367 67.5075 31.3643 67.4346C31.4964 67.3617 31.5967 67.2432 31.665 67.0791C31.7334 66.915 31.7699 66.7031 31.7744 66.4434H33.5723C33.5723 66.9993 33.4538 67.4801 33.2168 67.8857C32.9844 68.2868 32.6699 68.5967 32.2734 68.8154C31.8815 69.0296 31.4372 69.1367 30.9404 69.1367C30.4437 69.1367 30.0107 69.057 29.6416 68.8975C29.2725 68.738 28.9671 68.5055 28.7256 68.2002C28.4886 67.8949 28.3086 67.5234 28.1855 67.0859C28.0671 66.6439 28.0078 66.138 28.0078 65.5684V65.0283C28.0078 64.4678 28.0671 63.9665 28.1855 63.5244C28.3086 63.0824 28.4886 62.7087 28.7256 62.4033C28.9671 62.098 29.2702 61.8656 29.6348 61.7061C30.0039 61.5465 30.4368 61.4668 30.9336 61.4668C31.4668 61.4668 31.9294 61.5785 32.3213 61.8018C32.7132 62.0205 33.0186 62.3441 33.2373 62.7725C33.4606 63.2008 33.5723 63.7295 33.5723 64.3584H31.7744C31.7699 64.0758 31.7357 63.8411 31.6719 63.6543C31.6126 63.4629 31.5192 63.3171 31.3916 63.2168C31.2686 63.112 31.1045 63.0596 30.8994 63.0596C30.6852 63.0596 30.512 63.1051 30.3799 63.1963C30.2523 63.2829 30.1543 63.4105 30.0859 63.5791C30.0221 63.7432 29.9788 63.9482 29.9561 64.1943C29.9333 64.4404 29.9219 64.7184 29.9219 65.0283V65.5684C29.9219 65.901 29.931 66.1904 29.9492 66.4365C29.972 66.6781 30.0153 66.8831 30.0791 67.0518C30.1475 67.2158 30.2454 67.3389 30.373 67.4209C30.5052 67.5029 30.6829 67.5439 30.9062 67.5439ZM36.5869 58.4932V69H34.6729V58.4932H36.5869ZM40.4766 61.6035L37.8721 65.2812L36.3066 67.0381L35.6299 65.582L36.833 63.8252L38.1934 61.6035H40.4766ZM38.4805 69L36.8672 65.6025L38.1865 64.3857L40.6748 69H38.4805ZM44.2158 69.1367C43.71 69.1367 43.2611 69.0592 42.8691 68.9043C42.4818 68.7493 42.1536 68.526 41.8848 68.2344C41.6159 67.9382 41.4108 67.5804 41.2695 67.1611C41.1283 66.7419 41.0576 66.2633 41.0576 65.7256V65.1172C41.0576 64.5156 41.126 63.9893 41.2627 63.5381C41.3994 63.0824 41.5931 62.6995 41.8438 62.3896C42.0944 62.0798 42.402 61.8496 42.7666 61.6992C43.1357 61.5443 43.5527 61.4668 44.0176 61.4668C44.4824 61.4668 44.8903 61.5443 45.2412 61.6992C45.5967 61.8496 45.8906 62.0775 46.123 62.3828C46.3555 62.6836 46.5309 63.0573 46.6494 63.5039C46.7679 63.9505 46.8271 64.4701 46.8271 65.0625V65.9375H41.8711V64.5908H44.9473V64.4199C44.9473 64.1191 44.9154 63.8685 44.8516 63.668C44.7878 63.4629 44.6875 63.3102 44.5508 63.21C44.4141 63.1097 44.2318 63.0596 44.0039 63.0596C43.8125 63.0596 43.6507 63.0983 43.5186 63.1758C43.3864 63.2533 43.2816 63.374 43.2041 63.5381C43.1266 63.7021 43.0697 63.9163 43.0332 64.1807C42.9967 64.4404 42.9785 64.7526 42.9785 65.1172V65.7256C42.9785 66.0674 43.0081 66.3545 43.0674 66.5869C43.1266 66.8148 43.2132 67.0016 43.3271 67.1475C43.4456 67.2887 43.5892 67.3913 43.7578 67.4551C43.9264 67.5143 44.1224 67.5439 44.3457 67.5439C44.6829 67.5439 44.986 67.4847 45.2549 67.3662C45.5283 67.2432 45.7607 67.0768 45.9521 66.8672L46.7178 68.0293C46.5856 68.2025 46.4033 68.3757 46.1709 68.5488C45.9385 68.722 45.6605 68.8633 45.3369 68.9727C45.0133 69.082 44.6396 69.1367 44.2158 69.1367ZM49.8486 63.251V69H47.9346V61.6035H49.7393L49.8486 63.251ZM51.5918 61.5488L51.5645 63.4561C51.4779 63.4378 51.373 63.4242 51.25 63.415C51.1315 63.4059 51.0267 63.4014 50.9355 63.4014C50.7214 63.4014 50.5391 63.4355 50.3887 63.5039C50.2383 63.5677 50.113 63.6657 50.0127 63.7979C49.917 63.9255 49.8441 64.085 49.7939 64.2764C49.7438 64.4678 49.7142 64.6842 49.7051 64.9258L49.3428 64.7891C49.3428 64.306 49.3792 63.8639 49.4521 63.4629C49.5296 63.0573 49.6436 62.7064 49.7939 62.4102C49.9443 62.1094 50.1243 61.877 50.334 61.7129C50.5482 61.5488 50.7897 61.4668 51.0586 61.4668C51.1497 61.4668 51.2454 61.4759 51.3457 61.4941C51.4505 61.5078 51.5326 61.526 51.5918 61.5488ZM23.8584 75.6035V77.0459H20.085V75.6035H23.8584ZM20.9531 73.7783H22.8604V80.7441C22.8604 80.9492 22.8809 81.1064 22.9219 81.2158C22.9629 81.3252 23.0244 81.4027 23.1064 81.4482C23.193 81.4893 23.307 81.5098 23.4482 81.5098C23.5439 81.5098 23.6328 81.5052 23.7148 81.4961C23.7969 81.4824 23.8584 81.4688 23.8994 81.4551V82.9521C23.749 83.0114 23.5895 83.057 23.4209 83.0889C23.2568 83.1208 23.0609 83.1367 22.833 83.1367C22.4502 83.1367 22.1175 83.0638 21.835 82.918C21.557 82.7721 21.3405 82.5397 21.1855 82.2207C21.0306 81.8971 20.9531 81.4733 20.9531 80.9492V73.7783ZM26.7842 82.1523L28.3291 75.6035H30.3252L27.8916 84.1074C27.8369 84.2943 27.7617 84.4948 27.666 84.709C27.5703 84.9277 27.4427 85.1328 27.2832 85.3242C27.1283 85.5202 26.9323 85.6797 26.6953 85.8027C26.4583 85.9258 26.1735 85.9873 25.8408 85.9873C25.6722 85.9873 25.5355 85.9759 25.4307 85.9531C25.3304 85.9349 25.2028 85.903 25.0479 85.8574V84.3672C25.0889 84.3672 25.1276 84.3672 25.1641 84.3672C25.2051 84.3717 25.2438 84.374 25.2803 84.374C25.4945 84.374 25.6654 84.3444 25.793 84.2852C25.9206 84.2305 26.0231 84.1439 26.1006 84.0254C26.1826 83.9069 26.251 83.7588 26.3057 83.5811L26.7842 82.1523ZM26.3877 75.6035L27.5361 80.9082L27.7959 83.0684L26.5039 83.1914L24.3369 75.6035H26.3877ZM33.0732 77.0254V85.8438H31.166V75.6035H32.9297L33.0732 77.0254ZM36.915 79.0488V79.541C36.915 80.1198 36.8649 80.6325 36.7646 81.0791C36.6644 81.5212 36.514 81.8971 36.3135 82.207C36.1175 82.5124 35.8714 82.7448 35.5752 82.9043C35.279 83.0592 34.9326 83.1367 34.5361 83.1367C34.167 83.1367 33.848 83.0501 33.5791 82.877C33.3148 82.6992 33.0915 82.4554 32.9092 82.1455C32.7269 81.8356 32.5811 81.4733 32.4717 81.0586C32.3623 80.6439 32.278 80.1995 32.2188 79.7256V78.96C32.2734 78.4541 32.3532 77.9893 32.458 77.5654C32.5628 77.137 32.7064 76.7656 32.8887 76.4512C33.0755 76.1367 33.3011 75.8952 33.5654 75.7266C33.8343 75.5534 34.1533 75.4668 34.5225 75.4668C34.9235 75.4668 35.2721 75.5397 35.5684 75.6855C35.8691 75.8314 36.1175 76.0524 36.3135 76.3486C36.514 76.6403 36.6644 77.0117 36.7646 77.4629C36.8649 77.9141 36.915 78.4427 36.915 79.0488ZM35.001 79.541V79.0488C35.001 78.6934 34.9805 78.3903 34.9395 78.1396C34.903 77.889 34.8438 77.6839 34.7617 77.5244C34.6797 77.3649 34.5726 77.2487 34.4404 77.1758C34.3083 77.1029 34.1465 77.0664 33.9551 77.0664C33.7682 77.0664 33.6042 77.1029 33.4629 77.1758C33.3262 77.2487 33.2145 77.3558 33.1279 77.4971C33.0413 77.6338 32.9753 77.8024 32.9297 78.0029C32.8841 78.1989 32.859 78.4222 32.8545 78.6729V80.0127C32.8636 80.3089 32.9023 80.571 32.9707 80.7988C33.0436 81.0267 33.1598 81.209 33.3193 81.3457C33.4788 81.4779 33.6953 81.5439 33.9688 81.5439C34.1647 81.5439 34.3265 81.5029 34.4541 81.4209C34.5863 81.3389 34.6934 81.2158 34.7754 81.0518C34.8574 80.8877 34.9144 80.6803 34.9463 80.4297C34.9827 80.179 35.001 79.8828 35.001 79.541ZM41.0713 83.1367C40.5654 83.1367 40.1165 83.0592 39.7246 82.9043C39.3372 82.7493 39.0091 82.526 38.7402 82.2344C38.4714 81.9382 38.2663 81.5804 38.125 81.1611C37.9837 80.7419 37.9131 80.2633 37.9131 79.7256V79.1172C37.9131 78.5156 37.9814 77.9893 38.1182 77.5381C38.2549 77.0824 38.4486 76.6995 38.6992 76.3896C38.9499 76.0798 39.2575 75.8496 39.6221 75.6992C39.9912 75.5443 40.4082 75.4668 40.873 75.4668C41.3379 75.4668 41.7458 75.5443 42.0967 75.6992C42.4521 75.8496 42.7461 76.0775 42.9785 76.3828C43.2109 76.6836 43.3864 77.0573 43.5049 77.5039C43.6234 77.9505 43.6826 78.4701 43.6826 79.0625V79.9375H38.7266V78.5908H41.8027V78.4199C41.8027 78.1191 41.7708 77.8685 41.707 77.668C41.6432 77.4629 41.543 77.3102 41.4062 77.21C41.2695 77.1097 41.0872 77.0596 40.8594 77.0596C40.668 77.0596 40.5062 77.0983 40.374 77.1758C40.2419 77.2533 40.137 77.374 40.0596 77.5381C39.9821 77.7021 39.9251 77.9163 39.8887 78.1807C39.8522 78.4404 39.834 78.7526 39.834 79.1172V79.7256C39.834 80.0674 39.8636 80.3545 39.9229 80.5869C39.9821 80.8148 40.0687 81.0016 40.1826 81.1475C40.3011 81.2887 40.4447 81.3913 40.6133 81.4551C40.7819 81.5143 40.9779 81.5439 41.2012 81.5439C41.5384 81.5439 41.8415 81.4847 42.1104 81.3662C42.3838 81.2432 42.6162 81.0768 42.8076 80.8672L43.5732 82.0293C43.4411 82.2025 43.2588 82.3757 43.0264 82.5488C42.7939 82.722 42.516 82.8633 42.1924 82.9727C41.8688 83.082 41.4951 83.1367 41.0713 83.1367Z" fill="url(#paint0_linear_1405_1323)"/>
<path d="M295.701 70.3457V72H291.565V70.3457H295.701ZM292.181 62.0469V72H290.178V62.0469H292.181ZM298.791 64.6035V72H296.87V64.6035H298.791ZM296.781 62.6895C296.781 62.3932 296.875 62.1494 297.062 61.958C297.253 61.762 297.508 61.6641 297.827 61.6641C298.151 61.6641 298.406 61.762 298.593 61.958C298.78 62.1494 298.873 62.3932 298.873 62.6895C298.873 62.9811 298.777 63.2249 298.586 63.4209C298.399 63.6123 298.148 63.708 297.834 63.708C297.51 63.708 297.253 63.6123 297.062 63.4209C296.875 63.2249 296.781 62.9811 296.781 62.6895ZM302.981 70.5439C303.159 70.5439 303.312 70.5075 303.439 70.4346C303.572 70.3617 303.672 70.2432 303.74 70.0791C303.809 69.915 303.845 69.7031 303.85 69.4434H305.647C305.647 69.9993 305.529 70.4801 305.292 70.8857C305.06 71.2868 304.745 71.5967 304.349 71.8154C303.957 72.0296 303.512 72.1367 303.016 72.1367C302.519 72.1367 302.086 72.057 301.717 71.8975C301.348 71.738 301.042 71.5055 300.801 71.2002C300.564 70.8949 300.384 70.5234 300.261 70.0859C300.142 69.6439 300.083 69.138 300.083 68.5684V68.0283C300.083 67.4678 300.142 66.9665 300.261 66.5244C300.384 66.0824 300.564 65.7087 300.801 65.4033C301.042 65.098 301.345 64.8656 301.71 64.7061C302.079 64.5465 302.512 64.4668 303.009 64.4668C303.542 64.4668 304.005 64.5785 304.396 64.8018C304.788 65.0205 305.094 65.3441 305.312 65.7725C305.536 66.2008 305.647 66.7295 305.647 67.3584H303.85C303.845 67.0758 303.811 66.8411 303.747 66.6543C303.688 66.4629 303.594 66.3171 303.467 66.2168C303.344 66.112 303.18 66.0596 302.975 66.0596C302.76 66.0596 302.587 66.1051 302.455 66.1963C302.327 66.2829 302.229 66.4105 302.161 66.5791C302.097 66.7432 302.054 66.9482 302.031 67.1943C302.008 67.4404 301.997 67.7184 301.997 68.0283V68.5684C301.997 68.901 302.006 69.1904 302.024 69.4365C302.047 69.6781 302.09 69.8831 302.154 70.0518C302.223 70.2158 302.321 70.3389 302.448 70.4209C302.58 70.5029 302.758 70.5439 302.981 70.5439ZM309.729 72.1367C309.223 72.1367 308.774 72.0592 308.382 71.9043C307.994 71.7493 307.666 71.526 307.397 71.2344C307.129 70.9382 306.924 70.5804 306.782 70.1611C306.641 69.7419 306.57 69.2633 306.57 68.7256V68.1172C306.57 67.5156 306.639 66.9893 306.775 66.5381C306.912 66.0824 307.106 65.6995 307.356 65.3896C307.607 65.0798 307.915 64.8496 308.279 64.6992C308.648 64.5443 309.065 64.4668 309.53 64.4668C309.995 64.4668 310.403 64.5443 310.754 64.6992C311.109 64.8496 311.403 65.0775 311.636 65.3828C311.868 65.6836 312.044 66.0573 312.162 66.5039C312.281 66.9505 312.34 67.4701 312.34 68.0625V68.9375H307.384V67.5908H310.46V67.4199C310.46 67.1191 310.428 66.8685 310.364 66.668C310.3 66.4629 310.2 66.3102 310.063 66.21C309.927 66.1097 309.744 66.0596 309.517 66.0596C309.325 66.0596 309.163 66.0983 309.031 66.1758C308.899 66.2533 308.794 66.374 308.717 66.5381C308.639 66.7021 308.582 66.9163 308.546 67.1807C308.509 67.4404 308.491 67.7526 308.491 68.1172V68.7256C308.491 69.0674 308.521 69.3545 308.58 69.5869C308.639 69.8148 308.726 70.0016 308.84 70.1475C308.958 70.2887 309.102 70.3913 309.271 70.4551C309.439 70.5143 309.635 70.5439 309.858 70.5439C310.196 70.5439 310.499 70.4847 310.768 70.3662C311.041 70.2432 311.273 70.0768 311.465 69.8672L312.23 71.0293C312.098 71.2025 311.916 71.3757 311.684 71.5488C311.451 71.722 311.173 71.8633 310.85 71.9727C310.526 72.082 310.152 72.1367 309.729 72.1367ZM315.327 66.1826V72H313.406V64.6035H315.204L315.327 66.1826ZM315.04 68.0488L314.527 68.0625C314.518 67.5065 314.571 67.0075 314.685 66.5654C314.803 66.1234 314.969 65.7474 315.184 65.4375C315.402 65.123 315.662 64.8838 315.963 64.7197C316.268 64.5511 316.608 64.4668 316.981 64.4668C317.269 64.4668 317.531 64.5169 317.768 64.6172C318.009 64.7174 318.216 64.877 318.39 65.0957C318.563 65.3145 318.697 65.6061 318.793 65.9707C318.889 66.3307 318.937 66.7728 318.937 67.2969V72H317.016V67.2832C317.016 66.9642 316.984 66.7181 316.92 66.5449C316.856 66.3672 316.76 66.2441 316.633 66.1758C316.505 66.1029 316.346 66.0664 316.154 66.0664C315.972 66.0664 315.81 66.1188 315.669 66.2236C315.528 66.3239 315.409 66.4629 315.313 66.6406C315.222 66.8184 315.152 67.028 315.102 67.2695C315.056 67.5111 315.035 67.7708 315.04 68.0488ZM323.619 70.0039C323.619 69.8763 323.576 69.7624 323.489 69.6621C323.403 69.5618 323.266 69.4593 323.079 69.3545C322.892 69.2451 322.644 69.1243 322.334 68.9922C321.997 68.8555 321.698 68.7142 321.438 68.5684C321.179 68.4225 320.958 68.2607 320.775 68.083C320.598 67.9053 320.463 67.7025 320.372 67.4746C320.281 67.2467 320.235 66.987 320.235 66.6953C320.235 66.3809 320.292 66.0915 320.406 65.8271C320.525 65.5583 320.693 65.3236 320.912 65.123C321.131 64.918 321.397 64.7585 321.712 64.6445C322.031 64.526 322.389 64.4668 322.785 64.4668C323.341 64.4668 323.817 64.5648 324.214 64.7607C324.615 64.9521 324.923 65.221 325.137 65.5674C325.351 65.9137 325.458 66.3171 325.458 66.7773H323.544C323.544 66.6133 323.519 66.4674 323.469 66.3398C323.419 66.2077 323.337 66.1051 323.223 66.0322C323.113 65.9593 322.965 65.9229 322.778 65.9229C322.642 65.9229 322.519 65.9525 322.409 66.0117C322.304 66.071 322.22 66.1507 322.156 66.251C322.097 66.3467 322.067 66.4606 322.067 66.5928C322.067 66.693 322.088 66.7819 322.129 66.8594C322.174 66.9368 322.245 67.012 322.341 67.085C322.437 67.1579 322.564 67.2354 322.724 67.3174C322.888 67.3949 323.088 67.4814 323.325 67.5771C323.817 67.7594 324.221 67.9554 324.535 68.165C324.854 68.3747 325.091 68.6208 325.246 68.9033C325.401 69.1813 325.479 69.5254 325.479 69.9355C325.479 70.2637 325.415 70.5622 325.287 70.8311C325.164 71.0999 324.984 71.3324 324.747 71.5283C324.51 71.7243 324.225 71.8747 323.893 71.9795C323.564 72.0843 323.198 72.1367 322.792 72.1367C322.195 72.1367 321.691 72.0182 321.281 71.7812C320.871 71.5443 320.561 71.2412 320.352 70.8721C320.142 70.4984 320.037 70.111 320.037 69.71H321.855C321.865 69.9561 321.91 70.1497 321.992 70.291C322.079 70.4277 322.195 70.5234 322.341 70.5781C322.487 70.6328 322.648 70.6602 322.826 70.6602C323.004 70.6602 323.15 70.6374 323.264 70.5918C323.382 70.5417 323.471 70.4665 323.53 70.3662C323.59 70.2614 323.619 70.1406 323.619 70.0039ZM329.676 72.1367C329.17 72.1367 328.721 72.0592 328.329 71.9043C327.942 71.7493 327.614 71.526 327.345 71.2344C327.076 70.9382 326.871 70.5804 326.729 70.1611C326.588 69.7419 326.518 69.2633 326.518 68.7256V68.1172C326.518 67.5156 326.586 66.9893 326.723 66.5381C326.859 66.0824 327.053 65.6995 327.304 65.3896C327.554 65.0798 327.862 64.8496 328.227 64.6992C328.596 64.5443 329.013 64.4668 329.478 64.4668C329.942 64.4668 330.35 64.5443 330.701 64.6992C331.057 64.8496 331.351 65.0775 331.583 65.3828C331.815 65.6836 331.991 66.0573 332.109 66.5039C332.228 66.9505 332.287 67.4701 332.287 68.0625V68.9375H327.331V67.5908H330.407V67.4199C330.407 67.1191 330.375 66.8685 330.312 66.668C330.248 66.4629 330.147 66.3102 330.011 66.21C329.874 66.1097 329.692 66.0596 329.464 66.0596C329.272 66.0596 329.111 66.0983 328.979 66.1758C328.846 66.2533 328.742 66.374 328.664 66.5381C328.587 66.7021 328.53 66.9163 328.493 67.1807C328.457 67.4404 328.438 67.7526 328.438 68.1172V68.7256C328.438 69.0674 328.468 69.3545 328.527 69.5869C328.587 69.8148 328.673 70.0016 328.787 70.1475C328.906 70.2887 329.049 70.3913 329.218 70.4551C329.386 70.5143 329.582 70.5439 329.806 70.5439C330.143 70.5439 330.446 70.4847 330.715 70.3662C330.988 70.2432 331.221 70.0768 331.412 69.8672L332.178 71.0293C332.046 71.2025 331.863 71.3757 331.631 71.5488C331.398 71.722 331.12 71.8633 330.797 71.9727C330.473 72.082 330.1 72.1367 329.676 72.1367ZM338.535 66.0254V74.8438H336.628V64.6035H338.392L338.535 66.0254ZM342.377 68.0488V68.541C342.377 69.1198 342.327 69.6325 342.227 70.0791C342.126 70.5212 341.976 70.8971 341.775 71.207C341.579 71.5124 341.333 71.7448 341.037 71.9043C340.741 72.0592 340.395 72.1367 339.998 72.1367C339.629 72.1367 339.31 72.0501 339.041 71.877C338.777 71.6992 338.553 71.4554 338.371 71.1455C338.189 70.8356 338.043 70.4733 337.934 70.0586C337.824 69.6439 337.74 69.1995 337.681 68.7256V67.96C337.735 67.4541 337.815 66.9893 337.92 66.5654C338.025 66.137 338.168 65.7656 338.351 65.4512C338.537 65.1367 338.763 64.8952 339.027 64.7266C339.296 64.5534 339.615 64.4668 339.984 64.4668C340.385 64.4668 340.734 64.5397 341.03 64.6855C341.331 64.8314 341.579 65.0524 341.775 65.3486C341.976 65.6403 342.126 66.0117 342.227 66.4629C342.327 66.9141 342.377 67.4427 342.377 68.0488ZM340.463 68.541V68.0488C340.463 67.6934 340.442 67.3903 340.401 67.1396C340.365 66.889 340.306 66.6839 340.224 66.5244C340.142 66.3649 340.035 66.2487 339.902 66.1758C339.77 66.1029 339.608 66.0664 339.417 66.0664C339.23 66.0664 339.066 66.1029 338.925 66.1758C338.788 66.2487 338.676 66.3558 338.59 66.4971C338.503 66.6338 338.437 66.8024 338.392 67.0029C338.346 67.1989 338.321 67.4222 338.316 67.6729V69.0127C338.326 69.3089 338.364 69.571 338.433 69.7988C338.506 70.0267 338.622 70.209 338.781 70.3457C338.941 70.4779 339.157 70.5439 339.431 70.5439C339.627 70.5439 339.788 70.5029 339.916 70.4209C340.048 70.3389 340.155 70.2158 340.237 70.0518C340.319 69.8877 340.376 69.6803 340.408 69.4297C340.445 69.179 340.463 68.8828 340.463 68.541ZM345.562 61.5V72H343.642V61.5H345.562ZM350.341 70.2979V66.8799C350.341 66.6566 350.313 66.4788 350.259 66.3467C350.209 66.2145 350.131 66.1188 350.026 66.0596C349.926 65.9958 349.803 65.9639 349.657 65.9639C349.493 65.9639 349.356 65.998 349.247 66.0664C349.138 66.1348 349.056 66.2327 349.001 66.3604C348.951 66.488 348.926 66.6406 348.926 66.8184H347.005C347.005 66.4993 347.066 66.1986 347.189 65.916C347.312 65.6289 347.493 65.3783 347.729 65.1641C347.971 64.9453 348.258 64.7744 348.591 64.6514C348.924 64.5283 349.297 64.4668 349.712 64.4668C350.204 64.4668 350.642 64.5511 351.024 64.7197C351.407 64.8838 351.71 65.1458 351.934 65.5059C352.157 65.8659 352.269 66.333 352.269 66.9072V70.2021C352.269 70.6169 352.289 70.9541 352.33 71.2139C352.376 71.4736 352.442 71.6969 352.528 71.8838V72H350.601C350.514 71.7949 350.448 71.5397 350.402 71.2344C350.361 70.9245 350.341 70.6123 350.341 70.2979ZM350.573 67.4814L350.58 68.6299H349.876C349.694 68.6299 349.534 68.6595 349.397 68.7188C349.265 68.778 349.154 68.8623 349.062 68.9717C348.971 69.0765 348.903 69.1995 348.857 69.3408C348.816 69.4821 348.796 69.6325 348.796 69.792C348.796 69.9697 348.821 70.1201 348.871 70.2432C348.921 70.3662 348.996 70.4596 349.097 70.5234C349.197 70.5872 349.315 70.6191 349.452 70.6191C349.662 70.6191 349.844 70.5758 349.999 70.4893C350.154 70.4027 350.268 70.2979 350.341 70.1748C350.418 70.0518 350.443 69.9378 350.416 69.833L350.854 70.5781C350.799 70.7467 350.724 70.9222 350.628 71.1045C350.537 71.2868 350.421 71.4554 350.279 71.6104C350.138 71.7653 349.963 71.8929 349.753 71.9932C349.548 72.0889 349.304 72.1367 349.021 72.1367C348.625 72.1367 348.263 72.0456 347.935 71.8633C347.606 71.681 347.347 71.4258 347.155 71.0977C346.968 70.7695 346.875 70.3799 346.875 69.9287C346.875 69.555 346.934 69.2178 347.053 68.917C347.176 68.6117 347.358 68.3542 347.6 68.1445C347.841 67.9303 348.146 67.7663 348.516 67.6523C348.885 67.5384 349.318 67.4814 349.814 67.4814H350.573ZM356.91 64.6035V66.0459H353.137V64.6035H356.91ZM354.005 62.7783H355.912V69.7441C355.912 69.9492 355.933 70.1064 355.974 70.2158C356.015 70.3252 356.076 70.4027 356.158 70.4482C356.245 70.4893 356.359 70.5098 356.5 70.5098C356.596 70.5098 356.685 70.5052 356.767 70.4961C356.849 70.4824 356.91 70.4688 356.951 70.4551V71.9521C356.801 72.0114 356.641 72.057 356.473 72.0889C356.309 72.1208 356.113 72.1367 355.885 72.1367C355.502 72.1367 355.169 72.0638 354.887 71.918C354.609 71.7721 354.392 71.5397 354.237 71.2207C354.082 70.8971 354.005 70.4733 354.005 69.9492V62.7783ZM360.957 72.1367C360.451 72.1367 360.002 72.0592 359.61 71.9043C359.223 71.7493 358.895 71.526 358.626 71.2344C358.357 70.9382 358.152 70.5804 358.011 70.1611C357.869 69.7419 357.799 69.2633 357.799 68.7256V68.1172C357.799 67.5156 357.867 66.9893 358.004 66.5381C358.141 66.0824 358.334 65.6995 358.585 65.3896C358.836 65.0798 359.143 64.8496 359.508 64.6992C359.877 64.5443 360.294 64.4668 360.759 64.4668C361.224 64.4668 361.632 64.5443 361.982 64.6992C362.338 64.8496 362.632 65.0775 362.864 65.3828C363.097 65.6836 363.272 66.0573 363.391 66.5039C363.509 66.9505 363.568 67.4701 363.568 68.0625V68.9375H358.612V67.5908H361.688V67.4199C361.688 67.1191 361.657 66.8685 361.593 66.668C361.529 66.4629 361.429 66.3102 361.292 66.21C361.155 66.1097 360.973 66.0596 360.745 66.0596C360.554 66.0596 360.392 66.0983 360.26 66.1758C360.128 66.2533 360.023 66.374 359.945 66.5381C359.868 66.7021 359.811 66.9163 359.774 67.1807C359.738 67.4404 359.72 67.7526 359.72 68.1172V68.7256C359.72 69.0674 359.749 69.3545 359.809 69.5869C359.868 69.8148 359.954 70.0016 360.068 70.1475C360.187 70.2887 360.33 70.3913 360.499 70.4551C360.668 70.5143 360.864 70.5439 361.087 70.5439C361.424 70.5439 361.727 70.4847 361.996 70.3662C362.27 70.2432 362.502 70.0768 362.693 69.8672L363.459 71.0293C363.327 71.2025 363.145 71.3757 362.912 71.5488C362.68 71.722 362.402 71.8633 362.078 71.9727C361.755 72.082 361.381 72.1367 360.957 72.1367ZM369.782 66.1826V72H367.861V64.6035H369.659L369.782 66.1826ZM369.495 68.0488L368.982 68.0625C368.973 67.5065 369.026 67.0075 369.14 66.5654C369.258 66.1234 369.424 65.7474 369.639 65.4375C369.857 65.123 370.117 64.8838 370.418 64.7197C370.723 64.5511 371.063 64.4668 371.437 64.4668C371.724 64.4668 371.986 64.5169 372.223 64.6172C372.464 64.7174 372.672 64.877 372.845 65.0957C373.018 65.3145 373.152 65.6061 373.248 65.9707C373.344 66.3307 373.392 66.7728 373.392 67.2969V72H371.471V67.2832C371.471 66.9642 371.439 66.7181 371.375 66.5449C371.311 66.3672 371.215 66.2441 371.088 66.1758C370.96 66.1029 370.801 66.0664 370.609 66.0664C370.427 66.0664 370.265 66.1188 370.124 66.2236C369.983 66.3239 369.864 66.4629 369.769 66.6406C369.677 66.8184 369.607 67.028 369.557 67.2695C369.511 67.5111 369.491 67.7708 369.495 68.0488ZM378.368 70.2227V64.6035H380.289V72H378.484L378.368 70.2227ZM378.587 68.6982L379.12 68.6846C379.12 69.1813 379.072 69.6416 378.977 70.0654C378.881 70.4847 378.737 70.8493 378.546 71.1592C378.354 71.4691 378.115 71.7106 377.828 71.8838C377.541 72.0524 377.201 72.1367 376.81 72.1367C376.509 72.1367 376.231 72.0866 375.976 71.9863C375.725 71.8815 375.508 71.7197 375.326 71.501C375.144 71.2777 375 70.9928 374.896 70.6465C374.795 70.2956 374.745 69.874 374.745 69.3818V64.6035H376.666V69.4023C376.666 69.6029 376.684 69.776 376.721 69.9219C376.757 70.0632 376.807 70.1794 376.871 70.2705C376.935 70.3617 377.01 70.4277 377.097 70.4688C377.183 70.5052 377.281 70.5234 377.391 70.5234C377.691 70.5234 377.928 70.446 378.102 70.291C378.279 70.1315 378.405 69.915 378.478 69.6416C378.55 69.3636 378.587 69.0492 378.587 68.6982ZM383.611 66.1348V72H381.69V64.6035H383.495L383.611 66.1348ZM383.338 68.0488L382.812 68.0625C382.802 67.543 382.848 67.0645 382.948 66.627C383.049 66.1895 383.199 65.8089 383.399 65.4854C383.604 65.1618 383.862 64.9111 384.172 64.7334C384.482 64.5557 384.844 64.4668 385.259 64.4668C385.528 64.4668 385.776 64.5169 386.004 64.6172C386.232 64.7129 386.43 64.8656 386.599 65.0752C386.767 65.2803 386.897 65.5492 386.988 65.8818C387.079 66.21 387.125 66.6042 387.125 67.0645V72H385.211V67.2969C385.211 66.9688 385.179 66.7181 385.115 66.5449C385.051 66.3672 384.96 66.2441 384.842 66.1758C384.723 66.1029 384.577 66.0664 384.404 66.0664C384.222 66.0664 384.062 66.1165 383.926 66.2168C383.789 66.3171 383.677 66.4583 383.591 66.6406C383.509 66.8184 383.445 67.028 383.399 67.2695C383.358 67.5111 383.338 67.7708 383.338 68.0488ZM386.94 67.8574L386.25 67.9463C386.241 67.4587 386.284 67.0052 386.38 66.5859C386.476 66.1621 386.624 65.793 386.824 65.4785C387.025 65.1595 387.275 64.9111 387.576 64.7334C387.882 64.5557 388.235 64.4668 388.636 64.4668C388.937 64.4668 389.21 64.5169 389.456 64.6172C389.702 64.7174 389.912 64.8792 390.085 65.1025C390.263 65.3213 390.397 65.6107 390.488 65.9707C390.584 66.3307 390.632 66.7682 390.632 67.2832V72H388.711V67.29C388.711 66.9574 388.679 66.7021 388.615 66.5244C388.551 66.3467 388.46 66.2259 388.342 66.1621C388.223 66.0983 388.082 66.0664 387.918 66.0664C387.754 66.0664 387.61 66.112 387.487 66.2031C387.369 66.2943 387.269 66.4219 387.187 66.5859C387.104 66.7454 387.043 66.9346 387.002 67.1533C386.961 67.3675 386.94 67.6022 386.94 67.8574ZM392.081 61.5H393.988V70.2842L393.852 72H392.081V61.5ZM397.83 68.0557V68.541C397.83 69.1426 397.782 69.6667 397.687 70.1133C397.595 70.5599 397.452 70.9336 397.256 71.2344C397.064 71.5352 396.818 71.7607 396.518 71.9111C396.217 72.0615 395.861 72.1367 395.451 72.1367C395.082 72.1367 394.765 72.0501 394.501 71.877C394.237 71.6992 394.013 71.4554 393.831 71.1455C393.653 70.8311 393.507 70.4642 393.394 70.0449C393.284 69.6211 393.204 69.1585 393.154 68.6572V67.9395C393.2 67.4473 393.277 66.9893 393.387 66.5654C393.501 66.1416 393.646 65.7747 393.824 65.4648C394.002 65.1504 394.223 64.9066 394.487 64.7334C394.756 64.5557 395.073 64.4668 395.438 64.4668C395.857 64.4668 396.217 64.5443 396.518 64.6992C396.818 64.8496 397.064 65.0752 397.256 65.376C397.452 65.6768 397.595 66.0527 397.687 66.5039C397.782 66.9505 397.83 67.4678 397.83 68.0557ZM395.923 68.541V68.0557C395.923 67.7139 395.909 67.4199 395.882 67.1738C395.854 66.9277 395.804 66.7227 395.731 66.5586C395.659 66.3945 395.554 66.2715 395.417 66.1895C395.285 66.1074 395.109 66.0664 394.891 66.0664C394.695 66.0664 394.531 66.1051 394.398 66.1826C394.266 66.2555 394.152 66.3649 394.057 66.5107C393.965 66.652 393.897 66.8206 393.852 67.0166C393.811 67.208 393.788 67.4199 393.783 67.6523V68.9443C393.788 69.2588 393.826 69.5368 393.899 69.7783C393.972 70.0199 394.089 70.2067 394.248 70.3389C394.412 70.471 394.631 70.5371 394.904 70.5371C395.118 70.5371 395.292 70.5007 395.424 70.4277C395.556 70.3548 395.659 70.2386 395.731 70.0791C395.809 69.9196 395.859 69.7145 395.882 69.4639C395.909 69.2087 395.923 68.901 395.923 68.541ZM401.986 72.1367C401.48 72.1367 401.032 72.0592 400.64 71.9043C400.252 71.7493 399.924 71.526 399.655 71.2344C399.386 70.9382 399.181 70.5804 399.04 70.1611C398.899 69.7419 398.828 69.2633 398.828 68.7256V68.1172C398.828 67.5156 398.896 66.9893 399.033 66.5381C399.17 66.0824 399.364 65.6995 399.614 65.3896C399.865 65.0798 400.173 64.8496 400.537 64.6992C400.906 64.5443 401.323 64.4668 401.788 64.4668C402.253 64.4668 402.661 64.5443 403.012 64.6992C403.367 64.8496 403.661 65.0775 403.894 65.3828C404.126 65.6836 404.301 66.0573 404.42 66.5039C404.538 66.9505 404.598 67.4701 404.598 68.0625V68.9375H399.642V67.5908H402.718V67.4199C402.718 67.1191 402.686 66.8685 402.622 66.668C402.558 66.4629 402.458 66.3102 402.321 66.21C402.185 66.1097 402.002 66.0596 401.774 66.0596C401.583 66.0596 401.421 66.0983 401.289 66.1758C401.157 66.2533 401.052 66.374 400.975 66.5381C400.897 66.7021 400.84 66.9163 400.804 67.1807C400.767 67.4404 400.749 67.7526 400.749 68.1172V68.7256C400.749 69.0674 400.779 69.3545 400.838 69.5869C400.897 69.8148 400.984 70.0016 401.098 70.1475C401.216 70.2887 401.36 70.3913 401.528 70.4551C401.697 70.5143 401.893 70.5439 402.116 70.5439C402.453 70.5439 402.757 70.4847 403.025 70.3662C403.299 70.2432 403.531 70.0768 403.723 69.8672L404.488 71.0293C404.356 71.2025 404.174 71.3757 403.941 71.5488C403.709 71.722 403.431 71.8633 403.107 71.9727C402.784 72.082 402.41 72.1367 401.986 72.1367ZM407.619 66.251V72H405.705V64.6035H407.51L407.619 66.251ZM409.362 64.5488L409.335 66.4561C409.248 66.4378 409.144 66.4242 409.021 66.415C408.902 66.4059 408.797 66.4014 408.706 66.4014C408.492 66.4014 408.31 66.4355 408.159 66.5039C408.009 66.5677 407.883 66.6657 407.783 66.7979C407.688 66.9255 407.615 67.085 407.564 67.2764C407.514 67.4678 407.485 67.6842 407.476 67.9258L407.113 67.7891C407.113 67.306 407.15 66.8639 407.223 66.4629C407.3 66.0573 407.414 65.7064 407.564 65.4102C407.715 65.1094 407.895 64.877 408.104 64.7129C408.319 64.5488 408.56 64.4668 408.829 64.4668C408.92 64.4668 409.016 64.4759 409.116 64.4941C409.221 64.5078 409.303 64.526 409.362 64.5488Z" fill="url(#paint1_linear_1405_1323)"/>
<path d="M658.205 67.6592H656.168L656.161 66.21H657.897C658.171 66.21 658.394 66.1644 658.567 66.0732C658.745 65.9775 658.875 65.8385 658.957 65.6562C659.044 65.4694 659.087 65.2438 659.087 64.9795C659.087 64.6742 659.048 64.4303 658.971 64.248C658.893 64.0612 658.768 63.9245 658.595 63.8379C658.422 63.7513 658.196 63.708 657.918 63.708H656.852V72H654.849V62.0469H657.918C658.415 62.0469 658.859 62.1016 659.251 62.2109C659.643 62.3203 659.976 62.4867 660.249 62.71C660.522 62.9333 660.73 63.2158 660.871 63.5576C661.017 63.8994 661.09 64.3027 661.09 64.7676C661.09 65.1777 661.008 65.556 660.844 65.9023C660.68 66.2487 660.422 66.5312 660.071 66.75C659.725 66.9688 659.271 67.0918 658.711 67.1191L658.205 67.6592ZM658.137 72H655.601L656.4 70.3457H658.137C658.401 70.3457 658.615 70.2887 658.779 70.1748C658.943 70.0609 659.062 69.9082 659.135 69.7168C659.208 69.5208 659.244 69.2975 659.244 69.0469C659.244 68.7643 659.21 68.5182 659.142 68.3086C659.078 68.099 658.971 67.9395 658.82 67.8301C658.67 67.7161 658.467 67.6592 658.212 67.6592H656.489L656.503 66.21H658.595L659.066 66.7842C659.6 66.766 660.026 66.8685 660.345 67.0918C660.664 67.3105 660.892 67.5977 661.028 67.9531C661.17 68.304 661.24 68.6777 661.24 69.0742C661.24 69.7122 661.119 70.25 660.878 70.6875C660.641 71.1204 660.292 71.4486 659.832 71.6719C659.372 71.8906 658.807 72 658.137 72ZM664.624 64.6035V72H662.703V64.6035H664.624ZM662.614 62.6895C662.614 62.3932 662.708 62.1494 662.895 61.958C663.086 61.762 663.341 61.6641 663.66 61.6641C663.984 61.6641 664.239 61.762 664.426 61.958C664.613 62.1494 664.706 62.3932 664.706 62.6895C664.706 62.9811 664.61 63.2249 664.419 63.4209C664.232 63.6123 663.981 63.708 663.667 63.708C663.343 63.708 663.086 63.6123 662.895 63.4209C662.708 63.2249 662.614 62.9811 662.614 62.6895ZM668.151 61.5V72H666.23V61.5H668.151ZM671.679 61.5V72H669.758V61.5H671.679ZM675.206 64.6035V72H673.285V64.6035H675.206ZM673.196 62.6895C673.196 62.3932 673.29 62.1494 673.477 61.958C673.668 61.762 673.923 61.6641 674.242 61.6641C674.566 61.6641 674.821 61.762 675.008 61.958C675.195 62.1494 675.288 62.3932 675.288 62.6895C675.288 62.9811 675.192 63.2249 675.001 63.4209C674.814 63.6123 674.563 63.708 674.249 63.708C673.925 63.708 673.668 63.6123 673.477 63.4209C673.29 63.2249 673.196 62.9811 673.196 62.6895ZM678.604 66.1826V72H676.683V64.6035H678.48L678.604 66.1826ZM678.316 68.0488L677.804 68.0625C677.795 67.5065 677.847 67.0075 677.961 66.5654C678.079 66.1234 678.246 65.7474 678.46 65.4375C678.679 65.123 678.938 64.8838 679.239 64.7197C679.545 64.5511 679.884 64.4668 680.258 64.4668C680.545 64.4668 680.807 64.5169 681.044 64.6172C681.285 64.7174 681.493 64.877 681.666 65.0957C681.839 65.3145 681.974 65.6061 682.069 65.9707C682.165 66.3307 682.213 66.7728 682.213 67.2969V72H680.292V67.2832C680.292 66.9642 680.26 66.7181 680.196 66.5449C680.132 66.3672 680.037 66.2441 679.909 66.1758C679.782 66.1029 679.622 66.0664 679.431 66.0664C679.248 66.0664 679.087 66.1188 678.945 66.2236C678.804 66.3239 678.686 66.4629 678.59 66.6406C678.499 66.8184 678.428 67.028 678.378 67.2695C678.332 67.5111 678.312 67.7708 678.316 68.0488ZM687.504 64.6035H689.24V72C689.24 72.6745 689.11 73.2259 688.851 73.6543C688.595 74.0872 688.238 74.404 687.777 74.6045C687.322 74.8096 686.788 74.9121 686.178 74.9121C685.945 74.9121 685.683 74.8802 685.392 74.8164C685.104 74.7526 684.826 74.6546 684.558 74.5225C684.289 74.3949 684.068 74.2399 683.895 74.0576L684.544 72.7314C684.722 72.9092 684.954 73.0596 685.241 73.1826C685.528 73.3102 685.811 73.374 686.089 73.374C686.358 73.374 686.581 73.3307 686.759 73.2441C686.941 73.1621 687.078 73.0208 687.169 72.8203C687.265 72.6198 687.312 72.3509 687.312 72.0137V66.3193L687.504 64.6035ZM683.375 68.5615V68.0693C683.375 67.4678 683.432 66.9414 683.546 66.4902C683.66 66.0391 683.824 65.6631 684.038 65.3623C684.252 65.0615 684.514 64.8382 684.824 64.6924C685.139 64.542 685.49 64.4668 685.877 64.4668C686.283 64.4668 686.622 64.5557 686.896 64.7334C687.169 64.9066 687.39 65.1504 687.559 65.4648C687.732 65.7793 687.864 66.1507 687.955 66.5791C688.051 67.0075 688.124 67.4769 688.174 67.9873V68.6982C688.124 69.1813 688.042 69.6325 687.928 70.0518C687.818 70.471 687.673 70.8356 687.49 71.1455C687.308 71.4554 687.085 71.6992 686.82 71.877C686.556 72.0501 686.237 72.1367 685.863 72.1367C685.48 72.1367 685.134 72.0592 684.824 71.9043C684.519 71.7493 684.257 71.5215 684.038 71.2207C683.824 70.9154 683.66 70.5417 683.546 70.0996C683.432 69.653 683.375 69.1403 683.375 68.5615ZM685.296 68.0693V68.5615C685.296 68.9079 685.316 69.2064 685.357 69.457C685.403 69.7031 685.471 69.9059 685.562 70.0654C685.654 70.2204 685.77 70.3366 685.911 70.4141C686.057 70.487 686.228 70.5234 686.424 70.5234C686.702 70.5234 686.923 70.4596 687.087 70.332C687.256 70.1999 687.379 70.0199 687.456 69.792C687.538 69.5596 687.584 69.293 687.593 68.9922V67.7002C687.588 67.4495 687.559 67.224 687.504 67.0234C687.454 66.8229 687.383 66.652 687.292 66.5107C687.201 66.3695 687.082 66.2601 686.937 66.1826C686.795 66.1051 686.629 66.0664 686.438 66.0664C686.242 66.0664 686.073 66.1051 685.932 66.1826C685.79 66.2601 685.672 66.3809 685.576 66.5449C685.485 66.7044 685.414 66.9118 685.364 67.167C685.319 67.4176 685.296 67.7184 685.296 68.0693Z" fill="url(#paint2_linear_1405_1323)"/>
<path d="M947.898 69.874L949.785 62.0469H951.945L949.061 72H947.604L947.898 69.874ZM946.285 62.0469L948.165 69.874L948.473 72H947.01L944.146 62.0469H946.285ZM955.479 72.1367C954.974 72.1367 954.525 72.0592 954.133 71.9043C953.745 71.7493 953.417 71.526 953.148 71.2344C952.88 70.9382 952.674 70.5804 952.533 70.1611C952.392 69.7419 952.321 69.2633 952.321 68.7256V68.1172C952.321 67.5156 952.39 66.9893 952.526 66.5381C952.663 66.0824 952.857 65.6995 953.107 65.3896C953.358 65.0798 953.666 64.8496 954.03 64.6992C954.399 64.5443 954.816 64.4668 955.281 64.4668C955.746 64.4668 956.154 64.5443 956.505 64.6992C956.86 64.8496 957.154 65.0775 957.387 65.3828C957.619 65.6836 957.795 66.0573 957.913 66.5039C958.032 66.9505 958.091 67.4701 958.091 68.0625V68.9375H953.135V67.5908H956.211V67.4199C956.211 67.1191 956.179 66.8685 956.115 66.668C956.051 66.4629 955.951 66.3102 955.814 66.21C955.678 66.1097 955.495 66.0596 955.268 66.0596C955.076 66.0596 954.914 66.0983 954.782 66.1758C954.65 66.2533 954.545 66.374 954.468 66.5381C954.39 66.7021 954.333 66.9163 954.297 67.1807C954.26 67.4404 954.242 67.7526 954.242 68.1172V68.7256C954.242 69.0674 954.272 69.3545 954.331 69.5869C954.39 69.8148 954.477 70.0016 954.591 70.1475C954.709 70.2887 954.853 70.3913 955.021 70.4551C955.19 70.5143 955.386 70.5439 955.609 70.5439C955.947 70.5439 956.25 70.4847 956.519 70.3662C956.792 70.2432 957.024 70.0768 957.216 69.8672L957.981 71.0293C957.849 71.2025 957.667 71.3757 957.435 71.5488C957.202 71.722 956.924 71.8633 956.601 71.9727C956.277 72.082 955.903 72.1367 955.479 72.1367ZM961.112 66.251V72H959.198V64.6035H961.003L961.112 66.251ZM962.855 64.5488L962.828 66.4561C962.742 66.4378 962.637 66.4242 962.514 66.415C962.395 66.4059 962.29 66.4014 962.199 66.4014C961.985 66.4014 961.803 66.4355 961.652 66.5039C961.502 66.5677 961.377 66.6657 961.276 66.7979C961.181 66.9255 961.108 67.085 961.058 67.2764C961.007 67.4678 960.978 67.6842 960.969 67.9258L960.606 67.7891C960.606 67.306 960.643 66.8639 960.716 66.4629C960.793 66.0573 960.907 65.7064 961.058 65.4102C961.208 65.1094 961.388 64.877 961.598 64.7129C961.812 64.5488 962.053 64.4668 962.322 64.4668C962.413 64.4668 962.509 64.4759 962.609 64.4941C962.714 64.5078 962.796 64.526 962.855 64.5488ZM965.843 64.6035V72H963.922V64.6035H965.843ZM963.833 62.6895C963.833 62.3932 963.926 62.1494 964.113 61.958C964.305 61.762 964.56 61.6641 964.879 61.6641C965.202 61.6641 965.458 61.762 965.645 61.958C965.831 62.1494 965.925 62.3932 965.925 62.6895C965.925 62.9811 965.829 63.2249 965.638 63.4209C965.451 63.6123 965.2 63.708 964.886 63.708C964.562 63.708 964.305 63.6123 964.113 63.4209C963.926 63.2249 963.833 62.9811 963.833 62.6895ZM969.671 72H967.757V64.2959C967.757 63.6579 967.868 63.1224 968.092 62.6895C968.32 62.252 968.648 61.9215 969.076 61.6982C969.509 61.4704 970.026 61.3564 970.628 61.3564C970.974 61.3564 971.302 61.3952 971.612 61.4727C971.927 61.5456 972.25 61.6413 972.583 61.7598L972.31 63.3867C972.109 63.3138 971.883 63.2454 971.633 63.1816C971.387 63.1133 971.095 63.0791 970.758 63.0791C970.389 63.0791 970.115 63.1816 969.938 63.3867C969.76 63.5918 969.671 63.8949 969.671 64.2959V72ZM970.812 64.6035V66.0459H966.854V64.6035H970.812ZM973.465 64.6035V72H971.544V64.6035H973.465ZM977.662 70.5439C977.84 70.5439 977.993 70.5075 978.12 70.4346C978.252 70.3617 978.353 70.2432 978.421 70.0791C978.489 69.915 978.526 69.7031 978.53 69.4434H980.328C980.328 69.9993 980.21 70.4801 979.973 70.8857C979.74 71.2868 979.426 71.5967 979.029 71.8154C978.637 72.0296 978.193 72.1367 977.696 72.1367C977.2 72.1367 976.767 72.057 976.397 71.8975C976.028 71.738 975.723 71.5055 975.481 71.2002C975.244 70.8949 975.064 70.5234 974.941 70.0859C974.823 69.6439 974.764 69.138 974.764 68.5684V68.0283C974.764 67.4678 974.823 66.9665 974.941 66.5244C975.064 66.0824 975.244 65.7087 975.481 65.4033C975.723 65.098 976.026 64.8656 976.391 64.7061C976.76 64.5465 977.193 64.4668 977.689 64.4668C978.223 64.4668 978.685 64.5785 979.077 64.8018C979.469 65.0205 979.774 65.3441 979.993 65.7725C980.216 66.2008 980.328 66.7295 980.328 67.3584H978.53C978.526 67.0758 978.492 66.8411 978.428 66.6543C978.368 66.4629 978.275 66.3171 978.147 66.2168C978.024 66.112 977.86 66.0596 977.655 66.0596C977.441 66.0596 977.268 66.1051 977.136 66.1963C977.008 66.2829 976.91 66.4105 976.842 66.5791C976.778 66.7432 976.735 66.9482 976.712 67.1943C976.689 67.4404 976.678 67.7184 976.678 68.0283V68.5684C976.678 68.901 976.687 69.1904 976.705 69.4365C976.728 69.6781 976.771 69.8831 976.835 70.0518C976.903 70.2158 977.001 70.3389 977.129 70.4209C977.261 70.5029 977.439 70.5439 977.662 70.5439ZM984.689 70.2979V66.8799C984.689 66.6566 984.662 66.4788 984.607 66.3467C984.557 66.2145 984.48 66.1188 984.375 66.0596C984.275 65.9958 984.152 65.9639 984.006 65.9639C983.842 65.9639 983.705 65.998 983.596 66.0664C983.486 66.1348 983.404 66.2327 983.35 66.3604C983.299 66.488 983.274 66.6406 983.274 66.8184H981.354C981.354 66.4993 981.415 66.1986 981.538 65.916C981.661 65.6289 981.841 65.3783 982.078 65.1641C982.32 64.9453 982.607 64.7744 982.939 64.6514C983.272 64.5283 983.646 64.4668 984.061 64.4668C984.553 64.4668 984.99 64.5511 985.373 64.7197C985.756 64.8838 986.059 65.1458 986.282 65.5059C986.506 65.8659 986.617 66.333 986.617 66.9072V70.2021C986.617 70.6169 986.638 70.9541 986.679 71.2139C986.724 71.4736 986.79 71.6969 986.877 71.8838V72H984.949C984.863 71.7949 984.797 71.5397 984.751 71.2344C984.71 70.9245 984.689 70.6123 984.689 70.2979ZM984.922 67.4814L984.929 68.6299H984.225C984.042 68.6299 983.883 68.6595 983.746 68.7188C983.614 68.778 983.502 68.8623 983.411 68.9717C983.32 69.0765 983.252 69.1995 983.206 69.3408C983.165 69.4821 983.145 69.6325 983.145 69.792C983.145 69.9697 983.17 70.1201 983.22 70.2432C983.27 70.3662 983.345 70.4596 983.445 70.5234C983.546 70.5872 983.664 70.6191 983.801 70.6191C984.01 70.6191 984.193 70.5758 984.348 70.4893C984.503 70.4027 984.617 70.2979 984.689 70.1748C984.767 70.0518 984.792 69.9378 984.765 69.833L985.202 70.5781C985.147 70.7467 985.072 70.9222 984.977 71.1045C984.885 71.2868 984.769 71.4554 984.628 71.6104C984.487 71.7653 984.311 71.8929 984.102 71.9932C983.896 72.0889 983.653 72.1367 983.37 72.1367C982.974 72.1367 982.611 72.0456 982.283 71.8633C981.955 71.681 981.695 71.4258 981.504 71.0977C981.317 70.7695 981.224 70.3799 981.224 69.9287C981.224 69.555 981.283 69.2178 981.401 68.917C981.524 68.6117 981.707 68.3542 981.948 68.1445C982.19 67.9303 982.495 67.7663 982.864 67.6523C983.233 67.5384 983.666 67.4814 984.163 67.4814H984.922ZM991.259 64.6035V66.0459H987.485V64.6035H991.259ZM988.354 62.7783H990.261V69.7441C990.261 69.9492 990.281 70.1064 990.322 70.2158C990.363 70.3252 990.425 70.4027 990.507 70.4482C990.593 70.4893 990.707 70.5098 990.849 70.5098C990.944 70.5098 991.033 70.5052 991.115 70.4961C991.197 70.4824 991.259 70.4688 991.3 70.4551V71.9521C991.149 72.0114 990.99 72.057 990.821 72.0889C990.657 72.1208 990.461 72.1367 990.233 72.1367C989.851 72.1367 989.518 72.0638 989.235 71.918C988.957 71.7721 988.741 71.5397 988.586 71.2207C988.431 70.8971 988.354 70.4733 988.354 69.9492V62.7783ZM994.335 64.6035V72H992.414V64.6035H994.335ZM992.325 62.6895C992.325 62.3932 992.419 62.1494 992.605 61.958C992.797 61.762 993.052 61.6641 993.371 61.6641C993.695 61.6641 993.95 61.762 994.137 61.958C994.324 62.1494 994.417 62.3932 994.417 62.6895C994.417 62.9811 994.321 63.2249 994.13 63.4209C993.943 63.6123 993.692 63.708 993.378 63.708C993.054 63.708 992.797 63.6123 992.605 63.4209C992.419 63.2249 992.325 62.9811 992.325 62.6895ZM995.634 68.5547V68.0557C995.634 67.4769 995.702 66.9642 995.839 66.5176C995.98 66.071 996.181 65.6973 996.44 65.3965C996.7 65.0911 997.012 64.861 997.377 64.7061C997.746 64.5465 998.159 64.4668 998.614 64.4668C999.075 64.4668 999.487 64.5465 999.852 64.7061C1000.22 64.861 1000.54 65.0911 1000.79 65.3965C1001.06 65.6973 1001.26 66.071 1001.4 66.5176C1001.54 66.9642 1001.62 67.4769 1001.62 68.0557V68.5547C1001.62 69.1289 1001.54 69.6393 1001.4 70.0859C1001.26 70.5326 1001.06 70.9085 1000.79 71.2139C1000.54 71.5192 1000.22 71.7493 999.858 71.9043C999.494 72.0592 999.084 72.1367 998.628 72.1367C998.172 72.1367 997.76 72.0592 997.391 71.9043C997.026 71.7493 996.712 71.5192 996.447 71.2139C996.183 70.9085 995.98 70.5326 995.839 70.0859C995.702 69.6393 995.634 69.1289 995.634 68.5547ZM997.548 68.0557V68.5547C997.548 68.8965 997.571 69.1927 997.616 69.4434C997.666 69.694 997.737 69.9014 997.828 70.0654C997.924 70.2295 998.038 70.3503 998.17 70.4277C998.302 70.5052 998.455 70.5439 998.628 70.5439C998.801 70.5439 998.956 70.5052 999.093 70.4277C999.229 70.3503 999.341 70.2295 999.428 70.0654C999.519 69.9014 999.585 69.694 999.626 69.4434C999.672 69.1927 999.694 68.8965 999.694 68.5547V68.0557C999.694 67.723 999.669 67.4313 999.619 67.1807C999.569 66.9255 999.498 66.7181 999.407 66.5586C999.316 66.3945 999.202 66.2715 999.065 66.1895C998.933 66.1029 998.783 66.0596 998.614 66.0596C998.446 66.0596 998.295 66.1029 998.163 66.1895C998.035 66.2715 997.924 66.3945 997.828 66.5586C997.737 66.7181 997.666 66.9255 997.616 67.1807C997.571 67.4313 997.548 67.723 997.548 68.0557ZM1004.71 66.1826V72H1002.78V64.6035H1004.58L1004.71 66.1826ZM1004.42 68.0488L1003.91 68.0625C1003.9 67.5065 1003.95 67.0075 1004.06 66.5654C1004.18 66.1234 1004.35 65.7474 1004.56 65.4375C1004.78 65.123 1005.04 64.8838 1005.34 64.7197C1005.65 64.5511 1005.99 64.4668 1006.36 64.4668C1006.65 64.4668 1006.91 64.5169 1007.15 64.6172C1007.39 64.7174 1007.59 64.877 1007.77 65.0957C1007.94 65.3145 1008.08 65.6061 1008.17 65.9707C1008.27 66.3307 1008.31 66.7728 1008.31 67.2969V72H1006.39V67.2832C1006.39 66.9642 1006.36 66.7181 1006.3 66.5449C1006.23 66.3672 1006.14 66.2441 1006.01 66.1758C1005.88 66.1029 1005.72 66.0664 1005.53 66.0664C1005.35 66.0664 1005.19 66.1188 1005.05 66.2236C1004.91 66.3239 1004.79 66.4629 1004.69 66.6406C1004.6 66.8184 1004.53 67.028 1004.48 67.2695C1004.43 67.5111 1004.41 67.7708 1004.42 68.0488ZM944.672 90.2979V86.8799C944.672 86.6566 944.645 86.4788 944.59 86.3467C944.54 86.2145 944.462 86.1188 944.357 86.0596C944.257 85.9958 944.134 85.9639 943.988 85.9639C943.824 85.9639 943.688 85.998 943.578 86.0664C943.469 86.1348 943.387 86.2327 943.332 86.3604C943.282 86.488 943.257 86.6406 943.257 86.8184H941.336C941.336 86.4993 941.397 86.1986 941.521 85.916C941.644 85.6289 941.824 85.3783 942.061 85.1641C942.302 84.9453 942.589 84.7744 942.922 84.6514C943.255 84.5283 943.628 84.4668 944.043 84.4668C944.535 84.4668 944.973 84.5511 945.355 84.7197C945.738 84.8838 946.041 85.1458 946.265 85.5059C946.488 85.8659 946.6 86.333 946.6 86.9072V90.2021C946.6 90.6169 946.62 90.9541 946.661 91.2139C946.707 91.4736 946.773 91.6969 946.859 91.8838V92H944.932C944.845 91.7949 944.779 91.5397 944.733 91.2344C944.692 90.9245 944.672 90.6123 944.672 90.2979ZM944.904 87.4814L944.911 88.6299H944.207C944.025 88.6299 943.865 88.6595 943.729 88.7188C943.596 88.778 943.485 88.8623 943.394 88.9717C943.302 89.0765 943.234 89.1995 943.188 89.3408C943.147 89.4821 943.127 89.6325 943.127 89.792C943.127 89.9697 943.152 90.1201 943.202 90.2432C943.252 90.3662 943.327 90.4596 943.428 90.5234C943.528 90.5872 943.646 90.6191 943.783 90.6191C943.993 90.6191 944.175 90.5758 944.33 90.4893C944.485 90.4027 944.599 90.2979 944.672 90.1748C944.749 90.0518 944.774 89.9378 944.747 89.833L945.185 90.5781C945.13 90.7467 945.055 90.9222 944.959 91.1045C944.868 91.2868 944.752 91.4554 944.61 91.6104C944.469 91.7653 944.294 91.8929 944.084 91.9932C943.879 92.0889 943.635 92.1367 943.353 92.1367C942.956 92.1367 942.594 92.0456 942.266 91.8633C941.938 91.681 941.678 91.4258 941.486 91.0977C941.299 90.7695 941.206 90.3799 941.206 89.9287C941.206 89.555 941.265 89.2178 941.384 88.917C941.507 88.6117 941.689 88.3542 941.931 88.1445C942.172 87.9303 942.478 87.7663 942.847 87.6523C943.216 87.5384 943.649 87.4814 944.146 87.4814H944.904ZM949.895 86.1826V92H947.974V84.6035H949.771L949.895 86.1826ZM949.607 88.0488L949.095 88.0625C949.086 87.5065 949.138 87.0075 949.252 86.5654C949.37 86.1234 949.537 85.7474 949.751 85.4375C949.97 85.123 950.229 84.8838 950.53 84.7197C950.836 84.5511 951.175 84.4668 951.549 84.4668C951.836 84.4668 952.098 84.5169 952.335 84.6172C952.576 84.7174 952.784 84.877 952.957 85.0957C953.13 85.3145 953.265 85.6061 953.36 85.9707C953.456 86.3307 953.504 86.7728 953.504 87.2969V92H951.583V87.2832C951.583 86.9642 951.551 86.7181 951.487 86.5449C951.424 86.3672 951.328 86.2441 951.2 86.1758C951.073 86.1029 950.913 86.0664 950.722 86.0664C950.539 86.0664 950.378 86.1188 950.236 86.2236C950.095 86.3239 949.977 86.4629 949.881 86.6406C949.79 86.8184 949.719 87.028 949.669 87.2695C949.623 87.5111 949.603 87.7708 949.607 88.0488ZM958.487 90.3662V81.5H960.408V92L958.672 92.0068L958.487 90.3662ZM954.652 88.5615V88.0693C954.652 87.4678 954.702 86.9414 954.803 86.4902C954.908 86.0391 955.062 85.6631 955.268 85.3623C955.473 85.0615 955.723 84.8382 956.02 84.6924C956.32 84.542 956.664 84.4668 957.052 84.4668C957.403 84.4668 957.71 84.5557 957.975 84.7334C958.243 84.9066 958.471 85.1504 958.658 85.4648C958.845 85.7793 958.995 86.1507 959.109 86.5791C959.223 87.0075 959.303 87.4769 959.349 87.9873V88.6982C959.294 89.1813 959.21 89.6325 959.096 90.0518C958.986 90.471 958.836 90.8356 958.645 91.1455C958.458 91.4554 958.232 91.6992 957.968 91.877C957.703 92.0501 957.396 92.1367 957.045 92.1367C956.658 92.1367 956.313 92.0592 956.013 91.9043C955.716 91.7493 955.466 91.5215 955.261 91.2207C955.06 90.9154 954.908 90.5417 954.803 90.0996C954.702 89.653 954.652 89.1403 954.652 88.5615ZM956.566 88.0693V88.5615C956.566 88.9079 956.582 89.2064 956.614 89.457C956.651 89.7031 956.708 89.9059 956.785 90.0654C956.867 90.2204 956.974 90.3366 957.106 90.4141C957.239 90.487 957.403 90.5234 957.599 90.5234C957.854 90.5234 958.061 90.4596 958.221 90.332C958.38 90.1999 958.499 90.0199 958.576 89.792C958.658 89.5596 958.704 89.293 958.713 88.9922V87.7002C958.704 87.4495 958.674 87.224 958.624 87.0234C958.574 86.8229 958.503 86.652 958.412 86.5107C958.321 86.3695 958.207 86.2601 958.07 86.1826C957.938 86.1051 957.783 86.0664 957.605 86.0664C957.414 86.0664 957.25 86.1051 957.113 86.1826C956.981 86.2601 956.876 86.3809 956.799 86.5449C956.721 86.7044 956.662 86.9118 956.621 87.167C956.585 87.4176 956.566 87.7184 956.566 88.0693ZM966.991 86.0254V94.8438H965.084V84.6035H966.848L966.991 86.0254ZM970.833 88.0488V88.541C970.833 89.1198 970.783 89.6325 970.683 90.0791C970.582 90.5212 970.432 90.8971 970.231 91.207C970.035 91.5124 969.789 91.7448 969.493 91.9043C969.197 92.0592 968.851 92.1367 968.454 92.1367C968.085 92.1367 967.766 92.0501 967.497 91.877C967.233 91.6992 967.009 91.4554 966.827 91.1455C966.645 90.8356 966.499 90.4733 966.39 90.0586C966.28 89.6439 966.196 89.1995 966.137 88.7256V87.96C966.191 87.4541 966.271 86.9893 966.376 86.5654C966.481 86.137 966.624 85.7656 966.807 85.4512C966.993 85.1367 967.219 84.8952 967.483 84.7266C967.752 84.5534 968.071 84.4668 968.44 84.4668C968.841 84.4668 969.19 84.5397 969.486 84.6855C969.787 84.8314 970.035 85.0524 970.231 85.3486C970.432 85.6403 970.582 86.0117 970.683 86.4629C970.783 86.9141 970.833 87.4427 970.833 88.0488ZM968.919 88.541V88.0488C968.919 87.6934 968.898 87.3903 968.857 87.1396C968.821 86.889 968.762 86.6839 968.68 86.5244C968.598 86.3649 968.491 86.2487 968.358 86.1758C968.226 86.1029 968.064 86.0664 967.873 86.0664C967.686 86.0664 967.522 86.1029 967.381 86.1758C967.244 86.2487 967.132 86.3558 967.046 86.4971C966.959 86.6338 966.893 86.8024 966.848 87.0029C966.802 87.1989 966.777 87.4222 966.772 87.6729V89.0127C966.782 89.3089 966.82 89.571 966.889 89.7988C966.962 90.0267 967.078 90.209 967.237 90.3457C967.397 90.4779 967.613 90.5439 967.887 90.5439C968.083 90.5439 968.244 90.5029 968.372 90.4209C968.504 90.3389 968.611 90.2158 968.693 90.0518C968.775 89.8877 968.832 89.6803 968.864 89.4297C968.901 89.179 968.919 88.8828 968.919 88.541ZM975.27 90.2979V86.8799C975.27 86.6566 975.242 86.4788 975.188 86.3467C975.137 86.2145 975.06 86.1188 974.955 86.0596C974.855 85.9958 974.732 85.9639 974.586 85.9639C974.422 85.9639 974.285 85.998 974.176 86.0664C974.066 86.1348 973.984 86.2327 973.93 86.3604C973.88 86.488 973.854 86.6406 973.854 86.8184H971.934C971.934 86.4993 971.995 86.1986 972.118 85.916C972.241 85.6289 972.421 85.3783 972.658 85.1641C972.9 84.9453 973.187 84.7744 973.52 84.6514C973.852 84.5283 974.226 84.4668 974.641 84.4668C975.133 84.4668 975.57 84.5511 975.953 84.7197C976.336 84.8838 976.639 85.1458 976.862 85.5059C977.086 85.8659 977.197 86.333 977.197 86.9072V90.2021C977.197 90.6169 977.218 90.9541 977.259 91.2139C977.304 91.4736 977.37 91.6969 977.457 91.8838V92H975.529C975.443 91.7949 975.377 91.5397 975.331 91.2344C975.29 90.9245 975.27 90.6123 975.27 90.2979ZM975.502 87.4814L975.509 88.6299H974.805C974.622 88.6299 974.463 88.6595 974.326 88.7188C974.194 88.778 974.082 88.8623 973.991 88.9717C973.9 89.0765 973.832 89.1995 973.786 89.3408C973.745 89.4821 973.725 89.6325 973.725 89.792C973.725 89.9697 973.75 90.1201 973.8 90.2432C973.85 90.3662 973.925 90.4596 974.025 90.5234C974.126 90.5872 974.244 90.6191 974.381 90.6191C974.59 90.6191 974.773 90.5758 974.928 90.4893C975.083 90.4027 975.197 90.2979 975.27 90.1748C975.347 90.0518 975.372 89.9378 975.345 89.833L975.782 90.5781C975.728 90.7467 975.652 90.9222 975.557 91.1045C975.465 91.2868 975.349 91.4554 975.208 91.6104C975.067 91.7653 974.891 91.8929 974.682 91.9932C974.477 92.0889 974.233 92.1367 973.95 92.1367C973.554 92.1367 973.191 92.0456 972.863 91.8633C972.535 91.681 972.275 91.4258 972.084 91.0977C971.897 90.7695 971.804 90.3799 971.804 89.9287C971.804 89.555 971.863 89.2178 971.981 88.917C972.104 88.6117 972.287 88.3542 972.528 88.1445C972.77 87.9303 973.075 87.7663 973.444 87.6523C973.813 87.5384 974.246 87.4814 974.743 87.4814H975.502ZM980.362 91.1523L981.907 84.6035H983.903L981.47 93.1074C981.415 93.2943 981.34 93.4948 981.244 93.709C981.148 93.9277 981.021 94.1328 980.861 94.3242C980.706 94.5202 980.51 94.6797 980.273 94.8027C980.036 94.9258 979.752 94.9873 979.419 94.9873C979.25 94.9873 979.114 94.9759 979.009 94.9531C978.909 94.9349 978.781 94.903 978.626 94.8574V93.3672C978.667 93.3672 978.706 93.3672 978.742 93.3672C978.783 93.3717 978.822 93.374 978.858 93.374C979.073 93.374 979.243 93.3444 979.371 93.2852C979.499 93.2305 979.601 93.1439 979.679 93.0254C979.761 92.9069 979.829 92.7588 979.884 92.5811L980.362 91.1523ZM979.966 84.6035L981.114 89.9082L981.374 92.0684L980.082 92.1914L977.915 84.6035H979.966ZM986.665 86.1348V92H984.744V84.6035H986.549L986.665 86.1348ZM986.392 88.0488L985.865 88.0625C985.856 87.543 985.902 87.0645 986.002 86.627C986.102 86.1895 986.253 85.8089 986.453 85.4854C986.658 85.1618 986.916 84.9111 987.226 84.7334C987.535 84.5557 987.898 84.4668 988.312 84.4668C988.581 84.4668 988.83 84.5169 989.058 84.6172C989.285 84.7129 989.484 84.8656 989.652 85.0752C989.821 85.2803 989.951 85.5492 990.042 85.8818C990.133 86.21 990.179 86.6042 990.179 87.0645V92H988.265V87.2969C988.265 86.9688 988.233 86.7181 988.169 86.5449C988.105 86.3672 988.014 86.2441 987.896 86.1758C987.777 86.1029 987.631 86.0664 987.458 86.0664C987.276 86.0664 987.116 86.1165 986.979 86.2168C986.843 86.3171 986.731 86.4583 986.645 86.6406C986.562 86.8184 986.499 87.028 986.453 87.2695C986.412 87.5111 986.392 87.7708 986.392 88.0488ZM989.994 87.8574L989.304 87.9463C989.295 87.4587 989.338 87.0052 989.434 86.5859C989.529 86.1621 989.677 85.793 989.878 85.4785C990.078 85.1595 990.329 84.9111 990.63 84.7334C990.935 84.5557 991.288 84.4668 991.689 84.4668C991.99 84.4668 992.264 84.5169 992.51 84.6172C992.756 84.7174 992.965 84.8792 993.139 85.1025C993.316 85.3213 993.451 85.6107 993.542 85.9707C993.638 86.3307 993.686 86.7682 993.686 87.2832V92H991.765V87.29C991.765 86.9574 991.733 86.7021 991.669 86.5244C991.605 86.3467 991.514 86.2259 991.396 86.1621C991.277 86.0983 991.136 86.0664 990.972 86.0664C990.808 86.0664 990.664 86.112 990.541 86.2031C990.423 86.2943 990.322 86.4219 990.24 86.5859C990.158 86.7454 990.097 86.9346 990.056 87.1533C990.015 87.3675 989.994 87.6022 989.994 87.8574ZM998.108 92.1367C997.603 92.1367 997.154 92.0592 996.762 91.9043C996.374 91.7493 996.046 91.526 995.777 91.2344C995.508 90.9382 995.303 90.5804 995.162 90.1611C995.021 89.7419 994.95 89.2633 994.95 88.7256V88.1172C994.95 87.5156 995.019 86.9893 995.155 86.5381C995.292 86.0824 995.486 85.6995 995.736 85.3896C995.987 85.0798 996.295 84.8496 996.659 84.6992C997.028 84.5443 997.445 84.4668 997.91 84.4668C998.375 84.4668 998.783 84.5443 999.134 84.6992C999.489 84.8496 999.783 85.0775 1000.02 85.3828C1000.25 85.6836 1000.42 86.0573 1000.54 86.5039C1000.66 86.9505 1000.72 87.4701 1000.72 88.0625V88.9375H995.764V87.5908H998.84V87.4199C998.84 87.1191 998.808 86.8685 998.744 86.668C998.68 86.4629 998.58 86.3102 998.443 86.21C998.307 86.1097 998.124 86.0596 997.896 86.0596C997.705 86.0596 997.543 86.0983 997.411 86.1758C997.279 86.2533 997.174 86.374 997.097 86.5381C997.019 86.7021 996.962 86.9163 996.926 87.1807C996.889 87.4404 996.871 87.7526 996.871 88.1172V88.7256C996.871 89.0674 996.901 89.3545 996.96 89.5869C997.019 89.8148 997.106 90.0016 997.22 90.1475C997.338 90.2887 997.482 90.3913 997.65 90.4551C997.819 90.5143 998.015 90.5439 998.238 90.5439C998.576 90.5439 998.879 90.4847 999.147 90.3662C999.421 90.2432 999.653 90.0768 999.845 89.8672L1000.61 91.0293C1000.48 91.2025 1000.3 91.3757 1000.06 91.5488C999.831 91.722 999.553 91.8633 999.229 91.9727C998.906 92.082 998.532 92.1367 998.108 92.1367ZM1003.71 86.1826V92H1001.79V84.6035H1003.58L1003.71 86.1826ZM1003.42 88.0488L1002.91 88.0625C1002.9 87.5065 1002.95 87.0075 1003.06 86.5654C1003.18 86.1234 1003.35 85.7474 1003.56 85.4375C1003.78 85.123 1004.04 84.8838 1004.34 84.7197C1004.65 84.5511 1004.99 84.4668 1005.36 84.4668C1005.65 84.4668 1005.91 84.5169 1006.15 84.6172C1006.39 84.7174 1006.6 84.877 1006.77 85.0957C1006.94 85.3145 1007.08 85.6061 1007.17 85.9707C1007.27 86.3307 1007.32 86.7728 1007.32 87.2969V92H1005.4V87.2832C1005.4 86.9642 1005.36 86.7181 1005.3 86.5449C1005.24 86.3672 1005.14 86.2441 1005.01 86.1758C1004.89 86.1029 1004.73 86.0664 1004.53 86.0664C1004.35 86.0664 1004.19 86.1188 1004.05 86.2236C1003.91 86.3239 1003.79 86.4629 1003.69 86.6406C1003.6 86.8184 1003.53 87.028 1003.48 87.2695C1003.44 87.5111 1003.42 87.7708 1003.42 88.0488ZM1011.94 84.6035V86.0459H1008.17V84.6035H1011.94ZM1009.04 82.7783H1010.95V89.7441C1010.95 89.9492 1010.97 90.1064 1011.01 90.2158C1011.05 90.3252 1011.11 90.4027 1011.19 90.4482C1011.28 90.4893 1011.39 90.5098 1011.53 90.5098C1011.63 90.5098 1011.72 90.5052 1011.8 90.4961C1011.88 90.4824 1011.94 90.4688 1011.99 90.4551V91.9521C1011.83 92.0114 1011.68 92.057 1011.51 92.0889C1011.34 92.1208 1011.15 92.1367 1010.92 92.1367C1010.54 92.1367 1010.2 92.0638 1009.92 91.918C1009.64 91.7721 1009.43 91.5397 1009.27 91.2207C1009.12 90.8971 1009.04 90.4733 1009.04 89.9492V82.7783Z" fill="url(#paint3_linear_1405_1323)"/>
<path fill-rule="evenodd" clip-rule="evenodd" d="M338 33H45V31H338V33Z" fill="url(#paint4_linear_1405_1323)"/>
<path fill-rule="evenodd" clip-rule="evenodd" d="M656 33H363V31H656V33Z" fill="url(#paint5_linear_1405_1323)"/>
<path fill-rule="evenodd" clip-rule="evenodd" d="M965 33H684V31H965V33Z" fill="url(#paint6_linear_1405_1323)"/>
<g filter="url(#filter0_d_1405_1323)">
<path d="M32 17C23.7125 17 17 23.7125 17 32C17 34.8125 17.7875 37.475 19.175 39.725C20.497 41.9468 22.3748 43.7861 24.6236 45.0617C26.8724 46.3373 29.4146 47.0053 32 47C37.475 47 42.2375 44.075 44.825 39.725C46.2125 37.475 47 34.8125 47 32C47 23.7125 40.2875 17 32 17ZM39.3875 30.7625L31.4 38.15C30.875 38.6375 30.1625 38.9 29.4875 38.9C28.775 38.9 28.0625 38.6375 27.5 38.075L23.7875 34.3625C23.2644 33.8332 22.9711 33.1191 22.9711 32.375C22.9711 31.6309 23.2644 30.9168 23.7875 30.3875C24.875 29.3 26.675 29.3 27.7625 30.3875L29.5625 32.1875L35.5625 26.6375C36.6875 25.5875 38.4875 25.6625 39.5375 26.7875C40.5875 27.9125 40.5125 29.7125 39.3875 30.7625Z" fill="url(#paint7_linear_1405_1323)"/>
</g>
<g filter="url(#filter1_d_1405_1323)">
<path d="M349 17C340.712 17 334 23.7125 334 32C334 34.8125 334.788 37.475 336.175 39.725C337.497 41.9468 339.375 43.7861 341.624 45.0617C343.872 46.3373 346.415 47.0053 349 47C354.475 47 359.238 44.075 361.825 39.725C363.213 37.475 364 34.8125 364 32C364 23.7125 357.288 17 349 17ZM356.387 30.7625L348.4 38.15C347.875 38.6375 347.162 38.9 346.487 38.9C345.775 38.9 345.062 38.6375 344.5 38.075L340.787 34.3625C340.264 33.8332 339.971 33.1191 339.971 32.375C339.971 31.6309 340.264 30.9168 340.787 30.3875C341.875 29.3 343.675 29.3 344.762 30.3875L346.562 32.1875L352.562 26.6375C353.687 25.5875 355.488 25.6625 356.538 26.7875C357.588 27.9125 357.512 29.7125 356.387 30.7625Z" fill="url(#paint8_linear_1405_1323)"/>
</g>
<g filter="url(#filter2_d_1405_1323)">
<path d="M670 17C661.712 17 655 23.7125 655 32C655 34.8125 655.788 37.475 657.175 39.725C658.497 41.9468 660.375 43.7861 662.624 45.0617C664.872 46.3373 667.415 47.0053 670 47C675.475 47 680.238 44.075 682.825 39.725C684.213 37.475 685 34.8125 685 32C685 23.7125 678.288 17 670 17ZM677.387 30.7625L669.4 38.15C668.875 38.6375 668.162 38.9 667.487 38.9C666.775 38.9 666.062 38.6375 665.5 38.075L661.787 34.3625C661.264 33.8332 660.971 33.1191 660.971 32.375C660.971 31.6309 661.264 30.9168 661.787 30.3875C662.875 29.3 664.675 29.3 665.762 30.3875L667.562 32.1875L673.562 26.6375C674.687 25.5875 676.488 25.6625 677.538 26.7875C678.588 27.9125 678.512 29.7125 677.387 30.7625Z" fill="url(#paint9_linear_1405_1323)"/>
</g>
<g filter="url(#filter3_d_1405_1323)">
<path d="M977 17C968.712 17 962 23.7125 962 32C962 34.8125 962.788 37.475 964.175 39.725C965.497 41.9468 967.375 43.7861 969.624 45.0617C971.872 46.3373 974.415 47.0053 977 47C982.475 47 987.238 44.075 989.825 39.725C991.213 37.475 992 34.8125 992 32C992 23.7125 985.288 17 977 17ZM984.387 30.7625L976.4 38.15C975.875 38.6375 975.162 38.9 974.487 38.9C973.775 38.9 973.062 38.6375 972.5 38.075L968.787 34.3625C968.264 33.8332 967.971 33.1191 967.971 32.375C967.971 31.6309 968.264 30.9168 968.787 30.3875C969.875 29.3 971.675 29.3 972.762 30.3875L974.562 32.1875L980.562 26.6375C981.687 25.5875 983.488 25.6625 984.538 26.7875C985.588 27.9125 985.512 29.7125 984.387 30.7625Z" fill="url(#paint10_linear_1405_1323)"/>
</g>
<defs>
<filter id="filter0_d_1405_1323" x="0" y="0" width="74" height="74" filterUnits="userSpaceOnUse" color-interpolation-filters="sRGB">
<feFlood flood-opacity="0" result="BackgroundImageFix"/>
<feColorMatrix in="SourceAlpha" type="matrix" values="0 0 0 0 0 0 0 0 0 0 0 0 0 0 0 0 0 0 127 0" result="hardAlpha"/>
<feOffset dx="5" dy="5"/>
<feGaussianBlur stdDeviation="11"/>
<feComposite in2="hardAlpha" operator="out"/>
<feColorMatrix type="matrix" values="0 0 0 0 0.0392157 0 0 0 0 0.560784 0 0 0 0 0.309804 0 0 0 0.2 0"/>
<feBlend mode="normal" in2="BackgroundImageFix" result="effect1_dropShadow_1405_1323"/>
<feBlend mode="normal" in="SourceGraphic" in2="effect1_dropShadow_1405_1323" result="shape"/>
</filter>
<filter id="filter1_d_1405_1323" x="317" y="0" width="74" height="74" filterUnits="userSpaceOnUse" color-interpolation-filters="sRGB">
<feFlood flood-opacity="0" result="BackgroundImageFix"/>
<feColorMatrix in="SourceAlpha" type="matrix" values="0 0 0 0 0 0 0 0 0 0 0 0 0 0 0 0 0 0 127 0" result="hardAlpha"/>
<feOffset dx="5" dy="5"/>
<feGaussianBlur stdDeviation="11"/>
<feComposite in2="hardAlpha" operator="out"/>
<feColorMatrix type="matrix" values="0 0 0 0 0.0392157 0 0 0 0 0.560784 0 0 0 0 0.309804 0 0 0 0.2 0"/>
<feBlend mode="normal" in2="BackgroundImageFix" result="effect1_dropShadow_1405_1323"/>
<feBlend mode="normal" in="SourceGraphic" in2="effect1_dropShadow_1405_1323" result="shape"/>
</filter>
<filter id="filter2_d_1405_1323" x="638" y="0" width="74" height="74" filterUnits="userSpaceOnUse" color-interpolation-filters="sRGB">
<feFlood flood-opacity="0" result="BackgroundImageFix"/>
<feColorMatrix in="SourceAlpha" type="matrix" values="0 0 0 0 0 0 0 0 0 0 0 0 0 0 0 0 0 0 127 0" result="hardAlpha"/>
<feOffset dx="5" dy="5"/>
<feGaussianBlur stdDeviation="11"/>
<feComposite in2="hardAlpha" operator="out"/>
<feColorMatrix type="matrix" values="0 0 0 0 0.0392157 0 0 0 0 0.560784 0 0 0 0 0.309804 0 0 0 0.2 0"/>
<feBlend mode="normal" in2="BackgroundImageFix" result="effect1_dropShadow_1405_1323"/>
<feBlend mode="normal" in="SourceGraphic" in2="effect1_dropShadow_1405_1323" result="shape"/>
</filter>
<filter id="filter3_d_1405_1323" x="945" y="0" width="74" height="74" filterUnits="userSpaceOnUse" color-interpolation-filters="sRGB">
<feFlood flood-opacity="0" result="BackgroundImageFix"/>
<feColorMatrix in="SourceAlpha" type="matrix" values="0 0 0 0 0 0 0 0 0 0 0 0 0 0 0 0 0 0 127 0" result="hardAlpha"/>
<feOffset dx="5" dy="5"/>
<feGaussianBlur stdDeviation="11"/>
<feComposite in2="hardAlpha" operator="out"/>
<feColorMatrix type="matrix" values="0 0 0 0 0.0392157 0 0 0 0 0.560784 0 0 0 0 0.309804 0 0 0 0.2 0"/>
<feBlend mode="normal" in2="BackgroundImageFix" result="effect1_dropShadow_1405_1323"/>
<feBlend mode="normal" in="SourceGraphic" in2="effect1_dropShadow_1405_1323" result="shape"/>
</filter>
<linearGradient id="paint0_linear_1405_1323" x1="32" y1="85" x2="32" y2="57" gradientUnits="userSpaceOnUse">
<stop stop-color="#5CCC94"/>
<stop offset="1" stop-color="#8CCAAE"/>
</linearGradient>
<linearGradient id="paint1_linear_1405_1323" x1="349.5" y1="77" x2="349.5" y2="57" gradientUnits="userSpaceOnUse">
<stop stop-color="#5CCC94"/>
<stop offset="1" stop-color="#8CCAAE"/>
</linearGradient>
<linearGradient id="paint2_linear_1405_1323" x1="672" y1="77" x2="672" y2="57" gradientUnits="userSpaceOnUse">
<stop stop-color="#5CCC94"/>
<stop offset="1" stop-color="#8CCAAE"/>
</linearGradient>
<linearGradient id="paint3_linear_1405_1323" x1="976.5" y1="97" x2="976.5" y2="57" gradientUnits="userSpaceOnUse">
<stop stop-color="#5CCC94"/>
<stop offset="1" stop-color="#8CCAAE"/>
</linearGradient>
<linearGradient id="paint4_linear_1405_1323" x1="191.5" y1="33" x2="191.5" y2="31" gradientUnits="userSpaceOnUse">
<stop stop-color="#5CCC94"/>
<stop offset="1" stop-color="#8CCAAE"/>
</linearGradient>
<linearGradient id="paint5_linear_1405_1323" x1="509.5" y1="33" x2="509.5" y2="31" gradientUnits="userSpaceOnUse">
<stop stop-color="#5CCC94"/>
<stop offset="1" stop-color="#8CCAAE"/>
</linearGradient>
<linearGradient id="paint6_linear_1405_1323" x1="824.5" y1="33" x2="824.5" y2="31" gradientUnits="userSpaceOnUse">
<stop stop-color="#5CCC94"/>
<stop offset="1" stop-color="#8CCAAE"/>
</linearGradient>
<linearGradient id="paint7_linear_1405_1323" x1="32" y1="47" x2="32" y2="17" gradientUnits="userSpaceOnUse">
<stop stop-color="#5CCC94"/>
<stop offset="1" stop-color="#8CCAAE"/>
</linearGradient>
<linearGradient id="paint8_linear_1405_1323" x1="349" y1="47" x2="349" y2="17" gradientUnits="userSpaceOnUse">
<stop stop-color="#5CCC94"/>
<stop offset="1" stop-color="#8CCAAE"/>
</linearGradient>
<linearGradient id="paint9_linear_1405_1323" x1="670" y1="47" x2="670" y2="17" gradientUnits="userSpaceOnUse">
<stop stop-color="#5CCC94"/>
<stop offset="1" stop-color="#8CCAAE"/>
</linearGradient>
<linearGradient id="paint10_linear_1405_1323" x1="977" y1="47" x2="977" y2="17" gradientUnits="userSpaceOnUse">
<stop stop-color="#5CCC94"/>
<stop offset="1" stop-color="#8CCAAE"/>
</linearGradient>
</defs>
</svg>
