<svg width="733" height="86" viewBox="0 0 733 86" fill="none" xmlns="http://www.w3.org/2000/svg">
<path d="M6.19727 67.6592H4.16016L4.15332 66.21H5.88965C6.16309 66.21 6.38639 66.1644 6.55957 66.0732C6.7373 65.9775 6.86719 65.8385 6.94922 65.6562C7.03581 65.4694 7.0791 65.2438 7.0791 64.9795C7.0791 64.6742 7.04036 64.4303 6.96289 64.248C6.88542 64.0612 6.76009 63.9245 6.58691 63.8379C6.41374 63.7513 6.18815 63.708 5.91016 63.708H4.84375V72H2.84082V62.0469H5.91016C6.4069 62.0469 6.85124 62.1016 7.24316 62.2109C7.63509 62.3203 7.96777 62.4867 8.24121 62.71C8.51465 62.9333 8.72201 63.2158 8.86328 63.5576C9.00911 63.8994 9.08203 64.3027 9.08203 64.7676C9.08203 65.1777 9 65.556 8.83594 65.9023C8.67188 66.2487 8.41439 66.5312 8.06348 66.75C7.71712 66.9688 7.26367 67.0918 6.70312 67.1191L6.19727 67.6592ZM6.12891 72H3.59277L4.39258 70.3457H6.12891C6.39323 70.3457 6.60742 70.2887 6.77148 70.1748C6.93555 70.0609 7.05404 69.9082 7.12695 69.7168C7.19987 69.5208 7.23633 69.2975 7.23633 69.0469C7.23633 68.7643 7.20215 68.5182 7.13379 68.3086C7.06999 68.099 6.96289 67.9395 6.8125 67.8301C6.66211 67.7161 6.45931 67.6592 6.2041 67.6592H4.48145L4.49512 66.21H6.58691L7.05859 66.7842C7.5918 66.766 8.0179 66.8685 8.33691 67.0918C8.65592 67.3105 8.88379 67.5977 9.02051 67.9531C9.16178 68.304 9.23242 68.6777 9.23242 69.0742C9.23242 69.7122 9.11165 70.25 8.87012 70.6875C8.63314 71.1204 8.28451 71.4486 7.82422 71.6719C7.36393 71.8906 6.79883 72 6.12891 72ZM12.5205 66.251V72H10.6064V64.6035H12.4111L12.5205 66.251ZM14.2637 64.5488L14.2363 66.4561C14.1497 66.4378 14.0449 66.4242 13.9219 66.415C13.8034 66.4059 13.6986 66.4014 13.6074 66.4014C13.3932 66.4014 13.2109 66.4355 13.0605 66.5039C12.9102 66.5677 12.7848 66.6657 12.6846 66.7979C12.5889 66.9255 12.516 67.085 12.4658 67.2764C12.4157 67.4678 12.3861 67.6842 12.377 67.9258L12.0146 67.7891C12.0146 67.306 12.0511 66.8639 12.124 66.4629C12.2015 66.0573 12.3154 65.7064 12.4658 65.4102C12.6162 65.1094 12.7962 64.877 13.0059 64.7129C13.2201 64.5488 13.4616 64.4668 13.7305 64.4668C13.8216 64.4668 13.9173 64.4759 14.0176 64.4941C14.1224 64.5078 14.2044 64.526 14.2637 64.5488ZM14.7764 68.5547V68.0557C14.7764 67.4769 14.8447 66.9642 14.9814 66.5176C15.1227 66.071 15.3232 65.6973 15.583 65.3965C15.8428 65.0911 16.1549 64.861 16.5195 64.7061C16.8887 64.5465 17.3011 64.4668 17.7568 64.4668C18.2171 64.4668 18.6296 64.5465 18.9941 64.7061C19.3633 64.861 19.6777 65.0911 19.9375 65.3965C20.2018 65.6973 20.4046 66.071 20.5459 66.5176C20.6872 66.9642 20.7578 67.4769 20.7578 68.0557V68.5547C20.7578 69.1289 20.6872 69.6393 20.5459 70.0859C20.4046 70.5326 20.2018 70.9085 19.9375 71.2139C19.6777 71.5192 19.3656 71.7493 19.001 71.9043C18.6364 72.0592 18.2262 72.1367 17.7705 72.1367C17.3148 72.1367 16.9023 72.0592 16.5332 71.9043C16.1686 71.7493 15.8542 71.5192 15.5898 71.2139C15.3255 70.9085 15.1227 70.5326 14.9814 70.0859C14.8447 69.6393 14.7764 69.1289 14.7764 68.5547ZM16.6904 68.0557V68.5547C16.6904 68.8965 16.7132 69.1927 16.7588 69.4434C16.8089 69.694 16.8796 69.9014 16.9707 70.0654C17.0664 70.2295 17.1803 70.3503 17.3125 70.4277C17.4447 70.5052 17.5973 70.5439 17.7705 70.5439C17.9437 70.5439 18.0986 70.5052 18.2354 70.4277C18.3721 70.3503 18.4837 70.2295 18.5703 70.0654C18.6615 69.9014 18.7275 69.694 18.7686 69.4434C18.8141 69.1927 18.8369 68.8965 18.8369 68.5547V68.0557C18.8369 67.723 18.8118 67.4313 18.7617 67.1807C18.7116 66.9255 18.641 66.7181 18.5498 66.5586C18.4587 66.3945 18.3447 66.2715 18.208 66.1895C18.0758 66.1029 17.9255 66.0596 17.7568 66.0596C17.5882 66.0596 17.4378 66.1029 17.3057 66.1895C17.1781 66.2715 17.0664 66.3945 16.9707 66.5586C16.8796 66.7181 16.8089 66.9255 16.7588 67.1807C16.7132 67.4313 16.6904 67.723 16.6904 68.0557ZM22.0566 64.6035H23.9844V72.4102C23.9844 72.9661 23.8955 73.4355 23.7178 73.8184C23.5446 74.2012 23.2939 74.4906 22.9658 74.6865C22.6377 74.887 22.2412 74.9873 21.7764 74.9873C21.626 74.9873 21.4779 74.9782 21.332 74.96C21.1862 74.9417 21.0381 74.9121 20.8877 74.8711L20.8945 73.3125C20.9857 73.3307 21.0745 73.3444 21.1611 73.3535C21.2432 73.3626 21.3252 73.3672 21.4072 73.3672C21.5531 73.3672 21.6738 73.333 21.7695 73.2646C21.8652 73.2008 21.9359 73.0983 21.9814 72.957C22.0316 72.8158 22.0566 72.6335 22.0566 72.4102V64.6035ZM21.9268 62.6895C21.9268 62.3932 22.0225 62.1494 22.2139 61.958C22.4053 61.762 22.6582 61.6641 22.9727 61.6641C23.2917 61.6641 23.5469 61.762 23.7383 61.958C23.9297 62.1494 24.0254 62.3932 24.0254 62.6895C24.0254 62.9811 23.9297 63.2249 23.7383 63.4209C23.5469 63.6123 23.2917 63.708 22.9727 63.708C22.6582 63.708 22.4053 63.6123 22.2139 63.4209C22.0225 63.2249 21.9268 62.9811 21.9268 62.6895ZM30.54 66.251V72H28.626V64.6035H30.4307L30.54 66.251ZM32.2832 64.5488L32.2559 66.4561C32.1693 66.4378 32.0645 66.4242 31.9414 66.415C31.8229 66.4059 31.7181 66.4014 31.627 66.4014C31.4128 66.4014 31.2305 66.4355 31.0801 66.5039C30.9297 66.5677 30.8044 66.6657 30.7041 66.7979C30.6084 66.9255 30.5355 67.085 30.4854 67.2764C30.4352 67.4678 30.4056 67.6842 30.3965 67.9258L30.0342 67.7891C30.0342 67.306 30.0706 66.8639 30.1436 66.4629C30.221 66.0573 30.335 65.7064 30.4854 65.4102C30.6357 65.1094 30.8158 64.877 31.0254 64.7129C31.2396 64.5488 31.4811 64.4668 31.75 64.4668C31.8411 64.4668 31.9368 64.4759 32.0371 64.4941C32.1419 64.5078 32.224 64.526 32.2832 64.5488ZM36.1045 72.1367C35.5986 72.1367 35.1497 72.0592 34.7578 71.9043C34.3704 71.7493 34.0423 71.526 33.7734 71.2344C33.5046 70.9382 33.2995 70.5804 33.1582 70.1611C33.0169 69.7419 32.9463 69.2633 32.9463 68.7256V68.1172C32.9463 67.5156 33.0146 66.9893 33.1514 66.5381C33.2881 66.0824 33.4818 65.6995 33.7324 65.3896C33.9831 65.0798 34.2907 64.8496 34.6553 64.6992C35.0244 64.5443 35.4414 64.4668 35.9062 64.4668C36.3711 64.4668 36.779 64.5443 37.1299 64.6992C37.4854 64.8496 37.7793 65.0775 38.0117 65.3828C38.2441 65.6836 38.4196 66.0573 38.5381 66.5039C38.6566 66.9505 38.7158 67.4701 38.7158 68.0625V68.9375H33.7598V67.5908H36.8359V67.4199C36.8359 67.1191 36.804 66.8685 36.7402 66.668C36.6764 66.4629 36.5762 66.3102 36.4395 66.21C36.3027 66.1097 36.1204 66.0596 35.8926 66.0596C35.7012 66.0596 35.5394 66.0983 35.4072 66.1758C35.2751 66.2533 35.1702 66.374 35.0928 66.5381C35.0153 66.7021 34.9583 66.9163 34.9219 67.1807C34.8854 67.4404 34.8672 67.7526 34.8672 68.1172V68.7256C34.8672 69.0674 34.8968 69.3545 34.9561 69.5869C35.0153 69.8148 35.1019 70.0016 35.2158 70.1475C35.3343 70.2887 35.4779 70.3913 35.6465 70.4551C35.8151 70.5143 36.0111 70.5439 36.2344 70.5439C36.5716 70.5439 36.8747 70.4847 37.1436 70.3662C37.417 70.2432 37.6494 70.0768 37.8408 69.8672L38.6064 71.0293C38.4743 71.2025 38.292 71.3757 38.0596 71.5488C37.8271 71.722 37.5492 71.8633 37.2256 71.9727C36.902 72.082 36.5283 72.1367 36.1045 72.1367ZM43.7129 64.6035H45.4492V72C45.4492 72.6745 45.3193 73.2259 45.0596 73.6543C44.8044 74.0872 44.4466 74.404 43.9863 74.6045C43.5306 74.8096 42.9974 74.9121 42.3867 74.9121C42.1543 74.9121 41.8923 74.8802 41.6006 74.8164C41.3135 74.7526 41.0355 74.6546 40.7666 74.5225C40.4977 74.3949 40.2767 74.2399 40.1035 74.0576L40.7529 72.7314C40.9307 72.9092 41.1631 73.0596 41.4502 73.1826C41.7373 73.3102 42.0199 73.374 42.2979 73.374C42.5667 73.374 42.79 73.3307 42.9678 73.2441C43.1501 73.1621 43.2868 73.0208 43.3779 72.8203C43.4736 72.6198 43.5215 72.3509 43.5215 72.0137V66.3193L43.7129 64.6035ZM39.584 68.5615V68.0693C39.584 67.4678 39.641 66.9414 39.7549 66.4902C39.8688 66.0391 40.0329 65.6631 40.2471 65.3623C40.4613 65.0615 40.7233 64.8382 41.0332 64.6924C41.3477 64.542 41.6986 64.4668 42.0859 64.4668C42.4915 64.4668 42.8311 64.5557 43.1045 64.7334C43.3779 64.9066 43.599 65.1504 43.7676 65.4648C43.9408 65.7793 44.0729 66.1507 44.1641 66.5791C44.2598 67.0075 44.3327 67.4769 44.3828 67.9873V68.6982C44.3327 69.1813 44.2507 69.6325 44.1367 70.0518C44.0273 70.471 43.8815 70.8356 43.6992 71.1455C43.5169 71.4554 43.2936 71.6992 43.0293 71.877C42.765 72.0501 42.446 72.1367 42.0723 72.1367C41.6895 72.1367 41.3431 72.0592 41.0332 71.9043C40.7279 71.7493 40.4658 71.5215 40.2471 71.2207C40.0329 70.9154 39.8688 70.5417 39.7549 70.0996C39.641 69.653 39.584 69.1403 39.584 68.5615ZM41.5049 68.0693V68.5615C41.5049 68.9079 41.5254 69.2064 41.5664 69.457C41.612 69.7031 41.6803 69.9059 41.7715 70.0654C41.8626 70.2204 41.9788 70.3366 42.1201 70.4141C42.266 70.487 42.4368 70.5234 42.6328 70.5234C42.9108 70.5234 43.1318 70.4596 43.2959 70.332C43.4645 70.1999 43.5876 70.0199 43.665 69.792C43.7471 69.5596 43.7926 69.293 43.8018 68.9922V67.7002C43.7972 67.4495 43.7676 67.224 43.7129 67.0234C43.6628 66.8229 43.5921 66.652 43.501 66.5107C43.4098 66.3695 43.2913 66.2601 43.1455 66.1826C43.0042 66.1051 42.8379 66.0664 42.6465 66.0664C42.4505 66.0664 42.2819 66.1051 42.1406 66.1826C41.9993 66.2601 41.8809 66.3809 41.7852 66.5449C41.694 66.7044 41.6234 66.9118 41.5732 67.167C41.5277 67.4176 41.5049 67.7184 41.5049 68.0693ZM48.8877 64.6035V72H46.9668V64.6035H48.8877ZM46.8779 62.6895C46.8779 62.3932 46.9714 62.1494 47.1582 61.958C47.3496 61.762 47.6048 61.6641 47.9238 61.6641C48.2474 61.6641 48.5026 61.762 48.6895 61.958C48.8763 62.1494 48.9697 62.3932 48.9697 62.6895C48.9697 62.9811 48.874 63.2249 48.6826 63.4209C48.4958 63.6123 48.2451 63.708 47.9307 63.708C47.6071 63.708 47.3496 63.6123 47.1582 63.4209C46.9714 63.2249 46.8779 62.9811 46.8779 62.6895ZM53.6865 70.0039C53.6865 69.8763 53.6432 69.7624 53.5566 69.6621C53.4701 69.5618 53.3333 69.4593 53.1465 69.3545C52.9596 69.2451 52.7113 69.1243 52.4014 68.9922C52.0641 68.8555 51.7656 68.7142 51.5059 68.5684C51.2461 68.4225 51.0251 68.2607 50.8428 68.083C50.665 67.9053 50.5306 67.7025 50.4395 67.4746C50.3483 67.2467 50.3027 66.987 50.3027 66.6953C50.3027 66.3809 50.3597 66.0915 50.4736 65.8271C50.5921 65.5583 50.7607 65.3236 50.9795 65.123C51.1982 64.918 51.4648 64.7585 51.7793 64.6445C52.0983 64.526 52.4561 64.4668 52.8525 64.4668C53.4085 64.4668 53.8848 64.5648 54.2812 64.7607C54.6823 64.9521 54.9899 65.221 55.2041 65.5674C55.4183 65.9137 55.5254 66.3171 55.5254 66.7773H53.6113C53.6113 66.6133 53.5863 66.4674 53.5361 66.3398C53.486 66.2077 53.404 66.1051 53.29 66.0322C53.1807 65.9593 53.0326 65.9229 52.8457 65.9229C52.709 65.9229 52.5859 65.9525 52.4766 66.0117C52.3717 66.071 52.2874 66.1507 52.2236 66.251C52.1644 66.3467 52.1348 66.4606 52.1348 66.5928C52.1348 66.693 52.1553 66.7819 52.1963 66.8594C52.2419 66.9368 52.3125 67.012 52.4082 67.085C52.5039 67.1579 52.6315 67.2354 52.791 67.3174C52.9551 67.3949 53.1556 67.4814 53.3926 67.5771C53.8848 67.7594 54.2881 67.9554 54.6025 68.165C54.9215 68.3747 55.1585 68.6208 55.3135 68.9033C55.4684 69.1813 55.5459 69.5254 55.5459 69.9355C55.5459 70.2637 55.4821 70.5622 55.3545 70.8311C55.2314 71.0999 55.0514 71.3324 54.8145 71.5283C54.5775 71.7243 54.2926 71.8747 53.96 71.9795C53.6318 72.0843 53.265 72.1367 52.8594 72.1367C52.2624 72.1367 51.7588 72.0182 51.3486 71.7812C50.9385 71.5443 50.6286 71.2412 50.4189 70.8721C50.2093 70.4984 50.1045 70.111 50.1045 69.71H51.9229C51.932 69.9561 51.9775 70.1497 52.0596 70.291C52.1462 70.4277 52.2624 70.5234 52.4082 70.5781C52.554 70.6328 52.7158 70.6602 52.8936 70.6602C53.0713 70.6602 53.2171 70.6374 53.3311 70.5918C53.4495 70.5417 53.5384 70.4665 53.5977 70.3662C53.6569 70.2614 53.6865 70.1406 53.6865 70.0039ZM59.9893 64.6035V66.0459H56.2158V64.6035H59.9893ZM57.084 62.7783H58.9912V69.7441C58.9912 69.9492 59.0117 70.1064 59.0527 70.2158C59.0938 70.3252 59.1553 70.4027 59.2373 70.4482C59.3239 70.4893 59.4378 70.5098 59.5791 70.5098C59.6748 70.5098 59.7637 70.5052 59.8457 70.4961C59.9277 70.4824 59.9893 70.4688 60.0303 70.4551V71.9521C59.8799 72.0114 59.7204 72.057 59.5518 72.0889C59.3877 72.1208 59.1917 72.1367 58.9639 72.1367C58.5811 72.1367 58.2484 72.0638 57.9658 71.918C57.6878 71.7721 57.4714 71.5397 57.3164 71.2207C57.1615 70.8971 57.084 70.4733 57.084 69.9492V62.7783ZM64.3164 70.2979V66.8799C64.3164 66.6566 64.2891 66.4788 64.2344 66.3467C64.1842 66.2145 64.1068 66.1188 64.002 66.0596C63.9017 65.9958 63.7786 65.9639 63.6328 65.9639C63.4688 65.9639 63.332 65.998 63.2227 66.0664C63.1133 66.1348 63.0312 66.2327 62.9766 66.3604C62.9264 66.488 62.9014 66.6406 62.9014 66.8184H60.9805C60.9805 66.4993 61.042 66.1986 61.165 65.916C61.2881 65.6289 61.4681 65.3783 61.7051 65.1641C61.9466 64.9453 62.2337 64.7744 62.5664 64.6514C62.8991 64.5283 63.2728 64.4668 63.6875 64.4668C64.1797 64.4668 64.6172 64.5511 65 64.7197C65.3828 64.8838 65.6859 65.1458 65.9092 65.5059C66.1325 65.8659 66.2441 66.333 66.2441 66.9072V70.2021C66.2441 70.6169 66.2646 70.9541 66.3057 71.2139C66.3512 71.4736 66.4173 71.6969 66.5039 71.8838V72H64.5762C64.4896 71.7949 64.4235 71.5397 64.3779 71.2344C64.3369 70.9245 64.3164 70.6123 64.3164 70.2979ZM64.5488 67.4814L64.5557 68.6299H63.8516C63.6693 68.6299 63.5098 68.6595 63.373 68.7188C63.2409 68.778 63.1292 68.8623 63.0381 68.9717C62.9469 69.0765 62.8786 69.1995 62.833 69.3408C62.792 69.4821 62.7715 69.6325 62.7715 69.792C62.7715 69.9697 62.7965 70.1201 62.8467 70.2432C62.8968 70.3662 62.972 70.4596 63.0723 70.5234C63.1725 70.5872 63.291 70.6191 63.4277 70.6191C63.6374 70.6191 63.8197 70.5758 63.9746 70.4893C64.1296 70.4027 64.2435 70.2979 64.3164 70.1748C64.3939 70.0518 64.4189 69.9378 64.3916 69.833L64.8291 70.5781C64.7744 70.7467 64.6992 70.9222 64.6035 71.1045C64.5124 71.2868 64.3962 71.4554 64.2549 71.6104C64.1136 71.7653 63.9382 71.8929 63.7285 71.9932C63.5234 72.0889 63.2796 72.1367 62.9971 72.1367C62.6006 72.1367 62.2383 72.0456 61.9102 71.8633C61.582 71.681 61.3223 71.4258 61.1309 71.0977C60.944 70.7695 60.8506 70.3799 60.8506 69.9287C60.8506 69.555 60.9098 69.2178 61.0283 68.917C61.1514 68.6117 61.3337 68.3542 61.5752 68.1445C61.8167 67.9303 62.1221 67.7663 62.4912 67.6523C62.8604 67.5384 63.2933 67.4814 63.79 67.4814H64.5488ZM69.5732 66.251V72H67.6592V64.6035H69.4639L69.5732 66.251ZM71.3164 64.5488L71.2891 66.4561C71.2025 66.4378 71.0977 66.4242 70.9746 66.415C70.8561 66.4059 70.7513 66.4014 70.6602 66.4014C70.446 66.4014 70.2637 66.4355 70.1133 66.5039C69.9629 66.5677 69.8376 66.6657 69.7373 66.7979C69.6416 66.9255 69.5687 67.085 69.5186 67.2764C69.4684 67.4678 69.4388 67.6842 69.4297 67.9258L69.0674 67.7891C69.0674 67.306 69.1038 66.8639 69.1768 66.4629C69.2542 66.0573 69.3682 65.7064 69.5186 65.4102C69.6689 65.1094 69.849 64.877 70.0586 64.7129C70.2728 64.5488 70.5143 64.4668 70.7832 64.4668C70.8743 64.4668 70.9701 64.4759 71.0703 64.4941C71.1751 64.5078 71.2572 64.526 71.3164 64.5488ZM75.5752 70.0039C75.5752 69.8763 75.5319 69.7624 75.4453 69.6621C75.3587 69.5618 75.222 69.4593 75.0352 69.3545C74.8483 69.2451 74.5999 69.1243 74.29 68.9922C73.9528 68.8555 73.6543 68.7142 73.3945 68.5684C73.1348 68.4225 72.9137 68.2607 72.7314 68.083C72.5537 67.9053 72.4193 67.7025 72.3281 67.4746C72.237 67.2467 72.1914 66.987 72.1914 66.6953C72.1914 66.3809 72.2484 66.0915 72.3623 65.8271C72.4808 65.5583 72.6494 65.3236 72.8682 65.123C73.0869 64.918 73.3535 64.7585 73.668 64.6445C73.987 64.526 74.3447 64.4668 74.7412 64.4668C75.2972 64.4668 75.7734 64.5648 76.1699 64.7607C76.571 64.9521 76.8786 65.221 77.0928 65.5674C77.307 65.9137 77.4141 66.3171 77.4141 66.7773H75.5C75.5 66.6133 75.4749 66.4674 75.4248 66.3398C75.3747 66.2077 75.2926 66.1051 75.1787 66.0322C75.0693 65.9593 74.9212 65.9229 74.7344 65.9229C74.5977 65.9229 74.4746 65.9525 74.3652 66.0117C74.2604 66.071 74.1761 66.1507 74.1123 66.251C74.0531 66.3467 74.0234 66.4606 74.0234 66.5928C74.0234 66.693 74.0439 66.7819 74.085 66.8594C74.1305 66.9368 74.2012 67.012 74.2969 67.085C74.3926 67.1579 74.5202 67.2354 74.6797 67.3174C74.8438 67.3949 75.0443 67.4814 75.2812 67.5771C75.7734 67.7594 76.1768 67.9554 76.4912 68.165C76.8102 68.3747 77.0472 68.6208 77.2021 68.9033C77.3571 69.1813 77.4346 69.5254 77.4346 69.9355C77.4346 70.2637 77.3708 70.5622 77.2432 70.8311C77.1201 71.0999 76.9401 71.3324 76.7031 71.5283C76.4661 71.7243 76.1813 71.8747 75.8486 71.9795C75.5205 72.0843 75.1536 72.1367 74.748 72.1367C74.151 72.1367 73.6475 72.0182 73.2373 71.7812C72.8271 71.5443 72.5173 71.2412 72.3076 70.8721C72.098 70.4984 71.9932 70.111 71.9932 69.71H73.8115C73.8206 69.9561 73.8662 70.1497 73.9482 70.291C74.0348 70.4277 74.151 70.5234 74.2969 70.5781C74.4427 70.6328 74.6045 70.6602 74.7822 70.6602C74.96 70.6602 75.1058 70.6374 75.2197 70.5918C75.3382 70.5417 75.4271 70.4665 75.4863 70.3662C75.5456 70.2614 75.5752 70.1406 75.5752 70.0039ZM80.5654 61.4932V72H78.6514V61.4932H80.5654ZM84.4551 64.6035L81.8506 68.2812L80.2852 70.0381L79.6084 68.582L80.8115 66.8252L82.1719 64.6035H84.4551ZM82.459 72L80.8457 68.6025L82.165 67.3857L84.6533 72H82.459ZM88.1943 72.1367C87.6885 72.1367 87.2396 72.0592 86.8477 71.9043C86.4603 71.7493 86.1322 71.526 85.8633 71.2344C85.5944 70.9382 85.3893 70.5804 85.248 70.1611C85.1068 69.7419 85.0361 69.2633 85.0361 68.7256V68.1172C85.0361 67.5156 85.1045 66.9893 85.2412 66.5381C85.3779 66.0824 85.5716 65.6995 85.8223 65.3896C86.0729 65.0798 86.3805 64.8496 86.7451 64.6992C87.1143 64.5443 87.5312 64.4668 87.9961 64.4668C88.4609 64.4668 88.8688 64.5443 89.2197 64.6992C89.5752 64.8496 89.8691 65.0775 90.1016 65.3828C90.334 65.6836 90.5094 66.0573 90.6279 66.5039C90.7464 66.9505 90.8057 67.4701 90.8057 68.0625V68.9375H85.8496V67.5908H88.9258V67.4199C88.9258 67.1191 88.8939 66.8685 88.8301 66.668C88.7663 66.4629 88.666 66.3102 88.5293 66.21C88.3926 66.1097 88.2103 66.0596 87.9824 66.0596C87.791 66.0596 87.6292 66.0983 87.4971 66.1758C87.3649 66.2533 87.2601 66.374 87.1826 66.5381C87.1051 66.7021 87.0482 66.9163 87.0117 67.1807C86.9753 67.4404 86.957 67.7526 86.957 68.1172V68.7256C86.957 69.0674 86.9867 69.3545 87.0459 69.5869C87.1051 69.8148 87.1917 70.0016 87.3057 70.1475C87.4242 70.2887 87.5677 70.3913 87.7363 70.4551C87.9049 70.5143 88.1009 70.5439 88.3242 70.5439C88.6615 70.5439 88.9645 70.4847 89.2334 70.3662C89.5068 70.2432 89.7393 70.0768 89.9307 69.8672L90.6963 71.0293C90.5641 71.2025 90.3818 71.3757 90.1494 71.5488C89.917 71.722 89.639 71.8633 89.3154 71.9727C88.9919 72.082 88.6182 72.1367 88.1943 72.1367ZM97.0537 66.0254V74.8438H95.1465V64.6035H96.9102L97.0537 66.0254ZM100.896 68.0488V68.541C100.896 69.1198 100.845 69.6325 100.745 70.0791C100.645 70.5212 100.494 70.8971 100.294 71.207C100.098 71.5124 99.8519 71.7448 99.5557 71.9043C99.2594 72.0592 98.9131 72.1367 98.5166 72.1367C98.1475 72.1367 97.8285 72.0501 97.5596 71.877C97.2952 71.6992 97.0719 71.4554 96.8896 71.1455C96.7074 70.8356 96.5615 70.4733 96.4521 70.0586C96.3428 69.6439 96.2585 69.1995 96.1992 68.7256V67.96C96.2539 67.4541 96.3337 66.9893 96.4385 66.5654C96.5433 66.137 96.6868 65.7656 96.8691 65.4512C97.056 65.1367 97.2816 64.8952 97.5459 64.7266C97.8148 64.5534 98.1338 64.4668 98.5029 64.4668C98.904 64.4668 99.2526 64.5397 99.5488 64.6855C99.8496 64.8314 100.098 65.0524 100.294 65.3486C100.494 65.6403 100.645 66.0117 100.745 66.4629C100.845 66.9141 100.896 67.4427 100.896 68.0488ZM98.9814 68.541V68.0488C98.9814 67.6934 98.9609 67.3903 98.9199 67.1396C98.8835 66.889 98.8242 66.6839 98.7422 66.5244C98.6602 66.3649 98.5531 66.2487 98.4209 66.1758C98.2887 66.1029 98.127 66.0664 97.9355 66.0664C97.7487 66.0664 97.5846 66.1029 97.4434 66.1758C97.3066 66.2487 97.195 66.3558 97.1084 66.4971C97.0218 66.6338 96.9557 66.8024 96.9102 67.0029C96.8646 67.1989 96.8395 67.4222 96.835 67.6729V69.0127C96.8441 69.3089 96.8828 69.571 96.9512 69.7988C97.0241 70.0267 97.1403 70.209 97.2998 70.3457C97.4593 70.4779 97.6758 70.5439 97.9492 70.5439C98.1452 70.5439 98.307 70.5029 98.4346 70.4209C98.5667 70.3389 98.6738 70.2158 98.7559 70.0518C98.8379 69.8877 98.8949 69.6803 98.9268 69.4297C98.9632 69.179 98.9814 68.8828 98.9814 68.541ZM104.081 61.5V72H102.16V61.5H104.081ZM105.38 68.5547V68.0557C105.38 67.4769 105.448 66.9642 105.585 66.5176C105.726 66.071 105.927 65.6973 106.187 65.3965C106.446 65.0911 106.758 64.861 107.123 64.7061C107.492 64.5465 107.905 64.4668 108.36 64.4668C108.821 64.4668 109.233 64.5465 109.598 64.7061C109.967 64.861 110.281 65.0911 110.541 65.3965C110.805 65.6973 111.008 66.071 111.149 66.5176C111.291 66.9642 111.361 67.4769 111.361 68.0557V68.5547C111.361 69.1289 111.291 69.6393 111.149 70.0859C111.008 70.5326 110.805 70.9085 110.541 71.2139C110.281 71.5192 109.969 71.7493 109.604 71.9043C109.24 72.0592 108.83 72.1367 108.374 72.1367C107.918 72.1367 107.506 72.0592 107.137 71.9043C106.772 71.7493 106.458 71.5192 106.193 71.2139C105.929 70.9085 105.726 70.5326 105.585 70.0859C105.448 69.6393 105.38 69.1289 105.38 68.5547ZM107.294 68.0557V68.5547C107.294 68.8965 107.317 69.1927 107.362 69.4434C107.412 69.694 107.483 69.9014 107.574 70.0654C107.67 70.2295 107.784 70.3503 107.916 70.4277C108.048 70.5052 108.201 70.5439 108.374 70.5439C108.547 70.5439 108.702 70.5052 108.839 70.4277C108.976 70.3503 109.087 70.2295 109.174 70.0654C109.265 69.9014 109.331 69.694 109.372 69.4434C109.418 69.1927 109.44 68.8965 109.44 68.5547V68.0557C109.44 67.723 109.415 67.4313 109.365 67.1807C109.315 66.9255 109.244 66.7181 109.153 66.5586C109.062 66.3945 108.948 66.2715 108.812 66.1895C108.679 66.1029 108.529 66.0596 108.36 66.0596C108.192 66.0596 108.041 66.1029 107.909 66.1895C107.782 66.2715 107.67 66.3945 107.574 66.5586C107.483 66.7181 107.412 66.9255 107.362 67.1807C107.317 67.4313 107.294 67.723 107.294 68.0557ZM115.244 70.5439C115.422 70.5439 115.575 70.5075 115.702 70.4346C115.834 70.3617 115.935 70.2432 116.003 70.0791C116.071 69.915 116.108 69.7031 116.112 69.4434H117.91C117.91 69.9993 117.792 70.4801 117.555 70.8857C117.322 71.2868 117.008 71.5967 116.611 71.8154C116.219 72.0296 115.775 72.1367 115.278 72.1367C114.782 72.1367 114.349 72.057 113.979 71.8975C113.61 71.738 113.305 71.5055 113.063 71.2002C112.826 70.8949 112.646 70.5234 112.523 70.0859C112.405 69.6439 112.346 69.138 112.346 68.5684V68.0283C112.346 67.4678 112.405 66.9665 112.523 66.5244C112.646 66.0824 112.826 65.7087 113.063 65.4033C113.305 65.098 113.608 64.8656 113.973 64.7061C114.342 64.5465 114.775 64.4668 115.271 64.4668C115.805 64.4668 116.267 64.5785 116.659 64.8018C117.051 65.0205 117.356 65.3441 117.575 65.7725C117.799 66.2008 117.91 66.7295 117.91 67.3584H116.112C116.108 67.0758 116.074 66.8411 116.01 66.6543C115.951 66.4629 115.857 66.3171 115.729 66.2168C115.606 66.112 115.442 66.0596 115.237 66.0596C115.023 66.0596 114.85 66.1051 114.718 66.1963C114.59 66.2829 114.492 66.4105 114.424 66.5791C114.36 66.7432 114.317 66.9482 114.294 67.1943C114.271 67.4404 114.26 67.7184 114.26 68.0283V68.5684C114.26 68.901 114.269 69.1904 114.287 69.4365C114.31 69.6781 114.353 69.8831 114.417 70.0518C114.485 70.2158 114.583 70.3389 114.711 70.4209C114.843 70.5029 115.021 70.5439 115.244 70.5439ZM114.26 61.4932L115.046 62.4639L115.839 61.4932H117.466V61.5615L115.647 63.4824H114.465L112.633 61.5547V61.4932H114.26ZM121.021 64.6035V72H119.1V64.6035H121.021ZM119.011 62.6895C119.011 62.3932 119.104 62.1494 119.291 61.958C119.482 61.762 119.738 61.6641 120.057 61.6641C120.38 61.6641 120.635 61.762 120.822 61.958C121.009 62.1494 121.103 62.3932 121.103 62.6895C121.103 62.9811 121.007 63.2249 120.815 63.4209C120.629 63.6123 120.378 63.708 120.063 63.708C119.74 63.708 119.482 63.6123 119.291 63.4209C119.104 63.2249 119.011 62.9811 119.011 62.6895ZM125.211 70.5439C125.389 70.5439 125.541 70.5075 125.669 70.4346C125.801 70.3617 125.901 70.2432 125.97 70.0791C126.038 69.915 126.075 69.7031 126.079 69.4434H127.877C127.877 69.9993 127.758 70.4801 127.521 70.8857C127.289 71.2868 126.975 71.5967 126.578 71.8154C126.186 72.0296 125.742 72.1367 125.245 72.1367C124.748 72.1367 124.315 72.057 123.946 71.8975C123.577 71.738 123.272 71.5055 123.03 71.2002C122.793 70.8949 122.613 70.5234 122.49 70.0859C122.372 69.6439 122.312 69.138 122.312 68.5684V68.0283C122.312 67.4678 122.372 66.9665 122.49 66.5244C122.613 66.0824 122.793 65.7087 123.03 65.4033C123.272 65.098 123.575 64.8656 123.939 64.7061C124.309 64.5465 124.742 64.4668 125.238 64.4668C125.771 64.4668 126.234 64.5785 126.626 64.8018C127.018 65.0205 127.323 65.3441 127.542 65.7725C127.765 66.2008 127.877 66.7295 127.877 67.3584H126.079C126.075 67.0758 126.04 66.8411 125.977 66.6543C125.917 66.4629 125.824 66.3171 125.696 66.2168C125.573 66.112 125.409 66.0596 125.204 66.0596C124.99 66.0596 124.817 66.1051 124.685 66.1963C124.557 66.2829 124.459 66.4105 124.391 66.5791C124.327 66.7432 124.284 66.9482 124.261 67.1943C124.238 67.4404 124.227 67.7184 124.227 68.0283V68.5684C124.227 68.901 124.236 69.1904 124.254 69.4365C124.277 69.6781 124.32 69.8831 124.384 70.0518C124.452 70.2158 124.55 70.3389 124.678 70.4209C124.81 70.5029 124.988 70.5439 125.211 70.5439ZM131.958 72.1367C131.452 72.1367 131.003 72.0592 130.611 71.9043C130.224 71.7493 129.896 71.526 129.627 71.2344C129.358 70.9382 129.153 70.5804 129.012 70.1611C128.87 69.7419 128.8 69.2633 128.8 68.7256V68.1172C128.8 67.5156 128.868 66.9893 129.005 66.5381C129.142 66.0824 129.335 65.6995 129.586 65.3896C129.837 65.0798 130.144 64.8496 130.509 64.6992C130.878 64.5443 131.295 64.4668 131.76 64.4668C132.225 64.4668 132.632 64.5443 132.983 64.6992C133.339 64.8496 133.633 65.0775 133.865 65.3828C134.098 65.6836 134.273 66.0573 134.392 66.5039C134.51 66.9505 134.569 67.4701 134.569 68.0625V68.9375H129.613V67.5908H132.689V67.4199C132.689 67.1191 132.658 66.8685 132.594 66.668C132.53 66.4629 132.43 66.3102 132.293 66.21C132.156 66.1097 131.974 66.0596 131.746 66.0596C131.555 66.0596 131.393 66.0983 131.261 66.1758C131.129 66.2533 131.024 66.374 130.946 66.5381C130.869 66.7021 130.812 66.9163 130.775 67.1807C130.739 67.4404 130.721 67.7526 130.721 68.1172V68.7256C130.721 69.0674 130.75 69.3545 130.81 69.5869C130.869 69.8148 130.955 70.0016 131.069 70.1475C131.188 70.2887 131.331 70.3913 131.5 70.4551C131.669 70.5143 131.865 70.5439 132.088 70.5439C132.425 70.5439 132.728 70.4847 132.997 70.3662C133.271 70.2432 133.503 70.0768 133.694 69.8672L134.46 71.0293C134.328 71.2025 134.146 71.3757 133.913 71.5488C133.681 71.722 133.403 71.8633 133.079 71.9727C132.756 72.082 132.382 72.1367 131.958 72.1367Z" fill="url(#paint0_linear_363_3289)"/>
<path d="M376.198 62.0469V72H374.264L371.14 65.7725V72H369.239V62.0469H371.146L374.298 68.3428V62.0469H376.198ZM380.977 70.2979V66.8799C380.977 66.6566 380.949 66.4788 380.895 66.3467C380.844 66.2145 380.767 66.1188 380.662 66.0596C380.562 65.9958 380.439 65.9639 380.293 65.9639C380.129 65.9639 379.992 65.998 379.883 66.0664C379.773 66.1348 379.691 66.2327 379.637 66.3604C379.587 66.488 379.562 66.6406 379.562 66.8184H377.641C377.641 66.4993 377.702 66.1986 377.825 65.916C377.948 65.6289 378.128 65.3783 378.365 65.1641C378.607 64.9453 378.894 64.7744 379.227 64.6514C379.559 64.5283 379.933 64.4668 380.348 64.4668C380.84 64.4668 381.277 64.5511 381.66 64.7197C382.043 64.8838 382.346 65.1458 382.569 65.5059C382.793 65.8659 382.904 66.333 382.904 66.9072V70.2021C382.904 70.6169 382.925 70.9541 382.966 71.2139C383.011 71.4736 383.077 71.6969 383.164 71.8838V72H381.236C381.15 71.7949 381.084 71.5397 381.038 71.2344C380.997 70.9245 380.977 70.6123 380.977 70.2979ZM381.209 67.4814L381.216 68.6299H380.512C380.329 68.6299 380.17 68.6595 380.033 68.7188C379.901 68.778 379.789 68.8623 379.698 68.9717C379.607 69.0765 379.539 69.1995 379.493 69.3408C379.452 69.4821 379.432 69.6325 379.432 69.792C379.432 69.9697 379.457 70.1201 379.507 70.2432C379.557 70.3662 379.632 70.4596 379.732 70.5234C379.833 70.5872 379.951 70.6191 380.088 70.6191C380.298 70.6191 380.48 70.5758 380.635 70.4893C380.79 70.4027 380.904 70.2979 380.977 70.1748C381.054 70.0518 381.079 69.9378 381.052 69.833L381.489 70.5781C381.435 70.7467 381.359 70.9222 381.264 71.1045C381.173 71.2868 381.056 71.4554 380.915 71.6104C380.774 71.7653 380.598 71.8929 380.389 71.9932C380.184 72.0889 379.94 72.1367 379.657 72.1367C379.261 72.1367 378.898 72.0456 378.57 71.8633C378.242 71.681 377.982 71.4258 377.791 71.0977C377.604 70.7695 377.511 70.3799 377.511 69.9287C377.511 69.555 377.57 69.2178 377.688 68.917C377.812 68.6117 377.994 68.3542 378.235 68.1445C378.477 67.9303 378.782 67.7663 379.151 67.6523C379.521 67.5384 379.953 67.4814 380.45 67.4814H381.209ZM386.233 66.0254V74.8438H384.326V64.6035H386.09L386.233 66.0254ZM390.075 68.0488V68.541C390.075 69.1198 390.025 69.6325 389.925 70.0791C389.825 70.5212 389.674 70.8971 389.474 71.207C389.278 71.5124 389.032 71.7448 388.735 71.9043C388.439 72.0592 388.093 72.1367 387.696 72.1367C387.327 72.1367 387.008 72.0501 386.739 71.877C386.475 71.6992 386.252 71.4554 386.069 71.1455C385.887 70.8356 385.741 70.4733 385.632 70.0586C385.522 69.6439 385.438 69.1995 385.379 68.7256V67.96C385.434 67.4541 385.513 66.9893 385.618 66.5654C385.723 66.137 385.867 65.7656 386.049 65.4512C386.236 65.1367 386.461 64.8952 386.726 64.7266C386.994 64.5534 387.313 64.4668 387.683 64.4668C388.084 64.4668 388.432 64.5397 388.729 64.6855C389.029 64.8314 389.278 65.0524 389.474 65.3486C389.674 65.6403 389.825 66.0117 389.925 66.4629C390.025 66.9141 390.075 67.4427 390.075 68.0488ZM388.161 68.541V68.0488C388.161 67.6934 388.141 67.3903 388.1 67.1396C388.063 66.889 388.004 66.6839 387.922 66.5244C387.84 66.3649 387.733 66.2487 387.601 66.1758C387.468 66.1029 387.307 66.0664 387.115 66.0664C386.928 66.0664 386.764 66.1029 386.623 66.1758C386.486 66.2487 386.375 66.3558 386.288 66.4971C386.201 66.6338 386.135 66.8024 386.09 67.0029C386.044 67.1989 386.019 67.4222 386.015 67.6729V69.0127C386.024 69.3089 386.062 69.571 386.131 69.7988C386.204 70.0267 386.32 70.209 386.479 70.3457C386.639 70.4779 386.855 70.5439 387.129 70.5439C387.325 70.5439 387.487 70.5029 387.614 70.4209C387.746 70.3389 387.854 70.2158 387.936 70.0518C388.018 69.8877 388.075 69.6803 388.106 69.4297C388.143 69.179 388.161 68.8828 388.161 68.541ZM393.261 61.5V72H391.34V61.5H393.261ZM398.039 70.2979V66.8799C398.039 66.6566 398.012 66.4788 397.957 66.3467C397.907 66.2145 397.829 66.1188 397.725 66.0596C397.624 65.9958 397.501 65.9639 397.355 65.9639C397.191 65.9639 397.055 65.998 396.945 66.0664C396.836 66.1348 396.754 66.2327 396.699 66.3604C396.649 66.488 396.624 66.6406 396.624 66.8184H394.703C394.703 66.4993 394.765 66.1986 394.888 65.916C395.011 65.6289 395.191 65.3783 395.428 65.1641C395.669 64.9453 395.956 64.7744 396.289 64.6514C396.622 64.5283 396.995 64.4668 397.41 64.4668C397.902 64.4668 398.34 64.5511 398.723 64.7197C399.105 64.8838 399.409 65.1458 399.632 65.5059C399.855 65.8659 399.967 66.333 399.967 66.9072V70.2021C399.967 70.6169 399.987 70.9541 400.028 71.2139C400.074 71.4736 400.14 71.6969 400.227 71.8838V72H398.299C398.212 71.7949 398.146 71.5397 398.101 71.2344C398.06 70.9245 398.039 70.6123 398.039 70.2979ZM398.271 67.4814L398.278 68.6299H397.574C397.392 68.6299 397.232 68.6595 397.096 68.7188C396.964 68.778 396.852 68.8623 396.761 68.9717C396.67 69.0765 396.601 69.1995 396.556 69.3408C396.515 69.4821 396.494 69.6325 396.494 69.792C396.494 69.9697 396.519 70.1201 396.569 70.2432C396.619 70.3662 396.695 70.4596 396.795 70.5234C396.895 70.5872 397.014 70.6191 397.15 70.6191C397.36 70.6191 397.542 70.5758 397.697 70.4893C397.852 70.4027 397.966 70.2979 398.039 70.1748C398.117 70.0518 398.142 69.9378 398.114 69.833L398.552 70.5781C398.497 70.7467 398.422 70.9222 398.326 71.1045C398.235 71.2868 398.119 71.4554 397.978 71.6104C397.836 71.7653 397.661 71.8929 397.451 71.9932C397.246 72.0889 397.002 72.1367 396.72 72.1367C396.323 72.1367 395.961 72.0456 395.633 71.8633C395.305 71.681 395.045 71.4258 394.854 71.0977C394.667 70.7695 394.573 70.3799 394.573 69.9287C394.573 69.555 394.632 69.2178 394.751 68.917C394.874 68.6117 395.056 68.3542 395.298 68.1445C395.539 67.9303 395.845 67.7663 396.214 67.6523C396.583 67.5384 397.016 67.4814 397.513 67.4814H398.271ZM404.608 64.6035V66.0459H400.835V64.6035H404.608ZM401.703 62.7783H403.61V69.7441C403.61 69.9492 403.631 70.1064 403.672 70.2158C403.713 70.3252 403.774 70.4027 403.856 70.4482C403.943 70.4893 404.057 70.5098 404.198 70.5098C404.294 70.5098 404.383 70.5052 404.465 70.4961C404.547 70.4824 404.608 70.4688 404.649 70.4551V71.9521C404.499 72.0114 404.34 72.057 404.171 72.0889C404.007 72.1208 403.811 72.1367 403.583 72.1367C403.2 72.1367 402.868 72.0638 402.585 71.918C402.307 71.7721 402.09 71.5397 401.936 71.2207C401.781 70.8971 401.703 70.4733 401.703 69.9492V62.7783ZM408.936 70.2979V66.8799C408.936 66.6566 408.908 66.4788 408.854 66.3467C408.803 66.2145 408.726 66.1188 408.621 66.0596C408.521 65.9958 408.398 65.9639 408.252 65.9639C408.088 65.9639 407.951 65.998 407.842 66.0664C407.732 66.1348 407.65 66.2327 407.596 66.3604C407.546 66.488 407.521 66.6406 407.521 66.8184H405.6C405.6 66.4993 405.661 66.1986 405.784 65.916C405.907 65.6289 406.087 65.3783 406.324 65.1641C406.566 64.9453 406.853 64.7744 407.186 64.6514C407.518 64.5283 407.892 64.4668 408.307 64.4668C408.799 64.4668 409.236 64.5511 409.619 64.7197C410.002 64.8838 410.305 65.1458 410.528 65.5059C410.752 65.8659 410.863 66.333 410.863 66.9072V70.2021C410.863 70.6169 410.884 70.9541 410.925 71.2139C410.97 71.4736 411.036 71.6969 411.123 71.8838V72H409.195C409.109 71.7949 409.043 71.5397 408.997 71.2344C408.956 70.9245 408.936 70.6123 408.936 70.2979ZM409.168 67.4814L409.175 68.6299H408.471C408.288 68.6299 408.129 68.6595 407.992 68.7188C407.86 68.778 407.748 68.8623 407.657 68.9717C407.566 69.0765 407.498 69.1995 407.452 69.3408C407.411 69.4821 407.391 69.6325 407.391 69.792C407.391 69.9697 407.416 70.1201 407.466 70.2432C407.516 70.3662 407.591 70.4596 407.691 70.5234C407.792 70.5872 407.91 70.6191 408.047 70.6191C408.257 70.6191 408.439 70.5758 408.594 70.4893C408.749 70.4027 408.863 70.2979 408.936 70.1748C409.013 70.0518 409.038 69.9378 409.011 69.833L409.448 70.5781C409.394 70.7467 409.318 70.9222 409.223 71.1045C409.132 71.2868 409.015 71.4554 408.874 71.6104C408.733 71.7653 408.557 71.8929 408.348 71.9932C408.143 72.0889 407.899 72.1367 407.616 72.1367C407.22 72.1367 406.857 72.0456 406.529 71.8633C406.201 71.681 405.941 71.4258 405.75 71.0977C405.563 70.7695 405.47 70.3799 405.47 69.9287C405.47 69.555 405.529 69.2178 405.647 68.917C405.771 68.6117 405.953 68.3542 406.194 68.1445C406.436 67.9303 406.741 67.7663 407.11 67.6523C407.479 67.5384 407.912 67.4814 408.409 67.4814H409.168Z" fill="#E0E0E9"/>
<path d="M674.489 65.4932H672.452V63.832H674.489C674.772 63.832 675.002 63.7682 675.18 63.6406C675.362 63.513 675.494 63.3376 675.576 63.1143C675.658 62.8864 675.699 62.6312 675.699 62.3486C675.699 62.0615 675.656 61.7949 675.569 61.5488C675.487 61.2982 675.357 61.0954 675.18 60.9404C675.007 60.7855 674.776 60.708 674.489 60.708H673.095V69H671.099V59.0469H674.489C675.159 59.0469 675.736 59.1882 676.219 59.4707C676.702 59.7533 677.071 60.1429 677.326 60.6396C677.586 61.1318 677.716 61.6969 677.716 62.335C677.716 62.9775 677.586 63.5358 677.326 64.0098C677.071 64.4792 676.702 64.8438 676.219 65.1035C675.736 65.3633 675.159 65.4932 674.489 65.4932ZM680.874 63.251V69H678.96V61.6035H680.765L680.874 63.251ZM682.617 61.5488L682.59 63.4561C682.503 63.4378 682.398 63.4242 682.275 63.415C682.157 63.4059 682.052 63.4014 681.961 63.4014C681.747 63.4014 681.564 63.4355 681.414 63.5039C681.264 63.5677 681.138 63.6657 681.038 63.7979C680.942 63.9255 680.869 64.085 680.819 64.2764C680.769 64.4678 680.74 64.6842 680.73 64.9258L680.368 64.7891C680.368 64.306 680.405 63.8639 680.478 63.4629C680.555 63.0573 680.669 62.7064 680.819 62.4102C680.97 62.1094 681.15 61.877 681.359 61.7129C681.574 61.5488 681.815 61.4668 682.084 61.4668C682.175 61.4668 682.271 61.4759 682.371 61.4941C682.476 61.5078 682.558 61.526 682.617 61.5488ZM683.13 65.5547V65.0557C683.13 64.4769 683.198 63.9642 683.335 63.5176C683.476 63.071 683.677 62.6973 683.937 62.3965C684.196 62.0911 684.508 61.861 684.873 61.7061C685.242 61.5465 685.655 61.4668 686.11 61.4668C686.571 61.4668 686.983 61.5465 687.348 61.7061C687.717 61.861 688.031 62.0911 688.291 62.3965C688.555 62.6973 688.758 63.071 688.899 63.5176C689.041 63.9642 689.111 64.4769 689.111 65.0557V65.5547C689.111 66.1289 689.041 66.6393 688.899 67.0859C688.758 67.5326 688.555 67.9085 688.291 68.2139C688.031 68.5192 687.719 68.7493 687.354 68.9043C686.99 69.0592 686.58 69.1367 686.124 69.1367C685.668 69.1367 685.256 69.0592 684.887 68.9043C684.522 68.7493 684.208 68.5192 683.943 68.2139C683.679 67.9085 683.476 67.5326 683.335 67.0859C683.198 66.6393 683.13 66.1289 683.13 65.5547ZM685.044 65.0557V65.5547C685.044 65.8965 685.067 66.1927 685.112 66.4434C685.162 66.694 685.233 66.9014 685.324 67.0654C685.42 67.2295 685.534 67.3503 685.666 67.4277C685.798 67.5052 685.951 67.5439 686.124 67.5439C686.297 67.5439 686.452 67.5052 686.589 67.4277C686.726 67.3503 686.837 67.2295 686.924 67.0654C687.015 66.9014 687.081 66.694 687.122 66.4434C687.168 66.1927 687.19 65.8965 687.19 65.5547V65.0557C687.19 64.723 687.165 64.4313 687.115 64.1807C687.065 63.9255 686.994 63.7181 686.903 63.5586C686.812 63.3945 686.698 63.2715 686.562 63.1895C686.429 63.1029 686.279 63.0596 686.11 63.0596C685.942 63.0596 685.791 63.1029 685.659 63.1895C685.532 63.2715 685.42 63.3945 685.324 63.5586C685.233 63.7181 685.162 63.9255 685.112 64.1807C685.067 64.4313 685.044 64.723 685.044 65.0557ZM692.393 67.5234L693.582 61.6035H695.578L693.548 69H692.352L692.393 67.5234ZM691.688 61.6035L692.898 67.5303L692.919 69H691.716L689.686 61.6035H691.688ZM696.59 61.6035H698.518V69.4102C698.518 69.9661 698.429 70.4355 698.251 70.8184C698.078 71.2012 697.827 71.4906 697.499 71.6865C697.171 71.887 696.774 71.9873 696.31 71.9873C696.159 71.9873 696.011 71.9782 695.865 71.96C695.719 71.9417 695.571 71.9121 695.421 71.8711L695.428 70.3125C695.519 70.3307 695.608 70.3444 695.694 70.3535C695.776 70.3626 695.858 70.3672 695.94 70.3672C696.086 70.3672 696.207 70.333 696.303 70.2646C696.398 70.2008 696.469 70.0983 696.515 69.957C696.565 69.8158 696.59 69.6335 696.59 69.4102V61.6035ZM696.46 59.6895C696.46 59.3932 696.556 59.1494 696.747 58.958C696.938 58.762 697.191 58.6641 697.506 58.6641C697.825 58.6641 698.08 58.762 698.271 58.958C698.463 59.1494 698.559 59.3932 698.559 59.6895C698.559 59.9811 698.463 60.2249 698.271 60.4209C698.08 60.6123 697.825 60.708 697.506 60.708C697.191 60.708 696.938 60.6123 696.747 60.4209C696.556 60.2249 696.46 59.9811 696.46 59.6895ZM702.913 69.1367C702.407 69.1367 701.958 69.0592 701.566 68.9043C701.179 68.7493 700.851 68.526 700.582 68.2344C700.313 67.9382 700.108 67.5804 699.967 67.1611C699.826 66.7419 699.755 66.2633 699.755 65.7256V65.1172C699.755 64.5156 699.823 63.9893 699.96 63.5381C700.097 63.0824 700.29 62.6995 700.541 62.3896C700.792 62.0798 701.099 61.8496 701.464 61.6992C701.833 61.5443 702.25 61.4668 702.715 61.4668C703.18 61.4668 703.588 61.5443 703.938 61.6992C704.294 61.8496 704.588 62.0775 704.82 62.3828C705.053 62.6836 705.228 63.0573 705.347 63.5039C705.465 63.9505 705.524 64.4701 705.524 65.0625V65.9375H700.568V64.5908H703.645V64.4199C703.645 64.1191 703.613 63.8685 703.549 63.668C703.485 63.4629 703.385 63.3102 703.248 63.21C703.111 63.1097 702.929 63.0596 702.701 63.0596C702.51 63.0596 702.348 63.0983 702.216 63.1758C702.084 63.2533 701.979 63.374 701.901 63.5381C701.824 63.7021 701.767 63.9163 701.73 64.1807C701.694 64.4404 701.676 64.7526 701.676 65.1172V65.7256C701.676 66.0674 701.705 66.3545 701.765 66.5869C701.824 66.8148 701.91 67.0016 702.024 67.1475C702.143 67.2887 702.286 67.3913 702.455 67.4551C702.624 67.5143 702.82 67.5439 703.043 67.5439C703.38 67.5439 703.683 67.4847 703.952 67.3662C704.226 67.2432 704.458 67.0768 704.649 66.8672L705.415 68.0293C705.283 68.2025 705.101 68.3757 704.868 68.5488C704.636 68.722 704.358 68.8633 704.034 68.9727C703.711 69.082 703.337 69.1367 702.913 69.1367ZM708.546 63.251V69H706.632V61.6035H708.437L708.546 63.251ZM710.289 61.5488L710.262 63.4561C710.175 63.4378 710.07 63.4242 709.947 63.415C709.829 63.4059 709.724 63.4014 709.633 63.4014C709.419 63.4014 709.236 63.4355 709.086 63.5039C708.936 63.5677 708.81 63.6657 708.71 63.7979C708.614 63.9255 708.541 64.085 708.491 64.2764C708.441 64.4678 708.411 64.6842 708.402 64.9258L708.04 64.7891C708.04 64.306 708.076 63.8639 708.149 63.4629C708.227 63.0573 708.341 62.7064 708.491 62.4102C708.642 62.1094 708.822 61.877 709.031 61.7129C709.245 61.5488 709.487 61.4668 709.756 61.4668C709.847 61.4668 709.943 61.4759 710.043 61.4941C710.148 61.5078 710.23 61.526 710.289 61.5488ZM714.322 67.2979V63.8799C714.322 63.6566 714.295 63.4788 714.24 63.3467C714.19 63.2145 714.113 63.1188 714.008 63.0596C713.908 62.9958 713.785 62.9639 713.639 62.9639C713.475 62.9639 713.338 62.998 713.229 63.0664C713.119 63.1348 713.037 63.2327 712.982 63.3604C712.932 63.488 712.907 63.6406 712.907 63.8184H710.986C710.986 63.4993 711.048 63.1986 711.171 62.916C711.294 62.6289 711.474 62.3783 711.711 62.1641C711.952 61.9453 712.24 61.7744 712.572 61.6514C712.905 61.5283 713.279 61.4668 713.693 61.4668C714.186 61.4668 714.623 61.5511 715.006 61.7197C715.389 61.8838 715.692 62.1458 715.915 62.5059C716.138 62.8659 716.25 63.333 716.25 63.9072V67.2021C716.25 67.6169 716.271 67.9541 716.312 68.2139C716.357 68.4736 716.423 68.6969 716.51 68.8838V69H714.582C714.495 68.7949 714.429 68.5397 714.384 68.2344C714.343 67.9245 714.322 67.6123 714.322 67.2979ZM714.555 64.4814L714.562 65.6299H713.857C713.675 65.6299 713.516 65.6595 713.379 65.7188C713.247 65.778 713.135 65.8623 713.044 65.9717C712.953 66.0765 712.884 66.1995 712.839 66.3408C712.798 66.4821 712.777 66.6325 712.777 66.792C712.777 66.9697 712.802 67.1201 712.853 67.2432C712.903 67.3662 712.978 67.4596 713.078 67.5234C713.178 67.5872 713.297 67.6191 713.434 67.6191C713.643 67.6191 713.826 67.5758 713.98 67.4893C714.135 67.4027 714.249 67.2979 714.322 67.1748C714.4 67.0518 714.425 66.9378 714.397 66.833L714.835 67.5781C714.78 67.7467 714.705 67.9222 714.609 68.1045C714.518 68.2868 714.402 68.4554 714.261 68.6104C714.119 68.7653 713.944 68.8929 713.734 68.9932C713.529 69.0889 713.285 69.1367 713.003 69.1367C712.606 69.1367 712.244 69.0456 711.916 68.8633C711.588 68.681 711.328 68.4258 711.137 68.0977C710.95 67.7695 710.856 67.3799 710.856 66.9287C710.856 66.555 710.916 66.2178 711.034 65.917C711.157 65.6117 711.34 65.3542 711.581 65.1445C711.823 64.9303 712.128 64.7663 712.497 64.6523C712.866 64.5384 713.299 64.4814 713.796 64.4814H714.555ZM722.901 61.6035V69H720.98V61.6035H722.901ZM720.892 59.6895C720.892 59.3932 720.985 59.1494 721.172 58.958C721.363 58.762 721.618 58.6641 721.938 58.6641C722.261 58.6641 722.516 58.762 722.703 58.958C722.89 59.1494 722.983 59.3932 722.983 59.6895C722.983 59.9811 722.888 60.2249 722.696 60.4209C722.509 60.6123 722.259 60.708 721.944 60.708C721.621 60.708 721.363 60.6123 721.172 60.4209C720.985 60.2249 720.892 59.9811 720.892 59.6895ZM676.062 77.0254V85.8438H674.154V75.6035H675.918L676.062 77.0254ZM679.903 79.0488V79.541C679.903 80.1198 679.853 80.6325 679.753 81.0791C679.653 81.5212 679.502 81.8971 679.302 82.207C679.106 82.5124 678.86 82.7448 678.563 82.9043C678.267 83.0592 677.921 83.1367 677.524 83.1367C677.155 83.1367 676.836 83.0501 676.567 82.877C676.303 82.6992 676.08 82.4554 675.897 82.1455C675.715 81.8356 675.569 81.4733 675.46 81.0586C675.351 80.6439 675.266 80.1995 675.207 79.7256V78.96C675.262 78.4541 675.341 77.9893 675.446 77.5654C675.551 77.137 675.695 76.7656 675.877 76.4512C676.064 76.1367 676.289 75.8952 676.554 75.7266C676.823 75.5534 677.142 75.4668 677.511 75.4668C677.912 75.4668 678.26 75.5397 678.557 75.6855C678.857 75.8314 679.106 76.0524 679.302 76.3486C679.502 76.6403 679.653 77.0117 679.753 77.4629C679.853 77.9141 679.903 78.4427 679.903 79.0488ZM677.989 79.541V79.0488C677.989 78.6934 677.969 78.3903 677.928 78.1396C677.891 77.889 677.832 77.6839 677.75 77.5244C677.668 77.3649 677.561 77.2487 677.429 77.1758C677.297 77.1029 677.135 77.0664 676.943 77.0664C676.757 77.0664 676.592 77.1029 676.451 77.1758C676.314 77.2487 676.203 77.3558 676.116 77.4971C676.03 77.6338 675.964 77.8024 675.918 78.0029C675.872 78.1989 675.847 78.4222 675.843 78.6729V80.0127C675.852 80.3089 675.891 80.571 675.959 80.7988C676.032 81.0267 676.148 81.209 676.308 81.3457C676.467 81.4779 676.684 81.5439 676.957 81.5439C677.153 81.5439 677.315 81.5029 677.442 81.4209C677.575 81.3389 677.682 81.2158 677.764 81.0518C677.846 80.8877 677.903 80.6803 677.935 80.4297C677.971 80.179 677.989 79.8828 677.989 79.541ZM683.089 72.5V83H681.168V72.5H683.089ZM687.867 81.2979V77.8799C687.867 77.6566 687.84 77.4788 687.785 77.3467C687.735 77.2145 687.658 77.1188 687.553 77.0596C687.452 76.9958 687.329 76.9639 687.184 76.9639C687.02 76.9639 686.883 76.998 686.773 77.0664C686.664 77.1348 686.582 77.2327 686.527 77.3604C686.477 77.488 686.452 77.6406 686.452 77.8184H684.531C684.531 77.4993 684.593 77.1986 684.716 76.916C684.839 76.6289 685.019 76.3783 685.256 76.1641C685.497 75.9453 685.785 75.7744 686.117 75.6514C686.45 75.5283 686.824 75.4668 687.238 75.4668C687.73 75.4668 688.168 75.5511 688.551 75.7197C688.934 75.8838 689.237 76.1458 689.46 76.5059C689.683 76.8659 689.795 77.333 689.795 77.9072V81.2021C689.795 81.6169 689.815 81.9541 689.856 82.2139C689.902 82.4736 689.968 82.6969 690.055 82.8838V83H688.127C688.04 82.7949 687.974 82.5397 687.929 82.2344C687.888 81.9245 687.867 81.6123 687.867 81.2979ZM688.1 78.4814L688.106 79.6299H687.402C687.22 79.6299 687.061 79.6595 686.924 79.7188C686.792 79.778 686.68 79.8623 686.589 79.9717C686.498 80.0765 686.429 80.1995 686.384 80.3408C686.343 80.4821 686.322 80.6325 686.322 80.792C686.322 80.9697 686.347 81.1201 686.397 81.2432C686.448 81.3662 686.523 81.4596 686.623 81.5234C686.723 81.5872 686.842 81.6191 686.979 81.6191C687.188 81.6191 687.37 81.5758 687.525 81.4893C687.68 81.4027 687.794 81.2979 687.867 81.1748C687.945 81.0518 687.97 80.9378 687.942 80.833L688.38 81.5781C688.325 81.7467 688.25 81.9222 688.154 82.1045C688.063 82.2868 687.947 82.4554 687.806 82.6104C687.664 82.7653 687.489 82.8929 687.279 82.9932C687.074 83.0889 686.83 83.1367 686.548 83.1367C686.151 83.1367 685.789 83.0456 685.461 82.8633C685.133 82.681 684.873 82.4258 684.682 82.0977C684.495 81.7695 684.401 81.3799 684.401 80.9287C684.401 80.555 684.461 80.2178 684.579 79.917C684.702 79.6117 684.884 79.3542 685.126 79.1445C685.368 78.9303 685.673 78.7663 686.042 78.6523C686.411 78.5384 686.844 78.4814 687.341 78.4814H688.1ZM693.883 81.5439C694.061 81.5439 694.213 81.5075 694.341 81.4346C694.473 81.3617 694.573 81.2432 694.642 81.0791C694.71 80.915 694.746 80.7031 694.751 80.4434H696.549C696.549 80.9993 696.43 81.4801 696.193 81.8857C695.961 82.2868 695.646 82.5967 695.25 82.8154C694.858 83.0296 694.414 83.1367 693.917 83.1367C693.42 83.1367 692.987 83.057 692.618 82.8975C692.249 82.738 691.944 82.5055 691.702 82.2002C691.465 81.8949 691.285 81.5234 691.162 81.0859C691.044 80.6439 690.984 80.138 690.984 79.5684V79.0283C690.984 78.4678 691.044 77.9665 691.162 77.5244C691.285 77.0824 691.465 76.7087 691.702 76.4033C691.944 76.098 692.247 75.8656 692.611 75.7061C692.98 75.5465 693.413 75.4668 693.91 75.4668C694.443 75.4668 694.906 75.5785 695.298 75.8018C695.69 76.0205 695.995 76.3441 696.214 76.7725C696.437 77.2008 696.549 77.7295 696.549 78.3584H694.751C694.746 78.0758 694.712 77.8411 694.648 77.6543C694.589 77.4629 694.496 77.3171 694.368 77.2168C694.245 77.112 694.081 77.0596 693.876 77.0596C693.662 77.0596 693.489 77.1051 693.356 77.1963C693.229 77.2829 693.131 77.4105 693.062 77.5791C692.999 77.7432 692.955 77.9482 692.933 78.1943C692.91 78.4404 692.898 78.7184 692.898 79.0283V79.5684C692.898 79.901 692.908 80.1904 692.926 80.4365C692.949 80.6781 692.992 80.8831 693.056 81.0518C693.124 81.2158 693.222 81.3389 693.35 81.4209C693.482 81.5029 693.66 81.5439 693.883 81.5439ZM692.748 74.6123L694.088 72.5H696.241L694.354 74.6123H692.748ZM700.91 81.2979V77.8799C700.91 77.6566 700.883 77.4788 700.828 77.3467C700.778 77.2145 700.701 77.1188 700.596 77.0596C700.495 76.9958 700.372 76.9639 700.227 76.9639C700.062 76.9639 699.926 76.998 699.816 77.0664C699.707 77.1348 699.625 77.2327 699.57 77.3604C699.52 77.488 699.495 77.6406 699.495 77.8184H697.574C697.574 77.4993 697.636 77.1986 697.759 76.916C697.882 76.6289 698.062 76.3783 698.299 76.1641C698.54 75.9453 698.827 75.7744 699.16 75.6514C699.493 75.5283 699.867 75.4668 700.281 75.4668C700.773 75.4668 701.211 75.5511 701.594 75.7197C701.977 75.8838 702.28 76.1458 702.503 76.5059C702.726 76.8659 702.838 77.333 702.838 77.9072V81.2021C702.838 81.6169 702.858 81.9541 702.899 82.2139C702.945 82.4736 703.011 82.6969 703.098 82.8838V83H701.17C701.083 82.7949 701.017 82.5397 700.972 82.2344C700.931 81.9245 700.91 81.6123 700.91 81.2979ZM701.143 78.4814L701.149 79.6299H700.445C700.263 79.6299 700.104 79.6595 699.967 79.7188C699.835 79.778 699.723 79.8623 699.632 79.9717C699.541 80.0765 699.472 80.1995 699.427 80.3408C699.386 80.4821 699.365 80.6325 699.365 80.792C699.365 80.9697 699.39 81.1201 699.44 81.2432C699.491 81.3662 699.566 81.4596 699.666 81.5234C699.766 81.5872 699.885 81.6191 700.021 81.6191C700.231 81.6191 700.413 81.5758 700.568 81.4893C700.723 81.4027 700.837 81.2979 700.91 81.1748C700.988 81.0518 701.013 80.9378 700.985 80.833L701.423 81.5781C701.368 81.7467 701.293 81.9222 701.197 82.1045C701.106 82.2868 700.99 82.4554 700.849 82.6104C700.707 82.7653 700.532 82.8929 700.322 82.9932C700.117 83.0889 699.873 83.1367 699.591 83.1367C699.194 83.1367 698.832 83.0456 698.504 82.8633C698.176 82.681 697.916 82.4258 697.725 82.0977C697.538 81.7695 697.444 81.3799 697.444 80.9287C697.444 80.555 697.504 80.2178 697.622 79.917C697.745 79.6117 697.927 79.3542 698.169 79.1445C698.41 78.9303 698.716 78.7663 699.085 78.6523C699.454 78.5384 699.887 78.4814 700.384 78.4814H701.143ZM706.133 77.1826V83H704.212V75.6035H706.01L706.133 77.1826ZM705.846 79.0488L705.333 79.0625C705.324 78.5065 705.376 78.0075 705.49 77.5654C705.609 77.1234 705.775 76.7474 705.989 76.4375C706.208 76.123 706.468 75.8838 706.769 75.7197C707.074 75.5511 707.413 75.4668 707.787 75.4668C708.074 75.4668 708.336 75.5169 708.573 75.6172C708.815 75.7174 709.022 75.877 709.195 76.0957C709.368 76.3145 709.503 76.6061 709.599 76.9707C709.694 77.3307 709.742 77.7728 709.742 78.2969V83H707.821V78.2832C707.821 77.9642 707.789 77.7181 707.726 77.5449C707.662 77.3672 707.566 77.2441 707.438 77.1758C707.311 77.1029 707.151 77.0664 706.96 77.0664C706.778 77.0664 706.616 77.1188 706.475 77.2236C706.333 77.3239 706.215 77.4629 706.119 77.6406C706.028 77.8184 705.957 78.028 705.907 78.2695C705.862 78.5111 705.841 78.7708 705.846 79.0488ZM711.232 75.6035H713.16V83.4102C713.16 83.9661 713.071 84.4355 712.894 84.8184C712.72 85.2012 712.47 85.4906 712.142 85.6865C711.813 85.887 711.417 85.9873 710.952 85.9873C710.802 85.9873 710.654 85.9782 710.508 85.96C710.362 85.9417 710.214 85.9121 710.063 85.8711L710.07 84.3125C710.161 84.3307 710.25 84.3444 710.337 84.3535C710.419 84.3626 710.501 84.3672 710.583 84.3672C710.729 84.3672 710.85 84.333 710.945 84.2646C711.041 84.2008 711.112 84.0983 711.157 83.957C711.207 83.8158 711.232 83.6335 711.232 83.4102V75.6035ZM711.103 73.6895C711.103 73.3932 711.198 73.1494 711.39 72.958C711.581 72.762 711.834 72.6641 712.148 72.6641C712.467 72.6641 712.723 72.762 712.914 72.958C713.105 73.1494 713.201 73.3932 713.201 73.6895C713.201 73.9811 713.105 74.2249 712.914 74.4209C712.723 74.6123 712.467 74.708 712.148 74.708C711.834 74.708 711.581 74.6123 711.39 74.4209C711.198 74.2249 711.103 73.9811 711.103 73.6895ZM717.556 83.1367C717.05 83.1367 716.601 83.0592 716.209 82.9043C715.822 82.7493 715.493 82.526 715.225 82.2344C714.956 81.9382 714.751 81.5804 714.609 81.1611C714.468 80.7419 714.397 80.2633 714.397 79.7256V79.1172C714.397 78.5156 714.466 77.9893 714.603 77.5381C714.739 77.0824 714.933 76.6995 715.184 76.3896C715.434 76.0798 715.742 75.8496 716.106 75.6992C716.476 75.5443 716.893 75.4668 717.357 75.4668C717.822 75.4668 718.23 75.5443 718.581 75.6992C718.937 75.8496 719.23 76.0775 719.463 76.3828C719.695 76.6836 719.871 77.0573 719.989 77.5039C720.108 77.9505 720.167 78.4701 720.167 79.0625V79.9375H715.211V78.5908H718.287V78.4199C718.287 78.1191 718.255 77.8685 718.191 77.668C718.128 77.4629 718.027 77.3102 717.891 77.21C717.754 77.1097 717.572 77.0596 717.344 77.0596C717.152 77.0596 716.991 77.0983 716.858 77.1758C716.726 77.2533 716.621 77.374 716.544 77.5381C716.466 77.7021 716.41 77.9163 716.373 78.1807C716.337 78.4404 716.318 78.7526 716.318 79.1172V79.7256C716.318 80.0674 716.348 80.3545 716.407 80.5869C716.466 80.8148 716.553 81.0016 716.667 81.1475C716.785 81.2887 716.929 81.3913 717.098 81.4551C717.266 81.5143 717.462 81.5439 717.686 81.5439C718.023 81.5439 718.326 81.4847 718.595 81.3662C718.868 81.2432 719.101 81.0768 719.292 80.8672L720.058 82.0293C719.925 82.2025 719.743 82.3757 719.511 82.5488C719.278 82.722 719 82.8633 718.677 82.9727C718.353 83.082 717.979 83.1367 717.556 83.1367Z" fill="#E0E0E9"/>
<path fill-rule="evenodd" clip-rule="evenodd" d="M704 33H79V31H704V33Z" fill="#D0CFD7"/>
<g filter="url(#filter0_d_363_3289)">
<path d="M69 17C60.7125 17 54 23.7125 54 32C54 34.8125 54.7875 37.475 56.175 39.725C57.497 41.9468 59.3748 43.7861 61.6236 45.0617C63.8724 46.3373 66.4146 47.0053 69 47C74.475 47 79.2375 44.075 81.825 39.725C83.2125 37.475 84 34.8125 84 32C84 23.7125 77.2875 17 69 17ZM76.3875 30.7625L68.4 38.15C67.875 38.6375 67.1625 38.9 66.4875 38.9C65.775 38.9 65.0625 38.6375 64.5 38.075L60.7875 34.3625C60.2644 33.8332 59.9711 33.1191 59.9711 32.375C59.9711 31.6309 60.2644 30.9168 60.7875 30.3875C61.875 29.3 63.675 29.3 64.7625 30.3875L66.5625 32.1875L72.5625 26.6375C73.6875 25.5875 75.4875 25.6625 76.5375 26.7875C77.5875 27.9125 77.5125 29.7125 76.3875 30.7625Z" fill="url(#paint1_linear_363_3289)"/>
</g>
<circle cx="390.5" cy="32.5" r="14.5" fill="#D0CFD7"/>
<circle cx="696.5" cy="32.5" r="14.5" fill="#D0CFD7"/>
<defs>
<filter id="filter0_d_363_3289" x="37" y="0" width="74" height="74" filterUnits="userSpaceOnUse" color-interpolation-filters="sRGB">
<feFlood flood-opacity="0" result="BackgroundImageFix"/>
<feColorMatrix in="SourceAlpha" type="matrix" values="0 0 0 0 0 0 0 0 0 0 0 0 0 0 0 0 0 0 127 0" result="hardAlpha"/>
<feOffset dx="5" dy="5"/>
<feGaussianBlur stdDeviation="11"/>
<feComposite in2="hardAlpha" operator="out"/>
<feColorMatrix type="matrix" values="0 0 0 0 0.0392157 0 0 0 0 0.560784 0 0 0 0 0.309804 0 0 0 0.2 0"/>
<feBlend mode="normal" in2="BackgroundImageFix" result="effect1_dropShadow_363_3289"/>
<feBlend mode="normal" in="SourceGraphic" in2="effect1_dropShadow_363_3289" result="shape"/>
</filter>
<linearGradient id="paint0_linear_363_3289" x1="68.5" y1="77" x2="68.5" y2="57" gradientUnits="userSpaceOnUse">
<stop stop-color="#5CCC94"/>
<stop offset="1" stop-color="#8CCAAE"/>
</linearGradient>
<linearGradient id="paint1_linear_363_3289" x1="69" y1="47" x2="69" y2="17" gradientUnits="userSpaceOnUse">
<stop stop-color="#5CCC94"/>
<stop offset="1" stop-color="#8CCAAE"/>
</linearGradient>
</defs>
</svg>
