<svg width="1015" height="100" viewBox="0 0 1015 100" fill="none" xmlns="http://www.w3.org/2000/svg">
<path d="M15.5537 59.0469V69H13.5645V59.0469H15.5537ZM18.0283 59.0469V60.708H11.1377V59.0469H18.0283ZM20.3936 68.1523L21.9385 61.6035H23.9346L21.501 70.1074C21.4463 70.2943 21.3711 70.4948 21.2754 70.709C21.1797 70.9277 21.0521 71.1328 20.8926 71.3242C20.7376 71.5202 20.5417 71.6797 20.3047 71.8027C20.0677 71.9258 19.7829 71.9873 19.4502 71.9873C19.2816 71.9873 19.1449 71.9759 19.04 71.9531C18.9398 71.9349 18.8122 71.903 18.6572 71.8574V70.3672C18.6982 70.3672 18.737 70.3672 18.7734 70.3672C18.8145 70.3717 18.8532 70.374 18.8896 70.374C19.1038 70.374 19.2747 70.3444 19.4023 70.2852C19.5299 70.2305 19.6325 70.1439 19.71 70.0254C19.792 69.9069 19.8604 69.7588 19.915 69.5811L20.3936 68.1523ZM19.9971 61.6035L21.1455 66.9082L21.4053 69.0684L20.1133 69.1914L17.9463 61.6035H19.9971ZM26.6826 63.0254V71.8438H24.7754V61.6035H26.5391L26.6826 63.0254ZM30.5244 65.0488V65.541C30.5244 66.1198 30.4743 66.6325 30.374 67.0791C30.2738 67.5212 30.1234 67.8971 29.9229 68.207C29.7269 68.5124 29.4808 68.7448 29.1846 68.9043C28.8883 69.0592 28.542 69.1367 28.1455 69.1367C27.7764 69.1367 27.4574 69.0501 27.1885 68.877C26.9242 68.6992 26.7008 68.4554 26.5186 68.1455C26.3363 67.8356 26.1904 67.4733 26.0811 67.0586C25.9717 66.6439 25.8874 66.1995 25.8281 65.7256V64.96C25.8828 64.4541 25.9626 63.9893 26.0674 63.5654C26.1722 63.137 26.3158 62.7656 26.498 62.4512C26.6849 62.1367 26.9105 61.8952 27.1748 61.7266C27.4437 61.5534 27.7627 61.4668 28.1318 61.4668C28.5329 61.4668 28.8815 61.5397 29.1777 61.6855C29.4785 61.8314 29.7269 62.0524 29.9229 62.3486C30.1234 62.6403 30.2738 63.0117 30.374 63.4629C30.4743 63.9141 30.5244 64.4427 30.5244 65.0488ZM28.6104 65.541V65.0488C28.6104 64.6934 28.5898 64.3903 28.5488 64.1396C28.5124 63.889 28.4531 63.6839 28.3711 63.5244C28.2891 63.3649 28.182 63.2487 28.0498 63.1758C27.9176 63.1029 27.7559 63.0664 27.5645 63.0664C27.3776 63.0664 27.2135 63.1029 27.0723 63.1758C26.9355 63.2487 26.8239 63.3558 26.7373 63.4971C26.6507 63.6338 26.5846 63.8024 26.5391 64.0029C26.4935 64.1989 26.4684 64.4222 26.4639 64.6729V66.0127C26.473 66.3089 26.5117 66.571 26.5801 66.7988C26.653 67.0267 26.7692 67.209 26.9287 67.3457C27.0882 67.4779 27.3047 67.5439 27.5781 67.5439C27.7741 67.5439 27.9359 67.5029 28.0635 67.4209C28.1956 67.3389 28.3027 67.2158 28.3848 67.0518C28.4668 66.8877 28.5238 66.6803 28.5557 66.4297C28.5921 66.179 28.6104 65.8828 28.6104 65.541ZM38.5088 67.3662V58.5H40.4297V69L38.6934 69.0068L38.5088 67.3662ZM34.6738 65.5615V65.0693C34.6738 64.4678 34.724 63.9414 34.8242 63.4902C34.929 63.0391 35.084 62.6631 35.2891 62.3623C35.4941 62.0615 35.7448 61.8382 36.041 61.6924C36.3418 61.542 36.6859 61.4668 37.0732 61.4668C37.4242 61.4668 37.7318 61.5557 37.9961 61.7334C38.265 61.9066 38.4928 62.1504 38.6797 62.4648C38.8665 62.7793 39.0169 63.1507 39.1309 63.5791C39.2448 64.0075 39.3245 64.4769 39.3701 64.9873V65.6982C39.3154 66.1813 39.2311 66.6325 39.1172 67.0518C39.0078 67.471 38.8574 67.8356 38.666 68.1455C38.4792 68.4554 38.2536 68.6992 37.9893 68.877C37.7249 69.0501 37.4173 69.1367 37.0664 69.1367C36.679 69.1367 36.335 69.0592 36.0342 68.9043C35.738 68.7493 35.4873 68.5215 35.2822 68.2207C35.0817 67.9154 34.929 67.5417 34.8242 67.0996C34.724 66.653 34.6738 66.1403 34.6738 65.5615ZM36.5879 65.0693V65.5615C36.5879 65.9079 36.6038 66.2064 36.6357 66.457C36.6722 66.7031 36.7292 66.9059 36.8066 67.0654C36.8887 67.2204 36.9958 67.3366 37.1279 67.4141C37.2601 67.487 37.4242 67.5234 37.6201 67.5234C37.8753 67.5234 38.0827 67.4596 38.2422 67.332C38.4017 67.1999 38.5202 67.0199 38.5977 66.792C38.6797 66.5596 38.7253 66.293 38.7344 65.9922V64.7002C38.7253 64.4495 38.6956 64.224 38.6455 64.0234C38.5954 63.8229 38.5247 63.652 38.4336 63.5107C38.3424 63.3695 38.2285 63.2601 38.0918 63.1826C37.9596 63.1051 37.8047 63.0664 37.627 63.0664C37.4355 63.0664 37.2715 63.1051 37.1348 63.1826C37.0026 63.2601 36.8978 63.3809 36.8203 63.5449C36.7428 63.7044 36.6836 63.9118 36.6426 64.167C36.6061 64.4176 36.5879 64.7184 36.5879 65.0693ZM44.8525 69.1367C44.3467 69.1367 43.8978 69.0592 43.5059 68.9043C43.1185 68.7493 42.7904 68.526 42.5215 68.2344C42.2526 67.9382 42.0475 67.5804 41.9062 67.1611C41.765 66.7419 41.6943 66.2633 41.6943 65.7256V65.1172C41.6943 64.5156 41.7627 63.9893 41.8994 63.5381C42.0361 63.0824 42.2298 62.6995 42.4805 62.3896C42.7311 62.0798 43.0387 61.8496 43.4033 61.6992C43.7725 61.5443 44.1895 61.4668 44.6543 61.4668C45.1191 61.4668 45.527 61.5443 45.8779 61.6992C46.2334 61.8496 46.5273 62.0775 46.7598 62.3828C46.9922 62.6836 47.1676 63.0573 47.2861 63.5039C47.4046 63.9505 47.4639 64.4701 47.4639 65.0625V65.9375H42.5078V64.5908H45.584V64.4199C45.584 64.1191 45.5521 63.8685 45.4883 63.668C45.4245 63.4629 45.3242 63.3102 45.1875 63.21C45.0508 63.1097 44.8685 63.0596 44.6406 63.0596C44.4492 63.0596 44.2874 63.0983 44.1553 63.1758C44.0231 63.2533 43.9183 63.374 43.8408 63.5381C43.7633 63.7021 43.7064 63.9163 43.6699 64.1807C43.6335 64.4404 43.6152 64.7526 43.6152 65.1172V65.7256C43.6152 66.0674 43.6449 66.3545 43.7041 66.5869C43.7633 66.8148 43.8499 67.0016 43.9639 67.1475C44.0824 67.2887 44.2259 67.3913 44.3945 67.4551C44.5632 67.5143 44.7591 67.5439 44.9824 67.5439C45.3197 67.5439 45.6227 67.4847 45.8916 67.3662C46.165 67.2432 46.3975 67.0768 46.5889 66.8672L47.3545 68.0293C47.2223 68.2025 47.04 68.3757 46.8076 68.5488C46.5752 68.722 46.2972 68.8633 45.9736 68.9727C45.6501 69.082 45.2764 69.1367 44.8525 69.1367ZM51.8525 67.0039C51.8525 66.8763 51.8092 66.7624 51.7227 66.6621C51.6361 66.5618 51.4993 66.4593 51.3125 66.3545C51.1257 66.2451 50.8773 66.1243 50.5674 65.9922C50.2301 65.8555 49.9316 65.7142 49.6719 65.5684C49.4121 65.4225 49.1911 65.2607 49.0088 65.083C48.8311 64.9053 48.6966 64.7025 48.6055 64.4746C48.5143 64.2467 48.4688 63.987 48.4688 63.6953C48.4688 63.3809 48.5257 63.0915 48.6396 62.8271C48.7581 62.5583 48.9268 62.3236 49.1455 62.123C49.3643 61.918 49.6309 61.7585 49.9453 61.6445C50.2643 61.526 50.6221 61.4668 51.0186 61.4668C51.5745 61.4668 52.0508 61.5648 52.4473 61.7607C52.8483 61.9521 53.1559 62.221 53.3701 62.5674C53.5843 62.9137 53.6914 63.3171 53.6914 63.7773H51.7773C51.7773 63.6133 51.7523 63.4674 51.7021 63.3398C51.652 63.2077 51.57 63.1051 51.4561 63.0322C51.3467 62.9593 51.1986 62.9229 51.0117 62.9229C50.875 62.9229 50.752 62.9525 50.6426 63.0117C50.5378 63.071 50.4535 63.1507 50.3896 63.251C50.3304 63.3467 50.3008 63.4606 50.3008 63.5928C50.3008 63.693 50.3213 63.7819 50.3623 63.8594C50.4079 63.9368 50.4785 64.012 50.5742 64.085C50.6699 64.1579 50.7975 64.2354 50.957 64.3174C51.1211 64.3949 51.3216 64.4814 51.5586 64.5771C52.0508 64.7594 52.4541 64.9554 52.7686 65.165C53.0876 65.3747 53.3245 65.6208 53.4795 65.9033C53.6344 66.1813 53.7119 66.5254 53.7119 66.9355C53.7119 67.2637 53.6481 67.5622 53.5205 67.8311C53.3975 68.0999 53.2174 68.3324 52.9805 68.5283C52.7435 68.7243 52.4587 68.8747 52.126 68.9795C51.7979 69.0843 51.431 69.1367 51.0254 69.1367C50.4284 69.1367 49.9248 69.0182 49.5146 68.7812C49.1045 68.5443 48.7946 68.2412 48.585 67.8721C48.3753 67.4984 48.2705 67.111 48.2705 66.71H50.0889C50.098 66.9561 50.1436 67.1497 50.2256 67.291C50.3122 67.4277 50.4284 67.5234 50.5742 67.5781C50.7201 67.6328 50.8818 67.6602 51.0596 67.6602C51.2373 67.6602 51.3831 67.6374 51.4971 67.5918C51.6156 67.5417 51.7044 67.4665 51.7637 67.3662C51.8229 67.2614 51.8525 67.1406 51.8525 67.0039ZM6.25 74.8242L4.11035 83H1.99805L5.1084 73.0469H6.42773L6.25 74.8242ZM7.93848 83L5.78516 74.8242L5.58691 73.0469H6.92676L10.0645 83H7.93848ZM8.01367 79.2881V80.9492H3.52246V79.2881H8.01367ZM14.4121 81.2227V75.6035H16.333V83H14.5283L14.4121 81.2227ZM14.6309 79.6982L15.1641 79.6846C15.1641 80.1813 15.1162 80.6416 15.0205 81.0654C14.9248 81.4847 14.7812 81.8493 14.5898 82.1592C14.3984 82.4691 14.1592 82.7106 13.8721 82.8838C13.585 83.0524 13.2454 83.1367 12.8535 83.1367C12.5527 83.1367 12.2747 83.0866 12.0195 82.9863C11.7689 82.8815 11.5524 82.7197 11.3701 82.501C11.1878 82.2777 11.0443 81.9928 10.9395 81.6465C10.8392 81.2956 10.7891 80.874 10.7891 80.3818V75.6035H12.71V80.4023C12.71 80.6029 12.7282 80.776 12.7646 80.9219C12.8011 81.0632 12.8512 81.1794 12.915 81.2705C12.9788 81.3617 13.054 81.4277 13.1406 81.4688C13.2272 81.5052 13.3252 81.5234 13.4346 81.5234C13.7354 81.5234 13.9723 81.446 14.1455 81.291C14.3232 81.1315 14.4486 80.915 14.5215 80.6416C14.5944 80.3636 14.6309 80.0492 14.6309 79.6982ZM20.0996 83H18.1787V74.9609C18.1787 74.3913 18.2767 73.915 18.4727 73.5322C18.6686 73.1494 18.9443 72.8577 19.2998 72.6572C19.6598 72.4567 20.0859 72.3564 20.5781 72.3564C20.7376 72.3564 20.888 72.3701 21.0293 72.3975C21.1751 72.4202 21.3164 72.4521 21.4531 72.4932L21.4326 74.0176C21.3734 73.9993 21.3027 73.9857 21.2207 73.9766C21.1387 73.9674 21.0521 73.9629 20.9609 73.9629C20.7786 73.9629 20.6214 74.0016 20.4893 74.0791C20.3617 74.1566 20.2637 74.2682 20.1953 74.4141C20.1315 74.5599 20.0996 74.7422 20.0996 74.9609V83ZM21.2549 75.6035V77.0459H17.2764V75.6035H21.2549ZM24.2354 72.4932V83H22.3213V72.4932H24.2354ZM28.125 75.6035L25.5205 79.2812L23.9551 81.0381L23.2783 79.582L24.4814 77.8252L25.8418 75.6035H28.125ZM26.1289 83L24.5156 79.6025L25.835 78.3857L28.3232 83H26.1289ZM31.0303 72.5V83H29.1094V72.5H31.0303ZM35.5283 83.1367C35.0225 83.1367 34.5736 83.0592 34.1816 82.9043C33.7943 82.7493 33.4661 82.526 33.1973 82.2344C32.9284 81.9382 32.7233 81.5804 32.582 81.1611C32.4408 80.7419 32.3701 80.2633 32.3701 79.7256V79.1172C32.3701 78.5156 32.4385 77.9893 32.5752 77.5381C32.7119 77.0824 32.9056 76.6995 33.1562 76.3896C33.4069 76.0798 33.7145 75.8496 34.0791 75.6992C34.4482 75.5443 34.8652 75.4668 35.3301 75.4668C35.7949 75.4668 36.2028 75.5443 36.5537 75.6992C36.9092 75.8496 37.2031 76.0775 37.4355 76.3828C37.668 76.6836 37.8434 77.0573 37.9619 77.5039C38.0804 77.9505 38.1396 78.4701 38.1396 79.0625V79.9375H33.1836V78.5908H36.2598V78.4199C36.2598 78.1191 36.2279 77.8685 36.1641 77.668C36.1003 77.4629 36 77.3102 35.8633 77.21C35.7266 77.1097 35.5443 77.0596 35.3164 77.0596C35.125 77.0596 34.9632 77.0983 34.8311 77.1758C34.6989 77.2533 34.5941 77.374 34.5166 77.5381C34.4391 77.7021 34.3822 77.9163 34.3457 78.1807C34.3092 78.4404 34.291 78.7526 34.291 79.1172V79.7256C34.291 80.0674 34.3206 80.3545 34.3799 80.5869C34.4391 80.8148 34.5257 81.0016 34.6396 81.1475C34.7581 81.2887 34.9017 81.3913 35.0703 81.4551C35.2389 81.5143 35.4349 81.5439 35.6582 81.5439C35.9954 81.5439 36.2985 81.4847 36.5674 81.3662C36.8408 81.2432 37.0732 81.0768 37.2646 80.8672L38.0303 82.0293C37.8981 82.2025 37.7158 82.3757 37.4834 82.5488C37.251 82.722 36.973 82.8633 36.6494 82.9727C36.3258 83.082 35.9521 83.1367 35.5283 83.1367ZM39.2539 72.5H41.1611V81.2842L41.0244 83H39.2539V72.5ZM45.0029 79.0557V79.541C45.0029 80.1426 44.9551 80.6667 44.8594 81.1133C44.7682 81.5599 44.6247 81.9336 44.4287 82.2344C44.2373 82.5352 43.9912 82.7607 43.6904 82.9111C43.3896 83.0615 43.0342 83.1367 42.624 83.1367C42.2549 83.1367 41.9382 83.0501 41.6738 82.877C41.4095 82.6992 41.1862 82.4554 41.0039 82.1455C40.8262 81.8311 40.6803 81.4642 40.5664 81.0449C40.457 80.6211 40.3773 80.1585 40.3271 79.6572V78.9395C40.3727 78.4473 40.4502 77.9893 40.5596 77.5654C40.6735 77.1416 40.8193 76.7747 40.9971 76.4648C41.1748 76.1504 41.3958 75.9066 41.6602 75.7334C41.929 75.5557 42.2458 75.4668 42.6104 75.4668C43.0296 75.4668 43.3896 75.5443 43.6904 75.6992C43.9912 75.8496 44.2373 76.0752 44.4287 76.376C44.6247 76.6768 44.7682 77.0527 44.8594 77.5039C44.9551 77.9505 45.0029 78.4678 45.0029 79.0557ZM43.0957 79.541V79.0557C43.0957 78.7139 43.082 78.4199 43.0547 78.1738C43.0273 77.9277 42.9772 77.7227 42.9043 77.5586C42.8314 77.3945 42.7266 77.2715 42.5898 77.1895C42.4577 77.1074 42.2822 77.0664 42.0635 77.0664C41.8675 77.0664 41.7035 77.1051 41.5713 77.1826C41.4391 77.2555 41.3252 77.3649 41.2295 77.5107C41.1383 77.652 41.07 77.8206 41.0244 78.0166C40.9834 78.208 40.9606 78.4199 40.9561 78.6523V79.9443C40.9606 80.2588 40.9993 80.5368 41.0723 80.7783C41.1452 81.0199 41.2614 81.2067 41.4209 81.3389C41.585 81.471 41.8037 81.5371 42.0771 81.5371C42.2913 81.5371 42.4645 81.5007 42.5967 81.4277C42.7288 81.3548 42.8314 81.2386 42.9043 81.0791C42.9818 80.9196 43.0319 80.7145 43.0547 80.4639C43.082 80.2087 43.0957 79.901 43.0957 79.541ZM49.1592 83.1367C48.6533 83.1367 48.2044 83.0592 47.8125 82.9043C47.4251 82.7493 47.097 82.526 46.8281 82.2344C46.5592 81.9382 46.3542 81.5804 46.2129 81.1611C46.0716 80.7419 46.001 80.2633 46.001 79.7256V79.1172C46.001 78.5156 46.0693 77.9893 46.2061 77.5381C46.3428 77.0824 46.5365 76.6995 46.7871 76.3896C47.0378 76.0798 47.3454 75.8496 47.71 75.6992C48.0791 75.5443 48.4961 75.4668 48.9609 75.4668C49.4258 75.4668 49.8337 75.5443 50.1846 75.6992C50.54 75.8496 50.834 76.0775 51.0664 76.3828C51.2988 76.6836 51.4743 77.0573 51.5928 77.5039C51.7113 77.9505 51.7705 78.4701 51.7705 79.0625V79.9375H46.8145V78.5908H49.8906V78.4199C49.8906 78.1191 49.8587 77.8685 49.7949 77.668C49.7311 77.4629 49.6309 77.3102 49.4941 77.21C49.3574 77.1097 49.1751 77.0596 48.9473 77.0596C48.7559 77.0596 48.5941 77.0983 48.4619 77.1758C48.3298 77.2533 48.2249 77.374 48.1475 77.5381C48.07 77.7021 48.013 77.9163 47.9766 78.1807C47.9401 78.4404 47.9219 78.7526 47.9219 79.1172V79.7256C47.9219 80.0674 47.9515 80.3545 48.0107 80.5869C48.07 80.8148 48.1566 81.0016 48.2705 81.1475C48.389 81.2887 48.5326 81.3913 48.7012 81.4551C48.8698 81.5143 49.0658 81.5439 49.2891 81.5439C49.6263 81.5439 49.9294 81.4847 50.1982 81.3662C50.4717 81.2432 50.7041 81.0768 50.8955 80.8672L51.6611 82.0293C51.529 82.2025 51.3467 82.3757 51.1143 82.5488C50.8818 82.722 50.6038 82.8633 50.2803 82.9727C49.9567 83.082 49.583 83.1367 49.1592 83.1367ZM54.792 77.251V83H52.8779V75.6035H54.6826L54.792 77.251ZM56.5352 75.5488L56.5078 77.4561C56.4212 77.4378 56.3164 77.4242 56.1934 77.415C56.0749 77.4059 55.9701 77.4014 55.8789 77.4014C55.6647 77.4014 55.4824 77.4355 55.332 77.5039C55.1816 77.5677 55.0563 77.6657 54.9561 77.7979C54.8604 77.9255 54.7874 78.085 54.7373 78.2764C54.6872 78.4678 54.6576 78.6842 54.6484 78.9258L54.2861 78.7891C54.2861 78.306 54.3226 77.8639 54.3955 77.4629C54.473 77.0573 54.5869 76.7064 54.7373 76.4102C54.8877 76.1094 55.0677 75.877 55.2773 75.7129C55.4915 75.5488 55.7331 75.4668 56.002 75.4668C56.0931 75.4668 56.1888 75.4759 56.2891 75.4941C56.3939 75.5078 56.4759 75.526 56.5352 75.5488ZM60.7939 81.0039C60.7939 80.8763 60.7507 80.7624 60.6641 80.6621C60.5775 80.5618 60.4408 80.4593 60.2539 80.3545C60.0671 80.2451 59.8187 80.1243 59.5088 79.9922C59.1715 79.8555 58.873 79.7142 58.6133 79.5684C58.3535 79.4225 58.1325 79.2607 57.9502 79.083C57.7725 78.9053 57.638 78.7025 57.5469 78.4746C57.4557 78.2467 57.4102 77.987 57.4102 77.6953C57.4102 77.3809 57.4671 77.0915 57.5811 76.8271C57.6995 76.5583 57.8682 76.3236 58.0869 76.123C58.3057 75.918 58.5723 75.7585 58.8867 75.6445C59.2057 75.526 59.5635 75.4668 59.96 75.4668C60.516 75.4668 60.9922 75.5648 61.3887 75.7607C61.7897 75.9521 62.0973 76.221 62.3115 76.5674C62.5257 76.9137 62.6328 77.3171 62.6328 77.7773H60.7188C60.7188 77.6133 60.6937 77.4674 60.6436 77.3398C60.5934 77.2077 60.5114 77.1051 60.3975 77.0322C60.2881 76.9593 60.14 76.9229 59.9531 76.9229C59.8164 76.9229 59.6934 76.9525 59.584 77.0117C59.4792 77.071 59.3949 77.1507 59.3311 77.251C59.2718 77.3467 59.2422 77.4606 59.2422 77.5928C59.2422 77.693 59.2627 77.7819 59.3037 77.8594C59.3493 77.9368 59.4199 78.012 59.5156 78.085C59.6113 78.1579 59.7389 78.2354 59.8984 78.3174C60.0625 78.3949 60.263 78.4814 60.5 78.5771C60.9922 78.7594 61.3955 78.9554 61.71 79.165C62.029 79.3747 62.266 79.6208 62.4209 79.9033C62.5758 80.1813 62.6533 80.5254 62.6533 80.9355C62.6533 81.2637 62.5895 81.5622 62.4619 81.8311C62.3389 82.0999 62.1589 82.3324 61.9219 82.5283C61.6849 82.7243 61.4001 82.8747 61.0674 82.9795C60.7393 83.0843 60.3724 83.1367 59.9668 83.1367C59.3698 83.1367 58.8662 83.0182 58.4561 82.7812C58.0459 82.5443 57.736 82.2412 57.5264 81.8721C57.3167 81.4984 57.2119 81.111 57.2119 80.71H59.0303C59.0394 80.9561 59.085 81.1497 59.167 81.291C59.2536 81.4277 59.3698 81.5234 59.5156 81.5781C59.6615 81.6328 59.8232 81.6602 60.001 81.6602C60.1787 81.6602 60.3245 81.6374 60.4385 81.5918C60.557 81.5417 60.6458 81.4665 60.7051 81.3662C60.7643 81.2614 60.7939 81.1406 60.7939 81.0039Z" fill="url(#paint0_linear_1405_1357)"/>
<path d="M319.843 63.8242L317.703 72H315.591L318.701 62.0469H320.021L319.843 63.8242ZM321.531 72L319.378 63.8242L319.18 62.0469H320.52L323.657 72H321.531ZM321.606 68.2881V69.9492H317.115V68.2881H321.606ZM328.005 70.2227V64.6035H329.926V72H328.121L328.005 70.2227ZM328.224 68.6982L328.757 68.6846C328.757 69.1813 328.709 69.6416 328.613 70.0654C328.518 70.4847 328.374 70.8493 328.183 71.1592C327.991 71.4691 327.752 71.7106 327.465 71.8838C327.178 72.0524 326.838 72.1367 326.446 72.1367C326.146 72.1367 325.868 72.0866 325.612 71.9863C325.362 71.8815 325.145 71.7197 324.963 71.501C324.781 71.2777 324.637 70.9928 324.532 70.6465C324.432 70.2956 324.382 69.874 324.382 69.3818V64.6035H326.303V69.4023C326.303 69.6029 326.321 69.776 326.357 69.9219C326.394 70.0632 326.444 70.1794 326.508 70.2705C326.572 70.3617 326.647 70.4277 326.733 70.4688C326.82 70.5052 326.918 70.5234 327.027 70.5234C327.328 70.5234 327.565 70.446 327.738 70.291C327.916 70.1315 328.041 69.915 328.114 69.6416C328.187 69.3636 328.224 69.0492 328.224 68.6982ZM334.547 64.6035V66.0459H330.773V64.6035H334.547ZM331.642 62.7783H333.549V69.7441C333.549 69.9492 333.569 70.1064 333.61 70.2158C333.651 70.3252 333.713 70.4027 333.795 70.4482C333.882 70.4893 333.995 70.5098 334.137 70.5098C334.232 70.5098 334.321 70.5052 334.403 70.4961C334.485 70.4824 334.547 70.4688 334.588 70.4551V71.9521C334.438 72.0114 334.278 72.057 334.109 72.0889C333.945 72.1208 333.749 72.1367 333.521 72.1367C333.139 72.1367 332.806 72.0638 332.523 71.918C332.245 71.7721 332.029 71.5397 331.874 71.2207C331.719 70.8971 331.642 70.4733 331.642 69.9492V62.7783ZM335.189 68.5547V68.0557C335.189 67.4769 335.258 66.9642 335.395 66.5176C335.536 66.071 335.736 65.6973 335.996 65.3965C336.256 65.0911 336.568 64.861 336.933 64.7061C337.302 64.5465 337.714 64.4668 338.17 64.4668C338.63 64.4668 339.043 64.5465 339.407 64.7061C339.776 64.861 340.091 65.0911 340.351 65.3965C340.615 65.6973 340.818 66.071 340.959 66.5176C341.1 66.9642 341.171 67.4769 341.171 68.0557V68.5547C341.171 69.1289 341.1 69.6393 340.959 70.0859C340.818 70.5326 340.615 70.9085 340.351 71.2139C340.091 71.5192 339.779 71.7493 339.414 71.9043C339.049 72.0592 338.639 72.1367 338.184 72.1367C337.728 72.1367 337.315 72.0592 336.946 71.9043C336.582 71.7493 336.267 71.5192 336.003 71.2139C335.739 70.9085 335.536 70.5326 335.395 70.0859C335.258 69.6393 335.189 69.1289 335.189 68.5547ZM337.104 68.0557V68.5547C337.104 68.8965 337.126 69.1927 337.172 69.4434C337.222 69.694 337.293 69.9014 337.384 70.0654C337.479 70.2295 337.593 70.3503 337.726 70.4277C337.858 70.5052 338.01 70.5439 338.184 70.5439C338.357 70.5439 338.512 70.5052 338.648 70.4277C338.785 70.3503 338.897 70.2295 338.983 70.0654C339.075 69.9014 339.141 69.694 339.182 69.4434C339.227 69.1927 339.25 68.8965 339.25 68.5547V68.0557C339.25 67.723 339.225 67.4313 339.175 67.1807C339.125 66.9255 339.054 66.7181 338.963 66.5586C338.872 66.3945 338.758 66.2715 338.621 66.1895C338.489 66.1029 338.339 66.0596 338.17 66.0596C338.001 66.0596 337.851 66.1029 337.719 66.1895C337.591 66.2715 337.479 66.3945 337.384 66.5586C337.293 66.7181 337.222 66.9255 337.172 67.1807C337.126 67.4313 337.104 67.723 337.104 68.0557ZM344.261 66.1826V72H342.34V64.6035H344.138L344.261 66.1826ZM343.974 68.0488L343.461 68.0625C343.452 67.5065 343.504 67.0075 343.618 66.5654C343.737 66.1234 343.903 65.7474 344.117 65.4375C344.336 65.123 344.596 64.8838 344.896 64.7197C345.202 64.5511 345.541 64.4668 345.915 64.4668C346.202 64.4668 346.464 64.5169 346.701 64.6172C346.943 64.7174 347.15 64.877 347.323 65.0957C347.496 65.3145 347.631 65.6061 347.727 65.9707C347.822 66.3307 347.87 66.7728 347.87 67.2969V72H345.949V67.2832C345.949 66.9642 345.917 66.7181 345.854 66.5449C345.79 66.3672 345.694 66.2441 345.566 66.1758C345.439 66.1029 345.279 66.0664 345.088 66.0664C344.906 66.0664 344.744 66.1188 344.603 66.2236C344.461 66.3239 344.343 66.4629 344.247 66.6406C344.156 66.8184 344.085 67.028 344.035 67.2695C343.99 67.5111 343.969 67.7708 343.974 68.0488ZM352.847 70.2227V64.6035H354.768V72H352.963L352.847 70.2227ZM353.065 68.6982L353.599 68.6846C353.599 69.1813 353.551 69.6416 353.455 70.0654C353.359 70.4847 353.216 70.8493 353.024 71.1592C352.833 71.4691 352.594 71.7106 352.307 71.8838C352.02 72.0524 351.68 72.1367 351.288 72.1367C350.987 72.1367 350.709 72.0866 350.454 71.9863C350.203 71.8815 349.987 71.7197 349.805 71.501C349.622 71.2777 349.479 70.9928 349.374 70.6465C349.274 70.2956 349.224 69.874 349.224 69.3818V64.6035H351.145V69.4023C351.145 69.6029 351.163 69.776 351.199 69.9219C351.236 70.0632 351.286 70.1794 351.35 70.2705C351.413 70.3617 351.489 70.4277 351.575 70.4688C351.662 70.5052 351.76 70.5234 351.869 70.5234C352.17 70.5234 352.407 70.446 352.58 70.291C352.758 70.1315 352.883 69.915 352.956 69.6416C353.029 69.3636 353.065 69.0492 353.065 68.6982ZM358.09 66.1348V72H356.169V64.6035H357.974L358.09 66.1348ZM357.816 68.0488L357.29 68.0625C357.281 67.543 357.326 67.0645 357.427 66.627C357.527 66.1895 357.677 65.8089 357.878 65.4854C358.083 65.1618 358.34 64.9111 358.65 64.7334C358.96 64.5557 359.323 64.4668 359.737 64.4668C360.006 64.4668 360.255 64.5169 360.482 64.6172C360.71 64.7129 360.909 64.8656 361.077 65.0752C361.246 65.2803 361.376 65.5492 361.467 65.8818C361.558 66.21 361.604 66.6042 361.604 67.0645V72H359.689V67.2969C359.689 66.9688 359.658 66.7181 359.594 66.5449C359.53 66.3672 359.439 66.2441 359.32 66.1758C359.202 66.1029 359.056 66.0664 358.883 66.0664C358.701 66.0664 358.541 66.1165 358.404 66.2168C358.268 66.3171 358.156 66.4583 358.069 66.6406C357.987 66.8184 357.924 67.028 357.878 67.2695C357.837 67.5111 357.816 67.7708 357.816 68.0488ZM361.419 67.8574L360.729 67.9463C360.719 67.4587 360.763 67.0052 360.858 66.5859C360.954 66.1621 361.102 65.793 361.303 65.4785C361.503 65.1595 361.754 64.9111 362.055 64.7334C362.36 64.5557 362.713 64.4668 363.114 64.4668C363.415 64.4668 363.688 64.5169 363.935 64.6172C364.181 64.7174 364.39 64.8792 364.563 65.1025C364.741 65.3213 364.876 65.6107 364.967 65.9707C365.062 66.3307 365.11 66.7682 365.11 67.2832V72H363.189V67.29C363.189 66.9574 363.158 66.7021 363.094 66.5244C363.03 66.3467 362.939 66.2259 362.82 66.1621C362.702 66.0983 362.561 66.0664 362.396 66.0664C362.232 66.0664 362.089 66.112 361.966 66.2031C361.847 66.2943 361.747 66.4219 361.665 66.5859C361.583 66.7454 361.521 66.9346 361.48 67.1533C361.439 67.3675 361.419 67.6022 361.419 67.8574ZM368.48 66.1348V72H366.56V64.6035H368.364L368.48 66.1348ZM368.207 68.0488L367.681 68.0625C367.672 67.543 367.717 67.0645 367.817 66.627C367.918 66.1895 368.068 65.8089 368.269 65.4854C368.474 65.1618 368.731 64.9111 369.041 64.7334C369.351 64.5557 369.713 64.4668 370.128 64.4668C370.397 64.4668 370.645 64.5169 370.873 64.6172C371.101 64.7129 371.299 64.8656 371.468 65.0752C371.636 65.2803 371.766 65.5492 371.857 65.8818C371.949 66.21 371.994 66.6042 371.994 67.0645V72H370.08V67.2969C370.08 66.9688 370.048 66.7181 369.984 66.5449C369.921 66.3672 369.829 66.2441 369.711 66.1758C369.592 66.1029 369.447 66.0664 369.273 66.0664C369.091 66.0664 368.932 66.1165 368.795 66.2168C368.658 66.3171 368.547 66.4583 368.46 66.6406C368.378 66.8184 368.314 67.028 368.269 67.2695C368.228 67.5111 368.207 67.7708 368.207 68.0488ZM371.81 67.8574L371.119 67.9463C371.11 67.4587 371.153 67.0052 371.249 66.5859C371.345 66.1621 371.493 65.793 371.693 65.4785C371.894 65.1595 372.145 64.9111 372.445 64.7334C372.751 64.5557 373.104 64.4668 373.505 64.4668C373.806 64.4668 374.079 64.5169 374.325 64.6172C374.571 64.7174 374.781 64.8792 374.954 65.1025C375.132 65.3213 375.266 65.6107 375.357 65.9707C375.453 66.3307 375.501 66.7682 375.501 67.2832V72H373.58V67.29C373.58 66.9574 373.548 66.7021 373.484 66.5244C373.421 66.3467 373.329 66.2259 373.211 66.1621C373.092 66.0983 372.951 66.0664 372.787 66.0664C372.623 66.0664 372.479 66.112 372.356 66.2031C372.238 66.2943 372.138 66.4219 372.056 66.5859C371.974 66.7454 371.912 66.9346 371.871 67.1533C371.83 67.3675 371.81 67.6022 371.81 67.8574ZM379.924 72.1367C379.418 72.1367 378.969 72.0592 378.577 71.9043C378.19 71.7493 377.862 71.526 377.593 71.2344C377.324 70.9382 377.119 70.5804 376.978 70.1611C376.836 69.7419 376.766 69.2633 376.766 68.7256V68.1172C376.766 67.5156 376.834 66.9893 376.971 66.5381C377.107 66.0824 377.301 65.6995 377.552 65.3896C377.802 65.0798 378.11 64.8496 378.475 64.6992C378.844 64.5443 379.261 64.4668 379.726 64.4668C380.19 64.4668 380.598 64.5443 380.949 64.6992C381.305 64.8496 381.599 65.0775 381.831 65.3828C382.063 65.6836 382.239 66.0573 382.357 66.5039C382.476 66.9505 382.535 67.4701 382.535 68.0625V68.9375H377.579V67.5908H380.655V67.4199C380.655 67.1191 380.623 66.8685 380.56 66.668C380.496 66.4629 380.396 66.3102 380.259 66.21C380.122 66.1097 379.94 66.0596 379.712 66.0596C379.521 66.0596 379.359 66.0983 379.227 66.1758C379.094 66.2533 378.99 66.374 378.912 66.5381C378.835 66.7021 378.778 66.9163 378.741 67.1807C378.705 67.4404 378.687 67.7526 378.687 68.1172V68.7256C378.687 69.0674 378.716 69.3545 378.775 69.5869C378.835 69.8148 378.921 70.0016 379.035 70.1475C379.154 70.2887 379.297 70.3913 379.466 70.4551C379.634 70.5143 379.83 70.5439 380.054 70.5439C380.391 70.5439 380.694 70.4847 380.963 70.3662C381.236 70.2432 381.469 70.0768 381.66 69.8672L382.426 71.0293C382.294 71.2025 382.111 71.3757 381.879 71.5488C381.646 71.722 381.368 71.8633 381.045 71.9727C380.721 72.082 380.348 72.1367 379.924 72.1367ZM385.557 66.251V72H383.643V64.6035H385.447L385.557 66.251ZM387.3 64.5488L387.272 66.4561C387.186 66.4378 387.081 66.4242 386.958 66.415C386.84 66.4059 386.735 66.4014 386.644 66.4014C386.429 66.4014 386.247 66.4355 386.097 66.5039C385.946 66.5677 385.821 66.6657 385.721 66.7979C385.625 66.9255 385.552 67.085 385.502 67.2764C385.452 67.4678 385.422 67.6842 385.413 67.9258L385.051 67.7891C385.051 67.306 385.087 66.8639 385.16 66.4629C385.238 66.0573 385.352 65.7064 385.502 65.4102C385.652 65.1094 385.832 64.877 386.042 64.7129C386.256 64.5488 386.498 64.4668 386.767 64.4668C386.858 64.4668 386.953 64.4759 387.054 64.4941C387.159 64.5078 387.241 64.526 387.3 64.5488Z" fill="url(#paint1_linear_1405_1357)"/>
<path d="M621.261 62.0469H624.453C625.118 62.0469 625.686 62.1608 626.155 62.3887C626.625 62.6165 626.985 62.9538 627.235 63.4004C627.486 63.847 627.611 64.3984 627.611 65.0547C627.611 65.5924 627.538 66.0527 627.393 66.4355C627.247 66.8138 627.039 67.1305 626.771 67.3857C626.502 67.6364 626.18 67.8369 625.807 67.9873L625.198 68.3496H622.607L622.601 66.6885H624.398C624.672 66.6885 624.897 66.6292 625.075 66.5107C625.257 66.3877 625.392 66.2168 625.479 65.998C625.57 65.7747 625.615 65.515 625.615 65.2188C625.615 64.9043 625.574 64.6354 625.492 64.4121C625.415 64.1842 625.289 64.0111 625.116 63.8926C624.948 63.7695 624.727 63.708 624.453 63.708H623.264V72H621.261V62.0469ZM625.779 72L623.954 67.5635L626.053 67.5566L627.919 71.9043V72H625.779ZM631.891 72.1367C631.385 72.1367 630.936 72.0592 630.544 71.9043C630.157 71.7493 629.828 71.526 629.56 71.2344C629.291 70.9382 629.086 70.5804 628.944 70.1611C628.803 69.7419 628.732 69.2633 628.732 68.7256V68.1172C628.732 67.5156 628.801 66.9893 628.938 66.5381C629.074 66.0824 629.268 65.6995 629.519 65.3896C629.769 65.0798 630.077 64.8496 630.441 64.6992C630.811 64.5443 631.228 64.4668 631.692 64.4668C632.157 64.4668 632.565 64.5443 632.916 64.6992C633.271 64.8496 633.565 65.0775 633.798 65.3828C634.03 65.6836 634.206 66.0573 634.324 66.5039C634.443 66.9505 634.502 67.4701 634.502 68.0625V68.9375H629.546V67.5908H632.622V67.4199C632.622 67.1191 632.59 66.8685 632.526 66.668C632.463 66.4629 632.362 66.3102 632.226 66.21C632.089 66.1097 631.907 66.0596 631.679 66.0596C631.487 66.0596 631.326 66.0983 631.193 66.1758C631.061 66.2533 630.956 66.374 630.879 66.5381C630.801 66.7021 630.744 66.9163 630.708 67.1807C630.672 67.4404 630.653 67.7526 630.653 68.1172V68.7256C630.653 69.0674 630.683 69.3545 630.742 69.5869C630.801 69.8148 630.888 70.0016 631.002 70.1475C631.12 70.2887 631.264 70.3913 631.433 70.4551C631.601 70.5143 631.797 70.5439 632.021 70.5439C632.358 70.5439 632.661 70.4847 632.93 70.3662C633.203 70.2432 633.436 70.0768 633.627 69.8672L634.393 71.0293C634.26 71.2025 634.078 71.3757 633.846 71.5488C633.613 71.722 633.335 71.8633 633.012 71.9727C632.688 72.082 632.314 72.1367 631.891 72.1367ZM638.282 70.5439C638.46 70.5439 638.613 70.5075 638.74 70.4346C638.872 70.3617 638.973 70.2432 639.041 70.0791C639.109 69.915 639.146 69.7031 639.15 69.4434H640.948C640.948 69.9993 640.83 70.4801 640.593 70.8857C640.36 71.2868 640.046 71.5967 639.649 71.8154C639.257 72.0296 638.813 72.1367 638.316 72.1367C637.82 72.1367 637.387 72.057 637.018 71.8975C636.648 71.738 636.343 71.5055 636.102 71.2002C635.865 70.8949 635.685 70.5234 635.562 70.0859C635.443 69.6439 635.384 69.138 635.384 68.5684V68.0283C635.384 67.4678 635.443 66.9665 635.562 66.5244C635.685 66.0824 635.865 65.7087 636.102 65.4033C636.343 65.098 636.646 64.8656 637.011 64.7061C637.38 64.5465 637.813 64.4668 638.31 64.4668C638.843 64.4668 639.305 64.5785 639.697 64.8018C640.089 65.0205 640.395 65.3441 640.613 65.7725C640.837 66.2008 640.948 66.7295 640.948 67.3584H639.15C639.146 67.0758 639.112 66.8411 639.048 66.6543C638.989 66.4629 638.895 66.3171 638.768 66.2168C638.645 66.112 638.48 66.0596 638.275 66.0596C638.061 66.0596 637.888 66.1051 637.756 66.1963C637.628 66.2829 637.53 66.4105 637.462 66.5791C637.398 66.7432 637.355 66.9482 637.332 67.1943C637.309 67.4404 637.298 67.7184 637.298 68.0283V68.5684C637.298 68.901 637.307 69.1904 637.325 69.4365C637.348 69.6781 637.391 69.8831 637.455 70.0518C637.523 70.2158 637.621 70.3389 637.749 70.4209C637.881 70.5029 638.059 70.5439 638.282 70.5439ZM643.915 61.5V72H642.001V61.5H643.915ZM643.642 68.0488L643.122 68.0625C643.122 67.543 643.174 67.0645 643.279 66.627C643.389 66.1895 643.546 65.8089 643.751 65.4854C643.956 65.1618 644.204 64.9111 644.496 64.7334C644.792 64.5557 645.118 64.4668 645.474 64.4668C645.779 64.4668 646.057 64.5192 646.308 64.624C646.558 64.7288 646.775 64.8929 646.957 65.1162C647.144 65.3395 647.287 65.6335 647.388 65.998C647.488 66.3626 647.538 66.807 647.538 67.3311V72H645.617V67.3174C645.617 66.9984 645.585 66.7477 645.521 66.5654C645.458 66.3831 645.362 66.2555 645.234 66.1826C645.107 66.1051 644.947 66.0664 644.756 66.0664C644.551 66.0664 644.375 66.1188 644.229 66.2236C644.088 66.3239 643.974 66.4629 643.888 66.6406C643.801 66.8184 643.737 67.028 643.696 67.2695C643.66 67.5111 643.642 67.7708 643.642 68.0488ZM650.819 66.1826V72H648.898V64.6035H650.696L650.819 66.1826ZM650.532 68.0488L650.02 68.0625C650.01 67.5065 650.063 67.0075 650.177 66.5654C650.295 66.1234 650.462 65.7474 650.676 65.4375C650.895 65.123 651.154 64.8838 651.455 64.7197C651.76 64.5511 652.1 64.4668 652.474 64.4668C652.761 64.4668 653.023 64.5169 653.26 64.6172C653.501 64.7174 653.709 64.877 653.882 65.0957C654.055 65.3145 654.189 65.6061 654.285 65.9707C654.381 66.3307 654.429 66.7728 654.429 67.2969V72H652.508V67.2832C652.508 66.9642 652.476 66.7181 652.412 66.5449C652.348 66.3672 652.253 66.2441 652.125 66.1758C651.997 66.1029 651.838 66.0664 651.646 66.0664C651.464 66.0664 651.302 66.1188 651.161 66.2236C651.02 66.3239 650.901 66.4629 650.806 66.6406C650.715 66.8184 650.644 67.028 650.594 67.2695C650.548 67.5111 650.528 67.7708 650.532 68.0488ZM659.405 70.2227V64.6035H661.326V72H659.521L659.405 70.2227ZM659.624 68.6982L660.157 68.6846C660.157 69.1813 660.109 69.6416 660.014 70.0654C659.918 70.4847 659.774 70.8493 659.583 71.1592C659.392 71.4691 659.152 71.7106 658.865 71.8838C658.578 72.0524 658.239 72.1367 657.847 72.1367C657.546 72.1367 657.268 72.0866 657.013 71.9863C656.762 71.8815 656.546 71.7197 656.363 71.501C656.181 71.2777 656.037 70.9928 655.933 70.6465C655.832 70.2956 655.782 69.874 655.782 69.3818V64.6035H657.703V69.4023C657.703 69.6029 657.721 69.776 657.758 69.9219C657.794 70.0632 657.844 70.1794 657.908 70.2705C657.972 70.3617 658.047 70.4277 658.134 70.4688C658.22 70.5052 658.318 70.5234 658.428 70.5234C658.729 70.5234 658.965 70.446 659.139 70.291C659.316 70.1315 659.442 69.915 659.515 69.6416C659.588 69.3636 659.624 69.0492 659.624 68.6982ZM664.601 66.1826V72H662.68V64.6035H664.478L664.601 66.1826ZM664.313 68.0488L663.801 68.0625C663.792 67.5065 663.844 67.0075 663.958 66.5654C664.076 66.1234 664.243 65.7474 664.457 65.4375C664.676 65.123 664.936 64.8838 665.236 64.7197C665.542 64.5511 665.881 64.4668 666.255 64.4668C666.542 64.4668 666.804 64.5169 667.041 64.6172C667.283 64.7174 667.49 64.877 667.663 65.0957C667.836 65.3145 667.971 65.6061 668.066 65.9707C668.162 66.3307 668.21 66.7728 668.21 67.2969V72H666.289V67.2832C666.289 66.9642 666.257 66.7181 666.193 66.5449C666.13 66.3672 666.034 66.2441 665.906 66.1758C665.779 66.1029 665.619 66.0664 665.428 66.0664C665.245 66.0664 665.084 66.1188 664.942 66.2236C664.801 66.3239 664.683 66.4629 664.587 66.6406C664.496 66.8184 664.425 67.028 664.375 67.2695C664.329 67.5111 664.309 67.7708 664.313 68.0488ZM673.501 64.6035H675.237V72C675.237 72.6745 675.107 73.2259 674.848 73.6543C674.592 74.0872 674.235 74.404 673.774 74.6045C673.319 74.8096 672.785 74.9121 672.175 74.9121C671.942 74.9121 671.68 74.8802 671.389 74.8164C671.102 74.7526 670.824 74.6546 670.555 74.5225C670.286 74.3949 670.065 74.2399 669.892 74.0576L670.541 72.7314C670.719 72.9092 670.951 73.0596 671.238 73.1826C671.525 73.3102 671.808 73.374 672.086 73.374C672.355 73.374 672.578 73.3307 672.756 73.2441C672.938 73.1621 673.075 73.0208 673.166 72.8203C673.262 72.6198 673.31 72.3509 673.31 72.0137V66.3193L673.501 64.6035ZM669.372 68.5615V68.0693C669.372 67.4678 669.429 66.9414 669.543 66.4902C669.657 66.0391 669.821 65.6631 670.035 65.3623C670.249 65.0615 670.511 64.8382 670.821 64.6924C671.136 64.542 671.487 64.4668 671.874 64.4668C672.28 64.4668 672.619 64.5557 672.893 64.7334C673.166 64.9066 673.387 65.1504 673.556 65.4648C673.729 65.7793 673.861 66.1507 673.952 66.5791C674.048 67.0075 674.121 67.4769 674.171 67.9873V68.6982C674.121 69.1813 674.039 69.6325 673.925 70.0518C673.815 70.471 673.67 70.8356 673.487 71.1455C673.305 71.4554 673.082 71.6992 672.817 71.877C672.553 72.0501 672.234 72.1367 671.86 72.1367C671.478 72.1367 671.131 72.0592 670.821 71.9043C670.516 71.7493 670.254 71.5215 670.035 71.2207C669.821 70.9154 669.657 70.5417 669.543 70.0996C669.429 69.653 669.372 69.1403 669.372 68.5615ZM671.293 68.0693V68.5615C671.293 68.9079 671.313 69.2064 671.354 69.457C671.4 69.7031 671.468 69.9059 671.56 70.0654C671.651 70.2204 671.767 70.3366 671.908 70.4141C672.054 70.487 672.225 70.5234 672.421 70.5234C672.699 70.5234 672.92 70.4596 673.084 70.332C673.253 70.1999 673.376 70.0199 673.453 69.792C673.535 69.5596 673.581 69.293 673.59 68.9922V67.7002C673.585 67.4495 673.556 67.224 673.501 67.0234C673.451 66.8229 673.38 66.652 673.289 66.5107C673.198 66.3695 673.079 66.2601 672.934 66.1826C672.792 66.1051 672.626 66.0664 672.435 66.0664C672.239 66.0664 672.07 66.1051 671.929 66.1826C671.787 66.2601 671.669 66.3809 671.573 66.5449C671.482 66.7044 671.411 66.9118 671.361 67.167C671.316 67.4176 671.293 67.7184 671.293 68.0693ZM679.947 70.0039C679.947 69.8763 679.904 69.7624 679.817 69.6621C679.731 69.5618 679.594 69.4593 679.407 69.3545C679.22 69.2451 678.972 69.1243 678.662 68.9922C678.325 68.8555 678.026 68.7142 677.767 68.5684C677.507 68.4225 677.286 68.2607 677.104 68.083C676.926 67.9053 676.791 67.7025 676.7 67.4746C676.609 67.2467 676.563 66.987 676.563 66.6953C676.563 66.3809 676.62 66.0915 676.734 65.8271C676.853 65.5583 677.021 65.3236 677.24 65.123C677.459 64.918 677.726 64.7585 678.04 64.6445C678.359 64.526 678.717 64.4668 679.113 64.4668C679.669 64.4668 680.146 64.5648 680.542 64.7607C680.943 64.9521 681.251 65.221 681.465 65.5674C681.679 65.9137 681.786 66.3171 681.786 66.7773H679.872C679.872 66.6133 679.847 66.4674 679.797 66.3398C679.747 66.2077 679.665 66.1051 679.551 66.0322C679.441 65.9593 679.293 65.9229 679.106 65.9229C678.97 65.9229 678.847 65.9525 678.737 66.0117C678.632 66.071 678.548 66.1507 678.484 66.251C678.425 66.3467 678.396 66.4606 678.396 66.5928C678.396 66.693 678.416 66.7819 678.457 66.8594C678.503 66.9368 678.573 67.012 678.669 67.085C678.765 67.1579 678.892 67.2354 679.052 67.3174C679.216 67.3949 679.416 67.4814 679.653 67.5771C680.146 67.7594 680.549 67.9554 680.863 68.165C681.182 68.3747 681.419 68.6208 681.574 68.9033C681.729 69.1813 681.807 69.5254 681.807 69.9355C681.807 70.2637 681.743 70.5622 681.615 70.8311C681.492 71.0999 681.312 71.3324 681.075 71.5283C680.838 71.7243 680.553 71.8747 680.221 71.9795C679.893 72.0843 679.526 72.1367 679.12 72.1367C678.523 72.1367 678.02 72.0182 677.609 71.7812C677.199 71.5443 676.889 71.2412 676.68 70.8721C676.47 70.4984 676.365 70.111 676.365 69.71H678.184C678.193 69.9561 678.238 70.1497 678.32 70.291C678.407 70.4277 678.523 70.5234 678.669 70.5781C678.815 70.6328 678.977 70.6602 679.154 70.6602C679.332 70.6602 679.478 70.6374 679.592 70.5918C679.71 70.5417 679.799 70.4665 679.858 70.3662C679.918 70.2614 679.947 70.1406 679.947 70.0039ZM686.305 70.0039C686.305 69.8763 686.261 69.7624 686.175 69.6621C686.088 69.5618 685.951 69.4593 685.765 69.3545C685.578 69.2451 685.329 69.1243 685.02 68.9922C684.682 68.8555 684.384 68.7142 684.124 68.5684C683.864 68.4225 683.643 68.2607 683.461 68.083C683.283 67.9053 683.149 67.7025 683.058 67.4746C682.966 67.2467 682.921 66.987 682.921 66.6953C682.921 66.3809 682.978 66.0915 683.092 65.8271C683.21 65.5583 683.379 65.3236 683.598 65.123C683.816 64.918 684.083 64.7585 684.397 64.6445C684.716 64.526 685.074 64.4668 685.471 64.4668C686.027 64.4668 686.503 64.5648 686.899 64.7607C687.3 64.9521 687.608 65.221 687.822 65.5674C688.036 65.9137 688.144 66.3171 688.144 66.7773H686.229C686.229 66.6133 686.204 66.4674 686.154 66.3398C686.104 66.2077 686.022 66.1051 685.908 66.0322C685.799 65.9593 685.651 65.9229 685.464 65.9229C685.327 65.9229 685.204 65.9525 685.095 66.0117C684.99 66.071 684.906 66.1507 684.842 66.251C684.783 66.3467 684.753 66.4606 684.753 66.5928C684.753 66.693 684.773 66.7819 684.814 66.8594C684.86 66.9368 684.931 67.012 685.026 67.085C685.122 67.1579 685.25 67.2354 685.409 67.3174C685.573 67.3949 685.774 67.4814 686.011 67.5771C686.503 67.7594 686.906 67.9554 687.221 68.165C687.54 68.3747 687.777 68.6208 687.932 68.9033C688.087 69.1813 688.164 69.5254 688.164 69.9355C688.164 70.2637 688.1 70.5622 687.973 70.8311C687.85 71.0999 687.67 71.3324 687.433 71.5283C687.196 71.7243 686.911 71.8747 686.578 71.9795C686.25 72.0843 685.883 72.1367 685.478 72.1367C684.881 72.1367 684.377 72.0182 683.967 71.7812C683.557 71.5443 683.247 71.2412 683.037 70.8721C682.827 70.4984 682.723 70.111 682.723 69.71H684.541C684.55 69.9561 684.596 70.1497 684.678 70.291C684.764 70.4277 684.881 70.5234 685.026 70.5781C685.172 70.6328 685.334 70.6602 685.512 70.6602C685.689 70.6602 685.835 70.6374 685.949 70.5918C686.068 70.5417 686.157 70.4665 686.216 70.3662C686.275 70.2614 686.305 70.1406 686.305 70.0039ZM692.607 64.6035V66.0459H688.834V64.6035H692.607ZM689.702 62.7783H691.609V69.7441C691.609 69.9492 691.63 70.1064 691.671 70.2158C691.712 70.3252 691.773 70.4027 691.855 70.4482C691.942 70.4893 692.056 70.5098 692.197 70.5098C692.293 70.5098 692.382 70.5052 692.464 70.4961C692.546 70.4824 692.607 70.4688 692.648 70.4551V71.9521C692.498 72.0114 692.339 72.057 692.17 72.0889C692.006 72.1208 691.81 72.1367 691.582 72.1367C691.199 72.1367 690.867 72.0638 690.584 71.918C690.306 71.7721 690.09 71.5397 689.935 71.2207C689.78 70.8971 689.702 70.4733 689.702 69.9492V62.7783ZM696.654 72.1367C696.148 72.1367 695.7 72.0592 695.308 71.9043C694.92 71.7493 694.592 71.526 694.323 71.2344C694.054 70.9382 693.849 70.5804 693.708 70.1611C693.567 69.7419 693.496 69.2633 693.496 68.7256V68.1172C693.496 67.5156 693.564 66.9893 693.701 66.5381C693.838 66.0824 694.032 65.6995 694.282 65.3896C694.533 65.0798 694.84 64.8496 695.205 64.6992C695.574 64.5443 695.991 64.4668 696.456 64.4668C696.921 64.4668 697.329 64.5443 697.68 64.6992C698.035 64.8496 698.329 65.0775 698.562 65.3828C698.794 65.6836 698.969 66.0573 699.088 66.5039C699.206 66.9505 699.266 67.4701 699.266 68.0625V68.9375H694.31V67.5908H697.386V67.4199C697.386 67.1191 697.354 66.8685 697.29 66.668C697.226 66.4629 697.126 66.3102 696.989 66.21C696.853 66.1097 696.67 66.0596 696.442 66.0596C696.251 66.0596 696.089 66.0983 695.957 66.1758C695.825 66.2533 695.72 66.374 695.643 66.5381C695.565 66.7021 695.508 66.9163 695.472 67.1807C695.435 67.4404 695.417 67.7526 695.417 68.1172V68.7256C695.417 69.0674 695.447 69.3545 695.506 69.5869C695.565 69.8148 695.652 70.0016 695.766 70.1475C695.884 70.2887 696.028 70.3913 696.196 70.4551C696.365 70.5143 696.561 70.5439 696.784 70.5439C697.121 70.5439 697.424 70.4847 697.693 70.3662C697.967 70.2432 698.199 70.0768 698.391 69.8672L699.156 71.0293C699.024 71.2025 698.842 71.3757 698.609 71.5488C698.377 71.722 698.099 71.8633 697.775 71.9727C697.452 72.082 697.078 72.1367 696.654 72.1367ZM702.383 61.5V72H700.462V61.5H702.383ZM705.91 61.5V72H703.989V61.5H705.91ZM711.003 70.2227V64.6035H712.924V72H711.119L711.003 70.2227ZM711.222 68.6982L711.755 68.6846C711.755 69.1813 711.707 69.6416 711.611 70.0654C711.516 70.4847 711.372 70.8493 711.181 71.1592C710.989 71.4691 710.75 71.7106 710.463 71.8838C710.176 72.0524 709.836 72.1367 709.444 72.1367C709.144 72.1367 708.866 72.0866 708.61 71.9863C708.36 71.8815 708.143 71.7197 707.961 71.501C707.779 71.2777 707.635 70.9928 707.53 70.6465C707.43 70.2956 707.38 69.874 707.38 69.3818V64.6035H709.301V69.4023C709.301 69.6029 709.319 69.776 709.355 69.9219C709.392 70.0632 709.442 70.1794 709.506 70.2705C709.57 70.3617 709.645 70.4277 709.731 70.4688C709.818 70.5052 709.916 70.5234 710.025 70.5234C710.326 70.5234 710.563 70.446 710.736 70.291C710.914 70.1315 711.039 69.915 711.112 69.6416C711.185 69.3636 711.222 69.0492 711.222 68.6982ZM716.198 66.1826V72H714.277V64.6035H716.075L716.198 66.1826ZM715.911 68.0488L715.398 68.0625C715.389 67.5065 715.442 67.0075 715.556 66.5654C715.674 66.1234 715.84 65.7474 716.055 65.4375C716.273 65.123 716.533 64.8838 716.834 64.7197C717.139 64.5511 717.479 64.4668 717.853 64.4668C718.14 64.4668 718.402 64.5169 718.639 64.6172C718.88 64.7174 719.088 64.877 719.261 65.0957C719.434 65.3145 719.568 65.6061 719.664 65.9707C719.76 66.3307 719.808 66.7728 719.808 67.2969V72H717.887V67.2832C717.887 66.9642 717.855 66.7181 717.791 66.5449C717.727 66.3672 717.632 66.2441 717.504 66.1758C717.376 66.1029 717.217 66.0664 717.025 66.0664C716.843 66.0664 716.681 66.1188 716.54 66.2236C716.399 66.3239 716.28 66.4629 716.185 66.6406C716.093 66.8184 716.023 67.028 715.973 67.2695C715.927 67.5111 715.907 67.7708 715.911 68.0488ZM725.099 64.6035H726.835V72C726.835 72.6745 726.705 73.2259 726.445 73.6543C726.19 74.0872 725.832 74.404 725.372 74.6045C724.916 74.8096 724.383 74.9121 723.772 74.9121C723.54 74.9121 723.278 74.8802 722.986 74.8164C722.699 74.7526 722.421 74.6546 722.152 74.5225C721.883 74.3949 721.662 74.2399 721.489 74.0576L722.139 72.7314C722.316 72.9092 722.549 73.0596 722.836 73.1826C723.123 73.3102 723.406 73.374 723.684 73.374C723.952 73.374 724.176 73.3307 724.354 73.2441C724.536 73.1621 724.673 73.0208 724.764 72.8203C724.859 72.6198 724.907 72.3509 724.907 72.0137V66.3193L725.099 64.6035ZM720.97 68.5615V68.0693C720.97 67.4678 721.027 66.9414 721.141 66.4902C721.255 66.0391 721.419 65.6631 721.633 65.3623C721.847 65.0615 722.109 64.8382 722.419 64.6924C722.733 64.542 723.084 64.4668 723.472 64.4668C723.877 64.4668 724.217 64.5557 724.49 64.7334C724.764 64.9066 724.985 65.1504 725.153 65.4648C725.326 65.7793 725.459 66.1507 725.55 66.5791C725.646 67.0075 725.718 67.4769 725.769 67.9873V68.6982C725.718 69.1813 725.636 69.6325 725.522 70.0518C725.413 70.471 725.267 70.8356 725.085 71.1455C724.903 71.4554 724.679 71.6992 724.415 71.877C724.151 72.0501 723.832 72.1367 723.458 72.1367C723.075 72.1367 722.729 72.0592 722.419 71.9043C722.114 71.7493 721.852 71.5215 721.633 71.2207C721.419 70.9154 721.255 70.5417 721.141 70.0996C721.027 69.653 720.97 69.1403 720.97 68.5615ZM722.891 68.0693V68.5615C722.891 68.9079 722.911 69.2064 722.952 69.457C722.998 69.7031 723.066 69.9059 723.157 70.0654C723.248 70.2204 723.365 70.3366 723.506 70.4141C723.652 70.487 723.823 70.5234 724.019 70.5234C724.297 70.5234 724.518 70.4596 724.682 70.332C724.85 70.1999 724.973 70.0199 725.051 69.792C725.133 69.5596 725.178 69.293 725.188 68.9922V67.7002C725.183 67.4495 725.153 67.224 725.099 67.0234C725.049 66.8229 724.978 66.652 724.887 66.5107C724.796 66.3695 724.677 66.2601 724.531 66.1826C724.39 66.1051 724.224 66.0664 724.032 66.0664C723.836 66.0664 723.668 66.1051 723.526 66.1826C723.385 66.2601 723.267 66.3809 723.171 66.5449C723.08 66.7044 723.009 66.9118 722.959 67.167C722.913 67.4176 722.891 67.7184 722.891 68.0693Z" fill="url(#paint2_linear_1405_1357)"/>
<path d="M956.394 59.0469V69H954.391V59.0469H956.394ZM961.336 59.0469L958.109 63.9893L956.134 66.4502L955.751 64.4473L957.029 62.3145L958.902 59.0469H961.336ZM959.025 69L956.852 64.4268L958.321 63.1279L961.384 69H959.025ZM961.637 65.5547V65.0557C961.637 64.4769 961.705 63.9642 961.842 63.5176C961.983 63.071 962.184 62.6973 962.443 62.3965C962.703 62.0911 963.015 61.861 963.38 61.7061C963.749 61.5465 964.161 61.4668 964.617 61.4668C965.077 61.4668 965.49 61.5465 965.854 61.7061C966.224 61.861 966.538 62.0911 966.798 62.3965C967.062 62.6973 967.265 63.071 967.406 63.5176C967.548 63.9642 967.618 64.4769 967.618 65.0557V65.5547C967.618 66.1289 967.548 66.6393 967.406 67.0859C967.265 67.5326 967.062 67.9085 966.798 68.2139C966.538 68.5192 966.226 68.7493 965.861 68.9043C965.497 69.0592 965.087 69.1367 964.631 69.1367C964.175 69.1367 963.763 69.0592 963.394 68.9043C963.029 68.7493 962.715 68.5192 962.45 68.2139C962.186 67.9085 961.983 67.5326 961.842 67.0859C961.705 66.6393 961.637 66.1289 961.637 65.5547ZM963.551 65.0557V65.5547C963.551 65.8965 963.574 66.1927 963.619 66.4434C963.669 66.694 963.74 66.9014 963.831 67.0654C963.927 67.2295 964.041 67.3503 964.173 67.4277C964.305 67.5052 964.458 67.5439 964.631 67.5439C964.804 67.5439 964.959 67.5052 965.096 67.4277C965.232 67.3503 965.344 67.2295 965.431 67.0654C965.522 66.9014 965.588 66.694 965.629 66.4434C965.674 66.1927 965.697 65.8965 965.697 65.5547V65.0557C965.697 64.723 965.672 64.4313 965.622 64.1807C965.572 63.9255 965.501 63.7181 965.41 63.5586C965.319 63.3945 965.205 63.2715 965.068 63.1895C964.936 63.1029 964.786 63.0596 964.617 63.0596C964.449 63.0596 964.298 63.1029 964.166 63.1895C964.038 63.2715 963.927 63.3945 963.831 63.5586C963.74 63.7181 963.669 63.9255 963.619 64.1807C963.574 64.4313 963.551 64.723 963.551 65.0557ZM970.708 63.1826V69H968.787V61.6035H970.585L970.708 63.1826ZM970.421 65.0488L969.908 65.0625C969.899 64.5065 969.951 64.0075 970.065 63.5654C970.184 63.1234 970.35 62.7474 970.564 62.4375C970.783 62.123 971.043 61.8838 971.344 61.7197C971.649 61.5511 971.989 61.4668 972.362 61.4668C972.649 61.4668 972.911 61.5169 973.148 61.6172C973.39 61.7174 973.597 61.877 973.771 62.0957C973.944 62.3145 974.078 62.6061 974.174 62.9707C974.27 63.3307 974.317 63.7728 974.317 64.2969V69H972.396V64.2832C972.396 63.9642 972.365 63.7181 972.301 63.5449C972.237 63.3672 972.141 63.2441 972.014 63.1758C971.886 63.1029 971.727 63.0664 971.535 63.0664C971.353 63.0664 971.191 63.1188 971.05 63.2236C970.909 63.3239 970.79 63.4629 970.694 63.6406C970.603 63.8184 970.533 64.028 970.482 64.2695C970.437 64.5111 970.416 64.7708 970.421 65.0488ZM978.945 61.6035V63.0459H975.172V61.6035H978.945ZM976.04 59.7783H977.947V66.7441C977.947 66.9492 977.968 67.1064 978.009 67.2158C978.05 67.3252 978.111 67.4027 978.193 67.4482C978.28 67.4893 978.394 67.5098 978.535 67.5098C978.631 67.5098 978.72 67.5052 978.802 67.4961C978.884 67.4824 978.945 67.4688 978.986 67.4551V68.9521C978.836 69.0114 978.676 69.057 978.508 69.0889C978.344 69.1208 978.148 69.1367 977.92 69.1367C977.537 69.1367 977.204 69.0638 976.922 68.918C976.644 68.7721 976.427 68.5397 976.272 68.2207C976.118 67.8971 976.04 67.4733 976.04 66.9492V59.7783ZM981.926 63.251V69H980.012V61.6035H981.816L981.926 63.251ZM983.669 61.5488L983.642 63.4561C983.555 63.4378 983.45 63.4242 983.327 63.415C983.209 63.4059 983.104 63.4014 983.013 63.4014C982.799 63.4014 982.616 63.4355 982.466 63.5039C982.315 63.5677 982.19 63.6657 982.09 63.7979C981.994 63.9255 981.921 64.085 981.871 64.2764C981.821 64.4678 981.791 64.6842 981.782 64.9258L981.42 64.7891C981.42 64.306 981.456 63.8639 981.529 63.4629C981.607 63.0573 981.721 62.7064 981.871 62.4102C982.021 62.1094 982.201 61.877 982.411 61.7129C982.625 61.5488 982.867 61.4668 983.136 61.4668C983.227 61.4668 983.323 61.4759 983.423 61.4941C983.528 61.5078 983.61 61.526 983.669 61.5488ZM984.182 65.5547V65.0557C984.182 64.4769 984.25 63.9642 984.387 63.5176C984.528 63.071 984.729 62.6973 984.988 62.3965C985.248 62.0911 985.56 61.861 985.925 61.7061C986.294 61.5465 986.706 61.4668 987.162 61.4668C987.622 61.4668 988.035 61.5465 988.399 61.7061C988.769 61.861 989.083 62.0911 989.343 62.3965C989.607 62.6973 989.81 63.071 989.951 63.5176C990.092 63.9642 990.163 64.4769 990.163 65.0557V65.5547C990.163 66.1289 990.092 66.6393 989.951 67.0859C989.81 67.5326 989.607 67.9085 989.343 68.2139C989.083 68.5192 988.771 68.7493 988.406 68.9043C988.042 69.0592 987.632 69.1367 987.176 69.1367C986.72 69.1367 986.308 69.0592 985.938 68.9043C985.574 68.7493 985.259 68.5192 984.995 68.2139C984.731 67.9085 984.528 67.5326 984.387 67.0859C984.25 66.6393 984.182 66.1289 984.182 65.5547ZM986.096 65.0557V65.5547C986.096 65.8965 986.118 66.1927 986.164 66.4434C986.214 66.694 986.285 66.9014 986.376 67.0654C986.472 67.2295 986.586 67.3503 986.718 67.4277C986.85 67.5052 987.003 67.5439 987.176 67.5439C987.349 67.5439 987.504 67.5052 987.641 67.4277C987.777 67.3503 987.889 67.2295 987.976 67.0654C988.067 66.9014 988.133 66.694 988.174 66.4434C988.219 66.1927 988.242 65.8965 988.242 65.5547V65.0557C988.242 64.723 988.217 64.4313 988.167 64.1807C988.117 63.9255 988.046 63.7181 987.955 63.5586C987.864 63.3945 987.75 63.2715 987.613 63.1895C987.481 63.1029 987.331 63.0596 987.162 63.0596C986.993 63.0596 986.843 63.1029 986.711 63.1895C986.583 63.2715 986.472 63.3945 986.376 63.5586C986.285 63.7181 986.214 63.9255 986.164 64.1807C986.118 64.4313 986.096 64.723 986.096 65.0557ZM993.383 58.5V69H991.462V58.5H993.383ZM996.91 58.5V69H994.989V58.5H996.91ZM1001.41 69.1367C1000.9 69.1367 1000.45 69.0592 1000.06 68.9043C999.674 68.7493 999.346 68.526 999.077 68.2344C998.808 67.9382 998.603 67.5804 998.462 67.1611C998.321 66.7419 998.25 66.2633 998.25 65.7256V65.1172C998.25 64.5156 998.318 63.9893 998.455 63.5381C998.592 63.0824 998.785 62.6995 999.036 62.3896C999.287 62.0798 999.594 61.8496 999.959 61.6992C1000.33 61.5443 1000.75 61.4668 1001.21 61.4668C1001.67 61.4668 1002.08 61.5443 1002.43 61.6992C1002.79 61.8496 1003.08 62.0775 1003.32 62.3828C1003.55 62.6836 1003.72 63.0573 1003.84 63.5039C1003.96 63.9505 1004.02 64.4701 1004.02 65.0625V65.9375H999.063V64.5908H1002.14V64.4199C1002.14 64.1191 1002.11 63.8685 1002.04 63.668C1001.98 63.4629 1001.88 63.3102 1001.74 63.21C1001.61 63.1097 1001.42 63.0596 1001.2 63.0596C1001 63.0596 1000.84 63.0983 1000.71 63.1758C1000.58 63.2533 1000.47 63.374 1000.4 63.5381C1000.32 63.7021 1000.26 63.9163 1000.23 64.1807C1000.19 64.4404 1000.17 64.7526 1000.17 65.1172V65.7256C1000.17 66.0674 1000.2 66.3545 1000.26 66.5869C1000.32 66.8148 1000.41 67.0016 1000.52 67.1475C1000.64 67.2887 1000.78 67.3913 1000.95 67.4551C1001.12 67.5143 1001.31 67.5439 1001.54 67.5439C1001.88 67.5439 1002.18 67.4847 1002.45 67.3662C1002.72 67.2432 1002.95 67.0768 1003.14 66.8672L1003.91 68.0293C1003.78 68.2025 1003.6 68.3757 1003.36 68.5488C1003.13 68.722 1002.85 68.8633 1002.53 68.9727C1002.21 69.082 1001.83 69.1367 1001.41 69.1367ZM972.923 81.2227V75.6035H974.844V83H973.039L972.923 81.2227ZM973.142 79.6982L973.675 79.6846C973.675 80.1813 973.627 80.6416 973.531 81.0654C973.436 81.4847 973.292 81.8493 973.101 82.1592C972.909 82.4691 972.67 82.7106 972.383 82.8838C972.096 83.0524 971.756 83.1367 971.364 83.1367C971.063 83.1367 970.785 83.0866 970.53 82.9863C970.28 82.8815 970.063 82.7197 969.881 82.501C969.699 82.2777 969.555 81.9928 969.45 81.6465C969.35 81.2956 969.3 80.874 969.3 80.3818V75.6035H971.221V80.4023C971.221 80.6029 971.239 80.776 971.275 80.9219C971.312 81.0632 971.362 81.1794 971.426 81.2705C971.49 81.3617 971.565 81.4277 971.651 81.4688C971.738 81.5052 971.836 81.5234 971.945 81.5234C972.246 81.5234 972.483 81.446 972.656 81.291C972.834 81.1315 972.959 80.915 973.032 80.6416C973.105 80.3636 973.142 80.0492 973.142 79.6982ZM978.118 77.1826V83H976.197V75.6035H977.995L978.118 77.1826ZM977.831 79.0488L977.318 79.0625C977.309 78.5065 977.362 78.0075 977.476 77.5654C977.594 77.1234 977.76 76.7474 977.975 76.4375C978.193 76.123 978.453 75.8838 978.754 75.7197C979.059 75.5511 979.399 75.4668 979.772 75.4668C980.06 75.4668 980.322 75.5169 980.559 75.6172C980.8 75.7174 981.007 75.877 981.181 76.0957C981.354 76.3145 981.488 76.6061 981.584 76.9707C981.68 77.3307 981.728 77.7728 981.728 78.2969V83H979.807V78.2832C979.807 77.9642 979.775 77.7181 979.711 77.5449C979.647 77.3672 979.551 77.2441 979.424 77.1758C979.296 77.1029 979.137 77.0664 978.945 77.0664C978.763 77.0664 978.601 77.1188 978.46 77.2236C978.319 77.3239 978.2 77.4629 978.104 77.6406C978.013 77.8184 977.943 78.028 977.893 78.2695C977.847 78.5111 977.826 78.7708 977.831 79.0488ZM986.711 81.3662V72.5H988.632V83L986.896 83.0068L986.711 81.3662ZM982.876 79.5615V79.0693C982.876 78.4678 982.926 77.9414 983.026 77.4902C983.131 77.0391 983.286 76.6631 983.491 76.3623C983.696 76.0615 983.947 75.8382 984.243 75.6924C984.544 75.542 984.888 75.4668 985.275 75.4668C985.626 75.4668 985.934 75.5557 986.198 75.7334C986.467 75.9066 986.695 76.1504 986.882 76.4648C987.069 76.7793 987.219 77.1507 987.333 77.5791C987.447 78.0075 987.527 78.4769 987.572 78.9873V79.6982C987.518 80.1813 987.433 80.6325 987.319 81.0518C987.21 81.471 987.06 81.8356 986.868 82.1455C986.681 82.4554 986.456 82.6992 986.191 82.877C985.927 83.0501 985.619 83.1367 985.269 83.1367C984.881 83.1367 984.537 83.0592 984.236 82.9043C983.94 82.7493 983.689 82.5215 983.484 82.2207C983.284 81.9154 983.131 81.5417 983.026 81.0996C982.926 80.653 982.876 80.1403 982.876 79.5615ZM984.79 79.0693V79.5615C984.79 79.9079 984.806 80.2064 984.838 80.457C984.874 80.7031 984.931 80.9059 985.009 81.0654C985.091 81.2204 985.198 81.3366 985.33 81.4141C985.462 81.487 985.626 81.5234 985.822 81.5234C986.077 81.5234 986.285 81.4596 986.444 81.332C986.604 81.1999 986.722 81.0199 986.8 80.792C986.882 80.5596 986.927 80.293 986.937 79.9922V78.7002C986.927 78.4495 986.898 78.224 986.848 78.0234C986.798 77.8229 986.727 77.652 986.636 77.5107C986.545 77.3695 986.431 77.2601 986.294 77.1826C986.162 77.1051 986.007 77.0664 985.829 77.0664C985.638 77.0664 985.474 77.1051 985.337 77.1826C985.205 77.2601 985.1 77.3809 985.022 77.5449C984.945 77.7044 984.886 77.9118 984.845 78.167C984.808 78.4176 984.79 78.7184 984.79 79.0693ZM953.789 92.6592H951.752L951.745 91.21H953.481C953.755 91.21 953.978 91.1644 954.151 91.0732C954.329 90.9775 954.459 90.8385 954.541 90.6562C954.628 90.4694 954.671 90.2438 954.671 89.9795C954.671 89.6742 954.632 89.4303 954.555 89.248C954.477 89.0612 954.352 88.9245 954.179 88.8379C954.006 88.7513 953.78 88.708 953.502 88.708H952.436V97H950.433V87.0469H953.502C953.999 87.0469 954.443 87.1016 954.835 87.2109C955.227 87.3203 955.56 87.4867 955.833 87.71C956.106 87.9333 956.314 88.2158 956.455 88.5576C956.601 88.8994 956.674 89.3027 956.674 89.7676C956.674 90.1777 956.592 90.556 956.428 90.9023C956.264 91.2487 956.006 91.5312 955.655 91.75C955.309 91.9688 954.855 92.0918 954.295 92.1191L953.789 92.6592ZM953.721 97H951.185L951.984 95.3457H953.721C953.985 95.3457 954.199 95.2887 954.363 95.1748C954.527 95.0609 954.646 94.9082 954.719 94.7168C954.792 94.5208 954.828 94.2975 954.828 94.0469C954.828 93.7643 954.794 93.5182 954.726 93.3086C954.662 93.099 954.555 92.9395 954.404 92.8301C954.254 92.7161 954.051 92.6592 953.796 92.6592H952.073L952.087 91.21H954.179L954.65 91.7842C955.184 91.766 955.61 91.8685 955.929 92.0918C956.248 92.3105 956.476 92.5977 956.612 92.9531C956.754 93.304 956.824 93.6777 956.824 94.0742C956.824 94.7122 956.703 95.25 956.462 95.6875C956.225 96.1204 955.876 96.4486 955.416 96.6719C954.956 96.8906 954.391 97 953.721 97ZM961.179 97.1367C960.673 97.1367 960.224 97.0592 959.832 96.9043C959.445 96.7493 959.117 96.526 958.848 96.2344C958.579 95.9382 958.374 95.5804 958.232 95.1611C958.091 94.7419 958.021 94.2633 958.021 93.7256V93.1172C958.021 92.5156 958.089 91.9893 958.226 91.5381C958.362 91.0824 958.556 90.6995 958.807 90.3896C959.057 90.0798 959.365 89.8496 959.729 89.6992C960.099 89.5443 960.516 89.4668 960.98 89.4668C961.445 89.4668 961.853 89.5443 962.204 89.6992C962.56 89.8496 962.854 90.0775 963.086 90.3828C963.318 90.6836 963.494 91.0573 963.612 91.5039C963.731 91.9505 963.79 92.4701 963.79 93.0625V93.9375H958.834V92.5908H961.91V92.4199C961.91 92.1191 961.878 91.8685 961.814 91.668C961.751 91.4629 961.65 91.3102 961.514 91.21C961.377 91.1097 961.195 91.0596 960.967 91.0596C960.775 91.0596 960.614 91.0983 960.481 91.1758C960.349 91.2533 960.244 91.374 960.167 91.5381C960.09 91.7021 960.033 91.9163 959.996 92.1807C959.96 92.4404 959.941 92.7526 959.941 93.1172V93.7256C959.941 94.0674 959.971 94.3545 960.03 94.5869C960.09 94.8148 960.176 95.0016 960.29 95.1475C960.409 95.2887 960.552 95.3913 960.721 95.4551C960.889 95.5143 961.085 95.5439 961.309 95.5439C961.646 95.5439 961.949 95.4847 962.218 95.3662C962.491 95.2432 962.724 95.0768 962.915 94.8672L963.681 96.0293C963.549 96.2025 963.366 96.3757 963.134 96.5488C962.901 96.722 962.623 96.8633 962.3 96.9727C961.976 97.082 961.603 97.1367 961.179 97.1367ZM969.956 95.4072V97H965.26V95.4072H969.956ZM969.908 90.7656L966.012 97H964.733V95.7969L968.609 89.6035H969.908V90.7656ZM969.238 89.6035V91.1963H964.809V89.6035H969.238ZM974.488 95.2979V91.8799C974.488 91.6566 974.461 91.4788 974.406 91.3467C974.356 91.2145 974.279 91.1188 974.174 91.0596C974.074 90.9958 973.951 90.9639 973.805 90.9639C973.641 90.9639 973.504 90.998 973.395 91.0664C973.285 91.1348 973.203 91.2327 973.148 91.3604C973.098 91.488 973.073 91.6406 973.073 91.8184H971.152C971.152 91.4993 971.214 91.1986 971.337 90.916C971.46 90.6289 971.64 90.3783 971.877 90.1641C972.118 89.9453 972.406 89.7744 972.738 89.6514C973.071 89.5283 973.445 89.4668 973.859 89.4668C974.352 89.4668 974.789 89.5511 975.172 89.7197C975.555 89.8838 975.858 90.1458 976.081 90.5059C976.304 90.8659 976.416 91.333 976.416 91.9072V95.2021C976.416 95.6169 976.437 95.9541 976.478 96.2139C976.523 96.4736 976.589 96.6969 976.676 96.8838V97H974.748C974.661 96.7949 974.595 96.5397 974.55 96.2344C974.509 95.9245 974.488 95.6123 974.488 95.2979ZM974.721 92.4814L974.728 93.6299H974.023C973.841 93.6299 973.682 93.6595 973.545 93.7188C973.413 93.778 973.301 93.8623 973.21 93.9717C973.119 94.0765 973.05 94.1995 973.005 94.3408C972.964 94.4821 972.943 94.6325 972.943 94.792C972.943 94.9697 972.968 95.1201 973.019 95.2432C973.069 95.3662 973.144 95.4596 973.244 95.5234C973.344 95.5872 973.463 95.6191 973.6 95.6191C973.809 95.6191 973.992 95.5758 974.146 95.4893C974.301 95.4027 974.415 95.2979 974.488 95.1748C974.566 95.0518 974.591 94.9378 974.563 94.833L975.001 95.5781C974.946 95.7467 974.871 95.9222 974.775 96.1045C974.684 96.2868 974.568 96.4554 974.427 96.6104C974.285 96.7653 974.11 96.8929 973.9 96.9932C973.695 97.0889 973.451 97.1367 973.169 97.1367C972.772 97.1367 972.41 97.0456 972.082 96.8633C971.754 96.681 971.494 96.4258 971.303 96.0977C971.116 95.7695 971.022 95.3799 971.022 94.9287C971.022 94.555 971.082 94.2178 971.2 93.917C971.323 93.6117 971.506 93.3542 971.747 93.1445C971.989 92.9303 972.294 92.7663 972.663 92.6523C973.032 92.5384 973.465 92.4814 973.962 92.4814H974.721ZM979.697 86.5V97H977.783V86.5H979.697ZM979.424 93.0488L978.904 93.0625C978.904 92.543 978.957 92.0645 979.062 91.627C979.171 91.1895 979.328 90.8089 979.533 90.4854C979.738 90.1618 979.987 89.9111 980.278 89.7334C980.575 89.5557 980.9 89.4668 981.256 89.4668C981.561 89.4668 981.839 89.5192 982.09 89.624C982.34 89.7288 982.557 89.8929 982.739 90.1162C982.926 90.3395 983.07 90.6335 983.17 90.998C983.27 91.3626 983.32 91.807 983.32 92.3311V97H981.399V92.3174C981.399 91.9984 981.368 91.7477 981.304 91.5654C981.24 91.3831 981.144 91.2555 981.017 91.1826C980.889 91.1051 980.729 91.0664 980.538 91.0664C980.333 91.0664 980.158 91.1188 980.012 91.2236C979.87 91.3239 979.757 91.4629 979.67 91.6406C979.583 91.8184 979.52 92.028 979.479 92.2695C979.442 92.5111 979.424 92.7708 979.424 93.0488ZM986.731 86.5V97H984.811V86.5H986.731ZM991.824 95.2227V89.6035H993.745V97H991.94L991.824 95.2227ZM992.043 93.6982L992.576 93.6846C992.576 94.1813 992.528 94.6416 992.433 95.0654C992.337 95.4847 992.193 95.8493 992.002 96.1592C991.811 96.4691 991.571 96.7106 991.284 96.8838C990.997 97.0524 990.658 97.1367 990.266 97.1367C989.965 97.1367 989.687 97.0866 989.432 96.9863C989.181 96.8815 988.965 96.7197 988.782 96.501C988.6 96.2777 988.456 95.9928 988.352 95.6465C988.251 95.2956 988.201 94.874 988.201 94.3818V89.6035H990.122V94.4023C990.122 94.6029 990.14 94.776 990.177 94.9219C990.213 95.0632 990.263 95.1794 990.327 95.2705C990.391 95.3617 990.466 95.4277 990.553 95.4688C990.639 95.5052 990.737 95.5234 990.847 95.5234C991.147 95.5234 991.384 95.446 991.558 95.291C991.735 95.1315 991.861 94.915 991.934 94.6416C992.007 94.3636 992.043 94.0492 992.043 93.6982ZM997.02 91.1826V97H995.099V89.6035H996.896L997.02 91.1826ZM996.732 93.0488L996.22 93.0625C996.211 92.5065 996.263 92.0075 996.377 91.5654C996.495 91.1234 996.662 90.7474 996.876 90.4375C997.095 90.123 997.354 89.8838 997.655 89.7197C997.961 89.5511 998.3 89.4668 998.674 89.4668C998.961 89.4668 999.223 89.5169 999.46 89.6172C999.701 89.7174 999.909 89.877 1000.08 90.0957C1000.26 90.3145 1000.39 90.6061 1000.49 90.9707C1000.58 91.3307 1000.63 91.7728 1000.63 92.2969V97H998.708V92.2832C998.708 91.9642 998.676 91.7181 998.612 91.5449C998.549 91.3672 998.453 91.2441 998.325 91.1758C998.198 91.1029 998.038 91.0664 997.847 91.0664C997.664 91.0664 997.503 91.1188 997.361 91.2236C997.22 91.3239 997.102 91.4629 997.006 91.6406C996.915 91.8184 996.844 92.028 996.794 92.2695C996.748 92.5111 996.728 92.7708 996.732 93.0488ZM1005.92 89.6035H1007.66V97C1007.66 97.6745 1007.53 98.2259 1007.27 98.6543C1007.01 99.0872 1006.65 99.404 1006.19 99.6045C1005.74 99.8096 1005.2 99.9121 1004.59 99.9121C1004.36 99.9121 1004.1 99.8802 1003.81 99.8164C1003.52 99.7526 1003.24 99.6546 1002.97 99.5225C1002.7 99.3949 1002.48 99.2399 1002.31 99.0576L1002.96 97.7314C1003.14 97.9092 1003.37 98.0596 1003.66 98.1826C1003.94 98.3102 1004.23 98.374 1004.5 98.374C1004.77 98.374 1005 98.3307 1005.17 98.2441C1005.36 98.1621 1005.49 98.0208 1005.58 97.8203C1005.68 97.6198 1005.73 97.3509 1005.73 97.0137V91.3193L1005.92 89.6035ZM1001.79 93.5615V93.0693C1001.79 92.4678 1001.85 91.9414 1001.96 91.4902C1002.08 91.0391 1002.24 90.6631 1002.45 90.3623C1002.67 90.0615 1002.93 89.8382 1003.24 89.6924C1003.55 89.542 1003.91 89.4668 1004.29 89.4668C1004.7 89.4668 1005.04 89.5557 1005.31 89.7334C1005.58 89.9066 1005.81 90.1504 1005.97 90.4648C1006.15 90.7793 1006.28 91.1507 1006.37 91.5791C1006.47 92.0075 1006.54 92.4769 1006.59 92.9873V93.6982C1006.54 94.1813 1006.46 94.6325 1006.34 95.0518C1006.23 95.471 1006.09 95.8356 1005.91 96.1455C1005.72 96.4554 1005.5 96.6992 1005.24 96.877C1004.97 97.0501 1004.65 97.1367 1004.28 97.1367C1003.9 97.1367 1003.55 97.0592 1003.24 96.9043C1002.93 96.7493 1002.67 96.5215 1002.45 96.2207C1002.24 95.9154 1002.08 95.5417 1001.96 95.0996C1001.85 94.653 1001.79 94.1403 1001.79 93.5615ZM1003.71 93.0693V93.5615C1003.71 93.9079 1003.73 94.2064 1003.77 94.457C1003.82 94.7031 1003.89 94.9059 1003.98 95.0654C1004.07 95.2204 1004.19 95.3366 1004.33 95.4141C1004.47 95.487 1004.64 95.5234 1004.84 95.5234C1005.12 95.5234 1005.34 95.4596 1005.5 95.332C1005.67 95.1999 1005.79 95.0199 1005.87 94.792C1005.95 94.5596 1006 94.293 1006.01 93.9922V92.7002C1006 92.4495 1005.97 92.224 1005.92 92.0234C1005.87 91.8229 1005.8 91.652 1005.71 91.5107C1005.62 91.3695 1005.5 91.2601 1005.35 91.1826C1005.21 91.1051 1005.04 91.0664 1004.85 91.0664C1004.66 91.0664 1004.49 91.1051 1004.35 91.1826C1004.21 91.2601 1004.09 91.3809 1003.99 91.5449C1003.9 91.7044 1003.83 91.9118 1003.78 92.167C1003.73 92.4176 1003.71 92.7184 1003.71 93.0693Z" fill="#E0E0E9"/>
<path fill-rule="evenodd" clip-rule="evenodd" d="M972 33H682V31H972V33Z" fill="#D0CFD7"/>
<path fill-rule="evenodd" clip-rule="evenodd" d="M340 33H47V31H340V33Z" fill="url(#paint3_linear_1405_1357)"/>
<path fill-rule="evenodd" clip-rule="evenodd" d="M658 33H365V31H658V33Z" fill="url(#paint4_linear_1405_1357)"/>
<g filter="url(#filter0_d_1405_1357)">
<path d="M34 17C25.7125 17 19 23.7125 19 32C19 34.8125 19.7875 37.475 21.175 39.725C22.497 41.9468 24.3748 43.7861 26.6236 45.0617C28.8724 46.3373 31.4146 47.0053 34 47C39.475 47 44.2375 44.075 46.825 39.725C48.2125 37.475 49 34.8125 49 32C49 23.7125 42.2875 17 34 17ZM41.3875 30.7625L33.4 38.15C32.875 38.6375 32.1625 38.9 31.4875 38.9C30.775 38.9 30.0625 38.6375 29.5 38.075L25.7875 34.3625C25.2644 33.8332 24.9711 33.1191 24.9711 32.375C24.9711 31.6309 25.2644 30.9168 25.7875 30.3875C26.875 29.3 28.675 29.3 29.7625 30.3875L31.5625 32.1875L37.5625 26.6375C38.6875 25.5875 40.4875 25.6625 41.5375 26.7875C42.5875 27.9125 42.5125 29.7125 41.3875 30.7625Z" fill="url(#paint5_linear_1405_1357)"/>
</g>
<g filter="url(#filter1_d_1405_1357)">
<path d="M351 17C342.712 17 336 23.7125 336 32C336 34.8125 336.788 37.475 338.175 39.725C339.497 41.9468 341.375 43.7861 343.624 45.0617C345.872 46.3373 348.415 47.0053 351 47C356.475 47 361.238 44.075 363.825 39.725C365.213 37.475 366 34.8125 366 32C366 23.7125 359.288 17 351 17ZM358.387 30.7625L350.4 38.15C349.875 38.6375 349.162 38.9 348.487 38.9C347.775 38.9 347.062 38.6375 346.5 38.075L342.787 34.3625C342.264 33.8332 341.971 33.1191 341.971 32.375C341.971 31.6309 342.264 30.9168 342.787 30.3875C343.875 29.3 345.675 29.3 346.762 30.3875L348.562 32.1875L354.562 26.6375C355.687 25.5875 357.488 25.6625 358.538 26.7875C359.588 27.9125 359.512 29.7125 358.387 30.7625Z" fill="url(#paint6_linear_1405_1357)"/>
</g>
<g filter="url(#filter2_d_1405_1357)">
<path d="M672 17C663.712 17 657 23.7125 657 32C657 34.8125 657.788 37.475 659.175 39.725C660.497 41.9468 662.375 43.7861 664.624 45.0617C666.872 46.3373 669.415 47.0053 672 47C677.475 47 682.238 44.075 684.825 39.725C686.213 37.475 687 34.8125 687 32C687 23.7125 680.288 17 672 17ZM679.387 30.7625L671.4 38.15C670.875 38.6375 670.162 38.9 669.487 38.9C668.775 38.9 668.062 38.6375 667.5 38.075L663.787 34.3625C663.264 33.8332 662.971 33.1191 662.971 32.375C662.971 31.6309 663.264 30.9168 663.787 30.3875C664.875 29.3 666.675 29.3 667.762 30.3875L669.562 32.1875L675.562 26.6375C676.687 25.5875 678.488 25.6625 679.538 26.7875C680.588 27.9125 680.512 29.7125 679.387 30.7625Z" fill="url(#paint7_linear_1405_1357)"/>
</g>
<circle cx="978.5" cy="32.5" r="14.5" fill="#D0CFD7"/>
<defs>
<filter id="filter0_d_1405_1357" x="2" y="0" width="74" height="74" filterUnits="userSpaceOnUse" color-interpolation-filters="sRGB">
<feFlood flood-opacity="0" result="BackgroundImageFix"/>
<feColorMatrix in="SourceAlpha" type="matrix" values="0 0 0 0 0 0 0 0 0 0 0 0 0 0 0 0 0 0 127 0" result="hardAlpha"/>
<feOffset dx="5" dy="5"/>
<feGaussianBlur stdDeviation="11"/>
<feComposite in2="hardAlpha" operator="out"/>
<feColorMatrix type="matrix" values="0 0 0 0 0.0392157 0 0 0 0 0.560784 0 0 0 0 0.309804 0 0 0 0.2 0"/>
<feBlend mode="normal" in2="BackgroundImageFix" result="effect1_dropShadow_1405_1357"/>
<feBlend mode="normal" in="SourceGraphic" in2="effect1_dropShadow_1405_1357" result="shape"/>
</filter>
<filter id="filter1_d_1405_1357" x="319" y="0" width="74" height="74" filterUnits="userSpaceOnUse" color-interpolation-filters="sRGB">
<feFlood flood-opacity="0" result="BackgroundImageFix"/>
<feColorMatrix in="SourceAlpha" type="matrix" values="0 0 0 0 0 0 0 0 0 0 0 0 0 0 0 0 0 0 127 0" result="hardAlpha"/>
<feOffset dx="5" dy="5"/>
<feGaussianBlur stdDeviation="11"/>
<feComposite in2="hardAlpha" operator="out"/>
<feColorMatrix type="matrix" values="0 0 0 0 0.0392157 0 0 0 0 0.560784 0 0 0 0 0.309804 0 0 0 0.2 0"/>
<feBlend mode="normal" in2="BackgroundImageFix" result="effect1_dropShadow_1405_1357"/>
<feBlend mode="normal" in="SourceGraphic" in2="effect1_dropShadow_1405_1357" result="shape"/>
</filter>
<filter id="filter2_d_1405_1357" x="640" y="0" width="74" height="74" filterUnits="userSpaceOnUse" color-interpolation-filters="sRGB">
<feFlood flood-opacity="0" result="BackgroundImageFix"/>
<feColorMatrix in="SourceAlpha" type="matrix" values="0 0 0 0 0 0 0 0 0 0 0 0 0 0 0 0 0 0 127 0" result="hardAlpha"/>
<feOffset dx="5" dy="5"/>
<feGaussianBlur stdDeviation="11"/>
<feComposite in2="hardAlpha" operator="out"/>
<feColorMatrix type="matrix" values="0 0 0 0 0.0392157 0 0 0 0 0.560784 0 0 0 0 0.309804 0 0 0 0.2 0"/>
<feBlend mode="normal" in2="BackgroundImageFix" result="effect1_dropShadow_1405_1357"/>
<feBlend mode="normal" in="SourceGraphic" in2="effect1_dropShadow_1405_1357" result="shape"/>
</filter>
<linearGradient id="paint0_linear_1405_1357" x1="32.5" y1="85" x2="32.5" y2="57" gradientUnits="userSpaceOnUse">
<stop stop-color="#5CCC94"/>
<stop offset="1" stop-color="#8CCAAE"/>
</linearGradient>
<linearGradient id="paint1_linear_1405_1357" x1="351.5" y1="77" x2="351.5" y2="57" gradientUnits="userSpaceOnUse">
<stop stop-color="#5CCC94"/>
<stop offset="1" stop-color="#8CCAAE"/>
</linearGradient>
<linearGradient id="paint2_linear_1405_1357" x1="674" y1="77" x2="674" y2="57" gradientUnits="userSpaceOnUse">
<stop stop-color="#5CCC94"/>
<stop offset="1" stop-color="#8CCAAE"/>
</linearGradient>
<linearGradient id="paint3_linear_1405_1357" x1="193.5" y1="33" x2="193.5" y2="31" gradientUnits="userSpaceOnUse">
<stop stop-color="#5CCC94"/>
<stop offset="1" stop-color="#8CCAAE"/>
</linearGradient>
<linearGradient id="paint4_linear_1405_1357" x1="511.5" y1="33" x2="511.5" y2="31" gradientUnits="userSpaceOnUse">
<stop stop-color="#5CCC94"/>
<stop offset="1" stop-color="#8CCAAE"/>
</linearGradient>
<linearGradient id="paint5_linear_1405_1357" x1="34" y1="47" x2="34" y2="17" gradientUnits="userSpaceOnUse">
<stop stop-color="#5CCC94"/>
<stop offset="1" stop-color="#8CCAAE"/>
</linearGradient>
<linearGradient id="paint6_linear_1405_1357" x1="351" y1="47" x2="351" y2="17" gradientUnits="userSpaceOnUse">
<stop stop-color="#5CCC94"/>
<stop offset="1" stop-color="#8CCAAE"/>
</linearGradient>
<linearGradient id="paint7_linear_1405_1357" x1="672" y1="47" x2="672" y2="17" gradientUnits="userSpaceOnUse">
<stop stop-color="#5CCC94"/>
<stop offset="1" stop-color="#8CCAAE"/>
</linearGradient>
</defs>
</svg>
