<svg width="704" height="84" viewBox="0 0 704 84" fill="none" xmlns="http://www.w3.org/2000/svg">
<path d="M5.4668 69.3818C5.4668 69.2041 5.45085 69.0423 5.41895 68.8965C5.38704 68.7507 5.31868 68.6162 5.21387 68.4932C5.11361 68.3701 4.96549 68.2471 4.76953 68.124C4.57812 68.001 4.32747 67.8734 4.01758 67.7412C3.64844 67.5863 3.29069 67.4222 2.94434 67.249C2.59798 67.0713 2.28581 66.8662 2.00781 66.6338C1.72982 66.4014 1.50879 66.1279 1.34473 65.8135C1.18522 65.4945 1.10547 65.1208 1.10547 64.6924C1.10547 64.2731 1.18066 63.8926 1.33105 63.5508C1.486 63.209 1.70475 62.9173 1.9873 62.6758C2.26986 62.4297 2.60026 62.2406 2.97852 62.1084C3.36133 61.9762 3.78743 61.9102 4.25684 61.9102C4.89486 61.9102 5.44629 62.0423 5.91113 62.3066C6.38053 62.571 6.74284 62.9333 6.99805 63.3936C7.25781 63.8538 7.3877 64.3825 7.3877 64.9795H5.3916C5.3916 64.6969 5.35059 64.4486 5.26855 64.2344C5.19108 64.0156 5.06576 63.8447 4.89258 63.7217C4.7194 63.5986 4.49609 63.5371 4.22266 63.5371C3.96745 63.5371 3.75553 63.5895 3.58691 63.6943C3.42285 63.7946 3.2998 63.9336 3.21777 64.1113C3.1403 64.2845 3.10156 64.4805 3.10156 64.6992C3.10156 64.8633 3.1403 65.0114 3.21777 65.1436C3.2998 65.2712 3.41146 65.3874 3.55273 65.4922C3.69401 65.5924 3.86035 65.6904 4.05176 65.7861C4.24772 65.8818 4.46191 65.9753 4.69434 66.0664C5.14551 66.2441 5.54427 66.4401 5.89062 66.6543C6.23698 66.8639 6.52637 67.1009 6.75879 67.3652C6.99121 67.625 7.16667 67.9189 7.28516 68.2471C7.40365 68.5752 7.46289 68.9489 7.46289 69.3682C7.46289 69.7829 7.38997 70.1611 7.24414 70.5029C7.10286 70.8402 6.89551 71.1318 6.62207 71.3779C6.34863 71.6195 6.01823 71.8063 5.63086 71.9385C5.24805 72.0706 4.81966 72.1367 4.3457 72.1367C3.88542 72.1367 3.4502 72.0729 3.04004 71.9453C2.62988 71.8132 2.26758 71.6149 1.95312 71.3506C1.64323 71.0817 1.39941 70.7422 1.22168 70.332C1.04395 69.9173 0.955078 69.4274 0.955078 68.8623H2.95801C2.95801 69.1631 2.98763 69.4206 3.04688 69.6348C3.10612 69.8444 3.19727 70.013 3.32031 70.1406C3.44336 70.2637 3.59375 70.3571 3.77148 70.4209C3.95378 70.4801 4.16113 70.5098 4.39355 70.5098C4.65788 70.5098 4.86751 70.4596 5.02246 70.3594C5.18197 70.2591 5.2959 70.1247 5.36426 69.9561C5.43262 69.7874 5.4668 69.596 5.4668 69.3818ZM11.9473 64.6035V66.0459H8.17383V64.6035H11.9473ZM9.04199 62.7783H10.9492V69.7441C10.9492 69.9492 10.9697 70.1064 11.0107 70.2158C11.0518 70.3252 11.1133 70.4027 11.1953 70.4482C11.2819 70.4893 11.3958 70.5098 11.5371 70.5098C11.6328 70.5098 11.7217 70.5052 11.8037 70.4961C11.8857 70.4824 11.9473 70.4688 11.9883 70.4551V71.9521C11.8379 72.0114 11.6784 72.057 11.5098 72.0889C11.3457 72.1208 11.1497 72.1367 10.9219 72.1367C10.5391 72.1367 10.2064 72.0638 9.92383 71.918C9.64583 71.7721 9.42936 71.5397 9.27441 71.2207C9.11947 70.8971 9.04199 70.4733 9.04199 69.9492V62.7783ZM15.0234 64.6035V72H13.1025V64.6035H15.0234ZM13.0137 62.6895C13.0137 62.3932 13.1071 62.1494 13.2939 61.958C13.4854 61.762 13.7406 61.6641 14.0596 61.6641C14.3831 61.6641 14.6383 61.762 14.8252 61.958C15.012 62.1494 15.1055 62.3932 15.1055 62.6895C15.1055 62.9811 15.0098 63.2249 14.8184 63.4209C14.6315 63.6123 14.3809 63.708 14.0664 63.708C13.7428 63.708 13.4854 63.6123 13.2939 63.4209C13.1071 63.2249 13.0137 62.9811 13.0137 62.6895ZM19.2139 70.5439C19.3916 70.5439 19.5443 70.5075 19.6719 70.4346C19.804 70.3617 19.9043 70.2432 19.9727 70.0791C20.041 69.915 20.0775 69.7031 20.082 69.4434H21.8799C21.8799 69.9993 21.7614 70.4801 21.5244 70.8857C21.292 71.2868 20.9775 71.5967 20.5811 71.8154C20.1891 72.0296 19.7448 72.1367 19.248 72.1367C18.7513 72.1367 18.3184 72.057 17.9492 71.8975C17.5801 71.738 17.2747 71.5055 17.0332 71.2002C16.7962 70.8949 16.6162 70.5234 16.4932 70.0859C16.3747 69.6439 16.3154 69.138 16.3154 68.5684V68.0283C16.3154 67.4678 16.3747 66.9665 16.4932 66.5244C16.6162 66.0824 16.7962 65.7087 17.0332 65.4033C17.2747 65.098 17.5778 64.8656 17.9424 64.7061C18.3115 64.5465 18.7445 64.4668 19.2412 64.4668C19.7744 64.4668 20.237 64.5785 20.6289 64.8018C21.0208 65.0205 21.3262 65.3441 21.5449 65.7725C21.7682 66.2008 21.8799 66.7295 21.8799 67.3584H20.082C20.0775 67.0758 20.0433 66.8411 19.9795 66.6543C19.9202 66.4629 19.8268 66.3171 19.6992 66.2168C19.5762 66.112 19.4121 66.0596 19.207 66.0596C18.9928 66.0596 18.8197 66.1051 18.6875 66.1963C18.5599 66.2829 18.4619 66.4105 18.3936 66.5791C18.3298 66.7432 18.2865 66.9482 18.2637 67.1943C18.2409 67.4404 18.2295 67.7184 18.2295 68.0283V68.5684C18.2295 68.901 18.2386 69.1904 18.2568 69.4365C18.2796 69.6781 18.3229 69.8831 18.3867 70.0518C18.4551 70.2158 18.5531 70.3389 18.6807 70.4209C18.8128 70.5029 18.9906 70.5439 19.2139 70.5439ZM24.8945 61.4932V72H22.9805V61.4932H24.8945ZM28.7842 64.6035L26.1797 68.2812L24.6143 70.0381L23.9375 68.582L25.1406 66.8252L26.501 64.6035H28.7842ZM26.7881 72L25.1748 68.6025L26.4941 67.3857L28.9824 72H26.7881ZM32.5234 72.1367C32.0176 72.1367 31.5687 72.0592 31.1768 71.9043C30.7894 71.7493 30.4613 71.526 30.1924 71.2344C29.9235 70.9382 29.7184 70.5804 29.5771 70.1611C29.4359 69.7419 29.3652 69.2633 29.3652 68.7256V68.1172C29.3652 67.5156 29.4336 66.9893 29.5703 66.5381C29.707 66.0824 29.9007 65.6995 30.1514 65.3896C30.402 65.0798 30.7096 64.8496 31.0742 64.6992C31.4434 64.5443 31.8604 64.4668 32.3252 64.4668C32.79 64.4668 33.1979 64.5443 33.5488 64.6992C33.9043 64.8496 34.1982 65.0775 34.4307 65.3828C34.6631 65.6836 34.8385 66.0573 34.957 66.5039C35.0755 66.9505 35.1348 67.4701 35.1348 68.0625V68.9375H30.1787V67.5908H33.2549V67.4199C33.2549 67.1191 33.223 66.8685 33.1592 66.668C33.0954 66.4629 32.9951 66.3102 32.8584 66.21C32.7217 66.1097 32.5394 66.0596 32.3115 66.0596C32.1201 66.0596 31.9583 66.0983 31.8262 66.1758C31.694 66.2533 31.5892 66.374 31.5117 66.5381C31.4342 66.7021 31.3773 66.9163 31.3408 67.1807C31.3044 67.4404 31.2861 67.7526 31.2861 68.1172V68.7256C31.2861 69.0674 31.3158 69.3545 31.375 69.5869C31.4342 69.8148 31.5208 70.0016 31.6348 70.1475C31.7533 70.2887 31.8968 70.3913 32.0654 70.4551C32.234 70.5143 32.43 70.5439 32.6533 70.5439C32.9906 70.5439 33.2936 70.4847 33.5625 70.3662C33.8359 70.2432 34.0684 70.0768 34.2598 69.8672L35.0254 71.0293C34.8932 71.2025 34.7109 71.3757 34.4785 71.5488C34.2461 71.722 33.9681 71.8633 33.6445 71.9727C33.321 72.082 32.9473 72.1367 32.5234 72.1367ZM38.1562 66.251V72H36.2422V64.6035H38.0469L38.1562 66.251ZM39.8994 64.5488L39.8721 66.4561C39.7855 66.4378 39.6807 66.4242 39.5576 66.415C39.4391 66.4059 39.3343 66.4014 39.2432 66.4014C39.029 66.4014 38.8467 66.4355 38.6963 66.5039C38.5459 66.5677 38.4206 66.6657 38.3203 66.7979C38.2246 66.9255 38.1517 67.085 38.1016 67.2764C38.0514 67.4678 38.0218 67.6842 38.0127 67.9258L37.6504 67.7891C37.6504 67.306 37.6868 66.8639 37.7598 66.4629C37.8372 66.0573 37.9512 65.7064 38.1016 65.4102C38.252 65.1094 38.432 64.877 38.6416 64.7129C38.8558 64.5488 39.0973 64.4668 39.3662 64.4668C39.4574 64.4668 39.5531 64.4759 39.6533 64.4941C39.7581 64.5078 39.8402 64.526 39.8994 64.5488ZM47.3301 64.6035V66.0459H43.5566V64.6035H47.3301ZM44.4248 62.7783H46.332V69.7441C46.332 69.9492 46.3525 70.1064 46.3936 70.2158C46.4346 70.3252 46.4961 70.4027 46.5781 70.4482C46.6647 70.4893 46.7786 70.5098 46.9199 70.5098C47.0156 70.5098 47.1045 70.5052 47.1865 70.4961C47.2686 70.4824 47.3301 70.4688 47.3711 70.4551V71.9521C47.2207 72.0114 47.0612 72.057 46.8926 72.0889C46.7285 72.1208 46.5326 72.1367 46.3047 72.1367C45.9219 72.1367 45.5892 72.0638 45.3066 71.918C45.0286 71.7721 44.8122 71.5397 44.6572 71.2207C44.5023 70.8971 44.4248 70.4733 44.4248 69.9492V62.7783ZM50.2559 71.1523L51.8008 64.6035H53.7969L51.3633 73.1074C51.3086 73.2943 51.2334 73.4948 51.1377 73.709C51.042 73.9277 50.9144 74.1328 50.7549 74.3242C50.5999 74.5202 50.404 74.6797 50.167 74.8027C49.93 74.9258 49.6452 74.9873 49.3125 74.9873C49.1439 74.9873 49.0072 74.9759 48.9023 74.9531C48.8021 74.9349 48.6745 74.903 48.5195 74.8574V73.3672C48.5605 73.3672 48.5993 73.3672 48.6357 73.3672C48.6768 73.3717 48.7155 73.374 48.752 73.374C48.9661 73.374 49.137 73.3444 49.2646 73.2852C49.3923 73.2305 49.4948 73.1439 49.5723 73.0254C49.6543 72.9069 49.7227 72.7588 49.7773 72.5811L50.2559 71.1523ZM49.8594 64.6035L51.0078 69.9082L51.2676 72.0684L49.9756 72.1914L47.8086 64.6035H49.8594ZM56.5449 66.0254V74.8438H54.6377V64.6035H56.4014L56.5449 66.0254ZM60.3867 68.0488V68.541C60.3867 69.1198 60.3366 69.6325 60.2363 70.0791C60.1361 70.5212 59.9857 70.8971 59.7852 71.207C59.5892 71.5124 59.3431 71.7448 59.0469 71.9043C58.7507 72.0592 58.4043 72.1367 58.0078 72.1367C57.6387 72.1367 57.3197 72.0501 57.0508 71.877C56.7865 71.6992 56.5632 71.4554 56.3809 71.1455C56.1986 70.8356 56.0527 70.4733 55.9434 70.0586C55.834 69.6439 55.7497 69.1995 55.6904 68.7256V67.96C55.7451 67.4541 55.8249 66.9893 55.9297 66.5654C56.0345 66.137 56.1781 65.7656 56.3604 65.4512C56.5472 65.1367 56.7728 64.8952 57.0371 64.7266C57.306 64.5534 57.625 64.4668 57.9941 64.4668C58.3952 64.4668 58.7438 64.5397 59.04 64.6855C59.3408 64.8314 59.5892 65.0524 59.7852 65.3486C59.9857 65.6403 60.1361 66.0117 60.2363 66.4629C60.3366 66.9141 60.3867 67.4427 60.3867 68.0488ZM58.4727 68.541V68.0488C58.4727 67.6934 58.4521 67.3903 58.4111 67.1396C58.3747 66.889 58.3154 66.6839 58.2334 66.5244C58.1514 66.3649 58.0443 66.2487 57.9121 66.1758C57.7799 66.1029 57.6182 66.0664 57.4268 66.0664C57.2399 66.0664 57.0758 66.1029 56.9346 66.1758C56.7979 66.2487 56.6862 66.3558 56.5996 66.4971C56.513 66.6338 56.4469 66.8024 56.4014 67.0029C56.3558 67.1989 56.3307 67.4222 56.3262 67.6729V69.0127C56.3353 69.3089 56.374 69.571 56.4424 69.7988C56.5153 70.0267 56.6315 70.209 56.791 70.3457C56.9505 70.4779 57.167 70.5439 57.4404 70.5439C57.6364 70.5439 57.7982 70.5029 57.9258 70.4209C58.0579 70.3389 58.165 70.2158 58.2471 70.0518C58.3291 69.8877 58.3861 69.6803 58.418 69.4297C58.4544 69.179 58.4727 68.8828 58.4727 68.541ZM64.543 72.1367C64.0371 72.1367 63.5882 72.0592 63.1963 71.9043C62.8089 71.7493 62.4808 71.526 62.2119 71.2344C61.943 70.9382 61.738 70.5804 61.5967 70.1611C61.4554 69.7419 61.3848 69.2633 61.3848 68.7256V68.1172C61.3848 67.5156 61.4531 66.9893 61.5898 66.5381C61.7266 66.0824 61.9202 65.6995 62.1709 65.3896C62.4215 65.0798 62.7292 64.8496 63.0938 64.6992C63.4629 64.5443 63.8799 64.4668 64.3447 64.4668C64.8096 64.4668 65.2174 64.5443 65.5684 64.6992C65.9238 64.8496 66.2178 65.0775 66.4502 65.3828C66.6826 65.6836 66.8581 66.0573 66.9766 66.5039C67.0951 66.9505 67.1543 67.4701 67.1543 68.0625V68.9375H62.1982V67.5908H65.2744V67.4199C65.2744 67.1191 65.2425 66.8685 65.1787 66.668C65.1149 66.4629 65.0146 66.3102 64.8779 66.21C64.7412 66.1097 64.5589 66.0596 64.3311 66.0596C64.1396 66.0596 63.9779 66.0983 63.8457 66.1758C63.7135 66.2533 63.6087 66.374 63.5312 66.5381C63.4538 66.7021 63.3968 66.9163 63.3604 67.1807C63.3239 67.4404 63.3057 67.7526 63.3057 68.1172V68.7256C63.3057 69.0674 63.3353 69.3545 63.3945 69.5869C63.4538 69.8148 63.5404 70.0016 63.6543 70.1475C63.7728 70.2887 63.9163 70.3913 64.085 70.4551C64.2536 70.5143 64.4495 70.5439 64.6729 70.5439C65.0101 70.5439 65.3132 70.4847 65.582 70.3662C65.8555 70.2432 66.0879 70.0768 66.2793 69.8672L67.0449 71.0293C66.9128 71.2025 66.7305 71.3757 66.498 71.5488C66.2656 71.722 65.9876 71.8633 65.6641 71.9727C65.3405 72.082 64.9668 72.1367 64.543 72.1367Z" fill="url(#paint0_linear_363_1460)"/>
<path d="M343.205 67.6592H341.168L341.161 66.21H342.897C343.171 66.21 343.394 66.1644 343.567 66.0732C343.745 65.9775 343.875 65.8385 343.957 65.6562C344.044 65.4694 344.087 65.2438 344.087 64.9795C344.087 64.6742 344.048 64.4303 343.971 64.248C343.893 64.0612 343.768 63.9245 343.595 63.8379C343.422 63.7513 343.196 63.708 342.918 63.708H341.852V72H339.849V62.0469H342.918C343.415 62.0469 343.859 62.1016 344.251 62.2109C344.643 62.3203 344.976 62.4867 345.249 62.71C345.522 62.9333 345.73 63.2158 345.871 63.5576C346.017 63.8994 346.09 64.3027 346.09 64.7676C346.09 65.1777 346.008 65.556 345.844 65.9023C345.68 66.2487 345.422 66.5312 345.071 66.75C344.725 66.9688 344.271 67.0918 343.711 67.1191L343.205 67.6592ZM343.137 72H340.601L341.4 70.3457H343.137C343.401 70.3457 343.615 70.2887 343.779 70.1748C343.943 70.0609 344.062 69.9082 344.135 69.7168C344.208 69.5208 344.244 69.2975 344.244 69.0469C344.244 68.7643 344.21 68.5182 344.142 68.3086C344.078 68.099 343.971 67.9395 343.82 67.8301C343.67 67.7161 343.467 67.6592 343.212 67.6592H341.489L341.503 66.21H343.595L344.066 66.7842C344.6 66.766 345.026 66.8685 345.345 67.0918C345.664 67.3105 345.892 67.5977 346.028 67.9531C346.17 68.304 346.24 68.6777 346.24 69.0742C346.24 69.7122 346.119 70.25 345.878 70.6875C345.641 71.1204 345.292 71.4486 344.832 71.6719C344.372 71.8906 343.807 72 343.137 72ZM349.624 64.6035V72H347.703V64.6035H349.624ZM347.614 62.6895C347.614 62.3932 347.708 62.1494 347.895 61.958C348.086 61.762 348.341 61.6641 348.66 61.6641C348.984 61.6641 349.239 61.762 349.426 61.958C349.613 62.1494 349.706 62.3932 349.706 62.6895C349.706 62.9811 349.61 63.2249 349.419 63.4209C349.232 63.6123 348.981 63.708 348.667 63.708C348.343 63.708 348.086 63.6123 347.895 63.4209C347.708 63.2249 347.614 62.9811 347.614 62.6895ZM353.151 61.5V72H351.23V61.5H353.151ZM356.679 61.5V72H354.758V61.5H356.679ZM360.206 64.6035V72H358.285V64.6035H360.206ZM358.196 62.6895C358.196 62.3932 358.29 62.1494 358.477 61.958C358.668 61.762 358.923 61.6641 359.242 61.6641C359.566 61.6641 359.821 61.762 360.008 61.958C360.195 62.1494 360.288 62.3932 360.288 62.6895C360.288 62.9811 360.192 63.2249 360.001 63.4209C359.814 63.6123 359.563 63.708 359.249 63.708C358.925 63.708 358.668 63.6123 358.477 63.4209C358.29 63.2249 358.196 62.9811 358.196 62.6895ZM363.604 66.1826V72H361.683V64.6035H363.48L363.604 66.1826ZM363.316 68.0488L362.804 68.0625C362.795 67.5065 362.847 67.0075 362.961 66.5654C363.079 66.1234 363.246 65.7474 363.46 65.4375C363.679 65.123 363.938 64.8838 364.239 64.7197C364.545 64.5511 364.884 64.4668 365.258 64.4668C365.545 64.4668 365.807 64.5169 366.044 64.6172C366.285 64.7174 366.493 64.877 366.666 65.0957C366.839 65.3145 366.974 65.6061 367.069 65.9707C367.165 66.3307 367.213 66.7728 367.213 67.2969V72H365.292V67.2832C365.292 66.9642 365.26 66.7181 365.196 66.5449C365.132 66.3672 365.037 66.2441 364.909 66.1758C364.782 66.1029 364.622 66.0664 364.431 66.0664C364.248 66.0664 364.087 66.1188 363.945 66.2236C363.804 66.3239 363.686 66.4629 363.59 66.6406C363.499 66.8184 363.428 67.028 363.378 67.2695C363.332 67.5111 363.312 67.7708 363.316 68.0488ZM372.504 64.6035H374.24V72C374.24 72.6745 374.11 73.2259 373.851 73.6543C373.595 74.0872 373.238 74.404 372.777 74.6045C372.322 74.8096 371.788 74.9121 371.178 74.9121C370.945 74.9121 370.683 74.8802 370.392 74.8164C370.104 74.7526 369.826 74.6546 369.558 74.5225C369.289 74.3949 369.068 74.2399 368.895 74.0576L369.544 72.7314C369.722 72.9092 369.954 73.0596 370.241 73.1826C370.528 73.3102 370.811 73.374 371.089 73.374C371.358 73.374 371.581 73.3307 371.759 73.2441C371.941 73.1621 372.078 73.0208 372.169 72.8203C372.265 72.6198 372.312 72.3509 372.312 72.0137V66.3193L372.504 64.6035ZM368.375 68.5615V68.0693C368.375 67.4678 368.432 66.9414 368.546 66.4902C368.66 66.0391 368.824 65.6631 369.038 65.3623C369.252 65.0615 369.514 64.8382 369.824 64.6924C370.139 64.542 370.49 64.4668 370.877 64.4668C371.283 64.4668 371.622 64.5557 371.896 64.7334C372.169 64.9066 372.39 65.1504 372.559 65.4648C372.732 65.7793 372.864 66.1507 372.955 66.5791C373.051 67.0075 373.124 67.4769 373.174 67.9873V68.6982C373.124 69.1813 373.042 69.6325 372.928 70.0518C372.818 70.471 372.673 70.8356 372.49 71.1455C372.308 71.4554 372.085 71.6992 371.82 71.877C371.556 72.0501 371.237 72.1367 370.863 72.1367C370.48 72.1367 370.134 72.0592 369.824 71.9043C369.519 71.7493 369.257 71.5215 369.038 71.2207C368.824 70.9154 368.66 70.5417 368.546 70.0996C368.432 69.653 368.375 69.1403 368.375 68.5615ZM370.296 68.0693V68.5615C370.296 68.9079 370.316 69.2064 370.357 69.457C370.403 69.7031 370.471 69.9059 370.562 70.0654C370.654 70.2204 370.77 70.3366 370.911 70.4141C371.057 70.487 371.228 70.5234 371.424 70.5234C371.702 70.5234 371.923 70.4596 372.087 70.332C372.256 70.1999 372.379 70.0199 372.456 69.792C372.538 69.5596 372.584 69.293 372.593 68.9922V67.7002C372.588 67.4495 372.559 67.224 372.504 67.0234C372.454 66.8229 372.383 66.652 372.292 66.5107C372.201 66.3695 372.082 66.2601 371.937 66.1826C371.795 66.1051 371.629 66.0664 371.438 66.0664C371.242 66.0664 371.073 66.1051 370.932 66.1826C370.79 66.2601 370.672 66.3809 370.576 66.5449C370.485 66.7044 370.414 66.9118 370.364 67.167C370.319 67.4176 370.296 67.7184 370.296 68.0693Z" fill="url(#paint1_linear_363_1460)"/>
<path d="M633.398 64.874L635.285 57.0469H637.445L634.561 67H633.104L633.398 64.874ZM631.785 57.0469L633.665 64.874L633.973 67H632.51L629.646 57.0469H631.785ZM640.979 67.1367C640.474 67.1367 640.025 67.0592 639.633 66.9043C639.245 66.7493 638.917 66.526 638.648 66.2344C638.38 65.9382 638.174 65.5804 638.033 65.1611C637.892 64.7419 637.821 64.2633 637.821 63.7256V63.1172C637.821 62.5156 637.89 61.9893 638.026 61.5381C638.163 61.0824 638.357 60.6995 638.607 60.3896C638.858 60.0798 639.166 59.8496 639.53 59.6992C639.899 59.5443 640.316 59.4668 640.781 59.4668C641.246 59.4668 641.654 59.5443 642.005 59.6992C642.36 59.8496 642.654 60.0775 642.887 60.3828C643.119 60.6836 643.295 61.0573 643.413 61.5039C643.532 61.9505 643.591 62.4701 643.591 63.0625V63.9375H638.635V62.5908H641.711V62.4199C641.711 62.1191 641.679 61.8685 641.615 61.668C641.551 61.4629 641.451 61.3102 641.314 61.21C641.178 61.1097 640.995 61.0596 640.768 61.0596C640.576 61.0596 640.414 61.0983 640.282 61.1758C640.15 61.2533 640.045 61.374 639.968 61.5381C639.89 61.7021 639.833 61.9163 639.797 62.1807C639.76 62.4404 639.742 62.7526 639.742 63.1172V63.7256C639.742 64.0674 639.772 64.3545 639.831 64.5869C639.89 64.8148 639.977 65.0016 640.091 65.1475C640.209 65.2887 640.353 65.3913 640.521 65.4551C640.69 65.5143 640.886 65.5439 641.109 65.5439C641.447 65.5439 641.75 65.4847 642.019 65.3662C642.292 65.2432 642.524 65.0768 642.716 64.8672L643.481 66.0293C643.349 66.2025 643.167 66.3757 642.935 66.5488C642.702 66.722 642.424 66.8633 642.101 66.9727C641.777 67.082 641.403 67.1367 640.979 67.1367ZM646.612 61.251V67H644.698V59.6035H646.503L646.612 61.251ZM648.355 59.5488L648.328 61.4561C648.242 61.4378 648.137 61.4242 648.014 61.415C647.895 61.4059 647.79 61.4014 647.699 61.4014C647.485 61.4014 647.303 61.4355 647.152 61.5039C647.002 61.5677 646.877 61.6657 646.776 61.7979C646.681 61.9255 646.608 62.085 646.558 62.2764C646.507 62.4678 646.478 62.6842 646.469 62.9258L646.106 62.7891C646.106 62.306 646.143 61.8639 646.216 61.4629C646.293 61.0573 646.407 60.7064 646.558 60.4102C646.708 60.1094 646.888 59.877 647.098 59.7129C647.312 59.5488 647.553 59.4668 647.822 59.4668C647.913 59.4668 648.009 59.4759 648.109 59.4941C648.214 59.5078 648.296 59.526 648.355 59.5488ZM651.343 59.6035V67H649.422V59.6035H651.343ZM649.333 57.6895C649.333 57.3932 649.426 57.1494 649.613 56.958C649.805 56.762 650.06 56.6641 650.379 56.6641C650.702 56.6641 650.958 56.762 651.145 56.958C651.331 57.1494 651.425 57.3932 651.425 57.6895C651.425 57.9811 651.329 58.2249 651.138 58.4209C650.951 58.6123 650.7 58.708 650.386 58.708C650.062 58.708 649.805 58.6123 649.613 58.4209C649.426 58.2249 649.333 57.9811 649.333 57.6895ZM655.171 67H653.257V59.2959C653.257 58.6579 653.368 58.1224 653.592 57.6895C653.82 57.252 654.148 56.9215 654.576 56.6982C655.009 56.4704 655.526 56.3564 656.128 56.3564C656.474 56.3564 656.802 56.3952 657.112 56.4727C657.427 56.5456 657.75 56.6413 658.083 56.7598L657.81 58.3867C657.609 58.3138 657.383 58.2454 657.133 58.1816C656.887 58.1133 656.595 58.0791 656.258 58.0791C655.889 58.0791 655.615 58.1816 655.438 58.3867C655.26 58.5918 655.171 58.8949 655.171 59.2959V67ZM656.312 59.6035V61.0459H652.354V59.6035H656.312ZM658.965 59.6035V67H657.044V59.6035H658.965ZM663.162 65.5439C663.34 65.5439 663.493 65.5075 663.62 65.4346C663.752 65.3617 663.853 65.2432 663.921 65.0791C663.989 64.915 664.026 64.7031 664.03 64.4434H665.828C665.828 64.9993 665.71 65.4801 665.473 65.8857C665.24 66.2868 664.926 66.5967 664.529 66.8154C664.137 67.0296 663.693 67.1367 663.196 67.1367C662.7 67.1367 662.267 67.057 661.897 66.8975C661.528 66.738 661.223 66.5055 660.981 66.2002C660.744 65.8949 660.564 65.5234 660.441 65.0859C660.323 64.6439 660.264 64.138 660.264 63.5684V63.0283C660.264 62.4678 660.323 61.9665 660.441 61.5244C660.564 61.0824 660.744 60.7087 660.981 60.4033C661.223 60.098 661.526 59.8656 661.891 59.7061C662.26 59.5465 662.693 59.4668 663.189 59.4668C663.723 59.4668 664.185 59.5785 664.577 59.8018C664.969 60.0205 665.274 60.3441 665.493 60.7725C665.716 61.2008 665.828 61.7295 665.828 62.3584H664.03C664.026 62.0758 663.992 61.8411 663.928 61.6543C663.868 61.4629 663.775 61.3171 663.647 61.2168C663.524 61.112 663.36 61.0596 663.155 61.0596C662.941 61.0596 662.768 61.1051 662.636 61.1963C662.508 61.2829 662.41 61.4105 662.342 61.5791C662.278 61.7432 662.235 61.9482 662.212 62.1943C662.189 62.4404 662.178 62.7184 662.178 63.0283V63.5684C662.178 63.901 662.187 64.1904 662.205 64.4365C662.228 64.6781 662.271 64.8831 662.335 65.0518C662.403 65.2158 662.501 65.3389 662.629 65.4209C662.761 65.5029 662.939 65.5439 663.162 65.5439ZM670.189 65.2979V61.8799C670.189 61.6566 670.162 61.4788 670.107 61.3467C670.057 61.2145 669.98 61.1188 669.875 61.0596C669.775 60.9958 669.652 60.9639 669.506 60.9639C669.342 60.9639 669.205 60.998 669.096 61.0664C668.986 61.1348 668.904 61.2327 668.85 61.3604C668.799 61.488 668.774 61.6406 668.774 61.8184H666.854C666.854 61.4993 666.915 61.1986 667.038 60.916C667.161 60.6289 667.341 60.3783 667.578 60.1641C667.82 59.9453 668.107 59.7744 668.439 59.6514C668.772 59.5283 669.146 59.4668 669.561 59.4668C670.053 59.4668 670.49 59.5511 670.873 59.7197C671.256 59.8838 671.559 60.1458 671.782 60.5059C672.006 60.8659 672.117 61.333 672.117 61.9072V65.2021C672.117 65.6169 672.138 65.9541 672.179 66.2139C672.224 66.4736 672.29 66.6969 672.377 66.8838V67H670.449C670.363 66.7949 670.297 66.5397 670.251 66.2344C670.21 65.9245 670.189 65.6123 670.189 65.2979ZM670.422 62.4814L670.429 63.6299H669.725C669.542 63.6299 669.383 63.6595 669.246 63.7188C669.114 63.778 669.002 63.8623 668.911 63.9717C668.82 64.0765 668.752 64.1995 668.706 64.3408C668.665 64.4821 668.645 64.6325 668.645 64.792C668.645 64.9697 668.67 65.1201 668.72 65.2432C668.77 65.3662 668.845 65.4596 668.945 65.5234C669.046 65.5872 669.164 65.6191 669.301 65.6191C669.51 65.6191 669.693 65.5758 669.848 65.4893C670.003 65.4027 670.117 65.2979 670.189 65.1748C670.267 65.0518 670.292 64.9378 670.265 64.833L670.702 65.5781C670.647 65.7467 670.572 65.9222 670.477 66.1045C670.385 66.2868 670.269 66.4554 670.128 66.6104C669.987 66.7653 669.811 66.8929 669.602 66.9932C669.396 67.0889 669.153 67.1367 668.87 67.1367C668.474 67.1367 668.111 67.0456 667.783 66.8633C667.455 66.681 667.195 66.4258 667.004 66.0977C666.817 65.7695 666.724 65.3799 666.724 64.9287C666.724 64.555 666.783 64.2178 666.901 63.917C667.024 63.6117 667.207 63.3542 667.448 63.1445C667.69 62.9303 667.995 62.7663 668.364 62.6523C668.733 62.5384 669.166 62.4814 669.663 62.4814H670.422ZM676.759 59.6035V61.0459H672.985V59.6035H676.759ZM673.854 57.7783H675.761V64.7441C675.761 64.9492 675.781 65.1064 675.822 65.2158C675.863 65.3252 675.925 65.4027 676.007 65.4482C676.093 65.4893 676.207 65.5098 676.349 65.5098C676.444 65.5098 676.533 65.5052 676.615 65.4961C676.697 65.4824 676.759 65.4688 676.8 65.4551V66.9521C676.649 67.0114 676.49 67.057 676.321 67.0889C676.157 67.1208 675.961 67.1367 675.733 67.1367C675.351 67.1367 675.018 67.0638 674.735 66.918C674.457 66.7721 674.241 66.5397 674.086 66.2207C673.931 65.8971 673.854 65.4733 673.854 64.9492V57.7783ZM679.835 59.6035V67H677.914V59.6035H679.835ZM677.825 57.6895C677.825 57.3932 677.919 57.1494 678.105 56.958C678.297 56.762 678.552 56.6641 678.871 56.6641C679.195 56.6641 679.45 56.762 679.637 56.958C679.824 57.1494 679.917 57.3932 679.917 57.6895C679.917 57.9811 679.821 58.2249 679.63 58.4209C679.443 58.6123 679.192 58.708 678.878 58.708C678.554 58.708 678.297 58.6123 678.105 58.4209C677.919 58.2249 677.825 57.9811 677.825 57.6895ZM681.134 63.5547V63.0557C681.134 62.4769 681.202 61.9642 681.339 61.5176C681.48 61.071 681.681 60.6973 681.94 60.3965C682.2 60.0911 682.512 59.861 682.877 59.7061C683.246 59.5465 683.659 59.4668 684.114 59.4668C684.575 59.4668 684.987 59.5465 685.352 59.7061C685.721 59.861 686.035 60.0911 686.295 60.3965C686.559 60.6973 686.762 61.071 686.903 61.5176C687.045 61.9642 687.115 62.4769 687.115 63.0557V63.5547C687.115 64.1289 687.045 64.6393 686.903 65.0859C686.762 65.5326 686.559 65.9085 686.295 66.2139C686.035 66.5192 685.723 66.7493 685.358 66.9043C684.994 67.0592 684.584 67.1367 684.128 67.1367C683.672 67.1367 683.26 67.0592 682.891 66.9043C682.526 66.7493 682.212 66.5192 681.947 66.2139C681.683 65.9085 681.48 65.5326 681.339 65.0859C681.202 64.6393 681.134 64.1289 681.134 63.5547ZM683.048 63.0557V63.5547C683.048 63.8965 683.071 64.1927 683.116 64.4434C683.166 64.694 683.237 64.9014 683.328 65.0654C683.424 65.2295 683.538 65.3503 683.67 65.4277C683.802 65.5052 683.955 65.5439 684.128 65.5439C684.301 65.5439 684.456 65.5052 684.593 65.4277C684.729 65.3503 684.841 65.2295 684.928 65.0654C685.019 64.9014 685.085 64.694 685.126 64.4434C685.172 64.1927 685.194 63.8965 685.194 63.5547V63.0557C685.194 62.723 685.169 62.4313 685.119 62.1807C685.069 61.9255 684.998 61.7181 684.907 61.5586C684.816 61.3945 684.702 61.2715 684.565 61.1895C684.433 61.1029 684.283 61.0596 684.114 61.0596C683.946 61.0596 683.795 61.1029 683.663 61.1895C683.535 61.2715 683.424 61.3945 683.328 61.5586C683.237 61.7181 683.166 61.9255 683.116 62.1807C683.071 62.4313 683.048 62.723 683.048 63.0557ZM690.205 61.1826V67H688.284V59.6035H690.082L690.205 61.1826ZM689.918 63.0488L689.405 63.0625C689.396 62.5065 689.449 62.0075 689.562 61.5654C689.681 61.1234 689.847 60.7474 690.062 60.4375C690.28 60.123 690.54 59.8838 690.841 59.7197C691.146 59.5511 691.486 59.4668 691.859 59.4668C692.146 59.4668 692.409 59.5169 692.646 59.6172C692.887 59.7174 693.094 59.877 693.268 60.0957C693.441 60.3145 693.575 60.6061 693.671 60.9707C693.767 61.3307 693.814 61.7728 693.814 62.2969V67H691.894V62.2832C691.894 61.9642 691.862 61.7181 691.798 61.5449C691.734 61.3672 691.638 61.2441 691.511 61.1758C691.383 61.1029 691.224 61.0664 691.032 61.0664C690.85 61.0664 690.688 61.1188 690.547 61.2236C690.406 61.3239 690.287 61.4629 690.191 61.6406C690.1 61.8184 690.03 62.028 689.979 62.2695C689.934 62.5111 689.913 62.7708 689.918 63.0488ZM633.986 75.6816L635.6 74.4443C635.837 74.2529 635.985 74.0729 636.044 73.9043C636.103 73.7311 636.133 73.5443 636.133 73.3438C636.133 73.1387 636.074 72.9473 635.955 72.7695C635.837 72.5872 635.675 72.4961 635.47 72.4961C635.319 72.4961 635.194 72.5417 635.094 72.6328C634.998 72.724 634.925 72.8447 634.875 72.9951C634.829 73.1455 634.807 73.3141 634.807 73.501C634.807 73.7015 634.854 73.9066 634.95 74.1162C635.046 74.3258 635.174 74.5492 635.333 74.7861C635.493 75.0186 635.668 75.2715 635.859 75.5449L639.756 81H637.582L634.472 76.5908C634.203 76.1898 633.964 75.8229 633.754 75.4902C633.549 75.153 633.387 74.8249 633.269 74.5059C633.155 74.1868 633.098 73.8587 633.098 73.5215C633.098 73.002 633.196 72.5462 633.392 72.1543C633.592 71.7578 633.87 71.4502 634.226 71.2314C634.581 71.0127 634.998 70.9033 635.477 70.9033C635.923 70.9033 636.315 71.0104 636.652 71.2246C636.99 71.4388 637.249 71.7214 637.432 72.0723C637.618 72.4186 637.712 72.8014 637.712 73.2207C637.712 73.5352 637.666 73.8223 637.575 74.082C637.484 74.3418 637.354 74.5833 637.186 74.8066C637.021 75.0299 636.821 75.235 636.584 75.4219L634.67 76.9805C634.574 77.1263 634.501 77.2721 634.451 77.418C634.401 77.5592 634.365 77.696 634.342 77.8281C634.324 77.9557 634.314 78.0811 634.314 78.2041C634.314 78.4593 634.358 78.6917 634.444 78.9014C634.531 79.1064 634.645 79.266 634.786 79.3799C634.932 79.4938 635.094 79.5508 635.271 79.5508C635.568 79.5508 635.853 79.4688 636.126 79.3047C636.404 79.1406 636.655 78.9059 636.878 78.6006C637.101 78.2952 637.277 77.9329 637.404 77.5137C637.536 77.0898 637.603 76.625 637.603 76.1191H639.223C639.223 76.6341 639.179 77.124 639.093 77.5889C639.006 78.0537 638.863 78.4821 638.662 78.874C638.462 79.266 638.193 79.6146 637.855 79.9199C637.833 79.9382 637.796 79.9701 637.746 80.0156C637.701 80.0612 637.664 80.0954 637.637 80.1182C637.268 80.4645 636.882 80.722 636.481 80.8906C636.085 81.0592 635.65 81.1436 635.176 81.1436C634.602 81.1436 634.107 81.0228 633.692 80.7812C633.278 80.5397 632.956 80.207 632.729 79.7832C632.505 79.3548 632.394 78.8672 632.394 78.3203C632.394 77.9193 632.46 77.5706 632.592 77.2744C632.729 76.9736 632.915 76.6979 633.152 76.4473C633.394 76.1966 633.672 75.9414 633.986 75.6816ZM647.426 77.4932H645.389V75.832H647.426C647.708 75.832 647.938 75.7682 648.116 75.6406C648.299 75.513 648.431 75.3376 648.513 75.1143C648.595 74.8864 648.636 74.6312 648.636 74.3486C648.636 74.0615 648.592 73.7949 648.506 73.5488C648.424 73.2982 648.294 73.0954 648.116 72.9404C647.943 72.7855 647.713 72.708 647.426 72.708H646.031V81H644.035V71.0469H647.426C648.096 71.0469 648.672 71.1882 649.155 71.4707C649.638 71.7533 650.007 72.1429 650.263 72.6396C650.522 73.1318 650.652 73.6969 650.652 74.335C650.652 74.9775 650.522 75.5358 650.263 76.0098C650.007 76.4792 649.638 76.8438 649.155 77.1035C648.672 77.3633 648.096 77.4932 647.426 77.4932ZM655.075 79.2979V75.8799C655.075 75.6566 655.048 75.4788 654.993 75.3467C654.943 75.2145 654.866 75.1188 654.761 75.0596C654.66 74.9958 654.537 74.9639 654.392 74.9639C654.228 74.9639 654.091 74.998 653.981 75.0664C653.872 75.1348 653.79 75.2327 653.735 75.3604C653.685 75.488 653.66 75.6406 653.66 75.8184H651.739C651.739 75.4993 651.801 75.1986 651.924 74.916C652.047 74.6289 652.227 74.3783 652.464 74.1641C652.705 73.9453 652.993 73.7744 653.325 73.6514C653.658 73.5283 654.032 73.4668 654.446 73.4668C654.938 73.4668 655.376 73.5511 655.759 73.7197C656.142 73.8838 656.445 74.1458 656.668 74.5059C656.891 74.8659 657.003 75.333 657.003 75.9072V79.2021C657.003 79.6169 657.023 79.9541 657.064 80.2139C657.11 80.4736 657.176 80.6969 657.263 80.8838V81H655.335C655.248 80.7949 655.182 80.5397 655.137 80.2344C655.096 79.9245 655.075 79.6123 655.075 79.2979ZM655.308 76.4814L655.314 77.6299H654.61C654.428 77.6299 654.269 77.6595 654.132 77.7188C654 77.778 653.888 77.8623 653.797 77.9717C653.706 78.0765 653.637 78.1995 653.592 78.3408C653.551 78.4821 653.53 78.6325 653.53 78.792C653.53 78.9697 653.555 79.1201 653.605 79.2432C653.656 79.3662 653.731 79.4596 653.831 79.5234C653.931 79.5872 654.05 79.6191 654.187 79.6191C654.396 79.6191 654.578 79.5758 654.733 79.4893C654.888 79.4027 655.002 79.2979 655.075 79.1748C655.153 79.0518 655.178 78.9378 655.15 78.833L655.588 79.5781C655.533 79.7467 655.458 79.9222 655.362 80.1045C655.271 80.2868 655.155 80.4554 655.014 80.6104C654.872 80.7653 654.697 80.8929 654.487 80.9932C654.282 81.0889 654.038 81.1367 653.756 81.1367C653.359 81.1367 652.997 81.0456 652.669 80.8633C652.341 80.681 652.081 80.4258 651.89 80.0977C651.703 79.7695 651.609 79.3799 651.609 78.9287C651.609 78.555 651.669 78.2178 651.787 77.917C651.91 77.6117 652.092 77.3542 652.334 77.1445C652.576 76.9303 652.881 76.7663 653.25 76.6523C653.619 76.5384 654.052 76.4814 654.549 76.4814H655.308ZM660.168 80.1523L661.713 73.6035H663.709L661.275 82.1074C661.221 82.2943 661.146 82.4948 661.05 82.709C660.954 82.9277 660.826 83.1328 660.667 83.3242C660.512 83.5202 660.316 83.6797 660.079 83.8027C659.842 83.9258 659.557 83.9873 659.225 83.9873C659.056 83.9873 658.919 83.9759 658.814 83.9531C658.714 83.9349 658.587 83.903 658.432 83.8574V82.3672C658.473 82.3672 658.511 82.3672 658.548 82.3672C658.589 82.3717 658.628 82.374 658.664 82.374C658.878 82.374 659.049 82.3444 659.177 82.2852C659.304 82.2305 659.407 82.1439 659.484 82.0254C659.566 81.9069 659.635 81.7588 659.689 81.5811L660.168 80.1523ZM659.771 73.6035L660.92 78.9082L661.18 81.0684L659.888 81.1914L657.721 73.6035H659.771ZM666.471 75.1348V81H664.55V73.6035H666.354L666.471 75.1348ZM666.197 77.0488L665.671 77.0625C665.662 76.543 665.707 76.0645 665.808 75.627C665.908 75.1895 666.058 74.8089 666.259 74.4854C666.464 74.1618 666.721 73.9111 667.031 73.7334C667.341 73.5557 667.703 73.4668 668.118 73.4668C668.387 73.4668 668.635 73.5169 668.863 73.6172C669.091 73.7129 669.289 73.8656 669.458 74.0752C669.627 74.2803 669.757 74.5492 669.848 74.8818C669.939 75.21 669.984 75.6042 669.984 76.0645V81H668.07V76.2969C668.07 75.9688 668.038 75.7181 667.975 75.5449C667.911 75.3672 667.82 75.2441 667.701 75.1758C667.583 75.1029 667.437 75.0664 667.264 75.0664C667.081 75.0664 666.922 75.1165 666.785 75.2168C666.648 75.3171 666.537 75.4583 666.45 75.6406C666.368 75.8184 666.304 76.028 666.259 76.2695C666.218 76.5111 666.197 76.7708 666.197 77.0488ZM669.8 76.8574L669.109 76.9463C669.1 76.4587 669.144 76.0052 669.239 75.5859C669.335 75.1621 669.483 74.793 669.684 74.4785C669.884 74.1595 670.135 73.9111 670.436 73.7334C670.741 73.5557 671.094 73.4668 671.495 73.4668C671.796 73.4668 672.069 73.5169 672.315 73.6172C672.562 73.7174 672.771 73.8792 672.944 74.1025C673.122 74.3213 673.257 74.6107 673.348 74.9707C673.443 75.3307 673.491 75.7682 673.491 76.2832V81H671.57V76.29C671.57 75.9574 671.538 75.7021 671.475 75.5244C671.411 75.3467 671.32 75.2259 671.201 75.1621C671.083 75.0983 670.941 75.0664 670.777 75.0664C670.613 75.0664 670.47 75.112 670.347 75.2031C670.228 75.2943 670.128 75.4219 670.046 75.5859C669.964 75.7454 669.902 75.9346 669.861 76.1533C669.82 76.3675 669.8 76.6022 669.8 76.8574ZM677.914 81.1367C677.408 81.1367 676.959 81.0592 676.567 80.9043C676.18 80.7493 675.852 80.526 675.583 80.2344C675.314 79.9382 675.109 79.5804 674.968 79.1611C674.826 78.7419 674.756 78.2633 674.756 77.7256V77.1172C674.756 76.5156 674.824 75.9893 674.961 75.5381C675.098 75.0824 675.291 74.6995 675.542 74.3896C675.793 74.0798 676.1 73.8496 676.465 73.6992C676.834 73.5443 677.251 73.4668 677.716 73.4668C678.181 73.4668 678.589 73.5443 678.939 73.6992C679.295 73.8496 679.589 74.0775 679.821 74.3828C680.054 74.6836 680.229 75.0573 680.348 75.5039C680.466 75.9505 680.525 76.4701 680.525 77.0625V77.9375H675.569V76.5908H678.646V76.4199C678.646 76.1191 678.614 75.8685 678.55 75.668C678.486 75.4629 678.386 75.3102 678.249 75.21C678.112 75.1097 677.93 75.0596 677.702 75.0596C677.511 75.0596 677.349 75.0983 677.217 75.1758C677.085 75.2533 676.98 75.374 676.902 75.5381C676.825 75.7021 676.768 75.9163 676.731 76.1807C676.695 76.4404 676.677 76.7526 676.677 77.1172V77.7256C676.677 78.0674 676.706 78.3545 676.766 78.5869C676.825 78.8148 676.911 79.0016 677.025 79.1475C677.144 79.2887 677.287 79.3913 677.456 79.4551C677.625 79.5143 677.821 79.5439 678.044 79.5439C678.381 79.5439 678.684 79.4847 678.953 79.3662C679.227 79.2432 679.459 79.0768 679.65 78.8672L680.416 80.0293C680.284 80.2025 680.102 80.3757 679.869 80.5488C679.637 80.722 679.359 80.8633 679.035 80.9727C678.712 81.082 678.338 81.1367 677.914 81.1367ZM683.513 75.1826V81H681.592V73.6035H683.39L683.513 75.1826ZM683.226 77.0488L682.713 77.0625C682.704 76.5065 682.756 76.0075 682.87 75.5654C682.989 75.1234 683.155 74.7474 683.369 74.4375C683.588 74.123 683.848 73.8838 684.148 73.7197C684.454 73.5511 684.793 73.4668 685.167 73.4668C685.454 73.4668 685.716 73.5169 685.953 73.6172C686.195 73.7174 686.402 73.877 686.575 74.0957C686.748 74.3145 686.883 74.6061 686.979 74.9707C687.074 75.3307 687.122 75.7728 687.122 76.2969V81H685.201V76.2832C685.201 75.9642 685.169 75.7181 685.105 75.5449C685.042 75.3672 684.946 75.2441 684.818 75.1758C684.691 75.1029 684.531 75.0664 684.34 75.0664C684.158 75.0664 683.996 75.1188 683.854 75.2236C683.713 75.3239 683.595 75.4629 683.499 75.6406C683.408 75.8184 683.337 76.028 683.287 76.2695C683.242 76.5111 683.221 76.7708 683.226 77.0488ZM691.75 73.6035V75.0459H687.977V73.6035H691.75ZM688.845 71.7783H690.752V78.7441C690.752 78.9492 690.772 79.1064 690.813 79.2158C690.854 79.3252 690.916 79.4027 690.998 79.4482C691.085 79.4893 691.199 79.5098 691.34 79.5098C691.436 79.5098 691.524 79.5052 691.606 79.4961C691.688 79.4824 691.75 79.4688 691.791 79.4551V80.9521C691.641 81.0114 691.481 81.057 691.312 81.0889C691.148 81.1208 690.952 81.1367 690.725 81.1367C690.342 81.1367 690.009 81.0638 689.727 80.918C689.449 80.7721 689.232 80.5397 689.077 80.2207C688.922 79.8971 688.845 79.4733 688.845 78.9492V71.7783Z" fill="url(#paint2_linear_363_1460)"/>
<path fill-rule="evenodd" clip-rule="evenodd" d="M341 33H48V31H341V33Z" fill="url(#paint3_linear_363_1460)"/>
<path fill-rule="evenodd" clip-rule="evenodd" d="M650 33H369V31H650V33Z" fill="url(#paint4_linear_363_1460)"/>
<g filter="url(#filter0_d_363_1460)">
<path d="M34 17C25.7125 17 19 23.7125 19 32C19 34.8125 19.7875 37.475 21.175 39.725C22.497 41.9468 24.3748 43.7861 26.6236 45.0617C28.8724 46.3373 31.4146 47.0053 34 47C39.475 47 44.2375 44.075 46.825 39.725C48.2125 37.475 49 34.8125 49 32C49 23.7125 42.2875 17 34 17ZM41.3875 30.7625L33.4 38.15C32.875 38.6375 32.1625 38.9 31.4875 38.9C30.775 38.9 30.0625 38.6375 29.5 38.075L25.7875 34.3625C25.2644 33.8332 24.9711 33.1191 24.9711 32.375C24.9711 31.6309 25.2644 30.9168 25.7875 30.3875C26.875 29.3 28.675 29.3 29.7625 30.3875L31.5625 32.1875L37.5625 26.6375C38.6875 25.5875 40.4875 25.6625 41.5375 26.7875C42.5875 27.9125 42.5125 29.7125 41.3875 30.7625Z" fill="url(#paint5_linear_363_1460)"/>
</g>
<g filter="url(#filter1_d_363_1460)">
<path d="M355 17C346.712 17 340 23.7125 340 32C340 34.8125 340.788 37.475 342.175 39.725C343.497 41.9468 345.375 43.7861 347.624 45.0617C349.872 46.3373 352.415 47.0053 355 47C360.475 47 365.238 44.075 367.825 39.725C369.213 37.475 370 34.8125 370 32C370 23.7125 363.288 17 355 17ZM362.387 30.7625L354.4 38.15C353.875 38.6375 353.162 38.9 352.487 38.9C351.775 38.9 351.062 38.6375 350.5 38.075L346.787 34.3625C346.264 33.8332 345.971 33.1191 345.971 32.375C345.971 31.6309 346.264 30.9168 346.787 30.3875C347.875 29.3 349.675 29.3 350.762 30.3875L352.562 32.1875L358.562 26.6375C359.687 25.5875 361.488 25.6625 362.538 26.7875C363.588 27.9125 363.512 29.7125 362.387 30.7625Z" fill="url(#paint6_linear_363_1460)"/>
</g>
<g filter="url(#filter2_d_363_1460)">
<path d="M662 17C653.712 17 647 23.7125 647 32C647 34.8125 647.788 37.475 649.175 39.725C650.497 41.9468 652.375 43.7861 654.624 45.0617C656.872 46.3373 659.415 47.0053 662 47C667.475 47 672.238 44.075 674.825 39.725C676.213 37.475 677 34.8125 677 32C677 23.7125 670.288 17 662 17ZM669.387 30.7625L661.4 38.15C660.875 38.6375 660.162 38.9 659.487 38.9C658.775 38.9 658.062 38.6375 657.5 38.075L653.787 34.3625C653.264 33.8332 652.971 33.1191 652.971 32.375C652.971 31.6309 653.264 30.9168 653.787 30.3875C654.875 29.3 656.675 29.3 657.762 30.3875L659.562 32.1875L665.562 26.6375C666.687 25.5875 668.488 25.6625 669.538 26.7875C670.588 27.9125 670.512 29.7125 669.387 30.7625Z" fill="url(#paint7_linear_363_1460)"/>
</g>
<defs>
<filter id="filter0_d_363_1460" x="2" y="0" width="74" height="74" filterUnits="userSpaceOnUse" color-interpolation-filters="sRGB">
<feFlood flood-opacity="0" result="BackgroundImageFix"/>
<feColorMatrix in="SourceAlpha" type="matrix" values="0 0 0 0 0 0 0 0 0 0 0 0 0 0 0 0 0 0 127 0" result="hardAlpha"/>
<feOffset dx="5" dy="5"/>
<feGaussianBlur stdDeviation="11"/>
<feComposite in2="hardAlpha" operator="out"/>
<feColorMatrix type="matrix" values="0 0 0 0 0.0392157 0 0 0 0 0.560784 0 0 0 0 0.309804 0 0 0 0.2 0"/>
<feBlend mode="normal" in2="BackgroundImageFix" result="effect1_dropShadow_363_1460"/>
<feBlend mode="normal" in="SourceGraphic" in2="effect1_dropShadow_363_1460" result="shape"/>
</filter>
<filter id="filter1_d_363_1460" x="323" y="0" width="74" height="74" filterUnits="userSpaceOnUse" color-interpolation-filters="sRGB">
<feFlood flood-opacity="0" result="BackgroundImageFix"/>
<feColorMatrix in="SourceAlpha" type="matrix" values="0 0 0 0 0 0 0 0 0 0 0 0 0 0 0 0 0 0 127 0" result="hardAlpha"/>
<feOffset dx="5" dy="5"/>
<feGaussianBlur stdDeviation="11"/>
<feComposite in2="hardAlpha" operator="out"/>
<feColorMatrix type="matrix" values="0 0 0 0 0.0392157 0 0 0 0 0.560784 0 0 0 0 0.309804 0 0 0 0.2 0"/>
<feBlend mode="normal" in2="BackgroundImageFix" result="effect1_dropShadow_363_1460"/>
<feBlend mode="normal" in="SourceGraphic" in2="effect1_dropShadow_363_1460" result="shape"/>
</filter>
<filter id="filter2_d_363_1460" x="630" y="0" width="74" height="74" filterUnits="userSpaceOnUse" color-interpolation-filters="sRGB">
<feFlood flood-opacity="0" result="BackgroundImageFix"/>
<feColorMatrix in="SourceAlpha" type="matrix" values="0 0 0 0 0 0 0 0 0 0 0 0 0 0 0 0 0 0 127 0" result="hardAlpha"/>
<feOffset dx="5" dy="5"/>
<feGaussianBlur stdDeviation="11"/>
<feComposite in2="hardAlpha" operator="out"/>
<feColorMatrix type="matrix" values="0 0 0 0 0.0392157 0 0 0 0 0.560784 0 0 0 0 0.309804 0 0 0 0.2 0"/>
<feBlend mode="normal" in2="BackgroundImageFix" result="effect1_dropShadow_363_1460"/>
<feBlend mode="normal" in="SourceGraphic" in2="effect1_dropShadow_363_1460" result="shape"/>
</filter>
<linearGradient id="paint0_linear_363_1460" x1="34" y1="77" x2="34" y2="57" gradientUnits="userSpaceOnUse">
<stop stop-color="#5CCC94"/>
<stop offset="1" stop-color="#8CCAAE"/>
</linearGradient>
<linearGradient id="paint1_linear_363_1460" x1="357" y1="77" x2="357" y2="57" gradientUnits="userSpaceOnUse">
<stop stop-color="#5CCC94"/>
<stop offset="1" stop-color="#8CCAAE"/>
</linearGradient>
<linearGradient id="paint2_linear_363_1460" x1="662" y1="83" x2="662" y2="55" gradientUnits="userSpaceOnUse">
<stop stop-color="#5CCC94"/>
<stop offset="1" stop-color="#8CCAAE"/>
</linearGradient>
<linearGradient id="paint3_linear_363_1460" x1="194.5" y1="33" x2="194.5" y2="31" gradientUnits="userSpaceOnUse">
<stop stop-color="#5CCC94"/>
<stop offset="1" stop-color="#8CCAAE"/>
</linearGradient>
<linearGradient id="paint4_linear_363_1460" x1="509.5" y1="33" x2="509.5" y2="31" gradientUnits="userSpaceOnUse">
<stop stop-color="#5CCC94"/>
<stop offset="1" stop-color="#8CCAAE"/>
</linearGradient>
<linearGradient id="paint5_linear_363_1460" x1="34" y1="47" x2="34" y2="17" gradientUnits="userSpaceOnUse">
<stop stop-color="#5CCC94"/>
<stop offset="1" stop-color="#8CCAAE"/>
</linearGradient>
<linearGradient id="paint6_linear_363_1460" x1="355" y1="47" x2="355" y2="17" gradientUnits="userSpaceOnUse">
<stop stop-color="#5CCC94"/>
<stop offset="1" stop-color="#8CCAAE"/>
</linearGradient>
<linearGradient id="paint7_linear_363_1460" x1="662" y1="47" x2="662" y2="17" gradientUnits="userSpaceOnUse">
<stop stop-color="#5CCC94"/>
<stop offset="1" stop-color="#8CCAAE"/>
</linearGradient>
</defs>
</svg>
