<svg width="739" height="97" viewBox="0 0 739 97" fill="none" xmlns="http://www.w3.org/2000/svg">
<path d="M44.0752 62.0469V72H42.1406L39.0166 65.7725V72H37.1162V62.0469H39.0234L42.1748 68.3428V62.0469H44.0752ZM49.168 70.2227V64.6035H51.0889V72H49.2842L49.168 70.2227ZM49.3867 68.6982L49.9199 68.6846C49.9199 69.1813 49.8721 69.6416 49.7764 70.0654C49.6807 70.4847 49.5371 70.8493 49.3457 71.1592C49.1543 71.4691 48.915 71.7106 48.6279 71.8838C48.3408 72.0524 48.0013 72.1367 47.6094 72.1367C47.3086 72.1367 47.0306 72.0866 46.7754 71.9863C46.5247 71.8815 46.3083 71.7197 46.126 71.501C45.9437 71.2777 45.8001 70.9928 45.6953 70.6465C45.5951 70.2956 45.5449 69.874 45.5449 69.3818V64.6035H47.4658V69.4023C47.4658 69.6029 47.484 69.776 47.5205 69.9219C47.557 70.0632 47.6071 70.1794 47.6709 70.2705C47.7347 70.3617 47.8099 70.4277 47.8965 70.4688C47.9831 70.5052 48.0811 70.5234 48.1904 70.5234C48.4912 70.5234 48.7282 70.446 48.9014 70.291C49.0791 70.1315 49.2044 69.915 49.2773 69.6416C49.3503 69.3636 49.3867 69.0492 49.3867 68.6982ZM54.4111 66.1348V72H52.4902V64.6035H54.2949L54.4111 66.1348ZM54.1377 68.0488L53.6113 68.0625C53.6022 67.543 53.6478 67.0645 53.748 66.627C53.8483 66.1895 53.9987 65.8089 54.1992 65.4854C54.4043 65.1618 54.6618 64.9111 54.9717 64.7334C55.2816 64.5557 55.6439 64.4668 56.0586 64.4668C56.3275 64.4668 56.5758 64.5169 56.8037 64.6172C57.0316 64.7129 57.2298 64.8656 57.3984 65.0752C57.5671 65.2803 57.6969 65.5492 57.7881 65.8818C57.8792 66.21 57.9248 66.6042 57.9248 67.0645V72H56.0107V67.2969C56.0107 66.9688 55.9788 66.7181 55.915 66.5449C55.8512 66.3672 55.7601 66.2441 55.6416 66.1758C55.5231 66.1029 55.3773 66.0664 55.2041 66.0664C55.0218 66.0664 54.8623 66.1165 54.7256 66.2168C54.5889 66.3171 54.4772 66.4583 54.3906 66.6406C54.3086 66.8184 54.2448 67.028 54.1992 67.2695C54.1582 67.5111 54.1377 67.7708 54.1377 68.0488ZM57.7402 67.8574L57.0498 67.9463C57.0407 67.4587 57.084 67.0052 57.1797 66.5859C57.2754 66.1621 57.4235 65.793 57.624 65.4785C57.8245 65.1595 58.0752 64.9111 58.376 64.7334C58.6813 64.5557 59.0345 64.4668 59.4355 64.4668C59.7363 64.4668 60.0098 64.5169 60.2559 64.6172C60.502 64.7174 60.7116 64.8792 60.8848 65.1025C61.0625 65.3213 61.1969 65.6107 61.2881 65.9707C61.3838 66.3307 61.4316 66.7682 61.4316 67.2832V72H59.5107V67.29C59.5107 66.9574 59.4788 66.7021 59.415 66.5244C59.3512 66.3467 59.2601 66.2259 59.1416 66.1621C59.0231 66.0983 58.8818 66.0664 58.7178 66.0664C58.5537 66.0664 58.4102 66.112 58.2871 66.2031C58.1686 66.2943 58.0684 66.4219 57.9863 66.5859C57.9043 66.7454 57.8428 66.9346 57.8018 67.1533C57.7607 67.3675 57.7402 67.6022 57.7402 67.8574ZM66.1348 70.2979V66.8799C66.1348 66.6566 66.1074 66.4788 66.0527 66.3467C66.0026 66.2145 65.9251 66.1188 65.8203 66.0596C65.7201 65.9958 65.597 65.9639 65.4512 65.9639C65.2871 65.9639 65.1504 65.998 65.041 66.0664C64.9316 66.1348 64.8496 66.2327 64.7949 66.3604C64.7448 66.488 64.7197 66.6406 64.7197 66.8184H62.7988C62.7988 66.4993 62.8604 66.1986 62.9834 65.916C63.1064 65.6289 63.2865 65.3783 63.5234 65.1641C63.765 64.9453 64.0521 64.7744 64.3848 64.6514C64.7174 64.5283 65.0911 64.4668 65.5059 64.4668C65.998 64.4668 66.4355 64.5511 66.8184 64.7197C67.2012 64.8838 67.5042 65.1458 67.7275 65.5059C67.9508 65.8659 68.0625 66.333 68.0625 66.9072V70.2021C68.0625 70.6169 68.083 70.9541 68.124 71.2139C68.1696 71.4736 68.2357 71.6969 68.3223 71.8838V72H66.3945C66.3079 71.7949 66.2419 71.5397 66.1963 71.2344C66.1553 70.9245 66.1348 70.6123 66.1348 70.2979ZM66.3672 67.4814L66.374 68.6299H65.6699C65.4876 68.6299 65.3281 68.6595 65.1914 68.7188C65.0592 68.778 64.9476 68.8623 64.8564 68.9717C64.7653 69.0765 64.6969 69.1995 64.6514 69.3408C64.6104 69.4821 64.5898 69.6325 64.5898 69.792C64.5898 69.9697 64.6149 70.1201 64.665 70.2432C64.7152 70.3662 64.7904 70.4596 64.8906 70.5234C64.9909 70.5872 65.1094 70.6191 65.2461 70.6191C65.4557 70.6191 65.638 70.5758 65.793 70.4893C65.9479 70.4027 66.0618 70.2979 66.1348 70.1748C66.2122 70.0518 66.2373 69.9378 66.21 69.833L66.6475 70.5781C66.5928 70.7467 66.5176 70.9222 66.4219 71.1045C66.3307 71.2868 66.2145 71.4554 66.0732 71.6104C65.932 71.7653 65.7565 71.8929 65.5469 71.9932C65.3418 72.0889 65.098 72.1367 64.8154 72.1367C64.4189 72.1367 64.0566 72.0456 63.7285 71.8633C63.4004 71.681 63.1406 71.4258 62.9492 71.0977C62.7624 70.7695 62.6689 70.3799 62.6689 69.9287C62.6689 69.555 62.7282 69.2178 62.8467 68.917C62.9697 68.6117 63.152 68.3542 63.3936 68.1445C63.6351 67.9303 63.9404 67.7663 64.3096 67.6523C64.6787 67.5384 65.1117 67.4814 65.6084 67.4814H66.3672ZM66.4014 61.5615H67.8096C67.8096 61.9626 67.7116 62.3158 67.5156 62.6211C67.3242 62.9219 67.0508 63.1589 66.6953 63.332C66.3444 63.5052 65.9274 63.5918 65.4443 63.5918C64.7152 63.5918 64.1387 63.4027 63.7148 63.0244C63.291 62.6462 63.0791 62.1585 63.0791 61.5615H64.4736C64.4736 61.7985 64.5465 62.0081 64.6924 62.1904C64.8382 62.3727 65.0889 62.4639 65.4443 62.4639C65.7952 62.4639 66.0413 62.3727 66.1826 62.1904C66.3285 62.0081 66.4014 61.7985 66.4014 61.5615ZM71.3916 66.251V72H69.4775V64.6035H71.2822L71.3916 66.251ZM73.1348 64.5488L73.1074 66.4561C73.0208 66.4378 72.916 66.4242 72.793 66.415C72.6745 66.4059 72.5697 66.4014 72.4785 66.4014C72.2643 66.4014 72.082 66.4355 71.9316 66.5039C71.7812 66.5677 71.6559 66.6657 71.5557 66.7979C71.46 66.9255 71.387 67.085 71.3369 67.2764C71.2868 67.4678 71.2572 67.6842 71.248 67.9258L70.8857 67.7891C70.8857 67.306 70.9222 66.8639 70.9951 66.4629C71.0726 66.0573 71.1865 65.7064 71.3369 65.4102C71.4873 65.1094 71.6673 64.877 71.877 64.7129C72.0911 64.5488 72.3327 64.4668 72.6016 64.4668C72.6927 64.4668 72.7884 64.4759 72.8887 64.4941C72.9935 64.5078 73.0755 64.526 73.1348 64.5488ZM77.6875 70.2227V64.6035H79.6084V72H77.8037L77.6875 70.2227ZM77.9062 68.6982L78.4395 68.6846C78.4395 69.1813 78.3916 69.6416 78.2959 70.0654C78.2002 70.4847 78.0566 70.8493 77.8652 71.1592C77.6738 71.4691 77.4346 71.7106 77.1475 71.8838C76.8604 72.0524 76.5208 72.1367 76.1289 72.1367C75.8281 72.1367 75.5501 72.0866 75.2949 71.9863C75.0443 71.8815 74.8278 71.7197 74.6455 71.501C74.4632 71.2777 74.3197 70.9928 74.2148 70.6465C74.1146 70.2956 74.0645 69.874 74.0645 69.3818V64.6035H75.9854V69.4023C75.9854 69.6029 76.0036 69.776 76.04 69.9219C76.0765 70.0632 76.1266 70.1794 76.1904 70.2705C76.2542 70.3617 76.3294 70.4277 76.416 70.4688C76.5026 70.5052 76.6006 70.5234 76.71 70.5234C77.0107 70.5234 77.2477 70.446 77.4209 70.291C77.5986 70.1315 77.724 69.915 77.7969 69.6416C77.8698 69.3636 77.9062 69.0492 77.9062 68.6982ZM83.0127 61.5V72H81.0918V61.5H83.0127ZM91.3389 70.3662V61.5H93.2598V72L91.5234 72.0068L91.3389 70.3662ZM87.5039 68.5615V68.0693C87.5039 67.4678 87.554 66.9414 87.6543 66.4902C87.7591 66.0391 87.9141 65.6631 88.1191 65.3623C88.3242 65.0615 88.5749 64.8382 88.8711 64.6924C89.1719 64.542 89.516 64.4668 89.9033 64.4668C90.2542 64.4668 90.5618 64.5557 90.8262 64.7334C91.0951 64.9066 91.3229 65.1504 91.5098 65.4648C91.6966 65.7793 91.847 66.1507 91.9609 66.5791C92.0749 67.0075 92.1546 67.4769 92.2002 67.9873V68.6982C92.1455 69.1813 92.0612 69.6325 91.9473 70.0518C91.8379 70.471 91.6875 70.8356 91.4961 71.1455C91.3092 71.4554 91.0837 71.6992 90.8193 71.877C90.555 72.0501 90.2474 72.1367 89.8965 72.1367C89.5091 72.1367 89.165 72.0592 88.8643 71.9043C88.568 71.7493 88.3174 71.5215 88.1123 71.2207C87.9118 70.9154 87.7591 70.5417 87.6543 70.0996C87.554 69.653 87.5039 69.1403 87.5039 68.5615ZM89.418 68.0693V68.5615C89.418 68.9079 89.4339 69.2064 89.4658 69.457C89.5023 69.7031 89.5592 69.9059 89.6367 70.0654C89.7188 70.2204 89.8258 70.3366 89.958 70.4141C90.0902 70.487 90.2542 70.5234 90.4502 70.5234C90.7054 70.5234 90.9128 70.4596 91.0723 70.332C91.2318 70.1999 91.3503 70.0199 91.4277 69.792C91.5098 69.5596 91.5553 69.293 91.5645 68.9922V67.7002C91.5553 67.4495 91.5257 67.224 91.4756 67.0234C91.4255 66.8229 91.3548 66.652 91.2637 66.5107C91.1725 66.3695 91.0586 66.2601 90.9219 66.1826C90.7897 66.1051 90.6348 66.0664 90.457 66.0664C90.2656 66.0664 90.1016 66.1051 89.9648 66.1826C89.8327 66.2601 89.7279 66.3809 89.6504 66.5449C89.5729 66.7044 89.5137 66.9118 89.4727 67.167C89.4362 67.4176 89.418 67.7184 89.418 68.0693ZM97.6826 72.1367C97.1768 72.1367 96.7279 72.0592 96.3359 71.9043C95.9486 71.7493 95.6204 71.526 95.3516 71.2344C95.0827 70.9382 94.8776 70.5804 94.7363 70.1611C94.5951 69.7419 94.5244 69.2633 94.5244 68.7256V68.1172C94.5244 67.5156 94.5928 66.9893 94.7295 66.5381C94.8662 66.0824 95.0599 65.6995 95.3105 65.3896C95.5612 65.0798 95.8688 64.8496 96.2334 64.6992C96.6025 64.5443 97.0195 64.4668 97.4844 64.4668C97.9492 64.4668 98.3571 64.5443 98.708 64.6992C99.0635 64.8496 99.3574 65.0775 99.5898 65.3828C99.8223 65.6836 99.9977 66.0573 100.116 66.5039C100.235 66.9505 100.294 67.4701 100.294 68.0625V68.9375H95.3379V67.5908H98.4141V67.4199C98.4141 67.1191 98.3822 66.8685 98.3184 66.668C98.2546 66.4629 98.1543 66.3102 98.0176 66.21C97.8809 66.1097 97.6986 66.0596 97.4707 66.0596C97.2793 66.0596 97.1175 66.0983 96.9854 66.1758C96.8532 66.2533 96.7484 66.374 96.6709 66.5381C96.5934 66.7021 96.5365 66.9163 96.5 67.1807C96.4635 67.4404 96.4453 67.7526 96.4453 68.1172V68.7256C96.4453 69.0674 96.4749 69.3545 96.5342 69.5869C96.5934 69.8148 96.68 70.0016 96.7939 70.1475C96.9124 70.2887 97.056 70.3913 97.2246 70.4551C97.3932 70.5143 97.5892 70.5439 97.8125 70.5439C98.1497 70.5439 98.4528 70.4847 98.7217 70.3662C98.9951 70.2432 99.2275 70.0768 99.4189 69.8672L100.185 71.0293C100.052 71.2025 99.8701 71.3757 99.6377 71.5488C99.4053 71.722 99.1273 71.8633 98.8037 71.9727C98.4801 72.082 98.1064 72.1367 97.6826 72.1367ZM33.9443 84.6035V92H32.0234V84.6035H33.9443ZM33.5479 81.6025L35.3457 83.5098V83.5918H33.8555L33.001 82.6143L32.1465 83.5986H30.6768V83.4961L32.4541 81.6025H33.5479ZM37.4238 86.1826V92H35.5029V84.6035H37.3008L37.4238 86.1826ZM37.1367 88.0488L36.624 88.0625C36.6149 87.5065 36.6673 87.0075 36.7812 86.5654C36.8997 86.1234 37.0661 85.7474 37.2803 85.4375C37.499 85.123 37.7588 84.8838 38.0596 84.7197C38.3649 84.5511 38.7044 84.4668 39.0781 84.4668C39.3652 84.4668 39.6273 84.5169 39.8643 84.6172C40.1058 84.7174 40.3132 84.877 40.4863 85.0957C40.6595 85.3145 40.7939 85.6061 40.8896 85.9707C40.9854 86.3307 41.0332 86.7728 41.0332 87.2969V92H39.1123V87.2832C39.1123 86.9642 39.0804 86.7181 39.0166 86.5449C38.9528 86.3672 38.8571 86.2441 38.7295 86.1758C38.6019 86.1029 38.4424 86.0664 38.251 86.0664C38.0687 86.0664 37.9069 86.1188 37.7656 86.2236C37.6243 86.3239 37.5059 86.4629 37.4102 86.6406C37.319 86.8184 37.2484 87.028 37.1982 87.2695C37.1527 87.5111 37.1322 87.7708 37.1367 88.0488ZM44.3623 86.1348V92H42.4414V84.6035H44.2461L44.3623 86.1348ZM44.0889 88.0488L43.5625 88.0625C43.5534 87.543 43.599 87.0645 43.6992 86.627C43.7995 86.1895 43.9499 85.8089 44.1504 85.4854C44.3555 85.1618 44.613 84.9111 44.9229 84.7334C45.2327 84.5557 45.5951 84.4668 46.0098 84.4668C46.2786 84.4668 46.527 84.5169 46.7549 84.6172C46.9827 84.7129 47.181 84.8656 47.3496 85.0752C47.5182 85.2803 47.6481 85.5492 47.7393 85.8818C47.8304 86.21 47.876 86.6042 47.876 87.0645V92H45.9619V87.2969C45.9619 86.9688 45.93 86.7181 45.8662 86.5449C45.8024 86.3672 45.7113 86.2441 45.5928 86.1758C45.4743 86.1029 45.3285 86.0664 45.1553 86.0664C44.973 86.0664 44.8135 86.1165 44.6768 86.2168C44.54 86.3171 44.4284 86.4583 44.3418 86.6406C44.2598 86.8184 44.196 87.028 44.1504 87.2695C44.1094 87.5111 44.0889 87.7708 44.0889 88.0488ZM47.6914 87.8574L47.001 87.9463C46.9919 87.4587 47.0352 87.0052 47.1309 86.5859C47.2266 86.1621 47.3747 85.793 47.5752 85.4785C47.7757 85.1595 48.0264 84.9111 48.3271 84.7334C48.6325 84.5557 48.9857 84.4668 49.3867 84.4668C49.6875 84.4668 49.9609 84.5169 50.207 84.6172C50.4531 84.7174 50.6628 84.8792 50.8359 85.1025C51.0137 85.3213 51.1481 85.6107 51.2393 85.9707C51.335 86.3307 51.3828 86.7682 51.3828 87.2832V92H49.4619V87.29C49.4619 86.9574 49.43 86.7021 49.3662 86.5244C49.3024 86.3467 49.2113 86.2259 49.0928 86.1621C48.9743 86.0983 48.833 86.0664 48.6689 86.0664C48.5049 86.0664 48.3613 86.112 48.2383 86.2031C48.1198 86.2943 48.0195 86.4219 47.9375 86.5859C47.8555 86.7454 47.7939 86.9346 47.7529 87.1533C47.7119 87.3675 47.6914 87.6022 47.6914 87.8574ZM56.0859 90.2979V86.8799C56.0859 86.6566 56.0586 86.4788 56.0039 86.3467C55.9538 86.2145 55.8763 86.1188 55.7715 86.0596C55.6712 85.9958 55.5482 85.9639 55.4023 85.9639C55.2383 85.9639 55.1016 85.998 54.9922 86.0664C54.8828 86.1348 54.8008 86.2327 54.7461 86.3604C54.696 86.488 54.6709 86.6406 54.6709 86.8184H52.75C52.75 86.4993 52.8115 86.1986 52.9346 85.916C53.0576 85.6289 53.2376 85.3783 53.4746 85.1641C53.7161 84.9453 54.0033 84.7744 54.3359 84.6514C54.6686 84.5283 55.0423 84.4668 55.457 84.4668C55.9492 84.4668 56.3867 84.5511 56.7695 84.7197C57.1523 84.8838 57.4554 85.1458 57.6787 85.5059C57.902 85.8659 58.0137 86.333 58.0137 86.9072V90.2021C58.0137 90.6169 58.0342 90.9541 58.0752 91.2139C58.1208 91.4736 58.1868 91.6969 58.2734 91.8838V92H56.3457C56.2591 91.7949 56.193 91.5397 56.1475 91.2344C56.1064 90.9245 56.0859 90.6123 56.0859 90.2979ZM56.3184 87.4814L56.3252 88.6299H55.6211C55.4388 88.6299 55.2793 88.6595 55.1426 88.7188C55.0104 88.778 54.8988 88.8623 54.8076 88.9717C54.7165 89.0765 54.6481 89.1995 54.6025 89.3408C54.5615 89.4821 54.541 89.6325 54.541 89.792C54.541 89.9697 54.5661 90.1201 54.6162 90.2432C54.6663 90.3662 54.7415 90.4596 54.8418 90.5234C54.9421 90.5872 55.0605 90.6191 55.1973 90.6191C55.4069 90.6191 55.5892 90.5758 55.7441 90.4893C55.8991 90.4027 56.013 90.2979 56.0859 90.1748C56.1634 90.0518 56.1885 89.9378 56.1611 89.833L56.5986 90.5781C56.5439 90.7467 56.4688 90.9222 56.373 91.1045C56.2819 91.2868 56.1657 91.4554 56.0244 91.6104C55.8831 91.7653 55.7077 91.8929 55.498 91.9932C55.293 92.0889 55.0492 92.1367 54.7666 92.1367C54.3701 92.1367 54.0078 92.0456 53.6797 91.8633C53.3516 91.681 53.0918 91.4258 52.9004 91.0977C52.7135 90.7695 52.6201 90.3799 52.6201 89.9287C52.6201 89.555 52.6794 89.2178 52.7979 88.917C52.9209 88.6117 53.1032 88.3542 53.3447 88.1445C53.5863 87.9303 53.8916 87.7663 54.2607 87.6523C54.6299 87.5384 55.0628 87.4814 55.5596 87.4814H56.3184ZM62.6553 84.6035V86.0459H58.8818V84.6035H62.6553ZM59.75 82.7783H61.6572V89.7441C61.6572 89.9492 61.6777 90.1064 61.7188 90.2158C61.7598 90.3252 61.8213 90.4027 61.9033 90.4482C61.9899 90.4893 62.1038 90.5098 62.2451 90.5098C62.3408 90.5098 62.4297 90.5052 62.5117 90.4961C62.5938 90.4824 62.6553 90.4688 62.6963 90.4551V91.9521C62.5459 92.0114 62.3864 92.057 62.2178 92.0889C62.0537 92.1208 61.8577 92.1367 61.6299 92.1367C61.2471 92.1367 60.9144 92.0638 60.6318 91.918C60.3538 91.7721 60.1374 91.5397 59.9824 91.2207C59.8275 90.8971 59.75 90.4733 59.75 89.9492V82.7783ZM65.6357 86.251V92H63.7217V84.6035H65.5264L65.6357 86.251ZM67.3789 84.5488L67.3516 86.4561C67.265 86.4378 67.1602 86.4242 67.0371 86.415C66.9186 86.4059 66.8138 86.4014 66.7227 86.4014C66.5085 86.4014 66.3262 86.4355 66.1758 86.5039C66.0254 86.5677 65.9001 86.6657 65.7998 86.7979C65.7041 86.9255 65.6312 87.085 65.5811 87.2764C65.5309 87.4678 65.5013 87.6842 65.4922 87.9258L65.1299 87.7891C65.1299 87.306 65.1663 86.8639 65.2393 86.4629C65.3167 86.0573 65.4307 85.7064 65.5811 85.4102C65.7314 85.1094 65.9115 84.877 66.1211 84.7129C66.3353 84.5488 66.5768 84.4668 66.8457 84.4668C66.9368 84.4668 67.0326 84.4759 67.1328 84.4941C67.2376 84.5078 67.3197 84.526 67.3789 84.5488ZM70.3662 84.6035V92H68.4453V84.6035H70.3662ZM68.3564 82.6895C68.3564 82.3932 68.4499 82.1494 68.6367 81.958C68.8281 81.762 69.0833 81.6641 69.4023 81.6641C69.7259 81.6641 69.9811 81.762 70.168 81.958C70.3548 82.1494 70.4482 82.3932 70.4482 82.6895C70.4482 82.9811 70.3525 83.2249 70.1611 83.4209C69.9743 83.6123 69.7236 83.708 69.4092 83.708C69.0856 83.708 68.8281 83.6123 68.6367 83.4209C68.4499 83.2249 68.3564 82.9811 68.3564 82.6895ZM74.5566 90.5439C74.7344 90.5439 74.887 90.5075 75.0146 90.4346C75.1468 90.3617 75.2471 90.2432 75.3154 90.0791C75.3838 89.915 75.4202 89.7031 75.4248 89.4434H77.2227C77.2227 89.9993 77.1042 90.4801 76.8672 90.8857C76.6348 91.2868 76.3203 91.5967 75.9238 91.8154C75.5319 92.0296 75.0876 92.1367 74.5908 92.1367C74.0941 92.1367 73.6611 92.057 73.292 91.8975C72.9229 91.738 72.6175 91.5055 72.376 91.2002C72.139 90.8949 71.959 90.5234 71.8359 90.0859C71.7174 89.6439 71.6582 89.138 71.6582 88.5684V88.0283C71.6582 87.4678 71.7174 86.9665 71.8359 86.5244C71.959 86.0824 72.139 85.7087 72.376 85.4033C72.6175 85.098 72.9206 84.8656 73.2852 84.7061C73.6543 84.5465 74.0872 84.4668 74.584 84.4668C75.1172 84.4668 75.5798 84.5785 75.9717 84.8018C76.3636 85.0205 76.6689 85.3441 76.8877 85.7725C77.111 86.2008 77.2227 86.7295 77.2227 87.3584H75.4248C75.4202 87.0758 75.3861 86.8411 75.3223 86.6543C75.263 86.4629 75.1696 86.3171 75.042 86.2168C74.9189 86.112 74.7549 86.0596 74.5498 86.0596C74.3356 86.0596 74.1624 86.1051 74.0303 86.1963C73.9027 86.2829 73.8047 86.4105 73.7363 86.5791C73.6725 86.7432 73.6292 86.9482 73.6064 87.1943C73.5837 87.4404 73.5723 87.7184 73.5723 88.0283V88.5684C73.5723 88.901 73.5814 89.1904 73.5996 89.4365C73.6224 89.6781 73.6657 89.8831 73.7295 90.0518C73.7979 90.2158 73.8958 90.3389 74.0234 90.4209C74.1556 90.5029 74.3333 90.5439 74.5566 90.5439ZM81.8984 90.2227V84.6035H83.8193V92H82.0146L81.8984 90.2227ZM82.1172 88.6982L82.6504 88.6846C82.6504 89.1813 82.6025 89.6416 82.5068 90.0654C82.4111 90.4847 82.2676 90.8493 82.0762 91.1592C81.8848 91.4691 81.6455 91.7106 81.3584 91.8838C81.0713 92.0524 80.7318 92.1367 80.3398 92.1367C80.0391 92.1367 79.7611 92.0866 79.5059 91.9863C79.2552 91.8815 79.0387 91.7197 78.8564 91.501C78.6742 91.2777 78.5306 90.9928 78.4258 90.6465C78.3255 90.2956 78.2754 89.874 78.2754 89.3818V84.6035H80.1963V89.4023C80.1963 89.6029 80.2145 89.776 80.251 89.9219C80.2874 90.0632 80.3376 90.1794 80.4014 90.2705C80.4652 90.3617 80.5404 90.4277 80.627 90.4688C80.7135 90.5052 80.8115 90.5234 80.9209 90.5234C81.2217 90.5234 81.4587 90.446 81.6318 90.291C81.8096 90.1315 81.9349 89.915 82.0078 89.6416C82.0807 89.3636 82.1172 89.0492 82.1172 88.6982ZM87.2236 81.5V92H85.3027V81.5H87.2236ZM92.002 90.2979V86.8799C92.002 86.6566 91.9746 86.4788 91.9199 86.3467C91.8698 86.2145 91.7923 86.1188 91.6875 86.0596C91.5872 85.9958 91.4642 85.9639 91.3184 85.9639C91.1543 85.9639 91.0176 85.998 90.9082 86.0664C90.7988 86.1348 90.7168 86.2327 90.6621 86.3604C90.612 86.488 90.5869 86.6406 90.5869 86.8184H88.666C88.666 86.4993 88.7275 86.1986 88.8506 85.916C88.9736 85.6289 89.1536 85.3783 89.3906 85.1641C89.6322 84.9453 89.9193 84.7744 90.252 84.6514C90.5846 84.5283 90.9583 84.4668 91.373 84.4668C91.8652 84.4668 92.3027 84.5511 92.6855 84.7197C93.0684 84.8838 93.3714 85.1458 93.5947 85.5059C93.818 85.8659 93.9297 86.333 93.9297 86.9072V90.2021C93.9297 90.6169 93.9502 90.9541 93.9912 91.2139C94.0368 91.4736 94.1029 91.6969 94.1895 91.8838V92H92.2617C92.1751 91.7949 92.109 91.5397 92.0635 91.2344C92.0225 90.9245 92.002 90.6123 92.002 90.2979ZM92.2344 87.4814L92.2412 88.6299H91.5371C91.3548 88.6299 91.1953 88.6595 91.0586 88.7188C90.9264 88.778 90.8148 88.8623 90.7236 88.9717C90.6325 89.0765 90.5641 89.1995 90.5186 89.3408C90.4775 89.4821 90.457 89.6325 90.457 89.792C90.457 89.9697 90.4821 90.1201 90.5322 90.2432C90.5824 90.3662 90.6576 90.4596 90.7578 90.5234C90.8581 90.5872 90.9766 90.6191 91.1133 90.6191C91.3229 90.6191 91.5052 90.5758 91.6602 90.4893C91.8151 90.4027 91.929 90.2979 92.002 90.1748C92.0794 90.0518 92.1045 89.9378 92.0771 89.833L92.5146 90.5781C92.46 90.7467 92.3848 90.9222 92.2891 91.1045C92.1979 91.2868 92.0817 91.4554 91.9404 91.6104C91.7992 91.7653 91.6237 91.8929 91.4141 91.9932C91.209 92.0889 90.9652 92.1367 90.6826 92.1367C90.2861 92.1367 89.9238 92.0456 89.5957 91.8633C89.2676 91.681 89.0078 91.4258 88.8164 91.0977C88.6296 90.7695 88.5361 90.3799 88.5361 89.9287C88.5361 89.555 88.5954 89.2178 88.7139 88.917C88.8369 88.6117 89.0192 88.3542 89.2607 88.1445C89.5023 87.9303 89.8076 87.7663 90.1768 87.6523C90.5459 87.5384 90.9788 87.4814 91.4756 87.4814H92.2344ZM97.2588 86.251V92H95.3447V84.6035H97.1494L97.2588 86.251ZM99.002 84.5488L98.9746 86.4561C98.888 86.4378 98.7832 86.4242 98.6602 86.415C98.5417 86.4059 98.4368 86.4014 98.3457 86.4014C98.1315 86.4014 97.9492 86.4355 97.7988 86.5039C97.6484 86.5677 97.5231 86.6657 97.4229 86.7979C97.3271 86.9255 97.2542 87.085 97.2041 87.2764C97.154 87.4678 97.1243 87.6842 97.1152 87.9258L96.7529 87.7891C96.7529 87.306 96.7894 86.8639 96.8623 86.4629C96.9398 86.0573 97.0537 85.7064 97.2041 85.4102C97.3545 85.1094 97.5345 84.877 97.7441 84.7129C97.9583 84.5488 98.1999 84.4668 98.4688 84.4668C98.5599 84.4668 98.6556 84.4759 98.7559 84.4941C98.8607 84.5078 98.9427 84.526 99.002 84.5488ZM102.823 92.1367C102.317 92.1367 101.868 92.0592 101.477 91.9043C101.089 91.7493 100.761 91.526 100.492 91.2344C100.223 90.9382 100.018 90.5804 99.877 90.1611C99.7357 89.7419 99.665 89.2633 99.665 88.7256V88.1172C99.665 87.5156 99.7334 86.9893 99.8701 86.5381C100.007 86.0824 100.201 85.6995 100.451 85.3896C100.702 85.0798 101.009 84.8496 101.374 84.6992C101.743 84.5443 102.16 84.4668 102.625 84.4668C103.09 84.4668 103.498 84.5443 103.849 84.6992C104.204 84.8496 104.498 85.0775 104.73 85.3828C104.963 85.6836 105.138 86.0573 105.257 86.5039C105.375 86.9505 105.435 87.4701 105.435 88.0625V88.9375H100.479V87.5908H103.555V87.4199C103.555 87.1191 103.523 86.8685 103.459 86.668C103.395 86.4629 103.295 86.3102 103.158 86.21C103.021 86.1097 102.839 86.0596 102.611 86.0596C102.42 86.0596 102.258 86.0983 102.126 86.1758C101.994 86.2533 101.889 86.374 101.812 86.5381C101.734 86.7021 101.677 86.9163 101.641 87.1807C101.604 87.4404 101.586 87.7526 101.586 88.1172V88.7256C101.586 89.0674 101.616 89.3545 101.675 89.5869C101.734 89.8148 101.821 90.0016 101.935 90.1475C102.053 90.2887 102.197 90.3913 102.365 90.4551C102.534 90.5143 102.73 90.5439 102.953 90.5439C103.29 90.5439 103.593 90.4847 103.862 90.3662C104.136 90.2432 104.368 90.0768 104.56 89.8672L105.325 91.0293C105.193 91.2025 105.011 91.3757 104.778 91.5488C104.546 91.722 104.268 91.8633 103.944 91.9727C103.621 92.082 103.247 92.1367 102.823 92.1367Z" fill="url(#paint0_linear_363_2865)"/>
<path d="M368.861 62.0469V72H366.858V62.0469H368.861ZM371.979 66.2783V67.9326H368.355V66.2783H371.979ZM372.361 62.0469V63.708H368.355V62.0469H372.361ZM376.463 70.2979V66.8799C376.463 66.6566 376.436 66.4788 376.381 66.3467C376.331 66.2145 376.253 66.1188 376.148 66.0596C376.048 65.9958 375.925 65.9639 375.779 65.9639C375.615 65.9639 375.479 65.998 375.369 66.0664C375.26 66.1348 375.178 66.2327 375.123 66.3604C375.073 66.488 375.048 66.6406 375.048 66.8184H373.127C373.127 66.4993 373.188 66.1986 373.312 65.916C373.435 65.6289 373.615 65.3783 373.852 65.1641C374.093 64.9453 374.38 64.7744 374.713 64.6514C375.046 64.5283 375.419 64.4668 375.834 64.4668C376.326 64.4668 376.764 64.5511 377.146 64.7197C377.529 64.8838 377.832 65.1458 378.056 65.5059C378.279 65.8659 378.391 66.333 378.391 66.9072V70.2021C378.391 70.6169 378.411 70.9541 378.452 71.2139C378.498 71.4736 378.564 71.6969 378.65 71.8838V72H376.723C376.636 71.7949 376.57 71.5397 376.524 71.2344C376.483 70.9245 376.463 70.6123 376.463 70.2979ZM376.695 67.4814L376.702 68.6299H375.998C375.816 68.6299 375.656 68.6595 375.52 68.7188C375.387 68.778 375.276 68.8623 375.185 68.9717C375.093 69.0765 375.025 69.1995 374.979 69.3408C374.938 69.4821 374.918 69.6325 374.918 69.792C374.918 69.9697 374.943 70.1201 374.993 70.2432C375.043 70.3662 375.118 70.4596 375.219 70.5234C375.319 70.5872 375.438 70.6191 375.574 70.6191C375.784 70.6191 375.966 70.5758 376.121 70.4893C376.276 70.4027 376.39 70.2979 376.463 70.1748C376.54 70.0518 376.565 69.9378 376.538 69.833L376.976 70.5781C376.921 70.7467 376.846 70.9222 376.75 71.1045C376.659 71.2868 376.543 71.4554 376.401 71.6104C376.26 71.7653 376.085 71.8929 375.875 71.9932C375.67 72.0889 375.426 72.1367 375.144 72.1367C374.747 72.1367 374.385 72.0456 374.057 71.8633C373.729 71.681 373.469 71.4258 373.277 71.0977C373.09 70.7695 372.997 70.3799 372.997 69.9287C372.997 69.555 373.056 69.2178 373.175 68.917C373.298 68.6117 373.48 68.3542 373.722 68.1445C373.963 67.9303 374.269 67.7663 374.638 67.6523C375.007 67.5384 375.44 67.4814 375.937 67.4814H376.695ZM382.479 70.5439C382.656 70.5439 382.809 70.5075 382.937 70.4346C383.069 70.3617 383.169 70.2432 383.237 70.0791C383.306 69.915 383.342 69.7031 383.347 69.4434H385.145C385.145 69.9993 385.026 70.4801 384.789 70.8857C384.557 71.2868 384.242 71.5967 383.846 71.8154C383.454 72.0296 383.009 72.1367 382.513 72.1367C382.016 72.1367 381.583 72.057 381.214 71.8975C380.845 71.738 380.539 71.5055 380.298 71.2002C380.061 70.8949 379.881 70.5234 379.758 70.0859C379.639 69.6439 379.58 69.138 379.58 68.5684V68.0283C379.58 67.4678 379.639 66.9665 379.758 66.5244C379.881 66.0824 380.061 65.7087 380.298 65.4033C380.539 65.098 380.842 64.8656 381.207 64.7061C381.576 64.5465 382.009 64.4668 382.506 64.4668C383.039 64.4668 383.502 64.5785 383.894 64.8018C384.285 65.0205 384.591 65.3441 384.81 65.7725C385.033 66.2008 385.145 66.7295 385.145 67.3584H383.347C383.342 67.0758 383.308 66.8411 383.244 66.6543C383.185 66.4629 383.091 66.3171 382.964 66.2168C382.841 66.112 382.677 66.0596 382.472 66.0596C382.257 66.0596 382.084 66.1051 381.952 66.1963C381.825 66.2829 381.727 66.4105 381.658 66.5791C381.594 66.7432 381.551 66.9482 381.528 67.1943C381.506 67.4404 381.494 67.7184 381.494 68.0283V68.5684C381.494 68.901 381.503 69.1904 381.521 69.4365C381.544 69.6781 381.588 69.8831 381.651 70.0518C381.72 70.2158 381.818 70.3389 381.945 70.4209C382.077 70.5029 382.255 70.5439 382.479 70.5439ZM389.472 64.6035V66.0459H385.698V64.6035H389.472ZM386.566 62.7783H388.474V69.7441C388.474 69.9492 388.494 70.1064 388.535 70.2158C388.576 70.3252 388.638 70.4027 388.72 70.4482C388.806 70.4893 388.92 70.5098 389.062 70.5098C389.157 70.5098 389.246 70.5052 389.328 70.4961C389.41 70.4824 389.472 70.4688 389.513 70.4551V71.9521C389.362 72.0114 389.203 72.057 389.034 72.0889C388.87 72.1208 388.674 72.1367 388.446 72.1367C388.063 72.1367 387.731 72.0638 387.448 71.918C387.17 71.7721 386.954 71.5397 386.799 71.2207C386.644 70.8971 386.566 70.4733 386.566 69.9492V62.7783ZM394.113 70.2227V64.6035H396.034V72H394.229L394.113 70.2227ZM394.332 68.6982L394.865 68.6846C394.865 69.1813 394.817 69.6416 394.722 70.0654C394.626 70.4847 394.482 70.8493 394.291 71.1592C394.1 71.4691 393.86 71.7106 393.573 71.8838C393.286 72.0524 392.947 72.1367 392.555 72.1367C392.254 72.1367 391.976 72.0866 391.721 71.9863C391.47 71.8815 391.254 71.7197 391.071 71.501C390.889 71.2777 390.745 70.9928 390.641 70.6465C390.54 70.2956 390.49 69.874 390.49 69.3818V64.6035H392.411V69.4023C392.411 69.6029 392.429 69.776 392.466 69.9219C392.502 70.0632 392.552 70.1794 392.616 70.2705C392.68 70.3617 392.755 70.4277 392.842 70.4688C392.928 70.5052 393.026 70.5234 393.136 70.5234C393.437 70.5234 393.674 70.446 393.847 70.291C394.024 70.1315 394.15 69.915 394.223 69.6416C394.296 69.3636 394.332 69.0492 394.332 68.6982ZM399.343 66.251V72H397.429V64.6035H399.233L399.343 66.251ZM401.086 64.5488L401.059 66.4561C400.972 66.4378 400.867 66.4242 400.744 66.415C400.626 66.4059 400.521 66.4014 400.43 66.4014C400.215 66.4014 400.033 66.4355 399.883 66.5039C399.732 66.5677 399.607 66.6657 399.507 66.7979C399.411 66.9255 399.338 67.085 399.288 67.2764C399.238 67.4678 399.208 67.6842 399.199 67.9258L398.837 67.7891C398.837 67.306 398.873 66.8639 398.946 66.4629C399.024 66.0573 399.138 65.7064 399.288 65.4102C399.438 65.1094 399.618 64.877 399.828 64.7129C400.042 64.5488 400.284 64.4668 400.553 64.4668C400.644 64.4668 400.74 64.4759 400.84 64.4941C400.945 64.5078 401.027 64.526 401.086 64.5488ZM405.119 70.2979V66.8799C405.119 66.6566 405.092 66.4788 405.037 66.3467C404.987 66.2145 404.91 66.1188 404.805 66.0596C404.704 65.9958 404.581 65.9639 404.436 65.9639C404.271 65.9639 404.135 65.998 404.025 66.0664C403.916 66.1348 403.834 66.2327 403.779 66.3604C403.729 66.488 403.704 66.6406 403.704 66.8184H401.783C401.783 66.4993 401.845 66.1986 401.968 65.916C402.091 65.6289 402.271 65.3783 402.508 65.1641C402.749 64.9453 403.036 64.7744 403.369 64.6514C403.702 64.5283 404.076 64.4668 404.49 64.4668C404.982 64.4668 405.42 64.5511 405.803 64.7197C406.186 64.8838 406.489 65.1458 406.712 65.5059C406.935 65.8659 407.047 66.333 407.047 66.9072V70.2021C407.047 70.6169 407.067 70.9541 407.108 71.2139C407.154 71.4736 407.22 71.6969 407.307 71.8838V72H405.379C405.292 71.7949 405.226 71.5397 405.181 71.2344C405.14 70.9245 405.119 70.6123 405.119 70.2979ZM405.352 67.4814L405.358 68.6299H404.654C404.472 68.6299 404.312 68.6595 404.176 68.7188C404.044 68.778 403.932 68.8623 403.841 68.9717C403.75 69.0765 403.681 69.1995 403.636 69.3408C403.595 69.4821 403.574 69.6325 403.574 69.792C403.574 69.9697 403.599 70.1201 403.649 70.2432C403.7 70.3662 403.775 70.4596 403.875 70.5234C403.975 70.5872 404.094 70.6191 404.23 70.6191C404.44 70.6191 404.622 70.5758 404.777 70.4893C404.932 70.4027 405.046 70.2979 405.119 70.1748C405.197 70.0518 405.222 69.9378 405.194 69.833L405.632 70.5781C405.577 70.7467 405.502 70.9222 405.406 71.1045C405.315 71.2868 405.199 71.4554 405.058 71.6104C404.916 71.7653 404.741 71.8929 404.531 71.9932C404.326 72.0889 404.082 72.1367 403.8 72.1367C403.403 72.1367 403.041 72.0456 402.713 71.8633C402.385 71.681 402.125 71.4258 401.934 71.0977C401.747 70.7695 401.653 70.3799 401.653 69.9287C401.653 69.555 401.713 69.2178 401.831 68.917C401.954 68.6117 402.136 68.3542 402.378 68.1445C402.619 67.9303 402.925 67.7663 403.294 67.6523C403.663 67.5384 404.096 67.4814 404.593 67.4814H405.352ZM410.376 66.251V72H408.462V64.6035H410.267L410.376 66.251ZM412.119 64.5488L412.092 66.4561C412.005 66.4378 411.9 66.4242 411.777 66.415C411.659 66.4059 411.554 66.4014 411.463 66.4014C411.249 66.4014 411.066 66.4355 410.916 66.5039C410.766 66.5677 410.64 66.6657 410.54 66.7979C410.444 66.9255 410.371 67.085 410.321 67.2764C410.271 67.4678 410.242 67.6842 410.232 67.9258L409.87 67.7891C409.87 67.306 409.907 66.8639 409.979 66.4629C410.057 66.0573 410.171 65.7064 410.321 65.4102C410.472 65.1094 410.652 64.877 410.861 64.7129C411.076 64.5488 411.317 64.4668 411.586 64.4668C411.677 64.4668 411.773 64.4759 411.873 64.4941C411.978 64.5078 412.06 64.526 412.119 64.5488ZM415.94 72.1367C415.435 72.1367 414.986 72.0592 414.594 71.9043C414.206 71.7493 413.878 71.526 413.609 71.2344C413.34 70.9382 413.135 70.5804 412.994 70.1611C412.853 69.7419 412.782 69.2633 412.782 68.7256V68.1172C412.782 67.5156 412.851 66.9893 412.987 66.5381C413.124 66.0824 413.318 65.6995 413.568 65.3896C413.819 65.0798 414.127 64.8496 414.491 64.6992C414.86 64.5443 415.277 64.4668 415.742 64.4668C416.207 64.4668 416.615 64.5443 416.966 64.6992C417.321 64.8496 417.615 65.0775 417.848 65.3828C418.08 65.6836 418.256 66.0573 418.374 66.5039C418.493 66.9505 418.552 67.4701 418.552 68.0625V68.9375H413.596V67.5908H416.672V67.4199C416.672 67.1191 416.64 66.8685 416.576 66.668C416.512 66.4629 416.412 66.3102 416.275 66.21C416.139 66.1097 415.956 66.0596 415.729 66.0596C415.537 66.0596 415.375 66.0983 415.243 66.1758C415.111 66.2533 415.006 66.374 414.929 66.5381C414.851 66.7021 414.794 66.9163 414.758 67.1807C414.721 67.4404 414.703 67.7526 414.703 68.1172V68.7256C414.703 69.0674 414.733 69.3545 414.792 69.5869C414.851 69.8148 414.938 70.0016 415.052 70.1475C415.17 70.2887 415.314 70.3913 415.482 70.4551C415.651 70.5143 415.847 70.5439 416.07 70.5439C416.408 70.5439 416.711 70.4847 416.979 70.3662C417.253 70.2432 417.485 70.0768 417.677 69.8672L418.442 71.0293C418.31 71.2025 418.128 71.3757 417.896 71.5488C417.663 71.722 417.385 71.8633 417.062 71.9727C416.738 72.082 416.364 72.1367 415.94 72.1367Z" fill="url(#paint1_linear_363_2865)"/>
<path d="M669.086 64.874L670.973 57.0469H673.133L670.248 67H668.792L669.086 64.874ZM667.473 57.0469L669.353 64.874L669.66 67H668.197L665.333 57.0469H667.473ZM676.667 67.1367C676.161 67.1367 675.712 67.0592 675.32 66.9043C674.933 66.7493 674.605 66.526 674.336 66.2344C674.067 65.9382 673.862 65.5804 673.721 65.1611C673.579 64.7419 673.509 64.2633 673.509 63.7256V63.1172C673.509 62.5156 673.577 61.9893 673.714 61.5381C673.851 61.0824 674.044 60.6995 674.295 60.3896C674.546 60.0798 674.853 59.8496 675.218 59.6992C675.587 59.5443 676.004 59.4668 676.469 59.4668C676.934 59.4668 677.341 59.5443 677.692 59.6992C678.048 59.8496 678.342 60.0775 678.574 60.3828C678.807 60.6836 678.982 61.0573 679.101 61.5039C679.219 61.9505 679.278 62.4701 679.278 63.0625V63.9375H674.322V62.5908H677.398V62.4199C677.398 62.1191 677.367 61.8685 677.303 61.668C677.239 61.4629 677.139 61.3102 677.002 61.21C676.865 61.1097 676.683 61.0596 676.455 61.0596C676.264 61.0596 676.102 61.0983 675.97 61.1758C675.838 61.2533 675.733 61.374 675.655 61.5381C675.578 61.7021 675.521 61.9163 675.484 62.1807C675.448 62.4404 675.43 62.7526 675.43 63.1172V63.7256C675.43 64.0674 675.459 64.3545 675.519 64.5869C675.578 64.8148 675.664 65.0016 675.778 65.1475C675.897 65.2887 676.04 65.3913 676.209 65.4551C676.378 65.5143 676.574 65.5439 676.797 65.5439C677.134 65.5439 677.437 65.4847 677.706 65.3662C677.979 65.2432 678.212 65.0768 678.403 64.8672L679.169 66.0293C679.037 66.2025 678.854 66.3757 678.622 66.5488C678.39 66.722 678.112 66.8633 677.788 66.9727C677.465 67.082 677.091 67.1367 676.667 67.1367ZM682.3 61.251V67H680.386V59.6035H682.19L682.3 61.251ZM684.043 59.5488L684.016 61.4561C683.929 61.4378 683.824 61.4242 683.701 61.415C683.583 61.4059 683.478 61.4014 683.387 61.4014C683.173 61.4014 682.99 61.4355 682.84 61.5039C682.689 61.5677 682.564 61.6657 682.464 61.7979C682.368 61.9255 682.295 62.085 682.245 62.2764C682.195 62.4678 682.165 62.6842 682.156 62.9258L681.794 62.7891C681.794 62.306 681.83 61.8639 681.903 61.4629C681.981 61.0573 682.095 60.7064 682.245 60.4102C682.396 60.1094 682.576 59.877 682.785 59.7129C682.999 59.5488 683.241 59.4668 683.51 59.4668C683.601 59.4668 683.697 59.4759 683.797 59.4941C683.902 59.5078 683.984 59.526 684.043 59.5488ZM687.03 59.6035V67H685.109V59.6035H687.03ZM685.021 57.6895C685.021 57.3932 685.114 57.1494 685.301 56.958C685.492 56.762 685.747 56.6641 686.066 56.6641C686.39 56.6641 686.645 56.762 686.832 56.958C687.019 57.1494 687.112 57.3932 687.112 57.6895C687.112 57.9811 687.017 58.2249 686.825 58.4209C686.638 58.6123 686.388 58.708 686.073 58.708C685.75 58.708 685.492 58.6123 685.301 58.4209C685.114 58.2249 685.021 57.9811 685.021 57.6895ZM690.858 67H688.944V59.2959C688.944 58.6579 689.056 58.1224 689.279 57.6895C689.507 57.252 689.835 56.9215 690.264 56.6982C690.697 56.4704 691.214 56.3564 691.815 56.3564C692.162 56.3564 692.49 56.3952 692.8 56.4727C693.114 56.5456 693.438 56.6413 693.771 56.7598L693.497 58.3867C693.297 58.3138 693.071 58.2454 692.82 58.1816C692.574 58.1133 692.283 58.0791 691.945 58.0791C691.576 58.0791 691.303 58.1816 691.125 58.3867C690.947 58.5918 690.858 58.8949 690.858 59.2959V67ZM692 59.6035V61.0459H688.042V59.6035H692ZM694.652 59.6035V67H692.731V59.6035H694.652ZM698.85 65.5439C699.027 65.5439 699.18 65.5075 699.308 65.4346C699.44 65.3617 699.54 65.2432 699.608 65.0791C699.677 64.915 699.713 64.7031 699.718 64.4434H701.516C701.516 64.9993 701.397 65.4801 701.16 65.8857C700.928 66.2868 700.613 66.5967 700.217 66.8154C699.825 67.0296 699.381 67.1367 698.884 67.1367C698.387 67.1367 697.954 67.057 697.585 66.8975C697.216 66.738 696.91 66.5055 696.669 66.2002C696.432 65.8949 696.252 65.5234 696.129 65.0859C696.01 64.6439 695.951 64.138 695.951 63.5684V63.0283C695.951 62.4678 696.01 61.9665 696.129 61.5244C696.252 61.0824 696.432 60.7087 696.669 60.4033C696.91 60.098 697.214 59.8656 697.578 59.7061C697.947 59.5465 698.38 59.4668 698.877 59.4668C699.41 59.4668 699.873 59.5785 700.265 59.8018C700.657 60.0205 700.962 60.3441 701.181 60.7725C701.404 61.2008 701.516 61.7295 701.516 62.3584H699.718C699.713 62.0758 699.679 61.8411 699.615 61.6543C699.556 61.4629 699.463 61.3171 699.335 61.2168C699.212 61.112 699.048 61.0596 698.843 61.0596C698.629 61.0596 698.455 61.1051 698.323 61.1963C698.196 61.2829 698.098 61.4105 698.029 61.5791C697.965 61.7432 697.922 61.9482 697.899 62.1943C697.877 62.4404 697.865 62.7184 697.865 63.0283V63.5684C697.865 63.901 697.874 64.1904 697.893 64.4365C697.915 64.6781 697.959 64.8831 698.022 65.0518C698.091 65.2158 698.189 65.3389 698.316 65.4209C698.449 65.5029 698.626 65.5439 698.85 65.5439ZM705.877 65.2979V61.8799C705.877 61.6566 705.85 61.4788 705.795 61.3467C705.745 61.2145 705.667 61.1188 705.562 61.0596C705.462 60.9958 705.339 60.9639 705.193 60.9639C705.029 60.9639 704.893 60.998 704.783 61.0664C704.674 61.1348 704.592 61.2327 704.537 61.3604C704.487 61.488 704.462 61.6406 704.462 61.8184H702.541C702.541 61.4993 702.603 61.1986 702.726 60.916C702.849 60.6289 703.029 60.3783 703.266 60.1641C703.507 59.9453 703.794 59.7744 704.127 59.6514C704.46 59.5283 704.833 59.4668 705.248 59.4668C705.74 59.4668 706.178 59.5511 706.561 59.7197C706.943 59.8838 707.246 60.1458 707.47 60.5059C707.693 60.8659 707.805 61.333 707.805 61.9072V65.2021C707.805 65.6169 707.825 65.9541 707.866 66.2139C707.912 66.4736 707.978 66.6969 708.064 66.8838V67H706.137C706.05 66.7949 705.984 66.5397 705.938 66.2344C705.897 65.9245 705.877 65.6123 705.877 65.2979ZM706.109 62.4814L706.116 63.6299H705.412C705.23 63.6299 705.07 63.6595 704.934 63.7188C704.801 63.778 704.69 63.8623 704.599 63.9717C704.507 64.0765 704.439 64.1995 704.394 64.3408C704.353 64.4821 704.332 64.6325 704.332 64.792C704.332 64.9697 704.357 65.1201 704.407 65.2432C704.457 65.3662 704.533 65.4596 704.633 65.5234C704.733 65.5872 704.852 65.6191 704.988 65.6191C705.198 65.6191 705.38 65.5758 705.535 65.4893C705.69 65.4027 705.804 65.2979 705.877 65.1748C705.954 65.0518 705.979 64.9378 705.952 64.833L706.39 65.5781C706.335 65.7467 706.26 65.9222 706.164 66.1045C706.073 66.2868 705.957 66.4554 705.815 66.6104C705.674 66.7653 705.499 66.8929 705.289 66.9932C705.084 67.0889 704.84 67.1367 704.558 67.1367C704.161 67.1367 703.799 67.0456 703.471 66.8633C703.143 66.681 702.883 66.4258 702.691 66.0977C702.505 65.7695 702.411 65.3799 702.411 64.9287C702.411 64.555 702.47 64.2178 702.589 63.917C702.712 63.6117 702.894 63.3542 703.136 63.1445C703.377 62.9303 703.683 62.7663 704.052 62.6523C704.421 62.5384 704.854 62.4814 705.351 62.4814H706.109ZM711.134 61.251V67H709.22V59.6035H711.024L711.134 61.251ZM712.877 59.5488L712.85 61.4561C712.763 61.4378 712.658 61.4242 712.535 61.415C712.417 61.4059 712.312 61.4014 712.221 61.4014C712.007 61.4014 711.824 61.4355 711.674 61.5039C711.523 61.5677 711.398 61.6657 711.298 61.7979C711.202 61.9255 711.129 62.085 711.079 62.2764C711.029 62.4678 710.999 62.6842 710.99 62.9258L710.628 62.7891C710.628 62.306 710.664 61.8639 710.737 61.4629C710.815 61.0573 710.929 60.7064 711.079 60.4102C711.229 60.1094 711.41 59.877 711.619 59.7129C711.833 59.5488 712.075 59.4668 712.344 59.4668C712.435 59.4668 712.531 59.4759 712.631 59.4941C712.736 59.5078 712.818 59.526 712.877 59.5488ZM716.698 67.1367C716.192 67.1367 715.743 67.0592 715.352 66.9043C714.964 66.7493 714.636 66.526 714.367 66.2344C714.098 65.9382 713.893 65.5804 713.752 65.1611C713.611 64.7419 713.54 64.2633 713.54 63.7256V63.1172C713.54 62.5156 713.608 61.9893 713.745 61.5381C713.882 61.0824 714.076 60.6995 714.326 60.3896C714.577 60.0798 714.884 59.8496 715.249 59.6992C715.618 59.5443 716.035 59.4668 716.5 59.4668C716.965 59.4668 717.373 59.5443 717.724 59.6992C718.079 59.8496 718.373 60.0775 718.605 60.3828C718.838 60.6836 719.013 61.0573 719.132 61.5039C719.25 61.9505 719.31 62.4701 719.31 63.0625V63.9375H714.354V62.5908H717.43V62.4199C717.43 62.1191 717.398 61.8685 717.334 61.668C717.27 61.4629 717.17 61.3102 717.033 61.21C716.896 61.1097 716.714 61.0596 716.486 61.0596C716.295 61.0596 716.133 61.0983 716.001 61.1758C715.869 61.2533 715.764 61.374 715.687 61.5381C715.609 61.7021 715.552 61.9163 715.516 62.1807C715.479 62.4404 715.461 62.7526 715.461 63.1172V63.7256C715.461 64.0674 715.491 64.3545 715.55 64.5869C715.609 64.8148 715.696 65.0016 715.81 65.1475C715.928 65.2887 716.072 65.3913 716.24 65.4551C716.409 65.5143 716.605 65.5439 716.828 65.5439C717.165 65.5439 717.468 65.4847 717.737 65.3662C718.011 65.2432 718.243 65.0768 718.435 64.8672L719.2 66.0293C719.068 66.2025 718.886 66.3757 718.653 66.5488C718.421 66.722 718.143 66.8633 717.819 66.9727C717.496 67.082 717.122 67.1367 716.698 67.1367ZM726.925 65.0039C726.925 64.8763 726.882 64.7624 726.795 64.6621C726.708 64.5618 726.572 64.4593 726.385 64.3545C726.198 64.2451 725.95 64.1243 725.64 63.9922C725.302 63.8555 725.004 63.7142 724.744 63.5684C724.484 63.4225 724.263 63.2607 724.081 63.083C723.903 62.9053 723.769 62.7025 723.678 62.4746C723.587 62.2467 723.541 61.987 723.541 61.6953C723.541 61.3809 723.598 61.0915 723.712 60.8271C723.83 60.5583 723.999 60.3236 724.218 60.123C724.437 59.918 724.703 59.7585 725.018 59.6445C725.337 59.526 725.694 59.4668 726.091 59.4668C726.647 59.4668 727.123 59.5648 727.52 59.7607C727.921 59.9521 728.228 60.221 728.442 60.5674C728.657 60.9137 728.764 61.3171 728.764 61.7773H726.85C726.85 61.6133 726.825 61.4674 726.774 61.3398C726.724 61.2077 726.642 61.1051 726.528 61.0322C726.419 60.9593 726.271 60.9229 726.084 60.9229C725.947 60.9229 725.824 60.9525 725.715 61.0117C725.61 61.071 725.526 61.1507 725.462 61.251C725.403 61.3467 725.373 61.4606 725.373 61.5928C725.373 61.693 725.394 61.7819 725.435 61.8594C725.48 61.9368 725.551 62.012 725.646 62.085C725.742 62.1579 725.87 62.2354 726.029 62.3174C726.193 62.3949 726.394 62.4814 726.631 62.5771C727.123 62.7594 727.526 62.9554 727.841 63.165C728.16 63.3747 728.397 63.6208 728.552 63.9033C728.707 64.1813 728.784 64.5254 728.784 64.9355C728.784 65.2637 728.72 65.5622 728.593 65.8311C728.47 66.0999 728.29 66.3324 728.053 66.5283C727.816 66.7243 727.531 66.8747 727.198 66.9795C726.87 67.0843 726.503 67.1367 726.098 67.1367C725.501 67.1367 724.997 67.0182 724.587 66.7812C724.177 66.5443 723.867 66.2412 723.657 65.8721C723.448 65.4984 723.343 65.111 723.343 64.71H725.161C725.17 64.9561 725.216 65.1497 725.298 65.291C725.384 65.4277 725.501 65.5234 725.646 65.5781C725.792 65.6328 725.954 65.6602 726.132 65.6602C726.31 65.6602 726.455 65.6374 726.569 65.5918C726.688 65.5417 726.777 65.4665 726.836 65.3662C726.895 65.2614 726.925 65.1406 726.925 65.0039ZM726.829 67.7109V68.1963C726.829 68.6247 726.743 69.0622 726.569 69.5088C726.401 69.9554 726.187 70.3223 725.927 70.6094L724.99 70.0693C725.122 69.8187 725.229 69.5566 725.312 69.2832C725.394 69.0098 725.435 68.6816 725.435 68.2988V67.7109H726.829ZM732.011 59.6035V67H730.09V59.6035H732.011ZM730.001 57.6895C730.001 57.3932 730.094 57.1494 730.281 56.958C730.473 56.762 730.728 56.6641 731.047 56.6641C731.37 56.6641 731.626 56.762 731.812 56.958C731.999 57.1494 732.093 57.3932 732.093 57.6895C732.093 57.9811 731.997 58.2249 731.806 58.4209C731.619 58.6123 731.368 58.708 731.054 58.708C730.73 58.708 730.473 58.6123 730.281 58.4209C730.094 58.2249 730.001 57.9811 730.001 57.6895ZM687.646 75.0254V83.8438H685.738V73.6035H687.502L687.646 75.0254ZM691.487 77.0488V77.541C691.487 78.1198 691.437 78.6325 691.337 79.0791C691.237 79.5212 691.086 79.8971 690.886 80.207C690.69 80.5124 690.444 80.7448 690.147 80.9043C689.851 81.0592 689.505 81.1367 689.108 81.1367C688.739 81.1367 688.42 81.0501 688.151 80.877C687.887 80.6992 687.664 80.4554 687.481 80.1455C687.299 79.8356 687.153 79.4733 687.044 79.0586C686.935 78.6439 686.85 78.1995 686.791 77.7256V76.96C686.846 76.4541 686.925 75.9893 687.03 75.5654C687.135 75.137 687.279 74.7656 687.461 74.4512C687.648 74.1367 687.873 73.8952 688.138 73.7266C688.407 73.5534 688.726 73.4668 689.095 73.4668C689.496 73.4668 689.844 73.5397 690.141 73.6855C690.441 73.8314 690.69 74.0524 690.886 74.3486C691.086 74.6403 691.237 75.0117 691.337 75.4629C691.437 75.9141 691.487 76.4427 691.487 77.0488ZM689.573 77.541V77.0488C689.573 76.6934 689.553 76.3903 689.512 76.1396C689.475 75.889 689.416 75.6839 689.334 75.5244C689.252 75.3649 689.145 75.2487 689.013 75.1758C688.881 75.1029 688.719 75.0664 688.527 75.0664C688.34 75.0664 688.176 75.1029 688.035 75.1758C687.898 75.2487 687.787 75.3558 687.7 75.4971C687.614 75.6338 687.548 75.8024 687.502 76.0029C687.456 76.1989 687.431 76.4222 687.427 76.6729V78.0127C687.436 78.3089 687.475 78.571 687.543 78.7988C687.616 79.0267 687.732 79.209 687.892 79.3457C688.051 79.4779 688.268 79.5439 688.541 79.5439C688.737 79.5439 688.899 79.5029 689.026 79.4209C689.159 79.3389 689.266 79.2158 689.348 79.0518C689.43 78.8877 689.487 78.6803 689.519 78.4297C689.555 78.179 689.573 77.8828 689.573 77.541ZM694.673 70.5V81H692.752V70.5H694.673ZM699.451 79.2979V75.8799C699.451 75.6566 699.424 75.4788 699.369 75.3467C699.319 75.2145 699.242 75.1188 699.137 75.0596C699.036 74.9958 698.913 74.9639 698.768 74.9639C698.604 74.9639 698.467 74.998 698.357 75.0664C698.248 75.1348 698.166 75.2327 698.111 75.3604C698.061 75.488 698.036 75.6406 698.036 75.8184H696.115C696.115 75.4993 696.177 75.1986 696.3 74.916C696.423 74.6289 696.603 74.3783 696.84 74.1641C697.081 73.9453 697.368 73.7744 697.701 73.6514C698.034 73.5283 698.408 73.4668 698.822 73.4668C699.314 73.4668 699.752 73.5511 700.135 73.7197C700.518 73.8838 700.821 74.1458 701.044 74.5059C701.267 74.8659 701.379 75.333 701.379 75.9072V79.2021C701.379 79.6169 701.399 79.9541 701.44 80.2139C701.486 80.4736 701.552 80.6969 701.639 80.8838V81H699.711C699.624 80.7949 699.558 80.5397 699.513 80.2344C699.472 79.9245 699.451 79.6123 699.451 79.2979ZM699.684 76.4814L699.69 77.6299H698.986C698.804 77.6299 698.645 77.6595 698.508 77.7188C698.376 77.778 698.264 77.8623 698.173 77.9717C698.082 78.0765 698.013 78.1995 697.968 78.3408C697.927 78.4821 697.906 78.6325 697.906 78.792C697.906 78.9697 697.931 79.1201 697.981 79.2432C698.032 79.3662 698.107 79.4596 698.207 79.5234C698.307 79.5872 698.426 79.6191 698.562 79.6191C698.772 79.6191 698.954 79.5758 699.109 79.4893C699.264 79.4027 699.378 79.2979 699.451 79.1748C699.529 79.0518 699.554 78.9378 699.526 78.833L699.964 79.5781C699.909 79.7467 699.834 79.9222 699.738 80.1045C699.647 80.2868 699.531 80.4554 699.39 80.6104C699.248 80.7653 699.073 80.8929 698.863 80.9932C698.658 81.0889 698.414 81.1367 698.132 81.1367C697.735 81.1367 697.373 81.0456 697.045 80.8633C696.717 80.681 696.457 80.4258 696.266 80.0977C696.079 79.7695 695.985 79.3799 695.985 78.9287C695.985 78.555 696.045 78.2178 696.163 77.917C696.286 77.6117 696.468 77.3542 696.71 77.1445C696.951 76.9303 697.257 76.7663 697.626 76.6523C697.995 76.5384 698.428 76.4814 698.925 76.4814H699.684ZM706.021 73.6035V75.0459H702.247V73.6035H706.021ZM703.115 71.7783H705.022V78.7441C705.022 78.9492 705.043 79.1064 705.084 79.2158C705.125 79.3252 705.187 79.4027 705.269 79.4482C705.355 79.4893 705.469 79.5098 705.61 79.5098C705.706 79.5098 705.795 79.5052 705.877 79.4961C705.959 79.4824 706.021 79.4688 706.062 79.4551V80.9521C705.911 81.0114 705.752 81.057 705.583 81.0889C705.419 81.1208 705.223 81.1367 704.995 81.1367C704.612 81.1367 704.28 81.0638 703.997 80.918C703.719 80.7721 703.503 80.5397 703.348 80.2207C703.193 79.8971 703.115 79.4733 703.115 78.9492V71.7783ZM710.348 79.2979V75.8799C710.348 75.6566 710.32 75.4788 710.266 75.3467C710.215 75.2145 710.138 75.1188 710.033 75.0596C709.933 74.9958 709.81 74.9639 709.664 74.9639C709.5 74.9639 709.363 74.998 709.254 75.0664C709.145 75.1348 709.062 75.2327 709.008 75.3604C708.958 75.488 708.933 75.6406 708.933 75.8184H707.012C707.012 75.4993 707.073 75.1986 707.196 74.916C707.319 74.6289 707.499 74.3783 707.736 74.1641C707.978 73.9453 708.265 73.7744 708.598 73.6514C708.93 73.5283 709.304 73.4668 709.719 73.4668C710.211 73.4668 710.648 73.5511 711.031 73.7197C711.414 73.8838 711.717 74.1458 711.94 74.5059C712.164 74.8659 712.275 75.333 712.275 75.9072V79.2021C712.275 79.6169 712.296 79.9541 712.337 80.2139C712.382 80.4736 712.449 80.6969 712.535 80.8838V81H710.607C710.521 80.7949 710.455 80.5397 710.409 80.2344C710.368 79.9245 710.348 79.6123 710.348 79.2979ZM710.58 76.4814L710.587 77.6299H709.883C709.701 77.6299 709.541 77.6595 709.404 77.7188C709.272 77.778 709.16 77.8623 709.069 77.9717C708.978 78.0765 708.91 78.1995 708.864 78.3408C708.823 78.4821 708.803 78.6325 708.803 78.792C708.803 78.9697 708.828 79.1201 708.878 79.2432C708.928 79.3662 709.003 79.4596 709.104 79.5234C709.204 79.5872 709.322 79.6191 709.459 79.6191C709.669 79.6191 709.851 79.5758 710.006 79.4893C710.161 79.4027 710.275 79.2979 710.348 79.1748C710.425 79.0518 710.45 78.9378 710.423 78.833L710.86 79.5781C710.806 79.7467 710.73 79.9222 710.635 80.1045C710.544 80.2868 710.427 80.4554 710.286 80.6104C710.145 80.7653 709.969 80.8929 709.76 80.9932C709.555 81.0889 709.311 81.1367 709.028 81.1367C708.632 81.1367 708.27 81.0456 707.941 80.8633C707.613 80.681 707.354 80.4258 707.162 80.0977C706.975 79.7695 706.882 79.3799 706.882 78.9287C706.882 78.555 706.941 78.2178 707.06 77.917C707.183 77.6117 707.365 77.3542 707.606 77.1445C707.848 76.9303 708.153 76.7663 708.522 76.6523C708.892 76.5384 709.325 76.4814 709.821 76.4814H710.58ZM710.614 70.5615H712.022C712.022 70.9626 711.924 71.3158 711.729 71.6211C711.537 71.9219 711.264 72.1589 710.908 72.332C710.557 72.5052 710.14 72.5918 709.657 72.5918C708.928 72.5918 708.352 72.4027 707.928 72.0244C707.504 71.6462 707.292 71.1585 707.292 70.5615H708.687C708.687 70.7985 708.759 71.0081 708.905 71.1904C709.051 71.3727 709.302 71.4639 709.657 71.4639C710.008 71.4639 710.254 71.3727 710.396 71.1904C710.541 71.0081 710.614 70.7985 710.614 70.5615Z" fill="url(#paint2_linear_363_2865)"/>
<path fill-rule="evenodd" clip-rule="evenodd" d="M376 33H83V31H376V33Z" fill="url(#paint3_linear_363_2865)"/>
<path fill-rule="evenodd" clip-rule="evenodd" d="M685 33H404V31H685V33Z" fill="url(#paint4_linear_363_2865)"/>
<g filter="url(#filter0_d_363_2865)">
<path d="M69 17C60.7125 17 54 23.7125 54 32C54 34.8125 54.7875 37.475 56.175 39.725C57.497 41.9468 59.3748 43.7861 61.6236 45.0617C63.8724 46.3373 66.4146 47.0053 69 47C74.475 47 79.2375 44.075 81.825 39.725C83.2125 37.475 84 34.8125 84 32C84 23.7125 77.2875 17 69 17ZM76.3875 30.7625L68.4 38.15C67.875 38.6375 67.1625 38.9 66.4875 38.9C65.775 38.9 65.0625 38.6375 64.5 38.075L60.7875 34.3625C60.2644 33.8332 59.9711 33.1191 59.9711 32.375C59.9711 31.6309 60.2644 30.9168 60.7875 30.3875C61.875 29.3 63.675 29.3 64.7625 30.3875L66.5625 32.1875L72.5625 26.6375C73.6875 25.5875 75.4875 25.6625 76.5375 26.7875C77.5875 27.9125 77.5125 29.7125 76.3875 30.7625Z" fill="url(#paint5_linear_363_2865)"/>
</g>
<g filter="url(#filter1_d_363_2865)">
<path d="M390 17C381.712 17 375 23.7125 375 32C375 34.8125 375.788 37.475 377.175 39.725C378.497 41.9468 380.375 43.7861 382.624 45.0617C384.872 46.3373 387.415 47.0053 390 47C395.475 47 400.238 44.075 402.825 39.725C404.213 37.475 405 34.8125 405 32C405 23.7125 398.288 17 390 17ZM397.387 30.7625L389.4 38.15C388.875 38.6375 388.162 38.9 387.487 38.9C386.775 38.9 386.062 38.6375 385.5 38.075L381.787 34.3625C381.264 33.8332 380.971 33.1191 380.971 32.375C380.971 31.6309 381.264 30.9168 381.787 30.3875C382.875 29.3 384.675 29.3 385.762 30.3875L387.562 32.1875L393.562 26.6375C394.687 25.5875 396.488 25.6625 397.538 26.7875C398.588 27.9125 398.512 29.7125 397.387 30.7625Z" fill="url(#paint6_linear_363_2865)"/>
</g>
<g filter="url(#filter2_d_363_2865)">
<path d="M697 17C688.712 17 682 23.7125 682 32C682 34.8125 682.788 37.475 684.175 39.725C685.497 41.9468 687.375 43.7861 689.624 45.0617C691.872 46.3373 694.415 47.0053 697 47C702.475 47 707.238 44.075 709.825 39.725C711.213 37.475 712 34.8125 712 32C712 23.7125 705.288 17 697 17ZM704.387 30.7625L696.4 38.15C695.875 38.6375 695.162 38.9 694.487 38.9C693.775 38.9 693.062 38.6375 692.5 38.075L688.787 34.3625C688.264 33.8332 687.971 33.1191 687.971 32.375C687.971 31.6309 688.264 30.9168 688.787 30.3875C689.875 29.3 691.675 29.3 692.762 30.3875L694.562 32.1875L700.562 26.6375C701.687 25.5875 703.488 25.6625 704.538 26.7875C705.588 27.9125 705.512 29.7125 704.387 30.7625Z" fill="url(#paint7_linear_363_2865)"/>
</g>
<defs>
<filter id="filter0_d_363_2865" x="37" y="0" width="74" height="74" filterUnits="userSpaceOnUse" color-interpolation-filters="sRGB">
<feFlood flood-opacity="0" result="BackgroundImageFix"/>
<feColorMatrix in="SourceAlpha" type="matrix" values="0 0 0 0 0 0 0 0 0 0 0 0 0 0 0 0 0 0 127 0" result="hardAlpha"/>
<feOffset dx="5" dy="5"/>
<feGaussianBlur stdDeviation="11"/>
<feComposite in2="hardAlpha" operator="out"/>
<feColorMatrix type="matrix" values="0 0 0 0 0.0392157 0 0 0 0 0.560784 0 0 0 0 0.309804 0 0 0 0.2 0"/>
<feBlend mode="normal" in2="BackgroundImageFix" result="effect1_dropShadow_363_2865"/>
<feBlend mode="normal" in="SourceGraphic" in2="effect1_dropShadow_363_2865" result="shape"/>
</filter>
<filter id="filter1_d_363_2865" x="358" y="0" width="74" height="74" filterUnits="userSpaceOnUse" color-interpolation-filters="sRGB">
<feFlood flood-opacity="0" result="BackgroundImageFix"/>
<feColorMatrix in="SourceAlpha" type="matrix" values="0 0 0 0 0 0 0 0 0 0 0 0 0 0 0 0 0 0 127 0" result="hardAlpha"/>
<feOffset dx="5" dy="5"/>
<feGaussianBlur stdDeviation="11"/>
<feComposite in2="hardAlpha" operator="out"/>
<feColorMatrix type="matrix" values="0 0 0 0 0.0392157 0 0 0 0 0.560784 0 0 0 0 0.309804 0 0 0 0.2 0"/>
<feBlend mode="normal" in2="BackgroundImageFix" result="effect1_dropShadow_363_2865"/>
<feBlend mode="normal" in="SourceGraphic" in2="effect1_dropShadow_363_2865" result="shape"/>
</filter>
<filter id="filter2_d_363_2865" x="665" y="0" width="74" height="74" filterUnits="userSpaceOnUse" color-interpolation-filters="sRGB">
<feFlood flood-opacity="0" result="BackgroundImageFix"/>
<feColorMatrix in="SourceAlpha" type="matrix" values="0 0 0 0 0 0 0 0 0 0 0 0 0 0 0 0 0 0 127 0" result="hardAlpha"/>
<feOffset dx="5" dy="5"/>
<feGaussianBlur stdDeviation="11"/>
<feComposite in2="hardAlpha" operator="out"/>
<feColorMatrix type="matrix" values="0 0 0 0 0.0392157 0 0 0 0 0.560784 0 0 0 0 0.309804 0 0 0 0.2 0"/>
<feBlend mode="normal" in2="BackgroundImageFix" result="effect1_dropShadow_363_2865"/>
<feBlend mode="normal" in="SourceGraphic" in2="effect1_dropShadow_363_2865" result="shape"/>
</filter>
<linearGradient id="paint0_linear_363_2865" x1="68.5" y1="97" x2="68.5" y2="57" gradientUnits="userSpaceOnUse">
<stop stop-color="#5CCC94"/>
<stop offset="1" stop-color="#8CCAAE"/>
</linearGradient>
<linearGradient id="paint1_linear_363_2865" x1="392.5" y1="77" x2="392.5" y2="57" gradientUnits="userSpaceOnUse">
<stop stop-color="#5CCC94"/>
<stop offset="1" stop-color="#8CCAAE"/>
</linearGradient>
<linearGradient id="paint2_linear_363_2865" x1="699" y1="83" x2="699" y2="55" gradientUnits="userSpaceOnUse">
<stop stop-color="#5CCC94"/>
<stop offset="1" stop-color="#8CCAAE"/>
</linearGradient>
<linearGradient id="paint3_linear_363_2865" x1="229.5" y1="33" x2="229.5" y2="31" gradientUnits="userSpaceOnUse">
<stop stop-color="#5CCC94"/>
<stop offset="1" stop-color="#8CCAAE"/>
</linearGradient>
<linearGradient id="paint4_linear_363_2865" x1="544.5" y1="33" x2="544.5" y2="31" gradientUnits="userSpaceOnUse">
<stop stop-color="#5CCC94"/>
<stop offset="1" stop-color="#8CCAAE"/>
</linearGradient>
<linearGradient id="paint5_linear_363_2865" x1="69" y1="47" x2="69" y2="17" gradientUnits="userSpaceOnUse">
<stop stop-color="#5CCC94"/>
<stop offset="1" stop-color="#8CCAAE"/>
</linearGradient>
<linearGradient id="paint6_linear_363_2865" x1="390" y1="47" x2="390" y2="17" gradientUnits="userSpaceOnUse">
<stop stop-color="#5CCC94"/>
<stop offset="1" stop-color="#8CCAAE"/>
</linearGradient>
<linearGradient id="paint7_linear_363_2865" x1="697" y1="47" x2="697" y2="17" gradientUnits="userSpaceOnUse">
<stop stop-color="#5CCC94"/>
<stop offset="1" stop-color="#8CCAAE"/>
</linearGradient>
</defs>
</svg>
