<svg width="1013" height="86" viewBox="0 0 1013 86" fill="none" xmlns="http://www.w3.org/2000/svg">
<path d="M22.5322 59.0469V69H20.543V59.0469H22.5322ZM25.0068 59.0469V60.708H18.1162V59.0469H25.0068ZM28.083 61.6035V69H26.1621V61.6035H28.083ZM26.0732 59.6895C26.0732 59.3932 26.1667 59.1494 26.3535 58.958C26.5449 58.762 26.8001 58.6641 27.1191 58.6641C27.4427 58.6641 27.6979 58.762 27.8848 58.958C28.0716 59.1494 28.165 59.3932 28.165 59.6895C28.165 59.9811 28.0693 60.2249 27.8779 60.4209C27.6911 60.6123 27.4404 60.708 27.126 60.708C26.8024 60.708 26.5449 60.6123 26.3535 60.4209C26.1667 60.2249 26.0732 59.9811 26.0732 59.6895ZM31.5146 63.0254V71.8438H29.6074V61.6035H31.3711L31.5146 63.0254ZM35.3564 65.0488V65.541C35.3564 66.1198 35.3063 66.6325 35.2061 67.0791C35.1058 67.5212 34.9554 67.8971 34.7549 68.207C34.5589 68.5124 34.3128 68.7448 34.0166 68.9043C33.7204 69.0592 33.374 69.1367 32.9775 69.1367C32.6084 69.1367 32.2894 69.0501 32.0205 68.877C31.7562 68.6992 31.5329 68.4554 31.3506 68.1455C31.1683 67.8356 31.0225 67.4733 30.9131 67.0586C30.8037 66.6439 30.7194 66.1995 30.6602 65.7256V64.96C30.7148 64.4541 30.7946 63.9893 30.8994 63.5654C31.0042 63.137 31.1478 62.7656 31.3301 62.4512C31.5169 62.1367 31.7425 61.8952 32.0068 61.7266C32.2757 61.5534 32.5947 61.4668 32.9639 61.4668C33.3649 61.4668 33.7135 61.5397 34.0098 61.6855C34.3105 61.8314 34.5589 62.0524 34.7549 62.3486C34.9554 62.6403 35.1058 63.0117 35.2061 63.4629C35.3063 63.9141 35.3564 64.4427 35.3564 65.0488ZM33.4424 65.541V65.0488C33.4424 64.6934 33.4219 64.3903 33.3809 64.1396C33.3444 63.889 33.2852 63.6839 33.2031 63.5244C33.1211 63.3649 33.014 63.2487 32.8818 63.1758C32.7497 63.1029 32.5879 63.0664 32.3965 63.0664C32.2096 63.0664 32.0456 63.1029 31.9043 63.1758C31.7676 63.2487 31.6559 63.3558 31.5693 63.4971C31.4827 63.6338 31.4167 63.8024 31.3711 64.0029C31.3255 64.1989 31.3005 64.4222 31.2959 64.6729V66.0127C31.305 66.3089 31.3438 66.571 31.4121 66.7988C31.485 67.0267 31.6012 67.209 31.7607 67.3457C31.9202 67.4779 32.1367 67.5439 32.4102 67.5439C32.6061 67.5439 32.7679 67.5029 32.8955 67.4209C33.0277 67.3389 33.1348 67.2158 33.2168 67.0518C33.2988 66.8877 33.3558 66.6803 33.3877 66.4297C33.4242 66.179 33.4424 65.8828 33.4424 65.541ZM40.1074 67.2227V61.6035H42.0283V69H40.2236L40.1074 67.2227ZM40.3262 65.6982L40.8594 65.6846C40.8594 66.1813 40.8115 66.6416 40.7158 67.0654C40.6201 67.4847 40.4766 67.8493 40.2852 68.1592C40.0938 68.4691 39.8545 68.7106 39.5674 68.8838C39.2803 69.0524 38.9408 69.1367 38.5488 69.1367C38.248 69.1367 37.9701 69.0866 37.7148 68.9863C37.4642 68.8815 37.2477 68.7197 37.0654 68.501C36.8831 68.2777 36.7396 67.9928 36.6348 67.6465C36.5345 67.2956 36.4844 66.874 36.4844 66.3818V61.6035H38.4053V66.4023C38.4053 66.6029 38.4235 66.776 38.46 66.9219C38.4964 67.0632 38.5465 67.1794 38.6104 67.2705C38.6742 67.3617 38.7493 67.4277 38.8359 67.4688C38.9225 67.5052 39.0205 67.5234 39.1299 67.5234C39.4307 67.5234 39.6676 67.446 39.8408 67.291C40.0186 67.1315 40.1439 66.915 40.2168 66.6416C40.2897 66.3636 40.3262 66.0492 40.3262 65.6982ZM45.4326 58.5V69H43.5117V58.5H45.4326ZM14.165 81.5234L15.3545 75.6035H17.3506L15.3203 83H14.124L14.165 81.5234ZM13.4609 75.6035L14.6709 81.5303L14.6914 83H13.4883L11.458 75.6035H13.4609ZM20.2832 75.6035V83H18.3623V75.6035H20.2832ZM18.2734 73.6895C18.2734 73.3932 18.3669 73.1494 18.5537 72.958C18.7451 72.762 19.0003 72.6641 19.3193 72.6641C19.6429 72.6641 19.8981 72.762 20.085 72.958C20.2718 73.1494 20.3652 73.3932 20.3652 73.6895C20.3652 73.9811 20.2695 74.2249 20.0781 74.4209C19.8913 74.6123 19.6406 74.708 19.3262 74.708C19.0026 74.708 18.7451 74.6123 18.5537 74.4209C18.3669 74.2249 18.2734 73.9811 18.2734 73.6895ZM23.6807 77.1826V83H21.7598V75.6035H23.5576L23.6807 77.1826ZM23.3936 79.0488L22.8809 79.0625C22.8717 78.5065 22.9242 78.0075 23.0381 77.5654C23.1566 77.1234 23.3229 76.7474 23.5371 76.4375C23.7559 76.123 24.0156 75.8838 24.3164 75.7197C24.6217 75.5511 24.9613 75.4668 25.335 75.4668C25.6221 75.4668 25.8841 75.5169 26.1211 75.6172C26.3626 75.7174 26.57 75.877 26.7432 76.0957C26.9163 76.3145 27.0508 76.6061 27.1465 76.9707C27.2422 77.3307 27.29 77.7728 27.29 78.2969V83H25.3691V78.2832C25.3691 77.9642 25.3372 77.7181 25.2734 77.5449C25.2096 77.3672 25.1139 77.2441 24.9863 77.1758C24.8587 77.1029 24.6992 77.0664 24.5078 77.0664C24.3255 77.0664 24.1637 77.1188 24.0225 77.2236C23.8812 77.3239 23.7627 77.4629 23.667 77.6406C23.5758 77.8184 23.5052 78.028 23.4551 78.2695C23.4095 78.5111 23.389 78.7708 23.3936 79.0488ZM30.7012 75.6035V83H28.7803V75.6035H30.7012ZM28.6914 73.6895C28.6914 73.3932 28.7848 73.1494 28.9717 72.958C29.1631 72.762 29.4183 72.6641 29.7373 72.6641C30.0609 72.6641 30.3161 72.762 30.5029 72.958C30.6898 73.1494 30.7832 73.3932 30.7832 73.6895C30.7832 73.9811 30.6875 74.2249 30.4961 74.4209C30.3092 74.6123 30.0586 74.708 29.7441 74.708C29.4206 74.708 29.1631 74.6123 28.9717 74.4209C28.7848 74.2249 28.6914 73.9811 28.6914 73.6895ZM35.1992 83.1367C34.6934 83.1367 34.2445 83.0592 33.8525 82.9043C33.4652 82.7493 33.137 82.526 32.8682 82.2344C32.5993 81.9382 32.3942 81.5804 32.2529 81.1611C32.1117 80.7419 32.041 80.2633 32.041 79.7256V79.1172C32.041 78.5156 32.1094 77.9893 32.2461 77.5381C32.3828 77.0824 32.5765 76.6995 32.8271 76.3896C33.0778 76.0798 33.3854 75.8496 33.75 75.6992C34.1191 75.5443 34.5361 75.4668 35.001 75.4668C35.4658 75.4668 35.8737 75.5443 36.2246 75.6992C36.5801 75.8496 36.874 76.0775 37.1064 76.3828C37.3389 76.6836 37.5143 77.0573 37.6328 77.5039C37.7513 77.9505 37.8105 78.4701 37.8105 79.0625V79.9375H32.8545V78.5908H35.9307V78.4199C35.9307 78.1191 35.8988 77.8685 35.835 77.668C35.7712 77.4629 35.6709 77.3102 35.5342 77.21C35.3975 77.1097 35.2152 77.0596 34.9873 77.0596C34.7959 77.0596 34.6341 77.0983 34.502 77.1758C34.3698 77.2533 34.265 77.374 34.1875 77.5381C34.11 77.7021 34.0531 77.9163 34.0166 78.1807C33.9801 78.4404 33.9619 78.7526 33.9619 79.1172V79.7256C33.9619 80.0674 33.9915 80.3545 34.0508 80.5869C34.11 80.8148 34.1966 81.0016 34.3105 81.1475C34.429 81.2887 34.5726 81.3913 34.7412 81.4551C34.9098 81.5143 35.1058 81.5439 35.3291 81.5439C35.6663 81.5439 35.9694 81.4847 36.2383 81.3662C36.5117 81.2432 36.7441 81.0768 36.9355 80.8672L37.7012 82.0293C37.569 82.2025 37.3867 82.3757 37.1543 82.5488C36.9219 82.722 36.6439 82.8633 36.3203 82.9727C35.9967 83.082 35.623 83.1367 35.1992 83.1367ZM42.1445 75.6035V77.0459H38.3711V75.6035H42.1445ZM39.2393 73.7783H41.1465V80.7441C41.1465 80.9492 41.167 81.1064 41.208 81.2158C41.249 81.3252 41.3105 81.4027 41.3926 81.4482C41.4792 81.4893 41.5931 81.5098 41.7344 81.5098C41.8301 81.5098 41.9189 81.5052 42.001 81.4961C42.083 81.4824 42.1445 81.4688 42.1855 81.4551V82.9521C42.0352 83.0114 41.8757 83.057 41.707 83.0889C41.543 83.1208 41.347 83.1367 41.1191 83.1367C40.7363 83.1367 40.4036 83.0638 40.1211 82.918C39.8431 82.7721 39.6266 82.5397 39.4717 82.2207C39.3167 81.8971 39.2393 81.4733 39.2393 80.9492V73.7783ZM46.1914 83.1367C45.6855 83.1367 45.2367 83.0592 44.8447 82.9043C44.4574 82.7493 44.1292 82.526 43.8604 82.2344C43.5915 81.9382 43.3864 81.5804 43.2451 81.1611C43.1038 80.7419 43.0332 80.2633 43.0332 79.7256V79.1172C43.0332 78.5156 43.1016 77.9893 43.2383 77.5381C43.375 77.0824 43.5687 76.6995 43.8193 76.3896C44.07 76.0798 44.3776 75.8496 44.7422 75.6992C45.1113 75.5443 45.5283 75.4668 45.9932 75.4668C46.458 75.4668 46.8659 75.5443 47.2168 75.6992C47.5723 75.8496 47.8662 76.0775 48.0986 76.3828C48.3311 76.6836 48.5065 77.0573 48.625 77.5039C48.7435 77.9505 48.8027 78.4701 48.8027 79.0625V79.9375H43.8467V78.5908H46.9229V78.4199C46.9229 78.1191 46.891 77.8685 46.8271 77.668C46.7633 77.4629 46.6631 77.3102 46.5264 77.21C46.3896 77.1097 46.2074 77.0596 45.9795 77.0596C45.7881 77.0596 45.6263 77.0983 45.4941 77.1758C45.362 77.2533 45.2572 77.374 45.1797 77.5381C45.1022 77.7021 45.0452 77.9163 45.0088 78.1807C44.9723 78.4404 44.9541 78.7526 44.9541 79.1172V79.7256C44.9541 80.0674 44.9837 80.3545 45.043 80.5869C45.1022 80.8148 45.1888 81.0016 45.3027 81.1475C45.4212 81.2887 45.5648 81.3913 45.7334 81.4551C45.902 81.5143 46.098 81.5439 46.3213 81.5439C46.6585 81.5439 46.9616 81.4847 47.2305 81.3662C47.5039 81.2432 47.7363 81.0768 47.9277 80.8672L48.6934 82.0293C48.5612 82.2025 48.3789 82.3757 48.1465 82.5488C47.9141 82.722 47.6361 82.8633 47.3125 82.9727C46.9889 83.082 46.6152 83.1367 46.1914 83.1367ZM51.9199 75.6035V83H49.999V75.6035H51.9199ZM49.9102 73.6895C49.9102 73.3932 50.0036 73.1494 50.1904 72.958C50.3818 72.762 50.637 72.6641 50.9561 72.6641C51.2796 72.6641 51.5348 72.762 51.7217 72.958C51.9085 73.1494 52.002 73.3932 52.002 73.6895C52.002 73.9811 51.9062 74.2249 51.7148 74.4209C51.528 74.6123 51.2773 74.708 50.9629 74.708C50.6393 74.708 50.3818 74.6123 50.1904 74.4209C50.0036 74.2249 49.9102 73.9811 49.9102 73.6895Z" fill="url(#paint0_linear_1405_1438)"/>
<path d="M290.84 62.0469V72H288.905L285.781 65.7725V72H283.881V62.0469H285.788L288.939 68.3428V62.0469H290.84ZM295.933 70.2227V64.6035H297.854V72H296.049L295.933 70.2227ZM296.151 68.6982L296.685 68.6846C296.685 69.1813 296.637 69.6416 296.541 70.0654C296.445 70.4847 296.302 70.8493 296.11 71.1592C295.919 71.4691 295.68 71.7106 295.393 71.8838C295.105 72.0524 294.766 72.1367 294.374 72.1367C294.073 72.1367 293.795 72.0866 293.54 71.9863C293.289 71.8815 293.073 71.7197 292.891 71.501C292.708 71.2777 292.565 70.9928 292.46 70.6465C292.36 70.2956 292.31 69.874 292.31 69.3818V64.6035H294.23V69.4023C294.23 69.6029 294.249 69.776 294.285 69.9219C294.322 70.0632 294.372 70.1794 294.436 70.2705C294.499 70.3617 294.575 70.4277 294.661 70.4688C294.748 70.5052 294.846 70.5234 294.955 70.5234C295.256 70.5234 295.493 70.446 295.666 70.291C295.844 70.1315 295.969 69.915 296.042 69.6416C296.115 69.3636 296.151 69.0492 296.151 68.6982ZM301.176 66.1348V72H299.255V64.6035H301.06L301.176 66.1348ZM300.902 68.0488L300.376 68.0625C300.367 67.543 300.412 67.0645 300.513 66.627C300.613 66.1895 300.763 65.8089 300.964 65.4854C301.169 65.1618 301.426 64.9111 301.736 64.7334C302.046 64.5557 302.409 64.4668 302.823 64.4668C303.092 64.4668 303.34 64.5169 303.568 64.6172C303.796 64.7129 303.994 64.8656 304.163 65.0752C304.332 65.2803 304.462 65.5492 304.553 65.8818C304.644 66.21 304.689 66.6042 304.689 67.0645V72H302.775V67.2969C302.775 66.9688 302.743 66.7181 302.68 66.5449C302.616 66.3672 302.525 66.2441 302.406 66.1758C302.288 66.1029 302.142 66.0664 301.969 66.0664C301.786 66.0664 301.627 66.1165 301.49 66.2168C301.354 66.3171 301.242 66.4583 301.155 66.6406C301.073 66.8184 301.009 67.028 300.964 67.2695C300.923 67.5111 300.902 67.7708 300.902 68.0488ZM304.505 67.8574L303.814 67.9463C303.805 67.4587 303.849 67.0052 303.944 66.5859C304.04 66.1621 304.188 65.793 304.389 65.4785C304.589 65.1595 304.84 64.9111 305.141 64.7334C305.446 64.5557 305.799 64.4668 306.2 64.4668C306.501 64.4668 306.774 64.5169 307.021 64.6172C307.267 64.7174 307.476 64.8792 307.649 65.1025C307.827 65.3213 307.962 65.6107 308.053 65.9707C308.148 66.3307 308.196 66.7682 308.196 67.2832V72H306.275V67.29C306.275 66.9574 306.243 66.7021 306.18 66.5244C306.116 66.3467 306.025 66.2259 305.906 66.1621C305.788 66.0983 305.646 66.0664 305.482 66.0664C305.318 66.0664 305.175 66.112 305.052 66.2031C304.933 66.2943 304.833 66.4219 304.751 66.5859C304.669 66.7454 304.607 66.9346 304.566 67.1533C304.525 67.3675 304.505 67.6022 304.505 67.8574ZM312.899 70.2979V66.8799C312.899 66.6566 312.872 66.4788 312.817 66.3467C312.767 66.2145 312.69 66.1188 312.585 66.0596C312.485 65.9958 312.362 65.9639 312.216 65.9639C312.052 65.9639 311.915 65.998 311.806 66.0664C311.696 66.1348 311.614 66.2327 311.56 66.3604C311.509 66.488 311.484 66.6406 311.484 66.8184H309.563C309.563 66.4993 309.625 66.1986 309.748 65.916C309.871 65.6289 310.051 65.3783 310.288 65.1641C310.53 64.9453 310.817 64.7744 311.149 64.6514C311.482 64.5283 311.856 64.4668 312.271 64.4668C312.763 64.4668 313.2 64.5511 313.583 64.7197C313.966 64.8838 314.269 65.1458 314.492 65.5059C314.715 65.8659 314.827 66.333 314.827 66.9072V70.2021C314.827 70.6169 314.848 70.9541 314.889 71.2139C314.934 71.4736 315 71.6969 315.087 71.8838V72H313.159C313.073 71.7949 313.007 71.5397 312.961 71.2344C312.92 70.9245 312.899 70.6123 312.899 70.2979ZM313.132 67.4814L313.139 68.6299H312.435C312.252 68.6299 312.093 68.6595 311.956 68.7188C311.824 68.778 311.712 68.8623 311.621 68.9717C311.53 69.0765 311.462 69.1995 311.416 69.3408C311.375 69.4821 311.354 69.6325 311.354 69.792C311.354 69.9697 311.38 70.1201 311.43 70.2432C311.48 70.3662 311.555 70.4596 311.655 70.5234C311.756 70.5872 311.874 70.6191 312.011 70.6191C312.22 70.6191 312.403 70.5758 312.558 70.4893C312.713 70.4027 312.826 70.2979 312.899 70.1748C312.977 70.0518 313.002 69.9378 312.975 69.833L313.412 70.5781C313.357 70.7467 313.282 70.9222 313.187 71.1045C313.095 71.2868 312.979 71.4554 312.838 71.6104C312.697 71.7653 312.521 71.8929 312.312 71.9932C312.106 72.0889 311.863 72.1367 311.58 72.1367C311.184 72.1367 310.821 72.0456 310.493 71.8633C310.165 71.681 309.905 71.4258 309.714 71.0977C309.527 70.7695 309.434 70.3799 309.434 69.9287C309.434 69.555 309.493 69.2178 309.611 68.917C309.734 68.6117 309.917 68.3542 310.158 68.1445C310.4 67.9303 310.705 67.7663 311.074 67.6523C311.443 67.5384 311.876 67.4814 312.373 67.4814H313.132ZM313.166 61.5615H314.574C314.574 61.9626 314.476 62.3158 314.28 62.6211C314.089 62.9219 313.815 63.1589 313.46 63.332C313.109 63.5052 312.692 63.5918 312.209 63.5918C311.48 63.5918 310.903 63.4027 310.479 63.0244C310.056 62.6462 309.844 62.1585 309.844 61.5615H311.238C311.238 61.7985 311.311 62.0081 311.457 62.1904C311.603 62.3727 311.854 62.4639 312.209 62.4639C312.56 62.4639 312.806 62.3727 312.947 62.1904C313.093 62.0081 313.166 61.7985 313.166 61.5615ZM318.156 66.251V72H316.242V64.6035H318.047L318.156 66.251ZM319.899 64.5488L319.872 66.4561C319.785 66.4378 319.681 66.4242 319.558 66.415C319.439 66.4059 319.334 66.4014 319.243 66.4014C319.029 66.4014 318.847 66.4355 318.696 66.5039C318.546 66.5677 318.421 66.6657 318.32 66.7979C318.225 66.9255 318.152 67.085 318.102 67.2764C318.051 67.4678 318.022 67.6842 318.013 67.9258L317.65 67.7891C317.65 67.306 317.687 66.8639 317.76 66.4629C317.837 66.0573 317.951 65.7064 318.102 65.4102C318.252 65.1094 318.432 64.877 318.642 64.7129C318.856 64.5488 319.097 64.4668 319.366 64.4668C319.457 64.4668 319.553 64.4759 319.653 64.4941C319.758 64.5078 319.84 64.526 319.899 64.5488ZM327.686 70.3662V61.5H329.606V72L327.87 72.0068L327.686 70.3662ZM323.851 68.5615V68.0693C323.851 67.4678 323.901 66.9414 324.001 66.4902C324.106 66.0391 324.261 65.6631 324.466 65.3623C324.671 65.0615 324.922 64.8382 325.218 64.6924C325.519 64.542 325.863 64.4668 326.25 64.4668C326.601 64.4668 326.909 64.5557 327.173 64.7334C327.442 64.9066 327.67 65.1504 327.856 65.4648C328.043 65.7793 328.194 66.1507 328.308 66.5791C328.422 67.0075 328.501 67.4769 328.547 67.9873V68.6982C328.492 69.1813 328.408 69.6325 328.294 70.0518C328.185 70.471 328.034 70.8356 327.843 71.1455C327.656 71.4554 327.43 71.6992 327.166 71.877C326.902 72.0501 326.594 72.1367 326.243 72.1367C325.856 72.1367 325.512 72.0592 325.211 71.9043C324.915 71.7493 324.664 71.5215 324.459 71.2207C324.258 70.9154 324.106 70.5417 324.001 70.0996C323.901 69.653 323.851 69.1403 323.851 68.5615ZM325.765 68.0693V68.5615C325.765 68.9079 325.781 69.2064 325.812 69.457C325.849 69.7031 325.906 69.9059 325.983 70.0654C326.065 70.2204 326.173 70.3366 326.305 70.4141C326.437 70.487 326.601 70.5234 326.797 70.5234C327.052 70.5234 327.259 70.4596 327.419 70.332C327.578 70.1999 327.697 70.0199 327.774 69.792C327.856 69.5596 327.902 69.293 327.911 68.9922V67.7002C327.902 67.4495 327.872 67.224 327.822 67.0234C327.772 66.8229 327.701 66.652 327.61 66.5107C327.519 66.3695 327.405 66.2601 327.269 66.1826C327.136 66.1051 326.981 66.0664 326.804 66.0664C326.612 66.0664 326.448 66.1051 326.312 66.1826C326.179 66.2601 326.075 66.3809 325.997 66.5449C325.92 66.7044 325.86 66.9118 325.819 67.167C325.783 67.4176 325.765 67.7184 325.765 68.0693ZM334.029 72.1367C333.523 72.1367 333.075 72.0592 332.683 71.9043C332.295 71.7493 331.967 71.526 331.698 71.2344C331.429 70.9382 331.224 70.5804 331.083 70.1611C330.942 69.7419 330.871 69.2633 330.871 68.7256V68.1172C330.871 67.5156 330.939 66.9893 331.076 66.5381C331.213 66.0824 331.407 65.6995 331.657 65.3896C331.908 65.0798 332.215 64.8496 332.58 64.6992C332.949 64.5443 333.366 64.4668 333.831 64.4668C334.296 64.4668 334.704 64.5443 335.055 64.6992C335.41 64.8496 335.704 65.0775 335.937 65.3828C336.169 65.6836 336.344 66.0573 336.463 66.5039C336.581 66.9505 336.641 67.4701 336.641 68.0625V68.9375H331.685V67.5908H334.761V67.4199C334.761 67.1191 334.729 66.8685 334.665 66.668C334.601 66.4629 334.501 66.3102 334.364 66.21C334.228 66.1097 334.045 66.0596 333.817 66.0596C333.626 66.0596 333.464 66.0983 333.332 66.1758C333.2 66.2533 333.095 66.374 333.018 66.5381C332.94 66.7021 332.883 66.9163 332.847 67.1807C332.81 67.4404 332.792 67.7526 332.792 68.1172V68.7256C332.792 69.0674 332.822 69.3545 332.881 69.5869C332.94 69.8148 333.027 70.0016 333.141 70.1475C333.259 70.2887 333.403 70.3913 333.571 70.4551C333.74 70.5143 333.936 70.5439 334.159 70.5439C334.496 70.5439 334.799 70.4847 335.068 70.3662C335.342 70.2432 335.574 70.0768 335.766 69.8672L336.531 71.0293C336.399 71.2025 336.217 71.3757 335.984 71.5488C335.752 71.722 335.474 71.8633 335.15 71.9727C334.827 72.082 334.453 72.1367 334.029 72.1367ZM343.039 64.6035V72H341.118V64.6035H343.039ZM342.643 61.6025L344.44 63.5098V63.5918H342.95L342.096 62.6143L341.241 63.5986H339.771V63.4961L341.549 61.6025H342.643ZM346.519 66.1826V72H344.598V64.6035H346.396L346.519 66.1826ZM346.231 68.0488L345.719 68.0625C345.71 67.5065 345.762 67.0075 345.876 66.5654C345.994 66.1234 346.161 65.7474 346.375 65.4375C346.594 65.123 346.854 64.8838 347.154 64.7197C347.46 64.5511 347.799 64.4668 348.173 64.4668C348.46 64.4668 348.722 64.5169 348.959 64.6172C349.201 64.7174 349.408 64.877 349.581 65.0957C349.754 65.3145 349.889 65.6061 349.984 65.9707C350.08 66.3307 350.128 66.7728 350.128 67.2969V72H348.207V67.2832C348.207 66.9642 348.175 66.7181 348.111 66.5449C348.048 66.3672 347.952 66.2441 347.824 66.1758C347.697 66.1029 347.537 66.0664 347.346 66.0664C347.163 66.0664 347.002 66.1188 346.86 66.2236C346.719 66.3239 346.601 66.4629 346.505 66.6406C346.414 66.8184 346.343 67.028 346.293 67.2695C346.247 67.5111 346.227 67.7708 346.231 68.0488ZM353.457 66.1348V72H351.536V64.6035H353.341L353.457 66.1348ZM353.184 68.0488L352.657 68.0625C352.648 67.543 352.694 67.0645 352.794 66.627C352.894 66.1895 353.045 65.8089 353.245 65.4854C353.45 65.1618 353.708 64.9111 354.018 64.7334C354.327 64.5557 354.69 64.4668 355.104 64.4668C355.373 64.4668 355.622 64.5169 355.85 64.6172C356.077 64.7129 356.276 64.8656 356.444 65.0752C356.613 65.2803 356.743 65.5492 356.834 65.8818C356.925 66.21 356.971 66.6042 356.971 67.0645V72H355.057V67.2969C355.057 66.9688 355.025 66.7181 354.961 66.5449C354.897 66.3672 354.806 66.2441 354.688 66.1758C354.569 66.1029 354.423 66.0664 354.25 66.0664C354.068 66.0664 353.908 66.1165 353.771 66.2168C353.635 66.3171 353.523 66.4583 353.437 66.6406C353.354 66.8184 353.291 67.028 353.245 67.2695C353.204 67.5111 353.184 67.7708 353.184 68.0488ZM356.786 67.8574L356.096 67.9463C356.087 67.4587 356.13 67.0052 356.226 66.5859C356.321 66.1621 356.469 65.793 356.67 65.4785C356.87 65.1595 357.121 64.9111 357.422 64.7334C357.727 64.5557 358.08 64.4668 358.481 64.4668C358.782 64.4668 359.056 64.5169 359.302 64.6172C359.548 64.7174 359.757 64.8792 359.931 65.1025C360.108 65.3213 360.243 65.6107 360.334 65.9707C360.43 66.3307 360.478 66.7682 360.478 67.2832V72H358.557V67.29C358.557 66.9574 358.525 66.7021 358.461 66.5244C358.397 66.3467 358.306 66.2259 358.188 66.1621C358.069 66.0983 357.928 66.0664 357.764 66.0664C357.6 66.0664 357.456 66.112 357.333 66.2031C357.215 66.2943 357.114 66.4219 357.032 66.5859C356.95 66.7454 356.889 66.9346 356.848 67.1533C356.807 67.3675 356.786 67.6022 356.786 67.8574ZM365.181 70.2979V66.8799C365.181 66.6566 365.153 66.4788 365.099 66.3467C365.049 66.2145 364.971 66.1188 364.866 66.0596C364.766 65.9958 364.643 65.9639 364.497 65.9639C364.333 65.9639 364.196 65.998 364.087 66.0664C363.978 66.1348 363.896 66.2327 363.841 66.3604C363.791 66.488 363.766 66.6406 363.766 66.8184H361.845C361.845 66.4993 361.906 66.1986 362.029 65.916C362.152 65.6289 362.332 65.3783 362.569 65.1641C362.811 64.9453 363.098 64.7744 363.431 64.6514C363.763 64.5283 364.137 64.4668 364.552 64.4668C365.044 64.4668 365.481 64.5511 365.864 64.7197C366.247 64.8838 366.55 65.1458 366.773 65.5059C366.997 65.8659 367.108 66.333 367.108 66.9072V70.2021C367.108 70.6169 367.129 70.9541 367.17 71.2139C367.215 71.4736 367.282 71.6969 367.368 71.8838V72H365.44C365.354 71.7949 365.288 71.5397 365.242 71.2344C365.201 70.9245 365.181 70.6123 365.181 70.2979ZM365.413 67.4814L365.42 68.6299H364.716C364.534 68.6299 364.374 68.6595 364.237 68.7188C364.105 68.778 363.993 68.8623 363.902 68.9717C363.811 69.0765 363.743 69.1995 363.697 69.3408C363.656 69.4821 363.636 69.6325 363.636 69.792C363.636 69.9697 363.661 70.1201 363.711 70.2432C363.761 70.3662 363.836 70.4596 363.937 70.5234C364.037 70.5872 364.155 70.6191 364.292 70.6191C364.502 70.6191 364.684 70.5758 364.839 70.4893C364.994 70.4027 365.108 70.2979 365.181 70.1748C365.258 70.0518 365.283 69.9378 365.256 69.833L365.693 70.5781C365.639 70.7467 365.563 70.9222 365.468 71.1045C365.377 71.2868 365.26 71.4554 365.119 71.6104C364.978 71.7653 364.802 71.8929 364.593 71.9932C364.388 72.0889 364.144 72.1367 363.861 72.1367C363.465 72.1367 363.103 72.0456 362.774 71.8633C362.446 71.681 362.187 71.4258 361.995 71.0977C361.808 70.7695 361.715 70.3799 361.715 69.9287C361.715 69.555 361.774 69.2178 361.893 68.917C362.016 68.6117 362.198 68.3542 362.439 68.1445C362.681 67.9303 362.986 67.7663 363.355 67.6523C363.725 67.5384 364.158 67.4814 364.654 67.4814H365.413ZM371.75 64.6035V66.0459H367.977V64.6035H371.75ZM368.845 62.7783H370.752V69.7441C370.752 69.9492 370.772 70.1064 370.813 70.2158C370.854 70.3252 370.916 70.4027 370.998 70.4482C371.085 70.4893 371.199 70.5098 371.34 70.5098C371.436 70.5098 371.524 70.5052 371.606 70.4961C371.688 70.4824 371.75 70.4688 371.791 70.4551V71.9521C371.641 72.0114 371.481 72.057 371.312 72.0889C371.148 72.1208 370.952 72.1367 370.725 72.1367C370.342 72.1367 370.009 72.0638 369.727 71.918C369.449 71.7721 369.232 71.5397 369.077 71.2207C368.922 70.8971 368.845 70.4733 368.845 69.9492V62.7783ZM374.73 66.251V72H372.816V64.6035H374.621L374.73 66.251ZM376.474 64.5488L376.446 66.4561C376.36 66.4378 376.255 66.4242 376.132 66.415C376.013 66.4059 375.909 66.4014 375.817 66.4014C375.603 66.4014 375.421 66.4355 375.271 66.5039C375.12 66.5677 374.995 66.6657 374.895 66.7979C374.799 66.9255 374.726 67.085 374.676 67.2764C374.626 67.4678 374.596 67.6842 374.587 67.9258L374.225 67.7891C374.225 67.306 374.261 66.8639 374.334 66.4629C374.411 66.0573 374.525 65.7064 374.676 65.4102C374.826 65.1094 375.006 64.877 375.216 64.7129C375.43 64.5488 375.672 64.4668 375.94 64.4668C376.032 64.4668 376.127 64.4759 376.228 64.4941C376.332 64.5078 376.414 64.526 376.474 64.5488ZM379.461 64.6035V72H377.54V64.6035H379.461ZM377.451 62.6895C377.451 62.3932 377.545 62.1494 377.731 61.958C377.923 61.762 378.178 61.6641 378.497 61.6641C378.821 61.6641 379.076 61.762 379.263 61.958C379.45 62.1494 379.543 62.3932 379.543 62.6895C379.543 62.9811 379.447 63.2249 379.256 63.4209C379.069 63.6123 378.818 63.708 378.504 63.708C378.18 63.708 377.923 63.6123 377.731 63.4209C377.545 63.2249 377.451 62.9811 377.451 62.6895ZM383.651 70.5439C383.829 70.5439 383.982 70.5075 384.109 70.4346C384.242 70.3617 384.342 70.2432 384.41 70.0791C384.479 69.915 384.515 69.7031 384.52 69.4434H386.317C386.317 69.9993 386.199 70.4801 385.962 70.8857C385.729 71.2868 385.415 71.5967 385.019 71.8154C384.627 72.0296 384.182 72.1367 383.686 72.1367C383.189 72.1367 382.756 72.057 382.387 71.8975C382.018 71.738 381.712 71.5055 381.471 71.2002C381.234 70.8949 381.054 70.5234 380.931 70.0859C380.812 69.6439 380.753 69.138 380.753 68.5684V68.0283C380.753 67.4678 380.812 66.9665 380.931 66.5244C381.054 66.0824 381.234 65.7087 381.471 65.4033C381.712 65.098 382.015 64.8656 382.38 64.7061C382.749 64.5465 383.182 64.4668 383.679 64.4668C384.212 64.4668 384.674 64.5785 385.066 64.8018C385.458 65.0205 385.764 65.3441 385.982 65.7725C386.206 66.2008 386.317 66.7295 386.317 67.3584H384.52C384.515 67.0758 384.481 66.8411 384.417 66.6543C384.358 66.4629 384.264 66.3171 384.137 66.2168C384.014 66.112 383.85 66.0596 383.645 66.0596C383.43 66.0596 383.257 66.1051 383.125 66.1963C382.997 66.2829 382.899 66.4105 382.831 66.5791C382.767 66.7432 382.724 66.9482 382.701 67.1943C382.678 67.4404 382.667 67.7184 382.667 68.0283V68.5684C382.667 68.901 382.676 69.1904 382.694 69.4365C382.717 69.6781 382.76 69.8831 382.824 70.0518C382.893 70.2158 382.991 70.3389 383.118 70.4209C383.25 70.5029 383.428 70.5439 383.651 70.5439ZM390.993 70.2227V64.6035H392.914V72H391.109L390.993 70.2227ZM391.212 68.6982L391.745 68.6846C391.745 69.1813 391.697 69.6416 391.602 70.0654C391.506 70.4847 391.362 70.8493 391.171 71.1592C390.979 71.4691 390.74 71.7106 390.453 71.8838C390.166 72.0524 389.826 72.1367 389.435 72.1367C389.134 72.1367 388.856 72.0866 388.601 71.9863C388.35 71.8815 388.133 71.7197 387.951 71.501C387.769 71.2777 387.625 70.9928 387.521 70.6465C387.42 70.2956 387.37 69.874 387.37 69.3818V64.6035H389.291V69.4023C389.291 69.6029 389.309 69.776 389.346 69.9219C389.382 70.0632 389.432 70.1794 389.496 70.2705C389.56 70.3617 389.635 70.4277 389.722 70.4688C389.808 70.5052 389.906 70.5234 390.016 70.5234C390.316 70.5234 390.553 70.446 390.727 70.291C390.904 70.1315 391.03 69.915 391.103 69.6416C391.175 69.3636 391.212 69.0492 391.212 68.6982ZM396.318 61.5V72H394.397V61.5H396.318ZM401.097 70.2979V66.8799C401.097 66.6566 401.069 66.4788 401.015 66.3467C400.965 66.2145 400.887 66.1188 400.782 66.0596C400.682 65.9958 400.559 65.9639 400.413 65.9639C400.249 65.9639 400.112 65.998 400.003 66.0664C399.894 66.1348 399.812 66.2327 399.757 66.3604C399.707 66.488 399.682 66.6406 399.682 66.8184H397.761C397.761 66.4993 397.822 66.1986 397.945 65.916C398.068 65.6289 398.248 65.3783 398.485 65.1641C398.727 64.9453 399.014 64.7744 399.347 64.6514C399.679 64.5283 400.053 64.4668 400.468 64.4668C400.96 64.4668 401.397 64.5511 401.78 64.7197C402.163 64.8838 402.466 65.1458 402.689 65.5059C402.913 65.8659 403.024 66.333 403.024 66.9072V70.2021C403.024 70.6169 403.045 70.9541 403.086 71.2139C403.132 71.4736 403.198 71.6969 403.284 71.8838V72H401.356C401.27 71.7949 401.204 71.5397 401.158 71.2344C401.117 70.9245 401.097 70.6123 401.097 70.2979ZM401.329 67.4814L401.336 68.6299H400.632C400.45 68.6299 400.29 68.6595 400.153 68.7188C400.021 68.778 399.91 68.8623 399.818 68.9717C399.727 69.0765 399.659 69.1995 399.613 69.3408C399.572 69.4821 399.552 69.6325 399.552 69.792C399.552 69.9697 399.577 70.1201 399.627 70.2432C399.677 70.3662 399.752 70.4596 399.853 70.5234C399.953 70.5872 400.071 70.6191 400.208 70.6191C400.418 70.6191 400.6 70.5758 400.755 70.4893C400.91 70.4027 401.024 70.2979 401.097 70.1748C401.174 70.0518 401.199 69.9378 401.172 69.833L401.609 70.5781C401.555 70.7467 401.479 70.9222 401.384 71.1045C401.293 71.2868 401.176 71.4554 401.035 71.6104C400.894 71.7653 400.718 71.8929 400.509 71.9932C400.304 72.0889 400.06 72.1367 399.777 72.1367C399.381 72.1367 399.019 72.0456 398.69 71.8633C398.362 71.681 398.103 71.4258 397.911 71.0977C397.724 70.7695 397.631 70.3799 397.631 69.9287C397.631 69.555 397.69 69.2178 397.809 68.917C397.932 68.6117 398.114 68.3542 398.355 68.1445C398.597 67.9303 398.902 67.7663 399.271 67.6523C399.641 67.5384 400.074 67.4814 400.57 67.4814H401.329ZM406.354 66.251V72H404.439V64.6035H406.244L406.354 66.251ZM408.097 64.5488L408.069 66.4561C407.983 66.4378 407.878 66.4242 407.755 66.415C407.636 66.4059 407.532 66.4014 407.44 66.4014C407.226 66.4014 407.044 66.4355 406.894 66.5039C406.743 66.5677 406.618 66.6657 406.518 66.7979C406.422 66.9255 406.349 67.085 406.299 67.2764C406.249 67.4678 406.219 67.6842 406.21 67.9258L405.848 67.7891C405.848 67.306 405.884 66.8639 405.957 66.4629C406.035 66.0573 406.148 65.7064 406.299 65.4102C406.449 65.1094 406.629 64.877 406.839 64.7129C407.053 64.5488 407.295 64.4668 407.563 64.4668C407.655 64.4668 407.75 64.4759 407.851 64.4941C407.955 64.5078 408.037 64.526 408.097 64.5488ZM411.918 72.1367C411.412 72.1367 410.963 72.0592 410.571 71.9043C410.184 71.7493 409.856 71.526 409.587 71.2344C409.318 70.9382 409.113 70.5804 408.972 70.1611C408.83 69.7419 408.76 69.2633 408.76 68.7256V68.1172C408.76 67.5156 408.828 66.9893 408.965 66.5381C409.102 66.0824 409.295 65.6995 409.546 65.3896C409.797 65.0798 410.104 64.8496 410.469 64.6992C410.838 64.5443 411.255 64.4668 411.72 64.4668C412.185 64.4668 412.592 64.5443 412.943 64.6992C413.299 64.8496 413.593 65.0775 413.825 65.3828C414.058 65.6836 414.233 66.0573 414.352 66.5039C414.47 66.9505 414.529 67.4701 414.529 68.0625V68.9375H409.573V67.5908H412.649V67.4199C412.649 67.1191 412.618 66.8685 412.554 66.668C412.49 66.4629 412.39 66.3102 412.253 66.21C412.116 66.1097 411.934 66.0596 411.706 66.0596C411.515 66.0596 411.353 66.0983 411.221 66.1758C411.089 66.2533 410.984 66.374 410.906 66.5381C410.829 66.7021 410.772 66.9163 410.735 67.1807C410.699 67.4404 410.681 67.7526 410.681 68.1172V68.7256C410.681 69.0674 410.71 69.3545 410.77 69.5869C410.829 69.8148 410.915 70.0016 411.029 70.1475C411.148 70.2887 411.291 70.3913 411.46 70.4551C411.629 70.5143 411.825 70.5439 412.048 70.5439C412.385 70.5439 412.688 70.4847 412.957 70.3662C413.23 70.2432 413.463 70.0768 413.654 69.8672L414.42 71.0293C414.288 71.2025 414.105 71.3757 413.873 71.5488C413.641 71.722 413.363 71.8633 413.039 71.9727C412.715 72.082 412.342 72.1367 411.918 72.1367Z" fill="url(#paint1_linear_1405_1438)"/>
<path d="M646.861 62.0469V72H644.858V62.0469H646.861ZM649.979 66.2783V67.9326H646.355V66.2783H649.979ZM650.361 62.0469V63.708H646.355V62.0469H650.361ZM654.463 70.2979V66.8799C654.463 66.6566 654.436 66.4788 654.381 66.3467C654.331 66.2145 654.253 66.1188 654.148 66.0596C654.048 65.9958 653.925 65.9639 653.779 65.9639C653.615 65.9639 653.479 65.998 653.369 66.0664C653.26 66.1348 653.178 66.2327 653.123 66.3604C653.073 66.488 653.048 66.6406 653.048 66.8184H651.127C651.127 66.4993 651.188 66.1986 651.312 65.916C651.435 65.6289 651.615 65.3783 651.852 65.1641C652.093 64.9453 652.38 64.7744 652.713 64.6514C653.046 64.5283 653.419 64.4668 653.834 64.4668C654.326 64.4668 654.764 64.5511 655.146 64.7197C655.529 64.8838 655.832 65.1458 656.056 65.5059C656.279 65.8659 656.391 66.333 656.391 66.9072V70.2021C656.391 70.6169 656.411 70.9541 656.452 71.2139C656.498 71.4736 656.564 71.6969 656.65 71.8838V72H654.723C654.636 71.7949 654.57 71.5397 654.524 71.2344C654.483 70.9245 654.463 70.6123 654.463 70.2979ZM654.695 67.4814L654.702 68.6299H653.998C653.816 68.6299 653.656 68.6595 653.52 68.7188C653.387 68.778 653.276 68.8623 653.185 68.9717C653.093 69.0765 653.025 69.1995 652.979 69.3408C652.938 69.4821 652.918 69.6325 652.918 69.792C652.918 69.9697 652.943 70.1201 652.993 70.2432C653.043 70.3662 653.118 70.4596 653.219 70.5234C653.319 70.5872 653.438 70.6191 653.574 70.6191C653.784 70.6191 653.966 70.5758 654.121 70.4893C654.276 70.4027 654.39 70.2979 654.463 70.1748C654.54 70.0518 654.565 69.9378 654.538 69.833L654.976 70.5781C654.921 70.7467 654.846 70.9222 654.75 71.1045C654.659 71.2868 654.543 71.4554 654.401 71.6104C654.26 71.7653 654.085 71.8929 653.875 71.9932C653.67 72.0889 653.426 72.1367 653.144 72.1367C652.747 72.1367 652.385 72.0456 652.057 71.8633C651.729 71.681 651.469 71.4258 651.277 71.0977C651.09 70.7695 650.997 70.3799 650.997 69.9287C650.997 69.555 651.056 69.2178 651.175 68.917C651.298 68.6117 651.48 68.3542 651.722 68.1445C651.963 67.9303 652.269 67.7663 652.638 67.6523C653.007 67.5384 653.44 67.4814 653.937 67.4814H654.695ZM660.479 70.5439C660.656 70.5439 660.809 70.5075 660.937 70.4346C661.069 70.3617 661.169 70.2432 661.237 70.0791C661.306 69.915 661.342 69.7031 661.347 69.4434H663.145C663.145 69.9993 663.026 70.4801 662.789 70.8857C662.557 71.2868 662.242 71.5967 661.846 71.8154C661.454 72.0296 661.009 72.1367 660.513 72.1367C660.016 72.1367 659.583 72.057 659.214 71.8975C658.845 71.738 658.539 71.5055 658.298 71.2002C658.061 70.8949 657.881 70.5234 657.758 70.0859C657.639 69.6439 657.58 69.138 657.58 68.5684V68.0283C657.58 67.4678 657.639 66.9665 657.758 66.5244C657.881 66.0824 658.061 65.7087 658.298 65.4033C658.539 65.098 658.842 64.8656 659.207 64.7061C659.576 64.5465 660.009 64.4668 660.506 64.4668C661.039 64.4668 661.502 64.5785 661.894 64.8018C662.285 65.0205 662.591 65.3441 662.81 65.7725C663.033 66.2008 663.145 66.7295 663.145 67.3584H661.347C661.342 67.0758 661.308 66.8411 661.244 66.6543C661.185 66.4629 661.091 66.3171 660.964 66.2168C660.841 66.112 660.677 66.0596 660.472 66.0596C660.257 66.0596 660.084 66.1051 659.952 66.1963C659.825 66.2829 659.727 66.4105 659.658 66.5791C659.594 66.7432 659.551 66.9482 659.528 67.1943C659.506 67.4404 659.494 67.7184 659.494 68.0283V68.5684C659.494 68.901 659.503 69.1904 659.521 69.4365C659.544 69.6781 659.588 69.8831 659.651 70.0518C659.72 70.2158 659.818 70.3389 659.945 70.4209C660.077 70.5029 660.255 70.5439 660.479 70.5439ZM667.472 64.6035V66.0459H663.698V64.6035H667.472ZM664.566 62.7783H666.474V69.7441C666.474 69.9492 666.494 70.1064 666.535 70.2158C666.576 70.3252 666.638 70.4027 666.72 70.4482C666.806 70.4893 666.92 70.5098 667.062 70.5098C667.157 70.5098 667.246 70.5052 667.328 70.4961C667.41 70.4824 667.472 70.4688 667.513 70.4551V71.9521C667.362 72.0114 667.203 72.057 667.034 72.0889C666.87 72.1208 666.674 72.1367 666.446 72.1367C666.063 72.1367 665.731 72.0638 665.448 71.918C665.17 71.7721 664.954 71.5397 664.799 71.2207C664.644 70.8971 664.566 70.4733 664.566 69.9492V62.7783ZM672.113 70.2227V64.6035H674.034V72H672.229L672.113 70.2227ZM672.332 68.6982L672.865 68.6846C672.865 69.1813 672.817 69.6416 672.722 70.0654C672.626 70.4847 672.482 70.8493 672.291 71.1592C672.1 71.4691 671.86 71.7106 671.573 71.8838C671.286 72.0524 670.947 72.1367 670.555 72.1367C670.254 72.1367 669.976 72.0866 669.721 71.9863C669.47 71.8815 669.254 71.7197 669.071 71.501C668.889 71.2777 668.745 70.9928 668.641 70.6465C668.54 70.2956 668.49 69.874 668.49 69.3818V64.6035H670.411V69.4023C670.411 69.6029 670.429 69.776 670.466 69.9219C670.502 70.0632 670.552 70.1794 670.616 70.2705C670.68 70.3617 670.755 70.4277 670.842 70.4688C670.928 70.5052 671.026 70.5234 671.136 70.5234C671.437 70.5234 671.674 70.446 671.847 70.291C672.024 70.1315 672.15 69.915 672.223 69.6416C672.296 69.3636 672.332 69.0492 672.332 68.6982ZM677.343 66.251V72H675.429V64.6035H677.233L677.343 66.251ZM679.086 64.5488L679.059 66.4561C678.972 66.4378 678.867 66.4242 678.744 66.415C678.626 66.4059 678.521 66.4014 678.43 66.4014C678.215 66.4014 678.033 66.4355 677.883 66.5039C677.732 66.5677 677.607 66.6657 677.507 66.7979C677.411 66.9255 677.338 67.085 677.288 67.2764C677.238 67.4678 677.208 67.6842 677.199 67.9258L676.837 67.7891C676.837 67.306 676.873 66.8639 676.946 66.4629C677.024 66.0573 677.138 65.7064 677.288 65.4102C677.438 65.1094 677.618 64.877 677.828 64.7129C678.042 64.5488 678.284 64.4668 678.553 64.4668C678.644 64.4668 678.74 64.4759 678.84 64.4941C678.945 64.5078 679.027 64.526 679.086 64.5488ZM683.119 70.2979V66.8799C683.119 66.6566 683.092 66.4788 683.037 66.3467C682.987 66.2145 682.91 66.1188 682.805 66.0596C682.704 65.9958 682.581 65.9639 682.436 65.9639C682.271 65.9639 682.135 65.998 682.025 66.0664C681.916 66.1348 681.834 66.2327 681.779 66.3604C681.729 66.488 681.704 66.6406 681.704 66.8184H679.783C679.783 66.4993 679.845 66.1986 679.968 65.916C680.091 65.6289 680.271 65.3783 680.508 65.1641C680.749 64.9453 681.036 64.7744 681.369 64.6514C681.702 64.5283 682.076 64.4668 682.49 64.4668C682.982 64.4668 683.42 64.5511 683.803 64.7197C684.186 64.8838 684.489 65.1458 684.712 65.5059C684.935 65.8659 685.047 66.333 685.047 66.9072V70.2021C685.047 70.6169 685.067 70.9541 685.108 71.2139C685.154 71.4736 685.22 71.6969 685.307 71.8838V72H683.379C683.292 71.7949 683.226 71.5397 683.181 71.2344C683.14 70.9245 683.119 70.6123 683.119 70.2979ZM683.352 67.4814L683.358 68.6299H682.654C682.472 68.6299 682.312 68.6595 682.176 68.7188C682.044 68.778 681.932 68.8623 681.841 68.9717C681.75 69.0765 681.681 69.1995 681.636 69.3408C681.595 69.4821 681.574 69.6325 681.574 69.792C681.574 69.9697 681.599 70.1201 681.649 70.2432C681.7 70.3662 681.775 70.4596 681.875 70.5234C681.975 70.5872 682.094 70.6191 682.23 70.6191C682.44 70.6191 682.622 70.5758 682.777 70.4893C682.932 70.4027 683.046 70.2979 683.119 70.1748C683.197 70.0518 683.222 69.9378 683.194 69.833L683.632 70.5781C683.577 70.7467 683.502 70.9222 683.406 71.1045C683.315 71.2868 683.199 71.4554 683.058 71.6104C682.916 71.7653 682.741 71.8929 682.531 71.9932C682.326 72.0889 682.082 72.1367 681.8 72.1367C681.403 72.1367 681.041 72.0456 680.713 71.8633C680.385 71.681 680.125 71.4258 679.934 71.0977C679.747 70.7695 679.653 70.3799 679.653 69.9287C679.653 69.555 679.713 69.2178 679.831 68.917C679.954 68.6117 680.136 68.3542 680.378 68.1445C680.619 67.9303 680.925 67.7663 681.294 67.6523C681.663 67.5384 682.096 67.4814 682.593 67.4814H683.352ZM688.376 66.251V72H686.462V64.6035H688.267L688.376 66.251ZM690.119 64.5488L690.092 66.4561C690.005 66.4378 689.9 66.4242 689.777 66.415C689.659 66.4059 689.554 66.4014 689.463 66.4014C689.249 66.4014 689.066 66.4355 688.916 66.5039C688.766 66.5677 688.64 66.6657 688.54 66.7979C688.444 66.9255 688.371 67.085 688.321 67.2764C688.271 67.4678 688.242 67.6842 688.232 67.9258L687.87 67.7891C687.87 67.306 687.907 66.8639 687.979 66.4629C688.057 66.0573 688.171 65.7064 688.321 65.4102C688.472 65.1094 688.652 64.877 688.861 64.7129C689.076 64.5488 689.317 64.4668 689.586 64.4668C689.677 64.4668 689.773 64.4759 689.873 64.4941C689.978 64.5078 690.06 64.526 690.119 64.5488ZM693.94 72.1367C693.435 72.1367 692.986 72.0592 692.594 71.9043C692.206 71.7493 691.878 71.526 691.609 71.2344C691.34 70.9382 691.135 70.5804 690.994 70.1611C690.853 69.7419 690.782 69.2633 690.782 68.7256V68.1172C690.782 67.5156 690.851 66.9893 690.987 66.5381C691.124 66.0824 691.318 65.6995 691.568 65.3896C691.819 65.0798 692.127 64.8496 692.491 64.6992C692.86 64.5443 693.277 64.4668 693.742 64.4668C694.207 64.4668 694.615 64.5443 694.966 64.6992C695.321 64.8496 695.615 65.0775 695.848 65.3828C696.08 65.6836 696.256 66.0573 696.374 66.5039C696.493 66.9505 696.552 67.4701 696.552 68.0625V68.9375H691.596V67.5908H694.672V67.4199C694.672 67.1191 694.64 66.8685 694.576 66.668C694.512 66.4629 694.412 66.3102 694.275 66.21C694.139 66.1097 693.956 66.0596 693.729 66.0596C693.537 66.0596 693.375 66.0983 693.243 66.1758C693.111 66.2533 693.006 66.374 692.929 66.5381C692.851 66.7021 692.794 66.9163 692.758 67.1807C692.721 67.4404 692.703 67.7526 692.703 68.1172V68.7256C692.703 69.0674 692.733 69.3545 692.792 69.5869C692.851 69.8148 692.938 70.0016 693.052 70.1475C693.17 70.2887 693.314 70.3913 693.482 70.4551C693.651 70.5143 693.847 70.5439 694.07 70.5439C694.408 70.5439 694.711 70.4847 694.979 70.3662C695.253 70.2432 695.485 70.0768 695.677 69.8672L696.442 71.0293C696.31 71.2025 696.128 71.3757 695.896 71.5488C695.663 71.722 695.385 71.8633 695.062 71.9727C694.738 72.082 694.364 72.1367 693.94 72.1367Z" fill="#E0E0E9"/>
<path d="M947.086 66.874L948.973 59.0469H951.133L948.248 69H946.792L947.086 66.874ZM945.473 59.0469L947.353 66.874L947.66 69H946.197L943.333 59.0469H945.473ZM954.667 69.1367C954.161 69.1367 953.712 69.0592 953.32 68.9043C952.933 68.7493 952.605 68.526 952.336 68.2344C952.067 67.9382 951.862 67.5804 951.721 67.1611C951.579 66.7419 951.509 66.2633 951.509 65.7256V65.1172C951.509 64.5156 951.577 63.9893 951.714 63.5381C951.851 63.0824 952.044 62.6995 952.295 62.3896C952.546 62.0798 952.853 61.8496 953.218 61.6992C953.587 61.5443 954.004 61.4668 954.469 61.4668C954.934 61.4668 955.341 61.5443 955.692 61.6992C956.048 61.8496 956.342 62.0775 956.574 62.3828C956.807 62.6836 956.982 63.0573 957.101 63.5039C957.219 63.9505 957.278 64.4701 957.278 65.0625V65.9375H952.322V64.5908H955.398V64.4199C955.398 64.1191 955.367 63.8685 955.303 63.668C955.239 63.4629 955.139 63.3102 955.002 63.21C954.865 63.1097 954.683 63.0596 954.455 63.0596C954.264 63.0596 954.102 63.0983 953.97 63.1758C953.838 63.2533 953.733 63.374 953.655 63.5381C953.578 63.7021 953.521 63.9163 953.484 64.1807C953.448 64.4404 953.43 64.7526 953.43 65.1172V65.7256C953.43 66.0674 953.459 66.3545 953.519 66.5869C953.578 66.8148 953.664 67.0016 953.778 67.1475C953.897 67.2887 954.04 67.3913 954.209 67.4551C954.378 67.5143 954.574 67.5439 954.797 67.5439C955.134 67.5439 955.437 67.4847 955.706 67.3662C955.979 67.2432 956.212 67.0768 956.403 66.8672L957.169 68.0293C957.037 68.2025 956.854 68.3757 956.622 68.5488C956.39 68.722 956.112 68.8633 955.788 68.9727C955.465 69.082 955.091 69.1367 954.667 69.1367ZM960.3 63.251V69H958.386V61.6035H960.19L960.3 63.251ZM962.043 61.5488L962.016 63.4561C961.929 63.4378 961.824 63.4242 961.701 63.415C961.583 63.4059 961.478 63.4014 961.387 63.4014C961.173 63.4014 960.99 63.4355 960.84 63.5039C960.689 63.5677 960.564 63.6657 960.464 63.7979C960.368 63.9255 960.295 64.085 960.245 64.2764C960.195 64.4678 960.165 64.6842 960.156 64.9258L959.794 64.7891C959.794 64.306 959.83 63.8639 959.903 63.4629C959.981 63.0573 960.095 62.7064 960.245 62.4102C960.396 62.1094 960.576 61.877 960.785 61.7129C960.999 61.5488 961.241 61.4668 961.51 61.4668C961.601 61.4668 961.697 61.4759 961.797 61.4941C961.902 61.5078 961.984 61.526 962.043 61.5488ZM965.03 61.6035V69H963.109V61.6035H965.03ZM963.021 59.6895C963.021 59.3932 963.114 59.1494 963.301 58.958C963.492 58.762 963.747 58.6641 964.066 58.6641C964.39 58.6641 964.645 58.762 964.832 58.958C965.019 59.1494 965.112 59.3932 965.112 59.6895C965.112 59.9811 965.017 60.2249 964.825 60.4209C964.638 60.6123 964.388 60.708 964.073 60.708C963.75 60.708 963.492 60.6123 963.301 60.4209C963.114 60.2249 963.021 59.9811 963.021 59.6895ZM968.858 69H966.944V61.2959C966.944 60.6579 967.056 60.1224 967.279 59.6895C967.507 59.252 967.835 58.9215 968.264 58.6982C968.697 58.4704 969.214 58.3564 969.815 58.3564C970.162 58.3564 970.49 58.3952 970.8 58.4727C971.114 58.5456 971.438 58.6413 971.771 58.7598L971.497 60.3867C971.297 60.3138 971.071 60.2454 970.82 60.1816C970.574 60.1133 970.283 60.0791 969.945 60.0791C969.576 60.0791 969.303 60.1816 969.125 60.3867C968.947 60.5918 968.858 60.8949 968.858 61.2959V69ZM970 61.6035V63.0459H966.042V61.6035H970ZM972.652 61.6035V69H970.731V61.6035H972.652ZM976.85 67.5439C977.027 67.5439 977.18 67.5075 977.308 67.4346C977.44 67.3617 977.54 67.2432 977.608 67.0791C977.677 66.915 977.713 66.7031 977.718 66.4434H979.516C979.516 66.9993 979.397 67.4801 979.16 67.8857C978.928 68.2868 978.613 68.5967 978.217 68.8154C977.825 69.0296 977.381 69.1367 976.884 69.1367C976.387 69.1367 975.954 69.057 975.585 68.8975C975.216 68.738 974.91 68.5055 974.669 68.2002C974.432 67.8949 974.252 67.5234 974.129 67.0859C974.01 66.6439 973.951 66.138 973.951 65.5684V65.0283C973.951 64.4678 974.01 63.9665 974.129 63.5244C974.252 63.0824 974.432 62.7087 974.669 62.4033C974.91 62.098 975.214 61.8656 975.578 61.7061C975.947 61.5465 976.38 61.4668 976.877 61.4668C977.41 61.4668 977.873 61.5785 978.265 61.8018C978.657 62.0205 978.962 62.3441 979.181 62.7725C979.404 63.2008 979.516 63.7295 979.516 64.3584H977.718C977.713 64.0758 977.679 63.8411 977.615 63.6543C977.556 63.4629 977.463 63.3171 977.335 63.2168C977.212 63.112 977.048 63.0596 976.843 63.0596C976.629 63.0596 976.455 63.1051 976.323 63.1963C976.196 63.2829 976.098 63.4105 976.029 63.5791C975.965 63.7432 975.922 63.9482 975.899 64.1943C975.877 64.4404 975.865 64.7184 975.865 65.0283V65.5684C975.865 65.901 975.874 66.1904 975.893 66.4365C975.915 66.6781 975.959 66.8831 976.022 67.0518C976.091 67.2158 976.189 67.3389 976.316 67.4209C976.449 67.5029 976.626 67.5439 976.85 67.5439ZM983.877 67.2979V63.8799C983.877 63.6566 983.85 63.4788 983.795 63.3467C983.745 63.2145 983.667 63.1188 983.562 63.0596C983.462 62.9958 983.339 62.9639 983.193 62.9639C983.029 62.9639 982.893 62.998 982.783 63.0664C982.674 63.1348 982.592 63.2327 982.537 63.3604C982.487 63.488 982.462 63.6406 982.462 63.8184H980.541C980.541 63.4993 980.603 63.1986 980.726 62.916C980.849 62.6289 981.029 62.3783 981.266 62.1641C981.507 61.9453 981.794 61.7744 982.127 61.6514C982.46 61.5283 982.833 61.4668 983.248 61.4668C983.74 61.4668 984.178 61.5511 984.561 61.7197C984.943 61.8838 985.246 62.1458 985.47 62.5059C985.693 62.8659 985.805 63.333 985.805 63.9072V67.2021C985.805 67.6169 985.825 67.9541 985.866 68.2139C985.912 68.4736 985.978 68.6969 986.064 68.8838V69H984.137C984.05 68.7949 983.984 68.5397 983.938 68.2344C983.897 67.9245 983.877 67.6123 983.877 67.2979ZM984.109 64.4814L984.116 65.6299H983.412C983.23 65.6299 983.07 65.6595 982.934 65.7188C982.801 65.778 982.69 65.8623 982.599 65.9717C982.507 66.0765 982.439 66.1995 982.394 66.3408C982.353 66.4821 982.332 66.6325 982.332 66.792C982.332 66.9697 982.357 67.1201 982.407 67.2432C982.457 67.3662 982.533 67.4596 982.633 67.5234C982.733 67.5872 982.852 67.6191 982.988 67.6191C983.198 67.6191 983.38 67.5758 983.535 67.4893C983.69 67.4027 983.804 67.2979 983.877 67.1748C983.954 67.0518 983.979 66.9378 983.952 66.833L984.39 67.5781C984.335 67.7467 984.26 67.9222 984.164 68.1045C984.073 68.2868 983.957 68.4554 983.815 68.6104C983.674 68.7653 983.499 68.8929 983.289 68.9932C983.084 69.0889 982.84 69.1367 982.558 69.1367C982.161 69.1367 981.799 69.0456 981.471 68.8633C981.143 68.681 980.883 68.4258 980.691 68.0977C980.505 67.7695 980.411 67.3799 980.411 66.9287C980.411 66.555 980.47 66.2178 980.589 65.917C980.712 65.6117 980.894 65.3542 981.136 65.1445C981.377 64.9303 981.683 64.7663 982.052 64.6523C982.421 64.5384 982.854 64.4814 983.351 64.4814H984.109ZM989.134 63.251V69H987.22V61.6035H989.024L989.134 63.251ZM990.877 61.5488L990.85 63.4561C990.763 63.4378 990.658 63.4242 990.535 63.415C990.417 63.4059 990.312 63.4014 990.221 63.4014C990.007 63.4014 989.824 63.4355 989.674 63.5039C989.523 63.5677 989.398 63.6657 989.298 63.7979C989.202 63.9255 989.129 64.085 989.079 64.2764C989.029 64.4678 988.999 64.6842 988.99 64.9258L988.628 64.7891C988.628 64.306 988.664 63.8639 988.737 63.4629C988.815 63.0573 988.929 62.7064 989.079 62.4102C989.229 62.1094 989.41 61.877 989.619 61.7129C989.833 61.5488 990.075 61.4668 990.344 61.4668C990.435 61.4668 990.531 61.4759 990.631 61.4941C990.736 61.5078 990.818 61.526 990.877 61.5488ZM994.698 69.1367C994.192 69.1367 993.743 69.0592 993.352 68.9043C992.964 68.7493 992.636 68.526 992.367 68.2344C992.098 67.9382 991.893 67.5804 991.752 67.1611C991.611 66.7419 991.54 66.2633 991.54 65.7256V65.1172C991.54 64.5156 991.608 63.9893 991.745 63.5381C991.882 63.0824 992.076 62.6995 992.326 62.3896C992.577 62.0798 992.884 61.8496 993.249 61.6992C993.618 61.5443 994.035 61.4668 994.5 61.4668C994.965 61.4668 995.373 61.5443 995.724 61.6992C996.079 61.8496 996.373 62.0775 996.605 62.3828C996.838 62.6836 997.013 63.0573 997.132 63.5039C997.25 63.9505 997.31 64.4701 997.31 65.0625V65.9375H992.354V64.5908H995.43V64.4199C995.43 64.1191 995.398 63.8685 995.334 63.668C995.27 63.4629 995.17 63.3102 995.033 63.21C994.896 63.1097 994.714 63.0596 994.486 63.0596C994.295 63.0596 994.133 63.0983 994.001 63.1758C993.869 63.2533 993.764 63.374 993.687 63.5381C993.609 63.7021 993.552 63.9163 993.516 64.1807C993.479 64.4404 993.461 64.7526 993.461 65.1172V65.7256C993.461 66.0674 993.491 66.3545 993.55 66.5869C993.609 66.8148 993.696 67.0016 993.81 67.1475C993.928 67.2887 994.072 67.3913 994.24 67.4551C994.409 67.5143 994.605 67.5439 994.828 67.5439C995.165 67.5439 995.468 67.4847 995.737 67.3662C996.011 67.2432 996.243 67.0768 996.435 66.8672L997.2 68.0293C997.068 68.2025 996.886 68.3757 996.653 68.5488C996.421 68.722 996.143 68.8633 995.819 68.9727C995.496 69.082 995.122 69.1367 994.698 69.1367ZM1004.92 67.0039C1004.92 66.8763 1004.88 66.7624 1004.79 66.6621C1004.71 66.5618 1004.57 66.4593 1004.38 66.3545C1004.2 66.2451 1003.95 66.1243 1003.64 65.9922C1003.3 65.8555 1003 65.7142 1002.74 65.5684C1002.48 65.4225 1002.26 65.2607 1002.08 65.083C1001.9 64.9053 1001.77 64.7025 1001.68 64.4746C1001.59 64.2467 1001.54 63.987 1001.54 63.6953C1001.54 63.3809 1001.6 63.0915 1001.71 62.8271C1001.83 62.5583 1002 62.3236 1002.22 62.123C1002.44 61.918 1002.7 61.7585 1003.02 61.6445C1003.34 61.526 1003.69 61.4668 1004.09 61.4668C1004.65 61.4668 1005.12 61.5648 1005.52 61.7607C1005.92 61.9521 1006.23 62.221 1006.44 62.5674C1006.66 62.9137 1006.76 63.3171 1006.76 63.7773H1004.85C1004.85 63.6133 1004.82 63.4674 1004.77 63.3398C1004.72 63.2077 1004.64 63.1051 1004.53 63.0322C1004.42 62.9593 1004.27 62.9229 1004.08 62.9229C1003.95 62.9229 1003.82 62.9525 1003.71 63.0117C1003.61 63.071 1003.53 63.1507 1003.46 63.251C1003.4 63.3467 1003.37 63.4606 1003.37 63.5928C1003.37 63.693 1003.39 63.7819 1003.43 63.8594C1003.48 63.9368 1003.55 64.012 1003.65 64.085C1003.74 64.1579 1003.87 64.2354 1004.03 64.3174C1004.19 64.3949 1004.39 64.4814 1004.63 64.5771C1005.12 64.7594 1005.53 64.9554 1005.84 65.165C1006.16 65.3747 1006.4 65.6208 1006.55 65.9033C1006.71 66.1813 1006.78 66.5254 1006.78 66.9355C1006.78 67.2637 1006.72 67.5622 1006.59 67.8311C1006.47 68.0999 1006.29 68.3324 1006.05 68.5283C1005.82 68.7243 1005.53 68.8747 1005.2 68.9795C1004.87 69.0843 1004.5 69.1367 1004.1 69.1367C1003.5 69.1367 1003 69.0182 1002.59 68.7812C1002.18 68.5443 1001.87 68.2412 1001.66 67.8721C1001.45 67.4984 1001.34 67.111 1001.34 66.71H1003.16C1003.17 66.9561 1003.22 67.1497 1003.3 67.291C1003.38 67.4277 1003.5 67.5234 1003.65 67.5781C1003.79 67.6328 1003.95 67.6602 1004.13 67.6602C1004.31 67.6602 1004.46 67.6374 1004.57 67.5918C1004.69 67.5417 1004.78 67.4665 1004.84 67.3662C1004.9 67.2614 1004.92 67.1406 1004.92 67.0039ZM1004.83 69.7109V70.1963C1004.83 70.6247 1004.74 71.0622 1004.57 71.5088C1004.4 71.9554 1004.19 72.3223 1003.93 72.6094L1002.99 72.0693C1003.12 71.8187 1003.23 71.5566 1003.31 71.2832C1003.39 71.0098 1003.43 70.6816 1003.43 70.2988V69.7109H1004.83ZM1010.01 61.6035V69H1008.09V61.6035H1010.01ZM1008 59.6895C1008 59.3932 1008.09 59.1494 1008.28 58.958C1008.47 58.762 1008.73 58.6641 1009.05 58.6641C1009.37 58.6641 1009.63 58.762 1009.81 58.958C1010 59.1494 1010.09 59.3932 1010.09 59.6895C1010.09 59.9811 1010 60.2249 1009.81 60.4209C1009.62 60.6123 1009.37 60.708 1009.05 60.708C1008.73 60.708 1008.47 60.6123 1008.28 60.4209C1008.09 60.2249 1008 59.9811 1008 59.6895ZM965.646 77.0254V85.8438H963.738V75.6035H965.502L965.646 77.0254ZM969.487 79.0488V79.541C969.487 80.1198 969.437 80.6325 969.337 81.0791C969.237 81.5212 969.086 81.8971 968.886 82.207C968.69 82.5124 968.444 82.7448 968.147 82.9043C967.851 83.0592 967.505 83.1367 967.108 83.1367C966.739 83.1367 966.42 83.0501 966.151 82.877C965.887 82.6992 965.664 82.4554 965.481 82.1455C965.299 81.8356 965.153 81.4733 965.044 81.0586C964.935 80.6439 964.85 80.1995 964.791 79.7256V78.96C964.846 78.4541 964.925 77.9893 965.03 77.5654C965.135 77.137 965.279 76.7656 965.461 76.4512C965.648 76.1367 965.873 75.8952 966.138 75.7266C966.407 75.5534 966.726 75.4668 967.095 75.4668C967.496 75.4668 967.844 75.5397 968.141 75.6855C968.441 75.8314 968.69 76.0524 968.886 76.3486C969.086 76.6403 969.237 77.0117 969.337 77.4629C969.437 77.9141 969.487 78.4427 969.487 79.0488ZM967.573 79.541V79.0488C967.573 78.6934 967.553 78.3903 967.512 78.1396C967.475 77.889 967.416 77.6839 967.334 77.5244C967.252 77.3649 967.145 77.2487 967.013 77.1758C966.881 77.1029 966.719 77.0664 966.527 77.0664C966.34 77.0664 966.176 77.1029 966.035 77.1758C965.898 77.2487 965.787 77.3558 965.7 77.4971C965.614 77.6338 965.548 77.8024 965.502 78.0029C965.456 78.1989 965.431 78.4222 965.427 78.6729V80.0127C965.436 80.3089 965.475 80.571 965.543 80.7988C965.616 81.0267 965.732 81.209 965.892 81.3457C966.051 81.4779 966.268 81.5439 966.541 81.5439C966.737 81.5439 966.899 81.5029 967.026 81.4209C967.159 81.3389 967.266 81.2158 967.348 81.0518C967.43 80.8877 967.487 80.6803 967.519 80.4297C967.555 80.179 967.573 79.8828 967.573 79.541ZM972.673 72.5V83H970.752V72.5H972.673ZM977.451 81.2979V77.8799C977.451 77.6566 977.424 77.4788 977.369 77.3467C977.319 77.2145 977.242 77.1188 977.137 77.0596C977.036 76.9958 976.913 76.9639 976.768 76.9639C976.604 76.9639 976.467 76.998 976.357 77.0664C976.248 77.1348 976.166 77.2327 976.111 77.3604C976.061 77.488 976.036 77.6406 976.036 77.8184H974.115C974.115 77.4993 974.177 77.1986 974.3 76.916C974.423 76.6289 974.603 76.3783 974.84 76.1641C975.081 75.9453 975.368 75.7744 975.701 75.6514C976.034 75.5283 976.408 75.4668 976.822 75.4668C977.314 75.4668 977.752 75.5511 978.135 75.7197C978.518 75.8838 978.821 76.1458 979.044 76.5059C979.267 76.8659 979.379 77.333 979.379 77.9072V81.2021C979.379 81.6169 979.399 81.9541 979.44 82.2139C979.486 82.4736 979.552 82.6969 979.639 82.8838V83H977.711C977.624 82.7949 977.558 82.5397 977.513 82.2344C977.472 81.9245 977.451 81.6123 977.451 81.2979ZM977.684 78.4814L977.69 79.6299H976.986C976.804 79.6299 976.645 79.6595 976.508 79.7188C976.376 79.778 976.264 79.8623 976.173 79.9717C976.082 80.0765 976.013 80.1995 975.968 80.3408C975.927 80.4821 975.906 80.6325 975.906 80.792C975.906 80.9697 975.931 81.1201 975.981 81.2432C976.032 81.3662 976.107 81.4596 976.207 81.5234C976.307 81.5872 976.426 81.6191 976.562 81.6191C976.772 81.6191 976.954 81.5758 977.109 81.4893C977.264 81.4027 977.378 81.2979 977.451 81.1748C977.529 81.0518 977.554 80.9378 977.526 80.833L977.964 81.5781C977.909 81.7467 977.834 81.9222 977.738 82.1045C977.647 82.2868 977.531 82.4554 977.39 82.6104C977.248 82.7653 977.073 82.8929 976.863 82.9932C976.658 83.0889 976.414 83.1367 976.132 83.1367C975.735 83.1367 975.373 83.0456 975.045 82.8633C974.717 82.681 974.457 82.4258 974.266 82.0977C974.079 81.7695 973.985 81.3799 973.985 80.9287C973.985 80.555 974.045 80.2178 974.163 79.917C974.286 79.6117 974.468 79.3542 974.71 79.1445C974.951 78.9303 975.257 78.7663 975.626 78.6523C975.995 78.5384 976.428 78.4814 976.925 78.4814H977.684ZM984.021 75.6035V77.0459H980.247V75.6035H984.021ZM981.115 73.7783H983.022V80.7441C983.022 80.9492 983.043 81.1064 983.084 81.2158C983.125 81.3252 983.187 81.4027 983.269 81.4482C983.355 81.4893 983.469 81.5098 983.61 81.5098C983.706 81.5098 983.795 81.5052 983.877 81.4961C983.959 81.4824 984.021 81.4688 984.062 81.4551V82.9521C983.911 83.0114 983.752 83.057 983.583 83.0889C983.419 83.1208 983.223 83.1367 982.995 83.1367C982.612 83.1367 982.28 83.0638 981.997 82.918C981.719 82.7721 981.503 82.5397 981.348 82.2207C981.193 81.8971 981.115 81.4733 981.115 80.9492V73.7783ZM988.348 81.2979V77.8799C988.348 77.6566 988.32 77.4788 988.266 77.3467C988.215 77.2145 988.138 77.1188 988.033 77.0596C987.933 76.9958 987.81 76.9639 987.664 76.9639C987.5 76.9639 987.363 76.998 987.254 77.0664C987.145 77.1348 987.062 77.2327 987.008 77.3604C986.958 77.488 986.933 77.6406 986.933 77.8184H985.012C985.012 77.4993 985.073 77.1986 985.196 76.916C985.319 76.6289 985.499 76.3783 985.736 76.1641C985.978 75.9453 986.265 75.7744 986.598 75.6514C986.93 75.5283 987.304 75.4668 987.719 75.4668C988.211 75.4668 988.648 75.5511 989.031 75.7197C989.414 75.8838 989.717 76.1458 989.94 76.5059C990.164 76.8659 990.275 77.333 990.275 77.9072V81.2021C990.275 81.6169 990.296 81.9541 990.337 82.2139C990.382 82.4736 990.449 82.6969 990.535 82.8838V83H988.607C988.521 82.7949 988.455 82.5397 988.409 82.2344C988.368 81.9245 988.348 81.6123 988.348 81.2979ZM988.58 78.4814L988.587 79.6299H987.883C987.701 79.6299 987.541 79.6595 987.404 79.7188C987.272 79.778 987.16 79.8623 987.069 79.9717C986.978 80.0765 986.91 80.1995 986.864 80.3408C986.823 80.4821 986.803 80.6325 986.803 80.792C986.803 80.9697 986.828 81.1201 986.878 81.2432C986.928 81.3662 987.003 81.4596 987.104 81.5234C987.204 81.5872 987.322 81.6191 987.459 81.6191C987.669 81.6191 987.851 81.5758 988.006 81.4893C988.161 81.4027 988.275 81.2979 988.348 81.1748C988.425 81.0518 988.45 80.9378 988.423 80.833L988.86 81.5781C988.806 81.7467 988.73 81.9222 988.635 82.1045C988.544 82.2868 988.427 82.4554 988.286 82.6104C988.145 82.7653 987.969 82.8929 987.76 82.9932C987.555 83.0889 987.311 83.1367 987.028 83.1367C986.632 83.1367 986.27 83.0456 985.941 82.8633C985.613 82.681 985.354 82.4258 985.162 82.0977C984.975 81.7695 984.882 81.3799 984.882 80.9287C984.882 80.555 984.941 80.2178 985.06 79.917C985.183 79.6117 985.365 79.3542 985.606 79.1445C985.848 78.9303 986.153 78.7663 986.522 78.6523C986.892 78.5384 987.325 78.4814 987.821 78.4814H988.58ZM988.614 72.5615H990.022C990.022 72.9626 989.924 73.3158 989.729 73.6211C989.537 73.9219 989.264 74.1589 988.908 74.332C988.557 74.5052 988.14 74.5918 987.657 74.5918C986.928 74.5918 986.352 74.4027 985.928 74.0244C985.504 73.6462 985.292 73.1585 985.292 72.5615H986.687C986.687 72.7985 986.759 73.0081 986.905 73.1904C987.051 73.3727 987.302 73.4639 987.657 73.4639C988.008 73.4639 988.254 73.3727 988.396 73.1904C988.541 73.0081 988.614 72.7985 988.614 72.5615Z" fill="#E0E0E9"/>
<path fill-rule="evenodd" clip-rule="evenodd" d="M984 33H359V31H984V33Z" fill="#D0CFD7"/>
<path fill-rule="evenodd" clip-rule="evenodd" d="M339 33H45V31H339V33Z" fill="url(#paint2_linear_1405_1438)"/>
<g filter="url(#filter0_d_1405_1438)">
<path d="M32 17C23.7125 17 17 23.7125 17 32C17 34.8125 17.7875 37.475 19.175 39.725C20.497 41.9468 22.3748 43.7861 24.6236 45.0617C26.8724 46.3373 29.4146 47.0053 32 47C37.475 47 42.2375 44.075 44.825 39.725C46.2125 37.475 47 34.8125 47 32C47 23.7125 40.2875 17 32 17ZM39.3875 30.7625L31.4 38.15C30.875 38.6375 30.1625 38.9 29.4875 38.9C28.775 38.9 28.0625 38.6375 27.5 38.075L23.7875 34.3625C23.2644 33.8332 22.9711 33.1191 22.9711 32.375C22.9711 31.6309 23.2644 30.9168 23.7875 30.3875C24.875 29.3 26.675 29.3 27.7625 30.3875L29.5625 32.1875L35.5625 26.6375C36.6875 25.5875 38.4875 25.6625 39.5375 26.7875C40.5875 27.9125 40.5125 29.7125 39.3875 30.7625Z" fill="url(#paint3_linear_1405_1438)"/>
</g>
<g filter="url(#filter1_d_1405_1438)">
<path d="M349 17C340.712 17 334 23.7125 334 32C334 34.8125 334.788 37.475 336.175 39.725C337.497 41.9468 339.375 43.7861 341.624 45.0617C343.872 46.3373 346.415 47.0053 349 47C354.475 47 359.238 44.075 361.825 39.725C363.213 37.475 364 34.8125 364 32C364 23.7125 357.288 17 349 17ZM356.387 30.7625L348.4 38.15C347.875 38.6375 347.162 38.9 346.487 38.9C345.775 38.9 345.062 38.6375 344.5 38.075L340.787 34.3625C340.264 33.8332 339.971 33.1191 339.971 32.375C339.971 31.6309 340.264 30.9168 340.787 30.3875C341.875 29.3 343.675 29.3 344.762 30.3875L346.562 32.1875L352.562 26.6375C353.687 25.5875 355.488 25.6625 356.538 26.7875C357.588 27.9125 357.512 29.7125 356.387 30.7625Z" fill="url(#paint4_linear_1405_1438)"/>
</g>
<circle cx="670.5" cy="32.5" r="14.5" fill="#D0CFD7"/>
<circle cx="976.5" cy="32.5" r="14.5" fill="#D0CFD7"/>
<defs>
<filter id="filter0_d_1405_1438" x="0" y="0" width="74" height="74" filterUnits="userSpaceOnUse" color-interpolation-filters="sRGB">
<feFlood flood-opacity="0" result="BackgroundImageFix"/>
<feColorMatrix in="SourceAlpha" type="matrix" values="0 0 0 0 0 0 0 0 0 0 0 0 0 0 0 0 0 0 127 0" result="hardAlpha"/>
<feOffset dx="5" dy="5"/>
<feGaussianBlur stdDeviation="11"/>
<feComposite in2="hardAlpha" operator="out"/>
<feColorMatrix type="matrix" values="0 0 0 0 0.0392157 0 0 0 0 0.560784 0 0 0 0 0.309804 0 0 0 0.2 0"/>
<feBlend mode="normal" in2="BackgroundImageFix" result="effect1_dropShadow_1405_1438"/>
<feBlend mode="normal" in="SourceGraphic" in2="effect1_dropShadow_1405_1438" result="shape"/>
</filter>
<filter id="filter1_d_1405_1438" x="317" y="0" width="74" height="74" filterUnits="userSpaceOnUse" color-interpolation-filters="sRGB">
<feFlood flood-opacity="0" result="BackgroundImageFix"/>
<feColorMatrix in="SourceAlpha" type="matrix" values="0 0 0 0 0 0 0 0 0 0 0 0 0 0 0 0 0 0 127 0" result="hardAlpha"/>
<feOffset dx="5" dy="5"/>
<feGaussianBlur stdDeviation="11"/>
<feComposite in2="hardAlpha" operator="out"/>
<feColorMatrix type="matrix" values="0 0 0 0 0.0392157 0 0 0 0 0.560784 0 0 0 0 0.309804 0 0 0 0.2 0"/>
<feBlend mode="normal" in2="BackgroundImageFix" result="effect1_dropShadow_1405_1438"/>
<feBlend mode="normal" in="SourceGraphic" in2="effect1_dropShadow_1405_1438" result="shape"/>
</filter>
<linearGradient id="paint0_linear_1405_1438" x1="32" y1="85" x2="32" y2="57" gradientUnits="userSpaceOnUse">
<stop stop-color="#5CCC94"/>
<stop offset="1" stop-color="#8CCAAE"/>
</linearGradient>
<linearGradient id="paint1_linear_1405_1438" x1="349" y1="77" x2="349" y2="57" gradientUnits="userSpaceOnUse">
<stop stop-color="#5CCC94"/>
<stop offset="1" stop-color="#8CCAAE"/>
</linearGradient>
<linearGradient id="paint2_linear_1405_1438" x1="192" y1="33" x2="192" y2="31" gradientUnits="userSpaceOnUse">
<stop stop-color="#5CCC94"/>
<stop offset="1" stop-color="#8CCAAE"/>
</linearGradient>
<linearGradient id="paint3_linear_1405_1438" x1="32" y1="47" x2="32" y2="17" gradientUnits="userSpaceOnUse">
<stop stop-color="#5CCC94"/>
<stop offset="1" stop-color="#8CCAAE"/>
</linearGradient>
<linearGradient id="paint4_linear_1405_1438" x1="349" y1="47" x2="349" y2="17" gradientUnits="userSpaceOnUse">
<stop stop-color="#5CCC94"/>
<stop offset="1" stop-color="#8CCAAE"/>
</linearGradient>
</defs>
</svg>
