<svg width="733" height="97" viewBox="0 0 733 97" fill="none" xmlns="http://www.w3.org/2000/svg">
<path d="M26.7529 68.6846H28.7422C28.7148 69.432 28.5645 70.0632 28.291 70.5781C28.0176 71.0885 27.6279 71.4759 27.1221 71.7402C26.6208 72.0046 26.0146 72.1367 25.3037 72.1367C24.7523 72.1367 24.2624 72.0456 23.834 71.8633C23.4056 71.6764 23.041 71.403 22.7402 71.043C22.4395 70.6829 22.2116 70.2386 22.0566 69.71C21.9062 69.1768 21.8311 68.5638 21.8311 67.8711V66.1826C21.8311 65.4899 21.9108 64.877 22.0703 64.3438C22.2344 63.8105 22.4668 63.3639 22.7676 63.0039C23.0729 62.6393 23.4398 62.3659 23.8682 62.1836C24.3011 61.9967 24.7887 61.9033 25.3311 61.9033C26.0557 61.9033 26.6618 62.04 27.1494 62.3135C27.637 62.5869 28.013 62.9857 28.2773 63.5098C28.5462 64.0293 28.708 64.665 28.7627 65.417H26.7666C26.7529 64.943 26.6982 64.5716 26.6025 64.3027C26.5114 64.0293 26.3656 63.8379 26.165 63.7285C25.9645 63.6146 25.6865 63.5576 25.3311 63.5576C25.0667 63.5576 24.8389 63.6055 24.6475 63.7012C24.4561 63.7923 24.2988 63.9404 24.1758 64.1455C24.0527 64.3506 23.9616 64.6195 23.9023 64.9521C23.8477 65.2848 23.8203 65.6904 23.8203 66.1689V67.8711C23.8203 68.3405 23.8454 68.7415 23.8955 69.0742C23.9456 69.4023 24.0254 69.6712 24.1348 69.8809C24.2441 70.0905 24.3923 70.2432 24.5791 70.3389C24.7705 70.4346 25.012 70.4824 25.3037 70.4824C25.641 70.4824 25.9121 70.4323 26.1172 70.332C26.3268 70.2318 26.4818 70.0518 26.582 69.792C26.6823 69.5322 26.7393 69.1631 26.7529 68.6846ZM24.5176 59.3125L25.3037 60.2832L26.0967 59.3125H27.7236V59.3809L25.9053 61.3018H24.7227L22.8906 59.374V59.3125H24.5176ZM31.9619 64.6035V72H30.041V64.6035H31.9619ZM30.0752 63.7217L31.415 61.6094H33.5684L31.6816 63.7217H30.0752ZM36.8428 70.0039C36.8428 69.8763 36.7995 69.7624 36.7129 69.6621C36.6263 69.5618 36.4896 69.4593 36.3027 69.3545C36.1159 69.2451 35.8675 69.1243 35.5576 68.9922C35.2204 68.8555 34.9219 68.7142 34.6621 68.5684C34.4023 68.4225 34.1813 68.2607 33.999 68.083C33.8213 67.9053 33.6868 67.7025 33.5957 67.4746C33.5046 67.2467 33.459 66.987 33.459 66.6953C33.459 66.3809 33.516 66.0915 33.6299 65.8271C33.7484 65.5583 33.917 65.3236 34.1357 65.123C34.3545 64.918 34.6211 64.7585 34.9355 64.6445C35.2546 64.526 35.6123 64.4668 36.0088 64.4668C36.5648 64.4668 37.041 64.5648 37.4375 64.7607C37.8385 64.9521 38.1462 65.221 38.3604 65.5674C38.5745 65.9137 38.6816 66.3171 38.6816 66.7773H36.7676C36.7676 66.6133 36.7425 66.4674 36.6924 66.3398C36.6423 66.2077 36.5602 66.1051 36.4463 66.0322C36.3369 65.9593 36.1888 65.9229 36.002 65.9229C35.8652 65.9229 35.7422 65.9525 35.6328 66.0117C35.528 66.071 35.4437 66.1507 35.3799 66.251C35.3206 66.3467 35.291 66.4606 35.291 66.5928C35.291 66.693 35.3115 66.7819 35.3525 66.8594C35.3981 66.9368 35.4688 67.012 35.5645 67.085C35.6602 67.1579 35.7878 67.2354 35.9473 67.3174C36.1113 67.3949 36.3118 67.4814 36.5488 67.5771C37.041 67.7594 37.4443 67.9554 37.7588 68.165C38.0778 68.3747 38.3148 68.6208 38.4697 68.9033C38.6247 69.1813 38.7021 69.5254 38.7021 69.9355C38.7021 70.2637 38.6383 70.5622 38.5107 70.8311C38.3877 71.0999 38.2077 71.3324 37.9707 71.5283C37.7337 71.7243 37.4489 71.8747 37.1162 71.9795C36.7881 72.0843 36.4212 72.1367 36.0156 72.1367C35.4186 72.1367 34.915 72.0182 34.5049 71.7812C34.0947 71.5443 33.7848 71.2412 33.5752 70.8721C33.3656 70.4984 33.2607 70.111 33.2607 69.71H35.0791C35.0882 69.9561 35.1338 70.1497 35.2158 70.291C35.3024 70.4277 35.4186 70.5234 35.5645 70.5781C35.7103 70.6328 35.8721 70.6602 36.0498 70.6602C36.2275 70.6602 36.3734 70.6374 36.4873 70.5918C36.6058 70.5417 36.6947 70.4665 36.7539 70.3662C36.8132 70.2614 36.8428 70.1406 36.8428 70.0039ZM41.9287 61.5V72H40.0078V61.5H41.9287ZM43.2275 68.5547V68.0557C43.2275 67.4769 43.2959 66.9642 43.4326 66.5176C43.5739 66.071 43.7744 65.6973 44.0342 65.3965C44.2939 65.0911 44.6061 64.861 44.9707 64.7061C45.3398 64.5465 45.7523 64.4668 46.208 64.4668C46.6683 64.4668 47.0807 64.5465 47.4453 64.7061C47.8145 64.861 48.1289 65.0911 48.3887 65.3965C48.653 65.6973 48.8558 66.071 48.9971 66.5176C49.1383 66.9642 49.209 67.4769 49.209 68.0557V68.5547C49.209 69.1289 49.1383 69.6393 48.9971 70.0859C48.8558 70.5326 48.653 70.9085 48.3887 71.2139C48.1289 71.5192 47.8167 71.7493 47.4521 71.9043C47.0876 72.0592 46.6774 72.1367 46.2217 72.1367C45.766 72.1367 45.3535 72.0592 44.9844 71.9043C44.6198 71.7493 44.3053 71.5192 44.041 71.2139C43.7767 70.9085 43.5739 70.5326 43.4326 70.0859C43.2959 69.6393 43.2275 69.1289 43.2275 68.5547ZM45.1416 68.0557V68.5547C45.1416 68.8965 45.1644 69.1927 45.21 69.4434C45.2601 69.694 45.3307 69.9014 45.4219 70.0654C45.5176 70.2295 45.6315 70.3503 45.7637 70.4277C45.8958 70.5052 46.0485 70.5439 46.2217 70.5439C46.3949 70.5439 46.5498 70.5052 46.6865 70.4277C46.8232 70.3503 46.9349 70.2295 47.0215 70.0654C47.1126 69.9014 47.1787 69.694 47.2197 69.4434C47.2653 69.1927 47.2881 68.8965 47.2881 68.5547V68.0557C47.2881 67.723 47.263 67.4313 47.2129 67.1807C47.1628 66.9255 47.0921 66.7181 47.001 66.5586C46.9098 66.3945 46.7959 66.2715 46.6592 66.1895C46.527 66.1029 46.3766 66.0596 46.208 66.0596C46.0394 66.0596 45.889 66.1029 45.7568 66.1895C45.6292 66.2715 45.5176 66.3945 45.4219 66.5586C45.3307 66.7181 45.2601 66.9255 45.21 67.1807C45.1644 67.4313 45.1416 67.723 45.1416 68.0557ZM55.5596 66.0254V74.8438H53.6523V64.6035H55.416L55.5596 66.0254ZM59.4014 68.0488V68.541C59.4014 69.1198 59.3512 69.6325 59.251 70.0791C59.1507 70.5212 59.0003 70.8971 58.7998 71.207C58.6038 71.5124 58.3577 71.7448 58.0615 71.9043C57.7653 72.0592 57.4189 72.1367 57.0225 72.1367C56.6533 72.1367 56.3343 72.0501 56.0654 71.877C55.8011 71.6992 55.5778 71.4554 55.3955 71.1455C55.2132 70.8356 55.0674 70.4733 54.958 70.0586C54.8486 69.6439 54.7643 69.1995 54.7051 68.7256V67.96C54.7598 67.4541 54.8395 66.9893 54.9443 66.5654C55.0492 66.137 55.1927 65.7656 55.375 65.4512C55.5618 65.1367 55.7874 64.8952 56.0518 64.7266C56.3206 64.5534 56.6396 64.4668 57.0088 64.4668C57.4098 64.4668 57.7585 64.5397 58.0547 64.6855C58.3555 64.8314 58.6038 65.0524 58.7998 65.3486C59.0003 65.6403 59.1507 66.0117 59.251 66.4629C59.3512 66.9141 59.4014 67.4427 59.4014 68.0488ZM57.4873 68.541V68.0488C57.4873 67.6934 57.4668 67.3903 57.4258 67.1396C57.3893 66.889 57.3301 66.6839 57.248 66.5244C57.166 66.3649 57.0589 66.2487 56.9268 66.1758C56.7946 66.1029 56.6328 66.0664 56.4414 66.0664C56.2546 66.0664 56.0905 66.1029 55.9492 66.1758C55.8125 66.2487 55.7008 66.3558 55.6143 66.4971C55.5277 66.6338 55.4616 66.8024 55.416 67.0029C55.3704 67.1989 55.3454 67.4222 55.3408 67.6729V69.0127C55.3499 69.3089 55.3887 69.571 55.457 69.7988C55.5299 70.0267 55.6462 70.209 55.8057 70.3457C55.9652 70.4779 56.1816 70.5439 56.4551 70.5439C56.651 70.5439 56.8128 70.5029 56.9404 70.4209C57.0726 70.3389 57.1797 70.2158 57.2617 70.0518C57.3438 69.8877 57.4007 69.6803 57.4326 69.4297C57.4691 69.179 57.4873 68.8828 57.4873 68.541ZM60.3584 68.5547V68.0557C60.3584 67.4769 60.4268 66.9642 60.5635 66.5176C60.7048 66.071 60.9053 65.6973 61.165 65.3965C61.4248 65.0911 61.737 64.861 62.1016 64.7061C62.4707 64.5465 62.8831 64.4668 63.3389 64.4668C63.7992 64.4668 64.2116 64.5465 64.5762 64.7061C64.9453 64.861 65.2598 65.0911 65.5195 65.3965C65.7839 65.6973 65.9867 66.071 66.1279 66.5176C66.2692 66.9642 66.3398 67.4769 66.3398 68.0557V68.5547C66.3398 69.1289 66.2692 69.6393 66.1279 70.0859C65.9867 70.5326 65.7839 70.9085 65.5195 71.2139C65.2598 71.5192 64.9476 71.7493 64.583 71.9043C64.2184 72.0592 63.8083 72.1367 63.3525 72.1367C62.8968 72.1367 62.4844 72.0592 62.1152 71.9043C61.7507 71.7493 61.4362 71.5192 61.1719 71.2139C60.9076 70.9085 60.7048 70.5326 60.5635 70.0859C60.4268 69.6393 60.3584 69.1289 60.3584 68.5547ZM62.2725 68.0557V68.5547C62.2725 68.8965 62.2952 69.1927 62.3408 69.4434C62.391 69.694 62.4616 69.9014 62.5527 70.0654C62.6484 70.2295 62.7624 70.3503 62.8945 70.4277C63.0267 70.5052 63.1794 70.5439 63.3525 70.5439C63.5257 70.5439 63.6807 70.5052 63.8174 70.4277C63.9541 70.3503 64.0658 70.2295 64.1523 70.0654C64.2435 69.9014 64.3096 69.694 64.3506 69.4434C64.3962 69.1927 64.4189 68.8965 64.4189 68.5547V68.0557C64.4189 67.723 64.3939 67.4313 64.3438 67.1807C64.2936 66.9255 64.223 66.7181 64.1318 66.5586C64.0407 66.3945 63.9268 66.2715 63.79 66.1895C63.6579 66.1029 63.5075 66.0596 63.3389 66.0596C63.1702 66.0596 63.0199 66.1029 62.8877 66.1895C62.7601 66.2715 62.6484 66.3945 62.5527 66.5586C62.4616 66.7181 62.391 66.9255 62.3408 67.1807C62.2952 67.4313 62.2725 67.723 62.2725 68.0557ZM72.499 70.4072V72H67.8027V70.4072H72.499ZM72.4512 65.7656L68.5547 72H67.2764V70.7969L71.1523 64.6035H72.4512V65.7656ZM71.7812 64.6035V66.1963H67.3516V64.6035H71.7812ZM75.6504 66.1826V72H73.7295V64.6035H75.5273L75.6504 66.1826ZM75.3633 68.0488L74.8506 68.0625C74.8415 67.5065 74.8939 67.0075 75.0078 66.5654C75.1263 66.1234 75.2926 65.7474 75.5068 65.4375C75.7256 65.123 75.9854 64.8838 76.2861 64.7197C76.5915 64.5511 76.931 64.4668 77.3047 64.4668C77.5918 64.4668 77.8538 64.5169 78.0908 64.6172C78.3324 64.7174 78.5397 64.877 78.7129 65.0957C78.8861 65.3145 79.0205 65.6061 79.1162 65.9707C79.2119 66.3307 79.2598 66.7728 79.2598 67.2969V72H77.3389V67.2832C77.3389 66.9642 77.307 66.7181 77.2432 66.5449C77.1794 66.3672 77.0837 66.2441 76.9561 66.1758C76.8285 66.1029 76.6689 66.0664 76.4775 66.0664C76.2952 66.0664 76.1335 66.1188 75.9922 66.2236C75.8509 66.3239 75.7324 66.4629 75.6367 66.6406C75.5456 66.8184 75.4749 67.028 75.4248 67.2695C75.3792 67.5111 75.3587 67.7708 75.3633 68.0488ZM83.9219 70.2979V66.8799C83.9219 66.6566 83.8945 66.4788 83.8398 66.3467C83.7897 66.2145 83.7122 66.1188 83.6074 66.0596C83.5072 65.9958 83.3841 65.9639 83.2383 65.9639C83.0742 65.9639 82.9375 65.998 82.8281 66.0664C82.7188 66.1348 82.6367 66.2327 82.582 66.3604C82.5319 66.488 82.5068 66.6406 82.5068 66.8184H80.5859C80.5859 66.4993 80.6475 66.1986 80.7705 65.916C80.8936 65.6289 81.0736 65.3783 81.3105 65.1641C81.5521 64.9453 81.8392 64.7744 82.1719 64.6514C82.5046 64.5283 82.8783 64.4668 83.293 64.4668C83.7852 64.4668 84.2227 64.5511 84.6055 64.7197C84.9883 64.8838 85.2913 65.1458 85.5146 65.5059C85.738 65.8659 85.8496 66.333 85.8496 66.9072V70.2021C85.8496 70.6169 85.8701 70.9541 85.9111 71.2139C85.9567 71.4736 86.0228 71.6969 86.1094 71.8838V72H84.1816C84.0951 71.7949 84.029 71.5397 83.9834 71.2344C83.9424 70.9245 83.9219 70.6123 83.9219 70.2979ZM84.1543 67.4814L84.1611 68.6299H83.457C83.2747 68.6299 83.1152 68.6595 82.9785 68.7188C82.8464 68.778 82.7347 68.8623 82.6436 68.9717C82.5524 69.0765 82.484 69.1995 82.4385 69.3408C82.3975 69.4821 82.377 69.6325 82.377 69.792C82.377 69.9697 82.402 70.1201 82.4521 70.2432C82.5023 70.3662 82.5775 70.4596 82.6777 70.5234C82.778 70.5872 82.8965 70.6191 83.0332 70.6191C83.2428 70.6191 83.4251 70.5758 83.5801 70.4893C83.735 70.4027 83.849 70.2979 83.9219 70.1748C83.9993 70.0518 84.0244 69.9378 83.9971 69.833L84.4346 70.5781C84.3799 70.7467 84.3047 70.9222 84.209 71.1045C84.1178 71.2868 84.0016 71.4554 83.8604 71.6104C83.7191 71.7653 83.5436 71.8929 83.334 71.9932C83.1289 72.0889 82.8851 72.1367 82.6025 72.1367C82.2061 72.1367 81.8438 72.0456 81.5156 71.8633C81.1875 71.681 80.9277 71.4258 80.7363 71.0977C80.5495 70.7695 80.4561 70.3799 80.4561 69.9287C80.4561 69.555 80.5153 69.2178 80.6338 68.917C80.7568 68.6117 80.9391 68.3542 81.1807 68.1445C81.4222 67.9303 81.7275 67.7663 82.0967 67.6523C82.4658 67.5384 82.8988 67.4814 83.3955 67.4814H84.1543ZM82.2812 63.6123L83.6211 61.5H85.7744L83.8877 63.6123H82.2812ZM89.3359 70.5234L90.5254 64.6035H92.5215L90.4912 72H89.2949L89.3359 70.5234ZM88.6318 64.6035L89.8418 70.5303L89.8623 72H88.6592L86.6289 64.6035H88.6318ZM96.5957 70.2979V66.8799C96.5957 66.6566 96.5684 66.4788 96.5137 66.3467C96.4635 66.2145 96.3861 66.1188 96.2812 66.0596C96.181 65.9958 96.0579 65.9639 95.9121 65.9639C95.748 65.9639 95.6113 65.998 95.502 66.0664C95.3926 66.1348 95.3105 66.2327 95.2559 66.3604C95.2057 66.488 95.1807 66.6406 95.1807 66.8184H93.2598C93.2598 66.4993 93.3213 66.1986 93.4443 65.916C93.5674 65.6289 93.7474 65.3783 93.9844 65.1641C94.2259 64.9453 94.513 64.7744 94.8457 64.6514C95.1784 64.5283 95.5521 64.4668 95.9668 64.4668C96.459 64.4668 96.8965 64.5511 97.2793 64.7197C97.6621 64.8838 97.9652 65.1458 98.1885 65.5059C98.4118 65.8659 98.5234 66.333 98.5234 66.9072V70.2021C98.5234 70.6169 98.5439 70.9541 98.585 71.2139C98.6305 71.4736 98.6966 71.6969 98.7832 71.8838V72H96.8555C96.7689 71.7949 96.7028 71.5397 96.6572 71.2344C96.6162 70.9245 96.5957 70.6123 96.5957 70.2979ZM96.8281 67.4814L96.835 68.6299H96.1309C95.9486 68.6299 95.7891 68.6595 95.6523 68.7188C95.5202 68.778 95.4085 68.8623 95.3174 68.9717C95.2262 69.0765 95.1579 69.1995 95.1123 69.3408C95.0713 69.4821 95.0508 69.6325 95.0508 69.792C95.0508 69.9697 95.0758 70.1201 95.126 70.2432C95.1761 70.3662 95.2513 70.4596 95.3516 70.5234C95.4518 70.5872 95.5703 70.6191 95.707 70.6191C95.9167 70.6191 96.099 70.5758 96.2539 70.4893C96.4089 70.4027 96.5228 70.2979 96.5957 70.1748C96.6732 70.0518 96.6982 69.9378 96.6709 69.833L97.1084 70.5781C97.0537 70.7467 96.9785 70.9222 96.8828 71.1045C96.7917 71.2868 96.6755 71.4554 96.5342 71.6104C96.3929 71.7653 96.2174 71.8929 96.0078 71.9932C95.8027 72.0889 95.5589 72.1367 95.2764 72.1367C94.8799 72.1367 94.5176 72.0456 94.1895 71.8633C93.8613 71.681 93.6016 71.4258 93.4102 71.0977C93.2233 70.7695 93.1299 70.3799 93.1299 69.9287C93.1299 69.555 93.1891 69.2178 93.3076 68.917C93.4307 68.6117 93.613 68.3542 93.8545 68.1445C94.096 67.9303 94.4014 67.7663 94.7705 67.6523C95.1396 67.5384 95.5726 67.4814 96.0693 67.4814H96.8281ZM102.611 70.5439C102.789 70.5439 102.942 70.5075 103.069 70.4346C103.201 70.3617 103.302 70.2432 103.37 70.0791C103.438 69.915 103.475 69.7031 103.479 69.4434H105.277C105.277 69.9993 105.159 70.4801 104.922 70.8857C104.689 71.2868 104.375 71.5967 103.979 71.8154C103.587 72.0296 103.142 72.1367 102.646 72.1367C102.149 72.1367 101.716 72.057 101.347 71.8975C100.978 71.738 100.672 71.5055 100.431 71.2002C100.194 70.8949 100.014 70.5234 99.8906 70.0859C99.7721 69.6439 99.7129 69.138 99.7129 68.5684V68.0283C99.7129 67.4678 99.7721 66.9665 99.8906 66.5244C100.014 66.0824 100.194 65.7087 100.431 65.4033C100.672 65.098 100.975 64.8656 101.34 64.7061C101.709 64.5465 102.142 64.4668 102.639 64.4668C103.172 64.4668 103.634 64.5785 104.026 64.8018C104.418 65.0205 104.724 65.3441 104.942 65.7725C105.166 66.2008 105.277 66.7295 105.277 67.3584H103.479C103.475 67.0758 103.441 66.8411 103.377 66.6543C103.318 66.4629 103.224 66.3171 103.097 66.2168C102.974 66.112 102.81 66.0596 102.604 66.0596C102.39 66.0596 102.217 66.1051 102.085 66.1963C101.957 66.2829 101.859 66.4105 101.791 66.5791C101.727 66.7432 101.684 66.9482 101.661 67.1943C101.638 67.4404 101.627 67.7184 101.627 68.0283V68.5684C101.627 68.901 101.636 69.1904 101.654 69.4365C101.677 69.6781 101.72 69.8831 101.784 70.0518C101.853 70.2158 101.951 70.3389 102.078 70.4209C102.21 70.5029 102.388 70.5439 102.611 70.5439ZM109.358 72.1367C108.853 72.1367 108.404 72.0592 108.012 71.9043C107.624 71.7493 107.296 71.526 107.027 71.2344C106.758 70.9382 106.553 70.5804 106.412 70.1611C106.271 69.7419 106.2 69.2633 106.2 68.7256V68.1172C106.2 67.5156 106.269 66.9893 106.405 66.5381C106.542 66.0824 106.736 65.6995 106.986 65.3896C107.237 65.0798 107.545 64.8496 107.909 64.6992C108.278 64.5443 108.695 64.4668 109.16 64.4668C109.625 64.4668 110.033 64.5443 110.384 64.6992C110.739 64.8496 111.033 65.0775 111.266 65.3828C111.498 65.6836 111.674 66.0573 111.792 66.5039C111.91 66.9505 111.97 67.4701 111.97 68.0625V68.9375H107.014V67.5908H110.09V67.4199C110.09 67.1191 110.058 66.8685 109.994 66.668C109.93 66.4629 109.83 66.3102 109.693 66.21C109.557 66.1097 109.374 66.0596 109.146 66.0596C108.955 66.0596 108.793 66.0983 108.661 66.1758C108.529 66.2533 108.424 66.374 108.347 66.5381C108.269 66.7021 108.212 66.9163 108.176 67.1807C108.139 67.4404 108.121 67.7526 108.121 68.1172V68.7256C108.121 69.0674 108.151 69.3545 108.21 69.5869C108.269 69.8148 108.356 70.0016 108.47 70.1475C108.588 70.2887 108.732 70.3913 108.9 70.4551C109.069 70.5143 109.265 70.5439 109.488 70.5439C109.826 70.5439 110.129 70.4847 110.397 70.3662C110.671 70.2432 110.903 70.0768 111.095 69.8672L111.86 71.0293C111.728 71.2025 111.546 71.3757 111.313 71.5488C111.081 71.722 110.803 71.8633 110.479 71.9727C110.156 72.082 109.782 72.1367 109.358 72.1367ZM113.166 64.6035H115.094V72.4102C115.094 72.9661 115.005 73.4355 114.827 73.8184C114.654 74.2012 114.403 74.4906 114.075 74.6865C113.747 74.887 113.351 74.9873 112.886 74.9873C112.735 74.9873 112.587 74.9782 112.441 74.96C112.296 74.9417 112.147 74.9121 111.997 74.8711L112.004 73.3125C112.095 73.3307 112.184 73.3444 112.271 73.3535C112.353 73.3626 112.435 73.3672 112.517 73.3672C112.662 73.3672 112.783 73.333 112.879 73.2646C112.975 73.2008 113.045 73.0983 113.091 72.957C113.141 72.8158 113.166 72.6335 113.166 72.4102V64.6035ZM113.036 62.6895C113.036 62.3932 113.132 62.1494 113.323 61.958C113.515 61.762 113.768 61.6641 114.082 61.6641C114.401 61.6641 114.656 61.762 114.848 61.958C115.039 62.1494 115.135 62.3932 115.135 62.6895C115.135 62.9811 115.039 63.2249 114.848 63.4209C114.656 63.6123 114.401 63.708 114.082 63.708C113.768 63.708 113.515 63.6123 113.323 63.4209C113.132 63.2249 113.036 62.9811 113.036 62.6895ZM54.6709 90.4072V92H49.9746V90.4072H54.6709ZM54.623 85.7656L50.7266 92H49.4482V90.7969L53.3242 84.6035H54.623V85.7656ZM53.9531 84.6035V86.1963H49.5234V84.6035H53.9531ZM57.8223 86.1826V92H55.9014V84.6035H57.6992L57.8223 86.1826ZM57.5352 88.0488L57.0225 88.0625C57.0133 87.5065 57.0658 87.0075 57.1797 86.5654C57.2982 86.1234 57.4645 85.7474 57.6787 85.4375C57.8975 85.123 58.1572 84.8838 58.458 84.7197C58.7633 84.5511 59.1029 84.4668 59.4766 84.4668C59.7637 84.4668 60.0257 84.5169 60.2627 84.6172C60.5042 84.7174 60.7116 84.877 60.8848 85.0957C61.0579 85.3145 61.1924 85.6061 61.2881 85.9707C61.3838 86.3307 61.4316 86.7728 61.4316 87.2969V92H59.5107V87.2832C59.5107 86.9642 59.4788 86.7181 59.415 86.5449C59.3512 86.3672 59.2555 86.2441 59.1279 86.1758C59.0003 86.1029 58.8408 86.0664 58.6494 86.0664C58.4671 86.0664 58.3053 86.1188 58.1641 86.2236C58.0228 86.3239 57.9043 86.4629 57.8086 86.6406C57.7174 86.8184 57.6468 87.028 57.5967 87.2695C57.5511 87.5111 57.5306 87.7708 57.5352 88.0488ZM66.0938 90.2979V86.8799C66.0938 86.6566 66.0664 86.4788 66.0117 86.3467C65.9616 86.2145 65.8841 86.1188 65.7793 86.0596C65.679 85.9958 65.556 85.9639 65.4102 85.9639C65.2461 85.9639 65.1094 85.998 65 86.0664C64.8906 86.1348 64.8086 86.2327 64.7539 86.3604C64.7038 86.488 64.6787 86.6406 64.6787 86.8184H62.7578C62.7578 86.4993 62.8193 86.1986 62.9424 85.916C63.0654 85.6289 63.2454 85.3783 63.4824 85.1641C63.724 84.9453 64.0111 84.7744 64.3438 84.6514C64.6764 84.5283 65.0501 84.4668 65.4648 84.4668C65.957 84.4668 66.3945 84.5511 66.7773 84.7197C67.1602 84.8838 67.4632 85.1458 67.6865 85.5059C67.9098 85.8659 68.0215 86.333 68.0215 86.9072V90.2021C68.0215 90.6169 68.042 90.9541 68.083 91.2139C68.1286 91.4736 68.1947 91.6969 68.2812 91.8838V92H66.3535C66.2669 91.7949 66.2008 91.5397 66.1553 91.2344C66.1143 90.9245 66.0938 90.6123 66.0938 90.2979ZM66.3262 87.4814L66.333 88.6299H65.6289C65.4466 88.6299 65.2871 88.6595 65.1504 88.7188C65.0182 88.778 64.9066 88.8623 64.8154 88.9717C64.7243 89.0765 64.6559 89.1995 64.6104 89.3408C64.5693 89.4821 64.5488 89.6325 64.5488 89.792C64.5488 89.9697 64.5739 90.1201 64.624 90.2432C64.6742 90.3662 64.7493 90.4596 64.8496 90.5234C64.9499 90.5872 65.0684 90.6191 65.2051 90.6191C65.4147 90.6191 65.597 90.5758 65.752 90.4893C65.9069 90.4027 66.0208 90.2979 66.0938 90.1748C66.1712 90.0518 66.1963 89.9378 66.1689 89.833L66.6064 90.5781C66.5518 90.7467 66.4766 90.9222 66.3809 91.1045C66.2897 91.2868 66.1735 91.4554 66.0322 91.6104C65.891 91.7653 65.7155 91.8929 65.5059 91.9932C65.3008 92.0889 65.057 92.1367 64.7744 92.1367C64.3779 92.1367 64.0156 92.0456 63.6875 91.8633C63.3594 91.681 63.0996 91.4258 62.9082 91.0977C62.7214 90.7695 62.6279 90.3799 62.6279 89.9287C62.6279 89.555 62.6872 89.2178 62.8057 88.917C62.9287 88.6117 63.111 88.3542 63.3525 88.1445C63.5941 87.9303 63.8994 87.7663 64.2686 87.6523C64.6377 87.5384 65.0706 87.4814 65.5674 87.4814H66.3262ZM72.1094 90.5439C72.2871 90.5439 72.4398 90.5075 72.5674 90.4346C72.6995 90.3617 72.7998 90.2432 72.8682 90.0791C72.9365 89.915 72.973 89.7031 72.9775 89.4434H74.7754C74.7754 89.9993 74.6569 90.4801 74.4199 90.8857C74.1875 91.2868 73.873 91.5967 73.4766 91.8154C73.0846 92.0296 72.6403 92.1367 72.1436 92.1367C71.6468 92.1367 71.2139 92.057 70.8447 91.8975C70.4756 91.738 70.1702 91.5055 69.9287 91.2002C69.6917 90.8949 69.5117 90.5234 69.3887 90.0859C69.2702 89.6439 69.2109 89.138 69.2109 88.5684V88.0283C69.2109 87.4678 69.2702 86.9665 69.3887 86.5244C69.5117 86.0824 69.6917 85.7087 69.9287 85.4033C70.1702 85.098 70.4733 84.8656 70.8379 84.7061C71.207 84.5465 71.64 84.4668 72.1367 84.4668C72.6699 84.4668 73.1325 84.5785 73.5244 84.8018C73.9163 85.0205 74.2217 85.3441 74.4404 85.7725C74.6637 86.2008 74.7754 86.7295 74.7754 87.3584H72.9775C72.973 87.0758 72.9388 86.8411 72.875 86.6543C72.8158 86.4629 72.7223 86.3171 72.5947 86.2168C72.4717 86.112 72.3076 86.0596 72.1025 86.0596C71.8883 86.0596 71.7152 86.1051 71.583 86.1963C71.4554 86.2829 71.3574 86.4105 71.2891 86.5791C71.2253 86.7432 71.182 86.9482 71.1592 87.1943C71.1364 87.4404 71.125 87.7184 71.125 88.0283V88.5684C71.125 88.901 71.1341 89.1904 71.1523 89.4365C71.1751 89.6781 71.2184 89.8831 71.2822 90.0518C71.3506 90.2158 71.4486 90.3389 71.5762 90.4209C71.7083 90.5029 71.8861 90.5439 72.1094 90.5439ZM71.125 81.4932L71.9111 82.4639L72.7041 81.4932H74.3311V81.5615L72.5127 83.4824H71.3301L69.498 81.5547V81.4932H71.125ZM77.79 81.4932V92H75.876V81.4932H77.79ZM81.6797 84.6035L79.0752 88.2812L77.5098 90.0381L76.833 88.582L78.0361 86.8252L79.3965 84.6035H81.6797ZM79.6836 92L78.0703 88.6025L79.3896 87.3857L81.8779 92H79.6836ZM84.4346 91.1523L85.9795 84.6035H87.9756L85.542 93.1074C85.4873 93.2943 85.4121 93.4948 85.3164 93.709C85.2207 93.9277 85.0931 94.1328 84.9336 94.3242C84.7786 94.5202 84.5827 94.6797 84.3457 94.8027C84.1087 94.9258 83.8239 94.9873 83.4912 94.9873C83.3226 94.9873 83.1859 94.9759 83.0811 94.9531C82.9808 94.9349 82.8532 94.903 82.6982 94.8574V93.3672C82.7393 93.3672 82.778 93.3672 82.8145 93.3672C82.8555 93.3717 82.8942 93.374 82.9307 93.374C83.1449 93.374 83.3158 93.3444 83.4434 93.2852C83.571 93.2305 83.6735 93.1439 83.751 93.0254C83.833 92.9069 83.9014 92.7588 83.9561 92.5811L84.4346 91.1523ZM84.0381 84.6035L85.1865 89.9082L85.4463 92.0684L84.1543 92.1914L81.9873 84.6035H84.0381Z" fill="url(#paint0_linear_363_2923)"/>
<path d="M364.045 62.0469V72H362.042V62.0469H364.045ZM367.162 66.2783V67.9326H363.539V66.2783H367.162ZM367.545 62.0469V63.708H363.539V62.0469H367.545ZM371.646 70.2979V66.8799C371.646 66.6566 371.619 66.4788 371.564 66.3467C371.514 66.2145 371.437 66.1188 371.332 66.0596C371.232 65.9958 371.109 65.9639 370.963 65.9639C370.799 65.9639 370.662 65.998 370.553 66.0664C370.443 66.1348 370.361 66.2327 370.307 66.3604C370.257 66.488 370.231 66.6406 370.231 66.8184H368.311C368.311 66.4993 368.372 66.1986 368.495 65.916C368.618 65.6289 368.798 65.3783 369.035 65.1641C369.277 64.9453 369.564 64.7744 369.896 64.6514C370.229 64.5283 370.603 64.4668 371.018 64.4668C371.51 64.4668 371.947 64.5511 372.33 64.7197C372.713 64.8838 373.016 65.1458 373.239 65.5059C373.463 65.8659 373.574 66.333 373.574 66.9072V70.2021C373.574 70.6169 373.595 70.9541 373.636 71.2139C373.681 71.4736 373.747 71.6969 373.834 71.8838V72H371.906C371.82 71.7949 371.754 71.5397 371.708 71.2344C371.667 70.9245 371.646 70.6123 371.646 70.2979ZM371.879 67.4814L371.886 68.6299H371.182C370.999 68.6299 370.84 68.6595 370.703 68.7188C370.571 68.778 370.459 68.8623 370.368 68.9717C370.277 69.0765 370.209 69.1995 370.163 69.3408C370.122 69.4821 370.102 69.6325 370.102 69.792C370.102 69.9697 370.127 70.1201 370.177 70.2432C370.227 70.3662 370.302 70.4596 370.402 70.5234C370.503 70.5872 370.621 70.6191 370.758 70.6191C370.967 70.6191 371.15 70.5758 371.305 70.4893C371.46 70.4027 371.574 70.2979 371.646 70.1748C371.724 70.0518 371.749 69.9378 371.722 69.833L372.159 70.5781C372.104 70.7467 372.029 70.9222 371.934 71.1045C371.842 71.2868 371.726 71.4554 371.585 71.6104C371.444 71.7653 371.268 71.8929 371.059 71.9932C370.854 72.0889 370.61 72.1367 370.327 72.1367C369.931 72.1367 369.568 72.0456 369.24 71.8633C368.912 71.681 368.652 71.4258 368.461 71.0977C368.274 70.7695 368.181 70.3799 368.181 69.9287C368.181 69.555 368.24 69.2178 368.358 68.917C368.481 68.6117 368.664 68.3542 368.905 68.1445C369.147 67.9303 369.452 67.7663 369.821 67.6523C370.19 67.5384 370.623 67.4814 371.12 67.4814H371.879ZM376.903 61.4932V72H374.989V61.4932H376.903ZM380.793 64.6035L378.188 68.2812L376.623 70.0381L375.946 68.582L377.149 66.8252L378.51 64.6035H380.793ZM378.797 72L377.184 68.6025L378.503 67.3857L380.991 72H378.797ZM384.915 64.6035V66.0459H381.142V64.6035H384.915ZM382.01 62.7783H383.917V69.7441C383.917 69.9492 383.938 70.1064 383.979 70.2158C384.02 70.3252 384.081 70.4027 384.163 70.4482C384.25 70.4893 384.364 70.5098 384.505 70.5098C384.601 70.5098 384.689 70.5052 384.771 70.4961C384.854 70.4824 384.915 70.4688 384.956 70.4551V71.9521C384.806 72.0114 384.646 72.057 384.478 72.0889C384.313 72.1208 384.118 72.1367 383.89 72.1367C383.507 72.1367 383.174 72.0638 382.892 71.918C382.614 71.7721 382.397 71.5397 382.242 71.2207C382.087 70.8971 382.01 70.4733 382.01 69.9492V62.7783ZM389.557 70.2227V64.6035H391.478V72H389.673L389.557 70.2227ZM389.775 68.6982L390.309 68.6846C390.309 69.1813 390.261 69.6416 390.165 70.0654C390.069 70.4847 389.926 70.8493 389.734 71.1592C389.543 71.4691 389.304 71.7106 389.017 71.8838C388.729 72.0524 388.39 72.1367 387.998 72.1367C387.697 72.1367 387.419 72.0866 387.164 71.9863C386.913 71.8815 386.697 71.7197 386.515 71.501C386.332 71.2777 386.189 70.9928 386.084 70.6465C385.984 70.2956 385.934 69.874 385.934 69.3818V64.6035H387.854V69.4023C387.854 69.6029 387.873 69.776 387.909 69.9219C387.946 70.0632 387.996 70.1794 388.06 70.2705C388.123 70.3617 388.199 70.4277 388.285 70.4688C388.372 70.5052 388.47 70.5234 388.579 70.5234C388.88 70.5234 389.117 70.446 389.29 70.291C389.468 70.1315 389.593 69.915 389.666 69.6416C389.739 69.3636 389.775 69.0492 389.775 68.6982ZM394.786 66.251V72H392.872V64.6035H394.677L394.786 66.251ZM396.529 64.5488L396.502 66.4561C396.415 66.4378 396.311 66.4242 396.188 66.415C396.069 66.4059 395.964 66.4014 395.873 66.4014C395.659 66.4014 395.477 66.4355 395.326 66.5039C395.176 66.5677 395.05 66.6657 394.95 66.7979C394.854 66.9255 394.782 67.085 394.731 67.2764C394.681 67.4678 394.652 67.6842 394.643 67.9258L394.28 67.7891C394.28 67.306 394.317 66.8639 394.39 66.4629C394.467 66.0573 394.581 65.7064 394.731 65.4102C394.882 65.1094 395.062 64.877 395.271 64.7129C395.486 64.5488 395.727 64.4668 395.996 64.4668C396.087 64.4668 396.183 64.4759 396.283 64.4941C396.388 64.5078 396.47 64.526 396.529 64.5488ZM400.562 70.2979V66.8799C400.562 66.6566 400.535 66.4788 400.48 66.3467C400.43 66.2145 400.353 66.1188 400.248 66.0596C400.148 65.9958 400.025 65.9639 399.879 65.9639C399.715 65.9639 399.578 65.998 399.469 66.0664C399.359 66.1348 399.277 66.2327 399.223 66.3604C399.173 66.488 399.147 66.6406 399.147 66.8184H397.227C397.227 66.4993 397.288 66.1986 397.411 65.916C397.534 65.6289 397.714 65.3783 397.951 65.1641C398.193 64.9453 398.48 64.7744 398.812 64.6514C399.145 64.5283 399.519 64.4668 399.934 64.4668C400.426 64.4668 400.863 64.5511 401.246 64.7197C401.629 64.8838 401.932 65.1458 402.155 65.5059C402.379 65.8659 402.49 66.333 402.49 66.9072V70.2021C402.49 70.6169 402.511 70.9541 402.552 71.2139C402.597 71.4736 402.663 71.6969 402.75 71.8838V72H400.822C400.736 71.7949 400.67 71.5397 400.624 71.2344C400.583 70.9245 400.562 70.6123 400.562 70.2979ZM400.795 67.4814L400.802 68.6299H400.098C399.915 68.6299 399.756 68.6595 399.619 68.7188C399.487 68.778 399.375 68.8623 399.284 68.9717C399.193 69.0765 399.125 69.1995 399.079 69.3408C399.038 69.4821 399.018 69.6325 399.018 69.792C399.018 69.9697 399.043 70.1201 399.093 70.2432C399.143 70.3662 399.218 70.4596 399.318 70.5234C399.419 70.5872 399.537 70.6191 399.674 70.6191C399.883 70.6191 400.066 70.5758 400.221 70.4893C400.376 70.4027 400.49 70.2979 400.562 70.1748C400.64 70.0518 400.665 69.9378 400.638 69.833L401.075 70.5781C401.021 70.7467 400.945 70.9222 400.85 71.1045C400.758 71.2868 400.642 71.4554 400.501 71.6104C400.36 71.7653 400.184 71.8929 399.975 71.9932C399.77 72.0889 399.526 72.1367 399.243 72.1367C398.847 72.1367 398.484 72.0456 398.156 71.8633C397.828 71.681 397.568 71.4258 397.377 71.0977C397.19 70.7695 397.097 70.3799 397.097 69.9287C397.097 69.555 397.156 69.2178 397.274 68.917C397.397 68.6117 397.58 68.3542 397.821 68.1445C398.063 67.9303 398.368 67.7663 398.737 67.6523C399.106 67.5384 399.539 67.4814 400.036 67.4814H400.795ZM398.922 63.6123L400.262 61.5H402.415L400.528 63.6123H398.922ZM406.578 70.5439C406.756 70.5439 406.909 70.5075 407.036 70.4346C407.168 70.3617 407.269 70.2432 407.337 70.0791C407.405 69.915 407.442 69.7031 407.446 69.4434H409.244C409.244 69.9993 409.126 70.4801 408.889 70.8857C408.656 71.2868 408.342 71.5967 407.945 71.8154C407.553 72.0296 407.109 72.1367 406.612 72.1367C406.116 72.1367 405.683 72.057 405.313 71.8975C404.944 71.738 404.639 71.5055 404.397 71.2002C404.16 70.8949 403.98 70.5234 403.857 70.0859C403.739 69.6439 403.68 69.138 403.68 68.5684V68.0283C403.68 67.4678 403.739 66.9665 403.857 66.5244C403.98 66.0824 404.16 65.7087 404.397 65.4033C404.639 65.098 404.942 64.8656 405.307 64.7061C405.676 64.5465 406.109 64.4668 406.605 64.4668C407.139 64.4668 407.601 64.5785 407.993 64.8018C408.385 65.0205 408.69 65.3441 408.909 65.7725C409.132 66.2008 409.244 66.7295 409.244 67.3584H407.446C407.442 67.0758 407.408 66.8411 407.344 66.6543C407.285 66.4629 407.191 66.3171 407.063 66.2168C406.94 66.112 406.776 66.0596 406.571 66.0596C406.357 66.0596 406.184 66.1051 406.052 66.1963C405.924 66.2829 405.826 66.4105 405.758 66.5791C405.694 66.7432 405.651 66.9482 405.628 67.1943C405.605 67.4404 405.594 67.7184 405.594 68.0283V68.5684C405.594 68.901 405.603 69.1904 405.621 69.4365C405.644 69.6781 405.687 69.8831 405.751 70.0518C405.819 70.2158 405.917 70.3389 406.045 70.4209C406.177 70.5029 406.355 70.5439 406.578 70.5439ZM412.354 64.6035V72H410.434V64.6035H412.354ZM410.345 62.6895C410.345 62.3932 410.438 62.1494 410.625 61.958C410.816 61.762 411.072 61.6641 411.391 61.6641C411.714 61.6641 411.969 61.762 412.156 61.958C412.343 62.1494 412.437 62.3932 412.437 62.6895C412.437 62.9811 412.341 63.2249 412.149 63.4209C411.963 63.6123 411.712 63.708 411.397 63.708C411.074 63.708 410.816 63.6123 410.625 63.4209C410.438 63.2249 410.345 62.9811 410.345 62.6895ZM417.133 70.2979V66.8799C417.133 66.6566 417.105 66.4788 417.051 66.3467C417.001 66.2145 416.923 66.1188 416.818 66.0596C416.718 65.9958 416.595 65.9639 416.449 65.9639C416.285 65.9639 416.148 65.998 416.039 66.0664C415.93 66.1348 415.848 66.2327 415.793 66.3604C415.743 66.488 415.718 66.6406 415.718 66.8184H413.797C413.797 66.4993 413.858 66.1986 413.981 65.916C414.104 65.6289 414.285 65.3783 414.521 65.1641C414.763 64.9453 415.05 64.7744 415.383 64.6514C415.715 64.5283 416.089 64.4668 416.504 64.4668C416.996 64.4668 417.434 64.5511 417.816 64.7197C418.199 64.8838 418.502 65.1458 418.726 65.5059C418.949 65.8659 419.061 66.333 419.061 66.9072V70.2021C419.061 70.6169 419.081 70.9541 419.122 71.2139C419.168 71.4736 419.234 71.6969 419.32 71.8838V72H417.393C417.306 71.7949 417.24 71.5397 417.194 71.2344C417.153 70.9245 417.133 70.6123 417.133 70.2979ZM417.365 67.4814L417.372 68.6299H416.668C416.486 68.6299 416.326 68.6595 416.189 68.7188C416.057 68.778 415.946 68.8623 415.854 68.9717C415.763 69.0765 415.695 69.1995 415.649 69.3408C415.608 69.4821 415.588 69.6325 415.588 69.792C415.588 69.9697 415.613 70.1201 415.663 70.2432C415.713 70.3662 415.788 70.4596 415.889 70.5234C415.989 70.5872 416.107 70.6191 416.244 70.6191C416.454 70.6191 416.636 70.5758 416.791 70.4893C416.946 70.4027 417.06 70.2979 417.133 70.1748C417.21 70.0518 417.235 69.9378 417.208 69.833L417.646 70.5781C417.591 70.7467 417.516 70.9222 417.42 71.1045C417.329 71.2868 417.213 71.4554 417.071 71.6104C416.93 71.7653 416.755 71.8929 416.545 71.9932C416.34 72.0889 416.096 72.1367 415.813 72.1367C415.417 72.1367 415.055 72.0456 414.727 71.8633C414.398 71.681 414.139 71.4258 413.947 71.0977C413.76 70.7695 413.667 70.3799 413.667 69.9287C413.667 69.555 413.726 69.2178 413.845 68.917C413.968 68.6117 414.15 68.3542 414.392 68.1445C414.633 67.9303 414.938 67.7663 415.308 67.6523C415.677 67.5384 416.11 67.4814 416.606 67.4814H417.365Z" fill="#E0E0E9"/>
<path d="M675.057 63.251V64.9121C675.057 65.6139 674.97 66.2292 674.797 66.7578C674.628 67.2819 674.387 67.7217 674.072 68.0771C673.762 68.4281 673.386 68.6924 672.944 68.8701C672.507 69.0479 672.021 69.1367 671.488 69.1367C670.955 69.1367 670.467 69.0479 670.025 68.8701C669.588 68.6924 669.21 68.4281 668.891 68.0771C668.576 67.7217 668.332 67.2819 668.159 66.7578C667.986 66.2292 667.899 65.6139 667.899 64.9121V63.251C667.899 62.5309 667.984 61.902 668.152 61.3643C668.321 60.8219 668.565 60.3708 668.884 60.0107C669.203 59.6462 669.581 59.3727 670.019 59.1904C670.456 59.0036 670.941 58.9102 671.475 58.9102C672.008 58.9102 672.493 59.0036 672.931 59.1904C673.368 59.3727 673.746 59.6462 674.065 60.0107C674.384 60.3708 674.628 60.8219 674.797 61.3643C674.97 61.902 675.057 62.5309 675.057 63.251ZM673.067 64.9121V63.2373C673.067 62.7633 673.033 62.36 672.965 62.0273C672.896 61.6901 672.794 61.4144 672.657 61.2002C672.521 60.986 672.354 60.8288 672.158 60.7285C671.962 60.6283 671.734 60.5781 671.475 60.5781C671.215 60.5781 670.985 60.6283 670.784 60.7285C670.588 60.8288 670.422 60.986 670.285 61.2002C670.153 61.4144 670.053 61.6901 669.984 62.0273C669.921 62.36 669.889 62.7633 669.889 63.2373V64.9121C669.889 65.3678 669.923 65.7575 669.991 66.0811C670.06 66.4046 670.162 66.6689 670.299 66.874C670.436 67.0791 670.602 67.2318 670.798 67.332C670.998 67.4277 671.229 67.4756 671.488 67.4756C671.743 67.4756 671.969 67.4277 672.165 67.332C672.366 67.2318 672.532 67.0791 672.664 66.874C672.796 66.6689 672.896 66.4046 672.965 66.0811C673.033 65.7575 673.067 65.3678 673.067 64.9121ZM678.598 67.5234L679.787 61.6035H681.783L679.753 69H678.557L678.598 67.5234ZM677.894 61.6035L679.104 67.5303L679.124 69H677.921L675.891 61.6035H677.894ZM685.591 69.1367C685.085 69.1367 684.636 69.0592 684.244 68.9043C683.857 68.7493 683.529 68.526 683.26 68.2344C682.991 67.9382 682.786 67.5804 682.645 67.1611C682.503 66.7419 682.433 66.2633 682.433 65.7256V65.1172C682.433 64.5156 682.501 63.9893 682.638 63.5381C682.774 63.0824 682.968 62.6995 683.219 62.3896C683.469 62.0798 683.777 61.8496 684.142 61.6992C684.511 61.5443 684.928 61.4668 685.393 61.4668C685.857 61.4668 686.265 61.5443 686.616 61.6992C686.972 61.8496 687.266 62.0775 687.498 62.3828C687.73 62.6836 687.906 63.0573 688.024 63.5039C688.143 63.9505 688.202 64.4701 688.202 65.0625V65.9375H683.246V64.5908H686.322V64.4199C686.322 64.1191 686.29 63.8685 686.227 63.668C686.163 63.4629 686.062 63.3102 685.926 63.21C685.789 63.1097 685.607 63.0596 685.379 63.0596C685.188 63.0596 685.026 63.0983 684.894 63.1758C684.761 63.2533 684.657 63.374 684.579 63.5381C684.502 63.7021 684.445 63.9163 684.408 64.1807C684.372 64.4404 684.354 64.7526 684.354 65.1172V65.7256C684.354 66.0674 684.383 66.3545 684.442 66.5869C684.502 66.8148 684.588 67.0016 684.702 67.1475C684.821 67.2887 684.964 67.3913 685.133 67.4551C685.301 67.5143 685.497 67.5439 685.721 67.5439C686.058 67.5439 686.361 67.4847 686.63 67.3662C686.903 67.2432 687.136 67.0768 687.327 66.8672L688.093 68.0293C687.961 68.2025 687.778 68.3757 687.546 68.5488C687.313 68.722 687.035 68.8633 686.712 68.9727C686.388 69.082 686.015 69.1367 685.591 69.1367ZM691.224 63.251V69H689.31V61.6035H691.114L691.224 63.251ZM692.967 61.5488L692.939 63.4561C692.853 63.4378 692.748 63.4242 692.625 63.415C692.507 63.4059 692.402 63.4014 692.311 63.4014C692.096 63.4014 691.914 63.4355 691.764 63.5039C691.613 63.5677 691.488 63.6657 691.388 63.7979C691.292 63.9255 691.219 64.085 691.169 64.2764C691.119 64.4678 691.089 64.6842 691.08 64.9258L690.718 64.7891C690.718 64.306 690.754 63.8639 690.827 63.4629C690.905 63.0573 691.019 62.7064 691.169 62.4102C691.319 62.1094 691.499 61.877 691.709 61.7129C691.923 61.5488 692.165 61.4668 692.434 61.4668C692.525 61.4668 692.62 61.4759 692.721 61.4941C692.826 61.5078 692.908 61.526 692.967 61.5488ZM696.788 69.1367C696.282 69.1367 695.833 69.0592 695.441 68.9043C695.054 68.7493 694.726 68.526 694.457 68.2344C694.188 67.9382 693.983 67.5804 693.842 67.1611C693.701 66.7419 693.63 66.2633 693.63 65.7256V65.1172C693.63 64.5156 693.698 63.9893 693.835 63.5381C693.972 63.0824 694.165 62.6995 694.416 62.3896C694.667 62.0798 694.974 61.8496 695.339 61.6992C695.708 61.5443 696.125 61.4668 696.59 61.4668C697.055 61.4668 697.463 61.5443 697.813 61.6992C698.169 61.8496 698.463 62.0775 698.695 62.3828C698.928 62.6836 699.103 63.0573 699.222 63.5039C699.34 63.9505 699.399 64.4701 699.399 65.0625V65.9375H694.443V64.5908H697.52V64.4199C697.52 64.1191 697.488 63.8685 697.424 63.668C697.36 63.4629 697.26 63.3102 697.123 63.21C696.986 63.1097 696.804 63.0596 696.576 63.0596C696.385 63.0596 696.223 63.0983 696.091 63.1758C695.959 63.2533 695.854 63.374 695.776 63.5381C695.699 63.7021 695.642 63.9163 695.605 64.1807C695.569 64.4404 695.551 64.7526 695.551 65.1172V65.7256C695.551 66.0674 695.58 66.3545 695.64 66.5869C695.699 66.8148 695.785 67.0016 695.899 67.1475C696.018 67.2887 696.161 67.3913 696.33 67.4551C696.499 67.5143 696.695 67.5439 696.918 67.5439C697.255 67.5439 697.558 67.4847 697.827 67.3662C698.101 67.2432 698.333 67.0768 698.524 66.8672L699.29 68.0293C699.158 68.2025 698.976 68.3757 698.743 68.5488C698.511 68.722 698.233 68.8633 697.909 68.9727C697.586 69.082 697.212 69.1367 696.788 69.1367ZM702.387 63.1826V69H700.466V61.6035H702.264L702.387 63.1826ZM702.1 65.0488L701.587 65.0625C701.578 64.5065 701.63 64.0075 701.744 63.5654C701.863 63.1234 702.029 62.7474 702.243 62.4375C702.462 62.123 702.722 61.8838 703.022 61.7197C703.328 61.5511 703.667 61.4668 704.041 61.4668C704.328 61.4668 704.59 61.5169 704.827 61.6172C705.069 61.7174 705.276 61.877 705.449 62.0957C705.622 62.3145 705.757 62.6061 705.853 62.9707C705.948 63.3307 705.996 63.7728 705.996 64.2969V69H704.075V64.2832C704.075 63.9642 704.043 63.7181 703.979 63.5449C703.916 63.3672 703.82 63.2441 703.692 63.1758C703.565 63.1029 703.405 63.0664 703.214 63.0664C703.032 63.0664 702.87 63.1188 702.729 63.2236C702.587 63.3239 702.469 63.4629 702.373 63.6406C702.282 63.8184 702.211 64.028 702.161 64.2695C702.116 64.5111 702.095 64.7708 702.1 65.0488ZM709.407 61.6035V69H707.486V61.6035H709.407ZM707.397 59.6895C707.397 59.3932 707.491 59.1494 707.678 58.958C707.869 58.762 708.124 58.6641 708.443 58.6641C708.767 58.6641 709.022 58.762 709.209 58.958C709.396 59.1494 709.489 59.3932 709.489 59.6895C709.489 59.9811 709.394 60.2249 709.202 60.4209C709.015 60.6123 708.765 60.708 708.45 60.708C708.127 60.708 707.869 60.6123 707.678 60.4209C707.491 60.2249 707.397 59.9811 707.397 59.6895ZM713.905 69.1367C713.399 69.1367 712.951 69.0592 712.559 68.9043C712.171 68.7493 711.843 68.526 711.574 68.2344C711.305 67.9382 711.1 67.5804 710.959 67.1611C710.818 66.7419 710.747 66.2633 710.747 65.7256V65.1172C710.747 64.5156 710.815 63.9893 710.952 63.5381C711.089 63.0824 711.283 62.6995 711.533 62.3896C711.784 62.0798 712.091 61.8496 712.456 61.6992C712.825 61.5443 713.242 61.4668 713.707 61.4668C714.172 61.4668 714.58 61.5443 714.931 61.6992C715.286 61.8496 715.58 62.0775 715.812 62.3828C716.045 62.6836 716.22 63.0573 716.339 63.5039C716.457 63.9505 716.517 64.4701 716.517 65.0625V65.9375H711.561V64.5908H714.637V64.4199C714.637 64.1191 714.605 63.8685 714.541 63.668C714.477 63.4629 714.377 63.3102 714.24 63.21C714.104 63.1097 713.921 63.0596 713.693 63.0596C713.502 63.0596 713.34 63.0983 713.208 63.1758C713.076 63.2533 712.971 63.374 712.894 63.5381C712.816 63.7021 712.759 63.9163 712.723 64.1807C712.686 64.4404 712.668 64.7526 712.668 65.1172V65.7256C712.668 66.0674 712.698 66.3545 712.757 66.5869C712.816 66.8148 712.903 67.0016 713.017 67.1475C713.135 67.2887 713.279 67.3913 713.447 67.4551C713.616 67.5143 713.812 67.5439 714.035 67.5439C714.372 67.5439 714.675 67.4847 714.944 67.3662C715.218 67.2432 715.45 67.0768 715.642 66.8672L716.407 68.0293C716.275 68.2025 716.093 68.3757 715.86 68.5488C715.628 68.722 715.35 68.8633 715.026 68.9727C714.703 69.082 714.329 69.1367 713.905 69.1367ZM724.111 67.2979V63.8799C724.111 63.6566 724.084 63.4788 724.029 63.3467C723.979 63.2145 723.902 63.1188 723.797 63.0596C723.697 62.9958 723.574 62.9639 723.428 62.9639C723.264 62.9639 723.127 62.998 723.018 63.0664C722.908 63.1348 722.826 63.2327 722.771 63.3604C722.721 63.488 722.696 63.6406 722.696 63.8184H720.775C720.775 63.4993 720.837 63.1986 720.96 62.916C721.083 62.6289 721.263 62.3783 721.5 62.1641C721.742 61.9453 722.029 61.7744 722.361 61.6514C722.694 61.5283 723.068 61.4668 723.482 61.4668C723.975 61.4668 724.412 61.5511 724.795 61.7197C725.178 61.8838 725.481 62.1458 725.704 62.5059C725.927 62.8659 726.039 63.333 726.039 63.9072V67.2021C726.039 67.6169 726.06 67.9541 726.101 68.2139C726.146 68.4736 726.212 68.6969 726.299 68.8838V69H724.371C724.285 68.7949 724.218 68.5397 724.173 68.2344C724.132 67.9245 724.111 67.6123 724.111 67.2979ZM724.344 64.4814L724.351 65.6299H723.646C723.464 65.6299 723.305 65.6595 723.168 65.7188C723.036 65.778 722.924 65.8623 722.833 65.9717C722.742 66.0765 722.674 66.1995 722.628 66.3408C722.587 66.4821 722.566 66.6325 722.566 66.792C722.566 66.9697 722.591 67.1201 722.642 67.2432C722.692 67.3662 722.767 67.4596 722.867 67.5234C722.967 67.5872 723.086 67.6191 723.223 67.6191C723.432 67.6191 723.615 67.5758 723.77 67.4893C723.924 67.4027 724.038 67.2979 724.111 67.1748C724.189 67.0518 724.214 66.9378 724.187 66.833L724.624 67.5781C724.569 67.7467 724.494 67.9222 724.398 68.1045C724.307 68.2868 724.191 68.4554 724.05 68.6104C723.909 68.7653 723.733 68.8929 723.523 68.9932C723.318 69.0889 723.075 69.1367 722.792 69.1367C722.396 69.1367 722.033 69.0456 721.705 68.8633C721.377 68.681 721.117 68.4258 720.926 68.0977C720.739 67.7695 720.646 67.3799 720.646 66.9287C720.646 66.555 720.705 66.2178 720.823 65.917C720.946 65.6117 721.129 65.3542 721.37 65.1445C721.612 64.9303 721.917 64.7663 722.286 64.6523C722.655 64.5384 723.088 64.4814 723.585 64.4814H724.344ZM682.18 77.0254V85.8438H680.272V75.6035H682.036L682.18 77.0254ZM686.021 79.0488V79.541C686.021 80.1198 685.971 80.6325 685.871 81.0791C685.771 81.5212 685.62 81.8971 685.42 82.207C685.224 82.5124 684.978 82.7448 684.682 82.9043C684.385 83.0592 684.039 83.1367 683.643 83.1367C683.273 83.1367 682.954 83.0501 682.686 82.877C682.421 82.6992 682.198 82.4554 682.016 82.1455C681.833 81.8356 681.688 81.4733 681.578 81.0586C681.469 80.6439 681.384 80.1995 681.325 79.7256V78.96C681.38 78.4541 681.46 77.9893 681.564 77.5654C681.669 77.137 681.813 76.7656 681.995 76.4512C682.182 76.1367 682.408 75.8952 682.672 75.7266C682.941 75.5534 683.26 75.4668 683.629 75.4668C684.03 75.4668 684.379 75.5397 684.675 75.6855C684.976 75.8314 685.224 76.0524 685.42 76.3486C685.62 76.6403 685.771 77.0117 685.871 77.4629C685.971 77.9141 686.021 78.4427 686.021 79.0488ZM684.107 79.541V79.0488C684.107 78.6934 684.087 78.3903 684.046 78.1396C684.009 77.889 683.95 77.6839 683.868 77.5244C683.786 77.3649 683.679 77.2487 683.547 77.1758C683.415 77.1029 683.253 77.0664 683.062 77.0664C682.875 77.0664 682.711 77.1029 682.569 77.1758C682.433 77.2487 682.321 77.3558 682.234 77.4971C682.148 77.6338 682.082 77.8024 682.036 78.0029C681.991 78.1989 681.965 78.4222 681.961 78.6729V80.0127C681.97 80.3089 682.009 80.571 682.077 80.7988C682.15 81.0267 682.266 81.209 682.426 81.3457C682.585 81.4779 682.802 81.5439 683.075 81.5439C683.271 81.5439 683.433 81.5029 683.561 81.4209C683.693 81.3389 683.8 81.2158 683.882 81.0518C683.964 80.8877 684.021 80.6803 684.053 80.4297C684.089 80.179 684.107 79.8828 684.107 79.541ZM689.207 72.5V83H687.286V72.5H689.207ZM693.985 81.2979V77.8799C693.985 77.6566 693.958 77.4788 693.903 77.3467C693.853 77.2145 693.776 77.1188 693.671 77.0596C693.571 76.9958 693.448 76.9639 693.302 76.9639C693.138 76.9639 693.001 76.998 692.892 77.0664C692.782 77.1348 692.7 77.2327 692.646 77.3604C692.595 77.488 692.57 77.6406 692.57 77.8184H690.649C690.649 77.4993 690.711 77.1986 690.834 76.916C690.957 76.6289 691.137 76.3783 691.374 76.1641C691.616 75.9453 691.903 75.7744 692.235 75.6514C692.568 75.5283 692.942 75.4668 693.356 75.4668C693.849 75.4668 694.286 75.5511 694.669 75.7197C695.052 75.8838 695.355 76.1458 695.578 76.5059C695.801 76.8659 695.913 77.333 695.913 77.9072V81.2021C695.913 81.6169 695.934 81.9541 695.975 82.2139C696.02 82.4736 696.086 82.6969 696.173 82.8838V83H694.245C694.159 82.7949 694.092 82.5397 694.047 82.2344C694.006 81.9245 693.985 81.6123 693.985 81.2979ZM694.218 78.4814L694.225 79.6299H693.521C693.338 79.6299 693.179 79.6595 693.042 79.7188C692.91 79.778 692.798 79.8623 692.707 79.9717C692.616 80.0765 692.548 80.1995 692.502 80.3408C692.461 80.4821 692.44 80.6325 692.44 80.792C692.44 80.9697 692.465 81.1201 692.516 81.2432C692.566 81.3662 692.641 81.4596 692.741 81.5234C692.841 81.5872 692.96 81.6191 693.097 81.6191C693.306 81.6191 693.489 81.5758 693.644 81.4893C693.799 81.4027 693.912 81.2979 693.985 81.1748C694.063 81.0518 694.088 80.9378 694.061 80.833L694.498 81.5781C694.443 81.7467 694.368 81.9222 694.272 82.1045C694.181 82.2868 694.065 82.4554 693.924 82.6104C693.783 82.7653 693.607 82.8929 693.397 82.9932C693.192 83.0889 692.949 83.1367 692.666 83.1367C692.27 83.1367 691.907 83.0456 691.579 82.8633C691.251 82.681 690.991 82.4258 690.8 82.0977C690.613 81.7695 690.52 81.3799 690.52 80.9287C690.52 80.555 690.579 80.2178 690.697 79.917C690.82 79.6117 691.003 79.3542 691.244 79.1445C691.486 78.9303 691.791 78.7663 692.16 78.6523C692.529 78.5384 692.962 78.4814 693.459 78.4814H694.218ZM700.555 75.6035V77.0459H696.781V75.6035H700.555ZM697.649 73.7783H699.557V80.7441C699.557 80.9492 699.577 81.1064 699.618 81.2158C699.659 81.3252 699.721 81.4027 699.803 81.4482C699.889 81.4893 700.003 81.5098 700.145 81.5098C700.24 81.5098 700.329 81.5052 700.411 81.4961C700.493 81.4824 700.555 81.4688 700.596 81.4551V82.9521C700.445 83.0114 700.286 83.057 700.117 83.0889C699.953 83.1208 699.757 83.1367 699.529 83.1367C699.146 83.1367 698.814 83.0638 698.531 82.918C698.253 82.7721 698.037 82.5397 697.882 82.2207C697.727 81.8971 697.649 81.4733 697.649 80.9492V73.7783ZM701.628 72.5H703.535V81.2842L703.398 83H701.628V72.5ZM707.377 79.0557V79.541C707.377 80.1426 707.329 80.6667 707.233 81.1133C707.142 81.5599 706.999 81.9336 706.803 82.2344C706.611 82.5352 706.365 82.7607 706.064 82.9111C705.764 83.0615 705.408 83.1367 704.998 83.1367C704.629 83.1367 704.312 83.0501 704.048 82.877C703.784 82.6992 703.56 82.4554 703.378 82.1455C703.2 81.8311 703.054 81.4642 702.94 81.0449C702.831 80.6211 702.751 80.1585 702.701 79.6572V78.9395C702.747 78.4473 702.824 77.9893 702.934 77.5654C703.048 77.1416 703.193 76.7747 703.371 76.4648C703.549 76.1504 703.77 75.9066 704.034 75.7334C704.303 75.5557 704.62 75.4668 704.984 75.4668C705.404 75.4668 705.764 75.5443 706.064 75.6992C706.365 75.8496 706.611 76.0752 706.803 76.376C706.999 76.6768 707.142 77.0527 707.233 77.5039C707.329 77.9505 707.377 78.4678 707.377 79.0557ZM705.47 79.541V79.0557C705.47 78.7139 705.456 78.4199 705.429 78.1738C705.401 77.9277 705.351 77.7227 705.278 77.5586C705.205 77.3945 705.101 77.2715 704.964 77.1895C704.832 77.1074 704.656 77.0664 704.438 77.0664C704.242 77.0664 704.077 77.1051 703.945 77.1826C703.813 77.2555 703.699 77.3649 703.604 77.5107C703.512 77.652 703.444 77.8206 703.398 78.0166C703.357 78.208 703.335 78.4199 703.33 78.6523V79.9443C703.335 80.2588 703.373 80.5368 703.446 80.7783C703.519 81.0199 703.635 81.2067 703.795 81.3389C703.959 81.471 704.178 81.5371 704.451 81.5371C704.665 81.5371 704.839 81.5007 704.971 81.4277C705.103 81.3548 705.205 81.2386 705.278 81.0791C705.356 80.9196 705.406 80.7145 705.429 80.4639C705.456 80.2087 705.47 79.901 705.47 79.541ZM711.813 81.2979V77.8799C711.813 77.6566 711.786 77.4788 711.731 77.3467C711.681 77.2145 711.604 77.1188 711.499 77.0596C711.399 76.9958 711.276 76.9639 711.13 76.9639C710.966 76.9639 710.829 76.998 710.72 77.0664C710.61 77.1348 710.528 77.2327 710.474 77.3604C710.424 77.488 710.398 77.6406 710.398 77.8184H708.478C708.478 77.4993 708.539 77.1986 708.662 76.916C708.785 76.6289 708.965 76.3783 709.202 76.1641C709.444 75.9453 709.731 75.7744 710.063 75.6514C710.396 75.5283 710.77 75.4668 711.185 75.4668C711.677 75.4668 712.114 75.5511 712.497 75.7197C712.88 75.8838 713.183 76.1458 713.406 76.5059C713.63 76.8659 713.741 77.333 713.741 77.9072V81.2021C713.741 81.6169 713.762 81.9541 713.803 82.2139C713.848 82.4736 713.914 82.6969 714.001 82.8838V83H712.073C711.987 82.7949 711.921 82.5397 711.875 82.2344C711.834 81.9245 711.813 81.6123 711.813 81.2979ZM712.046 78.4814L712.053 79.6299H711.349C711.166 79.6299 711.007 79.6595 710.87 79.7188C710.738 79.778 710.626 79.8623 710.535 79.9717C710.444 80.0765 710.376 80.1995 710.33 80.3408C710.289 80.4821 710.269 80.6325 710.269 80.792C710.269 80.9697 710.294 81.1201 710.344 81.2432C710.394 81.3662 710.469 81.4596 710.569 81.5234C710.67 81.5872 710.788 81.6191 710.925 81.6191C711.134 81.6191 711.317 81.5758 711.472 81.4893C711.627 81.4027 711.741 81.2979 711.813 81.1748C711.891 81.0518 711.916 80.9378 711.889 80.833L712.326 81.5781C712.271 81.7467 712.196 81.9222 712.101 82.1045C712.009 82.2868 711.893 82.4554 711.752 82.6104C711.611 82.7653 711.435 82.8929 711.226 82.9932C711.021 83.0889 710.777 83.1367 710.494 83.1367C710.098 83.1367 709.735 83.0456 709.407 82.8633C709.079 82.681 708.819 82.4258 708.628 82.0977C708.441 81.7695 708.348 81.3799 708.348 80.9287C708.348 80.555 708.407 80.2178 708.525 79.917C708.648 79.6117 708.831 79.3542 709.072 79.1445C709.314 78.9303 709.619 78.7663 709.988 78.6523C710.357 78.5384 710.79 78.4814 711.287 78.4814H712.046Z" fill="#E0E0E9"/>
<path fill-rule="evenodd" clip-rule="evenodd" d="M704 33H79V31H704V33Z" fill="#D0CFD7"/>
<g filter="url(#filter0_d_363_2923)">
<path d="M69 17C60.7125 17 54 23.7125 54 32C54 34.8125 54.7875 37.475 56.175 39.725C57.497 41.9468 59.3748 43.7861 61.6236 45.0617C63.8724 46.3373 66.4146 47.0053 69 47C74.475 47 79.2375 44.075 81.825 39.725C83.2125 37.475 84 34.8125 84 32C84 23.7125 77.2875 17 69 17ZM76.3875 30.7625L68.4 38.15C67.875 38.6375 67.1625 38.9 66.4875 38.9C65.775 38.9 65.0625 38.6375 64.5 38.075L60.7875 34.3625C60.2644 33.8332 59.9711 33.1191 59.9711 32.375C59.9711 31.6309 60.2644 30.9168 60.7875 30.3875C61.875 29.3 63.675 29.3 64.7625 30.3875L66.5625 32.1875L72.5625 26.6375C73.6875 25.5875 75.4875 25.6625 76.5375 26.7875C77.5875 27.9125 77.5125 29.7125 76.3875 30.7625Z" fill="url(#paint1_linear_363_2923)"/>
</g>
<circle cx="390.5" cy="32.5" r="14.5" fill="#D0CFD7"/>
<circle cx="696.5" cy="32.5" r="14.5" fill="#D0CFD7"/>
<defs>
<filter id="filter0_d_363_2923" x="37" y="0" width="74" height="74" filterUnits="userSpaceOnUse" color-interpolation-filters="sRGB">
<feFlood flood-opacity="0" result="BackgroundImageFix"/>
<feColorMatrix in="SourceAlpha" type="matrix" values="0 0 0 0 0 0 0 0 0 0 0 0 0 0 0 0 0 0 127 0" result="hardAlpha"/>
<feOffset dx="5" dy="5"/>
<feGaussianBlur stdDeviation="11"/>
<feComposite in2="hardAlpha" operator="out"/>
<feColorMatrix type="matrix" values="0 0 0 0 0.0392157 0 0 0 0 0.560784 0 0 0 0 0.309804 0 0 0 0.2 0"/>
<feBlend mode="normal" in2="BackgroundImageFix" result="effect1_dropShadow_363_2923"/>
<feBlend mode="normal" in="SourceGraphic" in2="effect1_dropShadow_363_2923" result="shape"/>
</filter>
<linearGradient id="paint0_linear_363_2923" x1="68.5" y1="97" x2="68.5" y2="57" gradientUnits="userSpaceOnUse">
<stop stop-color="#5CCC94"/>
<stop offset="1" stop-color="#8CCAAE"/>
</linearGradient>
<linearGradient id="paint1_linear_363_2923" x1="69" y1="47" x2="69" y2="17" gradientUnits="userSpaceOnUse">
<stop stop-color="#5CCC94"/>
<stop offset="1" stop-color="#8CCAAE"/>
</linearGradient>
</defs>
</svg>
