<svg width="1017" height="100" viewBox="0 0 1017 100" fill="none" xmlns="http://www.w3.org/2000/svg">
<path d="M17.5537 59.0469V69H15.5645V59.0469H17.5537ZM20.0283 59.0469V60.708H13.1377V59.0469H20.0283ZM22.3936 68.1523L23.9385 61.6035H25.9346L23.501 70.1074C23.4463 70.2943 23.3711 70.4948 23.2754 70.709C23.1797 70.9277 23.0521 71.1328 22.8926 71.3242C22.7376 71.5202 22.5417 71.6797 22.3047 71.8027C22.0677 71.9258 21.7829 71.9873 21.4502 71.9873C21.2816 71.9873 21.1449 71.9759 21.04 71.9531C20.9398 71.9349 20.8122 71.903 20.6572 71.8574V70.3672C20.6982 70.3672 20.737 70.3672 20.7734 70.3672C20.8145 70.3717 20.8532 70.374 20.8896 70.374C21.1038 70.374 21.2747 70.3444 21.4023 70.2852C21.5299 70.2305 21.6325 70.1439 21.71 70.0254C21.792 69.9069 21.8604 69.7588 21.915 69.5811L22.3936 68.1523ZM21.9971 61.6035L23.1455 66.9082L23.4053 69.0684L22.1133 69.1914L19.9463 61.6035H21.9971ZM28.6826 63.0254V71.8438H26.7754V61.6035H28.5391L28.6826 63.0254ZM32.5244 65.0488V65.541C32.5244 66.1198 32.4743 66.6325 32.374 67.0791C32.2738 67.5212 32.1234 67.8971 31.9229 68.207C31.7269 68.5124 31.4808 68.7448 31.1846 68.9043C30.8883 69.0592 30.542 69.1367 30.1455 69.1367C29.7764 69.1367 29.4574 69.0501 29.1885 68.877C28.9242 68.6992 28.7008 68.4554 28.5186 68.1455C28.3363 67.8356 28.1904 67.4733 28.0811 67.0586C27.9717 66.6439 27.8874 66.1995 27.8281 65.7256V64.96C27.8828 64.4541 27.9626 63.9893 28.0674 63.5654C28.1722 63.137 28.3158 62.7656 28.498 62.4512C28.6849 62.1367 28.9105 61.8952 29.1748 61.7266C29.4437 61.5534 29.7627 61.4668 30.1318 61.4668C30.5329 61.4668 30.8815 61.5397 31.1777 61.6855C31.4785 61.8314 31.7269 62.0524 31.9229 62.3486C32.1234 62.6403 32.2738 63.0117 32.374 63.4629C32.4743 63.9141 32.5244 64.4427 32.5244 65.0488ZM30.6104 65.541V65.0488C30.6104 64.6934 30.5898 64.3903 30.5488 64.1396C30.5124 63.889 30.4531 63.6839 30.3711 63.5244C30.2891 63.3649 30.182 63.2487 30.0498 63.1758C29.9176 63.1029 29.7559 63.0664 29.5645 63.0664C29.3776 63.0664 29.2135 63.1029 29.0723 63.1758C28.9355 63.2487 28.8239 63.3558 28.7373 63.4971C28.6507 63.6338 28.5846 63.8024 28.5391 64.0029C28.4935 64.1989 28.4684 64.4222 28.4639 64.6729V66.0127C28.473 66.3089 28.5117 66.571 28.5801 66.7988C28.653 67.0267 28.7692 67.209 28.9287 67.3457C29.0882 67.4779 29.3047 67.5439 29.5781 67.5439C29.7741 67.5439 29.9359 67.5029 30.0635 67.4209C30.1956 67.3389 30.3027 67.2158 30.3848 67.0518C30.4668 66.8877 30.5238 66.6803 30.5557 66.4297C30.5921 66.179 30.6104 65.8828 30.6104 65.541ZM40.5088 67.3662V58.5H42.4297V69L40.6934 69.0068L40.5088 67.3662ZM36.6738 65.5615V65.0693C36.6738 64.4678 36.724 63.9414 36.8242 63.4902C36.929 63.0391 37.084 62.6631 37.2891 62.3623C37.4941 62.0615 37.7448 61.8382 38.041 61.6924C38.3418 61.542 38.6859 61.4668 39.0732 61.4668C39.4242 61.4668 39.7318 61.5557 39.9961 61.7334C40.265 61.9066 40.4928 62.1504 40.6797 62.4648C40.8665 62.7793 41.0169 63.1507 41.1309 63.5791C41.2448 64.0075 41.3245 64.4769 41.3701 64.9873V65.6982C41.3154 66.1813 41.2311 66.6325 41.1172 67.0518C41.0078 67.471 40.8574 67.8356 40.666 68.1455C40.4792 68.4554 40.2536 68.6992 39.9893 68.877C39.7249 69.0501 39.4173 69.1367 39.0664 69.1367C38.679 69.1367 38.335 69.0592 38.0342 68.9043C37.738 68.7493 37.4873 68.5215 37.2822 68.2207C37.0817 67.9154 36.929 67.5417 36.8242 67.0996C36.724 66.653 36.6738 66.1403 36.6738 65.5615ZM38.5879 65.0693V65.5615C38.5879 65.9079 38.6038 66.2064 38.6357 66.457C38.6722 66.7031 38.7292 66.9059 38.8066 67.0654C38.8887 67.2204 38.9958 67.3366 39.1279 67.4141C39.2601 67.487 39.4242 67.5234 39.6201 67.5234C39.8753 67.5234 40.0827 67.4596 40.2422 67.332C40.4017 67.1999 40.5202 67.0199 40.5977 66.792C40.6797 66.5596 40.7253 66.293 40.7344 65.9922V64.7002C40.7253 64.4495 40.6956 64.224 40.6455 64.0234C40.5954 63.8229 40.5247 63.652 40.4336 63.5107C40.3424 63.3695 40.2285 63.2601 40.0918 63.1826C39.9596 63.1051 39.8047 63.0664 39.627 63.0664C39.4355 63.0664 39.2715 63.1051 39.1348 63.1826C39.0026 63.2601 38.8978 63.3809 38.8203 63.5449C38.7428 63.7044 38.6836 63.9118 38.6426 64.167C38.6061 64.4176 38.5879 64.7184 38.5879 65.0693ZM46.8525 69.1367C46.3467 69.1367 45.8978 69.0592 45.5059 68.9043C45.1185 68.7493 44.7904 68.526 44.5215 68.2344C44.2526 67.9382 44.0475 67.5804 43.9062 67.1611C43.765 66.7419 43.6943 66.2633 43.6943 65.7256V65.1172C43.6943 64.5156 43.7627 63.9893 43.8994 63.5381C44.0361 63.0824 44.2298 62.6995 44.4805 62.3896C44.7311 62.0798 45.0387 61.8496 45.4033 61.6992C45.7725 61.5443 46.1895 61.4668 46.6543 61.4668C47.1191 61.4668 47.527 61.5443 47.8779 61.6992C48.2334 61.8496 48.5273 62.0775 48.7598 62.3828C48.9922 62.6836 49.1676 63.0573 49.2861 63.5039C49.4046 63.9505 49.4639 64.4701 49.4639 65.0625V65.9375H44.5078V64.5908H47.584V64.4199C47.584 64.1191 47.5521 63.8685 47.4883 63.668C47.4245 63.4629 47.3242 63.3102 47.1875 63.21C47.0508 63.1097 46.8685 63.0596 46.6406 63.0596C46.4492 63.0596 46.2874 63.0983 46.1553 63.1758C46.0231 63.2533 45.9183 63.374 45.8408 63.5381C45.7633 63.7021 45.7064 63.9163 45.6699 64.1807C45.6335 64.4404 45.6152 64.7526 45.6152 65.1172V65.7256C45.6152 66.0674 45.6449 66.3545 45.7041 66.5869C45.7633 66.8148 45.8499 67.0016 45.9639 67.1475C46.0824 67.2887 46.2259 67.3913 46.3945 67.4551C46.5632 67.5143 46.7591 67.5439 46.9824 67.5439C47.3197 67.5439 47.6227 67.4847 47.8916 67.3662C48.165 67.2432 48.3975 67.0768 48.5889 66.8672L49.3545 68.0293C49.2223 68.2025 49.04 68.3757 48.8076 68.5488C48.5752 68.722 48.2972 68.8633 47.9736 68.9727C47.6501 69.082 47.2764 69.1367 46.8525 69.1367ZM53.8525 67.0039C53.8525 66.8763 53.8092 66.7624 53.7227 66.6621C53.6361 66.5618 53.4993 66.4593 53.3125 66.3545C53.1257 66.2451 52.8773 66.1243 52.5674 65.9922C52.2301 65.8555 51.9316 65.7142 51.6719 65.5684C51.4121 65.4225 51.1911 65.2607 51.0088 65.083C50.8311 64.9053 50.6966 64.7025 50.6055 64.4746C50.5143 64.2467 50.4688 63.987 50.4688 63.6953C50.4688 63.3809 50.5257 63.0915 50.6396 62.8271C50.7581 62.5583 50.9268 62.3236 51.1455 62.123C51.3643 61.918 51.6309 61.7585 51.9453 61.6445C52.2643 61.526 52.6221 61.4668 53.0186 61.4668C53.5745 61.4668 54.0508 61.5648 54.4473 61.7607C54.8483 61.9521 55.1559 62.221 55.3701 62.5674C55.5843 62.9137 55.6914 63.3171 55.6914 63.7773H53.7773C53.7773 63.6133 53.7523 63.4674 53.7021 63.3398C53.652 63.2077 53.57 63.1051 53.4561 63.0322C53.3467 62.9593 53.1986 62.9229 53.0117 62.9229C52.875 62.9229 52.752 62.9525 52.6426 63.0117C52.5378 63.071 52.4535 63.1507 52.3896 63.251C52.3304 63.3467 52.3008 63.4606 52.3008 63.5928C52.3008 63.693 52.3213 63.7819 52.3623 63.8594C52.4079 63.9368 52.4785 64.012 52.5742 64.085C52.6699 64.1579 52.7975 64.2354 52.957 64.3174C53.1211 64.3949 53.3216 64.4814 53.5586 64.5771C54.0508 64.7594 54.4541 64.9554 54.7686 65.165C55.0876 65.3747 55.3245 65.6208 55.4795 65.9033C55.6344 66.1813 55.7119 66.5254 55.7119 66.9355C55.7119 67.2637 55.6481 67.5622 55.5205 67.8311C55.3975 68.0999 55.2174 68.3324 54.9805 68.5283C54.7435 68.7243 54.4587 68.8747 54.126 68.9795C53.7979 69.0843 53.431 69.1367 53.0254 69.1367C52.4284 69.1367 51.9248 69.0182 51.5146 68.7812C51.1045 68.5443 50.7946 68.2412 50.585 67.8721C50.3753 67.4984 50.2705 67.111 50.2705 66.71H52.0889C52.098 66.9561 52.1436 67.1497 52.2256 67.291C52.3122 67.4277 52.4284 67.5234 52.5742 67.5781C52.7201 67.6328 52.8818 67.6602 53.0596 67.6602C53.2373 67.6602 53.3831 67.6374 53.4971 67.5918C53.6156 67.5417 53.7044 67.4665 53.7637 67.3662C53.8229 67.2614 53.8525 67.1406 53.8525 67.0039ZM8.25 74.8242L6.11035 83H3.99805L7.1084 73.0469H8.42773L8.25 74.8242ZM9.93848 83L7.78516 74.8242L7.58691 73.0469H8.92676L12.0645 83H9.93848ZM10.0137 79.2881V80.9492H5.52246V79.2881H10.0137ZM16.4121 81.2227V75.6035H18.333V83H16.5283L16.4121 81.2227ZM16.6309 79.6982L17.1641 79.6846C17.1641 80.1813 17.1162 80.6416 17.0205 81.0654C16.9248 81.4847 16.7812 81.8493 16.5898 82.1592C16.3984 82.4691 16.1592 82.7106 15.8721 82.8838C15.585 83.0524 15.2454 83.1367 14.8535 83.1367C14.5527 83.1367 14.2747 83.0866 14.0195 82.9863C13.7689 82.8815 13.5524 82.7197 13.3701 82.501C13.1878 82.2777 13.0443 81.9928 12.9395 81.6465C12.8392 81.2956 12.7891 80.874 12.7891 80.3818V75.6035H14.71V80.4023C14.71 80.6029 14.7282 80.776 14.7646 80.9219C14.8011 81.0632 14.8512 81.1794 14.915 81.2705C14.9788 81.3617 15.054 81.4277 15.1406 81.4688C15.2272 81.5052 15.3252 81.5234 15.4346 81.5234C15.7354 81.5234 15.9723 81.446 16.1455 81.291C16.3232 81.1315 16.4486 80.915 16.5215 80.6416C16.5944 80.3636 16.6309 80.0492 16.6309 79.6982ZM22.0996 83H20.1787V74.9609C20.1787 74.3913 20.2767 73.915 20.4727 73.5322C20.6686 73.1494 20.9443 72.8577 21.2998 72.6572C21.6598 72.4567 22.0859 72.3564 22.5781 72.3564C22.7376 72.3564 22.888 72.3701 23.0293 72.3975C23.1751 72.4202 23.3164 72.4521 23.4531 72.4932L23.4326 74.0176C23.3734 73.9993 23.3027 73.9857 23.2207 73.9766C23.1387 73.9674 23.0521 73.9629 22.9609 73.9629C22.7786 73.9629 22.6214 74.0016 22.4893 74.0791C22.3617 74.1566 22.2637 74.2682 22.1953 74.4141C22.1315 74.5599 22.0996 74.7422 22.0996 74.9609V83ZM23.2549 75.6035V77.0459H19.2764V75.6035H23.2549ZM26.2354 72.4932V83H24.3213V72.4932H26.2354ZM30.125 75.6035L27.5205 79.2812L25.9551 81.0381L25.2783 79.582L26.4814 77.8252L27.8418 75.6035H30.125ZM28.1289 83L26.5156 79.6025L27.835 78.3857L30.3232 83H28.1289ZM33.0303 72.5V83H31.1094V72.5H33.0303ZM37.5283 83.1367C37.0225 83.1367 36.5736 83.0592 36.1816 82.9043C35.7943 82.7493 35.4661 82.526 35.1973 82.2344C34.9284 81.9382 34.7233 81.5804 34.582 81.1611C34.4408 80.7419 34.3701 80.2633 34.3701 79.7256V79.1172C34.3701 78.5156 34.4385 77.9893 34.5752 77.5381C34.7119 77.0824 34.9056 76.6995 35.1562 76.3896C35.4069 76.0798 35.7145 75.8496 36.0791 75.6992C36.4482 75.5443 36.8652 75.4668 37.3301 75.4668C37.7949 75.4668 38.2028 75.5443 38.5537 75.6992C38.9092 75.8496 39.2031 76.0775 39.4355 76.3828C39.668 76.6836 39.8434 77.0573 39.9619 77.5039C40.0804 77.9505 40.1396 78.4701 40.1396 79.0625V79.9375H35.1836V78.5908H38.2598V78.4199C38.2598 78.1191 38.2279 77.8685 38.1641 77.668C38.1003 77.4629 38 77.3102 37.8633 77.21C37.7266 77.1097 37.5443 77.0596 37.3164 77.0596C37.125 77.0596 36.9632 77.0983 36.8311 77.1758C36.6989 77.2533 36.5941 77.374 36.5166 77.5381C36.4391 77.7021 36.3822 77.9163 36.3457 78.1807C36.3092 78.4404 36.291 78.7526 36.291 79.1172V79.7256C36.291 80.0674 36.3206 80.3545 36.3799 80.5869C36.4391 80.8148 36.5257 81.0016 36.6396 81.1475C36.7581 81.2887 36.9017 81.3913 37.0703 81.4551C37.2389 81.5143 37.4349 81.5439 37.6582 81.5439C37.9954 81.5439 38.2985 81.4847 38.5674 81.3662C38.8408 81.2432 39.0732 81.0768 39.2646 80.8672L40.0303 82.0293C39.8981 82.2025 39.7158 82.3757 39.4834 82.5488C39.251 82.722 38.973 82.8633 38.6494 82.9727C38.3258 83.082 37.9521 83.1367 37.5283 83.1367ZM41.2539 72.5H43.1611V81.2842L43.0244 83H41.2539V72.5ZM47.0029 79.0557V79.541C47.0029 80.1426 46.9551 80.6667 46.8594 81.1133C46.7682 81.5599 46.6247 81.9336 46.4287 82.2344C46.2373 82.5352 45.9912 82.7607 45.6904 82.9111C45.3896 83.0615 45.0342 83.1367 44.624 83.1367C44.2549 83.1367 43.9382 83.0501 43.6738 82.877C43.4095 82.6992 43.1862 82.4554 43.0039 82.1455C42.8262 81.8311 42.6803 81.4642 42.5664 81.0449C42.457 80.6211 42.3773 80.1585 42.3271 79.6572V78.9395C42.3727 78.4473 42.4502 77.9893 42.5596 77.5654C42.6735 77.1416 42.8193 76.7747 42.9971 76.4648C43.1748 76.1504 43.3958 75.9066 43.6602 75.7334C43.929 75.5557 44.2458 75.4668 44.6104 75.4668C45.0296 75.4668 45.3896 75.5443 45.6904 75.6992C45.9912 75.8496 46.2373 76.0752 46.4287 76.376C46.6247 76.6768 46.7682 77.0527 46.8594 77.5039C46.9551 77.9505 47.0029 78.4678 47.0029 79.0557ZM45.0957 79.541V79.0557C45.0957 78.7139 45.082 78.4199 45.0547 78.1738C45.0273 77.9277 44.9772 77.7227 44.9043 77.5586C44.8314 77.3945 44.7266 77.2715 44.5898 77.1895C44.4577 77.1074 44.2822 77.0664 44.0635 77.0664C43.8675 77.0664 43.7035 77.1051 43.5713 77.1826C43.4391 77.2555 43.3252 77.3649 43.2295 77.5107C43.1383 77.652 43.07 77.8206 43.0244 78.0166C42.9834 78.208 42.9606 78.4199 42.9561 78.6523V79.9443C42.9606 80.2588 42.9993 80.5368 43.0723 80.7783C43.1452 81.0199 43.2614 81.2067 43.4209 81.3389C43.585 81.471 43.8037 81.5371 44.0771 81.5371C44.2913 81.5371 44.4645 81.5007 44.5967 81.4277C44.7288 81.3548 44.8314 81.2386 44.9043 81.0791C44.9818 80.9196 45.0319 80.7145 45.0547 80.4639C45.082 80.2087 45.0957 79.901 45.0957 79.541ZM51.1592 83.1367C50.6533 83.1367 50.2044 83.0592 49.8125 82.9043C49.4251 82.7493 49.097 82.526 48.8281 82.2344C48.5592 81.9382 48.3542 81.5804 48.2129 81.1611C48.0716 80.7419 48.001 80.2633 48.001 79.7256V79.1172C48.001 78.5156 48.0693 77.9893 48.2061 77.5381C48.3428 77.0824 48.5365 76.6995 48.7871 76.3896C49.0378 76.0798 49.3454 75.8496 49.71 75.6992C50.0791 75.5443 50.4961 75.4668 50.9609 75.4668C51.4258 75.4668 51.8337 75.5443 52.1846 75.6992C52.54 75.8496 52.834 76.0775 53.0664 76.3828C53.2988 76.6836 53.4743 77.0573 53.5928 77.5039C53.7113 77.9505 53.7705 78.4701 53.7705 79.0625V79.9375H48.8145V78.5908H51.8906V78.4199C51.8906 78.1191 51.8587 77.8685 51.7949 77.668C51.7311 77.4629 51.6309 77.3102 51.4941 77.21C51.3574 77.1097 51.1751 77.0596 50.9473 77.0596C50.7559 77.0596 50.5941 77.0983 50.4619 77.1758C50.3298 77.2533 50.2249 77.374 50.1475 77.5381C50.07 77.7021 50.013 77.9163 49.9766 78.1807C49.9401 78.4404 49.9219 78.7526 49.9219 79.1172V79.7256C49.9219 80.0674 49.9515 80.3545 50.0107 80.5869C50.07 80.8148 50.1566 81.0016 50.2705 81.1475C50.389 81.2887 50.5326 81.3913 50.7012 81.4551C50.8698 81.5143 51.0658 81.5439 51.2891 81.5439C51.6263 81.5439 51.9294 81.4847 52.1982 81.3662C52.4717 81.2432 52.7041 81.0768 52.8955 80.8672L53.6611 82.0293C53.529 82.2025 53.3467 82.3757 53.1143 82.5488C52.8818 82.722 52.6038 82.8633 52.2803 82.9727C51.9567 83.082 51.583 83.1367 51.1592 83.1367ZM56.792 77.251V83H54.8779V75.6035H56.6826L56.792 77.251ZM58.5352 75.5488L58.5078 77.4561C58.4212 77.4378 58.3164 77.4242 58.1934 77.415C58.0749 77.4059 57.9701 77.4014 57.8789 77.4014C57.6647 77.4014 57.4824 77.4355 57.332 77.5039C57.1816 77.5677 57.0563 77.6657 56.9561 77.7979C56.8604 77.9255 56.7874 78.085 56.7373 78.2764C56.6872 78.4678 56.6576 78.6842 56.6484 78.9258L56.2861 78.7891C56.2861 78.306 56.3226 77.8639 56.3955 77.4629C56.473 77.0573 56.5869 76.7064 56.7373 76.4102C56.8877 76.1094 57.0677 75.877 57.2773 75.7129C57.4915 75.5488 57.7331 75.4668 58.002 75.4668C58.0931 75.4668 58.1888 75.4759 58.2891 75.4941C58.3939 75.5078 58.4759 75.526 58.5352 75.5488ZM62.7939 81.0039C62.7939 80.8763 62.7507 80.7624 62.6641 80.6621C62.5775 80.5618 62.4408 80.4593 62.2539 80.3545C62.0671 80.2451 61.8187 80.1243 61.5088 79.9922C61.1715 79.8555 60.873 79.7142 60.6133 79.5684C60.3535 79.4225 60.1325 79.2607 59.9502 79.083C59.7725 78.9053 59.638 78.7025 59.5469 78.4746C59.4557 78.2467 59.4102 77.987 59.4102 77.6953C59.4102 77.3809 59.4671 77.0915 59.5811 76.8271C59.6995 76.5583 59.8682 76.3236 60.0869 76.123C60.3057 75.918 60.5723 75.7585 60.8867 75.6445C61.2057 75.526 61.5635 75.4668 61.96 75.4668C62.516 75.4668 62.9922 75.5648 63.3887 75.7607C63.7897 75.9521 64.0973 76.221 64.3115 76.5674C64.5257 76.9137 64.6328 77.3171 64.6328 77.7773H62.7188C62.7188 77.6133 62.6937 77.4674 62.6436 77.3398C62.5934 77.2077 62.5114 77.1051 62.3975 77.0322C62.2881 76.9593 62.14 76.9229 61.9531 76.9229C61.8164 76.9229 61.6934 76.9525 61.584 77.0117C61.4792 77.071 61.3949 77.1507 61.3311 77.251C61.2718 77.3467 61.2422 77.4606 61.2422 77.5928C61.2422 77.693 61.2627 77.7819 61.3037 77.8594C61.3493 77.9368 61.4199 78.012 61.5156 78.085C61.6113 78.1579 61.7389 78.2354 61.8984 78.3174C62.0625 78.3949 62.263 78.4814 62.5 78.5771C62.9922 78.7594 63.3955 78.9554 63.71 79.165C64.029 79.3747 64.266 79.6208 64.4209 79.9033C64.5758 80.1813 64.6533 80.5254 64.6533 80.9355C64.6533 81.2637 64.5895 81.5622 64.4619 81.8311C64.3389 82.0999 64.1589 82.3324 63.9219 82.5283C63.6849 82.7243 63.4001 82.8747 63.0674 82.9795C62.7393 83.0843 62.3724 83.1367 61.9668 83.1367C61.3698 83.1367 60.8662 83.0182 60.4561 82.7812C60.0459 82.5443 59.736 82.2412 59.5264 81.8721C59.3167 81.4984 59.2119 81.111 59.2119 80.71H61.0303C61.0394 80.9561 61.085 81.1497 61.167 81.291C61.2536 81.4277 61.3698 81.5234 61.5156 81.5781C61.6615 81.6328 61.8232 81.6602 62.001 81.6602C62.1787 81.6602 62.3245 81.6374 62.4385 81.5918C62.557 81.5417 62.6458 81.4665 62.7051 81.3662C62.7643 81.2614 62.7939 81.1406 62.7939 81.0039Z" fill="url(#paint0_linear_1405_1346)"/>
<path d="M321.843 63.8242L319.703 72H317.591L320.701 62.0469H322.021L321.843 63.8242ZM323.531 72L321.378 63.8242L321.18 62.0469H322.52L325.657 72H323.531ZM323.606 68.2881V69.9492H319.115V68.2881H323.606ZM330.005 70.2227V64.6035H331.926V72H330.121L330.005 70.2227ZM330.224 68.6982L330.757 68.6846C330.757 69.1813 330.709 69.6416 330.613 70.0654C330.518 70.4847 330.374 70.8493 330.183 71.1592C329.991 71.4691 329.752 71.7106 329.465 71.8838C329.178 72.0524 328.838 72.1367 328.446 72.1367C328.146 72.1367 327.868 72.0866 327.612 71.9863C327.362 71.8815 327.145 71.7197 326.963 71.501C326.781 71.2777 326.637 70.9928 326.532 70.6465C326.432 70.2956 326.382 69.874 326.382 69.3818V64.6035H328.303V69.4023C328.303 69.6029 328.321 69.776 328.357 69.9219C328.394 70.0632 328.444 70.1794 328.508 70.2705C328.572 70.3617 328.647 70.4277 328.733 70.4688C328.82 70.5052 328.918 70.5234 329.027 70.5234C329.328 70.5234 329.565 70.446 329.738 70.291C329.916 70.1315 330.041 69.915 330.114 69.6416C330.187 69.3636 330.224 69.0492 330.224 68.6982ZM336.547 64.6035V66.0459H332.773V64.6035H336.547ZM333.642 62.7783H335.549V69.7441C335.549 69.9492 335.569 70.1064 335.61 70.2158C335.651 70.3252 335.713 70.4027 335.795 70.4482C335.882 70.4893 335.995 70.5098 336.137 70.5098C336.232 70.5098 336.321 70.5052 336.403 70.4961C336.485 70.4824 336.547 70.4688 336.588 70.4551V71.9521C336.438 72.0114 336.278 72.057 336.109 72.0889C335.945 72.1208 335.749 72.1367 335.521 72.1367C335.139 72.1367 334.806 72.0638 334.523 71.918C334.245 71.7721 334.029 71.5397 333.874 71.2207C333.719 70.8971 333.642 70.4733 333.642 69.9492V62.7783ZM337.189 68.5547V68.0557C337.189 67.4769 337.258 66.9642 337.395 66.5176C337.536 66.071 337.736 65.6973 337.996 65.3965C338.256 65.0911 338.568 64.861 338.933 64.7061C339.302 64.5465 339.714 64.4668 340.17 64.4668C340.63 64.4668 341.043 64.5465 341.407 64.7061C341.776 64.861 342.091 65.0911 342.351 65.3965C342.615 65.6973 342.818 66.071 342.959 66.5176C343.1 66.9642 343.171 67.4769 343.171 68.0557V68.5547C343.171 69.1289 343.1 69.6393 342.959 70.0859C342.818 70.5326 342.615 70.9085 342.351 71.2139C342.091 71.5192 341.779 71.7493 341.414 71.9043C341.049 72.0592 340.639 72.1367 340.184 72.1367C339.728 72.1367 339.315 72.0592 338.946 71.9043C338.582 71.7493 338.267 71.5192 338.003 71.2139C337.739 70.9085 337.536 70.5326 337.395 70.0859C337.258 69.6393 337.189 69.1289 337.189 68.5547ZM339.104 68.0557V68.5547C339.104 68.8965 339.126 69.1927 339.172 69.4434C339.222 69.694 339.293 69.9014 339.384 70.0654C339.479 70.2295 339.593 70.3503 339.726 70.4277C339.858 70.5052 340.01 70.5439 340.184 70.5439C340.357 70.5439 340.512 70.5052 340.648 70.4277C340.785 70.3503 340.897 70.2295 340.983 70.0654C341.075 69.9014 341.141 69.694 341.182 69.4434C341.227 69.1927 341.25 68.8965 341.25 68.5547V68.0557C341.25 67.723 341.225 67.4313 341.175 67.1807C341.125 66.9255 341.054 66.7181 340.963 66.5586C340.872 66.3945 340.758 66.2715 340.621 66.1895C340.489 66.1029 340.339 66.0596 340.17 66.0596C340.001 66.0596 339.851 66.1029 339.719 66.1895C339.591 66.2715 339.479 66.3945 339.384 66.5586C339.293 66.7181 339.222 66.9255 339.172 67.1807C339.126 67.4313 339.104 67.723 339.104 68.0557ZM346.261 66.1826V72H344.34V64.6035H346.138L346.261 66.1826ZM345.974 68.0488L345.461 68.0625C345.452 67.5065 345.504 67.0075 345.618 66.5654C345.737 66.1234 345.903 65.7474 346.117 65.4375C346.336 65.123 346.596 64.8838 346.896 64.7197C347.202 64.5511 347.541 64.4668 347.915 64.4668C348.202 64.4668 348.464 64.5169 348.701 64.6172C348.943 64.7174 349.15 64.877 349.323 65.0957C349.496 65.3145 349.631 65.6061 349.727 65.9707C349.822 66.3307 349.87 66.7728 349.87 67.2969V72H347.949V67.2832C347.949 66.9642 347.917 66.7181 347.854 66.5449C347.79 66.3672 347.694 66.2441 347.566 66.1758C347.439 66.1029 347.279 66.0664 347.088 66.0664C346.906 66.0664 346.744 66.1188 346.603 66.2236C346.461 66.3239 346.343 66.4629 346.247 66.6406C346.156 66.8184 346.085 67.028 346.035 67.2695C345.99 67.5111 345.969 67.7708 345.974 68.0488ZM354.847 70.2227V64.6035H356.768V72H354.963L354.847 70.2227ZM355.065 68.6982L355.599 68.6846C355.599 69.1813 355.551 69.6416 355.455 70.0654C355.359 70.4847 355.216 70.8493 355.024 71.1592C354.833 71.4691 354.594 71.7106 354.307 71.8838C354.02 72.0524 353.68 72.1367 353.288 72.1367C352.987 72.1367 352.709 72.0866 352.454 71.9863C352.203 71.8815 351.987 71.7197 351.805 71.501C351.622 71.2777 351.479 70.9928 351.374 70.6465C351.274 70.2956 351.224 69.874 351.224 69.3818V64.6035H353.145V69.4023C353.145 69.6029 353.163 69.776 353.199 69.9219C353.236 70.0632 353.286 70.1794 353.35 70.2705C353.413 70.3617 353.489 70.4277 353.575 70.4688C353.662 70.5052 353.76 70.5234 353.869 70.5234C354.17 70.5234 354.407 70.446 354.58 70.291C354.758 70.1315 354.883 69.915 354.956 69.6416C355.029 69.3636 355.065 69.0492 355.065 68.6982ZM360.09 66.1348V72H358.169V64.6035H359.974L360.09 66.1348ZM359.816 68.0488L359.29 68.0625C359.281 67.543 359.326 67.0645 359.427 66.627C359.527 66.1895 359.677 65.8089 359.878 65.4854C360.083 65.1618 360.34 64.9111 360.65 64.7334C360.96 64.5557 361.323 64.4668 361.737 64.4668C362.006 64.4668 362.255 64.5169 362.482 64.6172C362.71 64.7129 362.909 64.8656 363.077 65.0752C363.246 65.2803 363.376 65.5492 363.467 65.8818C363.558 66.21 363.604 66.6042 363.604 67.0645V72H361.689V67.2969C361.689 66.9688 361.658 66.7181 361.594 66.5449C361.53 66.3672 361.439 66.2441 361.32 66.1758C361.202 66.1029 361.056 66.0664 360.883 66.0664C360.701 66.0664 360.541 66.1165 360.404 66.2168C360.268 66.3171 360.156 66.4583 360.069 66.6406C359.987 66.8184 359.924 67.028 359.878 67.2695C359.837 67.5111 359.816 67.7708 359.816 68.0488ZM363.419 67.8574L362.729 67.9463C362.719 67.4587 362.763 67.0052 362.858 66.5859C362.954 66.1621 363.102 65.793 363.303 65.4785C363.503 65.1595 363.754 64.9111 364.055 64.7334C364.36 64.5557 364.713 64.4668 365.114 64.4668C365.415 64.4668 365.688 64.5169 365.935 64.6172C366.181 64.7174 366.39 64.8792 366.563 65.1025C366.741 65.3213 366.876 65.6107 366.967 65.9707C367.062 66.3307 367.11 66.7682 367.11 67.2832V72H365.189V67.29C365.189 66.9574 365.158 66.7021 365.094 66.5244C365.03 66.3467 364.939 66.2259 364.82 66.1621C364.702 66.0983 364.561 66.0664 364.396 66.0664C364.232 66.0664 364.089 66.112 363.966 66.2031C363.847 66.2943 363.747 66.4219 363.665 66.5859C363.583 66.7454 363.521 66.9346 363.48 67.1533C363.439 67.3675 363.419 67.6022 363.419 67.8574ZM370.48 66.1348V72H368.56V64.6035H370.364L370.48 66.1348ZM370.207 68.0488L369.681 68.0625C369.672 67.543 369.717 67.0645 369.817 66.627C369.918 66.1895 370.068 65.8089 370.269 65.4854C370.474 65.1618 370.731 64.9111 371.041 64.7334C371.351 64.5557 371.713 64.4668 372.128 64.4668C372.397 64.4668 372.645 64.5169 372.873 64.6172C373.101 64.7129 373.299 64.8656 373.468 65.0752C373.636 65.2803 373.766 65.5492 373.857 65.8818C373.949 66.21 373.994 66.6042 373.994 67.0645V72H372.08V67.2969C372.08 66.9688 372.048 66.7181 371.984 66.5449C371.921 66.3672 371.829 66.2441 371.711 66.1758C371.592 66.1029 371.447 66.0664 371.273 66.0664C371.091 66.0664 370.932 66.1165 370.795 66.2168C370.658 66.3171 370.547 66.4583 370.46 66.6406C370.378 66.8184 370.314 67.028 370.269 67.2695C370.228 67.5111 370.207 67.7708 370.207 68.0488ZM373.81 67.8574L373.119 67.9463C373.11 67.4587 373.153 67.0052 373.249 66.5859C373.345 66.1621 373.493 65.793 373.693 65.4785C373.894 65.1595 374.145 64.9111 374.445 64.7334C374.751 64.5557 375.104 64.4668 375.505 64.4668C375.806 64.4668 376.079 64.5169 376.325 64.6172C376.571 64.7174 376.781 64.8792 376.954 65.1025C377.132 65.3213 377.266 65.6107 377.357 65.9707C377.453 66.3307 377.501 66.7682 377.501 67.2832V72H375.58V67.29C375.58 66.9574 375.548 66.7021 375.484 66.5244C375.421 66.3467 375.329 66.2259 375.211 66.1621C375.092 66.0983 374.951 66.0664 374.787 66.0664C374.623 66.0664 374.479 66.112 374.356 66.2031C374.238 66.2943 374.138 66.4219 374.056 66.5859C373.974 66.7454 373.912 66.9346 373.871 67.1533C373.83 67.3675 373.81 67.6022 373.81 67.8574ZM381.924 72.1367C381.418 72.1367 380.969 72.0592 380.577 71.9043C380.19 71.7493 379.862 71.526 379.593 71.2344C379.324 70.9382 379.119 70.5804 378.978 70.1611C378.836 69.7419 378.766 69.2633 378.766 68.7256V68.1172C378.766 67.5156 378.834 66.9893 378.971 66.5381C379.107 66.0824 379.301 65.6995 379.552 65.3896C379.802 65.0798 380.11 64.8496 380.475 64.6992C380.844 64.5443 381.261 64.4668 381.726 64.4668C382.19 64.4668 382.598 64.5443 382.949 64.6992C383.305 64.8496 383.599 65.0775 383.831 65.3828C384.063 65.6836 384.239 66.0573 384.357 66.5039C384.476 66.9505 384.535 67.4701 384.535 68.0625V68.9375H379.579V67.5908H382.655V67.4199C382.655 67.1191 382.623 66.8685 382.56 66.668C382.496 66.4629 382.396 66.3102 382.259 66.21C382.122 66.1097 381.94 66.0596 381.712 66.0596C381.521 66.0596 381.359 66.0983 381.227 66.1758C381.094 66.2533 380.99 66.374 380.912 66.5381C380.835 66.7021 380.778 66.9163 380.741 67.1807C380.705 67.4404 380.687 67.7526 380.687 68.1172V68.7256C380.687 69.0674 380.716 69.3545 380.775 69.5869C380.835 69.8148 380.921 70.0016 381.035 70.1475C381.154 70.2887 381.297 70.3913 381.466 70.4551C381.634 70.5143 381.83 70.5439 382.054 70.5439C382.391 70.5439 382.694 70.4847 382.963 70.3662C383.236 70.2432 383.469 70.0768 383.66 69.8672L384.426 71.0293C384.294 71.2025 384.111 71.3757 383.879 71.5488C383.646 71.722 383.368 71.8633 383.045 71.9727C382.721 72.082 382.348 72.1367 381.924 72.1367ZM387.557 66.251V72H385.643V64.6035H387.447L387.557 66.251ZM389.3 64.5488L389.272 66.4561C389.186 66.4378 389.081 66.4242 388.958 66.415C388.84 66.4059 388.735 66.4014 388.644 66.4014C388.429 66.4014 388.247 66.4355 388.097 66.5039C387.946 66.5677 387.821 66.6657 387.721 66.7979C387.625 66.9255 387.552 67.085 387.502 67.2764C387.452 67.4678 387.422 67.6842 387.413 67.9258L387.051 67.7891C387.051 67.306 387.087 66.8639 387.16 66.4629C387.238 66.0573 387.352 65.7064 387.502 65.4102C387.652 65.1094 387.832 64.877 388.042 64.7129C388.256 64.5488 388.498 64.4668 388.767 64.4668C388.858 64.4668 388.953 64.4759 389.054 64.4941C389.159 64.5078 389.241 64.526 389.3 64.5488Z" fill="url(#paint1_linear_1405_1346)"/>
<path d="M621.261 62.0469H624.453C625.118 62.0469 625.686 62.1608 626.155 62.3887C626.625 62.6165 626.985 62.9538 627.235 63.4004C627.486 63.847 627.611 64.3984 627.611 65.0547C627.611 65.5924 627.538 66.0527 627.393 66.4355C627.247 66.8138 627.039 67.1305 626.771 67.3857C626.502 67.6364 626.18 67.8369 625.807 67.9873L625.198 68.3496H622.607L622.601 66.6885H624.398C624.672 66.6885 624.897 66.6292 625.075 66.5107C625.257 66.3877 625.392 66.2168 625.479 65.998C625.57 65.7747 625.615 65.515 625.615 65.2188C625.615 64.9043 625.574 64.6354 625.492 64.4121C625.415 64.1842 625.289 64.0111 625.116 63.8926C624.948 63.7695 624.727 63.708 624.453 63.708H623.264V72H621.261V62.0469ZM625.779 72L623.954 67.5635L626.053 67.5566L627.919 71.9043V72H625.779ZM631.891 72.1367C631.385 72.1367 630.936 72.0592 630.544 71.9043C630.157 71.7493 629.828 71.526 629.56 71.2344C629.291 70.9382 629.086 70.5804 628.944 70.1611C628.803 69.7419 628.732 69.2633 628.732 68.7256V68.1172C628.732 67.5156 628.801 66.9893 628.938 66.5381C629.074 66.0824 629.268 65.6995 629.519 65.3896C629.769 65.0798 630.077 64.8496 630.441 64.6992C630.811 64.5443 631.228 64.4668 631.692 64.4668C632.157 64.4668 632.565 64.5443 632.916 64.6992C633.271 64.8496 633.565 65.0775 633.798 65.3828C634.03 65.6836 634.206 66.0573 634.324 66.5039C634.443 66.9505 634.502 67.4701 634.502 68.0625V68.9375H629.546V67.5908H632.622V67.4199C632.622 67.1191 632.59 66.8685 632.526 66.668C632.463 66.4629 632.362 66.3102 632.226 66.21C632.089 66.1097 631.907 66.0596 631.679 66.0596C631.487 66.0596 631.326 66.0983 631.193 66.1758C631.061 66.2533 630.956 66.374 630.879 66.5381C630.801 66.7021 630.744 66.9163 630.708 67.1807C630.672 67.4404 630.653 67.7526 630.653 68.1172V68.7256C630.653 69.0674 630.683 69.3545 630.742 69.5869C630.801 69.8148 630.888 70.0016 631.002 70.1475C631.12 70.2887 631.264 70.3913 631.433 70.4551C631.601 70.5143 631.797 70.5439 632.021 70.5439C632.358 70.5439 632.661 70.4847 632.93 70.3662C633.203 70.2432 633.436 70.0768 633.627 69.8672L634.393 71.0293C634.26 71.2025 634.078 71.3757 633.846 71.5488C633.613 71.722 633.335 71.8633 633.012 71.9727C632.688 72.082 632.314 72.1367 631.891 72.1367ZM638.282 70.5439C638.46 70.5439 638.613 70.5075 638.74 70.4346C638.872 70.3617 638.973 70.2432 639.041 70.0791C639.109 69.915 639.146 69.7031 639.15 69.4434H640.948C640.948 69.9993 640.83 70.4801 640.593 70.8857C640.36 71.2868 640.046 71.5967 639.649 71.8154C639.257 72.0296 638.813 72.1367 638.316 72.1367C637.82 72.1367 637.387 72.057 637.018 71.8975C636.648 71.738 636.343 71.5055 636.102 71.2002C635.865 70.8949 635.685 70.5234 635.562 70.0859C635.443 69.6439 635.384 69.138 635.384 68.5684V68.0283C635.384 67.4678 635.443 66.9665 635.562 66.5244C635.685 66.0824 635.865 65.7087 636.102 65.4033C636.343 65.098 636.646 64.8656 637.011 64.7061C637.38 64.5465 637.813 64.4668 638.31 64.4668C638.843 64.4668 639.305 64.5785 639.697 64.8018C640.089 65.0205 640.395 65.3441 640.613 65.7725C640.837 66.2008 640.948 66.7295 640.948 67.3584H639.15C639.146 67.0758 639.112 66.8411 639.048 66.6543C638.989 66.4629 638.895 66.3171 638.768 66.2168C638.645 66.112 638.48 66.0596 638.275 66.0596C638.061 66.0596 637.888 66.1051 637.756 66.1963C637.628 66.2829 637.53 66.4105 637.462 66.5791C637.398 66.7432 637.355 66.9482 637.332 67.1943C637.309 67.4404 637.298 67.7184 637.298 68.0283V68.5684C637.298 68.901 637.307 69.1904 637.325 69.4365C637.348 69.6781 637.391 69.8831 637.455 70.0518C637.523 70.2158 637.621 70.3389 637.749 70.4209C637.881 70.5029 638.059 70.5439 638.282 70.5439ZM643.915 61.5V72H642.001V61.5H643.915ZM643.642 68.0488L643.122 68.0625C643.122 67.543 643.174 67.0645 643.279 66.627C643.389 66.1895 643.546 65.8089 643.751 65.4854C643.956 65.1618 644.204 64.9111 644.496 64.7334C644.792 64.5557 645.118 64.4668 645.474 64.4668C645.779 64.4668 646.057 64.5192 646.308 64.624C646.558 64.7288 646.775 64.8929 646.957 65.1162C647.144 65.3395 647.287 65.6335 647.388 65.998C647.488 66.3626 647.538 66.807 647.538 67.3311V72H645.617V67.3174C645.617 66.9984 645.585 66.7477 645.521 66.5654C645.458 66.3831 645.362 66.2555 645.234 66.1826C645.107 66.1051 644.947 66.0664 644.756 66.0664C644.551 66.0664 644.375 66.1188 644.229 66.2236C644.088 66.3239 643.974 66.4629 643.888 66.6406C643.801 66.8184 643.737 67.028 643.696 67.2695C643.66 67.5111 643.642 67.7708 643.642 68.0488ZM650.819 66.1826V72H648.898V64.6035H650.696L650.819 66.1826ZM650.532 68.0488L650.02 68.0625C650.01 67.5065 650.063 67.0075 650.177 66.5654C650.295 66.1234 650.462 65.7474 650.676 65.4375C650.895 65.123 651.154 64.8838 651.455 64.7197C651.76 64.5511 652.1 64.4668 652.474 64.4668C652.761 64.4668 653.023 64.5169 653.26 64.6172C653.501 64.7174 653.709 64.877 653.882 65.0957C654.055 65.3145 654.189 65.6061 654.285 65.9707C654.381 66.3307 654.429 66.7728 654.429 67.2969V72H652.508V67.2832C652.508 66.9642 652.476 66.7181 652.412 66.5449C652.348 66.3672 652.253 66.2441 652.125 66.1758C651.997 66.1029 651.838 66.0664 651.646 66.0664C651.464 66.0664 651.302 66.1188 651.161 66.2236C651.02 66.3239 650.901 66.4629 650.806 66.6406C650.715 66.8184 650.644 67.028 650.594 67.2695C650.548 67.5111 650.528 67.7708 650.532 68.0488ZM659.405 70.2227V64.6035H661.326V72H659.521L659.405 70.2227ZM659.624 68.6982L660.157 68.6846C660.157 69.1813 660.109 69.6416 660.014 70.0654C659.918 70.4847 659.774 70.8493 659.583 71.1592C659.392 71.4691 659.152 71.7106 658.865 71.8838C658.578 72.0524 658.239 72.1367 657.847 72.1367C657.546 72.1367 657.268 72.0866 657.013 71.9863C656.762 71.8815 656.546 71.7197 656.363 71.501C656.181 71.2777 656.037 70.9928 655.933 70.6465C655.832 70.2956 655.782 69.874 655.782 69.3818V64.6035H657.703V69.4023C657.703 69.6029 657.721 69.776 657.758 69.9219C657.794 70.0632 657.844 70.1794 657.908 70.2705C657.972 70.3617 658.047 70.4277 658.134 70.4688C658.22 70.5052 658.318 70.5234 658.428 70.5234C658.729 70.5234 658.965 70.446 659.139 70.291C659.316 70.1315 659.442 69.915 659.515 69.6416C659.588 69.3636 659.624 69.0492 659.624 68.6982ZM664.601 66.1826V72H662.68V64.6035H664.478L664.601 66.1826ZM664.313 68.0488L663.801 68.0625C663.792 67.5065 663.844 67.0075 663.958 66.5654C664.076 66.1234 664.243 65.7474 664.457 65.4375C664.676 65.123 664.936 64.8838 665.236 64.7197C665.542 64.5511 665.881 64.4668 666.255 64.4668C666.542 64.4668 666.804 64.5169 667.041 64.6172C667.283 64.7174 667.49 64.877 667.663 65.0957C667.836 65.3145 667.971 65.6061 668.066 65.9707C668.162 66.3307 668.21 66.7728 668.21 67.2969V72H666.289V67.2832C666.289 66.9642 666.257 66.7181 666.193 66.5449C666.13 66.3672 666.034 66.2441 665.906 66.1758C665.779 66.1029 665.619 66.0664 665.428 66.0664C665.245 66.0664 665.084 66.1188 664.942 66.2236C664.801 66.3239 664.683 66.4629 664.587 66.6406C664.496 66.8184 664.425 67.028 664.375 67.2695C664.329 67.5111 664.309 67.7708 664.313 68.0488ZM673.501 64.6035H675.237V72C675.237 72.6745 675.107 73.2259 674.848 73.6543C674.592 74.0872 674.235 74.404 673.774 74.6045C673.319 74.8096 672.785 74.9121 672.175 74.9121C671.942 74.9121 671.68 74.8802 671.389 74.8164C671.102 74.7526 670.824 74.6546 670.555 74.5225C670.286 74.3949 670.065 74.2399 669.892 74.0576L670.541 72.7314C670.719 72.9092 670.951 73.0596 671.238 73.1826C671.525 73.3102 671.808 73.374 672.086 73.374C672.355 73.374 672.578 73.3307 672.756 73.2441C672.938 73.1621 673.075 73.0208 673.166 72.8203C673.262 72.6198 673.31 72.3509 673.31 72.0137V66.3193L673.501 64.6035ZM669.372 68.5615V68.0693C669.372 67.4678 669.429 66.9414 669.543 66.4902C669.657 66.0391 669.821 65.6631 670.035 65.3623C670.249 65.0615 670.511 64.8382 670.821 64.6924C671.136 64.542 671.487 64.4668 671.874 64.4668C672.28 64.4668 672.619 64.5557 672.893 64.7334C673.166 64.9066 673.387 65.1504 673.556 65.4648C673.729 65.7793 673.861 66.1507 673.952 66.5791C674.048 67.0075 674.121 67.4769 674.171 67.9873V68.6982C674.121 69.1813 674.039 69.6325 673.925 70.0518C673.815 70.471 673.67 70.8356 673.487 71.1455C673.305 71.4554 673.082 71.6992 672.817 71.877C672.553 72.0501 672.234 72.1367 671.86 72.1367C671.478 72.1367 671.131 72.0592 670.821 71.9043C670.516 71.7493 670.254 71.5215 670.035 71.2207C669.821 70.9154 669.657 70.5417 669.543 70.0996C669.429 69.653 669.372 69.1403 669.372 68.5615ZM671.293 68.0693V68.5615C671.293 68.9079 671.313 69.2064 671.354 69.457C671.4 69.7031 671.468 69.9059 671.56 70.0654C671.651 70.2204 671.767 70.3366 671.908 70.4141C672.054 70.487 672.225 70.5234 672.421 70.5234C672.699 70.5234 672.92 70.4596 673.084 70.332C673.253 70.1999 673.376 70.0199 673.453 69.792C673.535 69.5596 673.581 69.293 673.59 68.9922V67.7002C673.585 67.4495 673.556 67.224 673.501 67.0234C673.451 66.8229 673.38 66.652 673.289 66.5107C673.198 66.3695 673.079 66.2601 672.934 66.1826C672.792 66.1051 672.626 66.0664 672.435 66.0664C672.239 66.0664 672.07 66.1051 671.929 66.1826C671.787 66.2601 671.669 66.3809 671.573 66.5449C671.482 66.7044 671.411 66.9118 671.361 67.167C671.316 67.4176 671.293 67.7184 671.293 68.0693ZM679.947 70.0039C679.947 69.8763 679.904 69.7624 679.817 69.6621C679.731 69.5618 679.594 69.4593 679.407 69.3545C679.22 69.2451 678.972 69.1243 678.662 68.9922C678.325 68.8555 678.026 68.7142 677.767 68.5684C677.507 68.4225 677.286 68.2607 677.104 68.083C676.926 67.9053 676.791 67.7025 676.7 67.4746C676.609 67.2467 676.563 66.987 676.563 66.6953C676.563 66.3809 676.62 66.0915 676.734 65.8271C676.853 65.5583 677.021 65.3236 677.24 65.123C677.459 64.918 677.726 64.7585 678.04 64.6445C678.359 64.526 678.717 64.4668 679.113 64.4668C679.669 64.4668 680.146 64.5648 680.542 64.7607C680.943 64.9521 681.251 65.221 681.465 65.5674C681.679 65.9137 681.786 66.3171 681.786 66.7773H679.872C679.872 66.6133 679.847 66.4674 679.797 66.3398C679.747 66.2077 679.665 66.1051 679.551 66.0322C679.441 65.9593 679.293 65.9229 679.106 65.9229C678.97 65.9229 678.847 65.9525 678.737 66.0117C678.632 66.071 678.548 66.1507 678.484 66.251C678.425 66.3467 678.396 66.4606 678.396 66.5928C678.396 66.693 678.416 66.7819 678.457 66.8594C678.503 66.9368 678.573 67.012 678.669 67.085C678.765 67.1579 678.892 67.2354 679.052 67.3174C679.216 67.3949 679.416 67.4814 679.653 67.5771C680.146 67.7594 680.549 67.9554 680.863 68.165C681.182 68.3747 681.419 68.6208 681.574 68.9033C681.729 69.1813 681.807 69.5254 681.807 69.9355C681.807 70.2637 681.743 70.5622 681.615 70.8311C681.492 71.0999 681.312 71.3324 681.075 71.5283C680.838 71.7243 680.553 71.8747 680.221 71.9795C679.893 72.0843 679.526 72.1367 679.12 72.1367C678.523 72.1367 678.02 72.0182 677.609 71.7812C677.199 71.5443 676.889 71.2412 676.68 70.8721C676.47 70.4984 676.365 70.111 676.365 69.71H678.184C678.193 69.9561 678.238 70.1497 678.32 70.291C678.407 70.4277 678.523 70.5234 678.669 70.5781C678.815 70.6328 678.977 70.6602 679.154 70.6602C679.332 70.6602 679.478 70.6374 679.592 70.5918C679.71 70.5417 679.799 70.4665 679.858 70.3662C679.918 70.2614 679.947 70.1406 679.947 70.0039ZM686.305 70.0039C686.305 69.8763 686.261 69.7624 686.175 69.6621C686.088 69.5618 685.951 69.4593 685.765 69.3545C685.578 69.2451 685.329 69.1243 685.02 68.9922C684.682 68.8555 684.384 68.7142 684.124 68.5684C683.864 68.4225 683.643 68.2607 683.461 68.083C683.283 67.9053 683.149 67.7025 683.058 67.4746C682.966 67.2467 682.921 66.987 682.921 66.6953C682.921 66.3809 682.978 66.0915 683.092 65.8271C683.21 65.5583 683.379 65.3236 683.598 65.123C683.816 64.918 684.083 64.7585 684.397 64.6445C684.716 64.526 685.074 64.4668 685.471 64.4668C686.027 64.4668 686.503 64.5648 686.899 64.7607C687.3 64.9521 687.608 65.221 687.822 65.5674C688.036 65.9137 688.144 66.3171 688.144 66.7773H686.229C686.229 66.6133 686.204 66.4674 686.154 66.3398C686.104 66.2077 686.022 66.1051 685.908 66.0322C685.799 65.9593 685.651 65.9229 685.464 65.9229C685.327 65.9229 685.204 65.9525 685.095 66.0117C684.99 66.071 684.906 66.1507 684.842 66.251C684.783 66.3467 684.753 66.4606 684.753 66.5928C684.753 66.693 684.773 66.7819 684.814 66.8594C684.86 66.9368 684.931 67.012 685.026 67.085C685.122 67.1579 685.25 67.2354 685.409 67.3174C685.573 67.3949 685.774 67.4814 686.011 67.5771C686.503 67.7594 686.906 67.9554 687.221 68.165C687.54 68.3747 687.777 68.6208 687.932 68.9033C688.087 69.1813 688.164 69.5254 688.164 69.9355C688.164 70.2637 688.1 70.5622 687.973 70.8311C687.85 71.0999 687.67 71.3324 687.433 71.5283C687.196 71.7243 686.911 71.8747 686.578 71.9795C686.25 72.0843 685.883 72.1367 685.478 72.1367C684.881 72.1367 684.377 72.0182 683.967 71.7812C683.557 71.5443 683.247 71.2412 683.037 70.8721C682.827 70.4984 682.723 70.111 682.723 69.71H684.541C684.55 69.9561 684.596 70.1497 684.678 70.291C684.764 70.4277 684.881 70.5234 685.026 70.5781C685.172 70.6328 685.334 70.6602 685.512 70.6602C685.689 70.6602 685.835 70.6374 685.949 70.5918C686.068 70.5417 686.157 70.4665 686.216 70.3662C686.275 70.2614 686.305 70.1406 686.305 70.0039ZM692.607 64.6035V66.0459H688.834V64.6035H692.607ZM689.702 62.7783H691.609V69.7441C691.609 69.9492 691.63 70.1064 691.671 70.2158C691.712 70.3252 691.773 70.4027 691.855 70.4482C691.942 70.4893 692.056 70.5098 692.197 70.5098C692.293 70.5098 692.382 70.5052 692.464 70.4961C692.546 70.4824 692.607 70.4688 692.648 70.4551V71.9521C692.498 72.0114 692.339 72.057 692.17 72.0889C692.006 72.1208 691.81 72.1367 691.582 72.1367C691.199 72.1367 690.867 72.0638 690.584 71.918C690.306 71.7721 690.09 71.5397 689.935 71.2207C689.78 70.8971 689.702 70.4733 689.702 69.9492V62.7783ZM696.654 72.1367C696.148 72.1367 695.7 72.0592 695.308 71.9043C694.92 71.7493 694.592 71.526 694.323 71.2344C694.054 70.9382 693.849 70.5804 693.708 70.1611C693.567 69.7419 693.496 69.2633 693.496 68.7256V68.1172C693.496 67.5156 693.564 66.9893 693.701 66.5381C693.838 66.0824 694.032 65.6995 694.282 65.3896C694.533 65.0798 694.84 64.8496 695.205 64.6992C695.574 64.5443 695.991 64.4668 696.456 64.4668C696.921 64.4668 697.329 64.5443 697.68 64.6992C698.035 64.8496 698.329 65.0775 698.562 65.3828C698.794 65.6836 698.969 66.0573 699.088 66.5039C699.206 66.9505 699.266 67.4701 699.266 68.0625V68.9375H694.31V67.5908H697.386V67.4199C697.386 67.1191 697.354 66.8685 697.29 66.668C697.226 66.4629 697.126 66.3102 696.989 66.21C696.853 66.1097 696.67 66.0596 696.442 66.0596C696.251 66.0596 696.089 66.0983 695.957 66.1758C695.825 66.2533 695.72 66.374 695.643 66.5381C695.565 66.7021 695.508 66.9163 695.472 67.1807C695.435 67.4404 695.417 67.7526 695.417 68.1172V68.7256C695.417 69.0674 695.447 69.3545 695.506 69.5869C695.565 69.8148 695.652 70.0016 695.766 70.1475C695.884 70.2887 696.028 70.3913 696.196 70.4551C696.365 70.5143 696.561 70.5439 696.784 70.5439C697.121 70.5439 697.424 70.4847 697.693 70.3662C697.967 70.2432 698.199 70.0768 698.391 69.8672L699.156 71.0293C699.024 71.2025 698.842 71.3757 698.609 71.5488C698.377 71.722 698.099 71.8633 697.775 71.9727C697.452 72.082 697.078 72.1367 696.654 72.1367ZM702.383 61.5V72H700.462V61.5H702.383ZM705.91 61.5V72H703.989V61.5H705.91ZM711.003 70.2227V64.6035H712.924V72H711.119L711.003 70.2227ZM711.222 68.6982L711.755 68.6846C711.755 69.1813 711.707 69.6416 711.611 70.0654C711.516 70.4847 711.372 70.8493 711.181 71.1592C710.989 71.4691 710.75 71.7106 710.463 71.8838C710.176 72.0524 709.836 72.1367 709.444 72.1367C709.144 72.1367 708.866 72.0866 708.61 71.9863C708.36 71.8815 708.143 71.7197 707.961 71.501C707.779 71.2777 707.635 70.9928 707.53 70.6465C707.43 70.2956 707.38 69.874 707.38 69.3818V64.6035H709.301V69.4023C709.301 69.6029 709.319 69.776 709.355 69.9219C709.392 70.0632 709.442 70.1794 709.506 70.2705C709.57 70.3617 709.645 70.4277 709.731 70.4688C709.818 70.5052 709.916 70.5234 710.025 70.5234C710.326 70.5234 710.563 70.446 710.736 70.291C710.914 70.1315 711.039 69.915 711.112 69.6416C711.185 69.3636 711.222 69.0492 711.222 68.6982ZM716.198 66.1826V72H714.277V64.6035H716.075L716.198 66.1826ZM715.911 68.0488L715.398 68.0625C715.389 67.5065 715.442 67.0075 715.556 66.5654C715.674 66.1234 715.84 65.7474 716.055 65.4375C716.273 65.123 716.533 64.8838 716.834 64.7197C717.139 64.5511 717.479 64.4668 717.853 64.4668C718.14 64.4668 718.402 64.5169 718.639 64.6172C718.88 64.7174 719.088 64.877 719.261 65.0957C719.434 65.3145 719.568 65.6061 719.664 65.9707C719.76 66.3307 719.808 66.7728 719.808 67.2969V72H717.887V67.2832C717.887 66.9642 717.855 66.7181 717.791 66.5449C717.727 66.3672 717.632 66.2441 717.504 66.1758C717.376 66.1029 717.217 66.0664 717.025 66.0664C716.843 66.0664 716.681 66.1188 716.54 66.2236C716.399 66.3239 716.28 66.4629 716.185 66.6406C716.093 66.8184 716.023 67.028 715.973 67.2695C715.927 67.5111 715.907 67.7708 715.911 68.0488ZM725.099 64.6035H726.835V72C726.835 72.6745 726.705 73.2259 726.445 73.6543C726.19 74.0872 725.832 74.404 725.372 74.6045C724.916 74.8096 724.383 74.9121 723.772 74.9121C723.54 74.9121 723.278 74.8802 722.986 74.8164C722.699 74.7526 722.421 74.6546 722.152 74.5225C721.883 74.3949 721.662 74.2399 721.489 74.0576L722.139 72.7314C722.316 72.9092 722.549 73.0596 722.836 73.1826C723.123 73.3102 723.406 73.374 723.684 73.374C723.952 73.374 724.176 73.3307 724.354 73.2441C724.536 73.1621 724.673 73.0208 724.764 72.8203C724.859 72.6198 724.907 72.3509 724.907 72.0137V66.3193L725.099 64.6035ZM720.97 68.5615V68.0693C720.97 67.4678 721.027 66.9414 721.141 66.4902C721.255 66.0391 721.419 65.6631 721.633 65.3623C721.847 65.0615 722.109 64.8382 722.419 64.6924C722.733 64.542 723.084 64.4668 723.472 64.4668C723.877 64.4668 724.217 64.5557 724.49 64.7334C724.764 64.9066 724.985 65.1504 725.153 65.4648C725.326 65.7793 725.459 66.1507 725.55 66.5791C725.646 67.0075 725.718 67.4769 725.769 67.9873V68.6982C725.718 69.1813 725.636 69.6325 725.522 70.0518C725.413 70.471 725.267 70.8356 725.085 71.1455C724.903 71.4554 724.679 71.6992 724.415 71.877C724.151 72.0501 723.832 72.1367 723.458 72.1367C723.075 72.1367 722.729 72.0592 722.419 71.9043C722.114 71.7493 721.852 71.5215 721.633 71.2207C721.419 70.9154 721.255 70.5417 721.141 70.0996C721.027 69.653 720.97 69.1403 720.97 68.5615ZM722.891 68.0693V68.5615C722.891 68.9079 722.911 69.2064 722.952 69.457C722.998 69.7031 723.066 69.9059 723.157 70.0654C723.248 70.2204 723.365 70.3366 723.506 70.4141C723.652 70.487 723.823 70.5234 724.019 70.5234C724.297 70.5234 724.518 70.4596 724.682 70.332C724.85 70.1999 724.973 70.0199 725.051 69.792C725.133 69.5596 725.178 69.293 725.188 68.9922V67.7002C725.183 67.4495 725.153 67.224 725.099 67.0234C725.049 66.8229 724.978 66.652 724.887 66.5107C724.796 66.3695 724.677 66.2601 724.531 66.1826C724.39 66.1051 724.224 66.0664 724.032 66.0664C723.836 66.0664 723.668 66.1051 723.526 66.1826C723.385 66.2601 723.267 66.3809 723.171 66.5449C723.08 66.7044 723.009 66.9118 722.959 67.167C722.913 67.4176 722.891 67.7184 722.891 68.0693Z" fill="#E0E0E9"/>
<path d="M958.394 59.0469V69H956.391V59.0469H958.394ZM963.336 59.0469L960.109 63.9893L958.134 66.4502L957.751 64.4473L959.029 62.3145L960.902 59.0469H963.336ZM961.025 69L958.852 64.4268L960.321 63.1279L963.384 69H961.025ZM963.637 65.5547V65.0557C963.637 64.4769 963.705 63.9642 963.842 63.5176C963.983 63.071 964.184 62.6973 964.443 62.3965C964.703 62.0911 965.015 61.861 965.38 61.7061C965.749 61.5465 966.161 61.4668 966.617 61.4668C967.077 61.4668 967.49 61.5465 967.854 61.7061C968.224 61.861 968.538 62.0911 968.798 62.3965C969.062 62.6973 969.265 63.071 969.406 63.5176C969.548 63.9642 969.618 64.4769 969.618 65.0557V65.5547C969.618 66.1289 969.548 66.6393 969.406 67.0859C969.265 67.5326 969.062 67.9085 968.798 68.2139C968.538 68.5192 968.226 68.7493 967.861 68.9043C967.497 69.0592 967.087 69.1367 966.631 69.1367C966.175 69.1367 965.763 69.0592 965.394 68.9043C965.029 68.7493 964.715 68.5192 964.45 68.2139C964.186 67.9085 963.983 67.5326 963.842 67.0859C963.705 66.6393 963.637 66.1289 963.637 65.5547ZM965.551 65.0557V65.5547C965.551 65.8965 965.574 66.1927 965.619 66.4434C965.669 66.694 965.74 66.9014 965.831 67.0654C965.927 67.2295 966.041 67.3503 966.173 67.4277C966.305 67.5052 966.458 67.5439 966.631 67.5439C966.804 67.5439 966.959 67.5052 967.096 67.4277C967.232 67.3503 967.344 67.2295 967.431 67.0654C967.522 66.9014 967.588 66.694 967.629 66.4434C967.674 66.1927 967.697 65.8965 967.697 65.5547V65.0557C967.697 64.723 967.672 64.4313 967.622 64.1807C967.572 63.9255 967.501 63.7181 967.41 63.5586C967.319 63.3945 967.205 63.2715 967.068 63.1895C966.936 63.1029 966.786 63.0596 966.617 63.0596C966.449 63.0596 966.298 63.1029 966.166 63.1895C966.038 63.2715 965.927 63.3945 965.831 63.5586C965.74 63.7181 965.669 63.9255 965.619 64.1807C965.574 64.4313 965.551 64.723 965.551 65.0557ZM972.708 63.1826V69H970.787V61.6035H972.585L972.708 63.1826ZM972.421 65.0488L971.908 65.0625C971.899 64.5065 971.951 64.0075 972.065 63.5654C972.184 63.1234 972.35 62.7474 972.564 62.4375C972.783 62.123 973.043 61.8838 973.344 61.7197C973.649 61.5511 973.989 61.4668 974.362 61.4668C974.649 61.4668 974.911 61.5169 975.148 61.6172C975.39 61.7174 975.597 61.877 975.771 62.0957C975.944 62.3145 976.078 62.6061 976.174 62.9707C976.27 63.3307 976.317 63.7728 976.317 64.2969V69H974.396V64.2832C974.396 63.9642 974.365 63.7181 974.301 63.5449C974.237 63.3672 974.141 63.2441 974.014 63.1758C973.886 63.1029 973.727 63.0664 973.535 63.0664C973.353 63.0664 973.191 63.1188 973.05 63.2236C972.909 63.3239 972.79 63.4629 972.694 63.6406C972.603 63.8184 972.533 64.028 972.482 64.2695C972.437 64.5111 972.416 64.7708 972.421 65.0488ZM980.945 61.6035V63.0459H977.172V61.6035H980.945ZM978.04 59.7783H979.947V66.7441C979.947 66.9492 979.968 67.1064 980.009 67.2158C980.05 67.3252 980.111 67.4027 980.193 67.4482C980.28 67.4893 980.394 67.5098 980.535 67.5098C980.631 67.5098 980.72 67.5052 980.802 67.4961C980.884 67.4824 980.945 67.4688 980.986 67.4551V68.9521C980.836 69.0114 980.676 69.057 980.508 69.0889C980.344 69.1208 980.148 69.1367 979.92 69.1367C979.537 69.1367 979.204 69.0638 978.922 68.918C978.644 68.7721 978.427 68.5397 978.272 68.2207C978.118 67.8971 978.04 67.4733 978.04 66.9492V59.7783ZM983.926 63.251V69H982.012V61.6035H983.816L983.926 63.251ZM985.669 61.5488L985.642 63.4561C985.555 63.4378 985.45 63.4242 985.327 63.415C985.209 63.4059 985.104 63.4014 985.013 63.4014C984.799 63.4014 984.616 63.4355 984.466 63.5039C984.315 63.5677 984.19 63.6657 984.09 63.7979C983.994 63.9255 983.921 64.085 983.871 64.2764C983.821 64.4678 983.791 64.6842 983.782 64.9258L983.42 64.7891C983.42 64.306 983.456 63.8639 983.529 63.4629C983.607 63.0573 983.721 62.7064 983.871 62.4102C984.021 62.1094 984.201 61.877 984.411 61.7129C984.625 61.5488 984.867 61.4668 985.136 61.4668C985.227 61.4668 985.323 61.4759 985.423 61.4941C985.528 61.5078 985.61 61.526 985.669 61.5488ZM986.182 65.5547V65.0557C986.182 64.4769 986.25 63.9642 986.387 63.5176C986.528 63.071 986.729 62.6973 986.988 62.3965C987.248 62.0911 987.56 61.861 987.925 61.7061C988.294 61.5465 988.706 61.4668 989.162 61.4668C989.622 61.4668 990.035 61.5465 990.399 61.7061C990.769 61.861 991.083 62.0911 991.343 62.3965C991.607 62.6973 991.81 63.071 991.951 63.5176C992.092 63.9642 992.163 64.4769 992.163 65.0557V65.5547C992.163 66.1289 992.092 66.6393 991.951 67.0859C991.81 67.5326 991.607 67.9085 991.343 68.2139C991.083 68.5192 990.771 68.7493 990.406 68.9043C990.042 69.0592 989.632 69.1367 989.176 69.1367C988.72 69.1367 988.308 69.0592 987.938 68.9043C987.574 68.7493 987.259 68.5192 986.995 68.2139C986.731 67.9085 986.528 67.5326 986.387 67.0859C986.25 66.6393 986.182 66.1289 986.182 65.5547ZM988.096 65.0557V65.5547C988.096 65.8965 988.118 66.1927 988.164 66.4434C988.214 66.694 988.285 66.9014 988.376 67.0654C988.472 67.2295 988.586 67.3503 988.718 67.4277C988.85 67.5052 989.003 67.5439 989.176 67.5439C989.349 67.5439 989.504 67.5052 989.641 67.4277C989.777 67.3503 989.889 67.2295 989.976 67.0654C990.067 66.9014 990.133 66.694 990.174 66.4434C990.219 66.1927 990.242 65.8965 990.242 65.5547V65.0557C990.242 64.723 990.217 64.4313 990.167 64.1807C990.117 63.9255 990.046 63.7181 989.955 63.5586C989.864 63.3945 989.75 63.2715 989.613 63.1895C989.481 63.1029 989.331 63.0596 989.162 63.0596C988.993 63.0596 988.843 63.1029 988.711 63.1895C988.583 63.2715 988.472 63.3945 988.376 63.5586C988.285 63.7181 988.214 63.9255 988.164 64.1807C988.118 64.4313 988.096 64.723 988.096 65.0557ZM995.383 58.5V69H993.462V58.5H995.383ZM998.91 58.5V69H996.989V58.5H998.91ZM1003.41 69.1367C1002.9 69.1367 1002.45 69.0592 1002.06 68.9043C1001.67 68.7493 1001.35 68.526 1001.08 68.2344C1000.81 67.9382 1000.6 67.5804 1000.46 67.1611C1000.32 66.7419 1000.25 66.2633 1000.25 65.7256V65.1172C1000.25 64.5156 1000.32 63.9893 1000.46 63.5381C1000.59 63.0824 1000.79 62.6995 1001.04 62.3896C1001.29 62.0798 1001.59 61.8496 1001.96 61.6992C1002.33 61.5443 1002.75 61.4668 1003.21 61.4668C1003.67 61.4668 1004.08 61.5443 1004.43 61.6992C1004.79 61.8496 1005.08 62.0775 1005.32 62.3828C1005.55 62.6836 1005.72 63.0573 1005.84 63.5039C1005.96 63.9505 1006.02 64.4701 1006.02 65.0625V65.9375H1001.06V64.5908H1004.14V64.4199C1004.14 64.1191 1004.11 63.8685 1004.04 63.668C1003.98 63.4629 1003.88 63.3102 1003.74 63.21C1003.61 63.1097 1003.42 63.0596 1003.2 63.0596C1003 63.0596 1002.84 63.0983 1002.71 63.1758C1002.58 63.2533 1002.47 63.374 1002.4 63.5381C1002.32 63.7021 1002.26 63.9163 1002.23 64.1807C1002.19 64.4404 1002.17 64.7526 1002.17 65.1172V65.7256C1002.17 66.0674 1002.2 66.3545 1002.26 66.5869C1002.32 66.8148 1002.41 67.0016 1002.52 67.1475C1002.64 67.2887 1002.78 67.3913 1002.95 67.4551C1003.12 67.5143 1003.31 67.5439 1003.54 67.5439C1003.88 67.5439 1004.18 67.4847 1004.45 67.3662C1004.72 67.2432 1004.95 67.0768 1005.14 66.8672L1005.91 68.0293C1005.78 68.2025 1005.6 68.3757 1005.36 68.5488C1005.13 68.722 1004.85 68.8633 1004.53 68.9727C1004.21 69.082 1003.83 69.1367 1003.41 69.1367ZM974.923 81.2227V75.6035H976.844V83H975.039L974.923 81.2227ZM975.142 79.6982L975.675 79.6846C975.675 80.1813 975.627 80.6416 975.531 81.0654C975.436 81.4847 975.292 81.8493 975.101 82.1592C974.909 82.4691 974.67 82.7106 974.383 82.8838C974.096 83.0524 973.756 83.1367 973.364 83.1367C973.063 83.1367 972.785 83.0866 972.53 82.9863C972.28 82.8815 972.063 82.7197 971.881 82.501C971.699 82.2777 971.555 81.9928 971.45 81.6465C971.35 81.2956 971.3 80.874 971.3 80.3818V75.6035H973.221V80.4023C973.221 80.6029 973.239 80.776 973.275 80.9219C973.312 81.0632 973.362 81.1794 973.426 81.2705C973.49 81.3617 973.565 81.4277 973.651 81.4688C973.738 81.5052 973.836 81.5234 973.945 81.5234C974.246 81.5234 974.483 81.446 974.656 81.291C974.834 81.1315 974.959 80.915 975.032 80.6416C975.105 80.3636 975.142 80.0492 975.142 79.6982ZM980.118 77.1826V83H978.197V75.6035H979.995L980.118 77.1826ZM979.831 79.0488L979.318 79.0625C979.309 78.5065 979.362 78.0075 979.476 77.5654C979.594 77.1234 979.76 76.7474 979.975 76.4375C980.193 76.123 980.453 75.8838 980.754 75.7197C981.059 75.5511 981.399 75.4668 981.772 75.4668C982.06 75.4668 982.322 75.5169 982.559 75.6172C982.8 75.7174 983.007 75.877 983.181 76.0957C983.354 76.3145 983.488 76.6061 983.584 76.9707C983.68 77.3307 983.728 77.7728 983.728 78.2969V83H981.807V78.2832C981.807 77.9642 981.775 77.7181 981.711 77.5449C981.647 77.3672 981.551 77.2441 981.424 77.1758C981.296 77.1029 981.137 77.0664 980.945 77.0664C980.763 77.0664 980.601 77.1188 980.46 77.2236C980.319 77.3239 980.2 77.4629 980.104 77.6406C980.013 77.8184 979.943 78.028 979.893 78.2695C979.847 78.5111 979.826 78.7708 979.831 79.0488ZM988.711 81.3662V72.5H990.632V83L988.896 83.0068L988.711 81.3662ZM984.876 79.5615V79.0693C984.876 78.4678 984.926 77.9414 985.026 77.4902C985.131 77.0391 985.286 76.6631 985.491 76.3623C985.696 76.0615 985.947 75.8382 986.243 75.6924C986.544 75.542 986.888 75.4668 987.275 75.4668C987.626 75.4668 987.934 75.5557 988.198 75.7334C988.467 75.9066 988.695 76.1504 988.882 76.4648C989.069 76.7793 989.219 77.1507 989.333 77.5791C989.447 78.0075 989.527 78.4769 989.572 78.9873V79.6982C989.518 80.1813 989.433 80.6325 989.319 81.0518C989.21 81.471 989.06 81.8356 988.868 82.1455C988.681 82.4554 988.456 82.6992 988.191 82.877C987.927 83.0501 987.619 83.1367 987.269 83.1367C986.881 83.1367 986.537 83.0592 986.236 82.9043C985.94 82.7493 985.689 82.5215 985.484 82.2207C985.284 81.9154 985.131 81.5417 985.026 81.0996C984.926 80.653 984.876 80.1403 984.876 79.5615ZM986.79 79.0693V79.5615C986.79 79.9079 986.806 80.2064 986.838 80.457C986.874 80.7031 986.931 80.9059 987.009 81.0654C987.091 81.2204 987.198 81.3366 987.33 81.4141C987.462 81.487 987.626 81.5234 987.822 81.5234C988.077 81.5234 988.285 81.4596 988.444 81.332C988.604 81.1999 988.722 81.0199 988.8 80.792C988.882 80.5596 988.927 80.293 988.937 79.9922V78.7002C988.927 78.4495 988.898 78.224 988.848 78.0234C988.798 77.8229 988.727 77.652 988.636 77.5107C988.545 77.3695 988.431 77.2601 988.294 77.1826C988.162 77.1051 988.007 77.0664 987.829 77.0664C987.638 77.0664 987.474 77.1051 987.337 77.1826C987.205 77.2601 987.1 77.3809 987.022 77.5449C986.945 77.7044 986.886 77.9118 986.845 78.167C986.808 78.4176 986.79 78.7184 986.79 79.0693ZM955.789 92.6592H953.752L953.745 91.21H955.481C955.755 91.21 955.978 91.1644 956.151 91.0732C956.329 90.9775 956.459 90.8385 956.541 90.6562C956.628 90.4694 956.671 90.2438 956.671 89.9795C956.671 89.6742 956.632 89.4303 956.555 89.248C956.477 89.0612 956.352 88.9245 956.179 88.8379C956.006 88.7513 955.78 88.708 955.502 88.708H954.436V97H952.433V87.0469H955.502C955.999 87.0469 956.443 87.1016 956.835 87.2109C957.227 87.3203 957.56 87.4867 957.833 87.71C958.106 87.9333 958.314 88.2158 958.455 88.5576C958.601 88.8994 958.674 89.3027 958.674 89.7676C958.674 90.1777 958.592 90.556 958.428 90.9023C958.264 91.2487 958.006 91.5312 957.655 91.75C957.309 91.9688 956.855 92.0918 956.295 92.1191L955.789 92.6592ZM955.721 97H953.185L953.984 95.3457H955.721C955.985 95.3457 956.199 95.2887 956.363 95.1748C956.527 95.0609 956.646 94.9082 956.719 94.7168C956.792 94.5208 956.828 94.2975 956.828 94.0469C956.828 93.7643 956.794 93.5182 956.726 93.3086C956.662 93.099 956.555 92.9395 956.404 92.8301C956.254 92.7161 956.051 92.6592 955.796 92.6592H954.073L954.087 91.21H956.179L956.65 91.7842C957.184 91.766 957.61 91.8685 957.929 92.0918C958.248 92.3105 958.476 92.5977 958.612 92.9531C958.754 93.304 958.824 93.6777 958.824 94.0742C958.824 94.7122 958.703 95.25 958.462 95.6875C958.225 96.1204 957.876 96.4486 957.416 96.6719C956.956 96.8906 956.391 97 955.721 97ZM963.179 97.1367C962.673 97.1367 962.224 97.0592 961.832 96.9043C961.445 96.7493 961.117 96.526 960.848 96.2344C960.579 95.9382 960.374 95.5804 960.232 95.1611C960.091 94.7419 960.021 94.2633 960.021 93.7256V93.1172C960.021 92.5156 960.089 91.9893 960.226 91.5381C960.362 91.0824 960.556 90.6995 960.807 90.3896C961.057 90.0798 961.365 89.8496 961.729 89.6992C962.099 89.5443 962.516 89.4668 962.98 89.4668C963.445 89.4668 963.853 89.5443 964.204 89.6992C964.56 89.8496 964.854 90.0775 965.086 90.3828C965.318 90.6836 965.494 91.0573 965.612 91.5039C965.731 91.9505 965.79 92.4701 965.79 93.0625V93.9375H960.834V92.5908H963.91V92.4199C963.91 92.1191 963.878 91.8685 963.814 91.668C963.751 91.4629 963.65 91.3102 963.514 91.21C963.377 91.1097 963.195 91.0596 962.967 91.0596C962.775 91.0596 962.614 91.0983 962.481 91.1758C962.349 91.2533 962.244 91.374 962.167 91.5381C962.09 91.7021 962.033 91.9163 961.996 92.1807C961.96 92.4404 961.941 92.7526 961.941 93.1172V93.7256C961.941 94.0674 961.971 94.3545 962.03 94.5869C962.09 94.8148 962.176 95.0016 962.29 95.1475C962.409 95.2887 962.552 95.3913 962.721 95.4551C962.889 95.5143 963.085 95.5439 963.309 95.5439C963.646 95.5439 963.949 95.4847 964.218 95.3662C964.491 95.2432 964.724 95.0768 964.915 94.8672L965.681 96.0293C965.549 96.2025 965.366 96.3757 965.134 96.5488C964.901 96.722 964.623 96.8633 964.3 96.9727C963.976 97.082 963.603 97.1367 963.179 97.1367ZM971.956 95.4072V97H967.26V95.4072H971.956ZM971.908 90.7656L968.012 97H966.733V95.7969L970.609 89.6035H971.908V90.7656ZM971.238 89.6035V91.1963H966.809V89.6035H971.238ZM976.488 95.2979V91.8799C976.488 91.6566 976.461 91.4788 976.406 91.3467C976.356 91.2145 976.279 91.1188 976.174 91.0596C976.074 90.9958 975.951 90.9639 975.805 90.9639C975.641 90.9639 975.504 90.998 975.395 91.0664C975.285 91.1348 975.203 91.2327 975.148 91.3604C975.098 91.488 975.073 91.6406 975.073 91.8184H973.152C973.152 91.4993 973.214 91.1986 973.337 90.916C973.46 90.6289 973.64 90.3783 973.877 90.1641C974.118 89.9453 974.406 89.7744 974.738 89.6514C975.071 89.5283 975.445 89.4668 975.859 89.4668C976.352 89.4668 976.789 89.5511 977.172 89.7197C977.555 89.8838 977.858 90.1458 978.081 90.5059C978.304 90.8659 978.416 91.333 978.416 91.9072V95.2021C978.416 95.6169 978.437 95.9541 978.478 96.2139C978.523 96.4736 978.589 96.6969 978.676 96.8838V97H976.748C976.661 96.7949 976.595 96.5397 976.55 96.2344C976.509 95.9245 976.488 95.6123 976.488 95.2979ZM976.721 92.4814L976.728 93.6299H976.023C975.841 93.6299 975.682 93.6595 975.545 93.7188C975.413 93.778 975.301 93.8623 975.21 93.9717C975.119 94.0765 975.05 94.1995 975.005 94.3408C974.964 94.4821 974.943 94.6325 974.943 94.792C974.943 94.9697 974.968 95.1201 975.019 95.2432C975.069 95.3662 975.144 95.4596 975.244 95.5234C975.344 95.5872 975.463 95.6191 975.6 95.6191C975.809 95.6191 975.992 95.5758 976.146 95.4893C976.301 95.4027 976.415 95.2979 976.488 95.1748C976.566 95.0518 976.591 94.9378 976.563 94.833L977.001 95.5781C976.946 95.7467 976.871 95.9222 976.775 96.1045C976.684 96.2868 976.568 96.4554 976.427 96.6104C976.285 96.7653 976.11 96.8929 975.9 96.9932C975.695 97.0889 975.451 97.1367 975.169 97.1367C974.772 97.1367 974.41 97.0456 974.082 96.8633C973.754 96.681 973.494 96.4258 973.303 96.0977C973.116 95.7695 973.022 95.3799 973.022 94.9287C973.022 94.555 973.082 94.2178 973.2 93.917C973.323 93.6117 973.506 93.3542 973.747 93.1445C973.989 92.9303 974.294 92.7663 974.663 92.6523C975.032 92.5384 975.465 92.4814 975.962 92.4814H976.721ZM981.697 86.5V97H979.783V86.5H981.697ZM981.424 93.0488L980.904 93.0625C980.904 92.543 980.957 92.0645 981.062 91.627C981.171 91.1895 981.328 90.8089 981.533 90.4854C981.738 90.1618 981.987 89.9111 982.278 89.7334C982.575 89.5557 982.9 89.4668 983.256 89.4668C983.561 89.4668 983.839 89.5192 984.09 89.624C984.34 89.7288 984.557 89.8929 984.739 90.1162C984.926 90.3395 985.07 90.6335 985.17 90.998C985.27 91.3626 985.32 91.807 985.32 92.3311V97H983.399V92.3174C983.399 91.9984 983.368 91.7477 983.304 91.5654C983.24 91.3831 983.144 91.2555 983.017 91.1826C982.889 91.1051 982.729 91.0664 982.538 91.0664C982.333 91.0664 982.158 91.1188 982.012 91.2236C981.87 91.3239 981.757 91.4629 981.67 91.6406C981.583 91.8184 981.52 92.028 981.479 92.2695C981.442 92.5111 981.424 92.7708 981.424 93.0488ZM988.731 86.5V97H986.811V86.5H988.731ZM993.824 95.2227V89.6035H995.745V97H993.94L993.824 95.2227ZM994.043 93.6982L994.576 93.6846C994.576 94.1813 994.528 94.6416 994.433 95.0654C994.337 95.4847 994.193 95.8493 994.002 96.1592C993.811 96.4691 993.571 96.7106 993.284 96.8838C992.997 97.0524 992.658 97.1367 992.266 97.1367C991.965 97.1367 991.687 97.0866 991.432 96.9863C991.181 96.8815 990.965 96.7197 990.782 96.501C990.6 96.2777 990.456 95.9928 990.352 95.6465C990.251 95.2956 990.201 94.874 990.201 94.3818V89.6035H992.122V94.4023C992.122 94.6029 992.14 94.776 992.177 94.9219C992.213 95.0632 992.263 95.1794 992.327 95.2705C992.391 95.3617 992.466 95.4277 992.553 95.4688C992.639 95.5052 992.737 95.5234 992.847 95.5234C993.147 95.5234 993.384 95.446 993.558 95.291C993.735 95.1315 993.861 94.915 993.934 94.6416C994.007 94.3636 994.043 94.0492 994.043 93.6982ZM999.02 91.1826V97H997.099V89.6035H998.896L999.02 91.1826ZM998.732 93.0488L998.22 93.0625C998.211 92.5065 998.263 92.0075 998.377 91.5654C998.495 91.1234 998.662 90.7474 998.876 90.4375C999.095 90.123 999.354 89.8838 999.655 89.7197C999.961 89.5511 1000.3 89.4668 1000.67 89.4668C1000.96 89.4668 1001.22 89.5169 1001.46 89.6172C1001.7 89.7174 1001.91 89.877 1002.08 90.0957C1002.26 90.3145 1002.39 90.6061 1002.49 90.9707C1002.58 91.3307 1002.63 91.7728 1002.63 92.2969V97H1000.71V92.2832C1000.71 91.9642 1000.68 91.7181 1000.61 91.5449C1000.55 91.3672 1000.45 91.2441 1000.33 91.1758C1000.2 91.1029 1000.04 91.0664 999.847 91.0664C999.664 91.0664 999.503 91.1188 999.361 91.2236C999.22 91.3239 999.102 91.4629 999.006 91.6406C998.915 91.8184 998.844 92.028 998.794 92.2695C998.748 92.5111 998.728 92.7708 998.732 93.0488ZM1007.92 89.6035H1009.66V97C1009.66 97.6745 1009.53 98.2259 1009.27 98.6543C1009.01 99.0872 1008.65 99.404 1008.19 99.6045C1007.74 99.8096 1007.2 99.9121 1006.59 99.9121C1006.36 99.9121 1006.1 99.8802 1005.81 99.8164C1005.52 99.7526 1005.24 99.6546 1004.97 99.5225C1004.7 99.3949 1004.48 99.2399 1004.31 99.0576L1004.96 97.7314C1005.14 97.9092 1005.37 98.0596 1005.66 98.1826C1005.94 98.3102 1006.23 98.374 1006.5 98.374C1006.77 98.374 1007 98.3307 1007.17 98.2441C1007.36 98.1621 1007.49 98.0208 1007.58 97.8203C1007.68 97.6198 1007.73 97.3509 1007.73 97.0137V91.3193L1007.92 89.6035ZM1003.79 93.5615V93.0693C1003.79 92.4678 1003.85 91.9414 1003.96 91.4902C1004.08 91.0391 1004.24 90.6631 1004.45 90.3623C1004.67 90.0615 1004.93 89.8382 1005.24 89.6924C1005.55 89.542 1005.91 89.4668 1006.29 89.4668C1006.7 89.4668 1007.04 89.5557 1007.31 89.7334C1007.58 89.9066 1007.81 90.1504 1007.97 90.4648C1008.15 90.7793 1008.28 91.1507 1008.37 91.5791C1008.47 92.0075 1008.54 92.4769 1008.59 92.9873V93.6982C1008.54 94.1813 1008.46 94.6325 1008.34 95.0518C1008.23 95.471 1008.09 95.8356 1007.91 96.1455C1007.72 96.4554 1007.5 96.6992 1007.24 96.877C1006.97 97.0501 1006.65 97.1367 1006.28 97.1367C1005.9 97.1367 1005.55 97.0592 1005.24 96.9043C1004.93 96.7493 1004.67 96.5215 1004.45 96.2207C1004.24 95.9154 1004.08 95.5417 1003.96 95.0996C1003.85 94.653 1003.79 94.1403 1003.79 93.5615ZM1005.71 93.0693V93.5615C1005.71 93.9079 1005.73 94.2064 1005.77 94.457C1005.82 94.7031 1005.89 94.9059 1005.98 95.0654C1006.07 95.2204 1006.19 95.3366 1006.33 95.4141C1006.47 95.487 1006.64 95.5234 1006.84 95.5234C1007.12 95.5234 1007.34 95.4596 1007.5 95.332C1007.67 95.1999 1007.79 95.0199 1007.87 94.792C1007.95 94.5596 1008 94.293 1008.01 93.9922V92.7002C1008 92.4495 1007.97 92.224 1007.92 92.0234C1007.87 91.8229 1007.8 91.652 1007.71 91.5107C1007.62 91.3695 1007.5 91.2601 1007.35 91.1826C1007.21 91.1051 1007.04 91.0664 1006.85 91.0664C1006.66 91.0664 1006.49 91.1051 1006.35 91.1826C1006.21 91.2601 1006.09 91.3809 1005.99 91.5449C1005.9 91.7044 1005.83 91.9118 1005.78 92.167C1005.73 92.4176 1005.71 92.7184 1005.71 93.0693Z" fill="#E0E0E9"/>
<path fill-rule="evenodd" clip-rule="evenodd" d="M988 33H363V31H988V33Z" fill="#D0CFD7"/>
<path fill-rule="evenodd" clip-rule="evenodd" d="M343 33H49V31H343V33Z" fill="url(#paint2_linear_1405_1346)"/>
<g filter="url(#filter0_d_1405_1346)">
<path d="M36 17C27.7125 17 21 23.7125 21 32C21 34.8125 21.7875 37.475 23.175 39.725C24.497 41.9468 26.3748 43.7861 28.6236 45.0617C30.8724 46.3373 33.4146 47.0053 36 47C41.475 47 46.2375 44.075 48.825 39.725C50.2125 37.475 51 34.8125 51 32C51 23.7125 44.2875 17 36 17ZM43.3875 30.7625L35.4 38.15C34.875 38.6375 34.1625 38.9 33.4875 38.9C32.775 38.9 32.0625 38.6375 31.5 38.075L27.7875 34.3625C27.2644 33.8332 26.9711 33.1191 26.9711 32.375C26.9711 31.6309 27.2644 30.9168 27.7875 30.3875C28.875 29.3 30.675 29.3 31.7625 30.3875L33.5625 32.1875L39.5625 26.6375C40.6875 25.5875 42.4875 25.6625 43.5375 26.7875C44.5875 27.9125 44.5125 29.7125 43.3875 30.7625Z" fill="url(#paint3_linear_1405_1346)"/>
</g>
<g filter="url(#filter1_d_1405_1346)">
<path d="M353 17C344.712 17 338 23.7125 338 32C338 34.8125 338.788 37.475 340.175 39.725C341.497 41.9468 343.375 43.7861 345.624 45.0617C347.872 46.3373 350.415 47.0053 353 47C358.475 47 363.238 44.075 365.825 39.725C367.213 37.475 368 34.8125 368 32C368 23.7125 361.288 17 353 17ZM360.387 30.7625L352.4 38.15C351.875 38.6375 351.162 38.9 350.487 38.9C349.775 38.9 349.062 38.6375 348.5 38.075L344.787 34.3625C344.264 33.8332 343.971 33.1191 343.971 32.375C343.971 31.6309 344.264 30.9168 344.787 30.3875C345.875 29.3 347.675 29.3 348.762 30.3875L350.562 32.1875L356.562 26.6375C357.687 25.5875 359.488 25.6625 360.538 26.7875C361.588 27.9125 361.512 29.7125 360.387 30.7625Z" fill="url(#paint4_linear_1405_1346)"/>
</g>
<circle cx="674.5" cy="32.5" r="14.5" fill="#D0CFD7"/>
<circle cx="980.5" cy="32.5" r="14.5" fill="#D0CFD7"/>
<defs>
<filter id="filter0_d_1405_1346" x="4" y="0" width="74" height="74" filterUnits="userSpaceOnUse" color-interpolation-filters="sRGB">
<feFlood flood-opacity="0" result="BackgroundImageFix"/>
<feColorMatrix in="SourceAlpha" type="matrix" values="0 0 0 0 0 0 0 0 0 0 0 0 0 0 0 0 0 0 127 0" result="hardAlpha"/>
<feOffset dx="5" dy="5"/>
<feGaussianBlur stdDeviation="11"/>
<feComposite in2="hardAlpha" operator="out"/>
<feColorMatrix type="matrix" values="0 0 0 0 0.0392157 0 0 0 0 0.560784 0 0 0 0 0.309804 0 0 0 0.2 0"/>
<feBlend mode="normal" in2="BackgroundImageFix" result="effect1_dropShadow_1405_1346"/>
<feBlend mode="normal" in="SourceGraphic" in2="effect1_dropShadow_1405_1346" result="shape"/>
</filter>
<filter id="filter1_d_1405_1346" x="321" y="0" width="74" height="74" filterUnits="userSpaceOnUse" color-interpolation-filters="sRGB">
<feFlood flood-opacity="0" result="BackgroundImageFix"/>
<feColorMatrix in="SourceAlpha" type="matrix" values="0 0 0 0 0 0 0 0 0 0 0 0 0 0 0 0 0 0 127 0" result="hardAlpha"/>
<feOffset dx="5" dy="5"/>
<feGaussianBlur stdDeviation="11"/>
<feComposite in2="hardAlpha" operator="out"/>
<feColorMatrix type="matrix" values="0 0 0 0 0.0392157 0 0 0 0 0.560784 0 0 0 0 0.309804 0 0 0 0.2 0"/>
<feBlend mode="normal" in2="BackgroundImageFix" result="effect1_dropShadow_1405_1346"/>
<feBlend mode="normal" in="SourceGraphic" in2="effect1_dropShadow_1405_1346" result="shape"/>
</filter>
<linearGradient id="paint0_linear_1405_1346" x1="34.5" y1="85" x2="34.5" y2="57" gradientUnits="userSpaceOnUse">
<stop stop-color="#5CCC94"/>
<stop offset="1" stop-color="#8CCAAE"/>
</linearGradient>
<linearGradient id="paint1_linear_1405_1346" x1="353.5" y1="77" x2="353.5" y2="57" gradientUnits="userSpaceOnUse">
<stop stop-color="#5CCC94"/>
<stop offset="1" stop-color="#8CCAAE"/>
</linearGradient>
<linearGradient id="paint2_linear_1405_1346" x1="196" y1="33" x2="196" y2="31" gradientUnits="userSpaceOnUse">
<stop stop-color="#5CCC94"/>
<stop offset="1" stop-color="#8CCAAE"/>
</linearGradient>
<linearGradient id="paint3_linear_1405_1346" x1="36" y1="47" x2="36" y2="17" gradientUnits="userSpaceOnUse">
<stop stop-color="#5CCC94"/>
<stop offset="1" stop-color="#8CCAAE"/>
</linearGradient>
<linearGradient id="paint4_linear_1405_1346" x1="353" y1="47" x2="353" y2="17" gradientUnits="userSpaceOnUse">
<stop stop-color="#5CCC94"/>
<stop offset="1" stop-color="#8CCAAE"/>
</linearGradient>
</defs>
</svg>
